<?xml version='1.0' encoding='utf-8'?>
<svg height="700" width="700" xmlns="http://www.w3.org/2000/svg"><path d="M418.308550186,520.446096654 L428.717472119,520.446096654 L436.524163569,523.048327138 L439.126394052,523.048327138 L433.921933086,537.360594796 L441.728624535,550.371747212 L435.223048327,554.275092937 L414.405204461,546.468401487 L418.308550186,520.446096654 Z" fill="#cee3f5" id="CN.shanxi.2963903" stroke="#6e6e6e" stroke-width="0.4"><desc><name>Changzhi County</name><admin_leve>6</admin_leve><wikipedia>de:Changzhi (Kreis)</wikipedia><localname>长治县 (Changzhi)</localname><boundary>administrative</boundary><id>CN.shanxi.2963903</id></desc></path><path d="M439.126394052,523.048327138 L441.728624535,513.940520446 L465.148698885,536.059479554 L491.171003717,542.565055762 L484.665427509,559.479553903 L441.728624535,550.371747212 L433.921933086,537.360594796 L439.126394052,523.048327138 Z" fill="#cee3f5" id="CN.shanxi.2963905" stroke="#6e6e6e" stroke-width="0.4"><desc><name>Huguan County</name><admin_leve>6</admin_leve><wikipedia>de:Huguan</wikipedia><localname>壶关县 (Huguan)</localname><boundary>administrative</boundary><id>CN.shanxi.2963905</id></desc></path><path d="M418.308550186,520.446096654 L419.609665428,516.542750929 L420.910780669,493.12267658 L420.910780669,490.520446097 L441.728624535,508.73605948 L441.728624535,513.940520446 L439.126394052,523.048327138 L436.524163569,523.048327138 L428.717472119,520.446096654 L418.308550186,520.446096654 Z" fill="#cee3f5" id="CN.shanxi.2963906" stroke="#6e6e6e" stroke-width="0.4"><desc><name>Jiaoqu District</name><admin_leve>6</admin_leve><wikidata>Q546056</wikidata><localname>郊区 (Jiaoqu)</localname><boundary>administrative</boundary><id>CN.shanxi.2963906</id></desc></path><path d="M444.330855019,464.498141264 L461.24535316,438.475836431 L480.762081784,454.089219331 L485.966542751,486.617100372 L462.546468401,493.12267658 L446.933085502,484.014869888 L444.330855019,464.498141264 Z" fill="#cee3f5" id="CN.shanxi.2963907" stroke="#6e6e6e" stroke-width="0.4"><desc><name>Licheng County</name><admin_leve>6</admin_leve><wikipedia>de:Licheng (Changzhi)</wikipedia><localname>黎城县 (Licheng)</localname><boundary>administrative</boundary><id>CN.shanxi.2963907</id></desc></path><path d="M446.933085502,484.014869888 L462.546468401,493.12267658 L457.342007435,511.338289963 L441.728624535,508.73605948 L420.910780669,490.520446097 L446.933085502,484.014869888 Z" fill="#cee3f5" id="CN.shanxi.2963908" stroke="#6e6e6e" stroke-width="0.4"><desc><admin_leve>6</admin_leve><localname>潞城市 (Lucheng)</localname><boundary>administrative</boundary><id>CN.shanxi.2963908</id><name>Lucheng City</name></desc></path><path d="M441.728624535,508.73605948 L457.342007435,511.338289963 L462.546468401,493.12267658 L485.966542751,486.617100372 L502.881040892,497.026022305 L493.773234201,520.446096654 L491.171003717,542.565055762 L465.148698885,536.059479554 L441.728624535,513.940520446 L441.728624535,508.73605948 Z" fill="#cee3f5" id="CN.shanxi.2963909" stroke="#6e6e6e" stroke-width="0.4"><desc><name>Pingshun County</name><admin_leve>6</admin_leve><wikipedia>de:Pingshun</wikipedia><localname>平顺县 (Pingshun)</localname><boundary>administrative</boundary><id>CN.shanxi.2963909</id></desc></path><path d="M358.457249071,430.669144981 L367.565055762,428.066914498 L392.286245353,437.17472119 L407.899628253,455.390334572 L385.780669145,481.412639405 L362.360594796,489.219330855 L361.059479554,461.895910781 L367.565055762,438.475836431 L358.457249071,430.669144981 Z" fill="#cee3f5" id="CN.shanxi.2963910" stroke="#6e6e6e" stroke-width="0.4"><desc><name>Qin County</name><admin_leve>6</admin_leve><wikipedia>de:Qin (Changzhi)</wikipedia><localname>沁县 (Qin)</localname><boundary>administrative</boundary><id>CN.shanxi.2963910</id></desc></path><path d="M306.412639405,443.680297398 L324.628252788,424.163568773 L358.457249071,430.669144981 L367.565055762,438.475836431 L361.059479554,461.895910781 L362.360594796,489.219330855 L355.855018587,500.92936803 L325.92936803,487.918215613 L310.31598513,471.003717472 L305.111524164,460.594795539 L306.412639405,443.680297398 Z" fill="#cee3f5" id="CN.shanxi.2963911" stroke="#6e6e6e" stroke-width="0.4"><desc><name>Qinyuan County</name><admin_leve>6</admin_leve><wikipedia>de:Qinyuan</wikipedia><localname>沁源县 (Qinyuan)</localname><boundary>administrative</boundary><id>CN.shanxi.2963911</id></desc></path><path d="M355.855018587,500.92936803 L362.360594796,489.219330855 L385.780669145,481.412639405 L420.910780669,493.12267658 L419.609665428,516.542750929 L405.29739777,510.037174721 L370.167286245,517.843866171 L355.855018587,500.92936803 Z" fill="#cee3f5" id="CN.shanxi.2963912" stroke="#6e6e6e" stroke-width="0.4"><desc><name>Tunliu County</name><admin_leve>6</admin_leve><wikipedia>de:Tunliu</wikipedia><localname>屯留县 (Tunliu)</localname><boundary>administrative</boundary><id>CN.shanxi.2963912</id></desc></path><path d="M355.855018587,412.453531599 L377.973977695,411.152416357 L419.609665428,433.271375465 L443.029739777,431.970260223 L461.24535316,438.475836431 L444.330855019,464.498141264 L433.921933086,456.691449814 L407.899628253,455.390334572 L392.286245353,437.17472119 L367.565055762,428.066914498 L355.855018587,412.453531599 Z" fill="#cee3f5" id="CN.shanxi.2963913" stroke="#6e6e6e" stroke-width="0.4"><desc><name>Wuxiang County</name><admin_leve>6</admin_leve><wikipedia>de:Wuxiang</wikipedia><localname>武乡县 (Wuxiang)</localname><boundary>administrative</boundary><id>CN.shanxi.2963913</id></desc></path><path d="M407.899628253,455.390334572 L433.921933086,456.691449814 L444.330855019,464.498141264 L446.933085502,484.014869888 L420.910780669,490.520446097 L420.910780669,493.12267658 L385.780669145,481.412639405 L407.899628253,455.390334572 Z" fill="#cee3f5" id="CN.shanxi.2963914" stroke="#6e6e6e" stroke-width="0.4"><desc><name>Xiangyuan County</name><admin_leve>6</admin_leve><wikipedia>de:Xiangyuan</wikipedia><localname>襄垣县 (Xiangyuan)</localname><boundary>administrative</boundary><id>CN.shanxi.2963914</id></desc></path><path d="M370.167286245,517.843866171 L405.29739777,510.037174721 L419.609665428,516.542750929 L418.308550186,520.446096654 L414.405204461,546.468401487 L393.587360595,539.962825279 L364.962825279,534.758364312 L370.167286245,517.843866171 Z" fill="#cee3f5" id="CN.shanxi.2963915" stroke="#6e6e6e" stroke-width="0.4"><desc><name>Zhangzi County</name><admin_leve>6</admin_leve><wikipedia>de:Zhangzi</wikipedia><localname>长子县 (Zhangzi)</localname><boundary>administrative</boundary><id>CN.shanxi.2963915</id></desc></path><path d="M186.710037175,227.695167286 L189.312267658,200.371747212 L210.130111524,186.059479554 L227.044609665,208.178438662 L215.334572491,228.996282528 L194.516728625,236.802973978 L186.710037175,227.695167286 Z" fill="#cee3f5" id="CN.shanxi.3008555" stroke="#6e6e6e" stroke-width="0.4"><desc><admin_leve>6</admin_leve><localname>保德县 (Baode)</localname><boundary>administrative</boundary><id>CN.shanxi.3008555</id><name>Baode County</name></desc></path><path d="M389.68401487,182.156133829 L390.985130112,176.951672862 L427.416356877,158.73605948 L437.82527881,163.940520446 L444.330855019,189.962825279 L459.944237918,199.07063197 L436.524163569,214.68401487 L420.910780669,215.985130112 L397.49070632,199.07063197 L389.68401487,182.156133829 Z" fill="#cee3f5" id="CN.shanxi.3008556" stroke="#6e6e6e" stroke-width="0.4"><desc><admin_leve>6</admin_leve><localname>代县 (Dai)</localname><boundary>administrative</boundary><id>CN.shanxi.3008556</id><name>Dai County</name></desc></path><path d="M389.68401487,240.706319703 L428.717472119,238.104089219 L452.137546468,258.921933086 L435.223048327,264.126394052 L414.405204461,271.933085502 L400.092936803,245.910780669 L389.68401487,240.706319703 Z" fill="#cee3f5" id="CN.shanxi.3008557" stroke="#6e6e6e" stroke-width="0.4"><desc><admin_leve>6</admin_leve><localname>定襄县 (Dingxiang)</localname><boundary>administrative</boundary><id>CN.shanxi.3008557</id><name>Dingxiang County</name></desc></path><path d="M437.82527881,163.940520446 L462.546468401,163.940520446 L484.665427509,148.327137546 L521.096654275,156.133828996 L528.903345725,166.542750929 L527.602230483,187.360594796 L508.085501859,199.07063197 L484.665427509,188.661710037 L459.944237918,199.07063197 L444.330855019,189.962825279 L437.82527881,163.940520446 Z" fill="#cee3f5" id="CN.shanxi.3008558" stroke="#6e6e6e" stroke-width="0.4"><desc><name>Fanshi County</name><admin_leve>6</admin_leve><wikipedia>en:Fanshi County</wikipedia><localname>繁峙县 (Fanshi)</localname><boundary>administrative</boundary><id>CN.shanxi.3008558</id></desc></path><path d="M232.249070632,147.026022305 L238.75464684,160.037174721 L260.873605948,173.048327138 L249.163568773,179.553903346 L243.959107807,200.371747212 L227.044609665,208.178438662 L210.130111524,186.059479554 L217.936802974,166.542750929 L207.527881041,152.230483271 L232.249070632,147.026022305 Z" fill="#cee3f5" id="CN.shanxi.3008559" stroke="#6e6e6e" stroke-width="0.4"><desc><admin_leve>6</admin_leve><localname>河曲县 (Hequ)</localname><boundary>administrative</boundary><id>CN.shanxi.3008559</id><name>Hequ County</name></desc></path><path d="M279.089219331,251.115241636 L290.799256506,245.910780669 L310.31598513,247.211895911 L325.92936803,235.501858736 L341.542750929,248.513011152 L342.843866171,268.029739777 L336.338289963,277.137546468 L329.832713755,296.654275093 L310.31598513,291.449814126 L282.992565056,286.24535316 L279.089219331,251.115241636 Z" fill="#cee3f5" id="CN.shanxi.3008560" stroke="#6e6e6e" stroke-width="0.4"><desc><admin_leve>6</admin_leve><localname>静乐县 (Jingle)</localname><boundary>administrative</boundary><id>CN.shanxi.3008560</id><name>Jingle County</name></desc></path><path d="M215.334572491,228.996282528 L227.044609665,208.178438662 L243.959107807,200.371747212 L268.680297398,210.780669145 L288.197026022,231.598513011 L290.799256506,245.910780669 L279.089219331,251.115241636 L254.36802974,253.717472119 L238.75464684,247.211895911 L215.334572491,228.996282528 Z" fill="#cee3f5" id="CN.shanxi.3008561" stroke="#6e6e6e" stroke-width="0.4"><desc><admin_leve>6</admin_leve><localname>岢岚县 (Kelan)</localname><boundary>administrative</boundary><id>CN.shanxi.3008561</id><name>Kelan County</name></desc></path><path d="M288.197026022,231.598513011 L307.713754647,206.87732342 L316.821561338,205.576208178 L336.338289963,182.156133829 L376.672862454,188.661710037 L341.542750929,205.576208178 L341.542750929,228.996282528 L358.457249071,234.200743494 L341.542750929,248.513011152 L325.92936803,235.501858736 L310.31598513,247.211895911 L290.799256506,245.910780669 L288.197026022,231.598513011 Z" fill="#cee3f5" id="CN.shanxi.3008562" stroke="#6e6e6e" stroke-width="0.4"><desc><admin_leve>6</admin_leve><localname>宁武县 (Ningwu)</localname><boundary>administrative</boundary><id>CN.shanxi.3008562</id><name>Ningwu County</name></desc></path><path d="M232.249070632,147.026022305 L247.862453532,123.605947955 L279.089219331,131.412639405 L297.304832714,128.810408922 L306.412639405,154.832713755 L290.799256506,156.133828996 L275.185873606,169.144981413 L260.873605948,173.048327138 L238.75464684,160.037174721 L232.249070632,147.026022305 Z" fill="#cee3f5" id="CN.shanxi.3008563" stroke="#6e6e6e" stroke-width="0.4"><desc><admin_leve>6</admin_leve><localname>偏关县 (Pianguan)</localname><boundary>administrative</boundary><id>CN.shanxi.3008563</id><name>Pianguan County</name></desc></path><path d="M306.412639405,154.832713755 L307.713754647,156.133828996 L336.338289963,182.156133829 L316.821561338,205.576208178 L307.713754647,206.87732342 L281.691449814,187.360594796 L275.185873606,169.144981413 L290.799256506,156.133828996 L306.412639405,154.832713755 Z" fill="#cee3f5" id="CN.shanxi.3008564" stroke="#6e6e6e" stroke-width="0.4"><desc><admin_leve>6</admin_leve><localname>神池县 (Shenchi)</localname><boundary>administrative</boundary><id>CN.shanxi.3008564</id><name>Shenchi County</name></desc></path><path d="M420.910780669,215.985130112 L436.524163569,214.68401487 L459.944237918,199.07063197 L484.665427509,188.661710037 L508.085501859,199.07063197 L515.892193309,217.286245353 L480.762081784,252.416356877 L452.137546468,258.921933086 L428.717472119,238.104089219 L420.910780669,215.985130112 Z" fill="#cee3f5" id="CN.shanxi.3008565" stroke="#6e6e6e" stroke-width="0.4"><desc><admin_leve>6</admin_leve><localname>五台县 (Wutai)</localname><boundary>administrative</boundary><id>CN.shanxi.3008565</id><name>Wutai County</name></desc></path><path d="M243.959107807,200.371747212 L249.163568773,179.553903346 L260.873605948,173.048327138 L275.185873606,169.144981413 L281.691449814,187.360594796 L307.713754647,206.87732342 L288.197026022,231.598513011 L268.680297398,210.780669145 L243.959107807,200.371747212 Z" fill="#cee3f5" id="CN.shanxi.3008566" stroke="#6e6e6e" stroke-width="0.4"><desc><admin_leve>6</admin_leve><localname>五寨县 (Wuzhai)</localname><boundary>administrative</boundary><id>CN.shanxi.3008566</id><name>Wuzhai County</name></desc></path><path d="M341.542750929,248.513011152 L358.457249071,234.200743494 L368.866171004,243.308550186 L389.68401487,240.706319703 L400.092936803,245.910780669 L414.405204461,271.933085502 L387.081784387,284.944237918 L368.866171004,284.944237918 L336.338289963,277.137546468 L342.843866171,268.029739777 L341.542750929,248.513011152 Z" fill="#cee3f5" id="CN.shanxi.3008567" stroke="#6e6e6e" stroke-width="0.4"><desc><name>Xinfu District</name><admin_leve>6</admin_leve><wikipedia>en:Xinfu District, Xinzhou</wikipedia><localname>忻府区 (Xinfu)</localname><boundary>administrative</boundary><id>CN.shanxi.3008567</id></desc></path><path d="M376.672862454,188.661710037 L389.68401487,182.156133829 L397.49070632,199.07063197 L420.910780669,215.985130112 L428.717472119,238.104089219 L389.68401487,240.706319703 L368.866171004,243.308550186 L358.457249071,234.200743494 L341.542750929,228.996282528 L341.542750929,205.576208178 L376.672862454,188.661710037 Z" fill="#cee3f5" id="CN.shanxi.3008568" stroke="#6e6e6e" stroke-width="0.4"><desc><admin_leve>6</admin_leve><localname>原平市 (Yuanping)</localname><boundary>administrative</boundary><id>CN.shanxi.3008568</id><name>Yuanping City</name></desc></path><path d="M254.36802974,301.858736059 L282.992565056,286.24535316 L310.31598513,291.449814126 L311.617100372,317.472118959 L298.605947955,323.977695167 L272.583643123,326.579925651 L256.970260223,323.977695167 L254.36802974,301.858736059 Z" fill="#cee3f5" id="CN.shanxi.3022867" stroke="#6e6e6e" stroke-width="0.4"><desc><admin_leve>6</admin_leve><localname>娄烦县 (Loufan)</localname><boundary>administrative</boundary><id>CN.shanxi.3022867</id><name>Loufan County</name></desc></path><path d="M233.550185874,292.750929368 L245.260223048,274.535315985 L236.152416357,264.126394052 L238.75464684,247.211895911 L254.36802974,253.717472119 L279.089219331,251.115241636 L282.992565056,286.24535316 L254.36802974,301.858736059 L233.550185874,292.750929368 Z" fill="#cee3f5" id="CN.shanxi.3022871" stroke="#6e6e6e" stroke-width="0.4"><desc><name>Lan County</name><admin_leve>6</admin_leve><wikipedia>en:Lan County</wikipedia><localname>岚县 (Lan)</localname><boundary>administrative</boundary><id>CN.shanxi.3022871</id></desc></path><path d="M433.921933086,364.312267658 L458.643122677,359.107806691 L461.24535316,374.721189591 L497.676579926,373.420074349 L506.784386617,385.130111524 L525.0,386.431226766 L504.182156134,416.356877323 L483.364312268,402.044609665 L457.342007435,394.237918216 L433.921933086,402.044609665 L426.115241636,379.925650558 L433.921933086,364.312267658 Z" fill="#cee3f5" id="CN.shanxi.3075779" stroke="#6e6e6e" stroke-width="0.4"><desc><admin_leve>6</admin_leve><localname>和顺县 (Heshun)</localname><boundary>administrative</boundary><id>CN.shanxi.3075779</id><name>Heshun County</name></desc></path><path d="M433.921933086,402.044609665 L457.342007435,394.237918216 L483.364312268,402.044609665 L504.182156134,416.356877323 L509.3866171,438.475836431 L480.762081784,454.089219331 L461.24535316,438.475836431 L443.029739777,431.970260223 L433.921933086,402.044609665 Z" fill="#cee3f5" id="CN.shanxi.3075780" stroke="#6e6e6e" stroke-width="0.4"><desc><admin_leve>6</admin_leve><localname>左权县 (Zuoquan)</localname><boundary>administrative</boundary><id>CN.shanxi.3075780</id><name>Zuoquan County</name></desc></path><path d="M141.171003717,593.308550186 L143.773234201,567.286245353 L172.397769517,572.49070632 L172.397769517,590.706319703 L156.784386617,598.513011152 L141.171003717,593.308550186 Z" fill="#cee3f5" id="CN.shanxi.3224216" stroke="#6e6e6e" stroke-width="0.4"><desc><name>Hejin City</name><admin_leve>6</admin_leve><wikipedia>en:Hejin</wikipedia><localname>河津市 (Hejin)</localname><boundary>administrative</boundary><id>CN.shanxi.3224216</id></desc></path><path d="M241.356877323,588.104089219 L243.959107807,588.104089219 L260.873605948,578.996282528 L290.799256506,582.899628253 L289.498141264,607.620817844 L263.475836431,611.524163569 L234.851301115,601.115241636 L241.356877323,588.104089219 Z" fill="#cee3f5" id="CN.shanxi.3224217" stroke="#6e6e6e" stroke-width="0.4"><desc><name>Jiang County</name><admin_leve>6</admin_leve><wikipedia>en:Jiang County</wikipedia><localname>绛县 (Jiang)</localname><boundary>administrative</boundary><id>CN.shanxi.3224217</id></desc></path><path d="M172.397769517,572.49070632 L198.420074349,568.587360595 L202.323420074,585.501858736 L195.817843866,601.115241636 L191.914498141,608.921933086 L172.397769517,590.706319703 L172.397769517,572.49070632 Z" fill="#cee3f5" id="CN.shanxi.3224218" stroke="#6e6e6e" stroke-width="0.4"><desc><name>Jishan County</name><admin_leve>6</admin_leve><wikipedia>en:Jishan County</wikipedia><localname>稷山县 (Jishan)</localname><boundary>administrative</boundary><id>CN.shanxi.3224218</id></desc></path><path d="M117.750929368,645.353159851 L128.159851301,616.728624535 L141.171003717,623.234200743 L167.19330855,618.029739777 L177.602230483,624.535315985 L181.505576208,645.353159851 L165.892193309,650.557620818 L133.364312268,653.159851301 L117.750929368,645.353159851 Z" fill="#cee3f5" id="CN.shanxi.3224219" stroke="#6e6e6e" stroke-width="0.4"><desc><name>Linyi County</name><admin_leve>6</admin_leve><wikipedia>en:Linyi County, Shanxi</wikipedia><localname>临猗县 (Linyi)</localname><boundary>administrative</boundary><id>CN.shanxi.3224219</id></desc></path><path d="M180.204460967,670.074349442 L211.431226766,650.557620818 L249.163568773,653.159851301 L263.475836431,660.966542751 L256.970260223,670.074349442 L229.646840149,671.375464684 L186.710037175,684.3866171 L180.204460967,670.074349442 Z" fill="#cee3f5" id="CN.shanxi.3224220" stroke="#6e6e6e" stroke-width="0.4"><desc><name>Pinglu County</name><admin_leve>6</admin_leve><wikipedia>en:Pinglu County</wikipedia><localname>平陆县 (Pinglu)</localname><boundary>administrative</boundary><id>CN.shanxi.3224220</id></desc></path><path d="M106.040892193,689.591078067 L113.847583643,680.483271375 L165.892193309,672.676579926 L180.204460967,670.074349442 L186.710037175,684.3866171 L171.096654275,696.096654275 L124.256505576,700.0 L106.040892193,689.591078067 Z" fill="#cee3f5" id="CN.shanxi.3224221" stroke="#6e6e6e" stroke-width="0.4"><desc><name>Ruicheng County</name><admin_leve>6</admin_leve><wikipedia>en:Ruicheng County</wikipedia><localname>芮城县 (Ruicheng)</localname><boundary>administrative</boundary><id>CN.shanxi.3224221</id></desc></path><path d="M128.159851301,616.728624535 L141.171003717,593.308550186 L156.784386617,598.513011152 L172.397769517,590.706319703 L191.914498141,608.921933086 L177.602230483,624.535315985 L167.19330855,618.029739777 L141.171003717,623.234200743 L128.159851301,616.728624535 Z" fill="#cee3f5" id="CN.shanxi.3224222" stroke="#6e6e6e" stroke-width="0.4"><desc><name>Wanrong County</name><admin_leve>6</admin_leve><wikipedia>en:Wanrong County</wikipedia><localname>万荣县 (Wanrong)</localname><boundary>administrative</boundary><id>CN.shanxi.3224222</id></desc></path><path d="M191.914498141,608.921933086 L195.817843866,601.115241636 L224.442379182,590.706319703 L241.356877323,588.104089219 L234.851301115,601.115241636 L263.475836431,611.524163569 L250.464684015,631.040892193 L219.237918216,616.728624535 L199.721189591,620.63197026 L191.914498141,608.921933086 Z" fill="#cee3f5" id="CN.shanxi.3224223" stroke="#6e6e6e" stroke-width="0.4"><desc><name>Wenxi County</name><admin_leve>6</admin_leve><wikipedia>en:Wenxi County</wikipedia><localname>闻喜县 (Wenxi)</localname><boundary>administrative</boundary><id>CN.shanxi.3224223</id></desc></path><path d="M199.721189591,620.63197026 L219.237918216,616.728624535 L250.464684015,631.040892193 L268.680297398,653.159851301 L263.475836431,660.966542751 L249.163568773,653.159851301 L211.431226766,650.557620818 L199.721189591,620.63197026 Z" fill="#cee3f5" id="CN.shanxi.3224224" stroke="#6e6e6e" stroke-width="0.4"><desc><name>Xia County</name><admin_leve>6</admin_leve><wikipedia>en:Xia County</wikipedia><localname>夏县 (Xia)</localname><boundary>administrative</boundary><id>CN.shanxi.3224224</id></desc></path><path d="M198.420074349,568.587360595 L206.226765799,559.479553903 L229.646840149,573.791821561 L224.442379182,590.706319703 L195.817843866,601.115241636 L202.323420074,585.501858736 L198.420074349,568.587360595 Z" fill="#cee3f5" id="CN.shanxi.3224225" stroke="#6e6e6e" stroke-width="0.4"><desc><name>Xinjiang County</name><admin_leve>6</admin_leve><wikipedia>en:Xinjiang County</wikipedia><localname>新绛县 (Xinjiang)</localname><boundary>administrative</boundary><id>CN.shanxi.3224225</id></desc></path><path d="M165.892193309,650.557620818 L181.505576208,645.353159851 L177.602230483,624.535315985 L191.914498141,608.921933086 L199.721189591,620.63197026 L211.431226766,650.557620818 L180.204460967,670.074349442 L165.892193309,672.676579926 L165.892193309,650.557620818 Z" fill="#cee3f5" id="CN.shanxi.3224226" stroke="#6e6e6e" stroke-width="0.4"><desc><name>Yanhu District</name><admin_leve>6</admin_leve><wikipedia>en:Yanhu District</wikipedia><localname>盐湖区 (Yanhu)</localname><boundary>administrative</boundary><id>CN.shanxi.3224226</id></desc></path><path d="M117.750929368,645.353159851 L133.364312268,653.159851301 L165.892193309,650.557620818 L165.892193309,672.676579926 L113.847583643,680.483271375 L106.040892193,689.591078067 L106.040892193,666.171003717 L117.750929368,645.353159851 Z" fill="#cee3f5" id="CN.shanxi.3224227" stroke="#6e6e6e" stroke-width="0.4"><desc><name>Yongji City</name><admin_leve>6</admin_leve><wikipedia>en:Yongji, Shanxi</wikipedia><localname>永济市 (Yongji)</localname><boundary>administrative</boundary><id>CN.shanxi.3224227</id></desc></path><path d="M263.475836431,611.524163569 L289.498141264,607.620817844 L302.50929368,603.717472119 L309.014869888,608.921933086 L311.617100372,620.63197026 L311.617100372,642.750929368 L282.992565056,645.353159851 L268.680297398,653.159851301 L250.464684015,631.040892193 L263.475836431,611.524163569 Z" fill="#cee3f5" id="CN.shanxi.3224228" stroke="#6e6e6e" stroke-width="0.4"><desc><name>Yuanqu County</name><admin_leve>6</admin_leve><wikipedia>en:Yuanqu County</wikipedia><localname>垣曲县 (Yuanqu)</localname><boundary>administrative</boundary><id>CN.shanxi.3224228</id></desc></path><path d="M398.791821561,110.594795539 L411.802973978,96.282527881 L441.728624535,91.0780669145 L461.24535316,94.9814126394 L466.449814126,117.100371747 L463.847583643,119.70260223 L443.029739777,115.799256506 L414.405204461,128.810408922 L398.791821561,110.594795539 Z" fill="#cee3f5" id="CN.shanxi.3226534" stroke="#6e6e6e" stroke-width="0.4"><desc><name>Huairen County</name><admin_leve>6</admin_leve><wikipedia>en:Huairen County</wikipedia><localname>怀仁县 (Huairen)</localname><boundary>administrative</boundary><id>CN.shanxi.3226534</id></desc></path><path d="M297.304832714,128.810408922 L302.50929368,107.992565056 L316.821561338,87.1747211896 L355.855018587,119.70260223 L358.457249071,131.412639405 L383.178438662,145.724907063 L307.713754647,156.133828996 L306.412639405,154.832713755 L297.304832714,128.810408922 Z" fill="#cee3f5" id="CN.shanxi.3226535" stroke="#6e6e6e" stroke-width="0.4"><desc><name>Pinglu District</name><admin_leve>6</admin_leve><wikipedia>en:Pinglu District</wikipedia><localname>平鲁区 (Pinglu)</localname><boundary>administrative</boundary><id>CN.shanxi.3226535</id></desc></path><path d="M355.855018587,119.70260223 L379.275092937,114.498141264 L398.791821561,110.594795539 L414.405204461,128.810408922 L427.416356877,158.73605948 L390.985130112,176.951672862 L383.178438662,145.724907063 L358.457249071,131.412639405 L355.855018587,119.70260223 Z" fill="#cee3f5" id="CN.shanxi.3226536" stroke="#6e6e6e" stroke-width="0.4"><desc><name>Shanyin County</name><admin_leve>6</admin_leve><wikipedia>en:Shanyin County</wikipedia><localname>山阴县 (Shanyin)</localname><boundary>administrative</boundary><id>CN.shanxi.3226536</id></desc></path><path d="M307.713754647,156.133828996 L383.178438662,145.724907063 L390.985130112,176.951672862 L389.68401487,182.156133829 L376.672862454,188.661710037 L336.338289963,182.156133829 L307.713754647,156.133828996 Z" fill="#cee3f5" id="CN.shanxi.3226537" stroke="#6e6e6e" stroke-width="0.4"><desc><name>Shuocheng District</name><admin_leve>6</admin_leve><wikipedia>en:Shuocheng District</wikipedia><localname>朔城区 (Shuocheng)</localname><boundary>administrative</boundary><id>CN.shanxi.3226537</id></desc></path><path d="M414.405204461,128.810408922 L443.029739777,115.799256506 L463.847583643,119.70260223 L484.665427509,148.327137546 L462.546468401,163.940520446 L437.82527881,163.940520446 L427.416356877,158.73605948 L414.405204461,128.810408922 Z" fill="#cee3f5" id="CN.shanxi.3226538" stroke="#6e6e6e" stroke-width="0.4"><desc><name>Ying County</name><admin_leve>6</admin_leve><wikipedia>en:Ying County</wikipedia><localname>应县 (Ying)</localname><boundary>administrative</boundary><id>CN.shanxi.3226538</id></desc></path><path d="M316.821561338,87.1747211896 L340.241635688,57.249070632 L357.156133829,50.7434944238 L376.672862454,58.5501858736 L377.973977695,81.970260223 L372.769516729,102.788104089 L379.275092937,114.498141264 L355.855018587,119.70260223 L316.821561338,87.1747211896 Z" fill="#cee3f5" id="CN.shanxi.3226539" stroke="#6e6e6e" stroke-width="0.4"><desc><name>Youyu County</name><admin_leve>6</admin_leve><wikipedia>en:Youyu County</wikipedia><localname>右玉县 (Youyu)</localname><boundary>administrative</boundary><id>CN.shanxi.3226539</id></desc></path><path d="M461.24535316,94.9814126394 L462.546468401,68.9591078067 L478.159851301,54.6468401487 L489.869888476,68.9591078067 L510.687732342,72.8624535316 L518.494423792,84.5724907063 L511.988847584,100.185873606 L488.568773234,100.185873606 L466.449814126,117.100371747 L461.24535316,94.9814126394 Z" fill="#cee3f5" id="CN.shanxi.3230499" stroke="#6e6e6e" stroke-width="0.4"><desc><name>Datong County</name><admin_leve>6</admin_leve><wikipedia>en:Datong County, Shanxi</wikipedia><localname>大同县 (Datong)</localname><boundary>administrative</boundary><id>CN.shanxi.3230499</id></desc></path><path d="M515.892193309,104.089219331 L536.710037175,91.0780669145 L558.828996283,100.185873606 L575.743494424,100.185873606 L577.044609665,124.907063197 L528.903345725,126.208178439 L515.892193309,104.089219331 Z" fill="#cee3f5" id="CN.shanxi.3230500" stroke="#6e6e6e" stroke-width="0.4"><desc><name>Guangling County</name><admin_leve>6</admin_leve><wikipedia>en:Guangling County</wikipedia><localname>广灵县 (Guangling)</localname><boundary>administrative</boundary><id>CN.shanxi.3230500</id></desc></path><path d="M463.847583643,119.70260223 L466.449814126,117.100371747 L488.568773234,100.185873606 L511.988847584,100.185873606 L515.892193309,104.089219331 L528.903345725,126.208178439 L521.096654275,127.50929368 L521.096654275,156.133828996 L484.665427509,148.327137546 L463.847583643,119.70260223 Z" fill="#cee3f5" id="CN.shanxi.3230501" stroke="#6e6e6e" stroke-width="0.4"><desc><name>Hunyuan County</name><admin_leve>6</admin_leve><wikipedia>en:Hunyuan County</wikipedia><localname>浑源县 (Hunyuan)</localname><boundary>administrative</boundary><id>CN.shanxi.3230501</id></desc></path><path d="M521.096654275,156.133828996 L521.096654275,127.50929368 L528.903345725,126.208178439 L577.044609665,124.907063197 L593.959107807,140.520446097 L579.646840149,163.940520446 L571.840148699,188.661710037 L544.516728625,192.565055762 L527.602230483,187.360594796 L528.903345725,166.542750929 L521.096654275,156.133828996 Z" fill="#cee3f5" id="CN.shanxi.3230502" stroke="#6e6e6e" stroke-width="0.4"><desc><name>Lingqiu County</name><admin_leve>6</admin_leve><wikipedia>en:Lingqiu County</wikipedia><localname>灵丘县 (Lingqiu)</localname><boundary>administrative</boundary><id>CN.shanxi.3230502</id></desc></path><path d="M414.405204461,68.9591078067 L435.223048327,65.0557620818 L462.546468401,68.9591078067 L461.24535316,94.9814126394 L441.728624535,91.0780669145 L411.802973978,96.282527881 L414.405204461,68.9591078067 Z" fill="#cee3f5" id="CN.shanxi.3230503" stroke="#6e6e6e" stroke-width="0.4"><desc><name>Nanjiao District</name><admin_leve>6</admin_leve><wikipedia>en:Nanjiao District</wikipedia><localname>南郊区 (Nanjiao)</localname><boundary>administrative</boundary><id>CN.shanxi.3230503</id></desc></path><path d="M526.301115242,27.3234200743 L540.6133829,23.4200743494 L547.118959108,0.0 L564.033457249,18.2156133829 L567.936802974,42.936802974 L583.550185874,54.6468401487 L539.312267658,65.0557620818 L526.301115242,58.5501858736 L526.301115242,27.3234200743 Z" fill="#cee3f5" id="CN.shanxi.3230504" stroke="#6e6e6e" stroke-width="0.4"><desc><name>Tianzhen County</name><admin_leve>6</admin_leve><wikipedia>en:Tianzhen County</wikipedia><localname>天镇县 (Tianzhen)</localname><boundary>administrative</boundary><id>CN.shanxi.3230504</id></desc></path><path d="M405.29739777,54.6468401487 L406.598513011,46.8401486989 L448.234200743,37.7323420074 L454.739776952,48.1412639405 L474.256505576,46.8401486989 L478.159851301,54.6468401487 L462.546468401,68.9591078067 L435.223048327,65.0557620818 L414.405204461,68.9591078067 L405.29739777,54.6468401487 Z" fill="#cee3f5" id="CN.shanxi.3230505" stroke="#6e6e6e" stroke-width="0.4"><desc><name>Xinrong District</name><admin_leve>6</admin_leve><wikipedia>en:Xinrong District</wikipedia><localname>新荣区 (Xinrong)</localname><boundary>administrative</boundary><id>CN.shanxi.3230505</id></desc></path><path d="M474.256505576,46.8401486989 L505.483271375,29.9256505576 L526.301115242,27.3234200743 L526.301115242,58.5501858736 L539.312267658,65.0557620818 L528.903345725,79.3680297398 L536.710037175,91.0780669145 L515.892193309,104.089219331 L511.988847584,100.185873606 L518.494423792,84.5724907063 L510.687732342,72.8624535316 L489.869888476,68.9591078067 L478.159851301,54.6468401487 L474.256505576,46.8401486989 Z" fill="#cee3f5" id="CN.shanxi.3230506" stroke="#6e6e6e" stroke-width="0.4"><desc><name>Yanggao County</name><admin_leve>6</admin_leve><wikipedia>en:Yanggao County</wikipedia><localname>阳高县 (Yanggao)</localname><boundary>administrative</boundary><id>CN.shanxi.3230506</id></desc></path><path d="M376.672862454,58.5501858736 L389.68401487,66.3568773234 L405.29739777,54.6468401487 L414.405204461,68.9591078067 L411.802973978,96.282527881 L398.791821561,110.594795539 L379.275092937,114.498141264 L372.769516729,102.788104089 L377.973977695,81.970260223 L376.672862454,58.5501858736 Z" fill="#cee3f5" id="CN.shanxi.3230507" stroke="#6e6e6e" stroke-width="0.4"><desc><name>Zuoyun County</name><admin_leve>6</admin_leve><wikipedia>en:Zuoyun County</wikipedia><localname>左云县 (Zuoyun)</localname><boundary>administrative</boundary><id>CN.shanxi.3230507</id></desc></path><path d="M424.814126394,577.695167286 L435.223048327,554.275092937 L441.728624535,550.371747212 L484.665427509,559.479553903 L489.869888476,581.598513011 L475.557620818,592.007434944 L445.63197026,602.416356877 L424.814126394,577.695167286 Z" fill="#cee3f5" id="CN.shanxi.3236755" stroke="#6e6e6e" stroke-width="0.4"><desc><name>Lingchuan County</name><admin_leve>6</admin_leve><wikipedia>en:Lingchuan County, Shanxi</wikipedia><localname>陵川县 (Lingchuan)</localname><boundary>administrative</boundary><id>CN.shanxi.3236755</id></desc></path><path d="M393.587360595,539.962825279 L414.405204461,546.468401487 L435.223048327,554.275092937 L424.814126394,577.695167286 L387.081784387,571.189591078 L393.587360595,539.962825279 Z" fill="#cee3f5" id="CN.shanxi.3237068" stroke="#6e6e6e" stroke-width="0.4"><desc><name>Gaoping City</name><admin_leve>6</admin_leve><wikipedia>en:Gaoping</wikipedia><localname>高平市 (Gaoping)</localname><boundary>administrative</boundary><id>CN.shanxi.3237068</id></desc></path><path d="M309.014869888,558.178438662 L322.026022305,549.07063197 L351.951672862,549.07063197 L364.962825279,534.758364312 L393.587360595,539.962825279 L387.081784387,571.189591078 L375.371747212,592.007434944 L358.457249071,588.104089219 L345.446096654,575.092936803 L327.230483271,578.996282528 L325.92936803,595.910780669 L309.014869888,608.921933086 L302.50929368,603.717472119 L298.605947955,581.598513011 L309.014869888,558.178438662 Z" fill="#cee3f5" id="CN.shanxi.3237069" stroke="#6e6e6e" stroke-width="0.4"><desc><name>Qinshui County</name><admin_leve>6</admin_leve><wikipedia>en:Qinshui County</wikipedia><localname>沁水县 (Qinshui)</localname><boundary>administrative</boundary><id>CN.shanxi.3237069</id></desc></path><path d="M309.014869888,608.921933086 L325.92936803,595.910780669 L327.230483271,578.996282528 L345.446096654,575.092936803 L358.457249071,588.104089219 L375.371747212,592.007434944 L375.371747212,623.234200743 L345.446096654,627.137546468 L311.617100372,620.63197026 L309.014869888,608.921933086 Z" fill="#cee3f5" id="CN.shanxi.3237070" stroke="#6e6e6e" stroke-width="0.4"><desc><name>Yangcheng County</name><admin_leve>6</admin_leve><wikipedia>en:Yangcheng County</wikipedia><localname>阳城县 (Yangcheng)</localname><boundary>administrative</boundary><id>CN.shanxi.3237070</id></desc></path><path d="M375.371747212,592.007434944 L387.081784387,571.189591078 L424.814126394,577.695167286 L445.63197026,602.416356877 L422.211895911,611.524163569 L392.286245353,629.739776952 L375.371747212,623.234200743 L375.371747212,592.007434944 Z" fill="#cee3f5" id="CN.shanxi.3237071" stroke="#6e6e6e" stroke-width="0.4"><desc><name>Zezhou County</name><admin_leve>6</admin_leve><wikipedia>en:Zezhou County</wikipedia><localname>泽州县 (Zezhou)</localname><boundary>administrative</boundary><id>CN.shanxi.3237071</id></desc></path><path d="M197.118959108,344.795539033 L224.442379182,307.063197026 L221.840148699,300.557620818 L233.550185874,292.750929368 L254.36802974,301.858736059 L256.970260223,323.977695167 L238.75464684,333.085501859 L247.862453532,347.397769517 L212.732342007,353.903345725 L197.118959108,344.795539033 Z" fill="#cee3f5" id="CN.shanxi.3263814" stroke="#6e6e6e" stroke-width="0.4"><desc><name>Fangshan County</name><admin_leve>6</admin_leve><wikipedia>en:Fangshan County</wikipedia><localname>方山县 (Fangshan)</localname><boundary>administrative</boundary><id>CN.shanxi.3263814</id></desc></path><path d="M241.356877323,390.334572491 L247.862453532,386.431226766 L258.271375465,373.420074349 L290.799256506,378.624535316 L312.918215613,389.033457249 L299.907063197,404.646840149 L298.605947955,408.550185874 L267.379182156,407.249070632 L241.356877323,390.334572491 Z" fill="#cee3f5" id="CN.shanxi.3263815" stroke="#6e6e6e" stroke-width="0.4"><desc><name>Fenyang City</name><admin_leve>6</admin_leve><wikipedia>en:Fenyang</wikipedia><localname>汾阳市 (Fenyang)</localname><boundary>administrative</boundary><id>CN.shanxi.3263815</id></desc></path><path d="M256.970260223,323.977695167 L272.583643123,326.579925651 L299.907063197,344.795539033 L325.92936803,348.698884758 L337.639405204,366.914498141 L293.401486989,366.914498141 L288.197026022,361.710037175 L255.669144981,357.80669145 L247.862453532,347.397769517 L238.75464684,333.085501859 L256.970260223,323.977695167 Z" fill="#cee3f5" id="CN.shanxi.3263816" stroke="#6e6e6e" stroke-width="0.4"><desc><name>Jiaocheng County</name><admin_leve>6</admin_leve><wikipedia>en:Jiaocheng County</wikipedia><localname>交城县 (Jiaocheng)</localname><boundary>administrative</boundary><id>CN.shanxi.3263816</id></desc></path><path d="M198.420074349,433.271375465 L203.624535316,418.959107807 L220.539033457,420.260223048 L232.249070632,402.044609665 L247.862453532,426.765799257 L238.75464684,447.583643123 L219.237918216,452.788104089 L198.420074349,433.271375465 Z" fill="#cee3f5" id="CN.shanxi.3263817" stroke="#6e6e6e" stroke-width="0.4"><desc><name>Jiaokou County</name><admin_leve>6</admin_leve><wikipedia>en:Jiaokou County</wikipedia><localname>交口县 (Jiaokou)</localname><boundary>administrative</boundary><id>CN.shanxi.3263817</id></desc></path><path d="M142.472118959,287.546468401 L175.0,296.654275093 L211.431226766,287.546468401 L221.840148699,300.557620818 L224.442379182,307.063197026 L197.118959108,344.795539033 L185.408921933,353.903345725 L165.892193309,355.204460967 L134.665427509,308.364312268 L142.472118959,287.546468401 Z" fill="#cee3f5" id="CN.shanxi.3263818" stroke="#6e6e6e" stroke-width="0.4"><desc><name>Lin County</name><admin_leve>6</admin_leve><wikipedia>en:Lin County, Shanxi</wikipedia><localname>临县 (Lin)</localname><boundary>administrative</boundary><id>CN.shanxi.3263818</id></desc></path><path d="M197.118959108,344.795539033 L212.732342007,353.903345725 L247.862453532,347.397769517 L255.669144981,357.80669145 L258.271375465,373.420074349 L247.862453532,386.431226766 L223.141263941,373.420074349 L202.323420074,370.817843866 L185.408921933,353.903345725 L197.118959108,344.795539033 Z" fill="#cee3f5" id="CN.shanxi.3263819" stroke="#6e6e6e" stroke-width="0.4"><desc><name>Lishi District</name><admin_leve>6</admin_leve><wikipedia>en:Lishi District</wikipedia><localname>离石区 (Lishi)</localname><boundary>administrative</boundary><id>CN.shanxi.3263819</id></desc></path><path d="M165.892193309,355.204460967 L185.408921933,353.903345725 L202.323420074,370.817843866 L199.721189591,385.130111524 L173.698884758,407.249070632 L152.881040892,394.237918216 L151.579925651,376.022304833 L163.289962825,373.420074349 L165.892193309,355.204460967 Z" fill="#cee3f5" id="CN.shanxi.3263820" stroke="#6e6e6e" stroke-width="0.4"><desc><name>Liulin County</name><admin_leve>6</admin_leve><wikipedia>en:Liulin County</wikipedia><localname>柳林县 (Liulin)</localname><boundary>administrative</boundary><id>CN.shanxi.3263820</id></desc></path><path d="M152.881040892,394.237918216 L173.698884758,407.249070632 L203.624535316,418.959107807 L198.420074349,433.271375465 L173.698884758,441.078066914 L124.256505576,437.17472119 L130.762081784,420.260223048 L152.881040892,394.237918216 Z" fill="#cee3f5" id="CN.shanxi.3263821" stroke="#6e6e6e" stroke-width="0.4"><desc><name>Shilou County</name><admin_leve>6</admin_leve><wikipedia>en:Shilou County</wikipedia><localname>石楼县 (Shilou)</localname><boundary>administrative</boundary><id>CN.shanxi.3263821</id></desc></path><path d="M255.669144981,357.80669145 L288.197026022,361.710037175 L293.401486989,366.914498141 L337.639405204,366.914498141 L340.241635688,374.721189591 L329.832713755,386.431226766 L312.918215613,389.033457249 L290.799256506,378.624535316 L258.271375465,373.420074349 L255.669144981,357.80669145 Z" fill="#cee3f5" id="CN.shanxi.3263822" stroke="#6e6e6e" stroke-width="0.4"><desc><name>Wenshui County</name><admin_leve>6</admin_leve><wikipedia>en:Wenshui County</wikipedia><localname>文水县 (Wenshui)</localname><boundary>administrative</boundary><id>CN.shanxi.3263822</id></desc></path><path d="M232.249070632,402.044609665 L241.356877323,390.334572491 L267.379182156,407.249070632 L298.605947955,408.550185874 L275.185873606,425.464684015 L247.862453532,426.765799257 L232.249070632,402.044609665 Z" fill="#cee3f5" id="CN.shanxi.3263823" stroke="#6e6e6e" stroke-width="0.4"><desc><name>Xiaoyi City</name><admin_leve>6</admin_leve><wikipedia>en:Xiaoyi</wikipedia><localname>孝义市 (Xiaoyi)</localname><boundary>administrative</boundary><id>CN.shanxi.3263823</id></desc></path><path d="M142.472118959,287.546468401 L167.19330855,260.223048327 L186.710037175,227.695167286 L194.516728625,236.802973978 L215.334572491,228.996282528 L238.75464684,247.211895911 L236.152416357,264.126394052 L245.260223048,274.535315985 L233.550185874,292.750929368 L221.840148699,300.557620818 L211.431226766,287.546468401 L175.0,296.654275093 L142.472118959,287.546468401 Z" fill="#cee3f5" id="CN.shanxi.3263824" stroke="#6e6e6e" stroke-width="0.4"><desc><name>Xing County</name><admin_leve>6</admin_leve><wikipedia>en:Xing County</wikipedia><localname>兴县 (Xing)</localname><boundary>administrative</boundary><id>CN.shanxi.3263824</id></desc></path><path d="M173.698884758,407.249070632 L199.721189591,385.130111524 L202.323420074,370.817843866 L223.141263941,373.420074349 L247.862453532,386.431226766 L241.356877323,390.334572491 L232.249070632,402.044609665 L220.539033457,420.260223048 L203.624535316,418.959107807 L173.698884758,407.249070632 Z" fill="#cee3f5" id="CN.shanxi.3263825" stroke="#6e6e6e" stroke-width="0.4"><desc><name>Zhongyang County</name><admin_leve>6</admin_leve><wikipedia>en:Zhongyang County</wikipedia><localname>中阳县 (Zhongyang)</localname><boundary>administrative</boundary><id>CN.shanxi.3263825</id></desc></path><path d="M457.342007435,314.869888476 L471.654275093,317.472118959 L492.472118959,301.858736059 L498.977695167,321.375464684 L491.171003717,333.085501859 L469.05204461,338.289962825 L457.342007435,314.869888476 Z" fill="#cee3f5" id="CN.shanxi.3285001" stroke="#6e6e6e" stroke-width="0.4"><desc><name>Jiaoqu District</name><admin_leve>6</admin_leve><wikipedia>en:Jiaoqu, Yangquan</wikipedia><localname>郊区 (Jiaoqu)</localname><boundary>administrative</boundary><id>CN.shanxi.3285001</id></desc></path><path d="M469.05204461,338.289962825 L491.171003717,333.085501859 L498.977695167,321.375464684 L492.472118959,301.858736059 L510.687732342,299.256505576 L532.80669145,331.784386617 L532.80669145,344.795539033 L480.762081784,350.0 L470.353159851,343.494423792 L469.05204461,338.289962825 Z" fill="#cee3f5" id="CN.shanxi.3285003" stroke="#6e6e6e" stroke-width="0.4"><desc><name>Pingding County</name><admin_leve>6</admin_leve><wikipedia>en:Pingding County</wikipedia><localname>平定县 (Pingding)</localname><boundary>administrative</boundary><id>CN.shanxi.3285003</id></desc></path><path d="M435.223048327,264.126394052 L452.137546468,258.921933086 L480.762081784,252.416356877 L483.364312268,283.643122677 L510.687732342,299.256505576 L492.472118959,301.858736059 L471.654275093,317.472118959 L457.342007435,314.869888476 L443.029739777,300.557620818 L426.115241636,305.762081784 L410.501858736,296.654275093 L433.921933086,275.836431227 L435.223048327,264.126394052 Z" fill="#cee3f5" id="CN.shanxi.3285004" stroke="#6e6e6e" stroke-width="0.4"><desc><name>Yu County</name><admin_leve>6</admin_leve><wikipedia>en:Yu County, Shanxi</wikipedia><localname>盂县 (Yu)</localname><boundary>administrative</boundary><id>CN.shanxi.3285004</id></desc></path><path d="M325.92936803,487.918215613 L355.855018587,500.92936803 L370.167286245,517.843866171 L364.962825279,534.758364312 L351.951672862,549.07063197 L322.026022305,549.07063197 L311.617100372,533.457249071 L323.327137546,524.349442379 L316.821561338,493.12267658 L325.92936803,487.918215613 Z" fill="#cee3f5" id="CN.shanxi.3285986" stroke="#6e6e6e" stroke-width="0.4"><desc><name>Anze County</name><admin_leve>6</admin_leve><wikipedia>en:Anze County</wikipedia><localname>安泽县 (Anze)</localname><boundary>administrative</boundary><id>CN.shanxi.3285986</id></desc></path><path d="M133.364312268,474.907063197 L147.676579926,480.111524164 L164.591078067,471.003717472 L176.301115242,486.617100372 L194.516728625,507.434944238 L172.397769517,502.230483271 L156.784386617,504.832713755 L132.063197026,498.327137546 L133.364312268,474.907063197 Z" fill="#cee3f5" id="CN.shanxi.3285987" stroke="#6e6e6e" stroke-width="0.4"><desc><name>Daning County</name><admin_leve>6</admin_leve><wikipedia>en:Daning County</wikipedia><localname>大宁县 (Daning)</localname><boundary>administrative</boundary><id>CN.shanxi.3285987</id></desc></path><path d="M124.256505576,437.17472119 L173.698884758,441.078066914 L164.591078067,471.003717472 L147.676579926,480.111524164 L133.364312268,474.907063197 L122.955390335,460.594795539 L124.256505576,437.17472119 Z" fill="#cee3f5" id="CN.shanxi.3285988" stroke="#6e6e6e" stroke-width="0.4"><desc><name>Yonghe County</name><admin_leve>6</admin_leve><wikipedia>de:Yonghe (Linfen)</wikipedia><localname>汾西县 (Fenxi)</localname><boundary>administrative</boundary><id>CN.shanxi.3285988</id></desc></path><path d="M219.237918216,452.788104089 L238.75464684,447.583643123 L251.765799257,448.884758364 L268.680297398,464.498141264 L268.680297398,481.412639405 L246.56133829,484.014869888 L236.152416357,476.208178439 L223.141263941,467.100371747 L219.237918216,452.788104089 Z" fill="#cee3f5" id="CN.shanxi.3285989" stroke="#6e6e6e" stroke-width="0.4"><desc><name>Fenxi County</name><admin_leve>6</admin_leve><wikipedia>en:Fenxi County</wikipedia><localname>汾西县 (Fenxi)</localname><boundary>administrative</boundary><id>CN.shanxi.3285989</id></desc></path><path d="M266.078066914,550.371747212 L284.293680297,528.252788104 L311.617100372,533.457249071 L322.026022305,549.07063197 L309.014869888,558.178438662 L268.680297398,554.275092937 L266.078066914,550.371747212 Z" fill="#cee3f5" id="CN.shanxi.3285990" stroke="#6e6e6e" stroke-width="0.4"><desc><name>Fushan County</name><admin_leve>6</admin_leve><wikipedia>en:Fushan County</wikipedia><localname>浮山县 (Fushan)</localname><boundary>administrative</boundary><id>CN.shanxi.3285990</id></desc></path><path d="M284.293680297,525.650557621 L293.401486989,519.144981413 L290.799256506,489.219330855 L310.31598513,471.003717472 L325.92936803,487.918215613 L316.821561338,493.12267658 L323.327137546,524.349442379 L311.617100372,533.457249071 L284.293680297,528.252788104 L284.293680297,525.650557621 Z" fill="#cee3f5" id="CN.shanxi.3285991" stroke="#6e6e6e" stroke-width="0.4"><desc><name>Gu County</name><admin_leve>6</admin_leve><wikipedia>en:Gu County</wikipedia><localname>古县 (Gu)</localname><boundary>administrative</boundary><id>CN.shanxi.3285991</id></desc></path><path d="M236.152416357,476.208178439 L246.56133829,484.014869888 L268.680297398,481.412639405 L290.799256506,489.219330855 L293.401486989,519.144981413 L284.293680297,525.650557621 L264.776951673,526.951672862 L258.271375465,515.241635688 L230.94795539,500.92936803 L236.152416357,476.208178439 Z" fill="#cee3f5" id="CN.shanxi.3285992" stroke="#6e6e6e" stroke-width="0.4"><desc><name>Hongdong County</name><admin_leve>6</admin_leve><wikipedia>en:Hongdong County</wikipedia><localname>洪洞县 (Hongdong)</localname><boundary>administrative</boundary><id>CN.shanxi.3285992</id></desc></path><path d="M229.646840149,573.791821561 L232.249070632,573.791821561 L243.959107807,588.104089219 L241.356877323,588.104089219 L224.442379182,590.706319703 L229.646840149,573.791821561 Z" fill="#cee3f5" id="CN.shanxi.3285993" stroke="#6e6e6e" stroke-width="0.4"><desc><name>Houma City</name><admin_leve>6</admin_leve><wikipedia>en:Houma, Shanxi</wikipedia><localname>侯马市 (Houma)</localname><boundary>administrative</boundary><id>CN.shanxi.3285993</id></desc></path><path d="M268.680297398,464.498141264 L277.788104089,457.992565056 L305.111524164,460.594795539 L310.31598513,471.003717472 L290.799256506,489.219330855 L268.680297398,481.412639405 L268.680297398,464.498141264 Z" fill="#cee3f5" id="CN.shanxi.3285994" stroke="#6e6e6e" stroke-width="0.4"><desc><name>Huozhou City</name><admin_leve>6</admin_leve><wikipedia>en:Huozhou</wikipedia><localname>霍州市 (Huozhou)</localname><boundary>administrative</boundary><id>CN.shanxi.3285994</id></desc></path><path d="M132.063197026,498.327137546 L156.784386617,504.832713755 L172.397769517,502.230483271 L194.516728625,507.434944238 L206.226765799,515.241635688 L201.022304833,521.747211896 L173.698884758,528.252788104 L161.988847584,542.565055762 L135.966542751,551.672862454 L129.460966543,523.048327138 L132.063197026,498.327137546 Z" fill="#cee3f5" id="CN.shanxi.3285995" stroke="#6e6e6e" stroke-width="0.4"><desc><name>Ji County</name><admin_leve>6</admin_leve><wikipedia>en:Ji County, Shanxi</wikipedia><localname>吉县 (Ji)</localname><boundary>administrative</boundary><id>CN.shanxi.3285995</id></desc></path><path d="M176.301115242,486.617100372 L191.914498141,474.907063197 L214.033457249,474.907063197 L223.141263941,467.100371747 L236.152416357,476.208178439 L230.94795539,500.92936803 L225.743494424,512.639405204 L206.226765799,515.241635688 L194.516728625,507.434944238 L176.301115242,486.617100372 Z" fill="#cee3f5" id="CN.shanxi.3285996" stroke="#6e6e6e" stroke-width="0.4"><desc><name>Pu County</name><admin_leve>6</admin_leve><wikipedia>en:Pu County</wikipedia><localname>蒲县 (Pu)</localname><boundary>administrative</boundary><id>CN.shanxi.3285996</id></desc></path><path d="M232.249070632,573.791821561 L258.271375465,554.275092937 L260.873605948,578.996282528 L243.959107807,588.104089219 L232.249070632,573.791821561 Z" fill="#cee3f5" id="CN.shanxi.3285997" stroke="#6e6e6e" stroke-width="0.4"><desc><name>Quwo County</name><admin_leve>6</admin_leve><wikipedia>en:Quwo County</wikipedia><localname>曲沃县 (Quwo)</localname><boundary>administrative</boundary><id>CN.shanxi.3285997</id></desc></path><path d="M173.698884758,441.078066914 L198.420074349,433.271375465 L219.237918216,452.788104089 L223.141263941,467.100371747 L214.033457249,474.907063197 L191.914498141,474.907063197 L176.301115242,486.617100372 L164.591078067,471.003717472 L173.698884758,441.078066914 Z" fill="#cee3f5" id="CN.shanxi.3285998" stroke="#6e6e6e" stroke-width="0.4"><desc><name>Xi County</name><admin_leve>6</admin_leve><wikipedia>en:Xi County, Shanxi</wikipedia><localname>隰县 (Xı)</localname><boundary>administrative</boundary><id>CN.shanxi.3285998</id></desc></path><path d="M206.226765799,559.479553903 L223.141263941,545.167286245 L224.442379182,532.156133829 L266.078066914,550.371747212 L268.680297398,554.275092937 L258.271375465,554.275092937 L232.249070632,573.791821561 L229.646840149,573.791821561 L206.226765799,559.479553903 Z" fill="#cee3f5" id="CN.shanxi.3285999" stroke="#6e6e6e" stroke-width="0.4"><desc><name>Xiangfen County</name><admin_leve>6</admin_leve><wikipedia>en:Xiangfen County</wikipedia><localname>襄汾县 (Xiangfen)</localname><boundary>administrative</boundary><id>CN.shanxi.3285999</id></desc></path><path d="M135.966542751,551.672862454 L161.988847584,542.565055762 L173.698884758,528.252788104 L201.022304833,521.747211896 L224.442379182,532.156133829 L223.141263941,545.167286245 L206.226765799,559.479553903 L198.420074349,568.587360595 L172.397769517,572.49070632 L143.773234201,567.286245353 L135.966542751,551.672862454 Z" fill="#cee3f5" id="CN.shanxi.3286000" stroke="#6e6e6e" stroke-width="0.4"><desc><name>Xiangning County</name><admin_leve>6</admin_leve><wikipedia>en:Xiangning County</wikipedia><localname>乡宁县 (Xiangning)</localname><boundary>administrative</boundary><id>CN.shanxi.3286000</id></desc></path><path d="M201.022304833,521.747211896 L206.226765799,515.241635688 L225.743494424,512.639405204 L230.94795539,500.92936803 L258.271375465,515.241635688 L264.776951673,526.951672862 L284.293680297,525.650557621 L284.293680297,528.252788104 L266.078066914,550.371747212 L224.442379182,532.156133829 L201.022304833,521.747211896 Z" fill="#cee3f5" id="CN.shanxi.3286001" stroke="#6e6e6e" stroke-width="0.4"><desc><name>Yaodu District</name><admin_leve>6</admin_leve><wikipedia>en:Yaodu District</wikipedia><localname>尧都区 (Yaodu)</localname><boundary>administrative</boundary><id>CN.shanxi.3286001</id></desc></path><path d="M258.271375465,554.275092937 L268.680297398,554.275092937 L309.014869888,558.178438662 L298.605947955,581.598513011 L302.50929368,603.717472119 L289.498141264,607.620817844 L290.799256506,582.899628253 L260.873605948,578.996282528 L258.271375465,554.275092937 Z" fill="#cee3f5" id="CN.shanxi.3286002" stroke="#6e6e6e" stroke-width="0.4"><desc><name>Yicheng County</name><admin_leve>6</admin_leve><wikipedia>en:Yicheng County</wikipedia><localname>翼城县 (Yicheng)</localname><boundary>administrative</boundary><id>CN.shanxi.3286002</id></desc></path><path d="M275.185873606,425.464684015 L298.605947955,408.550185874 L299.907063197,404.646840149 L320.724907063,409.851301115 L324.628252788,424.163568773 L306.412639405,443.680297398 L275.185873606,425.464684015 Z" fill="#cee3f5" id="CN.shanxi.3298438" stroke="#6e6e6e" stroke-width="0.4"><desc><name>Jiexiu City</name><admin_leve>6</admin_leve><wikipedia>en:Jiexiu</wikipedia><localname>介休市 (Jiexiu)</localname><boundary>administrative</boundary><id>CN.shanxi.3298438</id></desc></path><path d="M247.862453532,426.765799257 L275.185873606,425.464684015 L306.412639405,443.680297398 L305.111524164,460.594795539 L277.788104089,457.992565056 L268.680297398,464.498141264 L251.765799257,448.884758364 L238.75464684,447.583643123 L247.862453532,426.765799257 Z" fill="#cee3f5" id="CN.shanxi.3298439" stroke="#6e6e6e" stroke-width="0.4"><desc><name>Lingshi County</name><admin_leve>6</admin_leve><wikipedia>en:Lingshi County</wikipedia><localname>灵石县 (Lingshi)</localname><boundary>administrative</boundary><id>CN.shanxi.3298439</id></desc></path><path d="M312.918215613,389.033457249 L329.832713755,386.431226766 L342.843866171,390.334572491 L355.855018587,412.453531599 L367.565055762,428.066914498 L358.457249071,430.669144981 L324.628252788,424.163568773 L320.724907063,409.851301115 L299.907063197,404.646840149 L312.918215613,389.033457249 Z" fill="#cee3f5" id="CN.shanxi.3298440" stroke="#6e6e6e" stroke-width="0.4"><desc><name>Pingyao County</name><admin_leve>6</admin_leve><wikipedia>en:Pingyao County</wikipedia><localname>平遥县 (Pingyao)</localname><boundary>administrative</boundary><id>CN.shanxi.3298440</id></desc></path><path d="M329.832713755,386.431226766 L340.241635688,374.721189591 L362.360594796,370.817843866 L358.457249071,383.828996283 L380.576208178,402.044609665 L377.973977695,411.152416357 L355.855018587,412.453531599 L342.843866171,390.334572491 L329.832713755,386.431226766 Z" fill="#cee3f5" id="CN.shanxi.3441290" stroke="#6e6e6e" stroke-width="0.4"><desc><name>Qi County</name><admin_leve>6</admin_leve><wikipedia>en:Qi County, Shanxi</wikipedia><localname>祁县 (Qi)</localname><boundary>administrative</boundary><id>CN.shanxi.3441290</id></desc></path><path d="M392.286245353,321.375464684 L392.286245353,318.773234201 L398.791821561,312.267657993 L426.115241636,305.762081784 L443.029739777,300.557620818 L457.342007435,314.869888476 L469.05204461,338.289962825 L470.353159851,343.494423792 L458.643122677,359.107806691 L433.921933086,364.312267658 L413.104089219,351.301115242 L406.598513011,326.579925651 L393.587360595,325.278810409 L392.286245353,321.375464684 Z" fill="#cee3f5" id="CN.shanxi.3441291" stroke="#6e6e6e" stroke-width="0.4"><desc><name>Shouyang County</name><admin_leve>6</admin_leve><wikipedia>en:Shouyang County</wikipedia><localname>寿阳县 (Shouyang)</localname><boundary>administrative</boundary><id>CN.shanxi.3441291</id></desc></path><path d="M362.360594796,370.817843866 L372.769516729,368.215613383 L387.081784387,361.710037175 L423.513011152,379.925650558 L380.576208178,402.044609665 L358.457249071,383.828996283 L362.360594796,370.817843866 Z" fill="#cee3f5" id="CN.shanxi.3441292" stroke="#6e6e6e" stroke-width="0.4"><desc><name>Taigu County</name><admin_leve>6</admin_leve><wikipedia>en:Taigu County</wikipedia><localname>太谷县 (Taigu)</localname><boundary>administrative</boundary><id>CN.shanxi.3441292</id></desc></path><path d="M470.353159851,343.494423792 L480.762081784,350.0 L532.80669145,344.795539033 L547.118959108,356.505576208 L525.0,386.431226766 L506.784386617,385.130111524 L497.676579926,373.420074349 L461.24535316,374.721189591 L458.643122677,359.107806691 L470.353159851,343.494423792 Z" fill="#cee3f5" id="CN.shanxi.3441293" stroke="#6e6e6e" stroke-width="0.4"><desc><name>Xiyang County</name><admin_leve>6</admin_leve><wikipedia>en:Xiyang County</wikipedia><localname>昔阳县 (Xiyang)</localname><boundary>administrative</boundary><id>CN.shanxi.3441293</id></desc></path><path d="M383.178438662,330.483271375 L393.587360595,325.278810409 L406.598513011,326.579925651 L413.104089219,351.301115242 L433.921933086,364.312267658 L426.115241636,379.925650558 L423.513011152,379.925650558 L387.081784387,361.710037175 L372.769516729,368.215613383 L371.468401487,356.505576208 L383.178438662,330.483271375 Z" fill="#cee3f5" id="CN.shanxi.3441294" stroke="#6e6e6e" stroke-width="0.4"><desc><name>Yuci District</name><admin_leve>6</admin_leve><wikipedia>en:Yuci District</wikipedia><localname>榆次区 (Yuci)</localname><boundary>administrative</boundary><id>CN.shanxi.3441294</id></desc></path><path d="M377.973977695,411.152416357 L380.576208178,402.044609665 L423.513011152,379.925650558 L426.115241636,379.925650558 L433.921933086,402.044609665 L443.029739777,431.970260223 L419.609665428,433.271375465 L377.973977695,411.152416357 Z" fill="#cee3f5" id="CN.shanxi.3441295" stroke="#6e6e6e" stroke-width="0.4"><desc><name>Yushe County</name><admin_leve>6</admin_leve><wikipedia>en:Yushe County</wikipedia><localname>榆社县 (Yushe)</localname><boundary>administrative</boundary><id>CN.shanxi.3441295</id></desc></path><path d="M272.583643123,326.579925651 L298.605947955,323.977695167 L311.617100372,317.472118959 L310.31598513,291.449814126 L329.832713755,296.654275093 L342.843866171,313.568773234 L342.843866171,336.988847584 L325.92936803,348.698884758 L299.907063197,344.795539033 L272.583643123,326.579925651 Z" fill="#cee3f5" id="CN.shanxi.3441528" stroke="#6e6e6e" stroke-width="0.4"><desc><name>Gujiao City</name><admin_leve>6</admin_leve><wikipedia>en:Gujiao</wikipedia><localname>古交市 (Gujiao)</localname><boundary>administrative</boundary><id>CN.shanxi.3441528</id></desc></path><path d="M346.747211896,314.869888476 L358.457249071,303.159851301 L377.973977695,314.869888476 L366.26394052,325.278810409 L346.747211896,314.869888476 Z" fill="#cee3f5" id="CN.shanxi.3441529" stroke="#6e6e6e" stroke-width="0.4"><desc><name>Jiancaoping District</name><admin_leve>6</admin_leve><wikipedia>en:Jiancaoping District</wikipedia><localname>尖草坪区 (Jiancaoping)</localname><boundary>administrative</boundary><id>CN.shanxi.3441529</id></desc></path><path d="M342.843866171,336.988847584 L366.26394052,333.085501859 L367.565055762,343.494423792 L350.650557621,355.204460967 L342.843866171,336.988847584 Z" fill="#cee3f5" id="CN.shanxi.3441530" stroke="#6e6e6e" stroke-width="0.4"><desc><name>Jinyuan District</name><admin_leve>6</admin_leve><wikipedia>en:Jinyuan District</wikipedia><localname>晋源区 (Jinyuan)</localname><boundary>administrative</boundary><id>CN.shanxi.3441530</id></desc></path><path d="M325.92936803,348.698884758 L342.843866171,336.988847584 L350.650557621,355.204460967 L371.468401487,356.505576208 L372.769516729,368.215613383 L362.360594796,370.817843866 L340.241635688,374.721189591 L337.639405204,366.914498141 L325.92936803,348.698884758 Z" fill="#cee3f5" id="CN.shanxi.3441531" stroke="#6e6e6e" stroke-width="0.4"><desc><name>Qingxu County</name><admin_leve>6</admin_leve><wikipedia>en:Qingxu County</wikipedia><localname>清徐县 (Qingxu)</localname><boundary>administrative</boundary><id>CN.shanxi.3441531</id></desc></path><path d="M342.843866171,313.568773234 L346.747211896,314.869888476 L366.26394052,325.278810409 L366.26394052,326.579925651 L366.26394052,330.483271375 L366.26394052,333.085501859 L342.843866171,336.988847584 L342.843866171,313.568773234 Z" fill="#cee3f5" id="CN.shanxi.3441532" stroke="#6e6e6e" stroke-width="0.4"><desc><name>Wanbailin District</name><admin_leve>6</admin_leve><wikipedia>en:Wanbailin District</wikipedia><localname>万柏林区 (Wanbailin)</localname><boundary>administrative</boundary><id>CN.shanxi.3441532</id></desc></path><path d="M350.650557621,355.204460967 L367.565055762,343.494423792 L366.26394052,333.085501859 L366.26394052,330.483271375 L383.178438662,330.483271375 L371.468401487,356.505576208 L350.650557621,355.204460967 Z" fill="#cee3f5" id="CN.shanxi.3441533" stroke="#6e6e6e" stroke-width="0.4"><desc><name>Xiaodian District</name><admin_leve>6</admin_leve><wikipedia>en:Xiaodian District</wikipedia><localname>小店区 (Xiaodian)</localname><boundary>administrative</boundary><id>CN.shanxi.3441533</id></desc></path><path d="M366.26394052,326.579925651 L366.26394052,325.278810409 L377.973977695,314.869888476 L392.286245353,318.773234201 L392.286245353,321.375464684 L366.26394052,326.579925651 Z" fill="#cee3f5" id="CN.shanxi.3441534" stroke="#6e6e6e" stroke-width="0.4"><desc><name>Xinghualing District</name><admin_leve>6</admin_leve><wikipedia>en:Xinghualing District</wikipedia><localname>杏花岭区 (Xinghualing)</localname><boundary>administrative</boundary><id>CN.shanxi.3441534</id></desc></path><path d="M329.832713755,296.654275093 L336.338289963,277.137546468 L368.866171004,284.944237918 L387.081784387,284.944237918 L414.405204461,271.933085502 L435.223048327,264.126394052 L433.921933086,275.836431227 L410.501858736,296.654275093 L426.115241636,305.762081784 L398.791821561,312.267657993 L392.286245353,318.773234201 L377.973977695,314.869888476 L358.457249071,303.159851301 L346.747211896,314.869888476 L342.843866171,313.568773234 L329.832713755,296.654275093 Z" fill="#cee3f5" id="CN.shanxi.3441535" stroke="#6e6e6e" stroke-width="0.4"><desc><name>Yangqu County</name><admin_leve>6</admin_leve><wikipedia>en:Yangqu County</wikipedia><localname>阳曲县 (Yangqu)</localname><boundary>administrative</boundary><id>CN.shanxi.3441535</id></desc></path><path d="M366.26394052,326.579925651 L392.286245353,321.375464684 L393.587360595,325.278810409 L383.178438662,330.483271375 L366.26394052,330.483271375 L366.26394052,326.579925651 Z" fill="#cee3f5" id="CN.shanxi.3441536" stroke="#6e6e6e" stroke-width="0.4"><desc><name>Yingze District</name><admin_leve>6</admin_leve><wikipedia>en:Yingze District</wikipedia><localname>迎泽区 (Yingze)</localname><boundary>administrative</boundary><id>CN.shanxi.3441536</id></desc></path></svg>