<?xml version='1.0' encoding='utf-8'?>
<svg height="700" width="700" xmlns="http://www.w3.org/2000/svg"><path d="M389.291759341,420.029548006 L390.876261752,447.082584235 L394.80302898,460.049493605 L394.491731997,465.860431195 L389.666911622,470.326237393 L383.56456048,472.778169011 L376.147449678,471.275972205 L361.906362376,471.899458415 L357.79993898,465.440959571 L354.378579402,464.603114612 L348.719782854,458.408103812 L350.920261634,470.302758474 L335.769290335,489.98356593 L329.202262233,489.250519979 L324.002837851,492.827984941 L313.901878786,492.833299996 L309.848780186,496.049263584 L312.71630832,496.217326242 L320.648990673,507.406794186 L318.500291192,513.387976548 L314.631077432,517.483956025 L309.414082464,514.407188022 L301.390083852,502.503565971 L296.265267479,502.051232251 L297.656984442,495.745967287 L293.648370439,487.04796042 L308.617233215,480.565691071 L311.04261182,476.006292039 L306.365913908,470.832047499 L306.757498414,465.012233226 L298.531797106,458.821462005 L298.829925286,455.362953539 L291.105467097,448.611426166 L288.909424573,443.113744889 L295.824632143,442.58175242 L297.327384222,434.966189012 L305.737655016,437.170780339 L305.721387305,433.309239175 L312.839603201,431.386886209 L310.327956245,426.676779505 L314.580189298,425.150934958 L318.256488123,430.190137548 L329.623196085,437.296656598 L336.204579281,437.687115115 L340.013571874,433.474370708 L339.423007036,426.899546383 L342.991033589,422.603274747 L352.288445707,429.095122501 L357.427301936,428.330935479 L363.083066559,423.677054616 L373.39678839,422.299715594 L375.560207511,424.979919206 L379.994641749,419.950129559 L389.291759341,420.029548006 Z" fill="#cee3f5" id="LK.KY" stroke="#6e6e6e" stroke-width="0.4"><desc><labelrank>7</labelrank><code_hasc>LK.KY</code_hasc><name>Mahanuvara</name><admin>Sri Lanka</admin><type_en>District</type_en><region>Madhyama paḷāta</region><woe_id>23706513</woe_id><longitude>80</longitude><woe_name>Kandy</woe_name><fips>CE10</fips><woe_label /><latitude>7</latitude><iso_a2>LK</iso_a2><postal>KY</postal><type>Distrikkaya</type><id>LK.KY</id></desc></path><path d="M390.287243168,377.982550092 L391.844531651,388.464478911 L390.130538981,396.947833306 L388.416115379,405.370928629 L389.291759341,420.029548006 L379.994641749,419.950129559 L375.560207511,424.979919206 L373.39678839,422.299715594 L363.083066559,423.677054616 L357.427301936,428.330935479 L352.288445707,429.095122501 L342.991033589,422.603274747 L339.423007036,426.899546383 L340.013571874,433.474370708 L336.204579281,437.687115115 L329.623196085,437.296656598 L318.256488123,430.190137548 L314.580189298,425.150934958 L316.042877874,419.780653529 L311.759586368,410.263658257 L312.205034787,406.481048574 L315.385393044,402.644190923 L315.942449278,396.796559502 L312.673480508,393.609433239 L308.342316542,374.174230822 L305.29787087,368.421722409 L302.361799803,367.155825124 L302.735130015,361.090473115 L312.544864212,356.086291718 L315.704693715,352.281829717 L320.727079615,353.807398349 L323.387061225,351.970251869 L330.610600825,341.216653252 L331.572399527,335.021693546 L334.710965844,335.355846507 L341.543012049,328.967384767 L348.669102394,325.749998798 L352.711970196,330.051510901 L353.635160978,334.255720488 L358.509005334,331.912529055 L366.023498509,334.643253165 L360.67007282,340.232773383 L355.759972993,362.634066289 L350.570057481,363.787097375 L349.369392524,368.708943285 L351.456603871,383.094870236 L353.230202376,385.59975894 L357.941410433,386.627397333 L365.995646817,381.528495529 L370.26408885,385.361333229 L371.444826153,379.013087066 L381.032797484,379.662825974 L390.287243168,377.982550092 Z" fill="#cee3f5" id="LK.MT" stroke="#6e6e6e" stroke-width="0.4"><desc><labelrank>9</labelrank><code_hasc>LK.MT</code_hasc><name>Mātale</name><admin>Sri Lanka</admin><type_en>District</type_en><region>Madhyama paḷāta</region><woe_id>23706512</woe_id><longitude>80</longitude><woe_name>Matale</woe_name><fips>CE14</fips><woe_label /><latitude>7</latitude><iso_a2>LK</iso_a2><postal>MT</postal><type>Distrikkaya</type><id>LK.MT</id></desc></path><path d="M383.56456048,472.778169011 L386.214777995,485.495875181 L384.125717204,488.654422908 L385.366954606,493.075622753 L379.709610906,503.861086017 L375.733307163,509.742456723 L365.723369775,512.744989315 L359.617829504,521.635395436 L353.029636103,521.603362514 L353.233263483,524.460062455 L358.952107437,527.32108413 L362.76562742,534.876799242 L360.137774467,539.136683293 L363.432804807,541.016059179 L358.213154815,544.438172478 L348.068884472,549.711899883 L328.315950923,551.24604582 L304.825444475,547.472458162 L301.143191863,544.673873552 L303.162662707,541.559016993 L302.072967837,537.298777768 L304.128535733,535.50348012 L302.466744745,528.400079319 L293.123503898,523.653041502 L291.572572107,518.466286721 L292.835568601,511.813750272 L290.690890346,509.279578425 L295.523003825,505.319576887 L296.265267479,502.051232251 L301.390083852,502.503565971 L309.414082464,514.407188022 L314.631077432,517.483956025 L318.500291192,513.387976548 L320.648990673,507.406794186 L312.71630832,496.217326242 L309.848780186,496.049263584 L313.901878786,492.833299996 L324.002837851,492.827984941 L329.202262233,489.250519979 L335.769290335,489.98356593 L350.920261634,470.302758474 L348.719782854,458.408103812 L354.378579402,464.603114612 L357.79993898,465.440959571 L361.906362376,471.899458415 L376.147449678,471.275972205 L383.56456048,472.778169011 Z" fill="#cee3f5" id="LK.NW" stroke="#6e6e6e" stroke-width="0.4"><desc><labelrank>9</labelrank><code_hasc>LK.NW</code_hasc><name>Nuvara Ĕliya</name><admin>Sri Lanka</admin><type_en>District</type_en><region>Madhyama paḷāta</region><woe_id>23706511</woe_id><longitude>80</longitude><woe_name>Nuwara Eliya</woe_name><fips>CE17</fips><woe_label /><latitude>6</latitude><iso_a2>LK</iso_a2><postal>NW</postal><type>Distrikkaya</type><id>LK.NW</id></desc></path><path d="M519.974513843,594.748271816 L514.024074063,592.874252234 L511.035813231,589.494694163 L506.682213277,589.053142191 L501.318283522,582.500916307 L505.869050506,516.740239305 L501.55135047,503.231550922 L502.723131737,496.325338329 L486.226305298,489.440388247 L481.78980585,480.024593984 L483.87117285,474.460129635 L490.500350819,467.767382136 L483.579356301,454.23020146 L479.61650225,450.81470093 L477.348156132,431.240811273 L475.035875746,430.355404653 L477.672996503,426.267193491 L474.159183814,425.323489242 L465.550666176,429.350941516 L463.670129291,432.946796455 L459.363655478,433.730663197 L460.592812549,440.290189972 L457.714537934,444.808642826 L454.09307732,446.813656129 L449.655164347,446.620105971 L450.633332692,460.185637972 L443.684036564,463.870253885 L440.69947834,457.493119322 L436.472512816,447.380621645 L432.718971599,447.342836028 L428.052940148,440.517866257 L425.619453949,428.19454225 L428.990338336,416.023050486 L428.297665406,407.064206241 L420.349495504,405.353828768 L407.770640938,413.763113758 L400.564174507,416.147871689 L396.161169732,408.839485832 L393.328357099,399.071414817 L390.130538981,396.947833306 L391.844531651,388.464478911 L390.287243168,377.982550092 L403.587198921,376.752237032 L410.091650015,379.238570881 L415.379566782,384.517428232 L431.73583576,389.988920194 L435.109356309,382.924117041 L435.358912866,374.658740292 L450.712916612,376.8535683 L460.799082754,389.39280875 L471.926388582,392.010907985 L470.284214524,405.580658292 L480.611523818,414.542713266 L492.35214946,416.536762508 L504.253486143,415.227167618 L508.444714819,412.889662122 L510.49785615,431.922172781 L511.816349226,434.809051366 L518.052696259,428.64202321 L521.688495725,425.721553134 L526.585802933,424.909722218 L529.997274065,424.338050204 L531.623265071,425.35669137 L533.060170101,423.515652484 L535.528693914,433.406085664 L536.780723739,433.40317516 L539.023732476,421.539949453 L541.61950726,423.495476635 L545.354944458,433.054537277 L549.862336101,448.29273814 L549.119716922,490.439539207 L551.71483696,503.34151902 L550.711709665,510.468908731 L542.527340904,538.936237373 L541.295691793,548.988077801 L532.061105448,567.238715042 L533.294931155,571.604333241 L519.974513843,594.748271816 Z" fill="#cee3f5" id="LK.AP" stroke="#6e6e6e" stroke-width="0.4"><desc><labelrank>9</labelrank><code_hasc>LK.AP</code_hasc><name>Ampāra</name><admin>Sri Lanka</admin><type_en>District</type_en><region>Næ̆gĕnahira paḷāta</region><woe_id>23706509</woe_id><longitude>81</longitude><woe_name>Ampara</woe_name><fips>CE01</fips><woe_label /><latitude>7</latitude><iso_a2>LK</iso_a2><postal>AP</postal><type>Distrikkaya</type><id>LK.AP</id></desc></path><path d="M539.395838761,418.877212851 L536.751809597,421.064010206 L533.090912071,417.914822191 L533.050593464,400.594808974 L524.336010657,388.603828951 L521.876314967,381.717832202 L521.859883343,374.366930372 L536.439100537,399.66791187 L539.395838761,418.877212851 M467.139446837,284.244176076 L472.302701913,304.916452961 L469.069232582,309.399193876 L464.262913579,293.495294524 L462.955210689,293.497337576 L462.970540238,303.400083419 L470.0022458,311.16238981 L473.010309238,310.909484844 L475.140200636,307.055581827 L478.062606138,316.129413283 L485.060937159,327.952354784 L487.600223078,325.388089628 L488.728693998,330.279146903 L492.387762819,327.938678004 L492.401786638,335.274771952 L498.624489993,342.606106836 L496.169333677,343.726663242 L495.12995208,347.637386744 L497.235827541,353.744312653 L500.938078006,357.966611056 L505.968724602,357.270942564 L509.066108271,364.031930907 L519.288530298,375.947845492 L519.732598178,379.410837437 L515.763581709,380.615459996 L504.250843714,370.772737184 L499.949363746,372.888775883 L498.691528551,376.865553568 L502.898146373,378.118888551 L506.00624673,375.625935979 L510.053960846,377.367799448 L510.904522776,380.625758264 L519.480268716,390.393983479 L518.320799835,392.489463397 L519.491206919,395.411227974 L519.919436683,391.61087883 L526.184712145,395.396371775 L530.485346693,405.158686088 L529.274069183,410.06211347 L530.503489832,413.063871073 L527.76012962,416.380941314 L531.747292793,422.300795084 L529.997274065,424.338050204 L521.688495725,425.721553134 L518.052696259,428.64202321 L511.816349226,434.809051366 L510.49785615,431.922172781 L508.444714819,412.889662122 L504.253486143,415.227167618 L492.35214946,416.536762508 L480.611523818,414.542713266 L470.284214524,405.580658292 L471.926388582,392.010907985 L460.799082754,389.39280875 L450.712916612,376.8535683 L435.358912866,374.658740292 L432.813212473,360.798346339 L434.367853803,347.002877701 L435.709989053,341.796855772 L439.713673132,339.101958235 L444.827392787,338.387241842 L451.309482698,339.230786225 L452.952651896,339.10353283 L451.466462781,332.428475415 L448.466961595,325.959149339 L447.147603866,319.362523681 L448.549520023,291.101015886 L447.595879107,281.758006216 L450.564840724,280.702813931 L466.584348463,282.370970748 L467.139446837,284.244176076 Z" fill="#cee3f5" id="LK.BC" stroke="#6e6e6e" stroke-width="0.4"><desc><labelrank>9</labelrank><code_hasc>LK.BC</code_hasc><name>Maḍakalapuva</name><admin>Sri Lanka</admin><type_en>District</type_en><region>Næ̆gĕnahira paḷāta</region><woe_id>23706508</woe_id><longitude>81</longitude><woe_name>Batticaloa</woe_name><fips>CE04</fips><woe_label /><latitude>7</latitude><iso_a2>LK</iso_a2><postal>BC</postal><type>Distrikkaya</type><id>LK.BC</id></desc></path><path d="M447.595879107,281.758006216 L448.549520023,291.101015886 L447.147603866,319.362523681 L448.466961595,325.959149339 L451.466462781,332.428475415 L452.952651896,339.10353283 L451.309482698,339.230786225 L444.827392787,338.387241842 L439.713673132,339.101958235 L435.709989054,341.796855772 L434.367853803,347.002877701 L432.813212473,360.798346339 L435.358912866,374.658740292 L435.109356309,382.924117041 L431.73583576,389.988920194 L415.379566782,384.517428232 L410.091650015,379.238570881 L403.587198921,376.752237032 L390.287243168,377.982550092 L381.032797484,379.662825974 L371.444826153,379.013087066 L370.26408885,385.361333229 L365.995646817,381.528495529 L357.941410433,386.627397333 L353.230202376,385.59975894 L351.456603871,383.094870236 L349.369392524,368.708943285 L350.570057481,363.787097375 L355.759972993,362.634066289 L360.67007282,340.232773383 L366.023498509,334.643253165 L358.509005334,331.912529055 L353.635160978,334.255720488 L352.711970196,330.051510901 L348.669102394,325.749998798 L348.909249852,321.01792119 L352.397948069,316.160850927 L348.835689326,313.322477707 L350.34937342,300.093914953 L357.009529724,278.928770396 L371.989172768,277.624909418 L378.663486268,267.584170998 L381.337739212,266.805195901 L389.051209057,273.126520634 L392.024572037,279.088727919 L399.551059959,278.347810977 L416.26832401,281.631348558 L427.528146253,286.945167692 L429.642214175,296.726914527 L426.619540284,300.258483968 L428.188996415,301.04862631 L432.672304189,300.029662874 L437.215849586,287.739893059 L442.596006388,281.778472667 L447.595879107,281.758006216 Z" fill="#cee3f5" id="LK.PR" stroke="#6e6e6e" stroke-width="0.4"><desc><labelrank>9</labelrank><code_hasc>LK.PR</code_hasc><name>Pŏḷŏnnaruva</name><admin>Sri Lanka</admin><type_en>District</type_en><region>Uturumæ̆da paḷāta</region><woe_id>23706504</woe_id><longitude>81</longitude><woe_name>Polonnaruwa</woe_name><fips>CE18</fips><woe_label /><latitude>7</latitude><iso_a2>LK</iso_a2><postal>PR</postal><type>Distrikkaya</type><id>LK.PR</id></desc></path><path d="M447.595879107,281.758006216 L442.596006388,281.778472667 L437.215849586,287.739893059 L432.672304189,300.029662874 L428.188996415,301.04862631 L426.619540284,300.258483968 L429.642214175,296.726914527 L427.528146253,286.945167692 L416.26832401,281.631348558 L399.551059959,278.347810977 L392.024572037,279.088727919 L389.051209057,273.126520634 L381.337739212,266.805195901 L378.663486268,267.584170998 L383.672276232,249.398767443 L389.883214652,242.954797579 L373.629770487,215.818771709 L376.243372387,205.723642151 L371.577605115,194.783580085 L371.46475084,187.08325547 L376.564706515,177.992022915 L370.686530295,171.784586246 L358.381474795,163.822685694 L348.122965978,165.75848538 L350.388446645,160.072391237 L378.39070097,150.730611906 L378.439689515,153.544915938 L380.557286416,155.03158995 L376.962778267,158.795788071 L379.776866309,160.996834278 L382.793007476,160.762120156 L388.298718609,152.329621348 L400.462246397,169.851860421 L408.675833693,175.314347107 L412.513519453,184.564617175 L418.915055586,188.649338137 L423.630554845,202.674478441 L424.658212121,200.281556014 L427.372911808,201.445296894 L426.852460566,203.16682366 L433.479137456,211.231524293 L433.468521366,214.461958596 L428.611261365,218.580389203 L432.281881968,217.365647385 L436.724453542,230.092320306 L432.283233632,230.81230968 L433.194349682,227.923557294 L430.026820558,225.280222439 L428.622289512,228.366372365 L431.067829285,234.270178752 L429.749891653,237.042677484 L420.540605988,232.123085606 L417.565864716,233.380233698 L415.260513977,236.474217896 L416.075018489,238.092286071 L422.546493028,234.607631539 L430.207014947,243.255003334 L442.331907898,244.202742394 L445.102791048,242.448942474 L443.267796176,238.25111819 L451.786375505,235.672422876 L457.42823996,241.468624378 L461.686866664,262.689738562 L454.966097703,255.356720097 L455.834156714,262.917438936 L456.810584072,265.147394029 L463.451208515,267.069588039 L464.595104928,273.922468325 L466.201933878,279.46198689 L466.584348463,282.370970748 L450.564840724,280.702813931 L447.595879107,281.758006216 Z" fill="#cee3f5" id="LK.TC" stroke="#6e6e6e" stroke-width="0.4"><desc><labelrank>7</labelrank><code_hasc>LK.TC</code_hasc><name>Trikuṇāmalaya</name><admin>Sri Lanka</admin><type_en>District</type_en><region>Næ̆gĕnahira paḷāta</region><woe_id>23706507</woe_id><longitude>81</longitude><woe_name>Trincomalee</woe_name><fips>CE21</fips><woe_label /><latitude>8</latitude><iso_a2>LK</iso_a2><postal>TC</postal><type>Distrikkaya</type><id>LK.TC</id></desc></path><path d="M378.663486268,267.584170998 L371.989172768,277.624909418 L357.009529724,278.928770396 L350.34937342,300.093914953 L348.835689326,313.322477707 L352.397948069,316.160850927 L348.909249852,321.01792119 L348.669102394,325.749998798 L341.543012049,328.967384767 L334.710965844,335.355846507 L331.572399527,335.021693546 L330.610600825,341.216653252 L323.387061225,351.970251869 L320.727079615,353.807398349 L315.704693715,352.281829717 L312.544864212,356.086291718 L302.735130015,361.090473115 L298.194771215,356.744232943 L298.882462732,350.52166796 L295.862436597,339.129034248 L294.387228458,336.6599763 L289.01546679,335.405459599 L288.677219601,320.70396085 L279.396184572,316.611446753 L271.116368369,309.333105614 L231.978138282,292.697173981 L227.354489078,288.021675649 L223.737662612,288.144966151 L220.549813832,285.754419105 L213.830767093,287.121731517 L205.710534137,260.830722323 L207.674852663,256.393869844 L217.319541815,247.628553596 L220.578191824,240.776686035 L219.578129149,233.374899994 L222.766131899,234.307066598 L223.165961175,217.697443557 L221.766617652,207.192280975 L229.70441636,210.429977351 L238.459234912,210.472896583 L255.809256253,205.966222712 L257.692513168,216.836785393 L263.03519891,218.969337499 L266.729803971,227.410811219 L274.082518625,230.040340592 L276.816360602,225.13969598 L279.988534824,223.767829154 L283.314381412,216.047615202 L290.34514243,206.964712224 L295.78387547,204.482852847 L302.10208783,208.381947342 L307.778470699,208.344167735 L329.845758238,186.471546104 L325.077555203,177.607209619 L320.436170409,176.003075785 L320.106455577,172.071678964 L333.36869943,171.618215951 L338.545268631,168.012325956 L348.122965978,165.75848538 L358.381474795,163.822685694 L370.686530295,171.784586246 L376.564706515,177.992022915 L371.46475084,187.08325547 L371.577605115,194.783580085 L376.243372387,205.723642151 L373.629770487,215.818771709 L389.883214652,242.954797579 L383.672276232,249.398767443 L378.663486268,267.584170998 Z" fill="#cee3f5" id="LK.AD" stroke="#6e6e6e" stroke-width="0.4"><desc><labelrank>7</labelrank><code_hasc>LK.AD</code_hasc><name>Anurādhapura</name><admin>Sri Lanka</admin><type_en>District</type_en><region>Uturumæ̆da paḷāta</region><woe_id>23706503</woe_id><longitude>80</longitude><woe_name>Anuradhapura</woe_name><fips>CE02</fips><woe_label /><latitude>8</latitude><iso_a2>LK</iso_a2><postal>AD</postal><type>Distrikkaya</type><id>LK.AD</id></desc></path><path d="M350.388446645,160.072391237 L348.122965978,165.75848538 L338.545268631,168.012325956 L333.36869943,171.618215951 L320.106455577,172.071678964 L320.436170409,176.003075785 L325.077555203,177.607209619 L329.845758238,186.471546104 L307.778470699,208.344167735 L302.10208783,208.381947342 L295.78387547,204.482852847 L290.34514243,206.964712224 L283.314381412,216.047615202 L279.988534824,223.767829154 L276.816360602,225.13969598 L274.082518625,230.040340592 L266.729803971,227.410811219 L263.03519891,218.969337499 L257.692513168,216.836785393 L255.809256253,205.966222712 L249.07713594,197.278608346 L244.862328017,194.067663003 L244.902893415,191.72925235 L245.570420677,189.076950471 L250.177411957,188.625645561 L252.839484962,182.619078987 L257.836059491,179.875704043 L274.324691648,179.359710259 L283.907725279,175.850938652 L284.816646256,169.596028656 L282.116231103,162.726169956 L279.358463432,158.31029295 L274.536070869,156.045101308 L282.810076281,150.877332527 L287.785777682,146.863060257 L290.97565864,142.064229723 L289.953302386,132.91330134 L285.960900888,130.617245372 L286.423741545,128.006070661 L299.198719927,127.744499278 L306.391142225,134.649409349 L318.030020725,126.377134459 L323.828213027,126.222447907 L329.349490283,128.336085598 L329.991832391,134.087366001 L334.778010567,134.612021139 L336.839006109,138.228918928 L334.831039798,143.187666746 L340.226021497,140.743937279 L345.841230477,141.596670322 L351.511821128,145.060495371 L353.666120481,147.935969674 L350.388446645,160.072391237 Z" fill="#cee3f5" id="LK.VA" stroke="#6e6e6e" stroke-width="0.4"><desc><labelrank>9</labelrank><code_hasc>LK.VA</code_hasc><name>Vavuniyāva</name><admin>Sri Lanka</admin><type_en>District</type_en><region>Uturu paḷāta</region><woe_id>23706510</woe_id><longitude>80</longitude><woe_name>Vavuniya</woe_name><fips>CE28</fips><woe_label /><latitude>8</latitude><iso_a2>LK</iso_a2><postal>VA</postal><type>Distrikkaya</type><id>LK.VA</id></desc></path><path d="M198.94834467,158.098573575 L197.406434062,160.093217282 L198.066307178,156.988004161 L198.94834467,158.098573575 M150.05431829,136.305136425 L148.28516304,136.409012531 L150.507754843,135.022889373 L154.260225816,135.865887619 L150.05431829,136.305136425 M193.01999843,138.918706356 L199.095334436,144.811324664 L188.027134283,141.108805665 L197.857258656,153.370254233 L193.595230522,152.820437322 L178.316603279,139.741709944 L161.079499356,134.13589591 L160.200235404,132.412065996 L163.078014198,129.911614555 L171.036623521,129.934369145 L185.781722331,134.699828667 L193.01999843,138.918706356 M248.189229417,106.154626926 L248.381768543,112.258260229 L249.458241674,118.108603279 L252.744733168,123.332562828 L253.092516904,124.601908642 L253.292979229,125.92196437 L253.14153437,128.663105743 L252.474867867,131.250644291 L252.873436291,135.465181622 L252.610106809,139.12765207 L248.686406555,140.459826179 L247.891857894,142.246013897 L247.299518048,144.213115231 L246.357182339,146.249109283 L245.746180383,148.322675656 L247.398933392,151.145423844 L245.123480348,157.578428302 L274.536070869,156.045101308 L279.358463432,158.31029295 L284.816646256,169.596028656 L283.907725279,175.850938652 L274.324691648,179.359710259 L257.836059491,179.875704043 L252.839484962,182.619078987 L250.177411957,188.625645561 L245.570420677,189.076950471 L244.902893415,191.72925235 L244.862328017,194.067663003 L249.07713594,197.278608346 L255.809256253,205.966222712 L238.459234912,210.472896583 L229.70441636,210.429977351 L221.766617652,207.192280975 L223.165961175,217.697443557 L222.766131899,234.307066598 L198.245845516,225.278299521 L203.424661499,212.658515058 L205.044452037,195.217924088 L200.774491093,184.079739518 L201.475260075,169.284269249 L198.886880378,159.586171382 L204.517864808,157.783101078 L222.527475639,143.913906739 L233.591874479,111.10367661 L241.023202623,110.588127413 L244.780632733,108.691285573 L248.189229417,106.154626926 Z" fill="#cee3f5" id="LK.MB" stroke="#6e6e6e" stroke-width="0.4"><desc><labelrank>9</labelrank><code_hasc>LK.MB</code_hasc><name>Mannārama</name><admin>Sri Lanka</admin><type_en>District</type_en><region>Uturu paḷāta</region><woe_id>23706506</woe_id><longitude>80</longitude><woe_name>Mannar</woe_name><fips>CE26</fips><woe_label /><latitude>8</latitude><iso_a2>LK</iso_a2><postal>MB</postal><type>Distrikkaya</type><id>LK.MB</id></desc></path><path d="M378.39070097,150.730611906 L350.388446645,160.072391237 L353.666120481,147.935969674 L351.511821128,145.060495371 L345.841230477,141.596670322 L340.226021497,140.743937279 L334.831039798,143.187666746 L336.839006109,138.228918928 L334.778010567,134.612021139 L329.991832391,134.087366001 L329.349490283,128.336085598 L323.828213027,126.222447907 L318.030020725,126.377134459 L306.391142225,134.649409349 L299.198719927,127.744499278 L286.423741545,128.006070661 L285.960900888,130.617245372 L289.953302386,132.91330134 L290.97565864,142.064229723 L287.785777682,146.863060257 L282.810076281,150.877332527 L274.536070869,156.045101308 L245.123480348,157.578428302 L247.398933392,151.145423844 L245.746180383,148.322675656 L246.357182339,146.249109283 L247.299518048,144.213115231 L247.891857894,142.246013897 L248.686406555,140.459826179 L252.610106809,139.12765207 L252.873436291,135.465181622 L252.474867867,131.250644291 L253.14153437,128.663105743 L253.292979229,125.92196437 L253.092516904,124.601908642 L252.744733168,123.332562828 L249.458241674,118.108603279 L248.381768543,112.258260229 L248.189229417,106.154626926 L252.880779261,106.736287647 L252.42847776,101.771438925 L257.074356201,95.7585908295 L285.133206405,94.557917689 L288.195033135,86.8140302518 L303.205711848,86.8736622793 L306.205333164,85.2551900191 L308.675804334,77.1348726496 L309.540423706,76.8807765792 L314.374883121,81.5190459592 L318.438735979,83.7393635936 L317.962653732,79.6781003479 L318.479827603,75.5803154202 L322.288356896,72.6186440154 L325.521464354,67.2473484592 L346.589504221,84.2897876639 L356.280081501,95.9062326017 L354.107152869,97.0439392293 L346.588834249,92.9529012293 L345.183666254,93.3757232263 L346.110606655,95.2571885496 L358.975751666,105.830594197 L357.120672477,100.069987485 L360.742569157,100.273739994 L371.122563119,122.723878741 L363.629506719,120.793327559 L362.629990407,123.345748619 L369.500332001,126.086019689 L369.907321214,130.184067791 L373.67503991,127.849404667 L377.215419815,137.604924891 L384.699424499,145.535325119 L382.207269188,148.642978367 L379.769934351,144.983456959 L369.910494715,141.311794799 L378.39070097,150.730611906 Z" fill="#cee3f5" id="LK.MP" stroke="#6e6e6e" stroke-width="0.4"><desc><labelrank>9</labelrank><code_hasc>LK.MP</code_hasc><name>Mulativ</name><admin>Sri Lanka</admin><type_en>District</type_en><region>Uturu paḷāta</region><woe_id>23706505</woe_id><longitude>80</longitude><woe_name>Mullaitivu</woe_name><fips>CE27</fips><woe_label /><latitude>9</latitude><iso_a2>LK</iso_a2><postal>MP</postal><type>Distrikkaya</type><id>LK.MP</id></desc></path><path d="M163.383240253,61.5367537908 L158.893308981,61.7855071964 L152.909781937,58.1270676414 L153.460753645,48.902374469 L156.576460329,52.5664424629 L164.215546269,54.4937679245 L166.25857078,58.8395566547 L163.383240253,61.5367537908 M183.393639525,41.1221639127 L186.866846476,41.4816933265 L185.933557676,38.6639741475 L189.21579349,40.0220360052 L188.864048028,47.1028162603 L181.425441041,46.149100542 L181.205094878,36.9005667664 L183.393639525,41.1221639127 M196.950033408,26.8779538898 L201.146894129,26.8885096146 L202.409759927,31.231026047 L210.270336654,36.6976826425 L206.692191419,37.9728637015 L201.139425675,35.7569157614 L195.677225403,37.8873801394 L192.932219674,35.889266726 L185.903389362,23.1802518452 L189.461765732,13.0011879834 L195.423419464,12.8127496702 L194.475251468,21.3214666533 L196.950033408,26.8779538898 M265.915960333,26.679884636 L259.737674532,38.3595842344 L245.087319842,32.4073536141 L245.499429475,36.7691096801 L249.761584775,41.2832349282 L247.281849919,43.9773464774 L230.931814832,33.0664624911 L238.313747647,40.4317395483 L229.750028713,37.8117398307 L214.401313786,27.6784083368 L204.814455211,24.344915582 L198.206378849,10.8653355255 L212.234154824,1.10492878837 L236.028114928,1.87767525046 L237.402573921,9.33359305348 L244.647319812,11.1482459093 L246.336400264,13.207782348 L253.786912441,13.4610086217 L265.915960333,26.679884636 M323.523660405,68.7804603315 L311.423468895,60.4897962371 L295.360580879,53.9724031342 L292.760730889,45.33591806 L271.099702779,28.130115878 L258.315488566,13.3588049824 L241.615970015,7.43074529186 L238.928815612,5.50045365792 L238.586764534,2.77958456543 L254.604415103,0.0 L260.603534289,2.4014367772 L263.860464524,10.7199152525 L287.108631167,38.0523724365 L325.521464354,67.2473484592 L323.523660405,68.7804603315 Z" fill="#cee3f5" id="LK.JA" stroke="#6e6e6e" stroke-width="0.4"><desc><labelrank>9</labelrank><code_hasc>LK.JA</code_hasc><name>Yāpanaya</name><admin>Sri Lanka</admin><type_en>District</type_en><region>Uturu paḷāta</region><woe_id>23706489</woe_id><longitude>79</longitude><woe_name>Jaffna</woe_name><fips>CE25</fips><woe_label /><latitude>9</latitude><iso_a2>LK</iso_a2><postal>JA</postal><type>Distrikkaya</type><id>LK.JA</id></desc></path><path d="M211.419785461,98.2307227707 L209.019493372,96.1031346746 L211.139463654,93.9783643224 L212.772725247,95.7176737506 L211.419785461,98.2307227707 M323.523660405,68.7804603315 L322.288356896,72.6186440153 L318.479827603,75.5803154202 L317.962653732,79.6781003479 L318.438735979,83.7393635935 L314.374883121,81.5190459592 L309.540423706,76.8807765792 L308.675804334,77.1348726496 L306.205333164,85.2551900191 L303.205711848,86.8736622793 L288.195033135,86.8140302518 L285.133206405,94.557917689 L257.074356201,95.7585908295 L252.42847776,101.771438925 L252.880779261,106.736287647 L248.189229417,106.154626926 L244.780632733,108.691285573 L241.023202623,110.588127413 L233.591874479,111.10367661 L235.114353326,94.800159454 L225.868484569,89.0211801288 L223.543313383,78.4492694593 L229.62012141,74.2607988595 L239.197976054,71.5294514397 L243.11706622,66.3586230024 L249.203056862,63.8165418027 L242.861254648,55.3608416572 L226.261467532,45.0318866393 L223.619276739,41.7373475465 L229.350992114,41.931385948 L245.475915025,50.3480431641 L255.692405617,52.9318081457 L262.590205443,58.3386330172 L263.629876615,60.2872239285 L261.456455227,61.3852696283 L261.451133682,65.0461099353 L265.183457518,67.5600357902 L290.054624413,59.0794191316 L323.523660405,68.7804603315 M292.760730889,45.33591806 L295.360580879,53.9724031342 L290.477606202,55.9295280378 L288.119566583,54.1842666845 L279.752355004,53.6864989496 L259.737674532,38.3595842344 L265.915960333,26.679884636 L274.418159079,35.9374211629 L292.760730889,45.33591806 Z" fill="#cee3f5" id="LK.KL" stroke="#6e6e6e" stroke-width="0.4"><desc><labelrank>9</labelrank><code_hasc>LK.KL</code_hasc><name>Kilinŏchchi</name><admin>Sri Lanka</admin><type_en>District</type_en><region>Uturu paḷāta</region><woe_id>23706490</woe_id><longitude>80</longitude><woe_name>Kilinochchi</woe_name><fips /><woe_label /><latitude>9</latitude><iso_a2>LK</iso_a2><postal>KL</postal><type>Distrikkaya</type><id>LK.KL</id></desc></path><path d="M302.735130015,361.090473115 L302.361799803,367.155825124 L305.29787087,368.421722409 L308.342316542,374.174230822 L312.673480508,393.609433239 L315.942449278,396.796559502 L315.385393044,402.644190923 L312.205034787,406.481048574 L311.759586368,410.263658257 L316.042877874,419.780653529 L314.580189298,425.150934958 L310.327956245,426.676779505 L312.839603201,431.386886209 L305.721387305,433.309239175 L305.737655016,437.170780339 L297.327384222,434.966189012 L295.824632143,442.58175242 L288.909424573,443.113744889 L284.662108281,436.970693529 L276.452698356,437.949622539 L274.131166641,448.87007213 L259.278745756,452.822546961 L248.006873216,460.999876195 L237.279161516,448.872486488 L222.73631555,454.351476952 L217.804529408,450.875246563 L213.514087476,451.048600328 L202.868564157,457.83657899 L202.462904524,447.17628437 L195.912311783,411.841410472 L195.973948455,399.496197807 L202.5416392,386.233089331 L207.256699614,384.422270161 L204.082941918,382.230571769 L206.216072163,377.826302008 L214.295642803,374.474840482 L212.658554627,370.591436326 L215.933418949,357.446514513 L225.588710787,349.045000367 L227.685399462,343.107531319 L232.490292417,340.763075522 L233.567507159,336.847382064 L237.275598347,338.936917829 L239.530903894,337.208557763 L237.395183956,333.232332522 L239.783205777,329.100957291 L240.984966725,315.720643648 L236.410623341,313.532591381 L234.736088522,310.30707099 L231.978138282,292.697173981 L271.116368369,309.333105614 L279.396184572,316.611446753 L288.677219601,320.70396085 L289.01546679,335.405459599 L294.387228458,336.6599763 L295.862436597,339.129034248 L298.882462732,350.52166796 L298.194771215,356.744232943 L302.735130015,361.090473115 Z" fill="#cee3f5" id="LK.KG" stroke="#6e6e6e" stroke-width="0.4"><desc><labelrank>9</labelrank><code_hasc>LK.KG</code_hasc><name>Kuruṇægala</name><admin>Sri Lanka</admin><type_en>District</type_en><region>Vayamba paḷāta</region><woe_id>23706501</woe_id><longitude>80</longitude><woe_name>Kurunegala</woe_name><fips>CE12</fips><woe_label /><latitude>7</latitude><iso_a2>LK</iso_a2><postal>KG</postal><type>Distrikkaya</type><id>LK.KG</id></desc></path><path d="M219.578129149,233.374899994 L220.578191824,240.776686035 L217.319541815,247.628553596 L207.674852663,256.393869844 L205.710534137,260.830722323 L213.830767093,287.121731517 L220.549813832,285.754419105 L223.737662612,288.144966151 L227.354489078,288.021675649 L231.978138282,292.697173981 L234.736088522,310.30707099 L236.410623341,313.532591381 L240.984966725,315.720643648 L239.783205777,329.100957291 L237.395183956,333.232332522 L239.530903894,337.208557763 L237.275598347,338.936917829 L233.567507159,336.847382064 L232.490292417,340.763075522 L227.685399462,343.107531319 L225.588710787,349.045000367 L215.933418949,357.446514513 L212.658554627,370.591436326 L214.295642803,374.474840482 L206.216072163,377.826302008 L204.082941918,382.230571769 L207.256699614,384.422270161 L202.5416392,386.233089331 L195.973948455,399.496197807 L195.912311783,411.841410472 L202.462904524,447.17628437 L202.868564157,457.83657899 L199.745351867,456.626837862 L195.008307176,457.988473138 L193.624255621,456.443792382 L182.574499755,457.518510644 L173.881837991,398.941423024 L176.457521035,398.94728755 L178.095574613,388.806961783 L175.750331566,383.631149072 L170.720797522,351.319873478 L159.484616611,310.086629912 L159.499817227,304.34707138 L160.717432675,305.575515752 L161.365693496,302.244323524 L159.542253918,288.441083042 L165.267095805,282.964598485 L174.204028001,265.003123537 L168.085795518,277.334453872 L170.329705794,280.461585663 L174.16361651,281.142186051 L170.611714582,289.578439839 L168.341839686,290.783297038 L164.984641589,307.84014979 L165.319790977,313.179432878 L169.319715139,317.937206679 L165.724894208,325.366909115 L171.413638329,329.501521184 L179.699064168,330.170367138 L183.921979322,327.211980455 L176.741015055,314.695470657 L182.785236846,303.289326459 L178.813896669,286.710736774 L182.844795461,277.983628775 L186.660378398,249.237234846 L189.835827575,245.080510271 L191.276190993,231.344288403 L198.245845516,225.278299521 L219.578129149,233.374899994 Z" fill="#cee3f5" id="LK.PX" stroke="#6e6e6e" stroke-width="0.4"><desc><labelrank>9</labelrank><code_hasc>LK.PX</code_hasc><name>Puttalama</name><admin>Sri Lanka</admin><type_en>District</type_en><region>Vayamba paḷāta</region><woe_id>23706502</woe_id><longitude>79</longitude><woe_name>Puttalam</woe_name><fips>CE19</fips><woe_label /><latitude>7</latitude><iso_a2>LK</iso_a2><postal>PX</postal><type>Distrikkaya</type><id>LK.PX</id></desc></path><path d="M302.072967837,537.298777768 L303.162662707,541.559016993 L301.143191863,544.673873552 L304.825444475,547.472458162 L328.315950923,551.24604582 L348.068884472,549.711899883 L358.213154815,544.438172478 L358.69499113,551.026573738 L361.342142891,549.859563135 L366.877941791,553.484021765 L365.193848735,557.248460208 L360.343456733,559.448314445 L359.492015978,561.800412036 L361.380854334,564.763387188 L368.213595389,567.739412315 L379.451370886,563.13901673 L371.38171369,576.109700483 L367.921050713,587.851920778 L361.829045675,597.733078161 L363.646467972,614.58108424 L368.186548478,621.779862967 L374.875863528,625.899023844 L378.009199778,633.343055303 L382.977839245,641.559578346 L382.070837908,644.708200833 L371.729634716,642.150660233 L366.910801492,637.609664006 L356.626576348,638.221935892 L333.224093035,631.511612424 L334.16956597,628.844977101 L330.02053108,623.001189684 L322.498383124,623.147304888 L323.685090197,619.962292519 L321.092905769,615.21118817 L310.162187087,616.262564478 L308.919602368,619.164967653 L301.897278989,620.471746647 L300.36075983,618.257796192 L286.209186574,614.322660659 L281.580972297,610.013360862 L267.540477847,588.198612134 L266.598784698,585.155765272 L269.303681441,584.125773584 L266.715547668,579.192323747 L258.24055775,572.738748103 L257.19059559,567.514846049 L251.734108036,562.235105017 L245.409607516,540.49814761 L249.356641192,536.988571963 L244.95691824,532.329871386 L250.892246514,521.858859367 L253.669752467,520.602677656 L263.301081833,530.94308536 L266.038270466,533.075718577 L269.148879364,531.97678216 L271.29284298,535.280086145 L275.771300746,536.279610205 L281.215674919,533.223731349 L286.157707819,533.079464409 L294.946952722,536.910110555 L302.072967837,537.298777768 Z" fill="#cee3f5" id="LK.RN" stroke="#6e6e6e" stroke-width="0.4"><desc><labelrank>7</labelrank><code_hasc>LK.RN</code_hasc><name>Ratnapura</name><admin>Sri Lanka</admin><type_en>District</type_en><region>Sabaragamuva paḷāta</region><woe_id>23706494</woe_id><longitude>80</longitude><woe_name>Ratnapura</woe_name><fips>CE20</fips><woe_label /><latitude>6</latitude><iso_a2>LK</iso_a2><postal>RN</postal><type>Distrikkaya</type><id>LK.RN</id></desc></path><path d="M281.580972297,610.013360862 L286.209186574,614.322660659 L300.36075983,618.257796192 L301.897278989,620.471746647 L295.781240816,624.000928592 L300.650782948,629.967081956 L299.591829138,635.031651353 L294.052157123,633.755189513 L286.848251708,627.722276929 L281.01181473,627.611558936 L290.120694136,638.591004164 L291.451647602,643.712585586 L288.317241508,647.530255714 L282.016986013,646.433181157 L284.737641682,651.555870868 L281.822679786,658.730226244 L282.969335883,662.231297871 L291.750568676,669.543171254 L282.921114814,677.991596828 L288.035151757,681.935117768 L281.708451461,688.76922928 L282.075601179,692.798508062 L277.308840458,690.17826002 L274.183592186,691.517455493 L271.7329853,688.948978095 L257.430061119,684.649046401 L250.909030917,680.260439958 L249.5938311,681.593410933 L230.450070785,662.540557603 L218.821631342,638.520851062 L215.271388299,621.496731842 L209.924399731,607.203946999 L213.165955828,609.787590628 L216.150926506,608.273301048 L218.369991034,611.063986498 L231.776206138,616.328463623 L237.643748106,620.854940345 L245.405265768,622.331903433 L250.299664749,619.605601711 L255.747215813,619.148386652 L266.596017296,628.08570258 L265.60593946,616.755062769 L281.580972297,610.013360862 Z" fill="#cee3f5" id="LK.GL" stroke="#6e6e6e" stroke-width="0.4"><desc><labelrank>7</labelrank><code_hasc>LK.GL</code_hasc><name>Gālla</name><admin>Sri Lanka</admin><type_en>District</type_en><region>Dakuṇu paḷāta</region><woe_id>23706498</woe_id><longitude>80</longitude><woe_name>Galle</woe_name><fips>CE06</fips><woe_label /><latitude>6</latitude><iso_a2>LK</iso_a2><postal>GL</postal><type>Distrikkaya</type><id>LK.GL</id></desc></path><path d="M519.974513843,594.748271816 L508.891272141,609.000971745 L490.556207879,619.815265317 L457.308224144,645.89004213 L429.051579609,657.146044003 L428.728292804,654.404769824 L426.042559607,653.772562337 L424.032891631,659.366533571 L412.579752829,664.762737373 L374.941419904,673.652540793 L370.416926254,675.388809865 L367.702614739,679.195248574 L362.841688282,678.248096021 L358.156208375,680.049426377 L343.915350079,690.703678654 L338.34890269,688.089302113 L336.235857807,684.811077818 L337.608076703,682.616739837 L331.843002861,679.995266716 L331.417205569,677.138567597 L337.238455468,674.671885291 L335.25610637,667.777734256 L337.536483142,664.727018576 L330.511892839,663.063629627 L329.900914933,660.017046831 L331.829226856,656.531175087 L322.767377677,652.385149048 L324.956441133,644.672406634 L331.832747811,639.497879548 L330.628887389,636.659503645 L331.537812894,632.168712454 L333.224093035,631.511612424 L356.626576348,638.221935892 L366.910801492,637.609664006 L371.729634716,642.150660233 L382.070837908,644.708200833 L382.977839245,641.559578346 L378.009199778,633.343055303 L395.885418498,623.460650437 L394.160507157,619.447311452 L395.029345671,615.381823784 L399.716322918,615.212811065 L401.158939519,610.758030799 L403.364308026,612.32636641 L405.067517167,610.394694548 L414.01547742,610.916850114 L420.224875684,615.519261145 L426.040911473,614.028503895 L432.143818553,623.014886667 L436.629270607,624.867527462 L443.295084179,620.425570675 L463.869566776,612.378790383 L475.671058469,612.502511847 L479.474665327,603.292330169 L478.466742653,597.857807008 L493.306004789,587.121177034 L498.120222855,586.21979 L501.318283522,582.500916307 L506.682213277,589.053142191 L511.035813231,589.494694163 L514.024074063,592.874252234 L519.974513843,594.748271816 Z" fill="#cee3f5" id="LK.HB" stroke="#6e6e6e" stroke-width="0.4"><desc><labelrank>9</labelrank><code_hasc>LK.HB</code_hasc><name>Hambantŏṭa</name><admin>Sri Lanka</admin><type_en>District</type_en><region>Dakuṇu paḷāta</region><woe_id>23706497</woe_id><longitude>81</longitude><woe_name>Hambantota</woe_name><fips>CE07</fips><woe_label /><latitude>6</latitude><iso_a2>LK</iso_a2><postal>HB</postal><type>Distrikkaya</type><id>LK.HB</id></desc></path><path d="M333.224093035,631.511612424 L331.537812894,632.168712454 L330.628887389,636.659503645 L331.832747811,639.497879548 L324.956441133,644.672406634 L322.767377677,652.385149048 L331.829226856,656.531175087 L329.900914933,660.017046831 L330.511892839,663.063629627 L337.536483142,664.727018576 L335.25610637,667.777734256 L337.238455468,674.671885291 L331.417205569,677.138567597 L331.843002861,679.995266716 L337.608076703,682.616739837 L336.235857807,684.811077818 L338.34890269,688.089302113 L343.915350079,690.703678654 L341.163666886,693.88027064 L330.739817756,693.878639103 L319.000011195,700.0 L309.803423986,696.314569638 L296.458910455,696.95698581 L292.666159106,691.530180329 L289.62844006,693.292794008 L282.075601179,692.798508062 L281.708451461,688.76922928 L288.035151757,681.935117768 L282.921114814,677.991596828 L291.750568676,669.543171254 L282.969335883,662.231297871 L281.822679786,658.730226244 L284.737641682,651.555870868 L282.016986013,646.433181157 L288.317241508,647.530255714 L291.451647602,643.712585586 L290.120694136,638.591004164 L281.01181473,627.611558936 L286.848251708,627.722276929 L294.052157123,633.755189513 L299.591829138,635.031651353 L300.650782948,629.967081956 L295.781240816,624.000928592 L301.897278989,620.471746647 L308.919602368,619.164967653 L310.162187087,616.262564478 L321.092905769,615.21118817 L323.685090197,619.962292519 L322.498383124,623.147304888 L330.02053108,623.001189684 L334.16956597,628.844977101 L333.224093035,631.511612424 Z" fill="#cee3f5" id="LK.MH" stroke="#6e6e6e" stroke-width="0.4"><desc><labelrank>9</labelrank><code_hasc>LK.MH</code_hasc><name>Mātara</name><admin>Sri Lanka</admin><type_en>District</type_en><region>Dakuṇu paḷāta</region><woe_id>23706496</woe_id><longitude>80</longitude><woe_name>Matara</woe_name><fips>CE15</fips><woe_label /><latitude>6</latitude><iso_a2>LK</iso_a2><postal>MH</postal><type>Distrikkaya</type><id>LK.MH</id></desc></path><path d="M440.69947834,457.493119322 L433.729493847,459.162751392 L432.368078892,466.24833032 L425.847688418,475.186142397 L422.870853412,476.42503882 L417.430416278,473.387587745 L415.324352602,476.551637236 L414.790751661,480.186700785 L423.679469106,491.597327249 L430.263843354,489.859664654 L434.48669157,494.772795167 L435.919565368,502.994544863 L430.884676132,520.376386465 L426.776012042,520.106946359 L420.822363109,526.71915778 L412.403799843,530.110151251 L416.794883224,536.167684342 L411.59477186,537.745688973 L410.0419712,540.747028879 L403.970831683,541.278751405 L402.385283884,552.146361419 L403.090151294,554.474846185 L406.219450902,555.315607527 L406.443601018,558.482401406 L403.798492482,562.576948193 L403.449867618,567.947960897 L407.806999059,577.094189991 L404.085624455,578.425272012 L403.532548192,582.680556943 L399.660839007,580.506632728 L396.424388506,589.184882631 L386.63777511,569.516542122 L383.82289538,568.485132806 L381.580645533,563.24943388 L379.451370886,563.13901673 L368.213595389,567.739412315 L361.380854334,564.763387188 L359.492015978,561.800412036 L360.343456733,559.448314445 L365.193848735,557.248460208 L366.877941791,553.484021765 L361.342142891,549.859563135 L358.69499113,551.026573738 L358.213154815,544.438172478 L363.432804807,541.016059179 L360.137774467,539.136683293 L362.76562742,534.876799242 L358.952107437,527.32108413 L353.233263483,524.460062455 L353.029636103,521.603362514 L359.617829504,521.635395436 L365.723369775,512.744989315 L375.733307163,509.742456723 L379.709610906,503.861086017 L385.366954606,493.075622753 L384.125717204,488.654422908 L386.214777995,485.495875181 L383.56456048,472.778169011 L389.666911622,470.326237393 L394.491731997,465.860431195 L394.80302898,460.049493605 L390.876261752,447.082584235 L389.291759341,420.029548006 L388.416115379,405.370928629 L390.130538981,396.947833306 L393.328357099,399.071414817 L396.161169732,408.839485832 L400.564174507,416.147871689 L407.770640938,413.763113758 L420.349495504,405.353828768 L428.297665406,407.064206241 L428.990338336,416.023050486 L425.619453949,428.19454225 L428.052940148,440.517866257 L432.718971599,447.342836028 L436.472512816,447.380621645 L440.69947834,457.493119322 Z" fill="#cee3f5" id="LK.BD" stroke="#6e6e6e" stroke-width="0.4"><desc><labelrank>7</labelrank><code_hasc>LK.BD</code_hasc><name>Badulla</name><admin>Sri Lanka</admin><type_en>District</type_en><region>Ūva paḷāta</region><woe_id>23706499</woe_id><longitude>81</longitude><woe_name>Badulla</woe_name><fips>CE03</fips><woe_label /><latitude>7</latitude><iso_a2>LK</iso_a2><postal>BD</postal><type>Distrikkaya</type><id>LK.BD</id></desc></path><path d="M501.318283522,582.500916307 L498.120222855,586.21979 L493.306004789,587.121177034 L478.466742653,597.857807008 L479.474665327,603.292330169 L475.671058469,612.502511847 L463.869566776,612.378790383 L443.295084179,620.425570675 L436.629270607,624.867527462 L432.143818553,623.014886667 L426.040911473,614.028503895 L420.224875684,615.519261145 L414.01547742,610.916850114 L405.067517167,610.394694548 L403.364308026,612.32636641 L401.158939519,610.758030799 L399.716322918,615.212811065 L395.029345671,615.381823784 L394.160507157,619.447311452 L395.885418498,623.460650437 L378.009199778,633.343055303 L374.875863528,625.899023844 L368.186548478,621.779862967 L363.646467972,614.58108424 L361.829045675,597.733078161 L367.921050713,587.851920778 L371.38171369,576.109700483 L379.451370886,563.13901673 L381.580645533,563.24943388 L383.82289538,568.485132806 L386.63777511,569.516542122 L396.424388506,589.184882631 L399.660839007,580.506632728 L403.532548192,582.680556943 L404.085624455,578.425272012 L407.806999059,577.094189991 L403.449867618,567.947960897 L403.798492482,562.576948193 L406.443601018,558.482401406 L406.219450902,555.315607527 L403.090151294,554.474846185 L402.385283884,552.146361419 L403.970831683,541.278751405 L410.0419712,540.747028879 L411.59477186,537.745688973 L416.794883224,536.167684342 L412.403799843,530.110151251 L420.822363109,526.71915778 L426.776012042,520.106946359 L430.884676132,520.376386465 L435.919565368,502.994544863 L434.48669157,494.772795167 L430.263843354,489.859664654 L423.679469106,491.597327249 L414.790751661,480.186700785 L415.324352602,476.551637236 L417.430416278,473.387587745 L422.870853412,476.42503882 L425.847688418,475.186142397 L432.368078892,466.24833032 L433.729493847,459.162751392 L440.69947834,457.493119322 L443.684036564,463.870253885 L450.633332692,460.185637972 L449.655164347,446.620105971 L454.09307732,446.813656129 L457.714537934,444.808642826 L460.592812549,440.290189972 L459.363655478,433.730663197 L463.670129291,432.946796455 L465.550666176,429.350941516 L474.159183814,425.323489242 L477.672996503,426.267193491 L475.035875746,430.355404653 L477.348156132,431.240811273 L479.61650225,450.81470093 L483.579356301,454.23020146 L490.500350819,467.767382136 L483.87117285,474.460129635 L481.78980585,480.024593984 L486.226305298,489.440388247 L502.723131737,496.325338329 L501.55135047,503.231550922 L505.869050506,516.740239305 L501.318283522,582.500916307 Z" fill="#cee3f5" id="LK.MJ" stroke="#6e6e6e" stroke-width="0.4"><desc><labelrank>9</labelrank><code_hasc>LK.MJ</code_hasc><name>Mŏṇarāgala</name><admin>Sri Lanka</admin><type_en>District</type_en><region>Ūva paḷāta</region><woe_id>23706500</woe_id><longitude>81</longitude><woe_name>Moneragala</woe_name><fips>CE16</fips><woe_label /><latitude>6</latitude><iso_a2>LK</iso_a2><postal>MJ</postal><type>Distrikkaya</type><id>LK.MJ</id></desc></path><path d="M288.909424573,443.113744889 L291.105467097,448.611426166 L298.829925286,455.362953539 L298.531797106,458.821462005 L306.757498414,465.012233226 L306.365913908,470.832047499 L311.04261182,476.006292039 L308.617233215,480.565691071 L293.648370439,487.04796042 L297.656984442,495.745967287 L296.265267479,502.051232251 L295.523003825,505.319576887 L290.690890346,509.279578425 L292.835568601,511.813750272 L291.572572107,518.466286721 L293.123503898,523.653041502 L302.466744745,528.400079319 L304.128535733,535.50348012 L302.072967837,537.298777768 L294.946952722,536.910110555 L286.157707819,533.079464409 L281.215674919,533.223731349 L275.771300746,536.279610205 L271.29284298,535.280086145 L269.148879364,531.97678216 L266.038270466,533.075718577 L263.301081833,530.94308536 L253.669752467,520.602677656 L250.892246514,521.858859367 L252.4017765,512.901165348 L245.427616898,511.068389923 L243.27749725,499.452949557 L244.209316479,494.235831345 L250.437908006,484.200598351 L242.298494383,484.125424697 L240.121680809,479.631120739 L240.886924284,474.557330679 L246.052201633,470.924722153 L248.006873216,460.999876195 L259.278745756,452.822546961 L274.131166641,448.87007213 L276.452698356,437.949622539 L284.662108281,436.970693529 L288.909424573,443.113744889 Z" fill="#cee3f5" id="LK.KE" stroke="#6e6e6e" stroke-width="0.4"><desc><labelrank>9</labelrank><code_hasc>LK.KE</code_hasc><name>Kægalla</name><admin>Sri Lanka</admin><type_en>District</type_en><region>Sabaragamuva paḷāta</region><woe_id>23706495</woe_id><longitude>80</longitude><woe_name>Kegalle</woe_name><fips>CE11</fips><woe_label /><latitude>7</latitude><iso_a2>LK</iso_a2><postal>KE</postal><type>Distrikkaya</type><id>LK.KE</id></desc></path><path d="M250.892246514,521.858859367 L244.95691824,532.329871386 L249.356641192,536.988571963 L245.409607516,540.49814761 L240.1724721,539.287704157 L234.356669837,541.729434053 L235.497457279,546.921496176 L231.999771687,546.018487147 L229.693237613,540.639511537 L227.621009294,539.891089756 L222.617003843,543.851976411 L218.656399557,543.156079369 L211.760299532,549.044366978 L202.51625252,552.325933924 L194.230840399,547.203963061 L195.355355927,558.617480969 L188.702936712,541.546525672 L186.063941625,526.665318973 L186.294419823,513.268847026 L196.266265334,517.072238115 L199.30400881,515.651542373 L208.201358133,518.273991401 L214.347082348,517.446029833 L220.910011954,522.008031895 L226.145925425,523.210521326 L229.995843815,523.012357668 L230.930990804,516.128405803 L233.784843524,513.326449242 L245.427616898,511.068389923 L252.4017765,512.901165348 L250.892246514,521.858859367 Z" fill="#cee3f5" id="LK.CO" stroke="#6e6e6e" stroke-width="0.4"><desc><labelrank>9</labelrank><code_hasc>LK.CO</code_hasc><name>Kŏḷamba</name><admin>Sri Lanka</admin><type_en>District</type_en><region>Basnāhira paḷāta</region><woe_id>23706493</woe_id><longitude>80</longitude><woe_name>Colombo</woe_name><fips>CE23</fips><woe_label /><latitude>6</latitude><iso_a2>LK</iso_a2><postal>CO</postal><type>Distrikkaya</type><id>LK.CO</id></desc></path><path d="M248.006873216,460.999876195 L246.052201633,470.924722153 L240.886924284,474.557330679 L240.121680809,479.631120739 L242.298494383,484.125424697 L250.437908006,484.200598351 L244.209316479,494.235831345 L243.27749725,499.452949557 L245.427616898,511.068389923 L233.784843524,513.326449242 L230.930990804,516.128405803 L229.995843815,523.012357668 L226.145925425,523.210521326 L220.910011954,522.008031895 L214.347082348,517.446029833 L208.201358133,518.273991401 L199.30400881,515.651542373 L196.266265334,517.072238115 L186.294419823,513.268847026 L188.510651162,504.866155947 L180.00553208,474.585749429 L181.194578523,470.147141145 L186.145965109,484.953491993 L188.598094142,482.508139213 L188.565312164,476.987786139 L187.277708936,472.609815905 L182.274182661,469.274293182 L183.622392705,465.25896061 L182.574499755,457.518510644 L193.624255621,456.443792382 L195.008307176,457.988473138 L199.745351867,456.626837862 L202.868564157,457.83657899 L213.514087476,451.048600328 L217.804529408,450.875246563 L222.73631555,454.351476952 L237.279161516,448.872486488 L248.006873216,460.999876195 Z" fill="#cee3f5" id="LK.GQ" stroke="#6e6e6e" stroke-width="0.4"><desc><labelrank>9</labelrank><code_hasc>LK.GQ</code_hasc><name>Gampaha</name><admin>Sri Lanka</admin><type_en>District</type_en><region>Basnāhira paḷāta</region><woe_id>23706491</woe_id><longitude>80</longitude><woe_name>Gampaha</woe_name><fips>CE24</fips><woe_label /><latitude>7</latitude><iso_a2>LK</iso_a2><postal>GQ</postal><type>Distrikkaya</type><id>LK.GQ</id></desc></path><path d="M245.409607516,540.49814761 L251.734108036,562.235105017 L257.19059559,567.514846049 L258.24055775,572.738748103 L266.715547668,579.192323747 L269.303681441,584.125773584 L266.598784698,585.155765272 L267.540477847,588.198612134 L281.580972297,610.013360862 L265.60593946,616.755062769 L266.596017296,628.08570258 L255.747215813,619.148386652 L250.299664749,619.605601711 L245.405265768,622.331903433 L237.643748106,620.854940345 L231.776206138,616.328463623 L218.369991034,611.063986498 L216.150926506,608.273301048 L213.165955828,609.787590628 L209.924399731,607.203946999 L206.723948714,601.671668599 L209.176386228,600.450492696 L207.704694554,590.297822681 L195.355355927,558.617480969 L194.230840399,547.203963061 L202.51625252,552.325933924 L211.760299532,549.044366978 L218.656399557,543.156079369 L222.617003843,543.851976411 L227.621009294,539.891089756 L229.693237613,540.639511537 L231.999771687,546.018487147 L235.497457279,546.921496176 L234.356669837,541.729434053 L240.1724721,539.287704157 L245.409607516,540.49814761 Z" fill="#cee3f5" id="LK.KT" stroke="#6e6e6e" stroke-width="0.4"><desc><labelrank>9</labelrank><code_hasc>LK.KT</code_hasc><name>Kaḷutara</name><admin>Sri Lanka</admin><type_en>District</type_en><region>Basnāhira paḷāta</region><woe_id>23706492</woe_id><longitude>80</longitude><woe_name>Kalutara</woe_name><fips>CE09</fips><woe_label /><latitude>6</latitude><iso_a2>LK</iso_a2><postal>KT</postal><type>Distrikkaya</type><id>LK.KT</id></desc></path></svg>