<?xml version='1.0' encoding='utf-8'?>
<svg height="700" width="700" xmlns="http://www.w3.org/2000/svg"><path d="M72.3444976077,401.244019139 L74.019138756,391.196172249 L79.7129186603,391.531100478 L85.0717703349,382.488038278 L93.1100478469,376.459330144 L117.559808612,383.492822967 L118.229665072,385.502392344 L135.311004785,391.531100478 L143.014354067,396.555023923 L141.674641148,404.258373206 L131.291866029,401.913875598 L126.267942584,409.61722488 L121.244019139,405.598086124 L109.186602871,401.578947368 L102.488038278,403.588516746 L101.148325359,409.61722488 L93.4449760766,415.980861244 L89.0909090909,408.277511962 L72.3444976077,401.244019139 Z" fill="#cee3f5" id="CN.tibet.1997907" stroke="#6e6e6e" stroke-width="0.4"><desc><name>Burang County</name><admin_leve>6</admin_leve><wikipedia>de:Burang</wikipedia><localname>རྩ་མདའ་རྫོང་ / 普兰县 / Burang</localname><boundary>administrative</boundary><id>CN.tibet.1997907</id></desc></path><path d="M211.674641148,360.38277512 L217.368421053,363.397129187 L227.081339713,359.71291866 L236.459330144,362.727272727 L243.492822967,370.43062201 L262.583732057,376.459330144 L263.253588517,382.488038278 L260.909090909,383.827751196 L251.866028708,380.14354067 L248.851674641,384.162679426 L250.861244019,389.5215311 L250.526315789,389.85645933 L252.870813397,397.559808612 L249.5215311,415.980861244 L239.80861244,422.679425837 L229.090909091,426.698564593 L213.349282297,416.315789474 L214.354066986,410.622009569 L209.330143541,403.923444976 L206.650717703,393.205741627 L215.358851675,385.167464115 L203.636363636,366.746411483 L211.674641148,360.38277512 Z" fill="#cee3f5" id="CN.tibet.1997908" stroke="#6e6e6e" stroke-width="0.4"><desc><name>Coqên County</name><admin_leve>6</admin_leve><wikipedia>de:Coqên</wikipedia><localname>མཚོ་ཆེན་རྫོང / 措勤县 / Coqen</localname><boundary>administrative</boundary><id>CN.tibet.1997908</id></desc></path><path d="M27.7990430622,316.507177033 L32.8229665072,320.861244019 L48.8995215311,325.215311005 L54.9282296651,318.181818182 L61.961722488,318.851674641 L65.3110047847,324.545454545 L69.6650717703,332.248803828 L81.7224880383,334.928229665 L88.4210526316,349.66507177 L86.4114832536,354.688995215 L78.3732057416,359.043062201 L82.7272727273,369.76076555 L93.1100478469,376.459330144 L85.0717703349,382.488038278 L71.004784689,378.468899522 L65.3110047847,379.138755981 L59.95215311,366.411483254 L51.5789473684,357.703349282 L51.9138755981,351.004784689 L47.5598086124,342.966507177 L30.8133971292,328.564593301 L27.7990430622,316.507177033 Z" fill="#cee3f5" id="CN.tibet.1997909" stroke="#6e6e6e" stroke-width="0.4"><desc><name>Gar County</name><admin_leve>6</admin_leve><wikipedia>en:Gar County</wikipedia><localname>སྒར་རྫོང་ / 噶尔县 / Gar</localname><boundary>administrative</boundary><id>CN.tibet.1997909</id></desc></path><path d="M121.578947368,236.459330144 L123.253588517,232.440191388 L132.966507177,228.421052632 L137.320574163,223.397129187 L154.401913876,225.071770335 L159.76076555,234.114832536 L176.507177033,236.124401914 L200.622009569,233.444976077 L204.641148325,229.090909091 L231.770334928,221.052631579 L243.827751196,225.406698565 L246.507177033,222.057416268 L259.234449761,218.373205742 L266.602870813,228.421052632 L264.593301435,242.488038278 L255.215311005,264.258373206 L262.248803828,267.607655502 L261.244019139,274.306220096 L265.933014354,285.023923445 L262.583732057,291.052631579 L267.272727273,300.43062201 L258.564593301,318.181818182 L259.234449761,321.531100478 L232.105263158,331.913875598 L224.736842105,345.311004785 L228.086124402,350.33492823 L227.081339713,359.71291866 L217.368421053,363.397129187 L211.674641148,360.38277512 L194.258373206,359.71291866 L188.229665072,362.727272727 L171.483253589,362.727272727 L160.43062201,359.71291866 L154.066985646,366.411483254 L145.693779904,365.071770335 L145.693779904,356.363636364 L149.71291866,352.009569378 L159.425837321,349.66507177 L156.076555024,335.263157895 L158.421052632,326.220095694 L150.38277512,310.813397129 L150.04784689,297.751196172 L134.306220096,290.717703349 L130.956937799,282.344497608 L121.578947368,268.277511962 L133.636363636,258.899521531 L136.650717703,247.846889952 L134.306220096,240.813397129 L121.578947368,236.459330144 Z" fill="#cee3f5" id="CN.tibet.1997910" stroke="#6e6e6e" stroke-width="0.4"><desc><name>Gêrzê County</name><admin_leve>6</admin_leve><wikipedia>de:Gêrzê</wikipedia><localname>སྒེར་རྩེ་རྫོང་ / 改则县 / Gerze</localname><boundary>administrative</boundary><id>CN.tibet.1997910</id></desc></path><path d="M65.3110047847,324.545454545 L73.3492822967,321.196172249 L87.7511961722,321.531100478 L91.4354066986,324.210526316 L111.196172249,319.186602871 L104.497607656,312.488038278 L105.837320574,307.464114833 L123.253588517,304.449760766 L131.291866029,299.425837321 L134.306220096,290.717703349 L150.04784689,297.751196172 L150.38277512,310.813397129 L158.421052632,326.220095694 L156.076555024,335.263157895 L159.425837321,349.66507177 L149.71291866,352.009569378 L145.693779904,356.363636364 L145.693779904,365.071770335 L154.066985646,366.411483254 L152.057416268,377.129186603 L153.397129187,384.832535885 L161.435406699,392.535885167 L157.416267943,399.56937799 L147.703349282,389.5215311 L143.014354067,396.555023923 L135.311004785,391.531100478 L118.229665072,385.502392344 L117.559808612,383.492822967 L93.1100478469,376.459330144 L82.7272727273,369.76076555 L78.3732057416,359.043062201 L86.4114832536,354.688995215 L88.4210526316,349.66507177 L81.7224880383,334.928229665 L69.6650717703,332.248803828 L65.3110047847,324.545454545 Z" fill="#cee3f5" id="CN.tibet.1997911" stroke="#6e6e6e" stroke-width="0.4"><desc><name>Gê'gyai County</name><admin_leve>6</admin_leve><wikipedia>de:Gê'gyai</wikipedia><localname>དགེ་རྒྱས་རྫོང་ / 革吉县 / Gê'gyai</localname><boundary>administrative</boundary><id>CN.tibet.1997911</id></desc></path><path d="M121.578947368,236.459330144 L134.306220096,240.813397129 L136.650717703,247.846889952 L133.636363636,258.899521531 L121.578947368,268.277511962 L130.956937799,282.344497608 L134.306220096,290.717703349 L131.291866029,299.425837321 L123.253588517,304.449760766 L105.837320574,307.464114833 L104.497607656,312.488038278 L111.196172249,319.186602871 L91.4354066986,324.210526316 L87.7511961722,321.531100478 L73.3492822967,321.196172249 L65.3110047847,324.545454545 L61.961722488,318.851674641 L54.9282296651,318.181818182 L48.8995215311,325.215311005 L32.8229665072,320.861244019 L27.7990430622,316.507177033 L25.4545454545,309.138755981 L14.7368421053,300.765550239 L11.7224880383,281.339712919 L17.7511961722,275.980861244 L20.7655502392,267.607655502 L47.8947368421,264.928229665 L55.5980861244,245.837320574 L61.2918660287,243.492822967 L63.971291866,235.454545455 L72.009569378,232.105263158 L88.7559808612,236.794258373 L102.153110048,235.454545455 L107.177033493,239.473684211 L121.578947368,236.459330144 Z" fill="#cee3f5" id="CN.tibet.1997912" stroke="#6e6e6e" stroke-width="0.4"><desc><name>Rutog County</name><admin_leve>6</admin_leve><wikipedia>de:Rutog</wikipedia><localname>རུ་ཐོག་རྫོང་ / 日土县 / Rutoq</localname><boundary>administrative</boundary><id>CN.tibet.1997912</id></desc></path><path d="M30.8133971292,328.564593301 L47.5598086124,342.966507177 L51.9138755981,351.004784689 L51.5789473684,357.703349282 L59.95215311,366.411483254 L65.3110047847,379.138755981 L71.004784689,378.468899522 L85.0717703349,382.488038278 L79.7129186603,391.531100478 L74.019138756,391.196172249 L72.3444976077,401.244019139 L61.2918660287,396.555023923 L62.6315789474,392.200956938 L49.2344497608,383.492822967 L40.5263157895,384.832535885 L31.1483253589,378.133971292 L22.7751196172,367.081339713 L12.7272727273,372.105263158 L15.0717703349,362.057416268 L10.3827751196,356.698564593 L12.7272727273,350.0 L3.34928229665,339.61722488 L0.0,330.574162679 L11.0526315789,326.220095694 L14.0669856459,334.258373206 L19.4258373206,337.607655502 L30.8133971292,328.564593301 Z" fill="#cee3f5" id="CN.tibet.1997913" stroke="#6e6e6e" stroke-width="0.4"><desc><name>Zanda County</name><admin_leve>6</admin_leve><wikipedia>de:Zanda</wikipedia><localname>རྩ་མདའ་རྫོང་ / 札达县 / Zanda</localname><boundary>administrative</boundary><id>CN.tibet.1997913</id></desc></path><path d="M532.200956938,399.90430622 L547.607655502,397.894736842 L550.28708134,395.550239234 L561.339712919,397.559808612 L572.392344498,395.550239234 L584.449760766,397.559808612 L592.488038278,407.942583732 L601.866028708,408.947368421 L607.559808612,405.933014354 L616.267942584,408.947368421 L616.267942584,415.311004785 L610.909090909,423.684210526 L616.602870813,431.387559809 L613.923444976,436.746411483 L608.564593301,437.081339713 L597.511961722,431.722488038 L586.124401914,428.373205742 L570.717703349,418.660287081 L560.669856459,412.966507177 L538.564593301,408.612440191 L535.550239234,411.291866029 L527.511961722,405.933014354 L532.200956938,399.90430622 Z" fill="#cee3f5" id="CN.tibet.2734498" stroke="#6e6e6e" stroke-width="0.4"><desc><name>Bomê County</name><admin_leve>6</admin_leve><wikipedia>de:Bomê</wikipedia><localname>སྤོ་མེས་རྫོང་ / 波密县 / Bomê</localname><boundary>administrative</boundary><id>CN.tibet.2734498</id></desc></path><path d="M480.28708134,408.947368421 L490.0,395.885167464 L497.703349282,402.583732057 L502.727272727,399.56937799 L512.105263158,406.602870813 L527.511961722,405.933014354 L535.550239234,411.291866029 L538.899521531,415.980861244 L533.875598086,420.33492823 L523.157894737,419.66507177 L508.755980861,426.028708134 L514.449760766,435.406698565 L507.416267943,431.387559809 L498.373205742,435.071770335 L496.698564593,433.732057416 L489.330143541,426.028708134 L478.612440191,428.038277512 L476.937799043,431.722488038 L472.918660287,422.344497608 L467.894736842,418.660287081 L478.277511962,412.966507177 L480.28708134,408.947368421 Z" fill="#cee3f5" id="CN.tibet.2734499" stroke="#6e6e6e" stroke-width="0.4"><desc><name>Gongbo'gyamda County</name><admin_leve>6</admin_leve><wikipedia>de:Gongbo'gyamda</wikipedia><localname>ཀོང་པོ་རྒྱ་མདའ་རྫོང / 工布江达县 / Gongbo'gyamda</localname><boundary>administrative</boundary><id>CN.tibet.2734499</id></desc></path><path d="M498.373205742,435.071770335 L507.416267943,431.387559809 L514.449760766,435.406698565 L530.861244019,433.062200957 L540.23923445,438.086124402 L549.95215311,434.401913876 L555.645933014,424.019138756 L568.038277512,424.354066986 L557.320574163,438.421052632 L551.961722488,440.43062201 L539.90430622,445.119617225 L538.564593301,450.14354067 L517.129186603,461.531100478 L512.105263158,461.196172249 L513.444976077,450.813397129 L503.732057416,446.459330144 L498.373205742,435.071770335 Z" fill="#cee3f5" id="CN.tibet.2734500" stroke="#6e6e6e" stroke-width="0.4"><desc><name>Mainling County</name><admin_leve>6</admin_leve><wikipedia>de:Mainling</wikipedia><localname>སྨན་གླིང་རྫོང་ / 米林县 / Mainling</localname><boundary>administrative</boundary><id>CN.tibet.2734500</id></desc></path><path d="M551.961722488,440.43062201 L557.320574163,438.421052632 L568.038277512,424.354066986 L570.717703349,418.660287081 L586.124401914,428.373205742 L597.511961722,431.722488038 L596.507177033,437.416267943 L584.784688995,443.110047847 L565.693779904,447.129186603 L551.961722488,440.43062201 Z" fill="#cee3f5" id="CN.tibet.2734501" stroke="#6e6e6e" stroke-width="0.4"><desc><name>Mêdog County</name><admin_leve>6</admin_leve><wikipedia>de:Mêdog</wikipedia><localname>མེ་ཏོག་རྫོང་ / 墨脱县 / Mêdog</localname><boundary>administrative</boundary><id>CN.tibet.2734501</id></desc></path><path d="M473.588516746,456.507177033 L475.598086124,455.167464115 L482.296650718,456.842105263 L486.315789474,448.133971292 L496.698564593,439.090909091 L496.698564593,433.732057416 L498.373205742,435.071770335 L503.732057416,446.459330144 L513.444976077,450.813397129 L512.105263158,461.196172249 L509.425837321,461.196172249 L504.736842105,458.181818182 L496.363636364,459.5215311 L473.588516746,456.507177033 Z" fill="#cee3f5" id="CN.tibet.2734502" stroke="#6e6e6e" stroke-width="0.4"><desc><name>Nang County</name><admin_leve>6</admin_leve><wikipedia>de:Nang</wikipedia><localname>སྣང་རྫོང་ / 朗县 / Nang</localname><boundary>administrative</boundary><id>CN.tibet.2734502</id></desc></path><path d="M535.550239234,411.291866029 L538.564593301,408.612440191 L560.669856459,412.966507177 L570.717703349,418.660287081 L568.038277512,424.354066986 L555.645933014,424.019138756 L549.95215311,434.401913876 L540.23923445,438.086124402 L530.861244019,433.062200957 L514.449760766,435.406698565 L508.755980861,426.028708134 L523.157894737,419.66507177 L533.875598086,420.33492823 L538.899521531,415.980861244 L535.550239234,411.291866029 Z" fill="#cee3f5" id="CN.tibet.2734503" stroke="#6e6e6e" stroke-width="0.4"><desc><name>Bayi District</name><admin_leve>6</admin_leve><wikipedia>en:Bayi District</wikipedia><localname>བྲག་ཡིབ་གྲོང་ཆུས་ / 巴宜区 / Bayi</localname><boundary>administrative</boundary><id>CN.tibet.2734503</id></desc></path><path d="M597.511961722,431.722488038 L608.564593301,437.081339713 L613.923444976,436.746411483 L618.947368421,444.784688995 L627.990430622,443.779904306 L627.655502392,432.057416268 L631.339712919,432.057416268 L646.746411483,440.765550239 L661.818181818,445.789473684 L665.502392344,451.818181818 L677.224880383,457.511961722 L680.574162679,466.889952153 L685.263157895,469.234449761 L686.267942584,476.267942584 L675.550239234,480.28708134 L666.842105263,478.947368421 L651.100478469,465.885167464 L645.406698565,467.224880383 L639.71291866,476.937799043 L633.349282297,472.248803828 L627.655502392,472.918660287 L623.971291866,467.559808612 L615.598086124,463.205741627 L611.913875598,452.153110048 L596.507177033,437.416267943 L597.511961722,431.722488038 Z" fill="#cee3f5" id="CN.tibet.2734504" stroke="#6e6e6e" stroke-width="0.4"><desc><name>Zayü County</name><admin_leve>6</admin_leve><wikipedia>de:Zayü</wikipedia><localname>རྫ་ཡུལ་རྫོང་ / 察隅县 / Zayü</localname><boundary>administrative</boundary><id>CN.tibet.2734504</id></desc></path><path d="M618.277511962,358.708133971 L619.95215311,348.325358852 L637.703349282,346.315789474 L641.722488038,339.282296651 L642.392344498,353.349282297 L644.736842105,358.373205742 L654.449760766,366.411483254 L653.110047847,371.770334928 L660.813397129,376.459330144 L657.464114833,380.14354067 L645.741626794,377.464114833 L635.693779904,391.196172249 L625.980861244,388.516746411 L620.622009569,383.492822967 L623.636363636,377.129186603 L622.966507177,367.416267943 L618.277511962,358.708133971 Z" fill="#cee3f5" id="CN.tibet.2734864" stroke="#6e6e6e" stroke-width="0.4"><desc><name>Karub District</name><admin_leve>6</admin_leve><wikipedia>de:Karub (Stadtbezirk)</wikipedia><localname>མཁར་རོ་ཆུས།་་ / 卡若区 / Karub</localname><boundary>administrative</boundary><id>CN.tibet.2734864</id></desc></path><path d="M552.631578947,330.909090909 L569.043062201,337.942583732 L576.076555024,348.660287081 L576.411483254,355.358851675 L588.803827751,359.71291866 L589.473684211,365.406698565 L604.880382775,379.80861244 L595.167464115,382.488038278 L583.779904306,376.459330144 L576.076555024,379.138755981 L570.04784689,377.129186603 L560.669856459,372.775119617 L553.301435407,363.732057416 L550.28708134,355.023923445 L548.947368421,343.636363636 L552.631578947,330.909090909 Z" fill="#cee3f5" id="CN.tibet.2734865" stroke="#6e6e6e" stroke-width="0.4"><desc><name>Dêngqên County</name><admin_leve>6</admin_leve><wikipedia>de:Dêngqên</wikipedia><localname>སྟེང་ཆེན་རྫོང་ / 丁青县 / Dêngqên</localname><boundary>administrative</boundary><id>CN.tibet.2734865</id></desc></path><path d="M613.923444976,383.827751196 L620.622009569,383.492822967 L625.980861244,388.516746411 L635.693779904,391.196172249 L643.397129187,401.578947368 L639.377990431,405.263157895 L640.717703349,419.330143541 L631.339712919,432.057416268 L627.655502392,432.057416268 L627.990430622,443.779904306 L618.947368421,444.784688995 L613.923444976,436.746411483 L616.602870813,431.387559809 L610.909090909,423.684210526 L616.267942584,415.311004785 L616.267942584,408.947368421 L607.559808612,405.933014354 L604.880382775,396.889952153 L613.923444976,383.827751196 Z" fill="#cee3f5" id="CN.tibet.2734909" stroke="#6e6e6e" stroke-width="0.4"><desc><name>Baxoi County</name><admin_leve>6</admin_leve><wikipedia>de:Baxoi</wikipedia><localname>དཔའ་ཤོད་རྫོང་ / 八宿县 / Baxoi</localname><boundary>administrative</boundary><id>CN.tibet.2734909</id></desc></path><path d="M657.464114833,380.14354067 L660.813397129,376.459330144 L667.177033493,374.449760766 L676.555023923,381.818181818 L688.277511962,381.483253589 L692.966507177,392.870813397 L695.311004785,406.267942584 L681.913875598,406.267942584 L678.899521531,409.61722488 L672.870813397,395.885167464 L663.492822967,388.181818182 L657.464114833,380.14354067 Z" fill="#cee3f5" id="CN.tibet.2734910" stroke="#6e6e6e" stroke-width="0.4"><desc><name>Gonjo County</name><admin_leve>6</admin_leve><wikipedia>de:Gonjo</wikipedia><localname>གོ་འཇོ་རྫོང་ / 贡觉县 / Gonjo</localname><boundary>administrative</boundary><id>CN.tibet.2734910</id></desc></path><path d="M688.277511962,381.483253589 L676.555023923,381.818181818 L667.177033493,374.449760766 L660.813397129,376.459330144 L653.110047847,371.770334928 L654.449760766,366.411483254 L644.736842105,358.373205742 L642.392344498,353.349282297 L641.722488038,339.282296651 L641.387559809,331.913875598 L654.114832536,330.909090909 L669.5215311,337.272727273 L676.889952153,348.325358852 L680.909090909,360.38277512 L692.296650718,370.09569378 L683.253588517,375.789473684 L688.277511962,381.483253589 Z" fill="#cee3f5" id="CN.tibet.2734911" stroke="#6e6e6e" stroke-width="0.4"><desc><name>Jomda County</name><admin_leve>6</admin_leve><wikipedia>en:Jomda County</wikipedia><localname>འཇོ་མདའ་རྫོང་ / 江达县 / Jomda</localname><boundary>administrative</boundary><id>CN.tibet.2734911</id></desc></path><path d="M570.04784689,377.129186603 L576.076555024,379.138755981 L583.779904306,376.459330144 L595.167464115,382.488038278 L604.880382775,379.80861244 L613.923444976,383.827751196 L604.880382775,396.889952153 L607.559808612,405.933014354 L601.866028708,408.947368421 L592.488038278,407.942583732 L584.449760766,397.559808612 L572.392344498,395.550239234 L569.71291866,390.526315789 L572.727272727,382.488038278 L570.04784689,377.129186603 Z" fill="#cee3f5" id="CN.tibet.2734912" stroke="#6e6e6e" stroke-width="0.4"><desc><name>Lhorong County</name><admin_leve>6</admin_leve><wikipedia>de:Lhorong</wikipedia><localname>ལྷོ་རོང་རྫོང་ / 洛隆县 / Lhorong</localname><boundary>administrative</boundary><id>CN.tibet.2734912</id></desc></path><path d="M662.153110048,412.296650718 L674.880382775,413.301435407 L678.899521531,409.61722488 L681.913875598,406.267942584 L695.311004785,406.267942584 L697.990430622,420.0 L695.645933014,428.038277512 L700.0,442.105263158 L690.28708134,456.172248804 L682.583732057,460.861244019 L679.234449761,446.459330144 L672.870813397,439.76076555 L667.846889952,439.425837321 L662.153110048,426.028708134 L670.526315789,428.708133971 L662.153110048,412.296650718 Z" fill="#cee3f5" id="CN.tibet.2734913" stroke="#6e6e6e" stroke-width="0.4"><desc><name>Markam County</name><admin_leve>6</admin_leve><wikipedia>de:Markam</wikipedia><localname>སྨར་ཁམས་རྫོང་ / 芒康县 / Markam</localname><boundary>administrative</boundary><id>CN.tibet.2734913</id></desc></path><path d="M588.803827751,359.71291866 L596.842105263,358.038277512 L601.196172249,352.344497608 L618.277511962,358.708133971 L622.966507177,367.416267943 L623.636363636,377.129186603 L620.622009569,383.492822967 L613.923444976,383.827751196 L604.880382775,379.80861244 L589.473684211,365.406698565 L588.803827751,359.71291866 Z" fill="#cee3f5" id="CN.tibet.2734914" stroke="#6e6e6e" stroke-width="0.4"><desc><name>Riwoqê County</name><admin_leve>6</admin_leve><wikipedia>de:Riwoqê</wikipedia><localname>རི་བོ་ཆེ་རྫོང་ / 类乌齐县 / Riwoqê</localname><boundary>administrative</boundary><id>CN.tibet.2734914</id></desc></path><path d="M657.464114833,380.14354067 L663.492822967,388.181818182 L672.870813397,395.885167464 L678.899521531,409.61722488 L674.880382775,413.301435407 L662.153110048,412.296650718 L647.751196172,407.607655502 L643.397129187,401.578947368 L635.693779904,391.196172249 L645.741626794,377.464114833 L657.464114833,380.14354067 Z" fill="#cee3f5" id="CN.tibet.2734915" stroke="#6e6e6e" stroke-width="0.4"><desc><name>Zhag'yab County</name><admin_leve>6</admin_leve><wikipedia>de:Zhag'yab</wikipedia><localname>བྲག་གཡབ་རྫོང་ / 察雅县 / Zhag'yab</localname><boundary>administrative</boundary><id>CN.tibet.2734915</id></desc></path><path d="M643.397129187,401.578947368 L647.751196172,407.607655502 L662.153110048,412.296650718 L670.526315789,428.708133971 L662.153110048,426.028708134 L667.846889952,439.425837321 L672.870813397,439.76076555 L679.234449761,446.459330144 L682.583732057,460.861244019 L685.263157895,469.234449761 L680.574162679,466.889952153 L677.224880383,457.511961722 L665.502392344,451.818181818 L661.818181818,445.789473684 L646.746411483,440.765550239 L631.339712919,432.057416268 L640.717703349,419.330143541 L639.377990431,405.263157895 L643.397129187,401.578947368 Z" fill="#cee3f5" id="CN.tibet.2734916" stroke="#6e6e6e" stroke-width="0.4"><desc><name>Zogang County</name><admin_leve>6</admin_leve><wikipedia>de:Zogang</wikipedia><localname>མཛོ་སྒང་རྫོང་ / 左贡县 / Zogang</localname><boundary>administrative</boundary><id>CN.tibet.2734916</id></desc></path><path d="M429.71291866,466.889952153 L437.081339713,461.196172249 L435.741626794,451.483253589 L438.086124402,452.153110048 L450.14354067,455.167464115 L457.511961722,458.851674641 L456.172248804,469.90430622 L447.464114833,468.564593301 L440.765550239,476.602870813 L430.38277512,476.937799043 L429.71291866,466.889952153 Z" fill="#cee3f5" id="CN.tibet.2743966" stroke="#6e6e6e" stroke-width="0.4"><desc><name>Comai County</name><admin_leve>6</admin_leve><wikipedia>de:Comai</wikipedia><localname>མཚོ་སམད་རྫོང / 措美县 / Comai</localname><boundary>administrative</boundary><id>CN.tibet.2743966</id></desc></path><path d="M439.425837321,482.966507177 L440.765550239,476.602870813 L447.464114833,468.564593301 L456.172248804,469.90430622 L461.866028708,476.267942584 L466.555023923,473.588516746 L476.937799043,473.253588517 L481.961722488,480.622009569 L484.306220096,484.641148325 L474.928229665,491.004784689 L468.564593301,487.990430622 L458.516746411,492.679425837 L447.464114833,492.009569378 L446.794258373,487.655502392 L439.425837321,482.966507177 Z" fill="#cee3f5" id="CN.tibet.2743967" stroke="#6e6e6e" stroke-width="0.4"><desc><name>Cona County</name><admin_leve>6</admin_leve><wikipedia>de:Cona (Shannan)</wikipedia><localname>མཚོ་སྣ་རྫོང་ / 错那县 / Cona</localname><boundary>administrative</boundary><id>CN.tibet.2743967</id></desc></path><path d="M408.612440191,441.770334928 L427.703349282,435.406698565 L431.722488038,433.062200957 L433.397129187,432.727272727 L431.052631579,450.14354067 L424.019138756,447.464114833 L416.985645933,451.148325359 L408.612440191,441.770334928 Z" fill="#cee3f5" id="CN.tibet.2743968" stroke="#6e6e6e" stroke-width="0.4"><desc><name>Gonggar County</name><admin_leve>6</admin_leve><wikipedia>de:Gonggar</wikipedia><localname>འཕྱོངས་རྒྱས་རྫོང / 贡嘎县 / Gonggar</localname><boundary>administrative</boundary><id>CN.tibet.2743968</id></desc></path><path d="M472.918660287,442.440191388 L476.937799043,431.722488038 L478.612440191,428.038277512 L489.330143541,426.028708134 L496.698564593,433.732057416 L496.698564593,439.090909091 L486.315789474,448.133971292 L482.296650718,456.842105263 L475.598086124,455.167464115 L470.909090909,445.789473684 L472.918660287,442.440191388 Z" fill="#cee3f5" id="CN.tibet.2743969" stroke="#6e6e6e" stroke-width="0.4"><desc><name>Gyaca County</name><admin_leve>6</admin_leve><wikipedia>de:Gyaca</wikipedia><localname>རྒྱ་ཚ་རྫོང་ / 加查县 / Gyaca</localname><boundary>administrative</boundary><id>CN.tibet.2743969</id></desc></path><path d="M429.71291866,466.889952153 L430.38277512,476.937799043 L440.765550239,476.602870813 L439.425837321,482.966507177 L430.717703349,484.306220096 L415.311004785,481.291866029 L411.626794258,483.301435407 L402.583732057,478.947368421 L404.258373206,469.56937799 L413.636363636,469.90430622 L422.679425837,465.550239234 L429.71291866,466.889952153 Z" fill="#cee3f5" id="CN.tibet.2743970" stroke="#6e6e6e" stroke-width="0.4"><desc><name>Lhozhag County</name><admin_leve>6</admin_leve><wikipedia>de:Lhozhag</wikipedia><localname>ལྷོ་བྲག་རྫོང་ / 洛扎县 / Lhozhag</localname><boundary>administrative</boundary><id>CN.tibet.2743970</id></desc></path><path d="M457.511961722,458.851674641 L459.5215311,457.511961722 L463.205741627,462.200956938 L473.588516746,456.507177033 L496.363636364,459.5215311 L504.736842105,458.181818182 L509.425837321,461.196172249 L499.71291866,467.224880383 L498.373205742,471.578947368 L481.961722488,480.622009569 L476.937799043,473.253588517 L466.555023923,473.588516746 L461.866028708,476.267942584 L456.172248804,469.90430622 L457.511961722,458.851674641 Z" fill="#cee3f5" id="CN.tibet.2743971" stroke="#6e6e6e" stroke-width="0.4"><desc><name>Lhünzê County</name><admin_leve>6</admin_leve><wikipedia>de:Lhünzê</wikipedia><localname>ལྷུན་རྩེ་རྫོང་ / 隆子县 / Lhünzê</localname><boundary>administrative</boundary><id>CN.tibet.2743971</id></desc></path><path d="M395.215311005,461.531100478 L398.229665072,451.148325359 L403.588516746,439.76076555 L404.258373206,440.09569378 L408.612440191,441.770334928 L416.985645933,451.148325359 L424.019138756,447.464114833 L431.052631579,450.14354067 L435.741626794,451.483253589 L437.081339713,461.196172249 L429.71291866,466.889952153 L422.679425837,465.550239234 L413.636363636,469.90430622 L404.258373206,469.56937799 L402.583732057,478.947368421 L398.229665072,477.942583732 L394.880382775,470.574162679 L395.215311005,461.531100478 Z" fill="#cee3f5" id="CN.tibet.2743972" stroke="#6e6e6e" stroke-width="0.4"><desc><name>Nagarzê County</name><admin_leve>6</admin_leve><wikipedia>de:Nagarzê</wikipedia><localname>སྣ་དཀར་རྩེ་རྫོང་ / 浪卡子县 / Nagarzê</localname><boundary>administrative</boundary><id>CN.tibet.2743972</id></desc></path><path d="M447.129186603,432.392344498 L459.85645933,431.387559809 L454.162679426,443.110047847 L459.5215311,450.14354067 L459.5215311,457.511961722 L457.511961722,458.851674641 L450.14354067,455.167464115 L451.483253589,449.138755981 L445.454545455,444.114832536 L447.129186603,432.392344498 Z" fill="#cee3f5" id="CN.tibet.2743973" stroke="#6e6e6e" stroke-width="0.4"><desc><name>Nêdong County</name><admin_leve>6</admin_leve><wikipedia>de:Nêdong</wikipedia><localname>སྣེ་གདོང་རྫོང་ / 乃东县 / Nêdong</localname><boundary>administrative</boundary><id>CN.tibet.2743973</id></desc></path><path d="M445.454545455,444.114832536 L451.483253589,449.138755981 L450.14354067,455.167464115 L438.086124402,452.153110048 L445.454545455,444.114832536 Z" fill="#cee3f5" id="CN.tibet.2743974" stroke="#6e6e6e" stroke-width="0.4"><desc><name>Qonggyai County</name><admin_leve>6</admin_leve><wikipedia>de:Qonggyai</wikipedia><localname>འཕྱོངས་རྒྱས་རྫོང / 琼结县 / Qonggyai</localname><boundary>administrative</boundary><id>CN.tibet.2743974</id></desc></path><path d="M459.5215311,457.511961722 L459.5215311,450.14354067 L464.545454545,441.435406699 L472.918660287,442.440191388 L470.909090909,445.789473684 L475.598086124,455.167464115 L473.588516746,456.507177033 L463.205741627,462.200956938 L459.5215311,457.511961722 Z" fill="#cee3f5" id="CN.tibet.2743975" stroke="#6e6e6e" stroke-width="0.4"><desc><name>Qusum County</name><admin_leve>6</admin_leve><wikipedia>de:Qusum</wikipedia><localname>ཆུ་གསུམ་རྫོང་ / 曲松县 / Qusum</localname><boundary>administrative</boundary><id>CN.tibet.2743975</id></desc></path><path d="M459.85645933,431.387559809 L472.583732057,429.043062201 L472.918660287,422.344497608 L476.937799043,431.722488038 L472.918660287,442.440191388 L464.545454545,441.435406699 L459.5215311,450.14354067 L454.162679426,443.110047847 L459.85645933,431.387559809 Z" fill="#cee3f5" id="CN.tibet.2743976" stroke="#6e6e6e" stroke-width="0.4"><desc><name>Sangri County</name><admin_leve>6</admin_leve><wikipedia>de:Sangri (Shannan)</wikipedia><localname>ཟངས་རི་རྫོང་ / 桑日县 / Sangri</localname><boundary>administrative</boundary><id>CN.tibet.2743976</id></desc></path><path d="M433.397129187,432.727272727 L435.406698565,432.392344498 L445.789473684,430.717703349 L447.129186603,432.392344498 L445.454545455,444.114832536 L438.086124402,452.153110048 L435.741626794,451.483253589 L431.052631579,450.14354067 L433.397129187,432.727272727 Z" fill="#cee3f5" id="CN.tibet.2743977" stroke="#6e6e6e" stroke-width="0.4"><desc><name>Zhanang County</name><admin_leve>6</admin_leve><wikipedia>de:Zhanang</wikipedia><localname>གྲ་ནང་རྫོང་ / 扎囊县 / Zhanang</localname><boundary>administrative</boundary><id>CN.tibet.2743977</id></desc></path><path d="M351.004784689,428.373205742 L359.377990431,424.019138756 L355.693779904,415.980861244 L356.363636364,409.61722488 L372.105263158,407.942583732 L385.837320574,411.626794258 L388.516746411,417.320574163 L388.181818182,425.358851675 L383.827751196,433.397129187 L380.813397129,438.421052632 L365.741626794,437.416267943 L355.358851675,433.062200957 L351.004784689,428.373205742 Z" fill="#cee3f5" id="CN.tibet.2744619" stroke="#6e6e6e" stroke-width="0.4"><desc><name>Namling County</name><admin_leve>6</admin_leve><wikipedia>de:Namling</wikipedia><localname>རྣམ་གླིང་རྫོང་ / 南木林县 / Namling</localname><boundary>administrative</boundary><id>CN.tibet.2744619</id></desc></path><path d="M239.80861244,422.679425837 L249.5215311,415.980861244 L252.870813397,397.559808612 L250.526315789,389.85645933 L256.555023923,391.196172249 L260.909090909,383.827751196 L263.253588517,382.488038278 L267.272727273,384.162679426 L271.626794258,397.559808612 L278.325358852,401.913875598 L286.028708134,397.224880383 L281.674641148,388.516746411 L294.736842105,385.167464115 L296.076555024,396.555023923 L306.459330144,397.894736842 L307.799043062,401.913875598 L296.411483254,405.263157895 L299.425837321,416.315789474 L293.397129187,422.344497608 L298.755980861,428.373205742 L304.784688995,427.703349282 L309.473684211,420.33492823 L317.511961722,424.019138756 L318.516746411,430.38277512 L306.459330144,448.133971292 L296.746411483,451.148325359 L293.062200957,446.124401914 L275.311004785,447.799043062 L269.61722488,445.454545455 L268.277511962,437.416267943 L256.555023923,436.746411483 L245.837320574,430.04784689 L239.80861244,422.679425837 Z" fill="#cee3f5" id="CN.tibet.2744620" stroke="#6e6e6e" stroke-width="0.4"><desc><name>Ngamring County</name><admin_leve>6</admin_leve><wikipedia>de:Ngamring</wikipedia><localname>ངམ་རིང་རྫོང་ / 昂仁县 / Ngamring</localname><boundary>administrative</boundary><id>CN.tibet.2744620</id></desc></path><path d="M380.813397129,438.421052632 L383.827751196,433.397129187 L390.19138756,438.755980861 L403.588516746,439.76076555 L398.229665072,451.148325359 L394.210526316,447.799043062 L386.172248804,450.14354067 L380.14354067,442.775119617 L380.813397129,438.421052632 Z" fill="#cee3f5" id="CN.tibet.2744621" stroke="#6e6e6e" stroke-width="0.4"><desc><name>Rinbung County</name><admin_leve>6</admin_leve><wikipedia>de:Rinbung</wikipedia><localname>རིན་སྤུངས་རྫོང་ / 仁布县 / Rinbung</localname><boundary>administrative</boundary><id>CN.tibet.2744621</id></desc></path><path d="M307.799043062,401.913875598 L315.837320574,405.263157895 L323.205741627,403.588516746 L331.244019139,408.947368421 L356.363636364,409.61722488 L355.693779904,415.980861244 L359.377990431,424.019138756 L351.004784689,428.373205742 L348.660287081,433.397129187 L339.95215311,438.755980861 L335.598086124,439.090909091 L318.516746411,430.38277512 L317.511961722,424.019138756 L309.473684211,420.33492823 L304.784688995,427.703349282 L298.755980861,428.373205742 L293.397129187,422.344497608 L299.425837321,416.315789474 L296.411483254,405.263157895 L307.799043062,401.913875598 Z" fill="#cee3f5" id="CN.tibet.2744622" stroke="#6e6e6e" stroke-width="0.4"><desc><name>Xaitongmoin County</name><admin_leve>6</admin_leve><wikipedia>de:Xaitongmoin</wikipedia><localname>བཞད་མཐོང་སྨོན་རྫོང / 谢通门县 / Xaitongmoin</localname><boundary>administrative</boundary><id>CN.tibet.2744622</id></desc></path><path d="M351.339712919,470.909090909 L358.038277512,458.516746411 L355.023923445,451.483253589 L362.057416268,449.138755981 L359.71291866,441.435406699 L371.770334928,443.444976077 L366.411483254,461.531100478 L362.727272727,467.894736842 L359.377990431,473.588516746 L356.363636364,474.258373206 L351.339712919,470.909090909 Z" fill="#cee3f5" id="CN.tibet.2744876" stroke="#6e6e6e" stroke-width="0.4"><desc><name>Bainang County</name><admin_leve>6</admin_leve><wikipedia>de:Bainang</wikipedia><localname>པ་སྣམ་རྫོང་ / 白朗县 / Bainang</localname><boundary>administrative</boundary><id>CN.tibet.2744876</id></desc></path><path d="M315.167464115,466.555023923 L319.85645933,467.559808612 L332.918660287,459.5215311 L336.937799043,462.200956938 L336.937799043,473.923444976 L329.90430622,485.311004785 L318.516746411,485.645933014 L310.14354067,488.660287081 L300.43062201,489.330143541 L309.473684211,480.622009569 L306.459330144,473.253588517 L315.167464115,466.555023923 Z" fill="#cee3f5" id="CN.tibet.2744877" stroke="#6e6e6e" stroke-width="0.4"><desc><name>Dinggyê County</name><admin_leve>6</admin_leve><wikipedia>de:Dinggyê</wikipedia><localname>གདིང་སྐྱེས་རྫོང་ / 定结县 / Dinggyê</localname><boundary>administrative</boundary><id>CN.tibet.2744877</id></desc></path><path d="M329.90430622,485.311004785 L336.937799043,473.923444976 L336.937799043,462.200956938 L348.995215311,460.19138756 L353.349282297,465.215311005 L351.339712919,470.909090909 L356.363636364,474.258373206 L352.679425837,483.971291866 L345.980861244,480.28708134 L329.90430622,485.311004785 Z" fill="#cee3f5" id="CN.tibet.2744878" stroke="#6e6e6e" stroke-width="0.4"><desc><name>Gamba County</name><admin_leve>6</admin_leve><wikipedia>de:Gamba (Kreis)</wikipedia><localname>གམ་པ་རྫོང་ / 岗巴县 / Gamba</localname><boundary>administrative</boundary><id>CN.tibet.2744878</id></desc></path><path d="M362.727272727,467.894736842 L366.411483254,461.531100478 L371.770334928,443.444976077 L380.14354067,442.775119617 L386.172248804,450.14354067 L394.210526316,447.799043062 L398.229665072,451.148325359 L395.215311005,461.531100478 L391.196172249,457.846889952 L380.4784689,455.837320574 L370.09569378,459.85645933 L362.727272727,467.894736842 Z" fill="#cee3f5" id="CN.tibet.2744879" stroke="#6e6e6e" stroke-width="0.4"><desc><admin_leve>6</admin_leve><localname>རྒྱལ་རྩེ་རྫོང་ / 江孜县 / Gyantse</localname><boundary>administrative</boundary><id>CN.tibet.2744879</id><name>Gyantse County</name></desc></path><path d="M204.641148325,458.516746411 L219.043062201,443.444976077 L228.086124402,439.425837321 L259.56937799,444.449760766 L262.248803828,448.803827751 L254.545454545,454.162679426 L243.157894737,454.162679426 L238.803827751,462.535885167 L246.172248804,471.244019139 L231.770334928,474.258373206 L226.746411483,472.248803828 L229.425837321,464.880382775 L212.679425837,462.535885167 L204.641148325,458.516746411 Z" fill="#cee3f5" id="CN.tibet.2744880" stroke="#6e6e6e" stroke-width="0.4"><desc><name>Gyirong County</name><admin_leve>6</admin_leve><wikipedia>de:Gyirong</wikipedia><localname>སྐྱིད་གྲོང་རྫོང་ / 吉隆县 / Gyirong</localname><boundary>administrative</boundary><id>CN.tibet.2744880</id></desc></path><path d="M362.727272727,467.894736842 L370.09569378,459.85645933 L380.4784689,455.837320574 L391.196172249,457.846889952 L395.215311005,461.531100478 L394.880382775,470.574162679 L398.229665072,477.942583732 L387.177033493,476.267942584 L375.454545455,480.956937799 L359.377990431,473.588516746 L362.727272727,467.894736842 Z" fill="#cee3f5" id="CN.tibet.2744881" stroke="#6e6e6e" stroke-width="0.4"><desc><admin_leve>6</admin_leve><localname>ཁང་དམར་རྫོང་ / 康马县 / Kangmar</localname><boundary>administrative</boundary><id>CN.tibet.2744881</id><name>Kangmar County</name></desc></path><path d="M296.746411483,451.148325359 L306.459330144,448.133971292 L318.516746411,430.38277512 L335.598086124,439.090909091 L335.933014354,445.119617225 L330.574162679,451.483253589 L321.531100478,448.803827751 L312.822966507,457.846889952 L303.779904306,451.148325359 L296.746411483,451.148325359 Z" fill="#cee3f5" id="CN.tibet.2744882" stroke="#6e6e6e" stroke-width="0.4"><desc><name>Lhatse</name><admin_leve>6</admin_leve><wikipedia>de:Lhazê</wikipedia><localname>ལྷ་རྩེ་རྫོང་ / 拉孜县 / Lhatse</localname><boundary>administrative</boundary><id>CN.tibet.2744882</id></desc></path><path d="M262.248803828,448.803827751 L269.61722488,445.454545455 L275.311004785,447.799043062 L277.655502392,450.4784689 L274.976076555,460.861244019 L267.607655502,463.205741627 L264.258373206,480.956937799 L256.889952153,486.985645933 L246.172248804,471.244019139 L238.803827751,462.535885167 L243.157894737,454.162679426 L254.545454545,454.162679426 L262.248803828,448.803827751 Z" fill="#cee3f5" id="CN.tibet.2744883" stroke="#6e6e6e" stroke-width="0.4"><desc><name>Nyalam County</name><admin_leve>6</admin_leve><wikipedia>de:Nyalam</wikipedia><localname>གཉའ་ལམ་རྫོང་ / 聂拉木县 / Nyalam</localname><boundary>administrative</boundary><id>CN.tibet.2744883</id></desc></path><path d="M312.822966507,457.846889952 L321.531100478,448.803827751 L330.574162679,451.483253589 L335.933014354,445.119617225 L335.598086124,439.090909091 L339.95215311,438.755980861 L345.311004785,450.14354067 L355.023923445,451.483253589 L358.038277512,458.516746411 L351.339712919,470.909090909 L353.349282297,465.215311005 L348.995215311,460.19138756 L336.937799043,462.200956938 L332.918660287,459.5215311 L319.85645933,467.559808612 L315.167464115,466.555023923 L312.822966507,457.846889952 Z" fill="#cee3f5" id="CN.tibet.2744884" stroke="#6e6e6e" stroke-width="0.4"><desc><name>Sa'gya County</name><admin_leve>6</admin_leve><wikipedia>de:Sa'gya</wikipedia><localname>ས་སྐྱ་རྫོང་ / 萨迦县 / Sa'gya</localname><boundary>administrative</boundary><id>CN.tibet.2744884</id></desc></path><path d="M195.598086124,442.105263158 L203.971291866,434.066985646 L202.296650718,429.377990431 L209.66507177,425.693779904 L213.349282297,416.315789474 L229.090909091,426.698564593 L239.80861244,422.679425837 L245.837320574,430.04784689 L256.555023923,436.746411483 L268.277511962,437.416267943 L269.61722488,445.454545455 L262.248803828,448.803827751 L259.56937799,444.449760766 L228.086124402,439.425837321 L219.043062201,443.444976077 L204.641148325,458.516746411 L196.937799043,453.827751196 L195.598086124,442.105263158 Z" fill="#cee3f5" id="CN.tibet.2744885" stroke="#6e6e6e" stroke-width="0.4"><desc><name>Saga County</name><admin_leve>6</admin_leve><wikipedia>de:Saga (Xigazê)</wikipedia><localname>ས་དགའ་རྫོང་ / 萨嘎县 / Saga</localname><boundary>administrative</boundary><id>CN.tibet.2744885</id></desc></path><path d="M339.95215311,438.755980861 L348.660287081,433.397129187 L351.004784689,428.373205742 L355.358851675,433.062200957 L365.741626794,437.416267943 L380.813397129,438.421052632 L380.14354067,442.775119617 L371.770334928,443.444976077 L359.71291866,441.435406699 L362.057416268,449.138755981 L355.023923445,451.483253589 L345.311004785,450.14354067 L339.95215311,438.755980861 Z" fill="#cee3f5" id="CN.tibet.2744886" stroke="#6e6e6e" stroke-width="0.4"><desc><name>Samzhubzê District</name><admin_leve>6</admin_leve><wikipedia>zh:桑珠孜区</wikipedia><localname>བསམ་འགྲུབ་རྩེ་ཆུས། 桑珠孜区 Samzhubzê</localname><boundary>administrative</boundary><id>CN.tibet.2744886</id></desc></path><path d="M264.258373206,480.956937799 L267.607655502,463.205741627 L274.976076555,460.861244019 L277.655502392,450.4784689 L275.311004785,447.799043062 L293.062200957,446.124401914 L296.746411483,451.148325359 L303.779904306,451.148325359 L312.822966507,457.846889952 L315.167464115,466.555023923 L306.459330144,473.253588517 L309.473684211,480.622009569 L300.43062201,489.330143541 L279.330143541,480.622009569 L271.626794258,487.320574163 L264.258373206,480.956937799 Z" fill="#cee3f5" id="CN.tibet.2744887" stroke="#6e6e6e" stroke-width="0.4"><desc><name>Tingri County</name><admin_leve>6</admin_leve><wikipedia>de:Tingri</wikipedia><localname>དིང་རི་རྫོང་ / 定日县 / Tingri</localname><boundary>administrative</boundary><id>CN.tibet.2744887</id></desc></path><path d="M352.679425837,483.971291866 L356.363636364,474.258373206 L359.377990431,473.588516746 L375.454545455,480.956937799 L362.392344498,497.033492823 L351.004784689,502.392344498 L354.354066986,488.995215311 L352.679425837,483.971291866 Z" fill="#cee3f5" id="CN.tibet.2744888" stroke="#6e6e6e" stroke-width="0.4"><desc><name>Yadong County</name><admin_leve>6</admin_leve><wikipedia>de:Yadong</wikipedia><localname>གྲོ་མོ་རྫོང / 亚东县 / Yadong</localname><boundary>administrative</boundary><id>CN.tibet.2744888</id></desc></path><path d="M126.267942584,409.61722488 L131.291866029,401.913875598 L141.674641148,404.258373206 L143.014354067,396.555023923 L147.703349282,389.5215311 L157.416267943,399.56937799 L161.435406699,392.535885167 L153.397129187,384.832535885 L152.057416268,377.129186603 L154.066985646,366.411483254 L160.43062201,359.71291866 L171.483253589,362.727272727 L188.229665072,362.727272727 L194.258373206,359.71291866 L211.674641148,360.38277512 L203.636363636,366.746411483 L215.358851675,385.167464115 L206.650717703,393.205741627 L209.330143541,403.923444976 L214.354066986,410.622009569 L213.349282297,416.315789474 L209.66507177,425.693779904 L202.296650718,429.377990431 L203.971291866,434.066985646 L195.598086124,442.105263158 L185.885167464,439.090909091 L176.842105263,444.784688995 L162.775119617,429.71291866 L147.703349282,425.693779904 L139.66507177,417.320574163 L127.272727273,413.971291866 L126.267942584,409.61722488 Z" fill="#cee3f5" id="CN.tibet.2744889" stroke="#6e6e6e" stroke-width="0.4"><desc><name>Zhongba County</name><admin_leve>6</admin_leve><wikipedia>de:Zhongba</wikipedia><localname>འབྲོང་པ་རྫོང་ / 仲巴县 / Zhongba</localname><boundary>administrative</boundary><id>CN.tibet.2744889</id></desc></path><path d="M368.086124402,205.980861244 L374.114832536,213.014354067 L384.162679426,218.373205742 L381.483253589,233.444976077 L375.119617225,235.119617225 L377.129186603,249.85645933 L385.837320574,250.861244019 L385.837320574,275.645933014 L383.157894737,284.019138756 L389.85645933,288.038277512 L392.200956938,296.076555024 L405.598086124,306.124401914 L415.645933014,310.4784689 L434.736842105,310.14354067 L445.454545455,313.827751196 L458.181818182,321.196172249 L478.277511962,324.210526316 L470.909090909,333.923444976 L468.899521531,343.301435407 L454.832535885,342.966507177 L453.827751196,346.650717703 L460.19138756,353.684210526 L458.181818182,359.71291866 L445.789473684,357.703349282 L430.717703349,367.081339713 L425.358851675,367.416267943 L425.023923445,362.057416268 L418.325358852,352.679425837 L412.631578947,348.995215311 L411.961722488,340.956937799 L404.258373206,341.291866029 L401.578947368,327.894736842 L389.85645933,317.177033493 L393.540669856,307.129186603 L389.186602871,295.406698565 L380.14354067,293.732057416 L373.444976077,287.368421053 L370.09569378,276.650717703 L361.722488038,274.641148325 L356.698564593,268.612440191 L353.349282297,259.90430622 L348.325358852,256.555023923 L354.019138756,246.507177033 L352.344497608,236.459330144 L365.406698565,230.43062201 L369.76076555,216.028708134 L365.071770335,210.0 L368.086124402,205.980861244 Z" fill="#cee3f5" id="CN.tibet.2745047" stroke="#6e6e6e" stroke-width="0.4"><desc><name>Amdo County</name><admin_leve>6</admin_leve><wikipedia>de:Amdo (Kreis)</wikipedia><localname>ཨ་མདོ་རྫོང་ / 安多县 / Amdo</localname><boundary>administrative</boundary><id>CN.tibet.2745047</id></desc></path><path d="M509.425837321,331.913875598 L517.799043062,329.234449761 L522.153110048,332.918660287 L531.866028708,334.258373206 L548.612440191,327.224880383 L552.631578947,330.909090909 L548.947368421,343.636363636 L550.28708134,355.023923445 L544.593301435,357.033492823 L529.186602871,354.019138756 L516.794258373,348.995215311 L510.43062201,351.674641148 L501.387559809,350.669856459 L495.023923445,345.980861244 L506.076555024,340.622009569 L509.425837321,331.913875598 Z" fill="#cee3f5" id="CN.tibet.2745048" stroke="#6e6e6e" stroke-width="0.4"><desc><name>Baqên County</name><admin_leve>6</admin_leve><wikipedia>de:Baqên</wikipedia><localname>སྦྲ་ཆེན་རྫོང་ / 巴青县 / Baqên</localname><boundary>administrative</boundary><id>CN.tibet.2745048</id></desc></path><path d="M495.023923445,345.980861244 L501.387559809,350.669856459 L510.43062201,351.674641148 L521.148325359,363.062200957 L537.224880383,372.775119617 L534.210526316,379.138755981 L538.899521531,385.502392344 L532.200956938,387.846889952 L515.454545455,385.167464115 L499.71291866,378.133971292 L493.014354067,372.775119617 L492.009569378,359.043062201 L485.645933014,353.349282297 L477.942583732,353.349282297 L485.311004785,345.311004785 L495.023923445,345.980861244 Z" fill="#cee3f5" id="CN.tibet.2745049" stroke="#6e6e6e" stroke-width="0.4"><desc><name>Biru County</name><admin_leve>6</admin_leve><wikipedia>de:Biru</wikipedia><localname>འབྲི་རུ་རྫོང་ / 比如县 / Biru</localname><boundary>administrative</boundary><id>CN.tibet.2745049</id></desc></path><path d="M456.172248804,398.899521531 L468.229665072,396.889952153 L468.899521531,385.837320574 L486.650717703,378.133971292 L493.014354067,372.775119617 L499.71291866,378.133971292 L515.454545455,385.167464115 L516.124401914,390.19138756 L532.200956938,399.90430622 L527.511961722,405.933014354 L512.105263158,406.602870813 L502.727272727,399.56937799 L497.703349282,402.583732057 L490.0,395.885167464 L480.28708134,408.947368421 L456.842105263,407.942583732 L453.157894737,401.913875598 L456.172248804,398.899521531 Z" fill="#cee3f5" id="CN.tibet.2745050" stroke="#6e6e6e" stroke-width="0.4"><desc><name>Lhari County</name><admin_leve>6</admin_leve><wikipedia>de:Lhari</wikipedia><localname>ལྷ་རི་རྫོང་ / 嘉黎县 / Lhari</localname><boundary>administrative</boundary><id>CN.tibet.2745050</id></desc></path><path d="M425.358851675,367.416267943 L430.717703349,367.081339713 L445.789473684,357.703349282 L458.181818182,359.71291866 L475.263157895,357.703349282 L477.942583732,353.349282297 L485.645933014,353.349282297 L492.009569378,359.043062201 L493.014354067,372.775119617 L486.650717703,378.133971292 L468.899521531,385.837320574 L468.229665072,396.889952153 L456.172248804,398.899521531 L450.813397129,391.866028708 L440.09569378,392.535885167 L435.071770335,381.148325359 L425.358851675,367.416267943 Z" fill="#cee3f5" id="CN.tibet.2745051" stroke="#6e6e6e" stroke-width="0.4"><desc><name>Nagqu County</name><admin_leve>6</admin_leve><wikipedia>de:Nagqu (Kreis)</wikipedia><localname>ནག་ཆུ་རྫོང་ / 那曲县 / Nagqu</localname><boundary>administrative</boundary><id>CN.tibet.2745051</id></desc></path><path d="M478.277511962,324.210526316 L482.631578947,322.870813397 L495.358851675,327.559808612 L501.387559809,326.555023923 L509.425837321,331.913875598 L506.076555024,340.622009569 L495.023923445,345.980861244 L485.311004785,345.311004785 L477.942583732,353.349282297 L475.263157895,357.703349282 L458.181818182,359.71291866 L460.19138756,353.684210526 L453.827751196,346.650717703 L454.832535885,342.966507177 L468.899521531,343.301435407 L470.909090909,333.923444976 L478.277511962,324.210526316 Z" fill="#cee3f5" id="CN.tibet.2745052" stroke="#6e6e6e" stroke-width="0.4"><desc><name>Nyainrong County</name><admin_leve>6</admin_leve><wikipedia>de:Nyainrong</wikipedia><localname>གཉན་རོང་རྫོང་ / 聂荣县 / Nyainrong</localname><boundary>administrative</boundary><id>CN.tibet.2745052</id></desc></path><path d="M266.602870813,228.421052632 L278.995215311,230.765550239 L283.349282297,240.14354067 L292.057416268,245.502392344 L289.71291866,256.889952153 L296.746411483,263.253588517 L292.392344498,276.985645933 L299.425837321,308.468899522 L295.741626794,314.497607656 L297.751196172,326.889952153 L305.119617225,338.612440191 L303.444976077,351.004784689 L309.138755981,359.043062201 L320.526315789,361.052631579 L323.205741627,370.43062201 L327.894736842,376.124401914 L325.550239234,385.837320574 L317.177033493,395.215311005 L323.205741627,403.588516746 L315.837320574,405.263157895 L307.799043062,401.913875598 L306.459330144,397.894736842 L296.076555024,396.555023923 L294.736842105,385.167464115 L281.674641148,388.516746411 L286.028708134,397.224880383 L278.325358852,401.913875598 L271.626794258,397.559808612 L267.272727273,384.162679426 L263.253588517,382.488038278 L262.583732057,376.459330144 L243.492822967,370.43062201 L236.459330144,362.727272727 L227.081339713,359.71291866 L228.086124402,350.33492823 L224.736842105,345.311004785 L232.105263158,331.913875598 L259.234449761,321.531100478 L258.564593301,318.181818182 L267.272727273,300.43062201 L262.583732057,291.052631579 L265.933014354,285.023923445 L261.244019139,274.306220096 L262.248803828,267.607655502 L255.215311005,264.258373206 L264.593301435,242.488038278 L266.602870813,228.421052632 M260.909090909,383.827751196 L256.555023923,391.196172249 L250.526315789,389.85645933 L250.861244019,389.5215311 L248.851674641,384.162679426 L251.866028708,380.14354067 L260.909090909,383.827751196 Z" fill="#cee3f5" id="CN.tibet.2745053" stroke="#6e6e6e" stroke-width="0.4"><desc><name>Nyima County</name><admin_leve>6</admin_leve><wikipedia>de:Nyima</wikipedia><localname>ཉི་མ་རྫོང་ / 尼玛县 / Nyima</localname><boundary>administrative</boundary><id>CN.tibet.2745053</id></desc></path><path d="M510.43062201,351.674641148 L516.794258373,348.995215311 L529.186602871,354.019138756 L544.593301435,357.033492823 L550.28708134,355.023923445 L553.301435407,363.732057416 L560.669856459,372.775119617 L558.660287081,377.464114833 L543.253588517,370.765550239 L537.224880383,372.775119617 L521.148325359,363.062200957 L510.43062201,351.674641148 Z" fill="#cee3f5" id="CN.tibet.2745054" stroke="#6e6e6e" stroke-width="0.4"><desc><name>Sog County</name><admin_leve>6</admin_leve><wikipedia>de:Sog (Nagqu)</wikipedia><localname>སོག་རྫོང་ / 索县 / Sog</localname><boundary>administrative</boundary><id>CN.tibet.2745054</id></desc></path><path d="M320.526315789,361.052631579 L330.909090909,352.344497608 L339.95215311,350.0 L350.669856459,356.698564593 L357.033492823,355.023923445 L357.368421053,342.296650718 L363.062200957,340.28708134 L370.09569378,346.315789474 L368.421052632,350.669856459 L358.708133971,349.330143541 L359.377990431,359.377990431 L367.751196172,362.057416268 L370.09569378,370.765550239 L366.411483254,378.133971292 L371.770334928,381.483253589 L377.799043062,378.803827751 L384.832535885,388.181818182 L372.105263158,407.942583732 L356.363636364,409.61722488 L331.244019139,408.947368421 L323.205741627,403.588516746 L317.177033493,395.215311005 L325.550239234,385.837320574 L327.894736842,376.124401914 L323.205741627,370.43062201 L320.526315789,361.052631579 Z" fill="#cee3f5" id="CN.tibet.2745055" stroke="#6e6e6e" stroke-width="0.4"><desc><name>Xainza County</name><admin_leve>6</admin_leve><wikipedia>de:Xainza</wikipedia><localname>ཤན་རྩ་རྫོང་ / 申扎县 / Xainza</localname><boundary>administrative</boundary><id>CN.tibet.2745055</id></desc></path><path d="M426.363636364,424.019138756 L432.727272727,424.688995215 L435.406698565,432.392344498 L433.397129187,432.727272727 L431.722488038,433.062200957 L426.363636364,424.019138756 Z" fill="#cee3f5" id="CN.tibet.2745212" stroke="#6e6e6e" stroke-width="0.4"><desc><name>Chengguan District</name><admin_leve>6</admin_leve><wikipedia>de:Chengguan (Lhasa)</wikipedia><localname>ཁྲིན་ཀོན་ཆུས་ / 城关区 / Chengguan</localname><boundary>administrative</boundary><id>CN.tibet.2745212</id></desc></path><path d="M432.727272727,424.688995215 L440.765550239,424.019138756 L444.449760766,416.650717703 L448.803827751,418.995215311 L445.789473684,430.717703349 L435.406698565,432.392344498 L432.727272727,424.688995215 Z" fill="#cee3f5" id="CN.tibet.2745213" stroke="#6e6e6e" stroke-width="0.4"><desc><name>Dagzê County</name><admin_leve>6</admin_leve><wikipedia>de:Dagzê</wikipedia><localname>སྟག་རྩེ་རྫོང་ / 达孜县 / Dagzê</localname><boundary>administrative</boundary><id>CN.tibet.2745213</id></desc></path><path d="M394.210526316,417.990430622 L400.574162679,406.937799043 L413.971291866,400.574162679 L411.961722488,397.559808612 L417.655502392,382.153110048 L428.708133971,386.507177033 L435.071770335,381.148325359 L440.09569378,392.535885167 L450.813397129,391.866028708 L456.172248804,398.899521531 L453.157894737,401.913875598 L439.76076555,401.578947368 L430.38277512,405.598086124 L425.693779904,412.296650718 L414.306220096,412.296650718 L407.942583732,425.023923445 L408.612440191,431.052631579 L407.272727273,432.727272727 L394.210526316,417.990430622 Z" fill="#cee3f5" id="CN.tibet.2745214" stroke="#6e6e6e" stroke-width="0.4"><desc><name>Damxung County</name><admin_leve>6</admin_leve><wikipedia>de:Damxung</wikipedia><localname>འདམ་གཞུང་རྫོང / 当雄县 / Damxung</localname><boundary>administrative</boundary><id>CN.tibet.2745214</id></desc></path><path d="M425.693779904,412.296650718 L420.33492823,416.315789474 L421.004784689,423.684210526 L426.363636364,424.019138756 L431.722488038,433.062200957 L427.703349282,435.406698565 L422.679425837,430.04784689 L408.612440191,431.052631579 L407.942583732,425.023923445 L414.306220096,412.296650718 L425.693779904,412.296650718 Z" fill="#cee3f5" id="CN.tibet.2745215" stroke="#6e6e6e" stroke-width="0.4"><desc><name>Doilungdêqên District</name><admin_leve>6</admin_leve><wikipedia>de:Doilungdêqên</wikipedia><localname>སྟོད་ལུང་བདེ་ཆེན་རྫོང་ / 堆龙德庆区 / Doilungdêqên</localname><boundary>administrative</boundary><id>CN.tibet.2745215</id></desc></path><path d="M425.693779904,412.296650718 L430.38277512,405.598086124 L439.76076555,401.578947368 L453.157894737,401.913875598 L456.842105263,407.942583732 L447.464114833,411.961722488 L444.449760766,416.650717703 L440.765550239,424.019138756 L432.727272727,424.688995215 L426.363636364,424.019138756 L421.004784689,423.684210526 L420.33492823,416.315789474 L425.693779904,412.296650718 Z" fill="#cee3f5" id="CN.tibet.2745216" stroke="#6e6e6e" stroke-width="0.4"><desc><name>Lhünzhub County</name><admin_leve>6</admin_leve><wikipedia>de:Lhünzhub</wikipedia><localname>ལྷུན་གྲུབ་རྫོང / 林周县 / Lhünzhub</localname><boundary>administrative</boundary><id>CN.tibet.2745216</id></desc></path><path d="M444.449760766,416.650717703 L447.464114833,411.961722488 L456.842105263,407.942583732 L480.28708134,408.947368421 L478.277511962,412.966507177 L467.894736842,418.660287081 L472.918660287,422.344497608 L472.583732057,429.043062201 L459.85645933,431.387559809 L447.129186603,432.392344498 L445.789473684,430.717703349 L448.803827751,418.995215311 L444.449760766,416.650717703 Z" fill="#cee3f5" id="CN.tibet.2745217" stroke="#6e6e6e" stroke-width="0.4"><desc><name>Maizhokunggar County</name><admin_leve>6</admin_leve><wikipedia>de:Maizhokunggar</wikipedia><localname>མལ་གྲོ་གུང་དཀར་རྫོང་ / 墨竹工卡县 / Maizhokunggar</localname><boundary>administrative</boundary><id>CN.tibet.2745217</id></desc></path><path d="M388.516746411,417.320574163 L394.210526316,417.990430622 L407.272727273,432.727272727 L404.258373206,440.09569378 L403.588516746,439.76076555 L390.19138756,438.755980861 L383.827751196,433.397129187 L388.181818182,425.358851675 L388.516746411,417.320574163 Z" fill="#cee3f5" id="CN.tibet.2745218" stroke="#6e6e6e" stroke-width="0.4"><desc><name>Nyêmo County</name><admin_leve>6</admin_leve><wikipedia>de:Nyêmo</wikipedia><localname>སྙེ་མོ་རྫོང་ / 尼木县 / Nyêmo</localname><boundary>administrative</boundary><id>CN.tibet.2745218</id></desc></path><path d="M404.258373206,440.09569378 L407.272727273,432.727272727 L408.612440191,431.052631579 L422.679425837,430.04784689 L427.703349282,435.406698565 L408.612440191,441.770334928 L404.258373206,440.09569378 Z" fill="#cee3f5" id="CN.tibet.2745219" stroke="#6e6e6e" stroke-width="0.4"><desc><name>Qüxü County</name><admin_leve>6</admin_leve><wikipedia>de:Qüxü</wikipedia><localname>ཆུ་ཤུར་རྫོང་ / 曲水县 / Qüxü</localname><boundary>administrative</boundary><id>CN.tibet.2745219</id></desc></path><path d="M515.454545455,385.167464115 L532.200956938,387.846889952 L538.899521531,385.502392344 L534.210526316,379.138755981 L537.224880383,372.775119617 L543.253588517,370.765550239 L558.660287081,377.464114833 L560.669856459,372.775119617 L570.04784689,377.129186603 L572.727272727,382.488038278 L569.71291866,390.526315789 L572.392344498,395.550239234 L561.339712919,397.559808612 L550.28708134,395.550239234 L547.607655502,397.894736842 L532.200956938,399.90430622 L516.124401914,390.19138756 L515.454545455,385.167464115 Z" fill="#cee3f5" id="CN.tibet.2745361" stroke="#6e6e6e" stroke-width="0.4"><desc><name>Banbar County</name><admin_leve>6</admin_leve><wikipedia>de:Banbar</wikipedia><localname>དཔལ་འབར་རྫོང / 边坝县 / Banbar</localname><boundary>administrative</boundary><id>CN.tibet.2745361</id></desc></path><path d="M370.09569378,346.315789474 L382.822966507,350.33492823 L396.220095694,350.33492823 L402.248803828,347.990430622 L404.258373206,341.291866029 L411.961722488,340.956937799 L412.631578947,348.995215311 L418.325358852,352.679425837 L425.023923445,362.057416268 L425.358851675,367.416267943 L435.071770335,381.148325359 L428.708133971,386.507177033 L417.655502392,382.153110048 L411.961722488,397.559808612 L413.971291866,400.574162679 L400.574162679,406.937799043 L394.210526316,417.990430622 L388.516746411,417.320574163 L385.837320574,411.626794258 L372.105263158,407.942583732 L384.832535885,388.181818182 L377.799043062,378.803827751 L371.770334928,381.483253589 L366.411483254,378.133971292 L370.09569378,370.765550239 L367.751196172,362.057416268 L359.377990431,359.377990431 L358.708133971,349.330143541 L368.421052632,350.669856459 L370.09569378,346.315789474 Z" fill="#cee3f5" id="CN.tibet.2747064" stroke="#6e6e6e" stroke-width="0.4"><desc><name>Baingoin County</name><admin_leve>6</admin_leve><wikipedia>de:Baingoin</wikipedia><localname>དཔལ་མགོན་རྫོང་ / 班戈县 / Baingoin</localname><boundary>administrative</boundary><id>CN.tibet.2747064</id></desc></path><path d="M259.234449761,218.373205742 L263.253588517,209.330143541 L269.95215311,206.650717703 L295.741626794,203.636363636 L302.775119617,199.61722488 L309.80861244,201.961722488 L340.28708134,197.607655502 L350.669856459,203.971291866 L356.028708134,201.626794258 L368.086124402,205.980861244 L365.071770335,210.0 L369.76076555,216.028708134 L365.406698565,230.43062201 L352.344497608,236.459330144 L354.019138756,246.507177033 L348.325358852,256.555023923 L353.349282297,259.90430622 L356.698564593,268.612440191 L361.722488038,274.641148325 L370.09569378,276.650717703 L373.444976077,287.368421053 L380.14354067,293.732057416 L389.186602871,295.406698565 L393.540669856,307.129186603 L389.85645933,317.177033493 L401.578947368,327.894736842 L404.258373206,341.291866029 L402.248803828,347.990430622 L396.220095694,350.33492823 L382.822966507,350.33492823 L370.09569378,346.315789474 L363.062200957,340.28708134 L357.368421053,342.296650718 L357.033492823,355.023923445 L350.669856459,356.698564593 L339.95215311,350.0 L330.909090909,352.344497608 L320.526315789,361.052631579 L309.138755981,359.043062201 L303.444976077,351.004784689 L305.119617225,338.612440191 L297.751196172,326.889952153 L295.741626794,314.497607656 L299.425837321,308.468899522 L292.392344498,276.985645933 L296.746411483,263.253588517 L289.71291866,256.889952153 L292.057416268,245.502392344 L283.349282297,240.14354067 L278.995215311,230.765550239 L266.602870813,228.421052632 L259.234449761,218.373205742 Z" fill="#cee3f5" id="CN.tibet.2747065" stroke="#6e6e6e" stroke-width="0.4"><desc><name>Shuanghu County</name><admin_leve>6</admin_leve><wikipedia>de:Shuanghu</wikipedia><localname>མཚོ་གཉིས་དོན་གཅོད་ཁྲུའུ་ / 双湖县 / Shuanghu</localname><boundary>administrative</boundary><id>CN.tibet.2747065</id></desc></path></svg>