<?xml version="1.0"?>
<svg xmlns="http://www.w3.org/2000/svg" version="1.2" baseProfile="tiny" width="800" height="325" viewBox="0 0 800 325" stroke-linecap="round" stroke-linejoin="round">
    <g id="hawaii">
        <path d="M 739.6277 266.1021 740.4839 267.0216 740.0356 268.0227 740.5669 268.3517 740.2127 268.9826 739.2491 268.9905 738.3457 268.8404 737.6881 268.9625 736.7495 269.157 735.6365 269.2715 734.9129 268.5678 735.3241 268.0692 736.0476 267.4709 736.9992 266.879 738.0297 266.3386 738.9195 266.0359 739.6277 266.1021 Z M 729.8914 256.6306 730.4249 257.1766 730.9798 257.8234 731.3379 258.3872 731.4146 258.8133 731.2042 259.3937 730.473 260.4697 728.9267 261.1336 727.671 261.4577 726.0219 261.537 725.3389 260.6189 725.1795 259.822 725.1362 259.1906 725.1279 258.393 725.0077 257.6659 724.4272 257.3418 723.0145 256.8144 722.5957 256.1696 722.8648 255.4567 723.6687 255.0713 725.0662 254.9085 728.385 255.3626 729.8914 256.6306 Z M 758.6543 259.2252 759.4066 260.6882 759.2319 262.0397 758.6056 263.1164 757.7696 263.3383 757.067 264.3057 756.1504 264.3131 754.3125 265.2031 753.0918 265.1771 752.4129 265.1097 751.7876 265.1497 750.0937 265.8842 749.0338 266.4204 748.4324 266.6738 747.613 266.4703 747.3013 266.4369 746.7366 266.2917 746.2965 266.4159 744.8634 266.4691 743.9178 265.6276 743.8127 265.2804 743.3683 264.8204 743.6578 264.5872 743.6711 263.9768 743.4085 261.7411 743.1381 261.125 743.1533 260.4348 742.9384 259.8726 742.7989 259.7637 742.5643 259.5514 742.2111 259.3536 741.6709 259.3695 741.1868 259.5769 741.0026 260.0473 740.5747 260.1187 740.0741 259.8479 739.5954 259.5175 738.8563 259.3946 738.1261 258.9556 737.6417 258.9994 737.1994 258.4338 736.391 257.6211 735.4447 256.4583 735.4031 255.7132 735.0675 255.3062 735.1949 254.6166 735.4117 253.6608 735.7188 252.8545 736.0711 252.3291 736.4998 252.2843 736.7877 251.9916 736.8056 251.7262 737.1133 251.5244 737.4261 251.5571 737.7965 251.5915 738.0826 251.517 738.1994 251.359 738.3995 251.3366 738.6824 251.5035 738.9615 251.8293 739.3003 251.8868 739.8352 252.1627 740.287 252.3307 740.4515 252.7634 740.8468 252.8766 740.9492 253.3276 740.9433 253.7301 741.4157 254.1344 741.7198 254.5662 741.9643 255.1025 742.3489 255.6936 742.9468 255.652 743.3256 255.2343 743.9784 255.2414 744.4843 255.1598 745.4754 255.1114 745.8542 255.0285 746.9434 254.2848 747.4784 254.1023 747.9968 254.0443 748.5773 254.0526 749.1344 254.1355 749.5864 254.3124 749.7302 254.3304 749.8463 254.3594 749.943 254.4299 750.0301 254.564 750.46 254.4313 751.0046 254.7575 751.1756 255.1521 751.3986 255.3427 751.6723 255.609 752.011 256.0127 752.6246 256.4041 753.0697 256.8118 753.1149 257.1072 753.5147 257.1409 753.6864 257.144 753.8057 256.9601 754.2526 257.2884 754.4408 257.744 754.6599 258.0148 755.8248 258.1717 756.9792 258.7013 758.6543 259.2252 Z M 733.2669 246.6379 733.6069 246.5769 733.8038 246.7132 733.7117 246.8718 733.9417 246.9811 734.4844 246.964 734.7375 247.1279 734.088 248.2428 733.043 249.2007 731.7588 249.8683 730.4816 250.3701 729.1712 250.6328 727.8469 250.5084 726.5273 250.2533 723.8941 249.5998 722.2819 249.0697 719.9737 249.2461 718.3787 249.3279 717.1795 249.4958 716.2149 249.4412 715.4643 249.4785 714.8008 249.2283 714.4151 248.7238 714.404 248.0893 714.6694 247.5558 715.0454 247.1438 715.6569 246.9241 716.2082 246.3214 716.362 245.6598 715.9407 245.1478 715.9161 244.9083 716.287 244.914 716.8277 245.0021 717.6265 244.9612 718.0516 245.0736 718.3307 245.4769 718.844 245.4768 722.0539 245.9331 723.7866 246.1743 725.0892 246.2343 725.3585 245.8538 725.3932 245.5354 725.5689 245.2728 725.9034 245.1989 726.3572 245.7634 726.5153 246.404 727.2805 246.6284 728.2381 246.8341 729.9491 246.7818 730.6971 246.6861 731.1735 246.5391 731.5242 246.4099 731.8137 246.4659 732.4344 246.426 732.9108 246.5684 733.2669 246.6379 Z"/>
        <path d="M 796.0935 301.1264 797.8939 301.8765 798.6179 302.4693 799 303.1796 798.8931 304.0919 798.4619 304.6241 796.9389 306.3625 795.4375 306.8915 793.2847 308.8642 791.8309 309.2604 791.7777 309.648 790.5564 309.9317 789.5231 310.6658 787.4844 311.2435 785.7887 311.7064 784.3584 311.368 783.5356 311.3462 782.7934 311.5724 782.0013 312.0434 780.94 312.7519 780.3132 313.4731 779.6161 313.5765 779.0898 313.809 778.3272 314.2698 777.8434 314.6182 776.1128 315.5471 775.6027 315.7116 774.1306 317.0524 773.8722 317.6045 773.9224 318.8391 773.2981 319.4793 772.2306 320.4778 771.6713 321.899 771.1806 322.4202 770.5598 322.8992 769.761 323.5781 769.4625 323.4069 769.4833 322.6687 768.7619 322.1185 767.3946 321.4303 765.7723 320.4915 764.9202 319.9393 763.4975 319.5799 762.8521 319.4012 762.6511 318.7821 762.4132 318.1584 761.9765 318.0292 761.697 317.1211 761.4321 315.6803 761.8243 313.9687 762.6007 309.037 762.5381 308.1737 762.0789 307.3862 761.6689 306.3139 761.1073 304.7002 760.8665 304.038 760.5312 303.6201 760.1936 302.9194 760.2757 302.1774 759.8794 301.4792 759.6848 300.6956 759.3168 299.7452 758.7282 298.9127 758.2098 298.5331 757.4804 297.6981 756.6681 295.5482 757.008 294.5872 757.3936 293.7841 758.1194 293.1745 758.8216 292.7211 759.1367 292.3838 759.322 291.7397 759.8002 291.3692 761.2254 290.8743 761.911 289.745 762.2497 289.3566 763.0127 288.071 763.7771 287.2569 764.3017 287.2427 764.5442 286.1809 764.6882 285.7348 764.4508 285.0798 763.8855 284.5652 762.7017 282.8523 762.2117 281.3608 762.1308 280.1643 762.1339 279.0561 762.7722 277.8558 763.222 277.4784 764.4488 277.4683 766.6592 277.9526 767.613 278.135 767.7955 278.3037 767.9116 278.558 767.9517 278.8884 768.507 279.7539 769.8088 280.2457 770.6655 280.7099 771.2592 281.3824 772.0791 281.7308 772.7638 282.241 773.5542 282.0553 774.7739 282.1278 776.0008 282.5778 778.3912 283.3536 781.3943 284.8301 785.376 287.2447 786.9748 288.2237 788.7478 289.9255 789.7232 291.1604 789.7484 292.4972 789.6919 294.2768 789.7833 295.6776 790.7303 295.6396 792.0535 295.0517 793.0258 295.7015 793.476 296.4132 793.3614 297.8723 793.8055 298.7744 794.3852 299.6171 796.0935 301.1264 Z"/>
        <path d="M 618.9616 218.4666 619.5696 218.2109 620.1461 218.2306 620.7891 218.4553 621.0788 219.0502 620.792 219.3586 620.3724 219.8519 620.1241 220.5843 620.3729 221.5035 619.9302 222.0912 619.3429 222.3375 618.835 222.6054 618.1944 222.7916 617.4361 223.2452 616.994 223.616 616.7296 224.1301 616.3366 225.1099 616.0916 225.8162 615.6485 225.941 615.2043 225.6341 614.827 225.5126 614.4 224.3165 614.4874 223.5416 614.8624 222.7393 616.1887 221.4624 617.2539 220.7006 618.6266 219.9591 618.8425 219.5057 618.9962 219.0948 618.9616 218.4666 Z M 646.5634 213.3438 646.8509 213.5 646.8578 213.869 646.7861 214.8181 646.4655 215.2262 645.9711 216.519 645.4791 216.7905 645.4285 217.7423 645.5308 218.3366 645.5654 218.9919 645.5281 219.625 645.4468 219.8993 644.9791 219.8976 644.5977 220.0744 644.8527 220.3274 644.9802 220.6244 644.7838 220.8509 644.3841 220.8241 643.8038 221.2798 643.5583 221.6878 643.2643 221.9368 642.7007 222.2759 642.6515 222.5256 642.2841 222.5698 642.0636 222.7508 641.9414 222.9325 640.426 222.4305 639.4971 222.3386 638.8057 222.359 637.5169 222.1083 637.028 222.0634 636.7349 221.8133 636.5882 221.8584 636.539 222.0856 636.2456 222.1534 636.0747 221.8811 635.6345 221.6997 635.2433 221.4045 634.9993 221.0866 634.853 220.7914 634.7063 220.5192 634.3147 220.4285 634.1684 220.1561 633.8258 219.9973 633.1495 219.8959 632.6265 219.7025 632.2105 219.4983 631.5496 219.385 630.9863 219.2037 630.6923 218.6365 630.5943 218.2961 630.3002 218.1601 630.0549 217.8198 630.0546 217.3432 630.1034 216.9574 630.1278 216.5262 630.0785 216.2311 630.4167 216.1125 631.3276 215.1416 631.8055 214.5593 631.8516 214.2284 631.8557 213.9312 631.9096 213.6921 632.1377 213.5953 632.2206 213.4958 632.4559 213.1234 633.2154 212.9195 634.0983 212.717 635.0771 212.1707 635.6895 211.6702 636.4747 211.311 636.7686 210.9683 637.2099 210.8084 637.5777 210.8088 637.8231 210.5592 638.1662 210.6277 638.4111 210.8324 638.5334 211.0598 638.803 211.0827 639.2441 211.2193 639.538 211.4014 639.832 211.3796 639.7345 211.129 639.8331 210.8793 640.4464 210.653 641.0832 210.7459 641.8441 210.7453 642.2356 210.9735 642.5548 210.9281 642.948 210.7012 643.2185 210.4743 643.6104 210.7021 644.1006 210.9298 644.6404 210.908 645.2903 211.2371 645.5454 211.75 645.9718 212.1633 646.2049 212.2066 646.3488 212.6621 646.4479 213.0015 646.5606 213.3424 646.5634 213.3438 Z"/>
        <path d="M 700.7287 240.4881 701.0914 241.018 701.8273 241.475 702.5368 241.8275 702.7553 242.0359 702.3573 242.4639 701.514 243.1823 701.1911 243.5201 700.822 243.6292 700.7024 243.4225 700.7308 243.1035 700.4392 242.8714 699.5303 243.0877 698.7927 243.1681 698.1788 243.4579 697.7344 243.7946 697.1959 243.8107 696.9526 243.6936 696.7847 243.395 696.52 243.027 695.4003 242.5808 694.841 242.3237 694.4801 241.8182 694.3372 241.4974 694.3403 241.178 694.0954 241.29 693.6505 241.695 693.9883 242.0631 692.5694 242.1613 692.5958 242.0021 692.7926 241.8904 692.5263 241.6826 691.9884 241.6995 691.968 241.3576 691.8734 241.0833 691.9493 240.8564 691.8541 240.6276 692.2228 240.4723 692.5666 240.3167 692.9359 240.1158 693.0844 239.82 692.6731 239.5202 692.3331 239.3804 692.0964 239.2371 691.9419 239.3761 691.8151 239.8077 691.5235 239.6681 691.2574 239.3684 691.0635 239.1606 691.084 239.6178 691.298 240.1438 691.1256 240.2558 690.3746 239.6554 690.0837 239.4242 690.3224 239.9743 690.8779 240.5263 691.2896 240.8494 691.6043 241.1032 691.4272 241.6252 690.8135 241.8693 690.0058 241.9975 688.7568 242.2583 688.1209 242.3203 687.5653 242.4716 687.4104 242.4108 687.257 242.2795 686.8532 242.0804 686.5486 240.9384 686.1925 240.024 685.7334 239.4972 685.4207 239.0389 684.7883 238.7374 684.6269 237.8256 684.4123 237.3456 683.8065 236.8622 683.4422 236.6314 683.0372 236.0361 683.0195 235.3311 682.9787 234.3525 682.7535 234.0479 681.2933 232.9033 681.5146 232.7914 682.7403 232.5746 684.1848 232.4966 685.1387 232.5507 685.7017 232.5332 686.129 232.4265 686.6561 232.5422 686.7732 232.1279 686.9321 231.9303 687.5479 231.5947 688.2625 231.0793 688.5342 230.8545 688.4859 230.6557 688.7292 230.2797 689.0498 229.6411 689.5682 229.2292 690.2783 228.6149 691.3586 228.3312 691.7999 228.358 692.0453 228.4956 692.2389 228.7025 692.4614 228.9845 693.0142 229.4167 693.0341 229.7813 693.3276 229.9204 693.3478 230.217 693.6385 230.5159 693.4806 231.1304 693.9174 231.7032 694.3781 232.118 694.5908 232.7124 694.9568 232.8984 695.052 233.1045 695.1452 233.4926 695.4035 233.4288 695.7459 233.5462 696.0028 233.8281 696.3251 234.3034 696.3298 234.8267 696.3271 235.0773 696.0559 235.0742 695.8809 235.2772 695.9477 235.8474 696.017 236.2126 696.1322 236.7834 696.4503 236.8782 696.8663 237.0427 697.1806 237.4337 697.444 237.8696 697.9586 238.0356 698.028 238.2869 698.371 238.4053 698.5954 238.1573 698.9205 237.7283 698.4087 237.4029 698.4628 237.0161 698.8333 236.861 699.6677 236.9623 700.0872 236.8535 700.1819 237.1054 699.6825 237.5769 699.583 238.192 699.6457 238.6721 700.2071 238.9986 700.6444 239.4148 700.7635 239.7098 700.6104 240.0986 700.7287 240.4881 Z M 556.6543 183.211 556.7054 183.0948 556.7165 182.9884 556.7594 182.9331 556.9073 182.9538 556.8907 183.0769 556.8299 183.1211 556.7455 183.1488 556.6543 183.211 Z M 463.013 164.8222 463.1913 165.1208 462.9135 165.0516 462.872 164.9853 462.9439 164.9148 463.013 164.8222 Z M 351.164 116.5218 350.9594 116.0573 351.0589 116.002 351.2054 116.1638 351.222 116.2965 351.1847 116.4126 351.164 116.5218 Z M 224.5838 90.2995 224.3626 91.0155 224.0322 90.8676 223.9783 90.435 224.5838 90.2995 Z M 148.4148 80.1645 148.488 80.3248 148.5668 80.4437 148.6124 80.5626 148.5862 80.7091 148.3926 80.5985 148.3678 80.4838 148.4079 80.3428 148.4148 80.1645 Z M 1.4751 1 1.5592 1.2952 1.4125 1.3937 1.2028 1.486 1.056 1.5168 1 1.4677 1.2167 1.363 1.3424 1.2276 1.4053 1.123 1.4751 1 Z"/>
    </g>
</svg>