<?xml version='1.0' encoding='utf-8'?>
<svg height="700" width="700" xmlns="http://www.w3.org/2000/svg"><path d="M375.143678161,350.0 L432.471264368,351.005747126 L434.482758621,365.086206897 L434.482758621,376.149425287 L406.32183908,375.143678161 L393.247126437,380.172413793 L376.149425287,379.166666667 L375.143678161,350.0 Z" fill="#cee3f5" id="US.MO.125" stroke="#6e6e6e" stroke-width="0.4"><desc><name>Maries County</name><stateAbbrev>MO</stateAbbrev><state>Missouri</state><fips>125</fips><incits>29125</incits><id>US.MO.125</id><population>9018</population></desc></path><path d="M177.011494253,539.08045977 L178.017241379,512.931034483 L179.022988506,493.82183908 L226.293103448,494.827586207 L230.316091954,505.890804598 L229.310344828,539.08045977 L177.011494253,539.08045977 Z" fill="#cee3f5" id="US.MO.009" stroke="#6e6e6e" stroke-width="0.4"><desc><name>Barry County</name><stateAbbrev>MO</stateAbbrev><state>Missouri</state><fips>009</fips><incits>29009</incits><id>US.MO.009</id><population>35572</population></desc></path><path d="M582.327586207,453.591954023 L590.373563218,453.591954023 L590.373563218,423.41954023 L619.540229885,423.41954023 L619.540229885,473.706896552 L609.482758621,480.747126437 L593.390804598,482.75862069 L582.327586207,477.729885057 L582.327586207,453.591954023 Z" fill="#cee3f5" id="US.MO.017" stroke="#6e6e6e" stroke-width="0.4"><desc><name>Bollinger County</name><stateAbbrev>MO</stateAbbrev><state>Missouri</state><fips>017</fips><incits>29017</incits><id>US.MO.017</id><population>12490</population></desc></path><path d="M121.695402299,167.959770115 L161.925287356,167.959770115 L163.936781609,194.109195402 L163.936781609,198.132183908 L122.701149425,198.132183908 L121.695402299,190.086206897 L121.695402299,167.959770115 Z" fill="#cee3f5" id="US.MO.063" stroke="#6e6e6e" stroke-width="0.4"><desc><name>DeKalb County</name><stateAbbrev>MO</stateAbbrev><state>Missouri</state><fips>063</fips><incits>29063</incits><id>US.MO.063</id><population>12840</population></desc></path><path d="M590.373563218,419.396551724 L593.390804598,416.379310345 L612.5,394.252873563 L621.551724138,391.235632184 L656.752873563,414.367816092 L655.747126437,427.442528736 L647.701149425,424.425287356 L619.540229885,423.41954023 L590.373563218,423.41954023 L590.373563218,419.396551724 Z" fill="#cee3f5" id="US.MO.157" stroke="#6e6e6e" stroke-width="0.4"><desc><name>Perry County</name><stateAbbrev>MO</stateAbbrev><state>Missouri</state><fips>157</fips><incits>29157</incits><id>US.MO.157</id><population>19072</population></desc></path><path d="M307.75862069,309.770114943 L330.890804598,309.770114943 L342.959770115,284.626436782 L354.022988506,303.735632184 L343.965517241,335.91954023 L329.885057471,335.91954023 L306.752873563,318.82183908 L307.75862069,309.770114943 Z" fill="#cee3f5" id="US.MO.135" stroke="#6e6e6e" stroke-width="0.4"><desc><name>Moniteau County</name><stateAbbrev>MO</stateAbbrev><state>Missouri</state><fips>135</fips><incits>29135</incits><id>US.MO.135</id><population>15748</population></desc></path><path d="M375.143678161,350.0 L375.143678161,345.977011494 L391.235632184,332.902298851 L394.252873563,321.83908046 L409.33908046,311.781609195 L432.471264368,307.75862069 L433.477011494,307.75862069 L432.471264368,351.005747126 L375.143678161,350.0 Z" fill="#cee3f5" id="US.MO.151" stroke="#6e6e6e" stroke-width="0.4"><desc><name>Osage County</name><stateAbbrev>MO</stateAbbrev><state>Missouri</state><fips>151</fips><incits>29151</incits><id>US.MO.151</id><population>13688</population></desc></path><path d="M363.074712644,240.373563218 L364.08045977,213.218390805 L364.08045977,213.218390805 L376.149425287,207.183908046 L411.350574713,207.183908046 L425.431034483,207.183908046 L425.431034483,240.373563218 L363.074712644,240.373563218 Z" fill="#cee3f5" id="US.MO.137" stroke="#6e6e6e" stroke-width="0.4"><desc><name>Monroe County</name><stateAbbrev>MO</stateAbbrev><state>Missouri</state><fips>137</fips><incits>29137</incits><id>US.MO.137</id><population>8774</population></desc></path><path d="M300.718390805,506.896551724 L300.718390805,478.735632184 L323.850574713,479.74137931 L369.109195402,479.74137931 L386.206896552,480.747126437 L383.189655172,508.908045977 L314.798850575,506.896551724 L300.718390805,506.896551724 Z" fill="#cee3f5" id="US.MO.067" stroke="#6e6e6e" stroke-width="0.4"><desc><name>Douglas County</name><stateAbbrev>MO</stateAbbrev><state>Missouri</state><fips>067</fips><incits>29067</incits><id>US.MO.067</id><population>13515</population></desc></path><path d="M304.74137931,203.16091954 L306.752873563,167.959770115 L359.051724138,166.954022989 L365.086206897,176.005747126 L364.08045977,213.218390805 L364.08045977,213.218390805 L321.83908046,212.212643678 L322.844827586,203.16091954 L304.74137931,203.16091954 Z" fill="#cee3f5" id="US.MO.121" stroke="#6e6e6e" stroke-width="0.4"><desc><name>Macon County</name><stateAbbrev>MO</stateAbbrev><state>Missouri</state><fips>121</fips><incits>29121</incits><id>US.MO.121</id><population>15544</population></desc></path><path d="M562.212643678,377.155172414 L579.310344828,369.109195402 L605.459770115,385.201149425 L612.5,394.252873563 L593.390804598,416.379310345 L584.33908046,416.379310345 L557.183908046,394.252873563 L571.264367816,383.189655172 L562.212643678,377.155172414 Z" fill="#cee3f5" id="US.MO.186" stroke="#6e6e6e" stroke-width="0.4"><desc><name>Ste. Genevieve County</name><stateAbbrev>MO</stateAbbrev><state>Missouri</state><fips>186</fips><incits>29186</incits><id>US.MO.186</id><population>17778</population></desc></path><path d="M461.637931034,307.75862069 L476.724137931,315.804597701 L493.82183908,317.816091954 L503.879310345,323.850574713 L509.913793103,324.856321839 L529.022988506,313.793103448 L528.017241379,330.890804598 L523.994252874,360.057471264 L490.804597701,360.057471264 L461.637931034,359.051724138 L461.637931034,307.75862069 Z" fill="#cee3f5" id="US.MO.071" stroke="#6e6e6e" stroke-width="0.4"><desc><name>Franklin County</name><stateAbbrev>MO</stateAbbrev><state>Missouri</state><fips>071</fips><incits>29071</incits><id>US.MO.071</id><population>101816</population></desc></path><path d="M322.844827586,358.045977011 L322.844827586,344.971264368 L329.885057471,335.91954023 L343.965517241,335.91954023 L353.017241379,344.971264368 L375.143678161,345.977011494 L375.143678161,350.0 L376.149425287,379.166666667 L353.017241379,379.166666667 L340.948275862,379.166666667 L322.844827586,358.045977011 Z" fill="#cee3f5" id="US.MO.131" stroke="#6e6e6e" stroke-width="0.4"><desc><name>Miller County</name><stateAbbrev>MO</stateAbbrev><state>Missouri</state><fips>131</fips><incits>29131</incits><id>US.MO.131</id><population>25092</population></desc></path><path d="M384.195402299,269.540229885 L434.482758621,270.545977011 L432.471264368,307.75862069 L409.33908046,311.781609195 L394.252873563,321.83908046 L383.189655172,322.844827586 L372.126436782,313.793103448 L380.172413793,295.689655172 L378.16091954,285.632183908 L384.195402299,269.540229885 Z" fill="#cee3f5" id="US.MO.027" stroke="#6e6e6e" stroke-width="0.4"><desc><name>Callaway County</name><stateAbbrev>MO</stateAbbrev><state>Missouri</state><fips>027</fips><incits>29027</incits><id>US.MO.027</id><population>44359</population></desc></path><path d="M69.3965517241,220.25862069 L122.701149425,221.264367816 L121.695402299,228.304597701 L122.701149425,259.482758621 L108.620689655,258.477011494 L91.5229885057,245.402298851 L81.4655172414,230.316091954 L69.3965517241,220.25862069 Z" fill="#cee3f5" id="US.MO.165" stroke="#6e6e6e" stroke-width="0.4"><desc><name>Platte County</name><stateAbbrev>MO</stateAbbrev><state>Missouri</state><fips>165</fips><incits>29165</incits><id>US.MO.165</id><population>93310</population></desc></path><path d="M230.316091954,399.281609195 L236.350574713,390.229885057 L237.356321839,374.137931034 L283.620689655,375.143678161 L282.614942529,391.235632184 L271.551724138,391.235632184 L270.545977011,402.298850575 L230.316091954,399.281609195 Z" fill="#cee3f5" id="US.MO.085" stroke="#6e6e6e" stroke-width="0.4"><desc><name>Hickory County</name><stateAbbrev>MO</stateAbbrev><state>Missouri</state><fips>085</fips><incits>29085</incits><id>US.MO.085</id><population>9305</population></desc></path><path d="M179.022988506,334.913793103 L179.022988506,321.83908046 L236.350574713,322.844827586 L236.350574713,327.873563218 L235.344827586,359.051724138 L180.028735632,359.051724138 L179.022988506,334.913793103 Z" fill="#cee3f5" id="US.MO.083" stroke="#6e6e6e" stroke-width="0.4"><desc><name>Henry County</name><stateAbbrev>MO</stateAbbrev><state>Missouri</state><fips>083</fips><incits>29083</incits><id>US.MO.083</id><population>22059</population></desc></path><path d="M476.724137931,498.850574713 L477.729885057,477.729885057 L498.850574713,476.724137931 L503.879310345,480.747126437 L523.994252874,481.752873563 L534.051724138,493.82183908 L536.063218391,506.896551724 L488.793103448,504.885057471 L476.724137931,498.850574713 Z" fill="#cee3f5" id="US.MO.035" stroke="#6e6e6e" stroke-width="0.4"><desc><name>Carter County</name><stateAbbrev>MO</stateAbbrev><state>Missouri</state><fips>035</fips><incits>29035</incits><id>US.MO.035</id><population>6291</population></desc></path><path d="M120.689655172,418.390804598 L178.017241379,419.396551724 L177.011494253,425.431034483 L177.011494253,449.568965517 L120.689655172,448.563218391 L120.689655172,418.390804598 Z" fill="#cee3f5" id="US.MO.011" stroke="#6e6e6e" stroke-width="0.4"><desc><name>Barton County</name><stateAbbrev>MO</stateAbbrev><state>Missouri</state><fips>011</fips><incits>29011</incits><id>US.MO.011</id><population>12275</population></desc></path><path d="M528.017241379,330.890804598 L529.022988506,313.793103448 L549.137931034,309.770114943 L558.189655172,295.689655172 L571.264367816,287.643678161 L593.390804598,296.695402299 L588.362068966,300.718390805 L579.310344828,305.747126437 L572.270114943,318.82183908 L578.304597701,325.862068966 L569.252873563,340.948275862 L562.212643678,328.879310345 L528.017241379,330.890804598 Z" fill="#cee3f5" id="US.MO.189" stroke="#6e6e6e" stroke-width="0.4"><desc><name>St. Louis County</name><stateAbbrev>MO</stateAbbrev><state>Missouri</state><fips>189</fips><incits>29189</incits><id>US.MO.189</id><population>1001444</population></desc></path><path d="M238.362068966,282.614942529 L240.373563218,246.408045977 L247.413793103,248.41954023 L278.591954023,236.350574713 L305.747126437,252.442528736 L296.695402299,265.517241379 L297.701149425,269.540229885 L284.626436782,283.620689655 L238.362068966,282.614942529 Z" fill="#cee3f5" id="US.MO.195" stroke="#6e6e6e" stroke-width="0.4"><desc><name>Saline County</name><stateAbbrev>MO</stateAbbrev><state>Missouri</state><fips>195</fips><incits>29195</incits><id>US.MO.195</id><population>23252</population></desc></path><path d="M282.614942529,442.528735632 L282.614942529,435.488505747 L305.747126437,435.488505747 L323.850574713,435.488505747 L323.850574713,479.74137931 L300.718390805,478.735632184 L283.620689655,476.724137931 L282.614942529,442.528735632 Z" fill="#cee3f5" id="US.MO.225" stroke="#6e6e6e" stroke-width="0.4"><desc><name>Webster County</name><stateAbbrev>MO</stateAbbrev><state>Missouri</state><fips>225</fips><incits>29225</incits><id>US.MO.225</id><population>36466</population></desc></path><path d="M161.925287356,167.959770115 L162.931034483,157.902298851 L210.201149425,157.902298851 L210.201149425,176.005747126 L210.201149425,194.109195402 L163.936781609,194.109195402 L161.925287356,167.959770115 Z" fill="#cee3f5" id="US.MO.061" stroke="#6e6e6e" stroke-width="0.4"><desc><name>Daviess County</name><stateAbbrev>MO</stateAbbrev><state>Missouri</state><fips>061</fips><incits>29061</incits><id>US.MO.061</id><population>8294</population></desc></path><path d="M523.994252874,481.752873563 L528.017241379,468.67816092 L528.017241379,457.614942529 L534.051724138,457.614942529 L548.132183908,453.591954023 L582.327586207,453.591954023 L582.327586207,477.729885057 L593.390804598,482.75862069 L578.304597701,494.827586207 L534.051724138,493.82183908 L523.994252874,481.752873563 Z" fill="#cee3f5" id="US.MO.223" stroke="#6e6e6e" stroke-width="0.4"><desc><name>Wayne County</name><stateAbbrev>MO</stateAbbrev><state>Missouri</state><fips>223</fips><incits>29223</incits><id>US.MO.223</id><population>13404</population></desc></path><path d="M210.201149425,221.264367816 L210.201149425,212.212643678 L260.488505747,212.212643678 L262.5,227.298850575 L278.591954023,236.350574713 L247.413793103,248.41954023 L240.373563218,246.408045977 L236.350574713,254.454022989 L223.275862069,250.431034483 L210.201149425,255.459770115 L210.201149425,221.264367816 Z" fill="#cee3f5" id="US.MO.033" stroke="#6e6e6e" stroke-width="0.4"><desc><name>Carroll County</name><stateAbbrev>MO</stateAbbrev><state>Missouri</state><fips>033</fips><incits>29033</incits><id>US.MO.033</id><population>9127</population></desc></path><path d="M121.695402299,264.511494253 L158.908045977,251.436781609 L162.931034483,254.454022989 L173.994252874,261.494252874 L172.988505747,285.632183908 L172.988505747,293.67816092 L121.695402299,292.672413793 L121.695402299,264.511494253 Z" fill="#cee3f5" id="US.MO.095" stroke="#6e6e6e" stroke-width="0.4"><desc><name>Jackson County</name><stateAbbrev>MO</stateAbbrev><state>Missouri</state><fips>095</fips><incits>29095</incits><id>US.MO.095</id><population>679996</population></desc></path><path d="M358.045977011,139.798850575 L400.287356322,139.798850575 L400.287356322,144.827586207 L400.287356322,177.011494253 L365.086206897,176.005747126 L359.051724138,166.954022989 L358.045977011,139.798850575 Z" fill="#cee3f5" id="US.MO.103" stroke="#6e6e6e" stroke-width="0.4"><desc><name>Knox County</name><stateAbbrev>MO</stateAbbrev><state>Missouri</state><fips>103</fips><incits>29103</incits><id>US.MO.103</id><population>4067</population></desc></path><path d="M93.5344827586,190.086206897 L121.695402299,190.086206897 L122.701149425,198.132183908 L122.701149425,221.264367816 L69.3965517241,220.25862069 L75.4310344828,209.195402299 L94.5402298851,199.137931034 L93.5344827586,190.086206897 Z" fill="#cee3f5" id="US.MO.021" stroke="#6e6e6e" stroke-width="0.4"><desc><name>Buchanan County</name><stateAbbrev>MO</stateAbbrev><state>Missouri</state><fips>021</fips><incits>29021</incits><id>US.MO.021</id><population>89631</population></desc></path><path d="M120.689655172,331.896551724 L121.695402299,292.672413793 L172.988505747,293.67816092 L172.988505747,321.83908046 L179.022988506,321.83908046 L179.022988506,334.913793103 L152.873563218,331.896551724 L120.689655172,331.896551724 Z" fill="#cee3f5" id="US.MO.037" stroke="#6e6e6e" stroke-width="0.4"><desc><name>Cass County</name><stateAbbrev>MO</stateAbbrev><state>Missouri</state><fips>037</fips><incits>29037</incits><id>US.MO.037</id><population>100641</population></desc></path><path d="M484.770114943,424.425287356 L484.770114943,413.362068966 L489.798850575,408.333333333 L538.074712644,409.33908046 L537.068965517,419.396551724 L549.137931034,419.396551724 L548.132183908,453.591954023 L534.051724138,457.614942529 L526.005747126,457.614942529 L525.0,423.41954023 L502.873563218,422.413793103 L484.770114943,424.425287356 Z" fill="#cee3f5" id="US.MO.093" stroke="#6e6e6e" stroke-width="0.4"><desc><name>Iron County</name><stateAbbrev>MO</stateAbbrev><state>Missouri</state><fips>093</fips><incits>29093</incits><id>US.MO.093</id><population>10344</population></desc></path><path d="M313.793103448,539.08045977 L314.798850575,506.896551724 L383.189655172,508.908045977 L383.189655172,539.08045977 L313.793103448,539.08045977 Z" fill="#cee3f5" id="US.MO.153" stroke="#6e6e6e" stroke-width="0.4"><desc><name>Ozark County</name><stateAbbrev>MO</stateAbbrev><state>Missouri</state><fips>153</fips><incits>29153</incits><id>US.MO.153</id><population>9560</population></desc></path><path d="M523.994252874,360.057471264 L528.017241379,330.890804598 L562.212643678,328.879310345 L569.252873563,340.948275862 L568.247126437,359.051724138 L579.310344828,369.109195402 L562.212643678,377.155172414 L544.109195402,380.172413793 L538.074712644,373.132183908 L523.994252874,360.057471264 Z" fill="#cee3f5" id="US.MO.099" stroke="#6e6e6e" stroke-width="0.4"><desc><name>Jefferson County</name><stateAbbrev>MO</stateAbbrev><state>Missouri</state><fips>099</fips><incits>29099</incits><id>US.MO.099</id><population>221396</population></desc></path><path d="M209.195402299,110.632183908 L250.431034483,110.632183908 L251.436781609,131.752873563 L251.436781609,143.82183908 L210.201149425,143.82183908 L209.195402299,110.632183908 Z" fill="#cee3f5" id="US.MO.129" stroke="#6e6e6e" stroke-width="0.4"><desc><name>Mercer County</name><stateAbbrev>MO</stateAbbrev><state>Missouri</state><fips>129</fips><incits>29129</incits><id>US.MO.129</id><population>3695</population></desc></path><path d="M486.781609195,539.08045977 L488.793103448,504.885057471 L536.063218391,506.896551724 L543.103448276,519.971264368 L545.114942529,539.08045977 L486.781609195,539.08045977 Z" fill="#cee3f5" id="US.MO.181" stroke="#6e6e6e" stroke-width="0.4"><desc><name>Ripley County</name><stateAbbrev>MO</stateAbbrev><state>Missouri</state><fips>181</fips><incits>29181</incits><id>US.MO.181</id><population>14032</population></desc></path><path d="M353.017241379,396.264367816 L353.017241379,379.166666667 L376.149425287,379.166666667 L393.247126437,380.172413793 L392.24137931,423.41954023 L369.109195402,423.41954023 L369.109195402,418.390804598 L352.011494253,411.350574713 L353.017241379,396.264367816 Z" fill="#cee3f5" id="US.MO.169" stroke="#6e6e6e" stroke-width="0.4"><desc><name>Pulaski County</name><stateAbbrev>MO</stateAbbrev><state>Missouri</state><fips>169</fips><incits>29169</incits><id>US.MO.169</id><population>53748</population></desc></path><path d="M226.293103448,486.781609195 L226.293103448,476.724137931 L283.620689655,476.724137931 L300.718390805,478.735632184 L300.718390805,506.896551724 L258.477011494,505.890804598 L255.459770115,487.787356322 L226.293103448,486.781609195 Z" fill="#cee3f5" id="US.MO.043" stroke="#6e6e6e" stroke-width="0.4"><desc><name>Christian County</name><stateAbbrev>MO</stateAbbrev><state>Missouri</state><fips>043</fips><incits>29043</incits><id>US.MO.043</id><population>80899</population></desc></path><path d="M582.327586207,539.08045977 L590.373563218,525.0 L609.482758621,526.005747126 L609.482758621,551.149425287 L609.482758621,591.379310345 L566.235632184,592.385057471 L582.327586207,572.270114943 L596.408045977,563.218390805 L598.41954023,551.149425287 L582.327586207,539.08045977 Z" fill="#cee3f5" id="US.MO.069" stroke="#6e6e6e" stroke-width="0.4"><desc><name>Dunklin County</name><stateAbbrev>MO</stateAbbrev><state>Missouri</state><fips>069</fips><incits>29069</incits><id>US.MO.069</id><population>31712</population></desc></path><path d="M619.540229885,473.706896552 L619.540229885,423.41954023 L647.701149425,424.425287356 L655.747126437,427.442528736 L666.810344828,446.551724138 L658.764367816,460.632183908 L645.689655172,461.637931034 L630.603448276,473.706896552 L619.540229885,473.706896552 Z" fill="#cee3f5" id="US.MO.031" stroke="#6e6e6e" stroke-width="0.4"><desc><name>Cape Girardeau County</name><stateAbbrev>MO</stateAbbrev><state>Missouri</state><fips>031</fips><incits>29031</incits><id>US.MO.031</id><population>77320</population></desc></path><path d="M305.747126437,252.442528736 L312.787356322,240.373563218 L320.833333333,242.385057471 L350.0,250.431034483 L335.91954023,279.597701149 L305.747126437,278.591954023 L297.701149425,269.540229885 L296.695402299,265.517241379 L305.747126437,252.442528736 Z" fill="#cee3f5" id="US.MO.089" stroke="#6e6e6e" stroke-width="0.4"><desc><name>Howard County</name><stateAbbrev>MO</stateAbbrev><state>Missouri</state><fips>089</fips><incits>29089</incits><id>US.MO.089</id><population>10257</population></desc></path><path d="M120.689655172,448.563218391 L177.011494253,449.568965517 L180.028735632,456.609195402 L179.022988506,481.752873563 L120.689655172,480.747126437 L120.689655172,448.563218391 Z" fill="#cee3f5" id="US.MO.097" stroke="#6e6e6e" stroke-width="0.4"><desc><name>Jasper County</name><stateAbbrev>MO</stateAbbrev><state>Missouri</state><fips>097</fips><incits>29097</incits><id>US.MO.097</id><population>116398</population></desc></path><path d="M364.08045977,213.218390805 L365.086206897,176.005747126 L400.287356322,177.011494253 L412.356321839,177.011494253 L411.350574713,207.183908046 L376.149425287,207.183908046 L364.08045977,213.218390805 Z" fill="#cee3f5" id="US.MO.205" stroke="#6e6e6e" stroke-width="0.4"><desc><name>Shelby County</name><stateAbbrev>MO</stateAbbrev><state>Missouri</state><fips>205</fips><incits>29205</incits><id>US.MO.205</id><population>6177</population></desc></path><path d="M251.436781609,143.82183908 L251.436781609,131.752873563 L305.747126437,130.747126437 L305.747126437,135.775862069 L305.747126437,167.959770115 L252.442528736,167.959770115 L251.436781609,143.82183908 Z" fill="#cee3f5" id="US.MO.211" stroke="#6e6e6e" stroke-width="0.4"><desc><name>Sullivan County</name><stateAbbrev>MO</stateAbbrev><state>Missouri</state><fips>211</fips><incits>29211</incits><id>US.MO.211</id><population>6448</population></desc></path><path d="M224.281609195,399.281609195 L230.316091954,399.281609195 L270.545977011,402.298850575 L272.557471264,410.344827586 L271.551724138,442.528735632 L225.287356322,441.522988506 L226.293103448,426.436781609 L224.281609195,399.281609195 Z" fill="#cee3f5" id="US.MO.167" stroke="#6e6e6e" stroke-width="0.4"><desc><name>Polk County</name><stateAbbrev>MO</stateAbbrev><state>Missouri</state><fips>167</fips><incits>29167</incits><id>US.MO.167</id><population>30974</population></desc></path><path d="M305.747126437,392.24137931 L329.885057471,393.247126437 L336.925287356,402.298850575 L353.017241379,396.264367816 L352.011494253,411.350574713 L369.109195402,418.390804598 L369.109195402,423.41954023 L369.109195402,436.494252874 L323.850574713,435.488505747 L305.747126437,435.488505747 L305.747126437,392.24137931 Z" fill="#cee3f5" id="US.MO.105" stroke="#6e6e6e" stroke-width="0.4"><desc><name>Laclede County</name><stateAbbrev>MO</stateAbbrev><state>Missouri</state><fips>105</fips><incits>29105</incits><id>US.MO.105</id><population>35667</population></desc></path><path d="M179.022988506,493.82183908 L179.022988506,481.752873563 L180.028735632,456.609195402 L225.287356322,456.609195402 L226.293103448,476.724137931 L226.293103448,486.781609195 L226.293103448,494.827586207 L179.022988506,493.82183908 Z" fill="#cee3f5" id="US.MO.109" stroke="#6e6e6e" stroke-width="0.4"><desc><name>Lawrence County</name><stateAbbrev>MO</stateAbbrev><state>Missouri</state><fips>109</fips><incits>29109</incits><id>US.MO.109</id><population>38185</population></desc></path><path d="M210.201149425,157.902298851 L210.201149425,143.82183908 L251.436781609,143.82183908 L252.442528736,167.959770115 L252.442528736,175.0 L210.201149425,176.005747126 L210.201149425,157.902298851 Z" fill="#cee3f5" id="US.MO.079" stroke="#6e6e6e" stroke-width="0.4"><desc><name>Grundy County</name><stateAbbrev>MO</stateAbbrev><state>Missouri</state><fips>079</fips><incits>29079</incits><id>US.MO.079</id><population>10355</population></desc></path><path d="M121.695402299,228.304597701 L122.701149425,221.264367816 L122.701149425,198.132183908 L163.936781609,198.132183908 L162.931034483,221.264367816 L162.931034483,229.310344828 L121.695402299,228.304597701 Z" fill="#cee3f5" id="US.MO.049" stroke="#6e6e6e" stroke-width="0.4"><desc><name>Clinton County</name><stateAbbrev>MO</stateAbbrev><state>Missouri</state><fips>049</fips><incits>29049</incits><id>US.MO.049</id><population>20571</population></desc></path><path d="M358.045977011,108.620689655 L401.293103448,107.614942529 L400.287356322,139.798850575 L358.045977011,139.798850575 L358.045977011,134.770114943 L358.045977011,108.620689655 Z" fill="#cee3f5" id="US.MO.199" stroke="#6e6e6e" stroke-width="0.4"><desc><name>Scotland County</name><stateAbbrev>MO</stateAbbrev><state>Missouri</state><fips>199</fips><incits>29199</incits><id>US.MO.199</id><population>4921</population></desc></path><path d="M120.689655172,510.91954023 L178.017241379,512.931034483 L177.011494253,539.08045977 L120.689655172,539.08045977 L120.689655172,510.91954023 Z" fill="#cee3f5" id="US.MO.119" stroke="#6e6e6e" stroke-width="0.4"><desc><name>McDonald County</name><stateAbbrev>MO</stateAbbrev><state>Missouri</state><fips>119</fips><incits>29119</incits><id>US.MO.119</id><population>22558</population></desc></path><path d="M445.545977011,403.304597701 L468.67816092,404.310344828 L467.672413793,413.362068966 L484.770114943,413.362068966 L484.770114943,424.425287356 L467.672413793,424.425287356 L467.672413793,433.477011494 L478.735632184,433.477011494 L478.735632184,442.528735632 L432.471264368,441.522988506 L421.408045977,441.522988506 L421.408045977,423.41954023 L415.373563218,423.41954023 L416.379310345,403.304597701 L445.545977011,403.304597701 Z" fill="#cee3f5" id="US.MO.065" stroke="#6e6e6e" stroke-width="0.4"><desc><name>Dent County</name><stateAbbrev>MO</stateAbbrev><state>Missouri</state><fips>065</fips><incits>29065</incits><id>US.MO.065</id><population>15730</population></desc></path><path d="M677.873563218,485.775862069 L700.0,490.804597701 L689.942528736,515.948275862 L693.965517241,521.982758621 L686.925287356,532.040229885 L675.862068966,525.0 L655.747126437,499.856321839 L670.833333333,486.781609195 L677.873563218,485.775862069 Z" fill="#cee3f5" id="US.MO.133" stroke="#6e6e6e" stroke-width="0.4"><desc><name>Mississippi County</name><stateAbbrev>MO</stateAbbrev><state>Missouri</state><fips>133</fips><incits>29133</incits><id>US.MO.133</id><population>14282</population></desc></path><path d="M177.011494253,425.431034483 L178.017241379,419.396551724 L179.022988506,392.24137931 L205.172413793,393.247126437 L205.172413793,399.281609195 L224.281609195,399.281609195 L226.293103448,426.436781609 L177.011494253,425.431034483 Z" fill="#cee3f5" id="US.MO.039" stroke="#6e6e6e" stroke-width="0.4"><desc><name>Cedar County</name><stateAbbrev>MO</stateAbbrev><state>Missouri</state><fips>039</fips><incits>29039</incits><id>US.MO.039</id><population>13913</population></desc></path><path d="M323.850574713,435.488505747 L369.109195402,436.494252874 L369.109195402,479.74137931 L323.850574713,479.74137931 L323.850574713,435.488505747 Z" fill="#cee3f5" id="US.MO.229" stroke="#6e6e6e" stroke-width="0.4"><desc><name>Wright County</name><stateAbbrev>MO</stateAbbrev><state>Missouri</state><fips>229</fips><incits>29229</incits><id>US.MO.229</id><population>18473</population></desc></path><path d="M283.620689655,308.764367816 L284.626436782,283.620689655 L297.701149425,269.540229885 L305.747126437,278.591954023 L335.91954023,279.597701149 L342.959770115,284.626436782 L330.890804598,309.770114943 L307.75862069,309.770114943 L283.620689655,308.764367816 Z" fill="#cee3f5" id="US.MO.053" stroke="#6e6e6e" stroke-width="0.4"><desc><name>Cooper County</name><stateAbbrev>MO</stateAbbrev><state>Missouri</state><fips>053</fips><incits>29053</incits><id>US.MO.053</id><population>17647</population></desc></path><path d="M120.689655172,480.747126437 L179.022988506,481.752873563 L179.022988506,493.82183908 L178.017241379,512.931034483 L120.689655172,510.91954023 L120.689655172,480.747126437 Z" fill="#cee3f5" id="US.MO.145" stroke="#6e6e6e" stroke-width="0.4"><desc><name>Newton County</name><stateAbbrev>MO</stateAbbrev><state>Missouri</state><fips>145</fips><incits>29145</incits><id>US.MO.145</id><population>58845</population></desc></path><path d="M369.109195402,436.494252874 L369.109195402,423.41954023 L392.24137931,423.41954023 L415.373563218,423.41954023 L421.408045977,423.41954023 L421.408045977,441.522988506 L432.471264368,441.522988506 L431.465517241,481.752873563 L386.206896552,480.747126437 L369.109195402,479.74137931 L369.109195402,436.494252874 Z" fill="#cee3f5" id="US.MO.215" stroke="#6e6e6e" stroke-width="0.4"><desc><name>Texas County</name><stateAbbrev>MO</stateAbbrev><state>Missouri</state><fips>215</fips><incits>29215</incits><id>US.MO.215</id><population>25636</population></desc></path><path d="M538.074712644,409.33908046 L538.074712644,373.132183908 L544.109195402,380.172413793 L562.212643678,377.155172414 L571.264367816,383.189655172 L557.183908046,394.252873563 L584.33908046,416.379310345 L593.390804598,416.379310345 L590.373563218,419.396551724 L549.137931034,419.396551724 L537.068965517,419.396551724 L538.074712644,409.33908046 Z" fill="#cee3f5" id="US.MO.187" stroke="#6e6e6e" stroke-width="0.4"><desc><name>St. Francois County</name><stateAbbrev>MO</stateAbbrev><state>Missouri</state><fips>187</fips><incits>29187</incits><id>US.MO.187</id><population>66215</population></desc></path><path d="M472.701149425,277.586206897 L473.706896552,261.494252874 L481.752873563,252.442528736 L530.028735632,253.448275862 L534.051724138,265.517241379 L531.034482759,270.545977011 L536.063218391,283.620689655 L504.885057471,289.655172414 L488.793103448,289.655172414 L472.701149425,277.586206897 Z" fill="#cee3f5" id="US.MO.113" stroke="#6e6e6e" stroke-width="0.4"><desc><name>Lincoln County</name><stateAbbrev>MO</stateAbbrev><state>Missouri</state><fips>113</fips><incits>29113</incits><id>US.MO.113</id><population>53860</population></desc></path><path d="M431.465517241,498.850574713 L431.465517241,481.752873563 L432.471264368,441.522988506 L478.735632184,442.528735632 L486.781609195,465.66091954 L496.83908046,468.67816092 L498.850574713,476.724137931 L477.729885057,477.729885057 L476.724137931,498.850574713 L431.465517241,498.850574713 Z" fill="#cee3f5" id="US.MO.203" stroke="#6e6e6e" stroke-width="0.4"><desc><name>Shannon County</name><stateAbbrev>MO</stateAbbrev><state>Missouri</state><fips>203</fips><incits>29203</incits><id>US.MO.203</id><population>8297</population></desc></path><path d="M22.1264367816,143.82183908 L61.3505747126,143.82183908 L72.4137931034,143.82183908 L76.4367816092,157.902298851 L81.4655172414,182.040229885 L76.4367816092,186.063218391 L59.3390804598,181.034482759 L43.2471264368,167.959770115 L39.224137931,158.908045977 L22.1264367816,143.82183908 Z" fill="#cee3f5" id="US.MO.087" stroke="#6e6e6e" stroke-width="0.4"><desc><name>Holt County</name><stateAbbrev>MO</stateAbbrev><state>Missouri</state><fips>087</fips><incits>29087</incits><id>US.MO.087</id><population>4568</population></desc></path><path d="M400.287356322,177.011494253 L400.287356322,144.827586207 L448.563218391,145.833333333 L448.563218391,167.959770115 L454.597701149,177.011494253 L412.356321839,177.011494253 L400.287356322,177.011494253 Z" fill="#cee3f5" id="US.MO.111" stroke="#6e6e6e" stroke-width="0.4"><desc><name>Lewis County</name><stateAbbrev>MO</stateAbbrev><state>Missouri</state><fips>111</fips><incits>29111</incits><id>US.MO.111</id><population>10152</population></desc></path><path d="M162.931034483,254.454022989 L162.931034483,229.310344828 L162.931034483,221.264367816 L210.201149425,221.264367816 L210.201149425,255.459770115 L203.16091954,254.454022989 L178.017241379,262.5 L173.994252874,261.494252874 L162.931034483,254.454022989 Z" fill="#cee3f5" id="US.MO.177" stroke="#6e6e6e" stroke-width="0.4"><desc><name>Ray County</name><stateAbbrev>MO</stateAbbrev><state>Missouri</state><fips>177</fips><incits>29177</incits><id>US.MO.177</id><population>23039</population></desc></path><path d="M282.614942529,354.022988506 L294.683908046,361.063218391 L314.798850575,362.068965517 L322.844827586,358.045977011 L340.948275862,379.166666667 L353.017241379,379.166666667 L353.017241379,396.264367816 L336.925287356,402.298850575 L329.885057471,393.247126437 L305.747126437,392.24137931 L282.614942529,391.235632184 L283.620689655,375.143678161 L282.614942529,354.022988506 Z" fill="#cee3f5" id="US.MO.029" stroke="#6e6e6e" stroke-width="0.4"><desc><name>Camden County</name><stateAbbrev>MO</stateAbbrev><state>Missouri</state><fips>029</fips><incits>29029</incits><id>US.MO.029</id><population>43862</population></desc></path><path d="M320.833333333,109.626436782 L358.045977011,108.620689655 L358.045977011,134.770114943 L323.850574713,135.775862069 L320.833333333,109.626436782 Z" fill="#cee3f5" id="US.MO.197" stroke="#6e6e6e" stroke-width="0.4"><desc><name>Schuyler County</name><stateAbbrev>MO</stateAbbrev><state>Missouri</state><fips>197</fips><incits>29197</incits><id>US.MO.197</id><population>4358</population></desc></path><path d="M235.344827586,359.051724138 L236.350574713,327.873563218 L260.488505747,324.856321839 L283.620689655,325.862068966 L282.614942529,354.022988506 L283.620689655,375.143678161 L237.356321839,374.137931034 L235.344827586,359.051724138 Z" fill="#cee3f5" id="US.MO.015" stroke="#6e6e6e" stroke-width="0.4"><desc><name>Benton County</name><stateAbbrev>MO</stateAbbrev><state>Missouri</state><fips>015</fips><incits>29015</incits><id>US.MO.015</id><population>18932</population></desc></path><path d="M431.465517241,498.850574713 L476.724137931,498.850574713 L488.793103448,504.885057471 L486.781609195,539.08045977 L429.454022989,539.08045977 L429.454022989,508.908045977 L431.465517241,498.850574713 Z" fill="#cee3f5" id="US.MO.149" stroke="#6e6e6e" stroke-width="0.4"><desc><name>Oregon County</name><stateAbbrev>MO</stateAbbrev><state>Missouri</state><fips>149</fips><incits>29149</incits><id>US.MO.149</id><population>10996</population></desc></path><path d="M257.471264368,539.08045977 L258.477011494,505.890804598 L300.718390805,506.896551724 L314.798850575,506.896551724 L313.793103448,539.08045977 L257.471264368,539.08045977 Z" fill="#cee3f5" id="US.MO.213" stroke="#6e6e6e" stroke-width="0.4"><desc><name>Taney County</name><stateAbbrev>MO</stateAbbrev><state>Missouri</state><fips>213</fips><incits>29213</incits><id>US.MO.213</id><population>53575</population></desc></path><path d="M362.068965517,250.431034483 L363.074712644,240.373563218 L425.431034483,240.373563218 L454.597701149,242.385057471 L457.614942529,261.494252874 L434.482758621,260.488505747 L434.482758621,270.545977011 L384.195402299,269.540229885 L384.195402299,251.436781609 L362.068965517,250.431034483 Z" fill="#cee3f5" id="US.MO.007" stroke="#6e6e6e" stroke-width="0.4"><desc><name>Audrain County</name><stateAbbrev>MO</stateAbbrev><state>Missouri</state><fips>007</fips><incits>29007</incits><id>US.MO.007</id><population>25661</population></desc></path><path d="M461.637931034,359.051724138 L490.804597701,360.057471264 L489.798850575,408.333333333 L484.770114943,413.362068966 L467.672413793,413.362068966 L468.67816092,404.310344828 L445.545977011,403.304597701 L444.540229885,365.086206897 L444.540229885,359.051724138 L461.637931034,359.051724138 Z" fill="#cee3f5" id="US.MO.055" stroke="#6e6e6e" stroke-width="0.4"><desc><name>Crawford County</name><stateAbbrev>MO</stateAbbrev><state>Missouri</state><fips>055</fips><incits>29055</incits><id>US.MO.055</id><population>24543</population></desc></path><path d="M383.189655172,539.08045977 L383.189655172,508.908045977 L386.206896552,480.747126437 L431.465517241,481.752873563 L431.465517241,498.850574713 L429.454022989,508.908045977 L429.454022989,539.08045977 L383.189655172,539.08045977 Z" fill="#cee3f5" id="US.MO.091" stroke="#6e6e6e" stroke-width="0.4"><desc><name>Howell County</name><stateAbbrev>MO</stateAbbrev><state>Missouri</state><fips>091</fips><incits>29091</incits><id>US.MO.091</id><population>40393</population></desc></path><path d="M350.0,250.431034483 L362.068965517,250.431034483 L384.195402299,251.436781609 L384.195402299,269.540229885 L378.16091954,285.632183908 L380.172413793,295.689655172 L372.126436782,313.793103448 L359.051724138,310.775862069 L354.022988506,303.735632184 L342.959770115,284.626436782 L335.91954023,279.597701149 L350.0,250.431034483 Z" fill="#cee3f5" id="US.MO.019" stroke="#6e6e6e" stroke-width="0.4"><desc><name>Boone County</name><stateAbbrev>MO</stateAbbrev><state>Missouri</state><fips>019</fips><incits>29019</incits><id>US.MO.019</id><population>170773</population></desc></path><path d="M122.701149425,259.482758621 L121.695402299,228.304597701 L162.931034483,229.310344828 L162.931034483,254.454022989 L158.908045977,251.436781609 L121.695402299,264.511494253 L122.701149425,259.482758621 Z" fill="#cee3f5" id="US.MO.047" stroke="#6e6e6e" stroke-width="0.4"><desc><name>Clay County</name><stateAbbrev>MO</stateAbbrev><state>Missouri</state><fips>047</fips><incits>29047</incits><id>US.MO.047</id><population>230473</population></desc></path><path d="M121.695402299,157.902298851 L122.701149425,130.747126437 L162.931034483,131.752873563 L162.931034483,157.902298851 L161.925287356,167.959770115 L121.695402299,167.959770115 L121.695402299,157.902298851 Z" fill="#cee3f5" id="US.MO.075" stroke="#6e6e6e" stroke-width="0.4"><desc><name>Gentry County</name><stateAbbrev>MO</stateAbbrev><state>Missouri</state><fips>075</fips><incits>29075</incits><id>US.MO.075</id><population>6775</population></desc></path><path d="M282.614942529,354.022988506 L283.620689655,325.862068966 L283.620689655,308.764367816 L307.75862069,309.770114943 L306.752873563,318.82183908 L329.885057471,335.91954023 L322.844827586,344.971264368 L322.844827586,358.045977011 L314.798850575,362.068965517 L294.683908046,361.063218391 L282.614942529,354.022988506 Z" fill="#cee3f5" id="US.MO.141" stroke="#6e6e6e" stroke-width="0.4"><desc><name>Morgan County</name><stateAbbrev>MO</stateAbbrev><state>Missouri</state><fips>141</fips><incits>29141</incits><id>US.MO.141</id><population>20265</population></desc></path><path d="M252.442528736,175.0 L252.442528736,167.959770115 L305.747126437,167.959770115 L306.752873563,167.959770115 L304.74137931,203.16091954 L263.505747126,203.16091954 L251.436781609,203.16091954 L252.442528736,175.0 Z" fill="#cee3f5" id="US.MO.115" stroke="#6e6e6e" stroke-width="0.4"><desc><name>Linn County</name><stateAbbrev>MO</stateAbbrev><state>Missouri</state><fips>115</fips><incits>29115</incits><id>US.MO.115</id><population>12368</population></desc></path><path d="M548.132183908,453.591954023 L549.137931034,419.396551724 L590.373563218,419.396551724 L590.373563218,423.41954023 L590.373563218,453.591954023 L582.327586207,453.591954023 L548.132183908,453.591954023 Z" fill="#cee3f5" id="US.MO.123" stroke="#6e6e6e" stroke-width="0.4"><desc><name>Madison County</name><stateAbbrev>MO</stateAbbrev><state>Missouri</state><fips>123</fips><incits>29123</incits><id>US.MO.123</id><population>12431</population></desc></path><path d="M177.011494253,449.568965517 L177.011494253,425.431034483 L226.293103448,426.436781609 L225.287356322,441.522988506 L225.287356322,456.609195402 L180.028735632,456.609195402 L177.011494253,449.568965517 Z" fill="#cee3f5" id="US.MO.057" stroke="#6e6e6e" stroke-width="0.4"><desc><name>Dade County</name><stateAbbrev>MO</stateAbbrev><state>Missouri</state><fips>057</fips><incits>29057</incits><id>US.MO.057</id><population>7578</population></desc></path><path d="M250.431034483,110.632183908 L320.833333333,109.626436782 L323.850574713,135.775862069 L305.747126437,135.775862069 L305.747126437,130.747126437 L251.436781609,131.752873563 L250.431034483,110.632183908 Z" fill="#cee3f5" id="US.MO.171" stroke="#6e6e6e" stroke-width="0.4"><desc><name>Putnam County</name><stateAbbrev>MO</stateAbbrev><state>Missouri</state><fips>171</fips><incits>29171</incits><id>US.MO.171</id><population>4875</population></desc></path><path d="M120.689655172,331.896551724 L152.873563218,331.896551724 L179.022988506,334.913793103 L180.028735632,359.051724138 L179.022988506,378.16091954 L120.689655172,375.143678161 L120.689655172,331.896551724 Z" fill="#cee3f5" id="US.MO.013" stroke="#6e6e6e" stroke-width="0.4"><desc><name>Bates County</name><stateAbbrev>MO</stateAbbrev><state>Missouri</state><fips>013</fips><incits>29013</incits><id>US.MO.013</id><population>16550</population></desc></path><path d="M59.3390804598,110.632183908 L62.3563218391,121.695402299 L61.3505747126,143.82183908 L22.1264367816,143.82183908 L15.0862068966,135.775862069 L0.0,109.626436782 L59.3390804598,110.632183908 Z" fill="#cee3f5" id="US.MO.005" stroke="#6e6e6e" stroke-width="0.4"><desc><name>Atchison County</name><stateAbbrev>MO</stateAbbrev><state>Missouri</state><fips>005</fips><incits>29005</incits><id>US.MO.005</id><population>5449</population></desc></path><path d="M400.287356322,144.827586207 L400.287356322,139.798850575 L401.293103448,107.614942529 L424.425287356,107.614942529 L451.58045977,135.775862069 L448.563218391,145.833333333 L400.287356322,144.827586207 Z" fill="#cee3f5" id="US.MO.045" stroke="#6e6e6e" stroke-width="0.4"><desc><name>Clark County</name><stateAbbrev>MO</stateAbbrev><state>Missouri</state><fips>045</fips><incits>29045</incits><id>US.MO.045</id><population>6910</population></desc></path><path d="M609.482758621,526.005747126 L636.637931034,526.005747126 L637.643678161,501.867816092 L655.747126437,499.856321839 L675.862068966,525.0 L666.810344828,540.086206897 L655.747126437,542.097701149 L653.735632184,556.17816092 L648.706896552,549.137931034 L634.626436782,547.126436782 L629.597701149,551.149425287 L609.482758621,551.149425287 L609.482758621,526.005747126 Z" fill="#cee3f5" id="US.MO.143" stroke="#6e6e6e" stroke-width="0.4"><desc><name>New Madrid County</name><stateAbbrev>MO</stateAbbrev><state>Missouri</state><fips>143</fips><incits>29143</incits><id>US.MO.143</id><population>18365</population></desc></path><path d="M59.3390804598,110.632183908 L118.67816092,111.637931034 L122.701149425,130.747126437 L121.695402299,157.902298851 L76.4367816092,157.902298851 L72.4137931034,143.82183908 L61.3505747126,143.82183908 L62.3563218391,121.695402299 L59.3390804598,110.632183908 Z" fill="#cee3f5" id="US.MO.147" stroke="#6e6e6e" stroke-width="0.4"><desc><name>Nodaway County</name><stateAbbrev>MO</stateAbbrev><state>Missouri</state><fips>147</fips><incits>29147</incits><id>US.MO.147</id><population>23261</population></desc></path><path d="M270.545977011,402.298850575 L271.551724138,391.235632184 L282.614942529,391.235632184 L305.747126437,392.24137931 L305.747126437,435.488505747 L282.614942529,435.488505747 L282.614942529,442.528735632 L271.551724138,442.528735632 L272.557471264,410.344827586 L270.545977011,402.298850575 Z" fill="#cee3f5" id="US.MO.059" stroke="#6e6e6e" stroke-width="0.4"><desc><name>Dallas County</name><stateAbbrev>MO</stateAbbrev><state>Missouri</state><fips>059</fips><incits>29059</incits><id>US.MO.059</id><population>16535</population></desc></path><path d="M578.304597701,494.827586207 L593.390804598,482.75862069 L609.482758621,480.747126437 L619.540229885,473.706896552 L630.603448276,473.706896552 L627.586206897,477.729885057 L638.649425287,493.82183908 L637.643678161,501.867816092 L636.637931034,526.005747126 L609.482758621,526.005747126 L590.373563218,525.0 L588.362068966,514.942528736 L588.362068966,514.942528736 L588.362068966,514.942528736 L588.362068966,514.942528736 L587.356321839,512.931034483 L587.356321839,512.931034483 L587.356321839,512.931034483 L587.356321839,512.931034483 L586.350574713,511.925287356 L586.350574713,511.925287356 L586.350574713,511.925287356 L586.350574713,511.925287356 L586.350574713,511.925287356 L585.344827586,510.91954023 L585.344827586,510.91954023 L585.344827586,510.91954023 L585.344827586,510.91954023 L584.33908046,510.91954023 L584.33908046,509.913793103 L584.33908046,510.91954023 L584.33908046,510.91954023 L578.304597701,494.827586207 Z" fill="#cee3f5" id="US.MO.207" stroke="#6e6e6e" stroke-width="0.4"><desc><name>Stoddard County</name><stateAbbrev>MO</stateAbbrev><state>Missouri</state><fips>207</fips><incits>29207</incits><id>US.MO.207</id><population>29780</population></desc></path><path d="M456.609195402,306.752873563 L456.609195402,292.672413793 L472.701149425,292.672413793 L472.701149425,277.586206897 L488.793103448,289.655172414 L504.885057471,289.655172414 L503.879310345,323.850574713 L493.82183908,317.816091954 L476.724137931,315.804597701 L461.637931034,307.75862069 L456.609195402,306.752873563 Z" fill="#cee3f5" id="US.MO.219" stroke="#6e6e6e" stroke-width="0.4"><desc><name>Warren County</name><stateAbbrev>MO</stateAbbrev><state>Missouri</state><fips>219</fips><incits>29219</incits><id>US.MO.219</id><population>32999</population></desc></path><path d="M425.431034483,240.373563218 L425.431034483,207.183908046 L425.431034483,204.166666667 L467.672413793,204.166666667 L481.752873563,213.218390805 L451.58045977,229.310344828 L454.597701149,242.385057471 L425.431034483,240.373563218 Z" fill="#cee3f5" id="US.MO.173" stroke="#6e6e6e" stroke-width="0.4"><desc><name>Ralls County</name><stateAbbrev>MO</stateAbbrev><state>Missouri</state><fips>173</fips><incits>29173</incits><id>US.MO.173</id><population>10192</population></desc></path><path d="M118.67816092,111.637931034 L160.91954023,111.637931034 L162.931034483,131.752873563 L122.701149425,130.747126437 L118.67816092,111.637931034 Z" fill="#cee3f5" id="US.MO.227" stroke="#6e6e6e" stroke-width="0.4"><desc><name>Worth County</name><stateAbbrev>MO</stateAbbrev><state>Missouri</state><fips>227</fips><incits>29227</incits><id>US.MO.227</id><population>2090</population></desc></path><path d="M432.471264368,351.005747126 L433.477011494,307.75862069 L442.528735632,310.775862069 L456.609195402,306.752873563 L461.637931034,307.75862069 L461.637931034,359.051724138 L444.540229885,359.051724138 L444.540229885,365.086206897 L434.482758621,365.086206897 L432.471264368,351.005747126 Z" fill="#cee3f5" id="US.MO.073" stroke="#6e6e6e" stroke-width="0.4"><desc><name>Gasconade County</name><stateAbbrev>MO</stateAbbrev><state>Missouri</state><fips>073</fips><incits>29073</incits><id>US.MO.073</id><population>14901</population></desc></path><path d="M210.201149425,176.005747126 L252.442528736,175.0 L251.436781609,203.16091954 L263.505747126,203.16091954 L260.488505747,212.212643678 L210.201149425,212.212643678 L210.201149425,194.109195402 L210.201149425,176.005747126 Z" fill="#cee3f5" id="US.MO.117" stroke="#6e6e6e" stroke-width="0.4"><desc><name>Livingston County</name><stateAbbrev>MO</stateAbbrev><state>Missouri</state><fips>117</fips><incits>29117</incits><id>US.MO.117</id><population>14871</population></desc></path><path d="M503.879310345,323.850574713 L504.885057471,289.655172414 L536.063218391,283.620689655 L548.132183908,289.655172414 L556.17816092,280.603448276 L579.310344828,284.626436782 L593.390804598,292.672413793 L593.390804598,296.695402299 L571.264367816,287.643678161 L558.189655172,295.689655172 L549.137931034,309.770114943 L529.022988506,313.793103448 L509.913793103,324.856321839 L503.879310345,323.850574713 Z" fill="#cee3f5" id="US.MO.183" stroke="#6e6e6e" stroke-width="0.4"><desc><name>St. Charles County</name><stateAbbrev>MO</stateAbbrev><state>Missouri</state><fips>183</fips><incits>29183</incits><id>US.MO.183</id><population>373495</population></desc></path><path d="M162.931034483,221.264367816 L163.936781609,198.132183908 L163.936781609,194.109195402 L210.201149425,194.109195402 L210.201149425,212.212643678 L210.201149425,221.264367816 L162.931034483,221.264367816 Z" fill="#cee3f5" id="US.MO.025" stroke="#6e6e6e" stroke-width="0.4"><desc><name>Caldwell County</name><stateAbbrev>MO</stateAbbrev><state>Missouri</state><fips>025</fips><incits>29025</incits><id>US.MO.025</id><population>9097</population></desc></path><path d="M76.4367816092,157.902298851 L121.695402299,157.902298851 L121.695402299,167.959770115 L121.695402299,190.086206897 L93.5344827586,190.086206897 L81.4655172414,182.040229885 L76.4367816092,157.902298851 Z" fill="#cee3f5" id="US.MO.003" stroke="#6e6e6e" stroke-width="0.4"><desc><name>Andrew County</name><stateAbbrev>MO</stateAbbrev><state>Missouri</state><fips>003</fips><incits>29003</incits><id>US.MO.003</id><population>17445</population></desc></path><path d="M489.798850575,408.333333333 L490.804597701,360.057471264 L523.994252874,360.057471264 L538.074712644,373.132183908 L538.074712644,409.33908046 L489.798850575,408.333333333 Z" fill="#cee3f5" id="US.MO.221" stroke="#6e6e6e" stroke-width="0.4"><desc><name>Washington County</name><stateAbbrev>MO</stateAbbrev><state>Missouri</state><fips>221</fips><incits>29221</incits><id>US.MO.221</id><population>25172</population></desc></path><path d="M305.747126437,135.775862069 L323.850574713,135.775862069 L358.045977011,134.770114943 L358.045977011,139.798850575 L359.051724138,166.954022989 L306.752873563,167.959770115 L305.747126437,167.959770115 L305.747126437,135.775862069 Z" fill="#cee3f5" id="US.MO.001" stroke="#6e6e6e" stroke-width="0.4"><desc><name>Adair County</name><stateAbbrev>MO</stateAbbrev><state>Missouri</state><fips>001</fips><incits>29001</incits><id>US.MO.001</id><population>25572</population></desc></path><path d="M609.482758621,551.149425287 L629.597701149,551.149425287 L634.626436782,547.126436782 L648.706896552,549.137931034 L653.735632184,556.17816092 L647.701149425,578.304597701 L640.66091954,581.32183908 L633.620689655,591.379310345 L609.482758621,591.379310345 L609.482758621,551.149425287 Z" fill="#cee3f5" id="US.MO.155" stroke="#6e6e6e" stroke-width="0.4"><desc><name>Pemiscot County</name><stateAbbrev>MO</stateAbbrev><state>Missouri</state><fips>155</fips><incits>29155</incits><id>US.MO.155</id><population>17823</population></desc></path><path d="M588.362068966,300.718390805 L587.356321839,314.798850575 L578.304597701,325.862068966 L572.270114943,318.82183908 L579.310344828,305.747126437 L588.362068966,300.718390805 Z" fill="#cee3f5" id="US.MO.510" stroke="#6e6e6e" stroke-width="0.4"><desc><name>St. Louis city</name><stateAbbrev>MO</stateAbbrev><state>Missouri</state><fips>510</fips><incits>29510</incits><id>US.MO.510</id><population>318416</population></desc></path><path d="M225.287356322,456.609195402 L225.287356322,441.522988506 L271.551724138,442.528735632 L282.614942529,442.528735632 L283.620689655,476.724137931 L226.293103448,476.724137931 L225.287356322,456.609195402 Z" fill="#cee3f5" id="US.MO.077" stroke="#6e6e6e" stroke-width="0.4"><desc><name>Greene County</name><stateAbbrev>MO</stateAbbrev><state>Missouri</state><fips>077</fips><incits>29077</incits><id>US.MO.077</id><population>283870</population></desc></path><path d="M160.91954023,111.637931034 L209.195402299,110.632183908 L210.201149425,143.82183908 L210.201149425,157.902298851 L162.931034483,157.902298851 L162.931034483,131.752873563 L160.91954023,111.637931034 Z" fill="#cee3f5" id="US.MO.081" stroke="#6e6e6e" stroke-width="0.4"><desc><name>Harrison County</name><stateAbbrev>MO</stateAbbrev><state>Missouri</state><fips>081</fips><incits>29081</incits><id>US.MO.081</id><population>8741</population></desc></path><path d="M343.965517241,335.91954023 L354.022988506,303.735632184 L359.051724138,310.775862069 L372.126436782,313.793103448 L383.189655172,322.844827586 L394.252873563,321.83908046 L391.235632184,332.902298851 L375.143678161,345.977011494 L353.017241379,344.971264368 L343.965517241,335.91954023 Z" fill="#cee3f5" id="US.MO.051" stroke="#6e6e6e" stroke-width="0.4"><desc><name>Cole County</name><stateAbbrev>MO</stateAbbrev><state>Missouri</state><fips>051</fips><incits>29051</incits><id>US.MO.051</id><population>76699</population></desc></path><path d="M432.471264368,307.75862069 L434.482758621,270.545977011 L434.482758621,260.488505747 L457.614942529,261.494252874 L473.706896552,261.494252874 L472.701149425,277.586206897 L472.701149425,292.672413793 L456.609195402,292.672413793 L456.609195402,306.752873563 L442.528735632,310.775862069 L433.477011494,307.75862069 L432.471264368,307.75862069 Z" fill="#cee3f5" id="US.MO.139" stroke="#6e6e6e" stroke-width="0.4"><desc><name>Montgomery County</name><stateAbbrev>MO</stateAbbrev><state>Missouri</state><fips>139</fips><incits>29139</incits><id>US.MO.139</id><population>11965</population></desc></path><path d="M226.293103448,494.827586207 L226.293103448,486.781609195 L255.459770115,487.787356322 L258.477011494,505.890804598 L257.471264368,539.08045977 L229.310344828,539.08045977 L230.316091954,505.890804598 L226.293103448,494.827586207 Z" fill="#cee3f5" id="US.MO.209" stroke="#6e6e6e" stroke-width="0.4"><desc><name>Stone County</name><stateAbbrev>MO</stateAbbrev><state>Missouri</state><fips>209</fips><incits>29209</incits><id>US.MO.209</id><population>31297</population></desc></path><path d="M120.689655172,375.143678161 L179.022988506,378.16091954 L179.022988506,392.24137931 L178.017241379,419.396551724 L120.689655172,418.390804598 L120.689655172,375.143678161 Z" fill="#cee3f5" id="US.MO.217" stroke="#6e6e6e" stroke-width="0.4"><desc><name>Vernon County</name><stateAbbrev>MO</stateAbbrev><state>Missouri</state><fips>217</fips><incits>29217</incits><id>US.MO.217</id><population>20949</population></desc></path><path d="M481.752873563,213.218390805 L493.82183908,227.298850575 L521.982758621,243.390804598 L530.028735632,253.448275862 L481.752873563,252.442528736 L473.706896552,261.494252874 L457.614942529,261.494252874 L454.597701149,242.385057471 L451.58045977,229.310344828 L481.752873563,213.218390805 Z" fill="#cee3f5" id="US.MO.163" stroke="#6e6e6e" stroke-width="0.4"><desc><name>Pike County</name><stateAbbrev>MO</stateAbbrev><state>Missouri</state><fips>163</fips><incits>29163</incits><id>US.MO.163</id><population>18669</population></desc></path><path d="M236.350574713,327.873563218 L236.350574713,322.844827586 L238.362068966,283.620689655 L238.362068966,282.614942529 L284.626436782,283.620689655 L283.620689655,308.764367816 L283.620689655,325.862068966 L260.488505747,324.856321839 L236.350574713,327.873563218 Z" fill="#cee3f5" id="US.MO.159" stroke="#6e6e6e" stroke-width="0.4"><desc><name>Pettis County</name><stateAbbrev>MO</stateAbbrev><state>Missouri</state><fips>159</fips><incits>29159</incits><id>US.MO.159</id><population>42205</population></desc></path><path d="M484.770114943,424.425287356 L502.873563218,422.413793103 L525.0,423.41954023 L526.005747126,457.614942529 L528.017241379,457.614942529 L528.017241379,468.67816092 L523.994252874,481.752873563 L503.879310345,480.747126437 L498.850574713,476.724137931 L496.83908046,468.67816092 L486.781609195,465.66091954 L478.735632184,442.528735632 L478.735632184,433.477011494 L467.672413793,433.477011494 L467.672413793,424.425287356 L484.770114943,424.425287356 Z" fill="#cee3f5" id="US.MO.179" stroke="#6e6e6e" stroke-width="0.4"><desc><name>Reynolds County</name><stateAbbrev>MO</stateAbbrev><state>Missouri</state><fips>179</fips><incits>29179</incits><id>US.MO.179</id><population>6599</population></desc></path><path d="M179.022988506,392.24137931 L179.022988506,378.16091954 L180.028735632,359.051724138 L235.344827586,359.051724138 L237.356321839,374.137931034 L236.350574713,390.229885057 L230.316091954,399.281609195 L224.281609195,399.281609195 L205.172413793,399.281609195 L205.172413793,393.247126437 L179.022988506,392.24137931 Z" fill="#cee3f5" id="US.MO.185" stroke="#6e6e6e" stroke-width="0.4"><desc><name>St. Clair County</name><stateAbbrev>MO</stateAbbrev><state>Missouri</state><fips>185</fips><incits>29185</incits><id>US.MO.185</id><population>9487</population></desc></path><path d="M320.833333333,242.385057471 L321.83908046,212.212643678 L364.08045977,213.218390805 L363.074712644,240.373563218 L362.068965517,250.431034483 L350.0,250.431034483 L320.833333333,242.385057471 Z" fill="#cee3f5" id="US.MO.175" stroke="#6e6e6e" stroke-width="0.4"><desc><name>Randolph County</name><stateAbbrev>MO</stateAbbrev><state>Missouri</state><fips>175</fips><incits>29175</incits><id>US.MO.175</id><population>24940</population></desc></path><path d="M260.488505747,212.212643678 L263.505747126,203.16091954 L304.74137931,203.16091954 L322.844827586,203.16091954 L321.83908046,212.212643678 L320.833333333,242.385057471 L312.787356322,240.373563218 L305.747126437,252.442528736 L278.591954023,236.350574713 L262.5,227.298850575 L260.488505747,212.212643678 Z" fill="#cee3f5" id="US.MO.041" stroke="#6e6e6e" stroke-width="0.4"><desc><name>Chariton County</name><stateAbbrev>MO</stateAbbrev><state>Missouri</state><fips>041</fips><incits>29041</incits><id>US.MO.041</id><population>7628</population></desc></path><path d="M172.988505747,293.67816092 L172.988505747,285.632183908 L202.155172414,285.632183908 L202.155172414,282.614942529 L238.362068966,283.620689655 L236.350574713,322.844827586 L179.022988506,321.83908046 L172.988505747,321.83908046 L172.988505747,293.67816092 Z" fill="#cee3f5" id="US.MO.101" stroke="#6e6e6e" stroke-width="0.4"><desc><name>Johnson County</name><stateAbbrev>MO</stateAbbrev><state>Missouri</state><fips>101</fips><incits>29101</incits><id>US.MO.101</id><population>54572</population></desc></path><path d="M534.051724138,493.82183908 L578.304597701,494.827586207 L584.33908046,510.91954023 L584.33908046,510.91954023 L584.33908046,509.913793103 L584.33908046,510.91954023 L585.344827586,510.91954023 L585.344827586,510.91954023 L585.344827586,510.91954023 L585.344827586,510.91954023 L586.350574713,511.925287356 L586.350574713,511.925287356 L586.350574713,511.925287356 L586.350574713,511.925287356 L586.350574713,511.925287356 L587.356321839,512.931034483 L587.356321839,512.931034483 L587.356321839,512.931034483 L587.356321839,512.931034483 L588.362068966,514.942528736 L588.362068966,514.942528736 L588.362068966,514.942528736 L588.362068966,514.942528736 L590.373563218,525.0 L582.327586207,539.08045977 L545.114942529,539.08045977 L543.103448276,519.971264368 L536.063218391,506.896551724 L534.051724138,493.82183908 Z" fill="#cee3f5" id="US.MO.023" stroke="#6e6e6e" stroke-width="0.4"><desc><name>Butler County</name><stateAbbrev>MO</stateAbbrev><state>Missouri</state><fips>023</fips><incits>29023</incits><id>US.MO.023</id><population>43083</population></desc></path><path d="M392.24137931,423.41954023 L393.247126437,380.172413793 L406.32183908,375.143678161 L434.482758621,376.149425287 L434.482758621,365.086206897 L444.540229885,365.086206897 L445.545977011,403.304597701 L416.379310345,403.304597701 L415.373563218,423.41954023 L392.24137931,423.41954023 Z" fill="#cee3f5" id="US.MO.161" stroke="#6e6e6e" stroke-width="0.4"><desc><name>Phelps County</name><stateAbbrev>MO</stateAbbrev><state>Missouri</state><fips>161</fips><incits>29161</incits><id>US.MO.161</id><population>44807</population></desc></path><path d="M411.350574713,207.183908046 L412.356321839,177.011494253 L454.597701149,177.011494253 L455.603448276,189.08045977 L467.672413793,204.166666667 L425.431034483,204.166666667 L425.431034483,207.183908046 L411.350574713,207.183908046 Z" fill="#cee3f5" id="US.MO.127" stroke="#6e6e6e" stroke-width="0.4"><desc><name>Marion County</name><stateAbbrev>MO</stateAbbrev><state>Missouri</state><fips>127</fips><incits>29127</incits><id>US.MO.127</id><population>28904</population></desc></path><path d="M630.603448276,473.706896552 L645.689655172,461.637931034 L658.764367816,460.632183908 L677.873563218,485.775862069 L670.833333333,486.781609195 L655.747126437,499.856321839 L637.643678161,501.867816092 L638.649425287,493.82183908 L627.586206897,477.729885057 L630.603448276,473.706896552 Z" fill="#cee3f5" id="US.MO.201" stroke="#6e6e6e" stroke-width="0.4"><desc><name>Scott County</name><stateAbbrev>MO</stateAbbrev><state>Missouri</state><fips>201</fips><incits>29201</incits><id>US.MO.201</id><population>39290</population></desc></path><path d="M172.988505747,285.632183908 L173.994252874,261.494252874 L178.017241379,262.5 L203.16091954,254.454022989 L210.201149425,255.459770115 L223.275862069,250.431034483 L236.350574713,254.454022989 L240.373563218,246.408045977 L238.362068966,282.614942529 L238.362068966,283.620689655 L202.155172414,282.614942529 L202.155172414,285.632183908 L172.988505747,285.632183908 Z" fill="#cee3f5" id="US.MO.107" stroke="#6e6e6e" stroke-width="0.4"><desc><name>Lafayette County</name><stateAbbrev>MO</stateAbbrev><state>Missouri</state><fips>107</fips><incits>29107</incits><id>US.MO.107</id><population>32943</population></desc></path></svg>