<?xml version='1.0' encoding='utf-8'?>
<svg height="700" width="700" xmlns="http://www.w3.org/2000/svg"><path d="M323.441941832,374.415044828 L323.901158977,375.945768642 L320.686638968,375.333479117 L322.676579926,372.578176252 L323.441941832,374.415044828 M331.707850426,373.802755303 L330.636343757,373.49661054 L332.013995189,372.578176252 L331.707850426,373.802755303 M334.616225672,370.12901815 L333.697791384,372.118959108 L332.167067571,371.965886726 L334.616225672,370.12901815 M342.269844741,343.800568555 L343.188279029,344.106713317 L345.025147606,344.259785699 L345.943581894,344.565930461 L346.862016182,346.555871419 L349.464246665,364.465340039 L344.565930461,369.210583862 L345.637437131,367.832932429 L343.800568555,365.68991909 L341.657555215,370.435162913 L338.596107588,370.894380057 L338.596107588,368.904439099 L341.504482834,367.832932429 L339.361469495,366.608353379 L338.289962825,368.445221955 L332.013995189,368.598294336 L326.656461841,371.965886726 L323.748086595,371.965886726 L323.441941832,366.76142576 L319.462059917,365.68991909 L314.563743713,369.669801006 L315.022960857,371.353597201 L311.96151323,369.05751148 L310.430789416,361.863109556 L313.798381806,353.750273344 L316.859829434,351.301115242 L328.79947518,350.382680953 L328.187185655,348.545812377 L334.616225672,342.882134266 L342.269844741,343.800568555 Z" fill="#cee3f5" id="JP.HS" stroke="#6e6e6e" stroke-width="0.4"><desc><labelrank>7</labelrank><code_hasc>JP.HS</code_hasc><name>Hiroshima</name><admin>Japan</admin><type_en>Prefecture</type_en><region>Chugoku</region><woe_id>2345861</woe_id><longitude>132</longitude><woe_name>Hiroshima</woe_name><fips>JA11</fips><woe_label>Hiroshima Prefecture, JP, Japan</woe_label><latitude>34</latitude><iso_a2>JP</iso_a2><postal>HS</postal><type>Ken</type><id>JP.HS</id></desc></path><path d="M377.782637218,340.892193309 L377.782637218,341.351410453 L377.476492456,342.269844741 L377.476492456,343.800568555 L373.649682921,348.392739996 L374.108900066,358.189372403 L371.353597201,357.424010496 L373.343538159,358.495517166 L369.363656243,361.710037175 L363.546905751,361.710037175 L363.546905751,362.781543844 L366.608353379,362.016181937 L363.240760988,366.302208616 L359.260879073,366.302208616 L357.424010496,363.240760988 L350.076536191,366.149136234 L351.607260004,364.312267658 L349.464246665,364.465340039 L346.862016182,346.555871419 L345.943581894,344.565930461 L346.402799038,344.106713317 L346.708943801,343.953640936 L347.168160945,343.800568555 L348.698884758,343.34135141 L349.311174284,343.035206648 L349.464246665,341.810627597 L349.617319047,341.504482834 L349.923463809,341.351410453 L351.301115242,341.351410453 L352.831839055,340.892193309 L353.137983818,339.667614258 L353.291056199,339.361469495 L353.597200962,339.208397113 L353.903345725,339.055324732 L354.209490488,338.749179969 L354.362562869,338.443035207 L354.821780013,337.524600918 L355.127924776,336.60616663 L355.434069539,336.300021867 L355.740214301,336.146949486 L356.199431445,336.146949486 L359.567023836,337.371528537 L360.179313361,337.6776733 L360.485458124,337.983818063 L360.944675268,338.289962825 L361.556964793,339.361469495 L361.863109556,339.361469495 L366.608353379,336.912311393 L367.067570523,338.136890444 L369.210583862,338.596107588 L369.975945769,339.208397113 L370.435162913,339.97375902 L370.894380057,341.351410453 L371.047452438,341.657555215 L371.047452438,342.11677236 L371.20052482,342.575989504 L371.506669582,342.729061885 L377.782637218,340.892193309 Z" fill="#cee3f5" id="JP.OY" stroke="#6e6e6e" stroke-width="0.4"><desc><labelrank>6</labelrank><code_hasc>JP.OY</code_hasc><name>Okayama</name><admin>Japan</admin><type_en>Prefecture</type_en><region>Chugoku</region><woe_id>2345880</woe_id><longitude>133</longitude><woe_name>Okayama</woe_name><fips>JA31</fips><woe_label>Okayama Prefecture, JP, Japan</woe_label><latitude>34</latitude><iso_a2>JP</iso_a2><postal>OY</postal><type>Ken</type><id>JP.OY</id></desc></path><path d="M342.269844741,343.800568555 L334.616225672,342.882134266 L328.187185655,348.545812377 L328.79947518,350.382680953 L316.859829434,351.301115242 L313.798381806,353.750273344 L310.430789416,361.863109556 L307.063197026,366.76142576 L302.471025585,366.302208616 L302.317953204,362.475399082 L300.021867483,361.250820031 L300.634157009,353.597200962 L305.838617975,352.678766674 L322.523507544,338.443035207 L329.258692325,334.922370435 L330.483271375,332.013995189 L329.564837087,330.024054231 L339.055324732,328.187185655 L342.575989504,325.584955172 L349.005029521,327.268751367 L347.474305707,327.727968511 L347.015088563,328.187185655 L347.015088563,328.187185655 L345.637437131,328.493330418 L345.48436475,328.79947518 L345.943581894,329.411764706 L346.555871419,330.94248852 L348.392739996,332.167067571 L348.545812377,332.473212333 L348.545812377,332.626284715 L348.545812377,332.779357096 L348.086595233,333.085501859 L347.933522852,333.23857424 L347.627378089,335.075442817 L347.627378089,336.300021867 L347.474305707,336.912311393 L347.321233326,337.371528537 L346.708943801,337.6776733 L344.259785699,338.596107588 L343.953640936,338.902252351 L343.647496173,339.208397113 L343.647496173,339.514541876 L343.800568555,340.279903783 L343.647496173,340.739120927 L342.882134266,341.963699978 L342.269844741,343.800568555 M342.575989504,307.675486551 L343.953640936,308.440848458 L340.892193309,310.583861798 L339.97375902,309.818499891 L342.575989504,307.675486551 M352.21954953,305.838617975 L350.535753335,307.369341789 L348.545812377,306.910124645 L347.015088563,305.073256068 L347.78045047,302.471025585 L350.229608572,301.093374153 L352.21954953,305.838617975 Z" fill="#cee3f5" id="JP.SM" stroke="#6e6e6e" stroke-width="0.4"><desc><labelrank>6</labelrank><code_hasc>JP.SM</code_hasc><name>Shimane</name><admin>Japan</admin><type_en>Prefecture</type_en><region>Chugoku</region><woe_id>2345885</woe_id><longitude>132</longitude><woe_name>Shimane</woe_name><fips>JA36</fips><woe_label>Shimane Prefecture, JP, Japan</woe_label><latitude>35</latitude><iso_a2>JP</iso_a2><postal>SM</postal><type>Ken</type><id>JP.SM</id></desc></path><path d="M378.854143888,341.351410453 L378.241854363,341.04526569 L377.782637218,340.892193309 L371.506669582,342.729061885 L371.20052482,342.575989504 L371.047452438,342.11677236 L371.047452438,341.657555215 L370.894380057,341.351410453 L370.435162913,339.97375902 L369.975945769,339.208397113 L369.210583862,338.596107588 L367.067570523,338.136890444 L366.608353379,336.912311393 L361.863109556,339.361469495 L361.556964793,339.361469495 L360.944675268,338.289962825 L360.485458124,337.983818063 L360.179313361,337.6776733 L359.567023836,337.371528537 L356.199431445,336.146949486 L355.740214301,336.146949486 L355.434069539,336.300021867 L355.127924776,336.60616663 L354.821780013,337.524600918 L354.362562869,338.443035207 L354.209490488,338.749179969 L353.903345725,339.055324732 L353.291056199,339.361469495 L353.137983818,339.667614258 L352.984911437,340.739120927 L352.831839055,340.892193309 L351.301115242,341.351410453 L349.923463809,341.351410453 L349.617319047,341.504482834 L349.464246665,341.810627597 L349.311174284,343.035206648 L348.698884758,343.34135141 L347.168160945,343.800568555 L346.708943801,343.953640936 L346.402799038,344.106713317 L345.943581894,344.565930461 L345.025147606,344.259785699 L343.188279029,344.106713317 L342.269844741,343.800568555 L343.647496173,339.208397113 L343.953640936,338.902252351 L344.259785699,338.596107588 L346.708943801,337.6776733 L347.321233326,337.371528537 L347.474305707,336.912311393 L347.627378089,336.300021867 L347.627378089,335.075442817 L347.933522852,333.23857424 L348.086595233,333.085501859 L348.239667614,332.932429477 L348.239667614,332.932429477 L348.545812377,332.779357096 L348.545812377,332.626284715 L348.545812377,332.473212333 L348.392739996,332.167067571 L347.321233326,331.554778045 L346.555871419,330.94248852 L345.48436475,328.79947518 L345.637437131,328.493330418 L347.015088563,328.187185655 L347.015088563,328.187185655 L347.168160945,329.564837087 L350.841898098,331.248633282 L355.893286683,328.952547562 L368.445221955,330.330198994 L377.782637218,328.340258036 L379.007216269,330.330198994 L379.619505795,333.850863766 L380.384867702,336.60616663 L380.997157227,337.524600918 L380.997157227,337.983818063 L380.997157227,338.136890444 L380.997157227,338.443035207 L381.150229609,339.055324732 L380.997157227,339.667614258 L380.844084846,340.126831402 L378.854143888,341.351410453 Z" fill="#cee3f5" id="JP.TT" stroke="#6e6e6e" stroke-width="0.4"><desc><labelrank>6</labelrank><code_hasc>JP.TT</code_hasc><name>Tottori</name><admin>Japan</admin><type_en>Prefecture</type_en><region>Chugoku</region><woe_id>2345890</woe_id><longitude>133</longitude><woe_name>Tottori</woe_name><fips>JA41</fips><woe_label>Tottori Prefecture, JP, Japan</woe_label><latitude>35</latitude><iso_a2>JP</iso_a2><postal>TT</postal><type>Ken</type><id>JP.TT</id></desc></path><path d="M315.788322764,380.23179532 L316.553684671,381.456374371 L320.686638968,380.384867702 L317.778263722,383.446315329 L316.247539908,381.915591515 L313.339164662,382.527881041 L313.186092281,379.619505795 L315.788322764,380.23179532 M310.430789416,361.863109556 L311.96151323,369.05751148 L315.022960857,371.353597201 L313.645309425,378.088781981 L311.196151323,379.619505795 L311.655368467,382.987098185 L308.59392084,384.823966761 L310.124644653,381.762519134 L303.389459873,376.86420293 L301.246446534,377.629564837 L302.777170348,375.792696261 L300.481084627,374.56811721 L296.34813033,374.874261972 L295.735840805,376.558058168 L293.133610321,374.721189591 L291.755958889,376.404985786 L290.531379838,374.261972447 L286.398425541,377.782637218 L284.255412202,377.323420074 L280.581675049,373.037393396 L276.754865515,377.170347693 L275.836431227,376.251913405 L277.214082659,373.955827684 L275.989503608,370.282090531 L277.826372185,368.139077192 L277.520227422,362.628471463 L281.653181719,361.710037175 L279.357095998,360.179313361 L284.561556965,360.944675268 L285.479991253,362.628471463 L285.633063634,360.485458124 L288.694511262,361.556964793 L287.316859829,361.097747649 L286.551497923,362.628471463 L292.521320796,361.250820031 L298.338071288,353.903345725 L300.634157009,353.597200962 L300.021867483,361.250820031 L302.317953204,362.475399082 L302.471025585,366.302208616 L307.063197026,366.76142576 L310.430789416,361.863109556 Z" fill="#cee3f5" id="JP.YC" stroke="#6e6e6e" stroke-width="0.4"><desc><labelrank>6</labelrank><code_hasc>JP.YC</code_hasc><name>Yamaguchi</name><admin>Japan</admin><type_en>Prefecture</type_en><region>Chugoku</region><woe_id>2345894</woe_id><longitude>131</longitude><woe_name>Yamaguchi</woe_name><fips>JA45</fips><woe_label>Yamaguchi Prefecture, JP, Japan</woe_label><latitude>34</latitude><iso_a2>JP</iso_a2><postal>YC</postal><type>Ken</type><id>JP.YC</id></desc></path><path d="M250.273343538,390.181500109 L256.702383556,390.487644872 L260.835337853,393.702164881 L264.049857861,393.089875355 L263.89678548,395.692105839 L259.304614039,398.600481085 L258.080034988,401.815001093 L255.171659742,399.825060136 L251.65099497,401.815001093 L253.181718784,408.090968729 L249.201836869,406.560244916 L245.681172097,402.886507763 L246.140389241,400.896566805 L241.701290182,395.692105839 L243.538158758,393.702164881 L244.303520665,395.539033457 L245.221954953,391.712223923 L243.232013995,389.416138202 L244.150448283,388.497703914 L245.528099716,390.181500109 L245.375027334,386.354690575 L247.824185436,387.273124863 L248.589547343,390.028427728 L250.273343538,390.181500109 Z" fill="#cee3f5" id="JP.SG" stroke="#6e6e6e" stroke-width="0.4"><desc><labelrank>6</labelrank><code_hasc>JP.SG</code_hasc><name>Saga</name><admin>Japan</admin><type_en>Prefecture</type_en><region /><woe_id>2345882</woe_id><longitude>130</longitude><woe_name>Saga</woe_name><fips>JA33</fips><woe_label>Saga Prefecture, JP, Japan</woe_label><latitude>33</latitude><iso_a2>JP</iso_a2><postal>SG</postal><type>Ken</type><id>JP.SG</id></desc></path><path d="M283.796195058,388.191559152 L281.959326482,392.018368686 L277.214082659,391.559151542 L274.305707413,393.702164881 L272.621911218,396.457467745 L271.70347693,405.182593483 L267.570522633,402.733435382 L259.763831183,407.478679204 L259.916903564,403.804942051 L258.080034988,401.815001093 L259.304614039,398.600481085 L263.89678548,395.692105839 L264.049857861,393.089875355 L260.835337853,393.702164881 L256.702383556,390.487644872 L250.273343538,390.181500109 L254.253225454,387.885414389 L252.263284496,386.354690575 L255.937021649,383.59938771 L257.926962607,386.966980101 L260.835337853,386.201618194 L261.294554997,384.058604855 L259.763831183,384.823966761 L258.386179751,382.987098185 L260.988410234,383.752460092 L263.590640717,381.762519134 L264.509075005,377.9357096 L270.478897879,375.792696261 L274.458779794,376.098841023 L276.14257599,377.9357096 L279.51016838,375.639623879 L277.673299803,380.691012464 L279.050951236,380.844084846 L280.581675049,387.120052482 L283.796195058,388.191559152 Z" fill="#cee3f5" id="JP.FO" stroke="#6e6e6e" stroke-width="0.4"><desc><labelrank>7</labelrank><code_hasc>JP.FO</code_hasc><name>Fukuoka</name><admin>Japan</admin><type_en>Prefecture</type_en><region>Kyushu</region><woe_id>58646425</woe_id><longitude>130</longitude><woe_name>Fukuoka</woe_name><fips>JA07</fips><woe_label>Fukuoka Prefecture, JP, Japan</woe_label><latitude>33</latitude><iso_a2>JP</iso_a2><postal>FO</postal><type>Ken</type><id>JP.FO</id></desc></path><path d="M249.35490925,436.10321452 L248.28340258,432.582549749 L250.120271157,433.347911655 L249.35490925,436.10321452 M256.855455937,423.245134485 L259.304614039,423.398206866 L256.702383556,427.071944019 L252.416356877,426.765799257 L251.957139733,424.622785917 L256.855455937,423.245134485 M251.344850208,422.326700197 L251.038705445,428.602667833 L244.609665428,432.888694511 L245.221954953,430.898753553 L243.844303521,430.745681172 L246.905751148,429.214957358 L244.609665428,428.143450689 L245.98731686,421.408265909 L251.344850208,422.326700197 M259.151541658,420.030614476 L258.233107369,422.479772578 L257.620817844,420.48983162 L259.151541658,420.030614476 M284.867701728,415.285370654 L282.418543626,416.050732561 L274.611852176,425.847364968 L276.448720752,431.817187842 L275.683358845,437.17472119 L264.96829215,438.399300241 L261.600699759,435.643997376 L256.702383556,436.868576427 L254.559370216,435.03170785 L258.845396895,429.061884977 L259.916903564,429.521102121 L261.600699759,424.316641155 L262.978351192,424.010496392 L262.212989285,422.63284496 L265.427509294,419.418324951 L259.151541658,419.724469714 L264.509075005,417.12223923 L263.89678548,413.448502077 L259.763831183,407.478679204 L267.570522633,402.733435382 L271.70347693,405.182593483 L275.989503608,407.325606823 L275.989503608,402.886507763 L279.204023617,403.039580144 L284.867701728,415.285370654 Z" fill="#cee3f5" id="JP.KM" stroke="#6e6e6e" stroke-width="0.4"><desc><labelrank>6</labelrank><code_hasc>JP.KM</code_hasc><name>Kumamoto</name><admin>Japan</admin><type_en>Prefecture</type_en><region>Kyushu</region><woe_id>2345870</woe_id><longitude>130</longitude><woe_name>Kumamoto</woe_name><fips>JA21</fips><woe_label>Kumamoto Prefecture, JP, Japan</woe_label><latitude>32</latitude><iso_a2>JP</iso_a2><postal>KM</postal><type>Ken</type><id>JP.KM</id></desc></path><path d="M300.174939864,419.724469714 L294.205116991,426.00043735 L295.582768423,427.531161163 L293.439755084,427.837305926 L294.05204461,429.827246884 L290.990596982,433.500984037 L285.479991253,447.583643123 L286.704570304,450.492018369 L284.867701728,456.308768861 L280.734747431,464.421605073 L275.683358845,460.594795539 L277.061010278,456.767986005 L273.234200743,454.624972666 L269.101246447,449.114366936 L268.948174065,445.746774546 L264.96829215,438.399300241 L275.683358845,437.17472119 L276.448720752,431.817187842 L274.611852176,425.847364968 L282.418543626,416.050732561 L284.867701728,415.285370654 L289.153728406,415.897660179 L290.378307457,418.499890663 L295.276623661,418.1937459 L297.266564618,416.356877323 L300.174939864,419.724469714 Z" fill="#cee3f5" id="JP.MZ" stroke="#6e6e6e" stroke-width="0.4"><desc><labelrank>6</labelrank><code_hasc>JP.MZ</code_hasc><name>Miyazaki</name><admin>Japan</admin><type_en>Prefecture</type_en><region>Kyushu</region><woe_id>2345874</woe_id><longitude>131</longitude><woe_name>Miyazaki</woe_name><fips>JA25</fips><woe_label>Miyazaki Prefecture, JP, Japan</woe_label><latitude>32</latitude><iso_a2>JP</iso_a2><postal>MZ</postal><type>Ken</type><id>JP.MZ</id></desc></path><path d="M324.972665646,380.23179532 L324.054231358,379.619505795 L325.738027553,378.241854363 L324.972665646,380.23179532 M352.525694293,379.925650558 L354.362562869,380.997157227 L353.597200962,385.74240105 L340.279903783,387.579269626 L334.463153291,397.222829652 L328.952547562,397.835119178 L330.636343757,402.427290619 L324.513448502,408.397113492 L322.676579926,407.325606823 L323.748086595,412.530067789 L322.676579926,415.591515417 L320.380494205,414.520008747 L318.69669801,415.897660179 L318.237480866,410.693199213 L315.635250383,411.305488738 L316.553684671,409.621692543 L318.69669801,409.927837306 L317.778263722,408.244041111 L319.002842773,407.631751585 L316.553684671,405.029521102 L319.002842773,406.407172534 L320.992783731,404.570303958 L319.308987536,402.886507763 L320.533566586,401.661928712 L316.40061229,401.049639187 L317.931336103,396.91668489 L314.716816094,395.998250601 L305.991690356,399.21277061 L317.931336103,393.855237262 L325.891099934,388.344631533 L327.421823748,382.068663897 L329.258692325,379.160288651 L333.697791384,377.017275312 L333.23857424,375.180406735 L334.463153291,374.56811721 L339.208397113,382.068663897 L344.872075224,380.537940083 L350.076536191,381.762519134 L352.525694293,379.925650558 M338.596107588,373.802755303 L336.60616663,375.486551498 L337.218456156,373.190465777 L338.596107588,373.802755303 M339.361469495,371.812814345 L339.514541876,373.190465777 L337.830745681,372.578176252 L339.361469495,371.812814345 M337.830745681,372.118959108 L335.075442817,372.731248633 L336.759239012,369.669801006 L337.830745681,372.118959108 Z" fill="#cee3f5" id="JP.EH" stroke="#6e6e6e" stroke-width="0.4"><desc><labelrank>6</labelrank><code_hasc>JP.EH</code_hasc><name>Ehime</name><admin>Japan</admin><type_en>Prefecture</type_en><region>Shikoku</region><woe_id>2345855</woe_id><longitude>132</longitude><woe_name>Ehime</woe_name><fips>JA05</fips><woe_label>Ehime Prefecture, JP, Japan</woe_label><latitude>33</latitude><iso_a2>JP</iso_a2><postal>EH</postal><type>Ken</type><id>JP.EH</id></desc></path><path d="M376.86420293,375.333479117 L375.792696261,377.017275312 L369.05751148,376.558058168 L363.699978133,379.007216269 L359.260879073,378.088781981 L354.362562869,380.997157227 L352.525694293,379.925650558 L354.362562869,375.180406735 L352.066477148,371.965886726 L356.046359064,373.190465777 L363.087688607,368.751366718 L367.067570523,369.975945769 L368.904439099,368.598294336 L369.363656243,370.894380057 L370.741307675,369.975945769 L376.86420293,375.333479117 M375.486551498,364.924557183 L374.56811721,367.679860048 L373.955827684,366.455280997 L371.659741964,367.986004811 L371.812814345,366.455280997 L369.516728625,365.68991909 L373.037393396,363.853050514 L375.486551498,363.546905751 L375.486551498,364.924557183 Z" fill="#cee3f5" id="JP.KG" stroke="#6e6e6e" stroke-width="0.4"><desc><labelrank>6</labelrank><code_hasc>JP.KG</code_hasc><name>Kagawa</name><admin>Japan</admin><type_en>Prefecture</type_en><region>Shikoku</region><woe_id>2345866</woe_id><longitude>134</longitude><woe_name>Kagawa</woe_name><fips>JA17</fips><woe_label>Kagawa Prefecture, JP, Japan</woe_label><latitude>34</latitude><iso_a2>JP</iso_a2><postal>KG</postal><type>Ken</type><id>JP.KG</id></desc></path><path d="M371.20052482,397.988191559 L367.220642904,407.784823967 L360.638530505,398.600481085 L355.434069539,396.763612508 L342.422917122,401.661928712 L339.97375902,408.397113492 L333.23857424,413.75464684 L331.401705664,419.418324951 L333.23857424,422.785917341 L330.177126613,420.642904002 L326.50338946,421.56133829 L324.360376121,419.724469714 L321.911218019,420.795976383 L324.666520883,415.744587798 L322.676579926,415.591515417 L323.748086595,412.530067789 L322.676579926,407.325606823 L324.513448502,408.397113492 L330.636343757,402.427290619 L328.952547562,397.835119178 L334.463153291,397.222829652 L340.279903783,387.579269626 L353.597200962,385.74240105 L360.791602887,388.650776296 L364.006122895,388.03848677 L364.924557183,392.47758583 L367.526787667,393.549092499 L368.292149574,397.069757271 L371.20052482,397.988191559 Z" fill="#cee3f5" id="JP.KC" stroke="#6e6e6e" stroke-width="0.4"><desc><labelrank>6</labelrank><code_hasc>JP.KC</code_hasc><name>Kochi</name><admin>Japan</admin><type_en>Prefecture</type_en><region>Shikoku</region><woe_id>2345869</woe_id><longitude>133</longitude><woe_name>Kochi</woe_name><fips>JA20</fips><woe_label>Kochi Prefecture, JP, Japan</woe_label><latitude>33</latitude><iso_a2>JP</iso_a2><postal>KC</postal><type>Ken</type><id>JP.KC</id></desc></path><path d="M300.174939864,419.724469714 L297.266564618,416.356877323 L295.276623661,418.1937459 L290.378307457,418.499890663 L289.153728406,415.897660179 L284.867701728,415.285370654 L279.204023617,403.039580144 L275.989503608,402.886507763 L275.989503608,407.325606823 L271.70347693,405.182593483 L272.621911218,396.457467745 L274.305707413,393.702164881 L277.214082659,391.559151542 L281.959326482,392.018368686 L283.796195058,388.191559152 L288.388366499,389.875355347 L293.133610321,386.966980101 L297.725781763,388.497703914 L298.950360813,392.018368686 L297.572709381,396.457467745 L295.735840805,395.998250601 L294.205116991,398.141263941 L291.755958889,397.528974415 L291.602886508,400.437349661 L302.624097966,401.815001093 L299.562650339,406.254100153 L302.471025585,406.560244916 L301.552591297,408.244041111 L304.767111305,407.937896348 L305.073256068,409.31554778 L302.777170348,409.162475399 L301.858736059,411.305488738 L306.910124645,413.448502077 L304.307894161,414.213863984 L302.930242729,416.663022086 L304.001749399,417.428383993 L300.634157009,418.040673518 L300.174939864,419.724469714 Z" fill="#cee3f5" id="JP.OT" stroke="#6e6e6e" stroke-width="0.4"><desc><labelrank>7</labelrank><code_hasc>JP.OT</code_hasc><name>Oita</name><admin>Japan</admin><type_en>Prefecture</type_en><region>Kyushu</region><woe_id>2345879</woe_id><longitude>131</longitude><woe_name>Oita</woe_name><fips>JA30</fips><woe_label>Oita Prefecture, JP, Japan</woe_label><latitude>33</latitude><iso_a2>JP</iso_a2><postal>OT</postal><type>Ken</type><id>JP.OT</id></desc></path><path d="M371.20052482,397.988191559 L368.292149574,397.069757271 L367.526787667,393.549092499 L364.924557183,392.47758583 L364.006122895,388.03848677 L360.791602887,388.650776296 L353.597200962,385.74240105 L354.362562869,380.997157227 L359.260879073,378.088781981 L363.699978133,379.007216269 L369.05751148,376.558058168 L375.792696261,377.017275312 L376.86420293,375.333479117 L382.527881041,374.721189591 L380.844084846,382.37480866 L383.59938771,384.977039143 L381.762519134,387.732342007 L384.67089438,388.497703914 L374.56811721,394.008309644 L371.20052482,397.988191559 Z" fill="#cee3f5" id="JP.TS" stroke="#6e6e6e" stroke-width="0.4"><desc><labelrank>6</labelrank><code_hasc>JP.TS</code_hasc><name>Tokushima</name><admin>Japan</admin><type_en>Prefecture</type_en><region>Shikoku</region><woe_id>2345888</woe_id><longitude>134</longitude><woe_name>Tokushima</woe_name><fips>JA39</fips><woe_label>Tokushima Prefecture, JP, Japan</woe_label><latitude>33</latitude><iso_a2>JP</iso_a2><postal>TS</postal><type>Ken</type><id>JP.TS</id></desc></path><path d="M442.685326919,351.301115242 L440.695385961,347.321233326 L443.450688826,340.432976164 L448.655149792,339.514541876 L454.471900284,344.41285808 L454.778045047,344.565930461 L455.390334572,344.565930461 L457.992565056,343.800568555 L461.513229827,345.637437131 L462.737808878,345.178219987 L463.656243166,344.41285808 L465.033894599,343.953640936 L465.646184124,346.708943801 L468.095342226,346.096654275 L470.544500328,346.555871419 L472.075224142,346.708943801 L471.769079379,348.698884758 L471.462934616,349.464246665 L471.003717472,350.535753335 L470.391427947,351.14804286 L468.860704133,352.525694293 L468.55455937,352.984911437 L466.564618412,357.117865734 L465.18696698,358.342444785 L463.503170785,358.801661929 L463.043953641,359.107806691 L462.89088126,359.413951454 L462.278591734,360.638530505 L462.125519353,361.250820031 L461.972446971,362.169254319 L462.125519353,363.546905751 L462.125519353,364.006122895 L452.941176471,366.455280997 L449.420511699,366.608353379 L451.104307894,363.853050514 L452.022742182,365.230701946 L456.921058386,361.863109556 L457.533347912,363.240760988 L458.145637437,360.485458124 L455.390334572,358.801661929 L454.01268314,360.638530505 L449.726656462,359.720096217 L448.042860267,358.036300022 L448.808222174,354.974852394 L446.818281216,359.873168598 L448.34900503,362.628471463 L446.665208834,362.016181937 L444.828340258,360.638530505 L444.522195495,355.740214301 L446.512136453,349.311174284 L445.440629784,350.994970479 L444.981412639,349.617319047 L445.134485021,351.14804286 L442.685326919,351.301115242 Z" fill="#cee3f5" id="JP.AI" stroke="#6e6e6e" stroke-width="0.4"><desc><labelrank>6</labelrank><code_hasc>JP.AI</code_hasc><name>Aichi</name><admin>Japan</admin><type_en>Prefecture</type_en><region>Chubu</region><woe_id>2345851</woe_id><longitude>137</longitude><woe_name>Aichi</woe_name><fips>JA01</fips><woe_label>Aichi Prefecture, JP, Japan</woe_label><latitude>34</latitude><iso_a2>JP</iso_a2><postal>AI</postal><type>Ken</type><id>JP.AI</id></desc></path><path d="M466.870763175,306.603979882 L468.401486989,308.746993221 L465.799256506,315.32910562 L466.717690794,318.237480866 L459.523288869,325.738027553 L462.737808878,328.187185655 L466.25847365,336.300021867 L466.717690794,340.126831402 L465.646184124,340.586048546 L465.952328887,341.963699978 L465.799256506,342.422917122 L465.493111743,342.882134266 L465.033894599,343.953640936 L463.656243166,344.41285808 L462.737808878,345.178219987 L461.513229827,345.637437131 L457.992565056,343.800568555 L455.390334572,344.565930461 L454.778045047,344.565930461 L454.471900284,344.41285808 L448.655149792,339.514541876 L443.450688826,340.432976164 L441.001530724,344.106713317 L440.848458342,344.872075224 L440.695385961,347.321233326 L439.164662147,346.708943801 L438.246227859,346.096654275 L437.480865952,345.331292368 L437.327793571,345.025147606 L437.021648808,344.41285808 L436.715504045,344.106713317 L433.194839274,344.872075224 L432.582549749,343.953640936 L432.582549749,342.729061885 L433.500984037,336.453094249 L429.980319265,329.717909469 L432.276404986,325.738027553 L436.409359283,326.962606604 L444.216050733,325.584955172 L445.287557402,323.595014214 L442.532254538,320.227421824 L442.8383993,317.931336103 L443.450688826,316.40061229 L443.297616444,315.941395145 L446.20599169,310.583861798 L446.052919309,310.277717035 L445.593702165,309.512355128 L445.440629784,309.359282747 L445.134485021,308.59392084 L445.746774546,308.746993221 L446.20599169,308.59392084 L447.27749836,307.063197026 L449.57358408,307.675486551 L450.032801225,309.512355128 L455.390334572,304.307894161 L459.064071725,303.848677017 L466.870763175,306.603979882 Z" fill="#cee3f5" id="JP.GF" stroke="#6e6e6e" stroke-width="0.4"><desc><labelrank>7</labelrank><code_hasc>JP.GF</code_hasc><name>Gifu</name><admin>Japan</admin><type_en>Prefecture</type_en><region>Chubu</region><woe_id>2345859</woe_id><longitude>136</longitude><woe_name>Gifu</woe_name><fips>JA09</fips><woe_label>Gifu Prefecture, JP, Japan</woe_label><latitude>35</latitude><iso_a2>JP</iso_a2><postal>GF</postal><type>Ken</type><id>JP.GF</id></desc></path><path d="M453.706538377,280.275530286 L450.951235513,281.653181719 L449.879728843,280.122457905 L453.706538377,280.275530286 M462.278591734,270.478897879 L459.676361251,270.938115023 L458.910999344,275.377214083 L455.543406954,275.683358845 L452.941176471,278.897878854 L451.257380276,277.061010278 L449.57358408,279.050951236 L448.655149792,282.265471244 L451.869669801,283.490050295 L453.706538377,281.8062541 L453.706538377,286.24535316 L453.400393615,286.551497923 L451.71659742,286.704570304 L450.798163131,287.010715067 L449.879728843,287.010715067 L449.57358408,287.163787448 L449.267439318,287.469932211 L448.655149792,288.235294118 L448.34900503,288.694511262 L447.430570741,290.531379838 L447.27749836,291.909031271 L446.818281216,293.133610321 L446.665208834,293.439755084 L446.052919309,294.05204461 L445.899846928,294.205116991 L445.899846928,294.664334135 L446.052919309,295.429696042 L446.052919309,296.041985567 L445.746774546,300.174939864 L445.287557402,301.705663678 L444.981412639,303.695604636 L444.828340258,304.307894161 L445.287557402,305.838617975 L444.828340258,307.675486551 L445.134485021,308.59392084 L445.440629784,309.359282747 L445.593702165,309.512355128 L446.052919309,310.277717035 L446.20599169,310.583861798 L443.297616444,315.941395145 L441.613820249,316.247539908 L441.001530724,316.094467527 L432.582549749,312.267657993 L431.66411546,309.665427509 L430.133391647,308.134703696 L435.950142139,303.542532255 L445.593702165,289.153728406 L445.134485021,280.428602668 L443.603761207,279.663240761 L445.287557402,273.693417888 L459.829433632,267.570522633 L462.125519353,268.029739777 L462.278591734,270.478897879 Z" fill="#cee3f5" id="JP.IS" stroke="#6e6e6e" stroke-width="0.4"><desc><labelrank>6</labelrank><code_hasc>JP.IS</code_hasc><name>Ishikawa</name><admin>Japan</admin><type_en>Prefecture</type_en><region>Chubu</region><woe_id>2345864</woe_id><longitude>136</longitude><woe_name>Ishikawa</woe_name><fips>JA15</fips><woe_label>Ishikawa Prefecture, JP, Japan</woe_label><latitude>36</latitude><iso_a2>JP</iso_a2><postal>IS</postal><type>Ken</type><id>JP.IS</id></desc></path><path d="M442.685326919,351.301115242 L440.083096436,352.525694293 L435.643997376,362.628471463 L436.409359283,365.383774328 L446.359064072,371.353597201 L445.593702165,377.017275312 L442.685326919,377.323420074 L444.216050733,375.639623879 L440.236168817,375.792696261 L440.389241198,374.56811721 L429.827246884,379.160288651 L428.908812596,382.221736278 L426.306582112,382.680953422 L427.684233545,386.201618194 L426.612726875,385.436256287 L426.459654494,387.273124863 L422.938989722,388.650776296 L419.418324951,395.539033457 L415.897660179,391.865296304 L415.438443035,390.793789635 L415.438443035,390.640717253 L415.591515417,390.181500109 L420.642904002,384.823966761 L421.102121146,384.517821999 L422.63284496,384.67089438 L422.938989722,384.67089438 L422.938989722,384.364749617 L422.63284496,383.293242948 L423.85742401,376.86420293 L422.785917341,371.659741964 L423.092062104,371.20052482 L423.398206866,370.894380057 L425.847364968,370.435162913 L426.459654494,369.669801006 L426.765799257,369.210583862 L426.765799257,368.751366718 L426.765799257,368.445221955 L426.612726875,368.292149574 L425.235075443,367.067570523 L424.92893068,367.067570523 L424.163568773,366.914498141 L422.63284496,365.996063853 L422.785917341,364.159195277 L422.173627815,363.546905751 L422.326700197,363.39383337 L422.938989722,363.240760988 L423.245134485,362.934616226 L422.938989722,361.250820031 L422.326700197,360.791602887 L421.408265909,358.801661929 L423.704351629,358.036300022 L424.316641155,357.424010496 L424.622785917,356.964793352 L424.622785917,355.740214301 L425.082003061,355.740214301 L426.612726875,356.046359064 L428.29652307,356.199431445 L430.286464028,355.740214301 L431.051825935,355.280997157 L431.66411546,354.821780013 L431.970260223,354.51563525 L432.276404986,354.209490488 L433.041766893,352.831839055 L433.807128799,349.617319047 L434.266345944,347.321233326 L434.266345944,347.015088563 L433.194839274,344.872075224 L436.715504045,344.106713317 L437.021648808,344.41285808 L437.327793571,345.025147606 L437.480865952,345.331292368 L438.246227859,346.096654275 L439.164662147,346.708943801 L440.695385961,347.321233326 L442.685326919,351.301115242 Z" fill="#cee3f5" id="JP.ME" stroke="#6e6e6e" stroke-width="0.4"><desc><labelrank>6</labelrank><code_hasc>JP.ME</code_hasc><name>Mie</name><admin>Japan</admin><type_en>Prefecture</type_en><region>Kinki</region><woe_id>2345872</woe_id><longitude>136</longitude><woe_name>Mie</woe_name><fips>JA23</fips><woe_label>Mie Prefecture, JP, Japan</woe_label><latitude>34</latitude><iso_a2>JP</iso_a2><postal>ME</postal><type>Ken</type><id>JP.ME</id></desc></path><path d="M497.485239449,295.582768423 L492.586923245,297.113492237 L489.066258474,304.307894161 L490.596982287,306.603979882 L495.34222611,306.757052263 L493.964574677,315.022960857 L495.036081347,319.155915154 L497.485239449,321.298928493 L497.791384212,323.748086595 L495.189153728,325.125738028 L488.147824185,321.452000875 L482.943363219,327.115678985 L483.249507982,332.473212333 L480.647277498,341.504482834 L472.075224142,346.708943801 L468.095342226,346.096654275 L465.646184124,346.708943801 L465.033894599,343.953640936 L465.493111743,342.882134266 L465.799256506,342.422917122 L465.952328887,341.963699978 L465.646184124,340.586048546 L466.717690794,340.126831402 L466.25847365,336.300021867 L462.737808878,328.187185655 L459.523288869,325.738027553 L466.717690794,318.237480866 L465.799256506,315.32910562 L468.401486989,308.746993221 L466.870763175,306.603979882 L471.309862235,299.562650339 L471.769079379,293.439755084 L473.759020337,292.521320796 L475.595888913,288.694511262 L478.963481303,289.459873169 L480.341132736,292.521320796 L481.412639405,291.755958889 L483.555652744,291.602886508 L484.014869888,291.449814126 L484.780231795,290.990596982 L484.933304177,290.990596982 L486.310955609,291.296741745 L489.219330855,287.163787448 L489.678547999,286.857642685 L490.750054669,286.24535316 L492.893068008,285.939208397 L497.179094686,292.062103652 L497.485239449,295.582768423 Z" fill="#cee3f5" id="JP.NN" stroke="#6e6e6e" stroke-width="0.4"><desc><labelrank>6</labelrank><code_hasc>JP.NN</code_hasc><name>Nagano</name><admin>Japan</admin><type_en>Prefecture</type_en><region>Chubu</region><woe_id>2345875</woe_id><longitude>138</longitude><woe_name>Nagano</woe_name><fips>JA26</fips><woe_label>Nagano Prefecture, JP, Japan</woe_label><latitude>36</latitude><iso_a2>JP</iso_a2><postal>NN</postal><type>Ken</type><id>JP.NN</id></desc></path><path d="M502.383555653,341.198338071 L504.832713755,341.198338071 L504.373496611,347.168160945 L507.588016619,350.229608572 L508.81259567,358.495517166 L504.679641373,363.087688607 L504.526568992,365.842991472 L500.087469932,367.679860048 L497.63831183,364.312267658 L498.403673737,354.668707632 L499.015963263,353.137983818 L502.383555653,352.984911437 L499.628252788,349.923463809 L496.566805161,349.311174284 L492.739995627,350.535753335 L491.515416576,354.51563525 L486.923245134,356.964793352 L486.46402799,359.567023836 L482.943363219,363.240760988 L483.249507982,367.220642904 L476.055106057,364.618412421 L471.003717472,365.383774328 L468.095342226,364.159195277 L464.268532692,363.853050514 L462.125519353,364.006122895 L461.972446971,362.169254319 L462.125519353,361.250820031 L462.278591734,360.638530505 L462.89088126,359.413951454 L463.043953641,359.107806691 L463.503170785,358.801661929 L465.18696698,358.342444785 L466.564618412,357.117865734 L471.003717472,350.535753335 L471.462934616,349.464246665 L471.769079379,348.698884758 L471.769079379,347.78045047 L472.075224142,346.708943801 L480.647277498,341.504482834 L483.249507982,332.473212333 L484.014869888,343.34135141 L486.923245134,343.800568555 L489.372403236,348.392739996 L491.515416576,347.321233326 L492.586923245,339.820686639 L496.872949923,342.11677236 L502.383555653,341.198338071 Z" fill="#cee3f5" id="JP.SZ" stroke="#6e6e6e" stroke-width="0.4"><desc><labelrank>6</labelrank><code_hasc>JP.SZ</code_hasc><name>Shizuoka</name><admin>Japan</admin><type_en>Prefecture</type_en><region>Chubu</region><woe_id>2345886</woe_id><longitude>138</longitude><woe_name>Shizuoka</woe_name><fips>JA37</fips><woe_label>Shizuoka Prefecture, JP, Japan</woe_label><latitude>35</latitude><iso_a2>JP</iso_a2><postal>SZ</postal><type>Ken</type><id>JP.SZ</id></desc></path><path d="M471.769079379,293.439755084 L471.309862235,299.562650339 L466.870763175,306.603979882 L459.064071725,303.848677017 L455.390334572,304.307894161 L450.032801225,309.512355128 L449.57358408,307.675486551 L447.27749836,307.063197026 L446.20599169,308.59392084 L445.746774546,308.746993221 L445.134485021,308.59392084 L444.828340258,307.675486551 L445.287557402,305.838617975 L444.828340258,304.307894161 L444.981412639,303.695604636 L445.287557402,301.705663678 L445.746774546,300.174939864 L445.899846928,294.205116991 L446.052919309,294.05204461 L446.665208834,293.439755084 L446.818281216,293.133610321 L447.27749836,291.909031271 L447.430570741,290.531379838 L448.34900503,288.694511262 L448.655149792,288.235294118 L449.267439318,287.469932211 L449.57358408,287.163787448 L449.879728843,287.010715067 L450.798163131,287.010715067 L451.71659742,286.704570304 L453.400393615,286.551497923 L452.941176471,287.163787448 L451.71659742,289.306800787 L452.175814564,290.531379838 L456.155696479,293.286682703 L459.982506014,293.592827466 L462.431664115,292.215176033 L463.656243166,288.082221736 L468.860704133,286.551497923 L468.860704133,286.704570304 L469.472993658,287.316859829 L471.003717472,288.694511262 L471.769079379,293.439755084 Z" fill="#cee3f5" id="JP.TY" stroke="#6e6e6e" stroke-width="0.4"><desc><labelrank>6</labelrank><code_hasc>JP.TY</code_hasc><name>Toyama</name><admin>Japan</admin><type_en>Prefecture</type_en><region>Chubu</region><woe_id>2345891</woe_id><longitude>137</longitude><woe_name>Toyama</woe_name><fips>JA42</fips><woe_label>Toyama Prefecture, JP, Japan</woe_label><latitude>36</latitude><iso_a2>JP</iso_a2><postal>TY</postal><type>Ken</type><id>JP.TY</id></desc></path><path d="M522.589109993,115.875792696 L521.05838618,116.33500984 L520.599169036,112.661272688 L523.966761426,110.365186967 L522.589109993,115.875792696 M665.864858955,64.749617319 L666.630220862,63.2188935054 L663.262628471,61.841242073 L667.242510387,63.2188935054 L665.864858955,64.749617319 M566.827028209,14.2357314673 L563.459435819,11.9396457468 L564.68401487,9.49048764487 L568.204679641,11.7865733654 L566.827028209,14.2357314673 M560.551060573,2.75530286464 L562.081784387,3.36759239012 L561.163350098,8.72512573803 L559.632626285,1.9899409578 L560.551060573,2.75530286464 M584.583424448,2.14301333916 L608.156571179,31.0736934179 L618.565493112,39.7988191559 L627.749835994,43.9317734529 L625.453750273,44.2379182156 L626.678329324,46.5340039361 L636.168816969,45.6155696479 L637.39339602,46.3809315548 L635.862672206,48.983162038 L637.087251257,49.2893068008 L639.077192215,45.7686420293 L642.750929368,51.1261753772 L651.476055106,52.1976820468 L665.405641811,37.0435162913 L666.324076099,40.2580363 L659.895036081,56.6367811065 L668.620161819,71.9440192434 L665.252569429,71.4848020993 L671.681609447,74.3931773453 L671.222392303,72.7093811502 L675.049201837,69.1887163787 L679.029083752,69.0356439974 L674.28383993,71.4848020993 L672.140826591,76.3831183031 L662.497266565,78.2199868795 L663.415700853,79.9037830746 L659.282746556,81.2814345069 L659.7419637,83.1183030833 L656.833588454,83.5775202274 L654.231357971,81.4345068883 L653.00677892,85.5674611852 L646.118521758,85.4143888038 L642.597856987,83.4244478461 L632.035862672,89.0881259567 L624.535315985,97.507106932 L619.177782637,107.30373934 L616.728624535,120.467964137 L609.534222611,114.651213645 L596.982287339,109.446752679 L589.481740652,103.170785043 L580.756614914,98.5786136016 L576.164443473,97.9663240761 L570.959982506,99.8031926525 L559.785698666,108.681390772 L553.662803411,99.8031926525 L546.77454625,99.8031926525 L543.560026241,104.242291712 L542.641591953,110.059042204 L549.07063197,115.263503171 L553.203586267,114.345068883 L559.785698666,121.692543188 L565.449376777,125.519352723 L560.551060573,128.58080035 L555.958889132,126.590859392 L553.050513886,127.356221299 L553.50973103,125.21320796 L551.825934835,124.600918434 L550.295211021,127.662366062 L546.468401487,129.499234638 L546.009184343,134.550623223 L542.029302427,136.234419418 L540.345506232,138.989722283 L537.590203368,138.530505139 L534.52875574,132.713754647 L538.355565274,125.060135578 L538.814782419,119.243385086 L529.936584299,110.365186967 L531.620380494,97.507106932 L536.824841461,95.3640935928 L540.039361469,91.3842116772 L542.488519571,93.2210802537 L548.458342445,85.2613164225 L543.866171004,76.5361906845 L544.631532911,74.0870325825 L547.386835775,72.5563087689 L555.346599606,78.5261316422 L560.704132954,77.4546249727 L560.857205336,79.2914935491 L564.530942489,80.3630002187 L570.194620599,75.6177563962 L571.113054887,71.3317297179 L568.663896785,61.0758801662 L569.735403455,58.4736496829 L576.011371091,53.4222610977 L576.164443473,41.9418324951 L579.378963481,31.2267657993 L578.460529193,21.4301333916 L574.327574896,9.18434288213 L576.164443473,2.4491581019 L576.776732998,3.97988191559 L579.838180625,3.36759239012 L582.746555871,0.0 L584.583424448,2.14301333916 Z" fill="#cee3f5" id="JP.HK" stroke="#6e6e6e" stroke-width="0.4"><desc><labelrank>6</labelrank><code_hasc>JP.HK</code_hasc><name>Hokkaido</name><admin>Japan</admin><type_en>Circuit</type_en><region>Hokkaido</region><woe_id>7153351</woe_id><longitude>142</longitude><woe_name>Hokkaido</woe_name><fips>JA12</fips><woe_label>Hokkaido Prefecture, JP, Japan</woe_label><latitude>43</latitude><iso_a2>JP</iso_a2><postal>HK</postal><type>Do</type><id>JP.HK</id></desc></path><path d="M443.297616444,315.941395145 L443.450688826,316.40061229 L442.8383993,317.931336103 L442.532254538,320.227421824 L445.287557402,323.595014214 L444.216050733,325.584955172 L436.409359283,326.962606604 L432.276404986,325.738027553 L429.980319265,329.717909469 L426.459654494,328.952547562 L426.459654494,332.626284715 L422.020555434,334.922370435 L420.795976383,334.157008528 L418.959107807,338.136890444 L415.285370654,339.514541876 L409.162475399,337.830745681 L407.325606823,335.075442817 L408.397113492,332.167067571 L410.38705445,334.003936147 L412.989284933,332.320139952 L412.836212552,334.463153291 L415.438443035,334.003936147 L414.673081128,331.860922808 L418.040673518,332.932429477 L417.734528756,329.258692325 L422.326700197,329.87098185 L421.867483053,326.50338946 L423.551279248,325.43188279 L424.775858299,328.952547562 L425.847364968,325.125738028 L422.326700197,318.390553247 L427.378088782,309.053137984 L430.133391647,308.134703696 L432.582549749,312.267657993 L443.297616444,315.941395145 Z" fill="#cee3f5" id="JP.FI" stroke="#6e6e6e" stroke-width="0.4"><desc><labelrank>6</labelrank><code_hasc>JP.FI</code_hasc><name>Fukui</name><admin>Japan</admin><type_en>Prefecture</type_en><region>Chubu</region><woe_id>2345856</woe_id><longitude>136</longitude><woe_name>Fukui</woe_name><fips>JA06</fips><woe_label>Fukui Prefecture, JP, Japan</woe_label><latitude>35</latitude><iso_a2>JP</iso_a2><postal>FI</postal><type>Ken</type><id>JP.FI</id></desc></path><path d="M390.334572491,371.812814345 L391.40607916,374.261972447 L386.813907719,376.251913405 L384.823966761,376.558058168 L382.987098185,373.037393396 L393.242947737,362.934616226 L394.008309644,363.853050514 L390.181500109,369.05751148 L390.334572491,371.812814345 M404.111086814,350.382680953 L404.111086814,351.760332386 L406.101027772,353.597200962 L404.876448721,360.638530505 L400.590422042,360.179313361 L400.131204898,361.863109556 L398.600481085,360.944675268 L394.467526788,362.3223267 L386.507762956,357.117865734 L379.466433414,355.893286683 L374.108900066,358.189372403 L373.649682921,348.392739996 L377.476492456,343.800568555 L377.476492456,342.269844741 L377.782637218,341.351410453 L377.782637218,340.892193309 L378.241854363,341.04526569 L378.854143888,341.351410453 L379.619505795,341.04526569 L380.844084846,340.126831402 L380.997157227,339.667614258 L381.150229609,339.055324732 L380.997157227,338.443035207 L380.997157227,338.136890444 L380.997157227,337.983818063 L380.997157227,337.524600918 L379.619505795,333.850863766 L379.007216269,330.330198994 L378.088781981,327.881040892 L382.680953422,326.197244697 L391.559151542,327.268751367 L391.712223923,328.493330418 L391.559151542,330.177126613 L392.630658211,332.167067571 L396.304395364,332.779357096 L396.304395364,335.687732342 L396.151322983,335.993877105 L395.998250601,336.453094249 L392.936802974,336.759239012 L392.783730593,337.065383774 L392.630658211,337.524600918 L392.47758583,338.749179969 L392.630658211,339.361469495 L393.396020118,339.97375902 L394.620599169,340.432976164 L395.232888695,341.198338071 L396.304395364,341.657555215 L396.610540127,341.963699978 L397.988191559,341.504482834 L398.600481085,341.504482834 L398.753553466,341.657555215 L398.906625847,341.810627597 L399.21277061,342.882134266 L399.978132517,344.259785699 L400.590422042,344.719002843 L401.968073475,345.025147606 L402.427290619,345.637437131 L402.733435382,345.790509512 L403.498797288,345.790509512 L403.804942051,345.790509512 L404.723376339,346.708943801 L405.182593483,348.086595233 L404.570303958,348.698884758 L404.111086814,349.005029521 L403.65186967,349.005029521 L403.498797288,349.158101902 L403.498797288,349.464246665 L403.498797288,349.770391428 L404.111086814,350.382680953 Z" fill="#cee3f5" id="JP.HG" stroke="#6e6e6e" stroke-width="0.4"><desc><labelrank>6</labelrank><code_hasc>JP.HG</code_hasc><name>Hyōgo</name><admin>Japan</admin><type_en>Prefecture</type_en><region>Kinki</region><woe_id>2345862</woe_id><longitude>134</longitude><woe_name>Hyōgo</woe_name><fips>JA13</fips><woe_label>Hyogo Prefecture, JP, Japan</woe_label><latitude>35</latitude><iso_a2>JP</iso_a2><postal>HG</postal><type>Ken</type><id>JP.HG</id></desc></path><path d="M408.397113492,332.167067571 L407.325606823,335.075442817 L409.162475399,337.830745681 L415.285370654,339.514541876 L417.428383993,342.11677236 L417.581456374,354.974852394 L421.408265909,358.801661929 L422.326700197,360.791602887 L416.663022086,361.097747649 L414.366936366,360.02624098 L414.060791603,359.873168598 L413.601574459,359.260879073 L413.142357315,358.95473431 L413.448502077,358.036300022 L413.295429696,357.117865734 L413.142357315,356.811720971 L412.683140171,356.046359064 L411.764705882,354.056418106 L410.540126831,353.291056199 L410.080909687,352.372621911 L409.927837306,352.21954953 L409.621692543,352.372621911 L409.468620162,352.525694293 L409.31554778,352.831839055 L409.468620162,353.137983818 L409.468620162,353.444128581 L409.31554778,353.597200962 L408.856330636,353.597200962 L406.254100153,350.994970479 L404.876448721,350.688825716 L404.111086814,350.382680953 L403.498797288,349.770391428 L403.498797288,349.464246665 L403.498797288,349.158101902 L403.65186967,349.005029521 L404.111086814,349.005029521 L404.570303958,348.698884758 L405.182593483,348.086595233 L404.723376339,346.708943801 L403.804942051,345.790509512 L403.498797288,345.790509512 L402.733435382,345.790509512 L401.968073475,345.025147606 L400.590422042,344.719002843 L399.978132517,344.259785699 L399.21277061,342.882134266 L398.906625847,341.810627597 L398.753553466,341.657555215 L398.600481085,341.504482834 L397.988191559,341.504482834 L396.610540127,341.963699978 L396.304395364,341.657555215 L395.232888695,341.198338071 L394.620599169,340.432976164 L393.396020118,339.97375902 L392.630658211,339.361469495 L392.47758583,338.749179969 L392.630658211,337.524600918 L392.783730593,337.065383774 L392.936802974,336.759239012 L395.998250601,336.453094249 L396.151322983,335.993877105 L396.304395364,335.687732342 L396.304395364,332.779357096 L392.630658211,332.167067571 L391.559151542,330.177126613 L391.559151542,327.268751367 L392.018368686,327.268751367 L393.396020118,327.881040892 L401.815001093,324.054231358 L403.804942051,327.574896129 L400.28427728,331.554778045 L402.121145856,330.177126613 L401.661928712,331.707850426 L404.264159195,333.085501859 L403.804942051,335.075442817 L406.101027772,334.003936147 L405.182593483,331.554778045 L408.090968729,330.024054231 L408.397113492,332.167067571 Z" fill="#cee3f5" id="JP.KY" stroke="#6e6e6e" stroke-width="0.4"><desc><labelrank>7</labelrank><code_hasc>JP.KY</code_hasc><name>Kyoto</name><admin>Japan</admin><type_en>Urban Prefecture</type_en><region>Kinki</region><woe_id>2345871</woe_id><longitude>135</longitude><woe_name>Kyoto</woe_name><fips>JA22</fips><woe_label>Kyoto Prefecture, JP, Japan</woe_label><latitude>35</latitude><iso_a2>JP</iso_a2><postal>KY</postal><type>Fu</type><id>JP.KY</id></desc></path><path d="M422.326700197,360.791602887 L423.245134485,362.934616226 L422.938989722,363.240760988 L422.326700197,363.39383337 L422.173627815,363.546905751 L422.785917341,364.159195277 L422.479772578,365.536846709 L422.63284496,365.996063853 L424.163568773,366.914498141 L424.622785917,367.067570523 L424.92893068,367.067570523 L425.235075443,367.067570523 L425.541220206,367.373715285 L425.694292587,367.986004811 L426.612726875,368.292149574 L426.765799257,368.445221955 L426.765799257,368.751366718 L426.765799257,369.210583862 L426.459654494,369.669801006 L425.847364968,370.435162913 L423.398206866,370.894380057 L423.092062104,371.20052482 L422.785917341,371.659741964 L423.85742401,376.86420293 L422.63284496,383.293242948 L422.938989722,384.364749617 L422.938989722,384.67089438 L422.63284496,384.67089438 L420.642904002,384.823966761 L415.591515417,390.181500109 L414.82615351,388.956921058 L413.907719222,388.650776296 L413.142357315,388.956921058 L412.836212552,388.956921058 L410.999343976,388.497703914 L410.233982069,388.650776296 L409.621692543,389.10999344 L409.468620162,389.263065821 L409.162475399,389.10999344 L408.856330636,388.956921058 L408.703258255,388.497703914 L408.550185874,388.03848677 L408.856330636,387.120052482 L409.009403018,386.507762956 L409.162475399,385.895473431 L409.009403018,385.130111524 L408.397113492,384.364749617 L407.478679204,382.527881041 L407.325606823,382.068663897 L412.223923026,377.323420074 L411.917778264,376.098841023 L411.305488738,375.180406735 L411.152416357,374.874261972 L411.152416357,373.49661054 L410.846271594,371.812814345 L411.152416357,371.812814345 L411.305488738,371.506669582 L411.611633501,371.353597201 L411.45856112,370.741307675 L411.764705882,369.363656243 L411.764705882,368.751366718 L411.611633501,367.832932429 L411.152416357,366.914498141 L410.540126831,366.302208616 L410.540126831,365.68991909 L411.305488738,364.159195277 L411.917778264,361.710037175 L413.142357315,358.95473431 L413.601574459,359.260879073 L414.060791603,359.873168598 L414.366936366,360.02624098 L416.663022086,361.097747649 L422.326700197,360.791602887 Z" fill="#cee3f5" id="JP.NR" stroke="#6e6e6e" stroke-width="0.4"><desc><labelrank>6</labelrank><code_hasc>JP.NR</code_hasc><name>Nara</name><admin>Japan</admin><type_en>Prefecture</type_en><region>Kinki</region><woe_id>2345877</woe_id><longitude>135</longitude><woe_name>Nara</woe_name><fips>JA28</fips><woe_label>Nara Prefecture, JP, Japan</woe_label><latitude>34</latitude><iso_a2>JP</iso_a2><postal>NR</postal><type>Ken</type><id>JP.NR</id></desc></path><path d="M410.846271594,371.812814345 L397.835119178,374.415044828 L394.926743932,373.49661054 L403.345724907,367.679860048 L404.876448721,360.638530505 L406.101027772,353.597200962 L404.111086814,351.760332386 L404.111086814,350.382680953 L406.254100153,350.994970479 L408.856330636,353.597200962 L409.31554778,353.597200962 L409.468620162,353.444128581 L409.468620162,352.525694293 L409.621692543,352.372621911 L409.927837306,352.21954953 L410.080909687,352.372621911 L411.764705882,354.056418106 L412.683140171,356.046359064 L413.142357315,356.811720971 L413.295429696,357.117865734 L413.448502077,358.036300022 L413.142357315,358.95473431 L412.530067789,360.638530505 L411.917778264,361.710037175 L411.305488738,364.159195277 L410.540126831,365.68991909 L410.540126831,366.302208616 L411.611633501,367.832932429 L411.764705882,368.751366718 L411.764705882,369.363656243 L411.611633501,371.353597201 L411.305488738,371.506669582 L411.152416357,371.812814345 L410.846271594,371.812814345 Z" fill="#cee3f5" id="JP.OS" stroke="#6e6e6e" stroke-width="0.4"><desc><labelrank>7</labelrank><code_hasc>JP.OS</code_hasc><name>Osaka</name><admin>Japan</admin><type_en>Urban Prefecture</type_en><region>Kinki</region><woe_id>2345881</woe_id><longitude>135</longitude><woe_name>Osaka</woe_name><fips>JA32</fips><woe_label>Osaka Prefecture, JP, Japan</woe_label><latitude>34</latitude><iso_a2>JP</iso_a2><postal>OS</postal><type>Fu</type><id>JP.OS</id></desc></path><path d="M429.980319265,329.717909469 L433.500984037,336.453094249 L432.582549749,342.729061885 L432.582549749,343.953640936 L433.194839274,344.872075224 L434.266345944,347.321233326 L433.807128799,349.617319047 L433.041766893,352.831839055 L432.276404986,354.209490488 L431.970260223,354.51563525 L431.66411546,354.821780013 L431.051825935,355.280997157 L430.286464028,355.740214301 L428.29652307,356.199431445 L426.612726875,356.046359064 L425.082003061,355.740214301 L424.622785917,355.740214301 L424.316641155,355.893286683 L424.316641155,356.199431445 L424.622785917,356.964793352 L424.316641155,357.424010496 L423.704351629,358.036300022 L421.408265909,358.801661929 L417.581456374,354.974852394 L417.428383993,342.11677236 L415.285370654,339.514541876 L418.959107807,338.136890444 L420.795976383,334.157008528 L422.020555434,334.922370435 L426.459654494,332.626284715 L426.459654494,328.952547562 L429.980319265,329.717909469 Z" fill="#cee3f5" id="JP.SH" stroke="#6e6e6e" stroke-width="0.4"><desc><labelrank>6</labelrank><code_hasc>JP.SH</code_hasc><name>Shiga</name><admin>Japan</admin><type_en>Prefecture</type_en><region>Kinki</region><woe_id>2345884</woe_id><longitude>136</longitude><woe_name>Shiga</woe_name><fips>JA35</fips><woe_label>Shiga Prefecture, JP, Japan</woe_label><latitude>35</latitude><iso_a2>JP</iso_a2><postal>SH</postal><type>Ken</type><id>JP.SH</id></desc></path><path d="M410.846271594,371.812814345 L411.152416357,374.874261972 L411.305488738,375.180406735 L411.917778264,376.098841023 L412.223923026,377.323420074 L407.325606823,382.068663897 L407.478679204,382.527881041 L407.631751585,382.834025804 L408.090968729,383.293242948 L408.397113492,384.364749617 L409.009403018,385.130111524 L409.162475399,385.895473431 L409.009403018,386.507762956 L408.550185874,388.03848677 L408.703258255,388.497703914 L408.856330636,388.956921058 L409.162475399,389.10999344 L409.468620162,389.263065821 L410.233982069,388.650776296 L410.999343976,388.497703914 L412.836212552,388.956921058 L413.142357315,388.956921058 L413.907719222,388.650776296 L414.82615351,388.956921058 L415.591515417,390.181500109 L415.438443035,390.640717253 L415.438443035,390.793789635 L415.897660179,391.865296304 L419.418324951,395.539033457 L417.887601137,399.059698229 L412.376995408,403.65186967 L412.683140171,402.121145856 L402.733435382,398.447408703 L400.590422042,395.079816313 L402.427290619,393.702164881 L395.079816313,387.273124863 L393.396020118,387.579269626 L394.161382025,384.211677236 L396.610540127,382.834025804 L394.77367155,381.30330199 L395.692105839,379.007216269 L397.682046796,378.701071507 L394.314454406,374.415044828 L394.926743932,373.49661054 L397.835119178,374.415044828 L410.846271594,371.812814345 Z" fill="#cee3f5" id="JP.WK" stroke="#6e6e6e" stroke-width="0.4"><desc><labelrank>6</labelrank><code_hasc>JP.WK</code_hasc><name>Wakayama</name><admin>Japan</admin><type_en>Prefecture</type_en><region>Kinki</region><woe_id>2345892</woe_id><longitude>135</longitude><woe_name>Wakayama</woe_name><fips>JA43</fips><woe_label>Wakayama Prefecture, JP, Japan</woe_label><latitude>33</latitude><iso_a2>JP</iso_a2><postal>WK</postal><type>Ken</type><id>JP.WK</id></desc></path><path d="M556.571178657,329.87098185 L556.571178657,331.554778045 L551.060572928,331.401705664 L546.162256724,335.534659961 L543.40695386,341.810627597 L543.100809097,348.698884758 L541.570085283,350.229608572 L536.365624317,350.382680953 L532.385742401,353.903345725 L531.008090969,357.270938115 L528.252788104,357.88322764 L525.803630002,355.58714192 L529.018150011,354.51563525 L527.640498579,349.158101902 L529.018150011,346.249726656 L526.72206429,343.800568555 L529.783511918,342.269844741 L530.089656681,340.279903783 L535.60026241,335.534659961 L532.385742401,332.013995189 L530.701946206,332.167067571 L530.089656681,333.850863766 L529.171222392,333.23857424 L529.171222392,328.340258036 L529.477367155,325.891099934 L529.324294774,324.513448502 L526.262847146,318.084408485 L536.365624317,325.738027553 L547.999125301,324.666520883 L556.571178657,329.87098185 Z" fill="#cee3f5" id="JP.CH" stroke="#6e6e6e" stroke-width="0.4"><desc><labelrank>6</labelrank><code_hasc>JP.CH</code_hasc><name>Chiba</name><admin>Japan</admin><type_en>Prefecture</type_en><region>Kanto</region><woe_id>2345854</woe_id><longitude>140</longitude><woe_name>Chiba</woe_name><fips>JA04</fips><woe_label>Chiba Prefecture, JP, Japan</woe_label><latitude>35</latitude><iso_a2>JP</iso_a2><postal>CH</postal><type>Ken</type><id>JP.CH</id></desc></path><path d="M554.887382462,292.521320796 L548.458342445,311.502296086 L550.601355784,320.533566586 L556.571178657,329.87098185 L547.999125301,324.666520883 L536.365624317,325.738027553 L526.262847146,318.084408485 L524.119833807,315.635250383 L523.660616663,313.951454188 L527.181281435,312.879947518 L531.926525257,308.59392084 L538.049420512,306.910124645 L540.498578614,296.654275093 L539.733216707,289.766017931 L545.396894817,294.205116991 L548.611414826,291.909031271 L548.764487208,289.766017931 L554.887382462,292.521320796 Z" fill="#cee3f5" id="JP.IB" stroke="#6e6e6e" stroke-width="0.4"><desc><labelrank>6</labelrank><code_hasc>JP.IB</code_hasc><name>Ibaraki</name><admin>Japan</admin><type_en>Prefecture</type_en><region>Kanto</region><woe_id>2345863</woe_id><longitude>140</longitude><woe_name>Ibaraki</woe_name><fips>JA14</fips><woe_label>Ibaraki Prefecture, JP, Japan</woe_label><latitude>36</latitude><iso_a2>JP</iso_a2><postal>IB</postal><type>Ken</type><id>JP.IB</id></desc></path><path d="M507.588016619,350.229608572 L504.373496611,347.168160945 L504.832713755,341.198338071 L502.383555653,341.198338071 L507.741089001,336.912311393 L508.659523289,332.167067571 L512.639405204,334.616225672 L515.700852832,335.228515198 L516.313142357,335.534659961 L516.772359501,336.146949486 L517.078504264,336.60616663 L517.843866171,337.6776733 L517.996938552,337.830745681 L518.150010934,337.830745681 L518.303083315,337.830745681 L518.303083315,337.6776733 L518.303083315,337.524600918 L518.303083315,337.218456156 L518.303083315,336.146949486 L518.762300459,335.534659961 L517.843866171,334.463153291 L517.843866171,334.157008528 L519.833807129,333.697791384 L526.875136672,337.218456156 L526.72206429,337.524600918 L524.885195714,338.749179969 L522.895254756,339.055324732 L524.119833807,339.820686639 L522.742182375,340.892193309 L523.048327138,344.41285808 L525.650557621,346.096654275 L523.507544282,347.933522852 L523.966761426,349.770391428 L522.129892849,349.923463809 L522.282965231,347.321233326 L520.139951892,343.953640936 L516.61928712,343.647496173 L510.190247103,345.331292368 L509.424885196,349.617319047 L507.588016619,350.229608572 Z" fill="#cee3f5" id="JP.KN" stroke="#6e6e6e" stroke-width="0.4"><desc><labelrank>6</labelrank><code_hasc>JP.KN</code_hasc><name>Kanagawa</name><admin>Japan</admin><type_en>Prefecture</type_en><region>Kanto</region><woe_id>2345868</woe_id><longitude>139</longitude><woe_name>Kanagawa</woe_name><fips>JA19</fips><woe_label>Kanagawa Prefecture, JP, Japan</woe_label><latitude>35</latitude><iso_a2>JP</iso_a2><postal>KN</postal><type>Ken</type><id>JP.KN</id></desc></path><path d="M524.119833807,315.635250383 L526.262847146,318.084408485 L529.324294774,324.513448502 L529.477367155,325.891099934 L529.171222392,328.340258036 L526.262847146,327.727968511 L521.976820468,328.79947518 L520.139951892,329.105619943 L516.772359501,328.952547562 L516.006997595,328.952547562 L512.945549967,326.962606604 L505.904220424,324.513448502 L504.220424229,325.125738028 L503.455062322,325.891099934 L497.791384212,323.748086595 L497.485239449,321.298928493 L506.669582331,315.788322764 L508.81259567,311.349223704 L524.119833807,315.635250383 Z" fill="#cee3f5" id="JP.ST" stroke="#6e6e6e" stroke-width="0.4"><desc><labelrank>6</labelrank><code_hasc>JP.ST</code_hasc><name>Saitama</name><admin>Japan</admin><type_en>Prefecture</type_en><region>Kanto</region><woe_id>2345883</woe_id><longitude>139</longitude><woe_name>Saitama</woe_name><fips>JA34</fips><woe_label>Saitama Prefecture, JP, Japan</woe_label><latitude>36</latitude><iso_a2>JP</iso_a2><postal>ST</postal><type>Ken</type><id>JP.ST</id></desc></path><path d="M539.733216707,289.766017931 L540.498578614,296.654275093 L538.049420512,306.910124645 L531.926525257,308.59392084 L527.181281435,312.879947518 L523.660616663,313.951454188 L521.823748087,311.96151323 L517.843866171,311.655368467 L515.088563306,308.134703696 L518.150010934,301.399518915 L514.3232014,298.950360813 L516.006997595,290.225235075 L531.16116335,282.265471244 L538.049420512,285.17384649 L539.733216707,289.766017931 Z" fill="#cee3f5" id="JP.TC" stroke="#6e6e6e" stroke-width="0.4"><desc><labelrank>6</labelrank><code_hasc>JP.TC</code_hasc><name>Tochigi</name><admin>Japan</admin><type_en>Prefecture</type_en><region>Kanto</region><woe_id>2345887</woe_id><longitude>139</longitude><woe_name>Tochigi</woe_name><fips>JA38</fips><woe_label>Tochigi Prefecture, JP, Japan</woe_label><latitude>36</latitude><iso_a2>JP</iso_a2><postal>TC</postal><type>Ken</type><id>JP.TC</id></desc></path><path d="M569.582331074,700.0 L569.582331074,698.316203805 L571.266127269,698.163131424 L569.582331074,700.0 M594.839274,633.719658867 L596.063853051,636.474961732 L593.920839711,633.107369342 L594.839274,633.719658867 M597.747649246,620.861578832 L596.982287339,622.392302646 L595.910780669,621.014651214 L597.747649246,620.861578832 M527.640498579,420.183686858 L525.956702384,419.877542095 L525.038268095,416.969166849 L528.099715723,418.1937459 L527.640498579,420.183686858 M519.221517603,386.813907719 L518.150010934,384.823966761 L519.98687951,384.211677236 L519.221517603,386.813907719 M517.384649027,365.077629565 L514.782418544,364.312267658 L514.782418544,361.097747649 L516.925431883,362.016181937 L517.384649027,365.077629565 M516.006997595,328.952547562 L517.384649027,328.952547562 L519.680734747,328.187185655 L520.139951892,329.105619943 L526.262847146,327.727968511 L527.487426197,327.881040892 L529.171222392,328.340258036 L529.630439536,331.860922808 L529.171222392,333.23857424 L527.028209053,334.157008528 L526.415919528,332.473212333 L527.334353816,336.300021867 L527.028209053,336.759239012 L527.028209053,337.218456156 L526.875136672,337.218456156 L524.579050951,336.300021867 L519.833807129,333.697791384 L517.843866171,334.157008528 L518.762300459,335.534659961 L518.609228078,335.840804723 L518.303083315,336.146949486 L518.303083315,337.218456156 L518.303083315,337.524600918 L518.303083315,337.6776733 L518.303083315,337.830745681 L518.150010934,337.830745681 L517.996938552,337.830745681 L517.843866171,337.6776733 L516.772359501,336.146949486 L516.313142357,335.534659961 L515.700852832,335.228515198 L512.639405204,334.616225672 L510.955609009,333.23857424 L506.363437568,330.636343757 L505.291930899,329.411764706 L504.985786136,328.952547562 L504.679641373,328.493330418 L504.067351848,326.50338946 L503.455062322,325.891099934 L504.220424229,325.125738028 L505.904220424,324.513448502 L512.945549967,326.962606604 L516.006997595,328.952547562 Z" fill="#cee3f5" id="JP.TK" stroke="#6e6e6e" stroke-width="0.4"><desc><labelrank>7</labelrank><code_hasc>JP.TK</code_hasc><name>Tokyo</name><admin>Japan</admin><type_en>Metropolis</type_en><region>Kanto</region><woe_id>2345889</woe_id><longitude>139</longitude><woe_name>Tokyo</woe_name><fips>JA40</fips><woe_label>Tokyo Prefecture, JP, Japan</woe_label><latitude>35</latitude><iso_a2>JP</iso_a2><postal>TK</postal><type>To</type><id>JP.TK</id></desc></path><path d="M497.791384212,323.748086595 L503.455062322,325.891099934 L504.067351848,326.50338946 L504.679641373,328.493330418 L504.985786136,328.952547562 L505.291930899,329.411764706 L506.363437568,330.636343757 L508.659523289,332.167067571 L507.741089001,336.912311393 L502.383555653,341.198338071 L496.872949923,342.11677236 L492.586923245,339.820686639 L491.515416576,347.321233326 L489.372403236,348.392739996 L486.923245134,343.800568555 L484.014869888,343.34135141 L483.249507982,332.473212333 L482.943363219,327.115678985 L488.147824185,321.452000875 L495.189153728,325.125738028 L497.791384212,323.748086595 Z" fill="#cee3f5" id="JP.YN" stroke="#6e6e6e" stroke-width="0.4"><desc><labelrank>6</labelrank><code_hasc>JP.YN</code_hasc><name>Yamanashi</name><admin>Japan</admin><type_en>Prefecture</type_en><region>Chubu</region><woe_id>2345895</woe_id><longitude>138</longitude><woe_name>Yamanashi</woe_name><fips>JA46</fips><woe_label>Yamanashi Prefecture, JP, Japan</woe_label><latitude>35</latitude><iso_a2>JP</iso_a2><postal>YN</postal><type>Ken</type><id>JP.YN</id></desc></path><path d="M558.408047234,178.023179532 L556.571178657,180.166192871 L557.030395801,190.422042423 L554.734310081,191.646621474 L555.346599606,198.687951017 L551.366717691,206.647714848 L555.040454844,213.995189154 L553.968948174,221.495735841 L553.356658649,221.801880604 L550.907500547,223.63874918 L549.223704352,224.251038705 L548.305270063,224.097966324 L547.999125301,223.944893943 L543.100809097,219.811939646 L531.008090969,215.83205773 L534.681828122,206.035425323 L535.906407173,195.320358627 L533.457249071,190.11589766 L528.099715723,190.881259567 L526.568991909,186.442160507 L529.783511918,187.360594796 L533.916466215,181.849989066 L535.141045266,174.196369998 L533.151104308,171.594139515 L545.090750055,170.063415701 L548.152197682,172.359501421 L551.213645309,172.359501421 L557.030395801,169.451126175 L559.326481522,172.359501421 L558.408047234,178.023179532 Z" fill="#cee3f5" id="JP.AK" stroke="#6e6e6e" stroke-width="0.4"><desc><labelrank>6</labelrank><code_hasc>JP.AK</code_hasc><name>Akita</name><admin>Japan</admin><type_en>Prefecture</type_en><region>Tohoku</region><woe_id>2345852</woe_id><longitude>140</longitude><woe_name>Akita</woe_name><fips>JA02</fips><woe_label>Akita Prefecture, JP, Japan</woe_label><latitude>39</latitude><iso_a2>JP</iso_a2><postal>AK</postal><type>Ken</type><id>JP.AK</id></desc></path><path d="M577.848239668,170.981849989 L574.633719659,174.043297616 L568.204679641,174.196369998 L560.704132954,179.094686202 L558.408047234,178.023179532 L559.326481522,172.359501421 L557.030395801,169.451126175 L551.213645309,172.359501421 L548.152197682,172.359501421 L545.090750055,170.063415701 L533.151104308,171.594139515 L533.151104308,167.76732998 L531.16116335,165.47124426 L535.906407173,160.266783293 L537.89634813,161.0321452 L541.417012902,159.348349005 L543.100809097,151.541657555 L544.325388148,152.919308988 L545.243822436,151.694729937 L541.26394052,148.327137546 L543.100809097,147.408703258 L543.560026241,143.581893724 L546.621473868,146.337196589 L548.917559589,144.959545156 L551.060572928,146.031051826 L552.744369123,157.511480429 L555.193527225,157.970697573 L556.571178657,156.439973759 L557.489612946,152.153947081 L563.153291056,156.899190903 L565.143232014,155.521539471 L567.439317735,147.255630877 L565.602449158,143.581893724 L564.530942489,143.12267658 L561.775639624,146.337196589 L554.428165318,147.714848021 L558.101902471,134.091406079 L567.439317735,140.673518478 L572.184561557,138.224360376 L570.347692981,147.102558496 L571.266127269,161.797507107 L572.949923464,167.308112836 L577.848239668,170.981849989 Z" fill="#cee3f5" id="JP.AO" stroke="#6e6e6e" stroke-width="0.4"><desc><labelrank>6</labelrank><code_hasc>JP.AO</code_hasc><name>Aomori</name><admin>Japan</admin><type_en>Prefecture</type_en><region>Tohoku</region><woe_id>2345853</woe_id><longitude>140</longitude><woe_name>Aomori</woe_name><fips>JA03</fips><woe_label>Aomori Prefecture, JP, Japan</woe_label><latitude>40</latitude><iso_a2>JP</iso_a2><postal>AO</postal><type>Ken</type><id>JP.AO</id></desc></path><path d="M554.887382462,292.521320796 L548.764487208,289.766017931 L548.611414826,291.909031271 L545.396894817,294.205116991 L539.733216707,289.766017931 L538.049420512,285.17384649 L531.16116335,282.265471244 L516.006997595,290.225235075 L512.027115679,288.694511262 L512.486332823,288.082221736 L512.792477586,285.479991253 L512.792477586,282.112398863 L512.027115679,280.428602668 L511.261753772,280.428602668 L510.649464247,279.204023617 L512.18018806,274.917996939 L512.027115679,273.99956265 L511.720970916,273.387273125 L511.567898535,273.081128362 L511.720970916,272.774983599 L511.874043298,272.315766455 L512.18018806,272.009621693 L512.639405204,271.856549311 L515.394708069,271.397332167 L515.853925213,271.397332167 L516.61928712,271.550404548 L516.925431883,271.397332167 L517.231576646,270.478897879 L517.996938552,270.019680735 L519.221517603,270.172753116 L520.446096654,269.866608353 L521.211458561,270.019680735 L521.517603324,270.019680735 L521.670675705,269.560463591 L521.517603324,268.029739777 L521.517603324,267.570522633 L521.05838618,266.652088345 L521.05838618,266.345943582 L521.211458561,266.039798819 L521.517603324,265.580581675 L522.742182375,264.049857861 L526.262847146,259.45768642 L531.773452876,259.763831183 L536.365624317,262.82527881 L539.273999563,262.212989285 L540.804723376,260.988410234 L540.804723376,254.712442598 L542.182374809,255.324732123 L544.478460529,255.171659742 L545.549967199,255.477804505 L551.060572928,257.620817844 L551.519790072,257.926962607 L551.825934835,258.386179751 L551.825934835,258.845396895 L551.825934835,259.610758802 L551.825934835,259.763831183 L551.979007216,260.069975946 L552.132079598,260.376120709 L553.203586267,261.141482615 L554.122020555,261.294554997 L554.428165318,261.294554997 L554.428165318,260.835337853 L555.652744369,260.835337853 L556.111961513,260.682265471 L556.265033895,260.376120709 L556.418106276,260.069975946 L556.418106276,259.151541658 L556.418106276,258.080034988 L556.418106276,257.773890225 L556.724251039,257.620817844 L557.030395801,257.467745462 L558.561119615,257.314673081 L560.24491581,260.376120709 L561.469494861,274.611852176 L560.551060573,282.87776077 L559.326481522,288.388366499 L554.887382462,292.521320796 Z" fill="#cee3f5" id="JP.FS" stroke="#6e6e6e" stroke-width="0.4"><desc><labelrank>6</labelrank><code_hasc>JP.FS</code_hasc><name>Fukushima</name><admin>Japan</admin><type_en>Prefecture</type_en><region>Tohoku</region><woe_id>2345858</woe_id><longitude>140</longitude><woe_name>Fukushima</woe_name><fips>JA08</fips><woe_label>Fukushima Prefecture, JP, Japan</woe_label><latitude>37</latitude><iso_a2>JP</iso_a2><postal>FS</postal><type>Ken</type><id>JP.FS</id></desc></path><path d="M553.968948174,221.495735841 L555.040454844,213.995189154 L551.366717691,206.647714848 L555.346599606,198.687951017 L554.734310081,191.646621474 L557.030395801,190.422042423 L556.571178657,180.166192871 L558.408047234,178.023179532 L560.704132954,179.094686202 L568.204679641,174.196369998 L574.633719659,174.043297616 L577.848239668,170.981849989 L582.134266346,178.482396676 L582.134266346,183.839930024 L585.042641592,186.289088126 L586.573365406,194.401924339 L585.348786355,199.147168161 L587.338727312,198.228733873 L588.257161601,201.2901815 L585.195713973,204.351629127 L587.951016838,204.045484365 L584.889569211,206.800787229 L583.971134922,208.637655806 L586.114148262,208.790728187 L583.971134922,211.39295867 L585.195713973,212.158320577 L582.440411109,214.760551061 L584.277279685,216.597419637 L581.828121583,216.750492018 L583.205773016,217.668926307 L581.981193965,217.975071069 L582.59348349,219.046577739 L579.532035863,218.587360595 L579.2258911,221.648808222 L578.613601574,219.965012027 L577.542094905,219.965012027 L577.235950142,221.036518697 L573.562212989,220.424229171 L573.102995845,220.730373934 L573.102995845,221.189591078 L572.949923464,222.873387273 L572.184561557,224.251038705 L572.031489176,226.394052045 L571.113054887,227.159413951 L569.735403455,226.547124426 L568.816969167,226.240979663 L568.510824404,226.394052045 L568.357752023,226.547124426 L568.204679641,226.853269189 L568.05160726,227.00634157 L567.286245353,227.465558714 L566.98010059,227.618631096 L566.520883446,228.07784824 L566.367811065,228.230920621 L566.061666302,228.230920621 L565.143232014,227.618631096 L564.224797726,227.159413951 L563.918652963,226.700196807 L563.306363438,225.934834901 L563.306363438,225.628690138 L563.765580582,224.557183468 L560.091843429,224.097966324 L557.94883009,222.873387273 L555.499671988,221.801880604 L553.968948174,221.495735841 Z" fill="#cee3f5" id="JP.IW" stroke="#6e6e6e" stroke-width="0.4"><desc><labelrank>6</labelrank><code_hasc>JP.IW</code_hasc><name>Iwate</name><admin>Japan</admin><type_en>Prefecture</type_en><region>Tohoku</region><woe_id>2345865</woe_id><longitude>141</longitude><woe_name>Iwate</woe_name><fips>JA16</fips><woe_label>Iwate Prefecture, JP, Japan</woe_label><latitude>39</latitude><iso_a2>JP</iso_a2><postal>IW</postal><type>Ken</type><id>JP.IW</id></desc></path><path d="M577.389022524,222.414170129 L578.15438443,224.863328231 L575.85829871,223.791821561 L574.174502515,227.771703477 L575.246009184,229.914716816 L572.643778701,231.292368248 L574.480647277,232.363874918 L572.643778701,234.353815876 L574.78679204,236.190684452 L572.796851082,239.099059698 L574.939864422,240.629783512 L573.715285371,241.089000656 L574.327574896,244.609665428 L571.725344413,240.782855893 L569.12311393,239.864421605 L565.755521539,240.629783512 L564.837087251,242.772796851 L562.387929149,241.5482178 L558.408047234,251.957139733 L558.561119615,257.314673081 L557.030395801,257.467745462 L556.724251039,257.620817844 L556.418106276,257.773890225 L556.418106276,258.080034988 L556.418106276,259.151541658 L556.418106276,260.069975946 L556.265033895,260.376120709 L556.111961513,260.682265471 L555.652744369,260.835337853 L554.428165318,260.835337853 L554.428165318,261.294554997 L554.122020555,261.294554997 L553.203586267,261.141482615 L552.132079598,260.376120709 L551.979007216,260.069975946 L551.825934835,259.763831183 L551.825934835,259.610758802 L551.825934835,258.845396895 L551.825934835,258.386179751 L551.519790072,257.926962607 L551.060572928,257.620817844 L546.927618631,257.1616007 L545.549967199,255.477804505 L544.478460529,255.171659742 L542.182374809,255.324732123 L540.804723376,254.712442598 L541.110868139,252.569429259 L541.26394052,252.110212115 L541.570085283,251.65099497 L541.876230046,251.497922589 L543.253881478,251.191777826 L543.866171004,250.885633064 L544.325388148,250.579488301 L544.784605292,249.661054013 L545.549967199,248.895692106 L545.70303958,248.436474962 L549.376776733,238.333697791 L547.999125301,232.363874918 L548.305270063,231.904657774 L548.458342445,231.904657774 L548.917559589,232.057730155 L549.376776733,231.904657774 L549.529849114,231.751585393 L549.835993877,231.44544063 L549.835993877,230.986223486 L549.989066258,230.527006342 L549.989066258,229.608572053 L549.989066258,228.996282528 L550.295211021,228.230920621 L549.223704352,225.934834901 L548.305270063,224.71025585 L547.999125301,223.944893943 L549.223704352,224.251038705 L550.907500547,223.63874918 L553.356658649,221.801880604 L553.968948174,221.495735841 L555.499671988,221.801880604 L563.765580582,224.557183468 L563.918652963,224.863328231 L563.459435819,225.322545375 L563.306363438,225.934834901 L564.224797726,227.159413951 L565.143232014,227.618631096 L566.061666302,228.230920621 L566.367811065,228.230920621 L566.520883446,228.07784824 L566.98010059,227.618631096 L567.286245353,227.465558714 L568.05160726,227.00634157 L568.204679641,226.853269189 L568.510824404,226.394052045 L568.816969167,226.240979663 L569.735403455,226.547124426 L571.113054887,227.159413951 L572.031489176,226.394052045 L572.184561557,224.251038705 L572.949923464,222.873387273 L573.102995845,221.189591078 L573.102995845,220.730373934 L573.562212989,220.424229171 L577.235950142,221.036518697 L577.389022524,222.414170129 Z" fill="#cee3f5" id="JP.MG" stroke="#6e6e6e" stroke-width="0.4"><desc><labelrank>6</labelrank><code_hasc>JP.MG</code_hasc><name>Miyagi</name><admin>Japan</admin><type_en>Prefecture</type_en><region>Tohoku</region><woe_id>2345873</woe_id><longitude>140</longitude><woe_name>Miyagi</woe_name><fips>JA24</fips><woe_label>Miyagi Prefecture, JP, Japan</woe_label><latitude>38</latitude><iso_a2>JP</iso_a2><postal>MG</postal><type>Ken</type><id>JP.MG</id></desc></path><path d="M492.127706101,250.579488301 L495.801443254,250.273343538 L493.658429915,255.937021649 L486.157883228,259.151541658 L489.525475618,253.79400831 L486.923245134,253.334791166 L486.923245134,250.120271157 L494.423791822,241.854362563 L492.127706101,250.579488301 M527.181281435,241.242073037 L528.712005248,241.5482178 L529.783511918,242.313579707 L530.089656681,242.925869232 L530.395801443,243.385086377 L530.395801443,243.844303521 L530.242729062,244.456593046 L529.936584299,244.91581019 L528.712005248,246.140389241 L527.946643341,246.446534004 L527.334353816,246.446534004 L526.262847146,246.293461623 L525.803630002,246.293461623 L525.191340477,247.058823529 L524.732123333,250.885633064 L523.507544282,256.396238793 L523.507544282,256.855455937 L523.813689044,257.467745462 L524.42597857,258.080034988 L525.344412858,258.692324513 L526.262847146,259.45768642 L525.191340477,260.835337853 L524.732123333,261.294554997 L522.742182375,264.049857861 L521.517603324,265.580581675 L521.211458561,266.039798819 L521.05838618,266.345943582 L521.05838618,266.652088345 L521.517603324,267.570522633 L521.517603324,268.029739777 L521.670675705,269.560463591 L521.517603324,270.019680735 L521.211458561,270.019680735 L520.446096654,269.866608353 L519.221517603,270.172753116 L517.996938552,270.019680735 L516.925431883,271.397332167 L516.61928712,271.550404548 L515.853925213,271.397332167 L515.394708069,271.397332167 L512.639405204,271.856549311 L512.18018806,272.009621693 L511.874043298,272.315766455 L511.720970916,272.774983599 L511.567898535,273.081128362 L511.720970916,273.387273125 L512.027115679,273.99956265 L512.18018806,274.917996939 L510.649464247,279.204023617 L511.261753772,280.428602668 L512.027115679,280.428602668 L512.18018806,280.581675049 L512.792477586,282.112398863 L512.792477586,285.479991253 L512.486332823,288.082221736 L512.027115679,288.694511262 L511.108681391,288.388366499 L510.802536628,288.235294118 L508.506450908,285.633063634 L505.291930899,287.776076974 L503.608134704,292.215176033 L497.485239449,295.582768423 L497.179094686,292.062103652 L492.893068008,285.939208397 L490.750054669,286.24535316 L489.678547999,286.857642685 L489.219330855,287.163787448 L486.310955609,291.296741745 L484.933304177,290.990596982 L484.780231795,290.990596982 L484.014869888,291.449814126 L483.555652744,291.602886508 L481.412639405,291.755958889 L480.341132736,292.521320796 L478.963481303,289.459873169 L475.595888913,288.694511262 L471.769079379,293.439755084 L471.003717472,288.694511262 L470.391427947,287.929149355 L469.472993658,287.316859829 L468.860704133,286.704570304 L468.860704133,286.551497923 L482.178001312,280.428602668 L486.157883228,280.122457905 L494.576864203,273.693417888 L499.934397551,266.499015963 L503.14891756,258.845396895 L512.792477586,253.487863547 L518.456155696,248.130330199 L519.833807129,239.405204461 L520.446096654,238.027553029 L521.976820468,234.966105401 L524.732123333,236.190684452 L525.344412858,236.343756834 L525.803630002,236.496829215 L525.956702384,236.802973978 L525.956702384,236.956046359 L525.956702384,237.721408266 L525.803630002,239.405204461 L525.956702384,240.017493986 L526.109774765,240.323638749 L526.415919528,240.629783512 L527.181281435,241.242073037 Z" fill="#cee3f5" id="JP.NI" stroke="#6e6e6e" stroke-width="0.4"><desc><labelrank>6</labelrank><code_hasc>JP.NI</code_hasc><name>Niigata</name><admin>Japan</admin><type_en>Prefecture</type_en><region>Chubu</region><woe_id>2345878</woe_id><longitude>139</longitude><woe_name>Niigata</woe_name><fips>JA29</fips><woe_label>Niigata Prefecture, JP, Japan</woe_label><latitude>37</latitude><iso_a2>JP</iso_a2><postal>NI</postal><type>Ken</type><id>JP.NI</id></desc></path><path d="M547.999125301,223.944893943 L548.305270063,224.71025585 L550.295211021,228.230920621 L550.295211021,228.383993002 L549.989066258,228.843210147 L549.989066258,228.996282528 L549.989066258,229.608572053 L549.989066258,230.527006342 L549.835993877,230.986223486 L549.835993877,231.44544063 L549.529849114,231.751585393 L549.376776733,231.904657774 L548.917559589,232.057730155 L548.458342445,231.904657774 L548.305270063,231.904657774 L547.999125301,232.363874918 L549.376776733,238.333697791 L546.468401487,244.150448283 L546.009184343,245.375027334 L546.009184343,247.211895911 L546.009184343,247.671113055 L545.70303958,248.436474962 L545.549967199,248.895692106 L544.784605292,249.661054013 L544.325388148,250.579488301 L543.866171004,250.885633064 L543.253881478,251.191777826 L541.876230046,251.497922589 L541.570085283,251.65099497 L541.26394052,252.110212115 L541.110868139,252.569429259 L540.804723376,254.712442598 L540.804723376,260.988410234 L539.273999563,262.212989285 L536.365624317,262.82527881 L531.773452876,259.763831183 L526.262847146,259.45768642 L525.344412858,258.692324513 L524.42597857,258.080034988 L523.813689044,257.467745462 L523.507544282,256.855455937 L523.507544282,256.396238793 L524.732123333,250.885633064 L525.191340477,247.058823529 L525.803630002,246.293461623 L526.262847146,246.293461623 L527.334353816,246.446534004 L527.946643341,246.446534004 L528.712005248,246.140389241 L529.936584299,244.91581019 L530.242729062,244.456593046 L530.395801443,243.844303521 L530.395801443,243.385086377 L528.712005248,241.5482178 L527.487426197,241.395145419 L527.181281435,241.242073037 L526.72206429,240.935928275 L526.415919528,240.629783512 L526.109774765,240.323638749 L525.956702384,240.017493986 L525.803630002,239.405204461 L525.956702384,238.18062541 L525.956702384,236.802973978 L525.803630002,236.496829215 L525.344412858,236.343756834 L524.732123333,236.190684452 L521.976820468,234.966105401 L523.3544719,231.44544063 L528.099715723,225.934834901 L531.008090969,215.83205773 L543.100809097,219.811939646 L547.999125301,223.944893943 Z" fill="#cee3f5" id="JP.YT" stroke="#6e6e6e" stroke-width="0.4"><desc><labelrank>6</labelrank><code_hasc>JP.YT</code_hasc><name>Yamagata</name><admin>Japan</admin><type_en>Prefecture</type_en><region>Tohoku</region><woe_id>2345893</woe_id><longitude>140</longitude><woe_name>Yamagata</woe_name><fips>JA44</fips><woe_label>Yamagata Prefecture, JP, Japan</woe_label><latitude>38</latitude><iso_a2>JP</iso_a2><postal>YT</postal><type>Ken</type><id>JP.YT</id></desc></path><path d="M218.128143451,410.38705445 L217.056636781,410.846271594 L217.975071069,409.468620162 L218.128143451,410.38705445 M213.53597201,409.927837306 L214.760551061,414.213863984 L211.239886289,413.601574459 L210.780669145,416.203804942 L206.035425323,414.060791603 L208.484583424,408.550185874 L209.403017713,410.080909687 L212.770610103,408.550185874 L213.53597201,409.927837306 M215.525912967,408.856330636 L214.301333916,409.927837306 L213.689044391,407.478679204 L215.525912967,408.856330636 M217.209709162,406.866389679 L216.597419637,408.856330636 L215.066695823,406.560244916 L217.209709162,406.866389679 M219.352722502,406.101027772 L219.046577739,407.631751585 L217.515853925,405.94795539 L218.281215832,404.723376339 L219.352722502,406.101027772 M221.954952985,401.508856331 L221.801880604,403.039580144 L224.097966324,403.498797288 L220.118084408,408.703258255 L219.658867264,404.723376339 L218.128143451,404.111086814 L220.424229171,403.192652526 L220.577301553,401.202711568 L221.495735841,401.815001093 L222.720314892,397.069757271 L221.954952985,401.508856331 M223.63874918,396.457467745 L223.485676799,397.375902034 L223.179532036,395.539033457 L223.63874918,396.457467745 M224.251038705,393.702164881 L222.108025366,393.702164881 L223.791821561,392.47758583 L224.251038705,393.702164881 M243.538158758,393.702164881 L241.701290182,395.692105839 L246.140389241,400.896566805 L245.681172097,402.886507763 L249.201836869,406.560244916 L253.181718784,408.090968729 L250.120271157,410.080909687 L256.855455937,411.45856112 L256.243166412,417.887601137 L250.885633064,419.877542095 L250.120271157,416.663022086 L252.72250164,414.520008747 L249.507981631,412.683140171 L245.528099716,413.295429696 L243.385086377,416.663022086 L238.639842554,419.418324951 L242.61972447,414.366936366 L236.956046359,406.866389679 L238.792914935,401.355783949 L240.935928275,403.192652526 L240.170566368,405.029521102 L240.935928275,404.264159195 L242.466652088,405.641810628 L241.242073037,409.162475399 L247.058823529,410.846271594 L245.375027334,407.784823967 L246.140389241,404.876448721 L244.456593046,403.039580144 L240.629783512,402.580363 L241.242073037,400.131204898 L239.864421605,399.059698229 L238.486770173,401.049639187 L238.333697791,397.988191559 L235.578394927,396.457467745 L237.415263503,391.40607916 L239.711349224,390.946862016 L239.711349224,392.171441067 L243.538158758,393.702164881 M236.496829215,390.181500109 L234.047671113,395.692105839 L231.44544063,397.682046796 L229.455499672,397.375902034 L229.761644435,396.304395364 L231.292368248,397.069757271 L232.976164443,392.018368686 L236.496829215,390.181500109 M243.232013995,390.181500109 L241.089000656,390.487644872 L242.313579707,388.803848677 L243.232013995,390.181500109 M243.844303521,376.86420293 L244.609665428,379.466433414 L242.160507326,380.997157227 L240.323638749,378.854143888 L241.5482178,378.854143888 L240.782855893,376.86420293 L242.007434944,375.027334354 L243.844303521,376.86420293 M230.527006342,359.260879073 L232.210802537,358.342444785 L233.894598732,359.873168598 L229.608572053,366.149136234 L228.383993002,364.006122895 L230.220861579,357.88322764 L230.527006342,359.260879073 M238.792914935,346.096654275 L238.639842554,350.382680953 L234.81303302,355.893286683 L235.884539689,357.88322764 L233.282309206,359.107806691 L233.282309206,356.352503827 L232.363874918,357.730155259 L230.833151104,357.117865734 L233.588453969,353.750273344 L233.435381588,350.076536191 L234.659960639,347.474305707 L238.792914935,346.096654275 Z" fill="#cee3f5" id="JP.NS" stroke="#6e6e6e" stroke-width="0.4"><desc><labelrank>2</labelrank><code_hasc>JP.NS</code_hasc><name>Nagasaki</name><admin>Japan</admin><type_en>Prefecture</type_en><region /><woe_id>2345876</woe_id><longitude>128</longitude><woe_name>Nagasaki</woe_name><fips>JA32</fips><woe_label>Nagasaki Prefecture, JP, Japan</woe_label><latitude>32</latitude><iso_a2>JP</iso_a2><postal /><type>Ken</type><id>JP.NS</id></desc></path><path d="M232.516947299,510.802536628 L234.353815876,513.25169473 L232.670019681,512.945549967 L232.516947299,510.802536628 M253.487863547,492.893068008 L258.386179751,496.413732779 L255.937021649,500.393614695 L252.263284496,501.00590422 L250.885633064,500.393614695 L249.661054013,495.036081347 L253.487863547,492.893068008 M243.691231139,491.209271813 L246.446534004,493.352285152 L244.91581019,493.658429915 L243.691231139,491.209271813 M269.560463591,491.209271813 L267.876667396,492.433850864 L266.805160726,497.332167068 L264.049857861,498.097528974 L263.89678548,493.658429915 L266.345943582,491.515416576 L266.958233107,487.076317516 L271.091187404,481.718784168 L269.560463591,491.209271813 M234.659960639,450.951235513 L232.823092062,449.879728843 L237.10911874,445.593702165 L237.415263503,447.430570741 L234.659960639,450.951235513 M239.711349224,443.297616444 L241.701290182,443.756833588 L241.242073037,445.287557402 L238.333697791,444.216050733 L239.711349224,443.297616444 M264.96829215,438.399300241 L268.948174065,445.746774546 L269.101246447,449.114366936 L273.234200743,454.624972666 L277.061010278,456.767986005 L275.683358845,460.594795539 L272.774983599,461.360157446 L271.397332167,463.962387929 L273.846490269,465.340039361 L272.774983599,466.870763175 L274.458779794,467.023835557 L270.785042642,468.707631752 L268.488956921,471.92215176 L259.763831183,475.136671769 L260.223048327,472.840586049 L262.672206429,471.309862235 L264.96829215,463.962387929 L262.672206429,456.767986005 L259.763831183,455.237262191 L262.672206429,454.318827903 L264.202930243,456.461841242 L266.345943582,453.553465996 L265.580581675,451.410452657 L262.978351192,450.64509075 L260.682265471,452.022742182 L257.1616007,459.523288869 L258.386179751,464.268532692 L260.835337853,466.105401268 L259.916903564,468.860704133 L256.855455937,469.472993658 L254.559370216,466.25847365 L247.977257818,465.646184124 L247.824185436,462.584736497 L245.528099716,459.829433632 L248.589547343,461.054012683 L252.416356877,453.706538377 L248.28340258,447.124425979 L249.048764487,445.593702165 L250.273343538,446.20599169 L249.507981631,436.868576427 L251.65099497,435.643997376 L253.028646403,436.715504045 L254.559370216,435.03170785 L256.702383556,436.868576427 L261.600699759,435.643997376 L264.96829215,438.399300241 Z" fill="#cee3f5" id="JP.KS" stroke="#6e6e6e" stroke-width="0.4"><desc><labelrank>2</labelrank><code_hasc>JP.KS</code_hasc><name>Kagoshima</name><admin>Japan</admin><type_en>Prefecture</type_en><region>Kyushu</region><woe_id>2345867</woe_id><longitude>129</longitude><woe_name>Kagoshima</woe_name><fips>JA18</fips><woe_label>Kagoshima Prefecture, JP, Japan</woe_label><latitude>29</latitude><iso_a2>JP</iso_a2><postal /><type>Ken</type><id>JP.KS</id></desc></path><path d="M25.2569429259,677.039142795 L29.6960419856,679.029083752 L27.2468838837,682.549748524 L20.9709162475,680.406735185 L23.4200743494,679.947518041 L25.2569429259,677.039142795 M40.4111086814,677.65143232 L39.3396020118,680.406735185 L37.1965886726,681.172097092 L34.441285808,677.498359939 L36.2781543844,676.273780888 L38.8803848677,677.498359939 L42.8602667833,672.906188498 L40.4111086814,677.65143232 M71.6378744806,668.926306582 L69.8010059042,667.854799913 L71.4848020993,667.242510387 L71.6378744806,668.926306582 M76.3831183031,670.303958014 L79.1384211677,671.834681828 L73.015525913,671.528537065 L73.7808878198,666.324076099 L76.3831183031,670.303958014 M262.82527881,652.394489394 L261.600699759,652.088344632 L262.82527881,650.557620818 L262.82527881,652.394489394 M127.203148918,623.004592171 L124.753990816,620.249289307 L127.203148918,620.55543407 L127.203148918,623.004592171 M175.267876667,614.432538815 L170.063415701,617.034769298 L169.451126175,619.024710256 L160.266783293,621.933085502 L161.797507107,626.678329324 L159.042204242,626.21911218 L156.899190903,629.433632189 L158.429914717,630.505138859 L157.511480429,632.035862672 L152.766236606,633.566586486 L152.766236606,628.974415045 L156.439973759,625.759895036 L156.286901378,621.933085502 L163.940520446,618.106275968 L161.950579488,615.963262628 L161.950579488,613.361032145 L167.308112836,615.657117866 L174.196369998,608.003498797 L176.339383337,611.371091187 L175.267876667,614.432538815 M188.738246228,591.012464465 L186.74830527,592.849333042 L184.146074787,592.390115898 L184.605291931,590.859392084 L189.656680516,590.094030177 L188.738246228,591.012464465 M198.381806254,582.899628253 L196.544937678,581.368904439 L196.391865296,578.001312049 L198.841023398,575.092936803 L200.830964356,580.144325388 L198.381806254,582.899628253 M207.872293899,566.98010059 L211.546031052,570.500765362 L207.719221518,569.582331074 L206.800787229,566.367811065 L207.872293899,566.98010059 M231.598513011,565.296304395 L229.149354909,564.990159633 L232.976164443,562.694073912 L231.598513011,565.296304395 M223.791821561,559.632626285 L215.066695823,563.765580582 L214.148261535,565.143232014 L215.525912967,566.367811065 L211.852175815,567.898534879 L212.46446534,569.429258692 L209.556090094,565.296304395 L205.882352941,564.224797726 L209.709162475,564.530942489 L210.321452001,563.6125082 L208.484583424,562.694073912 L209.709162475,561.928712005 L216.444347256,559.479553903 L217.515853925,560.551060573 L221.189591078,557.795757708 L221.495735841,559.326481522 L222.56724251,557.030395801 L223.791821561,559.632626285 Z" fill="#cee3f5" id="JP.ON" stroke="#6e6e6e" stroke-width="0.4"><desc><labelrank>2</labelrank><code_hasc>JP.ON</code_hasc><name>Okinawa</name><admin>Japan</admin><type_en>Prefecture</type_en><region>Okinawa</region><woe_id>2345896</woe_id><longitude>123</longitude><woe_name>Okinawa</woe_name><fips>JA40</fips><woe_label>Okinawa Prefecture, JP, Japan</woe_label><latitude>24</latitude><iso_a2>JP</iso_a2><postal /><type>Ken</type><id>JP.ON</id></desc></path><path d="M512.027115679,288.694511262 L516.006997595,290.225235075 L514.3232014,298.950360813 L518.150010934,301.399518915 L515.088563306,308.134703696 L517.843866171,311.655368467 L521.823748087,311.96151323 L523.660616663,313.951454188 L524.119833807,315.635250383 L508.81259567,311.349223704 L506.669582331,315.788322764 L497.485239449,321.298928493 L495.036081347,319.155915154 L493.964574677,315.022960857 L495.34222611,306.757052263 L490.596982287,306.603979882 L489.066258474,304.307894161 L492.586923245,297.113492237 L497.485239449,295.582768423 L503.608134704,292.215176033 L505.291930899,287.776076974 L508.506450908,285.633063634 L510.343319484,287.010715067 L510.802536628,288.235294118 L511.108681391,288.388366499 L512.027115679,288.694511262 Z" fill="#cee3f5" id="JP.GM" stroke="#6e6e6e" stroke-width="0.4"><desc><labelrank>2</labelrank><code_hasc>JP.GM</code_hasc><name>Gunma</name><admin>Japan</admin><type_en>Prefecture</type_en><region>Kanto</region><woe_id>2345860</woe_id><longitude>139</longitude><woe_name>Gunma</woe_name><fips>JA10</fips><woe_label>Gunma Prefecture, JP, Japan</woe_label><latitude>36</latitude><iso_a2>JP</iso_a2><postal /><type>Ken</type><id>JP.GM</id></desc></path></svg>