<?xml version='1.0' encoding='utf-8'?>
<svg height="700" width="700" xmlns="http://www.w3.org/2000/svg"><path d="M292.849519744,105.336179296 L298.826040555,107.5773746 L300.320170758,109.818569904 L298.826040555,115.048025614 L295.837780149,120.277481323 L295.090715048,121.771611526 L292.849519744,121.771611526 L286.125933831,121.771611526 L283.884738527,121.771611526 L280.896478122,120.277481323 L280.896478122,120.277481323 L281.643543223,116.542155816 L281.643543223,109.818569904 L285.37886873,106.830309498 L288.367129136,106.830309498 L290.60832444,105.336179296 L292.849519744,105.336179296 M298.078975454,76.2006403415 L298.826040555,76.2006403415 L298.826040555,77.6947705443 L297.331910352,77.6947705443 L293.596584845,79.9359658485 L289.861259338,79.9359658485 L289.861259338,80.6830309498 L289.861259338,81.4300960512 L290.60832444,83.6712913554 L289.114194237,85.1654215582 L287.620064034,85.9124866596 L286.125933831,82.924226254 L286.125933831,79.9359658485 L283.137673426,77.6947705443 L280.896478122,73.9594450374 L280.14941302,71.7182497332 L280.896478122,69.477054429 L281.643543223,67.2358591249 L284.631803629,64.9946638207 L288.367129136,62.7534685165 L289.861259338,62.7534685165 L292.849519744,65.7417289221 L295.837780149,70.9711846318 L296.584845251,71.7182497332 L295.090715048,73.9594450374 L295.090715048,74.7065101387 L298.078975454,76.2006403415 M308.537886873,60.5122732124 L305.549626467,60.5122732124 L304.802561366,61.2593383138 L304.055496265,61.2593383138 L303.308431163,60.5122732124 L307.04375667,56.0298826041 L308.537886873,55.2828175027 L310.032017076,54.5357524013 L310.779082177,55.2828175027 L311.526147279,58.2710779082 L310.779082177,59.0181430096 L308.537886873,60.5122732124 M275.667022412,44.8239060832 L276.414087513,45.5709711846 L278.655282818,44.0768409819 L278.655282818,47.0651013874 L277.161152615,47.8121664888 L273.425827108,47.8121664888 L271.931696905,44.8239060832 L271.931696905,43.3297758805 L272.678762006,41.8356456777 L275.667022412,41.0885805763 L277.161152615,41.8356456777 L277.161152615,43.3297758805 L274.919957311,43.3297758805 L275.667022412,44.8239060832 M214.407684098,34.3649946638 L212.913553895,38.1003201708 L211.419423693,33.6179295624 L212.913553895,32.870864461 L214.407684098,34.3649946638 M209.178228388,19.4236926361 L207.684098186,19.4236926361 L205.442902882,19.4236926361 L204.69583778,17.9295624333 L203.948772679,16.4354322305 L205.442902882,14.9413020277 L206.937033084,14.9413020277 L209.178228388,14.9413020277 L210.672358591,15.6883671291 L209.92529349,17.9295624333 L209.178228388,19.4236926361 M202.454642476,11.9530416222 L201.707577375,11.9530416222 L199.46638207,10.4589114194 L199.46638207,6.72358591249 L200.213447172,2.98826040555 L198.719316969,1.49413020277 L198.719316969,0.0 L201.707577375,0.747065101387 L203.201707577,2.24119530416 L203.948772679,5.22945570971 L203.201707577,7.47065101387 L203.948772679,8.96478121665 L203.201707577,8.96478121665 L203.201707577,10.4589114194 L202.454642476,11.9530416222 Z" fill="#cee3f5" id="VU.TR" stroke="#6e6e6e" stroke-width="0.4"><desc><labelrank>9</labelrank><code_hasc>VU.TR</code_hasc><name>Torba</name><admin>Vanuatu</admin><type_en>Province</type_en><region /><woe_id>20069883</woe_id><longitude>167</longitude><woe_name>Torba</woe_name><fips>NH07</fips><woe_label>Torba, VU, Vanuatu</woe_label><latitude>-14</latitude><iso_a2>VU</iso_a2><postal>TR</postal><type>Province</type><id>VU.TR</id></desc></path><path d="M263.71398079,259.231590181 L261.472785486,259.978655283 L259.231590181,259.978655283 L255.496264674,257.737459979 L251.760939168,256.243329776 L250.266808965,255.496264674 L248.772678762,252.508004269 L248.772678762,250.266808965 L251.013874066,248.025613661 L254.002134472,247.278548559 L260.725720384,248.025613661 L263.71398079,249.519743863 L264.461045891,251.013874066 L262.966915688,254.002134472 L263.71398079,259.231590181 M261.472785486,245.037353255 L259.978655283,246.531483458 L258.48452508,245.784418356 L256.990394877,246.531483458 L254.749199573,245.784418356 L252.508004269,244.290288154 L256.990394877,239.807897545 L259.978655283,239.060832444 L259.978655283,239.060832444 L258.48452508,239.807897545 L258.48452508,240.554962647 L259.978655283,241.302027748 L259.231590181,242.04909285 L261.472785486,243.543223052 L261.472785486,245.037353255 M256.243329776,183.778014941 L255.496264674,184.525080043 L254.002134472,183.778014941 L251.760939168,180.789754536 L253.25506937,180.789754536 L255.496264674,183.03094984 L257.737459979,183.03094984 L256.243329776,183.778014941 M224.866595518,202.454642476 L234.578441836,202.454642476 L239.060832444,197.225186766 L239.807897545,185.272145144 L239.060832444,182.283884739 L240.554962647,181.536819637 L243.543223052,180.042689434 L250.266808965,180.789754536 L250.266808965,181.536819637 L248.772678762,181.536819637 L248.025613661,182.283884739 L248.025613661,187.513340448 L246.531483458,189.754535752 L248.025613661,189.754535752 L248.772678762,191.248665955 L248.772678762,194.236926361 L251.013874066,200.960512273 L253.25506937,199.46638207 L254.002134472,199.46638207 L256.243329776,199.46638207 L255.496264674,201.707577375 L256.990394877,209.178228388 L256.990394877,210.672358591 L255.496264674,211.419423693 L256.243329776,212.913553895 L259.231590181,214.407684098 L259.978655283,216.648879402 L259.978655283,220.384204909 L259.231590181,221.131270011 L258.48452508,219.637139808 L257.737459979,219.637139808 L258.48452508,222.625400213 L262.219850587,232.337246531 L265.208110993,234.578441836 L264.461045891,237.566702241 L263.71398079,238.313767343 L261.472785486,237.566702241 L258.48452508,237.566702241 L256.990394877,238.313767343 L251.760939168,243.543223052 L249.519743863,244.290288154 L247.278548559,244.290288154 L244.290288154,243.543223052 L241.302027748,242.796157951 L236.81963714,242.796157951 L233.084311633,243.543223052 L230.843116329,245.784418356 L232.337246531,246.531483458 L229.348986126,246.531483458 L227.854855923,247.278548559 L226.36072572,249.519743863 L224.866595518,251.013874066 L222.625400213,250.266808965 L220.384204909,249.519743863 L218.890074707,248.025613661 L220.384204909,245.784418356 L220.384204909,243.543223052 L218.890074707,241.302027748 L215.901814301,239.807897545 L214.407684098,238.313767343 L212.913553895,235.325506937 L211.419423693,232.337246531 L208.431163287,229.348986126 L206.189967983,224.119530416 L209.178228388,214.407684098 L209.178228388,208.431163287 L209.178228388,206.189967983 L206.937033084,202.454642476 L206.189967983,200.960512273 L204.69583778,192.742796158 L204.69583778,191.995731057 L206.189967983,189.754535752 L203.948772679,189.754535752 L203.201707577,188.26040555 L202.454642476,183.03094984 L199.46638207,177.80149413 L197.972251868,171.077908218 L198.719316969,165.101387407 L198.719316969,161.3660619 L200.960512273,156.13660619 L200.960512273,152.401280683 L203.948772679,151.654215582 L205.442902882,150.90715048 L206.189967983,151.654215582 L207.684098186,155.389541089 L209.178228388,156.883671291 L209.178228388,159.124866596 L212.166488794,162.113127001 L212.913553895,165.848452508 L218.890074707,169.583778015 L218.143009605,170.330843116 L221.131270011,182.283884739 L221.131270011,188.26040555 L222.625400213,189.754535752 L224.119530416,201.707577375 L224.866595518,202.454642476 Z" fill="#cee3f5" id="VU.SN" stroke="#6e6e6e" stroke-width="0.4"><desc><labelrank>9</labelrank><code_hasc>VU.SN</code_hasc><name>Sanma</name><admin>Vanuatu</admin><type_en>Province</type_en><region /><woe_id>20069884</woe_id><longitude>167</longitude><woe_name>Sanma</woe_name><fips>NH13</fips><woe_label>Sanma, VU, Vanuatu</woe_label><latitude>-15</latitude><iso_a2>VU</iso_a2><postal>SN</postal><type>Province</type><id>VU.SN</id></desc></path><path d="M496.051227321,700.0 L495.30416222,700.0 L494.557097118,699.252934899 L491.568836713,698.505869797 L487.086446105,695.517609392 L487.086446105,693.276414088 L487.833511206,691.035218783 L489.327641409,689.541088581 L495.30416222,688.794023479 L496.798292423,689.541088581 L501.280683031,692.529348986 L502.027748132,694.77054429 L500.53361793,698.505869797 L498.292422625,699.252934899 L496.051227321,700.0 M462.433297759,640.98185699 L460.939167556,641.728922092 L459.445037353,641.728922092 L454.215581644,639.487726788 L449.733191035,634.258271078 L446.74493063,633.511205977 L445.997865528,632.017075774 L444.503735326,630.522945571 L441.51547492,624.54642476 L441.51547492,622.305229456 L442.262540021,617.822838847 L443.756670224,616.328708645 L443.756670224,612.593383138 L443.756670224,611.099252935 L445.997865528,609.605122732 L451.227321238,608.858057631 L452.721451441,608.110992529 L454.215581644,609.605122732 L453.468516542,614.834578442 L454.215581644,621.558164354 L454.962646745,623.052294557 L460.939167556,626.040554963 L467.662753469,629.028815368 L463.927427962,634.258271078 L462.433297759,640.98185699 M440.768409819,552.081109925 L444.503735326,552.081109925 L445.997865528,552.081109925 L445.997865528,552.828175027 L447.491995731,553.575240128 L448.239060832,555.069370331 L440.768409819,556.563500534 L443.009605123,560.298826041 L450.480256137,564.781216649 L452.721451441,566.275346852 L453.468516542,568.516542156 L453.468516542,571.504802561 L452.721451441,573.745997866 L448.986125934,575.98719317 L448.239060832,577.481323372 L437.780149413,571.504802561 L437.033084312,571.504802561 L434.791889007,571.504802561 L432.550693703,570.75773746 L428.068303095,567.769477054 L422.091782284,564.781216649 L421.344717182,563.287086446 L423.585912487,558.057630736 L421.344717182,554.322305229 L422.091782284,546.851654216 L424.332977588,543.116328709 L427.321237994,540.875133404 L430.309498399,540.128068303 L434.044823906,540.128068303 L437.780149413,542.369263607 L438.527214514,543.86339381 L438.527214514,549.09284952 L439.274279616,550.586979723 L440.768409819,552.081109925 Z" fill="#cee3f5" id="VU.TF" stroke="#6e6e6e" stroke-width="0.4"><desc><labelrank>9</labelrank><code_hasc>VU.TF</code_hasc><name>Tafea</name><admin>Vanuatu</admin><type_en>Province</type_en><region /><woe_id>20069887</woe_id><longitude>169</longitude><woe_name>Tafea</woe_name><fips>NH15</fips><woe_label>Tafea, VU, Vanuatu</woe_label><latitude>-20</latitude><iso_a2>VU</iso_a2><postal>TF</postal><type>Province</type><id>VU.TF</id></desc></path><path d="M366.808964781,337.673425827 L363.820704376,337.673425827 L362.326574173,333.93810032 L366.06189968,333.191035219 L366.808964781,333.93810032 L368.303094984,335.432230523 L368.303094984,336.926360726 L366.808964781,337.673425827 M357.097118463,333.191035219 L355.60298826,333.93810032 L354.108858058,333.93810032 L353.361792956,333.191035219 L354.108858058,331.696905016 L355.60298826,327.961579509 L356.350053362,327.214514408 L358.591248666,327.214514408 L357.844183565,328.70864461 L357.844183565,331.696905016 L357.097118463,333.191035219 M364.567769477,316.008537887 L361.579509072,318.996798292 L351.867662753,318.996798292 L347.385272145,320.490928495 L344.39701174,318.249733191 L342.902881537,317.50266809 L342.155816435,318.249733191 L339.16755603,316.008537887 L338.420490928,316.008537887 L336.926360726,316.755602988 L336.179295624,315.261472785 L327.214514408,310.032017076 L327.961579509,308.537886873 L326.467449306,307.790821772 L327.961579509,306.296691569 L333.191035219,304.802561366 L334.685165422,303.308431163 L339.16755603,303.308431163 L341.408751334,302.561366062 L346.638207044,297.331910352 L348.132337247,293.596584845 L351.120597652,292.849519744 L352.614727855,295.090715048 L354.108858058,298.078975454 L356.350053362,304.055496265 L356.350053362,307.04375667 L357.844183565,309.284951974 L364.567769477,313.020277481 L365.314834578,313.767342583 L365.314834578,315.261472785 L364.567769477,316.008537887 M280.896478122,295.090715048 L285.37886873,297.331910352 L286.125933831,297.331910352 L285.37886873,294.343649947 L285.37886873,294.343649947 L287.620064034,297.331910352 L286.872998933,300.320170758 L289.861259338,301.814300961 L291.355389541,300.320170758 L292.102454642,302.561366062 L293.596584845,304.055496265 L298.078975454,306.296691569 L301.067235859,310.032017076 L302.561366062,310.779082177 L304.802561366,310.032017076 L306.296691569,310.032017076 L305.549626467,312.27321238 L307.04375667,314.514407684 L310.779082177,317.50266809 L313.767342583,317.50266809 L314.514407684,319.743863394 L315.261472785,324.226254002 L313.767342583,327.214514408 L313.767342583,329.455709712 L314.514407684,330.202774813 L315.261472785,327.214514408 L316.755602988,325.720384205 L318.249733191,324.973319104 L319.743863394,329.455709712 L317.50266809,330.949839915 L316.008537887,331.696905016 L313.020277481,335.432230523 L313.020277481,336.926360726 L310.779082177,337.673425827 L309.284951974,334.685165422 L305.549626467,333.93810032 L304.802561366,333.191035219 L301.067235859,333.191035219 L299.573105656,332.443970117 L297.331910352,333.191035219 L294.343649947,335.432230523 L295.837780149,336.926360726 L295.090715048,337.673425827 L291.355389541,338.420490928 L289.861259338,340.661686233 L288.367129136,339.914621131 L287.620064034,341.408751334 L286.872998933,341.408751334 L286.125933831,339.914621131 L283.884738527,339.16755603 L283.137673426,336.926360726 L280.14941302,334.685165422 L280.14941302,332.443970117 L283.137673426,334.685165422 L283.137673426,333.191035219 L281.643543223,329.455709712 L279.402347919,324.973319104 L279.402347919,321.237993597 L277.161152615,319.743863394 L277.161152615,311.526147279 L277.908217716,310.779082177 L276.414087513,302.561366062 L275.667022412,302.561366062 L274.919957311,300.320170758 L271.931696905,295.090715048 L269.690501601,296.584845251 L268.943436499,295.837780149 L267.449306297,298.078975454 L262.966915688,300.320170758 L261.472785486,298.826040555 L259.978655283,298.078975454 L259.231590181,298.826040555 L257.737459979,294.343649947 L255.496264674,292.102454642 L254.749199573,290.60832444 L255.496264674,288.367129136 L258.48452508,283.137673426 L257.737459979,277.161152615 L259.231590181,273.425827108 L262.966915688,271.184631804 L273.425827108,275.667022412 L272.678762006,278.655282818 L278.655282818,286.125933831 L277.161152615,289.114194237 L279.402347919,290.60832444 L279.402347919,291.355389541 L278.655282818,292.849519744 L280.896478122,295.090715048 Z" fill="#cee3f5" id="VU.ML" stroke="#6e6e6e" stroke-width="0.4"><desc><labelrank>9</labelrank><code_hasc>VU.ML</code_hasc><name>Malampa</name><admin>Vanuatu</admin><type_en>Province</type_en><region /><woe_id>20069886</woe_id><longitude>167</longitude><woe_name>Malampa</woe_name><fips>NH16</fips><woe_label>Malampa, VU, Vanuatu</woe_label><latitude>-16</latitude><iso_a2>VU</iso_a2><postal>ML</postal><type>Province</type><id>VU.ML</id></desc></path><path d="M356.350053362,284.631803629 L354.108858058,284.631803629 L353.361792956,283.884738527 L352.614727855,278.655282818 L351.120597652,272.678762006 L349.626467449,265.208110993 L348.132337247,259.978655283 L347.385272145,256.243329776 L346.638207044,252.508004269 L347.385272145,248.772678762 L349.626467449,241.302027748 L350.373532551,233.084311633 L352.614727855,233.084311633 L353.361792956,238.313767343 L354.855923159,240.554962647 L354.108858058,249.519743863 L355.60298826,252.508004269 L355.60298826,256.990394877 L357.844183565,262.966915688 L358.591248666,268.196371398 L360.085378869,273.425827108 L360.085378869,280.14941302 L359.338313767,283.137673426 L356.350053362,284.631803629 M322.732123799,234.578441836 L320.490928495,235.325506937 L310.779082177,234.578441836 L305.549626467,232.337246531 L305.549626467,231.59018143 L306.296691569,230.096051227 L317.50266809,218.890074707 L325.720384205,216.648879402 L333.93810032,215.1547492 L336.179295624,215.901814301 L336.179295624,216.648879402 L331.696905016,221.878335112 L329.455709712,229.348986126 L322.732123799,234.578441836 M353.361792956,224.119530416 L352.614727855,227.107790822 L350.373532551,226.36072572 L348.132337247,226.36072572 L348.879402348,224.119530416 L348.879402348,221.878335112 L348.132337247,217.395944504 L348.132337247,214.407684098 L348.879402348,203.948772679 L347.385272145,201.707577375 L345.891141942,186.766275347 L345.891141942,184.525080043 L345.144076841,183.03094984 L345.891141942,180.789754536 L347.385272145,180.042689434 L348.132337247,180.789754536 L349.626467449,184.525080043 L351.120597652,193.489861259 L351.120597652,197.972251868 L352.614727855,201.707577375 L352.614727855,205.442902882 L354.108858058,208.431163287 L354.108858058,215.1547492 L354.108858058,216.648879402 L353.361792956,224.119530416 Z" fill="#cee3f5" id="VU.PM" stroke="#6e6e6e" stroke-width="0.4"><desc><labelrank>9</labelrank><code_hasc>VU.PM</code_hasc><name>Penama</name><admin>Vanuatu</admin><type_en>Province</type_en><region /><woe_id>20069885</woe_id><longitude>168</longitude><woe_name>Penama</woe_name><fips>NH17</fips><woe_label>Penama, VU, Vanuatu</woe_label><latitude>-15</latitude><iso_a2>VU</iso_a2><postal>PM</postal><type>Province</type><id>VU.PM</id></desc></path><path d="M363.820704376,435.538954109 L363.820704376,436.28601921 L366.06189968,434.791889007 L372.038420491,434.044823906 L373.532550694,434.044823906 L375.026680896,435.538954109 L375.773745998,437.780149413 L377.267876201,438.527214514 L380.256136606,445.250800427 L381.750266809,445.997865528 L383.244397012,448.986125934 L384.738527215,449.733191035 L386.979722519,448.986125934 L386.979722519,450.480256137 L382.49733191,459.445037353 L378.762006403,460.939167556 L377.267876201,461.686232657 L375.773745998,460.192102455 L368.303094984,461.686232657 L366.808964781,460.939167556 L366.06189968,458.697972252 L364.567769477,460.192102455 L364.567769477,457.95090715 L363.820704376,458.697972252 L362.326574173,457.95090715 L360.83244397,458.697972252 L361.579509072,455.709711846 L358.591248666,457.203842049 L355.60298826,457.95090715 L355.60298826,457.95090715 L357.097118463,456.456776948 L360.83244397,454.962646745 L361.579509072,452.721451441 L360.085378869,453.468516542 L358.591248666,450.480256137 L356.350053362,449.733191035 L353.361792956,449.733191035 L352.614727855,450.480256137 L349.626467449,453.468516542 L348.879402348,453.468516542 L348.132337247,451.974386339 L346.638207044,451.227321238 L349.626467449,445.250800427 L354.108858058,441.51547492 L357.844183565,436.28601921 L360.085378869,434.044823906 L363.073639274,434.044823906 L363.820704376,435.538954109 M352.614727855,437.033084312 L351.867662753,438.527214514 L351.867662753,435.538954109 L354.855923159,432.550693703 L358.591248666,431.056563501 L360.085378869,433.297758805 L355.60298826,434.791889007 L352.614727855,437.033084312 M367.556029883,428.815368196 L366.06189968,428.815368196 L363.820704376,428.068303095 L363.073639274,425.827107791 L363.820704376,422.838847385 L364.567769477,422.091782284 L366.06189968,423.585912487 L366.808964781,425.080042689 L367.556029883,428.815368196 M365.314834578,391.462113127 L363.820704376,390.715048026 L363.820704376,389.967982924 L366.06189968,387.72678762 L369.797225187,386.232657417 L373.532550694,386.979722519 L369.797225187,388.473852721 L368.303094984,390.715048026 L365.314834578,391.462113127 M386.979722519,376.520811099 L386.232657417,377.267876201 L383.244397012,376.520811099 L383.991462113,372.038420491 L385.485592316,370.544290288 L387.72678762,370.544290288 L389.220917823,372.785485592 L386.979722519,376.520811099 M351.867662753,340.661686233 L353.361792956,342.902881537 L354.855923159,346.638207044 L355.60298826,347.385272145 L356.350053362,351.120597652 L357.097118463,351.867662753 L359.338313767,351.120597652 L361.579509072,351.120597652 L363.073639274,352.614727855 L365.314834578,356.350053362 L366.808964781,357.097118463 L368.303094984,360.085378869 L370.544290288,360.085378869 L375.026680896,360.085378869 L377.267876201,360.83244397 L378.762006403,363.073639274 L377.267876201,363.820704376 L378.014941302,366.808964781 L378.014941302,367.556029883 L377.267876201,367.556029883 L376.520811099,367.556029883 L371.29135539,364.567769477 L369.797225187,363.073639274 L366.808964781,361.579509072 L365.314834578,361.579509072 L361.579509072,362.326574173 L355.60298826,365.314834578 L351.867662753,363.820704376 L348.132337247,360.83244397 L347.385272145,359.338313767 L347.385272145,355.60298826 L345.144076841,354.108858058 L345.891141942,348.132337247 L346.638207044,346.638207044 L348.132337247,345.144076841 L348.132337247,342.902881537 L348.132337247,340.661686233 L348.879402348,341.408751334 L350.373532551,340.661686233 L351.867662753,340.661686233 Z" fill="#cee3f5" id="VU.SE" stroke="#6e6e6e" stroke-width="0.4"><desc><labelrank>9</labelrank><code_hasc>VU.SE</code_hasc><name>Shefa</name><admin>Vanuatu</admin><type_en>Province</type_en><region /><woe_id>20069888</woe_id><longitude>168</longitude><woe_name>Shefa</woe_name><fips>NH18</fips><woe_label>Shefa, VU, Vanuatu</woe_label><latitude>-16</latitude><iso_a2>VU</iso_a2><postal>SE</postal><type>Province</type><id>VU.SE</id></desc></path></svg>