<?xml version='1.0' encoding='utf-8'?>
<svg height="700" width="700" xmlns="http://www.w3.org/2000/svg"><path d="M269.629983255,259.689470088 L268.281049006,258.876222078 L263.748534868,258.538457539 L262.303268729,256.833572318 L263.317391357,254.957839136 L267.551441902,252.538675529 L273.311222787,251.139512458 L282.395741381,250.777326935 L285.779052892,252.585204728 L289.208634774,253.435518981 L288.207046204,254.605284732 L278.696716603,258.846362285 L276.520949129,258.747616273 L273.666762091,257.437527312 L270.809662758,260.141440778 L269.629983255,259.689470088 Z" fill="#cee3f5" id="BS.NW" stroke="#6e6e6e" stroke-width="0.4"><desc><labelrank>20</labelrank><code_hasc>BS.NW</code_hasc><name>New Providence</name><admin>The Bahamas</admin><type_en>Capital</type_en><region /><woe_id>2344777</woe_id><longitude>-77</longitude><woe_name>New Providence</woe_name><fips /><woe_label>New Providence, BS, The Bahamas</woe_label><latitude>25</latitude><iso_a2>BS</iso_a2><postal>NW</postal><type>First Schedule District</type><id>BS.NW</id></desc></path><path d="M173.042642515,105.11175501 L172.182601758,105.647994245 L170.256214066,106.547121445 L168.669541965,107.615644734 L167.801648665,106.026266025 L169.721075426,103.551010823 L171.781447518,103.609337843 L173.042642515,105.11175501 Z" fill="#cee3f5" id="BS.FP" stroke="#6e6e6e" stroke-width="0.4"><desc><labelrank>20</labelrank><code_hasc>BS.FP</code_hasc><name>City of Freeport</name><admin>The Bahamas</admin><type_en>District</type_en><region /><woe_id>2344779</woe_id><longitude>-78</longitude><woe_name>City of Freeport</woe_name><fips>BF25</fips><woe_label>City of Freeport, BS, The Bahamas</woe_label><latitude>26</latitude><iso_a2>BS</iso_a2><postal>FP</postal><type>Third Schedule District</type><id>BS.FP</id></desc></path><path d="M185.002555126,82.1627556506 L184.833656383,82.9193354948 L183.579727303,83.1588798134 L182.823890719,81.5875029345 L183.851081855,82.3608134992 L184.674832236,81.1912268368 L185.002555126,82.1627556506 M184.538535956,87.4770629763 L189.840976746,99.3507516148 L178.293049705,101.930888092 L175.532124313,104.174172723 L173.042642515,105.11175501 L171.781447518,103.609337843 L169.721075426,103.551010823 L167.801648665,106.026266025 L168.669541965,107.615644734 L167.81932251,108.290832235 L165.100317613,108.794865441 L161.475628398,108.340169688 L157.963520644,106.984266623 L152.071336094,102.299702319 L137.997927086,87.2445721939 L139.724031528,87.4880474766 L152.141156186,96.2698461169 L154.677817233,99.9838444232 L157.867989532,99.5339430327 L160.697501653,100.856217126 L162.81957495,100.946609397 L169.71749851,97.2631248041 L173.964781484,91.1154736285 L175.644803077,90.062827704 L175.469104146,89.0075990056 L173.368739541,87.6191856938 L169.693683053,86.8419573215 L172.844747006,82.8794501154 L174.204421608,77.5123544182 L177.366026992,80.7673813211 L178.857922337,84.7039249296 L184.538535956,87.4770629763 Z" fill="#cee3f5" id="BS.WG" stroke="#6e6e6e" stroke-width="0.4"><desc><labelrank>20</labelrank><code_hasc>BS.WG</code_hasc><name>West Grand Bahama</name><admin>The Bahamas</admin><type_en>District</type_en><region /><woe_id>24551257</woe_id><longitude>-78</longitude><woe_name>West Grand Bahama</woe_name><fips>BF54</fips><woe_label>West Grand Bahama, BS, The Bahamas</woe_label><latitude>26</latitude><iso_a2>BS</iso_a2><postal>WG</postal><type>Second Schedule District</type><id>BS.WG</id></desc></path><path d="M239.990011469,100.51598154 L239.185269357,102.687623966 L238.026128337,103.539153286 L235.913163024,99.659709421 L239.094221458,98.8256297527 L239.481493723,99.3052052942 L238.439356856,100.602102032 L240.880829082,98.6923647469 L239.990011469,100.51598154 M189.840976746,99.3507516148 L184.538535956,87.4770629763 L187.753717371,88.8458197973 L189.610711621,88.4080610955 L201.106648773,90.6163437202 L202.348936689,88.858074499 L204.209866177,87.9795731617 L208.636770175,89.6536350703 L211.83049239,88.423260552 L216.087720143,89.1291053879 L221.782099861,87.1210247146 L229.225549692,86.9470362744 L230.604592072,86.3994909004 L232.917007496,82.983134629 L234.328047032,82.4278956124 L233.712710787,88.2987548074 L235.219141601,91.8311188608 L235.244687371,93.7275662454 L234.463727691,95.3037573851 L232.802746867,95.9661589299 L229.874275179,93.8697960297 L222.923287629,93.8350730433 L205.331866786,97.0740862466 L200.382769491,96.9500483297 L189.840976746,99.3507516148 Z" fill="#cee3f5" id="BS.EG" stroke="#6e6e6e" stroke-width="0.4"><desc><labelrank>20</labelrank><code_hasc>BS.EG</code_hasc><name>East Grand Bahama</name><admin>The Bahamas</admin><type_en>District</type_en><region /><woe_id>24551245</woe_id><longitude>-78</longitude><woe_name>East Grand Bahama</woe_name><fips>BF41</fips><woe_label>East Grand Bahama, BS, The Bahamas</woe_label><latitude>26</latitude><iso_a2>BS</iso_a2><postal>EG</postal><type>Second Schedule District</type><id>BS.EG</id></desc></path><path d="M198.639563173,37.3602268873 L197.750811898,36.3981935412 L198.589023024,36.0138101952 L199.281874938,36.4913405325 L198.639563173,37.3602268873 Z" fill="#cee3f5" id="BS.GC" stroke="#6e6e6e" stroke-width="0.4"><desc><labelrank>20</labelrank><code_hasc>BS.GC</code_hasc><name>Grand Cay</name><admin>The Bahamas</admin><type_en>District</type_en><region /><woe_id>24551246</woe_id><longitude>-78</longitude><woe_name>Grand Cay</woe_name><fips>BF42</fips><woe_label>Grand Cay, BS, The Bahamas</woe_label><latitude>27</latitude><iso_a2>BS</iso_a2><postal>GC</postal><type>Third Schedule District</type><id>BS.GC</id></desc></path><path d="M286.33183311,90.155629235 L282.105892083,91.0271678679 L280.707545523,92.1718679905 L277.513217845,91.3751890352 L276.911406503,90.3376784181 L277.461120373,88.7990578047 L276.055403043,85.4204074003 L272.146962571,78.5965507469 L269.785720819,75.6929240104 L266.387511353,73.8100378775 L264.415461838,73.7097087608 L261.207389008,75.0927070896 L253.934103229,72.8797278747 L248.815985921,72.5602803594 L242.139671777,69.4506118629 L235.115925296,69.8225769269 L230.412146105,70.8002962988 L234.829849323,68.1414404401 L238.860502309,67.4969769251 L247.159085757,67.7989118889 L259.934257246,70.3497999488 L262.001299114,68.7908889198 L266.676751518,71.0995762304 L270.368085989,73.9902525707 L286.33183311,90.155629235 Z" fill="#cee3f5" id="BS.NO" stroke="#6e6e6e" stroke-width="0.4"><desc><labelrank>20</labelrank><code_hasc>BS.NO</code_hasc><name>North Abaco</name><admin>The Bahamas</admin><type_en>District</type_en><region /><woe_id>24551249</woe_id><longitude>-77</longitude><woe_name>North Abaco</woe_name><fips>BF46</fips><woe_label>North Abaco, BS, The Bahamas</woe_label><latitude>26</latitude><iso_a2>BS</iso_a2><postal>NO</postal><type>Second Schedule District</type><id>BS.NO</id></desc></path><path d="M288.255678393,125.123986668 L289.097967684,125.247591845 L289.594654891,126.877680064 L289.128582391,130.063712161 L288.510672617,126.069927647 L286.432127899,126.157468662 L288.255678393,125.123986668 M288.948855435,119.978738285 L291.025611262,117.666074801 L291.724926161,117.650229507 L288.948855435,119.978738285 M293.94437085,113.533313249 L293.457964911,114.019657884 L293.586481383,116.616720381 L292.731342923,117.056384545 L291.605027149,116.642364392 L290.462462272,113.878462632 L292.517813955,112.916990733 L293.94437085,113.533313249 M276.818198433,98.6366841825 L277.636905672,99.1350751269 L277.6123811,100.619313823 L276.83011777,100.290617476 L276.818198433,98.6366841825 M312.087320675,125.576322397 L294.24730693,132.22097361 L294.019179898,130.941789275 L292.533479856,129.427543641 L295.432326367,125.301961436 L294.578007754,123.147058705 L294.564709765,116.175110461 L295.872043751,116.173573103 L297.610045808,114.702863128 L298.551229208,110.46274242 L300.199561143,109.517189692 L301.547137498,106.209023679 L300.935107803,104.742461408 L295.736803503,102.851267573 L287.528444744,101.494941142 L285.984225076,100.489259801 L283.991698287,96.3489274665 L284.29369062,94.0852930664 L282.568921091,91.1967277081 L282.105892083,91.0271678679 L286.33183311,90.155629235 L290.227413949,92.1492426204 L293.161072313,92.3985433955 L291.180691955,93.8157857358 L288.284662613,93.66324104 L291.338548287,98.5578860643 L293.623089937,100.03849881 L299.035790443,101.141955359 L301.459468164,102.389907071 L309.935374754,108.334057208 L311.354767901,111.454072791 L311.343785552,113.054841313 L309.859562836,114.414886592 L310.045682839,120.439512168 L310.843798868,121.50207804 L313.413630475,122.564287546 L312.087320675,125.576322397 Z" fill="#cee3f5" id="BS.CO" stroke="#6e6e6e" stroke-width="0.4"><desc><labelrank>20</labelrank><code_hasc>BS.CO</code_hasc><name>Central Abaco</name><admin>The Bahamas</admin><type_en>District</type_en><region /><woe_id>24551242</woe_id><longitude>-77</longitude><woe_name>Central Abaco</woe_name><fips>BF37</fips><woe_label>Central Abaco, BS, The Bahamas</woe_label><latitude>26</latitude><iso_a2>BS</iso_a2><postal>CO</postal><type>Second Schedule District</type><id>BS.CO</id></desc></path><path d="M267.613193776,150.951796664 L266.734068922,152.065352038 L265.534541627,150.416379249 L267.049333101,149.307252264 L267.613193776,150.951796664 M294.24730693,132.22097361 L312.087320675,125.576322397 L313.522439808,129.5165677 L312.61563142,130.709087499 L309.557794868,131.947946798 L310.19691668,130.059538536 L307.299101085,130.359087626 L304.526319963,131.866732898 L300.029334191,136.241351563 L299.146949546,138.672349744 L297.305309074,153.637827685 L297.183098455,168.728501982 L293.919401089,171.762856579 L291.583419887,170.483981244 L289.558858927,167.641124101 L287.616175552,162.474039526 L286.203146906,161.161771404 L279.697827341,159.612467475 L277.946781063,157.178460576 L281.023800495,156.667585034 L282.364948477,155.662004393 L283.411690762,153.234875642 L286.905209438,152.307655128 L290.235206885,148.641036864 L294.660155248,145.998115822 L293.56305948,142.238092611 L291.80539608,140.204282644 L291.678908843,139.131994082 L293.883606535,136.273749328 L294.24730693,132.22097361 Z" fill="#cee3f5" id="BS.SO" stroke="#6e6e6e" stroke-width="0.4"><desc><labelrank>20</labelrank><code_hasc>BS.SO</code_hasc><name>South Abaco</name><admin>The Bahamas</admin><type_en>District</type_en><region /><woe_id>24551253</woe_id><longitude>-77</longitude><woe_name>South Abaco</woe_name><fips>BF50</fips><woe_label>South Abaco, BS, The Bahamas</woe_label><latitude>26</latitude><iso_a2>BS</iso_a2><postal>SO</postal><type>Second Schedule District</type><id>BS.SO</id></desc></path><path d="M266.897604202,129.592178287 L263.727152588,133.275679443 L264.278605468,131.08156796 L263.236952359,128.388970051 L263.25386128,126.453808164 L266.897604202,129.592178287 Z" fill="#cee3f5" id="BS.MI" stroke="#6e6e6e" stroke-width="0.4"><desc><labelrank>20</labelrank><code_hasc>BS.MI</code_hasc><name>Moore's Island</name><admin>The Bahamas</admin><type_en>District</type_en><region /><woe_id>24551248</woe_id><longitude>-77</longitude><woe_name>Moore's Island</woe_name><fips>BF45</fips><woe_label>Moore's Island, BS, The Bahamas</woe_label><latitude>26</latitude><iso_a2>BS</iso_a2><postal>MI</postal><type>Third Schedule District</type><id>BS.MI</id></desc></path><path d="M237.90600251,216.355384141 L235.900862905,217.829663002 L232.078241384,217.630284502 L233.384838064,216.708908091 L236.374285173,216.717025809 L238.40823944,215.251355502 L237.90600251,216.355384141 M240.4332487,187.393931634 L240.563571117,188.29012598 L239.468992164,188.158034709 L238.367815901,186.810313157 L234.623011397,180.857052554 L235.234191946,180.069544805 L237.21452491,181.324119295 L240.4332487,187.393931634 Z" fill="#cee3f5" id="BS.BY" stroke="#6e6e6e" stroke-width="0.4"><desc><labelrank>20</labelrank><code_hasc>BS.BY</code_hasc><name>Berry Islands</name><admin>The Bahamas</admin><type_en>District</type_en><region /><woe_id>24551241</woe_id><longitude>-77</longitude><woe_name>Berry Islands</woe_name><fips>BF32</fips><woe_label>Berry Islands, BS, The Bahamas</woe_label><latitude>25</latitude><iso_a2>BS</iso_a2><postal>BY</postal><type>Third Schedule District</type><id>BS.BY</id></desc></path><path d="M245.334565711,294.487745905 L237.029852817,292.906798307 L227.215107941,293.737677755 L219.271050566,295.639875877 L215.43273206,297.62970362 L212.795289401,302.412407615 L209.55922291,306.887393985 L205.349252541,310.421651786 L202.949722311,310.788847429 L189.978190793,303.573060488 L183.017028775,296.344113377 L181.947589232,294.070773097 L186.809026884,291.993514803 L187.893966287,289.773800299 L190.112088812,290.834712018 L191.097485098,290.254897163 L191.998122512,288.618210055 L191.371038132,287.483773972 L192.595997571,285.810696546 L194.042784357,285.898109968 L195.23137715,287.239153974 L195.703824789,289.311621094 L194.573050797,293.80518276 L191.828911389,296.343506129 L192.398731306,298.197045344 L193.052207114,298.575137846 L196.872881445,296.734494143 L197.627212964,295.967490386 L197.451289908,293.773450092 L199.189108985,294.660063963 L198.869020678,300.255822141 L200.344940882,301.208392593 L201.22784434,299.981286477 L201.103102331,295.888669056 L203.694068358,297.140759448 L204.176858635,296.636771778 L204.154723224,295.21537336 L201.855480822,292.525099685 L201.918907769,289.825616521 L199.466098113,287.010299267 L198.393294168,283.112266691 L197.077153911,283.57190255 L198.012905151,284.415499865 L198.314323128,285.960432945 L198.16549995,289.736810962 L196.128951703,285.54583394 L194.751226449,284.123809703 L195.94011736,279.490796337 L200.802026146,274.55914027 L200.489232918,272.112266103 L203.726372584,271.122226336 L206.130043726,265.551324638 L206.943001708,265.477765132 L205.586051513,262.769154194 L207.031513703,259.34131551 L208.592256374,257.546301382 L208.459171728,254.761759539 L206.823083713,247.143719858 L203.923044043,239.189020813 L205.018436572,237.029301219 L211.133678376,238.46558889 L213.527270465,241.548041334 L215.012946378,241.936444599 L219.140789206,239.6960582 L224.245396128,242.861230553 L225.185431919,244.250416707 L223.810937861,245.76544484 L223.545208034,247.502225081 L224.219914576,249.139104578 L225.674206905,250.338310032 L224.0395277,256.640999193 L224.554452871,257.738977545 L227.533644612,258.866624358 L228.67849608,260.36841793 L233.872185403,274.093315696 L237.734577342,280.141598226 L239.199612511,281.785409795 L241.794319093,283.190498803 L245.879101988,288.024772701 L245.334565711,294.487745905 Z" fill="#cee3f5" id="BS.NS" stroke="#6e6e6e" stroke-width="0.4"><desc><labelrank>20</labelrank><code_hasc>BS.NS</code_hasc><name>North Andros</name><admin>The Bahamas</admin><type_en>District</type_en><region /><woe_id>24551250</woe_id><longitude>-77</longitude><woe_name>North Andros</woe_name><fips>BF47</fips><woe_label>North Andros, BS, The Bahamas</woe_label><latitude>24</latitude><iso_a2>BS</iso_a2><postal>NS</postal><type>Second Schedule District</type><id>BS.NS</id></desc></path><path d="M239.079366083,332.951942455 L236.920916307,333.874033711 L235.337760499,333.346946589 L234.390897635,333.822515552 L232.815051242,337.427629092 L230.670707762,339.387229653 L226.005948417,341.603583004 L224.370339136,341.774276392 L223.795359651,341.029709313 L223.481176613,337.401359834 L226.449447132,337.721738187 L226.897127368,336.793572084 L235.72178834,331.882118691 L239.435054526,331.957234976 L239.079366083,332.951942455 M226.429061602,333.085672634 L226.947385395,334.404391658 L221.997341059,334.299244712 L219.645062769,332.151949553 L227.380135649,329.620939892 L228.310425453,330.992542318 L226.970854767,331.012666303 L226.429061602,333.085672634 M235.058235427,324.650071079 L233.350115865,325.415673453 L231.880887888,324.608681347 L231.916559708,323.245338422 L236.532456014,322.507423625 L235.058235427,324.650071079 M250.156771336,322.460164399 L249.414588182,323.861965704 L246.766981638,322.591358226 L244.204160907,323.019678862 L240.626851653,326.046482219 L239.460157132,325.757489949 L239.059798355,324.767672222 L239.599112681,323.800822182 L243.324097621,321.674505898 L246.862826262,320.521240627 L248.942646362,321.0204781 L250.156771336,322.460164399 M219.620913208,329.519539065 L217.886117308,329.393283099 L216.56056102,328.100627416 L214.200680158,319.07387631 L209.366156415,316.542627193 L208.824578296,313.608326827 L209.55922291,306.887393985 L212.795289401,302.412407615 L215.43273206,297.62970362 L219.271050566,295.639875877 L227.215107941,293.737677755 L237.029852817,292.906798307 L245.334565711,294.487745905 L244.207430681,297.696101236 L246.79031787,304.366073404 L247.155737953,307.861551862 L246.277670884,310.378964152 L244.14865947,311.889810712 L239.332333414,312.750682508 L236.613956592,315.632596781 L233.859148421,315.938069912 L233.130674139,316.776040041 L234.13571418,318.961633847 L229.677554911,322.244979716 L224.87978701,322.662665834 L220.161842338,325.66390776 L219.687473531,326.450434396 L220.188625333,328.855751944 L219.620913208,329.519539065 Z" fill="#cee3f5" id="BS.CS" stroke="#6e6e6e" stroke-width="0.4"><desc><labelrank>20</labelrank><code_hasc>BS.CS</code_hasc><name>Central Andros</name><admin>The Bahamas</admin><type_en>District</type_en><region /><woe_id>24551243</woe_id><longitude>-77</longitude><woe_name>Central Andros</woe_name><fips>BF38</fips><woe_label>Central Andros, BS, The Bahamas</woe_label><latitude>24</latitude><iso_a2>BS</iso_a2><postal>CS</postal><type>Second Schedule District</type><id>BS.CS</id></desc></path><path d="M243.962573999,353.712645472 L240.502939708,356.328883589 L236.724182248,359.033140699 L235.40300086,358.551943363 L235.816571472,354.902913883 L232.868778187,352.296224776 L233.482904769,350.807933006 L226.115632294,347.279655992 L227.323131852,345.884504293 L229.123621195,346.509488119 L229.012785251,343.489315979 L234.25182863,340.627721302 L235.625500586,336.611953187 L239.918140961,336.018565792 L243.338059036,331.572324433 L247.110994164,330.081341588 L248.162035585,328.754014047 L250.721513117,327.395372275 L252.900336125,331.669302188 L254.601481162,332.795782751 L248.032410561,338.487578237 L245.787560837,339.6750657 L242.988133968,340.135129731 L242.974967344,340.802741225 L244.581151295,340.967079789 L245.242022841,341.716261059 L244.827208361,342.540962933 L242.852326116,343.278684343 L245.981253684,345.653287704 L247.432946725,345.053814885 L247.902907241,346.149129099 L245.265387848,353.029936719 L243.962573999,353.712645472 Z" fill="#cee3f5" id="BS.MC" stroke="#6e6e6e" stroke-width="0.4"><desc><labelrank>20</labelrank><code_hasc>BS.MC</code_hasc><name>Mangrove Cay</name><admin>The Bahamas</admin><type_en>District</type_en><region /><woe_id>24551247</woe_id><longitude>-77</longitude><woe_name>Mangrove Cay</woe_name><fips>BF44</fips><woe_label>Mangrove Cay, BS, The Bahamas</woe_label><latitude>24</latitude><iso_a2>BS</iso_a2><postal>MC</postal><type>Third Schedule District</type><id>BS.MC</id></desc></path><path d="M245.383477799,389.364356204 L244.05703749,388.976906479 L244.776170604,388.765400181 L244.537489874,387.879799236 L246.257387832,388.222406204 L245.383477799,389.364356204 M236.9334115,380.654899993 L236.414077517,381.260166533 L235.192453925,380.680633501 L235.526839084,380.067702915 L236.9334115,380.654899993 M296.374898919,354.117317355 L295.867723839,355.151051403 L294.300265162,354.053000369 L295.965235013,353.620376954 L296.374898919,354.117317355 M262.55611062,354.214915952 L261.930827273,357.123977463 L263.457354268,359.573026899 L263.419558278,361.680121806 L260.877785616,363.637521987 L257.111857638,364.353181538 L256.736897089,366.844355558 L261.85048552,363.824047263 L263.666367323,364.206618379 L264.410142,365.623722998 L263.788916819,369.353484154 L264.225190432,371.026525098 L262.609031796,374.517296786 L261.384517455,375.118820288 L259.140769862,374.370331444 L261.546442399,378.468397169 L260.171487971,382.466130885 L256.727873652,384.093150737 L250.324345354,380.957563683 L251.854583161,382.884944794 L250.925910206,385.019779236 L250.248363458,385.00709442 L248.7774503,382.875485896 L246.092501263,382.104404813 L240.30289208,382.1816429 L243.436105078,380.826375428 L243.009893722,379.124420283 L244.955586814,379.214242849 L249.702527948,380.945871974 L251.236564334,377.917345915 L258.841591425,373.729334307 L258.861849096,372.615456036 L257.245924085,371.95843204 L247.210999187,378.203362273 L247.821086023,378.826449156 L245.649964596,378.527562539 L243.51949045,375.364652058 L241.690040434,374.657243305 L247.706271168,372.604812922 L250.762443293,370.848386457 L251.230863078,368.761300424 L249.902778451,370.136206584 L248.109289081,370.677451159 L238.651341489,371.286451408 L237.403395878,369.286251815 L236.208778667,362.611722228 L236.140602961,360.111791913 L236.724182248,359.033140699 L240.502939708,356.328883589 L243.962573999,353.712645472 L245.641345919,354.220038268 L247.106695865,352.9609728 L250.0341761,347.276261989 L252.885088661,343.758048508 L253.802824654,336.992720265 L254.899651255,335.569177964 L256.690453565,335.884364447 L261.786894481,345.105925647 L262.55611062,354.214915952 Z" fill="#cee3f5" id="BS.SA" stroke="#6e6e6e" stroke-width="0.4"><desc><labelrank>20</labelrank><code_hasc>BS.SA</code_hasc><name>South Andros</name><admin>The Bahamas</admin><type_en>District</type_en><region /><woe_id>24551254</woe_id><longitude>-77</longitude><woe_name>South Andros</woe_name><fips>BF51</fips><woe_label>South Andros, BS, The Bahamas</woe_label><latitude>23</latitude><iso_a2>BS</iso_a2><postal>SA</postal><type>Second Schedule District</type><id>BS.SA</id></desc></path><path d="M373.229993914,361.039323652 L372.659221263,361.644951832 L371.309733741,360.2333598 L366.201589401,349.877060058 L365.875590278,347.417703541 L368.09939497,349.019510607 L373.229993914,361.039323652 M359.626276533,336.463591115 L360.39691991,337.854566191 L357.670741637,337.311151521 L353.909232902,332.373855065 L353.065676424,329.679063444 L354.449465236,330.498371489 L356.728342635,334.442774224 L359.626276533,336.463591115 M332.734311632,307.347351293 L332.154484556,307.810321117 L331.221876232,307.38814729 L330.716227881,306.102964503 L330.981681512,304.357362795 L331.685227256,303.988534975 L332.600974782,305.415670616 L332.734311632,307.347351293 Z" fill="#cee3f5" id="BS.BP" stroke="#6e6e6e" stroke-width="0.4"><desc><labelrank>20</labelrank><code_hasc>BS.BP</code_hasc><name>Black Point</name><admin>The Bahamas</admin><type_en>District</type_en><region /><woe_id>24551258</woe_id><longitude>-76</longitude><woe_name>Black Point</woe_name><fips>BF36</fips><woe_label /><latitude>24</latitude><iso_a2>BS</iso_a2><postal>BP</postal><type>Third Schedule District</type><id>BS.BP</id></desc></path><path d="M443.734594845,416.072978596 L445.179951358,418.332644312 L434.849801897,415.265139017 L433.381107737,412.8916477 L440.352640513,414.263622382 L443.734594845,416.072978596 M404.054923237,391.19636392 L406.952824725,394.041190589 L410.308187557,394.440731887 L409.055604625,395.775016094 L414.97135897,402.145439341 L420.245320347,405.00506169 L421.655031471,408.083099821 L425.066589531,410.552604871 L432.695882457,413.563632056 L431.384357691,414.94795979 L425.236451607,412.112707108 L420.612001119,411.734367162 L418.889592581,410.832601921 L419.657301904,408.775334201 L414.687044454,405.081458859 L413.395857603,405.977886342 L406.868702614,400.044872066 L403.032872268,398.757029627 L398.526452548,399.13910206 L398.531346098,398.46394494 L401.645798535,397.445237227 L399.096210775,392.041623663 L399.825571884,390.993890543 L400.945489394,391.222923627 L402.883769994,390.344302905 L404.054923237,391.19636392 Z" fill="#cee3f5" id="BS.EX" stroke="#6e6e6e" stroke-width="0.4"><desc><labelrank>20</labelrank><code_hasc>BS.EX</code_hasc><name>Exuma</name><admin>The Bahamas</admin><type_en>District</type_en><region /><woe_id>2344771</woe_id><longitude>-75</longitude><woe_name>Exuma</woe_name><fips>BF10</fips><woe_label>Exuma, BS, The Bahamas</woe_label><latitude>23</latitude><iso_a2>BS</iso_a2><postal>EX</postal><type>Second Schedule District</type><id>BS.EX</id></desc></path><path d="M328.989425643,207.229603033 L330.742482312,207.485922672 L330.59459803,208.025991228 L325.090811803,209.653483575 L325.031450966,208.878218595 L326.449629375,207.968800833 L328.989425643,207.229603033 Z" fill="#cee3f5" id="BS.SW" stroke="#6e6e6e" stroke-width="0.4"><desc><labelrank>20</labelrank><code_hasc>BS.SW</code_hasc><name>Spanish Wells</name><admin>The Bahamas</admin><type_en>District</type_en><region /><woe_id>24551256</woe_id><longitude>-76</longitude><woe_name>Spanish Wells</woe_name><fips>BF53</fips><woe_label /><latitude>25</latitude><iso_a2>BS</iso_a2><postal>SW</postal><type>Third Schedule District</type><id>BS.SW</id></desc></path><path d="M334.283840178,205.36532296 L336.453009322,206.013543666 L336.09467395,206.550894217 L332.72613678,206.273731939 L334.283840178,205.36532296 Z" fill="#cee3f5" id="BS.HI" stroke="#6e6e6e" stroke-width="0.4"><desc><labelrank>20</labelrank><code_hasc>BS.HI</code_hasc><name>Harbour Island</name><admin>The Bahamas</admin><type_en>District</type_en><region /><woe_id>2344776</woe_id><longitude>-76</longitude><woe_name>Harbour Island</woe_name><fips>BF22</fips><woe_label /><latitude>25</latitude><iso_a2>BS</iso_a2><postal>HI</postal><type>Third Schedule District</type><id>BS.HI</id></desc></path><path d="M374.926449584,230.707556285 L373.246143881,232.105283145 L369.779099826,228.39347018 L359.211103362,225.433995074 L355.532226666,223.502731581 L350.173279573,218.28945683 L339.298584324,215.746178273 L334.187248557,217.939353293 L332.835796897,217.688119844 L335.108315429,215.385992535 L336.414817838,211.526720379 L337.915377207,204.195536324 L337.302704994,204.187536157 L340.384698981,204.195290852 L342.804535667,204.933793985 L341.35070614,207.963383432 L341.492619224,211.728949666 L342.924524104,209.889295388 L345.499829769,213.805706471 L347.227533009,214.309417598 L358.515999262,223.234976724 L361.789965513,225.140785081 L371.585497623,226.819760832 L374.926449584,230.707556285 Z" fill="#cee3f5" id="BS.NE" stroke="#6e6e6e" stroke-width="0.4"><desc><labelrank>20</labelrank><code_hasc>BS.NE</code_hasc><name>North Eleuthera</name><admin>The Bahamas</admin><type_en>District</type_en><region /><woe_id>24551251</woe_id><longitude>-76</longitude><woe_name>North Eleuthera</woe_name><fips>BF48</fips><woe_label>North Eleuthera, BS, The Bahamas</woe_label><latitude>25</latitude><iso_a2>BS</iso_a2><postal>NE</postal><type>Third Schedule District</type><id>BS.NE</id></desc></path><path d="M388.986309246,262.274368516 L387.563778322,261.525042414 L389.006433185,259.910839802 L389.750206794,254.273200871 L389.738822261,252.16264084 L388.16734875,247.602609239 L379.341577262,241.215563873 L373.246143881,232.105283145 L374.926449584,230.707556285 L377.569917577,234.456889784 L382.953480777,239.825822682 L392.367930449,247.232144489 L392.835422679,249.117329861 L391.51558931,259.931955138 L391.144337075,260.96196954 L388.986309246,262.274368516 Z" fill="#cee3f5" id="BS.CE" stroke="#6e6e6e" stroke-width="0.4"><desc><labelrank>20</labelrank><code_hasc>BS.CE</code_hasc><name>Central Eleuthera</name><admin>The Bahamas</admin><type_en>District</type_en><region /><woe_id>24551244</woe_id><longitude>-76</longitude><woe_name>Central Eleuthera</woe_name><fips>BF39</fips><woe_label>Central Eleuthera, BS, The Bahamas</woe_label><latitude>25</latitude><iso_a2>BS</iso_a2><postal>CE</postal><type>Second Schedule District</type><id>BS.CE</id></desc></path><path d="M388.986309246,262.274368516 L388.655005005,264.172953102 L390.496209714,270.1137656 L389.61120423,276.819436209 L386.973107982,281.57254279 L386.969234094,292.297298454 L388.08812229,295.498486202 L385.101922249,294.150379449 L381.400695049,284.590552261 L374.326864681,280.7859707 L372.447605651,278.568753432 L372.691326868,277.658579221 L374.159784781,277.564303866 L383.587669256,278.889849092 L386.792107949,274.479990266 L386.992249525,270.83972022 L384.245208073,273.822573106 L383.830265973,270.168805779 L385.175042037,264.014134754 L387.563778322,261.525042414 L388.986309246,262.274368516 Z" fill="#cee3f5" id="BS.SE" stroke="#6e6e6e" stroke-width="0.4"><desc><labelrank>20</labelrank><code_hasc>BS.SE</code_hasc><name>South Eleuthera</name><admin>The Bahamas</admin><type_en>District</type_en><region /><woe_id>24551255</woe_id><longitude>-76</longitude><woe_name>South Eleuthera</woe_name><fips>BF52</fips><woe_label>South Eleuthera, BS, The Bahamas</woe_label><latitude>24</latitude><iso_a2>BS</iso_a2><postal>SE</postal><type>Second Schedule District</type><id>BS.SE</id></desc></path><path d="M464.420209873,338.14679031 L466.601923006,345.324891443 L462.493434396,343.953368761 L458.500068185,343.955217679 L454.397259611,344.775301006 L451.373709504,346.943926001 L449.130534931,347.153404536 L446.709529397,345.529279656 L445.684482596,343.500033392 L450.920490451,341.243827838 L453.620246313,338.487576114 L455.363450911,338.541095895 L456.178427968,335.858950137 L455.79728805,332.638786896 L453.930640828,331.069839052 L451.287750629,330.482677265 L449.425313221,329.013526574 L444.619844143,321.110917021 L443.916688317,318.319044516 L442.190169305,315.74807203 L441.266806922,311.267133811 L439.743203138,308.901572002 L437.410677545,307.512877406 L434.429930176,307.266145776 L434.866798203,305.041611962 L433.972392608,301.396094873 L424.632938699,294.242311029 L424.964664316,292.692703008 L426.856880099,290.468241799 L428.961589929,290.326570836 L431.969847711,293.094905712 L435.396603755,294.626513465 L436.382909819,295.81267727 L437.584504264,303.972850746 L441.236553336,307.915147583 L444.802905879,315.613704919 L449.85482343,322.970624479 L456.688446737,327.646002256 L459.457975812,333.107166637 L464.420209873,338.14679031 Z" fill="#cee3f5" id="BS.CI" stroke="#6e6e6e" stroke-width="0.4"><desc><labelrank>20</labelrank><code_hasc>BS.CI</code_hasc><name>Cat Island</name><admin>The Bahamas</admin><type_en>District</type_en><region /><woe_id>2344770</woe_id><longitude>-75</longitude><woe_name>Cat Island</woe_name><fips>BF06</fips><woe_label>Cat Island, BS, The Bahamas</woe_label><latitude>24</latitude><iso_a2>BS</iso_a2><postal>CI</postal><type>Second Schedule District</type><id>BS.CI</id></desc></path><path d="M541.123905035,357.401366667 L539.001133871,363.473428287 L533.031681645,364.168651218 L535.594266908,358.481980458 L535.56104669,349.656993227 L536.552151858,348.218939261 L541.424900585,345.335881451 L543.616078665,348.261051931 L544.867961069,351.318326405 L544.20781913,355.058468485 L540.519066795,361.510767252 L540.2416327,360.378520275 L541.123905035,357.401366667 Z" fill="#cee3f5" id="BS.SS" stroke="#6e6e6e" stroke-width="0.4"><desc><labelrank>20</labelrank><code_hasc>BS.SS</code_hasc><name>San Salvador</name><admin>The Bahamas</admin><type_en>District</type_en><region /><woe_id>2344789</woe_id><longitude>-74</longitude><woe_name>San Salvador</woe_name><fips>BF35</fips><woe_label>San Salvador, BS, The Bahamas</woe_label><latitude>24</latitude><iso_a2>BS</iso_a2><postal>SS</postal><type>Third Schedule District</type><id>BS.SS</id></desc></path><path d="M512.271811453,390.831248149 L510.772026019,392.810452921 L508.84723638,392.724551385 L509.415272574,394.094113889 L505.590787023,393.423317357 L504.493878761,391.997814045 L498.232226101,393.352060343 L497.89082703,391.089847573 L498.504619255,389.831842207 L499.91782105,389.148029564 L506.587412913,387.278171158 L511.142553079,387.823088402 L513.18349237,389.290801599 L512.271811453,390.831248149 M482.864995031,377.548819074 L482.254711328,377.897934663 L481.690430798,376.330253376 L482.268278787,374.90418608 L483.01871399,374.760120115 L482.864995031,377.548819074 Z" fill="#cee3f5" id="BS.RC" stroke="#6e6e6e" stroke-width="0.4"><desc><labelrank>20</labelrank><code_hasc>BS.RC</code_hasc><name>Rum Cay</name><admin>The Bahamas</admin><type_en>District</type_en><region /><woe_id>24551252</woe_id><longitude>-74</longitude><woe_name>Rum Cay</woe_name><fips>BF49</fips><woe_label>Rum Cay, BS, The Bahamas</woe_label><latitude>23</latitude><iso_a2>BS</iso_a2><postal>RC</postal><type>Third Schedule District</type><id>BS.RC</id></desc></path><path d="M505.803976249,460.338351164 L506.909948975,461.341752913 L508.162606197,466.869187638 L508.293570944,470.738371015 L507.569162236,472.2218129 L505.911160798,471.17481787 L505.241625975,467.820425482 L503.995184039,468.48849474 L503.397576488,465.917454411 L500.782135559,461.274414288 L499.831318985,457.240831714 L494.931932721,451.195287704 L483.341903372,448.564174868 L471.956703296,441.451094057 L473.223739673,438.809084734 L474.509987074,438.019352859 L475.421770803,439.447032666 L477.990771105,440.711867099 L478.925473441,442.075032655 L475.812918745,441.456616462 L477.374470394,443.580109195 L479.54759658,444.096790522 L483.231680972,446.792114764 L486.669419594,446.878551173 L480.855526277,440.027675685 L480.177345219,438.363530248 L480.525252916,435.699822525 L482.6198681,430.614609859 L481.948439517,425.61542951 L480.919039606,423.25985587 L479.570124692,421.779848334 L478.266574134,423.136625571 L478.42495596,420.806222801 L474.979340553,417.884719412 L475.16398709,415.71510299 L472.252000768,414.216036977 L472.676504556,413.011210104 L470.832863975,411.54155082 L470.146154216,409.973230518 L469.583324932,405.531977046 L467.725151935,400.806943462 L466.848321676,400.343104733 L464.560949468,401.407219655 L465.193308802,396.654813602 L464.678066668,395.227166888 L462.767989791,396.745859848 L464.575619292,394.67240154 L463.43626348,394.308207766 L460.839003342,396.741245556 L462.485943723,393.863988419 L462.782202584,390.621793918 L464.581512479,391.972028317 L469.902870498,400.810971351 L472.776463616,403.471862825 L475.174957601,407.618244459 L476.274416405,414.302123773 L478.958586173,417.785075254 L484.343771629,428.245109079 L485.902963566,441.441665088 L487.447192102,444.407760602 L490.036746979,446.216719827 L497.823580894,449.141301896 L501.178080108,451.747382536 L507.107723947,458.376230736 L505.803976249,460.338351164 Z" fill="#cee3f5" id="BS.LI" stroke="#6e6e6e" stroke-width="0.4"><desc><labelrank>20</labelrank><code_hasc>BS.LI</code_hasc><name>Long Island</name><admin>The Bahamas</admin><type_en>District</type_en><region /><woe_id>2344773</woe_id><longitude>-74</longitude><woe_name>Long Island</woe_name><fips>BF15</fips><woe_label>Long Island, BS, The Bahamas</woe_label><latitude>23</latitude><iso_a2>BS</iso_a2><postal>LI</postal><type>Second Schedule District</type><id>BS.LI</id></desc></path><path d="M426.53120123,536.979203244 L427.199258219,538.923036195 L426.533375892,539.667221613 L425.388116369,539.693871487 L423.987966658,536.773995816 L425.523411317,537.251606735 L424.939624023,534.970579995 L426.53120123,536.979203244 M424.35123001,533.665866154 L423.667364689,533.529885842 L423.822203366,530.975203291 L424.35123001,533.665866154 M423.083575342,526.141835955 L423.038057501,527.013522011 L422.467920215,526.636959268 L422.490346832,525.166466086 L423.083575342,526.141835955 M419.202068531,522.071499768 L418.937501158,522.62056831 L418.239443453,521.760960405 L417.666214921,518.583529382 L419.202068531,522.071499768 M416.249141671,511.351057735 L415.236705874,510.746667143 L415.508614775,509.5467558 L416.249141671,511.351057735 Z" fill="#cee3f5" id="BS.RI" stroke="#6e6e6e" stroke-width="0.4"><desc><labelrank>20</labelrank><code_hasc>BS.RI</code_hasc><name>Ragged Island</name><admin>The Bahamas</admin><type_en>District</type_en><region /><woe_id>2344775</woe_id><longitude>-75</longitude><woe_name>Ragged Island</woe_name><fips>BF18</fips><woe_label>Ragged Island, BS, The Bahamas</woe_label><latitude>22</latitude><iso_a2>BS</iso_a2><postal>RI</postal><type>Third Schedule District</type><id>BS.RI</id></desc></path><path d="M552.10095065,501.392301991 L549.28115131,503.561885615 L550.077107203,499.319544134 L555.985125259,493.965544583 L558.557666027,490.646452519 L558.097354091,493.421202056 L552.10095065,501.392301991 M566.761779973,481.780282127 L568.576595166,481.770279342 L569.210582778,483.17716388 L571.003043394,483.781777044 L576.214292208,484.478134686 L575.524022714,483.140204242 L583.043959881,485.728481167 L576.260110765,491.9600947 L575.89587449,490.94165123 L574.942605707,490.557642851 L575.014830752,488.929769319 L570.956671061,489.990369341 L564.179724495,488.26752695 L561.725429761,485.853146917 L561.224292365,487.01292587 L559.047089058,488.534533359 L558.546449955,488.319974509 L559.045075841,485.054774316 L552.242952182,475.780080906 L552.91490018,474.435033277 L556.036475114,473.737711406 L559.737194715,475.745124421 L563.547473967,476.400834556 L566.117860399,478.476699558 L566.761779973,481.780282127 M600.994570178,447.707867764 L607.862852637,448.325644659 L612.988438211,447.737914869 L614.777851471,448.264275177 L614.784568075,448.999723026 L606.659931194,450.707182322 L602.810798365,450.65902578 L600.994570178,447.707867764 Z" fill="#cee3f5" id="BS.CK" stroke="#6e6e6e" stroke-width="0.4"><desc><labelrank>20</labelrank><code_hasc>BS.CK</code_hasc><name>Crooked Island and Long Cay</name><admin>The Bahamas</admin><type_en>District</type_en><region /><woe_id>24551238</woe_id><longitude>-74</longitude><woe_name>Crooked Island</woe_name><fips>BF40</fips><woe_label>Crooked Island, BS, The Bahamas</woe_label><latitude>22</latitude><iso_a2>BS</iso_a2><postal>CK</postal><type>Third Schedule District</type><id>BS.CK</id></desc></path><path d="M620.611729243,499.546433929 L618.974547263,499.857664996 L619.621320053,497.185693736 L620.731883653,496.361046637 L621.856559249,497.091354873 L620.611729243,499.546433929 M633.339380734,498.393758371 L625.27972768,496.616046733 L625.051448378,496.099797436 L628.250227744,495.626612452 L630.340164583,496.125949544 L632.433777994,497.069405127 L633.339380734,498.393758371 M598.74182507,485.615299281 L595.586807645,490.417681978 L595.207973034,488.640274881 L593.7512033,487.799198182 L594.84470205,490.423255475 L595.845127961,491.042640781 L596.899480294,490.40772427 L597.529632474,491.84961906 L598.425780006,499.220966682 L600.13298774,503.25849733 L598.560716751,503.652472945 L597.043478741,509.346350561 L594.843583086,511.834226969 L591.297964318,514.319318734 L588.290577359,520.259553446 L583.521695099,524.253679413 L573.840200648,527.592441876 L570.166123354,532.571722533 L567.009966966,535.530103102 L562.367884506,537.18130338 L559.418180933,540.044409471 L559.807895641,534.690626718 L564.398021345,534.687911955 L567.932912764,531.848638059 L567.021107074,529.896729042 L569.462757455,528.469118507 L568.503652931,528.132835786 L568.146705871,527.12623344 L572.67954982,524.730201121 L575.292517801,524.072002327 L577.499235576,521.812514409 L577.04811872,518.315381484 L583.513780232,516.771627446 L584.85860386,512.808664845 L585.904158866,511.652386321 L593.160206582,509.435487022 L595.667288725,507.098278393 L596.501901854,503.893222325 L595.09106796,499.925419135 L592.551086859,498.079538613 L586.031903835,498.012972272 L581.730546102,495.26888371 L582.980920855,493.106807158 L584.964594089,491.90409406 L583.067075557,489.216368169 L586.830797324,490.480866607 L587.801752204,488.533186139 L590.563401554,487.822454203 L590.558093359,487.083073145 L588.676630708,485.689956004 L593.403897933,485.708063352 L598.105518496,484.326216094 L598.74182507,485.615299281 Z" fill="#cee3f5" id="BS.AK" stroke="#6e6e6e" stroke-width="0.4"><desc><labelrank>20</labelrank><code_hasc>BS.AK</code_hasc><name>Acklins</name><admin>The Bahamas</admin><type_en>District</type_en><region /><woe_id>2344778</woe_id><longitude>-74</longitude><woe_name>Acklins</woe_name><fips>BF24</fips><woe_label>Acklins, BS, The Bahamas</woe_label><latitude>22</latitude><iso_a2>BS</iso_a2><postal>AK</postal><type>Third Schedule District</type><id>BS.AK</id></desc></path><path d="M663.844367468,520.207158632 L661.363981553,519.164314482 L661.561880827,518.22528826 L663.231566392,516.902372979 L662.652972948,515.751786478 L663.618987661,513.472661359 L663.452763125,511.51703949 L664.41032462,510.697143244 L666.796369955,513.239978629 L668.199979467,513.411134665 L670.073345799,512.036444172 L672.864926202,512.615327223 L679.915187438,516.610062449 L682.102816262,516.656638594 L680.817687093,514.52734496 L683.89994328,516.036872589 L685.433922661,516.39347823 L686.420962582,515.86505543 L689.304774783,517.545105275 L693.096025297,517.796240043 L696.553635611,520.765272578 L699.161371005,521.076447937 L700.0,522.881335894 L699.59573599,524.869633434 L698.430236766,526.503308787 L697.003403325,527.17974888 L695.360805143,526.669059701 L689.143504897,521.198034809 L686.041703237,520.023488969 L680.587918849,520.72575018 L677.690165368,519.35367202 L669.882424591,522.217575947 L667.330351671,520.899274066 L663.844367468,520.207158632 Z" fill="#cee3f5" id="BS.MG" stroke="#6e6e6e" stroke-width="0.4"><desc><labelrank>20</labelrank><code_hasc>BS.MG</code_hasc><name>Mayaguana</name><admin>The Bahamas</admin><type_en>District</type_en><region /><woe_id>2344774</woe_id><longitude>-73</longitude><woe_name>Mayaguana</woe_name><fips>BF16</fips><woe_label>Mayaguana, BS, The Bahamas</woe_label><latitude>22</latitude><iso_a2>BS</iso_a2><postal>MG</postal><type>Third Schedule District</type><id>BS.MG</id></desc></path><path d="M675.028252099,639.267362372 L669.218818245,646.779376943 L666.333100677,655.47997257 L657.498413443,659.649980083 L653.470554839,659.075451055 L649.004460631,661.204784282 L649.606408952,659.928516889 L648.224431242,658.873315499 L646.228782818,658.648178819 L641.429747612,661.468783096 L638.230680534,661.313983173 L632.751460342,662.66927697 L628.635922258,661.050415794 L622.693563718,660.581734988 L619.863250701,661.577694151 L618.613607837,663.986189805 L615.71599738,661.762515321 L615.107124731,656.768592006 L613.137367063,653.429138872 L613.43747669,652.725024378 L616.199310267,652.413723175 L617.744536656,651.404113174 L618.467038257,647.384087952 L616.344212892,644.985974804 L616.338344279,643.976314477 L619.537759731,645.481915813 L626.975332582,642.403877063 L627.614902267,640.468461856 L629.644708079,638.619901516 L630.469861549,636.775756802 L632.50991549,637.228639958 L634.339027782,636.16343369 L637.990081829,636.071527952 L639.870091281,634.879358719 L641.974593591,632.077139058 L642.934315697,634.546921499 L646.308279233,638.737662424 L654.556286355,641.647239723 L658.619490391,639.328934839 L663.243981967,638.111561954 L671.66963731,624.180050214 L673.04690772,622.245782919 L674.818080468,621.126426679 L676.824151369,621.929272961 L677.546539838,623.6566269 L675.028252099,639.267362372 M673.790789239,612.676533396 L672.930218808,612.802164712 L672.982705871,610.540031198 L670.6862817,604.740173464 L675.479153724,602.173486069 L678.445779048,599.189103688 L681.446170883,602.002242815 L686.013809405,604.735487826 L685.650590732,606.695300047 L683.92962041,607.865162298 L680.482731478,608.307805541 L673.790789239,612.676533396 Z" fill="#cee3f5" id="BS.IN" stroke="#6e6e6e" stroke-width="0.4"><desc><labelrank>20</labelrank><code_hasc>BS.IN</code_hasc><name>Inagua</name><admin>The Bahamas</admin><type_en>District</type_en><region /><woe_id>2344772</woe_id><longitude>-73</longitude><woe_name>Inagua</woe_name><fips>BF13</fips><woe_label>Inagua, BS, The Bahamas</woe_label><latitude>21</latitude><iso_a2>BS</iso_a2><postal>IN</postal><type>Third Schedule District</type><id>BS.IN</id></desc></path><path d="M0.772054292291,379.571351248 L0.57178592891,380.048103838 L0.606515576508,379.330937449 L0.0,379.251324603 L0.943573014546,379.166160712 L0.772054292291,379.571351248 M12.8493947616,349.313669023 L12.7952857433,349.86453695 L12.1756964462,349.679758776 L12.8493947616,349.313669023 M107.574779991,197.166816606 L107.681411334,198.161849213 L106.912562036,196.734158032 L107.574779991,197.166816606 M112.894327928,179.297576035 L112.815407991,182.19706457 L112.639795998,181.756096591 L110.923298559,182.341483227 L111.144353681,179.462659719 L108.721162533,182.136922682 L108.474537756,183.430846861 L111.615064233,185.677067218 L111.258884332,186.189547136 L107.791979099,185.661842754 L107.798344446,183.78769594 L109.80301553,179.854425378 L112.571754527,178.210982164 L112.894327928,179.297576035 Z" fill="#cee3f5" id="BS.BI" stroke="#6e6e6e" stroke-width="0.4"><desc><labelrank>20</labelrank><code_hasc>BS.BI</code_hasc><name>Bimini</name><admin>The Bahamas</admin><type_en>District</type_en><region /><woe_id>2344769</woe_id><longitude>-79</longitude><woe_name>Bimini</woe_name><fips>BF05</fips><woe_label>Bimini, BS, The Bahamas</woe_label><latitude>25</latitude><iso_a2>BS</iso_a2><postal>BI</postal><type>Third Schedule District</type><id>BS.BI</id></desc></path><path d="M318.458639314,106.062386845 L318.653457256,107.988030401 L316.651389714,111.348065094 L318.458639314,106.062386845 Z" fill="#cee3f5" id="BS.HT" stroke="#6e6e6e" stroke-width="0.4"><desc><labelrank>20</labelrank><code_hasc>BS.HT</code_hasc><name>Hope Town</name><admin>The Bahamas</admin><type_en>District</type_en><region /><woe_id>24551240</woe_id><longitude>-76</longitude><woe_name>Hope Town</woe_name><fips>BF43</fips><woe_label>Hope Town, BS, The Bahamas</woe_label><latitude>26</latitude><iso_a2>BS</iso_a2><postal>HT</postal><type>Third Schedule District</type><id>BS.HT</id></desc></path></svg>