<?xml version='1.0' encoding='utf-8'?>
<svg height="700" width="700" xmlns="http://www.w3.org/2000/svg"><path d="M501.371909807,210.703613149 L515.824504211,208.611790274 L532.74925292,225.7267047 L529.896767183,242.271121978 L519.817984243,244.743276284 L508.788372725,252.159739201 L504.604726976,252.540070633 L489.391469709,264.710676447 L482.925835371,278.592773703 L500.040749796,337.163814181 L506.506384135,359.60336865 L514.303178484,381.282260255 L381.757674545,315.29475686 L395.069274654,298.179842434 L405.718554741,266.232002173 L418.649823418,208.992121706 L437.856560717,208.041293127 L457.633795164,228.00869329 L465.430589514,228.959521869 L467.90274382,230.100516164 L485.017658245,227.248030427 L486.919315403,222.874218962 L501.371909807,210.703613149 Z" fill="#cee3f5" id="OM.DA" stroke="#6e6e6e" stroke-width="0.4"><desc><labelrank>7</labelrank><code_hasc>OM.DA</code_hasc><name>Ad Dakhliyah</name><admin>Oman</admin><type_en>Region</type_en><region /><woe_id>2346261</woe_id><longitude>57</longitude><woe_name>Ad Dakhliyah</woe_name><fips>MU02</fips><woe_label>Ad Dakhiliyah, OM, Oman</woe_label><latitude>22</latitude><iso_a2>OM</iso_a2><postal>DA</postal><type>Mintaqah</type><id>OM.DA</id></desc></path><path d="M514.303178484,381.282260255 L521.529475686,384.895408856 L512.21135561,416.462917685 L508.788372725,416.082586254 L501.181744091,419.505569139 L499.470252649,423.689214887 L500.040749796,425.781037761 L494.525944037,428.633523499 L492.053789731,431.676174952 L493.194784026,435.099157838 L492.814452594,436.620483564 L487.489812551,439.472969302 L485.207823961,441.754957892 L483.116001087,446.128769356 L484.827492529,452.404237979 L482.545503939,459.060038033 L482.545503939,462.292855202 L478.932355338,471.801140994 L473.988046726,480.168432491 L474.368378158,482.450421081 L476.270035316,485.493072535 L475.129041021,493.099701168 L478.932355338,499.945666938 L479.883183917,503.178484108 L478.361858191,513.257267047 L482.545503939,521.244227112 L481.975006792,525.808204292 L484.637326813,531.513175767 L481.975006792,533.985330073 L478.552023907,534.555827221 L475.699538169,536.647650095 L461.437109481,536.077152948 L457.633795164,536.647650095 L398.111926107,520.863895681 L315.960336865,382.42325455 L315.009508286,381.09209454 L332.694919859,325.753871231 L381.757674545,315.29475686 L514.303178484,381.282260255 Z" fill="#cee3f5" id="OM.WU" stroke="#6e6e6e" stroke-width="0.4"><desc><labelrank>7</labelrank><code_hasc>OM.WU</code_hasc><name>Al Wusta</name><admin>Oman</admin><type_en>Region</type_en><region /><woe_id>2346257</woe_id><longitude>56</longitude><woe_name>Al Wusta</woe_name><fips>MU02</fips><woe_label>Al Wusta, OM, Oman</woe_label><latitude>20</latitude><iso_a2>OM</iso_a2><postal>WU</postal><type>Mintaqah</type><id>OM.WU</id></desc></path><path d="M539.595218691,447.840260799 L538.454224396,442.135289324 L539.024721543,433.577832111 L542.257538712,430.725346373 L542.637870144,429.013854931 L547.201847324,427.492529204 L548.913338767,421.217060581 L552.716653083,415.702254822 L554.808475958,410.75794621 L556.329801684,409.616951915 L557.280630264,410.75794621 L556.5199674,416.27275197 L559.752784569,422.358054876 L559.562618854,423.11871774 L552.336321652,428.443357783 L550.054333062,432.627003532 L548.533007335,439.853300733 L544.349361587,444.607443629 L542.067372996,445.177940777 L540.926378701,447.079597935 L539.595218691,447.840260799 M596.835099158,272.887802228 L596.454767726,273.838630807 L595.503939147,273.458299375 L596.074436294,274.979625102 L602.920402065,273.077967943 L604.822059223,273.838630807 L607.484379245,275.740287965 L609.386036403,275.740287965 L609.766367835,278.212442271 L611.477859277,279.16327085 L612.238522141,278.782939419 L610.717196414,276.88128226 L611.097527846,275.930453681 L614.900842162,276.120619397 L616.422167889,278.022276555 L617.7533279,282.586253735 L615.851670742,297.609345287 L610.717196414,305.976636783 L607.674544961,308.829122521 L605.012224939,320.239065471 L602.349904917,321.380059766 L595.313773431,332.599837001 L592.080956262,342.298288509 L585.995653355,352.377071448 L585.234990492,355.419722901 L573.44471611,361.505025808 L565.838087476,367.780494431 L552.526487368,383.183917414 L549.483835914,388.508557457 L548.533007335,393.072534637 L544.539527302,396.305351807 L544.919858734,397.826677533 L540.926378701,400.298831839 L539.595218691,402.770986145 L540.165715838,404.482477588 L541.496875849,405.243140451 L544.349361587,403.341483293 L544.159195871,404.672643303 L542.257538712,406.574300462 L541.116544417,406.954631894 L539.975550122,406.19396903 L538.644390111,410.187449063 L535.03124151,413.800597664 L533.7000815,419.505569139 L531.037761478,425.40070633 L530.277098615,430.154849226 L527.804944309,431.105677805 L526.854115729,433.577832111 L525.332790003,434.338494974 L519.437652812,432.817169247 L513.732681337,433.767997827 L513.922847052,432.627003532 L508.788372725,431.105677805 L509.549035588,426.922032057 L510.880195599,429.774517794 L510.499864167,425.210540614 L512.781852757,420.076066286 L512.21135561,416.462917685 L521.529475686,384.895408856 L514.303178484,381.282260255 L506.506384135,359.60336865 L500.040749796,337.163814181 L534.270578647,324.232545504 L564.887258897,312.822602554 L587.707144798,300.081499593 L590.749796251,291.333876664 L591.320293399,281.635425156 L589.989133388,277.832110839 L589.798967672,274.409127954 L593.412116273,270.415647922 L596.835099158,272.887802228 Z" fill="#cee3f5" id="OM.SS" stroke="#6e6e6e" stroke-width="0.4"><desc><labelrank>7</labelrank><code_hasc>OM.SS</code_hasc><name>Ash Sharqiyah South</name><admin>Oman</admin><type_en>Region</type_en><region /><woe_id>2346256</woe_id><longitude>58</longitude><woe_name>Ash Sharqiyah</woe_name><fips>MU04</fips><woe_label>Ash Sharqiyah, OM, Oman</woe_label><latitude>21</latitude><iso_a2>OM</iso_a2><postal>SH</postal><type>Mintaqah</type><id>OM.SS</id></desc></path><path d="M350.380331432,640.287965227 L346.577017115,641.238793806 L346.196685683,640.478130943 L348.288508557,639.337136648 L350.380331432,640.287965227 M361.029611519,641.238793806 L356.84596577,641.238793806 L355.324640043,639.337136648 L361.790274382,636.48465091 L362.550937245,638.386308068 L364.452594404,639.337136648 L361.029611519,641.238793806 M382.518337408,607.579462103 L382.518337408,609.100787829 L381.757674545,609.290953545 L371.108394458,607.769627819 L365.97392013,609.290953545 L358.747622929,608.910622114 L351.711491443,611.382776419 L334.02607987,612.143439283 L319.763651182,615.9467536 L314.439011138,626.215702255 L307.022548221,632.491170877 L304.550393915,637.435479489 L304.550393915,641.238793806 L307.593045368,643.33061668 L309.494702526,646.373268134 L308.924205379,650.937245314 L305.881553926,655.501222494 L305.881553926,657.402879652 L306.832382505,657.9733768 L306.452051073,659.494702526 L303.599565336,661.206193969 L301.507742461,665.960336865 L298.274925292,667.10133116 L296.943765281,669.573485466 L290.097799511,675.468622657 L289.146970932,674.327628362 L286.674816626,676.419451236 L282.491170877,676.799782668 L280.209182287,678.321108394 L273.743547949,679.652268405 L272.982885086,678.701439826 L270.130399348,679.081771258 L267.848410758,677.560445531 L267.27791361,678.130942679 L265.756587884,674.517794078 L260.051616409,673.186634067 L253.58598207,672.996468351 L250.923662048,673.94729693 L245.979353437,672.806302635 L244.648193426,673.94729693 L243.317033415,673.376799783 L224.870958979,674.707959794 L219.736484651,676.989948384 L219.546318935,679.842434121 L217.454496061,681.934256995 L206.99538169,683.265417006 L202.811735941,684.976908449 L201.670741646,684.596577017 L198.437924477,686.878565607 L195.585438739,690.491714208 L191.972290139,692.393371366 L172.575387123,693.724531377 L161.165444173,697.147514262 L155.270306982,700.0 L136.063569682,654.550393915 L135.302906819,653.40939962 L130.548763923,652.078239609 L131.11926107,652.078239609 L106.778049443,590.464547677 L82.2466721,528.090192882 L184.745992937,495.001358327 L289.146970932,460.201032328 L301.12741103,423.879380603 L308.163542516,401.820157566 L312.157022548,390.029883184 L315.009508286,381.09209454 L315.960336865,382.42325455 L398.111926107,520.863895681 L457.633795164,536.647650095 L441.279543602,539.309970117 L432.72208639,541.591958707 L421.121977723,546.536267319 L412.184189079,552.241238794 L411.043194784,554.523227384 L403.626731866,561.939690302 L402.295571855,564.602010323 L402.485737571,571.067644662 L400.393914697,576.011953274 L399.443086118,582.857919044 L396.020103233,591.225210541 L396.970931812,592.556370551 L396.780766096,594.077696278 L394.498777506,596.549850584 L389.934800326,598.641673458 L387.842977452,602.444987775 L385.941320293,603.395816354 L382.518337408,607.579462103 Z" fill="#cee3f5" id="OM.JA" stroke="#6e6e6e" stroke-width="0.4"><desc><labelrank>7</labelrank><code_hasc>OM.JA</code_hasc><name>Dhofar</name><admin>Oman</admin><type_en>Province</type_en><region /><woe_id>2346258</woe_id><longitude>54</longitude><woe_name>Dhofar</woe_name><fips>MU02</fips><woe_label>Zufar, OM, Oman</woe_label><latitude>18</latitude><iso_a2>OM</iso_a2><postal>JA</postal><type>Muhafazah</type><id>OM.JA</id></desc></path><path d="M418.649823418,208.992121706 L405.718554741,266.232002173 L395.069274654,298.179842434 L381.757674545,315.29475686 L332.694919859,325.753871231 L335.35723988,317.57674545 L334.596577017,314.34392828 L305.69138821,264.900842162 L306.452051073,241.890790546 L308.734039663,234.85465906 L315.199674002,223.825047541 L318.812822603,209.942950285 L323.566965499,204.047813094 L332.694919859,204.998641673 L339.731051345,201.005161641 L348.478674273,198.533007335 L353.232817169,195.680521597 L350.950828579,185.03124151 L353.803314317,181.608258625 L357.986960065,179.516435751 L357.986960065,173.62129856 L361.600108666,171.149144254 L371.298560174,169.05732138 L379.285520239,169.247487096 L381.567508829,162.021189894 L391.836457484,166.585167074 L411.423526216,184.080412931 L417.508829123,207.470795979 L418.649823418,208.992121706 Z" fill="#cee3f5" id="OM.ZA" stroke="#6e6e6e" stroke-width="0.4"><desc><labelrank>7</labelrank><code_hasc>OM.ZA</code_hasc><name>Al Dhahira</name><admin>Oman</admin><type_en>Region</type_en><region /><woe_id>2346255</woe_id><longitude>55</longitude><woe_name>Al Dhahira</woe_name><fips>AE02</fips><woe_label>Az Zahirah, OM, Oman</woe_label><latitude>22</latitude><iso_a2>OM</iso_a2><postal>ZA</postal><type>Mintaqah</type><id>OM.ZA</id></desc></path><path d="M462.38793806,184.460744363 L454.781309427,197.962510187 L446.033686498,205.378973105 L437.856560717,208.041293127 L418.649823418,208.992121706 L417.508829123,207.470795979 L411.423526216,184.080412931 L391.836457484,166.585167074 L381.567508829,162.021189894 L381.187177397,155.745721271 L374.721543059,133.686498234 L366.164085846,122.276555284 L366.164085846,119.424069546 L369.016571584,119.043738115 L372.439554469,112.578103776 L377.003531649,111.246943765 L381.567508829,107.633795164 L382.89866884,101.928823689 L386.511817441,101.548492258 L387.842977452,107.443629449 L392.787286064,116.95191524 L393.547948927,121.706058136 L401.344743276,136.348818256 L406.66938332,141.483292584 L413.895680522,150.421081228 L416.558000543,156.126052703 L423.023634882,163.922847052 L439.187720728,177.044281445 L448.69600652,180.657430046 L462.38793806,184.460744363 Z" fill="#cee3f5" id="OM.BS" stroke="#6e6e6e" stroke-width="0.4"><desc><labelrank>7</labelrank><code_hasc>OM.BS</code_hasc><name>Al Batnah North</name><admin>Oman</admin><type_en>Region</type_en><region /><woe_id>7038775</woe_id><longitude>56</longitude><woe_name>Al Batnah</woe_name><fips>MU11</fips><woe_label>Al Batinah, OM, Oman</woe_label><latitude>23</latitude><iso_a2>OM</iso_a2><postal>BA</postal><type>Mintaqah</type><id>OM.BS</id></desc></path><path d="M384.419994567,78.728606357 L384.039663135,80.8204292312 L377.954360228,84.2434121163 L376.813365933,84.6237435479 L375.101874491,84.0532464004 L375.101874491,81.5810920945 L377.574028797,79.869600652 L376.813365933,77.3974463461 L378.524857376,76.0662863352 L380.426514534,76.2564520511 L381.757674545,78.1581092095 L384.419994567,78.728606357 M386.131486009,0.0 L386.892148873,1.90165715838 L388.223308883,0.95082857919 L388.793806031,3.04265145341 L389.364303178,2.4721543059 L390.505297474,3.42298288509 L393.738114643,3.9934800326 L393.167617495,2.4721543059 L394.498777506,2.09182287422 L395.259440369,3.80331431676 L395.069274654,4.56397718011 L391.456126053,4.94430861179 L387.842977452,8.55745721271 L390.124966042,10.6492800869 L392.977451779,9.88861722358 L393.738114643,10.8394458028 L391.836457484,13.3116001087 L391.456126053,11.9804400978 L390.124966042,11.9804400978 L390.124966042,13.8820972562 L392.787286064,15.9739201304 L393.167617495,17.3050801413 L388.793806031,16.3542515621 L388.223308883,14.4525944037 L386.511817441,15.4034229829 L387.46264602,13.3116001087 L385.941320293,13.1214343928 L383.279000272,15.4034229829 L383.849497419,19.7772344472 L385.560988862,17.3050801413 L385.560988862,20.3477315947 L392.597120348,20.7280630264 L391.075794621,22.6297201847 L386.701983157,25.1018744906 L386.892148873,26.2428687857 L388.413474599,25.2920402065 L389.364303178,26.2428687857 L389.364303178,27.5740287965 L387.842977452,28.5248573757 L389.364303178,30.9970116816 L391.265960337,31.757674545 L390.505297474,33.2790002717 L388.413474599,32.3281716925 L386.892148873,33.2790002717 L387.842977452,34.9904917142 L385.560988862,39.5544688943 L385.370823146,41.8364574844 L381.377343113,46.4004346645 L381.377343113,44.8791089378 L379.475685955,48.8725889704 L379.095354523,51.3447432763 L379.856017387,54.7677261614 L376.05270307,55.7185547406 L375.101874491,55.3382233089 L373.390383048,52.866069003 L371.48872589,52.2955718555 L370.918228742,48.3020918229 L370.918228742,46.970931812 L373.010051616,44.688943222 L370.918228742,40.5052974735 L372.819885901,36.7019831568 L373.390383048,25.2920402065 L372.439554469,22.4395544689 L366.92474871,23.3903830481 L367.875577289,19.967400163 L373.77071448,10.0787829394 L375.482205922,8.74762292855 L376.242868786,11.4099429503 L375.672371638,12.7411029612 L379.285520239,11.4099429503 L380.997011682,12.5509372453 L381.187177397,13.8820972562 L381.567508829,12.931268677 L383.279000272,13.3116001087 L385.751154578,11.790274382 L388.223308883,12.3607715295 L387.652811736,10.6492800869 L385.941320293,10.2689486553 L381.947840261,11.790274382 L382.518337408,6.84596577017 L385.370823146,8.74762292855 L385.370823146,7.03613148601 L382.89866884,5.5148057593 L385.18065743,3.42298288509 L386.131486009,0.0 Z" fill="#cee3f5" id="OM.MU" stroke="#6e6e6e" stroke-width="0.4"><desc><labelrank>7</labelrank><code_hasc>OM.MU</code_hasc><name>Musandam</name><admin>Oman</admin><type_en>Province</type_en><region /><woe_id>4693371</woe_id><longitude>56</longitude><woe_name>Musandam</woe_name><fips>MU07</fips><woe_label>Musandam, OM, Oman</woe_label><latitude>25</latitude><iso_a2>OM</iso_a2><postal>MU</postal><type>Muhafazah</type><id>OM.MU</id></desc></path><path d="M578.00869329,251.018744906 L572.113556099,258.245042108 L550.054333062,255.582722086 L529.896767183,242.271121978 L532.74925292,225.7267047 L515.824504211,208.611790274 L501.371909807,210.703613149 L499.660418365,203.667481663 L501.942406955,192.637870144 L508.598207009,195.11002445 L512.21135561,198.342841619 L514.4933442,199.103504482 L523.62129856,198.913338767 L525.522955719,197.772344472 L526.093452866,196.441184461 L532.368921489,197.201847324 L533.7000815,197.772344472 L537.313230101,203.096984515 L538.834555827,203.096984515 L540.54604727,204.998641673 L541.496875849,204.047813094 L541.877207281,205.569138821 L542.82803586,204.618310242 L544.159195871,204.618310242 L546.251018745,207.851127411 L547.39201304,213.175767454 L555.569138821,220.592230372 L557.470795979,224.775876121 L560.513447433,228.198859006 L561.08394458,232.382504754 L565.457756045,236.566150503 L566.408584624,239.798967672 L574.395544689,245.313773431 L578.00869329,251.018744906 Z" fill="#cee3f5" id="OM.MA" stroke="#6e6e6e" stroke-width="0.4"><desc><labelrank>7</labelrank><code_hasc>OM.MA</code_hasc><name>Muscat</name><admin>Oman</admin><type_en>Province</type_en><region /><woe_id>2346260</woe_id><longitude>58</longitude><woe_name>Muscat</woe_name><fips>MU02</fips><woe_label>Masqat, OM, Oman</woe_label><latitude>23</latitude><iso_a2>OM</iso_a2><postal>MA</postal><type>Muhafazah</type><id>OM.MA</id></desc></path><path d="M366.164085846,119.424069546 L366.164085846,122.276555284 L374.721543059,133.686498234 L381.187177397,155.745721271 L381.567508829,162.021189894 L379.285520239,169.247487096 L371.298560174,169.05732138 L361.600108666,171.149144254 L357.986960065,173.62129856 L357.986960065,179.516435751 L353.803314317,181.608258625 L350.950828579,185.03124151 L353.232817169,195.680521597 L348.478674273,198.533007335 L339.731051345,201.005161641 L332.694919859,204.998641673 L323.566965499,204.047813094 L325.848954089,195.11002445 L330.032599837,188.26405868 L329.462102689,180.847595762 L325.088291225,176.663950014 L324.707959794,174.381961424 L337.449062755,170.008149959 L342.773702798,170.388481391 L345.055691388,169.817984243 L347.908177126,171.33930997 L359.888617224,167.345829938 L360.649280087,166.204835642 L358.177125781,161.640858462 L356.465634338,156.126052703 L354.373811464,155.175224124 L349.619668568,156.506384135 L344.675359957,155.175224124 L345.055691388,152.893235534 L348.098342842,147.378429775 L348.478674273,143.765281174 L346.006519967,141.102961152 L345.245857104,131.59467536 L346.767182831,129.502852486 L347.147514262,127.220863896 L349.049171421,125.509372453 L347.527845694,119.804400978 L347.337679978,110.10594947 L347.908177126,108.014126596 L354.56397718,102.118989405 L357.036131486,101.358326542 L359.888617224,101.928823689 L361.600108666,103.069817984 L363.121434393,109.915783754 L359.698451508,108.014126596 L358.367291497,109.345286607 L361.219777234,112.578103776 L363.311600109,117.522412388 L366.164085846,119.424069546 Z" fill="#cee3f5" id="OM.BU" stroke="#6e6e6e" stroke-width="0.4"><desc><labelrank>7</labelrank><code_hasc>OM.BU</code_hasc><name>Al Buraymi</name><admin>Oman</admin><type_en>Province</type_en><region /><woe_id>55927046</woe_id><longitude>55</longitude><woe_name>Buraymi</woe_name><fips>AE02</fips><woe_label>Buraymi, OM, Oman</woe_label><latitude>24</latitude><iso_a2>OM</iso_a2><postal>BU</postal><type>Muhafazah</type><id>OM.BU</id></desc></path><path d="M578.00869329,251.018744906 L580.671013312,258.054876392 L584.284161913,260.336864982 L588.467807661,266.802499321 L591.320293399,269.464819343 L593.412116273,270.415647922 L589.798967672,274.409127954 L589.989133388,277.832110839 L591.320293399,281.635425156 L590.749796251,291.333876664 L587.707144798,300.081499593 L564.887258897,312.822602554 L534.270578647,324.232545504 L517.345829938,330.698179842 L500.040749796,337.163814181 L482.925835371,278.592773703 L489.391469709,264.710676447 L504.604726976,252.540070633 L508.788372725,252.159739201 L519.817984243,244.743276284 L529.896767183,242.271121978 L550.054333062,255.582722086 L572.113556099,258.245042108 L578.00869329,251.018744906 Z" fill="#cee3f5" id="OM.SN" stroke="#6e6e6e" stroke-width="0.4"><desc><labelrank>7</labelrank><code_hasc>OM.SN</code_hasc><name>Ash Sharqiyah North</name><admin>Oman</admin><type_en>Region</type_en><region /><woe_id>2346256</woe_id><longitude>58</longitude><woe_name>Ash Sharqiyah</woe_name><fips>MU12</fips><woe_label>Ash Sharqiyah, OM, Oman</woe_label><latitude>22</latitude><iso_a2>OM</iso_a2><postal>SH</postal><type>Mintaqah</type><id>OM.SN</id></desc></path><path d="M501.942406955,192.637870144 L499.660418365,203.667481663 L501.371909807,210.703613149 L486.919315403,222.874218962 L485.017658245,227.248030427 L467.90274382,230.100516164 L465.430589514,228.959521869 L457.633795164,228.00869329 L437.856560717,208.041293127 L446.033686498,205.378973105 L454.781309427,197.962510187 L462.38793806,184.460744363 L469.804400978,187.313230101 L479.883183917,187.883727248 L482.545503939,190.736212986 L485.968486824,192.257538712 L496.237435479,191.877207281 L501.942406955,192.637870144 Z" fill="#cee3f5" id="OM.6958" stroke="#6e6e6e" stroke-width="0.4"><desc><labelrank>7</labelrank><code_hasc>OM.BS</code_hasc><name>Al Batnah South</name><admin>Oman</admin><type_en>Region</type_en><region /><woe_id>7038775</woe_id><longitude>57</longitude><woe_name>Al Batnah</woe_name><fips>MU02</fips><woe_label>Al Batinah, OM, Oman</woe_label><latitude>23</latitude><iso_a2>OM</iso_a2><postal>BA</postal><type>Mintaqah</type><id>OM.6958</id></desc></path></svg>