<?xml version='1.0' encoding='utf-8'?>
<svg height="700" width="700" xmlns="http://www.w3.org/2000/svg"><path d="M78.5314945956,303.037644428 L64.1818859486,306.429370108 L76.4442787924,339.563920984 L81.401416325,345.303764443 L80.096906448,350.782705926 L90.2720834886,359.392471114 L82.1841222512,359.914275065 L80.096906448,362.262392844 L71.4871412598,358.609765188 L59.4856503914,341.651136787 L56.8766306373,331.997763697 L51.1367871785,329.388743943 L50.3540812523,325.997018263 L43.8315318673,327.562430116 L39.3961982855,321.822586657 L28.4383153187,322.866194558 L18.7849422288,317.1263511 L16.6977264256,311.647409616 L5.47894148341,307.212076034 L7.04435333582,302.776742452 L0.0,298.341408871 L3.13082370481,295.471487141 L1.8263138278,289.992545658 L8.87066716362,287.122623928 L9.65337308982,282.165486396 L31.0473350727,280.600074543 L32.3518449497,276.686544912 L35.7435706299,278.251956765 L42.7879239657,274.338427134 L41.2225121133,269.120387626 L49.3104733507,266.250465896 L56.0939247111,278.51285874 L64.1818859486,285.557212076 L68.8781215058,286.339918002 L78.5314945956,303.037644428 Z" fill="#cee3f5" id="MN.BO" stroke="#6e6e6e" stroke-width="0.4"><desc><labelrank>7</labelrank><code_hasc>MN.BO</code_hasc><name>Bayan-Ölgiy</name><admin>Mongolia</admin><type_en>Province</type_en><region /><woe_id>2346159</woe_id><longitude>89</longitude><woe_name>Bayan-Ölgiy</woe_name><fips>MG03</fips><woe_label>Bayan-Olgiy, MN, Mongolia</woe_label><latitude>48</latitude><iso_a2>MN</iso_a2><postal>BO</postal><type>Aimag|aymag</type><id>MN.BO</id></desc></path><path d="M511.367871785,371.133060007 L519.716734998,374.785687663 L527.54379426,402.18039508 L522.325754752,405.311218785 L514.759597466,420.965337309 L526.500186359,436.097651882 L526.500186359,439.228475587 L505.628028327,449.403652628 L493.365635483,463.753261275 L485.799478196,467.40588893 L468.840849795,472.884830414 L441.967946329,472.623928438 L440.402534476,438.967573612 L433.879985091,422.791651137 L434.662691018,417.573611629 L437.793514722,409.746552367 L447.707789788,408.44204249 L454.491241148,403.745806933 L451.882221394,387.308982482 L453.708535222,379.221021245 L450.055907566,380.264629146 L447.446887812,377.394707417 L447.707789788,368.524040253 L442.48975028,362.001490868 L445.620573984,359.131569139 L439.880730526,356.26164741 L451.360417443,356.26164741 L458.92657473,349.739098025 L462.31830041,355.218039508 L465.188222139,354.957137533 L463.101006336,364.088706672 L471.188967574,372.69847186 L478.75512486,372.437569884 L484.234066344,369.045844204 L486.582184122,360.175177041 L503.019008572,375.046589638 L511.367871785,371.133060007 Z" fill="#cee3f5" id="MN.DG" stroke="#6e6e6e" stroke-width="0.4"><desc><labelrank>4</labelrank><code_hasc>MN.DG</code_hasc><name>Dornogovi</name><admin>Mongolia</admin><type_en>Province</type_en><region /><woe_id>2346161</woe_id><longitude>109</longitude><woe_name>Dornogovi</woe_name><fips>MG07</fips><woe_label>Dornogovi, MN, Mongolia</woe_label><latitude>44</latitude><iso_a2>MN</iso_a2><postal>DG</postal><type>Aimag|aymag</type><id>MN.DG</id></desc></path><path d="M434.662691018,417.573611629 L433.879985091,422.791651137 L440.402534476,438.967573612 L441.967946329,472.623928438 L414.051434961,476.537458069 L380.134178159,490.626164741 L375.177040626,494.800596347 L365.001863586,492.97428252 L364.74096161,487.495341036 L347.260529258,490.365262766 L333.693626537,483.842713381 L311.256056653,479.146477823 L300.037271711,470.014908684 L267.16362281,466.362281029 L258.553857622,468.449496832 L255.683935893,428.27059262 L262.989191204,426.705180768 L273.947074171,436.097651882 L293.25382035,436.097651882 L304.994409243,429.836004473 L313.082370481,427.226984719 L332.128214685,427.226984719 L330.562802833,422.008945211 L337.085352218,409.746552367 L348.825941111,399.571375326 L356.131196422,399.571375326 L358.218412225,408.963846441 L386.134923593,412.616474096 L392.396571003,423.052553112 L398.136414461,425.922474842 L425.270219903,418.09541558 L434.662691018,417.573611629 Z" fill="#cee3f5" id="MN.OG" stroke="#6e6e6e" stroke-width="0.4"><desc><labelrank>4</labelrank><code_hasc>MN.OG</code_hasc><name>Ömnögovi</name><admin>Mongolia</admin><type_en>Province</type_en><region /><woe_id>2346168</woe_id><longitude>103</longitude><woe_name>Ömnögovi</woe_name><fips>MG14</fips><woe_label>Omnogov, MN, Mongolia</woe_label><latitude>43</latitude><iso_a2>MN</iso_a2><postal>OG</postal><type>Aimag|aymag</type><id>MN.OG</id></desc></path><path d="M542.937010809,327.823332091 L530.93551994,331.997763697 L529.891912039,339.563920984 L523.891166605,339.042117033 L519.194931047,342.694744689 L511.889675736,360.175177041 L511.367871785,371.133060007 L503.019008572,375.046589638 L486.582184122,360.175177041 L484.234066344,369.045844204 L478.75512486,372.437569884 L471.188967574,372.69847186 L463.101006336,364.088706672 L465.188222139,354.957137533 L462.31830041,355.218039508 L458.92657473,349.739098025 L450.316809542,334.867685427 L451.621319419,324.953410362 L460.231084607,320.51807678 L463.622810287,313.734625419 L459.448378681,299.906820723 L452.404025345,291.297055535 L453.447633246,285.557212076 L468.840849795,285.035408125 L488.40849795,289.992545658 L492.582929556,287.905329855 L499.366380917,290.775251584 L513.455087589,284.513604174 L530.674617965,282.165486396 L542.937010809,327.823332091 Z" fill="#cee3f5" id="MN.HN" stroke="#6e6e6e" stroke-width="0.4"><desc><labelrank>4</labelrank><code_hasc>MN.HN</code_hasc><name>Hentiy</name><admin>Mongolia</admin><type_en>Province</type_en><region /><woe_id>2346165</woe_id><longitude>110</longitude><woe_name>Hentiy</woe_name><fips>MG11</fips><woe_label>Hentiy, MN, Mongolia</woe_label><latitude>47</latitude><iso_a2>MN</iso_a2><postal>HN</postal><type>Aimag|aymag</type><id>MN.HN</id></desc></path><path d="M302.90719344,294.688781215 L309.951546776,300.950428625 L313.343272456,299.906820723 L318.561311964,313.212821469 L325.083861349,316.343645173 L328.99739098,325.214312337 L346.999627283,343.21654864 L336.302646291,344.521058517 L332.910920611,340.607528886 L324.562057398,338.259411107 L326.388371226,342.172940738 L321.431233694,351.043607902 L316.213194186,348.695490123 L294.297428252,355.218039508 L282.295937384,354.435333582 L275.512486023,345.042862467 L264.032799105,347.390980246 L259.336563548,331.997763697 L246.030562803,336.95490123 L240.551621319,334.345881476 L238.725307492,330.17144987 L231.941856131,332.258665673 L227.245620574,330.954155796 L227.506522549,321.039880731 L247.33507268,313.212821469 L250.204994409,315.300037272 L259.858367499,313.734625419 L262.206485278,309.038389862 L271.077152441,311.125605665 L276.8169959,306.951174059 L274.729780097,300.428624674 L279.426015654,296.254193067 L276.034289974,292.862467387 L279.68691763,292.340663436 L282.295937384,288.688035781 L296.12374208,295.210585166 L302.90719344,294.688781215 Z" fill="#cee3f5" id="MN.AR" stroke="#6e6e6e" stroke-width="0.4"><desc><labelrank>4</labelrank><code_hasc>MN.AR</code_hasc><name>Arhangay</name><admin>Mongolia</admin><type_en>Province</type_en><region /><woe_id>2346157</woe_id><longitude>100</longitude><woe_name>Arhangay</woe_name><fips>MG01</fips><woe_label>Arhangay, MN, Mongolia</woe_label><latitude>48</latitude><iso_a2>MN</iso_a2><postal>AR</postal><type>Aimag|aymag</type><id>MN.AR</id></desc></path><path d="M294.297428252,355.218039508 L300.819977637,365.132314573 L298.471859858,368.524040253 L299.51546776,373.481177786 L295.080134178,377.394707417 L291.688408498,400.354081252 L292.992918375,404.267610883 L301.080879612,408.44204249 L299.51546776,412.616474096 L304.994409243,429.836004473 L293.25382035,436.097651882 L273.947074171,436.097651882 L262.989191204,426.705180768 L255.683935893,428.27059262 L258.553857622,468.449496832 L220.201267238,465.057771152 L218.896757361,450.447260529 L222.027581066,441.837495341 L222.027581066,421.48714126 L228.0283265,416.008199776 L228.289228476,405.833022736 L233.768169959,392.266120015 L231.680954156,381.830040999 L216.548639583,368.524040253 L215.505031681,360.957882967 L220.201267238,345.303764443 L226.723816623,343.73835259 L231.941856131,332.258665673 L238.725307492,330.17144987 L240.551621319,334.345881476 L246.030562803,336.95490123 L259.336563548,331.997763697 L264.032799105,347.390980246 L275.512486023,345.042862467 L282.295937384,354.435333582 L294.297428252,355.218039508 Z" fill="#cee3f5" id="MN.BH" stroke="#6e6e6e" stroke-width="0.4"><desc><labelrank>6</labelrank><code_hasc>MN.BH</code_hasc><name>Bayanhongor</name><admin>Mongolia</admin><type_en>Province</type_en><region /><woe_id>2346158</woe_id><longitude>99</longitude><woe_name>Bayanhongor</woe_name><fips>MG02</fips><woe_label>Bayanhongor, MN, Mongolia</woe_label><latitude>45</latitude><iso_a2>MN</iso_a2><postal>BH</postal><type>Aimag|aymag</type><id>MN.BH</id></desc></path><path d="M203.503540813,271.990309355 L204.80805069,274.599329109 L198.54640328,282.426388371 L205.068952665,288.16623183 L213.156913902,288.948937756 L221.505777115,293.906075289 L234.811777861,295.210585166 L239.508013418,290.775251584 L246.813268729,290.514349609 L247.33507268,313.212821469 L227.506522549,321.039880731 L227.245620574,330.954155796 L231.941856131,332.258665673 L226.723816623,343.73835259 L220.201267238,345.303764443 L215.505031681,360.957882967 L210.286992173,359.131569139 L206.895266493,361.479686918 L201.416325009,360.957882967 L198.024599329,353.130823705 L188.371226239,353.39172568 L183.674990682,343.21654864 L168.281774133,334.345881476 L160.454714871,334.606783451 L157.323891167,331.475959747 L139.582556839,328.606038017 L125.232948192,332.780469624 L118.710398807,319.996272829 L124.711144242,315.300037272 L124.450242266,311.386507641 L130.190085725,304.342154305 L139.060752889,300.167722698 L153.671263511,303.559448379 L169.58628401,298.602310846 L173.238911666,284.513604174 L168.281774133,277.469250839 L168.542676109,269.381289601 L176.108833395,265.728661946 L178.717853149,268.076779724 L181.065970928,266.511367872 L203.503540813,271.990309355 Z" fill="#cee3f5" id="MN.DZ" stroke="#6e6e6e" stroke-width="0.4"><desc><labelrank>4</labelrank><code_hasc>MN.DZ</code_hasc><name>Dzavhan</name><admin>Mongolia</admin><type_en>Province</type_en><region /><woe_id>2346163</woe_id><longitude>96</longitude><woe_name>Dzavhan</woe_name><fips>MG09</fips><woe_label>Dzavhan, MN, Mongolia</woe_label><latitude>48</latitude><iso_a2>MN</iso_a2><postal>DZ</postal><type>Aimag|aymag</type><id>MN.DZ</id></desc></path><path d="M215.505031681,360.957882967 L216.548639583,368.524040253 L231.680954156,381.830040999 L233.768169959,392.266120015 L228.289228476,405.833022736 L228.0283265,416.008199776 L222.027581066,421.48714126 L222.027581066,441.837495341 L218.896757361,450.447260529 L220.201267238,465.057771152 L205.851658591,463.492359299 L187.588520313,465.057771152 L186.805814387,460.100633619 L177.152441297,451.229966455 L169.847185986,432.445024227 L165.150950429,430.879612374 L166.716362281,423.835259038 L152.105851659,422.269847186 L140.365262766,413.660081998 L134.886321282,413.399180022 L129.668281774,407.398434588 L116.362281029,404.267610883 L117.144986955,385.482668654 L123.406634365,379.48192322 L128.363771897,368.002236303 L126.276556094,362.001490868 L131.755497577,361.479686918 L142.191576593,354.957137533 L136.973537085,343.477450615 L126.276556094,336.172195304 L125.232948192,332.780469624 L139.582556839,328.606038017 L157.323891167,331.475959747 L160.454714871,334.606783451 L168.281774133,334.345881476 L183.674990682,343.21654864 L188.371226239,353.39172568 L198.024599329,353.130823705 L201.416325009,360.957882967 L206.895266493,361.479686918 L210.286992173,359.131569139 L215.505031681,360.957882967 Z" fill="#cee3f5" id="MN.GA" stroke="#6e6e6e" stroke-width="0.4"><desc><labelrank>4</labelrank><code_hasc>MN.GA</code_hasc><name>Govi-Altay</name><admin>Mongolia</admin><type_en>Province</type_en><region /><woe_id>2346164</woe_id><longitude>95</longitude><woe_name>Govi-Altay</woe_name><fips>MG10</fips><woe_label>Govi-Altay, MN, Mongolia</woe_label><latitude>45</latitude><iso_a2>MN</iso_a2><postal>GA</postal><type>Aimag|aymag</type><id>MN.GA</id></desc></path><path d="M124.450242266,311.386507641 L124.711144242,315.300037272 L118.710398807,319.996272829 L125.232948192,332.780469624 L126.276556094,336.172195304 L136.973537085,343.477450615 L142.191576593,354.957137533 L131.755497577,361.479686918 L126.276556094,362.001490868 L128.363771897,368.002236303 L123.406634365,379.48192322 L117.144986955,385.482668654 L116.362281029,404.267610883 L97.5773387999,404.267610883 L68.356317555,399.571375326 L63.3991800224,391.222512113 L64.7036898994,384.178158777 L71.2262392844,376.872903466 L68.8781215058,369.30674618 L71.4871412598,358.609765188 L80.096906448,362.262392844 L82.1841222512,359.914275065 L90.2720834886,359.392471114 L80.096906448,350.782705926 L81.401416325,345.303764443 L76.4442787924,339.563920984 L64.1818859486,306.429370108 L78.5314945956,303.037644428 L88.9675736116,295.210585166 L97.3164368245,305.646664182 L109.578829668,306.951174059 L116.101379053,304.081252329 L124.450242266,311.386507641 Z" fill="#cee3f5" id="MN.HD" stroke="#6e6e6e" stroke-width="0.4"><desc><labelrank>4</labelrank><code_hasc>MN.HD</code_hasc><name>Hovd</name><admin>Mongolia</admin><type_en>Province</type_en><region /><woe_id>2346166</woe_id><longitude>92</longitude><woe_name>Hovd</woe_name><fips>MG00</fips><woe_label>Hovd, MN, Mongolia</woe_label><latitude>46</latitude><iso_a2>MN</iso_a2><postal>HD</postal><type>Aimag|aymag</type><id>MN.HD</id></desc></path><path d="M323.779351472,255.031680954 L312.56056653,268.076779724 L327.431979128,275.12113306 L304.472605293,288.16623183 L302.90719344,294.688781215 L296.12374208,295.210585166 L282.295937384,288.688035781 L279.68691763,292.340663436 L276.034289974,292.862467387 L279.426015654,296.254193067 L274.729780097,300.428624674 L276.8169959,306.951174059 L271.077152441,311.125605665 L262.206485278,309.038389862 L259.858367499,313.734625419 L250.204994409,315.300037272 L247.33507268,313.212821469 L246.813268729,290.514349609 L239.508013418,290.775251584 L234.811777861,295.210585166 L221.505777115,293.906075289 L213.156913902,288.948937756 L205.068952665,288.16623183 L198.54640328,282.426388371 L204.80805069,274.599329109 L203.503540813,271.990309355 L208.982482296,274.077525158 L213.939619829,268.85948565 L219.679463287,268.598583675 L225.680208722,264.685054044 L229.854640328,251.639955274 L224.114796869,248.770033545 L219.157659337,237.812150578 L224.114796869,224.767051808 L228.289228476,224.245247857 L230.637346254,217.200894521 L238.203503541,214.070070816 L242.638837123,205.199403653 L265.076407007,216.157286619 L278.121505777,216.939992546 L296.384644055,224.767051808 L314.386880358,228.419679463 L316.474096161,249.552739471 L323.779351472,255.031680954 Z" fill="#cee3f5" id="MN.HG" stroke="#6e6e6e" stroke-width="0.4"><desc><labelrank>4</labelrank><code_hasc>MN.HG</code_hasc><name>Hövsgöl</name><admin>Mongolia</admin><type_en>Province</type_en><region /><woe_id>2346167</woe_id><longitude>99</longitude><woe_name>Hövsgöl</woe_name><fips>MG13</fips><woe_label>Hovsgol, MN, Mongolia</woe_label><latitude>50</latitude><iso_a2>MN</iso_a2><postal>HG</postal><type>Aimag|aymag</type><id>MN.HG</id></desc></path><path d="M168.542676109,269.381289601 L168.281774133,277.469250839 L173.238911666,284.513604174 L169.58628401,298.602310846 L153.671263511,303.559448379 L139.060752889,300.167722698 L130.190085725,304.342154305 L124.450242266,311.386507641 L116.101379053,304.081252329 L109.578829668,306.951174059 L97.3164368245,305.646664182 L88.9675736116,295.210585166 L78.5314945956,303.037644428 L68.8781215058,286.339918002 L64.1818859486,285.557212076 L56.0939247111,278.51285874 L49.3104733507,266.250465896 L50.3540812523,263.902348118 L64.1818859486,260.249720462 L70.4435333582,254.509877003 L80.096906448,253.205367126 L87.4021617592,246.943719717 L96.2728289228,246.682817741 L100.708162505,241.725680209 L106.969809914,247.204621692 L110.100633619,243.812896012 L113.753261275,244.334699963 L116.88408498,249.291837495 L141.408870667,250.335445397 L144.017890421,259.988818487 L149.496831905,265.728661946 L156.280283265,265.206857995 L168.542676109,269.381289601 Z" fill="#cee3f5" id="MN.UV" stroke="#6e6e6e" stroke-width="0.4"><desc><labelrank>4</labelrank><code_hasc>MN.UV</code_hasc><name>Uvs</name><admin>Mongolia</admin><type_en>Province</type_en><region /><woe_id>2346173</woe_id><longitude>92</longitude><woe_name>Uvs</woe_name><fips>MG19</fips><woe_label>Uvs, MN, Mongolia</woe_label><latitude>49</latitude><iso_a2>MN</iso_a2><postal>UV</postal><type>Aimag|aymag</type><id>MN.UV</id></desc></path><path d="M361.610137905,258.68430861 L369.959001118,275.382035035 L365.262765561,291.818859486 L356.131196422,291.297055535 L354.043980619,293.384271338 L362.131941856,297.558702944 L365.784569512,300.428624674 L365.523667536,305.124860231 L365.262765561,312.169213567 L360.305628028,318.691762952 L362.392843832,322.866194558 L369.176295192,324.170704435 L370.480805069,331.997763697 L357.435706299,335.650391353 L355.348490496,337.215803205 L357.174804324,341.912038763 L346.999627283,343.21654864 L328.99739098,325.214312337 L325.083861349,316.343645173 L318.561311964,313.212821469 L313.343272456,299.906820723 L309.951546776,300.950428625 L302.90719344,294.688781215 L304.472605293,288.16623183 L327.431979128,275.12113306 L312.56056653,268.076779724 L323.779351472,255.031680954 L345.173313455,262.597838241 L356.653000373,262.07603429 L361.610137905,258.68430861 Z" fill="#cee3f5" id="MN.BU" stroke="#6e6e6e" stroke-width="0.4"><desc><labelrank>4</labelrank><code_hasc>MN.BU</code_hasc><name>Bulgan</name><admin>Mongolia</admin><type_en>Province</type_en><region /><woe_id>2346174</woe_id><longitude>103</longitude><woe_name>Bulgan</woe_name><fips>MG21</fips><woe_label>Bulgan, MN, Mongolia</woe_label><latitude>49</latitude><iso_a2>MN</iso_a2><postal>BU</postal><type>Aimag|aymag</type><id>MN.BU</id></desc></path><path d="M365.262765561,291.818859486 L366.045471487,294.688781215 L362.131941856,297.558702944 L354.043980619,293.384271338 L356.131196422,291.297055535 L365.262765561,291.818859486 Z" fill="#cee3f5" id="MN.ER" stroke="#6e6e6e" stroke-width="0.4"><desc><labelrank>4</labelrank><code_hasc>MN.ER</code_hasc><name>Orhon</name><admin>Mongolia</admin><type_en>Municipality</type_en><region /><woe_id>20070015</woe_id><longitude>104</longitude><woe_name>Orhon</woe_name><fips>MG22</fips><woe_label>Erdenet, MN, Mongolia</woe_label><latitude>49</latitude><iso_a2>MN</iso_a2><postal>ER</postal><type>Hot</type><id>MN.ER</id></desc></path><path d="M434.662691018,417.573611629 L425.270219903,418.09541558 L398.136414461,425.922474842 L392.396571003,423.052553112 L386.134923593,412.616474096 L358.218412225,408.963846441 L356.131196422,399.571375326 L348.825941111,399.571375326 L349.869549012,395.657845695 L345.695117406,387.830786433 L355.08758852,384.439060753 L357.696608274,374.524785688 L363.175549758,373.220275811 L367.089079389,366.175922475 L374.916138651,361.479686918 L384.308609765,365.654118524 L393.179276929,357.566157287 L401.006336191,361.740588893 L414.834140887,362.262392844 L421.356690272,366.43682445 L426.57472978,366.175922475 L436.489004845,362.001490868 L439.880730526,356.26164741 L445.620573984,359.131569139 L442.48975028,362.001490868 L447.707789788,368.524040253 L447.446887812,377.394707417 L450.055907566,380.264629146 L453.708535222,379.221021245 L451.882221394,387.308982482 L454.491241148,403.745806933 L447.707789788,408.44204249 L437.793514722,409.746552367 L434.662691018,417.573611629 Z" fill="#cee3f5" id="MN.DU" stroke="#6e6e6e" stroke-width="0.4"><desc><labelrank>4</labelrank><code_hasc>MN.DU</code_hasc><name>Dundgovi</name><admin>Mongolia</admin><type_en>Province</type_en><region /><woe_id>2346162</woe_id><longitude>106</longitude><woe_name>Dundgovi</woe_name><fips>MG00</fips><woe_label>Dundgovi, MN, Mongolia</woe_label><latitude>45</latitude><iso_a2>MN</iso_a2><postal>DU</postal><type>Aimag|aymag</type><id>MN.DU</id></desc></path><path d="M453.447633246,285.557212076 L452.404025345,291.297055535 L442.750652255,294.42787924 L433.879985091,293.123369363 L430.749161387,295.210585166 L435.184494968,299.385016772 L433.358181141,304.863958256 L424.748415952,306.951174059 L421.617592247,305.385762206 L409.877003354,307.733879985 L397.875512486,303.820350354 L397.614610511,299.906820723 L393.70108088,298.341408871 L386.917629519,300.428624674 L386.395825568,304.60305628 L377.003354454,308.516585911 L365.523667536,305.124860231 L365.784569512,300.428624674 L362.131941856,297.558702944 L366.045471487,294.688781215 L365.262765561,291.818859486 L369.959001118,275.382035035 L361.610137905,258.68430861 L382.743197913,252.944465151 L402.310846068,258.162504659 L413.790532985,257.640700708 L423.443906075,266.250465896 L439.880730526,268.3376817 L439.358926575,275.642937011 L453.447633246,285.557212076 Z" fill="#cee3f5" id="MN.SL" stroke="#6e6e6e" stroke-width="0.4"><desc><labelrank>4</labelrank><code_hasc>MN.SL</code_hasc><name>Selenge</name><admin>Mongolia</admin><type_en>Province</type_en><region /><woe_id>2346170</woe_id><longitude>106</longitude><woe_name>Selenge</woe_name><fips>MG16</fips><woe_label>Selenge, MN, Mongolia</woe_label><latitude>48</latitude><iso_a2>MN</iso_a2><postal>SL</postal><type>Aimag|aymag</type><id>MN.SL</id></desc></path><path d="M346.999627283,343.21654864 L357.174804324,341.912038763 L361.610137905,350.260901975 L359.001118151,354.174431606 L362.653745807,363.04509877 L367.089079389,366.175922475 L363.175549758,373.220275811 L357.696608274,374.524785688 L355.08758852,384.439060753 L345.695117406,387.830786433 L349.869549012,395.657845695 L348.825941111,399.571375326 L337.085352218,409.746552367 L330.562802833,422.008945211 L332.128214685,427.226984719 L313.082370481,427.226984719 L304.994409243,429.836004473 L299.51546776,412.616474096 L301.080879612,408.44204249 L292.992918375,404.267610883 L291.688408498,400.354081252 L295.080134178,377.394707417 L299.51546776,373.481177786 L298.471859858,368.524040253 L300.819977637,365.132314573 L294.297428252,355.218039508 L316.213194186,348.695490123 L321.431233694,351.043607902 L326.388371226,342.172940738 L324.562057398,338.259411107 L332.910920611,340.607528886 L336.302646291,344.521058517 L346.999627283,343.21654864 Z" fill="#cee3f5" id="MN.OH" stroke="#6e6e6e" stroke-width="0.4"><desc><labelrank>4</labelrank><code_hasc>MN.OH</code_hasc><name>Övörhangay</name><admin>Mongolia</admin><type_en>Province</type_en><region /><woe_id>2346169</woe_id><longitude>102</longitude><woe_name>Övörhangay</woe_name><fips>MG00</fips><woe_label>Ovorhangay, MN, Mongolia</woe_label><latitude>45</latitude><iso_a2>MN</iso_a2><postal>OH</postal><type>Aimag|aymag</type><id>MN.OH</id></desc></path><path d="M398.397316437,292.079761461 L393.179276929,291.036153559 L393.70108088,276.686544912 L400.48453224,271.468505404 L398.397316437,277.208348863 L414.312336936,280.339172568 L414.834140887,291.036153559 L410.398807305,292.079761461 L404.137159896,289.470741707 L398.397316437,292.079761461 Z" fill="#cee3f5" id="MN.DA" stroke="#6e6e6e" stroke-width="0.4"><desc><labelrank>4</labelrank><code_hasc>MN.DA</code_hasc><name>Darhan-Uul</name><admin>Mongolia</admin><type_en>Municipality</type_en><region /><woe_id>20070014</woe_id><longitude>106</longitude><woe_name>Darhan-Uul</woe_name><fips>MG05</fips><woe_label>Darhan, MN, Mongolia</woe_label><latitude>49</latitude><iso_a2>MN</iso_a2><postal>DA</postal><type>Hot</type><id>MN.DA</id></desc></path><path d="M452.404025345,291.297055535 L459.448378681,299.906820723 L463.622810287,313.734625419 L460.231084607,320.51807678 L451.621319419,324.953410362 L448.751397689,324.953410362 L445.359672009,329.388743943 L446.664181886,333.824077525 L450.316809542,334.867685427 L458.92657473,349.739098025 L451.360417443,356.26164741 L439.880730526,356.26164741 L436.489004845,362.001490868 L426.57472978,366.175922475 L421.356690272,366.43682445 L414.834140887,362.262392844 L401.006336191,361.740588893 L393.179276929,357.566157287 L384.308609765,365.654118524 L374.916138651,361.479686918 L367.089079389,366.175922475 L362.653745807,363.04509877 L359.001118151,354.174431606 L361.610137905,350.260901975 L357.174804324,341.912038763 L355.348490496,337.215803205 L357.435706299,335.650391353 L370.480805069,331.997763697 L369.176295192,324.170704435 L362.392843832,322.866194558 L360.305628028,318.691762952 L365.262765561,312.169213567 L365.523667536,305.124860231 L377.003354454,308.516585911 L386.395825568,304.60305628 L386.917629519,300.428624674 L393.70108088,298.341408871 L397.614610511,299.906820723 L397.875512486,303.820350354 L409.877003354,307.733879985 L421.617592247,305.385762206 L424.748415952,306.951174059 L433.358181141,304.863958256 L435.184494968,299.385016772 L430.749161387,295.210585166 L433.879985091,293.123369363 L442.750652255,294.42787924 L452.404025345,291.297055535 Z" fill="#cee3f5" id="MN.TO" stroke="#6e6e6e" stroke-width="0.4"><desc><labelrank>4</labelrank><code_hasc>MN.TO</code_hasc><name>Töv</name><admin>Mongolia</admin><type_en>Province</type_en><region /><woe_id>2346172</woe_id><longitude>106</longitude><woe_name>Töv</woe_name><fips>MG18</fips><woe_label>Tov, MN, Mongolia</woe_label><latitude>47</latitude><iso_a2>MN</iso_a2><postal>TO</postal><type>Aimag|aymag</type><id>MN.TO</id></desc></path><path d="M451.621319419,324.953410362 L450.316809542,334.867685427 L446.664181886,333.824077525 L445.359672009,329.388743943 L448.751397689,324.953410362 L451.621319419,324.953410362 Z" fill="#cee3f5" id="MN.GS" stroke="#6e6e6e" stroke-width="0.4"><desc><labelrank>4</labelrank><code_hasc>MN.GS</code_hasc><name>Govĭ-Sümber</name><admin>Mongolia</admin><type_en>Municipality</type_en><region /><woe_id>-2346172</woe_id><longitude>108</longitude><woe_name /><fips>MG20</fips><woe_label /><latitude>47</latitude><iso_a2>MN</iso_a2><postal>GS</postal><type>Hot</type><id>MN.GS</id></desc></path><path d="M411.964219158,330.69325382 L408.311591502,328.866939993 L405.180767797,315.560939247 L416.660454715,317.909057026 L421.356690272,316.604547149 L426.313827805,322.866194558 L431.531867313,324.953410362 L430.227357436,332.258665673 L411.964219158,330.69325382 Z" fill="#cee3f5" id="MN.UB" stroke="#6e6e6e" stroke-width="0.4"><desc><labelrank>9</labelrank><code_hasc>MN.UB</code_hasc><name>Ulaanbaatar</name><admin>Mongolia</admin><type_en>Municipality</type_en><region /><woe_id>20070016</woe_id><longitude>106</longitude><woe_name>Ulaanbaatar</woe_name><fips>MG20</fips><woe_label>Ulaanbaatar, MN, Mongolia</woe_label><latitude>47</latitude><iso_a2>MN</iso_a2><postal>UB</postal><type>Hot</type><id>MN.UB</id></desc></path><path d="M627.730152814,369.30674618 L620.424897503,360.696980991 L591.203876258,364.088706672 L581.289601193,354.696235557 L581.028699217,344.781960492 L567.200894521,336.172195304 L548.676854268,331.736861722 L542.937010809,333.56317555 L542.937010809,327.823332091 L530.674617965,282.165486396 L550.764070071,277.991054789 L554.416697726,271.468505404 L577.636973537,258.423406634 L587.812150578,259.727916511 L601.639955274,269.381289601 L608.945210585,269.903093552 L617.815877749,265.989563921 L628.51285874,269.381289601 L629.817368617,271.468505404 L610.510622438,308.255683936 L610.771524413,315.821841223 L604.509877003,318.952664927 L606.336190831,325.736116288 L613.119642192,331.215057771 L620.424897503,326.257920239 L632.948192322,325.997018263 L644.688781215,332.258665673 L653.559448379,322.866194558 L668.691762952,322.866194558 L675.214312337,329.388743943 L681.997763697,331.997763697 L683.302273574,335.650391353 L695.564666418,345.825568394 L700.0,357.827059262 L695.042862467,361.479686918 L681.736861722,359.392471114 L677.040626165,356.522549385 L674.170704435,359.131569139 L664.25642937,357.827059262 L654.081252329,363.306000745 L645.210585166,362.001490868 L644.166977264,367.741334327 L632.687290347,366.958628401 L627.730152814,369.30674618 Z" fill="#cee3f5" id="MN.DD" stroke="#6e6e6e" stroke-width="0.4"><desc><labelrank>4</labelrank><code_hasc>MN.DD</code_hasc><name>Dornod</name><admin>Mongolia</admin><type_en>Province</type_en><region /><woe_id>2346160</woe_id><longitude>114</longitude><woe_name>Dornod</woe_name><fips>MG06</fips><woe_label>Dornod, MN, Mongolia</woe_label><latitude>48</latitude><iso_a2>MN</iso_a2><postal>DD</postal><type>Aimag|aymag</type><id>MN.DD</id></desc></path><path d="M627.730152814,369.30674618 L618.076779724,385.74357063 L603.466269102,393.309727917 L583.11591502,394.092433843 L573.462541931,405.57212076 L563.548266865,411.311964219 L544.241520686,408.181140514 L536.936265375,402.702199031 L527.54379426,402.18039508 L519.716734998,374.785687663 L511.367871785,371.133060007 L511.889675736,360.175177041 L519.194931047,342.694744689 L523.891166605,339.042117033 L529.891912039,339.563920984 L530.93551994,331.997763697 L542.937010809,327.823332091 L542.937010809,333.56317555 L548.676854268,331.736861722 L567.200894521,336.172195304 L581.028699217,344.781960492 L581.289601193,354.696235557 L591.203876258,364.088706672 L620.424897503,360.696980991 L627.730152814,369.30674618 Z" fill="#cee3f5" id="MN.SB" stroke="#6e6e6e" stroke-width="0.4"><desc><labelrank>4</labelrank><code_hasc>MN.SB</code_hasc><name>Sühbaatar</name><admin>Mongolia</admin><type_en>Province</type_en><region /><woe_id>2346171</woe_id><longitude>113</longitude><woe_name>Sühbaatar</woe_name><fips>MG17</fips><woe_label>Suhbaatar, MN, Mongolia</woe_label><latitude>46</latitude><iso_a2>MN</iso_a2><postal>SB</postal><type>Aimag|aymag</type><id>MN.SB</id></desc></path></svg>