<?xml version='1.0' encoding='utf-8'?>
<svg height="700" width="700" xmlns="http://www.w3.org/2000/svg"><path d="M385.649918536,443.82905616 L381.872670879,468.64721084 L366.909568425,469.644750511 L351.330098304,458.64747823 L340.332826023,453.148841033 L323.238667891,453.052157856 L324.194429574,445.645003781 L326.87056303,443.829056162 L332.50955777,441.105134735 L342.640633585,436.469689747 L354.39650513,432.837794511 L367.108138457,436.469689747 L375.518842596,441.105134735 L385.649918536,443.82905616 Z" fill="#cee3f5" id="HK.3682" stroke="#6e6e6e" stroke-width="0.4"><desc><labelrank>20</labelrank><code_hasc>HK.</code_hasc><name>Central and Western</name><admin>Hong Kong S.A.R.</admin><type_en /><region>Hong Kong Island</region><woe_id>24703128</woe_id><longitude>114</longitude><woe_name>Central and Western</woe_name><fips /><woe_label /><latitude>22</latitude><iso_a2>HK</iso_a2><postal /><type /><id>HK.3682</id></desc></path><path d="M412.768279348,467.301717711 L394.402749128,467.811871797 L381.872670879,468.64721084 L385.649918536,443.82905616 L401.133260996,443.82905616 L409.982219249,448.566644249 L420.063052174,450.399522962 L417.313734104,457.731038873 L412.768279348,467.301717711 Z" fill="#cee3f5" id="HK.6655" stroke="#6e6e6e" stroke-width="0.4"><desc><labelrank>20</labelrank><code_hasc>HK.</code_hasc><name>Wan Chai</name><admin>Hong Kong S.A.R.</admin><type_en /><region>Hong Kong Island</region><woe_id>24703129</woe_id><longitude>114</longitude><woe_name>Wan Chai</woe_name><fips /><woe_label /><latitude>22</latitude><iso_a2>HK</iso_a2><postal /><type /><id>HK.6655</id></desc></path><path d="M412.768279348,467.301717711 L417.313734104,457.731038873 L420.063052174,450.399522962 L409.982219249,448.566644249 L401.133260996,443.82905616 L412.028946844,434.653742129 L422.160022658,429.158111303 L433.438012139,433.411251344 L444.238121904,436.469689747 L451.501912376,443.829056162 L458.956854735,442.013108544 L468.036592825,445.645003781 L477.211906859,461.176134477 L486.387220892,467.675315055 L486.387220732,479.622338132 L462.219264698,469.644750511 L427.394568084,466.895432441 L412.768279348,467.301717711 Z" fill="#cee3f5" id="HK.6656" stroke="#6e6e6e" stroke-width="0.4"><desc><labelrank>20</labelrank><code_hasc>HK.</code_hasc><name>Eastern</name><admin>Hong Kong S.A.R.</admin><type_en /><region>Hong Kong Island</region><woe_id>24703131</woe_id><longitude>114</longitude><woe_name>Eastern</woe_name><fips /><woe_label /><latitude>22</latitude><iso_a2>HK</iso_a2><postal /><type /><id>HK.6656</id></desc></path><path d="M374.658656759,499.741126201 L369.784270738,500.64910001 L360.704533822,494.197707403 L358.028400367,488.654288606 L358.028400367,487.84189074 L374.658656759,491.425998005 L374.658656759,499.741126201 M351.330098304,458.64747823 L366.909568425,469.644750511 L381.872670879,468.64721084 L394.402749128,467.811871797 L412.768279348,467.301717711 L427.394568084,466.895432441 L462.219264698,469.644750511 L486.387220732,479.622338132 L479.12343042,487.84189074 L483.519934376,498.833152392 L489.063353173,508.868652263 L483.519934376,510.732387852 L491.835063746,532.810487099 L477.211906859,535.534408526 L473.484435679,530.898963537 L464.404697589,523.539597122 L464.309121646,511.210268743 L460.581649292,497.590661607 L452.5532501,491.425998005 L445.671764575,496.73047577 L452.5532501,498.833152392 L452.5532501,507.960678454 L447.87001714,508.868652263 L439.74604083,518.091754268 L447.87001714,529.990989728 L444.238121904,538.258329953 L448.825778921,546.573458149 L434.967231927,549.297379576 L433.055707192,530.898963537 L436.878755489,528.17504211 L433.6291652,522.488258224 L421.29983682,528.17504211 L415.851993966,525.35554474 L421.29983682,519.047516049 L413.080284567,514.459859032 L418.528127422,507.052704645 L415.851993966,500.64910001 L405.625342209,498.833152392 L406.963408937,488.845440493 L392.053523045,497.925178583 L387.465866028,504.328783218 L384.69415663,504.328783218 L382.018023174,497.925178583 L380.106499613,489.610050387 L369.784270738,484.162207533 L350.764609894,483.302021695 L342.640633585,479.622338487 L337.861824681,470.399236482 L336.141453007,464.951393628 L330.598034209,455.776079595 L323.238667891,453.052157856 L340.332826023,453.148841033 L351.330098304,458.64747823 Z" fill="#cee3f5" id="HK.6657" stroke="#6e6e6e" stroke-width="0.4"><desc><labelrank>20</labelrank><code_hasc>HK.</code_hasc><name>Southern</name><admin>Hong Kong S.A.R.</admin><type_en /><region>Hong Kong Island</region><woe_id>24703130</woe_id><longitude>114</longitude><woe_name>Southern</woe_name><fips /><woe_label /><latitude>22</latitude><iso_a2>HK</iso_a2><postal /><type /><id>HK.6657</id></desc></path><path d="M398.361551542,430.066085157 L392.913708882,432.837794511 L387.465866028,426.434189876 L388.61278087,413.149099716 L385.64991841,407.175588 L384.69415663,401.727745146 L378.386127938,401.727745146 L378.386128172,393.460404534 L396.965989058,392.519629944 L396.235627842,402.744675354 L398.984946968,414.658386992 L398.361551542,430.066085157 Z" fill="#cee3f5" id="HK.6658" stroke="#6e6e6e" stroke-width="0.4"><desc><labelrank>20</labelrank><code_hasc>HK.</code_hasc><name>Yau Tsim Mong</name><admin>Hong Kong S.A.R.</admin><type_en /><region>Kowloon</region><woe_id>24703134</woe_id><longitude>114</longitude><woe_name>Yau Tsim Mong</woe_name><fips /><woe_label /><latitude>22</latitude><iso_a2>HK</iso_a2><postal /><type /><id>HK.6658</id></desc></path><path d="M431.990864081,379.030043672 L435.642522295,391.747402017 L439.746040819,407.175587669 L443.377936067,418.214637623 L440.606226668,418.214637623 L420.630802869,398.143637882 L410.117422108,409.326052594 L415.851993966,417.306663814 L415.851993966,420.890771079 L406.772255876,417.306663814 L404.382851424,426.147460872 L398.361551542,430.066085157 L398.984946968,414.658386992 L396.235627842,402.744675354 L396.965989058,392.519629944 L398.068507611,377.084372309 L390.736991701,367.003539384 L409.044484789,363.234349351 L418.23017346,380.750129736 L431.990864081,379.030043672 Z" fill="#cee3f5" id="HK.6659" stroke="#6e6e6e" stroke-width="0.4"><desc><labelrank>20</labelrank><code_hasc>HK.</code_hasc><name>Kowloon City</name><admin>Hong Kong S.A.R.</admin><type_en /><region>Kowloon</region><woe_id>24703135</woe_id><longitude>114</longitude><woe_name>Kowloon City</woe_name><fips /><woe_label /><latitude>22</latitude><iso_a2>HK</iso_a2><postal /><type /><id>HK.6659</id></desc></path><path d="M354.688128533,399.475018511 L357.072638586,400.819771337 L361.755871546,399.864009556 L363.476243221,403.543692764 L357.072638586,407.175588 L351.62479589,403.54369275 L354.688128533,399.475018511 M362.141925092,382.01327204 L365.24481879,374.028706608 L378.342996368,370.419093603 L390.736991701,367.003539384 L398.068507611,377.084372309 L396.965989058,392.519629944 L378.386128172,393.460404534 L369.784270738,386.101038506 L362.141925092,382.01327204 Z" fill="#cee3f5" id="HK.6660" stroke="#6e6e6e" stroke-width="0.4"><desc><labelrank>20</labelrank><code_hasc>HK.</code_hasc><name>Sham Shui Po</name><admin>Hong Kong S.A.R.</admin><type_en /><region>Kowloon</region><woe_id>24703133</woe_id><longitude>114</longitude><woe_name>Sham Shui Po</woe_name><fips /><woe_label /><latitude>22</latitude><iso_a2>HK</iso_a2><postal /><type /><id>HK.6660</id></desc></path><path d="M465.885022125,380.750129736 L431.990864081,379.030043672 L418.23017346,380.750129736 L409.044484789,363.234349351 L453.054870074,354.173387333 L465.885022125,380.750129736 Z" fill="#cee3f5" id="HK.6661" stroke="#6e6e6e" stroke-width="0.4"><desc><labelrank>20</labelrank><code_hasc>HK.</code_hasc><name>Wong Tai Sin</name><admin>Hong Kong S.A.R.</admin><type_en /><region>Kowloon</region><woe_id>24703137</woe_id><longitude>114</longitude><woe_name>Wong Tai Sin</woe_name><fips /><woe_label /><latitude>22</latitude><iso_a2>HK</iso_a2><postal /><type /><id>HK.6661</id></desc></path><path d="M465.885022125,380.750129736 L475.049415692,396.329599857 L468.634340195,418.324144419 L476.959711862,435.813910711 L471.668488061,441.105134735 L458.956854735,429.158111303 L439.746040819,407.175587669 L435.642522295,391.747402017 L431.990864081,379.030043672 L465.885022125,380.750129736 Z" fill="#cee3f5" id="HK.6662" stroke="#6e6e6e" stroke-width="0.4"><desc><labelrank>20</labelrank><code_hasc>HK.</code_hasc><name>Kwun Tong</name><admin>Hong Kong S.A.R.</admin><type_en /><region>Kowloon</region><woe_id>24703136</woe_id><longitude>114</longitude><woe_name>Kwun Tong</woe_name><fips /><woe_label /><latitude>22</latitude><iso_a2>HK</iso_a2><postal /><type /><id>HK.6662</id></desc></path><path d="M538.667395694,473.123157909 L538.667395694,480.530312296 L541.630256979,486.933916931 L537.711633914,493.289733595 L529.587657604,498.833152392 L525.955762368,492.381759785 L521.463681294,491.425998005 L523.279628912,478.618788735 L523.279628912,479.622338487 L538.667395694,473.123157909 M602.034408091,461.176134477 L598.211359794,467.675315055 L595.535227513,462.992082095 L598.211359794,455.776079595 L602.034408091,461.176134477 M511.141453594,447.556527342 L502.061715504,454.868105786 L503.017477284,443.829056162 L511.141453594,447.556527342 M625.832879013,413.531404663 L624.016931394,413.531404663 L618.473512597,404.451666573 L621.245221996,397.952485995 L625.832879013,406.267614191 L625.832879013,413.531404663 M604.80611749,404.451666573 L598.211359794,408.083561809 L605.666303327,393.460404922 L609.202621446,393.460404922 L604.80611749,404.451666573 M580.051884788,388.920535876 L566.288913738,391.644457303 L562.561442559,376.925724473 L570.972146698,373.246041265 L577.28017539,375.969962692 L580.051884788,388.920535876 M538.667395694,346.675860945 L538.667395694,362.254779613 L531.308029279,356.806936759 L530.447843442,342.996177737 L530.447843442,338.456308692 L534.939923341,335.732387265 L538.667395694,346.675860945 M577.28017539,369.614146029 L552.525942688,369.614146029 L549.754233289,365.838886878 L548.894047452,350.307756181 L547.078099834,342.996177737 L556.157837924,330.188968468 L562.561442559,330.188968468 L566.288913738,350.307756181 L577.28017539,360.438831995 L577.28017539,369.614146029 M486.046687974,307.434979082 L521.787825,301.936341885 L542.865930206,290.022630247 L564.860475824,279.941797323 L582.272824659,289.10619089 L602.434490508,298.270584458 L618.930399986,288.189751534 L617.097521272,263.445887845 L622.487711844,247.802294997 L625.832879013,255.161661643 L644.087929962,256.069635452 L660.527034467,259.701530688 L657.755325069,268.781267604 L662.342982086,287.179684817 L648.293283206,281.110595983 L639.404697002,279.772529255 L625.832879013,304.526761957 L631.471873753,301.5161127 L643.132168181,316.999455425 L648.771164096,342.1359919 L645.043691742,342.996177737 L644.087929962,337.166031111 L633.09666831,336.640361074 L636.728563546,346.675860945 L632.14090653,356.806936759 L625.832879013,362.254779613 L614.841617361,365.838886878 L611.018569064,381.513381489 L604.80611749,373.246041265 L604.80611749,358.622884377 L592.667940997,365.838886878 L589.227198822,357.714910568 L581.867832406,349.399782372 L583.683780024,331.144730248 L567.340251462,324.741125614 L565.237576014,314.610049799 L555.202076143,321.204807495 L543.446204597,323.785363833 L526.911524148,312.74631421 L517.545058229,312.74631421 L506.64937252,327.465047041 L512.097215375,344.859913327 L519.647733676,354.990989141 L515.729110611,363.162753422 L504.833424902,354.083015332 L503.877663122,342.1359919 L494.511196027,346.675860945 L491.166029795,353.939651417 L503.208629171,365.169854101 L511.141453594,395.27635254 L516.589295274,397.044512186 L533.123976897,400.15073856 L534.079738678,413.531404663 L538.667395694,413.531404663 L547.938285671,411.715457045 L557.018023761,422.754506668 L550.040961119,430.448390059 L540.674495199,436.469689747 L532.26379106,433.74576832 L530.447843442,434.653742129 L531.308029279,441.105134735 L531.116876218,450.232660797 L543.446204597,446.55297759 L547.078099834,455.776079595 L547.078099834,464.043419819 L539.527580357,468.583288864 L530.447843442,461.176134477 L517.927362001,454.294648952 L519.647733676,443.829056162 L512.097215375,424.570454287 L502.061715504,417.306663814 L503.017477284,408.083561809 L503.877663122,400.819771337 L491.166029795,393.364828978 L486.387220892,413.531404663 L488.20316851,424.570454287 L476.959711862,435.813910711 L468.634340195,418.324144419 L475.049415692,396.329599857 L465.885022125,380.750129736 L453.054870074,354.173387333 L470.467218908,328.513084288 L486.046687974,307.434979082 Z" fill="#cee3f5" id="HK.6663" stroke="#6e6e6e" stroke-width="0.4"><desc><labelrank>20</labelrank><code_hasc>HK.</code_hasc><name>Sai Kung</name><admin>Hong Kong S.A.R.</admin><type_en /><region>The New Territories</region><woe_id>24703139</woe_id><longitude>114</longitude><woe_name>Sai Kung</woe_name><fips /><woe_label /><latitude>22</latitude><iso_a2>HK</iso_a2><postal /><type /><id>HK.6663</id></desc></path><path d="M453.054870074,354.173387333 L409.044484789,363.234349351 L390.736991701,367.003539384 L378.342996367,370.419093603 L372.408204566,356.006266047 L367.826007782,341.343236338 L394.402749128,306.518539725 L391.612449443,281.215767759 L404.483583109,280.858236679 L432.102418791,272.950547885 L439.74604083,277.956581637 L437.643364208,287.179684817 L443.377936067,291.719552687 L436.878755489,303.714365266 L444.238121904,301.755052558 L453.413435937,284.503551361 L466.125068089,273.082196791 L470.808302224,260.609504497 L477.403058745,260.418351436 L486.387220732,266.057347439 L486.96312733,287.273312177 L486.046687974,307.434979082 L470.467218908,328.513084288 L453.054870074,354.173387333 Z" fill="#cee3f5" id="HK.6664" stroke="#6e6e6e" stroke-width="0.4"><desc><labelrank>20</labelrank><code_hasc>HK.</code_hasc><name>Sha Tin</name><admin>Hong Kong S.A.R.</admin><type_en /><region>The New Territories</region><woe_id>24703138</woe_id><longitude>114</longitude><woe_name>Sha Tin</woe_name><fips /><woe_label /><latitude>22</latitude><iso_a2>HK</iso_a2><postal /><type /><id>HK.6664</id></desc></path><path d="M354.688128533,399.475018511 L351.62479589,403.54369275 L343.500819422,401.727745146 L342.640633585,400.819771337 L348.853086333,396.184326349 L354.688128533,399.475018511 M314.158929703,388.920535876 L295.61714975,393.460404922 L293.036592238,373.246041265 L283.956854148,361.299017833 L283.956854148,354.083015332 L291.22064462,350.307756181 L301.160568548,354.083015332 L311.482796248,356.806936759 L315.114691484,364.070727231 L318.74658672,372.338067456 L314.158929703,388.920535876 M378.342996368,370.419093603 L365.24481879,374.028706608 L362.141925092,382.01327204 L353.345167407,377.30802942 L337.097214787,369.996450976 L336.141453007,375.969962692 L324.194429574,357.714910568 L323.154807975,351.871520956 L343.99858345,348.674751193 L353.585949191,344.727012669 L348.580780233,329.429523644 L357.745173801,325.763766217 L367.826007782,341.343236338 L372.408204566,356.006266047 L378.342996368,370.419093603 Z" fill="#cee3f5" id="HK.6665" stroke="#6e6e6e" stroke-width="0.4"><desc><labelrank>20</labelrank><code_hasc>HK.</code_hasc><name>Kwai Tsing</name><admin>Hong Kong S.A.R.</admin><type_en /><region>The New Territories</region><woe_id>24703132</woe_id><longitude>114</longitude><woe_name>Kwai Tsing</woe_name><fips /><woe_label /><latitude>22</latitude><iso_a2>HK</iso_a2><postal /><type /><id>HK.6665</id></desc></path><path d="M226.814937215,400.609801588 L185.914728421,400.995993801 L190.483343312,393.460404922 L211.414527717,377.881486253 L215.141998897,386.101038506 L242.476789111,365.838886878 L248.975969689,369.996450976 L255.475150267,376.925724473 L251.84325503,386.101038506 L250.027307412,396.184326349 L245.248498509,392.409067198 L236.073184476,390.736483495 L227.949208166,390.736483495 L226.814937215,400.609801588 M263.599126576,373.246041265 L257.291097885,373.246041265 L255.475150267,364.070727231 L259.107045503,358.622884377 L268.282359536,362.254779613 L264.6504643,365.838886878 L263.599126576,373.246041265 M367.826007782,341.343236338 L357.745173801,325.763766217 L348.580780233,329.429523644 L353.585949191,344.727012669 L343.99858345,348.674751193 L323.154807975,351.871520956 L321.422720176,342.1359919 L314.158929703,337.548334883 L305.557072503,345.57673525 L283.956854148,342.1359919 L283.001092367,345.767887136 L273.73020239,345.767887136 L270.002731211,350.307756181 L259.107045503,347.583834754 L250.027307412,350.307756181 L237.889132094,354.990989141 L215.141999064,360.438832017 L226.694341559,345.008993766 L216.613508634,334.928160841 L233.109417056,323.014448147 L276.182068937,308.351418439 L325.669795258,294.604827031 L352.246537661,288.189751534 L371.491765209,281.774676036 L391.612449443,281.215767759 L394.402749128,306.518539725 L367.826007782,341.343236338 Z" fill="#cee3f5" id="HK.6666" stroke="#6e6e6e" stroke-width="0.4"><desc><labelrank>20</labelrank><code_hasc>HK.</code_hasc><name>Tsuen Wan</name><admin>Hong Kong S.A.R.</admin><type_en /><region>The New Territories</region><woe_id>24703140</woe_id><longitude>114</longitude><woe_name>Tsuen Wan</woe_name><fips /><woe_label /><latitude>22</latitude><iso_a2>HK</iso_a2><postal /><type /><id>HK.6666</id></desc></path><path d="M54.7651563713,326.557073232 L49.9863462938,337.548334883 L45.4942663947,321.061442406 L54.7651563713,326.557073232 M233.109417056,323.014448147 L216.613508634,334.928160841 L226.694341559,345.008993766 L215.141999064,360.438832017 L208.642818318,356.806936759 L208.642818318,350.307756181 L189.432004414,350.307756181 L181.499181165,344.334244465 L170.699072574,341.180230119 L163.722009932,326.557073232 L159.229930033,325.649099423 L156.553796577,317.333971227 L149.194430162,324.836702731 L161.237029537,334.967778545 L138.107591392,337.548334883 L126.256145078,346.675860945 L109.625887512,338.456308692 L104.082468714,338.456308692 L90.5106507246,330.188968468 L95.0983077413,316.425997418 L86.018569651,303.714365266 L70.0573460358,291.862917777 L84.6805029233,280.298199291 L109.625887512,278.864555446 L121.764064087,270.692791958 L145.131235638,282.691115393 L177.206614181,297.354145101 L232.192977699,297.354145101 L233.109417056,323.014448147 Z" fill="#cee3f5" id="HK.6667" stroke="#6e6e6e" stroke-width="0.4"><desc><labelrank>20</labelrank><code_hasc>HK.</code_hasc><name>Tuen Mun</name><admin>Hong Kong S.A.R.</admin><type_en /><region>The New Territories</region><woe_id>24703141</woe_id><longitude>113</longitude><woe_name>Tuen Mun</woe_name><fips /><woe_label /><latitude>22</latitude><iso_a2>HK</iso_a2><postal /><type /><id>HK.6667</id></desc></path><path d="M311.00676555,219.456797664 L344.915022806,215.791040237 L354.995855731,222.206115734 L338.499947309,241.451343282 L352.246537661,288.189751534 L325.669795258,294.604827031 L276.182068936,308.351418439 L233.109417056,323.014448147 L232.192977699,297.354145101 L177.206614181,297.354145101 L145.131235638,282.691115393 L121.764064087,270.692791958 L137.151829612,244.027034902 L164.677771712,233.035774425 L189.432004414,198.150464734 L196.79137083,198.150464734 L205.966684863,201.017751251 L204.819771196,208.138176634 L204.150737245,216.548881948 L208.642818318,213.82496052 L222.501365312,210.240853256 L226.133260548,210.240853256 L227.949208166,205.557620296 L226.993446385,199.201803633 L226.993446385,189.978701628 L240.660841492,183.527309021 L259.107045503,178.987439976 L263.599126576,174.399782959 L268.282359536,166.084654763 L277.362097626,163.360733336 L283.001092367,161.544785718 L291.220644445,157.769525491 L298.176613499,161.721116075 L304.591690052,191.047176548 L311.00676555,219.456797664 Z" fill="#cee3f5" id="HK.6668" stroke="#6e6e6e" stroke-width="0.4"><desc><labelrank>20</labelrank><code_hasc>HK.</code_hasc><name>Yuen Long</name><admin>Hong Kong S.A.R.</admin><type_en /><region>The New Territories</region><woe_id>24703143</woe_id><longitude>114</longitude><woe_name>Yuen Long</woe_name><fips /><woe_label /><latitude>22</latitude><iso_a2>HK</iso_a2><postal /><type /><id>HK.6668</id></desc></path><path d="M563.421628396,163.360733336 L557.973785542,169.668760853 L543.446204597,177.171492358 L535.895686296,169.668760853 L541.630256979,166.084654763 L547.078099834,167.948390353 L553.386128525,154.137631331 L563.421628396,163.360733336 M700.0,133.15865778 L687.288367848,133.15865778 L690.92026191,123.983343747 L693.596395365,127.615238983 L700.0,133.15865778 M530.447843442,118.487712921 L540.674495199,125.751503393 L553.386128525,121.211634348 L562.561442559,123.935555775 L547.938285671,128.523212792 L541.630256979,128.523212792 L537.711633914,128.523212792 L544.306390435,143.289733594 L530.447843442,136.790553016 L526.911524148,129.431186601 L530.447843442,118.487712921 M581.867832292,170.672311618 L560.27827904,186.464979764 L540.116612135,195.629373331 L522.704264357,191.963615904 L495.211082597,194.712933975 L469.550779552,195.629373331 L458.55350727,185.548540407 L442.974037149,184.63210105 L425.561688315,192.880055261 L405.400022465,202.960888186 L398.984946968,200.211570115 L385.238355561,202.960888186 L383.405476847,212.125282809 L354.995855731,222.206115734 L344.915022806,215.791040237 L311.00676555,219.456797664 L304.591690052,191.047176548 L298.176613499,161.721116075 L291.220644445,157.769525491 L287.779902445,150.219007091 L298.463895308,144.319096368 L318.370502783,144.319096368 L324.925118112,150.873711697 L328.566570943,152.33029236 L342.404090759,139.949352032 L353.328449251,138.492771369 L365.709389579,139.949352032 L371.778478412,123.80557813 L381.246255067,113.609511144 L394.477814243,109.604860334 L406.008133374,118.707544637 L425.793360107,118.707544637 L450.259421592,119.969143564 L460.963954239,119.156745698 L466.698526097,118.726652779 L457.905517011,129.431186601 L451.979793267,136.025943122 L443.377936067,144.197707403 L437.643364208,144.197707403 L436.878755489,156.861551584 L447.009831303,154.137631331 L447.87001714,149.645550258 L461.63298819,146.013655022 L466.220645207,141.330422061 L475.300382123,125.751503393 L479.88803914,124.843529584 L483.519934376,128.523212792 L490.019116128,124.843529584 L493.65101019,128.523212792 L488.48989634,138.367559602 L495.466957808,136.790553016 L503.017477284,143.289733594 L502.444020451,151.270344815 L508.178591134,154.663300193 L517.545058229,149.645550258 L519.647733676,154.137631331 L519.647733676,161.544785718 L517.162753282,171.006827581 L525.955762368,171.580285589 L530.734571271,178.605135029 L541.630256979,183.527309021 L574.604041934,174.399782959 L581.867832292,170.672311618 Z" fill="#cee3f5" id="HK.6669" stroke="#6e6e6e" stroke-width="0.4"><desc><labelrank>20</labelrank><code_hasc>HK.</code_hasc><name>North</name><admin>Hong Kong S.A.R.</admin><type_en /><region>The New Territories</region><woe_id>24703142</woe_id><longitude>114</longitude><woe_name>North</woe_name><fips /><woe_label /><latitude>22</latitude><iso_a2>HK</iso_a2><postal /><type /><id>HK.6669</id></desc></path><path d="M622.487711844,247.802294997 L617.097521272,263.445887845 L618.930399986,288.189751534 L602.434490508,298.270584458 L582.272824659,289.10619089 L564.860475824,279.941797323 L542.865930206,290.022630247 L521.787825,301.936341885 L486.046687974,307.434979082 L486.96312733,287.273312177 L486.387220732,266.057347439 L504.833424902,266.057347351 L507.41398124,272.174222982 L504.833424902,283.404424491 L511.141453594,290.811578878 L515.729110611,278.864555446 L530.447843442,271.600766148 L515.729110611,250.478428683 L530.447843442,239.534955003 L545.262152215,235.759694677 L544.306390435,225.771983953 L571.258875702,208.138176634 L572.788094316,213.82496052 L579.478427955,215.115238102 L572.788094316,226.679957762 L585.308574581,229.642819047 L588.08028398,247.706719284 L581.867832406,255.161661643 L587.31567526,265.053796424 L593.623702778,257.88558307 L599.262698693,275.232661385 L604.80611749,274.324687575 L603.945931653,254.014746801 L613.694702519,230.311852998 L623.061169614,237.575642295 L622.487711844,247.802294997 M620.193883097,214.732934329 L612.834516682,224.864010143 L605.666303327,207.421355886 L611.878754902,200.109777442 L617.517749642,201.017751251 L620.193883097,214.732934329 M391.612449443,281.215767759 L371.491765209,281.774676036 L352.246537661,288.189751534 L338.499947309,241.451343282 L354.995855731,222.206115734 L383.405476847,212.125282809 L385.238355561,202.960888186 L398.984946968,200.211570115 L405.400022465,202.960888186 L425.561688315,192.880055261 L442.974037149,184.63210105 L458.55350727,185.548540407 L469.550779552,195.629373331 L495.211082597,194.712933975 L522.704264357,191.963615904 L540.116612135,195.629373331 L560.27827904,186.464979764 L581.867832292,170.672311618 L584.639541805,177.171492358 L562.561442559,193.658384835 L549.754233289,204.649646487 L535.895686296,210.240853256 L520.412343571,216.548881948 L506.64937252,225.771983953 L501.201529666,233.943748234 L489.063353173,241.350902621 L479.88803914,241.350902621 L462.588749971,220.180777184 L446.054069522,223.048062525 L439.74604083,219.272803375 L436.878755489,224.864010143 L438.79027905,234.851720868 L444.238121904,237.575642295 L446.054069522,245.84298252 L437.643364208,244.027034902 L436.878755489,238.626981194 L428.563627293,233.943748234 L414.896232186,235.759694677 L410.308575169,241.350902621 L387.752595032,245.699618605 L398.361551737,251.386402492 L411.264336949,259.701530688 L426.174221667,269.067996608 L432.102418791,272.950547885 L404.483583109,280.858236679 L391.612449443,281.215767759 Z" fill="#cee3f5" id="HK.6670" stroke="#6e6e6e" stroke-width="0.4"><desc><labelrank>20</labelrank><code_hasc>HK.</code_hasc><name>Tai Po</name><admin>Hong Kong S.A.R.</admin><type_en /><region>The New Territories</region><woe_id>24703144</woe_id><longitude>114</longitude><woe_name>Tai Po</woe_name><fips /><woe_label /><latitude>22</latitude><iso_a2>HK</iso_a2><postal /><type /><id>HK.6670</id></desc></path><path d="M77.5122883943,585.855271795 L70.2484990965,585.855271795 L73.1157844382,580.455216913 L86.018569651,576.775533705 L86.018569651,585.855271795 L77.5122883943,585.855271795 M501.201529666,581.267614778 L491.835063746,590.395139666 L485.431459112,581.267614778 L491.835063746,570.324141098 L503.877663122,562.056800874 L507.509558358,570.324141098 L507.509558358,578.639269295 L501.201529666,581.267614778 M86.018569651,562.056800874 L86.018569651,564.780722301 L77.5122883943,562.056800874 L77.5122883943,552.881486841 L86.018569651,562.056800874 M483.519934376,563.872748492 L476.256145078,565.736484082 L476.256145078,555.605408268 L476.256145078,554.697434459 L482.755325656,554.697434459 L489.063353173,552.881486841 L491.835063746,558.329329695 L486.387220892,563.872748492 L483.519934376,563.872748492 M180.161114438,546.573458149 L178.249590876,552.881486841 L172.801748022,551.065539222 L164.677771712,544.757510531 L171.941562185,538.258329953 L176.529219201,538.258329953 L180.161114438,546.573458149 M217.053523632,529.083015919 L222.501365312,530.898963537 L231.581103402,530.898963537 L227.949208166,541.890225189 L222.501365312,538.258329953 L209.598580099,546.573458149 L208.642818318,539.166303762 L217.053523632,533.718460908 L217.053523632,529.083015919 M328.973239652,511.353632657 L338.722010519,521.245768614 L347.037138715,518.091754268 L347.037138715,525.35554474 L338.722010519,530.898963537 L353.345167407,529.943201757 L366.821409453,529.943201757 L372.651557254,532.810487099 L359.07973809,541.603496185 L354.39650513,547.481431958 L361.755871546,562.056800874 L352.389405626,561.961224931 L321.23156829,563.968324435 L325.054615412,553.789460649 L325.054615412,518.091754268 L313.489896927,518.282906154 L315.974877322,510.732387852 L316.357182269,495.010105269 L324.098853631,497.877390611 L328.973239652,511.353632657 M241.52102733,488.654288606 L236.073184476,488.654288606 L227.949208166,478.618788735 L215.141998897,472.2151841 L218.86947125,471.307210291 L240.660841492,471.307210291 L241.52102733,488.654288606 M247.255598014,470.399236482 L241.52102733,470.399236482 L244.292736729,464.043419819 L250.027307412,464.043419819 L251.84325503,464.951393628 L247.255598014,470.399236482 M277.362097627,442.921082353 L272.870016553,442.921082353 L272.870016553,436.469689747 L275.546150008,436.469689747 L278.41343535,438.285637365 L277.362097627,442.921082353 M238.844893874,430.066085112 L236.073184476,436.469689747 L241.52102733,436.469689747 L241.52102733,441.105134735 L231.581103402,443.829056162 L231.581103402,432.837794511 L232.44128924,432.837794511 L238.844893874,430.066085112 M226.814937215,400.609801588 L225.846532719,409.03932359 L205.966684863,406.267614191 L205.966684863,421.846532859 L217.053523632,417.354451786 L211.701256721,432.455489564 L213.230475335,461.176134477 L195.931186166,461.176134477 L185.608957292,457.448663298 L199.563080228,475.847079337 L182.168215116,488.654288606 L208.642818318,505.236757027 L191.247952032,518.091754268 L169.838886737,527.362644244 L168.309666948,519.047516049 L168.309666948,493.289733595 L154.737848959,493.289733595 L143.555434247,493.289733595 L127.211906859,493.289733595 L106.94975523,508.868652263 L98.8257789207,508.868652263 L95.0983077413,514.459859032 L106.94975523,517.183780459 L106.94975523,524.399782959 L96.054069522,531.137903395 L80.953031744,532.332606208 L66.6166038603,519.047516049 L64.8006562424,510.732387852 L54.7651563713,513.551885223 L42.7225569959,521.675861532 L25.6144185393,535.391044611 L10.7045338219,540.456582518 L2.19825256508,531.281268485 L0.669033951068,515.941289674 L5.68434188608e-14,503.420809409 L2.19825256508,496.873840859 L13.954124111,496.873840859 L13.954124111,485.213545256 L22.8427091406,483.015292691 L22.8427091406,475.655926276 L15.5789186682,470.399236482 L15.5789186682,470.351448511 L16.1523766762,469.969143564 L26.4746043768,462.514201205 L34.7897325727,456.015020627 L35.554342467,453.960131977 L46.3544510576,452.144184359 L54.7651563713,443.829056162 L64.8006562424,428.154561551 L86.8787554884,428.154561551 L98.8257789207,429.158111303 L106.94975523,437.377663556 L118.992354606,432.837794511 L146.327143645,418.214637623 L163.722009932,421.846532859 L171.941562185,408.991535618 L182.168215116,407.175588 L185.914728421,400.995993801 L226.814937215,400.609801588 M123.580011623,393.460404922 L119.948116386,404.451666573 L116.029492146,408.083561809 L113.257782748,419.122611432 L110.581649292,428.154561551 L108.765702848,428.154561551 L108.765702848,418.214637623 L101.406335259,406.267614191 L101.406335259,404.451666573 L101.406335259,403.543692764 L108.765702848,400.819771337 L112.39759691,393.460404922 L116.029492146,397.952485995 L123.580011623,393.460404922 Z" fill="#cee3f5" id="HK.6671" stroke="#6e6e6e" stroke-width="0.4"><desc><labelrank>20</labelrank><code_hasc>HK.</code_hasc><name>Islands</name><admin>Hong Kong S.A.R.</admin><type_en /><region>The New Territories</region><woe_id>24703127</woe_id><longitude>113</longitude><woe_name>Islands</woe_name><fips /><woe_label /><latitude>22</latitude><iso_a2>HK</iso_a2><postal /><type /><id>HK.6671</id></desc></path></svg>