<?xml version='1.0' encoding='utf-8'?>
<svg height="700" width="700" xmlns="http://www.w3.org/2000/svg"><path d="M339.301310044,409.6069869 L336.244541485,435.589519651 L359.170305677,440.174672489 L343.886462882,455.458515284 L334.716157205,472.270742358 L334.716157205,472.270742358 L345.414847162,479.912663755 L336.244541485,493.668122271 L360.698689956,513.537117904 L348.471615721,536.462882096 L354.585152838,554.80349345 L342.358078603,563.973799127 L305.676855895,563.973799127 L296.506550218,551.746724891 L311.790393013,544.104803493 L316.375545852,530.349344978 L313.318777293,515.065502183 L285.807860262,512.008733624 L272.052401747,499.781659389 L268.995633188,487.554585153 L250.655021834,476.855895197 L253.711790393,460.043668122 L268.995633188,443.231441048 L285.807860262,441.703056769 L293.449781659,426.419213974 L287.336244541,392.794759825 L316.375545852,395.851528384 L339.301310044,409.6069869 Z" fill="#cee3f5" id="CN.jiangsu.2131524" stroke="#6e6e6e" stroke-width="0.4"><desc><name>Nanjing City</name><admin_leve>5</admin_leve><wikipedia>zh:南京市</wikipedia><localname>南京市</localname><boundary>administrative</boundary><id>CN.jiangsu.2131524</id></desc></path><path d="M255.240174672,163.537117904 L285.807860262,162.008733624 L287.336244541,171.179039301 L278.165938865,178.820960699 L275.109170306,195.633187773 L264.410480349,203.27510917 L241.484716157,201.746724891 L224.672489083,197.161572052 L206.331877729,198.689956332 L229.257641921,236.899563319 L226.200873362,247.598253275 L198.689956332,250.655021834 L172.707423581,246.069868996 L175.76419214,230.786026201 L151.310043668,218.558951965 L145.19650655,209.388646288 L123.799126638,206.331877729 L103.930131004,207.860262009 L84.0611353712,195.633187773 L70.3056768559,166.593886463 L58.0786026201,168.122270742 L45.8515283843,157.423580786 L29.03930131,152.838427948 L9.17030567686,134.497816594 L0.0,134.497816594 L12.2270742358,103.930131004 L33.6244541485,99.3449781659 L61.135371179,100.873362445 L76.4192139738,106.986899563 L87.1179039301,119.213973799 L106.986899563,158.951965066 L123.799126638,142.139737991 L140.611353712,155.895196507 L151.310043668,158.951965066 L180.349344978,137.554585153 L217.030567686,134.497816594 L227.729257642,148.253275109 L227.729257642,168.122270742 L255.240174672,163.537117904 Z" fill="#cee3f5" id="CN.jiangsu.3218572" stroke="#6e6e6e" stroke-width="0.4"><desc><name>Xuzhou City</name><admin_leve>5</admin_leve><wikipedia>en:Xuzhou</wikipedia><localname>徐州市 / Xuzhou</localname><boundary>administrative</boundary><id>CN.jiangsu.3218572</id></desc></path><path d="M226.200873362,247.598253275 L229.257641921,236.899563319 L206.331877729,198.689956332 L224.672489083,197.161572052 L241.484716157,201.746724891 L264.410480349,203.27510917 L275.109170306,195.633187773 L278.165938865,178.820960699 L287.336244541,171.179039301 L307.205240175,171.179039301 L339.301310044,165.065502183 L343.886462882,191.048034934 L354.585152838,204.80349345 L331.659388646,230.786026201 L314.847161572,230.786026201 L305.676855895,239.956331878 L307.205240175,270.524017467 L294.978165939,302.620087336 L253.711790393,319.43231441 L233.84279476,319.43231441 L210.917030568,324.017467249 L198.689956332,308.733624454 L209.388646288,294.978165939 L226.200873362,247.598253275 Z" fill="#cee3f5" id="CN.jiangsu.3293941" stroke="#6e6e6e" stroke-width="0.4"><desc><name>Suqian City</name><admin_leve>5</admin_leve><wikipedia>en:Suqian</wikipedia><localname>宿迁市 / Suqian</localname><boundary>administrative</boundary><id>CN.jiangsu.3293941</id></desc></path><path d="M255.240174672,163.537117904 L258.296943231,142.139737991 L272.052401747,128.384279476 L298.034934498,129.912663755 L298.034934498,117.68558952 L320.96069869,85.5895196507 L345.414847162,85.5895196507 L360.698689956,76.4192139738 L356.113537118,113.100436681 L429.475982533,158.951965066 L423.362445415,177.292576419 L394.323144105,195.633187773 L401.965065502,213.973799127 L363.755458515,212.445414847 L354.585152838,204.80349345 L343.886462882,191.048034934 L339.301310044,165.065502183 L307.205240175,171.179039301 L287.336244541,171.179039301 L285.807860262,162.008733624 L255.240174672,163.537117904 Z" fill="#cee3f5" id="CN.jiangsu.3320347" stroke="#6e6e6e" stroke-width="0.4"><desc><name>Lianyungang City</name><admin_leve>5</admin_leve><wikipedia>en:Lianyungang</wikipedia><localname>连云港市</localname><boundary>administrative</boundary><id>CN.jiangsu.3320347</id></desc></path><path d="M360.698689956,513.537117904 L371.397379913,508.951965066 L372.925764192,486.026200873 L388.209606987,481.441048035 L423.362445415,496.72489083 L432.532751092,486.026200873 L431.004366812,460.043668122 L452.401746725,464.628820961 L460.043668122,470.742358079 L456.986899563,487.554585153 L476.855895197,489.082969432 L481.441048035,498.253275109 L466.15720524,516.593886463 L472.270742358,528.820960699 L437.11790393,527.292576419 L417.248908297,516.593886463 L408.07860262,522.707423581 L397.379912664,548.689956332 L397.379912664,573.144104803 L377.510917031,568.558951965 L354.585152838,554.80349345 L348.471615721,536.462882096 L360.698689956,513.537117904 Z" fill="#cee3f5" id="CN.jiangsu.3429666" stroke="#6e6e6e" stroke-width="0.4"><desc><name>Changzhou City</name><admin_leve>5</admin_leve><wikipedia>en:Changzhou</wikipedia><localname>常州市 / Changzhou</localname><boundary>administrative</boundary><id>CN.jiangsu.3429666</id></desc></path><path d="M334.716157205,472.270742358 L334.716157205,472.270742358 L343.886462882,455.458515284 L359.170305677,440.174672489 L380.56768559,438.64628821 L423.362445415,427.947598253 L435.589519651,429.475982533 L441.703056769,435.589519651 L452.401746725,464.628820961 L431.004366812,460.043668122 L432.532751092,486.026200873 L423.362445415,496.72489083 L388.209606987,481.441048035 L372.925764192,486.026200873 L371.397379913,508.951965066 L360.698689956,513.537117904 L336.244541485,493.668122271 L345.414847162,479.912663755 L334.716157205,472.270742358 Z" fill="#cee3f5" id="CN.jiangsu.3429680" stroke="#6e6e6e" stroke-width="0.4"><desc><name>Zhenjiang City</name><admin_leve>5</admin_leve><wikipedia>en:Zhenjiang</wikipedia><localname>镇江市 / Zhenjiang</localname><boundary>administrative</boundary><id>CN.jiangsu.3429680</id></desc></path><path d="M233.84279476,319.43231441 L253.711790393,319.43231441 L294.978165939,302.620087336 L307.205240175,270.524017467 L305.676855895,239.956331878 L314.847161572,230.786026201 L331.659388646,230.786026201 L354.585152838,204.80349345 L363.755458515,212.445414847 L401.965065502,213.973799127 L411.135371179,229.257641921 L400.436681223,236.899563319 L389.737991266,264.410480349 L401.965065502,293.449781659 L360.698689956,298.034934498 L350.0,314.847161572 L369.868995633,325.545851528 L369.868995633,363.755458515 L354.585152838,363.755458515 L343.886462882,363.755458515 L333.187772926,346.943231441 L311.790393013,346.943231441 L299.563318777,374.454148472 L258.296943231,377.510917031 L236.899563319,362.227074236 L233.84279476,319.43231441 Z" fill="#cee3f5" id="CN.jiangsu.3429722" stroke="#6e6e6e" stroke-width="0.4"><desc><name>Huai'an City</name><admin_leve>5</admin_leve><wikipedia>en:Huai'an</wikipedia><localname>淮安市 / Huai'an</localname><boundary>administrative</boundary><id>CN.jiangsu.3429722</id></desc></path><path d="M401.965065502,213.973799127 L394.323144105,195.633187773 L423.362445415,177.292576419 L429.475982533,158.951965066 L458.515283843,163.537117904 L490.611353712,178.820960699 L496.72489083,201.746724891 L541.048034934,276.637554585 L570.087336245,342.358078603 L574.672489083,386.681222707 L541.048034934,392.794759825 L530.349344978,388.209606987 L512.008733624,388.209606987 L505.895196507,379.03930131 L484.497816594,383.624454148 L481.441048035,392.794759825 L470.742358079,388.209606987 L476.855895197,369.868995633 L495.19650655,342.358078603 L492.139737991,325.545851528 L466.15720524,319.43231441 L424.890829694,325.545851528 L421.834061135,316.375545852 L401.965065502,293.449781659 L389.737991266,264.410480349 L400.436681223,236.899563319 L411.135371179,229.257641921 L401.965065502,213.973799127 Z" fill="#cee3f5" id="CN.jiangsu.3473496" stroke="#6e6e6e" stroke-width="0.4"><desc><name>Yancheng City</name><admin_leve>5</admin_leve><wikipedia>en:Yancheng</wikipedia><localname>盐城市 / Yancheng</localname><boundary>administrative</boundary><id>CN.jiangsu.3473496</id></desc></path><path d="M339.301310044,409.6069869 L359.170305677,395.851528384 L354.585152838,363.755458515 L369.868995633,363.755458515 L369.868995633,325.545851528 L350.0,314.847161572 L360.698689956,298.034934498 L401.965065502,293.449781659 L421.834061135,316.375545852 L411.135371179,324.017467249 L417.248908297,348.471615721 L444.759825328,389.737991266 L435.589519651,397.379912664 L440.174672489,412.663755459 L435.589519651,429.475982533 L423.362445415,427.947598253 L380.56768559,438.64628821 L359.170305677,440.174672489 L336.244541485,435.589519651 L339.301310044,409.6069869 Z" fill="#cee3f5" id="CN.jiangsu.4430826" stroke="#6e6e6e" stroke-width="0.4"><desc><name>Yangzhou City</name><admin_leve>5</admin_leve><wikipedia>en:Yangzhou</wikipedia><localname>扬州市 / Yangzhou</localname><boundary>administrative</boundary><id>CN.jiangsu.4430826</id></desc></path><path d="M421.834061135,316.375545852 L424.890829694,325.545851528 L466.15720524,319.43231441 L492.139737991,325.545851528 L495.19650655,342.358078603 L476.855895197,369.868995633 L470.742358079,388.209606987 L481.441048035,392.794759825 L492.139737991,418.777292576 L499.781659389,420.305676856 L501.310043668,450.873362445 L521.179039301,455.458515284 L524.23580786,466.15720524 L502.838427948,467.68558952 L489.082969432,475.327510917 L460.043668122,470.742358079 L452.401746725,464.628820961 L441.703056769,435.589519651 L435.589519651,429.475982533 L440.174672489,412.663755459 L435.589519651,397.379912664 L444.759825328,389.737991266 L417.248908297,348.471615721 L411.135371179,324.017467249 L421.834061135,316.375545852 Z" fill="#cee3f5" id="CN.jiangsu.4430874" stroke="#6e6e6e" stroke-width="0.4"><desc><name>Taizhou City</name><admin_leve>5</admin_leve><wikipedia>en:Taizhou, Jiangsu</wikipedia><localname>泰州市 / Taizhou</localname><boundary>administrative</boundary><id>CN.jiangsu.4430874</id></desc></path><path d="M574.672489083,386.681222707 L588.427947598,398.908296943 L629.694323144,414.192139738 L640.3930131,438.64628821 L641.92139738,450.873362445 L684.716157205,463.100436681 L700.0,499.781659389 L684.716157205,513.537117904 L635.807860262,496.72489083 L617.467248908,482.969432314 L594.541484716,496.72489083 L570.087336245,492.139737991 L553.27510917,467.68558952 L524.23580786,466.15720524 L521.179039301,455.458515284 L501.310043668,450.873362445 L499.781659389,420.305676856 L492.139737991,418.777292576 L481.441048035,392.794759825 L484.497816594,383.624454148 L505.895196507,379.03930131 L512.008733624,388.209606987 L530.349344978,388.209606987 L541.048034934,392.794759825 L574.672489083,386.681222707 Z" fill="#cee3f5" id="CN.jiangsu.4430899" stroke="#6e6e6e" stroke-width="0.4"><desc><name>Nantong City</name><admin_leve>5</admin_leve><wikipedia>en:Nantong</wikipedia><localname>南通市 / Nantong</localname><boundary>administrative</boundary><id>CN.jiangsu.4430899</id></desc></path><path d="M446.288209607,571.615720524 L456.986899563,560.917030568 L470.742358079,559.388646288 L484.497816594,547.161572052 L524.23580786,533.406113537 L531.877729258,527.292576419 L530.349344978,495.19650655 L504.366812227,478.384279476 L502.838427948,467.68558952 L524.23580786,466.15720524 L553.27510917,467.68558952 L570.087336245,492.139737991 L594.541484716,496.72489083 L629.694323144,525.76419214 L600.655021834,536.462882096 L591.484716157,573.144104803 L567.030567686,576.200873362 L570.087336245,589.956331878 L545.633187773,596.069868996 L545.633187773,606.768558952 L530.349344978,611.35371179 L519.650655022,623.580786026 L502.838427948,599.126637555 L476.855895197,600.655021834 L456.986899563,589.956331878 L446.288209607,571.615720524 Z" fill="#cee3f5" id="CN.jiangsu.4430941" stroke="#6e6e6e" stroke-width="0.4"><desc><name>Suzhou City</name><admin_leve>5</admin_leve><wikipedia>en:Suzhou</wikipedia><localname>苏州市 / Suzhou</localname><boundary>administrative</boundary><id>CN.jiangsu.4430941</id></desc></path><path d="M460.043668122,470.742358079 L489.082969432,475.327510917 L502.838427948,467.68558952 L504.366812227,478.384279476 L530.349344978,495.19650655 L531.877729258,527.292576419 L524.23580786,533.406113537 L484.497816594,547.161572052 L470.742358079,559.388646288 L456.986899563,560.917030568 L446.288209607,571.615720524 L397.379912664,573.144104803 L397.379912664,548.689956332 L408.07860262,522.707423581 L417.248908297,516.593886463 L437.11790393,527.292576419 L472.270742358,528.820960699 L466.15720524,516.593886463 L481.441048035,498.253275109 L476.855895197,489.082969432 L456.986899563,487.554585153 L460.043668122,470.742358079 Z" fill="#cee3f5" id="CN.jiangsu.4430942" stroke="#6e6e6e" stroke-width="0.4"><desc><name>Wuxi City</name><admin_leve>5</admin_leve><wikipedia>en:Wuxi</wikipedia><localname>无锡市 / Wuxi</localname><boundary>administrative</boundary><id>CN.jiangsu.4430942</id></desc></path></svg>