<?xml version='1.0' encoding='utf-8'?>
<svg height="700" width="700" xmlns="http://www.w3.org/2000/svg"><path d="M352.010456947,541.920654772 L351.775368929,541.864315559 L345.956660952,540.469329508 L329.598864094,538.81003366 L328.325132435,537.837494105 L326.772595041,536.040810357 L323.110701973,528.742029716 L321.984733201,525.719339882 L319.880556867,523.149321031 L312.564548518,519.042920913 L305.558849944,516.918347916 L303.819150777,517.707822949 L301.443900967,519.443750647 L296.679978237,524.545605841 L293.00633857,529.301330544 L290.16032149,534.177554588 L286.791448754,538.727726229 L284.069197118,539.89138367 L277.244285918,537.7238262 L275.804406462,528.679952751 L274.152799214,526.468087164 L272.295851506,522.653145813 L271.650526129,521.061237989 L270.082535356,515.597904647 L268.876636759,505.574313447 L271.906767791,502.904992516 L273.350501335,501.293053641 L275.893761215,497.519760647 L276.779644189,495.60455282 L277.646213481,492.934917192 L282.014405562,472.473924399 L285.81543292,461.490243131 L288.060100196,456.95753939 L307.680100241,425.601501392 L311.086012572,423.673087704 L312.428363488,422.565153857 L314.170834577,420.002204872 L316.990837515,416.710100491 L317.233391432,415.521904246 L317.154312837,414.615848172 L311.524361547,409.196586922 L320.847093271,394.832384987 L323.476756736,394.750667408 L327.506891007,395.090459254 L328.547341917,395.040405299 L329.58482746,394.880979098 L330.6690832,394.424812667 L331.582702767,393.743460303 L332.326568086,392.86973792 L334.524254537,389.012893826 L332.905178537,385.927493453 L320.994333891,377.890142611 L343.207067736,349.98317392 L348.90000946,339.364092872 L350.335412462,335.85523071 L350.581535257,334.863502405 L354.384737151,329.909574838 L369.9085233,314.993720712 L373.95576672,313.00705287 L383.384067718,297.776084835 L398.251759196,265.714107929 L398.770401694,239.978547352 L399.263887545,236.95417516 L401.911535149,229.838485143 L409.964249427,228.910207963 L410.938294649,228.618520639 L411.797037567,228.122281766 L413.116966705,226.616227583 L420.070617971,213.973756814 L421.048512358,210.200907545 L421.918452326,199.239906727 L434.49259886,182.252961414 L444.898760005,170.767853168 L448.394082673,156.910620796 L449.057686442,155.466942856 L450.255068211,153.667305406 L453.204677638,150.400876442 L460.17638592,144.534080929 L462.970342607,141.567132731 L464.645578373,139.41247233 L473.647152524,119.301276978 L473.957814292,118.229454476 L472.360035666,113.06920633 L478.790998404,104.247956982 L479.247688076,103.21516561 L479.434994838,102.267637196 L479.430460301,100.428520023 L479.512529801,99.5938409786 L479.707513397,98.8869166328 L480.066255001,98.1966330102 L481.366823528,96.3375066337 L496.591640134,83.7798373145 L497.376704158,82.8345595477 L501.719725188,80.9189549152 L509.06039597,79.7581398526 L509.185273464,79.7383784978 L510.244244569,81.5801102274 L511.19576315,81.8443431008 L512.176295779,81.8886109821 L513.151771159,81.7797316527 L514.08378328,81.4532791756 L520.825135015,79.1710960743 L531.059741364,78.3581259094 L540.684056024,78.8001805512 L545.559115552,80.332127578 L545.561345394,80.3977533025 L548.048044263,87.3979916653 L551.712793593,92.7482747161 L556.558379793,96.5248122172 L562.590678102,98.902112363 L567.882390683,105.027342055 L570.477815946,106.613105713 L573.0206148,105.627052606 L578.743128606,109.447233447 L580.793988724,113.08821024 L580.66747866,117.790674317 L579.676275539,124.779159508 L578.83477548,127.732367691 L577.634699908,129.77810747 L576.586418164,132.015641243 L576.416824503,135.503920488 L577.47782168,138.861904455 L579.333534856,142.082762656 L587.290219187,152.471941241 L591.172068605,156.420969835 L593.715469605,157.42692665 L596.286252507,157.13948185 L598.592776599,157.605865699 L600.52424404,160.834196014 L599.991990467,166.361604478 L596.778818495,171.150964464 L594.319206931,176.71296664 L596.269604813,184.61712432 L598.772717195,190.629143736 L607.574137021,198.751595985 L609.599663049,202.812569091 L609.807137141,203.22848302 L600.266741057,214.516296834 L592.597404745,228.462482754 L577.308976584,242.471906247 L570.728291017,251.402884028 L568.893958048,257.455179734 L568.371819932,262.455224508 L566.575235516,266.436451763 L560.919131926,269.508121121 L556.083785522,269.91231439 L548.414539125,267.345070833 L544.360916023,267.130264595 L537.057795124,271.150737182 L525.820318191,286.422691945 L512.192739307,299.172894976 L506.87338261,306.176288545 L502.268409341,313.900186017 L495.208850049,329.430380714 L495.87767274,330.941696957 L498.268250428,334.915975816 L500.575972754,337.425839137 L511.234206207,345.184809981 L525.177522443,347.09732371 L531.39483279,350.649235295 L532.37340672,359.32105572 L528.2851504,365.060316138 L521.529619619,366.375090772 L508.10104971,363.633812161 L489.674887279,355.298933718 L483.506011577,354.311226851 L478.204293744,356.502731612 L473.401686942,360.6591588 L467.813382136,364.259042127 L460.444591788,364.661829025 L457.541716774,362.945012154 L452.878750784,357.428936981 L450.501464745,356.144332971 L438.071579695,364.293068138 L432.018010117,367.113038252 L425.498076849,369.026436079 L419.909105291,371.545801115 L416.539574661,376.231417888 L412.058056416,385.392845867 L400.660897361,395.718245193 L396.012036642,403.119897045 L393.995318724,408.004434917 L387.697102188,414.128044938 L385.173301395,417.975849594 L384.762749383,421.53330791 L386.005799204,429.180188917 L385.171220268,433.275031205 L383.535755632,434.963203545 L378.97741106,436.84375214 L377.591953467,438.327544235 L376.49443996,447.408685572 L381.260027044,450.195515046 L389.131472402,451.437589833 L397.533784221,455.825476137 L402.624185038,457.079209139 L409.232689798,460.137615691 L415.290378239,464.360217227 L418.541962421,469.047505543 L417.637368067,476.932032315 L412.368860743,483.510288636 L405.220462986,488.53331338 L398.570251923,491.822284477 L390.252344571,491.951139715 L381.977466965,494.889283348 L378.106158526,500.612416783 L383.148835429,509.071255758 L377.885356239,522.734341074 L367.146009969,532.325017044 L360.726437363,536.387496427 L352.010456947,541.920654772 Z" fill="#cee3f5" id="LB.BI" stroke="#6e6e6e" stroke-width="0.4"><desc><labelrank>9</labelrank><code_hasc>LB.BI</code_hasc><name>Beqaa</name><admin>Lebanon</admin><type_en>Province</type_en><region /><woe_id>2346013</woe_id><longitude>36</longitude><woe_name>Beqaa</woe_name><fips>LE11</fips><woe_label>Al Biqa', LB, Lebanon</woe_label><latitude>34</latitude><iso_a2>LB</iso_a2><postal>BI</postal><type>Muhafazah</type><id>LB.BI</id></desc></path><path d="M509.185273464,79.7383784978 L509.06039597,79.7581398526 L501.719725188,80.9189549152 L497.376704158,82.8345595477 L496.591640134,83.7798373145 L481.366823528,96.3375066337 L480.066255001,98.1966330102 L479.707513397,98.8869166328 L479.512529801,99.5938409786 L479.430460301,100.428520023 L479.434994838,102.267637196 L479.247688076,103.21516561 L478.790998404,104.247956982 L472.360035666,113.06920633 L473.957814292,118.229454476 L473.647152524,119.301276978 L464.645578373,139.41247233 L462.970342607,141.567132731 L460.17638592,144.534080929 L453.204677638,150.400876442 L450.255068211,153.667305406 L449.057686442,155.466942856 L448.394082673,156.910620796 L444.898760005,170.767853168 L434.49259886,182.252961414 L421.918452326,199.239906727 L421.048512358,210.200907545 L420.070617971,213.973756814 L413.116966705,226.616227583 L411.797037567,228.122281766 L410.938294649,228.618520639 L409.964249427,228.910207963 L401.911535149,229.838485143 L398.459194466,228.167196457 L396.297932006,228.931232895 L394.002809304,228.856305423 L391.589342482,228.467296232 L379.678205069,223.07882536 L377.661855209,221.298446953 L376.997041806,220.956475668 L375.17919305,220.374124858 L374.194477859,220.293040395 L373.273106542,220.516547877 L372.491583209,221.808547857 L371.678693451,223.911297267 L371.045585735,224.673670966 L370.240684922,225.156406901 L369.264317772,225.370429295 L368.337162188,225.396966424 L365.697783311,224.717240745 L363.541558726,223.749973449 L360.981805901,223.943166531 L358.945387079,223.344326878 L351.822710312,219.135261597 L349.062860279,218.020030893 L344.551183454,214.7430506 L342.62771637,214.249630191 L339.987449485,214.137212267 L335.311575267,214.726733219 L330.924489852,215.898594995 L328.443927729,216.962767354 L326.867897578,217.192133922 L318.172686172,217.134510524 L313.133018286,218.409429059 L311.880177373,218.487114561 L305.476339317,217.740614589 L281.813579695,206.551506413 L272.724812868,205.891638919 L272.302432959,205.727546802 L272.291904004,205.723456336 L273.212013001,203.797981068 L273.065866186,190.48214968 L274.379426361,177.214332129 L278.373305012,165.892155314 L286.442033362,158.493818211 L292.57426062,163.293746031 L298.081156392,154.306378587 L303.032589563,140.73174977 L307.508300053,131.890792557 L326.656694488,120.69824807 L332.534483187,112.262537799 L325.887283217,102.21034167 L325.814223637,99.5755677357 L332.36627915,101.116691591 L359.973052383,93.0792345046 L378.191097378,74.7118518289 L383.715188165,70.4473866947 L387.195975302,66.5871034527 L388.98623152,60.5701541139 L388.682170811,40.6875343835 L387.448893905,31.7779967879 L385.06316234,24.3504895229 L381.163630327,19.6565610253 L381.163516789,19.6560422873 L385.614994354,19.3598438443 L388.713070021,20.1216939383 L391.315601154,21.2483118015 L397.574019603,26.0308331789 L405.233718315,28.0117421491 L413.231729333,27.988553951 L422.448604627,26.3936910061 L431.181844998,26.7526512994 L446.512832744,27.3775577354 L448.016539395,26.8487278776 L452.131370146,24.1795546722 L454.248189719,23.5873288232 L456.044162114,24.296939551 L460.264188387,27.2505747524 L462.421429494,27.9265343697 L483.502956316,26.0678153994 L486.923468297,24.3802833741 L490.029264987,20.8194574927 L491.203939532,16.8833955514 L491.077965302,8.5883031108 L492.128820028,5.3131110181 L499.226520339,0.0 L504.543106488,3.24084478827 L513.281054963,17.929967295 L520.543110225,24.0166826481 L528.92038337,26.5825516503 L537.594551217,26.1142350315 L545.964281512,23.0917498822 L545.045177146,36.482687984 L542.615861606,38.5364920017 L538.786917801,35.6442878544 L533.563386414,34.3318786992 L528.498472487,37.7218544904 L527.945413004,42.8211723352 L528.58908018,49.0409478423 L527.219764895,55.7443697115 L520.557982749,61.3542908755 L511.135845812,66.8569706348 L505.475277564,73.2844901198 L509.185273464,79.7383784978 Z" fill="#cee3f5" id="LB.AS" stroke="#6e6e6e" stroke-width="0.4"><desc><labelrank>9</labelrank><code_hasc>LB.AS</code_hasc><name>North Lebanon</name><admin>Lebanon</admin><type_en>Province</type_en><region /><woe_id>2346015</woe_id><longitude>36</longitude><woe_name>North Lebanon</woe_name><fips>LE09</fips><woe_label>Ash Shamal, LB, Lebanon</woe_label><latitude>34</latitude><iso_a2>LB</iso_a2><postal>AS</postal><type>Muhafazah</type><id>LB.AS</id></desc></path><path d="M241.52518088,338.39323274 L241.518561006,340.317498443 L237.725944382,352.970730113 L233.849404153,353.416307791 L232.944924224,354.4887696 L231.679300663,356.467135922 L230.439892169,357.285172476 L225.737700188,357.575003649 L218.979036782,356.318246691 L218.979100929,356.311949848 L218.990792509,353.227886227 L217.721282861,348.262483577 L215.440678779,344.251729483 L214.179603807,340.802085788 L215.994158669,337.416172666 L219.753191046,336.050428646 L224.422738845,336.695027617 L228.513984199,338.352434806 L230.714302191,340.210885494 L233.126296028,340.151656701 L236.49611678,338.156263574 L241.52518088,338.39323274 Z" fill="#cee3f5" id="LB.BA" stroke="#6e6e6e" stroke-width="0.4"><desc><labelrank>9</labelrank><code_hasc>LB.BA</code_hasc><name>Beirut</name><admin>Lebanon</admin><type_en>Province</type_en><region /><woe_id>2346016</woe_id><longitude>35</longitude><woe_name>Beirut</woe_name><fips>LE04</fips><woe_label>Bayrut, LB, Lebanon</woe_label><latitude>33</latitude><iso_a2>LB</iso_a2><postal>BA</postal><type>Muhafazah</type><id>LB.BA</id></desc></path><path d="M401.911535149,229.838485143 L399.263887545,236.95417516 L398.770401694,239.978547352 L398.251759196,265.714107929 L383.384067718,297.776084835 L373.95576672,313.00705287 L369.9085233,314.993720712 L354.384737151,329.909574838 L350.581535257,334.863502405 L350.335412462,335.85523071 L348.90000946,339.364092872 L343.207067736,349.98317392 L320.994333891,377.890142611 L332.905178537,385.927493453 L334.524254537,389.012893826 L332.326568086,392.86973792 L331.582702767,393.743460303 L330.6690832,394.424812667 L329.58482746,394.880979098 L328.547341917,395.040405299 L327.506891007,395.090459254 L323.476756736,394.750667408 L320.847093271,394.832384987 L311.524361547,409.196586922 L317.154312837,414.615848172 L317.233391432,415.521904246 L316.990837515,416.710100491 L314.170834577,420.002204872 L312.428363488,422.565153857 L311.086012572,423.673087704 L307.680100241,425.601501392 L288.060100196,456.95753939 L285.81543292,461.490243131 L282.014405562,472.473924399 L277.646213481,492.934917192 L276.779644189,495.60455282 L275.893761215,497.519760647 L273.350501335,501.293053641 L271.906767791,502.904992516 L268.876636759,505.574313447 L270.680367263,493.538332098 L270.322580253,492.431469288 L269.953211042,490.865406788 L268.600573185,490.265022056 L266.790796543,489.697984859 L265.656595449,489.037297115 L263.969523183,487.515253553 L263.440078679,486.128209287 L263.519736752,484.922798048 L264.168886153,482.324625278 L264.408795249,478.752105154 L264.359045413,470.220011449 L263.233258089,466.955320213 L261.753605311,464.902908792 L260.154375758,464.647628379 L259.009613654,464.993556038 L257.92764775,465.655138344 L257.068763196,466.45333767 L256.255462757,466.878415132 L255.380983725,467.053377788 L254.503232016,467.097120358 L251.335143941,467.810369393 L249.635045738,467.918144713 L248.925476826,468.099804938 L248.275662176,468.476890491 L247.850010182,469.034402095 L247.536298074,469.676661169 L247.110079564,470.212296124 L246.458590949,470.523747611 L244.913649593,470.988476214 L244.486570748,471.491278272 L243.804069523,472.777075093 L243.321514074,473.259344927 L241.648522571,474.481905346 L240.940672358,474.739932495 L239.352207034,474.93198389 L237.00574337,475.580049852 L235.081416538,475.517557749 L234.205071802,475.626400061 L232.900107505,476.18320987 L232.24973401,476.549060545 L228.150209026,478.168881852 L225.638402719,478.809242767 L222.119795136,478.707846938 L221.1897612,478.872353302 L220.65141132,479.333752383 L220.281963877,479.966126871 L219.746462405,480.547772749 L218.370560299,480.449387775 L214.474778167,480.662546479 L205.742812946,479.261107917 L196.518146951,474.751629819 L186.058531506,474.545349903 L184.284939421,473.853255741 L184.269935447,473.847400331 L192.096858762,450.95649979 L189.812240717,448.11551295 L195.200990438,443.201349595 L198.939911678,425.732394989 L204.807160155,421.769891047 L204.456906707,416.69625683 L217.59288618,382.290288614 L218.799697099,373.888584118 L218.979036782,356.318246691 L225.737700188,357.575003649 L230.439892169,357.285172476 L231.679300663,356.467135922 L232.944924224,354.4887696 L233.849404153,353.416307791 L237.725944382,352.970730113 L241.518561006,340.317498443 L241.52518088,338.39323274 L241.529843875,338.39345207 L244.837444732,338.535165765 L249.93142921,336.581598587 L252.099597666,333.684375362 L255.246261356,325.180002141 L256.995760369,321.672685097 L257.066139511,319.913493843 L256.533447075,319.28947259 L254.318437739,319.13865139 L257.242017325,315.515508703 L261.231470317,305.283215231 L263.677477418,301.016799096 L265.979777097,300.13092797 L271.829090299,299.894637933 L273.247120687,298.117835266 L272.97554936,294.265245006 L271.289383724,292.309985132 L269.36566657,291.153357013 L268.206601438,289.597950055 L267.855287265,279.268837407 L273.137858118,260.575474511 L274.344446639,247.397205403 L273.098897706,242.467043787 L267.876097163,233.297508212 L266.605551832,227.351243436 L266.232650274,212.887109204 L267.268562883,209.758840283 L272.153129694,206.013841487 L272.291904004,205.723456336 L272.302432959,205.727546802 L272.724812868,205.891638919 L281.813579695,206.551506413 L305.476339317,217.740614589 L311.880177373,218.487114561 L313.133018286,218.409429059 L318.172686172,217.134510524 L326.867897578,217.192133922 L328.443927729,216.962767354 L330.924489852,215.898594995 L335.311575267,214.726733219 L339.987449485,214.137212267 L342.62771637,214.249630191 L344.551183454,214.7430506 L349.062860279,218.020030893 L351.822710312,219.135261597 L358.945387079,223.344326878 L360.981805901,223.943166531 L363.541558726,223.749973449 L365.697783311,224.717240745 L368.337162188,225.396966424 L369.264317772,225.370429295 L370.240684922,225.156406901 L371.045585735,224.673670966 L371.678693451,223.911297267 L372.491583209,221.808547857 L373.273106542,220.516547877 L374.194477859,220.293040395 L375.17919305,220.374124858 L376.997041806,220.956475668 L377.661855209,221.298446953 L379.678205069,223.07882536 L391.589342482,228.467296232 L394.002809304,228.856305423 L396.297932006,228.931232895 L398.459194466,228.167196457 L401.911535149,229.838485143 Z" fill="#cee3f5" id="LB.JL" stroke="#6e6e6e" stroke-width="0.4"><desc><labelrank>9</labelrank><code_hasc>LB.JL</code_hasc><name>Mount Lebanon</name><admin>Lebanon</admin><type_en>Province</type_en><region /><woe_id>2346017</woe_id><longitude>35</longitude><woe_name>Mount Lebanon</woe_name><fips>LE05</fips><woe_label>Jabal Lubnan, LB, Lebanon</woe_label><latitude>33</latitude><iso_a2>LB</iso_a2><postal>JL</postal><type>Muhafazah</type><id>LB.JL</id></desc></path><path d="M277.244285918,537.7238262 L284.069197118,539.89138367 L286.791448754,538.727726229 L290.16032149,534.177554588 L293.00633857,529.301330544 L296.679978237,524.545605841 L301.443900967,519.443750647 L303.819150777,517.707822949 L305.558849944,516.918347916 L312.564548518,519.042920913 L319.880556867,523.149321031 L321.984733201,525.719339882 L323.110701973,528.742029716 L326.772595041,536.040810357 L328.325132435,537.837494105 L329.598864094,538.81003366 L345.956660952,540.469329508 L351.775368929,541.864315559 L352.010456947,541.920654772 L343.626061885,547.239696921 L338.336126641,553.893148584 L331.634534088,568.242496697 L326.007336881,574.847980233 L321.856921503,577.63867915 L316.995121978,579.944308237 L311.966142069,581.49870614 L307.278858015,582.080695845 L301.045350608,583.960320129 L287.895099382,598.444165389 L280.950152237,604.298494722 L275.356304356,605.678813918 L270.283008966,606.929858032 L267.203301912,610.201123322 L268.499364742,617.946871316 L268.499910024,617.968736736 L268.500455317,617.990602579 L268.298987466,619.65885279 L268.287109903,619.75719662 L266.18542085,618.048262831 L266.110567977,617.995427093 L266.074093368,618.007273785 L261.472013794,614.795865632 L254.792514788,604.808945137 L252.673763219,602.34496628 L248.534743152,602.916719026 L246.245024437,606.987254254 L244.29171069,612.821552139 L241.19804788,618.661421579 L238.667318064,628.064368842 L238.324133099,648.943833953 L236.670503356,659.769105933 L233.787118334,666.948230828 L227.44538196,678.956433187 L225.831052021,685.437310077 L214.919720166,686.612514943 L198.043552312,694.320041563 L178.057773802,700.0 L173.329670412,699.438160506 L169.920161342,695.193643465 L167.342663225,690.230549017 L163.71424242,686.012269174 L159.66865581,682.885565855 L157.584183468,681.98802557 L157.586885004,681.968965046 L158.017597812,678.930073963 L158.188005973,674.092286147 L157.998532871,673.00274601 L157.783506461,670.743525409 L157.873336156,669.80099525 L158.326747679,667.811513822 L158.394544673,665.863271435 L158.484096324,664.909805777 L162.588813195,653.248431103 L163.547778765,651.685183587 L165.473596511,651.423935222 L168.18958235,651.954421879 L169.072176242,651.934843963 L169.781999436,651.590968424 L170.379786678,651.173008669 L171.99906779,649.540141878 L172.850890291,648.143062548 L173.439643881,646.500274396 L173.619470238,642.197907953 L173.926175488,641.1082635 L175.407055501,640.714210105 L178.715329444,640.618126526 L179.703286134,640.388096941 L180.795119055,639.871325849 L184.220538822,637.639287123 L184.702708651,637.004931758 L184.172295122,635.507556236 L183.384034857,634.803510715 L182.433603908,634.245301956 L181.488135834,633.90570929 L180.595358305,633.455531279 L179.917479674,632.748931387 L180.006323489,631.795369945 L180.644505806,630.741924767 L182.601325361,629.461809351 L184.020346785,628.795328117 L186.317399116,627.933861361 L187.996517393,626.583176291 L189.933181476,624.439015146 L199.476556937,611.783618312 L201.092268275,610.127439883 L202.201544741,608.034456641 L202.811267219,605.799885789 L202.596392061,598.91385154 L202.281399035,597.214809787 L202.502013733,594.847051075 L205.806148512,590.012078732 L200.323157116,591.189536406 L198.753544264,592.418105194 L197.327115726,592.691685165 L195.011393233,592.635667226 L185.590316401,591.101224602 L178.655846801,589.027133624 L172.961416889,583.248996503 L174.407739889,576.522707301 L173.466019852,573.831348537 L172.566137252,572.998425247 L171.615418041,572.35256144 L167.750963028,570.284322107 L166.811858718,570.152147847 L165.87909275,570.304183 L161.912297921,570.217317041 L160.917702701,570.064350028 L159.917800145,569.670853344 L158.970061388,569.144931428 L158.186257341,568.560683085 L157.846628392,568.14162158 L158.552452481,567.688553143 L161.906269579,567.461231085 L163.213299237,566.808799684 L164.231501317,565.550244286 L165.328532373,562.889903069 L165.735393755,561.382403383 L165.873427279,560.165264568 L165.805974438,559.608955129 L165.876052354,557.813640908 L166.074197252,556.824845691 L166.986112619,555.754491182 L168.669686538,554.732475484 L172.241571137,553.646105862 L174.061295386,553.791100352 L175.340736405,554.385709523 L175.912135343,555.313461176 L176.614592641,557.167954853 L177.074285308,558.021651331 L177.862166599,558.780420418 L179.542380827,560.043977229 L180.164033091,560.751780881 L180.566091051,561.486432736 L181.419820193,562.71396892 L182.200931037,563.166551339 L182.966146405,562.919457684 L183.546599702,561.812460274 L183.024266979,558.214847057 L183.527696405,556.14705945 L189.643584903,544.39101345 L189.914583812,543.411296403 L190.000470946,542.359263613 L189.906787891,541.475428425 L189.340975551,540.79932563 L188.568740189,540.71860983 L186.710814103,541.286220131 L185.990826383,541.083935742 L185.810578751,540.420837935 L186.274783797,539.06483835 L189.045924857,534.341670605 L189.813211389,532.617684098 L190.681623309,531.306998718 L191.654711453,530.562661108 L195.66040034,530.120086969 L197.905058475,529.652375585 L198.828578628,529.149630242 L199.633462659,528.277714657 L199.916004499,526.236593084 L199.503682774,525.064841956 L198.660743642,524.296886955 L197.770992773,523.880029859 L197.20856454,523.346171884 L200.569496953,521.23344024 L215.841037716,517.351970886 L218.548407713,517.878314368 L220.801255502,517.791796257 L221.895101669,517.535954023 L223.912620323,516.809465158 L227.816202969,514.473230978 L228.796304285,514.066761261 L229.908057347,513.799297197 L231.940837358,513.717384695 L232.871212822,513.530788779 L233.850977995,513.113246939 L234.71284635,512.370358916 L235.353252937,511.567188325 L236.097170173,510.49894531 L236.150001533,510.410146905 L237.073629903,509.950116079 L237.843017083,509.93139127 L238.508885834,510.177718035 L238.787399761,510.324082545 L238.899445502,510.408866667 L238.899978495,510.430732649 L238.956534776,510.494990572 L238.76912725,514.087677762 L237.319899615,524.602826621 L237.292550285,525.741177128 L239.114197453,553.154430203 L238.536869416,558.85681881 L239.72109852,562.273912462 L245.523371949,574.3736073 L249.210425357,562.993974504 L250.92003999,560.107726138 L252.395409289,559.644773828 L253.103005834,559.310090678 L254.295881619,558.558653684 L254.95030259,558.301821868 L255.719911014,558.249982128 L256.494929716,558.416783273 L257.163415053,558.728422827 L258.052037956,559.034594385 L259.155920057,559.138491305 L261.18447499,558.781780338 L262.323248737,558.075174443 L263.176476661,556.95993872 L263.540407145,556.097561567 L264.968072165,551.532838055 L270.947097066,545.551911813 L273.016330888,544.657393332 L274.413474544,543.309311778 L277.244285918,537.7238262 Z" fill="#cee3f5" id="LB.NA" stroke="#6e6e6e" stroke-width="0.4"><desc><labelrank>9</labelrank><code_hasc>LB.NA</code_hasc><name>An Nabatiyah</name><admin>Lebanon</admin><type_en>Province</type_en><region /><woe_id>56049597</woe_id><longitude>35</longitude><woe_name>An Nabatiyah</woe_name><fips>LE07</fips><woe_label>An Nabatiyah, LB, Lebanon</woe_label><latitude>33</latitude><iso_a2>LB</iso_a2><postal>NA</postal><type>Muhafazah</type><id>LB.NA</id></desc></path><path d="M268.876636759,505.574313447 L270.082535356,515.597904647 L271.650526129,521.061237989 L272.295851506,522.653145813 L274.152799214,526.468087164 L275.804406462,528.679952751 L277.244285918,537.7238262 L274.413474544,543.309311778 L273.016330888,544.657393332 L270.947097066,545.551911813 L264.968072165,551.532838055 L263.540407145,556.097561567 L263.176476661,556.95993872 L262.323248737,558.075174443 L261.18447499,558.781780338 L259.155920057,559.138491305 L258.052037956,559.034594385 L257.163415053,558.728422827 L256.494929716,558.416783273 L255.719911014,558.249982128 L254.95030259,558.301821868 L254.295881619,558.558653684 L253.103005834,559.310090678 L252.395409289,559.644773828 L250.92003999,560.107726138 L249.210425357,562.993974504 L245.523371949,574.3736073 L239.72109852,562.273912462 L238.536869416,558.85681881 L239.114197453,553.154430203 L237.292550285,525.741177128 L237.319899615,524.602826621 L238.76912725,514.087677762 L238.956534776,510.494990572 L238.899978495,510.430732649 L238.899445502,510.408866667 L238.787399761,510.324082545 L238.508885834,510.177718035 L237.843017083,509.93139127 L237.073629903,509.950116079 L236.150001533,510.410146905 L236.097170173,510.49894531 L235.353252937,511.567188325 L234.71284635,512.370358916 L233.850977995,513.113246939 L232.871212822,513.530788779 L231.940837358,513.717384695 L229.908057347,513.799297197 L228.796304285,514.066761261 L227.816202969,514.473230978 L223.912620323,516.809465158 L221.895101669,517.535954023 L220.801255502,517.791796257 L218.548407713,517.878314368 L215.841037716,517.351970886 L200.569496953,521.23344024 L197.20856454,523.346171884 L197.770992773,523.880029859 L198.660743642,524.296886955 L199.503682774,525.064841956 L199.916004499,526.236593084 L199.633462659,528.277714657 L198.828578628,529.149630242 L197.905058475,529.652375585 L195.66040034,530.120086969 L191.654711453,530.562661108 L190.681623309,531.306998718 L189.813211389,532.617684098 L189.045924857,534.341670605 L186.274783797,539.06483835 L185.810578751,540.420837935 L185.990826383,541.083935742 L186.710814103,541.286220131 L188.568740189,540.71860983 L189.340975551,540.79932563 L189.906787891,541.475428425 L190.000470946,542.359263613 L189.914583812,543.411296403 L189.643584903,544.39101345 L183.527696405,556.14705945 L183.024266979,558.214847057 L183.546599702,561.812460274 L182.966146405,562.919457684 L182.200931037,563.166551339 L181.419820193,562.71396892 L180.566091051,561.486432736 L180.164033091,560.751780881 L179.542380827,560.043977229 L177.862166599,558.780420418 L177.074285308,558.021651331 L176.614592641,557.167954853 L175.912135343,555.313461176 L175.340736405,554.385709523 L174.061295386,553.791100352 L172.241571137,553.646105862 L168.669686538,554.732475484 L166.986112619,555.754491182 L166.074197252,556.824845691 L165.876052354,557.813640908 L165.805974438,559.608955129 L165.873427279,560.165264568 L165.735393755,561.382403383 L165.328532373,562.889903069 L164.231501317,565.550244286 L163.213299237,566.808799684 L161.906269579,567.461231085 L158.552452481,567.688553143 L157.846628392,568.14162158 L158.186257341,568.560683085 L158.970061388,569.144931428 L159.917800145,569.670853344 L160.917702701,570.064350028 L161.912297921,570.217317041 L165.87909275,570.304183 L166.811858718,570.152147847 L167.750963028,570.284322107 L171.615418041,572.35256144 L172.566137252,572.998425247 L173.466019852,573.831348537 L174.407739889,576.522707301 L172.961416889,583.248996503 L178.655846801,589.027133624 L185.590316401,591.101224602 L195.011393233,592.635667226 L197.327115726,592.691685165 L198.753544264,592.418105194 L200.323157116,591.189536406 L205.806148512,590.012078732 L202.502013733,594.847051075 L202.281399035,597.214809787 L202.596392061,598.91385154 L202.811267219,605.799885789 L202.201544741,608.034456641 L201.092268275,610.127439883 L199.476556937,611.783618312 L189.933181476,624.439015146 L187.996517393,626.583176291 L186.317399116,627.933861361 L184.020346785,628.795328117 L182.601325361,629.461809351 L180.644505806,630.741924767 L180.006323489,631.795369945 L179.917479674,632.748931387 L180.595358305,633.455531279 L181.488135834,633.90570929 L182.433603908,634.245301956 L183.384034857,634.803510715 L184.172295122,635.507556236 L184.702708651,637.004931758 L184.220538822,637.639287123 L180.795119055,639.871325849 L179.703286134,640.388096941 L178.715329444,640.618126526 L175.407055501,640.714210105 L173.926175488,641.1082635 L173.619470238,642.197907953 L173.439643881,646.500274396 L172.850890291,648.143062548 L171.99906779,649.540141878 L170.379786678,651.173008669 L169.781999436,651.590968424 L169.072176242,651.934843963 L168.18958235,651.954421879 L165.473596511,651.423935222 L163.547778765,651.685183587 L162.588813195,653.248431103 L158.484096324,664.909805777 L158.394544673,665.863271435 L158.326747679,667.811513822 L157.873336156,669.80099525 L157.783506461,670.743525409 L157.998532871,673.00274601 L158.188005973,674.092286147 L158.017597812,678.930073963 L157.586885004,681.968965046 L157.584183468,681.98802557 L155.728544664,681.188884752 L151.385801794,681.28321073 L138.302915438,685.906048678 L135.759306124,685.774232177 L130.689378153,684.580143467 L128.55146563,684.472090246 L126.251110762,685.395317087 L122.376573874,688.527553994 L120.84427815,689.215662722 L92.296296824,687.666558208 L92.2824778194,686.977991777 L92.6798534841,685.110133905 L91.0618411942,685.383689304 L90.5298682709,684.877714531 L90.5084936414,683.810436926 L90.1928628595,682.525177381 L92.3000601683,677.747112191 L95.3909578164,672.914603559 L99.139579453,669.118946027 L106.950915981,665.653102307 L109.413050568,661.383201341 L111.514653608,656.517767781 L113.87296336,652.886838009 L111.670908267,650.056311326 L113.805215718,649.616054915 L114.9747465,650.142915963 L116.305193438,652.836384992 L126.531290436,629.492681995 L127.827083966,616.841094916 L120.196483926,606.254871516 L127.682260176,600.430841931 L132.863681692,592.449799347 L139.172449483,573.81677933 L139.918971073,568.220287949 L139.904069044,556.818636436 L141.105220954,550.902197414 L147.362460849,541.086438313 L149.499677498,535.803623695 L147.940512552,530.532736094 L166.066475554,515.990491782 L175.107545338,506.072042253 L178.802882131,493.465355587 L179.428101513,487.990659104 L184.269935447,473.847400331 L184.284939421,473.853255741 L186.058531506,474.545349903 L196.518146951,474.751629819 L205.742812946,479.261107917 L214.474778167,480.662546479 L218.370560299,480.449387775 L219.746462405,480.547772749 L220.281963877,479.966126871 L220.65141132,479.333752383 L221.1897612,478.872353302 L222.119795136,478.707846938 L225.638402719,478.809242767 L228.150209026,478.168881852 L232.24973401,476.549060545 L232.900107505,476.18320987 L234.205071802,475.626400061 L235.081416538,475.517557749 L237.00574337,475.580049852 L239.352207034,474.93198389 L240.940672358,474.739932495 L241.648522571,474.481905346 L243.321514074,473.259344927 L243.804069523,472.777075093 L244.486570748,471.491278272 L244.913649593,470.988476214 L246.458590949,470.523747611 L247.110079564,470.212296124 L247.536298074,469.676661169 L247.850010182,469.034402095 L248.275662176,468.476890491 L248.925476826,468.099804938 L249.635045738,467.918144713 L251.335143941,467.810369393 L254.503232016,467.097120358 L255.380983725,467.053377788 L256.255462757,466.878415132 L257.068763196,466.45333767 L257.92764775,465.655138344 L259.009613654,464.993556038 L260.154375758,464.647628379 L261.753605311,464.902908792 L263.233258089,466.955320213 L264.359045413,470.220011449 L264.408795249,478.752105154 L264.168886153,482.324625278 L263.519736752,484.922798048 L263.440078679,486.128209287 L263.969523183,487.515253553 L265.656595449,489.037297115 L266.790796543,489.697984859 L268.600573185,490.265022056 L269.953211042,490.865406788 L270.322580253,492.431469288 L270.680367263,493.538332098 L268.876636759,505.574313447 Z" fill="#cee3f5" id="LB.JA" stroke="#6e6e6e" stroke-width="0.4"><desc><labelrank>9</labelrank><code_hasc>LB.JA</code_hasc><name>South Lebanon</name><admin>Lebanon</admin><type_en>Province</type_en><region /><woe_id>2346014</woe_id><longitude>35</longitude><woe_name>South Lebanon</woe_name><fips>LE06</fips><woe_label>Al Janub, LB, Lebanon</woe_label><latitude>33</latitude><iso_a2>LB</iso_a2><postal>JA</postal><type>Muhafazah</type><id>LB.JA</id></desc></path></svg>