<?xml version='1.0' encoding='utf-8'?>
<svg height="700" width="700" xmlns="http://www.w3.org/2000/svg"><path d="M333.958419849,390.720646991 L380.961945134,437.724172276 L431.581130583,466.649418605 L517.976258986,481.175804164 L533.606557257,502.939516755 L551.413225936,536.574335371 L564.669302967,571.198415789 L567.8349349,597.314867074 L550.819671773,637.478800942 L522.922553133,668.739402903 L483.747881067,690.503109066 L434.878461816,700.0 L186.970040578,635.104579424 L132.1650651,445.958171148 L154.896022243,347.730896687 L268.876615609,361.795400662 L333.958419849,390.720646991 Z" fill="#cee3f5" id="MS.SA" stroke="#6e6e6e" stroke-width="0.4"><desc><labelrank>20</labelrank><code_hasc>MS.SA</code_hasc><name>Saint Anthony</name><admin>Montserrat</admin><type_en>Parish</type_en><region /><woe_id>20069826</woe_id><longitude>-62</longitude><woe_name>Saint Anthony</woe_name><fips>MH01</fips><woe_label>Saint Anthony, MS, Montserrat</woe_label><latitude>16</latitude><iso_a2>MS</iso_a2><postal /><type>Parish</type><id>MS.SA</id></desc></path><path d="M517.976258986,481.175804164 L431.581130583,466.649418605 L380.961945134,437.724172276 L333.958419849,390.720646991 L355.652354596,314.791871004 L388.193256716,249.710066764 L424.392314251,205.765968363 L491.068401871,286.885246779 L534.59581906,364.838892997 L533.013003094,400.056527579 L513.22781081,460.99491067 L517.976258986,481.175804164 Z" fill="#cee3f5" id="MS.SG" stroke="#6e6e6e" stroke-width="0.4"><desc><labelrank>20</labelrank><code_hasc>MS.SG</code_hasc><name>Saint Georges</name><admin>Montserrat</admin><type_en>Parish</type_en><region /><woe_id>20069827</woe_id><longitude>-62</longitude><woe_name>Saint Georges</woe_name><fips>MH02</fips><woe_label>Saint Georges, MS, Montserrat</woe_label><latitude>16</latitude><iso_a2>MS</iso_a2><postal /><type>Parish</type><id>MS.SG</id></desc></path><path d="M424.392314251,205.765968363 L388.193256716,249.710066764 L355.652354596,314.791871004 L333.958419849,390.720646991 L268.876615609,361.795400662 L154.896022243,347.730896687 L186.970040578,209.129451948 L268.88072428,0.0 L330.01695876,23.742224905 L361.673263496,32.0520075122 L401.837197364,30.0734887701 L379.282080787,120.689652993 L424.392314251,205.765968363 Z" fill="#cee3f5" id="MS.SP" stroke="#6e6e6e" stroke-width="0.4"><desc><labelrank>20</labelrank><code_hasc>MS.SP</code_hasc><name>Saint Peter</name><admin>Montserrat</admin><type_en>Parish</type_en><region /><woe_id>20069828</woe_id><longitude>-62</longitude><woe_name>Saint Peter</woe_name><fips>MH03</fips><woe_label>Saint Peter, MS, Montserrat</woe_label><latitude>16</latitude><iso_a2>MS</iso_a2><postal /><type>Parish</type><id>MS.SP</id></desc></path></svg>