<?xml version='1.0' encoding='utf-8'?>
<svg height="700" width="700" xmlns="http://www.w3.org/2000/svg"><path d="M169.193351917,330.143955287 L168.37197988,336.157715741 L162.479329351,344.83573184 L159.073618188,357.555677102 L156.316111533,360.813623727 L153.976912886,359.161411709 L146.664776739,360.777156602 L143.777355246,358.952414025 L138.115761393,350.37229868 L130.436895813,348.489730623 L128.041755127,333.744267654 L132.038647419,332.362888077 L147.60823698,333.360316079 L157.849250513,328.818157796 L157.454681281,327.362082299 L167.082126378,327.425620073 L169.193351917,330.143955287 M250.434064575,307.373719893 L251.863876994,312.17480129 L240.998642114,331.82054215 L239.597526715,339.613641239 L239.41063282,343.595390553 L239.73826035,349.546568989 L239.105917924,349.809067134 L224.304515806,352.482063711 L208.953090711,361.440367149 L204.575771148,362.542082372 L209.311415223,343.713492271 L213.548229172,335.90533286 L219.102844529,335.580854865 L222.122343673,337.005805936 L226.643197946,337.121763163 L226.647377435,335.53506684 L222.341027708,335.259122299 L217.023353458,330.701584792 L212.632696127,330.745848094 L208.9597714,333.46480608 L207.521244652,341.838197538 L200.071680888,356.266672251 L197.713123036,357.628999722 L193.240514321,356.472301133 L192.319241536,353.51312653 L193.844292344,344.941870273 L190.014466579,346.743182205 L187.405738012,359.334481761 L180.938581477,361.882386967 L176.497060546,365.258297489 L174.247108293,364.542257022 L172.762484689,357.821628145 L178.101475572,344.890520641 L181.43828393,332.009088192 L183.767923746,327.993211251 L189.274775793,325.073813298 L190.799740345,319.430558736 L198.636774315,308.4990439 L206.719689519,304.632300159 L215.816503296,303.506490731 L219.092388778,309.107052905 L229.834767157,311.761644337 L230.568625806,308.476788518 L232.241686485,305.128238839 L233.113686432,302.287617465 L232.9603996,302.128523493 L232.988227474,302.101706489 L233.224968937,301.874412554 L242.388010453,296.931423249 L249.705040309,306.016659176 L250.434064575,307.373719893 Z" fill="#cee3f5" id="GW.BM" stroke="#6e6e6e" stroke-width="0.4"><desc><labelrank>7</labelrank><code_hasc>GW.BM</code_hasc><name>Biombo</name><admin>Guinea Bissau</admin><type_en>Region</type_en><region>Norte</region><woe_id>2346611</woe_id><longitude>-15</longitude><woe_name /><fips>PU05</fips><woe_label /><latitude>11</latitude><iso_a2>GW</iso_a2><postal>BL</postal><type>Região</type><id>GW.BM</id></desc></path><path d="M269.78959315,327.9495795 L267.534822548,329.131952556 L258.860703416,340.352892817 L254.280825778,341.62743819 L239.73826035,349.546568989 L239.41063282,343.595390553 L239.597526715,339.613641239 L240.998642114,331.82054215 L251.863876994,312.17480129 L255.411841444,317.916095921 L261.305471056,320.663508409 L265.577268166,325.446114859 L269.78959315,327.9495795 Z" fill="#cee3f5" id="GW.BS" stroke="#6e6e6e" stroke-width="0.4"><desc><labelrank>9</labelrank><code_hasc>GW.BS</code_hasc><name>Bissau</name><admin>Guinea Bissau</admin><type_en>Autonomous Sector</type_en><region>Bissau</region><woe_id>2346610</woe_id><longitude>-15</longitude><woe_name>Bissau</woe_name><fips>PU11</fips><woe_label>Bissau, GW, Guinea-Bissau</woe_label><latitude>11</latitude><iso_a2>GW</iso_a2><postal>BS</postal><type>Sector Autónomo</type><id>GW.BS</id></desc></path><path d="M187.849724577,503.171054696 L189.367584321,513.253028347 L193.314724374,519.120385552 L192.130363162,522.139137971 L189.383226386,523.585423181 L183.926846911,523.134416527 L182.104157373,524.243255001 L173.655119855,523.102067236 L170.225000442,524.97987554 L169.488418975,521.992910722 L170.306234022,520.116082918 L174.423018639,519.307758743 L182.234862584,515.19569695 L181.198236775,512.585738498 L178.617131122,511.708705126 L176.290432479,512.966892109 L175.961123362,516.762617579 L172.837465196,513.437442757 L175.944904411,507.27060878 L174.797769733,495.697064714 L175.152551864,492.694770491 L177.624125968,489.680410251 L185.55390203,497.582244404 L187.849724577,503.171054696 M171.317082935,499.180275237 L171.125704139,509.172258057 L163.986368743,518.517788143 L161.321932363,520.17105414 L157.837982413,507.899539548 L160.221051709,503.884234929 L154.979170663,503.884855483 L152.431683022,501.590127085 L152.248227398,498.113687931 L154.117000179,494.502882871 L157.418240323,491.87936081 L169.656595315,488.067636271 L171.317082935,499.180275237 M150.232235168,495.934083237 L149.782282145,501.74119819 L154.067013007,508.623037891 L150.80228734,508.611433205 L153.028277192,514.834188779 L150.957921174,522.515091264 L152.461990498,524.598323896 L147.748524795,527.679493993 L139.631375419,527.545928312 L134.940751541,529.29460265 L133.901254319,525.370888353 L134.971253893,521.237931345 L133.525142512,521.23243263 L130.530055909,526.123059975 L131.954876954,529.283250812 L129.074989129,528.403210116 L127.264384378,526.110411973 L121.999253694,526.769763062 L116.359865078,523.044487487 L108.402194912,511.610802624 L115.170596752,505.858174649 L119.066027246,504.466675037 L122.495200943,505.330573189 L117.936797989,506.899040754 L119.490477658,510.230156211 L124.148780981,507.037346732 L126.375790341,505.279864462 L128.216249834,497.409631813 L132.253906307,495.20571106 L133.634538337,492.698581213 L138.332070336,495.890138219 L138.959779284,490.197011556 L142.438132793,487.716528646 L147.015053072,488.186823148 L150.864378383,491.317703708 L152.350124539,493.089270555 L150.232235168,495.934083237 M200.516900268,489.5799875 L194.828362288,489.733423564 L189.171590527,485.55138714 L189.099941053,478.467672195 L192.720898457,471.083473048 L198.161390462,465.971196039 L204.099274125,465.922231341 L205.313616807,468.315138527 L202.837411118,476.930966334 L202.576901994,486.563629084 L200.516900268,489.5799875 M242.949442503,470.280749366 L243.63141325,482.078021365 L242.482614833,482.982076539 L238.971393017,477.345340738 L235.681277134,477.016549284 L235.677174781,478.754273497 L237.392568476,478.758299939 L237.388865644,480.344914778 L234.412931397,485.0600079 L232.675192505,486.529158933 L230.778982108,484.106863835 L227.960878613,485.063277876 L229.429088641,490.903422839 L227.929621308,497.756257296 L226.239908877,494.720484019 L221.698583158,494.709048687 L219.444491507,497.309887866 L217.274783552,496.104821272 L215.305186112,489.790812526 L220.465225897,484.789361517 L216.888350737,483.467272391 L216.892183137,482.012849984 L221.743967411,476.982191463 L221.756157078,472.241162957 L225.727091181,472.345707408 L228.751561405,466.903887408 L234.254837283,465.340088346 L243.667318541,466.089158198 L242.949442503,470.280749366 M118.112725505,463.960080087 L120.171078455,466.688888983 L129.044181013,467.178023043 L130.035040408,468.863234712 L130.722158025,476.686768146 L125.770445039,479.208002478 L124.736054177,481.385777796 L125.720434848,484.733414695 L110.692558862,485.947036898 L100.552850695,482.3330979 L101.703138096,477.284565387 L105.553903126,475.157016675 L105.253858279,471.216815189 L108.439401416,467.565503841 L112.886456788,465.33625755 L116.399600686,465.681541299 L118.112725505,463.960080087 M242.203539059,421.575120692 L245.330013201,423.027255426 L243.757522803,426.338618852 L245.076158514,428.1738079 L238.904486118,434.109457586 L237.504911686,431.065080282 L235.790744925,431.060984189 L233.157460529,433.566803612 L229.449484983,433.557652077 L226.192924918,431.887225821 L224.988054965,429.447482022 L226.120663826,427.344272421 L231.103587224,427.744023464 L235.817779787,419.831716262 L237.527531227,421.564134735 L242.211214204,418.260185347 L243.399772275,419.85901536 L242.203539059,421.575120692 M118.471534401,431.43058654 L116.533193378,433.708336215 L114.585436457,433.775687031 L96.3641017991,430.578843426 L107.099631425,423.844248768 L108.792197166,420.262161981 L111.401178718,417.996981966 L123.67991613,415.611725654 L127.701310624,416.308272641 L128.809745778,418.636389452 L127.990374339,420.833905425 L118.471534401,431.43058654 M110.120749862,401.782235582 L109.647745616,407.740571842 L104.096060826,416.208156594 L102.491728488,420.857936546 L98.7254431942,421.398434863 L93.7091876997,424.294565362 L88.4681812411,419.31115086 L75.9563113074,419.251739433 L72.0383063959,422.170519389 L69.5401964239,422.394401578 L71.2607975931,419.228828808 L69.82174197,416.321637952 L71.2842180928,414.467876052 L68.022238009,412.864700118 L76.5388368133,408.627269731 L94.6715745943,407.371425298 L100.915938798,400.352938503 L102.613191117,401.947489055 L108.878821073,400.388258791 L110.120749862,401.782235582 M181.458741833,401.855487264 L183.395254836,402.01289324 L184.317763344,398.946260719 L187.139179185,401.930435331 L186.383749521,408.133338159 L188.957115033,410.191002633 L186.110886369,414.866679354 L185.39434277,420.512441666 L186.438306302,426.201554888 L188.89230979,430.931659505 L173.377925652,437.105790237 L171.539796364,432.329900611 L169.844109462,432.324158617 L168.407310985,435.625024169 L165.288098229,432.308515386 L161.890535355,436.698072848 L157.448410241,438.609131713 L155.269629834,435.569390671 L147.407655746,429.986654246 L146.410836295,427.479900508 L154.375143534,422.758410295 L160.524675517,417.226780533 L165.330771359,404.039402277 L171.386313864,400.716784678 L176.591424171,395.322352797 L179.485936825,395.756994026 L179.753158383,399.441427783 L181.458741833,401.855487264 M286.15617516,389.675199208 L286.048476783,392.848229296 L283.530126169,395.516660539 L282.873442384,398.395983254 L286.549718156,405.022444947 L282.162616891,405.657252598 L277.305008438,403.769355963 L275.19065718,404.058298479 L270.367307966,408.809161972 L264.109144488,408.79700203 L264.105986726,410.383616081 L268.973236145,412.187504332 L268.090808641,415.812354795 L264.864116558,417.902664449 L262.690179539,415.13120181 L260.099526325,415.834263364 L253.285044454,414.31833032 L252.184336716,415.099825273 L250.231791231,413.575037678 L249.621832861,411.429844081 L255.47638667,408.684804307 L260.462461075,402.329802812 L265.825826333,402.472804418 L266.279731541,398.94157385 L273.519381737,391.381194818 L277.381281477,392.408227158 L286.15617516,389.675199208 M312.876041006,381.79075749 L314.857385511,390.519423432 L317.545135072,392.893081554 L315.977194958,396.064363876 L309.476542053,390.304845138 L304.905643961,383.366823446 L304.192465965,387.464527445 L309.576627462,399.229500039 L304.885984889,397.636643018 L303.857439617,400.761171161 L301.92061611,400.796229501 L300.303838837,398.432923926 L300.216478784,394.456881129 L298.65231316,394.454598319 L297.034887362,398.938097675 L296.924761318,404.094348965 L294.096350553,402.522363207 L294.089274621,407.131020318 L291.707745647,405.578507481 L287.207370146,395.825028602 L290.83514903,392.128836327 L296.475593872,380.823628004 L296.685323653,378.530049254 L297.395674529,377.892731504 L305.164865979,376.032872239 L308.351075038,375.689371865 L313.799399699,376.571950291 L316.321966074,377.582529396 L316.398204124,377.98953377 L314.434503768,378.619530582 L315.994430938,381.79460892 L312.876041006,381.79075749 Z" fill="#cee3f5" id="GW.BL" stroke="#6e6e6e" stroke-width="0.4"><desc><labelrank>7</labelrank><code_hasc>GW.BL</code_hasc><name>Bolama</name><admin>Guinea Bissau</admin><type_en>Region</type_en><region>Sul</region><woe_id>2346606</woe_id><longitude>-15</longitude><woe_name>Bolama</woe_name><fips>PU05</fips><woe_label>Bolama, GW, Guinea-Bissau</woe_label><latitude>11</latitude><iso_a2>GW</iso_a2><postal>BL</postal><type>Região</type><id>GW.BL</id></desc></path><path d="M242.388010453,296.931423249 L233.224968937,301.874412554 L232.988227474,302.101706489 L232.9603996,302.128523493 L231.426059627,300.535988613 L224.765395583,305.363545938 L220.497801914,305.266899148 L217.588384919,301.631965547 L213.818519613,299.892831538 L203.234862243,300.909921143 L200.29010575,300.060286525 L198.671719313,297.268968497 L197.119096208,297.264108363 L195.479981175,301.084206213 L191.232394594,303.488580842 L181.352000382,305.146603433 L182.90307854,308.448219236 L181.29288911,308.877277541 L181.335937872,309.897509519 L178.227699883,307.846751989 L178.58469914,314.941373506 L173.271844011,320.977452566 L170.132750995,322.28876288 L153.203570086,322.47216908 L144.595995788,325.754254683 L140.002956064,329.844896024 L137.414187486,330.486236938 L135.203365529,329.683814363 L129.626899579,323.964959894 L124.040301519,325.216592288 L116.725456972,323.815316601 L110.374923768,321.085580824 L107.680256373,318.390711086 L103.039572358,308.129697375 L92.1185444939,304.781440839 L88.7672312895,299.730227927 L84.4562190689,280.17332857 L90.7410042544,266.733309076 L95.8029761266,261.63780523 L101.569435767,258.69911556 L102.773432969,263.51306047 L104.49987048,263.974584292 L106.507635434,261.896276384 L104.834753421,253.972347302 L107.416290614,250.328616803 L132.357668168,236.39321939 L142.518237413,225.459510837 L151.882244076,222.46523247 L145.809803651,222.214123404 L141.74456702,223.897728534 L135.417756646,231.040833543 L130.778609045,234.213850078 L114.272948406,238.164872879 L104.11424108,245.164829319 L96.3419313557,253.931972286 L92.0670921722,252.11633741 L94.1483633857,242.604246939 L94.003286494,238.06912603 L89.8668105305,246.078509813 L88.4405095653,254.53573958 L86.1843742481,257.878137991 L82.721756521,258.994417732 L78.3269556532,256.997735868 L76.7576284992,258.576784816 L73.5122370534,255.38585773 L73.0316128264,258.463085585 L71.2215606581,259.832929481 L64.9190714796,260.102032911 L61.6195127637,263.617647042 L59.6548811661,260.82958877 L51.8273048527,257.839221968 L50.1354915331,252.898275396 L43.2918803353,245.433963213 L43.1607475176,243.987733023 L36.7783646759,239.009836806 L34.6394940534,237.750249378 L28.3876150204,239.149412061 L23.7432814212,232.772520739 L12.7373177678,224.787379191 L9.3375064251,224.766070365 L1.67120808198,228.03375568 L-5.68434188608e-14,225.966820059 L5.23274300003,222.400657557 L13.6327945233,220.437687795 L44.5616091064,222.686439032 L60.7035299125,219.645198284 L72.2040338295,219.610997261 L115.647469072,198.158291003 L124.878478871,200.911354651 L128.494443164,199.0558256 L145.742971374,196.141949187 L153.838966007,196.894449375 L172.468252782,202.531760117 L190.581226964,201.311784285 L232.177617818,203.884376825 L240.045115188,202.26157281 L298.332027555,175.032738438 L303.877738756,195.865624258 L303.178478995,202.317651766 L300.716400211,208.874920629 L289.468392199,216.14926142 L287.294071473,215.509762925 L284.485668461,210.179135574 L273.884190193,211.346524508 L254.26292398,222.55570142 L250.667053309,227.201368804 L246.156518209,229.433659671 L236.824626561,230.525893955 L235.318218277,236.087698339 L231.436092028,236.629287547 L229.565093769,232.761870709 L224.329894601,238.529237572 L224.81179232,243.436578314 L222.639978768,245.973525774 L223.764354163,248.927449723 L235.238477932,260.125437085 L243.431666072,263.312594024 L245.750281233,265.849101803 L242.86086243,279.636139507 L243.30625039,285.814524026 L241.489504539,292.57515019 L241.515449723,294.038572448 L241.743043777,295.118653426 L242.388010453,296.931423249 Z" fill="#cee3f5" id="GW.CA" stroke="#6e6e6e" stroke-width="0.4"><desc><labelrank>7</labelrank><code_hasc>GW.CA</code_hasc><name>Cacheu</name><admin>Guinea Bissau</admin><type_en>Region</type_en><region>Norte</region><woe_id>2346607</woe_id><longitude>-16</longitude><woe_name>Cacheu</woe_name><fips>PU06</fips><woe_label>Cacheu, GW, Guinea-Bissau</woe_label><latitude>12</latitude><iso_a2>GW</iso_a2><postal>CA</postal><type>Região</type><id>GW.CA</id></desc></path><path d="M423.625663444,147.020800785 L426.20101089,151.68976455 L426.545468247,157.075102867 L417.652673996,173.427614011 L416.223129945,178.981545745 L426.243751626,187.936886601 L428.50991531,193.992796931 L419.896577884,199.922214495 L405.280720151,203.452893083 L403.754419859,205.204306787 L404.848967998,229.420438166 L406.512419035,232.538615566 L411.809133327,237.155096481 L412.919335723,242.16832082 L411.703254596,259.272244847 L402.505976679,259.034237061 L393.68638472,255.004747923 L385.386384631,255.315928597 L380.436053079,259.752804178 L378.299287826,264.142103359 L386.533524483,280.143703954 L387.783889183,287.028382759 L405.190884288,297.318618247 L403.503526023,303.699636259 L405.913660748,311.675170042 L401.633240883,314.050581651 L395.912823204,314.265163255 L392.83813002,309.445324576 L387.882424577,308.55726521 L383.837656578,309.878869961 L376.279149673,307.213933944 L362.320253076,313.422514658 L350.54058418,324.502687017 L345.33178993,325.377157193 L322.94257605,319.972732544 L312.564022605,312.905376251 L302.076524505,311.95592602 L297.062441768,313.355580153 L290.173294186,318.227266659 L280.816656414,318.938365435 L273.642159769,326.131116829 L269.78959315,327.9495795 L265.577268166,325.446114859 L261.305471056,320.663508409 L255.411841444,317.916095921 L251.863876994,312.17480129 L250.434064575,307.373719893 L249.705040309,306.016659176 L242.388010453,296.931423249 L241.743043777,295.118653426 L241.515449723,294.038572448 L241.489504539,292.57515019 L243.30625039,285.814524026 L242.86086243,279.636139507 L245.750281233,265.849101803 L243.431666072,263.312594024 L235.238477932,260.125437085 L223.764354163,248.927449723 L222.639978768,245.973525774 L224.81179232,243.436578314 L224.329894601,238.529237572 L229.565093769,232.761870709 L231.436092028,236.629287547 L235.318218277,236.087698339 L236.824626561,230.525893955 L246.156518209,229.433659671 L250.667053309,227.201368804 L254.26292398,222.55570142 L273.884190193,211.346524508 L284.485668461,210.179135574 L287.294071473,215.509762925 L289.468392199,216.14926142 L300.716400211,208.874920629 L303.178478995,202.317651766 L303.877738756,195.865624258 L298.332027555,175.032738438 L310.448980222,166.176303912 L324.322747645,159.849026456 L337.572268214,150.363423556 L343.487052955,147.682000267 L350.024191603,146.703691209 L423.625663444,147.020800785 Z" fill="#cee3f5" id="GW.OI" stroke="#6e6e6e" stroke-width="0.4"><desc><labelrank>8</labelrank><code_hasc>GW.OI</code_hasc><name>Oio</name><admin>Guinea Bissau</admin><type_en>Region</type_en><region>Norte</region><woe_id>2346605</woe_id><longitude>-15</longitude><woe_name>Oio</woe_name><fips>PU04</fips><woe_label>Oio, GW, Guinea-Bissau</woe_label><latitude>12</latitude><iso_a2>GW</iso_a2><postal>OI</postal><type>Região</type><id>GW.OI</id></desc></path><path d="M411.549266383,357.928142058 L414.056912852,353.615453879 L418.565231462,354.381518011 L422.492027463,362.727546014 L425.735633837,361.67060697 L432.444505676,365.229131724 L425.847934237,373.880121891 L426.185413334,375.103310472 L433.425060788,374.355748069 L417.624245564,399.621853039 L414.539970003,406.303273327 L413.396399268,418.692900551 L403.273226695,433.470954575 L372.485919761,441.971208267 L366.700869869,439.342478483 L361.302579737,433.175365042 L349.546880923,426.715916175 L345.369883721,428.092191737 L331.948721355,438.984682494 L333.118037599,435.982755597 L315.914456947,448.647560835 L312.40410579,446.556245243 L311.6714008,443.826080521 L312.807528159,436.75408313 L318.704308324,429.092736452 L317.504016999,427.901427193 L313.590375736,428.92612126 L310.596441969,431.840528778 L306.520573971,442.51620718 L296.861178183,447.035751713 L291.554884924,455.876657198 L281.279869396,458.91983699 L279.361114325,458.274369022 L278.363177558,453.342902017 L279.066387613,450.869809311 L284.350954068,439.083287018 L290.775896733,429.583620078 L286.770485329,429.407214439 L285.357161811,427.808861021 L286.103185847,421.662058638 L289.929441064,422.914852318 L294.069661347,419.946453847 L295.487357323,424.850005267 L298.206293528,419.168793801 L300.1071688,418.604914544 L301.723452386,421.685929324 L303.427981775,421.688309813 L302.623766998,417.295776318 L300.188854219,413.609194277 L301.73708084,412.034265296 L313.38446394,414.599551771 L314.642668855,413.855029354 L312.840128259,410.462459178 L314.401176133,405.704669545 L315.965599306,405.706566291 L317.806405987,408.249151153 L323.645628128,407.925195003 L323.771536292,412.0617318 L328.150188608,410.498634484 L328.032314913,407.353721653 L325.354165016,403.781174923 L322.070231896,400.972791018 L317.533734957,402.554174414 L317.535604345,400.967603972 L327.047551135,396.07676032 L331.613067082,402.304814354 L335.345325853,404.130956232 L339.54623068,402.576394912 L336.762462972,402.149022874 L336.423334937,396.085788469 L331.052634172,394.52254629 L330.171170506,391.461871059 L339.553031241,394.501939394 L342.67326292,392.917935073 L340.973608787,399.262804867 L346.631772342,403.280809453 L348.345345423,402.942065873 L350.489474887,399.269915673 L345.811317343,392.193183874 L350.004168161,387.304291484 L351.90373596,386.58783485 L360.531279314,390.559311885 L361.551745091,397.689885703 L365.975050636,396.105418712 L364.551997801,392.931674804 L367.978025304,393.131479439 L370.342318399,394.407307069 L373.915928113,399.281507758 L361.550071787,401.004644252 L363.131961926,403.130266397 L365.971531181,404.160934834 L364.992152478,407.824669201 L366.27634124,409.902854564 L368.23204478,409.705349543 L370.441365517,403.539445897 L384.306397433,402.957566299 L389.055396723,401.277151562 L390.880484883,399.76628177 L392.817314269,394.525087226 L385.526956189,397.470939008 L376.1975534,397.723969965 L375.947146646,394.267487643 L380.3046358,392.937013941 L379.355787397,389.593709964 L380.306018404,386.600250453 L377.708920195,385.995229644 L375.641952853,387.212909234 L373.917931512,392.935308732 L370.781739295,389.364497806 L365.978464463,388.31430893 L365.979218885,386.595540451 L370.952040712,381.837864888 L369.250436359,377.096435925 L367.686725684,377.095807029 L364.555647314,385.008342698 L361.818484121,385.668088171 L358.375230285,383.701952293 L355.173184817,383.416775977 L357.558243431,379.867303095 L363.572973205,376.470680004 L364.561572412,372.193092726 L360.483420186,375.307538807 L355.17904025,373.774629055 L354.28313341,377.636608499 L350.503429498,378.654084685 L351.180651097,382.044877839 L349.495168367,382.959781518 L347.15958531,381.730419745 L345.821472866,378.650734299 L342.326931239,383.634368481 L340.429038811,382.310674768 L341.567914132,378.364081016 L347.229295322,375.497530306 L344.374464469,372.133362991 L345.829824449,367.563639407 L351.915299075,369.012857015 L348.87578154,363.693875031 L344.271271743,361.235033044 L342.698631293,361.233785862 L339.265626852,371.213138952 L339.569121916,375.491477898 L337.194821533,376.452694099 L335.163024445,379.397355205 L333.170280654,380.226561016 L331.774780134,379.450825725 L334.74005455,373.758962879 L332.060663597,372.575941104 L331.588773595,369.723420265 L333.186835489,362.79311655 L329.517005135,366.09489655 L328.48784117,371.43911803 L320.696969793,372.157868216 L323.81314948,373.747935695 L323.811259857,375.476173999 L329.075908553,378.938185173 L330.181516731,381.016949976 L329.284780157,384.123094926 L327.245336324,384.885968473 L323.804351696,381.803596342 L320.676962632,389.723557308 L317.535313002,377.622231766 L316.398204124,377.989533771 L316.321966074,377.582529396 L313.799399699,376.571950291 L308.351075038,375.689371865 L305.164865979,376.032872239 L297.395674529,377.892731504 L296.732773499,378.491430951 L296.685323653,378.530049254 L296.967750141,375.44126121 L289.51926351,382.550443016 L285.559632645,384.546060928 L281.487084372,381.74363452 L282.58897885,379.743391256 L282.918648589,372.103651766 L279.921917329,371.956742421 L271.400652027,379.44921284 L268.402870636,370.121983364 L268.382558321,366.230910038 L276.067359927,352.428583207 L284.670445636,343.717451051 L289.224782309,340.66519653 L291.273335513,333.727055422 L294.20781351,330.926819302 L295.630919526,330.929047644 L298.741907189,334.229824221 L300.755520981,331.229577381 L303.555647264,330.940873937 L323.000887891,334.261684815 L351.240741286,334.287130818 L357.494363768,329.247997778 L363.494126572,327.815725981 L373.941838742,318.309900184 L379.186613388,318.311385709 L380.12504023,321.824758892 L374.569105583,334.506470139 L374.73474063,340.29564188 L378.611458928,349.995598679 L393.906977546,354.66283222 L398.513154058,361.481165695 L403.836094463,362.689423556 L409.149440091,361.744048708 L411.549266383,357.928142058 Z" fill="#cee3f5" id="GW.QU" stroke="#6e6e6e" stroke-width="0.4"><desc><labelrank>8</labelrank><code_hasc>GW.QU</code_hasc><name>Quinara</name><admin>Guinea Bissau</admin><type_en>Region</type_en><region>Sul</region><woe_id>2346604</woe_id><longitude>-15</longitude><woe_name>Quinara</woe_name><fips>PU02</fips><woe_label>Quinara, GW, Guinea-Bissau</woe_label><latitude>11</latitude><iso_a2>GW</iso_a2><postal>QU</postal><type>Região</type><id>GW.QU</id></desc></path><path d="M544.201279333,147.352872588 L537.469465487,160.906896144 L533.959408039,161.143093963 L529.366282856,156.499542832 L528.081088943,158.589574131 L529.949592232,174.826660444 L537.380177655,180.303194649 L534.23341288,187.78347989 L531.623660346,188.137319852 L528.016625431,185.218637508 L525.658648019,184.79199473 L520.382050786,189.121399359 L518.50269388,189.365185071 L515.831696882,185.700189926 L510.92331146,185.781833473 L508.126792822,183.963959433 L504.26817351,184.462895342 L504.19071555,180.75665483 L503.146174621,179.846946708 L501.043717584,180.402463766 L500.354824576,184.026089083 L502.666630133,191.710606892 L504.96587374,192.210227088 L512.426966057,189.329375953 L517.274479272,193.94972154 L518.325072063,197.594007907 L516.54450441,200.200493854 L511.876455554,203.256378368 L508.563784542,200.084092932 L507.143338564,200.086749005 L506.576323181,202.630678331 L508.385257268,208.600674283 L507.463160407,210.425586585 L503.769517333,211.823711396 L498.5804919,211.041160321 L495.256290787,214.956987703 L497.210648308,216.728923491 L496.066967045,220.30521915 L500.8979172,221.568419064 L504.696716972,225.807776311 L510.655961046,227.811853105 L514.95000729,231.449935877 L515.321434858,234.399891711 L512.409219536,244.181164752 L516.386358092,256.995653366 L522.872280286,260.976748969 L523.827916653,263.73352588 L519.947171075,273.277176229 L516.248817736,274.100146847 L511.822967151,277.227205966 L504.310523847,277.240892547 L502.129543122,282.126408686 L503.815201601,287.580920213 L511.017657689,291.598045372 L511.58750824,296.46670973 L507.917050571,310.314912057 L509.269399553,313.682869455 L515.977966287,320.183259977 L512.787227539,331.895729012 L513.119040444,345.160750624 L514.764809861,359.574719091 L518.071132955,364.28217025 L516.020796262,367.560482268 L509.320085986,371.458855014 L507.261746275,387.510525589 L491.597196014,388.291446814 L477.923092313,392.472295683 L473.024113956,389.264057824 L469.240409795,389.05263112 L466.953493903,389.846808794 L460.853031649,396.042077648 L455.385827179,397.774504324 L449.069205132,395.153487295 L443.324817402,390.216665692 L439.549557758,385.014147923 L437.451315363,376.452092638 L433.425060788,374.355748069 L426.185413334,375.103310472 L425.847934237,373.880121891 L432.444505676,365.229131724 L425.735633837,361.67060697 L422.492027463,362.727546014 L418.565231462,354.381518011 L414.056912852,353.615453879 L411.549266383,357.928142058 L405.603709355,359.969316779 L395.218847541,348.429880635 L386.427090085,346.984463675 L383.813092153,345.388064537 L379.460527715,339.720851959 L378.43801737,336.736327516 L384.866898203,328.540299294 L389.220706098,315.772590321 L395.912823204,314.265163255 L401.633240883,314.050581651 L405.913660748,311.675170042 L403.503526023,303.699636259 L405.190884288,297.318618247 L387.783889183,287.028382759 L386.533524483,280.143703954 L378.299287826,264.142103359 L380.436053079,259.752804178 L385.386384631,255.315928597 L393.68638472,255.004747923 L402.505976679,259.034237061 L411.703254596,259.272244847 L412.919335723,242.16832082 L411.809133327,237.155096481 L406.512419035,232.538615566 L404.848967998,229.420438166 L403.754419859,205.204306787 L405.280720151,203.452893083 L419.896577884,199.922214495 L428.50991531,193.992796931 L426.243751626,187.936886601 L416.223129945,178.981545745 L417.652673996,173.427614011 L426.545468247,157.075102867 L426.20101089,151.68976455 L423.625663444,147.020800785 L544.201279333,147.352872588 Z" fill="#cee3f5" id="GW.BA" stroke="#6e6e6e" stroke-width="0.4"><desc><labelrank>7</labelrank><code_hasc>GW.BA</code_hasc><name>Bafatá</name><admin>Guinea Bissau</admin><type_en>Region</type_en><region>Leste</region><woe_id>2346603</woe_id><longitude>-14</longitude><woe_name>Bafatá</woe_name><fips>PU01</fips><woe_label>Bafata, GW, Guinea-Bissau</woe_label><latitude>12</latitude><iso_a2>GW</iso_a2><postal>BA</postal><type>Região</type><id>GW.BA</id></desc></path><path d="M524.418847055,406.275885512 L519.165934077,398.883166861 L517.150279733,389.771485945 L507.261746275,387.510525589 L509.320085986,371.458855014 L516.020796262,367.560482268 L518.071132955,364.28217025 L514.764809861,359.574719091 L513.119040444,345.160750624 L512.787227539,331.895729012 L515.977966287,320.183259977 L509.269399553,313.682869455 L507.917050571,310.314912057 L511.58750824,296.46670973 L511.017657689,291.598045372 L503.815201601,287.580920213 L502.129543122,282.126408686 L504.310523847,277.240892547 L511.822967151,277.227205966 L516.248817736,274.100146847 L519.947171075,273.277176229 L523.827916653,263.73352588 L522.872280286,260.976748969 L516.386358092,256.995653366 L512.409219536,244.181164752 L515.321434858,234.399891711 L514.95000729,231.449935877 L510.655961046,227.811853105 L504.696716972,225.807776311 L500.8979172,221.568419064 L496.066967045,220.30521915 L497.210648308,216.728923491 L495.256290787,214.956987703 L498.5804919,211.041160321 L503.769517333,211.823711396 L507.463160407,210.425586585 L508.385257268,208.600674283 L506.576323181,202.630678331 L507.143338564,200.086749005 L508.563784542,200.084092932 L511.876455554,203.256378368 L516.54450441,200.200493854 L518.325072063,197.594007907 L517.274479272,193.94972154 L512.426966057,189.329375953 L504.96587374,192.210227088 L502.666630133,191.710606892 L500.354824576,184.026089083 L501.043717584,180.402463766 L503.146174621,179.846946708 L504.19071555,180.75665483 L504.26817351,184.462895342 L508.126792822,183.963959433 L510.92331146,185.781833473 L515.831696882,185.700189926 L518.50269388,189.365185071 L520.382050786,189.121399359 L525.658648019,184.79199473 L528.016625431,185.218637508 L531.623660346,188.137319852 L534.23341288,187.78347989 L537.380177655,180.303194649 L529.949592232,174.826660444 L528.081088943,158.589574131 L529.366282856,156.499542832 L533.959408039,161.143093963 L537.469465487,160.906896144 L544.201279333,147.352872588 L684.343964512,147.417845165 L682.993761196,167.867934138 L685.204367026,174.167869621 L696.767387189,188.519884312 L699.366915862,193.221867545 L700.0,197.189873613 L694.729732552,212.692915184 L695.050131142,225.072637196 L692.359310623,235.703394017 L688.553420185,241.624344226 L681.940137519,244.114975806 L666.478913766,244.377129448 L669.393277711,239.109605318 L665.518720971,237.99911423 L659.278555182,239.52588839 L649.457256794,246.693252154 L635.607378143,253.202887639 L630.64954641,258.884154655 L629.13523092,268.798581765 L641.511207812,271.953600481 L652.665659129,280.509689742 L658.913948005,282.666883807 L661.852979665,288.040787774 L666.877185067,293.549531962 L673.316088526,296.988270735 L683.547287539,299.281397942 L686.074495661,303.096731182 L686.401900939,307.48606928 L683.737005442,326.537234172 L687.325351326,358.03625945 L685.014320641,371.11107475 L675.867324811,376.058115325 L669.995754951,377.16305458 L665.399659868,376.534664121 L664.038753134,374.824895691 L664.380011309,371.608494415 L659.145818796,369.494852395 L658.370219945,364.855539965 L656.36076536,363.436208423 L652.926630556,363.390105968 L652.821542166,372.567460938 L649.247794833,379.215384666 L645.31384003,381.59391505 L640.714716175,381.695518282 L635.745472247,379.243100071 L619.827201743,388.248991177 L609.824228867,386.675550154 L596.159946739,388.122834781 L592.414912444,387.258718418 L586.241459083,382.827136275 L578.651841187,383.137009114 L556.986796003,381.071879126 L552.75655031,384.404817831 L548.595795402,392.295159256 L545.686449033,394.61689443 L524.418847055,406.275885512 Z" fill="#cee3f5" id="GW.GA" stroke="#6e6e6e" stroke-width="0.4"><desc><labelrank>7</labelrank><code_hasc>GW.GA</code_hasc><name>Gabú</name><admin>Guinea Bissau</admin><type_en>Region</type_en><region>Leste</region><woe_id>2346609</woe_id><longitude>-14</longitude><woe_name>Gabu</woe_name><fips>PU10</fips><woe_label /><latitude>12</latitude><iso_a2>GW</iso_a2><postal>GA</postal><type>Região</type><id>GW.GA</id></desc></path><path d="M507.261746275,387.510525589 L517.150279733,389.771485945 L519.165934077,398.883166861 L524.418847055,406.275885512 L504.143058264,417.380603598 L494.68870257,419.086829454 L475.659405459,416.918228048 L466.186032659,417.936716727 L460.629730745,420.99491872 L433.835946718,458.795751709 L430.396459825,467.522856258 L425.847649001,485.754952646 L403.877791295,528.205386096 L389.678337117,544.053884381 L374.951287018,553.296308791 L372.301031972,552.898891642 L372.936579005,549.839454511 L378.564627471,545.78034656 L383.408619539,539.2937183 L383.408874684,537.707235272 L381.70144481,537.706939431 L379.563947464,541.757706805 L375.439113831,544.051424106 L370.223196813,543.596507476 L368.348164509,542.264310203 L367.621182242,540.14871815 L371.713615444,523.114333796 L373.095081204,520.281757607 L375.520680208,518.998169813 L379.421656005,509.914572537 L384.840436992,509.046760175 L384.841112049,504.287268843 L394.362611597,503.494704602 L392.75870687,499.981720512 L389.681577736,497.960673004 L392.730868321,494.712270066 L394.54911146,490.330522277 L394.288059176,486.194276387 L391.099661094,483.701109652 L389.029505365,489.744805879 L385.616471337,494.126216507 L381.037715284,496.854623786 L375.451943006,497.958170541 L376.728466286,501.679240298 L375.730027133,503.96428739 L373.454425813,504.445237347 L370.909117749,502.697362357 L369.200789151,507.456249248 L365.927990061,505.868453771 L365.823524316,510.335162686 L364.498233317,512.4404804 L359.012060319,516.309660113 L347.051296688,534.263831706 L341.721345773,537.687914808 L335.231217919,533.319762468 L332.603342579,529.870580584 L332.335052017,527.377259597 L341.714639914,522.134552343 L345.318584842,517.585486255 L347.135170834,507.444472842 L344.687435651,487.885183832 L347.152799647,482.230268548 L341.996737114,483.019709124 L340.65150979,486.456108416 L342.907937265,498.432285437 L342.651881298,504.041542121 L340.970105315,508.04428833 L335.049978213,505.697381286 L326.936245381,505.840902862 L320.551385563,502.661215304 L312.391091192,502.982370039 L308.893292161,496.121960184 L304.046092145,494.869096366 L300.645983179,492.437436252 L299.842642262,486.817300214 L300.553763898,471.642186013 L297.143546211,470.664615257 L296.829773072,468.501529668 L299.687041734,458.362992555 L307.947462976,448.637670506 L314.038502733,451.138472157 L318.986825736,450.945949998 L322.223740181,447.795335902 L326.847511539,445.769800871 L331.948721355,438.984682494 L345.369883721,428.092191737 L349.546880923,426.715916175 L361.302579737,433.175365042 L366.700869869,439.342478483 L372.485919761,441.971208267 L403.273226695,433.470954575 L413.396399268,418.692900551 L414.539970003,406.303273327 L417.624245564,399.621853039 L433.425060788,374.355748069 L437.451315363,376.452092638 L439.549557758,385.014147923 L443.324817402,390.216665692 L449.069205132,395.153487295 L455.385827179,397.774504324 L460.853031649,396.042077648 L466.953493903,389.846808794 L469.240409795,389.05263112 L473.024113956,389.264057824 L477.923092313,392.472295683 L491.597196014,388.291446814 L507.261746275,387.510525589 Z" fill="#cee3f5" id="GW.TO" stroke="#6e6e6e" stroke-width="0.4"><desc><labelrank>8</labelrank><code_hasc>GW.TO</code_hasc><name>Tombali</name><admin>Guinea Bissau</admin><type_en>Region</type_en><region>Sul</region><woe_id>2346608</woe_id><longitude>-14</longitude><woe_name>Tombali</woe_name><fips>PU07</fips><woe_label>Tombali, GW, Guinea-Bissau</woe_label><latitude>11</latitude><iso_a2>GW</iso_a2><postal>TO</postal><type>Região</type><id>GW.TO</id></desc></path></svg>