<?xml version='1.0' encoding='utf-8'?>
<svg height="700" width="700" xmlns="http://www.w3.org/2000/svg"><path d="M221.565013405,619.068364611 L220.274798928,618.13002681 L221.330428954,616.605227882 L222.855227882,618.247319035 L221.565013405,619.068364611 M75.4189008043,319.386729223 L73.8941018767,319.386729223 L74.1286863271,318.331099196 L75.4189008043,319.386729223 Z" fill="#cee3f5" id="SA.4293" stroke="#6e6e6e" stroke-width="0.4"><desc><labelrank>20</labelrank><code_hasc>-99</code_hasc><name /><admin>Saudi Arabia</admin><type_en /><region /><woe_id>-99</woe_id><longitude>41</longitude><woe_name /><fips /><woe_label /><latitude>16</latitude><iso_a2>SA</iso_a2><postal /><type /><id>SA.4293</id></desc></path><path d="M290.063672922,600.301608579 L291.471179625,579.892761394 L290.532841823,571.799597855 L302.848525469,559.014745308 L305.780831099,553.971179625 L312.935656836,551.273458445 L315.633378016,548.927613941 L316.806300268,543.766756032 L315.398793566,536.611930295 L316.454423592,534.383378016 L320.442359249,531.568364611 L320.91152815,525.0 L334.752010724,532.858579088 L346.950402145,534.266085791 L427.764745308,524.882707775 L432.221849866,523.592493298 L422.486595174,612.382707775 L422.486595174,612.5 L422.486595174,612.5 L414.27613941,617.426273458 L406.534852547,617.543565684 L397.268766756,606.048927614 L383.780160858,608.042895442 L368.649463807,606.63538874 L352.580428954,604.993297587 L343.314343164,600.77077748 L307.892091153,601.591823056 L305.663538874,603.820375335 L302.731233244,602.882037534 L299.681635389,605.345174263 L298.626005362,603.351206434 L293.230563003,603.46849866 L290.063672922,600.301608579 Z" fill="#cee3f5" id="SA.NJ" stroke="#6e6e6e" stroke-width="0.4"><desc><labelrank>6</labelrank><code_hasc>SA.NJ</code_hasc><name>Najran</name><admin>Saudi Arabia</admin><type_en>Region</type_en><region /><woe_id>2346960</woe_id><longitude>45</longitude><woe_name>Najran</woe_name><fips>SA16</fips><woe_label>Najran, SA, Saudi Arabia</woe_label><latitude>18</latitude><iso_a2>SA</iso_a2><postal>NJ</postal><type>Emirate|Mintaqah</type><id>SA.NJ</id></desc></path><path d="M432.221849866,523.592493298 L427.764745308,524.882707775 L346.950402145,534.266085791 L334.752010724,532.858579088 L320.91152815,525.0 L306.836461126,512.097855228 L300.971849866,503.300938338 L302.144772118,494.973190349 L305.194369973,489.81233244 L305.194369973,486.762734584 L296.983914209,476.089142091 L292.057640751,471.632037534 L282.674262735,456.735924933 L284.316353887,448.408176944 L284.081769437,441.605227882 L286.896782842,435.857908847 L285.371983914,423.0730563 L286.310321716,416.035522788 L280.445710456,414.04155496 L274.22922252,415.214477212 L271.179624665,414.158847185 L269.537533512,411.226541555 L270.358579088,403.602546917 L268.13002681,401.608579088 L253.233914209,400.318364611 L249.128686327,398.441689008 L244.202412869,386.947050938 L240.566353887,373.106568365 L236.578418231,369.001340483 L236.695710456,362.550268097 L237.634048257,346.012064343 L240.449061662,341.43766756 L240.918230563,338.50536193 L243.850536193,333.813672922 L246.782841823,332.288873995 L254.876005362,335.455764075 L272.704423592,336.394101877 L275.519436997,333.109919571 L274.111930295,328.183646113 L274.698391421,326.306970509 L281.149463807,319.034852547 L295.224530831,315.04691689 L300.854557641,310.589812332 L305.194369973,304.607908847 L328.066353887,304.373324397 L328.887399464,300.033512064 L326.658847185,292.995978552 L326.893431635,289.008042895 L317.158176944,274.932975871 L317.627345845,265.43230563 L321.497989276,263.438337802 L325.603217158,258.042895442 L332.40616622,253.116621984 L330.998659517,248.307640751 L325.485924933,244.554289544 L324.899463807,241.270107239 L325.837801609,238.220509383 L328.652815013,234.701742627 L330.998659517,233.646112601 L334.400134048,235.991957105 L337.215147453,233.294235925 L337.567024129,233.41152815 L340.382037534,235.405495979 L341.672252011,236.695710456 L342.727882038,238.337801609 L344.018096515,242.443029491 L345.542895442,244.202412869 L354.808981233,249.480563003 L360.087131367,250.653485255 L367.35924933,257.573726542 L377.680965147,258.981233244 L389.527479893,266.487935657 L397.386058981,265.901474531 L405.127345845,273.642761394 L405.831099196,273.99463807 L416.387399464,277.982573727 L416.856568365,278.334450402 L417.325737265,278.803619303 L418.498659517,281.853217158 L420.492627346,332.288873995 L421.782841823,334.282841823 L433.746648794,342.493297587 L442.308981233,350.821045576 L447.587131367,360.556300268 L448.173592493,364.896112601 L448.173592493,373.106568365 L440.19772118,451.692359249 L432.221849866,523.592493298 Z" fill="#cee3f5" id="SA.RI" stroke="#6e6e6e" stroke-width="0.4"><desc><labelrank>6</labelrank><code_hasc>SA.RI</code_hasc><name>Ar Riyad</name><admin>Saudi Arabia</admin><type_en>Region</type_en><region /><woe_id>2346951</woe_id><longitude>45</longitude><woe_name>Ar Riyad</woe_name><fips>SA10</fips><woe_label>Ar Riyad, SA, Saudi Arabia</woe_label><latitude>23</latitude><iso_a2>SA</iso_a2><postal>RI</postal><type>Emirate|Mintaqah</type><id>SA.RI</id></desc></path><path d="M486.058981233,237.047587131 L490.04691689,238.220509383 L486.058981233,239.04155496 L484.886058981,237.399463807 L482.540214477,239.510723861 L483.94772118,236.813002681 L486.058981233,237.047587131 M413.689678284,178.987935657 L415.449061662,179.222520107 L417.443029491,182.506702413 L420.492627346,192.35924933 L423.307640751,195.878016086 L447.939008043,194.939678284 L449.932975871,196.347184987 L450.519436997,199.396782842 L449.22922252,200.569705094 L451.340482574,199.748659517 L451.105898123,202.915549598 L454.272788204,206.551608579 L453.803619303,209.132037534 L455.563002681,212.768096515 L460.137399464,214.058310992 L458.612600536,215.81769437 L463.304289544,220.509383378 L462.014075067,224.145442359 L462.483243968,221.44772118 L460.841152815,223.207104558 L460.95844504,220.509383378 L460.020107239,224.497319035 L461.075737265,223.676273458 L461.193029491,225.670241287 L462.014075067,224.966487936 L462.600536193,226.491286863 L463.304289544,225.670241287 L463.186997319,228.367962466 L461.896782842,228.367962466 L463.069705094,228.602546917 L464.008042895,227.54691689 L464.594504021,229.775469169 L464.594504021,228.485254692 L466.236595174,228.016085791 L469.286193029,230.831099196 L469.75536193,230.127345845 L475.15080429,230.47922252 L477.731233244,233.880697051 L476.792895442,232.942359249 L471.397453083,234.349865952 L474.329758713,235.874664879 L475.38538874,234.701742627 L476.089142091,235.170911528 L474.916219839,238.220509383 L476.675603217,237.164879357 L477.848525469,237.634048257 L478.31769437,242.677613941 L479.021447721,243.498659517 L479.842493298,242.20844504 L481.25,242.677613941 L480.077077748,244.671581769 L481.132707775,245.258042895 L482.071045576,243.967828418 L481.953753351,244.90616622 L485.003351206,245.14075067 L483.830428954,243.615951743 L486.410857909,242.794906166 L486.528150134,246.079088472 L490.985254692,251.239946381 L496.732573727,254.524128686 L500.016756032,255.227882038 L506.350536193,261.444369973 L506.467828418,262.382707775 L501.893431635,260.271447721 L501.306970509,258.629356568 L500.720509383,259.450402145 L502.479892761,267.778150134 L507.875335121,270.945040214 L508.813672922,273.760053619 L508.813672922,278.569034853 L506.936997319,279.624664879 L506.702412869,284.433646113 L502.949061662,278.451742627 L501.072386059,280.797587131 L502.362600536,283.02613941 L501.77613941,285.841152815 L502.831769437,285.72386059 L502.831769437,284.550938338 L505.529490617,286.075737265 L506.233243968,290.532841823 L510.690348525,297.21849866 L511.159517426,298.977882038 L510.103887399,296.983914209 L507.288873995,295.459115282 L507.40616622,296.632037534 L509.048257373,296.983914209 L514.326407507,304.256032172 L515.264745308,305.077077748 L515.382037534,303.200402145 L518.548927614,305.780831099 L522.06769437,319.621313673 L523.592493298,319.973190349 L527.815013405,325.720509383 L529.222520107,330.998659517 L530.747319035,330.529490617 L533.327747989,334.400134048 L536.72922252,336.863270777 L540.599865952,336.863270777 L544.587801609,334.282841823 L546.347184987,334.282841823 L547.637399464,334.752010724 L547.637399464,338.153485255 L550.569705094,333.813672922 L554.08847185,335.455764075 L548.927613941,340.616621984 L547.168230563,345.894772118 L551.625335121,345.073726542 L557.02077748,347.30227882 L558.076407507,353.753351206 L591.97386059,393.280831099 L622.821715818,396.330428954 L680.060321716,400.318364611 L682.64075067,397.034182306 L700.0,422.603887399 L681.936997319,497.084450402 L630.09383378,518.666219839 L579.423592493,538.957774799 L477.613941019,557.372654155 L447.469839142,573.676273458 L427.882037534,598.894101877 L423.542225201,611.092493298 L422.486595174,612.5 L422.486595174,612.382707775 L432.221849866,523.592493298 L440.19772118,451.692359249 L448.173592493,373.106568365 L448.173592493,364.896112601 L447.587131367,360.556300268 L442.308981233,350.821045576 L433.746648794,342.493297587 L421.782841823,334.282841823 L420.492627346,332.288873995 L418.498659517,281.853217158 L417.325737265,278.803619303 L416.856568365,278.334450402 L416.387399464,277.982573727 L405.831099196,273.99463807 L405.127345845,273.642761394 L397.386058981,265.901474531 L389.527479893,266.487935657 L377.680965147,258.981233244 L367.35924933,257.573726542 L360.087131367,250.653485255 L354.808981233,249.480563003 L345.542895442,244.202412869 L344.018096515,242.443029491 L342.727882038,238.337801609 L342.258713137,237.516756032 L341.672252011,236.695710456 L340.382037534,235.405495979 L337.567024129,233.41152815 L337.215147453,233.294235925 L335.5730563,230.127345845 L335.5730563,229.423592493 L335.690348525,228.837131367 L335.924932976,227.78150134 L336.745978552,225.670241287 L337.449731903,224.497319035 L342.845174263,217.928954424 L344.36997319,215.58310992 L355.747319035,194.235924933 L357.623994638,191.420911528 L360.087131367,188.605898123 L363.254021448,185.673592493 L367.711126005,183.093163539 L386.595174263,176.055630027 L413.689678284,178.987935657 Z" fill="#cee3f5" id="SA.SH" stroke="#6e6e6e" stroke-width="0.4"><desc><labelrank>4</labelrank><code_hasc>SA.SH</code_hasc><name>Ash Sharqiyah</name><admin>Saudi Arabia</admin><type_en>Region</type_en><region /><woe_id>2346954</woe_id><longitude>50</longitude><woe_name>Ash Sharqiyah</woe_name><fips>SA06</fips><woe_label>Ash Sharqiyah, SA, Saudi Arabia</woe_label><latitude>22</latitude><iso_a2>SA</iso_a2><postal>SH</postal><type>Emirate|Mintaqah</type><id>SA.SH</id></desc></path><path d="M167.845174263,261.678954424 L168.548927614,265.66689008 L166.320375335,271.53150134 L167.845174263,273.290884718 L171.012064343,273.173592493 L172.06769437,275.284852547 L169.721849866,288.538873995 L171.129356568,297.21849866 L170.425603217,306.836461126 L171.83310992,310.003351206 L175.0,311.058981233 L184.148793566,308.361260054 L192.476541555,308.009383378 L198.22386059,302.848525469 L201.273458445,301.792895442 L206.903485255,301.675603217 L218.98458445,304.256032172 L226.608579088,307.540214477 L226.491286863,320.325067024 L228.602546917,322.436327078 L233.880697051,324.195710456 L237.164879357,335.103887399 L240.918230563,338.50536193 L240.449061662,341.43766756 L237.634048257,346.012064343 L236.695710456,362.550268097 L232.355898123,361.846514745 L228.837131367,362.667560322 L228.133378016,364.075067024 L229.189008043,370.408847185 L227.54691689,373.575737265 L212.768096515,381.903485255 L213.11997319,384.249329759 L218.046246649,387.416219839 L217.225201072,389.996648794 L210.539544236,393.163538874 L195.878016086,405.010053619 L191.069034853,411.10924933 L182.389410188,409.701742627 L175.703753351,414.04155496 L171.129356568,413.220509383 L170.894772118,405.713806971 L164.912868633,401.725871314 L167.493297587,393.51541555 L166.20308311,389.879356568 L161.628686327,389.879356568 L151.77613941,392.225201072 L149.547587131,388.002680965 L143.565683646,388.471849866 L141.689008043,387.65080429 L133.361260054,377.798257373 L123.860589812,378.150134048 L122.570375335,372.637399464 L121.280160858,372.871983914 L122.335790885,374.396782842 L120.576407507,373.45844504 L117.526809651,363.840482574 L105.914879357,353.518766756 L101.223190349,350.703753351 L102.865281501,349.882707775 L101.457774799,350.0 L101.809651475,348.240616622 L100.636729223,348.827077748 L100.754021448,350.351876676 L98.9946380697,350.23458445 L92.8954423592,344.721849866 L91.1360589812,344.956434316 L91.1360589812,346.246648794 L87.6172922252,345.308310992 L84.8022788204,341.554959786 L84.8022788204,339.560991957 L85.9752010724,339.560991957 L83.5120643432,335.103887399 L85.3887399464,330.881367292 L86.0924932976,330.646782842 L86.7962466488,330.529490617 L91.605227882,330.412198391 L92.3089812332,330.060321716 L93.2473190349,329.591152815 L94.0683646113,328.887399464 L95.8277479893,327.128016086 L96.5315013405,326.658847185 L97.2352546917,326.54155496 L98.0563002681,326.658847185 L101.105898123,327.128016086 L101.9269437,327.010723861 L102.747989276,326.658847185 L103.569034853,326.189678284 L104.272788204,325.251340483 L105.09383378,311.997319035 L106.618632708,303.786863271 L106.618632708,302.965817694 L105.563002681,301.558310992 L104.85924933,301.441018767 L102.747989276,301.206434316 L102.278820375,301.089142091 L102.044235925,300.971849866 L101.9269437,300.854557641 L101.692359249,300.033512064 L100.754021448,295.576407507 L99.4638069705,291.705764075 L93.8337801609,285.606568365 L92.5435656836,281.735924933 L86.327077748,277.513404826 L85.6233243968,277.396112601 L84.9195710456,277.630697051 L83.6293565684,278.569034853 L83.0428954424,278.569034853 L82.9256032172,278.217158177 L82.6910187668,277.513404826 L82.4564343164,275.988605898 L82.1045576408,274.463806971 L80.2278820375,268.951072386 L80.3451742627,268.247319035 L80.4624664879,267.543565684 L81.1662198391,266.018766756 L83.7466487936,262.26541555 L83.8639410188,260.623324397 L83.6293565684,259.684986595 L83.0428954424,259.098525469 L82.3391420912,258.629356568 L78.7030831099,257.221849866 L77.8820375335,256.86997319 L77.1782841823,256.40080429 L76.5918230563,255.579758713 L76.0053619303,254.876005362 L75.6534852547,254.054959786 L75.4189008043,253.351206434 L75.1843163539,252.530160858 L75.1843163539,251.591823056 L75.1843163539,250.067024129 L76.3572386059,243.146782842 L76.0053619303,239.862600536 L75.7707774799,239.158847185 L75.5361930295,238.806970509 L75.0670241287,238.220509383 L74.4805630027,237.751340483 L73.8941018767,237.516756032 L73.5422252011,237.399463807 L70.7272117962,237.634048257 L70.023458445,237.634048257 L69.5542895442,237.164879357 L69.436997319,236.578418231 L69.6715817694,235.991957105 L70.2580428954,235.405495979 L71.0790884718,235.170911528 L74.8324396783,234.467158177 L84.2158176944,230.831099196 L86.0924932976,231.065683646 L87.5,231.886729223 L90.1977211796,233.763404826 L91.1360589812,234.232573727 L93.2473190349,234.584450402 L101.575067024,231.417560322 L102.16152815,231.534852547 L103.099865952,232.238605898 L103.451742627,232.942359249 L103.686327078,233.528820375 L104.390080429,236.930294906 L104.976541555,238.455093834 L105.563002681,239.745308311 L107.205093834,242.677613941 L107.908847185,243.381367292 L108.847184987,243.850536193 L115.415549598,245.375335121 L115.767426273,245.961796247 L115.767426273,247.603887399 L115.884718499,248.307640751 L116.471179625,248.894101877 L118.347855228,250.301608579 L118.934316354,250.888069705 L119.051608579,251.591823056 L118.934316354,253.820375335 L119.168900804,254.406836461 L119.872654155,254.641420912 L120.810991957,254.406836461 L125.971849866,251.357238606 L131.719168901,253.585790885 L132.540214477,253.233914209 L132.774798928,252.647453083 L132.657506702,250.536193029 L133.126675603,250.184316354 L133.713136729,250.301608579 L134.41689008,251.00536193 L134.768766756,251.709115282 L135.237935657,253.233914209 L135.941689008,253.93766756 L137.11461126,254.524128686 L141.219839142,256.283512064 L146.146112601,260.036863271 L147.788203753,260.271447721 L151.072386059,260.388739946 L164.795576408,258.863941019 L165.616621984,258.981233244 L166.320375335,259.450402145 L167.845174263,261.678954424 Z" fill="#cee3f5" id="SA.MD" stroke="#6e6e6e" stroke-width="0.4"><desc><labelrank>6</labelrank><code_hasc>SA.MD</code_hasc><name>Al Madinah</name><admin>Saudi Arabia</admin><type_en>Region</type_en><region /><woe_id>2346958</woe_id><longitude>39</longitude><woe_name>Al Madinah</woe_name><fips>SA05</fips><woe_label>Al Madinah, SA, Saudi Arabia</woe_label><latitude>24</latitude><iso_a2>SA</iso_a2><postal>MD</postal><type>Emirate|Mintaqah</type><id>SA.MD</id></desc></path><path d="M325.485924933,244.554289544 L330.998659517,248.307640751 L332.40616622,253.116621984 L325.603217158,258.042895442 L321.497989276,263.438337802 L317.627345845,265.43230563 L317.158176944,274.932975871 L326.893431635,289.008042895 L326.658847185,292.995978552 L328.887399464,300.033512064 L328.066353887,304.373324397 L305.194369973,304.607908847 L300.854557641,310.589812332 L295.224530831,315.04691689 L281.149463807,319.034852547 L274.698391421,326.306970509 L274.111930295,328.183646113 L275.519436997,333.109919571 L272.704423592,336.394101877 L254.876005362,335.455764075 L246.782841823,332.288873995 L243.850536193,333.813672922 L240.918230563,338.50536193 L237.164879357,335.103887399 L233.880697051,324.195710456 L228.602546917,322.436327078 L226.491286863,320.325067024 L226.608579088,307.540214477 L218.98458445,304.256032172 L231.417560322,299.095174263 L236.930294906,297.804959786 L235.405495979,290.884718499 L237.516756032,288.89075067 L243.498659517,290.063672922 L243.498659517,283.495308311 L245.492627346,279.155495979 L250.653485255,278.217158177 L256.86997319,269.654825737 L269.537533512,260.388739946 L278.217158177,256.518096515 L281.970509383,250.536193029 L285.95844504,247.486595174 L300.737265416,240.566353887 L303.786863271,241.387399464 L313.639410188,249.363270777 L320.559651475,249.949731903 L325.485924933,244.554289544 Z" fill="#cee3f5" id="SA.QS" stroke="#6e6e6e" stroke-width="0.4"><desc><labelrank>4</labelrank><code_hasc>SA.QS</code_hasc><name>Al Quassim</name><admin>Saudi Arabia</admin><type_en>Region</type_en><region /><woe_id>2346952</woe_id><longitude>43</longitude><woe_name>Al Quassim</woe_name><fips>SA08</fips><woe_label>Al Qasim, SA, Saudi Arabia</woe_label><latitude>25</latitude><iso_a2>SA</iso_a2><postal>QS</postal><type>Emirate|Mintaqah</type><id>SA.QS</id></desc></path><path d="M330.998659517,233.646112601 L328.652815013,234.701742627 L325.837801609,238.220509383 L324.899463807,241.270107239 L325.485924933,244.554289544 L320.559651475,249.949731903 L313.639410188,249.363270777 L303.786863271,241.387399464 L300.737265416,240.566353887 L285.95844504,247.486595174 L281.970509383,250.536193029 L278.217158177,256.518096515 L269.537533512,260.388739946 L256.86997319,269.654825737 L250.653485255,278.217158177 L245.492627346,279.155495979 L243.498659517,283.495308311 L243.498659517,290.063672922 L237.516756032,288.89075067 L235.405495979,290.884718499 L236.930294906,297.804959786 L231.417560322,299.095174263 L218.98458445,304.256032172 L206.903485255,301.675603217 L201.273458445,301.792895442 L198.22386059,302.848525469 L192.476541555,308.009383378 L184.148793566,308.361260054 L175.0,311.058981233 L171.83310992,310.003351206 L170.425603217,306.836461126 L171.129356568,297.21849866 L169.721849866,288.538873995 L172.06769437,275.284852547 L171.012064343,273.173592493 L167.845174263,273.290884718 L166.320375335,271.53150134 L168.548927614,265.66689008 L167.845174263,261.678954424 L172.888739946,251.709115282 L174.413538874,249.715147453 L178.518766756,246.430965147 L179.222520107,245.727211796 L180.043565684,242.794906166 L172.654155496,236.813002681 L169.36997319,221.68230563 L168.666219839,220.040214477 L166.789544236,218.046246649 L163.153485255,214.762064343 L160.33847185,213.002680965 L158.813672922,211.243297587 L157.64075067,210.539544236 L155.881367292,209.835790885 L145.559651475,206.786193029 L144.855898123,206.434316354 L144.269436997,206.082439678 L143.800268097,205.261394102 L149.078418231,200.686997319 L161.628686327,195.408847185 L167.258713137,194.118632708 L179.457104558,187.784852547 L191.890080429,183.327747989 L194.587801609,183.79691689 L200.804289544,186.142761394 L220.274798928,182.506702413 L231.534852547,185.790884718 L241.387399464,184.735254692 L253.70308311,188.254021448 L258.981233244,194.118632708 L262.617292225,196.229892761 L265.784182306,196.112600536 L272.235254692,193.884048257 L273.173592493,194.587801609 L274.111930295,199.983243968 L275.988605898,201.508042895 L281.970509383,201.742627346 L288.421581769,204.440348525 L296.162868633,200.921581769 L298.391420912,202.563672922 L308.243967828,221.91689008 L311.058981233,223.441689008 L322.201742627,225.435656836 L330.998659517,233.646112601 Z" fill="#cee3f5" id="SA.HA" stroke="#6e6e6e" stroke-width="0.4"><desc><labelrank>6</labelrank><code_hasc>SA.HA</code_hasc><name>Ha'il</name><admin>Saudi Arabia</admin><type_en>Region</type_en><region /><woe_id>2346957</woe_id><longitude>41</longitude><woe_name>Ha'il</woe_name><fips>SA13</fips><woe_label>Hail, SA, Saudi Arabia</woe_label><latitude>27</latitude><iso_a2>SA</iso_a2><postal>HA</postal><type>Emirate|Mintaqah</type><id>SA.HA</id></desc></path><path d="M72.7211796247,300.38538874 L73.6595174263,302.965817694 L70.8445040214,301.206434316 L71.4309651475,299.916219839 L72.7211796247,300.38538874 M66.8565683646,300.38538874 L69.7888739946,301.792895442 L69.436997319,302.965817694 L71.3136729223,302.262064343 L69.2024128686,304.138739946 L65.331769437,298.860589812 L66.8565683646,300.38538874 M68.0294906166,297.570375335 L67.2084450402,297.101206434 L67.677613941,296.397453083 L68.0294906166,297.570375335 M63.8069705094,296.280160858 L68.6159517426,301.089142091 L63.572386059,296.632037534 L62.2821715818,296.983914209 L63.8069705094,296.280160858 M70.609919571,296.045576408 L70.2580428954,298.391420912 L69.6715817694,295.576407507 L70.609919571,296.045576408 M58.7634048257,293.817024129 L62.1648793566,296.514745308 L56.4175603217,293.582439678 L58.0596514745,290.884718499 L57.3558981233,292.644101877 L58.7634048257,293.817024129 M59.5844504021,290.532841823 L60.4054959786,290.767426273 L58.4115281501,290.298257373 L58.1769436997,288.773458445 L58.8806970509,285.95844504 L60.0536193029,285.137399464 L58.7634048257,287.483243968 L60.0536193029,288.89075067 L59.5844504021,290.532841823 M53.4852546917,173.592493298 L60.9919571046,185.087131367 L63.4550938338,186.025469169 L75.4189008043,183.79691689 L87.2654155496,187.081099196 L92.8954423592,187.784852547 L93.7164879357,187.550268097 L95.1239946381,186.611930295 L98.0563002681,181.216487936 L98.6427613941,180.747319035 L100.988605898,179.457104558 L103.099865952,177.69772118 L103.803619303,177.463136729 L104.507372654,177.69772118 L105.09383378,178.16689008 L105.445710456,179.808981233 L104.976541555,192.59383378 L108.847184987,198.106568365 L110.254691689,198.927613941 L115.767426273,200.921581769 L123.274128686,201.977211796 L126.323726542,201.15616622 L128.786863271,202.329088472 L129.373324397,202.446380697 L130.898123324,202.446380697 L131.601876676,204.674932976 L132.071045576,205.261394102 L132.774798928,205.847855228 L133.595844504,205.965147453 L134.41689008,205.847855228 L135.237935657,205.613270777 L138.639410188,204.08847185 L139.577747989,203.853887399 L140.750670241,203.736595174 L141.571715818,203.736595174 L142.158176944,203.971179625 L142.627345845,204.205764075 L143.800268097,205.261394102 L144.269436997,206.082439678 L144.855898123,206.434316354 L145.559651475,206.786193029 L155.881367292,209.835790885 L157.64075067,210.539544236 L158.813672922,211.243297587 L160.33847185,213.002680965 L163.153485255,214.762064343 L166.789544236,218.046246649 L168.666219839,220.040214477 L169.36997319,221.68230563 L172.654155496,236.813002681 L180.043565684,242.794906166 L179.222520107,245.727211796 L178.518766756,246.430965147 L174.413538874,249.715147453 L172.888739946,251.709115282 L167.845174263,261.678954424 L166.320375335,259.450402145 L165.616621984,258.981233244 L164.795576408,258.863941019 L151.072386059,260.388739946 L147.788203753,260.271447721 L146.146112601,260.036863271 L135.941689008,253.93766756 L135.237935657,253.233914209 L134.768766756,251.709115282 L134.41689008,251.00536193 L133.713136729,250.301608579 L133.126675603,250.184316354 L132.657506702,250.536193029 L132.774798928,252.647453083 L132.540214477,253.233914209 L131.719168901,253.585790885 L125.971849866,251.357238606 L120.810991957,254.406836461 L119.872654155,254.641420912 L119.168900804,254.406836461 L118.934316354,253.820375335 L119.051608579,251.591823056 L118.934316354,250.888069705 L118.347855228,250.301608579 L116.471179625,248.894101877 L115.884718499,248.307640751 L115.767426273,247.603887399 L115.767426273,245.961796247 L115.415549598,245.375335121 L108.847184987,243.850536193 L107.908847185,243.381367292 L107.205093834,242.677613941 L105.563002681,239.745308311 L104.976541555,238.455093834 L104.390080429,236.930294906 L103.686327078,233.528820375 L103.451742627,232.942359249 L103.099865952,232.238605898 L102.16152815,231.534852547 L101.575067024,231.417560322 L93.2473190349,234.584450402 L91.1360589812,234.232573727 L90.1977211796,233.763404826 L87.5,231.886729223 L86.0924932976,231.065683646 L84.2158176944,230.831099196 L74.8324396783,234.467158177 L71.0790884718,235.170911528 L70.2580428954,235.405495979 L69.6715817694,235.991957105 L69.436997319,236.578418231 L69.5542895442,237.164879357 L70.023458445,237.634048257 L70.7272117962,237.634048257 L72.9557640751,237.399463807 L73.5422252011,237.399463807 L73.8941018767,237.516756032 L74.4805630027,237.751340483 L75.0670241287,238.220509383 L75.5361930295,238.806970509 L75.7707774799,239.158847185 L76.0053619303,239.862600536 L76.3572386059,243.146782842 L75.1843163539,250.067024129 L75.1843163539,251.591823056 L75.1843163539,252.530160858 L75.4189008043,253.351206434 L75.6534852547,254.054959786 L76.0053619303,254.876005362 L76.5918230563,255.579758713 L77.1782841823,256.40080429 L77.8820375335,256.86997319 L78.7030831099,257.221849866 L82.3391420912,258.629356568 L83.0428954424,259.098525469 L83.6293565684,259.684986595 L83.8639410188,260.623324397 L83.7466487936,262.26541555 L81.1662198391,266.018766756 L80.4624664879,267.543565684 L80.3451742627,268.247319035 L80.2278820375,268.951072386 L80.3451742627,270.475871314 L82.1045576408,274.463806971 L82.4564343164,275.988605898 L82.6910187668,277.513404826 L82.9256032172,278.217158177 L83.0428954424,278.569034853 L83.6293565684,278.569034853 L84.9195710456,277.630697051 L85.6233243968,277.396112601 L86.327077748,277.513404826 L92.5435656836,281.735924933 L93.8337801609,285.606568365 L99.4638069705,291.705764075 L100.754021448,295.576407507 L101.692359249,300.033512064 L101.9269437,300.854557641 L102.044235925,300.971849866 L102.278820375,301.089142091 L102.747989276,301.206434316 L104.85924933,301.441018767 L105.563002681,301.558310992 L106.618632708,302.965817694 L106.618632708,303.786863271 L105.09383378,311.997319035 L104.272788204,325.251340483 L103.569034853,326.189678284 L102.747989276,326.658847185 L101.9269437,327.010723861 L101.105898123,327.128016086 L98.0563002681,326.658847185 L97.2352546917,326.54155496 L96.5315013405,326.658847185 L95.8277479893,327.128016086 L94.0683646113,328.887399464 L93.2473190349,329.591152815 L92.3089812332,330.060321716 L91.605227882,330.412198391 L86.7962466488,330.529490617 L86.0924932976,330.646782842 L85.3887399464,330.881367292 L83.5120643432,335.103887399 L78.8203753351,327.597184987 L78.8203753351,325.368632708 L77.2955764075,325.251340483 L76.3572386059,323.257372654 L79.9932975871,322.788203753 L80.9316353887,319.386729223 L80.1105898123,311.645442359 L75.8880697051,305.898123324 L75.1843163539,301.910187668 L70.9617962466,293.699731903 L67.3257372654,289.359919571 L66.3873994638,290.767426273 L63.572386059,288.304289544 L62.399463807,284.668230563 L64.0415549598,282.322386059 L63.9242627346,279.507372654 L58.0596514745,275.871313673 L52.3123324397,261.209785523 L49.9664879357,256.283512064 L45.9785522788,251.357238606 L44.2191689008,245.609919571 L38.1199731903,238.337801609 L37.6508042895,234.232573727 L30.1441018767,224.262734584 L26.273458445,213.11997319 L21.6990616622,205.261394102 L18.8840482574,202.915549598 L20.995308311,202.211796247 L20.7607238606,201.39075067 L15.5998659517,198.575737265 L8.67962466488,199.865951743 L9.50067024129,198.341152815 L8.56233243968,198.106568365 L7.38941018767,199.748659517 L7.97587131367,198.22386059 L6.33378016086,198.810321716 L4.45710455764,196.933646113 L1.05563002681,200.686997319 L0.938337801609,198.22386059 L0.0,198.22386059 L1.87667560322,195.29155496 L2.93230563003,195.643431635 L3.75335120643,191.772788204 L8.79691689008,182.975871314 L8.44504021448,177.815013405 L10.7908847185,172.419571046 L10.6735924933,171.363941019 L11.1427613941,170.308310992 L11.1427613941,169.956434316 L11.1427613941,169.956434316 L13.9577747989,170.073726542 L15.0134048257,170.073726542 L16.1863270777,170.191018767 L23.2238605898,171.83310992 L24.0449061662,171.715817694 L28.5020107239,169.721849866 L35.1876675603,169.018096515 L44.1018766756,169.018096515 L50.3183646113,171.012064343 L52.4296246649,172.536863271 L53.4852546917,173.592493298 Z" fill="#cee3f5" id="SA.TB" stroke="#6e6e6e" stroke-width="0.4"><desc><labelrank>6</labelrank><code_hasc>SA.TB</code_hasc><name>Tabuk</name><admin>Saudi Arabia</admin><type_en>Region</type_en><region /><woe_id>2346962</woe_id><longitude>36</longitude><woe_name>Tabuk</woe_name><fips>SA19</fips><woe_label>Tabuk, SA, Saudi Arabia</woe_label><latitude>27</latitude><iso_a2>SA</iso_a2><postal>TB</postal><type>Emirate|Mintaqah</type><id>SA.TB</id></desc></path><path d="M337.215147453,233.294235925 L334.400134048,235.991957105 L330.998659517,233.646112601 L322.201742627,225.435656836 L311.058981233,223.441689008 L308.243967828,221.91689008 L298.391420912,202.563672922 L296.162868633,200.921581769 L288.421581769,204.440348525 L281.970509383,201.742627346 L275.988605898,201.508042895 L274.111930295,199.983243968 L273.173592493,194.587801609 L272.235254692,193.884048257 L265.784182306,196.112600536 L262.617292225,196.229892761 L258.981233244,194.118632708 L253.70308311,188.254021448 L241.387399464,184.735254692 L231.534852547,185.790884718 L220.274798928,182.506702413 L200.804289544,186.142761394 L194.587801609,183.79691689 L200.217828418,178.049597855 L201.625335121,165.147453083 L203.150134048,162.215147453 L234.584450402,143.213806971 L238.806970509,139.81233244 L239.27613941,137.583780161 L232.590482574,131.601876676 L228.133378016,123.508713137 L216.990616622,120.928284182 L207.841823056,114.359919571 L185.673592493,113.304289544 L181.685656836,112.131367292 L176.172922252,108.02613941 L155.060321716,103.803619303 L127.027479893,104.976541555 L123.508713137,104.038203753 L114.242627346,90.9014745308 L114.359919571,86.2097855228 L119.051608579,72.4865951743 L150.016756032,65.5663538874 L156.350536193,61.226541555 L193.649463807,69.7888739946 L245.844504021,102.865281501 L276.105898123,129.842493298 L327.714477212,172.419571046 L380.965147453,177.228552279 L383.193699732,176.759383378 L367.711126005,183.093163539 L363.254021448,185.673592493 L360.087131367,188.605898123 L357.623994638,191.420911528 L355.747319035,194.235924933 L344.36997319,215.58310992 L342.845174263,217.928954424 L337.449731903,224.497319035 L336.745978552,225.670241287 L335.924932976,227.78150134 L335.690348525,228.837131367 L335.5730563,229.423592493 L335.5730563,230.127345845 L337.215147453,233.294235925 Z" fill="#cee3f5" id="SA.HS" stroke="#6e6e6e" stroke-width="0.4"><desc><labelrank>4</labelrank><code_hasc>SA.HS</code_hasc><name>Al Hudud ash Shamaliyah</name><admin>Saudi Arabia</admin><type_en>Region</type_en><region /><woe_id>2346961</woe_id><longitude>43</longitude><woe_name>Al Hudud ash Shamaliyah</woe_name><fips>SA15</fips><woe_label>Al Hudud ash Shamaliyah, SA, Saudi Arabia</woe_label><latitude>29</latitude><iso_a2>SA</iso_a2><postal>HS</postal><type>Emirate|Mintaqah</type><id>SA.HS</id></desc></path><path d="M194.587801609,183.79691689 L191.890080429,183.327747989 L179.457104558,187.784852547 L167.258713137,194.118632708 L161.628686327,195.408847185 L149.078418231,200.686997319 L143.800268097,205.261394102 L142.158176944,203.971179625 L141.571715818,203.736595174 L140.750670241,203.736595174 L139.577747989,203.853887399 L138.639410188,204.08847185 L134.41689008,205.847855228 L133.595844504,205.965147453 L132.774798928,205.847855228 L132.071045576,205.261394102 L131.601876676,204.674932976 L130.898123324,202.446380697 L129.373324397,202.446380697 L128.786863271,202.329088472 L126.323726542,201.15616622 L123.274128686,201.977211796 L115.767426273,200.921581769 L110.254691689,198.927613941 L108.847184987,198.106568365 L104.976541555,192.59383378 L105.445710456,179.808981233 L105.09383378,178.16689008 L103.803619303,177.463136729 L103.099865952,177.69772118 L100.988605898,179.457104558 L98.6427613941,180.747319035 L98.0563002681,181.216487936 L93.7164879357,187.550268097 L92.8954423592,187.784852547 L87.2654155496,187.081099196 L75.4189008043,183.79691689 L63.4550938338,186.025469169 L60.9919571046,185.087131367 L53.4852546917,173.592493298 L52.4296246649,172.536863271 L50.3183646113,171.012064343 L44.1018766756,169.018096515 L35.1876675603,169.018096515 L28.5020107239,169.721849866 L25.9215817694,170.542895442 L24.0449061662,171.715817694 L23.2238605898,171.83310992 L16.1863270777,170.191018767 L15.0134048257,170.073726542 L13.9577747989,170.073726542 L11.1427613941,169.956434316 L11.1427613941,169.956434316 L10.6735924933,169.604557641 L16.0690348525,153.066353887 L50.7875335121,161.863270777 L65.5663538874,151.77613941 L74.5978552279,139.225871314 L99.2292225201,135.120643432 L104.976541555,123.743297587 L116.002010724,118.347855228 L86.2097855228,79.8760053619 L119.051608579,72.4865951743 L114.359919571,86.2097855228 L114.242627346,90.9014745308 L123.508713137,104.038203753 L127.027479893,104.976541555 L155.060321716,103.803619303 L176.172922252,108.02613941 L181.685656836,112.131367292 L185.673592493,113.304289544 L207.841823056,114.359919571 L216.990616622,120.928284182 L228.133378016,123.508713137 L232.590482574,131.601876676 L239.27613941,137.583780161 L238.806970509,139.81233244 L234.584450402,143.213806971 L203.150134048,162.215147453 L201.625335121,165.147453083 L200.217828418,178.049597855 L194.587801609,183.79691689 Z" fill="#cee3f5" id="SA.JF" stroke="#6e6e6e" stroke-width="0.4"><desc><labelrank>4</labelrank><code_hasc>SA.JF</code_hasc><name>Al Jawf</name><admin>Saudi Arabia</admin><type_en>Region</type_en><region /><woe_id>2346950</woe_id><longitude>38</longitude><woe_name>Al Jawf</woe_name><fips>SA03</fips><woe_label>Al Jawf, SA, Saudi Arabia</woe_label><latitude>29</latitude><iso_a2>SA</iso_a2><postal>JF</postal><type>Emirate|Mintaqah</type><id>SA.JF</id></desc></path><path d="M235.874664879,483.595844504 L234.115281501,489.225871314 L235.522788204,494.504021448 L229.071715818,499.782171582 L227.54691689,506.115951743 L223.910857909,513.50536193 L216.873324397,514.795576408 L211.477882038,527.815013405 L206.903485255,528.753351206 L198.927613941,521.715817694 L198.22386059,507.288873995 L197.050938338,505.529490617 L193.884048257,504.356568365 L193.180294906,502.362600536 L197.168230563,498.491957105 L205.026809651,496.146112601 L208.897453083,488.756702413 L208.428284182,481.132707775 L210.422252011,478.434986595 L212.768096515,478.31769437 L214.527479893,479.373324397 L217.811662198,485.120643432 L227.077747989,483.94772118 L232.473190349,481.48458445 L235.874664879,483.595844504 Z" fill="#cee3f5" id="SA.BA" stroke="#6e6e6e" stroke-width="0.4"><desc><labelrank>4</labelrank><code_hasc>SA.BA</code_hasc><name>Al Bahah</name><admin>Saudi Arabia</admin><type_en>Region</type_en><region /><woe_id>2346949</woe_id><longitude>41</longitude><woe_name>Al Bahah</woe_name><fips>SA02</fips><woe_label>Al Baha, SA, Saudi Arabia</woe_label><latitude>20</latitude><iso_a2>SA</iso_a2><postal>BA</postal><type>Emirate|Mintaqah</type><id>SA.BA</id></desc></path><path d="M320.91152815,525.0 L320.442359249,531.568364611 L316.454423592,534.383378016 L315.398793566,536.611930295 L316.806300268,543.766756032 L315.633378016,548.927613941 L312.935656836,551.273458445 L305.780831099,553.971179625 L302.848525469,559.014745308 L290.532841823,571.799597855 L291.471179625,579.892761394 L290.063672922,600.301608579 L284.785522788,597.369302949 L282.205093834,597.252010724 L279.741957105,598.542225201 L276.809651475,594.202412869 L276.223190349,593.381367292 L272.235254692,591.270107239 L270.123994638,587.516756032 L266.605227882,584.467158177 L265.315013405,579.892761394 L263.672922252,579.658176944 L262.148123324,580.596514745 L260.623324397,581.652144772 L260.036863271,582.238605898 L259.56769437,582.942359249 L258.746648794,584.349865952 L256.752680965,591.035522788 L256.283512064,591.621983914 L255.579758713,591.856568365 L254.876005362,591.856568365 L254.054959786,591.504691689 L253.233914209,590.918230563 L250.067024129,587.516756032 L249.480563003,586.695710456 L248.424932976,584.232573727 L247.721179625,583.528820375 L239.628016086,582.473190349 L238.220509383,581.182975871 L237.868632708,580.361930295 L237.399463807,579.071715818 L237.164879357,578.719839142 L236.695710456,578.133378016 L235.757372654,577.54691689 L234.936327078,577.31233244 L231.886729223,577.54691689 L231.182975871,577.31233244 L230.596514745,576.725871314 L230.24463807,574.966487936 L230.948391421,568.398123324 L230.596514745,567.811662198 L229.306300268,567.342493298 L225.318364611,567.577077748 L226.843163539,561.008713137 L224.028150134,551.977211796 L220.509383378,550.452412869 L214.644772118,549.983243968 L213.002680965,548.341152815 L212.298927614,545.29155496 L213.237265416,535.790884718 L215.700402145,536.963806971 L220.392091153,534.266085791 L226.843163539,534.500670241 L228.954423592,532.389410188 L230.127345845,528.753351206 L228.250670241,522.771447721 L229.540884718,515.733914209 L227.54691689,513.036193029 L223.910857909,513.50536193 L227.54691689,506.115951743 L229.071715818,499.782171582 L235.522788204,494.504021448 L234.115281501,489.225871314 L235.874664879,483.595844504 L239.862600536,491.923592493 L243.498659517,493.917560322 L266.487935657,477.731233244 L276.692359249,475.502680965 L281.853217158,476.441018767 L292.057640751,471.632037534 L296.983914209,476.089142091 L305.194369973,486.762734584 L305.194369973,489.81233244 L302.144772118,494.973190349 L300.971849866,503.300938338 L306.836461126,512.097855228 L320.91152815,525.0 Z" fill="#cee3f5" id="SA.AS" stroke="#6e6e6e" stroke-width="0.4"><desc><labelrank>4</labelrank><code_hasc>SA.AS</code_hasc><name>`Asir</name><admin>Saudi Arabia</admin><type_en>Region</type_en><region /><woe_id>2346955</woe_id><longitude>42</longitude><woe_name>`Asir</woe_name><fips>SA11</fips><woe_label>Asir, SA, Saudi Arabia</woe_label><latitude>19</latitude><iso_a2>SA</iso_a2><postal>AS</postal><type>Emirate|Mintaqah</type><id>SA.AS</id></desc></path><path d="M228.837131367,624.581099196 L233.646112601,625.871313673 L234.701742627,625.519436997 L233.1769437,624.463806971 L234.115281501,622.469839142 L236.10924933,623.173592493 L236.461126005,624.932975871 L238.924262735,626.340482574 L238.572386059,630.797587131 L234.936327078,628.803619303 L236.461126005,627.982573727 L235.405495979,626.809651475 L231.534852547,627.747989276 L227.78150134,625.402144772 L226.373994638,622.821715818 L224.731903485,622.235254692 L224.028150134,619.185656836 L226.491286863,620.593163539 L228.837131367,624.581099196 M230.596514745,617.660857909 L230.596514745,619.772117962 L232.004021448,620.945040214 L230.127345845,621.414209115 L232.355898123,622.939008043 L232.473190349,624.22922252 L229.658176944,623.173592493 L226.725871314,619.420241287 L230.010053619,617.191689008 L227.429624665,615.080428954 L229.775469169,615.784182306 L230.596514745,617.660857909 M231.182975871,577.31233244 L231.886729223,577.54691689 L234.936327078,577.31233244 L235.757372654,577.54691689 L236.695710456,578.133378016 L237.164879357,578.719839142 L237.399463807,579.071715818 L238.220509383,581.182975871 L239.628016086,582.473190349 L247.721179625,583.528820375 L248.424932976,584.232573727 L249.480563003,586.695710456 L250.067024129,587.516756032 L253.233914209,590.918230563 L254.054959786,591.504691689 L254.876005362,591.856568365 L255.579758713,591.856568365 L256.283512064,591.621983914 L256.752680965,591.035522788 L257.104557641,590.331769437 L258.746648794,584.349865952 L259.56769437,582.942359249 L260.036863271,582.238605898 L260.623324397,581.652144772 L262.148123324,580.596514745 L263.672922252,579.658176944 L265.315013405,579.892761394 L265.784182306,580.47922252 L266.605227882,584.467158177 L270.123994638,587.516756032 L272.235254692,591.270107239 L276.223190349,593.381367292 L276.809651475,594.202412869 L279.741957105,598.542225201 L278.334450402,599.363270777 L275.284852547,602.060991957 L273.525469169,604.172252011 L276.457774799,606.166219839 L273.173592493,608.394772118 L271.766085791,612.969168901 L272.352546917,615.66689008 L271.53150134,619.302949062 L272.587131367,622.117962466 L274.932975871,623.525469169 L273.408176944,625.636729223 L273.760053619,628.217158177 L270.475871314,627.982573727 L268.716487936,632.908847185 L264.142091153,634.902815013 L262.851876676,637.717828418 L259.919571046,638.773458445 L260.154155496,635.841152815 L257.925603217,632.439678284 L258.277479893,627.865281501 L257.456434316,625.754021448 L254.758713137,622.587131367 L252.647453083,622.000670241 L251.474530831,620.241286863 L251.591823056,615.66689008 L248.307640751,614.024798928 L247.017426273,610.154155496 L245.14075067,609.098525469 L246.079088472,611.327077748 L245.258042895,614.845844504 L243.381367292,599.245978552 L228.485254692,585.640080429 L225.670241287,585.053619303 L221.91689008,580.361930295 L221.799597855,578.602546917 L219.219168901,574.497319035 L219.805630027,572.972520107 L220.274798928,572.386058981 L220.743967828,571.799597855 L221.44772118,571.330428954 L223.676273458,570.157506702 L224.262734584,569.571045576 L224.731903485,568.98458445 L225.318364611,567.577077748 L229.306300268,567.342493298 L230.596514745,567.811662198 L230.948391421,568.398123324 L230.24463807,574.966487936 L230.596514745,576.725871314 L231.182975871,577.31233244 Z" fill="#cee3f5" id="SA.JZ" stroke="#6e6e6e" stroke-width="0.4"><desc><labelrank>7</labelrank><code_hasc>SA.JZ</code_hasc><name>Jizan</name><admin>Saudi Arabia</admin><type_en>Region</type_en><region /><woe_id>2346956</woe_id><longitude>42</longitude><woe_name>Jizan</woe_name><fips>SA17</fips><woe_label>Jizan, SA, Saudi Arabia</woe_label><latitude>17</latitude><iso_a2>SA</iso_a2><postal>JZ</postal><type>Emirate|Mintaqah</type><id>SA.JZ</id></desc></path><path d="M236.695710456,362.550268097 L236.578418231,369.001340483 L240.566353887,373.106568365 L244.202412869,386.947050938 L249.128686327,398.441689008 L253.233914209,400.318364611 L268.13002681,401.608579088 L270.358579088,403.602546917 L269.537533512,411.226541555 L271.179624665,414.158847185 L274.22922252,415.214477212 L280.445710456,414.04155496 L286.310321716,416.035522788 L285.371983914,423.0730563 L286.896782842,435.857908847 L284.081769437,441.605227882 L284.316353887,448.408176944 L282.674262735,456.735924933 L292.057640751,471.632037534 L281.853217158,476.441018767 L276.692359249,475.502680965 L266.487935657,477.731233244 L243.498659517,493.917560322 L239.862600536,491.923592493 L235.874664879,483.595844504 L232.473190349,481.48458445 L227.077747989,483.94772118 L217.811662198,485.120643432 L214.527479893,479.373324397 L212.768096515,478.31769437 L210.422252011,478.434986595 L208.428284182,481.132707775 L208.897453083,488.756702413 L205.026809651,496.146112601 L197.168230563,498.491957105 L193.180294906,502.362600536 L193.884048257,504.356568365 L197.050938338,505.529490617 L198.22386059,507.288873995 L198.927613941,521.715817694 L206.903485255,528.753351206 L211.477882038,527.815013405 L216.873324397,514.795576408 L223.910857909,513.50536193 L227.54691689,513.036193029 L229.540884718,515.733914209 L228.250670241,522.771447721 L230.127345845,528.753351206 L228.954423592,532.389410188 L226.843163539,534.500670241 L220.392091153,534.266085791 L215.700402145,536.963806971 L213.237265416,535.790884718 L212.298927614,545.29155496 L213.002680965,548.341152815 L214.644772118,549.983243968 L220.509383378,550.452412869 L224.028150134,551.977211796 L226.843163539,561.008713137 L225.318364611,567.577077748 L224.731903485,568.98458445 L224.262734584,569.571045576 L223.676273458,570.157506702 L221.44772118,571.330428954 L220.743967828,571.799597855 L220.274798928,572.386058981 L219.805630027,572.972520107 L219.219168901,574.497319035 L219.219168901,574.497319035 L219.219168901,574.497319035 L217.928954424,572.034182306 L215.700402145,570.743967828 L216.169571046,568.98458445 L214.996648794,568.632707775 L213.823726542,561.712466488 L211.126005362,558.076407507 L208.310991957,557.138069705 L206.199731903,553.267426273 L207.607238606,548.341152815 L204.909517426,546.933646113 L203.736595174,544.470509383 L205.261394102,539.778820375 L201.625335121,537.550268097 L200.569705094,532.506702413 L197.871983914,529.574396783 L197.637399464,523.592493298 L191.303619303,519.721849866 L192.476541555,519.956434316 L192.711126005,516.672252011 L190.951742627,513.50536193 L187.902144772,512.801608579 L187.902144772,514.091823056 L183.56233244,508.461796247 L183.914209115,506.585120643 L176.407506702,501.77613941 L173.944369973,498.491957105 L171.363941019,497.553619303 L168.666219839,494.621313673 L165.499329759,494.973190349 L162.567024129,493.331099196 L163.739946381,495.207774799 L157.64075067,491.689008043 L151.306970509,483.595844504 L152.245308311,482.774798928 L148.84383378,478.434986595 L149.430294906,476.910187668 L146.615281501,475.971849866 L146.615281501,474.329758713 L147.788203753,475.15080429 L147.553619303,473.977882038 L144.504021448,472.570375335 L144.386729223,470.459115282 L142.392761394,470.224530831 L140.633378016,465.063672922 L138.522117962,463.304289544 L138.404825737,460.254691689 L135.589812332,455.680294906 L138.756702413,452.513404826 L138.522117962,448.760053619 L137.935656836,447.469839142 L137.11461126,448.290884718 L136.293565684,446.179624665 L135.941689008,441.957104558 L137.11461126,439.845844504 L135.589812332,440.66689008 L131.953753351,433.277479893 L131.367292225,430.227882038 L132.422922252,429.289544236 L133.94772118,430.462466488 L135.472520107,422.017426273 L139.225871314,416.035522788 L138.287533512,415.449061662 L136.645442359,417.325737265 L137.34919571,410.640080429 L134.299597855,404.071715818 L135.355227882,402.54691689 L133.126675603,400.083780161 L133.830428954,403.250670241 L131.719168901,399.61461126 L130.077077748,395.861260054 L132.071045576,398.910857909 L133.830428954,398.676273458 L131.601876676,395.157506702 L128.434986595,393.75 L127.848525469,392.225201072 L128.669571046,388.237265416 L127.965817694,388.589142091 L125.854557641,384.95308311 L123.860589812,378.150134048 L133.361260054,377.798257373 L141.689008043,387.65080429 L143.565683646,388.471849866 L149.547587131,388.002680965 L151.77613941,392.225201072 L161.628686327,389.879356568 L166.20308311,389.879356568 L167.493297587,393.51541555 L164.912868633,401.725871314 L170.894772118,405.713806971 L171.129356568,413.220509383 L175.703753351,414.04155496 L182.389410188,409.701742627 L191.069034853,411.10924933 L195.878016086,405.010053619 L210.539544236,393.163538874 L217.225201072,389.996648794 L218.046246649,387.416219839 L213.11997319,384.249329759 L212.768096515,381.903485255 L227.54691689,373.575737265 L229.189008043,370.408847185 L228.133378016,364.075067024 L228.837131367,362.667560322 L232.355898123,361.846514745 L236.695710456,362.550268097 Z" fill="#cee3f5" id="SA.MK" stroke="#6e6e6e" stroke-width="0.4"><desc><labelrank>6</labelrank><code_hasc>SA.MK</code_hasc><name>Makkah</name><admin>Saudi Arabia</admin><type_en>Region</type_en><region /><woe_id>2346959</woe_id><longitude>40</longitude><woe_name>Makkah</woe_name><fips>SA14</fips><woe_label>Makka, SA, Saudi Arabia</woe_label><latitude>21</latitude><iso_a2>SA</iso_a2><postal>MK</postal><type>Emirate|Mintaqah</type><id>SA.MK</id></desc></path></svg>