<?xml version='1.0' encoding='utf-8'?>
<svg height="700" width="700" xmlns="http://www.w3.org/2000/svg"><path d="M329.7,451.5 L329.0,450.8 L328.3,450.8 L327.6,452.2 L327.6,452.9 L326.2,453.6 L325.5,453.6 L324.8,455.0 L324.1,455.7 L324.1,455.7 L324.1,456.4 L323.4,457.1 L323.4,457.8 L323.4,457.8 L323.4,459.2 L322.7,459.2 L322.0,459.2 L321.3,459.9 L321.3,460.6 L321.3,460.6 L321.3,461.3 L322.0,462.0 L322.7,462.0 L322.0,462.7 L322.0,463.4 L323.4,464.1 L323.4,464.1 L322.7,464.8 L322.0,465.5 L322.7,466.2 L322.0,466.2 L322.0,466.9 L322.7,466.9 L322.7,467.6 L322.0,467.6 L322.7,468.3 L321.3,469.7 L321.3,470.4 L320.6,469.7 L319.9,469.7 L320.6,470.4 L320.6,471.1 L319.9,471.8 L320.6,472.5 L320.6,473.2 L319.2,473.2 L317.1,474.6 L314.3,476.0 L313.6,476.7 L313.6,477.4 L312.9,477.4 L310.8,478.1 L310.1,478.8 L310.8,478.8 L310.1,479.5 L309.4,479.5 L308.7,480.2 L308.7,480.9 L308.0,481.6 L308.0,483.0 L308.0,483.7 L307.3,483.7 L305.9,483.7 L305.9,483.7 L304.5,485.1 L304.5,485.8 L303.8,486.5 L303.1,487.2 L301.7,488.6 L300.3,489.3 L300.3,490.7 L300.3,491.4 L300.3,491.4 L298.2,492.1 L297.5,492.8 L296.8,492.8 L296.8,494.2 L296.1,494.9 L294.7,494.9 L294.7,494.9 L294.0,495.6 L293.3,495.6 L292.6,495.6 L291.9,495.6 L291.2,496.3 L290.5,496.3 L291.9,497.7 L291.2,499.1 L290.5,499.1 L289.8,499.1 L288.4,501.2 L287.7,501.2 L287.0,501.2 L287.0,501.2 L287.0,499.1 L287.0,499.1 L286.3,499.8 L284.9,499.8 L275.1,499.8 L275.1,490.0 L270.9,487.9 L268.8,486.5 L267.4,486.5 L259.0,486.5 L258.3,485.8 L256.9,485.8 L256.2,485.8 L255.5,486.5 L254.1,486.5 L252.7,487.2 L251.3,487.2 L249.9,487.2 L247.8,487.2 L244.3,486.5 L241.5,487.2 L240.1,487.2 L238.7,486.5 L238.0,485.8 L237.3,485.1 L235.2,484.4 L234.5,484.4 L231.7,483.7 L229.6,482.3 L228.9,481.6 L227.5,480.9 L226.1,480.2 L224.7,479.5 L222.6,478.1 L221.2,478.1 L219.8,477.4 L219.1,476.7 L216.3,476.0 L215.6,476.0 L214.2,475.3 L213.5,473.9 L212.1,473.2 L210.7,473.2 L210.7,466.9 L209.3,466.9 L209.3,464.1 L209.3,460.6 L209.3,450.1 L219.1,450.1 L219.1,444.5 L217.7,444.5 L217.7,443.1 L217.7,437.5 L217.7,435.4 L217.7,433.3 L231.0,433.3 L233.1,433.3 L233.8,433.3 L250.6,433.3 L261.1,433.3 L274.4,433.3 L274.4,438.9 L281.4,438.9 L283.5,438.9 L284.2,433.3 L296.8,433.3 L301.7,433.3 L301.7,438.9 L303.1,438.9 L312.9,438.9 L313.6,438.2 L315.0,436.8 L315.7,435.4 L316.4,434.7 L317.8,434.7 L320.6,434.0 L321.3,433.3 L322.7,433.3 L323.4,432.6 L325.5,432.6 L327.6,432.6 L328.3,432.6 L328.3,433.3 L329.0,434.0 L328.3,434.7 L329.0,435.4 L329.7,436.1 L329.7,438.2 L329.7,440.3 L329.7,445.2 L329.7,445.9 L329.7,449.4 L329.7,451.5 Z" fill="#cee3f5" id="CA.SK.47011" stroke="#6e6e6e" stroke-width="0.4"><desc><feduid>47011</feduid><name>Saskatoon - Wanuskewin</name><prname>Saskatchewan</prname><fedfname>Saskatoon - Wanuskewin</fedfname><pruid>47</pruid><fedename>Saskatoon - Wanuskewin</fedename><id>CA.SK.47011</id><fedname>Saskatoon - Wanuskewin</fedname></desc></path><path d="M505.4,611.1 L505.4,613.2 L505.4,613.2 L505.4,617.4 L505.4,618.8 L505.4,622.3 L506.1,622.3 L506.1,627.9 L506.1,633.5 L488.6,633.5 L480.9,633.5 L468.3,633.5 L461.3,633.5 L456.4,633.5 L443.8,633.5 L442.4,633.5 L429.1,633.5 L420.7,633.5 L417.2,633.5 L417.9,627.9 L417.2,623.0 L417.9,622.3 L417.9,620.2 L417.9,607.6 L423.5,606.9 L423.5,608.3 L426.3,608.3 L426.3,611.1 L437.5,611.1 L448.7,611.1 L454.3,611.1 L461.3,611.1 L465.5,611.1 L470.4,611.1 L476.0,611.1 L480.2,611.1 L483.0,611.1 L496.3,611.1 L505.4,611.1 Z" fill="#cee3f5" id="CA.SK.47013" stroke="#6e6e6e" stroke-width="0.4"><desc><feduid>47013</feduid><name>Wascana</name><prname>Saskatchewan</prname><fedfname>Wascana</fedfname><pruid>47</pruid><fedename>Wascana</fedename><id>CA.SK.47013</id><fedname>Wascana</fedname></desc></path><path d="M446.6,466.9 L446.6,469.7 L446.6,469.7 L446.6,471.1 L447.3,470.4 L448.0,470.4 L447.3,469.7 L448.0,469.7 L448.0,471.1 L446.6,471.1 L446.6,478.1 L446.6,489.3 L448.0,489.3 L448.0,492.1 L448.0,496.3 L448.0,504.0 L448.0,508.9 L447.3,509.6 L447.3,511.0 L448.7,511.0 L448.7,514.5 L448.7,516.6 L439.6,516.6 L426.3,516.6 L414.4,516.6 L411.6,516.6 L401.8,516.6 L394.8,516.6 L394.8,515.2 L394.8,511.0 L393.4,511.0 L393.4,509.6 L393.4,507.5 L393.4,504.0 L393.4,504.0 L393.4,499.8 L390.6,500.5 L379.4,499.8 L361.9,499.8 L349.3,499.8 L340.2,499.8 L330.4,499.8 L320.6,499.8 L309.4,499.8 L296.1,499.8 L295.4,500.5 L294.0,501.2 L293.3,501.2 L294.0,501.9 L287.0,501.9 L287.0,501.2 L287.7,501.2 L288.4,501.2 L289.8,499.1 L290.5,499.1 L291.2,499.1 L291.9,497.7 L290.5,496.3 L291.2,496.3 L291.9,495.6 L292.6,495.6 L293.3,495.6 L294.0,495.6 L294.7,494.9 L294.7,494.9 L296.1,494.9 L296.8,494.2 L296.8,492.8 L297.5,492.8 L298.2,492.1 L300.3,491.4 L300.3,491.4 L300.3,490.7 L300.3,489.3 L301.7,488.6 L303.1,487.2 L303.8,486.5 L304.5,485.8 L304.5,485.1 L305.9,483.7 L305.9,483.7 L307.3,483.7 L308.0,483.7 L308.0,483.0 L308.0,481.6 L308.7,480.9 L308.7,480.2 L309.4,479.5 L310.1,479.5 L310.8,478.8 L310.1,478.8 L310.8,478.1 L312.9,477.4 L313.6,477.4 L313.6,476.7 L314.3,476.0 L317.1,474.6 L319.2,473.2 L320.6,473.2 L320.6,472.5 L319.9,471.8 L320.6,471.1 L320.6,470.4 L319.9,469.7 L320.6,469.7 L321.3,470.4 L321.3,469.7 L322.7,468.3 L322.0,467.6 L322.7,467.6 L322.7,466.9 L322.0,466.9 L322.0,466.2 L322.7,466.2 L322.0,465.5 L322.7,464.8 L323.4,464.1 L323.4,464.1 L322.0,463.4 L322.0,462.7 L322.7,462.0 L322.0,462.0 L321.3,461.3 L321.3,460.6 L321.3,460.6 L321.3,459.9 L322.0,459.2 L322.7,459.2 L323.4,459.2 L323.4,457.8 L323.4,457.8 L323.4,457.1 L324.1,456.4 L324.1,455.7 L324.1,455.7 L324.8,455.0 L325.5,453.6 L326.2,453.6 L327.6,452.9 L327.6,452.2 L328.3,450.8 L329.0,450.8 L329.7,451.5 L331.1,450.8 L331.8,451.5 L333.9,450.8 L334.6,451.5 L335.3,451.5 L336.0,451.5 L336.7,451.5 L338.8,450.8 L340.2,450.1 L340.9,450.1 L341.6,450.8 L342.3,450.1 L358.4,450.1 L359.8,450.1 L362.6,450.1 L375.9,450.1 L379.4,450.1 L379.4,447.3 L388.5,447.3 L388.5,448.0 L389.2,451.5 L388.5,453.6 L389.2,458.5 L389.9,458.5 L390.6,461.3 L389.9,466.9 L398.3,466.9 L402.5,466.9 L419.3,466.9 L427.7,466.9 L429.8,466.9 L436.1,466.9 L446.6,466.9 Z" fill="#cee3f5" id="CA.SK.47009" stroke="#6e6e6e" stroke-width="0.4"><desc><feduid>47009</feduid><name>Saskatoon - Humboldt</name><prname>Saskatchewan</prname><fedfname>Saskatoon - Humboldt</fedfname><pruid>47</pruid><fedename>Saskatoon - Humboldt</fedename><id>CA.SK.47009</id><fedname>Saskatoon - Humboldt</fedname></desc></path><path d="M618.1,606.2 L617.4,607.6 L618.1,617.4 L617.4,620.9 L619.5,620.9 L619.5,625.1 L619.5,631.4 L619.5,636.3 L619.5,637.0 L619.5,641.2 L619.5,644.0 L621.6,644.0 L621.6,646.8 L621.6,649.6 L621.6,655.2 L621.6,663.6 L621.6,666.4 L623.0,666.4 L623.0,671.3 L623.0,675.5 L623.0,677.6 L623.0,688.8 L625.1,688.8 L625.1,690.9 L625.1,698.6 L625.1,700.0 L612.5,700.0 L602.7,700.0 L583.8,700.0 L569.8,700.0 L552.3,700.0 L536.9,700.0 L520.8,700.0 L507.5,700.0 L490.7,700.0 L473.9,700.0 L457.1,700.0 L438.2,700.0 L425.6,700.0 L415.8,700.0 L405.3,700.0 L389.2,700.0 L380.1,700.0 L363.3,700.0 L354.9,700.0 L354.9,689.5 L354.9,688.8 L352.8,688.8 L352.8,683.2 L361.2,683.2 L361.2,678.3 L366.1,678.3 L370.3,678.3 L370.3,675.5 L368.9,674.1 L368.2,673.4 L366.8,672.7 L366.1,672.0 L364.7,672.0 L364.0,671.3 L361.9,671.3 L359.8,671.3 L359.1,670.6 L357.0,671.3 L355.6,670.6 L354.2,670.6 L352.8,669.9 L352.8,667.1 L351.4,667.1 L351.4,662.9 L351.4,662.2 L351.4,657.3 L351.4,655.9 L351.4,650.3 L357.0,650.3 L359.8,650.3 L363.3,650.3 L376.6,650.3 L377.3,650.3 L387.8,650.3 L403.2,650.3 L403.2,648.2 L403.2,644.7 L401.8,644.7 L401.8,633.5 L407.4,633.5 L417.2,633.5 L420.7,633.5 L429.1,633.5 L442.4,633.5 L443.8,633.5 L456.4,633.5 L461.3,633.5 L468.3,633.5 L480.9,633.5 L488.6,633.5 L506.1,633.5 L506.1,627.9 L506.1,622.3 L505.4,622.3 L505.4,618.8 L505.4,617.4 L505.4,613.2 L505.4,613.2 L505.4,611.1 L505.4,609.7 L505.4,608.3 L505.4,602.7 L506.1,602.7 L506.8,602.7 L508.2,602.7 L508.9,603.4 L509.6,602.7 L510.3,603.4 L511.0,602.7 L512.4,602.7 L513.1,602.7 L513.8,602.0 L515.2,602.0 L515.2,601.3 L515.9,601.3 L517.3,600.6 L518.0,599.9 L518.0,599.9 L518.7,599.2 L519.4,599.2 L520.1,599.2 L520.8,598.5 L520.8,598.5 L521.5,598.5 L522.2,597.8 L522.2,597.8 L524.3,597.1 L524.3,597.1 L525.0,596.4 L526.4,596.4 L526.4,595.7 L527.8,595.7 L527.8,595.7 L529.2,595.7 L530.6,595.7 L530.6,595.7 L532.0,595.7 L532.0,595.7 L533.4,596.4 L534.1,596.4 L533.4,597.1 L534.1,597.8 L534.8,597.8 L534.8,598.5 L535.5,598.5 L537.6,597.8 L538.3,597.8 L539.0,597.8 L540.4,597.8 L541.8,598.5 L541.8,599.2 L542.5,599.2 L543.2,599.2 L543.9,599.2 L544.6,600.6 L546.0,600.6 L547.4,600.6 L547.4,601.3 L548.8,601.3 L549.5,601.3 L550.2,602.0 L549.5,602.0 L550.2,602.7 L550.9,602.0 L551.6,602.7 L552.3,602.7 L553.7,602.7 L554.4,602.7 L555.1,602.7 L555.1,602.7 L556.5,602.7 L557.2,602.0 L557.2,602.0 L557.9,602.0 L560.0,602.0 L561.4,602.0 L563.5,602.7 L564.9,603.4 L565.6,603.4 L566.3,604.1 L566.3,604.1 L567.7,604.8 L569.1,604.8 L571.2,604.1 L571.9,604.1 L572.6,604.1 L574.7,602.7 L575.4,602.7 L576.1,602.0 L577.5,602.0 L577.5,602.0 L578.9,601.3 L580.3,601.3 L581.0,601.3 L583.1,601.3 L583.8,602.0 L584.5,602.0 L584.5,602.0 L585.2,602.0 L585.2,602.7 L585.9,602.0 L586.6,602.7 L587.3,603.4 L588.0,603.4 L588.7,603.4 L590.8,602.7 L592.2,602.7 L592.9,602.7 L593.6,602.7 L595.0,602.7 L596.4,603.4 L596.4,604.1 L596.4,604.8 L596.4,604.8 L596.4,605.5 L597.1,606.2 L597.8,606.2 L599.2,606.2 L599.9,606.2 L599.9,605.5 L600.6,605.5 L602.7,604.1 L603.4,603.4 L604.1,603.4 L606.2,603.4 L607.6,603.4 L608.3,603.4 L608.3,604.1 L610.4,604.1 L610.4,604.8 L611.8,605.5 L613.2,605.5 L613.9,605.5 L613.9,605.5 L616.0,605.5 L617.4,605.5 L618.1,606.2 Z" fill="#cee3f5" id="CA.SK.47012" stroke="#6e6e6e" stroke-width="0.4"><desc><feduid>47012</feduid><name>Souris - Moose Mountain</name><prname>Saskatchewan</prname><fedfname>Souris - Moose Mountain</fedfname><pruid>47</pruid><fedename>Souris - Moose Mountain</fedename><id>CA.SK.47012</id><fedname>Souris - Moose Mountain</fedname></desc></path><path d="M519.4,450.1 L505.4,450.1 L494.2,450.1 L480.9,450.1 L473.2,450.1 L473.2,450.8 L473.2,453.6 L473.2,457.8 L473.2,466.9 L464.1,466.9 L456.4,466.9 L446.6,466.9 L436.1,466.9 L429.8,466.9 L427.7,466.9 L419.3,466.9 L402.5,466.9 L398.3,466.9 L389.9,466.9 L390.6,461.3 L389.9,458.5 L389.2,458.5 L388.5,453.6 L389.2,451.5 L388.5,448.0 L388.5,447.3 L379.4,447.3 L379.4,450.1 L375.9,450.1 L362.6,450.1 L359.8,450.1 L358.4,450.1 L342.3,450.1 L341.6,450.8 L340.9,450.1 L340.2,450.1 L338.8,450.8 L336.7,451.5 L336.0,451.5 L335.3,451.5 L334.6,451.5 L333.9,450.8 L331.8,451.5 L331.1,450.8 L329.7,451.5 L329.7,449.4 L329.7,445.9 L329.7,445.2 L329.7,440.3 L329.7,438.2 L329.7,436.1 L329.0,435.4 L328.3,434.7 L329.0,434.0 L328.3,433.3 L328.3,432.6 L327.6,432.6 L325.5,432.6 L323.4,432.6 L322.7,433.3 L321.3,433.3 L320.6,434.0 L317.8,434.7 L316.4,434.7 L315.7,435.4 L315.0,436.8 L313.6,438.2 L312.9,438.9 L303.1,438.9 L301.7,438.9 L301.7,433.3 L301.7,431.9 L301.7,427.0 L301.7,422.1 L308.0,422.1 L321.3,422.1 L321.3,422.8 L326.2,422.8 L331.1,422.8 L330.4,419.3 L331.1,417.2 L335.3,417.2 L335.3,417.9 L337.4,417.9 L337.4,417.2 L345.1,417.2 L345.1,415.1 L345.1,413.7 L345.1,407.4 L345.1,405.3 L354.2,405.3 L368.2,405.3 L379.4,405.3 L387.1,405.3 L387.1,415.1 L387.1,418.6 L387.1,422.1 L388.5,422.1 L388.5,429.1 L388.5,429.8 L389.9,429.8 L389.9,430.5 L391.3,430.5 L392.0,430.5 L393.4,430.5 L394.1,430.5 L393.4,431.2 L394.1,431.9 L394.8,431.2 L394.8,430.5 L395.5,430.5 L396.2,431.2 L396.9,431.9 L396.9,432.6 L396.2,433.3 L396.9,434.0 L397.6,434.7 L399.0,434.7 L399.7,434.7 L400.4,435.4 L401.8,436.1 L402.5,436.8 L403.2,436.8 L403.2,435.4 L403.9,435.4 L403.9,436.1 L404.6,436.1 L404.6,435.4 L403.9,435.4 L404.6,434.7 L405.3,434.7 L407.4,434.7 L407.4,434.0 L407.4,433.3 L407.4,432.6 L408.8,432.6 L409.5,431.9 L410.2,431.9 L410.9,431.9 L411.6,431.9 L412.3,431.2 L413.0,431.2 L413.7,431.9 L414.4,431.9 L415.8,431.2 L417.2,430.5 L417.9,430.5 L420.0,430.5 L420.7,431.2 L421.4,430.5 L422.1,429.8 L423.5,429.8 L424.2,429.8 L425.6,430.5 L426.3,430.5 L427.7,429.8 L427.7,429.8 L427.7,429.1 L428.4,429.8 L429.1,429.1 L429.1,429.1 L429.8,428.4 L430.5,428.4 L431.2,427.7 L431.9,427.7 L433.3,427.7 L434.0,427.0 L436.1,427.0 L437.5,427.0 L438.2,427.7 L441.0,427.7 L441.7,426.3 L442.4,426.3 L443.8,427.0 L445.2,427.0 L445.9,426.3 L445.9,426.3 L447.3,426.3 L448.0,426.3 L448.7,425.6 L450.8,426.3 L451.5,426.3 L451.5,427.0 L451.5,427.0 L452.9,426.3 L452.9,425.6 L452.9,425.6 L453.6,424.9 L454.3,425.6 L455.0,425.6 L454.3,424.9 L454.3,424.2 L455.0,423.5 L455.0,422.1 L455.0,422.1 L456.4,421.4 L456.4,420.0 L457.1,420.0 L458.5,420.0 L459.2,420.0 L459.2,419.3 L459.2,417.9 L459.2,417.9 L459.9,417.9 L461.3,417.2 L461.3,416.5 L460.6,415.8 L461.3,415.8 L462.7,415.8 L464.8,415.8 L465.5,415.8 L467.6,415.1 L471.1,413.7 L471.8,413.0 L472.5,412.3 L473.2,411.6 L474.6,411.6 L476.0,411.6 L477.4,411.6 L478.1,410.9 L478.1,410.2 L478.1,410.2 L476.7,408.8 L476.7,408.1 L476.7,407.4 L477.4,406.7 L479.5,406.0 L480.9,406.0 L484.4,405.3 L487.9,405.3 L489.3,405.3 L490.7,405.3 L493.5,404.6 L494.2,404.6 L495.6,403.9 L495.6,402.5 L496.3,401.8 L497.0,401.8 L500.5,401.8 L501.2,401.1 L501.9,400.4 L502.6,400.4 L504.0,399.7 L505.4,400.4 L506.1,400.4 L507.5,399.0 L508.9,399.7 L510.3,399.7 L513.8,399.0 L515.2,398.3 L515.9,396.9 L517.3,396.2 L518.0,395.5 L518.7,396.2 L518.7,397.6 L518.7,400.4 L518.7,407.4 L518.7,417.2 L518.7,422.1 L519.4,422.1 L519.4,426.3 L519.4,427.0 L520.1,427.0 L520.1,427.0 L520.8,428.4 L522.2,429.1 L521.5,429.1 L522.9,431.2 L523.6,431.2 L525.0,432.6 L526.4,433.3 L522.2,433.3 L519.4,433.3 L519.4,440.3 L519.4,444.5 L519.4,444.5 L519.4,450.1 Z" fill="#cee3f5" id="CA.SK.47006" stroke="#6e6e6e" stroke-width="0.4"><desc><feduid>47006</feduid><name>Prince Albert</name><prname>Saskatchewan</prname><fedfname>Prince Albert</fedfname><pruid>47</pruid><fedename>Prince Albert</fedename><id>CA.SK.47006</id><fedname>Prince Albert</fedname></desc></path><path d="M266.0,533.4 L265.3,534.1 L264.6,534.8 L263.2,534.8 L262.5,536.2 L261.8,536.9 L261.8,537.6 L261.8,538.3 L261.8,539.0 L261.8,541.1 L261.1,543.2 L260.4,543.9 L260.4,544.6 L261.1,545.3 L261.1,546.0 L263.2,546.0 L264.6,546.7 L266.0,546.7 L266.0,547.4 L266.7,548.1 L267.4,549.5 L267.4,550.9 L268.1,551.6 L268.8,552.3 L270.2,552.3 L270.9,553.0 L272.3,553.7 L273.0,554.4 L273.7,554.4 L275.1,555.1 L275.8,556.5 L276.5,557.9 L277.2,559.3 L278.6,560.7 L280.0,562.1 L282.1,563.5 L282.8,564.2 L284.2,564.9 L287.0,565.6 L288.4,565.6 L289.8,566.3 L289.8,567.0 L292.6,567.0 L295.4,567.0 L303.1,567.0 L303.1,572.6 L303.1,577.5 L303.1,578.2 L303.1,585.2 L303.1,586.6 L303.1,590.8 L303.1,592.9 L303.1,595.7 L303.1,597.1 L303.1,599.9 L308.0,599.9 L315.0,599.9 L317.8,599.9 L329.7,599.9 L329.7,605.5 L329.7,608.3 L329.7,616.0 L329.7,616.7 L329.7,620.9 L329.7,627.2 L329.7,636.3 L329.7,637.0 L329.7,644.7 L329.7,650.3 L331.1,650.3 L336.7,650.3 L347.9,650.3 L351.4,650.3 L351.4,655.9 L351.4,657.3 L351.4,662.2 L351.4,662.9 L351.4,667.1 L352.8,667.1 L352.8,669.9 L354.2,670.6 L355.6,670.6 L357.0,671.3 L359.1,670.6 L359.8,671.3 L361.9,671.3 L364.0,671.3 L364.7,672.0 L366.1,672.0 L366.8,672.7 L368.2,673.4 L368.9,674.1 L370.3,675.5 L370.3,678.3 L366.1,678.3 L361.2,678.3 L361.2,683.2 L352.8,683.2 L352.8,688.8 L354.9,688.8 L354.9,689.5 L354.9,700.0 L347.2,700.0 L329.7,700.0 L312.9,700.0 L295.4,700.0 L280.0,700.0 L262.5,700.0 L249.9,700.0 L234.5,700.0 L219.1,700.0 L202.3,700.0 L186.2,700.0 L175.0,700.0 L166.6,700.0 L151.9,700.0 L139.3,700.0 L123.2,700.0 L112.0,700.0 L100.1,700.0 L90.3,700.0 L74.9,700.0 L74.9,693.0 L74.9,683.9 L74.9,674.8 L74.9,662.9 L74.9,655.9 L74.9,644.7 L74.9,639.1 L74.9,633.5 L74.9,622.3 L74.9,620.9 L74.9,618.8 L74.9,613.9 L74.9,609.7 L74.9,607.6 L74.9,601.3 L74.9,590.8 L74.9,587.3 L74.9,583.8 L74.9,578.2 L74.9,575.4 L74.9,567.0 L74.9,555.8 L74.9,550.2 L79.8,550.2 L92.4,550.2 L95.9,550.2 L98.0,550.2 L105.7,550.2 L109.2,550.2 L123.9,550.2 L128.8,550.2 L137.2,550.2 L143.5,550.2 L143.5,550.2 L149.1,550.2 L165.2,550.2 L168.7,550.2 L171.5,550.2 L181.3,550.2 L196.7,550.2 L203.0,550.2 L212.1,550.2 L222.6,550.2 L222.6,541.1 L221.9,534.8 L222.6,533.4 L229.6,533.4 L238.0,533.4 L252.7,533.4 L257.6,533.4 L266.0,533.4 Z" fill="#cee3f5" id="CA.SK.47004" stroke="#6e6e6e" stroke-width="0.4"><desc><feduid>47004</feduid><name>Cypress Hills - Grasslands</name><prname>Saskatchewan</prname><fedfname>Cypress Hills - Grasslands</fedfname><pruid>47</pruid><fedename>Cypress Hills - Grasslands</fedename><id>CA.SK.47004</id><fedname>Cypress Hills - Grasslands</fedname></desc></path><path d="M605.5,450.1 L585.2,450.1 L578.2,450.1 L565.6,450.1 L550.2,450.1 L537.6,450.1 L519.4,450.1 L519.4,444.5 L519.4,444.5 L519.4,440.3 L519.4,433.3 L522.2,433.3 L526.4,433.3 L525.0,432.6 L523.6,431.2 L522.9,431.2 L521.5,429.1 L522.2,429.1 L520.8,428.4 L520.1,427.0 L520.1,427.0 L519.4,427.0 L519.4,426.3 L519.4,422.1 L518.7,422.1 L518.7,417.2 L518.7,407.4 L518.7,400.4 L518.7,397.6 L518.7,396.2 L518.0,395.5 L517.3,396.2 L515.9,396.9 L515.2,398.3 L513.8,399.0 L510.3,399.7 L508.9,399.7 L507.5,399.0 L506.1,400.4 L505.4,400.4 L504.0,399.7 L502.6,400.4 L501.9,400.4 L501.2,401.1 L500.5,401.8 L497.0,401.8 L496.3,401.8 L495.6,402.5 L495.6,403.9 L494.2,404.6 L493.5,404.6 L490.7,405.3 L489.3,405.3 L487.9,405.3 L484.4,405.3 L480.9,406.0 L479.5,406.0 L477.4,406.7 L476.7,407.4 L476.7,408.1 L476.7,408.8 L478.1,410.2 L478.1,410.2 L478.1,410.9 L477.4,411.6 L476.0,411.6 L474.6,411.6 L473.2,411.6 L472.5,412.3 L471.8,413.0 L471.1,413.7 L467.6,415.1 L465.5,415.8 L464.8,415.8 L462.7,415.8 L461.3,415.8 L460.6,415.8 L461.3,416.5 L461.3,417.2 L459.9,417.9 L459.2,417.9 L459.2,417.9 L459.2,419.3 L459.2,420.0 L458.5,420.0 L457.1,420.0 L456.4,420.0 L456.4,421.4 L455.0,422.1 L455.0,422.1 L455.0,423.5 L454.3,424.2 L454.3,424.9 L455.0,425.6 L454.3,425.6 L453.6,424.9 L452.9,425.6 L452.9,425.6 L452.9,426.3 L451.5,427.0 L451.5,427.0 L451.5,426.3 L450.8,426.3 L448.7,425.6 L448.0,426.3 L447.3,426.3 L445.9,426.3 L445.9,426.3 L445.2,427.0 L443.8,427.0 L442.4,426.3 L441.7,426.3 L441.0,427.7 L438.2,427.7 L437.5,427.0 L436.1,427.0 L434.0,427.0 L433.3,427.7 L431.9,427.7 L431.2,427.7 L430.5,428.4 L429.8,428.4 L429.1,429.1 L429.1,429.1 L428.4,429.8 L427.7,429.1 L427.7,429.8 L427.7,429.8 L426.3,430.5 L425.6,430.5 L424.2,429.8 L423.5,429.8 L422.1,429.8 L421.4,430.5 L420.7,431.2 L420.0,430.5 L417.9,430.5 L417.2,430.5 L415.8,431.2 L414.4,431.9 L413.7,431.9 L413.0,431.2 L412.3,431.2 L411.6,431.9 L410.9,431.9 L410.2,431.9 L409.5,431.9 L408.8,432.6 L407.4,432.6 L407.4,433.3 L407.4,434.0 L407.4,434.7 L405.3,434.7 L404.6,434.7 L403.9,435.4 L404.6,435.4 L404.6,436.1 L403.9,436.1 L403.9,435.4 L403.2,435.4 L403.2,436.8 L402.5,436.8 L401.8,436.1 L400.4,435.4 L399.7,434.7 L399.0,434.7 L397.6,434.7 L396.9,434.0 L396.2,433.3 L396.9,432.6 L396.9,431.9 L396.2,431.2 L395.5,430.5 L394.8,430.5 L394.8,431.2 L394.1,431.9 L393.4,431.2 L394.1,430.5 L393.4,430.5 L392.0,430.5 L391.3,430.5 L389.9,430.5 L389.9,429.8 L388.5,429.8 L388.5,429.1 L388.5,422.1 L387.1,422.1 L387.1,418.6 L387.1,415.1 L387.1,405.3 L379.4,405.3 L368.2,405.3 L354.2,405.3 L345.1,405.3 L345.1,407.4 L345.1,413.7 L345.1,415.1 L345.1,417.2 L337.4,417.2 L337.4,417.9 L335.3,417.9 L335.3,417.2 L331.1,417.2 L330.4,419.3 L331.1,422.8 L326.2,422.8 L321.3,422.8 L321.3,422.1 L308.0,422.1 L301.7,422.1 L301.7,427.0 L301.7,431.9 L301.7,433.3 L296.8,433.3 L284.2,433.3 L283.5,438.9 L281.4,438.9 L274.4,438.9 L274.4,433.3 L261.1,433.3 L250.6,433.3 L233.8,433.3 L233.1,433.3 L231.0,433.3 L217.7,433.3 L217.7,430.5 L217.7,424.2 L217.7,422.1 L217.0,422.1 L217.0,420.7 L217.0,417.9 L200.2,417.9 L189.0,417.9 L187.6,417.9 L187.6,417.2 L189.0,415.8 L189.7,415.1 L191.8,413.7 L190.4,413.7 L189.7,414.4 L188.3,414.4 L188.3,413.7 L187.6,413.0 L187.6,413.0 L187.6,412.3 L189.0,410.9 L189.7,410.2 L189.7,409.5 L191.8,407.4 L191.8,407.4 L192.5,407.4 L192.5,406.0 L179.2,406.0 L170.1,406.0 L170.1,400.4 L158.9,400.4 L158.9,394.8 L144.9,394.8 L130.9,394.8 L121.1,394.8 L100.8,394.8 L87.5,394.8 L74.9,394.8 L74.9,382.2 L74.9,372.4 L74.9,366.8 L74.9,364.7 L74.9,361.2 L74.9,350.0 L74.9,342.3 L74.9,334.6 L74.9,321.3 L74.9,313.6 L75.6,306.6 L75.6,297.5 L75.6,290.5 L75.6,279.3 L75.6,270.9 L75.6,263.2 L75.6,254.8 L75.6,249.2 L75.6,240.1 L75.6,231.7 L75.6,223.3 L75.6,211.4 L75.6,201.6 L75.6,196.0 L75.6,184.1 L75.6,175.0 L75.6,163.1 L75.6,155.4 L75.6,143.5 L75.6,130.9 L75.6,124.6 L75.6,114.1 L75.6,104.3 L75.6,95.2 L75.6,88.9 L75.6,79.8 L75.6,72.8 L75.6,63.7 L75.6,48.3 L75.6,39.2 L75.6,33.6 L75.6,25.9 L75.6,15.4 L75.6,8.4 L75.6,0.0 L91.0,0.0 L107.1,0.0 L123.2,0.0 L139.3,0.0 L154.7,0.0 L170.8,0.0 L186.9,0.0 L202.3,0.0 L218.4,0.0 L234.5,0.0 L250.6,0.0 L266.0,0.0 L282.1,0.0 L298.2,0.0 L314.3,0.0 L329.7,0.0 L345.8,0.0 L361.9,0.0 L377.3,0.0 L393.4,0.0 L409.5,0.0 L425.6,0.0 L441.0,0.0 L457.1,0.0 L473.2,0.0 L489.3,0.0 L504.7,0.0 L520.8,0.0 L536.9,0.0 L552.3,0.0 L568.4,0.0 L584.5,0.0 L584.5,14.7 L584.5,28.0 L584.5,34.3 L584.5,44.1 L584.5,54.6 L584.5,64.4 L584.5,72.8 L584.5,79.8 L584.5,88.2 L584.5,97.3 L584.5,104.3 L584.5,111.3 L584.5,119.0 L584.5,130.2 L584.5,135.8 L584.5,148.4 L584.5,157.5 L584.5,170.1 L584.5,179.9 L584.5,192.5 L584.5,198.8 L584.5,207.9 L584.5,217.7 L584.5,226.1 L584.5,233.8 L584.5,240.1 L584.5,248.5 L584.5,258.3 L584.5,266.7 L587.3,266.7 L587.3,278.6 L587.3,289.1 L590.1,289.1 L590.1,298.2 L589.4,301.0 L589.4,311.5 L589.4,311.5 L592.2,311.5 L592.2,322.7 L592.2,331.1 L591.5,333.2 L594.3,333.2 L594.3,334.6 L594.3,340.2 L594.3,351.4 L593.6,355.6 L596.4,355.6 L596.4,361.9 L596.4,368.9 L596.4,378.0 L599.2,378.0 L599.2,383.6 L599.2,393.4 L599.2,400.4 L600.6,400.4 L601.3,407.4 L601.3,413.7 L601.3,422.8 L603.4,422.8 L603.4,429.8 L603.4,436.1 L603.4,445.2 L605.5,445.2 L605.5,450.1 Z" fill="#cee3f5" id="CA.SK.47003" stroke="#6e6e6e" stroke-width="0.4"><desc><feduid>47003</feduid><name>Desneth - Missinippi - Churchill River / Desneth - Missinippi - Rivire Churchill</name><prname>Saskatchewan</prname><fedfname>Desneth - Missinippi - Rivire Churchill</fedfname><pruid>47</pruid><fedename>Desneth - Missinippi - Churchill River</fedename><id>CA.SK.47003</id><fedname>Desneth - Missinippi - Churchill River / Desneth - Missinippi - Rivire Churchill</fedname></desc></path><path d="M426.3,516.6 L425.6,518.0 L424.9,519.4 L424.2,520.1 L423.5,520.1 L423.5,520.1 L423.5,520.8 L422.1,520.8 L422.8,521.5 L423.5,521.5 L423.5,522.9 L422.8,522.9 L421.4,522.9 L421.4,527.8 L421.4,529.9 L421.4,533.4 L417.2,533.4 L406.7,533.4 L400.4,533.4 L396.2,533.4 L381.5,533.4 L378.0,533.4 L360.5,533.4 L356.3,533.4 L354.2,533.4 L343.7,533.4 L342.3,533.4 L342.3,542.5 L342.3,544.6 L342.3,550.2 L330.4,550.2 L329.7,550.2 L323.4,550.2 L315.0,550.2 L303.1,550.2 L303.1,550.9 L303.1,555.8 L303.1,555.8 L303.1,567.0 L295.4,567.0 L292.6,567.0 L289.8,567.0 L289.8,566.3 L288.4,565.6 L287.0,565.6 L284.2,564.9 L282.8,564.2 L282.1,563.5 L280.0,562.1 L278.6,560.7 L277.2,559.3 L276.5,557.9 L275.8,556.5 L275.1,555.1 L273.7,554.4 L273.0,554.4 L272.3,553.7 L270.9,553.0 L270.2,552.3 L268.8,552.3 L268.1,551.6 L267.4,550.9 L267.4,549.5 L266.7,548.1 L266.0,547.4 L266.0,546.7 L264.6,546.7 L263.2,546.0 L261.1,546.0 L261.1,545.3 L260.4,544.6 L260.4,543.9 L261.1,543.2 L261.8,541.1 L261.8,539.0 L261.8,538.3 L261.8,537.6 L261.8,536.9 L262.5,536.2 L263.2,534.8 L264.6,534.8 L265.3,534.1 L266.0,533.4 L267.4,532.0 L268.1,530.6 L268.8,530.6 L270.2,529.9 L271.6,529.9 L273.7,529.2 L275.8,528.5 L277.2,528.5 L278.6,527.8 L279.3,527.1 L279.3,526.4 L279.3,525.0 L280.7,524.3 L280.7,523.6 L281.4,522.9 L282.8,521.5 L283.5,520.1 L283.5,518.7 L282.1,517.3 L282.1,517.3 L282.1,515.9 L282.1,515.2 L280.7,514.5 L280.7,514.5 L282.1,513.8 L282.1,513.1 L282.1,513.1 L280.7,513.1 L279.3,512.4 L278.6,511.7 L278.6,511.7 L280.0,511.0 L280.7,511.0 L281.4,510.3 L281.4,509.6 L282.1,509.6 L283.5,510.3 L283.5,510.3 L284.2,510.3 L284.9,508.9 L284.9,508.2 L284.2,506.8 L284.2,506.8 L283.5,505.4 L283.5,504.7 L283.5,504.0 L286.3,502.6 L287.0,501.9 L294.0,501.9 L293.3,501.2 L294.0,501.2 L295.4,500.5 L296.1,499.8 L309.4,499.8 L320.6,499.8 L330.4,499.8 L340.2,499.8 L349.3,499.8 L361.9,499.8 L379.4,499.8 L390.6,500.5 L393.4,499.8 L393.4,504.0 L393.4,504.0 L393.4,507.5 L393.4,509.6 L393.4,511.0 L394.8,511.0 L394.8,515.2 L394.8,516.6 L401.8,516.6 L411.6,516.6 L414.4,516.6 L426.3,516.6 Z" fill="#cee3f5" id="CA.SK.47002" stroke="#6e6e6e" stroke-width="0.4"><desc><feduid>47002</feduid><name>Blackstrap</name><prname>Saskatchewan</prname><fedfname>Blackstrap</fedfname><pruid>47</pruid><fedename>Blackstrap</fedename><id>CA.SK.47002</id><fedname>Blackstrap</fedname></desc></path><path d="M416.5,608.3 L417.9,607.6 L417.9,620.2 L417.9,622.3 L417.2,623.0 L417.9,627.9 L417.2,633.5 L407.4,633.5 L401.8,633.5 L401.8,644.7 L403.2,644.7 L403.2,648.2 L403.2,650.3 L387.8,650.3 L377.3,650.3 L376.6,650.3 L363.3,650.3 L359.8,650.3 L357.0,650.3 L351.4,650.3 L347.9,650.3 L336.7,650.3 L331.1,650.3 L329.7,650.3 L329.7,644.7 L329.7,637.0 L329.7,636.3 L329.7,627.2 L329.7,620.9 L329.7,616.7 L329.7,616.0 L329.7,608.3 L329.7,605.5 L329.7,599.9 L331.1,599.9 L348.6,599.9 L357.7,599.9 L360.5,599.9 L368.9,599.9 L380.8,599.9 L389.9,599.9 L399.7,599.9 L400.4,599.9 L400.4,609.7 L416.5,608.3 Z" fill="#cee3f5" id="CA.SK.47005" stroke="#6e6e6e" stroke-width="0.4"><desc><feduid>47005</feduid><name>Palliser</name><prname>Saskatchewan</prname><fedfname>Palliser</fedfname><pruid>47</pruid><fedename>Palliser</fedename><id>CA.SK.47005</id><fedname>Palliser</fedname></desc></path><path d="M605.5,450.1 L605.5,455.0 L605.5,456.4 L605.5,464.1 L605.5,466.9 L607.6,466.9 L607.6,473.2 L607.6,477.4 L607.6,487.9 L607.6,489.3 L609.0,489.3 L609.0,492.8 L609.7,494.9 L609.0,496.3 L609.0,497.0 L609.0,503.3 L609.0,511.0 L611.1,511.0 L611.1,513.8 L611.1,515.2 L611.1,520.8 L611.1,527.8 L611.1,531.3 L611.8,531.3 L611.8,536.9 L611.8,542.5 L611.8,547.4 L611.8,550.9 L611.8,553.7 L613.9,553.7 L613.9,558.6 L613.9,560.7 L613.9,566.3 L613.9,572.6 L613.9,573.3 L613.9,576.1 L616.0,576.1 L616.0,581.7 L616.0,590.1 L615.3,598.5 L618.1,598.5 L618.1,603.4 L618.1,606.2 L617.4,605.5 L616.0,605.5 L613.9,605.5 L613.9,605.5 L613.2,605.5 L611.8,605.5 L610.4,604.8 L610.4,604.1 L608.3,604.1 L608.3,603.4 L607.6,603.4 L606.2,603.4 L604.1,603.4 L603.4,603.4 L602.7,604.1 L600.6,605.5 L599.9,605.5 L599.9,606.2 L599.2,606.2 L597.8,606.2 L597.1,606.2 L596.4,605.5 L596.4,604.8 L596.4,604.8 L596.4,604.1 L596.4,603.4 L595.0,602.7 L593.6,602.7 L592.9,602.7 L592.2,602.7 L590.8,602.7 L588.7,603.4 L588.0,603.4 L587.3,603.4 L586.6,602.7 L585.9,602.0 L585.2,602.7 L585.2,602.0 L584.5,602.0 L584.5,602.0 L583.8,602.0 L583.1,601.3 L581.0,601.3 L580.3,601.3 L578.9,601.3 L577.5,602.0 L577.5,602.0 L576.1,602.0 L575.4,602.7 L574.7,602.7 L572.6,604.1 L571.9,604.1 L571.2,604.1 L569.1,604.8 L567.7,604.8 L566.3,604.1 L566.3,604.1 L565.6,603.4 L564.9,603.4 L563.5,602.7 L561.4,602.0 L560.0,602.0 L557.9,602.0 L557.2,602.0 L557.2,602.0 L556.5,602.7 L555.1,602.7 L555.1,602.7 L554.4,602.7 L553.7,602.7 L552.3,602.7 L551.6,602.7 L550.9,602.0 L550.2,602.7 L549.5,602.0 L550.2,602.0 L549.5,601.3 L548.8,601.3 L547.4,601.3 L547.4,600.6 L546.0,600.6 L544.6,600.6 L543.9,599.2 L543.2,599.2 L542.5,599.2 L541.8,599.2 L541.8,598.5 L540.4,597.8 L539.0,597.8 L538.3,597.8 L537.6,597.8 L535.5,598.5 L534.8,598.5 L534.8,597.8 L534.1,597.8 L533.4,597.1 L534.1,596.4 L533.4,596.4 L532.0,595.7 L532.0,595.7 L530.6,595.7 L530.6,595.7 L529.2,595.7 L527.8,595.7 L527.8,595.7 L526.4,595.7 L526.4,596.4 L525.0,596.4 L524.3,597.1 L524.3,597.1 L522.2,597.8 L522.2,597.8 L521.5,598.5 L520.8,598.5 L520.8,598.5 L520.1,599.2 L519.4,599.2 L518.7,599.2 L518.0,599.9 L518.0,599.9 L517.3,600.6 L515.9,601.3 L515.2,601.3 L515.2,602.0 L513.8,602.0 L513.1,602.7 L512.4,602.7 L511.0,602.7 L510.3,603.4 L509.6,602.7 L508.9,603.4 L508.2,602.7 L506.8,602.7 L506.1,602.7 L505.4,602.7 L505.4,599.9 L504.7,599.9 L504.7,599.2 L504.0,599.2 L504.0,597.8 L504.0,593.6 L504.0,588.0 L504.0,583.8 L504.0,581.7 L502.6,581.7 L502.6,580.3 L502.6,576.1 L503.3,576.1 L503.3,574.0 L503.3,569.8 L503.3,559.3 L503.3,553.7 L503.3,553.7 L503.3,548.1 L495.6,548.1 L489.3,548.1 L478.8,548.1 L476.0,548.1 L476.0,541.8 L476.0,536.9 L476.0,533.4 L476.0,531.3 L476.0,531.3 L476.0,528.5 L476.0,527.1 L476.0,522.2 L476.0,520.1 L475.3,520.1 L475.3,519.4 L475.3,518.0 L476.0,518.0 L476.0,516.6 L475.3,516.6 L464.1,516.6 L464.1,516.6 L448.7,516.6 L448.7,514.5 L448.7,511.0 L447.3,511.0 L447.3,509.6 L448.0,508.9 L448.0,504.0 L448.0,496.3 L448.0,492.1 L448.0,489.3 L446.6,489.3 L446.6,478.1 L446.6,471.1 L448.0,471.1 L448.0,469.7 L447.3,469.7 L448.0,470.4 L447.3,470.4 L446.6,471.1 L446.6,469.7 L446.6,469.7 L446.6,466.9 L456.4,466.9 L464.1,466.9 L473.2,466.9 L473.2,457.8 L473.2,453.6 L473.2,450.8 L473.2,450.1 L480.9,450.1 L494.2,450.1 L505.4,450.1 L519.4,450.1 L537.6,450.1 L550.2,450.1 L565.6,450.1 L578.2,450.1 L585.2,450.1 L605.5,450.1 Z" fill="#cee3f5" id="CA.SK.47014" stroke="#6e6e6e" stroke-width="0.4"><desc><feduid>47014</feduid><name>Yorkton - Melville</name><prname>Saskatchewan</prname><fedfname>Yorkton - Melville</fedfname><pruid>47</pruid><fedename>Yorkton - Melville</fedename><id>CA.SK.47014</id><fedname>Yorkton - Melville</fedname></desc></path><path d="M210.7,473.2 L212.1,473.2 L213.5,473.9 L214.2,475.3 L215.6,476.0 L216.3,476.0 L219.1,476.7 L219.8,477.4 L221.2,478.1 L222.6,478.1 L224.7,479.5 L226.1,480.2 L227.5,480.9 L228.9,481.6 L229.6,482.3 L231.7,483.7 L234.5,484.4 L235.2,484.4 L237.3,485.1 L238.0,485.8 L238.7,486.5 L240.1,487.2 L241.5,487.2 L244.3,486.5 L247.8,487.2 L249.9,487.2 L251.3,487.2 L252.7,487.2 L254.1,486.5 L255.5,486.5 L256.2,485.8 L256.9,485.8 L258.3,485.8 L259.0,486.5 L267.4,486.5 L268.8,486.5 L270.9,487.9 L275.1,490.0 L275.1,499.8 L284.9,499.8 L286.3,499.8 L287.0,499.1 L287.0,499.1 L287.0,501.2 L287.0,501.2 L287.0,501.9 L286.3,502.6 L283.5,504.0 L283.5,504.7 L283.5,505.4 L284.2,506.8 L284.2,506.8 L284.9,508.2 L284.9,508.9 L284.2,510.3 L283.5,510.3 L283.5,510.3 L282.1,509.6 L281.4,509.6 L281.4,510.3 L280.7,511.0 L280.0,511.0 L278.6,511.7 L278.6,511.7 L279.3,512.4 L280.7,513.1 L282.1,513.1 L282.1,513.1 L282.1,513.8 L280.7,514.5 L280.7,514.5 L282.1,515.2 L282.1,515.9 L282.1,517.3 L282.1,517.3 L283.5,518.7 L283.5,520.1 L282.8,521.5 L281.4,522.9 L280.7,523.6 L280.7,524.3 L279.3,525.0 L279.3,526.4 L279.3,527.1 L278.6,527.8 L277.2,528.5 L275.8,528.5 L273.7,529.2 L271.6,529.9 L270.2,529.9 L268.8,530.6 L268.1,530.6 L267.4,532.0 L266.0,533.4 L257.6,533.4 L252.7,533.4 L238.0,533.4 L229.6,533.4 L222.6,533.4 L221.9,534.8 L222.6,541.1 L222.6,550.2 L212.1,550.2 L203.0,550.2 L196.7,550.2 L181.3,550.2 L171.5,550.2 L168.7,550.2 L168.7,541.1 L168.7,535.5 L168.7,533.4 L167.3,533.4 L167.3,522.2 L167.3,518.7 L167.3,516.6 L176.4,516.6 L176.4,511.0 L175.0,511.0 L175.0,509.6 L175.0,501.2 L175.0,500.5 L177.8,500.5 L178.5,499.8 L179.9,500.5 L179.9,499.8 L181.3,500.5 L182.0,500.5 L182.0,500.5 L183.4,500.5 L184.1,500.5 L185.5,500.5 L184.8,501.2 L186.9,501.2 L188.3,501.2 L189.0,501.2 L189.7,501.2 L189.7,501.2 L190.4,501.2 L190.4,501.9 L191.8,501.9 L192.5,502.6 L193.2,502.6 L193.2,497.0 L193.2,489.3 L192.5,489.3 L192.5,483.7 L192.5,482.3 L198.8,482.3 L198.8,478.1 L201.6,478.1 L201.6,472.5 L203.7,473.2 L204.4,473.2 L204.4,472.5 L205.8,472.5 L207.9,473.2 L210.7,473.2 Z" fill="#cee3f5" id="CA.SK.47010" stroke="#6e6e6e" stroke-width="0.4"><desc><feduid>47010</feduid><name>Saskatoon - Rosetown - Biggar</name><prname>Saskatchewan</prname><fedfname>Saskatoon - Rosetown - Biggar</fedfname><pruid>47</pruid><fedename>Saskatoon - Rosetown - Biggar</fedename><id>CA.SK.47010</id><fedname>Saskatoon - Rosetown - Biggar</fedname></desc></path><path d="M421.4,533.4 L422.8,533.4 L422.8,539.0 L422.8,547.4 L422.8,555.8 L424.2,555.8 L424.2,557.2 L424.2,563.5 L424.2,564.9 L424.2,567.0 L424.2,570.5 L424.2,572.6 L424.2,578.2 L425.6,578.2 L425.6,581.7 L425.6,586.6 L427.0,586.6 L427.0,588.7 L425.6,588.7 L425.6,596.4 L425.6,599.9 L417.9,599.9 L417.9,604.1 L416.5,604.1 L416.5,606.9 L416.5,606.9 L416.5,608.3 L400.4,609.7 L400.4,599.9 L399.7,599.9 L389.9,599.9 L380.8,599.9 L368.9,599.9 L360.5,599.9 L357.7,599.9 L348.6,599.9 L331.1,599.9 L329.7,599.9 L317.8,599.9 L315.0,599.9 L308.0,599.9 L303.1,599.9 L303.1,597.1 L303.1,595.7 L303.1,592.9 L303.1,590.8 L303.1,586.6 L303.1,585.2 L303.1,578.2 L303.1,577.5 L303.1,572.6 L303.1,567.0 L303.1,555.8 L303.1,555.8 L303.1,550.9 L303.1,550.2 L315.0,550.2 L323.4,550.2 L329.7,550.2 L330.4,550.2 L342.3,550.2 L342.3,544.6 L342.3,542.5 L342.3,533.4 L343.7,533.4 L354.2,533.4 L356.3,533.4 L360.5,533.4 L378.0,533.4 L381.5,533.4 L396.2,533.4 L400.4,533.4 L406.7,533.4 L417.2,533.4 L421.4,533.4 Z" fill="#cee3f5" id="CA.SK.47007" stroke="#6e6e6e" stroke-width="0.4"><desc><feduid>47007</feduid><name>Regina - Lumsden - Lake Centre</name><prname>Saskatchewan</prname><fedfname>Regina - Lumsden - Lake Centre</fedfname><pruid>47</pruid><fedename>Regina - Lumsden - Lake Centre</fedename><id>CA.SK.47007</id><fedname>Regina - Lumsden - Lake Centre</fedname></desc></path><path d="M448.7,516.6 L464.1,516.6 L464.1,516.6 L475.3,516.6 L476.0,516.6 L476.0,518.0 L475.3,518.0 L475.3,519.4 L475.3,520.1 L476.0,520.1 L476.0,522.2 L476.0,527.1 L476.0,528.5 L476.0,531.3 L476.0,531.3 L476.0,533.4 L476.0,536.9 L476.0,541.8 L476.0,548.1 L478.8,548.1 L489.3,548.1 L495.6,548.1 L503.3,548.1 L503.3,553.7 L503.3,553.7 L503.3,559.3 L503.3,569.8 L503.3,574.0 L503.3,576.1 L502.6,576.1 L502.6,580.3 L502.6,581.7 L504.0,581.7 L504.0,583.8 L504.0,588.0 L504.0,593.6 L504.0,597.8 L504.0,599.2 L504.7,599.2 L504.7,599.9 L505.4,599.9 L505.4,602.7 L505.4,608.3 L505.4,609.7 L505.4,611.1 L496.3,611.1 L483.0,611.1 L480.2,611.1 L476.0,611.1 L470.4,611.1 L465.5,611.1 L461.3,611.1 L454.3,611.1 L448.7,611.1 L437.5,611.1 L426.3,611.1 L426.3,608.3 L423.5,608.3 L423.5,606.9 L417.9,607.6 L416.5,608.3 L416.5,606.9 L416.5,606.9 L416.5,604.1 L417.9,604.1 L417.9,599.9 L425.6,599.9 L425.6,596.4 L425.6,588.7 L427.0,588.7 L427.0,586.6 L425.6,586.6 L425.6,581.7 L425.6,578.2 L424.2,578.2 L424.2,572.6 L424.2,570.5 L424.2,567.0 L424.2,564.9 L424.2,563.5 L424.2,557.2 L424.2,555.8 L422.8,555.8 L422.8,547.4 L422.8,539.0 L422.8,533.4 L421.4,533.4 L421.4,529.9 L421.4,527.8 L421.4,522.9 L422.8,522.9 L423.5,522.9 L423.5,521.5 L422.8,521.5 L422.1,520.8 L423.5,520.8 L423.5,520.1 L423.5,520.1 L424.2,520.1 L424.9,519.4 L425.6,518.0 L426.3,516.6 L439.6,516.6 L448.7,516.6 Z" fill="#cee3f5" id="CA.SK.47008" stroke="#6e6e6e" stroke-width="0.4"><desc><feduid>47008</feduid><name>Regina - Qu'Appelle</name><prname>Saskatchewan</prname><fedfname>Regina - Qu'Appelle</fedfname><pruid>47</pruid><fedename>Regina - Qu'Appelle</fedename><id>CA.SK.47008</id><fedname>Regina - Qu'Appelle</fedname></desc></path><path d="M217.7,433.3 L217.7,435.4 L217.7,437.5 L217.7,443.1 L217.7,444.5 L219.1,444.5 L219.1,450.1 L209.3,450.1 L209.3,460.6 L209.3,464.1 L209.3,466.9 L210.7,466.9 L210.7,473.2 L207.9,473.2 L205.8,472.5 L204.4,472.5 L204.4,473.2 L203.7,473.2 L201.6,472.5 L201.6,478.1 L198.8,478.1 L198.8,482.3 L192.5,482.3 L192.5,483.7 L192.5,489.3 L193.2,489.3 L193.2,497.0 L193.2,502.6 L192.5,502.6 L191.8,501.9 L190.4,501.9 L190.4,501.2 L189.7,501.2 L189.7,501.2 L189.0,501.2 L188.3,501.2 L186.9,501.2 L184.8,501.2 L185.5,500.5 L184.1,500.5 L183.4,500.5 L182.0,500.5 L182.0,500.5 L181.3,500.5 L179.9,499.8 L179.9,500.5 L178.5,499.8 L177.8,500.5 L175.0,500.5 L175.0,501.2 L175.0,509.6 L175.0,511.0 L176.4,511.0 L176.4,516.6 L167.3,516.6 L167.3,518.7 L167.3,522.2 L167.3,533.4 L168.7,533.4 L168.7,535.5 L168.7,541.1 L168.7,550.2 L165.2,550.2 L149.1,550.2 L143.5,550.2 L143.5,550.2 L137.2,550.2 L128.8,550.2 L123.9,550.2 L109.2,550.2 L105.7,550.2 L98.0,550.2 L95.9,550.2 L92.4,550.2 L79.8,550.2 L74.9,550.2 L74.9,544.6 L74.9,543.2 L74.9,539.0 L74.9,533.4 L74.9,532.0 L74.9,527.8 L74.9,522.2 L74.9,520.8 L74.9,516.6 L74.9,505.4 L74.9,496.3 L74.9,492.1 L74.9,487.9 L74.9,481.6 L74.9,476.0 L74.9,471.1 L74.9,466.9 L74.9,459.9 L74.9,457.8 L74.9,454.3 L74.9,452.9 L74.9,446.6 L74.9,443.8 L74.9,441.7 L74.9,431.9 L74.9,426.3 L74.9,415.1 L74.9,411.6 L74.9,406.7 L74.9,406.0 L74.9,399.7 L74.9,394.8 L87.5,394.8 L100.8,394.8 L121.1,394.8 L130.9,394.8 L144.9,394.8 L158.9,394.8 L158.9,400.4 L170.1,400.4 L170.1,406.0 L179.2,406.0 L192.5,406.0 L192.5,407.4 L191.8,407.4 L191.8,407.4 L189.7,409.5 L189.7,410.2 L189.0,410.9 L187.6,412.3 L187.6,413.0 L187.6,413.0 L188.3,413.7 L188.3,414.4 L189.7,414.4 L190.4,413.7 L191.8,413.7 L189.7,415.1 L189.0,415.8 L187.6,417.2 L187.6,417.9 L189.0,417.9 L200.2,417.9 L217.0,417.9 L217.0,420.7 L217.0,422.1 L217.7,422.1 L217.7,424.2 L217.7,430.5 L217.7,433.3 Z" fill="#cee3f5" id="CA.SK.47001" stroke="#6e6e6e" stroke-width="0.4"><desc><feduid>47001</feduid><name>Battlefords - Lloydminster</name><prname>Saskatchewan</prname><fedfname>Battlefords - Lloydminster</fedfname><pruid>47</pruid><fedename>Battlefords - Lloydminster</fedename><id>CA.SK.47001</id><fedname>Battlefords - Lloydminster</fedname></desc></path></svg>