<?xml version='1.0' encoding='utf-8'?>
<svg height="700" width="700" xmlns="http://www.w3.org/2000/svg"><path d="M255.0,663.0 L252.5,663.0 L253.5,659.5 L255.0,663.0 M430.5,517.5 L429.0,518.0 L431.0,516.0 L430.5,517.5 M409.0,516.5 L406.5,517.0 L405.0,514.0 L409.0,516.5 M393.0,511.5 L396.5,512.0 L395.0,513.0 L393.0,511.5 M390.0,511.0 L387.5,509.5 L388.0,507.5 L390.0,508.0 L390.0,511.0 M424.0,504.5 L419.5,504.0 L421.5,503.0 L424.0,504.5 M424.5,500.5 L429.0,503.0 L424.0,502.0 L424.5,500.5 M421.0,495.0 L423.5,500.0 L422.0,501.5 L419.5,501.5 L418.5,498.0 L420.0,494.0 L421.0,495.0 M384.0,493.0 L383.0,491.0 L384.5,492.0 L384.0,493.0 M390.5,491.5 L389.0,492.5 L388.0,489.0 L393.5,489.5 L390.5,491.5 M425.0,480.0 L424.0,475.0 L426.5,474.0 L425.0,480.0 M438.5,473.0 L434.5,473.0 L439.0,468.0 L438.5,473.0 M429.5,462.0 L429.5,463.5 L427.5,461.5 L429.5,462.0 M226.5,365.5 L225.0,366.0 L226.5,363.5 L226.5,365.5 M209.0,360.0 L210.5,361.0 L208.5,361.5 L208.0,360.5 L207.0,362.5 L206.0,359.0 L209.0,360.0 M159.5,320.0 L160.0,321.5 L157.5,321.0 L158.0,319.5 L159.5,320.0 M171.0,307.0 L167.5,307.5 L169.0,305.5 L171.0,307.0 M199.5,294.0 L197.0,294.5 L198.5,290.5 L199.5,294.0 M207.0,287.5 L209.5,290.5 L201.5,288.5 L207.0,287.5 M171.5,248.0 L167.5,249.0 L171.0,246.5 L171.5,248.0 M164.0,202.5 L165.5,202.5 L163.5,203.5 L162.0,200.5 L164.0,202.5 M210.5,201.5 L208.5,201.5 L208.0,199.0 L210.5,200.0 L210.5,201.5 M160.5,194.5 L158.5,197.0 L159.0,193.5 L160.5,194.5 M173.5,192.5 L171.5,195.5 L171.5,193.0 L173.5,192.5 M191.5,183.0 L194.0,186.5 L190.5,185.0 L191.5,183.0 M175.0,182.0 L176.0,185.0 L174.0,184.0 L175.0,182.0 M231.5,178.0 L232.0,180.5 L230.0,178.5 L231.5,178.0 M195.0,172.0 L200.5,174.0 L198.5,175.5 L194.5,173.0 L195.0,172.0 M210.5,159.0 L208.0,159.5 L207.5,154.5 L210.5,159.0 M214.5,141.0 L211.0,139.5 L214.5,137.5 L214.5,141.0 M201.0,138.5 L198.5,135.0 L205.5,138.0 L201.0,138.5 M193.5,125.5 L190.0,122.5 L193.0,122.0 L193.5,125.5 M187.5,119.0 L187.5,121.5 L183.0,119.0 L187.0,118.0 L187.5,119.0 Z" fill="#cee3f5" id="KR.4194" stroke="#6e6e6e" stroke-width="0.4"><desc><labelrank>20</labelrank><code_hasc>-99</code_hasc><name /><admin>South Korea</admin><type_en /><region /><woe_id>-99</woe_id><longitude>126</longitude><woe_name /><fips /><woe_label /><latitude>34</latitude><iso_a2>KR</iso_a2><postal /><type /><id>KR.4194</id></desc></path><path d="M317.0,291.0 L314.5,283.0 L308.5,285.0 L305.5,284.0 L303.5,277.0 L304.5,268.5 L289.0,269.5 L293.0,255.0 L298.0,247.5 L301.0,246.5 L301.5,245.5 L302.0,243.0 L302.5,241.5 L303.0,240.0 L301.5,233.5 L300.0,232.5 L298.0,229.0 L297.0,228.5 L295.5,227.0 L295.0,225.0 L299.5,223.5 L304.0,221.5 L307.5,220.5 L308.5,217.0 L310.0,215.0 L313.0,214.0 L315.0,210.0 L316.5,208.5 L319.5,209.5 L322.0,208.0 L328.0,196.5 L329.0,196.0 L330.0,195.5 L331.5,193.0 L342.5,190.0 L353.5,188.5 L352.5,195.0 L360.5,195.5 L361.5,195.0 L362.0,194.0 L364.5,192.5 L364.0,186.0 L366.0,184.0 L371.0,182.0 L375.0,186.5 L376.5,191.0 L392.5,184.5 L398.0,186.5 L404.0,187.5 L406.0,188.0 L404.5,190.5 L400.0,195.5 L402.5,197.5 L407.5,196.0 L412.5,195.5 L413.5,197.0 L413.0,198.5 L416.0,202.5 L425.0,201.0 L430.5,205.0 L435.5,205.5 L437.5,206.5 L440.0,208.0 L438.5,209.5 L437.0,210.5 L435.0,210.5 L428.0,217.0 L426.0,217.5 L420.5,222.5 L418.0,225.5 L415.5,230.5 L416.5,232.0 L418.0,233.0 L416.0,238.0 L407.5,242.0 L404.0,240.5 L396.5,232.5 L394.5,235.5 L393.0,239.5 L390.0,239.5 L385.0,237.0 L383.5,238.5 L381.5,240.5 L379.5,240.5 L378.0,239.5 L376.5,241.5 L375.0,244.5 L374.5,247.0 L376.5,250.0 L378.0,252.5 L370.5,251.5 L366.5,249.5 L364.5,253.0 L360.5,254.5 L357.5,257.0 L357.0,259.5 L356.5,261.0 L354.0,264.0 L352.5,265.5 L351.0,266.0 L349.5,266.5 L350.5,269.5 L354.5,270.5 L359.5,278.0 L358.0,279.5 L356.5,282.5 L355.5,293.0 L357.5,297.0 L353.5,302.0 L354.0,308.0 L358.0,307.5 L361.0,308.0 L365.5,311.5 L371.0,310.5 L373.5,312.0 L374.5,319.0 L372.5,319.0 L370.0,318.5 L367.5,320.5 L367.5,328.0 L365.5,330.5 L365.0,334.0 L363.0,337.0 L360.5,338.0 L358.0,339.0 L355.0,341.5 L352.0,339.5 L345.0,343.0 L337.5,339.5 L336.0,338.0 L334.0,336.5 L333.5,337.5 L332.5,338.0 L331.5,337.0 L330.5,336.0 L328.5,332.0 L326.5,328.0 L325.5,324.0 L325.5,319.5 L324.5,315.5 L321.5,313.5 L318.5,312.5 L315.0,313.0 L316.5,300.5 L323.0,289.0 L320.0,288.0 L318.5,289.0 L317.0,291.0 Z" fill="#cee3f5" id="KR.GB" stroke="#6e6e6e" stroke-width="0.4"><desc><labelrank>6</labelrank><code_hasc>KR.GB</code_hasc><name>North Chungcheong</name><admin>South Korea</admin><type_en>Province</type_en><region /><woe_id>2345965</woe_id><longitude>127</longitude><woe_name>Chungcheongbuk-do</woe_name><fips>KS05</fips><woe_label>Chungcheongbuk-Do, KR, South Korea</woe_label><latitude>36</latitude><iso_a2>KR</iso_a2><postal>GB</postal><type>Do</type><id>KR.GB</id></desc></path><path d="M225.5,142.5 L226.5,144.0 L218.5,147.0 L211.5,153.0 L209.5,152.5 L207.0,149.5 L203.5,150.0 L202.5,146.5 L209.5,143.0 L217.0,141.5 L219.5,138.5 L225.5,142.5 M240.0,159.0 L234.5,157.5 L232.0,160.5 L229.5,158.5 L232.0,154.0 L227.5,151.0 L227.5,146.5 L232.5,142.5 L229.0,143.5 L228.5,136.5 L238.5,136.5 L244.5,142.5 L245.5,148.0 L248.0,151.0 L245.5,157.0 L240.0,159.0 Z" fill="#cee3f5" id="KR.IN" stroke="#6e6e6e" stroke-width="0.4"><desc><labelrank>6</labelrank><code_hasc>KR.IN</code_hasc><name>Incheon</name><admin>South Korea</admin><type_en>Metropolitan City</type_en><region>Incheon</region><woe_id>20069922</woe_id><longitude>126</longitude><woe_name>Inch'on-gwangyoksi</woe_name><fips>KS12</fips><woe_label>Incheon, KR, South Korea</woe_label><latitude>37</latitude><iso_a2>KR</iso_a2><postal>IN</postal><type>Gwangyeoksi</type><id>KR.IN</id></desc></path><path d="M520.5,260.5 L516.0,260.0 L512.5,261.5 L505.5,258.5 L506.5,255.5 L505.0,246.0 L507.5,239.0 L505.5,237.5 L506.0,234.5 L498.5,234.0 L494.0,231.5 L492.0,226.5 L486.5,221.5 L486.5,214.0 L490.5,212.0 L493.5,213.0 L496.0,211.5 L495.0,208.5 L488.0,205.5 L482.5,208.0 L470.0,204.0 L464.0,207.5 L464.0,203.0 L456.0,199.0 L451.0,202.5 L451.0,211.5 L440.0,208.0 L437.5,206.5 L435.5,205.5 L430.5,205.0 L425.0,201.0 L416.0,202.5 L413.0,198.5 L413.5,197.0 L412.5,195.5 L407.5,196.0 L402.5,197.5 L400.0,195.5 L404.5,190.5 L406.0,188.0 L404.0,187.5 L398.0,186.5 L392.5,184.5 L376.5,191.0 L375.0,186.5 L371.0,182.0 L366.0,184.0 L364.0,186.0 L364.5,192.5 L360.5,195.5 L360.0,195.0 L359.0,194.5 L356.0,194.0 L352.5,195.0 L353.5,188.5 L342.5,190.0 L331.5,193.0 L348.5,158.0 L349.0,152.0 L355.5,144.5 L352.5,141.0 L344.5,139.0 L333.5,133.0 L327.5,133.5 L325.5,131.5 L327.5,122.0 L324.5,122.5 L323.5,121.0 L326.5,117.5 L325.5,107.0 L333.0,102.5 L335.0,95.5 L332.5,92.0 L328.5,90.5 L327.0,86.5 L322.5,86.5 L320.0,84.5 L316.5,71.5 L308.5,72.5 L301.5,69.0 L302.5,62.0 L295.0,66.0 L292.0,61.5 L289.0,70.0 L279.5,63.5 L275.0,55.5 L268.0,51.5 L281.0,42.0 L288.0,39.5 L310.5,38.5 L320.0,41.5 L349.0,38.0 L353.5,42.5 L378.0,41.0 L385.0,39.0 L391.5,34.5 L399.5,25.5 L403.0,18.0 L403.0,5.0 L411.5,0.0 L439.5,64.5 L468.5,107.0 L483.0,123.0 L484.0,131.5 L487.5,133.5 L491.5,145.5 L496.0,150.0 L505.5,169.0 L510.5,174.5 L515.5,194.0 L521.5,203.0 L519.0,208.5 L525.5,246.0 L520.5,260.5 Z" fill="#cee3f5" id="KR.KW" stroke="#6e6e6e" stroke-width="0.4"><desc><labelrank>6</labelrank><code_hasc>KR.KW</code_hasc><name>Gangwon</name><admin>South Korea</admin><type_en>Province</type_en><region /><woe_id>2345966</woe_id><longitude>128</longitude><woe_name>Gangwon-do</woe_name><fips>KS06</fips><woe_label>Kangwon-Do, KR, South Korea</woe_label><latitude>37</latitude><iso_a2>KR</iso_a2><postal>KW</postal><type>Do</type><id>KR.KW</id></desc></path><path d="M281.5,137.5 L284.5,137.5 L287.0,137.0 L289.0,137.0 L289.5,138.5 L289.5,140.5 L286.5,142.5 L287.0,145.5 L285.5,148.0 L284.5,149.5 L281.5,151.0 L278.5,152.0 L275.5,153.5 L274.5,150.5 L269.0,152.0 L267.5,153.0 L265.5,153.0 L261.0,153.0 L258.0,149.0 L253.0,146.5 L252.5,142.5 L250.5,140.0 L248.5,136.5 L250.0,133.5 L256.0,136.0 L258.5,135.0 L261.0,133.5 L261.0,131.5 L261.5,129.5 L266.5,129.0 L272.5,121.0 L275.5,120.5 L279.5,120.5 L281.0,123.5 L281.5,128.0 L282.5,131.0 L281.5,137.5 Z" fill="#cee3f5" id="KR.SO" stroke="#6e6e6e" stroke-width="0.4"><desc><labelrank>9</labelrank><code_hasc>KR.SO</code_hasc><name>Seoul</name><admin>South Korea</admin><type_en>Capital Metropolitan City</type_en><region /><woe_id>20069923</woe_id><longitude>126</longitude><woe_name>Seoul</woe_name><fips>KS11</fips><woe_label>Seoul, KR, South Korea</woe_label><latitude>37</latitude><iso_a2>KR</iso_a2><postal>SO</postal><type>Teukbyeolsi</type><id>KR.SO</id></desc></path><path d="M181.5,176.5 L177.5,179.0 L174.0,177.0 L176.0,171.5 L181.5,176.5 M214.5,176.0 L212.5,177.5 L210.0,176.5 L211.0,172.0 L216.5,172.0 L214.5,176.0 M224.5,171.5 L229.0,176.5 L223.0,181.5 L221.0,182.0 L223.0,175.0 L221.5,171.0 L224.5,170.5 L224.5,171.5 M135.0,120.0 L134.0,117.0 L136.5,118.0 L135.0,120.0 M205.0,122.0 L203.0,122.0 L196.0,116.0 L199.5,110.0 L206.0,119.0 L205.0,122.0 M40.0,100.0 L40.5,101.0 L36.0,102.5 L37.5,100.0 L40.0,100.0 M196.0,101.5 L201.5,103.0 L202.0,106.5 L200.0,108.0 L190.5,108.0 L191.5,102.5 L196.0,101.5 M221.0,126.5 L218.0,130.0 L215.5,128.0 L209.0,129.0 L205.0,125.5 L209.5,122.5 L205.0,113.0 L206.0,104.0 L209.5,101.0 L211.0,100.5 L220.5,108.0 L222.5,126.0 L221.0,126.5 M35.0,96.0 L32.0,97.0 L31.0,94.5 L34.5,91.0 L36.5,92.5 L35.0,96.0 M38.0,73.5 L38.5,77.0 L37.0,78.0 L32.0,77.0 L35.0,80.0 L32.5,81.5 L28.5,80.5 L25.5,77.5 L26.5,73.0 L38.0,73.5 M331.5,193.0 L330.0,195.5 L329.0,196.0 L328.0,196.5 L322.0,208.0 L319.5,209.5 L319.0,209.0 L316.5,208.5 L315.0,210.0 L313.0,214.0 L310.0,215.0 L308.5,217.0 L307.5,220.5 L304.0,221.5 L299.5,223.5 L295.0,225.0 L290.0,224.5 L281.5,218.5 L273.0,222.0 L264.0,221.0 L268.0,218.0 L267.5,213.0 L272.5,209.5 L266.0,211.5 L264.5,217.5 L259.0,217.5 L251.0,211.5 L250.0,208.0 L256.0,207.5 L254.5,205.5 L259.0,207.0 L256.0,199.5 L257.0,196.0 L255.0,196.5 L252.5,203.5 L243.0,202.0 L244.0,193.0 L247.0,190.5 L254.5,189.0 L255.0,185.5 L251.0,188.0 L248.5,187.0 L248.0,184.5 L237.5,192.0 L236.0,190.0 L238.0,186.5 L234.0,187.0 L234.5,184.0 L239.5,180.5 L235.5,180.0 L233.5,175.0 L235.0,174.0 L244.5,175.0 L246.0,179.5 L250.0,173.0 L255.5,173.5 L253.5,171.5 L241.5,168.5 L237.0,165.0 L240.0,159.0 L245.5,157.0 L248.0,151.0 L245.5,148.0 L244.5,142.5 L238.5,136.5 L228.5,136.5 L224.5,129.0 L222.5,108.0 L235.5,109.5 L235.0,120.5 L244.5,125.5 L237.0,119.0 L239.5,111.5 L238.0,105.0 L239.5,100.5 L236.0,100.5 L236.5,86.5 L246.5,81.0 L255.5,68.0 L263.0,61.5 L268.0,51.5 L275.0,55.5 L279.5,63.5 L289.0,70.0 L292.0,61.5 L295.0,66.0 L302.5,62.0 L301.5,69.0 L308.5,72.5 L316.5,71.5 L320.0,84.5 L322.5,86.5 L327.0,86.5 L328.5,90.5 L332.5,92.0 L335.0,95.5 L333.0,102.5 L325.5,107.0 L326.5,117.5 L323.5,121.0 L324.5,122.5 L327.5,122.0 L325.5,131.5 L327.5,133.5 L333.5,133.0 L344.5,139.0 L352.5,141.0 L355.5,144.5 L349.0,152.0 L348.5,158.0 L331.5,193.0 Z" fill="#cee3f5" id="KR.KG" stroke="#6e6e6e" stroke-width="0.4"><desc><labelrank>6</labelrank><code_hasc>KR.KG</code_hasc><name>Gyeonggi</name><admin>South Korea</admin><type_en>Province</type_en><region /><woe_id>2345969</woe_id><longitude>127</longitude><woe_name>Gyeonggi-do</woe_name><fips>KS13</fips><woe_label>Kyeongki-Do, KR, South Korea</woe_label><latitude>37</latitude><iso_a2>KR</iso_a2><postal>KG</postal><type>Do</type><id>KR.KG</id></desc></path><path d="M191.0,386.5 L185.5,392.5 L186.0,388.5 L191.0,386.5 M330.5,336.0 L332.5,338.0 L333.5,337.5 L334.0,336.5 L345.0,343.0 L352.0,339.5 L355.0,341.5 L358.0,339.0 L362.0,346.5 L361.5,354.5 L356.5,361.5 L346.0,365.5 L339.5,374.0 L331.0,401.5 L333.5,403.0 L335.0,412.5 L337.5,416.0 L329.0,433.5 L323.0,428.5 L316.5,426.0 L309.5,431.5 L294.5,432.0 L291.5,429.5 L281.0,432.5 L277.0,431.5 L274.5,429.0 L274.5,424.5 L272.0,419.5 L273.0,416.0 L271.0,412.5 L268.0,413.0 L265.0,418.5 L261.5,418.5 L257.0,411.5 L252.0,408.0 L248.0,410.0 L244.5,409.5 L241.5,412.0 L241.5,415.5 L237.0,423.5 L220.5,429.0 L218.0,428.0 L219.5,416.5 L216.5,415.5 L204.0,419.0 L202.0,415.5 L203.0,412.5 L210.5,399.0 L221.0,397.0 L226.5,393.0 L231.5,398.0 L229.5,391.0 L212.5,392.0 L207.5,389.0 L208.0,384.0 L222.0,374.5 L225.5,367.0 L229.0,364.5 L236.5,365.0 L241.5,369.0 L243.0,365.0 L233.5,357.5 L236.5,355.5 L243.5,356.0 L248.0,352.0 L245.0,349.5 L237.0,353.0 L224.0,352.0 L224.0,346.5 L220.0,344.5 L215.0,345.0 L215.0,341.0 L238.5,339.5 L249.5,333.5 L252.0,330.0 L245.5,332.0 L250.5,326.0 L272.5,321.5 L276.5,322.5 L275.5,328.0 L277.5,331.5 L294.5,327.5 L298.0,323.5 L306.0,335.0 L310.5,337.0 L311.0,341.0 L317.0,342.0 L325.5,340.5 L330.5,336.0 Z" fill="#cee3f5" id="KR.CB" stroke="#6e6e6e" stroke-width="0.4"><desc><labelrank>6</labelrank><code_hasc>KR.CB</code_hasc><name>North Jeolla</name><admin>South Korea</admin><type_en>Province</type_en><region /><woe_id>2345964</woe_id><longitude>127</longitude><woe_name>Jeollabuk-do</woe_name><fips>KS03</fips><woe_label>Jeollabuk-Do, KR, South Korea</woe_label><latitude>35</latitude><iso_a2>KR</iso_a2><postal>CB</postal><type>Do</type><id>KR.CB</id></desc></path><path d="M262.0,437.0 L264.0,443.0 L259.5,448.5 L253.0,447.5 L247.5,444.0 L244.5,437.5 L247.0,435.5 L250.5,436.5 L253.5,436.0 L256.5,435.0 L262.0,437.0 Z" fill="#cee3f5" id="KR.KJ" stroke="#6e6e6e" stroke-width="0.4"><desc><labelrank>6</labelrank><code_hasc>KR.KJ</code_hasc><name>Gwangju</name><admin>South Korea</admin><type_en>Metropolitan City</type_en><region /><woe_id>2345974</woe_id><longitude>126</longitude><woe_name /><fips>KS16</fips><woe_label>Gwangju, KR, South Korea</woe_label><latitude>35</latitude><iso_a2>KR</iso_a2><postal>KJ</postal><type>Gwangyeoksi</type><id>KR.KJ</id></desc></path><path d="M204.5,275.0 L207.0,284.0 L200.0,283.5 L201.5,279.0 L197.5,280.0 L200.0,275.5 L196.5,275.5 L195.5,261.5 L198.0,258.5 L200.0,258.0 L201.5,260.0 L200.5,262.5 L202.0,269.5 L204.5,273.0 L202.0,274.0 L204.5,275.0 M264.0,221.0 L273.0,222.0 L281.5,218.5 L290.0,224.5 L295.0,225.0 L295.5,227.0 L297.0,228.5 L298.0,229.0 L300.0,232.5 L301.5,233.5 L301.0,236.5 L303.0,240.0 L302.5,241.5 L301.5,245.5 L301.0,246.5 L300.0,246.5 L299.0,246.5 L298.0,247.5 L293.0,255.0 L278.0,249.0 L275.5,255.5 L275.5,275.5 L273.0,279.5 L282.5,281.5 L289.5,280.0 L295.0,288.5 L297.0,292.5 L299.5,309.0 L304.5,307.5 L309.0,304.5 L310.5,304.0 L313.5,301.5 L315.0,296.0 L316.5,294.0 L317.0,291.0 L318.5,289.0 L320.0,288.0 L323.0,289.0 L322.5,291.0 L316.5,300.5 L315.0,313.0 L318.5,312.5 L321.5,313.5 L324.5,315.5 L325.5,319.5 L325.5,324.0 L326.5,328.0 L328.5,332.0 L330.5,336.0 L325.5,340.5 L317.0,342.0 L311.0,341.0 L310.5,337.0 L306.0,335.0 L298.0,323.5 L294.5,327.5 L277.5,331.5 L275.5,328.0 L276.5,322.5 L272.5,321.5 L250.5,326.0 L245.5,332.0 L233.0,338.0 L226.5,328.0 L228.0,326.5 L225.0,325.0 L222.5,320.5 L218.5,320.5 L216.5,317.5 L212.5,320.5 L213.0,316.5 L216.5,315.0 L219.5,314.0 L224.0,315.5 L222.0,311.5 L217.0,309.0 L222.5,299.5 L215.0,295.5 L222.5,291.5 L222.0,290.0 L216.0,289.0 L214.0,286.5 L215.5,285.5 L214.0,283.0 L226.5,276.0 L220.5,276.0 L216.5,280.0 L214.0,279.0 L212.5,273.0 L216.0,268.5 L211.5,267.0 L210.5,260.0 L216.0,259.0 L217.0,256.0 L213.0,253.0 L216.0,250.5 L212.5,248.0 L212.5,244.0 L215.0,244.0 L213.0,240.5 L208.5,244.0 L209.0,254.5 L207.0,258.5 L201.0,255.5 L202.5,246.0 L201.5,242.0 L199.0,241.0 L196.5,246.0 L194.5,246.0 L198.5,257.5 L193.0,261.0 L194.0,254.5 L191.0,249.5 L191.5,243.5 L186.5,247.5 L181.5,249.0 L179.0,245.0 L184.0,245.0 L185.0,242.0 L179.5,237.5 L176.5,245.0 L176.5,237.5 L180.5,230.5 L182.5,235.0 L185.5,235.0 L183.5,231.5 L186.0,232.5 L188.5,230.5 L184.0,229.5 L185.5,225.5 L183.5,221.5 L188.0,219.0 L187.5,223.0 L192.0,223.0 L193.5,212.0 L196.0,211.5 L197.5,222.0 L195.0,225.5 L195.5,229.0 L192.5,232.5 L193.5,234.5 L197.5,232.5 L200.5,234.5 L197.5,227.0 L199.0,225.5 L201.5,228.5 L205.5,226.0 L203.0,223.0 L205.5,222.5 L207.5,217.5 L206.5,215.0 L200.5,213.0 L203.0,210.5 L199.0,209.0 L201.0,207.0 L204.5,208.5 L204.5,206.0 L210.5,207.0 L211.0,208.5 L209.0,212.5 L209.5,214.5 L212.5,213.0 L213.5,216.0 L212.0,224.5 L214.0,228.0 L218.0,214.5 L224.5,221.0 L222.0,215.0 L215.5,208.0 L216.5,206.5 L220.0,210.5 L223.5,210.5 L217.5,205.5 L216.5,200.5 L220.0,201.5 L229.0,208.5 L229.5,219.5 L231.5,212.5 L235.0,208.5 L243.0,210.5 L247.0,214.0 L245.0,222.5 L248.5,219.0 L250.0,220.0 L250.0,229.0 L252.0,236.0 L249.5,237.5 L252.0,240.5 L254.0,234.0 L253.5,230.5 L257.5,231.5 L253.0,225.5 L264.0,221.0 Z" fill="#cee3f5" id="KR.GN" stroke="#6e6e6e" stroke-width="0.4"><desc><labelrank>6</labelrank><code_hasc>KR.GN</code_hasc><name>South Chungcheong</name><admin>South Korea</admin><type_en>Province</type_en><region /><woe_id>2345973</woe_id><longitude>126</longitude><woe_name>Chungcheongnam-do</woe_name><fips>KS17</fips><woe_label>Chungcheongnam-Do, KR, South Korea</woe_label><latitude>36</latitude><iso_a2>KR</iso_a2><postal>GN</postal><type>Do</type><id>KR.GN</id></desc></path><path d="M303.5,277.0 L305.5,284.0 L308.5,285.0 L314.5,283.0 L317.0,291.0 L316.5,294.0 L315.0,296.0 L313.5,301.5 L310.5,304.0 L309.0,304.5 L304.5,307.5 L299.5,309.0 L297.0,292.5 L289.5,280.0 L294.5,278.5 L301.0,277.0 L303.5,277.0 Z" fill="#cee3f5" id="KR.TJ" stroke="#6e6e6e" stroke-width="0.4"><desc><labelrank>9</labelrank><code_hasc>KR.TJ</code_hasc><name>Daejeon</name><admin>South Korea</admin><type_en>Metropolitan City</type_en><region /><woe_id>2345975</woe_id><longitude>127</longitude><woe_name>Daejeon</woe_name><fips>KS19</fips><woe_label>Daejon, KR, South Korea</woe_label><latitude>36</latitude><iso_a2>KR</iso_a2><postal>TJ</postal><type>Gwangyeoksi</type><id>KR.TJ</id></desc></path><path d="M449.0,360.5 L448.0,360.0 L447.0,360.0 L447.0,361.0 L447.0,362.0 L446.0,364.5 L446.0,365.5 L445.5,366.5 L443.5,368.0 L437.0,366.5 L434.0,366.0 L432.5,367.5 L431.0,370.0 L430.0,370.5 L429.0,370.0 L427.5,369.0 L426.0,367.5 L423.0,363.5 L421.5,363.0 L421.0,360.5 L422.5,358.5 L424.0,358.5 L425.5,358.0 L426.0,357.0 L424.5,355.0 L427.0,350.5 L426.5,344.5 L431.5,340.5 L438.5,340.0 L444.0,339.5 L448.0,342.5 L449.5,345.0 L449.0,350.0 L449.5,351.5 L451.0,352.5 L451.0,354.5 L451.0,356.5 L450.5,358.5 L449.0,360.5 Z" fill="#cee3f5" id="KR.TG" stroke="#6e6e6e" stroke-width="0.4"><desc><labelrank>6</labelrank><code_hasc>KR.TG</code_hasc><name>Daegu</name><admin>South Korea</admin><type_en>Metropolitan City</type_en><region /><woe_id>2345971</woe_id><longitude>128</longitude><woe_name>Daegu</woe_name><fips>KS15</fips><woe_label>Daegu, KR, South Korea</woe_label><latitude>35</latitude><iso_a2>KR</iso_a2><postal>TG</postal><type>Gwangyeoksi</type><id>KR.TG</id></desc></path><path d="M398.0,518.0 L401.0,517.0 L399.0,519.5 L394.5,520.5 L393.5,515.5 L398.0,518.0 M410.0,493.0 L416.0,493.5 L414.5,501.0 L408.5,496.5 L410.0,495.0 L405.0,492.5 L407.0,491.5 L410.0,493.0 M395.0,496.0 L391.5,494.0 L393.5,491.0 L397.0,494.0 L395.0,496.0 M371.0,487.0 L374.5,483.5 L378.0,491.0 L366.5,490.0 L366.0,486.0 L371.5,480.5 L371.0,487.0 M364.0,492.5 L365.0,495.0 L372.5,493.0 L376.5,494.0 L375.0,509.0 L370.0,507.5 L366.5,508.5 L364.5,501.0 L362.5,500.0 L359.0,507.0 L354.5,504.5 L351.0,486.5 L359.0,477.5 L363.0,481.0 L359.0,486.5 L360.0,490.0 L364.0,492.5 M446.5,476.0 L448.0,480.5 L445.5,486.5 L449.0,485.0 L448.5,490.5 L446.5,491.0 L448.5,497.5 L442.5,495.0 L439.5,502.0 L443.5,504.5 L431.5,508.5 L435.5,506.0 L433.0,504.0 L434.0,500.5 L430.5,502.0 L429.0,498.5 L432.5,497.5 L434.0,491.5 L432.5,490.5 L426.0,495.0 L421.5,487.0 L425.5,483.5 L430.5,482.0 L438.5,484.5 L435.0,480.5 L434.5,476.0 L443.5,472.0 L442.5,469.5 L444.5,466.0 L447.0,468.0 L446.5,476.0 M458.0,471.0 L455.0,464.0 L456.5,462.5 L459.5,464.0 L458.0,471.0 M477.0,395.0 L477.5,400.5 L475.0,405.5 L476.5,409.0 L483.0,410.0 L486.0,412.0 L490.5,417.0 L498.5,422.0 L501.5,428.0 L505.0,429.5 L504.5,431.0 L504.0,433.5 L503.0,436.0 L503.5,438.5 L497.5,449.0 L490.5,442.0 L488.0,436.5 L483.5,435.0 L477.5,439.5 L476.5,447.0 L472.0,453.0 L467.5,460.0 L466.0,460.0 L465.5,454.5 L463.5,460.0 L454.0,459.5 L453.0,456.0 L451.0,460.0 L447.0,457.0 L444.5,458.0 L444.0,451.5 L442.0,455.5 L437.5,451.0 L435.5,451.5 L434.0,442.5 L431.5,447.0 L436.5,458.5 L436.0,461.5 L439.0,462.5 L434.0,463.0 L431.5,459.0 L424.0,456.5 L419.5,458.0 L421.0,460.5 L411.0,464.0 L409.0,469.5 L421.5,463.5 L423.0,469.0 L420.5,471.5 L415.0,471.0 L414.5,472.5 L416.5,475.5 L415.5,484.5 L417.5,485.0 L418.5,482.5 L420.0,484.5 L416.0,490.5 L413.5,491.0 L410.0,491.0 L410.5,489.0 L414.0,488.0 L407.0,487.0 L404.0,484.5 L407.5,482.0 L405.0,477.0 L401.5,482.0 L399.0,482.0 L397.0,479.0 L393.5,478.0 L391.5,484.0 L384.0,484.0 L382.5,483.0 L382.0,480.0 L375.5,479.0 L375.5,465.5 L377.0,459.0 L372.0,465.0 L369.5,465.5 L371.5,470.0 L370.0,471.0 L364.5,472.5 L361.5,467.0 L360.0,474.5 L358.0,476.5 L351.5,477.0 L348.5,475.0 L347.0,468.5 L332.0,449.0 L331.5,442.0 L328.5,436.5 L329.0,433.5 L337.5,416.0 L335.0,412.5 L333.5,403.0 L331.0,401.5 L339.5,374.0 L346.0,365.5 L356.5,361.5 L361.5,354.5 L367.0,362.5 L375.0,366.0 L383.5,367.0 L385.5,369.0 L393.5,378.5 L392.0,384.5 L393.5,390.5 L406.5,391.0 L415.0,395.0 L420.5,392.0 L423.5,393.0 L428.5,387.0 L429.5,394.5 L432.0,397.5 L435.5,400.0 L443.0,398.5 L450.0,401.5 L454.0,401.5 L467.0,393.5 L474.0,396.0 L477.0,395.0 Z" fill="#cee3f5" id="KR.KN" stroke="#6e6e6e" stroke-width="0.4"><desc><labelrank>6</labelrank><code_hasc>KR.KN</code_hasc><name>South Gyeongsang</name><admin>South Korea</admin><type_en>Province</type_en><region /><woe_id>2345967</woe_id><longitude>128</longitude><woe_name>Gyeongsangnam-do</woe_name><fips>KS20</fips><woe_label>Gyeongsangnam-Do, KR, South Korea</woe_label><latitude>35</latitude><iso_a2>KR</iso_a2><postal>KN</postal><type>Do</type><id>KR.KN</id></desc></path><path d="M189.0,602.0 L186.5,605.5 L184.5,602.0 L189.0,602.0 M253.0,601.0 L250.5,601.5 L250.5,599.5 L252.0,599.0 L253.0,601.0 M292.5,590.5 L292.5,593.5 L295.0,598.0 L292.0,596.5 L290.5,593.5 L290.5,591.0 L292.5,590.5 M59.0,585.5 L54.5,582.5 L55.5,579.5 L59.0,585.5 M217.5,584.0 L215.5,584.0 L215.5,582.0 L217.5,584.0 M214.0,575.0 L219.0,576.5 L215.5,576.5 L208.5,580.5 L208.5,575.0 L212.0,573.5 L214.0,575.0 M224.5,581.5 L221.5,580.5 L222.5,571.5 L225.0,572.5 L224.0,575.5 L226.0,578.0 L224.5,581.5 M235.0,573.5 L233.5,573.0 L235.5,570.0 L235.0,573.5 M252.0,576.0 L250.0,578.0 L245.0,577.0 L245.5,571.5 L250.0,570.5 L252.5,574.0 L252.0,576.0 M216.5,574.0 L212.0,572.0 L213.5,566.5 L219.5,569.5 L216.5,574.0 M148.5,564.0 L145.5,565.0 L146.5,563.0 L148.5,564.0 M289.0,570.5 L284.5,571.0 L288.0,566.0 L289.0,570.5 M219.0,564.5 L220.5,566.0 L217.5,567.0 L217.0,565.5 L219.0,564.5 M159.0,562.5 L160.5,564.5 L157.0,566.5 L155.5,564.5 L159.0,562.5 M145.0,561.5 L145.0,563.5 L145.0,562.0 L144.0,564.0 L142.0,563.0 L145.0,561.5 M304.0,562.0 L303.0,562.5 L302.5,560.5 L304.0,560.5 L304.0,562.0 M299.0,560.0 L301.0,561.0 L298.5,564.0 L299.0,560.0 M157.0,554.5 L163.0,555.5 L163.0,558.0 L160.5,559.5 L156.5,558.0 L157.0,554.5 M259.0,558.0 L256.5,557.5 L256.5,555.0 L262.5,555.0 L259.0,558.0 M153.0,551.0 L157.5,551.5 L159.5,554.0 L153.0,553.0 L153.0,551.0 M244.5,552.0 L249.5,553.5 L247.5,557.0 L244.0,558.0 L242.5,555.5 L238.5,556.0 L235.0,554.0 L244.5,552.0 M266.0,551.5 L269.5,551.5 L271.5,554.5 L268.0,554.0 L269.0,555.0 L265.0,557.5 L266.0,554.5 L260.0,551.5 L264.0,548.5 L266.0,551.5 M80.0,543.0 L78.0,543.5 L76.5,541.0 L80.0,543.0 M233.5,555.5 L236.0,560.0 L227.5,558.0 L228.5,555.5 L223.0,553.5 L224.0,546.0 L230.0,546.5 L233.5,555.5 M255.5,545.5 L255.0,549.5 L252.0,551.5 L249.0,550.5 L248.5,548.0 L247.0,549.5 L246.5,544.5 L253.0,546.5 L255.5,545.5 M290.5,549.0 L288.0,548.0 L287.5,544.5 L290.5,549.0 M246.0,546.0 L239.0,548.5 L237.0,551.5 L234.5,547.0 L238.0,542.0 L242.5,540.5 L246.0,546.0 M78.0,535.5 L76.5,536.5 L77.5,534.0 L78.0,535.5 M266.0,538.5 L269.5,543.0 L268.0,545.5 L264.0,539.5 L266.0,538.5 M347.5,546.0 L346.0,544.5 L347.5,539.5 L348.5,541.0 L347.5,546.0 M313.5,538.5 L316.0,538.0 L319.0,542.5 L314.0,545.0 L310.0,540.0 L310.5,537.5 L313.5,538.5 M284.0,543.5 L276.5,543.0 L274.0,541.5 L274.5,539.0 L273.5,538.0 L280.0,535.5 L286.5,536.0 L287.5,540.5 L284.0,543.5 M160.0,532.5 L161.0,533.5 L158.0,535.5 L157.5,533.0 L159.5,531.0 L160.0,532.5 M350.0,537.0 L347.5,538.0 L347.0,536.5 L350.0,534.5 L350.0,537.0 M276.0,531.5 L273.5,533.0 L272.5,531.0 L275.0,530.5 L276.0,531.5 M312.5,532.0 L311.0,532.0 L315.5,535.0 L310.5,536.5 L309.0,529.5 L311.5,528.5 L312.5,532.0 M345.0,536.0 L340.0,533.5 L338.0,529.0 L343.5,529.0 L346.5,534.5 L345.0,536.0 M188.0,526.5 L192.0,525.5 L195.0,532.0 L191.0,543.5 L190.0,544.0 L187.0,541.0 L186.5,544.0 L176.0,549.5 L169.0,549.5 L170.0,545.5 L167.0,543.5 L167.0,546.0 L165.0,543.5 L166.5,539.0 L169.5,535.5 L172.5,535.5 L178.5,527.5 L179.5,529.0 L183.0,528.5 L183.5,526.5 L180.0,522.5 L181.0,521.5 L184.5,522.5 L188.0,526.5 M305.0,525.0 L304.0,525.5 L305.5,523.5 L305.0,525.0 M333.5,524.5 L336.5,525.5 L332.0,527.5 L330.0,526.0 L332.5,523.0 L333.5,524.5 M322.0,519.0 L320.5,522.0 L317.5,519.5 L322.0,519.0 M160.5,526.5 L158.0,526.0 L160.0,524.5 L157.5,523.0 L162.5,521.5 L162.0,514.5 L165.0,517.0 L165.5,520.5 L165.0,523.0 L160.5,526.5 M139.5,514.0 L139.5,516.0 L135.0,517.5 L133.5,514.0 L139.5,514.0 M158.5,521.5 L156.5,521.0 L157.5,513.0 L161.0,519.5 L158.5,521.5 M152.0,513.5 L152.0,515.0 L149.0,512.5 L150.5,511.5 L152.0,513.5 M98.0,510.0 L96.5,510.0 L99.0,508.5 L98.0,510.0 M171.5,510.5 L173.5,509.5 L176.0,513.0 L168.0,516.0 L167.0,511.5 L170.5,508.5 L171.5,510.5 M94.0,503.0 L97.0,504.5 L91.0,511.5 L89.5,507.5 L92.0,503.5 L94.0,503.0 M166.5,504.5 L165.0,504.5 L166.5,503.0 L166.5,504.5 M69.5,499.5 L70.5,501.5 L67.5,506.5 L66.5,504.0 L69.5,499.5 M347.5,524.0 L345.0,523.5 L340.5,518.0 L344.0,513.0 L345.0,509.5 L343.5,507.0 L346.0,506.0 L347.5,508.0 L345.5,510.5 L349.5,517.5 L347.5,524.0 M341.5,507.5 L340.5,508.5 L339.0,507.0 L340.0,506.0 L341.5,507.5 M154.5,507.5 L150.5,510.0 L146.0,506.0 L152.5,500.5 L155.5,504.5 L154.5,507.5 M167.5,496.0 L173.5,498.5 L173.5,504.5 L170.0,502.0 L166.0,502.0 L162.5,495.5 L167.5,496.0 M189.0,497.5 L188.0,495.0 L189.0,494.0 L190.5,495.0 L189.0,497.5 M156.0,494.0 L156.0,497.0 L150.0,496.5 L147.5,501.5 L144.0,501.0 L143.5,496.0 L146.0,494.0 L155.0,492.5 L156.0,494.0 M312.0,495.0 L310.0,497.5 L310.0,495.5 L312.0,495.0 M172.0,496.5 L165.0,493.5 L171.5,491.0 L173.5,493.0 L172.0,496.5 M171.0,481.5 L172.0,483.5 L170.5,484.5 L170.5,487.5 L165.5,492.0 L162.5,485.0 L167.5,485.0 L167.5,482.5 L171.0,481.5 M339.5,483.0 L342.0,483.5 L337.5,486.0 L336.5,484.5 L339.5,483.0 M194.0,485.0 L194.0,488.0 L192.0,489.5 L191.5,487.0 L188.0,485.0 L182.0,486.5 L180.0,485.0 L187.0,482.0 L187.5,477.0 L192.5,480.0 L190.0,482.0 L189.5,484.0 L194.0,485.0 M165.0,477.5 L165.0,481.0 L163.0,483.5 L154.0,483.5 L157.0,478.5 L161.0,477.5 L162.0,475.0 L165.0,477.5 M182.0,477.0 L180.0,477.5 L179.5,475.0 L183.0,475.0 L182.0,477.0 M185.5,470.5 L187.5,475.0 L184.0,470.5 L185.5,470.5 M178.5,470.5 L178.5,472.5 L177.0,470.0 L179.0,468.0 L178.5,470.5 M183.5,469.5 L182.0,469.5 L182.5,465.5 L185.0,467.5 L183.5,469.5 M174.0,466.0 L175.0,469.0 L169.5,473.0 L172.0,466.5 L166.5,465.5 L170.5,463.0 L174.0,466.0 M171.5,458.5 L175.0,459.0 L175.5,462.5 L170.5,461.0 L171.5,458.5 M159.0,453.5 L159.0,456.0 L157.5,454.0 L158.0,452.5 L159.0,453.5 M176.5,453.0 L181.5,453.5 L179.5,456.5 L183.5,459.0 L183.5,463.5 L181.5,459.5 L174.5,456.5 L173.5,454.0 L176.5,453.0 M168.5,458.0 L167.5,459.5 L162.0,458.0 L164.0,452.5 L170.5,447.5 L174.0,447.5 L170.0,450.5 L172.0,455.5 L168.5,458.0 M173.0,430.5 L172.0,431.0 L171.0,429.0 L172.0,427.5 L173.0,430.5 M161.5,420.5 L159.0,422.5 L158.5,419.5 L159.5,418.5 L161.5,420.5 M329.0,433.5 L328.5,436.5 L331.5,442.0 L332.0,449.0 L347.0,468.5 L348.5,475.0 L342.0,474.5 L339.5,471.0 L338.5,477.0 L333.5,481.5 L331.0,482.5 L327.5,477.0 L326.0,476.5 L324.5,478.0 L325.0,485.0 L331.5,493.5 L337.0,490.0 L345.5,489.0 L341.5,505.0 L337.5,506.5 L332.5,504.5 L330.5,508.5 L329.0,508.5 L330.5,519.0 L322.0,513.0 L321.5,510.0 L324.5,502.0 L321.5,495.0 L319.5,494.0 L318.0,483.5 L314.0,490.0 L301.5,492.0 L308.0,495.0 L301.0,498.5 L300.5,500.0 L304.5,500.5 L305.5,508.0 L312.0,513.0 L314.0,516.0 L310.5,516.0 L315.0,518.0 L315.5,522.0 L310.0,524.0 L304.0,520.5 L299.0,522.5 L300.0,526.5 L306.5,526.5 L308.5,528.5 L301.5,536.0 L299.5,535.0 L296.5,537.0 L298.5,541.0 L295.5,541.0 L285.5,527.5 L280.0,530.0 L280.5,531.5 L275.0,528.0 L275.5,525.0 L284.5,516.0 L282.5,524.0 L288.0,522.5 L290.0,517.0 L287.5,511.5 L291.5,507.0 L295.5,514.0 L300.5,508.0 L297.5,502.5 L293.0,505.0 L288.5,499.0 L283.5,508.5 L276.5,509.0 L272.5,513.5 L263.0,518.5 L261.0,528.0 L255.0,533.5 L255.0,539.0 L250.0,539.5 L250.5,543.5 L241.0,539.0 L241.0,524.0 L238.0,521.5 L235.5,525.0 L236.5,529.5 L233.0,530.5 L236.0,535.5 L230.0,539.0 L232.0,541.0 L228.0,540.5 L227.0,543.5 L222.0,546.0 L218.5,558.0 L209.5,558.5 L210.0,552.5 L205.0,551.5 L209.5,543.0 L205.0,540.5 L206.0,535.5 L204.0,535.5 L204.5,532.5 L207.0,531.0 L212.5,530.5 L209.5,527.5 L212.0,524.0 L206.0,524.0 L204.5,526.5 L196.0,527.0 L191.5,520.5 L189.0,522.5 L186.0,520.0 L188.5,516.0 L183.5,513.0 L187.0,498.5 L189.5,499.5 L193.0,506.0 L192.0,509.5 L195.5,518.0 L203.0,521.0 L205.0,518.5 L201.0,518.0 L199.0,515.0 L199.5,512.0 L196.0,514.0 L195.5,504.0 L203.0,505.0 L203.5,509.5 L212.0,516.0 L210.5,512.5 L221.5,515.5 L214.0,511.0 L215.0,510.0 L209.5,503.5 L199.5,500.5 L197.0,501.5 L194.0,499.0 L197.0,497.0 L204.5,495.5 L212.5,500.0 L213.5,493.5 L223.5,495.0 L223.0,493.0 L226.5,492.5 L225.0,490.5 L217.0,490.5 L218.5,482.5 L216.5,480.0 L213.5,482.5 L214.0,486.5 L210.0,495.5 L207.5,494.5 L209.0,492.0 L207.5,491.0 L195.0,494.0 L201.0,481.0 L198.5,477.5 L198.5,473.0 L202.5,469.5 L198.5,469.0 L195.5,471.0 L196.0,475.0 L194.5,476.0 L189.5,474.5 L191.0,473.5 L188.0,470.0 L193.0,470.0 L193.0,467.5 L196.0,464.5 L190.5,455.5 L188.5,455.0 L189.5,458.0 L187.0,459.5 L183.5,450.5 L187.5,448.5 L190.0,451.5 L193.0,446.0 L193.0,454.0 L195.5,457.0 L200.0,459.0 L199.5,461.5 L201.5,464.5 L204.5,454.0 L200.5,451.5 L196.0,444.0 L197.0,439.0 L195.5,435.5 L190.0,436.0 L197.0,434.0 L195.0,433.0 L197.5,430.0 L198.0,424.5 L201.0,419.0 L206.0,422.0 L204.0,419.0 L216.5,415.5 L219.5,416.5 L218.0,428.0 L220.5,429.0 L237.0,423.5 L241.5,415.5 L241.5,412.0 L244.5,409.5 L248.0,410.0 L252.0,408.0 L257.0,411.5 L261.5,418.5 L265.0,418.5 L268.0,413.0 L271.0,412.5 L273.0,416.0 L272.0,419.5 L274.5,424.5 L274.5,429.0 L277.0,431.5 L281.0,432.5 L291.5,429.5 L294.5,432.0 L309.5,431.5 L316.5,426.0 L323.0,428.5 L329.0,433.5 Z" fill="#cee3f5" id="KR.2685" stroke="#6e6e6e" stroke-width="0.4"><desc><labelrank>6</labelrank><code_hasc>KR.KJ</code_hasc><name>South Jeolla</name><admin>South Korea</admin><type_en>Metropolitan City</type_en><region /><woe_id>2345972</woe_id><longitude>126</longitude><woe_name /><fips>KS18</fips><woe_label>Jeollanam-Do, KR, South Korea</woe_label><latitude>34</latitude><iso_a2>KR</iso_a2><postal>KJ</postal><type>Gwangyeoksi</type><id>KR.2685</id></desc></path><path d="M486.5,463.0 L485.5,464.0 L482.0,461.5 L481.0,458.5 L483.0,458.0 L486.5,463.0 M497.5,449.0 L489.0,451.0 L490.0,455.5 L487.0,458.5 L483.0,454.5 L478.5,462.5 L476.0,460.5 L476.0,464.5 L472.0,464.0 L472.0,453.0 L476.5,447.0 L477.5,439.5 L483.5,435.0 L488.0,436.5 L490.5,442.0 L497.5,449.0 Z" fill="#cee3f5" id="KR.PU" stroke="#6e6e6e" stroke-width="0.4"><desc><labelrank>9</labelrank><code_hasc>KR.PU</code_hasc><name>Busan</name><admin>South Korea</admin><type_en>Metropolitan City</type_en><region /><woe_id>2345968</woe_id><longitude>129</longitude><woe_name>Busan</woe_name><fips>KS10</fips><woe_label>Busan, KR, South Korea</woe_label><latitude>35</latitude><iso_a2>KR</iso_a2><postal>PU</postal><type>Gwangyeoksi</type><id>KR.PU</id></desc></path><path d="M506.5,391.0 L516.5,389.0 L525.5,392.5 L524.5,403.5 L521.5,408.0 L520.0,409.0 L518.5,404.0 L516.0,401.0 L515.0,403.5 L517.0,405.0 L518.0,408.5 L514.0,411.5 L515.0,417.5 L513.0,420.5 L514.5,424.5 L507.5,429.5 L505.0,429.5 L501.5,428.0 L498.5,422.0 L490.5,417.0 L486.0,412.0 L483.0,410.0 L476.5,409.0 L475.0,405.5 L477.5,400.5 L477.0,395.0 L479.5,393.0 L482.5,391.5 L484.0,391.5 L483.0,387.0 L486.5,384.0 L491.0,382.5 L495.0,382.0 L498.5,382.5 L502.0,384.0 L503.5,389.5 L504.5,390.5 L506.5,391.0 Z" fill="#cee3f5" id="KR.UL" stroke="#6e6e6e" stroke-width="0.4"><desc><labelrank>6</labelrank><code_hasc>KR.UL</code_hasc><name>Ulsan</name><admin>South Korea</admin><type_en>Metropolitan City</type_en><region /><woe_id>23701285</woe_id><longitude>129</longitude><woe_name>Ulsan</woe_name><fips>KS21</fips><woe_label>Ulsan, KR, South Korea</woe_label><latitude>35</latitude><iso_a2>KR</iso_a2><postal>UL</postal><type>Metropolitan City</type><id>KR.UL</id></desc></path><path d="M520.5,260.5 L523.0,276.5 L522.5,287.5 L517.5,296.0 L516.5,314.5 L521.5,328.0 L516.5,335.0 L524.0,341.5 L534.5,330.0 L538.0,338.5 L532.5,348.5 L529.0,373.5 L523.0,388.0 L525.0,391.0 L516.5,389.0 L506.5,391.0 L504.5,390.5 L503.5,389.5 L502.0,384.0 L498.5,382.5 L495.0,382.0 L491.0,382.5 L486.5,384.0 L483.0,387.0 L483.5,388.5 L484.5,390.5 L484.0,391.5 L482.5,391.5 L479.5,393.0 L477.0,395.0 L474.0,396.0 L467.0,393.5 L454.0,401.5 L450.0,401.5 L443.0,398.5 L435.5,400.0 L432.0,397.5 L429.5,394.5 L428.5,387.0 L423.5,393.0 L420.5,392.0 L415.0,395.0 L406.5,391.0 L393.5,390.5 L392.0,384.5 L393.5,378.5 L385.5,369.0 L383.5,367.0 L375.0,366.0 L367.0,362.5 L361.5,354.5 L362.0,346.5 L358.0,339.0 L360.5,338.0 L363.0,337.0 L365.0,334.0 L367.5,328.0 L368.0,324.0 L367.5,320.5 L370.0,318.5 L374.5,319.0 L373.5,312.0 L371.0,310.5 L365.5,311.5 L361.0,308.0 L358.0,307.5 L354.0,308.0 L353.5,302.0 L356.0,300.0 L357.5,297.0 L355.5,293.0 L356.5,282.5 L358.0,279.5 L359.5,278.0 L354.5,270.5 L350.5,269.5 L349.5,266.5 L351.0,266.0 L352.5,265.5 L354.0,264.0 L356.5,261.0 L357.0,259.5 L357.5,257.0 L360.5,254.5 L364.5,253.0 L366.5,249.5 L370.5,251.5 L378.0,252.5 L376.5,250.0 L374.5,247.0 L375.0,244.5 L376.5,241.5 L378.0,239.5 L379.5,240.5 L381.5,240.5 L383.5,238.5 L385.0,237.0 L390.0,239.5 L393.0,239.5 L396.5,232.5 L404.0,240.5 L407.5,242.0 L416.0,238.0 L418.0,233.0 L415.5,230.5 L420.5,222.5 L426.0,217.5 L428.0,217.0 L435.0,210.5 L437.0,210.5 L438.5,209.5 L440.0,208.0 L451.0,211.5 L451.0,202.5 L456.0,199.0 L464.0,203.0 L464.0,207.5 L470.0,204.0 L482.5,208.0 L488.0,205.5 L495.0,208.5 L496.0,211.5 L493.5,213.0 L490.5,212.0 L486.5,214.0 L486.5,221.5 L492.0,226.5 L494.0,231.5 L498.5,234.0 L506.0,234.5 L505.5,237.5 L507.5,239.0 L505.0,246.0 L506.5,255.5 L505.5,258.5 L512.5,261.5 L516.0,260.0 L520.5,260.5 M672.5,149.0 L670.5,150.0 L665.0,148.0 L663.5,146.0 L663.5,141.5 L673.0,138.0 L674.5,139.5 L672.5,149.0 Z" fill="#cee3f5" id="KR.2688" stroke="#6e6e6e" stroke-width="0.4"><desc><labelrank>6</labelrank><code_hasc>KR.TG</code_hasc><name>North Gyeongsang</name><admin>South Korea</admin><type_en>Metropolitan City</type_en><region /><woe_id>2345970</woe_id><longitude>128</longitude><woe_name>Taegu-gwangyoksi</woe_name><fips>KS14</fips><woe_label>Gyeongsangbuk-Do, KR, South Korea</woe_label><latitude>36</latitude><iso_a2>KR</iso_a2><postal>TG</postal><type>Gwangyeoksi</type><id>KR.2688</id></desc></path><path d="M253.0,665.5 L252.0,671.5 L245.0,679.0 L241.0,687.0 L234.5,687.5 L230.5,690.5 L219.0,692.5 L215.5,695.5 L200.5,696.5 L185.5,695.0 L178.5,700.0 L168.0,690.5 L167.0,686.5 L169.0,681.5 L179.5,669.5 L182.5,668.5 L184.0,665.5 L200.0,661.0 L203.0,659.0 L213.5,658.0 L221.0,655.0 L236.5,654.0 L248.0,660.0 L251.5,667.0 L253.0,665.5 Z" fill="#cee3f5" id="KR.CJ" stroke="#6e6e6e" stroke-width="0.4"><desc><labelrank>7</labelrank><code_hasc>KR.CJ</code_hasc><name>Jeju</name><admin>South Korea</admin><type_en>Province</type_en><region /><woe_id>2345963</woe_id><longitude>126</longitude><woe_name>Jeju</woe_name><fips>KS01</fips><woe_label>Jaeju-Do, KR, South Korea</woe_label><latitude>33</latitude><iso_a2>KR</iso_a2><postal>CJ</postal><type>Do</type><id>KR.CJ</id></desc></path><path d="M293.0,255.0 L289.0,269.5 L304.5,268.5 L303.5,277.0 L301.0,277.0 L294.5,278.5 L289.5,280.0 L282.5,281.5 L273.0,279.5 L275.5,275.5 L275.5,255.5 L278.0,249.0 L293.0,255.0 Z" fill="#cee3f5" id="KR.SJ" stroke="#6e6e6e" stroke-width="0.4"><desc><labelrank>9</labelrank><code_hasc>KR.SJ</code_hasc><name>Sejong</name><admin>South Korea</admin><type_en>Special self-governing city</type_en><region /><woe_id>-2345973</woe_id><longitude>127</longitude><woe_name /><fips>KS22</fips><woe_label /><latitude>36</latitude><iso_a2>KR</iso_a2><postal>SJ</postal><type>Teukbyeol-jachisi</type><id>KR.SJ</id></desc></path></svg>