<?xml version='1.0' encoding='utf-8'?>
<svg height="700" width="700" xmlns="http://www.w3.org/2000/svg"><path d="M218.176002655,424.700991357 L210.118302901,423.578691215 L215.633292947,421.634941413 L217.349892421,417.259939729 L218.176002655,424.700991357 M247.109303951,400.754210866 L248.848121869,403.100351659 L251.45317504,399.464504251 L251.774662881,400.615017525 L247.91505428,406.653586107 L246.859520809,418.641890544 L243.76052544,421.67951109 L240.308622947,420.811143154 L237.593246364,416.817673697 L236.603174009,410.469449501 L237.082407303,406.942091246 L241.115565776,403.250777561 L243.115222248,398.304205774 L241.602234017,392.476941014 L236.498009612,388.60762544 L236.712027544,384.280890283 L239.097113875,380.435624192 L240.355712031,380.788748355 L242.869457722,391.021517694 L247.608571082,393.630600286 L247.109303951,400.754210866 M335.463379707,258.925820906 L330.049098071,258.519734116 L328.450306687,254.161385728 L341.664651556,250.278268673 L335.463379707,258.925820906 M120.133072552,265.539708197 L130.619233505,270.845526396 L132.900303749,266.894103416 L132.798456731,262.7430125 L135.558656307,262.9481396 L136.986583017,264.516050951 L136.424180958,268.65848596 L139.099393921,271.620161632 L149.971998826,271.649153799 L151.862409653,273.460646807 L148.744792037,280.170380304 L153.696654823,279.002575507 L158.493532984,284.392312465 L162.6843981,283.207828952 L166.89376871,284.96179308 L170.871983269,284.276780236 L177.791875869,278.18302258 L185.804754755,276.679763519 L192.298063055,272.482301611 L202.908925875,260.429005436 L211.541561007,260.936207696 L216.334615263,258.401101483 L218.76077668,267.916019903 L217.200306883,272.876270095 L205.340929229,283.866786678 L204.82110838,295.563391902 L202.63552641,299.315914108 L206.672508665,298.171760388 L207.58308621,284.504696667 L216.300493661,275.867028665 L218.295776954,277.099267273 L219.795989012,283.574022532 L229.961920193,289.875771452 L237.810543281,290.628350229 L263.692292531,286.750463676 L266.875614485,288.417084709 L277.715054188,301.262253297 L274.494708229,308.636714532 L273.223652107,321.246315663 L264.689426426,334.171238505 L258.629788026,339.816759455 L257.337059078,352.83172926 L254.29566185,353.543383327 L250.862782174,351.141323517 L248.513709901,347.172051376 L251.991465472,345.7248027 L252.117137022,341.208456866 L246.344119518,338.6917106 L238.901759326,349.160653612 L241.539498772,360.485709165 L239.091070213,362.511518036 L236.229167448,362.320858058 L233.438497586,355.919724287 L236.696685465,353.475531953 L235.089697153,350.650625405 L231.062821414,349.529913969 L225.357352827,351.767567677 L219.999897703,345.420272477 L227.135259563,341.731027648 L231.905972781,345.126228649 L233.152095188,342.67701022 L231.520422678,337.782611271 L234.225034573,331.982367183 L228.156347126,328.489233337 L225.684135874,329.71289846 L224.334798118,328.63882321 L223.524022406,332.426477548 L220.663246623,334.383442384 L215.879961779,343.226057732 L210.734903637,347.643780749 L207.164847717,355.059029756 L211.798563051,367.84870431 L208.625798554,377.742653004 L212.641786764,376.314080815 L213.130973663,377.533751329 L210.794539917,383.049143165 L210.329782479,395.48549805 L204.40929786,402.685903467 L206.042053794,406.647313446 L204.408861959,409.633990046 L201.360902133,408.915698737 L196.432160162,401.313624967 L186.9633567,401.895508788 L181.160713827,406.538354025 L173.643422071,406.912091849 L176.132719458,409.612814792 L191.143874792,413.271891207 L188.492714637,421.706447301 L192.690202741,424.432479226 L187.568069502,428.75223434 L188.725539952,431.594831956 L187.468887329,432.905233839 L185.144406998,431.498204835 L166.657083427,437.799343907 L155.155915761,431.998794842 L155.10707236,427.060462024 L147.485302419,424.297207679 L147.711506714,418.893239196 L140.836732575,418.424846935 L127.96693068,398.714584521 L122.41086235,394.61114048 L113.268516538,391.610872333 L109.597932953,392.430032083 L102.444327323,403.62839414 L93.6083103254,411.099630463 L90.2628048675,411.468678981 L82.0715203121,402.580318102 L77.2895690405,402.125440838 L73.7176258869,403.902479024 L71.1846794494,410.584668053 L71.7041088051,414.647444045 L66.956810441,416.632990088 L58.4412335197,411.198088617 L46.9619602336,410.190595894 L44.8958055542,411.343000996 L45.3456575015,414.362928497 L37.3437984652,421.57346832 L27.2579115129,415.741857537 L8.42585409268,415.728002755 L4.44865971774,383.014007131 L6.35258209495,385.240553095 L10.307887222,403.193004519 L9.07157959832,411.071863079 L10.206396679,413.951624865 L25.3661517318,404.135373337 L29.2922413455,400.083493354 L29.8644357929,397.264531967 L27.9277698249,391.302702586 L22.8027100219,383.862272322 L21.8108630153,372.245373508 L16.0180224622,365.781047109 L6.55195580662,361.971442344 L4.85354538044,382.284793978 L3.43495403523,381.815009306 L2.31024051214,376.985275224 L2.38151106918,360.478373955 L5.21908280076,345.588168677 L4.8834820841,285.509162687 L10.5302428317,264.684983691 L13.9677001571,257.826483442 L15.692766509,261.91326844 L12.7048351353,270.239555035 L15.6571498813,271.35357554 L17.588932034,276.211691238 L22.5506499955,277.704191906 L21.1633375336,278.52320589 L21.7561685921,284.552255404 L23.3677797051,284.815657707 L23.1018018494,281.007185003 L30.7803280777,279.956992964 L35.0275636154,280.868766372 L42.4652730043,287.096591953 L47.4013850317,281.205811298 L50.705428488,294.704396648 L55.2279483501,299.134801232 L63.3692419567,297.554603775 L66.2366164967,283.973879529 L61.1249717999,279.583782772 L58.560964315,272.984941978 L64.209603525,271.547174206 L70.4104329808,261.068665731 L81.0418531134,258.774350318 L73.8009789457,256.410380603 L77.2302053648,249.137979683 L84.7726620183,242.439616832 L90.4051442172,243.330464431 L94.9975632278,240.771893453 L99.0749444719,242.927416654 L100.464908747,249.089048771 L105.786689917,258.799963753 L103.131896859,259.469935148 L100.335622287,263.980000179 L97.9113751837,264.640379476 L98.3041444168,267.513453796 L94.6603635802,271.760960216 L93.6597821584,276.41457537 L94.7875428931,283.601159395 L97.9342786273,281.458334378 L99.2036005351,275.779911649 L103.859309978,275.396812564 L102.484220762,273.126318289 L100.594519097,274.118396089 L103.840287519,267.001949334 L103.273318415,270.900599983 L115.400382871,271.886750556 L116.007848993,275.774622298 L112.959893098,281.293624218 L120.263318178,289.67195416 L122.210738701,285.892126951 L123.57442775,287.155988667 L124.736972148,285.765919372 L124.693857314,283.570334769 L122.544072672,282.437852772 L118.961884514,284.919263207 L117.126995512,284.362531015 L120.133072552,265.539708197 Z" fill="#cee3f5" id="DK.6326" stroke="#6e6e6e" stroke-width="0.4"><desc><labelrank>7</labelrank><code_hasc>DK.</code_hasc><name>Midtjylland</name><admin>Denmark</admin><type_en>Region</type_en><region /><woe_id>28362580</woe_id><longitude>9</longitude><woe_name>Midtjylland</woe_name><fips /><woe_label>Midtjylland, DK, Denmark</woe_label><latitude>56</latitude><iso_a2>DK</iso_a2><postal /><type>Region</type><id>DK.6326</id></desc></path><path d="M223.910992736,571.866313311 L228.088721371,572.003418302 L227.750975707,567.696140017 L231.635481751,575.91422858 L235.120345545,575.496433786 L233.955004269,571.128896784 L240.967781038,579.276685707 L233.154267446,581.263337523 L229.82389559,584.246981085 L227.521210397,583.240806724 L209.969176636,564.722223848 L207.638152198,558.146935103 L217.685196651,564.344353228 L223.910992736,571.866313311 M167.95057438,540.792333348 L173.964819282,547.773788119 L181.56861831,550.091207467 L187.371659691,554.946355213 L191.387885734,561.475215395 L195.445892384,575.082095567 L191.201690976,575.434754554 L185.852953997,578.948691711 L176.414318355,574.448956052 L179.042973172,571.895476174 L188.174449095,576.664262701 L183.315067295,571.330933402 L177.721329989,569.688675844 L174.334755712,572.10976843 L170.427353569,571.937483602 L167.0209095,569.244411865 L165.003522682,564.713503777 L164.621989537,558.004407595 L171.605381063,564.22208594 L173.606753819,563.725167539 L172.101037248,560.799530186 L173.024355756,559.899010125 L167.443861454,554.782490462 L168.636709823,551.924089545 L160.816637229,552.750274806 L156.177804109,551.271769897 L155.627303325,549.688765033 L158.365168326,546.111295999 L153.284690241,547.169521236 L151.56187565,544.898087074 L160.302842097,540.620843786 L167.95057438,540.792333348 M272.51992838,563.72668011 L263.662417022,596.034784793 L262.735534704,598.197363786 L258.998944237,599.114770183 L254.961889721,587.348209476 L249.28001705,581.464117555 L253.243920075,580.525064618 L257.415660702,572.67970415 L258.892060368,573.8021234 L261.425995931,572.871609686 L260.668901469,569.225237164 L257.1881112,569.30978408 L258.493942535,565.104885594 L273.75224765,545.191133449 L277.422861028,531.610389581 L281.090018238,524.892062596 L283.349355784,525.860247338 L279.190337641,547.410604295 L272.51992838,563.72668011 M30.9887150577,478.898769356 L36.0462422293,480.895099595 L34.6989385638,486.793263484 L37.2238372247,495.128579351 L34.7703150974,496.097997484 L29.9542063719,489.069632066 L26.9258042813,480.818703965 L27.318932377,474.602828675 L30.6633471589,473.742603018 L30.9887150577,478.898769356 M220.412777409,448.143838667 L227.284388532,452.717834244 L231.006120757,457.810380597 L238.418989303,461.077152553 L234.141067032,461.423543336 L233.735876169,463.472908078 L235.817730715,466.394381039 L228.923755865,474.228562144 L230.603840809,477.089194536 L234.099220103,476.853726871 L235.958533196,472.958570702 L247.04963066,468.516980376 L246.741982365,465.607510681 L243.188978525,462.673113309 L243.442824886,461.142030021 L246.579692322,463.782214935 L247.78441297,461.826434273 L245.662135508,453.132721765 L247.716509035,455.458088978 L246.930099353,447.079577771 L248.797244282,446.930119482 L251.751034243,450.108834968 L256.577071186,457.732287024 L257.180385211,461.750050776 L260.099732324,464.749760304 L260.611305788,468.529459512 L252.366322814,473.554550741 L243.866003595,473.483542631 L242.2379918,476.761449975 L243.177540476,477.842018592 L246.208106668,476.932882789 L246.30260786,473.703462669 L256.43509328,476.832085277 L266.535059775,490.759593717 L270.57006783,502.505262486 L266.786817464,499.581125889 L265.15655548,500.10322317 L265.128652987,505.322979293 L268.738637783,512.045113384 L268.860301918,519.210233357 L266.264028753,531.438275586 L261.547246291,540.64583692 L258.792221578,542.323740671 L248.75458087,542.561516056 L242.260999616,548.405975498 L227.301953369,545.082836352 L224.643574808,543.045212609 L219.682238709,542.977792516 L211.77661282,538.165493519 L208.890073435,537.961725368 L208.159840552,543.078806737 L202.579585977,538.321900629 L195.034061404,538.441130383 L203.858990007,529.998157879 L199.460433154,522.487068833 L197.565749955,521.712181823 L192.157486692,523.086832572 L188.57035188,520.301263412 L187.726620827,524.570431818 L191.246372719,529.793116565 L190.941184514,532.692146058 L186.948141544,532.396658025 L186.142422771,517.645966119 L179.350815797,515.02000867 L176.57673661,510.721058442 L177.645991202,506.062116027 L176.447296792,494.174643342 L168.279433053,491.92975491 L165.840277881,488.851187136 L170.958708384,487.295409811 L171.923734674,485.342395497 L166.506177134,483.033591872 L169.871248424,482.994784756 L167.016670329,479.893293196 L161.706812832,478.850302683 L158.314831901,473.64011577 L166.540542345,478.966805487 L169.085122466,478.266895156 L159.253027358,469.70538798 L155.59009395,468.937194906 L163.264924923,460.450042735 L170.364301922,459.627905704 L171.664872957,463.911798832 L176.431207281,466.443545482 L208.095464912,450.008299338 L213.922711434,449.056708754 L214.71526738,452.586768822 L216.408240874,450.726549525 L216.014327038,447.182182018 L220.412777409,448.143838667 M155.155915761,431.998794842 L143.789821616,430.91997959 L143.140088077,433.403150314 L153.52257759,435.176266344 L161.450119698,445.622708771 L172.790657131,446.022150982 L163.461106485,455.682525676 L159.033683255,457.691998488 L158.530158248,461.685894286 L148.761647661,465.336308651 L144.057997161,464.189790745 L143.330651122,467.407674136 L138.045637577,470.165465197 L141.636276767,471.113005325 L148.312587301,468.982939489 L154.032346407,472.023094395 L152.985561427,478.435961777 L146.873815845,480.855160083 L149.013032519,486.766712542 L148.354883531,491.516338884 L152.782556634,495.500578575 L151.768309326,499.872595322 L158.929146764,508.910323323 L159.377318681,511.750708712 L156.89972822,520.642012784 L152.715298345,522.270120001 L145.537128184,521.619477693 L143.187694395,524.828975557 L137.294845913,527.978524275 L139.862365246,531.955561833 L134.370885466,533.292488684 L140.823040885,534.955585856 L144.668476484,540.213019355 L140.429817057,545.250454781 L132.257470729,548.602528152 L134.35733144,551.080928576 L143.374477051,548.729298475 L146.742894305,546.217423539 L155.044736248,553.25207694 L161.885578617,555.661662159 L165.279119451,572.101373318 L164.170353766,573.405175141 L160.108526009,572.480529465 L159.332876003,574.641351149 L163.471079285,578.050421594 L163.673538297,583.300151337 L161.033862779,583.355986674 L158.696386055,579.384258624 L151.349192183,578.338167844 L152.458897556,575.892906158 L149.997256388,571.771241331 L153.365191559,569.997527196 L150.416037644,566.656956873 L147.602621382,567.542287979 L143.586964089,575.967667668 L141.210307546,575.992845726 L134.67373106,582.19363954 L132.761229598,588.04721908 L129.584062016,588.371087945 L127.554296,586.473130628 L122.256762817,589.306037555 L113.444137673,589.59323873 L111.670771207,588.882056101 L108.480397699,581.173485997 L79.4026413546,572.946969977 L71.419132081,571.550993299 L62.2655923867,574.444400508 L55.0758057656,573.15560355 L56.5169935718,564.204440316 L53.2038853899,551.101467367 L57.3701591285,532.070023802 L45.6289862615,530.241875707 L44.9546852272,538.390669886 L39.1442089775,543.695032973 L36.260871631,541.41491828 L35.1603887561,537.093450784 L36.391100085,524.248392775 L38.274234293,520.85996493 L42.4048681429,520.267792226 L48.6588219824,523.737701738 L44.4998632506,527.255849579 L44.7946369202,529.198946759 L58.128833002,530.619320876 L54.8792041509,513.966263028 L54.174432711,506.543747906 L55.4845412358,500.620646498 L52.6816064843,482.506842281 L48.8098387463,477.190849197 L33.977496706,474.546540514 L21.1853287641,457.29814479 L23.3715945107,454.615631962 L17.0333883619,454.163473491 L14.1593987785,458.050784584 L17.3262464872,462.850080021 L14.5378320522,465.192377769 L21.684421305,470.017554827 L22.5851972549,473.026680826 L21.3133175017,473.501352653 L9.62992793108,463.548740852 L0.0,459.420105077 L7.5557001476,435.418479171 L8.42585409268,415.728002755 L27.2579115129,415.741857537 L37.3437984652,421.57346832 L45.3456575015,414.362928497 L44.8958055542,411.343000996 L46.9619602336,410.190595894 L58.4412335197,411.198088617 L66.956810441,416.632990088 L71.7041088051,414.647444045 L71.1846794494,410.584668053 L73.7176258869,403.902479024 L77.2895690405,402.125440838 L82.0715203121,402.580318102 L90.2628048675,411.468678981 L93.6083103254,411.099630463 L102.444327323,403.62839414 L109.597932953,392.430032083 L113.268516538,391.610872333 L122.41086235,394.61114048 L127.96693068,398.714584521 L140.836732575,418.424846935 L147.711506714,418.893239196 L147.485302419,424.297207679 L155.10707236,427.060462024 L155.155915761,431.998794842 Z" fill="#cee3f5" id="DK.3564" stroke="#6e6e6e" stroke-width="0.4"><desc><labelrank>7</labelrank><code_hasc>DK.</code_hasc><name>Syddanmark</name><admin>Denmark</admin><type_en>Region</type_en><region /><woe_id>28362581</woe_id><longitude>9</longitude><woe_name>Syddanmark</woe_name><fips /><woe_label>Syddanmark, DK, Denmark</woe_label><latitude>55</latitude><iso_a2>DK</iso_a2><postal /><type>Region</type><id>DK.3564</id></desc></path><path d="M80.5848079293,215.858957808 L81.6505976732,221.777202886 L79.5226434725,229.964928571 L78.3373089642,231.346997931 L76.3974786086,226.612831546 L73.7485259315,229.085485581 L75.2031713545,239.510349197 L77.6691121926,242.014575503 L75.0169080167,243.315653141 L76.3628521954,244.490465741 L73.6521604169,250.352042585 L67.1591438475,257.500095628 L66.6597212978,260.492099563 L56.3560945988,264.021516659 L49.5303610238,253.858887693 L46.6438194036,252.562820279 L42.7029069782,253.510482108 L43.499320296,250.592895205 L46.4152484119,248.346036908 L45.6817588623,244.358900422 L48.3368091674,242.38483756 L55.0819307728,241.470206359 L57.4749410951,238.396658487 L52.9437616376,237.299912727 L56.210062079,231.27311228 L55.9016602708,226.526653687 L69.2207840139,223.050436326 L71.2966277636,223.783688336 L76.4206405564,214.666000749 L78.5937994429,216.08201713 L81.0526279214,211.877236824 L82.247383092,212.302241123 L80.5848079293,215.858957808 M294.55272299,148.456671891 L294.63301851,153.876595834 L290.285043359,152.787458837 L283.139816536,154.749144205 L285.850115152,158.5441285 L285.648524415,161.365546608 L280.056543806,170.368016792 L277.164421798,171.148795309 L272.645988823,165.060151923 L266.661439575,163.212241604 L263.390467401,159.95282004 L271.803719927,152.771123492 L277.737945462,151.690474081 L279.33813389,149.764651653 L286.304223438,149.600762864 L290.032497918,147.413464757 L294.55272299,148.456671891 M202.908925875,260.429005436 L192.298063055,272.482301611 L185.804754755,276.679763519 L177.791875869,278.18302258 L170.871983269,284.276780236 L166.89376871,284.96179308 L162.6843981,283.207828952 L158.493532984,284.392312465 L153.696654823,279.002575507 L148.744792037,280.170380304 L151.862409653,273.460646807 L149.971998826,271.649153799 L139.099393921,271.620161632 L136.424180958,268.65848596 L136.986583017,264.516050951 L135.558656307,262.9481396 L132.798456731,262.7430125 L132.900303749,266.894103416 L130.619233505,270.845526396 L120.133072552,265.539708197 L116.73349247,259.581722886 L108.000792489,264.343500038 L105.98005601,264.476144323 L105.135033956,262.254214459 L110.589894914,257.451413139 L112.108478716,252.101329886 L107.713105343,248.055547053 L105.642512578,241.883086373 L109.005082368,231.97449171 L107.944675165,229.07569692 L104.451901237,226.606618786 L107.97651293,218.823317145 L115.512278178,211.70066369 L116.332328178,208.689291564 L130.344484989,203.883972209 L144.55578901,208.508447247 L143.287655064,211.696756128 L146.601709105,213.221584333 L154.162298847,201.131447397 L160.960740152,197.683856655 L165.498994609,198.818010063 L175.571968206,197.504389984 L169.91276187,192.352141186 L164.118673841,189.35044651 L156.293166509,197.268158306 L152.784876733,194.196760636 L143.91619431,199.461383224 L135.70517515,199.653113391 L112.221156555,207.801562218 L99.8133555345,198.076047865 L99.657487004,201.536164327 L93.0235368117,205.173018054 L88.6791555223,203.380805323 L79.6664577515,210.625618646 L78.8606007422,208.301382728 L74.8237524687,207.63008163 L73.2028290533,208.727829299 L74.5867789004,210.235024716 L71.1396778628,213.453259072 L66.4261532002,215.938108755 L63.0506501446,214.92283147 L58.5999641145,216.414524983 L53.003426389,226.525367153 L51.7072356496,234.228542419 L48.0287337433,239.629178553 L40.5555856506,243.77209373 L40.4823522266,254.680597305 L39.0259502778,257.345686711 L43.7160815816,257.379835143 L43.8311053077,260.967501196 L41.3365259712,262.100722219 L36.7629567789,259.693393299 L32.4779056717,262.030249477 L32.4667533167,263.32229456 L37.0315405992,262.067972238 L41.3192602763,264.473015035 L49.4802840644,262.154932035 L49.4438625815,268.191588084 L51.5057223218,272.164710224 L49.0857544584,275.920809377 L45.5961958881,277.219016592 L46.8248980747,278.737989835 L42.2380300502,276.278086611 L35.9401383108,266.33101988 L29.1386949743,263.462185914 L24.0655630916,256.141004701 L22.4698691267,248.908526447 L16.9356293442,246.477217616 L18.6870688962,256.643214632 L18.4287791964,258.991786867 L17.0047491251,259.216352374 L16.2103704093,247.549536782 L17.4055204767,240.402663607 L36.8809056666,207.350994053 L52.9317251778,186.827863274 L68.5836822706,190.031581948 L80.9229134402,186.132919034 L87.1455923227,180.305296402 L110.744997189,183.728678966 L119.315785076,182.663063121 L127.840035976,179.425554947 L135.878949554,173.892346251 L142.918064037,165.871745618 L162.725732866,128.119143472 L179.098021056,104.983371895 L200.559181272,102.931867399 L208.128953586,99.3750740551 L225.731658667,82.3405077572 L231.807160368,77.5431433181 L237.062908289,76.1499237916 L242.02982068,78.4894055028 L237.01512332,80.538064557 L232.301767031,85.3308094958 L224.936352092,97.361520596 L222.360832809,107.835484834 L233.722200994,131.066611141 L231.166283907,138.760237598 L233.8009096,165.536201646 L225.309365915,174.72115052 L222.127013791,181.808728845 L216.5228927,205.222829036 L213.961614049,207.476419487 L206.408709304,208.430116874 L198.386719079,203.189247798 L192.416559625,196.92451233 L182.941194911,191.476296127 L176.626060064,197.490163403 L178.383343427,197.684981981 L183.65551741,192.998308238 L201.919306555,208.298162428 L213.447931852,210.028899026 L210.29884377,214.834749746 L209.15633488,223.154492793 L212.383626111,245.453811081 L216.894582956,256.045437031 L214.836465296,257.667356223 L207.069479876,256.470378519 L203.896507144,258.892710625 L198.362384692,255.513094377 L179.348211508,266.94657051 L166.025898921,269.044416153 L166.039835227,270.230526637 L170.391002114,270.954696107 L184.682762291,266.320043832 L189.242066619,263.879151238 L190.472315297,261.487466197 L194.164344614,262.467269902 L197.273110682,257.26140067 L201.920478601,257.846628852 L201.237228583,260.13235869 L202.908925875,260.429005436 Z" fill="#cee3f5" id="DK.3568" stroke="#6e6e6e" stroke-width="0.4"><desc><labelrank>7</labelrank><code_hasc>DK.</code_hasc><name>Nordjylland</name><admin>Denmark</admin><type_en>Region</type_en><region /><woe_id>28362579</woe_id><longitude>9</longitude><woe_name>Nordjylland</woe_name><fips /><woe_label>Nordjylland, DK, Denmark</woe_label><latitude>56</latitude><iso_a2>DK</iso_a2><postal /><type>Region</type><id>DK.3568</id></desc></path><path d="M672.464036658,490.122993272 L676.460904329,492.821920722 L681.069173989,492.369340181 L684.16596697,496.936064881 L699.957080014,505.189327675 L698.809795091,507.676098737 L700.0,513.2293256 L696.862292074,520.909861037 L697.92144496,525.417375936 L694.287180722,530.385669543 L685.208545042,529.53551317 L664.378598033,522.554333862 L654.058865917,514.648354851 L654.63674264,491.156272375 L658.696022523,478.015795785 L672.464036658,490.122993272 M459.448290581,439.401348975 L455.381576915,435.122208645 L456.032990981,430.439192702 L457.752169223,428.810902865 L459.960740053,432.793972007 L460.663001529,437.446175519 L459.448290581,439.401348975 M440.764744272,450.075509902 L438.668887611,450.798596351 L436.390966984,447.640312815 L434.513008374,439.064745912 L442.428404222,424.419653001 L449.823589949,441.389713942 L440.764744272,450.075509902 M380.029242412,423.855330348 L373.664992018,420.788803145 L368.377468963,422.481061455 L366.972242761,418.324437755 L369.298795786,409.83140185 L375.808446879,405.995738365 L377.188160402,401.03119301 L372.433467303,390.466932382 L373.007397586,387.134554321 L374.756454319,387.208947884 L381.16741482,392.292167504 L381.298792195,399.53953353 L387.088730534,414.181733434 L387.670807812,420.879148981 L385.307833167,424.673019006 L380.029242412,423.855330348 M418.840648792,442.38223279 L414.568947598,440.509246201 L406.988029679,439.996557773 L403.243633259,441.436541434 L400.148133902,440.200426963 L398.564663222,431.872817272 L408.033986831,424.196962713 L404.999687538,421.528350821 L406.078497818,419.242004283 L398.918473476,418.302705675 L393.31019779,413.2998906 L389.7084567,413.442943809 L383.594099519,385.49167642 L380.170646454,382.296959657 L367.973957971,386.503974078 L366.271218084,385.040524656 L367.741887071,380.717418947 L395.853803421,356.732267736 L403.378094784,352.033845902 L411.463459628,351.966537785 L420.072486413,356.389878489 L426.973152647,356.044531758 L440.638281123,364.946008068 L431.058677429,385.515393623 L440.954740041,407.767721784 L440.169556213,419.677628182 L441.75574802,423.160237521 L431.352965844,440.851092336 L429.218048967,441.707767738 L423.071276091,439.635994498 L418.840648792,442.38223279 Z" fill="#cee3f5" id="DK.6325" stroke="#6e6e6e" stroke-width="0.4"><desc><labelrank>7</labelrank><code_hasc>DK.</code_hasc><name>Hovedstaden</name><admin>Denmark</admin><type_en>Region</type_en><region /><woe_id>28362583</woe_id><longitude>12</longitude><woe_name>Hovedstaden</woe_name><fips /><woe_label>Hovedstaden, DK, Denmark</woe_label><latitude>55</latitude><iso_a2>DK</iso_a2><postal /><type>Region</type><id>DK.6325</id></desc></path><path d="M314.19110547,559.498659277 L322.664923627,565.373279262 L325.887899945,571.870107921 L348.916639375,583.20583273 L346.481197439,576.894283689 L354.715459276,573.40722791 L353.721664744,565.241260182 L361.618478397,571.912355237 L364.824913383,577.383492863 L368.059211966,578.923223145 L366.672456719,580.165472534 L368.261955652,583.19758448 L374.612577035,588.793531878 L375.506761767,593.894884538 L370.888404457,600.264860758 L374.922782362,601.868984598 L374.690459298,605.630931662 L371.631687296,609.421792593 L367.206636533,611.081553773 L351.431913291,608.237561704 L341.674084612,612.041448956 L337.993430925,615.718690901 L335.711807951,615.410163535 L308.580786276,598.272627635 L292.65893891,593.821454357 L290.474124149,591.977470802 L289.956197062,586.433998692 L292.424608565,584.886803566 L298.3341457,584.981456142 L300.075412812,581.298865575 L297.044077683,579.722556006 L290.856392723,572.084910194 L292.048597713,566.308303923 L296.054163578,561.168961559 L311.725629148,558.419267866 L314.19110547,559.498659277 M344.195249567,556.735319303 L342.474900841,559.73724799 L338.175639638,554.36697767 L343.189223814,553.225146312 L344.82192341,555.200335165 L344.195249567,556.735319303 M441.657397417,545.912085605 L443.565514587,551.777023828 L442.610436606,554.767495826 L423.154214375,554.185012982 L416.541748634,558.924507492 L409.712326538,567.647213555 L400.276586726,564.404668647 L403.42121981,558.438959825 L401.325633134,556.171959804 L404.698620845,552.85313231 L405.992588142,553.586204072 L405.826151966,549.924747319 L411.436421905,552.042880505 L416.778654817,549.418195516 L417.229388637,543.457971372 L412.930094903,540.103199907 L413.688257601,536.518664465 L415.485941801,536.434437592 L417.830151482,540.184327501 L421.240966959,541.54946708 L438.230035665,543.065151625 L441.657397417,545.912085605 M368.377468963,422.481061455 L373.664992018,420.788803145 L380.029242412,423.855330348 L378.818718182,428.770509545 L374.358249345,434.74145463 L379.124029525,433.677346425 L382.987835895,427.679353526 L387.013328688,431.71005921 L383.921747345,430.798737978 L384.215498043,432.779467976 L389.123732972,435.173079831 L391.949127501,422.004245698 L389.7084567,413.442943809 L393.31019779,413.2998906 L398.918473476,418.302705675 L406.078497818,419.242004283 L404.999687538,421.528350821 L408.033986831,424.196962713 L398.564663222,431.872817272 L400.148133902,440.200426963 L403.243633259,441.436541434 L406.988029679,439.996557773 L414.568947598,440.509246201 L418.840648792,442.38223279 L408.436404377,453.016187731 L403.961615798,463.433499808 L407.020956306,472.433874951 L412.011775806,476.485272846 L421.505004252,477.792443573 L428.320531259,483.788006027 L431.943820853,496.365830206 L425.057172173,502.779397907 L404.520074478,508.634301598 L398.687342592,515.175799321 L398.37123773,521.679490437 L396.874136153,523.881054418 L395.021890496,523.015854086 L394.349511284,516.95209321 L392.310529735,516.391433478 L388.305356808,519.732563698 L388.164671219,521.534049495 L391.687193026,524.34280953 L403.894607331,525.813714577 L404.429859636,531.529844447 L399.339814654,535.562465009 L404.194838016,544.060475948 L404.238587099,547.359882435 L402.988648454,549.197790453 L391.624484384,554.224406916 L382.457864036,548.014682179 L379.074028803,547.527389565 L376.841755813,559.585270129 L380.536490484,562.711384712 L381.762374815,561.656514624 L380.919798869,559.41597815 L384.277654885,557.995499157 L391.248705119,566.412394264 L398.493550238,566.081379548 L406.330241688,576.114869663 L396.411405371,585.505665394 L392.344363263,594.630789261 L386.424492802,602.043086223 L388.169715969,623.560882916 L386.169741086,623.850076208 L377.47387326,608.400970438 L377.473922028,604.796776353 L381.150416267,597.47206402 L377.64630823,596.217316691 L378.158287445,591.560214745 L370.427364879,583.450293148 L368.588238089,576.640781996 L364.012596161,571.861120142 L362.892114839,562.817489484 L359.7329363,560.269506732 L364.32331254,555.355355889 L368.918653597,558.628241053 L372.146898558,555.381432849 L373.267994031,556.551410704 L374.648524757,555.703495548 L376.5491077,552.487466991 L372.117213931,544.251733717 L360.627529714,538.794838289 L354.320498887,538.670961259 L349.212358828,534.377126238 L370.546958009,540.760622623 L359.103201259,528.183648491 L367.619527158,526.26371695 L367.834631932,524.163176282 L365.621293039,522.456835681 L359.989798516,523.103417314 L358.204247054,520.890492825 L360.373475986,517.201750285 L358.545122611,513.859976717 L356.311380294,513.989089782 L351.962617086,518.862021692 L329.264988298,512.579519538 L323.963787586,515.121407294 L317.127850042,515.350264984 L319.24059358,517.653958911 L313.305375141,516.817504688 L310.844445615,509.634848465 L313.784227045,510.670111042 L315.500232248,507.110093211 L311.148179,508.53719199 L310.9414754,503.365726624 L302.859208857,496.564141335 L301.89191993,494.983529386 L305.354992857,493.68882254 L305.484536332,491.918720489 L300.726634099,490.880015728 L298.976993097,494.479672505 L297.456270893,494.525881458 L295.297852119,489.957135678 L295.259328075,488.672702602 L299.331288375,488.683573328 L306.637294202,483.829155809 L307.543353665,481.723486883 L302.05038803,464.864534282 L299.191866842,462.657133359 L293.820415844,463.173317985 L294.465094749,459.551410659 L299.275774961,457.829778917 L300.230905755,455.299596435 L298.420630292,448.764540634 L293.915427721,443.405675013 L289.055401434,440.682289513 L278.253623098,438.095260946 L278.217488518,436.79661177 L293.726141299,437.647147656 L292.003297574,434.781375303 L283.412596044,430.836731097 L280.907226454,426.874717954 L274.14261479,425.861905938 L272.527537544,423.913968449 L288.013302593,425.850613496 L300.599626925,421.923348287 L300.636197259,423.094907553 L296.664090927,424.298560293 L300.902142984,429.571760913 L303.791093421,430.356987849 L306.232456321,428.852265782 L302.048380822,425.424357983 L303.345728297,424.090671988 L309.463996023,425.187403607 L319.095611274,420.225572091 L321.07780209,411.107022179 L318.236078559,405.926051627 L323.192444812,407.826297032 L327.459448404,404.313687189 L330.820906452,404.929031444 L333.350384532,400.117699187 L333.617224818,393.239517824 L330.184886638,387.61841951 L313.206340356,383.605986388 L309.939234273,378.726081414 L322.582768667,384.304215976 L340.20853352,385.428412635 L342.054001476,387.055294235 L358.299778549,381.48414262 L359.476228049,382.942380084 L355.768219165,390.21483023 L356.393056015,393.158490986 L353.198431803,392.690852412 L353.707732169,390.296154754 L350.615631854,390.586627825 L348.489293211,392.873893092 L355.688179245,405.872803282 L354.456316093,409.349042891 L348.463915005,409.581669795 L343.9097555,414.60980671 L350.343970494,414.364416761 L356.616169701,411.631529719 L359.284597116,419.83702975 L349.0924525,423.472589093 L351.806479021,424.972197732 L357.811678736,423.104286541 L362.819509011,430.388715929 L361.57774405,435.265885532 L368.377468963,422.481061455 Z" fill="#cee3f5" id="DK.3563" stroke="#6e6e6e" stroke-width="0.4"><desc><labelrank>7</labelrank><code_hasc>DK.</code_hasc><name>Sjaælland</name><admin>Denmark</admin><type_en>Region</type_en><region /><woe_id>28362582</woe_id><longitude>11</longitude><woe_name>Sjaælland</woe_name><fips /><woe_label>Sjaelland, DK, Denmark</woe_label><latitude>55</latitude><iso_a2>DK</iso_a2><postal /><type>Region</type><id>DK.3563</id></desc></path></svg>