<?xml version='1.0' encoding='utf-8'?>
<svg height="700" width="700" xmlns="http://www.w3.org/2000/svg"><path d="M363.82870325,186.92239857 L359.137297619,198.052047932 L360.02353507,202.930354208 L362.281369405,206.211725806 L363.288842764,208.054749934 L364.160042632,210.099919625 L365.62502536,215.0355911 L369.492608455,224.764793932 L369.480890768,229.905116301 L368.105509166,233.232202164 L365.800187839,235.921507681 L353.147798189,245.235863353 L351.749343043,246.71411837 L349.300794395,250.522654601 L348.391370374,252.192738281 L345.490838885,256.658471862 L337.226109985,243.274154791 L335.981618278,242.803654684 L334.424143609,242.39794653 L333.743536945,243.544773561 L332.752065924,244.552818702 L331.629344576,245.305128318 L325.393144877,247.415630288 L323.152201337,248.51365551 L321.219557171,250.038878398 L317.880151225,254.12943434 L308.522621696,261.336729415 L301.819234181,267.976552601 L298.905949428,269.731669612 L296.711824281,269.169321861 L294.945897062,267.219841388 L294.075800739,264.769391163 L293.879213087,261.765056845 L294.566953246,254.52751614 L294.596417283,251.168935903 L294.355734363,248.096377641 L292.340729524,238.731777624 L291.427348282,236.009667697 L290.150555634,234.013891325 L288.634058908,233.932997658 L286.834077904,235.698782172 L281.412827172,243.676735804 L278.875905091,246.556348975 L272.860671118,251.239754967 L267.396120815,254.181344948 L264.250571223,255.326902564 L255.720681633,256.974102081 L252.291077966,256.456205929 L249.667525596,255.469683991 L232.3341588,244.997882011 L227.691334959,243.371600074 L224.482344173,242.959864837 L221.537790238,243.025132303 L216.251467442,244.228951025 L214.103983589,245.232942376 L212.534730094,246.512122371 L211.541966175,248.337800234 L211.038797302,250.336205927 L210.311655788,252.502839579 L208.830584866,254.020211719 L204.544997551,254.791039141 L199.87348437,253.015748579 L191.351426372,251.235898174 L186.948326455,249.107759472 L179.781263647,243.861232017 L177.50943706,243.289394857 L175.497185942,244.245649445 L172.128288811,248.841865695 L169.261503567,251.3206896 L165.760795203,252.829777947 L159.290198708,253.816119406 L156.036548198,253.495498186 L153.367023764,252.194073976 L152.08262705,250.254572972 L151.318380494,248.317469204 L151.295459891,246.807766352 L151.478529751,245.773924165 L152.877763518,242.13349068 L152.792645676,241.234129795 L152.305282979,240.502559779 L151.178128462,239.852917586 L149.75255231,239.422484203 L148.640183375,238.772995354 L147.840345178,238.057072184 L146.557518613,235.558082742 L146.346691308,235.02537149 L148.719414024,234.26127444 L151.600716359,231.831674331 L151.141866524,228.030197688 L149.375930843,220.389588325 L149.538729512,217.235463248 L151.471300536,214.326719341 L154.380971015,212.609855101 L157.332735122,211.50404985 L159.421672085,210.360482161 L176.016946655,190.224753246 L182.605340963,178.047342064 L182.290715926,176.214062036 L184.760719545,176.227451023 L192.422996654,172.792987319 L197.205957838,172.769606271 L200.792772081,173.452182011 L204.403926687,175.017301346 L207.716776784,174.155436825 L218.640276931,166.879633741 L221.998685104,166.07031316 L224.509034094,165.069114656 L226.617710543,163.980602652 L237.367835829,156.980879741 L239.738702948,156.89575838 L242.189109116,158.202269582 L246.636919582,161.541924903 L249.146227381,162.86634807 L252.136794073,163.583888146 L257.00804626,163.925747103 L260.46851359,161.645220843 L263.169910087,159.274330959 L271.468770299,146.736406026 L274.175653197,143.925355179 L277.908581582,141.546933498 L280.267237869,137.664852147 L282.163388875,132.048897066 L285.421027413,127.852307452 L288.162968696,126.501383704 L291.069424054,126.882278211 L294.369885341,128.284590848 L297.929738501,130.707273971 L301.542461682,133.843263633 L305.130643085,137.980269068 L311.613430842,143.535048996 L314.018328675,146.3730622 L315.999171352,149.868896498 L317.751837084,153.803785032 L320.04441274,157.353705063 L322.664985755,159.278408279 L325.652108345,160.256871371 L331.827589616,161.402306412 L334.636430492,162.278052178 L337.483951625,163.748159287 L340.767636355,166.291625525 L343.689733705,169.17105265 L348.604099099,175.362237456 L350.186313148,177.991046047 L351.49994161,180.634120145 L354.23419906,184.174232453 L363.82870325,186.92239857 Z" fill="#cee3f5" id="LS.BE" stroke="#6e6e6e" stroke-width="0.4"><desc><labelrank>8</labelrank><code_hasc>LS.BE</code_hasc><name>Berea</name><admin>Lesotho</admin><type_en>District</type_en><region /><woe_id>20069865</woe_id><longitude>27</longitude><woe_name>Berea</woe_name><fips>LT10</fips><woe_label>Berea, LS, Lesotho</woe_label><latitude>-29</latitude><iso_a2>LS</iso_a2><postal>BE</postal><type>District</type><id>LS.BE</id></desc></path><path d="M345.490838885,256.658471862 L329.770924267,270.988157094 L326.932939441,272.504129352 L323.264095246,273.927481166 L321.0327535,274.211383596 L319.411971526,275.909301984 L318.048740441,278.661536702 L316.949538407,281.789539829 L316.254716719,284.582106779 L315.91367723,287.666423649 L316.195042403,290.892344636 L315.391975715,295.736618473 L315.899810453,298.557539185 L316.815254282,300.652860595 L318.444835311,302.568408426 L319.277599678,303.967469581 L320.026446161,304.822878723 L321.844532496,305.620743807 L322.410258255,306.983389143 L322.883605764,308.68444856 L323.539259529,309.946200245 L325.844378603,310.986537279 L326.854350568,312.421475943 L327.586637998,314.922512144 L334.562870361,357.489844846 L334.1728358,360.89596863 L334.543965465,363.766880827 L338.685182046,380.452268264 L327.078504089,378.486169078 L320.547461328,378.422213929 L311.681656806,377.794571098 L304.656804936,379.883660127 L302.302509036,383.068431311 L307.869790698,386.326241547 L311.989164659,393.846569633 L313.334499583,400.272212558 L314.684275598,406.172063641 L314.653653411,409.378241179 L322.56419721,409.98068827 L328.646267074,408.446029472 L331.890680574,409.547398488 L329.030195326,415.931768811 L330.381865333,421.289552856 L332.644597351,427.182574635 L332.622792989,429.337033584 L326.574946158,429.276375378 L321.417849182,431.889154323 L322.302058307,436.716109568 L322.22858915,444.197333865 L317.52110671,449.495658841 L310.0529538,451.561842603 L307.712507286,444.278489442 L304.89716082,441.843088814 L303.986235584,439.64608533 L301.837475017,436.99660636 L298.306492915,435.098137762 L285.400893429,433.202074381 L280.888275896,431.822925763 L274.659231892,427.003107148 L268.295937619,423.913844085 L231.448946363,416.508757931 L225.324772853,414.379655302 L214.083123794,414.219742992 L190.129157462,417.533074384 L186.899356452,415.869087534 L186.468603892,413.576572017 L188.703141236,410.858201023 L191.51534123,408.092443413 L193.002520836,404.267386229 L192.807883869,399.601296973 L179.020824582,376.724954552 L176.056450199,374.419004851 L173.083043347,373.75869499 L164.002915328,374.017688965 L157.257813224,372.254667126 L154.02803169,369.287921024 L152.844265311,365.822023023 L153.056654505,358.342455025 L152.313331353,355.658924084 L150.922210359,355.26240903 L149.227955651,356.357294444 L144.266405693,362.577519989 L143.017324816,363.64073607 L141.368927042,364.566586491 L133.790021336,366.740156261 L131.034730244,366.746070337 L128.814035077,366.415044414 L124.508142592,365.143302093 L122.469137362,363.710830042 L121.187884475,361.636686276 L121.107574677,359.295578858 L120.540505607,356.342049831 L119.131402634,352.622185308 L111.853509098,344.319180859 L109.819429585,340.85207921 L108.718068352,337.659557572 L105.179845575,331.355189527 L104.298775604,328.604550969 L103.426764068,322.902580416 L102.189256118,320.167865599 L100.710065078,318.789423037 L98.9769902553,317.936109615 L97.0199139346,317.557165022 L95.551076378,317.620748234 L92.3894351207,318.273302057 L86.2961966245,316.832082951 L85.5929819915,316.663806805 L86.2239521346,316.000499637 L88.1306399798,313.088078366 L89.5643067634,309.631707782 L90.1383861528,305.867744425 L91.6850179741,304.684654752 L98.4216895452,305.00924614 L99.9692703104,303.622996936 L101.204197492,297.724026487 L104.396797776,292.611435871 L116.378488669,279.590577697 L118.284557734,278.172494415 L119.420375968,276.208977231 L119.851243682,272.037936273 L119.028548059,269.456816275 L117.3420909,267.415449174 L116.189843397,265.511718727 L116.881256337,263.241271092 L119.474227484,261.147195487 L122.122506922,260.274756166 L124.802799211,258.825947278 L127.611141082,255.037129759 L128.335857994,252.088575898 L128.930053865,244.45813896 L129.802600787,241.815502196 L134.587494578,238.815201461 L146.346691308,235.02537149 L146.557518613,235.558082742 L147.840345178,238.057072184 L148.640183375,238.772995354 L149.75255231,239.422484203 L151.178128462,239.852917586 L152.305282979,240.502559779 L152.792645676,241.234129795 L152.877763518,242.13349068 L151.478529751,245.773924165 L151.295459891,246.807766352 L151.318380494,248.317469204 L152.08262705,250.254572972 L153.367023764,252.194073976 L156.036548198,253.495498186 L159.290198708,253.816119406 L165.760795203,252.829777947 L169.261503567,251.3206896 L172.128288811,248.841865695 L175.497185942,244.245649445 L177.50943706,243.289394857 L179.781263647,243.861232017 L186.948326455,249.107759472 L191.351426372,251.235898174 L199.87348437,253.015748579 L204.544997551,254.791039141 L208.830584866,254.020211719 L210.311655788,252.502839579 L211.038797302,250.336205927 L211.541966175,248.337800234 L212.534730094,246.512122371 L214.103983589,245.232942376 L216.251467442,244.228951025 L221.537790238,243.025132303 L224.482344173,242.959864837 L227.691334959,243.371600074 L232.3341588,244.997882011 L249.667525596,255.469683991 L252.291077966,256.456205929 L255.720681633,256.974102081 L264.250571223,255.326902564 L267.396120815,254.181344948 L272.860671118,251.239754967 L278.875905091,246.556348975 L281.412827172,243.676735804 L286.834077904,235.698782172 L288.634058908,233.932997658 L290.150555634,234.013891325 L291.427348282,236.009667697 L292.340729524,238.731777624 L294.355734363,248.096377641 L294.596417283,251.168935903 L294.566953246,254.52751614 L293.879213087,261.765056845 L294.075800739,264.769391163 L294.945897062,267.219841388 L296.711824281,269.169321861 L298.905949428,269.731669612 L301.819234181,267.976552601 L308.522621696,261.336729415 L317.880151225,254.12943434 L321.219557171,250.038878398 L323.152201337,248.51365551 L325.393144877,247.415630288 L331.629344576,245.305128318 L332.752065924,244.552818702 L333.743536945,243.544773561 L334.424143609,242.39794653 L335.981618278,242.803654684 L337.226109985,243.274154791 L345.490838885,256.658471862 Z" fill="#cee3f5" id="LS.MS" stroke="#6e6e6e" stroke-width="0.4"><desc><labelrank>7</labelrank><code_hasc>LS.MS</code_hasc><name>Maseru</name><admin>Lesotho</admin><type_en>District</type_en><region /><woe_id>20069870</woe_id><longitude>27</longitude><woe_name>Maseru</woe_name><fips>LT14</fips><woe_label>Maseru, LS, Lesotho</woe_label><latitude>-29</latitude><iso_a2>LS</iso_a2><postal>MS</postal><type>District</type><id>LS.MS</id></desc></path><path d="M360.734628274,476.478903083 L353.562101276,481.507532163 L343.961978303,484.560804529 L331.602479419,483.33009079 L325.066943284,484.316266703 L322.190580624,488.546271248 L320.404383233,493.058663225 L316.157419209,495.714825986 L306.345450791,498.624103746 L301.233668867,499.272039749 L286.452809836,495.372332618 L283.972225253,495.52027699 L276.713111342,497.069540907 L268.981413854,496.970852492 L265.976179991,498.150710682 L263.570064878,500.082153636 L261.527616518,502.695295347 L255.405050877,513.928525021 L254.280653901,518.144050775 L254.198704306,522.961544075 L256.434377657,531.122492588 L256.801190647,535.061368241 L255.163331164,539.035307502 L253.753003955,540.347534682 L250.345796214,542.645282669 L248.859933897,544.245541003 L247.873720412,546.036304452 L246.31060868,550.079094334 L245.294599239,551.954531597 L237.485510996,556.171506686 L232.894671295,561.651812081 L231.60475509,562.86403674 L226.703063048,564.661502411 L221.636078113,564.880804291 L211.990590198,562.729342573 L210.892507847,561.75515032 L208.970221321,558.417533107 L207.577020649,557.492449084 L204.879929248,557.780602342 L203.807243284,559.724774016 L203.833649139,562.5411056 L204.344539781,565.581048553 L208.487179674,578.467007803 L208.770850765,584.661098247 L205.419317367,591.001453335 L195.755893687,595.352115307 L176.43991841,587.453491699 L166.287953545,590.14769116 L164.360246291,593.089626752 L162.426323413,600.238879562 L160.428478564,602.68871483 L158.07390541,602.982399253 L155.048046258,602.204234587 L151.166301647,603.571294407 L150.131726695,599.890385305 L139.768786189,595.059625934 L135.312657226,591.308382026 L132.273147066,586.308218823 L130.216317401,578.258773747 L128.149642855,576.112988975 L123.572418758,576.02722861 L117.528611948,578.5152662 L115.525818605,578.84729005 L112.628056662,578.395942206 L106.958180891,576.769889156 L106.761302837,576.713447963 L103.671679002,576.330126623 L104.159262416,571.208584022 L97.8683679135,553.512501828 L97.3665128706,544.113075551 L103.64821353,528.661776727 L107.937318279,524.333123019 L108.184078568,521.076937166 L105.507950335,518.862840659 L101.147399652,517.627547668 L94.8070397768,517.608352041 L91.265844157,518.446340479 L88.6294399718,517.387275063 L85.1197383473,511.915635346 L83.214421244,507.2966507 L79.3881800746,491.714785002 L75.3307127522,485.089479992 L61.6557875937,473.491808979 L56.2039202989,467.069914876 L48.3772877419,448.335387116 L53.0626614604,446.539906387 L72.7962831144,437.11286339 L80.9267050435,430.872769246 L82.9687173939,430.165457863 L84.3428788692,430.474304677 L86.025562259,431.513417684 L88.3002525512,432.265845836 L94.1114321632,431.841027705 L96.6420507081,430.966343907 L98.5983064379,429.394641993 L100.155903175,427.703093358 L102.8830605,425.608165446 L107.188606755,424.807761483 L109.759141464,425.528714078 L111.083836294,427.331242891 L110.987991257,429.434313696 L106.020581949,443.005128907 L105.213079197,445.937110286 L104.395788336,451.9733109 L104.377714891,457.621942986 L104.983232965,462.254806467 L105.768924071,465.921379138 L106.777380391,469.147666513 L108.975507622,474.209978891 L109.371589395,474.97465201 L110.342528605,476.012686256 L117.631526895,481.330760788 L123.735365929,487.188806458 L125.814403086,487.705685389 L127.409071546,487.525294852 L130.027136872,486.093758432 L131.978271147,485.389147686 L133.310957059,484.342843218 L134.156904712,483.226728477 L135.333931702,480.602260559 L135.958394287,479.536162867 L136.670905046,478.606153865 L148.638883784,466.733193527 L149.441962541,465.515490196 L150.217825324,463.805740298 L150.668897105,462.077544845 L151.161109133,461.045047918 L152.31774456,460.083504216 L153.78481382,459.089532782 L155.342137625,457.773749008 L156.545035965,456.456338013 L157.349634473,455.035269319 L157.933097702,453.528333877 L159.332720712,448.276451328 L159.909756173,448.12659546 L160.792608139,448.894277656 L162.069329251,450.681742744 L164.765742995,452.188003395 L168.457728983,452.546081411 L174.578028592,451.916592741 L178.165889921,452.393954213 L180.684252425,453.883608924 L184.740213067,460.369467232 L186.455497566,462.652361686 L188.34943589,464.647996538 L191.218664574,466.513731848 L193.921332385,466.52966407 L197.119353078,465.225611809 L199.937974776,463.207053739 L204.7543496,463.033301425 L208.941192417,461.991055168 L211.309510527,456.662572778 L216.915065628,453.493027111 L221.540175458,457.798995578 L228.028996629,461.575740371 L234.096615538,460.023948829 L238.788780745,454.71404077 L239.750990977,450.429056954 L238.397712919,443.48072757 L243.52228534,444.044295681 L248.602042359,450.495040387 L251.815805027,455.337559117 L253.71468631,450.53424167 L254.707822557,442.534620156 L258.00784229,438.285320208 L263.096704552,441.532074322 L267.708962609,446.913334185 L275.171981545,446.975138936 L282.147344225,447.034438254 L289.553220472,451.900199713 L296.995702234,454.121435627 L301.167297431,455.228356269 L301.709127536,447.734571427 L307.712507286,444.278489442 L310.0529538,451.561842603 L317.52110671,449.495658841 L322.22858915,444.197333865 L333.870011409,444.839710647 L340.382366426,445.449565216 L348.293012627,446.601499419 L355.695469211,450.956542892 L359.833614922,456.346243158 L363.973330712,460.14166445 L368.132965302,463.394934933 L370.9673809,459.677206056 L373.79623157,456.502583508 L371.534422124,450.063309717 L366.043675756,441.45025017 L371.667575603,438.30670222 L377.261980183,437.827558878 L381.472996416,436.807278313 L381.528751165,432.006226953 L382.995921826,426.661681142 L390.007879959,424.080237389 L395.566538207,426.810495173 L400.717771268,425.277913791 L407.766350068,421.088682484 L415.282216243,416.363795059 L421.833788545,414.309101578 L429.304464191,413.336626524 L432.149792852,409.640813403 L440.371067807,403.556153923 L444.484375601,411.382925629 L444.301074192,418.388491548 L442.461397097,426.457751449 L441.802055381,432.591544917 L443.353362574,442.573104556 L443.342702682,446.64547999 L442.049888006,450.429054144 L439.938021383,452.487817576 L436.575094281,454.173674236 L426.726216957,457.997632527 L423.684581902,460.079208071 L420.799089178,462.689073137 L417.141714849,467.936379724 L414.8092788,470.129570096 L413.018901776,471.532246776 L411.416146546,472.12290102 L410.078010656,472.818757658 L408.55932301,473.783899409 L402.189055437,478.931060787 L392.142202034,485.477278753 L390.883322941,485.801537748 L390.124561661,486.284526878 L389.076648668,485.016407757 L384.50908229,476.68211378 L381.370926052,473.506362195 L371.058543265,471.181958018 L362.193178074,475.460048153 L360.734628274,476.478903083 Z" fill="#cee3f5" id="LS.MH" stroke="#6e6e6e" stroke-width="0.4"><desc><labelrank>8</labelrank><code_hasc>LS.MH</code_hasc><name>Mohale's Hoek</name><admin>Lesotho</admin><type_en>District</type_en><region /><woe_id>20069868</woe_id><longitude>27</longitude><woe_name>Mohale's Hoek</woe_name><fips>LT15</fips><woe_label>Mohale's Hoek, LS, Lesotho</woe_label><latitude>-30</latitude><iso_a2>LS</iso_a2><postal>MH</postal><type>District</type><id>LS.MH</id></desc></path><path d="M386.033786575,533.234115627 L381.096190748,542.307008807 L376.578948144,546.733750794 L373.90362248,548.704976756 L370.308571491,553.821896302 L368.31219067,555.767385798 L365.543822281,556.957677214 L357.149132176,558.085598595 L351.912147458,560.132175324 L345.893708934,563.698264882 L341.452905142,568.605503179 L340.770044206,574.706527452 L343.843610919,579.184580915 L348.003042811,581.163471363 L351.297640227,584.117612428 L351.981043142,591.624785143 L349.902915459,598.694652017 L346.089223279,603.09895511 L321.718071397,621.883263313 L319.444894616,625.763034895 L320.036468303,628.347964933 L323.299718653,634.14962084 L324.177785694,637.416247927 L323.798067531,640.093272379 L318.82715773,655.314122429 L317.838092114,657.306440065 L315.53269858,660.269873305 L313.252722867,662.181725907 L310.817484396,663.48139285 L308.437561381,665.15505545 L306.573286278,668.191226768 L304.880770089,674.792292719 L305.020565904,680.121404589 L305.674381467,685.387592302 L305.554138297,691.800167607 L298.747235393,688.749267931 L265.239472731,685.534104767 L259.299347501,683.550966533 L253.65923823,680.655153324 L250.976473356,678.496122836 L248.763700147,676.239197462 L246.371893382,674.320380982 L243.093320211,673.175428989 L240.624828459,673.563889402 L235.175334939,676.203874163 L232.325185221,676.658016499 L220.421440919,674.978623746 L210.551541177,671.82408155 L202.0448642,666.339988897 L186.808791786,648.772701618 L169.564284885,635.477659851 L167.786481399,632.686023658 L167.331738949,629.731735881 L167.200211654,626.779146908 L166.274835217,623.856361588 L159.474129982,614.15184113 L152.069951191,606.787132965 L151.166301647,603.571294407 L155.048046258,602.204234587 L158.07390541,602.982399253 L160.428478564,602.68871483 L162.426323413,600.238879562 L164.360246291,593.089626752 L166.287953545,590.14769116 L176.43991841,587.453491699 L195.755893687,595.352115307 L205.419317367,591.001453335 L208.770850765,584.661098247 L208.487179674,578.467007803 L204.344539781,565.581048553 L203.833649139,562.5411056 L203.807243284,559.724774016 L204.879929248,557.780602342 L207.577020649,557.492449084 L208.970221321,558.417533107 L210.892507847,561.75515032 L211.990590198,562.729342573 L221.636078113,564.880804291 L226.703063048,564.661502411 L231.60475509,562.86403674 L232.894671295,561.651812081 L237.485510996,556.171506686 L245.294599239,551.954531597 L246.31060868,550.079094334 L247.873720412,546.036304452 L248.859933897,544.245541003 L250.345796214,542.645282669 L253.753003955,540.347534682 L255.163331164,539.035307502 L256.801190647,535.061368241 L256.434377657,531.122492588 L254.198704306,522.961544075 L254.280653901,518.144050775 L255.405050877,513.928525021 L261.527616518,502.695295347 L263.570064878,500.082153636 L265.976179991,498.150710682 L268.981413854,496.970852492 L276.713111342,497.069540907 L283.972225253,495.52027699 L286.452809836,495.372332618 L301.233668867,499.272039749 L306.345450791,498.624103746 L316.157419209,495.714825986 L320.404383233,493.058663225 L322.190580624,488.546271248 L325.066943284,484.316266703 L331.602479419,483.33009079 L343.961978303,484.560804529 L353.562101276,481.507532163 L360.734628274,476.478903083 L362.851850598,483.967852835 L364.693498076,489.604502968 L363.823780626,492.139869455 L362.481697256,493.363528971 L357.016780427,493.693484178 L348.24589753,498.162720553 L345.963350553,500.479833478 L344.609011411,502.959604102 L343.222135892,508.544014155 L342.839683293,511.237714009 L342.813759731,513.697638401 L343.189247115,515.856395103 L344.228476469,518.005214652 L346.329467342,520.148405097 L349.455446224,521.573166859 L374.163748864,524.885466202 L376.302873903,524.808366757 L378.031732918,524.506049531 L379.74714386,525.357478053 L381.108414032,526.221812306 L385.951623734,533.117106794 L386.033786575,533.234115627 Z" fill="#cee3f5" id="LS.QT" stroke="#6e6e6e" stroke-width="0.4"><desc><labelrank>8</labelrank><code_hasc>LS.QT</code_hasc><name>Quthing</name><admin>Lesotho</admin><type_en>District</type_en><region /><woe_id>20069867</woe_id><longitude>27</longitude><woe_name>Quthing</woe_name><fips>LT18</fips><woe_label>Quthing, LS, Lesotho</woe_label><latitude>-30</latitude><iso_a2>LS</iso_a2><postal>QT</postal><type>District</type><id>LS.QT</id></desc></path><path d="M528.063881988,70.9805056946 L528.063652308,70.9811269469 L527.782858259,71.7403919602 L524.885671268,91.0738772615 L525.045992515,98.1691392768 L525.600428637,100.010235297 L526.255875842,101.106281476 L526.914410768,101.998768686 L527.620328042,102.722314626 L528.234252618,103.597176266 L528.395930097,104.736568244 L528.103829424,106.24227029 L526.229465885,108.656886736 L524.77541286,109.975077833 L516.823000379,113.400430948 L509.089070211,115.303653973 L507.17848727,116.259410964 L505.680985181,117.560735135 L502.214334733,121.802516439 L494.2483137,133.750418289 L492.633371482,137.069706864 L491.508562267,140.565799449 L489.731302751,151.060221362 L488.887984916,153.695072116 L487.374531265,156.26942864 L485.508310138,158.499449332 L483.017610492,160.618876122 L480.399285498,162.295506489 L477.157744823,163.776925753 L473.682961925,164.899069627 L470.094810881,165.612770463 L466.959836872,165.908885177 L463.697958195,165.677572256 L460.708734887,165.127895899 L447.924636192,160.019660667 L445.557555436,159.734057942 L443.481311241,160.01230953 L442.036889512,161.011487582 L440.850763189,162.794529327 L437.133632347,170.109930723 L436.221103688,171.523373093 L434.867444619,172.473089209 L432.592106994,172.070756124 L430.337150363,170.057042458 L427.812729062,164.562039316 L427.044697514,160.429616456 L427.151847999,156.647530545 L433.551637432,135.351180371 L433.860092713,132.216384713 L433.412971259,128.647839913 L432.082569188,124.101065686 L431.457283043,120.42852766 L431.281783698,116.592029012 L430.788013755,113.124777161 L429.489180673,109.545632551 L425.647638987,107.46174635 L423.324725555,106.923964812 L418.577911075,106.763782728 L415.537548404,106.268665925 L413.041190203,105.237495256 L410.763303659,103.41177078 L408.071924212,99.9187012248 L405.45895754,97.3259495617 L401.316761763,95.1735303602 L398.236690648,94.136674994 L394.940996013,92.3511722852 L384.834773897,85.0433041476 L380.995163592,83.6602715884 L377.575859954,83.4358712661 L375.103450662,84.0703593315 L372.770759074,84.231543034 L365.436525457,82.6258891412 L363.704109216,81.1316254068 L362.419718639,78.234185243 L361.240349376,71.0121485894 L361.271104562,59.5450030732 L359.973434671,54.9512284812 L354.046421321,51.0899662798 L351.869226159,49.3971424697 L355.51774555,49.0692374145 L361.323193192,51.7080846059 L367.985084913,52.4910775535 L374.693981604,51.6812727513 L380.550866759,49.5062138723 L386.170850332,44.5134139189 L394.162378555,31.1342024012 L399.853794355,25.5674527891 L405.809383048,23.1600401952 L446.165933752,20.9765818298 L451.932114234,19.6602396998 L468.580007689,8.68406543817 L472.900075759,8.19983239277 L478.325123081,12.3122636864 L482.123480635,17.0137313234 L484.682380155,22.4787657127 L486.358041041,28.9496178655 L488.262851975,42.4481178761 L491.249048852,47.1055146801 L504.078419139,47.6299817303 L508.303504764,51.2891113424 L516.471637836,67.2585142563 L518.836027967,69.1266355723 L527.840493175,70.8925942316 L528.063881988,70.9805056946 Z" fill="#cee3f5" id="LS.BB" stroke="#6e6e6e" stroke-width="0.4"><desc><labelrank>8</labelrank><code_hasc>LS.BB</code_hasc><name>Butha-Buthe</name><admin>Lesotho</admin><type_en>District</type_en><region /><woe_id>20069862</woe_id><longitude>28</longitude><woe_name>Butha-Buthe</woe_name><fips>LT11</fips><woe_label>Butha-Buthe, LS, Lesotho</woe_label><latitude>-28</latitude><iso_a2>LS</iso_a2><postal>BB</postal><type>District</type><id>LS.BB</id></desc></path><path d="M516.823000379,113.400430948 L515.335289751,119.961688739 L512.84349723,124.828039274 L511.791064332,129.308847507 L509.072266762,161.406235674 L506.943172078,168.1787662 L504.724862794,172.981731958 L500.360809214,177.787039487 L476.165539404,199.378063283 L473.081220399,201.591500452 L470.295544997,202.706452874 L464.693632211,203.952480021 L461.451841261,205.791464814 L458.151491997,208.681921188 L453.690991691,213.745842589 L451.402247675,217.906068587 L450.276120988,221.980120925 L449.971863352,228.050327559 L449.002300277,233.806263452 L449.178375593,237.337806779 L449.653142194,238.548823373 L450.873229768,240.753931525 L458.861723225,251.636348504 L460.799438608,253.478406762 L464.021435881,255.983081469 L465.158931394,257.593795964 L465.454888339,258.76868368 L464.546550773,259.943861458 L462.879972899,261.125566517 L460.729071087,261.859533362 L452.142917662,262.472399082 L448.980448328,262.175437551 L444.853813468,260.593432113 L430.71514046,252.53640461 L421.333555473,248.888407777 L413.282180146,246.973061421 L410.429739408,246.734528207 L407.218267758,245.439981846 L404.439659257,242.759731653 L397.472504738,228.187800842 L389.905013613,205.755727409 L386.587344641,199.016285977 L385.641916199,195.731185664 L385.544799071,192.489707494 L385.756948534,189.557131418 L385.559603784,187.264574774 L384.417985343,185.470252843 L382.553728606,184.329452108 L380.46075304,183.64424876 L375.896487806,182.778993465 L373.082252791,182.629141879 L370.172321614,183.055284077 L366.899813156,183.952757936 L363.82870325,186.92239857 L354.23419906,184.174232453 L351.49994161,180.634120145 L350.186313148,177.991046047 L348.604099099,175.362237456 L343.689733705,169.17105265 L340.767636355,166.291625525 L337.483951625,163.748159287 L334.636430492,162.278052178 L331.827589616,161.402306412 L325.652108345,160.256871371 L322.664985755,159.278408279 L320.04441274,157.353705063 L317.751837084,153.803785032 L315.999171352,149.868896498 L314.018328675,146.3730622 L311.613430842,143.535048996 L305.130643085,137.980269068 L301.542461682,133.843263633 L297.929738501,130.707273971 L294.369885341,128.284590848 L291.069424054,126.882278211 L288.162968696,126.501383704 L285.421027413,127.852307452 L282.163388875,132.048897066 L280.267237869,137.664852147 L277.908581582,141.546933498 L274.175653197,143.925355179 L271.468770299,146.736406026 L263.169910087,159.274330959 L260.46851359,161.645220843 L257.00804626,163.925747103 L252.136794073,163.583888146 L249.146227381,162.86634807 L246.636919582,161.541924903 L242.189109116,158.202269582 L239.738702948,156.89575838 L237.367835829,156.980879741 L226.617710543,163.980602652 L224.509034094,165.069114656 L221.998685104,166.07031316 L218.640276931,166.879633741 L207.716776784,174.155436825 L204.403926687,175.017301346 L200.792772081,173.452182011 L197.205957838,172.769606271 L192.422996654,172.792987319 L184.760719545,176.227451023 L182.290715926,176.214062036 L181.247332714,170.135970373 L183.211380798,167.907614188 L185.181022749,170.157241188 L186.614445756,169.622335771 L189.289232482,168.280244321 L191.123994189,167.951308396 L188.63868496,164.6807676 L185.052389011,160.963402123 L183.742248779,157.937143337 L188.325264765,156.707117429 L191.926691058,155.132907534 L195.48151641,151.353804624 L201.104925873,143.346850918 L202.210850548,142.946331789 L203.580151849,143.395501268 L204.742692451,143.504249947 L205.228069441,142.150249444 L205.257513506,139.741885607 L205.576852138,138.726120456 L206.224538473,137.678423499 L206.906423931,135.918560649 L207.22083741,133.274473222 L207.278329443,128.729138858 L209.651546274,126.131585632 L214.211897891,124.599476935 L217.316660699,122.074888365 L215.232666981,116.532216316 L248.109237859,118.99432855 L255.835599737,115.591097362 L258.559561144,110.658676083 L260.420199107,105.482402026 L262.782531706,101.158176281 L267.011934942,98.7822976029 L272.441902257,99.5035806775 L275.850843353,102.685876865 L278.510196898,106.167748489 L281.751073944,107.856617906 L289.603495862,107.9222283 L292.177592389,107.197771027 L292.55242693,105.267234868 L292.484600274,102.7222618 L293.731353698,100.120698071 L304.791083987,85.663345995 L317.734869858,72.1087327916 L318.679050961,70.2176379938 L326.771409183,58.5552656667 L330.674594166,53.8089872757 L333.584926624,49.7659350559 L336.20697849,50.8092052374 L351.869226159,49.3971424697 L354.046421321,51.0899662798 L359.973434671,54.9512284812 L361.271104562,59.5450030732 L361.240349376,71.0121485894 L362.419718639,78.234185243 L363.704109216,81.1316254068 L365.436525457,82.6258891412 L372.770759074,84.231543034 L375.103450662,84.0703593315 L377.575859954,83.4358712661 L380.995163592,83.6602715884 L384.834773897,85.0433041476 L394.940996013,92.3511722852 L398.236690648,94.136674994 L401.316761763,95.1735303602 L405.45895754,97.3259495617 L408.071924212,99.9187012248 L410.763303659,103.41177078 L413.041190203,105.237495256 L415.537548404,106.268665925 L418.577911075,106.763782728 L423.324725555,106.923964812 L425.647638987,107.46174635 L429.489180673,109.545632551 L430.788013755,113.124777161 L431.281783698,116.592029012 L431.457283043,120.42852766 L432.082569188,124.101065686 L433.412971259,128.647839913 L433.860092713,132.216384713 L433.551637432,135.351180371 L427.151847999,156.647530545 L427.044697514,160.429616456 L427.812729062,164.562039316 L430.337150363,170.057042458 L432.592106994,172.070756124 L434.867444619,172.473089209 L436.221103688,171.523373093 L437.133632347,170.109930723 L440.850763189,162.794529327 L442.036889512,161.011487582 L443.481311241,160.01230953 L445.557555436,159.734057942 L447.924636192,160.019660667 L460.708734887,165.127895899 L463.697958195,165.677572256 L466.959836872,165.908885177 L470.094810881,165.612770463 L473.682961925,164.899069627 L477.157744823,163.776925753 L480.399285498,162.295506489 L483.017610492,160.618876122 L485.508310138,158.499449332 L487.374531265,156.26942864 L488.887984916,153.695072116 L489.731302751,151.060221362 L491.508562267,140.565799449 L492.633371482,137.069706864 L494.2483137,133.750418289 L502.214334733,121.802516439 L505.680985181,117.560735135 L507.17848727,116.259410964 L509.089070211,115.303653973 L516.823000379,113.400430948 Z" fill="#cee3f5" id="LS.LE" stroke="#6e6e6e" stroke-width="0.4"><desc><labelrank>8</labelrank><code_hasc>LS.LE</code_hasc><name>Leribe</name><admin>Lesotho</admin><type_en>District</type_en><region /><woe_id>20069863</woe_id><longitude>28</longitude><woe_name>Leribe</woe_name><fips>LT12</fips><woe_label>Leribe, LS, Lesotho</woe_label><latitude>-28</latitude><iso_a2>LS</iso_a2><postal>LE</postal><type>District</type><id>LS.LE</id></desc></path><path d="M652.57157275,325.629776193 L652.437504916,325.603587417 L647.704912388,324.679503842 L646.453730932,324.892859645 L645.195342217,325.479566402 L638.284438827,330.5406833 L636.483531962,331.575607844 L628.411062056,333.849595039 L625.580993073,335.188164611 L620.145879022,340.16163979 L618.712171357,340.661129742 L616.038844363,340.000454581 L613.929581013,338.51869879 L610.085189282,334.544082188 L607.878356813,331.058116145 L604.796928481,324.212732108 L601.716998607,321.322486293 L597.179620416,318.542221743 L588.692587643,314.894995868 L579.68438074,312.089614813 L577.057578499,312.010149849 L574.777098528,312.513900439 L570.449274136,314.66294958 L567.855102787,315.297564049 L565.003082885,315.384912953 L561.71240283,315.074769704 L547.570689672,315.569409851 L543.701431888,315.234585293 L530.706587984,310.884532029 L526.129874818,310.184170874 L513.320650238,310.901086574 L511.324639391,310.361352081 L510.244591776,308.172697924 L510.083568681,307.050236215 L510.235317436,305.864675963 L509.612248333,304.853950643 L513.423741531,301.297764315 L515.842334867,297.584684833 L517.432537461,292.721946859 L518.071184883,286.011786058 L517.612906544,272.394985758 L518.162996214,265.649561035 L518.178383424,265.615859386 L516.609933429,265.133501745 L515.42423406,263.927405542 L513.300175203,262.825784115 L508.633334809,261.736599067 L505.190592888,261.294332991 L502.20199924,261.300409531 L500.452958545,261.936087799 L499.454740651,263.075115734 L498.496140536,264.554137811 L496.967275704,265.396881614 L495.062979783,264.486354941 L490.911047153,258.672972488 L488.602794688,256.874577941 L484.520942027,255.339200933 L482.000577065,253.775796426 L481.009422064,251.335121215 L481.708412072,249.258022515 L484.683535482,244.057533473 L493.230538199,225.176926079 L494.322417353,220.747159873 L494.282556641,217.369847676 L493.03520366,214.093672513 L491.638794275,211.833494832 L490.079784374,210.504285286 L488.01583113,211.136174006 L484.858962788,213.228708641 L468.079019943,227.227910092 L460.522473293,231.331805488 L449.002300277,233.806263452 L449.971863352,228.050327559 L450.276120988,221.980120925 L451.402247675,217.906068587 L453.690991691,213.745842589 L458.151491997,208.681921188 L461.451841261,205.791464814 L464.693632211,203.952480021 L470.295544997,202.706452874 L473.081220399,201.591500452 L476.165539404,199.378063283 L500.360809214,177.787039487 L504.724862794,172.981731958 L506.943172078,168.1787662 L509.072266762,161.406235674 L511.791064332,129.308847507 L512.84349723,124.828039274 L515.335289751,119.961688739 L516.823000379,113.400430948 L524.77541286,109.975077833 L526.229465885,108.656886736 L528.103829424,106.24227029 L528.395930097,104.736568244 L528.234252618,103.597176266 L527.620328042,102.722314626 L526.914410768,101.998768686 L526.255875842,101.106281476 L525.600428637,100.010235297 L525.045992515,98.1691392768 L524.885671268,91.0738772615 L527.782858259,71.7403919602 L528.063652308,70.9811269469 L528.063881988,70.9805056946 L532.596268229,72.7645785608 L536.919785526,75.4789336054 L536.984776035,75.5371449236 L540.929832926,79.0713240896 L544.565320586,83.6085667405 L555.859822485,104.254725329 L571.479190855,120.769204504 L575.692923603,120.602331042 L582.468433845,122.583887877 L588.642390921,125.64261104 L591.227385842,128.979626514 L591.205257829,135.42823935 L592.804004765,139.630880433 L596.57791181,142.310275487 L603.052133341,144.155288878 L612.906219851,148.879556089 L636.243904513,174.427511677 L645.69929276,177.491485255 L657.230062402,178.018311756 L665.922476862,181.854191502 L667.010902405,200.785171041 L670.165272649,204.785615853 L674.609757584,208.30288819 L678.481927838,212.827843856 L680.543836328,218.437190557 L683.465738832,230.073468397 L691.279170387,241.131249059 L694.049105413,248.284229164 L694.275544046,250.292087182 L693.90416437,255.309372664 L694.152552233,257.691170621 L695.390043279,259.71995251 L699.14749091,263.60065118 L700.0,265.519780565 L698.84475284,270.283096995 L693.365671663,277.774845473 L692.724004708,282.922395648 L692.818903672,287.677752583 L691.405995616,291.31544893 L688.939202964,294.184508924 L685.621056179,296.560922067 L677.978263272,299.732410138 L669.370494435,302.207160414 L661.191511439,305.609162529 L655.011981855,311.666342078 L652.798737094,318.514830729 L652.57157275,325.629776193 Z" fill="#cee3f5" id="LS.MK" stroke="#6e6e6e" stroke-width="0.4"><desc><labelrank>7</labelrank><code_hasc>LS.MK</code_hasc><name>Mokhotlong</name><admin>Lesotho</admin><type_en>District</type_en><region /><woe_id>20069861</woe_id><longitude>28</longitude><woe_name>Mokhotlong</woe_name><fips>LT16</fips><woe_label>Mokhotlong, LS, Lesotho</woe_label><latitude>-29</latitude><iso_a2>LS</iso_a2><postal>MK</postal><type>District</type><id>LS.MK</id></desc></path><path d="M604.820758382,398.485852138 L604.317473525,405.795326025 L602.441611013,414.45160585 L602.14968951,422.32214162 L606.213842419,428.269746839 L609.771072075,431.153204538 L610.526343109,433.50966867 L610.294674936,436.424950016 L610.830021362,441.051921458 L613.846893193,447.422680393 L614.466607615,450.659447983 L612.580931104,453.441965348 L609.269159279,455.009829437 L601.660314509,457.109941739 L598.143833083,458.607210114 L575.497053123,472.104527403 L564.088208957,478.914048385 L530.504018011,500.177701064 L511.996114451,507.45106841 L493.048390259,511.231767651 L467.268498153,520.592403977 L457.624292811,520.38736931 L443.834478126,514.833877749 L439.062755398,514.22612064 L434.416198598,515.28371959 L421.929996614,522.55175005 L414.849235994,524.971974191 L401.102123677,522.797101668 L394.217416565,523.798824859 L388.510742628,528.684765597 L386.033786575,533.234115627 L385.951623734,533.117106794 L381.108414032,526.221812306 L379.74714386,525.357478053 L378.031732918,524.506049531 L376.302873903,524.808366757 L374.163748864,524.885466202 L349.455446224,521.573166859 L346.329467342,520.148405097 L344.228476469,518.005214652 L343.189247115,515.856395103 L342.813759731,513.697638401 L342.839683293,511.237714009 L343.222135892,508.544014155 L344.609011411,502.959604102 L345.963350553,500.479833478 L348.24589753,498.162720553 L357.016780427,493.693484178 L362.481697256,493.363528971 L363.823780626,492.139869455 L364.693498076,489.604502968 L362.851850598,483.967852835 L360.734628274,476.478903083 L362.193178074,475.460048153 L371.058543265,471.181958018 L381.370926052,473.506362195 L384.50908229,476.68211378 L389.076648668,485.016407757 L390.124561661,486.284526878 L390.883322941,485.801537748 L392.142202034,485.477278753 L402.189055437,478.931060787 L408.55932301,473.783899409 L410.078010656,472.818757658 L411.416146546,472.12290102 L413.018901776,471.532246776 L414.8092788,470.129570096 L417.141714849,467.936379724 L420.799089178,462.689073137 L423.684581902,460.079208071 L426.726216957,457.997632527 L436.575094281,454.173674236 L439.938021383,452.487817576 L442.049888006,450.429054144 L443.342702682,446.64547999 L443.353362574,442.573104556 L441.802055381,432.591544917 L442.461397097,426.457751449 L444.301074192,418.388491548 L444.484375601,411.382925629 L440.371067807,403.556153923 L445.235256637,401.805819109 L448.034974622,401.6740339 L451.807202649,401.87819305 L457.620301011,403.298852021 L465.568389334,406.549358722 L471.02868462,409.78319735 L476.269015166,413.829362535 L478.281842911,415.860933448 L479.759839248,418.020605196 L480.56721944,420.492985214 L480.746992616,423.380465465 L480.123095842,429.633197143 L480.217044866,432.315796771 L480.852227474,434.395401556 L482.157433122,436.162422977 L483.735631417,437.458365889 L484.969128548,438.053531261 L488.616085928,436.46147332 L490.763228583,434.304322842 L492.617169931,431.990171723 L494.688615238,429.984846852 L497.443912566,428.753637148 L500.162963062,428.947608235 L502.841519935,429.853946262 L505.572917259,430.201294851 L508.480233434,428.735731697 L510.777049287,424.681376882 L510.072005259,420.529599989 L508.314667814,416.463425792 L508.760114001,416.368479303 L511.432852919,415.798923917 L517.337337405,415.84020456 L521.511528765,416.737596684 L525.346759623,418.461707974 L540.556436029,431.317801037 L544.740905717,433.236789954 L549.346314962,433.839555204 L555.230706483,433.157687888 L559.825177776,431.792942827 L564.122849296,429.642982978 L568.660611228,424.765092522 L570.765351103,421.152386531 L571.982720724,417.524369557 L574.597381477,397.423225136 L576.241109358,394.888986832 L579.021978985,393.410060101 L584.919857604,394.939674174 L594.492807447,398.810755097 L600.359580303,399.527949331 L604.67307658,398.52033888 L604.820758382,398.485852138 Z" fill="#cee3f5" id="LS.QN" stroke="#6e6e6e" stroke-width="0.4"><desc><labelrank>8</labelrank><code_hasc>LS.QN</code_hasc><name>Qacha's Nek</name><admin>Lesotho</admin><type_en>District</type_en><region /><woe_id>20069866</woe_id><longitude>28</longitude><woe_name>Qacha's Nek</woe_name><fips>LT17</fips><woe_label>Qacha's Nek, LS, Lesotho</woe_label><latitude>-29</latitude><iso_a2>LS</iso_a2><postal>QN</postal><type>District</type><id>LS.QN</id></desc></path><path d="M449.002300277,233.806263452 L460.522473293,231.331805488 L468.079019943,227.227910092 L484.858962788,213.228708641 L488.01583113,211.136174006 L490.079784374,210.504285286 L491.638794275,211.833494832 L493.03520366,214.093672513 L494.282556641,217.369847676 L494.322417353,220.747159873 L493.230538199,225.176926079 L484.683535482,244.057533473 L481.708412072,249.258022515 L481.009422064,251.335121215 L482.000577065,253.775796426 L484.520942027,255.339200933 L488.602794688,256.874577941 L490.911047153,258.672972488 L495.062979783,264.486354941 L496.967275704,265.396881614 L498.496140536,264.554137811 L499.454740651,263.075115734 L500.452958545,261.936087799 L502.20199924,261.300409531 L505.190592888,261.294332991 L508.633334809,261.736599067 L513.300175203,262.825784115 L515.42423406,263.927405542 L516.609933429,265.133501745 L518.178383424,265.615859386 L518.162996214,265.649561035 L517.612906544,272.394985758 L518.071184883,286.011786058 L517.432537461,292.721946859 L515.842334867,297.584684833 L513.423741531,301.297764315 L509.612248333,304.853950643 L510.235317436,305.864675963 L510.083568681,307.050236215 L510.244591776,308.172697924 L511.324639391,310.361352081 L513.320650238,310.901086574 L526.129874818,310.184170874 L530.706587984,310.884532029 L543.701431888,315.234585293 L547.570689672,315.569409851 L561.71240283,315.074769704 L565.003082885,315.384912953 L567.855102787,315.297564049 L570.449274136,314.66294958 L574.777098528,312.513900439 L577.057578499,312.010149849 L579.68438074,312.089614813 L588.692587643,314.894995868 L597.179620416,318.542221743 L601.716998607,321.322486293 L604.796928481,324.212732108 L607.878356813,331.058116145 L610.085189282,334.544082188 L613.929581013,338.51869879 L616.038844363,340.000454581 L618.712171357,340.661129742 L620.145879022,340.16163979 L625.580993073,335.188164611 L628.411062056,333.849595039 L636.483531962,331.575607844 L638.284438827,330.5406833 L645.195342217,325.479566402 L646.453730932,324.892859645 L647.704912388,324.679503842 L652.437504916,325.603587417 L652.57157275,325.629776193 L652.530079382,326.929189802 L654.349664106,334.807404373 L658.343651256,339.978773268 L653.592873739,343.110391923 L653.047233942,348.226197711 L652.999813983,353.657359985 L649.687088333,357.700386942 L627.468365663,364.096632644 L619.015465856,370.523727287 L614.210008735,378.649702705 L610.408714026,387.881077313 L604.8824221,397.590348891 L604.820758382,398.485852138 L604.67307658,398.52033888 L600.359580303,399.527949331 L594.492807447,398.810755097 L584.919857604,394.939674174 L579.021978985,393.410060101 L576.241109358,394.888986832 L574.597381477,397.423225136 L571.982720724,417.524369557 L570.765351103,421.152386531 L568.660611228,424.765092522 L564.122849296,429.642982978 L559.825177776,431.792942827 L555.230706483,433.157687888 L549.346314962,433.839555204 L544.740905717,433.236789954 L540.556436029,431.317801037 L525.346759623,418.461707974 L521.511528765,416.737596684 L517.337337405,415.84020456 L511.432852919,415.798923917 L508.760114001,416.368479303 L508.314667814,416.463425792 L510.072005259,420.529599989 L510.777049287,424.681376882 L508.480233434,428.735731697 L505.572917259,430.201294851 L502.841519935,429.853946262 L500.162963062,428.947608235 L497.443912566,428.753637148 L494.688615238,429.984846852 L492.617169931,431.990171723 L490.763228583,434.304322842 L488.616085928,436.46147332 L484.969128548,438.053531261 L483.735631417,437.458365889 L482.157433122,436.162422977 L480.852227474,434.395401556 L480.217044866,432.315796771 L480.123095842,429.633197143 L480.746992616,423.380465465 L480.56721944,420.492985214 L479.759839248,418.020605196 L478.281842911,415.860933448 L476.269015166,413.829362535 L471.02868462,409.78319735 L465.568389334,406.549358722 L457.620301011,403.298852021 L451.807202649,401.87819305 L448.034974622,401.6740339 L445.235256637,401.805819109 L440.371067807,403.556153923 L432.149792852,409.640813403 L429.304464191,413.336626524 L421.833788545,414.309101578 L415.282216243,416.363795059 L407.766350068,421.088682484 L400.717771268,425.277913791 L395.566538207,426.810495173 L390.007879959,424.080237389 L382.995921826,426.661681142 L381.528751165,432.006226953 L381.472996416,436.807278313 L377.261980183,437.827558878 L371.667575603,438.30670222 L366.043675756,441.45025017 L363.309015296,436.075340759 L361.034855271,431.774665544 L356.853065924,430.117162715 L353.14972821,427.939388092 L352.657628064,425.558809008 L348.610868667,405.44461504 L344.38617189,397.59583721 L351.70266869,388.901536648 L344.777805908,381.346567414 L338.685182046,380.452268264 L334.543965465,363.766880827 L334.1728358,360.89596863 L334.562870361,357.489844846 L327.586637998,314.922512144 L326.854350568,312.421475943 L325.844378603,310.986537279 L323.539259529,309.946200245 L322.883605764,308.68444856 L322.410258255,306.983389143 L321.844532496,305.620743807 L320.026446161,304.822878723 L319.277599678,303.967469581 L318.444835311,302.568408426 L316.815254282,300.652860595 L315.899810453,298.557539185 L315.391975715,295.736618473 L316.195042403,290.892344636 L315.91367723,287.666423649 L316.254716719,284.582106779 L316.949538407,281.789539829 L318.048740441,278.661536702 L319.411971526,275.909301984 L321.0327535,274.211383596 L323.264095246,273.927481166 L326.932939441,272.504129352 L329.770924267,270.988157094 L345.490838885,256.658471862 L348.391370374,252.192738281 L349.300794395,250.522654601 L351.749343043,246.71411837 L353.147798189,245.235863353 L365.800187839,235.921507681 L368.105509166,233.232202164 L369.480890768,229.905116301 L369.492608455,224.764793932 L365.62502536,215.0355911 L364.160042632,210.099919625 L363.288842764,208.054749934 L362.281369405,206.211725806 L360.02353507,202.930354208 L359.137297619,198.052047932 L363.82870325,186.92239857 L366.899813156,183.952757936 L370.172321614,183.055284077 L373.082252791,182.629141879 L375.896487806,182.778993465 L380.46075304,183.64424876 L382.553728606,184.329452108 L384.417985343,185.470252843 L385.559603784,187.264574774 L385.756948534,189.557131418 L385.544799071,192.489707494 L385.641916199,195.731185664 L386.587344641,199.016285977 L389.905013613,205.755727409 L397.472504738,228.187800842 L404.439659257,242.759731653 L407.218267758,245.439981846 L410.429739408,246.734528207 L413.282180146,246.973061421 L421.333555473,248.888407777 L430.71514046,252.53640461 L444.853813468,260.593432113 L448.980448328,262.175437551 L452.142917662,262.472399082 L460.729071087,261.859533362 L462.879972899,261.125566517 L464.546550773,259.943861458 L465.454888339,258.76868368 L465.158931394,257.593795964 L464.021435881,255.983081469 L460.799438608,253.478406762 L458.861723225,251.636348504 L450.873229768,240.753931525 L449.653142194,238.548823373 L449.178375593,237.337806779 L449.002300277,233.806263452 Z" fill="#cee3f5" id="LS.TT" stroke="#6e6e6e" stroke-width="0.4"><desc><labelrank>8</labelrank><code_hasc>LS.TT</code_hasc><name>Thaba-Tseka</name><admin>Lesotho</admin><type_en>District</type_en><region /><woe_id>20069864</woe_id><longitude>28</longitude><woe_name>Thaba-Tseka</woe_name><fips>LT19</fips><woe_label>Thaba-Tseka, LS, Lesotho</woe_label><latitude>-29</latitude><iso_a2>LS</iso_a2><postal>TT</postal><type>District</type><id>LS.TT</id></desc></path><path d="M311.681656806,377.794571098 L320.547461328,378.422213929 L327.078504089,378.486169078 L338.685182046,380.452268264 L344.777805908,381.346567414 L351.70266869,388.901536648 L344.38617189,397.59583721 L348.610868667,405.44461504 L352.657628064,425.558809008 L353.14972821,427.939388092 L356.853065924,430.117162715 L361.034855271,431.774665544 L363.309015296,436.075340759 L366.043675756,441.45025017 L371.534422124,450.063309717 L373.79623157,456.502583508 L370.9673809,459.677206056 L368.132965302,463.394934933 L363.973330712,460.14166445 L359.833614922,456.346243158 L355.695469211,450.956542892 L348.293012627,446.601499419 L340.382366426,445.449565216 L333.870011409,444.839710648 L322.22858915,444.197333865 L322.302058307,436.716109568 L321.417849182,431.889154323 L326.574946158,429.276375378 L332.622792989,429.337033584 L332.644597351,427.182574635 L330.381865333,421.289552856 L329.030195326,415.931768811 L331.890680574,409.547398488 L328.646267074,408.446029472 L322.56419721,409.98068827 L314.653653411,409.378241179 L314.684275598,406.172063641 L313.334499583,400.272212558 L311.989164659,393.846569633 L307.869790698,386.326241547 L302.302509036,383.068431311 L304.656804936,379.883660127 L311.681656806,377.794571098 M86.2961966245,316.832082951 L92.3894351207,318.273302057 L95.551076378,317.620748234 L97.0199139346,317.557165022 L98.9769902553,317.936109615 L100.710065078,318.789423037 L102.189256118,320.167865599 L103.426764068,322.902580416 L104.298775604,328.604550969 L105.179845575,331.355189527 L108.718068352,337.659557572 L109.819429585,340.85207921 L111.853509098,344.319180859 L119.131402634,352.622185308 L120.540505607,356.342049831 L121.107574677,359.295578858 L121.187884475,361.636686276 L122.469137362,363.710830042 L124.508142592,365.143302093 L128.814035077,366.415044414 L131.034730244,366.746070337 L133.790021336,366.740156261 L141.368927042,364.566586491 L143.017324816,363.64073607 L144.266405693,362.577519989 L149.227955651,356.357294444 L150.922210359,355.26240903 L152.313331353,355.658924084 L153.056654505,358.342455025 L152.844265311,365.822023023 L154.02803169,369.287921024 L157.257813224,372.254667126 L164.002915328,374.017688965 L173.083043347,373.75869499 L176.056450199,374.419004851 L179.020824582,376.724954552 L192.807883869,399.601296973 L193.002520836,404.267386229 L191.51534123,408.092443413 L188.703141236,410.858201023 L186.468603892,413.576572017 L186.899356452,415.869087534 L190.129157462,417.533074384 L214.083123794,414.219742992 L225.324772853,414.379655302 L231.448946363,416.508757931 L268.295937619,423.913844085 L274.659231892,427.003107148 L280.888275896,431.822925763 L285.400893429,433.202074381 L298.306492915,435.098137762 L301.837475017,436.99660636 L303.986235584,439.64608533 L304.89716082,441.843088814 L307.712507286,444.278489442 L301.709127536,447.734571427 L301.167297431,455.228356269 L296.995702234,454.121435627 L289.553220472,451.900199713 L282.147344225,447.034438254 L275.171981545,446.975138936 L267.708962609,446.913334185 L263.096704552,441.532074322 L258.00784229,438.285320208 L254.707822557,442.534620156 L253.71468631,450.53424167 L251.815805027,455.337559117 L248.602042359,450.495040387 L243.52228534,444.044295681 L238.397712919,443.48072757 L239.750990977,450.429056954 L238.788780745,454.71404077 L234.096615538,460.023948829 L228.028996629,461.575740371 L221.540175458,457.798995578 L216.915065628,453.493027111 L211.309510527,456.662572778 L208.941192417,461.991055168 L204.7543496,463.033301425 L199.937974776,463.207053739 L197.119353078,465.225611809 L193.921332385,466.52966407 L191.218664574,466.513731848 L188.34943589,464.647996538 L186.455497566,462.652361686 L184.740213067,460.369467232 L180.684252425,453.883608924 L178.165889921,452.393954213 L174.578028592,451.916592741 L168.457728983,452.546081411 L164.765742995,452.188003395 L162.069329251,450.681742744 L160.792608139,448.894277656 L159.909756173,448.12659546 L159.332720712,448.276451328 L157.933097702,453.528333877 L157.349634473,455.035269319 L156.545035965,456.456338013 L155.342137625,457.773749008 L153.78481382,459.089532782 L152.31774456,460.083504216 L151.161109133,461.045047918 L150.668897105,462.077544845 L150.217825324,463.805740298 L149.441962541,465.515490196 L148.638883784,466.733193527 L136.670905046,478.606153865 L135.958394287,479.536162867 L135.333931702,480.602260559 L134.156904712,483.226728477 L133.310957059,484.342843218 L131.978271147,485.389147686 L130.027136872,486.093758432 L127.409071546,487.525294852 L125.814403086,487.705685389 L123.735365929,487.188806458 L117.631526895,481.330760788 L110.342528605,476.012686256 L109.371589395,474.97465201 L108.975507622,474.209978891 L106.777380391,469.147666513 L105.768924071,465.921379138 L104.983232965,462.254806467 L104.377714891,457.621942986 L104.395788336,451.9733109 L105.213079197,445.937110286 L106.020581949,443.005128907 L110.987991257,429.434313696 L111.083836294,427.331242891 L109.759141464,425.528714078 L107.188606755,424.807761483 L102.8830605,425.608165446 L100.155903175,427.703093358 L98.5983064379,429.394641993 L96.6420507081,430.966343907 L94.1114321632,431.841027705 L88.3002525512,432.265845836 L86.025562259,431.513417684 L84.3428788692,430.474304677 L82.9687173939,430.165457863 L80.9267050435,430.872769246 L72.7962831144,437.11286339 L53.0626614604,446.539906387 L48.3772877419,448.335387116 L24.8065541907,392.056233468 L24.77695115,392.056210724 L24.7769771991,392.022286602 L22.3381404728,387.135392993 L13.9944876615,374.544770231 L10.1748240386,371.150896894 L6.41335380686,369.046594962 L2.31082515614,365.721426841 L0.0,364.60181267 L3.52665683805,356.460330996 L3.64587369434,351.168235241 L5.81013349481,348.081524194 L8.83361462096,348.082246118 L11.5296087339,351.984351821 L13.4868002685,349.508690537 L15.6828062533,344.217598026 L17.2251140128,342.82752007 L20.0415897744,342.761302231 L20.9298931164,344.458048791 L21.6696595594,346.493957254 L24.0107352457,347.513320096 L25.315719604,346.598371727 L34.6044564371,336.802969149 L36.147524945,335.753005472 L44.247185711,332.506265934 L52.6708830813,331.63666014 L55.5790745397,330.55588216 L60.7150410771,327.749276903 L68.786089157,326.102843736 L74.9022495009,323.537935211 L84.2604150081,318.064793456 L85.5929819915,316.663806805 L86.2961966245,316.832082951 Z" fill="#cee3f5" id="LS.MF" stroke="#6e6e6e" stroke-width="0.4"><desc><labelrank>8</labelrank><code_hasc>LS.MF</code_hasc><name>Mafeteng</name><admin>Lesotho</admin><type_en>District</type_en><region /><woe_id>20069869</woe_id><longitude>28</longitude><woe_name>Mafeteng</woe_name><fips>LT13</fips><woe_label>Mafeteng, LS, Lesotho</woe_label><latitude>-29</latitude><iso_a2>LS</iso_a2><postal>MF</postal><type>District</type><id>LS.MF</id></desc></path></svg>