<?xml version='1.0' encoding='utf-8'?>
<svg height="700" width="700" xmlns="http://www.w3.org/2000/svg"><path d="M316.146971202,201.345580933 L315.312810328,205.168818272 L318.301886792,213.927507448 L318.649453823,217.33366435 L320.943396226,220.253227408 L320.943396226,226.996027805 L323.445878848,230.958291956 L325.809334657,232.69612711 L326.365441907,236.102284012 L329.215491559,241.454816286 L329.493545184,246.737835154 L334.359483615,253.341608739 L335.541211519,259.667328699 L335.332671301,261.335650447 L332.413108242,265.923535253 L334.150943396,268.495531281 L331.787487587,274.334657398 L334.08142999,278.922542205 L333.664349553,283.371400199 L334.776564052,287.055610725 L332.204568024,300.402184707 L332.691161867,305.05958292 L327.408142999,305.05958292 L326.156901688,306.86693148 L326.85203575,308.67428004 L330.605759682,311.941410129 L330.188679245,314.721946375 L327.269116187,319.101290963 L328.033763654,321.32571996 L327.408142999,322.646474677 L321.708043694,321.534260179 L319.831181728,322.020854022 L321.708043694,328.346573982 L321.499503476,333.073485601 L317.189672294,339.05163853 L321.847070506,341.901688183 L321.847070506,344.12611718 L317.954319762,350.173783515 L315.868917577,351.842105263 L315.590863952,362.686196624 L304.538232373,368.108242304 L300.297914598,364.424031778 L297.239324727,366.996027805 L294.806355511,366.509433962 L293.277060576,363.450844091 L293.138033764,359.071499503 L297.169811321,352.606752731 L297.586891758,349.687189672 L293.20754717,347.671300894 L292.025819265,343.152929494 L298.142999007,342.457795432 L300.993048659,340.51142006 L303.912611718,340.85898709 L300.854021847,337.661370407 L301.062562066,336.479642502 L295.91857001,335.43694141 L290.566037736,327.234359484 L273.743793446,321.742800397 L271.380337637,317.71102284 L270.893743793,312.775571003 L269.086395233,310.759682224 L264.846077458,308.535253227 L264.776564052,307.144985104 L268.391261172,307.144985104 L272.005958292,304.781529295 L274.021847071,295.397219464 L274.091360477,293.728897716 L273.257199603,293.033763654 L267.904667329,292.130089374 L257.130089374,292.686196624 L255.183714002,298.525322741 L253.793445879,299.776564052 L254.210526316,301.931479643 L253.445878848,303.321747766 L245.45183714,304.50347567 L242.949354518,307.353525323 L229.255213505,313.19265144 L224.528301887,316.459781529 L220.218470705,317.224428997 L215.908639523,313.957298908 L212.293942403,309.508440914 L204.786494538,306.86693148 L203.187686197,308.952333664 L202.284011917,308.813306852 L201.102284012,305.40714995 L197.904667329,304.851042701 L196.375372393,303.460774578 L195.749751738,301.931479643 L196.861966236,297.899702085 L193.038728898,297.552135055 L191.300893744,296.717974181 L189.910625621,295.605759682 L177.815292949,293.103277061 L176.564051639,292.060575968 L167.179741807,291.85203575 L166.276067527,291.504468719 L165.650446872,290.600794439 L165.580933466,289.766633565 L165.719960278,288.932472691 L165.719960278,288.167825223 L165.233366435,287.472691162 L160.854021847,288.306852036 L159.741807349,287.611717974 L158.699106256,286.42999007 L157.795431976,284.900695134 L157.100297915,282.884806356 L156.82224429,280.312810328 L159.880834161,273.500496524 L159.255213505,272.66633565 L158.212512413,272.66633565 L157.308838133,272.944389275 L156.683217478,273.57000993 L156.266137041,274.543197617 L156.127110228,274.612711023 L156.057596822,272.388282026 L156.127110228,270.998013903 L158.073485601,266.062562066 L158.838133069,265.089374379 L159.602780536,264.394240318 L161.966236346,262.517378352 L163.286991063,261.196623635 L164.399205561,259.180734856 L163.078450844,256.191658391 L163.217477656,252.020854022 L163.634558093,250.978152929 L165.233366435,248.475670308 L165.372393247,246.668321748 L160.714995035,242.358490566 L161.132075472,241.38530288 L162.105263158,240.4816286 L162.591857001,239.716981132 L162.522343595,239.299900695 L159.880834161,235.198609732 L157.864945382,232.69612711 L157.586891758,224.910625621 L156.544190665,225.327706058 L154.736842105,226.578947368 L152.859980139,228.108242304 L150.913604767,230.193644489 L150.079443893,230.680238332 L149.106256207,230.819265144 L148.202581927,230.332671301 L146.742800397,224.771598808 L140.417080437,216.360476663 L135.898709037,215.109235353 L135.273088381,214.205561072 L134.856007944,214.136047666 L133.465739821,214.136047666 L131.519364449,213.927507448 L131.241310824,214.136047666 L129.225422046,218.167825223 L123.316782522,222.686196624 L121.231380338,224.632571996 L115.04468719,225.605759682 L112.959285005,225.049652433 L111.847070506,224.006951341 L110.595829196,222.616683217 L108.857994042,218.445878848 L107.676266137,217.403177756 L107.815292949,216.708043694 L108.232373386,216.290963257 L110.87388282,214.344587885 L112.611717974,208.64448858 L115.39225422,206.211519364 L116.156901688,203.013902681 L124.98510427,188.694141013 L127.557100298,187.373386296 L128.321747766,184.801390268 L144.031777557,182.298907646 L147.924528302,183.063555114 L149.314796425,176.946375372 L148.063555114,172.219463754 L149.662363456,170.064548163 L149.106256207,167.631578947 L153.763654419,152.269116187 L160.645481629,142.537239325 L161.410129096,137.671300894 L163.356504469,132.944389275 L167.805362463,141.285998014 L175.45183714,143.301886792 L184.071499503,150.94836147 L190.258192651,152.060575968 L197.69612711,149.419066534 L200.198609732,150.183714002 L202.492552135,152.338629593 L212.432969215,152.477656405 L219.523336643,148.932472691 L222.859980139,143.301886792 L229.672293942,144.553128103 L237.249255214,147.889771599 L240.863952334,145.248262165 L247.467725919,145.87388282 L251.986097319,145.248262165 L254.558093347,142.606752731 L255.809334657,142.398212512 L256.782522344,144.761668322 L255.39225422,147.959285005 L261.300893744,146.638530288 L265.471698113,146.847070506 L266.861966236,151.434955313 L268.738828203,152.338629593 L280.139026812,163.947368421 L280.973187686,169.160873883 L290.566037736,169.091360477 L292.442899702,179.309831182 L288.828202582,187.025819265 L292.859980139,201.971201589 L294.041708044,202.735849057 L297.447864945,202.596822244 L297.656405164,201.345580933 L299.046673287,201.067527309 L304.816285998,201.276067527 L305.094339623,204.821251241 L309.265143992,202.31876862 L316.146971202,201.345580933 Z" fill="#cee3f5" id="ET.AM" stroke="#6e6e6e" stroke-width="0.4"><desc><labelrank>3</labelrank><code_hasc>ET.AM</code_hasc><name>Amhara</name><admin>Ethiopia</admin><type_en>Administrative State</type_en><region /><woe_id>56013541</woe_id><longitude>37</longitude><woe_name>Amhara</woe_name><fips>ET46</fips><woe_label>Amhara, ET, Ethiopia</woe_label><latitude>11</latitude><iso_a2>ET</iso_a2><postal>AM</postal><type>Kilil</type><id>ET.AM</id></desc></path><path d="M325.878848064,101.802383317 L324.210526316,105.834160874 L316.981132075,105.0 L313.783515392,105.625620655 L310.794438928,107.919563059 L311.83714002,108.892750745 L314.617676266,108.61469712 L315.312810328,109.309831182 L311.767626614,115.357497517 L315.034756703,116.330685204 L313.296921549,118.346573982 L313.64448858,119.250248262 L316.146971202,119.319761668 L316.494538232,124.324726912 L317.745779543,126.34061569 L316.772591857,135.446871897 L317.954319762,143.093346574 L316.633565045,143.927507448 L314.895729891,143.093346574 L313.435948361,147.33366435 L314.339622642,151.573982125 L313.435948361,158.038728898 L315.729890765,160.749751738 L317.328699106,165.685203575 L315.382323734,167.979145978 L314.895729891,174.721946375 L319.761668322,177.571996028 L321.221449851,180.978152929 L320.456802383,185.287984111 L316.703078451,192.030784508 L317.467725919,198.634558093 L316.146971202,201.345580933 L309.265143992,202.31876862 L305.094339623,204.821251241 L304.816285998,201.276067527 L299.046673287,201.067527309 L297.656405164,201.345580933 L297.447864945,202.596822244 L294.041708044,202.735849057 L292.859980139,201.971201589 L288.828202582,187.025819265 L292.442899702,179.309831182 L290.566037736,169.091360477 L280.973187686,169.160873883 L280.139026812,163.947368421 L268.738828203,152.338629593 L266.861966236,151.434955313 L265.471698113,146.847070506 L261.300893744,146.638530288 L255.39225422,147.959285005 L256.782522344,144.761668322 L255.809334657,142.398212512 L254.558093347,142.606752731 L251.986097319,145.248262165 L247.467725919,145.87388282 L240.863952334,145.248262165 L237.249255214,147.889771599 L229.672293942,144.553128103 L222.859980139,143.301886792 L219.523336643,148.932472691 L212.432969215,152.477656405 L202.492552135,152.338629593 L200.198609732,150.183714002 L197.69612711,149.419066534 L190.258192651,152.060575968 L184.071499503,150.94836147 L175.45183714,143.301886792 L167.805362463,141.285998014 L163.356504469,132.944389275 L164.260178749,130.928500497 L163.356504469,122.934458788 L167.596822244,110.213505462 L169.404170804,108.892750745 L180.804369414,107.154915591 L186.782522344,108.475670308 L189.424031778,110.42204568 L192.969215492,108.892750745 L194.08142999,104.165839126 L196.027805362,102.149950348 L202.631578947,101.454816286 L207.010923535,106.181727905 L207.28897716,108.823237339 L209.791459782,110.700099305 L210.834160874,113.619662363 L212.71102284,114.523336643 L213.058589871,116.886792453 L214.379344588,117.999006951 L229.950347567,81.9215491559 L235.163853029,89.2204568024 L240.099304866,91.2363455809 L245.243296922,91.3058589871 L249.06653426,98.813306852 L252.750744786,101.38530288 L254.210526316,103.609731877 L260.744786495,103.19265144 L265.263157895,101.246276068 L268.59980139,101.593843098 L274.230387289,100.064548163 L279.374379345,96.6583912612 L280.764647468,92.6961271102 L284.240317776,93.5302879841 L286.117179742,94.9900695134 L289.801390268,102.567030785 L290.913604767,102.567030785 L292.581926514,100.412115194 L297.030784508,100.551142006 L300.714995035,99.5084409136 L302.591857001,98.6047666336 L303.773584906,96.588877855 L309.960278054,99.9255213505 L316.633565045,99.9255213505 L320.943396226,103.123138034 L325.878848064,101.802383317 Z" fill="#cee3f5" id="ET.TI" stroke="#6e6e6e" stroke-width="0.4"><desc><labelrank>3</labelrank><code_hasc>ET.TI</code_hasc><name>Tigray</name><admin>Ethiopia</admin><type_en>Administrative State</type_en><region /><woe_id>2345312</woe_id><longitude>38</longitude><woe_name>Tigray</woe_name><fips>ET06</fips><woe_label>Tigray, ET, Ethiopia</woe_label><latitude>14</latitude><iso_a2>ET</iso_a2><postal>TI</postal><type>Kilil</type><id>ET.TI</id></desc></path><path d="M408.043694141,263.212512413 L404.568023833,264.394240318 L386.146971202,264.394240318 L384.200595829,265.714995035 L382.115193644,271.554121152 L376.623634558,277.949354518 L376.76266137,282.050645482 L370.297914598,307.562065541 L370.714995035,309.856007944 L373.982125124,312.010923535 L364.945382324,320.978152929 L360.84409136,327.373386296 L358.967229394,335.784508441 L356.464746773,337.730883813 L351.181727905,338.7040715 L348.19265144,340.580933466 L338.877855015,352.398212512 L337.765640516,356.290963257 L333.942403178,358.098311817 L332.343594836,361.087388282 L328.589870904,364.006951341 L327.75571003,362.75571003 L328.798411122,357.611717974 L327.964250248,356.708043694 L324.419066534,356.360476663 L322.611717974,350.382323734 L317.954319762,350.173783515 L321.847070506,344.12611718 L321.847070506,341.901688183 L317.189672294,339.05163853 L321.499503476,333.073485601 L321.708043694,328.346573982 L319.831181728,322.020854022 L321.708043694,321.534260179 L327.408142999,322.646474677 L328.033763654,321.32571996 L327.269116187,319.101290963 L330.188679245,314.721946375 L330.605759682,311.941410129 L326.85203575,308.67428004 L326.156901688,306.86693148 L327.408142999,305.05958292 L332.691161867,305.05958292 L332.204568024,300.402184707 L334.776564052,287.055610725 L333.664349553,283.371400199 L334.08142999,278.922542205 L331.787487587,274.334657398 L334.150943396,268.495531281 L332.413108242,265.923535253 L335.332671301,261.335650447 L335.541211519,259.667328699 L334.359483615,253.341608739 L329.493545184,246.737835154 L329.215491559,241.454816286 L326.365441907,236.102284012 L325.809334657,232.69612711 L323.445878848,230.958291956 L320.943396226,226.996027805 L320.943396226,220.253227408 L318.649453823,217.33366435 L318.301886792,213.927507448 L315.312810328,205.168818272 L316.146971202,201.345580933 L317.467725919,198.634558093 L316.703078451,192.030784508 L320.456802383,185.287984111 L321.221449851,180.978152929 L319.761668322,177.571996028 L314.895729891,174.721946375 L315.382323734,167.979145978 L317.328699106,165.685203575 L315.729890765,160.749751738 L313.435948361,158.038728898 L314.339622642,151.573982125 L313.435948361,147.33366435 L314.895729891,143.093346574 L316.633565045,143.927507448 L317.954319762,143.093346574 L316.772591857,135.446871897 L317.745779543,126.34061569 L316.494538232,124.324726912 L316.146971202,119.319761668 L313.64448858,119.250248262 L313.296921549,118.346573982 L315.034756703,116.330685204 L311.767626614,115.357497517 L315.312810328,109.309831182 L314.617676266,108.61469712 L311.83714002,108.892750745 L310.794438928,107.919563059 L313.783515392,105.625620655 L316.981132075,105.0 L324.210526316,105.834160874 L325.878848064,101.802383317 L330.605759682,101.246276068 L336.653426018,102.984111221 L345.134061569,110.143992056 L352.641509434,113.828202582 L361.122144985,115.913604767 L363.902681231,117.859980139 L373.634558093,128.7040715 L380.516385303,140.660377358 L396.087388282,150.878848064 L404.498510427,157.621648461 L407.835153923,161.444885799 L415.412115194,174.860973188 L426.464746773,181.464746773 L435.571002979,193.838133069 L415.4816286,223.937437934 L409.642502483,228.247269116 L408.947368421,229.776564052 L407.000993049,237.562065541 L408.947368421,250.561072493 L408.877855015,259.528301887 L408.043694141,263.212512413 Z" fill="#cee3f5" id="ET.AF" stroke="#6e6e6e" stroke-width="0.4"><desc><labelrank>3</labelrank><code_hasc>ET.AF</code_hasc><name>Afar</name><admin>Ethiopia</admin><type_en>Administrative State</type_en><region /><woe_id>56013537</woe_id><longitude>41</longitude><woe_name>Afar</woe_name><fips>ET26</fips><woe_label /><latitude>12</latitude><iso_a2>ET</iso_a2><postal>AF</postal><type>Kilil</type><id>ET.AF</id></desc></path><path d="M170.099304866,569.905660377 L141.598808342,569.210526316 L136.871896723,566.151936445 L135.968222443,561.007944389 L129.642502483,554.195630586 L128.113207547,549.95531281 L128.321747766,540.153922542 L130.754716981,536.40019861 L129.294935452,531.603773585 L130.685203575,528.267130089 L125.054617676,525.347567031 L121.022840119,525.834160874 L114.975173784,522.914597815 L113.167825223,523.053624628 L109.136047666,526.529294935 L107.120158888,526.320754717 L104.756703078,522.636544191 L105.799404171,520.551142006 L105.312810328,519.091360477 L97.6663356504,513.808341609 L96.7626613704,510.193644489 L92.3833167825,503.589870904 L92.1747765641,500.183714002 L91.0625620655,498.306852036 L91.7576961271,496.290963257 L91.271102284,493.232373386 L85.9880834161,484.404170804 L85.4319761668,479.538232373 L83.2075471698,475.367428004 L80.9136047666,466.191658391 L79.5233366435,463.967229394 L75.5610724926,461.464746773 L71.7378351539,461.186693148 L70.2780536246,454.235352532 L67.2889771599,452.149950348 L60.6156901688,450.4816286 L56.3753723932,446.380337637 L55.9582919563,444.364448858 L57.0009930487,443.947368421 L62.005958292,446.86693148 L69.0268123138,445.337636544 L74.7964250248,448.326713009 L77.7159880834,448.604766634 L80.3574975174,447.909632572 L85.1539225422,444.572989076 L91.0625620655,444.433962264 L96.6236345581,441.653426018 L100.93346574,443.947368421 L105.173783515,442.835153923 L108.997020854,443.252234359 L108.718967229,439.915590864 L110.804369414,430.461767627 L109.692154916,428.793445879 L106.494538232,427.055610725 L106.077457795,424.136047666 L105.173783515,417.7408143 L109.761668322,412.944389275 L110.526315789,410.024826216 L114.349553128,408.356504469 L118.798411122,408.217477656 L120.049652433,410.998013903 L122.27408143,411.484607746 L128.530287984,408.912611718 L131.380337637,405.854021847 L127.974180735,402.378351539 L127.974180735,401.544190665 L129.781529295,399.180734856 L132.909632572,398.972194638 L134.57795432,399.667328699 L136.176762661,404.811320755 L133.952333664,410.372393247 L140.486593843,414.890764647 L142.641509434,418.853028798 L142.641509434,422.954319762 L147.090367428,424.06653426 L152.651439921,427.542204568 L158.351539225,429.766633565 L168.987090367,432.338629593 L178.997020854,438.594836147 L183.23733863,439.428997021 L193.525322741,438.664349553 L197.974180735,435.605759682 L204.716981132,432.75571003 L205.4816286,431.087388282 L207.497517378,422.815292949 L206.037735849,416.83714002 L206.176762661,411.206554121 L207.567030785,407.869910626 L205.551142006,403.421052632 L209.930486594,402.447864945 L212.71102284,405.367428004 L215.908639523,404.950347567 L214.796425025,400.501489573 L215.352532274,392.576961271 L210.764647468,391.117179742 L209.026812314,388.753723932 L211.390268123,383.748758689 L213.406156902,383.262164846 L215.491559086,386.320754717 L226.057596822,387.571996028 L244.965243297,384.026812314 L247.606752731,385.764647468 L248.927507448,390.769612711 L250.595829196,391.047666336 L253.932472691,389.309831182 L255.04468719,385.139026812 L257.269116187,382.497517378 L260.188679245,382.149950348 L264.428997021,385.139026812 L264.637537239,390.283018868 L266.375372393,391.673286991 L265.680238332,398.068520357 L265.263157895,399.041708044 L263.525322741,397.025819265 L261.926514399,391.603773585 L259.145978153,392.437934459 L260.883813307,395.49652433 L262.552135055,402.447864945 L261.37040715,405.714995035 L255.114200596,414.265143992 L253.58490566,417.810327706 L253.723932473,425.456802383 L249.692154916,427.889771599 L245.799404171,435.675273088 L238.083416087,440.749751738 L236.901688183,445.615690169 L237.944389275,447.284011917 L240.863952334,448.396226415 L245.104270109,447.423038729 L249.136047666,442.557100298 L258.033763654,446.102284012 L260.744786495,445.268123138 L262.204568024,446.449851043 L264.707050645,451.315789474 L263.386295929,458.406156902 L263.872889772,460.561072493 L273.187686197,465.287984111 L277.428003972,465.913604767 L284.657398213,472.378351539 L286.32571996,479.538232373 L284.726911619,485.516385303 L286.603773585,489.270109235 L280.0,489.687189672 L277.775571003,487.7408143 L273.882820258,480.789473684 L270.337636544,479.190665343 L269.364448858,477.591857001 L266.375372393,477.730883813 L260.675273088,476.34061569 L256.434955313,476.618669315 L253.793445879,479.121151936 L254.001986097,486.767626614 L251.569016882,488.714001986 L247.328699106,496.221449851 L251.916583913,500.600794439 L248.510427011,502.825223436 L244.54816286,503.103277061 L237.874875869,491.842105263 L237.735849057,489.617676266 L238.083416087,488.574975174 L241.83714002,488.853028798 L242.601787488,487.810327706 L241.83714002,484.960278054 L242.671300894,482.179741807 L246.285998014,480.372393247 L247.467725919,478.7040715 L247.328699106,476.757696127 L244.826216485,475.019860973 L241.420059583,475.43694141 L234.60774578,469.945382324 L230.367428004,470.223435948 L228.212512413,469.180734856 L224.389275074,474.950347567 L224.458788481,476.896722939 L226.961271102,480.51142006 L225.91857001,485.377358491 L223.277060576,489.895729891 L223.624627607,495.665342602 L232.24428997,499.48857994 L234.746772592,506.578947368 L237.527308838,508.247269116 L237.805362463,509.359483615 L236.971201589,511.236345581 L230.923535253,513.738828203 L231.34061569,520.203574975 L229.046673287,526.668321748 L228.838133069,531.812313803 L227.030784508,532.507447865 L224.389275074,530.630585899 L218.828202582,528.823237339 L215.839126117,531.117179742 L205.551142006,535.705064548 L203.11817279,535.84409136 L197.418073486,533.828202582 L192.204568024,534.523336643 L187.547169811,533.967229394 L185.322740814,534.662363456 L182.959285005,538.346573982 L180.734856008,545.297914598 L182.33366435,550.998013903 L182.055610725,553.709036743 L175.173783515,563.857994042 L173.435948361,567.959285005 L170.099304866,569.905660377 Z" fill="#cee3f5" id="ET.SN" stroke="#6e6e6e" stroke-width="0.4"><desc><labelrank>3</labelrank><code_hasc>ET.SN</code_hasc><name>Southern Nations, Nationalities and Peoples</name><admin>Ethiopia</admin><type_en>Administrative State</type_en><region /><woe_id>56013536</woe_id><longitude>36</longitude><woe_name>Southern Nations, Nationalities and Peoples</woe_name><fips>ET54</fips><woe_label>Southern Nations Nationalities and People's Region, ET, Ethiopia</woe_label><latitude>6</latitude><iso_a2>ET</iso_a2><postal>SN</postal><type>Kilil</type><id>ET.SN</id></desc></path><path d="M106.077457795,424.136047666 L106.494538232,427.055610725 L109.692154916,428.793445879 L110.804369414,430.461767627 L108.718967229,439.915590864 L108.997020854,443.252234359 L105.173783515,442.835153923 L100.93346574,443.947368421 L96.6236345581,441.653426018 L91.0625620655,444.433962264 L85.1539225422,444.572989076 L80.3574975174,447.909632572 L77.7159880834,448.604766634 L74.7964250248,448.326713009 L69.0268123138,445.337636544 L62.005958292,446.86693148 L57.0009930487,443.947368421 L55.9582919563,444.364448858 L55.3326713009,441.097318769 L53.0387288977,441.305858987 L48.4508440914,437.135054618 L48.311817279,432.547169811 L47.2691161867,429.627606753 L41.4995034757,423.649453823 L35.868917577,420.729890765 L33.7835153923,417.879841112 L30.0993048659,416.281032771 L26.0675273088,416.211519364 L21.9662363456,413.430983118 L16.5441906653,414.751737835 L13.9721946375,414.056603774 L11.3306852036,411.693147964 L8.0635551142,410.789473684 L6.04766633565,411.623634558 L3.12810327706,410.85898709 L0.0,405.228401192 L6.04766633565,396.539225422 L9.24528301887,394.870903674 L8.61966236346,391.812313803 L10.4270109235,389.587884806 L8.41112214499,387.71102284 L8.34160873883,384.513406157 L8.89771598808,382.497517378 L11.8172790467,380.134061569 L17.72591857,381.246276068 L23.2869910626,380.203574975 L23.495531281,379.438927507 L26.6236345581,380.759682224 L29.8212512413,380.134061569 L33.2969215492,384.304865938 L35.868917577,384.582919563 L39.2750744786,382.219463754 L46.1569016882,381.107249255 L51.7874875869,375.9632572 L52.6216484608,373.877855015 L55.1241310824,375.754716981 L59.0863952334,373.669314796 L61.6583912612,374.433962264 L70.3475670308,381.871896723 L75.0049652433,384.235352532 L78.8977159881,388.823237339 L83.9026812314,390.769612711 L85.5710029791,393.411122145 L88.2820258193,393.967229394 L94.3296921549,393.411122145 L98.2224428997,394.801390268 L88.9771598808,399.736842105 L91.8967229394,401.544190665 L88.62959285,406.271102284 L87.8649453823,410.372393247 L88.8381330685,412.388282026 L93.495531281,416.698113208 L94.6077457795,420.868917577 L100.655412115,423.718967229 L98.5700099305,426.708043694 L102.949354518,427.68123138 L105.521350546,426.012909633 L106.077457795,424.136047666 Z" fill="#cee3f5" id="ET.GA" stroke="#6e6e6e" stroke-width="0.4"><desc><labelrank>3</labelrank><code_hasc>ET.GA</code_hasc><name>Gambela Peoples</name><admin>Ethiopia</admin><type_en>Administrative State</type_en><region /><woe_id>56013539</woe_id><longitude>34</longitude><woe_name>Gambela Peoples</woe_name><fips>ET49</fips><woe_label>Gambela, ET, Ethiopia</woe_label><latitude>7</latitude><iso_a2>ET</iso_a2><postal>GA</postal><type>Kilil</type><id>ET.GA</id></desc></path><path d="M317.954319762,350.173783515 L322.611717974,350.382323734 L324.419066534,356.360476663 L327.964250248,356.708043694 L328.798411122,357.611717974 L327.75571003,362.75571003 L328.589870904,364.006951341 L332.343594836,361.087388282 L333.942403178,358.098311817 L337.765640516,356.290963257 L338.877855015,352.398212512 L348.19265144,340.580933466 L351.181727905,338.7040715 L356.464746773,337.730883813 L358.967229394,335.784508441 L366.891757696,335.158887786 L369.116186693,336.410129096 L368.977159881,337.939424032 L363.694141013,338.078450844 L364.250248262,341.137040715 L365.988083416,342.110228401 L373.634558093,339.677259186 L385.590863952,332.72591857 L395.94836147,334.811320755 L399.354518371,332.447864945 L401.648460775,332.100297915 L404.915590864,334.255213505 L407.279046673,334.046673287 L408.738828203,333.421052632 L415.898709037,333.838133069 L419.026812314,332.517378352 L423.058589871,333.907646475 L426.32571996,330.710029791 L425.630585899,327.234359484 L431.956305859,324.94041708 L435.223435948,322.298907646 L437.100297915,322.855014896 L437.447864945,329.389275074 L440.575968222,331.405163853 L445.163853029,339.468718967 L449.612711023,352.120158888 L452.532274081,356.638530288 L459.622641509,363.242303873 L460.039721946,365.119165839 L458.579940417,369.498510427 L459.136047666,371.583912612 L462.055610725,374.920556107 L462.403177756,378.604766634 L461.708043694,383.262164846 L455.799404171,385.486593843 L454.617676266,387.293942403 L452.810327706,394.106256207 L451.142005958,396.052631579 L449.543197617,395.774577954 L447.040714995,391.88182721 L444.746772592,381.663356504 L443.356504469,379.647467726 L435.084409136,377.562065541 L432.581926514,373.669314796 L429.453823237,374.572989076 L421.390268123,382.636544191 L421.320754717,387.71102284 L418.19265144,392.646474677 L416.802383317,397.512413108 L416.246276068,408.843098312 L417.984111221,414.543197617 L414.369414101,425.804369414 L415.620655412,430.39225422 L429.94041708,435.883813307 L430.913604767,439.150943396 L428.897715988,447.492552135 L426.812313803,451.871896723 L424.726911619,453.401191658 L423.61469712,458.336643496 L424.101290963,459.170804369 L421.598808342,465.427010924 L419.791459782,468.555114201 L417.28897716,470.640516385 L414.021847071,471.335650447 L413.257199603,469.806355511 L409.433962264,471.196623635 L406.583912612,475.714995035 L402.899702085,479.468718967 L393.167825223,470.501489573 L389.692154916,469.806355511 L379.404170804,464.245283019 L377.179741807,464.384309831 L375.024826216,465.983118173 L369.255213505,472.72591857 L367.169811321,477.035749752 L368.351539225,485.516385303 L367.517378352,491.494538232 L368.282025819,505.46673287 L370.297914598,510.680238332 L360.079443893,517.005958292 L351.876861966,524.026812314 L335.88877855,526.876861966 L329.493545184,524.791459782 L327.825223436,525.556107249 L323.376365442,531.951340616 L318.718967229,542.795431976 L316.425024826,550.441906653 L315.104270109,559.478649454 L307.735849057,576.509433962 L305.719960278,579.220456802 L303.008937438,588.257199603 L303.7040715,591.176762661 L302.383316783,594.026812314 L294.458788481,606.886792453 L284.796425025,611.891757696 L284.587884806,612.72591857 L275.412115194,612.934458788 L267.279046673,610.710029791 L264.428997021,607.859980139 L264.359483615,609.11122145 L259.076464747,608.416087388 L257.269116187,606.539225422 L256.713008937,607.790466733 L254.349553128,608.833167825 L238.152929494,608.277060576 L235.094339623,606.608738828 L232.313803376,602.924528302 L191.022840119,576.787487587 L190.119165839,574.632571996 L188.798411122,574.56305859 L187.269116187,572.75571003 L179.275074479,569.905660377 L170.099304866,569.905660377 L173.435948361,567.959285005 L175.173783515,563.857994042 L182.055610725,553.709036743 L182.33366435,550.998013903 L180.734856008,545.297914598 L182.959285005,538.346573982 L185.322740814,534.662363456 L187.547169811,533.967229394 L192.204568024,534.523336643 L197.418073486,533.828202582 L203.11817279,535.84409136 L205.551142006,535.705064548 L215.839126117,531.117179742 L218.828202582,528.823237339 L224.389275074,530.630585899 L227.030784508,532.507447865 L228.838133069,531.812313803 L229.046673287,526.668321748 L231.34061569,520.203574975 L230.923535253,513.738828203 L236.971201589,511.236345581 L237.805362463,509.359483615 L237.527308838,508.247269116 L234.746772592,506.578947368 L232.24428997,499.48857994 L223.624627607,495.665342602 L223.277060576,489.895729891 L225.91857001,485.377358491 L226.961271102,480.51142006 L224.458788481,476.896722939 L224.389275074,474.950347567 L228.212512413,469.180734856 L230.367428004,470.223435948 L234.60774578,469.945382324 L241.420059583,475.43694141 L244.826216485,475.019860973 L247.328699106,476.757696127 L247.467725919,478.7040715 L246.285998014,480.372393247 L242.671300894,482.179741807 L241.83714002,484.960278054 L242.601787488,487.810327706 L241.83714002,488.853028798 L238.083416087,488.574975174 L237.735849057,489.617676266 L237.874875869,491.842105263 L244.54816286,503.103277061 L248.510427011,502.825223436 L251.916583913,500.600794439 L247.328699106,496.221449851 L251.569016882,488.714001986 L254.001986097,486.767626614 L253.793445879,479.121151936 L256.434955313,476.618669315 L260.675273088,476.34061569 L266.375372393,477.730883813 L269.364448858,477.591857001 L270.337636544,479.190665343 L273.882820258,480.789473684 L277.775571003,487.7408143 L280.0,489.687189672 L286.603773585,489.270109235 L284.726911619,485.516385303 L286.32571996,479.538232373 L284.657398213,472.378351539 L277.428003972,465.913604767 L273.187686197,465.287984111 L263.872889772,460.561072493 L263.386295929,458.406156902 L264.707050645,451.315789474 L262.204568024,446.449851043 L260.744786495,445.268123138 L258.033763654,446.102284012 L249.136047666,442.557100298 L245.104270109,447.423038729 L240.863952334,448.396226415 L237.944389275,447.284011917 L236.901688183,445.615690169 L238.083416087,440.749751738 L245.799404171,435.675273088 L249.692154916,427.889771599 L253.723932473,425.456802383 L253.58490566,417.810327706 L255.114200596,414.265143992 L261.37040715,405.714995035 L262.552135055,402.447864945 L260.883813307,395.49652433 L259.145978153,392.437934459 L261.926514399,391.603773585 L263.525322741,397.025819265 L265.263157895,399.041708044 L265.680238332,398.068520357 L266.375372393,391.673286991 L264.637537239,390.283018868 L264.428997021,385.139026812 L260.188679245,382.149950348 L257.269116187,382.497517378 L255.04468719,385.139026812 L253.932472691,389.309831182 L250.595829196,391.047666336 L248.927507448,390.769612711 L247.606752731,385.764647468 L244.965243297,384.026812314 L226.057596822,387.571996028 L215.491559086,386.320754717 L213.406156902,383.262164846 L211.390268123,383.748758689 L209.026812314,388.753723932 L210.764647468,391.117179742 L215.352532274,392.576961271 L214.796425025,400.501489573 L215.908639523,404.950347567 L212.71102284,405.367428004 L209.930486594,402.447864945 L205.551142006,403.421052632 L207.567030785,407.869910626 L206.176762661,411.206554121 L206.037735849,416.83714002 L207.497517378,422.815292949 L205.4816286,431.087388282 L204.716981132,432.75571003 L197.974180735,435.605759682 L193.525322741,438.664349553 L183.23733863,439.428997021 L178.997020854,438.594836147 L168.987090367,432.338629593 L158.351539225,429.766633565 L152.651439921,427.542204568 L147.090367428,424.06653426 L142.641509434,422.954319762 L142.641509434,418.853028798 L140.486593843,414.890764647 L133.952333664,410.372393247 L136.176762661,404.811320755 L134.57795432,399.667328699 L132.909632572,398.972194638 L129.781529295,399.180734856 L127.974180735,401.544190665 L127.974180735,402.378351539 L131.380337637,405.854021847 L128.530287984,408.912611718 L122.27408143,411.484607746 L120.049652433,410.998013903 L118.798411122,408.217477656 L114.349553128,408.356504469 L110.526315789,410.024826216 L109.761668322,412.944389275 L105.173783515,417.7408143 L106.077457795,424.136047666 L105.521350546,426.012909633 L102.949354518,427.68123138 L98.5700099305,426.708043694 L100.655412115,423.718967229 L94.6077457795,420.868917577 L93.495531281,416.698113208 L88.8381330685,412.388282026 L87.8649453823,410.372393247 L88.62959285,406.271102284 L91.8967229394,401.544190665 L88.9771598808,399.736842105 L98.2224428997,394.801390268 L94.3296921549,393.411122145 L88.2820258193,393.967229394 L85.5710029791,393.411122145 L83.9026812314,390.769612711 L78.8977159881,388.823237339 L75.0049652433,384.235352532 L70.3475670308,381.871896723 L61.6583912612,374.433962264 L59.0863952334,373.669314796 L55.1241310824,375.754716981 L52.6216484608,373.877855015 L51.857000993,345.585898709 L62.7706057597,346.489572989 L64.9255213505,345.794438928 L65.6206554121,344.960278054 L66.1072492552,344.12611718 L66.5243296922,343.291956306 L66.9414101291,342.179741807 L68.8182720953,334.116186693 L69.8609731877,325.427010924 L74.6573982125,324.662363456 L79.0367428004,327.999006951 L80.4965243297,327.859980139 L85.7795431976,322.298907646 L87.5868917577,318.962264151 L90.4369414101,310.551142006 L90.0198609732,309.786494538 L89.3942403178,309.091360477 L88.9076464747,307.979145978 L89.1857000993,307.631578947 L95.0943396226,308.11817279 L95.8589870904,308.326713009 L96.137040715,308.882820258 L95.9980139027,310.064548163 L96.0675273088,311.176762661 L96.6236345581,311.941410129 L102.949354518,311.593843098 L107.884806356,312.636544191 L118.867924528,323.411122145 L127.418073486,333.490566038 L129.920556107,333.212512413 L130.615690169,334.116186693 L131.519364449,336.132075472 L131.588877855,336.688182721 L131.519364449,339.260178749 L132.005958292,339.885799404 L137.706057597,340.441906653 L140.069513406,344.890764647 L142.502482622,345.446871897 L143.267130089,346.281032771 L143.892750745,349.270109235 L144.935451837,349.687189672 L151.747765641,340.928500497 L153.694141013,333.768619662 L153.416087388,331.196623635 L152.025819265,329.806355511 L151.261171797,329.319761668 L146.742800397,324.384309831 L146.812313803,324.106256207 L147.715988083,323.411122145 L148.13306852,322.646474677 L148.063555114,321.742800397 L147.298907646,319.657398213 L147.646474677,315.208540218 L147.298907646,307.005958292 L147.855014896,307.005958292 L148.68917577,307.631578947 L150.49652433,307.21449851 L156.474677259,303.321747766 L158.003972195,301.583912612 L160.575968222,297.621648461 L161.271102284,296.717974181 L162.939424032,294.980139027 L164.746772592,293.867924528 L167.944389275,293.798411122 L166.206554121,298.872889772 L168.778550149,299.98510427 L169.751737835,299.846077458 L170.794438928,297.691161867 L171.420059583,297.204568024 L175.521350546,295.258192651 L181.847070506,298.316782522 L186.643495531,299.846077458 L187.477656405,299.915590864 L188.033763654,299.637537239 L188.520357498,299.011916584 L189.006951341,298.108242304 L189.354518371,297.204568024 L189.910625621,295.605759682 L191.300893744,296.717974181 L193.038728898,297.552135055 L196.861966236,297.899702085 L195.749751738,301.931479643 L196.375372393,303.460774578 L197.904667329,304.851042701 L201.102284012,305.40714995 L202.284011917,308.813306852 L203.187686197,308.952333664 L204.786494538,306.86693148 L212.293942403,309.508440914 L215.908639523,313.957298908 L220.218470705,317.224428997 L224.528301887,316.459781529 L229.255213505,313.19265144 L242.949354518,307.353525323 L245.45183714,304.50347567 L253.445878848,303.321747766 L254.210526316,301.931479643 L253.793445879,299.776564052 L255.183714002,298.525322741 L257.130089374,292.686196624 L267.904667329,292.130089374 L273.257199603,293.033763654 L274.091360477,293.728897716 L274.021847071,295.397219464 L272.005958292,304.781529295 L268.391261172,307.144985104 L264.776564052,307.144985104 L264.846077458,308.535253227 L269.086395233,310.759682224 L270.893743793,312.775571003 L271.380337637,317.71102284 L273.743793446,321.742800397 L290.566037736,327.234359484 L295.91857001,335.43694141 L301.062562066,336.479642502 L300.854021847,337.661370407 L303.912611718,340.85898709 L300.993048659,340.51142006 L298.142999007,342.457795432 L292.025819265,343.152929494 L293.20754717,347.671300894 L297.586891758,349.687189672 L297.169811321,352.606752731 L293.138033764,359.071499503 L293.277060576,363.450844091 L294.806355511,366.509433962 L297.239324727,366.996027805 L300.297914598,364.424031778 L304.538232373,368.108242304 L315.590863952,362.686196624 L315.868917577,351.842105263 L317.954319762,350.173783515 Z" fill="#cee3f5" id="ET.AA" stroke="#6e6e6e" stroke-width="0.4"><desc><labelrank>3</labelrank><code_hasc>ET.AA</code_hasc><name>Oromiya</name><admin>Ethiopia</admin><type_en>Administrative State</type_en><region /><woe_id>56013545</woe_id><longitude>40</longitude><woe_name>Addis Ababa</woe_name><fips>ET44</fips><woe_label>Oromia, ET, Ethiopia</woe_label><latitude>7</latitude><iso_a2>ET</iso_a2><postal>AA</postal><type>Kilil</type><id>ET.AA</id></desc></path><path d="M154.667328699,359.280039722 L153.833167825,359.419066534 L153.416087388,359.210526316 L153.068520357,358.932472691 L152.373386296,358.58490566 L152.095332671,358.23733863 L152.025819265,357.959285005 L152.095332671,357.750744786 L152.373386296,357.472691162 L154.458788481,356.360476663 L155.01489573,356.708043694 L156.544190665,358.098311817 L156.196623635,358.515392254 L155.779543198,358.862959285 L154.667328699,359.280039722 M145.908639523,355.039721946 L146.742800397,355.178748759 L147.22939424,354.97020854 L149.245283019,355.456802383 L148.967229394,356.638530288 L149.870903674,357.750744786 L151.608738828,357.820258193 L150.913604767,361.504468719 L152.164846077,363.381330685 L152.095332671,364.076464747 L151.469712016,364.354518371 L152.025819265,365.188679245 L152.234359484,365.675273088 L152.30387289,366.161866931 L151.469712016,366.092353525 L150.705064548,365.675273088 L150.427010924,364.076464747 L148.411122145,361.921549156 L146.534260179,363.520357498 L142.71102284,363.311817279 L141.459781529,362.477656405 L141.390268123,359.349553128 L142.780536246,357.33366435 L142.850049652,356.638530288 L142.850049652,355.804369414 L142.919563059,355.039721946 L143.267130089,354.553128103 L143.962264151,354.483614697 L145.908639523,355.039721946 M161.688182721,337.24428997 L162.661370407,339.468718967 L161.132075472,339.121151936 L160.575968222,339.399205561 L160.367428004,340.372393247 L160.228401192,340.441906653 L160.158887786,340.441906653 L159.672293942,339.538232373 L158.560079444,335.784508441 L159.324726912,333.351539225 L159.950347567,332.656405164 L160.854021847,332.030784508 L161.688182721,331.891757696 L162.522343595,332.100297915 L164.05163853,333.212512413 L164.260178749,333.62959285 L164.260178749,334.185700099 L163.912611718,334.53326713 L162.035749752,335.297914598 L161.549155909,336.201588878 L161.688182721,337.24428997 M131.519364449,213.927507448 L133.465739821,214.136047666 L134.856007944,214.136047666 L135.273088381,214.205561072 L135.898709037,215.109235353 L140.417080437,216.360476663 L146.742800397,224.771598808 L148.202581927,230.332671301 L149.106256207,230.819265144 L150.079443893,230.680238332 L150.913604767,230.193644489 L152.859980139,228.108242304 L154.736842105,226.578947368 L156.544190665,225.327706058 L157.586891758,224.910625621 L157.934458788,225.46673287 L157.864945382,232.69612711 L159.880834161,235.198609732 L162.522343595,239.299900695 L162.591857001,239.716981132 L162.105263158,240.4816286 L161.132075472,241.38530288 L160.714995035,242.358490566 L165.372393247,246.668321748 L165.233366435,248.475670308 L163.634558093,250.978152929 L163.217477656,252.020854022 L163.634558093,254.801390268 L163.078450844,256.191658391 L164.399205561,259.180734856 L163.286991063,261.196623635 L161.966236346,262.517378352 L159.602780536,264.394240318 L158.838133069,265.089374379 L158.073485601,266.062562066 L156.127110228,270.998013903 L156.057596822,272.388282026 L156.127110228,274.612711023 L156.266137041,274.543197617 L156.683217478,273.57000993 L157.308838133,272.944389275 L158.212512413,272.66633565 L159.255213505,272.66633565 L159.880834161,273.500496524 L156.82224429,280.312810328 L157.100297915,282.884806356 L157.795431976,284.900695134 L158.699106256,286.42999007 L159.741807349,287.611717974 L160.854021847,288.306852036 L165.233366435,287.472691162 L165.719960278,288.167825223 L165.719960278,288.932472691 L165.580933466,289.766633565 L165.650446872,290.600794439 L166.276067527,291.504468719 L167.179741807,291.85203575 L176.564051639,292.060575968 L177.815292949,293.103277061 L189.910625621,295.605759682 L189.354518371,297.204568024 L189.006951341,298.108242304 L188.520357498,299.011916584 L188.033763654,299.637537239 L187.477656405,299.915590864 L186.643495531,299.846077458 L181.847070506,298.316782522 L175.521350546,295.258192651 L171.420059583,297.204568024 L170.794438928,297.691161867 L169.751737835,299.846077458 L168.778550149,299.98510427 L166.206554121,298.872889772 L167.944389275,293.798411122 L164.746772592,293.867924528 L162.939424032,294.980139027 L161.271102284,296.717974181 L160.575968222,297.621648461 L158.003972195,301.583912612 L156.474677259,303.321747766 L150.49652433,307.21449851 L148.68917577,307.631578947 L147.855014896,307.005958292 L147.298907646,307.005958292 L147.646474677,315.208540218 L147.298907646,319.657398213 L148.063555114,321.742800397 L148.13306852,322.646474677 L147.715988083,323.411122145 L146.812313803,324.106256207 L146.742800397,324.384309831 L151.261171797,329.319761668 L152.025819265,329.806355511 L153.416087388,331.196623635 L153.694141013,333.768619662 L151.747765641,340.928500497 L144.935451837,349.687189672 L143.892750745,349.270109235 L143.267130089,346.281032771 L142.502482622,345.446871897 L140.069513406,344.890764647 L137.706057597,340.441906653 L132.005958292,339.885799404 L131.519364449,339.260178749 L131.588877855,336.688182721 L131.519364449,336.132075472 L130.615690169,334.116186693 L129.920556107,333.212512413 L127.418073486,333.490566038 L118.867924528,323.411122145 L107.884806356,312.636544191 L102.949354518,311.593843098 L96.6236345581,311.941410129 L96.0675273088,311.176762661 L95.9980139027,310.064548163 L96.137040715,308.882820258 L95.8589870904,308.326713009 L95.0943396226,308.11817279 L89.1857000993,307.631578947 L88.9076464747,307.979145978 L89.3942403178,309.091360477 L90.0198609732,309.786494538 L90.4369414101,310.551142006 L87.5868917577,318.962264151 L85.7795431976,322.298907646 L80.4965243297,327.859980139 L79.0367428004,327.999006951 L74.6573982125,324.662363456 L69.8609731877,325.427010924 L68.8182720953,334.116186693 L66.9414101291,342.179741807 L66.5243296922,343.291956306 L66.1072492552,344.12611718 L65.6206554121,344.960278054 L64.9255213505,345.794438928 L62.7706057597,346.489572989 L51.857000993,345.585898709 L51.37040715,330.292949355 L52.8997020854,323.341608739 L58.8778550149,307.144985104 L62.7010923535,303.113207547 L63.813306852,297.969215492 L61.7279046673,285.526315789 L61.9364448858,281.911618669 L68.6097318769,271.971201589 L75.0049652433,267.522343595 L76.3952333664,267.452830189 L83.9026812314,273.917576961 L84.4587884806,276.906653426 L86.0575968222,274.612711023 L87.9344587885,274.612711023 L89.046673287,271.901688183 L93.2174776564,268.14796425 L93.3565044687,265.854021847 L91.5491559086,264.185700099 L94.9553128103,253.341608739 L93.5650446872,251.464746773 L93.2869910626,249.170804369 L99.3346573982,236.380337637 L97.9443892751,227.065541212 L100.168818272,222.894736842 L106.077457795,220.253227408 L107.537239325,218.654419067 L107.606752731,218.23733863 L107.676266137,217.403177756 L108.857994042,218.445878848 L110.595829196,222.616683217 L111.847070506,224.006951341 L112.959285005,225.049652433 L115.04468719,225.605759682 L121.231380338,224.632571996 L123.316782522,222.686196624 L129.225422046,218.167825223 L129.920556107,217.194637537 L131.241310824,214.136047666 L131.519364449,213.927507448 Z" fill="#cee3f5" id="ET.BE" stroke="#6e6e6e" stroke-width="0.4"><desc><labelrank>3</labelrank><code_hasc>ET.BE</code_hasc><name>Benshangul-Gumaz</name><admin>Ethiopia</admin><type_en>Administrative State</type_en><region /><woe_id>56013538</woe_id><longitude>35</longitude><woe_name>Benshangul-Gumaz</woe_name><fips>ET47</fips><woe_label /><latitude>10</latitude><iso_a2>ET</iso_a2><postal>BE</postal><type>Kilil</type><id>ET.BE</id></desc></path><path d="M270.685203575,353.232373386 L271.86693148,352.189672294 L272.423038729,353.023833168 L274.57795432,353.093346574 L275.968222443,356.499503476 L275.690168818,359.627606753 L273.743793446,359.280039722 L274.508440914,362.547169811 L272.631578947,362.894736842 L271.797418073,364.493545184 L266.097318769,360.739821251 L264.289970209,356.847070506 L266.861966236,352.884806356 L269.920556107,352.2591857 L270.685203575,353.232373386 Z" fill="#cee3f5" id="ET.2837" stroke="#6e6e6e" stroke-width="0.4"><desc><labelrank>9</labelrank><code_hasc>ET.AA</code_hasc><name>Addis Ababa</name><admin>Ethiopia</admin><type_en>Administrative State</type_en><region /><woe_id>56013543</woe_id><longitude>38</longitude><woe_name>Addis Ababa</woe_name><fips>ET44</fips><woe_label>Addis Ababa, ET, Ethiopia</woe_label><latitude>8</latitude><iso_a2>ET</iso_a2><postal>AA</postal><type>Kilil</type><id>ET.2837</id></desc></path><path d="M284.587884806,612.72591857 L284.796425025,611.891757696 L294.458788481,606.886792453 L302.383316783,594.026812314 L303.7040715,591.176762661 L303.008937438,588.257199603 L305.719960278,579.220456802 L307.735849057,576.509433962 L315.104270109,559.478649454 L316.425024826,550.441906653 L318.718967229,542.795431976 L323.376365442,531.951340616 L327.825223436,525.556107249 L329.493545184,524.791459782 L335.88877855,526.876861966 L351.876861966,524.026812314 L360.079443893,517.005958292 L370.297914598,510.680238332 L368.282025819,505.46673287 L367.517378352,491.494538232 L368.351539225,485.516385303 L367.169811321,477.035749752 L369.255213505,472.72591857 L375.024826216,465.983118173 L377.179741807,464.384309831 L379.404170804,464.245283019 L389.692154916,469.806355511 L393.167825223,470.501489573 L402.899702085,479.468718967 L406.583912612,475.714995035 L409.433962264,471.196623635 L413.257199603,469.806355511 L414.021847071,471.335650447 L417.28897716,470.640516385 L419.791459782,468.555114201 L421.598808342,465.427010924 L424.101290963,459.170804369 L423.61469712,458.336643496 L424.726911619,453.401191658 L426.812313803,451.871896723 L428.897715988,447.492552135 L430.913604767,439.150943396 L429.94041708,435.883813307 L415.620655412,430.39225422 L414.369414101,425.804369414 L417.984111221,414.543197617 L416.246276068,408.843098312 L416.802383317,397.512413108 L418.19265144,392.646474677 L421.320754717,387.71102284 L421.390268123,382.636544191 L429.453823237,374.572989076 L432.581926514,373.669314796 L435.084409136,377.562065541 L443.356504469,379.647467726 L444.746772592,381.663356504 L447.040714995,391.88182721 L449.543197617,395.774577954 L451.142005958,396.052631579 L452.810327706,394.106256207 L454.617676266,387.293942403 L455.799404171,385.486593843 L461.708043694,383.262164846 L462.403177756,378.604766634 L462.055610725,374.920556107 L459.136047666,371.583912612 L458.579940417,369.498510427 L460.039721946,365.119165839 L459.622641509,363.242303873 L452.532274081,356.638530288 L449.612711023,352.120158888 L445.163853029,339.468718967 L440.575968222,331.405163853 L437.447864945,329.389275074 L437.100297915,322.855014896 L435.223435948,322.298907646 L433.416087388,320.352532274 L431.191658391,319.5183714 L428.828202582,319.865938431 L421.320754717,326.678252234 L414.438927507,324.175769613 L408.460774578,326.261171797 L407.418073486,328.902681231 L407.279046673,334.046673287 L404.915590864,334.255213505 L401.648460775,332.100297915 L399.354518371,332.447864945 L395.94836147,334.811320755 L385.590863952,332.72591857 L373.634558093,339.677259186 L365.988083416,342.110228401 L364.250248262,341.137040715 L363.694141013,338.078450844 L368.977159881,337.939424032 L369.116186693,336.410129096 L366.891757696,335.158887786 L358.967229394,335.784508441 L360.84409136,327.373386296 L364.945382324,320.978152929 L373.982125124,312.010923535 L370.714995035,309.856007944 L370.297914598,307.562065541 L376.76266137,282.050645482 L376.623634558,277.949354518 L382.115193644,271.554121152 L384.200595829,265.714995035 L386.146971202,264.394240318 L404.568023833,264.394240318 L408.043694141,263.212512413 L415.968222443,265.923535253 L420.625620655,264.880834161 L423.267130089,263.003972195 L429.106256207,263.212512413 L434.458788481,261.683217478 L436.961271102,262.100297915 L440.993048659,259.597815293 L447.249255214,258.068520357 L452.532274081,259.180734856 L454.54816286,262.378351539 L459.205561072,263.142999007 L461.569016882,262.169811321 L460.178748759,265.854021847 L457.467725919,267.383316783 L456.007944389,270.580933466 L453.088381331,273.430983118 L451.350546177,278.227408143 L448.987090367,279.478649454 L451.211519364,284.483614697 L454.54816286,287.820258193 L457.954319762,299.220456802 L464.766633565,304.572989076 L467.547169811,311.176762661 L468.867924528,312.497517378 L474.428997021,314.235352532 L477.418073486,325.009930487 L480.05958292,326.608738828 L483.11817279,330.01489573 L485.4816286,336.132075472 L491.529294935,339.677259186 L494.935451837,339.538232373 L513.912611718,355.804369414 L583.843098312,377.631578947 L652.939424032,399.945382324 L700.0,398.972194638 L628.053624628,471.057596822 L605.39225422,494.900695134 L559.09632572,546.410129096 L557.775571003,546.966236346 L513.356504469,544.811320755 L492.641509434,550.233366435 L473.525322741,559.409136048 L466.087388282,565.526315789 L463.23733863,572.894736842 L460.039721946,575.605759682 L435.01489573,580.471698113 L425.839126117,580.958291956 L417.497517378,586.658391261 L416.941410129,589.57795432 L413.396226415,592.358490566 L407.000993049,590.134061569 L404.289970209,591.454816286 L401.648460775,590.759682224 L394.280039722,592.428003972 L381.767626614,592.775571003 L377.388282026,590.203574975 L374.399205561,586.032770606 L369.324726912,583.252234359 L362.999006951,576.787487587 L360.079443893,578.733862959 L345.134061569,584.50347567 L344.369414101,585.754716981 L335.054617676,588.535253227 L334.846077458,589.230387289 L320.109235353,596.390268123 L316.146971202,604.870903674 L307.31876862,613.62959285 L305.51142006,618.008937438 L303.982125124,618.078450844 L302.24428997,615.784508441 L300.784508441,615.297914598 L294.945382324,615.158887786 L295.153922542,613.768619662 L290.635551142,615.019860973 L284.587884806,612.72591857 Z" fill="#cee3f5" id="ET.SO" stroke="#6e6e6e" stroke-width="0.4"><desc><labelrank>3</labelrank><code_hasc>ET.SO</code_hasc><name>Somali</name><admin>Ethiopia</admin><type_en>Administrative State</type_en><region /><woe_id>56013540</woe_id><longitude>43</longitude><woe_name>Somali</woe_name><fips>ET48</fips><woe_label /><latitude>7</latitude><iso_a2>ET</iso_a2><postal>SO</postal><type>Kilil</type><id>ET.SO</id></desc></path><path d="M435.223435948,322.298907646 L431.956305859,324.94041708 L425.630585899,327.234359484 L426.32571996,330.710029791 L423.058589871,333.907646475 L419.026812314,332.517378352 L415.898709037,333.838133069 L408.738828203,333.421052632 L407.279046673,334.046673287 L407.418073486,328.902681231 L408.460774578,326.261171797 L414.438927507,324.175769613 L421.320754717,326.678252234 L428.828202582,319.865938431 L431.191658391,319.5183714 L433.416087388,320.352532274 L435.223435948,322.298907646 Z" fill="#cee3f5" id="ET.DD" stroke="#6e6e6e" stroke-width="0.4"><desc><labelrank>9</labelrank><code_hasc>ET.DD</code_hasc><name>Dire Dawa</name><admin>Ethiopia</admin><type_en>Administrative State</type_en><region /><woe_id>56013542</woe_id><longitude>42</longitude><woe_name>Dire Dawa</woe_name><fips>ET48</fips><woe_label>Dire Dawa, ET, Ethiopia</woe_label><latitude>9</latitude><iso_a2>ET</iso_a2><postal>DD</postal><type>Kilil</type><id>ET.DD</id></desc></path><path d="M431.469712016,338.008937438 L432.164846077,339.05163853 L431.261171797,343.291956306 L431.956305859,346.698113208 L431.191658391,347.184707051 L428.550148957,345.724925521 L426.603773585,346.350546177 L425.143992056,345.238331678 L422.571996028,345.377358491 L423.128103277,341.693147964 L425.491559086,338.14796425 L428.341608739,339.05163853 L431.469712016,338.008937438 Z" fill="#cee3f5" id="ET.HA" stroke="#6e6e6e" stroke-width="0.4"><desc><labelrank>3</labelrank><code_hasc>ET.HA</code_hasc><name>Harari People</name><admin>Ethiopia</admin><type_en>Administrative State</type_en><region /><woe_id>56013544</woe_id><longitude>42</longitude><woe_name>Harari People</woe_name><fips>ET50</fips><woe_label>Harari, ET, Ethiopia</woe_label><latitude>9</latitude><iso_a2>ET</iso_a2><postal>HA</postal><type>Kilil</type><id>ET.HA</id></desc></path></svg>