<?xml version='1.0' encoding='utf-8'?>
<svg height="700" width="700" xmlns="http://www.w3.org/2000/svg"><path d="M48.5602094241,466.819371728 L38.4816753927,464.070680628 L33.9005235602,466.819371728 L24.7382198953,460.405759162 L25.6544502618,457.657068063 L23.8219895288,455.82460733 L26.5706806283,449.410994764 L22.9057591623,442.997382199 L14.6596858639,436.583769634 L12.8272251309,415.510471204 L8.24607329843,412.761780105 L6.41361256545,403.59947644 L0.0,399.018324607 L3.66492146597,380.693717277 L14.6596858639,365.117801047 L28.4031413613,363.285340314 L28.4031413613,362.369109948 L37.5654450262,366.034031414 L49.4764397906,362.369109948 L63.219895288,347.709424084 L67.8010471204,351.37434555 L66.8848167539,357.787958115 L58.6387434555,367.866492147 L64.1361256545,374.280104712 L60.4712041885,379.777486911 L59.554973822,383.442408377 L68.7172774869,387.107329843 L68.7172774869,389.856020942 L77.8795811518,402.683246073 L75.1308900524,409.096858639 L82.4607329843,417.342931937 L77.8795811518,423.756544503 L81.5445026178,427.421465969 L83.3769633508,432.918848168 L81.5445026178,437.5 L71.4659685864,441.164921466 L66.8848167539,439.332460733 L66.8848167539,436.583769634 L65.0523560209,437.5 L65.0523560209,442.997382199 L59.554973822,445.746073298 L54.9738219895,444.829842932 L54.9738219895,449.410994764 L60.4712041885,451.243455497 L54.057591623,454.908376963 L54.057591623,458.573298429 L49.4764397906,462.238219895 L48.5602094241,466.819371728 Z" fill="#cee3f5" id="SK.BL" stroke="#6e6e6e" stroke-width="0.4"><desc><labelrank>7</labelrank><code_hasc>SK.BL</code_hasc><name>Bratislavský</name><admin>Slovakia</admin><type_en>Region</type_en><region /><woe_id>20070505</woe_id><longitude>17</longitude><woe_name>Bratislavský</woe_name><fips>LO02</fips><woe_label>Bratislavsky, SK, Slovakia</woe_label><latitude>48</latitude><iso_a2>SK</iso_a2><postal>BL</postal><type>Kraj</type><id>SK.BL</id></desc></path><path d="M390.314136126,311.060209424 L407.722513089,312.892670157 L413.219895288,311.976439791 L424.214659686,317.47382199 L421.465968586,318.390052356 L415.052356021,328.468586387 L413.219895288,343.128272251 L422.382198953,351.37434555 L426.047120419,365.117801047 L432.460732984,367.866492147 L426.963350785,385.27486911 L430.628272251,393.520942408 L445.287958115,391.688481675 L447.120418848,393.520942408 L439.790575916,402.683246073 L432.460732984,422.840314136 L426.047120419,431.086387435 L422.382198953,432.918848168 L417.80104712,429.253926702 L410.471204188,433.835078534 L405.890052356,433.835078534 L402.22513089,441.164921466 L388.481675393,447.578534031 L380.235602094,454.908376963 L374.738219895,454.908376963 L366.492146597,449.410994764 L360.994764398,451.243455497 L360.994764398,443.913612565 L359.162303665,441.164921466 L350.0,442.081151832 L342.670157068,436.583769634 L328.926701571,440.248691099 L324.345549738,457.657068063 L317.931937173,462.238219895 L300.523560209,461.321989529 L292.277486911,465.903141361 L276.701570681,464.070680628 L266.623036649,464.070680628 L266.623036649,459.489528796 L273.036649215,452.159685864 L273.952879581,440.248691099 L272.120418848,438.416230366 L258.376963351,443.913612565 L256.544502618,446.662303665 L250.130890052,446.662303665 L244.633507853,442.997382199 L241.884816754,444.829842932 L240.968586387,441.164921466 L244.633507853,437.5 L241.884816754,430.170157068 L245.54973822,425.589005236 L247.382198953,419.17539267 L242.80104712,408.180628272 L235.471204188,399.018324607 L229.97382199,401.767015707 L226.308900524,408.180628272 L213.481675393,410.929319372 L208.90052356,415.510471204 L207.984293194,413.678010471 L212.565445026,407.264397906 L213.481675393,402.683246073 L208.90052356,390.772251309 L209.816753927,387.107329843 L209.816753927,382.52617801 L203.403141361,381.609947644 L207.068062827,377.028795812 L204.319371728,372.447643979 L205.235602094,369.69895288 L218.062827225,368.782722513 L224.476439791,356.871727749 L232.722513089,358.704188482 L232.722513089,355.955497382 L239.136125654,346.793193717 L242.80104712,345.876963351 L247.382198953,337.630890052 L253.795811518,333.965968586 L255.628272251,336.714659686 L267.539267016,338.547120419 L270.287958115,331.217277487 L268.455497382,327.552356021 L268.455497382,320.222513089 L273.036649215,313.808900524 L300.523560209,311.976439791 L301.439790576,316.557591623 L300.523560209,318.390052356 L306.020942408,318.390052356 L317.015706806,306.479057592 L337.172774869,303.730366492 L346.335078534,304.646596859 L360.078534031,311.976439791 L367.408376963,309.227748691 L390.314136126,311.060209424 Z" fill="#cee3f5" id="SK.BC" stroke="#6e6e6e" stroke-width="0.4"><desc><labelrank>7</labelrank><code_hasc>SK.BC</code_hasc><name>Banskobystrický</name><admin>Slovakia</admin><type_en>Region</type_en><region /><woe_id>20070495</woe_id><longitude>19</longitude><woe_name>Banskobystrický</woe_name><fips>LO01</fips><woe_label>Banskobystricky, SK, Slovakia</woe_label><latitude>48</latitude><iso_a2>SK</iso_a2><postal>BC</postal><type>Kraj</type><id>SK.BC</id></desc></path><path d="M375.654450262,256.086387435 L379.319371728,268.913612565 L382.984293194,267.997382199 L388.481675393,273.494764398 L393.979057592,273.494764398 L392.146596859,289.986910995 L387.565445026,290.903141361 L394.895287958,304.646596859 L397.643979058,305.562827225 L390.314136126,311.060209424 L367.408376963,309.227748691 L360.078534031,311.976439791 L346.335078534,304.646596859 L337.172774869,303.730366492 L317.015706806,306.479057592 L306.020942408,318.390052356 L300.523560209,318.390052356 L301.439790576,316.557591623 L300.523560209,311.976439791 L273.036649215,313.808900524 L268.455497382,320.222513089 L268.455497382,327.552356021 L270.287958115,331.217277487 L267.539267016,338.547120419 L255.628272251,336.714659686 L253.795811518,333.965968586 L247.382198953,337.630890052 L241.884816754,324.803664921 L232.722513089,317.47382199 L232.722513089,305.562827225 L235.471204188,301.897905759 L232.722513089,299.14921466 L224.476439791,296.40052356 L218.979057592,297.316753927 L218.062827225,294.568062827 L210.732984293,300.981675393 L205.235602094,299.14921466 L204.319371728,297.316753927 L216.230366492,289.070680628 L220.811518325,284.489528796 L220.811518325,277.159685864 L216.230366492,272.578534031 L219.895287958,268.913612565 L217.146596859,260.667539267 L206.151832461,252.421465969 L196.073298429,229.515706806 L193.32460733,227.683246073 L196.073298429,225.85078534 L196.989528796,216.688481675 L200.654450262,217.604712042 L203.403141361,215.772251309 L213.481675393,206.609947644 L215.314136126,200.196335079 L218.062827225,198.363874346 L223.560209424,200.196335079 L227.22513089,197.447643979 L239.136125654,201.112565445 L246.465968586,196.531413613 L262.958115183,197.447643979 L266.623036649,200.196335079 L266.623036649,218.520942408 L272.120418848,219.437172775 L279.45026178,215.772251309 L284.031413613,219.437172775 L287.696335079,218.520942408 L292.277486911,217.604712042 L294.109947644,210.27486911 L296.858638743,209.358638743 L299.607329843,198.363874346 L303.272251309,195.615183246 L312.434554974,193.782722513 L325.261780105,180.955497382 L332.591623037,188.285340314 L338.089005236,208.442408377 L348.167539267,211.191099476 L347.251308901,218.520942408 L356.413612565,221.269633508 L363.743455497,220.353403141 L366.492146597,235.929319372 L364.659685864,238.678010471 L368.32460733,243.259162304 L360.994764398,255.170157068 L365.57591623,257.918848168 L371.073298429,258.835078534 L375.654450262,256.086387435 Z" fill="#cee3f5" id="SK.ZI" stroke="#6e6e6e" stroke-width="0.4"><desc><labelrank>7</labelrank><code_hasc>SK.ZI</code_hasc><name>Žilinský</name><admin>Slovakia</admin><type_en>Region</type_en><region /><woe_id>20070494</woe_id><longitude>19</longitude><woe_name>Žilinský</woe_name><fips>LO08</fips><woe_label>Zilinsky, SK, Slovakia</woe_label><latitude>49</latitude><iso_a2>SK</iso_a2><postal>ZI</postal><type>Kraj</type><id>SK.ZI</id></desc></path><path d="M204.319371728,372.447643979 L207.068062827,377.028795812 L203.403141361,381.609947644 L209.816753927,382.52617801 L209.816753927,387.107329843 L208.90052356,390.772251309 L213.481675393,402.683246073 L212.565445026,407.264397906 L207.984293194,413.678010471 L208.90052356,415.510471204 L213.481675393,410.929319372 L226.308900524,408.180628272 L229.97382199,401.767015707 L235.471204188,399.018324607 L242.80104712,408.180628272 L247.382198953,419.17539267 L245.54973822,425.589005236 L241.884816754,430.170157068 L244.633507853,437.5 L240.968586387,441.164921466 L241.884816754,444.829842932 L244.633507853,442.997382199 L250.130890052,446.662303665 L256.544502618,446.662303665 L258.376963351,443.913612565 L272.120418848,438.416230366 L273.952879581,440.248691099 L273.036649215,452.159685864 L266.623036649,459.489528796 L266.623036649,464.070680628 L244.633507853,468.651832461 L238.219895288,476.897905759 L231.806282723,480.562827225 L233.638743455,484.227748691 L231.806282723,499.803664921 L240.052356021,507.133507853 L234.554973822,508.965968586 L224.476439791,516.295811518 L207.068062827,513.547120419 L181.413612565,515.379581152 L167.670157068,519.044502618 L152.094240838,517.212041885 L116.361256545,518.128272251 L103.534031414,512.630890052 L106.282722513,505.30104712 L113.612565445,502.552356021 L115.445026178,496.138743455 L125.523560209,486.976439791 L125.523560209,462.238219895 L120.942408377,459.489528796 L120.942408377,456.740837696 L116.361256545,456.740837696 L117.277486911,450.327225131 L111.780104712,442.997382199 L119.109947644,442.081151832 L118.193717277,434.751308901 L121.858638743,436.583769634 L126.439790576,433.835078534 L126.439790576,430.170157068 L123.691099476,425.589005236 L125.523560209,419.17539267 L122.77486911,415.510471204 L124.607329843,406.348167539 L139.267015707,386.191099476 L131.020942408,377.945026178 L125.523560209,375.196335079 L132.853403141,361.452879581 L136.518324607,363.285340314 L142.931937173,360.536649215 L142.931937173,358.704188482 L147.513089005,354.123036649 L145.680628272,341.295811518 L149.345549738,340.379581152 L150.261780105,342.212041885 L160.340314136,345.876963351 L165.837696335,353.206806283 L174.083769634,358.704188482 L175.0,361.452879581 L172.251308901,368.782722513 L179.581151832,374.280104712 L182.329842932,381.609947644 L185.994764398,382.52617801 L186.910994764,380.693717277 L188.743455497,382.52617801 L204.319371728,372.447643979 Z" fill="#cee3f5" id="SK.NI" stroke="#6e6e6e" stroke-width="0.4"><desc><labelrank>7</labelrank><code_hasc>SK.NI</code_hasc><name>Nitriansky</name><admin>Slovakia</admin><type_en>Region</type_en><region /><woe_id>20070492</woe_id><longitude>18</longitude><woe_name>Nitriansky</woe_name><fips>SI04</fips><woe_label>Nitriansky, SK, Slovakia</woe_label><latitude>48</latitude><iso_a2>SK</iso_a2><postal>NI</postal><type>Kraj</type><id>SK.NI</id></desc></path><path d="M247.382198953,337.630890052 L242.80104712,345.876963351 L239.136125654,346.793193717 L232.722513089,355.955497382 L232.722513089,358.704188482 L224.476439791,356.871727749 L218.062827225,368.782722513 L205.235602094,369.69895288 L204.319371728,372.447643979 L188.743455497,382.52617801 L186.910994764,380.693717277 L185.994764398,382.52617801 L182.329842932,381.609947644 L179.581151832,374.280104712 L172.251308901,368.782722513 L175.0,361.452879581 L174.083769634,358.704188482 L165.837696335,353.206806283 L160.340314136,345.876963351 L150.261780105,342.212041885 L149.345549738,340.379581152 L145.680628272,341.295811518 L147.513089005,354.123036649 L142.931937173,358.704188482 L126.439790576,353.206806283 L123.691099476,349.541884817 L122.77486911,351.37434555 L116.361256545,351.37434555 L109.031413613,344.044502618 L101.701570681,346.793193717 L98.9528795812,345.876963351 L98.0366492147,350.458115183 L91.6230366492,350.458115183 L87.0418848168,353.206806283 L79.7120418848,339.463350785 L82.4607329843,333.04973822 L80.6282722513,329.384816754 L75.1308900524,322.971204188 L71.4659685864,325.719895288 L66.8848167539,324.803664921 L74.2146596859,315.641361257 L78.7958115183,313.808900524 L84.2931937173,318.390052356 L88.8743455497,319.306282723 L112.696335079,311.060209424 L121.858638743,300.981675393 L129.188481675,300.981675393 L136.518324607,284.489528796 L153.010471204,281.740837696 L159.42408377,274.410994764 L161.256544503,256.086387435 L168.586387435,239.594240838 L193.32460733,227.683246073 L196.073298429,229.515706806 L206.151832461,252.421465969 L217.146596859,260.667539267 L219.895287958,268.913612565 L216.230366492,272.578534031 L220.811518325,277.159685864 L220.811518325,284.489528796 L216.230366492,289.070680628 L204.319371728,297.316753927 L205.235602094,299.14921466 L210.732984293,300.981675393 L218.062827225,294.568062827 L218.979057592,297.316753927 L224.476439791,296.40052356 L232.722513089,299.14921466 L235.471204188,301.897905759 L232.722513089,305.562827225 L232.722513089,317.47382199 L241.884816754,324.803664921 L247.382198953,337.630890052 Z" fill="#cee3f5" id="SK.TC" stroke="#6e6e6e" stroke-width="0.4"><desc><labelrank>7</labelrank><code_hasc>SK.TC</code_hasc><name>Trenciansky</name><admin>Slovakia</admin><type_en>Region</type_en><region /><woe_id>20070493</woe_id><longitude>18</longitude><woe_name>Trenciansky</woe_name><fips>SI06</fips><woe_label>Trenciansky, SK, Slovakia</woe_label><latitude>48</latitude><iso_a2>SK</iso_a2><postal>TC</postal><type>Kraj</type><id>SK.TC</id></desc></path><path d="M74.2146596859,315.641361257 L66.8848167539,324.803664921 L71.4659685864,325.719895288 L75.1308900524,322.971204188 L80.6282722513,329.384816754 L82.4607329843,333.04973822 L79.7120418848,339.463350785 L87.0418848168,353.206806283 L91.6230366492,350.458115183 L98.0366492147,350.458115183 L98.9528795812,345.876963351 L101.701570681,346.793193717 L109.031413613,344.044502618 L116.361256545,351.37434555 L122.77486911,351.37434555 L123.691099476,349.541884817 L126.439790576,353.206806283 L142.931937173,358.704188482 L142.931937173,360.536649215 L136.518324607,363.285340314 L132.853403141,361.452879581 L125.523560209,375.196335079 L131.020942408,377.945026178 L139.267015707,386.191099476 L124.607329843,406.348167539 L122.77486911,415.510471204 L125.523560209,419.17539267 L123.691099476,425.589005236 L126.439790576,430.170157068 L126.439790576,433.835078534 L121.858638743,436.583769634 L118.193717277,434.751308901 L119.109947644,442.081151832 L111.780104712,442.997382199 L117.277486911,450.327225131 L116.361256545,456.740837696 L120.942408377,456.740837696 L120.942408377,459.489528796 L125.523560209,462.238219895 L125.523560209,486.976439791 L115.445026178,496.138743455 L113.612565445,502.552356021 L106.282722513,505.30104712 L103.534031414,512.630890052 L90.7068062827,502.552356021 L85.2094240838,501.636125654 L79.7120418848,493.390052356 L74.2146596859,491.557591623 L57.722513089,469.568062827 L48.5602094241,466.819371728 L49.4764397906,462.238219895 L54.057591623,458.573298429 L54.057591623,454.908376963 L60.4712041885,451.243455497 L54.9738219895,449.410994764 L54.9738219895,444.829842932 L59.554973822,445.746073298 L65.0523560209,442.997382199 L65.0523560209,437.5 L66.8848167539,436.583769634 L66.8848167539,439.332460733 L71.4659685864,441.164921466 L81.5445026178,437.5 L83.3769633508,432.918848168 L81.5445026178,427.421465969 L77.8795811518,423.756544503 L82.4607329843,417.342931937 L75.1308900524,409.096858639 L77.8795811518,402.683246073 L68.7172774869,389.856020942 L68.7172774869,387.107329843 L59.554973822,383.442408377 L60.4712041885,379.777486911 L64.1361256545,374.280104712 L58.6387434555,367.866492147 L66.8848167539,357.787958115 L67.8010471204,351.37434555 L63.219895288,347.709424084 L49.4764397906,362.369109948 L37.5654450262,366.034031414 L28.4031413613,362.369109948 L28.4031413613,363.285340314 L14.6596858639,365.117801047 L14.6596858639,351.37434555 L25.6544502618,328.468586387 L35.7329842932,318.390052356 L37.5654450262,312.892670157 L43.9790575916,308.311518325 L49.4764397906,307.395287958 L69.6335078534,317.47382199 L74.2146596859,315.641361257 Z" fill="#cee3f5" id="SK.TA" stroke="#6e6e6e" stroke-width="0.4"><desc><labelrank>7</labelrank><code_hasc>SK.TA</code_hasc><name>Trnavský</name><admin>Slovakia</admin><type_en>Region</type_en><region /><woe_id>20070504</woe_id><longitude>17</longitude><woe_name>Trnavský</woe_name><fips>SI07</fips><woe_label>Trnavsky, SK, Slovakia</woe_label><latitude>48</latitude><iso_a2>SK</iso_a2><postal>TA</postal><type>Kraj</type><id>SK.TA</id></desc></path><path d="M680.759162304,319.306282723 L679.842931937,332.133507853 L676.178010471,338.547120419 L673.429319372,352.290575916 L665.183246073,357.787958115 L662.434554974,363.285340314 L653.272251309,373.363874346 L654.188481675,384.358638743 L652.356020942,403.59947644 L647.77486911,408.180628272 L627.617801047,410.013089005 L610.209424084,417.342931937 L602.879581152,416.426701571 L589.136125654,399.934554974 L585.471204188,388.023560209 L577.22513089,387.107329843 L574.476439791,380.693717277 L565.314136126,375.196335079 L552.486910995,377.945026178 L545.157068063,386.191099476 L539.659685864,383.442408377 L525.916230366,388.939790576 L517.670157068,384.358638743 L505.759162304,383.442408377 L486.518324607,374.280104712 L448.952879581,381.609947644 L448.952879581,390.772251309 L447.120418848,393.520942408 L445.287958115,391.688481675 L430.628272251,393.520942408 L426.963350785,385.27486911 L432.460732984,367.866492147 L426.047120419,365.117801047 L422.382198953,351.37434555 L413.219895288,343.128272251 L415.052356021,328.468586387 L421.465968586,318.390052356 L424.214659686,317.47382199 L432.460732984,308.311518325 L426.963350785,304.646596859 L430.628272251,300.065445026 L443.455497382,293.651832461 L449.869109948,300.065445026 L448.952879581,296.40052356 L452.617801047,295.484293194 L454.45026178,291.819371728 L455.366492147,294.568062827 L465.445026178,300.065445026 L468.193717277,302.814136126 L472.77486911,301.897905759 L474.607329843,299.14921466 L485.602094241,300.065445026 L484.685863874,294.568062827 L491.09947644,296.40052356 L492.931937173,299.14921466 L498.429319372,298.232984293 L506.67539267,303.730366492 L510.340314136,302.814136126 L516.753926702,311.976439791 L529.581151832,312.892670157 L535.078534031,317.47382199 L544.240837696,318.390052356 L542.408376963,323.887434555 L547.905759162,329.384816754 L550.654450262,328.468586387 L550.654450262,325.719895288 L558.90052356,323.887434555 L559.816753927,316.557591623 L563.481675393,317.47382199 L564.397905759,314.72513089 L568.062827225,318.390052356 L571.727748691,316.557591623 L578.141361257,332.133507853 L597.382198953,338.547120419 L610.209424084,332.133507853 L609.293193717,312.892670157 L624.869109948,317.47382199 L636.780104712,323.887434555 L649.607329843,322.971204188 L649.607329843,316.557591623 L657.853403141,307.395287958 L660.602094241,307.395287958 L663.35078534,309.227748691 L666.09947644,319.306282723 L680.759162304,319.306282723 Z" fill="#cee3f5" id="SK.KI" stroke="#6e6e6e" stroke-width="0.4"><desc><labelrank>7</labelrank><code_hasc>SK.KI</code_hasc><name>Košický</name><admin>Slovakia</admin><type_en>Region</type_en><region /><woe_id>20070497</woe_id><longitude>21</longitude><woe_name>Košický</woe_name><fips>LO03</fips><woe_label>Kosicky, SK, Slovakia</woe_label><latitude>48</latitude><iso_a2>SK</iso_a2><postal>KI</postal><type>Kraj</type><id>SK.KI</id></desc></path><path d="M680.759162304,319.306282723 L666.09947644,319.306282723 L663.35078534,309.227748691 L660.602094241,307.395287958 L657.853403141,307.395287958 L649.607329843,316.557591623 L649.607329843,322.971204188 L636.780104712,323.887434555 L624.869109948,317.47382199 L609.293193717,312.892670157 L610.209424084,332.133507853 L597.382198953,338.547120419 L578.141361257,332.133507853 L571.727748691,316.557591623 L568.062827225,318.390052356 L564.397905759,314.72513089 L563.481675393,317.47382199 L559.816753927,316.557591623 L558.90052356,323.887434555 L550.654450262,325.719895288 L550.654450262,328.468586387 L547.905759162,329.384816754 L542.408376963,323.887434555 L544.240837696,318.390052356 L535.078534031,317.47382199 L529.581151832,312.892670157 L516.753926702,311.976439791 L510.340314136,302.814136126 L506.67539267,303.730366492 L498.429319372,298.232984293 L492.931937173,299.14921466 L491.09947644,296.40052356 L484.685863874,294.568062827 L485.602094241,300.065445026 L474.607329843,299.14921466 L472.77486911,301.897905759 L468.193717277,302.814136126 L465.445026178,300.065445026 L455.366492147,294.568062827 L454.45026178,291.819371728 L452.617801047,295.484293194 L448.952879581,296.40052356 L449.869109948,300.065445026 L443.455497382,293.651832461 L430.628272251,300.065445026 L426.963350785,304.646596859 L432.460732984,308.311518325 L424.214659686,317.47382199 L413.219895288,311.976439791 L407.722513089,312.892670157 L390.314136126,311.060209424 L397.643979058,305.562827225 L394.895287958,304.646596859 L387.565445026,290.903141361 L392.146596859,289.986910995 L393.979057592,273.494764398 L388.481675393,273.494764398 L382.984293194,267.997382199 L379.319371728,268.913612565 L375.654450262,256.086387435 L380.235602094,252.421465969 L383.90052356,251.505235602 L397.643979058,261.583769634 L399.476439791,259.751308901 L402.22513089,248.756544503 L407.722513089,236.845549738 L411.387434555,236.845549738 L416.884816754,232.264397906 L426.047120419,231.348167539 L430.628272251,221.269633508 L442.539267016,223.102094241 L442.539267016,220.353403141 L444.371727749,219.437172775 L458.115183246,225.85078534 L465.445026178,220.353403141 L475.523560209,220.353403141 L485.602094241,233.180628272 L494.764397906,235.013089005 L503.010471204,240.510471204 L508.507853403,237.761780105 L514.921465969,229.515706806 L521.335078534,228.59947644 L521.335078534,224.018324607 L516.753926702,220.353403141 L521.335078534,216.688481675 L527.748691099,215.772251309 L534.162303665,220.353403141 L535.994764398,220.353403141 L544.240837696,211.191099476 L564.397905759,218.520942408 L585.471204188,214.856020942 L592.80104712,219.437172775 L596.465968586,219.437172775 L604.712041885,229.515706806 L612.041884817,224.018324607 L624.869109948,232.264397906 L633.115183246,242.342931937 L635.863874346,254.253926702 L639.528795812,257.002617801 L653.272251309,261.583769634 L658.769633508,261.583769634 L660.602094241,267.081151832 L676.178010471,269.829842932 L681.67539267,275.327225131 L700.0,278.992146597 L698.167539267,293.651832461 L689.921465969,298.232984293 L685.340314136,313.808900524 L680.759162304,319.306282723 Z" fill="#cee3f5" id="SK.PV" stroke="#6e6e6e" stroke-width="0.4"><desc><labelrank>7</labelrank><code_hasc>SK.PV</code_hasc><name>Prešov</name><admin>Slovakia</admin><type_en>Region</type_en><region /><woe_id>20070496</woe_id><longitude>21</longitude><woe_name>Prešov</woe_name><fips>LO05</fips><woe_label>Presovsky, SK, Slovakia</woe_label><latitude>49</latitude><iso_a2>SK</iso_a2><postal>PV</postal><type>Kraj</type><id>SK.PV</id></desc></path></svg>