<?xml version='1.0' encoding='utf-8'?>
<svg height="700" width="700" xmlns="http://www.w3.org/2000/svg"><path d="M518.772178932,242.912814926 L498.474546376,293.175157717 L469.769760225,305.576874095 L448.55327075,337.820342984 L452.297780014,376.26417022 L496.917471304,448.622393931 L398.254777403,512.466898022 L344.962771227,490.355343526 L326.241712672,470.513074876 L320.002379237,410.986992436 L353.700696799,381.22452265 L353.700934058,361.382530328 L344.964704882,347.741046457 L354.949329027,332.859678823 L389.894887786,309.297593918 L379.910718416,279.53454387 L367.430472225,265.893069821 L372.422741508,249.771488046 L387.399167855,234.890087207 L451.048426755,232.409705646 L464.844552484,216.149842886 L518.772178932,242.912814926 Z" fill="#cee3f5" id="SG.CS" stroke="#6e6e6e" stroke-width="0.4"><desc><labelrank>20</labelrank><code_hasc>SG.CS</code_hasc><name>Central Singapore</name><admin>Singapore</admin><type_en /><region /><woe_id>24703044</woe_id><longitude>103</longitude><woe_name>Central Singapore</woe_name><fips /><woe_label>Central Singapore, SG, Singapore</woe_label><latitude>1</latitude><iso_a2>SG</iso_a2><postal /><type /><id>SG.CS</id></desc></path><path d="M320.002379237,410.986992436 L326.241712672,470.513074876 L344.962771227,490.355343526 L398.254777403,512.466898022 L382.719640933,523.303089734 L310.850084809,526.108692288 L287.626010776,520.183318227 L261.264547787,482.450584868 L221.25090183,464.206860787 L131.808287054,448.610800904 L48.0139511666,450.788125933 L13.9634211367,442.521796031 L0.0,416.014500977 L8.31914653388,385.767038791 L65.9132549509,304.772097429 L83.8054272667,248.097166586 L131.03802707,210.757994754 L234.912479198,207.722923717 L227.649894803,285.731618296 L283.810197124,339.058916001 L285.05791868,351.46020179 L270.080753141,367.581407996 L273.824685474,376.262394668 L288.801321308,381.223303684 L320.002379237,410.986992436 Z" fill="#cee3f5" id="SG.SW" stroke="#6e6e6e" stroke-width="0.4"><desc><labelrank>20</labelrank><code_hasc>SG.SW</code_hasc><name>South West</name><admin>Singapore</admin><type_en /><region /><woe_id>24703043</woe_id><longitude>103</longitude><woe_name>South West</woe_name><fips /><woe_label>South West, SG, Singapore</woe_label><latitude>1</latitude><iso_a2>SG</iso_a2><postal /><type /><id>SG.SW</id></desc></path><path d="M464.844552484,216.149842886 L451.048426755,232.409705646 L387.399167855,234.890087207 L372.422741508,249.771488046 L367.430472225,265.893069821 L379.910718416,279.53454387 L389.894887786,309.297593918 L354.949329027,332.859678823 L344.964704882,347.741046457 L353.700934058,361.382530328 L353.700696799,381.22452265 L320.002379237,410.986992436 L288.801321308,381.223303684 L273.824685474,376.262394668 L270.080753141,367.581407996 L285.05791868,351.46020179 L283.810197124,339.058916001 L227.649894803,285.731618296 L234.912479198,207.722923717 L317.290817108,173.891307712 L368.599885243,176.854527496 L464.844552484,216.149842886 Z" fill="#cee3f5" id="SG.NW" stroke="#6e6e6e" stroke-width="0.4"><desc><labelrank>20</labelrank><code_hasc>SG.NW</code_hasc><name>North West</name><admin>Singapore</admin><type_en /><region /><woe_id>24703045</woe_id><longitude>103</longitude><woe_name>North West</woe_name><fips /><woe_label>North West, SG, Singapore</woe_label><latitude>1</latitude><iso_a2>SG</iso_a2><postal /><type /><id>SG.NW</id></desc></path><path d="M627.457794476,286.305788646 L620.782873529,299.371784126 L588.334528452,319.215184898 L582.095619707,355.179078052 L568.366982189,355.179563375 L512.203772124,327.898377019 L495.978883527,315.497457991 L498.474546376,293.175157717 L518.772178932,242.912814926 L627.457794476,286.305788646 Z" fill="#cee3f5" id="SG.NE" stroke="#6e6e6e" stroke-width="0.4"><desc><labelrank>20</labelrank><code_hasc>SG.NE</code_hasc><name>North East</name><admin>Singapore</admin><type_en /><region /><woe_id>24703042</woe_id><longitude>103</longitude><woe_name>North East</woe_name><fips /><woe_label>North East, SG, Singapore</woe_label><latitude>1</latitude><iso_a2>SG</iso_a2><postal /><type /><id>SG.NE</id></desc></path><path d="M496.917471304,448.622393931 L452.297780014,376.26417022 L448.55327075,337.820342984 L469.769760225,305.576874095 L498.474546376,293.175157717 L495.978883527,315.497457991 L512.203772124,327.898377019 L568.366982189,355.179563375 L582.095619707,355.179078052 L588.334528452,319.215184898 L620.782873529,299.371784126 L627.457794476,286.305788646 L692.467426418,304.776300461 L700.0,316.547634565 L677.720404491,353.423558745 L644.927171683,392.638631053 L605.385597466,423.979861852 L496.917471304,448.622393931 Z" fill="#cee3f5" id="SG.SE" stroke="#6e6e6e" stroke-width="0.4"><desc><labelrank>20</labelrank><code_hasc>SG.SE</code_hasc><name>South East</name><admin>Singapore</admin><type_en /><region /><woe_id>24703041</woe_id><longitude>103</longitude><woe_name>South East</woe_name><fips /><woe_label>South East, SG, Singapore</woe_label><latitude>1</latitude><iso_a2>SG</iso_a2><postal /><type /><id>SG.SE</id></desc></path></svg>