<?xml version='1.0' encoding='utf-8'?>
<svg height="700" width="700" xmlns="http://www.w3.org/2000/svg"><path d="M181.518624642,464.828080229 L182.521489971,474.856733524 L178.510028653,490.902578797 L166.475644699,495.916905444 L160.458452722,501.934097421 L153.438395415,502.936962751 L147.421203438,495.916905444 L158.452722063,491.905444126 L153.438395415,487.893982808 L153.438395415,485.888252149 L160.458452722,486.891117479 L161.461318052,483.88252149 L153.438395415,478.868194842 L165.47277937,479.871060172 L169.484240688,481.876790831 L168.481375358,476.862464183 L174.498567335,476.862464183 L175.501432665,473.853868195 L172.492836676,475.859598854 L175.501432665,470.845272206 L168.481375358,470.845272206 L168.481375358,466.833810888 L161.461318052,467.836676218 L163.467048711,462.82234957 L164.46991404,461.819484241 L173.495702006,461.819484241 L181.518624642,464.828080229 Z" fill="#cee3f5" id="IS.NE" stroke="#6e6e6e" stroke-width="0.4"><desc><labelrank>8</labelrank><code_hasc>IS.NE</code_hasc><name>Reykjavík</name><admin>Iceland</admin><type_en>Region</type_en><region /><woe_id>-99</woe_id><longitude>-21</longitude><woe_name /><fips>IC32</fips><woe_label /><latitude>64</latitude><iso_a2>IS</iso_a2><postal>NE</postal><type>Landsvæði</type><id>IS.NE</id></desc></path><path d="M223.638968481,356.518624642 L214.613180516,354.512893983 L205.58739255,341.475644699 L204.584527221,318.40974212 L191.547277937,296.346704871 L183.524355301,297.349570201 L180.515759312,294.340974212 L183.524355301,288.323782235 L183.524355301,276.289398281 L178.510028653,283.309455587 L160.458452722,285.315186246 L163.467048711,281.303724928 L160.458452722,275.286532951 L155.444126074,278.29512894 L152.435530086,271.275071633 L151.432664756,280.300859599 L146.418338109,286.318051576 L143.40974212,286.318051576 L135.386819484,277.29226361 L149.426934097,269.269340974 L153.438395415,261.246418338 L144.41260745,270.272206304 L137.392550143,271.275071633 L140.401146132,266.260744986 L136.389684814,270.272206304 L133.381088825,268.266475645 L134.383954155,272.277936963 L129.369627507,274.283667622 L125.358166189,255.229226361 L125.358166189,266.260744986 L122.349570201,270.272206304 L120.343839542,265.257879656 L118.338108883,271.275071633 L115.329512894,264.255014327 L117.335243553,256.232091691 L112.320916905,255.229226361 L113.323782235,275.286532951 L110.315186246,273.280802292 L109.312320917,270.272206304 L104.297994269,268.266475645 L109.312320917,259.240687679 L106.303724928,257.23495702 L103.29512894,264.255014327 L100.286532951,258.23782235 L98.2808022923,267.263610315 L92.2636103152,268.266475645 L87.2492836676,265.257879656 L87.2492836676,261.246418338 L85.2435530086,262.249283668 L85.2435530086,272.277936963 L82.2349570201,276.289398281 L71.2034383954,271.275071633 L66.1891117479,277.29226361 L55.1575931232,277.29226361 L51.1461318052,284.312320917 L40.1146131805,286.318051576 L34.0974212034,284.312320917 L35.100286533,276.289398281 L32.0916905444,278.29512894 L22.0630372493,271.275071633 L4.01146131805,272.277936963 L0.0,269.269340974 L11.0315186246,260.243553009 L12.0343839542,253.223495702 L16.0458452722,250.214899713 L41.11747851,269.269340974 L46.1318051576,267.263610315 L41.11747851,266.260744986 L30.0859598854,249.212034384 L47.1346704871,256.232091691 L30.0859598854,241.189111748 L28.0802292264,228.151862464 L30.0859598854,226.146131805 L58.1661891117,242.191977077 L62.1776504298,247.206303725 L62.1776504298,256.232091691 L66.1891117479,251.217765043 L73.2091690544,253.223495702 L72.2063037249,249.212034384 L80.229226361,247.206303725 L69.1977077364,246.203438395 L64.1833810888,240.186246418 L82.2349570201,238.180515759 L86.2464183381,231.160458453 L78.223495702,235.171919771 L53.1518624642,231.160458453 L45.1289398281,216.11747851 L45.1289398281,211.103151862 L49.1404011461,208.094555874 L61.1747851003,216.11747851 L66.1891117479,215.114613181 L85.2435530086,222.134670487 L63.1805157593,212.106017192 L49.1404011461,195.05730659 L50.1432664756,188.037249284 L53.1518624642,186.031518625 L67.1919770774,194.054441261 L73.2091690544,194.054441261 L76.217765043,200.071633238 L73.2091690544,193.051575931 L66.1891117479,189.040114613 L58.1661891117,180.014326648 L70.2005730659,179.011461318 L75.2148997135,183.022922636 L70.2005730659,177.005730659 L63.1805157593,176.00286533 L72.2063037249,166.977077364 L90.2578796562,177.005730659 L93.2664756447,187.034383954 L98.2808022923,182.020057307 L100.286532951,194.054441261 L95.2722063037,204.083094556 L103.29512894,192.048710602 L105.300859599,198.065902579 L109.312320917,196.06017192 L102.29226361,207.091690544 L106.303724928,206.088825215 L110.315186246,199.068767908 L110.315186246,213.108882521 L114.326647564,192.048710602 L119.340974212,191.045845272 L125.358166189,204.083094556 L120.343839542,225.143266476 L128.366762178,203.080229226 L133.381088825,214.111747851 L134.383954155,211.103151862 L131.375358166,224.140401146 L133.381088825,223.137535817 L138.395415473,212.106017192 L131.375358166,195.05730659 L137.392550143,185.028653295 L131.375358166,188.037249284 L108.309455587,175.0 L101.289398281,163.968481375 L115.329512894,159.957020057 L124.35530086,161.962750716 L127.363896848,165.974212034 L127.363896848,161.962750716 L139.398280802,157.951289398 L128.366762178,157.951289398 L132.378223496,152.936962751 L131.375358166,150.931232092 L125.358166189,155.945558739 L118.338108883,154.94269341 L121.346704871,145.916905444 L124.35530086,143.911174785 L120.343839542,144.914040115 L111.318051576,150.931232092 L113.323782235,143.911174785 L111.318051576,144.914040115 L104.297994269,153.93982808 L94.2693409742,150.931232092 L89.2550143266,144.914040115 L98.2808022923,143.911174785 L99.2836676218,139.899713467 L94.2693409742,135.888252149 L95.2722063037,131.876790831 L100.286532951,135.888252149 L99.2836676218,131.876790831 L106.303724928,131.876790831 L109.312320917,134.885386819 L104.297994269,128.868194842 L111.318051576,128.868194842 L119.340974212,135.888252149 L127.363896848,128.868194842 L136.389684814,134.885386819 L133.381088825,128.868194842 L135.386819484,129.871060172 L140.401146132,140.902578797 L149.426934097,148.925501433 L148.424068768,159.957020057 L151.432664756,157.951289398 L153.438395415,159.957020057 L155.444126074,156.948424069 L156.446991404,159.957020057 L162.464183381,158.954154728 L166.475644699,163.968481375 L161.461318052,167.979942693 L166.475644699,166.977077364 L176.504297994,172.994269341 L177.507163324,188.037249284 L182.521489971,190.042979943 L181.518624642,197.063037249 L184.52722063,195.05730659 L182.521489971,188.037249284 L188.538681948,186.031518625 L190.544412607,190.042979943 L187.535816619,194.054441261 L189.541547278,197.063037249 L197.564469914,196.06017192 L201.575931232,199.068767908 L202.578796562,203.080229226 L184.52722063,207.091690544 L185.53008596,209.097421203 L196.561604585,206.088825215 L198.567335244,207.091690544 L195.558739255,211.103151862 L203.581661891,210.100286533 L204.584527221,216.11747851 L202.578796562,219.126074499 L204.584527221,222.134670487 L201.575931232,230.157593123 L192.550143266,236.1747851 L201.575931232,240.186246418 L194.555873926,247.206303725 L186.532951289,247.206303725 L179.512893983,235.171919771 L173.495702006,235.171919771 L180.515759312,242.191977077 L179.512893983,247.206303725 L184.52722063,255.229226361 L196.561604585,256.232091691 L191.547277937,267.263610315 L202.578796562,261.246418338 L202.578796562,273.280802292 L192.550143266,284.312320917 L202.578796562,279.297994269 L209.598853868,287.320916905 L209.598853868,305.372492837 L215.616045845,319.41260745 L215.616045845,326.432664756 L216.618911175,326.432664756 L216.618911175,328.438395415 L217.621776504,330.444126074 L217.621776504,338.467048711 L220.630372493,346.489971347 L221.633237822,352.507163324 L222.636103152,353.510028653 L223.638968481,356.518624642 Z" fill="#cee3f5" id="IS.VF" stroke="#6e6e6e" stroke-width="0.4"><desc><labelrank>8</labelrank><code_hasc>IS.VF</code_hasc><name>Vestfirðir</name><admin>Iceland</admin><type_en>Region</type_en><region /><woe_id>-99</woe_id><longitude>-22</longitude><woe_name /><fips>IC19</fips><woe_label /><latitude>65</latitude><iso_a2>IS</iso_a2><postal>VF</postal><type>Landsvæði</type><id>IS.VF</id></desc></path><path d="M486.389684814,528.008595989 L489.398280802,528.008595989 L482.378223496,528.008595989 L486.389684814,528.008595989 M464.326647564,531.017191977 L462.320916905,502.936962751 L464.326647564,490.902578797 L491.404011461,423.710601719 L503.438395415,391.618911175 L504.441260745,380.58739255 L500.429799427,369.555873926 L503.438395415,353.510028653 L514.46991404,349.498567335 L528.510028653,332.449856734 L526.504297994,308.381088825 L536.532951289,289.326647564 L525.501432665,276.289398281 L532.521489971,253.223495702 L554.584527221,255.229226361 L553.581661891,225.143266476 L566.618911175,220.128939828 L573.638968481,207.091690544 L579.656160458,205.085959885 L586.676217765,196.06017192 L610.744985673,190.042979943 L612.750716332,184.025787966 L615.759312321,183.022922636 L614.756446991,198.065902579 L601.719197708,218.123209169 L607.736389685,213.108882521 L604.727793696,222.134670487 L606.733524355,223.137535817 L633.810888252,210.100286533 L635.816618911,212.106017192 L632.808022923,221.131805158 L640.830945559,228.151862464 L636.819484241,231.160458453 L625.787965616,256.232091691 L638.8252149,231.160458453 L646.848137536,233.166189112 L642.836676218,229.154727794 L657.87965616,236.1747851 L666.905444126,233.166189112 L672.922636103,246.203438395 L677.936962751,241.189111748 L684.957020057,247.206303725 L683.954154728,268.266475645 L673.925501433,271.275071633 L680.945558739,276.289398281 L664.899713467,285.315186246 L683.954154728,279.297994269 L691.977077364,285.315186246 L687.965616046,291.332378223 L663.896848138,297.349570201 L689.971346705,294.340974212 L688.968481375,301.361031519 L682.951289398,305.372492837 L687.965616046,303.366762178 L687.965616046,307.378223496 L691.977077364,309.383954155 L696.991404011,298.35243553 L700.0,311.389684814 L693.982808023,319.41260745 L695.988538682,323.424068768 L691.977077364,326.432664756 L683.954154728,327.435530086 L679.94269341,321.418338109 L665.902578797,315.401146132 L668.911174785,319.41260745 L666.905444126,321.418338109 L653.868194842,323.424068768 L674.928366762,324.426934097 L681.948424069,332.449856734 L688.968481375,334.455587393 L687.965616046,338.467048711 L666.905444126,337.464183381 L684.957020057,344.484240688 L686.962750716,347.492836676 L682.951289398,351.504297994 L675.931232092,349.498567335 L674.928366762,351.504297994 L682.951289398,356.518624642 L671.919770774,357.521489971 L669.914040115,360.53008596 L674.928366762,366.547277937 L656.876790831,374.570200573 L652.865329513,372.564469914 L645.845272206,361.532951289 L639.828080229,360.53008596 L643.839541547,362.535816619 L643.839541547,366.547277937 L648.853868195,369.555873926 L657.87965616,381.59025788 L646.848137536,379.584527221 L643.839541547,382.593123209 L649.856733524,388.610315186 L638.8252149,391.618911175 L642.836676218,397.636103152 L645.845272206,398.638968481 L653.868194842,389.613180516 L646.848137536,400.64469914 L643.839541547,420.702005731 L630.802292264,425.716332378 L641.833810888,418.696275072 L632.808022923,417.693409742 L628.796561605,426.719197708 L618.767908309,435.744985673 L623.782234957,441.76217765 L620.773638968,444.770773639 L615.759312321,444.770773639 L608.739255014,439.756446991 L601.719197708,445.773638968 L602.722063037,440.759312321 L599.713467049,441.76217765 L596.70487106,435.744985673 L597.70773639,441.76217765 L594.699140401,440.759312321 L590.687679083,431.733524355 L587.679083095,428.724928367 L583.667621777,427.722063037 L588.681948424,429.727793696 L591.690544413,435.744985673 L589.684813754,436.747851003 L589.684813754,445.773638968 L584.670487106,445.773638968 L587.679083095,447.779369628 L585.673352436,449.785100287 L572.636103152,455.802292264 L571.633237822,453.796561605 L564.613180516,461.819484241 L569.627507163,458.810888252 L569.627507163,461.819484241 L552.578796562,468.839541547 L550.573065903,470.845272206 L553.581661891,471.848137536 L543.553008596,482.87965616 L541.547277937,481.876790831 L541.547277937,484.885386819 L533.524355301,489.899713467 L531.518624642,495.916905444 L523.495702006,506.948424069 L521.489971347,507.951289398 L524.498567335,503.93982808 L514.46991404,512.965616046 L503.438395415,514.971346705 L505.444126074,516.977077364 L503.438395415,523.99713467 L496.418338109,514.971346705 L495.415472779,523.99713467 L493.40974212,514.971346705 L494.41260745,525.0 L492.406876791,527.005730659 L492.406876791,509.957020057 L490.401146132,506.948424069 L491.404011461,514.971346705 L487.392550143,517.979942693 L489.398280802,526.00286533 L476.361031519,526.00286533 L475.358166189,523.99713467 L464.326647564,531.017191977 Z" fill="#cee3f5" id="IS.AL" stroke="#6e6e6e" stroke-width="0.4"><desc><labelrank>8</labelrank><code_hasc>IS.AL</code_hasc><name>Austurland</name><admin>Iceland</admin><type_en>Region</type_en><region /><woe_id>-99</woe_id><longitude>-15</longitude><woe_name /><fips>IC20</fips><woe_label /><latitude>65</latitude><iso_a2>IS</iso_a2><postal>AL</postal><type>Landsvæði</type><id>IS.AL</id></desc></path><path d="M388.108882521,366.547277937 L359.025787966,374.570200573 L340.974212034,382.593123209 L324.928366762,383.595988539 L308.88252149,388.610315186 L306.876790831,389.613180516 L304.871060172,388.610315186 L287.82234957,381.59025788 L291.833810888,375.573065903 L299.856733524,366.547277937 L298.853868195,361.532951289 L260.744985673,358.524355301 L239.684813754,365.544412607 L235.673352436,362.535816619 L229.656160458,361.532951289 L223.638968481,357.521489971 L223.638968481,356.518624642 L222.636103152,353.510028653 L221.633237822,352.507163324 L220.630372493,346.489971347 L217.621776504,338.467048711 L216.618911175,328.438395415 L216.618911175,326.432664756 L217.621776504,326.432664756 L218.624641834,324.426934097 L214.613180516,311.389684814 L217.621776504,303.366762178 L215.616045845,285.315186246 L218.624641834,283.309455587 L224.641833811,298.35243553 L227.650429799,300.358166189 L222.636103152,278.29512894 L225.64469914,265.257879656 L241.690544413,247.206303725 L245.702005731,249.212034384 L244.699140401,269.269340974 L246.70487106,262.249283668 L248.710601719,271.275071633 L254.727793696,277.29226361 L257.736389685,269.269340974 L251.719197708,265.257879656 L258.739255014,262.249283668 L260.744985673,272.277936963 L260.744985673,264.255014327 L264.756446991,252.220630372 L267.76504298,251.217765043 L265.759312321,247.206303725 L267.76504298,239.183381089 L255.730659026,196.06017192 L258.739255014,187.034383954 L277.793696275,181.017191977 L291.833810888,215.114613181 L301.862464183,219.126074499 L307.87965616,237.17765043 L311.891117479,240.186246418 L314.899713467,236.1747851 L318.911174785,238.180515759 L317.908309456,241.189111748 L321.919770774,224.140401146 L313.896848138,206.088825215 L319.914040115,198.065902579 L317.908309456,191.045845272 L322.922636103,186.031518625 L330.945558739,185.028653295 L334.957020057,187.034383954 L336.962750716,183.022922636 L341.977077364,188.037249284 L338.968481375,182.020057307 L339.971346705,175.0 L339.971346705,175.0 L339.971346705,175.0 L342.979942693,178.008595989 L347.994269341,187.034383954 L354.011461318,196.06017192 L353.008595989,199.068767908 L353.008595989,199.068767908 L353.008595989,202.077363897 L353.008595989,202.077363897 L353.008595989,202.077363897 L352.005730659,203.080229226 L352.005730659,203.080229226 L351.00286533,204.083094556 L351.00286533,204.083094556 L351.00286533,205.085959885 L352.005730659,205.085959885 L354.011461318,207.091690544 L354.011461318,208.094555874 L354.011461318,209.097421203 L355.014326648,211.103151862 L354.011461318,212.106017192 L354.011461318,213.108882521 L352.005730659,217.12034384 L351.00286533,218.123209169 L348.99713467,218.123209169 L347.994269341,218.123209169 L347.994269341,218.123209169 L347.994269341,219.126074499 L346.991404011,220.128939828 L346.991404011,221.131805158 L346.991404011,223.137535817 L346.991404011,224.140401146 L347.994269341,225.143266476 L356.017191977,232.163323782 L357.020057307,235.171919771 L358.022922636,236.1747851 L358.022922636,240.186246418 L359.025787966,243.194842407 L360.028653295,245.200573066 L359.025787966,245.200573066 L359.025787966,246.203438395 L356.017191977,249.212034384 L356.017191977,252.220630372 L356.017191977,253.223495702 L354.011461318,257.23495702 L354.011461318,257.23495702 L353.008595989,259.240687679 L353.008595989,259.240687679 L353.008595989,259.240687679 L353.008595989,260.243553009 L353.008595989,261.246418338 L354.011461318,262.249283668 L357.020057307,265.257879656 L360.028653295,266.260744986 L363.037249284,268.266475645 L365.042979943,271.275071633 L365.042979943,272.277936963 L365.042979943,273.280802292 L365.042979943,273.280802292 L365.042979943,274.283667622 L363.037249284,277.29226361 L363.037249284,277.29226361 L363.037249284,279.297994269 L363.037249284,279.297994269 L362.034383954,282.306590258 L362.034383954,283.309455587 L362.034383954,284.312320917 L362.034383954,285.315186246 L366.045845272,287.320916905 L368.051575931,293.338108883 L374.068767908,295.343839542 L378.080229226,307.378223496 L389.111747851,317.406876791 L390.114613181,320.415472779 L391.11747851,326.432664756 L391.11747851,334.455587393 L391.11747851,341.475644699 L390.114613181,354.512893983 L388.108882521,366.547277937 Z" fill="#cee3f5" id="IS.NV" stroke="#6e6e6e" stroke-width="0.4"><desc><labelrank>8</labelrank><code_hasc>IS.NV</code_hasc><name>Norðurland vestra</name><admin>Iceland</admin><type_en>Region</type_en><region /><woe_id>-99</woe_id><longitude>-19</longitude><woe_name /><fips>IC05</fips><woe_label /><latitude>65</latitude><iso_a2>IS</iso_a2><postal>NV</postal><type>Landsvæði</type><id>IS.NV</id></desc></path><path d="M615.759312321,183.022922636 L612.750716332,184.025787966 L610.744985673,190.042979943 L586.676217765,196.06017192 L579.656160458,205.085959885 L573.638968481,207.091690544 L566.618911175,220.128939828 L553.581661891,225.143266476 L554.584527221,255.229226361 L532.521489971,253.223495702 L525.501432665,276.289398281 L536.532951289,289.326647564 L526.504297994,308.381088825 L528.510028653,332.449856734 L514.46991404,349.498567335 L503.438395415,353.510028653 L500.429799427,369.555873926 L504.441260745,380.58739255 L503.438395415,391.618911175 L491.404011461,423.710601719 L400.143266476,375.573065903 L394.126074499,372.564469914 L388.108882521,366.547277937 L391.11747851,341.475644699 L391.11747851,326.432664756 L390.114613181,320.415472779 L389.111747851,317.406876791 L378.080229226,307.378223496 L374.068767908,295.343839542 L368.051575931,293.338108883 L366.045845272,287.320916905 L362.034383954,285.315186246 L362.034383954,284.312320917 L362.034383954,283.309455587 L362.034383954,282.306590258 L363.037249284,279.297994269 L363.037249284,279.297994269 L363.037249284,278.29512894 L363.037249284,277.29226361 L363.037249284,277.29226361 L365.042979943,274.283667622 L365.042979943,273.280802292 L365.042979943,273.280802292 L365.042979943,272.277936963 L365.042979943,271.275071633 L363.037249284,268.266475645 L360.028653295,266.260744986 L357.020057307,265.257879656 L355.014326648,263.252148997 L354.011461318,262.249283668 L353.008595989,261.246418338 L353.008595989,260.243553009 L353.008595989,259.240687679 L353.008595989,259.240687679 L353.008595989,259.240687679 L354.011461318,257.23495702 L354.011461318,257.23495702 L355.014326648,255.229226361 L355.014326648,254.226361032 L355.014326648,253.223495702 L356.017191977,253.223495702 L356.017191977,249.212034384 L359.025787966,246.203438395 L359.025787966,245.200573066 L360.028653295,245.200573066 L359.025787966,243.194842407 L358.022922636,240.186246418 L358.022922636,236.1747851 L357.020057307,235.171919771 L356.017191977,232.163323782 L347.994269341,225.143266476 L346.991404011,224.140401146 L346.991404011,223.137535817 L346.991404011,221.131805158 L346.991404011,220.128939828 L347.994269341,219.126074499 L347.994269341,218.123209169 L347.994269341,218.123209169 L348.99713467,218.123209169 L352.005730659,217.12034384 L354.011461318,213.108882521 L354.011461318,212.106017192 L354.011461318,209.097421203 L354.011461318,208.094555874 L354.011461318,207.091690544 L354.011461318,206.088825215 L352.005730659,205.085959885 L351.00286533,205.085959885 L351.00286533,204.083094556 L351.00286533,204.083094556 L352.005730659,203.080229226 L352.005730659,203.080229226 L353.008595989,202.077363897 L353.008595989,202.077363897 L353.008595989,202.077363897 L353.008595989,199.068767908 L354.011461318,197.063037249 L354.011461318,196.06017192 L342.979942693,178.008595989 L339.971346705,175.0 L339.971346705,175.0 L339.971346705,175.0 L340.974212034,173.99713467 L342.979942693,171.991404011 L350.0,170.988538682 L350.0,176.00286533 L355.014326648,167.979942693 L358.022922636,168.982808023 L357.020057307,177.005730659 L362.034383954,171.991404011 L367.048710602,177.005730659 L366.045845272,185.028653295 L370.05730659,182.020057307 L373.065902579,185.028653295 L374.068767908,202.077363897 L386.103151862,205.085959885 L394.126074499,217.12034384 L398.137535817,237.17765043 L405.157593123,250.214899713 L402.148997135,237.17765043 L404.154727794,222.134670487 L401.146131805,212.106017192 L394.126074499,207.091690544 L389.111747851,195.05730659 L386.103151862,182.020057307 L387.106017192,169.985673352 L402.148997135,173.99713467 L411.1747851,172.994269341 L413.180515759,178.008595989 L417.191977077,179.011461318 L424.212034384,186.031518625 L435.243553009,208.094555874 L433.23782235,199.068767908 L438.252148997,197.063037249 L431.232091691,196.06017192 L441.260744986,195.05730659 L443.266475645,201.074498567 L446.275071633,180.014326648 L457.306590258,159.957020057 L467.335243553,162.965616046 L472.349570201,176.00286533 L474.35530086,171.991404011 L482.378223496,169.985673352 L484.383954155,169.985673352 L480.372492837,171.991404011 L482.378223496,175.0 L485.386819484,169.985673352 L492.406876791,177.005730659 L486.389684814,166.977077364 L495.415472779,160.959885387 L490.401146132,166.977077364 L496.418338109,163.968481375 L502.435530086,168.982808023 L498.424068768,161.962750716 L500.429799427,146.919770774 L489.398280802,118.839541547 L491.404011461,114.828080229 L494.41260745,117.836676218 L496.418338109,111.819484241 L499.426934097,117.836676218 L501.432664756,112.82234957 L505.444126074,117.836676218 L507.449856734,116.833810888 L513.467048711,108.810888252 L522.492836676,107.808022923 L530.515759312,113.8252149 L528.510028653,124.856733524 L535.53008596,123.853868195 L534.52722063,126.862464183 L543.553008596,128.868194842 L545.558739255,134.885386819 L541.547277937,145.916905444 L545.558739255,146.919770774 L546.561604585,152.936962751 L555.58739255,151.934097421 L565.616045845,162.965616046 L567.621776504,145.916905444 L580.659025788,141.905444126 L590.687679083,124.856733524 L595.702005731,122.851002865 L600.716332378,125.859598854 L611.747851003,122.851002865 L587.679083095,139.899713467 L586.676217765,142.908309456 L591.690544413,149.928366762 L591.690544413,153.93982808 L578.653295129,167.979942693 L585.673352436,168.982808023 L585.673352436,176.00286533 L599.713467049,177.005730659 L604.727793696,171.991404011 L608.739255014,171.991404011 L615.759312321,183.022922636 Z" fill="#cee3f5" id="IS.1592" stroke="#6e6e6e" stroke-width="0.4"><desc><labelrank>8</labelrank><code_hasc>IS.NE</code_hasc><name>Norðurland eystra</name><admin>Iceland</admin><type_en>Region</type_en><region /><woe_id>-99</woe_id><longitude>-17</longitude><woe_name /><fips>IC32</fips><woe_label /><latitude>65</latitude><iso_a2>IS</iso_a2><postal>NE</postal><type>Landsvæði</type><id>IS.1592</id></desc></path><path d="M160.458452722,501.934097421 L169.484240688,501.934097421 L178.510028653,502.936962751 L162.464183381,520.988538682 L161.461318052,522.994269341 L160.458452722,526.00286533 L160.458452722,526.00286533 L158.452722063,527.005730659 L151.432664756,528.008595989 L133.381088825,522.994269341 L129.369627507,527.005730659 L127.363896848,525.0 L119.340974212,529.011461318 L113.323782235,528.008595989 L110.315186246,531.017191977 L107.306590258,528.008595989 L109.312320917,522.994269341 L107.306590258,517.979942693 L110.315186246,509.957020057 L113.323782235,509.957020057 L107.306590258,505.945558739 L110.315186246,488.896848138 L115.329512894,492.908309456 L121.346704871,504.94269341 L129.369627507,505.945558739 L132.378223496,499.928366762 L139.398280802,496.919770774 L142.406876791,499.928366762 L147.421203438,495.916905444 L153.438395415,502.936962751 L160.458452722,501.934097421 Z" fill="#cee3f5" id="IS.SU" stroke="#6e6e6e" stroke-width="0.4"><desc><labelrank>8</labelrank><code_hasc>IS.SU</code_hasc><name>Suðurnes</name><admin>Iceland</admin><type_en>Independent Town</type_en><region /><woe_id>-99</woe_id><longitude>-22</longitude><woe_name /><fips>IC10</fips><woe_label /><latitude>63</latitude><iso_a2>IS</iso_a2><postal>SU</postal><type>Kaupstadir</type><id>IS.SU</id></desc></path><path d="M271.776504298,592.191977077 L269.770773639,589.183381089 L272.779369628,586.1747851 L271.776504298,592.191977077 M440.257879656,543.051575931 L439.255014327,546.06017192 L439.255014327,543.051575931 L435.243553009,545.05730659 L438.252148997,541.045845272 L440.257879656,543.051575931 M491.404011461,423.710601719 L464.326647564,490.902578797 L462.320916905,502.936962751 L464.326647564,531.017191977 L452.29226361,535.028653295 L453.29512894,529.011461318 L450.286532951,536.031518625 L442.263610315,542.048710602 L448.280802292,535.028653295 L442.263610315,531.017191977 L440.257879656,536.031518625 L435.243553009,535.028653295 L437.249283668,537.034383954 L431.232091691,539.040114613 L429.226361032,547.063037249 L426.217765043,547.063037249 L427.220630372,550.071633238 L437.249283668,548.065902579 L433.23782235,555.085959885 L429.226361032,553.080229226 L426.217765043,556.088825215 L428.223495702,559.097421203 L433.23782235,557.091690544 L427.220630372,571.131805158 L412.17765043,579.154727794 L409.169054441,576.146131805 L416.189111748,569.126074499 L409.169054441,571.131805158 L403.151862464,568.123209169 L407.163323782,580.157593123 L413.180515759,580.157593123 L376.074498567,592.191977077 L337.965616046,587.17765043 L308.88252149,575.143266476 L307.87965616,571.131805158 L297.851002865,571.131805158 L304.871060172,573.137535817 L285.816618911,570.128939828 L276.790830946,572.134670487 L265.759312321,562.106017192 L269.770773639,562.106017192 L266.76217765,561.103151862 L266.76217765,558.094555874 L264.756446991,561.103151862 L261.747851003,559.097421203 L264.756446991,559.097421203 L257.736389685,548.065902579 L255.730659026,549.068767908 L260.744985673,557.091690544 L252.722063037,547.063037249 L251.719197708,543.051575931 L255.730659026,539.040114613 L260.744985673,538.037249284 L268.767908309,544.054441261 L259.742120344,535.028653295 L260.744985673,527.005730659 L251.719197708,540.042979943 L250.716332378,547.063037249 L237.679083095,538.037249284 L248.710601719,538.037249284 L247.70773639,535.028653295 L241.690544413,536.031518625 L243.696275072,523.99713467 L240.687679083,522.994269341 L242.693409742,527.005730659 L238.681948424,533.022922636 L233.667621777,533.022922636 L234.670487106,536.031518625 L210.601719198,521.991404011 L209.598853868,513.968481375 L219.627507163,511.962750716 L206.59025788,510.959885387 L202.578796562,515.974212034 L208.595988539,520.988538682 L198.567335244,520.988538682 L197.564469914,526.00286533 L178.510028653,529.011461318 L169.484240688,522.994269341 L160.458452722,526.00286533 L160.458452722,526.00286533 L161.461318052,522.994269341 L162.464183381,520.988538682 L178.510028653,502.936962751 L181.518624642,502.936962751 L181.518624642,502.936962751 L182.521489971,499.928366762 L184.52722063,497.922636103 L186.532951289,495.916905444 L194.555873926,478.868194842 L195.558739255,465.830945559 L212.607449857,448.782234957 L217.621776504,442.76504298 L235.673352436,422.70773639 L283.810888252,397.636103152 L286.819484241,393.624641834 L287.82234957,381.59025788 L304.871060172,388.610315186 L308.88252149,388.610315186 L324.928366762,383.595988539 L340.974212034,382.593123209 L359.025787966,374.570200573 L388.108882521,366.547277937 L394.126074499,372.564469914 L400.143266476,375.573065903 L491.404011461,423.710601719 Z" fill="#cee3f5" id="IS.SL" stroke="#6e6e6e" stroke-width="0.4"><desc><labelrank>8</labelrank><code_hasc>IS.SL</code_hasc><name>Suðurland</name><admin>Iceland</admin><type_en>Region</type_en><region /><woe_id>-99</woe_id><longitude>-18</longitude><woe_name /><fips>IC23</fips><woe_label /><latitude>64</latitude><iso_a2>IS</iso_a2><postal>SL</postal><type>Landsvæði</type><id>IS.SL</id></desc></path><path d="M178.510028653,502.936962751 L169.484240688,501.934097421 L160.458452722,501.934097421 L166.475644699,495.916905444 L178.510028653,490.902578797 L182.521489971,474.856733524 L181.518624642,464.828080229 L173.495702006,461.819484241 L164.46991404,461.819484241 L167.478510029,459.813753582 L169.484240688,457.808022923 L172.492836676,450.787965616 L179.512893983,450.787965616 L177.507163324,448.782234957 L181.518624642,446.776504298 L191.547277937,448.782234957 L193.553008596,448.782234957 L194.555873926,446.776504298 L198.567335244,444.770773639 L204.584527221,444.770773639 L207.593123209,442.76504298 L207.593123209,442.76504298 L210.601719198,443.767908309 L211.604584527,443.767908309 L212.607449857,444.770773639 L212.607449857,444.770773639 L212.607449857,445.773638968 L212.607449857,446.776504298 L212.607449857,448.782234957 L195.558739255,465.830945559 L194.555873926,478.868194842 L186.532951289,495.916905444 L184.52722063,497.922636103 L182.521489971,499.928366762 L181.518624642,502.936962751 L181.518624642,502.936962751 L178.510028653,502.936962751 Z" fill="#cee3f5" id="IS.HO" stroke="#6e6e6e" stroke-width="0.4"><desc><labelrank>8</labelrank><code_hasc>IS.HO</code_hasc><name>Höfuðborgarsvæði</name><admin>Iceland</admin><type_en>Region</type_en><region /><woe_id>-99</woe_id><longitude>-21</longitude><woe_name /><fips>IC15</fips><woe_label /><latitude>64</latitude><iso_a2>IS</iso_a2><postal>HO</postal><type>Landsvæði</type><id>IS.HO</id></desc></path><path d="M130.372492837,390.616045845 L132.378223496,392.621776504 L127.363896848,386.604584527 L130.372492837,390.616045845 M223.638968481,356.518624642 L223.638968481,357.521489971 L229.656160458,361.532951289 L235.673352436,362.535816619 L239.684813754,365.544412607 L260.744985673,358.524355301 L298.853868195,361.532951289 L299.856733524,366.547277937 L291.833810888,375.573065903 L287.82234957,381.59025788 L286.819484241,393.624641834 L283.810888252,397.636103152 L235.673352436,422.70773639 L217.621776504,442.76504298 L212.607449857,448.782234957 L212.607449857,446.776504298 L212.607449857,445.773638968 L212.607449857,444.770773639 L212.607449857,444.770773639 L210.601719198,443.767908309 L207.593123209,442.76504298 L207.593123209,442.76504298 L204.584527221,444.770773639 L198.567335244,444.770773639 L194.555873926,446.776504298 L192.550143266,446.776504298 L192.550143266,442.76504298 L180.515759312,442.76504298 L175.501432665,443.767908309 L159.455587393,457.808022923 L150.429799427,454.799426934 L157.449856734,446.776504298 L166.475644699,443.767908309 L156.446991404,444.770773639 L153.438395415,441.76217765 L158.452722063,426.719197708 L171.489971347,421.70487106 L169.484240688,417.693409742 L176.504297994,410.673352436 L180.515759312,410.673352436 L184.52722063,416.690544413 L189.541547278,417.693409742 L181.518624642,411.676217765 L184.52722063,409.670487106 L177.507163324,409.670487106 L182.521489971,405.659025788 L189.541547278,404.656160458 L182.521489971,403.653295129 L176.504297994,407.664756447 L179.512893983,402.650429799 L166.475644699,417.693409742 L163.467048711,417.693409742 L156.446991404,423.710601719 L154.441260745,417.693409742 L151.432664756,430.730659026 L146.418338109,433.739255014 L142.406876791,426.719197708 L140.401146132,428.724928367 L141.404011461,415.687679083 L135.386819484,418.696275072 L134.383954155,409.670487106 L128.366762178,401.64756447 L133.381088825,405.659025788 L136.389684814,397.636103152 L145.415472779,390.616045845 L131.375358166,400.64469914 L137.392550143,388.610315186 L129.369627507,386.604584527 L131.375358166,377.578796562 L129.369627507,380.58739255 L122.349570201,380.58739255 L119.340974212,382.593123209 L121.346704871,384.598853868 L115.329512894,385.601719198 L114.326647564,380.58739255 L107.306590258,380.58739255 L112.320916905,383.595988539 L110.315186246,384.598853868 L106.303724928,381.59025788 L81.2320916905,379.584527221 L77.2206303725,375.573065903 L68.1948424069,376.575931232 L64.1833810888,380.58739255 L56.1604584527,377.578796562 L58.1661891117,376.575931232 L53.1518624642,379.584527221 L49.1404011461,387.607449857 L39.111747851,389.613180516 L32.0916905444,383.595988539 L26.0744985673,363.538681948 L39.111747851,358.524355301 L53.1518624642,363.538681948 L61.1747851003,357.521489971 L69.1977077364,357.521489971 L69.1977077364,354.512893983 L77.2206303725,360.53008596 L79.2263610315,357.521489971 L79.2263610315,349.498567335 L83.2378223496,346.489971347 L89.2550143266,347.492836676 L83.2378223496,356.518624642 L87.2492836676,362.535816619 L87.2492836676,356.518624642 L93.2664756447,348.495702006 L98.2808022923,352.507163324 L108.309455587,346.489971347 L102.29226361,345.487106017 L112.320916905,339.46991404 L114.326647564,343.481375358 L110.315186246,346.489971347 L114.326647564,345.487106017 L115.329512894,349.498567335 L121.346704871,353.510028653 L118.338108883,348.495702006 L123.35243553,343.481375358 L134.383954155,342.478510029 L148.424068768,347.492836676 L150.429799427,345.487106017 L169.484240688,346.489971347 L171.489971347,343.481375358 L168.481375358,341.475644699 L175.501432665,327.435530086 L173.495702006,320.415472779 L156.446991404,334.455587393 L123.35243553,325.429799427 L129.369627507,324.426934097 L123.35243553,322.421203438 L131.375358166,310.386819484 L146.418338109,303.366762178 L159.455587393,291.332378223 L163.467048711,293.338108883 L162.464183381,290.329512894 L178.510028653,283.309455587 L183.524355301,276.289398281 L183.524355301,288.323782235 L180.515759312,294.340974212 L183.524355301,297.349570201 L191.547277937,296.346704871 L204.584527221,318.40974212 L205.58739255,341.475644699 L214.613180516,354.512893983 L223.638968481,356.518624642 Z" fill="#cee3f5" id="IS.VL" stroke="#6e6e6e" stroke-width="0.4"><desc><labelrank>8</labelrank><code_hasc>IS.VL</code_hasc><name>Vesturland</name><admin>Iceland</admin><type_en>Region</type_en><region /><woe_id>-99</woe_id><longitude>-21</longitude><woe_name /><fips>IC17</fips><woe_label /><latitude>64</latitude><iso_a2>IS</iso_a2><postal>VL</postal><type>Landsvæði</type><id>IS.VL</id></desc></path></svg>