<?xml version='1.0' encoding='utf-8'?>
<svg height="700" width="700" xmlns="http://www.w3.org/2000/svg"><path d="M675.549248831,139.357786046 L669.503721416,142.615774591 L646.819075045,138.889994291 L637.716595593,142.942130415 L631.773398943,142.972693223 L625.650065014,145.989468002 L615.651145491,146.161405602 L611.251961801,150.006029556 L608.942683436,156.824490415 L602.61290432,161.419934678 L597.897109743,172.032257829 L586.672828646,181.776093558 L585.187704634,192.768262359 L572.437076792,206.669783564 L564.14743457,210.861207171 L560.530854083,216.32678838 L558.89330216,215.881652179 L552.082333866,221.732950731 L548.034431683,220.797517736 L544.144341991,222.300527898 L542.733320409,218.639652346 L546.278277243,208.660660894 L531.441175909,206.893889233 L525.605961494,213.781679473 L527.391257047,217.482101546 L525.440975077,225.27623915 L523.751218296,231.358702657 L518.099428935,232.069067983 L515.769060868,230.273431878 L513.395619404,226.092939465 L511.735393208,225.448785537 L508.999252378,227.273141186 L497.289477458,221.072153312 L498.094891496,215.106807382 L484.142855568,214.215428311 L485.429375906,202.956076647 L484.194429913,196.120804619 L489.408863884,186.618314512 L488.337860079,184.06456136 L493.28840379,178.381522455 L494.780763418,169.170617815 L492.172807997,167.414156578 L489.210231034,168.412075225 L487.97750963,166.203697684 L484.297422904,168.039827206 L478.152454423,166.650736275 L477.818676936,161.979965216 L479.215895065,160.598646534 L476.638681791,157.772567323 L476.087706741,148.791273564 L478.471626713,142.003821649 L475.344624489,138.733755915 L474.324490245,133.191027326 L465.548041903,128.573294554 L463.539266043,124.755078359 L468.941273595,106.669787768 L467.145678186,100.269638653 L459.908854048,99.6711590478 L456.672718482,93.7713284735 L453.923313178,92.9153450945 L449.080602645,94.2687973032 L449.29745174,98.2730287971 L447.980496078,100.127033304 L443.460732843,102.477079141 L439.022432206,102.3314198 L437.134929526,104.993721918 L434.072524337,103.652663364 L438.541916139,96.2075755638 L438.791050595,89.0078326537 L443.236078958,84.3600277835 L442.964305912,82.8967530801 L439.427405708,81.1858826293 L437.750031406,76.2569883336 L438.118395383,72.2332704584 L434.865527656,70.1028687187 L434.280686585,67.9299899037 L458.717646237,47.2794342531 L459.809593961,44.798406565 L457.244009581,39.1674894603 L457.513092253,34.3779995058 L460.378966946,35.6744897964 L466.582507614,34.2360907178 L466.600203771,68.3930961552 L507.747033172,68.8225869754 L511.751979709,69.7387995228 L519.601836066,75.2366139859 L530.974107604,69.1525625555 L544.125772557,71.904394211 L547.28931423,73.6726133893 L556.934569438,85.1684168996 L562.448367538,85.8003931724 L567.231819787,88.5957044832 L584.509110594,90.9887362252 L593.998363324,100.737517167 L598.79825337,103.737583875 L599.91018792,109.003315423 L602.086783578,111.176869462 L636.400213671,114.184568898 L670.494356631,128.996047751 L672.69024442,137.223355487 L675.549248831,139.357786046 Z" fill="#cee3f5" id="ZW.MC" stroke="#6e6e6e" stroke-width="0.4"><desc><labelrank>5</labelrank><code_hasc>ZW.MC</code_hasc><name>Mashonaland Central</name><admin>Zimbabwe</admin><type_en>Province</type_en><region /><woe_id>2347812</woe_id><longitude>31</longitude><woe_name>Mashonaland Central</woe_name><fips>ZI03</fips><woe_label>Mashonaland Central, ZW, Zimbabwe</woe_label><latitude>-16</latitude><iso_a2>ZW</iso_a2><postal>MC</postal><type>Province</type><id>ZW.MC</id></desc></path><path d="M506.08921912,251.345131124 L511.854370837,249.50780397 L508.341062922,244.843990199 L508.559429368,238.387308536 L512.111343718,236.03391052 L515.769060868,230.273431878 L518.099428935,232.069067983 L523.751218296,231.358702657 L525.440975077,225.27623915 L527.53493284,225.587852074 L529.191525881,228.289568026 L535.030508147,229.284784447 L534.856451735,234.58331025 L536.998135513,242.590155714 L534.355544341,247.600819143 L530.265312392,249.487773528 L530.079591929,254.689072275 L527.580360387,256.945702857 L528.69950172,258.649347518 L521.827174072,261.365629619 L506.08921912,251.345131124 Z" fill="#cee3f5" id="ZW.HA" stroke="#6e6e6e" stroke-width="0.4"><desc><labelrank>9</labelrank><code_hasc>ZW.HA</code_hasc><name>Harare</name><admin>Zimbabwe</admin><type_en>City</type_en><region /><woe_id>24550731</woe_id><longitude>31</longitude><woe_name>Harare</woe_name><fips>ZI10</fips><woe_label>Harare, ZW, Zimbabwe</woe_label><latitude>-17</latitude><iso_a2>ZW</iso_a2><postal>HA</postal><type>City</type><id>ZW.HA</id></desc></path><path d="M271.045279513,197.719794342 L267.798994965,209.879490401 L266.713051571,223.42382529 L261.863804211,228.180920268 L259.621136892,227.361469984 L256.480441469,229.842799342 L255.519451266,232.925780205 L256.511410229,238.843165376 L254.537160516,246.263591389 L249.354609608,252.981159898 L250.676275177,257.799778136 L254.346760731,258.500974787 L255.142716975,264.49942451 L253.000377459,267.95209512 L258.00034546,271.181116165 L249.270019333,273.485814941 L249.232308075,303.474410768 L252.168768731,305.136869157 L258.579546888,304.562394342 L278.602752084,307.199200148 L308.138552283,305.008873865 L313.586068757,306.373499322 L348.362348039,306.9057422 L349.888698202,310.207388916 L348.6989646,312.694518063 L327.276093892,320.613927913 L326.586890065,323.15102998 L331.889362649,347.943254706 L338.233671429,356.165371575 L336.537095462,364.031014853 L346.811350104,375.587303361 L345.213137347,381.855228824 L356.210649656,392.651447506 L353.371283707,395.498072439 L346.952734732,393.176605453 L344.458106366,394.20356536 L347.372335473,399.223104291 L347.097576301,402.179995028 L341.284289817,408.314176443 L345.153555298,412.842930728 L344.94796189,418.365014778 L343.53082498,422.80485891 L340.871382304,425.012995851 L332.63817134,424.915010918 L335.095785655,434.254036973 L333.284933208,437.574313947 L321.731460564,443.662262642 L321.482438251,448.86962158 L306.633164088,465.786085009 L304.765265568,465.781787021 L300.254801509,462.029411166 L306.164208589,460.779235162 L309.057694953,458.611725757 L306.451018325,454.920606006 L307.548108987,451.030425517 L305.530446303,448.470564093 L302.078506975,448.842201607 L298.600681456,447.157662617 L298.500152683,443.313643585 L291.379392652,445.691013148 L284.490633245,442.536339599 L284.252420819,452.315100871 L281.987872816,454.854623055 L290.950751431,455.844896623 L292.574591807,458.741841584 L291.430237778,461.299885683 L276.586533534,471.195080694 L271.709938417,462.336703009 L265.705384301,456.030654528 L263.881474154,451.021330615 L260.01240006,447.417374671 L247.259272462,450.835072151 L243.224674352,445.193025637 L239.848846168,456.961186178 L232.289218941,455.912716087 L216.181572757,442.341585176 L209.694334223,434.600661305 L208.779499691,429.756802821 L205.695119963,426.291253727 L199.571100665,424.873818368 L191.844395266,420.709284556 L186.427980717,420.14827229 L182.377713894,422.11530381 L171.19820787,420.461306899 L153.767825864,421.514389279 L136.490736523,425.690737971 L130.693406625,428.699501096 L123.476984701,425.798225703 L119.367775721,419.129245568 L108.973551368,414.720419109 L104.832197024,409.368097995 L98.3577206839,406.806003715 L100.227490584,403.217506451 L97.5613377187,399.88839341 L87.9018451566,398.338129088 L84.4417173594,396.202244193 L73.5629857904,368.855101677 L65.8744889788,355.781362768 L67.524992653,346.215294758 L65.0747355532,338.787583566 L53.8558944277,328.83896245 L50.6272453682,321.83336124 L48.9937799903,311.718544026 L40.7224963736,305.773414603 L36.4506335499,299.743197361 L26.2507206422,290.295923026 L15.2495726907,266.090353067 L7.04827541083,259.589550352 L3.29538558255,253.320104936 L0.0,242.016778308 L3.53975466548,233.97983818 L10.3575003383,238.320164349 L26.5562289593,240.153054867 L41.2748278063,235.293574869 L56.3808816431,244.083461558 L57.6380719698,245.677970272 L56.1999810948,246.208020013 L56.7534554183,249.0615962 L63.1205345942,252.662257849 L67.9504773219,252.634943796 L78.3582582364,248.807211313 L78.3489586213,246.896303205 L88.7565923586,241.685680862 L91.2065280564,244.232994026 L98.2826473175,246.463871767 L106.357720153,246.870521013 L120.818548044,252.794760693 L126.062774783,257.106790735 L132.421580171,258.967412748 L137.202942375,255.573098753 L149.229619007,251.045192193 L151.35389986,251.738857812 L155.564124377,249.189769083 L161.114781311,248.610471675 L172.539045609,237.778697285 L173.265645376,230.94711669 L210.974658186,193.09576223 L216.752626376,177.741614549 L229.041509045,159.364506129 L237.269831574,152.721109406 L251.180537389,146.786751732 L252.904395883,154.321930171 L251.940059477,159.301427212 L254.26118202,161.089556287 L252.963479967,167.625839642 L257.188680183,172.22838434 L261.422767868,173.352903555 L263.661648358,188.320969034 L269.592528379,193.072719669 L271.045279513,197.719794342 Z" fill="#cee3f5" id="ZW.MN" stroke="#6e6e6e" stroke-width="0.4"><desc><labelrank>5</labelrank><code_hasc>ZW.MN</code_hasc><name>Matabeleland North</name><admin>Zimbabwe</admin><type_en>Province</type_en><region /><woe_id>2347815</woe_id><longitude>27</longitude><woe_name>Matabeleland North</woe_name><fips>ZI06</fips><woe_label>Matabeleland North, ZW, Zimbabwe</woe_label><latitude>-18</latitude><iso_a2>ZW</iso_a2><postal>MN</postal><type>Province</type><id>ZW.MN</id></desc></path><path d="M458.322665429,335.767366197 L464.584009881,337.772914112 L477.457460259,345.643317361 L487.110593621,347.776820577 L485.862405378,350.710058444 L490.790276529,359.900672516 L489.3851649,365.43681115 L496.878523139,373.075648422 L501.661259592,375.101459133 L488.087115957,386.145449407 L492.971128984,389.027394292 L489.638830787,392.04509588 L488.820048835,409.422831154 L485.617597091,425.191111338 L486.486416839,429.398241277 L481.389536061,430.650817583 L474.603921543,428.111909807 L466.208569898,428.110655634 L464.270682414,430.923413506 L465.360865368,434.620353023 L462.223083463,437.572869229 L462.457600374,441.522868499 L447.035680447,442.118564231 L438.832174014,446.311253344 L439.64921948,448.980421265 L437.311649629,460.744377405 L439.717351612,459.746261473 L443.733506427,461.148319002 L444.872460341,464.510819197 L444.29989216,472.079320892 L447.184042114,475.645837724 L451.498361938,476.935966087 L451.946914986,479.778031721 L459.264051171,486.082862724 L463.571909714,493.314832016 L463.387677812,501.342309329 L466.147851457,506.976650436 L464.602377313,514.733317518 L461.086638617,521.998001897 L461.153963942,530.306570547 L451.588862159,539.189071574 L446.925671136,537.724162819 L443.229505608,539.35039339 L436.215987118,538.291234807 L419.923414616,527.0986978 L404.662504116,537.431531991 L398.514180026,536.943312603 L384.636112755,538.379846583 L375.663481989,535.518160235 L389.803272501,525.630955037 L395.099254263,503.120001232 L389.45512206,503.443309986 L387.337199833,498.24931073 L389.519073287,496.085937355 L390.647691143,487.030544008 L395.636212817,489.595102793 L399.219076987,485.47490032 L400.306757177,477.597760192 L412.960455948,445.234386072 L410.286771126,440.530491919 L407.641134371,441.123630114 L406.5325826,437.761373881 L398.296057443,438.872667792 L397.033496335,433.861455744 L390.209533749,435.174053226 L379.961914539,428.76229636 L373.880610591,429.301320726 L372.49967021,425.533129041 L373.568301757,419.863132811 L372.526534812,416.597472548 L361.868367597,398.395882581 L356.210649656,392.651447506 L345.213137347,381.855228824 L346.811350104,375.587303361 L336.537095462,364.031014853 L338.233671429,356.165371575 L331.889362649,347.943254706 L326.586890065,323.15102998 L327.276093892,320.613927913 L348.6989646,312.694518063 L349.888698202,310.207388916 L348.362348039,306.9057422 L313.586068757,306.373499322 L308.138552283,305.008873865 L278.602752084,307.199200148 L258.579546888,304.562394342 L252.168768731,305.136869157 L249.232308075,303.474410768 L249.270019333,273.485814941 L258.00034546,271.181116165 L253.000377459,267.95209512 L255.142716975,264.49942451 L254.346760731,258.500974787 L250.676275177,257.799778136 L249.354609608,252.981159898 L254.537160516,246.263591389 L256.511410229,238.843165376 L255.519451266,232.925780205 L256.480441469,229.842799342 L259.621136892,227.361469984 L261.863804211,228.180920268 L266.713051571,223.42382529 L267.798994965,209.879490401 L271.045279513,197.719794342 L273.951275224,198.260181547 L286.798619416,195.199359223 L294.332728472,196.526275775 L307.815404041,180.680381184 L311.796039764,180.60389855 L317.256194081,175.980251178 L327.626929319,174.571363639 L331.326774899,172.111760383 L336.908790372,180.939353677 L355.706220131,189.369314278 L361.452448365,189.783329396 L364.747133233,196.635445713 L370.66028625,203.631834031 L374.516961283,205.790252734 L366.929029449,214.692351428 L368.672982721,220.48432758 L367.945433687,226.154144204 L365.36743686,228.802424497 L366.855054798,231.998144836 L363.924011088,235.603091303 L355.864916404,253.74413555 L357.124876026,261.18570153 L359.941826866,266.502531178 L370.963144294,278.250599769 L389.981382262,289.463493864 L387.362760268,298.545653974 L387.376371264,306.346572636 L389.087222275,309.433419122 L395.976691333,312.934661829 L402.015252187,313.479487201 L416.899179802,320.98448743 L420.741446383,321.670591837 L424.293019778,320.178425998 L432.878751557,323.508523526 L441.094295931,324.715640663 L446.618670471,329.068044898 L454.508100902,332.065294082 L458.322665429,335.767366197 Z" fill="#cee3f5" id="ZW.MI" stroke="#6e6e6e" stroke-width="0.4"><desc><labelrank>5</labelrank><code_hasc>ZW.MI</code_hasc><name>Midlands</name><admin>Zimbabwe</admin><type_en>Province</type_en><region /><woe_id>2347811</woe_id><longitude>29</longitude><woe_name>Midlands</woe_name><fips>ZI02</fips><woe_label>Midlands, ZW, Zimbabwe</woe_label><latitude>-19</latitude><iso_a2>ZW</iso_a2><postal>MI</postal><type>Province</type><id>ZW.MI</id></desc></path><path d="M695.471529941,192.273233326 L686.213540955,195.210308322 L676.987147643,201.928505958 L672.583881542,211.184033417 L665.689726024,214.245856893 L664.390465304,218.517457867 L660.517265328,222.421689939 L651.093110448,225.800157988 L647.183496337,229.695173389 L640.999889686,230.341158694 L632.061864347,237.143089174 L628.986085231,241.364179117 L621.624079718,244.59879881 L619.648147922,253.128859611 L598.060270096,273.882124207 L597.705150764,277.630789578 L593.362220187,283.771587452 L593.647320753,291.270961603 L592.016968063,297.585778649 L584.907717818,299.875855831 L582.165251826,305.580104814 L584.429581514,311.121275822 L584.284091616,317.107240553 L590.497587948,328.678893202 L595.469698801,330.737906452 L598.843876937,344.383702071 L603.017450368,350.987392629 L602.110975271,364.529726181 L595.141603477,363.687861511 L588.391694732,360.908512736 L581.097047195,354.892942071 L573.476266984,355.409841712 L567.764453459,353.409589743 L568.451777979,355.640088716 L566.945690251,359.352507129 L562.610850652,365.517998163 L557.408639394,364.240909145 L556.86284839,361.845367902 L553.977978406,359.496754003 L551.288572955,361.04036641 L544.628195993,359.876551629 L542.883049903,361.798143949 L541.642822855,372.322243475 L531.868354165,373.563440162 L514.067475039,372.949429312 L514.958794612,364.973493561 L511.24387264,364.395136258 L505.552180424,367.7203145 L505.588172871,371.643892121 L501.661259592,375.101459133 L496.878523139,373.075648422 L489.3851649,365.43681115 L490.790276529,359.900672516 L485.862405378,350.710058444 L487.110593621,347.776820577 L477.457460259,345.643317361 L464.584009881,337.772914112 L458.322665429,335.767366197 L466.373558526,319.070116904 L470.568678751,327.162413894 L474.240837425,326.147260937 L474.682663737,323.385752713 L480.246855687,325.237987611 L480.512855523,321.655755661 L484.261298082,323.1052469 L493.433785041,311.288438411 L495.128129767,295.747738897 L497.84299902,291.964732507 L490.021541796,282.489940666 L489.760578079,277.591272781 L494.866770507,272.168345659 L496.247147803,265.72172636 L498.609196141,263.076762629 L497.197613855,258.154043705 L500.692406977,254.255638194 L500.703264649,249.004145436 L506.08921912,251.345131124 L521.827174072,261.365629619 L528.69950172,258.649347518 L527.580360387,256.945702857 L530.079591929,254.689072275 L530.265312392,249.487773528 L534.355544341,247.600819143 L536.998135513,242.590155714 L534.856451735,234.58331025 L535.030508147,229.284784447 L529.191525881,228.289568026 L527.53493284,225.587852074 L525.440975077,225.27623915 L527.391257047,217.482101546 L525.605961494,213.781679473 L531.441175909,206.893889233 L546.278277243,208.660660894 L542.733320409,218.639652346 L544.144341991,222.300527898 L548.034431683,220.797517736 L552.082333866,221.732950731 L558.89330216,215.881652179 L560.530854083,216.32678838 L564.14743457,210.861207171 L572.437076792,206.669783564 L585.187704634,192.768262359 L586.672828646,181.776093558 L597.897109743,172.032257829 L602.61290432,161.419934678 L608.942683436,156.824490415 L611.251961801,150.006029556 L615.651145491,146.161405602 L625.650065014,145.989468002 L631.773398943,142.972693223 L637.716595593,142.942130415 L646.819075045,138.889994291 L669.503721416,142.615774591 L675.549248831,139.357786046 L679.054467257,138.221511996 L690.215155068,140.13984398 L697.092422139,137.454200458 L691.899147432,152.907753881 L683.760924601,160.851531119 L694.411195827,182.951942423 L695.471529941,192.273233326 Z" fill="#cee3f5" id="ZW.ME" stroke="#6e6e6e" stroke-width="0.4"><desc><labelrank>5</labelrank><code_hasc>ZW.ME</code_hasc><name>Mashonaland East</name><admin>Zimbabwe</admin><type_en>Province</type_en><region /><woe_id>2347813</woe_id><longitude>31</longitude><woe_name>Mashonaland East</woe_name><fips>ZI04</fips><woe_label>Mashonaland East, ZW, Zimbabwe</woe_label><latitude>-18</latitude><iso_a2>ZW</iso_a2><postal>ME</postal><type>Province</type><id>ZW.ME</id></desc></path><path d="M633.195556602,567.895722425 L623.630973903,560.337664601 L620.348694689,548.987188426 L613.857453047,545.230954941 L614.67465283,542.911820075 L612.293033509,540.440280198 L610.314831537,533.179767005 L623.473861234,502.169531763 L625.218942477,484.514889406 L630.458785664,458.300475206 L630.112747565,447.223181886 L618.224284971,438.959237101 L611.227125397,438.177361762 L603.109450221,433.189228021 L596.250522127,426.703324075 L587.33592495,412.002355104 L580.32951178,406.908867684 L575.507743341,397.831621224 L566.132564392,395.234207597 L556.462447819,388.027289799 L551.488581813,387.830930362 L531.868354165,373.563440162 L541.642822855,372.322243475 L542.883049903,361.798143949 L544.628195993,359.876551629 L551.288572955,361.04036641 L553.977978406,359.496754003 L556.86284839,361.845367902 L557.408639394,364.240909145 L562.610850652,365.517998163 L566.945690251,359.352507129 L568.451777979,355.640088716 L567.764453459,353.409589743 L573.476266984,355.409841712 L581.097047195,354.892942071 L588.391694732,360.908512736 L595.141603477,363.687861511 L602.110975271,364.529726181 L603.017450368,350.987392629 L598.843876937,344.383702071 L595.469698801,330.737906452 L590.497587948,328.678893202 L584.284091616,317.107240553 L584.429581514,311.121275822 L582.165251826,305.580104814 L584.907717818,299.875855831 L592.016968063,297.585778649 L593.647320753,291.270961603 L593.362220187,283.771587452 L597.705150764,277.630789578 L598.060270096,273.882124207 L619.648147922,253.128859611 L621.624079718,244.59879881 L628.986085231,241.364179117 L632.061864347,237.143089174 L640.999889686,230.341158694 L647.183496337,229.695173389 L651.093110448,225.800157988 L660.517265328,222.421689939 L664.390465304,218.517457867 L665.689726024,214.245856893 L672.583881542,211.184033417 L676.987147643,201.928505958 L686.213540955,195.210308322 L695.471529941,192.273233326 L696.628045709,197.156869084 L699.370280134,199.018332631 L700.0,201.366915896 L691.841925941,214.995364752 L693.06656446,218.982535355 L697.925301203,221.91112402 L699.419293854,225.549010565 L697.410344669,230.773238461 L696.607760474,241.89667036 L691.723457424,245.5341616 L690.776731356,249.287881111 L691.949596662,255.447706931 L689.629603408,258.439263646 L693.311114813,278.313235395 L691.24422592,285.096143983 L698.813277597,294.331732535 L693.483873019,299.831622758 L694.303536682,304.992169549 L682.846778141,311.057020091 L682.815163611,314.568055232 L686.971107315,325.969680575 L684.949078033,333.538493874 L683.361302726,334.737339603 L674.637705409,334.770257316 L665.916341652,338.522696601 L666.205729422,344.438789417 L667.82918595,346.615523158 L664.629212762,349.809640076 L666.019244312,356.168870323 L676.290170069,356.651887491 L679.820956969,362.396694157 L680.279495167,365.633223867 L676.761523513,381.14479938 L671.185944256,388.378982251 L670.382849688,397.771619291 L675.84919564,399.382651379 L676.386435755,401.438388258 L674.714241282,417.661374538 L679.330489716,419.314768631 L685.771451013,415.696469119 L687.319550217,416.643565568 L687.195260513,423.830330762 L693.282164387,428.627470614 L690.069410726,441.925865821 L690.182804981,451.790946894 L685.443487885,451.455882745 L682.846620141,456.64253556 L679.138275991,458.063384554 L675.706005602,473.981572679 L664.886423119,486.775728744 L658.840062791,497.604233818 L656.518945027,499.977693975 L644.727614488,500.193834958 L641.823547234,503.703104105 L640.454791883,511.521427473 L641.588545854,534.970212695 L627.654598561,553.046158073 L631.143723089,556.111898271 L630.291039121,558.187025248 L636.514738308,570.201905786 L633.195556602,567.895722425 Z" fill="#cee3f5" id="ZW.MA" stroke="#6e6e6e" stroke-width="0.4"><desc><labelrank>5</labelrank><code_hasc>ZW.MA</code_hasc><name>Manicaland</name><admin>Zimbabwe</admin><type_en>Province</type_en><region /><woe_id>2347810</woe_id><longitude>32</longitude><woe_name>Manicaland</woe_name><fips>ZI01</fips><woe_label>Manicaland, ZW, Zimbabwe</woe_label><latitude>-18</latitude><iso_a2>ZW</iso_a2><postal>MA</postal><type>Province</type><id>ZW.MA</id></desc></path><path d="M398.514180026,536.943312603 L400.386812822,542.793517613 L407.783088738,549.703561921 L408.69495585,553.450784484 L411.991668631,556.086422774 L412.413987836,559.999183433 L414.405460014,561.079756873 L418.360192454,568.548362507 L423.43955256,572.3620319 L431.31499521,581.773109765 L436.6843551,582.930192868 L437.670225223,585.164449925 L442.403460627,587.476248186 L443.24374674,590.771742685 L454.202721007,591.933558255 L465.99990117,597.611325425 L465.584225645,599.797527018 L469.185355137,604.788493085 L476.560881689,606.299767609 L479.42158971,613.879382811 L482.428293232,616.181418083 L487.485932289,625.573233234 L489.853990396,627.445898971 L488.962421835,631.013479944 L492.889437602,632.727313313 L496.622206219,637.790541927 L499.431408839,638.152650671 L501.6289302,644.722193652 L504.666490787,646.1223297 L505.366468299,648.3037221 L508.185460784,648.72646384 L511.368773025,658.591772028 L513.974134482,659.33956332 L515.491134773,662.178791424 L493.055257528,656.661190769 L480.472290888,658.262815018 L475.055984756,660.743309967 L462.570629816,658.532887617 L449.141516266,661.459215888 L439.39399412,656.208722893 L431.851151167,656.301248938 L423.489597721,652.407822535 L420.687371697,649.403019806 L406.153418201,644.463155899 L399.392899232,640.452740514 L389.133018466,640.115824523 L381.266161445,641.54707684 L379.550824079,643.992397465 L373.047523309,642.609881485 L364.298822746,645.47635322 L357.139779527,639.212114955 L354.223822284,634.260533713 L342.784880122,633.778559858 L336.970600761,629.187885852 L334.741552936,621.632806386 L335.153958508,617.687128057 L338.701489757,611.290613861 L337.08985851,608.342079018 L321.612342142,604.359935405 L300.320576318,593.815262416 L294.940734398,592.775274228 L287.110229368,594.920368687 L274.694225603,589.497742784 L248.035129036,586.439358803 L242.53473832,580.572795257 L241.387470965,577.534115547 L242.313647086,573.832123321 L236.677305546,561.827036362 L228.750805489,551.2517157 L221.362110718,545.337227642 L217.655201447,539.412873979 L218.560444616,520.311509436 L221.554567272,510.052716603 L219.217956514,498.89267128 L221.018682062,492.24901594 L220.645979658,486.918673733 L211.217603228,483.541482786 L189.203563619,483.44992495 L182.832449814,485.56170585 L184.229142122,472.088770472 L182.662732384,461.130419543 L177.016517135,447.937206366 L167.803343843,445.679956297 L161.566063214,440.185510524 L152.597275623,439.327756516 L142.600734771,434.248883321 L135.452542944,433.274082912 L130.693406625,428.699501096 L136.490736523,425.690737971 L153.767825864,421.514389279 L171.19820787,420.461306899 L182.377713894,422.11530381 L186.427980717,420.14827229 L191.844395266,420.709284556 L199.571100665,424.873818368 L205.695119963,426.291253727 L208.779499691,429.756802821 L209.694334223,434.600661305 L216.181572757,442.341585176 L232.289218941,455.912716087 L239.848846168,456.961186178 L243.224674352,445.193025637 L247.259272462,450.835072151 L260.01240006,447.417374671 L263.881474154,451.021330615 L265.705384301,456.030654528 L271.709938417,462.336703009 L276.586533534,471.195080694 L291.430237778,461.299885683 L293.345332951,463.156795827 L296.720972704,460.812831462 L300.254801509,462.029411166 L304.765265568,465.781787021 L306.633164088,465.786085009 L321.482438251,448.86962158 L321.731460564,443.662262642 L333.284933208,437.574313947 L335.095785655,434.254036973 L332.63817134,424.915010918 L340.871382304,425.012995851 L343.53082498,422.80485891 L344.94796189,418.365014778 L345.153555298,412.842930728 L341.284289817,408.314176443 L347.097576301,402.179995028 L347.372335473,399.223104291 L344.458106366,394.20356536 L346.952734732,393.176605453 L353.371283707,395.498072439 L356.210649656,392.651447506 L361.868367597,398.395882581 L372.526534812,416.597472548 L373.568301757,419.863132811 L372.49967021,425.533129041 L373.880610591,429.301320726 L379.961914539,428.76229636 L390.209533749,435.174053226 L397.033496335,433.861455744 L398.296057443,438.872667792 L406.5325826,437.761373881 L407.641134371,441.123630114 L410.286771126,440.530491919 L412.960455948,445.234386072 L400.306757177,477.597760192 L399.219076987,485.47490032 L395.636212817,489.595102793 L390.647691143,487.030544008 L389.519073287,496.085937355 L387.337199833,498.24931073 L389.45512206,503.443309986 L395.099254263,503.120001232 L389.803272501,525.630955037 L375.663481989,535.518160235 L384.636112755,538.379846583 L398.514180026,536.943312603 Z" fill="#cee3f5" id="ZW.MS" stroke="#6e6e6e" stroke-width="0.4"><desc><labelrank>5</labelrank><code_hasc>ZW.MS</code_hasc><name>Matabeleland South</name><admin>Zimbabwe</admin><type_en>Province</type_en><region /><woe_id>2347816</woe_id><longitude>28</longitude><woe_name>Matabeleland South</woe_name><fips>ZI07</fips><woe_label>Matabeleland South, ZW, Zimbabwe</woe_label><latitude>-20</latitude><iso_a2>ZW</iso_a2><postal>MS</postal><type>Province</type><id>ZW.MS</id></desc></path><path d="M300.254801509,462.029411166 L296.720972704,460.812831462 L293.345332951,463.156795827 L291.430237778,461.299885683 L292.574591807,458.741841584 L290.950751431,455.844896623 L281.987872816,454.854623055 L284.252420819,452.315100871 L284.490633245,442.536339599 L291.379392652,445.691013148 L298.500152683,443.313643585 L298.600681456,447.157662617 L302.078506975,448.842201607 L305.530446303,448.470564093 L307.548108987,451.030425517 L306.451018325,454.920606006 L309.057694953,458.611725757 L306.164208589,460.779235162 L300.254801509,462.029411166 Z" fill="#cee3f5" id="ZW.BU" stroke="#6e6e6e" stroke-width="0.4"><desc><labelrank>5</labelrank><code_hasc>ZW.BU</code_hasc><name>Bulawayo</name><admin>Zimbabwe</admin><type_en>City</type_en><region /><woe_id>24550730</woe_id><longitude>28</longitude><woe_name>Bulawayo</woe_name><fips>ZI09</fips><woe_label>Bulawayo, ZW, Zimbabwe</woe_label><latitude>-20</latitude><iso_a2>ZW</iso_a2><postal>BU</postal><type>City</type><id>ZW.BU</id></desc></path><path d="M531.868354165,373.563440162 L551.488581813,387.830930362 L556.462447819,388.027289799 L566.132564392,395.234207597 L575.507743341,397.831621224 L580.32951178,406.908867684 L587.33592495,412.002355104 L596.250522127,426.703324075 L603.109450221,433.189228021 L611.227125397,438.177361762 L618.224284971,438.959237101 L630.112747565,447.223181886 L630.458785664,458.300475206 L625.218942477,484.514889406 L623.473861234,502.169531763 L610.314831537,533.179767005 L612.293033509,540.440280198 L614.67465283,542.911820075 L613.857453047,545.230954941 L620.348694689,548.987188426 L623.630973903,560.337664601 L633.195556602,567.895722425 L544.907822637,659.93245713 L532.031489989,668.486803292 L529.239233069,664.718563363 L525.557694294,664.982757028 L520.375652111,660.579151558 L515.491134773,662.178791424 L513.974134482,659.33956332 L511.368773025,658.591772028 L508.185460784,648.72646384 L505.366468299,648.3037221 L504.666490787,646.1223297 L501.6289302,644.722193652 L499.431408839,638.152650671 L496.622206219,637.790541927 L492.889437602,632.727313313 L488.962421835,631.013479944 L489.853990396,627.445898971 L487.485932289,625.573233234 L482.428293232,616.181418083 L479.42158971,613.879382811 L476.560881689,606.299767609 L469.185355137,604.788493085 L465.584225645,599.797527018 L465.99990117,597.611325425 L454.202721007,591.933558255 L443.24374674,590.771742685 L442.403460627,587.476248186 L437.670225223,585.164449925 L436.6843551,582.930192868 L431.31499521,581.773109765 L423.43955256,572.3620319 L418.360192454,568.548362507 L414.405460014,561.079756873 L412.413987836,559.999183433 L411.991668631,556.086422774 L408.69495585,553.450784484 L407.783088738,549.703561921 L400.386812822,542.793517613 L398.514180026,536.943312603 L404.662504116,537.431531991 L419.923414616,527.0986978 L436.215987118,538.291234807 L443.229505608,539.35039339 L446.925671136,537.724162819 L451.588862159,539.189071574 L461.153963942,530.306570547 L461.086638617,521.998001897 L464.602377313,514.733317518 L466.147851457,506.976650436 L463.387677812,501.342309329 L463.571909714,493.314832016 L459.264051171,486.082862724 L451.946914986,479.778031721 L451.498361938,476.935966087 L447.184042114,475.645837724 L444.29989216,472.079320892 L444.872460341,464.510819197 L443.733506427,461.148319002 L439.717351612,459.746261473 L437.311649629,460.744377405 L439.64921948,448.980421265 L438.832174014,446.311253344 L447.035680447,442.118564231 L462.457600374,441.522868499 L462.223083463,437.572869229 L465.360865368,434.620353023 L464.270682414,430.923413506 L466.208569898,428.110655634 L474.603921543,428.111909807 L481.389536061,430.650817583 L486.486416839,429.398241277 L485.617597091,425.191111338 L488.820048835,409.422831154 L489.638830787,392.04509588 L492.971128984,389.027394292 L488.087115957,386.145449407 L501.661259592,375.101459133 L505.588172871,371.643892121 L505.552180424,367.7203145 L511.24387264,364.395136258 L514.958794612,364.973493561 L514.067475039,372.949429312 L531.868354165,373.563440162 Z" fill="#cee3f5" id="ZW.MV" stroke="#6e6e6e" stroke-width="0.4"><desc><labelrank>6</labelrank><code_hasc>ZW.MV</code_hasc><name>Masvingo</name><admin>Zimbabwe</admin><type_en>Province</type_en><region /><woe_id>2347817</woe_id><longitude>31</longitude><woe_name>Masvingo</woe_name><fips>ZI08</fips><woe_label>Masvingo, ZW, Zimbabwe</woe_label><latitude>-20</latitude><iso_a2>ZW</iso_a2><postal>MV</postal><type>Province</type><id>ZW.MV</id></desc></path><path d="M457.513092253,34.3779995058 L457.244009581,39.1674894603 L459.809593961,44.798406565 L458.717646237,47.2794342531 L434.280686585,67.9299899037 L434.865527656,70.1028687187 L438.118395383,72.2332704584 L437.750031406,76.2569883336 L439.427405708,81.1858826293 L442.964305912,82.8967530801 L443.236078958,84.3600277835 L438.791050595,89.0078326537 L438.541916139,96.2075755638 L434.072524337,103.652663364 L437.134929526,104.993721918 L439.022432206,102.3314198 L443.460732843,102.477079141 L447.980496078,100.127033304 L449.29745174,98.2730287971 L449.080602645,94.2687973032 L453.923313178,92.9153450945 L456.672718482,93.7713284735 L459.908854048,99.6711590478 L467.145678186,100.269638653 L468.941273595,106.669787768 L463.539266043,124.755078359 L465.548041903,128.573294554 L474.324490245,133.191027326 L475.344624489,138.733755915 L478.471626713,142.003821649 L476.087706741,148.791273564 L476.638681791,157.772567323 L479.215895065,160.598646534 L477.818676936,161.979965216 L478.152454423,166.650736275 L484.297422904,168.039827206 L487.97750963,166.203697684 L489.210231034,168.412075225 L492.172807997,167.414156578 L494.780763418,169.170617815 L493.28840379,178.381522455 L488.337860079,184.06456136 L489.408863884,186.618314512 L484.194429913,196.120804619 L485.429375906,202.956076647 L484.142855568,214.215428311 L498.094891496,215.106807382 L497.289477458,221.072153312 L508.999252378,227.273141186 L511.735393208,225.448785537 L513.395619404,226.092939465 L515.769060868,230.273431878 L512.111343718,236.03391052 L508.559429368,238.387308536 L508.341062922,244.843990199 L511.854370837,249.50780397 L506.08921912,251.345131124 L500.703264649,249.004145436 L500.692406977,254.255638194 L497.197613855,258.154043705 L498.609196141,263.076762629 L496.247147803,265.72172636 L494.866770507,272.168345659 L489.760578079,277.591272781 L490.021541796,282.489940666 L497.84299902,291.964732507 L495.128129767,295.747738897 L493.433785041,311.288438411 L484.261298082,323.1052469 L480.512855523,321.655755661 L480.246855687,325.237987611 L474.682663737,323.385752713 L474.240837425,326.147260937 L470.568678751,327.162413894 L466.373558526,319.070116904 L458.322665429,335.767366197 L454.508100902,332.065294082 L446.618670471,329.068044898 L441.094295931,324.715640663 L432.878751557,323.508523526 L424.293019778,320.178425998 L420.741446383,321.670591837 L416.899179802,320.98448743 L402.015252187,313.479487201 L395.976691333,312.934661829 L389.087222275,309.433419122 L387.376371264,306.346572636 L387.362760268,298.545653974 L389.981382262,289.463493864 L370.963144294,278.250599769 L359.941826866,266.502531178 L357.124876026,261.18570153 L355.864916404,253.74413555 L363.924011088,235.603091303 L366.855054798,231.998144836 L365.36743686,228.802424497 L367.945433687,226.154144204 L368.672982721,220.48432758 L366.929029449,214.692351428 L374.516961283,205.790252734 L370.66028625,203.631834031 L364.747133233,196.635445713 L361.452448365,189.783329396 L355.706220131,189.369314278 L336.908790372,180.939353677 L331.326774899,172.111760383 L327.626929319,174.571363639 L317.256194081,175.980251178 L311.796039764,180.60389855 L307.815404041,180.680381184 L294.332728472,196.526275775 L286.798619416,195.199359223 L273.951275224,198.260181547 L271.045279513,197.719794342 L269.592528379,193.072719669 L263.661648358,188.320969034 L261.422767868,173.352903555 L257.188680183,172.22838434 L252.963479967,167.625839642 L254.26118202,161.089556287 L251.940059477,159.301427212 L252.904395883,154.321930171 L251.180537389,146.786751732 L259.375807473,143.297460477 L274.394301467,132.086599959 L307.184709696,119.460038604 L316.033395011,117.845281782 L323.409250949,110.448425168 L326.609531442,102.764255482 L324.833552465,95.1024945226 L327.367868573,88.1073123571 L325.853143021,85.4292364741 L328.105605125,74.6666402787 L327.176130201,71.1251022446 L333.756581807,63.1823852395 L343.708963607,61.6457838691 L347.726649418,55.9217842179 L356.849994384,49.3142615459 L376.911684854,40.3211764778 L386.107901083,39.4333855624 L391.130949171,35.6208805197 L401.028416333,35.8493051205 L415.985281597,31.5131967077 L431.641046157,34.6654652355 L442.492282087,32.7160515526 L449.434604508,35.5735445485 L453.784817498,33.3688663979 L457.513092253,34.3779995058 Z" fill="#cee3f5" id="ZW.MW" stroke="#6e6e6e" stroke-width="0.4"><desc><labelrank>5</labelrank><code_hasc>ZW.MW</code_hasc><name>Mashonaland West</name><admin>Zimbabwe</admin><type_en>Province</type_en><region /><woe_id>2347814</woe_id><longitude>29</longitude><woe_name>Mashonaland West</woe_name><fips>ZI05</fips><woe_label>Mashonaland West, ZW, Zimbabwe</woe_label><latitude>-17</latitude><iso_a2>ZW</iso_a2><postal>MW</postal><type>Province</type><id>ZW.MW</id></desc></path></svg>