<?xml version='1.0' encoding='utf-8'?>
<svg height="700" width="700" xmlns="http://www.w3.org/2000/svg"><path d="M583.65960847,67.5389532561 L578.905313624,78.1662005593 L560.02796644,84.1789852177 L554.294846185,93.268078306 L573.871354375,120.954854175 L569.536556133,138.294047143 L530.383539752,171.154614463 L502.696763883,178.565721135 L494.586496205,179.404714343 L488.433879345,186.256492209 L479.484618458,186.536156612 L474.450659209,192.688773472 L448.022373152,199.121054734 L429.005193767,210.167798642 L422.153415901,218.837395126 L392.22932481,214.222932481 L383.559728326,220.795045945 L378.945265681,201.77786656 L352.09748302,190.45145825 L341.470235717,168.917299241 L351.258489812,150.459448662 L365.521374351,144.726328406 L369.436675989,135.637235318 L369.716340392,132.001598082 L357.411106672,130.463443867 L358.669596484,125.988813424 L348.042349181,117.738713544 L346.644027167,110.607271274 L352.377147423,102.217339193 L349.300838993,88.7934478626 L358.25009988,87.5349580503 L356.851777867,92.9884139033 L363.144226928,83.6196564123 L379.644426688,75.0898921294 L382.580902917,69.4966040751 L576.528166201,73.5517379145 L583.65960847,67.5389532561 Z" fill="#cee3f5" id="PL.WN" stroke="#6e6e6e" stroke-width="0.4"><desc><labelrank>5</labelrank><code_hasc>PL.WN</code_hasc><name>Warmian-Masurian</name><admin>Poland</admin><type_en>Voivodeship|Province</type_en><region /><woe_id>12577948</woe_id><longitude>20</longitude><woe_name>Warmian-Masurian</woe_name><fips>PL61</fips><woe_label>Warmian-Masurian, PL, Poland</woe_label><latitude>53</latitude><iso_a2>PL</iso_a2><postal>WN</postal><type>Województwo</type><id>PL.WN</id></desc></path><path d="M382.580902917,69.4966040751 L379.644426688,75.0898921294 L363.144226928,83.6196564123 L356.851777867,92.9884139033 L358.25009988,87.5349580503 L349.300838993,88.7934478626 L352.377147423,102.217339193 L346.644027167,110.607271274 L348.042349181,117.738713544 L358.669596484,125.988813424 L357.411106672,130.463443867 L369.716340392,132.001598082 L369.436675989,135.637235318 L365.521374351,144.726328406 L351.258489812,150.459448662 L341.470235717,168.917299241 L330.143827407,171.014782261 L316.719936077,161.086695965 L304.834198961,163.324011187 L287.075509389,157.730723132 L282.880543348,153.116260487 L260.787055533,152.696763883 L249.320815022,162.62485018 L248.481821814,168.078306033 L232.540950859,167.239312825 L224.850179784,181.502197363 L218.417898522,175.908909309 L204.714342789,174.930083899 L195.065920895,163.324011187 L194.226927687,151.158609668 L199.121054734,144.866160607 L196.044746304,137.594886137 L203.176188574,136.755892928 L191.989612465,120.815021974 L187.934478626,95.3655613264 L198.282061526,91.7299240911 L196.324410707,85.5773072313 L199.121054734,73.4119057131 L187.514982022,51.5980823012 L224.151018777,33.1402317219 L260.087894527,25.3096284459 L288.194167,24.0511386336 L316.440271674,40.970834998 L321.19456652,47.5429484618 L320.775069916,51.3184178985 L313.643627647,39.7123451858 L295.46544147,30.4834198961 L294.346783859,36.0767079505 L304.554534559,56.6320415501 L304.69436676,67.9584498602 L314.063124251,75.6492209349 L332.940471434,79.8441869756 L357.550938873,76.2085497403 L372.792648821,67.119456652 L382.580902917,69.4966040751 Z" fill="#cee3f5" id="PL.PM" stroke="#6e6e6e" stroke-width="0.4"><desc><labelrank>5</labelrank><code_hasc>PL.PM</code_hasc><name>Pomeranian</name><admin>Poland</admin><type_en>Voivodeship|Province</type_en><region /><woe_id>12577945</woe_id><longitude>18</longitude><woe_name>Pomeranian</woe_name><fips>PL31</fips><woe_label>Pomeranian, PL, Poland</woe_label><latitude>54</latitude><iso_a2>PL</iso_a2><postal>PM</postal><type>Województwo</type><id>PL.PM</id></desc></path><path d="M148.921294447,369.436675989 L155.073911306,368.597682781 L165.561326408,373.911306432 L169.756292449,385.936875749 L188.214143028,397.40311626 L202.75669197,395.30563324 L208.489812225,388.733519776 L224.570515382,391.250499401 L231.422293248,395.864962046 L227.227327207,410.267678785 L228.765481422,414.462644826 L242.469037155,417.538953256 L241.769876149,439.492608869 L230.303635637,443.967239313 L223.451857771,462.425089892 L198.981222533,503.116260487 L190.731122653,506.47223332 L184.858170196,520.595285657 L181.22253296,519.057131442 L179.264882141,521.713943268 L188.913304035,544.366759888 L185.557331203,541.849780264 L175.069916101,546.60407511 L163.324011187,556.95165801 L141.510187775,524.930083899 L135.637235318,525.349580503 L131.162604874,520.455453456 L132.281262485,515.421494207 L142.628845386,511.086695965 L148.082301239,502.836596085 L141.650019976,494.027167399 L134.658409908,491.789852177 L130.463443867,495.844986017 L124.170994806,493.04834199 L116.480223732,497.662804634 L116.060727127,489.133040352 L107.111466241,489.133040352 L103.475829005,481.302437076 L95.7850579305,482.281262485 L78.7255293648,473.751498202 L72.4330803036,476.268477827 L66.0007990412,461.865761087 L67.2592888534,455.99280863 L58.7295245705,448.86136636 L55.9328805433,452.217339193 L48.8014382741,447.323212145 L45.5852976428,450.259688374 L46.2844586496,465.501398322 L33.9792249301,464.802237315 L51.4582500999,422.992409109 L47.2632840591,404.814222932 L60.2676787855,398.801438274 L68.3779464642,402.856572113 L74.6703955254,394.326807831 L79.8441869756,392.788653616 L89.4926088694,398.661606073 L94.5265681183,397.682780663 L119.137035557,366.080703156 L129.764282861,368.457850579 L135.217738714,379.504594487 L140.811026768,378.525769077 L148.921294447,369.436675989 Z" fill="#cee3f5" id="PL.DS" stroke="#6e6e6e" stroke-width="0.4"><desc><labelrank>5</labelrank><code_hasc>PL.DS</code_hasc><name>Lower Silesian</name><admin>Poland</admin><type_en>Voivodeship|Province</type_en><region /><woe_id>12577935</woe_id><longitude>16</longitude><woe_name>Lower Silesian</woe_name><fips>PL66</fips><woe_label>Lower Silesia, PL, Poland</woe_label><latitude>51</latitude><iso_a2>PL</iso_a2><postal>DS</postal><type>Województwo</type><id>PL.DS</id></desc></path><path d="M195.065920895,163.324011187 L187.514982022,163.463843388 L182.341190571,177.307231322 L166.400319616,178.985217739 L167.239312825,187.654814223 L180.803036356,197.443068318 L177.307231322,205.972832601 L160.247702757,214.642429085 L147.662804634,229.045145825 L139.133040352,230.862964443 L131.302437076,226.807830603 L131.302437076,215.900918897 L124.170994806,215.341590092 L110.467439073,227.926488214 L80.8230123851,230.723132241 L84.0391530164,232.960447463 L76.7678785457,242.469037155 L61.9456652018,238.413903316 L55.0938873352,241.630043947 L44.3268078306,258.270075909 L34.9580503396,260.087894527 L31.3224131043,268.198162205 L0.0,237.435077907 L2.23731522173,225.129844187 L16.3603675589,216.040751099 L24.4706352377,193.52776668 L17.0595285657,164.023172193 L15.8010387535,142.349180983 L18.1781861766,136.89572513 L33.4198961247,148.22213344 L36.9157011586,155.073911306 L39.5725129844,149.200958849 L34.6783859369,143.04834199 L37.1953655613,135.777067519 L40.4115061926,135.91689972 L41.3903316021,126.827806632 L38.1741909708,131.022772673 L37.7546943668,126.128645625 L28.9452656812,123.891330404 L28.5257690771,119.836196564 L23.7714742309,122.49300839 L26.2884538554,126.687974431 L20.4155013983,129.204954055 L11.4662405114,118.577706752 L13.9832201358,115.221733919 L26.9876148622,117.878545745 L52.7167399121,106.691969636 L125.289652417,86.1366360368 L143.467838594,83.0603276069 L139.272872553,85.2976428286 L146.404314822,85.5773072313 L149.061126648,81.5221733919 L143.887335198,82.3611666001 L153.256092689,74.9500599281 L150.179784259,79.0051937675 L156.332401119,76.068717539 L156.612065521,73.5517379145 L153.675589293,75.0898921294 L168.77746704,55.9328805433 L187.514982022,51.5980823012 L199.121054734,73.4119057131 L196.324410707,85.5773072313 L198.282061526,91.7299240911 L187.934478626,95.3655613264 L191.989612465,120.815021974 L203.176188574,136.755892928 L196.044746304,137.594886137 L199.121054734,144.866160607 L194.226927687,151.158609668 L195.065920895,163.324011187 Z" fill="#cee3f5" id="PL.ZP" stroke="#6e6e6e" stroke-width="0.4"><desc><labelrank>5</labelrank><code_hasc>PL.ZP</code_hasc><name>West Pomeranian</name><admin>Poland</admin><type_en>Voivodeship|Province</type_en><region /><woe_id>12577950</woe_id><longitude>15</longitude><woe_name>West Pomeranian</woe_name><fips>PL62</fips><woe_label>West Pomeranian, PL, Poland</woe_label><latitude>53</latitude><iso_a2>PL</iso_a2><postal>ZP</postal><type>Województwo</type><id>PL.ZP</id></desc></path><path d="M131.302437076,226.807830603 L129.624450659,240.511386336 L122.632840591,248.761486217 L125.149820216,258.130243708 L115.641230523,261.626048742 L118.298042349,287.634838194 L114.802237315,291.969636436 L118.717538953,300.63923292 L114.662405114,328.186176588 L126.687974431,343.987215342 L131.582101478,344.406711946 L131.302437076,355.733120256 L137.455053935,359.089093088 L142.628845386,355.872952457 L148.921294447,369.436675989 L140.811026768,378.525769077 L135.217738714,379.504594487 L129.764282861,368.457850579 L119.137035557,366.080703156 L94.5265681183,397.682780663 L89.4926088694,398.661606073 L79.8441869756,392.788653616 L74.6703955254,394.326807831 L68.3779464642,402.856572113 L60.2676787855,398.801438274 L47.2632840591,404.814222932 L46.0047942469,397.40311626 L31.1825809029,388.733519776 L33.6995605274,374.330803036 L24.3308030364,357.411106672 L38.4538553736,327.34718338 L33.4198961247,322.033559728 L36.0767079505,309.168997203 L27.5469436676,302.457051538 L25.4494606472,291.969636436 L25.4494606472,287.495005993 L32.3012385138,279.524570515 L31.3224131043,268.198162205 L34.9580503396,260.087894527 L44.3268078306,258.270075909 L55.0938873352,241.630043947 L61.9456652018,238.413903316 L76.7678785457,242.469037155 L84.0391530164,232.960447463 L80.8230123851,230.723132241 L110.467439073,227.926488214 L124.170994806,215.341590092 L131.302437076,215.900918897 L131.302437076,226.807830603 Z" fill="#cee3f5" id="PL.LB" stroke="#6e6e6e" stroke-width="0.4"><desc><labelrank>5</labelrank><code_hasc>PL.LB</code_hasc><name>Lubusz</name><admin>Poland</admin><type_en>Voivodeship|Province</type_en><region /><woe_id>12577939</woe_id><longitude>15</longitude><woe_name>Lubusz</woe_name><fips>PL71</fips><woe_label>Lubusz, PL, Poland</woe_label><latitude>52</latitude><iso_a2>PL</iso_a2><postal>LB</postal><type>Województwo</type><id>PL.LB</id></desc></path><path d="M195.065920895,163.324011187 L204.714342789,174.930083899 L218.417898522,175.908909309 L224.850179784,181.502197363 L217.858569716,191.989612465 L227.367159409,207.371154614 L220.934878146,212.405113863 L223.451857771,221.35437475 L219.117059529,235.337594886 L229.744306832,241.490211746 L232.960447463,248.901318418 L226.388333999,262.325209748 L231.282461047,269.73631642 L237.994406712,268.337994407 L241.490211746,274.210946864 L256.452257291,279.524570515 L274.910107871,293.228126249 L281.901717938,295.045944866 L288.333999201,289.31282461 L293.228126249,296.304434678 L301.61805833,295.46544147 L316.859768278,311.546144626 L329.025169796,308.050339592 L335.59728326,313.084298841 L338.393927287,320.914902117 L327.067518977,327.906512185 L325.809029165,338.114262885 L322.17339193,342.309228925 L312.94446664,343.288054335 L313.224131043,361.745904914 L309.86815821,367.618857371 L298.961246504,367.339192968 L293.088294047,371.673991211 L287.914502597,386.356372353 L286.236516181,411.386336396 L275.469436676,412.78465841 L272.532960447,419.077107471 L267.359168997,420.195765082 L266.240511386,426.348381942 L271.554135038,433.200159808 L272.672792649,441.59009189 L256.032760687,449.280862964 L251.558130244,449.001198562 L246.524170995,440.61126648 L241.769876149,439.492608869 L242.469037155,417.538953256 L228.765481422,414.462644826 L227.227327207,410.267678785 L231.422293248,395.864962046 L224.570515382,391.250499401 L208.489812225,388.733519776 L202.75669197,395.30563324 L188.214143028,397.40311626 L169.756292449,385.936875749 L165.561326408,373.911306432 L155.073911306,368.597682781 L148.921294447,369.436675989 L142.628845386,355.872952457 L137.455053935,359.089093088 L131.302437076,355.733120256 L131.582101478,344.406711946 L126.687974431,343.987215342 L114.662405114,328.186176588 L118.717538953,300.63923292 L114.802237315,291.969636436 L118.298042349,287.634838194 L115.641230523,261.626048742 L125.149820216,258.130243708 L122.632840591,248.761486217 L129.624450659,240.511386336 L131.302437076,226.807830603 L139.133040352,230.862964443 L147.662804634,229.045145825 L160.247702757,214.642429085 L177.307231322,205.972832601 L180.803036356,197.443068318 L167.239312825,187.654814223 L166.400319616,178.985217739 L182.341190571,177.307231322 L187.514982022,163.463843388 L195.065920895,163.324011187 Z" fill="#cee3f5" id="PL.WP" stroke="#6e6e6e" stroke-width="0.4"><desc><labelrank>5</labelrank><code_hasc>PL.WP</code_hasc><name>Greater Poland</name><admin>Poland</admin><type_en>Voivodeship|Province</type_en><region /><woe_id>12577949</woe_id><longitude>17</longitude><woe_name>Greater Poland</woe_name><fips>PL34</fips><woe_label>Greater Poland, PL, Poland</woe_label><latitude>52</latitude><iso_a2>PL</iso_a2><postal>WP</postal><type>Województwo</type><id>PL.WP</id></desc></path><path d="M341.470235717,168.917299241 L352.09748302,190.45145825 L378.945265681,201.77786656 L383.559728326,220.795045945 L376.847782661,225.129844187 L376.847782661,239.252896524 L372.932481023,237.574910108 L364.123052337,243.028365961 L363.004394726,255.613264083 L366.919696364,268.477826608 L363.983220136,269.316819816 L357.690771075,286.516180583 L359.089093088,294.486616061 L353.355972833,306.652017579 L335.59728326,313.084298841 L329.025169796,308.050339592 L316.859768278,311.546144626 L301.61805833,295.46544147 L293.228126249,296.304434678 L288.333999201,289.31282461 L281.901717938,295.045944866 L274.910107871,293.228126249 L256.452257291,279.524570515 L241.490211746,274.210946864 L237.994406712,268.337994407 L231.282461047,269.73631642 L226.388333999,262.325209748 L232.960447463,248.901318418 L229.744306832,241.490211746 L219.117059529,235.337594886 L223.451857771,221.35437475 L220.934878146,212.405113863 L227.367159409,207.371154614 L217.858569716,191.989612465 L224.850179784,181.502197363 L232.540950859,167.239312825 L248.481821814,168.078306033 L249.320815022,162.62485018 L260.787055533,152.696763883 L282.880543348,153.116260487 L287.075509389,157.730723132 L304.834198961,163.324011187 L316.719936077,161.086695965 L330.143827407,171.014782261 L341.470235717,168.917299241 Z" fill="#cee3f5" id="PL.KP" stroke="#6e6e6e" stroke-width="0.4"><desc><labelrank>5</labelrank><code_hasc>PL.KP</code_hasc><name>Kuyavian-Pomeranian</name><admin>Poland</admin><type_en>Voivodeship|Province</type_en><region /><woe_id>12577936</woe_id><longitude>18</longitude><woe_name>Kuyavian-Pomeranian</woe_name><fips>PL68</fips><woe_label>Kuiavia-Pomerania, PL, Poland</woe_label><latitude>53</latitude><iso_a2>PL</iso_a2><postal>KP</postal><type>Województwo</type><id>PL.KP</id></desc></path><path d="M386.636036756,478.925289652 L393.907311227,483.260087895 L386.07670795,490.111865761 L396.004794247,495.705153815 L401.4582501,504.234918098 L392.369157012,512.065521374 L401.737914503,514.862165402 L402.576907711,519.336795845 L393.487814622,525.069916101 L383.280063923,525.908909309 L375.029964043,531.362365162 L369.157011586,529.12504994 L362.165401518,540.591290451 L355.033959249,541.709948062 L362.30523372,550.099880144 L342.029564523,575.129844187 L341.190571314,578.905313624 L354.894127048,598.202157411 L364.962045545,602.536955653 L362.864562525,610.367558929 L365.940870955,614.842189373 L357.970435477,622.952457052 L350.279664403,625.469436676 L345.805033959,637.355173791 L330.283659608,638.753495805 L330.143827407,627.147423092 L320.775069916,625.189772273 L317.558929285,607.291250499 L305.113863364,602.117459049 L300.918897323,580.303635637 L295.325609269,581.422293248 L287.075509389,577.50699161 L281.482221334,580.163803436 L261.765880943,564.502596884 L266.380343588,554.294846185 L286.935677187,546.044746304 L286.656012785,522.413104275 L290.571314423,519.196963644 L290.850978825,512.62485018 L303.435876948,512.205353576 L294.766280463,497.103475829 L299.800239712,481.442269277 L305.393527767,477.806632042 L308.469836197,457.670795046 L326.648022373,453.056332401 L340.631242509,460.747103476 L358.25009988,460.327606872 L369.296843787,474.870155813 L386.636036756,478.925289652 Z" fill="#cee3f5" id="PL.SL" stroke="#6e6e6e" stroke-width="0.4"><desc><labelrank>5</labelrank><code_hasc>PL.SL</code_hasc><name>Silesian</name><admin>Poland</admin><type_en>Voivodeship|Province</type_en><region /><woe_id>12577946</woe_id><longitude>18</longitude><woe_name>Silesian</woe_name><fips>PL29</fips><woe_label>Silesian, PL, Poland</woe_label><latitude>50</latitude><iso_a2>PL</iso_a2><postal>SL</postal><type>Województwo</type><id>PL.SL</id></desc></path><path d="M353.355972833,306.652017579 L377.267279265,319.516580104 L396.424290851,313.783459848 L406.63204155,322.17339193 L409.288853376,332.101478226 L419.916100679,337.135437475 L416.979624451,344.127047543 L421.733919297,355.033959249 L436.276468238,356.851777867 L445.645225729,366.080703156 L445.365561326,375.029964043 L450.119856173,384.398721534 L434.45864962,383.559728326 L432.780663204,389.992009588 L440.331602078,409.568517779 L434.178985218,423.411905713 L429.704354774,431.522173392 L417.95844986,438.933280064 L405.653216141,439.492608869 L402.297243308,448.581701958 L407.750699161,455.153815421 L408.030363564,462.704754295 L406.492209349,464.662405114 L394.466640032,458.369956053 L392.788653616,472.49300839 L386.636036756,478.925289652 L369.296843787,474.870155813 L358.25009988,460.327606872 L340.631242509,460.747103476 L326.648022373,453.056332401 L308.469836197,457.670795046 L299.660407511,447.74270875 L292.109468638,450.399520575 L276.308429884,446.064722333 L272.672792649,441.59009189 L271.554135038,433.200159808 L266.240511386,426.348381942 L267.359168997,420.195765082 L272.532960447,419.077107471 L275.469436676,412.78465841 L286.236516181,411.386336396 L287.914502597,386.356372353 L293.088294047,371.673991211 L298.961246504,367.339192968 L309.86815821,367.618857371 L313.224131043,361.745904914 L312.94446664,343.288054335 L322.17339193,342.309228925 L325.809029165,338.114262885 L327.067518977,327.906512185 L338.393927287,320.914902117 L335.59728326,313.084298841 L353.355972833,306.652017579 Z" fill="#cee3f5" id="PL.LD" stroke="#6e6e6e" stroke-width="0.4"><desc><labelrank>7</labelrank><code_hasc>PL.LD</code_hasc><name>Łódź</name><admin>Poland</admin><type_en>Voivodeship|Province</type_en><region /><woe_id>12577937</woe_id><longitude>19</longitude><woe_name>Łódź</woe_name><fips>PL51</fips><woe_label>Lodz, PL, Poland</woe_label><latitude>51</latitude><iso_a2>PL</iso_a2><postal>LD</postal><type>Województwo</type><id>PL.LD</id></desc></path><path d="M615.401518178,303.296044746 L603.515781063,325.529364762 L589.672393128,322.313224131 L583.100279664,331.122652817 L572.752696764,331.122652817 L563.943268078,337.275269676 L540.870954854,339.512584898 L530.803036356,345.105872952 L539.053136237,364.682381143 L532.760687175,371.114662405 L536.116660008,378.945265681 L529.544546544,382.720735118 L519.336795845,381.88174191 L518.637634838,384.818218138 L522.832600879,389.432680783 L531.22253296,389.852177387 L534.578505793,399.220934878 L529.544546544,436.276468238 L533.040351578,447.043547743 L510.527367159,452.636835797 L493.04834199,449.001198562 L482.141430284,435.717139433 L475.709149021,442.149420695 L457.251298442,442.429085098 L434.178985218,423.411905713 L440.331602078,409.568517779 L432.780663204,389.992009588 L434.45864962,383.559728326 L450.119856173,384.398721534 L445.365561326,375.029964043 L445.645225729,366.080703156 L436.276468238,356.851777867 L421.733919297,355.033959249 L416.979624451,344.127047543 L419.916100679,337.135437475 L409.288853376,332.101478226 L406.63204155,322.17339193 L396.424290851,313.783459848 L377.267279265,319.516580104 L353.355972833,306.652017579 L359.089093088,294.486616061 L357.690771075,286.516180583 L363.983220136,269.316819816 L366.919696364,268.477826608 L363.004394726,255.613264083 L364.123052337,243.028365961 L372.932481023,237.574910108 L376.847782661,239.252896524 L376.847782661,225.129844187 L383.559728326,220.795045945 L392.22932481,214.222932481 L422.153415901,218.837395126 L429.005193767,210.167798642 L448.022373152,199.121054734 L474.450659209,192.688773472 L479.484618458,186.536156612 L488.433879345,186.256492209 L494.586496205,179.404714343 L502.696763883,178.565721135 L512.904514583,212.684778266 L515.70115861,217.299240911 L526.328405913,221.913703556 L525.629244906,226.807830603 L536.116660008,242.888533759 L541.010787056,245.125848981 L549.400719137,240.371554135 L556.112664802,252.676787855 L563.803435877,249.320815022 L567.15940871,270.994806233 L574.850179784,278.685577307 L578.625649221,292.668797443 L605.613264083,295.46544147 L612.185377547,303.855373552 L615.401518178,303.296044746 Z" fill="#cee3f5" id="PL.MZ" stroke="#6e6e6e" stroke-width="0.4"><desc><labelrank>5</labelrank><code_hasc>PL.MZ</code_hasc><name>Masovian</name><admin>Poland</admin><type_en>Voivodeship|Province</type_en><region /><woe_id>12577941</woe_id><longitude>21</longitude><woe_name>Masovian</woe_name><fips>PL59</fips><woe_label>Masovian, PL, Poland</woe_label><latitude>52</latitude><iso_a2>PL</iso_a2><postal>MZ</postal><type>Województwo</type><id>PL.MZ</id></desc></path><path d="M533.040351578,447.043547743 L532.341190571,460.607271274 L536.116660008,472.353176189 L534.998002397,486.336396324 L520.735117859,506.332401119 L498.361965641,521.014782261 L490.391530164,529.684378746 L485.91689972,528.425888933 L464.662405114,537.37514982 L461.865761087,534.718337994 L451.238513783,548.981222533 L441.729924091,548.841390332 L436.416300439,545.765081902 L425.509388734,524.091090691 L408.589692369,514.7223332 L401.737914503,514.862165402 L392.369157012,512.065521374 L401.4582501,504.234918098 L396.004794247,495.705153815 L386.07670795,490.111865761 L393.907311227,483.260087895 L386.636036756,478.925289652 L392.788653616,472.49300839 L394.466640032,458.369956053 L406.492209349,464.662405114 L408.030363564,462.704754295 L407.750699161,455.153815421 L402.297243308,448.581701958 L405.653216141,439.492608869 L417.95844986,438.933280064 L429.704354774,431.522173392 L434.178985218,423.411905713 L457.251298442,442.429085098 L475.709149021,442.149420695 L482.141430284,435.717139433 L493.04834199,449.001198562 L510.527367159,452.636835797 L533.040351578,447.043547743 Z" fill="#cee3f5" id="PL.SK" stroke="#6e6e6e" stroke-width="0.4"><desc><labelrank>5</labelrank><code_hasc>PL.SK</code_hasc><name>Świętokrzyskie</name><admin>Poland</admin><type_en>Voivodeship|Province</type_en><region /><woe_id>12577947</woe_id><longitude>20</longitude><woe_name>Świętokrzyskie</woe_name><fips>PL36</fips><woe_label>Swietokrzyskie, PL, Poland</woe_label><latitude>50</latitude><iso_a2>PL</iso_a2><postal>SK</postal><type>Województwo</type><id>PL.SK</id></desc></path><path d="M621.693967239,303.71554135 L615.401518178,303.296044746 L612.185377547,303.855373552 L605.613264083,295.46544147 L578.625649221,292.668797443 L574.850179784,278.685577307 L567.15940871,270.994806233 L563.803435877,249.320815022 L556.112664802,252.676787855 L549.400719137,240.371554135 L541.010787056,245.125848981 L536.116660008,242.888533759 L525.629244906,226.807830603 L526.328405913,221.913703556 L515.70115861,217.299240911 L512.904514583,212.684778266 L502.696763883,178.565721135 L530.383539752,171.154614463 L569.536556133,138.294047143 L573.871354375,120.954854175 L554.294846185,93.268078306 L560.02796644,84.1789852177 L578.905313624,78.1662005593 L583.65960847,67.5389532561 L593.587694766,68.2381142629 L600.019976029,77.7467039553 L604.354774271,76.488214143 L617.918497803,83.3399920096 L627.287255294,91.8697562924 L631.202556932,104.174990012 L629.105073911,111.446264483 L640.711146624,152.556931682 L664.482620855,202.896524171 L662.804634439,212.544946065 L667.698761486,224.570515382 L669.0970835,253.795445465 L635.11785857,277.566919696 L621.693967239,303.71554135 Z" fill="#cee3f5" id="PL.PD" stroke="#6e6e6e" stroke-width="0.4"><desc><labelrank>5</labelrank><code_hasc>PL.PD</code_hasc><name>Podlachian</name><admin>Poland</admin><type_en>Voivodeship|Province</type_en><region /><woe_id>12577944</woe_id><longitude>22</longitude><woe_name>Podlachian</woe_name><fips>PL44</fips><woe_label>Podlaskie, PL, Poland</woe_label><latitude>53</latitude><iso_a2>PL</iso_a2><postal>PD</postal><type>Województwo</type><id>PL.PD</id></desc></path><path d="M621.693967239,303.71554135 L622.952457052,308.749500599 L643.927287255,314.063124251 L646.024770276,320.495405513 L654.974031163,324.410707151 L658.330003995,334.478625649 L650.779065122,372.792648821 L653.435876948,384.398721534 L664.202956452,400.759089093 L660.567319217,412.365161806 L677.766679984,428.865361566 L687.69476628,452.077506992 L700.0,460.327606872 L687.135437475,466.759888134 L696.644027167,476.827806632 L699.860167799,496.404314822 L693.288054335,501.997602877 L691.889732321,512.065521374 L672.732720735,515.840990811 L669.236915701,522.413104275 L649.101078706,512.345185777 L627.706751898,526.468238114 L601.418298042,524.510587295 L602.25729125,520.175789053 L592.189372753,522.692768678 L587.015581302,516.120655214 L589.81222533,511.226528166 L596.104674391,509.268877347 L592.329204954,499.480623252 L563.803435877,490.391530164 L566.320415501,478.925289652 L561.286456252,475.56931682 L545.765081902,478.365960847 L536.116660008,472.353176189 L532.341190571,460.607271274 L533.040351578,447.043547743 L529.544546544,436.276468238 L534.578505793,399.220934878 L531.22253296,389.852177387 L522.832600879,389.432680783 L518.637634838,384.818218138 L519.336795845,381.88174191 L529.544546544,382.720735118 L536.116660008,378.945265681 L532.760687175,371.114662405 L539.053136237,364.682381143 L530.803036356,345.105872952 L540.870954854,339.512584898 L563.943268078,337.275269676 L572.752696764,331.122652817 L583.100279664,331.122652817 L589.672393128,322.313224131 L603.515781063,325.529364762 L615.401518178,303.296044746 L621.693967239,303.71554135 Z" fill="#cee3f5" id="PL.LU" stroke="#6e6e6e" stroke-width="0.4"><desc><labelrank>7</labelrank><code_hasc>PL.LU</code_hasc><name>Lublin</name><admin>Poland</admin><type_en>Voivodeship|Province</type_en><region /><woe_id>12577938</woe_id><longitude>22</longitude><woe_name>Lublin</woe_name><fips>PL23</fips><woe_label>Lublin, PL, Poland</woe_label><latitude>51</latitude><iso_a2>PL</iso_a2><postal>LU</postal><type>Województwo</type><id>PL.LU</id></desc></path><path d="M669.236915701,522.413104275 L631.342389133,566.460247703 L600.15980823,616.520175789 L608.689572513,644.626448262 L605.193767479,657.77067519 L618.337994407,665.741110667 L619.037155414,675.948861366 L611.346384339,670.635237715 L602.956452257,671.19456652 L598.202157411,667.139432681 L586.7359169,667.139432681 L570.934878146,661.685976828 L569.396723931,658.190171794 L555.553335997,654.274870156 L551.498202157,643.507790651 L541.989612465,636.935677187 L536.116660008,639.592489013 L525.769077107,631.482221334 L517.938473831,632.461046744 L510.387534958,600.858969237 L495.705153815,591.210547343 L503.955253696,582.540950859 L495.14582501,573.312025569 L493.188174191,540.591290451 L498.361965641,521.014782261 L520.735117859,506.332401119 L534.998002397,486.336396324 L536.116660008,472.353176189 L545.765081902,478.365960847 L561.286456252,475.56931682 L566.320415501,478.925289652 L563.803435877,490.391530164 L592.329204954,499.480623252 L596.104674391,509.268877347 L589.81222533,511.226528166 L587.015581302,516.120655214 L592.189372753,522.692768678 L602.25729125,520.175789053 L601.418298042,524.510587295 L627.706751898,526.468238114 L649.101078706,512.345185777 L669.236915701,522.413104275 Z" fill="#cee3f5" id="PL.PK" stroke="#6e6e6e" stroke-width="0.4"><desc><labelrank>5</labelrank><code_hasc>PL.PK</code_hasc><name>Subcarpathian</name><admin>Poland</admin><type_en>Voivodeship|Province</type_en><region /><woe_id>12577943</woe_id><longitude>22</longitude><woe_name>Subcarpathian</woe_name><fips>PL63</fips><woe_label>Subcarpathia, PL, Poland</woe_label><latitude>49</latitude><iso_a2>PL</iso_a2><postal>PK</postal><type>Województwo</type><id>PL.PK</id></desc></path><path d="M272.672792649,441.59009189 L276.308429884,446.064722333 L292.109468638,450.399520575 L299.660407511,447.74270875 L308.469836197,457.670795046 L305.393527767,477.806632042 L299.800239712,481.442269277 L294.766280463,497.103475829 L303.435876948,512.205353576 L290.850978825,512.62485018 L290.571314423,519.196963644 L286.656012785,522.413104275 L286.935677187,546.044746304 L266.380343588,554.294846185 L261.765880943,564.502596884 L262.744706352,569.25689173 L248.621654015,572.33320016 L241.070715142,558.489812225 L233.939272873,557.091490212 L230.443467839,552.616859768 L241.630043947,546.464242909 L239.672393128,534.159009189 L233.939272873,539.472632841 L222.33320016,538.913304035 L219.117059529,541.709948062 L216.460247703,538.074310827 L213.10427487,539.332800639 L212.964442669,533.320015981 L203.875349581,530.523371954 L202.337195366,525.769077107 L184.858170196,520.595285657 L190.731122653,506.47223332 L198.981222533,503.116260487 L223.451857771,462.425089892 L230.303635637,443.967239313 L241.769876149,439.492608869 L246.524170995,440.61126648 L251.558130244,449.001198562 L256.032760687,449.280862964 L272.672792649,441.59009189 Z" fill="#cee3f5" id="PL.OP" stroke="#6e6e6e" stroke-width="0.4"><desc><labelrank>7</labelrank><code_hasc>PL.OP</code_hasc><name>Opole</name><admin>Poland</admin><type_en>Voivodeship|Province</type_en><region /><woe_id>12577942</woe_id><longitude>17</longitude><woe_name>Opole</woe_name><fips>PL48</fips><woe_label>Opole, PL, Poland</woe_label><latitude>50</latitude><iso_a2>PL</iso_a2><postal>OP</postal><type>Województwo</type><id>PL.OP</id></desc></path><path d="M498.361965641,521.014782261 L493.188174191,540.591290451 L495.14582501,573.312025569 L503.955253696,582.540950859 L495.705153815,591.210547343 L510.387534958,600.858969237 L517.938473831,632.461046744 L499.200958849,629.384738314 L494.446664003,635.11785857 L485.217738714,633.300039952 L482.700759089,635.537355174 L485.637235318,640.29165002 L474.59049141,648.122253296 L464.103076308,643.787455054 L457.391130643,636.096683979 L446.76388334,639.592489013 L438.793447863,636.236516181 L429.984019177,637.634838194 L427.606871754,643.647622853 L416.839792249,647.143427887 L410.68717539,662.524970036 L402.297243308,656.79184978 L391.110667199,661.126648022 L388.314023172,659.168997203 L392.648821414,651.757890531 L389.712345186,638.054334798 L379.224930084,637.21534159 L379.784258889,632.740711147 L373.911306432,631.342389133 L365.940870955,614.842189373 L362.864562525,610.367558929 L364.962045545,602.536955653 L354.894127048,598.202157411 L341.190571314,578.905313624 L342.029564523,575.129844187 L362.30523372,550.099880144 L355.033959249,541.709948062 L362.165401518,540.591290451 L369.157011586,529.12504994 L375.029964043,531.362365162 L383.280063923,525.908909309 L393.487814622,525.069916101 L402.576907711,519.336795845 L401.737914503,514.862165402 L408.589692369,514.7223332 L425.509388734,524.091090691 L436.416300439,545.765081902 L441.729924091,548.841390332 L451.238513783,548.981222533 L461.865761087,534.718337994 L464.662405114,537.37514982 L485.91689972,528.425888933 L490.391530164,529.684378746 L498.361965641,521.014782261 Z" fill="#cee3f5" id="PL.MA" stroke="#6e6e6e" stroke-width="0.4"><desc><labelrank>5</labelrank><code_hasc>PL.MA</code_hasc><name>Lesser Poland</name><admin>Poland</admin><type_en>Voivodeship|Province</type_en><region /><woe_id>12577940</woe_id><longitude>20</longitude><woe_name>Lesser Poland</woe_name><fips>PL39</fips><woe_label>Lesser Poland, PL, Poland</woe_label><latitude>49</latitude><iso_a2>PL</iso_a2><postal>MA</postal><type>Województwo</type><id>PL.MA</id></desc></path></svg>