<?xml version='1.0' encoding='utf-8'?>
<svg height="700" width="700" xmlns="http://www.w3.org/2000/svg"><path d="M569.438202247,127.415730337 L522.247191011,136.853932584 L489.213483146,140.0 L464.04494382,135.280898876 L427.865168539,97.5280898876 L445.168539326,67.6404494382 L470.337078652,62.9213483146 L511.235955056,88.0898876404 L534.831460674,92.808988764 L569.438202247,127.415730337 Z" fill="#cee3f5" id="CN.chongqing.2089846" stroke="#6e6e6e" stroke-width="0.4"><desc><admin_leve>6</admin_leve><localname>城口县 (Chengkou)</localname><boundary>administrative</boundary><id>CN.chongqing.2089846</id><name>Chengkou County</name></desc></path><path d="M97.5280898876,320.898876404 L99.1011235955,363.370786517 L92.808988764,380.674157303 L69.2134831461,401.123595506 L61.3483146067,394.831460674 L64.4943820225,369.662921348 L44.0449438202,358.651685393 L72.3595505618,313.033707865 L97.5280898876,320.898876404 Z" fill="#cee3f5" id="CN.chongqing.2194821" stroke="#6e6e6e" stroke-width="0.4"><desc><admin_leve>6</admin_leve><localname>潼南县</localname><boundary>administrative</boundary><id>CN.chongqing.2194821</id><name>Tongnan</name></desc></path><path d="M531.685393258,283.146067416 L544.269662921,221.797752809 L536.404494382,177.752808989 L575.730337079,180.898876404 L585.168539326,195.056179775 L610.337078652,195.056179775 L635.505617978,204.494382022 L610.337078652,243.820224719 L624.494382022,264.269662921 L596.179775281,284.719101124 L572.584269663,283.146067416 L550.561797753,297.303370787 L531.685393258,283.146067416 Z" fill="#cee3f5" id="CN.chongqing.2692014" stroke="#6e6e6e" stroke-width="0.4"><desc><admin_leve>6</admin_leve><localname>奉节县 (Fengjie)</localname><boundary>administrative</boundary><id>CN.chongqing.2692014</id><name>Fengjie</name></desc></path><path d="M464.04494382,135.280898876 L489.213483146,140.0 L522.247191011,136.853932584 L501.797752809,147.865168539 L495.505617978,168.314606742 L473.483146067,196.629213483 L465.617977528,217.078651685 L445.168539326,231.235955056 L410.561797753,256.404494382 L385.393258427,243.820224719 L379.101123596,234.382022472 L420.0,157.303370787 L464.04494382,135.280898876 Z" fill="#cee3f5" id="CN.chongqing.2692015" stroke="#6e6e6e" stroke-width="0.4"><desc><admin_leve>6</admin_leve><localname>开县 (Kai)</localname><boundary>administrative</boundary><id>CN.chongqing.2692015</id><name>Kai</name></desc></path><path d="M302.02247191,300.449438202 L317.752808989,281.573033708 L305.168539326,267.415730337 L317.752808989,253.258426966 L368.08988764,257.97752809 L391.685393258,291.011235955 L361.797752809,295.730337079 L338.202247191,313.033707865 L302.02247191,300.449438202 Z" fill="#cee3f5" id="CN.chongqing.2692016" stroke="#6e6e6e" stroke-width="0.4"><desc><admin_leve>6</admin_leve><localname>梁平县 (Liangping)</localname><boundary>administrative</boundary><id>CN.chongqing.2692016</id><name>Liangping</name></desc></path><path d="M368.08988764,257.97752809 L385.393258427,243.820224719 L410.561797753,256.404494382 L445.168539326,231.235955056 L475.056179775,240.674157303 L498.651685393,275.280898876 L515.95505618,292.584269663 L446.741573034,303.595505618 L418.426966292,314.606741573 L391.685393258,291.011235955 L368.08988764,257.97752809 Z" fill="#cee3f5" id="CN.chongqing.2692017" stroke="#6e6e6e" stroke-width="0.4"><desc><name>Wanzhou</name><admin_leve>6</admin_leve><wikipedia>zh:万州区</wikipedia><localname>万州区 (Wanzhou)</localname><boundary>administrative</boundary><id>CN.chongqing.2692017</id></desc></path><path d="M610.337078652,195.056179775 L665.393258427,162.02247191 L692.134831461,174.606741573 L700.0,209.213483146 L684.269662921,259.550561798 L657.528089888,246.966292135 L624.494382022,264.269662921 L610.337078652,243.820224719 L635.505617978,204.494382022 L610.337078652,195.056179775 Z" fill="#cee3f5" id="CN.chongqing.2692018" stroke="#6e6e6e" stroke-width="0.4"><desc><admin_leve>6</admin_leve><localname>巫山县</localname><boundary>administrative</boundary><id>CN.chongqing.2692018</id><name>Wushan</name></desc></path><path d="M522.247191011,136.853932584 L569.438202247,127.415730337 L627.640449438,128.988764045 L665.393258427,162.02247191 L610.337078652,195.056179775 L585.168539326,195.056179775 L575.730337079,180.898876404 L536.404494382,177.752808989 L495.505617978,168.314606742 L501.797752809,147.865168539 L522.247191011,136.853932584 Z" fill="#cee3f5" id="CN.chongqing.2692019" stroke="#6e6e6e" stroke-width="0.4"><desc><admin_leve>6</admin_leve><localname>巫溪县 (Wuxi)</localname><boundary>administrative</boundary><id>CN.chongqing.2692019</id><name>Wuxi</name></desc></path><path d="M445.168539326,231.235955056 L465.617977528,217.078651685 L473.483146067,196.629213483 L495.505617978,168.314606742 L536.404494382,177.752808989 L544.269662921,221.797752809 L531.685393258,283.146067416 L515.95505618,292.584269663 L498.651685393,275.280898876 L475.056179775,240.674157303 L445.168539326,231.235955056 Z" fill="#cee3f5" id="CN.chongqing.2692020" stroke="#6e6e6e" stroke-width="0.4"><desc><admin_leve>6</admin_leve><localname>云阳县 (Yunyang)</localname><boundary>administrative</boundary><id>CN.chongqing.2692020</id><name>Yunyang</name></desc></path><path d="M338.202247191,313.033707865 L361.797752809,295.730337079 L391.685393258,291.011235955 L418.426966292,314.606741573 L388.539325843,364.943820225 L330.337078652,344.494382022 L338.202247191,313.033707865 Z" fill="#cee3f5" id="CN.chongqing.2692021" stroke="#6e6e6e" stroke-width="0.4"><desc><admin_leve>6</admin_leve><localname>忠县 (Zhong)</localname><boundary>administrative</boundary><id>CN.chongqing.2692021</id><name>Zhong</name></desc></path><path d="M361.797752809,511.235955056 L386.966292135,479.775280899 L383.820224719,465.617977528 L394.831460674,427.865168539 L408.988764045,423.146067416 L443.595505618,399.550561798 L459.325842697,415.280898876 L470.337078652,448.314606742 L467.191011236,495.505617978 L431.011235955,515.95505618 L415.280898876,506.516853933 L361.797752809,511.235955056 Z" fill="#cee3f5" id="CN.chongqing.2693031" stroke="#6e6e6e" stroke-width="0.4"><desc><admin_leve>6</admin_leve><localname>彭水苗族土家族自治县 (Pengshu)</localname><boundary>administrative</boundary><id>CN.chongqing.2693031</id><name>Pengshui (Miao and Tujia) Autonomous County</name></desc></path><path d="M459.325842697,415.280898876 L509.662921348,426.292134831 L517.528089888,470.337078652 L506.516853933,500.224719101 L473.483146067,504.943820225 L467.191011236,495.505617978 L470.337078652,448.314606742 L459.325842697,415.280898876 Z" fill="#cee3f5" id="CN.chongqing.2693032" stroke="#6e6e6e" stroke-width="0.4"><desc><admin_leve>6</admin_leve><localname>黔江区 (Qianjiang)</localname><boundary>administrative</boundary><id>CN.chongqing.2693032</id><name>Qianjiang District</name></desc></path><path d="M388.539325843,364.943820225 L418.426966292,314.606741573 L446.741573034,303.595505618 L445.168539326,320.898876404 L467.191011236,341.348314607 L460.898876404,391.685393258 L443.595505618,399.550561798 L408.988764045,423.146067416 L388.539325843,364.943820225 Z" fill="#cee3f5" id="CN.chongqing.2693033" stroke="#6e6e6e" stroke-width="0.4"><desc><admin_leve>6</admin_leve><localname>石柱土家族自治县 (Shizhu)</localname><boundary>administrative</boundary><id>CN.chongqing.2693033</id><name>Shizhu (Tujia) Autonomous County</name></desc></path><path d="M563.146067416,533.258426966 L572.584269663,552.134831461 L556.853932584,567.865168539 L556.853932584,591.460674157 L544.269662921,621.348314607 L528.539325843,637.078651685 L495.505617978,615.056179775 L490.786516854,588.314606742 L522.247191011,572.584269663 L550.561797753,539.550561798 L563.146067416,533.258426966 Z" fill="#cee3f5" id="CN.chongqing.2693034" stroke="#6e6e6e" stroke-width="0.4"><desc><admin_leve>6</admin_leve><localname>秀山土家族苗族自治县 (Xiushan)</localname><boundary>administrative</boundary><id>CN.chongqing.2693034</id><name>Xiushan (Miao and Tujia) Autonomous County</name></desc></path><path d="M431.011235955,515.95505618 L467.191011236,495.505617978 L473.483146067,504.943820225 L506.516853933,500.224719101 L517.528089888,470.337078652 L545.842696629,465.617977528 L545.842696629,486.06741573 L572.584269663,508.08988764 L563.146067416,533.258426966 L550.561797753,539.550561798 L522.247191011,572.584269663 L490.786516854,588.314606742 L449.887640449,569.438202247 L431.011235955,515.95505618 Z" fill="#cee3f5" id="CN.chongqing.2693035" stroke="#6e6e6e" stroke-width="0.4"><desc><admin_leve>6</admin_leve><localname>酉阳土家族苗族自治县 (Youyang)</localname><boundary>administrative</boundary><id>CN.chongqing.2693035</id><name>Youyang Miao and Tujia Autonomous County</name></desc></path><path d="M276.853932584,341.348314607 L302.02247191,300.449438202 L338.202247191,313.033707865 L330.337078652,344.494382022 L309.887640449,372.808988764 L308.314606742,374.382022472 L281.573033708,363.370786517 L276.853932584,341.348314607 Z" fill="#cee3f5" id="CN.chongqing.2693275" stroke="#6e6e6e" stroke-width="0.4"><desc><admin_leve>6</admin_leve><localname>垫江县 (Dianjiang)</localname><boundary>administrative</boundary><id>CN.chongqing.2693275</id><name>Dianjiang County</name></desc></path><path d="M309.887640449,372.808988764 L330.337078652,344.494382022 L388.539325843,364.943820225 L408.988764045,423.146067416 L394.831460674,427.865168539 L364.943820225,423.146067416 L342.921348315,427.865168539 L327.191011236,380.674157303 L309.887640449,372.808988764 Z" fill="#cee3f5" id="CN.chongqing.2693276" stroke="#6e6e6e" stroke-width="0.4"><desc><admin_leve>6</admin_leve><localname>丰都县 (Fengdu)</localname><boundary>administrative</boundary><id>CN.chongqing.2693276</id><name>Fengdu County</name></desc></path><path d="M235.95505618,445.168539326 L245.393258427,413.707865169 L286.292134831,396.404494382 L308.314606742,374.382022472 L309.887640449,372.808988764 L327.191011236,380.674157303 L342.921348315,427.865168539 L320.898876404,454.606741573 L291.011235955,443.595505618 L278.426966292,462.471910112 L235.95505618,445.168539326 Z" fill="#cee3f5" id="CN.chongqing.2693277" stroke="#6e6e6e" stroke-width="0.4"><desc><name>Fuling District</name><admin_leve>6</admin_leve><wikipedia>en:Fuling District</wikipedia><localname>涪陵区 (Fuling)</localname><boundary>administrative</boundary><id>CN.chongqing.2693277</id></desc></path><path d="M228.08988764,497.078651685 L235.95505618,445.168539326 L278.426966292,462.471910112 L297.303370787,468.764044944 L302.02247191,489.213483146 L298.876404494,537.97752809 L253.258426966,531.685393258 L228.08988764,497.078651685 Z" fill="#cee3f5" id="CN.chongqing.2693278" stroke="#6e6e6e" stroke-width="0.4"><desc><admin_leve>6</admin_leve><localname>南川区 (Nanchuan)</localname><boundary>administrative</boundary><id>CN.chongqing.2693278</id><name>Nanchuan District</name></desc></path><path d="M342.921348315,427.865168539 L364.943820225,423.146067416 L394.831460674,427.865168539 L383.820224719,465.617977528 L386.966292135,479.775280899 L361.797752809,511.235955056 L360.224719101,495.505617978 L302.02247191,489.213483146 L297.303370787,468.764044944 L278.426966292,462.471910112 L291.011235955,443.595505618 L320.898876404,454.606741573 L342.921348315,427.865168539 Z" fill="#cee3f5" id="CN.chongqing.2693279" stroke="#6e6e6e" stroke-width="0.4"><desc><admin_leve>6</admin_leve><localname>武隆县 (Wulong)</localname><boundary>administrative</boundary><id>CN.chongqing.2693279</id><name>Wulong County</name></desc></path><path d="M166.741573034,429.438202247 L229.662921348,421.573033708 L218.651685393,432.584269663 L185.617977528,434.157303371 L171.460674157,437.303370787 L166.741573034,429.438202247 Z" fill="#cee3f5" id="CN.chongqing.2693314" stroke="#6e6e6e" stroke-width="0.4"><desc><admin_leve>6</admin_leve><localname>江北区 (Jiangbei)</localname><boundary>administrative</boundary><id>CN.chongqing.2693314</id><name>Jiangbei District</name></desc></path><path d="M177.752808989,440.449438202 L185.617977528,434.157303371 L218.651685393,432.584269663 L204.494382022,448.314606742 L179.325842697,448.314606742 L177.752808989,440.449438202 Z" fill="#cee3f5" id="CN.chongqing.2693315" stroke="#6e6e6e" stroke-width="0.4"><desc><admin_leve>6</admin_leve><localname>南岸区 (Nan'an)</localname><boundary>administrative</boundary><id>CN.chongqing.2693315</id><name>Nan'an District</name></desc></path><path d="M163.595505618,465.617977528 L176.179775281,448.314606742 L179.325842697,448.314606742 L204.494382022,448.314606742 L218.651685393,432.584269663 L229.662921348,421.573033708 L239.101123596,407.415730337 L245.393258427,413.707865169 L235.95505618,445.168539326 L228.08988764,497.078651685 L201.348314607,489.213483146 L184.04494382,498.651685393 L163.595505618,465.617977528 Z" fill="#cee3f5" id="CN.chongqing.2693394" stroke="#6e6e6e" stroke-width="0.4"><desc><admin_leve>6</admin_leve><localname>巴南区 (Banan)</localname><boundary>administrative</boundary><id>CN.chongqing.2693394</id><name>Banan District</name></desc></path><path d="M146.292134831,410.561797753 L146.292134831,390.112359551 L168.314606742,391.685393258 L195.056179775,361.797752809 L196.629213483,391.685393258 L166.741573034,421.573033708 L146.292134831,410.561797753 Z" fill="#cee3f5" id="CN.chongqing.2693395" stroke="#6e6e6e" stroke-width="0.4"><desc><admin_leve>6</admin_leve><localname>北碚区 (Beibei)</localname><boundary>administrative</boundary><id>CN.chongqing.2693395</id><name>Beibei District</name></desc></path><path d="M113.258426966,438.876404494 L124.269662921,408.988764045 L140.0,396.404494382 L146.292134831,390.112359551 L146.292134831,410.561797753 L136.853932584,440.449438202 L138.426966292,453.033707865 L121.123595506,475.056179775 L106.966292135,470.337078652 L113.258426966,438.876404494 Z" fill="#cee3f5" id="CN.chongqing.2693396" stroke="#6e6e6e" stroke-width="0.4"><desc><admin_leve>6</admin_leve><localname>璧山区 (Bishan)</localname><boundary>administrative</boundary><id>CN.chongqing.2693396</id><name>Bishan District</name></desc></path><path d="M223.370786517,368.08988764 L254.831460674,364.943820225 L276.853932584,341.348314607 L281.573033708,363.370786517 L308.314606742,374.382022472 L286.292134831,396.404494382 L245.393258427,413.707865169 L239.101123596,407.415730337 L240.674157303,383.820224719 L223.370786517,368.08988764 Z" fill="#cee3f5" id="CN.chongqing.2693397" stroke="#6e6e6e" stroke-width="0.4"><desc><admin_leve>6</admin_leve><localname>长寿区 (Changshou)</localname><boundary>administrative</boundary><id>CN.chongqing.2693397</id><name>Changshou District</name></desc></path><path d="M26.7415730337,420.0 L45.6179775281,397.97752809 L61.3483146067,394.831460674 L69.2134831461,401.123595506 L105.393258427,412.134831461 L84.9438202247,435.730337079 L64.4943820225,460.898876404 L26.7415730337,420.0 Z" fill="#cee3f5" id="CN.chongqing.2693398" stroke="#6e6e6e" stroke-width="0.4"><desc><admin_leve>6</admin_leve><localname>大足区 (Dazu)</localname><boundary>administrative</boundary><id>CN.chongqing.2693398</id><name>Dazu District</name></desc></path><path d="M97.5280898876,320.898876404 L125.842696629,331.91011236 L136.853932584,346.06741573 L168.314606742,330.337078652 L191.91011236,335.056179775 L198.202247191,355.505617978 L195.056179775,361.797752809 L168.314606742,391.685393258 L146.292134831,390.112359551 L140.0,396.404494382 L135.280898876,385.393258427 L99.1011235955,363.370786517 L97.5280898876,320.898876404 Z" fill="#cee3f5" id="CN.chongqing.2693399" stroke="#6e6e6e" stroke-width="0.4"><desc><admin_leve>6</admin_leve><localname>合川区 (Hechuan)</localname><boundary>administrative</boundary><id>CN.chongqing.2693399</id><name>Hechuan District</name></desc></path><path d="M106.966292135,470.337078652 L121.123595506,475.056179775 L138.426966292,453.033707865 L158.876404494,467.191011236 L163.595505618,465.617977528 L184.04494382,498.651685393 L157.303370787,512.808988764 L165.168539326,539.550561798 L176.179775281,563.146067416 L149.438202247,567.865168539 L138.426966292,537.97752809 L95.9550561798,522.247191011 L77.0786516854,525.393258427 L106.966292135,470.337078652 Z" fill="#cee3f5" id="CN.chongqing.2693400" stroke="#6e6e6e" stroke-width="0.4"><desc><admin_leve>6</admin_leve><localname>江津区 (Jiangjin)</localname><boundary>administrative</boundary><id>CN.chongqing.2693400</id><name>Jiangjin District</name></desc></path><path d="M184.04494382,498.651685393 L201.348314607,489.213483146 L228.08988764,497.078651685 L253.258426966,531.685393258 L218.651685393,552.134831461 L224.943820225,569.438202247 L204.494382022,582.02247191 L165.168539326,539.550561798 L157.303370787,512.808988764 L184.04494382,498.651685393 Z" fill="#cee3f5" id="CN.chongqing.2693401" stroke="#6e6e6e" stroke-width="0.4"><desc><admin_leve>6</admin_leve><localname>綦江区 (Qijiang)</localname><boundary>administrative</boundary><id>CN.chongqing.2693401</id><name>Qijiang District</name></desc></path><path d="M26.7415730337,420.0 L64.4943820225,460.898876404 L56.6292134831,476.629213483 L33.0337078652,478.202247191 L0.0,437.303370787 L26.7415730337,420.0 Z" fill="#cee3f5" id="CN.chongqing.2693402" stroke="#6e6e6e" stroke-width="0.4"><desc><admin_leve>6</admin_leve><localname>荣昌县 (Rongchang)</localname><boundary>administrative</boundary><id>CN.chongqing.2693402</id><name>Rongchang County</name></desc></path><path d="M69.2134831461,401.123595506 L92.808988764,380.674157303 L99.1011235955,363.370786517 L135.280898876,385.393258427 L140.0,396.404494382 L124.269662921,408.988764045 L113.258426966,438.876404494 L84.9438202247,435.730337079 L105.393258427,412.134831461 L69.2134831461,401.123595506 Z" fill="#cee3f5" id="CN.chongqing.2693403" stroke="#6e6e6e" stroke-width="0.4"><desc><name>Tongliang District</name><admin_leve>6</admin_leve><wikipedia>en:Tongliang District</wikipedia><localname>铜梁区 (Tongliang)</localname><boundary>administrative</boundary><id>CN.chongqing.2693403</id></desc></path><path d="M64.4943820225,460.898876404 L84.9438202247,435.730337079 L113.258426966,438.876404494 L106.966292135,470.337078652 L77.0786516854,525.393258427 L56.6292134831,476.629213483 L64.4943820225,460.898876404 Z" fill="#cee3f5" id="CN.chongqing.2693404" stroke="#6e6e6e" stroke-width="0.4"><desc><admin_leve>6</admin_leve><localname>永川区 (Yongchuan)</localname><boundary>administrative</boundary><id>CN.chongqing.2693404</id><name>Yongchuan District</name></desc></path><path d="M166.741573034,421.573033708 L196.629213483,391.685393258 L195.056179775,361.797752809 L198.202247191,355.505617978 L223.370786517,368.08988764 L240.674157303,383.820224719 L239.101123596,407.415730337 L229.662921348,421.573033708 L166.741573034,429.438202247 L166.741573034,421.573033708 Z" fill="#cee3f5" id="CN.chongqing.2693405" stroke="#6e6e6e" stroke-width="0.4"><desc><admin_leve>6</admin_leve><localname>渝北区 (Yubei)</localname><boundary>administrative</boundary><id>CN.chongqing.2693405</id><name>Yubei District</name></desc></path><path d="M146.292134831,410.561797753 L166.741573034,421.573033708 L166.741573034,429.438202247 L171.460674157,437.303370787 L169.887640449,437.303370787 L136.853932584,440.449438202 L146.292134831,410.561797753 Z" fill="#cee3f5" id="CN.chongqing.4738519" stroke="#6e6e6e" stroke-width="0.4"><desc><name>Shapingba District</name><admin_leve>6</admin_leve><wikipedia>en:Shapingba District</wikipedia><localname>沙坪坝区 (Shapingba)</localname><boundary>administrative</boundary><id>CN.chongqing.4738519</id></desc></path><path d="M176.179775281,448.314606742 L163.595505618,465.617977528 L158.876404494,467.191011236 L176.179775281,448.314606742 Z" fill="#cee3f5" id="CN.chongqing.4738522" stroke="#6e6e6e" stroke-width="0.4"><desc><name>Dadukou District</name><admin_leve>6</admin_leve><wikipedia>en:Dadukou District</wikipedia><localname>大渡口区 (Dadukou)</localname><boundary>administrative</boundary><id>CN.chongqing.4738522</id></desc></path><path d="M136.853932584,440.449438202 L169.887640449,437.303370787 L177.752808989,440.449438202 L179.325842697,448.314606742 L176.179775281,448.314606742 L158.876404494,467.191011236 L138.426966292,453.033707865 L136.853932584,440.449438202 Z" fill="#cee3f5" id="CN.chongqing.4738524" stroke="#6e6e6e" stroke-width="0.4"><desc><name>Jiulongpo District</name><admin_leve>6</admin_leve><wikipedia>en:Jiulongpo District</wikipedia><localname>九龙坡区 (Jiulongpo)</localname><boundary>administrative</boundary><id>CN.chongqing.4738524</id></desc></path><path d="M171.460674157,437.303370787 L185.617977528,434.157303371 L177.752808989,440.449438202 L169.887640449,437.303370787 L171.460674157,437.303370787 Z" fill="#cee3f5" id="CN.chongqing.4738525" stroke="#6e6e6e" stroke-width="0.4"><desc><name>Yuzhong District</name><admin_leve>6</admin_leve><wikipedia>en:Yuzhong District</wikipedia><localname>渝中区 (Yuzhong)</localname><boundary>administrative</boundary><id>CN.chongqing.4738525</id></desc></path></svg>