<?xml version='1.0' encoding='utf-8'?>
<svg height="700" width="700" xmlns="http://www.w3.org/2000/svg"><path d="M505.693950178,252.099644128 L504.697508897,257.081850534 L493.736654804,271.03202847 L465.338078292,275.516014235 L464.839857651,282.989323843 L466.832740214,286.975088968 L465.836298932,290.960854093 L455.871886121,294.448398577 L452.384341637,292.953736655 L446.40569395,295.943060498 L444.412811388,301.921708185 L449.395017794,305.409252669 L447.900355872,308.896797153 L435.943060498,305.90747331 L433.451957295,303.416370107 L424.483985765,304.911032028 L420.0,304.412811388 L415.017793594,293.950177936 L404.056939502,283.487544484 L403.558718861,280.498220641 L399.572953737,280.0 L394.09252669,275.017793594 L392.597864769,276.014234875 L390.604982206,273.523131673 L388.612099644,273.523131673 L379.644128114,251.601423488 L380.142348754,247.615658363 L385.12455516,241.637010676 L387.615658363,229.679715302 L387.117437722,225.195729537 L392.099644128,210.24911032 L400.569395018,198.790035587 L397.081850534,191.316725979 L396.085409253,176.868327402 L393.096085409,173.380782918 L396.583629893,165.90747331 L396.583629893,155.444839858 L401.067615658,147.473309609 L397.081850534,142.491103203 L394.09252669,133.523131673 L396.085409253,132.028469751 L393.59430605,132.028469751 L390.106761566,126.049822064 L390.106761566,122.06405694 L381.138790036,118.078291815 L380.142348754,115.587188612 L381.637010676,113.59430605 L395.088967972,105.12455516 L413.024911032,85.1957295374 L415.516014235,74.7330960854 L413.024911032,68.256227758 L454.377224199,61.7793594306 L450.889679715,67.7580071174 L443.416370107,72.2419928826 L434.448398577,93.665480427 L429.964412811,96.1565836299 L425.978647687,105.12455516 L439.430604982,112.597864769 L440.925266904,121.067615658 L438.932384342,125.551601423 L441.423487544,132.028469751 L445.409252669,132.526690391 L451.886120996,139.003558719 L467.330960854,142.491103203 L471.814946619,149.466192171 L474.306049822,150.462633452 L475.302491103,153.950177936 L473.309608541,159.928825623 L475.302491103,164.911032028 L470.320284698,174.377224199 L460.854092527,173.879003559 L445.409252669,183.34519573 L442.419928826,189.323843416 L443.416370107,192.31316726 L439.928825623,198.291814947 L428.46975089,205.266903915 L428.46975089,212.740213523 L423.487544484,218.220640569 L429.466192171,220.711743772 L434.946619217,226.192170819 L441.423487544,228.185053381 L442.419928826,223.202846975 L438.932384342,215.231316726 L457.864768683,205.266903915 L465.338078292,209.252669039 L471.814946619,218.220640569 L468.327402135,245.12455516 L475.800711744,236.15658363 L484.768683274,235.658362989 L505.693950178,252.099644128 Z" fill="#cee3f5" id="ZM.LP" stroke="#6e6e6e" stroke-width="0.4"><desc><labelrank>4</labelrank><code_hasc>ZM.LP</code_hasc><name>Luapula</name><admin>Zambia</admin><type_en>Province</type_en><region /><woe_id>2347808</woe_id><longitude>29</longitude><woe_name>Luapula</woe_name><fips>ZA04</fips><woe_label>Luapula, ZM, Zambia</woe_label><latitude>-11</latitude><iso_a2>ZM</iso_a2><postal>LP</postal><type>Province</type><id>ZM.LP</id></desc></path><path d="M614.306049822,109.608540925 L619.288256228,123.558718861 L619.786476868,129.537366548 L601.352313167,126.548042705 L593.879003559,127.544483986 L584.911032028,132.526690391 L575.943060498,131.53024911 L574.448398577,135.516014235 L569.964412811,133.523131673 L565.480427046,134.021352313 L561.494661922,131.03202847 L552.028469751,138.007117438 L546.049822064,146.476868327 L555.017793594,158.434163701 L559.501779359,172.384341637 L571.957295374,180.355871886 L571.957295374,195.302491103 L566.476868327,194.804270463 L559.003558719,198.790035587 L555.017793594,205.765124555 L551.03202847,204.270462633 L546.548042705,206.761565836 L551.03202847,210.747330961 L547.046263345,211.245551601 L549.039145907,214.234875445 L547.046263345,216.725978648 L543.558718861,219.715302491 L542.06405694,219.715302491 L542.06405694,216.227758007 L540.569395018,218.71886121 L538.576512456,217.224199288 L536.583629893,221.708185053 L531.103202847,223.701067616 L532.099644128,225.195729537 L529.110320285,225.195729537 L520.640569395,239.145907473 L515.160142349,241.637010676 L509.679715302,249.608540925 L505.693950178,252.099644128 L484.768683274,235.658362989 L475.800711744,236.15658363 L468.327402135,245.12455516 L471.814946619,218.220640569 L465.338078292,209.252669039 L457.864768683,205.266903915 L438.932384342,215.231316726 L442.419928826,223.202846975 L441.423487544,228.185053381 L434.946619217,226.192170819 L429.466192171,220.711743772 L423.487544484,218.220640569 L428.46975089,212.740213523 L428.46975089,205.266903915 L439.928825623,198.291814947 L443.416370107,192.31316726 L442.419928826,189.323843416 L445.409252669,183.34519573 L460.854092527,173.879003559 L470.320284698,174.377224199 L475.302491103,164.911032028 L473.309608541,159.928825623 L475.302491103,153.950177936 L474.306049822,150.462633452 L471.814946619,149.466192171 L467.330960854,142.491103203 L451.886120996,139.003558719 L445.409252669,132.526690391 L441.423487544,132.028469751 L438.932384342,125.551601423 L440.925266904,121.067615658 L439.430604982,112.597864769 L425.978647687,105.12455516 L429.964412811,96.1565836299 L434.448398577,93.665480427 L443.416370107,72.2419928826 L450.889679715,67.7580071174 L454.377224199,61.7793594306 L525.622775801,51.3167259786 L530.106761566,63.2740213523 L539.572953737,74.7330960854 L545.053380783,77.2241992883 L552.526690391,75.231316726 L556.014234875,77.7224199288 L561.494661922,75.7295373665 L563.487544484,78.2206405694 L572.953736655,82.7046263345 L573.451957295,89.1814946619 L580.427046263,95.6583629893 L587.402135231,94.1637010676 L596.370106762,97.153024911 L595.37366548,102.633451957 L596.370106762,104.62633452 L608.327402135,105.12455516 L614.306049822,109.608540925 Z" fill="#cee3f5" id="ZM.NO" stroke="#6e6e6e" stroke-width="0.4"><desc><labelrank>4</labelrank><code_hasc>ZM.NO</code_hasc><name>Northern</name><admin>Zambia</admin><type_en>Province</type_en><region /><woe_id>2347807</woe_id><longitude>30</longitude><woe_name>Northern</woe_name><fips>ZA05</fips><woe_label>Northern, ZM, Zambia</woe_label><latitude>-9</latitude><iso_a2>ZM</iso_a2><postal>NO</postal><type>Province</type><id>ZM.NO</id></desc></path><path d="M561.992882562,370.177935943 L551.53024911,374.661921708 L549.537366548,378.647686833 L544.056939502,380.142348754 L539.572953737,390.106761566 L534.09252669,392.597864769 L528.612099644,399.572953737 L482.277580071,399.074733096 L485.266903915,400.071174377 L487.259786477,406.049822064 L492.740213523,408.540925267 L495.231316726,412.028469751 L493.736654804,416.014234875 L478.291814947,429.964412811 L475.800711744,439.928825623 L478.790035587,443.914590747 L470.320284698,442.918149466 L468.825622776,445.409252669 L464.839857651,445.409252669 L447.402135231,452.384341637 L443.914590747,461.352313167 L434.946619217,461.850533808 L429.964412811,460.854092527 L416.512455516,464.341637011 L406.049822064,472.31316726 L401.565836299,473.807829181 L391.103202847,474.306049822 L381.637010676,471.814946619 L374.661921708,483.772241993 L373.167259786,484.270462633 L359.715302491,480.284697509 L347.758007117,478.790035587 L344.270462633,482.775800712 L351.245551601,485.266903915 L353.736654804,493.238434164 L345.765124555,496.725978648 L343.274021352,502.206405694 L339.288256228,503.202846975 L337.295373665,500.213523132 L337.793594306,496.227758007 L330.818505338,491.743772242 L325.836298932,497.722419929 L322.846975089,497.224199288 L316.370106762,507.68683274 L312.384341637,492.740213523 L296.441281139,490.747330961 L297.93594306,488.754448399 L287.473309609,483.274021352 L200.284697509,481.28113879 L200.284697509,473.807829181 L205.266903915,470.818505338 L207.758007117,464.341637011 L206.263345196,454.87544484 L209.252669039,449.893238434 L209.252669039,443.914590747 L213.238434164,437.93594306 L217.224199288,435.943060498 L250.106761566,439.928825623 L259.074733096,445.409252669 L261.565836299,444.412811388 L262.56227758,439.928825623 L272.526690391,429.466192171 L294.448398577,426.975088968 L296.441281139,424.483985765 L295.943060498,417.508896797 L297.93594306,413.024911032 L290.462633452,404.056939502 L293.451957295,402.56227758 L293.451957295,396.583629893 L295.943060498,391.103202847 L289.964412811,384.62633452 L319.359430605,386.120996441 L323.34519573,397.081850534 L327.330960854,394.09252669 L327.829181495,389.608540925 L331.814946619,390.604982206 L336.797153025,380.640569395 L346.761565836,383.131672598 L354.733096085,397.081850534 L369.181494662,394.09252669 L387.615658363,395.587188612 L397.580071174,393.59430605 L398.078291815,386.120996441 L414.519572954,373.167259786 L421.494661922,365.693950178 L424.982206406,365.195729537 L428.46975089,368.683274021 L451.886120996,355.729537367 L457.366548043,359.217081851 L453.380782918,364.697508897 L454.377224199,367.68683274 L463.84341637,370.177935943 L465.836298932,291.459074733 L468.327402135,289.964412811 L469.822064057,284.483985765 L477.793594306,281.992882562 L482.277580071,290.462633452 L487.259786477,293.950177936 L507.68683274,300.925266904 L507.1886121,309.395017794 L511.672597865,312.882562278 L511.174377224,316.868327402 L515.160142349,320.355871886 L518.149466192,317.864768683 L522.633451957,322.846975089 L520.640569395,328.327402135 L522.135231317,335.302491103 L527.615658363,339.288256228 L538.078291815,340.284697509 L544.056939502,345.765124555 L546.049822064,345.266903915 L547.544483986,341.28113879 L550.035587189,340.284697509 L557.010676157,342.277580071 L558.007117438,357.722419929 L561.494661922,363.202846975 L561.992882562,370.177935943 Z" fill="#cee3f5" id="ZM.CE" stroke="#6e6e6e" stroke-width="0.4"><desc><labelrank>4</labelrank><code_hasc>ZM.CE</code_hasc><name>Central</name><admin>Zambia</admin><type_en>Province</type_en><region /><woe_id>2347805</woe_id><longitude>28</longitude><woe_name>Central</woe_name><fips>ZA02</fips><woe_label>Central, ZM, Zambia</woe_label><latitude>-14</latitude><iso_a2>ZM</iso_a2><postal>CE</postal><type>Province</type><id>ZM.CE</id></desc></path><path d="M421.494661922,365.693950178 L414.519572954,373.167259786 L398.078291815,386.120996441 L397.580071174,393.59430605 L387.615658363,395.587188612 L369.181494662,394.09252669 L354.733096085,397.081850534 L346.761565836,383.131672598 L336.797153025,380.640569395 L331.814946619,390.604982206 L327.829181495,389.608540925 L327.330960854,394.09252669 L323.34519573,397.081850534 L319.359430605,386.120996441 L289.964412811,384.62633452 L286.476868327,381.637010676 L286.975088968,375.658362989 L290.462633452,368.185053381 L297.43772242,361.708185053 L296.939501779,354.234875445 L302.419928826,349.252669039 L304.412811388,341.28113879 L301.423487544,341.28113879 L291.957295374,334.804270463 L293.451957295,330.320284698 L289.466192171,325.338078292 L290.960854093,320.854092527 L295.444839858,318.362989324 L299.430604982,313.380782918 L303.416370107,311.886120996 L301.921708185,300.925266904 L315.37366548,301.921708185 L323.34519573,295.943060498 L329.323843416,298.932384342 L333.807829181,295.444839858 L336.797153025,298.434163701 L341.28113879,299.430604982 L349.75088968,296.939501779 L354.733096085,299.430604982 L355.729537367,303.416370107 L363.701067616,303.914590747 L366.192170819,306.903914591 L369.679715302,305.409252669 L378.647686833,308.398576512 L383.629893238,312.384341637 L388.612099644,321.352313167 L386.619217082,325.836298932 L390.604982206,334.804270463 L393.096085409,334.804270463 L395.088967972,331.814946619 L398.078291815,332.8113879 L406.049822064,341.779359431 L409.039145907,350.24911032 L412.028469751,351.743772242 L414.519572954,363.202846975 L417.010676157,365.693950178 L421.494661922,365.693950178 Z" fill="#cee3f5" id="ZM.CO" stroke="#6e6e6e" stroke-width="0.4"><desc><labelrank>4</labelrank><code_hasc>ZM.CO</code_hasc><name>Copperbelt</name><admin>Zambia</admin><type_en>Province</type_en><region /><woe_id>2347802</woe_id><longitude>27</longitude><woe_name>Copperbelt</woe_name><fips>ZA08</fips><woe_label>Copperbelt, ZM, Zambia</woe_label><latitude>-13</latitude><iso_a2>ZM</iso_a2><postal>CO</postal><type>Province</type><id>ZM.CO</id></desc></path><path d="M488.256227758,462.846975089 L487.758007117,453.879003559 L478.790035587,443.914590747 L475.800711744,439.928825623 L478.291814947,429.964412811 L493.736654804,416.014234875 L495.231316726,412.028469751 L492.740213523,408.540925267 L487.259786477,406.049822064 L485.266903915,400.071174377 L482.277580071,399.074733096 L528.612099644,399.572953737 L534.09252669,392.597864769 L539.572953737,390.106761566 L544.056939502,380.142348754 L549.537366548,378.647686833 L551.53024911,374.661921708 L561.992882562,370.177935943 L566.975088968,370.177935943 L572.953736655,366.192170819 L576.441281139,356.227758007 L581.423487544,349.75088968 L590.889679715,346.263345196 L591.387900356,340.284697509 L596.868327402,337.295373665 L600.355871886,331.316725979 L605.338078292,310.889679715 L613.807829181,299.928825623 L614.804270463,295.943060498 L623.274021352,297.43772242 L629.75088968,288.46975089 L640.711743772,287.971530249 L662.633451957,281.992882562 L670.604982206,265.053380783 L676.085409253,263.558718861 L676.085409253,279.003558719 L672.099644128,293.451957295 L677.580071174,305.409252669 L684.555160142,304.911032028 L688.540925267,306.903914591 L677.580071174,317.864768683 L672.099644128,317.366548043 L666.619217082,322.846975089 L664.128113879,320.355871886 L661.138790036,321.850533808 L660.142348754,320.355871886 L658.149466192,321.850533808 L652.669039146,331.316725979 L653.167259786,335.800711744 L656.65480427,340.782918149 L653.665480427,352.740213523 L655.658362989,357.722419929 L651.672597865,361.209964413 L648.683274021,370.177935943 L644.697508897,374.163701068 L644.199288256,377.651245552 L635.729537367,379.644128114 L635.231316726,381.637010676 L635.729537367,383.629893238 L641.209964413,384.62633452 L643.701067616,388.612099644 L640.213523132,391.103202847 L640.711743772,392.597864769 L647.1886121,395.587188612 L650.676156584,402.06405694 L653.167259786,403.060498221 L654.163701068,409.537366548 L663.131672598,402.06405694 L666.619217082,407.544483986 L600.854092527,427.473309609 L559.501779359,442.918149466 L524.128113879,450.391459075 L494.234875445,461.850533808 L488.256227758,462.846975089 Z" fill="#cee3f5" id="ZM.EA" stroke="#6e6e6e" stroke-width="0.4"><desc><labelrank>4</labelrank><code_hasc>ZM.EA</code_hasc><name>Eastern</name><admin>Zambia</admin><type_en>Province</type_en><region /><woe_id>2347806</woe_id><longitude>31</longitude><woe_name>Eastern</woe_name><fips>ZA03</fips><woe_label>Eastern, ZM, Zambia</woe_label><latitude>-13</latitude><iso_a2>ZM</iso_a2><postal>EA</postal><type>Province</type><id>ZM.EA</id></desc></path><path d="M478.790035587,443.914590747 L487.758007117,453.879003559 L488.256227758,462.846975089 L490.747330961,478.291814947 L496.725978648,485.765124555 L498.220640569,493.238434164 L496.725978648,498.220640569 L499.217081851,502.206405694 L494.234875445,503.701067616 L490.24911032,502.206405694 L487.259786477,503.701067616 L482.775800712,501.708185053 L475.800711744,503.202846975 L465.338078292,501.209964413 L455.871886121,503.701067616 L450.889679715,503.202846975 L426.975088968,512.669039146 L418.505338078,520.640569395 L413.024911032,521.138790036 L409.537366548,519.145907473 L401.565836299,520.640569395 L397.081850534,517.153024911 L391.601423488,516.65480427 L387.117437722,512.669039146 L380.640569395,510.177935943 L371.174377224,512.170818505 L359.715302491,507.1886121 L355.729537367,503.202846975 L349.252669039,504.697508897 L347.259786477,502.206405694 L343.274021352,502.206405694 L345.765124555,496.725978648 L353.736654804,493.238434164 L351.245551601,485.266903915 L344.270462633,482.775800712 L347.758007117,478.790035587 L359.715302491,480.284697509 L373.167259786,484.270462633 L374.661921708,483.772241993 L381.637010676,471.814946619 L391.103202847,474.306049822 L401.565836299,473.807829181 L406.049822064,472.31316726 L416.512455516,464.341637011 L429.964412811,460.854092527 L434.946619217,461.850533808 L443.914590747,461.352313167 L447.402135231,452.384341637 L464.839857651,445.409252669 L468.825622776,445.409252669 L470.320284698,442.918149466 L478.790035587,443.914590747 Z" fill="#cee3f5" id="ZM.LS" stroke="#6e6e6e" stroke-width="0.4"><desc><labelrank>7</labelrank><code_hasc>ZM.LS</code_hasc><name>Lusaka</name><admin>Zambia</admin><type_en>Province</type_en><region /><woe_id>2347809</woe_id><longitude>29</longitude><woe_name>Lusaka</woe_name><fips>ZA02</fips><woe_label>Lusaka, ZM, Zambia</woe_label><latitude>-15</latitude><iso_a2>ZM</iso_a2><postal>LS</postal><type>Province</type><id>ZM.LS</id></desc></path><path d="M333.807829181,295.444839858 L329.323843416,298.932384342 L323.34519573,295.943060498 L315.37366548,301.921708185 L301.921708185,300.925266904 L303.416370107,311.886120996 L299.430604982,313.380782918 L295.444839858,318.362989324 L290.960854093,320.854092527 L289.466192171,325.338078292 L293.451957295,330.320284698 L291.957295374,334.804270463 L301.423487544,341.28113879 L304.412811388,341.28113879 L302.419928826,349.252669039 L296.939501779,354.234875445 L297.43772242,361.708185053 L290.462633452,368.185053381 L286.975088968,375.658362989 L286.476868327,381.637010676 L289.964412811,384.62633452 L295.943060498,391.103202847 L293.451957295,396.583629893 L293.451957295,402.56227758 L290.462633452,404.056939502 L297.93594306,413.024911032 L295.943060498,417.508896797 L296.441281139,424.483985765 L294.448398577,426.975088968 L272.526690391,429.466192171 L262.56227758,439.928825623 L261.565836299,444.412811388 L259.074733096,445.409252669 L250.106761566,439.928825623 L217.224199288,435.943060498 L213.238434164,437.93594306 L207.259786477,438.932384342 L199.288256228,437.43772242 L189.822064057,440.427046263 L181.352313167,440.427046263 L178.362989324,436.939501779 L178.861209964,431.459074733 L183.84341637,427.971530249 L185.338078292,416.512455516 L165.409252669,410.035587189 L163.416370107,403.558718861 L160.427046263,400.071174377 L157.93594306,402.56227758 L157.93594306,400.569395018 L153.950177936,401.565836299 L149.964412811,397.580071174 L148.96797153,400.071174377 L143.985765125,400.071174377 L139.501779359,396.583629893 L139.003558719,399.074733096 L134.519572954,397.081850534 L121.067615658,403.060498221 L112.597864769,402.56227758 L111.601423488,400.569395018 L105.622775801,404.056939502 L101.637010676,403.060498221 L83.7010676157,411.53024911 L75.231316726,414.021352313 L75.231316726,412.526690391 L73.2384341637,413.024911032 L75.7295373665,408.540925267 L69.7508896797,407.544483986 L66.7615658363,402.56227758 L62.2775800712,403.558718861 L59.7864768683,400.071174377 L53.3096085409,396.085409253 L46.8327402135,398.576512456 L44.8398576512,403.558718861 L33.3807829181,398.078291815 L17.4377224199,385.622775801 L9.46619217082,390.604982206 L0.996441281139,386.619217082 L0.0,344.270462633 L120.569395018,342.775800712 L112.597864769,329.822064057 L116.085409253,315.871886121 L122.06405694,304.911032028 L121.067615658,298.932384342 L117.081850534,290.960854093 L119.074733096,271.03202847 L117.081850534,259.572953737 L120.071174377,253.096085409 L120.071174377,249.110320285 L123.060498221,245.622775801 L120.071174377,237.651245552 L119.572953737,220.213523132 L117.081850534,213.238434164 L126.049822064,216.227758007 L126.548042705,223.701067616 L137.010676157,224.199288256 L141.494661922,227.1886121 L142.989323843,237.651245552 L140.0,242.633451957 L136.512455516,244.128113879 L145.978647687,249.110320285 L153.451957295,247.615658363 L161.921708185,240.640569395 L168.896797153,240.142348754 L175.871886121,237.153024911 L190.320284698,235.658362989 L197.793594306,232.170818505 L198.790035587,237.651245552 L196.298932384,239.145907473 L197.793594306,240.640569395 L195.800711744,244.62633452 L199.786476868,259.572953737 L208.256227758,263.558718861 L209.252669039,267.544483986 L216.725978648,264.555160142 L222.704626335,269.039145907 L230.177935943,268.540925267 L238.149466192,275.017793594 L249.110320285,275.017793594 L257.081850534,277.508896797 L264.056939502,275.516014235 L268.540925267,278.505338078 L281.992882562,281.494661922 L284.483985765,279.003558719 L291.459074733,278.505338078 L295.943060498,275.516014235 L297.93594306,265.551601423 L299.928825623,262.56227758 L300.427046263,256.085409253 L309.395017794,254.590747331 L312.882562278,269.039145907 L323.84341637,276.014234875 L329.822064057,291.957295374 L333.807829181,295.444839858 Z" fill="#cee3f5" id="ZM.NW" stroke="#6e6e6e" stroke-width="0.4"><desc><labelrank>4</labelrank><code_hasc>ZM.NW</code_hasc><name>North-Western</name><admin>Zambia</admin><type_en>Province</type_en><region /><woe_id>2347801</woe_id><longitude>24</longitude><woe_name>North-Western</woe_name><fips>ZA06</fips><woe_label>North-Western, ZM, Zambia</woe_label><latitude>-12</latitude><iso_a2>ZM</iso_a2><postal>NW</postal><type>Province</type><id>ZM.NW</id></desc></path><path d="M343.274021352,502.206405694 L347.259786477,502.206405694 L349.252669039,504.697508897 L355.729537367,503.202846975 L359.715302491,507.1886121 L371.174377224,512.170818505 L380.640569395,510.177935943 L387.117437722,512.669039146 L391.601423488,516.65480427 L397.081850534,517.153024911 L401.565836299,520.640569395 L409.537366548,519.145907473 L413.024911032,521.138790036 L407.544483986,527.117437722 L408.042704626,537.580071174 L406.548042705,542.06405694 L407.544483986,547.046263345 L404.555160142,553.024911032 L400.071174377,557.508896797 L373.665480427,566.476868327 L363.701067616,573.451957295 L346.761565836,581.423487544 L336.298932384,595.871886121 L332.31316726,605.836298932 L307.900355872,630.24911032 L307.402135231,634.733096085 L299.928825623,641.708185053 L292.455516014,643.701067616 L281.494661922,648.683274021 L253.096085409,637.224199288 L246.120996441,642.206405694 L236.65480427,644.697508897 L232.170818505,642.206405694 L232.170818505,638.71886121 L222.206405694,633.238434164 L212.740213523,636.227758007 L202.277580071,635.231316726 L193.807829181,630.24911032 L190.818505338,625.765124555 L189.822064057,626.761565836 L184.839857651,619.786476868 L180.854092527,618.291814947 L183.84341637,609.822064057 L183.84341637,603.34519573 L187.829181495,597.864768683 L187.829181495,592.882562278 L191.316725979,588.896797153 L191.316725979,584.911032028 L196.298932384,582.918149466 L198.291814947,578.434163701 L196.298932384,571.459074733 L196.797153025,566.476868327 L187.829181495,564.483985765 L181.850533808,556.014234875 L190.818505338,546.548042705 L198.790035587,541.565836299 L202.775800712,533.59430605 L206.761565836,529.110320285 L201.28113879,524.128113879 L204.768683274,508.683274021 L202.775800712,506.690391459 L200.284697509,509.181494662 L197.793594306,508.185053381 L196.298932384,505.195729537 L197.793594306,502.206405694 L194.306049822,499.217081851 L197.295373665,495.729537367 L195.800711744,492.241992883 L198.790035587,491.245551601 L201.28113879,484.270462633 L200.284697509,481.28113879 L287.473309609,483.274021352 L297.93594306,488.754448399 L296.441281139,490.747330961 L312.384341637,492.740213523 L316.370106762,507.68683274 L322.846975089,497.224199288 L325.836298932,497.722419929 L330.818505338,491.743772242 L337.793594306,496.227758007 L337.295373665,500.213523132 L339.288256228,503.202846975 L343.274021352,502.206405694 Z" fill="#cee3f5" id="ZM.SO" stroke="#6e6e6e" stroke-width="0.4"><desc><labelrank>4</labelrank><code_hasc>ZM.SO</code_hasc><name>Southern</name><admin>Zambia</admin><type_en>Province</type_en><region /><woe_id>2347804</woe_id><longitude>26</longitude><woe_name>Southern</woe_name><fips>ZA07</fips><woe_label>Southern, ZM, Zambia</woe_label><latitude>-16</latitude><iso_a2>ZM</iso_a2><postal>SO</postal><type>Province</type><id>ZM.SO</id></desc></path><path d="M213.238434164,437.93594306 L209.252669039,443.914590747 L209.252669039,449.893238434 L206.263345196,454.87544484 L207.758007117,464.341637011 L205.266903915,470.818505338 L200.284697509,473.807829181 L200.284697509,481.28113879 L201.28113879,484.270462633 L198.790035587,491.245551601 L195.800711744,492.241992883 L197.295373665,495.729537367 L194.306049822,499.217081851 L197.793594306,502.206405694 L196.298932384,505.195729537 L197.793594306,508.185053381 L200.284697509,509.181494662 L202.775800712,506.690391459 L204.768683274,508.683274021 L201.28113879,524.128113879 L206.761565836,529.110320285 L202.775800712,533.59430605 L198.790035587,541.565836299 L190.818505338,546.548042705 L181.850533808,556.014234875 L187.829181495,564.483985765 L196.797153025,566.476868327 L196.298932384,571.459074733 L198.291814947,578.434163701 L196.298932384,582.918149466 L191.316725979,584.911032028 L191.316725979,588.896797153 L187.829181495,592.882562278 L187.829181495,597.864768683 L183.84341637,603.34519573 L183.84341637,609.822064057 L180.854092527,618.291814947 L163.914590747,614.306049822 L157.43772242,616.797153025 L146.975088968,613.309608541 L138.007117438,613.807829181 L88.6832740214,624.768683274 L88.6832740214,622.277580071 L84.6975088968,618.790035587 L77.2241992883,618.790035587 L76.2277580071,614.804270463 L71.743772242,612.31316726 L65.7651245552,603.84341637 L51.8149466192,596.868327402 L48.3274021352,589.893238434 L36.3701067616,580.925266904 L25.9074733096,566.975088968 L20.4270462633,566.975088968 L12.4555160142,559.501779359 L10.9608540925,554.519572954 L11.9572953737,549.537366548 L9.46619217082,549.039145907 L6.4768683274,542.06405694 L8.46975088968,542.06405694 L4.48398576512,535.587188612 L0.996441281139,386.619217082 L9.46619217082,390.604982206 L17.4377224199,385.622775801 L33.3807829181,398.078291815 L44.8398576512,403.558718861 L46.8327402135,398.576512456 L53.3096085409,396.085409253 L59.7864768683,400.071174377 L62.2775800712,403.558718861 L66.7615658363,402.56227758 L69.7508896797,407.544483986 L75.7295373665,408.540925267 L73.2384341637,413.024911032 L75.231316726,412.526690391 L75.231316726,414.021352313 L83.7010676157,411.53024911 L101.637010676,403.060498221 L105.622775801,404.056939502 L111.601423488,400.569395018 L112.597864769,402.56227758 L121.067615658,403.060498221 L134.519572954,397.081850534 L139.003558719,399.074733096 L139.501779359,396.583629893 L143.985765125,400.071174377 L148.96797153,400.071174377 L149.964412811,397.580071174 L153.950177936,401.565836299 L157.93594306,400.569395018 L157.93594306,402.56227758 L160.427046263,400.071174377 L163.416370107,403.558718861 L165.409252669,410.035587189 L185.338078292,416.512455516 L183.84341637,427.971530249 L178.861209964,431.459074733 L178.362989324,436.939501779 L181.352313167,440.427046263 L189.822064057,440.427046263 L199.288256228,437.43772242 L207.259786477,438.932384342 L213.238434164,437.93594306 Z" fill="#cee3f5" id="ZM.WE" stroke="#6e6e6e" stroke-width="0.4"><desc><labelrank>4</labelrank><code_hasc>ZM.WE</code_hasc><name>Western</name><admin>Zambia</admin><type_en>Province</type_en><region /><woe_id>2347803</woe_id><longitude>23</longitude><woe_name>Western</woe_name><fips>ZA01</fips><woe_label>Western, ZM, Zambia</woe_label><latitude>-15</latitude><iso_a2>ZM</iso_a2><postal>WE</postal><type>Province</type><id>ZM.WE</id></desc></path><path d="M676.085409253,263.558718861 L670.604982206,265.053380783 L662.633451957,281.992882562 L640.711743772,287.971530249 L629.75088968,288.46975089 L623.274021352,297.43772242 L614.804270463,295.943060498 L613.807829181,299.928825623 L605.338078292,310.889679715 L600.355871886,331.316725979 L596.868327402,337.295373665 L591.387900356,340.284697509 L590.889679715,346.263345196 L581.423487544,349.75088968 L576.441281139,356.227758007 L572.953736655,366.192170819 L566.975088968,370.177935943 L561.992882562,370.177935943 L561.494661922,363.202846975 L558.007117438,357.722419929 L557.010676157,342.277580071 L550.035587189,340.284697509 L547.544483986,341.28113879 L546.049822064,345.266903915 L544.056939502,345.765124555 L538.078291815,340.284697509 L527.615658363,339.288256228 L522.135231317,335.302491103 L520.640569395,328.327402135 L522.633451957,322.846975089 L518.149466192,317.864768683 L515.160142349,320.355871886 L511.174377224,316.868327402 L511.672597865,312.882562278 L507.1886121,309.395017794 L507.68683274,300.925266904 L487.259786477,293.950177936 L482.277580071,290.462633452 L477.793594306,281.992882562 L469.822064057,284.483985765 L468.327402135,289.964412811 L465.836298932,291.459074733 L465.836298932,290.960854093 L466.832740214,286.975088968 L464.839857651,282.989323843 L465.338078292,275.516014235 L493.736654804,271.03202847 L504.697508897,257.081850534 L505.693950178,252.099644128 L509.679715302,249.608540925 L515.160142349,241.637010676 L520.640569395,239.145907473 L529.110320285,225.195729537 L532.099644128,225.195729537 L531.103202847,223.701067616 L536.583629893,221.708185053 L538.576512456,217.224199288 L540.569395018,218.71886121 L542.06405694,216.227758007 L542.06405694,219.715302491 L543.558718861,219.715302491 L547.046263345,216.725978648 L549.039145907,214.234875445 L547.046263345,211.245551601 L551.03202847,210.747330961 L546.548042705,206.761565836 L551.03202847,204.270462633 L555.017793594,205.765124555 L559.003558719,198.790035587 L566.476868327,194.804270463 L571.957295374,195.302491103 L571.957295374,180.355871886 L559.501779359,172.384341637 L555.017793594,158.434163701 L546.049822064,146.476868327 L552.028469751,138.007117438 L561.494661922,131.03202847 L565.480427046,134.021352313 L569.964412811,133.523131673 L574.448398577,135.516014235 L575.943060498,131.53024911 L584.911032028,132.526690391 L593.879003559,127.544483986 L601.352313167,126.548042705 L619.786476868,129.537366548 L619.288256228,123.558718861 L614.306049822,109.608540925 L625.765124555,110.106761566 L631.245551601,117.081850534 L643.202846975,119.074733096 L645.693950178,122.56227758 L655.658362989,127.046263345 L656.15658363,131.03202847 L659.644128114,132.526690391 L659.145907473,140.498220641 L662.135231317,139.501779359 L665.12455516,142.491103203 L666.120996441,138.007117438 L672.099644128,140.0 L672.597864769,145.480427046 L681.565836299,155.444839858 L678.078291815,167.402135231 L691.53024911,177.864768683 L693.024911032,188.327402135 L699.501779359,195.302491103 L700.0,198.790035587 L689.039145907,210.24911032 L685.053380783,212.740213523 L678.078291815,213.238434164 L672.597864769,217.224199288 L675.587188612,218.71886121 L677.081850534,226.192170819 L682.06405694,234.163701068 L674.09252669,250.106761566 L672.099644128,249.608540925 L670.604982206,258.576512456 L675.088967972,259.572953737 L676.085409253,263.558718861 Z" fill="#cee3f5" id="ZM.MU" stroke="#6e6e6e" stroke-width="0.4"><desc><labelrank>4</labelrank><code_hasc>ZM.MU</code_hasc><name>Muchinga</name><admin>Zambia</admin><type_en>Province</type_en><region /><woe_id>2347807</woe_id><longitude>32</longitude><woe_name>Northern</woe_name><fips>ZA10</fips><woe_label>Northern, ZM, Zambia</woe_label><latitude>-11</latitude><iso_a2>ZM</iso_a2><postal>NO</postal><type>Province</type><id>ZM.MU</id></desc></path></svg>