<?xml version='1.0' encoding='utf-8'?>
<svg height="700" width="700" xmlns="http://www.w3.org/2000/svg"><path d="M653.763837638,424.649446494 L669.003690037,416.900369004 L683.985239852,423.874538745 L673.394833948,429.040590406 L667.970479705,434.981549815 L653.763837638,424.649446494 Z" fill="#cee3f5" id="US.AK.275" stroke="#6e6e6e" stroke-width="0.4"><desc><name>Wrangell City and Borough</name><stateAbbrev>AK</stateAbbrev><state>Alaska</state><fips>275</fips><incits>02275</incits><id>US.AK.275</id><population>2400</population></desc></path><path d="M667.970479705,434.981549815 L673.394833948,429.040590406 L683.985239852,423.874538745 L696.125461255,428.265682657 L697.41697417,433.173431734 L700.0,440.147601476 L690.959409594,448.413284133 L674.42804428,448.929889299 L667.970479705,434.981549815 Z" fill="#cee3f5" id="US.AK.130" stroke="#6e6e6e" stroke-width="0.4"><desc><name>Ketchikan Gateway Borough</name><stateAbbrev>AK</stateAbbrev><state>Alaska</state><fips>130</fips><incits>02130</incits><id>US.AK.130</id><population>13729</population></desc></path><path d="M641.365313653,431.365313653 L646.273062731,424.649446494 L653.763837638,424.649446494 L667.970479705,434.981549815 L674.42804428,448.929889299 L646.789667897,449.446494465 L641.365313653,431.365313653 Z" fill="#cee3f5" id="US.AK.198" stroke="#6e6e6e" stroke-width="0.4"><desc><name>Prince of Wales-Hyder Census Area</name><stateAbbrev>AK</stateAbbrev><state>Alaska</state><fips>198</fips><incits>02198</incits><id>US.AK.198</id><population>5786</population></desc></path><path d="M281.291512915,416.125461255 L275.608856089,421.291512915 L266.568265683,422.58302583 L268.118081181,430.073800738 L273.025830258,435.239852399 L264.501845018,437.822878229 L271.217712177,444.280442804 L252.103321033,442.730627306 L234.79704797,449.704797048 L205.608856089,450.73800738 L194.243542435,453.32103321 L192.693726937,449.704797048 L198.376383764,445.313653137 L219.557195572,440.922509225 L238.671586716,430.590405904 L256.236162362,428.782287823 L259.335793358,425.166051661 L281.291512915,416.125461255 M175.129151292,458.228782288 L183.394833948,453.579335793 L191.918819188,456.162361624 L178.745387454,460.036900369 L175.129151292,458.228782288 Z" fill="#cee3f5" id="US.AK.013" stroke="#6e6e6e" stroke-width="0.4"><desc><name>Aleutians East Borough</name><stateAbbrev>AK</stateAbbrev><state>Alaska</state><fips>013</fips><incits>02013</incits><id>US.AK.013</id><population>3092</population></desc></path><path d="M0.0,489.483394834 L14.4649446494,490.0 L33.0627306273,485.350553506 L40.036900369,487.41697417 L50.8856088561,485.350553506 L57.8597785978,480.959409594 L62.5092250923,485.092250923 L55.5350553506,488.450184502 L42.8782287823,488.191881919 L23.2472324723,493.874538745 L17.8228782288,492.324723247 L1.80811808118,493.099630996 L0.0,489.483394834 M175.129151292,458.228782288 L178.745387454,460.036900369 L168.15498155,467.269372694 L156.273062731,470.627306273 L149.040590406,469.852398524 L141.291512915,473.726937269 L131.992619926,473.726937269 L149.815498155,464.42804428 L160.405904059,464.944649446 L160.405904059,460.295202952 L175.129151292,458.228782288 Z" fill="#cee3f5" id="US.AK.016" stroke="#6e6e6e" stroke-width="0.4"><desc><name>Aleutians West Census Area</name><stateAbbrev>AK</stateAbbrev><state>Alaska</state><fips>016</fips><incits>02016</incits><id>US.AK.016</id><population>5511</population></desc></path><path d="M403.985239852,354.907749077 L413.025830258,351.808118081 L432.398523985,351.033210332 L432.140221402,359.557195572 L428.265682657,361.10701107 L423.616236162,359.040590406 L419.741697417,358.782287823 L403.985239852,354.907749077 Z" fill="#cee3f5" id="US.AK.020" stroke="#6e6e6e" stroke-width="0.4"><desc><name>Anchorage Municipality</name><stateAbbrev>AK</stateAbbrev><state>Alaska</state><fips>020</fips><incits>02020</incits><id>US.AK.020</id><population>300950</population></desc></path><path d="M189.077490775,358.52398524 L203.800738007,357.490774908 L215.424354244,350.516605166 L236.088560886,350.516605166 L249.003690037,348.708487085 L257.527675277,343.542435424 L275.867158672,343.542435424 L286.457564576,341.217712177 L307.638376384,342.509225092 L355.94095941,342.509225092 L366.531365314,338.634686347 L366.531365314,351.033210332 L359.815498155,351.033210332 L360.332103321,358.52398524 L323.653136531,358.782287823 L280.516605166,358.782287823 L268.376383764,368.597785978 L265.018450185,374.79704797 L253.394833948,382.546125461 L245.904059041,391.84501845 L238.413284133,389.003690037 L233.763837638,382.287822878 L238.15498155,378.671586716 L233.763837638,374.538745387 L210.516605166,375.57195572 L185.20295203,363.6900369 L189.077490775,358.52398524 M155.756457565,368.856088561 L176.162361624,364.464944649 L184.686346863,367.306273063 L185.719557196,373.763837638 L177.453874539,376.088560886 L158.339483395,371.439114391 L155.756457565,368.856088561 Z" fill="#cee3f5" id="US.AK.050" stroke="#6e6e6e" stroke-width="0.4"><desc><name>Bethel Census Area</name><stateAbbrev>AK</stateAbbrev><state>Alaska</state><fips>050</fips><incits>02050</incits><id>US.AK.050</id><population>17758</population></desc></path><path d="M294.206642066,391.84501845 L306.346863469,388.228782288 L318.487084871,387.712177122 L318.487084871,391.84501845 L294.206642066,391.84501845 Z" fill="#cee3f5" id="US.AK.060" stroke="#6e6e6e" stroke-width="0.4"><desc><name>Bristol Bay Borough</name><stateAbbrev>AK</stateAbbrev><state>Alaska</state><fips>060</fips><incits>02060</incits><id>US.AK.060</id><population>960</population></desc></path><path d="M366.531365314,332.177121771 L374.79704797,325.977859779 L380.221402214,313.837638376 L391.070110701,313.837638376 L399.077490775,308.671586716 L439.114391144,308.929889299 L453.579335793,310.221402214 L453.837638376,321.328413284 L438.597785978,323.653136531 L417.675276753,323.653136531 L382.804428044,331.143911439 L366.531365314,332.177121771 Z" fill="#cee3f5" id="US.AK.068" stroke="#6e6e6e" stroke-width="0.4"><desc><name>Denali Borough</name><stateAbbrev>AK</stateAbbrev><state>Alaska</state><fips>068</fips><incits>02068</incits><id>US.AK.068</id><population>1867</population></desc></path><path d="M323.653136531,358.782287823 L323.911439114,376.346863469 L305.055350554,382.804428044 L306.346863469,388.228782288 L294.206642066,391.84501845 L293.173431734,393.653136531 L282.324723247,395.719557196 L271.734317343,389.520295203 L256.494464945,389.26199262 L245.904059041,391.84501845 L253.394833948,382.546125461 L265.018450185,374.79704797 L268.376383764,368.597785978 L280.516605166,358.782287823 L323.653136531,358.782287823 Z" fill="#cee3f5" id="US.AK.070" stroke="#6e6e6e" stroke-width="0.4"><desc><name>Dillingham Census Area</name><stateAbbrev>AK</stateAbbrev><state>Alaska</state><fips>070</fips><incits>02070</incits><id>US.AK.070</id><population>5010</population></desc></path><path d="M496.199261993,304.022140221 L474.760147601,307.896678967 L453.579335793,310.221402214 L439.114391144,308.929889299 L429.557195572,305.055350554 L429.298892989,296.273062731 L445.57195572,296.273062731 L465.461254613,292.915129151 L473.468634686,297.306273063 L496.974169742,300.147601476 L496.199261993,304.022140221 Z" fill="#cee3f5" id="US.AK.090" stroke="#6e6e6e" stroke-width="0.4"><desc><name>Fairbanks North Star Borough</name><stateAbbrev>AK</stateAbbrev><state>Alaska</state><fips>090</fips><incits>02090</incits><id>US.AK.090</id><population>100436</population></desc></path><path d="M616.826568266,375.830258303 L626.900369004,381.254612546 L637.232472325,386.937269373 L624.05904059,386.67896679 L626.125461255,393.394833948 L614.501845018,383.837638376 L605.719557196,382.546125461 L610.110701107,377.121771218 L616.826568266,375.830258303 Z" fill="#cee3f5" id="US.AK.100" stroke="#6e6e6e" stroke-width="0.4"><desc><name>Haines Borough</name><stateAbbrev>AK</stateAbbrev><state>Alaska</state><fips>100</fips><incits>02100</incits><id>US.AK.100</id><population>2592</population></desc></path><path d="M583.505535055,389.520295203 L590.73800738,387.712177122 L605.719557196,382.546125461 L614.501845018,383.837638376 L626.125461255,393.394833948 L639.298892989,398.560885609 L646.273062731,403.726937269 L653.763837638,398.560885609 L665.387453875,410.184501845 L640.848708487,413.025830258 L633.616236162,417.158671587 L629.483394834,403.726937269 L614.243542435,400.627306273 L606.236162362,403.210332103 L603.911439114,398.560885609 L583.505535055,389.520295203 Z" fill="#cee3f5" id="US.AK.105" stroke="#6e6e6e" stroke-width="0.4"><desc><name>Hoonah-Angoon Census Area</name><stateAbbrev>AK</stateAbbrev><state>Alaska</state><fips>105</fips><incits>02105</incits><id>US.AK.105</id><population>2145</population></desc></path><path d="M637.232472325,386.937269373 L650.922509225,394.42804428 L653.763837638,398.560885609 L646.273062731,403.726937269 L639.298892989,398.560885609 L626.125461255,393.394833948 L624.05904059,386.67896679 L637.232472325,386.937269373 Z" fill="#cee3f5" id="US.AK.110" stroke="#6e6e6e" stroke-width="0.4"><desc><name>Juneau City and Borough</name><stateAbbrev>AK</stateAbbrev><state>Alaska</state><fips>110</fips><incits>02110</incits><id>US.AK.110</id><population>32660</population></desc></path><path d="M338.634686347,410.959409594 L341.992619926,407.343173432 L358.782287823,400.627306273 L370.922509225,391.328413284 L385.129151292,395.461254613 L377.896678967,401.660516605 L380.73800738,406.051660517 L377.380073801,410.442804428 L360.848708487,415.867158672 L353.099630996,423.099630996 L338.634686347,410.959409594 M347.675276753,391.328413284 L354.907749077,391.328413284 L363.948339483,387.712177122 L353.874538745,394.169741697 L350.258302583,399.077490775 L338.376383764,401.143911439 L333.210332103,406.051660517 L320.811808118,410.184501845 L317.970479705,414.833948339 L312.287822878,411.734317343 L317.712177122,407.601476015 L332.95202952,402.435424354 L332.95202952,398.044280443 L345.350553506,395.461254613 L347.675276753,391.328413284 Z" fill="#cee3f5" id="US.AK.150" stroke="#6e6e6e" stroke-width="0.4"><desc><name>Kodiak Island Borough</name><stateAbbrev>AK</stateAbbrev><state>Alaska</state><fips>150</fips><incits>02150</incits><id>US.AK.150</id><population>14135</population></desc></path><path d="M281.291512915,416.125461255 L293.173431734,393.653136531 L294.206642066,391.84501845 L318.487084871,391.84501845 L318.487084871,387.712177122 L306.346863469,388.228782288 L305.055350554,382.804428044 L323.911439114,376.346863469 L323.653136531,358.782287823 L360.332103321,358.52398524 L360.848708487,364.981549815 L357.232472325,374.79704797 L352.841328413,378.671586716 L341.217712177,382.546125461 L342.767527675,391.328413284 L347.675276753,391.328413284 L345.350553506,395.461254613 L332.95202952,398.044280443 L332.95202952,402.435424354 L317.712177122,407.601476015 L312.287822878,411.734317343 L317.970479705,414.833948339 L317.970479705,417.933579336 L290.848708487,434.981549815 L273.025830258,435.239852399 L268.118081181,430.073800738 L266.568265683,422.58302583 L275.608856089,421.291512915 L281.291512915,416.125461255 Z" fill="#cee3f5" id="US.AK.164" stroke="#6e6e6e" stroke-width="0.4"><desc><name>Lake and Peninsula Borough</name><stateAbbrev>AK</stateAbbrev><state>Alaska</state><fips>164</fips><incits>02164</incits><id>US.AK.164</id><population>1648</population></desc></path><path d="M366.531365314,338.634686347 L366.531365314,332.177121771 L382.804428044,331.143911439 L417.675276753,323.653136531 L438.597785978,323.653136531 L453.837638376,321.328413284 L461.070110701,325.719557196 L461.84501845,339.151291513 L453.837638376,339.151291513 L454.354243542,350.516605166 L432.398523985,351.033210332 L413.025830258,351.808118081 L403.985239852,354.907749077 L390.811808118,351.291512915 L366.531365314,351.033210332 L366.531365314,338.634686347 Z" fill="#cee3f5" id="US.AK.170" stroke="#6e6e6e" stroke-width="0.4"><desc><name>Matanuska-Susitna Borough</name><stateAbbrev>AK</stateAbbrev><state>Alaska</state><fips>170</fips><incits>02170</incits><id>US.AK.170</id><population>95192</population></desc></path><path d="M200.442804428,275.867158672 L203.800738007,288.007380074 L210.774907749,293.173431734 L268.118081181,293.173431734 L271.217712177,291.881918819 L271.217712177,300.405904059 L265.535055351,302.988929889 L265.793357934,313.062730627 L269.667896679,316.937269373 L255.20295203,320.553505535 L252.878228782,328.044280443 L236.346863469,328.044280443 L226.531365314,323.653136531 L252.361623616,317.195571956 L249.520295203,310.996309963 L231.697416974,306.088560886 L224.723247232,309.963099631 L212.324723247,306.346863469 L192.435424354,308.15498155 L174.095940959,306.088560886 L169.704797048,300.664206642 L146.974169742,288.782287823 L186.494464945,277.933579336 L200.442804428,275.867158672 M91.9557195572,321.586715867 L93.5055350554,316.937269373 L106.420664207,319.26199262 L115.977859779,317.453874539 L121.402214022,320.811808118 L140.0,323.394833948 L126.3099631,329.852398524 L104.870848708,322.878228782 L91.9557195572,321.586715867 Z" fill="#cee3f5" id="US.AK.180" stroke="#6e6e6e" stroke-width="0.4"><desc><name>Nome Census Area</name><stateAbbrev>AK</stateAbbrev><state>Alaska</state><fips>180</fips><incits>02180</incits><id>US.AK.180</id><population>9892</population></desc></path><path d="M540.36900369,248.745387454 L468.044280443,248.745387454 L468.044280443,255.977859779 L409.926199262,255.977859779 L333.210332103,255.977859779 L306.346863469,252.878228782 L243.32103321,252.619926199 L199.926199262,252.619926199 L184.686346863,255.461254613 L172.287822878,252.361623616 L175.645756458,242.287822878 L203.025830258,241.771217712 L216.457564576,236.605166052 L219.040590406,229.63099631 L238.15498155,221.365313653 L247.970479705,221.623616236 L269.409594096,214.649446494 L300.664206642,212.58302583 L316.420664207,206.125461255 L353.616236162,213.357933579 L378.15498155,213.874538745 L392.103321033,220.073800738 L418.450184502,218.265682657 L468.302583026,223.431734317 L481.992619926,226.531365314 L508.081180812,223.948339483 L540.36900369,231.180811808 L540.36900369,248.745387454 Z" fill="#cee3f5" id="US.AK.185" stroke="#6e6e6e" stroke-width="0.4"><desc><name>North Slope Borough</name><stateAbbrev>AK</stateAbbrev><state>Alaska</state><fips>185</fips><incits>02185</incits><id>US.AK.185</id><population>9686</population></desc></path><path d="M184.686346863,255.461254613 L199.926199262,252.619926199 L243.32103321,252.619926199 L306.346863469,252.878228782 L333.210332103,255.977859779 L332.435424354,259.077490775 L350.0,268.118081181 L349.225092251,274.575645756 L320.295202952,277.933579336 L295.756457565,277.933579336 L295.756457565,283.099630996 L280.258302583,283.099630996 L270.959409594,285.424354244 L271.217712177,291.881918819 L268.118081181,293.173431734 L210.774907749,293.173431734 L203.800738007,288.007380074 L200.442804428,275.867158672 L212.58302583,275.867158672 L224.206642066,271.47601476 L210.516605166,269.409594096 L204.833948339,262.435424354 L184.686346863,255.461254613 Z" fill="#cee3f5" id="US.AK.188" stroke="#6e6e6e" stroke-width="0.4"><desc><name>Northwest Arctic Borough</name><stateAbbrev>AK</stateAbbrev><state>Alaska</state><fips>188</fips><incits>02188</incits><id>US.AK.188</id><population>7685</population></desc></path><path d="M633.616236162,417.158671587 L640.848708487,413.025830258 L665.387453875,410.184501845 L669.003690037,416.900369004 L653.763837638,424.649446494 L646.273062731,424.649446494 L641.365313653,431.365313653 L632.066420664,427.749077491 L635.424354244,425.682656827 L633.616236162,417.158671587 Z" fill="#cee3f5" id="US.AK.195" stroke="#6e6e6e" stroke-width="0.4"><desc><name>Petersburg Census Area</name><stateAbbrev>AK</stateAbbrev><state>Alaska</state><fips>195</fips><incits>02195</incits><id>US.AK.195</id><population>3774</population></desc></path><path d="M606.236162362,403.210332103 L614.243542435,400.627306273 L629.483394834,403.726937269 L633.616236162,417.158671587 L635.424354244,425.682656827 L632.066420664,427.749077491 L614.760147601,415.350553506 L606.236162362,403.210332103 Z" fill="#cee3f5" id="US.AK.220" stroke="#6e6e6e" stroke-width="0.4"><desc><name>Sitka City and Borough</name><stateAbbrev>AK</stateAbbrev><state>Alaska</state><fips>220</fips><incits>02220</incits><id>US.AK.220</id><population>9020</population></desc></path><path d="M453.579335793,310.221402214 L474.760147601,307.896678967 L496.199261993,304.022140221 L514.79704797,294.723247232 L534.686346863,290.590405904 L540.36900369,287.232472325 L540.36900369,320.811808118 L540.36900369,344.317343173 L528.487084871,344.317343173 L526.420664207,335.535055351 L513.763837638,334.243542435 L509.63099631,326.752767528 L461.070110701,325.719557196 L453.837638376,321.328413284 L453.579335793,310.221402214 Z" fill="#cee3f5" id="US.AK.240" stroke="#6e6e6e" stroke-width="0.4"><desc><name>Southeast Fairbanks Census Area</name><stateAbbrev>AK</stateAbbrev><state>Alaska</state><fips>240</fips><incits>02240</incits><id>US.AK.240</id><population>6985</population></desc></path><path d="M424.907749077,373.247232472 L430.590405904,372.472324723 L428.265682657,361.10701107 L432.140221402,359.557195572 L432.398523985,351.033210332 L454.354243542,350.516605166 L453.837638376,339.151291513 L461.84501845,339.151291513 L461.070110701,325.719557196 L509.63099631,326.752767528 L513.763837638,334.243542435 L526.420664207,335.535055351 L528.487084871,344.317343173 L540.36900369,344.317343173 L540.36900369,366.014760148 L529.26199262,364.206642066 L509.114391144,364.206642066 L498.52398524,372.988929889 L491.033210332,375.57195572 L485.608856089,369.889298893 L470.627306273,367.306273063 L449.963099631,371.697416974 L439.63099631,375.57195572 L424.907749077,373.247232472 Z" fill="#cee3f5" id="US.AK.261" stroke="#6e6e6e" stroke-width="0.4"><desc><name>Valdez-Cordova Census Area</name><stateAbbrev>AK</stateAbbrev><state>Alaska</state><fips>261</fips><incits>02261</incits><id>US.AK.261</id><population>9763</population></desc></path><path d="M226.531365314,323.653136531 L236.346863469,328.044280443 L252.878228782,328.044280443 L250.036900369,339.926199262 L257.527675277,343.542435424 L249.003690037,348.708487085 L236.088560886,350.516605166 L215.424354244,350.516605166 L203.800738007,357.490774908 L189.077490775,358.52398524 L183.136531365,356.457564576 L174.095940959,348.966789668 L177.712177122,341.217712177 L186.236162362,337.084870849 L194.243542435,327.78597786 L206.642066421,323.653136531 L220.073800738,326.752767528 L226.531365314,323.653136531 Z" fill="#cee3f5" id="US.AK.270" stroke="#6e6e6e" stroke-width="0.4"><desc><name>Wade Hampton Census Area</name><stateAbbrev>AK</stateAbbrev><state>Alaska</state><fips>270</fips><incits>02270</incits><id>US.AK.270</id><population>7977</population></desc></path><path d="M540.36900369,366.014760148 L555.092250923,369.114391144 L559.225092251,367.04797048 L589.446494465,382.804428044 L590.73800738,387.712177122 L583.505535055,389.520295203 L579.63099631,386.162361624 L545.276752768,376.863468635 L516.346863469,371.697416974 L498.52398524,372.988929889 L509.114391144,364.206642066 L529.26199262,364.206642066 L540.36900369,366.014760148 Z" fill="#cee3f5" id="US.AK.282" stroke="#6e6e6e" stroke-width="0.4"><desc><name>Yakutat City and Borough</name><stateAbbrev>AK</stateAbbrev><state>Alaska</state><fips>282</fips><incits>02282</incits><id>US.AK.282</id><population>642</population></desc></path><path d="M360.332103321,358.52398524 L359.815498155,351.033210332 L366.531365314,351.033210332 L390.811808118,351.291512915 L403.985239852,354.907749077 L419.741697417,358.782287823 L423.616236162,359.040590406 L428.265682657,361.10701107 L430.590405904,372.472324723 L424.907749077,373.247232472 L415.608856089,378.671586716 L389.26199262,384.870848708 L366.273062731,386.162361624 L363.948339483,387.712177122 L354.907749077,391.328413284 L347.675276753,391.328413284 L342.767527675,391.328413284 L341.217712177,382.546125461 L352.841328413,378.671586716 L357.232472325,374.79704797 L360.848708487,364.981549815 L360.332103321,358.52398524 Z" fill="#cee3f5" id="US.AK.122" stroke="#6e6e6e" stroke-width="0.4"><desc><name>Kenai Peninsula Borough</name><stateAbbrev>AK</stateAbbrev><state>Alaska</state><fips>122</fips><incits>02122</incits><id>US.AK.122</id><population>57147</population></desc></path><path d="M252.878228782,328.044280443 L255.20295203,320.553505535 L269.667896679,316.937269373 L265.793357934,313.062730627 L265.535055351,302.988929889 L271.217712177,300.405904059 L271.217712177,291.881918819 L270.959409594,285.424354244 L280.258302583,283.099630996 L295.756457565,283.099630996 L295.756457565,277.933579336 L320.295202952,277.933579336 L349.225092251,274.575645756 L350.0,268.118081181 L332.435424354,259.077490775 L333.210332103,255.977859779 L409.926199262,255.977859779 L468.044280443,255.977859779 L468.044280443,248.745387454 L540.36900369,248.745387454 L540.36900369,287.232472325 L534.686346863,290.590405904 L514.79704797,294.723247232 L496.199261993,304.022140221 L496.974169742,300.147601476 L473.468634686,297.306273063 L465.461254613,292.915129151 L445.57195572,296.273062731 L429.298892989,296.273062731 L429.557195572,305.055350554 L439.114391144,308.929889299 L399.077490775,308.671586716 L391.070110701,313.837638376 L380.221402214,313.837638376 L374.79704797,325.977859779 L366.531365314,332.177121771 L366.531365314,338.634686347 L355.94095941,342.509225092 L307.638376384,342.509225092 L286.457564576,341.217712177 L275.867158672,343.542435424 L257.527675277,343.542435424 L250.036900369,339.926199262 L252.878228782,328.044280443 Z" fill="#cee3f5" id="US.AK.290" stroke="#6e6e6e" stroke-width="0.4"><desc><name>Yukon-Koyukuk Census Area</name><stateAbbrev>AK</stateAbbrev><state>Alaska</state><fips>290</fips><incits>02290</incits><id>US.AK.290</id><population>5695</population></desc></path></svg>