<?xml version='1.0' encoding='utf-8'?>
<svg height="700" width="700" xmlns="http://www.w3.org/2000/svg"><path d="M22.972972973,363.378378378 L20.2702702703,353.648648649 L20.0,345.0 L20.8108108108,342.567567568 L22.972972973,341.486486486 L21.3513513514,346.081081081 L22.972972973,363.378378378 M44.8648648649,311.486486486 L46.7567567568,314.459459459 L44.3243243243,316.351351351 L42.972972973,312.297297297 L44.3243243243,310.675675676 L44.8648648649,311.486486486 M99.4594594595,150.405405405 L109.459459459,157.432432432 L117.297297297,165.0 L118.918918919,167.702702703 L119.189189189,173.918918919 L125.945945946,183.648648649 L131.891891892,194.459459459 L137.837837838,199.864864865 L141.351351351,206.351351351 L143.513513514,207.702702703 L151.081081081,207.972972973 L164.324324324,204.189189189 L194.054054054,206.351351351 L194.054054054,206.351351351 L194.054054054,208.783783784 L194.324324324,210.135135135 L195.675675676,213.648648649 L196.756756757,217.702702703 L197.297297297,218.783783784 L197.567567568,219.054054054 L198.108108108,219.594594595 L200.0,220.405405405 L199.72972973,223.378378378 L201.891891892,225.0 L203.783783784,227.972972973 L205.405405405,229.324324324 L205.675675676,229.594594595 L211.081081081,243.918918919 L211.891891892,246.621621622 L217.567567568,253.648648649 L222.432432432,269.324324324 L222.162162162,271.486486486 L220.0,277.432432432 L221.351351351,278.513513514 L222.972972973,279.324324324 L223.513513514,280.135135135 L224.324324324,282.837837838 L218.378378378,285.810810811 L215.945945946,287.702702703 L215.405405405,288.243243243 L215.405405405,288.783783784 L215.405405405,289.324324324 L215.675675676,289.594594595 L216.486486486,291.756756757 L217.027027027,295.540540541 L221.081081081,311.216216216 L221.351351351,312.027027027 L221.081081081,312.297297297 L220.0,313.108108108 L215.135135135,316.081081081 L200.0,365.0 L199.459459459,367.972972973 L199.459459459,368.243243243 L197.837837838,370.675675676 L197.837837838,371.216216216 L197.567567568,371.756756757 L197.837837838,373.108108108 L197.837837838,373.918918919 L197.567567568,374.189189189 L197.297297297,374.459459459 L196.486486486,374.72972973 L195.945945946,375.0 L195.675675676,375.540540541 L195.405405405,375.810810811 L195.405405405,376.351351351 L194.864864865,382.297297297 L194.864864865,383.378378378 L195.135135135,383.648648649 L195.405405405,384.189189189 L195.675675676,384.459459459 L195.945945946,384.459459459 L197.837837838,384.72972973 L201.351351351,386.351351351 L205.675675676,385.540540541 L208.108108108,386.351351351 L210.0,385.810810811 L210.810810811,385.540540541 L211.081081081,385.810810811 L211.351351351,386.081081081 L212.162162162,388.783783784 L213.243243243,390.405405405 L218.918918919,394.459459459 L222.972972973,398.513513514 L222.972972973,398.513513514 L221.351351351,401.216216216 L218.108108108,403.378378378 L206.756756757,400.675675676 L202.702702703,397.972972973 L195.405405405,400.405405405 L192.702702703,398.783783784 L188.108108108,399.054054054 L181.351351351,403.648648649 L182.702702703,407.162162162 L181.891891892,409.324324324 L177.027027027,410.675675676 L172.162162162,409.594594595 L164.324324324,410.675675676 L153.243243243,407.162162162 L138.648648649,409.324324324 L127.027027027,416.351351351 L122.432432432,417.162162162 L116.216216216,423.918918919 L108.648648649,429.054054054 L106.216216216,431.756756757 L104.864864865,435.810810811 L105.945945946,440.405405405 L104.864864865,443.918918919 L103.243243243,445.540540541 L97.027027027,449.594594595 L91.8918918919,449.054054054 L82.972972973,453.648648649 L77.8378378378,453.918918919 L74.0540540541,455.810810811 L60.2702702703,454.189189189 L59.7297297297,446.351351351 L56.7567567568,428.513513514 L56.4864864865,410.405405405 L59.4594594595,399.594594595 L60.0,393.108108108 L58.3783783784,380.675675676 L59.1891891892,374.189189189 L67.027027027,354.72972973 L62.972972973,350.945945946 L61.0810810811,346.891891892 L57.5675675676,346.351351351 L56.7567567568,347.162162162 L54.5945945946,342.027027027 L54.8648648649,345.540540541 L53.5135135135,343.918918919 L53.5135135135,339.324324324 L55.1351351351,337.972972973 L53.7837837838,337.972972973 L55.1351351351,333.648648649 L51.6216216216,336.081081081 L52.4324324324,336.621621622 L52.7027027027,343.648648649 L50.2702702703,340.135135135 L50.0,336.621621622 L48.9189189189,336.621621622 L48.9189189189,333.378378378 L47.2972972973,336.351351351 L48.3783783784,329.594594595 L47.027027027,330.675675676 L48.1081081081,327.702702703 L46.7567567568,328.243243243 L47.2972972973,326.351351351 L45.9459459459,327.702702703 L41.8918918919,328.243243243 L41.0810810811,327.162162162 L38.6486486486,328.783783784 L39.4594594595,326.891891892 L37.2972972973,327.432432432 L36.7567567568,326.621621622 L34.0540540541,327.162162162 L34.3243243243,326.081081081 L31.3513513514,325.0 L27.027027027,326.081081081 L29.1891891892,327.432432432 L28.1081081081,329.594594595 L27.5675675676,336.621621622 L26.2162162162,327.432432432 L24.0540540541,323.378378378 L24.5945945946,321.216216216 L26.4864864865,319.324324324 L32.1621621622,307.702702703 L34.0540540541,306.081081081 L35.9459459459,306.621621622 L32.4324324324,309.594594595 L30.5405405405,313.108108108 L30.8108108108,314.72972973 L41.0810810811,314.459459459 L44.0540540541,318.243243243 L47.8378378378,319.054054054 L48.3783783784,315.27027027 L50.2702702703,317.432432432 L53.7837837838,315.810810811 L55.1351351351,316.621621622 L56.2162162162,316.351351351 L55.1351351351,314.459459459 L51.0810810811,312.567567568 L52.4324324324,311.216216216 L51.3513513514,309.594594595 L48.3783783784,309.594594595 L48.1081081081,307.432432432 L46.7567567568,305.540540541 L46.7567567568,308.513513514 L43.7837837838,304.459459459 L42.4324324324,304.189189189 L42.972972973,305.810810811 L41.6216216216,305.0 L41.6216216216,306.081081081 L42.4324324324,308.513513514 L40.8108108108,307.162162162 L41.8918918919,300.135135135 L40.0,300.405405405 L39.4594594595,299.594594595 L41.0810810811,298.783783784 L45.4054054054,293.918918919 L44.8648648649,292.567567568 L47.2972972973,292.027027027 L46.7567567568,290.945945946 L49.4594594595,287.432432432 L45.4054054054,286.891891892 L41.0810810811,284.72972973 L35.1351351351,288.513513514 L29.7297297297,284.72972973 L27.5675675676,286.081081081 L24.0540540541,286.351351351 L25.4054054054,284.72972973 L20.2702702703,285.810810811 L18.6486486486,285.27027027 L17.2972972973,282.567567568 L16.4864864865,284.189189189 L17.8378378378,290.675675676 L23.5135135135,299.054054054 L21.0810810811,297.972972973 L22.7027027027,300.675675676 L18.6486486486,293.918918919 L17.027027027,293.108108108 L15.6756756757,287.432432432 L8.91891891892,280.135135135 L10.5405405405,273.918918919 L7.56756756757,266.351351351 L7.83783783784,263.918918919 L10.8108108108,250.945945946 L16.7567567568,242.297297297 L17.027027027,239.864864865 L15.1351351351,238.783783784 L15.6756756757,236.621621622 L17.2972972973,236.081081081 L17.027027027,233.918918919 L20.5405405405,224.459459459 L20.5405405405,215.27027027 L22.7027027027,216.891891892 L22.4324324324,219.864864865 L24.8648648649,223.918918919 L25.9459459459,228.243243243 L27.5675675676,229.594594595 L29.7297297297,229.324324324 L27.027027027,230.945945946 L29.4594594595,235.810810811 L32.4324324324,236.081081081 L36.4864864865,233.108108108 L35.4054054054,235.810810811 L39.7297297297,235.810810811 L41.6216216216,232.027027027 L42.972972973,236.891891892 L46.7567567568,238.513513514 L50.5405405405,236.351351351 L51.0810810811,231.486486486 L52.1621621622,229.054054054 L54.0540540541,229.324324324 L55.6756756757,230.675675676 L55.9459459459,234.189189189 L54.8648648649,236.081081081 L56.2162162162,239.594594595 L58.3783783784,242.027027027 L57.2972972973,244.459459459 L58.1081081081,246.081081081 L64.8648648649,246.351351351 L69.1891891892,243.378378378 L72.1621621622,244.459459459 L75.9459459459,243.108108108 L76.2162162162,242.027027027 L74.3243243243,240.945945946 L80.0,240.135135135 L82.972972973,240.405405405 L82.1621621622,242.837837838 L83.7837837838,243.648648649 L91.0810810811,244.189189189 L89.1891891892,243.108108108 L92.4324324324,241.216216216 L87.027027027,240.945945946 L84.8648648649,233.378378378 L85.1351351351,231.486486486 L84.0540540541,231.216216216 L84.0540540541,230.135135135 L87.2972972973,228.243243243 L89.4594594595,228.783783784 L94.3243243243,232.027027027 L92.972972973,235.0 L94.8648648649,235.540540541 L102.702702703,233.918918919 L106.216216216,231.216216216 L108.648648649,226.081081081 L104.864864865,219.324324324 L109.189189189,221.756756757 L107.027027027,218.783783784 L107.567567568,217.702702703 L106.756756757,216.621621622 L102.972972973,215.27027027 L102.972972973,213.378378378 L101.351351351,211.486486486 L92.1621621622,203.918918919 L87.027027027,201.216216216 L82.4324324324,197.432432432 L80.2702702703,193.918918919 L77.027027027,192.027027027 L75.1351351351,186.891891892 L74.3243243243,174.459459459 L71.0810810811,166.621621622 L69.4594594595,165.27027027 L70.5405405405,159.054054054 L70.2702702703,155.27027027 L66.2162162162,151.216216216 L63.7837837838,150.405405405 L61.8918918919,150.945945946 L59.7297297297,149.864864865 L45.4054054054,151.756756757 L41.6216216216,153.108108108 L37.8378378378,152.837837838 L35.4054054054,151.486486486 L25.4054054054,158.513513514 L16.2162162162,174.459459459 L15.4054054054,177.702702703 L15.9459459459,178.513513514 L18.3783783784,176.081081081 L20.8108108108,176.351351351 L22.4324324324,177.972972973 L21.3513513514,180.945945946 L21.0810810811,184.72972973 L16.4864864865,196.351351351 L17.5675675676,205.27027027 L20.2702702703,212.837837838 L18.9189189189,217.432432432 L17.2972972973,215.540540541 L17.5675675676,210.135135135 L14.0540540541,196.351351351 L12.4324324324,195.27027027 L11.0810810811,192.027027027 L8.91891891892,191.216216216 L5.13513513514,186.891891892 L6.75675675676,179.054054054 L5.40540540541,176.351351351 L4.05405405405,176.081081081 L0.0,172.297297297 L16.2162162162,157.432432432 L26.7567567568,149.594594595 L47.5675675676,142.027027027 L77.5675675676,137.702702703 L84.3243243243,139.594594595 L99.4594594595,150.405405405 Z" fill="#cee3f5" id="TM.BA" stroke="#6e6e6e" stroke-width="0.4"><desc><labelrank>4</labelrank><code_hasc>TM.BA</code_hasc><name>Balkan</name><admin>Turkmenistan</admin><type_en>Province</type_en><region /><woe_id>2347349</woe_id><longitude>55</longitude><woe_name>Balkan</woe_name><fips>TX02</fips><woe_label>Krasnovodsk, TM, Turkmenistan</woe_label><latitude>39</latitude><iso_a2>TM</iso_a2><postal>BA</postal><type>Welayat|Velayat</type><id>TM.BA</id></desc></path><path d="M388.648648649,317.702702703 L413.513513514,315.0 L413.513513514,325.0 L412.702702703,327.162162162 L403.243243243,330.405405405 L401.891891892,332.297297297 L398.648648649,352.027027027 L394.054054054,353.378378378 L391.891891892,363.918918919 L387.567567568,364.189189189 L395.945945946,392.567567568 L408.918918919,405.0 L415.945945946,417.162162162 L411.351351351,419.324324324 L414.864864865,428.783783784 L412.432432432,430.135135135 L412.162162162,435.27027027 L416.486486486,449.594594595 L426.486486486,449.864864865 L430.810810811,455.540540541 L435.675675676,453.918918919 L438.648648649,454.459459459 L439.72972973,456.081081081 L439.72972973,458.783783784 L438.108108108,461.756756757 L435.675675676,463.108108108 L432.702702703,463.108108108 L430.27027027,461.216216216 L429.72972973,456.891891892 L426.216216216,451.216216216 L423.243243243,450.675675676 L418.378378378,451.486486486 L443.243243243,488.783783784 L445.945945946,494.189189189 L447.837837838,531.756756757 L448.378378378,535.0 L452.432432432,536.081081081 L452.702702703,539.054054054 L450.0,541.486486486 L446.756756757,542.027027027 L445.945945946,543.378378378 L447.027027027,546.351351351 L452.162162162,550.945945946 L450.540540541,553.378378378 L450.0,559.864864865 L444.594594595,565.27027027 L442.702702703,563.918918919 L441.081081081,560.405405405 L436.756756757,560.945945946 L435.405405405,559.054054054 L434.594594595,556.081081081 L435.675675676,551.486486486 L434.594594595,543.648648649 L431.621621622,540.135135135 L428.648648649,539.054054054 L430.810810811,536.621621622 L430.810810811,534.189189189 L431.891891892,533.108108108 L432.972972973,529.054054054 L430.540540541,519.054054054 L428.918918919,517.162162162 L428.378378378,514.459459459 L430.0,501.216216216 L428.648648649,496.891891892 L424.054054054,496.351351351 L386.756756757,498.513513514 L384.864864865,497.432432432 L381.081081081,490.135135135 L375.405405405,483.918918919 L369.459459459,474.459459459 L363.243243243,473.108108108 L357.837837838,469.324324324 L350.540540541,467.162162162 L348.108108108,468.783783784 L345.675675676,464.189189189 L342.702702703,464.72972973 L340.810810811,463.648648649 L341.081081081,461.486486486 L335.945945946,456.621621622 L334.864864865,451.216216216 L335.135135135,446.621621622 L332.702702703,443.378378378 L327.567567568,444.459459459 L318.648648649,437.702702703 L306.756756757,433.648648649 L305.675675676,435.810810811 L300.810810811,437.162162162 L293.243243243,433.648648649 L290.540540541,437.162162162 L284.594594595,437.972972973 L277.027027027,435.0 L275.405405405,429.054054054 L274.324324324,428.243243243 L268.378378378,427.162162162 L260.540540541,423.378378378 L256.216216216,423.378378378 L254.594594595,421.486486486 L252.702702703,421.486486486 L250.810810811,420.135135135 L241.081081081,420.135135135 L233.783783784,417.162162162 L232.702702703,415.540540541 L233.513513514,410.135135135 L227.027027027,398.513513514 L224.864864865,397.702702703 L223.513513514,398.243243243 L222.972972973,398.513513514 L222.972972973,398.513513514 L218.918918919,394.459459459 L213.243243243,390.405405405 L212.162162162,388.783783784 L211.351351351,386.081081081 L211.081081081,385.810810811 L210.810810811,385.540540541 L210.0,385.810810811 L208.108108108,386.351351351 L201.351351351,386.351351351 L197.837837838,384.72972973 L195.945945946,384.459459459 L195.675675676,384.459459459 L195.405405405,384.189189189 L195.135135135,383.648648649 L194.864864865,383.378378378 L194.864864865,382.297297297 L195.405405405,376.351351351 L195.405405405,375.810810811 L195.675675676,375.540540541 L195.945945946,375.0 L196.486486486,374.72972973 L197.297297297,374.459459459 L197.567567568,374.189189189 L197.837837838,373.918918919 L197.837837838,373.108108108 L197.567567568,371.756756757 L197.837837838,371.216216216 L197.837837838,370.675675676 L199.459459459,368.243243243 L199.459459459,367.972972973 L200.0,365.0 L215.135135135,316.081081081 L215.405405405,315.27027027 L215.675675676,315.0 L220.0,313.108108108 L221.081081081,312.297297297 L221.351351351,312.027027027 L221.081081081,311.216216216 L217.027027027,295.540540541 L216.486486486,291.756756757 L215.675675676,289.594594595 L215.405405405,289.324324324 L215.405405405,288.783783784 L215.405405405,288.243243243 L215.945945946,287.702702703 L218.378378378,285.810810811 L224.324324324,282.837837838 L224.864864865,283.918918919 L229.72972973,286.621621622 L233.243243243,286.081081081 L235.405405405,283.918918919 L239.459459459,282.027027027 L259.189189189,282.297297297 L276.756756757,277.702702703 L282.972972973,278.243243243 L283.513513514,274.72972973 L287.837837838,274.459459459 L312.702702703,280.675675676 L315.405405405,283.918918919 L318.918918919,286.351351351 L322.432432432,287.162162162 L361.891891892,286.351351351 L363.513513514,308.783783784 L367.297297297,312.297297297 L370.810810811,309.864864865 L375.945945946,309.324324324 L380.810810811,318.783783784 L388.648648649,317.702702703 Z" fill="#cee3f5" id="TM.AL" stroke="#6e6e6e" stroke-width="0.4"><desc><labelrank>4</labelrank><code_hasc>TM.AL</code_hasc><name>Ahal</name><admin>Turkmenistan</admin><type_en>Province</type_en><region /><woe_id>2347347</woe_id><longitude>59</longitude><woe_name>Ahal</woe_name><fips>TX01</fips><woe_label>Ashkhabad, TM, Turkmenistan</woe_label><latitude>38</latitude><iso_a2>TM</iso_a2><postal>AL</postal><type>Welayat|Velayat</type><id>TM.AL</id></desc></path><path d="M407.567567568,206.351351351 L407.837837838,218.513513514 L407.027027027,220.675675676 L371.891891892,222.297297297 L373.783783784,264.189189189 L384.324324324,264.459459459 L385.405405405,265.27027027 L388.648648649,317.702702703 L380.810810811,318.783783784 L375.945945946,309.324324324 L370.810810811,309.864864865 L367.297297297,312.297297297 L363.513513514,308.783783784 L361.891891892,286.351351351 L322.432432432,287.162162162 L318.918918919,286.351351351 L315.405405405,283.918918919 L312.702702703,280.675675676 L287.837837838,274.459459459 L283.513513514,274.72972973 L282.972972973,278.243243243 L276.756756757,277.702702703 L259.189189189,282.297297297 L239.459459459,282.027027027 L235.405405405,283.918918919 L233.243243243,286.081081081 L229.72972973,286.621621622 L224.864864865,283.918918919 L224.324324324,282.837837838 L223.513513514,280.135135135 L222.972972973,279.324324324 L221.351351351,278.513513514 L220.0,277.432432432 L222.432432432,269.324324324 L217.567567568,253.648648649 L211.891891892,246.621621622 L211.081081081,243.918918919 L205.675675676,229.594594595 L205.405405405,229.324324324 L203.783783784,227.972972973 L201.891891892,225.0 L199.72972973,223.378378378 L200.0,220.405405405 L198.108108108,219.594594595 L197.567567568,219.054054054 L197.297297297,218.783783784 L196.756756757,217.702702703 L194.324324324,210.135135135 L194.054054054,208.783783784 L194.054054054,206.351351351 L194.054054054,206.351351351 L206.486486486,207.162162162 L216.756756757,209.324324324 L220.0,205.0 L223.243243243,203.108108108 L223.783783784,202.027027027 L219.72972973,200.405405405 L217.027027027,195.810810811 L216.756756757,190.135135135 L214.324324324,184.459459459 L214.864864865,177.972972973 L213.783783784,170.405405405 L215.135135135,168.783783784 L221.621621622,165.0 L225.945945946,157.432432432 L229.72972973,153.918918919 L234.324324324,151.486486486 L245.405405405,152.567567568 L256.216216216,149.594594595 L255.135135135,147.432432432 L258.108108108,145.27027027 L260.27027027,139.324324324 L258.918918919,134.459459459 L262.972972973,130.405405405 L265.945945946,129.864864865 L269.459459459,132.837837838 L272.702702703,131.756756757 L278.378378378,134.189189189 L281.081081081,136.891891892 L281.891891892,143.378378378 L286.216216216,142.567567568 L277.297297297,127.972972973 L269.72972973,124.189189189 L268.648648649,122.027027027 L270.0,120.675675676 L274.864864865,117.972972973 L283.513513514,120.405405405 L287.837837838,119.864864865 L290.27027027,111.216216216 L304.864864865,126.351351351 L310.27027027,127.972972973 L315.675675676,126.621621622 L316.756756757,127.432432432 L320.540540541,131.486486486 L322.432432432,138.513513514 L327.297297297,139.864864865 L330.27027027,142.297297297 L342.702702703,140.405405405 L351.081081081,140.405405405 L355.675675676,145.540540541 L358.918918919,146.891891892 L359.189189189,148.783783784 L356.756756757,150.405405405 L356.486486486,153.378378378 L357.837837838,158.783783784 L354.054054054,160.405405405 L353.513513514,161.756756757 L354.864864865,162.837837838 L357.297297297,162.837837838 L362.162162162,164.459459459 L366.216216216,168.783783784 L369.189189189,170.675675676 L370.27027027,173.108108108 L369.189189189,173.918918919 L363.243243243,172.297297297 L360.810810811,175.0 L361.351351351,177.162162162 L366.756756757,185.540540541 L363.243243243,188.243243243 L362.432432432,190.135135135 L361.891891892,195.27027027 L363.783783784,197.972972973 L373.783783784,202.837837838 L382.432432432,208.513513514 L391.081081081,206.081081081 L400.540540541,205.27027027 L404.054054054,205.810810811 L406.486486486,208.243243243 L407.567567568,206.351351351 Z" fill="#cee3f5" id="TM.DA" stroke="#6e6e6e" stroke-width="0.4"><desc><labelrank>4</labelrank><code_hasc>TM.DA</code_hasc><name>Tashauz</name><admin>Turkmenistan</admin><type_en>Province</type_en><region /><woe_id>2347351</woe_id><longitude>58</longitude><woe_name>Tashauz</woe_name><fips>TX03</fips><woe_label>Tashauz, TM, Turkmenistan</woe_label><latitude>41</latitude><iso_a2>TM</iso_a2><postal>DA</postal><type>Welayat|Velayat</type><id>TM.DA</id></desc></path><path d="M609.459459459,472.027027027 L547.297297297,476.351351351 L544.054054054,445.27027027 L554.864864865,429.864864865 L554.054054054,427.162162162 L527.837837838,400.945945946 L507.297297297,393.918918919 L502.702702703,390.135135135 L423.243243243,315.27027027 L413.513513514,315.0 L388.648648649,317.702702703 L385.405405405,265.27027027 L384.324324324,264.459459459 L373.783783784,264.189189189 L371.891891892,222.297297297 L407.027027027,220.675675676 L407.837837838,218.513513514 L407.567567568,206.351351351 L408.648648649,207.162162162 L412.162162162,206.621621622 L417.297297297,209.864864865 L421.081081081,210.405405405 L425.945945946,205.0 L426.756756757,201.486486486 L429.72972973,200.945945946 L438.648648649,203.648648649 L449.72972973,210.945945946 L455.135135135,218.513513514 L455.675675676,225.810810811 L458.918918919,235.0 L462.162162162,239.594594595 L464.054054054,244.72972973 L467.027027027,249.594594595 L475.135135135,253.648648649 L480.27027027,268.243243243 L479.72972973,273.378378378 L481.621621622,279.864864865 L488.918918919,286.891891892 L534.324324324,315.0 L546.756756757,327.702702703 L569.72972973,341.216216216 L572.432432432,340.945945946 L576.216216216,338.783783784 L578.918918919,339.054054054 L583.783783784,344.459459459 L594.864864865,352.297297297 L612.702702703,359.054054054 L624.864864865,368.513513514 L645.945945946,380.135135135 L649.459459459,380.945945946 L652.972972973,380.405405405 L656.216216216,377.162162162 L659.459459459,376.621621622 L668.108108108,378.783783784 L672.972972973,381.486486486 L677.837837838,382.567567568 L682.162162162,386.621621622 L689.189189189,388.783783784 L694.864864865,388.783783784 L698.648648649,390.405405405 L700.0,393.378378378 L694.864864865,404.459459459 L695.675675676,414.459459459 L695.135135135,421.216216216 L698.378378378,425.27027027 L696.216216216,429.054054054 L696.216216216,430.135135135 L697.567567568,430.945945946 L694.864864865,433.918918919 L692.162162162,432.567567568 L686.216216216,434.189189189 L682.162162162,431.756756757 L679.459459459,432.027027027 L674.864864865,428.243243243 L662.972972973,425.27027027 L660.0,421.756756757 L657.837837838,421.216216216 L657.027027027,424.459459459 L654.054054054,424.72972973 L652.972972973,426.081081081 L651.621621622,431.216216216 L652.162162162,436.621621622 L648.378378378,442.567567568 L646.756756757,443.648648649 L624.324324324,446.351351351 L610.540540541,454.72972973 L609.72972973,459.054054054 L611.621621622,466.081081081 L609.459459459,472.027027027 Z" fill="#cee3f5" id="TM.LE" stroke="#6e6e6e" stroke-width="0.4"><desc><labelrank>4</labelrank><code_hasc>TM.LE</code_hasc><name>Chardzhou</name><admin>Turkmenistan</admin><type_en>Province</type_en><region /><woe_id>2347348</woe_id><longitude>63</longitude><woe_name>Chardzhou</woe_name><fips>TX04</fips><woe_label>Chardzhou, TM, Turkmenistan</woe_label><latitude>38</latitude><iso_a2>TM</iso_a2><postal>LE</postal><type>Welayat|Velayat</type><id>TM.LE</id></desc></path><path d="M609.459459459,472.027027027 L603.783783784,487.162162162 L605.135135135,494.72972973 L604.864864865,499.594594595 L599.459459459,509.594594595 L590.810810811,514.189189189 L589.189189189,517.972972973 L583.783783784,517.972972973 L578.648648649,521.756756757 L577.837837838,523.648648649 L578.648648649,528.783783784 L573.513513514,527.162162162 L570.540540541,527.162162162 L564.324324324,530.945945946 L554.864864865,532.837837838 L551.621621622,536.621621622 L547.567567568,539.054054054 L542.972972973,540.135135135 L530.810810811,540.945945946 L529.72972973,542.837837838 L531.351351351,546.351351351 L537.027027027,550.675675676 L535.405405405,552.837837838 L530.27027027,555.810810811 L530.540540541,559.864864865 L531.891891892,562.027027027 L531.081081081,567.702702703 L522.972972973,571.216216216 L515.135135135,577.162162162 L511.891891892,580.675675676 L507.297297297,582.837837838 L503.513513514,582.567567568 L499.459459459,579.324324324 L498.108108108,579.594594595 L491.081081081,588.783783784 L488.918918919,585.0 L487.837837838,579.324324324 L482.432432432,576.351351351 L475.405405405,570.675675676 L470.810810811,570.135135135 L461.621621622,572.837837838 L454.594594595,572.297297297 L451.081081081,570.945945946 L444.594594595,565.27027027 L450.0,559.864864865 L450.540540541,553.378378378 L452.162162162,550.945945946 L447.027027027,546.351351351 L445.945945946,543.378378378 L446.756756757,542.027027027 L450.0,541.486486486 L452.702702703,539.054054054 L452.432432432,536.081081081 L448.378378378,535.0 L447.837837838,531.756756757 L445.945945946,494.189189189 L443.243243243,488.783783784 L418.378378378,451.486486486 L423.243243243,450.675675676 L426.216216216,451.216216216 L429.72972973,456.891891892 L430.27027027,461.216216216 L432.702702703,463.108108108 L435.675675676,463.108108108 L438.108108108,461.756756757 L439.72972973,458.783783784 L439.72972973,456.081081081 L438.648648649,454.459459459 L435.675675676,453.918918919 L430.810810811,455.540540541 L426.486486486,449.864864865 L416.486486486,449.594594595 L412.162162162,435.27027027 L412.432432432,430.135135135 L414.864864865,428.783783784 L411.351351351,419.324324324 L415.945945946,417.162162162 L408.918918919,405.0 L395.945945946,392.567567568 L387.567567568,364.189189189 L391.891891892,363.918918919 L394.054054054,353.378378378 L398.648648649,352.027027027 L401.891891892,332.297297297 L403.243243243,330.405405405 L412.702702703,327.162162162 L413.513513514,325.0 L413.513513514,315.0 L423.243243243,315.27027027 L502.702702703,390.135135135 L507.297297297,393.918918919 L527.837837838,400.945945946 L554.054054054,427.162162162 L554.864864865,429.864864865 L544.054054054,445.27027027 L547.297297297,476.351351351 L609.459459459,472.027027027 Z" fill="#cee3f5" id="TM.MA" stroke="#6e6e6e" stroke-width="0.4"><desc><labelrank>6</labelrank><code_hasc>TM.MA</code_hasc><name>Mary</name><admin>Turkmenistan</admin><type_en>Province</type_en><region /><woe_id>2347350</woe_id><longitude>62</longitude><woe_name>Mary</woe_name><fips>TX05</fips><woe_label>Mary, TM, Turkmenistan</woe_label><latitude>36</latitude><iso_a2>TM</iso_a2><postal>MA</postal><type>Welayat|Velayat</type><id>TM.MA</id></desc></path></svg>