<?xml version='1.0' encoding='utf-8'?>
<svg height="700" width="700" xmlns="http://www.w3.org/2000/svg"><path d="M73.2425985118,426.697523086 L73.8613779576,429.166434549 L70.0007389317,433.661499021 L68.0366438908,428.992596701 L70.5787678057,422.163427676 L73.2425985118,426.697523086 Z" fill="#cee3f5" id="EE.6019" stroke="#6e6e6e" stroke-width="0.4"><desc><labelrank>20</labelrank><code_hasc>-99</code_hasc><name /><admin>Estonia</admin><type_en /><region /><woe_id>-99</woe_id><longitude>22</longitude><woe_name /><fips /><woe_label /><latitude>58</latitude><iso_a2>EE</iso_a2><postal /><type /><id>EE.6019</id></desc></path><path d="M309.107168303,144.686373007 L306.238816283,145.327265019 L303.451015941,141.974308225 L304.961093251,134.297540122 L308.11868229,137.010751717 L309.107168303,144.686373007 M257.020894105,261.526496422 L255.95605778,256.087854611 L262.394933764,246.252285497 L259.281790337,235.80869119 L249.455649154,229.018096238 L237.088883651,229.64525641 L232.197861787,223.395343734 L225.384656397,219.664491849 L217.574126995,207.565625801 L220.217145556,206.010471084 L218.47939239,200.499642448 L222.253412577,196.763572696 L236.444237255,198.472478303 L252.736466426,196.146489155 L257.0623221,200.97922173 L259.383164986,196.181184099 L251.363601664,180.457566351 L253.228741638,176.019352887 L258.210506739,174.804211421 L266.904653142,183.921751802 L273.056401959,183.949152019 L267.145437934,173.746827712 L282.67073337,170.842800143 L286.079813345,160.100141937 L295.654074853,159.034055136 L303.515883146,166.432293803 L309.022122437,162.598843188 L318.956508883,168.560239607 L320.560251423,165.773011381 L316.985088889,161.272753428 L320.934681333,161.103641573 L322.875535771,156.111180241 L329.970220633,166.665460977 L333.023296794,166.158394911 L337.926766965,158.039304 L333.799833878,142.988109979 L337.174669515,140.875376091 L350.776517762,154.498409587 L359.182394175,152.572853904 L368.234251963,157.166938176 L370.264226523,156.116708536 L369.503372279,150.632231843 L373.591436482,148.608726338 L401.618743029,159.486816732 L402.480916971,151.898406715 L416.227250651,150.512467277 L411.401840045,142.865051097 L410.57174371,121.960500448 L424.847982841,141.129917716 L430.612656893,144.286970951 L433.744443794,143.670280896 L435.16905469,139.833747421 L431.736467071,131.102284279 L432.448667824,126.745495754 L430.336992004,125.406858512 L432.963755588,122.213026139 L436.217198565,123.341063439 L441.989067275,129.812427843 L443.226955424,139.220408587 L447.789459885,142.411344259 L447.735853766,148.181367722 L447.187496218,149.142292658 L445.277611481,151.605725131 L445.072890356,152.834336279 L445.251858023,153.982551585 L446.212007781,156.39868545 L446.678510452,157.29021534 L447.958613431,159.220994704 L448.838247377,168.96331172 L452.839231232,173.082342763 L453.152126979,174.30886803 L453.393307403,175.844962428 L453.978272688,183.836708326 L456.358698872,190.429091691 L458.384477099,201.04947142 L458.466029872,202.239310483 L458.285581187,204.122861673 L456.293179522,205.890199485 L442.617135308,202.330863107 L428.22044323,206.146321576 L428.016281176,208.813999283 L427.340118798,209.116670347 L424.563702504,208.624037345 L420.390028921,206.094368948 L409.112568123,207.625186895 L409.047150193,209.772183442 L411.239393292,214.396546354 L411.831311286,218.690269608 L411.335050549,221.38384843 L410.329059249,224.33317585 L408.259138908,227.994452487 L405.13275496,235.344321902 L406.602018531,240.950992248 L407.055579508,241.724756555 L408.327123407,243.051423376 L408.295990599,245.171878113 L407.666360841,246.20455745 L406.809236234,247.357416325 L405.561122261,248.163126172 L399.698168243,247.240763828 L398.627926552,248.32218886 L398.31410414,250.168711392 L398.595356091,254.614225887 L397.917657229,259.669312324 L389.421978107,264.466631084 L385.004003148,262.042042106 L378.259323725,256.482592456 L376.83795965,254.764788796 L373.348401163,243.440839564 L372.180204624,242.448814456 L371.154833581,242.387703247 L368.028168926,242.605660081 L360.383974687,235.492121835 L353.305158574,232.77236669 L350.80864424,230.820017493 L350.295043756,230.024275258 L347.436162932,224.650419036 L345.50780077,222.751899293 L344.909207869,220.960292746 L345.600298519,213.934554157 L341.550311555,213.631484969 L334.114567616,215.446166303 L332.562918274,216.185737125 L331.645687031,217.017102225 L319.621127832,214.94733945 L309.466108109,225.2779135 L308.758216131,229.480466609 L307.207309506,231.873492428 L307.38382565,233.025710222 L308.807870366,235.969339208 L308.953546007,237.054903557 L308.091802143,239.909673255 L299.108346023,239.025341429 L287.232908289,241.328715622 L277.495958711,255.924102786 L270.184516378,254.963413143 L266.733910111,253.765793532 L264.301457425,253.794024144 L262.787688456,254.45007632 L261.967663596,255.462958183 L260.175767029,259.304838896 L257.020894105,261.526496422 Z" fill="#cee3f5" id="EE.HA" stroke="#6e6e6e" stroke-width="0.4"><desc><labelrank>8</labelrank><code_hasc>EE.HA</code_hasc><name>Harju</name><admin>Estonia</admin><type_en>County</type_en><region /><woe_id>2345276</woe_id><longitude>25</longitude><woe_name>Harju</woe_name><fips>EN01</fips><woe_label>Harju County, EE, Estonia</woe_label><latitude>59</latitude><iso_a2>EE</iso_a2><postal>HA</postal><type>Maakond</type><id>EE.HA</id></desc></path><path d="M621.096053171,303.170165633 L564.06010457,293.141194272 L555.529279222,287.741261239 L545.150014133,290.043070637 L542.610858321,277.365399812 L539.897153348,274.355859506 L547.951377961,269.197929332 L551.655805999,260.847663241 L550.7351775,241.483158761 L565.908046776,233.499408723 L565.636704185,224.047083152 L557.196621793,218.74686208 L555.35302829,211.274767671 L547.91902575,213.733739756 L544.35899694,209.997698124 L550.594648042,193.262278442 L540.878281582,188.974396822 L544.80604156,185.092869425 L545.39601925,179.082362837 L550.151934348,179.72007651 L547.117217679,163.830430434 L548.761996385,159.060539708 L553.687390592,164.473848243 L565.570720657,170.160772678 L584.753993081,171.852763887 L616.202832128,169.651120736 L666.195245358,178.510049245 L674.75443554,174.056790177 L681.631490213,162.647149648 L690.985245497,171.474634448 L700.0,184.884804044 L699.569956995,188.872669719 L696.924695862,187.239824635 L692.254639869,191.24508453 L680.12565704,193.901947986 L690.546504603,196.758316739 L688.410477389,199.780925615 L675.797192768,199.722895082 L667.532696959,206.335705437 L663.530335508,230.53841025 L649.927225657,266.414714286 L624.459280168,291.215089154 L621.096053171,303.170165633 Z" fill="#cee3f5" id="EE.IV" stroke="#6e6e6e" stroke-width="0.4"><desc><labelrank>8</labelrank><code_hasc>EE.IV</code_hasc><name>Ida-Viru</name><admin>Estonia</admin><type_en>County</type_en><region /><woe_id>2345278</woe_id><longitude>27</longitude><woe_name>Ida-Viru</woe_name><fips>EN03</fips><woe_label>Ida-Viru County, EE, Estonia</woe_label><latitude>59</latitude><iso_a2>EE</iso_a2><postal>IV</postal><type>Maakond</type><id>EE.IV</id></desc></path><path d="M456.293179522,205.890199485 L455.318895605,211.244724934 L459.776838867,219.0411744 L459.363659533,222.938320401 L466.010531342,226.637432149 L457.137882795,242.606485268 L456.093350663,251.79261589 L468.010890594,254.90659571 L478.071756268,268.465685121 L481.134601217,277.84841043 L479.846517479,288.342500769 L475.730487886,292.312436035 L475.351051406,299.219800004 L466.275560085,299.835462941 L460.303346725,302.957582613 L457.837577558,312.018232041 L454.700349235,314.4982122 L450.337823811,313.173180398 L444.61871901,317.32837279 L437.967201041,329.340242911 L400.328314427,344.615501783 L390.56578493,344.08729799 L380.71436654,339.993892873 L383.257074674,329.333323087 L384.413730378,326.734550629 L384.834876747,325.578335376 L384.847705665,324.406256503 L383.875986706,323.127230085 L382.047869995,322.071351077 L378.564212706,321.647771578 L374.781776712,320.320163086 L377.51539538,313.063874783 L375.216959578,305.389627625 L380.479988673,301.766442724 L383.111466578,296.048991844 L383.973823417,293.513671643 L379.823389994,288.023209299 L386.947027838,278.576998236 L385.482387748,269.056398489 L389.421978107,264.466631084 L397.917657229,259.669312324 L398.595356091,254.614225887 L398.31410414,250.168711392 L398.627926552,248.32218886 L399.698168243,247.240763828 L405.561122261,248.163126172 L406.809236234,247.357416325 L407.666360841,246.20455745 L408.295990599,245.171878113 L408.327123407,243.051423376 L407.055579508,241.724756555 L406.602018531,240.950992248 L405.13275496,235.344321902 L408.259138908,227.994452487 L410.329059249,224.33317585 L411.335050549,221.38384843 L411.831311286,218.690269608 L411.239393292,214.396546354 L409.047150193,209.772183442 L408.875123352,208.492280938 L409.112568123,207.625186895 L420.390028921,206.094368948 L424.563702504,208.624037345 L427.340118798,209.116670347 L428.016281176,208.813999283 L428.22044323,206.146321576 L442.617135308,202.330863107 L456.293179522,205.890199485 Z" fill="#cee3f5" id="EE.JR" stroke="#6e6e6e" stroke-width="0.4"><desc><labelrank>8</labelrank><code_hasc>EE.JR</code_hasc><name>Järva</name><admin>Estonia</admin><type_en>County</type_en><region /><woe_id>2345279</woe_id><longitude>25</longitude><woe_name>Järva</woe_name><fips>EN04</fips><woe_label>Jarva County, EE, Estonia</woe_label><latitude>58</latitude><iso_a2>EE</iso_a2><postal>JR</postal><type>Maakond</type><id>EE.JR</id></desc></path><path d="M539.897153348,274.355859506 L542.610858321,277.365399812 L545.150014133,290.043070637 L555.529279222,287.741261239 L564.06010457,293.141194272 L621.096053171,303.170165633 L617.276600102,316.696559464 L619.337762063,326.274216255 L582.257016772,333.430487225 L573.770286461,339.59082403 L573.755136603,349.003943905 L557.092349227,342.496888385 L551.518859644,357.608646927 L541.489148303,360.004692566 L535.274443642,357.321817343 L530.042465291,365.829477745 L518.0334956,361.777808124 L512.740359317,364.369866903 L507.408781248,363.104157301 L503.786204428,366.45650785 L499.727083866,362.77129822 L485.880702194,371.480634688 L476.326160779,373.211181579 L452.965950504,349.273162348 L434.74250092,346.732191357 L439.36110783,340.82523061 L437.967201041,329.340242911 L444.61871901,317.32837279 L450.337823811,313.173180398 L454.700349235,314.4982122 L457.837577558,312.018232041 L460.303346725,302.957582613 L466.275560085,299.835462941 L475.351051406,299.219800004 L475.730487886,292.312436035 L479.846517479,288.342500769 L497.486597155,281.93201499 L507.872486237,288.986618079 L512.414959375,287.013797885 L513.01650684,281.720285456 L518.294264335,277.841937563 L524.104783062,279.42525199 L539.897153348,274.355859506 Z" fill="#cee3f5" id="EE.JN" stroke="#6e6e6e" stroke-width="0.4"><desc><labelrank>8</labelrank><code_hasc>EE.JN</code_hasc><name>Jõgeva</name><admin>Estonia</admin><type_en>County</type_en><region /><woe_id>2345280</woe_id><longitude>26</longitude><woe_name>Jõgeva</woe_name><fips>EN05</fips><woe_label>Jogeva County, EE, Estonia</woe_label><latitude>58</latitude><iso_a2>EE</iso_a2><postal>JN</postal><type>Maakond</type><id>EE.JN</id></desc></path><path d="M548.761996385,159.060539708 L547.117217679,163.830430434 L550.151934348,179.72007651 L545.39601925,179.082362837 L544.80604156,185.092869425 L540.878281582,188.974396822 L550.594648042,193.262278442 L544.35899694,209.997698124 L547.91902575,213.733739756 L555.35302829,211.274767671 L557.196621793,218.74686208 L565.636704185,224.047083152 L565.908046776,233.499408723 L550.7351775,241.483158761 L551.655805999,260.847663241 L547.951377961,269.197929332 L539.897153348,274.355859506 L524.104783062,279.42525199 L518.294264335,277.841937563 L513.01650684,281.720285456 L512.414959375,287.013797885 L507.872486237,288.986618079 L497.486597155,281.93201499 L479.846517479,288.342500769 L481.134601217,277.84841043 L478.071756268,268.465685121 L468.010890594,254.90659571 L456.093350663,251.79261589 L457.137882795,242.606485268 L466.010531342,226.637432149 L459.363659533,222.938320401 L459.776838867,219.0411744 L455.318895605,211.244724934 L456.293179522,205.890199485 L458.285581187,204.122861673 L458.466029872,202.239310483 L458.384477099,201.04947142 L453.978272688,183.836708326 L453.152126979,174.30886803 L452.839231232,173.082342763 L448.838247377,168.96331172 L447.958613431,159.220994704 L446.678510452,157.29021534 L446.212007781,156.39868545 L445.251858023,153.982551585 L445.072890356,152.834336279 L445.277611481,151.605725131 L447.187496218,149.142292658 L447.735853766,148.181367722 L452.927225719,130.923651824 L459.368717071,138.76536904 L461.570849521,138.241912975 L461.580464715,133.158989599 L464.205125505,130.469014526 L473.297660161,136.938165998 L474.022514531,140.537159064 L495.239755525,140.798768966 L518.462863958,150.997017914 L527.800902063,146.846203617 L532.251331626,147.276116636 L540.374684389,150.828384838 L548.761996385,159.060539708 Z" fill="#cee3f5" id="EE.LV" stroke="#6e6e6e" stroke-width="0.4"><desc><labelrank>8</labelrank><code_hasc>EE.LV</code_hasc><name>Lääne-Viru</name><admin>Estonia</admin><type_en>County</type_en><region /><woe_id>2345282</woe_id><longitude>26</longitude><woe_name>Lääne-Viru</woe_name><fips>EN08</fips><woe_label>Laane-Viru County, EE, Estonia</woe_label><latitude>59</latitude><iso_a2>EE</iso_a2><postal>LV</postal><type>Maakond</type><id>EE.LV</id></desc></path><path d="M630.1365091,434.815200581 L604.050623978,430.354474761 L599.375839383,422.884145746 L589.538289147,423.011387737 L586.551059245,420.488758712 L582.585505421,423.329403833 L576.04440785,420.62678552 L571.925232722,426.966356152 L566.764222376,424.21742854 L558.475220001,424.915291169 L551.35076277,436.224391998 L541.077293334,438.477860289 L538.664551508,435.894936467 L535.002196464,439.627445431 L531.716220924,439.141709771 L531.957659614,445.672431122 L527.067395661,449.906757548 L518.702394791,440.520915538 L507.460428976,444.285860347 L503.015998396,438.757619004 L487.337447933,450.157562968 L468.654756783,448.413786276 L465.517506074,412.011971132 L479.876987334,388.415420646 L476.326160779,373.211181579 L485.880702194,371.480634688 L499.727083866,362.77129822 L503.786204428,366.45650785 L507.408781248,363.104157301 L512.740359317,364.369866903 L518.0334956,361.777808124 L530.042465291,365.829477745 L535.274443642,357.321817343 L541.489148303,360.004692566 L551.518859644,357.608646927 L557.092349227,342.496888385 L573.755136603,349.003943905 L573.770286461,339.59082403 L582.257016772,333.430487225 L619.337762063,326.274216255 L633.719343733,392.441304046 L627.106268888,408.46298181 L625.932945647,419.208927816 L630.1365091,434.815200581 Z" fill="#cee3f5" id="EE.TA" stroke="#6e6e6e" stroke-width="0.4"><desc><labelrank>8</labelrank><code_hasc>EE.TA</code_hasc><name>Tartu</name><admin>Estonia</admin><type_en>County</type_en><region /><woe_id>2345287</woe_id><longitude>26</longitude><woe_name>Tartu</woe_name><fips>EN18</fips><woe_label>Tartu County, EE, Estonia</woe_label><latitude>58</latitude><iso_a2>EE</iso_a2><postal>TA</postal><type>Maakond</type><id>EE.TA</id></desc></path><path d="M58.4987677028,269.138005023 L47.8424099147,269.903410926 L33.988685713,260.88034475 L32.2096366113,258.559979771 L33.6457104512,255.168376825 L45.8745710832,256.555451517 L78.2567451945,254.488088261 L76.1713294881,251.426767957 L81.1647943643,252.515338837 L81.5701659809,245.077231381 L89.6674017725,240.971176429 L93.3755408386,230.937254491 L99.1560207273,231.300434753 L106.904544454,235.504618618 L104.072431355,241.330727262 L108.48144515,249.249475239 L119.452149155,249.19341395 L129.67113064,255.021651331 L130.741199653,265.20687861 L137.327692088,274.99122332 L139.459929373,285.908077536 L136.966702767,288.229501263 L130.39787721,283.963026664 L128.638492949,286.644548449 L121.773602864,286.543025627 L120.257445468,289.12594641 L122.00846047,295.490541811 L117.304050863,298.151670237 L111.308440837,296.83000327 L110.175236565,294.391617288 L115.843463262,289.041087657 L115.154703217,286.777523902 L110.523410429,287.605330184 L105.810290312,291.093460477 L95.4597927842,312.360672373 L84.353915527,314.971699375 L78.5461754122,312.93919751 L74.6172784546,308.084574957 L78.6616594105,303.897600451 L74.1363777246,293.163821433 L72.9459079877,279.192890938 L65.3190979455,270.278896707 L58.4987677028,269.138005023 Z" fill="#cee3f5" id="EE.HI" stroke="#6e6e6e" stroke-width="0.4"><desc><labelrank>8</labelrank><code_hasc>EE.HI</code_hasc><name>Hiiu</name><admin>Estonia</admin><type_en>County</type_en><region /><woe_id>2345277</woe_id><longitude>22</longitude><woe_name>Hiiu</woe_name><fips>EN02</fips><woe_label>Hiiu County, EE, Estonia</woe_label><latitude>58</latitude><iso_a2>EE</iso_a2><postal>HI</postal><type>Maakond</type><id>EE.HI</id></desc></path><path d="M160.187350401,244.118490696 L167.650045651,247.016261446 L174.926566052,245.956208838 L179.496708904,252.922681591 L178.657925477,258.579854392 L166.987107866,260.020252492 L161.140424228,256.887541927 L159.636781221,259.125092228 L152.84843536,258.51294925 L150.380732922,245.79144008 L160.187350401,244.118490696 M257.020894105,261.526496422 L254.679424007,265.599936763 L255.001121749,268.697676529 L258.903923678,275.917996981 L264.744065994,291.414517366 L264.574134791,293.033653811 L260.488636738,295.294712206 L259.657283769,296.470817479 L259.536364928,298.506762975 L259.880618379,299.994978576 L261.430078009,301.921871792 L256.664323051,305.500273237 L255.805906634,306.871342425 L251.748143629,308.518038565 L251.129247187,310.608604981 L251.692688631,311.735707442 L253.669438788,312.596753497 L258.770423237,312.859981725 L259.895448648,313.622849785 L257.589295815,321.366791367 L245.113462979,327.251874972 L238.804294379,326.564901596 L233.013394637,336.376694072 L227.094465399,334.240605738 L227.048647774,344.353487919 L230.880880724,350.989009997 L203.161984429,349.53174403 L195.840597891,351.709622365 L193.551589962,343.353098576 L188.303783755,349.110290524 L186.480206451,345.300357783 L189.047434657,338.769452784 L187.814454755,319.080984879 L193.321859318,316.615145374 L192.244401727,308.562036782 L197.776530947,310.858633693 L210.247893658,308.689910238 L221.596002215,313.565363932 L220.21016503,303.509057597 L223.635206657,302.27143688 L229.876363012,305.299386871 L223.735639577,299.035123127 L220.300511772,298.655913158 L217.238689466,301.809584463 L215.382521041,299.04553407 L200.4540064,298.973566975 L193.609233195,302.733417438 L181.090912329,304.303484326 L185.553523364,296.954921594 L192.277821665,293.282371131 L185.940094064,283.567631314 L182.128118959,269.724337843 L184.659215459,266.617052039 L200.097810131,265.410368551 L204.696537429,261.619761955 L205.250939225,257.675056746 L203.232045501,248.85328242 L198.490410101,244.353758853 L203.976314838,253.405632958 L200.201865591,254.528936989 L196.856583859,261.580494309 L187.11384191,256.530046375 L181.736630052,249.224654954 L184.769899823,249.387260777 L184.963216308,242.947016222 L191.381375236,236.484305378 L194.20035539,239.796895177 L194.892469479,228.910933686 L190.609758331,210.263683929 L196.730115477,206.723867625 L202.391098639,207.885521339 L209.570894797,201.681011203 L217.574126995,207.565625801 L225.384656397,219.664491849 L232.197861787,223.395343734 L237.088883651,229.64525641 L249.455649154,229.018096238 L259.281790337,235.80869119 L262.394933764,246.252285497 L255.95605778,256.087854611 L257.020894105,261.526496422 Z" fill="#cee3f5" id="EE.LN" stroke="#6e6e6e" stroke-width="0.4"><desc><labelrank>8</labelrank><code_hasc>EE.LN</code_hasc><name>Lääne</name><admin>Estonia</admin><type_en>County</type_en><region /><woe_id>2345281</woe_id><longitude>23</longitude><woe_name>Lääne</woe_name><fips>EN07</fips><woe_label>Laane County, EE, Estonia</woe_label><latitude>59</latitude><iso_a2>EE</iso_a2><postal>LN</postal><type>Maakond</type><id>EE.LN</id></desc></path><path d="M237.664226028,445.736483083 L234.038100686,447.465260749 L231.116257089,444.462661007 L232.818582752,436.382979129 L239.30098509,436.312089899 L240.060241713,441.339121211 L237.664226028,445.736483083 M195.840597891,351.709622365 L203.161984429,349.53174403 L230.880880724,350.989009997 L227.048647774,344.353487919 L227.094465399,334.240605738 L233.013394637,336.376694072 L238.804294379,326.564901596 L245.113462979,327.251874972 L257.589295815,321.366791367 L260.587791692,324.201312058 L274.019206512,327.448142272 L282.598364495,328.974709054 L288.272066201,327.777087247 L289.949691712,326.859507941 L293.716317608,320.128469903 L297.237896347,317.194850282 L300.850814798,315.703376131 L303.75909992,316.377638958 L304.138410601,317.17710091 L303.970885639,318.502157289 L303.895707684,319.628725099 L305.015589378,321.142525436 L306.514110567,321.147734811 L314.950860211,318.840201616 L319.110520856,313.234984695 L329.553257252,315.660396708 L332.360182694,315.321688332 L335.152134026,314.206890729 L337.196357621,314.108975863 L339.847932235,314.880629313 L341.695982801,317.240606733 L343.319710648,330.68699872 L353.692436359,321.577719906 L359.098242054,321.441905496 L359.770376336,319.388930098 L367.074520727,321.27614505 L370.502364545,321.234664797 L374.781776712,320.320163086 L378.564212706,321.647771578 L382.047869995,322.071351077 L383.875986706,323.127230085 L384.847705665,324.406256503 L384.834876747,325.578335376 L384.413730378,326.734550629 L383.748991301,328.086275183 L383.257074674,329.333323087 L380.71436654,339.993892873 L377.787459868,341.427854481 L376.949328997,342.790829121 L376.721590033,344.300783141 L377.057163516,345.814733328 L377.529142556,347.343164211 L377.541421065,349.470208789 L376.354821642,350.409515608 L371.968024192,351.927945313 L355.083242422,364.114852357 L350.825608519,368.51552754 L349.986010907,370.235636181 L350.17319453,370.852066542 L351.392773089,373.637155962 L351.854228721,375.995971338 L351.772630891,381.060047587 L348.486779829,383.421540046 L347.89486901,385.972448424 L345.425062182,401.686407259 L346.668939062,404.374626779 L349.238762518,405.558911604 L352.79699309,402.239478548 L363.707213829,405.109845828 L365.285437719,405.928104541 L375.96972097,414.472174527 L377.261446866,415.825538169 L377.689924333,417.908756211 L375.664789151,420.178756658 L375.601705493,421.26766807 L375.713388852,422.928259162 L375.640982295,430.298556947 L375.150674587,431.212668427 L374.474356803,431.314835433 L372.590032901,429.427317522 L366.522830711,430.686617987 L365.542042258,431.804804084 L364.786678491,433.299915019 L364.927253464,435.092402782 L365.300942758,436.79315369 L365.125603905,438.555105605 L364.62361528,439.201070255 L362.848914165,438.350223335 L361.556488347,438.194125077 L359.327529351,440.988763438 L361.864727913,445.100946693 L361.634245852,446.534115102 L355.813134283,446.505271837 L354.203602772,450.079795515 L351.031878881,452.321330037 L350.163117688,453.582768814 L349.988302406,454.810080219 L351.355051591,460.216341804 L352.513075688,462.622731103 L345.595461135,469.32713504 L342.678470417,471.22416788 L334.04309966,472.22227185 L327.644612855,477.035642498 L318.422739887,473.453933468 L312.649552402,482.677818669 L295.702156132,482.607248172 L285.07139441,490.018409401 L280.233766458,498.622624066 L274.339886683,500.046918945 L269.532147262,497.841195564 L281.141339298,465.551839891 L288.893641785,455.520061628 L291.07149898,417.860186149 L299.986803477,410.088468754 L300.60788485,400.729716732 L289.178391684,389.238742499 L280.151483648,386.535818315 L274.925081641,389.989354458 L271.18548054,402.805724136 L266.024545015,410.690494843 L262.332415598,412.403100584 L256.297358361,410.999025934 L252.107481212,417.5068818 L249.126909898,417.481953992 L237.169242643,401.382098172 L223.450600257,396.266430482 L221.246945501,393.145726492 L210.88358498,394.945855833 L209.020387315,382.922268961 L204.799831247,375.174783489 L205.897768365,356.442878341 L204.355003768,353.821356703 L199.714224081,355.085265182 L195.840597891,351.709622365 Z" fill="#cee3f5" id="EE.PR" stroke="#6e6e6e" stroke-width="0.4"><desc><labelrank>8</labelrank><code_hasc>EE.PR</code_hasc><name>Pärnu</name><admin>Estonia</admin><type_en>County</type_en><region /><woe_id>2345283</woe_id><longitude>23</longitude><woe_name>Pärnu</woe_name><fips>EN11</fips><woe_label>Parnu County, EE, Estonia</woe_label><latitude>58</latitude><iso_a2>EE</iso_a2><postal>PR</postal><type>Maakond</type><id>EE.PR</id></desc></path><path d="M630.1365091,434.815200581 L642.692199118,457.114596055 L642.985169028,474.858341677 L647.21145612,477.390235797 L647.945378261,482.479042058 L646.901039996,492.910458086 L659.252412435,498.621815988 L662.124019348,504.840059124 L658.14571399,509.611494846 L651.119066964,512.603420654 L634.893075233,515.233972524 L616.599456712,508.76251008 L605.841524131,511.520745395 L600.289711016,507.008849537 L605.85481394,498.740487431 L603.795252364,493.402856673 L598.242166865,494.492091334 L582.913807032,485.111508298 L576.999667294,487.570002176 L576.655281354,493.390772912 L564.18967294,488.61357419 L546.113993886,490.74188654 L536.659620719,487.667724605 L527.902329663,488.542610007 L520.713395979,485.248854838 L522.451572714,459.808036266 L527.067395661,449.906757548 L531.957659614,445.672431122 L531.716220924,439.141709771 L535.002196464,439.627445431 L538.664551508,435.894936467 L541.077293334,438.477860289 L551.35076277,436.224391998 L558.475220001,424.915291169 L566.764222376,424.21742854 L571.925232722,426.966356152 L576.04440785,420.62678552 L582.585505421,423.329403833 L586.551059245,420.488758712 L589.538289147,423.011387737 L599.375839383,422.884145746 L604.050623978,430.354474761 L630.1365091,434.815200581 Z" fill="#cee3f5" id="EE.PL" stroke="#6e6e6e" stroke-width="0.4"><desc><labelrank>8</labelrank><code_hasc>EE.PL</code_hasc><name>Põlva</name><admin>Estonia</admin><type_en>County</type_en><region /><woe_id>2345284</woe_id><longitude>27</longitude><woe_name>Põlva</woe_name><fips>EN12</fips><woe_label>Polva County, EE, Estonia</woe_label><latitude>58</latitude><iso_a2>EE</iso_a2><postal>PL</postal><type>Maakond</type><id>EE.PL</id></desc></path><path d="M389.421978107,264.466631084 L385.482387748,269.056398489 L386.947027838,278.576998236 L379.823389994,288.023209299 L383.973823417,293.513671643 L383.111466578,296.048991844 L380.479988673,301.766442724 L375.216959578,305.389627625 L377.51539538,313.063874783 L374.781776712,320.320163086 L370.502364545,321.234664797 L367.074520727,321.27614505 L359.770376336,319.388930098 L359.098242054,321.441905496 L353.692436359,321.577719906 L343.319710648,330.68699872 L341.695982801,317.240606733 L339.847932235,314.880629313 L337.196357621,314.108975863 L335.152134026,314.206890729 L329.553257252,315.660396708 L319.110520856,313.234984695 L314.950860211,318.840201616 L306.514110567,321.147734811 L305.015589378,321.142525436 L303.895707684,319.628725099 L303.75909992,316.377638958 L300.850814798,315.703376131 L293.716317608,320.128469903 L289.949691712,326.859507941 L288.272066201,327.777087247 L282.598364495,328.974709054 L274.019206512,327.448142272 L260.587791692,324.201312058 L257.589295815,321.366791367 L259.867512946,315.881024334 L260.224849913,314.684672132 L259.895448648,313.622849785 L258.770423237,312.859981725 L253.669438788,312.596753497 L251.692688631,311.735707442 L251.129247187,310.608604981 L251.748143629,308.518038565 L255.805906634,306.871342425 L256.664323051,305.500273237 L261.430078009,301.921871792 L259.880618379,299.994978576 L259.536364928,298.506762975 L259.657283769,296.470817479 L260.488636738,295.294712206 L264.574134791,293.033653811 L264.744065994,291.414517366 L263.734791492,289.592902756 L262.633379622,287.15598035 L258.903923678,275.917996981 L255.001121749,268.697676529 L254.679424007,265.599936763 L257.020894105,261.526496422 L260.175767029,259.304838896 L262.787688456,254.45007632 L264.301457425,253.794024144 L266.733910111,253.765793532 L270.184516378,254.963413143 L277.495958711,255.924102786 L287.232908289,241.328715622 L308.091802143,239.909673255 L308.953546007,237.054903557 L308.807870366,235.969339208 L307.38382565,233.025710222 L307.207309506,231.873492428 L309.466108109,225.2779135 L319.621127832,214.94733945 L331.645687031,217.017102225 L332.562918274,216.185737125 L334.114567616,215.446166303 L341.550311555,213.631484969 L345.600298519,213.934554157 L344.823861368,218.873901394 L344.909207869,220.960292746 L345.50780077,222.751899293 L347.436162932,224.650419036 L350.295043756,230.024275258 L350.80864424,230.820017493 L353.305158574,232.77236669 L360.383974687,235.492121835 L368.028168926,242.605660081 L370.518235514,242.675419698 L371.154833581,242.387703247 L372.180204624,242.448814456 L373.348401163,243.440839564 L376.83795965,254.764788796 L378.259323725,256.482592456 L385.004003148,262.042042106 L389.421978107,264.466631084 Z" fill="#cee3f5" id="EE.RA" stroke="#6e6e6e" stroke-width="0.4"><desc><labelrank>8</labelrank><code_hasc>EE.RA</code_hasc><name>Rapla</name><admin>Estonia</admin><type_en>County</type_en><region /><woe_id>2345285</woe_id><longitude>24</longitude><woe_name>Rapla</woe_name><fips>EN13</fips><woe_label>Rapla County, EE, Estonia</woe_label><latitude>58</latitude><iso_a2>EE</iso_a2><postal>RA</postal><type>Maakond</type><id>EE.RA</id></desc></path><path d="M527.067395661,449.906757548 L522.451572714,459.808036266 L520.713395979,485.248854838 L504.107265602,488.360622921 L500.919128159,499.444428093 L505.131030412,504.377099022 L503.928569213,516.029794253 L510.99562456,521.343771148 L507.802264809,528.576981983 L512.272099467,538.979331698 L507.338492834,546.165802268 L511.367396914,551.496241152 L507.207211919,557.522460417 L507.733008673,568.229278083 L492.683366349,560.203217874 L478.384700934,537.913619256 L462.366757388,522.869297001 L461.424014882,508.411404719 L436.516998171,505.233313104 L429.77638158,490.942199765 L415.278124245,492.962073834 L409.869542659,484.902913329 L416.549952713,472.337809682 L416.90710364,466.789930682 L424.435976972,465.327381251 L439.924639536,454.090759135 L444.394857749,443.08015198 L452.798569595,452.147225452 L468.654756783,448.413786276 L487.337447933,450.157562968 L503.015998396,438.757619004 L507.460428976,444.285860347 L518.702394791,440.520915538 L527.067395661,449.906757548 Z" fill="#cee3f5" id="EE.VG" stroke="#6e6e6e" stroke-width="0.4"><desc><labelrank>8</labelrank><code_hasc>EE.VG</code_hasc><name>Valga</name><admin>Estonia</admin><type_en>County</type_en><region /><woe_id>2345288</woe_id><longitude>26</longitude><woe_name>Valga</woe_name><fips>EN19</fips><woe_label>Valga County, EE, Estonia</woe_label><latitude>57</latitude><iso_a2>EE</iso_a2><postal>VG</postal><type>Maakond</type><id>EE.VG</id></desc></path><path d="M476.326160779,373.211181579 L479.876987334,388.415420646 L465.517506074,412.011971132 L468.654756783,448.413786276 L452.798569595,452.147225452 L444.394857749,443.08015198 L439.924639536,454.090759135 L424.435976972,465.327381251 L416.90710364,466.789930682 L416.549952713,472.337809682 L409.869542659,484.902913329 L407.719146638,481.358719716 L399.423539187,477.455697677 L392.83503675,469.047795065 L384.835086441,466.410939007 L380.244898796,458.13866819 L376.75362512,459.084967159 L376.531899623,462.732473823 L380.195374375,471.910443944 L372.502403978,476.514898795 L367.342544819,460.89634741 L359.260673638,458.862102509 L352.513075688,462.622731103 L352.472156403,462.550252462 L351.658473133,461.108655848 L351.355051591,460.216341804 L349.988302406,454.810080219 L350.163117688,453.582768814 L351.031878881,452.321330037 L355.813134283,446.505271837 L361.634245852,446.534115102 L361.864727913,445.100946693 L359.357678009,441.960283574 L359.327529351,440.988763438 L361.556488347,438.194125077 L362.848914165,438.350223335 L364.62361528,439.201070255 L365.125603905,438.555105605 L365.300942758,436.79315369 L364.927253464,435.092402782 L364.786678491,433.299915019 L365.542042258,431.804804084 L366.522830711,430.686617987 L372.590032901,429.427317522 L374.474356803,431.314835433 L375.150674587,431.212668427 L375.640982295,430.298556947 L375.713388852,422.928259162 L375.601705493,421.26766807 L375.664789151,420.178756658 L377.689924333,417.908756211 L377.261446866,415.825538169 L375.96972097,414.472174527 L369.535982169,410.009051855 L365.285437719,405.928104541 L363.707213829,405.109845828 L352.79699309,402.239478548 L349.238762518,405.558911604 L346.668939062,404.374626779 L345.425062182,401.686407259 L347.237908417,395.218599268 L348.154190537,390.670505987 L347.89486901,385.972448424 L351.772630891,381.060047587 L351.854228721,375.995971338 L351.392773089,373.637155962 L350.17319453,370.852066542 L349.986010907,370.235636181 L350.825608519,368.51552754 L355.083242422,364.114852357 L362.635437958,360.814802295 L371.968024192,351.927945313 L376.354821642,350.409515608 L377.541421065,349.470208789 L377.529142556,347.343164211 L377.057163516,345.814733328 L376.721590033,344.300783141 L376.949328997,342.790829121 L377.787459868,341.427854481 L380.71436654,339.993892873 L390.56578493,344.08729799 L400.328314427,344.615501783 L437.967201041,329.340242911 L439.36110783,340.82523061 L434.74250092,346.732191357 L452.965950504,349.273162348 L476.326160779,373.211181579 Z" fill="#cee3f5" id="EE.VD" stroke="#6e6e6e" stroke-width="0.4"><desc><labelrank>7</labelrank><code_hasc>EE.VD</code_hasc><name>Viljandi</name><admin>Estonia</admin><type_en>County</type_en><region /><woe_id>2345289</woe_id><longitude>25</longitude><woe_name>Viljandi</woe_name><fips>EN20</fips><woe_label>Viljandi County, EE, Estonia</woe_label><latitude>58</latitude><iso_a2>EE</iso_a2><postal>VD</postal><type>Maakond</type><id>EE.VD</id></desc></path><path d="M634.893075233,515.233972524 L631.329666783,516.483187426 L634.644287931,519.100084594 L628.88811742,523.832034906 L629.579276258,536.013113255 L615.73353797,544.622483089 L615.83757267,558.840514111 L609.426531908,563.898883745 L612.309130119,575.601357447 L608.579904496,578.039499552 L591.051560987,571.655218003 L581.944364146,571.094389766 L570.123223569,558.538709484 L560.507724829,557.265679028 L557.857082174,554.688900376 L549.121151226,566.449806413 L534.521203548,567.75445783 L524.584838369,577.617884954 L520.330112685,575.410477855 L515.468152586,577.981184546 L507.733008673,568.229278083 L507.207211919,557.522460417 L511.367396914,551.496241152 L507.338492834,546.165802268 L512.272099467,538.979331698 L507.802264809,528.576981983 L510.99562456,521.343771148 L503.928569213,516.029794253 L505.131030412,504.377099022 L500.919128159,499.444428093 L504.107265602,488.360622921 L520.713395979,485.248854838 L527.902329663,488.542610007 L536.659620719,487.667724605 L546.113993886,490.74188654 L564.18967294,488.61357419 L576.655281354,493.390772912 L576.999667294,487.570002176 L582.913807032,485.111508298 L598.242166865,494.492091334 L603.795252364,493.402856673 L605.85481394,498.740487431 L600.289711016,507.008849537 L605.841524131,511.520745395 L616.599456712,508.76251008 L634.893075233,515.233972524 Z" fill="#cee3f5" id="EE.VR" stroke="#6e6e6e" stroke-width="0.4"><desc><labelrank>8</labelrank><code_hasc>EE.VR</code_hasc><name>Võru</name><admin>Estonia</admin><type_en>County</type_en><region /><woe_id>2345290</woe_id><longitude>26</longitude><woe_name>Võru</woe_name><fips>EN21</fips><woe_label>Voru County, EE, Estonia</woe_label><latitude>57</latitude><iso_a2>EE</iso_a2><postal>VR</postal><type>Maakond</type><id>EE.VR</id></desc></path><path d="M152.211891432,509.708524253 L146.493577231,506.156940771 L147.49418918,501.396219194 L152.524590269,505.038411018 L152.211891432,509.708524253 M92.3448176779,336.26180493 L97.0480428223,334.138839074 L102.843868661,337.100888266 L111.557330927,330.274348538 L115.278792409,332.519937038 L123.650210698,332.190830032 L141.660277477,343.090189177 L147.360308959,353.864268169 L162.43860914,361.7678272 L167.002692216,368.744787944 L165.923421736,371.661719194 L159.177370917,366.300479732 L156.440970879,368.160413719 L160.667326712,372.593588623 L155.940605599,371.616125969 L147.734970542,363.193971404 L144.389877015,371.036826538 L139.16980404,372.824748209 L139.022956373,380.146246154 L133.833680455,384.806480297 L131.460311301,386.412897968 L124.252292814,382.213791641 L125.609566854,386.709522711 L117.590054042,396.447088586 L106.943353352,403.91468271 L96.9115288505,403.937125904 L95.5139980112,406.507688289 L100.476925508,410.101771468 L96.5265089697,413.414809783 L90.4768500432,413.854070475 L89.2095072016,408.865946258 L85.5866892779,406.9265842 L79.0796793574,410.219060357 L76.0164861786,406.021774414 L72.1618873696,412.221986698 L69.4285984021,407.475565587 L62.9638796614,412.006173893 L59.2936676827,410.670448878 L51.8279372489,414.417493874 L45.6039853643,420.828941264 L44.0204675463,433.248476528 L35.382550968,451.481494764 L35.2474415985,458.258865978 L16.7369016106,473.614408136 L13.1979412551,473.483023266 L8.29994565784,458.395076382 L12.1228692006,458.679781268 L23.4948016697,438.651196506 L30.366480065,439.786964222 L37.5564019992,425.84035436 L31.0796926546,420.801895566 L23.4350005189,418.902021798 L15.7867649766,403.75984125 L8.5828226387,403.133595764 L2.11994309835,398.515284516 L0.0,390.398672173 L7.14370174467,391.667589138 L3.96300527739,382.342831693 L6.39289552264,381.493910001 L11.4936593151,387.756686858 L14.6555414054,380.411642909 L19.4290784187,380.897159213 L13.4471478748,363.863083942 L2.17834415541,346.337504186 L9.57433108312,349.653148965 L12.8863628614,345.58717844 L20.1908455164,347.377123499 L29.1284323275,367.164525525 L32.9709737488,351.395792979 L44.6446436247,341.996061382 L45.8639470564,349.662790049 L50.6253626985,351.808808074 L53.2906370859,337.751157576 L57.2163188636,334.753557446 L72.853771122,334.10682332 L86.6414004268,326.229138791 L92.3448176779,336.26180493 M170.584703733,333.254691683 L175.52041133,348.271883123 L171.063040362,352.882150684 L162.014181209,349.444155629 L155.851004691,351.404983401 L138.569268288,336.034849875 L139.215577143,331.607427763 L145.647780237,331.191071334 L147.557539528,324.220995215 L152.310974861,320.416056513 L168.938353912,327.272967758 L170.584703733,333.254691683 Z" fill="#cee3f5" id="EE.SA" stroke="#6e6e6e" stroke-width="0.4"><desc><labelrank>8</labelrank><code_hasc>EE.SA</code_hasc><name>Saare</name><admin>Estonia</admin><type_en>Municipality</type_en><region /><woe_id>2345286</woe_id><longitude>23</longitude><woe_name>Saare</woe_name><fips>EN14</fips><woe_label>Saare County, EE, Estonia</woe_label><latitude>57</latitude><iso_a2>EE</iso_a2><postal>SA</postal><type>Novads</type><id>EE.SA</id></desc></path></svg>