<?xml version='1.0' encoding='utf-8'?>
<svg height="700" width="700" xmlns="http://www.w3.org/2000/svg"><path d="M99.8415213946,249.603803487 L106.497622821,255.150554675 L117.591125198,255.150554675 L126.4659271,269.572107765 L150.87163233,254.041204437 L160.855784469,257.369255151 L174.167987322,268.462757528 L188.589540412,279.556259905 L188.589540412,287.321711569 L211.885895404,288.431061807 L235.182250396,292.868462758 L236.291600634,296.196513471 L271.790808241,303.961965135 L289.540412044,302.852614897 L345.00792393,302.852614897 L345.00792393,299.524564184 L351.664025357,300.633914422 L353.882725832,302.852614897 L353.882725832,337.242472266 L354.99207607,371.632329635 L350.554675119,371.632329635 L352.773375594,406.022187005 L352.773375594,423.771790808 L280.665610143,423.771790808 L200.792393027,423.771790808 L198.573692552,406.022187005 L197.464342314,380.507131537 L184.152139461,373.851030111 L168.621236133,354.99207607 L149.762282092,348.335974643 L136.450079239,323.930269414 L135.340729002,312.836767036 L129.793977813,303.961965135 L99.8415213946,303.961965135 L99.8415213946,249.603803487 Z" fill="#cee3f5" id="US.WY.013" stroke="#6e6e6e" stroke-width="0.4"><desc><name>Fremont County</name><stateAbbrev>WY</stateAbbrev><state>Wyoming</state><fips>013</fips><incits>56013</incits><id>US.WY.013</id><population>40998</population></desc></path><path d="M351.664025357,300.633914422 L393.81933439,299.524564184 L445.958795563,300.633914422 L498.098256735,300.633914422 L496.988906498,371.632329635 L496.988906498,407.131537242 L461.489698891,407.131537242 L352.773375594,406.022187005 L350.554675119,371.632329635 L354.99207607,371.632329635 L353.882725832,337.242472266 L353.882725832,302.852614897 L351.664025357,300.633914422 Z" fill="#cee3f5" id="US.WY.025" stroke="#6e6e6e" stroke-width="0.4"><desc><name>Natrona County</name><stateAbbrev>WY</stateAbbrev><state>Wyoming</state><fips>025</fips><incits>56025</incits><id>US.WY.025</id><population>80973</population></desc></path><path d="M250.713153724,232.963549921 L390.491283677,232.963549921 L393.81933439,299.524564184 L351.664025357,300.633914422 L345.00792393,299.524564184 L345.00792393,285.103011094 L333.914421553,285.103011094 L333.914421553,277.337559429 L309.508716323,277.337559429 L309.508716323,268.462757528 L287.321711569,268.462757528 L261.806656101,259.587955626 L250.713153724,241.838351823 L250.713153724,232.963549921 Z" fill="#cee3f5" id="US.WY.043" stroke="#6e6e6e" stroke-width="0.4"><desc><name>Washakie County</name><stateAbbrev>WY</stateAbbrev><state>Wyoming</state><fips>043</fips><incits>56043</incits><id>US.WY.043</id><population>8463</population></desc></path><path d="M174.167987322,268.462757528 L196.354992076,268.462757528 L196.354992076,259.587955626 L214.10459588,259.587955626 L214.10459588,250.713153724 L226.307448494,250.713153724 L226.307448494,241.838351823 L250.713153724,241.838351823 L261.806656101,259.587955626 L287.321711569,268.462757528 L309.508716323,268.462757528 L309.508716323,277.337559429 L333.914421553,277.337559429 L333.914421553,285.103011094 L345.00792393,285.103011094 L345.00792393,299.524564184 L345.00792393,302.852614897 L289.540412044,302.852614897 L271.790808241,303.961965135 L236.291600634,296.196513471 L235.182250396,292.868462758 L211.885895404,288.431061807 L188.589540412,287.321711569 L188.589540412,279.556259905 L174.167987322,268.462757528 Z" fill="#cee3f5" id="US.WY.017" stroke="#6e6e6e" stroke-width="0.4"><desc><name>Hot Springs County</name><stateAbbrev>WY</stateAbbrev><state>Wyoming</state><fips>017</fips><incits>56017</incits><id>US.WY.017</id><population>4847</population></desc></path><path d="M0.0,183.042789223 L0.0,149.762282092 L141.996830428,149.762282092 L242.94770206,149.762282092 L246.275752773,163.074484945 L247.385103011,198.573692552 L247.385103011,232.963549921 L250.713153724,232.963549921 L250.713153724,241.838351823 L226.307448494,241.838351823 L226.307448494,250.713153724 L214.10459588,250.713153724 L214.10459588,259.587955626 L196.354992076,259.587955626 L196.354992076,268.462757528 L174.167987322,268.462757528 L160.855784469,257.369255151 L150.87163233,254.041204437 L126.4659271,269.572107765 L117.591125198,255.150554675 L106.497622821,255.150554675 L99.8415213946,249.603803487 L99.8415213946,236.291600634 L93.1854199683,236.291600634 L89.8573692552,220.760697306 L75.4358161648,207.448494453 L77.6545166403,198.573692552 L67.6703645008,191.917591125 L38.8272583201,191.917591125 L38.8272583201,183.042789223 L0.0,183.042789223 Z" fill="#cee3f5" id="US.WY.029" stroke="#6e6e6e" stroke-width="0.4"><desc><name>Park County</name><stateAbbrev>WY</stateAbbrev><state>Wyoming</state><fips>029</fips><incits>56029</incits><id>US.WY.029</id><population>29227</population></desc></path><path d="M352.773375594,423.771790808 L352.773375594,406.022187005 L461.489698891,407.131537242 L496.988906498,407.131537242 L498.098256735,510.30110935 L472.583201268,510.30110935 L472.583201268,550.237717908 L401.584786054,549.12836767 L313.946117274,549.12836767 L313.946117274,510.30110935 L311.727416799,483.676703645 L354.99207607,483.676703645 L354.99207607,441.521394612 L352.773375594,423.771790808 Z" fill="#cee3f5" id="US.WY.007" stroke="#6e6e6e" stroke-width="0.4"><desc><name>Carbon County</name><stateAbbrev>WY</stateAbbrev><state>Wyoming</state><fips>007</fips><incits>56007</incits><id>US.WY.007</id><population>15748</population></desc></path><path d="M368.304278922,194.136291601 L453.724247227,194.136291601 L503.645007924,194.136291601 L502.535657686,300.633914422 L498.098256735,300.633914422 L445.958795563,300.633914422 L393.81933439,299.524564184 L390.491283677,232.963549921 L390.491283677,217.432646593 L384.944532488,205.229793978 L368.304278922,194.136291601 Z" fill="#cee3f5" id="US.WY.019" stroke="#6e6e6e" stroke-width="0.4"><desc><name>Johnson County</name><stateAbbrev>WY</stateAbbrev><state>Wyoming</state><fips>019</fips><incits>56019</incits><id>US.WY.019</id><population>8628</population></desc></path><path d="M498.098256735,300.633914422 L502.535657686,300.633914422 L596.830427892,300.633914422 L614.580031696,299.524564184 L614.580031696,338.351822504 L615.689381933,389.381933439 L575.752773376,389.381933439 L576.862123613,407.131537242 L571.315372425,407.131537242 L566.877971474,420.443740095 L543.581616482,419.334389857 L549.12836767,407.131537242 L496.988906498,407.131537242 L496.988906498,371.632329635 L498.098256735,300.633914422 Z" fill="#cee3f5" id="US.WY.009" stroke="#6e6e6e" stroke-width="0.4"><desc><name>Converse County</name><stateAbbrev>WY</stateAbbrev><state>Wyoming</state><fips>009</fips><incits>56009</incits><id>US.WY.009</id><population>14313</population></desc></path><path d="M502.535657686,300.633914422 L503.645007924,194.136291601 L503.645007924,150.87163233 L513.629160063,149.762282092 L595.721077655,149.762282092 L596.830427892,231.854199683 L596.830427892,300.633914422 L502.535657686,300.633914422 Z" fill="#cee3f5" id="US.WY.005" stroke="#6e6e6e" stroke-width="0.4"><desc><name>Campbell County</name><stateAbbrev>WY</stateAbbrev><state>Wyoming</state><fips>005</fips><incits>56005</incits><id>US.WY.005</id><population>48176</population></desc></path><path d="M313.946117274,149.762282092 L478.129952456,150.87163233 L503.645007924,150.87163233 L503.645007924,194.136291601 L453.724247227,194.136291601 L368.304278922,194.136291601 L366.085578447,190.808240887 L345.00792393,180.824088748 L331.695721078,178.605388273 L318.383518225,163.074484945 L313.946117274,149.762282092 Z" fill="#cee3f5" id="US.WY.033" stroke="#6e6e6e" stroke-width="0.4"><desc><name>Sheridan County</name><stateAbbrev>WY</stateAbbrev><state>Wyoming</state><fips>033</fips><incits>56033</incits><id>US.WY.033</id><population>29824</population></desc></path><path d="M0.0,183.042789223 L38.8272583201,183.042789223 L38.8272583201,191.917591125 L67.6703645008,191.917591125 L77.6545166403,198.573692552 L75.4358161648,207.448494453 L89.8573692552,220.760697306 L93.1854199683,236.291600634 L99.8415213946,236.291600634 L99.8415213946,249.603803487 L99.8415213946,303.961965135 L99.8415213946,311.727416799 L70.9984152139,311.727416799 L70.9984152139,320.6022187 L47.7020602219,320.6022187 L47.7020602219,326.148969889 L24.4057052298,326.148969889 L24.4057052298,318.383518225 L1.10935023772,318.383518225 L1.10935023772,259.587955626 L0.0,183.042789223 Z" fill="#cee3f5" id="US.WY.039" stroke="#6e6e6e" stroke-width="0.4"><desc><name>Teton County</name><stateAbbrev>WY</stateAbbrev><state>Wyoming</state><fips>039</fips><incits>56039</incits><id>US.WY.039</id><population>22268</population></desc></path><path d="M47.7020602219,326.148969889 L47.7020602219,320.6022187 L70.9984152139,320.6022187 L70.9984152139,311.727416799 L99.8415213946,311.727416799 L99.8415213946,303.961965135 L129.793977813,303.961965135 L135.340729002,312.836767036 L136.450079239,323.930269414 L149.762282092,348.335974643 L168.621236133,354.99207607 L184.152139461,373.851030111 L197.464342314,380.507131537 L198.573692552,406.022187005 L200.792393027,423.771790808 L99.8415213946,422.662440571 L51.030110935,421.553090333 L51.030110935,404.912836767 L46.5927099842,404.912836767 L46.5927099842,337.242472266 L47.7020602219,326.148969889 Z" fill="#cee3f5" id="US.WY.035" stroke="#6e6e6e" stroke-width="0.4"><desc><name>Sublette County</name><stateAbbrev>WY</stateAbbrev><state>Wyoming</state><fips>035</fips><incits>56035</incits><id>US.WY.035</id><population>10041</population></desc></path><path d="M1.10935023772,318.383518225 L24.4057052298,318.383518225 L24.4057052298,326.148969889 L47.7020602219,326.148969889 L46.5927099842,337.242472266 L46.5927099842,404.912836767 L51.030110935,404.912836767 L51.030110935,421.553090333 L99.8415213946,422.662440571 L100.950871632,492.551505547 L1.10935023772,491.442155309 L1.10935023772,428.209191759 L1.10935023772,377.179080824 L1.10935023772,318.383518225 Z" fill="#cee3f5" id="US.WY.023" stroke="#6e6e6e" stroke-width="0.4"><desc><name>Lincoln County</name><stateAbbrev>WY</stateAbbrev><state>Wyoming</state><fips>023</fips><incits>56023</incits><id>US.WY.023</id><population>18364</population></desc></path><path d="M615.689381933,389.381933439 L640.095087163,389.381933439 L640.095087163,484.786053883 L576.862123613,483.676703645 L577.971473851,451.505546751 L576.862123613,407.131537242 L575.752773376,389.381933439 L615.689381933,389.381933439 Z" fill="#cee3f5" id="US.WY.031" stroke="#6e6e6e" stroke-width="0.4"><desc><name>Platte County</name><stateAbbrev>WY</stateAbbrev><state>Wyoming</state><fips>031</fips><incits>56031</incits><id>US.WY.031</id><population>8765</population></desc></path><path d="M640.095087163,389.381933439 L698.890649762,388.272583201 L700.0,493.660855784 L640.095087163,493.660855784 L640.095087163,484.786053883 L640.095087163,389.381933439 Z" fill="#cee3f5" id="US.WY.015" stroke="#6e6e6e" stroke-width="0.4"><desc><name>Goshen County</name><stateAbbrev>WY</stateAbbrev><state>Wyoming</state><fips>015</fips><incits>56015</incits><id>US.WY.015</id><population>13612</population></desc></path><path d="M614.580031696,299.524564184 L698.890649762,299.524564184 L698.890649762,388.272583201 L640.095087163,389.381933439 L615.689381933,389.381933439 L614.580031696,338.351822504 L614.580031696,299.524564184 Z" fill="#cee3f5" id="US.WY.027" stroke="#6e6e6e" stroke-width="0.4"><desc><name>Niobrara County</name><stateAbbrev>WY</stateAbbrev><state>Wyoming</state><fips>027</fips><incits>56027</incits><id>US.WY.027</id><population>2541</population></desc></path><path d="M596.830427892,231.854199683 L698.890649762,231.854199683 L698.890649762,299.524564184 L614.580031696,299.524564184 L596.830427892,300.633914422 L596.830427892,231.854199683 Z" fill="#cee3f5" id="US.WY.045" stroke="#6e6e6e" stroke-width="0.4"><desc><name>Weston County</name><stateAbbrev>WY</stateAbbrev><state>Wyoming</state><fips>045</fips><incits>56045</incits><id>US.WY.045</id><population>7158</population></desc></path><path d="M595.721077655,149.762282092 L698.890649762,150.87163233 L698.890649762,231.854199683 L596.830427892,231.854199683 L595.721077655,149.762282092 Z" fill="#cee3f5" id="US.WY.011" stroke="#6e6e6e" stroke-width="0.4"><desc><name>Crook County</name><stateAbbrev>WY</stateAbbrev><state>Wyoming</state><fips>011</fips><incits>56011</incits><id>US.WY.011</id><population>7184</population></desc></path><path d="M242.94770206,149.762282092 L313.946117274,149.762282092 L318.383518225,163.074484945 L331.695721078,178.605388273 L345.00792393,180.824088748 L366.085578447,190.808240887 L368.304278922,194.136291601 L384.944532488,205.229793978 L390.491283677,217.432646593 L390.491283677,232.963549921 L250.713153724,232.963549921 L247.385103011,232.963549921 L247.385103011,198.573692552 L246.275752773,163.074484945 L242.94770206,149.762282092 Z" fill="#cee3f5" id="US.WY.003" stroke="#6e6e6e" stroke-width="0.4"><desc><name>Big Horn County</name><stateAbbrev>WY</stateAbbrev><state>Wyoming</state><fips>003</fips><incits>56003</incits><id>US.WY.003</id><population>11994</population></desc></path><path d="M1.10935023772,491.442155309 L100.950871632,492.551505547 L100.950871632,550.237717908 L1.10935023772,550.237717908 L1.10935023772,491.442155309 Z" fill="#cee3f5" id="US.WY.041" stroke="#6e6e6e" stroke-width="0.4"><desc><name>Uinta County</name><stateAbbrev>WY</stateAbbrev><state>Wyoming</state><fips>041</fips><incits>56041</incits><id>US.WY.041</id><population>21066</population></desc></path><path d="M496.988906498,407.131537242 L549.12836767,407.131537242 L543.581616482,419.334389857 L566.877971474,420.443740095 L571.315372425,407.131537242 L576.862123613,407.131537242 L577.971473851,451.505546751 L576.862123613,483.676703645 L576.862123613,550.237717908 L472.583201268,550.237717908 L472.583201268,510.30110935 L498.098256735,510.30110935 L496.988906498,407.131537242 Z" fill="#cee3f5" id="US.WY.001" stroke="#6e6e6e" stroke-width="0.4"><desc><name>Albany County</name><stateAbbrev>WY</stateAbbrev><state>Wyoming</state><fips>001</fips><incits>56001</incits><id>US.WY.001</id><population>37422</population></desc></path><path d="M576.862123613,483.676703645 L640.095087163,484.786053883 L640.095087163,493.660855784 L700.0,493.660855784 L698.890649762,549.12836767 L576.862123613,550.237717908 L576.862123613,483.676703645 Z" fill="#cee3f5" id="US.WY.021" stroke="#6e6e6e" stroke-width="0.4"><desc><name>Laramie County</name><stateAbbrev>WY</stateAbbrev><state>Wyoming</state><fips>021</fips><incits>56021</incits><id>US.WY.021</id><population>95809</population></desc></path><path d="M99.8415213946,422.662440571 L200.792393027,423.771790808 L280.665610143,423.771790808 L352.773375594,423.771790808 L354.99207607,441.521394612 L354.99207607,483.676703645 L311.727416799,483.676703645 L313.946117274,510.30110935 L313.946117274,549.12836767 L200.792393027,549.12836767 L100.950871632,550.237717908 L100.950871632,492.551505547 L99.8415213946,422.662440571 Z" fill="#cee3f5" id="US.WY.037" stroke="#6e6e6e" stroke-width="0.4"><desc><name>Sweetwater County</name><stateAbbrev>WY</stateAbbrev><state>Wyoming</state><fips>037</fips><incits>56037</incits><id>US.WY.037</id><population>45237</population></desc></path></svg>