<?xml version='1.0' encoding='utf-8'?>
<svg height="700" width="700" xmlns="http://www.w3.org/2000/svg"><path d="M592.711957517,559.769273027 L593.609229079,562.204724409 L590.66105109,564.127449185 L592.19923091,562.589269365 L589.891961179,562.845632668 L589.891961179,559.769273027 L592.711957517,559.769273027 M604.376487823,560.153817982 L602.838308002,558.102911555 L605.401941036,559.000183117 L604.376487823,560.153817982 M605.273759385,557.205639993 L606.042849295,558.743819813 L602.966489654,557.077458341 L605.017396081,555.667460172 L605.273759385,557.205639993 M600.146493316,555.026551914 L603.479216261,561.563816151 L602.069218092,563.230177623 L596.941952023,560.281999634 L598.864676799,558.102911555 L600.274674968,559.512909723 L599.890130013,553.360190441 L600.146493316,555.026551914 M603.351034609,554.257462003 L602.453763047,556.821095038 L601.428309833,553.744735396 L603.351034609,554.257462003 M595.275590551,553.23200879 L599.121040103,554.257462003 L596.813770372,559.25654642 L593.609229079,552.847463834 L595.275590551,553.23200879 M592.583775865,552.719282183 L596.301043765,560.410181285 L594.891045596,563.999267533 L593.352865775,557.846548251 L590.66105109,558.872001465 L592.96832082,556.949276689 L590.66105109,557.590184948 L591.686504303,555.282915217 L589.763779528,553.488372093 L592.583775865,552.719282183 M598.351950192,547.848379418 L599.890130013,552.975645486 L593.352865775,552.078373924 L598.351950192,547.848379418 M608.606482329,547.976561069 L610.401025453,549.51474089 L602.325581395,549.51474089 L604.761032778,547.335652811 L608.606482329,547.976561069 M602.069218092,548.104742721 L600.659219923,549.642922542 L600.018311665,547.720197766 L602.069218092,548.104742721 M595.275590551,546.182017945 L595.660135506,548.232924373 L592.19923091,547.848379418 L595.275590551,546.182017945 M605.914667643,533.492034426 L607.581029116,533.620216078 L605.401941036,535.927485808 L605.914667643,533.492034426 M608.734663981,515.80296649 L609.119208936,518.494781176 L606.940120857,516.315693097 L608.734663981,515.80296649 M609.119208936,513.623878411 L610.016480498,515.290239883 L608.350119026,515.033876579 L609.119208936,513.623878411 M597.070133675,512.470243545 L596.429225417,516.315693097 L593.224684124,517.853872917 L595.531953855,515.931148141 L592.840139169,515.80296649 L592.327412562,513.880241714 L595.147408899,514.649331624 L594.121955686,513.495696759 L597.070133675,512.470243545 M598.351950192,511.31660868 L597.198315327,509.522065556 L598.864676799,508.112067387 L598.351950192,511.31660868 M606.42739425,510.034792163 L604.504669474,508.881157297 L605.273759385,506.958432522 L606.811939205,507.855704084 L606.42739425,510.034792163 M602.197399744,508.752975645 L600.146493316,511.572971983 L600.531038271,505.804797656 L602.197399744,508.752975645 M610.401025453,508.112067387 L609.888298846,510.547518769 L607.965574071,508.752975645 L609.631935543,505.035707746 L610.401025453,508.112067387 M606.683757554,505.676616004 L607.324665812,507.342977477 L605.273759385,506.702069218 L603.863761216,507.855704084 L604.761032778,505.035707746 L606.683757554,505.676616004 M605.017396081,501.959348105 L608.093755722,503.241164622 L603.863761216,503.369346274 L603.351034609,501.831166453 L605.017396081,501.959348105 M606.940120857,497.472990295 L608.606482329,502.215711408 L602.197399744,500.421168284 L602.966489654,498.113898553 L606.940120857,497.472990295 M606.042849295,496.703900385 L600.531038271,497.729353598 L602.838308002,495.293902216 L606.042849295,496.703900385 M604.376487823,494.909357261 L602.453763047,494.268449002 L605.145577733,493.499359092 L604.376487823,494.909357261 M607.19648416,494.524812305 L607.324665812,496.703900385 L605.530122688,494.012085699 L607.19648416,494.524812305 M605.530122688,490.935726057 L601.556491485,494.268449002 L599.505585058,492.345724226 L605.530122688,490.935726057 M608.606482329,489.269364585 L609.888298846,492.089360923 L607.837392419,492.730269181 L606.811939205,489.910272844 L608.606482329,489.269364585 M601.684673137,488.243911372 L597.582860282,488.756637978 L600.531038271,487.090276506 L601.684673137,488.243911372 M617.963742904,487.090276506 L620.65555759,488.372093023 L619.630104376,490.294817799 L617.451016297,489.782091192 L619.373741073,491.576634316 L614.118293353,495.934810474 L612.323750229,494.012085699 L614.759201611,493.242995788 L612.451931881,493.37117744 L611.426478667,490.807544406 L615.40010987,489.269364585 L614.374656656,486.577549899 L616.681926387,487.731184765 L617.066471342,485.552096686 L617.963742904,487.090276506 M608.478300678,487.34663981 L607.068302509,486.449368248 L608.734663981,485.808459989 L608.478300678,487.34663981 M603.735579564,482.732100348 L605.530122688,484.013916865 L604.504669474,485.680278337 L603.735579564,482.732100348 M614.502838308,479.783922359 L612.964658487,478.502105841 L614.246475005,477.220289324 L614.502838308,479.783922359 M605.530122688,475.682109504 L606.940120857,477.733015931 L601.684673137,477.861197583 L605.530122688,475.682109504 M632.704632851,479.271195752 L631.422816334,485.16755173 L639.754623695,485.808459989 L640.908258561,487.987548068 L638.857352133,492.345724226 L628.8591833,492.473905878 L629.115546603,494.652993957 L635.268265885,495.678447171 L638.857352133,501.318439846 L633.34554111,506.317524263 L635.524629189,513.239333455 L631.935542941,516.5720564 L635.011902582,526.057498627 L631.935542941,528.236586706 L633.217359458,535.030214246 L627.449185131,539.77293536 L625.654642007,547.976561069 L628.8591833,555.282915217 L625.654642007,557.590184948 L625.782823659,563.486540927 L621.040102545,567.331990478 L619.501922725,571.94652994 L608.478300678,563.614722578 L604.504669474,561.563816151 L606.683757554,559.000183117 L609.247390588,561.051089544 L610.016480498,557.462003296 L605.65830434,556.692913386 L602.966489654,551.309284014 L601.043764878,551.05292071 L604.376487823,551.181102362 L606.299212598,554.77018861 L604.761032778,550.540194104 L611.170115363,550.796557407 L613.990111701,554.513825307 L617.066471342,551.437465666 L614.63101996,552.334737228 L612.451931881,548.489287676 L617.579197949,550.027467497 L611.68284197,546.310199597 L611.170115363,541.952023439 L609.119208936,547.720197766 L599.377403406,546.182017945 L602.453763047,542.977476653 L603.863761216,544.387474821 L602.325581395,545.541109687 L606.171030947,546.182017945 L604.376487823,545.02838308 L607.19648416,542.336568394 L604.504669474,543.746566563 L601.428309833,540.670206922 L603.607397912,536.952939022 L606.299212598,538.875663798 L606.171030947,536.312030764 L607.837392419,537.337483977 L607.965574071,533.107489471 L603.094671306,528.877494964 L599.761948361,528.492950009 L601.17194653,529.390221571 L599.249221754,529.518403223 L598.992858451,530.672038088 L601.428309833,531.441127999 L598.864676799,531.312946347 L594.634682293,529.262039919 L595.275590551,523.750228896 L587.584691448,529.005676616 L587.200146493,530.543856437 L589.635597876,529.005676616 L590.148324483,532.851126167 L587.200146493,532.082036257 L586.17469328,527.980223402 L591.814685955,521.442959165 L593.993774034,522.083867424 L593.096502472,519.904779344 L596.813770372,519.520234389 L597.967405237,512.470243545 L600.531038271,515.931148141 L600.274674968,512.342061893 L604.761032778,512.342061893 L604.248306171,517.725691265 L605.65830434,514.905694928 L606.042849295,517.853872917 L600.40285662,518.879326131 L605.786485992,518.622962827 L605.530122688,520.930232558 L608.478300678,521.05841421 L606.171030947,518.751144479 L607.709210767,517.597509614 L609.37557224,519.776597693 L607.709210767,525.672953671 L612.708295184,520.161142648 L614.246475005,515.162058231 L610.401025453,520.673869255 L610.272843802,514.521149973 L615.912836477,508.624793994 L614.118293353,507.983885735 L610.91375206,511.060245376 L611.554660319,505.292071049 L615.015564915,502.34389306 L620.014649332,504.138436184 L614.63101996,501.318439846 L612.195568577,502.087529756 L613.861930049,499.523896722 L612.580113532,496.832082036 L620.783739242,492.345724226 L622.193737411,487.859366416 L622.193737411,484.911188427 L620.65555759,487.859366416 L614.63101996,483.62937191 L615.271928218,481.834828786 L613.221021791,482.475737044 L615.271928218,480.809375572 L616.425563084,475.169382897 L618.861014466,475.682109504 L618.348287859,473.374839773 L615.912836477,474.400292987 L618.604651163,472.605749863 L622.193737411,475.041201245 L624.885552097,474.143929683 L627.833730086,477.733015931 L632.704632851,479.271195752 M595.147408899,472.477568211 L596.429225417,473.759384728 L593.737410731,474.784837942 L592.96832082,472.862113166 L595.147408899,472.477568211 Z" fill="#cee3f5" id="CL.AI" stroke="#6e6e6e" stroke-width="0.4"><desc><labelrank>3</labelrank><code_hasc>CL.AI</code_hasc><name>Aisén del General Carlos Ibáñez del Campo</name><admin>Chile</admin><type_en>Region</type_en><region /><woe_id>2345019</woe_id><longitude>-73</longitude><woe_name>Aisén del General Carlos Ibáñez del Campo</woe_name><fips>CI02</fips><woe_label>Aisen Region, CL, Chile</woe_label><latitude>-46</latitude><iso_a2>CL</iso_a2><postal>AI</postal><type>Región</type><id>CL.AI</id></desc></path><path d="M681.926387109,686.669108222 L681.413660502,688.720014649 L678.593664164,687.822743087 L681.926387109,686.669108222 M684.105475188,682.951840322 L684.233656839,686.54092657 L681.798205457,685.130928401 L684.105475188,682.951840322 M658.212781542,677.696392602 L657.571873283,678.978209119 L656.54642007,677.56821095 L658.212781542,677.696392602 M688.848196301,678.465482512 L687.694561436,676.79912104 L689.360922908,676.79912104 L688.848196301,678.465482512 M674.363669658,672.31276323 L671.415491668,675.004577916 L667.05731551,673.08185314 L675.645486175,677.055484344 L670.261856803,677.055484344 L676.286394433,679.490935726 L678.080937557,682.823658671 L676.927302692,685.00274675 L674.235488006,680.772752243 L671.54367332,679.490935726 L668.851858634,681.029115547 L669.749130196,675.645486175 L667.82640542,677.055484344 L666.416407251,674.876396264 L666.2882256,676.670939388 L665.262772386,674.491851309 L663.211865959,675.132759568 L664.750045779,675.26094122 L663.083684307,677.696392602 L666.031862296,681.413660502 L659.750961362,677.696392602 L662.5709577,675.389122871 L659.110053104,676.927302692 L657.187328328,675.132759568 L661.673686138,673.08185314 L661.80186779,675.004577916 L664.750045779,672.056399927 L674.363669658,672.31276323 M679.875480681,670.902765061 L686.156381615,671.928218275 L687.438198132,674.748214613 L685.643655008,677.696392602 L682.823658671,675.517304523 L681.157297198,677.055484344 L676.414576085,676.286394433 L674.235488006,671.159128365 L679.875480681,670.902765061 M652.316425563,671.54367332 L650.137337484,672.697308185 L654.495513642,672.953671489 L654.880058597,674.363669658 L653.341878777,673.850943051 L652.572788867,676.158212782 L651.547335653,673.338216444 L650.521882439,674.748214613 L647.317341146,673.338216444 L647.445522798,671.671854972 L654.239150339,670.646401758 L652.316425563,671.54367332 M662.442776048,670.646401758 L666.031862296,671.54367332 L658.340963194,673.08185314 L658.340963194,670.390038454 L662.442776048,670.646401758 M643.728254898,669.620948544 L648.214612708,671.159128365 L644.497344809,670.261856803 L643.728254898,671.928218275 L643.728254898,669.620948544 M633.217359458,661.289141183 L631.935542941,663.083684307 L631.166453031,661.545504486 L633.217359458,661.289141183 M653.341878777,658.08459989 L654.751876946,659.494598059 L651.931880608,657.828236587 L653.341878777,658.08459989 M633.858267717,657.187328328 L633.473722761,659.879143014 L631.422816334,659.750961362 L633.858267717,657.187328328 M654.239150339,655.905511811 L653.726423732,657.443691632 L651.931880608,656.418238418 L654.239150339,655.905511811 M623.60373558,656.674601721 L624.244643838,658.212781542 L621.168284197,657.31550998 L623.60373558,656.674601721 M641.420985168,654.880058597 L643.728254898,654.880058597 L644.62552646,658.212781542 L646.676432888,656.54642007 L645.907342977,661.673686138 L642.574620033,656.930965025 L641.420985168,659.879143014 L640.13916865,659.110053104 L641.420985168,654.880058597 M637.703717268,653.213697125 L637.960080571,654.751876946 L640.010986999,653.854605384 L638.985533785,658.08459989 L636.934627358,655.520966856 L639.241897088,659.238234756 L638.344625526,661.160959531 L633.730086065,654.110968687 L637.703717268,653.213697125 M652.82915217,652.444607215 L653.341878777,655.649148508 L650.265519136,653.982787035 L651.675517305,658.725508149 L648.727339315,656.930965025 L647.830067753,652.700970518 L650.906427394,652.444607215 L649.752792529,649.496429225 L651.547335653,647.060977843 L652.82915217,652.444607215 M618.348287859,647.830067753 L616.681926387,649.11188427 L616.425563084,646.548251236 L618.348287859,647.830067753 M619.501922725,645.650979674 L621.296465849,645.522798022 L620.527375938,648.470976012 L616.938289691,646.291887933 L619.501922725,647.189159495 L619.501922725,645.650979674 M625.398278704,646.804614539 L626.423731917,645.650979674 L626.936458524,650.137337484 L626.936458524,646.035524629 L629.115546603,649.880974181 L628.987364951,647.445522798 L631.294634682,647.958249405 L631.550997986,650.906427394 L634.88372093,651.803698956 L632.191906244,652.700970518 L632.960996155,656.161875114 L631.038271379,655.264603552 L630.910089727,657.31550998 L629.884636513,656.033693463 L626.936458524,657.828236587 L629.62827321,653.085515473 L625.270097052,652.572788867 L625.013733748,656.54642007 L622.450100714,655.264603552 L622.962827321,650.650064091 L619.630104376,651.803698956 L619.630104376,648.727339315 L621.809192456,648.599157663 L623.60373558,650.009155832 L626.167368614,649.880974181 L622.962827321,649.496429225 L622.834645669,648.086431057 L621.040102545,646.676432888 L624.757370445,647.57370445 L625.013733748,645.010071415 L625.398278704,646.804614539 M618.348287859,635.396447537 L620.65555759,637.575535616 L616.297381432,637.190990661 L618.348287859,635.396447537 M606.811939205,634.370994323 L610.529207105,638.216443875 L613.477385094,637.960080571 L618.476469511,641.164621864 L618.476469511,639.626442044 L619.88646768,643.08734664 L620.271012635,640.780076909 L624.37282549,644.497344809 L619.11737777,644.112799854 L615.784654825,639.754623695 L611.170115363,640.780076909 L606.811939205,634.370994323 M665.647317341,631.038271379 L670.133675151,628.987364951 L671.671854972,630.525544772 L671.159128365,670.261856803 L668.467313679,668.339132027 L670.390038454,670.518220106 L666.416407251,671.287310016 L661.03277788,669.236403589 L661.289141183,666.929133858 L658.340963194,669.108221937 L657.700054935,666.672770555 L657.571873283,669.492766893 L654.36733199,669.620948544 L654.880058597,666.929133858 L653.726423732,669.492766893 L649.752792529,669.749130196 L652.82915217,666.031862296 L646.804614539,668.595495331 L647.701886101,665.775498993 L644.240981505,666.929133858 L643.600073247,664.109137521 L642.190075078,667.185497162 L641.036440212,665.390954038 L637.319172313,666.672770555 L637.062809009,663.211865959 L640.267350302,665.262772386 L638.344625526,662.5709577 L641.292803516,664.109137521 L640.780076909,662.442776048 L643.08734664,663.083684307 L643.343709943,661.673686138 L646.163706281,663.980955869 L648.470976012,660.520051273 L651.034609046,660.776414576 L649.624610877,665.390954038 L651.290972349,661.673686138 L656.033693463,664.365500824 L647.57370445,656.930965025 L656.033693463,662.314594397 L656.930965025,659.238234756 L659.750961362,664.493682476 L658.8536898,659.622779711 L662.186412745,662.442776048 L662.5709577,660.648232924 L665.390954038,662.827321003 L663.852774217,666.672770555 L666.031862296,662.5709577 L667.698223769,662.955502655 L657.187328328,656.674601721 L655.264603552,651.419154001 L663.852774217,646.163706281 L663.980955869,643.215528292 L655.008240249,645.266434719 L652.06006226,642.574620033 L652.572788867,637.319172313 L654.495513642,638.088262223 L656.033693463,635.396447537 L653.726423732,635.524629189 L652.444607215,632.832814503 L657.956418238,634.370994323 L663.211865959,627.192821828 L665.647317341,631.038271379 M616.553744735,628.090093389 L616.16919978,633.089177806 L614.502838308,633.601904413 L615.143746567,630.781908075 L612.451931881,633.730086065 L613.349203443,628.731001648 L616.553744735,628.090093389 M604.376487823,625.654642007 L607.581029116,625.91100531 L607.19648416,628.602819996 L604.761032778,627.961911738 L604.376487823,625.654642007 M610.657388757,623.219190624 L614.246475005,626.808276872 L612.323750229,628.218275041 L611.811023622,624.629188793 L608.862845633,623.988280535 L610.657388757,623.219190624 M612.836476836,619.758286028 L616.810108039,625.1419154 L611.939205274,621.168284197 L612.836476836,619.758286028 M605.017396081,619.373741073 L606.42739425,618.732832815 L603.863761216,624.244643838 L605.017396081,619.373741073 M614.887383263,618.348287859 L616.041018129,621.168284197 L613.221021791,618.220106208 L614.887383263,618.348287859 M608.862845633,617.322834646 L611.554660319,620.271012635 L607.324665812,616.425563084 L608.862845633,617.322834646 M603.351034609,615.40010987 L604.504669474,617.963742904 L602.838308002,623.988280535 L601.428309833,621.681010804 L603.863761216,619.11737777 L603.351034609,615.40010987 M612.323750229,614.118293353 L612.708295184,617.579197949 L610.14466215,616.041018129 L612.323750229,614.118293353 M599.633766709,610.91375206 L601.300128182,611.426478667 L598.351950192,615.784654825 L599.633766709,609.119208936 L599.633766709,610.91375206 M604.632851126,607.581029116 L606.42739425,610.401025453 L604.632851126,608.991027284 L601.300128182,612.580113532 L604.632851126,607.581029116 M606.940120857,604.632851126 L607.324665812,607.452847464 L605.273759385,605.401941036 L606.940120857,604.632851126 M606.42739425,600.274674968 L607.581029116,605.273759385 L606.683757554,603.735579564 L602.069218092,605.273759385 L601.428309833,602.325581395 L604.88921443,602.71012635 L604.248306171,599.249221754 L606.42739425,600.274674968 M603.222852957,598.864676799 L604.120124519,602.069218092 L601.300128182,601.556491485 L601.428309833,598.480131844 L603.222852957,598.864676799 M595.91649881,595.531953855 L598.992858451,595.531953855 L596.301043765,596.813770372 L597.070133675,600.915583227 L594.506500641,598.736495147 L595.91649881,595.531953855 M605.786485992,594.634682293 L607.19648416,594.506500641 L609.503753891,600.915583227 L605.786485992,599.121040103 L606.683757554,595.531953855 L603.735579564,594.762863944 L605.786485992,594.634682293 M600.274674968,594.250137337 L598.095586889,595.019227248 L600.531038271,591.430141 L600.274674968,594.250137337 M596.044680461,587.456509797 L600.018311665,587.969236404 L598.864676799,590.020142831 L601.94103644,588.994689617 L597.198315327,594.634682293 L597.582860282,592.19923091 L594.634682293,593.224684124 L595.403772203,589.635597876 L598.095586889,591.173777696 L596.044680461,587.456509797 M593.224684124,579.381065739 L597.198315327,585.149240066 L594.762863944,582.072880425 L592.071049258,584.892876762 L593.224684124,579.381065739 M605.786485992,579.381065739 L605.017396081,576.048342794 L606.940120857,578.099249222 L605.786485992,579.381065739 M597.070133675,569.76744186 L599.377403406,570.536531771 L599.121040103,573.869254715 L597.582860282,571.94652994 L595.403772203,571.818348288 L597.070133675,569.76744186 M593.737410731,570.023805164 L592.583775865,574.125618019 L590.789232741,573.48470976 L593.737410731,570.023805164 M592.840139169,567.203808826 L594.506500641,567.203808826 L595.403772203,570.408350119 L594.250137337,568.485625343 L592.455594214,570.151986816 L592.455594214,568.613806995 L590.404687786,568.99835195 L590.66105109,567.075627175 L592.840139169,567.203808826 M596.813770372,567.588353781 L595.660135506,569.126533602 L594.121955686,565.665629006 L596.813770372,567.588353781 M608.478300678,563.614722578 L619.501922725,571.94652994 L616.16919978,573.228346457 L614.887383263,577.20197766 L616.297381432,587.969236404 L618.989196118,590.66105109 L621.296465849,598.864676799 L625.270097052,595.91649881 L630.525544772,596.172862113 L629.756454862,604.376487823 L631.550997986,606.683757554 L629.62827321,612.195568577 L635.268265885,619.373741073 L657.31550998,619.501922725 L673.722761399,624.757370445 L665.134590734,622.834645669 L660.391869621,628.731001648 L647.701886101,632.320087896 L649.11188427,633.34554111 L647.060977843,650.650064091 L643.85643655,652.957333822 L635.140084234,649.880974181 L631.166453031,645.010071415 L632.832814503,642.061893426 L635.140084234,643.471891595 L633.473722761,645.394616371 L635.011902582,645.138253067 L637.447353964,641.549166819 L638.216443875,645.266434719 L636.037355796,647.57370445 L638.088262223,646.676432888 L638.60098883,645.650979674 L638.60098883,641.420985168 L645.010071415,635.909174144 L641.933711774,632.576451199 L635.524629189,639.882805347 L629.756454862,639.241897088 L633.858267717,640.908258561 L630.140999817,641.292803516 L631.550997986,642.31825673 L629.115546603,643.600073247 L632.320087896,647.317341146 L621.937374107,641.036440212 L628.346456693,643.08734664 L627.321003479,641.036440212 L628.8591833,640.651895257 L625.782823659,639.882805347 L625.270097052,635.011902582 L627.961911738,632.832814503 L627.961911738,635.652810841 L631.038271379,635.268265885 L633.730086065,631.550997986 L641.036440212,631.166453031 L640.010986999,629.62827321 L632.063724593,629.243728255 L630.910089727,631.679179637 L629.500091558,630.653726424 L631.166453031,629.115546603 L626.039186962,629.243728255 L624.885552097,632.832814503 L626.551913569,630.653726424 L628.218275041,631.807361289 L624.757370445,635.396447537 L625.270097052,639.113715437 L623.219190624,638.472807178 L623.091008973,640.13916865 L620.142830983,638.216443875 L622.578282366,636.293719099 L618.861014466,634.88372093 L622.321919062,634.627357627 L623.60373558,629.243728255 L625.526460355,629.115546603 L622.321919062,628.218275041 L621.809192456,632.576451199 L620.399194287,630.269181469 L617.194652994,633.473722761 L619.245559421,629.115546603 L617.322834646,628.346456693 L617.963742904,624.501007142 L616.041018129,621.4246475 L621.040102545,624.501007142 L624.116462186,621.552829152 L623.475553928,624.757370445 L625.782823659,624.885552097 L626.167368614,619.245559421 L629.371909907,624.116462186 L625.270097052,628.346456693 L629.62827321,628.090093389 L628.346456693,627.321003479 L630.012818165,623.731917231 L627.577366783,619.630104376 L629.756454862,618.861014466 L629.756454862,616.425563084 L622.450100714,610.272843802 L620.65555759,611.68284197 L628.602819996,616.297381432 L626.936458524,617.451016297 L620.65555759,613.733748398 L623.860098883,616.681926387 L622.706464018,616.041018129 L621.681010804,618.476469511 L624.757370445,617.963742904 L621.681010804,622.193737411 L619.501922725,614.502838308 L621.040102545,623.60373558 L617.963742904,621.552829152 L617.066471342,617.579197949 L619.758286028,621.040102545 L617.322834646,616.425563084 L618.732832815,615.271928218 L615.912836477,616.938289691 L613.221021791,610.657388757 L616.938289691,614.246475005 L615.528291522,605.65830434 L613.605566746,607.581029116 L611.811023622,605.401941036 L610.785570408,606.940120857 L611.041933712,602.71012635 L609.37557224,604.248306171 L608.991027284,602.581944699 L612.580113532,601.043764878 L614.118293353,602.581944699 L614.118293353,597.45467863 L617.451016297,597.326496979 L614.502838308,595.531953855 L616.16919978,592.711957517 L611.298297015,600.40285662 L607.965574071,594.506500641 L610.016480498,596.301043765 L609.631935543,594.506500641 L612.708295184,595.275590551 L609.760117195,593.352865775 L611.041933712,592.19923091 L608.478300678,593.737410731 L607.837392419,590.66105109 L606.683757554,592.583775865 L603.222852957,590.020142831 L606.940120857,587.584691448 L608.862845633,590.532869438 L612.708295184,590.789232741 L606.555575902,585.918329976 L612.195568577,587.071964842 L611.68284197,583.22651529 L610.272843802,585.277421718 L606.940120857,583.739241897 L609.631935543,581.303790515 L606.811939205,581.047427211 L607.581029116,578.355612525 L610.657388757,577.842885918 L613.990111701,580.662882256 L608.606482329,575.663797839 L608.991027284,572.843801502 L611.811023622,574.25379967 L609.119208936,569.639260209 L611.554660319,568.613806995 L608.862845633,568.357443692 L607.709210767,577.586522615 L605.145577733,575.279252884 L604.120124519,565.152902399 L608.478300678,563.614722578 M601.300128182,563.871085882 L601.812854789,566.178355613 L603.094671306,563.74290423 L604.632851126,572.331074895 L603.479216261,581.303790515 L604.504669474,579.509247391 L605.65830434,581.431972166 L605.273759385,585.277421718 L602.069218092,587.328328145 L601.043764878,586.431056583 L603.222852957,585.533785021 L600.40285662,585.661966673 L602.197399744,583.611060245 L599.890130013,580.919245559 L602.197399744,580.021973997 L600.018311665,578.611975829 L602.581944699,574.894707929 L598.736495147,577.458340963 L599.121040103,584.892876762 L592.96832082,575.151071232 L596.68558872,577.97106757 L594.762863944,573.741073064 L597.45467863,575.663797839 L596.172862113,574.25379967 L597.839223585,573.612891412 L597.198315327,572.587438198 L599.761948361,575.279252884 L600.40285662,570.664713422 L598.480131844,569.126533602 L599.890130013,567.972898736 L598.351950192,568.741988647 L599.249221754,566.050173961 L597.070133675,565.793810657 L601.300128182,563.871085882 M596.301043765,565.921992309 L594.762863944,565.152902399 L596.557407068,562.717451016 L596.301043765,565.921992309 M597.839223585,562.845632668 L599.505585058,562.97381432 L597.326496979,564.51199414 L597.839223585,562.845632668 Z" fill="#cee3f5" id="CL.MA" stroke="#6e6e6e" stroke-width="0.4"><desc><labelrank>3</labelrank><code_hasc>CL.MA</code_hasc><name>Magallanes y Antártica Chilena</name><admin>Chile</admin><type_en>Region</type_en><region /><woe_id>2345027</woe_id><longitude>-71</longitude><woe_name>Magallanes y Antártica Chilena</woe_name><fips>CI10</fips><woe_label>Magallanes and Antartica Chilena Region, CL, Chile</woe_label><latitude>-53</latitude><iso_a2>CL</iso_a2><postal>MA</postal><type>Región</type><id>CL.MA</id></desc></path><path d="M675.389122871,71.3971800037 L671.030946713,76.9089910273 L660.263687969,80.6262589269 L650.265519136,80.6262589269 L647.57370445,69.474455228 L648.983702619,55.1181102362 L646.420069584,40.6335835927 L654.495513642,37.3008606482 L664.493682476,39.3517670756 L667.82640542,36.531770738 L676.927302692,45.2481230544 L672.697308185,50.1190258194 L675.132759568,52.6826588537 L674.620032961,55.8872001465 L671.159128365,57.0408350119 L673.08185314,60.8862845633 L671.800036623,63.0653726424 L676.286394433,66.1417322835 L675.389122871,71.3971800037 Z" fill="#cee3f5" id="CL.TA" stroke="#6e6e6e" stroke-width="0.4"><desc><labelrank>3</labelrank><code_hasc>CL.TA</code_hasc><name>Tarapacá</name><admin>Chile</admin><type_en>Region</type_en><region /><woe_id>2345030</woe_id><longitude>-69</longitude><woe_name>Tarapacá</woe_name><fips>CI13</fips><woe_label>Tarapaca Region, CL, Chile</woe_label><latitude>-20</latitude><iso_a2>CL</iso_a2><postal>TA</postal><type>Región</type><id>CL.TA</id></desc></path><path d="M667.82640542,36.531770738 L664.493682476,39.3517670756 L654.495513642,37.3008606482 L646.420069584,40.6335835927 L644.240981505,26.0208752976 L651.419154001,24.3545138253 L654.495513642,19.611792712 L653.341878777,14.6127082952 L659.110053104,11.2799853507 L662.5709577,19.4836110602 L666.2882256,20.6372459257 L665.134590734,22.4317890496 L667.82640542,36.531770738 Z" fill="#cee3f5" id="CL.2740" stroke="#6e6e6e" stroke-width="0.4"><desc><labelrank>7</labelrank><code_hasc>CL.</code_hasc><name>Arica y Parinacota</name><admin>Chile</admin><type_en>Region</type_en><region /><woe_id>56043702</woe_id><longitude>-69</longitude><woe_name>Arica y Parinacota</woe_name><fips /><woe_label>Arica and Parinacota Region, CL, Chile</woe_label><latitude>-18</latitude><iso_a2>CL</iso_a2><postal /><type>Región</type><id>CL.2740</id></desc></path><path d="M674.876396264,148.177989379 L667.570042117,149.844350851 L666.416407251,154.458890313 L649.368247574,156.125251785 L641.677348471,161.380699506 L640.010986999,157.919794909 L644.62552646,149.331624245 L642.190075078,134.847097601 L645.138253067,118.183482879 L643.343709943,116.260758103 L641.164621864,117.158029665 L641.677348471,112.2871269 L642.31825673,109.082585607 L644.497344809,109.595312214 L646.676432888,106.262589269 L650.265519136,80.6262589269 L660.263687969,80.6262589269 L671.030946713,76.9089910273 L675.389122871,71.3971800037 L680.772752243,77.6780809376 L686.028199963,104.980772752 L697.180003662,104.980772752 L700.0,108.057132393 L694.103644021,126.130745285 L679.875480681,132.283464567 L675.645486175,136.25709577 L674.491851309,139.718000366 L677.824574254,145.22981139 L674.876396264,148.177989379 Z" fill="#cee3f5" id="CL.AN" stroke="#6e6e6e" stroke-width="0.4"><desc><labelrank>6</labelrank><code_hasc>CL.AN</code_hasc><name>Antofagasta</name><admin>Chile</admin><type_en>Region</type_en><region /><woe_id>2345020</woe_id><longitude>-68</longitude><woe_name>Antofagasta</woe_name><fips>CI03</fips><woe_label>Antofagasta Region, CL, Chile</woe_label><latitude>-23</latitude><iso_a2>CL</iso_a2><postal>AN</postal><type>Región</type><id>CL.AN</id></desc></path><path d="M653.341878777,226.240615272 L647.701886101,225.471525362 L642.830983336,215.216993225 L637.190990661,217.396081304 L636.037355796,220.600622597 L629.243728255,217.652444607 L628.731001648,212.012451932 L631.935542941,208.167002381 L634.755539279,193.297930782 L637.703717268,189.452481231 L636.806445706,181.377037173 L639.498260392,178.428859183 L641.677348471,161.380699506 L649.368247574,156.125251785 L666.416407251,154.458890313 L667.570042117,149.844350851 L674.876396264,148.177989379 L673.979124702,151.767075627 L677.055484344,163.303424281 L674.107306354,168.687053653 L678.593664164,176.506134408 L678.209119209,179.069767442 L674.235488006,181.120673869 L670.646401758,180.351583959 L664.750045779,195.092473906 L657.571873283,202.91155466 L655.264603552,215.216993225 L651.675517305,218.806079473 L653.341878777,226.240615272 Z" fill="#cee3f5" id="CL.AT" stroke="#6e6e6e" stroke-width="0.4"><desc><labelrank>3</labelrank><code_hasc>CL.AT</code_hasc><name>Atacama</name><admin>Chile</admin><type_en>Region</type_en><region /><woe_id>2345022</woe_id><longitude>-69</longitude><woe_name /><fips>CI05</fips><woe_label /><latitude>-27</latitude><iso_a2>CL</iso_a2><postal>AT</postal><type>Región</type><id>CL.AT</id></desc></path><path d="M653.341878777,226.240615272 L652.700970518,232.393334554 L654.751876946,234.700604285 L652.957333822,237.776963926 L649.752792529,237.648782274 L648.470976012,249.441494232 L645.266434719,250.595129097 L643.984618202,254.184215345 L645.522798022,263.285112617 L648.983702619,265.464200696 L646.932796191,267.25874382 L647.701886101,270.206921809 L638.216443875,266.105108954 L632.576451199,268.156015382 L631.679179637,267.771470427 L631.294634682,267.386925472 L630.910089727,267.515107123 L630.781908075,268.02783373 L629.62827321,270.206921809 L629.62827321,270.206921809 L626.423731917,240.596960264 L627.321003479,235.85423915 L631.038271379,234.572422633 L632.704632851,229.316974913 L632.063724593,220.985167552 L629.243728255,217.652444607 L636.037355796,220.600622597 L637.190990661,217.396081304 L642.830983336,215.216993225 L647.701886101,225.471525362 L653.341878777,226.240615272 Z" fill="#cee3f5" id="CL.CO" stroke="#6e6e6e" stroke-width="0.4"><desc><labelrank>3</labelrank><code_hasc>CL.CO</code_hasc><name>Coquimbo</name><admin>Chile</admin><type_en>Region</type_en><region /><woe_id>2345024</woe_id><longitude>-70</longitude><woe_name>Coquimbo</woe_name><fips>CI07</fips><woe_label>Coquimbo Region, CL, Chile</woe_label><latitude>-30</latitude><iso_a2>CL</iso_a2><postal>CO</postal><type>Región</type><id>CL.CO</id></desc></path><path d="M652.316425563,306.610510895 L646.548251236,299.945065006 L641.036440212,301.098699872 L637.447353964,305.200512727 L630.653726424,302.508698041 L629.243728255,302.765061344 L628.474638345,302.124153086 L627.961911738,301.867789782 L627.833730086,301.73960813 L627.833730086,301.611426479 L629.756454862,300.329609962 L629.884636513,300.20142831 L630.653726424,299.175975096 L632.320087896,298.406885186 L631.550997986,290.331441128 L637.190990661,285.075993408 L643.728254898,283.665995239 L645.522798022,285.332356711 L646.804614539,285.588720015 L647.958249405,287.126899835 L648.34279436,287.126899835 L651.290972349,284.947811756 L652.700970518,289.305987914 L654.880058597,288.408716352 L656.033693463,290.715986083 L654.239150339,297.637795276 L655.520966856,305.713239333 L652.316425563,306.610510895 Z" fill="#cee3f5" id="CL.RM" stroke="#6e6e6e" stroke-width="0.4"><desc><labelrank>7</labelrank><code_hasc>CL.RM</code_hasc><name>Región Metropolitana de Santiago</name><admin>Chile</admin><type_en>Region</type_en><region /><woe_id>2345029</woe_id><longitude>-70</longitude><woe_name>Región Metropolitana de Santiago</woe_name><fips>CI12</fips><woe_label>Santiago Metropolitan Region, CL, Chile</woe_label><latitude>-33</latitude><iso_a2>CL</iso_a2><postal>RM</postal><type>Región</type><id>CL.RM</id></desc></path><path d="M638.60098883,266.361472258 L647.701886101,270.206921809 L652.316425563,283.665995239 L648.34279436,287.126899835 L647.958249405,287.126899835 L646.804614539,285.588720015 L645.522798022,285.332356711 L643.728254898,283.665995239 L637.190990661,285.075993408 L631.550997986,290.331441128 L632.320087896,298.406885186 L630.653726424,299.175975096 L629.884636513,300.20142831 L629.756454862,300.329609962 L627.833730086,301.611426479 L627.577366783,301.483244827 L627.321003479,301.355063175 L627.192821828,301.355063175 L626.808276872,301.098699872 L626.551913569,301.226881524 L625.526460355,300.97051822 L625.654642007,300.585973265 L626.039186962,299.047793444 L626.423731917,298.150521882 L628.987364951,293.920527376 L626.680095221,286.229628273 L629.500091558,284.563266801 L631.166453031,278.53872917 L631.679179637,273.539644754 L629.62827321,270.206921809 L629.62827321,270.206921809 L630.781908075,268.02783373 L630.910089727,267.515107123 L631.294634682,267.386925472 L631.679179637,267.771470427 L632.576451199,268.156015382 L638.60098883,266.361472258 M2.43545138253,299.688701703 L0.128181651712,302.893242996 L0.0,299.945065006 L2.43545138253,299.688701703 Z" fill="#cee3f5" id="CL.VS" stroke="#6e6e6e" stroke-width="0.4"><desc><labelrank>3</labelrank><code_hasc>CL.VS</code_hasc><name>Valparaíso</name><admin>Chile</admin><type_en>Region</type_en><region /><woe_id>2345018</woe_id><longitude>-70</longitude><woe_name /><fips>CI01</fips><woe_label /><latitude>-32</latitude><iso_a2>CL</iso_a2><postal>VS</postal><type>Región</type><id>CL.VS</id></desc></path><path d="M639.626442044,374.931331258 L641.805530123,384.544955136 L634.627357627,388.518586339 L633.473722761,400.824024904 L631.935542941,401.080388207 L631.038271379,399.02948178 L630.525544772,398.516755173 L630.525544772,398.516755173 L630.39736312,398.388573521 L630.140999817,398.26039187 L629.62827321,398.388573521 L625.91100531,403.51583959 L621.681010804,403.51583959 L621.4246475,403.131294635 L620.911920894,402.490386376 L619.373741073,401.721296466 L613.605566746,401.336751511 L613.733748398,398.132210218 L613.733748398,397.747665263 L613.477385094,397.619483611 L612.451931881,397.363120308 L609.503753891,397.875846914 L609.888298846,394.414942318 L604.88921443,382.109503754 L608.478300678,381.85314045 L610.785570408,367.112250504 L618.604651163,367.368613807 L624.629188793,373.136788134 L629.756454862,373.649514741 L630.781908075,376.982237685 L635.396447537,373.649514741 L639.626442044,374.931331258 Z" fill="#cee3f5" id="CL.AR" stroke="#6e6e6e" stroke-width="0.4"><desc><labelrank>3</labelrank><code_hasc>CL.AR</code_hasc><name>La Araucanía</name><admin>Chile</admin><type_en>Region</type_en><region /><woe_id>2345021</woe_id><longitude>-72</longitude><woe_name>La Araucanía</woe_name><fips>CI04</fips><woe_label>Araucania Region, CL, Chile</woe_label><latitude>-38</latitude><iso_a2>CL</iso_a2><postal>AR</postal><type>Región</type><id>CL.AR</id></desc></path><path d="M613.861930049,401.336751511 L619.373741073,401.721296466 L620.911920894,402.490386376 L621.4246475,403.131294635 L621.681010804,403.51583959 L625.91100531,403.51583959 L629.62827321,398.388573521 L630.140999817,398.26039187 L630.39736312,398.388573521 L630.525544772,398.516755173 L630.525544772,398.516755173 L631.038271379,399.02948178 L631.679179637,400.824024904 L630.781908075,403.131294635 L632.191906244,406.335835927 L629.500091558,411.719465299 L631.550997986,413.642190075 L630.910089727,415.308551547 L630.012818165,415.308551547 L629.243728255,417.487639626 L629.115546603,417.615821278 L629.243728255,417.872184582 L628.731001648,418.51309284 L628.090093389,419.025819447 L626.423731917,419.794909357 L623.860098883,420.051272661 L620.271012635,420.179454312 L618.861014466,419.923091009 L617.707379601,419.28218275 L615.912836477,418.128547885 L615.40010987,417.74400293 L615.015564915,417.231276323 L614.374656656,415.564914851 L613.733748398,414.79582494 L611.041933712,414.924006592 L607.581029116,414.02673503 L604.632851126,414.283098334 L604.120124519,414.154916682 L603.735579564,414.02673503 L603.607397912,413.898553379 L603.479216261,413.898553379 L603.479216261,413.642190075 L603.479216261,413.514008423 L603.863761216,412.744918513 L603.607397912,412.104010255 L604.504669474,410.950375389 L603.735579564,408.514924007 L607.068302509,405.951290972 L608.221937374,407.104925838 L609.503753891,397.875846914 L612.451931881,397.363120308 L613.477385094,397.619483611 L613.733748398,397.747665263 L613.733748398,398.132210218 L613.605566746,398.773118476 L613.477385094,399.79857169 L613.349203443,400.824024904 L613.605566746,401.336751511 L613.861930049,401.336751511 Z" fill="#cee3f5" id="CL.2735" stroke="#6e6e6e" stroke-width="0.4"><desc><labelrank>3</labelrank><code_hasc>CL.AR</code_hasc><name>Los Ríos</name><admin>Chile</admin><type_en>Region</type_en><region /><woe_id>56043703</woe_id><longitude>-72</longitude><woe_name>Los Ríos</woe_name><fips>CI09</fips><woe_label>Los Rios Region, CL, Chile</woe_label><latitude>-40</latitude><iso_a2>CL</iso_a2><postal>AR</postal><type>Región</type><id>CL.2735</id></desc></path><path d="M639.626442044,374.931331258 L635.396447537,373.649514741 L630.781908075,376.982237685 L629.756454862,373.649514741 L624.629188793,373.136788134 L618.604651163,367.368613807 L610.785570408,367.112250504 L608.478300678,381.85314045 L604.88921443,382.109503754 L605.401941036,374.418604651 L602.325581395,368.778611976 L602.197399744,359.549533053 L608.221937374,358.652261491 L607.965574071,351.85863395 L609.119208936,348.654092657 L611.041933712,350.320454129 L613.092840139,339.296832082 L614.759201611,338.015015565 L617.963742904,339.040468779 L623.60373558,339.681377037 L623.860098883,339.681377037 L624.116462186,339.681377037 L627.833730086,341.091375206 L628.474638345,341.219556858 L628.8591833,341.347738509 L635.652810841,344.552279802 L636.165537447,344.424098151 L636.934627358,344.424098151 L637.319172313,344.295916499 L637.575535616,344.295916499 L637.83189892,344.295916499 L638.088262223,344.424098151 L638.216443875,344.552279802 L638.60098883,345.321369713 L638.857352133,345.577733016 L638.857352133,345.577733016 L638.472807178,349.295000916 L636.421900751,354.294085332 L636.678264054,359.934078008 L639.626442044,374.931331258 Z" fill="#cee3f5" id="CL.BI" stroke="#6e6e6e" stroke-width="0.4"><desc><labelrank>3</labelrank><code_hasc>CL.BI</code_hasc><name>Bío-Bío</name><admin>Chile</admin><type_en>Region</type_en><region /><woe_id>2345023</woe_id><longitude>-72</longitude><woe_name>Bío-Bío</woe_name><fips>CI06</fips><woe_label>Biobio Region, CL, Chile</woe_label><latitude>-36</latitude><iso_a2>CL</iso_a2><postal>BI</postal><type>Región</type><id>CL.BI</id></desc></path><path d="M652.316425563,306.610510895 L647.830067753,319.813221022 L636.165537447,316.352316426 L627.961911738,318.91594946 L622.578282366,315.711408167 L623.475553928,304.68778612 L625.526460355,300.97051822 L625.526460355,300.97051822 L625.526460355,300.97051822 L626.039186962,300.97051822 L626.167368614,300.97051822 L626.551913569,301.226881524 L626.808276872,301.098699872 L627.192821828,301.355063175 L627.321003479,301.355063175 L627.577366783,301.483244827 L627.833730086,301.611426479 L627.833730086,301.73960813 L627.961911738,301.867789782 L628.474638345,302.124153086 L629.243728255,302.765061344 L630.653726424,302.508698041 L637.447353964,305.200512727 L641.036440212,301.098699872 L646.548251236,299.945065006 L652.316425563,306.610510895 Z" fill="#cee3f5" id="CL.LI" stroke="#6e6e6e" stroke-width="0.4"><desc><labelrank>3</labelrank><code_hasc>CL.LI</code_hasc><name>Libertador General Bernardo O'Higgins</name><admin>Chile</admin><type_en>Region</type_en><region /><woe_id>2345025</woe_id><longitude>-71</longitude><woe_name>Libertador General Bernardo O'Higgins</woe_name><fips>CI08</fips><woe_label>O'Higgins Region, CL, Chile</woe_label><latitude>-34</latitude><iso_a2>CL</iso_a2><postal>LI</postal><type>Región</type><id>CL.LI</id></desc></path><path d="M602.325581395,441.201245193 L604.761032778,442.611243362 L608.221937374,441.329426845 L607.324665812,443.252151621 L610.401025453,448.635780992 L606.42739425,450.814869072 L607.452847464,453.250320454 L604.761032778,453.122138802 L609.37557224,458.633949826 L606.555575902,459.787584691 L609.631935543,463.633034243 L605.914667643,464.14576085 L607.581029116,468.375755356 L605.273759385,469.529390222 L597.967405237,466.709393884 L600.659219923,460.300311298 L599.890130013,449.404870903 L600.787401575,441.201245193 L602.325581395,441.201245193 M632.704632851,479.271195752 L627.833730086,477.733015931 L624.885552097,474.143929683 L622.193737411,475.041201245 L618.604651163,472.605749863 L615.912836477,474.400292987 L617.579197949,472.221204908 L614.887383263,469.785753525 L615.015564915,467.222120491 L617.579197949,461.710309467 L619.373741073,462.735762681 L617.322834646,453.634865409 L621.552829152,453.506683758 L617.322834646,448.635780992 L620.527375938,446.841237869 L622.962827321,451.327595678 L622.065555759,443.123969969 L618.476469511,444.021241531 L616.425563084,442.226698407 L623.988280535,437.22761399 L623.731917231,432.613074528 L620.399194287,438.509430507 L615.271928218,434.663980956 L612.195568577,440.175791979 L604.761032778,439.919428676 L608.093755722,435.561252518 L604.120124519,436.714887383 L601.812854789,428.511261674 L603.479216261,413.898553379 L603.607397912,413.898553379 L603.735579564,414.02673503 L604.120124519,414.154916682 L604.632851126,414.283098334 L607.581029116,414.02673503 L611.041933712,414.924006592 L613.733748398,414.79582494 L614.374656656,415.564914851 L615.015564915,417.231276323 L615.40010987,417.74400293 L615.912836477,418.128547885 L617.707379601,419.28218275 L618.861014466,419.923091009 L620.271012635,420.179454312 L626.423731917,419.794909357 L628.090093389,419.025819447 L628.731001648,418.51309284 L629.243728255,417.872184582 L629.371909907,418.000366233 L628.987364951,437.22761399 L631.679179637,444.662149789 L626.680095221,447.994872734 L626.936458524,461.069401209 L632.320087896,464.273942501 L629.62827321,468.760300311 L632.832814503,471.452114997 L632.704632851,479.271195752 Z" fill="#cee3f5" id="CL.LL" stroke="#6e6e6e" stroke-width="0.4"><desc><labelrank>3</labelrank><code_hasc>CL.LL</code_hasc><name>Los Lagos</name><admin>Chile</admin><type_en>Region</type_en><region /><woe_id>2345026</woe_id><longitude>-72</longitude><woe_name>Los Lagos</woe_name><fips>CI09</fips><woe_label>Los Lagos Region, CL, Chile</woe_label><latitude>-41</latitude><iso_a2>CL</iso_a2><postal>LL</postal><type>Región</type><id>CL.LL</id></desc></path><path d="M647.830067753,319.813221022 L644.881889764,323.915033877 L647.060977843,325.581395349 L647.958249405,337.758652261 L643.215528292,341.732283465 L643.215528292,344.295916499 L638.857352133,345.577733016 L638.857352133,345.577733016 L638.60098883,345.321369713 L638.216443875,344.552279802 L638.088262223,344.424098151 L637.83189892,344.295916499 L637.575535616,344.295916499 L637.319172313,344.295916499 L636.934627358,344.424098151 L636.165537447,344.424098151 L635.652810841,344.552279802 L628.8591833,341.347738509 L628.474638345,341.219556858 L627.833730086,341.091375206 L624.116462186,339.681377037 L623.860098883,339.681377037 L617.963742904,339.040468779 L614.759201611,338.015015565 L613.349203443,338.784105475 L616.16919978,333.656839407 L615.143746567,330.19593481 L620.911920894,321.992309101 L622.578282366,315.711408167 L627.961911738,318.91594946 L636.165537447,316.352316426 L647.830067753,319.813221022 Z" fill="#cee3f5" id="CL.ML" stroke="#6e6e6e" stroke-width="0.4"><desc><labelrank>3</labelrank><code_hasc>CL.ML</code_hasc><name>Maule</name><admin>Chile</admin><type_en>Region</type_en><region /><woe_id>2345028</woe_id><longitude>-71</longitude><woe_name>Maule</woe_name><fips>CI06</fips><woe_label>Maule Region, CL, Chile</woe_label><latitude>-35</latitude><iso_a2>CL</iso_a2><postal>ML</postal><type>Región</type><id>CL.ML</id></desc></path></svg>