<?xml version='1.0' encoding='utf-8'?>
<svg height="700" width="700" xmlns="http://www.w3.org/2000/svg"><path d="M628.54442344,241.824196597 L668.903591682,241.824196597 L672.873345936,257.041587902 L675.519848771,265.642722117 L667.580340265,267.627599244 L671.550094518,280.198487713 L665.595463138,282.844990548 L660.302457467,278.213610586 L661.625708885,272.258979206 L656.994328922,263.657844991 L651.039697543,257.703213611 L643.761814745,257.041587902 L640.4536862,251.748582231 L628.54442344,241.824196597 Z" fill="#cee3f5" id="US.NC.053" stroke="#6e6e6e" stroke-width="0.4"><desc><name>Currituck County</name><stateAbbrev>NC</stateAbbrev><state>North Carolina</state><fips>053</fips><incits>37053</incits><id>US.NC.053</id><population>24396</population></desc></path><path d="M649.054820416,311.29489603 L650.378071834,309.971644612 L652.36294896,292.769376181 L656.994328922,285.491493384 L665.595463138,282.844990548 L671.550094518,280.198487713 L667.580340265,267.627599244 L675.519848771,265.642722117 L678.827977316,272.920604915 L697.353497164,304.678638941 L700.0,316.587901701 L698.015122873,332.466918715 L694.04536862,347.684310019 L673.534971645,352.315689981 L660.964083176,310.633270321 L649.054820416,311.29489603 Z" fill="#cee3f5" id="US.NC.055" stroke="#6e6e6e" stroke-width="0.4"><desc><name>Dare County</name><stateAbbrev>NC</stateAbbrev><state>North Carolina</state><fips>055</fips><incits>37055</incits><id>US.NC.055</id><population>35019</population></desc></path><path d="M602.741020794,307.986767486 L621.266540643,308.648393195 L631.852551985,309.310018904 L629.206049149,315.264650284 L635.822306238,316.587901701 L639.130434783,308.648393195 L649.054820416,311.29489603 L660.964083176,310.633270321 L673.534971645,352.315689981 L660.302457467,357.608695652 L652.36294896,362.901701323 L652.36294896,358.93194707 L647.731568998,353.638941399 L631.190926276,346.361058601 L625.236294896,343.714555766 L617.958412098,337.759924386 L612.003780718,335.775047259 L606.710775047,327.835538752 L606.710775047,322.542533081 L612.665406427,322.542533081 L615.973534972,319.896030246 L608.695652174,315.926275992 L602.741020794,307.986767486 Z" fill="#cee3f5" id="US.NC.095" stroke="#6e6e6e" stroke-width="0.4"><desc><name>Hyde County</name><stateAbbrev>NC</stateAbbrev><state>North Carolina</state><fips>095</fips><incits>37095</incits><id>US.NC.095</id><population>5721</population></desc></path><path d="M557.75047259,265.642722117 L565.028355388,247.778827977 L567.013232514,244.470699433 L561.720226843,241.824196597 L580.907372401,242.485822306 L578.922495274,247.778827977 L579.584120983,253.733459357 L592.816635161,257.041587902 L598.109640832,261.672967864 L597.448015123,265.642722117 L576.937618147,266.304347826 L557.75047259,265.642722117 Z" fill="#cee3f5" id="US.NC.091" stroke="#6e6e6e" stroke-width="0.4"><desc><name>Hertford County</name><stateAbbrev>NC</stateAbbrev><state>North Carolina</state><fips>091</fips><incits>37091</incits><id>US.NC.091</id><population>24431</population></desc></path><path d="M608.695652174,257.041587902 L617.296786389,255.056710775 L623.251417769,263.657844991 L627.882797732,266.304347826 L640.4536862,280.198487713 L624.574669187,283.506616257 L621.928166352,282.844990548 L621.266540643,278.875236295 L608.034026465,276.228733459 L606.710775047,266.304347826 L608.695652174,257.041587902 Z" fill="#cee3f5" id="US.NC.143" stroke="#6e6e6e" stroke-width="0.4"><desc><name>Perquimans County</name><stateAbbrev>NC</stateAbbrev><state>North Carolina</state><fips>143</fips><incits>37143</incits><id>US.NC.143</id><population>13601</population></desc></path><path d="M610.680529301,241.824196597 L628.54442344,241.824196597 L640.4536862,251.748582231 L643.761814745,257.041587902 L651.039697543,257.703213611 L656.994328922,263.657844991 L661.625708885,272.258979206 L660.302457467,278.213610586 L651.701323251,276.890359168 L650.378071834,272.258979206 L642.438563327,263.657844991 L637.145557656,262.334593573 L634.49905482,255.718336484 L618.620037807,248.440453686 L614.650283554,245.132325142 L610.680529301,241.824196597 Z" fill="#cee3f5" id="US.NC.029" stroke="#6e6e6e" stroke-width="0.4"><desc><name>Camden County</name><stateAbbrev>NC</stateAbbrev><state>North Carolina</state><fips>029</fips><incits>37029</incits><id>US.NC.029</id><population>10187</population></desc></path><path d="M580.907372401,242.485822306 L610.680529301,241.824196597 L614.650283554,245.132325142 L617.296786389,255.056710775 L608.695652174,257.041587902 L598.109640832,261.672967864 L592.816635161,257.041587902 L579.584120983,253.733459357 L578.922495274,247.778827977 L580.907372401,242.485822306 Z" fill="#cee3f5" id="US.NC.073" stroke="#6e6e6e" stroke-width="0.4"><desc><name>Gates County</name><stateAbbrev>NC</stateAbbrev><state>North Carolina</state><fips>073</fips><incits>37073</incits><id>US.NC.073</id><population>11650</population></desc></path><path d="M614.650283554,245.132325142 L618.620037807,248.440453686 L634.49905482,255.718336484 L637.145557656,262.334593573 L642.438563327,263.657844991 L650.378071834,272.258979206 L651.701323251,276.890359168 L640.4536862,280.198487713 L627.882797732,266.304347826 L623.251417769,263.657844991 L617.296786389,255.056710775 L614.650283554,245.132325142 Z" fill="#cee3f5" id="US.NC.139" stroke="#6e6e6e" stroke-width="0.4"><desc><name>Pasquotank County</name><stateAbbrev>NC</stateAbbrev><state>North Carolina</state><fips>139</fips><incits>37139</incits><id>US.NC.139</id><population>39981</population></desc></path><path d="M548.487712665,278.875236295 L555.103969754,277.551984877 L551.134215501,271.597353497 L551.79584121,268.289224953 L557.75047259,265.642722117 L576.937618147,266.304347826 L597.448015123,265.642722117 L595.463137996,273.582230624 L597.448015123,280.198487713 L605.387523629,286.814744802 L598.771266541,288.799621928 L593.47826087,295.415879017 L583.553875236,299.38563327 L580.907372401,292.769376181 L574.291115312,296.077504726 L570.982986767,289.461247637 L559.735349716,290.122873346 L559.073724008,285.491493384 L548.487712665,278.875236295 Z" fill="#cee3f5" id="US.NC.015" stroke="#6e6e6e" stroke-width="0.4"><desc><name>Bertie County</name><stateAbbrev>NC</stateAbbrev><state>North Carolina</state><fips>015</fips><incits>37015</incits><id>US.NC.015</id><population>20344</population></desc></path><path d="M597.448015123,265.642722117 L598.109640832,261.672967864 L608.695652174,257.041587902 L606.710775047,266.304347826 L608.034026465,276.228733459 L621.266540643,278.875236295 L621.928166352,282.844990548 L612.003780718,286.814744802 L605.387523629,286.814744802 L597.448015123,280.198487713 L595.463137996,273.582230624 L597.448015123,265.642722117 Z" fill="#cee3f5" id="US.NC.041" stroke="#6e6e6e" stroke-width="0.4"><desc><name>Chowan County</name><stateAbbrev>NC</stateAbbrev><state>North Carolina</state><fips>041</fips><incits>37041</incits><id>US.NC.041</id><population>14726</population></desc></path><path d="M375.141776938,297.400756144 L375.141776938,292.769376181 L375.803402647,265.642722117 L375.803402647,264.981096408 L397.63705104,265.642722117 L396.975425331,291.446124764 L397.63705104,294.754253308 L398.960302457,297.400756144 L375.141776938,297.400756144 Z" fill="#cee3f5" id="US.NC.001" stroke="#6e6e6e" stroke-width="0.4"><desc><name>Alamance County</name><stateAbbrev>NC</stateAbbrev><state>North Carolina</state><fips>001</fips><incits>37001</incits><id>US.NC.001</id><population>154378</population></desc></path><path d="M234.877126654,284.829867675 L239.508506616,282.844990548 L258.034026465,281.52173913 L260.018903592,288.137996219 L257.372400756,296.077504726 L252.079395085,302.693761815 L249.43289225,298.724007561 L234.877126654,300.708884688 L233.553875236,290.784499055 L234.877126654,284.829867675 Z" fill="#cee3f5" id="US.NC.003" stroke="#6e6e6e" stroke-width="0.4"><desc><name>Alexander County</name><stateAbbrev>NC</stateAbbrev><state>North Carolina</state><fips>003</fips><incits>37003</incits><id>US.NC.003</id><population>36930</population></desc></path><path d="M232.892249527,239.839319471 L268.620037807,240.50094518 L262.665406427,249.763705104 L263.327032136,253.071833648 L258.695652174,255.056710775 L253.402646503,250.425330813 L242.155009452,255.718336484 L232.892249527,239.839319471 Z" fill="#cee3f5" id="US.NC.005" stroke="#6e6e6e" stroke-width="0.4"><desc><name>Alleghany County</name><stateAbbrev>NC</stateAbbrev><state>North Carolina</state><fips>005</fips><incits>37005</incits><id>US.NC.005</id><population>10939</population></desc></path><path d="M314.27221172,378.119092628 L316.918714556,347.684310019 L320.2268431,350.992438563 L326.843100189,349.669187146 L332.797731569,351.654064272 L339.413988658,356.947069943 L346.030245747,355.623818526 L350.661625709,370.179584121 L344.706994329,378.780718336 L314.27221172,378.119092628 Z" fill="#cee3f5" id="US.NC.007" stroke="#6e6e6e" stroke-width="0.4"><desc><name>Anson County</name><stateAbbrev>NC</stateAbbrev><state>North Carolina</state><fips>007</fips><incits>37007</incits><id>US.NC.007</id><population>26161</population></desc></path><path d="M232.892249527,239.839319471 L242.155009452,255.718336484 L235.538752363,255.056710775 L222.967863894,266.304347826 L210.396975425,257.041587902 L203.119092628,254.395085066 L205.765595463,248.440453686 L205.103969754,242.485822306 L207.75047259,238.516068053 L232.892249527,239.839319471 Z" fill="#cee3f5" id="US.NC.009" stroke="#6e6e6e" stroke-width="0.4"><desc><name>Ashe County</name><stateAbbrev>NC</stateAbbrev><state>North Carolina</state><fips>009</fips><incits>37009</incits><id>US.NC.009</id><population>27151</population></desc></path><path d="M175.992438563,276.890359168 L179.300567108,275.56710775 L188.563327032,262.334593573 L189.224952741,268.289224953 L195.179584121,271.597353497 L197.164461248,276.228733459 L202.457466919,279.536862004 L197.164461248,287.47637051 L189.224952741,284.829867675 L186.578449905,288.137996219 L183.93194707,292.107750473 L179.300567108,289.461247637 L175.992438563,276.890359168 Z" fill="#cee3f5" id="US.NC.011" stroke="#6e6e6e" stroke-width="0.4"><desc><name>Avery County</name><stateAbbrev>NC</stateAbbrev><state>North Carolina</state><fips>011</fips><incits>37011</incits><id>US.NC.011</id><population>17713</population></desc></path><path d="M561.058601134,306.001890359 L575.61436673,311.956521739 L586.862003781,307.986767486 L602.741020794,307.986767486 L608.695652174,315.926275992 L615.973534972,319.896030246 L612.665406427,322.542533081 L606.710775047,322.542533081 L606.710775047,327.835538752 L612.003780718,335.775047259 L604.725897921,337.759924386 L603.402646503,345.037807183 L586.862003781,346.361058601 L582.892249527,343.714555766 L577.599243856,339.744801512 L559.735349716,330.482041588 L560.396975425,322.542533081 L566.351606805,317.911153119 L561.058601134,313.279773157 L561.058601134,306.001890359 Z" fill="#cee3f5" id="US.NC.013" stroke="#6e6e6e" stroke-width="0.4"><desc><name>Beaufort County</name><stateAbbrev>NC</stateAbbrev><state>North Carolina</state><fips>013</fips><incits>37013</incits><id>US.NC.013</id><population>47464</population></desc></path><path d="M424.763705104,376.134215501 L431.379962193,374.810964083 L455.860113422,374.810964083 L456.52173913,374.149338374 L470.415879017,389.366729679 L475.708884688,398.629489603 L475.708884688,401.937618147 L482.325141777,405.245746692 L475.708884688,410.538752363 L469.754253308,413.185255198 L461.153119093,412.52362949 L443.289224953,404.584120983 L430.718336484,405.907372401 L428.071833648,403.922495274 L428.733459357,397.967863894 L432.703213611,388.70510397 L424.763705104,376.134215501 Z" fill="#cee3f5" id="US.NC.017" stroke="#6e6e6e" stroke-width="0.4"><desc><name>Bladen County</name><stateAbbrev>NC</stateAbbrev><state>North Carolina</state><fips>017</fips><incits>37017</incits><id>US.NC.017</id><population>34843</population></desc></path><path d="M482.986767486,413.846880907 L493.572778828,415.831758034 L499.527410208,423.771266541 L501.512287335,437.003780718 L500.189035917,444.281663516 L504.15879017,458.837429112 L498.865784499,461.483931947 L490.926275992,453.54442344 L475.708884688,452.221172023 L456.52173913,456.190926276 L445.274102079,446.266540643 L445.935727788,440.973534972 L451.890359168,437.665406427 L453.213610586,431.049149338 L457.183364839,428.402646503 L463.137996219,431.049149338 L466.446124764,425.756143667 L475.708884688,425.094517958 L482.986767486,413.846880907 Z" fill="#cee3f5" id="US.NC.019" stroke="#6e6e6e" stroke-width="0.4"><desc><name>Brunswick County</name><stateAbbrev>NC</stateAbbrev><state>North Carolina</state><fips>019</fips><incits>37019</incits><id>US.NC.019</id><population>115301</population></desc></path><path d="M112.47637051,309.971644612 L119.092627599,309.310018904 L142.24952741,300.047258979 L150.850661626,298.724007561 L160.775047259,307.986767486 L159.451795841,309.310018904 L162.098298677,319.234404537 L168.714555766,321.880907372 L164.083175803,321.880907372 L161.436672968,326.512287335 L156.143667297,323.865784499 L144.896030246,328.497164461 L132.325141777,328.497164461 L123.724007561,329.820415879 L119.092627599,326.512287335 L121.739130435,318.572778828 L112.47637051,309.971644612 Z" fill="#cee3f5" id="US.NC.021" stroke="#6e6e6e" stroke-width="0.4"><desc><name>Buncombe County</name><stateAbbrev>NC</stateAbbrev><state>North Carolina</state><fips>021</fips><incits>37021</incits><id>US.NC.021</id><population>247912</population></desc></path><path d="M186.578449905,288.137996219 L189.224952741,284.829867675 L197.164461248,287.47637051 L205.103969754,294.754253308 L213.70510397,298.724007561 L217.013232514,302.032136106 L225.61436673,302.032136106 L230.907372401,304.017013233 L218.998109641,318.572778828 L218.998109641,318.572778828 L205.765595463,317.911153119 L204.442344045,315.926275992 L195.84120983,317.911153119 L192.533081285,306.663516068 L182.608695652,300.047258979 L189.224952741,294.092627599 L186.578449905,288.137996219 Z" fill="#cee3f5" id="US.NC.023" stroke="#6e6e6e" stroke-width="0.4"><desc><name>Burke County</name><stateAbbrev>NC</stateAbbrev><state>North Carolina</state><fips>023</fips><incits>37023</incits><id>US.NC.023</id><population>89842</population></desc></path><path d="M277.221172023,323.865784499 L281.190926276,323.865784499 L316.257088847,323.865784499 L299.054820416,349.007561437 L295.746691871,347.02268431 L286.483931947,342.391304348 L279.867674858,329.820415879 L277.221172023,323.865784499 Z" fill="#cee3f5" id="US.NC.025" stroke="#6e6e6e" stroke-width="0.4"><desc><name>Cabarrus County</name><stateAbbrev>NC</stateAbbrev><state>North Carolina</state><fips>025</fips><incits>37025</incits><id>US.NC.025</id><population>187226</population></desc></path><path d="M197.164461248,276.228733459 L217.674858223,275.56710775 L228.260869565,278.875236295 L234.877126654,284.829867675 L233.553875236,290.784499055 L234.877126654,300.708884688 L230.907372401,304.017013233 L225.61436673,302.032136106 L217.013232514,302.032136106 L213.70510397,298.724007561 L205.103969754,294.754253308 L197.164461248,287.47637051 L202.457466919,279.536862004 L197.164461248,276.228733459 Z" fill="#cee3f5" id="US.NC.027" stroke="#6e6e6e" stroke-width="0.4"><desc><name>Caldwell County</name><stateAbbrev>NC</stateAbbrev><state>North Carolina</state><fips>027</fips><incits>37027</incits><id>US.NC.027</id><population>81990</population></desc></path><path d="M567.674858223,378.780718336 L577.599243856,378.119092628 L583.553875236,375.472589792 L593.47826087,375.472589792 L598.771266541,373.487712665 L601.417769376,368.194706994 L596.786389414,364.88657845 L631.190926276,346.361058601 L647.731568998,353.638941399 L652.36294896,358.93194707 L652.36294896,362.901701323 L651.039697543,362.901701323 L633.175803403,376.134215501 L623.251417769,385.396975425 L613.988657845,398.629489603 L607.372400756,398.629489603 L604.725897921,393.336483932 L598.771266541,391.351606805 L588.846880907,391.351606805 L574.291115312,393.336483932 L565.028355388,395.982986767 L566.351606805,389.366729679 L564.366729679,382.088846881 L561.720226843,380.103969754 L567.674858223,378.780718336 Z" fill="#cee3f5" id="US.NC.031" stroke="#6e6e6e" stroke-width="0.4"><desc><name>Carteret County</name><stateAbbrev>NC</stateAbbrev><state>North Carolina</state><fips>031</fips><incits>37031</incits><id>US.NC.031</id><population>68434</population></desc></path><path d="M375.803402647,264.981096408 L377.126654064,242.485822306 L406.238185255,242.485822306 L405.576559546,265.642722117 L397.63705104,265.642722117 L375.803402647,264.981096408 Z" fill="#cee3f5" id="US.NC.033" stroke="#6e6e6e" stroke-width="0.4"><desc><name>Caswell County</name><stateAbbrev>NC</stateAbbrev><state>North Carolina</state><fips>033</fips><incits>37033</incits><id>US.NC.033</id><population>23190</population></desc></path><path d="M218.998109641,318.572778828 L230.907372401,304.017013233 L234.877126654,300.708884688 L249.43289225,298.724007561 L252.079395085,302.693761815 L255.387523629,307.325141777 L261.342155009,308.648393195 L264.650283554,313.279773157 L263.988657845,320.557655955 L218.998109641,318.572778828 Z" fill="#cee3f5" id="US.NC.035" stroke="#6e6e6e" stroke-width="0.4"><desc><name>Catawba County</name><stateAbbrev>NC</stateAbbrev><state>North Carolina</state><fips>035</fips><incits>37035</incits><id>US.NC.035</id><population>154810</population></desc></path><path d="M373.81852552,322.542533081 L375.141776938,297.400756144 L398.960302457,297.400756144 L397.63705104,294.754253308 L416.162570888,295.415879017 L424.763705104,295.415879017 L418.147448015,315.264650284 L424.102079395,317.24952741 L419.470699433,322.542533081 L411.531190926,315.264650284 L407.561436673,313.941398866 L395.652173913,321.880907372 L390.359168242,322.542533081 L373.81852552,322.542533081 Z" fill="#cee3f5" id="US.NC.037" stroke="#6e6e6e" stroke-width="0.4"><desc><name>Chatham County</name><stateAbbrev>NC</stateAbbrev><state>North Carolina</state><fips>037</fips><incits>37037</incits><id>US.NC.037</id><population>66817</population></desc></path><path d="M23.156899811,340.406427221 L27.7882797732,346.361058601 L37.7126654064,343.052930057 L48.9603024575,343.714555766 L45.652173913,350.992438563 L35.7277882798,353.638941399 L24.4801512287,364.224952741 L0.0,364.224952741 L2.64650283554,345.699432892 L17.8638941399,343.714555766 L23.156899811,340.406427221 Z" fill="#cee3f5" id="US.NC.039" stroke="#6e6e6e" stroke-width="0.4"><desc><name>Cherokee County</name><stateAbbrev>NC</stateAbbrev><state>North Carolina</state><fips>039</fips><incits>37039</incits><id>US.NC.039</id><population>27218</population></desc></path><path d="M24.4801512287,364.224952741 L35.7277882798,353.638941399 L45.652173913,350.992438563 L52.2684310019,350.992438563 L65.5009451796,363.563327032 L54.9149338374,364.224952741 L24.4801512287,364.224952741 Z" fill="#cee3f5" id="US.NC.043" stroke="#6e6e6e" stroke-width="0.4"><desc><name>Clay County</name><stateAbbrev>NC</stateAbbrev><state>North Carolina</state><fips>043</fips><incits>37043</incits><id>US.NC.043</id><population>10584</population></desc></path><path d="M200.472589792,349.007561437 L205.765595463,335.11342155 L205.765595463,317.911153119 L218.998109641,318.572778828 L224.952741021,330.482041588 L232.892249527,337.098298677 L235.538752363,343.052930057 L234.877126654,350.330812854 L200.472589792,349.007561437 Z" fill="#cee3f5" id="US.NC.045" stroke="#6e6e6e" stroke-width="0.4"><desc><name>Cleveland County</name><stateAbbrev>NC</stateAbbrev><state>North Carolina</state><fips>045</fips><incits>37045</incits><id>US.NC.045</id><population>97047</population></desc></path><path d="M411.531190926,418.47826087 L421.45557656,405.907372401 L428.071833648,403.922495274 L430.718336484,405.907372401 L443.289224953,404.584120983 L461.153119093,412.52362949 L469.754253308,413.185255198 L475.708884688,410.538752363 L482.986767486,413.846880907 L475.708884688,425.094517958 L466.446124764,425.756143667 L463.137996219,431.049149338 L457.183364839,428.402646503 L453.213610586,431.049149338 L451.890359168,437.665406427 L445.935727788,440.973534972 L445.274102079,446.266540643 L411.531190926,418.47826087 Z" fill="#cee3f5" id="US.NC.047" stroke="#6e6e6e" stroke-width="0.4"><desc><name>Columbus County</name><stateAbbrev>NC</stateAbbrev><state>North Carolina</state><fips>047</fips><incits>37047</incits><id>US.NC.047</id><population>57246</population></desc></path><path d="M537.240075614,345.699432892 L539.224952741,339.744801512 L543.856332703,336.436672968 L559.735349716,330.482041588 L577.599243856,339.744801512 L582.892249527,343.714555766 L577.599243856,347.684310019 L579.584120983,354.962192817 L576.937618147,360.255198488 L582.892249527,364.88657845 L591.493383743,367.533081285 L596.786389414,364.88657845 L601.417769376,368.194706994 L598.771266541,373.487712665 L593.47826087,375.472589792 L583.553875236,375.472589792 L577.599243856,378.119092628 L567.674858223,378.780718336 L565.689981096,376.79584121 L566.351606805,361.578449905 L563.043478261,358.93194707 L537.240075614,345.699432892 Z" fill="#cee3f5" id="US.NC.049" stroke="#6e6e6e" stroke-width="0.4"><desc><name>Craven County</name><stateAbbrev>NC</stateAbbrev><state>North Carolina</state><fips>049</fips><incits>37049</incits><id>US.NC.049</id><population>104489</population></desc></path><path d="M409.5463138,349.669187146 L410.207939509,348.345935728 L426.748582231,345.037807183 L433.364839319,342.391304348 L447.258979206,344.376181474 L446.597353497,352.315689981 L443.289224953,356.285444234 L445.274102079,363.563327032 L456.52173913,374.149338374 L455.860113422,374.810964083 L431.379962193,374.810964083 L424.763705104,376.134215501 L421.45557656,370.179584121 L414.839319471,366.871455577 L410.207939509,360.255198488 L408.884688091,354.300567108 L409.5463138,349.669187146 Z" fill="#cee3f5" id="US.NC.051" stroke="#6e6e6e" stroke-width="0.4"><desc><name>Cumberland County</name><stateAbbrev>NC</stateAbbrev><state>North Carolina</state><fips>051</fips><incits>37051</incits><id>US.NC.051</id><population>325871</population></desc></path><path d="M307.655954631,286.814744802 L311.625708885,284.829867675 L322.211720227,284.829867675 L322.211720227,282.844990548 L335.444234405,284.168241966 L335.444234405,290.784499055 L334.120982987,323.865784499 L324.858223062,323.865784499 L322.873345936,317.911153119 L312.948960302,309.971644612 L303.024574669,304.678638941 L301.701323251,298.062381853 L309.640831758,290.122873346 L307.655954631,286.814744802 Z" fill="#cee3f5" id="US.NC.057" stroke="#6e6e6e" stroke-width="0.4"><desc><name>Davidson County</name><stateAbbrev>NC</stateAbbrev><state>North Carolina</state><fips>057</fips><incits>37057</incits><id>US.NC.057</id><population>163420</population></desc></path><path d="M283.837429112,296.739130435 L284.49905482,280.860113422 L299.716446125,280.860113422 L303.024574669,280.198487713 L307.655954631,286.814744802 L309.640831758,290.122873346 L301.701323251,298.062381853 L303.024574669,304.678638941 L293.761814745,298.724007561 L283.837429112,296.739130435 Z" fill="#cee3f5" id="US.NC.059" stroke="#6e6e6e" stroke-width="0.4"><desc><name>Davie County</name><stateAbbrev>NC</stateAbbrev><state>North Carolina</state><fips>059</fips><incits>37059</incits><id>US.NC.059</id><population>41554</population></desc></path><path d="M482.986767486,348.345935728 L492.24952741,348.345935728 L504.820415879,350.330812854 L508.790170132,349.669187146 L514.083175803,351.654064272 L517.391304348,362.901701323 L521.361058601,365.548204159 L523.345935728,369.517958412 L521.361058601,385.396975425 L486.956521739,385.396975425 L480.34026465,383.412098299 L484.310018904,370.84120983 L482.986767486,348.345935728 Z" fill="#cee3f5" id="US.NC.061" stroke="#6e6e6e" stroke-width="0.4"><desc><name>Duplin County</name><stateAbbrev>NC</stateAbbrev><state>North Carolina</state><fips>061</fips><incits>37061</incits><id>US.NC.061</id><population>60084</population></desc></path><path d="M416.162570888,295.415879017 L421.45557656,266.304347826 L433.364839319,266.304347826 L432.703213611,278.213610586 L437.334593573,279.536862004 L441.304347826,284.168241966 L436.672967864,291.446124764 L430.718336484,295.415879017 L424.763705104,295.415879017 L416.162570888,295.415879017 Z" fill="#cee3f5" id="US.NC.063" stroke="#6e6e6e" stroke-width="0.4"><desc><name>Durham County</name><stateAbbrev>NC</stateAbbrev><state>North Carolina</state><fips>063</fips><incits>37063</incits><id>US.NC.063</id><population>288133</population></desc></path><path d="M424.763705104,295.415879017 L430.718336484,295.415879017 L436.672967864,291.446124764 L441.304347826,284.168241966 L437.334593573,279.536862004 L441.965973535,278.875236295 L453.213610586,282.844990548 L462.47637051,286.153119093 L474.38563327,295.415879017 L475.708884688,299.38563327 L459.168241966,307.986767486 L440.642722117,322.542533081 L424.102079395,317.24952741 L418.147448015,315.264650284 L424.763705104,295.415879017 Z" fill="#cee3f5" id="US.NC.183" stroke="#6e6e6e" stroke-width="0.4"><desc><name>Wake County</name><stateAbbrev>NC</stateAbbrev><state>North Carolina</state><fips>183</fips><incits>37183</incits><id>US.NC.183</id><population>974289</population></desc></path><path d="M509.451795841,295.415879017 L513.421550095,284.168241966 L519.376181474,272.920604915 L532.608695652,278.213610586 L533.270321361,282.183364839 L542.533081285,284.168241966 L547.826086957,292.107750473 L547.164461248,299.38563327 L543.856332703,298.062381853 L522.02268431,310.633270321 L518.052930057,306.001890359 L515.406427221,298.724007561 L509.451795841,295.415879017 Z" fill="#cee3f5" id="US.NC.065" stroke="#6e6e6e" stroke-width="0.4"><desc><name>Edgecombe County</name><stateAbbrev>NC</stateAbbrev><state>North Carolina</state><fips>065</fips><incits>37065</incits><id>US.NC.065</id><population>55574</population></desc></path><path d="M303.024574669,265.642722117 L303.024574669,264.319470699 L336.105860113,264.981096408 L335.444234405,284.168241966 L322.211720227,282.844990548 L322.211720227,284.829867675 L311.625708885,284.829867675 L307.655954631,286.814744802 L303.024574669,280.198487713 L299.716446125,280.860113422 L298.393194707,277.551984877 L304.347826087,274.243856333 L303.024574669,265.642722117 Z" fill="#cee3f5" id="US.NC.067" stroke="#6e6e6e" stroke-width="0.4"><desc><name>Forsyth County</name><stateAbbrev>NC</stateAbbrev><state>North Carolina</state><fips>067</fips><incits>37067</incits><id>US.NC.067</id><population>361220</population></desc></path><path d="M453.213610586,282.844990548 L453.213610586,278.213610586 L456.52173913,270.935727788 L463.799621928,271.597353497 L465.784499055,266.304347826 L471.739130435,263.657844991 L485.633270321,265.642722117 L494.896030246,268.950850662 L484.310018904,284.829867675 L475.708884688,299.38563327 L474.38563327,295.415879017 L462.47637051,286.153119093 L453.213610586,282.844990548 Z" fill="#cee3f5" id="US.NC.069" stroke="#6e6e6e" stroke-width="0.4"><desc><name>Franklin County</name><stateAbbrev>NC</stateAbbrev><state>North Carolina</state><fips>069</fips><incits>37069</incits><id>US.NC.069</id><population>62260</population></desc></path><path d="M224.952741021,330.482041588 L263.988657845,331.805293006 L265.311909263,335.775047259 L259.357277883,340.406427221 L260.018903592,350.992438563 L258.034026465,351.654064272 L234.877126654,350.330812854 L235.538752363,343.052930057 L232.892249527,337.098298677 L224.952741021,330.482041588 Z" fill="#cee3f5" id="US.NC.071" stroke="#6e6e6e" stroke-width="0.4"><desc><name>Gaston County</name><stateAbbrev>NC</stateAbbrev><state>North Carolina</state><fips>071</fips><incits>37071</incits><id>US.NC.071</id><population>209420</population></desc></path><path d="M28.449905482,327.173913043 L41.0207939509,327.835538752 L58.2230623819,331.143667297 L50.2835538752,341.729678639 L48.9603024575,343.714555766 L37.7126654064,343.052930057 L27.7882797732,346.361058601 L23.156899811,340.406427221 L23.8185255198,331.805293006 L28.449905482,327.173913043 Z" fill="#cee3f5" id="US.NC.075" stroke="#6e6e6e" stroke-width="0.4"><desc><name>Graham County</name><stateAbbrev>NC</stateAbbrev><state>North Carolina</state><fips>075</fips><incits>37075</incits><id>US.NC.075</id><population>8736</population></desc></path><path d="M433.364839319,266.304347826 L433.364839319,242.485822306 L460.491493384,242.485822306 L455.860113422,249.102079395 L455.860113422,270.274102079 L456.52173913,270.935727788 L453.213610586,278.213610586 L453.213610586,282.844990548 L441.965973535,278.875236295 L437.334593573,279.536862004 L432.703213611,278.213610586 L433.364839319,266.304347826 Z" fill="#cee3f5" id="US.NC.077" stroke="#6e6e6e" stroke-width="0.4"><desc><name>Granville County</name><stateAbbrev>NC</stateAbbrev><state>North Carolina</state><fips>077</fips><incits>37077</incits><id>US.NC.077</id><population>58275</population></desc></path><path d="M510.11342155,318.572778828 L519.376181474,311.956521739 L526.654064272,318.572778828 L534.593572779,323.865784499 L537.240075614,329.820415879 L524.669187146,335.775047259 L519.376181474,333.128544423 L511.436672968,334.451795841 L509.451795841,329.15879017 L510.11342155,318.572778828 Z" fill="#cee3f5" id="US.NC.079" stroke="#6e6e6e" stroke-width="0.4"><desc><name>Greene County</name><stateAbbrev>NC</stateAbbrev><state>North Carolina</state><fips>079</fips><incits>37079</incits><id>US.NC.079</id><population>21232</population></desc></path><path d="M335.444234405,290.784499055 L335.444234405,284.168241966 L336.105860113,264.981096408 L375.803402647,265.642722117 L375.141776938,292.769376181 L335.444234405,290.784499055 Z" fill="#cee3f5" id="US.NC.081" stroke="#6e6e6e" stroke-width="0.4"><desc><name>Guilford County</name><stateAbbrev>NC</stateAbbrev><state>North Carolina</state><fips>081</fips><incits>37081</incits><id>US.NC.081</id><population>506610</population></desc></path><path d="M494.896030246,268.950850662 L500.189035917,261.672967864 L503.497164461,244.470699433 L515.406427221,247.117202268 L524.007561437,247.117202268 L530.623818526,252.41020794 L528.638941399,257.041587902 L531.285444234,261.011342155 L539.88657845,259.688090737 L543.856332703,268.289224953 L551.134215501,271.597353497 L555.103969754,277.551984877 L548.487712665,278.875236295 L542.533081285,284.168241966 L533.270321361,282.183364839 L532.608695652,278.213610586 L519.376181474,272.920604915 L504.820415879,273.582230624 L494.896030246,268.950850662 Z" fill="#cee3f5" id="US.NC.083" stroke="#6e6e6e" stroke-width="0.4"><desc><name>Halifax County</name><stateAbbrev>NC</stateAbbrev><state>North Carolina</state><fips>083</fips><incits>37083</incits><id>US.NC.083</id><population>53453</population></desc></path><path d="M402.930056711,339.083175803 L419.470699433,322.542533081 L424.102079395,317.24952741 L440.642722117,322.542533081 L443.950850662,324.527410208 L453.875236295,338.421550095 L447.258979206,344.376181474 L433.364839319,342.391304348 L426.748582231,345.037807183 L410.207939509,348.345935728 L400.283553875,342.391304348 L402.930056711,339.083175803 Z" fill="#cee3f5" id="US.NC.085" stroke="#6e6e6e" stroke-width="0.4"><desc><name>Harnett County</name><stateAbbrev>NC</stateAbbrev><state>North Carolina</state><fips>085</fips><incits>37085</incits><id>US.NC.085</id><population>124987</population></desc></path><path d="M106.52173913,301.370510397 L112.47637051,309.971644612 L121.739130435,318.572778828 L119.092627599,326.512287335 L123.724007561,329.820415879 L117.107750473,337.759924386 L109.829867675,340.406427221 L99.2438563327,329.820415879 L89.9810964083,322.542533081 L89.3194706994,310.633270321 L83.3648393195,308.648393195 L91.3043478261,303.355387524 L97.258979206,301.370510397 L106.52173913,301.370510397 Z" fill="#cee3f5" id="US.NC.087" stroke="#6e6e6e" stroke-width="0.4"><desc><name>Haywood County</name><stateAbbrev>NC</stateAbbrev><state>North Carolina</state><fips>087</fips><incits>37087</incits><id>US.NC.087</id><population>59183</population></desc></path><path d="M123.724007561,329.820415879 L132.325141777,328.497164461 L144.896030246,328.497164461 L156.143667297,323.865784499 L161.436672968,326.512287335 L161.436672968,332.466918715 L154.820415879,341.06805293 L154.15879017,348.345935728 L144.234404537,349.669187146 L136.956521739,351.654064272 L134.310018904,341.06805293 L123.724007561,329.820415879 Z" fill="#cee3f5" id="US.NC.089" stroke="#6e6e6e" stroke-width="0.4"><desc><name>Henderson County</name><stateAbbrev>NC</stateAbbrev><state>North Carolina</state><fips>089</fips><incits>37089</incits><id>US.NC.089</id><population>109540</population></desc></path><path d="M381.096408318,360.255198488 L390.359168242,350.992438563 L397.63705104,347.02268431 L407.561436673,350.330812854 L409.5463138,349.669187146 L408.884688091,354.300567108 L410.207939509,360.255198488 L414.839319471,366.871455577 L402.930056711,376.134215501 L390.359168242,376.134215501 L389.035916824,367.533081285 L381.096408318,360.255198488 Z" fill="#cee3f5" id="US.NC.093" stroke="#6e6e6e" stroke-width="0.4"><desc><name>Hoke County</name><stateAbbrev>NC</stateAbbrev><state>North Carolina</state><fips>093</fips><incits>37093</incits><id>US.NC.093</id><population>51322</population></desc></path><path d="M252.079395085,302.693761815 L257.372400756,296.077504726 L260.018903592,288.137996219 L258.034026465,281.52173913 L269.943289225,280.198487713 L284.49905482,280.860113422 L283.837429112,296.739130435 L278.54442344,310.633270321 L281.190926276,323.865784499 L277.221172023,323.865784499 L267.958412098,323.20415879 L264.650283554,325.189035917 L263.988657845,320.557655955 L264.650283554,313.279773157 L261.342155009,308.648393195 L255.387523629,307.325141777 L252.079395085,302.693761815 Z" fill="#cee3f5" id="US.NC.097" stroke="#6e6e6e" stroke-width="0.4"><desc><name>Iredell County</name><stateAbbrev>NC</stateAbbrev><state>North Carolina</state><fips>097</fips><incits>37097</incits><id>US.NC.097</id><population>164517</population></desc></path><path d="M89.9810964083,322.542533081 L99.2438563327,329.820415879 L109.829867675,340.406427221 L109.168241966,345.037807183 L104.536862004,348.345935728 L105.198487713,352.315689981 L99.9054820416,357.608695652 L103.213610586,360.916824197 L95.2741020794,363.563327032 L91.965973535,356.947069943 L82.0415879017,345.037807183 L77.4102079395,337.098298677 L76.0869565217,326.512287335 L85.3497164461,321.880907372 L89.9810964083,322.542533081 Z" fill="#cee3f5" id="US.NC.099" stroke="#6e6e6e" stroke-width="0.4"><desc><name>Jackson County</name><stateAbbrev>NC</stateAbbrev><state>North Carolina</state><fips>099</fips><incits>37099</incits><id>US.NC.099</id><population>40919</population></desc></path><path d="M440.642722117,322.542533081 L459.168241966,307.986767486 L475.708884688,299.38563327 L481.001890359,306.001890359 L485.633270321,315.926275992 L490.926275992,317.24952741 L483.648393195,330.482041588 L482.986767486,335.775047259 L473.062381853,339.083175803 L472.400756144,341.06805293 L463.799621928,343.052930057 L457.183364839,342.391304348 L453.875236295,338.421550095 L443.950850662,324.527410208 L440.642722117,322.542533081 Z" fill="#cee3f5" id="US.NC.101" stroke="#6e6e6e" stroke-width="0.4"><desc><name>Johnston County</name><stateAbbrev>NC</stateAbbrev><state>North Carolina</state><fips>101</fips><incits>37101</incits><id>US.NC.101</id><population>177967</population></desc></path><path d="M517.391304348,362.901701323 L527.315689981,357.608695652 L534.593572779,350.330812854 L537.240075614,345.699432892 L563.043478261,358.93194707 L566.351606805,361.578449905 L565.689981096,376.79584121 L567.674858223,378.780718336 L561.720226843,380.103969754 L553.780718336,368.856332703 L544.517958412,370.179584121 L535.255198488,365.548204159 L524.007561437,364.88657845 L521.361058601,365.548204159 L517.391304348,362.901701323 Z" fill="#cee3f5" id="US.NC.103" stroke="#6e6e6e" stroke-width="0.4"><desc><name>Jones County</name><stateAbbrev>NC</stateAbbrev><state>North Carolina</state><fips>103</fips><incits>37103</incits><id>US.NC.103</id><population>10215</population></desc></path><path d="M390.359168242,322.542533081 L395.652173913,321.880907372 L407.561436673,313.941398866 L411.531190926,315.264650284 L419.470699433,322.542533081 L402.930056711,339.083175803 L397.63705104,336.436672968 L389.035916824,325.850661626 L390.359168242,322.542533081 Z" fill="#cee3f5" id="US.NC.105" stroke="#6e6e6e" stroke-width="0.4"><desc><name>Lee County</name><stateAbbrev>NC</stateAbbrev><state>North Carolina</state><fips>105</fips><incits>37105</incits><id>US.NC.105</id><population>60266</population></desc></path><path d="M508.790170132,349.669187146 L510.11342155,336.436672968 L511.436672968,334.451795841 L519.376181474,333.128544423 L524.669187146,335.775047259 L537.240075614,329.820415879 L543.856332703,336.436672968 L539.224952741,339.744801512 L537.240075614,345.699432892 L534.593572779,350.330812854 L527.315689981,357.608695652 L517.391304348,362.901701323 L514.083175803,351.654064272 L508.790170132,349.669187146 Z" fill="#cee3f5" id="US.NC.107" stroke="#6e6e6e" stroke-width="0.4"><desc><name>Lenoir County</name><stateAbbrev>NC</stateAbbrev><state>North Carolina</state><fips>107</fips><incits>37107</incits><id>US.NC.107</id><population>58914</population></desc></path><path d="M218.998109641,318.572778828 L218.998109641,318.572778828 L263.988657845,320.557655955 L264.650283554,325.189035917 L263.988657845,331.805293006 L224.952741021,330.482041588 L218.998109641,318.572778828 Z" fill="#cee3f5" id="US.NC.109" stroke="#6e6e6e" stroke-width="0.4"><desc><name>Lincoln County</name><stateAbbrev>NC</stateAbbrev><state>North Carolina</state><fips>109</fips><incits>37109</incits><id>US.NC.109</id><population>79740</population></desc></path><path d="M45.652173913,350.992438563 L48.9603024575,343.714555766 L50.2835538752,341.729678639 L67.4858223062,339.744801512 L77.4102079395,337.098298677 L82.0415879017,345.037807183 L91.965973535,356.947069943 L95.2741020794,363.563327032 L65.5009451796,363.563327032 L52.2684310019,350.992438563 L45.652173913,350.992438563 Z" fill="#cee3f5" id="US.NC.113" stroke="#6e6e6e" stroke-width="0.4"><desc><name>Macon County</name><stateAbbrev>NC</stateAbbrev><state>North Carolina</state><fips>113</fips><incits>37113</incits><id>US.NC.113</id><population>33857</population></desc></path><path d="M106.52173913,301.370510397 L111.153119093,294.754253308 L111.814744802,289.461247637 L117.107750473,290.122873346 L120.415879017,286.153119093 L132.325141777,279.536862004 L135.633270321,282.844990548 L134.310018904,287.47637051 L142.911153119,286.814744802 L143.572778828,291.446124764 L147.542533081,292.769376181 L150.850661626,298.724007561 L142.24952741,300.047258979 L119.092627599,309.310018904 L112.47637051,309.971644612 L106.52173913,301.370510397 Z" fill="#cee3f5" id="US.NC.115" stroke="#6e6e6e" stroke-width="0.4"><desc><name>Madison County</name><stateAbbrev>NC</stateAbbrev><state>North Carolina</state><fips>115</fips><incits>37115</incits><id>US.NC.115</id><population>21022</population></desc></path><path d="M542.533081285,284.168241966 L548.487712665,278.875236295 L559.073724008,285.491493384 L559.735349716,290.122873346 L570.982986767,289.461247637 L574.291115312,296.077504726 L580.907372401,292.769376181 L583.553875236,299.38563327 L593.47826087,295.415879017 L586.862003781,307.986767486 L575.61436673,311.956521739 L561.058601134,306.001890359 L554.442344045,301.370510397 L547.164461248,299.38563327 L547.826086957,292.107750473 L542.533081285,284.168241966 Z" fill="#cee3f5" id="US.NC.117" stroke="#6e6e6e" stroke-width="0.4"><desc><name>Martin County</name><stateAbbrev>NC</stateAbbrev><state>North Carolina</state><fips>117</fips><incits>37117</incits><id>US.NC.117</id><population>23699</population></desc></path><path d="M160.775047259,307.986767486 L165.406427221,306.663516068 L172.02268431,298.724007561 L183.93194707,293.43100189 L183.93194707,292.107750473 L186.578449905,288.137996219 L189.224952741,294.092627599 L182.608695652,300.047258979 L192.533081285,306.663516068 L195.84120983,317.911153119 L193.856332703,321.219281664 L184.593572779,321.880907372 L168.714555766,321.880907372 L162.098298677,319.234404537 L159.451795841,309.310018904 L160.775047259,307.986767486 Z" fill="#cee3f5" id="US.NC.111" stroke="#6e6e6e" stroke-width="0.4"><desc><name>McDowell County</name><stateAbbrev>NC</stateAbbrev><state>North Carolina</state><fips>111</fips><incits>37111</incits><id>US.NC.111</id><population>44961</population></desc></path><path d="M258.034026465,351.654064272 L260.018903592,350.992438563 L259.357277883,340.406427221 L265.311909263,335.775047259 L263.988657845,331.805293006 L264.650283554,325.189035917 L267.958412098,323.20415879 L277.221172023,323.865784499 L279.867674858,329.820415879 L286.483931947,342.391304348 L295.746691871,347.02268431 L279.206049149,360.255198488 L273.251417769,362.901701323 L265.973534972,354.962192817 L257.372400756,359.593572779 L258.034026465,351.654064272 Z" fill="#cee3f5" id="US.NC.119" stroke="#6e6e6e" stroke-width="0.4"><desc><name>Mecklenburg County</name><stateAbbrev>NC</stateAbbrev><state>North Carolina</state><fips>119</fips><incits>37119</incits><id>US.NC.119</id><population>990977</population></desc></path><path d="M149.527410208,278.875236295 L154.15879017,275.56710775 L170.699432892,272.920604915 L175.992438563,276.890359168 L179.300567108,289.461247637 L183.93194707,292.107750473 L183.93194707,293.43100189 L172.02268431,298.724007561 L170.699432892,290.122873346 L163.421550095,284.829867675 L149.527410208,278.875236295 Z" fill="#cee3f5" id="US.NC.121" stroke="#6e6e6e" stroke-width="0.4"><desc><name>Mitchell County</name><stateAbbrev>NC</stateAbbrev><state>North Carolina</state><fips>121</fips><incits>37121</incits><id>US.NC.121</id><population>15328</population></desc></path><path d="M324.858223062,323.865784499 L334.120982987,323.865784499 L357.939508507,323.20415879 L361.90926276,340.406427221 L365.879017013,348.345935728 L369.187145558,350.330812854 L350.661625709,349.007561437 L347.353497164,350.992438563 L332.797731569,351.654064272 L331.474480151,344.376181474 L334.120982987,335.11342155 L330.151228733,327.173913043 L324.858223062,323.865784499 Z" fill="#cee3f5" id="US.NC.123" stroke="#6e6e6e" stroke-width="0.4"><desc><name>Montgomery County</name><stateAbbrev>NC</stateAbbrev><state>North Carolina</state><fips>123</fips><incits>37123</incits><id>US.NC.123</id><population>27571</population></desc></path><path d="M357.939508507,323.20415879 L373.81852552,322.542533081 L390.359168242,322.542533081 L389.035916824,325.850661626 L397.63705104,336.436672968 L402.930056711,339.083175803 L400.283553875,342.391304348 L410.207939509,348.345935728 L409.5463138,349.669187146 L407.561436673,350.330812854 L397.63705104,347.02268431 L390.359168242,350.992438563 L381.096408318,360.255198488 L372.495274102,358.270321361 L369.187145558,350.330812854 L365.879017013,348.345935728 L361.90926276,340.406427221 L357.939508507,323.20415879 Z" fill="#cee3f5" id="US.NC.125" stroke="#6e6e6e" stroke-width="0.4"><desc><name>Moore County</name><stateAbbrev>NC</stateAbbrev><state>North Carolina</state><fips>125</fips><incits>37125</incits><id>US.NC.125</id><population>91587</population></desc></path><path d="M475.708884688,299.38563327 L484.310018904,284.829867675 L494.896030246,268.950850662 L504.820415879,273.582230624 L519.376181474,272.920604915 L513.421550095,284.168241966 L509.451795841,295.415879017 L481.001890359,306.001890359 L475.708884688,299.38563327 Z" fill="#cee3f5" id="US.NC.127" stroke="#6e6e6e" stroke-width="0.4"><desc><name>Nash County</name><stateAbbrev>NC</stateAbbrev><state>North Carolina</state><fips>127</fips><incits>37127</incits><id>US.NC.127</id><population>95093</population></desc></path><path d="M493.572778828,415.831758034 L498.865784499,412.52362949 L510.775047259,413.846880907 L521.361058601,421.786389414 L512.759924386,431.710775047 L504.15879017,452.882797732 L504.15879017,458.837429112 L500.189035917,444.281663516 L501.512287335,437.003780718 L499.527410208,423.771266541 L493.572778828,415.831758034 Z" fill="#cee3f5" id="US.NC.129" stroke="#6e6e6e" stroke-width="0.4"><desc><name>New Hanover County</name><stateAbbrev>NC</stateAbbrev><state>North Carolina</state><fips>129</fips><incits>37129</incits><id>US.NC.129</id><population>213267</population></desc></path><path d="M503.497164461,241.824196597 L561.720226843,241.824196597 L567.013232514,244.470699433 L565.028355388,247.778827977 L557.75047259,265.642722117 L551.79584121,268.289224953 L551.134215501,271.597353497 L543.856332703,268.289224953 L539.88657845,259.688090737 L531.285444234,261.011342155 L528.638941399,257.041587902 L530.623818526,252.41020794 L524.007561437,247.117202268 L515.406427221,247.117202268 L503.497164461,244.470699433 L503.497164461,241.824196597 Z" fill="#cee3f5" id="US.NC.131" stroke="#6e6e6e" stroke-width="0.4"><desc><name>Northampton County</name><stateAbbrev>NC</stateAbbrev><state>North Carolina</state><fips>131</fips><incits>37131</incits><id>US.NC.131</id><population>20839</population></desc></path><path d="M521.361058601,385.396975425 L523.345935728,369.517958412 L521.361058601,365.548204159 L524.007561437,364.88657845 L535.255198488,365.548204159 L544.517958412,370.179584121 L553.780718336,368.856332703 L561.720226843,380.103969754 L564.366729679,382.088846881 L566.351606805,389.366729679 L565.028355388,395.982986767 L551.134215501,403.260869565 L536.578449905,410.538752363 L529.300567108,403.922495274 L521.361058601,385.396975425 Z" fill="#cee3f5" id="US.NC.133" stroke="#6e6e6e" stroke-width="0.4"><desc><name>Onslow County</name><stateAbbrev>NC</stateAbbrev><state>North Carolina</state><fips>133</fips><incits>37133</incits><id>US.NC.133</id><population>185220</population></desc></path><path d="M397.63705104,265.642722117 L405.576559546,265.642722117 L421.45557656,266.304347826 L416.162570888,295.415879017 L397.63705104,294.754253308 L396.975425331,291.446124764 L397.63705104,265.642722117 Z" fill="#cee3f5" id="US.NC.135" stroke="#6e6e6e" stroke-width="0.4"><desc><name>Orange County</name><stateAbbrev>NC</stateAbbrev><state>North Carolina</state><fips>135</fips><incits>37135</incits><id>US.NC.135</id><population>140352</population></desc></path><path d="M582.892249527,343.714555766 L586.862003781,346.361058601 L603.402646503,345.037807183 L604.725897921,337.759924386 L612.003780718,335.775047259 L617.958412098,337.759924386 L625.236294896,343.714555766 L631.190926276,346.361058601 L596.786389414,364.88657845 L591.493383743,367.533081285 L582.892249527,364.88657845 L576.937618147,360.255198488 L579.584120983,354.962192817 L577.599243856,347.684310019 L582.892249527,343.714555766 Z" fill="#cee3f5" id="US.NC.137" stroke="#6e6e6e" stroke-width="0.4"><desc><name>Pamlico County</name><stateAbbrev>NC</stateAbbrev><state>North Carolina</state><fips>137</fips><incits>37137</incits><id>US.NC.137</id><population>12953</population></desc></path><path d="M475.708884688,398.629489603 L486.956521739,385.396975425 L521.361058601,385.396975425 L529.300567108,403.922495274 L536.578449905,410.538752363 L521.361058601,421.786389414 L510.775047259,413.846880907 L498.865784499,412.52362949 L493.572778828,415.831758034 L482.986767486,413.846880907 L475.708884688,410.538752363 L482.325141777,405.245746692 L475.708884688,401.937618147 L475.708884688,398.629489603 Z" fill="#cee3f5" id="US.NC.141" stroke="#6e6e6e" stroke-width="0.4"><desc><name>Pender County</name><stateAbbrev>NC</stateAbbrev><state>North Carolina</state><fips>141</fips><incits>37141</incits><id>US.NC.141</id><population>55334</population></desc></path><path d="M405.576559546,265.642722117 L406.238185255,242.485822306 L433.364839319,242.485822306 L433.364839319,266.304347826 L421.45557656,266.304347826 L405.576559546,265.642722117 Z" fill="#cee3f5" id="US.NC.145" stroke="#6e6e6e" stroke-width="0.4"><desc><name>Person County</name><stateAbbrev>NC</stateAbbrev><state>North Carolina</state><fips>145</fips><incits>37145</incits><id>US.NC.145</id><population>39276</population></desc></path><path d="M519.376181474,311.956521739 L522.02268431,310.633270321 L543.856332703,298.062381853 L547.164461248,299.38563327 L554.442344045,301.370510397 L561.058601134,306.001890359 L561.058601134,313.279773157 L566.351606805,317.911153119 L560.396975425,322.542533081 L559.735349716,330.482041588 L543.856332703,336.436672968 L537.240075614,329.820415879 L534.593572779,323.865784499 L526.654064272,318.572778828 L519.376181474,311.956521739 Z" fill="#cee3f5" id="US.NC.147" stroke="#6e6e6e" stroke-width="0.4"><desc><name>Pitt County</name><stateAbbrev>NC</stateAbbrev><state>North Carolina</state><fips>147</fips><incits>37147</incits><id>US.NC.147</id><population>174263</population></desc></path><path d="M161.436672968,332.466918715 L172.02268431,332.466918715 L184.593572779,343.714555766 L184.593572779,348.345935728 L160.775047259,347.684310019 L154.15879017,348.345935728 L154.820415879,341.06805293 L161.436672968,332.466918715 Z" fill="#cee3f5" id="US.NC.149" stroke="#6e6e6e" stroke-width="0.4"><desc><name>Polk County</name><stateAbbrev>NC</stateAbbrev><state>North Carolina</state><fips>149</fips><incits>37149</incits><id>US.NC.149</id><population>20411</population></desc></path><path d="M334.120982987,323.865784499 L335.444234405,290.784499055 L375.141776938,292.769376181 L375.141776938,297.400756144 L373.81852552,322.542533081 L357.939508507,323.20415879 L334.120982987,323.865784499 Z" fill="#cee3f5" id="US.NC.151" stroke="#6e6e6e" stroke-width="0.4"><desc><name>Randolph County</name><stateAbbrev>NC</stateAbbrev><state>North Carolina</state><fips>151</fips><incits>37151</incits><id>US.NC.151</id><population>142577</population></desc></path><path d="M332.797731569,351.654064272 L347.353497164,350.992438563 L350.661625709,349.007561437 L369.187145558,350.330812854 L372.495274102,358.270321361 L381.096408318,360.255198488 L372.495274102,364.224952741 L373.156899811,370.84120983 L363.894139887,378.780718336 L344.706994329,378.780718336 L350.661625709,370.179584121 L346.030245747,355.623818526 L339.413988658,356.947069943 L332.797731569,351.654064272 Z" fill="#cee3f5" id="US.NC.153" stroke="#6e6e6e" stroke-width="0.4"><desc><name>Richmond County</name><stateAbbrev>NC</stateAbbrev><state>North Carolina</state><fips>153</fips><incits>37153</incits><id>US.NC.153</id><population>46405</population></desc></path><path d="M381.096408318,392.674858223 L391.020793951,381.427221172 L390.359168242,376.134215501 L402.930056711,376.134215501 L414.839319471,366.871455577 L421.45557656,370.179584121 L424.763705104,376.134215501 L432.703213611,388.70510397 L428.733459357,397.967863894 L428.071833648,403.922495274 L421.45557656,405.907372401 L411.531190926,418.47826087 L381.096408318,392.674858223 Z" fill="#cee3f5" id="US.NC.155" stroke="#6e6e6e" stroke-width="0.4"><desc><name>Robeson County</name><stateAbbrev>NC</stateAbbrev><state>North Carolina</state><fips>155</fips><incits>37155</incits><id>US.NC.155</id><population>134841</population></desc></path><path d="M336.105860113,264.981096408 L336.767485822,242.485822306 L377.126654064,242.485822306 L375.803402647,264.981096408 L375.803402647,265.642722117 L336.105860113,264.981096408 Z" fill="#cee3f5" id="US.NC.157" stroke="#6e6e6e" stroke-width="0.4"><desc><name>Rockingham County</name><stateAbbrev>NC</stateAbbrev><state>North Carolina</state><fips>157</fips><incits>37157</incits><id>US.NC.157</id><population>91878</population></desc></path><path d="M283.837429112,296.739130435 L293.761814745,298.724007561 L303.024574669,304.678638941 L312.948960302,309.971644612 L322.873345936,317.911153119 L324.858223062,323.865784499 L316.257088847,323.865784499 L281.190926276,323.865784499 L278.54442344,310.633270321 L283.837429112,296.739130435 Z" fill="#cee3f5" id="US.NC.159" stroke="#6e6e6e" stroke-width="0.4"><desc><name>Rowan County</name><stateAbbrev>NC</stateAbbrev><state>North Carolina</state><fips>159</fips><incits>37159</incits><id>US.NC.159</id><population>138323</population></desc></path><path d="M161.436672968,326.512287335 L164.083175803,321.880907372 L168.714555766,321.880907372 L184.593572779,321.880907372 L193.856332703,321.219281664 L195.84120983,317.911153119 L204.442344045,315.926275992 L205.765595463,317.911153119 L205.765595463,335.11342155 L200.472589792,349.007561437 L184.593572779,348.345935728 L184.593572779,343.714555766 L172.02268431,332.466918715 L161.436672968,332.466918715 L161.436672968,326.512287335 Z" fill="#cee3f5" id="US.NC.161" stroke="#6e6e6e" stroke-width="0.4"><desc><name>Rutherford County</name><stateAbbrev>NC</stateAbbrev><state>North Carolina</state><fips>161</fips><incits>37161</incits><id>US.NC.161</id><population>66956</population></desc></path><path d="M447.258979206,344.376181474 L453.875236295,338.421550095 L457.183364839,342.391304348 L463.799621928,343.052930057 L472.400756144,341.06805293 L476.370510397,346.361058601 L482.986767486,348.345935728 L484.310018904,370.84120983 L480.34026465,383.412098299 L486.956521739,385.396975425 L475.708884688,398.629489603 L470.415879017,389.366729679 L456.52173913,374.149338374 L445.274102079,363.563327032 L443.289224953,356.285444234 L446.597353497,352.315689981 L447.258979206,344.376181474 Z" fill="#cee3f5" id="US.NC.163" stroke="#6e6e6e" stroke-width="0.4"><desc><name>Sampson County</name><stateAbbrev>NC</stateAbbrev><state>North Carolina</state><fips>163</fips><incits>37163</incits><id>US.NC.163</id><population>64150</population></desc></path><path d="M363.894139887,378.780718336 L373.156899811,370.84120983 L372.495274102,364.224952741 L381.096408318,360.255198488 L389.035916824,367.533081285 L390.359168242,376.134215501 L391.020793951,381.427221172 L381.096408318,392.674858223 L363.894139887,378.780718336 Z" fill="#cee3f5" id="US.NC.165" stroke="#6e6e6e" stroke-width="0.4"><desc><name>Scotland County</name><stateAbbrev>NC</stateAbbrev><state>North Carolina</state><fips>165</fips><incits>37165</incits><id>US.NC.165</id><population>36025</population></desc></path><path d="M316.257088847,323.865784499 L324.858223062,323.865784499 L330.151228733,327.173913043 L334.120982987,335.11342155 L331.474480151,344.376181474 L332.797731569,351.654064272 L326.843100189,349.669187146 L320.2268431,350.992438563 L316.918714556,347.684310019 L307.655954631,350.330812854 L299.054820416,349.007561437 L316.257088847,323.865784499 Z" fill="#cee3f5" id="US.NC.167" stroke="#6e6e6e" stroke-width="0.4"><desc><name>Stanly County</name><stateAbbrev>NC</stateAbbrev><state>North Carolina</state><fips>167</fips><incits>37167</incits><id>US.NC.167</id><population>60635</population></desc></path><path d="M303.024574669,264.319470699 L304.347826087,241.824196597 L336.767485822,242.485822306 L336.105860113,264.981096408 L303.024574669,264.319470699 Z" fill="#cee3f5" id="US.NC.169" stroke="#6e6e6e" stroke-width="0.4"><desc><name>Stokes County</name><stateAbbrev>NC</stateAbbrev><state>North Carolina</state><fips>169</fips><incits>37169</incits><id>US.NC.169</id><population>46588</population></desc></path><path d="M268.620037807,240.50094518 L304.347826087,241.824196597 L303.024574669,264.319470699 L303.024574669,265.642722117 L295.085066163,262.996219282 L287.807183365,264.319470699 L278.54442344,263.657844991 L269.943289225,266.304347826 L270.604914934,259.026465028 L263.327032136,253.071833648 L262.665406427,249.763705104 L268.620037807,240.50094518 Z" fill="#cee3f5" id="US.NC.171" stroke="#6e6e6e" stroke-width="0.4"><desc><name>Surry County</name><stateAbbrev>NC</stateAbbrev><state>North Carolina</state><fips>171</fips><incits>37171</incits><id>US.NC.171</id><population>73050</population></desc></path><path d="M28.449905482,327.173913043 L43.0056710775,319.234404537 L64.8393194707,319.234404537 L68.809073724,315.264650284 L79.3950850662,311.956521739 L83.3648393195,308.648393195 L89.3194706994,310.633270321 L89.9810964083,322.542533081 L85.3497164461,321.880907372 L76.0869565217,326.512287335 L77.4102079395,337.098298677 L67.4858223062,339.744801512 L50.2835538752,341.729678639 L58.2230623819,331.143667297 L41.0207939509,327.835538752 L28.449905482,327.173913043 Z" fill="#cee3f5" id="US.NC.173" stroke="#6e6e6e" stroke-width="0.4"><desc><name>Swain County</name><stateAbbrev>NC</stateAbbrev><state>North Carolina</state><fips>173</fips><incits>37173</incits><id>US.NC.173</id><population>14058</population></desc></path><path d="M109.829867675,340.406427221 L117.107750473,337.759924386 L123.724007561,329.820415879 L134.310018904,341.06805293 L136.956521739,351.654064272 L131.663516068,352.97731569 L123.062381853,358.270321361 L120.415879017,356.285444234 L103.213610586,360.916824197 L99.9054820416,357.608695652 L105.198487713,352.315689981 L104.536862004,348.345935728 L109.168241966,345.037807183 L109.829867675,340.406427221 Z" fill="#cee3f5" id="US.NC.175" stroke="#6e6e6e" stroke-width="0.4"><desc><name>Transylvania County</name><stateAbbrev>NC</stateAbbrev><state>North Carolina</state><fips>175</fips><incits>37175</incits><id>US.NC.175</id><population>32903</population></desc></path><path d="M624.574669187,283.506616257 L640.4536862,280.198487713 L651.701323251,276.890359168 L660.302457467,278.213610586 L665.595463138,282.844990548 L656.994328922,285.491493384 L652.36294896,292.769376181 L650.378071834,309.971644612 L649.054820416,311.29489603 L639.130434783,308.648393195 L635.822306238,316.587901701 L629.206049149,315.264650284 L631.852551985,309.310018904 L621.266540643,308.648393195 L621.266540643,302.032136106 L625.236294896,295.415879017 L623.251417769,292.107750473 L624.574669187,283.506616257 Z" fill="#cee3f5" id="US.NC.177" stroke="#6e6e6e" stroke-width="0.4"><desc><name>Tyrrell County</name><stateAbbrev>NC</stateAbbrev><state>North Carolina</state><fips>177</fips><incits>37177</incits><id>US.NC.177</id><population>4109</population></desc></path><path d="M273.251417769,362.901701323 L279.206049149,360.255198488 L295.746691871,347.02268431 L299.054820416,349.007561437 L307.655954631,350.330812854 L316.918714556,347.684310019 L314.27221172,378.119092628 L276.559546314,377.457466919 L277.882797732,368.194706994 L273.251417769,362.901701323 Z" fill="#cee3f5" id="US.NC.179" stroke="#6e6e6e" stroke-width="0.4"><desc><name>Union County</name><stateAbbrev>NC</stateAbbrev><state>North Carolina</state><fips>179</fips><incits>37179</incits><id>US.NC.179</id><population>212756</population></desc></path><path d="M460.491493384,242.485822306 L470.415879017,242.485822306 L473.724007561,261.011342155 L471.739130435,263.657844991 L465.784499055,266.304347826 L463.799621928,271.597353497 L456.52173913,270.935727788 L455.860113422,270.274102079 L455.860113422,249.102079395 L460.491493384,242.485822306 Z" fill="#cee3f5" id="US.NC.181" stroke="#6e6e6e" stroke-width="0.4"><desc><name>Vance County</name><stateAbbrev>NC</stateAbbrev><state>North Carolina</state><fips>181</fips><incits>37181</incits><id>US.NC.181</id><population>44808</population></desc></path><path d="M470.415879017,242.485822306 L503.497164461,241.824196597 L503.497164461,244.470699433 L500.189035917,261.672967864 L494.896030246,268.950850662 L485.633270321,265.642722117 L471.739130435,263.657844991 L473.724007561,261.011342155 L470.415879017,242.485822306 Z" fill="#cee3f5" id="US.NC.185" stroke="#6e6e6e" stroke-width="0.4"><desc><name>Warren County</name><stateAbbrev>NC</stateAbbrev><state>North Carolina</state><fips>185</fips><incits>37185</incits><id>US.NC.185</id><population>20575</population></desc></path><path d="M586.862003781,307.986767486 L593.47826087,295.415879017 L598.771266541,288.799621928 L605.387523629,286.814744802 L612.003780718,286.814744802 L621.928166352,282.844990548 L624.574669187,283.506616257 L623.251417769,292.107750473 L625.236294896,295.415879017 L621.266540643,302.032136106 L621.266540643,308.648393195 L602.741020794,307.986767486 L586.862003781,307.986767486 Z" fill="#cee3f5" id="US.NC.187" stroke="#6e6e6e" stroke-width="0.4"><desc><name>Washington County</name><stateAbbrev>NC</stateAbbrev><state>North Carolina</state><fips>187</fips><incits>37187</incits><id>US.NC.187</id><population>12722</population></desc></path><path d="M188.563327032,262.334593573 L193.194706994,258.364839319 L203.119092628,254.395085066 L210.396975425,257.041587902 L222.967863894,266.304347826 L224.952741021,269.612476371 L217.674858223,275.56710775 L197.164461248,276.228733459 L195.179584121,271.597353497 L189.224952741,268.289224953 L188.563327032,262.334593573 Z" fill="#cee3f5" id="US.NC.189" stroke="#6e6e6e" stroke-width="0.4"><desc><name>Watauga County</name><stateAbbrev>NC</stateAbbrev><state>North Carolina</state><fips>189</fips><incits>37189</incits><id>US.NC.189</id><population>52372</population></desc></path><path d="M472.400756144,341.06805293 L473.062381853,339.083175803 L482.986767486,335.775047259 L483.648393195,330.482041588 L490.926275992,317.24952741 L510.11342155,318.572778828 L509.451795841,329.15879017 L511.436672968,334.451795841 L510.11342155,336.436672968 L508.790170132,349.669187146 L504.820415879,350.330812854 L492.24952741,348.345935728 L482.986767486,348.345935728 L476.370510397,346.361058601 L472.400756144,341.06805293 Z" fill="#cee3f5" id="US.NC.191" stroke="#6e6e6e" stroke-width="0.4"><desc><name>Wayne County</name><stateAbbrev>NC</stateAbbrev><state>North Carolina</state><fips>191</fips><incits>37191</incits><id>US.NC.191</id><population>124583</population></desc></path><path d="M217.674858223,275.56710775 L224.952741021,269.612476371 L222.967863894,266.304347826 L235.538752363,255.056710775 L242.155009452,255.718336484 L253.402646503,250.425330813 L258.695652174,255.056710775 L263.327032136,253.071833648 L270.604914934,259.026465028 L269.943289225,266.304347826 L269.943289225,280.198487713 L258.034026465,281.52173913 L239.508506616,282.844990548 L234.877126654,284.829867675 L228.260869565,278.875236295 L217.674858223,275.56710775 Z" fill="#cee3f5" id="US.NC.193" stroke="#6e6e6e" stroke-width="0.4"><desc><name>Wilkes County</name><stateAbbrev>NC</stateAbbrev><state>North Carolina</state><fips>193</fips><incits>37193</incits><id>US.NC.193</id><population>69023</population></desc></path><path d="M481.001890359,306.001890359 L509.451795841,295.415879017 L515.406427221,298.724007561 L518.052930057,306.001890359 L522.02268431,310.633270321 L519.376181474,311.956521739 L510.11342155,318.572778828 L490.926275992,317.24952741 L485.633270321,315.926275992 L481.001890359,306.001890359 Z" fill="#cee3f5" id="US.NC.195" stroke="#6e6e6e" stroke-width="0.4"><desc><name>Wilson County</name><stateAbbrev>NC</stateAbbrev><state>North Carolina</state><fips>195</fips><incits>37195</incits><id>US.NC.195</id><population>81667</population></desc></path><path d="M269.943289225,280.198487713 L269.943289225,266.304347826 L278.54442344,263.657844991 L287.807183365,264.319470699 L295.085066163,262.996219282 L303.024574669,265.642722117 L304.347826087,274.243856333 L298.393194707,277.551984877 L299.716446125,280.860113422 L284.49905482,280.860113422 L269.943289225,280.198487713 Z" fill="#cee3f5" id="US.NC.197" stroke="#6e6e6e" stroke-width="0.4"><desc><name>Yadkin County</name><stateAbbrev>NC</stateAbbrev><state>North Carolina</state><fips>197</fips><incits>37197</incits><id>US.NC.197</id><population>38038</population></desc></path><path d="M142.911153119,286.814744802 L149.527410208,278.875236295 L163.421550095,284.829867675 L170.699432892,290.122873346 L172.02268431,298.724007561 L165.406427221,306.663516068 L160.775047259,307.986767486 L150.850661626,298.724007561 L147.542533081,292.769376181 L143.572778828,291.446124764 L142.911153119,286.814744802 Z" fill="#cee3f5" id="US.NC.199" stroke="#6e6e6e" stroke-width="0.4"><desc><name>Yancey County</name><stateAbbrev>NC</stateAbbrev><state>North Carolina</state><fips>199</fips><incits>37199</incits><id>US.NC.199</id><population>17566</population></desc></path></svg>