<?xml version='1.0' encoding='utf-8'?>
<svg height="700" width="700" xmlns="http://www.w3.org/2000/svg"><path d="M449.311294766,315.289256198 L465.702479339,310.468319559 L465.702479339,298.898071625 L485.950413223,282.506887052 L492.699724518,308.539944904 L521.625344353,351.928374656 L546.694214876,351.928374656 L549.58677686,333.608815427 L589.1184573,327.82369146 L610.330578512,331.680440771 L627.685950413,320.110192837 L634.435261708,342.286501377 L666.253443526,356.749311295 L700.0,358.67768595 L689.393939394,397.245179063 L654.683195592,404.958677686 L639.256198347,426.170798898 L624.79338843,414.600550964 L624.79338843,400.137741047 L596.831955923,393.388429752 L588.154269972,414.600550964 L587.190082645,432.920110193 L571.763085399,439.669421488 L558.26446281,433.884297521 L547.658402204,451.239669421 L526.446280992,465.702479339 L462.809917355,465.702479339 L445.454545455,443.526170799 L458.953168044,435.812672176 L461.845730028,424.242424242 L439.669421488,406.887052342 L420.385674931,382.782369146 L433.884297521,373.140495868 L436.776859504,360.606060606 L452.203856749,345.179063361 L441.597796143,324.931129477 L449.311294766,315.289256198 Z" fill="#cee3f5" id="CN.jilin.2761941" stroke="#6e6e6e" stroke-width="0.4"><desc><name>Yanbian Korean Autonomous Prefecture</name><admin_leve>5</admin_leve><wikipedia>zh:延边朝鲜族自治州</wikipedia><localname>옌볜 조선족 자치주 延边朝鲜族自治州</localname><boundary>administrative</boundary><id>CN.jilin.2761941</id></desc></path><path d="M366.391184573,417.493112948 L372.17630854,409.779614325 L395.316804408,407.851239669 L419.421487603,425.20661157 L439.669421488,406.887052342 L461.845730028,424.242424242 L458.953168044,435.812672176 L445.454545455,443.526170799 L462.809917355,465.702479339 L466.666666667,482.093663912 L482.093663912,497.520661157 L473.415977961,510.055096419 L410.743801653,506.198347107 L397.245179063,500.41322314 L389.531680441,485.950413223 L376.997245179,482.093663912 L352.892561983,501.377410468 L332.644628099,487.878787879 L326.859504132,469.55922865 L349.035812672,453.168044077 L349.035812672,436.776859504 L366.391184573,417.493112948 Z" fill="#cee3f5" id="CN.jilin.2762626" stroke="#6e6e6e" stroke-width="0.4"><desc><name>Baishan City</name><admin_leve>5</admin_leve><wikipedia>zh:白山市</wikipedia><localname>바이산 시 / 白山市 / Baishan</localname><boundary>administrative</boundary><id>CN.jilin.2762626</id></desc></path><path d="M257.438016529,443.526170799 L280.578512397,433.884297521 L294.077134986,406.887052342 L292.148760331,392.424242424 L308.539944904,406.887052342 L351.928374656,417.493112948 L366.391184573,417.493112948 L349.035812672,436.776859504 L349.035812672,453.168044077 L326.859504132,469.55922865 L332.644628099,487.878787879 L352.892561983,501.377410468 L332.644628099,528.374655647 L313.360881543,547.658402204 L290.220385675,549.58677686 L296.96969697,527.41046832 L262.258953168,489.807162534 L259.366391185,469.55922865 L273.829201102,456.060606061 L257.438016529,443.526170799 Z" fill="#cee3f5" id="CN.jilin.2762954" stroke="#6e6e6e" stroke-width="0.4"><desc><name>Tonghua City</name><admin_leve>5</admin_leve><wikipedia>de:Tonghua</wikipedia><localname>퉁화 시 / 通化市 / Tonghua</localname><boundary>administrative</boundary><id>CN.jilin.2762954</id></desc></path><path d="M191.873278237,212.121212121 L125.344352617,253.581267218 L128.236914601,269.972451791 L99.3112947658,282.506887052 L50.1377410468,303.719008264 L25.0688705234,272.865013774 L24.1046831956,252.61707989 L28.9256198347,214.049586777 L14.4628099174,194.76584022 L0.0,195.730027548 L4.82093663912,171.625344353 L36.6391184573,188.016528926 L49.173553719,179.338842975 L71.349862259,193.801652893 L79.0633608815,181.267217631 L76.1707988981,167.768595041 L118.595041322,157.162534435 L158.126721763,150.41322314 L165.840220386,161.983471074 L168.732782369,191.873278237 L191.873278237,212.121212121 Z" fill="#cee3f5" id="CN.jilin.2763763" stroke="#6e6e6e" stroke-width="0.4"><desc><name>Baicheng City</name><admin_leve>5</admin_leve><wikipedia>de:Baicheng</wikipedia><localname>白城市 / Baicheng</localname><boundary>administrative</boundary><id>CN.jilin.2763763</id></desc></path><path d="M99.3112947658,282.506887052 L128.236914601,269.972451791 L125.344352617,253.581267218 L191.873278237,212.121212121 L205.371900826,216.94214876 L240.082644628,210.192837466 L243.939393939,218.870523416 L269.972451791,213.085399449 L289.256198347,219.834710744 L304.683195592,232.369146006 L323.966942149,237.190082645 L323.966942149,250.688705234 L306.611570248,264.187327824 L290.220385675,251.652892562 L231.404958678,266.115702479 L206.336088154,278.650137741 L209.228650138,300.826446281 L219.834710744,308.539944904 L194.76584022,318.181818182 L148.484848485,320.110192837 L138.842975207,314.325068871 L115.702479339,315.289256198 L99.3112947658,282.506887052 Z" fill="#cee3f5" id="CN.jilin.2763775" stroke="#6e6e6e" stroke-width="0.4"><desc><name>Songyuan City</name><admin_leve>5</admin_leve><wikidata>Q92364</wikidata><localname>松原市 / Songyuan</localname><boundary>administrative</boundary><id>CN.jilin.2763775</id></desc></path><path d="M115.702479339,315.289256198 L138.842975207,314.325068871 L148.484848485,320.110192837 L194.76584022,318.181818182 L219.834710744,308.539944904 L244.903581267,336.50137741 L261.29476584,342.286501377 L289.256198347,374.104683196 L287.327823691,388.567493113 L252.61707989,376.997245179 L230.44077135,383.746556474 L215.977961433,389.531680441 L204.407713499,402.066115702 L180.303030303,374.104683196 L166.804407713,372.17630854 L147.520661157,358.67768595 L134.986225895,366.391184573 L115.702479339,356.749311295 L131.129476584,347.107438017 L115.702479339,315.289256198 Z" fill="#cee3f5" id="CN.jilin.2763795" stroke="#6e6e6e" stroke-width="0.4"><desc><name>Siping City</name><admin_leve>5</admin_leve><wikipedia>zh:四平市</wikipedia><localname>四平市 / Siping</localname><boundary>administrative</boundary><id>CN.jilin.2763795</id></desc></path><path d="M323.966942149,237.190082645 L352.892561983,227.548209366 L382.782369146,241.046831956 L388.567493113,278.650137741 L345.179063361,279.614325069 L345.179063361,307.575757576 L323.002754821,308.539944904 L298.898071625,329.752066116 L302.754820937,359.641873278 L289.256198347,374.104683196 L261.29476584,342.286501377 L244.903581267,336.50137741 L219.834710744,308.539944904 L209.228650138,300.826446281 L206.336088154,278.650137741 L231.404958678,266.115702479 L290.220385675,251.652892562 L306.611570248,264.187327824 L323.966942149,250.688705234 L323.966942149,237.190082645 Z" fill="#cee3f5" id="CN.jilin.2763992" stroke="#6e6e6e" stroke-width="0.4"><desc><name>Changchun City</name><admin_leve>5</admin_leve><wikipedia>en:Changchun</wikipedia><localname>四平市 / Changchun</localname><boundary>administrative</boundary><id>CN.jilin.2763992</id></desc></path><path d="M230.44077135,383.746556474 L252.61707989,376.997245179 L287.327823691,388.567493113 L292.148760331,392.424242424 L294.077134986,406.887052342 L280.578512397,433.884297521 L257.438016529,443.526170799 L243.939393939,430.027548209 L237.190082645,409.779614325 L227.548209366,403.03030303 L230.44077135,383.746556474 Z" fill="#cee3f5" id="CN.jilin.2764045" stroke="#6e6e6e" stroke-width="0.4"><desc><name>Liaoyuan City</name><admin_leve>5</admin_leve><wikipedia>zh:辽源市</wikipedia><localname>辽源市 / Liaoyuan</localname><boundary>administrative</boundary><id>CN.jilin.2764045</id></desc></path><path d="M289.256198347,374.104683196 L302.754820937,359.641873278 L298.898071625,329.752066116 L323.002754821,308.539944904 L345.179063361,307.575757576 L345.179063361,279.614325069 L388.567493113,278.650137741 L415.564738292,273.829201102 L429.063360882,302.754820937 L449.311294766,315.289256198 L441.597796143,324.931129477 L452.203856749,345.179063361 L436.776859504,360.606060606 L433.884297521,373.140495868 L420.385674931,382.782369146 L439.669421488,406.887052342 L419.421487603,425.20661157 L395.316804408,407.851239669 L372.17630854,409.779614325 L366.391184573,417.493112948 L351.928374656,417.493112948 L308.539944904,406.887052342 L292.148760331,392.424242424 L287.327823691,388.567493113 L289.256198347,374.104683196 Z" fill="#cee3f5" id="CN.jilin.2764055" stroke="#6e6e6e" stroke-width="0.4"><desc><name>Jilin City</name><admin_leve>5</admin_leve><wikipedia>zh:吉林市</wikipedia><localname>吉林市 / Jilin</localname><boundary>administrative</boundary><id>CN.jilin.2764055</id></desc></path></svg>