<?xml version='1.0' encoding='utf-8'?>
<svg height="700" width="700" xmlns="http://www.w3.org/2000/svg"><path d="M90.4142973193,568.074735987 L91.551584078,569.780666125 L88.1397238018,572.623883022 L90.4142973193,569.212022746 L88.1397238018,569.212022746 L88.7083671812,565.80016247 L90.4142973193,568.074735987 M30.7067424858,403.73679935 L29.0008123477,404.874086109 L29.0008123477,402.030869212 L30.7067424858,403.73679935 M32.4126726239,393.501218522 L30.7067424858,394.63850528 L31.8440292445,391.795288383 L32.4126726239,393.501218522 M426.482534525,399.187652315 L423.639317628,400.893582453 L420.227457352,399.756295695 L421.36474411,397.481722177 L424.776604387,397.481722177 L425.345247766,399.187652315 L426.482534525,397.481722177 L426.482534525,399.187652315 Z" fill="#cee3f5" id="KP.5044" stroke="#6e6e6e" stroke-width="0.4"><desc><labelrank>20</labelrank><code_hasc>-99</code_hasc><name /><admin>North Korea</admin><type_en /><region /><woe_id>-99</woe_id><longitude>125</longitude><woe_name /><fips /><woe_label /><latitude>37</latitude><iso_a2>KP</iso_a2><postal /><type /><id>KP.5044</id></desc></path><path d="M296.831844029,520.30869212 L297.400487409,525.426482535 L300.243704305,531.681559708 L298.537774167,537.936636881 L286.027619821,544.191714054 L284.321689683,558.976441917 L276.929325751,570.917952884 L263.850528026,579.447603574 L267.262388302,585.702680747 L267.262388302,599.350121852 L275.792038993,615.272136474 L280.909829407,618.115353371 L284.890333063,617.546709992 L283.184402924,631.762794476 L290.008123477,638.586515028 L270.674248578,664.1754671 L260.43866775,669.293257514 L258.732737612,687.489845654 L250.771730301,690.333062551 L235.987002437,680.666125102 L232.575142161,674.979691308 L230.869212023,645.410235581 L234.849715678,640.861088546 L236.555645816,644.841592201 L237.692932575,642.567018684 L234.281072299,635.174654752 L217.790414297,628.3509342 L201.299756296,635.174654752 L184.240454915,635.743298132 L181.965881397,627.213647441 L174.573517465,616.409423233 L165.475223396,616.978066613 L166.043866775,614.134849716 L161.49471974,610.15434606 L163.769293258,607.311129163 L156.945572705,574.898456539 L150.121852153,554.427294882 L164.337936637,547.03493095 L167.181153534,547.03493095 L174.004874086,547.60357433 L175.710804224,547.60357433 L185.946385053,553.858651503 L186.515028432,553.858651503 L187.652315191,556.13322502 L187.652315191,558.976441917 L187.652315191,559.545085297 L188.22095857,560.113728676 L192.201462226,562.388302193 L197.887896019,565.23151909 L200.731112916,565.80016247 L201.868399675,565.80016247 L204.142973193,565.23151909 L205.280259951,565.23151909 L205.848903331,564.662875711 L206.41754671,564.094232331 L208.123476848,561.251015435 L208.692120227,560.682372055 L209.829406986,560.113728676 L210.966693745,559.545085297 L214.9471974,558.976441917 L215.51584078,558.407798538 L216.084484159,557.839155158 L216.653127539,557.270511779 L216.653127539,556.7018684 L217.221770918,556.13322502 L217.221770918,551.584077985 L216.653127539,549.309504468 L212.672623883,543.623070674 L208.123476848,540.211210398 L207.554833469,539.642567019 L207.554833469,539.073923639 L206.986190089,538.50528026 L206.986190089,537.936636881 L206.986190089,536.230706742 L207.554833469,533.387489846 L208.123476848,531.681559708 L209.260763607,530.544272949 L209.829406986,530.544272949 L210.966693745,531.112916328 L214.378554021,528.838342811 L215.51584078,528.838342811 L216.084484159,528.838342811 L218.927701056,529.40698619 L222.908204712,532.818846466 L225.182778229,533.387489846 L226.320064988,533.387489846 L228.594638505,533.956133225 L229.163281885,533.956133225 L232.575142161,535.662063363 L233.14378554,536.230706742 L233.71242892,536.230706742 L234.281072299,536.799350122 L234.849715678,537.367993501 L243.379366369,539.642567019 L245.085296507,539.642567019 L245.653939886,539.073923639 L246.222583266,538.50528026 L246.791226645,537.936636881 L246.791226645,537.936636881 L246.791226645,537.367993501 L246.791226645,536.799350122 L246.222583266,534.524776604 L245.085296507,531.112916328 L247.928513404,528.269699431 L248.497156783,527.701056052 L249.065800162,528.269699431 L254.183590577,531.681559708 L257.595450853,532.250203087 L261.007311129,531.681559708 L262.713241267,531.112916328 L263.281884647,530.544272949 L263.281884647,529.40698619 L262.713241267,528.838342811 L261.007311129,526.563769293 L260.43866775,524.857839155 L259.87002437,522.583265638 L259.301380991,522.014622258 L253.614947197,512.347684809 L255.320877335,506.661251015 L256.458164094,506.092607636 L257.026807474,506.661251015 L261.575954509,510.641754671 L263.281884647,510.641754671 L264.419171405,510.641754671 L271.242891958,509.504467912 L275.223395613,512.347684809 L279.203899269,513.484971568 L280.909829407,514.053614947 L282.615759545,515.190901706 L288.870836718,520.30869212 L296.831844029,520.30869212 Z" fill="#cee3f5" id="KP.WB" stroke="#6e6e6e" stroke-width="0.4"><desc><labelrank>6</labelrank><code_hasc>KP.WB</code_hasc><name>Hwanghae-bukto</name><admin>North Korea</admin><type_en>Province</type_en><region /><woe_id>2345953</woe_id><longitude>126</longitude><woe_name>Hwanghae-bukto</woe_name><fips>KN07</fips><woe_label>Hwanghae-bukto, KP, North Korea</woe_label><latitude>38</latitude><iso_a2>KP</iso_a2><postal>WB</postal><type>Do</type><id>KP.WB</id></desc></path><path d="M117.709179529,690.90170593 L110.316815597,696.019496344 L107.4735987,695.450852965 L119.983753046,687.489845654 L117.709179529,690.90170593 M101.218521527,684.077985378 L99.5125913891,682.37205524 L104.630381803,680.097481722 L101.218521527,684.077985378 M89.8456539399,678.960194963 L84.7278635256,680.666125102 L88.1397238018,677.254264825 L89.8456539399,678.960194963 M76.7668562145,584.565393989 L79.0414297319,589.114541024 L67.0999187652,585.702680747 L72.7863525589,581.153533712 L76.7668562145,584.565393989 M156.945572705,574.898456539 L163.769293258,607.311129163 L161.49471974,610.15434606 L166.043866775,614.134849716 L165.475223396,616.978066613 L174.573517465,616.409423233 L181.965881397,627.213647441 L184.240454915,635.743298132 L201.299756296,635.174654752 L217.790414297,628.3509342 L234.281072299,635.174654752 L237.692932575,642.567018684 L236.555645816,644.841592201 L234.849715678,640.861088546 L230.869212023,645.410235581 L232.575142161,674.979691308 L209.260763607,680.666125102 L205.848903331,683.509341998 L206.41754671,694.882209586 L201.299756296,693.744922827 L199.025182778,685.783915516 L196.750609261,685.783915516 L196.181965881,676.685621446 L191.632818846,678.391551584 L186.515028432,670.430544273 L184.809098294,672.136474411 L188.78960195,682.37205524 L181.965881397,679.528838343 L173.436230707,665.881397238 L170.024370431,664.744110479 L170.024370431,659.626320065 L148.984565394,653.371242892 L146.709991877,656.214459789 L148.415922015,658.489033306 L156.945572705,660.763606824 L156.945572705,664.1754671 L161.49471974,664.744110479 L159.220146223,668.155970755 L163.200649878,668.155970755 L157.514216084,671.567831032 L151.827782291,667.587327376 L152.39642567,676.685621446 L150.690495532,679.528838343 L152.96506905,681.234768481 L148.984565394,683.509341998 L150.121852153,689.195775792 L145.004061738,685.783915516 L140.454914703,687.489845654 L140.454914703,684.646628757 L134.19983753,692.607636068 L125.101543461,694.313566206 L120.552396426,700.0 L122.826969943,688.627132413 L131.356620634,686.921202275 L124.532900081,685.783915516 L125.67018684,684.077985378 L133.062550772,680.666125102 L139.886271324,681.80341186 L140.454914703,678.391551584 L135.337124289,676.116978067 L138.748984565,671.567831032 L130.219333875,668.724614135 L130.787977254,670.430544273 L125.67018684,670.999187652 L130.219333875,673.842404549 L131.925264013,677.822908205 L122.258326564,674.979691308 L124.532900081,677.822908205 L117.140536149,681.80341186 L110.316815597,679.528838343 L117.709179529,672.70511779 L113.160032494,665.312753859 L104.061738424,673.842404549 L87.0024370431,667.587327376 L87.0024370431,663.606823721 L83.5905767669,665.312753859 L84.7278635256,661.332250203 L92.6888708367,658.489033306 L100.081234768,661.332250203 L104.061738424,660.194963444 L104.630381803,657.351746548 L102.355808286,658.489033306 L98.3753046304,655.645816409 L97.2380178716,651.096669374 L107.4735987,649.390739236 L112.022745735,653.939886271 L114.297319253,645.97887896 L101.218521527,643.135662063 L87.5710804224,647.116165719 L75.0609260764,637.44922827 L72.7863525589,640.292445167 L64.8253452478,641.429731925 L51.7465475223,636.88058489 L68.237205524,630.056864338 L72.2177091795,624.370430544 L76.1982128351,625.507717303 L79.0414297319,630.056864338 L86.4337936637,624.939073924 L78.4727863526,624.370430544 L73.9236393176,620.389926889 L75.6295694557,609.017059301 L83.0219333875,595.369618197 L85.8651502843,593.663688058 L85.8651502843,596.506904955 L90.4142973193,589.114541024 L87.5710804224,576.604386677 L93.2575142161,577.173030057 L95.5320877335,580.016246954 L100.081234768,577.173030057 L102.924451665,578.878960195 L102.924451665,567.506092608 L105.767668562,572.055239643 L108.610885459,572.055239643 L108.610885459,567.506092608 L110.885458976,569.780666125 L117.709179529,567.506092608 L121.121039805,569.780666125 L128.513403737,564.662875711 L135.905767669,566.368805849 L138.180341186,563.525588952 L142.729488221,566.368805849 L143.86677498,570.917952884 L146.709991877,567.506092608 L150.690495532,572.623883022 L156.945572705,574.898456539 Z" fill="#cee3f5" id="KP.WN" stroke="#6e6e6e" stroke-width="0.4"><desc><labelrank>6</labelrank><code_hasc>KP.WN</code_hasc><name>Hwanghae-namdo</name><admin>North Korea</admin><type_en>Province</type_en><region /><woe_id>2345952</woe_id><longitude>125</longitude><woe_name>Hwanghae-namdo</woe_name><fips>KN06</fips><woe_label>Hwanghae-namdo, KP, North Korea</woe_label><latitude>37</latitude><iso_a2>KP</iso_a2><postal>WN</postal><type>Do</type><id>KP.WN</id></desc></path><path d="M234.849715678,537.367993501 L234.281072299,536.799350122 L233.14378554,536.230706742 L232.575142161,535.662063363 L229.163281885,533.956133225 L228.594638505,533.956133225 L226.320064988,533.387489846 L222.908204712,532.818846466 L218.927701056,529.40698619 L216.084484159,528.838342811 L215.51584078,528.838342811 L214.378554021,528.838342811 L213.809910642,529.40698619 L210.966693745,531.112916328 L209.829406986,530.544272949 L209.260763607,530.544272949 L208.123476848,531.681559708 L207.554833469,533.387489846 L206.986190089,536.230706742 L206.986190089,537.936636881 L206.986190089,538.50528026 L207.554833469,539.073923639 L207.554833469,539.642567019 L208.123476848,540.211210398 L212.672623883,543.623070674 L216.653127539,549.309504468 L217.221770918,551.584077985 L217.221770918,556.13322502 L216.653127539,556.7018684 L216.653127539,557.270511779 L216.084484159,557.839155158 L215.51584078,558.407798538 L214.9471974,558.976441917 L209.829406986,560.113728676 L208.692120227,560.682372055 L208.123476848,561.251015435 L206.41754671,564.094232331 L205.848903331,564.662875711 L205.280259951,565.23151909 L204.142973193,565.23151909 L201.868399675,565.80016247 L200.731112916,565.80016247 L197.887896019,565.23151909 L193.907392364,563.525588952 L192.201462226,562.388302193 L188.22095857,560.113728676 L187.652315191,559.545085297 L187.652315191,558.976441917 L187.652315191,556.13322502 L186.515028432,553.858651503 L185.946385053,553.858651503 L175.710804224,547.60357433 L174.004874086,547.60357433 L167.181153534,547.03493095 L164.337936637,547.03493095 L150.121852153,554.427294882 L145.004061738,545.329000812 L151.259138911,541.348497157 L154.102355808,533.387489846 L151.827782291,516.896831844 L161.49471974,508.935824533 L158.082859464,506.092607636 L156.945572705,494.151096669 L167.181153534,488.464662876 L179.1226645,497.562956946 L181.397238018,504.955320877 L185.377741673,495.857026807 L189.926888708,495.857026807 L193.338748985,499.268887084 L200.731112916,495.857026807 L205.848903331,502.68074736 L219.496344435,506.661251015 L222.339561332,516.328188465 L230.869212023,522.014622258 L234.849715678,530.544272949 L234.849715678,531.681559708 L234.849715678,537.367993501 Z" fill="#cee3f5" id="KP.PY" stroke="#6e6e6e" stroke-width="0.4"><desc><labelrank>6</labelrank><code_hasc>KP.PY</code_hasc><name>P'yŏngyang</name><admin>North Korea</admin><type_en>Special City</type_en><region /><woe_id>20070115</woe_id><longitude>125</longitude><woe_name>P'yŏngyang</woe_name><fips>KN12</fips><woe_label>PÂ´yongyang-si, KP, North Korea</woe_label><latitude>38</latitude><iso_a2>KP</iso_a2><postal>PY</postal><type>Si</type><id>KP.PY</id></desc></path><path d="M521.445978879,324.695369618 L512.916328188,322.420796101 L511.77904143,314.45978879 L504.386677498,307.636068237 L497.562956946,291.145410236 L499.268887084,283.184402924 L496.994313566,276.929325751 L500.974817222,268.399675061 L497.562956946,255.320877335 L499.268887084,251.34037368 L495.857026807,240.536149472 L499.268887084,233.14378554 L490.739236393,219.496344435 L488.464662876,210.966693745 L496.994313566,198.456539399 L496.994313566,194.476035743 L493.013809911,187.652315191 L483.346872461,184.240454915 L485.621445979,178.554021121 L483.346872461,171.161657189 L483.915515841,159.788789602 L478.797725426,159.220146223 L475.95450853,145.004061738 L482.778229082,144.435418359 L494.151096669,130.219333875 L499.268887084,129.650690496 L502.112103981,122.258326564 L507.798537774,120.552396426 L511.77904143,113.728675873 L517.465475223,114.297319253 L525.995125914,105.199025183 L523.151909017,101.787164907 L527.701056052,94.9634443542 L524.289195776,92.1202274574 L528.838342811,90.9829406986 L528.838342811,84.7278635256 L535.093419984,82.4532900081 L537.367993501,77.3354995938 L540.211210398,78.4727863526 L539.073923639,75.0609260764 L543.623070674,77.3354995938 L548.172217709,75.6295694557 L557.839155158,85.296506905 L562.956945573,79.6100731113 L563.525588952,74.492282697 L574.32981316,75.0609260764 L577.173030057,71.0804224208 L577.741673436,56.2956945573 L580.016246954,53.4524776604 L578.310316816,50.6092607636 L582.290820471,44.3541835906 L579.447603574,36.3931762794 L588.545897644,6.25507717303 L593.663688058,4.54914703493 L590.820471162,1.7059301381 L596.506904955,0.0 L603.330625508,6.25507717303 L614.703493095,3.4118602762 L612.428919578,11.3728675873 L626.076360682,13.6474411048 L626.645004062,34.6872461413 L635.174654752,47.1974004874 L645.410235581,53.4524776604 L645.97887896,58.5702680747 L647.684809098,60.2761982128 L647.684809098,66.5312753859 L645.97887896,72.7863525589 L634.606011373,77.3354995938 L629.488220959,77.9041429732 L628.919577579,81.3160032494 L631.194151097,84.1592201462 L630.625507717,89.2770105605 L622.664500406,102.355808286 L623.801787165,110.316815597 L624.370430544,112.022745735 L623.801787165,119.983753046 L619.821283509,123.964256702 L615.840779854,121.689683184 L611.291632819,123.395613323 L607.879772543,134.19983753 L605.605199025,131.925264013 L602.761982128,135.905767669 L604.467912266,138.748984565 L601.05605199,147.278635256 L594.232331438,146.141348497 L590.251827782,164.906580016 L586.271324127,163.200649878 L582.290820471,165.475223396 L578.878960195,175.710804224 L574.32981316,180.259951259 L569.780666125,193.907392364 L570.917952884,204.711616572 L585.702680747,216.653127539 L576.604386677,250.203086921 L578.310316816,269.53696182 L582.290820471,273.517465475 L579.447603574,283.753046304 L577.741673436,288.302193339 L562.956945573,287.733549959 L557.839155158,293.419983753 L548.172217709,295.694557271 L540.779853777,300.243704305 L536.230706742,309.910641755 L532.818846466,305.36149472 L528.838342811,305.930138099 L521.445978879,324.695369618 Z" fill="#cee3f5" id="KP.HG" stroke="#6e6e6e" stroke-width="0.4"><desc><labelrank>6</labelrank><code_hasc>KP.HG</code_hasc><name>Hamgyŏng-bukto</name><admin>North Korea</admin><type_en>Province</type_en><region /><woe_id>2345958</woe_id><longitude>129</longitude><woe_name>Hamgyŏng-bukto</woe_name><fips>KN04</fips><woe_label>Hamgyong-bukto, KP, North Korea</woe_label><latitude>41</latitude><iso_a2>KP</iso_a2><postal>HG</postal><type>Do</type><id>KP.HG</id></desc></path><path d="M290.008123477,638.586515028 L283.184402924,631.762794476 L284.890333063,617.546709992 L280.909829407,618.115353371 L275.792038993,615.272136474 L267.262388302,599.350121852 L267.262388302,585.702680747 L263.850528026,579.447603574 L276.929325751,570.917952884 L284.321689683,558.976441917 L286.027619821,544.191714054 L298.537774167,537.936636881 L300.243704305,531.681559708 L297.400487409,525.426482535 L296.831844029,520.30869212 L298.537774167,514.622258327 L300.243704305,511.77904143 L301.380991064,511.21039805 L304.79285134,509.504467912 L305.36149472,508.935824533 L305.930138099,508.367181154 L304.79285134,506.661251015 L301.949634444,502.68074736 L303.086921202,501.543460601 L303.086921202,500.406173842 L302.518277823,495.288383428 L302.518277823,494.151096669 L303.086921202,493.58245329 L306.498781478,493.013809911 L307.067424858,492.445166531 L308.204711617,491.307879773 L308.773354996,490.739236393 L308.773354996,489.601949634 L309.341998375,486.758732738 L309.910641755,484.48415922 L310.479285134,479.935012185 L311.616571893,478.229082047 L312.185215272,477.091795288 L313.322502031,476.523151909 L313.89114541,475.95450853 L315.597075548,475.38586515 L325.264012998,475.38586515 L328.675873274,475.38586515 L333.793663688,476.523151909 L338.911454102,475.95450853 L341.18602762,475.95450853 L342.323314379,475.95450853 L342.891957758,475.95450853 L343.460601137,475.95450853 L344.597887896,476.523151909 L343.460601137,478.229082047 L338.911454102,481.072298944 L346.303818034,481.640942323 L348.578391552,484.48415922 L343.460601137,486.758732738 L340.048740861,485.0528026 L337.774167344,498.700243704 L340.048740861,503.818034119 L345.735174655,508.367181154 L349.71567831,504.386677498 L353.696181966,511.21039805 L361.657189277,510.641754671 L368.480909829,515.190901706 L377.579203899,515.190901706 L390.658001625,536.230706742 L392.932575142,535.662063363 L403.168155971,549.878147847 L411.129163282,552.152721365 L423.639317628,567.506092608 L431.03168156,564.094232331 L438.992688871,574.32981316 L439.56133225,581.153533712 L430.46303818,586.271324127 L430.46303818,599.918765232 L427.051177904,607.311129163 L412.266450041,620.958570268 L405.442729488,623.233143786 L380.422420796,624.370430544 L375.304630382,620.389926889 L345.735174655,623.801787165 L336.068237206,620.389926889 L313.322502031,621.527213647 L299.106417547,628.3509342 L290.008123477,638.586515028 Z" fill="#cee3f5" id="KP.KW" stroke="#6e6e6e" stroke-width="0.4"><desc><labelrank>6</labelrank><code_hasc>KP.KW</code_hasc><name>Kangwŏn-do</name><admin>North Korea</admin><type_en>Province</type_en><region /><woe_id>2345954</woe_id><longitude>127</longitude><woe_name>Kangwŏn-do</woe_name><fips>KN09</fips><woe_label>Kangwon-do, KP, North Korea</woe_label><latitude>38</latitude><iso_a2>KP</iso_a2><postal>KW</postal><type>Do</type><id>KP.KW</id></desc></path><path d="M307.067424858,164.906580016 L303.086921202,172.298943948 L302.518277823,188.22095857 L294.557270512,196.181965881 L288.870836718,196.181965881 L288.302193339,203.574329813 L290.576766856,206.41754671 L299.106417547,204.711616572 L297.400487409,209.260763607 L301.380991064,222.339561332 L305.36149472,228.025995126 L305.36149472,232.575142161 L311.616571893,245.653939886 L326.969943136,251.34037368 L334.930950447,242.810722989 L340.61738424,241.673436231 L343.460601137,246.222583266 L344.029244517,255.889520715 L334.362307067,277.497969131 L334.930950447,282.047116166 L341.754670999,288.870836718 L341.754670999,293.419983753 L325.832656377,302.518277823 L320.146222583,316.165718928 L312.753858652,317.871649066 L302.518277823,324.126726239 L301.380991064,334.930950447 L295.125913891,343.460601137 L293.419983753,352.558895207 L282.047116166,370.186839968 L260.43866775,382.128350934 L255.320877335,391.226645004 L242.810722989,396.913078798 L236.555645816,392.932575142 L232.575142161,391.226645004 L230.300568643,390.089358245 L221.202274574,388.952071487 L218.927701056,387.814784728 L214.9471974,384.971567831 L213.241267262,383.265637693 L209.260763607,377.579203899 L202.437043054,371.324126726 L200.162469537,367.343623071 L198.456539399,365.637692933 L197.31925264,365.069049553 L189.926888708,362.225832656 L188.78960195,362.225832656 L187.083671812,362.225832656 L183.671811535,363.931762794 L180.828594639,363.931762794 L166.043866775,353.127538587 L163.200649878,349.71567831 L162.632006499,348.578391552 L162.063363119,348.009748172 L162.063363119,346.872461413 L162.632006499,346.303818034 L163.200649878,345.735174655 L163.769293258,345.166531275 L163.769293258,344.029244517 L163.200649878,342.891957758 L159.220146223,338.342810723 L158.651502843,337.774167344 L158.651502843,337.205523964 L158.651502843,336.636880585 L158.651502843,335.499593826 L160.357432981,329.244516653 L162.063363119,326.401299756 L162.632006499,325.264012998 L162.632006499,324.695369618 L162.632006499,323.558082859 L162.632006499,322.98943948 L162.063363119,321.283509342 L160.926076361,316.734362307 L155.808285946,316.165718928 L143.2981316,305.36149472 L143.86677498,303.655564582 L147.278635256,303.086921202 L150.121852153,296.831844029 L156.945572705,296.26320065 L159.788789602,288.302193339 L163.769293258,291.714053615 L171.161657189,291.145410236 L167.749796913,285.458976442 L179.69130788,275.792038993 L185.377741673,278.06661251 L192.201462226,274.654752234 L197.31925264,277.497969131 L204.711616572,275.223395613 L204.711616572,272.948822096 L201.868399675,272.948822096 L208.692120227,268.96831844 L214.378554021,260.43866775 L218.359057677,254.752233956 L216.653127539,251.909017059 L232.575142161,242.24207961 L249.634443542,216.653127539 L253.046303818,214.378554021 L255.889520715,214.378554021 L254.183590577,217.221770918 L258.164094232,216.653127539 L255.889520715,205.848903331 L264.419171405,188.78960195 L263.281884647,181.965881397 L268.399675061,175.142160845 L273.517465475,175.142160845 L279.772542648,170.59301381 L275.223395613,166.043866775 L279.772542648,166.043866775 L285.458976442,171.730300569 L287.733549959,167.181153534 L300.243704305,158.082859464 L301.380991064,162.632006499 L307.067424858,164.906580016 Z" fill="#cee3f5" id="KP.CH" stroke="#6e6e6e" stroke-width="0.4"><desc><labelrank>6</labelrank><code_hasc>KP.CH</code_hasc><name>Chagang-do</name><admin>North Korea</admin><type_en>Province</type_en><region /><woe_id>2345950</woe_id><longitude>126</longitude><woe_name>Chagang-do</woe_name><fips>KN01</fips><woe_label>Chagang-do, KP, North Korea</woe_label><latitude>40</latitude><iso_a2>KP</iso_a2><postal>CH</postal><type>Do</type><id>KP.CH</id></desc></path><path d="M497.562956946,255.320877335 L500.974817222,268.399675061 L496.994313566,276.929325751 L499.268887084,283.184402924 L497.562956946,291.145410236 L504.386677498,307.636068237 L511.77904143,314.45978879 L512.916328188,322.420796101 L521.445978879,324.695369618 L513.484971568,336.636880585 L503.249390739,338.342810723 L491.307879773,349.71567831 L468.562144598,357.676685621 L466.28757108,363.363119415 L470.836718115,365.069049553 L471.405361495,372.461413485 L467.424857839,375.304630382 L463.444354184,374.167343623 L448.090982941,385.54021121 L440.698619009,386.10885459 L436.718115353,395.20714866 L430.46303818,388.952071487 L427.051177904,391.226645004 L427.619821284,395.20714866 L419.090170593,396.913078798 L404.305442729,392.932575142 L397.481722177,402.030869212 L394.069861901,400.893582453 L390.658001625,412.83509342 L380.991064175,413.403736799 L382.128350934,416.246953696 L372.461413485,418.521527214 L369.049553209,423.639317628 L365.069049553,420.796100731 L359.951259139,425.345247766 L351.990251828,436.718115353 L353.127538587,444.679122665 L357.108042242,446.385052803 L359.38261576,451.502843217 L353.696181966,462.875710804 L356.539398863,490.170593014 L353.127538587,488.464662876 L355.402112104,481.072298944 L349.71567831,472.542648253 L344.597887896,476.523151909 L343.460601137,475.95450853 L342.891957758,475.95450853 L342.323314379,475.95450853 L341.18602762,475.95450853 L338.911454102,475.95450853 L333.793663688,476.523151909 L328.675873274,475.38586515 L325.264012998,475.38586515 L315.597075548,475.38586515 L313.322502031,476.523151909 L312.185215272,477.091795288 L311.616571893,478.229082047 L311.047928513,478.797725426 L310.479285134,479.935012185 L309.910641755,484.48415922 L309.341998375,486.758732738 L308.773354996,489.601949634 L308.773354996,490.739236393 L308.204711617,491.307879773 L307.067424858,492.445166531 L306.498781478,493.013809911 L303.086921202,493.58245329 L302.518277823,494.151096669 L302.518277823,495.288383428 L303.086921202,500.406173842 L303.086921202,501.543460601 L301.949634444,502.68074736 L292.282696994,500.974817222 L290.008123477,491.307879773 L283.753046304,493.58245329 L280.909829407,487.896019496 L269.53696182,487.896019496 L268.96831844,481.640942323 L272.948822096,467.424857839 L266.693744923,458.326563769 L271.242891958,449.228269699 L270.105605199,441.835905768 L275.223395613,436.149471974 L272.380178716,431.03168156 L278.63525589,417.952883834 L294.557270512,414.541023558 L301.949634444,420.227457352 L310.479285134,416.815597076 L312.753858652,413.403736799 L307.636068237,394.63850528 L320.146222583,377.579203899 L313.89114541,372.461413485 L313.322502031,360.519902518 L308.204711617,354.833468725 L293.419983753,352.558895207 L295.125913891,343.460601137 L301.380991064,334.930950447 L302.518277823,324.126726239 L312.753858652,317.871649066 L320.146222583,316.165718928 L325.832656377,302.518277823 L341.754670999,293.419983753 L341.754670999,288.870836718 L334.930950447,282.047116166 L334.362307067,277.497969131 L344.029244517,255.889520715 L354.264825345,256.458164094 L358.245329001,246.222583266 L361.088545898,245.085296507 L371.324126726,248.497156783 L372.461413485,251.909017059 L370.186839968,264.419171405 L363.363119415,266.693744923 L366.206336312,275.792038993 L355.970755483,286.596263201 L370.755483347,308.773354996 L373.598700244,319.577579204 L381.559707555,321.283509342 L375.873273761,337.205523964 L378.147847279,345.166531275 L395.775792039,333.793663688 L401.462225833,323.558082859 L411.129163282,320.714865963 L419.090170593,325.832656377 L424.776604387,322.98943948 L436.149471974,309.341998375 L440.12997563,296.831844029 L443.541835906,278.63525589 L441.267262388,267.262388302 L456.051990252,264.419171405 L460.032493907,257.026807474 L467.424857839,253.046303818 L468.562144598,243.948009748 L480.503655565,244.516653128 L497.562956946,255.320877335 Z" fill="#cee3f5" id="KP.HN" stroke="#6e6e6e" stroke-width="0.4"><desc><labelrank>6</labelrank><code_hasc>KP.HN</code_hasc><name>Hamgyŏng-namdo</name><admin>North Korea</admin><type_en>Province</type_en><region /><woe_id>2345951</woe_id><longitude>127</longitude><woe_name>Hamgyŏng-namdo</woe_name><fips>KN13</fips><woe_label>Hamgyong-namdo, KP, North Korea</woe_label><latitude>40</latitude><iso_a2>KP</iso_a2><postal>HN</postal><type>Do</type><id>KP.HN</id></desc></path><path d="M54.0211210398,464.012997563 L52.3151909017,461.738424045 L54.5897644192,460.032493907 L54.0211210398,464.012997563 M64.2567018684,453.777416734 L61.9821283509,453.777416734 L64.8253452478,450.365556458 L64.2567018684,453.777416734 M63.688058489,445.816409423 L61.4134849716,449.796913079 L53.4524776604,449.228269699 L57.432981316,445.816409423 L63.688058489,445.816409423 M83.0219333875,452.071486596 L76.1982128351,456.051990252 L85.296506905,440.698619009 L87.5710804224,442.404549147 L85.8651502843,443.541835906 L88.1397238018,449.228269699 L83.0219333875,452.071486596 M143.2981316,305.36149472 L155.808285946,316.165718928 L160.926076361,316.734362307 L162.063363119,321.283509342 L162.632006499,322.98943948 L162.632006499,323.558082859 L162.632006499,324.695369618 L162.632006499,325.264012998 L162.063363119,326.401299756 L160.357432981,329.244516653 L158.651502843,336.636880585 L158.651502843,337.774167344 L159.220146223,338.342810723 L163.200649878,342.891957758 L163.769293258,344.029244517 L163.769293258,345.166531275 L163.200649878,345.735174655 L162.632006499,346.303818034 L162.063363119,346.872461413 L162.063363119,348.009748172 L163.200649878,349.71567831 L166.043866775,353.127538587 L180.828594639,363.931762794 L183.671811535,363.931762794 L187.083671812,362.225832656 L188.78960195,362.225832656 L189.926888708,362.225832656 L193.907392364,364.500406174 L197.31925264,365.069049553 L198.456539399,365.637692933 L200.162469537,367.343623071 L202.437043054,371.324126726 L209.260763607,377.579203899 L213.241267262,383.265637693 L214.9471974,384.971567831 L218.927701056,387.814784728 L221.202274574,388.952071487 L230.300568643,390.089358245 L232.575142161,391.226645004 L236.555645816,392.932575142 L234.849715678,395.20714866 L234.849715678,395.20714866 L234.281072299,398.050365556 L234.281072299,399.187652315 L237.124289196,405.442729488 L237.124289196,406.011372868 L237.124289196,407.148659626 L237.124289196,407.717303006 L237.124289196,408.854589764 L235.987002437,409.423233144 L235.418359058,409.991876523 L232.575142161,411.129163282 L225.751421608,414.541023558 L209.260763607,418.521527214 L205.848903331,417.384240455 L204.142973193,415.678310317 L201.868399675,413.403736799 L200.731112916,412.83509342 L199.025182778,416.246953696 L193.338748985,421.93338749 L191.064175467,423.639317628 L189.358245329,425.913891145 L188.78960195,426.482534525 L187.652315191,426.482534525 L184.240454915,427.051177904 L183.671811535,427.619821284 L183.671811535,428.188464663 L183.671811535,429.325751422 L183.103168156,429.894394801 L182.534524777,430.46303818 L179.1226645,435.012185215 L174.004874086,438.424045491 L166.043866775,441.835905768 L164.337936637,441.267262388 L161.49471974,441.267262388 L160.357432981,441.267262388 L158.082859464,442.973192526 L152.96506905,445.816409423 L146.709991877,448.090982941 L141.592201462,448.65962632 L141.023558083,446.953696182 L123.964256702,454.914703493 L116.57189277,447.522339561 L118.277822908,445.247766044 L111.454102356,445.247766044 L112.591389115,448.65962632 L106.904955321,448.090982941 L105.199025183,442.973192526 L100.081234768,442.973192526 L91.551584078,435.012185215 L89.2770105605,436.718115353 L87.0024370431,435.012185215 L82.4532900081,427.619821284 L71.6490658002,422.502030869 L70.5117790414,417.952883834 L69.3744922827,436.149471974 L64.2567018684,436.718115353 L58.0016246954,442.404549147 L55.7270511779,437.286758733 L59.7075548335,428.757108042 L53.4524776604,424.776604387 L51.7465475223,412.83509342 L36.9618196588,410.560519903 L35.2558895207,404.874086109 L27.863525589,398.050365556 L32.9813160032,395.20714866 L37.5304630382,383.265637693 L46.628757108,384.971567831 L38.0991064175,382.696994314 L34.118602762,374.167343623 L55.7270511779,354.833468725 L70.5117790414,347.441104793 L73.9236393176,340.048740861 L79.6100731113,337.205523964 L89.8456539399,325.264012998 L93.8261575955,329.244516653 L104.630381803,329.244516653 L103.493095045,319.577579204 L127.376116978,309.910641755 L131.356620634,305.36149472 L143.2981316,308.204711617 L143.2981316,305.36149472 Z" fill="#cee3f5" id="KP.PB" stroke="#6e6e6e" stroke-width="0.4"><desc><labelrank>6</labelrank><code_hasc>KP.PB</code_hasc><name>P'yŏngan-bukto</name><admin>North Korea</admin><type_en>Province</type_en><region /><woe_id>2345955</woe_id><longitude>124</longitude><woe_name>P'yŏngan-bukto</woe_name><fips>KN11</fips><woe_label>P'yongan-bukto, KP, North Korea</woe_label><latitude>39</latitude><iso_a2>KP</iso_a2><postal>PB</postal><type>Do</type><id>KP.PB</id></desc></path><path d="M301.949634444,502.68074736 L304.79285134,506.661251015 L305.930138099,508.367181154 L305.36149472,508.935824533 L304.79285134,509.504467912 L301.380991064,511.21039805 L300.243704305,511.77904143 L298.537774167,514.622258327 L296.831844029,520.30869212 L291.145410236,520.8773355 L288.870836718,520.30869212 L282.615759545,515.190901706 L280.909829407,514.053614947 L271.242891958,509.504467912 L269.53696182,509.504467912 L264.419171405,510.641754671 L263.281884647,510.641754671 L261.575954509,510.641754671 L259.301380991,509.504467912 L257.026807474,506.661251015 L256.458164094,506.092607636 L255.320877335,506.661251015 L253.614947197,508.935824533 L253.614947197,512.347684809 L257.026807474,519.171405361 L259.301380991,522.014622258 L259.87002437,522.583265638 L260.43866775,524.857839155 L260.43866775,525.426482535 L261.007311129,526.563769293 L262.144597888,527.701056052 L262.713241267,528.838342811 L263.281884647,529.40698619 L263.281884647,530.544272949 L262.713241267,531.112916328 L261.007311129,531.681559708 L257.595450853,532.250203087 L255.320877335,531.681559708 L254.183590577,531.681559708 L249.065800162,528.269699431 L248.497156783,527.701056052 L247.928513404,528.269699431 L245.653939886,529.975629569 L245.085296507,531.112916328 L246.222583266,534.524776604 L246.791226645,536.799350122 L246.791226645,537.367993501 L246.791226645,537.936636881 L246.791226645,537.936636881 L246.222583266,538.50528026 L245.653939886,539.073923639 L245.085296507,539.642567019 L243.379366369,539.642567019 L242.24207961,539.642567019 L234.849715678,537.367993501 L234.849715678,531.681559708 L234.849715678,530.544272949 L230.869212023,522.014622258 L222.339561332,516.328188465 L219.496344435,506.661251015 L205.848903331,502.68074736 L200.731112916,495.857026807 L193.338748985,499.268887084 L189.926888708,495.857026807 L185.377741673,495.857026807 L181.397238018,504.955320877 L179.1226645,497.562956946 L167.181153534,488.464662876 L156.945572705,494.151096669 L158.082859464,506.092607636 L161.49471974,508.935824533 L151.827782291,516.896831844 L154.102355808,533.387489846 L151.259138911,541.348497157 L145.004061738,545.329000812 L150.121852153,554.427294882 L155.239642567,570.349309504 L151.259138911,569.212022746 L145.004061738,561.819658814 L139.886271324,560.682372055 L137.043054427,553.858651503 L133.062550772,556.7018684 L135.337124289,559.545085297 L133.631194151,560.113728676 L130.787977254,561.819658814 L127.376116978,559.545085297 L125.67018684,561.819658814 L121.689683184,558.976441917 L120.552396426,563.525588952 L116.003249391,561.251015435 L118.277822908,556.13322502 L115.434606011,551.015434606 L113.728675873,550.446791227 L112.591389115,558.407798538 L109.748172218,558.407798538 L105.767668562,552.721364744 L106.904955321,537.936636881 L112.022745735,525.426482535 L119.983753046,512.916328188 L126.807473599,512.916328188 L121.689683184,512.347684809 L122.258326564,503.818034119 L128.513403737,501.543460601 L128.513403737,495.857026807 L135.337124289,495.857026807 L133.631194151,491.876523152 L139.317627945,483.346872461 L136.474411048,482.209585703 L135.337124289,475.95450853 L137.611697807,477.091795288 L141.023558083,473.679935012 L130.787977254,471.405361495 L133.631194151,465.718927701 L129.650690496,466.85621446 L130.219333875,463.444354184 L141.592201462,448.65962632 L146.709991877,448.090982941 L152.96506905,445.816409423 L158.082859464,442.973192526 L160.357432981,441.267262388 L161.49471974,441.267262388 L162.063363119,441.267262388 L164.337936637,441.267262388 L166.043866775,441.835905768 L167.749796913,441.267262388 L174.004874086,438.424045491 L179.1226645,435.012185215 L182.534524777,430.46303818 L183.103168156,429.894394801 L183.671811535,429.325751422 L183.671811535,428.188464663 L183.671811535,427.619821284 L184.240454915,427.051177904 L187.652315191,426.482534525 L188.78960195,426.482534525 L189.358245329,425.913891145 L191.064175467,423.639317628 L193.338748985,421.93338749 L196.750609261,417.384240455 L199.025182778,416.246953696 L200.731112916,412.83509342 L201.868399675,413.403736799 L204.142973193,415.678310317 L205.848903331,417.384240455 L209.260763607,418.521527214 L225.751421608,414.541023558 L232.575142161,411.129163282 L235.418359058,409.991876523 L235.987002437,409.423233144 L237.124289196,408.854589764 L237.124289196,407.717303006 L237.124289196,406.011372868 L237.124289196,405.442729488 L234.281072299,399.187652315 L234.281072299,398.050365556 L234.849715678,395.20714866 L236.555645816,392.932575142 L242.810722989,396.913078798 L255.320877335,391.226645004 L260.43866775,382.128350934 L282.047116166,370.186839968 L293.419983753,352.558895207 L308.204711617,354.833468725 L313.322502031,360.519902518 L313.89114541,372.461413485 L320.146222583,377.579203899 L307.636068237,394.63850528 L312.753858652,413.403736799 L310.479285134,416.815597076 L301.949634444,420.227457352 L294.557270512,414.541023558 L278.63525589,417.952883834 L272.380178716,431.03168156 L275.223395613,436.149471974 L270.105605199,441.835905768 L271.242891958,449.228269699 L266.693744923,458.326563769 L272.948822096,467.424857839 L268.96831844,481.640942323 L269.53696182,487.896019496 L280.909829407,487.896019496 L283.753046304,493.58245329 L290.008123477,491.307879773 L292.282696994,500.974817222 L301.949634444,502.68074736 Z" fill="#cee3f5" id="KP.PN" stroke="#6e6e6e" stroke-width="0.4"><desc><labelrank>6</labelrank><code_hasc>KP.PN</code_hasc><name>P'yŏngan-namdo</name><admin>North Korea</admin><type_en>Province</type_en><region /><woe_id>2345957</woe_id><longitude>126</longitude><woe_name>P'yŏngan-namdo</woe_name><fips>KN10</fips><woe_label>P'yongan-namdo, KP, North Korea</woe_label><latitude>39</latitude><iso_a2>KP</iso_a2><postal>PN</postal><type>Do</type><id>KP.PN</id></desc></path><path d="M494.151096669,130.219333875 L482.778229082,144.435418359 L475.95450853,145.004061738 L478.797725426,159.220146223 L483.915515841,159.788789602 L483.346872461,171.161657189 L485.621445979,178.554021121 L483.346872461,184.240454915 L493.013809911,187.652315191 L496.994313566,194.476035743 L496.994313566,198.456539399 L488.464662876,210.966693745 L490.739236393,219.496344435 L499.268887084,233.14378554 L495.857026807,240.536149472 L499.268887084,251.34037368 L497.562956946,255.320877335 L480.503655565,244.516653128 L468.562144598,243.948009748 L467.424857839,253.046303818 L460.032493907,257.026807474 L456.051990252,264.419171405 L441.267262388,267.262388302 L443.541835906,278.63525589 L440.12997563,296.831844029 L436.149471974,309.341998375 L424.776604387,322.98943948 L419.090170593,325.832656377 L411.129163282,320.714865963 L401.462225833,323.558082859 L395.775792039,333.793663688 L378.147847279,345.166531275 L375.873273761,337.205523964 L381.559707555,321.283509342 L373.598700244,319.577579204 L370.755483347,308.773354996 L355.970755483,286.596263201 L366.206336312,275.792038993 L363.363119415,266.693744923 L370.186839968,264.419171405 L372.461413485,251.909017059 L371.324126726,248.497156783 L361.088545898,245.085296507 L358.245329001,246.222583266 L354.264825345,256.458164094 L344.029244517,255.889520715 L343.460601137,246.222583266 L340.61738424,241.673436231 L334.930950447,242.810722989 L326.969943136,251.34037368 L311.616571893,245.653939886 L305.36149472,232.575142161 L305.36149472,228.025995126 L301.380991064,222.339561332 L297.400487409,209.260763607 L299.106417547,204.711616572 L290.576766856,206.41754671 L288.302193339,203.574329813 L288.870836718,196.181965881 L294.557270512,196.181965881 L302.518277823,188.22095857 L303.086921202,172.298943948 L307.067424858,164.906580016 L311.047928513,167.181153534 L314.45978879,174.573517465 L311.616571893,174.573517465 L312.185215272,179.1226645 L324.126726239,187.083671812 L316.734362307,193.338748985 L319.577579204,195.613322502 L324.126726239,196.181965881 L326.969943136,192.770105605 L334.362307067,194.476035743 L333.225020309,197.887896019 L336.636880585,199.593826158 L359.951259139,200.162469537 L361.657189277,204.711616572 L369.618196588,208.692120227 L371.892770106,206.41754671 L390.658001625,208.692120227 L394.069861901,204.711616572 L400.324939074,203.574329813 L403.168155971,206.41754671 L406.011372868,203.574329813 L407.148659626,211.535337124 L410.560519903,210.398050366 L412.266450041,214.9471974 L416.246953696,213.241267262 L416.246953696,216.084484159 L420.227457352,216.653127539 L436.149471974,189.358245329 L431.03168156,179.1226645 L421.93338749,171.730300569 L415.109666937,154.670999188 L411.129163282,151.827782291 L408.285946385,138.180341186 L409.991876523,134.76848091 L432.737611698,129.650690496 L456.051990252,134.76848091 L462.307067425,134.19983753 L466.85621446,130.219333875 L476.523151909,130.219333875 L477.660438668,127.944760357 L494.151096669,130.219333875 Z" fill="#cee3f5" id="KP.YG" stroke="#6e6e6e" stroke-width="0.4"><desc><labelrank>6</labelrank><code_hasc>KP.YG</code_hasc><name>Ryanggang</name><admin>North Korea</admin><type_en>Province</type_en><region /><woe_id>2345956</woe_id><longitude>127</longitude><woe_name>Ryanggang</woe_name><fips>KN03</fips><woe_label>Yanggang-do, KP, North Korea</woe_label><latitude>40</latitude><iso_a2>KP</iso_a2><postal>YG</postal><type>Do</type><id>KP.YG</id></desc></path><path d="M632.331437855,112.591389115 L631.194151097,113.728675873 L630.056864338,112.022745735 L631.194151097,109.748172218 L632.331437855,112.591389115 M654.508529651,54.5897644192 L657.351746548,67.0999187652 L661.332250203,75.6295694557 L667.018683997,79.6100731113 L669.293257514,89.8456539399 L672.136474411,94.3948009748 L662.469536962,97.806661251 L662.469536962,93.2575142161 L653.939886271,88.1397238018 L649.390739236,88.7083671812 L647.116165719,92.1202274574 L643.704305443,89.8456539399 L641.429731925,94.3948009748 L643.704305443,100.649878148 L640.292445167,98.9439480097 L640.292445167,102.355808286 L634.037367994,109.179528838 L632.900081235,101.787164907 L623.801787165,110.316815597 L622.664500406,102.355808286 L625.507717303,96.1007311129 L630.625507717,89.2770105605 L631.194151097,84.1592201462 L628.919577579,81.3160032494 L629.488220959,77.9041429732 L645.97887896,72.7863525589 L647.684809098,60.2761982128 L647.684809098,60.2761982128 L649.390739236,59.1389114541 L649.390739236,57.432981316 L648.253452478,55.1584077985 L650.528025995,52.3151909017 L654.508529651,54.5897644192 Z" fill="#cee3f5" id="KP.NJ" stroke="#6e6e6e" stroke-width="0.4"><desc><labelrank>6</labelrank><code_hasc>KP.NJ</code_hasc><name>Rasŏn</name><admin>North Korea</admin><type_en>Province</type_en><region /><woe_id>2345958</woe_id><longitude>130</longitude><woe_name>Hamgyŏng-bukto</woe_name><fips>KN04</fips><woe_label>Hamgyong-bukto, KP, North Korea</woe_label><latitude>42</latitude><iso_a2>KP</iso_a2><postal>HG</postal><type>Do</type><id>KP.NJ</id></desc></path></svg>