<?xml version='1.0' encoding='utf-8'?>
<svg height="700" width="700" xmlns="http://www.w3.org/2000/svg"><path d="M685.734168406,635.421016006 L685.734168406,636.534446764 L683.994432846,636.11691023 L684.96868476,634.237995825 L685.734168406,635.421016006 M657.898399443,611.482254697 L655.949895616,609.812108559 L657.411273486,609.672929715 L657.898399443,611.482254697 M649.617258177,606.263048017 L648.364648573,607.724425887 L649.686847599,604.801670146 L649.617258177,606.263048017 M658.66388309,602.574808629 L660.40361865,602.992345164 L657.272094642,602.992345164 L658.524704245,602.783576896 L658.246346555,601.530967293 L658.66388309,602.574808629 M627.070285317,576.061238692 L628.531663187,578.636047321 L625.817675713,576.687543493 L621.572720946,577.313848295 L622.686151705,578.218510786 L620.459290188,576.687543493 L627.070285317,576.061238692 M655.880306193,551.844119694 L655.114822547,552.400835073 L654.697286013,550.452331246 L655.880306193,551.844119694 Z" fill="#cee3f5" id="EG.5847" stroke="#6e6e6e" stroke-width="0.4"><desc><labelrank>20</labelrank><code_hasc>-99</code_hasc><name /><admin>Egypt</admin><type_en /><region /><woe_id>-99</woe_id><longitude>36</longitude><woe_name /><fips /><woe_label /><latitude>22</latitude><iso_a2>EG</iso_a2><postal /><type /><id>EG.5847</id></desc></path><path d="M367.153792624,84.4119693807 L366.805845511,84.3423799582 L366.736256089,84.2032011134 L366.597077244,84.133611691 L366.527487822,84.2727905358 L366.109951287,87.2651356994 L365.622825331,88.9352818372 L365.553235908,89.422407794 L365.831593598,89.7703549061 L366.17954071,89.9095337509 L367.153792624,90.2574808629 L368.19763396,89.7703549061 L369.798190675,89.2832289492 L370.076548365,89.3528183716 L370.285316632,89.4919972164 L370.285316632,90.2574808629 L369.867780097,92.3451635351 L369.241475296,92.7627000696 L368.615170494,92.832289492 L368.058455115,92.9714683368 L367.571329158,93.6673625609 L367.988865692,96.24217119 L367.014613779,97.2164231037 L366.875434934,97.7035490605 L367.571329158,98.3994432846 L366.875434934,98.7473903967 L366.457898399,98.8169798191 L367.501739736,99.652052888 L367.571329158,99.9304105776 L367.571329158,100.556715379 L367.432150313,100.765483646 L366.875434934,100.974251914 L365.622825331,101.391788448 L365.344467641,101.600556715 L368.475991649,112.734864301 L368.406402227,114.405010438 L367.571329158,117.32776618 L367.432150313,118.78914405 L363.117606124,114.335421016 L358.66388309,113.639526792 L356.993736952,110.99512874 L353.514265832,111.55184412 L349.756437022,109.25539318 L342.588726514,111.482254697 L341.405706333,109.25539318 L342.449547669,106.263048017 L340.292275574,105.49756437 L343.771746695,102.226861517 L340.779401531,102.226861517 L342.519137091,99.652052888 L340.501043841,98.5386221294 L341.892832289,96.24217119 L340.848990953,92.4147529576 L341.753653445,91.0925539318 L345.511482255,92.48434238 L355.880306193,89.7703549061 L357.550452331,83.7160751566 L362.212943633,84.4119693807 L364.648573417,82.9505915101 L365.762004175,83.1593597773 L366.109951287,83.3681280445 L367.153792624,84.4119693807 Z" fill="#cee3f5" id="EG.GH" stroke="#6e6e6e" stroke-width="0.4"><desc><labelrank>6</labelrank><code_hasc>EG.GH</code_hasc><name>Al Gharbiyah</name><admin>Egypt</admin><type_en>Governorate</type_en><region /><woe_id>2345227</woe_id><longitude>31</longitude><woe_name>Al Gharbiyah</woe_name><fips>EG05</fips><woe_label>Al Gharbiyah, EG, Egypt</woe_label><latitude>30</latitude><iso_a2>EG</iso_a2><postal>GH</postal><type>Muhafazah</type><id>EG.GH</id></desc></path><path d="M440.709812109,92.4147529576 L443.284620738,114.196242171 L443.423799582,119.832985386 L443.63256785,121.08559499 L443.841336117,121.990257481 L443.980514962,122.199025748 L443.980514962,122.199025748 L449.13013222,130.132219903 L452.122477383,137.5782881 L440.013917884,137.230340988 L433.542101601,141.057759221 L421.990257481,138.691718859 L402.296450939,139.526791928 L399.791231733,132.846207376 L397.912317328,124.008350731 L397.355601949,122.477383438 L395.615866388,120.459290188 L395.337508699,119.763395964 L395.337508699,119.137091162 L395.476687543,118.928322895 L395.615866388,118.78914405 L395.894224078,118.858733473 L396.24217119,118.928322895 L396.52052888,118.928322895 L399.164926931,119.693806541 L401.530967293,119.693806541 L402.992345164,119.485038274 L403.827418232,119.206680585 L405.219206681,118.928322895 L406.819763396,118.858733473 L409.951287404,116.214335421 L414.683368128,108.977035491 L415.240083507,107.306889353 L414.474599861,103.966597077 L414.474599861,101.600556715 L415.170494085,100.0 L415.518441197,98.8865692415 L416.214335421,97.5643702157 L416.979819068,95.1983298539 L418.580375783,93.180236604 L418.858733473,92.2059846903 L418.928322895,90.6750173974 L418.441196938,88.7265135699 L415.657620042,85.5254001392 L420.320111343,84.9686847599 L422.26861517,84.4815588031 L423.660403619,83.785664579 L440.709812109,92.4147529576 Z" fill="#cee3f5" id="EG.IS" stroke="#6e6e6e" stroke-width="0.4"><desc><labelrank>7</labelrank><code_hasc>EG.IS</code_hasc><name>Al Isma`iliyah</name><admin>Egypt</admin><type_en>Governorate</type_en><region /><woe_id>2345229</woe_id><longitude>32</longitude><woe_name>Al Isma`iliyah</woe_name><fips>EG07</fips><woe_label>Al Isma'iliyah, EG, Egypt</woe_label><latitude>30</latitude><iso_a2>EG</iso_a2><postal>IS</postal><type>Muhafazah</type><id>EG.IS</id></desc></path><path d="M367.432150313,118.78914405 L367.988865692,119.554627697 L366.17954071,119.137091162 L366.17954071,121.711899791 L361.169102296,126.235212248 L360.542797495,129.018789144 L359.220598469,128.114126653 L359.568545581,130.271398747 L356.784968685,130.758524704 L359.359777314,133.402922756 L359.777313848,140.083507307 L361.656228253,143.35421016 L356.993736952,140.292275574 L353.235908142,140.779401531 L349.199721642,133.194154489 L344.606819763,133.333333333 L344.606819763,131.593597773 L347.11203897,130.897703549 L345.233124565,129.088378566 L344.467640919,123.034098817 L345.581071677,119.972164231 L344.119693807,119.554627697 L344.885177453,117.397355602 L343.07585247,115.727209464 L342.588726514,111.482254697 L349.756437022,109.25539318 L353.514265832,111.55184412 L356.993736952,110.99512874 L358.66388309,113.639526792 L363.117606124,114.335421016 L367.432150313,118.78914405 Z" fill="#cee3f5" id="EG.MF" stroke="#6e6e6e" stroke-width="0.4"><desc><labelrank>6</labelrank><code_hasc>EG.MF</code_hasc><name>Al Minufiyah</name><admin>Egypt</admin><type_en>Governorate</type_en><region /><woe_id>2345231</woe_id><longitude>31</longitude><woe_name>Al Minufiyah</woe_name><fips>EG09</fips><woe_label>Al Minufiyah, EG, Egypt</woe_label><latitude>30</latitude><iso_a2>EG</iso_a2><postal>MF</postal><type>Muhafazah</type><id>EG.MF</id></desc></path><path d="M402.296450939,139.526791928 L404.801670146,167.849686848 L369.728601253,169.519832985 L369.589422408,161.586638831 L365.831593598,153.862212944 L366.736256089,147.11203897 L371.607515658,143.980514962 L386.221294363,142.310368824 L399.791231733,132.846207376 L402.296450939,139.526791928 Z" fill="#cee3f5" id="EG.QH" stroke="#6e6e6e" stroke-width="0.4"><desc><labelrank>9</labelrank><code_hasc>EG.QH</code_hasc><name>Al Qahirah</name><admin>Egypt</admin><type_en>Governorate</type_en><region /><woe_id>2345233</woe_id><longitude>31</longitude><woe_name>Al Qahirah</woe_name><fips>EG11</fips><woe_label>Al Qahirah, EG, Egypt</woe_label><latitude>29</latitude><iso_a2>EG</iso_a2><postal>QH</postal><type>Muhafazah</type><id>EG.QH</id></desc></path><path d="M386.221294363,142.310368824 L371.607515658,143.980514962 L366.736256089,147.11203897 L366.249130132,145.441892832 L361.656228253,143.35421016 L359.777313848,140.083507307 L359.359777314,133.402922756 L356.784968685,130.758524704 L359.568545581,130.271398747 L359.220598469,128.114126653 L360.542797495,129.018789144 L361.169102296,126.235212248 L366.17954071,121.711899791 L366.17954071,119.137091162 L367.988865692,119.554627697 L367.432150313,118.78914405 L367.571329158,117.32776618 L369.171885873,117.884481559 L369.867780097,118.441196938 L371.746694502,117.884481559 L372.929714683,118.232428671 L370.354906054,120.250521921 L369.728601253,121.08559499 L368.615170494,126.861517049 L368.963117606,127.279053584 L369.93736952,128.04453723 L370.424495477,129.157967989 L371.885873347,130.897703549 L372.442588727,131.732776618 L372.860125261,133.263743911 L373.834377175,135.56019485 L374.808629088,136.673625609 L386.221294363,142.310368824 Z" fill="#cee3f5" id="EG.QL" stroke="#6e6e6e" stroke-width="0.4"><desc><labelrank>6</labelrank><code_hasc>EG.QL</code_hasc><name>Al Qalyubiyah</name><admin>Egypt</admin><type_en>Governorate</type_en><region /><woe_id>2345234</woe_id><longitude>31</longitude><woe_name>Al Qalyubiyah</woe_name><fips>EG12</fips><woe_label>Al Qalyobiyah, EG, Egypt</woe_label><latitude>30</latitude><iso_a2>EG</iso_a2><postal>QL</postal><type>Muhafazah</type><id>EG.QL</id></desc></path><path d="M372.929714683,118.232428671 L374.460681976,115.518441197 L373.208072373,108.559498956 L374.182324287,105.219206681 L385.038274182,103.549060543 L396.24217119,87.0563674322 L405.149617258,85.8733472512 L410.786360473,83.0201809325 L411.760612387,84.3423799582 L410.299234516,85.664578984 L412.526096033,85.7341684064 L413.778705637,87.6826722338 L415.100904662,86.9171885873 L413.29157968,85.1774530271 L415.657620042,86.012526096 L416.631871955,87.6130828114 L417.466945024,88.0306193459 L418.441196938,88.7265135699 L418.928322895,90.6750173974 L418.858733473,92.2059846903 L418.580375783,93.180236604 L416.979819068,95.1983298539 L416.214335421,97.5643702157 L415.518441197,98.8865692415 L415.170494085,100.0 L414.474599861,101.600556715 L414.474599861,103.966597077 L415.240083507,107.306889353 L414.683368128,108.977035491 L409.951287404,116.214335421 L406.819763396,118.858733473 L405.219206681,118.928322895 L403.827418232,119.206680585 L401.530967293,119.693806541 L399.164926931,119.693806541 L396.52052888,118.928322895 L396.24217119,118.928322895 L395.894224078,118.858733473 L395.615866388,118.78914405 L395.476687543,118.928322895 L395.337508699,119.137091162 L395.337508699,119.763395964 L395.615866388,120.459290188 L397.355601949,122.477383438 L397.912317328,124.008350731 L399.791231733,132.846207376 L386.221294363,142.310368824 L374.808629088,136.673625609 L373.834377175,135.56019485 L372.860125261,133.263743911 L372.442588727,131.732776618 L371.885873347,130.897703549 L370.424495477,129.157967989 L369.93736952,128.04453723 L368.963117606,127.279053584 L368.615170494,126.861517049 L369.728601253,121.08559499 L370.354906054,120.250521921 L372.929714683,118.232428671 M423.660403619,83.785664579 L422.26861517,84.4815588031 L420.320111343,84.9686847599 L415.448851775,85.1774530271 L417.884481559,83.1593597773 L419.763395964,84.4119693807 L422.686151705,83.5073068894 L422.129436326,80.3061934586 L423.451635351,80.2366040362 L423.451635351,80.2366040362 L423.521224774,80.3061934586 L423.660403619,83.785664579 Z" fill="#cee3f5" id="EG.SQ" stroke="#6e6e6e" stroke-width="0.4"><desc><labelrank>6</labelrank><code_hasc>EG.SQ</code_hasc><name>Ash Sharqiyah</name><admin>Egypt</admin><type_en>Governorate</type_en><region /><woe_id>2345236</woe_id><longitude>31</longitude><woe_name>Ash Sharqiyah</woe_name><fips>EG14</fips><woe_label>Ash Sharquiyah, EG, Egypt</woe_label><latitude>30</latitude><iso_a2>EG</iso_a2><postal>SQ</postal><type>Muhafazah</type><id>EG.SQ</id></desc></path><path d="M452.122477383,137.5782881 L454.140570633,156.228253305 L454.62769659,157.550452331 L455.114822547,158.3855254 L455.532359081,159.011830202 L444.537230341,166.945024356 L444.467640919,166.945024356 L441.892832289,164.857341684 L442.936673626,161.656228253 L439.944328462,158.246346555 L439.87473904,153.096729297 L439.944328462,157.411273486 L436.743215031,156.228253305 L434.794711204,158.107167711 L434.585942937,161.308281141 L436.604036186,162.212943633 L430.271398747,170.633263744 L427.348643006,179.1927627 L430.201809325,183.785664579 L440.988169798,193.528183716 L445.302713987,209.116214335 L440.013917884,209.25539318 L438.970076548,209.394572025 L436.673625609,210.160055672 L417.118997912,219.06750174 L404.244954767,220.250521921 L401.878914405,219.206680585 L404.801670146,167.849686848 L402.296450939,139.526791928 L421.990257481,138.691718859 L433.542101601,141.057759221 L440.013917884,137.230340988 L452.122477383,137.5782881 Z" fill="#cee3f5" id="EG.SW" stroke="#6e6e6e" stroke-width="0.4"><desc><labelrank>9</labelrank><code_hasc>EG.SW</code_hasc><name>As Suways</name><admin>Egypt</admin><type_en>Governorate</type_en><region /><woe_id>2345237</woe_id><longitude>32</longitude><woe_name>As Suways</woe_name><fips>EG15</fips><woe_label>As Suways, EG, Egypt</woe_label><latitude>29</latitude><iso_a2>EG</iso_a2><postal>SW</postal><type>Muhafazah</type><id>EG.SW</id></desc></path><path d="M421.711899791,72.7905358386 L419.415448852,73.4864300626 L419.06750174,72.4425887265 L421.711899791,72.7905358386 M413.430758525,68.267223382 L418.649965205,72.4425887265 L411.621433542,68.7543493389 L413.430758525,68.267223382 M410.786360473,83.0201809325 L405.149617258,85.8733472512 L396.24217119,87.0563674322 L385.038274182,103.549060543 L374.182324287,105.219206681 L373.208072373,108.559498956 L374.460681976,115.518441197 L372.929714683,118.232428671 L371.746694502,117.884481559 L369.867780097,118.441196938 L369.171885873,117.884481559 L367.571329158,117.32776618 L368.406402227,114.405010438 L368.475991649,112.734864301 L365.344467641,101.600556715 L365.622825331,101.391788448 L366.875434934,100.974251914 L367.432150313,100.765483646 L367.571329158,100.556715379 L367.571329158,99.9304105776 L367.501739736,99.652052888 L367.153792624,99.3041057759 L366.805845511,99.0257480863 L366.457898399,98.8169798191 L366.875434934,98.7473903967 L367.292971468,98.469032707 L367.571329158,98.3994432846 L366.875434934,97.7035490605 L367.014613779,97.2164231037 L367.988865692,96.24217119 L367.571329158,93.6673625609 L368.058455115,92.9714683368 L368.615170494,92.832289492 L369.241475296,92.7627000696 L369.867780097,92.3451635351 L370.285316632,90.2574808629 L370.285316632,89.4919972164 L370.076548365,89.3528183716 L369.798190675,89.2832289492 L368.19763396,89.7703549061 L367.153792624,90.2574808629 L366.17954071,89.9095337509 L365.831593598,89.7703549061 L365.553235908,89.422407794 L365.622825331,88.9352818372 L366.109951287,87.2651356994 L366.527487822,84.2727905358 L366.597077244,84.133611691 L366.736256089,84.2032011134 L366.805845511,84.3423799582 L367.153792624,84.4119693807 L369.171885873,83.2985386221 L369.93736952,83.0897703549 L369.798190675,82.5330549756 L368.823938761,81.6283924843 L368.545581072,81.1412665275 L368.475991649,80.5845511482 L368.963117606,79.1231732777 L369.171885873,78.0793319415 L369.102296451,76.2700069589 L368.893528184,74.1127348643 L368.963117606,69.3806541406 L368.475991649,65.5532359081 L368.336812804,64.9269311065 L368.058455115,64.3702157272 L367.084203201,63.1871955463 L366.945024356,62.630480167 L367.153792624,61.5866388309 L367.292971468,61.1691022965 L368.684759916,60.1252609603 L372.581767571,57.9679888657 L372.581767571,57.9679888657 L384.620737648,63.3263743911 L384.551148225,63.4655532359 L384.411969381,64.0222686152 L384.272790536,64.3702157272 L383.994432846,64.8573416841 L381.767571329,66.5970772443 L380.862908838,67.7105080028 L380.723729993,67.9888656924 L380.793319415,68.3368128045 L381.21085595,68.6151704941 L383.994432846,69.1718858733 L384.272790536,70.7724425887 L388.030619346,72.9297146834 L388.935281837,70.7028531663 L389.979123173,70.2853166319 L390.257480863,70.2157272095 L390.605427975,70.2157272095 L390.814196242,70.7028531663 L391.092553932,71.67710508 L390.883785665,71.9554627697 L390.883785665,72.4425887265 L391.231732777,72.9297146834 L391.022964509,73.208072373 L390.605427975,73.208072373 L390.118302018,72.7905358386 L389.770354906,72.7905358386 L389.631176061,72.9993041058 L389.561586639,73.208072373 L389.422407794,73.6951983299 L390.396659708,74.2519137091 L390.327070285,74.9478079332 L389.561586639,75.5741127349 L387.613082811,75.9220598469 L387.961029923,77.5922059847 L386.98677801,78.9839944328 L386.012526096,79.2623521225 L386.360473208,80.5845511482 L386.778009743,80.8629088379 L390.46624913,78.2185107864 L391.858037578,77.4530271399 L394.293667363,76.8267223382 L395.894224078,75.7132915797 L396.729297147,73.6951983299 L396.798886569,73.6951983299 L396.450939457,73.2776617954 L401.670146138,77.1050800278 L402.783576896,75.2957550452 L402.087682672,77.5226165623 L403.897007655,77.8705636743 L403.897007655,79.4015309673 L407.167710508,76.617954071 L409.881697982,77.4530271399 L408.768267223,83.0201809325 L410.786360473,83.0201809325 Z" fill="#cee3f5" id="EG.DQ" stroke="#6e6e6e" stroke-width="0.4"><desc><labelrank>6</labelrank><code_hasc>EG.DQ</code_hasc><name>Ad Daqahliyah</name><admin>Egypt</admin><type_en>Governorate</type_en><region /><woe_id>2345223</woe_id><longitude>31</longitude><woe_name>Ad Daqahliyah</woe_name><fips>EG01</fips><woe_label>Ad Daqahliyah, EG, Egypt</woe_label><latitude>31</latitude><iso_a2>EG</iso_a2><postal>DQ</postal><type>Muhafazah</type><id>EG.DQ</id></desc></path><path d="M440.709812109,92.4147529576 L423.660403619,83.785664579 L423.521224774,80.3061934586 L423.451635351,80.2366040362 L423.590814196,80.3061934586 L423.869171886,77.5226165623 L421.711899791,72.7905358386 L425.817675713,73.8343771747 L435.56019485,84.0640222686 L440.501043841,86.8475991649 L440.501043841,86.9171885873 L440.709812109,92.4147529576 Z" fill="#cee3f5" id="EG.BS" stroke="#6e6e6e" stroke-width="0.4"><desc><labelrank>9</labelrank><code_hasc>EG.BS</code_hasc><name>Bur Sa`id</name><admin>Egypt</admin><type_en>Governorate</type_en><region /><woe_id>2345241</woe_id><longitude>32</longitude><woe_name>Bur Sa`id</woe_name><fips>EG19</fips><woe_label>Bur Sa'id, EG, Egypt</woe_label><latitude>31</latitude><iso_a2>EG</iso_a2><postal>BS</postal><type>Muhafazah</type><id>EG.BS</id></desc></path><path d="M412.874043145,68.0584551148 L407.51565762,66.2491301322 L406.054279749,63.6047320807 L407.376478775,63.5351426583 L403.270702853,58.1767571329 L400.417536534,58.1071677105 L399.304105776,59.8469032707 L400.417536534,59.7773138483 L401.183020181,64.16144746 L399.164926931,61.9345859429 L398.26026444,63.2567849687 L400.069589422,63.2567849687 L401.183020181,64.9965205289 L398.608211552,65.4836464857 L398.469032707,67.9888656924 L400.139178845,68.8935281837 L396.798886569,68.5455810717 L396.798886569,71.6075156576 L395.337508699,72.3729993041 L395.546276966,73.8343771747 L396.729297147,73.6951983299 L395.894224078,75.7132915797 L394.293667363,76.8267223382 L391.858037578,77.4530271399 L390.46624913,78.2185107864 L386.778009743,80.8629088379 L386.360473208,80.5845511482 L386.012526096,79.2623521225 L386.98677801,78.9839944328 L387.961029923,77.5922059847 L387.613082811,75.9220598469 L389.561586639,75.5741127349 L390.327070285,74.9478079332 L390.396659708,74.2519137091 L389.422407794,73.6951983299 L389.561586639,73.208072373 L389.631176061,72.9993041058 L389.770354906,72.7905358386 L390.118302018,72.7905358386 L390.605427975,73.208072373 L391.022964509,73.208072373 L391.231732777,72.9297146834 L390.883785665,72.4425887265 L390.883785665,71.9554627697 L391.092553932,71.67710508 L390.814196242,70.7028531663 L390.605427975,70.2157272095 L390.257480863,70.2157272095 L389.979123173,70.2853166319 L388.935281837,70.7028531663 L388.865692415,70.9812108559 L388.865692415,71.1899791232 L388.865692415,72.3729993041 L388.030619346,72.9297146834 L384.272790536,70.7724425887 L383.994432846,69.1718858733 L381.21085595,68.6151704941 L380.793319415,68.3368128045 L380.723729993,67.9888656924 L380.862908838,67.7105080028 L381.767571329,66.5970772443 L383.994432846,64.8573416841 L384.272790536,64.3702157272 L384.620737648,63.3263743911 L384.620737648,63.3263743911 L386.012526096,63.2567849687 L394.154488518,60.8907446068 L400.904662491,57.4112734864 L404.732080724,58.3159359777 L409.116214335,65.9011830202 L412.874043145,68.0584551148 Z" fill="#cee3f5" id="EG.DT" stroke="#6e6e6e" stroke-width="0.4"><desc><labelrank>9</labelrank><code_hasc>EG.DT</code_hasc><name>Dumyat</name><admin>Egypt</admin><type_en>Governorate</type_en><region /><woe_id>2345242</woe_id><longitude>31</longitude><woe_name>Dumyat</woe_name><fips>EG20</fips><woe_label>Dumyat, EG, Egypt</woe_label><latitude>31</latitude><iso_a2>EG</iso_a2><postal>DT</postal><type>Muhafazah</type><id>EG.DT</id></desc></path><path d="M277.592205985,90.3270702853 L278.566457898,132.707028532 L281.071677105,138.065414057 L316.840640223,160.68197634 L273.834377175,186.499652053 L237.369519833,222.059846903 L226.026443981,230.34098817 L177.45302714,242.379958246 L173.208072373,247.459986082 L147.529575505,298.190675017 L15.866388309,293.110647182 L20.6680584551,197.425191371 L15.2400835073,176.757132916 L16.0751565762,168.19763396 L12.5956854558,158.037578288 L13.6395267919,152.052887961 L7.86360473208,133.263743911 L13.0132219903,124.147529576 L21.0160055672,113.987473904 L26.7223382046,96.1029923452 L21.503131524,79.7494780793 L20.7376478775,60.0556715379 L21.503131524,58.1071677105 L30.7585247042,51.4265831594 L34.6555323591,44.0501043841 L38.1350034795,41.5448851775 L39.9443284621,49.5476687543 L51.2178148921,51.9137091162 L74.3910925539,45.9986082116 L82.1155184412,46.2769659012 L103.201113431,53.1663187196 L124.28670842,56.8545581072 L130.271398747,59.6381350035 L135.699373695,59.0118302018 L149.617258177,64.7181628392 L154.697286013,64.0222686152 L158.3855254,72.1642310369 L161.238691719,74.1823242867 L172.720946416,77.3138482951 L183.298538622,73.8343771747 L185.455810717,81.8371607516 L187.056367432,82.8114126653 L199.373695198,83.5073068894 L208.211551844,85.8733472512 L213.987473904,84.4815588031 L234.864300626,92.9018789144 L236.11691023,95.8246346555 L246.485734168,101.322199026 L256.854558107,100.835073069 L277.592205985,90.3270702853 Z" fill="#cee3f5" id="EG.MT" stroke="#6e6e6e" stroke-width="0.4"><desc><labelrank>6</labelrank><code_hasc>EG.MT</code_hasc><name>Matruh</name><admin>Egypt</admin><type_en>Governorate</type_en><region /><woe_id>2345244</woe_id><longitude>27</longitude><woe_name>Matruh</woe_name><fips>EG22</fips><woe_label>Matruh, EG, Egypt</woe_label><latitude>29</latitude><iso_a2>EG</iso_a2><postal>MT</postal><type>Muhafazah</type><id>EG.MT</id></desc></path><path d="M321.224773834,63.3263743911 L324.425887265,69.3806541406 L325.748086291,68.9631176061 L327.627000696,70.6332637439 L326.30480167,76.3395963814 L327.418232429,76.3395963814 L327.974947808,78.9144050104 L330.410577592,78.7752261656 L337.439109255,85.5254001392 L340.848990953,92.4147529576 L341.892832289,96.24217119 L340.501043841,98.5386221294 L342.519137091,99.652052888 L340.779401531,102.226861517 L343.771746695,102.226861517 L340.292275574,105.49756437 L342.449547669,106.263048017 L341.405706333,109.25539318 L342.588726514,111.482254697 L343.07585247,115.727209464 L344.885177453,117.397355602 L344.119693807,119.554627697 L345.581071677,119.972164231 L344.467640919,123.034098817 L345.233124565,129.088378566 L347.11203897,130.897703549 L344.606819763,131.593597773 L344.606819763,133.333333333 L319.06750174,156.158663883 L316.840640223,160.68197634 L281.071677105,138.065414057 L278.566457898,132.707028532 L281.906750174,124.8434238 L284.342379958,122.338204593 L295.267919276,116.840640223 L299.930410578,110.160055672 L292.136395268,96.3117606124 L294.572025052,90.7446068198 L292.275574113,86.2908837857 L300.139178845,81.7675713292 L304.940848991,73.208072373 L308.907446068,74.1127348643 L307.167710508,76.2700069589 L308.489909534,77.5226165623 L310.786360473,76.2004175365 L311.482254697,77.3138482951 L314.126652749,74.5302713987 L315.170494085,76.2700069589 L315.170494085,73.6951983299 L309.324982603,73.6951983299 L316.562282533,69.1718858733 L318.51078636,64.7181628392 L318.302018093,59.9164926931 L321.224773834,63.3263743911 Z" fill="#cee3f5" id="EG.BH" stroke="#6e6e6e" stroke-width="0.4"><desc><labelrank>6</labelrank><code_hasc>EG.BH</code_hasc><name>Al Buhayrah</name><admin>Egypt</admin><type_en>Governorate</type_en><region /><woe_id>2345225</woe_id><longitude>30</longitude><woe_name>Al Buhayrah</woe_name><fips>EG03</fips><woe_label>Al Buhayrah, EG, Egypt</woe_label><latitude>30</latitude><iso_a2>EG</iso_a2><postal>BH</postal><type>Muhafazah</type><id>EG.BH</id></desc></path><path d="M359.359777314,192.20598469 L346.207376479,209.812108559 L341.544885177,212.178148921 L318.441196938,218.580375783 L315.866388309,218.78914405 L312.178148921,216.075156576 L288.169798191,211.482254697 L318.162839248,183.507306889 L339.735560195,172.372999304 L351.287404315,170.981210856 L353.862212944,172.929714683 L355.393180237,174.530271399 L359.359777314,192.20598469 Z" fill="#cee3f5" id="EG.FY" stroke="#6e6e6e" stroke-width="0.4"><desc><labelrank>9</labelrank><code_hasc>EG.FY</code_hasc><name>Al Fayyum</name><admin>Egypt</admin><type_en>Governorate</type_en><region /><woe_id>2345226</woe_id><longitude>30</longitude><woe_name>Al Fayyum</woe_name><fips>EG04</fips><woe_label>Al Fayyum, EG, Egypt</woe_label><latitude>29</latitude><iso_a2>EG</iso_a2><postal>FY</postal><type>Muhafazah</type><id>EG.FY</id></desc></path><path d="M304.940848991,73.208072373 L300.139178845,81.7675713292 L292.275574113,86.2908837857 L294.572025052,90.7446068198 L292.136395268,96.3117606124 L299.930410578,110.160055672 L295.267919276,116.840640223 L284.342379958,122.338204593 L281.906750174,124.8434238 L278.566457898,132.707028532 L277.592205985,90.3270702853 L287.682672234,81.6979819068 L290.74460682,81.3500347947 L293.319415449,79.1231732777 L292.136395268,78.7056367432 L292.901878914,77.5922059847 L294.015309673,78.2881002088 L301.878914405,70.9812108559 L303.409881698,70.1461377871 L303.201113431,71.9554627697 L304.940848991,73.208072373 Z" fill="#cee3f5" id="EG.IK" stroke="#6e6e6e" stroke-width="0.4"><desc><labelrank>9</labelrank><code_hasc>EG.IK</code_hasc><name>Al Iskandariyah</name><admin>Egypt</admin><type_en>Governorate</type_en><region /><woe_id>2345228</woe_id><longitude>29</longitude><woe_name>Al Iskandariyah</woe_name><fips>EG06</fips><woe_label>Al Iskandariyah, EG, Egypt</woe_label><latitude>30</latitude><iso_a2>EG</iso_a2><postal>IK</postal><type>Muhafazah</type><id>EG.IK</id></desc></path><path d="M361.656228253,143.35421016 L366.249130132,145.441892832 L366.736256089,147.11203897 L365.831593598,153.862212944 L369.589422408,161.586638831 L369.728601253,169.519832985 L404.801670146,167.849686848 L401.878914405,219.206680585 L381.419624217,213.152400835 L380.375782881,212.665274878 L378.775226166,211.691022965 L375.504523312,208.559498956 L373.41684064,204.940848991 L371.885873347,203.47947112 L367.780097425,198.538622129 L366.17954071,193.528183716 L359.359777314,192.20598469 L355.393180237,174.530271399 L353.862212944,172.929714683 L351.287404315,170.981210856 L339.735560195,172.372999304 L318.162839248,183.507306889 L288.169798191,211.482254697 L284.272790536,232.150313152 L275.017397356,255.671537926 L267.780097425,264.926931106 L259.290187891,271.120389701 L229.157967989,287.265135699 L222.129436326,300.069589422 L147.529575505,298.190675017 L173.208072373,247.459986082 L177.45302714,242.379958246 L226.026443981,230.34098817 L237.369519833,222.059846903 L273.834377175,186.499652053 L316.840640223,160.68197634 L319.06750174,156.158663883 L344.606819763,133.333333333 L349.199721642,133.194154489 L353.235908142,140.779401531 L356.993736952,140.292275574 L361.656228253,143.35421016 Z" fill="#cee3f5" id="EG.JZ" stroke="#6e6e6e" stroke-width="0.4"><desc><labelrank>6</labelrank><code_hasc>EG.JZ</code_hasc><name>Al Jizah</name><admin>Egypt</admin><type_en>Governorate</type_en><region /><woe_id>2345230</woe_id><longitude>29</longitude><woe_name>Al Jizah</woe_name><fips>EG08</fips><woe_label>Al Jizah, EG, Egypt</woe_label><latitude>29</latitude><iso_a2>EG</iso_a2><postal>JZ</postal><type>Muhafazah</type><id>EG.JZ</id></desc></path><path d="M350.59151009,235.281837161 L348.85177453,250.661099513 L348.573416841,251.983298539 L345.511482255,257.341684064 L343.910925539,261.517049408 L343.562978427,262.908837857 L343.423799582,264.091858038 L344.050104384,267.571329158 L344.328462074,270.285316632 L344.398051496,271.050800278 L348.573416841,280.167014614 L351.14822547,293.876130828 L350.452331246,304.314544189 L344.398051496,305.010438413 L335.281837161,303.409881698 L336.186499652,301.252609603 L222.129436326,300.069589422 L229.157967989,287.265135699 L259.290187891,271.120389701 L267.780097425,264.926931106 L275.017397356,255.671537926 L284.272790536,232.150313152 L340.848990953,231.176061239 L341.892832289,232.219902575 L350.59151009,235.281837161 Z" fill="#cee3f5" id="EG.MN" stroke="#6e6e6e" stroke-width="0.4"><desc><labelrank>9</labelrank><code_hasc>EG.MN</code_hasc><name>Al Minya</name><admin>Egypt</admin><type_en>Governorate</type_en><region /><woe_id>2345232</woe_id><longitude>30</longitude><woe_name>Al Minya</woe_name><fips>EG10</fips><woe_label>Al Minya, EG, Egypt</woe_label><latitude>28</latitude><iso_a2>EG</iso_a2><postal>MN</postal><type>Muhafazah</type><id>EG.MN</id></desc></path><path d="M367.780097425,198.538622129 L367.571329158,201.183020181 L367.780097425,203.688239388 L367.710508003,204.592901879 L365.692414753,209.672929715 L364.996520529,211.064718163 L364.231036882,212.247738344 L361.795407098,214.892136395 L360.264439805,216.910229645 L357.063326374,222.129436326 L353.305497564,227.070285317 L352.122477383,229.227557411 L351.078636047,232.150313152 L350.730688935,234.029227557 L350.59151009,235.281837161 L341.892832289,232.219902575 L340.848990953,231.176061239 L284.272790536,232.150313152 L288.169798191,211.482254697 L312.178148921,216.075156576 L315.866388309,218.78914405 L318.441196938,218.580375783 L341.544885177,212.178148921 L346.207376479,209.812108559 L359.359777314,192.20598469 L366.17954071,193.528183716 L367.780097425,198.538622129 Z" fill="#cee3f5" id="EG.BN" stroke="#6e6e6e" stroke-width="0.4"><desc><labelrank>9</labelrank><code_hasc>EG.BN</code_hasc><name>Bani Suwayf</name><admin>Egypt</admin><type_en>Governorate</type_en><region /><woe_id>2345240</woe_id><longitude>30</longitude><woe_name>Bani Suwayf</woe_name><fips>EG18</fips><woe_label>Bani Suwayf, EG, Egypt</woe_label><latitude>28</latitude><iso_a2>EG</iso_a2><postal>BN</postal><type>Muhafazah</type><id>EG.BN</id></desc></path><path d="M367.153792624,84.4119693807 L366.109951287,83.3681280445 L365.762004175,83.1593597773 L364.648573417,82.9505915101 L362.212943633,84.4119693807 L357.550452331,83.7160751566 L355.880306193,89.7703549061 L345.511482255,92.48434238 L341.753653445,91.0925539318 L340.848990953,92.4147529576 L337.439109255,85.5254001392 L330.410577592,78.7752261656 L327.974947808,78.9144050104 L327.418232429,76.3395963814 L326.30480167,76.3395963814 L327.627000696,70.6332637439 L325.748086291,68.9631176061 L324.425887265,69.3806541406 L321.224773834,63.3263743911 L319.276270007,59.220598469 L324.356297843,62.1433542102 L328.670842032,62.0737647878 L352.331245651,54.4189283229 L333.611691023,63.9526791928 L329.853862213,64.7181628392 L329.018789144,66.4578983994 L333.542101601,66.8754349339 L336.186499652,64.7877522617 L339.387613083,66.8754349339 L342.797494781,63.2567849687 L347.877522617,64.9269311065 L350.452331246,62.5608907446 L352.679192763,63.8830897704 L355.323590814,58.6638830898 L359.707724426,60.40361865 L360.751565762,58.8030619346 L357.550452331,55.7411273486 L352.540013918,54.5581071677 L358.942240779,53.0967292971 L365.622825331,54.8364648573 L372.581767571,57.9679888657 L372.581767571,57.9679888657 L368.684759916,60.1252609603 L367.292971468,61.1691022965 L367.153792624,61.5866388309 L367.014613779,62.1433542102 L366.945024356,62.630480167 L367.084203201,63.1871955463 L367.362560891,63.5351426583 L368.058455115,64.3702157272 L368.336812804,64.9269311065 L368.475991649,65.5532359081 L368.963117606,69.3806541406 L368.893528184,74.1127348643 L369.102296451,76.2700069589 L369.171885873,78.0793319415 L368.963117606,79.1231732777 L368.475991649,80.5845511482 L368.545581072,81.1412665275 L368.823938761,81.6283924843 L369.798190675,82.5330549756 L369.93736952,83.0897703549 L367.153792624,84.4119693807 Z" fill="#cee3f5" id="EG.KS" stroke="#6e6e6e" stroke-width="0.4"><desc><labelrank>9</labelrank><code_hasc>EG.KS</code_hasc><name>Kafr ash Shaykh</name><admin>Egypt</admin><type_en>Governorate</type_en><region /><woe_id>2345243</woe_id><longitude>30</longitude><woe_name>Kafr ash Shaykh</woe_name><fips>EG21</fips><woe_label>Kafr ash Shaykh, EG, Egypt</woe_label><latitude>31</latitude><iso_a2>EG</iso_a2><postal>KS</postal><type>Muhafazah</type><id>EG.KS</id></desc></path><path d="M372.164231037,651.704940849 L367.362560891,647.11203897 L367.501739736,643.910925539 L371.39874739,640.431454419 L382.533054976,637.717466945 L388.656924148,630.828114127 L389.979123173,626.443980515 L388.378566458,617.258176757 L390.883785665,612.804453723 L394.780793319,611.203897008 L402.435629784,612.526096033 L423.312456507,602.992345164 L429.366736256,606.610995129 L433.959638135,606.541405706 L437.508698678,609.116214335 L440.709812109,603.549060543 L448.782185108,581.071677105 L456.089074461,571.816283925 L455.254001392,568.19763396 L440.918580376,569.171885873 L437.230340988,568.19763396 L436.534446764,566.527487822 L439.457202505,553.792623521 L442.240779402,549.756437022 L445.511482255,547.39039666 L454.140570633,545.929018789 L455.810716771,544.537230341 L454.766875435,541.962421712 L448.990953375,538.274182324 L449.478079332,531.732776618 L451.704940849,530.132219903 L459.568545581,529.157967989 L462.700069589,523.590814196 L461.934585943,500.695894224 L464.787752262,490.605427975 L464.091858038,487.056367432 L459.986082116,477.592205985 L457.480862909,466.527487822 L455.254001392,463.674321503 L448.503827418,459.568545581 L450.730688935,457.411273486 L451.356993737,451.704940849 L463.048016701,460.40361865 L467.292971468,466.527487822 L469.798190675,484.551148225 L476.478775226,498.329853862 L475.226165623,503.549060543 L469.241475296,512.317327766 L468.128044537,517.32776618 L467.64091858,521.642310369 L469.450243563,532.35908142 L470.006958942,533.82045929 L471.39874739,536.325678497 L472.999304106,540.570633264 L473.486430063,541.684064022 L474.460681976,542.936673626 L477.45302714,545.163535143 L478.079331942,545.929018789 L478.775226166,547.251217815 L479.47112039,554.558107168 L478.009742519,558.176757133 L477.870563674,559.220598469 L477.940153097,560.821155184 L479.331941545,566.666666667 L482.045929019,571.607515658 L482.324286708,572.581767571 L482.393876131,573.486430063 L482.254697286,574.182324287 L481.837160752,575.71329158 L479.888656924,581.141266527 L479.540709812,581.767571329 L479.1927627,582.324286708 L477.383437717,583.785664579 L476.826722338,584.411969381 L476.478775226,585.177453027 L475.365344468,587.961029923 L473.834377175,589.839944328 L473.486430063,590.74460682 L474.669450244,592.76270007 L482.811412665,596.729297147 L483.437717467,597.216423104 L483.924843424,597.842727905 L484.69032707,599.234516354 L486.917188587,601.461377871 L489.839944328,610.299234516 L489.979123173,611.899791232 L489.770354906,612.595685456 L489.283228949,612.943632568 L488.72651357,612.943632568 L487.473903967,612.456506611 L477.522616562,604.105775922 L474.669450244,603.549060543 L469.867780097,604.453723034 L468.058455115,604.175365344 L466.040361865,602.853166319 L463.395963814,600.139178845 L462.769659012,599.582463466 L462.073764788,599.095337509 L460.890744607,599.095337509 L457.550452331,604.592901879 L457.898399443,610.020876827 L456.576200418,613.29157968 L455.114822547,615.30967293 L445.789839944,624.28670842 L443.63256785,626.235212248 L442.588726514,626.931106472 L441.475295755,627.557411273 L438.830897704,628.392484342 L436.047320807,628.879610299 L432.776617954,628.879610299 L432.011134308,628.740431454 L430.480167015,628.253305498 L429.088378566,627.627000696 L428.462073765,627.209464161 L425.469728601,624.008350731 L422.755741127,621.851078636 L422.129436326,621.433542102 L421.433542102,621.155184412 L420.8072373,621.08559499 L420.180932498,621.294363257 L419.624217119,621.781489214 L419.206680585,622.407794015 L418.580375783,623.799582463 L414.822546973,634.446764092 L413.848295059,636.11691023 L412.874043145,637.439109255 L412.038970077,638.274182324 L409.046624913,640.431454419 L408.350730689,640.709812109 L407.654836465,640.848990953 L404.105775922,641.33611691 L400.487125957,645.789839944 L387.125956855,652.331245651 L385.803757829,653.375086987 L384.481558803,654.90605428 L382.811412665,658.107167711 L382.741823243,658.3855254 L382.741823243,658.3855254 L379.262352122,658.3855254 L382.463465553,648.782185108 L380.723729993,644.537230341 L376.270006959,644.606819763 L372.164231037,651.704940849 Z" fill="#cee3f5" id="EG.AN" stroke="#6e6e6e" stroke-width="0.4"><desc><labelrank>7</labelrank><code_hasc>EG.AN</code_hasc><name>Aswan</name><admin>Egypt</admin><type_en>Governorate</type_en><region /><woe_id>2345238</woe_id><longitude>32</longitude><woe_name>Aswan</woe_name><fips>EG16</fips><woe_label>Aswan, EG, Egypt</woe_label><latitude>22</latitude><iso_a2>EG</iso_a2><postal>AN</postal><type>Muhafazah</type><id>EG.AN</id></desc></path><path d="M350.452331246,304.314544189 L350.243562978,309.881697982 L350.313152401,311.691022965 L351.009046625,314.335421016 L351.356993737,315.170494085 L351.774530271,315.866388309 L352.261656228,316.492693111 L352.818371608,316.979819068 L357.759220598,319.832985386 L369.93736952,325.469728601 L372.929714683,331.315240084 L381.280445372,339.039665971 L388.656924148,353.792623521 L384.96868476,353.514265832 L379.819067502,347.11203897 L370.633263744,353.583855254 L362.839248434,338.343771747 L358.246346555,333.959638135 L350.313152401,330.201809325 L341.962421712,322.059846903 L335.83855254,309.53375087 L335.281837161,303.409881698 L344.398051496,305.010438413 L350.452331246,304.314544189 Z" fill="#cee3f5" id="EG.AT" stroke="#6e6e6e" stroke-width="0.4"><desc><labelrank>7</labelrank><code_hasc>EG.AT</code_hasc><name>Asyut</name><admin>Egypt</admin><type_en>Governorate</type_en><region /><woe_id>2345239</woe_id><longitude>31</longitude><woe_name>Asyut</woe_name><fips>EG17</fips><woe_label>Asyut, EG, Egypt</woe_label><latitude>27</latitude><iso_a2>EG</iso_a2><postal>AT</postal><type>Muhafazah</type><id>EG.AT</id></desc></path><path d="M335.281837161,303.409881698 L335.83855254,309.53375087 L341.962421712,322.059846903 L350.313152401,330.201809325 L358.246346555,333.959638135 L362.839248434,338.343771747 L370.633263744,353.583855254 L383.924843424,367.780097425 L407.863604732,397.355601949 L417.466945024,406.123869172 L421.781489214,407.79401531 L431.176061239,405.915100905 L445.720250522,399.164926931 L450.173973556,399.025748086 L452.400835073,400.835073069 L453.16631872,405.567153793 L448.225469729,418.78914405 L438.970076548,426.931106472 L436.11691023,431.245650661 L440.709812109,452.400835073 L448.503827418,459.568545581 L455.254001392,463.674321503 L457.480862909,466.527487822 L459.986082116,477.592205985 L464.091858038,487.056367432 L464.787752262,490.605427975 L461.934585943,500.695894224 L462.700069589,523.590814196 L459.568545581,529.157967989 L451.704940849,530.132219903 L449.478079332,531.732776618 L448.990953375,538.274182324 L454.766875435,541.962421712 L455.810716771,544.537230341 L454.140570633,545.929018789 L445.511482255,547.39039666 L442.240779402,549.756437022 L439.457202505,553.792623521 L436.534446764,566.527487822 L437.230340988,568.19763396 L440.918580376,569.171885873 L455.254001392,568.19763396 L456.089074461,571.816283925 L448.782185108,581.071677105 L440.709812109,603.549060543 L437.508698678,609.116214335 L433.959638135,606.541405706 L429.366736256,606.610995129 L423.312456507,602.992345164 L402.435629784,612.526096033 L394.780793319,611.203897008 L390.883785665,612.804453723 L388.378566458,617.258176757 L389.979123173,626.443980515 L388.656924148,630.828114127 L382.533054976,637.717466945 L371.39874739,640.431454419 L367.501739736,643.910925539 L367.362560891,647.11203897 L372.164231037,651.704940849 L368.267223382,658.455114823 L246.068197634,657.828810021 L120.250521921,655.393180237 L0.0,651.426583159 L3.75782881002,559.220598469 L7.72442588727,467.084203201 L11.8997912317,374.878218511 L15.866388309,293.110647182 L147.529575505,298.190675017 L222.129436326,300.069589422 L336.186499652,301.252609603 L335.281837161,303.409881698 Z" fill="#cee3f5" id="EG.WJ" stroke="#6e6e6e" stroke-width="0.4"><desc><labelrank>6</labelrank><code_hasc>EG.WJ</code_hasc><name>Al Wadi at Jadid</name><admin>Egypt</admin><type_en>Governorate</type_en><region /><woe_id>2345235</woe_id><longitude>28</longitude><woe_name>Al Wadi at Jadid</woe_name><fips>EG13</fips><woe_label>Al Wadi al Jadid, EG, Egypt</woe_label><latitude>24</latitude><iso_a2>EG</iso_a2><postal>WJ</postal><type>Muhafazah</type><id>EG.WJ</id></desc></path><path d="M451.356993737,451.704940849 L450.730688935,457.411273486 L448.503827418,459.568545581 L440.709812109,452.400835073 L436.11691023,431.245650661 L438.970076548,426.931106472 L448.225469729,418.78914405 L453.16631872,405.567153793 L452.400835073,400.835073069 L450.173973556,399.025748086 L445.720250522,399.164926931 L431.176061239,405.915100905 L421.781489214,407.79401531 L417.466945024,406.123869172 L407.863604732,397.355601949 L418.302018093,391.162143354 L425.121781489,397.703549061 L428.04453723,395.9638135 L441.127348643,389.979123173 L449.338900487,389.422407794 L453.792623521,390.605427975 L454.90605428,391.231732777 L456.297842728,392.136395268 L458.315935978,393.945720251 L460.612386917,396.938065414 L461.447459986,398.329853862 L462.073764788,399.791231733 L462.908837857,402.713987474 L463.604732081,407.306889353 L462.839248434,414.405010438 L459.986082116,420.52887961 L458.942240779,421.990257481 L457.689631176,423.451635351 L452.261656228,428.462073765 L448.573416841,432.707028532 L447.738343772,433.959638135 L447.11203897,435.212247738 L446.485734168,437.299930411 L446.485734168,441.544885177 L447.529575505,446.276965901 L448.225469729,448.016701461 L448.990953375,449.338900487 L449.478079332,450.034794711 L451.356993737,451.704940849 Z" fill="#cee3f5" id="EG.QN" stroke="#6e6e6e" stroke-width="0.4"><desc><labelrank>9</labelrank><code_hasc>EG.QN</code_hasc><name>Qina</name><admin>Egypt</admin><type_en>Governorate</type_en><region /><woe_id>2345245</woe_id><longitude>32</longitude><woe_name>Qina</woe_name><fips>EG02</fips><woe_label>Qina, EG, Egypt</woe_label><latitude>26</latitude><iso_a2>EG</iso_a2><postal>QN</postal><type>Muhafazah</type><id>EG.QN</id></desc></path><path d="M388.656924148,353.792623521 L398.190675017,360.334029228 L400.695894224,362.700069589 L408.977035491,379.610299235 L419.276270007,384.203201113 L428.04453723,395.9638135 L425.121781489,397.703549061 L418.302018093,391.162143354 L407.863604732,397.355601949 L383.924843424,367.780097425 L370.633263744,353.583855254 L379.819067502,347.11203897 L384.96868476,353.514265832 L388.656924148,353.792623521 Z" fill="#cee3f5" id="EG.SJ" stroke="#6e6e6e" stroke-width="0.4"><desc><labelrank>6</labelrank><code_hasc>EG.SJ</code_hasc><name>Suhaj</name><admin>Egypt</admin><type_en>Governorate</type_en><region /><woe_id>2345246</woe_id><longitude>31</longitude><woe_name>Suhaj</woe_name><fips>EG24</fips><woe_label>Suhaj, EG, Egypt</woe_label><latitude>26</latitude><iso_a2>EG</iso_a2><postal>SJ</postal><type>Muhafazah</type><id>EG.SJ</id></desc></path><path d="M523.590814196,358.246346555 L523.660403619,359.707724426 L520.8072373,354.62769659 L521.920668058,354.62769659 L523.590814196,358.246346555 M522.616562283,309.185803758 L525.191370912,313.01322199 L519.763395964,309.603340292 L518.51078636,310.229645094 L517.32776618,308.420320111 L520.180932498,307.724425887 L522.616562283,309.185803758 M401.878914405,219.206680585 L404.244954767,220.250521921 L417.118997912,219.06750174 L436.673625609,210.160055672 L438.970076548,209.394572025 L440.013917884,209.25539318 L445.302713987,209.116214335 L445.581071677,211.134307585 L443.63256785,213.709116214 L443.771746695,218.51078636 L450.800278358,228.949199722 L454.001391788,230.619345859 L457.620041754,243.07585247 L465.205288796,248.643006263 L467.501739736,254.140570633 L471.120389701,257.480862909 L472.303409882,261.238691719 L478.844815588,268.19763396 L479.331941545,270.215727209 L484.342379958,273.764787752 L484.69032707,275.922059847 L490.257480863,277.940153097 L496.659707724,285.386221294 L498.956158664,291.997216423 L493.110647182,288.656924148 L492.275574113,290.118302018 L495.128740431,294.572025052 L497.077244259,294.015309673 L495.9638135,297.286012526 L499.095337509,301.113430759 L497.146833681,298.956158664 L497.216423104,300.347947112 L495.407098121,299.234516354 L493.736951983,301.183020181 L497.703549061,305.845511482 L497.355601949,308.072372999 L501.600556715,310.577592206 L505.149617258,320.180932498 L513.500347947,326.235212248 L513.639526792,333.959638135 L517.32776618,337.787056367 L517.397355602,340.570633264 L522.964509395,347.877522617 L523.034098817,351.565762004 L520.946416145,350.86986778 L520.320111343,352.052887961 L520.180932498,363.256784969 L524.356297843,365.831593598 L543.771746695,403.75782881 L556.089074461,420.946416145 L561.308281141,430.619345859 L564.300626305,439.387613083 L582.95059151,471.885873347 L583.785664579,477.522616562 L587.404314544,480.654140571 L593.389004871,492.414752958 L592.623521225,497.146833681 L594.989561587,497.98190675 L598.051496173,503.340292276 L607.306889353,510.438413361 L609.603340292,516.492693111 L613.56993737,521.224773834 L614.544189283,521.016005567 L614.057063326,519.206680585 L619.137091162,523.103688239 L620.180932498,526.722338205 L627.974947808,528.670842032 L631.315240084,533.681280445 L628.810020877,531.871955463 L625.052192067,533.333333333 L619.972164231,532.35908142 L614.961725818,529.505915101 L613.361169102,533.263743911 L613.082811413,540.848990953 L615.240083507,543.423799582 L614.544189283,559.846903271 L618.093249826,566.249130132 L620.041753653,577.592205985 L624.982602644,586.221294363 L626.443980515,592.971468337 L631.80236604,598.816979819 L629.297146834,595.059151009 L631.245650661,595.615866388 L633.124565066,601.183020181 L639.248434238,607.098121086 L659.359777314,612.734864301 L663.256784969,616.910229645 L664.787752262,621.642310369 L671.67710508,625.539318024 L672.512178149,629.923451635 L679.888656924,633.472512178 L689.074460682,641.196938065 L693.110647182,641.33611691 L695.337508699,644.745998608 L700.0,647.251217815 L699.512874043,651.704940849 L617.258176757,654.558107168 L535.142658316,656.576200418 L456.437021573,657.828810021 L420.389700765,658.176757133 L402.366040362,658.315935978 L390.327070285,658.315935978 L384.342379958,658.3855254 L382.741823243,658.3855254 L382.741823243,658.3855254 L382.811412665,658.107167711 L384.481558803,654.90605428 L385.803757829,653.375086987 L387.125956855,652.331245651 L400.487125957,645.789839944 L404.105775922,641.33611691 L404.871259569,640.988169798 L407.654836465,640.848990953 L408.350730689,640.709812109 L409.046624913,640.431454419 L412.038970077,638.274182324 L412.874043145,637.439109255 L413.848295059,636.11691023 L414.822546973,634.446764092 L418.580375783,623.799582463 L419.206680585,622.407794015 L419.624217119,621.781489214 L420.180932498,621.294363257 L420.8072373,621.08559499 L421.433542102,621.155184412 L422.129436326,621.433542102 L422.755741127,621.851078636 L425.469728601,624.008350731 L428.462073765,627.209464161 L429.088378566,627.627000696 L430.480167015,628.253305498 L432.011134308,628.740431454 L432.776617954,628.879610299 L436.047320807,628.879610299 L438.830897704,628.392484342 L441.475295755,627.557411273 L442.588726514,626.931106472 L443.63256785,626.235212248 L455.114822547,615.30967293 L456.576200418,613.29157968 L457.898399443,610.020876827 L457.550452331,604.592901879 L460.890744607,599.095337509 L462.073764788,599.095337509 L462.769659012,599.582463466 L463.395963814,600.139178845 L466.040361865,602.853166319 L467.432150313,603.897007655 L468.058455115,604.175365344 L469.867780097,604.453723034 L474.669450244,603.549060543 L477.522616562,604.105775922 L487.473903967,612.456506611 L488.72651357,612.943632568 L489.283228949,612.943632568 L489.770354906,612.595685456 L489.979123173,611.899791232 L489.839944328,610.299234516 L486.917188587,601.461377871 L484.69032707,599.234516354 L483.924843424,597.842727905 L483.437717467,597.216423104 L482.811412665,596.729297147 L474.669450244,592.76270007 L473.486430063,590.74460682 L475.365344468,587.961029923 L476.478775226,585.177453027 L476.826722338,584.411969381 L477.383437717,583.785664579 L479.1927627,582.324286708 L479.540709812,581.767571329 L479.888656924,581.141266527 L481.837160752,575.71329158 L482.254697286,574.182324287 L482.393876131,573.486430063 L482.324286708,572.581767571 L482.045929019,571.607515658 L479.331941545,566.666666667 L477.940153097,560.821155184 L477.870563674,559.220598469 L478.009742519,558.176757133 L479.47112039,554.558107168 L478.775226166,547.251217815 L478.079331942,545.929018789 L477.45302714,545.163535143 L474.460681976,542.936673626 L473.486430063,541.684064022 L472.999304106,540.570633264 L471.39874739,536.325678497 L470.006958942,533.82045929 L469.450243563,532.35908142 L467.64091858,521.642310369 L468.128044537,517.32776618 L469.241475296,512.317327766 L475.226165623,503.549060543 L476.478775226,498.329853862 L469.798190675,484.551148225 L467.292971468,466.527487822 L463.048016701,460.40361865 L451.356993737,451.704940849 L449.478079332,450.034794711 L448.225469729,448.016701461 L447.529575505,446.276965901 L446.485734168,441.544885177 L446.485734168,437.299930411 L447.11203897,435.212247738 L447.738343772,433.959638135 L448.573416841,432.707028532 L452.261656228,428.462073765 L457.689631176,423.451635351 L458.942240779,421.990257481 L459.986082116,420.52887961 L462.839248434,414.405010438 L463.604732081,407.306889353 L462.908837857,402.713987474 L462.073764788,399.791231733 L461.447459986,398.329853862 L460.612386917,396.938065414 L458.315935978,393.945720251 L456.297842728,392.136395268 L454.90605428,391.231732777 L453.792623521,390.605427975 L449.338900487,389.422407794 L441.127348643,389.979123173 L428.04453723,395.9638135 L419.276270007,384.203201113 L408.977035491,379.610299235 L400.695894224,362.700069589 L398.190675017,360.334029228 L388.656924148,353.792623521 L382.602644398,341.196938065 L381.280445372,339.039665971 L372.929714683,331.315240084 L369.93736952,325.469728601 L367.014613779,323.382045929 L357.759220598,319.832985386 L352.818371608,316.979819068 L352.261656228,316.492693111 L351.774530271,315.866388309 L351.356993737,315.170494085 L351.009046625,314.335421016 L350.452331246,312.595685456 L350.313152401,311.691022965 L350.243562978,309.881697982 L350.452331246,304.314544189 L351.14822547,293.876130828 L348.573416841,280.167014614 L344.398051496,271.050800278 L344.328462074,270.285316632 L344.050104384,267.571329158 L343.423799582,264.091858038 L343.562978427,262.908837857 L343.910925539,261.517049408 L345.511482255,257.341684064 L348.573416841,251.983298539 L348.85177453,250.661099513 L350.59151009,235.281837161 L350.730688935,234.029227557 L351.078636047,232.150313152 L352.122477383,229.227557411 L353.305497564,227.070285317 L357.063326374,222.129436326 L360.264439805,216.910229645 L361.795407098,214.892136395 L364.231036882,212.247738344 L364.996520529,211.064718163 L365.692414753,209.672929715 L367.710508003,204.592901879 L367.780097425,203.688239388 L367.571329158,201.183020181 L367.780097425,198.538622129 L373.41684064,204.940848991 L378.775226166,211.691022965 L380.375782881,212.665274878 L381.419624217,213.152400835 L401.878914405,219.206680585 Z" fill="#cee3f5" id="EG.BA" stroke="#6e6e6e" stroke-width="0.4"><desc><labelrank>6</labelrank><code_hasc>EG.BA</code_hasc><name>Al Bahr al Ahmar</name><admin>Egypt</admin><type_en>Governorate</type_en><region /><woe_id>2345224</woe_id><longitude>33</longitude><woe_name>Al Bahr al Ahmar</woe_name><fips>EG02</fips><woe_label>Al Bahr al Ahmar, EG, Egypt</woe_label><latitude>25</latitude><iso_a2>EG</iso_a2><postal>BA</postal><type>Muhafazah</type><id>EG.BA</id></desc></path><path d="M562.630480167,282.324286708 L561.099512874,283.020180932 L558.66388309,281.697981907 L559.707724426,279.888656924 L562.491301322,279.888656924 L562.630480167,282.324286708 M551.913709116,277.73138483 L549.686847599,279.123173278 L553.723034099,279.1927627 L556.36743215,282.393876131 L550.59151009,281.906750174 L548.85177453,277.800974252 L550.382741823,276.478775226 L551.913709116,277.73138483 M455.532359081,159.011830202 L470.633263744,158.037578288 L505.845511482,163.465553236 L520.111343076,170.633263744 L544.815588031,180.097425191 L567.988865692,182.95059151 L560.12526096,194.50243563 L559.916492693,201.600556715 L557.063326374,207.51565762 L557.898399443,214.892136395 L555.462769659,217.536534447 L555.045233125,230.967292971 L549.060542797,243.63256785 L549.826026444,245.511482255 L546.903270703,248.921363953 L543.841336117,257.550452331 L544.189283229,262.978427279 L546.624913013,266.597077244 L545.233124565,272.512178149 L545.859429367,279.1927627 L540.153096729,283.2289492 L539.665970772,286.569241475 L537.369519833,286.847599165 L536.325678497,290.46624913 L533.82045929,291.162143354 L534.237995825,292.48434238 L536.256089074,292.48434238 L535.908141962,295.059151009 L532.428670842,291.510090466 L524.8434238,289.909533751 L520.946416145,285.455810717 L516.214335421,282.115518441 L514.822546973,282.602644398 L508.211551844,277.105080028 L508.211551844,275.504523312 L505.49756437,273.903966597 L496.729297147,260.12526096 L489.352818372,255.949895616 L479.262352122,244.885177453 L479.540709812,242.867084203 L478.148921364,243.562978427 L479.1927627,244.467640919 L477.661795407,243.35421016 L475.643702157,236.743215031 L477.383437717,231.106471816 L474.321503132,226.513569937 L473.973556019,216.075156576 L468.754349339,212.247738344 L461.934585943,203.75782881 L457.898399443,201.252609603 L454.001391788,193.945720251 L453.931802366,190.535838553 L449.756437022,187.961029923 L449.338900487,186.221294363 L448.295059151,187.961029923 L448.712595685,182.67223382 L446.276965901,178.91440501 L446.83368128,171.189979123 L444.467640919,166.945024356 L444.537230341,166.945024356 L455.532359081,159.011830202 Z" fill="#cee3f5" id="EG.JS" stroke="#6e6e6e" stroke-width="0.4"><desc><labelrank>6</labelrank><code_hasc>EG.JS</code_hasc><name>Janub Sina'</name><admin>Egypt</admin><type_en>Governorate</type_en><region /><woe_id>2345247</woe_id><longitude>33</longitude><woe_name>Janub Sina'</woe_name><fips>EG26</fips><woe_label>Janub Sina', EG, Egypt</woe_label><latitude>28</latitude><iso_a2>EG</iso_a2><postal>JS</postal><type>Muhafazah</type><id>EG.JS</id></desc></path><path d="M485.594989562,79.0535838553 L487.961029923,80.9324982603 L476.687543493,76.4787752262 L485.594989562,79.0535838553 M467.710508003,75.1565762004 L476.270006959,76.0612386917 L467.571329158,75.9916492693 L458.594293667,81.1412665275 L467.710508003,75.1565762004 M567.988865692,182.95059151 L544.815588031,180.097425191 L520.111343076,170.633263744 L505.845511482,163.465553236 L470.633263744,158.037578288 L455.532359081,159.011830202 L455.114822547,158.3855254 L454.62769659,157.550452331 L454.140570633,156.228253305 L452.122477383,137.5782881 L449.13013222,130.132219903 L443.980514962,122.199025748 L443.980514962,122.199025748 L443.841336117,121.990257481 L443.63256785,121.08559499 L443.423799582,119.832985386 L443.284620738,114.196242171 L440.709812109,92.4147529576 L440.501043841,86.9171885873 L440.501043841,86.8475991649 L440.501043841,86.8475991649 L440.570633264,86.9171885873 L443.006263048,86.9171885873 L445.233124565,86.6388308977 L449.269311065,85.5254001392 L458.176757133,80.6541405706 L453.444676409,84.133611691 L444.119693807,87.4043145442 L449.756437022,87.7522616562 L456.36743215,84.133611691 L457.689631176,85.2470424495 L459.011830202,84.5511482255 L457.480862909,84.133611691 L458.176757133,83.4377174669 L460.473208072,84.9686847599 L460.12526096,86.2908837857 L462.769659012,86.8475991649 L462.700069589,84.9686847599 L465.274878219,83.9944328462 L465.622825331,81.8371607516 L463.813500348,83.9944328462 L459.707724426,83.7160751566 L467.988865692,77.8705636743 L468.893528184,78.2881002088 L467.432150313,78.7752261656 L470.702853166,82.8114126653 L468.615170494,83.5073068894 L470.076548365,85.316631872 L469.450243563,87.4043145442 L474.251913709,86.4300626305 L472.790535839,85.5949895616 L476.409185804,83.785664579 L478.705636743,85.0382741823 L479.401530967,83.7160751566 L477.17466945,83.3681280445 L483.089770355,82.7418232429 L482.602644398,81.6283924843 L484.133611691,80.1670146138 L489.213639527,81.7675713292 L497.286012526,82.254697286 L518.719554628,74.6694502436 L526.931106472,69.0327070285 L543.35421016,110.438413361 L546.764091858,120.946416145 L546.416144746,125.539318024 L550.452331246,129.575504523 L558.455114823,150.243562978 L567.988865692,182.95059151 Z" fill="#cee3f5" id="EG.SS" stroke="#6e6e6e" stroke-width="0.4"><desc><labelrank>6</labelrank><code_hasc>EG.SS</code_hasc><name>Shamal Sina'</name><admin>Egypt</admin><type_en>Governorate</type_en><region /><woe_id>2345248</woe_id><longitude>33</longitude><woe_name>Shamal Sina'</woe_name><fips>EG32</fips><woe_label>Shamal Sina', EG, Egypt</woe_label><latitude>30</latitude><iso_a2>EG</iso_a2><postal>SS</postal><type>Muhafazah</type><id>EG.SS</id></desc></path><path d="M447.807933194,422.755741127 L448.921363953,423.312456507 L447.947112039,425.678496868 L446.416144746,425.469728601 L447.807933194,422.755741127 Z" fill="#cee3f5" id="EG.UQ" stroke="#6e6e6e" stroke-width="0.4"><desc><labelrank>9</labelrank><code_hasc>EG.UQ</code_hasc><name>Luxor</name><admin>Egypt</admin><type_en>Governorate</type_en><region /><woe_id>56120896</woe_id><longitude>32</longitude><woe_name /><fips>EG28</fips><woe_label /><latitude>25</latitude><iso_a2>EG</iso_a2><postal>QN</postal><type>Muhafazah</type><id>EG.UQ</id></desc></path></svg>