<?xml version='1.0' encoding='utf-8'?>
<svg height="700" width="700" xmlns="http://www.w3.org/2000/svg"><path d="M252.097902098,264.335664336 L252.097902098,186.013986014 L296.153846154,176.223776224 L359.79020979,200.699300699 L418.531468531,200.699300699 L457.692307692,230.06993007 L482.167832168,288.811188811 L389.160839161,332.867132867 L369.58041958,376.923076923 L325.524475524,372.027972028 L301.048951049,298.601398601 L252.097902098,264.335664336 Z" fill="#cee3f5" id="CN.tianjin.3286885" stroke="#6e6e6e" stroke-width="0.4"><desc><name>Baodi District</name><admin_leve>6</admin_leve><wikipedia>en:Baodi District</wikipedia><localname>宝坻区 (Baodi)</localname><boundary>administrative</boundary><id>CN.tianjin.3286885</id></desc></path><path d="M325.524475524,381.818181818 L359.79020979,420.979020979 L286.363636364,440.559440559 L256.993006993,440.559440559 L242.307692308,445.454545455 L168.881118881,450.34965035 L178.671328671,425.874125874 L281.468531469,372.027972028 L325.524475524,381.818181818 Z" fill="#cee3f5" id="CN.tianjin.3286886" stroke="#6e6e6e" stroke-width="0.4"><desc><name>Beichen District</name><admin_leve>6</admin_leve><wikipedia>en:Beichen District</wikipedia><localname>北辰区 (Beichen)</localname><boundary>administrative</boundary><id>CN.tianjin.3286886</id></desc></path><path d="M301.048951049,582.517482517 L335.314685315,587.412587413 L398.951048951,558.041958042 L413.636363636,513.986013986 L428.321678322,445.454545455 L526.223776224,401.398601399 L536.013986014,391.608391608 L540.909090909,381.818181818 L629.020979021,411.188811189 L521.328671329,469.93006993 L540.909090909,528.671328671 L531.118881119,558.041958042 L467.482517483,577.622377622 L443.006993007,631.468531469 L452.797202797,675.524475524 L389.160839161,675.524475524 L340.20979021,700.0 L252.097902098,675.524475524 L247.202797203,631.468531469 L301.048951049,582.517482517 Z" fill="#cee3f5" id="CN.tianjin.3286887" stroke="#6e6e6e" stroke-width="0.4"><desc><name>Binhai New Area</name><admin_leve>6</admin_leve><wikidata>Q708605</wikidata><localname>滨海新区 (Binhai)</localname><boundary>administrative</boundary><id>CN.tianjin.3286887</id></desc></path><path d="M286.363636364,440.559440559 L359.79020979,420.979020979 L428.321678322,445.454545455 L413.636363636,513.986013986 L310.839160839,484.615384615 L301.048951049,484.615384615 L296.153846154,450.34965035 L286.363636364,440.559440559 Z" fill="#cee3f5" id="CN.tianjin.3286888" stroke="#6e6e6e" stroke-width="0.4"><desc><name>Dongli District</name><admin_leve>6</admin_leve><wikidata>Q708282</wikidata><localname>东丽区 (Dongli)</localname><boundary>administrative</boundary><id>CN.tianjin.3286888</id></desc></path><path d="M256.993006993,440.559440559 L286.363636364,440.559440559 L296.153846154,450.34965035 L276.573426573,465.034965035 L271.678321678,460.13986014 L271.678321678,455.244755245 L256.993006993,440.559440559 Z" fill="#cee3f5" id="CN.tianjin.3286889" stroke="#6e6e6e" stroke-width="0.4"><desc><name>Hebei District</name><admin_leve>6</admin_leve><wikipedia>en:Hebei District</wikipedia><localname>河北区 (Hebei)</localname><boundary>administrative</boundary><id>CN.tianjin.3286889</id></desc></path><path d="M296.153846154,450.34965035 L301.048951049,484.615384615 L281.468531469,469.93006993 L276.573426573,465.034965035 L296.153846154,450.34965035 Z" fill="#cee3f5" id="CN.tianjin.3286890" stroke="#6e6e6e" stroke-width="0.4"><desc><name>Hedong District</name><admin_leve>6</admin_leve><wikipedia>en:Hedong District, Tianjin</wikipedia><localname>河东区 (Hedong)</localname><boundary>administrative</boundary><id>CN.tianjin.3286890</id></desc></path><path d="M261.888111888,474.825174825 L271.678321678,460.13986014 L276.573426573,465.034965035 L281.468531469,469.93006993 L261.888111888,474.825174825 Z" fill="#cee3f5" id="CN.tianjin.3286891" stroke="#6e6e6e" stroke-width="0.4"><desc><name>Heping District</name><admin_leve>6</admin_leve><wikipedia>en:Heping District, Tianjin</wikipedia><localname>和平区 (Heping)</localname><boundary>administrative</boundary><id>CN.tianjin.3286891</id></desc></path><path d="M261.888111888,474.825174825 L281.468531469,469.93006993 L301.048951049,484.615384615 L310.839160839,484.615384615 L281.468531469,499.300699301 L266.783216783,489.51048951 L261.888111888,474.825174825 Z" fill="#cee3f5" id="CN.tianjin.3286892" stroke="#6e6e6e" stroke-width="0.4"><desc><name>Hexi District</name><admin_leve>6</admin_leve><wikipedia>en:Hexi District, Tianjin</wikipedia><localname>河西区 (Hexi)</localname><boundary>administrative</boundary><id>CN.tianjin.3286892</id></desc></path><path d="M242.307692308,455.244755245 L242.307692308,445.454545455 L256.993006993,440.559440559 L271.678321678,455.244755245 L242.307692308,455.244755245 Z" fill="#cee3f5" id="CN.tianjin.3286893" stroke="#6e6e6e" stroke-width="0.4"><desc><name>Hongqiao District</name><admin_leve>6</admin_leve><wikipedia>en:Hongqiao District</wikipedia><localname>红桥区 (Hongqiao)</localname><boundary>administrative</boundary><id>CN.tianjin.3286893</id></desc></path><path d="M418.531468531,200.699300699 L359.79020979,200.699300699 L296.153846154,176.223776224 L252.097902098,127.272727273 L261.888111888,78.3216783217 L330.41958042,48.951048951 L364.685314685,0.0 L418.531468531,4.8951048951 L457.692307692,63.6363636364 L521.328671329,102.797202797 L418.531468531,112.587412587 L398.951048951,141.958041958 L418.531468531,200.699300699 Z" fill="#cee3f5" id="CN.tianjin.3286894" stroke="#6e6e6e" stroke-width="0.4"><desc><name>Ji County</name><admin_leve>6</admin_leve><wikipedia>en:Ji County, Tianjin</wikipedia><localname>蓟县 (Ji)</localname><boundary>administrative</boundary><id>CN.tianjin.3286894</id></desc></path><path d="M139.51048951,489.51048951 L242.307692308,528.671328671 L301.048951049,582.517482517 L247.202797203,631.468531469 L252.097902098,675.524475524 L208.041958042,641.258741259 L139.51048951,651.048951049 L90.5594405594,626.573426573 L70.979020979,548.251748252 L90.5594405594,504.195804196 L139.51048951,489.51048951 Z" fill="#cee3f5" id="CN.tianjin.3286895" stroke="#6e6e6e" stroke-width="0.4"><desc><name>Jinghai County</name><admin_leve>6</admin_leve><wikipedia>en:Jinghai County</wikipedia><localname>静海县 (Jinghai)</localname><boundary>administrative</boundary><id>CN.tianjin.3286895</id></desc></path><path d="M281.468531469,499.300699301 L310.839160839,484.615384615 L413.636363636,513.986013986 L398.951048951,558.041958042 L335.314685315,587.412587413 L281.468531469,499.300699301 Z" fill="#cee3f5" id="CN.tianjin.3286896" stroke="#6e6e6e" stroke-width="0.4"><desc><name>Jinnan District</name><admin_leve>6</admin_leve><wikipedia>en:Jinnan District</wikipedia><localname>津南区 (Jinnan)</localname><boundary>administrative</boundary><id>CN.tianjin.3286896</id></desc></path><path d="M242.307692308,455.244755245 L271.678321678,455.244755245 L271.678321678,460.13986014 L261.888111888,474.825174825 L266.783216783,489.51048951 L242.307692308,455.244755245 Z" fill="#cee3f5" id="CN.tianjin.3286897" stroke="#6e6e6e" stroke-width="0.4"><desc><name>Nankai District</name><admin_leve>6</admin_leve><wikipedia>en:Nankai District</wikipedia><localname>南开区 (Nankai)</localname><boundary>administrative</boundary><id>CN.tianjin.3286897</id></desc></path><path d="M325.524475524,372.027972028 L369.58041958,376.923076923 L389.160839161,332.867132867 L482.167832168,288.811188811 L575.174825175,279.020979021 L540.909090909,381.818181818 L536.013986014,391.608391608 L526.223776224,401.398601399 L428.321678322,445.454545455 L359.79020979,420.979020979 L325.524475524,381.818181818 L325.524475524,372.027972028 Z" fill="#cee3f5" id="CN.tianjin.3286898" stroke="#6e6e6e" stroke-width="0.4"><desc><name>Ninghe County</name><admin_leve>6</admin_leve><wikipedia>en:Ninghe County</wikipedia><localname>宁河区</localname><boundary>administrative</boundary><id>CN.tianjin.3286898</id></desc></path><path d="M252.097902098,264.335664336 L301.048951049,298.601398601 L325.524475524,372.027972028 L325.524475524,381.818181818 L281.468531469,372.027972028 L178.671328671,425.874125874 L168.881118881,450.34965035 L159.090909091,460.13986014 L129.72027972,342.657342657 L110.13986014,327.972027972 L110.13986014,264.335664336 L144.405594406,230.06993007 L252.097902098,264.335664336 Z" fill="#cee3f5" id="CN.tianjin.3286899" stroke="#6e6e6e" stroke-width="0.4"><desc><name>Wuqing District</name><admin_leve>6</admin_leve><wikipedia>en:Wuqing District</wikipedia><localname>武清区</localname><boundary>administrative</boundary><id>CN.tianjin.3286899</id></desc></path><path d="M139.51048951,489.51048951 L159.090909091,460.13986014 L168.881118881,450.34965035 L242.307692308,445.454545455 L242.307692308,455.244755245 L266.783216783,489.51048951 L281.468531469,499.300699301 L335.314685315,587.412587413 L301.048951049,582.517482517 L242.307692308,528.671328671 L139.51048951,489.51048951 Z" fill="#cee3f5" id="CN.tianjin.3286900" stroke="#6e6e6e" stroke-width="0.4"><desc><name>Xiqing District</name><admin_leve>6</admin_leve><wikipedia>en:Xiqing District</wikipedia><localname>西青区 (Xiqing)</localname><boundary>administrative</boundary><id>CN.tianjin.3286900</id></desc></path></svg>