<?xml version='1.0' encoding='utf-8'?>
<svg height="700" width="700" xmlns="http://www.w3.org/2000/svg"><path d="M456.021220159,584.323607427 L461.220159151,582.095490716 L454.907161804,568.355437666 L451.564986737,568.726790451 L454.164456233,563.156498674 L448.965517241,557.586206897 L448.594164456,543.474801061 L442.281167109,538.275862069 L435.968169761,539.76127321 L422.970822281,528.99204244 L408.48806366,530.106100796 L403.660477454,524.907161804 L432.25464191,502.99734748 L453.793103448,498.169761273 L457.135278515,494.084880637 L450.822281167,492.970822281 L451.936339523,491.114058355 L450.822281167,482.572944297 L452.307692308,481.458885942 L452.679045093,479.973474801 L452.307692308,477.74535809 L452.679045093,477.374005305 L454.535809019,478.48806366 L456.021220159,478.859416446 L457.877984085,478.116710875 L459.734748011,478.48806366 L461.591511936,479.602122016 L467.161803714,482.944297082 L469.018567639,483.687002653 L470.50397878,484.429708223 L479.787798408,485.543766578 L485.358090186,492.228116711 L486.843501326,492.599469496 L487.957559682,490.74270557 L492.413793103,490.74270557 L494.641909814,491.114058355 L496.49867374,492.228116711 L497.612732095,493.342175066 L498.355437666,495.198938992 L498.726790451,500.769230769 L499.840848806,501.883289125 L502.068965517,502.625994695 L505.782493369,505.596816976 L507.639257294,505.225464191 L528.063660477,529.734748011 L537.718832891,527.135278515 L542.546419098,519.336870027 L548.859416446,525.278514589 L561.114058355,518.222811671 L573.74005305,520.450928382 L575.968169761,524.907161804 L567.798408488,530.106100796 L568.541114058,541.98938992 L544.031830239,547.188328912 L538.090185676,541.618037135 L529.549071618,540.875331565 L523.978779841,550.901856764 L519.522546419,550.159151194 L512.466843501,560.185676393 L497.24137931,559.442970822 L486.843501326,564.270557029 L481.273209549,575.411140584 L471.618037135,582.466843501 L456.021220159,584.323607427 Z" fill="#cee3f5" id="UA.KR" stroke="#6e6e6e" stroke-width="0.4"><desc><labelrank>5</labelrank><code_hasc>UA.KR</code_hasc><name>Crimea</name><admin>Ukraine</admin><type_en>Autonomous Republic</type_en><region /><woe_id>2347544</woe_id><longitude>34</longitude><woe_name>Crimea</woe_name><fips>UP08</fips><woe_label>Crimea, UA, Ukraine</woe_label><latitude>45</latitude><iso_a2>UA</iso_a2><postal>KR</postal><type>Oblast'</type><id>UA.KR</id></desc></path><path d="M378.779840849,459.177718833 L377.294429708,461.405835544 L372.838196286,460.663129973 L371.724137931,464.376657825 L364.668435013,455.092838196 L378.779840849,459.177718833 M428.912466844,397.161803714 L428.912466844,397.533156499 L428.912466844,398.275862069 L428.912466844,399.018567639 L430.397877984,406.445623342 L426.312997347,407.188328912 L430.769230769,418.328912467 L421.856763926,425.384615385 L427.798408488,430.583554377 L417.400530504,438.381962865 L422.970822281,439.49602122 L413.687002653,441.724137931 L407.00265252,438.75331565 L383.236074271,447.294429708 L383.978779841,430.583554377 L379.522546419,429.469496021 L381.00795756,425.75596817 L375.066312997,415.729442971 L379.893899204,425.384615385 L378.408488064,430.583554377 L383.607427056,434.668435013 L379.522546419,442.466843501 L380.636604775,451.75066313 L363.925729443,452.4933687 L369.124668435,440.981432361 L365.039787798,445.809018568 L362.440318302,442.466843501 L364.668435013,447.294429708 L360.954907162,452.4933687 L352.042440318,452.4933687 L350.928381963,440.981432361 L346.100795756,433.554376658 L353.899204244,432.068965517 L357.24137931,424.641909814 L349.814323607,419.814323607 L351.299734748,414.615384615 L342.015915119,413.872679045 L337.188328912,392.705570292 L333.474801061,395.305039788 L322.705570292,391.591511936 L315.278514589,370.795755968 L318.620689655,362.625994695 L319.734748011,362.99734748 L320.106100796,362.625994695 L320.477453581,362.25464191 L320.477453581,361.51193634 L320.848806366,361.140583554 L326.790450928,361.51193634 L331.618037135,362.625994695 L331.98938992,362.625994695 L332.360742706,361.51193634 L332.732095491,361.51193634 L333.103448276,361.140583554 L334.960212202,360.397877984 L335.331564987,360.397877984 L339.416445623,361.883289125 L341.273209549,360.397877984 L341.273209549,360.769230769 L341.644562334,360.769230769 L342.015915119,361.883289125 L343.129973475,362.25464191 L349.071618037,358.541114058 L356.49867374,364.854111406 L360.212201592,365.225464191 L360.212201592,365.225464191 L360.954907162,364.854111406 L361.697612732,364.482758621 L361.697612732,364.482758621 L362.440318302,365.225464191 L362.811671088,365.596816976 L363.925729443,365.225464191 L366.153846154,364.854111406 L366.525198939,365.225464191 L366.525198939,365.225464191 L366.525198939,365.225464191 L366.525198939,365.968169761 L366.153846154,368.196286472 L366.525198939,368.938992042 L366.896551724,368.938992042 L366.896551724,368.567639257 L367.267904509,368.567639257 L367.639257294,367.082228117 L367.639257294,366.710875332 L368.01061008,366.710875332 L368.381962865,367.082228117 L369.49602122,367.082228117 L369.49602122,367.082228117 L369.867374005,365.596816976 L369.867374005,365.596816976 L370.23872679,365.225464191 L370.610079576,365.225464191 L370.981432361,365.225464191 L371.352785146,365.225464191 L371.724137931,365.968169761 L372.095490716,365.968169761 L373.952254642,366.710875332 L374.323607427,366.710875332 L375.809018568,366.339522546 L376.180371353,366.339522546 L376.551724138,369.310344828 L376.180371353,370.053050398 L374.323607427,370.795755968 L374.323607427,370.795755968 L374.323607427,371.167108753 L376.551724138,374.880636605 L378.779840849,375.623342175 L378.779840849,375.623342175 L379.151193634,375.99469496 L379.151193634,377.108753316 L380.265251989,378.222811671 L380.265251989,378.594164456 L380.265251989,378.594164456 L380.265251989,378.965517241 L380.265251989,379.336870027 L379.151193634,381.193633952 L379.893899204,384.164456233 L391.034482759,387.135278515 L395.119363395,383.050397878 L404.031830239,385.278514589 L411.087533156,384.164456233 L411.087533156,384.164456233 L411.458885942,384.164456233 L411.458885942,383.793103448 L411.458885942,383.050397878 L411.458885942,382.679045093 L411.458885942,382.307692308 L411.458885942,381.936339523 L411.458885942,381.936339523 L412.572944297,381.936339523 L412.572944297,381.936339523 L412.572944297,381.564986737 L412.572944297,381.564986737 L412.201591512,380.822281167 L411.830238727,378.594164456 L414.058355438,377.480106101 L414.058355438,376.737400531 L412.944297082,376.366047745 L412.944297082,376.366047745 L412.572944297,375.99469496 L412.572944297,375.99469496 L412.572944297,375.623342175 L412.572944297,375.623342175 L412.572944297,375.25198939 L412.944297082,374.880636605 L412.944297082,374.880636605 L412.944297082,374.50928382 L413.315649867,374.50928382 L413.315649867,374.137931034 L413.687002653,374.137931034 L414.058355438,373.766578249 L416.657824934,373.023872679 L417.771883289,374.50928382 L418.143236074,374.50928382 L418.514588859,374.50928382 L418.514588859,374.50928382 L418.514588859,374.50928382 L418.885941645,374.137931034 L418.885941645,373.766578249 L418.885941645,373.395225464 L419.25729443,373.395225464 L420.74270557,373.023872679 L420.74270557,372.652519894 L420.74270557,372.652519894 L420.74270557,371.167108753 L420.74270557,371.167108753 L420.74270557,370.795755968 L420.74270557,370.795755968 L421.114058355,370.424403183 L421.485411141,370.424403183 L423.342175066,370.424403183 L424.456233422,370.053050398 L425.941644562,372.652519894 L425.941644562,372.652519894 L425.941644562,373.023872679 L425.941644562,373.766578249 L425.941644562,373.766578249 L425.941644562,374.137931034 L426.684350133,374.50928382 L427.055702918,374.880636605 L428.541114058,378.594164456 L427.798408488,385.649867374 L428.541114058,387.135278515 L428.912466844,387.877984085 L428.541114058,388.24933687 L428.541114058,388.620689655 L426.684350133,388.620689655 L425.198938992,388.99204244 L424.456233422,389.734748011 L425.941644562,392.334217507 L425.941644562,392.705570292 L425.941644562,393.076923077 L425.941644562,393.448275862 L425.941644562,393.819628647 L425.941644562,394.190981432 L425.941644562,394.562334218 L425.198938992,394.933687003 L425.198938992,395.305039788 L424.827586207,396.047745358 L425.198938992,396.419098143 L425.198938992,396.419098143 L425.570291777,396.419098143 L428.912466844,397.161803714 Z" fill="#cee3f5" id="UA.MY" stroke="#6e6e6e" stroke-width="0.4"><desc><labelrank>7</labelrank><code_hasc>UA.MY</code_hasc><name>Mykolayiv</name><admin>Ukraine</admin><type_en>Region</type_en><region /><woe_id>2347548</woe_id><longitude>31</longitude><woe_name>Mykolayiv</woe_name><fips>UP14</fips><woe_label>Mykolaiv Oblast, UA, Ukraine</woe_label><latitude>47</latitude><iso_a2>UA</iso_a2><postal>MY</postal><type>Oblast'</type><id>UA.MY</id></desc></path><path d="M439.681697613,116.790450928 L437.082228117,128.302387268 L442.652519894,133.129973475 L427.427055703,149.469496021 L432.25464191,165.809018568 L429.655172414,173.978779841 L425.198938992,173.607427056 L427.798408488,181.405835544 L422.970822281,190.318302387 L432.99734748,193.289124668 L427.427055703,223.368700265 L415.172413793,233.766578249 L401.803713528,230.795755968 L392.891246684,234.137931034 L386.578249337,226.710875332 L388.806366048,222.625994695 L382.4933687,218.169761273 L373.209549072,224.111405836 L362.440318302,224.482758621 L353.899204244,208.885941645 L340.901856764,208.885941645 L342.387267905,204.058355438 L333.103448276,193.660477454 L334.960212202,180.291777188 L338.673740053,173.236074271 L334.217506631,159.124668435 L350.185676393,132.015915119 L360.954907162,134.24403183 L369.867374005,129.787798408 L392.519893899,134.615384615 L399.204244032,130.901856764 L401.803713528,118.275862069 L421.856763926,123.103448276 L431.883289125,115.676392573 L439.681697613,116.790450928 Z" fill="#cee3f5" id="UA.CH" stroke="#6e6e6e" stroke-width="0.4"><desc><labelrank>7</labelrank><code_hasc>UA.CH</code_hasc><name>Chernihiv</name><admin>Ukraine</admin><type_en>Region</type_en><region /><woe_id>2347535</woe_id><longitude>32</longitude><woe_name>Chernihiv</woe_name><fips>UP02</fips><woe_label>Chernihiv Oblast, UA, Ukraine</woe_label><latitude>51</latitude><iso_a2>UA</iso_a2><postal>CH</postal><type>Oblast'</type><id>UA.CH</id></desc></path><path d="M229.49602122,160.23872679 L226.525198939,165.809018568 L223.183023873,162.466843501 L220.212201592,175.092838196 L209.814323607,188.090185676 L211.299734748,203.315649867 L207.586206897,214.456233422 L204.24403183,211.485411141 L193.103448276,215.570291777 L169.708222812,234.50928382 L169.708222812,227.824933687 L159.310344828,226.710875332 L153.74005305,231.167108753 L140.0,230.795755968 L135.915119363,239.336870027 L129.973474801,233.395225464 L131.087533156,222.625994695 L126.25994695,221.51193634 L132.201591512,217.055702918 L128.48806366,211.856763926 L130.344827586,207.029177719 L136.286472149,207.771883289 L140.0,200.344827586 L151.140583554,199.602122016 L157.082228117,204.801061008 L159.681697613,195.517241379 L164.50928382,193.289124668 L164.50928382,186.604774536 L168.965517241,184.74801061 L163.766578249,179.177718833 L168.594164456,173.236074271 L161.167108753,160.610079576 L151.140583554,161.724137931 L154.111405836,147.984084881 L151.51193634,140.928381963 L158.196286472,130.159151194 L154.111405836,127.931034483 L211.671087533,142.785145889 L215.013262599,153.183023873 L230.610079576,154.297082228 L229.49602122,160.23872679 Z" fill="#cee3f5" id="UA.RV" stroke="#6e6e6e" stroke-width="0.4"><desc><labelrank>7</labelrank><code_hasc>UA.RV</code_hasc><name>Rivne</name><admin>Ukraine</admin><type_en>Region</type_en><region /><woe_id>2347551</woe_id><longitude>26</longitude><woe_name>Rivne</woe_name><fips>UP18</fips><woe_label>Rivne Oblast, UA, Ukraine</woe_label><latitude>51</latitude><iso_a2>UA</iso_a2><postal>RV</postal><type>Oblast'</type><id>UA.RV</id></desc></path><path d="M166.737400531,331.061007958 L175.278514589,335.517241379 L180.106100796,327.347480106 L185.305039788,331.061007958 L205.729442971,327.347480106 L210.185676393,337.00265252 L198.302387268,342.944297082 L183.819628647,339.973474801 L180.848806366,345.915119363 L177.5066313,342.944297082 L173.421750663,347.400530504 L161.909814324,348.514588859 L155.968169761,361.140583554 L119.204244032,362.99734748 L105.092838196,372.652519894 L109.920424403,350.371352785 L126.25994695,335.145888594 L134.801061008,335.517241379 L138.514588859,318.806366048 L149.283819629,325.119363395 L154.482758621,322.148541114 L155.225464191,328.090185676 L157.453580902,324.74801061 L158.938992042,329.575596817 L166.737400531,331.061007958 Z" fill="#cee3f5" id="UA.CV" stroke="#6e6e6e" stroke-width="0.4"><desc><labelrank>7</labelrank><code_hasc>UA.CV</code_hasc><name>Chernivtsi</name><admin>Ukraine</admin><type_en>Region</type_en><region /><woe_id>2347536</woe_id><longitude>26</longitude><woe_name>Chernivtsi</woe_name><fips>UP03</fips><woe_label>Chernivtsi Oblast, UA, Ukraine</woe_label><latitude>48</latitude><iso_a2>UA</iso_a2><postal>CV</postal><type>Oblast'</type><id>UA.CV</id></desc></path><path d="M107.692307692,267.188328912 L111.034482759,289.840848806 L115.862068966,291.697612732 L112.148541114,294.668435013 L121.432360743,305.809018568 L124.774535809,302.466843501 L123.660477454,307.665782493 L127.374005305,308.037135279 L124.031830239,311.75066313 L133.315649867,307.294429708 L138.514588859,318.806366048 L134.801061008,335.517241379 L126.25994695,335.145888594 L109.920424403,350.371352785 L105.092838196,372.652519894 L92.0954907162,358.169761273 L95.8090185676,351.485411141 L91.3527851459,338.48806366 L85.0397877984,330.318302387 L78.7267904509,330.689655172 L78.7267904509,321.034482759 L70.1856763926,323.633952255 L65.7294429708,312.864721485 L57.1883289125,306.923076923 L66.100795756,286.127320955 L94.6949602122,283.899204244 L89.8673740053,276.472148541 L95.8090185676,273.50132626 L96.9230769231,265.331564987 L107.692307692,267.188328912 Z" fill="#cee3f5" id="UA.IF" stroke="#6e6e6e" stroke-width="0.4"><desc><labelrank>7</labelrank><code_hasc>UA.IF</code_hasc><name>Ivano-Frankivs'k</name><admin>Ukraine</admin><type_en>Region</type_en><region /><woe_id>2347539</woe_id><longitude>24</longitude><woe_name>Ivano-Frankivs'k</woe_name><fips>UP06</fips><woe_label>Ivano-Frankivsk Oblast, UA, Ukraine</woe_label><latitude>48</latitude><iso_a2>UA</iso_a2><postal>IF</postal><type>Oblast'</type><id>UA.IF</id></desc></path><path d="M207.586206897,214.456233422 L211.299734748,218.541114058 L208.328912467,224.111405836 L217.24137931,234.137931034 L221.697612732,233.023872679 L223.183023873,245.649867374 L218.355437666,247.135278515 L217.984084881,252.705570292 L222.068965517,259.389920424 L229.867374005,262.360742706 L225.039787798,266.445623342 L227.267904509,269.787798408 L223.183023873,277.214854111 L227.267904509,282.413793103 L228.01061008,297.639257294 L212.413793103,299.124668435 L207.957559682,306.180371353 L205.729442971,327.347480106 L185.305039788,331.061007958 L180.106100796,327.347480106 L175.278514589,335.517241379 L166.737400531,331.061007958 L161.538461538,307.294429708 L165.99469496,285.013262599 L163.023872679,271.273209549 L167.851458886,263.474801061 L165.25198939,245.278514589 L169.708222812,234.50928382 L193.103448276,215.570291777 L204.24403183,211.485411141 L207.586206897,214.456233422 Z" fill="#cee3f5" id="UA.KM" stroke="#6e6e6e" stroke-width="0.4"><desc><labelrank>7</labelrank><code_hasc>UA.KM</code_hasc><name>Khmel'nyts'kyy</name><admin>Ukraine</admin><type_en>Region</type_en><region /><woe_id>2347542</woe_id><longitude>27</longitude><woe_name>Khmel'nyts'kyy</woe_name><fips>UP09</fips><woe_label>Khmelnytskyi Oblast, UA, Ukraine</woe_label><latitude>49</latitude><iso_a2>UA</iso_a2><postal>KM</postal><type>Oblast'</type><id>UA.KM</id></desc></path><path d="M126.25994695,221.51193634 L131.087533156,222.625994695 L129.973474801,233.395225464 L135.915119363,239.336870027 L135.915119363,247.135278515 L124.403183024,249.734748011 L124.031830239,255.305039788 L107.692307692,267.188328912 L96.9230769231,265.331564987 L95.8090185676,273.50132626 L89.8673740053,276.472148541 L94.6949602122,283.899204244 L66.100795756,286.127320955 L57.1883289125,306.923076923 L36.7639257294,296.525198939 L33.4217506631,286.870026525 L27.4801061008,277.214854111 L30.0795755968,253.076923077 L75.3846153846,210.74270557 L86.525198939,210.371352785 L92.8381962865,197.74535809 L106.949602122,204.429708223 L106.206896552,212.599469496 L125.888594164,218.169761273 L126.25994695,221.51193634 Z" fill="#cee3f5" id="UA.LV" stroke="#6e6e6e" stroke-width="0.4"><desc><labelrank>7</labelrank><code_hasc>UA.LV</code_hasc><name>L'viv</name><admin>Ukraine</admin><type_en>Region</type_en><region /><woe_id>2347547</woe_id><longitude>24</longitude><woe_name>L'viv</woe_name><fips>UP13</fips><woe_label>Lviv Oblast, UA, Ukraine</woe_label><latitude>49</latitude><iso_a2>UA</iso_a2><postal>LV</postal><type>Oblast'</type><id>UA.LV</id></desc></path><path d="M169.708222812,234.50928382 L165.25198939,245.278514589 L167.851458886,263.474801061 L163.023872679,271.273209549 L165.99469496,285.013262599 L161.538461538,307.294429708 L166.737400531,331.061007958 L158.938992042,329.575596817 L157.453580902,324.74801061 L155.225464191,328.090185676 L154.482758621,322.148541114 L149.283819629,325.119363395 L138.514588859,318.806366048 L133.315649867,307.294429708 L124.031830239,311.75066313 L127.374005305,308.037135279 L123.660477454,307.665782493 L124.774535809,302.466843501 L121.432360743,305.809018568 L112.148541114,294.668435013 L115.862068966,291.697612732 L111.034482759,289.840848806 L107.692307692,267.188328912 L124.031830239,255.305039788 L124.403183024,249.734748011 L135.915119363,247.135278515 L135.915119363,239.336870027 L140.0,230.795755968 L153.74005305,231.167108753 L159.310344828,226.710875332 L169.708222812,227.824933687 L169.708222812,234.50928382 Z" fill="#cee3f5" id="UA.TP" stroke="#6e6e6e" stroke-width="0.4"><desc><labelrank>7</labelrank><code_hasc>UA.TP</code_hasc><name>Ternopil'</name><admin>Ukraine</admin><type_en>Region</type_en><region /><woe_id>2347553</woe_id><longitude>25</longitude><woe_name>Ternopil'</woe_name><fips>UP19</fips><woe_label>Ternopil Oblast, UA, Ukraine</woe_label><latitude>49</latitude><iso_a2>UA</iso_a2><postal>TP</postal><type>Oblast'</type><id>UA.TP</id></desc></path><path d="M33.4217506631,286.870026525 L36.7639257294,296.525198939 L57.1883289125,306.923076923 L65.7294429708,312.864721485 L70.1856763926,323.633952255 L78.7267904509,321.034482759 L78.7267904509,330.689655172 L85.0397877984,330.318302387 L91.3527851459,338.48806366 L95.8090185676,351.485411141 L92.0954907162,358.169761273 L77.6127320955,358.912466844 L61.2732095491,351.485411141 L48.6472148541,350.74270557 L36.7639257294,341.830238727 L25.6233421751,349.25729443 L23.7665782493,340.344827586 L15.9681697613,339.230769231 L12.2546419098,329.946949602 L7.42705570292,329.575596817 L5.19893899204,319.177718833 L0.0,318.435013263 L1.48541114058,308.779840849 L9.28381962865,303.209549072 L22.2811671088,280.928381963 L33.4217506631,286.870026525 Z" fill="#cee3f5" id="UA.ZK" stroke="#6e6e6e" stroke-width="0.4"><desc><labelrank>5</labelrank><code_hasc>UA.ZK</code_hasc><name>Transcarpathia</name><admin>Ukraine</admin><type_en>Region</type_en><region /><woe_id>2347556</woe_id><longitude>23</longitude><woe_name>Transcarpathia</woe_name><fips>UP22</fips><woe_label>Zakarpattia Oblast, UA, Ukraine</woe_label><latitude>48</latitude><iso_a2>UA</iso_a2><postal>ZK</postal><type>Oblast'</type><id>UA.ZK</id></desc></path><path d="M154.111405836,127.931034483 L158.196286472,130.159151194 L151.51193634,140.928381963 L154.111405836,147.984084881 L151.140583554,161.724137931 L161.167108753,160.610079576 L168.594164456,173.236074271 L163.766578249,179.177718833 L168.965517241,184.74801061 L164.50928382,186.604774536 L164.50928382,193.289124668 L159.681697613,195.517241379 L157.082228117,204.801061008 L151.140583554,199.602122016 L140.0,200.344827586 L136.286472149,207.771883289 L130.344827586,207.029177719 L128.48806366,211.856763926 L132.201591512,217.055702918 L126.25994695,221.51193634 L125.888594164,218.169761273 L106.206896552,212.599469496 L106.949602122,204.429708223 L92.8381962865,197.74535809 L88.3819628647,186.604774536 L95.8090185676,184.74801061 L80.2122015915,156.153846154 L83.1830238727,150.583554377 L81.3262599469,137.586206897 L95.0663129973,141.299734748 L111.777188329,125.702917772 L154.111405836,127.931034483 Z" fill="#cee3f5" id="UA.VO" stroke="#6e6e6e" stroke-width="0.4"><desc><labelrank>5</labelrank><code_hasc>UA.VO</code_hasc><name>Volyn</name><admin>Ukraine</admin><type_en>Region</type_en><region /><woe_id>2347555</woe_id><longitude>24</longitude><woe_name>Volyn</woe_name><fips>UP21</fips><woe_label>Volyn Oblast, UA, Ukraine</woe_label><latitude>51</latitude><iso_a2>UA</iso_a2><postal>VO</postal><type>Oblast'</type><id>UA.VO</id></desc></path><path d="M390.291777188,240.822281167 L397.718832891,245.649867374 L396.976127321,251.220159151 L402.917771883,256.790450928 L401.432360743,262.732095491 L415.915119363,278.700265252 L412.944297082,285.75596817 L417.029177719,298.381962865 L419.628647215,312.4933687 L416.657824934,315.835543767 L406.631299735,317.692307692 L399.575596817,308.408488064 L391.405835544,318.806366048 L382.122015915,321.777188329 L376.180371353,316.578249337 L368.75331565,317.692307692 L365.411140584,327.347480106 L360.212201592,329.204244032 L336.074270557,326.233421751 L330.132625995,338.116710875 L310.822281167,343.687002653 L306.366047745,343.315649867 L306.737400531,331.803713528 L293.368700265,309.151193634 L298.196286472,297.639257294 L304.137931034,300.981432361 L315.649867374,292.440318302 L324.562334218,298.381962865 L326.790450928,291.697612732 L344.986737401,292.440318302 L354.641909814,280.185676393 L357.24137931,262.732095491 L365.782493369,259.76127321 L368.01061008,263.846153846 L372.095490716,260.50397878 L376.551724138,263.474801061 L381.75066313,248.620689655 L390.291777188,240.822281167 Z" fill="#cee3f5" id="UA.CK" stroke="#6e6e6e" stroke-width="0.4"><desc><labelrank>7</labelrank><code_hasc>UA.CK</code_hasc><name>Cherkasy</name><admin>Ukraine</admin><type_en>Region</type_en><region /><woe_id>2347534</woe_id><longitude>31</longitude><woe_name>Cherkasy</woe_name><fips>UP01</fips><woe_label>Cherkasy Oblast, UA, Ukraine</woe_label><latitude>49</latitude><iso_a2>UA</iso_a2><postal>CK</postal><type>Oblast'</type><id>UA.CK</id></desc></path><path d="M460.848806366,321.405835544 L457.5066313,327.718832891 L447.480106101,326.233421751 L457.135278515,333.289124668 L442.652519894,341.458885942 L445.623342175,358.541114058 L435.968169761,366.339522546 L434.854111406,362.25464191 L434.111405836,367.082228117 L429.655172414,368.938992042 L427.427055703,371.167108753 L427.055702918,372.652519894 L426.684350133,374.50928382 L425.941644562,374.137931034 L425.941644562,373.766578249 L425.941644562,373.766578249 L425.941644562,373.023872679 L425.941644562,372.652519894 L425.941644562,372.652519894 L424.456233422,370.053050398 L423.342175066,370.424403183 L421.485411141,370.424403183 L421.114058355,370.424403183 L420.74270557,370.795755968 L420.74270557,370.795755968 L420.74270557,371.167108753 L420.74270557,371.167108753 L420.74270557,371.538461538 L420.74270557,372.652519894 L420.74270557,372.652519894 L420.74270557,373.023872679 L420.371352785,373.023872679 L419.25729443,373.395225464 L418.885941645,373.395225464 L418.885941645,373.766578249 L418.885941645,374.137931034 L418.514588859,374.50928382 L418.514588859,374.50928382 L418.514588859,374.50928382 L418.143236074,374.50928382 L417.771883289,374.50928382 L416.657824934,373.023872679 L414.058355438,373.766578249 L413.687002653,374.137931034 L413.315649867,374.137931034 L413.315649867,374.50928382 L412.944297082,374.50928382 L412.944297082,374.880636605 L412.944297082,374.880636605 L412.572944297,375.25198939 L412.572944297,375.623342175 L412.572944297,375.623342175 L412.572944297,375.99469496 L412.572944297,375.99469496 L412.944297082,376.366047745 L412.944297082,376.366047745 L414.058355438,376.737400531 L414.058355438,377.480106101 L411.830238727,378.594164456 L412.201591512,380.822281167 L412.201591512,381.193633952 L412.572944297,381.193633952 L412.572944297,381.193633952 L412.572944297,381.564986737 L412.572944297,381.564986737 L412.572944297,381.936339523 L412.572944297,381.936339523 L411.458885942,381.936339523 L411.458885942,381.936339523 L411.458885942,382.307692308 L411.458885942,382.679045093 L411.458885942,383.050397878 L411.458885942,383.793103448 L411.458885942,384.164456233 L411.087533156,384.164456233 L411.087533156,384.164456233 L404.031830239,385.278514589 L395.119363395,383.050397878 L391.034482759,387.135278515 L379.893899204,384.164456233 L379.151193634,381.193633952 L380.265251989,379.336870027 L380.265251989,378.965517241 L380.265251989,378.594164456 L380.265251989,378.594164456 L380.265251989,378.222811671 L379.151193634,377.108753316 L379.151193634,377.108753316 L379.151193634,376.737400531 L379.151193634,375.99469496 L378.779840849,375.623342175 L378.779840849,375.623342175 L376.551724138,374.880636605 L374.323607427,371.167108753 L374.323607427,370.795755968 L376.180371353,370.053050398 L376.551724138,369.310344828 L376.180371353,366.339522546 L375.809018568,366.339522546 L374.323607427,366.710875332 L373.952254642,366.710875332 L372.095490716,365.968169761 L371.724137931,365.968169761 L371.352785146,365.225464191 L370.981432361,365.225464191 L370.610079576,365.225464191 L370.23872679,365.225464191 L369.867374005,365.596816976 L369.867374005,365.596816976 L369.49602122,367.082228117 L369.49602122,367.082228117 L368.381962865,367.082228117 L368.01061008,366.710875332 L367.639257294,366.710875332 L367.639257294,367.082228117 L367.267904509,368.567639257 L366.896551724,368.567639257 L366.896551724,368.938992042 L366.525198939,368.938992042 L366.153846154,368.196286472 L366.525198939,365.968169761 L366.525198939,365.225464191 L366.525198939,365.225464191 L366.525198939,365.225464191 L366.153846154,364.854111406 L363.925729443,365.225464191 L362.811671088,365.596816976 L362.440318302,365.225464191 L361.697612732,364.482758621 L361.697612732,364.482758621 L360.954907162,364.854111406 L360.212201592,365.225464191 L360.212201592,365.225464191 L356.49867374,364.854111406 L349.071618037,358.541114058 L343.129973475,362.25464191 L342.015915119,361.883289125 L341.644562334,360.769230769 L341.273209549,360.769230769 L341.273209549,360.397877984 L335.331564987,360.397877984 L334.960212202,360.397877984 L333.103448276,361.140583554 L332.732095491,361.51193634 L332.360742706,361.51193634 L331.98938992,362.625994695 L331.618037135,362.625994695 L326.790450928,361.51193634 L320.848806366,361.140583554 L320.477453581,361.51193634 L320.477453581,362.25464191 L320.106100796,362.625994695 L319.734748011,362.99734748 L318.620689655,362.625994695 L310.450928382,361.883289125 L308.965517241,361.140583554 L308.222811671,360.026525199 L307.108753316,357.427055703 L305.623342175,357.798408488 L304.880636605,357.055702918 L304.50928382,357.055702918 L304.50928382,357.055702918 L304.137931034,357.427055703 L304.137931034,357.427055703 L303.023872679,359.283819629 L302.652519894,359.655172414 L302.281167109,359.655172414 L302.281167109,359.283819629 L301.538461538,358.169761273 L300.424403183,357.798408488 L300.424403183,357.427055703 L298.567639257,357.798408488 L298.567639257,357.427055703 L298.938992042,356.684350133 L298.938992042,355.198938992 L297.082228117,354.084880637 L299.310344828,348.514588859 L310.822281167,343.687002653 L330.132625995,338.116710875 L336.074270557,326.233421751 L360.212201592,329.204244032 L365.411140584,327.347480106 L368.75331565,317.692307692 L376.180371353,316.578249337 L382.122015915,321.777188329 L391.405835544,318.806366048 L399.575596817,308.408488064 L406.631299735,317.692307692 L416.657824934,315.835543767 L419.628647215,312.4933687 L417.029177719,298.381962865 L438.567639257,311.00795756 L440.053050398,317.320954907 L460.848806366,321.405835544 Z" fill="#cee3f5" id="UA.KH" stroke="#6e6e6e" stroke-width="0.4"><desc><labelrank>7</labelrank><code_hasc>UA.KH</code_hasc><name>Kirovohrad</name><admin>Ukraine</admin><type_en>Region</type_en><region /><woe_id>2347543</woe_id><longitude>31</longitude><woe_name>Kirovohrad</woe_name><fips>UP10</fips><woe_label>Kirovohrad Oblast, UA, Ukraine</woe_label><latitude>48</latitude><iso_a2>UA</iso_a2><postal>KH</postal><type>Oblast'</type><id>UA.KH</id></desc></path><path d="M334.960212202,180.291777188 L333.103448276,193.660477454 L342.387267905,204.058355438 L340.901856764,208.885941645 L353.899204244,208.885941645 L362.440318302,224.482758621 L373.209549072,224.111405836 L382.4933687,218.169761273 L388.806366048,222.625994695 L386.578249337,226.710875332 L392.891246684,234.137931034 L390.291777188,240.822281167 L381.75066313,248.620689655 L376.551724138,263.474801061 L372.095490716,260.50397878 L368.01061008,263.846153846 L365.782493369,259.76127321 L357.24137931,262.732095491 L354.641909814,280.185676393 L344.986737401,292.440318302 L326.790450928,291.697612732 L324.562334218,298.381962865 L315.649867374,292.440318302 L304.137931034,300.981432361 L298.196286472,297.639257294 L291.51193634,291.326259947 L293.74005305,279.814323607 L289.655172414,272.387267905 L289.655172414,263.474801061 L301.167108753,256.047745358 L301.909814324,244.907161804 L296.339522546,227.824933687 L290.769230769,226.710875332 L297.824933687,210.0 L291.140583554,194.403183024 L295.225464191,189.204244032 L288.541114058,185.119363395 L291.140583554,170.636604775 L301.909814324,164.323607427 L308.594164456,168.408488064 L320.477453581,165.437665782 L334.960212202,180.291777188 Z" fill="#cee3f5" id="UA.KV" stroke="#6e6e6e" stroke-width="0.4"><desc><labelrank>7</labelrank><code_hasc>UA.KV</code_hasc><name>Kiev</name><admin>Ukraine</admin><type_en>Region</type_en><region /><woe_id>2347545</woe_id><longitude>31</longitude><woe_name>Kiev</woe_name><fips>UP11</fips><woe_label>Kiev Oblast, UA, Ukraine</woe_label><latitude>50</latitude><iso_a2>UA</iso_a2><postal>KV</postal><type>Oblast'</type><id>UA.KV</id></desc></path><path d="M293.368700265,510.424403183 L290.397877984,511.538461538 L307.108753316,499.283819629 L293.368700265,510.424403183 M318.620689655,362.625994695 L315.278514589,370.795755968 L322.705570292,391.591511936 L333.474801061,395.305039788 L337.188328912,392.705570292 L342.015915119,413.872679045 L351.299734748,414.615384615 L349.814323607,419.814323607 L357.24137931,424.641909814 L353.899204244,432.068965517 L346.100795756,433.554376658 L350.928381963,440.981432361 L352.042440318,452.4933687 L335.702917772,456.578249337 L334.588859416,465.49071618 L322.705570292,483.687002653 L307.480106101,498.541114058 L307.480106101,494.456233422 L305.99469496,498.912466844 L298.938992042,498.541114058 L298.938992042,504.111405836 L293.74005305,502.99734748 L295.968169761,507.082228117 L290.397877984,510.053050398 L287.055702918,497.427055703 L284.456233422,513.023872679 L289.283819629,512.652519894 L284.827586207,517.851458886 L291.140583554,520.079575597 L287.798408488,533.448275862 L286.312997347,525.649867374 L277.400530504,520.450928382 L269.230769231,520.450928382 L256.233421751,528.24933687 L250.663129973,525.649867374 L251.034482759,530.106100796 L246.949602122,530.848806366 L231.724137931,524.535809019 L226.525198939,515.99469496 L229.867374005,512.652519894 L239.151193634,513.766578249 L238.779840849,504.854111406 L250.291777188,495.198938992 L250.663129973,488.143236074 L259.575596817,485.915119363 L260.689655172,459.177718833 L270.344827586,454.721485411 L270.716180371,465.49071618 L275.172413793,458.806366048 L277.771883289,462.519893899 L281.485411141,458.435013263 L287.427055703,465.862068966 L291.883289125,459.549071618 L295.968169761,467.718832891 L308.594164456,463.262599469 L299.681697613,456.578249337 L301.167108753,440.23872679 L286.684350133,431.697612732 L288.541114058,425.013262599 L283.713527851,421.671087533 L287.427055703,409.416445623 L281.485411141,411.644562334 L271.830238727,401.24668435 L276.286472149,376.737400531 L272.201591512,370.053050398 L266.25994695,372.652519894 L264.031830239,371.167108753 L262.546419098,369.681697613 L261.803713528,368.196286472 L261.803713528,368.196286472 L262.546419098,367.453580902 L266.25994695,366.339522546 L267.00265252,365.596816976 L268.116710875,364.482758621 L268.116710875,364.482758621 L268.859416446,364.111405836 L269.602122016,363.74005305 L269.602122016,363.368700265 L269.602122016,363.368700265 L269.602122016,362.99734748 L269.602122016,362.99734748 L269.602122016,361.51193634 L269.230769231,361.140583554 L269.602122016,360.769230769 L269.602122016,360.769230769 L269.602122016,360.397877984 L270.716180371,360.026525199 L271.087533156,360.026525199 L271.458885942,360.026525199 L271.830238727,360.397877984 L272.201591512,360.397877984 L272.572944297,360.769230769 L272.944297082,361.51193634 L273.687002653,361.883289125 L274.429708223,362.625994695 L277.400530504,364.111405836 L294.111405836,364.482758621 L294.482758621,364.482758621 L295.225464191,361.883289125 L295.225464191,361.883289125 L295.225464191,361.51193634 L294.482758621,360.397877984 L294.111405836,360.026525199 L294.111405836,359.655172414 L294.111405836,359.655172414 L294.482758621,359.283819629 L294.854111406,358.912466844 L295.968169761,359.283819629 L298.567639257,357.798408488 L300.424403183,357.427055703 L300.424403183,357.798408488 L300.795755968,357.798408488 L301.538461538,358.169761273 L302.281167109,359.283819629 L302.281167109,359.655172414 L302.652519894,359.655172414 L303.023872679,359.283819629 L304.137931034,357.427055703 L304.137931034,357.427055703 L304.50928382,357.055702918 L304.50928382,357.055702918 L307.108753316,357.427055703 L308.222811671,360.026525199 L308.965517241,361.140583554 L310.450928382,361.883289125 L318.620689655,362.625994695 Z" fill="#cee3f5" id="UA.903" stroke="#6e6e6e" stroke-width="0.4"><desc><labelrank>7</labelrank><code_hasc>UA.MY</code_hasc><name>Odessa</name><admin>Ukraine</admin><type_en>Region</type_en><region /><woe_id>2347549</woe_id><longitude>29</longitude><woe_name>Odessa</woe_name><fips>UP15</fips><woe_label>Odessa Oblast, UA, Ukraine</woe_label><latitude>46</latitude><iso_a2>UA</iso_a2><postal>MY</postal><type>Oblast'</type><id>UA.903</id></desc></path><path d="M289.655172414,272.387267905 L293.74005305,279.814323607 L291.51193634,291.326259947 L298.196286472,297.639257294 L293.368700265,309.151193634 L306.737400531,331.803713528 L306.366047745,343.315649867 L310.822281167,343.687002653 L299.310344828,348.514588859 L297.082228117,354.084880637 L298.938992042,355.198938992 L298.938992042,356.684350133 L298.567639257,357.427055703 L298.567639257,357.798408488 L295.968169761,359.283819629 L294.854111406,358.912466844 L294.482758621,359.283819629 L294.111405836,359.655172414 L294.111405836,359.655172414 L294.111405836,360.026525199 L294.482758621,360.397877984 L295.225464191,361.51193634 L295.225464191,361.883289125 L295.225464191,361.883289125 L294.482758621,364.482758621 L294.111405836,364.482758621 L277.400530504,364.111405836 L274.429708223,362.625994695 L274.058355438,362.25464191 L273.687002653,361.883289125 L272.944297082,361.51193634 L272.572944297,360.769230769 L272.201591512,360.397877984 L271.830238727,360.397877984 L271.458885942,360.026525199 L271.087533156,360.026525199 L270.716180371,360.026525199 L269.602122016,360.397877984 L269.602122016,360.769230769 L269.602122016,360.769230769 L269.230769231,361.140583554 L269.602122016,361.51193634 L269.602122016,362.99734748 L269.602122016,362.99734748 L269.602122016,363.368700265 L269.602122016,363.368700265 L269.602122016,363.74005305 L268.859416446,364.111405836 L268.116710875,364.482758621 L268.116710875,364.482758621 L266.25994695,366.339522546 L262.546419098,367.453580902 L261.803713528,368.196286472 L261.803713528,368.196286472 L258.832891247,360.769230769 L249.920424403,358.169761273 L246.949602122,363.368700265 L244.721485411,357.055702918 L241.00795756,358.912466844 L242.864721485,352.970822281 L232.466843501,352.599469496 L232.095490716,347.771883289 L221.326259947,339.602122016 L210.185676393,337.00265252 L205.729442971,327.347480106 L207.957559682,306.180371353 L212.413793103,299.124668435 L228.01061008,297.639257294 L227.267904509,282.413793103 L223.183023873,277.214854111 L227.267904509,269.787798408 L225.039787798,266.445623342 L229.867374005,262.360742706 L262.175066313,262.360742706 L267.00265252,257.533156499 L272.944297082,266.445623342 L272.201591512,274.615384615 L289.655172414,272.387267905 Z" fill="#cee3f5" id="UA.VI" stroke="#6e6e6e" stroke-width="0.4"><desc><labelrank>7</labelrank><code_hasc>UA.VI</code_hasc><name>Vinnytsya</name><admin>Ukraine</admin><type_en>Region</type_en><region /><woe_id>2347554</woe_id><longitude>28</longitude><woe_name>Vinnytsya</woe_name><fips>UP20</fips><woe_label>Vinnytsia Oblast, UA, Ukraine</woe_label><latitude>48</latitude><iso_a2>UA</iso_a2><postal>VI</postal><type>Oblast'</type><id>UA.VI</id></desc></path><path d="M291.140583554,170.636604775 L288.541114058,185.119363395 L295.225464191,189.204244032 L291.140583554,194.403183024 L297.824933687,210.0 L290.769230769,226.710875332 L296.339522546,227.824933687 L301.909814324,244.907161804 L301.167108753,256.047745358 L289.655172414,263.474801061 L289.655172414,272.387267905 L272.201591512,274.615384615 L272.944297082,266.445623342 L267.00265252,257.533156499 L262.175066313,262.360742706 L229.867374005,262.360742706 L222.068965517,259.389920424 L217.984084881,252.705570292 L218.355437666,247.135278515 L223.183023873,245.649867374 L221.697612732,233.023872679 L217.24137931,234.137931034 L208.328912467,224.111405836 L211.299734748,218.541114058 L207.586206897,214.456233422 L211.299734748,203.315649867 L209.814323607,188.090185676 L220.212201592,175.092838196 L223.183023873,162.466843501 L226.525198939,165.809018568 L229.49602122,160.23872679 L232.095490716,161.352785146 L235.809018568,153.183023873 L244.350132626,157.267904509 L250.663129973,152.068965517 L254.00530504,159.49602122 L264.031830239,158.75331565 L268.116710875,168.037135279 L271.087533156,160.23872679 L281.856763926,155.039787798 L291.140583554,170.636604775 Z" fill="#cee3f5" id="UA.ZT" stroke="#6e6e6e" stroke-width="0.4"><desc><labelrank>7</labelrank><code_hasc>UA.ZT</code_hasc><name>Zhytomyr</name><admin>Ukraine</admin><type_en>Region</type_en><region /><woe_id>2347558</woe_id><longitude>28</longitude><woe_name>Zhytomyr</woe_name><fips>UP24</fips><woe_label>Zhytomyr Oblast, UA, Ukraine</woe_label><latitude>50</latitude><iso_a2>UA</iso_a2><postal>ZT</postal><type>Oblast'</type><id>UA.ZT</id></desc></path><path d="M526.578249337,232.652519894 L515.437665782,233.766578249 L497.24137931,245.278514589 L480.901856764,247.877984085 L482.015915119,242.307692308 L470.875331565,222.625994695 L464.933687003,227.082228117 L458.99204244,223.368700265 L452.679045093,227.453580902 L427.427055703,223.368700265 L432.99734748,193.289124668 L422.970822281,190.318302387 L427.798408488,181.405835544 L425.198938992,173.607427056 L429.655172414,173.978779841 L432.25464191,165.809018568 L427.427055703,149.469496021 L442.652519894,133.129973475 L437.082228117,128.302387268 L439.681697613,116.790450928 L443.766578249,120.132625995 L454.164456233,116.047745358 L463.819628647,127.559681698 L465.305039788,139.814323607 L475.702917772,147.612732095 L475.702917772,153.925729443 L464.933687003,158.01061008 L470.132625995,165.437665782 L469.018567639,172.4933687 L473.103448276,173.978779841 L469.018567639,181.034482759 L484.615384615,181.777188329 L487.214854111,185.49071618 L502.068965517,182.891246684 L504.668435013,191.432360743 L512.838196286,193.289124668 L510.23872679,197.374005305 L517.665782493,214.084880637 L514.323607427,216.312997347 L516.180371353,224.111405836 L526.578249337,232.652519894 Z" fill="#cee3f5" id="UA.SM" stroke="#6e6e6e" stroke-width="0.4"><desc><labelrank>7</labelrank><code_hasc>UA.SM</code_hasc><name>Sumy</name><admin>Ukraine</admin><type_en>Region</type_en><region /><woe_id>2347552</woe_id><longitude>34</longitude><woe_name>Sumy</woe_name><fips>UP18</fips><woe_label>Sumy Oblast, UA, Ukraine</woe_label><latitude>50</latitude><iso_a2>UA</iso_a2><postal>SM</postal><type>Oblast'</type><id>UA.SM</id></desc></path><path d="M501.697612732,303.209549072 L509.124668435,303.952254642 L520.636604775,313.607427056 L539.575596817,313.236074271 L540.318302387,319.920424403 L553.315649867,332.546419098 L553.687002653,338.859416446 L560.74270557,331.432360743 L570.397877984,332.175066313 L571.883289125,337.74535809 L577.082228117,335.145888594 L574.854111406,349.628647215 L579.681697613,356.684350133 L576.710875332,366.710875332 L566.312997347,364.854111406 L566.684350133,378.594164456 L548.116710875,379.708222812 L548.48806366,373.766578249 L541.803713528,364.854111406 L498.355437666,364.482758621 L496.870026525,370.795755968 L500.954907162,374.880636605 L496.870026525,378.965517241 L502.440318302,386.392572944 L501.697612732,399.389920424 L488.700265252,397.161803714 L482.75862069,400.132625995 L477.931034483,401.24668435 L473.103448276,402.732095491 L450.822281167,402.732095491 L447.851458886,397.533156499 L438.938992042,402.360742706 L436.710875332,399.76127321 L432.99734748,398.647214854 L431.883289125,397.904509284 L428.912466844,397.161803714 L425.570291777,396.419098143 L425.198938992,396.419098143 L425.198938992,396.419098143 L424.827586207,396.047745358 L425.198938992,395.305039788 L425.198938992,394.933687003 L425.941644562,394.562334218 L425.941644562,394.190981432 L425.941644562,393.819628647 L425.941644562,393.448275862 L425.941644562,393.076923077 L425.941644562,392.705570292 L425.941644562,392.334217507 L424.456233422,389.734748011 L424.827586207,389.363395225 L425.198938992,388.99204244 L426.684350133,388.620689655 L428.541114058,388.620689655 L428.541114058,388.24933687 L428.912466844,387.877984085 L428.541114058,387.135278515 L427.798408488,385.649867374 L428.541114058,378.594164456 L426.684350133,377.480106101 L427.055702918,374.880636605 L426.684350133,374.50928382 L427.055702918,372.652519894 L427.427055703,371.167108753 L429.655172414,368.938992042 L434.111405836,367.082228117 L434.854111406,362.25464191 L435.968169761,366.339522546 L445.623342175,358.541114058 L442.652519894,341.458885942 L457.135278515,333.289124668 L447.480106101,326.233421751 L457.5066313,327.718832891 L460.848806366,321.405835544 L473.474801061,328.461538462 L479.787798408,308.779840849 L501.697612732,303.209549072 Z" fill="#cee3f5" id="UA.DP" stroke="#6e6e6e" stroke-width="0.4"><desc><labelrank>7</labelrank><code_hasc>UA.DP</code_hasc><name>Dnipropetrovs'k</name><admin>Ukraine</admin><type_en>Region</type_en><region /><woe_id>2347537</woe_id><longitude>34</longitude><woe_name>Dnipropetrovs'k</woe_name><fips>UP04</fips><woe_label>Dnipropetrovsk Oblast, UA, Ukraine</woe_label><latitude>48</latitude><iso_a2>UA</iso_a2><postal>DP</postal><type>Oblast'</type><id>UA.DP</id></desc></path><path d="M664.350132626,371.538461538 L656.180371353,372.652519894 L653.209549072,383.050397878 L636.870026525,389.363395225 L632.785145889,406.816976127 L637.24137931,409.045092838 L632.042440318,422.413793103 L629.071618037,419.071618037 L609.389920424,420.557029178 L600.106100796,433.554376658 L595.649867374,430.583554377 L588.222811671,434.297082228 L590.822281167,425.384615385 L579.681697613,416.100795756 L583.023872679,414.986737401 L581.909814324,409.787798408 L592.307692308,406.074270557 L593.793103448,400.132625995 L574.482758621,392.334217507 L566.684350133,378.594164456 L566.312997347,364.854111406 L576.710875332,366.710875332 L579.681697613,356.684350133 L574.854111406,349.628647215 L577.082228117,335.145888594 L571.883289125,337.74535809 L570.397877984,332.175066313 L568.912466844,322.891246684 L581.909814324,323.633952255 L603.076923077,299.49602122 L600.106100796,295.411140584 L611.98938992,294.297082228 L614.217506631,298.381962865 L620.901856764,298.381962865 L619.416445623,309.893899204 L627.214854111,311.379310345 L630.185676393,316.206896552 L630.557029178,333.660477454 L640.212201592,343.687002653 L637.984084881,348.143236074 L643.925729443,348.143236074 L655.809018568,362.25464191 L663.236074271,362.99734748 L664.350132626,371.538461538 Z" fill="#cee3f5" id="UA.DT" stroke="#6e6e6e" stroke-width="0.4"><desc><labelrank>7</labelrank><code_hasc>UA.DT</code_hasc><name>Donets'k</name><admin>Ukraine</admin><type_en>Region</type_en><region /><woe_id>2347538</woe_id><longitude>37</longitude><woe_name>Donets'k</woe_name><fips>UP05</fips><woe_label>Donetsk Oblast, UA, Ukraine</woe_label><latitude>48</latitude><iso_a2>UA</iso_a2><postal>DT</postal><type>Oblast'</type><id>UA.DT</id></desc></path><path d="M616.074270557,253.819628647 L618.673740053,257.533156499 L613.474801061,264.960212202 L616.074270557,268.673740053 L611.98938992,294.297082228 L600.106100796,295.411140584 L603.076923077,299.49602122 L581.909814324,323.633952255 L568.912466844,322.891246684 L570.397877984,332.175066313 L560.74270557,331.432360743 L553.687002653,338.859416446 L553.315649867,332.546419098 L540.318302387,319.920424403 L539.575596817,313.236074271 L520.636604775,313.607427056 L509.124668435,303.952254642 L501.697612732,303.209549072 L501.326259947,296.153846154 L512.838196286,293.554376658 L514.323607427,284.270557029 L519.893899204,283.156498674 L516.923076923,279.814323607 L519.893899204,279.071618037 L517.665782493,272.015915119 L510.610079576,270.901856764 L507.639257294,262.360742706 L496.127320955,257.904509284 L497.24137931,245.278514589 L515.437665782,233.766578249 L526.578249337,232.652519894 L531.777188329,227.824933687 L542.175066313,227.824933687 L548.48806366,235.623342175 L553.687002653,234.137931034 L561.114058355,239.708222812 L591.193633952,224.482758621 L604.190981432,244.535809019 L616.074270557,253.819628647 Z" fill="#cee3f5" id="UA.KK" stroke="#6e6e6e" stroke-width="0.4"><desc><labelrank>7</labelrank><code_hasc>UA.KK</code_hasc><name>Kharkiv</name><admin>Ukraine</admin><type_en>Region</type_en><region /><woe_id>2347540</woe_id><longitude>36</longitude><woe_name>Kharkiv</woe_name><fips>UP07</fips><woe_label>Kharkiv Oblast, UA, Ukraine</woe_label><latitude>49</latitude><iso_a2>UA</iso_a2><postal>KK</postal><type>Oblast'</type><id>UA.KK</id></desc></path><path d="M664.350132626,371.538461538 L663.236074271,362.99734748 L655.809018568,362.25464191 L643.925729443,348.143236074 L637.984084881,348.143236074 L640.212201592,343.687002653 L630.557029178,333.660477454 L630.185676393,316.206896552 L627.214854111,311.379310345 L619.416445623,309.893899204 L620.901856764,298.381962865 L614.217506631,298.381962865 L611.98938992,294.297082228 L616.074270557,268.673740053 L613.474801061,264.960212202 L618.673740053,257.533156499 L616.074270557,253.819628647 L621.273209549,251.591511936 L621.273209549,244.535809019 L626.100795756,244.164456233 L628.328912467,248.620689655 L640.212201592,248.99204244 L651.352785146,257.533156499 L659.151193634,252.705570292 L663.978779841,260.132625995 L675.49071618,260.132625995 L685.517241379,270.159151194 L697.771883289,266.816976127 L694.801061008,272.387267905 L700.0,286.870026525 L692.572944297,298.75331565 L683.660477454,300.981432361 L687.374005305,308.408488064 L698.885941645,308.779840849 L696.286472149,313.607427056 L688.48806366,313.236074271 L684.031830239,326.976127321 L692.201591512,326.976127321 L696.657824934,338.116710875 L692.572944297,342.572944297 L699.628647215,344.058355438 L691.830238727,360.026525199 L693.315649867,369.310344828 L690.716180371,372.281167109 L664.350132626,371.538461538 Z" fill="#cee3f5" id="UA.LH" stroke="#6e6e6e" stroke-width="0.4"><desc><labelrank>7</labelrank><code_hasc>UA.LH</code_hasc><name>Luhans'k</name><admin>Ukraine</admin><type_en>Region</type_en><region /><woe_id>2347546</woe_id><longitude>39</longitude><woe_name>Luhans'k</woe_name><fips>UP12</fips><woe_label>Luhansk Oblast, UA, Ukraine</woe_label><latitude>48</latitude><iso_a2>UA</iso_a2><postal>LH</postal><type>Oblast'</type><id>UA.LH</id></desc></path><path d="M497.24137931,245.278514589 L496.127320955,257.904509284 L507.639257294,262.360742706 L510.610079576,270.901856764 L517.665782493,272.015915119 L519.893899204,279.071618037 L516.923076923,279.814323607 L519.893899204,283.156498674 L514.323607427,284.270557029 L512.838196286,293.554376658 L501.326259947,296.153846154 L501.697612732,303.209549072 L479.787798408,308.779840849 L473.474801061,328.461538462 L460.848806366,321.405835544 L440.053050398,317.320954907 L438.567639257,311.00795756 L417.029177719,298.381962865 L412.944297082,285.75596817 L415.915119363,278.700265252 L401.432360743,262.732095491 L402.917771883,256.790450928 L396.976127321,251.220159151 L397.718832891,245.649867374 L390.291777188,240.822281167 L392.891246684,234.137931034 L401.803713528,230.795755968 L415.172413793,233.766578249 L427.427055703,223.368700265 L452.679045093,227.453580902 L458.99204244,223.368700265 L464.933687003,227.082228117 L470.875331565,222.625994695 L482.015915119,242.307692308 L480.901856764,247.877984085 L497.24137931,245.278514589 Z" fill="#cee3f5" id="UA.PL" stroke="#6e6e6e" stroke-width="0.4"><desc><labelrank>7</labelrank><code_hasc>UA.PL</code_hasc><name>Poltava</name><admin>Ukraine</admin><type_en>Region</type_en><region /><woe_id>2347550</woe_id><longitude>33</longitude><woe_name>Poltava</woe_name><fips>UP16</fips><woe_label>Poltava Oblast, UA, Ukraine</woe_label><latitude>49</latitude><iso_a2>UA</iso_a2><postal>PL</postal><type>Oblast'</type><id>UA.PL</id></desc></path><path d="M566.684350133,378.594164456 L574.482758621,392.334217507 L593.793103448,400.132625995 L592.307692308,406.074270557 L581.909814324,409.787798408 L583.023872679,414.986737401 L579.681697613,416.100795756 L590.822281167,425.384615385 L588.222811671,434.297082228 L580.795755968,439.49602122 L577.824933687,449.151193634 L578.938992042,443.952254642 L574.482758621,440.981432361 L562.599469496,444.694960212 L558.143236074,451.75066313 L554.429708223,448.408488064 L542.917771883,449.522546419 L518.408488064,474.031830239 L520.636604775,467.718832891 L517.665782493,468.090185676 L513.952254642,458.806366048 L515.066312997,465.49071618 L513.580901857,467.718832891 L511.352785146,471.432360743 L510.981432361,471.803713528 L510.981432361,471.803713528 L509.49602122,471.432360743 L509.124668435,471.061007958 L509.124668435,469.946949602 L509.124668435,469.946949602 L508.75331565,468.832891247 L508.75331565,468.090185676 L508.75331565,468.090185676 L508.75331565,467.718832891 L509.124668435,466.976127321 L509.124668435,466.976127321 L509.124668435,466.604774536 L508.01061008,462.148541114 L507.639257294,461.777188329 L507.639257294,461.405835544 L505.782493369,461.405835544 L503.554376658,459.920424403 L500.583554377,459.920424403 L496.870026525,457.320954907 L495.013262599,454.350132626 L495.013262599,453.607427056 L495.75596817,452.4933687 L495.75596817,451.379310345 L495.75596817,451.00795756 L495.384615385,450.636604775 L495.384615385,450.265251989 L495.013262599,450.265251989 L493.899204244,449.893899204 L493.527851459,449.893899204 L492.785145889,449.151193634 L491.299734748,449.151193634 L491.299734748,447.665782493 L491.671087533,447.294429708 L493.527851459,446.923076923 L493.527851459,446.923076923 L493.527851459,446.551724138 L493.527851459,446.551724138 L493.899204244,446.180371353 L494.641909814,445.809018568 L497.612732095,440.610079576 L497.612732095,439.867374005 L497.612732095,439.124668435 L497.24137931,438.75331565 L497.24137931,438.381962865 L497.24137931,438.381962865 L496.870026525,438.01061008 L496.127320955,438.01061008 L496.127320955,438.01061008 L495.384615385,437.639257294 L494.641909814,435.039787798 L487.957559682,430.212201592 L484.24403183,414.615384615 L484.24403183,413.872679045 L484.24403183,413.872679045 L484.615384615,413.50132626 L485.358090186,412.75862069 L485.729442971,412.387267905 L485.358090186,412.387267905 L485.358090186,412.387267905 L484.986737401,412.015915119 L482.015915119,412.75862069 L480.901856764,414.986737401 L480.530503979,414.986737401 L480.530503979,414.986737401 L479.416445623,414.24403183 L477.188328912,414.986737401 L473.103448276,402.732095491 L477.931034483,401.24668435 L482.75862069,400.132625995 L488.700265252,397.161803714 L501.697612732,399.389920424 L502.440318302,386.392572944 L496.870026525,378.965517241 L500.954907162,374.880636605 L496.870026525,370.795755968 L498.355437666,364.482758621 L541.803713528,364.854111406 L548.48806366,373.766578249 L548.116710875,379.708222812 L566.684350133,378.594164456 Z" fill="#cee3f5" id="UA.ZP" stroke="#6e6e6e" stroke-width="0.4"><desc><labelrank>7</labelrank><code_hasc>UA.ZP</code_hasc><name>Zaporizhzhya</name><admin>Ukraine</admin><type_en>Region</type_en><region /><woe_id>2347557</woe_id><longitude>35</longitude><woe_name>Zaporizhzhya</woe_name><fips>UP23</fips><woe_label>Zaporizhia Oblast, UA, Ukraine</woe_label><latitude>47</latitude><iso_a2>UA</iso_a2><postal>ZP</postal><type>Oblast'</type><id>UA.ZP</id></desc></path><path d="M337.188328912,219.655172414 L340.530503979,214.456233422 L344.24403183,216.312997347 L340.901856764,223.74005305 L344.24403183,233.023872679 L334.960212202,237.851458886 L333.846153846,252.705570292 L324.562334218,228.938992042 L319.363395225,230.053050398 L325.676392573,214.084880637 L333.474801061,221.140583554 L337.188328912,219.655172414 Z" fill="#cee3f5" id="UA.6354" stroke="#6e6e6e" stroke-width="0.4"><desc><labelrank>7</labelrank><code_hasc>UA.KM</code_hasc><name>Kiev City</name><admin>Ukraine</admin><type_en>Municipality</type_en><region /><woe_id>20070188</woe_id><longitude>30</longitude><woe_name>Kiev City Municipality</woe_name><fips>UP12</fips><woe_label>Kiev City Municipality, UA, Ukraine</woe_label><latitude>50</latitude><iso_a2>UA</iso_a2><postal>KC</postal><type>Rada</type><id>UA.6354</id></desc></path><path d="M390.663129973,480.716180371 L367.267904509,474.403183024 L364.297082228,467.718832891 L368.75331565,474.403183024 L390.663129973,480.716180371 M377.294429708,461.405835544 L378.779840849,459.177718833 L399.204244032,462.519893899 L411.087533156,452.122015915 L390.663129973,456.949602122 L383.236074271,447.294429708 L407.00265252,438.75331565 L413.687002653,441.724137931 L422.970822281,439.49602122 L417.400530504,438.381962865 L427.798408488,430.583554377 L421.856763926,425.384615385 L430.769230769,418.328912467 L426.312997347,407.188328912 L430.397877984,406.445623342 L428.912466844,399.018567639 L428.912466844,398.275862069 L428.912466844,397.533156499 L428.912466844,397.161803714 L431.883289125,397.904509284 L436.710875332,399.76127321 L438.938992042,402.360742706 L447.851458886,397.533156499 L450.822281167,402.732095491 L473.103448276,402.732095491 L474.217506631,405.702917772 L476.816976127,413.129973475 L477.188328912,414.986737401 L479.416445623,414.24403183 L480.530503979,414.986737401 L480.530503979,414.986737401 L480.901856764,414.986737401 L482.015915119,412.75862069 L484.986737401,412.015915119 L485.358090186,412.387267905 L485.358090186,412.387267905 L485.729442971,412.387267905 L485.358090186,412.75862069 L484.615384615,413.50132626 L484.24403183,413.872679045 L484.24403183,413.872679045 L484.24403183,414.615384615 L487.957559682,430.212201592 L494.641909814,435.039787798 L495.384615385,437.639257294 L496.127320955,438.01061008 L496.127320955,438.01061008 L496.870026525,438.01061008 L496.870026525,438.01061008 L497.24137931,438.381962865 L497.24137931,438.381962865 L497.24137931,438.75331565 L497.612732095,439.124668435 L497.612732095,439.867374005 L495.75596817,441.724137931 L494.641909814,445.809018568 L493.899204244,446.180371353 L493.527851459,446.551724138 L493.527851459,446.551724138 L493.527851459,446.923076923 L493.527851459,446.923076923 L491.299734748,447.665782493 L491.299734748,449.151193634 L492.785145889,449.151193634 L493.527851459,449.893899204 L493.899204244,449.893899204 L495.013262599,450.265251989 L495.384615385,450.265251989 L495.384615385,450.636604775 L495.75596817,451.00795756 L495.75596817,451.379310345 L495.75596817,452.4933687 L495.013262599,454.350132626 L496.870026525,457.320954907 L500.583554377,457.320954907 L500.583554377,459.920424403 L503.554376658,459.920424403 L505.782493369,461.405835544 L507.639257294,461.405835544 L507.639257294,461.777188329 L508.01061008,462.148541114 L509.124668435,466.604774536 L509.124668435,466.976127321 L509.124668435,466.976127321 L508.75331565,467.718832891 L508.75331565,468.090185676 L508.75331565,468.090185676 L508.75331565,468.832891247 L509.124668435,469.946949602 L509.124668435,469.946949602 L509.124668435,471.061007958 L509.49602122,471.432360743 L510.981432361,471.803713528 L508.01061008,474.403183024 L502.440318302,474.403183024 L499.469496021,478.859416446 L507.639257294,505.225464191 L505.782493369,505.596816976 L502.068965517,502.625994695 L499.840848806,501.883289125 L498.726790451,500.769230769 L498.355437666,495.198938992 L497.612732095,493.342175066 L496.49867374,492.228116711 L494.641909814,491.114058355 L492.413793103,490.74270557 L487.957559682,490.74270557 L485.358090186,492.228116711 L479.787798408,485.543766578 L475.702917772,484.058355438 L472.732095491,484.429708223 L470.50397878,484.429708223 L469.018567639,483.687002653 L467.161803714,482.944297082 L465.676392573,482.201591512 L461.591511936,479.602122016 L459.734748011,478.48806366 L457.877984085,478.116710875 L456.021220159,478.859416446 L454.535809019,478.48806366 L452.679045093,477.374005305 L452.307692308,477.74535809 L452.679045093,479.973474801 L452.307692308,481.458885942 L450.822281167,482.572944297 L447.851458886,482.201591512 L446.366047745,487.400530504 L434.111405836,482.572944297 L434.854111406,477.00265252 L430.397877984,482.201591512 L404.774535809,485.543766578 L396.604774536,483.315649867 L395.49071618,478.116710875 L379.893899204,471.061007958 L375.809018568,472.546419098 L386.949602122,466.976127321 L377.294429708,461.405835544 Z" fill="#cee3f5" id="UA.KS" stroke="#6e6e6e" stroke-width="0.4"><desc><labelrank>5</labelrank><code_hasc>UA.KS</code_hasc><name>Kherson</name><admin>Ukraine</admin><type_en /><region /><woe_id>2347541</woe_id><longitude>33</longitude><woe_name>Kherson Oblast</woe_name><fips>UP08</fips><woe_label>Kherson Oblast, UA, Ukraine</woe_label><latitude>46</latitude><iso_a2>UA</iso_a2><postal>KS</postal><type>Oblast'</type><id>UA.KS</id></desc></path><path d="M456.021220159,584.323607427 L440.795755968,573.925729443 L449.336870027,571.326259947 L448.965517241,557.586206897 L454.164456233,563.156498674 L451.564986737,568.726790451 L454.907161804,568.355437666 L461.220159151,582.095490716 L456.021220159,584.323607427 Z" fill="#cee3f5" id="UA.SC" stroke="#6e6e6e" stroke-width="0.4"><desc><labelrank>5</labelrank><code_hasc>UA.SC</code_hasc><name>Sevastopol</name><admin>Ukraine</admin><type_en /><region /><woe_id>20070189</woe_id><longitude>33</longitude><woe_name>Sevastopol City Municipality</woe_name><fips>UP08</fips><woe_label>Sevastopol City Municipality, UA, Ukraine</woe_label><latitude>44</latitude><iso_a2>UA</iso_a2><postal>SC</postal><type>Oblast'</type><id>UA.SC</id></desc></path></svg>