<?xml version='1.0' encoding='utf-8'?>
<svg height="700" width="700" xmlns="http://www.w3.org/2000/svg"><path d="M653.148486695,621.937842779 L646.89213894,619.662807231 L643.479585619,615.254925858 L633.384115377,611.415803372 L628.407475117,611.984562259 L623.288645135,615.112736137 L615.183830997,614.828356693 L613.619744059,609.282957546 L613.050985172,579.280926264 L610.349380459,577.716839326 L583.333333333,573.024578509 L560.156408694,569.327645744 L552.762543165,569.469835466 L545.795246801,565.346333536 L535.984156002,563.640056876 L536.268535446,555.819622182 L534.846638229,551.696120252 L516.219784684,528.945764778 L514.371318302,522.120658135 L515.793215519,513.873654276 L521.622994109,516.148689823 L539.96546821,515.86431038 L572.384724761,511.314239285 L685.567743246,506.337599025 L681.870810481,512.025187894 L681.159861873,519.98781231 L678.884826325,518.850294536 L678.884826325,521.409709527 L682.297379647,529.514523664 L687.842778793,530.79423116 L688.980296567,538.899045298 L684.145846029,548.425756652 L682.58175909,549.136705261 L681.444241316,545.297582775 L682.58175909,543.733495836 L680.733292708,543.449116392 L674.761324396,547.714808044 L672.344099127,554.82429413 L673.623806622,562.644728824 L672.62847857,568.332317692 L668.078407475,576.43713183 L662.959577493,575.441803778 L658.125126955,579.70749543 L658.836075564,595.774933983 L661.537680276,600.182815356 L662.533008328,606.012593947 L658.267316677,604.732886451 L653.290676417,608.714198659 L654.428194191,615.39711558 L653.148486695,621.937842779 Z" fill="#cee3f5" id="LR.RG" stroke="#6e6e6e" stroke-width="0.4"><desc><labelrank>7</labelrank><code_hasc>LR.RG</code_hasc><name>River Gee</name><admin>Liberia</admin><type_en>County</type_en><region /><woe_id>-2346100</woe_id><longitude>-7</longitude><woe_name /><fips>LI22</fips><woe_label /><latitude>5</latitude><iso_a2>LR</iso_a2><postal>RG</postal><type>County</type><id>LR.RG</id></desc></path><path d="M286.299004672,224.659760309 L275.066016657,232.480195003 L268.383099736,239.163111924 L263.548649198,238.309973593 L256.154783668,241.011578306 L241.935811497,252.386756043 L236.674791794,251.391427991 L237.385740402,249.542961609 L235.110704855,243.85537274 L236.674791794,239.305301645 L228.569977656,237.030266098 L222.455819622,237.456835263 L209.658744668,248.547633557 L204.682104408,256.225878529 L198.141377209,262.482226285 L189.467804184,262.340036563 L179.94109283,267.03229738 L177.381677839,279.971562056 L154.204753199,281.109079829 L145.673369896,284.379443429 L139.559211863,288.64513508 L134.156002438,289.924842576 L128.894982734,282.81535649 L129.179362178,268.596384319 L133.445053829,267.88543571 L131.454397725,264.472882389 L121.07454804,262.340036563 L110.979077798,263.193174893 L101.736745887,259.922811294 L99.4617103392,260.491570181 L98.7507617307,258.358724355 L104.153971156,255.941499086 L108.704042251,249.969530774 L128.894982734,238.167783872 L133.018484664,232.053625838 L138.848263254,227.361365021 L144.535852123,225.939467804 L164.584602884,214.137720902 L170.130002031,208.023562868 L168.281535649,194.515539305 L156.76416819,179.15904936 L146.242128783,178.163721308 L143.967093236,175.604306317 L140.554539915,176.173065204 L126.90432663,172.618322161 L123.207393866,173.044891326 L120.363599431,170.769855779 L112.258785294,169.063579118 L134.440381881,142.331911436 L140.838919358,136.928702011 L148.659354052,132.805200081 L153.635994312,131.809872029 L153.635994312,89.7217144018 L162.167377615,97.1155799309 L178.803575056,92.8498882795 L187.903717246,101.523461304 L218.047938249,110.765793216 L222.3136299,104.651635182 L237.670119846,126.264472882 L264.117408085,120.150314849 L305.921186269,137.497460898 L307.627462929,148.588259192 L283.028641073,205.321958156 L286.299004672,224.659760309 Z" fill="#cee3f5" id="LR.GP" stroke="#6e6e6e" stroke-width="0.4"><desc><labelrank>7</labelrank><code_hasc>LR.GP</code_hasc><name>Gbapolu</name><admin>Liberia</admin><type_en>County</type_en><region /><woe_id>-2346101</woe_id><longitude>-10</longitude><woe_name /><fips>LI21</fips><woe_label /><latitude>7</latitude><iso_a2>LR</iso_a2><postal>GP</postal><type>County</type><id>LR.GP</id></desc></path><path d="M583.333333333,573.024578509 L585.181799716,581.840341255 L576.650416413,596.201503148 L570.820637822,610.704854763 L571.247206988,614.54397725 L574.659760309,618.525289458 L597.410115783,627.056672761 L604.803981312,633.170830794 L619.449522649,658.338411538 L617.743245988,674.548039813 L613.619744059,682.084095064 L594.281941905,672.841763153 L581.342677229,669.997968718 L570.962827544,666.01665651 L550.629697339,663.599431241 L544.799918749,661.608775137 L537.690432663,653.788340443 L514.513508024,645.683526305 L486.359943124,627.341052204 L470.434694292,621.511273614 L476.264472882,615.681495023 L479.250457038,605.586024782 L486.928702011,603.453178956 L495.602275036,588.807637619 L512.238472476,577.148080439 L523.613650213,576.010562665 L531.576274629,566.057282145 L535.984156002,563.640056876 L545.795246801,565.346333536 L552.762543165,569.469835466 L560.156408694,569.327645744 L583.333333333,573.024578509 Z" fill="#cee3f5" id="LR.GK" stroke="#6e6e6e" stroke-width="0.4"><desc><labelrank>7</labelrank><code_hasc>LR.GK</code_hasc><name>Grand Kru</name><admin>Liberia</admin><type_en>County</type_en><region /><woe_id>2346110</woe_id><longitude>-8</longitude><woe_name>Grand Kru</woe_name><fips>LI16</fips><woe_label /><latitude>4</latitude><iso_a2>LR</iso_a2><postal>GK</postal><type>County</type><id>LR.GK</id></desc></path><path d="M653.148486695,621.937842779 L657.556368068,627.483241926 L658.836075564,637.578712167 L658.125126955,673.126142596 L660.257972781,687.060735324 L657.840747512,693.459272801 L664.239284989,699.14686167 L655.423522243,700.0 L646.89213894,697.724964453 L635.516961203,697.724964453 L632.104407881,694.312411131 L620.871419866,690.331098923 L615.468210441,682.652853951 L613.619744059,682.084095064 L617.743245988,674.548039813 L619.449522649,658.338411538 L604.803981312,633.170830794 L597.410115783,627.056672761 L574.659760309,618.525289458 L571.247206988,614.54397725 L570.820637822,610.704854763 L576.650416413,596.201503148 L585.181799716,581.840341255 L583.333333333,573.024578509 L610.349380459,577.716839326 L613.050985172,579.280926264 L613.619744059,609.282957546 L615.183830997,614.828356693 L623.288645135,615.112736137 L628.407475117,611.984562259 L633.384115377,611.415803372 L643.479585619,615.254925858 L646.89213894,619.662807231 L653.148486695,621.937842779 Z" fill="#cee3f5" id="LR.MY" stroke="#6e6e6e" stroke-width="0.4"><desc><labelrank>7</labelrank><code_hasc>LR.MY</code_hasc><name>Maryland</name><admin>Liberia</admin><type_en>County</type_en><region /><woe_id>2346107</woe_id><longitude>-7</longitude><woe_name>Maryland</woe_name><fips>LI13</fips><woe_label>Maryland, LR, Liberia</woe_label><latitude>4</latitude><iso_a2>LR</iso_a2><postal>MY</postal><type>County</type><id>LR.MY</id></desc></path><path d="M515.793215519,513.873654276 L514.371318302,522.120658135 L516.219784684,528.945764778 L534.846638229,551.696120252 L536.268535446,555.819622182 L535.984156002,563.640056876 L531.576274629,566.057282145 L523.613650213,576.010562665 L512.238472476,577.148080439 L495.602275036,588.807637619 L486.928702011,603.453178956 L479.250457038,605.586024782 L476.264472882,615.681495023 L470.434694292,621.511273614 L458.064188503,616.108064189 L441.996749949,603.595368678 L422.516758074,597.339020922 L415.691651432,593.357708714 L416.829169206,592.078001219 L409.435303677,590.087345115 L403.605525086,586.674791794 L394.078813731,578.569977656 L374.741011578,567.763558806 L372.465976031,564.77757465 L374.598821857,564.77757465 L372.465976031,561.791590494 L362.228316067,556.814950234 L351.564086939,546.861669714 L352.132845826,546.008531383 L349.857810278,544.017875279 L349.715620557,541.316270567 L356.398537477,537.47714808 L358.531383303,533.211456429 L362.370505789,532.073938655 L367.062766606,525.959780622 L368.484663823,521.69408897 L365.356489945,504.204753199 L361.659557181,495.10461101 L377.016047126,482.165346334 L388.249035141,475.624619135 L395.500710949,473.633963031 L400.477351209,459.841560024 L406.733698964,453.869591712 L411.141580337,452.87426366 L430.337192769,453.300832826 L434.745074142,450.457038391 L437.162299411,446.617915905 L490.056875889,474.913670526 L502.427381678,461.12126752 L510.816575259,461.547836685 L519.20576884,466.666666667 L527.168393256,478.184034126 L528.874669917,486.146658542 L526.599634369,488.990452976 L513.802559415,490.98110908 L507.54621166,502.214097095 L507.972780825,506.621978468 L515.08226691,509.607962624 L515.793215519,513.873654276 Z" fill="#cee3f5" id="LR.SI" stroke="#6e6e6e" stroke-width="0.4"><desc><labelrank>7</labelrank><code_hasc>LR.SI</code_hasc><name>Sinoe</name><admin>Liberia</admin><type_en>County</type_en><region /><woe_id>2346104</woe_id><longitude>-8</longitude><woe_name>Sinoe</woe_name><fips>LI10</fips><woe_label>Sinoe, LR, Liberia</woe_label><latitude>5</latitude><iso_a2>LR</iso_a2><postal>SI</postal><type>County</type><id>LR.SI</id></desc></path><path d="M177.381677839,279.971562056 L173.684745074,285.801340646 L171.125330083,286.796668698 L162.309567337,289.213893967 L161.74080845,295.043672557 L159.892342068,296.89213894 L161.029859842,302.295348365 L156.479788747,308.55169612 L155.342270973,322.770668292 L161.882998172,331.586431038 L154.062563478,336.847450741 L143.540524071,330.164533821 L140.270160471,329.453585212 L130.885638838,336.278691855 L122.496445257,338.980296567 L120.932358318,343.38817794 L123.207393866,351.919561243 L121.07454804,358.602478164 L118.088563884,352.772699573 L112.685354459,346.942920983 L76.2847856998,326.894170221 L75.4316473695,322.770668292 L77.5644931952,318.220597197 L84.1052203941,314.381474711 L87.0912045501,306.987609181 L92.4944139752,306.276660573 L93.4897420272,304.428194191 L95.4803981312,293.337395897 L92.6366036969,286.370099533 L99.3195206175,270.018281536 L99.4617103392,260.491570181 L101.736745887,259.922811294 L110.979077798,263.193174893 L121.07454804,262.340036563 L131.454397725,264.472882389 L133.445053829,267.88543571 L129.179362178,268.596384319 L128.894982734,282.81535649 L134.156002438,289.924842576 L139.559211863,288.64513508 L145.673369896,284.379443429 L154.204753199,281.109079829 L177.381677839,279.971562056 Z" fill="#cee3f5" id="LR.BM" stroke="#6e6e6e" stroke-width="0.4"><desc><labelrank>7</labelrank><code_hasc>LR.BM</code_hasc><name>Bomi</name><admin>Liberia</admin><type_en>County</type_en><region /><woe_id>2346109</woe_id><longitude>-10</longitude><woe_name>Bomi</woe_name><fips>LI15</fips><woe_label>Bomi, LR, Liberia</woe_label><latitude>6</latitude><iso_a2>LR</iso_a2><postal>BM</postal><type>County</type><id>LR.BM</id></desc></path><path d="M403.463335365,226.223847248 L397.491367053,245.846028844 L394.505382897,249.969530774 L393.083485679,259.922811294 L389.955311802,263.335364615 L394.647572618,268.454194597 L397.917936218,275.279301239 L400.61954093,276.132439569 L402.894576478,280.255941499 L402.610197034,292.910826732 L398.486695105,297.318708105 L399.624212878,300.873451148 L395.927280114,306.561040016 L395.500710949,310.826731668 L393.367865123,314.239284989 L394.505382897,317.083079423 L393.652244566,320.922201909 L390.524070689,322.059719683 L370.190940483,326.041031891 L366.351817997,323.765996344 L360.80641885,328.173877717 L357.962624416,332.866138533 L354.550071095,333.292707699 L348.862482226,338.127158237 L346.871826122,341.539711558 L338.482632541,342.53503961 L333.932561446,347.796059313 L326.112126752,346.942920983 L317.722933171,352.48832013 L314.452569571,353.199268739 L313.741620963,348.080438757 L323.837091205,335.567743246 L324.121470648,331.586431038 L312.746292911,319.358114971 L310.18687792,318.50497664 L299.38045907,319.500304692 L297.389802966,317.65183831 L301.655494617,307.840747512 L300.944546009,302.864107252 L296.252285192,297.603087548 L289.142799106,294.332723949 L286.583384115,295.185862279 L284.166158846,298.029656713 L284.023969125,306.418850295 L279.900467195,311.679869998 L278.194190534,319.358114971 L273.644119439,321.77534024 L266.961202519,315.092423319 L261.415803372,312.67519805 L252.884420069,310.968921389 L241.651432054,314.381474711 L221.176112127,307.556368068 L208.663416616,298.740605322 L195.866341662,299.167174487 L191.458460288,296.323380053 L178.519195612,295.612431444 L171.125330083,286.796668698 L173.684745074,285.801340646 L177.381677839,279.971562056 L179.94109283,267.03229738 L189.467804184,262.340036563 L198.141377209,262.482226285 L204.682104408,256.225878529 L209.658744668,248.547633557 L222.455819622,237.456835263 L228.569977656,237.030266098 L236.674791794,239.305301645 L235.110704855,243.85537274 L237.385740402,249.542961609 L236.674791794,251.391427991 L241.935811497,252.386756043 L256.154783668,241.011578306 L263.548649198,238.309973593 L268.383099736,239.163111924 L275.066016657,232.480195003 L286.299004672,224.659760309 L299.522648791,228.356693073 L307.911842373,224.80195003 L307.911842373,225.797278082 L312.319723746,222.24253504 L313.315051798,219.683120049 L312.461913467,217.834653666 L314.736949015,213.99553118 L330.520008125,208.307942312 L336.918545602,204.04225066 L340.89985781,199.776559009 L340.331098923,197.928092626 L348.435913061,189.96546821 L353.554743043,197.217144018 L358.957952468,190.392037376 L363.223644119,189.96546821 L368.200284379,191.529555149 L371.470647979,197.501523461 L382.277066829,196.648385131 L384.694292098,200.060938452 L386.827137924,210.440788137 L390.950639854,214.279910624 L395.64290067,214.279910624 L396.780418444,217.834653666 L401.188299817,220.536258379 L400.335161487,228.356693073 L403.463335365,226.223847248 Z" fill="#cee3f5" id="LR.BG" stroke="#6e6e6e" stroke-width="0.4"><desc><labelrank>7</labelrank><code_hasc>LR.BG</code_hasc><name>Bong</name><admin>Liberia</admin><type_en>County</type_en><region /><woe_id>2346099</woe_id><longitude>-9</longitude><woe_name>Bong</woe_name><fips>LI01</fips><woe_label>Bong, LR, Liberia</woe_label><latitude>6</latitude><iso_a2>LR</iso_a2><postal>BG</postal><type>County</type><id>LR.BG</id></desc></path><path d="M390.524070689,322.059719683 L399.908592322,324.761324396 L403.88990453,323.765996344 L406.022750355,325.330083283 L404.74304286,329.737964656 L399.055453991,334.288035751 L396.069469835,344.383505992 L399.908592322,346.089782653 L397.633556774,355.189924843 L397.206987609,366.991671745 L362.086126346,367.133861467 L345.307739183,373.674588665 L343.885841966,386.47166362 L345.592118627,397.704651635 L344.596790575,399.553118017 L338.482632541,405.382896608 L333.932561446,412.350192972 L329.666869795,409.790777981 L322.415193987,409.648588259 L319.855778997,412.20800325 L319.144830388,416.900264067 L312.746292911,420.597196831 L313.030672354,425.289457648 L310.044688198,438.655291489 L311.750964859,444.485070079 L305.068047938,457.566524477 L307.343083486,464.249441398 L305.778996547,470.790168596 L309.049360146,482.023156612 L299.096079626,495.388990453 L248.192159252,450.030469226 L245.632744262,440.503757871 L235.821653463,435.242738168 L224.019906561,425.858216535 L217.194799919,418.464351005 L208.379037172,412.918951859 L196.150721105,408.653260207 L194.444444444,406.520414381 L194.87101361,404.245378834 L197.714808044,405.240706886 L199.563274426,403.10786106 L194.017875279,400.548446069 L197.856997766,392.585821653 L197.999187487,383.485679464 L204.539914686,375.665244769 L203.260207191,369.977655901 L207.38370912,367.844810075 L211.222831607,363.579118424 L211.080641885,357.038391225 L216.626041032,350.782043469 L219.185456023,344.241316271 L214.635384928,337.55839935 L225.441803778,334.145846029 L227.29027016,334.856794637 L228.427787934,338.838106845 L237.527930124,345.094454601 L242.504570384,344.383505992 L247.1968312,340.260004063 L261.557993094,341.966280723 L271.937842779,333.861466585 L281.322364412,335.994312411 L297.389802966,317.65183831 L299.38045907,319.500304692 L310.18687792,318.50497664 L312.746292911,319.358114971 L324.121470648,331.586431038 L323.837091205,335.567743246 L313.741620963,348.080438757 L314.452569571,353.199268739 L317.722933171,352.48832013 L326.112126752,346.942920983 L333.932561446,347.796059313 L338.482632541,342.53503961 L346.871826122,341.539711558 L348.862482226,338.127158237 L354.550071095,333.292707699 L357.962624416,332.866138533 L360.80641885,328.173877717 L366.351817997,323.765996344 L370.190940483,326.041031891 L390.524070689,322.059719683 Z" fill="#cee3f5" id="LR.MG" stroke="#6e6e6e" stroke-width="0.4"><desc><labelrank>7</labelrank><code_hasc>LR.MG</code_hasc><name>Grand Bassa</name><admin>Liberia</admin><type_en>County</type_en><region /><woe_id>2346105</woe_id><longitude>-9</longitude><woe_name>Grand Bassa</woe_name><fips>LI11</fips><woe_label>Grand Bassa, LR, Liberia</woe_label><latitude>6</latitude><iso_a2>LR</iso_a2><postal>MG</postal><type>County</type><id>LR.MG</id></desc></path><path d="M99.4617103392,260.491570181 L99.3195206175,270.018281536 L92.6366036969,286.370099533 L95.4803981312,293.337395897 L93.4897420272,304.428194191 L92.4944139752,306.276660573 L87.0912045501,306.987609181 L84.1052203941,314.381474711 L77.5644931952,318.220597197 L75.4316473695,322.770668292 L76.2847856998,326.894170221 L30.4996953077,308.693885842 L26.9449522649,304.286004469 L28.0824700386,290.351411741 L25.8074344912,286.085720089 L15.9963436929,279.971562056 L10.1665651026,272.293317083 L16.8494820232,269.165143205 L17.1338614666,262.05565712 L21.6839325614,259.496242129 L23.390209222,256.794637416 L24.6699167174,246.699167174 L30.4996953077,244.992890514 L27.5137111517,235.892748324 L36.8982327849,223.522242535 L53.3922405038,216.839325614 L68.6065407272,198.070282348 L93.3475523055,178.732480195 L100.172658948,175.03554743 L108.704042251,172.618322161 L112.258785294,169.063579118 L120.363599431,170.769855779 L123.207393866,173.044891326 L126.90432663,172.618322161 L140.554539915,176.173065204 L143.967093236,175.604306317 L146.242128783,178.163721308 L156.76416819,179.15904936 L168.281535649,194.515539305 L170.130002031,208.023562868 L164.584602884,214.137720902 L144.535852123,225.939467804 L138.848263254,227.361365021 L133.018484664,232.053625838 L128.894982734,238.167783872 L108.704042251,249.969530774 L104.153971156,255.941499086 L98.7507617307,258.358724355 L99.4617103392,260.491570181 Z" fill="#cee3f5" id="LR.CM" stroke="#6e6e6e" stroke-width="0.4"><desc><labelrank>7</labelrank><code_hasc>LR.CM</code_hasc><name>Grand Cape Mount</name><admin>Liberia</admin><type_en>County</type_en><region /><woe_id>2346106</woe_id><longitude>-10</longitude><woe_name>Grand Cape Mount</woe_name><fips>LI12</fips><woe_label>Grand Cape Mount, LR, Liberia</woe_label><latitude>7</latitude><iso_a2>LR</iso_a2><postal>CM</postal><type>County</type><id>LR.CM</id></desc></path><path d="M340.331098923,197.928092626 L340.89985781,199.776559009 L336.918545602,204.04225066 L330.520008125,208.307942312 L314.736949015,213.99553118 L312.461913467,217.834653666 L313.315051798,219.683120049 L312.319723746,222.24253504 L307.911842373,225.797278082 L307.911842373,224.80195003 L299.522648791,228.356693073 L286.299004672,224.659760309 L283.028641073,205.321958156 L307.627462929,148.588259192 L305.921186269,137.497460898 L264.117408085,120.150314849 L237.670119846,126.264472882 L222.3136299,104.651635182 L218.047938249,110.765793216 L187.903717246,101.523461304 L178.803575056,92.8498882795 L162.167377615,97.1155799309 L153.635994312,89.7217144018 L161.74080845,83.0387974812 L168.139345927,72.9433272395 L175.248832013,70.5261019703 L192.027219175,69.9573430835 L198.567946374,67.1135486492 L202.549258582,63.2744261629 L200.985171643,48.4866951046 L203.828966078,42.0881576275 L208.947796059,21.7550274223 L209.089985781,13.2236441194 L216.057282145,11.6595571806 L217.33698964,14.5033516149 L225.726183222,7.39386552915 L228.569977656,6.54072719886 L240.798293723,9.10014218972 L244.353036766,12.939264676 L242.646760106,20.7596993703 L243.357708714,22.892545196 L245.632744262,23.6034938046 L249.045297583,23.0347349177 L264.970546415,12.7970749543 L276.772293317,10.8064188503 L279.189518586,12.939264676 L287.720901889,9.81109079829 L287.436522446,6.11415803372 L290.564696323,1.990656104 L290.422506602,0.0 L293.266301036,0.426569165143 L295.967905749,5.40320942515 L297.674182409,16.2096282754 L301.655494617,21.6128377006 L302.793012391,15.3564899452 L304.925858217,12.939264676 L308.054032094,13.0814543977 L313.599431241,16.7783871623 L314.452569571,20.3331302052 L309.33373959,25.878529352 L309.191549868,28.864513508 L318.718261223,28.7223237863 L321.846435101,25.7363396303 L325.401178143,29.5754621166 L333.648182003,33.1302051595 L338.624822263,36.9693276457 L331.941905342,41.6615884623 L336.918545602,49.9085923218 L334.21694089,53.8899045298 L333.363802559,63.1322364412 L341.468616697,66.5447897623 L345.02335974,82.4700385944 L342.606134471,89.1529555149 L346.445256957,85.3138330286 L348.151533618,85.5982124721 L350.85313833,89.5795246801 L347.298395287,102.234409913 L346.871826122,109.201706277 L348.435913061,116.169002641 L352.275035547,123.136299005 L362.228316067,136.786512289 L358.815762746,147.024172253 L359.10014219,152.5695714 L362.512695511,156.693073329 L359.242331911,160.10562665 L357.536055251,167.072923014 L353.412553321,172.333942718 L353.981312208,174.751167987 L352.559414991,178.30591103 L348.862482226,183.851310177 L343.885841966,187.974812106 L342.606134471,194.231159862 L340.331098923,197.928092626 Z" fill="#cee3f5" id="LR.LF" stroke="#6e6e6e" stroke-width="0.4"><desc><labelrank>7</labelrank><code_hasc>LR.LF</code_hasc><name>Lofa</name><admin>Liberia</admin><type_en>County</type_en><region /><woe_id>2346101</woe_id><longitude>-9</longitude><woe_name>Lofa</woe_name><fips>LI20</fips><woe_label>Lofa, LR, Liberia</woe_label><latitude>8</latitude><iso_a2>LR</iso_a2><postal>LF</postal><type>County</type><id>LR.LF</id></desc></path><path d="M195.866341662,299.167174487 L196.150721105,304.854763356 L186.766199472,323.339427179 L191.316270567,333.008328255 L191.316270567,350.639853748 L181.64736949,355.332114564 L175.533211456,364.432256754 L165.153361771,368.697948405 L153.778184034,375.949624213 L149.228112939,388.746699167 L124.060532196,376.802762543 L120.790168596,373.816778387 L122.069876092,370.972983953 L126.619947187,374.385537274 L123.918342474,369.835466179 L123.349583587,365.854153971 L128.894982734,358.31809872 L122.069876092,360.735323989 L121.07454804,358.602478164 L123.207393866,351.919561243 L120.932358318,343.38817794 L122.496445257,338.980296567 L130.885638838,336.278691855 L140.270160471,329.453585212 L143.540524071,330.164533821 L154.062563478,336.847450741 L161.882998172,331.586431038 L155.342270973,322.770668292 L156.479788747,308.55169612 L161.029859842,302.295348365 L159.892342068,296.89213894 L161.74080845,295.043672557 L162.309567337,289.213893967 L171.125330083,286.796668698 L178.519195612,295.612431444 L191.458460288,296.323380053 L195.866341662,299.167174487 Z" fill="#cee3f5" id="LR.MO" stroke="#6e6e6e" stroke-width="0.4"><desc><labelrank>7</labelrank><code_hasc>LR.MO</code_hasc><name>Montserrado</name><admin>Liberia</admin><type_en>County</type_en><region /><woe_id>2346108</woe_id><longitude>-10</longitude><woe_name>Montserrado</woe_name><fips>LI14</fips><woe_label>Montserrado, LR, Liberia</woe_label><latitude>6</latitude><iso_a2>LR</iso_a2><postal>MO</postal><type>County</type><id>LR.MO</id></desc></path><path d="M297.389802966,317.65183831 L281.322364412,335.994312411 L271.937842779,333.861466585 L261.557993094,341.966280723 L247.1968312,340.260004063 L242.504570384,344.383505992 L237.527930124,345.094454601 L228.427787934,338.838106845 L227.29027016,334.856794637 L225.441803778,334.145846029 L214.635384928,337.55839935 L219.185456023,344.241316271 L216.626041032,350.782043469 L211.080641885,357.038391225 L211.222831607,363.579118424 L207.38370912,367.844810075 L203.260207191,369.977655901 L204.539914686,375.665244769 L197.999187487,383.485679464 L197.856997766,392.585821653 L194.017875279,400.548446069 L181.078610603,391.732683323 L177.950436726,391.590493601 L177.950436726,392.870201097 L190.178752793,400.406256348 L191.458460288,404.245378834 L188.899045298,401.117204956 L179.087954499,396.140564696 L149.228112939,388.746699167 L153.778184034,375.949624213 L165.153361771,368.697948405 L175.533211456,364.432256754 L181.64736949,355.332114564 L191.316270567,350.639853748 L191.316270567,333.008328255 L186.766199472,323.339427179 L196.150721105,304.854763356 L195.866341662,299.167174487 L208.663416616,298.740605322 L221.176112127,307.556368068 L241.651432054,314.381474711 L252.884420069,310.968921389 L261.415803372,312.67519805 L266.961202519,315.092423319 L273.644119439,321.77534024 L278.194190534,319.358114971 L279.900467195,311.679869998 L284.023969125,306.418850295 L284.166158846,298.029656713 L286.583384115,295.185862279 L289.142799106,294.332723949 L296.252285192,297.603087548 L300.944546009,302.864107252 L301.655494617,307.840747512 L297.389802966,317.65183831 Z" fill="#cee3f5" id="LR.590" stroke="#6e6e6e" stroke-width="0.4"><desc><labelrank>7</labelrank><code_hasc>LR.MG</code_hasc><name>Margibi</name><admin>Liberia</admin><type_en>County</type_en><region /><woe_id>2346111</woe_id><longitude>-10</longitude><woe_name>Margibi</woe_name><fips>LI17</fips><woe_label>Margibi, LR, Liberia</woe_label><latitude>6</latitude><iso_a2>LR</iso_a2><postal>MG</postal><type>County</type><id>LR.590</id></desc></path><path d="M484.36928702,344.099126549 L477.6863701,363.436928702 L467.73308958,383.343489742 L461.334552102,391.732683323 L456.926670729,395.429616088 L449.959374365,398.415600244 L447.82652854,403.818809669 L445.40930327,405.809465773 L447.257769653,408.511070485 L447.684338818,412.634572415 L445.40930327,420.028437944 L442.84988828,421.876904327 L433.180987203,423.583180987 L431.048141377,426.426975421 L434.460694698,431.545805403 L431.332520821,435.384927889 L430.47938249,439.224050376 L431.332520821,441.072516758 L433.74974609,438.797481211 L436.309161081,441.072516758 L437.162299411,446.617915905 L434.745074142,450.457038391 L430.337192769,453.300832826 L411.141580337,452.87426366 L406.733698964,453.869591712 L409.150924233,445.480398131 L405.880560634,439.224050376 L408.439975625,435.811497055 L404.174283973,431.26142596 L405.169612025,427.99106236 L409.71968312,426.2847857 L405.738370912,422.445663213 L409.293113955,417.326833232 L405.59618119,412.350192972 L406.164940077,406.37822466 L401.046110095,402.112533008 L403.747714808,399.126548852 L404.174283973,395.998374975 L405.880560634,397.420272192 L407.871216738,392.728011375 L410.857200894,391.306114158 L409.861872842,381.779402803 L410.857200894,380.357505586 L402.041438147,376.376193378 L397.206987609,366.991671745 L397.633556774,355.189924843 L399.908592322,346.089782653 L396.069469835,344.383505992 L399.055453991,334.288035751 L404.74304286,329.737964656 L406.022750355,325.330083283 L403.88990453,323.765996344 L399.908592322,324.761324396 L390.524070689,322.059719683 L393.652244566,320.922201909 L394.505382897,317.083079423 L393.367865123,314.239284989 L395.500710949,310.826731668 L395.927280114,306.561040016 L399.624212878,300.873451148 L398.486695105,297.318708105 L402.610197034,292.910826732 L402.894576478,280.255941499 L400.61954093,276.132439569 L397.917936218,275.279301239 L394.647572618,268.454194597 L389.955311802,263.335364615 L393.083485679,259.922811294 L394.505382897,249.969530774 L397.491367053,245.846028844 L403.463335365,226.223847248 L409.008734511,224.944139752 L415.691651432,220.109689214 L424.223034735,218.403412553 L424.791793622,215.843997562 L427.351208613,216.270566728 L428.204346943,212.431444241 L433.465366646,218.687791997 L444.698354662,214.706479789 L445.693682714,211.293926468 L443.418647166,202.335974 L448.67966687,194.657729027 L454.367255738,191.529555149 L455.789152956,185.131017672 L461.476741824,181.576274629 L465.884623197,175.462116596 L466.311192362,168.35263051 L464.320536258,166.077594962 L466.169002641,156.693073329 L472.994109283,144.749136705 L492.758480601,145.744464757 L491.763152549,151.858622791 L492.900670323,156.408693886 L501.289863904,164.086938858 L513.233800528,170.769855779 L519.632338005,188.25919155 L522.618322161,207.596993703 L532.287223238,226.081657526 L532.145033516,230.347349177 L536.695104611,237.030266098 L539.396709324,260.918139346 L533.851310177,266.605728215 L533.709120455,274.852732074 L531.576274629,279.402803169 L534.562258785,282.530977047 L534.420069064,287.081048141 L528.590290473,300.446881983 L510.532195816,320.780012188 L492.900670323,334.572415194 L492.047531993,337.842778793 L488.49278895,338.980296567 L484.36928702,344.099126549 Z" fill="#cee3f5" id="LR.NI" stroke="#6e6e6e" stroke-width="0.4"><desc><labelrank>7</labelrank><code_hasc>LR.NI</code_hasc><name>Nimba</name><admin>Liberia</admin><type_en>County</type_en><region /><woe_id>2346103</woe_id><longitude>-8</longitude><woe_name>Nimba</woe_name><fips>LI09</fips><woe_label>Nimba, LR, Liberia</woe_label><latitude>6</latitude><iso_a2>LR</iso_a2><postal>NI</postal><type>County</type><id>LR.NI</id></desc></path><path d="M406.733698964,453.869591712 L400.477351209,459.841560024 L395.500710949,473.633963031 L388.249035141,475.624619135 L377.016047126,482.165346334 L361.659557181,495.10461101 L365.356489945,504.204753199 L368.484663823,521.69408897 L367.062766606,525.959780622 L362.370505789,532.073938655 L358.531383303,533.211456429 L356.398537477,537.47714808 L349.715620557,541.316270567 L349.857810278,544.017875279 L352.132845826,546.008531383 L351.564086939,546.861669714 L342.748324193,538.756855576 L339.762340037,530.225472273 L336.634166159,525.533211456 L330.94657729,522.262847857 L322.273004266,520.414381475 L324.548039813,514.726792606 L321.846435101,510.88767012 L305.21023766,501.218769043 L299.096079626,495.388990453 L309.049360146,482.023156612 L305.778996547,470.790168596 L307.343083486,464.249441398 L305.068047938,457.566524477 L311.750964859,444.485070079 L310.044688198,438.655291489 L313.030672354,425.289457648 L312.746292911,420.597196831 L319.144830388,416.900264067 L319.855778997,412.20800325 L322.415193987,409.648588259 L329.666869795,409.790777981 L333.932561446,412.350192972 L338.482632541,405.382896608 L344.596790575,399.553118017 L345.592118627,397.704651635 L343.885841966,386.47166362 L345.307739183,373.674588665 L362.086126346,367.133861467 L397.206987609,366.991671745 L402.041438147,376.376193378 L410.857200894,380.357505586 L409.861872842,381.779402803 L410.857200894,391.306114158 L407.871216738,392.728011375 L405.880560634,397.420272192 L404.174283973,395.998374975 L403.747714808,399.126548852 L401.046110095,402.112533008 L406.164940077,406.37822466 L405.59618119,412.350192972 L409.293113955,417.326833232 L405.738370912,422.445663213 L409.71968312,426.2847857 L405.169612025,427.99106236 L404.174283973,431.26142596 L408.439975625,435.811497055 L405.880560634,439.224050376 L409.150924233,445.480398131 L406.733698964,453.869591712 Z" fill="#cee3f5" id="LR.RI" stroke="#6e6e6e" stroke-width="0.4"><desc><labelrank>7</labelrank><code_hasc>LR.RI</code_hasc><name>River Cess</name><admin>Liberia</admin><type_en>County</type_en><region /><woe_id>2346112</woe_id><longitude>-9</longitude><woe_name>River Cess</woe_name><fips>LI18</fips><woe_label /><latitude>5</latitude><iso_a2>LR</iso_a2><postal>RI</postal><type>County</type><id>LR.RI</id></desc></path><path d="M484.36928702,344.099126549 L494.749136705,345.094454601 L501.432053626,353.34145846 L504.560227504,354.336786512 L506.693073329,352.630509852 L509.536867764,345.094454601 L517.641681901,351.066422913 L519.916717449,353.483648182 L517.49949218,358.175908999 L519.774527727,364.147877311 L516.788543571,367.41824091 L518.779199675,369.408897014 L522.618322161,366.991671745 L526.315254926,367.844810075 L528.590290473,365.996343693 L533.566930733,369.977655901 L536.837294333,369.408897014 L538.117001828,373.816778387 L552.478163721,377.37152143 L558.876701198,380.357505586 L563.853341458,379.788746699 L569.398740605,376.944952265 L581.627056673,375.665244769 L587.314645541,378.22465976 L601.391427991,380.641885029 L602.671135486,383.912248629 L612.624416007,393.012390819 L610.207190737,405.098517164 L610.207190737,412.20800325 L612.05565712,414.483038797 L615.752589884,412.350192972 L618.880763762,413.914279911 L620.018281536,419.175299614 L622.719886248,421.592524883 L620.444850701,424.009750152 L620.444850701,428.702010969 L622.719886248,432.683323177 L629.260613447,436.095876498 L634.237253707,442.210034532 L636.654478976,440.930327036 L640.351411741,435.527117611 L645.754621166,440.36156815 L656.418850295,444.911639244 L657.271988625,446.049157018 L655.992281129,447.755433679 L660.542352224,452.163315052 L665.803371928,449.035141174 L665.234613041,451.878935608 L667.794028032,452.305504774 L671.348771075,457.85090392 L674.050375787,448.892951452 L679.311395491,451.167987 L678.884826325,470.079219988 L682.013000203,483.018484664 L689.833434897,497.095267114 L686.278691855,496.526508227 L685.141174081,498.517164331 L688.269347959,504.631322364 L683.861466585,504.773512086 L685.567743246,506.337599025 L572.384724761,511.314239285 L539.96546821,515.86431038 L521.622994109,516.148689823 L515.793215519,513.873654276 L515.08226691,509.607962624 L507.972780825,506.621978468 L507.54621166,502.214097095 L513.802559415,490.98110908 L526.599634369,488.990452976 L528.874669917,486.146658542 L527.168393256,478.184034126 L519.20576884,466.666666667 L510.816575259,461.547836685 L502.427381678,461.12126752 L490.056875889,474.913670526 L437.162299411,446.617915905 L436.309161081,441.072516758 L433.74974609,438.797481211 L431.332520821,441.072516758 L430.47938249,439.224050376 L431.332520821,435.384927889 L434.460694698,431.545805403 L431.048141377,426.426975421 L433.180987203,423.583180987 L442.84988828,421.876904327 L445.40930327,420.028437944 L447.684338818,412.634572415 L447.257769653,408.511070485 L445.40930327,405.809465773 L447.82652854,403.818809669 L449.959374365,398.415600244 L456.926670729,395.429616088 L461.334552102,391.732683323 L467.73308958,383.343489742 L477.6863701,363.436928702 L484.36928702,344.099126549 Z" fill="#cee3f5" id="LR.GD" stroke="#6e6e6e" stroke-width="0.4"><desc><labelrank>7</labelrank><code_hasc>LR.GD</code_hasc><name>Grand Gedeh</name><admin>Liberia</admin><type_en>County</type_en><region /><woe_id>2346100</woe_id><longitude>-8</longitude><woe_name>Grand Gedeh</woe_name><fips>LI19</fips><woe_label /><latitude>5</latitude><iso_a2>LR</iso_a2><postal>GD</postal><type>County</type><id>LR.GD</id></desc></path></svg>