<?xml version='1.0' encoding='utf-8'?>
<svg height="700" width="700" xmlns="http://www.w3.org/2000/svg"><path d="M308.823529412,380.882352941 L315.68627451,374.019607843 L322.549019608,374.019607843 L322.549019608,387.745098039 L315.68627451,387.745098039 L308.823529412,380.882352941 Z" fill="#cee3f5" id="CN.shanghai.371637" stroke="#6e6e6e" stroke-width="0.4"><desc><name>Jing'an District</name><admin_leve>6</admin_leve><wikipedia>en:Jing'an District</wikipedia><localname>静安区 (Jing'an)</localname><boundary>administrative</boundary><id>CN.shanghai.371637</id></desc></path><path d="M322.549019608,374.019607843 L336.274509804,374.019607843 L343.137254902,374.019607843 L329.411764706,401.470588235 L322.549019608,387.745098039 L322.549019608,374.019607843 Z" fill="#cee3f5" id="CN.shanghai.371650" stroke="#6e6e6e" stroke-width="0.4"><desc><name>Huangpu District</name><admin_leve>6</admin_leve><wikipedia>en:Huangpu District, Shanghai</wikipedia><localname>黄浦区 (Huangpu)</localname><boundary>administrative</boundary><id>CN.shanghai.371650</id></desc></path><path d="M329.411764706,401.470588235 L343.137254902,374.019607843 L356.862745098,367.156862745 L384.31372549,353.431372549 L384.31372549,325.980392157 L363.725490196,312.254901961 L363.725490196,284.803921569 L439.215686275,312.254901961 L473.529411765,332.843137255 L500.980392157,367.156862745 L583.333333333,463.235294118 L617.647058824,511.274509804 L631.37254902,573.039215686 L597.058823529,600.490196078 L542.156862745,607.352941176 L494.117647059,593.62745098 L500.980392157,545.588235294 L452.941176471,518.137254902 L384.31372549,511.274509804 L377.450980392,442.647058824 L329.411764706,449.509803922 L329.411764706,401.470588235 Z" fill="#cee3f5" id="CN.shanghai.398348" stroke="#6e6e6e" stroke-width="0.4"><desc><name>Pudong New District</name><admin_leve>6</admin_leve><wikipedia>zh:浦东新区</wikipedia><localname>浦东新区 (Pudong)</localname><boundary>administrative</boundary><id>CN.shanghai.398348</id></desc></path><path d="M336.274509804,332.843137255 L363.725490196,312.254901961 L384.31372549,325.980392157 L384.31372549,353.431372549 L356.862745098,367.156862745 L336.274509804,332.843137255 Z" fill="#cee3f5" id="CN.shanghai.398350" stroke="#6e6e6e" stroke-width="0.4"><desc><name>Yangpu District</name><admin_leve>6</admin_leve><wikipedia>en:Yangpu District</wikipedia><localname>杨浦区 (Yangpu)</localname><boundary>administrative</boundary><id>CN.shanghai.398350</id></desc></path><path d="M329.411764706,332.843137255 L336.274509804,332.843137255 L356.862745098,367.156862745 L343.137254902,374.019607843 L336.274509804,374.019607843 L329.411764706,332.843137255 Z" fill="#cee3f5" id="CN.shanghai.398351" stroke="#6e6e6e" stroke-width="0.4"><desc><name>Hongkou District</name><admin_leve>6</admin_leve><wikipedia>en:Hongkou District</wikipedia><localname>虹口区 (Hongkou)</localname><boundary>administrative</boundary><id>CN.shanghai.398351</id></desc></path><path d="M329.411764706,332.843137255 L336.274509804,374.019607843 L322.549019608,374.019607843 L315.68627451,374.019607843 L301.960784314,360.294117647 L329.411764706,332.843137255 Z" fill="#cee3f5" id="CN.shanghai.398353" stroke="#6e6e6e" stroke-width="0.4"><desc><name>Zhabei District</name><admin_leve>6</admin_leve><wikipedia>en:Zhabei District</wikipedia><localname>闸北区 (Zhabei)</localname><boundary>administrative</boundary><id>CN.shanghai.398353</id></desc></path><path d="M363.725490196,284.803921569 L363.725490196,312.254901961 L336.274509804,332.843137255 L329.411764706,332.843137255 L301.960784314,360.294117647 L253.921568627,346.568627451 L253.921568627,271.078431373 L233.333333333,229.901960784 L260.784313725,216.176470588 L315.68627451,243.62745098 L363.725490196,284.803921569 Z" fill="#cee3f5" id="CN.shanghai.398374" stroke="#6e6e6e" stroke-width="0.4"><desc><name>Baoshan District</name><admin_leve>6</admin_leve><wikipedia>en:Baoshan District, Shanghai</wikipedia><localname>宝山区 (Baoshan)</localname><boundary>administrative</boundary><id>CN.shanghai.398374</id></desc></path><path d="M253.921568627,346.568627451 L301.960784314,360.294117647 L315.68627451,374.019607843 L308.823529412,380.882352941 L267.647058824,374.019607843 L253.921568627,346.568627451 Z" fill="#cee3f5" id="CN.shanghai.398886" stroke="#6e6e6e" stroke-width="0.4"><desc><name>Putuo District</name><admin_leve>6</admin_leve><wikipedia>en:Putuo District, Shanghai</wikipedia><localname>普陀区 (Putuo)</localname><boundary>administrative</boundary><id>CN.shanghai.398886</id></desc></path><path d="M253.921568627,374.019607843 L267.647058824,374.019607843 L308.823529412,380.882352941 L315.68627451,387.745098039 L295.098039216,401.470588235 L253.921568627,408.333333333 L253.921568627,374.019607843 Z" fill="#cee3f5" id="CN.shanghai.398899" stroke="#6e6e6e" stroke-width="0.4"><desc><name>Changning District</name><admin_leve>6</admin_leve><wikipedia>en:Changning District</wikipedia><localname>长宁区 (Changning)</localname><boundary>administrative</boundary><id>CN.shanghai.398899</id></desc></path><path d="M295.098039216,401.470588235 L315.68627451,387.745098039 L322.549019608,387.745098039 L329.411764706,401.470588235 L329.411764706,449.509803922 L301.960784314,435.784313725 L295.098039216,401.470588235 Z" fill="#cee3f5" id="CN.shanghai.1278188" stroke="#6e6e6e" stroke-width="0.4"><desc><name>Xuhui District</name><admin_leve>6</admin_leve><wikipedia>en:Xuhui District</wikipedia><localname>徐汇区 (Xuhui)</localname><boundary>administrative</boundary><id>CN.shanghai.1278188</id></desc></path><path d="M205.882352941,360.294117647 L253.921568627,374.019607843 L253.921568627,408.333333333 L295.098039216,401.470588235 L301.960784314,435.784313725 L329.411764706,449.509803922 L377.450980392,442.647058824 L384.31372549,511.274509804 L336.274509804,504.411764706 L267.647058824,518.137254902 L247.058823529,518.137254902 L253.921568627,476.960784314 L274.509803922,463.235294118 L247.058823529,422.058823529 L219.607843137,401.470588235 L205.882352941,360.294117647 Z" fill="#cee3f5" id="CN.shanghai.1278189" stroke="#6e6e6e" stroke-width="0.4"><desc><name>Minhang District</name><admin_leve>6</admin_leve><wikipedia>en:Minhang District</wikipedia><localname>闵行区 (Minhang)</localname><boundary>administrative</boundary><id>CN.shanghai.1278189</id></desc></path><path d="M233.333333333,229.901960784 L253.921568627,271.078431373 L253.921568627,346.568627451 L267.647058824,374.019607843 L253.921568627,374.019607843 L205.882352941,360.294117647 L171.568627451,367.156862745 L150.980392157,353.431372549 L130.392156863,298.529411765 L150.980392157,291.666666667 L150.980392157,257.352941176 L192.156862745,236.764705882 L233.333333333,229.901960784 Z" fill="#cee3f5" id="CN.shanghai.1673543" stroke="#6e6e6e" stroke-width="0.4"><desc><name>Jiading District</name><admin_leve>6</admin_leve><wikipedia>en:Jiading District</wikipedia><localname>嘉定区 (Jiading)</localname><boundary>administrative</boundary><id>CN.shanghai.1673543</id></desc></path><path d="M356.862745098,236.764705882 L404.901960784,236.764705882 L473.529411765,271.078431373 L507.843137255,305.392156863 L473.529411765,305.392156863 L384.31372549,257.352941176 L356.862745098,236.764705882 M514.705882353,298.529411765 L576.470588235,312.254901961 L569.607843137,339.705882353 L521.568627451,332.843137255 L514.705882353,298.529411765 M123.529411765,78.9215686275 L185.294117647,30.8823529412 L226.470588235,17.1568627451 L267.647058824,30.8823529412 L308.823529412,78.9215686275 L473.529411765,133.823529412 L480.392156863,147.549019608 L528.431372549,154.411764706 L631.37254902,147.549019608 L700.0,291.666666667 L624.509803922,291.666666667 L535.294117647,277.941176471 L459.803921569,257.352941176 L425.490196078,236.764705882 L308.823529412,209.31372549 L281.37254902,209.31372549 L164.705882353,99.5098039216 L123.529411765,78.9215686275 Z" fill="#cee3f5" id="CN.shanghai.3292750" stroke="#6e6e6e" stroke-width="0.4"><desc><name>Chongming County</name><admin_leve>6</admin_leve><wikipedia>en:Chongming County</wikipedia><localname>崇明县 (Chongming)</localname><boundary>administrative</boundary><id>CN.shanghai.3292750</id></desc></path><path d="M267.647058824,518.137254902 L336.274509804,504.411764706 L384.31372549,511.274509804 L452.941176471,518.137254902 L500.980392157,545.588235294 L494.117647059,593.62745098 L439.215686275,600.490196078 L356.862745098,621.078431373 L322.549019608,634.803921569 L308.823529412,614.215686275 L281.37254902,600.490196078 L260.784313725,559.31372549 L267.647058824,518.137254902 Z" fill="#cee3f5" id="CN.shanghai.3292751" stroke="#6e6e6e" stroke-width="0.4"><desc><name>Fengxian District</name><admin_leve>6</admin_leve><wikipedia>en:Fengxian District</wikipedia><localname>奉贤区 (Fengxian)</localname><boundary>administrative</boundary><id>CN.shanghai.3292751</id></desc></path><path d="M61.7647058824,538.725490196 L82.3529411765,538.725490196 L82.3529411765,559.31372549 L137.254901961,566.176470588 L199.019607843,552.450980392 L226.470588235,566.176470588 L260.784313725,559.31372549 L281.37254902,600.490196078 L308.823529412,614.215686275 L322.549019608,634.803921569 L281.37254902,655.392156863 L260.784313725,675.980392157 L219.607843137,682.843137255 L219.607843137,662.254901961 L185.294117647,627.941176471 L137.254901961,634.803921569 L137.254901961,593.62745098 L75.4901960784,600.490196078 L61.7647058824,573.039215686 L61.7647058824,538.725490196 Z" fill="#cee3f5" id="CN.shanghai.3292756" stroke="#6e6e6e" stroke-width="0.4"><desc><name>Jinshan District</name><admin_leve>6</admin_leve><wikipedia>en:Jinshan District</wikipedia><localname>金山区 (Jinshan)</localname><boundary>administrative</boundary><id>CN.shanghai.3292756</id></desc></path><path d="M150.980392157,353.431372549 L171.568627451,367.156862745 L205.882352941,360.294117647 L219.607843137,401.470588235 L247.058823529,422.058823529 L226.470588235,435.784313725 L164.705882353,428.921568627 L150.980392157,456.37254902 L130.392156863,449.509803922 L116.666666667,483.823529412 L123.529411765,531.862745098 L82.3529411765,538.725490196 L61.7647058824,538.725490196 L54.9019607843,497.549019608 L6.86274509804,497.549019608 L13.7254901961,463.235294118 L0.0,435.784313725 L54.9019607843,435.784313725 L109.803921569,422.058823529 L102.941176471,360.294117647 L150.980392157,353.431372549 Z" fill="#cee3f5" id="CN.shanghai.3292760" stroke="#6e6e6e" stroke-width="0.4"><desc><name>Qingpu District</name><admin_leve>6</admin_leve><wikipedia>en:Qingpu District, Shanghai</wikipedia><localname>青浦区 (Qingpu)</localname><boundary>administrative</boundary><id>CN.shanghai.3292760</id></desc></path><path d="M82.3529411765,538.725490196 L123.529411765,531.862745098 L116.666666667,483.823529412 L130.392156863,449.509803922 L150.980392157,456.37254902 L164.705882353,428.921568627 L226.470588235,435.784313725 L247.058823529,422.058823529 L274.509803922,463.235294118 L253.921568627,476.960784314 L247.058823529,518.137254902 L267.647058824,518.137254902 L260.784313725,559.31372549 L226.470588235,566.176470588 L199.019607843,552.450980392 L137.254901961,566.176470588 L82.3529411765,559.31372549 L82.3529411765,538.725490196 Z" fill="#cee3f5" id="CN.shanghai.3293722" stroke="#6e6e6e" stroke-width="0.4"><desc><name>Songjiang District</name><admin_leve>6</admin_leve><wikipedia>en:Songjiang District</wikipedia><localname>松江区 (Songjiang)</localname><boundary>administrative</boundary><id>CN.shanghai.3293722</id></desc></path></svg>