<?xml version='1.0' encoding='utf-8'?>
<svg height="700" width="700" xmlns="http://www.w3.org/2000/svg"><path d="M55.2072800809,367.340748231 L61.5773508595,360.970677452 L63.7007077856,356.7239636 L75.0252780586,352.477249747 L80.6875631951,347.522750253 L75.0252780586,339.73710819 L73.6097067745,333.367037412 L65.8240647118,330.535894843 L65.8240647118,323.458038423 L72.1941354904,323.458038423 L77.1486349848,327.704752275 L82.1031344793,327.704752275 L85.6420626896,323.458038423 L104.752275025,321.334681496 L115.369059656,321.334681496 L115.369059656,341.152679474 L114.661274014,370.879676441 L103.336703741,373.003033367 L94.8432760364,376.541961577 L91.3043478261,375.126390293 L79.271991911,379.373104146 L71.4863498483,376.541961577 L67.947421638,370.879676441 L62.2851365015,370.171890799 L55.2072800809,367.340748231 Z" fill="#cee3f5" id="US.NY.029" stroke="#6e6e6e" stroke-width="0.4"><desc><name>Erie County</name><stateAbbrev>NY</stateAbbrev><state>New York</state><fips>029</fips><incits>36029</incits><id>US.NY.029</id><population>919866</population></desc></path><path d="M115.369059656,296.562184024 L114.661274014,317.795753286 L115.369059656,321.334681496 L104.752275025,321.334681496 L85.6420626896,323.458038423 L82.1031344793,327.704752275 L77.1486349848,327.704752275 L72.1941354904,323.458038423 L65.8240647118,323.458038423 L60.8695652174,322.750252781 L63.7007077856,316.380182002 L62.2851365015,307.178968655 L82.1031344793,301.516683519 L99.7977755308,297.977755308 L115.369059656,296.562184024 Z" fill="#cee3f5" id="US.NY.063" stroke="#6e6e6e" stroke-width="0.4"><desc><name>Niagara County</name><stateAbbrev>NY</stateAbbrev><state>New York</state><fips>063</fips><incits>36063</incits><id>US.NY.063</id><population>214249</population></desc></path><path d="M115.369059656,296.562184024 L135.187057634,296.562184024 L147.219413549,295.854398382 L156.420626896,297.269969666 L156.420626896,317.795753286 L114.661274014,317.795753286 L115.369059656,296.562184024 Z" fill="#cee3f5" id="US.NY.073" stroke="#6e6e6e" stroke-width="0.4"><desc><name>Orleans County</name><stateAbbrev>NY</stateAbbrev><state>New York</state><fips>073</fips><incits>36073</incits><id>US.NY.073</id><population>42235</population></desc></path><path d="M114.661274014,317.795753286 L156.420626896,317.795753286 L164.914054601,317.795753286 L160.667340748,326.289180991 L164.206268959,330.535894843 L159.959555106,337.613751264 L160.667340748,341.860465116 L150.050556117,341.152679474 L115.369059656,341.152679474 L115.369059656,321.334681496 L114.661274014,317.795753286 Z" fill="#cee3f5" id="US.NY.037" stroke="#6e6e6e" stroke-width="0.4"><desc><name>Genesee County</name><stateAbbrev>NY</stateAbbrev><state>New York</state><fips>037</fips><incits>36037</incits><id>US.NY.037</id><population>59454</population></desc></path><path d="M62.2851365015,418.301314459 L62.2851365015,370.171890799 L67.947421638,370.879676441 L71.4863498483,376.541961577 L79.271991911,379.373104146 L91.3043478261,375.126390293 L94.8432760364,376.541961577 L103.336703741,373.003033367 L114.661274014,370.879676441 L115.369059656,372.295247725 L128.816986855,372.295247725 L128.816986855,418.301314459 L79.9797775531,418.301314459 L62.2851365015,418.301314459 Z" fill="#cee3f5" id="US.NY.009" stroke="#6e6e6e" stroke-width="0.4"><desc><name>Cattaraugus County</name><stateAbbrev>NY</stateAbbrev><state>New York</state><fips>009</fips><incits>36009</incits><id>US.NY.009</id><population>78892</population></desc></path><path d="M508.190091001,152.173913043 L569.76744186,150.758341759 L569.76744186,158.543983822 L566.22851365,165.621840243 L570.475227503,169.160768453 L567.644084934,174.823053589 L565.520728008,186.147623862 L569.76744186,191.809908999 L559.15065723,193.225480283 L555.611729019,197.472194135 L537.917087968,201.011122346 L518.806875632,202.42669363 L516.683518706,189.686552073 L513.852376138,177.654196158 L511.729019211,177.654196158 L510.313447927,162.082912032 L508.190091001,152.173913043 Z" fill="#cee3f5" id="US.NY.019" stroke="#6e6e6e" stroke-width="0.4"><desc><name>Clinton County</name><stateAbbrev>NY</stateAbbrev><state>New York</state><fips>019</fips><incits>36019</incits><id>US.NY.019</id><population>81591</population></desc></path><path d="M486.248736097,230.03033367 L502.527805865,228.614762386 L498.281092012,204.550050556 L518.806875632,202.42669363 L537.917087968,201.011122346 L555.611729019,197.472194135 L559.15065723,193.225480283 L569.76744186,191.809908999 L573.306370071,198.179979778 L574.014155713,202.42669363 L570.475227503,207.381193124 L572.598584429,216.582406471 L565.520728008,223.660262892 L561.274014156,236.400404449 L563.397371082,238.523761375 L563.397371082,247.01718908 L566.936299292,251.971688574 L566.22851365,257.633973711 L561.274014156,258.341759353 L506.066734075,263.296258847 L506.774519717,259.049544995 L497.57330637,256.218402427 L492.618806876,257.633973711 L481.294236603,247.724974722 L488.372093023,243.47826087 L486.248736097,230.03033367 Z" fill="#cee3f5" id="US.NY.031" stroke="#6e6e6e" stroke-width="0.4"><desc><name>Essex County</name><stateAbbrev>NY</stateAbbrev><state>New York</state><fips>031</fips><incits>36031</incits><id>US.NY.031</id><population>38762</population></desc></path><path d="M446.612740142,152.881698686 L450.859453994,152.173913043 L481.294236603,152.881698686 L508.190091001,152.173913043 L510.313447927,162.082912032 L511.729019211,177.654196158 L513.852376138,177.654196158 L516.683518706,189.686552073 L518.806875632,202.42669363 L498.281092012,204.550050556 L502.527805865,228.614762386 L486.248736097,230.03033367 L463.599595551,232.153690597 L464.307381193,225.783619818 L459.352881699,190.394337715 L454.398382204,156.420626896 L447.320525784,156.420626896 L446.612740142,152.881698686 Z" fill="#cee3f5" id="US.NY.033" stroke="#6e6e6e" stroke-width="0.4"><desc><name>Franklin County</name><stateAbbrev>NY</stateAbbrev><state>New York</state><fips>033</fips><incits>36033</incits><id>US.NY.033</id><population>51688</population></desc></path><path d="M346.107178969,205.257836198 L349.646107179,202.42669363 L354.600606673,195.348837209 L377.957532861,178.3619818 L403.437815976,162.790697674 L409.807886754,161.37512639 L424.671385238,153.589484328 L430.333670374,153.589484328 L438.119312437,150.758341759 L446.612740142,152.881698686 L447.320525784,156.420626896 L454.398382204,156.420626896 L459.352881699,190.394337715 L464.307381193,225.783619818 L463.599595551,232.153690597 L435.288169869,234.277047523 L416.885743175,236.400404449 L407.684529828,232.153690597 L382.912032356,221.536905966 L346.107178969,205.257836198 Z" fill="#cee3f5" id="US.NY.089" stroke="#6e6e6e" stroke-width="0.4"><desc><name>St. Lawrence County</name><stateAbbrev>NY</stateAbbrev><state>New York</state><fips>089</fips><incits>36089</incits><id>US.NY.089</id><population>111963</population></desc></path><path d="M435.288169869,234.277047523 L463.599595551,232.153690597 L486.248736097,230.03033367 L488.372093023,243.47826087 L481.294236603,247.724974722 L492.618806876,257.633973711 L497.57330637,256.218402427 L506.774519717,259.049544995 L506.066734075,263.296258847 L491.911021234,264.711830131 L496.865520728,296.562184024 L498.988877654,307.178968655 L491.911021234,310.010111223 L482.709807887,310.717896866 L482.002022245,307.886754297 L463.599595551,309.302325581 L448.028311426,304.347826087 L434.580384226,299.393326593 L442.366026289,285.945399393 L435.288169869,234.277047523 Z" fill="#cee3f5" id="US.NY.041" stroke="#6e6e6e" stroke-width="0.4"><desc><name>Hamilton County</name><stateAbbrev>NY</stateAbbrev><state>New York</state><fips>041</fips><incits>36041</incits><id>US.NY.041</id><population>4773</population></desc></path><path d="M506.066734075,263.296258847 L561.274014156,258.341759353 L555.611729019,272.497472194 L543.579373104,284.529828109 L547.118301314,302.224469161 L529.423660263,307.886754297 L523.761375126,300.101112235 L521.6380182,294.438827098 L496.865520728,296.562184024 L491.911021234,264.711830131 L506.066734075,263.296258847 Z" fill="#cee3f5" id="US.NY.113" stroke="#6e6e6e" stroke-width="0.4"><desc><name>Warren County</name><stateAbbrev>NY</stateAbbrev><state>New York</state><fips>113</fips><incits>36113</incits><id>US.NY.113</id><population>65337</population></desc></path><path d="M555.611729019,513.852376138 L555.611729019,513.852376138 L555.611729019,513.144590495 L555.611729019,513.144590495 L556.319514661,512.436804853 L556.319514661,512.436804853 L556.319514661,512.436804853 L556.319514661,512.436804853 L556.319514661,511.729019211 L557.027300303,511.729019211 L557.027300303,511.729019211 L557.735085945,511.729019211 L557.735085945,512.436804853 L558.442871587,512.436804853 L558.442871587,512.436804853 L559.15065723,512.436804853 L559.858442872,512.436804853 L559.858442872,512.436804853 L559.858442872,512.436804853 L560.566228514,512.436804853 L560.566228514,512.436804853 L560.566228514,512.436804853 L560.566228514,512.436804853 L561.274014156,512.436804853 L561.274014156,513.144590495 L561.274014156,513.144590495 L561.274014156,513.144590495 L561.274014156,513.144590495 L561.981799798,513.144590495 L561.981799798,513.144590495 L561.981799798,513.144590495 L574.014155713,512.436804853 L581.092012133,515.267947422 L586.75429727,513.144590495 L589.585439838,508.897876643 L595.955510617,510.313447927 L609.403437816,510.313447927 L625.682507583,508.897876643 L639.130434783,505.358948433 L653.286147624,498.281092012 L660.364004044,498.988877654 L666.026289181,503.235591507 L671.688574317,503.943377149 L674.519716886,502.527805865 L680.182002022,507.482305359 L687.259858443,504.651162791 L692.214357937,500.404448938 L697.876643074,498.988877654 L700.0,502.527805865 L678.766430738,509.605662285 L646.208291203,521.6380182 L628.513650152,525.884732053 L623.559150657,523.761375126 L611.526794742,530.131445905 L598.078867543,529.423660263 L586.75429727,533.670374115 L577.553083923,532.962588473 L566.936299292,537.209302326 L561.981799798,537.917087968 L559.15065723,520.222446916 L557.735085945,518.09908999 L558.442871587,518.09908999 L557.735085945,517.391304348 L557.735085945,516.683518706 L557.735085945,515.975733064 L557.735085945,515.975733064 L557.735085945,515.975733064 L557.027300303,515.267947422 L557.027300303,515.267947422 L557.027300303,515.267947422 L557.027300303,514.56016178 L557.027300303,514.56016178 L557.027300303,514.56016178 L556.319514661,513.852376138 L556.319514661,513.852376138 L556.319514661,513.852376138 L556.319514661,513.852376138 L556.319514661,513.852376138 L556.319514661,513.852376138 L555.611729019,513.852376138 L555.611729019,513.852376138 L555.611729019,513.852376138 Z" fill="#cee3f5" id="US.NY.103" stroke="#6e6e6e" stroke-width="0.4"><desc><name>Suffolk County</name><stateAbbrev>NY</stateAbbrev><state>New York</state><fips>103</fips><incits>36103</incits><id>US.NY.103</id><population>1499738</population></desc></path><path d="M540.040444894,348.938321537 L541.456016178,346.814964611 L540.040444894,339.73710819 L539.332659252,339.73710819 L543.579373104,334.782608696 L575.429726997,334.782608696 L574.014155713,346.814964611 L576.137512639,351.769464105 L568.351870576,373.003033367 L530.131445905,377.249747219 L532.962588473,370.879676441 L532.254802831,363.80182002 L537.917087968,356.016177958 L540.040444894,348.938321537 Z" fill="#cee3f5" id="US.NY.083" stroke="#6e6e6e" stroke-width="0.4"><desc><name>Rensselaer County</name><stateAbbrev>NY</stateAbbrev><state>New York</state><fips>083</fips><incits>36083</incits><id>US.NY.083</id><population>159918</population></desc></path><path d="M517.391304348,411.223458038 L519.514661274,406.976744186 L523.761375126,401.31445905 L524.469160768,397.775530839 L530.131445905,394.236602629 L530.131445905,377.249747219 L568.351870576,373.003033367 L554.903943377,410.515672396 L555.611729019,414.054600607 L553.488372093,420.424671385 L537.209302326,417.593528817 L519.514661274,411.223458038 L517.391304348,411.223458038 Z" fill="#cee3f5" id="US.NY.021" stroke="#6e6e6e" stroke-width="0.4"><desc><name>Columbia County</name><stateAbbrev>NY</stateAbbrev><state>New York</state><fips>021</fips><incits>36021</incits><id>US.NY.021</id><population>62243</population></desc></path><path d="M515.267947422,454.398382204 L516.683518706,440.242669363 L514.56016178,426.794742164 L517.391304348,411.223458038 L519.514661274,411.223458038 L537.209302326,417.593528817 L553.488372093,420.424671385 L555.611729019,414.054600607 L556.319514661,418.301314459 L552.780586451,460.060667341 L517.391304348,463.599595551 L513.144590495,467.846309403 L511.729019211,460.768452983 L515.267947422,454.398382204 Z" fill="#cee3f5" id="US.NY.027" stroke="#6e6e6e" stroke-width="0.4"><desc><name>Dutchess County</name><stateAbbrev>NY</stateAbbrev><state>New York</state><fips>027</fips><incits>36027</incits><id>US.NY.027</id><population>296916</population></desc></path><path d="M561.274014156,258.341759353 L566.22851365,257.633973711 L568.351870576,261.880687563 L564.105156724,268.250758342 L561.981799798,277.451971689 L567.644084934,273.913043478 L573.306370071,273.913043478 L573.306370071,278.159757331 L578.260869565,281.698685541 L577.553083923,306.471183013 L575.429726997,334.782608696 L543.579373104,334.782608696 L547.118301314,328.412537917 L549.241658241,320.626895854 L547.826086957,317.795753286 L548.533872599,310.717896866 L547.118301314,302.224469161 L543.579373104,284.529828109 L555.611729019,272.497472194 L561.274014156,258.341759353 Z" fill="#cee3f5" id="US.NY.115" stroke="#6e6e6e" stroke-width="0.4"><desc><name>Washington County</name><stateAbbrev>NY</stateAbbrev><state>New York</state><fips>115</fips><incits>36115</incits><id>US.NY.115</id><population>63093</population></desc></path><path d="M495.449949444,353.185035389 L528.008088979,348.938321537 L534.378159757,345.399393327 L540.040444894,348.938321537 L537.917087968,356.016177958 L532.254802831,363.80182002 L532.962588473,370.879676441 L530.131445905,377.249747219 L488.372093023,382.204246714 L491.203235592,374.418604651 L490.495449949,367.340748231 L496.157735086,358.847320526 L495.449949444,353.185035389 Z" fill="#cee3f5" id="US.NY.001" stroke="#6e6e6e" stroke-width="0.4"><desc><name>Albany County</name><stateAbbrev>NY</stateAbbrev><state>New York</state><fips>001</fips><incits>36001</incits><id>US.NY.001</id><population>306945</population></desc></path><path d="M487.664307381,347.522750253 L488.372093023,346.107178969 L503.943377149,338.321536906 L503.235591507,333.367037412 L510.313447927,335.490394338 L515.267947422,338.321536906 L519.514661274,337.613751264 L520.222446916,342.568250758 L528.008088979,348.938321537 L495.449949444,353.185035389 L486.956521739,354.600606673 L487.664307381,347.522750253 Z" fill="#cee3f5" id="US.NY.093" stroke="#6e6e6e" stroke-width="0.4"><desc><name>Schenectady County</name><stateAbbrev>NY</stateAbbrev><state>New York</state><fips>093</fips><incits>36093</incits><id>US.NY.093</id><population>155333</population></desc></path><path d="M496.865520728,296.562184024 L521.6380182,294.438827098 L523.761375126,300.101112235 L529.423660263,307.886754297 L547.118301314,302.224469161 L548.533872599,310.717896866 L547.826086957,317.795753286 L549.241658241,320.626895854 L547.118301314,328.412537917 L543.579373104,334.782608696 L539.332659252,339.73710819 L540.040444894,339.73710819 L541.456016178,346.814964611 L540.040444894,348.938321537 L534.378159757,345.399393327 L528.008088979,348.938321537 L520.222446916,342.568250758 L519.514661274,337.613751264 L515.267947422,338.321536906 L510.313447927,335.490394338 L503.235591507,333.367037412 L502.527805865,331.243680485 L498.988877654,307.178968655 L496.865520728,296.562184024 Z" fill="#cee3f5" id="US.NY.091" stroke="#6e6e6e" stroke-width="0.4"><desc><name>Saratoga County</name><stateAbbrev>NY</stateAbbrev><state>New York</state><fips>091</fips><incits>36091</incits><id>US.NY.091</id><population>223865</population></desc></path><path d="M156.420626896,317.795753286 L156.420626896,297.269969666 L177.654196158,299.393326593 L193.933265925,307.886754297 L211.627906977,305.055611729 L212.335692619,326.289180991 L201.718907988,326.289180991 L202.42669363,334.782608696 L193.225480283,334.782608696 L180.485338726,334.074823054 L180.485338726,330.535894843 L164.206268959,330.535894843 L160.667340748,326.289180991 L164.914054601,317.795753286 L156.420626896,317.795753286 Z" fill="#cee3f5" id="US.NY.055" stroke="#6e6e6e" stroke-width="0.4"><desc><name>Monroe County</name><stateAbbrev>NY</stateAbbrev><state>New York</state><fips>055</fips><incits>36055</incits><id>US.NY.055</id><population>749606</population></desc></path><path d="M278.867542973,292.315470172 L290.899898888,287.360970677 L296.562184024,283.114256825 L307.886754297,283.822042467 L312.841253792,282.406471183 L315.67239636,278.159757331 L316.380182002,268.958543984 L331.951466127,270.374115268 L331.243680485,266.835187058 L353.892821031,268.250758342 L355.308392315,288.06875632 L350.353892821,286.653185035 L343.983822042,300.808897877 L346.107178969,300.808897877 L343.983822042,315.67239636 L334.074823054,312.841253792 L323.458038423,308.594539939 L310.010111223,311.425682508 L306.471183013,309.302325581 L291.60768453,309.302325581 L290.899898888,306.471183013 L280.283114257,307.178968655 L278.867542973,292.315470172 Z" fill="#cee3f5" id="US.NY.075" stroke="#6e6e6e" stroke-width="0.4"><desc><name>Oswego County</name><stateAbbrev>NY</stateAbbrev><state>New York</state><fips>075</fips><incits>36075</incits><id>US.NY.075</id><population>121165</population></desc></path><path d="M346.107178969,205.257836198 L382.912032356,221.536905966 L373.710819009,231.445904954 L379.373104146,234.277047523 L377.957532861,239.939332659 L373.710819009,243.47826087 L368.756319515,242.770475228 L355.308392315,251.263902932 L348.230535895,251.263902932 L346.814964611,259.049544995 L352.477249747,259.757330637 L353.892821031,268.250758342 L331.243680485,266.835187058 L331.951466127,270.374115268 L316.380182002,268.958543984 L279.575328615,251.971688574 L295.14661274,232.153690597 L302.224469161,228.614762386 L305.763397371,222.95247725 L312.13346815,222.95247725 L319.21132457,219.413549039 L319.21132457,215.874620829 L333.367037412,210.212335693 L336.19817998,210.212335693 L346.107178969,205.257836198 Z" fill="#cee3f5" id="US.NY.045" stroke="#6e6e6e" stroke-width="0.4"><desc><name>Jefferson County</name><stateAbbrev>NY</stateAbbrev><state>New York</state><fips>045</fips><incits>36045</incits><id>US.NY.045</id><population>119504</population></desc></path><path d="M448.028311426,304.347826087 L463.599595551,309.302325581 L482.002022245,307.886754297 L482.709807887,310.717896866 L491.911021234,310.010111223 L498.988877654,307.178968655 L502.527805865,331.243680485 L462.891809909,330.535894843 L443.781597573,325.581395349 L443.781597573,319.21132457 L449.44388271,314.256825076 L448.028311426,304.347826087 Z" fill="#cee3f5" id="US.NY.035" stroke="#6e6e6e" stroke-width="0.4"><desc><name>Fulton County</name><stateAbbrev>NY</stateAbbrev><state>New York</state><fips>035</fips><incits>36035</incits><id>US.NY.035</id><population>54586</population></desc></path><path d="M412.639029323,274.62082912 L407.684529828,232.153690597 L416.885743175,236.400404449 L435.288169869,234.277047523 L442.366026289,285.945399393 L434.580384226,299.393326593 L448.028311426,304.347826087 L449.44388271,314.256825076 L443.781597573,319.21132457 L443.781597573,325.581395349 L445.904954499,329.828109201 L443.781597573,341.860465116 L433.164812942,338.321536906 L431.041456016,344.691607685 L413.346814965,337.613751264 L409.807886754,341.860465116 L403.437815976,340.444893832 L402.730030334,324.873609707 L416.177957533,309.302325581 L408.39231547,306.471183013 L409.807886754,302.224469161 L415.470171891,300.101112235 L412.639029323,274.62082912 Z" fill="#cee3f5" id="US.NY.043" stroke="#6e6e6e" stroke-width="0.4"><desc><name>Herkimer County</name><stateAbbrev>NY</stateAbbrev><state>New York</state><fips>043</fips><incits>36043</incits><id>US.NY.043</id><population>64181</population></desc></path><path d="M343.983822042,315.67239636 L353.892821031,314.256825076 L365.217391304,319.919110212 L365.925176946,322.750252781 L373.710819009,326.289180991 L374.418604651,335.490394338 L382.912032356,335.490394338 L383.619817998,341.860465116 L400.606673407,341.152679474 L399.898887765,348.938321537 L396.359959555,352.477249747 L384.32760364,351.769464105 L343.2760364,353.892821031 L343.2760364,348.230535895 L341.152679474,322.042467139 L334.074823054,312.841253792 L343.983822042,315.67239636 Z" fill="#cee3f5" id="US.NY.053" stroke="#6e6e6e" stroke-width="0.4"><desc><name>Madison County</name><stateAbbrev>NY</stateAbbrev><state>New York</state><fips>053</fips><incits>36053</incits><id>US.NY.053</id><population>72382</population></desc></path><path d="M478.463094034,454.398382204 L487.664307381,450.859453994 L489.079878665,452.98281092 L499.696663296,455.106167846 L515.267947422,454.398382204 L511.729019211,460.768452983 L513.144590495,467.846309403 L515.975733064,472.093023256 L513.144590495,478.463094034 L490.495449949,494.03437816 L449.44388271,474.924165824 L444.489383215,469.261880688 L444.489383215,462.891809909 L468.554095046,462.184024267 L473.50859454,457.229524772 L478.463094034,454.398382204 Z" fill="#cee3f5" id="US.NY.071" stroke="#6e6e6e" stroke-width="0.4"><desc><name>Orange County</name><stateAbbrev>NY</stateAbbrev><state>New York</state><fips>071</fips><incits>36071</incits><id>US.NY.071</id><population>375592</population></desc></path><path d="M490.495449949,494.03437816 L513.144590495,478.463094034 L512.436804853,478.463094034 L515.975733064,482.002022245 L513.852376138,484.833164813 L520.930232558,494.03437816 L520.930232558,507.482305359 L490.495449949,494.03437816 Z" fill="#cee3f5" id="US.NY.087" stroke="#6e6e6e" stroke-width="0.4"><desc><name>Rockland County</name><stateAbbrev>NY</stateAbbrev><state>New York</state><fips>087</fips><incits>36087</incits><id>US.NY.087</id><population>320903</population></desc></path><path d="M128.816986855,418.301314459 L128.816986855,372.295247725 L152.881698686,372.295247725 L170.576339737,372.295247725 L170.576339737,375.834175935 L181.193124368,376.541961577 L179.069767442,396.359959555 L178.3619818,418.301314459 L128.816986855,418.301314459 Z" fill="#cee3f5" id="US.NY.003" stroke="#6e6e6e" stroke-width="0.4"><desc><name>Allegany County</name><stateAbbrev>NY</stateAbbrev><state>New York</state><fips>003</fips><incits>36003</incits><id>US.NY.003</id><population>48109</population></desc></path><path d="M248.432760364,393.528816987 L268.250758342,392.113245703 L268.958543984,396.359959555 L276.744186047,397.067745197 L278.867542973,392.821031345 L285.945399393,393.528816987 L286.653185035,404.145601618 L283.822042467,404.145601618 L285.237613751,413.346814965 L283.822042467,418.301314459 L248.432760364,418.301314459 L248.432760364,393.528816987 Z" fill="#cee3f5" id="US.NY.015" stroke="#6e6e6e" stroke-width="0.4"><desc><name>Chemung County</name><stateAbbrev>NY</stateAbbrev><state>New York</state><fips>015</fips><incits>36015</incits><id>US.NY.015</id><population>88506</population></desc></path><path d="M160.667340748,341.860465116 L159.959555106,337.613751264 L164.206268959,330.535894843 L180.485338726,330.535894843 L180.485338726,334.074823054 L193.225480283,334.782608696 L196.764408493,341.152679474 L193.225480283,342.568250758 L191.809908999,358.847320526 L201.718907988,358.847320526 L201.718907988,366.632962588 L186.147623862,366.632962588 L186.147623862,370.879676441 L181.193124368,370.879676441 L181.193124368,376.541961577 L170.576339737,375.834175935 L170.576339737,372.295247725 L152.881698686,372.295247725 L152.173913043,366.632962588 L157.128412538,363.094034378 L159.959555106,358.847320526 L160.667340748,341.860465116 Z" fill="#cee3f5" id="US.NY.051" stroke="#6e6e6e" stroke-width="0.4"><desc><name>Livingston County</name><stateAbbrev>NY</stateAbbrev><state>New York</state><fips>051</fips><incits>36051</incits><id>US.NY.051</id><population>64705</population></desc></path><path d="M193.225480283,334.782608696 L202.42669363,334.782608696 L201.718907988,326.289180991 L212.335692619,326.289180991 L232.861476239,325.581395349 L232.861476239,328.412537917 L248.432760364,328.412537917 L247.724974722,350.353892821 L217.290192113,350.353892821 L212.335692619,358.847320526 L212.335692619,367.340748231 L201.718907988,366.632962588 L201.718907988,358.847320526 L191.809908999,358.847320526 L193.225480283,342.568250758 L196.764408493,341.152679474 L193.225480283,334.782608696 Z" fill="#cee3f5" id="US.NY.069" stroke="#6e6e6e" stroke-width="0.4"><desc><name>Ontario County</name><stateAbbrev>NY</stateAbbrev><state>New York</state><fips>069</fips><incits>36069</incits><id>US.NY.069</id><population>109103</population></desc></path><path d="M235.692618807,375.126390293 L246.309403438,375.126390293 L248.432760364,377.249747219 L254.802831143,377.249747219 L254.095045501,370.171890799 L271.789686552,369.464105157 L273.205257836,385.035389282 L272.497472194,392.821031345 L278.867542973,392.821031345 L276.744186047,397.067745197 L268.958543984,396.359959555 L268.250758342,392.113245703 L248.432760364,393.528816987 L236.400404449,394.236602629 L236.400404449,393.528816987 L235.692618807,375.126390293 Z" fill="#cee3f5" id="US.NY.097" stroke="#6e6e6e" stroke-width="0.4"><desc><name>Schuyler County</name><stateAbbrev>NY</stateAbbrev><state>New York</state><fips>097</fips><incits>36097</incits><id>US.NY.097</id><population>18460</population></desc></path><path d="M248.432760364,328.412537917 L270.374115268,326.996966633 L268.250758342,337.613751264 L270.374115268,343.983822042 L268.958543984,353.892821031 L274.62082912,363.094034378 L281.698685541,369.464105157 L271.789686552,369.464105157 L254.095045501,370.171890799 L254.802831143,360.26289181 L247.724974722,350.353892821 L248.432760364,328.412537917 Z" fill="#cee3f5" id="US.NY.099" stroke="#6e6e6e" stroke-width="0.4"><desc><name>Seneca County</name><stateAbbrev>NY</stateAbbrev><state>New York</state><fips>099</fips><incits>36099</incits><id>US.NY.099</id><population>35409</population></desc></path><path d="M178.3619818,418.301314459 L179.069767442,396.359959555 L181.193124368,376.541961577 L181.193124368,370.879676441 L186.147623862,370.879676441 L186.147623862,366.632962588 L201.718907988,366.632962588 L212.335692619,367.340748231 L232.153690597,367.340748231 L232.153690597,373.710819009 L235.692618807,375.126390293 L236.400404449,393.528816987 L236.400404449,394.236602629 L248.432760364,393.528816987 L248.432760364,418.301314459 L178.3619818,418.301314459 Z" fill="#cee3f5" id="US.NY.101" stroke="#6e6e6e" stroke-width="0.4"><desc><name>Steuben County</name><stateAbbrev>NY</stateAbbrev><state>New York</state><fips>101</fips><incits>36101</incits><id>US.NY.101</id><population>98650</population></desc></path><path d="M115.369059656,341.152679474 L150.050556117,341.152679474 L160.667340748,341.860465116 L159.959555106,358.847320526 L157.128412538,363.094034378 L152.173913043,366.632962588 L152.881698686,372.295247725 L128.816986855,372.295247725 L115.369059656,372.295247725 L114.661274014,370.879676441 L115.369059656,341.152679474 Z" fill="#cee3f5" id="US.NY.121" stroke="#6e6e6e" stroke-width="0.4"><desc><name>Wyoming County</name><stateAbbrev>NY</stateAbbrev><state>New York</state><fips>121</fips><incits>36121</incits><id>US.NY.121</id><population>41531</population></desc></path><path d="M247.724974722,350.353892821 L254.802831143,360.26289181 L254.095045501,370.171890799 L254.802831143,377.249747219 L248.432760364,377.249747219 L246.309403438,375.126390293 L235.692618807,375.126390293 L232.153690597,373.710819009 L232.153690597,367.340748231 L212.335692619,367.340748231 L212.335692619,358.847320526 L217.290192113,350.353892821 L247.724974722,350.353892821 Z" fill="#cee3f5" id="US.NY.123" stroke="#6e6e6e" stroke-width="0.4"><desc><name>Yates County</name><stateAbbrev>NY</stateAbbrev><state>New York</state><fips>123</fips><incits>36123</incits><id>US.NY.123</id><population>25156</population></desc></path><path d="M322.042467139,381.496461072 L346.107178969,381.496461072 L347.522750253,395.652173913 L365.925176946,396.359959555 L365.925176946,400.606673407 L385.035389282,400.606673407 L385.035389282,414.762386249 L390.697674419,418.301314459 L324.165824065,418.301314459 L323.458038423,402.022244692 L326.996966633,398.483316481 L323.458038423,389.282103134 L322.042467139,381.496461072 Z" fill="#cee3f5" id="US.NY.007" stroke="#6e6e6e" stroke-width="0.4"><desc><name>Broome County</name><stateAbbrev>NY</stateAbbrev><state>New York</state><fips>007</fips><incits>36007</incits><id>US.NY.007</id><population>197534</population></desc></path><path d="M343.2760364,353.892821031 L384.32760364,351.769464105 L396.359959555,352.477249747 L392.821031345,359.555106168 L393.528816987,365.925176946 L386.450960566,375.126390293 L389.282103134,381.496461072 L386.450960566,384.32760364 L385.743174924,389.989888777 L385.035389282,400.606673407 L365.925176946,400.606673407 L365.925176946,396.359959555 L347.522750253,395.652173913 L346.107178969,381.496461072 L343.2760364,353.892821031 Z" fill="#cee3f5" id="US.NY.017" stroke="#6e6e6e" stroke-width="0.4"><desc><name>Chenango County</name><stateAbbrev>NY</stateAbbrev><state>New York</state><fips>017</fips><incits>36017</incits><id>US.NY.017</id><population>49503</population></desc></path><path d="M309.302325581,349.646107179 L343.2760364,348.230535895 L343.2760364,353.892821031 L346.107178969,381.496461072 L322.042467139,381.496461072 L311.425682508,382.204246714 L310.010111223,363.094034378 L309.302325581,349.646107179 Z" fill="#cee3f5" id="US.NY.023" stroke="#6e6e6e" stroke-width="0.4"><desc><name>Cortland County</name><stateAbbrev>NY</stateAbbrev><state>New York</state><fips>023</fips><incits>36023</incits><id>US.NY.023</id><population>48976</population></desc></path><path d="M385.035389282,400.606673407 L385.743174924,389.989888777 L394.944388271,389.989888777 L398.483316481,387.158746208 L409.807886754,384.32760364 L414.054600607,380.78867543 L420.424671385,380.080889788 L435.995955511,373.003033367 L448.028311426,372.295247725 L456.52173913,380.78867543 L472.093023256,386.450960566 L473.50859454,387.158746208 L463.599595551,400.606673407 L471.385237614,403.437815976 L441.658240647,416.885743175 L409.807886754,431.749241658 L398.483316481,428.210313448 L397.775530839,423.963599596 L390.697674419,418.301314459 L385.035389282,414.762386249 L385.035389282,400.606673407 Z" fill="#cee3f5" id="US.NY.025" stroke="#6e6e6e" stroke-width="0.4"><desc><name>Delaware County</name><stateAbbrev>NY</stateAbbrev><state>New York</state><fips>025</fips><incits>36025</incits><id>US.NY.025</id><population>46722</population></desc></path><path d="M472.093023256,386.450960566 L477.755308392,385.035389282 L486.956521739,385.743174924 L488.372093023,382.204246714 L530.131445905,377.249747219 L530.131445905,394.236602629 L524.469160768,397.775530839 L523.761375126,401.31445905 L519.514661274,406.976744186 L511.021233569,402.730030334 L507.482305359,402.730030334 L504.651162791,409.807886754 L484.125379171,408.39231547 L471.385237614,403.437815976 L463.599595551,400.606673407 L473.50859454,387.158746208 L472.093023256,386.450960566 Z" fill="#cee3f5" id="US.NY.039" stroke="#6e6e6e" stroke-width="0.4"><desc><name>Greene County</name><stateAbbrev>NY</stateAbbrev><state>New York</state><fips>039</fips><incits>36039</incits><id>US.NY.039</id><population>48455</population></desc></path><path d="M291.60768453,309.302325581 L306.471183013,309.302325581 L310.010111223,311.425682508 L323.458038423,308.594539939 L334.074823054,312.841253792 L341.152679474,322.042467139 L343.2760364,348.230535895 L309.302325581,349.646107179 L302.224469161,342.568250758 L293.731041456,343.2760364 L293.023255814,329.120323559 L290.192113246,329.120323559 L289.484327604,320.626895854 L291.60768453,319.919110212 L291.60768453,309.302325581 Z" fill="#cee3f5" id="US.NY.067" stroke="#6e6e6e" stroke-width="0.4"><desc><name>Onondaga County</name><stateAbbrev>NY</stateAbbrev><state>New York</state><fips>067</fips><incits>36067</incits><id>US.NY.067</id><population>468387</population></desc></path><path d="M396.359959555,352.477249747 L399.898887765,348.938321537 L400.606673407,341.152679474 L403.437815976,340.444893832 L409.807886754,341.860465116 L413.346814965,337.613751264 L431.041456016,344.691607685 L433.164812942,338.321536906 L443.781597573,341.860465116 L453.690596562,344.691607685 L452.275025278,351.769464105 L455.106167846,362.386248736 L448.028311426,372.295247725 L435.995955511,373.003033367 L420.424671385,380.080889788 L414.054600607,380.78867543 L409.807886754,384.32760364 L398.483316481,387.158746208 L394.944388271,389.989888777 L385.743174924,389.989888777 L386.450960566,384.32760364 L389.282103134,381.496461072 L386.450960566,375.126390293 L393.528816987,365.925176946 L392.821031345,359.555106168 L396.359959555,352.477249747 Z" fill="#cee3f5" id="US.NY.077" stroke="#6e6e6e" stroke-width="0.4"><desc><name>Otsego County</name><stateAbbrev>NY</stateAbbrev><state>New York</state><fips>077</fips><incits>36077</incits><id>US.NY.077</id><population>61683</population></desc></path><path d="M512.436804853,478.463094034 L513.144590495,478.463094034 L515.975733064,472.093023256 L513.144590495,467.846309403 L517.391304348,463.599595551 L552.780586451,460.060667341 L551.365015167,474.216380182 L512.436804853,478.463094034 Z" fill="#cee3f5" id="US.NY.079" stroke="#6e6e6e" stroke-width="0.4"><desc><name>Putnam County</name><stateAbbrev>NY</stateAbbrev><state>New York</state><fips>079</fips><incits>36079</incits><id>US.NY.079</id><population>99645</population></desc></path><path d="M409.807886754,431.749241658 L441.658240647,416.885743175 L470.677451972,428.91809909 L460.060667341,440.950455005 L476.339737108,449.44388271 L478.463094034,454.398382204 L473.50859454,457.229524772 L468.554095046,462.184024267 L444.489383215,462.891809909 L444.489383215,469.261880688 L439.534883721,467.846309403 L432.4570273,467.846309403 L430.333670374,465.015166835 L423.963599596,464.307381193 L420.424671385,459.352881699 L418.301314459,452.275025278 L417.593528817,440.242669363 L413.346814965,438.119312437 L414.762386249,434.580384226 L409.807886754,431.749241658 Z" fill="#cee3f5" id="US.NY.105" stroke="#6e6e6e" stroke-width="0.4"><desc><name>Sullivan County</name><stateAbbrev>NY</stateAbbrev><state>New York</state><fips>105</fips><incits>36105</incits><id>US.NY.105</id><population>76665</population></desc></path><path d="M285.945399393,393.528816987 L296.562184024,394.944388271 L297.269969666,389.989888777 L311.425682508,392.113245703 L311.425682508,382.204246714 L322.042467139,381.496461072 L323.458038423,389.282103134 L326.996966633,398.483316481 L323.458038423,402.022244692 L324.165824065,418.301314459 L283.822042467,418.301314459 L285.237613751,413.346814965 L283.822042467,404.145601618 L286.653185035,404.145601618 L285.945399393,393.528816987 Z" fill="#cee3f5" id="US.NY.107" stroke="#6e6e6e" stroke-width="0.4"><desc><name>Tioga County</name><stateAbbrev>NY</stateAbbrev><state>New York</state><fips>107</fips><incits>36107</incits><id>US.NY.107</id><population>50243</population></desc></path><path d="M271.789686552,369.464105157 L281.698685541,369.464105157 L274.62082912,363.094034378 L310.010111223,363.094034378 L311.425682508,382.204246714 L311.425682508,392.113245703 L297.269969666,389.989888777 L296.562184024,394.944388271 L285.945399393,393.528816987 L278.867542973,392.821031345 L272.497472194,392.821031345 L273.205257836,385.035389282 L271.789686552,369.464105157 Z" fill="#cee3f5" id="US.NY.109" stroke="#6e6e6e" stroke-width="0.4"><desc><name>Tompkins County</name><stateAbbrev>NY</stateAbbrev><state>New York</state><fips>109</fips><incits>36109</incits><id>US.NY.109</id><population>103617</population></desc></path><path d="M441.658240647,416.885743175 L471.385237614,403.437815976 L484.125379171,408.39231547 L504.651162791,409.807886754 L507.482305359,402.730030334 L511.021233569,402.730030334 L519.514661274,406.976744186 L517.391304348,411.223458038 L514.56016178,426.794742164 L516.683518706,440.242669363 L515.267947422,454.398382204 L499.696663296,455.106167846 L489.079878665,452.98281092 L487.664307381,450.859453994 L478.463094034,454.398382204 L476.339737108,449.44388271 L460.060667341,440.950455005 L470.677451972,428.91809909 L441.658240647,416.885743175 Z" fill="#cee3f5" id="US.NY.111" stroke="#6e6e6e" stroke-width="0.4"><desc><name>Ulster County</name><stateAbbrev>NY</stateAbbrev><state>New York</state><fips>111</fips><incits>36111</incits><id>US.NY.111</id><population>180998</population></desc></path><path d="M512.436804853,478.463094034 L551.365015167,474.216380182 L551.365015167,480.586450961 L557.027300303,488.372093023 L535.085945399,498.281092012 L545.70273003,511.021233569 L533.670374115,518.09908999 L518.806875632,514.56016178 L520.930232558,507.482305359 L520.930232558,494.03437816 L513.852376138,484.833164813 L515.975733064,482.002022245 L512.436804853,478.463094034 Z" fill="#cee3f5" id="US.NY.119" stroke="#6e6e6e" stroke-width="0.4"><desc><name>Westchester County</name><stateAbbrev>NY</stateAbbrev><state>New York</state><fips>119</fips><incits>36119</incits><id>US.NY.119</id><population>968802</population></desc></path><path d="M55.2072800809,367.340748231 L62.2851365015,370.171890799 L62.2851365015,418.301314459 L0.0,418.301314459 L0.0,372.295247725 L41.0515672396,356.7239636 L55.2072800809,367.340748231 Z" fill="#cee3f5" id="US.NY.013" stroke="#6e6e6e" stroke-width="0.4"><desc><name>Chautauqua County</name><stateAbbrev>NY</stateAbbrev><state>New York</state><fips>013</fips><incits>36013</incits><id>US.NY.013</id><population>133080</population></desc></path><path d="M443.781597573,341.860465116 L445.904954499,329.828109201 L443.781597573,325.581395349 L462.891809909,330.535894843 L502.527805865,331.243680485 L503.235591507,333.367037412 L503.943377149,338.321536906 L488.372093023,346.107178969 L487.664307381,347.522750253 L485.540950455,348.938321537 L470.677451972,349.646107179 L461.476238625,346.107178969 L453.690596562,344.691607685 L443.781597573,341.860465116 Z" fill="#cee3f5" id="US.NY.057" stroke="#6e6e6e" stroke-width="0.4"><desc><name>Montgomery County</name><stateAbbrev>NY</stateAbbrev><state>New York</state><fips>057</fips><incits>36057</incits><id>US.NY.057</id><population>49897</population></desc></path><path d="M355.308392315,288.06875632 L375.126390293,292.315470172 L412.639029323,274.62082912 L415.470171891,300.101112235 L409.807886754,302.224469161 L408.39231547,306.471183013 L416.177957533,309.302325581 L402.730030334,324.873609707 L403.437815976,340.444893832 L400.606673407,341.152679474 L383.619817998,341.860465116 L382.912032356,335.490394338 L374.418604651,335.490394338 L373.710819009,326.289180991 L365.925176946,322.750252781 L365.217391304,319.919110212 L353.892821031,314.256825076 L343.983822042,315.67239636 L346.107178969,300.808897877 L343.983822042,300.808897877 L350.353892821,286.653185035 L355.308392315,288.06875632 Z" fill="#cee3f5" id="US.NY.065" stroke="#6e6e6e" stroke-width="0.4"><desc><name>Oneida County</name><stateAbbrev>NY</stateAbbrev><state>New York</state><fips>065</fips><incits>36065</incits><id>US.NY.065</id><population>233585</population></desc></path><path d="M448.028311426,372.295247725 L455.106167846,362.386248736 L452.275025278,351.769464105 L453.690596562,344.691607685 L461.476238625,346.107178969 L470.677451972,349.646107179 L485.540950455,348.938321537 L487.664307381,347.522750253 L486.956521739,354.600606673 L495.449949444,353.185035389 L496.157735086,358.847320526 L490.495449949,367.340748231 L491.203235592,374.418604651 L488.372093023,382.204246714 L486.956521739,385.743174924 L477.755308392,385.035389282 L472.093023256,386.450960566 L456.52173913,380.78867543 L448.028311426,372.295247725 Z" fill="#cee3f5" id="US.NY.095" stroke="#6e6e6e" stroke-width="0.4"><desc><name>Schoharie County</name><stateAbbrev>NY</stateAbbrev><state>New York</state><fips>095</fips><incits>36095</incits><id>US.NY.095</id><population>31844</population></desc></path><path d="M211.627906977,305.055611729 L235.692618807,303.640040445 L241.354903943,305.763397371 L249.140546006,305.763397371 L254.095045501,302.932254803 L263.296258847,302.224469161 L269.666329626,298.68554095 L271.789686552,322.750252781 L270.374115268,326.996966633 L248.432760364,328.412537917 L232.861476239,328.412537917 L232.861476239,325.581395349 L212.335692619,326.289180991 L211.627906977,305.055611729 Z" fill="#cee3f5" id="US.NY.117" stroke="#6e6e6e" stroke-width="0.4"><desc><name>Wayne County</name><stateAbbrev>NY</stateAbbrev><state>New York</state><fips>117</fips><incits>36117</incits><id>US.NY.117</id><population>92473</population></desc></path><path d="M382.912032356,221.536905966 L407.684529828,232.153690597 L412.639029323,274.62082912 L375.126390293,292.315470172 L355.308392315,288.06875632 L353.892821031,268.250758342 L352.477249747,259.757330637 L346.814964611,259.049544995 L348.230535895,251.263902932 L355.308392315,251.263902932 L368.756319515,242.770475228 L373.710819009,243.47826087 L377.957532861,239.939332659 L379.373104146,234.277047523 L373.710819009,231.445904954 L382.912032356,221.536905966 Z" fill="#cee3f5" id="US.NY.049" stroke="#6e6e6e" stroke-width="0.4"><desc><name>Lewis County</name><stateAbbrev>NY</stateAbbrev><state>New York</state><fips>049</fips><incits>36049</incits><id>US.NY.049</id><population>27149</population></desc></path><path d="M533.670374115,518.09908999 L545.70273003,511.021233569 L561.981799798,508.190091001 L561.981799798,513.144590495 L561.981799798,513.144590495 L561.981799798,513.144590495 L561.274014156,513.144590495 L561.274014156,513.144590495 L561.274014156,513.144590495 L561.274014156,513.144590495 L561.274014156,512.436804853 L560.566228514,512.436804853 L560.566228514,512.436804853 L560.566228514,512.436804853 L560.566228514,512.436804853 L559.858442872,512.436804853 L559.858442872,512.436804853 L559.858442872,512.436804853 L559.15065723,512.436804853 L558.442871587,512.436804853 L558.442871587,512.436804853 L557.735085945,512.436804853 L557.735085945,511.729019211 L557.027300303,511.729019211 L557.027300303,511.729019211 L556.319514661,511.729019211 L556.319514661,512.436804853 L556.319514661,512.436804853 L556.319514661,512.436804853 L556.319514661,512.436804853 L555.611729019,513.144590495 L555.611729019,513.144590495 L555.611729019,513.852376138 L555.611729019,513.852376138 L555.611729019,513.852376138 L555.611729019,513.852376138 L556.319514661,513.852376138 L556.319514661,513.852376138 L556.319514661,513.852376138 L556.319514661,513.852376138 L556.319514661,513.852376138 L556.319514661,513.852376138 L557.027300303,514.56016178 L557.027300303,514.56016178 L557.027300303,514.56016178 L557.027300303,515.267947422 L557.027300303,515.267947422 L557.027300303,515.267947422 L557.735085945,515.975733064 L557.735085945,515.975733064 L557.735085945,515.975733064 L557.735085945,516.683518706 L557.735085945,517.391304348 L558.442871587,518.09908999 L557.735085945,518.09908999 L559.15065723,520.222446916 L561.981799798,537.917087968 L561.981799798,540.748230536 L562.68958544,541.456016178 L562.68958544,546.410515672 L548.533872599,549.241658241 L532.962588473,548.533872599 L535.085945399,531.547017189 L537.917087968,528.715874621 L530.839231547,523.761375126 L533.670374115,518.09908999 Z" fill="#cee3f5" id="US.NY.059" stroke="#6e6e6e" stroke-width="0.4"><desc><name>Nassau County</name><stateAbbrev>NY</stateAbbrev><state>New York</state><fips>059</fips><incits>36059</incits><id>US.NY.059</id><population>1352146</population></desc></path><path d="M270.374115268,326.996966633 L271.789686552,322.750252781 L269.666329626,298.68554095 L278.867542973,292.315470172 L280.283114257,307.178968655 L290.899898888,306.471183013 L291.60768453,309.302325581 L291.60768453,319.919110212 L289.484327604,320.626895854 L290.192113246,329.120323559 L293.023255814,329.120323559 L293.731041456,343.2760364 L302.224469161,342.568250758 L309.302325581,349.646107179 L310.010111223,363.094034378 L274.62082912,363.094034378 L268.958543984,353.892821031 L270.374115268,343.983822042 L268.250758342,337.613751264 L270.374115268,326.996966633 Z" fill="#cee3f5" id="US.NY.011" stroke="#6e6e6e" stroke-width="0.4"><desc><name>Cayuga County</name><stateAbbrev>NY</stateAbbrev><state>New York</state><fips>011</fips><incits>36011</incits><id>US.NY.011</id><population>79477</population></desc></path></svg>