<?xml version='1.0' encoding='utf-8'?>
<svg height="700" width="700" xmlns="http://www.w3.org/2000/svg"><path d="M1.42991829038,386.132935261 L0.0,384.813010685 L1.09993714645,383.823067253 L1.42991829038,386.132935261 M18.3689503457,347.52514142 L17.9289754871,348.295097423 L13.1992457574,347.965116279 L12.6492771842,345.875235701 L18.3689503457,347.52514142 Z" fill="#cee3f5" id="YE.3662" stroke="#6e6e6e" stroke-width="0.4"><desc><labelrank>20</labelrank><code_hasc>-99</code_hasc><name /><admin>Yemen</admin><type_en /><region /><woe_id>-99</woe_id><longitude>42</longitude><woe_name /><fips /><woe_label /><latitude>15</latitude><iso_a2>YE</iso_a2><postal /><type /><id>YE.3662</id></desc></path><path d="M157.291011942,249.740729101 L156.081081081,268.109679447 L151.461345066,270.419547454 L141.011942175,270.969516028 L130.672532998,275.699245757 L125.612822124,282.298868636 L117.143306097,287.578566939 L113.843494657,295.608108108 L107.463859208,296.708045255 L93.2746700189,292.748271527 L81.1753614079,296.708045255 L69.6260213702,296.158076681 L58.1866750471,292.198302954 L57.30672533,289.118478944 L59.7265870522,285.70867379 L56.0967944689,283.508799497 L54.2269013199,279.219044626 L55.6568196103,273.499371464 L54.6668761785,268.989629164 L56.8667504714,261.950031427 L62.0364550597,259.530169705 L62.1464487744,258.430232558 L60.6065367693,256.34035198 L57.4167190446,255.240414833 L65.1162790698,247.650848523 L69.9560025141,244.681018228 L76.2256442489,244.681018228 L82.6052796983,247.870835952 L88.6549340038,254.030483972 L97.3444374607,253.920490258 L97.6744186047,256.34035198 L98.8843494657,257.000314268 L103.834066625,253.150534255 L108.233815211,254.580452546 L111.863607794,251.060653677 L115.273412948,251.940603394 L125.942803268,250.400691389 L134.632306725,251.170647392 L139.25204274,249.630735387 L157.291011942,249.740729101 Z" fill="#cee3f5" id="YE.SD" stroke="#6e6e6e" stroke-width="0.4"><desc><labelrank>7</labelrank><code_hasc>YE.SD</code_hasc><name>Sa`dah</name><admin>Yemen</admin><type_en>Governorate</type_en><region /><woe_id>20070038</woe_id><longitude>44</longitude><woe_name>Sa`dah</woe_name><fips>YM15</fips><woe_label>Sa`dah, YE, Yemen</woe_label><latitude>16</latitude><iso_a2>YE</iso_a2><postal>SD</postal><type>Muhafazah</type><id>YE.SD</id></desc></path><path d="M28.818353237,465.768384664 L30.5782526713,461.258642363 L34.0980515399,459.168761785 L34.8680075424,459.718730358 L32.4481458202,463.7884978 L28.818353237,465.768384664 M34.5380263985,450.699245757 L32.6681332495,451.029226901 L33.438089252,449.379321182 L30.7982401006,448.169390321 L29.1483343809,445.639534884 L33.438089252,442.339723444 L35.307982401,445.199560025 L34.5380263985,450.699245757 M23.8686360779,366.22407291 L26.3984915148,365.894091766 L25.6285355123,371.063796354 L22.9886863608,373.263670647 L21.7787554997,371.833752357 L22.5487115022,366.114079195 L24.9685732244,363.1442489 L26.6184789441,362.704274041 L23.8686360779,366.22407291 M84.9151477058,451.909176618 L76.8856065368,453.999057197 L71.3859208045,461.368636078 L66.4362036455,462.688560654 L62.3664362036,465.988372093 L59.5065996229,453.779069767 L55.5468258957,449.269327467 L51.9170333124,441.789754871 L45.9773727216,418.471087366 L44.4374607165,417.041169076 L44.8774355751,416.051225644 L45.8673790069,416.601194217 L47.9572595852,421.110936518 L48.3972344437,415.611250786 L46.0873664362,410.111565053 L46.7473287241,408.351665619 L44.6574481458,405.821810182 L43.667504714,401.202074167 L40.3676932747,395.702388435 L40.3676932747,393.832495286 L41.9076052797,398.122250157 L43.8874921433,399.882149591 L43.4475172847,391.962602137 L40.25769956,387.562853551 L40.1477058454,382.063167819 L32.2281583909,376.893463231 L29.8082966688,376.563482087 L28.7083595223,378.213387806 L26.8384663734,377.883406662 L25.2985543683,374.803582652 L29.3683218102,374.693588938 L29.1483343809,371.063796354 L31.1282212445,367.763984915 L30.358265242,370.95380264 L34.5380263985,373.923632935 L35.6379635449,376.893463231 L36.4079195475,369.083909491 L34.7580138278,364.57416719 L34.6480201131,360.614393463 L31.5681961031,356.104651163 L32.4481458202,354.784726587 L31.0182275299,352.694846009 L31.3482086738,348.845065996 L30.1382778127,348.405091138 L32.9981143935,345.545254557 L33.6580766813,341.915461974 L37.3978629793,338.615650534 L38.0578252671,337.625707102 L38.2778126964,336.305782527 L38.2778126964,336.305782527 L47.2972972973,341.805468259 L51.0370835952,341.3654934 L53.3469516028,341.58548083 L54.6668761785,340.925518542 L55.436832181,340.375549969 L57.6367064739,339.825581395 L63.3563796354,339.495600251 L64.7862979258,340.595537398 L65.3362664991,344.005342552 L64.126335638,347.195160277 L64.126335638,348.295097423 L64.7862979258,350.164990572 L64.0163419233,354.784726587 L65.4462602137,365.234129478 L65.3362664991,368.753928347 L65.666247643,371.613764928 L67.206159648,373.923632935 L69.8460087995,376.013513514 L72.155876807,376.673475801 L72.5958516656,377.663419233 L73.2558139535,379.313324953 L74.3557510999,381.293211816 L75.0157133878,382.943117536 L75.7856693903,384.263042112 L77.5455688246,385.912947832 L78.975487115,386.682903834 L80.7353865493,388.442803268 L82.4952859837,389.4327467 L86.1250785669,389.652734129 L87.5549968573,390.862664991 L87.4450031427,391.522627278 L87.1150219987,391.852608422 L86.2350722816,393.172532998 L85.4651162791,393.722501571 L84.5851665619,393.832495286 L82.2752985544,393.062539283 L78.0955373979,398.012256442 L77.2155876807,400.542111879 L77.8755499686,404.721873036 L77.5455688246,405.711816468 L76.8856065368,406.48177247 L76.7756128221,407.471715902 L76.9956002514,409.341609051 L76.7756128221,410.331552483 L76.8856065368,411.431489629 L79.0854808297,417.261156505 L79.1954745443,418.141106223 L79.9654305468,419.681018228 L80.0754242615,420.340980515 L80.1854179761,421.88089252 L79.9654305468,422.870835952 L77.9855436832,425.290697674 L76.8856065368,425.290697674 L76.4456316782,426.060653677 L78.3155248272,433.980201131 L78.3155248272,435.960087995 L79.0854808297,437.829981144 L79.9654305468,438.709930861 L81.2853551226,439.479886864 L87.2250157134,442.449717159 L91.2947831552,440.359836581 L91.7347580138,442.889692018 L91.4047768699,444.429604023 L89.204902577,447.949402891 L85.9050911376,448.279384035 L85.6851037084,448.939346323 L86.4550597109,449.929289755 L86.8950345695,450.699245757 L87.0050282841,451.579195475 L86.3450659962,451.46920176 L84.9151477058,451.909176618 Z" fill="#cee3f5" id="YE.HU" stroke="#6e6e6e" stroke-width="0.4"><desc><labelrank>7</labelrank><code_hasc>YE.HU</code_hasc><name>Al Hudaydah</name><admin>Yemen</admin><type_en>Governorate</type_en><region /><woe_id>20070047</woe_id><longitude>43</longitude><woe_name>Al Hudaydah</woe_name><fips>YM08</fips><woe_label>Al Hudaydah, YE, Yemen</woe_label><latitude>14</latitude><iso_a2>YE</iso_a2><postal>HU</postal><type>Muhafazah</type><id>YE.HU</id></desc></path><path d="M102.184160905,360.394406034 L100.204274041,366.334066625 L90.6348208674,373.373664362 L87.0050282841,374.03362665 L82.8252671276,376.783469516 L81.3953488372,379.533312382 L81.6153362665,382.393148963 L81.0653676933,383.823067253 L80.4054054054,384.373035827 L78.975487115,386.682903834 L77.5455688246,385.912947832 L75.7856693903,384.263042112 L75.0157133878,382.943117536 L74.3557510999,381.293211816 L73.2558139535,379.313324953 L72.5958516656,377.663419233 L72.155876807,376.673475801 L69.8460087995,376.013513514 L67.206159648,373.923632935 L65.666247643,371.613764928 L65.5562539283,370.073852923 L65.3362664991,368.753928347 L65.4462602137,365.234129478 L64.7862979258,359.844437461 L77.6555625393,357.864550597 L86.5650534255,359.074481458 L91.8447517285,358.744500314 L95.3645505971,356.98460088 L102.184160905,360.394406034 Z" fill="#cee3f5" id="YE.MW" stroke="#6e6e6e" stroke-width="0.4"><desc><labelrank>6</labelrank><code_hasc>YE.MW</code_hasc><name>Al Mahwit</name><admin>Yemen</admin><type_en>Governorate</type_en><region /><woe_id>20070046</woe_id><longitude>43</longitude><woe_name>Al Mahwit</woe_name><fips>YM10</fips><woe_label>Al Mahwit, YE, Yemen</woe_label><latitude>15</latitude><iso_a2>YE</iso_a2><postal>MW</postal><type>Muhafazah</type><id>YE.MW</id></desc></path><path d="M151.461345066,403.511942175 L147.171590195,408.681646763 L144.751728473,422.430861094 L143.321810182,425.18070396 L139.362036455,428.040540541 L138.042111879,431.120364551 L136.942174733,431.560339409 L122.532998114,425.510685104 L116.923318668,421.440917662 L114.503456945,425.290697674 L110.433689503,425.950659962 L108.45380264,421.990886235 L103.284098052,426.720615965 L100.6442489,427.600565682 L101.194217473,432.110307982 L99.6543054683,434.970144563 L95.9145191703,435.520113136 L95.1445631678,432.77027027 L93.9346323067,434.970144563 L91.2947831552,440.359836581 L87.2250157134,442.449717159 L81.2853551226,439.479886864 L79.9654305468,438.709930861 L79.0854808297,437.829981144 L78.3155248272,435.960087995 L76.4456316782,426.060653677 L76.8856065368,425.290697674 L77.9855436832,425.290697674 L80.1854179761,425.070710245 L87.1150219987,420.45097423 L93.2746700189,420.560967945 L97.56442489,417.811125079 L101.304211188,413.851351351 L101.304211188,411.431489629 L93.7146448774,400.982086738 L93.0546825896,398.012256442 L99.8742928975,396.912319296 L110.323695789,390.312696417 L113.623507228,389.872721559 L118.573224387,393.392520427 L122.862979258,394.382463859 L124.512884978,393.832495286 L126.052796983,390.862664991 L131.332495286,393.392520427 L134.852294155,391.852608422 L138.372093023,388.00282841 L143.871778755,388.00282841 L146.731615336,391.192646135 L151.461345066,403.511942175 Z" fill="#cee3f5" id="YE.DH" stroke="#6e6e6e" stroke-width="0.4"><desc><labelrank>7</labelrank><code_hasc>YE.DH</code_hasc><name>Dhamar</name><admin>Yemen</admin><type_en>Governorate</type_en><region /><woe_id>20070044</woe_id><longitude>44</longitude><woe_name>Dhamar</woe_name><fips>YM11</fips><woe_label>Dhamar, YE, Yemen</woe_label><latitude>14</latitude><iso_a2>YE</iso_a2><postal>DH</postal><type>Muhafazah</type><id>YE.DH</id></desc></path><path d="M81.1753614079,296.708045255 L81.5053425519,319.476744186 L84.1451917033,322.226587052 L84.255185418,326.626335638 L86.4550597109,331.136077938 L84.0351979887,334.765870522 L85.3551225644,335.315839095 L87.9949717159,332.675989943 L89.3148962916,333.555939661 L91.1847894406,337.955688246 L91.5147705845,345.985229415 L92.8346951603,347.305153991 L91.6247642992,351.704902577 L87.5549968573,352.584852294 L87.7749842866,356.874607165 L86.5650534255,359.074481458 L77.6555625393,357.864550597 L64.7862979258,359.844437461 L64.0163419233,354.784726587 L64.7862979258,350.164990572 L64.126335638,348.295097423 L64.126335638,347.195160277 L65.3362664991,344.005342552 L64.7862979258,340.595537398 L63.3563796354,339.495600251 L57.6367064739,339.825581395 L55.436832181,340.375549969 L54.6668761785,340.925518542 L53.3469516028,341.58548083 L51.0370835952,341.3654934 L47.2972972973,341.805468259 L38.2778126964,336.305782527 L38.2778126964,336.305782527 L38.717787555,325.746385921 L36.0779384035,310.017284727 L42.127592709,307.26744186 L42.5675675676,303.857636706 L49.8271527341,300.667818982 L52.5769956003,292.858265242 L56.976744186,293.51822753 L58.1866750471,292.198302954 L69.6260213702,296.158076681 L81.1753614079,296.708045255 Z" fill="#cee3f5" id="YE.HJ" stroke="#6e6e6e" stroke-width="0.4"><desc><labelrank>7</labelrank><code_hasc>YE.HJ</code_hasc><name>Hajjah</name><admin>Yemen</admin><type_en>Governorate</type_en><region /><woe_id>20070048</woe_id><longitude>43</longitude><woe_name>Hajjah</woe_name><fips>YM22</fips><woe_label>Hajjah, YE, Yemen</woe_label><latitude>16</latitude><iso_a2>YE</iso_a2><postal>HJ</postal><type>Muhafazah</type><id>YE.HJ</id></desc></path><path d="M113.843494657,295.608108108 L121.543054683,301.217787555 L121.103079824,304.737586424 L123.632935261,311.447203017 L124.072910119,317.056882464 L122.862979258,320.686675047 L123.742928975,325.636392206 L126.822752986,330.366121936 L123.85292269,330.586109365 L117.363293526,333.445945946 L116.26335638,336.195788812 L117.253299811,343.345380264 L113.073538655,348.735072282 L112.413576367,353.794783155 L107.463859208,357.204588309 L103.504085481,357.204588309 L102.184160905,360.394406034 L95.3645505971,356.98460088 L91.8447517285,358.744500314 L86.5650534255,359.074481458 L87.7749842866,356.874607165 L87.5549968573,352.584852294 L91.6247642992,351.704902577 L92.8346951603,347.305153991 L91.5147705845,345.985229415 L91.1847894406,337.955688246 L89.3148962916,333.555939661 L87.9949717159,332.675989943 L85.3551225644,335.315839095 L84.0351979887,334.765870522 L86.4550597109,331.136077938 L84.255185418,326.626335638 L84.1451917033,322.226587052 L81.5053425519,319.476744186 L81.1753614079,296.708045255 L93.2746700189,292.748271527 L107.463859208,296.708045255 L113.843494657,295.608108108 Z" fill="#cee3f5" id="YE.AM" stroke="#6e6e6e" stroke-width="0.4"><desc><labelrank>6</labelrank><code_hasc>YE.AM</code_hasc><name>Amran</name><admin>Yemen</admin><type_en>Governorate</type_en><region /><woe_id>56189859</woe_id><longitude>44</longitude><woe_name /><fips>YM00</fips><woe_label /><latitude>16</latitude><iso_a2>YE</iso_a2><postal>AM</postal><type>Muhafazah</type><id>YE.AM</id></desc></path><path d="M138.042111879,431.120364551 L139.912005028,432.330295412 L140.351979887,436.400062854 L142.991829038,437.719987429 L142.441860465,439.589880578 L138.702074167,440.799811439 L137.162162162,443.65964802 L137.602137021,448.169390321 L131.222501571,450.149277184 L129.792583281,454.329038341 L127.922690132,454.989000629 L126.162790698,457.848837209 L125.50282841,460.70867379 L124.182903834,462.468573224 L121.983029541,463.898491515 L120.663104965,464.118478944 L100.534255185,458.288812068 L100.424261471,455.758956631 L97.0144563168,456.418918919 L96.2445003143,453.889063482 L86.4550597109,454.879006914 L84.9151477058,451.909176618 L86.3450659962,451.46920176 L87.0050282841,451.579195475 L86.8950345695,450.699245757 L86.4550597109,449.929289755 L85.6851037084,448.939346323 L85.9050911376,448.279384035 L89.204902577,447.949402891 L91.4047768699,444.429604023 L91.2947831552,440.359836581 L93.9346323067,434.970144563 L95.1445631678,432.77027027 L95.9145191703,435.520113136 L99.6543054683,434.970144563 L101.194217473,432.110307982 L100.6442489,427.600565682 L103.284098052,426.720615965 L108.45380264,421.990886235 L110.433689503,425.950659962 L114.503456945,425.290697674 L116.923318668,421.440917662 L122.532998114,425.510685104 L136.942174733,431.560339409 L138.042111879,431.120364551 Z" fill="#cee3f5" id="YE.IB" stroke="#6e6e6e" stroke-width="0.4"><desc><labelrank>7</labelrank><code_hasc>YE.IB</code_hasc><name>Ibb</name><admin>Yemen</admin><type_en>Governorate</type_en><region /><woe_id>20070042</woe_id><longitude>44</longitude><woe_name>Ibb</woe_name><fips>YM23</fips><woe_label>Ibb, YE, Yemen</woe_label><latitude>14</latitude><iso_a2>YE</iso_a2><postal>IB</postal><type>Muhafazah</type><id>YE.IB</id></desc></path><path d="M181.599622879,453.009113765 L179.5097423,453.559082338 L178.959773727,458.288812068 L174.560025141,460.378692646 L174.120050283,464.008485229 L170.930232558,466.208359522 L171.810182275,467.308296669 L175.879949717,468.408233815 L170.710245129,475.117850409 L170.710245129,479.077624136 L173.130106851,481.827467002 L169.940289126,485.017284727 L166.200502828,495.136706474 L164.440603394,508.225958517 L164.11062225,508.885920805 L137.272155877,513.945631678 L132.212445003,515.815524827 L129.682589566,517.355436832 L125.722815839,523.295097423 L125.282840981,522.635135135 L113.18353237,526.374921433 L110.10370836,525.274984287 L113.073538655,525.604965431 L113.18353237,524.065053426 L110.983658077,524.285040855 L105.813953488,526.814896292 L99.3243243243,527.584852294 L96.3544940289,524.395034569 L80.2954116908,518.455373979 L79.0854808297,518.675361408 L75.895663105,521.865179133 L75.895663105,521.865179133 L77.8755499686,517.685417976 L82.2752985544,511.085795097 L85.4651162791,507.895977373 L87.4450031427,504.926147077 L87.0050282841,501.076367065 L87.7749842866,500.526398492 L89.7548711502,500.306411062 L94.7045883092,497.776555625 L97.8944060339,498.766499057 L102.514142049,501.626335638 L103.614079195,501.736329353 L103.944060339,500.856379635 L103.72407291,497.996543055 L104.054054054,497.666561911 L106.253928347,498.986486486 L107.683846637,499.206473916 L108.233815211,498.546511628 L108.45380264,497.336580767 L109.113764928,496.23664362 L109.773727216,496.016656191 L110.983658077,495.906662476 L111.643620365,495.466687618 L111.643620365,494.696731615 L111.643620365,493.706788184 L112.083595223,493.15681961 L112.853551226,492.716844752 L113.513513514,491.396920176 L115.933375236,491.836895035 L118.353236958,491.72690132 L121.323067253,491.066939032 L122.532998114,490.0769956 L122.862979258,488.757071025 L122.20301697,484.137335009 L122.4230044,483.367379007 L123.742928975,483.037397863 L127.372721559,482.927404148 L127.922690132,482.26744186 L127.152734129,480.507542426 L123.742928975,479.40760528 L123.302954117,478.527655563 L123.742928975,477.647705845 L127.262727844,476.437774984 L127.592708988,476.10779384 L127.812696417,474.897862979 L130.23255814,474.237900691 L132.102451288,472.587994972 L132.542426147,471.378064111 L134.852294155,472.148020113 L137.932118165,474.787869265 L147.06159648,469.94814582 L150.581395349,470.608108108 L150.801382778,463.7884978 L158.610936518,461.478629793 L163.450659962,458.728786926 L165.540540541,456.858893777 L168.950345695,449.049340038 L173.130106851,449.269327467 L180.389692018,445.199560025 L181.929604023,448.609365179 L181.599622879,453.009113765 Z" fill="#cee3f5" id="YE.LA" stroke="#6e6e6e" stroke-width="0.4"><desc><labelrank>7</labelrank><code_hasc>YE.LA</code_hasc><name>Lahij</name><admin>Yemen</admin><type_en>Governorate</type_en><region /><woe_id>20070040</woe_id><longitude>44</longitude><woe_name>Lahij</woe_name><fips>YM24</fips><woe_label>Lahij, YE, Yemen</woe_label><latitude>13</latitude><iso_a2>YE</iso_a2><postal>LA</postal><type>Muhafazah</type><id>YE.LA</id></desc></path><path d="M71.1659333752,524.285040855 L70.5059710874,525.494971716 L67.8661219359,523.515084852 L70.0659962288,523.075109994 L71.1659333752,524.285040855 M62.3664362036,465.988372093 L66.4362036455,462.688560654 L71.3859208045,461.368636078 L76.8856065368,453.999057197 L84.9151477058,451.909176618 L86.4550597109,454.879006914 L96.2445003143,453.889063482 L97.0144563168,456.418918919 L100.424261471,455.758956631 L100.534255185,458.288812068 L120.663104965,464.118478944 L125.50282841,460.70867379 L126.492771842,462.35857951 L126.712759271,463.678504085 L125.832809554,467.528284098 L132.102451288,469.398177247 L132.542426147,471.378064111 L132.102451288,472.587994972 L131.332495286,472.917976116 L130.23255814,474.237900691 L127.812696417,474.897862979 L127.592708988,475.227844123 L127.592708988,476.10779384 L127.262727844,476.437774984 L125.612822124,476.657762414 L123.742928975,477.647705845 L123.302954117,478.527655563 L123.742928975,479.40760528 L127.152734129,480.507542426 L127.922690132,482.26744186 L127.372721559,482.927404148 L123.742928975,483.037397863 L122.4230044,483.367379007 L122.20301697,484.137335009 L122.862979258,488.757071025 L122.532998114,490.0769956 L121.323067253,491.066939032 L113.513513514,491.396920176 L112.853551226,492.716844752 L112.083595223,493.15681961 L111.643620365,493.706788184 L111.643620365,495.466687618 L110.983658077,495.906662476 L109.773727216,496.016656191 L109.113764928,496.23664362 L108.45380264,497.336580767 L108.233815211,498.546511628 L107.683846637,499.206473916 L106.253928347,498.986486486 L104.054054054,497.666561911 L103.72407291,497.996543055 L103.944060339,500.856379635 L103.614079195,501.736329353 L102.514142049,501.626335638 L97.8944060339,498.766499057 L94.7045883092,497.776555625 L89.7548711502,500.306411062 L87.7749842866,500.526398492 L87.0050282841,501.076367065 L87.664990572,503.716216216 L87.4450031427,504.926147077 L85.4651162791,507.895977373 L82.2752985544,511.085795097 L77.8755499686,517.685417976 L75.895663105,521.865179133 L75.565681961,522.085166562 L74.7957259585,522.52514142 L71.9358893777,521.975172847 L73.0358265242,517.355436832 L72.7058453803,513.175675676 L68.6360779384,507.565996229 L67.8661219359,503.826209931 L63.4663733501,496.23664362 L60.1665619107,491.946888749 L58.846637335,487.877121307 L60.1665619107,484.137335009 L60.6065367693,473.907919547 L62.9164047769,470.498114393 L62.3664362036,465.988372093 Z" fill="#cee3f5" id="YE.TA" stroke="#6e6e6e" stroke-width="0.4"><desc><labelrank>7</labelrank><code_hasc>YE.TA</code_hasc><name>Ta`izz</name><admin>Yemen</admin><type_en>Governorate</type_en><region /><woe_id>20070041</woe_id><longitude>43</longitude><woe_name>Ta`izz</woe_name><fips>YM25</fips><woe_label>Ta`izz, YE, Yemen</woe_label><latitude>13</latitude><iso_a2>YE</iso_a2><postal>TA</postal><type>Muhafazah</type><id>YE.TA</id></desc></path><path d="M608.705216845,285.928661219 L604.965430547,287.35857951 L602.875549969,287.028598366 L595.505971087,291.428346952 L578.016970459,298.467944689 L566.357636706,307.927404148 L561.187932118,315.626964173 L561.407919547,318.37680704 L557.888120679,326.076367065 L559.758013828,329.706159648 L559.208045255,332.12602137 L561.957888121,333.885920805 L562.067881835,341.3654934 L563.497800126,344.775298554 L562.947831552,346.865179133 L545.12884978,353.684789441 L543.038969202,355.114707731 L542.598994343,357.534569453 L540.509113765,356.544626021 L536.659333752,357.974544312 L531.599622879,361.274355751 L532.149591452,364.244186047 L524.010056568,365.784098052 L520.930232558,368.533940918 L509.60087995,372.933689503 L483.642363294,379.643306097 L483.532369579,379.313324953 L483.422375864,378.213387806 L481.882463859,375.353551226 L481.332495286,373.923632935 L480.23255814,371.723758642 L477.812696417,369.743871779 L470.993086109,368.423947203 L457.463859208,370.183846637 L453.944060339,369.083909491 L453.064110622,368.093966059 L452.624135764,367.104022627 L452.734129478,365.014142049 L456.583909491,359.404462602 L456.80389692,357.094594595 L455.923947203,355.444688875 L450.204274041,354.234758014 L448.554368322,350.934946574 L450.314267756,336.8557511 L454.164047769,328.166247643 L453.064110622,324.646448774 L450.204274041,322.116593338 L450.204274041,319.916719045 L454.164047769,303.087680704 L453.614079195,300.997800126 L452.954116908,299.787869265 L452.844123193,298.577938404 L453.72407291,296.268070396 L454.824010057,294.728158391 L456.143934632,293.628221245 L458.45380264,292.088309239 L468.133249529,287.688560654 L472.532998114,284.608736644 L476.712759271,279.439032055 L498.491514771,260.300125707 L505.421118793,249.410747957 L511.690760528,234.011627907 L516.310496543,217.402576996 L519.170333124,199.913576367 L527.749842866,175.714959145 L541.939032055,152.946260214 L541.939032055,152.946260214 L586.596480201,248.750785669 L591.106222502,250.290697674 L608.705216845,285.928661219 Z" fill="#cee3f5" id="YE.MR" stroke="#6e6e6e" stroke-width="0.4"><desc><labelrank>6</labelrank><code_hasc>YE.MR</code_hasc><name>Al Mahrah</name><admin>Yemen</admin><type_en>Governorate</type_en><region /><woe_id>20070032</woe_id><longitude>51</longitude><woe_name>Al Mahrah</woe_name><fips>YM03</fips><woe_label /><latitude>16</latitude><iso_a2>YE</iso_a2><postal>MR</postal><type>Muhafazah</type><id>YE.MR</id></desc></path><path d="M190.61910748,407.361722187 L196.888749214,407.361722187 L199.198617222,408.791640478 L197.768698931,413.631363922 L202.498428661,416.161219359 L207.008170962,426.500628536 L215.037712131,430.020427404 L216.137649277,434.750157134 L217.347580138,435.85009428 L216.577624136,440.689817725 L214.157762414,445.529541169 L200.188560654,455.97894406 L194.578881207,457.188874921 L190.069138906,453.999057197 L181.599622879,453.009113765 L181.929604023,448.609365179 L180.389692018,445.199560025 L173.130106851,449.269327467 L168.950345695,449.049340038 L168.620364551,446.189503457 L159.270898806,435.300125707 L153.551225644,434.310182275 L142.991829038,437.719987429 L140.351979887,436.400062854 L139.912005028,432.330295412 L138.042111879,431.120364551 L139.362036455,428.040540541 L143.321810182,425.18070396 L144.751728473,422.430861094 L147.171590195,408.681646763 L151.461345066,403.511942175 L156.741043369,402.192017599 L159.160905091,400.212130735 L162.130735387,400.762099309 L164.770584538,402.851979887 L166.860465116,415.391263356 L169.060339409,418.361093652 L170.820238843,418.471087366 L174.670018856,415.7212445 L176.979886864,416.271213074 L177.529855437,414.511313639 L182.039597737,412.86140792 L187.649277184,412.971401634 L186.769327467,409.341609051 L187.209302326,408.681646763 L189.849151477,409.781583909 L190.61910748,407.361722187 Z" fill="#cee3f5" id="YE.BA" stroke="#6e6e6e" stroke-width="0.4"><desc><labelrank>7</labelrank><code_hasc>YE.BA</code_hasc><name>Al Bayda'</name><admin>Yemen</admin><type_en>Governorate</type_en><region /><woe_id>20070043</woe_id><longitude>45</longitude><woe_name>Al Bayda'</woe_name><fips>YM20</fips><woe_label>Al Bayda´, YE, Yemen</woe_label><latitude>14</latitude><iso_a2>YE</iso_a2><postal>BA</postal><type>Muhafazah</type><id>YE.BA</id></desc></path><path d="M168.950345695,449.049340038 L165.540540541,456.858893777 L163.450659962,458.728786926 L158.610936518,461.478629793 L150.801382778,463.7884978 L150.581395349,470.608108108 L147.06159648,469.94814582 L137.932118165,474.787869265 L134.852294155,472.148020113 L132.542426147,471.378064111 L132.102451288,469.398177247 L125.832809554,467.528284098 L126.712759271,463.678504085 L125.50282841,460.70867379 L126.162790698,457.848837209 L127.922690132,454.989000629 L129.792583281,454.329038341 L131.222501571,450.149277184 L137.602137021,448.169390321 L137.162162162,443.65964802 L138.702074167,440.799811439 L142.441860465,439.589880578 L142.991829038,437.719987429 L153.551225644,434.310182275 L159.270898806,435.300125707 L168.620364551,446.189503457 L168.950345695,449.049340038 Z" fill="#cee3f5" id="YE.DL" stroke="#6e6e6e" stroke-width="0.4"><desc><labelrank>6</labelrank><code_hasc>YE.DL</code_hasc><name>Al Dali'</name><admin>Yemen</admin><type_en>Governorate</type_en><region /><woe_id>-20070040</woe_id><longitude>44</longitude><woe_name /><fips>YM00</fips><woe_label /><latitude>13</latitude><iso_a2>YE</iso_a2><postal>DL</postal><type>Muhafazah</type><id>YE.DL</id></desc></path><path d="M260.685103708,322.996543055 L214.157762414,331.906033941 L197.328724073,337.845694532 L190.289126336,344.005342552 L183.799497172,344.66530484 L172.140163419,342.795411691 L158.720930233,335.755813953 L139.912005028,331.356065368 L136.282212445,329.04619736 L131.552482715,328.716216216 L126.822752986,330.366121936 L123.742928975,325.636392206 L122.862979258,320.686675047 L124.072910119,317.056882464 L123.632935261,311.447203017 L121.103079824,304.737586424 L121.543054683,301.217787555 L113.843494657,295.608108108 L117.143306097,287.578566939 L125.612822124,282.298868636 L130.672532998,275.699245757 L141.011942175,270.969516028 L151.461345066,270.419547454 L156.081081081,268.109679447 L157.291011942,249.740729101 L171.040226273,250.510685104 L182.58956631,256.560339409 L208.108108108,259.090194846 L231.976744186,261.400062854 L253.315524827,258.210245129 L255.405405405,259.42017599 L267.944688875,276.46920176 L268.604651163,276.909176618 L269.374607165,276.909176618 L272.014456317,311.557196732 L260.685103708,322.996543055 Z" fill="#cee3f5" id="YE.JA" stroke="#6e6e6e" stroke-width="0.4"><desc><labelrank>6</labelrank><code_hasc>YE.JA</code_hasc><name>Al Jawf</name><admin>Yemen</admin><type_en>Governorate</type_en><region /><woe_id>20070039</woe_id><longitude>45</longitude><woe_name>Al Jawf</woe_name><fips>YM21</fips><woe_label /><latitude>16</latitude><iso_a2>YE</iso_a2><postal>JA</postal><type>Muhafazah</type><id>YE.JA</id></desc></path><path d="M289.61345066,467.528284098 L286.643620365,455.318981772 L283.673790069,449.269327467 L285.653676933,445.419547454 L285.433689503,440.909805154 L284.663733501,438.489943432 L282.683846637,437.170018856 L274.874292898,436.950031427 L263.434946574,434.310182275 L242.536140792,439.589880578 L237.146448774,429.470458831 L222.517284727,435.410119422 L217.347580138,435.85009428 L216.137649277,434.750157134 L215.037712131,430.020427404 L207.008170962,426.500628536 L202.498428661,416.161219359 L197.768698931,413.631363922 L199.198617222,408.791640478 L196.888749214,407.361722187 L190.61910748,407.361722187 L188.199245757,404.281898177 L188.859208045,396.692331867 L193.148962916,386.022941546 L200.848522942,379.533312382 L233.516656191,356.434632307 L312.052168448,349.725015713 L317.111879321,351.374921433 L317.881835324,353.244814582 L307.102451288,370.403834067 L304.902576996,378.76335638 L304.792583281,381.84318039 L308.642363294,386.35292269 L308.642363294,388.00282841 L307.872407291,389.762727844 L298.85292269,397.572281584 L297.532998114,399.222187304 L297.972972973,400.652105594 L312.602137021,411.541483344 L329.761156505,415.171275927 L334.820867379,423.750785669 L337.570710245,426.500628536 L341.750471402,428.480515399 L349.780012571,428.590509114 L354.619736015,429.800439975 L359.789440603,432.110307982 L361.879321182,434.750157134 L362.869264613,437.829981144 L364.519170333,440.57982401 L364.959145192,441.679761157 L365.069138906,442.449717159 L365.179132621,442.889692018 L359.129478316,442.889692018 L353.739786298,446.299497172 L352.639849151,444.979572596 L346.370207417,444.759585167 L346.810182275,445.529541169 L338.010685104,447.619421747 L338.230672533,446.189503457 L335.260842238,444.099622879 L328.2212445,442.669704588 L323.491514771,444.319610308 L319.861722187,448.279384035 L307.542426147,453.559082338 L295.883092395,464.888434947 L289.61345066,467.528284098 Z" fill="#cee3f5" id="YE.SH" stroke="#6e6e6e" stroke-width="0.4"><desc><labelrank>6</labelrank><code_hasc>YE.SH</code_hasc><name>Shabwah</name><admin>Yemen</admin><type_en>Governorate</type_en><region /><woe_id>20070034</woe_id><longitude>47</longitude><woe_name>Shabwah</woe_name><fips>YM05</fips><woe_label>Shabwah, YE, Yemen</woe_label><latitude>14</latitude><iso_a2>YE</iso_a2><postal>SH</postal><type>Muhafazah</type><id>YE.SH</id></desc></path><path d="M233.516656191,356.434632307 L200.848522942,379.533312382 L193.148962916,386.022941546 L188.859208045,396.692331867 L188.199245757,404.281898177 L190.61910748,407.361722187 L189.849151477,409.781583909 L187.209302326,408.681646763 L186.769327467,409.341609051 L187.649277184,412.971401634 L182.039597737,412.86140792 L177.529855437,414.511313639 L176.979886864,416.271213074 L174.670018856,415.7212445 L170.820238843,418.471087366 L169.060339409,418.361093652 L166.860465116,415.391263356 L164.770584538,402.851979887 L162.130735387,400.762099309 L159.160905091,400.212130735 L158.830923947,393.502514142 L162.900691389,386.682903834 L167.41043369,383.27309868 L167.960402263,377.773412948 L166.310496543,374.693588938 L160.150848523,373.263670647 L154.431175361,367.983972344 L152.561282212,367.543997486 L150.031426776,370.623821496 L148.161533627,371.173790069 L142.55185418,366.554054054 L139.142049026,365.674104337 L138.812067882,364.79415462 L146.621621622,359.074481458 L149.261470773,355.224701446 L144.421747329,348.735072282 L142.661847894,336.8557511 L139.912005028,331.356065368 L158.720930233,335.755813953 L172.140163419,342.795411691 L183.799497172,344.66530484 L190.289126336,344.005342552 L197.328724073,337.845694532 L214.157762414,331.906033941 L260.685103708,322.996543055 L233.516656191,356.434632307 Z" fill="#cee3f5" id="YE.MA" stroke="#6e6e6e" stroke-width="0.4"><desc><labelrank>7</labelrank><code_hasc>YE.MA</code_hasc><name>Ma'rib</name><admin>Yemen</admin><type_en>Governorate</type_en><region /><woe_id>20070037</woe_id><longitude>45</longitude><woe_name>Ma'rib</woe_name><fips>YM14</fips><woe_label>Ma´rib, YE, Yemen</woe_label><latitude>15</latitude><iso_a2>YE</iso_a2><postal>MA</postal><type>Muhafazah</type><id>YE.MA</id></desc></path><path d="M139.912005028,331.356065368 L142.661847894,336.8557511 L144.421747329,348.735072282 L149.261470773,355.224701446 L146.621621622,359.074481458 L138.812067882,364.79415462 L139.142049026,365.674104337 L142.55185418,366.554054054 L148.161533627,371.173790069 L150.031426776,370.623821496 L152.561282212,367.543997486 L154.431175361,367.983972344 L160.150848523,373.263670647 L166.310496543,374.693588938 L167.960402263,377.773412948 L167.41043369,383.27309868 L162.900691389,386.682903834 L158.830923947,393.502514142 L159.160905091,400.212130735 L156.741043369,402.192017599 L151.461345066,403.511942175 L146.731615336,391.192646135 L143.871778755,388.00282841 L138.372093023,388.00282841 L134.852294155,391.852608422 L131.332495286,393.392520427 L126.052796983,390.862664991 L124.512884978,393.832495286 L122.862979258,394.382463859 L118.573224387,393.392520427 L113.623507228,389.872721559 L110.323695789,390.312696417 L99.8742928975,396.912319296 L93.0546825896,398.012256442 L87.5549968573,396.252357008 L86.2350722816,393.172532998 L87.1150219987,391.852608422 L87.4450031427,391.522627278 L87.5549968573,390.862664991 L86.1250785669,389.652734129 L82.4952859837,389.4327467 L80.7353865493,388.442803268 L78.975487115,386.682903834 L80.4054054054,384.373035827 L81.0653676933,383.823067253 L81.6153362665,382.393148963 L81.3953488372,379.533312382 L82.8252671276,376.783469516 L87.0050282841,374.03362665 L90.6348208674,373.373664362 L100.204274041,366.334066625 L102.184160905,360.394406034 L103.504085481,357.204588309 L107.463859208,357.204588309 L112.413576367,353.794783155 L113.073538655,348.735072282 L117.253299811,343.345380264 L116.26335638,336.195788812 L117.363293526,333.445945946 L123.85292269,330.586109365 L126.822752986,330.366121936 L131.552482715,328.716216216 L136.282212445,329.04619736 L139.912005028,331.356065368 Z" fill="#cee3f5" id="YE.SN" stroke="#6e6e6e" stroke-width="0.4"><desc><labelrank>6</labelrank><code_hasc>YE.SN</code_hasc><name>Sana'a</name><admin>Yemen</admin><type_en>Governorate</type_en><region /><woe_id>20070045</woe_id><longitude>44</longitude><woe_name>Sana'a</woe_name><fips>YM16</fips><woe_label>San`a´, YE, Yemen</woe_label><latitude>15</latitude><iso_a2>YE</iso_a2><postal /><type>Muhafazah</type><id>YE.SN</id></desc></path><path d="M614.97485858,544.963859208 L617.504714016,545.733815211 L617.724701446,547.493714645 L616.074795726,547.933689503 L611.895034569,546.063796354 L614.97485858,544.963859208 M565.807668133,544.30389692 L573.947203017,545.623821496 L577.906976744,544.963859208 L576.917033312,546.503771213 L577.906976744,547.823695789 L569.437460717,547.60370836 L568.447517285,546.173790069 L566.027655563,546.723758642 L564.927718416,545.293840352 L562.067881835,545.293840352 L559.318038969,543.313953488 L562.397862979,542.87397863 L565.807668133,544.30389692 M644.563167819,513.50565682 L649.182903834,513.395663105 L655.452545569,518.125392835 L660.292269013,519.115336266 L661.832181018,516.255499686 L669.421747329,516.035512256 L675.691389063,512.625707102 L678.551225644,514.605593966 L680.091137649,513.945631678 L696.040226273,521.09522313 L700.0,520.545254557 L695.380263985,522.52514142 L694.720301697,524.615021999 L692.300439975,525.714959145 L683.390949089,527.914833438 L677.561282212,532.974544312 L672.281583909,533.084538026 L670.081709617,534.514456317 L667.881835324,533.854494029 L654.242614708,536.71433061 L650.942803268,536.49434318 L645.113136392,534.954431175 L641.153362665,530.33469516 L629.604022627,523.405091138 L634.223758642,522.195160277 L634.443746072,516.58548083 L638.623507228,515.595537398 L640.273412948,513.175675676 L644.563167819,513.50565682 M498.491514771,260.300125707 L476.712759271,279.439032055 L472.532998114,284.608736644 L468.133249529,287.688560654 L458.45380264,292.088309239 L456.143934632,293.628221245 L454.824010057,294.728158391 L453.72407291,296.268070396 L452.844123193,298.577938404 L452.954116908,299.787869265 L453.614079195,300.997800126 L454.164047769,303.087680704 L450.204274041,319.916719045 L450.204274041,322.116593338 L453.064110622,324.646448774 L454.164047769,328.166247643 L450.314267756,336.8557511 L448.554368322,350.934946574 L450.204274041,354.234758014 L455.923947203,355.444688875 L456.80389692,357.094594595 L456.583909491,359.404462602 L452.734129478,365.014142049 L452.624135764,367.104022627 L453.944060339,369.083909491 L457.463859208,370.183846637 L470.993086109,368.423947203 L477.812696417,369.743871779 L480.23255814,371.723758642 L481.332495286,373.923632935 L481.882463859,375.353551226 L483.422375864,378.213387806 L483.532369579,379.313324953 L483.642363294,379.643306097 L475.722815839,382.063167819 L469.673161534,382.833123821 L464.393463231,385.142991829 L458.893777498,389.762727844 L448.884349466,395.152419862 L447.014456317,394.822438718 L441.184789441,396.802325581 L440.524827153,394.932432432 L435.575109994,395.702388435 L415.336266499,402.082023884 L395.867379007,411.761470773 L393.777498429,413.301382778 L393.33752357,415.171275927 L389.487743558,414.511313639 L384.758013828,420.010999371 L383.438089252,426.390634821 L377.058453803,430.790383407 L375.188560654,435.630106851 L372.108736644,437.280012571 L366.499057197,442.889692018 L365.179132621,442.889692018 L365.069138906,442.449717159 L364.959145192,441.679761157 L364.519170333,440.57982401 L361.879321182,434.750157134 L359.789440603,432.110307982 L354.619736015,429.800439975 L349.780012571,428.590509114 L341.750471402,428.480515399 L337.570710245,426.500628536 L334.820867379,423.750785669 L329.761156505,415.171275927 L312.602137021,411.541483344 L297.972972973,400.652105594 L297.532998114,399.222187304 L298.85292269,397.572281584 L307.872407291,389.762727844 L308.642363294,388.00282841 L308.642363294,386.35292269 L304.792583281,381.84318039 L304.902576996,378.76335638 L307.102451288,370.403834067 L317.881835324,353.244814582 L317.111879321,351.374921433 L312.052168448,349.725015713 L233.516656191,356.434632307 L260.685103708,322.996543055 L272.014456317,311.557196732 L269.374607165,276.909176618 L278.504085481,276.909176618 L293.133249529,268.329666876 L294.783155248,266.129792583 L301.822752986,246.88089252 L334.050911376,205.963230673 L385.417976116,179.124764299 L462.743557511,166.035512256 L541.499057197,152.066310497 L541.939032055,152.946260214 L541.939032055,152.946260214 L527.749842866,175.714959145 L519.170333124,199.913576367 L516.310496543,217.402576996 L511.690760528,234.011627907 L505.421118793,249.410747957 L498.491514771,260.300125707 Z" fill="#cee3f5" id="YE.HD" stroke="#6e6e6e" stroke-width="0.4"><desc><labelrank>6</labelrank><code_hasc>YE.HD</code_hasc><name>Hadramawt</name><admin>Yemen</admin><type_en>Governorate</type_en><region /><woe_id>20070033</woe_id><longitude>48</longitude><woe_name>Hadramawt</woe_name><fips>YM04</fips><woe_label>Hadramawt, YE, Yemen</woe_label><latitude>16</latitude><iso_a2>YE</iso_a2><postal /><type>Muhafazah</type><id>YE.HD</id></desc></path><path d="M113.073538655,372.60370836 L112.853551226,370.513827781 L110.763670647,368.203959774 L112.193588938,365.784098052 L109.88372093,362.704274041 L113.073538655,361.49434318 L114.723444375,357.644563168 L118.793211816,354.894720302 L120.883092395,354.234758014 L122.752985544,355.004714016 L125.282840981,357.864550597 L123.632935261,358.854494029 L122.752985544,357.424575739 L121.653048397,359.624450031 L118.793211816,359.954431175 L118.573224387,362.374292898 L116.04336895,364.79415462 L117.363293526,371.063796354 L116.153362665,372.493714645 L113.073538655,372.60370836 Z" fill="#cee3f5" id="YE.3427" stroke="#6e6e6e" stroke-width="0.4"><desc><labelrank>9</labelrank><code_hasc>YE.</code_hasc><name>Amanat Al Asimah</name><admin>Yemen</admin><type_en>Governorate</type_en><region /><woe_id>56189858</woe_id><longitude>44</longitude><woe_name /><fips /><woe_label /><latitude>15</latitude><iso_a2>YE</iso_a2><postal /><type>Muhafazah</type><id>YE.3427</id></desc></path><path d="M86.2350722816,393.172532998 L87.5549968573,396.252357008 L93.0546825896,398.012256442 L93.7146448774,400.982086738 L101.304211188,411.431489629 L101.304211188,413.851351351 L97.56442489,417.811125079 L93.2746700189,420.560967945 L87.1150219987,420.45097423 L80.1854179761,425.070710245 L77.9855436832,425.290697674 L79.9654305468,422.870835952 L80.1854179761,421.88089252 L80.0754242615,420.340980515 L79.9654305468,419.681018228 L79.1954745443,418.141106223 L79.0854808297,417.261156505 L76.8856065368,411.431489629 L76.7756128221,410.331552483 L76.9956002514,409.341609051 L76.8856065368,406.48177247 L77.5455688246,405.711816468 L77.8755499686,404.721873036 L77.2155876807,400.542111879 L78.0955373979,398.012256442 L82.2752985544,393.062539283 L84.5851665619,393.832495286 L85.4651162791,393.722501571 L86.2350722816,393.172532998 Z" fill="#cee3f5" id="YE.3428" stroke="#6e6e6e" stroke-width="0.4"><desc><labelrank>6</labelrank><code_hasc>YE.</code_hasc><name>Raymah</name><admin>Yemen</admin><type_en>Governorate</type_en><region /><woe_id>-20070045</woe_id><longitude>43</longitude><woe_name /><fips /><woe_label /><latitude>14</latitude><iso_a2>YE</iso_a2><postal /><type>Muhafazah</type><id>YE.3428</id></desc></path><path d="M125.722815839,523.295097423 L129.682589566,517.355436832 L132.212445003,515.815524827 L137.272155877,513.945631678 L164.11062225,508.885920805 L162.130735387,514.495600251 L162.130735387,518.235386549 L159.820867379,518.345380264 L157.620993086,517.025455688 L157.730986801,516.255499686 L160.810810811,515.815524827 L161.250785669,514.825581395 L159.710873664,512.735700817 L158.720930233,514.275612822 L155.641106223,514.055625393 L154.101194217,516.035512256 L151.571338781,515.815524827 L151.571338781,517.795411691 L154.321181647,517.685417976 L152.121307354,520.105279698 L146.731615336,517.685417976 L143.431803897,519.335323696 L141.561910748,515.815524827 L136.832181018,514.93557511 L132.982401006,516.145505971 L125.722815839,523.295097423 Z" fill="#cee3f5" id="YE.AD" stroke="#6e6e6e" stroke-width="0.4"><desc><labelrank>9</labelrank><code_hasc>YE.AD</code_hasc><name>`Adan</name><admin>Yemen</admin><type_en>Governorate</type_en><region /><woe_id>20070035</woe_id><longitude>44</longitude><woe_name>`Adan</woe_name><fips>YM01</fips><woe_label>`Adan, YE, Yemen</woe_label><latitude>12</latitude><iso_a2>YE</iso_a2><postal>AD</postal><type>Muhafazah</type><id>YE.AD</id></desc></path><path d="M289.61345066,467.528284098 L266.40477687,473.467944689 L261.455059711,476.767756128 L253.645505971,479.627592709 L249.135763671,478.857636706 L244.406033941,480.507542426 L232.746700189,480.617536141 L228.346951603,479.297611565 L221.41734758,481.057510999 L204.698302954,482.707416719 L196.338780641,484.797297297 L186.659333752,493.37680704 L181.489629164,500.526398492 L169.720301697,503.826209931 L164.440603394,508.225958517 L166.200502828,495.136706474 L169.940289126,485.017284727 L173.130106851,481.827467002 L170.710245129,479.077624136 L170.710245129,475.117850409 L175.879949717,468.408233815 L171.810182275,467.308296669 L170.930232558,466.208359522 L174.120050283,464.008485229 L174.560025141,460.378692646 L178.959773727,458.288812068 L179.5097423,453.559082338 L181.599622879,453.009113765 L190.069138906,453.999057197 L194.578881207,457.188874921 L200.188560654,455.97894406 L214.157762414,445.529541169 L216.577624136,440.689817725 L217.347580138,435.85009428 L222.517284727,435.410119422 L237.146448774,429.470458831 L242.536140792,439.589880578 L263.434946574,434.310182275 L274.874292898,436.950031427 L282.683846637,437.170018856 L284.663733501,438.489943432 L285.433689503,440.909805154 L285.653676933,445.419547454 L283.673790069,449.269327467 L286.643620365,455.318981772 L289.61345066,467.528284098 Z" fill="#cee3f5" id="YE.3430" stroke="#6e6e6e" stroke-width="0.4"><desc><labelrank>6</labelrank><code_hasc>YE.</code_hasc><name>Abyan</name><admin>Yemen</admin><type_en>Governorate</type_en><region /><woe_id>20070036</woe_id><longitude>46</longitude><woe_name>Abyan</woe_name><fips /><woe_label>Abyan, YE, Yemen</woe_label><latitude>13</latitude><iso_a2>YE</iso_a2><postal /><type>Muhafazah</type><id>YE.3430</id></desc></path></svg>