<?xml version='1.0' encoding='utf-8'?>
<svg height="700" width="700" xmlns="http://www.w3.org/2000/svg"><path d="M400.427350427,641.025641026 L400.534188034,642.841880342 L398.824786325,641.452991453 L400.427350427,641.025641026 M408.226495726,591.773504274 L408.547008547,593.055555556 L407.478632479,590.705128205 L408.226495726,591.773504274 Z" fill="#cee3f5" id="MM.5760" stroke="#6e6e6e" stroke-width="0.4"><desc><labelrank>20</labelrank><code_hasc>-99</code_hasc><name /><admin>Myanmar</admin><type_en /><region /><woe_id>-99</woe_id><longitude>97</longitude><woe_name /><fips /><woe_label /><latitude>9</latitude><iso_a2>MM</iso_a2><postal /><type /><id>MM.5760</id></desc></path><path d="M391.88034188,336.111111111 L388.141025641,342.521367521 L389.636752137,353.205128205 L384.188034188,360.14957265 L386.431623932,362.927350427 L387.393162393,373.076923077 L378.739316239,376.388888889 L375.854700855,376.388888889 L373.824786325,374.145299145 L371.901709402,369.337606838 L364.743589744,368.376068376 L355.128205128,346.260683761 L358.333333333,341.88034188 L357.264957265,338.354700855 L358.760683761,335.256410256 L365.918803419,329.914529915 L367.094017094,320.192307692 L370.512820513,323.824786325 L375.0,321.581196581 L377.02991453,324.252136752 L379.487179487,323.717948718 L382.799145299,331.623931624 L390.811965812,333.226495726 L391.88034188,336.111111111 Z" fill="#cee3f5" id="MM.KH" stroke="#6e6e6e" stroke-width="0.4"><desc><labelrank>7</labelrank><code_hasc>MM.KH</code_hasc><name>Kayah</name><admin>Myanmar</admin><type_en>State</type_en><region /><woe_id>2344815</woe_id><longitude>97</longitude><woe_name>Kayah</woe_name><fips>BM06</fips><woe_label>Kayan State, MM, Myanmar</woe_label><latitude>19</latitude><iso_a2>MM</iso_a2><postal>KH</postal><type>Pyine</type><id>MM.KH</id></desc></path><path d="M355.128205128,346.260683761 L364.743589744,368.376068376 L371.901709402,369.337606838 L373.824786325,374.145299145 L377.884615385,383.867521368 L379.38034188,384.829059829 L380.982905983,382.264957265 L383.226495726,383.333333333 L382.585470085,385.790598291 L387.393162393,395.94017094 L384.508547009,401.175213675 L387.5,406.41025641 L395.726495726,413.782051282 L406.730769231,429.914529915 L411.004273504,431.303418803 L414.316239316,436.431623932 L414.52991453,439.743589744 L412.393162393,442.735042735 L418.696581197,452.457264957 L419.764957265,459.081196581 L426.175213675,452.136752137 L428.418803419,455.555555556 L425.0,465.705128205 L420.405982906,465.064102564 L418.162393162,467.948717949 L415.598290598,468.055555556 L416.88034188,470.726495726 L415.064102564,495.085470085 L412.927350427,492.841880342 L410.042735043,493.91025641 L409.935897436,497.542735043 L406.41025641,496.260683761 L404.05982906,498.717948718 L403.205128205,499.038461538 L403.205128205,499.038461538 L403.205128205,499.038461538 L403.205128205,498.611111111 L403.205128205,497.863247863 L403.205128205,497.435897436 L402.564102564,495.94017094 L401.282051282,494.978632479 L400.961538462,494.658119658 L400.320512821,493.696581197 L399.145299145,491.55982906 L398.397435897,490.918803419 L397.222222222,488.354700855 L396.260683761,487.286324786 L396.047008547,486.965811966 L395.726495726,486.217948718 L395.61965812,486.004273504 L395.512820513,485.897435897 L395.512820513,485.790598291 L395.085470085,485.47008547 L394.658119658,485.256410256 L394.017094017,484.615384615 L393.91025641,484.508547009 L393.91025641,484.294871795 L393.91025641,483.547008547 L393.696581197,483.226495726 L391.025641026,481.517094017 L389.743589744,473.611111111 L390.811965812,468.269230769 L389.316239316,465.064102564 L389.423076923,464.743589744 L390.918803419,464.423076923 L396.047008547,463.995726496 L396.260683761,464.102564103 L397.115384615,464.636752137 L398.504273504,465.064102564 L400.534188034,463.675213675 L400.747863248,463.461538462 L400.747863248,463.354700855 L400.641025641,462.5 L399.572649573,461.431623932 L399.358974359,461.217948718 L399.358974359,461.004273504 L399.252136752,460.897435897 L399.145299145,460.790598291 L399.038461538,460.790598291 L398.931623932,460.683760684 L398.824786325,460.576923077 L398.824786325,460.47008547 L398.931623932,459.829059829 L398.824786325,459.508547009 L398.717948718,459.294871795 L398.611111111,459.188034188 L398.504273504,459.081196581 L398.183760684,458.867521368 L398.076923077,458.760683761 L397.329059829,457.692307692 L396.367521368,457.371794872 L396.047008547,457.158119658 L396.047008547,457.051282051 L395.94017094,456.944444444 L395.94017094,456.623931624 L395.726495726,455.341880342 L395.512820513,454.166666667 L395.405982906,453.846153846 L395.299145299,453.739316239 L395.299145299,453.739316239 L395.085470085,453.739316239 L394.764957265,453.952991453 L394.551282051,453.952991453 L393.58974359,453.846153846 L392.948717949,453.632478632 L390.811965812,451.495726496 L390.598290598,449.679487179 L388.141025641,450.320512821 L386.858974359,449.038461538 L386.538461538,448.717948718 L386.111111111,448.290598291 L385.14957265,448.183760684 L385.042735043,447.329059829 L384.935897436,447.115384615 L384.722222222,447.115384615 L384.401709402,447.222222222 L384.188034188,447.329059829 L383.974358974,447.329059829 L383.653846154,447.222222222 L383.44017094,447.115384615 L383.333333333,446.901709402 L382.799145299,446.260683761 L382.692307692,445.405982906 L381.944444444,444.978632479 L381.303418803,444.230769231 L380.128205128,442.735042735 L379.914529915,442.414529915 L379.700854701,441.025641026 L379.807692308,440.064102564 L379.166666667,439.316239316 L379.166666667,439.102564103 L379.166666667,438.888888889 L379.166666667,438.247863248 L377.777777778,436.538461538 L376.816239316,431.623931624 L379.166666667,427.564102564 L378.846153846,420.94017094 L373.931623932,408.547008547 L374.252136752,407.371794872 L375.320512821,406.303418803 L375.427350427,405.982905983 L375.213675214,405.662393162 L375.213675214,405.555555556 L375.106837607,405.555555556 L375.0,405.662393162 L374.893162393,405.876068376 L374.786324786,405.982905983 L374.145299145,405.769230769 L373.824786325,405.769230769 L373.717948718,405.876068376 L368.58974359,411.645299145 L366.666666667,405.021367521 L367.521367521,401.495726496 L364.957264957,395.94017094 L367.628205128,388.995726496 L364.85042735,382.905982906 L363.034188034,383.653846154 L359.615384615,379.05982906 L358.760683761,370.61965812 L350.0,371.794871795 L348.504273504,369.978632479 L346.901709402,362.393162393 L349.465811966,359.935897436 L343.162393162,352.243589744 L344.444444444,350.213675214 L339.636752137,339.209401709 L346.474358974,340.811965812 L349.358974359,338.461538462 L354.594017094,342.735042735 L355.128205128,346.260683761 Z" fill="#cee3f5" id="MM.KN" stroke="#6e6e6e" stroke-width="0.4"><desc><labelrank>7</labelrank><code_hasc>MM.KN</code_hasc><name>Kayin</name><admin>Myanmar</admin><type_en>State</type_en><region /><woe_id>2344814</woe_id><longitude>97</longitude><woe_name>Kayin</woe_name><fips>BM05</fips><woe_label>Karan State, MM, Myanmar</woe_label><latitude>17</latitude><iso_a2>MM</iso_a2><postal>KN</postal><type>Pyine</type><id>MM.KN</id></desc></path><path d="M339.423076923,187.927350427 L338.888888889,190.811965812 L334.829059829,193.803418803 L333.547008547,200.854700855 L335.042735043,204.594017094 L339.957264957,206.303418803 L345.94017094,204.807692308 L352.777777778,209.615384615 L349.893162393,213.888888889 L334.829059829,216.666666667 L339.102564103,226.175213675 L338.675213675,230.235042735 L342.307692308,231.837606838 L344.230769231,238.568376068 L352.991452991,241.773504274 L358.11965812,253.739316239 L351.602564103,255.235042735 L347.115384615,259.722222222 L338.782051282,261.752136752 L336.858974359,264.636752137 L339.743589744,275.534188034 L335.042735043,276.175213675 L333.867521368,279.594017094 L335.47008547,282.799145299 L347.008547009,287.606837607 L346.367521368,290.705128205 L343.696581197,290.918803419 L342.200854701,293.91025641 L345.512820513,297.435897436 L342.841880342,303.632478632 L345.299145299,311.324786325 L341.88034188,314.423076923 L341.88034188,318.162393162 L339.102564103,318.696581197 L341.773504274,324.786324786 L344.658119658,325.106837607 L348.931623932,330.662393162 L345.299145299,334.188034188 L348.824786325,335.683760684 L349.358974359,338.461538462 L346.474358974,340.811965812 L339.636752137,339.209401709 L331.837606838,338.568376068 L329.38034188,341.132478632 L323.717948718,338.568376068 L318.269230769,339.102564103 L316.132478632,337.5 L315.705128205,333.653846154 L319.123931624,325.320512821 L317.414529915,319.978632479 L319.871794872,314.209401709 L312.820512821,291.452991453 L308.11965812,290.277777778 L297.435897436,294.764957265 L294.658119658,298.611111111 L293.055555556,295.61965812 L294.017094017,287.393162393 L284.722222222,282.478632479 L285.042735043,273.076923077 L290.598290598,271.688034188 L292.307692308,269.230769231 L296.474358974,269.230769231 L303.311965812,263.782051282 L303.846153846,258.333333333 L305.235042735,254.700854701 L310.256410256,253.418803419 L314.85042735,257.905982906 L318.91025641,258.012820513 L322.97008547,249.679487179 L328.525641026,247.115384615 L327.884615385,231.730769231 L326.175213675,229.487179487 L327.243589744,224.358974359 L324.252136752,217.628205128 L326.495726496,215.384615385 L327.136752137,200.961538462 L325.106837607,192.414529915 L331.303418803,183.226495726 L332.692307692,183.44017094 L333.11965812,187.286324786 L339.423076923,187.927350427 Z" fill="#cee3f5" id="MM.MD" stroke="#6e6e6e" stroke-width="0.4"><desc><labelrank>7</labelrank><code_hasc>MM.MD</code_hasc><name>Mandalay</name><admin>Myanmar</admin><type_en>Division</type_en><region /><woe_id>2344817</woe_id><longitude>96</longitude><woe_name>Mandalay</woe_name><fips>BM08</fips><woe_label>Mandalay, MM, Myanmar</woe_label><latitude>20</latitude><iso_a2>MM</iso_a2><postal>MD</postal><type>Yin</type><id>MM.MD</id></desc></path><path d="M339.636752137,339.209401709 L344.444444444,350.213675214 L343.162393162,352.243589744 L349.465811966,359.935897436 L346.901709402,362.393162393 L348.504273504,369.978632479 L350.0,371.794871795 L358.760683761,370.61965812 L359.615384615,379.05982906 L363.034188034,383.653846154 L364.85042735,382.905982906 L367.628205128,388.995726496 L364.957264957,395.94017094 L367.521367521,401.495726496 L366.666666667,405.021367521 L368.58974359,411.645299145 L368.376068376,412.179487179 L367.948717949,412.5 L367.307692308,412.927350427 L365.277777778,413.888888889 L364.52991453,413.995726496 L364.423076923,413.995726496 L364.316239316,413.888888889 L364.209401709,413.461538462 L364.102564103,413.247863248 L364.102564103,412.713675214 L363.782051282,411.965811966 L360.256410256,409.294871795 L358.760683761,408.974358974 L356.303418803,409.401709402 L355.982905983,410.683760684 L355.876068376,414.85042735 L353.632478632,417.200854701 L356.837606838,420.085470085 L354.594017094,424.038461538 L356.730769231,431.08974359 L353.632478632,436.111111111 L349.679487179,432.799145299 L338.141025641,432.158119658 L334.722222222,418.482905983 L326.495726496,403.205128205 L315.064102564,414.102564103 L313.247863248,411.111111111 L312.5,410.14957265 L305.341880342,405.555555556 L306.196581197,397.008547009 L304.594017094,395.405982906 L304.807692308,392.521367521 L303.205128205,387.927350427 L303.205128205,387.072649573 L302.884615385,386.431623932 L302.670940171,385.47008547 L302.564102564,385.042735043 L299.145299145,381.623931624 L294.444444444,375.854700855 L292.094017094,373.931623932 L291.346153846,372.435897436 L291.987179487,368.482905983 L296.581196581,364.743589744 L296.047008547,359.829059829 L300.427350427,354.05982906 L306.08974359,350.854700855 L318.91025641,350.320512821 L320.192307692,345.192307692 L318.269230769,339.102564103 L323.717948718,338.568376068 L329.38034188,341.132478632 L331.837606838,338.568376068 L339.636752137,339.209401709 Z" fill="#cee3f5" id="MM.BA" stroke="#6e6e6e" stroke-width="0.4"><desc><labelrank>7</labelrank><code_hasc>MM.BA</code_hasc><name>Bago</name><admin>Myanmar</admin><type_en>Division</type_en><region /><woe_id>2344818</woe_id><longitude>96</longitude><woe_name>Bago</woe_name><fips>BM16</fips><woe_label>Bago, MM, Myanmar</woe_label><latitude>18</latitude><iso_a2>MM</iso_a2><postal>BA</postal><type>Yin</type><id>MM.BA</id></desc></path><path d="M353.632478632,436.111111111 L352.670940171,441.773504274 L345.833333333,449.893162393 L339.423076923,451.388888889 L334.081196581,447.97008547 L331.944444444,441.452991453 L333.11965812,438.568376068 L329.914529915,440.277777778 L335.790598291,452.777777778 L333.867521368,455.448717949 L327.777777778,457.051282051 L323.183760684,454.166666667 L321.047008547,454.05982906 L320.299145299,453.846153846 L320.085470085,453.739316239 L319.337606838,453.311965812 L317.521367521,450.961538462 L317.735042735,450.427350427 L317.948717949,450.213675214 L319.230769231,448.931623932 L319.658119658,448.290598291 L319.551282051,448.076923077 L319.551282051,447.863247863 L319.337606838,447.542735043 L319.444444444,445.94017094 L318.696581197,444.551282051 L320.405982906,441.239316239 L319.230769231,438.247863248 L320.299145299,434.081196581 L313.461538462,423.717948718 L312.927350427,421.260683761 L312.927350427,420.192307692 L313.247863248,418.58974359 L314.636752137,415.811965812 L315.064102564,414.102564103 L326.495726496,403.205128205 L334.722222222,418.482905983 L338.141025641,432.158119658 L349.679487179,432.799145299 L353.632478632,436.111111111 Z" fill="#cee3f5" id="MM.YA" stroke="#6e6e6e" stroke-width="0.4"><desc><labelrank>7</labelrank><code_hasc>MM.YA</code_hasc><name>Yangon</name><admin>Myanmar</admin><type_en>Division</type_en><region /><woe_id>2344823</woe_id><longitude>96</longitude><woe_name>Yangon</woe_name><fips>BM17</fips><woe_label>Yangon, MM, Myanmar</woe_label><latitude>17</latitude><iso_a2>MM</iso_a2><postal>YA</postal><type>Yin</type><id>MM.YA</id></desc></path><path d="M380.341880342,461.324786325 L378.311965812,461.752136752 L376.282051282,458.333333333 L376.068376068,452.777777778 L377.991452991,450.641025641 L381.623931624,451.602564103 L380.341880342,461.324786325 M402.564102564,507.478632479 L399.252136752,507.264957265 L396.367521368,503.418803419 L392.094017094,504.166666667 L388.141025641,511.645299145 L389.209401709,499.252136752 L387.286324786,498.717948718 L385.683760684,494.444444444 L388.247863248,491.88034188 L385.897435897,475.534188034 L380.235042735,467.307692308 L383.226495726,459.508547009 L382.799145299,451.816239316 L385.14957265,449.038461538 L386.538461538,448.717948718 L386.858974359,449.038461538 L388.141025641,450.320512821 L390.598290598,449.679487179 L390.811965812,451.495726496 L392.948717949,453.632478632 L393.58974359,453.846153846 L394.551282051,453.952991453 L394.764957265,453.952991453 L395.085470085,453.739316239 L395.299145299,453.739316239 L395.299145299,453.739316239 L395.405982906,453.846153846 L395.512820513,454.166666667 L395.726495726,455.341880342 L395.94017094,456.623931624 L395.94017094,456.944444444 L396.047008547,457.051282051 L396.047008547,457.158119658 L396.367521368,457.371794872 L397.329059829,457.692307692 L398.076923077,458.760683761 L398.183760684,458.867521368 L398.504273504,459.081196581 L398.611111111,459.188034188 L398.717948718,459.294871795 L398.824786325,459.508547009 L398.931623932,459.829059829 L398.824786325,460.47008547 L398.824786325,460.576923077 L398.931623932,460.683760684 L399.038461538,460.790598291 L399.145299145,460.790598291 L399.252136752,460.897435897 L400.641025641,462.5 L400.747863248,463.354700855 L400.747863248,463.461538462 L400.534188034,463.675213675 L398.504273504,465.064102564 L397.115384615,464.636752137 L396.260683761,464.102564103 L396.047008547,463.995726496 L392.948717949,464.423076923 L390.918803419,464.423076923 L389.423076923,464.743589744 L389.316239316,465.064102564 L390.811965812,468.269230769 L391.025641026,481.517094017 L393.696581197,483.226495726 L393.91025641,483.547008547 L393.91025641,484.294871795 L393.91025641,484.508547009 L394.017094017,484.615384615 L394.658119658,485.256410256 L395.085470085,485.47008547 L395.512820513,485.790598291 L395.512820513,485.897435897 L395.61965812,486.004273504 L395.726495726,486.217948718 L396.047008547,486.965811966 L396.260683761,487.286324786 L397.222222222,488.354700855 L398.397435897,490.918803419 L399.145299145,491.55982906 L400.320512821,493.696581197 L400.961538462,494.658119658 L402.564102564,495.94017094 L403.205128205,497.435897436 L403.205128205,497.863247863 L403.205128205,499.038461538 L402.02991453,498.931623932 L401.495726496,503.205128205 L402.564102564,507.478632479 M375.320512821,405.769230769 L375.427350427,405.982905983 L375.320512821,406.303418803 L373.931623932,408.547008547 L378.846153846,420.94017094 L379.166666667,427.564102564 L376.816239316,431.623931624 L377.884615385,434.294871795 L377.777777778,436.538461538 L379.166666667,438.247863248 L379.166666667,438.888888889 L379.166666667,439.102564103 L379.166666667,439.316239316 L379.807692308,440.064102564 L379.700854701,441.025641026 L379.914529915,442.414529915 L380.128205128,442.735042735 L381.303418803,444.230769231 L381.944444444,444.978632479 L382.692307692,445.405982906 L382.905982906,445.833333333 L382.905982906,445.94017094 L382.799145299,446.153846154 L382.799145299,446.260683761 L383.333333333,446.901709402 L383.44017094,447.115384615 L383.653846154,447.222222222 L383.974358974,447.329059829 L384.188034188,447.329059829 L384.401709402,447.222222222 L384.722222222,447.115384615 L384.829059829,447.115384615 L384.935897436,447.115384615 L385.042735043,447.222222222 L385.042735043,447.329059829 L385.14957265,448.183760684 L383.333333333,449.465811966 L382.478632479,449.786324786 L373.076923077,451.495726496 L371.688034188,444.123931624 L369.017094017,443.482905983 L368.58974359,436.858974359 L367.841880342,438.675213675 L366.55982906,435.042735043 L365.598290598,428.846153846 L369.337606838,428.098290598 L365.705128205,427.243589744 L364.636752137,429.05982906 L362.5,422.64957265 L356.08974359,417.200854701 L355.982905983,410.683760684 L356.303418803,409.401709402 L356.944444444,409.188034188 L358.760683761,408.974358974 L360.256410256,409.294871795 L363.782051282,411.965811966 L364.102564103,412.713675214 L364.102564103,413.247863248 L364.209401709,413.461538462 L364.316239316,413.888888889 L364.423076923,413.995726496 L364.52991453,413.995726496 L365.277777778,413.888888889 L367.307692308,412.927350427 L367.948717949,412.5 L368.376068376,412.179487179 L368.58974359,411.645299145 L369.123931624,411.645299145 L370.405982906,409.722222222 L371.901709402,410.042735043 L373.717948718,406.837606838 L373.717948718,406.196581197 L373.717948718,405.876068376 L374.786324786,405.982905983 L374.893162393,405.876068376 L375.0,405.662393162 L375.106837607,405.555555556 L375.213675214,405.555555556 L375.213675214,405.662393162 L375.320512821,405.769230769 Z" fill="#cee3f5" id="MM.MO" stroke="#6e6e6e" stroke-width="0.4"><desc><labelrank>7</labelrank><code_hasc>MM.MO</code_hasc><name>Mon</name><admin>Myanmar</admin><type_en>State</type_en><region /><woe_id>2344822</woe_id><longitude>97</longitude><woe_name>Mon</woe_name><fips>BM13</fips><woe_label>Mon State, MM, Myanmar</woe_label><latitude>16</latitude><iso_a2>MM</iso_a2><postal>MO</postal><type>Pyine</type><id>MM.MO</id></desc></path><path d="M242.307692308,359.615384615 L244.658119658,359.829059829 L244.871794872,363.995726496 L242.414529915,366.987179487 L235.14957265,359.188034188 L240.170940171,358.012820513 L242.307692308,359.615384615 M247.222222222,336.538461538 L253.205128205,339.316239316 L252.884615385,341.346153846 L248.931623932,344.444444444 L246.474358974,344.017094017 L241.55982906,336.111111111 L243.58974359,333.653846154 L247.222222222,336.538461538 M237.5,325.854700855 L234.722222222,323.931623932 L233.547008547,318.58974359 L236.965811966,321.153846154 L237.5,325.854700855 M283.012820513,379.914529915 L284.829059829,384.508547009 L284.188034188,403.418803419 L279.273504274,416.773504274 L272.64957265,413.247863248 L272.435897436,408.760683761 L274.358974359,410.14957265 L268.803418803,394.017094017 L270.405982906,390.277777778 L268.162393162,383.867521368 L264.636752137,382.799145299 L267.948717949,381.196581197 L262.5,373.717948718 L262.286324786,368.803418803 L258.760683761,365.277777778 L263.461538462,365.064102564 L261.111111111,364.957264957 L258.974358974,360.14957265 L257.799145299,361.965811966 L255.021367521,360.363247863 L257.264957265,351.816239316 L254.914529915,351.495726496 L256.517094017,340.491452991 L255.128205128,347.329059829 L252.991452991,349.465811966 L250.747863248,347.756410256 L253.205128205,356.196581197 L251.175213675,360.256410256 L242.307692308,353.952991453 L235.683760684,341.239316239 L238.247863248,338.354700855 L246.794871795,345.94017094 L251.602564103,343.696581197 L253.525641026,341.025641026 L253.952991453,337.820512821 L251.495726496,337.606837607 L244.871794872,330.982905983 L247.329059829,330.128205128 L247.756410256,326.816239316 L246.047008547,329.38034188 L244.230769231,327.884615385 L245.726495726,325.961538462 L240.384615385,327.564102564 L240.598290598,324.679487179 L245.512820513,319.978632479 L239.85042735,321.474358974 L238.034188034,316.987179487 L234.294871795,318.162393162 L233.012820513,313.461538462 L232.264957265,315.705128205 L231.623931624,312.927350427 L229.05982906,314.85042735 L224.038461538,312.927350427 L227.564102564,323.290598291 L224.038461538,316.239316239 L222.97008547,319.017094017 L225.106837607,323.717948718 L223.931623932,322.756410256 L218.482905983,311.431623932 L222.863247863,310.790598291 L223.931623932,308.44017094 L219.230769231,310.47008547 L223.076923077,302.136752137 L223.504273504,300.213675214 L221.901709402,302.777777778 L221.047008547,300.961538462 L223.076923077,296.367521368 L220.726495726,299.358974359 L220.405982906,304.05982906 L214.52991453,311.431623932 L211.752136752,307.264957265 L217.735042735,304.166666667 L214.423076923,301.923076923 L213.888888889,297.435897436 L211.752136752,298.931623932 L210.256410256,293.696581197 L207.371794872,289.52991453 L209.829059829,294.123931624 L210.14957265,306.196581197 L202.670940171,292.735042735 L198.397435897,289.102564103 L195.085470085,275.854700855 L191.88034188,270.94017094 L194.444444444,261.965811966 L198.611111111,260.790598291 L199.786324786,263.675213675 L204.487179487,264.423076923 L205.982905983,268.803418803 L207.478632479,268.269230769 L208.226495726,267.628205128 L208.547008547,266.987179487 L208.547008547,266.55982906 L209.508547009,267.094017094 L211.111111111,269.978632479 L213.141025641,272.542735043 L213.995726496,273.931623932 L214.957264957,276.282051282 L215.705128205,276.923076923 L218.696581197,275.641025641 L219.337606838,275.747863248 L225.427350427,277.243589744 L225.854700855,277.564102564 L225.961538462,278.205128205 L226.282051282,281.944444444 L226.495726496,282.585470085 L228.418803419,284.294871795 L228.739316239,285.576923077 L228.846153846,285.790598291 L229.166666667,286.324786325 L229.700854701,286.858974359 L234.935897436,290.491452991 L237.072649573,291.55982906 L241.55982906,292.094017094 L241.987179487,291.987179487 L242.841880342,291.346153846 L243.269230769,291.132478632 L244.017094017,290.918803419 L244.337606838,290.598290598 L244.444444444,290.277777778 L244.337606838,289.85042735 L243.482905983,287.179487179 L243.696581197,285.042735043 L243.91025641,284.508547009 L244.123931624,284.081196581 L244.871794872,283.653846154 L247.008547009,284.508547009 L248.290598291,286.858974359 L248.717948718,288.675213675 L249.038461538,288.782051282 L250.0,288.888888889 L250.534188034,289.102564103 L251.068376068,289.52991453 L251.923076923,290.384615385 L252.243589744,291.025641026 L252.136752137,295.512820513 L255.876068376,298.076923077 L266.88034188,320.299145299 L266.346153846,324.679487179 L269.551282051,338.461538462 L273.824786325,345.61965812 L273.824786325,351.282051282 L278.098290598,354.700854701 L282.371794872,361.858974359 L282.051282051,362.820512821 L281.623931624,363.034188034 L280.982905983,363.247863248 L279.807692308,363.354700855 L279.38034188,363.568376068 L279.273504274,363.782051282 L279.273504274,364.102564103 L279.594017094,364.52991453 L281.08974359,365.918803419 L281.730769231,367.094017094 L281.730769231,367.628205128 L281.517094017,368.055555556 L280.448717949,369.123931624 L280.021367521,369.871794872 L280.021367521,370.512820513 L280.982905983,372.435897436 L281.08974359,373.183760684 L280.555555556,375.747863248 L283.012820513,379.914529915 Z" fill="#cee3f5" id="MM.RA" stroke="#6e6e6e" stroke-width="0.4"><desc><labelrank>7</labelrank><code_hasc>MM.RA</code_hasc><name>Rakhine</name><admin>Myanmar</admin><type_en>State</type_en><region /><woe_id>2344810</woe_id><longitude>93</longitude><woe_name>Rakhine</woe_name><fips>BM01</fips><woe_label>Rakhine State, MM, Myanmar</woe_label><latitude>20</latitude><iso_a2>MM</iso_a2><postal>RA</postal><type>Pyine</type><id>MM.RA</id></desc></path><path d="M263.995726496,172.863247863 L264.102564103,186.217948718 L260.897435897,186.111111111 L260.576923077,191.773504274 L258.867521368,192.414529915 L258.333333333,216.88034188 L259.081196581,244.230769231 L257.158119658,250.213675214 L261.217948718,258.547008547 L257.264957265,269.978632479 L259.935897436,272.222222222 L260.363247863,275.854700855 L257.264957265,283.11965812 L260.576923077,291.55982906 L256.41025641,293.055555556 L252.243589744,291.025641026 L251.923076923,290.384615385 L251.068376068,289.52991453 L250.534188034,289.102564103 L250.0,288.888888889 L249.038461538,288.782051282 L248.717948718,288.675213675 L244.871794872,283.653846154 L244.123931624,284.081196581 L243.91025641,284.508547009 L243.696581197,285.042735043 L243.482905983,287.179487179 L244.337606838,289.85042735 L244.444444444,290.277777778 L244.337606838,290.598290598 L244.017094017,290.918803419 L243.269230769,291.132478632 L242.841880342,291.346153846 L241.987179487,291.987179487 L241.55982906,292.094017094 L237.072649573,291.55982906 L234.935897436,290.491452991 L229.700854701,286.858974359 L229.166666667,286.324786325 L228.846153846,285.790598291 L228.739316239,285.576923077 L228.418803419,284.294871795 L226.495726496,282.585470085 L226.282051282,281.944444444 L225.961538462,278.205128205 L225.854700855,277.564102564 L225.427350427,277.243589744 L219.337606838,275.747863248 L218.696581197,275.641025641 L216.55982906,277.136752137 L215.705128205,276.923076923 L214.957264957,276.282051282 L213.995726496,273.931623932 L213.141025641,272.542735043 L211.111111111,269.978632479 L209.508547009,267.094017094 L208.547008547,266.55982906 L207.371794872,262.393162393 L207.264957265,241.346153846 L209.935897436,239.85042735 L211.324786325,234.829059829 L217.841880342,242.521367521 L218.91025641,240.277777778 L221.047008547,241.55982906 L223.290598291,233.547008547 L227.457264957,234.294871795 L228.632478632,231.623931624 L226.068376068,212.179487179 L229.594017094,208.226495726 L229.05982906,201.816239316 L233.226495726,203.632478632 L236.965811966,199.145299145 L239.636752137,179.807692308 L235.683760684,166.55982906 L236.538461538,163.354700855 L240.918803419,168.055555556 L249.786324786,166.666666667 L252.884615385,169.444444444 L263.995726496,172.863247863 Z" fill="#cee3f5" id="MM.CH" stroke="#6e6e6e" stroke-width="0.4"><desc><labelrank>7</labelrank><code_hasc>MM.CH</code_hasc><name>Chin</name><admin>Myanmar</admin><type_en>State</type_en><region /><woe_id>2344811</woe_id><longitude>93</longitude><woe_name>Chin</woe_name><fips>BM02</fips><woe_label>Chin State, MM, Myanmar</woe_label><latitude>21</latitude><iso_a2>MM</iso_a2><postal>CH</postal><type>Pyine</type><id>MM.CH</id></desc></path><path d="M279.807692308,475.961538462 L276.923076923,475.0 L280.662393162,470.299145299 L279.807692308,475.961538462 M265.598290598,474.038461538 L264.957264957,467.948717949 L274.358974359,458.974358974 L273.717948718,465.384615385 L268.162393162,469.337606838 L265.598290598,474.038461538 M272.64957265,413.247863248 L279.273504274,416.773504274 L284.188034188,403.418803419 L284.829059829,384.508547009 L283.012820513,379.914529915 L283.653846154,379.38034188 L284.829059829,378.525641026 L285.790598291,377.884615385 L286.645299145,377.670940171 L287.713675214,377.991452991 L288.568376068,378.632478632 L289.316239316,379.487179487 L290.277777778,379.914529915 L291.239316239,380.021367521 L292.948717949,376.388888889 L293.58974359,375.961538462 L294.230769231,375.854700855 L294.444444444,375.854700855 L302.564102564,385.042735043 L302.670940171,385.47008547 L302.884615385,386.431623932 L303.098290598,386.752136752 L303.205128205,387.072649573 L304.807692308,392.521367521 L304.594017094,395.405982906 L306.196581197,397.008547009 L305.341880342,405.555555556 L312.5,410.14957265 L313.247863248,411.111111111 L315.064102564,414.102564103 L314.636752137,415.811965812 L312.927350427,420.192307692 L313.461538462,423.717948718 L320.299145299,434.081196581 L319.230769231,438.247863248 L320.405982906,441.239316239 L318.696581197,444.551282051 L319.444444444,445.94017094 L319.337606838,447.542735043 L319.551282051,447.863247863 L319.551282051,448.076923077 L319.658119658,448.290598291 L319.230769231,448.931623932 L317.948717949,450.213675214 L317.521367521,450.961538462 L318.482905983,451.709401709 L319.337606838,453.311965812 L320.085470085,453.739316239 L320.299145299,453.846153846 L321.047008547,454.05982906 L323.183760684,454.166666667 L325.961538462,456.517094017 L322.756410256,460.683760684 L321.688034188,459.401709402 L319.230769231,461.111111111 L319.444444444,459.829059829 L316.132478632,463.461538462 L313.461538462,460.576923077 L311.111111111,470.726495726 L302.02991453,479.05982906 L297.329059829,478.418803419 L297.222222222,474.679487179 L300.320512821,469.230769231 L300.320512821,463.141025641 L299.465811966,469.230769231 L296.153846154,473.504273504 L297.008547009,468.482905983 L294.658119658,476.602564103 L291.55982906,475.320512821 L292.094017094,468.269230769 L291.773504274,467.094017094 L291.025641026,469.123931624 L290.598290598,467.521367521 L292.200854701,464.743589744 L295.405982906,464.102564103 L292.094017094,462.927350427 L289.743589744,465.705128205 L288.141025641,475.747863248 L286.004273504,477.243589744 L281.41025641,476.175213675 L283.226495726,474.038461538 L281.623931624,474.358974359 L281.08974359,470.192307692 L284.401709402,466.987179487 L283.11965812,467.735042735 L282.264957265,463.568376068 L286.965811966,458.974358974 L281.944444444,462.286324786 L282.371794872,466.773504274 L276.816239316,473.611111111 L272.542735043,471.047008547 L277.35042735,467.628205128 L279.700854701,462.179487179 L276.388888889,467.414529915 L271.260683761,470.512820513 L275.534188034,463.675213675 L277.777777778,448.611111111 L275.747863248,448.290598291 L275.854700855,454.594017094 L273.824786325,458.44017094 L272.222222222,459.294871795 L273.931623932,455.235042735 L272.222222222,457.799145299 L269.978632479,456.944444444 L269.337606838,461.004273504 L263.141025641,468.055555556 L259.935897436,469.017094017 L258.653846154,467.307692308 L261.004273504,448.076923077 L263.675213675,447.329059829 L265.491452991,434.188034188 L268.482905983,432.371794872 L268.269230769,423.717948718 L271.367521368,423.504273504 L271.688034188,418.58974359 L273.397435897,419.658119658 L272.64957265,413.247863248 Z" fill="#cee3f5" id="MM.AY" stroke="#6e6e6e" stroke-width="0.4"><desc><labelrank>7</labelrank><code_hasc>MM.AY</code_hasc><name>Ayeyarwady</name><admin>Myanmar</admin><type_en>Division</type_en><region /><woe_id>2344812</woe_id><longitude>95</longitude><woe_name>Ayeyarwady</woe_name><fips>BM03</fips><woe_label>Ayeyarwady, MM, Myanmar</woe_label><latitude>16</latitude><iso_a2>MM</iso_a2><postal>AY</postal><type>Yin</type><id>MM.AY</id></desc></path><path d="M303.846153846,258.333333333 L303.311965812,263.782051282 L296.474358974,269.230769231 L292.307692308,269.230769231 L290.598290598,271.688034188 L285.042735043,273.076923077 L284.722222222,282.478632479 L294.017094017,287.393162393 L293.055555556,295.61965812 L294.658119658,298.611111111 L297.435897436,294.764957265 L308.11965812,290.277777778 L312.820512821,291.452991453 L319.871794872,314.209401709 L317.414529915,319.978632479 L319.123931624,325.320512821 L315.705128205,333.653846154 L316.132478632,337.5 L318.269230769,339.102564103 L320.192307692,345.192307692 L318.91025641,350.320512821 L306.08974359,350.854700855 L300.427350427,354.05982906 L296.047008547,359.829059829 L296.581196581,364.743589744 L291.987179487,368.482905983 L291.346153846,372.435897436 L292.094017094,373.931623932 L294.444444444,375.854700855 L291.239316239,380.021367521 L290.277777778,379.914529915 L289.316239316,379.487179487 L288.568376068,378.632478632 L287.713675214,377.991452991 L286.645299145,377.670940171 L285.790598291,377.884615385 L284.829059829,378.525641026 L283.653846154,379.38034188 L283.012820513,379.914529915 L280.555555556,375.747863248 L281.08974359,373.183760684 L280.982905983,372.435897436 L280.021367521,370.512820513 L280.021367521,369.871794872 L281.517094017,368.055555556 L281.730769231,367.628205128 L281.730769231,367.094017094 L281.08974359,365.918803419 L279.594017094,364.52991453 L279.273504274,364.102564103 L279.273504274,363.782051282 L279.38034188,363.568376068 L279.807692308,363.354700855 L280.982905983,363.247863248 L281.623931624,363.034188034 L282.051282051,362.820512821 L282.371794872,361.858974359 L278.098290598,354.700854701 L273.824786325,351.282051282 L273.824786325,345.61965812 L269.551282051,338.461538462 L266.346153846,324.679487179 L266.88034188,320.299145299 L255.876068376,298.076923077 L252.136752137,295.512820513 L252.243589744,291.025641026 L256.41025641,293.055555556 L260.576923077,291.55982906 L257.264957265,283.11965812 L260.363247863,275.854700855 L259.935897436,272.222222222 L257.264957265,269.978632479 L261.217948718,258.547008547 L257.158119658,250.213675214 L259.081196581,244.230769231 L258.333333333,216.88034188 L262.072649573,215.918803419 L267.841880342,226.923076923 L266.346153846,237.179487179 L271.474358974,240.705128205 L271.260683761,250.213675214 L274.145299145,251.602564103 L278.098290598,249.786324786 L296.474358974,249.893162393 L303.846153846,258.333333333 Z" fill="#cee3f5" id="MM.MG" stroke="#6e6e6e" stroke-width="0.4"><desc><labelrank>7</labelrank><code_hasc>MM.MG</code_hasc><name>Magway</name><admin>Myanmar</admin><type_en>Division</type_en><region /><woe_id>2344816</woe_id><longitude>94</longitude><woe_name>Magway</woe_name><fips>BM15</fips><woe_label>Magway, MM, Myanmar</woe_label><latitude>19</latitude><iso_a2>MM</iso_a2><postal>MG</postal><type>Yin</type><id>MM.MG</id></desc></path><path d="M391.88034188,336.111111111 L390.811965812,333.226495726 L382.799145299,331.623931624 L379.487179487,323.717948718 L377.02991453,324.252136752 L375.0,321.581196581 L370.512820513,323.824786325 L367.094017094,320.192307692 L365.918803419,329.914529915 L358.760683761,335.256410256 L357.264957265,338.354700855 L358.333333333,341.88034188 L355.128205128,346.260683761 L354.594017094,342.735042735 L349.358974359,338.461538462 L348.824786325,335.683760684 L345.299145299,334.188034188 L348.931623932,330.662393162 L344.658119658,325.106837607 L341.773504274,324.786324786 L339.102564103,318.696581197 L341.88034188,318.162393162 L341.88034188,314.423076923 L345.299145299,311.324786325 L342.841880342,303.632478632 L345.512820513,297.435897436 L342.200854701,293.91025641 L343.696581197,290.918803419 L346.367521368,290.705128205 L347.008547009,287.606837607 L335.47008547,282.799145299 L333.867521368,279.594017094 L335.042735043,276.175213675 L339.743589744,275.534188034 L336.858974359,264.636752137 L338.782051282,261.752136752 L347.115384615,259.722222222 L351.602564103,255.235042735 L358.11965812,253.739316239 L352.991452991,241.773504274 L344.230769231,238.568376068 L342.307692308,231.837606838 L338.675213675,230.235042735 L339.102564103,226.175213675 L334.829059829,216.666666667 L349.893162393,213.888888889 L352.777777778,209.615384615 L345.94017094,204.807692308 L339.957264957,206.303418803 L335.042735043,204.594017094 L333.547008547,200.854700855 L334.829059829,193.803418803 L338.888888889,190.811965812 L339.423076923,187.927350427 L347.863247863,175.320512821 L346.260683761,169.123931624 L342.841880342,170.192307692 L342.094017094,168.482905983 L352.02991453,164.316239316 L353.846153846,168.696581197 L357.371794872,171.047008547 L359.188034188,170.192307692 L360.042735043,172.542735043 L359.401709402,176.388888889 L355.555555556,179.05982906 L362.820512821,180.769230769 L363.675213675,183.11965812 L373.717948718,180.982905983 L384.294871795,176.923076923 L385.363247863,175.0 L401.175213675,166.452991453 L412.5,165.384615385 L417.735042735,167.521367521 L427.35042735,164.85042735 L427.02991453,167.200854701 L420.192307692,171.794871795 L420.405982906,177.884615385 L424.893162393,179.38034188 L427.02991453,184.935897436 L424.358974359,187.820512821 L428.205128205,192.521367521 L426.923076923,195.61965812 L428.846153846,196.688034188 L427.136752137,201.068376068 L432.905982906,201.816239316 L439.52991453,205.662393162 L443.482905983,202.884615385 L449.038461538,205.555555556 L450.641025641,210.47008547 L446.260683761,210.363247863 L446.367521368,213.141025641 L442.628205128,217.307692308 L444.444444444,226.709401709 L440.384615385,230.555555556 L436.965811966,239.52991453 L440.811965812,241.346153846 L450.747863248,241.239316239 L455.876068376,243.696581197 L457.264957265,242.521367521 L460.683760684,244.444444444 L464.85042735,243.376068376 L465.170940171,255.555555556 L472.008547009,258.012820513 L470.192307692,262.713675214 L473.611111111,266.452991453 L478.952991453,262.606837607 L483.012820513,265.384615385 L488.782051282,264.85042735 L496.260683761,257.692307692 L504.807692308,253.525641026 L508.11965812,259.188034188 L507.585470085,262.713675214 L502.243589744,266.987179487 L495.61965812,271.047008547 L492.521367521,270.726495726 L491.346153846,276.388888889 L489.102564103,280.341880342 L486.217948718,281.41025641 L485.363247863,285.897435897 L490.064102564,286.965811966 L486.111111111,289.636752137 L480.021367521,288.888888889 L474.679487179,293.803418803 L470.833333333,308.11965812 L465.064102564,303.311965812 L461.538461538,304.487179487 L459.722222222,307.585470085 L455.021367521,308.547008547 L447.542735043,305.769230769 L450.0,314.316239316 L442.414529915,317.735042735 L438.247863248,315.598290598 L434.615384615,316.346153846 L432.585470085,318.58974359 L432.051282051,326.816239316 L428.418803419,329.487179487 L425.213675214,327.35042735 L415.384615385,332.264957265 L413.888888889,331.08974359 L404.914529915,332.585470085 L398.183760684,327.243589744 L396.794871795,333.547008547 L391.88034188,336.111111111 Z" fill="#cee3f5" id="MM.SH" stroke="#6e6e6e" stroke-width="0.4"><desc><labelrank>7</labelrank><code_hasc>MM.SH</code_hasc><name>Shan</name><admin>Myanmar</admin><type_en>State</type_en><region /><woe_id>2344820</woe_id><longitude>98</longitude><woe_name>Shan</woe_name><fips>BM11</fips><woe_label>Shan State, MM, Myanmar</woe_label><latitude>21</latitude><iso_a2>MM</iso_a2><postal>SH</postal><type>Pyine</type><id>MM.SH</id></desc></path><path d="M404.38034188,691.88034188 L405.555555556,694.017094017 L399.786324786,700.0 L399.572649573,695.726495726 L404.38034188,691.88034188 M402.136752137,691.666666667 L401.495726496,687.072649573 L403.846153846,687.820512821 L402.136752137,691.666666667 M391.55982906,676.495726496 L392.841880342,677.670940171 L391.666666667,679.166666667 L391.55982906,676.495726496 M415.491452991,663.141025641 L413.461538462,664.636752137 L413.247863248,661.004273504 L415.491452991,663.141025641 M391.666666667,662.179487179 L391.132478632,660.042735043 L393.269230769,659.829059829 L391.666666667,662.179487179 M403.205128205,659.615384615 L405.876068376,665.064102564 L404.273504274,668.376068376 L402.35042735,661.324786325 L400.427350427,659.722222222 L397.863247863,661.004273504 L400.641025641,657.585470085 L403.205128205,659.615384615 M415.064102564,657.371794872 L414.743589744,658.760683761 L412.606837607,657.905982906 L414.423076923,653.632478632 L415.064102564,657.371794872 M405.235042735,647.542735043 L404.166666667,648.824786325 L403.205128205,646.794871795 L405.235042735,647.542735043 M405.555555556,637.820512821 L401.175213675,639.85042735 L405.341880342,626.923076923 L407.051282051,629.487179487 L405.555555556,637.820512821 M415.170940171,627.02991453 L414.85042735,637.072649573 L411.004273504,635.683760684 L409.081196581,630.982905983 L410.363247863,627.991452991 L408.760683761,627.35042735 L415.170940171,627.02991453 M397.008547009,628.846153846 L398.397435897,633.226495726 L395.512820513,630.448717949 L395.61965812,624.465811966 L397.008547009,628.846153846 M414.316239316,619.230769231 L419.337606838,621.901709402 L412.713675214,623.504273504 L411.324786325,615.277777778 L414.316239316,619.230769231 M398.824786325,611.965811966 L400.213675214,614.209401709 L396.581196581,611.645299145 L397.863247863,608.547008547 L399.572649573,609.081196581 L398.824786325,611.965811966 M398.717948718,605.769230769 L395.192307692,609.401709402 L393.162393162,607.799145299 L392.948717949,605.662393162 L395.833333333,604.38034188 L396.688034188,605.982905983 L397.97008547,603.418803419 L398.717948718,605.769230769 M405.662393162,600.641025641 L403.632478632,600.106837607 L404.700854701,597.97008547 L405.662393162,600.641025641 M409.935897436,598.076923077 L410.897435897,599.679487179 L412.393162393,597.64957265 L411.965811966,602.35042735 L408.012820513,607.264957265 L406.303418803,606.837606838 L406.837606838,593.696581197 L410.14957265,595.512820513 L409.935897436,598.076923077 M406.08974359,578.846153846 L407.585470085,579.273504274 L406.303418803,585.256410256 L404.38034188,574.038461538 L406.08974359,578.846153846 M402.564102564,507.478632479 L404.38034188,514.52991453 L415.491452991,530.555555556 L429.594017094,541.452991453 L435.256410256,549.572649573 L437.5,555.341880342 L438.888888889,573.504273504 L435.683760684,575.641025641 L435.363247863,580.662393162 L438.034188034,583.012820513 L440.170940171,592.628205128 L446.794871795,597.97008547 L448.611111111,614.636752137 L451.923076923,614.209401709 L451.068376068,618.482905983 L453.098290598,620.405982906 L452.670940171,624.252136752 L455.235042735,626.388888889 L452.02991453,632.905982906 L448.611111111,633.974358974 L439.85042735,652.884615385 L433.974358974,658.974358974 L431.730769231,658.867521368 L430.982905983,663.461538462 L423.290598291,668.58974359 L424.252136752,675.641025641 L422.64957265,681.196581197 L415.064102564,694.764957265 L411.965811966,667.521367521 L414.52991453,668.376068376 L418.376068376,662.5 L416.452991453,661.324786325 L421.367521368,659.722222222 L421.688034188,655.235042735 L419.337606838,651.923076923 L421.794871795,651.068376068 L423.076923077,646.794871795 L420.833333333,642.414529915 L423.717948718,639.957264957 L421.581196581,636.965811966 L422.222222222,632.905982906 L425.427350427,630.448717949 L427.991452991,630.982905983 L423.931623932,628.632478632 L424.893162393,625.0 L419.978632479,631.303418803 L417.307692308,626.816239316 L421.153846154,624.038461538 L415.384615385,624.038461538 L419.551282051,622.435897436 L421.688034188,619.551282051 L418.376068376,614.52991453 L421.047008547,610.576923077 L417.094017094,612.179487179 L415.064102564,610.47008547 L421.153846154,606.517094017 L417.414529915,603.418803419 L417.841880342,601.282051282 L421.260683761,600.320512821 L418.162393162,598.611111111 L420.726495726,592.307692308 L417.948717949,590.811965812 L419.123931624,589.636752137 L416.88034188,585.042735043 L416.55982906,575.106837607 L412.927350427,571.474358974 L412.713675214,566.55982906 L411.965811966,567.841880342 L406.41025641,555.769230769 L404.38034188,555.341880342 L402.457264957,542.200854701 L402.243589744,561.645299145 L400.641025641,561.965811966 L401.602564103,556.517094017 L399.145299145,555.769230769 L399.465811966,548.290598291 L397.64957265,544.230769231 L399.465811966,538.354700855 L395.299145299,532.264957265 L395.512820513,527.02991453 L394.230769231,527.777777778 L391.346153846,519.017094017 L393.482905983,517.628205128 L396.581196581,520.405982906 L393.696581197,514.636752137 L390.064102564,517.521367521 L388.141025641,511.645299145 L392.094017094,504.166666667 L396.367521368,503.418803419 L399.252136752,507.264957265 L402.564102564,507.478632479 Z" fill="#cee3f5" id="MM.TN" stroke="#6e6e6e" stroke-width="0.4"><desc><labelrank>7</labelrank><code_hasc>MM.TN</code_hasc><name>Tanintharyi</name><admin>Myanmar</admin><type_en>Division</type_en><region /><woe_id>2344821</woe_id><longitude>98</longitude><woe_name>Tanintharyi</woe_name><fips>BM12</fips><woe_label>Tenasserim, MM, Myanmar</woe_label><latitude>13</latitude><iso_a2>MM</iso_a2><postal>TN</postal><type>Yin</type><id>MM.TN</id></desc></path><path d="M385.363247863,175.0 L384.294871795,176.923076923 L373.717948718,180.982905983 L363.675213675,183.11965812 L362.820512821,180.769230769 L355.555555556,179.05982906 L359.401709402,176.388888889 L360.042735043,172.542735043 L359.188034188,170.192307692 L357.371794872,171.047008547 L353.846153846,168.696581197 L352.02991453,164.316239316 L349.786324786,160.256410256 L351.602564103,154.05982906 L343.696581197,150.747863248 L337.179487179,152.243589744 L332.799145299,145.405982906 L327.457264957,143.269230769 L324.038461538,132.905982906 L330.341880342,129.700854701 L330.021367521,133.11965812 L331.837606838,132.371794872 L332.051282051,128.846153846 L328.952991453,122.64957265 L328.846153846,112.393162393 L329.700854701,110.47008547 L332.051282051,111.538461538 L336.324786325,106.730769231 L332.905982906,99.0384615385 L335.897435897,93.1623931624 L335.790598291,88.9957264957 L330.982905983,78.6324786325 L335.897435897,75.641025641 L332.585470085,69.3376068376 L340.384615385,62.2863247863 L341.025641026,60.1495726496 L339.209401709,58.4401709402 L363.675213675,57.6923076923 L366.88034188,53.952991453 L369.444444444,52.6709401709 L361.111111111,40.7051282051 L360.576923077,34.8290598291 L372.756410256,23.8247863248 L376.495726496,24.0384615385 L376.282051282,11.9658119658 L380.448717949,8.97435897436 L383.867521368,0.0 L388.888888889,1.92307692308 L391.025641026,7.05128205128 L395.405982906,6.94444444444 L398.504273504,12.2863247863 L402.670940171,15.0641025641 L402.243589744,21.3675213675 L404.594017094,23.6111111111 L403.311965812,24.8931623932 L408.44017094,37.8205128205 L411.324786325,37.0726495726 L412.286324786,32.264957265 L421.260683761,36.3247863248 L421.047008547,51.3888888889 L423.183760684,56.0897435897 L423.717948718,72.0085470085 L419.871794872,85.8974358974 L422.008547009,88.8888888889 L419.978632479,91.7735042735 L419.123931624,89.9572649573 L416.55982906,91.452991453 L421.474358974,100.427350427 L418.696581197,102.884615385 L414.957264957,101.709401709 L409.294871795,111.538461538 L402.777777778,109.829059829 L401.602564103,118.162393162 L394.871794872,125.0 L391.88034188,122.863247863 L387.713675214,129.914529915 L387.820512821,135.363247863 L390.064102564,138.141025641 L381.944444444,142.200854701 L380.982905983,152.777777778 L385.363247863,153.632478632 L386.965811966,157.158119658 L385.47008547,158.760683761 L387.927350427,159.722222222 L387.5,165.384615385 L380.876068376,172.222222222 L385.363247863,175.0 Z" fill="#cee3f5" id="MM.KC" stroke="#6e6e6e" stroke-width="0.4"><desc><labelrank>7</labelrank><code_hasc>MM.KC</code_hasc><name>Kachin</name><admin>Myanmar</admin><type_en>State</type_en><region /><woe_id>2344813</woe_id><longitude>97</longitude><woe_name>Kachin</woe_name><fips>BM04</fips><woe_label>Kachin State, MM, Myanmar</woe_label><latitude>25</latitude><iso_a2>MM</iso_a2><postal>KC</postal><type>Pyine</type><id>MM.KC</id></desc></path><path d="M366.88034188,53.952991453 L363.675213675,57.6923076923 L339.209401709,58.4401709402 L341.025641026,60.1495726496 L340.384615385,62.2863247863 L332.585470085,69.3376068376 L335.897435897,75.641025641 L330.982905983,78.6324786325 L335.790598291,88.9957264957 L335.897435897,93.1623931624 L332.905982906,99.0384615385 L336.324786325,106.730769231 L332.051282051,111.538461538 L329.700854701,110.47008547 L328.846153846,112.393162393 L328.952991453,122.64957265 L332.051282051,128.846153846 L331.837606838,132.371794872 L330.021367521,133.11965812 L330.341880342,129.700854701 L324.038461538,132.905982906 L327.457264957,143.269230769 L332.799145299,145.405982906 L337.179487179,152.243589744 L343.696581197,150.747863248 L351.602564103,154.05982906 L349.786324786,160.256410256 L352.02991453,164.316239316 L342.094017094,168.482905983 L342.841880342,170.192307692 L346.260683761,169.123931624 L347.863247863,175.320512821 L339.423076923,187.927350427 L333.11965812,187.286324786 L332.692307692,183.44017094 L331.303418803,183.226495726 L325.106837607,192.414529915 L327.136752137,200.961538462 L326.495726496,215.384615385 L324.252136752,217.628205128 L327.243589744,224.358974359 L326.175213675,229.487179487 L327.884615385,231.730769231 L328.525641026,247.115384615 L322.97008547,249.679487179 L318.91025641,258.012820513 L314.85042735,257.905982906 L310.256410256,253.418803419 L305.235042735,254.700854701 L303.846153846,258.333333333 L296.474358974,249.893162393 L278.098290598,249.786324786 L274.145299145,251.602564103 L271.260683761,250.213675214 L271.474358974,240.705128205 L266.346153846,237.179487179 L267.841880342,226.923076923 L262.072649573,215.918803419 L258.333333333,216.88034188 L258.867521368,192.414529915 L260.576923077,191.773504274 L260.897435897,186.111111111 L264.102564103,186.217948718 L263.995726496,172.863247863 L270.405982906,155.128205128 L278.418803419,141.452991453 L280.662393162,140.491452991 L285.363247863,129.594017094 L284.935897436,125.320512821 L280.341880342,122.756410256 L282.478632479,115.598290598 L296.474358974,103.205128205 L296.367521368,96.2606837607 L301.709401709,91.6666666667 L298.183760684,82.5854700855 L298.397435897,75.5341880342 L301.282051282,70.5128205128 L311.111111111,67.4145299145 L313.888888889,63.3547008547 L321.047008547,60.3632478632 L336.217948718,47.2222222222 L355.235042735,43.6965811966 L360.042735043,47.9700854701 L359.722222222,50.2136752137 L366.88034188,53.952991453 Z" fill="#cee3f5" id="MM.SA" stroke="#6e6e6e" stroke-width="0.4"><desc><labelrank>7</labelrank><code_hasc>MM.SA</code_hasc><name>Sagaing</name><admin>Myanmar</admin><type_en>Division</type_en><region /><woe_id>2344819</woe_id><longitude>95</longitude><woe_name>Sagaing</woe_name><fips>BM10</fips><woe_label>Sagaing, MM, Myanmar</woe_label><latitude>23</latitude><iso_a2>MM</iso_a2><postal>SA</postal><type>Yin</type><id>MM.SA</id></desc></path></svg>