<?xml version='1.0' encoding='utf-8'?>
<svg height="700" width="700" xmlns="http://www.w3.org/2000/svg"><path d="M404.82625605,212.646974833 L392.307853445,271.489056439 L383.037420432,324.085487401 L404.962889721,356.493879166 L451.587836125,381.201426086 L473.845927559,403.039778942 L502.864271636,403.931515589 L503.74287314,425.111467891 L490.680113085,452.209230944 L449.274242036,505.933522966 L404.255083202,527.81331034 L355.368777288,526.300514713 L353.820452049,477.599788613 L334.206914158,419.87690126 L304.975394628,376.661005686 L262.939123626,352.081616492 L231.927209039,317.266317873 L235.107326892,264.481250584 L235.702489263,245.46141629 L253.693762503,256.600953963 L281.835870589,236.325899884 L278.640525502,191.803351776 L255.205713136,159.340659894 L228.725601254,136.377848084 L256.860847419,109.633020342 L290.54678551,93.6581544283 L329.924360328,115.132574241 L371.660410799,99.5062338646 L386.661456144,108.432750173 L383.563343405,159.105091183 L404.82625605,212.646974833 Z" fill="#cee3f5" id="SM.BM" stroke="#6e6e6e" stroke-width="0.4"><desc><labelrank>20</labelrank><code_hasc>SM.BM</code_hasc><name>Borgo Maggiore</name><admin>San Marino</admin><type_en /><region /><woe_id>20070544</woe_id><longitude>12</longitude><woe_name>Borgo Maggiore</woe_name><fips>SM06</fips><woe_label>Borgo Maggiore, SM, San Marino</woe_label><latitude>43</latitude><iso_a2>SM</iso_a2><postal /><type /><id>SM.BM</id></desc></path><path d="M355.368777288,526.300514713 L344.629520395,576.73556298 L319.198969923,607.676297996 L270.304019404,606.154887226 L246.450356568,586.372539049 L247.242157,561.012907194 L243.516796648,533.3968163 L174.23604392,499.496834074 L119.50770282,489.31417384 L66.7965949546,490.387800547 L43.8881784495,437.719186551 L115.262535704,429.948973749 L169.319248241,412.611382696 L208.231210948,390.562803078 L232.065797138,361.69365001 L231.927209039,317.266317873 L262.939123626,352.081616492 L304.975394628,376.661005686 L334.206914158,419.87690126 L353.820452049,477.599788613 L355.368777288,526.300514713 Z" fill="#cee3f5" id="SM.SM" stroke="#6e6e6e" stroke-width="0.4"><desc><labelrank>20</labelrank><code_hasc>SM.SM</code_hasc><name>San Marino</name><admin>San Marino</admin><type_en /><region /><woe_id>20070545</woe_id><longitude>12</longitude><woe_name>San Marino</woe_name><fips>SM07</fips><woe_label>San Marino, SM, San Marino</woe_label><latitude>43</latitude><iso_a2>SM</iso_a2><postal /><type /><id>SM.SM</id></desc></path><path d="M231.927209039,317.266317873 L232.065797138,361.69365001 L208.231210948,390.562803078 L169.319248241,412.611382696 L115.262535704,429.948973749 L43.8881784495,437.719186551 L106.567987077,252.444978794 L196.484656526,167.01979422 L228.725601254,136.377848084 L255.205713136,159.340659894 L278.640525502,191.803351776 L281.835870589,236.325899884 L253.693762503,256.600953963 L235.702489263,245.46141629 L235.107326892,264.481250584 L231.927209039,317.266317873 Z" fill="#cee3f5" id="SM.AC" stroke="#6e6e6e" stroke-width="0.4"><desc><labelrank>20</labelrank><code_hasc>SM.AC</code_hasc><name>Acquaviva</name><admin>San Marino</admin><type_en /><region /><woe_id>20070543</woe_id><longitude>12</longitude><woe_name>Acquaviva</woe_name><fips>SM01</fips><woe_label>Acquaviva, SM, San Marino</woe_label><latitude>43</latitude><iso_a2>SM</iso_a2><postal /><type /><id>SM.AC</id></desc></path><path d="M648.796078392,138.777336215 L600.518808913,159.43174707 L546.5096021,176.817765976 L497.303360879,236.651680949 L455.047877164,169.776065778 L404.82625605,212.646974833 L383.563343405,159.105091183 L386.661456144,108.432750173 L371.660410799,99.5062338646 L329.924360328,115.132574241 L290.54678551,93.6581544283 L440.457372923,22.5236841697 L604.45167626,0.0 L641.958101054,75.3115779779 L648.796078392,138.777336215 Z" fill="#cee3f5" id="SM.SE" stroke="#6e6e6e" stroke-width="0.4"><desc><labelrank>20</labelrank><code_hasc>SM.SE</code_hasc><name>Serravalle</name><admin>San Marino</admin><type_en /><region /><woe_id>20070551</woe_id><longitude>12</longitude><woe_name>Serravalle</woe_name><fips>SM09</fips><woe_label>Serravalle, SM, San Marino</woe_label><latitude>43</latitude><iso_a2>SM</iso_a2><postal /><type /><id>SM.SE</id></desc></path><path d="M649.408840236,263.828906856 L628.777995951,285.094541525 L593.01478566,305.157121585 L575.830919104,317.324054784 L531.483426583,318.082215082 L501.237368032,357.344961042 L451.587836125,381.201426086 L404.962889721,356.493879166 L383.037420432,324.085487401 L392.307853445,271.489056439 L404.82625605,212.646974833 L455.047877164,169.776065778 L497.303360879,236.651680949 L546.5096021,176.817765976 L600.518808913,159.43174707 L648.796078392,138.777336215 L656.11182155,206.649822987 L649.408840236,263.828906856 Z" fill="#cee3f5" id="SM.DO" stroke="#6e6e6e" stroke-width="0.4"><desc><labelrank>20</labelrank><code_hasc>SM.DO</code_hasc><name>Domagnano</name><admin>San Marino</admin><type_en /><region /><woe_id>20070547</woe_id><longitude>12</longitude><woe_name>Domagnano</woe_name><fips>SM03</fips><woe_label>Domagnano, SM, San Marino</woe_label><latitude>43</latitude><iso_a2>SM</iso_a2><postal /><type /><id>SM.DO</id></desc></path><path d="M566.845386736,464.326114336 L531.726803532,459.814178799 L510.08305218,467.611907269 L490.680113085,452.209230944 L503.74287314,425.111467891 L502.864271636,403.931515589 L473.845927559,403.039778942 L451.587836125,381.201426086 L501.237368032,357.344961042 L531.483426583,318.082215082 L575.830919104,317.324054784 L593.01478566,305.157121585 L628.777995951,285.094541525 L649.408840236,263.828906856 L640.297997078,341.534338609 L596.979869163,418.279480143 L596.960650892,418.313521751 L591.382536783,428.194090344 L576.243524702,444.34880427 L566.845386736,464.326114336 Z" fill="#cee3f5" id="SM.FA" stroke="#6e6e6e" stroke-width="0.4"><desc><labelrank>20</labelrank><code_hasc>SM.FA</code_hasc><name>Faetano</name><admin>San Marino</admin><type_en /><region /><woe_id>20070548</woe_id><longitude>12</longitude><woe_name>Faetano</woe_name><fips>SM04</fips><woe_label>Faetano, SM, San Marino</woe_label><latitude>43</latitude><iso_a2>SM</iso_a2><postal /><type /><id>SM.FA</id></desc></path><path d="M566.845386736,464.326114336 L563.072502282,489.036583235 L566.842152021,512.782871025 L484.090585997,643.299041276 L478.88663544,587.225937776 L484.963317418,538.760826608 L491.982710712,509.362270083 L506.444535672,486.53792697 L510.08305218,467.611907269 L531.726803532,459.814178799 L566.845386736,464.326114336 Z" fill="#cee3f5" id="SM.MG" stroke="#6e6e6e" stroke-width="0.4"><desc><labelrank>20</labelrank><code_hasc>SM.MG</code_hasc><name>Montegiardino</name><admin>San Marino</admin><type_en /><region /><woe_id>20070550</woe_id><longitude>12</longitude><woe_name>Montegiardino</woe_name><fips>SM08</fips><woe_label>Montegiardino, SM, San Marino</woe_label><latitude>43</latitude><iso_a2>SM</iso_a2><postal /><type /><id>SM.MG</id></desc></path><path d="M510.08305218,467.611907269 L506.444535672,486.53792697 L491.982710712,509.362270083 L484.963317418,538.760826608 L478.88663544,587.225937776 L484.090585997,643.299041276 L460.601527085,680.331140041 L351.373309125,692.513968163 L341.135367955,640.087193848 L319.198969923,607.676297996 L344.629520395,576.73556298 L355.368777288,526.300514713 L404.255083202,527.81331034 L449.274242036,505.933522966 L490.680113085,452.209230944 L510.08305218,467.611907269 Z" fill="#cee3f5" id="SM.FI" stroke="#6e6e6e" stroke-width="0.4"><desc><labelrank>20</labelrank><code_hasc>SM.FI</code_hasc><name>Fiorentino</name><admin>San Marino</admin><type_en /><region /><woe_id>20070549</woe_id><longitude>12</longitude><woe_name>Fiorentino</woe_name><fips>SM05</fips><woe_label>Fiorentino, SM, San Marino</woe_label><latitude>43</latitude><iso_a2>SM</iso_a2><postal /><type /><id>SM.FI</id></desc></path><path d="M319.198969923,607.676297996 L341.135367955,640.087193848 L351.373309125,692.513968163 L284.139052248,700.0 L237.62449623,674.095118916 L117.644599578,607.240939556 L66.7965949546,490.387800547 L119.50770282,489.31417384 L174.23604392,499.496834074 L243.516796648,533.3968163 L247.242157,561.012907194 L246.450356568,586.372539049 L270.304019404,606.154887226 L319.198969923,607.676297996 Z" fill="#cee3f5" id="SM.CH" stroke="#6e6e6e" stroke-width="0.4"><desc><labelrank>20</labelrank><code_hasc>SM.CH</code_hasc><name>Chiesanuova</name><admin>San Marino</admin><type_en /><region /><woe_id>20070546</woe_id><longitude>12</longitude><woe_name>Chiesanuova</woe_name><fips>SM02</fips><woe_label>Chiesanuova, SM, San Marino</woe_label><latitude>43</latitude><iso_a2>SM</iso_a2><postal /><type /><id>SM.CH</id></desc></path></svg>