<?xml version='1.0' encoding='utf-8'?>
<svg height="700" width="700" xmlns="http://www.w3.org/2000/svg"><path d="M677.868852459,209.836065574 L678.68852459,213.93442623 L679.508196721,214.754098361 L678.68852459,216.393442623 L674.590163934,218.032786885 L674.590163934,222.131147541 L667.213114754,223.770491803 L668.032786885,231.147540984 L666.393442623,241.803278689 L668.032786885,247.540983607 L666.393442623,248.360655738 L666.393442623,250.0 L668.852459016,254.098360656 L672.131147541,259.836065574 L670.491803279,266.393442623 L671.31147541,268.032786885 L673.770491803,269.672131148 L681.147540984,270.491803279 L683.606557377,272.131147541 L684.426229508,273.770491803 L679.508196721,277.868852459 L677.049180328,279.508196721 L671.31147541,280.327868852 L668.852459016,281.147540984 L659.836065574,281.147540984 L651.639344262,274.590163934 L648.360655738,272.131147541 L646.721311475,266.393442623 L645.081967213,261.475409836 L640.983606557,259.016393443 L640.163934426,254.918032787 L636.885245902,249.180327869 L636.885245902,245.081967213 L636.885245902,243.442622951 L640.983606557,234.426229508 L637.704918033,229.508196721 L636.885245902,227.868852459 L638.524590164,226.229508197 L640.983606557,224.590163934 L642.62295082,222.950819672 L650.0,223.770491803 L654.098360656,222.950819672 L661.475409836,223.770491803 L664.754098361,221.31147541 L665.573770492,217.213114754 L668.852459016,214.754098361 L670.491803279,212.295081967 L667.213114754,212.295081967 L665.573770492,210.655737705 L663.114754098,210.655737705 L664.754098361,207.37704918 L668.032786885,206.557377049 L672.950819672,208.196721311 L672.950819672,209.836065574 L673.770491803,210.655737705 L677.868852459,209.836065574 M666.393442623,159.836065574 L664.754098361,160.655737705 L658.196721311,162.295081967 L653.278688525,162.295081967 L647.540983607,167.213114754 L644.262295082,168.852459016 L640.983606557,168.852459016 L640.163934426,169.672131148 L639.344262295,171.31147541 L641.803278689,183.606557377 L645.901639344,184.426229508 L653.278688525,184.426229508 L657.37704918,182.786885246 L659.016393443,182.786885246 L662.295081967,185.245901639 L663.114754098,187.704918033 L661.475409836,190.163934426 L657.37704918,194.262295082 L659.016393443,196.721311475 L663.114754098,197.540983607 L663.93442623,198.360655738 L663.93442623,202.459016393 L661.475409836,203.278688525 L658.196721311,205.737704918 L655.737704918,205.737704918 L648.360655738,203.278688525 L644.262295082,200.0 L640.983606557,198.360655738 L639.344262295,199.180327869 L638.524590164,204.098360656 L636.06557377,208.196721311 L633.606557377,204.918032787 L627.049180328,198.360655738 L627.049180328,196.721311475 L627.049180328,195.901639344 L627.868852459,194.262295082 L627.868852459,193.442622951 L627.049180328,191.803278689 L621.31147541,186.885245902 L620.491803279,184.426229508 L619.672131148,176.229508197 L615.573770492,163.93442623 L614.754098361,163.114754098 L613.93442623,162.295081967 L610.655737705,162.295081967 L607.37704918,159.016393443 L610.655737705,155.737704918 L613.93442623,154.918032787 L617.213114754,152.459016393 L621.31147541,151.639344262 L626.229508197,147.540983607 L634.426229508,138.524590164 L638.524590164,135.245901639 L635.245901639,142.62295082 L636.06557377,143.442622951 L636.885245902,143.442622951 L637.704918033,143.442622951 L639.344262295,134.426229508 L646.721311475,127.868852459 L648.360655738,124.590163934 L650.0,119.672131148 L649.180327869,119.672131148 L647.540983607,122.131147541 L645.081967213,123.770491803 L652.459016393,111.475409836 L655.737704918,100.819672131 L666.393442623,99.1803278689 L668.032786885,99.1803278689 L671.31147541,108.196721311 L669.672131148,114.754098361 L668.852459016,127.868852459 L665.573770492,133.606557377 L664.754098361,136.06557377 L665.573770492,138.524590164 L668.852459016,142.62295082 L669.672131148,144.262295082 L668.032786885,145.901639344 L664.754098361,149.180327869 L665.573770492,158.196721311 L666.393442623,159.836065574 Z" fill="#cee3f5" id="AE.RK" stroke="#6e6e6e" stroke-width="0.4"><desc><labelrank>9</labelrank><code_hasc>AE.RK</code_hasc><name>Ras Al Khaymah</name><admin>United Arab Emirates</admin><type_en>Emirate</type_en><region /><woe_id>2347113</woe_id><longitude>55</longitude><woe_name>Ras Al Khaymah</woe_name><fips>AE05</fips><woe_label>Ras Al Khaimah, AE, United Arab Emirates</woe_label><latitude>25</latitude><iso_a2>AE</iso_a2><postal>RK</postal><type>Emirate</type><id>AE.RK</id></desc></path><path d="M633.606557377,204.918032787 L631.147540984,204.918032787 L631.147540984,204.918032787 L630.327868852,205.737704918 L631.967213115,209.836065574 L631.967213115,210.655737705 L631.147540984,211.475409836 L630.327868852,212.295081967 L622.131147541,214.754098361 L618.852459016,214.754098361 L617.213114754,214.754098361 L616.393442623,213.93442623 L614.754098361,212.295081967 L613.93442623,209.016393443 L612.295081967,204.918032787 L611.475409836,203.278688525 L609.836065574,201.639344262 L603.278688525,195.901639344 L600.0,194.262295082 L590.163934426,190.983606557 L583.606557377,186.06557377 L574.590163934,181.147540984 L573.770491803,180.327868852 L573.770491803,180.327868852 L577.049180328,173.770491803 L578.68852459,171.31147541 L581.147540984,170.491803279 L577.868852459,176.229508197 L578.68852459,178.68852459 L581.147540984,179.508196721 L590.163934426,177.049180328 L594.262295082,168.852459016 L600.819672131,163.114754098 L605.737704918,161.475409836 L607.37704918,159.016393443 L610.655737705,162.295081967 L613.93442623,162.295081967 L614.754098361,163.114754098 L615.573770492,163.93442623 L619.672131148,176.229508197 L620.491803279,184.426229508 L621.31147541,186.885245902 L627.049180328,191.803278689 L627.868852459,193.442622951 L627.868852459,194.262295082 L627.049180328,195.901639344 L627.049180328,196.721311475 L627.049180328,198.360655738 L633.606557377,204.918032787 Z" fill="#cee3f5" id="AE.UQ" stroke="#6e6e6e" stroke-width="0.4"><desc><labelrank>9</labelrank><code_hasc>AE.UQ</code_hasc><name>Umm Al Qaywayn</name><admin>United Arab Emirates</admin><type_en>Emirate</type_en><region /><woe_id>2347115</woe_id><longitude>55</longitude><woe_name>Umm Al Qaywayn</woe_name><fips>AE07</fips><woe_label>Umm Al Quwain, AE, United Arab Emirates</woe_label><latitude>25</latitude><iso_a2>AE</iso_a2><postal>UQ</postal><type>Emirate</type><id>AE.UQ</id></desc></path><path d="M684.426229508,268.032786885 L688.524590164,268.852459016 L690.163934426,268.032786885 L690.163934426,268.032786885 L689.344262295,270.491803279 L684.426229508,273.770491803 L683.606557377,272.131147541 L681.147540984,270.491803279 L681.967213115,268.032786885 L684.426229508,268.032786885 M696.721311475,245.081967213 L688.524590164,243.442622951 L686.06557377,244.262295082 L688.524590164,253.278688525 L688.524590164,256.557377049 L686.885245902,258.196721311 L685.245901639,262.295081967 L683.606557377,263.93442623 L681.147540984,259.016393443 L670.491803279,248.360655738 L668.032786885,247.540983607 L666.393442623,241.803278689 L668.032786885,231.147540984 L667.213114754,223.770491803 L674.590163934,222.131147541 L674.590163934,222.950819672 L678.68852459,224.590163934 L681.147540984,223.770491803 L686.885245902,219.672131148 L694.262295082,216.393442623 L695.081967213,212.295081967 L700.0,209.016393443 L697.540983607,224.590163934 L696.721311475,245.081967213 M697.540983607,193.442622951 L690.983606557,199.180327869 L683.606557377,203.278688525 L681.967213115,207.37704918 L677.868852459,209.836065574 L673.770491803,210.655737705 L672.950819672,209.836065574 L672.950819672,208.196721311 L668.032786885,206.557377049 L664.754098361,207.37704918 L663.114754098,210.655737705 L665.573770492,210.655737705 L667.213114754,212.295081967 L670.491803279,212.295081967 L668.852459016,214.754098361 L665.573770492,217.213114754 L664.754098361,221.31147541 L661.475409836,223.770491803 L654.098360656,222.950819672 L650.0,223.770491803 L642.62295082,222.950819672 L642.62295082,218.852459016 L640.983606557,213.93442623 L644.262295082,211.475409836 L645.081967213,209.836065574 L645.081967213,208.196721311 L641.803278689,207.37704918 L644.262295082,200.0 L648.360655738,203.278688525 L655.737704918,205.737704918 L658.196721311,205.737704918 L661.475409836,203.278688525 L663.93442623,202.459016393 L663.93442623,198.360655738 L663.114754098,197.540983607 L659.016393443,196.721311475 L657.37704918,194.262295082 L661.475409836,190.163934426 L663.114754098,187.704918033 L662.295081967,185.245901639 L659.016393443,182.786885246 L657.37704918,182.786885246 L653.278688525,184.426229508 L645.901639344,184.426229508 L641.803278689,183.606557377 L639.344262295,171.31147541 L640.163934426,169.672131148 L640.983606557,168.852459016 L644.262295082,168.852459016 L647.540983607,167.213114754 L653.278688525,162.295081967 L658.196721311,162.295081967 L664.754098361,160.655737705 L666.393442623,159.836065574 L670.491803279,160.655737705 L672.131147541,161.475409836 L674.590163934,165.573770492 L676.229508197,166.393442623 L685.245901639,163.93442623 L687.704918033,165.573770492 L693.442622951,167.213114754 L695.081967213,168.852459016 L698.360655738,178.68852459 L697.540983607,193.442622951 Z" fill="#cee3f5" id="AE.FU" stroke="#6e6e6e" stroke-width="0.4"><desc><labelrank>9</labelrank><code_hasc>AE.FU</code_hasc><name>Fujayrah</name><admin>United Arab Emirates</admin><type_en>Emirate</type_en><region /><woe_id>2347112</woe_id><longitude>56</longitude><woe_name>Fujayrah</woe_name><fips>AE04</fips><woe_label>Fujairah, AE, United Arab Emirates</woe_label><latitude>25</latitude><iso_a2>AE</iso_a2><postal>FU</postal><type>Emirate</type><id>AE.FU</id></desc></path><path d="M690.163934426,265.573770492 L690.163934426,268.032786885 L690.163934426,268.032786885 L688.524590164,268.852459016 L684.426229508,268.032786885 L683.606557377,265.573770492 L683.606557377,263.93442623 L685.245901639,262.295081967 L687.704918033,264.754098361 L689.344262295,265.573770492 L690.163934426,265.573770492 L690.163934426,265.573770492 Z" fill="#cee3f5" id="AE.740" stroke="#6e6e6e" stroke-width="0.4"><desc><labelrank>9</labelrank><code_hasc>AE.</code_hasc><name>Neutral Zone</name><admin>United Arab Emirates</admin><type_en>Emirate</type_en><region /><woe_id>-2347114</woe_id><longitude>56</longitude><woe_name /><fips /><woe_label /><latitude>24</latitude><iso_a2>AE</iso_a2><postal>FU</postal><type>Emirate</type><id>AE.740</id></desc></path><path d="M640.983606557,213.93442623 L639.344262295,210.655737705 L639.344262295,209.836065574 L639.344262295,209.016393443 L641.803278689,207.37704918 L645.081967213,208.196721311 L645.081967213,209.836065574 L644.262295082,211.475409836 L640.983606557,213.93442623 M560.655737705,198.360655738 L563.114754098,195.081967213 L563.93442623,195.081967213 L563.93442623,196.721311475 L564.754098361,197.540983607 L566.393442623,194.262295082 L567.213114754,195.081967213 L570.491803279,188.524590164 L580.327868852,192.62295082 L590.163934426,194.262295082 L590.983606557,195.081967213 L587.704918033,202.459016393 L586.06557377,203.278688525 L573.770491803,202.459016393 L563.93442623,200.0 L560.655737705,198.360655738 Z" fill="#cee3f5" id="AE.AJ" stroke="#6e6e6e" stroke-width="0.4"><desc><labelrank>9</labelrank><code_hasc>AE.AJ</code_hasc><name>Ajman</name><admin>United Arab Emirates</admin><type_en>Emirate</type_en><region /><woe_id>2347110</woe_id><longitude>55</longitude><woe_name>Ajman</woe_name><fips>AE02</fips><woe_label>Ajman, AE, United Arab Emirates</woe_label><latitude>25</latitude><iso_a2>AE</iso_a2><postal>AJ</postal><type>Emirate</type><id>AE.AJ</id></desc></path><path d="M648.360655738,275.409836066 L648.360655738,272.131147541 L651.639344262,274.590163934 L659.836065574,281.147540984 L654.918032787,291.803278689 L655.737704918,294.262295082 L653.278688525,294.262295082 L649.180327869,290.983606557 L644.262295082,281.147540984 L639.344262295,276.229508197 L638.524590164,274.590163934 L638.524590164,272.950819672 L640.983606557,272.131147541 L645.081967213,272.950819672 L648.360655738,275.409836066 Z" fill="#cee3f5" id="AE.742" stroke="#6e6e6e" stroke-width="0.4"><desc><labelrank>9</labelrank><code_hasc>AE.</code_hasc><name>Neutral Zone</name><admin>United Arab Emirates</admin><type_en>Emirate</type_en><region /><woe_id>-2347110</woe_id><longitude>56</longitude><woe_name /><fips /><woe_label /><latitude>24</latitude><iso_a2>AE</iso_a2><postal /><type>Emirate</type><id>AE.742</id></desc></path><path d="M684.426229508,268.032786885 L681.967213115,268.032786885 L681.147540984,270.491803279 L673.770491803,269.672131148 L671.31147541,268.032786885 L670.491803279,266.393442623 L672.131147541,259.836065574 L668.852459016,254.098360656 L666.393442623,250.0 L666.393442623,248.360655738 L668.032786885,247.540983607 L670.491803279,248.360655738 L681.147540984,259.016393443 L683.606557377,263.93442623 L683.606557377,265.573770492 L684.426229508,268.032786885 M685.245901639,262.295081967 L686.885245902,258.196721311 L688.524590164,256.557377049 L688.524590164,253.278688525 L686.06557377,244.262295082 L688.524590164,243.442622951 L696.721311475,245.081967213 L696.721311475,246.721311475 L700.0,258.196721311 L691.803278689,259.016393443 L690.983606557,260.655737705 L690.163934426,265.573770492 L690.163934426,265.573770492 L689.344262295,265.573770492 L687.704918033,264.754098361 L685.245901639,262.295081967 M685.245901639,218.032786885 L682.786885246,218.852459016 L681.967213115,215.573770492 L682.786885246,214.754098361 L684.426229508,214.754098361 L686.06557377,215.573770492 L685.245901639,218.032786885 M695.081967213,212.295081967 L689.344262295,211.475409836 L686.885245902,207.37704918 L681.967213115,207.37704918 L683.606557377,203.278688525 L690.983606557,199.180327869 L697.540983607,193.442622951 L697.540983607,197.540983607 L696.721311475,200.819672131 L696.721311475,201.639344262 L700.0,209.016393443 L695.081967213,212.295081967 M633.606557377,204.918032787 L636.06557377,208.196721311 L638.524590164,204.098360656 L639.344262295,199.180327869 L640.983606557,198.360655738 L644.262295082,200.0 L641.803278689,207.37704918 L639.344262295,209.016393443 L639.344262295,209.836065574 L639.344262295,210.655737705 L640.983606557,213.93442623 L642.62295082,218.852459016 L642.62295082,222.950819672 L640.983606557,224.590163934 L638.524590164,226.229508197 L636.885245902,227.868852459 L637.704918033,229.508196721 L640.983606557,234.426229508 L636.885245902,243.442622951 L636.885245902,245.081967213 L636.885245902,249.180327869 L640.163934426,254.918032787 L640.983606557,259.016393443 L635.245901639,258.196721311 L629.508196721,259.836065574 L624.590163934,263.114754098 L619.672131148,266.393442623 L614.754098361,272.131147541 L613.93442623,276.229508197 L614.754098361,287.704918033 L613.93442623,295.901639344 L615.573770492,300.0 L607.37704918,300.0 L596.721311475,297.540983607 L597.540983607,293.442622951 L597.540983607,288.524590164 L595.901639344,277.868852459 L595.081967213,270.491803279 L594.262295082,267.213114754 L589.344262295,255.737704918 L590.163934426,253.278688525 L593.442622951,250.0 L594.262295082,248.360655738 L590.163934426,231.147540984 L588.524590164,228.68852459 L586.06557377,226.229508197 L576.229508197,219.672131148 L572.131147541,217.213114754 L568.032786885,214.754098361 L563.93442623,210.655737705 L558.196721311,212.295081967 L554.098360656,213.114754098 L545.901639344,210.655737705 L548.360655738,209.016393443 L551.639344262,208.196721311 L550.819672131,204.918032787 L551.639344262,203.278688525 L554.098360656,202.459016393 L554.918032787,203.278688525 L558.196721311,200.819672131 L560.655737705,198.360655738 L563.93442623,200.0 L573.770491803,202.459016393 L586.06557377,203.278688525 L587.704918033,202.459016393 L590.983606557,195.081967213 L590.163934426,194.262295082 L580.327868852,192.62295082 L570.491803279,188.524590164 L572.950819672,186.06557377 L570.491803279,185.245901639 L571.31147541,183.606557377 L573.770491803,181.147540984 L573.770491803,180.327868852 L573.770491803,180.327868852 L574.590163934,181.147540984 L583.606557377,186.06557377 L590.163934426,190.983606557 L600.0,194.262295082 L603.278688525,195.901639344 L609.836065574,201.639344262 L611.475409836,203.278688525 L612.295081967,204.918032787 L613.93442623,209.016393443 L614.754098361,212.295081967 L616.393442623,213.93442623 L617.213114754,214.754098361 L618.852459016,214.754098361 L622.131147541,214.754098361 L624.590163934,214.754098361 L630.327868852,212.295081967 L631.147540984,211.475409836 L631.967213115,210.655737705 L631.967213115,209.836065574 L630.327868852,205.737704918 L631.147540984,204.918032787 L631.147540984,204.918032787 L633.606557377,204.918032787 Z" fill="#cee3f5" id="AE.SH" stroke="#6e6e6e" stroke-width="0.4"><desc><labelrank>7</labelrank><code_hasc>AE.SH</code_hasc><name>Sharjah</name><admin>United Arab Emirates</admin><type_en>Emirate</type_en><region /><woe_id>2347114</woe_id><longitude>55</longitude><woe_name>Sharjah</woe_name><fips>AE06</fips><woe_label>Sharjah, AE, United Arab Emirates</woe_label><latitude>25</latitude><iso_a2>AE</iso_a2><postal>SH</postal><type>Emirate</type><id>AE.SH</id></desc></path><path d="M65.5737704918,368.852459016 L63.9344262295,369.672131148 L62.2950819672,368.852459016 L63.9344262295,363.93442623 L65.5737704918,363.114754098 L66.393442623,364.754098361 L65.5737704918,368.852459016 M333.606557377,366.393442623 L337.704918033,368.852459016 L342.62295082,369.672131148 L346.721311475,371.31147541 L348.360655738,375.409836066 L346.721311475,378.68852459 L341.803278689,380.327868852 L336.885245902,380.327868852 L332.786885246,378.68852459 L332.786885246,377.049180328 L331.967213115,375.409836066 L330.327868852,374.590163934 L328.68852459,377.868852459 L329.508196721,378.68852459 L325.409836066,381.147540984 L320.491803279,381.967213115 L315.573770492,381.147540984 L307.37704918,377.868852459 L299.180327869,377.049180328 L299.180327869,375.409836066 L301.639344262,373.770491803 L309.016393443,370.491803279 L313.114754098,367.213114754 L317.213114754,366.393442623 L320.491803279,368.032786885 L324.590163934,364.754098361 L330.327868852,362.295081967 L331.147540984,360.655737705 L331.967213115,362.295081967 L331.147540984,363.93442623 L333.606557377,366.393442623 M382.786885246,363.93442623 L381.147540984,368.032786885 L379.508196721,364.754098361 L372.950819672,363.114754098 L369.672131148,361.475409836 L368.032786885,357.37704918 L370.491803279,354.098360656 L373.770491803,353.278688525 L381.147540984,360.655737705 L382.786885246,363.93442623 M389.344262295,359.836065574 L386.885245902,359.836065574 L383.606557377,356.557377049 L380.327868852,354.918032787 L379.508196721,354.098360656 L380.327868852,351.639344262 L382.786885246,349.180327869 L387.704918033,348.360655738 L390.163934426,353.278688525 L393.442622951,356.557377049 L389.344262295,359.836065574 M151.639344262,361.475409836 L149.180327869,363.93442623 L146.721311475,362.295081967 L143.442622951,355.737704918 L144.262295082,353.278688525 L148.360655738,348.360655738 L151.639344262,346.721311475 L154.918032787,347.540983607 L156.557377049,350.0 L157.37704918,353.278688525 L157.37704918,355.737704918 L154.098360656,359.836065574 L151.639344262,361.475409836 M402.459016393,347.540983607 L402.459016393,350.0 L400.819672131,354.098360656 L398.360655738,354.918032787 L394.262295082,347.540983607 L396.721311475,347.540983607 L399.180327869,349.180327869 L398.360655738,347.540983607 L396.721311475,345.901639344 L395.901639344,345.081967213 L397.540983607,344.262295082 L402.459016393,347.540983607 M270.491803279,353.278688525 L262.295081967,356.557377049 L258.196721311,357.37704918 L256.557377049,359.016393443 L256.557377049,360.655737705 L254.918032787,362.295081967 L253.278688525,359.836065574 L250.819672131,359.836065574 L248.360655738,359.016393443 L246.721311475,360.655737705 L239.344262295,359.836065574 L235.245901639,360.655737705 L235.245901639,359.836065574 L236.06557377,356.557377049 L241.803278689,357.37704918 L243.442622951,357.37704918 L255.737704918,351.639344262 L257.37704918,351.639344262 L259.016393443,354.098360656 L259.836065574,354.918032787 L261.475409836,354.098360656 L261.475409836,350.819672131 L260.655737705,350.0 L266.393442623,342.62295082 L268.852459016,340.983606557 L269.672131148,343.442622951 L272.950819672,345.081967213 L272.131147541,350.819672131 L270.491803279,353.278688525 M422.131147541,338.524590164 L419.672131148,339.344262295 L416.393442623,338.524590164 L402.459016393,334.426229508 L402.459016393,332.786885246 L408.196721311,327.868852459 L409.836065574,324.590163934 L411.475409836,324.590163934 L409.836065574,327.868852459 L411.475409836,330.327868852 L413.93442623,331.967213115 L418.852459016,334.426229508 L422.131147541,336.885245902 L422.131147541,338.524590164 M110.655737705,331.147540984 L108.196721311,331.147540984 L104.098360656,328.68852459 L104.098360656,326.229508197 L106.557377049,322.950819672 L108.196721311,322.131147541 L111.475409836,324.590163934 L112.295081967,327.868852459 L110.655737705,331.147540984 M24.5901639344,313.93442623 L24.5901639344,314.754098361 L23.7704918033,318.852459016 L22.9508196721,318.032786885 L22.9508196721,314.754098361 L22.131147541,315.573770492 L22.131147541,313.93442623 L22.131147541,314.754098361 L22.131147541,315.573770492 L21.3114754098,314.754098361 L21.3114754098,313.114754098 L22.9508196721,312.295081967 L24.5901639344,313.93442623 M220.491803279,273.770491803 L219.672131148,276.229508197 L217.213114754,273.770491803 L216.393442623,272.131147541 L217.213114754,270.491803279 L219.672131148,271.31147541 L220.491803279,273.770491803 M596.721311475,297.540983607 L607.37704918,300.0 L615.573770492,300.0 L617.213114754,304.098360656 L618.032786885,307.37704918 L613.93442623,310.655737705 L613.114754098,315.573770492 L609.016393443,319.672131148 L609.836065574,322.950819672 L611.475409836,328.68852459 L610.655737705,336.885245902 L611.475409836,338.524590164 L616.393442623,342.62295082 L616.393442623,350.819672131 L609.836065574,362.295081967 L608.196721311,364.754098361 L609.016393443,367.213114754 L619.672131148,369.672131148 L622.131147541,369.672131148 L630.327868852,367.213114754 L634.426229508,368.852459016 L636.885245902,373.770491803 L638.524590164,380.327868852 L644.262295082,388.524590164 L642.62295082,390.983606557 L632.786885246,393.442622951 L616.393442623,400.0 L613.93442623,399.180327869 L609.836065574,396.721311475 L604.918032787,397.540983607 L592.62295082,396.721311475 L588.524590164,397.540983607 L577.868852459,402.459016393 L571.31147541,404.918032787 L565.573770492,405.737704918 L564.754098361,408.196721311 L566.393442623,410.655737705 L568.852459016,413.114754098 L573.770491803,415.573770492 L576.229508197,418.852459016 L577.049180328,434.426229508 L576.229508197,436.06557377 L568.852459016,447.540983607 L563.93442623,465.573770492 L553.278688525,477.868852459 L551.639344262,482.786885246 L549.180327869,497.540983607 L545.901639344,505.737704918 L531.967213115,528.68852459 L527.049180328,542.62295082 L527.049180328,546.721311475 L527.868852459,568.032786885 L526.229508197,589.344262295 L516.393442623,600.819672131 L513.93442623,600.819672131 L413.114754098,588.524590164 L312.295081967,576.229508197 L190.983606557,561.475409836 L147.540983607,555.737704918 L144.262295082,554.918032787 L140.983606557,552.459016393 L80.3278688525,480.327868852 L4.09836065574,389.344262295 L1.6393442623,386.06557377 L0.819672131148,381.967213115 L0.819672131148,368.852459016 L0.0,363.114754098 L3.27868852459,359.016393443 L3.27868852459,353.278688525 L0.819672131148,347.540983607 L4.09836065574,345.081967213 L8.19672131148,351.639344262 L9.01639344262,354.098360656 L9.01639344262,362.295081967 L9.83606557377,368.032786885 L11.4754098361,368.852459016 L13.9344262295,367.213114754 L15.5737704918,360.655737705 L18.0327868852,366.393442623 L19.6721311475,368.032786885 L22.131147541,368.032786885 L22.9508196721,367.213114754 L22.9508196721,367.213114754 L22.131147541,366.393442623 L25.4098360656,360.655737705 L27.868852459,358.196721311 L31.1475409836,362.295081967 L31.1475409836,365.573770492 L29.5081967213,375.409836066 L29.5081967213,378.68852459 L31.9672131148,385.245901639 L31.9672131148,393.442622951 L35.2459016393,400.819672131 L38.5245901639,401.639344262 L45.9016393443,401.639344262 L47.5409836066,402.459016393 L52.4590163934,405.737704918 L53.2786885246,405.737704918 L54.0983606557,404.918032787 L53.2786885246,402.459016393 L55.737704918,401.639344262 L65.5737704918,402.459016393 L72.9508196721,405.737704918 L80.3278688525,404.918032787 L82.7868852459,405.737704918 L83.606557377,404.918032787 L85.2459016393,405.737704918 L87.7049180328,404.918032787 L95.0819672131,404.098360656 L103.278688525,400.819672131 L112.295081967,400.0 L118.032786885,395.081967213 L125.409836066,393.442622951 L127.049180328,391.803278689 L129.508196721,388.524590164 L133.606557377,386.885245902 L140.163934426,381.147540984 L146.721311475,378.68852459 L147.540983607,371.31147541 L150.0,370.491803279 L152.459016393,371.31147541 L154.918032787,372.950819672 L159.836065574,379.508196721 L161.475409836,380.327868852 L163.93442623,378.68852459 L167.213114754,378.68852459 L176.229508197,380.327868852 L182.786885246,378.68852459 L188.524590164,379.508196721 L200.819672131,380.327868852 L207.37704918,378.68852459 L208.196721311,376.229508197 L209.016393443,376.229508197 L215.573770492,381.967213115 L218.032786885,382.786885246 L223.770491803,380.327868852 L229.508196721,382.786885246 L231.967213115,382.786885246 L230.327868852,381.147540984 L228.68852459,376.229508197 L231.967213115,376.229508197 L236.06557377,377.868852459 L239.344262295,380.327868852 L245.081967213,386.06557377 L253.278688525,386.885245902 L272.950819672,383.606557377 L277.868852459,386.885245902 L281.967213115,387.704918033 L283.606557377,386.885245902 L289.344262295,389.344262295 L291.803278689,392.62295082 L294.262295082,394.262295082 L297.540983607,393.442622951 L300.0,392.62295082 L304.098360656,393.442622951 L310.655737705,390.163934426 L314.754098361,391.803278689 L331.967213115,391.803278689 L336.06557377,390.983606557 L346.721311475,385.245901639 L355.737704918,384.426229508 L365.573770492,380.327868852 L371.31147541,379.508196721 L376.229508197,377.049180328 L378.68852459,374.590163934 L379.508196721,372.131147541 L381.147540984,371.31147541 L390.163934426,368.852459016 L398.360655738,363.114754098 L399.180327869,363.114754098 L400.819672131,361.475409836 L403.278688525,361.475409836 L409.016393443,363.93442623 L410.655737705,362.295081967 L415.573770492,358.196721311 L418.032786885,354.918032787 L423.770491803,344.262295082 L422.950819672,340.983606557 L423.770491803,338.524590164 L426.229508197,337.704918033 L423.770491803,336.885245902 L423.770491803,336.06557377 L426.229508197,336.06557377 L431.967213115,337.704918033 L431.147540984,336.06557377 L428.68852459,333.606557377 L427.868852459,331.967213115 L434.426229508,334.426229508 L436.06557377,336.06557377 L436.885245902,336.06557377 L436.885245902,331.967213115 L433.606557377,330.327868852 L426.229508197,329.508196721 L417.213114754,324.590163934 L413.93442623,323.770491803 L413.93442623,322.950819672 L418.032786885,321.31147541 L418.852459016,319.672131148 L419.672131148,322.131147541 L421.31147541,322.950819672 L420.491803279,321.31147541 L421.31147541,320.491803279 L422.950819672,318.032786885 L423.770491803,318.032786885 L425.409836066,322.131147541 L427.868852459,325.409836066 L431.967213115,327.868852459 L435.245901639,327.868852459 L431.967213115,325.409836066 L438.524590164,327.049180328 L440.983606557,323.770491803 L445.901639344,313.93442623 L443.442622951,313.114754098 L442.62295082,311.475409836 L443.442622951,310.655737705 L446.721311475,309.016393443 L448.360655738,304.918032787 L450.819672131,304.098360656 L450.819672131,303.278688525 L450.0,302.459016393 L448.360655738,296.721311475 L449.180327869,295.901639344 L446.721311475,294.262295082 L446.721311475,291.803278689 L454.098360656,286.885245902 L456.557377049,283.606557377 L460.655737705,286.06557377 L463.114754098,285.245901639 L465.573770492,284.426229508 L466.393442623,281.967213115 L463.93442623,280.327868852 L479.508196721,271.31147541 L494.262295082,261.475409836 L497.540983607,260.655737705 L500.0,259.836065574 L500.819672131,261.475409836 L518.852459016,308.196721311 L522.131147541,313.114754098 L527.868852459,313.93442623 L559.016393443,313.114754098 L563.114754098,312.295081967 L567.213114754,310.655737705 L577.049180328,305.737704918 L593.442622951,300.0 L596.721311475,297.540983607 M191.803278689,233.606557377 L191.803278689,236.06557377 L190.163934426,234.426229508 L190.163934426,231.967213115 L191.803278689,233.606557377 M386.885245902,219.672131148 L388.524590164,225.409836066 L386.885245902,224.590163934 L384.426229508,224.590163934 L381.967213115,221.31147541 L384.426229508,218.852459016 L386.885245902,219.672131148 Z" fill="#cee3f5" id="AE.AZ" stroke="#6e6e6e" stroke-width="0.4"><desc><labelrank>6</labelrank><code_hasc>AE.AZ</code_hasc><name>Abu Dhabi</name><admin>United Arab Emirates</admin><type_en>Emirate</type_en><region /><woe_id>2347109</woe_id><longitude>54</longitude><woe_name>Abu Dhabi</woe_name><fips>AE01</fips><woe_label>Abu Dhabi, AE, United Arab Emirates</woe_label><latitude>23</latitude><iso_a2>AE</iso_a2><postal>AZ</postal><type>Emirate</type><id>AE.AZ</id></desc></path><path d="M659.836065574,281.147540984 L668.852459016,281.147540984 L666.393442623,286.06557377 L663.93442623,290.163934426 L663.114754098,292.62295082 L661.475409836,293.442622951 L655.737704918,294.262295082 L654.918032787,291.803278689 L659.836065574,281.147540984 M508.196721311,249.180327869 L508.196721311,250.0 L505.737704918,251.639344262 L504.918032787,250.819672131 L506.557377049,250.0 L504.918032787,250.819672131 L505.737704918,251.639344262 L508.196721311,250.0 L508.196721311,249.180327869 L506.557377049,250.0 L508.196721311,249.180327869 M520.491803279,242.62295082 L519.672131148,241.803278689 L520.491803279,240.983606557 L520.491803279,242.62295082 M517.213114754,241.803278689 L519.672131148,241.803278689 L517.213114754,241.803278689 L516.393442623,240.983606557 L517.213114754,241.803278689 M522.131147541,239.344262295 L522.131147541,240.163934426 L522.131147541,239.344262295 L522.950819672,239.344262295 L522.131147541,239.344262295 M518.852459016,238.524590164 L521.31147541,236.885245902 L518.852459016,238.524590164 L521.31147541,237.704918033 L518.852459016,238.524590164 L521.31147541,238.524590164 L519.672131148,239.344262295 L521.31147541,238.524590164 L519.672131148,239.344262295 L521.31147541,239.344262295 L521.31147541,240.983606557 L519.672131148,240.163934426 L519.672131148,239.344262295 L518.852459016,240.983606557 L518.852459016,239.344262295 L518.852459016,240.983606557 L518.852459016,239.344262295 L518.032786885,240.983606557 L518.852459016,239.344262295 L517.213114754,240.983606557 L518.852459016,238.524590164 L516.393442623,240.163934426 L518.852459016,238.524590164 L516.393442623,239.344262295 L518.032786885,238.524590164 L516.393442623,238.524590164 L518.032786885,238.524590164 L517.213114754,238.524590164 L517.213114754,237.704918033 L518.032786885,237.704918033 L518.032786885,237.704918033 L518.032786885,236.885245902 L518.032786885,238.524590164 L518.852459016,236.885245902 L518.852459016,238.524590164 L520.491803279,236.885245902 L518.852459016,238.524590164 M522.131147541,239.344262295 L521.31147541,236.06557377 L522.131147541,237.704918033 L522.131147541,239.344262295 M520.491803279,236.06557377 L521.31147541,236.06557377 L518.852459016,236.06557377 L516.393442623,237.704918033 L515.573770492,239.344262295 L516.393442623,240.983606557 L515.573770492,238.524590164 L516.393442623,236.885245902 L518.032786885,236.06557377 L520.491803279,236.06557377 M521.31147541,229.508196721 L523.770491803,229.508196721 L523.770491803,228.68852459 L523.770491803,229.508196721 L521.31147541,229.508196721 L519.672131148,228.68852459 L519.672131148,227.868852459 L521.31147541,229.508196721 M525.409836066,228.68852459 L524.590163934,228.68852459 L527.049180328,227.868852459 L525.409836066,228.68852459 M525.409836066,227.868852459 L525.409836066,227.049180328 L526.229508197,227.868852459 L525.409836066,227.868852459 M527.868852459,223.770491803 L528.68852459,223.770491803 L527.049180328,225.409836066 L527.049180328,226.229508197 L527.049180328,225.409836066 L527.868852459,223.770491803 M519.672131148,225.409836066 L519.672131148,227.049180328 L519.672131148,227.049180328 L519.672131148,227.868852459 L518.852459016,227.049180328 L519.672131148,226.229508197 L518.852459016,226.229508197 L518.852459016,223.770491803 L519.672131148,225.409836066 M527.868852459,227.049180328 L527.049180328,227.049180328 L528.68852459,225.409836066 L529.508196721,222.950819672 L528.68852459,225.409836066 L527.868852459,227.049180328 M527.868852459,222.131147541 L528.68852459,222.131147541 L527.868852459,222.131147541 L527.868852459,222.950819672 L527.868852459,222.131147541 L527.049180328,222.131147541 L527.868852459,222.131147541 M527.868852459,221.31147541 L528.68852459,222.131147541 L527.868852459,221.31147541 L527.049180328,222.131147541 L527.049180328,221.31147541 L527.868852459,221.31147541 M528.68852459,221.31147541 L528.68852459,222.131147541 L527.868852459,221.31147541 L528.68852459,221.31147541 M527.868852459,220.491803279 L527.868852459,220.491803279 L527.049180328,220.491803279 L527.868852459,220.491803279 M524.590163934,220.491803279 L523.770491803,220.491803279 L523.770491803,219.672131148 L524.590163934,220.491803279 M518.852459016,228.68852459 L518.032786885,226.229508197 L518.032786885,225.409836066 L518.032786885,223.770491803 L518.852459016,222.131147541 L519.672131148,219.672131148 L520.491803279,219.672131148 L519.672131148,219.672131148 L518.032786885,223.770491803 L518.032786885,226.229508197 L518.852459016,228.68852459 M529.508196721,222.950819672 L528.68852459,220.491803279 L527.868852459,218.852459016 L528.68852459,220.491803279 L529.508196721,222.950819672 M524.590163934,219.672131148 L523.770491803,219.672131148 L524.590163934,218.852459016 L524.590163934,219.672131148 M525.409836066,218.032786885 L527.868852459,218.852459016 L524.590163934,218.032786885 L522.131147541,218.852459016 L520.491803279,219.672131148 L522.131147541,218.852459016 L524.590163934,218.032786885 L525.409836066,218.032786885 M596.721311475,297.540983607 L593.442622951,300.0 L577.049180328,305.737704918 L567.213114754,310.655737705 L563.114754098,312.295081967 L559.016393443,313.114754098 L527.868852459,313.93442623 L522.131147541,313.114754098 L518.852459016,308.196721311 L500.819672131,261.475409836 L500.0,259.836065574 L497.540983607,260.655737705 L497.540983607,259.836065574 L495.901639344,259.836065574 L496.721311475,259.836065574 L494.262295082,259.016393443 L493.442622951,258.196721311 L495.901639344,259.836065574 L493.442622951,257.37704918 L492.62295082,259.016393443 L492.62295082,258.196721311 L493.442622951,257.37704918 L492.62295082,254.918032787 L495.081967213,251.639344262 L495.901639344,250.819672131 L497.540983607,250.819672131 L494.262295082,253.278688525 L493.442622951,255.737704918 L493.442622951,257.37704918 L495.081967213,259.016393443 L496.721311475,259.016393443 L498.360655738,259.836065574 L500.0,259.016393443 L498.360655738,255.737704918 L497.540983607,258.196721311 L497.540983607,255.737704918 L496.721311475,258.196721311 L497.540983607,255.737704918 L495.901639344,257.37704918 L497.540983607,255.737704918 L495.081967213,257.37704918 L497.540983607,254.918032787 L494.262295082,256.557377049 L495.901639344,255.737704918 L497.540983607,254.918032787 L495.901639344,254.918032787 L494.262295082,255.737704918 L495.081967213,254.918032787 L496.721311475,254.918032787 L495.081967213,254.918032787 L496.721311475,254.098360656 L495.081967213,253.278688525 L496.721311475,254.098360656 L495.901639344,253.278688525 L496.721311475,253.278688525 L496.721311475,252.459016393 L496.721311475,253.278688525 L498.360655738,252.459016393 L497.540983607,254.098360656 L499.180327869,252.459016393 L497.540983607,254.098360656 L500.0,252.459016393 L497.540983607,254.918032787 L500.0,253.278688525 L500.819672131,253.278688525 L498.360655738,254.918032787 L499.180327869,254.098360656 L501.639344262,254.098360656 L498.360655738,254.918032787 L501.639344262,254.918032787 L498.360655738,255.737704918 L501.639344262,255.737704918 L498.360655738,255.737704918 L500.819672131,256.557377049 L498.360655738,255.737704918 L500.819672131,259.016393443 L501.639344262,259.016393443 L502.459016393,254.918032787 L502.459016393,253.278688525 L500.819672131,251.639344262 L498.360655738,251.639344262 L498.360655738,250.819672131 L500.819672131,251.639344262 L502.459016393,253.278688525 L503.278688525,253.278688525 L504.098360656,253.278688525 L502.459016393,253.278688525 L503.278688525,255.737704918 L503.278688525,253.278688525 L503.278688525,255.737704918 L503.278688525,256.557377049 L503.278688525,255.737704918 L501.639344262,257.37704918 L501.639344262,259.016393443 L506.557377049,256.557377049 L505.737704918,253.278688525 L509.836065574,252.459016393 L510.655737705,253.278688525 L522.131147541,240.983606557 L536.885245902,223.770491803 L537.704918033,222.131147541 L536.885245902,219.672131148 L540.163934426,217.213114754 L542.62295082,218.032786885 L544.262295082,220.491803279 L545.081967213,222.950819672 L544.262295082,224.590163934 L542.62295082,227.049180328 L546.721311475,226.229508197 L547.540983607,223.770491803 L543.442622951,213.93442623 L545.901639344,210.655737705 L554.098360656,213.114754098 L558.196721311,212.295081967 L563.93442623,210.655737705 L568.032786885,214.754098361 L572.131147541,217.213114754 L576.229508197,219.672131148 L586.06557377,226.229508197 L588.524590164,228.68852459 L590.163934426,231.147540984 L594.262295082,248.360655738 L593.442622951,250.0 L590.163934426,253.278688525 L589.344262295,255.737704918 L594.262295082,267.213114754 L595.081967213,270.491803279 L595.901639344,277.868852459 L597.540983607,288.524590164 L597.540983607,293.442622951 L596.721311475,297.540983607 Z" fill="#cee3f5" id="AE.DU" stroke="#6e6e6e" stroke-width="0.4"><desc><labelrank>7</labelrank><code_hasc>AE.DU</code_hasc><name>Dubay</name><admin>United Arab Emirates</admin><type_en>Emirate</type_en><region /><woe_id>2347111</woe_id><longitude>55</longitude><woe_name>Dubay</woe_name><fips>AE03</fips><woe_label>Dubai, AE, United Arab Emirates</woe_label><latitude>24</latitude><iso_a2>AE</iso_a2><postal>DU</postal><type>Emirate</type><id>AE.DU</id></desc></path></svg>