<?xml version='1.0' encoding='utf-8'?>
<svg height="700" width="700" xmlns="http://www.w3.org/2000/svg"><path d="M408.968410145,471.258046422 L405.737223039,474.380364196 L402.724520432,479.110239033 L403.074288361,489.608951369 L419.091566838,483.068193478 L420.870775302,491.988927591 L417.181851052,501.402149392 L405.497902232,518.879261018 L401.916283848,528.847403474 L399.11114766,549.987243908 L395.20320399,557.496652587 L348.062672353,602.541123547 L323.88082929,616.626483541 L302.733122483,614.251982883 L300.172362131,610.212571413 L296.313198811,597.528389158 L293.802431817,592.285425518 L289.70195011,588.395584741 L278.792851784,580.794977457 L246.421720749,551.180096375 L239.066946809,541.387088204 L233.995655791,531.389654762 L223.23809748,499.057920126 L216.742165683,492.316895154 L207.235153658,491.785506844 L186.215209492,495.59361006 L163.741197499,491.231625037 L146.213785803,490.043811383 L143.812971032,485.368066394 L142.892053768,477.713281111 L144.531124193,474.707433579 L151.68510591,468.461666923 L153.372605771,463.538115147 L149.813556876,440.694503062 L142.779737178,430.197520373 L142.746120129,415.928071143 L138.730350682,401.601753063 L135.690872725,395.988262514 L130.261535279,390.049651299 L128.554821319,386.707676328 L128.067662556,382.675165735 L126.891762664,379.265814918 L123.172066998,377.846073747 L115.260949615,377.652590728 L112.071935981,376.112512061 L108.119433486,365.633895714 L102.05831394,361.719656005 L89.4122259447,356.933860794 L72.6075636574,343.956921342 L61.7654567936,338.359492158 L33.6198267148,334.120711473 L0.0,318.265330418 L129.922718171,322.318211826 L168.401959798,314.959413292 L203.839034829,294.983591749 L254.472624714,276.680139553 L258.853789963,288.97309841 L263.953251118,300.677271093 L271.856609916,308.670958203 L278.514457618,317.276072044 L287.966260363,318.480908004 L299.805347124,319.150112675 L306.52179209,329.526621684 L304.148663233,345.09850164 L307.26234099,357.87824587 L323.295109861,367.713042055 L335.139690607,379.383798213 L346.24774034,393.211759188 L358.73168212,405.197219372 L368.668314828,417.348237967 L376.755225942,432.268138129 L380.809372922,447.887190196 L390.432478204,461.18884312 L407.63782444,470.540192492 L408.807907243,471.171454748 L408.968410145,471.258046422 Z" fill="#cee3f5" id="BN.BE" stroke="#6e6e6e" stroke-width="0.4"><desc><labelrank>9</labelrank><code_hasc>BN.BE</code_hasc><name>Belait</name><admin>Brunei</admin><type_en>District</type_en><region /><woe_id>20069849</woe_id><longitude>114</longitude><woe_name>Belait</woe_name><fips>BX01</fips><woe_label>Belait, BN, Brunei</woe_label><latitude>4</latitude><iso_a2>BN</iso_a2><postal>BE</postal><type>Daerah-Daerah</type><id>BN.BE</id></desc></path><path d="M382.142399656,251.080082436 L382.070719836,250.90585325 L378.516674645,242.266958996 L382.343493279,225.764447041 L384.009373437,214.505155554 L388.463830488,204.176782267 L390.416074365,191.078264087 L391.463480573,177.043285739 L390.633051045,164.973784854 L476.816218388,112.61616068 L543.146048079,84.9982293055 L556.00581244,83.3735164586 L565.708576372,87.0905178148 L566.482420256,93.7525944516 L559.022799847,99.0255407591 L543.005969478,106.221449296 L538.767543456,113.128892599 L530.311359268,133.50400658 L528.82714896,139.631849669 L525.38229364,146.66151896 L509.470392012,161.436733851 L504.357415773,169.596135123 L492.691410519,181.288139613 L491.071147333,189.162007382 L490.67343984,197.719713201 L487.354874078,205.545944884 L479.198523723,210.583545737 L470.178097639,210.823056425 L460.72761555,209.265102 L451.333542906,208.791183386 L439.827832959,211.973468184 L430.558632871,217.806970527 L414.04815123,233.593563276 L405.360811491,239.080960053 L386.54364741,247.004446942 L382.142399656,251.080082436 Z" fill="#cee3f5" id="BN.BM" stroke="#6e6e6e" stroke-width="0.4"><desc><labelrank>9</labelrank><code_hasc>BN.BM</code_hasc><name>Brunei and Muara</name><admin>Brunei</admin><type_en>District</type_en><region /><woe_id>20069846</woe_id><longitude>114</longitude><woe_name>Brunei and Muara</woe_name><fips>BX02</fips><woe_label>Brunei-Muara, BN, Brunei</woe_label><latitude>4</latitude><iso_a2>BN</iso_a2><postal>BM</postal><type>Daerah-Daerah</type><id>BN.BM</id></desc></path><path d="M588.758139825,159.365335346 L589.121700926,171.08210182 L593.860086293,175.840148155 L600.715694347,179.043629005 L607.36347862,183.504018164 L620.32019039,201.695904009 L654.199605943,298.21923685 L656.47216107,310.350750395 L655.707669613,319.213542106 L651.639695131,339.460681848 L651.446108819,359.601349953 L654.389830923,381.18536071 L661.204109854,401.274311408 L673.099914301,416.927956948 L691.21301724,433.76177345 L698.686534078,444.683475252 L700.0,455.284016692 L692.596194317,463.390967759 L681.337963553,463.009037889 L669.425409248,457.881854686 L660.111262712,451.7399785 L655.59212837,450.090008997 L645.717711096,450.521972102 L640.347007996,448.279789939 L632.305940776,441.603784641 L627.999875929,440.084982567 L612.660865288,441.672521935 L601.927772829,439.40873851 L572.636177008,428.704824889 L565.825010532,424.191983795 L561.712578992,416.945889549 L555.386094003,366.531050219 L549.320749141,346.38455436 L532.416634325,306.582541787 L527.89370337,286.74764356 L525.689111598,245.124417735 L529.152769949,204.538015263 L529.161741031,204.546900734 L538.594107467,214.137986664 L547.975673828,208.109399202 L558.091464609,196.767507629 L569.561113539,190.66904227 L580.666888576,188.299352523 L580.981043708,182.32119638 L576.56734648,174.317912825 L573.530774347,165.789289428 L574.645630667,161.84939313 L577.981127405,159.838913483 L582.783466691,159.218845158 L588.59103179,159.365899352 L588.758139825,159.365335346 Z" fill="#cee3f5" id="BN.TE" stroke="#6e6e6e" stroke-width="0.4"><desc><labelrank>9</labelrank><code_hasc>BN.TE</code_hasc><name>Temburong</name><admin>Brunei</admin><type_en>District</type_en><region /><woe_id>20069847</woe_id><longitude>115</longitude><woe_name>Temburong</woe_name><fips>BX03</fips><woe_label>Temburong, BN, Brunei</woe_label><latitude>4</latitude><iso_a2>BN</iso_a2><postal>TE</postal><type>Daerah-Daerah</type><id>BN.TE</id></desc></path><path d="M382.142399656,251.080082436 L381.515216702,251.660854868 L381.221065936,260.112381949 L385.069709219,269.596704119 L395.049562717,288.452637889 L398.052770363,299.02356044 L399.837584641,310.365002234 L402.508387563,370.171062984 L405.642832524,388.887295435 L414.869842367,403.12871457 L424.968106922,406.748293693 L432.55640442,405.482321531 L436.386557227,407.970051458 L435.263029433,422.625682499 L430.59640562,442.026180834 L426.799382288,450.606776095 L421.303509056,459.337905233 L408.968410145,471.258046422 L408.807907243,471.171454748 L407.63782444,470.540192492 L390.432478204,461.18884312 L380.809372922,447.887190196 L376.755225942,432.268138129 L368.668314828,417.348237967 L358.73168212,405.197219372 L346.24774034,393.211759188 L335.139690607,379.383798213 L323.295109861,367.713042055 L307.26234099,357.87824587 L304.148663233,345.09850164 L306.52179209,329.526621684 L299.805347124,319.150112675 L287.966260363,318.480908004 L278.514457618,317.276072044 L271.856609916,308.670958203 L263.953251118,300.677271093 L258.853789963,288.97309841 L254.472624714,276.680139553 L254.489507895,276.674035343 L272.360029515,270.21295178 L283.114489991,259.625403705 L290.973652069,244.796547391 L309.477534191,226.002656374 L371.391397142,176.658684438 L390.619101474,164.982256906 L390.633051045,164.973784854 L391.463480573,177.043285739 L390.416074365,191.078264087 L388.463830488,204.176782267 L384.009373437,214.505155554 L382.343493279,225.764447041 L378.516674645,242.266958996 L382.070719836,250.90585325 L382.142399656,251.080082436 Z" fill="#cee3f5" id="BN.TU" stroke="#6e6e6e" stroke-width="0.4"><desc><labelrank>9</labelrank><code_hasc>BN.TU</code_hasc><name>Tutong</name><admin>Brunei</admin><type_en>District</type_en><region /><woe_id>20069848</woe_id><longitude>114</longitude><woe_name>Tutong</woe_name><fips>BX04</fips><woe_label>Tutong, BN, Brunei</woe_label><latitude>4</latitude><iso_a2>BN</iso_a2><postal>TU</postal><type>Daerah-Daerah</type><id>BN.TU</id></desc></path></svg>