<?xml version="1.0"?>
<svg xmlns="http://www.w3.org/2000/svg" version="1.2" baseProfile="tiny" width="800" height="612" viewBox="0 0 800 612" stroke-linecap="round" stroke-linejoin="round">
    <g id="brunei">
        <path d="M 437.1632 192.3693 437.0819 192.1697 433.0549 182.2686 437.4756 163.39 439.4134 150.5065 444.5304 138.6979 446.8013 123.71 448.0427 107.6473 447.1187 93.8381 545.6786 34.1871 621.494 2.8119 636.1803 1 647.2426 5.2914 648.1009 12.9207 639.5657 18.9287 621.2556 27.1062 616.392 34.9977 606.6647 58.2907 604.9482 65.3 600.9905 73.3345 582.7757 90.1904 576.9108 99.5123 563.5546 112.8547 561.6774 121.8626 561.1929 131.6577 557.3778 140.605 548.0521 146.3427 537.7574 146.585 526.9782 144.7682 516.2597 144.193 503.1188 147.7961 492.5213 154.4422 473.6276 172.4579 463.6962 178.7104 442.1985 187.7183 437.1632 192.3693 Z"/>
        <path d="M 437.1632 192.3693 436.4456 193.0321 436.0823 202.7061 440.4424 213.5761 451.7665 235.1949 455.1577 247.3063 457.1561 260.2957 460.0023 328.7705 463.5146 350.2077 473.9909 366.5429 485.4967 370.7213 494.1564 369.2982 498.5165 372.1595 497.1842 388.9338 491.7947 411.1279 487.4346 420.9382 481.1366 430.9149 467.0284 444.5193 466.8457 444.4196 465.5134 443.6929 445.9233 432.9289 434.9927 417.6686 430.4207 399.774 421.2463 382.6666 409.9524 368.7234 395.7518 354.9618 383.1257 339.0959 369.6518 325.6977 351.3939 314.3887 347.8816 299.7491 350.6369 281.9302 343.0067 270.0307 329.5025 269.2284 318.7234 267.8204 311.1538 257.9496 302.1611 248.7753 296.3779 235.3619 291.4148 221.2746 311.843 213.9268 324.1452 201.8392 333.1572 184.8881 354.3283 163.4309 425.137 107.1415 447.1187 93.8381 448.0427 107.6473 446.8013 123.71 444.5304 138.6979 439.4134 150.5065 437.4756 163.39 433.0549 182.2686 437.0819 192.1697 437.1632 192.3693 Z"/>
        <path d="M 291.4148 221.2746 296.3779 235.3619 302.1611 248.7753 311.1538 257.9496 318.7234 267.8204 329.5025 269.2284 343.0067 270.0307 350.6369 281.9302 347.8816 299.7491 351.3939 314.3887 369.6518 325.6977 383.1257 339.0959 395.7518 354.9618 409.9524 368.7234 421.2463 382.6666 430.4207 399.774 434.9927 417.6686 445.9233 432.9289 465.5134 443.6929 466.8457 444.4196 467.0284 444.5193 463.3329 448.0828 459.8812 453.4875 460.2445 465.5081 478.5327 458.0747 480.5311 468.2937 476.2921 479.0577 462.909 499.0263 458.7911 510.4262 455.5211 534.6187 451.0398 543.2026 397.1442 594.6155 369.5302 610.663 345.4285 607.8774 342.5218 603.2448 338.1617 588.7112 335.3155 582.7009 330.6527 578.2348 318.2385 569.4995 281.4199 535.4967 273.063 524.2634 267.3101 512.803 255.1382 475.7573 247.7502 468.0212 236.9105 467.3853 212.93 471.6849 187.3144 466.6284 167.3306 465.2204 164.6055 459.8611 163.5761 451.0955 165.4533 447.6589 173.6285 440.5283 175.5663 434.8965 171.5696 408.7359 163.5761 396.7002 163.5761 380.365 159.0343 363.9541 155.5826 357.5199 149.4057 350.7073 147.4679 346.877 146.9229 342.2596 145.5907 338.3536 141.3517 336.7186 132.3287 336.4764 128.6953 334.7051 124.2141 322.6997 117.3106 318.2033 102.898 312.6926 83.762 297.7956 71.4084 291.3615 39.3132 286.4412 1 268.2134 149.1976 273.1724 193.1133 264.8518 233.5959 242.0834 291.4148 221.2746 Z"/>
        <path d="M 673.2774 88.1162 673.6471 101.5306 679.0367 106.9959 686.8486 110.6898 694.4182 115.822 709.1335 136.699 747.4055 247.3366 749.9489 261.2344 749.0405 271.3777 744.3171 294.5407 744.0143 317.5977 747.2844 342.3201 754.9751 365.3469 768.4793 383.3172 789.0687 402.6651 797.5466 415.2004 799 427.3421 790.522 436.5921 777.684 436.1077 764.1192 430.1882 753.5217 423.1182 748.3744 421.2107 737.1108 421.6648 730.9946 419.076 721.8505 411.4004 716.9454 409.6443 699.4444 411.4004 687.2119 408.7662 653.845 396.3975 646.0937 391.2047 641.4309 382.8933 634.4062 325.1522 627.5633 302.0649 608.4273 256.4352 603.3405 233.7112 600.9788 186.0529 605.081 139.6032 615.8198 150.6281 626.5484 143.7618 638.1353 130.816 651.248 123.8781 663.9316 121.2079 664.313 114.3654 659.3063 105.1865 655.8732 95.4116 657.1606 90.9056 660.9752 88.6168 666.4587 87.9254 673.0866 88.1162 673.2774 88.1162 Z"/>
    </g>
</svg>