<?xml version='1.0' encoding='utf-8'?>
<svg height="700" width="700" xmlns="http://www.w3.org/2000/svg"><path d="M463.848179528,190.027478818 L463.687886421,185.218685597 L444.292420426,175.681245706 L432.591023586,175.120219831 L431.869704603,181.371651019 L424.896954431,184.016487291 L417.763911152,184.737806274 L415.038928326,181.451797573 L424.095488894,150.515227845 L446.456377376,114.689718342 L451.10487749,110.52209755 L462.165101901,112.926494161 L489.495076712,94.5729333639 L485.006869705,84.0737348294 L492.70093886,55.3812686055 L481.720861003,45.5232425006 L463.768032975,43.5195786581 L456.474696588,0.160293107396 L477.713533318,0.0 L485.888481795,19.2351728876 L501.757499428,27.1696817037 L506.486146096,56.9040531257 L515.622853217,61.071673918 L517.546370506,68.0444240898 L516.664758415,85.8369590108 L520.832379208,95.0538126861 L513.93977559,116.37279597 L521.072818869,156.846805587 L541.590336616,180.650332036 L554.013052439,189.306159835 L539.346233112,192.992901305 L522.114724067,189.62674605 L498.872223494,193.634073735 L463.848179528,190.027478818 Z" fill="#cee3f5" id="CM.EN" stroke="#6e6e6e" stroke-width="0.4"><desc><labelrank>5</labelrank><code_hasc>CM.EN</code_hasc><name>Extrême-Nord</name><admin>Cameroon</admin><type_en>Province</type_en><region /><woe_id>2345040</woe_id><longitude>14</longitude><woe_name>Extrême-Nord</woe_name><fips>CM12</fips><woe_label>Extreme-Nord, CM, Cameroon</woe_label><latitude>10</latitude><iso_a2>CM</iso_a2><postal>EN</postal><type>Province</type><id>CM.EN</id></desc></path><path d="M172.916189604,551.809022212 L174.919853446,557.098694756 L168.989008473,554.694298145 L172.355163728,560.384703458 L168.347836043,561.266315548 L164.100068697,560.384703458 L163.378749714,559.983970689 L163.378749714,559.983970689 L165.46256011,558.140599954 L167.305930845,557.17884131 L168.267689489,554.774444699 L170.752232654,550.767117014 L170.912525761,550.526677353 L172.916189604,551.809022212 M197.841767804,477.833753149 L200.967483398,476.711701397 L204.2534921,479.035951454 L212.508587131,498.511564003 L221.244561484,489.214563774 L228.217311656,488.653537898 L236.151820472,499.793908862 L234.949622166,502.518891688 L233.667277307,504.041676208 L227.896725441,508.610029769 L227.896725441,512.296771239 L235.02976872,509.411495306 L235.67094115,510.37325395 L235.911380811,511.174719487 L235.991527364,511.976185024 L235.911380811,512.777650561 L235.67094115,513.739409205 L235.430501488,514.380581635 L229.900389283,521.673918022 L229.419509961,522.795969773 L229.1790703,523.757728418 L229.259216854,524.318754294 L229.259216854,524.719487062 L229.659949622,525.280512938 L232.945958324,525.440806045 L241.281199908,529.047400962 L248.494389741,523.59743531 L250.818639798,525.921685368 L252.662010534,524.158461186 L254.345088161,518.468055874 L254.986260591,517.907029998 L256.428898557,517.506297229 L258.512708954,517.987176551 L261.397984887,517.346004122 L263.722234944,530.329745821 L266.767803984,535.378978704 L273.099381727,541.14953057 L273.980993817,542.351728876 L272.458209297,543.714220289 L270.614838562,544.996565148 L264.683993588,547.481108312 L249.215708725,552.049461873 L245.048087932,559.903824136 L244.967941379,567.597893291 L243.845889627,570.242729563 L243.365010305,570.883901992 L242.643691321,571.364781314 L242.002518892,571.605220975 L241.361346462,571.364781314 L233.346691092,565.433936341 L229.900389283,567.036867415 L227.736432333,569.841996794 L227.095259904,573.448591711 L225.49232883,577.856652164 L225.171742615,580.822074651 L224.931302954,581.062514312 L223.96954431,581.783833295 L222.446759789,583.146324708 L222.126173575,583.306617815 L221.725440806,583.466910923 L221.565147699,583.547057477 L221.244561484,583.547057477 L216.355621708,579.860316006 L212.508587131,581.383100527 L206.016716281,595.809480192 L203.131440348,597.973437142 L201.528509274,599.65651477 L200.085871308,600.377833753 L198.482940234,600.137394092 L197.521181589,599.335928555 L190.949164186,590.038928326 L182.453629494,583.62720403 L193.433707351,578.257384932 L181.49187085,579.94046256 L176.602931074,566.395694985 L181.411724296,570.643462331 L181.251431188,563.02953973 L188.86535379,566.475841539 L184.697732997,560.945729334 L190.147698649,557.980306847 L181.171284635,557.739867186 L189.586672773,547.00022899 L177.484543165,554.213418823 L173.797801695,550.526677353 L174.118387909,549.084039386 L174.038241356,548.923746279 L175.400732768,548.122280742 L176.52278452,546.278910007 L177.324250057,545.557591024 L177.724982826,545.076711701 L177.644836272,544.435539272 L177.16395695,543.073047859 L175.801465537,541.790703 L171.473551637,540.989237463 L170.191206778,540.26791848 L170.351499886,538.664987406 L170.6720861,536.901763224 L175.0,530.169452714 L175.400732768,521.032745592 L178.927181131,515.823219602 L181.652163957,515.983512709 L182.213189833,515.743073048 L182.694069155,515.262193726 L183.094801924,513.17838333 L186.541103733,509.411495306 L187.182276162,507.968857339 L187.182276162,506.365926265 L187.262422716,505.644607282 L187.583008931,504.682848638 L188.22418136,503.721089993 L192.391802153,499.232882986 L192.55209526,498.591710556 L191.189603847,497.068926036 L190.708724525,496.267460499 L190.949164186,495.385848409 L191.430043508,493.863063888 L192.231509045,492.019693153 L193.353560797,490.737348294 L195.437371193,490.336615526 L196.078543623,489.615296542 L195.918250515,488.49324479 L194.796198763,485.848408518 L191.590336616,481.520494619 L190.628577971,479.035951454 L190.147698649,476.711701397 L190.147698649,476.070528967 L190.38813831,475.589649645 L193.032974582,474.948477215 L195.196931532,472.383787497 L197.280741928,471.902908175 L196.88000916,476.471261736 L197.841767804,477.833753149 Z" fill="#cee3f5" id="CM.LT" stroke="#6e6e6e" stroke-width="0.4"><desc><labelrank>5</labelrank><code_hasc>CM.LT</code_hasc><name>Littoral</name><admin>Cameroon</admin><type_en>Province</type_en><region /><woe_id>2345034</woe_id><longitude>10</longitude><woe_name>Littoral</woe_name><fips>CM05</fips><woe_label>Littoral, CM, Cameroon</woe_label><latitude>4</latitude><iso_a2>CM</iso_a2><postal>LT</postal><type>Province</type><id>CM.LT</id></desc></path><path d="M279.751545684,406.262880696 L278.789787039,415.23929471 L267.97000229,417.964277536 L267.008243646,426.219372567 L262.359743531,429.906114037 L248.334096634,431.348752004 L242.082665445,442.649416075 L225.49232883,444.733226471 L223.248225326,449.622166247 L216.355621708,445.935424777 L211.386535379,449.221433478 L200.56675063,448.82070071 L181.49187085,437.600183192 L180.770551866,430.787726128 L193.193267689,422.452484543 L187.102129608,399.450423632 L193.113121136,383.501259446 L198.40279368,383.982138768 L215.073276849,370.5976643 L219.160751088,378.532173117 L236.632699794,379.013052439 L241.842225784,363.304327914 L244.406915503,368.674147012 L257.310510648,374.845431646 L261.959010763,384.783604305 L269.733226471,387.508587131 L273.339821388,405.461415159 L279.751545684,406.262880696 Z" fill="#cee3f5" id="CM.NW" stroke="#6e6e6e" stroke-width="0.4"><desc><labelrank>5</labelrank><code_hasc>CM.NW</code_hasc><name>Nord-Ouest</name><admin>Cameroon</admin><type_en>Province</type_en><region /><woe_id>2345035</woe_id><longitude>10</longitude><woe_name>Nord-Ouest</woe_name><fips>CM07</fips><woe_label>Nord-Ouest, CM, Cameroon</woe_label><latitude>6</latitude><iso_a2>CM</iso_a2><postal>NW</postal><type>Province</type><id>CM.NW</id></desc></path><path d="M382.820013739,433.592855507 L382.579574078,440.16487291 L394.200824365,461.804442409 L387.789100069,475.349209984 L379.053125716,476.551408289 L390.754522556,488.092512022 L392.758186398,496.347607053 L401.25372109,499.713762308 L404.379436684,506.446072819 L402.616212503,520.231280055 L382.900160293,523.757728418 L377.370048088,534.737806274 L376.809022212,552.770780856 L359.016487291,564.151591482 L365.668651248,571.444927868 L363.023814976,583.226471262 L357.413556217,576.654453858 L344.509961072,588.115411037 L340.422486833,597.973437142 L335.693840165,598.694756125 L321.748339821,588.997023128 L308.363865354,605.106480421 L279.591252576,608.953514999 L268.531028166,591.6418594 L256.829631326,591.561712846 L252.662010534,587.554385161 L222.767346004,595.248454316 L219.882070071,582.905885047 L220.763682162,583.466910923 L221.084268376,583.547057477 L221.244561484,583.547057477 L221.565147699,583.547057477 L221.725440806,583.466910923 L222.126173575,583.306617815 L222.446759789,583.146324708 L223.96954431,581.783833295 L224.771009847,581.302953973 L224.931302954,581.062514312 L225.171742615,580.822074651 L229.900389283,567.036867415 L233.346691092,565.433936341 L241.361346462,571.364781314 L242.002518892,571.605220975 L242.643691321,571.364781314 L243.365010305,570.883901992 L243.845889627,570.242729563 L244.326768949,569.441264026 L244.967941379,567.597893291 L245.048087932,559.903824136 L249.215708725,552.049461873 L264.683993588,547.481108312 L270.614838562,544.996565148 L272.458209297,543.714220289 L273.980993817,542.351728876 L273.339821388,541.550263339 L273.099381727,541.14953057 L266.767803984,535.378978704 L263.722234944,530.329745821 L261.397984887,517.346004122 L258.512708954,517.987176551 L256.428898557,517.506297229 L254.986260591,517.907029998 L252.662010534,524.158461186 L250.818639798,525.921685368 L248.494389741,523.59743531 L241.281199908,529.047400962 L232.945958324,525.440806045 L230.220975498,525.520952599 L229.659949622,525.280512938 L229.419509961,524.959926723 L229.259216854,524.719487062 L229.259216854,524.318754294 L229.1790703,523.757728418 L229.419509961,522.795969773 L229.900389283,521.673918022 L235.430501488,514.380581635 L235.67094115,513.739409205 L235.911380811,512.777650561 L235.991527364,511.976185024 L235.911380811,511.174719487 L235.67094115,510.37325395 L235.02976872,509.411495306 L227.896725441,512.296771239 L227.896725441,508.610029769 L233.667277307,504.041676208 L234.949622166,502.518891688 L236.151820472,499.793908862 L242.563544768,500.435081292 L254.264941608,493.302038012 L263.401648729,496.267460499 L267.008243646,485.527822304 L271.897183421,482.482253263 L271.897183421,475.26906343 L278.549347378,468.697046027 L279.991985345,452.50744218 L286.40370964,446.01557133 L285.121364781,433.512708954 L305.077856652,428.944355393 L327.118158919,417.483398214 L334.491641859,422.933363865 L347.795969773,421.490725899 L360.699564919,433.352415846 L382.820013739,433.592855507 Z" fill="#cee3f5" id="CM.CE" stroke="#6e6e6e" stroke-width="0.4"><desc><labelrank>5</labelrank><code_hasc>CM.CE</code_hasc><name>Centre</name><admin>Cameroon</admin><type_en>Province</type_en><region /><woe_id>2345039</woe_id><longitude>11</longitude><woe_name>Centre</woe_name><fips>CM11</fips><woe_label>Centre, CM, Cameroon</woe_label><latitude>4</latitude><iso_a2>CM</iso_a2><postal>CE</postal><type>Province</type><id>CM.CE</id></desc></path><path d="M477.873826425,429.024501946 L475.068697046,431.428898557 L479.877490268,438.722234944 L487.170826654,438.561941837 L489.174490497,442.168536753 L489.174490497,464.769864896 L483.16349897,477.352873826 L491.739180215,485.046942981 L495.265628578,518.307762766 L512.256697962,531.051064804 L518.267689489,548.923746279 L524.35882757,552.530341195 L514.260361804,554.774444699 L517.866956721,563.350125945 L561.065949164,611.037325395 L568.920311427,611.598351271 L579.900389283,625.944584383 L579.82024273,647.584153881 L587.113579116,665.216395695 L580.70185482,666.979619876 L578.297458209,680.123654683 L584.068010076,695.111060224 L578.618044424,700.0 L575.171742615,692.866956721 L556.257155942,683.008930616 L542.391802153,680.364094344 L533.415388138,683.730249599 L525.801465537,676.436913213 L517.305930845,680.123654683 L506.005266774,678.520723609 L503.841309824,671.788413098 L498.150904511,674.914128692 L485.648042134,666.098007786 L477.713533318,670.826654454 L430.186626975,669.22372338 L427.70208381,623.299748111 L416.080833524,630.673231051 L376.969315319,622.097549805 L373.202427296,605.988092512 L362.062056332,591.6418594 L363.023814976,583.226471262 L365.668651248,571.444927868 L359.016487291,564.151591482 L376.809022212,552.770780856 L377.370048088,534.737806274 L382.900160293,523.757728418 L402.616212503,520.231280055 L404.379436684,506.446072819 L401.25372109,499.713762308 L392.758186398,496.347607053 L390.754522556,488.092512022 L379.053125716,476.551408289 L387.789100069,475.349209984 L394.200824365,461.804442409 L382.579574078,440.16487291 L382.820013739,433.592855507 L436.678497825,433.592855507 L474.828257385,426.780398443 L477.873826425,429.024501946 Z" fill="#cee3f5" id="CM.ES" stroke="#6e6e6e" stroke-width="0.4"><desc><labelrank>5</labelrank><code_hasc>CM.ES</code_hasc><name>Est</name><admin>Cameroon</admin><type_en>Province</type_en><region /><woe_id>2345033</woe_id><longitude>14</longitude><woe_name>Est</woe_name><fips>CM04</fips><woe_label /><latitude>3</latitude><iso_a2>CM</iso_a2><postal>ES</postal><type>Province</type><id>CM.ES</id></desc></path><path d="M527.724982826,356.251431188 L498.711930387,414.35768262 L477.873826425,429.024501946 L474.828257385,426.780398443 L436.678497825,433.592855507 L382.820013739,433.592855507 L360.699564919,433.352415846 L347.795969773,421.490725899 L334.491641859,422.933363865 L327.118158919,417.483398214 L305.077856652,428.944355393 L285.121364781,433.512708954 L285.441950996,417.563544768 L278.789787039,415.23929471 L279.751545684,406.262880696 L291.292649416,404.098923746 L302.032287612,389.512250973 L302.032287612,379.493931761 L321.187313946,367.151362491 L312.932218915,355.770551866 L330.484314174,336.695672086 L330.404167621,327.959697733 L341.143805816,313.212731853 L343.788642088,299.267231509 L358.615754523,314.094343943 L367.031142661,316.017861232 L368.714220289,325.956033891 L375.446530799,329.642775361 L398.047858942,335.894206549 L405.822074651,335.172887566 L408.466910923,329.001602931 L422.49255782,336.375085871 L442.929929013,331.165559881 L445.654911839,335.814059995 L457.837188001,337.416991069 L471.141515915,353.526448363 L472.584153881,362.021983055 L481.640714449,362.502862377 L491.659033662,370.918250515 L527.724982826,356.251431188 Z" fill="#cee3f5" id="CM.AD" stroke="#6e6e6e" stroke-width="0.4"><desc><labelrank>5</labelrank><code_hasc>CM.AD</code_hasc><name>Adamaoua</name><admin>Cameroon</admin><type_en>Province</type_en><region /><woe_id>2345038</woe_id><longitude>13</longitude><woe_name>Adamaoua</woe_name><fips>CM10</fips><woe_label>Adamaoua, CM, Cameroon</woe_label><latitude>6</latitude><iso_a2>CM</iso_a2><postal>AD</postal><type>Province</type><id>CM.AD</id></desc></path><path d="M463.848179528,190.027478818 L448.700480879,210.945729334 L473.065033204,239.718342111 L515.863292878,271.937256698 L523.877948248,282.035722464 L539.586672773,321.147240669 L547.040302267,324.032516602 L539.105793451,348.717655141 L527.724982826,356.251431188 L491.659033662,370.918250515 L481.640714449,362.502862377 L472.584153881,362.021983055 L471.141515915,353.526448363 L457.837188001,337.416991069 L445.654911839,335.814059995 L442.929929013,331.165559881 L422.49255782,336.375085871 L408.466910923,329.001602931 L405.822074651,335.172887566 L398.047858942,335.894206549 L375.446530799,329.642775361 L368.714220289,325.956033891 L367.031142661,316.017861232 L358.615754523,314.094343943 L343.788642088,299.267231509 L343.38790932,287.084955347 L354.287840623,280.43279139 L352.204030227,273.460041218 L363.745133959,273.780627433 L378.251660179,262.640256469 L384.743531028,233.62720403 L382.17884131,226.574307305 L402.936798718,216.555988093 L407.10441951,200.68697046 L405.180902221,185.779711472 L415.038928326,181.451797573 L417.763911152,184.737806274 L424.896954431,184.016487291 L431.869704603,181.371651019 L432.591023586,175.120219831 L444.292420426,175.681245706 L463.687886421,185.218685597 L463.848179528,190.027478818 Z" fill="#cee3f5" id="CM.NO" stroke="#6e6e6e" stroke-width="0.4"><desc><labelrank>5</labelrank><code_hasc>CM.NO</code_hasc><name>Nord</name><admin>Cameroon</admin><type_en>Province</type_en><region /><woe_id>2345041</woe_id><longitude>13</longitude><woe_name>Nord</woe_name><fips>CM13</fips><woe_label>Nord, CM, Cameroon</woe_label><latitude>8</latitude><iso_a2>CM</iso_a2><postal>NO</postal><type>Province</type><id>CM.NO</id></desc></path><path d="M285.121364781,433.512708954 L286.40370964,446.01557133 L279.991985345,452.50744218 L278.549347378,468.697046027 L271.897183421,475.26906343 L271.897183421,482.482253263 L267.008243646,485.527822304 L263.401648729,496.267460499 L254.264941608,493.302038012 L242.563544768,500.435081292 L236.151820472,499.793908862 L234.949622166,499.31302954 L231.823906572,496.908632929 L228.217311656,488.653537898 L221.244561484,489.214563774 L212.508587131,498.511564003 L204.2534921,479.035951454 L200.967483398,476.711701397 L198.482940234,477.913899702 L197.841767804,477.833753149 L196.88000916,476.471261736 L197.280741928,471.902908175 L199.685138539,470.219830547 L203.452026563,459.079459583 L211.386535379,449.221433478 L216.355621708,445.935424777 L223.248225326,449.622166247 L225.49232883,444.733226471 L242.082665445,442.649416075 L248.334096634,431.348752004 L262.359743531,429.906114037 L267.008243646,426.219372567 L267.97000229,417.964277536 L278.789787039,415.23929471 L285.441950996,417.563544768 L285.121364781,433.512708954 Z" fill="#cee3f5" id="CM.OU" stroke="#6e6e6e" stroke-width="0.4"><desc><labelrank>5</labelrank><code_hasc>CM.OU</code_hasc><name>Ouest</name><admin>Cameroon</admin><type_en>Province</type_en><region /><woe_id>2345036</woe_id><longitude>10</longitude><woe_name>Ouest</woe_name><fips>CM08</fips><woe_label>Ouest, CM, Cameroon</woe_label><latitude>5</latitude><iso_a2>CM</iso_a2><postal>OU</postal><type>Province</type><id>CM.OU</id></desc></path><path d="M211.386535379,449.221433478 L203.452026563,459.079459583 L199.685138539,470.219830547 L197.280741928,471.902908175 L195.196931532,472.383787497 L193.032974582,474.948477215 L190.38813831,475.589649645 L190.147698649,476.070528967 L190.147698649,476.711701397 L190.628577971,479.035951454 L191.590336616,481.520494619 L194.796198763,485.848408518 L195.918250515,488.49324479 L196.078543623,489.615296542 L195.437371193,490.336615526 L193.353560797,490.737348294 L191.430043508,493.863063888 L190.949164186,495.385848409 L190.708724525,496.267460499 L191.189603847,497.068926036 L192.55209526,498.591710556 L192.391802153,499.232882986 L190.227845203,501.957865812 L188.22418136,503.721089993 L187.583008931,504.682848638 L187.262422716,505.644607282 L187.182276162,506.365926265 L187.182276162,507.968857339 L186.541103733,509.411495306 L183.094801924,513.17838333 L182.694069155,515.262193726 L182.213189833,515.743073048 L181.652163957,515.983512709 L178.927181131,515.823219602 L175.400732768,521.032745592 L175.0,530.169452714 L170.6720861,536.901763224 L170.351499886,538.664987406 L170.191206778,540.26791848 L171.473551637,540.989237463 L175.801465537,541.790703 L177.16395695,543.073047859 L177.644836272,544.435539272 L177.724982826,545.076711701 L177.324250057,545.557591024 L176.52278452,546.278910007 L175.400732768,548.122280742 L174.919853446,548.603160064 L174.438974124,548.843599725 L174.038241356,548.923746279 L174.038241356,548.923746279 L173.236775819,548.122280742 L172.515456835,548.362720403 L170.752232654,550.286237692 L170.912525761,550.526677353 L168.267689489,554.774444699 L167.305930845,557.17884131 L165.46256011,558.140599954 L163.378749714,559.983970689 L163.378749714,559.983970689 L163.378749714,559.983970689 L163.058163499,553.171513625 L155.92512022,557.339134417 L141.178154339,548.843599725 L142.460499199,541.630409892 L136.609800779,526.643004351 L139.174490497,520.952599038 L137.010533547,522.876116327 L133.804671399,515.58277994 L135.006869705,521.43347836 L130.759102359,517.907029998 L130.117929929,521.593771468 L121.942981452,509.411495306 L126.03045569,523.276849095 L112.886420884,522.315090451 L118.737119304,500.515227845 L131.079688573,483.524158461 L137.811999084,456.755209526 L132.682619647,450.022899015 L134.365697275,442.168536753 L142.861231967,438.241355622 L165.302267003,412.754751546 L187.102129608,399.450423632 L193.193267689,422.452484543 L180.770551866,430.787726128 L181.49187085,437.600183192 L200.56675063,448.82070071 L211.386535379,449.221433478 Z" fill="#cee3f5" id="CM.SW" stroke="#6e6e6e" stroke-width="0.4"><desc><labelrank>5</labelrank><code_hasc>CM.SW</code_hasc><name>Sud-Ouest</name><admin>Cameroon</admin><type_en>Province</type_en><region /><woe_id>2345037</woe_id><longitude>9</longitude><woe_name>Sud-Ouest</woe_name><fips>CM09</fips><woe_label>Sud-Ouest, CM, Cameroon</woe_label><latitude>5</latitude><iso_a2>CM</iso_a2><postal>SW</postal><type>Province</type><id>CM.SW</id></desc></path><path d="M363.023814976,583.226471262 L362.062056332,591.6418594 L373.202427296,605.988092512 L376.969315319,622.097549805 L416.080833524,630.673231051 L427.70208381,623.299748111 L430.186626975,669.22372338 L407.585298832,668.983283719 L406.944126403,664.01419739 L399.490496909,661.449507671 L374.003892833,664.254637051 L347.555530112,659.525990382 L313.413098237,661.529654225 L306.600641172,658.884817953 L287.6860545,660.167162812 L285.842683765,668.422257843 L202.329974811,668.021525074 L193.273414243,663.052438745 L191.830776277,657.362033433 L201.688802381,613.842454774 L198.40279368,601.019006183 L199.364552324,600.938859629 L201.127776506,599.896954431 L201.528509274,599.65651477 L201.929242043,599.255782001 L203.131440348,597.973437142 L206.016716281,595.809480192 L212.508587131,581.383100527 L219.882070071,582.905885047 L222.767346004,595.248454316 L252.662010534,587.554385161 L256.829631326,591.561712846 L268.531028166,591.6418594 L279.591252576,608.953514999 L308.363865354,605.106480421 L321.748339821,588.997023128 L335.693840165,598.694756125 L340.422486833,597.973437142 L344.509961072,588.115411037 L357.413556217,576.654453858 L363.023814976,583.226471262 Z" fill="#cee3f5" id="CM.SU" stroke="#6e6e6e" stroke-width="0.4"><desc><labelrank>5</labelrank><code_hasc>CM.SU</code_hasc><name>Sud</name><admin>Cameroon</admin><type_en>Province</type_en><region /><woe_id>2345042</woe_id><longitude>11</longitude><woe_name>Sud</woe_name><fips>CM14</fips><woe_label>Sud, CM, Cameroon</woe_label><latitude>2</latitude><iso_a2>CM</iso_a2><postal>SU</postal><type>Province</type><id>CM.SU</id></desc></path></svg>