<?xml version='1.0' encoding='utf-8'?>
<svg height="700" width="700" xmlns="http://www.w3.org/2000/svg"><path d="M637.773728044,97.3892795151 L621.902983227,84.0379905412 L609.349521194,79.1868619758 L614.241336612,74.4528530608 L628.070665861,65.5349430868 L637.836163029,53.7135512597 L633.998412026,45.729837341 L643.40304905,42.3110300341 L657.456102217,39.3951227184 L663.308166651,36.114726926 L669.36272413,35.0010126892 L677.280222103,39.5976162612 L680.945355677,39.1521305665 L690.422054577,28.0959819324 L695.808383514,24.2891027295 L699.514015696,27.9744856076 L700.0,40.3265932146 L698.278804637,55.5946081372 L694.55292315,66.3672655128 L685.926697528,65.0713065399 L682.869044583,72.5433193163 L678.495183858,73.3735427922 L673.534091312,71.7130953427 L668.633747176,71.8345916674 L660.210015097,83.8222107978 L637.773728044,97.3892795151 Z" fill="#cee3f5" id="TT.193" stroke="#6e6e6e" stroke-width="0.4"><desc><labelrank>9</labelrank><code_hasc>TT.</code_hasc><name>Eastern Tobago</name><admin>Trinidad and Tobago</admin><type_en>Region</type_en><region /><woe_id>56189856</woe_id><longitude>-60</longitude><woe_name /><fips>TD11</fips><woe_label /><latitude>11</latitude><iso_a2>TT</iso_a2><postal /><type>Region</type><id>TT.193</id></desc></path><path d="M637.773728044,97.3892795151 L620.764268869,95.9313257552 L590.673725216,110.87535081 L581.845006051,112.940785345 L568.43993212,124.361421959 L560.036448848,127.702565665 L556.513060903,119.744569082 L549.041048625,123.450201265 L542.115768563,122.295987921 L538.045647904,117.395643288 L539.199861248,109.842633791 L543.411727536,107.756949952 L550.316757795,106.663484522 L556.756053055,104.112065683 L559.570713848,97.6322718138 L564.511556593,91.1929765539 L606.630217985,63.9778416075 L620.764268869,51.4637390668 L633.998412026,45.729837341 L637.836163029,53.7135512597 L628.070665861,65.5349430868 L614.241336612,74.4528530608 L609.349521194,79.1868619758 L621.902983227,84.0379905412 L637.773728044,97.3892795151 Z" fill="#cee3f5" id="TT.6597" stroke="#6e6e6e" stroke-width="0.4"><desc><labelrank>9</labelrank><code_hasc>TT.</code_hasc><name>Western Tobago</name><admin>Trinidad and Tobago</admin><type_en>Region</type_en><region /><woe_id>56189855</woe_id><longitude>-60</longitude><woe_name /><fips>TD11</fips><woe_label /><latitude>11</latitude><iso_a2>TT</iso_a2><postal /><type>Region</type><id>TT.6597</id></desc></path><path d="M90.0488881114,351.822441886 L93.9975124458,356.479793869 L92.9445461225,358.119992014 L89.6236512235,356.115305392 L86.8089909281,356.43929526 L85.594029671,357.917498471 L86.3230061266,359.598194727 L89.279412549,361.542132938 L88.185947119,363.101333367 L81.3214154689,363.445572539 L82.9616131162,353.381642315 L85.3510370214,351.295958973 L90.0488881114,351.822441886 M118.78272438,359.05146251 L117.588012428,359.820938072 L111.553704253,357.978246385 L115.299835543,349.473516589 L119.147212857,347.934565465 L122.731349212,347.995313876 L123.602071297,349.939252086 L123.075588384,355.588822479 L119.390205506,357.451762974 L118.78272438,359.05146251 M218.465851313,323.153402908 L219.314501876,333.542942976 L216.485667112,345.064016681 L207.66484463,360.314009487 L196.233779136,359.54250869 L188.92121167,364.678405395 L174.711446789,358.281986948 L164.06028524,356.054557479 L138.687841982,354.35361142 L135.528942514,353.381642315 L129.940120035,344.917411626 L155.798548094,327.300471408 L162.521334115,324.526309721 L182.912436021,326.22725578 L205.814458156,320.942173863 L218.273740859,321.104223697 L218.465851313,323.153402908 Z" fill="#cee3f5" id="TT.DM" stroke="#6e6e6e" stroke-width="0.4"><desc><labelrank>9</labelrank><code_hasc>TT.DM</code_hasc><name>Diego Martin</name><admin>Trinidad and Tobago</admin><type_en>Region</type_en><region /><woe_id>56189828</woe_id><longitude>-61</longitude><woe_name /><fips>TD00</fips><woe_label /><latitude>10</latitude><iso_a2>TT</iso_a2><postal>DM</postal><type>Region</type><id>TT.DM</id></desc></path><path d="M203.000955888,577.136982459 L205.157467824,580.423095517 L218.723017947,592.201336304 L224.946455411,596.058838498 L228.868249376,604.211026837 L228.649657626,612.774682237 L226.630898095,621.878387792 L224.303538155,626.687407651 L215.547007891,638.131331142 L213.746840111,643.557550923 L211.278807492,662.042087172 L191.396916511,658.741936289 L172.565015035,665.505221417 L152.17391313,668.947612143 L145.147386546,667.874396017 L129.940120035,658.741936289 L120.686163982,656.028522516 L110.480488626,654.854059868 L67.3696088236,654.77306265 L55.5642339316,656.150018841 L46.5330212236,660.442882348 L29.5640602424,671.742023134 L19.3786341909,675.589400946 L10.6916601575,675.71089727 L0.0,668.542625057 L4.85984552614,661.799589234 L23.2665106118,651.614163183 L44.8725737742,646.956811199 L53.3368049602,636.34614826 L61.112557802,630.514333629 L69.4350433588,626.504960883 L110.137936871,614.09130698 L117.785038706,625.787323761 L128.18743677,623.472822265 L138.782710145,614.677716671 L148.285024319,600.970725011 L148.863649805,598.321906667 L144.015984427,592.09913659 L143.851427573,576.873788603 L150.169227006,573.593392811 L157.701987696,573.471896984 L183.418670127,577.845757708 L203.000955888,577.136982459 Z" fill="#cee3f5" id="TT.SI" stroke="#6e6e6e" stroke-width="0.4"><desc><labelrank>9</labelrank><code_hasc>TT.SI</code_hasc><name>Siparia</name><admin>Trinidad and Tobago</admin><type_en>Region</type_en><region /><woe_id>56189835</woe_id><longitude>-61</longitude><woe_name /><fips>TD00</fips><woe_label /><latitude>10</latitude><iso_a2>TT</iso_a2><postal>SI</postal><type>Region</type><id>TT.SI</id></desc></path><path d="M325.550117804,394.388613773 L321.165423002,394.285747119 L316.587853337,392.819896187 L315.083427969,391.1483115 L318.503746662,386.467875629 L318.902354833,380.91307186 L320.213905785,378.264253964 L320.123897575,371.192165935 L327.170268269,377.827070462 L330.050537254,388.268043409 L329.407619998,393.205646362 L325.550117804,394.388613773 Z" fill="#cee3f5" id="TT.TP" stroke="#6e6e6e" stroke-width="0.4"><desc><labelrank>9</labelrank><code_hasc>TT.TP</code_hasc><name>Arima</name><admin>Trinidad and Tobago</admin><type_en>City</type_en><region /><woe_id>2347116</woe_id><longitude>-61</longitude><woe_name /><fips>TD01</fips><woe_label /><latitude>10</latitude><iso_a2>TT</iso_a2><postal /><type>City</type><id>TT.TP</id></desc></path><path d="M443.035667633,465.907315576 L414.735572697,462.975006293 L364.06084977,469.532760159 L354.391377172,466.832508936 L353.658451258,464.646590533 L353.362709741,460.351904837 L357.464520574,449.16514798 L357.567387227,441.270126276 L353.709885033,437.258323653 L352.154025443,433.220804591 L350.701033402,412.235991596 L348.656556536,406.912638021 L343.153186989,402.309351917 L355.972952754,396.291648207 L361.180581232,389.270993953 L361.990656912,385.644941953 L360.936273041,379.035754313 L355.317177502,370.67783222 L353.697026589,362.474210555 L355.818653221,354.939223033 L355.522911257,341.978014836 L350.752466728,338.686279683 L342.960311678,336.731811475 L343.911829342,334.777343714 L358.004571177,333.388642996 L362.530707515,331.99994183 L373.486014177,320.890334739 L383.93984512,313.843964046 L383.554094945,304.997425125 L376.778603244,296.562828107 L385.102259212,290.3251468 L414.119587237,286.862506769 L423.090052031,283.116375978 L487.624750757,275.988602374 L508.299343423,280.038473728 L487.15901526,316.689808966 L461.037345744,348.602794505 L451.783389691,346.942347055 L445.890827146,356.479793869 L443.217911982,371.36307101 L443.764644697,385.65911633 L453.423587836,415.911654917 L455.42827396,430.653186429 L441.03098162,442.863548407 L441.334722183,456.835604357 L443.035667633,465.907315576 Z" fill="#cee3f5" id="TT.SN" stroke="#6e6e6e" stroke-width="0.4"><desc><labelrank>9</labelrank><code_hasc>TT.SN</code_hasc><name>Sangre Grande</name><admin>Trinidad and Tobago</admin><type_en>Region</type_en><region /><woe_id>56189833</woe_id><longitude>-61</longitude><woe_name /><fips>TD00</fips><woe_label /><latitude>10</latitude><iso_a2>TT</iso_a2><postal>SN</postal><type>Region</type><id>TT.SN</id></desc></path><path d="M443.035667633,465.907315576 L448.158755224,493.345193467 L454.031068465,506.466776637 L462.940785345,519.50736209 L481.428447649,532.406201915 L467.031155309,547.714715446 L460.774104288,573.451647181 L460.510862334,602.52972312 L464.155746603,627.841418465 L453.464086445,625.532991778 L441.476467315,629.137377438 L430.157077224,636.022158392 L412.560386808,649.265237389 L401.261246022,653.436605068 L373.754560117,659.22871764 L366.632518347,582.120396644 L358.416037791,567.924787709 L353.774176356,562.267117734 L349.582357313,561.392750283 L347.74361465,557.175214353 L344.541887707,554.963579511 L340.95441059,543.802539989 L348.090789941,533.567299454 L352.115451007,519.988891335 L355.098586199,491.494807258 L357.400228804,481.619600906 L364.06084977,469.532760159 L414.735572697,462.975006293 L443.035667633,465.907315576 Z" fill="#cee3f5" id="TT.MR" stroke="#6e6e6e" stroke-width="0.4"><desc><labelrank>9</labelrank><code_hasc>TT.MR</code_hasc><name>Rio Claro-Mayaro</name><admin>Trinidad and Tobago</admin><type_en>Region</type_en><region /><woe_id>56189832</woe_id><longitude>-61</longitude><woe_name /><fips>TD00</fips><woe_label /><latitude>10</latitude><iso_a2>TT</iso_a2><postal>MR</postal><type>Region</type><id>TT.MR</id></desc></path><path d="M258.249559348,414.833376613 L242.690966133,415.476293421 L232.137791236,428.848968234 L232.179120322,418.868060842 L227.137030557,400.603141385 L215.21015934,385.65911633 L218.875292914,382.601463883 L215.478728894,380.31631366 L217.514334096,369.880615431 L216.704258415,367.720414363 L214.749790655,364.017211701 L207.66484463,360.314009487 L216.485667112,345.064016681 L219.314501876,333.542942976 L218.465851313,323.153402908 L218.273740859,321.104223697 L220.434493343,321.124417604 L226.67129506,318.309757309 L233.029593102,311.283230725 L235.581011941,317.418785422 L239.286644124,317.418785422 L239.286644124,310.615001685 L242.344297069,310.615001685 L242.688536241,313.125921915 L246.070178556,317.418785422 L242.344297069,321.124417604 L246.475165641,320.152448499 L252.549972922,314.320633868 L263.079638146,314.320633868 L279.744858066,297.047933319 L286.690179567,296.480968636 L292.028421669,312.095229592 L296.078799622,320.324568145 L295.525890576,325.879371466 L292.37559696,329.608290568 L289.366745329,330.534091345 L277.112746158,328.296739615 L270.259250328,329.608290568 L256.976583279,327.730972573 L252.720472466,328.991090198 L249.943070581,333.95440959 L248.901545602,342.595214757 L252.450447388,364.454395203 L252.283288517,376.849836358 L258.249559348,414.833376613 Z" fill="#cee3f5" id="TT.SL" stroke="#6e6e6e" stroke-width="0.4"><desc><labelrank>9</labelrank><code_hasc>TT.SL</code_hasc><name>San Juan-Laventille</name><admin>Trinidad and Tobago</admin><type_en>Region</type_en><region /><woe_id>56189834</woe_id><longitude>-61</longitude><woe_name /><fips>TD00</fips><woe_label /><latitude>10</latitude><iso_a2>TT</iso_a2><postal>SL</postal><type>Region</type><id>TT.SL</id></desc></path><path d="M340.95441059,543.802539989 L344.541887707,554.963579511 L347.74361465,557.175214353 L349.582357313,561.392750283 L353.774176356,562.267117734 L358.416037791,567.924787709 L366.632518347,582.120396644 L373.754560117,659.22871764 L366.796841146,659.916398937 L336.260811799,655.016054802 L325.305910185,655.967774603 L293.615667494,662.143828406 L273.510851788,660.399195439 L276.62412933,588.446700315 L272.728051357,583.303364056 L267.263256246,578.365761103 L242.459515939,567.719054401 L249.248719998,542.362405049 L259.213935008,541.333738065 L276.225520264,534.287367372 L292.902789119,531.149931752 L307.149831382,530.892765118 L322.18123199,533.978766516 L336.531141353,539.687870265 L340.95441059,543.802539989 Z" fill="#cee3f5" id="TT.PT" stroke="#6e6e6e" stroke-width="0.4"><desc><labelrank>9</labelrank><code_hasc>TT.PT</code_hasc><name>Princes Town</name><admin>Trinidad and Tobago</admin><type_en>Region</type_en><region /><woe_id>56189831</woe_id><longitude>-61</longitude><woe_name /><fips>TD00</fips><woe_label /><latitude>10</latitude><iso_a2>TT</iso_a2><postal>PT</postal><type>Region</type><id>TT.PT</id></desc></path><path d="M364.06084977,469.532760159 L357.400228804,481.619600906 L355.098586199,491.494807258 L352.115451007,519.988891335 L348.090789941,533.567299454 L340.95441059,543.802539989 L336.531141353,539.687870265 L322.18123199,533.978766516 L307.149831382,530.892765118 L292.902789119,531.149931752 L276.225520264,534.287367372 L259.213935008,541.333738065 L249.248719998,542.362405049 L236.043203611,543.21105606 L233.436317557,542.520997904 L227.86600751,517.806416032 L221.973444468,512.015100009 L221.770950925,509.301686237 L224.82860387,508.228470609 L225.67907665,506.770516702 L222.297434335,493.162949229 L220.434493343,489.76105761 L219.341028411,482.592785396 L222.175938011,472.771847821 L228.777228204,457.341837965 L232.105844948,436.56397307 L242.356649733,438.106974217 L246.046993504,440.421475712 L250.778863149,441.321559603 L254.546356686,444.407561448 L260.589777283,446.259162555 L273.306676843,445.359078665 L276.778428863,442.247359932 L280.777373042,425.788683275 L278.552880203,415.219126788 L280.725939715,411.310190819 L288.00376105,412.313141362 L294.252914955,411.978824962 L300.412060202,409.227139517 L307.419856459,407.658421931 L328.906144279,406.758338041 L343.153186989,402.309351917 L348.656556536,406.912638021 L350.701033402,412.235991596 L352.154025443,433.220804591 L353.709885033,437.258323653 L357.567387227,441.270126276 L357.464520574,449.16514798 L353.362709741,460.351904837 L353.658451258,464.646590533 L354.391377172,466.832508936 L364.06084977,469.532760159 Z" fill="#cee3f5" id="TT.CT" stroke="#6e6e6e" stroke-width="0.4"><desc><labelrank>9</labelrank><code_hasc>TT.CT</code_hasc><name>Couva-Tabaquite-Talparo</name><admin>Trinidad and Tobago</admin><type_en>Region</type_en><region /><woe_id>56189827</woe_id><longitude>-61</longitude><woe_name /><fips>TD00</fips><woe_label /><latitude>10</latitude><iso_a2>TT</iso_a2><postal>CT</postal><type>Region</type><id>TT.CT</id></desc></path><path d="M273.510851788,660.399195439 L254.412913417,658.741936289 L211.278807492,662.042087172 L213.746840111,643.557550923 L215.547007891,638.131331142 L224.303538155,626.687407651 L226.630898095,621.878387792 L228.649657626,612.774682237 L228.868249376,604.211026837 L224.946455411,596.058838498 L218.723017947,592.201336304 L205.157467824,580.423095517 L203.000955888,577.136982459 L210.066823053,576.873788603 L215.696144142,574.707107545 L218.361602646,572.577991313 L218.877318374,573.222424396 L242.459515939,567.719054401 L267.263256246,578.365761103 L272.728051357,583.303364056 L276.62412933,588.446700315 L273.510851788,660.399195439 Z" fill="#cee3f5" id="TT.PD" stroke="#6e6e6e" stroke-width="0.4"><desc><labelrank>9</labelrank><code_hasc>TT.PD</code_hasc><name>Penal-Debe</name><admin>Trinidad and Tobago</admin><type_en>Region</type_en><region /><woe_id>56189829</woe_id><longitude>-61</longitude><woe_name /><fips>TD00</fips><woe_label /><latitude>10</latitude><iso_a2>TT</iso_a2><postal>PD</postal><type>Region</type><id>TT.PD</id></desc></path><path d="M110.137936871,614.09130698 L129.211143081,605.060892655 L144.015984427,592.09913659 L148.863649805,598.321906667 L148.285024319,600.970725011 L138.782710145,614.677716671 L128.18743677,623.472822265 L117.785038706,625.787323761 L110.137936871,614.09130698 Z" fill="#cee3f5" id="TT.PF" stroke="#6e6e6e" stroke-width="0.4"><desc><labelrank>9</labelrank><code_hasc>TT.PF</code_hasc><name>Point Fortin</name><admin>Trinidad and Tobago</admin><type_en>City</type_en><region /><woe_id>56189830</woe_id><longitude>-61</longitude><woe_name /><fips>TD00</fips><woe_label /><latitude>10</latitude><iso_a2>TT</iso_a2><postal>PF</postal><type>City</type><id>TT.PF</id></desc></path><path d="M376.778603244,296.562828107 L383.554094945,304.997425125 L383.93984512,313.843964046 L373.486014177,320.890334739 L362.530707515,331.99994183 L358.004571177,333.388642996 L343.911829342,334.777343714 L342.960311678,336.731811475 L350.752466728,338.686279683 L355.522911257,341.978014836 L355.818653221,354.939223033 L353.697026589,362.474210555 L355.317177502,370.67783222 L360.936273041,379.035754313 L361.990656912,385.644941953 L361.180581232,389.270993953 L355.972952754,396.291648207 L343.153186989,402.309351917 L328.906144279,406.758338041 L307.419856459,407.658421931 L300.412060202,409.227139517 L294.252914955,411.978824962 L288.00376105,412.313141362 L280.725939715,411.310190819 L278.552880203,415.219126788 L258.249559348,414.833376613 L252.283288517,376.849836358 L252.450447388,364.454395203 L248.901545602,342.595214757 L249.943070581,333.95440959 L252.720472466,328.991090198 L256.976583279,327.730972573 L270.259250328,329.608290568 L277.112746158,328.296739615 L289.366745329,330.534091345 L292.37559696,329.608290568 L295.525890576,325.879371466 L296.078799622,320.324568145 L292.028421669,312.095229592 L286.690179567,296.480968636 L314.796494266,299.498105137 L372.54765856,299.741097289 L376.778603244,296.562828107 Z" fill="#cee3f5" id="TT.188" stroke="#6e6e6e" stroke-width="0.4"><desc><labelrank>9</labelrank><code_hasc>TT.TP</code_hasc><name>Tunapuna/Piarco</name><admin>Trinidad and Tobago</admin><type_en>Region</type_en><region /><woe_id>56189836</woe_id><longitude>-61</longitude><woe_name /><fips>TD00</fips><woe_label /><latitude>10</latitude><iso_a2>TT</iso_a2><postal>TP</postal><type>Region</type><id>TT.188</id></desc></path><path d="M242.459515939,567.719054401 L218.877318374,573.222424396 L218.361602646,572.577991313 L228.351991814,562.638491197 L232.179120322,556.199195937 L234.062310121,546.256762037 L233.436317557,542.520997904 L236.043203611,543.21105606 L249.248719998,542.362405049 L242.459515939,567.719054401 Z" fill="#cee3f5" id="TT.SF" stroke="#6e6e6e" stroke-width="0.4"><desc><labelrank>9</labelrank><code_hasc>TT.SF</code_hasc><name>San Fernando</name><admin>Trinidad and Tobago</admin><type_en>City</type_en><region /><woe_id>20069924</woe_id><longitude>-61</longitude><woe_name>San Fernando</woe_name><fips>TD10</fips><woe_label /><latitude>10</latitude><iso_a2>TT</iso_a2><postal>SF</postal><type>City</type><id>TT.SF</id></desc></path><path d="M278.552880203,415.219126788 L280.777373042,425.788683275 L276.778428863,442.247359932 L273.306676843,445.359078665 L260.589777283,446.259162555 L254.546356686,444.407561448 L250.778863149,441.321559603 L246.046993504,440.421475712 L242.356649733,438.106974217 L232.105844948,436.56397307 L232.137791236,428.848968234 L242.690966133,415.476293421 L258.249559348,414.833376613 L278.552880203,415.219126788 Z" fill="#cee3f5" id="TT.CH" stroke="#6e6e6e" stroke-width="0.4"><desc><labelrank>9</labelrank><code_hasc>TT.CH</code_hasc><name>Chaguanas</name><admin>Trinidad and Tobago</admin><type_en>City</type_en><region /><woe_id>56189826</woe_id><longitude>-61</longitude><woe_name /><fips>TD00</fips><woe_label /><latitude>10</latitude><iso_a2>TT</iso_a2><postal>CH</postal><type>City</type><id>TT.CH</id></desc></path><path d="M207.66484463,360.314009487 L214.749790655,364.017211701 L216.704258415,367.720414363 L217.514334096,369.880615431 L215.478728894,380.31631366 L199.010674419,369.236888562 L188.92121167,364.678405395 L196.233779136,359.54250869 L207.66484463,360.314009487 Z" fill="#cee3f5" id="TT.PS" stroke="#6e6e6e" stroke-width="0.4"><desc><labelrank>9</labelrank><code_hasc>TT.PS</code_hasc><name>Port of Spain</name><admin>Trinidad and Tobago</admin><type_en>City</type_en><region /><woe_id>2347120</woe_id><longitude>-61</longitude><woe_name>Port of Spain</woe_name><fips>TD05</fips><woe_label /><latitude>10</latitude><iso_a2>TT</iso_a2><postal>PS</postal><type>City</type><id>TT.PS</id></desc></path></svg>