<?xml version="1.0"?>
<svg xmlns="http://www.w3.org/2000/svg" version="1.2" baseProfile="tiny" width="800" height="487" viewBox="0 0 800 487" stroke-linecap="round" stroke-linejoin="round">
    <g id="andorraFinal">
        <path d="M 344.813 188.9695 372.1401 186.9453 452.0402 187.9966 538.2482 174.3295 583.4549 173.2781 614.9944 164.8676 631.8155 210.0742 688.5866 238.4598 689.3559 239.2291 688.8804 260.9505 685.2098 265.8193 682.2732 288.0015 671.9954 293.9534 663.1858 295.5767 669.793 301.529 667.5906 328.047 652.1739 334.542 641.1619 349.1569 622.0745 355.1115 592.7093 343.2025 580.9632 342.6612 572.8878 346.4503 562.9346 336.3062 554.018 304.6928 528.7864 285.7691 502.5035 277.3586 455.1942 274.2046 426.8086 279.4612 395.2691 266.8454 387.9098 248.973 372.1401 241.6138 344.6926 242.6303 343.7667 190.7798 344.8058 189.0479 344.813 188.9695 Z"/>
        <path d="M 112.2352 314.7769 116.5313 315.2291 197.8201 286.0485 201.294 319.3978 210.3261 339.5463 224.9164 348.5784 288.141 363.1687 362.4821 353.4418 384.0201 358.3052 370.1246 378.4537 377.2966 413.8919 368.7994 419.0056 361.4581 439.0465 354.851 440.6715 331.3588 420.0888 316.6762 421.7137 309.3349 430.3798 313.7397 442.8383 304.9301 447.172 300.5253 454.7563 298.3229 476.9698 260.1481 476.428 226.3781 481.3046 220.5051 485.6395 214.632 485.6395 182.3303 475.3443 160.3063 476.428 135.3459 471.5516 110.3855 468.8425 92.0322 471.0097 72.2107 461.7992 63.4011 450.9641 72.9448 454.2145 71.4765 443.38 62.667 435.2547 61.9328 427.1299 70.0083 417.3808 58.2622 410.8818 59.7305 385.9718 41.3772 370.2701 10.5437 370.2701 25.2263 348.0742 39.1748 350.2395 65.6035 342.1199 100.1076 323.7171 112.2352 314.7769 Z"/>
        <path d="M 223.5451 347.7294 265.957 327.8218 284.8807 302.5902 304.8558 278.4099 330.0874 259.4862 343.7545 242.6651 372.1401 241.6138 387.9098 248.973 395.2691 266.8454 426.8086 279.4612 455.1942 274.2046 502.5035 277.3586 528.7864 285.7691 554.018 304.6928 562.9346 336.3062 547.9273 321.0111 533.9788 348.0742 533.2447 366.4803 535.4471 375.1428 531.0423 378.3914 532.5106 389.2207 524.4351 399.5093 507.5501 402.7585 498.0064 400.0508 487.7286 404.9246 476.7167 401.6754 470.8436 405.4662 466.4388 411.9649 448.8197 406.5493 433.4029 407.0908 415.0497 409.7987 396.6964 402.2169 377.2966 413.8919 370.1246 378.4537 384.0201 358.3052 362.4821 353.4418 288.141 363.1687 224.9164 348.5784 223.5451 347.7294 Z"/>
        <path d="M 197.6186 286.1209 265.957 254.2296 317.4716 242.6651 342.7032 242.6651 343.3851 243.1197 330.0874 259.4862 304.8558 278.4099 284.8807 302.5902 265.957 327.8218 223.5451 347.7294 210.3261 339.5463 201.294 319.3978 197.8201 286.0485 197.6186 286.1209 Z"/>
        <path d="M 119.2585 104.9153 137.6963 117.5583 167.1332 117.5583 183.9543 120.7123 196.5701 134.3794 209.1859 158.5597 229.1609 173.2781 294.3426 184.8426 343.7545 190.0992 344.6926 242.6303 343.7545 242.6651 343.3851 243.1197 342.7032 242.6651 317.4716 242.6651 265.957 254.2296 197.6186 286.1209 116.5313 315.2291 112.2352 314.7769 117.7268 310.7285 90.5639 277.1804 86.8933 263.1144 84.6909 250.1316 54.5915 239.8545 41.3772 246.8862 28.1628 249.0498 1 258.2457 3.2024 246.8862 13.4802 239.3137 13.4802 228.4966 20.0874 217.6803 26.6946 209.028 60.4646 195.5098 67.0718 188.4809 64.8694 179.2898 44.3137 173.343 28.897 154.423 32.5676 146.3152 47.9844 137.6675 57.5281 132.8034 64.1352 120.9141 63.4011 111.1874 85.425 113.8892 97.9052 112.2681 103.7783 104.7032 118.4609 106.3242 119.2585 104.9153 Z"/>
        <path d="M 430.7735 57.6307 432.0652 62.8898 436.2705 116.507 385.8072 128.0715 360.5756 144.8926 346.9085 165.9189 344.8058 189.0479 343.7667 190.7798 343.7545 190.0992 294.3426 184.8426 229.1609 173.2781 209.1859 158.5597 196.5701 134.3794 183.9543 120.7123 167.1332 117.5583 137.6963 117.5583 119.2585 104.9153 122.1316 99.8403 139.7507 89.0345 125.0681 69.0461 125.0681 58.783 118.4609 51.7613 122.1316 43.1197 137.5483 29.0783 136.8142 23.6782 140.4848 8.559 156.6357 8.559 172.0524 3.6996 186.7351 22.0582 227.1122 21.5182 234.4535 12.8786 247.6679 9.0989 257.9457 12.8786 291.7157 1 310.8031 8.559 314.4738 5.3194 324.0175 5.3194 331.3588 16.1184 346.0414 18.2783 349.7121 27.9983 358.5216 39.8792 368.0653 47.4404 387.8868 49.6008 404.0377 65.2649 429.7323 57.1625 430.7735 57.6307 Z"/>
        <path d="M 689.3559 239.2291 688.5866 238.4598 631.8155 210.0742 614.9944 164.8676 583.4549 173.2781 538.2482 174.3295 452.0402 187.9966 372.1401 186.9453 344.813 188.9695 346.9085 165.9189 360.5756 144.8926 385.8072 128.0715 436.2705 116.507 432.0652 62.8898 430.7735 57.6307 442.9466 63.1042 449.5538 59.8633 459.0975 62.0239 479.6532 53.9218 485.5262 58.2428 514.8914 62.564 519.2962 72.2873 536.1812 79.3101 544.9908 72.8275 555.2686 74.4481 567.7489 70.1265 575.0902 65.805 597.8482 72.2873 614.7332 70.6667 647.035 87.954 662.4517 83.0917 683.0074 87.954 690.3487 81.471 696.2217 94.9776 685.9439 102.5419 686.678 108.4856 679.3367 118.7526 672.7295 117.6718 673.4637 144.1532 703.563 145.2342 740.2695 158.7473 761.5593 161.4501 784.3174 158.2068 799 177.1273 762.2935 194.4284 751.2815 193.347 716.0432 198.2133 700.6265 211.7318 689.6145 227.4149 689.3559 239.2291 Z"/>
    </g>
</svg>