<?xml version='1.0' encoding='utf-8'?>
<svg height="700" width="700" xmlns="http://www.w3.org/2000/svg"><path d="M368.337129841,699.202733485 L392.255125285,696.013667426 L403.416856492,684.851936219 L428.929384966,683.257403189 L441.685649203,672.095671982 L444.874715262,659.339407745 L464.009111617,651.366742597 L465.603644647,632.232346241 L476.765375854,624.259681093 L497.494305239,605.125284738 L510.250569476,576.423690205 L535.76309795,574.829157175 L546.924829157,558.883826879 L556.492027335,558.883826879 L564.464692483,544.533029613 L577.22095672,538.154897494 L578.815489749,522.209567198 L561.275626424,506.264236902 L562.870159453,490.318906606 L698.40546697,490.318906606 L700.0,536.560364465 L700.0,621.070615034 L700.0,699.202733485 L618.67881549,699.202733485 L500.683371298,699.202733485 L495.89977221,699.202733485 L368.337129841,699.202733485 Z" fill="#cee3f5" id="US.UT.037" stroke="#6e6e6e" stroke-width="0.4"><desc><name>San Juan County</name><stateAbbrev>UT</stateAbbrev><state>Utah</state><fips>037</fips><incits>49037</incits><id>US.UT.037</id><population>14973</population></desc></path><path d="M318.906605923,490.318906606 L384.282460137,488.724373576 L384.282460137,490.318906606 L562.870159453,490.318906606 L561.275626424,506.264236902 L578.815489749,522.209567198 L577.22095672,538.154897494 L470.387243736,538.154897494 L309.339407745,538.154897494 L307.744874715,499.886104784 L318.906605923,490.318906606 Z" fill="#cee3f5" id="US.UT.055" stroke="#6e6e6e" stroke-width="0.4"><desc><name>Wayne County</name><stateAbbrev>UT</stateAbbrev><state>Utah</state><fips>055</fips><incits>49055</incits><id>US.UT.055</id><population>2747</population></desc></path><path d="M562.870159453,354.783599089 L692.027334852,354.783599089 L698.40546697,350.0 L698.40546697,490.318906606 L562.870159453,490.318906606 L567.653758542,480.751708428 L551.708428246,463.211845103 L553.302961276,452.050113895 L543.735763098,439.293849658 L546.924829157,429.726651481 L546.924829157,407.403189066 L556.492027335,381.890660592 L562.870159453,370.728929385 L562.870159453,354.783599089 Z" fill="#cee3f5" id="US.UT.019" stroke="#6e6e6e" stroke-width="0.4"><desc><name>Grand County</name><stateAbbrev>UT</stateAbbrev><state>Utah</state><fips>019</fips><incits>49019</incits><id>US.UT.019</id><population>9360</population></desc></path><path d="M566.059225513,166.628701595 L566.059225513,141.116173121 L700.0,139.521640091 L700.0,188.952164009 L684.054669704,184.16856492 L677.676537585,160.250569476 L650.569476082,160.250569476 L650.569476082,169.817767654 L639.407744875,176.195899772 L631.435079727,165.034168565 L585.193621868,173.006833713 L569.248291572,166.628701595 L566.059225513,166.628701595 Z" fill="#cee3f5" id="US.UT.009" stroke="#6e6e6e" stroke-width="0.4"><desc><name>Daggett County</name><stateAbbrev>UT</stateAbbrev><state>Utah</state><fips>009</fips><incits>49009</incits><id>US.UT.009</id><population>1127</population></desc></path><path d="M570.842824601,306.9476082 L569.248291572,166.628701595 L585.193621868,173.006833713 L631.435079727,165.034168565 L639.407744875,176.195899772 L650.569476082,169.817767654 L650.569476082,160.250569476 L677.676537585,160.250569476 L684.054669704,184.16856492 L700.0,188.952164009 L698.40546697,278.246013667 L698.40546697,350.0 L692.027334852,354.783599089 L562.870159453,354.783599089 L562.870159453,354.783599089 L561.275626424,340.432801822 L570.842824601,321.298405467 L570.842824601,306.9476082 Z" fill="#cee3f5" id="US.UT.047" stroke="#6e6e6e" stroke-width="0.4"><desc><name>Uintah County</name><stateAbbrev>UT</stateAbbrev><state>Utah</state><fips>047</fips><incits>49047</incits><id>US.UT.047</id><population>35555</population></desc></path><path d="M355.580865604,80.5239179954 L365.148063781,66.1731207289 L366.742596811,45.444191344 L360.364464692,10.3644646925 L355.580865604,0.797266514806 L420.956719818,0.797266514806 L419.362186788,104.44191344 L389.066059226,120.387243736 L395.444191344,114.009111617 L379.498861048,90.0911161731 L368.337129841,90.0911161731 L355.580865604,80.5239179954 Z" fill="#cee3f5" id="US.UT.033" stroke="#6e6e6e" stroke-width="0.4"><desc><name>Rich County</name><stateAbbrev>UT</stateAbbrev><state>Utah</state><fips>033</fips><incits>49033</incits><id>US.UT.033</id><population>2288</population></desc></path><path d="M336.446469248,168.223234624 L353.986332574,169.817767654 L358.769931663,160.250569476 L352.391799544,133.143507973 L373.120728929,128.359908884 L389.066059226,120.387243736 L419.362186788,104.44191344 L419.362186788,141.116173121 L566.059225513,141.116173121 L566.059225513,166.628701595 L529.384965831,163.439635535 L513.439635535,169.817767654 L475.170842825,176.195899772 L460.820045558,176.195899772 L440.091116173,185.76309795 L430.523917995,196.924829157 L409.79498861,196.924829157 L406.605922551,203.302961276 L374.715261959,192.141230068 L349.202733485,195.330296128 L336.446469248,168.223234624 Z" fill="#cee3f5" id="US.UT.043" stroke="#6e6e6e" stroke-width="0.4"><desc><name>Summit County</name><stateAbbrev>UT</stateAbbrev><state>Utah</state><fips>043</fips><incits>49043</incits><id>US.UT.043</id><population>38486</population></desc></path><path d="M264.692482916,0.797266514806 L279.043280182,19.9316628702 L280.637813212,37.4715261959 L287.01594533,62.9840546697 L298.177676538,64.5785876993 L302.961275626,80.5239179954 L282.232346241,93.2801822323 L253.530751708,93.2801822323 L218.451025057,129.954441913 L175.398633257,139.521640091 L1.59453302961,141.116173121 L1.59453302961,0.797266514806 L22.3234624146,2.39179954442 L164.23690205,0.797266514806 L264.692482916,0.797266514806 Z" fill="#cee3f5" id="US.UT.003" stroke="#6e6e6e" stroke-width="0.4"><desc><name>Box Elder County</name><stateAbbrev>UT</stateAbbrev><state>Utah</state><fips>003</fips><incits>49003</incits><id>US.UT.003</id><population>50794</population></desc></path><path d="M264.692482916,0.797266514806 L355.580865604,0.797266514806 L360.364464692,10.3644646925 L366.742596811,45.444191344 L365.148063781,66.1731207289 L355.580865604,80.5239179954 L333.257403189,80.5239179954 L325.284738041,88.4965831435 L302.961275626,80.5239179954 L298.177676538,64.5785876993 L287.01594533,62.9840546697 L280.637813212,37.4715261959 L279.043280182,19.9316628702 L264.692482916,0.797266514806 Z" fill="#cee3f5" id="US.UT.005" stroke="#6e6e6e" stroke-width="0.4"><desc><name>Cache County</name><stateAbbrev>UT</stateAbbrev><state>Utah</state><fips>005</fips><incits>49005</incits><id>US.UT.005</id><population>116909</population></desc></path><path d="M0.0,479.157175399 L78.132118451,479.157175399 L215.261958998,479.157175399 L215.261958998,488.724373576 L216.856492027,495.102505695 L239.179954442,512.642369021 L226.423690205,538.154897494 L220.045558087,539.749430524 L108.428246014,538.154897494 L0.0,538.154897494 L0.0,479.157175399 Z" fill="#cee3f5" id="US.UT.001" stroke="#6e6e6e" stroke-width="0.4"><desc><name>Beaver County</name><stateAbbrev>UT</stateAbbrev><state>Utah</state><fips>001</fips><incits>49001</incits><id>US.UT.001</id><population>6459</population></desc></path><path d="M392.255125285,321.298405467 L392.255125285,305.353075171 L446.469248292,306.9476082 L570.842824601,306.9476082 L570.842824601,321.298405467 L561.275626424,340.432801822 L562.870159453,354.783599089 L416.173120729,354.783599089 L408.200455581,334.054669704 L392.255125285,321.298405467 Z" fill="#cee3f5" id="US.UT.007" stroke="#6e6e6e" stroke-width="0.4"><desc><name>Carbon County</name><stateAbbrev>UT</stateAbbrev><state>Utah</state><fips>007</fips><incits>49007</incits><id>US.UT.007</id><population>20988</population></desc></path><path d="M218.451025057,129.954441913 L259.908883827,118.792710706 L307.744874715,120.387243736 L309.339407745,136.332574032 L323.690205011,160.250569476 L304.555808656,165.034168565 L291.799544419,160.250569476 L285.421412301,150.683371298 L250.341685649,173.006833713 L218.451025057,129.954441913 Z" fill="#cee3f5" id="US.UT.011" stroke="#6e6e6e" stroke-width="0.4"><desc><name>Davis County</name><stateAbbrev>UT</stateAbbrev><state>Utah</state><fips>011</fips><incits>49011</incits><id>US.UT.011</id><population>322094</population></desc></path><path d="M566.059225513,166.628701595 L569.248291572,166.628701595 L570.842824601,306.9476082 L446.469248292,306.9476082 L441.685649203,294.191343964 L440.091116173,185.76309795 L460.820045558,176.195899772 L475.170842825,176.195899772 L513.439635535,169.817767654 L529.384965831,163.439635535 L566.059225513,166.628701595 Z" fill="#cee3f5" id="US.UT.013" stroke="#6e6e6e" stroke-width="0.4"><desc><name>Duchesne County</name><stateAbbrev>UT</stateAbbrev><state>Utah</state><fips>013</fips><incits>49013</incits><id>US.UT.013</id><population>20308</population></desc></path><path d="M384.282460137,415.375854214 L384.282460137,354.783599089 L392.255125285,354.783599089 L392.255125285,321.298405467 L408.200455581,334.054669704 L416.173120729,354.783599089 L562.870159453,354.783599089 L562.870159453,354.783599089 L562.870159453,370.728929385 L556.492027335,381.890660592 L546.924829157,407.403189066 L546.924829157,429.726651481 L543.735763098,439.293849658 L553.302961276,452.050113895 L551.708428246,463.211845103 L567.653758542,480.751708428 L562.870159453,490.318906606 L384.282460137,490.318906606 L384.282460137,488.724373576 L384.282460137,415.375854214 Z" fill="#cee3f5" id="US.UT.015" stroke="#6e6e6e" stroke-width="0.4"><desc><name>Emery County</name><stateAbbrev>UT</stateAbbrev><state>Utah</state><fips>015</fips><incits>49015</incits><id>US.UT.015</id><population>10749</population></desc></path><path d="M220.045558087,539.749430524 L226.423690205,538.154897494 L309.339407745,538.154897494 L470.387243736,538.154897494 L577.22095672,538.154897494 L564.464692483,544.533029613 L556.492027335,558.883826879 L546.924829157,558.883826879 L535.76309795,574.829157175 L510.250569476,576.423690205 L497.494305239,605.125284738 L476.765375854,624.259681093 L326.879271071,624.259681093 L235.990888383,624.259681093 L191.343963554,624.259681093 L189.749430524,585.990888383 L205.69476082,585.990888383 L205.69476082,576.423690205 L221.640091116,573.234624146 L220.045558087,539.749430524 Z" fill="#cee3f5" id="US.UT.017" stroke="#6e6e6e" stroke-width="0.4"><desc><name>Garfield County</name><stateAbbrev>UT</stateAbbrev><state>Utah</state><fips>017</fips><incits>49017</incits><id>US.UT.017</id><population>5083</population></desc></path><path d="M0.0,538.154897494 L108.428246014,538.154897494 L220.045558087,539.749430524 L221.640091116,573.234624146 L205.69476082,576.423690205 L205.69476082,585.990888383 L189.749430524,585.990888383 L191.343963554,624.259681093 L161.047835991,622.665148064 L161.047835991,629.043280182 L141.913439636,633.826879271 L111.617312073,632.232346241 L111.617312073,625.854214123 L79.7266514806,625.854214123 L79.7266514806,613.097949886 L63.7813211845,614.692482916 L0.0,614.692482916 L0.0,538.154897494 Z" fill="#cee3f5" id="US.UT.021" stroke="#6e6e6e" stroke-width="0.4"><desc><name>Iron County</name><stateAbbrev>UT</stateAbbrev><state>Utah</state><fips>021</fips><incits>49021</incits><id>US.UT.021</id><population>46780</population></desc></path><path d="M0.0,292.596810934 L175.398633257,294.191343964 L239.179954442,292.596810934 L261.503416856,278.246013667 L274.259681093,286.218678815 L280.637813212,311.731207289 L290.20501139,306.9476082 L299.772209567,294.191343964 L310.933940774,289.407744875 L336.446469248,306.9476082 L344.419134396,310.13667426 L326.879271071,322.892938497 L326.879271071,356.378132118 L322.095671982,365.945330296 L298.177676538,365.945330296 L283.826879271,375.512528474 L259.908883827,372.323462415 L256.719817768,342.027334852 L204.10022779,342.027334852 L33.4851936219,342.027334852 L0.0,343.621867882 L0.0,292.596810934 Z" fill="#cee3f5" id="US.UT.023" stroke="#6e6e6e" stroke-width="0.4"><desc><name>Juab County</name><stateAbbrev>UT</stateAbbrev><state>Utah</state><fips>023</fips><incits>49023</incits><id>US.UT.023</id><population>10348</population></desc></path><path d="M191.343963554,624.259681093 L235.990888383,624.259681093 L326.879271071,624.259681093 L476.765375854,624.259681093 L465.603644647,632.232346241 L464.009111617,651.366742597 L444.874715262,659.339407745 L441.685649203,672.095671982 L428.929384966,683.257403189 L403.416856492,684.851936219 L392.255125285,696.013667426 L368.337129841,699.202733485 L287.01594533,699.202733485 L161.047835991,699.202733485 L161.047835991,629.043280182 L161.047835991,622.665148064 L191.343963554,624.259681093 Z" fill="#cee3f5" id="US.UT.025" stroke="#6e6e6e" stroke-width="0.4"><desc><name>Kane County</name><stateAbbrev>UT</stateAbbrev><state>Utah</state><fips>025</fips><incits>49025</incits><id>US.UT.025</id><population>7260</population></desc></path><path d="M0.0,479.157175399 L0.0,343.621867882 L33.4851936219,342.027334852 L204.10022779,342.027334852 L256.719817768,342.027334852 L259.908883827,372.323462415 L283.826879271,375.512528474 L285.421412301,413.781321185 L277.448747153,424.943052392 L267.881548975,426.537585421 L255.125284738,439.293849658 L253.530751708,458.428246014 L243.963553531,464.806378132 L224.829157175,464.806378132 L215.261958998,479.157175399 L78.132118451,479.157175399 L0.0,479.157175399 Z" fill="#cee3f5" id="US.UT.027" stroke="#6e6e6e" stroke-width="0.4"><desc><name>Millard County</name><stateAbbrev>UT</stateAbbrev><state>Utah</state><fips>027</fips><incits>49027</incits><id>US.UT.027</id><population>12662</population></desc></path><path d="M368.337129841,90.0911161731 L379.498861048,90.0911161731 L395.444191344,114.009111617 L389.066059226,120.387243736 L373.120728929,128.359908884 L352.391799544,133.143507973 L358.769931663,160.250569476 L353.986332574,169.817767654 L336.446469248,168.223234624 L323.690205011,160.250569476 L309.339407745,136.332574032 L307.744874715,120.387243736 L318.906605923,109.225512528 L334.851936219,114.009111617 L342.824601367,107.630979499 L357.175398633,109.225512528 L368.337129841,90.0911161731 Z" fill="#cee3f5" id="US.UT.029" stroke="#6e6e6e" stroke-width="0.4"><desc><name>Morgan County</name><stateAbbrev>UT</stateAbbrev><state>Utah</state><fips>029</fips><incits>49029</incits><id>US.UT.029</id><population>10173</population></desc></path><path d="M215.261958998,488.724373576 L277.448747153,488.724373576 L318.906605923,490.318906606 L307.744874715,499.886104784 L309.339407745,538.154897494 L226.423690205,538.154897494 L239.179954442,512.642369021 L216.856492027,495.102505695 L215.261958998,488.724373576 Z" fill="#cee3f5" id="US.UT.031" stroke="#6e6e6e" stroke-width="0.4"><desc><name>Piute County</name><stateAbbrev>UT</stateAbbrev><state>Utah</state><fips>031</fips><incits>49031</incits><id>US.UT.031</id><population>1510</population></desc></path><path d="M250.341685649,173.006833713 L285.421412301,150.683371298 L291.799544419,160.250569476 L304.555808656,165.034168565 L323.690205011,160.250569476 L336.446469248,168.223234624 L349.202733485,195.330296128 L342.824601367,198.519362187 L320.501138952,206.492027335 L290.20501139,222.437357631 L263.097949886,214.464692483 L259.908883827,182.574031891 L250.341685649,173.006833713 Z" fill="#cee3f5" id="US.UT.035" stroke="#6e6e6e" stroke-width="0.4"><desc><name>Salt Lake County</name><stateAbbrev>UT</stateAbbrev><state>Utah</state><fips>035</fips><incits>49035</incits><id>US.UT.035</id><population>1079721</population></desc></path><path d="M283.826879271,375.512528474 L298.177676538,365.945330296 L322.095671982,365.945330296 L326.879271071,356.378132118 L326.879271071,322.892938497 L344.419134396,310.13667426 L336.446469248,306.9476082 L392.255125285,305.353075171 L392.255125285,321.298405467 L392.255125285,354.783599089 L384.282460137,354.783599089 L384.282460137,415.375854214 L307.744874715,415.375854214 L285.421412301,413.781321185 L283.826879271,375.512528474 Z" fill="#cee3f5" id="US.UT.039" stroke="#6e6e6e" stroke-width="0.4"><desc><name>Sanpete County</name><stateAbbrev>UT</stateAbbrev><state>Utah</state><fips>039</fips><incits>49039</incits><id>US.UT.039</id><population>28237</population></desc></path><path d="M215.261958998,479.157175399 L224.829157175,464.806378132 L243.963553531,464.806378132 L253.530751708,458.428246014 L255.125284738,439.293849658 L267.881548975,426.537585421 L277.448747153,424.943052392 L285.421412301,413.781321185 L307.744874715,415.375854214 L384.282460137,415.375854214 L384.282460137,488.724373576 L318.906605923,490.318906606 L277.448747153,488.724373576 L215.261958998,488.724373576 L215.261958998,479.157175399 Z" fill="#cee3f5" id="US.UT.041" stroke="#6e6e6e" stroke-width="0.4"><desc><name>Sevier County</name><stateAbbrev>UT</stateAbbrev><state>Utah</state><fips>041</fips><incits>49041</incits><id>US.UT.041</id><population>20852</population></desc></path><path d="M1.59453302961,141.116173121 L175.398633257,139.521640091 L218.451025057,129.954441913 L250.341685649,173.006833713 L259.908883827,182.574031891 L263.097949886,214.464692483 L259.908883827,243.166287016 L266.287015945,255.922551253 L261.503416856,278.246013667 L239.179954442,292.596810934 L175.398633257,294.191343964 L0.0,292.596810934 L1.59453302961,224.031890661 L1.59453302961,141.116173121 Z" fill="#cee3f5" id="US.UT.045" stroke="#6e6e6e" stroke-width="0.4"><desc><name>Tooele County</name><stateAbbrev>UT</stateAbbrev><state>Utah</state><fips>045</fips><incits>49045</incits><id>US.UT.045</id><population>60762</population></desc></path><path d="M263.097949886,214.464692483 L290.20501139,222.437357631 L320.501138952,206.492027335 L342.824601367,198.519362187 L344.419134396,219.248291572 L384.282460137,241.571753986 L395.444191344,255.922551253 L392.255125285,271.867881549 L414.578587699,287.813211845 L414.578587699,294.191343964 L441.685649203,294.191343964 L446.469248292,306.9476082 L392.255125285,305.353075171 L336.446469248,306.9476082 L310.933940774,289.407744875 L299.772209567,294.191343964 L290.20501139,306.9476082 L280.637813212,311.731207289 L274.259681093,286.218678815 L261.503416856,278.246013667 L266.287015945,255.922551253 L259.908883827,243.166287016 L263.097949886,214.464692483 Z" fill="#cee3f5" id="US.UT.049" stroke="#6e6e6e" stroke-width="0.4"><desc><name>Utah County</name><stateAbbrev>UT</stateAbbrev><state>Utah</state><fips>049</fips><incits>49049</incits><id>US.UT.049</id><population>551891</population></desc></path><path d="M342.824601367,198.519362187 L349.202733485,195.330296128 L374.715261959,192.141230068 L406.605922551,203.302961276 L409.79498861,196.924829157 L430.523917995,196.924829157 L440.091116173,185.76309795 L441.685649203,294.191343964 L414.578587699,294.191343964 L414.578587699,287.813211845 L392.255125285,271.867881549 L395.444191344,255.922551253 L384.282460137,241.571753986 L344.419134396,219.248291572 L342.824601367,198.519362187 Z" fill="#cee3f5" id="US.UT.051" stroke="#6e6e6e" stroke-width="0.4"><desc><name>Wasatch County</name><stateAbbrev>UT</stateAbbrev><state>Utah</state><fips>051</fips><incits>49051</incits><id>US.UT.051</id><population>26437</population></desc></path><path d="M0.0,614.692482916 L63.7813211845,614.692482916 L79.7266514806,613.097949886 L79.7266514806,625.854214123 L111.617312073,625.854214123 L111.617312073,632.232346241 L141.913439636,633.826879271 L161.047835991,629.043280182 L161.047835991,699.202733485 L0.0,699.202733485 L0.0,614.692482916 Z" fill="#cee3f5" id="US.UT.053" stroke="#6e6e6e" stroke-width="0.4"><desc><name>Washington County</name><stateAbbrev>UT</stateAbbrev><state>Utah</state><fips>053</fips><incits>49053</incits><id>US.UT.053</id><population>147800</population></desc></path><path d="M218.451025057,129.954441913 L253.530751708,93.2801822323 L282.232346241,93.2801822323 L302.961275626,80.5239179954 L325.284738041,88.4965831435 L333.257403189,80.5239179954 L355.580865604,80.5239179954 L368.337129841,90.0911161731 L357.175398633,109.225512528 L342.824601367,107.630979499 L334.851936219,114.009111617 L318.906605923,109.225512528 L307.744874715,120.387243736 L259.908883827,118.792710706 L218.451025057,129.954441913 Z" fill="#cee3f5" id="US.UT.057" stroke="#6e6e6e" stroke-width="0.4"><desc><name>Weber County</name><stateAbbrev>UT</stateAbbrev><state>Utah</state><fips>057</fips><incits>49057</incits><id>US.UT.057</id><population>238519</population></desc></path></svg>