<?xml version='1.0' encoding='utf-8'?>
<svg height="700" width="700" xmlns="http://www.w3.org/2000/svg"><path d="M376.293706294,6.43356643357 L378.251748252,15.3846153846 L375.314685315,19.5804195804 L359.79020979,31.7482517483 L347.762237762,29.0909090909 L346.923076923,34.2657342657 L352.517482517,36.5034965035 L352.937062937,38.041958042 L351.258741259,40.8391608392 L351.118881119,45.1748251748 L348.181818182,45.3146853147 L347.482517483,47.2727272727 L336.293706294,44.3356643357 L329.020979021,38.7412587413 L325.384615385,37.7622377622 L320.769230769,42.2377622378 L316.013986014,50.9090909091 L302.167832168,53.2867132867 L292.657342657,57.6223776224 L290.27972028,54.8251748252 L286.643356643,55.9440559441 L286.363636364,54.5454545455 L288.601398601,53.5664335664 L282.447552448,48.3916083916 L277.132867133,49.0909090909 L274.055944056,45.034965035 L270.0,43.7762237762 L272.097902098,42.7972027972 L270.13986014,37.7622377622 L270.41958042,33.5664335664 L269.020979021,34.965034965 L266.643356643,33.986013986 L261.748251748,25.7342657343 L260.48951049,21.6783216783 L274.335664336,18.8811188811 L285.244755245,1.53846153846 L289.020979021,0.0 L291.818181818,2.37762237762 L300.06993007,4.8951048951 L312.097902098,0.699300699301 L322.447552448,6.15384615385 L326.923076923,5.31468531469 L336.573426573,11.8881118881 L339.93006993,11.048951049 L344.265734266,13.1468531469 L354.475524476,13.2867132867 L358.671328671,15.9440559441 L364.405594406,13.8461538462 L370.979020979,6.57342657343 L376.293706294,6.43356643357 Z" fill="#cee3f5" id="IQ.DA" stroke="#6e6e6e" stroke-width="0.4"><desc><labelrank>5</labelrank><code_hasc>IQ.DA</code_hasc><name>Dihok</name><admin>Iraq</admin><type_en>Province</type_en><region>Kurdistan</region><woe_id>2345840</woe_id><longitude>43</longitude><woe_name>Dihok</woe_name><fips>IZ08</fips><woe_label>Dahuk, IQ, Iraq</woe_label><latitude>37</latitude><iso_a2>IQ</iso_a2><postal>DA</postal><type>Muhafazah</type><id>IQ.DA</id></desc></path><path d="M413.496503497,127.132867133 L417.272727273,135.384615385 L424.405594406,143.916083916 L422.027972028,156.923076923 L425.524475524,162.937062937 L422.027972028,168.951048951 L422.027972028,175.804195804 L420.629370629,179.72027972 L417.972027972,181.818181818 L417.972027972,185.734265734 L408.881118881,190.769230769 L405.384615385,194.545454545 L406.783216783,200.27972028 L397.692307692,209.51048951 L396.433566434,214.265734266 L392.237762238,219.440559441 L392.097902098,223.636363636 L393.356643357,224.195804196 L391.398601399,226.573426573 L389.72027972,226.293706294 L378.671328671,216.363636364 L363.706293706,209.230769231 L334.895104895,191.608391608 L327.762237762,182.797202797 L330.13986014,178.461538462 L325.244755245,177.202797203 L326.363636364,171.748251748 L319.79020979,166.013986014 L320.20979021,161.398601399 L323.006993007,164.895104895 L326.083916084,162.237762238 L332.657342657,164.895104895 L340.48951049,162.517482517 L342.587412587,158.181818182 L351.818181818,155.944055944 L356.713286713,146.573426573 L354.055944056,141.538461538 L364.545454545,130.06993007 L374.335664336,135.804195804 L376.853146853,135.664335664 L378.951048951,134.965034965 L382.167832168,130.48951049 L390.839160839,132.027972028 L393.216783217,130.48951049 L396.573426573,131.328671329 L402.867132867,128.391608392 L407.902097902,129.93006993 L407.762237762,128.531468531 L409.300699301,128.811188811 L412.657342657,125.174825175 L413.496503497,127.132867133 Z" fill="#cee3f5" id="IQ.TS" stroke="#6e6e6e" stroke-width="0.4"><desc><labelrank>5</labelrank><code_hasc>IQ.TS</code_hasc><name>At-Ta'mim</name><admin>Iraq</admin><type_en>Province</type_en><region>Iraq</region><woe_id>2345845</woe_id><longitude>44</longitude><woe_name>At-Ta'mim</woe_name><fips>IZ13</fips><woe_label>At Ta'mim, IQ, Iraq</woe_label><latitude>35</latitude><iso_a2>IQ</iso_a2><postal>TS</postal><type>Muhafazah</type><id>IQ.TS</id></desc></path><path d="M439.79020979,73.986013986 L436.433566434,77.9020979021 L429.72027972,77.0629370629 L421.748251748,80.0 L414.195804196,80.1398601399 L407.762237762,86.2937062937 L411.958041958,95.1048951049 L413.776223776,93.986013986 L418.251748252,99.4405594406 L412.937062937,104.895104895 L413.636363636,106.713286713 L422.867132867,112.867132867 L430.699300699,121.538461538 L437.552447552,126.013986014 L435.454545455,127.832167832 L429.440559441,126.293706294 L430.0,128.251748252 L427.622377622,129.93006993 L426.643356643,127.552447552 L425.524475524,129.370629371 L423.846153846,128.111888112 L417.692307692,128.111888112 L417.132867133,126.713286713 L413.496503497,127.132867133 L412.657342657,125.174825175 L409.300699301,128.811188811 L407.762237762,128.531468531 L407.902097902,129.93006993 L402.867132867,128.391608392 L396.573426573,131.328671329 L393.216783217,130.48951049 L390.839160839,132.027972028 L382.167832168,130.48951049 L378.951048951,134.965034965 L376.853146853,135.664335664 L374.335664336,135.804195804 L364.545454545,130.06993007 L354.055944056,141.538461538 L356.713286713,146.573426573 L351.818181818,155.944055944 L342.587412587,158.181818182 L340.48951049,162.517482517 L332.657342657,164.895104895 L326.083916084,162.237762238 L327.482517483,158.601398601 L327.342657343,151.328671329 L323.846153846,143.076923077 L324.685314685,139.86013986 L323.566433566,135.944055944 L328.461538462,128.671328671 L329.160839161,122.797202797 L328.881118881,120.559440559 L326.223776224,119.72027972 L326.363636364,116.643356643 L336.013986014,112.447552448 L339.65034965,102.657342657 L356.433566434,85.5944055944 L357.692307692,78.8811188811 L361.328671329,77.4825174825 L361.188811189,74.1258741259 L364.125874126,73.986013986 L364.825174825,71.1888111888 L367.342657343,71.048951049 L372.657342657,64.6153846154 L375.314685315,65.7342657343 L375.734265734,67.5524475524 L378.251748252,65.7342657343 L380.34965035,66.5734265734 L385.944055944,62.7972027972 L391.678321678,55.3846153846 L388.741258741,50.3496503497 L379.090909091,44.7552447552 L375.314685315,44.6153846154 L374.195804196,41.6783216783 L372.097902098,41.2587412587 L371.818181818,38.7412587413 L359.79020979,31.7482517483 L375.314685315,19.5804195804 L378.251748252,15.3846153846 L376.293706294,6.43356643357 L384.125874126,9.37062937063 L387.482517483,13.006993007 L388.321678322,18.7412587413 L384.265734266,22.0979020979 L383.706293706,25.5944055944 L387.902097902,34.8251748252 L391.538461538,35.5244755245 L394.615384615,29.5104895105 L402.167832168,26.7132867133 L412.797202797,18.041958042 L422.447552448,19.7202797203 L423.286713287,26.5734265734 L425.664335664,29.5104895105 L428.321678322,29.2307692308 L431.538461538,31.8881118881 L430.27972028,35.9440559441 L431.258741259,42.7972027972 L427.902097902,47.1328671329 L427.622377622,50.7692307692 L438.811188811,54.965034965 L442.167832168,61.1188811189 L439.93006993,70.4895104895 L438.671328671,71.1888111888 L439.79020979,73.986013986 Z" fill="#cee3f5" id="IQ.AR" stroke="#6e6e6e" stroke-width="0.4"><desc><labelrank>5</labelrank><code_hasc>IQ.AR</code_hasc><name>Arbil</name><admin>Iraq</admin><type_en>Province</type_en><region>Kurdistan</region><woe_id>2345843</woe_id><longitude>44</longitude><woe_name>Arbil</woe_name><fips>IZ11</fips><woe_label>Arbil, IQ, Iraq</woe_label><latitude>36</latitude><iso_a2>IQ</iso_a2><postal>AR</postal><type>Muhafazah</type><id>IQ.AR</id></desc></path><path d="M359.79020979,31.7482517483 L371.818181818,38.7412587413 L372.097902098,41.2587412587 L374.195804196,41.6783216783 L375.314685315,44.6153846154 L379.090909091,44.7552447552 L388.741258741,50.3496503497 L391.678321678,55.3846153846 L385.944055944,62.7972027972 L380.34965035,66.5734265734 L378.251748252,65.7342657343 L375.734265734,67.5524475524 L375.314685315,65.7342657343 L372.657342657,64.6153846154 L367.342657343,71.048951049 L364.825174825,71.1888111888 L364.125874126,73.986013986 L361.188811189,74.1258741259 L361.328671329,77.4825174825 L357.692307692,78.8811188811 L356.433566434,85.5944055944 L339.65034965,102.657342657 L336.013986014,112.447552448 L326.363636364,116.643356643 L326.223776224,119.72027972 L328.881118881,120.559440559 L329.160839161,122.797202797 L328.461538462,128.671328671 L323.566433566,135.944055944 L324.685314685,139.86013986 L318.391608392,146.293706294 L293.076923077,159.72027972 L294.475524476,163.076923077 L293.916083916,169.51048951 L299.65034965,178.041958042 L298.951048951,182.377622378 L303.006993007,186.853146853 L303.286713287,191.748251748 L275.314685315,192.167832168 L267.342657343,193.706293706 L265.384615385,201.958041958 L250.27972028,203.636363636 L244.545454545,201.118881119 L230.27972028,201.678321678 L202.447552448,189.51048951 L186.363636364,184.895104895 L176.013986014,183.636363636 L181.748251748,155.524475524 L187.622377622,147.412587413 L189.300699301,142.237762238 L189.160839161,127.832167832 L181.748251748,107.832167832 L185.384615385,83.2167832168 L193.216783217,69.7902097902 L222.727272727,63.7762237762 L261.748251748,25.7342657343 L266.643356643,33.986013986 L269.020979021,34.965034965 L270.41958042,33.5664335664 L270.13986014,37.7622377622 L272.097902098,42.7972027972 L270.0,43.7762237762 L274.055944056,45.034965035 L277.132867133,49.0909090909 L282.447552448,48.3916083916 L288.601398601,53.5664335664 L286.363636364,54.5454545455 L286.643356643,55.9440559441 L290.27972028,54.8251748252 L292.657342657,57.6223776224 L302.167832168,53.2867132867 L316.013986014,50.9090909091 L320.769230769,42.2377622378 L325.384615385,37.7622377622 L329.020979021,38.7412587413 L336.293706294,44.3356643357 L347.482517483,47.2727272727 L348.181818182,45.3146853147 L351.118881119,45.1748251748 L351.258741259,40.8391608392 L352.937062937,38.041958042 L352.517482517,36.5034965035 L346.923076923,34.2657342657 L347.762237762,29.0909090909 L359.79020979,31.7482517483 Z" fill="#cee3f5" id="IQ.NI" stroke="#6e6e6e" stroke-width="0.4"><desc><labelrank>5</labelrank><code_hasc>IQ.NI</code_hasc><name>Ninawa</name><admin>Iraq</admin><type_en>Province</type_en><region>Iraq</region><woe_id>2345847</woe_id><longitude>42</longitude><woe_name>Ninawa</woe_name><fips>IZ15</fips><woe_label>Ninawa, IQ, Iraq</woe_label><latitude>35</latitude><iso_a2>IQ</iso_a2><postal>NI</postal><type>Muhafazah</type><id>IQ.NI</id></desc></path><path d="M326.083916084,162.237762238 L323.006993007,164.895104895 L320.20979021,161.398601399 L319.79020979,166.013986014 L326.363636364,171.748251748 L325.244755245,177.202797203 L330.13986014,178.461538462 L327.762237762,182.797202797 L334.895104895,191.608391608 L363.706293706,209.230769231 L378.671328671,216.363636364 L389.72027972,226.293706294 L391.398601399,226.573426573 L393.356643357,224.195804196 L392.097902098,223.636363636 L392.237762238,219.440559441 L396.433566434,214.265734266 L397.692307692,209.51048951 L406.783216783,200.27972028 L405.384615385,194.545454545 L408.881118881,190.769230769 L415.734265734,198.041958042 L429.86013986,199.440559441 L435.734265734,203.636363636 L436.713286713,212.867132867 L428.601398601,218.321678322 L425.664335664,224.615384615 L419.65034965,227.832167832 L420.20979021,232.587412587 L413.356643357,241.678321678 L405.804195804,237.202797203 L404.685314685,238.321678322 L405.524475524,242.657342657 L404.405594406,244.755244755 L405.524475524,245.874125874 L403.286713287,247.552447552 L404.965034965,248.951048951 L402.587412587,257.482517483 L405.664335664,260.979020979 L404.825174825,263.636363636 L403.426573427,266.573426573 L399.93006993,266.853146853 L397.552447552,270.769230769 L396.573426573,269.79020979 L393.496503497,271.748251748 L393.916083916,274.545454545 L391.958041958,275.244755245 L392.517482517,277.342657343 L390.559440559,279.300699301 L389.300699301,284.475524476 L395.874125874,285.734265734 L400.34965035,291.048951049 L400.06993007,295.804195804 L396.293706294,303.776223776 L398.811188811,308.391608392 L396.433566434,315.524475524 L396.993006993,319.58041958 L385.804195804,333.146853147 L380.629370629,332.867132867 L375.734265734,330.34965035 L378.111888112,328.531468531 L372.377622378,317.202797203 L368.881118881,313.706293706 L355.034965035,313.286713287 L328.881118881,304.615384615 L308.321678322,284.615384615 L303.566433566,278.181818182 L300.06993007,269.230769231 L296.293706294,255.104895105 L294.895104895,242.657342657 L286.503496503,247.272727273 L284.265734266,246.853146853 L268.041958042,233.706293706 L265.524475524,221.538461538 L265.384615385,201.958041958 L267.342657343,193.706293706 L275.314685315,192.167832168 L303.286713287,191.748251748 L303.006993007,186.853146853 L298.951048951,182.377622378 L299.65034965,178.041958042 L293.916083916,169.51048951 L294.475524476,163.076923077 L293.076923077,159.72027972 L318.391608392,146.293706294 L324.685314685,139.86013986 L323.846153846,143.076923077 L327.342657343,151.328671329 L327.482517483,158.601398601 L326.083916084,162.237762238 Z" fill="#cee3f5" id="IQ.SD" stroke="#6e6e6e" stroke-width="0.4"><desc><labelrank>5</labelrank><code_hasc>IQ.SD</code_hasc><name>Sala ad-Din</name><admin>Iraq</admin><type_en>Province</type_en><region>Iraq</region><woe_id>2345850</woe_id><longitude>43</longitude><woe_name>Sala ad-Din</woe_name><fips>IZ18</fips><woe_label>S-Alah Ad Din, IQ, Iraq</woe_label><latitude>34</latitude><iso_a2>IQ</iso_a2><postal>SD</postal><type>Muhafazah</type><id>IQ.SD</id></desc></path><path d="M412.657342657,440.41958042 L409.300699301,445.454545455 L411.398601399,448.951048951 L404.965034965,452.167832168 L403.286713287,457.762237762 L405.524475524,469.65034965 L406.083916084,483.916083916 L404.685314685,485.874125874 L400.06993007,484.755244755 L397.972027972,488.531468531 L404.265734266,496.923076923 L419.370629371,503.636363636 L412.097902098,537.202797203 L398.811188811,555.104895105 L390.41958042,559.86013986 L386.223776224,564.895104895 L370.13986014,607.552447552 L352.937062937,637.062937063 L277.832167832,573.846153846 L287.622377622,554.825174825 L290.41958042,542.377622378 L297.692307692,531.328671329 L302.027972028,517.062937063 L302.167832168,510.06993007 L310.839160839,491.888111888 L313.636363636,481.958041958 L327.062937063,463.356643357 L340.34965035,458.741258741 L352.517482517,450.48951049 L352.937062937,446.293706294 L345.524475524,439.160839161 L385.524475524,427.832167832 L388.881118881,428.811188811 L390.559440559,424.755244755 L392.517482517,430.06993007 L390.0,434.265734266 L394.335664336,441.538461538 L403.426573427,435.524475524 L412.657342657,440.41958042 Z" fill="#cee3f5" id="IQ.NA" stroke="#6e6e6e" stroke-width="0.4"><desc><labelrank>5</labelrank><code_hasc>IQ.NA</code_hasc><name>An-Najaf</name><admin>Iraq</admin><type_en>Province</type_en><region>Iraq</region><woe_id>2345849</woe_id><longitude>43</longitude><woe_name>An-Najaf</woe_name><fips>IZ17</fips><woe_label>An Najaf, IQ, Iraq</woe_label><latitude>30</latitude><iso_a2>IQ</iso_a2><postal>NA</postal><type>Muhafazah</type><id>IQ.NA</id></desc></path><path d="M377.272727273,387.972027972 L383.986013986,388.391608392 L386.783216783,391.328671329 L383.846153846,405.734265734 L388.881118881,414.405594406 L388.321678322,419.160839161 L390.559440559,424.755244755 L388.881118881,428.811188811 L385.524475524,427.832167832 L345.524475524,439.160839161 L330.41958042,427.132867133 L313.916083916,409.93006993 L311.818181818,404.755244755 L318.951048951,401.678321678 L330.0,400.13986014 L345.384615385,387.412587413 L350.979020979,384.755244755 L365.244755245,384.055944056 L377.272727273,387.972027972 Z" fill="#cee3f5" id="IQ.KA" stroke="#6e6e6e" stroke-width="0.4"><desc><labelrank>5</labelrank><code_hasc>IQ.KA</code_hasc><name>Karbala'</name><admin>Iraq</admin><type_en>Province</type_en><region>Iraq</region><woe_id>2345844</woe_id><longitude>43</longitude><woe_name>Karbala'</woe_name><fips>IZ12</fips><woe_label>Karbala', IQ, Iraq</woe_label><latitude>32</latitude><iso_a2>IQ</iso_a2><postal>KA</postal><type>Muhafazah</type><id>IQ.KA</id></desc></path><path d="M404.125874126,354.965034965 L388.741258741,353.706293706 L385.244755245,350.769230769 L384.125874126,347.692307692 L384.545454545,344.335664336 L388.181818182,337.762237762 L391.818181818,336.783216783 L393.216783217,333.286713287 L399.370629371,333.846153846 L403.426573427,336.923076923 L405.944055944,335.384615385 L406.503496503,346.153846154 L404.125874126,354.965034965 Z" fill="#cee3f5" id="IQ.BG" stroke="#6e6e6e" stroke-width="0.4"><desc><labelrank>9</labelrank><code_hasc>IQ.BG</code_hasc><name>Baghdad</name><admin>Iraq</admin><type_en>Province</type_en><region>Iraq</region><woe_id>2345839</woe_id><longitude>44</longitude><woe_name>Baghdad</woe_name><fips>IZ07</fips><woe_label>Baghdad, IQ, Iraq</woe_label><latitude>33</latitude><iso_a2>IQ</iso_a2><postal>BG</postal><type>Muhafazah</type><id>IQ.BG</id></desc></path><path d="M632.377622378,515.524475524 L632.517482517,535.804195804 L657.132867133,535.664335664 L658.531468531,579.86013986 L667.062937063,580.979020979 L670.0,584.335664336 L672.377622378,591.188811189 L680.20979021,591.888111888 L687.902097902,600.839160839 L686.083916084,605.734265734 L691.678321678,617.622377622 L699.65034965,622.097902098 L696.853146853,623.636363636 L688.881118881,623.076923077 L667.202797203,614.825174825 L661.328671329,615.664335664 L656.293706294,618.461538462 L653.636363636,609.93006993 L654.755244755,619.440559441 L634.615384615,611.188811189 L611.538461538,612.307692308 L599.79020979,617.342657343 L593.636363636,623.636363636 L584.265734266,649.370629371 L575.594405594,667.412587413 L554.475524476,694.685314685 L556.153846154,675.524475524 L560.20979021,666.713286713 L561.188811189,645.314685315 L566.643356643,613.286713287 L565.244755245,605.594405594 L556.853146853,593.146853147 L553.636363636,577.902097902 L577.272727273,570.909090909 L590.979020979,572.167832168 L590.979020979,561.818181818 L592.937062937,549.93006993 L592.797202797,525.454545455 L593.496503497,520.27972028 L596.293706294,516.783216783 L608.601398601,512.727272727 L622.167832168,513.286713287 L632.377622378,515.524475524 Z" fill="#cee3f5" id="IQ.BA" stroke="#6e6e6e" stroke-width="0.4"><desc><labelrank>5</labelrank><code_hasc>IQ.BA</code_hasc><name>Al-Basrah</name><admin>Iraq</admin><type_en>Province</type_en><region>Iraq</region><woe_id>2345834</woe_id><longitude>47</longitude><woe_name>Al-Basrah</woe_name><fips>IZ02</fips><woe_label>Al Basrah, IQ, Iraq</woe_label><latitude>30</latitude><iso_a2>IQ</iso_a2><postal>BA</postal><type>Muhafazah</type><id>IQ.BA</id></desc></path><path d="M495.594405594,482.937062937 L498.251748252,486.713286713 L498.111888112,490.48951049 L496.013986014,489.51048951 L494.755244755,492.307692308 L497.272727273,499.020979021 L491.258741259,507.832167832 L491.538461538,508.951048951 L497.412587413,509.370629371 L492.657342657,521.958041958 L496.293706294,524.895104895 L496.573426573,527.132867133 L495.594405594,530.629370629 L492.097902098,530.34965035 L491.678321678,531.608391608 L490.27972028,539.58041958 L491.258741259,551.328671329 L526.923076923,555.664335664 L538.671328671,559.58041958 L549.300699301,577.762237762 L553.636363636,577.902097902 L556.853146853,593.146853147 L565.244755245,605.594405594 L566.643356643,613.286713287 L561.188811189,645.314685315 L560.20979021,666.713286713 L556.153846154,675.524475524 L554.475524476,694.685314685 L552.377622378,697.062937063 L539.370629371,700.0 L418.251748252,689.65034965 L352.937062937,637.062937063 L370.13986014,607.552447552 L386.223776224,564.895104895 L390.41958042,559.86013986 L398.811188811,555.104895105 L412.097902098,537.202797203 L419.370629371,503.636363636 L437.552447552,515.804195804 L439.090909091,506.993006993 L446.923076923,487.272727273 L444.125874126,482.797202797 L440.909090909,480.839160839 L454.195804196,477.762237762 L454.895104895,476.503496503 L477.552447552,480.0 L490.41958042,484.195804196 L495.594405594,482.937062937 Z" fill="#cee3f5" id="IQ.MU" stroke="#6e6e6e" stroke-width="0.4"><desc><labelrank>5</labelrank><code_hasc>IQ.MU</code_hasc><name>Al-Muthannia</name><admin>Iraq</admin><type_en>Province</type_en><region>Iraq</region><woe_id>2345835</woe_id><longitude>45</longitude><woe_name>Al-Muthannia</woe_name><fips>IZ03</fips><woe_label>Al Muthanna, IQ, Iraq</woe_label><latitude>30</latitude><iso_a2>IQ</iso_a2><postal>MU</postal><type>Muhafazah</type><id>IQ.MU</id></desc></path><path d="M453.216783217,420.699300699 L467.062937063,425.594405594 L466.503496503,431.888111888 L477.552447552,444.055944056 L488.181818182,447.832167832 L487.622377622,450.20979021 L491.118881119,458.041958042 L490.559440559,463.076923077 L495.594405594,482.937062937 L490.41958042,484.195804196 L477.552447552,480.0 L454.895104895,476.503496503 L454.195804196,477.762237762 L440.909090909,480.839160839 L444.125874126,482.797202797 L446.923076923,487.272727273 L439.090909091,506.993006993 L437.552447552,515.804195804 L419.370629371,503.636363636 L404.265734266,496.923076923 L397.972027972,488.531468531 L400.06993007,484.755244755 L404.685314685,485.874125874 L406.083916084,483.916083916 L405.524475524,469.65034965 L403.286713287,457.762237762 L404.965034965,452.167832168 L411.398601399,448.951048951 L409.300699301,445.454545455 L412.657342657,440.41958042 L421.188811189,443.636363636 L425.804195804,439.440559441 L424.825174825,436.783216783 L426.083916084,434.685314685 L428.741258741,435.804195804 L447.342657343,423.076923077 L453.216783217,420.699300699 Z" fill="#cee3f5" id="IQ.QA" stroke="#6e6e6e" stroke-width="0.4"><desc><labelrank>5</labelrank><code_hasc>IQ.QA</code_hasc><name>Al-Qadisiyah</name><admin>Iraq</admin><type_en>Province</type_en><region>Iraq</region><woe_id>2345836</woe_id><longitude>45</longitude><woe_name>Al-Qadisiyah</woe_name><fips>IZ04</fips><woe_label>Al Qadisiyah, IQ, Iraq</woe_label><latitude>31</latitude><iso_a2>IQ</iso_a2><postal>QA</postal><type>Muhafazah</type><id>IQ.QA</id></desc></path><path d="M592.797202797,525.454545455 L592.937062937,549.93006993 L590.979020979,561.818181818 L590.979020979,572.167832168 L577.272727273,570.909090909 L553.636363636,577.902097902 L549.300699301,577.762237762 L538.671328671,559.58041958 L526.923076923,555.664335664 L491.258741259,551.328671329 L490.27972028,539.58041958 L491.678321678,531.608391608 L492.097902098,530.34965035 L495.594405594,530.629370629 L496.573426573,527.132867133 L496.293706294,524.895104895 L492.657342657,521.958041958 L497.412587413,509.370629371 L491.538461538,508.951048951 L491.258741259,507.832167832 L497.272727273,499.020979021 L494.755244755,492.307692308 L496.013986014,489.51048951 L498.111888112,490.48951049 L498.251748252,486.713286713 L495.594405594,482.937062937 L490.559440559,463.076923077 L491.118881119,458.041958042 L498.251748252,458.461538462 L514.755244755,453.006993007 L533.356643357,452.727272727 L536.013986014,456.223776224 L533.076923077,458.741258741 L540.629370629,471.748251748 L542.027972028,479.020979021 L554.195804196,491.468531469 L553.496503497,499.440559441 L554.755244755,503.636363636 L563.846153846,510.34965035 L565.524475524,520.13986014 L572.517482517,525.034965035 L592.797202797,525.454545455 Z" fill="#cee3f5" id="IQ.DQ" stroke="#6e6e6e" stroke-width="0.4"><desc><labelrank>5</labelrank><code_hasc>IQ.DQ</code_hasc><name>Dhi-Qar</name><admin>Iraq</admin><type_en>Province</type_en><region>Iraq</region><woe_id>2345841</woe_id><longitude>46</longitude><woe_name>Dhi-Qar</woe_name><fips>IZ09</fips><woe_label>Dhi Qar, IQ, Iraq</woe_label><latitude>31</latitude><iso_a2>IQ</iso_a2><postal>DQ</postal><type>Muhafazah</type><id>IQ.DQ</id></desc></path><path d="M632.377622378,515.524475524 L622.167832168,513.286713287 L608.601398601,512.727272727 L596.293706294,516.783216783 L593.496503497,520.27972028 L592.797202797,525.454545455 L572.517482517,525.034965035 L565.524475524,520.13986014 L563.846153846,510.34965035 L554.755244755,503.636363636 L553.496503497,499.440559441 L554.195804196,491.468531469 L542.027972028,479.020979021 L540.629370629,471.748251748 L533.076923077,458.741258741 L536.013986014,456.223776224 L533.356643357,452.727272727 L542.307692308,452.307692308 L551.958041958,454.405594406 L553.776223776,441.678321678 L551.398601399,438.181818182 L542.727272727,434.545454545 L541.048951049,432.167832168 L544.405594406,421.258741259 L542.027972028,418.601398601 L544.125874126,412.727272727 L544.405594406,402.657342657 L548.881118881,388.531468531 L552.657342657,383.916083916 L588.041958042,412.447552448 L592.377622378,413.986013986 L600.34965035,411.328671329 L606.083916084,413.426573427 L611.398601399,419.300699301 L610.41958042,424.755244755 L617.972027972,432.727272727 L617.132867133,439.300699301 L623.426573427,442.657342657 L626.363636364,447.972027972 L630.13986014,450.34965035 L637.412587413,462.657342657 L642.447552448,467.412587413 L632.097902098,501.118881119 L632.377622378,515.524475524 Z" fill="#cee3f5" id="IQ.MA" stroke="#6e6e6e" stroke-width="0.4"><desc><labelrank>5</labelrank><code_hasc>IQ.MA</code_hasc><name>Maysan</name><admin>Iraq</admin><type_en>Province</type_en><region>Iraq</region><woe_id>2345846</woe_id><longitude>47</longitude><woe_name>Maysan</woe_name><fips>IZ14</fips><woe_label>Maysan, IQ, Iraq</woe_label><latitude>31</latitude><iso_a2>IQ</iso_a2><postal>MA</postal><type>Muhafazah</type><id>IQ.MA</id></desc></path><path d="M552.657342657,383.916083916 L548.881118881,388.531468531 L544.405594406,402.657342657 L544.125874126,412.727272727 L542.027972028,418.601398601 L544.405594406,421.258741259 L541.048951049,432.167832168 L542.727272727,434.545454545 L551.398601399,438.181818182 L553.776223776,441.678321678 L551.958041958,454.405594406 L542.307692308,452.307692308 L533.356643357,452.727272727 L514.755244755,453.006993007 L498.251748252,458.461538462 L491.118881119,458.041958042 L487.622377622,450.20979021 L488.181818182,447.832167832 L477.552447552,444.055944056 L466.503496503,431.888111888 L467.062937063,425.594405594 L453.216783217,420.699300699 L452.937062937,416.363636364 L446.503496503,415.804195804 L442.727272727,412.027972028 L436.993006993,395.664335664 L434.475524476,392.867132867 L418.671328671,386.153846154 L406.923076923,384.335664336 L405.384615385,369.93006993 L406.503496503,369.230769231 L408.601398601,369.370629371 L411.678321678,363.216783217 L414.055944056,367.552447552 L417.832167832,368.391608392 L418.531468531,364.055944056 L427.342657343,355.104895105 L437.692307692,357.202797203 L447.062937063,356.643356643 L473.916083916,363.916083916 L479.93006993,358.321678322 L489.58041958,343.216783217 L503.146853147,335.244755245 L507.062937063,327.832167832 L510.979020979,332.587412587 L512.237762238,338.601398601 L521.328671329,348.951048951 L521.608391608,355.244755245 L517.272727273,359.440559441 L511.958041958,360.559440559 L512.937062937,362.377622378 L518.391608392,364.195804196 L518.391608392,366.853146853 L515.314685315,369.93006993 L516.853146853,373.286713287 L529.300699301,372.727272727 L536.853146853,374.965034965 L552.657342657,383.916083916 Z" fill="#cee3f5" id="IQ.WA" stroke="#6e6e6e" stroke-width="0.4"><desc><labelrank>5</labelrank><code_hasc>IQ.WA</code_hasc><name>Wasit</name><admin>Iraq</admin><type_en>Province</type_en><region>Iraq</region><woe_id>2345848</woe_id><longitude>45</longitude><woe_name>Wasit</woe_name><fips>IZ16</fips><woe_label>Wasit, IQ, Iraq</woe_label><latitude>32</latitude><iso_a2>IQ</iso_a2><postal>WA</postal><type>Muhafazah</type><id>IQ.WA</id></desc></path><path d="M494.335664336,209.65034965 L493.216783217,200.41958042 L496.013986014,200.13986014 L488.461538462,192.307692308 L485.104895105,197.622377622 L482.727272727,198.601398601 L483.286713287,200.13986014 L481.328671329,203.356643357 L482.727272727,205.454545455 L476.433566434,213.426573427 L470.27972028,229.230769231 L464.965034965,231.328671329 L454.195804196,242.657342657 L452.097902098,239.86013986 L453.916083916,231.468531469 L451.958041958,219.86013986 L448.321678322,216.783216783 L443.006993007,217.902097902 L436.713286713,212.867132867 L435.734265734,203.636363636 L429.86013986,199.440559441 L415.734265734,198.041958042 L408.881118881,190.769230769 L417.972027972,185.734265734 L417.972027972,181.818181818 L420.629370629,179.72027972 L422.027972028,175.804195804 L422.027972028,168.951048951 L425.524475524,162.937062937 L422.027972028,156.923076923 L424.405594406,143.916083916 L417.272727273,135.384615385 L413.496503497,127.132867133 L417.132867133,126.713286713 L417.692307692,128.111888112 L423.846153846,128.111888112 L425.524475524,129.370629371 L426.643356643,127.552447552 L427.622377622,129.93006993 L430.0,128.251748252 L429.440559441,126.293706294 L435.454545455,127.832167832 L437.552447552,126.013986014 L430.699300699,121.538461538 L422.867132867,112.867132867 L413.636363636,106.713286713 L412.937062937,104.895104895 L418.251748252,99.4405594406 L413.776223776,93.986013986 L411.958041958,95.1048951049 L407.762237762,86.2937062937 L414.195804196,80.1398601399 L421.748251748,80.0 L429.72027972,77.0629370629 L436.433566434,77.9020979021 L439.79020979,73.986013986 L444.825174825,82.6573426573 L446.643356643,83.4965034965 L454.195804196,81.958041958 L455.314685315,83.4965034965 L458.391608392,94.2657342657 L456.713286713,95.3846153846 L459.370629371,98.3216783217 L459.93006993,105.594405594 L462.867132867,110.06993007 L460.629370629,116.643356643 L462.307692308,119.160839161 L470.13986014,116.503496503 L476.013986014,117.902097902 L483.426573427,122.937062937 L490.41958042,133.286713287 L496.293706294,133.146853147 L499.370629371,131.048951049 L508.041958042,130.769230769 L511.818181818,129.090909091 L515.594405594,130.06993007 L518.951048951,134.125874126 L526.923076923,131.468531469 L530.13986014,133.426573427 L529.160839161,136.223776224 L524.125874126,140.979020979 L508.041958042,144.615384615 L507.762237762,153.146853147 L505.104895105,152.727272727 L506.783216783,156.643356643 L505.524475524,159.72027972 L510.839160839,169.230769231 L516.433566434,174.405594406 L515.174825175,181.538461538 L519.79020979,183.076923077 L517.272727273,190.20979021 L518.671328671,191.888111888 L508.881118881,196.223776224 L502.307692308,193.986013986 L501.328671329,197.482517483 L498.391608392,199.58041958 L499.230769231,204.055944056 L497.972027972,209.230769231 L496.993006993,210.629370629 L494.335664336,209.65034965 Z" fill="#cee3f5" id="IQ.SU" stroke="#6e6e6e" stroke-width="0.4"><desc><labelrank>5</labelrank><code_hasc>IQ.SU</code_hasc><name>As-Sulaymaniyah</name><admin>Iraq</admin><type_en>Province</type_en><region>Kurdistan</region><woe_id>2345837</woe_id><longitude>45</longitude><woe_name>As-Sulaymaniyah</woe_name><fips>IZ05</fips><woe_label>As Sulaymaniyah, IQ, Iraq</woe_label><latitude>35</latitude><iso_a2>IQ</iso_a2><postal>SU</postal><type>Muhafazah</type><id>IQ.SU</id></desc></path><path d="M494.335664336,209.65034965 L491.398601399,209.090909091 L490.839160839,214.825174825 L486.083916084,216.783216783 L482.727272727,225.034965035 L486.923076923,230.629370629 L487.902097902,239.300699301 L473.916083916,235.944055944 L474.195804196,244.195804196 L468.181818182,248.391608392 L471.258741259,257.062937063 L472.517482517,258.041958042 L475.454545455,256.923076923 L478.391608392,261.398601399 L475.874125874,270.629370629 L477.132867133,273.986013986 L470.979020979,279.86013986 L468.461538462,286.153846154 L465.804195804,287.972027972 L468.741258741,290.909090909 L473.076923077,290.909090909 L482.447552448,305.034965035 L484.405594406,311.048951049 L489.86013986,315.804195804 L490.839160839,320.559440559 L496.433566434,317.062937063 L501.328671329,316.503496503 L501.188811189,319.160839161 L504.405594406,323.216783217 L499.090909091,327.972027972 L502.447552448,329.51048951 L507.062937063,327.832167832 L503.146853147,335.244755245 L489.58041958,343.216783217 L479.93006993,358.321678322 L473.916083916,363.916083916 L447.062937063,356.643356643 L437.692307692,357.202797203 L427.342657343,355.104895105 L418.531468531,364.055944056 L417.832167832,368.391608392 L414.055944056,367.552447552 L411.678321678,363.216783217 L408.601398601,369.370629371 L406.503496503,369.230769231 L406.783216783,363.076923077 L404.125874126,354.965034965 L406.503496503,346.153846154 L405.944055944,335.384615385 L403.426573427,336.923076923 L399.370629371,333.846153846 L393.216783217,333.286713287 L391.818181818,336.783216783 L388.181818182,337.762237762 L385.804195804,333.146853147 L396.993006993,319.58041958 L396.433566434,315.524475524 L398.811188811,308.391608392 L396.293706294,303.776223776 L400.06993007,295.804195804 L400.34965035,291.048951049 L395.874125874,285.734265734 L389.300699301,284.475524476 L390.559440559,279.300699301 L392.517482517,277.342657343 L391.958041958,275.244755245 L393.916083916,274.545454545 L393.496503497,271.748251748 L396.573426573,269.79020979 L397.552447552,270.769230769 L399.93006993,266.853146853 L403.426573427,266.573426573 L404.825174825,263.636363636 L405.664335664,260.979020979 L402.587412587,257.482517483 L404.965034965,248.951048951 L403.286713287,247.552447552 L405.524475524,245.874125874 L404.405594406,244.755244755 L405.524475524,242.657342657 L404.685314685,238.321678322 L405.804195804,237.202797203 L413.356643357,241.678321678 L420.20979021,232.587412587 L419.65034965,227.832167832 L425.664335664,224.615384615 L428.601398601,218.321678322 L436.713286713,212.867132867 L443.006993007,217.902097902 L448.321678322,216.783216783 L451.958041958,219.86013986 L453.916083916,231.468531469 L452.097902098,239.86013986 L454.195804196,242.657342657 L464.965034965,231.328671329 L470.27972028,229.230769231 L476.433566434,213.426573427 L482.727272727,205.454545455 L481.328671329,203.356643357 L483.286713287,200.13986014 L482.727272727,198.601398601 L485.104895105,197.622377622 L488.461538462,192.307692308 L496.013986014,200.13986014 L493.216783217,200.41958042 L494.335664336,209.65034965 Z" fill="#cee3f5" id="IQ.DI" stroke="#6e6e6e" stroke-width="0.4"><desc><labelrank>5</labelrank><code_hasc>IQ.DI</code_hasc><name>Diyala</name><admin>Iraq</admin><type_en>Province</type_en><region>Iraq</region><woe_id>2345842</woe_id><longitude>45</longitude><woe_name>Diyala</woe_name><fips>IZ10</fips><woe_label>Diyala, IQ, Iraq</woe_label><latitude>33</latitude><iso_a2>IQ</iso_a2><postal>DI</postal><type>Muhafazah</type><id>IQ.DI</id></desc></path><path d="M265.384615385,201.958041958 L265.524475524,221.538461538 L268.041958042,233.706293706 L284.265734266,246.853146853 L286.503496503,247.272727273 L294.895104895,242.657342657 L296.293706294,255.104895105 L300.06993007,269.230769231 L303.566433566,278.181818182 L308.321678322,284.615384615 L328.881118881,304.615384615 L355.034965035,313.286713287 L368.881118881,313.706293706 L372.377622378,317.202797203 L378.111888112,328.531468531 L375.734265734,330.34965035 L380.629370629,332.867132867 L385.804195804,333.146853147 L388.181818182,337.762237762 L384.545454545,344.335664336 L384.125874126,347.692307692 L385.244755245,350.769230769 L388.741258741,353.706293706 L383.846153846,358.321678322 L376.013986014,354.685314685 L355.734265734,352.447552448 L356.993006993,355.384615385 L369.440559441,361.958041958 L373.216783217,375.524475524 L378.111888112,380.0 L377.272727273,387.972027972 L365.244755245,384.055944056 L350.979020979,384.755244755 L345.384615385,387.412587413 L330.0,400.13986014 L318.951048951,401.678321678 L311.818181818,404.755244755 L313.916083916,409.93006993 L330.41958042,427.132867133 L345.524475524,439.160839161 L352.937062937,446.293706294 L352.517482517,450.48951049 L340.34965035,458.741258741 L327.062937063,463.356643357 L313.636363636,481.958041958 L310.839160839,491.888111888 L302.167832168,510.06993007 L302.027972028,517.062937063 L297.692307692,531.328671329 L290.41958042,542.377622378 L287.622377622,554.825174825 L277.832167832,573.846153846 L227.622377622,528.251748252 L111.258741259,453.426573427 L20.7692307692,432.447552448 L31.6783216783,422.377622378 L29.5804195804,413.986013986 L28.1818181818,413.006993007 L14.4755244755,416.083916084 L13.3566433566,414.265734266 L10.4195804196,401.818181818 L16.1538461538,400.27972028 L0.34965034965,325.734265734 L138.531468531,251.748251748 L157.972027972,246.713286713 L175.734265734,214.405594406 L176.013986014,183.636363636 L186.363636364,184.895104895 L202.447552448,189.51048951 L230.27972028,201.678321678 L244.545454545,201.118881119 L250.27972028,203.636363636 L265.384615385,201.958041958 Z" fill="#cee3f5" id="IQ.AN" stroke="#6e6e6e" stroke-width="0.4"><desc><labelrank>5</labelrank><code_hasc>IQ.AN</code_hasc><name>Al-Anbar</name><admin>Iraq</admin><type_en>Province</type_en><region>Iraq</region><woe_id>2345833</woe_id><longitude>41</longitude><woe_name>Al-Anbar</woe_name><fips>IZ01</fips><woe_label>Al Anbar, IQ, Iraq</woe_label><latitude>33</latitude><iso_a2>IQ</iso_a2><postal>AN</postal><type>Muhafazah</type><id>IQ.AN</id></desc></path><path d="M388.741258741,353.706293706 L404.125874126,354.965034965 L406.783216783,363.076923077 L406.503496503,369.230769231 L405.384615385,369.93006993 L406.923076923,384.335664336 L418.671328671,386.153846154 L434.475524476,392.867132867 L436.993006993,395.664335664 L442.727272727,412.027972028 L446.503496503,415.804195804 L452.937062937,416.363636364 L453.216783217,420.699300699 L447.342657343,423.076923077 L428.741258741,435.804195804 L426.083916084,434.685314685 L424.825174825,436.783216783 L425.804195804,439.440559441 L421.188811189,443.636363636 L412.657342657,440.41958042 L403.426573427,435.524475524 L394.335664336,441.538461538 L390.0,434.265734266 L392.517482517,430.06993007 L390.559440559,424.755244755 L388.321678322,419.160839161 L388.881118881,414.405594406 L383.846153846,405.734265734 L386.783216783,391.328671329 L383.986013986,388.391608392 L377.272727273,387.972027972 L378.111888112,380.0 L373.216783217,375.524475524 L369.440559441,361.958041958 L356.993006993,355.384615385 L355.734265734,352.447552448 L376.013986014,354.685314685 L383.846153846,358.321678322 L388.741258741,353.706293706 Z" fill="#cee3f5" id="IQ.BB" stroke="#6e6e6e" stroke-width="0.4"><desc><labelrank>5</labelrank><code_hasc>IQ.BB</code_hasc><name>Babil</name><admin>Iraq</admin><type_en>Province</type_en><region>Iraq</region><woe_id>2345838</woe_id><longitude>44</longitude><woe_name>Babil</woe_name><fips>IZ06</fips><woe_label>Babil, IQ, Iraq</woe_label><latitude>32</latitude><iso_a2>IQ</iso_a2><postal>BB</postal><type>Muhafazah</type><id>IQ.BB</id></desc></path></svg>