<?xml version="1.0"?>
<svg xmlns="http://www.w3.org/2000/svg" version="1.2" baseProfile="tiny" width="800" height="551" viewBox="0 0 800 551" stroke-linecap="round" stroke-linejoin="round">
<g id="us">
<path d="M 759.366 143.0308 755.6741 138.0358 750.0276 139.6646 749.919 139.4474 736.7801 142.8136 736.02 142.9222 726.6816 144.9853 726.3558 131.412 753.2852 125.114 757.5201 120.2277 759.8004 122.8337 758.9317 131.3034 765.664 133.6923 767.1842 140.5333 761.9721 146.2883 759.366 143.0308 Z"/>
<path d="M 461.4088 93.4716 458.2565 95.1442 458.6908 106.22 453.3701 109.6948 451.1984 116.3185 454.1302 118.7074 452.61 125.7655 452.61 131.955 462.5999 137.71 469.0065 144.4424 474.2187 147.157 475.3045 155.0838 452.61 156.0611 425.4635 156.7126 402.7689 156.8212 402.8775 122.3994 397.4482 116.4271 401.5745 109.912 401.0316 102.5281 398.5341 96.4473 397.8826 80.0508 394.4078 66.8032 394.9507 57.5734 393.4305 50.8411 419.5998 50.9497 419.7084 43.5658 423.9433 45.086 427.0923 56.0532 436.4307 57.5734 437.9509 59.8537 444.3575 57.4648 452.1757 59.0936 456.8449 63.2199 460.211 62.677 464.8803 67.0204 468.355 67.9977 474.7616 63.98 476.6076 66.3689 484.5344 65.6088 487.249 67.4548 491.3085 67.3835 489.8891 68.6002 484.3461 72.0646 479.4959 74.1432 475.6851 76.5683 469.4492 81.4185 464.9454 85.9222 460.0953 88.3473 458.0166 90.0795 461.4088 93.4716 Z"/>
<path d="M 306.3444 46.389 303.1954 82.3311 301.1323 105.1342 299.3949 123.1595 278.9807 121.2049 256.9377 118.7074 230.4426 115.1241 204.9249 111.1064 203.2961 120.662 200.5814 115.5584 197.3239 118.5989 189.5056 117.4044 185.488 118.0559 176.9096 116.5357 175.6066 109.6948 170.3945 98.8362 170.3945 93.4069 168.5485 90.9094 162.7934 93.8412 160.296 91.5609 163.0106 82.6568 166.7025 74.0785 156.7126 57.4648 154.7581 56.1618 153.6722 48.235 150.7404 41.5027 154.9752 22.8258 173.9778 26.9521 201.5587 32.2728 229.2482 36.942 254.3316 40.634 273.8771 43.1314 306.3444 46.389 Z"/>
<path d="M 393.4305 50.8411 394.9507 57.5734 394.4078 66.8032 397.8826 80.0508 398.5341 96.4473 401.0316 102.5281 401.5745 109.912 364.1123 109.1519 345.3268 108.2832 323.501 106.9801 301.1323 105.1342 303.1954 82.3311 306.3444 46.389 326.9758 48.1264 346.6299 49.3209 374.6451 50.5153 393.4305 50.8411 Z"/>
<path d="M 319.3331 526.4938 324.3822 528.2274 328.8253 531.7341 328.862 534.314 333.8003 538.9939 330.7892 541.6921 321.3704 545.5653 318.0732 549.5566 314.4838 547.6486 314.3074 541.904 311.1021 534.3164 315.418 528.7361 319.3331 526.4938 Z M 301.4486 509.6127 312.1131 513.971 312.0739 516.1043 304.7736 517.9618 301.4486 509.6127 Z M 277.9311 498.8071 279.6891 505.2631 274.2391 504.5356 271.9385 500.9036 275.7522 496.8054 277.9311 498.8071 Z M 251.1328 486.6518 252.8561 488.2193 250.1559 493.4905 244.3669 491.3214 245.2194 487.9356 251.1328 486.6518 Z"/>
<path d="M 203.2961 120.662 198.8441 147.157 195.4779 167.7884 177.0182 164.6394 153.455 160.0788 130.109 155.1924 112.0837 151.0661 119.7933 117.7302 119.9019 116.9701 120.1191 116.6443 120.5534 116.5357 120.9878 115.8842 121.7479 114.1468 121.8564 113.9297 121.8564 113.8211 121.965 113.7125 122.0736 113.4953 122.0736 113.061 121.8564 112.4094 121.8564 112.0837 122.0736 111.9751 122.6165 111.9751 123.2681 110.6721 122.8337 110.1291 122.6165 109.912 122.3994 108.8261 119.6847 107.6317 120.0105 106.6544 120.0105 106.4372 119.9019 106.0029 119.9019 105.7857 120.4448 104.1569 120.5534 104.0483 120.7706 103.9397 120.8792 103.614 120.9878 103.614 121.2049 103.614 121.3135 103.5054 121.6393 103.3968 121.8564 103.071 122.0736 102.7453 122.3994 102.0938 124.2453 99.8134 125.114 99.4877 125.4398 99.2705 125.657 99.0533 127.2858 97.2074 131.6292 89.7149 135.104 85.9144 135.2125 85.5887 135.3211 84.72 134.8868 82.5482 132.2807 80.1593 131.5206 78.6391 131.412 77.4447 131.412 76.9018 131.412 76.7932 131.3034 75.8159 130.8691 74.6214 130.9777 69.5179 131.955 64.9573 134.1267 55.836 135.5383 49.6466 139.8818 31.9471 140.5333 29.0152 141.1848 25.9748 142.5964 20.0026 154.9752 22.8258 150.7404 41.5027 153.6722 48.235 154.7581 56.1618 156.7126 57.4648 166.7025 74.0785 163.0106 82.6568 160.296 91.5609 162.7934 93.8412 168.5485 90.9094 170.3945 93.4069 170.3945 98.8362 175.6066 109.6948 176.9096 116.5357 185.488 118.0559 189.5056 117.4044 197.3239 118.5989 200.5814 115.5584 203.2961 120.662 Z"/>
<path d="M 131.412 76.7932 129.6746 76.3588 126.3085 75.5987 117.8388 73.5356 103.7225 69.9522 95.6872 69.4093 86.5659 70.6038 81.3538 69.3007 74.1871 69.5179 72.8841 67.3462 66.1517 65.1744 59.3108 66.2603 53.6643 62.677 53.8815 53.7729 50.8411 51.384 45.086 47.0405 41.7198 47.1491 44.6517 38.4622 43.24 31.6213 44.3259 17.7223 42.5885 13.8132 43.0229 8.601 46.1719 5.5606 51.4926 11.2071 66.4775 17.7223 68.7578 24.9976 64.8487 32.3814 68.432 32.7072 68.7578 27.3864 71.581 22.1743 73.6442 9.7955 72.124 1 92.2124 6.9722 113.8211 12.8359 142.5964 20.0026 139.8818 31.9471 139.1216 34.7703 138.3615 37.7021 135.5383 49.6466 130.9777 69.5179 131.412 76.7932 Z"/>
<path d="M 210.0284 266.7104 205.1421 300.155 200.3643 333.7081 194.5006 374.1022 161.4904 368.8901 142.4878 357.8143 117.9473 343.2637 105.2428 335.4455 105.8943 333.8167 106.9801 332.8394 107.4145 332.2965 107.7402 331.645 108.3918 331.3192 110.0205 331.9707 110.7807 331.9707 110.9978 331.7536 111.215 330.6677 112.1923 330.2334 112.4094 330.0162 112.518 329.5818 112.518 328.3874 112.6266 327.5187 111.8665 326.3243 110.4549 325.9985 109.912 325.5642 109.5862 324.8041 109.8034 324.1525 110.1291 323.501 110.3463 322.7409 110.4549 321.6551 110.3463 321.3293 110.0205 320.6778 110.0205 320.352 110.3463 319.9177 110.5635 319.7005 110.6721 319.5919 110.5635 319.3747 110.3463 318.9404 110.3463 318.7232 110.5635 318.6146 111.3236 318.7232 112.0837 318.5061 113.061 317.0944 113.7125 316.7687 113.9297 316.5515 115.667 309.3848 117.4044 308.0818 117.7302 307.756 118.4903 306.453 123.0509 304.3898 123.2681 303.4126 120.1191 300.0464 119.2504 294.2913 118.4903 293.857 118.3817 292.3368 118.2731 292.1196 117.8388 291.5767 118.0559 289.2964 118.0559 289.1878 118.4903 286.6903 119.6847 285.8216 119.4675 279.415 120.8792 268.5564 123.7024 267.7963 129.7832 271.2711 131.7378 268.2306 134.6696 253.5715 158.1242 258.1321 177.0182 261.4983 210.0284 266.7104 Z"/>
<path d="M 13.1617 123.5938 34.8789 130.3262 70.8209 140.6419 62.5684 171.046 55.836 195.9122 58.4421 199.8213 60.9396 203.7304 63.5457 207.6395 68.8664 215.4577 74.1871 223.276 76.7932 227.1851 85.1543 239.9982 99.3791 261.4983 118.0559 289.1878 118.0559 289.2964 117.8388 291.5767 118.2731 292.1196 118.3817 292.3368 118.4903 293.857 119.2504 294.2913 120.1191 300.0464 123.2681 303.4126 123.0509 304.3898 118.4903 306.453 117.7302 307.756 117.4044 308.0818 115.667 309.3848 113.9297 316.5515 113.7125 316.7687 113.061 317.0944 112.0837 318.5061 110.5635 318.6146 110.3463 318.7232 110.3463 318.9404 110.5635 319.3747 110.6721 319.5919 110.5635 319.7005 110.3463 319.9177 110.0205 320.352 110.0205 320.6778 110.3463 321.3293 110.4549 321.6551 110.3463 322.7409 110.1291 323.501 109.8034 324.1525 109.5862 324.8041 109.912 325.5642 110.4549 325.9985 111.8665 326.3243 112.6266 327.5187 112.7352 327.7359 112.6266 327.9531 112.6266 328.1702 112.518 328.3874 112.518 329.5818 112.4094 330.0162 112.1923 330.2334 111.215 330.6677 111.1064 330.9935 110.9978 331.7536 110.7807 331.9707 110.0205 331.9707 108.3918 331.3192 107.7402 331.645 107.6317 331.8622 98.7276 330.7763 90.3664 329.6904 68.8664 326.7586 67.5633 323.0667 68.3234 315.2485 66.3689 310.2535 59.0936 300.6979 54.9673 297.6575 53.5557 293.2055 47.4749 291.5767 38.8966 281.9125 25.9748 277.7862 23.9117 274.5286 26.8435 264.3215 23.5859 261.2811 24.7804 258.5665 20.1112 252.0513 18.4824 245.319 14.2475 237.5007 14.4647 233.9174 18.4824 228.9224 17.1793 225.1219 14.0303 224.1446 11.5329 219.1497 11.75 212.4173 17.3965 213.1774 8.7096 201.4501 9.144 196.9981 2.846 183.4248 3.1717 173.5435 5.5606 164.6394 1 154.5409 1.4343 151.0661 5.5606 147.157 11.9672 134.561 13.1617 123.5938 Z"/>
<path d="M 320.352 220.7785 318.1803 254.6574 316.6601 277.8948 302.001 276.9175 281.8039 275.1802 253.0286 272.2483 232.9401 269.7509 210.0284 266.7104 213.7204 240.7583 217.5209 214.6976 220.8871 191.1344 259.218 196.1294 292.6625 199.4956 321.5465 201.7759 320.352 220.7785 Z"/>
<path d="M 134.6696 253.5715 131.7378 268.2306 129.7832 271.2711 123.7024 267.7963 120.8792 268.5564 119.4675 279.415 119.6847 285.8216 118.4903 286.6903 118.0559 289.1878 99.3791 261.4983 85.1543 239.9982 76.7932 227.1851 74.1871 223.276 68.8664 215.4577 63.5457 207.6395 60.9396 203.7304 58.4421 199.8213 55.836 195.9122 62.5684 171.046 70.8209 140.6419 88.8462 145.3111 112.0837 151.0661 130.109 155.1924 153.455 160.0788 148.1343 186.3566 142.9222 212.7431 134.6696 253.5715 Z"/>
<path d="M 301.2408 286.3645 300.5893 286.3645 300.5893 286.6903 300.3722 289.9479 300.155 292.554 298.852 308.4075 298.4176 313.7283 298.2004 316.4429 297.9833 319.049 296.6802 334.9026 295.16 353.4708 294.9428 356.1855 294.6171 358.7915 293.9656 366.8269 293.5312 372.1476 289.9479 371.8219 286.3645 371.4961 279.0893 370.9532 264.6473 369.6502 246.5134 367.6956 239.3467 366.9355 235.0033 366.3926 235.0033 366.7183 235.2204 367.4784 235.329 367.9128 235.2204 368.3471 235.7634 369.8673 235.9805 369.9759 236.1977 370.0845 236.3063 370.1931 236.8492 371.0618 209.2683 367.4784 208.0739 376.0567 194.5006 374.1022 200.3643 333.7081 205.1421 300.155 210.0284 266.7104 232.9401 269.7509 253.0286 272.2483 281.8039 275.1802 302.001 276.9175 301.7838 279.1979 301.458 283.9756 301.2408 286.3645 Z"/>
<path d="M 50.8411 51.384 53.8815 53.7729 53.6643 62.677 59.3108 66.2603 66.1517 65.1744 72.8841 67.3462 74.1871 69.5179 81.3538 69.3007 86.5659 70.6038 95.6872 69.4093 103.7225 69.9522 117.8388 73.5356 126.3085 75.5987 129.6746 76.3588 131.412 76.7932 134.8868 82.5482 135.3211 84.72 135.104 85.9144 131.6292 89.7149 127.2858 97.2074 125.657 99.0533 125.4398 99.2705 125.114 99.4877 124.2453 99.8134 122.3994 102.0938 122.0736 102.7453 121.8564 103.071 121.6393 103.3968 121.3135 103.5054 121.2049 103.614 120.9878 103.614 120.8792 103.614 120.4448 104.1569 120.4448 104.6998 120.0105 105.3513 119.9019 105.7857 119.9019 106.0029 120.0105 106.4372 120.0105 106.6544 119.6847 107.6317 122.3994 108.8261 123.2681 110.6721 123.2681 110.8892 122.8337 111.5408 122.6165 111.9751 121.8564 112.4094 122.0736 113.061 122.0736 113.4953 121.965 113.7125 121.8564 113.8211 121.8564 113.9297 121.7479 114.1468 120.9878 115.8842 119.9019 116.9701 119.9019 117.4044 119.7933 117.7302 112.0837 151.0661 88.8462 145.3111 70.8209 140.6419 34.8789 130.3262 13.1617 123.5938 12.1844 116.6443 14.3561 110.6721 13.596 106.763 20.6541 97.4245 24.9976 89.6063 34.7703 67.0204 41.937 48.9951 46.8234 48.9951 50.8411 51.384 Z"/>
<path d="M 195.4779 167.7884 192.3289 186.6824 220.8871 191.1344 217.5209 214.6976 213.7204 240.7583 210.0284 266.7104 177.0182 261.4983 158.1242 258.1321 134.6696 253.5715 142.9222 212.7431 148.1343 186.3566 153.455 160.0788 177.0182 164.6394 195.4779 167.7884 Z"/>
<path d="M 296.0287 161.3818 292.6625 199.4956 259.218 196.1294 220.8871 191.1344 192.3289 186.6824 195.4779 167.7884 198.8441 147.157 203.2961 120.662 204.9249 111.1064 230.4426 115.1241 256.9377 118.7074 278.9807 121.2049 299.3949 123.1595 296.0287 161.3818 Z"/>
<path d="M 506.3602 296.6802 503.4284 302.001 503.9713 305.5843 501.2566 308.8419 501.7996 312.5338 498.6506 316.3343 498.6506 316.4429 499.1935 316.9858 499.1935 317.8545 494.4157 323.501 494.7415 327.6273 493.3298 328.7132 492.4612 328.8217 492.1354 328.6046 492.0268 328.7132 491.2667 330.5591 490.6152 332.0793 489.3122 333.0566 489.3122 333.5995 490.5066 334.1425 490.6152 334.9026 490.398 335.2283 490.1808 335.3369 488.2263 339.6804 488.0091 340.1147 487.249 340.3319 485.946 341.8521 485.7288 345.2183 487.249 346.1955 487.249 348.0415 486.7061 348.9102 486.4889 349.236 487.0318 355.0996 475.3045 355.7511 472.4813 355.8597 469.5495 355.9683 466.6176 356.0769 455.1075 356.5112 452.2843 356.6198 449.3524 356.7284 446.4206 356.7284 440.6655 356.9456 440.6655 354.6653 440.4484 350.1046 440.4484 347.8243 440.3398 346.5213 433.3903 344.8925 433.4988 311.5565 430.3498 290.3822 455.759 289.7307 472.5899 289.0792 498.9763 287.6676 500.7137 291.5767 496.3703 297.6575 506.3602 296.6802 Z"/>
<path d="M 484.8601 173.5435 492.0268 180.6016 491.9182 186.4652 490.0723 190.5915 485.1859 193.8491 481.0596 194.392 479.9737 199.0612 481.9283 203.6219 475.6303 214.8062 471.1783 210.4628 451.307 211.983 431.2185 212.6345 412.4331 212.3087 410.8043 198.5183 407.8725 194.1749 408.1983 189.3971 404.072 181.5789 402.226 175.6066 400.0543 171.1546 402.6604 164.0965 401.1402 162.1419 402.7689 156.8212 425.4635 156.7126 452.61 156.0611 475.3045 155.0838 478.8879 169.4172 483.7743 170.8288 484.8601 173.5435 Z"/>
<path d="M 430.2413 280.8266 391.2588 280.8266 363.0264 280.1751 341.8521 279.415 316.6601 277.8948 318.1803 254.6574 320.352 220.7785 339.1374 221.8643 372.9077 223.276 394.5164 223.6017 419.0569 223.7103 425.4635 227.0765 422.4231 232.6144 426.4407 238.5866 429.5897 240.324 430.2413 280.8266 Z"/>
<path d="M 475.6303 214.8062 474.653 218.8239 477.4763 227.5108 485.8374 234.5689 487.9005 240.6497 495.7187 242.2785 495.8273 246.9477 493.4384 253.5715 497.8905 258.6751 506.7945 264.213 508.6405 268.9907 507.7718 272.3569 511.138 276.9175 512.3324 276.266 513.4183 277.4605 513.9612 277.2433 514.287 277.3519 514.3956 277.6776 514.3956 279.3064 514.0698 279.8494 514.0698 280.5009 514.3956 281.1524 514.3956 281.5867 514.3956 282.1297 513.5269 284.5186 513.3097 285.0615 512.8754 285.3873 512.3324 285.2787 511.5723 284.5186 511.138 284.1928 510.9208 284.41 510.8122 284.7357 510.595 285.4958 510.595 285.713 510.3779 286.6903 510.3779 286.9075 506.4688 292.011 506.3602 296.6802 496.3703 297.6575 500.7137 291.5767 498.9763 287.6676 472.5899 289.0792 455.759 289.7307 430.3498 290.3822 430.2413 280.8266 429.5897 240.324 426.4407 238.5866 422.4231 232.6144 425.4635 227.0765 419.0569 223.7103 412.4331 212.3087 431.2185 212.6345 451.307 211.983 471.1783 210.4628 475.6303 214.8062 Z"/>
<path d="M 402.226 175.6066 404.072 181.5789 408.1983 189.3971 407.8725 194.1749 410.8043 198.5183 412.4331 212.3087 419.0569 223.7103 394.5164 223.6017 372.9077 223.276 339.1374 221.8643 320.352 220.7785 321.5465 201.7759 292.6625 199.4956 296.0287 161.3818 332.1879 164.0965 358.4658 165.3995 374.2108 165.9424 380.8345 170.1773 383.2234 168.6571 390.7159 168.4399 399.077 172.5662 402.226 175.6066 Z"/>
<path d="M 430.3498 290.3822 433.4988 311.5565 433.3903 344.8925 427.0923 342.8294 421.5544 338.9203 419.3826 340.7662 417.971 340.7662 416.4508 340.4405 415.4735 339.246 410.0442 340.3319 405.8094 342.8294 395.3851 340.6576 391.8017 341.8521 389.7386 339.8975 388.8699 340.9834 388.4356 340.5491 387.1325 341.4177 382.2462 338.3773 381.7032 338.8117 380.2916 340.2233 371.8219 335.1197 369.433 336.3142 358.3572 332.948 358.3572 331.2106 357.2713 329.4733 350.7562 329.5818 350.539 329.3647 350.2132 328.8217 347.7157 326.2157 345.8698 325.8899 347.39 289.1878 319.5919 287.6676 315.5742 287.4504 311.7737 287.1246 308.299 286.9075 305.4757 286.6903 301.2408 286.3645 301.458 283.9756 301.7838 279.1979 302.001 276.9175 316.6601 277.8948 341.8521 279.415 363.0264 280.1751 391.2588 280.8266 430.2413 280.8266 430.3498 290.3822 Z"/>
<path d="M 401.5745 109.912 397.4482 116.4271 402.8775 122.3994 402.7689 156.8212 401.1402 162.1419 402.6604 164.0965 400.0543 171.1546 402.226 175.6066 399.077 172.5662 390.7159 168.4399 383.2234 168.6571 380.8345 170.1773 374.2108 165.9424 358.4658 165.3995 332.1879 164.0965 296.0287 161.3818 299.3949 123.1595 301.1323 105.1342 323.501 106.9801 345.3268 108.2832 364.1123 109.1519 401.5745 109.912 Z"/>
<path d="M 517.436 407.5467 514.3956 408.0897 505.4915 404.6149 502.6683 407.9811 503.9713 410.9129 512.441 411.673 519.0648 414.4963 515.9158 420.6857 527.3173 427.0923 524.7113 429.4812 511.8981 421.7715 509.4006 427.8524 501.148 425.8978 498.8677 429.4812 489.8551 427.7438 489.8551 424.4862 484.4258 422.3145 481.7111 418.1882 476.6076 416.8852 471.9384 422.8574 464.9888 421.7715 456.1934 418.8397 447.1807 419.7084 445.9863 414.9306 446.6378 407.1124 450.2211 394.5164 444.7918 384.0921 443.3802 378.5542 441.0999 376.3825 440.8827 368.1299 440.8827 363.6779 440.7741 361.3976 440.7741 359.1173 440.6655 356.9456 446.4206 356.7284 449.3524 356.7284 452.2843 356.6198 455.1075 356.5112 466.6176 356.0769 469.5495 355.9683 472.4813 355.8597 475.3045 355.7511 487.0318 355.0996 487.5748 362.5921 491.8096 367.8042 489.6379 372.7992 484.5344 379.7487 482.6884 384.4179 481.0596 394.1906 512.7668 392.3447 511.3552 398.5341 517.436 407.5467 Z"/>
<path d="M 440.6655 356.9456 440.7741 359.1173 440.7741 361.3976 440.8827 363.6779 440.8827 368.1299 441.0999 376.3825 443.3802 378.5542 444.7918 384.0921 450.2211 394.5164 446.6378 407.1124 445.9863 414.9306 441.7514 420.9028 427.8524 427.0923 423.4003 433.4988 415.9079 439.0367 405.5922 442.4029 391.476 452.9358 387.2411 459.8853 382.029 472.807 386.9154 493.3298 383.8749 495.393 379.4229 491.8096 369.8673 490.7238 359.986 484.7515 354.8824 483.8828 352.385 475.6303 348.8016 470.9611 348.3673 460.8626 345.1097 459.1252 339.1374 449.2438 335.6627 446.312 333.9253 440.5569 330.4505 433.9332 329.799 430.1327 321.8722 422.3145 318.0717 416.9937 303.1954 413.6276 296.5716 415.9079 292.6625 423.4003 287.6676 429.9155 285.0615 429.3726 277.2433 423.4003 272.8999 421.8801 265.516 414.822 263.4529 409.2841 263.8872 404.5063 259.4352 394.625 253.8973 390.7159 244.4503 379.2057 241.9528 377.9027 239.3467 372.3648 237.175 371.3875 236.3063 370.1931 236.1977 370.0845 235.9805 369.9759 235.7634 369.8673 235.2204 368.3471 235.329 367.9128 235.2204 367.4784 235.0033 366.7183 235.0033 366.3926 239.3467 366.9355 246.5134 367.6956 264.6473 369.6502 279.0893 370.9532 286.3645 371.4961 289.9479 371.8219 293.5312 372.1476 293.9656 366.8269 294.6171 358.7915 294.9428 356.1855 295.16 353.4708 296.6802 334.9026 297.9833 319.049 298.2004 316.4429 298.4176 313.7283 298.852 308.4075 300.155 292.554 300.3722 289.9479 300.5893 287.2332 300.5893 286.6903 300.5893 286.3645 301.2408 286.3645 305.4757 286.6903 308.299 286.9075 311.7737 287.1246 315.5742 287.4504 319.5919 287.6676 347.39 289.1878 345.8698 325.8899 347.7157 326.2157 350.2132 328.8217 350.539 329.3647 350.7562 329.5818 357.2713 329.4733 358.3572 332.948 369.433 336.3142 371.8219 335.1197 380.2916 340.2233 381.7032 338.8117 382.2462 338.3773 387.1325 341.4177 388.4356 340.5491 388.8699 340.9834 389.7386 339.8975 391.8017 341.8521 395.3851 340.6576 405.8094 342.8294 410.0442 340.3319 415.4735 339.246 416.4508 340.4405 417.971 340.7662 419.3826 340.7662 421.5544 338.9203 427.0923 342.8294 436.3221 345.8698 440.3398 346.5213 440.4484 347.8243 440.4484 350.1046 440.6655 356.9456 Z"/>
<path d="M 736.7801 142.8136 749.919 139.4474 751.5478 144.9853 752.0908 147.0484 752.4165 148.1343 752.5251 148.6772 752.7423 149.4373 752.9595 150.6318 752.7423 151.1747 752.8509 152.152 752.8509 152.5863 752.8509 152.6949 752.5251 152.3692 751.0049 152.5863 746.8786 154.8666 740.1463 156.9298 729.2877 165.0738 728.7447 164.4222 727.876 163.5535 727.7675 163.445 729.2877 159.2101 729.0705 158.0156 728.9619 157.147 728.3104 153.6722 726.6816 144.9853 736.2372 143.4651 736.7801 142.8136 Z"/>
<path d="M 737.323 128.806 735.3685 126.4171 734.2826 113.7125 735.5857 108.3918 735.3685 98.619 739.3862 94.2755 738.7347 83.0912 739.0604 78.5305 742.7523 76.1417 743.0781 77.1189 743.4039 78.0962 743.7296 79.0735 744.3811 81.028 746.77 87.869 748.3988 92.7553 750.0276 97.6417 750.3534 98.619 750.6791 99.5963 751.3307 101.5508 752.3079 104.3741 752.9595 106.3286 753.2852 107.3059 753.5024 107.8488 754.2625 111.215 759.4746 116.1014 753.2852 125.114 737.323 128.806 Z"/>
<path d="M 759.366 143.0308 757.5201 150.4146 756.1085 150.7404 754.0453 152.0434 753.068 152.5863 752.8509 152.6949 752.8509 152.5863 752.8509 152.152 752.7423 151.1747 752.9595 150.6318 752.7423 149.4373 752.5251 148.6772 752.4165 148.1343 752.0908 147.0484 751.5478 144.9853 750.0276 139.6646 755.6741 138.0358 759.366 143.0308 Z"/>
<path d="M 737.323 128.806 731.2422 130.2176 730.0478 130.5433 728.6361 130.8691 727.9846 130.9777 727.2245 131.1949 726.3558 131.412 726.2472 131.412 725.8129 130.5433 725.8129 130.2176 725.8129 129.2403 722.7725 116.3185 720.1664 113.1695 719.6235 111.7579 719.5149 111.5408 719.5149 111.215 719.5149 110.9978 719.5149 110.7807 719.4063 110.6721 718.972 110.0205 718.6462 109.2604 718.5376 109.0433 718.429 108.5003 718.429 108.2832 718.2119 108.1746 717.8861 107.8488 717.8861 107.7402 717.7775 107.4145 717.8861 107.1973 717.9947 105.5685 717.9947 105.2428 717.8861 104.917 717.9947 104.5912 718.1033 104.3741 718.2119 104.2655 718.3205 104.1569 718.429 103.9397 718.2119 102.6367 717.8861 101.8766 717.7775 101.6594 717.7775 101.5508 717.8861 100.7907 717.9947 100.2478 717.8861 99.922 717.8861 99.7049 717.7775 99.5963 717.7775 99.4877 714.5199 89.7149 738.7347 83.0912 739.3862 94.2755 735.3685 98.619 735.5857 108.3918 734.2826 113.7125 735.3685 126.4171 737.323 128.806 Z"/>
<path d="M 572.272 310.1449 572.272 310.2535 572.3806 310.5793 572.5978 311.448 573.4665 314.4884 576.0725 323.3924 579.1129 333.8167 583.2392 348.1501 589.6458 360.6375 587.5827 363.2436 586.714 369.433 588.9943 374.7537 588.4514 379.8573 590.8403 384.8522 564.671 387.7841 548.1659 389.4128 547.8401 391.9103 551.9664 395.928 551.9664 399.1856 549.5775 403.3119 543.8224 401.0316 540.5648 402.8775 535.787 402.3346 532.0951 373.6678 532.7466 347.7157 533.5067 315.7914 531.9865 313.9454 531.8779 313.7283 531.9865 313.7283 532.5295 313.6197 535.0269 313.5111 537.5244 313.2939 542.3022 312.8596 554.681 311.9909 559.676 311.448 564.5624 310.905 566.9513 310.6878 569.4488 310.3621 572.272 310.1449 Z"/>
<path d="M 649.2596 382.2462 656.1006 399.077 664.0274 411.8902 670.7597 419.817 669.3481 424.7034 677.7092 437.1908 686.3961 452.5014 688.0249 470.5267 685.8532 476.1732 684.9845 484.2086 673.8001 488.1177 667.5021 476.0646 658.2723 471.2868 656.2091 464.6631 647.0879 458.2565 639.1611 446.2034 639.0525 442.6201 635.252 440.7741 635.1434 433.6074 636.555 428.3953 635.5778 419.7084 631.3429 414.822 628.4111 415.3649 621.0272 409.5013 615.4893 402.6604 609.2999 399.8371 605.1736 400.7058 595.8352 408.9584 588.7771 410.4786 587.5827 406.7866 581.8276 402.9861 569.7745 399.2942 551.9664 399.1856 551.9664 395.928 547.8401 391.9103 548.1659 389.4128 564.671 387.7841 590.8403 384.8522 593.7721 389.9558 624.502 388.0012 637.5323 386.9154 642.2015 381.2689 649.2596 382.2462 Z"/>
<path d="M 655.0147 355.534 651.1056 362.2663 649.3682 368.4557 651.3228 370.9532 648.4995 377.3598 649.2596 382.2462 642.2015 381.2689 637.5323 386.9154 624.502 388.0012 593.7721 389.9558 590.8403 384.8522 588.4514 379.8573 588.9943 374.7537 586.714 369.433 587.5827 363.2436 589.6458 360.6375 583.2392 348.1501 579.1129 333.8167 576.0725 323.3924 573.4665 314.4884 572.5978 311.448 572.3806 310.5793 572.272 310.2535 572.272 310.1449 575.8554 309.7106 577.8099 309.4934 579.7645 309.1676 583.7821 308.7333 592.2519 307.6474 611.0373 304.8242 608.1055 310.905 616.5752 314.4884 622.4388 323.1753 634.1661 331.2106 637.6409 336.5314 641.8758 338.1602 644.9162 345.6526 648.6081 347.8243 651.8657 354.991 655.0147 355.534 Z"/>
<path d="M 531.9865 313.9454 533.5067 315.7914 532.7466 347.7157 532.0951 373.6678 535.787 402.3346 530.2491 403.4205 526.9916 402.0088 517.436 407.5467 511.3552 398.5341 512.7668 392.3447 481.0596 394.1906 482.6884 384.4179 484.5344 379.7487 489.6379 372.7992 491.8096 367.8042 487.5748 362.5921 487.0318 355.0996 488.0091 352.4935 487.7919 350.2132 487.4662 349.7789 486.8147 349.6703 486.4889 349.236 485.7288 345.2183 485.946 341.8521 487.249 340.3319 488.0091 340.1147 488.2263 339.6804 487.3576 336.3142 490.1808 335.3369 490.398 335.2283 490.6152 334.9026 490.5066 334.1425 491.2667 330.5591 492.3526 329.799 492.0268 328.7132 492.1354 328.6046 492.4612 328.8217 493.3298 328.7132 494.7415 327.6273 494.4157 323.501 498.6506 316.3343 500.6051 316.2257 502.6683 316.1172 506.7945 315.9 514.9385 315.2485 525.1456 314.4884 529.1633 314.1626 531.2264 314.054 531.9865 313.9454 Z"/>
<path d="M 685.636 313.9454 680.7496 319.5919 678.1436 328.8217 667.3935 342.1778 661.3127 345.7612 661.2041 348.0415 655.0147 355.534 651.8657 354.991 648.6081 347.8243 644.9162 345.6526 641.8758 338.1602 637.6409 336.5314 634.1661 331.2106 622.4388 323.1753 616.5752 314.4884 608.1055 310.905 611.0373 304.8242 623.4161 299.0691 642.3101 297.006 647.3051 299.9378 647.9566 302.4353 665.5476 299.9378 685.636 313.9454 Z"/>
<path d="M 521.9703 171.1298 523.8402 178.0752 527.651 183.9646 530.358 185.7693 531.9865 204.5991 534.2668 230.1169 532.7466 234.1346 535.6785 241.4099 534.1583 246.1876 528.9461 255.6346 529.3805 260.3039 529.1633 261.3897 528.186 262.4756 527.8603 263.2357 527.8603 263.67 527.9688 263.9958 528.2946 264.5387 529.2719 265.8417 528.7289 266.7104 526.0143 267.4705 525.1456 268.0135 523.8426 268.2306 523.6254 268.4478 523.0825 269.7509 523.2996 271.1625 524.4941 273.0084 524.2769 274.4201 523.8426 274.8544 517.2188 272.5741 514.287 277.3519 513.9612 277.2433 513.4183 277.4605 512.3324 276.266 511.138 276.9175 507.7718 272.3569 508.6405 268.9907 506.7945 264.213 497.8905 258.6751 493.4384 253.5715 495.8273 246.9477 495.7187 242.2785 487.9005 240.6497 485.8374 234.5689 477.4763 227.5108 474.653 218.8239 475.6303 214.8062 481.9283 203.6219 479.9737 199.0612 481.0596 194.392 485.1859 193.8491 490.0723 190.5915 491.9182 186.4652 492.0268 180.6016 484.8601 173.5435 521.9703 171.1298 Z"/>
<path d="M 530.358 185.7693 532.8476 187.429 537.3513 185.6968 539.0328 183.595 568.9058 180.2758 569.0144 181.4703 571.2947 199.9299 574.8781 230.7684 574.5523 230.9856 574.2266 231.5285 574.3351 232.18 574.9867 232.723 575.8554 234.5689 575.9639 234.7861 575.7468 235.2204 575.5296 235.4376 575.5296 235.872 575.6382 236.6321 573.0321 237.2836 570.969 238.8038 570.426 239.021 561.9563 247.8164 561.7391 248.0336 561.522 248.9023 560.979 249.5538 560.8705 252.2685 559.2417 253.7887 555.4411 252.7028 555.224 251.3998 554.2467 250.6397 554.2467 251.7255 553.5952 252.0513 553.2694 252.0513 552.7265 251.7255 552.5093 251.9427 552.6179 252.1599 552.8351 252.3771 552.9437 252.5942 552.9437 253.0286 551.8578 254.1144 551.8578 255.8518 548.8174 256.6119 548.2745 256.2862 547.9487 255.8518 547.7315 255.3089 547.5144 254.9831 546.9714 255.3089 545.8856 256.2862 544.2568 257.2634 543.8224 259.0008 538.3931 256.8291 532.9638 258.6751 530.9007 260.521 529.3805 260.3039 528.9461 255.6346 534.1583 246.1876 535.6785 241.4099 532.7466 234.1346 534.2668 230.1169 531.9865 204.5991 530.358 185.7693 Z"/>
<path d="M 621.4616 254.223 620.81 255.0917 619.6156 256.3947 616.4666 260.0867 612.5575 262.9099 609.4085 268.5564 606.0423 271.814 598.3327 275.7231 597.8984 275.9403 597.3554 276.1574 583.6736 277.4605 579.873 277.7862 576.0725 278.112 561.6306 279.6322 555.4411 279.7408 534.5926 282.1297 531.5522 285.1701 523.6254 285.8216 518.3047 286.256 512.9839 286.6903 510.3779 286.9075 510.595 285.713 510.595 285.4958 510.8122 284.7357 510.9208 284.41 511.138 284.1928 511.5723 284.5186 512.3324 285.2787 512.8754 285.3873 513.3097 285.0615 513.5269 284.5186 514.3956 282.1297 514.3956 281.5867 514.3956 281.1524 514.0698 280.5009 514.0698 279.8494 514.287 277.3519 513.744 276.809 513.4183 276.3746 513.3097 275.8317 517.2188 272.5741 523.8426 274.8544 524.2769 274.4201 524.6027 273.5514 524.4941 273.0084 523.2996 271.1625 523.6254 268.4478 523.8426 268.2306 525.1456 268.0135 526.0143 267.4705 528.7289 266.7104 527.8603 263.67 527.8603 263.2357 528.186 262.4756 529.1633 261.3897 529.3805 260.3039 531.5522 259.6523 532.9638 258.6751 538.3931 256.8291 543.8224 259.0008 544.2568 257.2634 545.0169 256.3947 545.8856 256.2862 546.9714 255.3089 547.5144 254.9831 547.7315 255.3089 547.9487 255.8518 548.2745 256.2862 548.8174 256.6119 551.8578 255.8518 551.8578 254.1144 552.9437 253.0286 552.9437 252.5942 553.2694 252.0513 553.5952 252.0513 554.2467 251.7255 554.2467 250.6397 555.224 251.3998 559.2417 253.7887 560.8705 252.2685 560.979 249.5538 561.522 248.9023 561.7391 248.0336 561.9563 247.8164 570.426 239.021 570.969 238.8038 573.0321 237.2836 575.6382 236.6321 575.5296 235.872 575.5296 235.4376 575.7468 235.2204 575.9639 234.7861 575.8554 234.5689 574.8781 234.5689 574.4437 234.2432 574.9867 232.723 574.3351 232.18 574.2266 231.5285 574.5523 230.9856 574.8781 230.7684 575.6382 230.1169 575.8554 229.8997 575.9639 229.6825 576.2897 229.6825 580.416 230.0083 582.3705 231.0942 583.7821 233.0487 584.1079 233.7002 584.2165 234.4603 584.4337 234.7861 584.7594 235.0033 594.8579 235.6548 595.1837 235.6548 595.5095 235.7634 596.2696 236.0891 597.464 236.1977 598.5499 237.175 604.3049 233.5916 605.7166 236.4149 607.6711 237.175 608.9741 238.0437 609.6257 239.021 609.6257 239.2381 609.7342 239.3467 609.7342 239.8896 609.7342 239.9982 609.8428 240.1068 610.1686 240.7583 610.2772 240.9755 610.2772 241.0841 610.3858 242.2785 610.06 242.4957 610.06 243.2558 609.9514 243.473 609.7342 243.6902 609.6257 243.9073 609.7342 244.2331 611.1459 245.6447 611.5802 246.2962 612.5575 247.8164 613.7519 248.6851 613.8605 249.0109 613.9691 249.5538 614.1863 249.8796 615.2721 250.7483 615.5979 251.1826 616.1408 252.1599 621.4616 254.223 Z"/>
<path d="M 714.1942 255.9604 716.5831 258.2407 714.0856 266.819 719.2977 265.9503 721.9038 268.3392 717.3432 278.7635 712.674 278.6549 712.131 292.1196 703.9871 295.2686 699.535 299.7206 695.9517 305.5843 695.6259 310.4707 685.636 313.9454 665.5476 299.9378 647.9566 302.4353 647.3051 299.9378 642.3101 297.006 623.4161 299.0691 611.0373 304.8242 592.2519 307.6474 592.2519 306.7787 592.1433 305.8015 592.0347 303.4126 600.0701 295.4858 603.5448 294.9428 612.1231 286.256 622.0045 280.8266 623.8505 281.6953 628.1939 275.0716 628.3025 272.7913 628.4111 272.3569 628.8454 271.0539 635.5778 270.7281 652.9516 268.3392 676.7319 263.8872 714.1942 255.9604 Z"/>
<path d="M 633.0803 192.2203 632.9717 198.5183 631.2343 212.3087 626.8909 217.5209 619.8328 222.5159 620.0499 227.6194 615.8151 226.8593 613.4262 238.0437 609.6257 239.021 605.7166 236.4149 604.3049 233.5916 598.5499 237.175 597.464 236.1977 596.2696 236.0891 595.5095 235.7634 595.1837 235.6548 594.8579 235.6548 589.863 235.2204 584.7594 235.0033 584.4337 234.7861 584.2165 234.4603 583.7821 233.0487 582.3705 231.0942 580.416 230.0083 577.5927 230.7684 576.2897 229.6825 575.9639 229.6825 575.8554 229.8997 575.6382 230.1169 574.8781 230.7684 571.2947 199.9299 569.0144 181.4703 588.6685 178.1041 592.1433 173.7606 598.767 177.7783 602.8933 177.2354 617.4439 164.6394 627.651 160.7303 633.0803 192.2203 Z"/>
<path d="M 498.6506 316.3343 501.7996 312.5338 501.2566 308.8419 503.9713 305.5843 503.4284 302.001 506.3602 296.6802 506.4688 292.011 510.3779 286.9075 531.5522 285.1701 534.5926 282.1297 555.4411 279.7408 561.6306 279.6322 576.0725 278.112 579.873 277.7862 583.6736 277.4605 597.3554 276.1574 597.8984 275.9403 598.3327 275.7231 624.502 272.0312 625.1535 271.4882 627.4338 271.2711 628.8454 271.0539 628.1939 275.0716 623.8505 281.6953 622.0045 280.8266 612.1231 286.256 603.5448 294.9428 600.0701 295.4858 592.0347 303.4126 592.1433 305.8015 592.2519 306.7787 592.2519 307.6474 583.7821 308.7333 579.7645 309.1676 577.8099 309.4934 575.8554 309.7106 573.9008 309.9277 572.272 310.1449 569.4488 310.3621 564.5624 310.905 559.676 311.448 554.681 311.9909 542.3022 312.8596 537.5244 313.2939 535.0269 313.5111 532.5295 313.6197 531.9865 313.7283 531.8779 313.7283 531.9865 313.9454 531.7694 313.9454 531.2264 314.054 529.1633 314.1626 525.1456 314.4884 514.9385 315.2485 506.7945 315.9 502.6683 316.1172 500.6051 316.2257 498.6506 316.3343 Z"/>
<path d="M 677.9264 209.3769 682.2698 212.5259 688.4592 214.9148 690.3052 218.8239 687.9163 220.4527 687.2648 224.579 694.9744 228.3795 698.9921 227.9452 705.3987 231.4199 706.0502 243.5816 708.982 249.0109 713.3255 249.0109 715.1715 255.7432 714.5199 255.8518 714.1942 255.9604 676.7319 263.8872 652.9516 268.3392 635.5778 270.7281 628.8454 271.0539 625.1535 271.4882 624.502 272.0312 598.3327 275.7231 606.0423 271.814 609.4085 268.5564 612.5575 262.9099 616.4666 260.0867 619.6156 256.3947 620.81 255.0917 621.4616 254.223 621.6787 254.3316 621.6787 254.4402 621.7873 254.5488 621.7873 254.9831 621.5701 255.7432 622.4388 257.1549 622.5474 257.2634 622.656 257.372 623.4161 257.8064 624.3934 258.6751 628.7368 259.4352 637.5323 256.3947 638.401 255.6346 638.5096 255.4175 638.6182 255.2003 643.2874 252.0513 644.5904 252.5942 644.5904 252.4856 645.0248 252.0513 646.6536 250.6397 646.2192 247.3821 651.5399 234.8947 652.843 228.5967 655.1233 230.3341 655.8834 230.4426 657.4036 230.6598 658.3809 230.7684 658.4895 230.7684 658.598 230.6598 659.4667 228.8139 659.9011 226.425 661.4213 222.0815 663.4844 222.733 665.8733 219.4754 666.8506 218.281 667.1764 217.1951 667.7193 215.8921 668.2622 215.3492 668.6966 214.4805 669.0223 208.834 669.2395 209.0512 671.0855 210.0284 672.0627 210.4628 677.1663 213.1774 677.2749 212.9603 677.2749 212.6345 677.3835 212.0916 677.7092 210.5714 677.9264 209.7027 677.9264 209.4855 677.9264 209.3769 Z"/>
<path d="M 523.6475 116.9587 521.7616 119.8733 521.7616 123.3377 517.9507 125.4163 515.5256 130.9593 517.9507 131.9987 521.7616 127.1485 525.226 125.0699 529.3832 118.1411 531.4619 117.4482 528.3439 126.1092 524.5331 134.7702 524.8795 139.2739 522.4544 142.0454 523.1473 147.9349 520.7222 154.1708 521.7616 161.7925 521.4151 169.0677 521.9703 171.1298 484.8601 173.5435 483.7743 170.8288 478.8879 169.4172 475.3045 155.0838 474.2187 147.157 469.0065 144.4424 462.5999 137.71 452.61 131.955 452.61 125.7655 454.1302 118.7074 451.1984 116.3185 453.3701 109.6948 458.6908 106.22 458.2565 95.1442 461.4088 93.4716 462.5204 94.5832 475.3386 87.6544 473.6064 93.8903 477.7637 92.1581 482.2674 94.9296 483.6909 94.297 483.3399 95.2528 487.4662 99.7049 501.0395 102.5281 505.0572 104.3741 514.8299 105.6771 519.3905 109.912 519.6077 113.7125 523.6475 116.9587 Z"/>
<path d="M 651.2142 206.988 652.843 216.6522 662.3986 207.7481 670.7597 203.6219 676.5148 206.6623 676.6234 206.8794 676.7319 207.0966 676.7319 207.531 677.3835 207.7481 677.6006 207.9653 677.9264 209.3769 677.9264 209.4855 677.9264 209.7027 677.7092 210.5714 677.3835 212.0916 677.2749 212.6345 677.2749 212.9603 677.1663 213.1774 672.0627 210.4628 671.0855 210.0284 669.2395 209.0512 669.0223 208.834 668.6966 214.4805 668.2622 215.3492 667.7193 215.8921 667.1764 217.1951 666.8506 218.281 665.8733 219.4754 663.4844 222.733 661.4213 222.0815 659.9011 226.425 659.4667 228.8139 658.598 230.6598 658.4895 230.7684 658.3809 230.7684 657.4036 230.6598 655.8834 230.4426 655.1233 230.3341 652.843 228.5967 651.5399 234.8947 646.2192 247.3821 647.3051 248.5765 646.6536 250.6397 645.0248 252.0513 644.5904 252.4856 644.5904 252.5942 643.2874 252.0513 638.6182 255.2003 638.5096 255.4175 638.401 255.6346 637.5323 256.3947 628.7368 259.4352 624.3934 258.6751 623.4161 257.8064 622.656 257.372 622.5474 257.2634 622.4388 257.1549 621.7873 254.5488 621.6787 254.4402 621.6787 254.3316 621.4616 254.223 621.2444 254.1144 621.0272 254.1144 619.1812 254.1144 616.1408 252.1599 615.5979 251.1826 615.2721 250.7483 614.1863 249.8796 613.9691 249.5538 613.8605 249.0109 613.7519 248.6851 612.5575 247.8164 609.7342 244.2331 609.6257 244.0159 609.6257 243.9073 609.7342 243.6902 609.9514 243.473 610.06 243.2558 610.06 242.4957 610.3858 242.2785 610.2772 241.7356 610.2772 241.3013 610.2772 241.0841 610.2772 240.9755 610.1686 240.7583 609.8428 240.1068 609.7342 239.9982 609.7342 239.8896 609.7342 239.3467 609.6257 239.2381 609.6257 239.021 613.4262 238.0437 615.8151 226.8593 620.0499 227.6194 619.8328 222.5159 626.8909 217.5209 631.2343 212.3087 632.9717 198.5183 633.0803 192.2203 636.1207 209.7027 651.2142 206.988 Z"/>
<path d="M 709.4164 193.3062 707.5704 197.4324 712.9997 207.0966 717.4518 211.2229 720.7093 217.1951 720.3836 217.0865 720.1664 217.3037 718.972 217.5209 714.4113 218.6067 711.1538 219.2583 708.3305 209.4855 704.8558 197.4324 704.53 196.0208 709.4164 193.3062 Z"/>
<path d="M 688.4592 214.9148 682.2698 212.5259 677.9264 209.3769 677.6006 209.0512 677.6006 208.7254 677.6006 208.3996 677.6006 207.9653 677.3835 207.7481 676.7319 207.531 676.5148 207.4224 676.7319 207.0966 676.5148 206.6623 670.7597 203.6219 662.3986 207.7481 652.843 216.6522 651.2142 206.988 656.2091 206.0107 661.3127 205.1421 662.9415 204.8163 664.5703 204.4905 666.3077 204.1648 679.6638 201.4501 686.2875 200.0385 691.2825 198.9526 692.9113 198.6269 694.6487 198.3011 696.2775 197.8668 704.53 196.0208 708.3305 209.4855 711.1538 219.2583 714.4113 218.6067 720.1664 217.3037 720.1664 217.4123 720.1664 217.7381 720.0578 218.3896 720.4922 219.9098 717.7775 226.425 713.977 228.2709 710.828 225.6649 703.9871 223.1674 703.7699 216.8694 700.6209 204.8163 696.929 205.4678 698.6663 211.2229 697.3633 216.1093 698.9921 220.6699 703.3356 227.2936 693.8886 226.3164 691.7168 223.4931 688.0249 223.6017 690.4138 219.0411 691.7168 215.0234 688.4592 214.9148 Z"/>
<path d="M 712.8911 162.0333 725.7043 166.1596 725.1614 171.6975 722.5553 176.5839 727.7675 178.647 727.876 191.0259 725.8129 194.392 722.4467 204.9249 715.823 203.7304 709.1992 199.7128 709.3078 193.8491 713.1083 191.1344 714.1942 188.094 716.4745 185.5965 717.3432 185.0536 717.7775 184.2935 717.5603 183.9678 714.6285 181.9046 711.6967 180.0586 711.2623 178.647 710.9366 178.2127 709.525 178.3213 708.6563 174.8465 708.4391 170.6116 711.0452 165.9424 711.2623 164.0965 711.9139 162.902 712.3482 162.4677 712.674 162.3591 712.8911 162.1419 712.8911 162.0333 Z"/>
<path d="M 748.1817 157.4727 747.313 163.1192 736.4543 168.8743 730.3735 173.0005 726.573 169.8515 731.7851 165.5081 743.9468 161.4904 748.1817 157.4727 Z M 726.3558 131.412 726.6816 144.9853 728.3104 153.6722 728.9619 157.147 729.0705 158.0156 729.2877 159.2101 730.4821 160.4045 730.3735 160.7303 727.876 163.2278 727.7675 163.445 725.7043 166.1596 712.8911 162.0333 712.7826 161.7076 711.8053 160.7303 710.9366 160.7303 710.1765 160.9475 709.8507 160.9475 709.6336 160.8389 709.4164 160.6217 709.1992 160.5131 708.0048 160.0788 706.7017 158.45 705.5073 154.5409 701.1638 152.2606 683.6815 156.1697 676.0804 157.7985 674.1259 158.1242 672.2799 158.5586 668.4794 159.3187 662.7243 160.5131 639.3783 164.8566 638.401 159.2101 637.5323 154.7581 646.9793 147.9171 644.8076 139.3388 642.4187 135.8641 648.4995 131.412 673.6915 126.4171 677.1663 116.7529 689.6537 98.5104 694.4315 94.4927 714.5199 89.7149 716.3659 97.7503 717.7775 99.4877 717.7775 99.5963 717.8861 99.7049 717.8861 99.922 717.9947 100.2478 717.7775 101.5508 717.7775 101.6594 717.8861 101.8766 718.2119 102.6367 718.429 103.1796 718.429 103.614 718.429 103.9397 718.3205 104.1569 718.2119 104.2655 718.1033 104.3741 717.9947 104.5912 717.8861 104.8084 717.8861 104.917 717.9947 105.2428 717.9947 105.5685 717.8861 107.1973 717.7775 107.4145 717.7775 107.6317 717.8861 107.7402 717.8861 107.8488 718.2119 108.1746 718.429 108.2832 718.429 108.5003 718.6462 109.2604 718.972 110.0205 719.4063 110.6721 719.5149 110.7807 719.5149 110.9978 719.5149 111.215 719.5149 111.5408 719.5149 111.6493 719.6235 111.7579 720.0578 112.1923 720.1664 113.1695 722.7725 116.3185 725.8129 129.2403 725.8129 130.2176 725.8129 130.5433 726.2472 131.412 726.3558 131.412 Z"/>
<path d="M 709.4164 193.3062 704.53 196.0208 696.2775 197.8668 694.6487 198.3011 692.9113 198.6269 691.2825 198.9526 686.2875 200.0385 679.6638 201.4501 666.3077 204.1648 664.5703 204.4905 662.9415 204.8163 661.3127 205.1421 656.2091 206.0107 651.2142 206.988 636.1207 209.7027 633.0803 192.2203 627.651 160.7303 637.5323 154.7581 638.401 159.2101 638.5096 160.4045 638.7268 161.4904 639.3783 164.8566 662.7243 160.5131 668.4794 159.3187 672.2799 158.5586 674.1259 158.1242 676.0804 157.7985 683.6815 156.1697 701.1638 152.2606 705.5073 154.5409 706.0502 155.4096 706.7017 158.45 708.0048 160.0788 709.1992 160.5131 709.4164 160.6217 709.6336 160.8389 709.8507 160.9475 710.1765 160.9475 710.9366 160.7303 711.8053 160.7303 712.7826 161.7076 712.8911 162.0333 712.8911 162.1419 711.2623 164.0965 711.0452 165.9424 708.4391 170.6116 709.525 178.3213 710.9366 178.2127 711.2623 178.647 711.6967 180.0586 714.6285 181.9046 716.1487 183.2076 717.5603 183.9678 716.5831 185.488 716.4745 185.5965 715.1715 186.791 712.9997 189.1799 709.4164 193.3062 Z"/>
<path d="M 754.2625 111.215 753.7196 109.2604 753.7196 108.7175 753.611 108.5003 753.5024 107.8488 753.2852 107.3059 752.9595 106.3286 752.3079 104.3741 751.3307 101.5508 750.6791 99.5963 750.3534 98.619 750.0276 97.6417 748.3988 92.7553 746.77 87.869 744.3811 81.028 743.7296 79.0735 743.4039 78.0962 743.0781 77.1189 742.7523 76.1417 746.6615 71.7982 750.1362 61.6997 748.7246 59.0936 749.919 51.8183 749.1589 46.2804 754.4797 29.8839 758.3888 32.5986 760.4519 33.1415 768.4873 27.6036 775.2196 31.6213 782.7121 53.6643 788.1414 56.2704 789.7702 62.3512 793.7879 63.0027 799 68.7578 796.8283 72.9927 789.3358 79.9422 784.1237 80.2679 778.5858 85.0457 775.0024 84.3942 775.4368 91.8867 774.1338 94.4927 764.9039 98.619 762.4064 102.5281 760.0176 115.3413 754.2625 111.215 Z"/>
<path d="M 523.6475 116.9587 519.6077 113.7125 519.3905 109.912 514.8299 105.6771 505.0572 104.3741 501.0395 102.5281 487.4662 99.7049 483.3399 95.2528 483.6909 94.297 491.6213 90.7723 496.8179 89.733 500.6287 86.9615 503.4003 82.8042 507.5575 80.7256 512.7541 77.6076 517.6043 76.2219 518.6436 76.2219 513.1006 82.1113 509.6362 87.3079 509.6362 90.0795 513.1006 86.9615 517.6043 87.3079 522.8009 90.4259 525.9188 95.9689 529.0368 94.2367 534.2334 95.6225 538.7371 94.5832 544.2801 90.0795 550.8625 90.7723 559.5235 89.0401 559.8183 88.9936 560.5447 90.1493 566.4084 90.2579 570.1003 96.9902 574.4437 95.3614 575.421 101.0079 584.3747 104.9873 574.074 103.5906 565.0665 103.5906 564.0272 106.7086 557.7913 103.2442 552.5947 102.2049 551.2089 104.2835 543.9337 104.6299 538.0442 109.4801 536.312 110.5194 536.312 106.7086 532.5012 106.7086 531.1154 109.4801 530.4226 107.4014 525.5724 113.9838 523.6475 116.9587 Z M 539.0328 183.595 540.1229 182.2324 543.2408 176.343 545.6659 168.7213 545.3195 160.4067 539.43 148.6278 541.5086 145.5098 539.43 141.0061 541.8551 134.0773 542.5479 127.8414 546.0123 124.7234 550.1696 119.8733 550.5161 127.1485 552.2483 126.8021 554.6733 117.1018 560.2164 115.716 558.8306 113.2909 561.2557 108.7872 565.413 109.4801 572.3418 112.2516 572.6882 114.6767 577.1919 114.6767 583.0814 117.1018 585.5065 123.3377 582.0421 121.6055 583.7743 126.4556 583.7743 134.7702 581.6956 136.5024 581.0028 141.699 576.499 141.699 574.4204 145.8563 580.3099 149.3207 585.8529 143.0847 588.278 141.699 594.5139 142.0454 595.8997 155.2101 597.2854 160.7532 597.5558 160.67 591.3832 168.0056 592.1433 173.7606 588.6685 178.1041 569.0144 181.4703 568.9058 180.2758 539.0328 183.595 Z"/>
<path d="M 29.0311 521.7429 29.252 523.538 26.6532 523.8531 24.9991 525.1167 24.1278 523.3917 28.0263 521.6109 29.0311 521.7429 Z M 36.4049 520.7579 37.5536 521.9165 37.8366 523.9369 29.6604 525.0406 31.2181 523.8167 32.9044 524.0595 36.4049 520.7579 Z M 53.7799 516.8408 54.8602 519.8689 53.2292 520.7243 50.8066 519.8621 49.0131 520.9432 46.872 520.3588 49.575 517.0499 53.7799 516.8408 Z M 209.6546 521.9966 211.107 523.8626 211.4797 526.1713 210.7413 528.3443 207.3969 526.3697 207.968 522.5853 209.6546 521.9966 Z M 197.9831 520.112 199.9311 520.0718 200.7975 522.3311 202.403 522.6025 204.6706 525.3183 204.5272 526.4241 206.7958 528.2373 207.5781 532.2419 204.3111 531.2834 203.9821 529.9196 200.9309 528.9431 201.251 525.966 199.6438 525.4231 200.1393 523.7384 199.6043 521.4934 197.9831 520.112 Z M 195.6194 516.0409 196.5635 516.648 196.714 519.5879 194.0671 517.8085 195.6194 516.0409 Z M 196.4412 514.1212 200.177 514.8659 200.7298 517.3029 199.9498 518.9411 197.5709 519.2389 196.4412 514.1212 Z M 188.5722 511.7983 190.9417 512.5124 192.8399 517.5258 193.0257 520.811 190.9766 519.3111 189.2692 517.0325 189.3663 515.1272 187.4565 512.7681 188.5722 511.7983 Z M 109.0834 505.1612 111.4179 505.6654 111.1393 507.8393 109.6206 510.7954 107.0099 510.7792 103.0624 514.3359 100.8365 511.8114 100.1157 508.598 101.2862 507.2575 104.8165 505.4599 108.1086 506.0548 109.0834 505.1612 Z M 186.5784 505.3588 190.2547 506.7075 191.2327 511.1281 186.1191 511.92 183.7679 508.519 183.5543 506.4468 186.5784 505.3588 Z M 189.9886 503.7702 191.1549 505.388 193.0393 506.7941 195.0941 509.632 195.701 511.8079 193.1087 514.9315 192.9103 511.8249 191.8776 510.1676 189.9886 503.7702 Z M 111.6124 500.9063 113.7372 502.1146 114.1256 503.2862 110.0977 504.7547 108.4554 502.9907 110.5416 502.3026 111.6124 500.9063 Z M 137.0967 487.8227 135.2186 491.2205 134.3715 490.6597 137.0967 487.8227 Z M 59.1243 469.7595 60.4977 471.142 59.9227 474.2948 56.6889 474.2415 53.5782 470.9623 57.6774 469.2409 59.1243 469.7595 Z M 50.5493 433.5983 50.5625 435.004 52.1776 436.651 54.896 436.7384 56.5699 442.3697 54.4332 442.9713 53.0842 439.1355 52.0397 437.6472 49.4724 437.7288 48.8353 435.4202 50.5493 433.5983 Z M 119.8206 390.3524 119.5336 391.5063 122.8344 393.2902 123.8144 396.3233 127.3534 396.1252 129.3506 396.8597 129.133 399.6614 130.2965 400.8029 137.7695 401.3663 140.3144 403.3422 143.8082 404.8731 147.363 405.1089 149.9714 406.9035 154.9483 405.8808 157.7289 408.1483 161.4709 409.8851 161.7325 425.9382 162.0383 444.4634 162.1832 453.1129 162.4014 469.1514 162.5714 480.2682 162.7202 488.9354 166.9001 489.9429 168.4621 488.6506 170.6949 488.4516 170.4446 490.7908 177.5795 497.493 178.5878 500.2226 182.5032 496.7039 183.1344 493.7982 186.2953 492.0445 188.5105 493.9505 188.2662 495.0302 191.641 497.8218 192.6287 499.4819 194.2546 500.1885 196.3535 502.2938 201.505 509.8196 204.4493 513.4702 204.3194 514.935 209.5589 518.0261 214.8114 519.9384 214.825 522.7905 216.3639 526.5583 215.1131 530.0277 212.4627 531.1976 211.367 528.1286 212.068 526.7869 211.4857 523.6871 209.8597 521.98 208.6122 521.6056 207.2664 522.847 206.6456 526.2831 204.9554 524.4502 206.1061 521.9892 205.5668 519.0458 202.9261 517.3201 202.7141 516.1673 199.5138 513.6684 197.3274 513.1167 197.8773 511.7288 196.6457 508.602 191.8688 503.7582 190.6557 503.4806 188.5941 499.9924 189.4659 504.3932 185.7842 502.8457 185.0828 504.144 182.6193 505.7379 178.3623 503.1548 175.1866 499.4397 167.7534 495.3392 169.3126 493.8404 168.6596 492.4192 165.7137 494.0843 159.6769 491.9545 155.1698 490.6898 150.3914 491.5822 146.3285 488.1794 142.0419 487.3092 143.1872 485.6948 139.8846 484.0974 138.7752 482.188 136.4284 483.2238 132.5298 482.8187 133.7046 486.7976 131.381 490.4136 127.4686 489.7323 125.646 490.6698 122.7204 493.8747 116.2751 495.638 115.9276 493.4518 118.769 492.6205 116.4614 490.3282 118.6881 487.2107 121.0546 482.4365 123.8739 480.6619 125.4238 481.8561 127.2378 481.4248 123.4463 478.356 121.0263 480.0235 118.4576 480.9183 117.8446 482.2655 115.4426 484.21 113.0047 488.7096 111.3814 490.1654 109.0775 490.3565 106.5591 492.1476 105.5572 494.595 107.6489 495.0699 109.094 496.4649 108.3433 498.0962 106.1396 498.7344 104.3842 501.8235 102.2258 503.0903 100.2776 502.7312 98.102 504.9112 93.3482 506.618 92.8752 508.5775 88.2866 511.1066 84.7214 511.3417 82.3524 512.3746 81.9171 514.8888 75.0675 516.3588 74.1655 515.7579 70.3483 517.9224 66.2528 517.9904 65.2554 515.4139 62.4779 518.9795 60.2456 518.5177 57.6415 519.1548 57.2898 517.6086 62.626 513.8539 64.9716 512.9217 68.4016 513.2265 69.2818 515.4364 71.1655 514.192 72.643 511.5487 76.1845 509.8318 80.4026 508.6033 84.2721 505.3904 87.4957 503.9543 90.157 496.723 92.5838 494.9617 92.7904 493.6085 87.6172 494.7611 85.2978 492.3914 84.768 494.898 83.3312 495.3711 82.6208 492.2391 80.4067 491.4636 79.1796 488.4787 74.058 490.0723 72.5944 489.3858 72.4842 485.9383 73.2391 483.8553 74.5015 483.2369 73.5193 476.8454 72.4528 478.1097 67.4246 478.2562 65.5663 477.2894 65.7215 475.4927 63.4118 471.8618 62.8254 469.4617 66.6426 468.3149 65.3166 465.9043 63.336 464.4551 63.7887 463.3388 62.5079 459.9456 65.587 458.7511 66.0359 456.4885 69.4098 454.1104 70.9196 453.7132 71.3586 451.8061 73.3373 449.8272 75.3067 449.422 78.5418 452.42 83.3066 450.4498 86.7644 451.0726 88.8005 449.5556 89.85 443.0523 91.0267 442.2065 89.1762 440.4414 86.7523 440.1371 84.3379 441.2711 78.5494 438.4378 75.7073 438.6874 72.1428 436.0415 72.496 433.2444 71.8111 431.4334 74.1173 430.0405 70.7839 427.824 69.2136 425.3613 72.666 424.0007 78.479 423.2292 83.2495 422.1974 85.7436 422.623 84.7301 426.3285 85.1762 427.2871 90.8814 429.5954 92.5678 428.1814 92.9791 426.5853 95.4549 428.076 97.7081 427.3657 95.9092 425.5471 94.1463 426.2192 92.7964 424.2459 93.8241 421.445 91.7773 421.3191 88.153 419.0403 88.231 414.3319 85.7498 409.3212 83.467 405.5821 85.0486 404.342 86.0682 401.9216 91.6563 403.6278 94.2939 402.9014 96.3197 401.4561 98.1559 398.2208 102.1191 395.1926 105.4632 395.6745 110.5672 393.5643 114.2921 393.9433 116.9797 392.573 119.8206 390.3524 Z"/>
<path d="M 688.5729 215.0026 691.6173 215.0939 690.3995 218.8284 688.5729 215.0026 Z"/>
</g>
</svg>