<?xml version='1.0' encoding='utf-8'?>
<svg height="700" width="700" xmlns="http://www.w3.org/2000/svg"><path d="M510.199004975,45.2736318408 L514.842454395,45.2736318408 L571.724709784,45.2736318408 L582.172470978,54.5605306799 L600.746268657,95.1907131012 L600.746268657,131.177446103 L567.081260365,131.177446103 L567.081260365,120.729684909 L536.898839138,104.47761194 L550.829187396,100.995024876 L550.829187396,65.008291874 L506.71641791,66.1691542289 L510.199004975,45.2736318408 Z" fill="#cee3f5" id="US.IL.031" stroke="#6e6e6e" stroke-width="0.4"><desc><name>Cook County</name><stateAbbrev>IL</stateAbbrev><state>Illinois</state><fips>031</fips><incits>17031</incits><id>US.IL.031</id><population>5240700</population></desc></path><path d="M333.747927032,76.6169154229 L420.812603648,77.7777777778 L421.973466003,111.44278607 L391.791044776,117.247097844 L333.747927032,117.247097844 L333.747927032,76.6169154229 Z" fill="#cee3f5" id="US.IL.103" stroke="#6e6e6e" stroke-width="0.4"><desc><name>Lee County</name><stateAbbrev>IL</stateAbbrev><state>Illinois</state><fips>103</fips><incits>17103</incits><id>US.IL.103</id><population>34858</population></desc></path><path d="M150.331674959,148.590381426 L153.814262023,139.303482587 L203.731343284,132.338308458 L243.20066335,117.247097844 L255.970149254,91.7081260365 L262.935323383,117.247097844 L231.592039801,133.499170813 L231.592039801,149.751243781 L150.331674959,148.590381426 Z" fill="#cee3f5" id="US.IL.161" stroke="#6e6e6e" stroke-width="0.4"><desc><name>Rock Island County</name><stateAbbrev>IL</stateAbbrev><state>Illinois</state><fips>161</fips><incits>17161</incits><id>US.IL.161</id><population>147258</population></desc></path><path d="M326.782752902,39.4693200663 L362.769485904,39.4693200663 L420.812603648,45.2736318408 L420.812603648,77.7777777778 L333.747927032,76.6169154229 L326.782752902,73.1343283582 L326.782752902,39.4693200663 Z" fill="#cee3f5" id="US.IL.141" stroke="#6e6e6e" stroke-width="0.4"><desc><name>Ogle County</name><stateAbbrev>IL</stateAbbrev><state>Illinois</state><fips>141</fips><incits>17141</incits><id>US.IL.141</id><population>52385</population></desc></path><path d="M514.842454395,1.16086235489 L565.92039801,2.32172470978 L562.437810945,27.8606965174 L571.724709784,45.2736318408 L514.842454395,45.2736318408 L514.842454395,1.16086235489 Z" fill="#cee3f5" id="US.IL.097" stroke="#6e6e6e" stroke-width="0.4"><desc><name>Lake County</name><stateAbbrev>IL</stateAbbrev><state>Illinois</state><fips>097</fips><incits>17097</incits><id>US.IL.097</id><population>703019</population></desc></path><path d="M506.71641791,99.8341625207 L521.807628524,98.6733001658 L525.290215589,98.6733001658 L527.611940299,98.6733001658 L528.772802653,98.6733001658 L533.416252073,98.6733001658 L536.898839138,104.47761194 L567.081260365,120.729684909 L567.081260365,131.177446103 L600.746268657,131.177446103 L600.746268657,153.233830846 L538.059701493,154.394693201 L509.03814262,166.00331675 L507.877280265,132.338308458 L506.71641791,99.8341625207 Z" fill="#cee3f5" id="US.IL.197" stroke="#6e6e6e" stroke-width="0.4"><desc><name>Will County</name><stateAbbrev>IL</stateAbbrev><state>Illinois</state><fips>197</fips><incits>17197</incits><id>US.IL.197</id><population>682829</population></desc></path><path d="M507.877280265,176.451077944 L509.03814262,166.00331675 L538.059701493,154.394693201 L600.746268657,153.233830846 L600.746268657,190.381426202 L524.129353234,191.542288557 L509.03814262,191.542288557 L507.877280265,176.451077944 Z" fill="#cee3f5" id="US.IL.091" stroke="#6e6e6e" stroke-width="0.4"><desc><name>Kankakee County</name><stateAbbrev>IL</stateAbbrev><state>Illinois</state><fips>091</fips><incits>17091</incits><id>US.IL.091</id><population>112120</population></desc></path><path d="M255.970149254,91.7081260365 L267.578772803,73.1343283582 L326.782752902,73.1343283582 L333.747927032,76.6169154229 L333.747927032,117.247097844 L304.726368159,117.247097844 L262.935323383,117.247097844 L255.970149254,91.7081260365 Z" fill="#cee3f5" id="US.IL.195" stroke="#6e6e6e" stroke-width="0.4"><desc><name>Whiteside County</name><stateAbbrev>IL</stateAbbrev><state>Illinois</state><fips>195</fips><incits>17195</incits><id>US.IL.195</id><population>57557</population></desc></path><path d="M463.764510779,99.8341625207 L466.086235489,45.2736318408 L510.199004975,45.2736318408 L506.71641791,66.1691542289 L506.71641791,99.8341625207 L463.764510779,99.8341625207 Z" fill="#cee3f5" id="US.IL.089" stroke="#6e6e6e" stroke-width="0.4"><desc><name>Kane County</name><stateAbbrev>IL</stateAbbrev><state>Illinois</state><fips>089</fips><incits>17089</incits><id>US.IL.089</id><population>523643</population></desc></path><path d="M450.995024876,2.32172470978 L514.842454395,1.16086235489 L514.842454395,45.2736318408 L510.199004975,45.2736318408 L466.086235489,45.2736318408 L450.995024876,45.2736318408 L450.995024876,2.32172470978 Z" fill="#cee3f5" id="US.IL.111" stroke="#6e6e6e" stroke-width="0.4"><desc><name>McHenry County</name><stateAbbrev>IL</stateAbbrev><state>Illinois</state><fips>111</fips><incits>17111</incits><id>US.IL.111</id><population>307409</population></desc></path><path d="M136.4013267,236.815920398 L172.388059701,236.815920398 L171.227197347,282.089552239 L171.227197347,293.698175788 L95.7711442786,292.537313433 L112.023217247,268.15920398 L115.505804312,240.298507463 L136.4013267,236.815920398 Z" fill="#cee3f5" id="US.IL.067" stroke="#6e6e6e" stroke-width="0.4"><desc><name>Hancock County</name><stateAbbrev>IL</stateAbbrev><state>Illinois</state><fips>067</fips><incits>17067</incits><id>US.IL.067</id><population>18618</population></desc></path><path d="M136.4013267,236.815920398 L148.009950249,214.759535655 L164.262023217,200.829187396 L166.583747927,182.255389718 L187.479270315,182.255389718 L186.31840796,204.311774461 L186.31840796,215.92039801 L186.31840796,237.976782753 L172.388059701,236.815920398 L136.4013267,236.815920398 Z" fill="#cee3f5" id="US.IL.071" stroke="#6e6e6e" stroke-width="0.4"><desc><name>Henderson County</name><stateAbbrev>IL</stateAbbrev><state>Illinois</state><fips>071</fips><incits>17071</incits><id>US.IL.071</id><population>6990</population></desc></path><path d="M150.331674959,148.590381426 L231.592039801,149.751243781 L230.431177446,171.807628524 L230.431177446,183.416252073 L187.479270315,182.255389718 L166.583747927,182.255389718 L145.688225539,160.199004975 L150.331674959,148.590381426 Z" fill="#cee3f5" id="US.IL.131" stroke="#6e6e6e" stroke-width="0.4"><desc><name>Mercer County</name><stateAbbrev>IL</stateAbbrev><state>Illinois</state><fips>131</fips><incits>17131</incits><id>US.IL.131</id><population>16178</population></desc></path><path d="M245.52238806,39.4693200663 L296.600331675,39.4693200663 L326.782752902,39.4693200663 L326.782752902,73.1343283582 L267.578772803,73.1343283582 L266.417910448,49.9170812604 L245.52238806,39.4693200663 Z" fill="#cee3f5" id="US.IL.015" stroke="#6e6e6e" stroke-width="0.4"><desc><name>Carroll County</name><stateAbbrev>IL</stateAbbrev><state>Illinois</state><fips>015</fips><incits>17015</incits><id>US.IL.015</id><population>14910</population></desc></path><path d="M296.600331675,0.0 L296.600331675,39.4693200663 L245.52238806,39.4693200663 L204.892205638,0.0 L296.600331675,0.0 Z" fill="#cee3f5" id="US.IL.085" stroke="#6e6e6e" stroke-width="0.4"><desc><name>Jo Daviess County</name><stateAbbrev>IL</stateAbbrev><state>Illinois</state><fips>085</fips><incits>17085</incits><id>US.IL.085</id><population>22407</population></desc></path><path d="M420.812603648,1.16086235489 L450.995024876,2.32172470978 L450.995024876,45.2736318408 L420.812603648,45.2736318408 L420.812603648,1.16086235489 Z" fill="#cee3f5" id="US.IL.007" stroke="#6e6e6e" stroke-width="0.4"><desc><name>Boone County</name><stateAbbrev>IL</stateAbbrev><state>Illinois</state><fips>007</fips><incits>17007</incits><id>US.IL.007</id><population>53957</population></desc></path><path d="M296.600331675,0.0 L362.769485904,1.16086235489 L362.769485904,39.4693200663 L326.782752902,39.4693200663 L296.600331675,39.4693200663 L296.600331675,0.0 Z" fill="#cee3f5" id="US.IL.177" stroke="#6e6e6e" stroke-width="0.4"><desc><name>Stephenson County</name><stateAbbrev>IL</stateAbbrev><state>Illinois</state><fips>177</fips><incits>17177</incits><id>US.IL.177</id><population>46740</population></desc></path><path d="M362.769485904,1.16086235489 L420.812603648,1.16086235489 L420.812603648,45.2736318408 L362.769485904,39.4693200663 L362.769485904,1.16086235489 Z" fill="#cee3f5" id="US.IL.201" stroke="#6e6e6e" stroke-width="0.4"><desc><name>Winnebago County</name><stateAbbrev>IL</stateAbbrev><state>Illinois</state><fips>201</fips><incits>17201</incits><id>US.IL.201</id><population>290666</population></desc></path><path d="M420.812603648,45.2736318408 L450.995024876,45.2736318408 L466.086235489,45.2736318408 L463.764510779,99.8341625207 L463.764510779,111.44278607 L421.973466003,111.44278607 L420.812603648,77.7777777778 L420.812603648,45.2736318408 Z" fill="#cee3f5" id="US.IL.037" stroke="#6e6e6e" stroke-width="0.4"><desc><name>DeKalb County</name><stateAbbrev>IL</stateAbbrev><state>Illinois</state><fips>037</fips><incits>17037</incits><id>US.IL.037</id><population>104741</population></desc></path><path d="M506.71641791,66.1691542289 L550.829187396,65.008291874 L550.829187396,100.995024876 L536.898839138,104.47761194 L533.416252073,98.6733001658 L528.772802653,98.6733001658 L527.611940299,98.6733001658 L525.290215589,98.6733001658 L521.807628524,98.6733001658 L506.71641791,99.8341625207 L506.71641791,66.1691542289 Z" fill="#cee3f5" id="US.IL.043" stroke="#6e6e6e" stroke-width="0.4"><desc><name>DuPage County</name><stateAbbrev>IL</stateAbbrev><state>Illinois</state><fips>043</fips><incits>17043</incits><id>US.IL.043</id><population>932126</population></desc></path><path d="M464.925373134,133.499170813 L507.877280265,132.338308458 L509.03814262,166.00331675 L507.877280265,176.451077944 L466.086235489,177.611940299 L464.925373134,133.499170813 Z" fill="#cee3f5" id="US.IL.063" stroke="#6e6e6e" stroke-width="0.4"><desc><name>Grundy County</name><stateAbbrev>IL</stateAbbrev><state>Illinois</state><fips>063</fips><incits>17063</incits><id>US.IL.063</id><population>50228</population></desc></path><path d="M463.764510779,99.8341625207 L506.71641791,99.8341625207 L507.877280265,132.338308458 L464.925373134,133.499170813 L463.764510779,111.44278607 L463.764510779,99.8341625207 Z" fill="#cee3f5" id="US.IL.093" stroke="#6e6e6e" stroke-width="0.4"><desc><name>Kendall County</name><stateAbbrev>IL</stateAbbrev><state>Illinois</state><fips>093</fips><incits>17093</incits><id>US.IL.093</id><population>119348</population></desc></path><path d="M482.338308458,268.15920398 L482.338308458,240.298507463 L510.199004975,240.298507463 L509.03814262,191.542288557 L524.129353234,191.542288557 L525.290215589,256.550580431 L548.507462687,256.550580431 L548.507462687,266.998341625 L482.338308458,268.15920398 Z" fill="#cee3f5" id="US.IL.053" stroke="#6e6e6e" stroke-width="0.4"><desc><name>Ford County</name><stateAbbrev>IL</stateAbbrev><state>Illinois</state><fips>053</fips><incits>17053</incits><id>US.IL.053</id><population>13832</population></desc></path><path d="M524.129353234,191.542288557 L600.746268657,190.381426202 L600.746268657,255.389718076 L548.507462687,256.550580431 L525.290215589,256.550580431 L524.129353234,191.542288557 Z" fill="#cee3f5" id="US.IL.075" stroke="#6e6e6e" stroke-width="0.4"><desc><name>Iroquois County</name><stateAbbrev>IL</stateAbbrev><state>Illinois</state><fips>075</fips><incits>17075</incits><id>US.IL.075</id><population>28982</population></desc></path><path d="M421.973466003,200.829187396 L421.973466003,177.611940299 L466.086235489,177.611940299 L507.877280265,176.451077944 L509.03814262,191.542288557 L510.199004975,240.298507463 L482.338308458,240.298507463 L467.247097844,221.724709784 L423.134328358,222.885572139 L421.973466003,200.829187396 Z" fill="#cee3f5" id="US.IL.105" stroke="#6e6e6e" stroke-width="0.4"><desc><name>Livingston County</name><stateAbbrev>IL</stateAbbrev><state>Illinois</state><fips>105</fips><incits>17105</incits><id>US.IL.105</id><population>38186</population></desc></path><path d="M379.021558872,242.620232172 L415.008291874,233.333333333 L423.134328358,222.885572139 L467.247097844,221.724709784 L482.338308458,240.298507463 L482.338308458,268.15920398 L482.338308458,282.089552239 L467.247097844,282.089552239 L394.112769486,282.089552239 L380.182421227,276.285240464 L379.021558872,242.620232172 Z" fill="#cee3f5" id="US.IL.113" stroke="#6e6e6e" stroke-width="0.4"><desc><name>McLean County</name><stateAbbrev>IL</stateAbbrev><state>Illinois</state><fips>113</fips><incits>17113</incits><id>US.IL.113</id><population>174647</population></desc></path><path d="M353.482587065,200.829187396 L406.88225539,200.829187396 L421.973466003,200.829187396 L423.134328358,222.885572139 L415.008291874,233.333333333 L379.021558872,242.620232172 L372.056384743,222.885572139 L344.195688226,222.885572139 L353.482587065,200.829187396 Z" fill="#cee3f5" id="US.IL.203" stroke="#6e6e6e" stroke-width="0.4"><desc><name>Woodford County</name><stateAbbrev>IL</stateAbbrev><state>Illinois</state><fips>203</fips><incits>17203</incits><id>US.IL.203</id><population>39273</population></desc></path><path d="M213.018242123,334.328358209 L221.144278607,320.39800995 L242.039800995,301.824212272 L251.326699834,311.111111111 L287.313432836,304.145936982 L287.313432836,330.845771144 L287.313432836,334.328358209 L213.018242123,334.328358209 Z" fill="#cee3f5" id="US.IL.017" stroke="#6e6e6e" stroke-width="0.4"><desc><name>Cass County</name><stateAbbrev>IL</stateAbbrev><state>Illinois</state><fips>017</fips><incits>17017</incits><id>US.IL.017</id><population>13324</population></desc></path><path d="M385.986733002,342.454394693 L395.273631841,362.189054726 L410.364842454,362.189054726 L410.364842454,401.658374793 L395.273631841,400.497512438 L346.517412935,401.658374793 L345.35655058,378.441127695 L360.447761194,349.419568823 L385.986733002,342.454394693 Z" fill="#cee3f5" id="US.IL.021" stroke="#6e6e6e" stroke-width="0.4"><desc><name>Christian County</name><stateAbbrev>IL</stateAbbrev><state>Illinois</state><fips>021</fips><incits>17021</incits><id>US.IL.021</id><population>34298</population></desc></path><path d="M337.230514096,277.446102819 L380.182421227,276.285240464 L394.112769486,282.089552239 L395.273631841,312.271973466 L385.986733002,328.524046434 L340.713101161,321.558872305 L337.230514096,302.985074627 L337.230514096,277.446102819 Z" fill="#cee3f5" id="US.IL.107" stroke="#6e6e6e" stroke-width="0.4"><desc><name>Logan County</name><stateAbbrev>IL</stateAbbrev><state>Illinois</state><fips>107</fips><incits>17107</incits><id>US.IL.107</id><population>29964</population></desc></path><path d="M385.986733002,342.454394693 L385.986733002,328.524046434 L395.273631841,312.271973466 L446.351575456,311.111111111 L446.351575456,344.776119403 L437.064676617,362.189054726 L410.364842454,362.189054726 L395.273631841,362.189054726 L385.986733002,342.454394693 Z" fill="#cee3f5" id="US.IL.115" stroke="#6e6e6e" stroke-width="0.4"><desc><name>Macon County</name><stateAbbrev>IL</stateAbbrev><state>Illinois</state><fips>115</fips><incits>17115</incits><id>US.IL.115</id><population>109278</population></desc></path><path d="M242.039800995,301.824212272 L260.613598673,294.859038143 L296.600331675,262.354892206 L322.139303483,263.515754561 L337.230514096,277.446102819 L337.230514096,302.985074627 L287.313432836,304.145936982 L251.326699834,311.111111111 L242.039800995,301.824212272 Z" fill="#cee3f5" id="US.IL.125" stroke="#6e6e6e" stroke-width="0.4"><desc><name>Mason County</name><stateAbbrev>IL</stateAbbrev><state>Illinois</state><fips>125</fips><incits>17125</incits><id>US.IL.125</id><population>14248</population></desc></path><path d="M287.313432836,304.145936982 L337.230514096,302.985074627 L340.713101161,321.558872305 L316.334991708,330.845771144 L287.313432836,330.845771144 L287.313432836,304.145936982 Z" fill="#cee3f5" id="US.IL.129" stroke="#6e6e6e" stroke-width="0.4"><desc><name>Menard County</name><stateAbbrev>IL</stateAbbrev><state>Illinois</state><fips>129</fips><incits>17129</incits><id>US.IL.129</id><population>12607</population></desc></path><path d="M324.461028192,378.441127695 L345.35655058,378.441127695 L346.517412935,401.658374793 L395.273631841,400.497512438 L395.273631841,417.910447761 L381.343283582,417.910447761 L381.343283582,442.288557214 L332.587064677,444.610281924 L324.461028192,444.610281924 L324.461028192,378.441127695 Z" fill="#cee3f5" id="US.IL.135" stroke="#6e6e6e" stroke-width="0.4"><desc><name>Montgomery County</name><stateAbbrev>IL</stateAbbrev><state>Illinois</state><fips>135</fips><incits>17135</incits><id>US.IL.135</id><population>29654</population></desc></path><path d="M210.696517413,344.776119403 L214.179104478,338.971807629 L213.018242123,334.328358209 L287.313432836,334.328358209 L296.600331675,378.441127695 L266.417910448,379.60199005 L247.844112769,379.60199005 L239.718076285,349.419568823 L210.696517413,344.776119403 Z" fill="#cee3f5" id="US.IL.137" stroke="#6e6e6e" stroke-width="0.4"><desc><name>Morgan County</name><stateAbbrev>IL</stateAbbrev><state>Illinois</state><fips>137</fips><incits>17137</incits><id>US.IL.137</id><population>35067</population></desc></path><path d="M446.351575456,344.776119403 L480.016583748,344.776119403 L480.016583748,362.189054726 L480.016583748,388.888888889 L466.086235489,387.728026534 L437.064676617,362.189054726 L446.351575456,344.776119403 Z" fill="#cee3f5" id="US.IL.139" stroke="#6e6e6e" stroke-width="0.4"><desc><name>Moultrie County</name><stateAbbrev>IL</stateAbbrev><state>Illinois</state><fips>139</fips><incits>17139</incits><id>US.IL.139</id><population>14876</population></desc></path><path d="M287.313432836,330.845771144 L316.334991708,330.845771144 L340.713101161,321.558872305 L385.986733002,328.524046434 L385.986733002,342.454394693 L360.447761194,349.419568823 L345.35655058,378.441127695 L324.461028192,378.441127695 L296.600331675,378.441127695 L287.313432836,334.328358209 L287.313432836,330.845771144 Z" fill="#cee3f5" id="US.IL.167" stroke="#6e6e6e" stroke-width="0.4"><desc><name>Sangamon County</name><stateAbbrev>IL</stateAbbrev><state>Illinois</state><fips>167</fips><incits>17167</incits><id>US.IL.167</id><population>199145</population></desc></path><path d="M210.696517413,344.776119403 L239.718076285,349.419568823 L247.844112769,379.60199005 L213.018242123,378.441127695 L204.892205638,356.384742952 L210.696517413,344.776119403 Z" fill="#cee3f5" id="US.IL.171" stroke="#6e6e6e" stroke-width="0.4"><desc><name>Scott County</name><stateAbbrev>IL</stateAbbrev><state>Illinois</state><fips>171</fips><incits>17171</incits><id>US.IL.171</id><population>5222</population></desc></path><path d="M395.273631841,400.497512438 L410.364842454,401.658374793 L410.364842454,362.189054726 L437.064676617,362.189054726 L466.086235489,387.728026534 L480.016583748,388.888888889 L480.016583748,397.014925373 L481.177446103,417.910447761 L438.225538972,417.910447761 L395.273631841,417.910447761 L395.273631841,400.497512438 Z" fill="#cee3f5" id="US.IL.173" stroke="#6e6e6e" stroke-width="0.4"><desc><name>Shelby County</name><stateAbbrev>IL</stateAbbrev><state>Illinois</state><fips>173</fips><incits>17173</incits><id>US.IL.173</id><population>22119</population></desc></path><path d="M296.600331675,262.354892206 L302.404643449,253.067993367 L330.265339967,246.102819237 L344.195688226,226.368159204 L344.195688226,222.885572139 L372.056384743,222.885572139 L379.021558872,242.620232172 L380.182421227,276.285240464 L337.230514096,277.446102819 L322.139303483,263.515754561 L296.600331675,262.354892206 Z" fill="#cee3f5" id="US.IL.179" stroke="#6e6e6e" stroke-width="0.4"><desc><name>Tazewell County</name><stateAbbrev>IL</stateAbbrev><state>Illinois</state><fips>179</fips><incits>17179</incits><id>US.IL.179</id><population>136352</population></desc></path><path d="M95.7711442786,292.537313433 L171.227197347,293.698175788 L171.227197347,305.306799337 L170.066334992,337.810945274 L170.066334992,349.419568823 L113.184079602,348.258706468 L102.736318408,333.167495854 L95.7711442786,292.537313433 Z" fill="#cee3f5" id="US.IL.001" stroke="#6e6e6e" stroke-width="0.4"><desc><name>Adams County</name><stateAbbrev>IL</stateAbbrev><state>Illinois</state><fips>001</fips><incits>17001</incits><id>US.IL.001</id><population>67130</population></desc></path><path d="M171.227197347,305.306799337 L197.927031509,305.306799337 L221.144278607,320.39800995 L213.018242123,334.328358209 L214.179104478,338.971807629 L170.066334992,337.810945274 L171.227197347,305.306799337 Z" fill="#cee3f5" id="US.IL.009" stroke="#6e6e6e" stroke-width="0.4"><desc><name>Brown County</name><stateAbbrev>IL</stateAbbrev><state>Illinois</state><fips>009</fips><incits>17009</incits><id>US.IL.009</id><population>6860</population></desc></path><path d="M304.726368159,117.247097844 L333.747927032,117.247097844 L391.791044776,117.247097844 L392.951907131,152.072968491 L370.895522388,153.233830846 L354.64344942,172.968490879 L332.587064677,172.968490879 L304.726368159,161.35986733 L304.726368159,117.247097844 Z" fill="#cee3f5" id="US.IL.011" stroke="#6e6e6e" stroke-width="0.4"><desc><name>Bureau County</name><stateAbbrev>IL</stateAbbrev><state>Illinois</state><fips>011</fips><incits>17011</incits><id>US.IL.011</id><population>34056</population></desc></path><path d="M167.744610282,394.693200663 L208.374792703,394.693200663 L210.696517413,429.51907131 L229.270315091,449.253731343 L202.570480929,455.058043118 L194.444444444,413.266998342 L167.744610282,394.693200663 Z" fill="#cee3f5" id="US.IL.013" stroke="#6e6e6e" stroke-width="0.4"><desc><name>Calhoun County</name><stateAbbrev>IL</stateAbbrev><state>Illinois</state><fips>013</fips><incits>17013</incits><id>US.IL.013</id><population>5059</population></desc></path><path d="M229.270315091,283.250414594 L230.431177446,237.976782753 L230.431177446,227.529021559 L288.474295191,227.529021559 L302.404643449,253.067993367 L296.600331675,262.354892206 L260.613598673,294.859038143 L229.270315091,293.698175788 L229.270315091,283.250414594 Z" fill="#cee3f5" id="US.IL.057" stroke="#6e6e6e" stroke-width="0.4"><desc><name>Fulton County</name><stateAbbrev>IL</stateAbbrev><state>Illinois</state><fips>057</fips><incits>17057</incits><id>US.IL.057</id><population>36346</population></desc></path><path d="M208.374792703,394.693200663 L213.018242123,378.441127695 L247.844112769,379.60199005 L266.417910448,379.60199005 L267.578772803,412.106135987 L246.683250415,422.553897181 L215.339966833,421.393034826 L210.696517413,429.51907131 L208.374792703,394.693200663 Z" fill="#cee3f5" id="US.IL.061" stroke="#6e6e6e" stroke-width="0.4"><desc><name>Greene County</name><stateAbbrev>IL</stateAbbrev><state>Illinois</state><fips>061</fips><incits>17061</incits><id>US.IL.061</id><population>13629</population></desc></path><path d="M230.431177446,171.807628524 L231.592039801,149.751243781 L231.592039801,133.499170813 L262.935323383,117.247097844 L304.726368159,117.247097844 L304.726368159,161.35986733 L288.474295191,171.807628524 L230.431177446,171.807628524 Z" fill="#cee3f5" id="US.IL.073" stroke="#6e6e6e" stroke-width="0.4"><desc><name>Henry County</name><stateAbbrev>IL</stateAbbrev><state>Illinois</state><fips>073</fips><incits>17073</incits><id>US.IL.073</id><population>49860</population></desc></path><path d="M230.431177446,227.529021559 L230.431177446,183.416252073 L230.431177446,171.807628524 L288.474295191,171.807628524 L288.474295191,195.024875622 L288.474295191,227.529021559 L230.431177446,227.529021559 Z" fill="#cee3f5" id="US.IL.095" stroke="#6e6e6e" stroke-width="0.4"><desc><name>Knox County</name><stateAbbrev>IL</stateAbbrev><state>Illinois</state><fips>095</fips><incits>17095</incits><id>US.IL.095</id><population>52078</population></desc></path><path d="M332.587064677,172.968490879 L354.64344942,172.968490879 L392.951907131,177.611940299 L406.88225539,200.829187396 L353.482587065,200.829187396 L332.587064677,195.024875622 L332.587064677,172.968490879 Z" fill="#cee3f5" id="US.IL.123" stroke="#6e6e6e" stroke-width="0.4"><desc><name>Marshall County</name><stateAbbrev>IL</stateAbbrev><state>Illinois</state><fips>123</fips><incits>17123</incits><id>US.IL.123</id><population>12153</population></desc></path><path d="M171.227197347,282.089552239 L172.388059701,236.815920398 L186.31840796,237.976782753 L230.431177446,237.976782753 L229.270315091,283.250414594 L171.227197347,282.089552239 Z" fill="#cee3f5" id="US.IL.109" stroke="#6e6e6e" stroke-width="0.4"><desc><name>McDonough County</name><stateAbbrev>IL</stateAbbrev><state>Illinois</state><fips>109</fips><incits>17109</incits><id>US.IL.109</id><population>32464</population></desc></path><path d="M288.474295191,227.529021559 L288.474295191,195.024875622 L332.587064677,195.024875622 L353.482587065,200.829187396 L344.195688226,222.885572139 L344.195688226,226.368159204 L330.265339967,246.102819237 L302.404643449,253.067993367 L288.474295191,227.529021559 Z" fill="#cee3f5" id="US.IL.143" stroke="#6e6e6e" stroke-width="0.4"><desc><name>Peoria County</name><stateAbbrev>IL</stateAbbrev><state>Illinois</state><fips>143</fips><incits>17143</incits><id>US.IL.143</id><population>188429</population></desc></path><path d="M113.184079602,348.258706468 L170.066334992,349.419568823 L170.066334992,337.810945274 L214.179104478,338.971807629 L210.696517413,344.776119403 L204.892205638,356.384742952 L213.018242123,378.441127695 L208.374792703,394.693200663 L167.744610282,394.693200663 L113.184079602,348.258706468 Z" fill="#cee3f5" id="US.IL.149" stroke="#6e6e6e" stroke-width="0.4"><desc><name>Pike County</name><stateAbbrev>IL</stateAbbrev><state>Illinois</state><fips>149</fips><incits>17149</incits><id>US.IL.149</id><population>16150</population></desc></path><path d="M392.951907131,152.072968491 L392.951907131,177.611940299 L354.64344942,172.968490879 L370.895522388,153.233830846 L392.951907131,152.072968491 Z" fill="#cee3f5" id="US.IL.155" stroke="#6e6e6e" stroke-width="0.4"><desc><name>Putnam County</name><stateAbbrev>IL</stateAbbrev><state>Illinois</state><fips>155</fips><incits>17155</incits><id>US.IL.155</id><population>5801</population></desc></path><path d="M171.227197347,305.306799337 L171.227197347,293.698175788 L171.227197347,282.089552239 L229.270315091,283.250414594 L229.270315091,293.698175788 L260.613598673,294.859038143 L242.039800995,301.824212272 L221.144278607,320.39800995 L197.927031509,305.306799337 L171.227197347,305.306799337 Z" fill="#cee3f5" id="US.IL.169" stroke="#6e6e6e" stroke-width="0.4"><desc><name>Schuyler County</name><stateAbbrev>IL</stateAbbrev><state>Illinois</state><fips>169</fips><incits>17169</incits><id>US.IL.169</id><population>7444</population></desc></path><path d="M288.474295191,171.807628524 L304.726368159,161.35986733 L332.587064677,172.968490879 L332.587064677,195.024875622 L288.474295191,195.024875622 L288.474295191,171.807628524 Z" fill="#cee3f5" id="US.IL.175" stroke="#6e6e6e" stroke-width="0.4"><desc><name>Stark County</name><stateAbbrev>IL</stateAbbrev><state>Illinois</state><fips>175</fips><incits>17175</incits><id>US.IL.175</id><population>5907</population></desc></path><path d="M186.31840796,237.976782753 L186.31840796,215.92039801 L186.31840796,204.311774461 L187.479270315,182.255389718 L230.431177446,183.416252073 L230.431177446,227.529021559 L230.431177446,237.976782753 L186.31840796,237.976782753 Z" fill="#cee3f5" id="US.IL.187" stroke="#6e6e6e" stroke-width="0.4"><desc><name>Warren County</name><stateAbbrev>IL</stateAbbrev><state>Illinois</state><fips>187</fips><incits>17187</incits><id>US.IL.187</id><population>17726</population></desc></path><path d="M210.696517413,429.51907131 L215.339966833,421.393034826 L246.683250415,422.553897181 L267.578772803,412.106135987 L268.739635158,444.610281924 L251.326699834,455.058043118 L229.270315091,449.253731343 L210.696517413,429.51907131 Z" fill="#cee3f5" id="US.IL.083" stroke="#6e6e6e" stroke-width="0.4"><desc><name>Jersey County</name><stateAbbrev>IL</stateAbbrev><state>Illinois</state><fips>083</fips><incits>17083</incits><id>US.IL.083</id><population>22641</population></desc></path><path d="M266.417910448,379.60199005 L296.600331675,378.441127695 L324.461028192,378.441127695 L324.461028192,444.610281924 L268.739635158,444.610281924 L267.578772803,412.106135987 L266.417910448,379.60199005 Z" fill="#cee3f5" id="US.IL.117" stroke="#6e6e6e" stroke-width="0.4"><desc><name>Macoupin County</name><stateAbbrev>IL</stateAbbrev><state>Illinois</state><fips>117</fips><incits>17117</incits><id>US.IL.117</id><population>46880</population></desc></path><path d="M251.326699834,455.058043118 L268.739635158,444.610281924 L324.461028192,444.610281924 L332.587064677,444.610281924 L338.391376451,478.275290216 L323.300165837,488.72305141 L264.096185738,487.562189055 L272.222222222,464.344941957 L251.326699834,455.058043118 Z" fill="#cee3f5" id="US.IL.119" stroke="#6e6e6e" stroke-width="0.4"><desc><name>Madison County</name><stateAbbrev>IL</stateAbbrev><state>Illinois</state><fips>119</fips><incits>17119</incits><id>US.IL.119</id><population>267225</population></desc></path><path d="M352.32172471,655.887230514 L382.504145937,655.887230514 L380.182421227,684.908789386 L391.791044776,689.552238806 L376.699834163,700.0 L347.67827529,662.852404643 L352.32172471,655.887230514 Z" fill="#cee3f5" id="US.IL.003" stroke="#6e6e6e" stroke-width="0.4"><desc><name>Alexander County</name><stateAbbrev>IL</stateAbbrev><state>Illinois</state><fips>003</fips><incits>17003</incits><id>US.IL.003</id><population>7629</population></desc></path><path d="M323.300165837,488.72305141 L338.391376451,478.275290216 L381.343283582,478.275290216 L395.273631841,478.275290216 L395.273631841,508.457711443 L375.538971808,507.296849088 L374.378109453,507.296849088 L339.552238806,510.779436153 L324.461028192,518.905472637 L323.300165837,488.72305141 Z" fill="#cee3f5" id="US.IL.027" stroke="#6e6e6e" stroke-width="0.4"><desc><name>Clinton County</name><stateAbbrev>IL</stateAbbrev><state>Illinois</state><fips>027</fips><incits>17027</incits><id>US.IL.027</id><population>37907</population></desc></path><path d="M338.391376451,578.109452736 L390.630182421,578.109452736 L394.112769486,588.55721393 L394.112769486,622.222222222 L347.67827529,625.704809287 L348.839137645,611.774461028 L327.943615257,596.683250415 L338.391376451,578.109452736 Z" fill="#cee3f5" id="US.IL.077" stroke="#6e6e6e" stroke-width="0.4"><desc><name>Jackson County</name><stateAbbrev>IL</stateAbbrev><state>Illinois</state><fips>077</fips><incits>17077</incits><id>US.IL.077</id><population>59814</population></desc></path><path d="M408.043117745,623.383084577 L450.995024876,622.222222222 L450.995024876,655.887230514 L423.134328358,660.530679934 L408.043117745,657.048092869 L408.043117745,623.383084577 Z" fill="#cee3f5" id="US.IL.087" stroke="#6e6e6e" stroke-width="0.4"><desc><name>Johnson County</name><stateAbbrev>IL</stateAbbrev><state>Illinois</state><fips>087</fips><incits>17087</incits><id>US.IL.087</id><population>12677</population></desc></path><path d="M423.134328358,669.817578773 L423.134328358,660.530679934 L450.995024876,655.887230514 L477.694859038,679.104477612 L477.694859038,690.713101161 L423.134328358,669.817578773 Z" fill="#cee3f5" id="US.IL.127" stroke="#6e6e6e" stroke-width="0.4"><desc><name>Massac County</name><stateAbbrev>IL</stateAbbrev><state>Illinois</state><fips>127</fips><incits>17127</incits><id>US.IL.127</id><population>15073</population></desc></path><path d="M252.487562189,506.135986733 L298.922056385,543.28358209 L260.613598673,560.696517413 L242.039800995,545.605306799 L239.718076285,530.514096186 L252.487562189,506.135986733 Z" fill="#cee3f5" id="US.IL.133" stroke="#6e6e6e" stroke-width="0.4"><desc><name>Monroe County</name><stateAbbrev>IL</stateAbbrev><state>Illinois</state><fips>133</fips><incits>17133</incits><id>US.IL.133</id><population>33493</population></desc></path><path d="M338.391376451,578.109452736 L338.391376451,544.444444444 L394.112769486,544.444444444 L396.434494196,556.053067993 L390.630182421,578.109452736 L338.391376451,578.109452736 Z" fill="#cee3f5" id="US.IL.145" stroke="#6e6e6e" stroke-width="0.4"><desc><name>Perry County</name><stateAbbrev>IL</stateAbbrev><state>Illinois</state><fips>145</fips><incits>17145</incits><id>US.IL.145</id><population>21887</population></desc></path><path d="M382.504145937,655.887230514 L408.043117745,657.048092869 L423.134328358,660.530679934 L423.134328358,669.817578773 L391.791044776,689.552238806 L380.182421227,684.908789386 L382.504145937,655.887230514 Z" fill="#cee3f5" id="US.IL.153" stroke="#6e6e6e" stroke-width="0.4"><desc><name>Pulaski County</name><stateAbbrev>IL</stateAbbrev><state>Illinois</state><fips>153</fips><incits>17153</incits><id>US.IL.153</id><population>5908</population></desc></path><path d="M260.613598673,560.696517413 L298.922056385,543.28358209 L324.461028192,544.444444444 L338.391376451,544.444444444 L338.391376451,578.109452736 L327.943615257,596.683250415 L260.613598673,560.696517413 Z" fill="#cee3f5" id="US.IL.157" stroke="#6e6e6e" stroke-width="0.4"><desc><name>Randolph County</name><stateAbbrev>IL</stateAbbrev><state>Illinois</state><fips>157</fips><incits>17157</incits><id>US.IL.157</id><population>32890</population></desc></path><path d="M252.487562189,506.135986733 L264.096185738,487.562189055 L323.300165837,488.72305141 L324.461028192,518.905472637 L324.461028192,544.444444444 L298.922056385,543.28358209 L252.487562189,506.135986733 Z" fill="#cee3f5" id="US.IL.163" stroke="#6e6e6e" stroke-width="0.4"><desc><name>St. Clair County</name><stateAbbrev>IL</stateAbbrev><state>Illinois</state><fips>163</fips><incits>17163</incits><id>US.IL.163</id><population>266955</population></desc></path><path d="M347.67827529,625.704809287 L394.112769486,622.222222222 L408.043117745,623.383084577 L408.043117745,657.048092869 L382.504145937,655.887230514 L352.32172471,655.887230514 L358.126036484,644.278606965 L347.67827529,625.704809287 Z" fill="#cee3f5" id="US.IL.181" stroke="#6e6e6e" stroke-width="0.4"><desc><name>Union County</name><stateAbbrev>IL</stateAbbrev><state>Illinois</state><fips>181</fips><incits>17181</incits><id>US.IL.181</id><population>17583</population></desc></path><path d="M324.461028192,518.905472637 L339.552238806,510.779436153 L374.378109453,507.296849088 L375.538971808,507.296849088 L395.273631841,508.457711443 L395.273631841,511.940298507 L394.112769486,544.444444444 L338.391376451,544.444444444 L324.461028192,544.444444444 L324.461028192,518.905472637 Z" fill="#cee3f5" id="US.IL.189" stroke="#6e6e6e" stroke-width="0.4"><desc><name>Washington County</name><stateAbbrev>IL</stateAbbrev><state>Illinois</state><fips>189</fips><incits>17189</incits><id>US.IL.189</id><population>14448</population></desc></path><path d="M394.112769486,588.55721393 L450.995024876,588.55721393 L450.995024876,622.222222222 L408.043117745,623.383084577 L394.112769486,622.222222222 L394.112769486,588.55721393 Z" fill="#cee3f5" id="US.IL.199" stroke="#6e6e6e" stroke-width="0.4"><desc><name>Williamson County</name><stateAbbrev>IL</stateAbbrev><state>Illinois</state><fips>199</fips><incits>17199</incits><id>US.IL.199</id><population>66924</population></desc></path><path d="M390.630182421,578.109452736 L396.434494196,556.053067993 L450.995024876,556.053067993 L450.995024876,583.913764511 L450.995024876,588.55721393 L394.112769486,588.55721393 L390.630182421,578.109452736 Z" fill="#cee3f5" id="US.IL.055" stroke="#6e6e6e" stroke-width="0.4"><desc><name>Franklin County</name><stateAbbrev>IL</stateAbbrev><state>Illinois</state><fips>055</fips><incits>17055</incits><id>US.IL.055</id><population>39202</population></desc></path><path d="M492.786069652,583.913764511 L528.772802653,585.074626866 L536.898839138,597.844112769 L520.646766169,614.096185738 L524.129353234,625.704809287 L492.786069652,622.222222222 L492.786069652,583.913764511 Z" fill="#cee3f5" id="US.IL.059" stroke="#6e6e6e" stroke-width="0.4"><desc><name>Gallatin County</name><stateAbbrev>IL</stateAbbrev><state>Illinois</state><fips>059</fips><incits>17059</incits><id>US.IL.059</id><population>5415</population></desc></path><path d="M450.995024876,556.053067993 L450.995024876,539.800995025 L492.786069652,539.800995025 L492.786069652,583.913764511 L450.995024876,583.913764511 L450.995024876,556.053067993 Z" fill="#cee3f5" id="US.IL.065" stroke="#6e6e6e" stroke-width="0.4"><desc><name>Hamilton County</name><stateAbbrev>IL</stateAbbrev><state>Illinois</state><fips>065</fips><incits>17065</incits><id>US.IL.065</id><population>8368</population></desc></path><path d="M488.142620232,645.43946932 L488.142620232,622.222222222 L492.786069652,622.222222222 L524.129353234,625.704809287 L528.772802653,638.474295191 L488.142620232,645.43946932 Z" fill="#cee3f5" id="US.IL.069" stroke="#6e6e6e" stroke-width="0.4"><desc><name>Hardin County</name><stateAbbrev>IL</stateAbbrev><state>Illinois</state><fips>069</fips><incits>17069</incits><id>US.IL.069</id><population>4181</population></desc></path><path d="M450.995024876,622.222222222 L488.142620232,622.222222222 L488.142620232,645.43946932 L475.373134328,661.691542289 L486.981757877,679.104477612 L477.694859038,690.713101161 L477.694859038,679.104477612 L450.995024876,655.887230514 L450.995024876,622.222222222 Z" fill="#cee3f5" id="US.IL.151" stroke="#6e6e6e" stroke-width="0.4"><desc><name>Pope County</name><stateAbbrev>IL</stateAbbrev><state>Illinois</state><fips>151</fips><incits>17151</incits><id>US.IL.151</id><population>4312</population></desc></path><path d="M450.995024876,622.222222222 L450.995024876,588.55721393 L450.995024876,583.913764511 L492.786069652,583.913764511 L492.786069652,622.222222222 L488.142620232,622.222222222 L450.995024876,622.222222222 Z" fill="#cee3f5" id="US.IL.165" stroke="#6e6e6e" stroke-width="0.4"><desc><name>Saline County</name><stateAbbrev>IL</stateAbbrev><state>Illinois</state><fips>165</fips><incits>17165</incits><id>US.IL.165</id><population>24939</population></desc></path><path d="M492.786069652,539.800995025 L521.807628524,539.800995025 L541.542288557,538.64013267 L541.542288557,539.800995025 L550.829187396,551.409618574 L528.772802653,585.074626866 L492.786069652,583.913764511 L492.786069652,539.800995025 Z" fill="#cee3f5" id="US.IL.193" stroke="#6e6e6e" stroke-width="0.4"><desc><name>White County</name><stateAbbrev>IL</stateAbbrev><state>Illinois</state><fips>193</fips><incits>17193</incits><id>US.IL.193</id><population>14549</population></desc></path><path d="M332.587064677,444.610281924 L381.343283582,442.288557214 L381.343283582,478.275290216 L338.391376451,478.275290216 L332.587064677,444.610281924 Z" fill="#cee3f5" id="US.IL.005" stroke="#6e6e6e" stroke-width="0.4"><desc><name>Bond County</name><stateAbbrev>IL</stateAbbrev><state>Illinois</state><fips>005</fips><incits>17005</incits><id>US.IL.005</id><population>17470</population></desc></path><path d="M482.338308458,282.089552239 L482.338308458,268.15920398 L548.507462687,266.998341625 L548.507462687,333.167495854 L482.338308458,333.167495854 L482.338308458,282.089552239 Z" fill="#cee3f5" id="US.IL.019" stroke="#6e6e6e" stroke-width="0.4"><desc><name>Champaign County</name><stateAbbrev>IL</stateAbbrev><state>Illinois</state><fips>019</fips><incits>17019</incits><id>US.IL.019</id><population>204897</population></desc></path><path d="M545.024875622,384.245439469 L599.585406302,384.245439469 L599.585406302,400.497512438 L587.976782753,424.875621891 L546.185737977,422.553897181 L539.220563847,422.553897181 L538.059701493,397.014925373 L545.024875622,384.245439469 Z" fill="#cee3f5" id="US.IL.023" stroke="#6e6e6e" stroke-width="0.4"><desc><name>Clark County</name><stateAbbrev>IL</stateAbbrev><state>Illinois</state><fips>023</fips><incits>17023</incits><id>US.IL.023</id><population>16182</population></desc></path><path d="M452.155887231,494.527363184 L452.155887231,466.666666667 L452.155887231,456.218905473 L493.946932007,456.218905473 L507.877280265,464.344941957 L507.877280265,495.688225539 L452.155887231,494.527363184 Z" fill="#cee3f5" id="US.IL.025" stroke="#6e6e6e" stroke-width="0.4"><desc><name>Clay County</name><stateAbbrev>IL</stateAbbrev><state>Illinois</state><fips>025</fips><incits>17025</incits><id>US.IL.025</id><population>13566</population></desc></path><path d="M480.016583748,362.189054726 L536.898839138,357.545605307 L545.024875622,357.545605307 L545.024875622,384.245439469 L538.059701493,397.014925373 L480.016583748,397.014925373 L480.016583748,388.888888889 L480.016583748,362.189054726 Z" fill="#cee3f5" id="US.IL.029" stroke="#6e6e6e" stroke-width="0.4"><desc><name>Coles County</name><stateAbbrev>IL</stateAbbrev><state>Illinois</state><fips>029</fips><incits>17029</incits><id>US.IL.029</id><population>53697</population></desc></path><path d="M546.185737977,422.553897181 L587.976782753,424.875621891 L601.907131012,450.414593698 L599.585406302,463.184079602 L551.990049751,464.344941957 L547.346600332,464.344941957 L546.185737977,422.553897181 Z" fill="#cee3f5" id="US.IL.033" stroke="#6e6e6e" stroke-width="0.4"><desc><name>Crawford County</name><stateAbbrev>IL</stateAbbrev><state>Illinois</state><fips>033</fips><incits>17033</incits><id>US.IL.033</id><population>19505</population></desc></path><path d="M480.016583748,397.014925373 L538.059701493,397.014925373 L539.220563847,422.553897181 L495.107794362,423.714759536 L481.177446103,417.910447761 L480.016583748,397.014925373 Z" fill="#cee3f5" id="US.IL.035" stroke="#6e6e6e" stroke-width="0.4"><desc><name>Cumberland County</name><stateAbbrev>IL</stateAbbrev><state>Illinois</state><fips>035</fips><incits>17035</incits><id>US.IL.035</id><population>10939</population></desc></path><path d="M394.112769486,282.089552239 L467.247097844,282.089552239 L446.351575456,311.111111111 L395.273631841,312.271973466 L394.112769486,282.089552239 Z" fill="#cee3f5" id="US.IL.039" stroke="#6e6e6e" stroke-width="0.4"><desc><name>De Witt County</name><stateAbbrev>IL</stateAbbrev><state>Illinois</state><fips>039</fips><incits>17039</incits><id>US.IL.039</id><population>16420</population></desc></path><path d="M480.016583748,362.189054726 L480.016583748,344.776119403 L482.338308458,333.167495854 L548.507462687,333.167495854 L545.024875622,357.545605307 L536.898839138,357.545605307 L480.016583748,362.189054726 Z" fill="#cee3f5" id="US.IL.041" stroke="#6e6e6e" stroke-width="0.4"><desc><name>Douglas County</name><stateAbbrev>IL</stateAbbrev><state>Illinois</state><fips>041</fips><incits>17041</incits><id>US.IL.041</id><population>19887</population></desc></path><path d="M548.507462687,333.167495854 L599.585406302,333.167495854 L599.585406302,384.245439469 L545.024875622,384.245439469 L545.024875622,357.545605307 L548.507462687,333.167495854 Z" fill="#cee3f5" id="US.IL.045" stroke="#6e6e6e" stroke-width="0.4"><desc><name>Edgar County</name><stateAbbrev>IL</stateAbbrev><state>Illinois</state><fips>045</fips><incits>17045</incits><id>US.IL.045</id><population>17960</population></desc></path><path d="M521.807628524,539.800995025 L521.807628524,499.170812604 L546.185737977,499.170812604 L541.542288557,538.64013267 L521.807628524,539.800995025 Z" fill="#cee3f5" id="US.IL.047" stroke="#6e6e6e" stroke-width="0.4"><desc><name>Edwards County</name><stateAbbrev>IL</stateAbbrev><state>Illinois</state><fips>047</fips><incits>17047</incits><id>US.IL.047</id><population>6672</population></desc></path><path d="M438.225538972,417.910447761 L481.177446103,417.910447761 L495.107794362,423.714759536 L493.946932007,456.218905473 L452.155887231,456.218905473 L438.225538972,456.218905473 L438.225538972,417.910447761 Z" fill="#cee3f5" id="US.IL.049" stroke="#6e6e6e" stroke-width="0.4"><desc><name>Effingham County</name><stateAbbrev>IL</stateAbbrev><state>Illinois</state><fips>049</fips><incits>17049</incits><id>US.IL.049</id><population>34307</population></desc></path><path d="M381.343283582,442.288557214 L381.343283582,417.910447761 L395.273631841,417.910447761 L438.225538972,417.910447761 L438.225538972,456.218905473 L452.155887231,456.218905473 L452.155887231,466.666666667 L396.434494196,467.827529022 L395.273631841,478.275290216 L381.343283582,478.275290216 L381.343283582,442.288557214 Z" fill="#cee3f5" id="US.IL.051" stroke="#6e6e6e" stroke-width="0.4"><desc><name>Fayette County</name><stateAbbrev>IL</stateAbbrev><state>Illinois</state><fips>051</fips><incits>17051</incits><id>US.IL.051</id><population>22060</population></desc></path><path d="M493.946932007,456.218905473 L495.107794362,423.714759536 L539.220563847,422.553897181 L546.185737977,422.553897181 L547.346600332,464.344941957 L507.877280265,464.344941957 L493.946932007,456.218905473 Z" fill="#cee3f5" id="US.IL.079" stroke="#6e6e6e" stroke-width="0.4"><desc><name>Jasper County</name><stateAbbrev>IL</stateAbbrev><state>Illinois</state><fips>079</fips><incits>17079</incits><id>US.IL.079</id><population>9592</population></desc></path><path d="M394.112769486,544.444444444 L395.273631841,511.940298507 L450.995024876,511.940298507 L450.995024876,539.800995025 L450.995024876,556.053067993 L396.434494196,556.053067993 L394.112769486,544.444444444 Z" fill="#cee3f5" id="US.IL.081" stroke="#6e6e6e" stroke-width="0.4"><desc><name>Jefferson County</name><stateAbbrev>IL</stateAbbrev><state>Illinois</state><fips>081</fips><incits>17081</incits><id>US.IL.081</id><population>38644</population></desc></path><path d="M391.791044776,117.247097844 L421.973466003,111.44278607 L463.764510779,111.44278607 L464.925373134,133.499170813 L466.086235489,177.611940299 L421.973466003,177.611940299 L421.973466003,200.829187396 L406.88225539,200.829187396 L392.951907131,177.611940299 L392.951907131,152.072968491 L391.791044776,117.247097844 Z" fill="#cee3f5" id="US.IL.099" stroke="#6e6e6e" stroke-width="0.4"><desc><name>LaSalle County</name><stateAbbrev>IL</stateAbbrev><state>Illinois</state><fips>099</fips><incits>17099</incits><id>US.IL.099</id><population>112183</population></desc></path><path d="M551.990049751,499.170812604 L551.990049751,464.344941957 L599.585406302,463.184079602 L604.228855721,477.114427861 L584.494195688,500.331674959 L551.990049751,499.170812604 Z" fill="#cee3f5" id="US.IL.101" stroke="#6e6e6e" stroke-width="0.4"><desc><name>Lawrence County</name><stateAbbrev>IL</stateAbbrev><state>Illinois</state><fips>101</fips><incits>17101</incits><id>US.IL.101</id><population>16558</population></desc></path><path d="M395.273631841,511.940298507 L395.273631841,508.457711443 L395.273631841,478.275290216 L396.434494196,467.827529022 L452.155887231,466.666666667 L452.155887231,494.527363184 L450.995024876,511.940298507 L395.273631841,511.940298507 Z" fill="#cee3f5" id="US.IL.121" stroke="#6e6e6e" stroke-width="0.4"><desc><name>Marion County</name><stateAbbrev>IL</stateAbbrev><state>Illinois</state><fips>121</fips><incits>17121</incits><id>US.IL.121</id><population>38622</population></desc></path><path d="M446.351575456,344.776119403 L446.351575456,311.111111111 L467.247097844,282.089552239 L482.338308458,282.089552239 L482.338308458,333.167495854 L480.016583748,344.776119403 L446.351575456,344.776119403 Z" fill="#cee3f5" id="US.IL.147" stroke="#6e6e6e" stroke-width="0.4"><desc><name>Piatt County</name><stateAbbrev>IL</stateAbbrev><state>Illinois</state><fips>147</fips><incits>17147</incits><id>US.IL.147</id><population>16433</population></desc></path><path d="M507.877280265,464.344941957 L547.346600332,464.344941957 L551.990049751,464.344941957 L551.990049751,499.170812604 L546.185737977,499.170812604 L521.807628524,499.170812604 L507.877280265,495.688225539 L507.877280265,464.344941957 Z" fill="#cee3f5" id="US.IL.159" stroke="#6e6e6e" stroke-width="0.4"><desc><name>Richland County</name><stateAbbrev>IL</stateAbbrev><state>Illinois</state><fips>159</fips><incits>17159</incits><id>US.IL.159</id><population>16182</population></desc></path><path d="M548.507462687,266.998341625 L548.507462687,256.550580431 L600.746268657,255.389718076 L599.585406302,333.167495854 L548.507462687,333.167495854 L548.507462687,266.998341625 Z" fill="#cee3f5" id="US.IL.183" stroke="#6e6e6e" stroke-width="0.4"><desc><name>Vermilion County</name><stateAbbrev>IL</stateAbbrev><state>Illinois</state><fips>183</fips><incits>17183</incits><id>US.IL.183</id><population>80329</population></desc></path><path d="M546.185737977,499.170812604 L551.990049751,499.170812604 L584.494195688,500.331674959 L562.437810945,529.353233831 L541.542288557,539.800995025 L541.542288557,538.64013267 L546.185737977,499.170812604 Z" fill="#cee3f5" id="US.IL.185" stroke="#6e6e6e" stroke-width="0.4"><desc><name>Wabash County</name><stateAbbrev>IL</stateAbbrev><state>Illinois</state><fips>185</fips><incits>17185</incits><id>US.IL.185</id><population>11665</population></desc></path><path d="M450.995024876,539.800995025 L450.995024876,511.940298507 L452.155887231,494.527363184 L507.877280265,495.688225539 L521.807628524,499.170812604 L521.807628524,539.800995025 L492.786069652,539.800995025 L450.995024876,539.800995025 Z" fill="#cee3f5" id="US.IL.191" stroke="#6e6e6e" stroke-width="0.4"><desc><name>Wayne County</name><stateAbbrev>IL</stateAbbrev><state>Illinois</state><fips>191</fips><incits>17191</incits><id>US.IL.191</id><population>16612</population></desc></path></svg>