<?xml version='1.0' encoding='utf-8'?>
<svg height="700" width="700" xmlns="http://www.w3.org/2000/svg"><path d="M547.746513944,34.6862549801 L549.140936255,39.5667330677 L546.352091633,44.0986055777 L520.903884462,58.3914342629 L511.665836653,57.6942231076 L507.831175299,53.859561753 L502.950697211,53.859561753 L496.850099602,48.8047808765 L483.428784861,45.4930278884 L478.025398406,46.015936255 L489.703685259,7.84362549801 L498.941733068,4.88047808765 L502.602091633,5.40338645418 L510.097111554,0.0 L516.894920319,16.3844621514 L524.564243028,24.2280876494 L536.591135458,32.2460159363 L547.746513944,34.6862549801 Z" fill="#cee3f5" id="MA.TO" stroke="#6e6e6e" stroke-width="0.4"><desc><labelrank>5</labelrank><code_hasc>MA.TO</code_hasc><name>Tanger - Tétouan</name><admin>Morocco</admin><type_en>Region</type_en><region /><woe_id>-56120062</woe_id><longitude>-5</longitude><woe_name /><fips>MO57</fips><woe_label /><latitude>35</latitude><iso_a2>MA</iso_a2><postal>TO</postal><type>Region</type><id>MA.TO</id></desc></path><path d="M607.358067729,99.7011952191 L609.449701195,101.09561753 L609.101095618,102.838645418 L602.477589641,111.728087649 L613.458665339,120.966135458 L616.073207171,127.241035857 L611.889940239,130.552788845 L588.881972112,134.736055777 L578.772410359,148.157370518 L573.543326693,158.44123506 L563.782370518,158.266932271 L552.801294821,146.240039841 L541.820219124,143.625498008 L531.187749004,121.314741036 L534.84810757,115.039840637 L534.499501992,112.599601594 L531.536354582,109.113545817 L524.389940239,106.847609562 L526.655876494,101.09561753 L519.68376494,88.0229083665 L516.372011952,88.5458167331 L512.363047809,80.0049800797 L516.372011952,80.3535856574 L522.298306773,78.0876494024 L525.087151394,79.656374502 L530.31623506,78.7848605578 L537.288346614,83.3167330677 L540.948705179,88.1972111554 L546.177788845,90.6374501992 L547.746513944,94.4721115538 L551.232569721,96.7380478088 L563.085159363,96.2151394422 L568.488545817,105.453187251 L568.488545817,112.076693227 L572.49750996,113.645418327 L575.983565737,112.773904382 L577.552290837,114.342629482 L579.469621514,108.067729084 L590.799302789,94.6464143426 L607.358067729,99.7011952191 Z" fill="#cee3f5" id="MA.FB" stroke="#6e6e6e" stroke-width="0.4"><desc><labelrank>6</labelrank><code_hasc>MA.FB</code_hasc><name>Fès - Boulemane</name><admin>Morocco</admin><type_en>Region</type_en><region /><woe_id>-56120057</woe_id><longitude>-4</longitude><woe_name /><fips>MO14</fips><woe_label /><latitude>33</latitude><iso_a2>MA</iso_a2><postal>FB</postal><type>Region</type><id>MA.FB</id></desc></path><path d="M574.589143426,32.2460159363 L575.634960159,45.4930278884 L583.827191235,49.5019920319 L583.478585657,58.2171314741 L587.313247012,61.3545816733 L597.771414343,52.1165338645 L600.560258964,51.593625498 L609.972609562,55.6025896414 L611.018426295,58.7400398406 L608.055278884,59.437250996 L606.660856574,65.014940239 L601.954681275,69.8954183267 L607.532370518,82.0966135458 L606.137948207,86.2798804781 L602.303286853,89.765936255 L607.358067729,99.7011952191 L590.799302789,94.6464143426 L579.469621514,108.067729084 L577.552290837,114.342629482 L575.983565737,112.773904382 L572.49750996,113.645418327 L568.488545817,112.076693227 L568.488545817,105.453187251 L563.085159363,96.2151394422 L551.232569721,96.7380478088 L547.746513944,94.4721115538 L546.177788845,90.6374501992 L540.948705179,88.1972111554 L537.288346614,83.3167330677 L530.31623506,78.7848605578 L525.087151394,79.656374502 L522.298306773,78.0876494024 L516.372011952,80.3535856574 L512.363047809,80.0049800797 L509.399900398,75.6474103586 L520.903884462,65.3635458167 L520.903884462,58.3914342629 L546.352091633,44.0986055777 L549.140936255,39.5667330677 L547.746513944,34.6862549801 L553.672808765,35.906374502 L570.580179283,29.4571713147 L571.277390438,31.8974103586 L574.589143426,32.2460159363 Z" fill="#cee3f5" id="MA.TH" stroke="#6e6e6e" stroke-width="0.4"><desc><labelrank>6</labelrank><code_hasc>MA.TH</code_hasc><name>Taza - Al Hoceima - Taounate</name><admin>Morocco</admin><type_en>Region</type_en><region /><woe_id>-56120063</woe_id><longitude>-4</longitude><woe_name /><fips>MO58</fips><woe_label /><latitude>34</latitude><iso_a2>MA</iso_a2><postal>TH</postal><type>Region</type><id>MA.TH</id></desc></path><path d="M520.903884462,58.3914342629 L520.903884462,65.3635458167 L509.399900398,75.6474103586 L512.363047809,80.0049800797 L510.62001992,85.5826693227 L502.253486056,87.5 L497.721613546,83.8396414343 L493.886952191,88.5458167331 L488.657868526,89.2430278884 L474.539342629,86.6284860558 L466.87001992,89.0687250996 L460.072211155,86.2798804781 L478.025398406,46.015936255 L483.428784861,45.4930278884 L496.850099602,48.8047808765 L502.950697211,53.859561753 L507.831175299,53.859561753 L511.665836653,57.6942231076 L520.903884462,58.3914342629 Z" fill="#cee3f5" id="MA.GB" stroke="#6e6e6e" stroke-width="0.4"><desc><labelrank>5</labelrank><code_hasc>MA.GB</code_hasc><name>Gharb - Chrarda - Béni Hssen</name><admin>Morocco</admin><type_en>Region</type_en><region /><woe_id>-56120053</woe_id><longitude>-5</longitude><woe_name /><fips>MO05</fips><woe_label /><latitude>34</latitude><iso_a2>MA</iso_a2><postal>GB</postal><type>Region</type><id>MA.GB</id></desc></path><path d="M473.319223108,131.772908367 L485.346115538,142.405378486 L484.648904382,146.762948207 L488.657868526,147.983067729 L489.355079681,153.037848606 L487.437749004,155.303784861 L479.245517928,157.744023904 L467.392928287,157.046812749 L464.081175299,158.964143426 L456.063247012,158.789840637 L451.182768924,161.40438247 L445.256474104,175.697211155 L435.146912351,170.46812749 L424.863047809,169.073705179 L409.52440239,152.514940239 L406.909860558,148.680278884 L404.121015936,136.304780876 L409.52440239,130.204183267 L410.047310757,126.020916335 L408.304282869,121.837649402 L413.359063745,119.746015936 L425.560258964,122.709163347 L424.514442231,125.672310757 L425.908864542,126.71812749 L432.18376494,121.314741036 L435.495517928,108.59063745 L444.384960159,103.361553785 L450.136952191,113.994023904 L457.980577689,116.957171315 L457.457669323,130.029880478 L467.915836653,134.387450199 L473.319223108,131.772908367 Z" fill="#cee3f5" id="MA.CO" stroke="#6e6e6e" stroke-width="0.4"><desc><labelrank>5</labelrank><code_hasc>MA.CO</code_hasc><name>Chaouia - Ouardigha</name><admin>Morocco</admin><type_en>Region</type_en><region /><woe_id>-56120050</woe_id><longitude>-7</longitude><woe_name /><fips>MO06</fips><woe_label /><latitude>33</latitude><iso_a2>MA</iso_a2><postal>CO</postal><type>Region</type><id>MA.CO</id></desc></path><path d="M435.495517928,108.59063745 L432.18376494,121.314741036 L425.908864542,126.71812749 L424.514442231,125.672310757 L425.560258964,122.709163347 L413.359063745,119.746015936 L435.495517928,108.59063745 Z" fill="#cee3f5" id="MA.GC" stroke="#6e6e6e" stroke-width="0.4"><desc><labelrank>9</labelrank><code_hasc>MA.GC</code_hasc><name>Grand Casablanca</name><admin>Morocco</admin><type_en>Region</type_en><region /><woe_id>-56120054</woe_id><longitude>-7</longitude><woe_name /><fips>MO09</fips><woe_label /><latitude>33</latitude><iso_a2>MA</iso_a2><postal>GC</postal><type>Region</type><id>MA.GC</id></desc></path><path d="M493.886952191,88.5458167331 L498.767430279,94.9950199203 L498.244521912,99.7011952191 L500.859063745,104.233067729 L498.59312749,112.599601594 L498.941733068,125.672310757 L489.355079681,127.589641434 L482.208665339,125.323705179 L481.511454183,121.837649402 L476.805278884,120.268924303 L474.016434263,124.800796813 L473.319223108,131.772908367 L467.915836653,134.387450199 L457.457669323,130.029880478 L457.980577689,116.957171315 L450.136952191,113.994023904 L444.384960159,103.361553785 L452.054282869,97.9581673307 L460.072211155,86.2798804781 L466.87001992,89.0687250996 L474.539342629,86.6284860558 L488.657868526,89.2430278884 L493.886952191,88.5458167331 Z" fill="#cee3f5" id="MA.RZ" stroke="#6e6e6e" stroke-width="0.4"><desc><labelrank>5</labelrank><code_hasc>MA.RZ</code_hasc><name>Rabat - Salé - Zemmour - Zaer</name><admin>Morocco</admin><type_en>Region</type_en><region /><woe_id>-56120059</woe_id><longitude>-6</longitude><woe_name /><fips>MO49</fips><woe_label /><latitude>33</latitude><iso_a2>MA</iso_a2><postal>RZ</postal><type>Region</type><id>MA.RZ</id></desc></path><path d="M573.543326693,158.44123506 L587.66185259,180.403386454 L595.679780876,178.311752988 L606.486553785,179.357569721 L606.660856574,188.944223108 L610.495517928,194.521912351 L610.321215139,199.576693227 L589.927788845,204.805776892 L589.927788845,217.355577689 L584.175796813,220.3187251 L583.652888446,229.208167331 L588.010458167,227.81374502 L592.716633466,231.997011952 L596.028386454,238.271912351 L591.845119522,244.198207171 L592.716633466,250.298804781 L585.047310757,254.830677291 L566.571215139,259.013944223 L552.452689243,272.783864542 L546.352091633,275.747011952 L527.004482072,263.371513944 L527.353087649,255.876494024 L520.380976096,245.418326693 L525.78436255,218.924302789 L515.326195219,209.68625498 L503.647908367,208.640438247 L510.097111554,196.962151394 L509.399900398,193.999003984 L506.436752988,192.430278884 L500.336155378,194.696215139 L498.070219124,190.687250996 L499.464641434,186.329681275 L506.785358566,180.577689243 L513.408864542,178.834661355 L511.142928287,171.862549801 L514.628984064,166.110557769 L489.355079681,153.037848606 L488.657868526,147.983067729 L484.648904382,146.762948207 L485.346115538,142.405378486 L473.319223108,131.772908367 L474.016434263,124.800796813 L476.805278884,120.268924303 L481.511454183,121.837649402 L482.208665339,125.323705179 L489.355079681,127.589641434 L498.941733068,125.672310757 L498.59312749,112.599601594 L500.859063745,104.233067729 L498.244521912,99.7011952191 L498.767430279,94.9950199203 L493.886952191,88.5458167331 L497.721613546,83.8396414343 L502.253486056,87.5 L510.62001992,85.5826693227 L512.363047809,80.0049800797 L516.372011952,88.5458167331 L519.68376494,88.0229083665 L526.655876494,101.09561753 L524.389940239,106.847609562 L531.536354582,109.113545817 L534.499501992,112.599601594 L534.84810757,115.039840637 L531.187749004,121.314741036 L541.820219124,143.625498008 L552.801294821,146.240039841 L563.782370518,158.266932271 L573.543326693,158.44123506 Z" fill="#cee3f5" id="MA.MT" stroke="#6e6e6e" stroke-width="0.4"><desc><labelrank>5</labelrank><code_hasc>MA.MT</code_hasc><name>Meknès - Tafilalet</name><admin>Morocco</admin><type_en>Region</type_en><region /><woe_id>-56120057</woe_id><longitude>-4</longitude><woe_name /><fips>MO48</fips><woe_label /><latitude>31</latitude><iso_a2>MA</iso_a2><postal>MT</postal><type>Region</type><id>MA.MT</id></desc></path><path d="M500.336155378,194.696215139 L490.226593625,203.585657371 L463.732569721,216.658366534 L459.549302789,221.71314741 L452.054282869,222.758964143 L443.513446215,219.447211155 L445.082171315,213.695219124 L439.330179283,207.246015936 L441.770418327,204.282868526 L447.696713147,202.888446215 L449.788346614,198.182270916 L446.825199203,189.292828685 L445.256474104,175.697211155 L451.182768924,161.40438247 L456.063247012,158.789840637 L464.081175299,158.964143426 L467.392928287,157.046812749 L479.245517928,157.744023904 L487.437749004,155.303784861 L489.355079681,153.037848606 L514.628984064,166.110557769 L511.142928287,171.862549801 L513.408864542,178.834661355 L506.785358566,180.577689243 L499.464641434,186.329681275 L498.070219124,190.687250996 L500.336155378,194.696215139 Z" fill="#cee3f5" id="MA.TD" stroke="#6e6e6e" stroke-width="0.4"><desc><labelrank>5</labelrank><code_hasc>MA.TD</code_hasc><name>Tadla - Azilal</name><admin>Morocco</admin><type_en>Region</type_en><region /><woe_id>-56120061</woe_id><longitude>-6</longitude><woe_name /><fips>MO56</fips><woe_label /><latitude>32</latitude><iso_a2>MA</iso_a2><postal>TD</postal><type>Region</type><id>MA.TD</id></desc></path><path d="M610.321215139,199.576693227 L610.495517928,194.521912351 L606.660856574,188.944223108 L606.486553785,179.357569721 L595.679780876,178.311752988 L587.66185259,180.403386454 L573.543326693,158.44123506 L578.772410359,148.157370518 L588.881972112,134.736055777 L611.889940239,130.552788845 L616.073207171,127.241035857 L613.458665339,120.966135458 L602.477589641,111.728087649 L609.101095618,102.838645418 L609.449701195,101.09561753 L607.358067729,99.7011952191 L602.303286853,89.765936255 L606.137948207,86.2798804781 L607.532370518,82.0966135458 L601.954681275,69.8954183267 L606.660856574,65.014940239 L608.055278884,59.437250996 L611.018426295,58.7400398406 L609.972609562,55.6025896414 L600.560258964,51.593625498 L597.771414343,52.1165338645 L587.313247012,61.3545816733 L583.478585657,58.2171314741 L583.827191235,49.5019920319 L575.634960159,45.4930278884 L574.589143426,32.2460159363 L579.121015936,27.8884462151 L583.652888446,30.328685259 L594.633964143,31.374501992 L604.046314741,26.4940239044 L607.880976096,18.6503984064 L608.578187251,26.3197211155 L611.192729084,27.5398406375 L611.018426295,31.0258964143 L613.28436255,33.640438247 L617.641932271,34.1633466135 L612.064243028,28.062749004 L620.953685259,34.3376494024 L626.87998008,34.3376494024 L630.888944223,31.7231075697 L636.640936255,33.1175298805 L638.732569721,33.9890438247 L640.126992032,38.172310757 L647.622011952,41.3097609562 L649.190737052,44.2729083665 L658.080179283,49.6762948207 L654.594123506,56.9970119522 L661.740537849,62.2260956175 L657.731573705,67.8037848606 L664.52938247,81.5737051793 L663.134960159,90.6374501992 L664.180776892,97.2609561753 L662.612051793,100.224103586 L668.364043825,107.021912351 L666.446713147,116.259960159 L667.143924303,122.534860558 L674.987549801,130.727091633 L675.16185259,134.910358566 L673.070219124,137.001992032 L679.170816733,146.065737052 L696.25249004,156.87250996 L687.885956175,164.193227092 L685.968625498,173.605577689 L690.674800797,174.302788845 L690.326195219,177.091633466 L636.118027888,178.660358566 L621.127988048,182.320717131 L618.862051793,183.715139442 L624.091135458,195.916334661 L610.321215139,199.576693227 Z" fill="#cee3f5" id="MA.OR" stroke="#6e6e6e" stroke-width="0.4"><desc><labelrank>5</labelrank><code_hasc>MA.OR</code_hasc><name>Oriental</name><admin>Morocco</admin><type_en>Region</type_en><region /><woe_id>-56120058</woe_id><longitude>-2</longitude><woe_name /><fips>MO54</fips><woe_label /><latitude>33</latitude><iso_a2>MA</iso_a2><postal>OR</postal><type>Region</type><id>MA.OR</id></desc></path><path d="M546.352091633,275.747011952 L529.619023904,288.645418327 L514.977589641,311.130478088 L510.794322709,312.524900398 L507.308266932,311.304780876 L505.565239044,306.947211155 L480.814243028,309.736055777 L474.016434263,294.397410359 L477.328187251,286.553784861 L473.144920319,285.682270916 L470.530378486,279.233067729 L472.273406375,271.912350598 L464.081175299,265.637450199 L458.852091633,267.380478088 L456.063247012,271.040836653 L444.733565737,270.517928287 L438.807270916,280.453187251 L425.908864542,279.233067729 L420.505478088,283.59063745 L411.616035857,284.462151394 L409.52440239,288.645418327 L406.212649402,290.911354582 L401.157868526,289.69123506 L394.882968127,292.305776892 L383.204681275,291.957171315 L380.764442231,300.323705179 L382.158864542,317.928286853 L379.195717131,318.974103586 L373.4437251,316.533864542 L368.91185259,316.88247012 L364.902888446,318.102589641 L361.765438247,322.460159363 L360.196713147,321.414342629 L346.426792829,323.157370518 L341.372011952,325.597609562 L337.363047809,324.028884462 L334.748505976,325.074701195 L331.08814741,330.478087649 L326.730577689,330.652390438 L321.327191235,334.661354582 L308.603087649,330.478087649 L333.528386454,297.883466135 L340.500498008,283.939243028 L342.417828685,270.517928287 L338.75747012,263.720119522 L330.913844622,258.665338645 L334.051294821,250.47310757 L333.702689243,243.500996016 L339.280378486,249.950199203 L345.206673307,247.335657371 L366.123007968,248.730079681 L375.709661355,243.152390438 L378.498505976,247.684262948 L408.478585657,244.198207171 L417.1937251,234.611553785 L437.761454183,224.676294821 L443.513446215,219.447211155 L452.054282869,222.758964143 L459.549302789,221.71314741 L463.732569721,216.658366534 L490.226593625,203.585657371 L500.336155378,194.696215139 L506.436752988,192.430278884 L509.399900398,193.999003984 L510.097111554,196.962151394 L503.647908367,208.640438247 L515.326195219,209.68625498 L525.78436255,218.924302789 L520.380976096,245.418326693 L527.353087649,255.876494024 L527.004482072,263.371513944 L546.352091633,275.747011952 Z" fill="#cee3f5" id="MA.SM" stroke="#6e6e6e" stroke-width="0.4"><desc><labelrank>5</labelrank><code_hasc>MA.SM</code_hasc><name>Souss - Massa - Draâ</name><admin>Morocco</admin><type_en>Region</type_en><region /><woe_id>-56120060</woe_id><longitude>-7</longitude><woe_name /><fips>MO55</fips><woe_label /><latitude>30</latitude><iso_a2>MA</iso_a2><postal>SM</postal><type>Region</type><id>MA.SM</id></desc></path><path d="M445.256474104,175.697211155 L446.825199203,189.292828685 L449.788346614,198.182270916 L447.696713147,202.888446215 L441.770418327,204.282868526 L439.330179283,207.246015936 L445.082171315,213.695219124 L443.513446215,219.447211155 L437.761454183,224.676294821 L417.1937251,234.611553785 L408.478585657,244.198207171 L378.498505976,247.684262948 L375.709661355,243.152390438 L366.123007968,248.730079681 L345.206673307,247.335657371 L339.280378486,249.950199203 L333.702689243,243.500996016 L332.831175299,235.657370518 L334.574203187,224.85059761 L332.831175299,222.061752988 L339.280378486,211.25498008 L340.500498008,206.200199203 L349.21563745,195.742031873 L354.270418327,197.833665339 L360.545318725,196.613545817 L365.77440239,197.65936255 L369.434760956,202.888446215 L374.140936255,204.631474104 L386.167828685,205.502988048 L390.874003984,204.108565737 L398.543326693,187.724103586 L393.314243028,183.366533865 L390.699701195,176.917330677 L405.515438247,164.716135458 L407.084163347,154.780876494 L409.52440239,152.514940239 L424.863047809,169.073705179 L435.146912351,170.46812749 L445.256474104,175.697211155 Z" fill="#cee3f5" id="MA.MK" stroke="#6e6e6e" stroke-width="0.4"><desc><labelrank>6</labelrank><code_hasc>MA.MK</code_hasc><name>Marrakech - Tensift - Al Haouz</name><admin>Morocco</admin><type_en>Region</type_en><region /><woe_id>-56120056</woe_id><longitude>-8</longitude><woe_name /><fips>MO47</fips><woe_label /><latitude>31</latitude><iso_a2>MA</iso_a2><postal>MK</postal><type>Region</type><id>MA.MK</id></desc></path><path d="M409.52440239,152.514940239 L407.084163347,154.780876494 L405.515438247,164.716135458 L390.699701195,176.917330677 L393.314243028,183.366533865 L398.543326693,187.724103586 L390.874003984,204.108565737 L386.167828685,205.502988048 L374.140936255,204.631474104 L369.434760956,202.888446215 L365.77440239,197.65936255 L360.545318725,196.613545817 L354.270418327,197.833665339 L349.21563745,195.742031873 L353.050298805,191.907370518 L356.710657371,183.540836653 L357.407868526,165.239043825 L373.618027888,150.423306773 L387.387948207,131.598605578 L390.525398406,131.772908367 L397.323207171,125.672310757 L408.304282869,121.837649402 L410.047310757,126.020916335 L409.52440239,130.204183267 L404.121015936,136.304780876 L406.909860558,148.680278884 L409.52440239,152.514940239 Z" fill="#cee3f5" id="MA.DA" stroke="#6e6e6e" stroke-width="0.4"><desc><labelrank>5</labelrank><code_hasc>MA.DA</code_hasc><name>Doukkala - Abda</name><admin>Morocco</admin><type_en>Region</type_en><region /><woe_id>-56120051</woe_id><longitude>-8</longitude><woe_name /><fips>MO11</fips><woe_label /><latitude>32</latitude><iso_a2>MA</iso_a2><postal>DA</postal><type>Region</type><id>MA.DA</id></desc></path><path d="M234.175796813,482.8187251 L217.791334661,536.503984064 L213.259462151,541.733067729 L193.040338645,554.457171315 L180.31623506,553.062749004 L160.097111554,558.466135458 L139.877988048,553.411354582 L117.915836653,556.374501992 L111.292330677,550.273904382 L101.357071713,546.613545817 L106.760458167,541.210159363 L109.897908367,530.926294821 L111.466633466,511.055776892 L121.227589641,489.267928287 L126.282370518,482.121513944 L128.896912351,469.746015936 L141.795318725,458.939243028 L153.299302789,455.801792829 L169.509462151,444.297808765 L187.985557769,399.327689243 L193.563247012,396.015936255 L197.223605578,388.520916335 L202.801294821,386.080677291 L216.919820717,385.209163347 L236.441733068,381.200199203 L248.642928287,375.62250996 L258.403884462,396.190239044 L246.72559761,402.116533865 L236.790338645,412.749003984 L226.332171315,438.197211155 L216.222609562,449.003984064 L212.039342629,459.636454183 L217.094123506,482.470119522 L234.175796813,482.8187251 Z" fill="#cee3f5" id="MA.LB" stroke="#6e6e6e" stroke-width="0.4"><desc><labelrank>5</labelrank><code_hasc>MA.LB</code_hasc><name>Laâyoune - Boujdour - Sakia El Hamra</name><admin>Morocco</admin><type_en>Region</type_en><region /><woe_id>-56120089</woe_id><longitude>-13</longitude><woe_name /><fips>MO59</fips><woe_label /><latitude>25</latitude><iso_a2>MA</iso_a2><postal>LB</postal><type>Region</type><id>MA.LB</id></desc></path><path d="M480.814243028,309.736055777 L465.649900398,312.699203187 L462.163844622,316.185258964 L449.962649402,313.047808765 L442.119023904,315.488047809 L438.28436255,319.671314741 L426.780378486,319.497011952 L382.333167331,352.614541833 L381.810258964,403.510956175 L376.058266932,403.685258964 L377.97559761,413.271912351 L376.929780876,420.766932271 L378.847111554,426.344621514 L377.104083665,429.830677291 L350.261454183,431.39940239 L336.142928287,442.380478088 L332.65687251,442.903386454 L323.244521912,439.765936255 L313.832171315,442.206175299 L300.759462151,435.756972112 L291.87001992,434.188247012 L284.723605578,434.53685259 L264.155876494,440.288844622 L267.293326693,447.086653386 L266.24750996,452.490039841 L258.578187251,460.333665339 L249.165836653,477.938247012 L235.395916335,481.075697211 L234.175796813,482.8187251 L217.094123506,482.470119522 L212.039342629,459.636454183 L216.222609562,449.003984064 L226.332171315,438.197211155 L236.790338645,412.749003984 L246.72559761,402.116533865 L258.403884462,396.190239044 L248.642928287,375.62250996 L261.541334661,370.219123506 L280.017430279,350.0 L301.108067729,338.670318725 L308.603087649,330.478087649 L321.327191235,334.661354582 L326.730577689,330.652390438 L331.08814741,330.478087649 L334.748505976,325.074701195 L337.363047809,324.028884462 L341.372011952,325.597609562 L346.426792829,323.157370518 L360.196713147,321.414342629 L361.765438247,322.460159363 L364.902888446,318.102589641 L368.91185259,316.88247012 L373.4437251,316.533864542 L379.195717131,318.974103586 L382.158864542,317.928286853 L380.764442231,300.323705179 L383.204681275,291.957171315 L394.882968127,292.305776892 L401.157868526,289.69123506 L406.212649402,290.911354582 L409.52440239,288.645418327 L411.616035857,284.462151394 L420.505478088,283.59063745 L425.908864542,279.233067729 L438.807270916,280.453187251 L444.733565737,270.517928287 L456.063247012,271.040836653 L458.852091633,267.380478088 L464.081175299,265.637450199 L472.273406375,271.912350598 L470.530378486,279.233067729 L473.144920319,285.682270916 L477.328187251,286.553784861 L474.016434263,294.397410359 L480.814243028,309.736055777 Z" fill="#cee3f5" id="MA.GE" stroke="#6e6e6e" stroke-width="0.4"><desc><labelrank>6</labelrank><code_hasc>MA.GE</code_hasc><name>Guelmim - Es-Semara</name><admin>Morocco</admin><type_en>Region</type_en><region /><woe_id>-56120055</woe_id><longitude>-10</longitude><woe_name /><fips>MO03</fips><woe_label /><latitude>28</latitude><iso_a2>MA</iso_a2><postal>GE</postal><type>Region</type><id>MA.GE</id></desc></path><path d="M193.040338645,554.457171315 L187.81125498,558.989043825 L176.132968127,579.033864542 L155.216633466,587.749003984 L149.813247012,592.280876494 L143.364043825,605.702191235 L139.355079681,620.692231076 L132.557270916,658.864541833 L113.209661355,680.129482072 L113.90687251,685.532868526 L107.109063745,697.385458167 L102.925796813,699.651394422 L96.999501992,700.0 L48.3690239044,694.945219124 L16.8202191235,694.945219124 L3.74750996016,696.688247012 L9.32519920319,671.937250996 L19.9576693227,655.727091633 L28.3242031873,654.158366534 L30.9387450199,651.369521912 L33.0303784861,644.920318725 L36.5164342629,641.608565737 L40.3510956175,626.269920319 L46.2773904382,621.912350598 L46.6259960159,617.554780876 L44.1857569721,616.857569721 L65.625,584.088645418 L65.7993027888,578.162350598 L55.3411354582,590.537848606 L58.1299800797,584.437250996 L62.8361553785,578.336653386 L73.1200199203,572.758964143 L92.6419322709,552.19123506 L99.6140438247,549.053784861 L101.357071713,546.613545817 L111.292330677,550.273904382 L117.915836653,556.374501992 L139.877988048,553.411354582 L160.097111554,558.466135458 L180.31623506,553.062749004 L193.040338645,554.457171315 Z" fill="#cee3f5" id="MA.OD" stroke="#6e6e6e" stroke-width="0.4"><desc><labelrank>5</labelrank><code_hasc>MA.OD</code_hasc><name>Oued el Dahab</name><admin>Morocco</admin><type_en>Region</type_en><region /><woe_id>24549935</woe_id><longitude>-14</longitude><woe_name>Oued el Dahab</woe_name><fips>WI00</fips><woe_label>Oued Ed-Dahab, EH, Western Sahara</woe_label><latitude>23</latitude><iso_a2>MA</iso_a2><postal>OD</postal><type>Region</type><id>MA.OD</id></desc></path></svg>