<?xml version='1.0' encoding='utf-8'?>
<svg height="700" width="700" xmlns="http://www.w3.org/2000/svg"><path d="M256.842105263,449.473684211 L269.473684211,442.105263158 L287.368421053,442.105263158 L289.473684211,428.421052632 L301.052631579,420.0 L315.789473684,428.421052632 L332.631578947,393.684210526 L337.894736842,405.263157895 L356.842105263,416.842105263 L372.631578947,417.894736842 L373.684210526,428.421052632 L382.105263158,443.157894737 L400.0,447.368421053 L405.263157895,436.842105263 L418.947368421,435.789473684 L424.210526316,440.0 L449.473684211,435.789473684 L464.210526316,447.368421053 L480.0,445.263157895 L490.526315789,436.842105263 L493.684210526,435.789473684 L514.736842105,442.105263158 L488.421052632,460.0 L467.368421053,467.368421053 L460.0,471.578947368 L430.526315789,502.105263158 L410.526315789,500.0 L405.263157895,472.631578947 L387.368421053,490.526315789 L369.473684211,486.315789474 L357.894736842,495.789473684 L335.789473684,484.210526316 L322.105263158,468.421052632 L301.052631579,460.0 L283.157894737,463.157894737 L265.263157895,457.894736842 L256.842105263,449.473684211 Z" fill="#cee3f5" id="CN.hubei.2709754" stroke="#6e6e6e" stroke-width="0.4"><desc><name>Jingzhou City</name><admin_leve>5</admin_leve><wikidata>Q71247</wikidata><localname>荆州市 (Jingzhou)</localname><boundary>administrative</boundary><id>CN.hubei.2709754</id></desc></path><path d="M185.263157895,331.578947368 L194.736842105,332.631578947 L200.0,318.947368421 L213.684210526,311.578947368 L230.526315789,310.526315789 L242.105263158,324.210526316 L258.947368421,322.105263158 L265.263157895,330.526315789 L282.105263158,335.789473684 L291.578947368,329.473684211 L312.631578947,342.105263158 L322.105263158,351.578947368 L332.631578947,393.684210526 L315.789473684,428.421052632 L301.052631579,420.0 L289.473684211,428.421052632 L287.368421053,442.105263158 L269.473684211,442.105263158 L256.842105263,449.473684211 L228.421052632,447.368421053 L211.578947368,443.157894737 L189.473684211,451.578947368 L171.578947368,457.894736842 L175.789473684,442.105263158 L176.842105263,411.578947368 L187.368421053,404.210526316 L183.157894737,382.105263158 L186.315789474,355.789473684 L192.631578947,351.578947368 L185.263157895,331.578947368 Z" fill="#cee3f5" id="CN.hubei.2983923" stroke="#6e6e6e" stroke-width="0.4"><desc><name>Yichang City</name><admin_leve>5</admin_leve><wikidata>Q71266</wikidata><localname>宜昌市 (Yichang)</localname><boundary>administrative</boundary><id>CN.hubei.2983923</id></desc></path><path d="M158.947368421,335.789473684 L173.684210526,327.368421053 L185.263157895,331.578947368 L192.631578947,351.578947368 L186.315789474,355.789473684 L183.157894737,382.105263158 L187.368421053,404.210526316 L176.842105263,411.578947368 L175.789473684,442.105263158 L171.578947368,457.894736842 L189.473684211,451.578947368 L193.684210526,466.315789474 L202.105263158,473.684210526 L177.894736842,486.315789474 L154.736842105,472.631578947 L124.210526316,474.736842105 L113.684210526,489.473684211 L98.9473684211,489.473684211 L76.8421052632,524.210526316 L63.1578947368,524.210526316 L63.1578947368,511.578947368 L45.2631578947,514.736842105 L40.0,486.315789474 L25.2631578947,481.052631579 L23.1578947368,467.368421053 L9.47368421053,464.210526316 L14.7368421053,431.578947368 L0.0,420.0 L25.2631578947,400.0 L38.9473684211,407.368421053 L51.5789473684,395.789473684 L95.7894736842,396.842105263 L134.736842105,372.631578947 L151.578947368,381.052631579 L160.0,364.210526316 L158.947368421,335.789473684 Z" fill="#cee3f5" id="CN.hubei.2984075" stroke="#6e6e6e" stroke-width="0.4"><desc><name>Enshi Tujia and Miao Autonomous Prefecture</name><admin_leve>5</admin_leve><wikidata>Q71415</wikidata><localname>恩施土家族苗族自治州</localname><boundary>administrative</boundary><id>CN.hubei.2984075</id></desc></path><path d="M546.315789474,334.736842105 L543.157894737,340.0 L561.052631579,366.315789474 L595.789473684,364.210526316 L595.789473684,380.0 L578.947368421,387.368421053 L577.894736842,396.842105263 L563.157894737,403.157894737 L561.052631579,425.263157895 L552.631578947,440.0 L555.789473684,447.368421053 L554.736842105,455.789473684 L538.947368421,450.526315789 L529.473684211,453.684210526 L515.789473684,434.736842105 L500.0,427.368421053 L493.684210526,435.789473684 L490.526315789,436.842105263 L478.947368421,417.894736842 L501.052631579,400.0 L497.894736842,389.473684211 L506.315789474,382.105263158 L523.157894737,385.263157895 L521.052631579,373.684210526 L523.157894737,338.947368421 L532.631578947,330.526315789 L546.315789474,334.736842105 Z" fill="#cee3f5" id="CN.hubei.3076268" stroke="#6e6e6e" stroke-width="0.4"><desc><name>Wuhan City</name><admin_leve>5</admin_leve><wikidata>Q11746</wikidata><localname>武汉市 / Wuhan</localname><boundary>administrative</boundary><id>CN.hubei.3076268</id></desc></path><path d="M554.736842105,455.789473684 L555.789473684,447.368421053 L573.684210526,444.210526316 L566.315789474,433.684210526 L582.105263158,425.263157895 L593.684210526,434.736842105 L604.210526316,429.473684211 L615.789473684,433.684210526 L638.947368421,466.315789474 L643.157894737,468.421052632 L638.947368421,477.894736842 L611.578947368,497.894736842 L593.684210526,493.684210526 L582.105263158,477.894736842 L572.631578947,475.789473684 L572.631578947,463.157894737 L554.736842105,455.789473684 Z" fill="#cee3f5" id="CN.hubei.3086592" stroke="#6e6e6e" stroke-width="0.4"><desc><admin_leve>5</admin_leve><localname>黄石市</localname><boundary>administrative</boundary><id>CN.hubei.3086592</id><name>Huangshi</name></desc></path><path d="M577.894736842,396.842105263 L582.105263158,412.631578947 L600.0,416.842105263 L604.210526316,429.473684211 L593.684210526,434.736842105 L582.105263158,425.263157895 L566.315789474,433.684210526 L573.684210526,444.210526316 L555.789473684,447.368421053 L552.631578947,440.0 L561.052631579,425.263157895 L563.157894737,403.157894737 L577.894736842,396.842105263 Z" fill="#cee3f5" id="CN.hubei.3086618" stroke="#6e6e6e" stroke-width="0.4"><desc><name>Ezhou City</name><admin_leve>5</admin_leve><wikipedia>en:Ezhou</wikipedia><wikidata>Q71305</wikidata><localname>鄂州市 / Ezhou</localname><boundary>administrative</boundary><id>CN.hubei.3086618</id></desc></path><path d="M467.368421053,467.368421053 L488.421052632,460.0 L514.736842105,442.105263158 L493.684210526,435.789473684 L500.0,427.368421053 L515.789473684,434.736842105 L529.473684211,453.684210526 L538.947368421,450.526315789 L554.736842105,455.789473684 L572.631578947,463.157894737 L572.631578947,475.789473684 L582.105263158,477.894736842 L593.684210526,493.684210526 L585.263157895,507.368421053 L555.789473684,513.684210526 L529.473684211,512.631578947 L529.473684211,523.157894737 L511.578947368,525.263157895 L495.789473684,541.052631579 L477.894736842,533.684210526 L470.526315789,521.052631579 L484.210526316,503.157894737 L475.789473684,482.105263158 L464.210526316,481.052631579 L467.368421053,467.368421053 Z" fill="#cee3f5" id="CN.hubei.3106518" stroke="#6e6e6e" stroke-width="0.4"><desc><name>Xianning City</name><admin_leve>5</admin_leve><wikipedia>en:Xianning</wikipedia><wikidata>Q71373</wikidata><localname>咸宁市 / Xianning</localname><boundary>administrative</boundary><id>CN.hubei.3106518</id></desc></path><path d="M546.315789474,334.736842105 L556.842105263,312.631578947 L582.105263158,321.052631579 L618.947368421,312.631578947 L616.842105263,324.210526316 L632.631578947,327.368421053 L638.947368421,337.894736842 L677.894736842,353.684210526 L694.736842105,365.263157895 L673.684210526,377.894736842 L666.315789474,391.578947368 L676.842105263,401.052631579 L676.842105263,418.947368421 L693.684210526,434.736842105 L694.736842105,456.842105263 L700.0,469.473684211 L684.210526316,477.894736842 L657.894736842,467.368421053 L643.157894737,468.421052632 L638.947368421,466.315789474 L615.789473684,433.684210526 L604.210526316,429.473684211 L600.0,416.842105263 L582.105263158,412.631578947 L577.894736842,396.842105263 L578.947368421,387.368421053 L595.789473684,380.0 L595.789473684,364.210526316 L561.052631579,366.315789474 L543.157894737,340.0 L546.315789474,334.736842105 Z" fill="#cee3f5" id="CN.hubei.3144169" stroke="#6e6e6e" stroke-width="0.4"><desc><name>Huanggang City</name><admin_leve>5</admin_leve><wikidata>Q71355</wikidata><localname>黄冈市 / Huanggang</localname><boundary>administrative</boundary><id>CN.hubei.3144169</id></desc></path><path d="M287.368421053,217.894736842 L276.842105263,232.631578947 L255.789473684,243.157894737 L254.736842105,258.947368421 L240.0,266.315789474 L229.473684211,283.157894737 L213.684210526,287.368421053 L188.421052632,285.263157895 L165.263157895,296.842105263 L163.157894737,305.263157895 L142.105263158,316.842105263 L123.157894737,308.421052632 L109.473684211,297.894736842 L106.315789474,269.473684211 L109.473684211,262.105263158 L97.8947368421,245.263157895 L110.526315789,217.894736842 L135.789473684,217.894736842 L145.263157895,222.105263158 L158.947368421,217.894736842 L156.842105263,198.947368421 L143.157894737,191.578947368 L123.157894737,189.473684211 L125.263157895,175.789473684 L92.6315789474,167.368421053 L100.0,160.0 L130.526315789,158.947368421 L164.210526316,166.315789474 L197.894736842,166.315789474 L209.473684211,169.473684211 L233.684210526,158.947368421 L250.526315789,170.526315789 L269.473684211,196.842105263 L287.368421053,217.894736842 Z" fill="#cee3f5" id="CN.hubei.3206796" stroke="#6e6e6e" stroke-width="0.4"><desc><name>Shiyan City</name><admin_leve>5</admin_leve><wikidata>Q71227</wikidata><localname>十堰市 / Shiyan</localname><boundary>administrative</boundary><id>CN.hubei.3206796</id></desc></path><path d="M445.263157895,331.578947368 L458.947368421,323.157894737 L474.736842105,327.368421053 L482.105263158,321.052631579 L512.631578947,323.157894737 L517.894736842,301.052631579 L517.894736842,289.473684211 L533.684210526,294.736842105 L560.0,293.684210526 L556.842105263,312.631578947 L546.315789474,334.736842105 L532.631578947,330.526315789 L523.157894737,338.947368421 L521.052631579,373.684210526 L523.157894737,385.263157895 L506.315789474,382.105263158 L497.894736842,389.473684211 L501.052631579,400.0 L478.947368421,417.894736842 L467.368421053,409.473684211 L457.894736842,417.894736842 L454.736842105,381.052631579 L446.315789474,372.631578947 L457.894736842,358.947368421 L460.0,343.157894737 L445.263157895,331.578947368 Z" fill="#cee3f5" id="CN.hubei.3216406" stroke="#6e6e6e" stroke-width="0.4"><desc><name>Xiaogan City</name><admin_leve>5</admin_leve><wikipedia>en:Xiaogan</wikipedia><wikidata>Q71339</wikidata><localname>孝感市 / Xiaogan</localname><boundary>administrative</boundary><id>CN.hubei.3216406</id></desc></path><path d="M426.315789474,237.894736842 L435.789473684,233.684210526 L453.684210526,247.368421053 L472.631578947,240.0 L485.263157895,238.947368421 L487.368421053,253.684210526 L482.105263158,264.210526316 L492.631578947,286.315789474 L505.263157895,294.736842105 L517.894736842,289.473684211 L517.894736842,301.052631579 L512.631578947,323.157894737 L482.105263158,321.052631579 L474.736842105,327.368421053 L458.947368421,323.157894737 L445.263157895,331.578947368 L423.157894737,322.105263158 L413.684210526,323.157894737 L393.684210526,307.368421053 L392.631578947,295.789473684 L405.263157895,290.526315789 L415.789473684,277.894736842 L420.0,262.105263158 L417.894736842,247.368421053 L426.315789474,237.894736842 Z" fill="#cee3f5" id="CN.hubei.3216520" stroke="#6e6e6e" stroke-width="0.4"><desc><name>Suizhou City</name><admin_leve>5</admin_leve><wikipedia>en:Suizhou</wikipedia><wikidata>Q71401</wikidata><localname>随州市 / Suizhou</localname><boundary>administrative</boundary><id>CN.hubei.3216520</id></desc></path><path d="M287.368421053,217.894736842 L292.631578947,214.736842105 L338.947368421,236.842105263 L391.578947368,240.0 L404.210526316,235.789473684 L426.315789474,237.894736842 L417.894736842,247.368421053 L420.0,262.105263158 L415.789473684,277.894736842 L405.263157895,290.526315789 L392.631578947,295.789473684 L393.684210526,307.368421053 L382.105263158,316.842105263 L363.157894737,316.842105263 L350.526315789,313.684210526 L330.526315789,324.210526316 L321.052631579,323.157894737 L312.631578947,342.105263158 L291.578947368,329.473684211 L282.105263158,335.789473684 L265.263157895,330.526315789 L258.947368421,322.105263158 L242.105263158,324.210526316 L230.526315789,310.526315789 L232.631578947,304.210526316 L213.684210526,287.368421053 L229.473684211,283.157894737 L240.0,266.315789474 L254.736842105,258.947368421 L255.789473684,243.157894737 L276.842105263,232.631578947 L287.368421053,217.894736842 Z" fill="#cee3f5" id="CN.hubei.3216590" stroke="#6e6e6e" stroke-width="0.4"><desc><name>Xiangyang City</name><admin_leve>5</admin_leve><wikipedia>en:Xiangyang</wikipedia><wikidata>Q71284</wikidata><localname>襄阳市 / Xiangyang</localname><boundary>administrative</boundary><id>CN.hubei.3216590</id></desc></path><path d="M312.631578947,342.105263158 L321.052631579,323.157894737 L330.526315789,324.210526316 L350.526315789,313.684210526 L363.157894737,316.842105263 L382.105263158,316.842105263 L393.684210526,307.368421053 L413.684210526,323.157894737 L423.157894737,322.105263158 L445.263157895,331.578947368 L460.0,343.157894737 L457.894736842,358.947368421 L446.315789474,372.631578947 L432.631578947,378.947368421 L416.842105263,382.105263158 L405.263157895,389.473684211 L398.947368421,378.947368421 L380.0,389.473684211 L390.526315789,395.789473684 L382.105263158,397.894736842 L372.631578947,417.894736842 L356.842105263,416.842105263 L337.894736842,405.263157895 L332.631578947,393.684210526 L322.105263158,351.578947368 L312.631578947,342.105263158 Z" fill="#cee3f5" id="CN.hubei.3219965" stroke="#6e6e6e" stroke-width="0.4"><desc><name>Jingmen City</name><admin_leve>5</admin_leve><wikipedia>en:Jingmen</wikipedia><wikidata>Q71323</wikidata><localname>荆门市 / Jingmen</localname><boundary>administrative</boundary><id>CN.hubei.3219965</id></desc></path><path d="M142.105263158,316.842105263 L163.157894737,305.263157895 L165.263157895,296.842105263 L188.421052632,285.263157895 L213.684210526,287.368421053 L232.631578947,304.210526316 L230.526315789,310.526315789 L213.684210526,311.578947368 L200.0,318.947368421 L194.736842105,332.631578947 L185.263157895,331.578947368 L173.684210526,327.368421053 L158.947368421,335.789473684 L142.105263158,316.842105263 Z" fill="#cee3f5" id="CN.hubei.2984052" stroke="#6e6e6e" stroke-width="0.4"><desc><name>Shennongjia Forestry District</name><admin_leve>6</admin_leve><wikipedia>en:Shennongjia</wikipedia><note>Shennongjia is a county-level administrative unit directly subordinated to Hubei</note><wikidata>Q1359055</wikidata><localname>神农架林区 (Shennongjia)</localname><boundary>administrative</boundary><id>CN.hubei.2984052</id></desc></path><path d="M372.631578947,417.894736842 L382.105263158,397.894736842 L390.526315789,395.789473684 L401.052631579,408.421052632 L411.578947368,405.263157895 L418.947368421,435.789473684 L405.263157895,436.842105263 L400.0,447.368421053 L382.105263158,443.157894737 L373.684210526,428.421052632 L372.631578947,417.894736842 Z" fill="#cee3f5" id="CN.hubei.3258831" stroke="#6e6e6e" stroke-width="0.4"><desc><name>Qianjiang City</name><admin_leve>6</admin_leve><wikipedia>en:Qianjiang</wikipedia><wikidata>Q412073</wikidata><localname>潜江市 / Qianjiang</localname><boundary>administrative</boundary><id>CN.hubei.3258831</id></desc></path><path d="M446.315789474,372.631578947 L454.736842105,381.052631579 L457.894736842,417.894736842 L429.473684211,414.736842105 L411.578947368,405.263157895 L401.052631579,408.421052632 L390.526315789,395.789473684 L380.0,389.473684211 L398.947368421,378.947368421 L405.263157895,389.473684211 L416.842105263,382.105263158 L432.631578947,378.947368421 L446.315789474,372.631578947 Z" fill="#cee3f5" id="CN.hubei.3258833" stroke="#6e6e6e" stroke-width="0.4"><desc><name>Tianmen City</name><admin_leve>6</admin_leve><wikipedia>en:Tianmen</wikipedia><note>Tianmen is a sub-prefecture-level city with no counties/districts</note><wikidata>Q71468</wikidata><localname>天门市 / Tianmen</localname><boundary>administrative</boundary><id>CN.hubei.3258833</id></desc></path><path d="M411.578947368,405.263157895 L429.473684211,414.736842105 L457.894736842,417.894736842 L467.368421053,409.473684211 L478.947368421,417.894736842 L490.526315789,436.842105263 L480.0,445.263157895 L464.210526316,447.368421053 L449.473684211,435.789473684 L424.210526316,440.0 L418.947368421,435.789473684 L411.578947368,405.263157895 Z" fill="#cee3f5" id="CN.hubei.3258834" stroke="#6e6e6e" stroke-width="0.4"><desc><name>Xiantao City</name><admin_leve>6</admin_leve><wikipedia>en:Xiantao</wikipedia><wikidata>Q71455</wikidata><localname>仙桃市 / Xiantao</localname><boundary>administrative</boundary><id>CN.hubei.3258834</id></desc></path></svg>