<?xml version="1.0"?>
<svg xmlns="http://www.w3.org/2000/svg" version="1.2" baseProfile="tiny" width="800" height="1233" viewBox="0 0 800 1233" stroke-linecap="round" stroke-linejoin="round">
    <g id="saint_pierre_and_miquelon">
        <path d="M 779.4014 1102.5211 761.8657 1116.4464 748.1983 1131.9191 738.6568 1149.3257 734.2729 1169.4401 781.7222 1187.2336 799 1191.1018 725.1183 1217.7921 637.3112 1232.1042 554.5327 1226.173 496.2525 1191.1018 564.0742 1119.541 600.1769 1089.2404 649.6893 1061.3897 686.5657 1052.1062 746.3931 1045.6592 790.2322 1057.5216 779.4014 1102.5211 Z"/>
        <path d="M 390.1362 779.9171 511.4673 854.1857 467.8861 948.4397 341.0107 1038.6966 160.4968 1134.3689 121.6864 1143.3946 83.1338 1126.1168 60.1827 1085.5012 69.2084 1060.3582 69.0795 1038.1808 18.4067 1006.2041 1.7736 967.1357 53.9937 919.1706 171.5856 842.968 217.4876 718.1556 190.5395 593.6011 37.7475 335.7242 27.6903 284.4067 18.4067 170.2962 1 119.1076 3.192 88.6781 29.2375 51.286 61.73 23.1774 97.0591 4.3524 133.9355 1 171.5856 18.7935 112.7896 49.4809 79.9103 80.555 81.5865 113.0475 126.4571 148.6345 179.3219 166.428 291.8851 185.1241 454.9922 278.4755 460.1498 309.5497 458.2157 352.873 446.4823 391.5545 404.1905 421.8551 390.1362 451.5109 369.3771 481.2957 332.8875 494.8342 314.7072 488.1294 306.1973 473.1726 300.7819 458.2157 290.7247 451.5109 268.5473 453.8318 212.9748 473.1726 169.0068 461.5681 147.9898 465.6941 148.1188 494.8342 162.0441 512.2409 181.2559 514.9486 199.8231 513.4014 224.9661 523.2007 243.5332 523.4586 263.6476 525.7794 279.8938 538.1575 285.6961 559.5613 276.4125 574.905 263.1318 585.8648 256.2981 595.0194 256.2981 724.9893 269.8366 765.0892 303.3606 777.2094 390.1362 779.9171 Z"/>
    </g>
</svg>