<?xml version='1.0' encoding='utf-8'?>
<svg height="700" width="700" xmlns="http://www.w3.org/2000/svg"><path d="M672.397476341,422.318611987 L688.958990536,424.52681388 L700.0,448.8170347 L700.0,463.170347003 L650.315457413,463.170347003 L655.835962145,452.129337539 L655.835962145,428.943217666 L672.397476341,422.318611987 Z" fill="#cee3f5" id="US.WA.003" stroke="#6e6e6e" stroke-width="0.4"><desc><name>Asotin County</name><stateAbbrev>WA</stateAbbrev><state>Washington</state><fips>003</fips><incits>53003</incits><id>US.WA.003</id><population>22110</population></desc></path><path d="M617.192429022,406.861198738 L627.129337539,401.340694006 L659.148264984,405.757097792 L672.397476341,422.318611987 L655.835962145,428.943217666 L655.835962145,452.129337539 L650.315457413,463.170347003 L639.27444795,463.170347003 L639.27444795,432.255520505 L628.233438486,421.214511041 L617.192429022,421.214511041 L617.192429022,406.861198738 Z" fill="#cee3f5" id="US.WA.023" stroke="#6e6e6e" stroke-width="0.4"><desc><name>Garfield County</name><stateAbbrev>WA</stateAbbrev><state>Washington</state><fips>023</fips><incits>53023</incits><id>US.WA.023</id><population>2256</population></desc></path><path d="M586.277602524,396.924290221 L600.630914826,394.716088328 L608.359621451,381.466876972 L608.359621451,351.65615142 L620.504731861,351.65615142 L688.958990536,351.65615142 L688.958990536,424.52681388 L672.397476341,422.318611987 L659.148264984,405.757097792 L627.129337539,401.340694006 L617.192429022,406.861198738 L589.589905363,413.485804416 L585.173501577,410.173501577 L586.277602524,396.924290221 Z" fill="#cee3f5" id="US.WA.075" stroke="#6e6e6e" stroke-width="0.4"><desc><name>Whitman County</name><stateAbbrev>WA</stateAbbrev><state>Washington</state><fips>075</fips><incits>53075</incits><id>US.WA.075</id><population>46570</population></desc></path><path d="M584.069400631,410.173501577 L585.173501577,410.173501577 L589.589905363,413.485804416 L617.192429022,406.861198738 L617.192429022,421.214511041 L628.233438486,421.214511041 L639.27444795,432.255520505 L639.27444795,463.170347003 L605.047318612,462.066246057 L605.047318612,444.400630915 L594.006309148,444.400630915 L582.965299685,436.67192429 L584.069400631,410.173501577 Z" fill="#cee3f5" id="US.WA.013" stroke="#6e6e6e" stroke-width="0.4"><desc><name>Columbia County</name><stateAbbrev>WA</stateAbbrev><state>Washington</state><fips>013</fips><incits>53013</incits><id>US.WA.013</id><population>4032</population></desc></path><path d="M475.867507886,402.444794953 L483.596214511,396.924290221 L586.277602524,396.924290221 L585.173501577,410.173501577 L584.069400631,410.173501577 L564.195583596,410.173501577 L549.842271293,417.902208202 L548.738170347,425.630914826 L535.488958991,436.67192429 L513.406940063,445.504731861 L497.949526814,441.088328076 L492.429022082,416.798107256 L475.867507886,402.444794953 Z" fill="#cee3f5" id="US.WA.021" stroke="#6e6e6e" stroke-width="0.4"><desc><name>Franklin County</name><stateAbbrev>WA</stateAbbrev><state>Washington</state><fips>021</fips><incits>53021</incits><id>US.WA.021</id><population>86638</population></desc></path><path d="M584.069400631,410.173501577 L582.965299685,436.67192429 L594.006309148,444.400630915 L605.047318612,444.400630915 L605.047318612,462.066246057 L516.719242902,463.170347003 L521.135646688,455.441640379 L513.406940063,445.504731861 L535.488958991,436.67192429 L548.738170347,425.630914826 L549.842271293,417.902208202 L564.195583596,410.173501577 L584.069400631,410.173501577 Z" fill="#cee3f5" id="US.WA.071" stroke="#6e6e6e" stroke-width="0.4"><desc><name>Walla Walla County</name><stateAbbrev>WA</stateAbbrev><state>Washington</state><fips>071</fips><incits>53071</incits><id>US.WA.071</id><population>59530</population></desc></path><path d="M620.504731861,351.65615142 L620.504731861,300.867507886 L630.441640379,298.659305994 L645.899053628,303.075709779 L644.794952681,282.097791798 L654.731861199,282.097791798 L688.958990536,282.097791798 L688.958990536,351.65615142 L620.504731861,351.65615142 Z" fill="#cee3f5" id="US.WA.063" stroke="#6e6e6e" stroke-width="0.4"><desc><name>Spokane County</name><stateAbbrev>WA</stateAbbrev><state>Washington</state><fips>063</fips><incits>53063</incits><id>US.WA.063</id><population>479398</population></desc></path><path d="M654.731861199,197.082018927 L690.063091483,197.082018927 L688.958990536,282.097791798 L654.731861199,282.097791798 L648.107255521,274.369085174 L649.211356467,227.996845426 L643.690851735,211.43533123 L654.731861199,197.082018927 Z" fill="#cee3f5" id="US.WA.051" stroke="#6e6e6e" stroke-width="0.4"><desc><name>Pend Oreille County</name><stateAbbrev>WA</stateAbbrev><state>Washington</state><fips>051</fips><incits>53051</incits><id>US.WA.051</id><population>12896</population></desc></path><path d="M587.38170347,197.082018927 L654.731861199,197.082018927 L643.690851735,211.43533123 L649.211356467,227.996845426 L648.107255521,274.369085174 L654.731861199,282.097791798 L644.794952681,282.097791798 L645.899053628,303.075709779 L630.441640379,298.659305994 L620.504731861,300.867507886 L597.318611987,303.075709779 L582.965299685,290.930599369 L574.132492114,295.347003155 L569.716088328,283.201892744 L581.861198738,282.097791798 L592.902208202,262.223974763 L586.277602524,244.558359621 L595.110410095,227.996845426 L586.277602524,209.227129338 L587.38170347,197.082018927 Z" fill="#cee3f5" id="US.WA.065" stroke="#6e6e6e" stroke-width="0.4"><desc><name>Stevens County</name><stateAbbrev>WA</stateAbbrev><state>Washington</state><fips>065</fips><incits>53065</incits><id>US.WA.065</id><population>43430</population></desc></path><path d="M438.32807571,406.861198738 L475.867507886,402.444794953 L492.429022082,416.798107256 L497.949526814,441.088328076 L513.406940063,445.504731861 L521.135646688,455.441640379 L516.719242902,463.170347003 L504.574132492,468.690851735 L461.514195584,470.899053628 L439.432176656,477.523659306 L439.432176656,458.753943218 L438.32807571,406.861198738 Z" fill="#cee3f5" id="US.WA.005" stroke="#6e6e6e" stroke-width="0.4"><desc><name>Benton County</name><stateAbbrev>WA</stateAbbrev><state>Washington</state><fips>005</fips><incits>53005</incits><id>US.WA.005</id><population>184486</population></desc></path><path d="M292.586750789,458.753943218 L375.394321767,458.753943218 L439.432176656,458.753943218 L439.432176656,477.523659306 L408.517350158,486.356466877 L383.123028391,489.668769716 L370.977917981,485.252365931 L344.479495268,492.981072555 L331.230283912,494.085173502 L292.586750789,486.356466877 L285.96214511,481.940063091 L284.858044164,458.753943218 L292.586750789,458.753943218 Z" fill="#cee3f5" id="US.WA.039" stroke="#6e6e6e" stroke-width="0.4"><desc><name>Klickitat County</name><stateAbbrev>WA</stateAbbrev><state>Washington</state><fips>039</fips><incits>53039</incits><id>US.WA.039</id><population>20866</population></desc></path><path d="M531.072555205,197.082018927 L587.38170347,197.082018927 L586.277602524,209.227129338 L595.110410095,227.996845426 L586.277602524,244.558359621 L592.902208202,262.223974763 L581.861198738,282.097791798 L569.716088328,283.201892744 L574.132492114,295.347003155 L557.570977918,296.451104101 L539.905362776,294.242902208 L528.864353312,289.826498423 L531.072555205,197.082018927 Z" fill="#cee3f5" id="US.WA.019" stroke="#6e6e6e" stroke-width="0.4"><desc><name>Ferry County</name><stateAbbrev>WA</stateAbbrev><state>Washington</state><fips>019</fips><incits>53019</incits><id>US.WA.019</id><population>7646</population></desc></path><path d="M517.823343849,350.552050473 L518.927444795,290.930599369 L528.864353312,289.826498423 L539.905362776,294.242902208 L557.570977918,296.451104101 L574.132492114,295.347003155 L582.965299685,290.930599369 L597.318611987,303.075709779 L620.504731861,300.867507886 L620.504731861,351.65615142 L608.359621451,351.65615142 L517.823343849,350.552050473 Z" fill="#cee3f5" id="US.WA.043" stroke="#6e6e6e" stroke-width="0.4"><desc><name>Lincoln County</name><stateAbbrev>WA</stateAbbrev><state>Washington</state><fips>043</fips><incits>53043</incits><id>US.WA.043</id><population>10301</population></desc></path><path d="M352.208201893,197.082018927 L427.287066246,197.082018927 L531.072555205,197.082018927 L528.864353312,289.826498423 L518.927444795,290.930599369 L517.823343849,288.722397476 L520.031545741,284.305993691 L504.574132492,272.160883281 L485.804416404,280.993690852 L455.993690852,277.681388013 L437.223974763,280.993690852 L439.432176656,289.826498423 L420.662460568,284.305993691 L395.268138801,271.056782334 L393.059936909,264.432176656 L376.498422713,257.807570978 L365.457413249,239.03785489 L361.041009464,227.996845426 L367.665615142,224.684542587 L363.249211356,210.331230284 L352.208201893,197.082018927 Z" fill="#cee3f5" id="US.WA.047" stroke="#6e6e6e" stroke-width="0.4"><desc><name>Okanogan County</name><stateAbbrev>WA</stateAbbrev><state>Washington</state><fips>047</fips><incits>53047</incits><id>US.WA.047</id><population>41193</population></desc></path><path d="M427.287066246,354.968454259 L427.287066246,346.135646688 L438.32807571,335.094637224 L469.242902208,335.094637224 L469.242902208,327.365930599 L485.804416404,319.637223975 L496.845425868,303.075709779 L496.845425868,295.347003155 L517.823343849,288.722397476 L518.927444795,290.930599369 L517.823343849,350.552050473 L517.823343849,382.570977918 L483.596214511,381.466876972 L483.596214511,396.924290221 L475.867507886,402.444794953 L438.32807571,406.861198738 L430.599369085,396.924290221 L433.911671924,390.299684543 L423.974763407,368.217665615 L427.287066246,354.968454259 Z" fill="#cee3f5" id="US.WA.025" stroke="#6e6e6e" stroke-width="0.4"><desc><name>Grant County</name><stateAbbrev>WA</stateAbbrev><state>Washington</state><fips>025</fips><incits>53025</incits><id>US.WA.025</id><population>91878</population></desc></path><path d="M517.823343849,350.552050473 L608.359621451,351.65615142 L608.359621451,381.466876972 L600.630914826,394.716088328 L586.277602524,396.924290221 L483.596214511,396.924290221 L483.596214511,381.466876972 L517.823343849,382.570977918 L517.823343849,350.552050473 Z" fill="#cee3f5" id="US.WA.001" stroke="#6e6e6e" stroke-width="0.4"><desc><name>Adams County</name><stateAbbrev>WA</stateAbbrev><state>Washington</state><fips>001</fips><incits>53001</incits><id>US.WA.001</id><population>19067</population></desc></path><path d="M292.586750789,458.753943218 L292.586750789,427.839116719 L304.731861199,406.861198738 L299.211356467,393.611987382 L298.107255521,381.466876972 L299.211356467,381.466876972 L305.835962145,367.113564669 L305.835962145,366.009463722 L326.813880126,372.634069401 L337.85488959,382.570977918 L370.977917981,381.466876972 L372.082018927,389.195583596 L383.123028391,396.924290221 L430.599369085,396.924290221 L438.32807571,406.861198738 L439.432176656,458.753943218 L375.394321767,458.753943218 L292.586750789,458.753943218 Z" fill="#cee3f5" id="US.WA.077" stroke="#6e6e6e" stroke-width="0.4"><desc><name>Yakima County</name><stateAbbrev>WA</stateAbbrev><state>Washington</state><fips>077</fips><incits>53077</incits><id>US.WA.077</id><population>247044</population></desc></path><path d="M229.652996845,457.649842271 L229.652996845,428.943217666 L292.586750789,427.839116719 L292.586750789,458.753943218 L284.858044164,458.753943218 L285.96214511,481.940063091 L292.586750789,486.356466877 L267.192429022,488.56466877 L241.798107256,499.605678233 L228.548895899,502.917981073 L229.652996845,457.649842271 Z" fill="#cee3f5" id="US.WA.059" stroke="#6e6e6e" stroke-width="0.4"><desc><name>Skamania County</name><stateAbbrev>WA</stateAbbrev><state>Washington</state><fips>059</fips><incits>53059</incits><id>US.WA.059</id><population>11274</population></desc></path><path d="M181.072555205,475.315457413 L185.488958991,469.794952681 L208.675078864,464.27444795 L219.716088328,466.482649842 L229.652996845,457.649842271 L228.548895899,502.917981073 L191.009463722,496.293375394 L183.280757098,492.981072555 L181.072555205,475.315457413 Z" fill="#cee3f5" id="US.WA.011" stroke="#6e6e6e" stroke-width="0.4"><desc><name>Clark County</name><stateAbbrev>WA</stateAbbrev><state>Washington</state><fips>011</fips><incits>53011</incits><id>US.WA.011</id><population>443817</population></desc></path><path d="M142.429022082,428.943217666 L229.652996845,428.943217666 L229.652996845,457.649842271 L219.716088328,466.482649842 L208.675078864,464.27444795 L185.488958991,469.794952681 L181.072555205,475.315457413 L171.135646688,455.441640379 L152.365930599,446.608832808 L143.533123028,447.712933754 L142.429022082,428.943217666 Z" fill="#cee3f5" id="US.WA.015" stroke="#6e6e6e" stroke-width="0.4"><desc><name>Cowlitz County</name><stateAbbrev>WA</stateAbbrev><state>Washington</state><fips>015</fips><incits>53015</incits><id>US.WA.015</id><population>101860</population></desc></path><path d="M129.179810726,392.507886435 L147.949526814,392.507886435 L147.949526814,394.716088328 L234.069400631,394.716088328 L266.088328076,398.028391167 L271.608832808,393.611987382 L299.211356467,393.611987382 L304.731861199,406.861198738 L292.586750789,427.839116719 L229.652996845,428.943217666 L142.429022082,428.943217666 L130.283911672,428.943217666 L129.179810726,392.507886435 Z" fill="#cee3f5" id="US.WA.041" stroke="#6e6e6e" stroke-width="0.4"><desc><name>Lewis County</name><stateAbbrev>WA</stateAbbrev><state>Washington</state><fips>041</fips><incits>53041</incits><id>US.WA.041</id><population>75081</population></desc></path><path d="M329.022082019,321.845425868 L345.583596215,336.19873817 L393.059936909,351.65615142 L419.558359621,350.552050473 L427.287066246,354.968454259 L423.974763407,368.217665615 L433.911671924,390.299684543 L430.599369085,396.924290221 L383.123028391,396.924290221 L372.082018927,389.195583596 L370.977917981,381.466876972 L337.85488959,382.570977918 L326.813880126,372.634069401 L305.835962145,366.009463722 L312.460567823,357.176656151 L298.107255521,342.823343849 L305.835962145,333.990536278 L329.022082019,321.845425868 Z" fill="#cee3f5" id="US.WA.037" stroke="#6e6e6e" stroke-width="0.4"><desc><name>Kittitas County</name><stateAbbrev>WA</stateAbbrev><state>Washington</state><fips>037</fips><incits>53037</incits><id>US.WA.037</id><population>41765</population></desc></path><path d="M203.154574132,338.406940063 L211.987381703,325.157728707 L211.987381703,305.283911672 L329.022082019,305.283911672 L329.022082019,321.845425868 L305.835962145,333.990536278 L298.107255521,342.823343849 L312.460567823,357.176656151 L305.835962145,366.009463722 L305.835962145,367.113564669 L269.400630915,358.280757098 L255.047318612,361.593059937 L238.485804416,351.65615142 L220.820189274,351.65615142 L203.154574132,338.406940063 Z" fill="#cee3f5" id="US.WA.033" stroke="#6e6e6e" stroke-width="0.4"><desc><name>King County</name><stateAbbrev>WA</stateAbbrev><state>Washington</state><fips>033</fips><incits>53033</incits><id>US.WA.033</id><population>2044449</population></desc></path><path d="M179.968454259,338.406940063 L203.154574132,338.406940063 L220.820189274,351.65615142 L238.485804416,351.65615142 L255.047318612,361.593059937 L269.400630915,358.280757098 L305.835962145,367.113564669 L299.211356467,381.466876972 L298.107255521,381.466876972 L299.211356467,393.611987382 L271.608832808,393.611987382 L266.088328076,398.028391167 L234.069400631,394.716088328 L210.883280757,386.987381703 L195.425867508,374.842271293 L195.425867508,374.842271293 L191.009463722,370.425867508 L191.009463722,370.425867508 L178.864353312,357.176656151 L175.552050473,351.65615142 L179.968454259,338.406940063 Z" fill="#cee3f5" id="US.WA.053" stroke="#6e6e6e" stroke-width="0.4"><desc><name>Pierce County</name><stateAbbrev>WA</stateAbbrev><state>Washington</state><fips>053</fips><incits>53053</incits><id>US.WA.053</id><population>819743</population></desc></path><path d="M97.1608832808,438.880126183 L98.2649842271,428.943217666 L130.283911672,428.943217666 L142.429022082,428.943217666 L143.533123028,447.712933754 L129.179810726,449.921135647 L120.347003155,438.880126183 L97.1608832808,438.880126183 Z" fill="#cee3f5" id="US.WA.069" stroke="#6e6e6e" stroke-width="0.4"><desc><name>Wahkiakum County</name><stateAbbrev>WA</stateAbbrev><state>Washington</state><fips>069</fips><incits>53069</incits><id>US.WA.069</id><population>4042</population></desc></path><path d="M59.6214511041,392.507886435 L129.179810726,392.507886435 L130.283911672,428.943217666 L98.2649842271,428.943217666 L97.1608832808,438.880126183 L85.0157728707,442.192429022 L60.7255520505,439.984227129 L62.9337539432,427.839116719 L62.9337539432,399.132492114 L59.6214511041,392.507886435 Z" fill="#cee3f5" id="US.WA.049" stroke="#6e6e6e" stroke-width="0.4"><desc><name>Pacific County</name><stateAbbrev>WA</stateAbbrev><state>Washington</state><fips>049</fips><incits>53049</incits><id>US.WA.049</id><population>20498</population></desc></path><path d="M36.4353312303,327.365930599 L69.5583596215,328.470031546 L118.138801262,328.470031546 L119.242902208,367.113564669 L144.637223975,367.113564669 L147.949526814,373.738170347 L147.949526814,392.507886435 L129.179810726,392.507886435 L59.6214511041,392.507886435 L52.9968454259,380.362776025 L47.476340694,350.552050473 L33.1230283912,336.19873817 L36.4353312303,327.365930599 Z" fill="#cee3f5" id="US.WA.027" stroke="#6e6e6e" stroke-width="0.4"><desc><name>Grays Harbor County</name><stateAbbrev>WA</stateAbbrev><state>Washington</state><fips>027</fips><incits>53027</incits><id>US.WA.027</id><population>71078</population></desc></path><path d="M144.637223975,367.113564669 L178.864353312,357.176656151 L191.009463722,370.425867508 L191.009463722,370.425867508 L195.425867508,374.842271293 L195.425867508,374.842271293 L210.883280757,386.987381703 L234.069400631,394.716088328 L147.949526814,394.716088328 L147.949526814,392.507886435 L147.949526814,373.738170347 L144.637223975,367.113564669 Z" fill="#cee3f5" id="US.WA.067" stroke="#6e6e6e" stroke-width="0.4"><desc><name>Thurston County</name><stateAbbrev>WA</stateAbbrev><state>Washington</state><fips>067</fips><incits>53067</incits><id>US.WA.067</id><population>262388</population></desc></path><path d="M338.958990536,260.015772871 L335.646687697,242.350157729 L353.312302839,236.829652997 L365.457413249,239.03785489 L376.498422713,257.807570978 L393.059936909,264.432176656 L395.268138801,271.056782334 L420.662460568,284.305993691 L439.432176656,289.826498423 L428.391167192,305.283911672 L410.72555205,307.492113565 L399.684542587,333.990536278 L416.246056782,341.719242902 L419.558359621,350.552050473 L393.059936909,351.65615142 L345.583596215,336.19873817 L329.022082019,321.845425868 L329.022082019,305.283911672 L323.501577287,294.242902208 L326.813880126,282.097791798 L344.479495268,275.47318612 L338.958990536,260.015772871 Z" fill="#cee3f5" id="US.WA.007" stroke="#6e6e6e" stroke-width="0.4"><desc><name>Chelan County</name><stateAbbrev>WA</stateAbbrev><state>Washington</state><fips>007</fips><incits>53007</incits><id>US.WA.007</id><population>73967</population></desc></path><path d="M439.432176656,289.826498423 L437.223974763,280.993690852 L455.993690852,277.681388013 L485.804416404,280.993690852 L504.574132492,272.160883281 L520.031545741,284.305993691 L517.823343849,288.722397476 L496.845425868,295.347003155 L496.845425868,303.075709779 L485.804416404,319.637223975 L469.242902208,327.365930599 L469.242902208,335.094637224 L438.32807571,335.094637224 L427.287066246,346.135646688 L427.287066246,354.968454259 L419.558359621,350.552050473 L416.246056782,341.719242902 L399.684542587,333.990536278 L410.72555205,307.492113565 L428.391167192,305.283911672 L439.432176656,289.826498423 Z" fill="#cee3f5" id="US.WA.017" stroke="#6e6e6e" stroke-width="0.4"><desc><name>Douglas County</name><stateAbbrev>WA</stateAbbrev><state>Washington</state><fips>017</fips><incits>53017</incits><id>US.WA.017</id><population>39471</population></desc></path><path d="M118.138801262,328.470031546 L118.138801262,320.741324921 L166.719242902,320.741324921 L179.968454259,328.470031546 L179.968454259,338.406940063 L175.552050473,351.65615142 L178.864353312,357.176656151 L144.637223975,367.113564669 L119.242902208,367.113564669 L118.138801262,328.470031546 Z" fill="#cee3f5" id="US.WA.045" stroke="#6e6e6e" stroke-width="0.4"><desc><name>Mason County</name><stateAbbrev>WA</stateAbbrev><state>Washington</state><fips>045</fips><incits>53045</incits><id>US.WA.045</id><population>60497</population></desc></path><path d="M166.719242902,320.741324921 L183.280757098,313.012618297 L187.697160883,303.075709779 L197.634069401,296.451104101 L196.529968454,288.722397476 L207.570977918,293.138801262 L211.987381703,301.971608833 L211.987381703,305.283911672 L211.987381703,325.157728707 L203.154574132,338.406940063 L179.968454259,338.406940063 L179.968454259,328.470031546 L166.719242902,320.741324921 Z" fill="#cee3f5" id="US.WA.035" stroke="#6e6e6e" stroke-width="0.4"><desc><name>Kitsap County</name><stateAbbrev>WA</stateAbbrev><state>Washington</state><fips>035</fips><incits>53035</incits><id>US.WA.035</id><population>253968</population></desc></path><path d="M12.1451104101,296.451104101 L105.993690852,296.451104101 L166.719242902,297.555205047 L166.719242902,279.889589905 L163.406940063,260.015772871 L192.113564669,274.369085174 L196.529968454,288.722397476 L197.634069401,296.451104101 L187.697160883,303.075709779 L183.280757098,313.012618297 L166.719242902,320.741324921 L118.138801262,320.741324921 L118.138801262,328.470031546 L69.5583596215,328.470031546 L36.4353312303,327.365930599 L27.6025236593,308.596214511 L12.1451104101,296.451104101 Z" fill="#cee3f5" id="US.WA.031" stroke="#6e6e6e" stroke-width="0.4"><desc><name>Jefferson County</name><stateAbbrev>WA</stateAbbrev><state>Washington</state><fips>031</fips><incits>53031</incits><id>US.WA.031</id><population>30076</population></desc></path><path d="M352.208201893,197.082018927 L363.249211356,210.331230284 L367.665615142,224.684542587 L361.041009464,227.996845426 L347.791798107,229.100946372 L188.80126183,229.100946372 L181.072555205,219.164037855 L161.19873817,212.539432177 L133.596214511,197.082018927 L271.608832808,197.082018927 L352.208201893,197.082018927 Z" fill="#cee3f5" id="US.WA.073" stroke="#6e6e6e" stroke-width="0.4"><desc><name>Whatcom County</name><stateAbbrev>WA</stateAbbrev><state>Washington</state><fips>073</fips><incits>53073</incits><id>US.WA.073</id><population>206353</population></desc></path><path d="M188.80126183,229.100946372 L347.791798107,229.100946372 L361.041009464,227.996845426 L365.457413249,239.03785489 L353.312302839,236.829652997 L335.646687697,242.350157729 L338.958990536,260.015772871 L213.09148265,260.015772871 L198.738170347,248.974763407 L185.488958991,250.078864353 L183.280757098,231.309148265 L188.80126183,229.100946372 Z" fill="#cee3f5" id="US.WA.057" stroke="#6e6e6e" stroke-width="0.4"><desc><name>Skagit County</name><stateAbbrev>WA</stateAbbrev><state>Washington</state><fips>057</fips><incits>53057</incits><id>US.WA.057</id><population>118837</population></desc></path><path d="M211.987381703,305.283911672 L211.987381703,301.971608833 L220.820189274,292.034700315 L217.507886435,264.432176656 L213.09148265,260.015772871 L338.958990536,260.015772871 L344.479495268,275.47318612 L326.813880126,282.097791798 L323.501577287,294.242902208 L329.022082019,305.283911672 L211.987381703,305.283911672 Z" fill="#cee3f5" id="US.WA.061" stroke="#6e6e6e" stroke-width="0.4"><desc><name>Snohomish County</name><stateAbbrev>WA</stateAbbrev><state>Washington</state><fips>061</fips><incits>53061</incits><id>US.WA.061</id><population>745913</population></desc></path><path d="M140.220820189,261.119873817 L163.406940063,260.015772871 L166.719242902,279.889589905 L166.719242902,297.555205047 L105.993690852,296.451104101 L12.1451104101,296.451104101 L4.41640378549,287.61829653 L6.62460567823,276.577287066 L0.0,269.952681388 L8.83280757098,257.807570978 L2.20820189274,251.1829653 L9.93690851735,242.350157729 L72.8706624606,260.015772871 L114.826498423,265.536277603 L140.220820189,261.119873817 Z" fill="#cee3f5" id="US.WA.009" stroke="#6e6e6e" stroke-width="0.4"><desc><name>Clallam County</name><stateAbbrev>WA</stateAbbrev><state>Washington</state><fips>009</fips><incits>53009</incits><id>US.WA.009</id><population>72312</population></desc></path><path d="M161.19873817,212.539432177 L181.072555205,219.164037855 L188.80126183,229.100946372 L183.280757098,231.309148265 L185.488958991,250.078864353 L163.406940063,260.015772871 L140.220820189,261.119873817 L152.365930599,247.870662461 L143.533123028,236.829652997 L139.116719243,224.684542587 L161.19873817,218.059936909 L161.19873817,212.539432177 Z" fill="#cee3f5" id="US.WA.055" stroke="#6e6e6e" stroke-width="0.4"><desc><name>San Juan County</name><stateAbbrev>WA</stateAbbrev><state>Washington</state><fips>055</fips><incits>53055</incits><id>US.WA.055</id><population>15875</population></desc></path><path d="M163.406940063,260.015772871 L185.488958991,250.078864353 L198.738170347,248.974763407 L213.09148265,260.015772871 L217.507886435,264.432176656 L220.820189274,292.034700315 L211.987381703,301.971608833 L207.570977918,293.138801262 L196.529968454,288.722397476 L192.113564669,274.369085174 L163.406940063,260.015772871 Z" fill="#cee3f5" id="US.WA.029" stroke="#6e6e6e" stroke-width="0.4"><desc><name>Island County</name><stateAbbrev>WA</stateAbbrev><state>Washington</state><fips>029</fips><incits>53029</incits><id>US.WA.029</id><population>78801</population></desc></path></svg>