<?xml version="1.0" encoding="utf-8"?>
<!-- Generator: Adobe Illustrator 17.1.0, SVG Export Plug-In . SVG Version: 6.00 Build 0)  -->
<!DOCTYPE svg PUBLIC "-//W3C//DTD SVG 1.1//EN" "http://www.w3.org/Graphics/SVG/1.1/DTD/svg11.dtd">
<svg version="1.1" id="Layer_1" xmlns="http://www.w3.org/2000/svg" xmlns:xlink="http://www.w3.org/1999/xlink" x="0px" y="0px"
	 viewBox="0 0 900 900" enable-background="new 0 0 900 900" xml:space="preserve">
<g>
	<g>
		<g>
			<g>
				<polygon fill="none" stroke="#2BB673" stroke-width="5" stroke-miterlimit="10" points="35.3,170.8 857.3,170.8 857.3,713 
					36.7,713 				"/>
				<line fill="none" stroke="#2BB673" stroke-width="5" stroke-miterlimit="10" x1="370.2" y1="161.5" x2="370.2" y2="180.1"/>
			</g>
			<line fill="none" stroke="#2BB673" stroke-width="5" stroke-miterlimit="10" x1="319" y1="161" x2="319" y2="179.7"/>
		</g>
		<line fill="none" stroke="#2BB673" stroke-width="5" stroke-miterlimit="10" x1="746.2" y1="161.6" x2="746.2" y2="180.3"/>
		<line fill="none" stroke="#2BB673" stroke-width="5" stroke-miterlimit="10" x1="800.2" y1="162.8" x2="800.2" y2="181.5"/>
	</g>
	<line fill="none" stroke="#2BB673" stroke-width="5" stroke-miterlimit="10" x1="866.8" y1="323.2" x2="847.2" y2="323.2"/>
	<line fill="none" stroke="#2BB673" stroke-width="5" stroke-miterlimit="10" x1="866.8" y1="400.2" x2="847.2" y2="400.2"/>
</g>
<rect x="748.7" y="165.1" fill="#FFFFFF" width="49" height="13"/>
<rect x="321.7" y="164.2" fill="#FFFFFF" width="46" height="13"/>
<polygon fill="#FFFFFF" points="850.3,397.7 850.7,325.6 863.7,325.6 863.3,397.7 "/>
<g id="nike">
	<rect id="nike1" class="nike" x="407.1" y="629.9" fill="#7FD2EB" width="169.4" height="76.5"/>
	<path id="nike2" class="nike-logo" fill="#606061" d="M468.9,678.6c-1.7-0.1-3.2-0.5-4.3-1.4c-0.2-0.2-0.7-0.7-0.9-0.9c-0.5-0.6-0.8-1.1-1-1.7
		c-0.6-1.9-0.3-4.4,0.9-7.1c1.1-2.3,2.7-4.7,5.6-7.9c0.4-0.5,1.7-1.9,1.7-1.9s-0.1,0.1-0.2,0.3c-0.7,1.2-1.4,2.7-1.7,4
		c-0.6,2-0.5,3.8,0.2,5.1c0.5,0.9,1.3,1.7,2.2,2.2c1.6,0.8,3.9,0.8,6.8,0.2c0.2,0,9.9-2.6,21.6-5.7c11.7-3.1,21.3-5.7,21.3-5.7
		s-27.2,11.6-41.3,17.7c-2.2,1-2.8,1.2-3.9,1.6C473.2,678.3,470.8,678.7,468.9,678.6z"/>
	<line id="nike3" fill="none" stroke="#A7A9AC" stroke-width="2" stroke-miterlimit="10" x1="455.5" y1="621.7" x2="455.5" y2="630.7"/>
	<line id="nike4" fill="none" stroke="#A7A9AC" stroke-width="2" stroke-miterlimit="10" x1="420.5" y1="620.9" x2="420.5" y2="629.9"/>
	<polygon id="nike5" class="nike" fill="#7FD2EC" points="44.5,262.6 389.1,262.6 389.1,561.9 276.5,561.9 276.5,447.2 43.8,447.2 	"/>
	<path id="nike6" class="nike-logo" fill="#606061" d="M169.7,394c-3.6-0.1-6.5-1.1-8.8-2.9c-0.4-0.3-1.5-1.4-1.8-1.8c-0.9-1.2-1.6-2.3-2-3.6
		c-1.3-3.9-0.6-9,1.9-14.5c2.2-4.8,5.5-9.5,11.4-16.1c0.9-1,3.4-3.8,3.4-3.8s-0.1,0.2-0.3,0.5c-1.5,2.5-2.8,5.5-3.5,8.1
		c-1.1,4.2-1,7.7,0.4,10.5c1,1.9,2.6,3.6,4.5,4.5c3.3,1.6,8,1.7,13.9,0.4c0.4-0.1,20.3-5.4,44.2-11.7c23.9-6.4,43.5-11.6,43.5-11.6
		s-55.6,23.8-84.4,36.1c-4.6,2-5.8,2.4-7.9,3.2C178.6,393.3,173.7,394.2,169.7,394z"/>
	<line id="nike7" fill="none" stroke="#A7A9AC" stroke-width="2" stroke-miterlimit="10" x1="314.3" y1="562.2" x2="314.3" y2="571.2"/>
	<line id="nike8" fill="none" stroke="#A7A9AC" stroke-width="2" stroke-miterlimit="10" x1="353.5" y1="562.2" x2="353.5" y2="571.2"/>
	<line id="nike9" fill="none" stroke="#A7A9AC" stroke-width="2" stroke-miterlimit="10" x1="162.5" y1="253.6" x2="162.5" y2="262.6"/>
	<line id="nike10" fill="none" stroke="#A7A9AC" stroke-width="2" stroke-miterlimit="10" x1="255" y1="253.6" x2="255" y2="262.6"/>
	<line id="nike11" fill="none" stroke="#A7A9AC" stroke-width="2" stroke-miterlimit="10" x1="397.1" y1="372.7" x2="388.1" y2="372.7"/>
	<line id="nike12" fill="none" stroke="#A7A9AC" stroke-width="2" stroke-miterlimit="10" x1="398.1" y1="408.5" x2="389.1" y2="408.5"/>
	<desc>
		<workingTime>9AM-8PM</workingTime>
		<workingTime24Format>9-20</workingTime24Format>
	</desc>
</g>
<g id="puma">
	<g>
		<rect class="puma" x="455.5" y="262.6" fill="#F2CB75" width="292.4" height="302"/>
		<line fill="none" stroke="#A7A9AC" stroke-width="2" stroke-miterlimit="10" x1="581.4" y1="253.6" x2="581.4" y2="262.6"/>
		<line fill="none" stroke="#A7A9AC" stroke-width="2" stroke-miterlimit="10" x1="483.6" y1="253.6" x2="483.6" y2="262.6"/>
		<line fill="none" stroke="#A7A9AC" stroke-width="2" stroke-miterlimit="10" x1="455.5" y1="552.2" x2="446.5" y2="552.2"/>
		<line fill="none" stroke="#A7A9AC" stroke-width="2" stroke-miterlimit="10" x1="455.5" y1="513" x2="446.5" y2="513"/>
		<line fill="none" stroke="#A7A9AC" stroke-width="2" stroke-miterlimit="10" x1="757" y1="323" x2="748" y2="323"/>
		<line fill="none" stroke="#A7A9AC" stroke-width="2" stroke-miterlimit="10" x1="757" y1="378" x2="748" y2="378"/>
	</g>
	<g transform="translate(16.881069,-191.51353)">
		<g transform="translate(35.433049,35.493394)">
			<path class="puma-logo" fill="#606061" d="M556.2,533.8c-0.4,0.1-0.8,1.6-1.6,2.3c-0.6,0.6-1.3,0.5-1.7,1.2c-0.1,0.3-0.1,0.7-0.3,1.1
				c-0.3,0.9-1.5,0.9-1.5,1.9s0.9,1.2,1.8,1.9c0.6,0.6,0.7,1,1.5,1.2c0.7,0.2,1.6-0.5,2.5-0.2c0.7,0.2,1.4,0.4,1.6,1.1
				c0.1,0.7,0,1.8-0.9,1.6c-0.3,0-1.6-0.5-3.2-0.3c-1.9,0.2-4.1,0.8-4.3,3c-0.1,1.2,1.4,2.6,2.8,2.3c1-0.2,0.5-1.4,1.1-1.9
				c0.7-0.7,4.7,2.5,8.4,2.5c1.6,0,2.7-0.4,3.9-1.6c0.1-0.1,0.2-0.3,0.4-0.3s0.4,0.2,0.5,0.2c3,2.4,5.2,7.2,16.2,7.2
				c1.5,0,3.3,0.7,4.7,2c1.3,1.2,2,3,2.8,4.9c1.1,2.8,3.1,5.5,6,8.5c0.2,0.2,2.6,2.1,2.8,2.2c0,0,0.2,0.4,0.1,0.7
				c-0.1,1.8-0.3,7.1,3.6,7.3c1,0,0.7-0.6,0.7-1.1c0-0.9-0.2-1.8,0.3-2.8c0.7-1.3-1.4-1.9-1.3-4.7c0-2.1-1.7-1.7-2.6-3.3
				c-0.5-0.9-1-1.4-0.9-2.5c0.2-6.3-1.4-10.5-2.1-11.5c-0.6-0.8-1.1-1.1-0.6-1.4c3.3-2.2,4-4.2,4-4.2c1.7-4.1,3.3-7.8,5.5-9.5
				c0.4-0.3,1.6-1.2,2.2-1.5c2-1,3.1-1.5,3.7-2.1c0.9-0.9,1.7-2.8,0.8-3.9c-1.1-1.4-3-0.3-3.9,0.2c-6,3.6-6.9,9.9-9,13.5
				c-1.7,2.9-4.4,5-6.8,5.2c-1.8,0.1-3.8-0.2-5.7-1.1c-4.8-2.1-7.4-4.8-8-5.2c-1.3-1-11.2-10.7-19.2-11.1c0,0-1-2-1.2-2
				c-0.6-0.1-1.2,1.2-1.6,1.3C557.3,535.2,556.6,533.7,556.2,533.8"/>
			<path class="puma-logo" fill="#606061" d="M520.9,591.7c-0.8,0-1.4-0.6-1.4-1.4v-25h-8.3v27.5c0,1.3,1.1,2.4,2.4,2.4H528c1.4,0,2.4-1.1,2.4-2.4
				v-27.5h-8.2v25C522.3,591.1,521.6,591.7,520.9,591.7"/>
			<path class="puma-logo" fill="#606061" d="M548.5,565.3H536c-1.5,0-2.7,1.2-2.7,2.7v27.3h8.3v-25c0-0.8,0.6-1.4,1.4-1.4c0.8,0,1.4,0.6,1.4,1.4v25.1
				h8.2v-25.1c0-0.8,0.6-1.4,1.4-1.4c0.8,0,1.4,0.6,1.4,1.4v25h8.3V568c0-1.5-1.2-2.7-2.7-2.7H548.5"/>
			<path class="puma-logo" fill="#606061" d="M500.2,570.3c0-0.8-0.7-1.4-1.4-1.4h-1.4v15.2h1.4c0.7,0,1.4-0.6,1.4-1.4V570.3z M505.7,587.8h-8.3v7.5
				h-8.3v-30h16.6c1.5,0,2.7,1.2,2.7,2.7v17C508.4,586.6,507.2,587.8,505.7,587.8"/>
			<path class="puma-logo" fill="#606061" d="M592,588.6c-1.7,0-3.1,1.4-3.1,3.2c0,1.7,1.4,3.2,3.1,3.2c1.7,0,3.1-1.4,3.1-3.2S593.8,588.6,592,588.6
				L592,588.6z M595.7,591.8c0,2-1.6,3.7-3.7,3.7c-2,0-3.7-1.6-3.7-3.7c0-2,1.6-3.7,3.6-3.7C594.1,588.1,595.7,589.7,595.7,591.8"/>
			<path class="puma-logo" fill="#606061" d="M591.7,591.5c0.6,0,0.9-0.2,0.9-0.6c0-0.4-0.3-0.5-0.8-0.5h-0.2v1.2h0.1V591.5z M593.8,593.9h-1l-1.3-1.7
				v1.7h-0.8v-4.2h0.8c1.1,0,1.8,0.4,1.8,1.3c0,0.6-0.4,1-0.9,1.2h-0.1L593.8,593.9"/>
			<path class="puma-logo" fill="#606061" d="M577.5,584.1v-13.8c0-0.8-0.6-1.3-1.4-1.3c-0.8,0-1.4,0.6-1.4,1.4v13.8h2.8V584.1z M577.5,595.3v-7.5
				h-2.8v7.5h-8.2V568c0-1.5,1.2-2.7,2.7-2.7h13.9c1.5,0,2.7,1.2,2.7,2.7v27.3H577.5"/>
		</g>
	</g>
	<desc>
		<workingTime>10AM-9PM</workingTime>
		<workingTime24Format>10-21</workingTime24Format>
	</desc>
</g>
<g id="adidas">
	<g>
		<polygon id="adidas2" class="adidas" fill="#6FC175" points="43.5,451.9 268.8,451.9 268.8,629.2 397.5,629.2 397.5,705.3 43.5,705.3 		"/>
		<line id="adidas3" fill="none" stroke="#A7A9AC" stroke-width="2" stroke-miterlimit="10" x1="298.7" y1="619.8" x2="298.7" y2="628.8"/>
		<line id="adidas4" fill="none" stroke="#A7A9AC" stroke-width="2" stroke-miterlimit="10" x1="354.9" y1="619.8" x2="354.9" y2="628.8"/>
	</g>
	<g>
		<g id="XMLID_1_">
			<g id="adidas1">
				<path class="adidas-logo" fill="#606061" d="M218.8,609.5h-3.7h-1.9c-0.2-0.9-0.4-1.6-0.8-2c-0.6-0.6-1.6-0.9-3-0.9s-2.4,0.2-2.9,0.7
					c-0.4,0.3-0.6,0.8-0.6,1.4c0,0.9,1.2,1.5,3.5,2.1c2.7,0.6,4.6,1.1,5.8,1.5c0.3,0.1,0.6,0.2,0.8,0.3c2.4,1.1,3.6,2.8,3.6,5.1
					c0,2.8-1.2,4.8-3.5,6.1c-0.3,0.2-0.6,0.3-0.9,0.4c-1.5,0.6-3.2,1-5.2,1c-2.9,0-5.3-0.5-7.1-1.6c-1.1-0.7-2-1.5-2.5-2.5
					c-0.6-1-0.8-2.2-0.8-3.5h5.9c0,1,0.4,1.8,1.1,2.3c0.7,0.6,1.9,0.9,3.7,0.9c1.3,0,2.3-0.3,2.9-0.8c0.5-0.4,0.7-0.9,0.7-1.4
					c0-0.9-1.2-1.6-3.5-2.1c-3.5-0.7-5.6-1.3-6.5-1.8c-2.4-1.1-3.5-2.8-3.5-5.2c0-1.9,0.6-3.5,1.8-4.8c1.6-1.7,3.9-2.5,7-2.5
					c2.5,0,4.6,0.4,6.1,1.1c0.1,0.1,0.3,0.1,0.4,0.2c1.1,0.6,1.9,1.4,2.5,2.4C218.5,607,218.8,608.2,218.8,609.5z"/>
				<path class="adidas-logo"  fill="#606061" d="M215.8,595.8c0-0.1,0-0.2-0.1-0.3s-0.1-0.2-0.3-0.2c-0.1,0-0.2,0-0.4-0.1h-0.2h-0.7v1.1h0.7
					c0.1,0,0.1,0,0.2,0c0.3,0,0.4-0.1,0.5-0.2C215.7,596.1,215.8,595.9,215.8,595.8z M216.3,595.2c0.1,0.2,0.2,0.3,0.2,0.5
					c0,0.3-0.1,0.5-0.3,0.7s-0.4,0.3-0.8,0.3c0.1,0.1,0.2,0.1,0.3,0.2l0.5,0.7l0.4,0.7H216l-0.3-0.6c-0.2-0.4-0.4-0.6-0.5-0.8
					c0,0,0,0-0.1-0.1l-0.5-0.1h-0.3v1.6h-0.6v-3.6h1.3c0.1,0,0.2,0,0.2,0c0.3,0,0.5,0,0.7,0.1C216,594.9,216.1,595,216.3,595.2z"/>
				<path class="adidas-logo"  fill="#606061" d="M217.9,596.5c0-0.5-0.1-1-0.4-1.4c-0.3-0.4-0.6-0.8-1-1s-0.9-0.4-1.4-0.4l0,0c-0.5,0-0.9,0.1-1.4,0.4
					c-0.4,0.3-0.8,0.6-1.1,1s-0.4,0.9-0.4,1.4s0.1,0.9,0.4,1.4c0.2,0.4,0.6,0.8,1,1c0.4,0.3,0.9,0.4,1.4,0.4l0,0
					c0.5,0,1-0.1,1.4-0.4c0.4-0.3,0.8-0.6,1-1C217.8,597.5,217.9,597,217.9,596.5z M218.5,596.5c0,0.6-0.1,1.1-0.4,1.7
					c-0.3,0.5-0.7,1-1.2,1.2c-0.5,0.3-1.1,0.4-1.7,0.4l0,0c-0.6,0-1.1-0.1-1.7-0.4c-0.5-0.3-1-0.7-1.2-1.2c-0.3-0.5-0.4-1.1-0.4-1.7
					c0-0.6,0.1-1.2,0.4-1.7c0.3-0.5,0.7-0.9,1.3-1.2c0.5-0.3,1.1-0.4,1.7-0.4l0,0c0.6,0,1.1,0.2,1.7,0.4c0.5,0.3,1,0.7,1.3,1.2
					C218.3,595.4,218.5,595.9,218.5,596.5z"/>
				<polygon class="adidas-logo"  fill="#606061" points="185.4,569.1 201.4,595.7 185.4,595.7 175.8,595.7 160.6,570.3 149,551.1 160.6,544.2
					167.8,539.8 				"/>
				<path class="adidas-logo"  fill="#606061" d="M197,614.1V625h-5.3v-1.2c-1.8,1.2-3.9,1.8-6.2,1.8c0,0,0,0-0.1,0c-6.3,0-11.5-5.2-11.5-11.5
					s5.1-11.5,11.5-11.5c0,0,0,0,0.1,0c2.3,0,4.4,0.7,6.2,1.8v-1.3h5.3V614.1z M191.7,615.3v-2.4c-0.6-2.9-3.1-5.1-6.2-5.1
					c0,0,0,0-0.1,0c-3.5,0-6.3,2.9-6.3,6.3c0,3.5,2.8,6.3,6.3,6.3c0,0,0,0,0.1,0C188.6,620.4,191.2,618.2,191.7,615.3z"/>
				<path class="adidas-logo"  fill="#606061" d="M172.1,614.1V625h-5.3v-1.2c-1.8,1.2-3.9,1.8-6.2,1.8c0,0,0,0-0.1,0c-6.3,0-11.5-5.2-11.5-11.5
					s5.1-11.5,11.5-11.5c0,0,0,0,0.1,0c2.3,0,4.4,0.7,6.2,1.8v-8.8h5.3V614.1z M166.8,615.3v-2.4c-0.6-2.9-3.1-5.1-6.2-5.1
					c0,0,0,0-0.1,0c-3.5,0-6.3,2.9-6.3,6.3c0,3.5,2.8,6.3,6.3,6.3c0,0,0,0,0.1,0C163.7,620.4,166.3,618.2,166.8,615.3z"/>
				<polygon class="adidas-logo"  fill="#606061" points="160.6,585.2 166.8,595.7 160.6,595.7 141.2,595.7 127,572 126.4,571 127,570.6 145.2,559.7
					"/>
				<rect class="adidas-logo"  x="141.2" y="602.6" fill="#606061" width="5.8" height="22.4"/>
				<rect class="adidas-logo"  x="141.2" y="595.8" fill="#606061" width="5.8" height="5.1"/>
				<path class="adidas-logo"  fill="#606061" d="M138.6,614.1V625h-5.3v-1.2c-1.8,1.2-3.9,1.8-6.2,1.8c0,0,0,0-0.1,0c-6.3,0-11.5-5.2-11.5-11.5
					s5.1-11.5,11.5-11.5c0,0,0,0,0.1,0c2.3,0,4.4,0.7,6.2,1.8v-8.8h5.3V614.1z M133.3,615.3v-2.4c-0.6-2.9-3.1-5.1-6.2-5.1
					c0,0,0,0-0.1,0c-3.5,0-6.3,2.9-6.3,6.3c0,3.5,2.8,6.3,6.3,6.3c0,0,0,0,0.1,0C130.2,620.4,132.7,618.2,133.3,615.3z"/>
				<polygon class="adidas-logo"  fill="#606061" points="127,586.9 132.3,595.7 127,595.7 106.7,595.7 103.8,590.9 122.6,579.6 				"/>
				<path class="adidas-logo"  fill="#606061" d="M113.5,614.1V625h-5.3v-1.2c-1.8,1.2-3.9,1.8-6.2,1.8c0,0,0,0-0.1,0c-6.3,0-11.5-5.2-11.5-11.5
					s5.1-11.5,11.5-11.5c0,0,0,0,0.1,0c2.3,0,4.4,0.7,6.2,1.8v-1.3h5.3V614.1z M108.2,615.3v-2.4c-0.6-2.9-3.1-5.1-6.2-5.1
					c0,0,0,0-0.1,0c-3.5,0-6.3,2.9-6.3,6.3c0,3.5,2.8,6.3,6.3,6.3c0,0,0,0,0.1,0C105,620.4,107.6,618.2,108.2,615.3z"/>
			</g>
		</g>
	</g>
	<desc>
		<workingTime>12AM-9PM</workingTime>
		<workingTime24Format>12-21</workingTime24Format>
	</desc>
</g>
<g id="reebok">
	<g id="Layer_3">
		<rect class="reebok" x="585.6" y="629.9" fill="#BC8BBF" width="254.3" height="76.5"/>
		<line fill="none" stroke="#A7A9AC" stroke-width="2" stroke-miterlimit="10" x1="610" y1="621.7" x2="610" y2="630.7"/>
		<line fill="none" stroke="#A7A9AC" stroke-width="2" stroke-miterlimit="10" x1="653" y1="620.9" x2="653" y2="629.9"/>
	</g>
	<g id="Layer_2">
		<g>
			<path class="reebok-logo" fill="#606061" d="M749.7,668.8c0,0,5.7-6.4,6-6.8c0.3,0,4.7,0,4.7,0l-6.9,7.8l7.2,8H756l-6.3-7v7h-3.8v-19.6h3.8V668.8z"/>
			<path class="reebok-logo" fill="#606061" d="M743.9,668.4v3.4c0,4-2.8,6.3-6.6,6.4c-0.2,0-0.6,0-0.8,0c-3.9-0.1-6.6-2.4-6.6-6.4v-3.4
				c0-4,2.8-6.3,6.7-6.4c0.2,0,0.6,0,0.8,0C741.1,662.1,743.9,664.4,743.9,668.4 M736.6,665.3c-1.5,0.1-3,0.9-3,3.1v3.5
				c0,2.1,1.4,2.9,3,3c0.1,0,0.5,0,0.5,0c1.5-0.1,3-0.9,3-3v-3.5c0-2.2-1.5-3-3-3.1C736.9,665.3,736.8,665.3,736.6,665.3"/>
			<path class="reebok-logo" fill="#606061" d="M721.3,662c-1.8,0-3,0.5-3.6,1v-4.9h-3.8v19.6h0.7c0,0,1.7-0.9,1.8-1c0.2,0.3,1.9,1.5,4.2,1.5
				c0.3,0,0.5,0,0.8,0c3.8-0.1,6.6-2.5,6.6-6.4v-3.4C727.9,664.5,725.1,662,721.3,662 M724.1,671.9c0,2.1-1.5,3-3,3.1
				c-0.1,0-0.5,0-0.5,0c-1.5-0.1-3-0.9-3-3.1v-3.5c0-2.2,1.5-3,3-3.1c0.2,0,0.3,0,0.5,0c1.5,0.1,3,0.9,3,3.1V671.9z"/>
			<path class="reebok-logo" fill="#606061" d="M711.8,671.1v-2.8c0-4-2.8-6.3-6.7-6.4h-0.7c-3.9,0.1-6.6,2.4-6.6,6.4v3.4c0,3.8,2.9,6.2,6.6,6.4
				c0.4,0,0.6,0,0.9,0c4.6,0,6.3-2.4,6.6-5h-3.5c-0.1,0.5-0.3,1.8-3.2,1.8c-0.5,0-1.2-0.1-1.7-0.3c-2.2-0.7-1.8-3.4-1.8-3.5
				L711.8,671.1L711.8,671.1z M701.5,668.1c0-2.1,1.4-2.9,3-3c0.2,0,0.4,0,0.5,0c1.7,0.1,3,0.9,3,3c0,0.1,0,0.2,0,0.3h-6.6
				C701.5,668.3,701.5,668.2,701.5,668.1"/>
			<path class="reebok-logo" fill="#606061" d="M695.8,671.1v-2.8c0-4-2.8-6.3-6.7-6.4h-0.7c-3.9,0.1-6.7,2.4-6.7,6.4v3.4c0,3.8,2.9,6.2,6.6,6.4
				c0.4,0,0.6,0,0.9,0c4.6,0,6.3-2.4,6.6-5h-3.5c-0.1,0.5-0.3,1.8-3.2,1.8c-0.5,0-1.2-0.1-1.7-0.3c-2.2-0.7-1.8-3.4-1.8-3.5
				L695.8,671.1L695.8,671.1z M685.5,668.1c0-2.1,1.4-2.9,3-3c0.2,0,0.4,0,0.5,0c1.7,0.1,3,0.9,3,3c0,0.1,0,0.2,0,0.3h-6.6
				C685.5,668.3,685.5,668.2,685.5,668.1"/>
			<path class="reebok-logo" fill="#606061" d="M681.3,677.7l-7.3-8.1c0.4,0,0.7,0,1.1,0c2.5,0,5.6-1.6,5.6-5.6c0-4.8-4-6-7.5-6h-8.5v19.6h3.8v-8.8
				l7.9,8.8L681.3,677.7L681.3,677.7z M668.5,661.5c0,0,2.5,0,4.6,0s4,0.7,4,2.7s-1.2,2.8-4,2.8s-4.6,0-4.6,0V661.5z"/>
		</g>
	</g>
	<desc>
		<workingTime>8AM-4PM</workingTime>
		<workingTime24Format>8-16</workingTime24Format>
	</desc>
</g>
<g id="wc">
	<g>
		<rect x="802.4" y="473.6" fill="none" stroke="#A7A9AC" stroke-width="2" stroke-miterlimit="10" width="47.5" height="91"/>
		<text transform="matrix(1 0 0 1 816.6668 523.6056)" fill="#6E6266" font-family="'ArialMT'" font-size="12">WC</text>
	</g>
	<g>
		<rect x="43.8" y="181" fill="none" stroke="#939598" stroke-width="2" stroke-miterlimit="10" width="47.5" height="75"/>
		<text transform="matrix(1 0 0 1 58.6668 225.6056)" fill="#6E6266" font-family="'ArialMT'" font-size="12">WC</text>
	</g>
</g>
</svg>
