<?xml version='1.0' encoding='utf-8'?>
<svg height="700" width="700" xmlns="http://www.w3.org/2000/svg"><path d="M315.189873418,450.632911392 L343.037974684,459.493670886 L369.620253165,468.35443038 L373.417721519,455.696202532 L389.873417722,453.164556962 L402.53164557,449.367088608 L407.594936709,439.240506329 L418.987341772,453.164556962 L425.316455696,456.962025316 L431.64556962,453.164556962 L455.696202532,460.759493671 L459.493670886,459.493670886 L458.227848101,468.35443038 L467.088607595,470.886075949 L470.886075949,482.278481013 L446.835443038,487.341772152 L444.303797468,492.405063291 L421.518987342,494.936708861 L412.658227848,500.0 L386.075949367,510.126582278 L372.151898734,518.987341772 L358.227848101,522.784810127 L332.911392405,539.240506329 L322.784810127,553.164556962 L315.189873418,558.227848101 L289.873417722,560.759493671 L279.746835443,567.088607595 L289.873417722,569.620253165 L284.810126582,575.949367089 L274.683544304,574.683544304 L268.35443038,579.746835443 L251.898734177,579.746835443 L243.037974684,583.544303797 L237.974683544,589.873417722 L231.64556962,589.873417722 L226.582278481,570.886075949 L232.911392405,565.82278481 L251.898734177,564.556962025 L255.696202532,555.696202532 L264.556962025,559.493670886 L287.341772152,550.632911392 L279.746835443,541.772151899 L292.405063291,530.379746835 L288.607594937,525.316455696 L274.683544304,529.113924051 L264.556962025,521.518987342 L258.227848101,525.316455696 L245.569620253,524.050632911 L245.569620253,515.189873418 L254.430379747,511.392405063 L259.493670886,511.392405063 L270.886075949,508.860759494 L275.949367089,506.329113924 L270.886075949,494.936708861 L264.556962025,487.341772152 L272.151898734,474.683544304 L279.746835443,474.683544304 L306.329113924,462.025316456 L315.189873418,450.632911392 M240.506329114,508.860759494 L244.303797468,502.53164557 L258.227848101,501.265822785 L268.35443038,496.202531646 L272.151898734,503.797468354 L259.493670886,511.392405063 L253.164556962,510.126582278 L248.101265823,512.658227848 L240.506329114,508.860759494 Z" fill="#cee3f5" id="CN.liaoning.2764565" stroke="#6e6e6e" stroke-width="0.4"><desc><name>Dalian City</name><admin_leve>5</admin_leve><wikipedia>zh:大连市</wikipedia><localname>大连市 / Liaoyuan</localname><boundary>administrative</boundary><id>CN.liaoning.2764565</id></desc></path><path d="M459.493670886,459.493670886 L465.82278481,454.430379747 L474.683544304,450.632911392 L479.746835443,445.569620253 L477.215189873,436.708860759 L488.607594937,431.64556962 L494.936708861,420.253164557 L492.405063291,396.202531646 L473.417721519,388.607594937 L477.215189873,382.278481013 L472.151898734,378.481012658 L477.215189873,374.683544304 L489.873417722,378.481012658 L502.53164557,374.683544304 L511.392405063,378.481012658 L517.721518987,373.417721519 L532.911392405,375.949367089 L532.911392405,364.556962025 L529.113924051,356.962025316 L562.025316456,353.164556962 L570.886075949,355.696202532 L574.683544304,350.632911392 L586.075949367,350.632911392 L592.405063291,345.569620253 L611.392405063,348.101265823 L625.316455696,349.367088608 L630.379746835,351.898734177 L643.037974684,349.367088608 L650.632911392,353.164556962 L655.696202532,360.759493671 L665.82278481,363.291139241 L672.151898734,369.620253165 L678.481012658,368.35443038 L686.075949367,369.620253165 L691.139240506,374.683544304 L683.544303797,381.012658228 L662.025316456,393.670886076 L639.240506329,400.0 L621.518987342,408.860759494 L624.050632911,411.392405063 L596.202531646,422.784810127 L591.139240506,429.113924051 L582.278481013,432.911392405 L570.886075949,439.240506329 L555.696202532,453.164556962 L556.962025316,459.493670886 L541.772151899,470.886075949 L541.772151899,475.949367089 L532.911392405,483.544303797 L529.113924051,478.481012658 L520.253164557,481.012658228 L502.53164557,477.215189873 L481.012658228,483.544303797 L470.886075949,482.278481013 L467.088607595,470.886075949 L458.227848101,468.35443038 L459.493670886,459.493670886 Z" fill="#cee3f5" id="CN.liaoning.2764861" stroke="#6e6e6e" stroke-width="0.4"><desc><name>Dandong City</name><admin_leve>5</admin_leve><wikipedia>zh:丹东市</wikipedia><localname>丹东市 / Dandong</localname><boundary>administrative</boundary><id>CN.liaoning.2764861</id></desc></path><path d="M477.215189873,374.683544304 L483.544303797,365.82278481 L484.810126582,346.835443038 L478.481012658,336.708860759 L486.075949367,334.17721519 L483.544303797,315.189873418 L477.215189873,311.392405063 L484.810126582,307.594936709 L493.670886076,307.594936709 L503.797468354,308.860759494 L506.329113924,303.797468354 L517.721518987,305.063291139 L531.64556962,310.126582278 L543.037974684,305.063291139 L549.367088608,306.329113924 L554.430379747,317.721518987 L562.025316456,329.113924051 L567.088607595,327.848101266 L579.746835443,334.17721519 L591.139240506,334.17721519 L606.329113924,327.848101266 L605.063291139,318.987341772 L615.189873418,308.860759494 L625.316455696,312.658227848 L632.911392405,310.126582278 L643.037974684,312.658227848 L653.164556962,311.392405063 L658.227848101,303.797468354 L665.82278481,302.53164557 L673.417721519,317.721518987 L684.810126582,326.582278481 L684.810126582,332.911392405 L696.202531646,336.708860759 L700.0,343.037974684 L691.139240506,350.632911392 L688.607594937,363.291139241 L678.481012658,368.35443038 L672.151898734,369.620253165 L665.82278481,363.291139241 L655.696202532,360.759493671 L650.632911392,353.164556962 L643.037974684,349.367088608 L630.379746835,351.898734177 L625.316455696,349.367088608 L611.392405063,348.101265823 L592.405063291,345.569620253 L586.075949367,350.632911392 L574.683544304,350.632911392 L570.886075949,355.696202532 L562.025316456,353.164556962 L529.113924051,356.962025316 L532.911392405,364.556962025 L532.911392405,375.949367089 L517.721518987,373.417721519 L511.392405063,378.481012658 L502.53164557,374.683544304 L489.873417722,378.481012658 L477.215189873,374.683544304 Z" fill="#cee3f5" id="CN.liaoning.2766193" stroke="#6e6e6e" stroke-width="0.4"><desc><name>Benxi City</name><admin_leve>5</admin_leve><wikipedia>zh:本溪市</wikipedia><localname>本溪市 / Benxi</localname><boundary>administrative</boundary><id>CN.liaoning.2766193</id></desc></path><path d="M498.734177215,260.759493671 L508.860759494,256.962025316 L522.784810127,258.227848101 L529.113924051,253.164556962 L545.569620253,253.164556962 L555.696202532,258.227848101 L572.151898734,251.898734177 L577.215189873,244.303797468 L570.886075949,236.708860759 L577.215189873,225.316455696 L588.607594937,229.113924051 L597.46835443,226.582278481 L600.0,218.987341772 L616.455696203,222.784810127 L630.379746835,211.392405063 L639.240506329,220.253164557 L636.708860759,225.316455696 L645.569620253,229.113924051 L651.898734177,241.772151899 L669.620253165,245.569620253 L655.696202532,259.493670886 L649.367088608,264.556962025 L649.367088608,275.949367089 L654.430379747,283.544303797 L653.164556962,291.139240506 L665.82278481,293.670886076 L665.82278481,302.53164557 L658.227848101,303.797468354 L653.164556962,311.392405063 L643.037974684,312.658227848 L632.911392405,310.126582278 L625.316455696,312.658227848 L615.189873418,308.860759494 L605.063291139,318.987341772 L606.329113924,327.848101266 L591.139240506,334.17721519 L579.746835443,334.17721519 L567.088607595,327.848101266 L562.025316456,329.113924051 L554.430379747,317.721518987 L549.367088608,306.329113924 L543.037974684,305.063291139 L531.64556962,310.126582278 L517.721518987,305.063291139 L506.329113924,303.797468354 L503.797468354,308.860759494 L493.670886076,307.594936709 L492.405063291,305.063291139 L500.0,291.139240506 L491.139240506,265.82278481 L498.734177215,260.759493671 Z" fill="#cee3f5" id="CN.liaoning.2766526" stroke="#6e6e6e" stroke-width="0.4"><desc><name>Fushun City</name><admin_leve>5</admin_leve><wikipedia>en:Fushun</wikipedia><localname>抚顺市 / Fushun</localname><boundary>administrative</boundary><id>CN.liaoning.2766526</id></desc></path><path d="M474.683544304,160.759493671 L478.481012658,158.227848101 L486.075949367,141.772151899 L486.075949367,132.911392405 L491.139240506,127.848101266 L489.873417722,117.721518987 L498.734177215,110.126582278 L505.063291139,118.987341772 L521.518987342,130.379746835 L531.64556962,134.17721519 L540.506329114,132.911392405 L548.101265823,137.974683544 L549.367088608,143.037974684 L562.025316456,151.898734177 L554.430379747,158.227848101 L562.025316456,162.025316456 L558.227848101,172.151898734 L573.417721519,172.151898734 L584.810126582,163.291139241 L588.607594937,153.164556962 L598.734177215,148.101265823 L608.860759494,146.835443038 L606.329113924,155.696202532 L605.063291139,173.417721519 L618.987341772,182.278481013 L621.518987342,197.46835443 L630.379746835,211.392405063 L616.455696203,222.784810127 L600.0,218.987341772 L597.46835443,226.582278481 L588.607594937,229.113924051 L577.215189873,225.316455696 L570.886075949,236.708860759 L577.215189873,244.303797468 L572.151898734,251.898734177 L555.696202532,258.227848101 L545.569620253,253.164556962 L529.113924051,253.164556962 L522.784810127,258.227848101 L508.860759494,256.962025316 L498.734177215,260.759493671 L489.873417722,251.898734177 L475.949367089,248.101265823 L467.088607595,234.17721519 L472.151898734,224.050632911 L465.82278481,221.518987342 L468.35443038,212.658227848 L494.936708861,206.329113924 L474.683544304,187.341772152 L479.746835443,182.278481013 L477.215189873,172.151898734 L479.746835443,167.088607595 L474.683544304,160.759493671 Z" fill="#cee3f5" id="CN.liaoning.2767515" stroke="#6e6e6e" stroke-width="0.4"><desc><name>Tieling City</name><admin_leve>5</admin_leve><wikipedia>zh:铁岭市</wikipedia><localname>铁岭市 / Tieling</localname><boundary>administrative</boundary><id>CN.liaoning.2767515</id></desc></path><path d="M360.759493671,246.835443038 L406.329113924,226.582278481 L400.0,211.392405063 L407.594936709,210.126582278 L415.189873418,201.265822785 L397.46835443,193.670886076 L402.53164557,187.341772152 L407.594936709,183.544303797 L425.316455696,182.278481013 L436.708860759,174.683544304 L436.708860759,167.088607595 L444.303797468,160.759493671 L467.088607595,155.696202532 L474.683544304,160.759493671 L479.746835443,167.088607595 L477.215189873,172.151898734 L479.746835443,182.278481013 L474.683544304,187.341772152 L494.936708861,206.329113924 L468.35443038,212.658227848 L465.82278481,221.518987342 L472.151898734,224.050632911 L467.088607595,234.17721519 L475.949367089,248.101265823 L489.873417722,251.898734177 L498.734177215,260.759493671 L491.139240506,265.82278481 L500.0,291.139240506 L492.405063291,305.063291139 L493.670886076,307.594936709 L484.810126582,307.594936709 L477.215189873,311.392405063 L464.556962025,315.189873418 L439.240506329,305.063291139 L430.379746835,303.797468354 L415.189873418,310.126582278 L402.53164557,322.784810127 L393.670886076,325.316455696 L379.746835443,340.506329114 L374.683544304,336.708860759 L384.810126582,325.316455696 L381.012658228,308.860759494 L367.088607595,303.797468354 L375.949367089,288.607594937 L369.620253165,277.215189873 L368.35443038,260.759493671 L360.759493671,246.835443038 Z" fill="#cee3f5" id="CN.liaoning.2769604" stroke="#6e6e6e" stroke-width="0.4"><desc><name>Shenyang City</name><admin_leve>5</admin_leve><wikipedia>zh:沈阳市</wikipedia><localname>沈阳市 / Shenyang</localname><boundary>administrative</boundary><id>CN.liaoning.2769604</id></desc></path><path d="M379.746835443,340.506329114 L393.670886076,325.316455696 L402.53164557,322.784810127 L415.189873418,310.126582278 L430.379746835,303.797468354 L439.240506329,305.063291139 L464.556962025,315.189873418 L477.215189873,311.392405063 L483.544303797,315.189873418 L486.075949367,334.17721519 L478.481012658,336.708860759 L484.810126582,346.835443038 L483.544303797,365.82278481 L477.215189873,374.683544304 L472.151898734,378.481012658 L450.632911392,383.544303797 L436.708860759,389.873417722 L429.113924051,387.341772152 L429.113924051,378.481012658 L424.050632911,373.417721519 L430.379746835,360.759493671 L439.240506329,360.759493671 L443.037974684,355.696202532 L434.17721519,350.632911392 L431.64556962,343.037974684 L411.392405063,340.506329114 L401.265822785,351.898734177 L378.481012658,343.037974684 L379.746835443,340.506329114 Z" fill="#cee3f5" id="CN.liaoning.2769643" stroke="#6e6e6e" stroke-width="0.4"><desc><name>Liaoyang City</name><admin_leve>5</admin_leve><wikipedia>zh:辽阳市</wikipedia><localname>辽阳市 / Liaoyang</localname><boundary>administrative</boundary><id>CN.liaoning.2769643</id></desc></path><path d="M336.708860759,316.455696203 L341.772151899,311.392405063 L355.696202532,305.063291139 L367.088607595,303.797468354 L381.012658228,308.860759494 L384.810126582,325.316455696 L374.683544304,336.708860759 L379.746835443,340.506329114 L378.481012658,343.037974684 L401.265822785,351.898734177 L411.392405063,340.506329114 L431.64556962,343.037974684 L434.17721519,350.632911392 L443.037974684,355.696202532 L439.240506329,360.759493671 L430.379746835,360.759493671 L424.050632911,373.417721519 L429.113924051,378.481012658 L429.113924051,387.341772152 L436.708860759,389.873417722 L450.632911392,383.544303797 L472.151898734,378.481012658 L477.215189873,382.278481013 L473.417721519,388.607594937 L492.405063291,396.202531646 L494.936708861,420.253164557 L488.607594937,431.64556962 L477.215189873,436.708860759 L479.746835443,445.569620253 L474.683544304,450.632911392 L465.82278481,454.430379747 L459.493670886,459.493670886 L455.696202532,460.759493671 L431.64556962,453.164556962 L425.316455696,456.962025316 L418.987341772,453.164556962 L407.594936709,439.240506329 L405.063291139,434.17721519 L412.658227848,421.518987342 L418.987341772,413.924050633 L410.126582278,407.594936709 L401.265822785,407.594936709 L398.734177215,402.53164557 L382.278481013,401.265822785 L383.544303797,386.075949367 L370.886075949,384.810126582 L367.088607595,375.949367089 L369.620253165,368.35443038 L351.898734177,369.620253165 L354.430379747,360.759493671 L360.759493671,359.493670886 L355.696202532,344.303797468 L341.772151899,340.506329114 L345.569620253,329.113924051 L336.708860759,316.455696203 Z" fill="#cee3f5" id="CN.liaoning.2769683" stroke="#6e6e6e" stroke-width="0.4"><desc><name>Anshan City</name><admin_leve>5</admin_leve><wikipedia>zh:鞍山市</wikipedia><localname>鞍山市 / Anshan</localname><boundary>administrative</boundary><id>CN.liaoning.2769683</id></desc></path><path d="M220.253164557,235.443037975 L245.569620253,222.784810127 L248.101265823,216.455696203 L262.025316456,210.126582278 L277.215189873,207.594936709 L284.810126582,215.189873418 L308.860759494,202.53164557 L312.658227848,191.139240506 L325.316455696,187.341772152 L351.898734177,192.405063291 L358.227848101,191.139240506 L364.556962025,183.544303797 L355.696202532,182.278481013 L360.759493671,174.683544304 L374.683544304,177.215189873 L381.012658228,182.278481013 L391.139240506,181.012658228 L402.53164557,187.341772152 L397.46835443,193.670886076 L415.189873418,201.265822785 L407.594936709,210.126582278 L400.0,211.392405063 L406.329113924,226.582278481 L360.759493671,246.835443038 L339.240506329,256.962025316 L334.17721519,256.962025316 L300.0,282.278481013 L296.202531646,279.746835443 L286.075949367,282.278481013 L272.151898734,282.278481013 L267.088607595,288.607594937 L251.898734177,287.341772152 L244.303797468,281.012658228 L248.101265823,273.417721519 L239.240506329,268.35443038 L236.708860759,263.291139241 L221.518987342,262.025316456 L226.582278481,249.367088608 L220.253164557,235.443037975 Z" fill="#cee3f5" id="CN.liaoning.2769803" stroke="#6e6e6e" stroke-width="0.4"><desc><name>Fuxin City</name><admin_leve>5</admin_leve><wikipedia>zh:阜新市</wikipedia><localname>阜新市 / Fuxin</localname><boundary>administrative</boundary><id>CN.liaoning.2769803</id></desc></path><path d="M220.253164557,235.443037975 L226.582278481,249.367088608 L221.518987342,262.025316456 L236.708860759,263.291139241 L239.240506329,268.35443038 L248.101265823,273.417721519 L244.303797468,281.012658228 L239.240506329,291.139240506 L227.848101266,298.734177215 L216.455696203,301.265822785 L207.594936709,308.860759494 L205.063291139,318.987341772 L196.202531646,321.518987342 L191.139240506,327.848101266 L194.936708861,341.772151899 L181.012658228,341.772151899 L177.215189873,350.632911392 L163.291139241,353.164556962 L159.493670886,364.556962025 L149.367088608,360.759493671 L144.303797468,365.82278481 L131.64556962,359.493670886 L127.848101266,351.898734177 L117.721518987,351.898734177 L117.721518987,364.556962025 L86.0759493671,378.481012658 L74.6835443038,378.481012658 L60.7594936709,387.341772152 L48.1012658228,397.46835443 L40.5063291139,401.265822785 L21.5189873418,394.936708861 L0.0,379.746835443 L6.32911392405,364.556962025 L12.6582278481,353.164556962 L24.0506329114,351.898734177 L24.0506329114,348.101265823 L34.1772151899,343.037974684 L41.7721518987,332.911392405 L40.5063291139,329.113924051 L48.1012658228,324.050632911 L56.9620253165,312.658227848 L46.835443038,289.873417722 L49.3670886076,269.620253165 L49.3670886076,263.291139241 L55.6962025316,250.632911392 L46.835443038,246.835443038 L44.3037974684,234.17721519 L59.4936708861,227.848101266 L70.8860759494,230.379746835 L81.0126582278,235.443037975 L101.265822785,237.974683544 L101.265822785,249.367088608 L112.658227848,263.291139241 L126.582278481,291.139240506 L130.379746835,283.544303797 L150.632911392,262.025316456 L164.556962025,258.227848101 L164.556962025,249.367088608 L175.949367089,243.037974684 L179.746835443,244.303797468 L191.139240506,237.974683544 L196.202531646,237.974683544 L212.658227848,232.911392405 L220.253164557,235.443037975 Z" fill="#cee3f5" id="CN.liaoning.2769829" stroke="#6e6e6e" stroke-width="0.4"><desc><name>Chaoyang City</name><admin_leve>5</admin_leve><wikipedia>zh:朝阳市</wikipedia><localname>朝阳市 / Chaoyang</localname><boundary>administrative</boundary><id>CN.liaoning.2769829</id></desc></path><path d="M40.5063291139,401.265822785 L48.1012658228,397.46835443 L60.7594936709,387.341772152 L74.6835443038,378.481012658 L86.0759493671,378.481012658 L117.721518987,364.556962025 L117.721518987,351.898734177 L127.848101266,351.898734177 L131.64556962,359.493670886 L144.303797468,365.82278481 L149.367088608,360.759493671 L159.493670886,364.556962025 L163.291139241,353.164556962 L177.215189873,350.632911392 L181.012658228,341.772151899 L194.936708861,341.772151899 L198.734177215,346.835443038 L211.392405063,348.101265823 L212.658227848,355.696202532 L221.518987342,355.696202532 L218.987341772,375.949367089 L213.924050633,391.139240506 L203.797468354,392.405063291 L197.46835443,401.265822785 L183.544303797,412.658227848 L177.215189873,413.924050633 L177.215189873,424.050632911 L168.35443038,427.848101266 L167.088607595,437.974683544 L162.025316456,441.772151899 L148.101265823,443.037974684 L145.569620253,445.569620253 L110.126582278,456.962025316 L94.9367088608,456.962025316 L91.1392405063,441.772151899 L84.8101265823,439.240506329 L77.2151898734,427.848101266 L77.2151898734,415.189873418 L69.6202531646,406.329113924 L46.835443038,407.594936709 L40.5063291139,401.265822785 Z" fill="#cee3f5" id="CN.liaoning.2769902" stroke="#6e6e6e" stroke-width="0.4"><desc><name>Huludao City</name><admin_leve>5</admin_leve><wikipedia>zh:葫芦岛市</wikipedia><localname>葫芦岛市 / Huludao</localname><boundary>administrative</boundary><id>CN.liaoning.2769902</id></desc></path><path d="M244.303797468,281.012658228 L251.898734177,287.341772152 L267.088607595,288.607594937 L272.151898734,282.278481013 L286.075949367,282.278481013 L296.202531646,279.746835443 L300.0,282.278481013 L334.17721519,256.962025316 L339.240506329,256.962025316 L360.759493671,246.835443038 L368.35443038,260.759493671 L369.620253165,277.215189873 L375.949367089,288.607594937 L367.088607595,303.797468354 L355.696202532,305.063291139 L341.772151899,311.392405063 L336.708860759,316.455696203 L321.518987342,324.050632911 L313.924050633,321.518987342 L291.139240506,327.848101266 L274.683544304,336.708860759 L278.481012658,340.506329114 L277.215189873,349.367088608 L284.810126582,350.632911392 L286.075949367,359.493670886 L281.012658228,369.620253165 L274.683544304,373.417721519 L265.82278481,370.886075949 L254.430379747,375.949367089 L240.506329114,372.151898734 L218.987341772,375.949367089 L221.518987342,355.696202532 L212.658227848,355.696202532 L211.392405063,348.101265823 L198.734177215,346.835443038 L194.936708861,341.772151899 L191.139240506,327.848101266 L196.202531646,321.518987342 L205.063291139,318.987341772 L207.594936709,308.860759494 L216.455696203,301.265822785 L227.848101266,298.734177215 L239.240506329,291.139240506 L244.303797468,281.012658228 Z" fill="#cee3f5" id="CN.liaoning.2770977" stroke="#6e6e6e" stroke-width="0.4"><desc><name>Jinzhou City</name><admin_leve>5</admin_leve><wikidata>Q28996</wikidata><localname>锦州市 / Jinzhou</localname><boundary>administrative</boundary><id>CN.liaoning.2770977</id></desc></path><path d="M274.683544304,373.417721519 L281.012658228,369.620253165 L286.075949367,359.493670886 L284.810126582,350.632911392 L277.215189873,349.367088608 L278.481012658,340.506329114 L274.683544304,336.708860759 L291.139240506,327.848101266 L313.924050633,321.518987342 L321.518987342,324.050632911 L336.708860759,316.455696203 L345.569620253,329.113924051 L341.772151899,340.506329114 L355.696202532,344.303797468 L360.759493671,359.493670886 L354.430379747,360.759493671 L351.898734177,369.620253165 L346.835443038,374.683544304 L335.443037975,374.683544304 L329.113924051,382.278481013 L336.708860759,386.075949367 L334.17721519,392.405063291 L324.050632911,394.936708861 L316.455696203,389.873417722 L313.924050633,381.012658228 L305.063291139,378.481012658 L301.265822785,370.886075949 L292.405063291,370.886075949 L287.341772152,375.949367089 L274.683544304,373.417721519 Z" fill="#cee3f5" id="CN.liaoning.2771970" stroke="#6e6e6e" stroke-width="0.4"><desc><name>Panjin City</name><admin_leve>5</admin_leve><wikipedia>de:Panjin</wikipedia><localname>盘锦市 / Panjin</localname><boundary>administrative</boundary><id>CN.liaoning.2771970</id></desc></path><path d="M334.17721519,392.405063291 L336.708860759,386.075949367 L329.113924051,382.278481013 L335.443037975,374.683544304 L346.835443038,374.683544304 L351.898734177,369.620253165 L369.620253165,368.35443038 L367.088607595,375.949367089 L370.886075949,384.810126582 L383.544303797,386.075949367 L382.278481013,401.265822785 L398.734177215,402.53164557 L401.265822785,407.594936709 L410.126582278,407.594936709 L418.987341772,413.924050633 L412.658227848,421.518987342 L405.063291139,434.17721519 L407.594936709,439.240506329 L402.53164557,449.367088608 L389.873417722,453.164556962 L373.417721519,455.696202532 L369.620253165,468.35443038 L343.037974684,459.493670886 L315.189873418,450.632911392 L318.987341772,443.037974684 L327.848101266,437.974683544 L329.113924051,430.379746835 L337.974683544,424.050632911 L344.303797468,416.455696203 L339.240506329,403.797468354 L331.64556962,398.734177215 L334.17721519,392.405063291 Z" fill="#cee3f5" id="CN.liaoning.2771992" stroke="#6e6e6e" stroke-width="0.4"><desc><name>Yingkou City</name><admin_leve>5</admin_leve><wikipedia>zh:营口市</wikipedia><localname>营口市 / Yingkou</localname><boundary>administrative</boundary><id>CN.liaoning.2771992</id></desc></path></svg>