<?xml version='1.0' encoding='utf-8'?>
<svg height="700" width="700" xmlns="http://www.w3.org/2000/svg"><path d="M352.830188679,626.41509434 L375.471698113,628.301886792 L398.113207547,639.622641509 L409.433962264,700.0 L362.264150943,690.566037736 L352.830188679,626.41509434 Z" fill="#cee3f5" id="CN.ningxia.2700340" stroke="#6e6e6e" stroke-width="0.4"><desc><name>Jingyuan County</name><admin_leve>6</admin_leve><wikipedia>zh:泾源县</wikipedia><localname>泾源县 (Jingyuan)</localname><boundary>administrative</boundary><id>CN.ningxia.2700340</id></desc></path><path d="M288.679245283,662.264150943 L326.41509434,626.41509434 L352.830188679,626.41509434 L362.264150943,690.566037736 L288.679245283,662.264150943 Z" fill="#cee3f5" id="CN.ningxia.2700341" stroke="#6e6e6e" stroke-width="0.4"><desc><name>Longde County</name><admin_leve>6</admin_leve><wikipedia>zh:隆德县</wikipedia><localname>隆德县 (Longde)</localname><boundary>administrative</boundary><id>CN.ningxia.2700341</id></desc></path><path d="M411.320754717,539.622641509 L471.698113208,550.943396226 L486.79245283,569.811320755 L483.018867925,620.754716981 L464.150943396,637.735849057 L398.113207547,639.622641509 L375.471698113,628.301886792 L379.245283019,596.226415094 L411.320754717,539.622641509 Z" fill="#cee3f5" id="CN.ningxia.2793580" stroke="#6e6e6e" stroke-width="0.4"><desc><name>Pengyang County</name><admin_leve>6</admin_leve><wikipedia>zh:彭阳县</wikipedia><localname>彭阳县 / Pengyang</localname><boundary>administrative</boundary><id>CN.ningxia.2793580</id></desc></path><path d="M230.188679245,554.716981132 L320.754716981,552.830188679 L326.41509434,626.41509434 L288.679245283,662.264150943 L264.150943396,632.075471698 L232.075471698,633.962264151 L203.773584906,605.660377358 L230.188679245,554.716981132 Z" fill="#cee3f5" id="CN.ningxia.2793581" stroke="#6e6e6e" stroke-width="0.4"><desc><name>Xiji County</name><admin_leve>6</admin_leve><wikipedia>zh:西吉县</wikipedia><localname>西吉县 / Xiji</localname><boundary>administrative</boundary><id>CN.ningxia.2793581</id></desc></path><path d="M350.943396226,486.79245283 L398.113207547,477.358490566 L411.320754717,539.622641509 L379.245283019,596.226415094 L375.471698113,628.301886792 L352.830188679,626.41509434 L326.41509434,626.41509434 L320.754716981,552.830188679 L313.20754717,533.962264151 L350.943396226,486.79245283 Z" fill="#cee3f5" id="CN.ningxia.2793582" stroke="#6e6e6e" stroke-width="0.4"><desc><name>Yuanzhou District</name><admin_leve>6</admin_leve><wikipedia>zh:原州区</wikipedia><localname>原州区 / Yuanzhou</localname><boundary>administrative</boundary><id>CN.ningxia.2793582</id></desc></path><path d="M175.471698113,415.094339623 L192.452830189,405.660377358 L226.41509434,424.528301887 L277.358490566,430.188679245 L324.528301887,443.396226415 L350.943396226,486.79245283 L313.20754717,533.962264151 L320.754716981,552.830188679 L230.188679245,554.716981132 L207.547169811,498.113207547 L205.660377358,452.830188679 L175.471698113,415.094339623 Z" fill="#cee3f5" id="CN.ningxia.2793619" stroke="#6e6e6e" stroke-width="0.4"><desc><name>Haiyuan County</name><admin_leve>6</admin_leve><wikipedia>zh:海原县</wikipedia><localname>海原县 / Haiyuan</localname><boundary>administrative</boundary><id>CN.ningxia.2793619</id></desc></path><path d="M220.754716981,292.452830189 L247.169811321,352.830188679 L224.528301887,392.452830189 L192.452830189,405.660377358 L175.471698113,415.094339623 L135.849056604,405.660377358 L90.5660377358,322.641509434 L143.396226415,316.981132075 L196.226415094,288.679245283 L220.754716981,292.452830189 Z" fill="#cee3f5" id="CN.ningxia.2793620" stroke="#6e6e6e" stroke-width="0.4"><desc><name>Shapotou District</name><admin_leve>6</admin_leve><wikipedia>zh:沙坡头区</wikipedia><localname>沙坡头区</localname><boundary>administrative</boundary><id>CN.ningxia.2793620</id></desc></path><path d="M220.754716981,292.452830189 L249.056603774,286.79245283 L303.773584906,281.132075472 L322.641509434,305.660377358 L333.962264151,320.754716981 L275.471698113,362.264150943 L283.018867925,377.358490566 L277.358490566,430.188679245 L226.41509434,424.528301887 L192.452830189,405.660377358 L224.528301887,392.452830189 L247.169811321,352.830188679 L220.754716981,292.452830189 Z" fill="#cee3f5" id="CN.ningxia.2793621" stroke="#6e6e6e" stroke-width="0.4"><desc><name>Zhongning County</name><admin_leve>6</admin_leve><wikipedia>zh:中宁县</wikipedia><localname>中宁县 / Zhongning</localname><boundary>administrative</boundary><id>CN.ningxia.2793621</id></desc></path><path d="M335.849056604,49.0566037736 L409.433962264,13.2075471698 L405.660377358,64.1509433962 L384.905660377,86.7924528302 L335.849056604,49.0566037736 Z" fill="#cee3f5" id="CN.ningxia.3307095" stroke="#6e6e6e" stroke-width="0.4"><desc><name>Dawukou District</name><admin_leve>6</admin_leve><wikipedia>en:Dawukou District</wikipedia><localname>大武口区 (Dawukou)</localname><boundary>administrative</boundary><id>CN.ningxia.3307095</id></desc></path><path d="M409.433962264,13.2075471698 L460.377358491,0.0 L473.58490566,45.2830188679 L405.660377358,64.1509433962 L409.433962264,13.2075471698 Z" fill="#cee3f5" id="CN.ningxia.3307096" stroke="#6e6e6e" stroke-width="0.4"><desc><name>Huinong District</name><admin_leve>6</admin_leve><wikipedia>en:Huinong District</wikipedia><localname>惠农区 (Huinong)</localname><boundary>administrative</boundary><id>CN.ningxia.3307096</id></desc></path><path d="M335.849056604,49.0566037736 L384.905660377,86.7924528302 L405.660377358,64.1509433962 L473.58490566,45.2830188679 L486.79245283,71.6981132075 L437.735849057,130.188679245 L424.528301887,120.754716981 L320.754716981,83.0188679245 L335.849056604,49.0566037736 Z" fill="#cee3f5" id="CN.ningxia.3307097" stroke="#6e6e6e" stroke-width="0.4"><desc><name>Pingluo County</name><admin_leve>6</admin_leve><wikipedia>en:Pingluo County</wikipedia><localname>平罗县 (Pingluo)</localname><boundary>administrative</boundary><id>CN.ningxia.3307097</id></desc></path><path d="M300.0,113.20754717 L320.754716981,83.0188679245 L424.528301887,120.754716981 L415.094339623,145.283018868 L366.037735849,149.056603774 L358.490566038,124.528301887 L300.0,113.20754717 Z" fill="#cee3f5" id="CN.ningxia.3307199" stroke="#6e6e6e" stroke-width="0.4"><desc><name>Helan County</name><admin_leve>6</admin_leve><wikipedia>en:Helan County</wikipedia><localname>贺兰县 (Helan)</localname><boundary>administrative</boundary><id>CN.ningxia.3307199</id></desc></path><path d="M330.188679245,181.132075472 L358.490566038,124.528301887 L366.037735849,149.056603774 L367.924528302,166.037735849 L330.188679245,181.132075472 Z" fill="#cee3f5" id="CN.ningxia.3307200" stroke="#6e6e6e" stroke-width="0.4"><desc><name>Jinfeng District</name><admin_leve>6</admin_leve><wikipedia>en:Jinfeng District</wikipedia><localname>金凤区 (Jinfeng)</localname><boundary>administrative</boundary><id>CN.ningxia.3307200</id></desc></path><path d="M356.603773585,224.528301887 L358.490566038,215.094339623 L384.905660377,177.358490566 L403.773584906,181.132075472 L464.150943396,207.547169811 L452.830188679,239.622641509 L475.471698113,260.377358491 L409.433962264,324.528301887 L386.79245283,318.867924528 L356.603773585,224.528301887 Z" fill="#cee3f5" id="CN.ningxia.3307201" stroke="#6e6e6e" stroke-width="0.4"><desc><name>Lingwu City</name><admin_leve>6</admin_leve><wikipedia>zh:灵武市</wikipedia><localname>灵武市 (Lingwu)</localname><boundary>administrative</boundary><id>CN.ningxia.3307201</id></desc></path><path d="M366.037735849,149.056603774 L415.094339623,145.283018868 L424.528301887,120.754716981 L437.735849057,130.188679245 L403.773584906,181.132075472 L384.905660377,177.358490566 L367.924528302,166.037735849 L366.037735849,149.056603774 Z" fill="#cee3f5" id="CN.ningxia.3307202" stroke="#6e6e6e" stroke-width="0.4"><desc><name>Xingqing District</name><admin_leve>6</admin_leve><wikipedia>en:Xingqing District</wikipedia><localname>兴庆区 (Xingqing)</localname><boundary>administrative</boundary><id>CN.ningxia.3307202</id></desc></path><path d="M292.452830189,152.830188679 L300.0,113.20754717 L358.490566038,124.528301887 L330.188679245,181.132075472 L292.452830189,152.830188679 Z" fill="#cee3f5" id="CN.ningxia.3307203" stroke="#6e6e6e" stroke-width="0.4"><desc><name>Xixia District</name><admin_leve>6</admin_leve><wikipedia>en:Xixia District</wikipedia><localname>西夏区 (Xixia)</localname><boundary>administrative</boundary><id>CN.ningxia.3307203</id></desc></path><path d="M292.452830189,152.830188679 L330.188679245,181.132075472 L367.924528302,166.037735849 L384.905660377,177.358490566 L358.490566038,215.094339623 L294.339622642,190.566037736 L292.452830189,152.830188679 Z" fill="#cee3f5" id="CN.ningxia.3307204" stroke="#6e6e6e" stroke-width="0.4"><desc><name>Yongning County</name><admin_leve>6</admin_leve><wikipedia>en:Yongning County</wikipedia><localname>永宁县 (Yongning)</localname><boundary>administrative</boundary><id>CN.ningxia.3307204</id></desc></path><path d="M409.433962264,324.528301887 L475.471698113,260.377358491 L452.830188679,239.622641509 L464.150943396,207.547169811 L524.528301887,209.433962264 L567.924528302,245.283018868 L609.433962264,260.377358491 L552.830188679,309.433962264 L539.622641509,352.830188679 L554.716981132,383.018867925 L477.358490566,394.339622642 L428.301886792,386.79245283 L443.396226415,360.377358491 L413.20754717,330.188679245 L409.433962264,324.528301887 Z" fill="#cee3f5" id="CN.ningxia.3924669" stroke="#6e6e6e" stroke-width="0.4"><desc><name>Yanchi County</name><admin_leve>6</admin_leve><wikipedia>en:Yanchi County</wikipedia><localname>盐池县 (Yanchi)</localname><boundary>administrative</boundary><id>CN.ningxia.3924669</id></desc></path><path d="M249.056603774,286.79245283 L281.132075472,267.924528302 L294.339622642,190.566037736 L358.490566038,215.094339623 L356.603773585,224.528301887 L332.075471698,301.886792453 L322.641509434,305.660377358 L303.773584906,281.132075472 L249.056603774,286.79245283 Z" fill="#cee3f5" id="CN.ningxia.4429427" stroke="#6e6e6e" stroke-width="0.4"><desc><name>Qingtongxia City</name><admin_leve>6</admin_leve><wikipedia>en:Qingtongxia</wikipedia><localname>青铜峡市 (Qingtongxia)</localname><boundary>administrative</boundary><id>CN.ningxia.4429427</id></desc></path><path d="M283.018867925,377.358490566 L381.132075472,388.679245283 L364.150943396,354.716981132 L413.20754717,330.188679245 L443.396226415,360.377358491 L428.301886792,386.79245283 L435.849056604,443.396226415 L398.113207547,477.358490566 L350.943396226,486.79245283 L324.528301887,443.396226415 L277.358490566,430.188679245 L283.018867925,377.358490566 Z" fill="#cee3f5" id="CN.ningxia.4562843" stroke="#6e6e6e" stroke-width="0.4"><desc><name>Tongxin County</name><admin_leve>6</admin_leve><wikipedia>en:Tongxin County</wikipedia><localname>同心县 / Tongxin / ﺗْﻮسٍ ﺷِﯿًﺎ‎</localname><boundary>administrative</boundary><id>CN.ningxia.4562843</id></desc></path><path d="M356.603773585,224.528301887 L386.79245283,318.867924528 L350.943396226,330.188679245 L332.075471698,301.886792453 L356.603773585,224.528301887 Z" fill="#cee3f5" id="CN.ningxia.4563635" stroke="#6e6e6e" stroke-width="0.4"><desc><name>Litong District</name><admin_leve>6</admin_leve><wikipedia>en:Litong District</wikipedia><localname>利通区 / Litong / لِتْو ٿُو‎</localname><boundary>administrative</boundary><id>CN.ningxia.4563635</id></desc></path><path d="M322.641509434,305.660377358 L332.075471698,301.886792453 L350.943396226,330.188679245 L386.79245283,318.867924528 L409.433962264,324.528301887 L413.20754717,330.188679245 L364.150943396,354.716981132 L381.132075472,388.679245283 L283.018867925,377.358490566 L275.471698113,362.264150943 L333.962264151,320.754716981 L322.641509434,305.660377358 Z" fill="#cee3f5" id="CN.ningxia.4563684" stroke="#6e6e6e" stroke-width="0.4"><desc><name>Hongsibao District</name><admin_leve>6</admin_leve><wikipedia>zh:红寺堡区</wikipedia><localname>红寺堡区 / Hongsibao</localname><boundary>administrative</boundary><id>CN.ningxia.4563684</id></desc></path></svg>