<?xml version='1.0' encoding='utf-8'?>
<svg height="700" width="700" xmlns="http://www.w3.org/2000/svg"><path d="M297.097097097,221.071071071 L269.069069069,224.574574575 L255.055055055,219.66966967 L244.544544545,224.574574575 L243.143143143,214.064064064 L209.50950951,187.437437437 L198.298298298,186.736736737 L184.284284284,200.05005005 L164.664664665,200.05005005 L102.302302302,207.057057057 L82.6826826827,197.947947948 L65.8658658659,153.803803804 L42.7427427427,143.293293293 L31.5315315315,153.103103103 L0.0,138.388388388 L25.9259259259,112.462462462 L9.10910910911,98.4484484484 L20.3203203203,95.6456456456 L79.8798798799,92.1421421421 L99.4994994995,87.2372372372 L133.833833834,90.7407407407 L159.059059059,102.652652653 L182.882882883,108.258258258 L199.6996997,105.455455455 L223.523523524,111.761761762 L247.347347347,136.286286286 L262.062062062,148.198198198 L259.259259259,157.307307307 L272.572572573,161.511511512 L267.667667668,171.321321321 L280.980980981,181.831831832 L294.294294294,204.254254254 L297.097097097,221.071071071 Z" fill="#cee3f5" id="CN.heilongjiang.199127" stroke="#6e6e6e" stroke-width="0.4"><desc><admin_leve>5</admin_leve><localname>大兴安岭地区 / Da Hinggan Ling</localname><boundary>administrative</boundary><id>CN.heilongjiang.199127</id><name>Da Hinggan Ling Prefecture</name></desc></path><path d="M491.891891892,357.707707708 L486.286286286,368.918918919 L501.701701702,390.640640641 L532.532532533,389.93993994 L536.036036036,393.443443443 L582.282282282,390.640640641 L570.37037037,405.355355355 L534.634634635,415.165165165 L525.525525526,415.865865866 L508.008008008,417.967967968 L486.286286286,410.26026026 L485.585585586,418.668668669 L461.061061061,422.172172172 L445.645645646,412.362362362 L447.747747748,394.144144144 L434.434434434,377.327327327 L446.346346346,360.510510511 L456.856856857,368.218218218 L466.666666667,360.510510511 L491.891891892,357.707707708 Z" fill="#cee3f5" id="CN.heilongjiang.199170" stroke="#6e6e6e" stroke-width="0.4"><desc><name>Hegang City</name><admin_leve>5</admin_leve><wikipedia>en:Hegang</wikipedia><localname>鹤岗市 / Hegang</localname><boundary>administrative</boundary><id>CN.heilongjiang.199170</id></desc></path><path d="M463.863863864,474.024024024 L480.680680681,480.33033033 L504.504504505,478.928928929 L517.817817818,462.812812813 L540.940940941,469.81981982 L544.444444444,484.534534535 L532.532532533,484.534534535 L519.219219219,500.650650651 L491.891891892,499.94994995 L459.65965966,497.147147147 L457.557557558,483.833833834 L463.863863864,474.024024024 Z" fill="#cee3f5" id="CN.heilongjiang.199174" stroke="#6e6e6e" stroke-width="0.4"><desc><admin_leve>5</admin_leve><localname>七台河 / Qitaihe</localname><boundary>administrative</boundary><id>CN.heilongjiang.199174</id><name>Qitaihe</name></desc></path><path d="M491.891891892,499.94994995 L519.219219219,500.650650651 L532.532532533,484.534534535 L544.444444444,484.534534535 L568.968968969,487.337337337 L590.690690691,471.221221221 L600.500500501,473.323323323 L613.813813814,455.105105105 L629.229229229,451.601601602 L653.053053053,453.003003003 L655.155155155,466.316316316 L634.134134134,485.935935936 L628.528528529,500.650650651 L618.018018018,505.555555556 L614.514514515,525.175175175 L600.500500501,528.678678679 L555.655655656,518.868868869 L538.838838839,520.27027027 L536.036036036,527.977977978 L501.701701702,539.88988989 L484.184184184,528.678678679 L476.476476476,514.664664665 L491.891891892,499.94994995 Z" fill="#cee3f5" id="CN.heilongjiang.199188" stroke="#6e6e6e" stroke-width="0.4"><desc><admin_leve>5</admin_leve><localname>鸡西市</localname><boundary>administrative</boundary><id>CN.heilongjiang.199188</id><name>Jixi</name></desc></path><path d="M525.525525526,415.865865866 L534.634634635,415.165165165 L533.933933934,433.383383383 L558.458458458,428.478478478 L566.166166166,437.587587588 L601.201201201,439.68968969 L614.514514515,433.383383383 L622.922922923,412.362362362 L643.243243243,399.74974975 L669.169169169,399.049049049 L675.475475475,405.355355355 L653.053053053,453.003003003 L629.229229229,451.601601602 L613.813813814,455.105105105 L600.500500501,473.323323323 L590.690690691,471.221221221 L568.968968969,487.337337337 L544.444444444,484.534534535 L540.940940941,469.81981982 L517.817817818,462.812812813 L489.089089089,448.798798799 L486.986986987,436.886886887 L505.205205205,427.777777778 L531.831831832,424.274274274 L525.525525526,415.865865866 Z" fill="#cee3f5" id="CN.heilongjiang.203483" stroke="#6e6e6e" stroke-width="0.4"><desc><name>Shuangyashan</name><admin_leve>5</admin_leve><wikipedia>en:Shuangyashan</wikipedia><localname>双鸭山市 / Shuangyashan</localname><boundary>administrative</boundary><id>CN.heilongjiang.203483</id></desc></path><path d="M425.325325325,447.397397397 L435.835835836,441.791791792 L428.128128128,431.981981982 L445.645645646,412.362362362 L461.061061061,422.172172172 L485.585585586,418.668668669 L486.286286286,410.26026026 L508.008008008,417.967967968 L525.525525526,415.865865866 L531.831831832,424.274274274 L505.205205205,427.777777778 L486.986986987,436.886886887 L489.089089089,448.798798799 L517.817817818,462.812812813 L504.504504505,478.928928929 L480.680680681,480.33033033 L463.863863864,474.024024024 L458.958958959,458.608608609 L447.047047047,447.397397397 L425.325325325,447.397397397 M534.634634635,415.165165165 L570.37037037,405.355355355 L582.282282282,390.640640641 L610.31031031,370.32032032 L636.936936937,368.918918919 L646.746746747,362.612612613 L683.883883884,354.204204204 L699.299299299,357.007007007 L688.088088088,374.524524525 L700.0,389.239239239 L685.285285285,404.654654655 L675.475475475,405.355355355 L669.169169169,399.049049049 L643.243243243,399.74974975 L622.922922923,412.362362362 L614.514514515,433.383383383 L601.201201201,439.68968969 L566.166166166,437.587587588 L558.458458458,428.478478478 L533.933933934,433.383383383 L534.634634635,415.165165165 Z" fill="#cee3f5" id="CN.heilongjiang.206437" stroke="#6e6e6e" stroke-width="0.4"><desc><name>Jiamusi City</name><admin_leve>5</admin_leve><wikipedia>en:Jiamusi</wikipedia><localname>佳木斯市 / Jiamusi</localname><boundary>administrative</boundary><id>CN.heilongjiang.206437</id></desc></path><path d="M177.977977978,328.278278278 L187.087087087,314.264264264 L205.305305305,307.257257257 L203.203203203,289.039039039 L206.006006006,265.215215215 L218.618618619,250.500500501 L234.734734735,242.792792793 L244.544544545,224.574574575 L255.055055055,219.66966967 L269.069069069,224.574574575 L297.097097097,221.071071071 L314.614614615,242.092092092 L315.315315315,256.806806807 L323.023023023,281.331331331 L337.037037037,293.243243243 L389.58958959,295.345345345 L403.603603604,305.155155155 L415.515515516,305.155155155 L412.712712713,320.570570571 L426.726726727,327.577577578 L386.086086086,354.904904905 L370.670670671,357.707707708 L354.554554555,371.721721722 L341.241241241,372.422422422 L337.037037037,383.633633634 L280.28028028,390.640640641 L272.572572573,397.647647648 L276.776776777,378.028028028 L271.171171171,364.714714715 L259.95995996,366.816816817 L235.435435435,357.707707708 L232.632632633,347.197197197 L237.537537538,332.482482482 L219.319319319,331.081081081 L207.407407407,338.788788789 L177.977977978,328.278278278 Z" fill="#cee3f5" id="CN.heilongjiang.2754980" stroke="#6e6e6e" stroke-width="0.4"><desc><admin_leve>5</admin_leve><localname>黑河市</localname><boundary>administrative</boundary><id>CN.heilongjiang.2754980</id><name>Heihe City</name></desc></path><path d="M177.977977978,328.278278278 L207.407407407,338.788788789 L219.319319319,331.081081081 L237.537537538,332.482482482 L232.632632633,347.197197197 L235.435435435,357.707707708 L259.95995996,366.816816817 L271.171171171,364.714714715 L276.776776777,378.028028028 L272.572572573,397.647647648 L266.266266266,408.158158158 L208.808808809,413.063063063 L194.094094094,403.253253253 L173.773773774,411.661661662 L163.963963964,410.26026026 L135.935935936,434.084084084 L126.826826827,446.696696697 L131.731731732,464.214214214 L96.6966966967,467.017017017 L87.5875875876,450.2002002 L118.418418418,443.893893894 L100.2002002,435.485485485 L88.988988989,442.492492492 L56.0560560561,410.26026026 L64.4644644645,401.151151151 L97.3973973974,385.735735736 L117.717717718,373.823823824 L143.643643644,353.503503504 L155.555555556,357.007007007 L167.467467467,345.795795796 L177.977977978,328.278278278 Z" fill="#cee3f5" id="CN.heilongjiang.2755137" stroke="#6e6e6e" stroke-width="0.4"><desc><admin_leve>5</admin_leve><localname>齐齐哈尔市 / Qiqihar</localname><boundary>administrative</boundary><id>CN.heilongjiang.2755137</id><name>Qiqihar City</name></desc></path><path d="M208.808808809,413.063063063 L198.998998999,441.091091091 L206.006006006,457.907907908 L191.291291291,457.907907908 L196.196196196,476.826826827 L209.50950951,471.921921922 L213.013013013,485.235235235 L226.326326326,484.534534535 L231.931931932,505.555555556 L227.727727728,504.854854855 L195.495495495,512.562562563 L192.692692693,506.256256256 L160.46046046,509.059059059 L142.242242242,492.942942943 L140.14014014,471.921921922 L131.731731732,464.214214214 L126.826826827,446.696696697 L135.935935936,434.084084084 L163.963963964,410.26026026 L173.773773774,411.661661662 L194.094094094,403.253253253 L208.808808809,413.063063063 Z" fill="#cee3f5" id="CN.heilongjiang.2755197" stroke="#6e6e6e" stroke-width="0.4"><desc><admin_leve>5</admin_leve><localname>大庆市</localname><boundary>administrative</boundary><id>CN.heilongjiang.2755197</id><name>Daqing City</name></desc></path><path d="M208.808808809,413.063063063 L266.266266266,408.158158158 L272.572572573,397.647647648 L280.28028028,390.640640641 L337.037037037,383.633633634 L341.241241241,372.422422422 L354.554554555,371.721721722 L364.364364364,380.830830831 L360.860860861,400.45045045 L372.072072072,415.165165165 L352.452452452,424.274274274 L328.628628629,428.478478478 L352.452452452,448.798798799 L359.459459459,450.2002002 L337.737737738,448.798798799 L325.125125125,453.003003003 L316.016016016,445.295295295 L287.287287287,455.105105105 L264.864864865,476.126126126 L262.062062062,492.942942943 L244.544544545,495.045045045 L231.931931932,505.555555556 L226.326326326,484.534534535 L213.013013013,485.235235235 L209.50950951,471.921921922 L196.196196196,476.826826827 L191.291291291,457.907907908 L206.006006006,457.907907908 L198.998998999,441.091091091 L208.808808809,413.063063063 Z" fill="#cee3f5" id="CN.heilongjiang.2755376" stroke="#6e6e6e" stroke-width="0.4"><desc><admin_leve>5</admin_leve><localname>绥化市 / Suihua</localname><boundary>administrative</boundary><id>CN.heilongjiang.2755376</id><name>Suihua City</name></desc></path><path d="M457.557557558,483.833833834 L459.65965966,497.147147147 L491.891891892,499.94994995 L476.476476476,514.664664665 L484.184184184,528.678678679 L501.701701702,539.88988989 L509.409409409,546.896896897 L519.219219219,581.231231231 L513.613613614,607.857857858 L496.096096096,612.762762763 L472.972972973,602.252252252 L467.367367367,584.034034034 L455.455455455,592.442442442 L440.04004004,589.63963964 L412.012012012,593.843843844 L409.90990991,606.456456456 L391.691691692,606.456456456 L372.072072072,575.625625626 L372.072072072,565.815815816 L360.860860861,560.21021021 L368.568568569,548.998998999 L386.086086086,547.597597598 L409.90990991,520.27027027 L404.304304304,500.650650651 L432.332332332,485.235235235 L457.557557558,483.833833834 Z" fill="#cee3f5" id="CN.heilongjiang.2755604" stroke="#6e6e6e" stroke-width="0.4"><desc><admin_leve>5</admin_leve><localname>牡丹江市 / Mudanjiang</localname><boundary>administrative</boundary><id>CN.heilongjiang.2755604</id><name>Mudanjiang City</name></desc></path><path d="M354.554554555,371.721721722 L370.670670671,357.707707708 L386.086086086,354.904904905 L426.726726727,327.577577578 L412.712712713,320.570570571 L415.515515516,305.155155155 L436.536536537,308.658658659 L463.163163163,331.081081081 L483.483483483,335.285285285 L479.279279279,344.394394394 L491.891891892,357.707707708 L466.666666667,360.510510511 L456.856856857,368.218218218 L446.346346346,360.510510511 L434.434434434,377.327327327 L447.747747748,394.144144144 L445.645645646,412.362362362 L428.128128128,431.981981982 L435.835835836,441.791791792 L425.325325325,447.397397397 L400.800800801,454.404404404 L372.072072072,447.397397397 L359.459459459,450.2002002 L352.452452452,448.798798799 L328.628628629,428.478478478 L352.452452452,424.274274274 L372.072072072,415.165165165 L360.860860861,400.45045045 L364.364364364,380.830830831 L354.554554555,371.721721722 Z" fill="#cee3f5" id="CN.heilongjiang.2755605" stroke="#6e6e6e" stroke-width="0.4"><desc><admin_leve>5</admin_leve><localname>伊春市 / Yichun</localname><boundary>administrative</boundary><id>CN.heilongjiang.2755605</id><name>Yichun City</name></desc></path><path d="M227.727727728,504.854854855 L231.931931932,505.555555556 L244.544544545,495.045045045 L262.062062062,492.942942943 L264.864864865,476.126126126 L287.287287287,455.105105105 L316.016016016,445.295295295 L325.125125125,453.003003003 L337.737737738,448.798798799 L359.459459459,450.2002002 L372.072072072,447.397397397 L400.800800801,454.404404404 L425.325325325,447.397397397 L447.047047047,447.397397397 L458.958958959,458.608608609 L463.863863864,474.024024024 L457.557557558,483.833833834 L432.332332332,485.235235235 L404.304304304,500.650650651 L409.90990991,520.27027027 L386.086086086,547.597597598 L368.568568569,548.998998999 L360.860860861,560.21021021 L352.452452452,577.027027027 L336.336336336,579.82982983 L326.526526527,572.122122122 L316.716716717,551.101101101 L294.994994995,544.094094094 L299.8998999,535.685685686 L293.593593594,527.977977978 L272.572572573,518.868868869 L259.259259259,524.474474474 L238.938938939,521.671671672 L227.727727728,504.854854855 Z" fill="#cee3f5" id="CN.heilongjiang.2755608" stroke="#6e6e6e" stroke-width="0.4"><desc><name>Harbin City</name><admin_leve>5</admin_leve><wikipedia>en:Harbin</wikipedia><localname>哈尔滨市 / Harbin</localname><boundary>administrative</boundary><id>CN.heilongjiang.2755608</id></desc></path></svg>