<?xml version='1.0' encoding='utf-8'?>
<svg height="700" width="700" xmlns="http://www.w3.org/2000/svg"><path d="M349.607281742,219.314177588 L346.642044356,221.539817167 L345.946130079,217.485314025 L341.870980532,213.463737731 L346.128593129,211.628001964 L348.912618562,208.243159948 L352.209730088,213.99425278 L349.607281742,219.314177588 Z" fill="#cee3f5" id="KG.GB" stroke="#6e6e6e" stroke-width="0.4"><desc><labelrank>9</labelrank><code_hasc>KG.GB</code_hasc><name>Bishkek</name><admin>Kyrgyzstan</admin><type_en>Region</type_en><region /><woe_id>20070194</woe_id><longitude>74</longitude><woe_name>Bishkek</woe_name><fips>KG01</fips><woe_label>Bishkek, KG, Kyrgyzstan</woe_label><latitude>42</latitude><iso_a2>KG</iso_a2><postal>GB</postal><type>Oblast</type><id>KG.GB</id></desc></path><path d="M508.437554071,208.838325587 L508.861657707,212.219557529 L506.186142523,212.622478874 L503.318115821,217.517366214 L485.122871791,218.569303643 L482.694894431,221.830845015 L477.182636928,220.312079324 L472.649668863,222.488289128 L463.841689568,221.082867057 L461.671173098,224.558650568 L452.420536246,227.913346447 L443.982546559,235.728467406 L439.322906123,235.037800797 L430.734182673,237.239812729 L424.123043644,237.134212027 L415.482265933,243.046882425 L414.778339282,246.176227613 L411.871446954,248.137859004 L405.61168063,252.465380456 L404.463397962,248.564363114 L398.606893348,250.23526098 L394.217788707,248.988624544 L390.569940262,250.455028859 L378.652562323,249.23764144 L374.61618818,251.188387261 L371.817242542,248.791722323 L360.497195461,251.709260516 L365.109141075,261.349170559 L357.179542989,261.436022087 L352.079626515,267.479606949 L349.028122258,265.886993706 L337.98479389,267.523517496 L331.585409137,266.585364983 L330.085583429,275.407844388 L332.898344654,277.949800837 L330.105762962,281.375946778 L329.978179863,285.267781527 L326.834556096,292.132710063 L324.905694425,293.06051698 L322.743867488,291.875857928 L320.571607088,293.199736717 L318.555684857,297.822816751 L317.65782321,292.712501645 L313.538644193,292.677457531 L309.847215984,286.708390219 L306.030370471,289.176380339 L297.542305523,289.771202173 L294.567496356,284.410630999 L291.899885256,284.284587379 L287.372224351,286.983819838 L280.181216795,284.397648971 L271.472222138,284.192502977 L268.147667994,279.406209884 L255.761641392,275.447148684 L254.880516428,273.792862387 L255.654713692,271.521954264 L252.324877515,269.65271418 L253.575790943,265.078840301 L264.676566679,261.237984523 L268.366007785,261.887066993 L274.290162218,260.525642417 L281.160478698,261.786016125 L285.862684524,259.715961196 L291.388651291,251.181433032 L290.42188929,248.455232751 L286.045117196,248.008954569 L284.517275028,244.969570504 L283.085554012,249.557353573 L279.752038295,250.668472151 L274.53788511,239.309249824 L274.349086012,233.350525179 L280.208798268,219.501517463 L279.710238704,211.05066216 L284.698729834,199.674901474 L299.197149127,192.971458789 L305.106436121,191.694438973 L307.225232163,185.968317385 L309.096597261,184.551806006 L313.62281033,187.539728329 L323.277818328,186.476052467 L324.471107072,184.718853045 L322.193185619,180.950241455 L335.694042012,189.613203023 L345.328044584,193.395760233 L348.562099144,198.169880436 L354.841792439,203.072027911 L363.9840917,205.107607062 L385.007359291,216.028586044 L405.415516078,217.45857049 L412.21347065,219.161922589 L417.199623258,215.558648549 L419.787381699,209.095481675 L421.412095964,208.198293427 L433.844876422,209.617824847 L437.850443951,208.202290614 L449.544288832,209.113502247 L454.857540628,210.661883706 L457.458688796,209.917047586 L459.406408603,211.941037431 L463.448664972,209.237761986 L469.908900542,210.975452463 L477.436162614,209.249486115 L485.052458271,204.227292081 L492.601481926,202.65328735 L502.929070848,204.8813474 L506.387975082,208.619551154 L508.437554071,208.838325587 Z" fill="#cee3f5" id="KG.834" stroke="#6e6e6e" stroke-width="0.4"><desc><labelrank>5</labelrank><code_hasc>KG.GB</code_hasc><name>Chuy</name><admin>Kyrgyzstan</admin><type_en>Region</type_en><region /><woe_id>20070195</woe_id><longitude>75</longitude><woe_name>Chuy</woe_name><fips>KG02</fips><woe_label>Chuy, KG, Kyrgyzstan</woe_label><latitude>42</latitude><iso_a2>KG</iso_a2><postal /><type>Oblast</type><id>KG.834</id></desc></path><path d="M576.630534504,352.138799301 L570.931425313,345.785034082 L559.675590072,350.47665109 L540.040577701,348.869987472 L538.990724639,346.56988894 L540.087123529,342.709427602 L538.307968982,341.604104043 L521.036119875,346.359442289 L524.688751896,336.408873166 L517.464346051,331.834432622 L515.997355066,326.697619786 L518.335210934,326.077314487 L519.367175332,323.116539247 L519.533221608,315.950412735 L511.433173229,319.653205773 L492.095970171,319.040126206 L485.884359587,320.821448758 L482.227839559,320.323784742 L480.023345527,318.361540082 L476.858554149,319.005113824 L480.877415282,305.637284204 L475.89287351,303.192679785 L464.829316889,303.958361735 L463.183361291,301.541216134 L465.467722453,298.775891595 L473.763936809,298.070052294 L475.719104441,290.651074686 L471.689292867,291.315442332 L464.573245756,287.948837187 L458.492157003,287.600529551 L452.276471975,285.293024143 L449.409498921,285.940447337 L444.834580897,283.410306862 L436.18848844,285.433747855 L435.858473476,283.710500881 L439.581426673,280.392078497 L440.335961136,277.420914896 L433.55446881,269.476745229 L434.971453354,262.079997805 L431.579520015,255.022010207 L428.149876091,253.853134891 L426.116194233,256.513706325 L420.343395581,257.094597736 L418.006101706,253.807995719 L413.053473551,251.970074454 L411.871446954,248.137859004 L414.778339282,246.176227613 L415.482265933,243.046882425 L424.123043644,237.134212027 L430.734182673,237.239812729 L439.322906123,235.037800797 L443.982546559,235.728467406 L452.420536246,227.913346447 L461.671173098,224.558650568 L463.841689568,221.082867057 L472.649668863,222.488289128 L477.182636928,220.312079324 L482.694894431,221.830845015 L485.122871791,218.569303643 L503.318115821,217.517366214 L506.186142523,212.622478874 L508.861657707,212.219557529 L508.437554071,208.838325587 L515.614907327,209.681195177 L522.067365645,207.501576244 L530.790052826,210.052567378 L533.971391777,208.387545158 L539.31467024,208.13131557 L543.4923556,208.996840012 L545.32789305,210.974559438 L549.812733436,208.985269914 L558.957695845,211.893337453 L571.184725169,210.572555075 L576.245187538,211.590533737 L583.427825179,208.775742836 L593.674242171,210.899181042 L599.55551552,214.469979988 L618.586309324,217.582231739 L629.59521447,214.658213957 L630.058201524,220.649729124 L632.166546459,225.365260837 L641.566015007,231.530561642 L646.530728842,240.308771033 L655.681301311,241.507419221 L663.351378076,240.222472217 L677.247143911,242.405543062 L687.703287909,251.754973452 L693.763312609,259.540624045 L696.581642246,260.981261273 L700.0,269.604898545 L698.681573812,273.942212956 L695.670480479,275.193700203 L679.994458562,275.929100683 L674.608369118,278.037783533 L669.221339801,288.587927028 L660.738166109,290.068442528 L647.376191916,298.734879563 L640.533805973,298.174584857 L635.343503656,302.958023397 L602.347268522,320.985107725 L600.081964521,325.636815213 L593.315151071,327.899399894 L584.093891654,334.708617798 L582.90591497,337.560132347 L583.782462998,343.695882444 L579.236484813,347.350145121 L576.630534504,352.138799301 Z" fill="#cee3f5" id="KG.YK" stroke="#6e6e6e" stroke-width="0.4"><desc><labelrank>5</labelrank><code_hasc>KG.YK</code_hasc><name>Ysyk-Köl</name><admin>Kyrgyzstan</admin><type_en>Region</type_en><region /><woe_id>20070190</woe_id><longitude>77</longitude><woe_name>Ysyk-Köl</woe_name><fips>KG06</fips><woe_label>Ysyk-Kol, KG, Kyrgyzstan</woe_label><latitude>42</latitude><iso_a2>KG</iso_a2><postal>YK</postal><type>Oblast</type><id>KG.YK</id></desc></path><path d="M576.630534504,352.138799301 L573.340691411,357.901946775 L566.029166854,364.123653692 L551.627868996,362.212521419 L540.350805263,368.079345121 L531.088621804,369.698236638 L520.190484305,366.686659672 L514.533115406,368.089353056 L506.642852486,367.784824431 L499.541048191,365.228196056 L490.302831663,368.027643736 L484.453765561,373.882811048 L484.343038099,382.057165647 L477.192601998,389.070908734 L475.00467828,403.145240077 L471.67112073,405.83369353 L466.757069008,416.756042335 L456.457250632,424.682183435 L453.781870557,417.12661968 L451.904445862,416.561192409 L446.05381835,422.752349414 L439.652323509,420.986493759 L433.978886893,423.799946066 L430.154086807,428.728362793 L421.834154808,427.864822182 L416.069839858,429.454982295 L413.226610787,421.580461721 L415.016839784,416.203959695 L411.861531599,412.570705132 L411.03296743,406.266638575 L408.079369828,400.978993117 L403.116405701,402.577179079 L384.797762545,417.103190848 L381.228865002,415.21708033 L376.52331039,416.89921437 L372.56130356,416.611172682 L364.697148944,411.774452478 L361.705849128,411.515153936 L353.943480005,410.759879965 L351.832868351,408.902910373 L346.18429429,407.634767414 L346.439337252,403.806935658 L345.045658376,401.836088616 L335.546626821,398.131884817 L331.655860559,395.092529818 L322.979189584,385.779718306 L321.711869698,381.789746603 L311.664831095,372.395819654 L318.216838831,364.393891905 L313.514284596,359.651440205 L314.436588319,356.804012241 L322.227401679,353.273497219 L334.428529636,352.556639148 L330.942794134,345.624277698 L350.175333977,338.466135196 L353.231082395,334.14681484 L356.906395718,319.475556694 L353.202537665,317.410536535 L343.348061606,322.748091022 L339.266272982,322.448044443 L335.158454251,324.578337118 L330.283911629,323.362624028 L323.643719574,324.526007203 L320.348009987,322.446405219 L313.72792424,322.523632828 L306.283870921,318.251083066 L304.060856874,313.697120083 L306.714479331,311.650603469 L311.469755916,312.60772487 L313.459082805,318.589017693 L317.108046289,319.917890203 L316.293439078,309.938694297 L308.468446094,308.005649849 L307.560830614,298.695592431 L305.135909555,297.718955786 L302.834913823,298.714259879 L299.089092005,296.541603762 L297.950380669,299.433461461 L295.448468733,298.501064288 L292.573656109,294.883445897 L295.02760495,294.065517125 L297.542305523,289.771202173 L306.030370471,289.176380339 L309.847215984,286.708390219 L313.538644193,292.677457531 L317.65782321,292.712501645 L318.555684857,297.822816751 L320.571607088,293.199736717 L322.743867488,291.875857928 L324.905694425,293.06051698 L326.834556096,292.132710063 L329.978179863,285.267781527 L330.105762962,281.375946778 L332.898344654,277.949800837 L330.085583429,275.407844388 L331.585409137,266.585364983 L337.98479389,267.523517496 L349.028122258,265.886993706 L352.079626515,267.479606949 L357.179542989,261.436022087 L365.109141075,261.349170559 L360.497195461,251.709260516 L371.817242542,248.791722323 L374.61618818,251.188387261 L378.652562323,249.23764144 L390.569940262,250.455028859 L394.217788707,248.988624544 L398.606893348,250.23526098 L404.463397962,248.564363114 L405.61168063,252.465380456 L411.871446954,248.137859004 L413.053473551,251.970074454 L418.006101706,253.807995719 L420.343395581,257.094597736 L426.116194233,256.513706325 L428.149876091,253.853134891 L431.579520015,255.022010207 L434.971453354,262.079997805 L433.55446881,269.476745229 L440.335961136,277.420914896 L439.581426673,280.392078497 L435.858473476,283.710500881 L436.18848844,285.433747855 L444.834580897,283.410306862 L449.409498921,285.940447337 L452.276471975,285.293024143 L458.492157003,287.600529551 L464.573245756,287.948837187 L471.689292867,291.315442332 L475.719104441,290.651074686 L473.763936809,298.070052294 L465.467722453,298.775891595 L463.183361291,301.541216134 L464.829316889,303.958361735 L475.89287351,303.192679785 L480.877415282,305.637284204 L476.858554149,319.005113824 L480.023345527,318.361540082 L482.227839559,320.323784742 L485.884359587,320.821448758 L492.095970171,319.040126206 L511.433173229,319.653205773 L519.533221608,315.950412735 L519.367175332,323.116539247 L518.335210934,326.077314487 L515.997355066,326.697619786 L517.464346051,331.834432622 L524.688751896,336.408873166 L521.036119875,346.359442289 L538.307968982,341.604104043 L540.087123529,342.709427602 L538.990724639,346.56988894 L540.040577701,348.869987472 L559.675590072,350.47665109 L570.931425313,345.785034082 L576.630534504,352.138799301 Z" fill="#cee3f5" id="KG.NA" stroke="#6e6e6e" stroke-width="0.4"><desc><labelrank>7</labelrank><code_hasc>KG.NA</code_hasc><name>Naryn</name><admin>Kyrgyzstan</admin><type_en>Region</type_en><region /><woe_id>20070191</woe_id><longitude>75</longitude><woe_name>Naryn</woe_name><fips>KG03</fips><woe_label>Naryn, KG, Kyrgyzstan</woe_label><latitude>41</latitude><iso_a2>KG</iso_a2><postal>NA</postal><type>Oblast</type><id>KG.NA</id></desc></path><path d="M181.054382996,428.875733144 L192.236796726,426.350097258 L193.864287124,427.163058396 L194.227305249,433.335328565 L192.621139078,435.354984807 L197.309879185,439.332045104 L195.217967154,443.080995511 L198.279728756,445.742728283 L197.529918154,454.955926901 L202.701354451,457.944557267 L205.557420236,463.162590271 L209.683508431,462.826545345 L214.326237877,471.216633886 L213.089879883,473.206759481 L196.131516708,481.169356732 L184.635536435,481.697713372 L165.443136843,475.232812729 L160.223015898,471.994656342 L149.527475893,477.42080906 L146.567843267,484.330044056 L143.414151006,481.935750182 L138.098058163,483.225940462 L129.469017079,489.557117454 L119.524429998,489.302699311 L117.326894298,490.610116031 L113.524136629,497.818577828 L111.390837061,498.789229956 L106.699886724,496.403401897 L97.9038701854,499.246105614 L94.2785085373,497.705673312 L93.6943979405,491.494749149 L90.9433348152,489.559965189 L89.0341775585,483.608582423 L87.5199772541,482.338463848 L82.8672914523,482.290414933 L79.8101261805,479.991700508 L73.666082398,482.223239556 L70.1757663366,481.856261365 L63.0090787031,486.009911204 L61.9129936158,485.530931946 L61.9916664685,477.530791128 L57.2623868697,483.103935967 L51.4064255726,480.805709657 L47.2342982564,483.861378437 L42.7005661362,482.426109095 L37.6335073691,483.164603068 L27.4067212959,479.077526167 L21.7432059473,479.093961887 L17.1615319852,481.83647935 L10.4726406645,482.478654695 L7.34358433503,479.942716376 L3.17479944325,482.809939943 L3.20937121134,469.185649998 L0.0,464.367571228 L0.0693244952195,459.507875786 L6.57044608537,443.423456187 L11.9742230601,451.395293794 L18.3129127607,449.576077654 L16.3720803766,440.807780762 L20.4183597238,432.684672208 L21.9117333487,434.626090042 L23.9998600532,434.710799606 L49.8358680557,427.165943314 L60.8877514059,434.045667117 L66.9285127634,434.728626594 L71.9983019563,439.633245557 L84.7469733778,443.965870902 L84.2861849291,447.293174392 L79.5361071819,451.777000916 L79.7117445993,454.352143442 L81.0785266927,454.915818743 L82.7710766662,451.676914386 L87.6950452585,450.944040041 L90.1976167298,449.095911503 L92.2854616673,440.041257532 L94.0675365573,438.516369327 L102.401458209,434.120566016 L111.240060574,433.757613082 L113.46836067,432.260944713 L114.628509718,430.268971755 L113.402139856,428.177095432 L115.828063956,425.922049422 L129.011625537,426.732805535 L132.610665272,421.810617792 L135.272858285,424.486412866 L139.633343019,424.641254922 L144.403921544,427.619246141 L147.893392084,431.979613293 L152.328840285,433.321952261 L153.919259304,433.227441478 L156.378892412,428.256700487 L158.310332426,431.212822405 L158.898367663,437.649947356 L160.177557635,438.264779637 L165.596611733,435.213616939 L169.688968458,429.561475024 L180.445757939,430.930669719 L181.802295748,429.838310311 L181.054382996,428.875733144 Z" fill="#cee3f5" id="KG.BA" stroke="#6e6e6e" stroke-width="0.4"><desc><labelrank>5</labelrank><code_hasc>KG.BA</code_hasc><name>Batken</name><admin>Kyrgyzstan</admin><type_en>Region</type_en><region /><woe_id>20070196</woe_id><longitude>70</longitude><woe_name>Batken</woe_name><fips>KG09</fips><woe_label>Batken, KG, Kyrgyzstan</woe_label><latitude>39</latitude><iso_a2>KG</iso_a2><postal>BA</postal><type>Oblast</type><id>KG.BA</id></desc></path><path d="M254.880516428,273.792862387 L255.761641392,275.447148684 L268.147667994,279.406209884 L271.472222138,284.192502977 L280.181216795,284.397648971 L287.372224351,286.983819838 L291.899885256,284.284587379 L294.567496356,284.410630999 L297.542305523,289.771202173 L295.02760495,294.065517125 L292.573656109,294.883445897 L295.448468733,298.501064288 L297.950380669,299.433461461 L299.089092005,296.541603762 L302.834913823,298.714259879 L305.135909555,297.718955786 L307.560830614,298.695592431 L308.468446094,308.005649849 L316.293439078,309.938694297 L317.108046289,319.917890203 L313.459082805,318.589017693 L311.469755916,312.60772487 L306.714479331,311.650603469 L304.060856874,313.697120083 L306.283870921,318.251083066 L313.72792424,322.523632828 L320.348009987,322.446405219 L323.643719574,324.526007203 L330.283911629,323.362624028 L335.158454251,324.578337118 L339.266272982,322.448044443 L343.348061606,322.748091022 L353.202537665,317.410536535 L356.906395718,319.475556694 L353.231082395,334.14681484 L350.175333977,338.466135196 L330.942794134,345.624277698 L334.428529636,352.556639148 L322.227401679,353.273497219 L314.436588319,356.804012241 L313.514284596,359.651440205 L318.216838831,364.393891905 L311.664831095,372.395819654 L304.481886405,368.512770768 L300.963443354,359.325724236 L291.303339741,369.627744477 L290.722745651,373.687122796 L285.929328877,371.697099294 L283.197235305,368.417838882 L290.150202326,361.081339887 L288.321983011,358.101040623 L286.068710082,358.399053666 L284.97219023,362.000305388 L275.147294173,361.587169902 L270.548920162,367.59399855 L269.125327846,367.900505456 L267.081804923,365.842762226 L263.315685393,368.402906227 L262.002006842,370.551754992 L262.054665516,377.291531192 L253.946000559,382.904527674 L248.771638542,382.704418183 L245.652005513,379.801723315 L237.094336776,383.950642658 L237.082778954,380.105637765 L223.72783269,379.509192859 L221.296278339,378.362212197 L216.784431376,371.839748977 L212.872935124,370.551779853 L212.87346872,367.35050104 L207.412194341,366.082649618 L203.561393616,361.713246233 L200.737740713,365.753838438 L192.775913908,367.525847176 L194.238215608,362.441164472 L192.864651946,351.742795878 L189.733874734,350.925519413 L184.898940593,354.094980572 L181.423895453,350.742313478 L174.760610019,350.567099226 L173.654127045,338.186174515 L167.585112559,328.662879311 L166.013005774,330.954293025 L164.478101975,328.99528319 L162.88511339,330.774234955 L164.210298698,325.101494032 L163.245497358,320.574635492 L160.464741003,320.817370636 L158.294519651,324.871551002 L160.73036665,330.20597716 L157.108277067,339.09177661 L153.126887448,341.185128211 L146.673980325,336.669962102 L145.744560276,355.071114103 L144.275163556,356.235938951 L140.10382579,352.32390297 L136.841514667,355.888188654 L134.87509046,350.606080383 L132.703468912,349.372532058 L131.365790652,350.028678848 L130.748078081,356.044193187 L127.324812367,351.695211999 L121.224369432,348.77258733 L114.254543994,348.17618311 L109.065215497,343.227676616 L105.354285633,343.936411765 L105.739915628,334.429210725 L99.8478317281,324.133794998 L86.0518457675,328.952369134 L79.5974420021,321.197878027 L68.5309632131,318.3728816 L67.5323977931,315.609984768 L68.9758925053,313.51784876 L87.4344025472,303.299868896 L91.0675213702,297.323187566 L100.422023437,289.264879666 L110.873205619,287.089729172 L113.290311862,277.913056961 L121.558806928,277.145231506 L130.669500247,270.970045888 L138.268550115,268.180474241 L139.134450388,265.02122163 L149.702754953,266.951136244 L162.626082105,265.626946173 L174.519680088,271.273292491 L178.640989291,271.79322645 L189.285603892,277.603008573 L195.705844831,277.02573802 L200.388627499,268.421829494 L207.682621771,266.939703296 L210.474015108,267.2940073 L212.861201981,270.505723694 L218.086070025,270.934941607 L221.233964733,272.756171639 L224.765729233,271.964231706 L231.433139905,275.346722576 L236.373809182,279.896414163 L240.638683695,279.365548933 L241.823183453,276.014244595 L244.530002639,274.488205247 L250.585282139,273.131692723 L254.880516428,273.792862387 Z" fill="#cee3f5" id="KG.DA" stroke="#6e6e6e" stroke-width="0.4"><desc><labelrank>5</labelrank><code_hasc>KG.DA</code_hasc><name>Jalal-Abad</name><admin>Kyrgyzstan</admin><type_en>Region</type_en><region /><woe_id>20070193</woe_id><longitude>72</longitude><woe_name>Jalal-Abad</woe_name><fips>KG02</fips><woe_label>Jalal-Abad, KG, Kyrgyzstan</woe_label><latitude>41</latitude><iso_a2>KG</iso_a2><postal>DA</postal><type>Oblast</type><id>KG.DA</id></desc></path><path d="M279.752038295,250.668472151 L283.085554012,249.557353573 L284.517275028,244.969570504 L286.045117196,248.008954569 L290.42188929,248.455232751 L291.388651291,251.181433032 L285.862684524,259.715961196 L281.160478698,261.786016125 L274.290162218,260.525642417 L268.366007785,261.887066993 L264.676566679,261.237984523 L253.575790943,265.078840301 L252.324877515,269.65271418 L255.654713692,271.521954264 L254.880516428,273.792862387 L250.585282139,273.131692723 L244.530002639,274.488205247 L241.823183453,276.014244595 L240.638683695,279.365548933 L236.373809182,279.896414163 L231.433139905,275.346722576 L224.765729233,271.964231706 L221.233964733,272.756171639 L218.086070025,270.934941607 L212.861201981,270.505723694 L210.474015108,267.2940073 L207.682621771,266.939703296 L200.388627499,268.421829494 L195.705844831,277.02573802 L189.285603892,277.603008573 L178.640989291,271.79322645 L174.519680088,271.273292491 L162.626082105,265.626946173 L149.702754953,266.951136244 L139.134450388,265.02122163 L126.796758486,256.70109186 L120.539274705,259.996798818 L117.487068487,258.721537284 L114.861414581,254.864635111 L120.114100762,249.237369499 L122.294914468,241.633888248 L123.278390567,240.78792895 L127.140833199,242.97846168 L128.635651225,241.745942018 L125.226534783,233.770834327 L132.988781451,231.8614219 L135.247517846,223.803443052 L138.639560271,222.507526678 L141.969612749,218.603031566 L147.175743364,219.730182669 L150.880024867,215.527256058 L156.99796224,216.226599414 L160.715471124,219.092927487 L168.73917184,214.840595058 L178.308113258,213.343455255 L193.902126298,220.916491637 L197.59533933,219.806165698 L205.491408894,220.403332122 L216.662248304,227.323328066 L231.970501242,230.243779034 L240.926349071,239.592142496 L255.817355353,239.371528774 L260.340960668,241.987528795 L267.270500555,243.277135562 L268.676488526,249.865926065 L277.971121523,252.518892575 L279.726315293,252.225736858 L279.752038295,250.668472151 Z" fill="#cee3f5" id="KG.TL" stroke="#6e6e6e" stroke-width="0.4"><desc><labelrank>7</labelrank><code_hasc>KG.TL</code_hasc><name>Talas</name><admin>Kyrgyzstan</admin><type_en>Region</type_en><region /><woe_id>20070192</woe_id><longitude>72</longitude><woe_name>Talas</woe_name><fips>KG04</fips><woe_label>Talas, KG, Kyrgyzstan</woe_label><latitude>42</latitude><iso_a2>KG</iso_a2><postal>TL</postal><type>Oblast</type><id>KG.TL</id></desc></path><path d="M311.664831095,372.395819654 L321.711869698,381.789746603 L322.979189584,385.779718306 L331.655860559,395.092529818 L335.546626821,398.131884817 L345.045658376,401.836088616 L346.439337252,403.806935658 L346.18429429,407.634767414 L351.832868351,408.902910373 L353.943480005,410.759879965 L361.705849128,411.515153936 L358.821728586,418.816066031 L363.060570596,424.001773842 L363.585247838,426.733750863 L353.578417076,426.281508589 L329.624154261,446.017640849 L318.960856683,444.869020024 L308.412795216,448.572432477 L305.968789903,450.848129351 L300.284776796,464.851570168 L296.503279211,469.764555759 L296.859045876,474.678884689 L300.950797155,477.790691241 L302.982615773,487.642834484 L299.290279966,491.45250581 L295.986055517,497.98338952 L283.770234798,499.470409088 L273.696318834,497.934458024 L266.584066788,499.564859786 L263.828389268,503.940620807 L253.4813591,506.709448758 L247.228815031,505.295315244 L243.176695108,507.057713007 L231.892007627,506.162564084 L218.892234282,502.63216635 L215.051097499,505.475195701 L211.405242491,504.005231079 L208.592603353,506.401070171 L203.181583348,505.853802636 L198.134275614,507.548546336 L192.097799028,519.049758545 L190.562929483,514.68554384 L183.597624974,511.597924207 L180.93143168,503.659280325 L174.982710332,505.387204439 L164.887535618,511.153067572 L161.263656413,510.90713177 L158.78562114,506.905265946 L161.379267682,502.091597043 L161.077453287,496.320512172 L158.79788563,495.346022713 L149.007217522,496.221824956 L146.367036735,494.890858737 L145.13364252,491.9252959 L147.870539203,487.053313441 L146.567843267,484.330044056 L149.527475893,477.42080906 L160.223015898,471.994656342 L165.443136843,475.232812729 L184.635536435,481.697713372 L196.131516708,481.169356732 L213.089879883,473.206759481 L214.326237877,471.216633886 L209.683508431,462.826545345 L205.557420236,463.162590271 L202.701354451,457.944557267 L197.529918154,454.955926901 L198.279728756,445.742728283 L195.217967154,443.080995511 L197.309879185,439.332045104 L192.621139078,435.354984807 L194.227305249,433.335328565 L193.864287124,427.163058396 L192.236796726,426.350097258 L181.054382996,428.875733144 L177.599332133,426.709690932 L177.583861061,424.268456772 L183.216649371,421.642425633 L187.019632803,415.316787203 L191.34950294,413.107954297 L197.005622123,412.962310258 L197.307642591,414.304246042 L194.198686034,415.613002974 L205.769531785,418.994722351 L207.995621239,413.20708206 L204.120114232,408.658452215 L203.606689712,401.137133814 L205.523051927,400.342242018 L209.627125202,404.788801241 L218.303466752,409.363281661 L220.841013277,409.285144684 L223.464353364,403.72384798 L226.942795591,404.896314708 L228.823702102,404.088382155 L231.290369631,396.236448294 L252.772513108,387.258677588 L254.771709624,384.728443425 L253.946000559,382.904527674 L262.054665516,377.291531192 L262.002006842,370.551754992 L263.315685393,368.402906227 L267.081804923,365.842762226 L269.125327846,367.900505456 L270.548920162,367.59399855 L275.147294173,361.587169902 L284.97219023,362.000305388 L286.068710082,358.399053666 L288.321983011,358.101040623 L290.150202326,361.081339887 L283.197235305,368.417838882 L285.929328877,371.697099294 L290.722745651,373.687122796 L291.303339741,369.627744477 L300.963443354,359.325724236 L304.481886405,368.512770768 L311.664831095,372.395819654 Z" fill="#cee3f5" id="KG.OS" stroke="#6e6e6e" stroke-width="0.4"><desc><labelrank>7</labelrank><code_hasc>KG.OS</code_hasc><name>Osh</name><admin>Kyrgyzstan</admin><type_en>Region</type_en><region /><woe_id>20070197</woe_id><longitude>73</longitude><woe_name>Osh</woe_name><fips>KG08</fips><woe_label>Osh, KG, Kyrgyzstan</woe_label><latitude>40</latitude><iso_a2>KG</iso_a2><postal>OS</postal><type>Oblast</type><id>KG.OS</id></desc></path></svg>