<?xml version='1.0' encoding='utf-8'?>
<svg height="700" width="700" xmlns="http://www.w3.org/2000/svg"><path d="M648.203715044,238.33435395 L636.344151868,240.620534803 L629.12839355,239.406001225 L627.985303123,250.908348643 L622.984282507,266.840171464 L620.055113288,268.483363952 L605.337824046,261.053276179 L595.478669116,261.55337824 L582.76178812,273.627270872 L569.616248214,277.127985303 L553.041437028,293.202694427 L543.539497857,292.774035517 L525.392937334,275.27046336 L529.750969586,265.697081037 L528.965094917,260.553174117 L534.323331292,256.695243927 L535.252092264,244.978567055 L538.53847724,241.33496632 L555.827719943,233.547662788 L557.399469279,219.544805062 L568.330271484,204.184527455 L565.186772811,198.040416412 L559.328434374,197.183098592 L563.329250868,185.323535415 L562.900591958,150.74505001 L573.116962645,137.456623801 L565.686874872,125.025515411 L566.901408451,113.594611145 L572.688303735,113.951826903 L576.832006532,103.735456216 L590.834864258,95.8052663809 L594.478464993,90.5184731578 L592.835272505,88.9467238212 L615.054092672,85.0173504797 L620.769544805,75.3725250051 L636.772810778,75.3725250051 L664.064094713,111.808532354 L672.137170851,153.459889773 L689.569299857,155.03163911 L696.927944478,163.962033068 L700.0,163.676260461 L696.785058175,173.035313329 L696.284956113,187.68115942 L693.57011635,192.110634823 L698.642580118,197.897530108 L696.856501327,204.684629516 L672.137170851,220.402122882 L661.420698102,218.401714636 L649.061032864,232.976117575 L648.203715044,238.33435395 Z" fill="#cee3f5" id="NG.BO" stroke="#6e6e6e" stroke-width="0.4"><desc><labelrank>3</labelrank><code_hasc>NG.BO</code_hasc><name>Borno</name><admin>Nigeria</admin><type_en>State</type_en><region /><woe_id>2346355</woe_id><longitude>13</longitude><woe_name>Borno</woe_name><fips>NI27</fips><woe_label>Borno, NG, Nigeria</woe_label><latitude>12</latitude><iso_a2>NG</iso_a2><postal>BO</postal><type>State</type><id>NG.BO</id></desc></path><path d="M285.558277199,533.39457032 L285.129618289,540.610328638 L297.203510921,542.467850582 L305.848132272,550.040824658 L310.49193713,567.615839967 L309.706062462,569.687691366 L306.919779547,569.187589304 L295.631761584,559.828536436 L291.845274546,560.542967953 L292.345376607,571.259440702 L284.986731986,572.688303735 L284.558073076,587.619922433 L281.2716881,591.692182078 L281.557460706,596.550316391 L282.843437436,598.907940396 L283.272096346,601.337007553 L273.913043478,597.764849969 L264.411104307,598.050622576 L263.625229639,593.406817718 L269.69789753,584.190651153 L269.983670137,581.332925087 L268.84057971,579.118187385 L273.198611962,566.758522147 L277.913859971,558.614002858 L276.985099,541.038987548 L268.84057971,536.109410084 L275.556235967,530.536844254 L281.70034701,530.465401102 L285.558277199,533.39457032 Z" fill="#cee3f5" id="NG.AB" stroke="#6e6e6e" stroke-width="0.4"><desc><labelrank>3</labelrank><code_hasc>NG.AB</code_hasc><name>Abia</name><admin>Nigeria</admin><type_en>State</type_en><region /><woe_id>2346362</woe_id><longitude>7</longitude><woe_name>Abia</woe_name><fips>NI45</fips><woe_label>Abia, NG, Nigeria</woe_label><latitude>5</latitude><iso_a2>NG</iso_a2><postal>AB</postal><type>State</type><id>NG.AB</id></desc></path><path d="M306.919779547,569.187589304 L305.276587059,571.045111247 L306.919779547,574.61726883 L316.707491325,578.117983262 L318.63645642,591.477852623 L330.638905899,603.480302102 L333.996734027,612.696468667 L329.995917534,617.197387222 L314.849969382,616.625842009 L295.417432129,620.197999592 L285.772606654,617.55460298 L286.487038171,607.624004899 L285.415390896,608.124106961 L285.486834048,606.695243927 L284.986731986,604.480506226 L283.272096346,601.337007553 L282.843437436,598.907940396 L281.557460706,596.550316391 L281.2716881,591.692182078 L284.558073076,587.619922433 L284.986731986,572.688303735 L292.345376607,571.259440702 L291.845274546,560.542967953 L295.631761584,559.828536436 L306.919779547,569.187589304 Z" fill="#cee3f5" id="NG.AK" stroke="#6e6e6e" stroke-width="0.4"><desc><labelrank>3</labelrank><code_hasc>NG.AK</code_hasc><name>Akwa Ibom</name><admin>Nigeria</admin><type_en>State</type_en><region /><woe_id>2346349</woe_id><longitude>7</longitude><woe_name>Akwa Ibom</woe_name><fips>NI21</fips><woe_label>Akwa Ibom, NG, Nigeria</woe_label><latitude>4</latitude><iso_a2>NG</iso_a2><postal>AK</postal><type>State</type><id>NG.AK</id></desc></path><path d="M268.84057971,579.118187385 L246.335986936,579.046744234 L240.120432741,575.04592774 L237.762808736,572.545417432 L237.691365585,570.545009186 L238.548683405,568.616044091 L239.048785466,564.472341294 L236.61971831,561.900387834 L232.404572362,562.257603593 L231.975913452,560.971626863 L233.833435395,551.684017146 L234.547866912,549.612165748 L238.477240253,546.540110227 L247.979179424,545.682792407 L253.265972647,537.181057359 L268.84057971,536.109410084 L276.985099,541.038987548 L277.913859971,558.614002858 L273.198611962,566.758522147 L268.84057971,579.118187385 Z" fill="#cee3f5" id="NG.IM" stroke="#6e6e6e" stroke-width="0.4"><desc><labelrank>3</labelrank><code_hasc>NG.IM</code_hasc><name>Imo</name><admin>Nigeria</admin><type_en>State</type_en><region /><woe_id>2346356</woe_id><longitude>7</longitude><woe_name>Imo</woe_name><fips>NI28</fips><woe_label>Imo, NG, Nigeria</woe_label><latitude>5</latitude><iso_a2>NG</iso_a2><postal>IM</postal><type>State</type><id>NG.IM</id></desc></path><path d="M280.628699735,621.483976322 L288.416003266,620.912431108 L279.414166156,623.841600327 L273.841600327,622.341294142 L277.84241682,620.12655644 L280.628699735,621.483976322 M269.197795468,620.12655644 L273.55582772,620.483772198 L271.555419473,625.056133905 L262.625025515,626.770769545 L267.483159829,618.054705042 L269.197795468,620.12655644 M232.404572362,562.257603593 L236.61971831,561.900387834 L239.048785466,564.472341294 L238.548683405,568.616044091 L237.762808736,572.545417432 L240.120432741,575.04592774 L246.335986936,579.046744234 L268.84057971,579.118187385 L269.983670137,581.332925087 L269.69789753,584.190651153 L263.625229639,593.406817718 L264.411104307,598.050622576 L273.913043478,597.764849969 L279.342723005,598.693610941 L283.272096346,601.337007553 L284.986731986,604.480506226 L285.486834048,606.695243927 L285.415390896,608.124106961 L284.486629924,609.481526842 L284.272300469,612.625025515 L284.129414166,615.339865279 L280.771586038,616.911614615 L270.55521535,614.053888549 L269.912226985,616.482955705 L273.627270872,618.269034497 L270.483772198,619.69789753 L258.195550112,604.837721984 L264.839763217,618.912022862 L260.553174117,622.912839355 L258.552765871,619.69789753 L258.552765871,623.341498265 L256.480914472,623.698714023 L254.051847316,615.268422127 L256.552357624,611.624821392 L251.765666463,606.409471321 L253.265972647,613.625229639 L248.193508879,610.124515207 L249.693815064,615.625637885 L252.908756889,615.482751582 L255.194937742,626.55644009 L246.836088998,626.55644009 L243.192488263,617.483159829 L244.835680751,612.41069606 L240.406205348,605.552153501 L241.263523168,601.265564401 L237.191263523,600.265360278 L243.621147173,613.982445397 L241.906511533,616.411512554 L246.264543784,628.128189426 L237.119820372,628.485405185 L238.33435395,613.625229639 L233.261890182,611.481935089 L231.9044703,607.409675444 L228.260869565,605.123494591 L221.545213309,607.123902837 L221.187997551,604.194733619 L219.044703001,602.980200041 L217.687283119,601.194121249 L217.687283119,598.836497244 L218.401714636,596.836088998 L220.330679731,592.906715656 L221.402327006,591.76362523 L220.545009186,590.620534803 L220.330679731,590.04898959 L220.187793427,589.334558073 L220.187793427,588.191467646 L220.473566034,586.691161462 L223.902837314,578.546642172 L226.617677077,576.33190447 L229.403959992,572.259644825 L230.475607267,572.04531537 L231.618697693,570.830781792 L231.618697693,570.402122882 L231.47581139,570.116350276 L229.546846295,567.830169422 L224.117166769,567.330067361 L223.116962645,564.758113901 L223.045519494,564.686670749 L224.331496224,563.543580323 L225.688916105,562.900591958 L227.332108594,560.971626863 L230.832823025,547.897530108 L232.618901817,549.469279445 L234.547866912,549.612165748 L233.833435395,551.684017146 L231.975913452,560.971626863 L232.404572362,562.257603593 Z" fill="#cee3f5" id="NG.RI" stroke="#6e6e6e" stroke-width="0.4"><desc><labelrank>3</labelrank><code_hasc>NG.RI</code_hasc><name>Rivers</name><admin>Nigeria</admin><type_en>State</type_en><region /><woe_id>2346344</woe_id><longitude>6</longitude><woe_name>Rivers</woe_name><fips>NI50</fips><woe_label>Rivers, NG, Nigeria</woe_label><latitude>4</latitude><iso_a2>NG</iso_a2><postal>RI</postal><type>State</type><id>NG.RI</id></desc></path><path d="M163.104715248,582.33312921 L175.178607879,588.834456011 L187.538273117,584.90508267 L191.896305368,580.975709328 L197.897530108,584.262094305 L207.399469279,579.618289447 L207.328026128,575.546029802 L212.043274138,574.903041437 L214.686670749,570.616452337 L224.117166769,567.330067361 L229.546846295,567.830169422 L231.47581139,570.116350276 L231.618697693,570.402122882 L231.618697693,570.830781792 L230.475607267,572.04531537 L229.403959992,572.259644825 L226.617677077,576.33190447 L223.902837314,578.546642172 L222.259644825,584.404980608 L220.473566034,586.691161462 L220.187793427,588.191467646 L220.187793427,589.334558073 L220.330679731,590.04898959 L220.545009186,590.620534803 L220.902224944,591.263523168 L221.402327006,591.76362523 L220.330679731,592.906715656 L219.616248214,595.050010206 L218.401714636,596.836088998 L217.687283119,598.836497244 L217.687283119,601.194121249 L221.545213309,607.123902837 L228.260869565,605.123494591 L231.9044703,607.409675444 L233.261890182,611.481935089 L237.548479281,614.55399061 L235.905286793,624.484588692 L234.690753215,617.98326189 L233.476219637,619.26923862 L234.833639518,629.771381915 L230.975709328,629.55705246 L229.118187385,619.483568075 L227.332108594,619.626454378 L229.618289447,622.984282507 L228.47519902,629.628495611 L225.546029802,630.342927128 L220.473566034,628.914064095 L210.757297408,632.057562768 L209.399877526,630.41437028 L214.472341294,623.627270872 L210.328638498,625.984894877 L209.185548071,619.983670137 L209.542763829,625.199020208 L206.756480914,623.198611962 L207.613798734,632.200449071 L200.469483568,632.914880588 L201.041028781,627.199428455 L198.111859563,624.556031843 L198.469075321,631.914676465 L194.611145132,630.485813431 L194.11104307,624.770361298 L192.539293733,629.628495611 L188.324147785,627.556644213 L186.895284752,623.55582772 L181.965707287,622.341294142 L169.248826291,609.410083691 L158.675239845,582.833231272 L163.962033068,584.690753215 L163.104715248,582.33312921 Z" fill="#cee3f5" id="NG.BY" stroke="#6e6e6e" stroke-width="0.4"><desc><labelrank>3</labelrank><code_hasc>NG.BY</code_hasc><name>Bayelsa</name><admin>Nigeria</admin><type_en>State</type_en><region /><woe_id>20070152</woe_id><longitude>5</longitude><woe_name>Bayelsa</woe_name><fips>NI52</fips><woe_label>Bayelsa, NG, Nigeria</woe_label><latitude>4</latitude><iso_a2>NG</iso_a2><postal>BY</postal><type>State</type><id>NG.BY</id></desc></path><path d="M381.79220249,419.15697081 L379.22024903,425.301081853 L387.36476832,422.657685242 L405.368442539,423.372116759 L423.300673607,439.804041641 L425.944070218,446.591141049 L423.300673607,460.593998775 L413.584404981,471.453357828 L409.869361094,501.102265769 L400.653194529,507.17493366 L390.7940396,494.029393754 L385.578689528,491.385997142 L371.361502347,492.886303327 L369.361094101,485.313329251 L358.073076138,479.740763421 L350.214329455,480.812410696 L347.070830782,487.670953256 L337.283119004,487.956725862 L330.281690141,492.100428659 L325.923657889,485.241886099 L320.065319453,490.028577261 L312.992447438,490.885895081 L308.920187793,501.245152072 L302.918963054,494.74382527 L304.990814452,486.384976526 L302.847519902,481.241069606 L291.916717697,481.098183303 L286.201265564,475.597060625 L283.343539498,468.52418861 L291.559501939,472.096346193 L292.702592366,467.095325577 L300.489895897,462.880179628 L306.062461727,448.520106144 L300.418452745,446.734027353 L298.703817106,428.444580527 L294.131455399,422.086140029 L293.559910186,412.584200857 L320.208205756,419.228413962 L337.711777914,427.372933252 L333.925290876,414.084507042 L338.140436824,407.154521331 L345.927740355,406.297203511 L362.002449479,411.155337824 L370.575627679,410.869565217 L381.79220249,419.15697081 Z" fill="#cee3f5" id="NG.BE" stroke="#6e6e6e" stroke-width="0.4"><desc><labelrank>3</labelrank><code_hasc>NG.BE</code_hasc><name>Benue</name><admin>Nigeria</admin><type_en>State</type_en><region /><woe_id>2346354</woe_id><longitude>8</longitude><woe_name>Benue</woe_name><fips>NI26</fips><woe_label>Benue, NG, Nigeria</woe_label><latitude>7</latitude><iso_a2>NG</iso_a2><postal>BE</postal><type>State</type><id>NG.BE</id></desc></path><path d="M400.653194529,507.17493366 L392.008573178,513.319044703 L370.932843437,537.966932027 L367.360685854,537.466829965 L362.859767299,541.753419065 L363.859971423,546.397223923 L361.288017963,549.25494999 L366.289038579,555.613390488 L362.788324148,561.686058379 L360.144927536,581.261481935 L348.499693815,597.621963666 L349.14268218,600.551132884 L345.427638294,602.194325373 L344.284547867,607.766891202 L337.140232701,605.409267197 L337.854664217,599.622371913 L334.139620331,602.551541131 L323.351704429,591.192080016 L330.638905899,603.480302102 L318.63645642,591.477852623 L316.707491325,578.117983262 L306.919779547,574.61726883 L305.276587059,571.045111247 L306.919779547,569.187589304 L309.706062462,569.687691366 L310.49193713,567.615839967 L305.848132272,550.040824658 L311.563584405,532.251479894 L318.779342723,534.751990202 L324.280465401,530.036742192 L327.566850378,530.751173709 L335.425597061,517.962849561 L335.211267606,510.246989181 L338.711982037,506.389058992 L330.281690141,492.100428659 L337.283119004,487.956725862 L347.070830782,487.670953256 L350.214329455,480.812410696 L358.073076138,479.740763421 L369.361094101,485.313329251 L371.361502347,492.886303327 L385.578689528,491.385997142 L390.7940396,494.029393754 L400.653194529,507.17493366 Z" fill="#cee3f5" id="NG.CR" stroke="#6e6e6e" stroke-width="0.4"><desc><labelrank>3</labelrank><code_hasc>NG.CR</code_hasc><name>Cross River</name><admin>Nigeria</admin><type_en>State</type_en><region /><woe_id>2346350</woe_id><longitude>8</longitude><woe_name>Cross River</woe_name><fips>NI22</fips><woe_label>Cross River, NG, Nigeria</woe_label><latitude>5</latitude><iso_a2>NG</iso_a2><postal>CR</postal><type>State</type><id>NG.CR</id></desc></path><path d="M492.529087569,320.279648908 L519.320269443,319.708103695 L524.821392121,329.781588079 L533.537456624,334.996938151 L537.109614207,346.927944478 L545.325576648,355.072463768 L545.754235558,359.144723413 L539.967340274,371.361502347 L539.324351909,379.506021637 L512.890385793,410.083690549 L519.463155746,422.229026332 L527.250459277,416.799346805 L536.538068994,424.800979792 L542.467850582,445.519493774 L532.751581956,456.807511737 L540.824658093,467.595427638 L537.109614207,468.0955297 L522.606654419,479.740763421 L521.034905083,493.314962237 L514.176362523,497.672994489 L509.961216575,505.317411717 L496.387017759,505.88895693 L491.743212901,487.885282711 L484.241681976,485.313329251 L479.669320269,475.882833231 L467.166768728,470.167381098 L464.66625842,465.023474178 L459.879567259,480.097979179 L443.090426618,479.955092876 L439.089610125,472.3821188 L423.372116759,485.384772403 L418.29965299,484.956113493 L412.727087161,500.459277404 L409.869361094,501.102265769 L413.584404981,471.453357828 L423.300673607,460.593998775 L425.944070218,446.591141049 L423.300673607,439.804041641 L405.368442539,423.372116759 L387.36476832,422.657685242 L379.22024903,425.301081853 L381.79220249,419.15697081 L393.508879363,410.726678914 L392.794447846,404.011022658 L389.650949173,400.081649316 L391.437027965,395.437844458 L403.868136354,397.509695856 L407.868952848,393.437436211 L419.728516024,392.08001633 L436.517656665,379.148805879 L443.733414983,370.004082466 L466.523780363,362.002449479 L468.024086548,348.785466422 L462.880179628,325.709328434 L480.598081241,320.065319453 L492.529087569,320.279648908 Z" fill="#cee3f5" id="NG.TA" stroke="#6e6e6e" stroke-width="0.4"><desc><labelrank>3</labelrank><code_hasc>NG.TA</code_hasc><name>Taraba</name><admin>Nigeria</admin><type_en>State</type_en><region /><woe_id>2346371</woe_id><longitude>10</longitude><woe_name>Taraba</woe_name><fips>NI43</fips><woe_label>Taraba, NG, Nigeria</woe_label><latitude>7</latitude><iso_a2>NG</iso_a2><postal>TA</postal><type>State</type><id>NG.TA</id></desc></path><path d="M208.756889161,370.789957134 L201.041028781,391.365584813 L178.750765462,388.436415595 L167.605633803,382.292304552 L164.962237191,384.649928557 L157.746478873,394.866299245 L168.177179016,405.939987753 L168.605837926,409.440702184 L160.17554603,410.226576852 L157.817922025,414.941824862 L154.388650745,415.370483772 L140.885895081,411.512553582 L131.169626454,408.440498061 L110.951214534,411.012451521 L99.5917534191,394.580526638 L90.5184731578,371.933047561 L90.5899163095,364.788732394 L98.3772198408,356.644213105 L97.3770157175,354.358032251 L92.8760971627,356.072667891 L81.6595223515,352.500510308 L71.2288222086,343.14145744 L65.7276995305,345.28475199 L61.0838946724,354.143702796 L34.3641559502,368.003674219 L28.5772606654,366.717697489 L15.1459481527,376.791181874 L4.7152480098,380.577668912 L3.78648703817,365.503163911 L6.71565625638,349.285568483 L24.7907736273,347.356603388 L29.3631353337,335.997142274 L28.4343743621,325.995101041 L35.2214737702,315.707287201 L40.2939375383,314.635639927 L40.0796080833,305.848132272 L52.1535007144,302.418860992 L60.2265768524,286.844253929 L75.0153092468,285.772606654 L80.6593182282,287.701571749 L100.020412329,311.206368647 L103.806899367,312.492345377 L105.878750765,328.924270259 L115.309246785,329.210042866 L115.809348847,334.996938151 L122.667891406,337.997550521 L124.239640743,345.427638294 L138.099612166,342.784241682 L146.45846091,347.785262298 L149.88773219,354.000816493 L169.105939988,358.787507655 L183.82322923,369.718309859 L208.756889161,370.789957134 Z" fill="#cee3f5" id="NG.KW" stroke="#6e6e6e" stroke-width="0.4"><desc><labelrank>3</labelrank><code_hasc>NG.KW</code_hasc><name>Kwara</name><admin>Nigeria</admin><type_en>State</type_en><region /><woe_id>2346358</woe_id><longitude>4</longitude><woe_name>Kwara</woe_name><fips>NI30</fips><woe_label>Kwara, NG, Nigeria</woe_label><latitude>8</latitude><iso_a2>NG</iso_a2><postal>KW</postal><type>State</type><id>NG.KW</id></desc></path><path d="M97.5199020208,509.032455603 L69.7285160237,505.174525413 L44.5090834864,506.246172688 L41.0798122066,504.17432129 L43.6517656665,503.31700347 L50.2959787712,503.674219228 L52.0820575628,500.459277404 L69.0855276587,495.101041029 L64.0845070423,493.886507451 L49.5815472545,499.316186977 L46.6523780363,498.530312309 L46.7952643397,494.886711574 L42.1514594815,497.815880792 L40.1510512349,503.817105532 L41.0083690549,506.960604205 L0.714431516636,508.246580935 L1.28597672994,501.959583588 L8.57317819963,502.531128802 L11.9310063278,499.03041437 L28.2914880588,499.316186977 L34.7928148602,488.742600531 L42.2943457849,492.457644417 L44.9377423964,489.885690957 L79.3733414983,490.028577261 L82.9454990814,491.028781384 L80.9450908349,497.31577873 L89.8040416412,496.815676669 L86.5176566646,502.602571953 L97.7342314758,505.674627475 L97.5199020208,509.032455603 Z" fill="#cee3f5" id="NG.LA" stroke="#6e6e6e" stroke-width="0.4"><desc><labelrank>7</labelrank><code_hasc>NG.LA</code_hasc><name>Lagos</name><admin>Nigeria</admin><type_en>State</type_en><region /><woe_id>2346342</woe_id><longitude>3</longitude><woe_name>Lagos</woe_name><fips>NI05</fips><woe_label>Lagos, NG, Nigeria</woe_label><latitude>6</latitude><iso_a2>NG</iso_a2><postal>LA</postal><type>State</type><id>NG.LA</id></desc></path><path d="M198.683404776,230.475607267 L206.470708308,245.192896509 L203.612982241,248.479281486 L202.25556236,267.55460298 L206.899367218,274.770361298 L221.759542764,262.339252909 L225.90324556,261.481935089 L229.975505205,264.696876914 L238.691569708,262.696468667 L241.620738926,258.695652174 L245.550112268,259.552969994 L246.407430088,265.482751582 L252.551541131,267.911818739 L251.837109614,274.698918147 L258.981424781,278.69973464 L258.838538477,280.700142886 L248.693610941,290.059195754 L255.480710349,295.274545826 L271.269646867,297.703612982 L272.198407838,309.277403552 L267.626046132,311.563584405 L272.126964687,314.849969382 L274.627474995,320.708307818 L267.626046132,330.710349051 L270.12655644,337.854664217 L272.984282507,337.711777914 L264.339661155,349.428454787 L252.622984283,341.4268218 L240.406205348,342.498469075 L240.4776485,386.150234742 L244.907123903,390.008164932 L236.476832007,401.724841804 L223.259848949,388.436415595 L217.758726271,373.719126352 L208.756889161,370.789957134 L183.82322923,369.718309859 L169.105939988,358.787507655 L149.88773219,354.000816493 L146.45846091,347.785262298 L138.099612166,342.784241682 L124.239640743,345.427638294 L122.667891406,337.997550521 L115.809348847,334.996938151 L115.309246785,329.210042866 L105.878750765,328.924270259 L103.806899367,312.492345377 L100.020412329,311.206368647 L80.6593182282,287.701571749 L75.0153092468,285.772606654 L60.2265768524,286.844253929 L54.9397836293,277.485201061 L59.7979179424,268.697693407 L66.7993468055,270.412329047 L70.728720147,259.124311084 L70.0142886303,253.051643192 L64.6560522556,246.764645846 L66.1563584405,240.90630741 L63.5129618289,228.260869565 L69.2998571137,228.546642172 L80.8736476832,234.976525822 L106.021637069,234.333537457 L122.596448255,241.906511533 L120.453153705,257.123902837 L109.379465197,267.911818739 L109.165135742,274.556031843 L112.737293325,279.12839355 L111.379873444,287.773014901 L116.738109818,289.273321086 L118.166972852,283.343539498 L129.026331904,280.628699735 L132.241273729,275.627679118 L127.811798326,267.98326189 L128.526229843,255.623596652 L144.100836905,251.408450704 L140.528679322,244.478464993 L143.386405389,240.977750561 L142.028985507,234.547866912 L128.812002449,229.475403143 L125.168401715,226.617677077 L126.168605838,222.90263319 L134.241681976,219.401918759 L155.674627475,216.329863237 L163.747703613,227.832210655 L166.60542968,239.263114921 L190.395999184,233.833435395 L194.896917738,229.403959992 L198.683404776,230.475607267 Z" fill="#cee3f5" id="NG.NI" stroke="#6e6e6e" stroke-width="0.4"><desc><labelrank>3</labelrank><code_hasc>NG.NI</code_hasc><name>Niger</name><admin>Nigeria</admin><type_en>State</type_en><region /><woe_id>2346359</woe_id><longitude>5</longitude><woe_name>Niger</woe_name><fips>NI31</fips><woe_label>Niger, NG, Nigeria</woe_label><latitude>9</latitude><iso_a2>NG</iso_a2><postal>NI</postal><type>State</type><id>NG.NI</id></desc></path><path d="M82.3025107165,465.166360482 L86.446213513,463.165952235 L88.1608491529,468.381302307 L95.5194937742,466.595223515 L99.1630945091,473.096550316 L110.736885079,472.739334558 L109.379465197,480.455194938 L98.4486629924,492.671973872 L101.877934272,497.172892427 L105.950193917,497.530108185 L110.951214534,493.886507451 L112.022861809,495.458256787 L112.308634415,503.174117167 L104.878546642,506.960604205 L110.951214534,511.175750153 L106.378852827,512.033067973 L97.5199020208,509.032455603 L97.7342314758,505.674627475 L86.5176566646,502.602571953 L89.8040416412,496.815676669 L80.9450908349,497.31577873 L82.9454990814,491.028781384 L79.3733414983,490.028577261 L44.9377423964,489.885690957 L42.2943457849,492.457644417 L34.7928148602,488.742600531 L28.2914880588,499.316186977 L11.9310063278,499.03041437 L8.57317819963,502.531128802 L1.28597672994,501.959583588 L2.50051030823,492.100428659 L5.35823637477,488.742600531 L2.21473770157,482.741375791 L1.85752194325,472.096346193 L5.71545213309,468.52418861 L3.07205552154,465.237803633 L3.71504388651,446.805470504 L6.35844049806,446.019595836 L6.78709940804,442.733210859 L2.57195345989,436.231884058 L3.1434986732,424.015105123 L0.0,418.013880384 L5.5011226781,414.298836497 L11.2165748112,414.584609104 L13.8599714227,427.230046948 L19.2182077975,421.800367422 L17.3606858543,434.231475811 L29.5060216371,450.520514391 L36.0073484385,451.592161666 L43.2945499081,442.161665646 L48.1526842213,447.662788324 L57.5831802409,446.233925291 L64.5846091039,463.094509083 L60.7266789141,468.809961217 L82.3025107165,465.166360482 Z" fill="#cee3f5" id="NG.OG" stroke="#6e6e6e" stroke-width="0.4"><desc><labelrank>3</labelrank><code_hasc>NG.OG</code_hasc><name>Ogun</name><admin>Nigeria</admin><type_en>State</type_en><region /><woe_id>2346346</woe_id><longitude>3</longitude><woe_name>Ogun</woe_name><fips>NI16</fips><woe_label>Ogun, NG, Nigeria</woe_label><latitude>7</latitude><iso_a2>NG</iso_a2><postal>OG</postal><type>State</type><id>NG.OG</id></desc></path><path d="M197.325984895,438.87528067 L191.753419065,443.590528679 L192.82506634,454.949989794 L188.252704634,459.165135742 L182.894468259,470.738926311 L183.037354562,477.383139416 L178.536436007,487.099408042 L172.606654419,486.599305981 L168.391508471,489.099816289 L168.462951623,482.098387426 L165.74811186,479.955092876 L149.244743825,479.812206573 L141.886099204,489.671361502 L140.743008777,495.458256787 L143.529291692,500.887936314 L135.098999796,514.390691978 L143.029189631,523.749744846 L136.313533374,539.753010819 L121.381914676,522.892427026 L106.378852827,512.033067973 L110.951214534,511.175750153 L104.878546642,506.960604205 L112.308634415,503.174117167 L112.022861809,495.458256787 L110.951214534,493.886507451 L105.950193917,497.530108185 L101.877934272,497.172892427 L98.4486629924,492.671973872 L109.379465197,480.455194938 L110.736885079,472.739334558 L118.595631762,464.094713207 L128.954888753,466.38089406 L130.740967544,452.163706879 L136.242090222,450.163298632 L136.313533374,447.805674627 L156.246172688,447.662788324 L158.8895693,454.592774036 L162.175954276,455.878750765 L168.391508471,450.734843846 L173.535415391,435.946111451 L184.609103899,428.015921617 L191.181873852,428.015921617 L197.325984895,438.87528067 Z" fill="#cee3f5" id="NG.ON" stroke="#6e6e6e" stroke-width="0.4"><desc><labelrank>3</labelrank><code_hasc>NG.ON</code_hasc><name>Ondo</name><admin>Nigeria</admin><type_en>State</type_en><region /><woe_id>2346347</woe_id><longitude>5</longitude><woe_name>Ondo</woe_name><fips>NI48</fips><woe_label>Ondo, NG, Nigeria</woe_label><latitude>7</latitude><iso_a2>NG</iso_a2><postal>ON</postal><type>State</type><id>NG.ON</id></desc></path><path d="M184.609103899,428.015921617 L173.535415391,435.946111451 L168.391508471,450.734843846 L162.175954276,455.878750765 L158.8895693,454.592774036 L156.246172688,447.662788324 L136.313533374,447.805674627 L131.741171668,435.231679935 L132.669932639,422.514798939 L139.457032047,416.299244744 L140.885895081,411.512553582 L154.388650745,415.370483772 L157.817922025,414.941824862 L160.17554603,410.226576852 L168.605837926,409.440702184 L167.462747499,413.584404981 L176.464584609,413.155746071 L173.321085936,417.370892019 L173.749744846,422.371912635 L184.609103899,428.015921617 Z" fill="#cee3f5" id="NG.EK" stroke="#6e6e6e" stroke-width="0.4"><desc><labelrank>7</labelrank><code_hasc>NG.EK</code_hasc><name>Ekiti</name><admin>Nigeria</admin><type_en>State</type_en><region /><woe_id>20070151</woe_id><longitude>5</longitude><woe_name>Ekiti</woe_name><fips>NI51</fips><woe_label>Ekiti, NG, Nigeria</woe_label><latitude>7</latitude><iso_a2>NG</iso_a2><postal>EK</postal><type>State</type><id>NG.EK</id></desc></path><path d="M140.885895081,411.512553582 L139.457032047,416.299244744 L132.669932639,422.514798939 L131.741171668,435.231679935 L136.313533374,447.805674627 L136.242090222,450.163298632 L130.740967544,452.163706879 L128.954888753,466.38089406 L118.595631762,464.094713207 L110.736885079,472.739334558 L99.1630945091,473.096550316 L95.5194937742,466.595223515 L88.1608491529,468.381302307 L86.446213513,463.165952235 L82.3025107165,465.166360482 L86.5176566646,443.804858134 L80.0877730149,434.874464176 L83.3027148398,421.72892427 L87.2320881813,422.872014697 L93.7334149826,415.584813227 L101.735047969,421.800367422 L110.451112472,416.15635844 L110.951214534,411.012451521 L131.169626454,408.440498061 L140.885895081,411.512553582 Z" fill="#cee3f5" id="NG.OS" stroke="#6e6e6e" stroke-width="0.4"><desc><labelrank>3</labelrank><code_hasc>NG.OS</code_hasc><name>Osun</name><admin>Nigeria</admin><type_en>State</type_en><region /><woe_id>2346370</woe_id><longitude>4</longitude><woe_name>Osun</woe_name><fips>NI42</fips><woe_label>Osun, NG, Nigeria</woe_label><latitude>7</latitude><iso_a2>NG</iso_a2><postal>OS</postal><type>State</type><id>NG.OS</id></desc></path><path d="M110.951214534,411.012451521 L110.451112472,416.15635844 L101.735047969,421.800367422 L93.7334149826,415.584813227 L87.2320881813,422.872014697 L83.3027148398,421.72892427 L80.0877730149,434.874464176 L86.5176566646,443.804858134 L82.3025107165,465.166360482 L60.7266789141,468.809961217 L64.5846091039,463.094509083 L57.5831802409,446.233925291 L48.1526842213,447.662788324 L43.2945499081,442.161665646 L36.0073484385,451.592161666 L29.5060216371,450.520514391 L17.3606858543,434.231475811 L19.2182077975,421.800367422 L13.8599714227,427.230046948 L11.2165748112,414.584609104 L5.5011226781,414.298836497 L0.0,418.013880384 L3.9293733415,400.581751378 L1.85752194325,392.794447846 L4.7152480098,380.577668912 L15.1459481527,376.791181874 L28.5772606654,366.717697489 L34.3641559502,368.003674219 L61.0838946724,354.143702796 L65.7276995305,345.28475199 L71.2288222086,343.14145744 L81.6595223515,352.500510308 L92.8760971627,356.072667891 L97.3770157175,354.358032251 L98.3772198408,356.644213105 L90.5899163095,364.788732394 L90.5184731578,371.933047561 L99.5917534191,394.580526638 L110.951214534,411.012451521 Z" fill="#cee3f5" id="NG.OY" stroke="#6e6e6e" stroke-width="0.4"><desc><labelrank>3</labelrank><code_hasc>NG.OY</code_hasc><name>Oyo</name><admin>Nigeria</admin><type_en>State</type_en><region /><woe_id>2346360</woe_id><longitude>3</longitude><woe_name>Oyo</woe_name><fips>NI32</fips><woe_label>Oyo, NG, Nigeria</woe_label><latitude>8</latitude><iso_a2>NG</iso_a2><postal>OY</postal><type>State</type><id>NG.OY</id></desc></path><path d="M275.556235967,530.536844254 L268.84057971,536.109410084 L253.265972647,537.181057359 L247.979179424,545.682792407 L238.477240253,546.540110227 L234.547866912,549.612165748 L232.618901817,549.469279445 L230.832823025,547.897530108 L231.04715248,545.3970198 L232.047356603,542.324964278 L235.76240049,536.680955297 L236.691161462,527.179016126 L239.834660135,524.464176363 L235.190855277,500.173504797 L241.977954685,498.315982854 L244.692794448,489.742804654 L248.693610941,486.027760768 L249.193713003,489.528475199 L260.124515207,492.457644417 L255.480710349,505.817513778 L260.410287814,508.746682997 L261.624821392,517.748520106 L264.839763217,518.177179016 L268.483363952,527.822004491 L275.556235967,530.536844254 Z" fill="#cee3f5" id="NG.AN" stroke="#6e6e6e" stroke-width="0.4"><desc><labelrank>3</labelrank><code_hasc>NG.AN</code_hasc><name>Anambra</name><admin>Nigeria</admin><type_en>State</type_en><region /><woe_id>2346353</woe_id><longitude>6</longitude><woe_name>Anambra</woe_name><fips>NI25</fips><woe_label>Anambra, NG, Nigeria</woe_label><latitude>6</latitude><iso_a2>NG</iso_a2><postal>AN</postal><type>State</type><id>NG.AN</id></desc></path><path d="M488.599714227,219.687691366 L468.881404368,234.762196367 L461.165543989,254.194733619 L467.452541335,256.838130231 L469.953051643,265.554194734 L477.883241478,269.769340682 L479.169218208,284.915288834 L472.167789345,290.344968361 L486.742192284,302.561747295 L492.529087569,320.279648908 L480.598081241,320.065319453 L462.880179628,325.709328434 L422.58624209,305.919575424 L419.15697081,308.205756277 L421.657481119,315.421514595 L414.656052256,321.851398245 L401.081853439,323.637477036 L389.150847112,320.994080425 L381.006327822,312.420902225 L383.50683813,305.490916514 L382.006531945,296.703408859 L369.361094101,295.131659522 L367.932231068,279.55705246 L365.860379669,277.056542151 L359.073280261,276.699326393 L353.929373341,271.555419473 L356.572769953,264.196774852 L360.859359053,257.409675444 L356.072667891,245.692998571 L358.073076138,232.618901817 L363.574198816,231.47581139 L373.361910594,220.187793427 L384.578485405,217.401510512 L402.582159624,219.616248214 L407.797509696,223.545621555 L418.656868749,222.116758522 L422.514798939,227.975096959 L423.372116759,238.834456011 L441.804449888,240.263319045 L442.304551949,234.190651153 L450.734843846,230.404164115 L452.378036334,226.832006532 L429.659114105,221.973872219 L421.657481119,210.400081649 L417.585221474,209.114104919 L419.728516024,203.612982241 L417.799550929,195.3970198 L407.726066544,194.611145132 L412.084098796,187.395386814 L438.375178608,177.964890794 L445.948152684,153.459889773 L452.092263727,151.959583588 L456.878954889,153.888548683 L464.523372117,148.744641764 L472.596448255,156.817717902 L478.669116146,186.037966932 L485.741988161,203.184323331 L484.241681976,217.258624209 L488.599714227,219.687691366 Z" fill="#cee3f5" id="NG.BA" stroke="#6e6e6e" stroke-width="0.4"><desc><labelrank>7</labelrank><code_hasc>NG.BA</code_hasc><name>Bauchi</name><admin>Nigeria</admin><type_en>State</type_en><region /><woe_id>2346343</woe_id><longitude>9</longitude><woe_name>Bauchi</woe_name><fips>NI46</fips><woe_label>Bauchi, NG, Nigeria</woe_label><latitude>10</latitude><iso_a2>NG</iso_a2><postal>BA</postal><type>State</type><id>NG.BA</id></desc></path><path d="M528.965094917,260.553174117 L529.750969586,265.697081037 L525.392937334,275.27046336 L543.539497857,292.774035517 L542.539293733,308.134313125 L529.608083282,316.564605021 L519.320269443,319.708103695 L492.529087569,320.279648908 L486.742192284,302.561747295 L472.167789345,290.344968361 L479.169218208,284.915288834 L477.883241478,269.769340682 L469.953051643,265.554194734 L467.452541335,256.838130231 L461.165543989,254.194733619 L468.881404368,234.762196367 L488.599714227,219.687691366 L496.601347214,217.472953664 L508.389467238,224.117166769 L521.892222903,238.905899163 L522.678097571,260.410287814 L528.965094917,260.553174117 Z" fill="#cee3f5" id="NG.GO" stroke="#6e6e6e" stroke-width="0.4"><desc><labelrank>3</labelrank><code_hasc>NG.GO</code_hasc><name>Gombe</name><admin>Nigeria</admin><type_en>State</type_en><region /><woe_id>20070155</woe_id><longitude>11</longitude><woe_name>Gombe</woe_name><fips>NI55</fips><woe_label>Gombe, NG, Nigeria</woe_label><latitude>10</latitude><iso_a2>NG</iso_a2><postal>GO</postal><type>State</type><id>NG.GO</id></desc></path><path d="M230.832823025,547.897530108 L227.332108594,560.971626863 L225.688916105,562.900591958 L224.331496224,563.543580323 L223.402735252,564.400898142 L223.045519494,564.686670749 L224.117166769,567.330067361 L214.686670749,570.616452337 L212.043274138,574.903041437 L207.328026128,575.546029802 L207.399469279,579.618289447 L197.897530108,584.262094305 L191.896305368,580.975709328 L187.538273117,584.90508267 L175.178607879,588.834456011 L163.104715248,582.33312921 L165.176566646,581.9044703 L162.533170035,579.046744234 L157.532149418,580.61849357 L156.389058992,569.187589304 L163.60481731,570.187793427 L170.106144111,567.758726271 L167.534190651,562.186160441 L173.821187998,558.471116554 L166.533986528,560.900183711 L164.605021433,566.044090631 L161.03286385,564.543784446 L161.604409063,566.901408451 L151.530924679,564.472341294 L147.74443764,560.614411104 L148.673198612,556.256378853 L159.246785058,557.185139824 L161.247193305,553.612982241 L165.105123495,556.042049398 L165.676668708,553.898754848 L161.390079608,551.612573995 L159.461114513,554.541743213 L155.317411717,554.541743213 L156.031843233,547.54031435 L152.602571953,553.827311696 L146.672790365,555.827719943 L143.672177996,553.11288018 L141.314553991,548.39763217 L142.171871811,543.396611553 L145.17248418,544.253929373 L153.31700347,536.538068994 L139.385588896,544.96836089 L136.313533374,539.753010819 L143.029189631,523.749744846 L149.88773219,528.965094917 L150.959379465,536.8238416 L155.46029802,533.537456624 L155.746070627,530.108185344 L167.462747499,532.394366197 L175.321494182,529.036538069 L189.038579302,538.609920392 L188.53847724,546.397223923 L196.397223923,545.539906103 L208.328230251,533.037354562 L201.112471933,523.606858543 L199.397836293,512.175954276 L202.827107573,511.175750153 L207.113696673,514.676464585 L211.114513166,510.60420494 L235.190855277,500.173504797 L239.834660135,524.464176363 L236.691161462,527.179016126 L235.76240049,536.680955297 L232.047356603,542.324964278 L231.04715248,545.3970198 L230.832823025,547.897530108 Z" fill="#cee3f5" id="NG.DE" stroke="#6e6e6e" stroke-width="0.4"><desc><labelrank>3</labelrank><code_hasc>NG.DE</code_hasc><name>Delta</name><admin>Nigeria</admin><type_en>State</type_en><region /><woe_id>2346364</woe_id><longitude>5</longitude><woe_name>Delta</woe_name><fips>NI36</fips><woe_label>Delta, NG, Nigeria</woe_label><latitude>5</latitude><iso_a2>NG</iso_a2><postal>DE</postal><type>State</type><id>NG.DE</id></desc></path><path d="M235.190855277,500.173504797 L211.114513166,510.60420494 L207.113696673,514.676464585 L202.827107573,511.175750153 L199.397836293,512.175954276 L201.112471933,523.606858543 L208.328230251,533.037354562 L196.397223923,545.539906103 L188.53847724,546.397223923 L189.038579302,538.609920392 L175.321494182,529.036538069 L167.462747499,532.394366197 L155.746070627,530.108185344 L155.46029802,533.537456624 L150.959379465,536.8238416 L149.88773219,528.965094917 L143.029189631,523.749744846 L135.098999796,514.390691978 L143.529291692,500.887936314 L140.743008777,495.458256787 L141.886099204,489.671361502 L149.244743825,479.812206573 L165.74811186,479.955092876 L168.462951623,482.098387426 L168.391508471,489.099816289 L172.606654419,486.599305981 L178.536436007,487.099408042 L183.037354562,477.383139416 L182.894468259,470.738926311 L188.252704634,459.165135742 L192.82506634,454.949989794 L191.753419065,443.590528679 L197.325984895,438.87528067 L202.184119208,441.590120433 L203.398652786,447.519902021 L211.185956318,445.376607471 L216.258420086,450.449071239 L221.045111247,450.091855481 L225.617472954,458.022045315 L232.476015513,456.378852827 L236.548275158,459.808124107 L237.834251888,464.023270055 L233.61910594,481.955501123 L235.190855277,500.173504797 Z" fill="#cee3f5" id="NG.ED" stroke="#6e6e6e" stroke-width="0.4"><desc><labelrank>3</labelrank><code_hasc>NG.ED</code_hasc><name>Edo</name><admin>Nigeria</admin><type_en>State</type_en><region /><woe_id>2346365</woe_id><longitude>5</longitude><woe_name>Edo</woe_name><fips>NI37</fips><woe_label>Edo, NG, Nigeria</woe_label><latitude>6</latitude><iso_a2>NG</iso_a2><postal>ED</postal><type>State</type><id>NG.ED</id></desc></path><path d="M283.343539498,468.52418861 L286.201265564,475.597060625 L291.916717697,481.098183303 L302.847519902,481.241069606 L304.990814452,486.384976526 L302.918963054,494.74382527 L295.203102674,496.101245152 L297.489283527,503.602776077 L294.845886916,515.605225556 L297.274954072,525.893039396 L294.703000612,529.179424372 L294.988773219,535.180649112 L285.558277199,533.39457032 L281.70034701,530.465401102 L275.556235967,530.536844254 L268.483363952,527.822004491 L264.839763217,518.177179016 L261.624821392,517.748520106 L260.410287814,508.746682997 L255.480710349,505.817513778 L260.124515207,492.457644417 L249.193713003,489.528475199 L248.693610941,486.027760768 L252.265768524,481.669728516 L255.480710349,485.884874464 L278.556848336,466.595223515 L283.343539498,468.52418861 Z" fill="#cee3f5" id="NG.EN" stroke="#6e6e6e" stroke-width="0.4"><desc><labelrank>7</labelrank><code_hasc>NG.EN</code_hasc><name>Enugu</name><admin>Nigeria</admin><type_en>State</type_en><region /><woe_id>2346366</woe_id><longitude>7</longitude><woe_name>Enugu</woe_name><fips>NI47</fips><woe_label>Enugu, NG, Nigeria</woe_label><latitude>6</latitude><iso_a2>NG</iso_a2><postal>EN</postal><type>State</type><id>NG.EN</id></desc></path><path d="M330.281690141,492.100428659 L338.711982037,506.389058992 L335.211267606,510.246989181 L335.425597061,517.962849561 L327.566850378,530.751173709 L324.280465401,530.036742192 L318.779342723,534.751990202 L311.563584405,532.251479894 L305.848132272,550.040824658 L297.203510921,542.467850582 L285.129618289,540.610328638 L285.558277199,533.39457032 L294.988773219,535.180649112 L294.703000612,529.179424372 L297.274954072,525.893039396 L294.845886916,515.605225556 L297.489283527,503.602776077 L295.203102674,496.101245152 L302.918963054,494.74382527 L308.920187793,501.245152072 L312.992447438,490.885895081 L320.065319453,490.028577261 L325.923657889,485.241886099 L330.281690141,492.100428659 Z" fill="#cee3f5" id="NG.EB" stroke="#6e6e6e" stroke-width="0.4"><desc><labelrank>3</labelrank><code_hasc>NG.EB</code_hasc><name>Ebonyi</name><admin>Nigeria</admin><type_en>State</type_en><region /><woe_id>20070153</woe_id><longitude>7</longitude><woe_name>Ebonyi</woe_name><fips>NI53</fips><woe_label /><latitude>6</latitude><iso_a2>NG</iso_a2><postal>EB</postal><type>State</type><id>NG.EB</id></desc></path><path d="M356.572769953,264.196774852 L353.929373341,271.555419473 L359.073280261,276.699326393 L351.857521943,286.558481323 L350.142886303,311.849357012 L345.927740355,318.422126965 L345.927740355,326.780975709 L353.286384977,336.354358032 L351.857521943,343.284343744 L343.784445805,355.072463768 L341.569708104,355.358236375 L335.854255971,348.499693815 L328.638497653,346.284956113 L319.06511533,355.001020616 L316.993263931,342.427025924 L310.420493978,334.925494999 L306.776893244,335.497040212 L302.561747295,340.56950398 L291.416615636,336.997346397 L286.415595019,334.568279241 L283.272096346,338.068993672 L272.984282507,337.711777914 L270.12655644,337.854664217 L267.626046132,330.710349051 L274.627474995,320.708307818 L272.126964687,314.849969382 L267.626046132,311.563584405 L272.198407838,309.277403552 L271.269646867,297.703612982 L255.480710349,295.274545826 L248.693610941,290.059195754 L258.838538477,280.700142886 L258.981424781,278.69973464 L251.837109614,274.698918147 L252.551541131,267.911818739 L246.407430088,265.482751582 L245.550112268,259.552969994 L241.620738926,258.695652174 L238.691569708,262.696468667 L229.975505205,264.696876914 L225.90324556,261.481935089 L221.759542764,262.339252909 L206.899367218,274.770361298 L202.25556236,267.55460298 L203.612982241,248.479281486 L206.470708308,245.192896509 L215.901204327,235.262298428 L224.688711982,236.691161462 L237.04837722,232.833231272 L241.049193713,222.759746887 L248.479281486,215.829761176 L256.909573382,218.544600939 L254.909165136,225.04592774 L266.125739947,230.832823025 L269.483568075,228.332312717 L269.412124923,221.973872219 L275.913451725,222.759746887 L282.486221678,215.829761176 L293.702796489,221.402327006 L300.489895897,216.472749541 L311.277811798,211.043070014 L321.494182486,209.471320678 L321.279853031,217.615839967 L338.997754644,226.474790774 L344.927536232,232.833231272 L345.856297204,252.551541131 L341.355378649,256.981016534 L356.572769953,264.196774852 Z" fill="#cee3f5" id="NG.KD" stroke="#6e6e6e" stroke-width="0.4"><desc><labelrank>7</labelrank><code_hasc>NG.KD</code_hasc><name>Kaduna</name><admin>Nigeria</admin><type_en>State</type_en><region /><woe_id>2346351</woe_id><longitude>7</longitude><woe_name>Kaduna</woe_name><fips>NI23</fips><woe_label>Kaduna, NG, Nigeria</woe_label><latitude>10</latitude><iso_a2>NG</iso_a2><postal>KD</postal><type>State</type><id>NG.KD</id></desc></path><path d="M244.907123903,390.008164932 L253.337415799,389.793835477 L251.337007553,395.580730761 L254.409063074,404.439681568 L250.836905491,421.371708512 L271.269646867,412.369871402 L293.559910186,412.584200857 L294.131455399,422.086140029 L298.703817106,428.444580527 L300.418452745,446.734027353 L306.062461727,448.520106144 L300.489895897,462.880179628 L292.702592366,467.095325577 L291.559501939,472.096346193 L283.343539498,468.52418861 L278.556848336,466.595223515 L255.480710349,485.884874464 L252.265768524,481.669728516 L248.693610941,486.027760768 L244.692794448,489.742804654 L241.977954685,498.315982854 L235.190855277,500.173504797 L233.61910594,481.955501123 L237.834251888,464.023270055 L236.548275158,459.808124107 L232.476015513,456.378852827 L225.617472954,458.022045315 L221.045111247,450.091855481 L216.258420086,450.449071239 L211.185956318,445.376607471 L203.398652786,447.519902021 L202.184119208,441.590120433 L197.325984895,438.87528067 L191.181873852,428.015921617 L184.609103899,428.015921617 L173.749744846,422.371912635 L173.321085936,417.370892019 L176.464584609,413.155746071 L167.462747499,413.584404981 L168.605837926,409.440702184 L168.177179016,405.939987753 L157.746478873,394.866299245 L164.962237191,384.649928557 L167.605633803,382.292304552 L178.750765462,388.436415595 L201.041028781,391.365584813 L208.756889161,370.789957134 L217.758726271,373.719126352 L223.259848949,388.436415595 L236.476832007,401.724841804 L244.907123903,390.008164932 Z" fill="#cee3f5" id="NG.KO" stroke="#6e6e6e" stroke-width="0.4"><desc><labelrank>3</labelrank><code_hasc>NG.KO</code_hasc><name>Kogi</name><admin>Nigeria</admin><type_en>State</type_en><region /><woe_id>2346369</woe_id><longitude>6</longitude><woe_name>Kogi</woe_name><fips>NI41</fips><woe_label>Kogi, NG, Nigeria</woe_label><latitude>7</latitude><iso_a2>NG</iso_a2><postal>KO</postal><type>State</type><id>NG.KO</id></desc></path><path d="M462.880179628,325.709328434 L468.024086548,348.785466422 L466.523780363,362.002449479 L443.733414983,370.004082466 L436.517656665,379.148805879 L419.728516024,392.08001633 L407.868952848,393.437436211 L395.652173913,385.507246377 L377.434170239,387.36476832 L368.932435191,383.864053889 L365.003061849,371.361502347 L376.005307206,355.929781588 L373.361910594,353.500714432 L361.788120024,353.929373341 L358.073076138,347.070830782 L351.857521943,343.284343744 L353.286384977,336.354358032 L345.927740355,326.780975709 L345.927740355,318.422126965 L350.142886303,311.849357012 L351.857521943,286.558481323 L359.073280261,276.699326393 L365.860379669,277.056542151 L367.932231068,279.55705246 L369.361094101,295.131659522 L382.006531945,296.703408859 L383.50683813,305.490916514 L381.006327822,312.420902225 L389.150847112,320.994080425 L401.081853439,323.637477036 L414.656052256,321.851398245 L421.657481119,315.421514595 L419.15697081,308.205756277 L422.58624209,305.919575424 L462.880179628,325.709328434 Z" fill="#cee3f5" id="NG.PL" stroke="#6e6e6e" stroke-width="0.4"><desc><labelrank>3</labelrank><code_hasc>NG.PL</code_hasc><name>Plateau</name><admin>Nigeria</admin><type_en>State</type_en><region /><woe_id>2346348</woe_id><longitude>9</longitude><woe_name>Plateau</woe_name><fips>NI49</fips><woe_label>Plateau, NG, Nigeria</woe_label><latitude>8</latitude><iso_a2>NG</iso_a2><postal>PL</postal><type>State</type><id>NG.PL</id></desc></path><path d="M351.857521943,343.284343744 L358.073076138,347.070830782 L361.788120024,353.929373341 L373.361910594,353.500714432 L376.005307206,355.929781588 L365.003061849,371.361502347 L368.932435191,383.864053889 L377.434170239,387.36476832 L395.652173913,385.507246377 L407.868952848,393.437436211 L403.868136354,397.509695856 L391.437027965,395.437844458 L389.650949173,400.081649316 L392.794447846,404.011022658 L393.508879363,410.726678914 L381.79220249,419.15697081 L370.575627679,410.869565217 L362.002449479,411.155337824 L345.927740355,406.297203511 L338.140436824,407.154521331 L333.925290876,414.084507042 L337.711777914,427.372933252 L320.208205756,419.228413962 L293.559910186,412.584200857 L271.269646867,412.369871402 L250.836905491,421.371708512 L254.409063074,404.439681568 L251.337007553,395.580730761 L253.337415799,389.793835477 L270.055113288,386.293121045 L280.128597673,379.791794244 L284.772402531,369.432537253 L291.416615636,336.997346397 L302.561747295,340.56950398 L306.776893244,335.497040212 L310.420493978,334.925494999 L316.993263931,342.427025924 L319.06511533,355.001020616 L328.638497653,346.284956113 L335.854255971,348.499693815 L341.569708104,355.358236375 L343.784445805,355.072463768 L351.857521943,343.284343744 Z" fill="#cee3f5" id="NG.NA" stroke="#6e6e6e" stroke-width="0.4"><desc><labelrank>3</labelrank><code_hasc>NG.NA</code_hasc><name>Nassarawa</name><admin>Nigeria</admin><type_en>State</type_en><region /><woe_id>20070154</woe_id><longitude>8</longitude><woe_name>Nassarawa</woe_name><fips>NI56</fips><woe_label>Nassarawa, NG, Nigeria</woe_label><latitude>8</latitude><iso_a2>NG</iso_a2><postal>NA</postal><type>State</type><id>NG.NA</id></desc></path><path d="M464.523372117,148.744641764 L456.878954889,153.888548683 L452.092263727,151.959583588 L445.948152684,153.459889773 L438.375178608,177.964890794 L412.084098796,187.395386814 L407.726066544,194.611145132 L417.799550929,195.3970198 L419.728516024,203.612982241 L417.585221474,209.114104919 L421.657481119,210.400081649 L429.659114105,221.973872219 L452.378036334,226.832006532 L450.734843846,230.404164115 L442.304551949,234.190651153 L441.804449888,240.263319045 L423.372116759,238.834456011 L422.514798939,227.975096959 L418.656868749,222.116758522 L407.797509696,223.545621555 L402.582159624,219.616248214 L384.578485405,217.401510512 L386.221677893,210.900183711 L391.865686875,204.898958971 L384.649928557,196.754439682 L379.005919575,195.468462952 L383.363951827,184.180444989 L381.935088794,176.964686671 L373.647683201,178.036333946 L373.147581139,175.107164727 L367.789344764,175.107164727 L368.289446826,165.74811186 L365.931822821,162.676056338 L359.00183711,161.175750153 L357.858746683,155.746070627 L353.500714432,152.959787712 L352.786282915,147.030006124 L340.783833435,145.60114309 L334.496836089,153.74566238 L329.924474383,145.243927332 L327.995509288,142.171871811 L320.35109206,140.171463564 L321.565625638,130.883853848 L344.570320474,129.955092876 L348.213921208,136.670749132 L358.001632986,138.885486834 L366.431924883,134.598897734 L370.075525617,129.169218208 L405.511328843,131.526842213 L408.797713819,129.740763421 L415.870585834,131.955501123 L423.515003062,125.954276383 L440.732802613,121.310471525 L444.304960196,130.883853848 L460.308226169,132.812818943 L464.523372117,148.744641764 Z" fill="#cee3f5" id="NG.JI" stroke="#6e6e6e" stroke-width="0.4"><desc><labelrank>3</labelrank><code_hasc>NG.JI</code_hasc><name>Jigawa</name><admin>Nigeria</admin><type_en>State</type_en><region /><woe_id>2346367</woe_id><longitude>9</longitude><woe_name>Jigawa</woe_name><fips>NI39</fips><woe_label>Jigawa, NG, Nigeria</woe_label><latitude>12</latitude><iso_a2>NG</iso_a2><postal>JI</postal><type>State</type><id>NG.JI</id></desc></path><path d="M384.578485405,217.401510512 L373.361910594,220.187793427 L363.574198816,231.47581139 L358.073076138,232.618901817 L356.072667891,245.692998571 L360.859359053,257.409675444 L356.572769953,264.196774852 L341.355378649,256.981016534 L345.856297204,252.551541131 L344.927536232,232.833231272 L338.997754644,226.474790774 L321.279853031,217.615839967 L321.494182486,209.471320678 L311.277811798,211.043070014 L300.489895897,216.472749541 L295.560318432,210.042865891 L296.989181466,204.39885691 L307.348438457,199.326393141 L303.847724025,183.751786079 L304.347826087,163.104715248 L318.993672178,156.246172688 L324.423351704,146.101245152 L329.924474383,145.243927332 L334.496836089,153.74566238 L340.783833435,145.60114309 L352.786282915,147.030006124 L353.500714432,152.959787712 L357.858746683,155.746070627 L359.00183711,161.175750153 L365.931822821,162.676056338 L368.289446826,165.74811186 L367.789344764,175.107164727 L373.147581139,175.107164727 L373.647683201,178.036333946 L381.935088794,176.964686671 L383.363951827,184.180444989 L379.005919575,195.468462952 L384.649928557,196.754439682 L391.865686875,204.898958971 L386.221677893,210.900183711 L384.578485405,217.401510512 Z" fill="#cee3f5" id="NG.KN" stroke="#6e6e6e" stroke-width="0.4"><desc><labelrank>7</labelrank><code_hasc>NG.KN</code_hasc><name>Kano</name><admin>Nigeria</admin><type_en>State</type_en><region /><woe_id>2346357</woe_id><longitude>8</longitude><woe_name>Kano</woe_name><fips>NI29</fips><woe_label>Kano, NG, Nigeria</woe_label><latitude>11</latitude><iso_a2>NG</iso_a2><postal>KN</postal><type>State</type><id>NG.KN</id></desc></path><path d="M370.075525617,129.169218208 L366.431924883,134.598897734 L358.001632986,138.885486834 L348.213921208,136.670749132 L344.570320474,129.955092876 L321.565625638,130.883853848 L320.35109206,140.171463564 L327.995509288,142.171871811 L329.924474383,145.243927332 L324.423351704,146.101245152 L318.993672178,156.246172688 L304.347826087,163.104715248 L303.847724025,183.751786079 L307.348438457,199.326393141 L296.989181466,204.39885691 L295.560318432,210.042865891 L300.489895897,216.472749541 L293.702796489,221.402327006 L282.486221678,215.829761176 L275.913451725,222.759746887 L269.412124923,221.973872219 L269.483568075,228.332312717 L266.125739947,230.832823025 L254.909165136,225.04592774 L256.909573382,218.544600939 L248.479281486,215.829761176 L250.479689733,192.253521127 L259.338640539,191.53908961 L265.482751582,184.966319657 L269.054909165,184.823433354 L268.4119208,181.322718922 L262.124923454,176.321698306 L264.768320065,169.534598898 L260.267401511,150.387834252 L259.552969994,119.953051643 L267.411716677,112.808736477 L278.556848336,113.165952235 L303.561951419,99.5917534191 L319.708103695,102.306593182 L336.997346397,115.737905695 L344.42743417,116.166564605 L352.857726067,124.453970198 L370.075525617,129.169218208 Z" fill="#cee3f5" id="NG.KT" stroke="#6e6e6e" stroke-width="0.4"><desc><labelrank>7</labelrank><code_hasc>NG.KT</code_hasc><name>Katsina</name><admin>Nigeria</admin><type_en>State</type_en><region /><woe_id>2346352</woe_id><longitude>7</longitude><woe_name>Katsina</woe_name><fips>NI24</fips><woe_label>Katsina, NG, Nigeria</woe_label><latitude>12</latitude><iso_a2>NG</iso_a2><postal>KT</postal><type>State</type><id>NG.KT</id></desc></path><path d="M241.76362523,109.308022045 L234.333537457,114.094713207 L215.186772811,109.808124107 L213.329250868,115.95223515 L201.755460298,117.952643397 L200.255154113,132.884262094 L182.96591141,135.456215554 L171.963666054,146.815676669 L172.892427026,159.604000816 L169.963257808,162.676056338 L143.743621147,161.675852215 L141.528883446,168.677281078 L140.743008777,196.325780772 L132.098387426,195.539906103 L116.38089406,204.39885691 L111.879975505,201.39824454 L117.23821188,181.108389467 L117.166768728,158.389467238 L119.310063278,154.745866503 L130.026536028,153.817105532 L130.097979179,131.241069606 L126.954480506,124.168197591 L129.955092876,112.09430496 L121.453357828,115.023474178 L102.449479486,104.521330884 L89.6611553378,105.307205552 L90.3041437028,89.8754847928 L97.3770157175,88.7323943662 L109.379465197,78.3016942233 L132.741375791,72.8005715452 L136.670749132,75.2296387018 L156.103286385,74.6580934885 L161.03286385,69.228413962 L171.177791386,67.0851194121 L206.756480914,81.5880791998 L211.828944683,79.3733414983 L219.759134517,82.5168401715 L237.119820372,100.663400694 L241.76362523,109.308022045 Z" fill="#cee3f5" id="NG.SO" stroke="#6e6e6e" stroke-width="0.4"><desc><labelrank>7</labelrank><code_hasc>NG.SO</code_hasc><name>Sokoto</name><admin>Nigeria</admin><type_en>State</type_en><region /><woe_id>2346361</woe_id><longitude>5</longitude><woe_name>Sokoto</woe_name><fips>NI51</fips><woe_label>Sokoto, NG, Nigeria</woe_label><latitude>13</latitude><iso_a2>NG</iso_a2><postal>SO</postal><type>State</type><id>NG.SO</id></desc></path><path d="M259.552969994,119.953051643 L260.267401511,150.387834252 L264.768320065,169.534598898 L262.124923454,176.321698306 L268.4119208,181.322718922 L269.054909165,184.823433354 L265.482751582,184.966319657 L259.338640539,191.53908961 L250.479689733,192.253521127 L248.479281486,215.829761176 L241.049193713,222.759746887 L237.04837722,232.833231272 L224.688711982,236.691161462 L215.901204327,235.262298428 L206.470708308,245.192896509 L198.683404776,230.475607267 L198.254745867,221.473770157 L190.538885487,211.686058379 L192.324964278,203.255766483 L189.610124515,200.54092672 L172.392324964,200.255154113 L161.747295366,194.396815677 L154.531537048,194.182486222 L147.601551337,197.96897326 L140.743008777,196.325780772 L141.528883446,168.677281078 L143.743621147,161.675852215 L169.963257808,162.676056338 L172.892427026,159.604000816 L171.963666054,146.815676669 L182.96591141,135.456215554 L200.255154113,132.884262094 L201.755460298,117.952643397 L213.329250868,115.95223515 L215.186772811,109.808124107 L234.333537457,114.094713207 L241.76362523,109.308022045 L250.551132884,119.238620127 L259.552969994,119.953051643 Z" fill="#cee3f5" id="NG.ZA" stroke="#6e6e6e" stroke-width="0.4"><desc><labelrank>3</labelrank><code_hasc>NG.ZA</code_hasc><name>Zamfara</name><admin>Nigeria</admin><type_en>State</type_en><region /><woe_id>20070150</woe_id><longitude>6</longitude><woe_name>Zamfara</woe_name><fips>NI57</fips><woe_label>Zamfara, NG, Nigeria</woe_label><latitude>12</latitude><iso_a2>NG</iso_a2><postal>ZA</postal><type>State</type><id>NG.ZA</id></desc></path><path d="M566.901408451,113.594611145 L565.686874872,125.025515411 L573.116962645,137.456623801 L562.900591958,150.74505001 L563.329250868,185.323535415 L559.328434374,197.183098592 L565.186772811,198.040416412 L568.330271484,204.184527455 L557.399469279,219.544805062 L555.827719943,233.547662788 L538.53847724,241.33496632 L535.252092264,244.978567055 L534.323331292,256.695243927 L528.965094917,260.553174117 L522.678097571,260.410287814 L521.892222903,238.905899163 L508.389467238,224.117166769 L496.601347214,217.472953664 L488.599714227,219.687691366 L484.241681976,217.258624209 L485.741988161,203.184323331 L478.669116146,186.037966932 L472.596448255,156.817717902 L464.523372117,148.744641764 L460.308226169,132.812818943 L444.304960196,130.883853848 L440.732802613,121.310471525 L423.515003062,125.954276383 L415.870585834,131.955501123 L408.797713819,129.740763421 L425.015309247,111.094100837 L435.8746683,104.878546642 L467.881200245,97.3055725658 L512.033067973,97.4484588692 L535.895080629,104.164115126 L547.897530108,111.594202899 L566.901408451,113.594611145 Z" fill="#cee3f5" id="NG.YO" stroke="#6e6e6e" stroke-width="0.4"><desc><labelrank>3</labelrank><code_hasc>NG.YO</code_hasc><name>Yobe</name><admin>Nigeria</admin><type_en>State</type_en><region /><woe_id>2346372</woe_id><longitude>11</longitude><woe_name>Yobe</woe_name><fips>NI44</fips><woe_label>Yobe, NG, Nigeria</woe_label><latitude>12</latitude><iso_a2>NG</iso_a2><postal>YO</postal><type>State</type><id>NG.YO</id></desc></path><path d="M140.743008777,196.325780772 L147.601551337,197.96897326 L154.531537048,194.182486222 L161.747295366,194.396815677 L172.392324964,200.255154113 L189.610124515,200.54092672 L192.324964278,203.255766483 L190.538885487,211.686058379 L198.254745867,221.473770157 L198.683404776,230.475607267 L194.896917738,229.403959992 L190.395999184,233.833435395 L166.60542968,239.263114921 L163.747703613,227.832210655 L155.674627475,216.329863237 L134.241681976,219.401918759 L126.168605838,222.90263319 L125.168401715,226.617677077 L128.812002449,229.475403143 L142.028985507,234.547866912 L143.386405389,240.977750561 L140.528679322,244.478464993 L144.100836905,251.408450704 L128.526229843,255.623596652 L127.811798326,267.98326189 L132.241273729,275.627679118 L129.026331904,280.628699735 L118.166972852,283.343539498 L116.738109818,289.273321086 L111.379873444,287.773014901 L112.737293325,279.12839355 L109.165135742,274.556031843 L109.379465197,267.911818739 L120.453153705,257.123902837 L122.596448255,241.906511533 L106.021637069,234.333537457 L80.8736476832,234.976525822 L69.2998571137,228.546642172 L63.5129618289,228.260869565 L49.9387630129,209.042661768 L56.4400898142,195.539906103 L61.9412124923,190.538885487 L58.3690549092,181.822820984 L61.369667279,177.107572974 L61.2267809757,145.744029394 L78.15880792,132.312716881 L87.6607470912,117.952643397 L89.6611553378,105.307205552 L102.449479486,104.521330884 L121.453357828,115.023474178 L129.955092876,112.09430496 L126.954480506,124.168197591 L130.097979179,131.241069606 L130.026536028,153.817105532 L119.310063278,154.745866503 L117.166768728,158.389467238 L117.23821188,181.108389467 L111.879975505,201.39824454 L116.38089406,204.39885691 L132.098387426,195.539906103 L140.743008777,196.325780772 Z" fill="#cee3f5" id="NG.KE" stroke="#6e6e6e" stroke-width="0.4"><desc><labelrank>3</labelrank><code_hasc>NG.KE</code_hasc><name>Kebbi</name><admin>Nigeria</admin><type_en>State</type_en><region /><woe_id>2346368</woe_id><longitude>4</longitude><woe_name>Kebbi</woe_name><fips>NI40</fips><woe_label>Kebbi, NG, Nigeria</woe_label><latitude>11</latitude><iso_a2>NG</iso_a2><postal>KE</postal><type>State</type><id>NG.KE</id></desc></path><path d="M542.467850582,445.519493774 L536.538068994,424.800979792 L527.250459277,416.799346805 L519.463155746,422.229026332 L512.890385793,410.083690549 L539.324351909,379.506021637 L539.967340274,371.361502347 L545.754235558,359.144723413 L545.325576648,355.072463768 L537.109614207,346.927944478 L533.537456624,334.996938151 L524.821392121,329.781588079 L519.320269443,319.708103695 L529.608083282,316.564605021 L542.539293733,308.134313125 L543.539497857,292.774035517 L553.041437028,293.202694427 L569.616248214,277.127985303 L582.76178812,273.627270872 L595.478669116,261.55337824 L605.337824046,261.053276179 L620.055113288,268.483363952 L622.984282507,266.840171464 L627.985303123,250.908348643 L629.12839355,239.406001225 L636.344151868,240.620534803 L648.203715044,238.33435395 L636.201265564,257.552561747 L630.557256583,285.272504593 L618.697693407,291.845274546 L617.840375587,302.204531537 L620.840987957,306.20534803 L617.054500919,321.565625638 L604.623392529,325.709328434 L597.264747908,331.496223719 L599.836701368,338.283323127 L595.550112268,348.142478057 L592.835272505,368.075117371 L589.120228618,368.575219433 L586.333945703,374.004898959 L580.332720963,377.291283935 L569.259032456,377.148397632 L571.330883854,383.792610737 L561.043070014,390.36538069 L559.542763829,414.656052256 L549.183506838,429.87344356 L549.326393141,438.232292305 L542.467850582,445.519493774 Z" fill="#cee3f5" id="NG.AD" stroke="#6e6e6e" stroke-width="0.4"><desc><labelrank>3</labelrank><code_hasc>NG.AD</code_hasc><name>Adamawa</name><admin>Nigeria</admin><type_en>State</type_en><region /><woe_id>2346363</woe_id><longitude>12</longitude><woe_name>Adamawa</woe_name><fips>NI35</fips><woe_label>Adamawa, NG, Nigeria</woe_label><latitude>9</latitude><iso_a2>NG</iso_a2><postal>AD</postal><type>State</type><id>NG.AD</id></desc></path><path d="M291.416615636,336.997346397 L284.772402531,369.432537253 L280.128597673,379.791794244 L270.055113288,386.293121045 L253.337415799,389.793835477 L244.907123903,390.008164932 L240.4776485,386.150234742 L240.406205348,342.498469075 L252.622984283,341.4268218 L264.339661155,349.428454787 L272.984282507,337.711777914 L283.272096346,338.068993672 L286.415595019,334.568279241 L291.416615636,336.997346397 Z" fill="#cee3f5" id="NG.FC" stroke="#6e6e6e" stroke-width="0.4"><desc><labelrank>3</labelrank><code_hasc>NG.FC</code_hasc><name>Federal Capital Territory</name><admin>Nigeria</admin><type_en>State</type_en><region /><woe_id>2346345</woe_id><longitude>7</longitude><woe_name>Federal Capital Territory</woe_name><fips>NI11</fips><woe_label>Abuja Capital Territory, NG, Nigeria</woe_label><latitude>8</latitude><iso_a2>NG</iso_a2><postal>FC</postal><type>State</type><id>NG.FC</id></desc></path></svg>