<?xml version='1.0' encoding='utf-8'?>
<svg height="700" width="700" xmlns="http://www.w3.org/2000/svg"><path d="M316.969147005,336.66061706 L346.188747731,337.931034483 L346.188747731,331.578947368 L389.382940109,330.308529946 L389.382940109,373.502722323 L376.67876588,382.395644283 L366.515426497,378.584392015 L330.943738657,383.666061706 L318.239564428,355.716878403 L316.969147005,336.66061706 Z" fill="#cee3f5" id="US.AL.001" stroke="#6e6e6e" stroke-width="0.4"><desc><name>Autauga County</name><stateAbbrev>AL</stateAbbrev><state>Alabama</state><fips>001</fips><incits>01001</incits><id>US.AL.001</id><population>55246</population></desc></path><path d="M151.814882033,700.0 L159.43738657,672.050816697 L163.248638838,627.586206897 L158.166969147,612.341197822 L169.600725953,599.637023593 L163.248638838,592.014519056 L169.600725953,569.147005445 L165.789473684,552.631578947 L168.33030853,548.820326679 L181.034482759,545.00907441 L195.00907441,533.575317604 L216.606170599,541.197822142 L219.147005445,576.769509982 L215.335753176,598.366606171 L248.366606171,630.127041742 L240.744101633,646.64246824 L245.825771325,654.264972777 L230.58076225,687.295825771 L184.845735027,693.647912886 L161.978221416,694.918330309 L151.814882033,700.0 Z" fill="#cee3f5" id="US.AL.003" stroke="#6e6e6e" stroke-width="0.4"><desc><name>Baldwin County</name><stateAbbrev>AL</stateAbbrev><state>Alabama</state><fips>003</fips><incits>01003</incits><id>US.AL.003</id><population>195540</population></desc></path><path d="M244.555353902,288.384754991 L258.529945554,288.384754991 L264.882032668,269.328493648 L276.315789474,270.598911071 L283.938294011,255.353901996 L295.372050817,254.083484574 L300.453720508,254.083484574 L301.724137931,265.517241379 L322.050816697,282.032667877 L322.050816697,312.522686025 L301.724137931,312.522686025 L258.529945554,312.522686025 L244.555353902,307.441016334 L244.555353902,288.384754991 Z" fill="#cee3f5" id="US.AL.007" stroke="#6e6e6e" stroke-width="0.4"><desc><name>Bibb County</name><stateAbbrev>AL</stateAbbrev><state>Alabama</state><fips>007</fips><incits>01007</incits><id>US.AL.007</id><population>22512</population></desc></path><path d="M383.030852995,107.985480944 L404.627949183,130.852994555 L402.087114338,153.720508167 L386.842105263,170.235934664 L365.245009074,179.128856624 L339.836660617,167.695099819 L311.887477314,171.506352087 L310.617059891,165.154264973 L315.698729583,158.802177858 L338.566243194,148.638838475 L347.459165154,133.393829401 L362.704174229,128.31215971 L374.137931034,109.255898367 L383.030852995,107.985480944 Z" fill="#cee3f5" id="US.AL.009" stroke="#6e6e6e" stroke-width="0.4"><desc><name>Blount County</name><stateAbbrev>AL</stateAbbrev><state>Alabama</state><fips>009</fips><incits>01009</incits><id>US.AL.009</id><population>57872</population></desc></path><path d="M325.862068966,438.294010889 L384.301270417,437.023593466 L384.301270417,481.488203267 L376.67876588,500.54446461 L347.459165154,500.54446461 L328.402903811,500.54446461 L318.239564428,485.299455535 L318.239564428,467.513611615 L318.239564428,457.350272232 L325.862068966,438.294010889 Z" fill="#cee3f5" id="US.AL.013" stroke="#6e6e6e" stroke-width="0.4"><desc><name>Butler County</name><stateAbbrev>AL</stateAbbrev><state>Alabama</state><fips>013</fips><incits>01013</incits><id>US.AL.013</id><population>20265</population></desc></path><path d="M301.724137931,312.522686025 L322.050816697,312.522686025 L322.050816697,282.032667877 L361.433756806,279.491833031 L374.137931034,285.843920145 L374.137931034,299.818511797 L394.4646098,323.956442831 L389.382940109,330.308529946 L346.188747731,331.578947368 L346.188747731,337.931034483 L316.969147005,336.66061706 L301.724137931,327.7676951 L301.724137931,312.522686025 Z" fill="#cee3f5" id="US.AL.021" stroke="#6e6e6e" stroke-width="0.4"><desc><name>Chilton County</name><stateAbbrev>AL</stateAbbrev><state>Alabama</state><fips>021</fips><incits>01021</incits><id>US.AL.021</id><population>43951</population></desc></path><path d="M100.998185118,388.747731397 L170.871143376,388.747731397 L170.871143376,390.01814882 L170.871143376,391.288566243 L160.707803993,391.288566243 L160.707803993,406.533575318 L150.54446461,434.482758621 L135.299455535,458.620689655 L149.274047187,475.136116152 L94.6460980036,476.406533575 L93.3756805808,447.186932849 L100.998185118,388.747731397 Z" fill="#cee3f5" id="US.AL.023" stroke="#6e6e6e" stroke-width="0.4"><desc><name>Choctaw County</name><stateAbbrev>AL</stateAbbrev><state>Alabama</state><fips>023</fips><incits>01023</incits><id>US.AL.023</id><population>13426</population></desc></path><path d="M150.54446461,434.482758621 L208.983666062,433.212341198 L208.983666062,449.727767695 L215.335753176,457.350272232 L233.121597096,457.350272232 L222.958257713,476.406533575 L222.958257713,506.896551724 L219.147005445,517.059891107 L202.631578947,518.33030853 L195.00907441,533.575317604 L181.034482759,545.00907441 L168.33030853,548.820326679 L164.519056261,538.656987296 L177.22323049,523.411978221 L169.600725953,500.54446461 L150.54446461,490.381125227 L149.274047187,475.136116152 L135.299455535,458.620689655 L150.54446461,434.482758621 Z" fill="#cee3f5" id="US.AL.025" stroke="#6e6e6e" stroke-width="0.4"><desc><name>Clarke County</name><stateAbbrev>AL</stateAbbrev><state>Alabama</state><fips>025</fips><incits>01025</incits><id>US.AL.025</id><population>25207</population></desc></path><path d="M141.65154265,62.2504537205 L146.733212341,17.7858439201 L168.33030853,20.3266787659 L173.411978221,30.4900181488 L193.738656987,40.6533575318 L226.769509982,26.6787658802 L243.284936479,30.4900181488 L243.284936479,31.7604355717 L243.284936479,31.7604355717 L243.284936479,33.0308529946 L243.284936479,33.0308529946 L243.284936479,33.0308529946 L243.284936479,33.0308529946 L242.014519056,34.3012704174 L242.014519056,34.3012704174 L243.284936479,34.3012704174 L244.555353902,34.3012704174 L244.555353902,35.5716878403 L243.284936479,36.8421052632 L243.284936479,36.8421052632 L243.284936479,38.112522686 L229.310344828,64.7912885662 L141.65154265,62.2504537205 Z" fill="#cee3f5" id="US.AL.033" stroke="#6e6e6e" stroke-width="0.4"><desc><name>Colbert County</name><stateAbbrev>AL</stateAbbrev><state>Alabama</state><fips>033</fips><incits>01033</incits><id>US.AL.033</id><population>54520</population></desc></path><path d="M243.284936479,538.656987296 L281.397459165,501.814882033 L285.208711434,485.299455535 L318.239564428,467.513611615 L318.239564428,485.299455535 L328.402903811,500.54446461 L347.459165154,500.54446461 L347.459165154,548.820326679 L338.566243194,538.656987296 L243.284936479,538.656987296 Z" fill="#cee3f5" id="US.AL.035" stroke="#6e6e6e" stroke-width="0.4"><desc><name>Conecuh County</name><stateAbbrev>AL</stateAbbrev><state>Alabama</state><fips>035</fips><incits>01035</incits><id>US.AL.035</id><population>12887</population></desc></path><path d="M347.459165154,500.54446461 L376.67876588,500.54446461 L390.653357532,500.54446461 L421.143375681,513.248638838 L421.143375681,548.820326679 L421.143375681,576.769509982 L350.0,576.769509982 L347.459165154,548.820326679 L347.459165154,500.54446461 Z" fill="#cee3f5" id="US.AL.039" stroke="#6e6e6e" stroke-width="0.4"><desc><name>Covington County</name><stateAbbrev>AL</stateAbbrev><state>Alabama</state><fips>039</fips><incits>01039</incits><id>US.AL.039</id><population>37886</population></desc></path><path d="M384.301270417,437.023593466 L390.653357532,425.589836661 L404.627949183,425.589836661 L404.627949183,437.023593466 L421.143375681,437.023593466 L419.872958258,462.431941924 L427.495462795,462.431941924 L427.495462795,487.840290381 L421.143375681,513.248638838 L390.653357532,500.54446461 L376.67876588,500.54446461 L384.301270417,481.488203267 L384.301270417,437.023593466 Z" fill="#cee3f5" id="US.AL.041" stroke="#6e6e6e" stroke-width="0.4"><desc><name>Crenshaw County</name><stateAbbrev>AL</stateAbbrev><state>Alabama</state><fips>041</fips><incits>01041</incits><id>US.AL.041</id><population>13986</population></desc></path><path d="M282.667876588,146.09800363 L289.019963702,146.09800363 L289.019963702,102.903811252 L289.019963702,100.362976407 L365.245009074,101.633393829 L383.030852995,107.985480944 L374.137931034,109.255898367 L362.704174229,128.31215971 L347.459165154,133.393829401 L338.566243194,148.638838475 L315.698729583,158.802177858 L310.617059891,165.154264973 L292.831215971,158.802177858 L282.667876588,146.09800363 Z" fill="#cee3f5" id="US.AL.043" stroke="#6e6e6e" stroke-width="0.4"><desc><name>Cullman County</name><stateAbbrev>AL</stateAbbrev><state>Alabama</state><fips>043</fips><incits>01043</incits><id>US.AL.043</id><population>80811</population></desc></path><path d="M236.932849365,390.01814882 L244.555353902,388.747731397 L244.555353902,363.33938294 L287.749546279,362.068965517 L299.183303085,346.823956443 L301.724137931,327.7676951 L316.969147005,336.66061706 L318.239564428,355.716878403 L330.943738657,383.666061706 L318.239564428,400.181488203 L318.239564428,425.589836661 L278.856624319,425.589836661 L258.529945554,403.992740472 L236.932849365,396.370235935 L236.932849365,390.01814882 Z" fill="#cee3f5" id="US.AL.047" stroke="#6e6e6e" stroke-width="0.4"><desc><name>Dallas County</name><stateAbbrev>AL</stateAbbrev><state>Alabama</state><fips>047</fips><incits>01047</incits><id>US.AL.047</id><population>41996</population></desc></path><path d="M389.382940109,330.308529946 L394.4646098,323.956442831 L447.822141561,323.956442831 L461.796733212,334.119782214 L464.337568058,362.068965517 L445.281306715,372.2323049 L432.577132486,372.2323049 L414.791288566,360.798548094 L389.382940109,373.502722323 L389.382940109,330.308529946 Z" fill="#cee3f5" id="US.AL.051" stroke="#6e6e6e" stroke-width="0.4"><desc><name>Elmore County</name><stateAbbrev>AL</stateAbbrev><state>Alabama</state><fips>051</fips><incits>01051</incits><id>US.AL.051</id><population>80902</population></desc></path><path d="M216.606170599,541.197822142 L243.284936479,538.656987296 L338.566243194,538.656987296 L347.459165154,548.820326679 L350.0,576.769509982 L219.147005445,576.769509982 L216.606170599,541.197822142 Z" fill="#cee3f5" id="US.AL.053" stroke="#6e6e6e" stroke-width="0.4"><desc><name>Escambia County</name><stateAbbrev>AL</stateAbbrev><state>Alabama</state><fips>053</fips><incits>01053</incits><id>US.AL.053</id><population>37983</population></desc></path><path d="M404.627949183,130.852994555 L433.847549909,116.878402904 L470.689655172,116.878402904 L485.934664247,149.909255898 L465.607985481,152.450090744 L438.929219601,167.695099819 L419.872958258,147.368421053 L402.087114338,153.720508167 L404.627949183,130.852994555 Z" fill="#cee3f5" id="US.AL.055" stroke="#6e6e6e" stroke-width="0.4"><desc><name>Etowah County</name><stateAbbrev>AL</stateAbbrev><state>Alabama</state><fips>055</fips><incits>01055</incits><id>US.AL.055</id><population>103931</population></desc></path><path d="M168.33030853,156.261343013 L214.065335753,157.531760436 L228.039927405,163.88384755 L229.310344828,189.292196007 L244.555353902,190.56261343 L244.555353902,201.996370236 L214.065335753,200.725952813 L208.983666062,213.430127042 L184.845735027,213.430127042 L169.600725953,213.430127042 L168.33030853,156.261343013 Z" fill="#cee3f5" id="US.AL.057" stroke="#6e6e6e" stroke-width="0.4"><desc><name>Fayette County</name><stateAbbrev>AL</stateAbbrev><state>Alabama</state><fips>057</fips><incits>01057</incits><id>US.AL.057</id><population>16909</population></desc></path><path d="M136.569872958,99.0925589837 L141.65154265,62.2504537205 L229.310344828,64.7912885662 L229.310344828,101.633393829 L214.065335753,101.633393829 L136.569872958,99.0925589837 Z" fill="#cee3f5" id="US.AL.059" stroke="#6e6e6e" stroke-width="0.4"><desc><name>Franklin County</name><stateAbbrev>AL</stateAbbrev><state>Alabama</state><fips>059</fips><incits>01059</incits><id>US.AL.059</id><population>31532</population></desc></path><path d="M421.143375681,548.820326679 L478.31215971,547.549909256 L489.745916515,547.549909256 L522.77676951,547.549909256 L521.506352087,576.769509982 L421.143375681,576.769509982 L421.143375681,548.820326679 Z" fill="#cee3f5" id="US.AL.061" stroke="#6e6e6e" stroke-width="0.4"><desc><name>Geneva County</name><stateAbbrev>AL</stateAbbrev><state>Alabama</state><fips>061</fips><incits>01061</incits><id>US.AL.061</id><population>26727</population></desc></path><path d="M136.569872958,289.655172414 L136.569872958,289.655172414 L136.569872958,288.384754991 L136.569872958,288.384754991 L136.569872958,288.384754991 L137.840290381,287.114337568 L137.840290381,287.114337568 L137.840290381,285.843920145 L137.840290381,285.843920145 L139.110707804,285.843920145 L140.381125227,285.843920145 L140.381125227,284.573502722 L140.381125227,284.573502722 L140.381125227,284.573502722 L139.110707804,283.303085299 L140.381125227,283.303085299 L141.65154265,283.303085299 L141.65154265,283.303085299 L142.921960073,283.303085299 L142.921960073,283.303085299 L142.921960073,283.303085299 L144.192377495,283.303085299 L144.192377495,283.303085299 L145.462794918,283.303085299 L146.733212341,283.303085299 L146.733212341,283.303085299 L146.733212341,283.303085299 L148.003629764,283.303085299 L148.003629764,283.303085299 L148.003629764,283.303085299 L149.274047187,283.303085299 L149.274047187,283.303085299 L149.274047187,283.303085299 L149.274047187,283.303085299 L149.274047187,283.303085299 L149.274047187,283.303085299 L150.54446461,283.303085299 L150.54446461,282.032667877 L150.54446461,282.032667877 L150.54446461,280.762250454 L150.54446461,280.762250454 L151.814882033,282.032667877 L151.814882033,282.032667877 L151.814882033,282.032667877 L151.814882033,282.032667877 L153.085299456,283.303085299 L153.085299456,283.303085299 L154.355716878,283.303085299 L154.355716878,283.303085299 L154.355716878,283.303085299 L154.355716878,284.573502722 L155.626134301,283.303085299 L155.626134301,283.303085299 L156.896551724,283.303085299 L156.896551724,283.303085299 L156.896551724,282.032667877 L155.626134301,282.032667877 L155.626134301,280.762250454 L155.626134301,280.762250454 L155.626134301,280.762250454 L155.626134301,280.762250454 L156.896551724,280.762250454 L156.896551724,280.762250454 L156.896551724,280.762250454 L156.896551724,280.762250454 L156.896551724,279.491833031 L156.896551724,279.491833031 L156.896551724,279.491833031 L158.166969147,279.491833031 L158.166969147,279.491833031 L158.166969147,279.491833031 L159.43738657,279.491833031 L159.43738657,279.491833031 L160.707803993,278.221415608 L160.707803993,278.221415608 L161.978221416,278.221415608 L161.978221416,278.221415608 L163.248638838,278.221415608 L163.248638838,278.221415608 L163.248638838,278.221415608 L163.248638838,278.221415608 L164.519056261,278.221415608 L164.519056261,278.221415608 L165.789473684,276.950998185 L165.789473684,276.950998185 L167.059891107,276.950998185 L167.059891107,276.950998185 L167.059891107,275.680580762 L168.33030853,275.680580762 L168.33030853,274.410163339 L168.33030853,274.410163339 L168.33030853,274.410163339 L168.33030853,273.139745917 L169.600725953,273.139745917 L169.600725953,273.139745917 L170.871143376,271.869328494 L170.871143376,271.869328494 L178.493647913,269.328493648 L178.493647913,269.328493648 L179.764065336,269.328493648 L181.034482759,269.328493648 L181.034482759,268.058076225 L181.034482759,268.058076225 L182.304900181,268.058076225 L182.304900181,268.058076225 L184.845735027,266.787658802 L184.845735027,269.328493648 L186.11615245,275.680580762 L197.549909256,285.843920145 L202.631578947,287.114337568 L202.631578947,287.114337568 L202.631578947,287.114337568 L202.631578947,287.114337568 L202.631578947,288.384754991 L202.631578947,288.384754991 L202.631578947,288.384754991 L202.631578947,288.384754991 L202.631578947,289.655172414 L203.90199637,289.655172414 L203.90199637,289.655172414 L203.90199637,289.655172414 L203.90199637,290.925589837 L202.631578947,290.925589837 L202.631578947,290.925589837 L201.361161525,290.925589837 L200.090744102,290.925589837 L200.090744102,290.925589837 L198.820326679,292.19600726 L198.820326679,292.19600726 L198.820326679,292.19600726 L197.549909256,292.19600726 L197.549909256,292.19600726 L197.549909256,292.19600726 L197.549909256,292.19600726 L197.549909256,293.466424682 L197.549909256,294.736842105 L197.549909256,294.736842105 L198.820326679,294.736842105 L198.820326679,294.736842105 L197.549909256,296.007259528 L197.549909256,296.007259528 L197.549909256,296.007259528 L198.820326679,296.007259528 L198.820326679,296.007259528 L200.090744102,296.007259528 L200.090744102,296.007259528 L200.090744102,296.007259528 L198.820326679,297.277676951 L198.820326679,297.277676951 L198.820326679,298.548094374 L196.279491833,298.548094374 L196.279491833,298.548094374 L197.549909256,298.548094374 L197.549909256,298.548094374 L196.279491833,299.818511797 L196.279491833,298.548094374 L196.279491833,298.548094374 L196.279491833,298.548094374 L195.00907441,298.548094374 L195.00907441,298.548094374 L195.00907441,299.818511797 L195.00907441,299.818511797 L195.00907441,299.818511797 L193.738656987,299.818511797 L193.738656987,299.818511797 L193.738656987,299.818511797 L193.738656987,299.818511797 L193.738656987,299.818511797 L193.738656987,301.08892922 L195.00907441,301.08892922 L195.00907441,302.359346642 L196.279491833,302.359346642 L195.00907441,302.359346642 L195.00907441,303.629764065 L193.738656987,303.629764065 L193.738656987,302.359346642 L192.468239564,303.629764065 L192.468239564,303.629764065 L192.468239564,303.629764065 L192.468239564,303.629764065 L192.468239564,303.629764065 L192.468239564,303.629764065 L191.197822142,303.629764065 L191.197822142,303.629764065 L189.927404719,303.629764065 L189.927404719,303.629764065 L188.656987296,303.629764065 L188.656987296,303.629764065 L188.656987296,304.900181488 L188.656987296,304.900181488 L188.656987296,304.900181488 L188.656987296,304.900181488 L187.386569873,304.900181488 L187.386569873,304.900181488 L187.386569873,304.900181488 L187.386569873,304.900181488 L188.656987296,304.900181488 L188.656987296,306.170598911 L188.656987296,306.170598911 L188.656987296,306.170598911 L187.386569873,306.170598911 L187.386569873,306.170598911 L187.386569873,306.170598911 L187.386569873,307.441016334 L187.386569873,307.441016334 L187.386569873,307.441016334 L187.386569873,308.711433757 L186.11615245,308.711433757 L186.11615245,308.711433757 L184.845735027,308.711433757 L184.845735027,308.711433757 L186.11615245,309.98185118 L186.11615245,309.98185118 L186.11615245,309.98185118 L187.386569873,309.98185118 L187.386569873,311.252268603 L186.11615245,311.252268603 L186.11615245,311.252268603 L186.11615245,311.252268603 L184.845735027,311.252268603 L184.845735027,311.252268603 L186.11615245,312.522686025 L187.386569873,312.522686025 L187.386569873,312.522686025 L187.386569873,312.522686025 L187.386569873,313.793103448 L187.386569873,313.793103448 L187.386569873,313.793103448 L187.386569873,313.793103448 L187.386569873,315.063520871 L187.386569873,315.063520871 L187.386569873,315.063520871 L188.656987296,316.333938294 L187.386569873,316.333938294 L187.386569873,316.333938294 L187.386569873,316.333938294 L187.386569873,317.604355717 L187.386569873,317.604355717 L187.386569873,317.604355717 L187.386569873,318.87477314 L186.11615245,318.87477314 L186.11615245,318.87477314 L184.845735027,318.87477314 L184.845735027,320.145190563 L184.845735027,320.145190563 L183.575317604,320.145190563 L183.575317604,321.415607985 L182.304900181,321.415607985 L182.304900181,321.415607985 L181.034482759,321.415607985 L181.034482759,321.415607985 L179.764065336,322.686025408 L179.764065336,322.686025408 L179.764065336,322.686025408 L179.764065336,322.686025408 L181.034482759,323.956442831 L181.034482759,323.956442831 L182.304900181,323.956442831 L183.575317604,323.956442831 L183.575317604,323.956442831 L184.845735027,323.956442831 L184.845735027,322.686025408 L184.845735027,322.686025408 L184.845735027,322.686025408 L184.845735027,322.686025408 L184.845735027,321.415607985 L186.11615245,322.686025408 L187.386569873,322.686025408 L188.656987296,325.226860254 L189.927404719,325.226860254 L188.656987296,327.7676951 L187.386569873,326.497277677 L186.11615245,327.7676951 L186.11615245,327.7676951 L186.11615245,329.038112523 L186.11615245,329.038112523 L186.11615245,330.308529946 L187.386569873,331.578947368 L187.386569873,331.578947368 L188.656987296,330.308529946 L188.656987296,330.308529946 L189.927404719,329.038112523 L191.197822142,329.038112523 L191.197822142,330.308529946 L191.197822142,330.308529946 L191.197822142,331.578947368 L189.927404719,331.578947368 L191.197822142,332.849364791 L191.197822142,334.119782214 L191.197822142,334.119782214 L192.468239564,334.119782214 L192.468239564,335.390199637 L192.468239564,335.390199637 L191.197822142,335.390199637 L191.197822142,336.66061706 L191.197822142,336.66061706 L191.197822142,336.66061706 L191.197822142,337.931034483 L191.197822142,337.931034483 L191.197822142,337.931034483 L192.468239564,339.201451906 L195.00907441,339.201451906 L195.00907441,339.201451906 L196.279491833,339.201451906 L196.279491833,337.931034483 L196.279491833,337.931034483 L197.549909256,337.931034483 L197.549909256,337.931034483 L198.820326679,339.201451906 L197.549909256,339.201451906 L197.549909256,340.471869328 L196.279491833,341.742286751 L196.279491833,341.742286751 L196.279491833,341.742286751 L195.00907441,340.471869328 L193.738656987,340.471869328 L193.738656987,340.471869328 L193.738656987,340.471869328 L192.468239564,340.471869328 L191.197822142,340.471869328 L189.927404719,340.471869328 L189.927404719,340.471869328 L189.927404719,340.471869328 L188.656987296,340.471869328 L188.656987296,340.471869328 L188.656987296,341.742286751 L188.656987296,343.012704174 L188.656987296,343.012704174 L188.656987296,343.012704174 L189.927404719,344.283121597 L189.927404719,345.55353902 L191.197822142,345.55353902 L192.468239564,345.55353902 L193.738656987,345.55353902 L195.00907441,344.283121597 L195.00907441,344.283121597 L196.279491833,344.283121597 L196.279491833,344.283121597 L197.549909256,344.283121597 L197.549909256,344.283121597 L197.549909256,345.55353902 L197.549909256,345.55353902 L197.549909256,346.823956443 L198.820326679,346.823956443 L198.820326679,348.094373866 L198.820326679,348.094373866 L188.656987296,356.987295826 L182.304900181,355.716878403 L173.411978221,341.742286751 L153.085299456,346.823956443 L146.733212341,317.604355717 L131.488203267,299.818511797 L136.569872958,289.655172414 Z" fill="#cee3f5" id="US.AL.063" stroke="#6e6e6e" stroke-width="0.4"><desc><name>Greene County</name><stateAbbrev>AL</stateAbbrev><state>Alabama</state><fips>063</fips><incits>01063</incits><id>US.AL.063</id><population>8744</population></desc></path><path d="M179.764065336,322.686025408 L179.764065336,322.686025408 L181.034482759,321.415607985 L181.034482759,321.415607985 L182.304900181,321.415607985 L182.304900181,321.415607985 L183.575317604,321.415607985 L183.575317604,320.145190563 L184.845735027,320.145190563 L184.845735027,320.145190563 L184.845735027,318.87477314 L186.11615245,318.87477314 L186.11615245,318.87477314 L187.386569873,318.87477314 L187.386569873,317.604355717 L187.386569873,317.604355717 L187.386569873,317.604355717 L187.386569873,316.333938294 L187.386569873,316.333938294 L187.386569873,316.333938294 L188.656987296,316.333938294 L187.386569873,315.063520871 L187.386569873,315.063520871 L187.386569873,315.063520871 L187.386569873,313.793103448 L187.386569873,313.793103448 L187.386569873,313.793103448 L187.386569873,313.793103448 L187.386569873,312.522686025 L187.386569873,312.522686025 L187.386569873,312.522686025 L186.11615245,312.522686025 L184.845735027,311.252268603 L184.845735027,311.252268603 L186.11615245,311.252268603 L186.11615245,311.252268603 L186.11615245,311.252268603 L187.386569873,311.252268603 L187.386569873,309.98185118 L186.11615245,309.98185118 L186.11615245,309.98185118 L186.11615245,309.98185118 L184.845735027,308.711433757 L184.845735027,308.711433757 L186.11615245,308.711433757 L186.11615245,308.711433757 L187.386569873,308.711433757 L187.386569873,307.441016334 L187.386569873,307.441016334 L187.386569873,307.441016334 L187.386569873,306.170598911 L187.386569873,306.170598911 L187.386569873,306.170598911 L188.656987296,306.170598911 L188.656987296,306.170598911 L188.656987296,306.170598911 L188.656987296,304.900181488 L187.386569873,304.900181488 L187.386569873,304.900181488 L187.386569873,304.900181488 L187.386569873,304.900181488 L188.656987296,304.900181488 L188.656987296,304.900181488 L188.656987296,304.900181488 L188.656987296,304.900181488 L188.656987296,303.629764065 L188.656987296,303.629764065 L189.927404719,303.629764065 L189.927404719,303.629764065 L191.197822142,303.629764065 L191.197822142,303.629764065 L192.468239564,303.629764065 L192.468239564,303.629764065 L192.468239564,303.629764065 L192.468239564,303.629764065 L192.468239564,303.629764065 L192.468239564,303.629764065 L193.738656987,302.359346642 L193.738656987,303.629764065 L195.00907441,303.629764065 L195.00907441,302.359346642 L196.279491833,302.359346642 L195.00907441,302.359346642 L195.00907441,301.08892922 L193.738656987,301.08892922 L193.738656987,299.818511797 L193.738656987,299.818511797 L193.738656987,299.818511797 L193.738656987,299.818511797 L193.738656987,299.818511797 L195.00907441,299.818511797 L195.00907441,299.818511797 L195.00907441,299.818511797 L195.00907441,298.548094374 L195.00907441,298.548094374 L196.279491833,298.548094374 L196.279491833,298.548094374 L196.279491833,298.548094374 L196.279491833,299.818511797 L197.549909256,298.548094374 L197.549909256,298.548094374 L196.279491833,298.548094374 L196.279491833,298.548094374 L198.820326679,298.548094374 L198.820326679,297.277676951 L198.820326679,297.277676951 L200.090744102,296.007259528 L200.090744102,296.007259528 L200.090744102,296.007259528 L198.820326679,296.007259528 L198.820326679,296.007259528 L197.549909256,296.007259528 L197.549909256,296.007259528 L197.549909256,296.007259528 L198.820326679,294.736842105 L198.820326679,294.736842105 L197.549909256,294.736842105 L197.549909256,294.736842105 L197.549909256,293.466424682 L197.549909256,292.19600726 L197.549909256,292.19600726 L197.549909256,292.19600726 L197.549909256,292.19600726 L198.820326679,292.19600726 L198.820326679,292.19600726 L198.820326679,292.19600726 L200.090744102,290.925589837 L200.090744102,290.925589837 L201.361161525,290.925589837 L202.631578947,290.925589837 L202.631578947,290.925589837 L203.90199637,290.925589837 L203.90199637,289.655172414 L203.90199637,289.655172414 L203.90199637,289.655172414 L202.631578947,289.655172414 L202.631578947,288.384754991 L202.631578947,288.384754991 L202.631578947,288.384754991 L215.335753176,288.384754991 L244.555353902,288.384754991 L244.555353902,307.441016334 L236.932849365,313.793103448 L236.932849365,337.931034483 L229.310344828,337.931034483 L229.310344828,364.609800363 L200.090744102,364.609800363 L188.656987296,356.987295826 L198.820326679,348.094373866 L198.820326679,348.094373866 L198.820326679,346.823956443 L197.549909256,346.823956443 L197.549909256,345.55353902 L197.549909256,345.55353902 L197.549909256,344.283121597 L197.549909256,344.283121597 L196.279491833,344.283121597 L196.279491833,344.283121597 L195.00907441,344.283121597 L195.00907441,344.283121597 L193.738656987,345.55353902 L192.468239564,345.55353902 L191.197822142,345.55353902 L189.927404719,345.55353902 L189.927404719,344.283121597 L188.656987296,343.012704174 L188.656987296,343.012704174 L188.656987296,343.012704174 L188.656987296,341.742286751 L188.656987296,340.471869328 L188.656987296,340.471869328 L189.927404719,340.471869328 L189.927404719,340.471869328 L189.927404719,340.471869328 L191.197822142,340.471869328 L192.468239564,340.471869328 L193.738656987,340.471869328 L193.738656987,340.471869328 L193.738656987,340.471869328 L195.00907441,340.471869328 L196.279491833,341.742286751 L196.279491833,341.742286751 L196.279491833,341.742286751 L197.549909256,340.471869328 L197.549909256,339.201451906 L198.820326679,339.201451906 L197.549909256,337.931034483 L197.549909256,337.931034483 L196.279491833,337.931034483 L196.279491833,337.931034483 L196.279491833,339.201451906 L195.00907441,339.201451906 L195.00907441,339.201451906 L192.468239564,339.201451906 L191.197822142,337.931034483 L191.197822142,337.931034483 L191.197822142,337.931034483 L191.197822142,336.66061706 L191.197822142,336.66061706 L191.197822142,336.66061706 L191.197822142,335.390199637 L192.468239564,335.390199637 L192.468239564,335.390199637 L192.468239564,334.119782214 L191.197822142,334.119782214 L191.197822142,334.119782214 L191.197822142,332.849364791 L189.927404719,331.578947368 L191.197822142,331.578947368 L191.197822142,330.308529946 L191.197822142,330.308529946 L191.197822142,329.038112523 L189.927404719,329.038112523 L188.656987296,330.308529946 L188.656987296,330.308529946 L187.386569873,331.578947368 L187.386569873,331.578947368 L186.11615245,330.308529946 L186.11615245,329.038112523 L186.11615245,329.038112523 L186.11615245,327.7676951 L186.11615245,327.7676951 L187.386569873,326.497277677 L188.656987296,327.7676951 L189.927404719,325.226860254 L188.656987296,325.226860254 L187.386569873,322.686025408 L186.11615245,322.686025408 L184.845735027,321.415607985 L184.845735027,322.686025408 L184.845735027,322.686025408 L184.845735027,322.686025408 L184.845735027,322.686025408 L184.845735027,323.956442831 L183.575317604,323.956442831 L183.575317604,323.956442831 L182.304900181,323.956442831 L181.034482759,323.956442831 L181.034482759,323.956442831 L179.764065336,322.686025408 L179.764065336,322.686025408 L179.764065336,322.686025408 Z" fill="#cee3f5" id="US.AL.065" stroke="#6e6e6e" stroke-width="0.4"><desc><name>Hale County</name><stateAbbrev>AL</stateAbbrev><state>Alabama</state><fips>065</fips><incits>01065</incits><id>US.AL.065</id><population>15406</population></desc></path><path d="M489.745916515,547.549909256 L497.368421053,536.11615245 L518.965517241,539.927404719 L531.66969147,531.034482759 L579.945553539,532.304900181 L577.404718693,552.631578947 L586.297640653,560.254083485 L591.379310345,575.499092559 L521.506352087,576.769509982 L522.77676951,547.549909256 L489.745916515,547.549909256 Z" fill="#cee3f5" id="US.AL.069" stroke="#6e6e6e" stroke-width="0.4"><desc><name>Houston County</name><stateAbbrev>AL</stateAbbrev><state>Alabama</state><fips>069</fips><incits>01069</incits><id>US.AL.069</id><population>103668</population></desc></path><path d="M266.152450091,214.700544465 L291.560798548,198.185117967 L304.264972777,175.317604356 L311.887477314,171.506352087 L339.836660617,167.695099819 L365.245009074,179.128856624 L372.867513612,185.480943739 L374.137931034,210.889292196 L361.433756806,222.323049002 L351.270417423,222.323049002 L337.295825771,236.297640653 L300.453720508,254.083484574 L295.372050817,254.083484574 L257.259528131,223.593466425 L266.152450091,214.700544465 Z" fill="#cee3f5" id="US.AL.073" stroke="#6e6e6e" stroke-width="0.4"><desc><name>Jefferson County</name><stateAbbrev>AL</stateAbbrev><state>Alabama</state><fips>073</fips><incits>01073</incits><id>US.AL.073</id><population>659479</population></desc></path><path d="M121.324863884,212.159709619 L131.488203267,137.20508167 L163.248638838,137.20508167 L168.33030853,156.261343013 L169.600725953,213.430127042 L121.324863884,212.159709619 Z" fill="#cee3f5" id="US.AL.075" stroke="#6e6e6e" stroke-width="0.4"><desc><name>Lamar County</name><stateAbbrev>AL</stateAbbrev><state>Alabama</state><fips>075</fips><incits>01075</incits><id>US.AL.075</id><population>14236</population></desc></path><path d="M275.045372051,2.54083484574 L273.774954628,27.9491833031 L267.422867514,36.8421052632 L267.422867514,36.8421052632 L261.070780399,36.8421052632 L259.800362976,35.5716878403 L257.259528131,33.0308529946 L255.989110708,30.4900181488 L255.989110708,30.4900181488 L252.177858439,29.219600726 L244.555353902,30.4900181488 L243.284936479,30.4900181488 L226.769509982,26.6787658802 L193.738656987,40.6533575318 L173.411978221,30.4900181488 L168.33030853,20.3266787659 L146.733212341,17.7858439201 L132.75862069,0.0 L275.045372051,2.54083484574 Z" fill="#cee3f5" id="US.AL.077" stroke="#6e6e6e" stroke-width="0.4"><desc><name>Lauderdale County</name><stateAbbrev>AL</stateAbbrev><state>Alabama</state><fips>077</fips><incits>01077</incits><id>US.AL.077</id><population>92797</population></desc></path><path d="M229.310344828,64.7912885662 L243.284936479,38.112522686 L243.284936479,36.8421052632 L243.284936479,36.8421052632 L244.555353902,35.5716878403 L244.555353902,34.3012704174 L243.284936479,34.3012704174 L242.014519056,34.3012704174 L242.014519056,34.3012704174 L243.284936479,33.0308529946 L243.284936479,33.0308529946 L243.284936479,33.0308529946 L243.284936479,33.0308529946 L243.284936479,31.7604355717 L243.284936479,31.7604355717 L244.555353902,30.4900181488 L252.177858439,29.219600726 L255.989110708,30.4900181488 L255.989110708,30.4900181488 L257.259528131,33.0308529946 L259.800362976,35.5716878403 L261.070780399,36.8421052632 L267.422867514,36.8421052632 L272.504537205,35.5716878403 L280.127041742,38.112522686 L285.208711434,41.9237749546 L286.479128857,43.1941923775 L289.019963702,45.7350272232 L290.290381125,47.0054446461 L290.290381125,49.5462794918 L290.290381125,50.8166969147 L289.019963702,73.6842105263 L289.019963702,100.362976407 L289.019963702,102.903811252 L229.310344828,101.633393829 L229.310344828,64.7912885662 Z" fill="#cee3f5" id="US.AL.079" stroke="#6e6e6e" stroke-width="0.4"><desc><name>Lawrence County</name><stateAbbrev>AL</stateAbbrev><state>Alabama</state><fips>079</fips><incits>01079</incits><id>US.AL.079</id><population>33587</population></desc></path><path d="M275.045372051,2.54083484574 L336.025408348,2.54083484574 L334.754990926,66.0617059891 L316.969147005,62.2504537205 L302.994555354,53.3575317604 L301.724137931,52.0871143376 L297.912885662,52.0871143376 L296.64246824,52.0871143376 L291.560798548,48.275862069 L290.290381125,47.0054446461 L290.290381125,47.0054446461 L289.019963702,45.7350272232 L286.479128857,43.1941923775 L285.208711434,41.9237749546 L280.127041742,38.112522686 L272.504537205,35.5716878403 L267.422867514,36.8421052632 L273.774954628,27.9491833031 L275.045372051,2.54083484574 Z" fill="#cee3f5" id="US.AL.083" stroke="#6e6e6e" stroke-width="0.4"><desc><name>Limestone County</name><stateAbbrev>AL</stateAbbrev><state>Alabama</state><fips>083</fips><incits>01083</incits><id>US.AL.083</id><population>88845</population></desc></path><path d="M330.943738657,383.666061706 L366.515426497,378.584392015 L376.67876588,382.395644283 L389.382940109,397.640653358 L390.653357532,425.589836661 L384.301270417,437.023593466 L325.862068966,438.294010889 L318.239564428,425.589836661 L318.239564428,400.181488203 L330.943738657,383.666061706 Z" fill="#cee3f5" id="US.AL.085" stroke="#6e6e6e" stroke-width="0.4"><desc><name>Lowndes County</name><stateAbbrev>AL</stateAbbrev><state>Alabama</state><fips>085</fips><incits>01085</incits><id>US.AL.085</id><population>10703</population></desc></path><path d="M334.754990926,66.0617059891 L336.025408348,2.54083484574 L403.35753176,2.54083484574 L397.005444646,54.6279491833 L402.087114338,59.7096188748 L403.35753176,67.332123412 L386.842105263,76.2250453721 L369.056261343,68.6025408348 L346.188747731,60.9800362976 L334.754990926,66.0617059891 Z" fill="#cee3f5" id="US.AL.089" stroke="#6e6e6e" stroke-width="0.4"><desc><name>Madison County</name><stateAbbrev>AL</stateAbbrev><state>Alabama</state><fips>089</fips><incits>01089</incits><id>US.AL.089</id><population>346892</population></desc></path><path d="M170.871143376,391.288566243 L170.871143376,390.01814882 L170.871143376,388.747731397 L154.355716878,378.584392015 L156.896551724,369.691470054 L182.304900181,355.716878403 L188.656987296,356.987295826 L200.090744102,364.609800363 L229.310344828,364.609800363 L229.310344828,390.01814882 L236.932849365,390.01814882 L236.932849365,396.370235935 L230.58076225,415.426497278 L215.335753176,415.426497278 L208.983666062,433.212341198 L150.54446461,434.482758621 L160.707803993,406.533575318 L160.707803993,391.288566243 L170.871143376,391.288566243 Z" fill="#cee3f5" id="US.AL.091" stroke="#6e6e6e" stroke-width="0.4"><desc><name>Marengo County</name><stateAbbrev>AL</stateAbbrev><state>Alabama</state><fips>091</fips><incits>01091</incits><id>US.AL.091</id><population>20155</population></desc></path><path d="M131.488203267,137.20508167 L136.569872958,99.0925589837 L214.065335753,101.633393829 L214.065335753,144.827586207 L214.065335753,157.531760436 L168.33030853,156.261343013 L163.248638838,137.20508167 L131.488203267,137.20508167 Z" fill="#cee3f5" id="US.AL.093" stroke="#6e6e6e" stroke-width="0.4"><desc><name>Marion County</name><stateAbbrev>AL</stateAbbrev><state>Alabama</state><fips>093</fips><incits>01093</incits><id>US.AL.093</id><population>30334</population></desc></path><path d="M365.245009074,101.633393829 L369.056261343,68.6025408348 L386.842105263,76.2250453721 L403.35753176,67.332123412 L402.087114338,59.7096188748 L427.495462795,59.7096188748 L440.199637024,77.4954627949 L432.577132486,83.8475499093 L433.847549909,116.878402904 L404.627949183,130.852994555 L383.030852995,107.985480944 L365.245009074,101.633393829 Z" fill="#cee3f5" id="US.AL.095" stroke="#6e6e6e" stroke-width="0.4"><desc><name>Marshall County</name><stateAbbrev>AL</stateAbbrev><state>Alabama</state><fips>095</fips><incits>01095</incits><id>US.AL.095</id><population>94760</population></desc></path><path d="M99.7277676951,560.254083485 L113.702359347,555.172413793 L158.166969147,555.172413793 L165.789473684,552.631578947 L169.600725953,569.147005445 L163.248638838,592.014519056 L169.600725953,599.637023593 L158.166969147,612.341197822 L163.248638838,627.586206897 L159.43738657,672.050816697 L151.814882033,700.0 L137.840290381,691.10707804 L109.891107078,693.647912886 L104.809437387,677.132486388 L99.7277676951,560.254083485 Z" fill="#cee3f5" id="US.AL.097" stroke="#6e6e6e" stroke-width="0.4"><desc><name>Mobile County</name><stateAbbrev>AL</stateAbbrev><state>Alabama</state><fips>097</fips><incits>01097</incits><id>US.AL.097</id><population>414079</population></desc></path><path d="M233.121597096,457.350272232 L318.239564428,457.350272232 L318.239564428,467.513611615 L285.208711434,485.299455535 L281.397459165,501.814882033 L243.284936479,538.656987296 L216.606170599,541.197822142 L195.00907441,533.575317604 L202.631578947,518.33030853 L219.147005445,517.059891107 L222.958257713,506.896551724 L222.958257713,476.406533575 L233.121597096,457.350272232 Z" fill="#cee3f5" id="US.AL.099" stroke="#6e6e6e" stroke-width="0.4"><desc><name>Monroe County</name><stateAbbrev>AL</stateAbbrev><state>Alabama</state><fips>099</fips><incits>01099</incits><id>US.AL.099</id><population>22236</population></desc></path><path d="M376.67876588,382.395644283 L389.382940109,373.502722323 L414.791288566,360.798548094 L432.577132486,372.2323049 L445.281306715,372.2323049 L460.526315789,392.558983666 L449.092558984,396.370235935 L449.092558984,425.589836661 L449.092558984,437.023593466 L421.143375681,437.023593466 L404.627949183,437.023593466 L404.627949183,425.589836661 L390.653357532,425.589836661 L389.382940109,397.640653358 L376.67876588,382.395644283 Z" fill="#cee3f5" id="US.AL.101" stroke="#6e6e6e" stroke-width="0.4"><desc><name>Montgomery County</name><stateAbbrev>AL</stateAbbrev><state>Alabama</state><fips>101</fips><incits>01101</incits><id>US.AL.101</id><population>226659</population></desc></path><path d="M289.019963702,100.362976407 L289.019963702,73.6842105263 L290.290381125,50.8166969147 L290.290381125,49.5462794918 L290.290381125,47.0054446461 L290.290381125,47.0054446461 L291.560798548,48.275862069 L296.64246824,52.0871143376 L297.912885662,52.0871143376 L301.724137931,52.0871143376 L302.994555354,53.3575317604 L316.969147005,62.2504537205 L334.754990926,66.0617059891 L346.188747731,60.9800362976 L369.056261343,68.6025408348 L365.245009074,101.633393829 L289.019963702,100.362976407 Z" fill="#cee3f5" id="US.AL.103" stroke="#6e6e6e" stroke-width="0.4"><desc><name>Morgan County</name><stateAbbrev>AL</stateAbbrev><state>Alabama</state><fips>103</fips><incits>01103</incits><id>US.AL.103</id><population>119787</population></desc></path><path d="M244.555353902,307.441016334 L258.529945554,312.522686025 L301.724137931,312.522686025 L301.724137931,327.7676951 L299.183303085,346.823956443 L287.749546279,362.068965517 L244.555353902,363.33938294 L244.555353902,388.747731397 L236.932849365,390.01814882 L229.310344828,390.01814882 L229.310344828,364.609800363 L229.310344828,337.931034483 L236.932849365,337.931034483 L236.932849365,313.793103448 L244.555353902,307.441016334 Z" fill="#cee3f5" id="US.AL.105" stroke="#6e6e6e" stroke-width="0.4"><desc><name>Perry County</name><stateAbbrev>AL</stateAbbrev><state>Alabama</state><fips>105</fips><incits>01105</incits><id>US.AL.105</id><population>10020</population></desc></path><path d="M112.431941924,289.655172414 L121.324863884,212.159709619 L169.600725953,213.430127042 L184.845735027,213.430127042 L184.845735027,266.787658802 L184.845735027,266.787658802 L182.304900181,268.058076225 L182.304900181,268.058076225 L181.034482759,268.058076225 L181.034482759,268.058076225 L181.034482759,269.328493648 L179.764065336,269.328493648 L178.493647913,269.328493648 L178.493647913,269.328493648 L170.871143376,271.869328494 L170.871143376,271.869328494 L169.600725953,273.139745917 L169.600725953,273.139745917 L168.33030853,273.139745917 L168.33030853,274.410163339 L168.33030853,274.410163339 L168.33030853,274.410163339 L168.33030853,275.680580762 L167.059891107,275.680580762 L167.059891107,276.950998185 L167.059891107,276.950998185 L165.789473684,276.950998185 L165.789473684,276.950998185 L164.519056261,278.221415608 L164.519056261,278.221415608 L163.248638838,278.221415608 L163.248638838,278.221415608 L163.248638838,278.221415608 L163.248638838,278.221415608 L161.978221416,278.221415608 L161.978221416,278.221415608 L160.707803993,278.221415608 L160.707803993,278.221415608 L159.43738657,279.491833031 L159.43738657,279.491833031 L158.166969147,279.491833031 L158.166969147,279.491833031 L158.166969147,279.491833031 L156.896551724,279.491833031 L156.896551724,279.491833031 L156.896551724,279.491833031 L156.896551724,280.762250454 L156.896551724,280.762250454 L156.896551724,280.762250454 L156.896551724,280.762250454 L155.626134301,280.762250454 L155.626134301,280.762250454 L155.626134301,280.762250454 L155.626134301,280.762250454 L155.626134301,282.032667877 L156.896551724,282.032667877 L156.896551724,283.303085299 L156.896551724,283.303085299 L155.626134301,283.303085299 L155.626134301,283.303085299 L154.355716878,284.573502722 L154.355716878,283.303085299 L154.355716878,283.303085299 L154.355716878,283.303085299 L153.085299456,283.303085299 L153.085299456,283.303085299 L151.814882033,282.032667877 L151.814882033,282.032667877 L151.814882033,282.032667877 L151.814882033,282.032667877 L150.54446461,280.762250454 L150.54446461,280.762250454 L150.54446461,282.032667877 L150.54446461,282.032667877 L150.54446461,283.303085299 L149.274047187,283.303085299 L149.274047187,283.303085299 L149.274047187,283.303085299 L149.274047187,283.303085299 L149.274047187,283.303085299 L149.274047187,283.303085299 L148.003629764,283.303085299 L148.003629764,283.303085299 L148.003629764,283.303085299 L146.733212341,283.303085299 L146.733212341,283.303085299 L146.733212341,283.303085299 L145.462794918,283.303085299 L144.192377495,283.303085299 L144.192377495,283.303085299 L142.921960073,283.303085299 L142.921960073,283.303085299 L142.921960073,283.303085299 L141.65154265,283.303085299 L141.65154265,283.303085299 L140.381125227,283.303085299 L139.110707804,283.303085299 L140.381125227,284.573502722 L140.381125227,284.573502722 L140.381125227,284.573502722 L140.381125227,285.843920145 L139.110707804,285.843920145 L137.840290381,285.843920145 L137.840290381,285.843920145 L137.840290381,287.114337568 L137.840290381,287.114337568 L136.569872958,288.384754991 L136.569872958,288.384754991 L136.569872958,288.384754991 L136.569872958,289.655172414 L126.406533575,289.655172414 L112.431941924,289.655172414 Z" fill="#cee3f5" id="US.AL.107" stroke="#6e6e6e" stroke-width="0.4"><desc><name>Pickens County</name><stateAbbrev>AL</stateAbbrev><state>Alabama</state><fips>107</fips><incits>01107</incits><id>US.AL.107</id><population>19401</population></desc></path><path d="M365.245009074,179.128856624 L386.842105263,170.235934664 L402.087114338,153.720508167 L419.872958258,147.368421053 L438.929219601,167.695099819 L441.470054446,177.858439201 L427.495462795,191.833030853 L417.332123412,204.537205082 L421.143375681,210.889292196 L394.4646098,232.486388385 L394.4646098,217.24137931 L374.137931034,210.889292196 L372.867513612,185.480943739 L365.245009074,179.128856624 Z" fill="#cee3f5" id="US.AL.115" stroke="#6e6e6e" stroke-width="0.4"><desc><name>St. Clair County</name><stateAbbrev>AL</stateAbbrev><state>Alabama</state><fips>115</fips><incits>01115</incits><id>US.AL.115</id><population>86308</population></desc></path><path d="M100.998185118,388.747731397 L112.431941924,289.655172414 L126.406533575,289.655172414 L136.569872958,289.655172414 L136.569872958,289.655172414 L131.488203267,299.818511797 L146.733212341,317.604355717 L153.085299456,346.823956443 L173.411978221,341.742286751 L182.304900181,355.716878403 L156.896551724,369.691470054 L154.355716878,378.584392015 L170.871143376,388.747731397 L100.998185118,388.747731397 Z" fill="#cee3f5" id="US.AL.119" stroke="#6e6e6e" stroke-width="0.4"><desc><name>Sumter County</name><stateAbbrev>AL</stateAbbrev><state>Alabama</state><fips>119</fips><incits>01119</incits><id>US.AL.119</id><population>13361</population></desc></path><path d="M184.845735027,213.430127042 L208.983666062,213.430127042 L214.065335753,200.725952813 L244.555353902,201.996370236 L259.800362976,204.537205082 L266.152450091,214.700544465 L257.259528131,223.593466425 L295.372050817,254.083484574 L283.938294011,255.353901996 L276.315789474,270.598911071 L264.882032668,269.328493648 L258.529945554,288.384754991 L244.555353902,288.384754991 L215.335753176,288.384754991 L202.631578947,288.384754991 L202.631578947,288.384754991 L202.631578947,287.114337568 L202.631578947,287.114337568 L202.631578947,287.114337568 L202.631578947,287.114337568 L197.549909256,285.843920145 L186.11615245,275.680580762 L184.845735027,269.328493648 L184.845735027,266.787658802 L184.845735027,213.430127042 Z" fill="#cee3f5" id="US.AL.125" stroke="#6e6e6e" stroke-width="0.4"><desc><name>Tuscaloosa County</name><stateAbbrev>AL</stateAbbrev><state>Alabama</state><fips>125</fips><incits>01125</incits><id>US.AL.125</id><population>200821</population></desc></path><path d="M214.065335753,157.531760436 L214.065335753,144.827586207 L282.667876588,146.09800363 L292.831215971,158.802177858 L310.617059891,165.154264973 L311.887477314,171.506352087 L304.264972777,175.317604356 L291.560798548,198.185117967 L266.152450091,214.700544465 L259.800362976,204.537205082 L244.555353902,201.996370236 L244.555353902,190.56261343 L229.310344828,189.292196007 L228.039927405,163.88384755 L214.065335753,157.531760436 Z" fill="#cee3f5" id="US.AL.127" stroke="#6e6e6e" stroke-width="0.4"><desc><name>Walker County</name><stateAbbrev>AL</stateAbbrev><state>Alabama</state><fips>127</fips><incits>01127</incits><id>US.AL.127</id><population>65998</population></desc></path><path d="M94.6460980036,476.406533575 L149.274047187,475.136116152 L150.54446461,490.381125227 L169.600725953,500.54446461 L177.22323049,523.411978221 L164.519056261,538.656987296 L168.33030853,548.820326679 L165.789473684,552.631578947 L158.166969147,555.172413793 L113.702359347,555.172413793 L99.7277676951,560.254083485 L94.6460980036,476.406533575 Z" fill="#cee3f5" id="US.AL.129" stroke="#6e6e6e" stroke-width="0.4"><desc><name>Washington County</name><stateAbbrev>AL</stateAbbrev><state>Alabama</state><fips>129</fips><incits>01129</incits><id>US.AL.129</id><population>16877</population></desc></path><path d="M236.932849365,396.370235935 L258.529945554,403.992740472 L278.856624319,425.589836661 L318.239564428,425.589836661 L325.862068966,438.294010889 L318.239564428,457.350272232 L233.121597096,457.350272232 L215.335753176,457.350272232 L208.983666062,449.727767695 L208.983666062,433.212341198 L215.335753176,415.426497278 L230.58076225,415.426497278 L236.932849365,396.370235935 Z" fill="#cee3f5" id="US.AL.131" stroke="#6e6e6e" stroke-width="0.4"><desc><name>Wilcox County</name><stateAbbrev>AL</stateAbbrev><state>Alabama</state><fips>131</fips><incits>01131</incits><id>US.AL.131</id><population>11307</population></desc></path><path d="M214.065335753,101.633393829 L229.310344828,101.633393829 L289.019963702,102.903811252 L289.019963702,146.09800363 L282.667876588,146.09800363 L214.065335753,144.827586207 L214.065335753,101.633393829 Z" fill="#cee3f5" id="US.AL.133" stroke="#6e6e6e" stroke-width="0.4"><desc><name>Winston County</name><stateAbbrev>AL</stateAbbrev><state>Alabama</state><fips>133</fips><incits>01133</incits><id>US.AL.133</id><population>24146</population></desc></path><path d="M438.929219601,167.695099819 L465.607985481,152.450090744 L485.934664247,149.909255898 L516.424682396,153.720508167 L506.261343013,161.343012704 L499.909255898,195.644283122 L478.31215971,209.618874773 L449.092558984,204.537205082 L441.470054446,191.833030853 L427.495462795,191.833030853 L441.470054446,177.858439201 L438.929219601,167.695099819 Z" fill="#cee3f5" id="US.AL.015" stroke="#6e6e6e" stroke-width="0.4"><desc><name>Calhoun County</name><stateAbbrev>AL</stateAbbrev><state>Alabama</state><fips>015</fips><incits>01015</incits><id>US.AL.015</id><population>116736</population></desc></path><path d="M517.695099819,69.8729582577 L534.210526316,149.909255898 L516.424682396,153.720508167 L485.934664247,149.909255898 L470.689655172,116.878402904 L501.179673321,92.7404718693 L517.695099819,69.8729582577 Z" fill="#cee3f5" id="US.AL.019" stroke="#6e6e6e" stroke-width="0.4"><desc><name>Cherokee County</name><stateAbbrev>AL</stateAbbrev><state>Alabama</state><fips>019</fips><incits>01019</incits><id>US.AL.019</id><population>26203</population></desc></path><path d="M469.41923775,217.24137931 L478.31215971,209.618874773 L499.909255898,195.644283122 L506.261343013,161.343012704 L516.424682396,153.720508167 L534.210526316,149.909255898 L548.185117967,219.782214156 L499.909255898,217.24137931 L469.41923775,217.24137931 Z" fill="#cee3f5" id="US.AL.029" stroke="#6e6e6e" stroke-width="0.4"><desc><name>Cleburne County</name><stateAbbrev>AL</stateAbbrev><state>Alabama</state><fips>029</fips><incits>01029</incits><id>US.AL.029</id><population>14994</population></desc></path><path d="M440.199637024,77.4954627949 L447.822141561,76.2250453721 L479.582577132,55.8983666062 L508.802177858,21.5970961887 L517.695099819,69.8729582577 L501.179673321,92.7404718693 L470.689655172,116.878402904 L433.847549909,116.878402904 L432.577132486,83.8475499093 L440.199637024,77.4954627949 Z" fill="#cee3f5" id="US.AL.049" stroke="#6e6e6e" stroke-width="0.4"><desc><name>DeKalb County</name><stateAbbrev>AL</stateAbbrev><state>Alabama</state><fips>049</fips><incits>01049</incits><id>US.AL.049</id><population>71013</population></desc></path><path d="M403.35753176,2.54083484574 L504.99092559,3.8112522686 L508.802177858,21.5970961887 L479.582577132,55.8983666062 L447.822141561,76.2250453721 L440.199637024,77.4954627949 L427.495462795,59.7096188748 L402.087114338,59.7096188748 L397.005444646,54.6279491833 L403.35753176,2.54083484574 Z" fill="#cee3f5" id="US.AL.071" stroke="#6e6e6e" stroke-width="0.4"><desc><name>Jackson County</name><stateAbbrev>AL</stateAbbrev><state>Alabama</state><fips>071</fips><incits>01071</incits><id>US.AL.071</id><population>52951</population></desc></path><path d="M484.664246824,487.840290381 L496.09800363,466.243194192 L497.368421053,449.727767695 L507.531760436,433.212341198 L530.399274047,430.671506352 L532.940108893,411.615245009 L554.537205082,411.615245009 L564.700544465,423.049001815 L583.756805808,423.049001815 L579.945553539,440.834845735 L572.323049002,453.539019964 L573.593466425,467.513611615 L560.889292196,475.136116152 L532.940108893,473.86569873 L532.940108893,486.569872958 L484.664246824,487.840290381 Z" fill="#cee3f5" id="US.AL.005" stroke="#6e6e6e" stroke-width="0.4"><desc><name>Barbour County</name><stateAbbrev>AL</stateAbbrev><state>Alabama</state><fips>005</fips><incits>01005</incits><id>US.AL.005</id><population>27076</population></desc></path><path d="M460.526315789,392.558983666 L469.41923775,398.91107078 L530.399274047,398.91107078 L532.940108893,411.615245009 L530.399274047,430.671506352 L507.531760436,433.212341198 L497.368421053,449.727767695 L478.31215971,449.727767695 L478.31215971,437.023593466 L465.607985481,437.023593466 L464.337568058,425.589836661 L449.092558984,425.589836661 L449.092558984,396.370235935 L460.526315789,392.558983666 Z" fill="#cee3f5" id="US.AL.011" stroke="#6e6e6e" stroke-width="0.4"><desc><name>Bullock County</name><stateAbbrev>AL</stateAbbrev><state>Alabama</state><fips>011</fips><incits>01011</incits><id>US.AL.011</id><population>10639</population></desc></path><path d="M506.261343013,273.139745917 L558.34845735,273.139745917 L565.970961887,307.441016334 L573.593466425,325.226860254 L507.531760436,327.7676951 L506.261343013,273.139745917 Z" fill="#cee3f5" id="US.AL.017" stroke="#6e6e6e" stroke-width="0.4"><desc><name>Chambers County</name><stateAbbrev>AL</stateAbbrev><state>Alabama</state><fips>017</fips><incits>01017</incits><id>US.AL.017</id><population>34162</population></desc></path><path d="M423.684210526,274.410163339 L431.306715064,260.435571688 L431.306715064,246.460980036 L451.633393829,246.460980036 L469.41923775,217.24137931 L499.909255898,217.24137931 L498.638838475,273.139745917 L451.633393829,273.139745917 L446.551724138,275.680580762 L423.684210526,274.410163339 Z" fill="#cee3f5" id="US.AL.027" stroke="#6e6e6e" stroke-width="0.4"><desc><name>Clay County</name><stateAbbrev>AL</stateAbbrev><state>Alabama</state><fips>027</fips><incits>01027</incits><id>US.AL.027</id><population>13486</population></desc></path><path d="M427.495462795,487.840290381 L478.31215971,487.840290381 L478.31215971,547.549909256 L421.143375681,548.820326679 L421.143375681,513.248638838 L427.495462795,487.840290381 Z" fill="#cee3f5" id="US.AL.031" stroke="#6e6e6e" stroke-width="0.4"><desc><name>Coffee County</name><stateAbbrev>AL</stateAbbrev><state>Alabama</state><fips>031</fips><incits>01031</incits><id>US.AL.031</id><population>50938</population></desc></path><path d="M374.137931034,285.843920145 L377.949183303,274.410163339 L423.684210526,274.410163339 L446.551724138,275.680580762 L447.822141561,323.956442831 L394.4646098,323.956442831 L374.137931034,299.818511797 L374.137931034,285.843920145 Z" fill="#cee3f5" id="US.AL.037" stroke="#6e6e6e" stroke-width="0.4"><desc><name>Coosa County</name><stateAbbrev>AL</stateAbbrev><state>Alabama</state><fips>037</fips><incits>01037</incits><id>US.AL.037</id><population>10898</population></desc></path><path d="M478.31215971,487.840290381 L484.664246824,487.840290381 L532.940108893,486.569872958 L531.66969147,531.034482759 L518.965517241,539.927404719 L497.368421053,536.11615245 L489.745916515,547.549909256 L478.31215971,547.549909256 L478.31215971,487.840290381 Z" fill="#cee3f5" id="US.AL.045" stroke="#6e6e6e" stroke-width="0.4"><desc><name>Dale County</name><stateAbbrev>AL</stateAbbrev><state>Alabama</state><fips>045</fips><incits>01045</incits><id>US.AL.045</id><population>49884</population></desc></path><path d="M531.66969147,531.034482759 L532.940108893,486.569872958 L532.940108893,473.86569873 L560.889292196,475.136116152 L573.593466425,467.513611615 L583.756805808,487.840290381 L579.945553539,532.304900181 L531.66969147,531.034482759 Z" fill="#cee3f5" id="US.AL.067" stroke="#6e6e6e" stroke-width="0.4"><desc><name>Henry County</name><stateAbbrev>AL</stateAbbrev><state>Alabama</state><fips>067</fips><incits>01067</incits><id>US.AL.067</id><population>17296</population></desc></path><path d="M507.531760436,327.7676951 L573.593466425,325.226860254 L582.486388385,349.364791289 L591.379310345,359.528130672 L583.756805808,364.609800363 L544.373865699,365.880217786 L529.128856624,373.502722323 L521.506352087,360.798548094 L492.286751361,346.823956443 L492.286751361,332.849364791 L507.531760436,327.7676951 Z" fill="#cee3f5" id="US.AL.081" stroke="#6e6e6e" stroke-width="0.4"><desc><name>Lee County</name><stateAbbrev>AL</stateAbbrev><state>Alabama</state><fips>081</fips><incits>01081</incits><id>US.AL.081</id><population>150933</population></desc></path><path d="M445.281306715,372.2323049 L464.337568058,362.068965517 L477.041742287,349.364791289 L492.286751361,346.823956443 L521.506352087,360.798548094 L529.128856624,373.502722323 L530.399274047,398.91107078 L469.41923775,398.91107078 L460.526315789,392.558983666 L445.281306715,372.2323049 Z" fill="#cee3f5" id="US.AL.087" stroke="#6e6e6e" stroke-width="0.4"><desc><name>Macon County</name><stateAbbrev>AL</stateAbbrev><state>Alabama</state><fips>087</fips><incits>01087</incits><id>US.AL.087</id><population>19688</population></desc></path><path d="M421.143375681,437.023593466 L449.092558984,437.023593466 L449.092558984,425.589836661 L464.337568058,425.589836661 L465.607985481,437.023593466 L478.31215971,437.023593466 L478.31215971,449.727767695 L497.368421053,449.727767695 L496.09800363,466.243194192 L484.664246824,487.840290381 L478.31215971,487.840290381 L427.495462795,487.840290381 L427.495462795,462.431941924 L419.872958258,462.431941924 L421.143375681,437.023593466 Z" fill="#cee3f5" id="US.AL.109" stroke="#6e6e6e" stroke-width="0.4"><desc><name>Pike County</name><stateAbbrev>AL</stateAbbrev><state>Alabama</state><fips>109</fips><incits>01109</incits><id>US.AL.109</id><population>33339</population></desc></path><path d="M499.909255898,217.24137931 L548.185117967,219.782214156 L558.34845735,273.139745917 L506.261343013,273.139745917 L498.638838475,273.139745917 L499.909255898,217.24137931 Z" fill="#cee3f5" id="US.AL.111" stroke="#6e6e6e" stroke-width="0.4"><desc><name>Randolph County</name><stateAbbrev>AL</stateAbbrev><state>Alabama</state><fips>111</fips><incits>01111</incits><id>US.AL.111</id><population>22727</population></desc></path><path d="M529.128856624,373.502722323 L544.373865699,365.880217786 L583.756805808,364.609800363 L591.379310345,359.528130672 L596.460980036,368.421052632 L591.379310345,386.206896552 L606.624319419,395.099818512 L583.756805808,412.885662432 L583.756805808,423.049001815 L564.700544465,423.049001815 L554.537205082,411.615245009 L532.940108893,411.615245009 L530.399274047,398.91107078 L529.128856624,373.502722323 Z" fill="#cee3f5" id="US.AL.113" stroke="#6e6e6e" stroke-width="0.4"><desc><name>Russell County</name><stateAbbrev>AL</stateAbbrev><state>Alabama</state><fips>113</fips><incits>01113</incits><id>US.AL.113</id><population>59585</population></desc></path><path d="M300.453720508,254.083484574 L337.295825771,236.297640653 L351.270417423,222.323049002 L361.433756806,222.323049002 L374.137931034,210.889292196 L394.4646098,217.24137931 L394.4646098,232.486388385 L397.005444646,246.460980036 L377.949183303,260.435571688 L377.949183303,274.410163339 L374.137931034,285.843920145 L361.433756806,279.491833031 L322.050816697,282.032667877 L301.724137931,265.517241379 L300.453720508,254.083484574 Z" fill="#cee3f5" id="US.AL.117" stroke="#6e6e6e" stroke-width="0.4"><desc><name>Shelby County</name><stateAbbrev>AL</stateAbbrev><state>Alabama</state><fips>117</fips><incits>01117</incits><id>US.AL.117</id><population>204180</population></desc></path><path d="M394.4646098,232.486388385 L421.143375681,210.889292196 L417.332123412,204.537205082 L427.495462795,191.833030853 L441.470054446,191.833030853 L449.092558984,204.537205082 L478.31215971,209.618874773 L469.41923775,217.24137931 L451.633393829,246.460980036 L431.306715064,246.460980036 L431.306715064,260.435571688 L423.684210526,274.410163339 L377.949183303,274.410163339 L377.949183303,260.435571688 L397.005444646,246.460980036 L394.4646098,232.486388385 Z" fill="#cee3f5" id="US.AL.121" stroke="#6e6e6e" stroke-width="0.4"><desc><name>Talladega County</name><stateAbbrev>AL</stateAbbrev><state>Alabama</state><fips>121</fips><incits>01121</incits><id>US.AL.121</id><population>81096</population></desc></path><path d="M446.551724138,275.680580762 L451.633393829,273.139745917 L498.638838475,273.139745917 L506.261343013,273.139745917 L507.531760436,327.7676951 L492.286751361,332.849364791 L492.286751361,346.823956443 L477.041742287,349.364791289 L464.337568058,362.068965517 L461.796733212,334.119782214 L447.822141561,323.956442831 L446.551724138,275.680580762 Z" fill="#cee3f5" id="US.AL.123" stroke="#6e6e6e" stroke-width="0.4"><desc><name>Tallapoosa County</name><stateAbbrev>AL</stateAbbrev><state>Alabama</state><fips>123</fips><incits>01123</incits><id>US.AL.123</id><population>41203</population></desc></path></svg>