<?xml version='1.0' encoding='utf-8'?>
<svg height="700" width="700" xmlns="http://www.w3.org/2000/svg"><path d="M234.562697576,363.645943098 L243.414120126,358.482613277 L244.889357218,348.155953635 L280.295047418,359.957850369 L274.394099052,374.710221286 L265.542676502,383.561643836 L252.265542677,380.611169652 L245.626975764,382.82402529 L238.250790306,381.348788198 L238.988408851,373.234984194 L234.562697576,363.645943098 Z" fill="#cee3f5" id="US.TN.119" stroke="#6e6e6e" stroke-width="0.4"><desc><name>Maury County</name><stateAbbrev>TN</stateAbbrev><state>Tennessee</state><fips>119</fips><incits>47119</incits><id>US.TN.119</id><population>83761</population></desc></path><path d="M47.2075869336,320.864067439 L59.009483667,318.651211802 L86.301369863,319.388830348 L83.3508956797,336.354056902 L75.9747102213,345.205479452 L70.8113804004,345.943097998 L65.6480505796,340.779768177 L46.4699683878,343.73024236 L39.0937829294,335.616438356 L47.2075869336,320.864067439 Z" fill="#cee3f5" id="US.TN.045" stroke="#6e6e6e" stroke-width="0.4"><desc><name>Dyer County</name><stateAbbrev>TN</stateAbbrev><state>Tennessee</state><fips>045</fips><incits>47045</incits><id>US.TN.045</id><population>38213</population></desc></path><path d="M57.5342465753,370.284510011 L65.6480505796,351.106427819 L70.0737618546,351.106427819 L76.7123287671,356.26975764 L92.9399367756,361.43308746 L92.2023182297,382.82402529 L84.0885142255,385.036880927 L60.4847207587,385.036880927 L57.5342465753,370.284510011 Z" fill="#cee3f5" id="US.TN.075" stroke="#6e6e6e" stroke-width="0.4"><desc><name>Haywood County</name><stateAbbrev>TN</stateAbbrev><state>Tennessee</state><fips>075</fips><incits>47075</incits><id>US.TN.075</id><population>18224</population></desc></path><path d="M46.4699683878,343.73024236 L65.6480505796,340.779768177 L70.8113804004,345.943097998 L70.0737618546,351.106427819 L65.6480505796,351.106427819 L57.5342465753,370.284510011 L47.2075869336,365.12118019 L36.8809272919,364.383561644 L24.3414120126,373.97260274 L21.3909378293,357.744994731 L32.4552160169,355.532139094 L38.3561643836,343.73024236 L46.4699683878,343.73024236 Z" fill="#cee3f5" id="US.TN.097" stroke="#6e6e6e" stroke-width="0.4"><desc><name>Lauderdale County</name><stateAbbrev>TN</stateAbbrev><state>Tennessee</state><fips>097</fips><incits>47097</incits><id>US.TN.097</id><population>27795</population></desc></path><path d="M24.3414120126,373.97260274 L36.8809272919,364.383561644 L47.2075869336,365.12118019 L57.5342465753,370.284510011 L60.4847207587,385.036880927 L47.2075869336,387.249736565 L14.7523709168,385.774499473 L9.58904109589,388.724973656 L17.7028451001,371.759747102 L24.3414120126,373.97260274 Z" fill="#cee3f5" id="US.TN.167" stroke="#6e6e6e" stroke-width="0.4"><desc><name>Tipton County</name><stateAbbrev>TN</stateAbbrev><state>Tennessee</state><fips>167</fips><incits>47167</incits><id>US.TN.167</id><population>61586</population></desc></path><path d="M9.58904109589,388.724973656 L14.7523709168,385.774499473 L47.2075869336,387.249736565 L46.4699683878,418.22971549 L0.0,416.016859852 L10.3266596417,399.051633298 L4.42571127503,396.101159115 L9.58904109589,388.724973656 Z" fill="#cee3f5" id="US.TN.157" stroke="#6e6e6e" stroke-width="0.4"><desc><name>Shelby County</name><stateAbbrev>TN</stateAbbrev><state>Tennessee</state><fips>157</fips><incits>47157</incits><id>US.TN.157</id><population>939465</population></desc></path><path d="M46.4699683878,418.22971549 L47.2075869336,387.249736565 L60.4847207587,385.036880927 L84.0885142255,385.036880927 L82.6132771338,418.22971549 L46.4699683878,418.22971549 Z" fill="#cee3f5" id="US.TN.047" stroke="#6e6e6e" stroke-width="0.4"><desc><name>Fayette County</name><stateAbbrev>TN</stateAbbrev><state>Tennessee</state><fips>047</fips><incits>47047</incits><id>US.TN.047</id><population>38690</population></desc></path><path d="M163.01369863,326.02739726 L173.340358272,314.963119073 L172.602739726,306.849315068 L181.454162276,306.849315068 L182.191780822,306.849315068 L184.404636459,316.438356164 L187.355110643,326.02739726 L180.71654373,333.403582719 L186.617492097,341.517386723 L183.667017914,348.893572181 L182.929399368,351.106427819 L165.964172813,348.893572181 L163.01369863,348.893572181 L163.01369863,326.02739726 Z" fill="#cee3f5" id="US.TN.005" stroke="#6e6e6e" stroke-width="0.4"><desc><name>Benton County</name><stateAbbrev>TN</stateAbbrev><state>Tennessee</state><fips>005</fips><incits>47005</incits><id>US.TN.005</id><population>16290</population></desc></path><path d="M486.090621707,287.671232877 L506.743940991,287.671232877 L515.595363541,301.685985248 L506.743940991,314.225500527 L501.58061117,317.17597471 L489.04109589,316.438356164 L477.239199157,318.651211802 L480.927291886,312.750263435 L478.714436249,297.997892518 L486.828240253,294.309799789 L486.090621707,287.671232877 Z" fill="#cee3f5" id="US.TN.013" stroke="#6e6e6e" stroke-width="0.4"><desc><name>Campbell County</name><stateAbbrev>TN</stateAbbrev><state>Tennessee</state><fips>013</fips><incits>47013</incits><id>US.TN.013</id><population>40238</population></desc></path><path d="M123.182297155,353.319283456 L123.919915701,331.190727081 L137.197049526,323.814541623 L163.01369863,326.02739726 L163.01369863,348.893572181 L165.964172813,348.893572181 L165.964172813,351.106427819 L133.508956797,350.368809273 L131.296101159,353.319283456 L123.182297155,353.319283456 Z" fill="#cee3f5" id="US.TN.017" stroke="#6e6e6e" stroke-width="0.4"><desc><name>Carroll County</name><stateAbbrev>TN</stateAbbrev><state>Tennessee</state><fips>017</fips><incits>47017</incits><id>US.TN.017</id><population>28513</population></desc></path><path d="M646.8914647,303.898840885 L655.74288725,303.161222339 L672.708113804,294.309799789 L668.282402529,304.636459431 L676.396206533,314.225500527 L668.282402529,326.02739726 L660.168598525,327.502634352 L652.792413066,323.076923077 L643.20337197,315.700737619 L646.8914647,303.898840885 Z" fill="#cee3f5" id="US.TN.019" stroke="#6e6e6e" stroke-width="0.4"><desc><name>Carter County</name><stateAbbrev>TN</stateAbbrev><state>Tennessee</state><fips>019</fips><incits>47019</incits><id>US.TN.019</id><population>57338</population></desc></path><path d="M238.988408851,309.799789252 L252.265542677,298.735511064 L263.329820864,306.111696523 L269.230769231,304.636459431 L258.166491043,332.665964173 L247.102212856,331.928345627 L250.052687039,320.864067439 L247.839831401,310.537407798 L238.988408851,309.799789252 Z" fill="#cee3f5" id="US.TN.021" stroke="#6e6e6e" stroke-width="0.4"><desc><name>Cheatham County</name><stateAbbrev>TN</stateAbbrev><state>Tennessee</state><fips>021</fips><incits>47021</incits><id>US.TN.021</id><population>39492</population></desc></path><path d="M112.118018967,382.82402529 L125.395152792,377.660695469 L130.558482613,370.284510011 L147.523709168,378.398314015 L151.211801897,383.561643836 L151.211801897,386.512118019 L137.934668072,386.512118019 L126.132771338,390.200210748 L116.543730242,397.576396207 L112.118018967,382.82402529 Z" fill="#cee3f5" id="US.TN.023" stroke="#6e6e6e" stroke-width="0.4"><desc><name>Chester County</name><stateAbbrev>TN</stateAbbrev><state>Tennessee</state><fips>023</fips><incits>47023</incits><id>US.TN.023</id><population>17321</population></desc></path><path d="M506.743940991,287.671232877 L533.298208641,288.408851423 L551.001053741,286.933614331 L556.902002107,292.096944152 L557.639620653,302.423603793 L551.001053741,306.111696523 L534.773445732,308.32455216 L523.709167545,300.210748156 L515.595363541,301.685985248 L506.743940991,287.671232877 Z" fill="#cee3f5" id="US.TN.025" stroke="#6e6e6e" stroke-width="0.4"><desc><name>Claiborne County</name><stateAbbrev>TN</stateAbbrev><state>Tennessee</state><fips>025</fips><incits>47025</incits><id>US.TN.025</id><population>31560</population></desc></path><path d="M359.220231823,295.047418335 L361.43308746,285.458377239 L403.477344573,284.720758693 L402.739726027,292.096944152 L390.200210748,295.047418335 L385.036880927,303.161222339 L378.398314015,297.260273973 L359.220231823,295.047418335 Z" fill="#cee3f5" id="US.TN.027" stroke="#6e6e6e" stroke-width="0.4"><desc><name>Clay County</name><stateAbbrev>TN</stateAbbrev><state>Tennessee</state><fips>027</fips><incits>47027</incits><id>US.TN.027</id><population>7774</population></desc></path><path d="M70.8113804004,345.943097998 L75.9747102213,345.205479452 L83.3508956797,336.354056902 L89.9894625922,347.41833509 L105.479452055,352.58166491 L97.3656480506,362.908324552 L92.9399367756,361.43308746 L76.7123287671,356.26975764 L70.0737618546,351.106427819 L70.8113804004,345.943097998 Z" fill="#cee3f5" id="US.TN.033" stroke="#6e6e6e" stroke-width="0.4"><desc><name>Crockett County</name><stateAbbrev>TN</stateAbbrev><state>Tennessee</state><fips>033</fips><incits>47033</incits><id>US.TN.033</id><population>14591</population></desc></path><path d="M269.230769231,304.636459431 L276.606954689,307.586933614 L282.507903056,303.161222339 L295.785036881,316.438356164 L301.685985248,328.240252898 L293.572181243,338.56691254 L279.557428872,333.403582719 L258.166491043,332.665964173 L269.230769231,304.636459431 Z" fill="#cee3f5" id="US.TN.037" stroke="#6e6e6e" stroke-width="0.4"><desc><name>Davidson County</name><stateAbbrev>TN</stateAbbrev><state>Tennessee</state><fips>037</fips><incits>47037</incits><id>US.TN.037</id><population>658602</population></desc></path><path d="M160.800842993,383.561643836 L160.800842993,374.710221286 L165.226554268,368.071654373 L165.964172813,351.106427819 L165.964172813,348.893572181 L182.929399368,351.106427819 L177.766069547,358.482613277 L177.766069547,367.334035827 L182.929399368,376.185458377 L179.978925184,383.561643836 L178.503688093,385.774499473 L165.226554268,386.512118019 L160.800842993,383.561643836 Z" fill="#cee3f5" id="US.TN.039" stroke="#6e6e6e" stroke-width="0.4"><desc><name>Decatur County</name><stateAbbrev>TN</stateAbbrev><state>Tennessee</state><fips>039</fips><incits>47039</incits><id>US.TN.039</id><population>11661</population></desc></path><path d="M216.12223393,321.601685985 L219.81032666,309.062170706 L238.988408851,309.799789252 L247.839831401,310.537407798 L250.052687039,320.864067439 L247.102212856,331.928345627 L245.626975764,339.304531085 L218.335089568,336.354056902 L216.12223393,321.601685985 Z" fill="#cee3f5" id="US.TN.043" stroke="#6e6e6e" stroke-width="0.4"><desc><name>Dickson County</name><stateAbbrev>TN</stateAbbrev><state>Tennessee</state><fips>043</fips><incits>47043</incits><id>US.TN.043</id><population>50266</population></desc></path><path d="M86.301369863,319.388830348 L102.528977871,317.913593256 L112.118018967,326.02739726 L123.919915701,331.190727081 L123.182297155,353.319283456 L105.479452055,352.58166491 L89.9894625922,347.41833509 L83.3508956797,336.354056902 L86.301369863,319.388830348 Z" fill="#cee3f5" id="US.TN.053" stroke="#6e6e6e" stroke-width="0.4"><desc><name>Gibson County</name><stateAbbrev>TN</stateAbbrev><state>Tennessee</state><fips>053</fips><incits>47053</incits><id>US.TN.053</id><population>49457</population></desc></path><path d="M551.001053741,286.933614331 L603.371970495,287.671232877 L579.030558483,294.309799789 L573.867228662,301.685985248 L566.491043203,303.898840885 L557.639620653,302.423603793 L556.902002107,292.096944152 L551.001053741,286.933614331 Z" fill="#cee3f5" id="US.TN.067" stroke="#6e6e6e" stroke-width="0.4"><desc><name>Hancock County</name><stateAbbrev>TN</stateAbbrev><state>Tennessee</state><fips>067</fips><incits>47067</incits><id>US.TN.067</id><population>6679</population></desc></path><path d="M82.6132771338,418.22971549 L84.0885142255,385.036880927 L92.2023182297,382.82402529 L112.118018967,382.82402529 L116.543730242,397.576396207 L116.543730242,418.22971549 L82.6132771338,418.22971549 Z" fill="#cee3f5" id="US.TN.069" stroke="#6e6e6e" stroke-width="0.4"><desc><name>Hardeman County</name><stateAbbrev>TN</stateAbbrev><state>Tennessee</state><fips>069</fips><incits>47069</incits><id>US.TN.069</id><population>26306</population></desc></path><path d="M149.736564805,418.22971549 L151.211801897,386.512118019 L151.211801897,383.561643836 L160.800842993,383.561643836 L165.226554268,386.512118019 L178.503688093,385.774499473 L182.191780822,393.888303477 L181.454162276,417.492096944 L149.736564805,418.22971549 Z" fill="#cee3f5" id="US.TN.071" stroke="#6e6e6e" stroke-width="0.4"><desc><name>Hardin County</name><stateAbbrev>TN</stateAbbrev><state>Tennessee</state><fips>071</fips><incits>47071</incits><id>US.TN.071</id><population>26034</population></desc></path><path d="M566.491043203,303.898840885 L573.867228662,301.685985248 L579.030558483,294.309799789 L603.371970495,287.671232877 L621.074815595,287.671232877 L615.173867229,300.948366702 L613.698630137,302.423603793 L602.634351949,306.111696523 L582.718651212,316.438356164 L574.604847208,310.537407798 L568.703898841,312.750263435 L566.491043203,303.898840885 Z" fill="#cee3f5" id="US.TN.073" stroke="#6e6e6e" stroke-width="0.4"><desc><name>Hawkins County</name><stateAbbrev>TN</stateAbbrev><state>Tennessee</state><fips>073</fips><incits>47073</incits><id>US.TN.073</id><population>56800</population></desc></path><path d="M130.558482613,370.284510011 L131.296101159,353.319283456 L133.508956797,350.368809273 L165.964172813,351.106427819 L165.226554268,368.071654373 L160.800842993,374.710221286 L160.800842993,383.561643836 L151.211801897,383.561643836 L147.523709168,378.398314015 L130.558482613,370.284510011 Z" fill="#cee3f5" id="US.TN.077" stroke="#6e6e6e" stroke-width="0.4"><desc><name>Henderson County</name><stateAbbrev>TN</stateAbbrev><state>Tennessee</state><fips>077</fips><incits>47077</incits><id>US.TN.077</id><population>28048</population></desc></path><path d="M137.197049526,323.814541623 L138.672286617,295.047418335 L176.290832455,295.047418335 L181.454162276,306.849315068 L172.602739726,306.849315068 L173.340358272,314.963119073 L163.01369863,326.02739726 L137.197049526,323.814541623 Z" fill="#cee3f5" id="US.TN.079" stroke="#6e6e6e" stroke-width="0.4"><desc><name>Henry County</name><stateAbbrev>TN</stateAbbrev><state>Tennessee</state><fips>079</fips><incits>47079</incits><id>US.TN.079</id><population>32210</population></desc></path><path d="M203.582718651,349.631190727 L204.320337197,343.73024236 L218.335089568,336.354056902 L245.626975764,339.304531085 L244.889357218,348.155953635 L243.414120126,358.482613277 L234.562697576,363.645943098 L224.973656481,367.334035827 L214.646996839,364.383561644 L208.746048472,368.071654373 L201.369863014,363.645943098 L203.582718651,349.631190727 Z" fill="#cee3f5" id="US.TN.081" stroke="#6e6e6e" stroke-width="0.4"><desc><name>Hickman County</name><stateAbbrev>TN</stateAbbrev><state>Tennessee</state><fips>081</fips><incits>47081</incits><id>US.TN.081</id><population>24267</population></desc></path><path d="M182.191780822,306.849315068 L195.468914647,309.062170706 L213.909378293,306.111696523 L219.81032666,309.062170706 L216.12223393,321.601685985 L202.10748156,316.438356164 L184.404636459,316.438356164 L182.191780822,306.849315068 Z" fill="#cee3f5" id="US.TN.083" stroke="#6e6e6e" stroke-width="0.4"><desc><name>Houston County</name><stateAbbrev>TN</stateAbbrev><state>Tennessee</state><fips>083</fips><incits>47083</incits><id>US.TN.083</id><population>8292</population></desc></path><path d="M184.404636459,316.438356164 L202.10748156,316.438356164 L216.12223393,321.601685985 L218.335089568,336.354056902 L204.320337197,343.73024236 L203.582718651,349.631190727 L192.518440464,351.844046365 L183.667017914,348.893572181 L186.617492097,341.517386723 L180.71654373,333.403582719 L187.355110643,326.02739726 L184.404636459,316.438356164 Z" fill="#cee3f5" id="US.TN.085" stroke="#6e6e6e" stroke-width="0.4"><desc><name>Humphreys County</name><stateAbbrev>TN</stateAbbrev><state>Tennessee</state><fips>085</fips><incits>47085</incits><id>US.TN.085</id><population>18243</population></desc></path><path d="M672.708113804,294.309799789 L685.247629083,286.195995785 L700.0,286.195995785 L696.311907271,297.997892518 L688.198103267,306.849315068 L676.396206533,314.225500527 L668.282402529,304.636459431 L672.708113804,294.309799789 Z" fill="#cee3f5" id="US.TN.091" stroke="#6e6e6e" stroke-width="0.4"><desc><name>Johnson County</name><stateAbbrev>TN</stateAbbrev><state>Tennessee</state><fips>091</fips><incits>47091</incits><id>US.TN.091</id><population>17977</population></desc></path><path d="M70.0737618546,295.047418335 L64.1728134879,314.963119073 L59.009483667,318.651211802 L47.2075869336,320.864067439 L55.3213909378,314.225500527 L54.583772392,301.685985248 L70.0737618546,295.047418335 Z" fill="#cee3f5" id="US.TN.095" stroke="#6e6e6e" stroke-width="0.4"><desc><name>Lake County</name><stateAbbrev>TN</stateAbbrev><state>Tennessee</state><fips>095</fips><incits>47095</incits><id>US.TN.095</id><population>7731</population></desc></path><path d="M327.502634352,283.983140148 L361.43308746,285.458377239 L359.220231823,295.047418335 L358.482613277,302.423603793 L345.943097998,300.948366702 L330.453108535,299.47312961 L325.289778714,296.522655427 L327.502634352,283.983140148 Z" fill="#cee3f5" id="US.TN.111" stroke="#6e6e6e" stroke-width="0.4"><desc><name>Macon County</name><stateAbbrev>TN</stateAbbrev><state>Tennessee</state><fips>111</fips><incits>47111</incits><id>US.TN.111</id><population>22701</population></desc></path><path d="M92.2023182297,382.82402529 L92.9399367756,361.43308746 L97.3656480506,362.908324552 L105.479452055,352.58166491 L123.182297155,353.319283456 L131.296101159,353.319283456 L130.558482613,370.284510011 L125.395152792,377.660695469 L112.118018967,382.82402529 L92.2023182297,382.82402529 Z" fill="#cee3f5" id="US.TN.113" stroke="#6e6e6e" stroke-width="0.4"><desc><name>Madison County</name><stateAbbrev>TN</stateAbbrev><state>Tennessee</state><fips>113</fips><incits>47113</incits><id>US.TN.113</id><population>98733</population></desc></path><path d="M116.543730242,418.22971549 L116.543730242,397.576396207 L126.132771338,390.200210748 L137.934668072,386.512118019 L151.211801897,386.512118019 L149.736564805,418.22971549 L116.543730242,418.22971549 Z" fill="#cee3f5" id="US.TN.109" stroke="#6e6e6e" stroke-width="0.4"><desc><name>McNairy County</name><stateAbbrev>TN</stateAbbrev><state>Tennessee</state><fips>109</fips><incits>47109</incits><id>US.TN.109</id><population>26140</population></desc></path><path d="M210.221285564,283.983140148 L253.003161222,283.245521602 L252.265542677,298.735511064 L238.988408851,309.799789252 L219.81032666,309.062170706 L213.909378293,306.111696523 L210.221285564,283.983140148 Z" fill="#cee3f5" id="US.TN.125" stroke="#6e6e6e" stroke-width="0.4"><desc><name>Montgomery County</name><stateAbbrev>TN</stateAbbrev><state>Tennessee</state><fips>125</fips><incits>47125</incits><id>US.TN.125</id><population>184119</population></desc></path><path d="M70.0737618546,295.047418335 L112.855637513,295.047418335 L113.593256059,302.423603793 L103.266596417,302.423603793 L102.528977871,317.913593256 L86.301369863,319.388830348 L59.009483667,318.651211802 L64.1728134879,314.963119073 L70.0737618546,295.047418335 Z" fill="#cee3f5" id="US.TN.131" stroke="#6e6e6e" stroke-width="0.4"><desc><name>Obion County</name><stateAbbrev>TN</stateAbbrev><state>Tennessee</state><fips>131</fips><incits>47131</incits><id>US.TN.131</id><population>31131</population></desc></path><path d="M182.929399368,351.106427819 L183.667017914,348.893572181 L192.518440464,351.844046365 L203.582718651,349.631190727 L201.369863014,363.645943098 L208.746048472,368.071654373 L203.582718651,378.398314015 L182.191780822,380.611169652 L179.978925184,383.561643836 L182.929399368,376.185458377 L177.766069547,367.334035827 L177.766069547,358.482613277 L182.929399368,351.106427819 Z" fill="#cee3f5" id="US.TN.135" stroke="#6e6e6e" stroke-width="0.4"><desc><name>Perry County</name><stateAbbrev>TN</stateAbbrev><state>Tennessee</state><fips>135</fips><incits>47135</incits><id>US.TN.135</id><population>7869</population></desc></path><path d="M402.739726027,292.096944152 L403.477344573,284.720758693 L443.308746048,286.933614331 L447.734457323,292.834562698 L435.93256059,289.146469968 L421.917808219,290.62170706 L416.016859852,302.423603793 L402.739726027,292.096944152 Z" fill="#cee3f5" id="US.TN.137" stroke="#6e6e6e" stroke-width="0.4"><desc><name>Pickett County</name><stateAbbrev>TN</stateAbbrev><state>Tennessee</state><fips>137</fips><incits>47137</incits><id>US.TN.137</id><population>5090</population></desc></path><path d="M253.003161222,283.245521602 L295.785036881,282.507903056 L297.997892518,283.983140148 L286.933614331,302.423603793 L282.507903056,303.161222339 L276.606954689,307.586933614 L269.230769231,304.636459431 L263.329820864,306.111696523 L252.265542677,298.735511064 L253.003161222,283.245521602 Z" fill="#cee3f5" id="US.TN.147" stroke="#6e6e6e" stroke-width="0.4"><desc><name>Robertson County</name><stateAbbrev>TN</stateAbbrev><state>Tennessee</state><fips>147</fips><incits>47147</incits><id>US.TN.147</id><population>67383</population></desc></path><path d="M443.308746048,286.933614331 L486.090621707,287.671232877 L486.828240253,294.309799789 L478.714436249,297.997892518 L480.927291886,312.750263435 L477.239199157,318.651211802 L471.33825079,323.076923077 L461.011591149,316.438356164 L450.684931507,306.111696523 L447.734457323,292.834562698 L443.308746048,286.933614331 Z" fill="#cee3f5" id="US.TN.151" stroke="#6e6e6e" stroke-width="0.4"><desc><name>Scott County</name><stateAbbrev>TN</stateAbbrev><state>Tennessee</state><fips>151</fips><incits>47151</incits><id>US.TN.151</id><population>22015</population></desc></path><path d="M210.221285564,283.983140148 L213.909378293,306.111696523 L195.468914647,309.062170706 L182.191780822,306.849315068 L181.454162276,306.849315068 L176.290832455,295.047418335 L174.815595364,281.032665964 L210.221285564,283.983140148 Z" fill="#cee3f5" id="US.TN.161" stroke="#6e6e6e" stroke-width="0.4"><desc><name>Stewart County</name><stateAbbrev>TN</stateAbbrev><state>Tennessee</state><fips>161</fips><incits>47161</incits><id>US.TN.161</id><population>13362</population></desc></path><path d="M621.074815595,287.671232877 L676.396206533,287.671232877 L685.247629083,286.195995785 L672.708113804,294.309799789 L655.74288725,303.161222339 L646.8914647,303.898840885 L635.089567966,299.47312961 L615.173867229,300.948366702 L621.074815595,287.671232877 Z" fill="#cee3f5" id="US.TN.163" stroke="#6e6e6e" stroke-width="0.4"><desc><name>Sullivan County</name><stateAbbrev>TN</stateAbbrev><state>Tennessee</state><fips>163</fips><incits>47163</incits><id>US.TN.163</id><population>156595</population></desc></path><path d="M282.507903056,303.161222339 L286.933614331,302.423603793 L297.997892518,283.983140148 L302.423603793,282.507903056 L327.502634352,283.983140148 L325.289778714,296.522655427 L320.864067439,307.586933614 L314.963119073,306.849315068 L295.785036881,316.438356164 L282.507903056,303.161222339 Z" fill="#cee3f5" id="US.TN.165" stroke="#6e6e6e" stroke-width="0.4"><desc><name>Sumner County</name><stateAbbrev>TN</stateAbbrev><state>Tennessee</state><fips>165</fips><incits>47165</incits><id>US.TN.165</id><population>168888</population></desc></path><path d="M102.528977871,317.913593256 L103.266596417,302.423603793 L113.593256059,302.423603793 L112.855637513,295.047418335 L138.672286617,295.047418335 L137.197049526,323.814541623 L123.919915701,331.190727081 L112.118018967,326.02739726 L102.528977871,317.913593256 Z" fill="#cee3f5" id="US.TN.183" stroke="#6e6e6e" stroke-width="0.4"><desc><name>Weakley County</name><stateAbbrev>TN</stateAbbrev><state>Tennessee</state><fips>183</fips><incits>47183</incits><id>US.TN.183</id><population>34450</population></desc></path><path d="M244.889357218,348.155953635 L245.626975764,339.304531085 L247.102212856,331.928345627 L258.166491043,332.665964173 L279.557428872,333.403582719 L293.572181243,338.56691254 L292.834562698,351.844046365 L288.408851423,359.957850369 L280.295047418,359.957850369 L244.889357218,348.155953635 Z" fill="#cee3f5" id="US.TN.187" stroke="#6e6e6e" stroke-width="0.4"><desc><name>Williamson County</name><stateAbbrev>TN</stateAbbrev><state>Tennessee</state><fips>187</fips><incits>47187</incits><id>US.TN.187</id><population>198901</population></desc></path><path d="M203.582718651,378.398314015 L208.746048472,368.071654373 L214.646996839,364.383561644 L224.973656481,367.334035827 L234.562697576,363.645943098 L238.988408851,373.234984194 L238.250790306,381.348788198 L215.384615385,385.036880927 L203.582718651,378.398314015 Z" fill="#cee3f5" id="US.TN.101" stroke="#6e6e6e" stroke-width="0.4"><desc><name>Lewis County</name><stateAbbrev>TN</stateAbbrev><state>Tennessee</state><fips>101</fips><incits>47101</incits><id>US.TN.101</id><population>11961</population></desc></path><path d="M424.868282403,384.299262381 L432.244467861,382.086406744 L441.833508957,369.546891465 L448.472075869,356.26975764 L457.323498419,365.12118019 L441.833508957,380.611169652 L437.407797682,389.462592202 L430.031612223,394.625922023 L424.868282403,384.299262381 Z" fill="#cee3f5" id="US.TN.121" stroke="#6e6e6e" stroke-width="0.4"><desc><name>Meigs County</name><stateAbbrev>TN</stateAbbrev><state>Tennessee</state><fips>121</fips><incits>47121</incits><id>US.TN.121</id><population>11649</population></desc></path><path d="M471.33825079,323.076923077 L477.239199157,318.651211802 L489.04109589,316.438356164 L501.58061117,317.17597471 L506.743940991,314.225500527 L512.644889357,320.864067439 L491.253951528,336.354056902 L485.353003161,343.73024236 L479.452054795,331.928345627 L471.33825079,323.076923077 Z" fill="#cee3f5" id="US.TN.001" stroke="#6e6e6e" stroke-width="0.4"><desc><name>Anderson County</name><stateAbbrev>TN</stateAbbrev><state>Tennessee</state><fips>001</fips><incits>47001</incits><id>US.TN.001</id><population>75542</population></desc></path><path d="M292.096944152,361.43308746 L305.374077977,365.12118019 L316.438356164,363.645943098 L323.814541623,365.858798736 L323.076923077,384.299262381 L307.586933614,391.67544784 L300.948366702,388.724973656 L295.047418335,387.987355111 L290.62170706,382.086406744 L292.096944152,361.43308746 Z" fill="#cee3f5" id="US.TN.003" stroke="#6e6e6e" stroke-width="0.4"><desc><name>Bedford County</name><stateAbbrev>TN</stateAbbrev><state>Tennessee</state><fips>003</fips><incits>47003</incits><id>US.TN.003</id><population>45901</population></desc></path><path d="M390.937829294,371.759747102 L404.214963119,359.220231823 L404.952581665,354.794520548 L433.719704953,354.794520548 L416.754478398,371.022128556 L414.541622761,380.611169652 L407.165437302,388.724973656 L393.150684932,377.660695469 L390.937829294,371.759747102 Z" fill="#cee3f5" id="US.TN.007" stroke="#6e6e6e" stroke-width="0.4"><desc><name>Bledsoe County</name><stateAbbrev>TN</stateAbbrev><state>Tennessee</state><fips>007</fips><incits>47007</incits><id>US.TN.007</id><population>12841</population></desc></path><path d="M491.991570074,368.071654373 L496.417281349,363.645943098 L494.204425711,351.844046365 L511.907270811,346.680716544 L524.446786091,345.205479452 L535.511064278,361.43308746 L535.511064278,371.022128556 L526.659641728,371.759747102 L511.169652266,379.873551106 L491.991570074,368.071654373 Z" fill="#cee3f5" id="US.TN.009" stroke="#6e6e6e" stroke-width="0.4"><desc><name>Blount County</name><stateAbbrev>TN</stateAbbrev><state>Tennessee</state><fips>009</fips><incits>47009</incits><id>US.TN.009</id><population>125099</population></desc></path><path d="M430.031612223,394.625922023 L437.407797682,389.462592202 L449.947312961,398.314014752 L449.947312961,404.214963119 L444.046364594,418.967334036 L427.818756586,418.967334036 L423.393045311,407.165437302 L430.031612223,394.625922023 Z" fill="#cee3f5" id="US.TN.011" stroke="#6e6e6e" stroke-width="0.4"><desc><name>Bradley County</name><stateAbbrev>TN</stateAbbrev><state>Tennessee</state><fips>011</fips><incits>47011</incits><id>US.TN.011</id><population>101848</population></desc></path><path d="M326.02739726,359.957850369 L329.715489989,354.794520548 L331.928345627,340.042149631 L342.992623815,339.304531085 L354.056902002,349.631190727 L345.205479452,357.744994731 L345.205479452,364.383561644 L337.091675448,365.12118019 L326.02739726,359.957850369 Z" fill="#cee3f5" id="US.TN.015" stroke="#6e6e6e" stroke-width="0.4"><desc><name>Cannon County</name><stateAbbrev>TN</stateAbbrev><state>Tennessee</state><fips>015</fips><incits>47015</incits><id>US.TN.015</id><population>13775</population></desc></path><path d="M564.278187566,344.467860906 L570.179135933,328.977871444 L576.080084299,321.601685985 L597.471022129,340.779768177 L597.471022129,346.680716544 L590.09483667,354.794520548 L582.718651212,353.319283456 L568.703898841,359.220231823 L564.278187566,344.467860906 Z" fill="#cee3f5" id="US.TN.029" stroke="#6e6e6e" stroke-width="0.4"><desc><name>Cocke County</name><stateAbbrev>TN</stateAbbrev><state>Tennessee</state><fips>029</fips><incits>47029</incits><id>US.TN.029</id><population>35479</population></desc></path><path d="M323.076923077,384.299262381 L323.814541623,365.858798736 L326.02739726,359.957850369 L337.091675448,365.12118019 L345.205479452,364.383561644 L354.056902002,374.710221286 L354.794520548,386.512118019 L351.106427819,393.888303477 L331.190727081,387.987355111 L323.076923077,390.937829294 L323.076923077,384.299262381 Z" fill="#cee3f5" id="US.TN.031" stroke="#6e6e6e" stroke-width="0.4"><desc><name>Coffee County</name><stateAbbrev>TN</stateAbbrev><state>Tennessee</state><fips>031</fips><incits>47031</incits><id>US.TN.031</id><population>53357</population></desc></path><path d="M404.214963119,337.829293994 L406.427818757,327.502634352 L417.492096944,324.552160169 L433.719704953,323.076923077 L448.472075869,336.354056902 L452.160168599,343.73024236 L444.046364594,350.368809273 L433.719704953,354.794520548 L404.952581665,354.794520548 L407.165437302,345.943097998 L404.214963119,337.829293994 Z" fill="#cee3f5" id="US.TN.035" stroke="#6e6e6e" stroke-width="0.4"><desc><name>Cumberland County</name><stateAbbrev>TN</stateAbbrev><state>Tennessee</state><fips>035</fips><incits>47035</incits><id>US.TN.035</id><population>57466</population></desc></path><path d="M340.042149631,328.977871444 L359.957850369,325.289778714 L373.234984194,334.87881981 L373.97260274,345.943097998 L370.284510011,349.631190727 L354.056902002,349.631190727 L342.992623815,339.304531085 L340.042149631,328.977871444 Z" fill="#cee3f5" id="US.TN.041" stroke="#6e6e6e" stroke-width="0.4"><desc><name>DeKalb County</name><stateAbbrev>TN</stateAbbrev><state>Tennessee</state><fips>041</fips><incits>47041</incits><id>US.TN.041</id><population>19164</population></desc></path><path d="M385.036880927,303.161222339 L390.200210748,295.047418335 L402.739726027,292.096944152 L416.016859852,302.423603793 L418.967334036,320.126448894 L416.016859852,324.552160169 L409.37829294,323.814541623 L391.67544784,316.438356164 L385.774499473,311.275026344 L385.036880927,303.161222339 Z" fill="#cee3f5" id="US.TN.049" stroke="#6e6e6e" stroke-width="0.4"><desc><name>Fentress County</name><stateAbbrev>TN</stateAbbrev><state>Tennessee</state><fips>049</fips><incits>47049</incits><id>US.TN.049</id><population>17909</population></desc></path><path d="M323.076923077,390.937829294 L331.190727081,387.987355111 L351.106427819,393.888303477 L354.794520548,399.789251844 L355.532139094,418.967334036 L317.913593256,418.967334036 L318.651211802,407.165437302 L323.076923077,390.937829294 Z" fill="#cee3f5" id="US.TN.051" stroke="#6e6e6e" stroke-width="0.4"><desc><name>Franklin County</name><stateAbbrev>TN</stateAbbrev><state>Tennessee</state><fips>051</fips><incits>47051</incits><id>US.TN.051</id><population>41129</population></desc></path><path d="M245.626975764,382.82402529 L252.265542677,380.611169652 L265.542676502,383.561643836 L276.606954689,396.101159115 L275.869336143,418.22971549 L244.151738672,418.22971549 L245.626975764,382.82402529 Z" fill="#cee3f5" id="US.TN.055" stroke="#6e6e6e" stroke-width="0.4"><desc><name>Giles County</name><stateAbbrev>TN</stateAbbrev><state>Tennessee</state><fips>055</fips><incits>47055</incits><id>US.TN.055</id><population>28746</population></desc></path><path d="M529.610115911,322.339304531 L534.773445732,308.32455216 L551.001053741,306.111696523 L557.639620653,302.423603793 L566.491043203,303.898840885 L568.703898841,312.750263435 L562.802950474,312.012644889 L551.001053741,321.601685985 L543.624868282,321.601685985 L534.773445732,329.715489989 L529.610115911,322.339304531 Z" fill="#cee3f5" id="US.TN.057" stroke="#6e6e6e" stroke-width="0.4"><desc><name>Grainger County</name><stateAbbrev>TN</stateAbbrev><state>Tennessee</state><fips>057</fips><incits>47057</incits><id>US.TN.057</id><population>22702</population></desc></path><path d="M576.080084299,321.601685985 L582.718651212,316.438356164 L602.634351949,306.111696523 L613.698630137,302.423603793 L619.599578504,301.685985248 L618.124341412,323.814541623 L622.550052687,328.240252898 L621.812434141,332.665964173 L619.599578504,330.453108535 L597.471022129,340.779768177 L576.080084299,321.601685985 Z" fill="#cee3f5" id="US.TN.059" stroke="#6e6e6e" stroke-width="0.4"><desc><name>Greene County</name><stateAbbrev>TN</stateAbbrev><state>Tennessee</state><fips>059</fips><incits>47059</incits><id>US.TN.059</id><population>68267</population></desc></path><path d="M351.106427819,393.888303477 L354.794520548,386.512118019 L354.056902002,374.710221286 L376.923076923,374.710221286 L386.512118019,384.299262381 L379.873551106,391.67544784 L368.071654373,393.888303477 L365.12118019,400.52687039 L354.794520548,399.789251844 L351.106427819,393.888303477 Z" fill="#cee3f5" id="US.TN.061" stroke="#6e6e6e" stroke-width="0.4"><desc><name>Grundy County</name><stateAbbrev>TN</stateAbbrev><state>Tennessee</state><fips>061</fips><incits>47061</incits><id>US.TN.061</id><population>13498</population></desc></path><path d="M568.703898841,312.750263435 L574.604847208,310.537407798 L582.718651212,316.438356164 L576.080084299,321.601685985 L570.179135933,328.977871444 L565.753424658,324.552160169 L551.001053741,321.601685985 L562.802950474,312.012644889 L568.703898841,312.750263435 Z" fill="#cee3f5" id="US.TN.063" stroke="#6e6e6e" stroke-width="0.4"><desc><name>Hamblen County</name><stateAbbrev>TN</stateAbbrev><state>Tennessee</state><fips>063</fips><incits>47063</incits><id>US.TN.063</id><population>63074</population></desc></path><path d="M387.249736565,418.967334036 L394.625922023,413.804004215 L394.625922023,405.690200211 L407.165437302,388.724973656 L414.541622761,380.611169652 L424.868282403,384.299262381 L430.031612223,394.625922023 L423.393045311,407.165437302 L427.818756586,418.967334036 L387.249736565,418.967334036 Z" fill="#cee3f5" id="US.TN.065" stroke="#6e6e6e" stroke-width="0.4"><desc><name>Hamilton County</name><stateAbbrev>TN</stateAbbrev><state>Tennessee</state><fips>065</fips><incits>47065</incits><id>US.TN.065</id><population>348673</population></desc></path><path d="M358.482613277,302.423603793 L359.220231823,295.047418335 L378.398314015,297.260273973 L385.036880927,303.161222339 L385.774499473,311.275026344 L375.447839831,318.651211802 L361.43308746,316.438356164 L357.007376185,312.750263435 L358.482613277,302.423603793 Z" fill="#cee3f5" id="US.TN.087" stroke="#6e6e6e" stroke-width="0.4"><desc><name>Jackson County</name><stateAbbrev>TN</stateAbbrev><state>Tennessee</state><fips>087</fips><incits>47087</incits><id>US.TN.087</id><population>11517</population></desc></path><path d="M534.773445732,329.715489989 L543.624868282,321.601685985 L551.001053741,321.601685985 L565.753424658,324.552160169 L570.179135933,328.977871444 L564.278187566,344.467860906 L551.001053741,342.255005269 L534.035827187,332.665964173 L534.773445732,329.715489989 Z" fill="#cee3f5" id="US.TN.089" stroke="#6e6e6e" stroke-width="0.4"><desc><name>Jefferson County</name><stateAbbrev>TN</stateAbbrev><state>Tennessee</state><fips>089</fips><incits>47089</incits><id>US.TN.089</id><population>52123</population></desc></path><path d="M485.353003161,343.73024236 L491.253951528,336.354056902 L512.644889357,320.864067439 L529.610115911,322.339304531 L534.773445732,329.715489989 L534.035827187,332.665964173 L536.248682824,338.56691254 L524.446786091,345.205479452 L511.907270811,346.680716544 L494.204425711,351.844046365 L486.090621707,344.467860906 L485.353003161,343.73024236 Z" fill="#cee3f5" id="US.TN.093" stroke="#6e6e6e" stroke-width="0.4"><desc><name>Knox County</name><stateAbbrev>TN</stateAbbrev><state>Tennessee</state><fips>093</fips><incits>47093</incits><id>US.TN.093</id><population>444622</population></desc></path><path d="M215.384615385,385.036880927 L238.250790306,381.348788198 L245.626975764,382.82402529 L244.151738672,418.22971549 L212.434141201,417.492096944 L213.909378293,413.066385669 L215.384615385,385.036880927 Z" fill="#cee3f5" id="US.TN.099" stroke="#6e6e6e" stroke-width="0.4"><desc><name>Lawrence County</name><stateAbbrev>TN</stateAbbrev><state>Tennessee</state><fips>099</fips><incits>47099</incits><id>US.TN.099</id><population>41990</population></desc></path><path d="M275.869336143,418.22971549 L276.606954689,396.101159115 L283.245521602,397.576396207 L295.047418335,387.987355111 L300.948366702,388.724973656 L312.012644889,398.314014752 L318.651211802,407.165437302 L317.913593256,418.967334036 L275.869336143,418.22971549 Z" fill="#cee3f5" id="US.TN.103" stroke="#6e6e6e" stroke-width="0.4"><desc><name>Lincoln County</name><stateAbbrev>TN</stateAbbrev><state>Tennessee</state><fips>103</fips><incits>47103</incits><id>US.TN.103</id><population>33633</population></desc></path><path d="M459.536354057,365.12118019 L480.18967334,345.943097998 L486.090621707,344.467860906 L494.204425711,351.844046365 L496.417281349,363.645943098 L491.991570074,368.071654373 L483.140147524,364.383561644 L466.174920969,363.645943098 L464.699683878,366.596417281 L459.536354057,365.12118019 Z" fill="#cee3f5" id="US.TN.105" stroke="#6e6e6e" stroke-width="0.4"><desc><name>Loudon County</name><stateAbbrev>TN</stateAbbrev><state>Tennessee</state><fips>105</fips><incits>47105</incits><id>US.TN.105</id><population>50448</population></desc></path><path d="M354.794520548,399.789251844 L365.12118019,400.52687039 L368.071654373,393.888303477 L379.873551106,391.67544784 L388.724973656,396.101159115 L394.625922023,405.690200211 L394.625922023,413.804004215 L387.249736565,418.967334036 L355.532139094,418.967334036 L354.794520548,399.789251844 Z" fill="#cee3f5" id="US.TN.115" stroke="#6e6e6e" stroke-width="0.4"><desc><name>Marion County</name><stateAbbrev>TN</stateAbbrev><state>Tennessee</state><fips>115</fips><incits>47115</incits><id>US.TN.115</id><population>28374</population></desc></path><path d="M265.542676502,383.561643836 L274.394099052,374.710221286 L280.295047418,359.957850369 L288.408851423,359.957850369 L292.096944152,361.43308746 L290.62170706,382.086406744 L295.047418335,387.987355111 L283.245521602,397.576396207 L276.606954689,396.101159115 L265.542676502,383.561643836 Z" fill="#cee3f5" id="US.TN.117" stroke="#6e6e6e" stroke-width="0.4"><desc><name>Marshall County</name><stateAbbrev>TN</stateAbbrev><state>Tennessee</state><fips>117</fips><incits>47117</incits><id>US.TN.117</id><population>31130</population></desc></path><path d="M437.407797682,389.462592202 L441.833508957,380.611169652 L457.323498419,365.12118019 L459.536354057,365.12118019 L464.699683878,366.596417281 L474.288724974,385.036880927 L466.912539515,394.625922023 L449.947312961,398.314014752 L437.407797682,389.462592202 Z" fill="#cee3f5" id="US.TN.107" stroke="#6e6e6e" stroke-width="0.4"><desc><name>McMinn County</name><stateAbbrev>TN</stateAbbrev><state>Tennessee</state><fips>107</fips><incits>47107</incits><id>US.TN.107</id><population>52341</population></desc></path><path d="M464.699683878,366.596417281 L466.174920969,363.645943098 L483.140147524,364.383561644 L491.991570074,368.071654373 L511.169652266,379.873551106 L506.006322445,385.036880927 L506.006322445,393.150684932 L499.367755532,397.576396207 L483.87776607,401.264488936 L466.912539515,394.625922023 L474.288724974,385.036880927 L464.699683878,366.596417281 Z" fill="#cee3f5" id="US.TN.123" stroke="#6e6e6e" stroke-width="0.4"><desc><name>Monroe County</name><stateAbbrev>TN</stateAbbrev><state>Tennessee</state><fips>123</fips><incits>47123</incits><id>US.TN.123</id><population>45265</population></desc></path><path d="M300.948366702,388.724973656 L307.586933614,391.67544784 L323.076923077,384.299262381 L323.076923077,390.937829294 L318.651211802,407.165437302 L312.012644889,398.314014752 L300.948366702,388.724973656 Z" fill="#cee3f5" id="US.TN.127" stroke="#6e6e6e" stroke-width="0.4"><desc><name>Moore County</name><stateAbbrev>TN</stateAbbrev><state>Tennessee</state><fips>127</fips><incits>47127</incits><id>US.TN.127</id><population>6301</population></desc></path><path d="M450.684931507,306.111696523 L461.011591149,316.438356164 L471.33825079,323.076923077 L479.452054795,331.928345627 L471.33825079,337.091675448 L452.160168599,343.73024236 L448.472075869,336.354056902 L433.719704953,323.076923077 L435.93256059,312.750263435 L450.684931507,306.111696523 Z" fill="#cee3f5" id="US.TN.129" stroke="#6e6e6e" stroke-width="0.4"><desc><name>Morgan County</name><stateAbbrev>TN</stateAbbrev><state>Tennessee</state><fips>129</fips><incits>47129</incits><id>US.TN.129</id><population>21915</population></desc></path><path d="M416.016859852,302.423603793 L421.917808219,290.62170706 L435.93256059,289.146469968 L447.734457323,292.834562698 L450.684931507,306.111696523 L435.93256059,312.750263435 L433.719704953,323.076923077 L417.492096944,324.552160169 L416.016859852,324.552160169 L418.967334036,320.126448894 L416.016859852,302.423603793 Z" fill="#cee3f5" id="US.TN.133" stroke="#6e6e6e" stroke-width="0.4"><desc><name>Overton County</name><stateAbbrev>TN</stateAbbrev><state>Tennessee</state><fips>133</fips><incits>47133</incits><id>US.TN.133</id><population>22075</population></desc></path><path d="M444.046364594,418.967334036 L449.947312961,404.214963119 L449.947312961,398.314014752 L466.912539515,394.625922023 L483.87776607,401.264488936 L481.664910432,418.967334036 L444.046364594,418.967334036 Z" fill="#cee3f5" id="US.TN.139" stroke="#6e6e6e" stroke-width="0.4"><desc><name>Polk County</name><stateAbbrev>TN</stateAbbrev><state>Tennessee</state><fips>139</fips><incits>47139</incits><id>US.TN.139</id><population>16690</population></desc></path><path d="M359.957850369,325.289778714 L361.43308746,316.438356164 L375.447839831,318.651211802 L385.774499473,311.275026344 L391.67544784,316.438356164 L409.37829294,323.814541623 L416.016859852,324.552160169 L417.492096944,324.552160169 L406.427818757,327.502634352 L404.214963119,337.829293994 L400.52687039,333.403582719 L384.299262381,328.977871444 L373.234984194,334.87881981 L359.957850369,325.289778714 Z" fill="#cee3f5" id="US.TN.141" stroke="#6e6e6e" stroke-width="0.4"><desc><name>Putnam County</name><stateAbbrev>TN</stateAbbrev><state>Tennessee</state><fips>141</fips><incits>47141</incits><id>US.TN.141</id><population>73525</population></desc></path><path d="M433.719704953,354.794520548 L444.046364594,350.368809273 L448.472075869,356.26975764 L441.833508957,369.546891465 L432.244467861,382.086406744 L424.868282403,384.299262381 L414.541622761,380.611169652 L416.754478398,371.022128556 L433.719704953,354.794520548 Z" fill="#cee3f5" id="US.TN.143" stroke="#6e6e6e" stroke-width="0.4"><desc><name>Rhea County</name><stateAbbrev>TN</stateAbbrev><state>Tennessee</state><fips>143</fips><incits>47143</incits><id>US.TN.143</id><population>32513</population></desc></path><path d="M444.046364594,350.368809273 L452.160168599,343.73024236 L471.33825079,337.091675448 L479.452054795,331.928345627 L485.353003161,343.73024236 L486.090621707,344.467860906 L480.18967334,345.943097998 L459.536354057,365.12118019 L457.323498419,365.12118019 L448.472075869,356.26975764 L444.046364594,350.368809273 Z" fill="#cee3f5" id="US.TN.145" stroke="#6e6e6e" stroke-width="0.4"><desc><name>Roane County</name><stateAbbrev>TN</stateAbbrev><state>Tennessee</state><fips>145</fips><incits>47145</incits><id>US.TN.145</id><population>53047</population></desc></path><path d="M293.572181243,338.56691254 L301.685985248,328.240252898 L320.864067439,338.56691254 L331.928345627,340.042149631 L329.715489989,354.794520548 L326.02739726,359.957850369 L323.814541623,365.858798736 L316.438356164,363.645943098 L305.374077977,365.12118019 L292.096944152,361.43308746 L288.408851423,359.957850369 L292.834562698,351.844046365 L293.572181243,338.56691254 Z" fill="#cee3f5" id="US.TN.149" stroke="#6e6e6e" stroke-width="0.4"><desc><name>Rutherford County</name><stateAbbrev>TN</stateAbbrev><state>Tennessee</state><fips>149</fips><incits>47149</incits><id>US.TN.149</id><population>281029</population></desc></path><path d="M376.923076923,374.710221286 L380.611169652,373.97260274 L390.937829294,371.759747102 L393.150684932,377.660695469 L407.165437302,388.724973656 L394.625922023,405.690200211 L388.724973656,396.101159115 L379.873551106,391.67544784 L386.512118019,384.299262381 L376.923076923,374.710221286 Z" fill="#cee3f5" id="US.TN.153" stroke="#6e6e6e" stroke-width="0.4"><desc><name>Sequatchie County</name><stateAbbrev>TN</stateAbbrev><state>Tennessee</state><fips>153</fips><incits>47153</incits><id>US.TN.153</id><population>14681</population></desc></path><path d="M524.446786091,345.205479452 L536.248682824,338.56691254 L534.035827187,332.665964173 L551.001053741,342.255005269 L564.278187566,344.467860906 L568.703898841,359.220231823 L563.54056902,364.383561644 L548.788198103,371.759747102 L535.511064278,371.022128556 L535.511064278,361.43308746 L524.446786091,345.205479452 Z" fill="#cee3f5" id="US.TN.155" stroke="#6e6e6e" stroke-width="0.4"><desc><name>Sevier County</name><stateAbbrev>TN</stateAbbrev><state>Tennessee</state><fips>155</fips><incits>47155</incits><id>US.TN.155</id><population>93570</population></desc></path><path d="M332.665964173,312.012644889 L345.943097998,300.948366702 L358.482613277,302.423603793 L357.007376185,312.750263435 L361.43308746,316.438356164 L359.957850369,325.289778714 L340.042149631,328.977871444 L332.665964173,312.012644889 Z" fill="#cee3f5" id="US.TN.159" stroke="#6e6e6e" stroke-width="0.4"><desc><name>Smith County</name><stateAbbrev>TN</stateAbbrev><state>Tennessee</state><fips>159</fips><incits>47159</incits><id>US.TN.159</id><population>19074</population></desc></path><path d="M325.289778714,296.522655427 L330.453108535,299.47312961 L345.943097998,300.948366702 L332.665964173,312.012644889 L320.864067439,307.586933614 L325.289778714,296.522655427 Z" fill="#cee3f5" id="US.TN.169" stroke="#6e6e6e" stroke-width="0.4"><desc><name>Trousdale County</name><stateAbbrev>TN</stateAbbrev><state>Tennessee</state><fips>169</fips><incits>47169</incits><id>US.TN.169</id><population>7828</population></desc></path><path d="M621.812434141,332.665964173 L622.550052687,328.240252898 L635.089567966,323.814541623 L643.20337197,315.700737619 L652.792413066,323.076923077 L638.04004215,328.977871444 L626.238145416,339.304531085 L621.812434141,332.665964173 Z" fill="#cee3f5" id="US.TN.171" stroke="#6e6e6e" stroke-width="0.4"><desc><name>Unicoi County</name><stateAbbrev>TN</stateAbbrev><state>Tennessee</state><fips>171</fips><incits>47171</incits><id>US.TN.171</id><population>18082</population></desc></path><path d="M506.743940991,314.225500527 L515.595363541,301.685985248 L523.709167545,300.210748156 L534.773445732,308.32455216 L529.610115911,322.339304531 L512.644889357,320.864067439 L506.743940991,314.225500527 Z" fill="#cee3f5" id="US.TN.173" stroke="#6e6e6e" stroke-width="0.4"><desc><name>Union County</name><stateAbbrev>TN</stateAbbrev><state>Tennessee</state><fips>173</fips><incits>47173</incits><id>US.TN.173</id><population>19102</population></desc></path><path d="M376.923076923,352.58166491 L387.249736565,350.368809273 L404.952581665,354.794520548 L404.214963119,359.220231823 L390.937829294,371.759747102 L380.611169652,373.97260274 L377.660695469,367.334035827 L376.923076923,352.58166491 Z" fill="#cee3f5" id="US.TN.175" stroke="#6e6e6e" stroke-width="0.4"><desc><name>Van Buren County</name><stateAbbrev>TN</stateAbbrev><state>Tennessee</state><fips>175</fips><incits>47175</incits><id>US.TN.175</id><population>5583</population></desc></path><path d="M354.056902002,349.631190727 L370.284510011,349.631190727 L376.923076923,352.58166491 L377.660695469,367.334035827 L380.611169652,373.97260274 L376.923076923,374.710221286 L354.056902002,374.710221286 L345.205479452,364.383561644 L345.205479452,357.744994731 L354.056902002,349.631190727 Z" fill="#cee3f5" id="US.TN.177" stroke="#6e6e6e" stroke-width="0.4"><desc><name>Warren County</name><stateAbbrev>TN</stateAbbrev><state>Tennessee</state><fips>177</fips><incits>47177</incits><id>US.TN.177</id><population>39965</population></desc></path><path d="M613.698630137,302.423603793 L615.173867229,300.948366702 L635.089567966,299.47312961 L646.8914647,303.898840885 L643.20337197,315.700737619 L635.089567966,323.814541623 L622.550052687,328.240252898 L618.124341412,323.814541623 L619.599578504,301.685985248 L613.698630137,302.423603793 Z" fill="#cee3f5" id="US.TN.179" stroke="#6e6e6e" stroke-width="0.4"><desc><name>Washington County</name><stateAbbrev>TN</stateAbbrev><state>Tennessee</state><fips>179</fips><incits>47179</incits><id>US.TN.179</id><population>125546</population></desc></path><path d="M178.503688093,385.774499473 L179.978925184,383.561643836 L182.191780822,380.611169652 L203.582718651,378.398314015 L215.384615385,385.036880927 L213.909378293,413.066385669 L212.434141201,417.492096944 L181.454162276,417.492096944 L182.191780822,393.888303477 L178.503688093,385.774499473 Z" fill="#cee3f5" id="US.TN.181" stroke="#6e6e6e" stroke-width="0.4"><desc><name>Wayne County</name><stateAbbrev>TN</stateAbbrev><state>Tennessee</state><fips>181</fips><incits>47181</incits><id>US.TN.181</id><population>16939</population></desc></path><path d="M370.284510011,349.631190727 L373.97260274,345.943097998 L373.234984194,334.87881981 L384.299262381,328.977871444 L400.52687039,333.403582719 L404.214963119,337.829293994 L407.165437302,345.943097998 L404.952581665,354.794520548 L387.249736565,350.368809273 L376.923076923,352.58166491 L370.284510011,349.631190727 Z" fill="#cee3f5" id="US.TN.185" stroke="#6e6e6e" stroke-width="0.4"><desc><name>White County</name><stateAbbrev>TN</stateAbbrev><state>Tennessee</state><fips>185</fips><incits>47185</incits><id>US.TN.185</id><population>26244</population></desc></path><path d="M295.785036881,316.438356164 L314.963119073,306.849315068 L320.864067439,307.586933614 L332.665964173,312.012644889 L340.042149631,328.977871444 L342.992623815,339.304531085 L331.928345627,340.042149631 L320.864067439,338.56691254 L301.685985248,328.240252898 L295.785036881,316.438356164 Z" fill="#cee3f5" id="US.TN.189" stroke="#6e6e6e" stroke-width="0.4"><desc><name>Wilson County</name><stateAbbrev>TN</stateAbbrev><state>Tennessee</state><fips>189</fips><incits>47189</incits><id>US.TN.189</id><population>121945</population></desc></path></svg>