<?xml version='1.0' encoding='utf-8'?>
<svg height="700" width="700" xmlns="http://www.w3.org/2000/svg"><path d="M584.262948207,6.97211155378 L700.0,6.97211155378 L700.0,89.2430278884 L700.0,174.302788845 L700.0,228.685258964 L700.0,306.772908367 L700.0,397.410358566 L663.74501992,397.410358566 L660.956175299,404.38247012 L652.589641434,405.77689243 L645.61752988,412.749003984 L633.067729084,418.326693227 L613.545816733,435.059760956 L598.207171315,423.90438247 L598.207171315,397.410358566 L602.390438247,397.410358566 L602.390438247,355.577689243 L603.784860558,313.74501992 L600.996015936,302.589641434 L603.784860558,270.517928287 L605.179282869,186.852589641 L605.179282869,168.725099602 L584.262948207,168.725099602 L584.262948207,76.6932270916 L584.262948207,6.97211155378 Z" fill="#cee3f5" id="US.AZ.001" stroke="#6e6e6e" stroke-width="0.4"><desc><name>Apache County</name><stateAbbrev>AZ</stateAbbrev><state>Arizona</state><fips>001</fips><incits>04001</incits><id>US.AZ.001</id><population>71934</population></desc></path><path d="M529.880478088,645.61752988 L529.880478088,595.418326693 L529.880478088,561.952191235 L591.235059761,561.952191235 L679.083665339,561.952191235 L691.633466135,561.952191235 L700.0,561.952191235 L700.0,612.151394422 L700.0,694.422310757 L600.996015936,694.422310757 L528.486055777,694.422310757 L528.486055777,659.561752988 L529.880478088,645.61752988 Z" fill="#cee3f5" id="US.AZ.003" stroke="#6e6e6e" stroke-width="0.4"><desc><name>Cochise County</name><stateAbbrev>AZ</stateAbbrev><state>Arizona</state><fips>003</fips><incits>04003</incits><id>US.AZ.003</id><population>129473</population></desc></path><path d="M276.09561753,6.97211155378 L359.760956175,6.97211155378 L429.482071713,6.97211155378 L493.625498008,5.57768924303 L493.625498008,338.844621514 L482.470119522,338.844621514 L469.920318725,331.87250996 L457.370517928,324.900398406 L444.820717131,323.505976096 L432.270916335,316.533864542 L423.90438247,319.322709163 L411.354581673,316.533864542 L407.171314741,319.322709163 L396.015936255,313.74501992 L396.015936255,273.306772908 L369.521912351,273.306772908 L369.521912351,252.390438247 L365.338645418,252.390438247 L301.195219124,252.390438247 L301.195219124,231.474103586 L288.645418327,231.474103586 L284.462151394,220.3187251 L271.912350598,220.3187251 L263.545816733,213.346613546 L249.601593625,211.952191235 L225.896414343,206.374501992 L223.107569721,202.19123506 L188.247011952,185.458167331 L179.880478088,185.458167331 L179.880478088,151.992031873 L182.669322709,145.019920319 L181.274900398,132.470119522 L177.091633466,122.709163347 L182.669322709,115.737051793 L192.430278884,117.131474104 L196.613545817,108.764940239 L203.585657371,107.370517928 L218.924302789,99.0039840637 L223.107569721,100.398406375 L259.362549801,86.4541832669 L264.940239044,80.8764940239 L262.151394422,61.3545816733 L266.334661355,55.7768924303 L263.545816733,46.015936255 L266.334661355,33.4661354582 L277.490039841,12.5498007968 L276.09561753,6.97211155378 Z" fill="#cee3f5" id="US.AZ.005" stroke="#6e6e6e" stroke-width="0.4"><desc><name>Coconino County</name><stateAbbrev>AZ</stateAbbrev><state>Arizona</state><fips>005</fips><incits>04005</incits><id>US.AZ.005</id><population>136539</population></desc></path><path d="M396.015936255,313.74501992 L407.171314741,319.322709163 L411.354581673,316.533864542 L423.90438247,319.322709163 L432.270916335,316.533864542 L444.820717131,323.505976096 L457.370517928,324.900398406 L469.920318725,331.87250996 L482.470119522,338.844621514 L493.625498008,338.844621514 L493.625498008,370.916334661 L584.262948207,370.916334661 L584.262948207,422.509960159 L584.262948207,435.059760956 L563.346613546,435.059760956 L534.06374502,443.426294821 L529.880478088,449.003984064 L529.880478088,468.525896414 L513.147410359,475.498007968 L507.569721116,475.498007968 L496.414342629,483.864541833 L489.442231076,493.625498008 L469.920318725,461.553784861 L458.764940239,435.059760956 L444.820717131,409.960159363 L437.848605578,415.537848606 L430.876494024,415.537848606 L415.537848606,397.410358566 L418.326693227,393.227091633 L408.565737052,380.677290837 L409.960159363,370.916334661 L402.988047809,370.916334661 L407.171314741,362.549800797 L405.77689243,352.788844622 L376.494023904,352.788844622 L383.466135458,323.505976096 L393.227091633,319.322709163 L396.015936255,313.74501992 Z" fill="#cee3f5" id="US.AZ.007" stroke="#6e6e6e" stroke-width="0.4"><desc><name>Gila County</name><stateAbbrev>AZ</stateAbbrev><state>Arizona</state><fips>007</fips><incits>04007</incits><id>US.AZ.007</id><population>53053</population></desc></path><path d="M584.262948207,422.509960159 L598.207171315,423.90438247 L613.545816733,435.059760956 L633.067729084,418.326693227 L645.61752988,412.749003984 L645.61752988,482.470119522 L665.139442231,511.752988048 L676.294820717,524.302788845 L680.478087649,536.852589641 L679.083665339,549.402390438 L691.633466135,561.952191235 L679.083665339,561.952191235 L591.235059761,561.952191235 L529.880478088,561.952191235 L529.880478088,550.796812749 L529.880478088,468.525896414 L529.880478088,449.003984064 L534.06374502,443.426294821 L563.346613546,435.059760956 L584.262948207,435.059760956 L584.262948207,422.509960159 Z" fill="#cee3f5" id="US.AZ.009" stroke="#6e6e6e" stroke-width="0.4"><desc><name>Graham County</name><stateAbbrev>AZ</stateAbbrev><state>Arizona</state><fips>009</fips><incits>04009</incits><id>US.AZ.009</id><population>37482</population></desc></path><path d="M645.61752988,412.749003984 L652.589641434,405.77689243 L660.956175299,404.38247012 L663.74501992,397.410358566 L700.0,397.410358566 L700.0,495.019920319 L700.0,561.952191235 L691.633466135,561.952191235 L679.083665339,549.402390438 L680.478087649,536.852589641 L676.294820717,524.302788845 L665.139442231,511.752988048 L645.61752988,482.470119522 L645.61752988,412.749003984 Z" fill="#cee3f5" id="US.AZ.011" stroke="#6e6e6e" stroke-width="0.4"><desc><name>Greenlee County</name><stateAbbrev>AZ</stateAbbrev><state>Arizona</state><fips>011</fips><incits>04011</incits><id>US.AZ.011</id><population>9049</population></desc></path><path d="M82.2709163347,333.266932271 L97.609561753,340.239043825 L117.131474104,340.239043825 L118.525896414,344.422310757 L131.075697211,341.633466135 L139.442231076,345.816733068 L149.203187251,341.633466135 L154.780876494,333.266932271 L175.697211155,336.055776892 L179.880478088,331.87250996 L179.880478088,370.916334661 L179.880478088,446.215139442 L104.581673307,446.215139442 L104.581673307,435.059760956 L66.9322709163,435.059760956 L66.9322709163,488.047808765 L34.8605577689,488.047808765 L23.7051792829,489.442231076 L12.5498007968,481.075697211 L16.7330677291,472.709163347 L16.7330677291,458.764940239 L11.1553784861,457.370517928 L13.9442231076,449.003984064 L30.6772908367,428.087649402 L34.8605577689,425.298804781 L34.8605577689,409.960159363 L37.6494023904,408.565737052 L33.4661354582,379.282868526 L44.6215139442,369.521912351 L48.8047808765,358.366533865 L68.3266932271,350.0 L78.0876494024,340.239043825 L82.2709163347,333.266932271 Z" fill="#cee3f5" id="US.AZ.012" stroke="#6e6e6e" stroke-width="0.4"><desc><name>La Paz County</name><stateAbbrev>AZ</stateAbbrev><state>Arizona</state><fips>012</fips><incits>04012</incits><id>US.AZ.012</id><population>20324</population></desc></path><path d="M179.880478088,370.916334661 L250.996015936,370.916334661 L308.167330677,384.860557769 L313.74501992,376.494023904 L323.505976096,365.338645418 L376.494023904,370.916334661 L402.988047809,370.916334661 L409.960159363,370.916334661 L408.565737052,380.677290837 L418.326693227,393.227091633 L415.537848606,397.410358566 L430.876494024,415.537848606 L437.848605578,415.537848606 L444.820717131,409.960159363 L458.764940239,435.059760956 L393.227091633,435.059760956 L391.832669323,467.131474104 L331.87250996,467.131474104 L317.928286853,460.15936255 L316.533864542,476.892430279 L316.533864542,552.19123506 L271.912350598,552.19123506 L179.880478088,552.19123506 L179.880478088,467.131474104 L179.880478088,446.215139442 L179.880478088,370.916334661 Z" fill="#cee3f5" id="US.AZ.013" stroke="#6e6e6e" stroke-width="0.4"><desc><name>Maricopa County</name><stateAbbrev>AZ</stateAbbrev><state>Arizona</state><fips>013</fips><incits>04013</incits><id>US.AZ.013</id><population>4009412</population></desc></path><path d="M276.09561753,6.97211155378 L277.490039841,12.5498007968 L266.334661355,33.4661354582 L263.545816733,46.015936255 L266.334661355,55.7768924303 L262.151394422,61.3545816733 L264.940239044,80.8764940239 L259.362549801,86.4541832669 L223.107569721,100.398406375 L218.924302789,99.0039840637 L203.585657371,107.370517928 L196.613545817,108.764940239 L192.430278884,117.131474104 L182.669322709,115.737051793 L177.091633466,122.709163347 L181.274900398,132.470119522 L182.669322709,145.019920319 L179.880478088,151.992031873 L179.880478088,185.458167331 L179.880478088,237.051792829 L179.880478088,331.87250996 L175.697211155,336.055776892 L154.780876494,333.266932271 L149.203187251,341.633466135 L139.442231076,345.816733068 L131.075697211,341.633466135 L118.525896414,344.422310757 L117.131474104,340.239043825 L97.609561753,340.239043825 L82.2709163347,333.266932271 L57.171314741,316.533864542 L46.015936255,295.61752988 L41.8326693227,284.462151394 L30.6772908367,277.490039841 L22.3107569721,264.940239044 L20.9163346614,246.812749004 L29.2828685259,230.079681275 L26.4940239044,210.557768924 L16.7330677291,189.641434263 L19.5219123506,175.697211155 L15.3386454183,170.119521912 L12.5498007968,151.992031873 L18.1274900398,143.625498008 L9.7609561753,135.258964143 L9.7609561753,115.737051793 L29.2828685259,110.15936255 L37.6494023904,111.553784861 L52.9880478088,110.15936255 L69.7211155378,126.892430279 L79.4820717131,125.498007968 L90.6374501992,105.976095618 L93.4262948207,104.581673307 L92.03187251,6.97211155378 L204.980079681,6.97211155378 L276.09561753,6.97211155378 Z" fill="#cee3f5" id="US.AZ.015" stroke="#6e6e6e" stroke-width="0.4"><desc><name>Mohave County</name><stateAbbrev>AZ</stateAbbrev><state>Arizona</state><fips>015</fips><incits>04015</incits><id>US.AZ.015</id><population>203030</population></desc></path><path d="M493.625498008,5.57768924303 L527.091633466,6.97211155378 L584.262948207,6.97211155378 L584.262948207,76.6932270916 L584.262948207,168.725099602 L605.179282869,168.725099602 L605.179282869,186.852589641 L603.784860558,270.517928287 L600.996015936,302.589641434 L603.784860558,313.74501992 L602.390438247,355.577689243 L602.390438247,397.410358566 L598.207171315,397.410358566 L598.207171315,423.90438247 L584.262948207,422.509960159 L584.262948207,370.916334661 L493.625498008,370.916334661 L493.625498008,338.844621514 L493.625498008,5.57768924303 Z" fill="#cee3f5" id="US.AZ.017" stroke="#6e6e6e" stroke-width="0.4"><desc><name>Navajo County</name><stateAbbrev>AZ</stateAbbrev><state>Arizona</state><fips>017</fips><incits>04017</incits><id>US.AZ.017</id><population>107322</population></desc></path><path d="M179.880478088,552.19123506 L271.912350598,552.19123506 L316.533864542,552.19123506 L394.621513944,552.19123506 L444.820717131,552.19123506 L444.820717131,552.19123506 L529.880478088,550.796812749 L529.880478088,561.952191235 L529.880478088,595.418326693 L529.880478088,645.61752988 L481.075697211,647.011952191 L443.426294821,647.011952191 L443.426294821,672.111553785 L418.326693227,672.111553785 L418.326693227,683.266932271 L312.35059761,649.800796813 L202.19123506,616.334661355 L179.880478088,609.362549801 L179.880478088,552.19123506 Z" fill="#cee3f5" id="US.AZ.019" stroke="#6e6e6e" stroke-width="0.4"><desc><name>Pima County</name><stateAbbrev>AZ</stateAbbrev><state>Arizona</state><fips>019</fips><incits>04019</incits><id>US.AZ.019</id><population>996554</population></desc></path><path d="M458.764940239,435.059760956 L469.920318725,461.553784861 L489.442231076,493.625498008 L496.414342629,483.864541833 L507.569721116,475.498007968 L513.147410359,475.498007968 L529.880478088,468.525896414 L529.880478088,550.796812749 L444.820717131,552.19123506 L444.820717131,552.19123506 L394.621513944,552.19123506 L316.533864542,552.19123506 L316.533864542,476.892430279 L317.928286853,460.15936255 L331.87250996,467.131474104 L391.832669323,467.131474104 L393.227091633,435.059760956 L458.764940239,435.059760956 Z" fill="#cee3f5" id="US.AZ.021" stroke="#6e6e6e" stroke-width="0.4"><desc><name>Pinal County</name><stateAbbrev>AZ</stateAbbrev><state>Arizona</state><fips>021</fips><incits>04021</incits><id>US.AZ.021</id><population>389350</population></desc></path><path d="M529.880478088,645.61752988 L528.486055777,659.561752988 L528.486055777,694.422310757 L454.581673307,694.422310757 L418.326693227,683.266932271 L418.326693227,672.111553785 L443.426294821,672.111553785 L443.426294821,647.011952191 L481.075697211,647.011952191 L529.880478088,645.61752988 Z" fill="#cee3f5" id="US.AZ.023" stroke="#6e6e6e" stroke-width="0.4"><desc><name>Santa Cruz County</name><stateAbbrev>AZ</stateAbbrev><state>Arizona</state><fips>023</fips><incits>04023</incits><id>US.AZ.023</id><population>46768</population></desc></path><path d="M179.880478088,331.87250996 L179.880478088,237.051792829 L179.880478088,185.458167331 L188.247011952,185.458167331 L223.107569721,202.19123506 L225.896414343,206.374501992 L249.601593625,211.952191235 L263.545816733,213.346613546 L271.912350598,220.3187251 L284.462151394,220.3187251 L288.645418327,231.474103586 L301.195219124,231.474103586 L301.195219124,252.390438247 L365.338645418,252.390438247 L369.521912351,252.390438247 L369.521912351,273.306772908 L396.015936255,273.306772908 L396.015936255,313.74501992 L393.227091633,319.322709163 L383.466135458,323.505976096 L376.494023904,352.788844622 L405.77689243,352.788844622 L407.171314741,362.549800797 L402.988047809,370.916334661 L376.494023904,370.916334661 L323.505976096,365.338645418 L313.74501992,376.494023904 L308.167330677,384.860557769 L250.996015936,370.916334661 L179.880478088,370.916334661 L179.880478088,331.87250996 Z" fill="#cee3f5" id="US.AZ.025" stroke="#6e6e6e" stroke-width="0.4"><desc><name>Yavapai County</name><stateAbbrev>AZ</stateAbbrev><state>Arizona</state><fips>025</fips><incits>04025</incits><id>US.AZ.025</id><population>215133</population></desc></path><path d="M34.8605577689,488.047808765 L66.9322709163,488.047808765 L66.9322709163,435.059760956 L104.581673307,435.059760956 L104.581673307,446.215139442 L179.880478088,446.215139442 L179.880478088,467.131474104 L179.880478088,552.19123506 L179.880478088,609.362549801 L90.6374501992,581.474103586 L0.0,553.585657371 L0.0,539.641434263 L5.57768924303,535.458167331 L13.9442231076,522.908366534 L23.7051792829,525.697211155 L34.8605577689,521.513944223 L41.8326693227,511.752988048 L43.2270916335,503.386454183 L34.8605577689,488.047808765 Z" fill="#cee3f5" id="US.AZ.027" stroke="#6e6e6e" stroke-width="0.4"><desc><name>Yuma County</name><stateAbbrev>AZ</stateAbbrev><state>Arizona</state><fips>027</fips><incits>04027</incits><id>US.AZ.027</id><population>201201</population></desc></path></svg>