<?xml version='1.0' encoding='utf-8'?>
<svg height="700" width="700" xmlns="http://www.w3.org/2000/svg"><path d="M550.406644219,332.965749119 L550.382578427,332.981195433 L546.833702227,335.258756215 L545.917311591,336.248406838 L544.809784174,337.716956609 L544.345203065,339.484751491 L543.199072846,342.664953107 L542.271618206,344.206689136 L541.331072016,345.239247133 L537.265644682,348.00185081 L542.946663739,360.112774312 L544.311802358,360.999506803 L540.976430607,362.926483778 L540.04438744,362.370087312 L538.980524249,361.961170403 L537.330944531,363.013443362 L535.73008375,364.445925772 L530.603739526,375.92125763 L529.586698987,378.964633279 L522.920894063,372.787466694 L520.26426174,371.847158172 L512.734524981,373.748509882 L504.121823915,374.773102195 L495.626533267,373.771849981 L487.849934947,370.498792676 L481.357151833,364.72056826 L476.66663136,358.191627833 L474.179120768,356.660151816 L469.422330858,355.75607907 L465.157772414,354.372779696 L457.384757655,349.617222948 L453.889681364,348.594595171 L444.99106283,347.874448416 L437.137125675,345.821518324 L421.947483632,338.068527688 L421.911465889,338.043987419 L421.863442691,338.007176874 L421.827424476,337.994905337 L410.291543102,329.631579953 L399.863952006,319.843156219 L393.480940253,315.68677746 L388.174793874,317.818385018 L383.330777905,322.833607977 L383.22642232,322.753483495 L382.746571652,322.385046985 L381.396396937,322.157033634 L379.601595466,322.578901524 L376.779067566,324.656192268 L370.99075756,327.325639652 L356.311187383,335.879799412 L355.764583538,337.926223147 L355.758297148,337.92621546 L355.304508347,337.925659225 L341.63333953,327.977020106 L338.912482797,321.304502406 L339.319275222,310.330075708 L340.026364228,306.993844167 L337.370672004,305.505152021 L329.337601278,305.044205754 L327.567350395,305.21293776 L323.517649476,305.089207895 L313.045013233,303.486530255 L309.807920272,303.338117021 L310.096558841,301.719679367 L311.930942959,296.502630004 L314.340354228,291.538194037 L316.927499039,287.500371546 L324.175196049,279.704248503 L333.998291308,272.51885797 L344.749605915,268.4680429 L354.796654981,270.088988623 L356.964690319,272.152978171 L361.455042844,278.127430242 L363.420374557,279.614253267 L368.363125634,278.447776168 L385.857976647,267.291553585 L402.780290522,261.080389512 L407.744066049,261.327579056 L421.556213273,266.569307605 L444.987301847,267.621191263 L453.466633319,270.433412575 L457.867187174,273.989055659 L461.661474131,277.054194255 L464.602701569,281.10112269 L466.680937038,285.473676599 L471.203691912,300.87438117 L472.813019718,302.682781496 L482.35801657,308.446697117 L485.611322122,309.615051757 L488.478408955,308.69172338 L502.723867691,300.705015683 L512.126948032,298.169946848 L521.678740609,298.878341862 L531.658192838,303.522883835 L536.159044444,307.115383658 L539.305025832,311.041566697 L541.522536071,315.57684648 L544.646737449,325.883032484 L546.16003296,329.063818623 L548.512532743,331.61700642 L550.406644219,332.965749119 Z" fill="#cee3f5" id="GM.MC" stroke="#6e6e6e" stroke-width="0.4"><desc><labelrank>6</labelrank><code_hasc>GM.MC</code_hasc><name>Central River</name><admin>Gambia</admin><type_en>Division</type_en><region /><woe_id>2345445</woe_id><longitude>-14</longitude><woe_name>Maccarthy Island</woe_name><fips>GA03</fips><woe_label>MacCarthy Island, GM, The Gambia</woe_label><latitude>13</latitude><iso_a2>GM</iso_a2><postal>MC</postal><type>Division</type><id>GM.MC</id></desc></path><path d="M529.586698987,378.964633279 L530.603739526,375.92125763 L535.73008375,364.445925772 L537.330944531,363.013443362 L538.980524249,361.961170403 L540.04438744,362.370087312 L540.976430607,362.926483778 L544.311802358,360.999506803 L542.946663739,360.112774312 L537.265644682,348.00185081 L541.331072016,345.239247133 L542.271618206,344.206689136 L543.199072846,342.664953107 L544.345203065,339.484751491 L544.809784174,337.716956609 L545.917311591,336.248406838 L546.833702227,335.258756215 L550.382578427,332.981195433 L550.406644219,332.965749119 L567.292569998,344.984226747 L572.883272355,347.589695265 L577.130045858,348.167549962 L581.156511773,347.187412506 L594.79046001,342.277454791 L607.64367225,334.213141811 L612.04386149,332.290860236 L625.438300349,329.214564134 L636.163136159,323.672428903 L640.870546604,322.4767675 L643.367171396,322.381341184 L647.408067794,322.709267912 L649.831519538,322.319340896 L652.557723617,321.093669799 L657.27612632,318.295187993 L660.389064899,317.779255006 L665.272231372,318.605515164 L671.181179743,320.635653072 L676.769903981,323.445859902 L680.673887706,326.600614505 L681.883819311,328.662908808 L683.387032547,333.159741028 L684.602882595,335.15447287 L685.091882331,335.568252409 L686.730578385,336.954806197 L692.016788116,340.041191332 L694.373696576,341.969054117 L700.0,353.170901629 L699.162990668,365.323830666 L692.589740563,375.435729897 L681.094277413,380.518969728 L663.531314327,382.10324814 L654.203759565,384.650239379 L644.83035197,384.796936586 L634.862775494,388.447478983 L630.836478319,388.412796799 L627.356639747,389.989484695 L616.21311908,398.444522964 L611.136620047,400.970175858 L604.405826123,401.224379995 L591.771527267,398.893757236 L578.546717803,400.095675138 L572.252996206,399.621102317 L566.166773252,397.91226147 L557.677072554,393.545833753 L555.209510299,391.864344131 L553.005850462,389.89384252 L551.222054244,387.511325229 L548.614607016,384.823778065 L545.51852219,383.95914901 L538.19996295,383.679397432 L534.83355613,382.71044159 L531.742201591,380.961685772 L529.586698987,378.964633279 Z" fill="#cee3f5" id="GM.UR" stroke="#6e6e6e" stroke-width="0.4"><desc><labelrank>6</labelrank><code_hasc>GM.UR</code_hasc><name>Upper River</name><admin>Gambia</admin><type_en>Division</type_en><region /><woe_id>2345446</woe_id><longitude>-14</longitude><woe_name>Upper River</woe_name><fips>GA04</fips><woe_label>Upper River, GM, The Gambia</woe_label><latitude>13</latitude><iso_a2>GM</iso_a2><postal>UR</postal><type>Division</type><id>GM.UR</id></desc></path><path d="M54.5352890553,363.146690435 L48.9686809795,367.608655203 L38.6637518819,375.021830308 L29.14518581,374.209131788 L21.8715994147,366.67701687 L15.6430412508,358.156444799 L29.3546141489,341.522554239 L35.3470520391,336.634697021 L35.8127498363,339.073432486 L37.1062306502,340.80259216 L39.1024567867,342.130545727 L41.4781486454,343.306331822 L45.5880312166,341.168909835 L49.7224363917,341.00296641 L53.3072348785,342.437456766 L55.768556438,345.033844089 L56.9989650289,349.323121919 L54.4402328932,350.041100212 L50.6074919456,350.277088244 L47.9212758432,353.091171241 L51.5140446342,356.323330973 L54.5352890553,363.146690435 Z" fill="#cee3f5" id="GM.BJ" stroke="#6e6e6e" stroke-width="0.4"><desc><labelrank>6</labelrank><code_hasc>GM.BJ</code_hasc><name>Banjul</name><admin>Gambia</admin><type_en>Independent City</type_en><region /><woe_id>2345443</woe_id><longitude>-16</longitude><woe_name>Banjul</woe_name><fips>GA01</fips><woe_label>Banjul, GM, The Gambia</woe_label><latitude>13</latitude><iso_a2>GM</iso_a2><postal>BJ</postal><type>Independent City</type><id>GM.BJ</id></desc></path><path d="M383.330777905,322.833607977 L378.072253019,328.276523158 L374.814371994,333.549490143 L373.924718684,348.234932388 L372.51364874,354.797649542 L367.727423842,361.013496277 L361.04417448,365.44169838 L353.424883474,368.24844645 L345.854848951,369.631040113 L337.289415727,369.630842954 L311.939974857,364.187929492 L304.685225155,363.85415022 L299.239189027,365.885342278 L293.862811816,368.799604177 L286.865398094,371.120569089 L283.068058758,371.491677698 L267.393858866,369.923249953 L264.462271503,369.988755861 L254.01227257,373.283794239 L237.799275172,374.791661952 L235.102975645,376.267532797 L234.166692532,379.614213485 L233.717040916,396.449493118 L233.594567341,396.422683971 L199.678696953,388.987557038 L197.828160553,388.894429321 L191.542132924,390.421677387 L186.792394235,390.936121559 L185.095824601,391.377008682 L183.454336418,391.572659636 L182.048602686,391.437937407 L179.858430315,390.631097554 L178.122347569,390.458065785 L175.713894372,391.515334587 L174.091750652,394.171161429 L173.34881355,395.020784395 L171.906162029,395.063592969 L170.19646962,394.325975711 L167.83819956,392.125157917 L167.034483908,390.409750303 L166.758893723,388.868481824 L166.373616925,387.670315222 L165.410801882,386.616810988 L160.971954168,386.14268534 L157.715106758,387.750262225 L155.158563196,388.01861509 L152.769839448,388.819089776 L150.615267888,390.123038078 L148.732487788,391.969319262 L146.519427776,393.582060265 L145.541779966,392.185929803 L144.513275278,385.668287031 L144.403095352,383.020161736 L143.912825733,380.69871809 L142.460270729,379.725352149 L141.299155848,379.149553095 L140.558702027,377.706149176 L140.132640344,375.839120837 L140.028791701,373.877051397 L140.788320411,369.52286248 L142.713967296,366.575518021 L152.059991314,358.861506451 L153.809343926,356.995245823 L154.558902385,354.505816448 L155.566950591,353.351048231 L157.834977876,353.777173093 L161.620658725,355.331066889 L194.216140938,357.239876224 L206.674487566,354.341804807 L211.111744791,353.933435326 L213.655377594,354.068491864 L214.969169601,354.295552619 L216.132247028,354.357780989 L218.318424535,353.9599208 L220.051854233,353.21253323 L221.303947792,352.173528931 L222.243638843,351.210687237 L222.954625355,350.730114018 L228.024612663,350.438636693 L243.00800888,352.256396385 L247.785383057,351.759344205 L261.339598309,347.606707883 L263.536964868,346.356983556 L267.895284374,343.238865447 L270.0717399,342.607174521 L272.338862122,343.40552692 L275.639204937,346.853704823 L277.906565481,347.651823656 L281.178473798,347.602199156 L283.600149815,347.221803814 L285.815130095,346.280451394 L288.448253107,344.431865069 L290.467812715,342.079334391 L294.168534014,336.310564278 L296.412734274,334.721591085 L299.192355089,334.621544714 L302.083208106,335.536025696 L304.717705924,337.010159479 L306.784719479,338.656888033 L309.183902224,339.743870122 L311.680704016,339.333475505 L314.07452521,338.381752231 L316.24053428,337.864242706 L320.643850514,339.118776057 L323.474905187,342.051190385 L325.662672033,345.339788723 L328.116935824,347.759259481 L336.112322017,350.400068921 L346.305066897,351.052678359 L354.62125476,347.62430934 L356.968400099,337.927681141 L355.764583538,337.926223147 L356.311187383,335.879799412 L370.99075756,327.325639652 L376.779067566,324.656192268 L379.601595466,322.578901524 L381.396396937,322.157033634 L382.746571652,322.385046985 L383.22642232,322.753483495 L383.330777905,322.833607977 Z" fill="#cee3f5" id="GM.LR" stroke="#6e6e6e" stroke-width="0.4"><desc><labelrank>6</labelrank><code_hasc>GM.LR</code_hasc><name>Lower River</name><admin>Gambia</admin><type_en>Division</type_en><region /><woe_id>2345444</woe_id><longitude>-15</longitude><woe_name>Lower River</woe_name><fips>GA02</fips><woe_label>Lower River, GM, The Gambia</woe_label><latitude>13</latitude><iso_a2>GM</iso_a2><postal>LR</postal><type>Division</type><id>GM.LR</id></desc></path><path d="M54.5352890553,363.146690435 L56.155144486,370.231431005 L55.5807885716,374.20946651 L64.091034478,384.410739196 L65.9661270992,385.775382548 L77.7278219042,386.36900105 L81.0632206565,387.345633101 L84.0902569466,389.267294219 L85.8978494314,390.940060949 L88.2765167502,392.09423918 L93.0067533527,392.5660373 L95.2506083175,394.153994047 L96.5643527512,397.862565273 L96.6444707879,402.11495185 L95.2436082847,405.402281666 L99.8378423926,401.601398818 L101.911745835,401.49699437 L104.937858,403.832923609 L103.587865983,401.419310146 L99.3614304163,397.076244174 L98.4751902847,396.433480096 L97.9052807454,393.415267219 L96.2883596281,391.434770603 L93.7945242654,390.541192689 L90.555837627,390.793176532 L90.5652068319,389.169741064 L97.4076584125,389.344125717 L100.600059818,388.878916663 L103.437936525,387.474219719 L105.711631703,392.241175482 L108.386601876,391.202542131 L111.565771473,387.924648775 L115.361653525,386.060747532 L119.693598085,384.788905322 L128.297004939,379.151832125 L132.949746615,377.89038603 L139.412119238,379.942263397 L140.373073702,384.652796463 L139.34304222,390.097542156 L139.928195613,394.284409861 L144.08727832,395.45456023 L149.736579914,393.790670781 L157.706944026,389.51846716 L157.715106758,387.750262225 L160.971954168,386.14268534 L165.410801882,386.616810988 L166.373616925,387.670315222 L166.758893723,388.868481824 L167.034483908,390.409750303 L167.83819956,392.125157917 L170.19646962,394.325975711 L171.906162029,395.063592969 L173.34881355,395.020784395 L174.091750652,394.171161429 L175.713894372,391.515334587 L178.122347569,390.458065785 L179.858430315,390.631097554 L182.048602686,391.437937407 L183.454336418,391.572659636 L185.095824601,391.377008682 L186.792394235,390.936121559 L191.542132924,390.421677387 L197.828160553,388.894429321 L199.678696953,388.987557038 L233.594567341,396.422683971 L233.717040916,396.449493118 L233.618140608,400.152697929 L233.129688019,417.06544977 L231.56276938,418.207535965 L222.845411194,418.104404985 L216.64278422,418.025074593 L201.683098992,417.831037185 L171.357766603,417.437337144 L119.879547804,416.724966567 L84.5247304355,416.21064733 L46.1735831416,415.62489825 L36.047284002,415.46020386 L27.9164573193,417.215994037 L24.436740423,422.998045071 L23.6873314256,425.275951713 L19.9812436449,428.871442719 L18.4880658545,430.800494947 L17.6274832151,433.451966683 L17.2342334669,438.919610488 L13.7120110299,435.850639742 L10.1204907467,434.597961604 L9.57340340838,432.912365712 L10.5630285159,430.957327608 L12.225968574,427.547587008 L11.8249484028,423.959005243 L7.39042308628,412.193973053 L7.24015393761,409.370637913 L7.8879661085,398.260196315 L7.37051301353,395.163578835 L6.08671633418,392.003424699 L2.14362779825,387.432048588 L1.14431221241,384.273791996 L2.98957297975,380.479084641 L2.14674454023,379.235740519 L0.0,373.826605991 L2.11004685089,371.329082475 L4.66187189196,364.0406528 L7.09540053506,362.531257317 L9.93897497983,361.875294516 L12.9788498637,360.225081385 L15.6430412508,358.156444799 L21.8715994147,366.67701687 L29.14518581,374.209131788 L38.6637518819,375.021830308 L48.9686809795,367.608655203 L54.5352890553,363.146690435 Z" fill="#cee3f5" id="GM.WE" stroke="#6e6e6e" stroke-width="0.4"><desc><labelrank>6</labelrank><code_hasc>GM.WE</code_hasc><name>West Coast</name><admin>Gambia</admin><type_en>Division</type_en><region /><woe_id>2345447</woe_id><longitude>-16</longitude><woe_name /><fips>GA05</fips><woe_label /><latitude>13</latitude><iso_a2>GM</iso_a2><postal>WC</postal><type>Division</type><id>GM.WE</id></desc></path><path d="M355.304508347,337.925659225 L355.247784691,337.925589425 L354.799036908,341.48989267 L353.093221299,344.646856894 L350.660289411,346.923687695 L348.096688492,347.789756231 L343.728932102,347.271658629 L335.761410756,345.028050096 L332.159800642,344.519917258 L328.843042915,343.33577036 L325.018612532,340.585454434 L319.40258557,335.512915267 L317.362419105,334.542976762 L315.300798232,334.925471385 L313.276087402,335.752374834 L311.412727745,336.231732142 L309.314993559,335.725119773 L307.530546101,334.600766291 L306.133758289,333.477167208 L305.132755494,332.972682277 L301.920204788,332.231555932 L299.29523921,330.853911721 L296.252849124,330.190123935 L291.674594796,331.464489318 L289.306836916,333.323497644 L285.882758971,337.952619821 L283.562799958,339.415410577 L279.59138245,339.598624533 L273.349742999,336.625954574 L269.295216293,336.131924427 L265.094885597,337.0767466 L254.848778909,342.563742363 L246.548513412,345.069688061 L172.074273348,350.62426879 L164.728284741,347.953426131 L160.154258976,347.227034341 L155.780587713,348.153532142 L151.57060594,350.413949808 L145.020885607,355.252325936 L135.228611633,365.059845983 L133.006474547,366.700967111 L131.223856713,367.474589621 L129.494528263,368.915184252 L127.731258909,369.582515134 L125.751925199,368.122794333 L125.628574867,366.373132318 L126.332017962,363.912702878 L126.772188942,361.132019311 L125.802569857,358.401973952 L121.857886258,361.975959317 L121.364998028,363.944643184 L122.741504802,366.647920658 L120.40772826,367.843502668 L119.412976517,368.08946971 L119.404355099,369.712840151 L120.509552362,370.056908641 L121.584339473,370.787320326 L122.717495081,371.218458319 L118.106568279,373.551890846 L110.180424732,374.668737149 L102.135881,374.885162387 L97.1513469558,374.460830513 L79.1513908575,369.939263332 L71.6317318252,369.439390977 L73.0544209847,367.351012067 L75.9380501449,361.502541624 L76.4640744536,359.012427456 L75.9732730928,355.714016244 L73.703397168,350.993746141 L73.1847415021,349.193039302 L72.2491139476,347.525048411 L67.9844191155,344.29005362 L66.534920517,341.652298347 L64.2361623777,340.226821165 L63.7500051928,339.334627031 L63.7808929815,334.464007537 L65.8298077746,324.50341557 L65.5888405986,320.7521302 L64.2946414801,317.612652185 L62.7781037696,315.26418264 L62.776169826,315.26083868 L77.3293432062,315.411255099 L91.7594679196,315.5472023 L106.177192297,315.69167232 L120.60668316,315.820259343 L135.047819467,315.957499076 L149.464732433,316.078663751 L163.893327259,316.208481785 L173.35528124,316.275542157 L178.309781398,316.310025865 L192.737947771,316.420218714 L207.177850126,316.539050051 L221.593591339,316.64184095 L236.021105166,316.753271387 L250.460491726,316.848792013 L264.875678731,316.952832325 L279.314764875,317.040994941 L293.729688375,317.137689989 L305.095941737,317.199783239 L308.747203401,315.980452372 L309.234665714,306.5521853 L309.807920272,303.338117021 L313.045013233,303.486530255 L323.517649476,305.089207895 L327.567350395,305.21293776 L329.337601278,305.044205754 L337.370672004,305.505152021 L340.026364228,306.993844167 L339.319275222,310.330075708 L338.912482797,321.304502406 L341.63333953,327.977020106 L355.304508347,337.925659225 Z" fill="#cee3f5" id="GM.NB" stroke="#6e6e6e" stroke-width="0.4"><desc><labelrank>6</labelrank><code_hasc>GM.NB</code_hasc><name>North Bank</name><admin>Gambia</admin><type_en>Division</type_en><region /><woe_id>2345448</woe_id><longitude>-15</longitude><woe_name /><fips>GA07</fips><woe_label /><latitude>13</latitude><iso_a2>GM</iso_a2><postal>NB</postal><type>Division</type><id>GM.NB</id></desc></path></svg>