<?xml version='1.0' encoding='utf-8'?>
<svg height="700" width="700" xmlns="http://www.w3.org/2000/svg"><path d="M466.254408169,85.0585218877 L463.517169527,89.1174721802 L447.346469435,93.8689236769 L442.421307551,93.4587318097 L436.167521547,91.0413432254 L434.96072781,94.8891290255 L440.063840514,168.31028467 L439.055247668,179.230214673 L436.239413804,183.622843502 L423.095647893,189.386240602 L414.842750029,190.98940907 L398.846103628,191.36899591 L393.139996422,192.672175334 L387.970762195,197.484277173 L385.915369059,202.698338735 L383.692104707,205.847163873 L371.963039417,212.98639316 L370.992225284,215.041873916 L369.235675886,224.387891951 L367.523626933,226.796593316 L364.685392222,228.529381077 L341.46718493,237.166595427 L332.252062651,242.286740456 L328.592106152,242.722396877 L314.571436504,240.991114647 L312.837964862,241.472484366 L309.978991371,246.263925923 L307.702877015,248.015841044 L291.791178585,253.666068712 L285.319158292,257.449790532 L282.762202189,261.343059496 L284.033463066,272.904371069 L283.570673351,275.460478165 L276.430258423,284.699030302 L277.665494273,293.481085866 L275.906256811,305.726398323 L277.103766419,316.323861736 L276.13916585,318.404443738 L274.112775749,319.94804198 L270.880516659,321.002687575 L266.473965346,320.855994801 L261.616426459,319.49828055 L253.157715844,313.504369336 L246.352101361,307.534420503 L235.3653613,307.322332978 L229.566313637,309.702812449 L225.447623732,309.532439658 L205.074172928,305.442682116 L202.637555765,304.353114199 L200.74797001,302.497295141 L191.908669494,288.430969345 L132.33440179,251.863951979 L127.399336168,249.867667456 L155.889528601,212.703717495 L182.384440494,163.817936465 L203.237577303,111.724063029 L209.022741714,88.2067914742 L214.102575064,78.8523696216 L289.379381855,9.9708634688 L300.622116863,4.17719250836 L314.512608469,0.328730698456 L326.366955941,0.0 L336.641539253,3.2759107666 L466.254408169,85.0585218877 Z" fill="#cee3f5" id="SZ.HH" stroke="#6e6e6e" stroke-width="0.4"><desc><labelrank>8</labelrank><code_hasc>SZ.HH</code_hasc><name>Hhohho</name><admin>Swaziland</admin><type_en>District</type_en><region /><woe_id>20069889</woe_id><longitude>31</longitude><woe_name>Hhohho</woe_name><fips>WZ01</fips><woe_label>Hhohho, SZ, Swaziland</woe_label><latitude>-26</latitude><iso_a2>SZ</iso_a2><postal>HH</postal><type>District</type><id>SZ.HH</id></desc></path><path d="M550.015983127,631.667772186 L536.643948289,630.740752823 L535.403516156,629.855740031 L535.83748505,623.053112282 L534.780580614,622.028699018 L524.600931063,621.153696202 L518.709875297,619.621666307 L517.498887265,615.245463771 L517.86090017,607.547461789 L517.293482143,606.174433678 L503.300877365,600.216042785 L492.589777609,598.065991736 L490.413593621,596.249201218 L482.965326229,578.772084738 L480.531988727,576.016412158 L476.734072969,574.675402412 L473.402990601,574.800129269 L461.833863211,577.993943682 L458.012202195,578.400320065 L450.4475968,576.870145734 L428.756472466,564.442407696 L418.922836899,557.06071557 L411.861412582,549.374325941 L404.743890644,544.216308595 L399.416150848,542.714354721 L392.839267337,545.408091753 L390.544436652,544.538561164 L387.738020841,542.158907359 L380.266423644,533.447613852 L371.812791932,518.546492595 L370.663698444,515.435929722 L373.240238237,508.628685071 L378.212055589,500.461167243 L380.739388971,494.573880838 L387.828351012,485.693753944 L389.705197238,482.226512655 L390.592318698,478.701755099 L389.628401351,470.121553051 L390.272363448,466.944166114 L394.622741494,457.889994095 L389.697154285,454.500400631 L366.614785212,455.642354698 L366.880111998,446.72620771 L369.355844179,436.313769545 L378.370009469,413.168088702 L379.768325169,410.946666348 L382.952676449,407.877751545 L406.131347893,396.68243684 L408.951868021,394.101686876 L410.540877159,390.271226539 L409.435949711,374.227287087 L407.056764733,360.701116639 L405.374850178,356.171570077 L401.900663572,350.283688952 L401.501294308,347.807355897 L403.465763456,346.06288601 L410.518262048,342.815699132 L413.036908621,340.675107163 L413.245540114,337.043646727 L411.527824038,327.323183416 L411.924745507,323.896412304 L413.924231574,319.533527835 L414.307836732,309.101277828 L411.89136838,297.918349111 L412.684283452,296.646461275 L420.264656382,291.764558996 L421.546481303,289.752611033 L422.156195394,282.87840475 L424.851251705,279.473457259 L432.435933496,272.664153529 L439.974155554,263.14628592 L442.451484183,256.437187084 L443.870775423,249.440400976 L444.689425712,238.292540347 L447.865468392,226.730538521 L445.381509558,220.714992093 L445.850791027,217.95410286 L444.708612838,209.467499976 L436.239413804,183.622843502 L439.055247668,179.230214673 L440.063840514,168.31028467 L434.96072781,94.8891290255 L436.167521547,91.0413432254 L442.421307551,93.4587318097 L447.346469435,93.8689236769 L463.517169527,89.1174721802 L466.254408169,85.0585218877 L501.659806173,107.527081148 L513.250960227,110.915843307 L524.684194911,108.107756316 L547.630251593,96.4817521016 L558.170596022,106.318978825 L569.757710399,112.429920932 L596.535667377,119.076061613 L591.366016337,133.075450616 L593.596793031,149.042660063 L598.462590147,165.450485332 L601.328501126,180.816457141 L599.9618337,192.675919119 L586.959476012,227.906453023 L585.109120901,240.872561222 L590.434516195,286.672298441 L593.524378511,299.097023047 L612.687775301,336.945559034 L617.071012461,373.338810691 L616.463336626,487.898575252 L610.015110893,485.050206219 L600.136472528,475.291579831 L593.739167929,474.098451272 L566.989631657,474.166259865 L567.960881614,487.479645833 L548.953351262,604.266904556 L550.015983127,631.667772186 Z" fill="#cee3f5" id="SZ.LU" stroke="#6e6e6e" stroke-width="0.4"><desc><labelrank>8</labelrank><code_hasc>SZ.LU</code_hasc><name>Lubombo</name><admin>Swaziland</admin><type_en>District</type_en><region /><woe_id>20069891</woe_id><longitude>31</longitude><woe_name>Lubombo</woe_name><fips>WZ02</fips><woe_label>Lubombo, SZ, Swaziland</woe_label><latitude>-26</latitude><iso_a2>SZ</iso_a2><postal>LU</postal><type>District</type><id>SZ.LU</id></desc></path><path d="M366.614785212,455.642354698 L350.53917473,453.010371552 L342.311708995,454.76539799 L335.992010032,458.978965298 L327.683835073,467.284712835 L323.991386455,468.75593407 L305.318897332,470.85810707 L302.613351718,472.065303341 L301.207424132,473.324409127 L300.922192995,475.14309248 L298.686029392,479.078201944 L294.932329095,482.022794408 L292.511491349,485.960698129 L291.939176325,494.009276397 L290.646045232,494.394212792 L288.041255951,493.785986536 L269.721151541,480.435264338 L265.482794122,478.05871354 L260.895503394,477.295616208 L253.497539115,480.432412718 L250.169390242,481.237784944 L245.655715609,481.302137127 L240.422879338,482.96256143 L219.239558098,494.645473768 L201.628615214,508.925913275 L199.965250227,509.295899844 L199.267921744,508.157678574 L199.420742079,506.01847336 L201.64360528,497.712896329 L201.308345972,495.994717106 L194.425274979,486.633204109 L194.213388812,484.913165112 L195.433482877,479.770597413 L194.844993362,469.600773668 L192.795415432,465.036738368 L189.339667703,461.597277467 L185.655138128,460.73500354 L182.005352537,460.79154304 L168.135576964,464.11081074 L159.028421494,464.669179999 L154.480660912,462.742966525 L150.027679331,459.046258573 L147.28623559,457.895732905 L145.088139341,459.723739079 L131.760375492,463.320041524 L126.197872316,469.51990266 L124.070849075,463.585181115 L119.587810464,469.313121842 L113.551832514,474.608172909 L106.853793528,478.490558079 L100.237812899,479.890613753 L93.3184183788,480.42354497 L90.4376945403,470.086143426 L85.9272364119,439.64601032 L82.9289875389,330.954880113 L91.0234576505,297.495488197 L127.399336168,249.867667456 L132.33440179,251.863951979 L191.908669494,288.430969345 L200.74797001,302.497295141 L202.637555765,304.353114199 L205.074172928,305.442682116 L225.447623732,309.532439658 L229.566313637,309.702812449 L235.3653613,307.322332978 L246.352101361,307.534420503 L253.157715844,313.504369336 L261.616426459,319.49828055 L266.473965346,320.855994801 L270.880516659,321.002687575 L274.112775749,319.94804198 L276.13916585,318.404443738 L277.103766419,316.323861736 L275.906256811,305.726398323 L277.665494273,293.481085866 L276.430258423,284.699030302 L283.570673351,275.460478165 L284.033463066,272.904371069 L282.762202189,261.343059496 L285.319158292,257.449790532 L291.791178585,253.666068712 L307.702877015,248.015841044 L309.978991371,246.263925923 L312.837964862,241.472484366 L314.571436504,240.991114647 L328.592106152,242.722396877 L332.252062651,242.286740456 L341.46718493,237.166595427 L364.685392222,228.529381077 L367.523626933,226.796593316 L369.235675886,224.387891951 L370.992225284,215.041873916 L371.963039417,212.98639316 L383.692104707,205.847163873 L385.915369059,202.698338735 L387.970762195,197.484277173 L393.139996422,192.672175334 L398.846103628,191.36899591 L414.842750029,190.98940907 L423.095647893,189.386240602 L436.239413804,183.622843502 L444.708612838,209.467499976 L445.850791027,217.95410286 L445.381509558,220.714992093 L447.865468392,226.730538521 L444.689425712,238.292540347 L443.870775423,249.440400976 L442.451484183,256.437187084 L439.974155554,263.14628592 L432.435933496,272.664153529 L424.851251705,279.473457259 L422.156195394,282.87840475 L421.546481303,289.752611033 L420.264656382,291.764558996 L412.684283452,296.646461275 L411.89136838,297.918349111 L414.307836732,309.101277828 L413.924231574,319.533527835 L411.924745507,323.896412304 L411.527824038,327.323183416 L413.245540114,337.043646727 L413.036908621,340.675107163 L410.518262048,342.815699132 L403.465763456,346.06288601 L401.501294308,347.807355897 L401.900663572,350.283688952 L405.374850178,356.171570077 L407.056764733,360.701116639 L409.435949711,374.227287087 L410.540877159,390.271226539 L408.951868021,394.101686876 L406.131347893,396.68243684 L382.952676449,407.877751545 L379.768325169,410.946666348 L378.370009469,413.168088702 L369.355844179,436.313769545 L366.880111998,446.72620771 L366.614785212,455.642354698 Z" fill="#cee3f5" id="SZ.MA" stroke="#6e6e6e" stroke-width="0.4"><desc><labelrank>7</labelrank><code_hasc>SZ.MA</code_hasc><name>Manzini</name><admin>Swaziland</admin><type_en>District</type_en><region /><woe_id>20069892</woe_id><longitude>31</longitude><woe_name>Manzini</woe_name><fips>WZ03</fips><woe_label>Manzini, SZ, Swaziland</woe_label><latitude>-26</latitude><iso_a2>SZ</iso_a2><postal>MA</postal><type>District</type><id>SZ.MA</id></desc></path><path d="M366.614785212,455.642354698 L389.697154285,454.500400631 L394.622741494,457.889994095 L390.272363448,466.944166114 L389.628401351,470.121553051 L390.592318698,478.701755099 L389.705197238,482.226512655 L387.828351012,485.693753944 L380.739388971,494.573880838 L378.212055589,500.461167243 L373.240238237,508.628685071 L370.663698444,515.435929722 L371.812791932,518.546492595 L380.266423644,533.447613852 L387.738020841,542.158907359 L390.544436652,544.538561164 L392.839267337,545.408091753 L399.416150848,542.714354721 L404.743890644,544.216308595 L411.861412582,549.374325941 L418.922836899,557.06071557 L428.756472466,564.442407696 L450.4475968,576.870145734 L458.012202195,578.400320065 L461.833863211,577.993943682 L473.402990601,574.800129269 L476.734072969,574.675402412 L480.531988727,576.016412158 L482.965326229,578.772084738 L490.413593621,596.249201218 L492.589777609,598.065991736 L503.300877365,600.216042785 L517.293482143,606.174433678 L517.86090017,607.547461789 L517.498887265,615.245463771 L518.709875297,619.621666307 L524.600931063,621.153696202 L534.780580614,622.028699018 L535.83748505,623.053112282 L535.403516156,629.855740031 L536.643948289,630.740752823 L550.015983127,631.667772186 L551.627399867,673.059271319 L553.898841997,679.563442958 L558.698380175,689.078630421 L559.889227973,694.12198842 L560.142984016,700.0 L384.744429049,699.370842387 L358.044937098,694.271337514 L237.343027583,654.50219075 L231.285490866,650.547681296 L225.051581327,644.482564034 L205.630585605,616.146108674 L164.189788254,579.800647347 L155.010868656,564.506906514 L153.143500321,553.461277757 L156.97818807,535.935171664 L157.293848267,524.854304188 L154.803523298,516.070637321 L150.453599515,509.569111391 L138.841752598,497.671774876 L133.433549923,489.71817825 L126.197872316,469.51990266 L131.760375492,463.320041524 L145.088139341,459.723739079 L147.28623559,457.895732905 L150.027679331,459.046258573 L154.480660912,462.742966525 L159.028421494,464.669179999 L168.135576964,464.11081074 L182.005352537,460.79154304 L185.655138128,460.73500354 L189.339667703,461.597277467 L192.795415432,465.036738368 L194.844993362,469.600773668 L195.433482877,479.770597413 L194.213388812,484.913165112 L194.425274979,486.633204109 L201.308345972,495.994717106 L201.64360528,497.712896329 L199.420742079,506.01847336 L199.267921744,508.157678574 L199.965250227,509.295899844 L201.628615214,508.925913275 L219.239558098,494.645473768 L240.422879338,482.96256143 L245.655715609,481.302137127 L250.169390242,481.237784944 L253.497539115,480.432412718 L260.895503394,477.295616208 L265.482794122,478.05871354 L269.721151541,480.435264338 L288.041255951,493.785986536 L290.646045232,494.394212792 L291.939176325,494.009276397 L292.511491349,485.960698129 L294.932329095,482.022794408 L298.686029392,479.078201944 L300.922192995,475.14309248 L301.207424132,473.324409127 L302.613351718,472.065303341 L305.318897332,470.85810707 L323.991386455,468.75593407 L327.683835073,467.284712835 L335.992010032,458.978965298 L342.311708995,454.76539799 L350.53917473,453.010371552 L366.614785212,455.642354698 Z" fill="#cee3f5" id="SZ.SH" stroke="#6e6e6e" stroke-width="0.4"><desc><labelrank>8</labelrank><code_hasc>SZ.SH</code_hasc><name>Shiselweni</name><admin>Swaziland</admin><type_en>District</type_en><region /><woe_id>20069890</woe_id><longitude>31</longitude><woe_name>Shiselweni</woe_name><fips>WZ04</fips><woe_label>Shiselweni, SZ, Swaziland</woe_label><latitude>-27</latitude><iso_a2>SZ</iso_a2><postal>SH</postal><type>District</type><id>SZ.SH</id></desc></path></svg>