<?xml version='1.0' encoding='utf-8'?>
<svg height="700" width="700" xmlns="http://www.w3.org/2000/svg"><path d="M372.24999576,326.206074399 L381.315043606,349.164815093 L382.574952024,355.126028379 L381.381297603,357.503668169 L380.459828477,360.634118721 L379.710290025,365.477456431 L379.807924705,367.121083631 L380.079782435,368.323727994 L381.368663851,370.357791954 L381.889400398,370.972461287 L383.699131295,373.673037731 L385.475377749,376.970383503 L386.243058404,379.185509538 L386.663646693,380.872657825 L386.744265255,392.559000594 L386.998618411,395.119647639 L387.369440234,397.066239991 L387.749458507,397.992130374 L388.162732802,398.770996002 L394.365793454,406.993601104 L394.9194423,408.490477596 L395.208208956,409.891999951 L395.091460544,410.98181605 L396.582835999,426.998667225 L394.321574686,428.323559713 L389.046460248,438.784131474 L387.794079774,441.83247832 L390.213175404,451.111121277 L387.876514279,452.035424424 L383.802700611,454.49731125 L381.452703211,455.475836995 L382.286232247,457.233883385 L382.844172451,460.626291159 L383.625260519,462.75206026 L380.194135611,461.195819867 L376.748667067,461.028807218 L373.406126888,462.2102849 L370.296754253,464.79491025 L375.931707055,468.261200504 L381.882705172,469.574994213 L388.122733223,469.063101393 L394.585655193,467.106796055 L397.826978755,479.69585089 L396.843635292,485.470853772 L388.994310869,487.889383472 L382.309171061,487.556380708 L376.330292702,486.201737326 L370.40565975,483.348141942 L342.583568226,458.489988528 L336.827509549,451.247027642 L313.217611812,437.499938237 L313.220402841,437.49732067 L314.133508204,436.64290726 L314.780581507,436.220420906 L315.717306443,435.936932319 L318.566397792,436.288807842 L319.560623798,436.238925863 L320.405990329,436.058978875 L321.069667824,435.593207424 L321.601096687,434.971466199 L321.959029437,434.107176308 L322.613246053,430.017018041 L324.530531486,423.784106862 L324.66509636,422.729065457 L324.352529531,421.612607139 L323.642549778,420.434821589 L319.98820928,417.270311383 L318.501510845,415.303739809 L317.957897198,413.858071912 L317.398941946,411.832814607 L316.696184921,407.290088416 L316.543539939,405.032107826 L316.646268887,403.40610951 L317.545908582,400.769696852 L317.996877483,398.876257297 L283.304423361,327.67316731 L282.556855227,322.688601797 L290.074961522,325.18203567 L298.208197211,326.594693635 L299.597541582,326.537438921 L301.111423818,326.264184581 L303.395816927,325.335242522 L304.596341157,324.663263669 L306.832846773,322.912298861 L307.61091782,322.542072015 L318.464200179,320.108552278 L319.78705178,320.137192238 L321.431880127,320.408655138 L327.587040904,322.877302257 L343.284328319,325.776799119 L372.24999576,326.206074399 Z" fill="#cee3f5" id="JM.CL" stroke="#6e6e6e" stroke-width="0.4"><desc><labelrank>9</labelrank><code_hasc>JM.CL</code_hasc><name>Clarendon</name><admin>Jamaica</admin><type_en>Parish</type_en><region /><woe_id>2345912</woe_id><longitude>-77</longitude><woe_name>Clarendon</woe_name><fips>JM01</fips><woe_label>Clarendon, JM, Jamaica</woe_label><latitude>17</latitude><iso_a2>JM</iso_a2><postal>CL</postal><type>Parish</type><id>JM.CL</id></desc></path><path d="M120.120482771,238.138667398 L120.062074708,241.325232887 L119.883210776,242.336417557 L117.728539516,249.833668382 L118.300196614,251.02193168 L119.383120723,252.360017951 L124.563292808,256.678577139 L125.0953262,257.589733321 L125.871314867,259.228839663 L126.354134944,261.644950807 L127.235179153,263.743077693 L130.81861517,270.396946677 L132.38602507,274.021072954 L133.043338502,274.725180257 L134.195714594,275.561592841 L138.645304022,277.920029779 L140.224056907,279.433235005 L141.011894689,280.501236227 L145.036571972,288.678886302 L118.237511941,286.956591771 L111.237084037,285.646584868 L93.6955419624,275.373643643 L90.9076459507,274.570093751 L87.9440708785,274.145999989 L48.2452644507,274.078809205 L46.42446856,274.551198515 L34.3319462362,288.570386519 L32.7450202262,289.80521196 L31.098233782,290.122612473 L29.3711835316,290.093385143 L12.1257360304,287.480142921 L9.23510789924,287.234309962 L9.23401612038,287.234217125 L9.780407395,284.756672545 L9.39822447288,274.65910428 L10.0304642065,271.802805509 L12.4919258755,267.85621996 L12.7832718661,265.338006283 L13.9115119109,264.024659081 L18.8836247063,263.651469209 L22.0199265008,261.643776937 L24.5839441319,257.738264304 L27.893275708,255.091169544 L33.2397849668,256.899119579 L36.6080228007,247.440234138 L46.4732956333,238.51502775 L57.8879922553,234.829597969 L66.065909729,241.121303592 L70.8469191767,235.565630355 L75.9184306666,235.488001515 L81.8342418473,237.703791865 L89.0942473346,239.177665323 L109.783068914,236.762526905 L116.674130486,236.841372219 L120.120482771,238.138667398 Z" fill="#cee3f5" id="JM.HA" stroke="#6e6e6e" stroke-width="0.4"><desc><labelrank>9</labelrank><code_hasc>JM.HA</code_hasc><name>Hanover</name><admin>Jamaica</admin><type_en>Parish</type_en><region /><woe_id>2345913</woe_id><longitude>-78</longitude><woe_name>Hanover</woe_name><fips>JM02</fips><woe_label>Hanover, JM, Jamaica</woe_label><latitude>18</latitude><iso_a2>JM</iso_a2><postal>HA</postal><type>Parish</type><id>JM.HA</id></desc></path><path d="M282.556855227,322.688601797 L283.304423361,327.67316731 L317.996877483,398.876257297 L317.545908582,400.769696852 L316.646268887,403.40610951 L316.543539939,405.032107826 L316.696184921,407.290088416 L317.398941946,411.832814607 L317.957897198,413.858071912 L318.501510845,415.303739809 L319.98820928,417.270311383 L323.642549778,420.434821589 L324.352529531,421.612607139 L324.66509636,422.729065457 L324.530531486,423.784106862 L322.613246053,430.017018041 L321.959029437,434.107176308 L321.601096687,434.971466199 L321.069667824,435.593207424 L320.405990329,436.058978875 L319.560623798,436.238925863 L318.566397792,436.288807842 L315.717306443,435.936932319 L314.780581507,436.220420906 L314.133508204,436.64290726 L313.220402841,437.49732067 L313.217611812,437.499938237 L312.885253448,437.306306847 L305.806904607,434.688970871 L298.333963239,433.690877509 L292.418282076,436.10123817 L285.62241239,440.661019379 L278.823217706,441.242376353 L264.835338336,437.170741188 L258.72485933,436.110753882 L258.720493582,436.10210644 L257.938086215,434.59461548 L236.368975935,344.277867519 L234.859686226,314.256017657 L238.980303375,313.240707393 L240.942063072,312.520679428 L244.495735752,310.378530409 L246.838782976,309.296243299 L248.625938927,308.817604521 L250.469219917,308.875416803 L262.698297823,310.74705915 L263.715222944,310.715483948 L268.289253803,312.735770503 L282.556855227,322.688601797 Z" fill="#cee3f5" id="JM.MA" stroke="#6e6e6e" stroke-width="0.4"><desc><labelrank>9</labelrank><code_hasc>JM.MA</code_hasc><name>Manchester</name><admin>Jamaica</admin><type_en>Parish</type_en><region /><woe_id>2345914</woe_id><longitude>-77</longitude><woe_name>Manchester</woe_name><fips>JM04</fips><woe_label>Manchester, JM, Jamaica</woe_label><latitude>18</latitude><iso_a2>JM</iso_a2><postal>MA</postal><type>Parish</type><id>JM.MA</id></desc></path><path d="M234.859686226,314.256017657 L236.368975935,344.277867519 L257.938086215,434.59461548 L258.720493582,436.10210644 L258.72485933,436.110753882 L251.091872464,434.785721255 L207.639477755,437.111178387 L205.449295207,436.693923894 L198.787924511,432.144751407 L187.527386985,426.526581725 L184.706293873,424.307753359 L183.321562167,421.76807087 L180.033097147,413.171809644 L179.37987615,410.458130556 L178.176460393,408.327778845 L172.448022096,406.258951404 L170.655094034,404.80690108 L170.217566917,397.775831106 L170.82946075,389.332783618 L168.867334147,382.226637214 L160.734886956,379.205696233 L138.526484555,378.906502621 L133.427074846,376.986908006 L130.790239785,370.814220046 L130.791890065,370.811155498 L133.048537412,366.497726722 L139.445426266,348.416725257 L140.198427377,343.455242998 L139.904677084,342.657928927 L139.46695444,340.891046633 L139.397242385,339.956456584 L139.509840044,338.953585476 L140.057923564,336.88027007 L142.113763999,332.64328513 L145.656164753,327.072797072 L147.093761781,325.652588469 L148.189680271,324.758341511 L153.038505937,322.385805338 L189.73100716,309.532880035 L234.859686226,314.256017657 Z" fill="#cee3f5" id="JM.SE" stroke="#6e6e6e" stroke-width="0.4"><desc><labelrank>9</labelrank><code_hasc>JM.SE</code_hasc><name>Saint Elizabeth</name><admin>Jamaica</admin><type_en>Parish</type_en><region /><woe_id>2345919</woe_id><longitude>-77</longitude><woe_name>Saint Elizabeth</woe_name><fips>JM11</fips><woe_label>Saint Elizabeth, JM, Jamaica</woe_label><latitude>18</latitude><iso_a2>JM</iso_a2><postal>SE</postal><type>Parish</type><id>JM.SE</id></desc></path><path d="M204.764205776,218.442580894 L204.648073336,219.029962268 L189.73100716,309.532880035 L153.038505937,322.385805338 L156.123607318,313.5512451 L156.287627667,310.368662016 L153.763916541,302.268349922 L152.829706177,300.594291004 L152.353412925,299.951847715 L151.777862517,299.32621908 L151.119041698,298.829937346 L150.327567474,298.419505963 L148.503540837,296.204692873 L145.036571972,288.678886302 L141.011894689,280.501236227 L140.224056907,279.433235005 L138.645304022,277.920029779 L134.195714594,275.561592841 L133.043338502,274.725180257 L132.38602507,274.021072954 L130.81861517,270.396946677 L127.235179153,263.743077693 L126.354134944,261.644950807 L125.871314867,259.228839663 L125.0953262,257.589733321 L124.563292808,256.678577139 L119.383120723,252.360017951 L118.300196614,251.02193168 L117.728539516,249.833668382 L119.883210776,242.336417557 L120.062074708,241.325232887 L120.120482771,238.138667398 L120.125871288,238.140695671 L122.591576202,239.053090823 L126.123684979,239.95741258 L129.76755249,239.404404178 L133.017147641,237.132581485 L133.340550184,234.94088208 L133.262784795,232.379269556 L135.256791181,228.929185637 L142.544527041,219.729431417 L145.848403462,216.680605468 L151.501940113,214.160769381 L164.431237073,212.110616528 L179.063419646,212.735395503 L204.76258374,218.442220532 L204.764205776,218.442580894 Z" fill="#cee3f5" id="JM.SJ" stroke="#6e6e6e" stroke-width="0.4"><desc><labelrank>9</labelrank><code_hasc>JM.SJ</code_hasc><name>Saint James</name><admin>Jamaica</admin><type_en>Parish</type_en><region /><woe_id>2345920</woe_id><longitude>-77</longitude><woe_name>Saint James</woe_name><fips>JM12</fips><woe_label>Saint James, JM, Jamaica</woe_label><latitude>18</latitude><iso_a2>JM</iso_a2><postal>SJ</postal><type>Parish</type><id>JM.SJ</id></desc></path><path d="M291.068736461,228.98224256 L290.951531982,229.67336619 L290.24128106,236.324055596 L290.490324473,239.066982758 L294.133074508,248.557264285 L294.383158877,250.971426663 L294.12236235,252.917193227 L293.258253284,255.017180677 L293.263540836,256.219637658 L293.707216883,257.16365543 L295.403509553,259.278571479 L295.507159598,260.809988607 L295.40403864,262.453359735 L282.556855227,322.688601797 L268.289253803,312.735770503 L263.715222944,310.715483948 L262.698297823,310.74705915 L250.469219917,308.875416803 L248.625938927,308.817604521 L246.838782976,309.296243299 L244.495735752,310.378530409 L240.942063072,312.520679428 L238.980303375,313.240707393 L234.859686226,314.256017657 L189.73100716,309.532880035 L204.648073336,219.029962268 L204.764205776,218.442580894 L227.427082055,223.473125855 L258.507129123,224.162174735 L272.225330768,227.540292635 L291.068736461,228.98224256 Z" fill="#cee3f5" id="JM.TR" stroke="#6e6e6e" stroke-width="0.4"><desc><labelrank>9</labelrank><code_hasc>JM.TR</code_hasc><name>Trelawny</name><admin>Jamaica</admin><type_en>Parish</type_en><region /><woe_id>2345923</woe_id><longitude>-77</longitude><woe_name>Trelawny</woe_name><fips>JM15</fips><woe_label>Trelawny, JM, Jamaica</woe_label><latitude>18</latitude><iso_a2>JM</iso_a2><postal>TR</postal><type>Parish</type><id>JM.TR</id></desc></path><path d="M145.036571972,288.678886302 L148.503540837,296.204692873 L150.327567474,298.419505963 L151.119041698,298.829937346 L151.777862517,299.32621908 L152.353412925,299.951847715 L152.829706177,300.594291004 L153.763916541,302.268349922 L156.287627667,310.368662016 L156.123607318,313.5512451 L153.038505937,322.385805338 L148.189680271,324.758341511 L147.093761781,325.652588469 L145.656164753,327.072797072 L142.113763999,332.64328513 L140.057923564,336.88027007 L139.509840044,338.953585476 L139.397242385,339.956456584 L139.46695444,340.891046633 L139.904677084,342.657928927 L140.198427377,343.455242998 L139.445426266,348.416725257 L133.048537412,366.497726722 L130.791890065,370.811155498 L130.790239785,370.814220046 L125.934276483,359.442934356 L123.426035352,355.778790756 L120.68719016,353.870603365 L117.504100227,352.232328145 L114.954311549,351.550927883 L112.983787551,349.782803691 L111.468949922,345.728538955 L109.559105982,337.789580948 L103.61050082,325.618372321 L95.6669204132,321.118202534 L72.1084533857,321.562692064 L57.7358386798,319.047036004 L52.4759230639,318.958445911 L49.4500977121,321.690432252 L46.9801913319,323.022794197 L44.8216395953,322.55891365 L36.9652421667,319.345601311 L36.1743245331,318.849803945 L31.7002619932,318.0971905 L21.8791077601,314.881942287 L16.3637727052,314.148070471 L10.7494403626,312.718198347 L5.33409750499,309.041458173 L1.36252310506,303.862743711 L0.0,298.008368051 L1.79067792175,295.242508484 L6.55261001043,291.939821951 L8.81150119151,289.149916131 L9.23401612038,287.234217125 L9.23510789924,287.234309962 L12.1257360304,287.480142921 L29.3711835316,290.093385143 L31.098233782,290.122612473 L32.7450202262,289.80521196 L34.3319462362,288.570386519 L46.42446856,274.551198515 L48.2452644507,274.078809205 L87.9440708785,274.145999989 L90.9076459507,274.570093751 L93.6955419624,275.373643643 L111.237084037,285.646584868 L118.237511941,286.956591771 L145.036571972,288.678886302 Z" fill="#cee3f5" id="JM.WE" stroke="#6e6e6e" stroke-width="0.4"><desc><labelrank>9</labelrank><code_hasc>JM.WE</code_hasc><name>Westmoreland</name><admin>Jamaica</admin><type_en>Parish</type_en><region /><woe_id>2345924</woe_id><longitude>-78</longitude><woe_name>Westmoreland</woe_name><fips>JM16</fips><woe_label>Westmoreland, JM, Jamaica</woe_label><latitude>18</latitude><iso_a2>JM</iso_a2><postal>WE</postal><type>Parish</type><id>JM.WE</id></desc></path><path d="M527.229215511,403.952527253 L526.471048547,403.227817062 L524.851993709,401.677235452 L520.65226188,400.729554416 L510.977602561,400.605722304 L504.407263184,400.758351292 L499.824886414,398.0485824 L500.87892802,394.921282819 L501.432316979,393.692400519 L503.914090995,392.072207507 L507.099708698,390.762518198 L509.82233246,390.05006118 L518.083137415,389.633185669 L522.844432074,390.725275744 L526.017327581,392.39021722 L528.700507404,398.605661342 L528.996812451,402.956196661 L527.229215511,403.952527253 Z" fill="#cee3f5" id="JM.KI" stroke="#6e6e6e" stroke-width="0.4"><desc><labelrank>9</labelrank><code_hasc>JM.KI</code_hasc><name>Kingston</name><admin>Jamaica</admin><type_en>Parish</type_en><region /><woe_id>2345925</woe_id><longitude>-76</longitude><woe_name>Kingston</woe_name><fips>JM17</fips><woe_label>Kingston St. John, JM, Jamaica</woe_label><latitude>17</latitude><iso_a2>JM</iso_a2><postal>KI</postal><type>Parish</type><id>JM.KI</id></desc></path><path d="M677.836175913,389.296938186 L677.646887455,389.355459895 L668.725808053,392.158565232 L665.358062169,392.560708015 L653.671749422,391.020971327 L649.33024445,389.955182739 L648.076552229,388.895627334 L647.179294109,387.964553074 L645.074592614,384.944318471 L644.534368416,384.306072851 L643.936781613,383.832372616 L642.220988615,383.120284855 L632.73479126,380.349220815 L622.251683504,378.756134205 L615.20476895,374.70315155 L613.614632798,374.30127141 L612.306895691,374.244535092 L610.686826609,374.932583251 L608.546740624,376.11512576 L607.397261964,376.429787583 L605.792322557,376.650550603 L601.273680138,376.688964271 L599.974762637,376.848185888 L599.222663244,377.23081651 L598.578514769,377.751551669 L597.150403451,379.139376363 L595.911062191,379.947111056 L593.314727471,380.914046518 L591.825311538,381.064931481 L590.608314829,380.938283736 L588.35382497,379.646448392 L573.172342927,374.898974322 L570.761569534,373.762523187 L568.631597556,372.322610226 L567.968330434,371.753136683 L567.379497963,371.157545027 L564.939620626,367.867029978 L558.923879545,363.779231713 L544.44998292,357.837899872 L540.295661933,357.213618082 L539.684309928,357.733661712 L539.205670413,358.461081306 L538.496912668,360.123099793 L537.853191672,361.110287065 L536.307020185,361.752935044 L533.089363112,362.33764317 L528.942784077,361.48765116 L526.865103951,360.859274369 L525.672620699,360.134397369 L524.694463878,358.838278661 L524.296310932,358.120882035 L521.42213905,349.725564793 L521.305162166,348.878004919 L519.302468206,342.090294782 L534.28113254,300.243980009 L535.229910313,299.161156846 L535.234313785,299.156301607 L537.071110981,299.558603771 L541.774247631,302.043655068 L547.877260018,308.163048856 L552.569524093,311.17853742 L558.001710005,312.857163194 L568.623584989,312.161105965 L574.195858222,316.07187641 L575.976597512,316.523959911 L577.581593057,318.045984407 L579.550926109,319.430881425 L582.195604861,320.051229495 L606.218779575,319.988683098 L607.901304793,320.992010519 L610.428133199,325.77994544 L611.591348389,327.24782493 L635.163168332,331.588584439 L647.420445591,335.960657338 L649.00789162,342.916184201 L658.131763152,351.560828501 L665.23101325,361.614881253 L675.58732706,383.942547847 L677.836175913,389.296938186 Z" fill="#cee3f5" id="JM.PO" stroke="#6e6e6e" stroke-width="0.4"><desc><labelrank>9</labelrank><code_hasc>JM.PO</code_hasc><name>Portland</name><admin>Jamaica</admin><type_en>Parish</type_en><region /><woe_id>2345915</woe_id><longitude>-76</longitude><woe_name>Portland</woe_name><fips>JM07</fips><woe_label>Portland, JM, Jamaica</woe_label><latitude>18</latitude><iso_a2>JM</iso_a2><postal>PO</postal><type>Parish</type><id>JM.PO</id></desc></path><path d="M417.248160247,250.156064726 L417.509409714,251.66454499 L420.263763344,263.914818117 L420.461445604,265.653652682 L421.088492103,268.058716501 L421.74900447,269.244049662 L423.42555774,270.853540225 L424.292675215,272.073501583 L424.878924178,273.32798178 L424.191240631,280.836466228 L424.306654872,281.848605725 L424.97563552,283.085797695 L428.941017944,287.775215672 L430.295917553,289.903462226 L431.278887702,292.983172922 L431.724779276,295.829229709 L432.236963144,297.663187875 L432.625313425,298.545578926 L434.749216785,301.391781366 L440.882368884,307.542408834 L421.676242134,318.318013011 L415.168368843,320.815619424 L372.24999576,326.206074399 L343.284328319,325.776799119 L327.587040904,322.877302257 L321.431880127,320.408655138 L319.78705178,320.137192238 L318.464200179,320.108552278 L307.61091782,322.542072015 L306.832846773,322.912298861 L304.596341157,324.663263669 L303.395816927,325.335242522 L301.111423818,326.264184581 L299.597541582,326.537438921 L298.208197211,326.594693635 L290.074961522,325.18203567 L282.556855227,322.688601797 L295.40403864,262.453359735 L295.507159598,260.809988607 L295.403509553,259.278571479 L293.707216883,257.16365543 L293.263540836,256.219637658 L293.258253284,255.017180677 L294.12236235,252.917193227 L294.383158877,250.971426663 L294.133074508,248.557264285 L290.490324473,239.066982758 L290.24128106,236.324055596 L290.951531982,229.67336619 L291.068736461,228.98224256 L294.361003701,229.233553825 L302.70277099,231.296939565 L309.272629762,235.289780567 L319.419578434,232.695579928 L335.78843337,232.767430588 L352.62265085,234.68821266 L364.216619254,237.673997688 L365.64503346,239.174358034 L366.823206177,243.317278103 L368.368942459,244.74959496 L370.241527313,244.765443714 L371.972017463,243.950056685 L372.987526113,242.888600012 L372.741163094,242.261654533 L387.016928795,244.769118848 L388.784583164,245.833272573 L394.164774214,250.564885536 L395.828684312,251.628744738 L406.259041874,251.989754912 L417.248160247,250.156064726 Z" fill="#cee3f5" id="JM.SN" stroke="#6e6e6e" stroke-width="0.4"><desc><labelrank>9</labelrank><code_hasc>JM.SN</code_hasc><name>Saint Ann</name><admin>Jamaica</admin><type_en>Parish</type_en><region /><woe_id>2345917</woe_id><longitude>-77</longitude><woe_name>Saint Ann</woe_name><fips>JM09</fips><woe_label>Saint Ann, JM, Jamaica</woe_label><latitude>18</latitude><iso_a2>JM</iso_a2><postal>SN</postal><type>Parish</type><id>JM.SN</id></desc></path><path d="M480.442064753,338.885829854 L479.695329853,347.657670339 L479.853374746,348.955095468 L480.359421652,351.065401504 L482.480330739,355.449559849 L482.787632584,357.101522907 L482.738913746,358.37313424 L481.6567916,360.787306309 L481.243608505,361.514210642 L480.706245417,362.154696002 L480.102619167,362.708719733 L479.465838706,363.193558177 L478.48236581,364.958840202 L477.375367392,367.75355026 L475.476236798,374.519127948 L475.039356212,377.434478886 L475.081864193,379.328828269 L477.400573831,381.403428211 L477.682208214,381.757903223 L478.013617741,382.285346679 L478.610545116,383.80737626 L479.04141995,384.516400065 L479.629444616,385.035013501 L480.382865006,385.319956153 L481.268529366,385.319343413 L482.071292054,385.137124441 L483.717919195,384.409319949 L484.570325001,384.227030651 L486.757865555,387.244221095 L487.799929741,391.113528725 L486.809043544,394.565266423 L485.308527402,398.105139134 L481.334514668,402.576748652 L480.108435941,405.155614877 L475.893578572,404.653800129 L474.651292291,407.116402467 L473.403730396,414.757182374 L467.681286452,434.978439964 L463.42967232,440.992256014 L458.290080539,444.26336234 L454.062552267,444.305397775 L451.270041779,443.039159441 L448.686336804,441.295988791 L445.163437398,439.906970492 L427.445610552,439.905948885 L427.446122932,437.42674346 L434.217446182,435.13925876 L430.760722506,432.128371 L426.430983859,426.324574053 L423.066360071,423.708293282 L419.153849977,422.195019933 L409.919831302,421.183073151 L401.551045299,424.087239533 L396.582835999,426.998667225 L395.091460544,410.98181605 L395.208208956,409.891999951 L394.9194423,408.490477596 L394.365793454,406.993601104 L388.162732802,398.770996002 L387.749458507,397.992130374 L387.369440234,397.066239991 L386.998618411,395.119647639 L386.744265255,392.559000594 L386.663646693,380.872657825 L386.243058404,379.185509538 L385.475377749,376.970383503 L383.699131295,373.673037731 L381.889400398,370.972461287 L381.368663851,370.357791954 L380.079782435,368.323727994 L379.807924705,367.121083631 L379.710290025,365.477456431 L380.459828477,360.634118721 L381.381297603,357.503668169 L382.574952024,355.126028379 L381.315043606,349.164815093 L372.24999576,326.206074399 L415.168368843,320.815619424 L421.676242134,318.318013011 L440.882368884,307.542408834 L445.792459184,306.062895149 L446.709985129,305.88113598 L447.701918476,305.829108877 L453.835568182,306.494047497 L454.88557687,307.255022171 L455.844803692,308.46582186 L457.772301386,313.058610292 L458.855774756,314.528830406 L461.38626348,316.370483689 L462.750996252,317.849177296 L463.983968108,320.452434399 L464.663097971,323.159701767 L465.061204724,326.005483061 L465.756424164,327.43248074 L469.496658199,332.551689133 L472.889152209,335.84564114 L480.442064753,338.885829854 Z" fill="#cee3f5" id="JM.SC" stroke="#6e6e6e" stroke-width="0.4"><desc><labelrank>9</labelrank><code_hasc>JM.SC</code_hasc><name>Saint Catherine</name><admin>Jamaica</admin><type_en>Parish</type_en><region /><woe_id>2345918</woe_id><longitude>-77</longitude><woe_name>Saint Catherine</woe_name><fips>JM10</fips><woe_label>Saint Catherine, JM, Jamaica</woe_label><latitude>17</latitude><iso_a2>JM</iso_a2><postal>SC</postal><type>Parish</type><id>JM.SC</id></desc></path><path d="M535.234313785,299.156301607 L535.229910313,299.161156846 L534.28113254,300.243980009 L519.302468206,342.090294782 L501.510574701,333.677483609 L496.158862178,332.63613041 L494.323303226,333.027109667 L490.237969297,333.05667785 L488.286535838,333.395667041 L487.046476446,333.950285697 L486.617061326,334.746451206 L486.286938712,335.620387559 L485.510216718,336.511968231 L484.782864741,337.100742331 L480.442064753,338.885829854 L472.889152209,335.84564114 L469.496658199,332.551689133 L465.756424164,327.43248074 L465.061204724,326.005483061 L464.663097971,323.159701767 L463.983968108,320.452434399 L462.750996252,317.849177296 L461.38626348,316.370483689 L458.855774756,314.528830406 L457.772301386,313.058610292 L455.844803692,308.46582186 L454.88557687,307.255022171 L453.835568182,306.494047497 L447.701918476,305.829108877 L446.709985129,305.88113598 L445.792459184,306.062895149 L440.882368884,307.542408834 L434.749216785,301.391781366 L432.625313425,298.545578926 L432.236963144,297.663187875 L431.724779276,295.829229709 L431.278887702,292.983172922 L430.295917553,289.903462226 L428.941017944,287.775215672 L424.97563552,283.085797695 L424.306654872,281.848605725 L424.191240631,280.836466228 L424.878924178,273.32798178 L424.292675215,272.073501583 L423.42555774,270.853540225 L421.74900447,269.244049662 L421.088492103,268.058716501 L420.461445604,265.653652682 L420.263763344,263.914818117 L417.509409714,251.66454499 L417.248160247,250.156064726 L417.249608227,250.155822974 L423.115303932,249.163269528 L426.938609282,250.117837499 L433.61003053,253.252217299 L437.39476067,253.933641913 L456.305532763,253.127608387 L459.991876499,251.18172758 L465.194083723,250.543447538 L469.419693796,250.872954565 L473.319262287,251.525116132 L475.587913767,254.436180797 L474.602606784,257.987595954 L474.594879232,262.509431148 L478.166372012,265.745298744 L489.544931717,272.875463598 L499.608773589,278.70397474 L501.253184569,281.950264266 L504.234594285,290.734997915 L506.137925772,293.634546566 L509.198613429,295.497357071 L515.018496605,297.097737668 L531.576396514,298.354944707 L535.234313785,299.156301607 Z" fill="#cee3f5" id="JM.SM" stroke="#6e6e6e" stroke-width="0.4"><desc><labelrank>9</labelrank><code_hasc>JM.SM</code_hasc><name>Saint Mary</name><admin>Jamaica</admin><type_en>Parish</type_en><region /><woe_id>2345921</woe_id><longitude>-76</longitude><woe_name>Saint Mary</woe_name><fips>JM13</fips><woe_label>Saint Mary, JM, Jamaica</woe_label><latitude>18</latitude><iso_a2>JM</iso_a2><postal>SM</postal><type>Parish</type><id>JM.SM</id></desc></path><path d="M519.302468206,342.090294782 L521.305162166,348.878004919 L521.42213905,349.725564793 L524.296310932,358.120882035 L524.694463878,358.838278661 L525.672620699,360.134397369 L526.865103951,360.859274369 L528.942784077,361.48765116 L533.089363112,362.33764317 L536.307020185,361.752935044 L537.853191672,361.110287065 L538.496912668,360.123099793 L539.205670413,358.461081306 L539.684309928,357.733661712 L540.295661933,357.213618082 L544.44998292,357.837899872 L558.923879545,363.779231713 L555.983552081,366.492563837 L555.441557139,368.612911462 L555.033085282,371.329853145 L554.910444784,376.364472197 L555.344820451,378.431009111 L556.093397134,380.323923826 L556.9819244,381.809996827 L558.757455652,388.086443509 L559.322563066,389.192521066 L561.647051301,392.457530922 L562.685751382,394.349759032 L562.6881325,395.500215179 L562.184471644,396.150011216 L561.298981804,396.316181399 L558.111103271,396.045816652 L556.820166514,396.325177588 L555.579497587,396.915814916 L554.167912157,399.046468591 L553.848746928,400.984697305 L554.036901618,404.107007835 L553.882392993,405.569164483 L553.544948358,406.633768328 L551.528922743,408.947158334 L549.613437678,411.978246309 L549.61006061,411.983588113 L540.7470056,409.880101244 L538.345354429,408.549168432 L533.413053237,406.568320291 L526.763392301,406.973473685 L515.161468059,409.727378282 L510.206835342,410.332833361 L493.488355929,409.750937517 L493.48628561,407.462426048 L528.690851896,405.349586713 L527.229215511,403.952527253 L528.996812451,402.956196661 L528.700507404,398.605661342 L526.017327581,392.39021722 L522.844432074,390.725275744 L518.083137415,389.633185669 L509.82233246,390.05006118 L507.099708698,390.762518198 L503.914090995,392.072207507 L501.432316979,393.692400519 L500.87892802,394.921282819 L499.824886414,398.0485824 L497.708906796,396.797103451 L492.010946677,393.091149921 L487.799929741,391.113528725 L486.757865555,387.244221095 L484.570325001,384.227030651 L483.717919195,384.409319949 L482.071292054,385.137124441 L481.268529366,385.319343413 L480.382865006,385.319956153 L479.629444616,385.035013501 L479.04141995,384.516400065 L478.610545116,383.80737626 L478.013617741,382.285346679 L477.682208214,381.757903223 L477.400573831,381.403428211 L475.081864193,379.328828269 L475.039356212,377.434478886 L475.476236798,374.519127948 L477.375367392,367.75355026 L478.48236581,364.958840202 L479.465838706,363.193558177 L480.102619167,362.708719733 L480.706245417,362.154696002 L481.243608505,361.514210642 L481.6567916,360.787306309 L482.738913746,358.37313424 L482.787632584,357.101522907 L482.480330739,355.449559849 L480.359421652,351.065401504 L479.853374746,348.955095468 L479.695329853,347.657670339 L480.442064753,338.885829854 L484.782864741,337.100742331 L485.510216718,336.511968231 L486.286938712,335.620387559 L486.617061326,334.746451206 L487.046476446,333.950285697 L488.286535838,333.395667041 L490.237969297,333.05667785 L494.323303226,333.027109667 L496.158862178,332.63613041 L501.510574701,333.677483609 L519.302468206,342.090294782 Z" fill="#cee3f5" id="JM.SD" stroke="#6e6e6e" stroke-width="0.4"><desc><labelrank>9</labelrank><code_hasc>JM.SD</code_hasc><name>Saint Andrew</name><admin>Jamaica</admin><type_en>Parish</type_en><region /><woe_id>2345916</woe_id><longitude>-76</longitude><woe_name>Saint Andrew</woe_name><fips>JM08</fips><woe_label>Saint Andrew, JM, Jamaica</woe_label><latitude>18</latitude><iso_a2>JM</iso_a2><postal>SD</postal><type>Parish</type><id>JM.SD</id></desc></path><path d="M677.836175913,389.296938186 L677.83777765,389.300751261 L680.430905833,395.474810036 L685.183478892,403.465243869 L691.234364517,409.787895282 L700.0,416.275186824 L696.672955718,418.986858507 L680.125945169,423.224476611 L668.476736612,429.659235645 L661.792003585,431.618925701 L656.072858403,430.168826502 L658.297619516,428.553277356 L659.193465772,427.40571773 L660.430489211,423.300874715 L654.646872491,425.433500199 L649.534527949,433.080150972 L643.956855001,434.788714973 L638.981626386,433.38890129 L633.193792695,430.751710421 L627.305729119,429.25852955 L617.689530563,432.884327847 L592.491288149,435.133952728 L574.703523215,432.479833351 L572.120782248,432.594618017 L569.708396642,433.063091722 L567.085521642,432.728217324 L563.754134632,430.43313366 L562.299912586,427.412052351 L561.639764397,423.544741961 L560.667788853,420.222939617 L558.160770927,418.811291372 L555.576841127,418.026302745 L553.851660877,416.149791837 L552.360662974,413.918612087 L550.375114104,412.165090728 L549.61006061,411.983588113 L549.613437678,411.978246309 L551.528922743,408.947158334 L553.544948358,406.633768328 L553.882392993,405.569164483 L554.036901618,404.107007835 L553.848746928,400.984697305 L554.167912157,399.046468591 L555.579497587,396.915814916 L556.820166514,396.325177588 L558.111103271,396.045816652 L561.298981804,396.316181399 L562.184471644,396.150011216 L562.6881325,395.500215179 L562.685751382,394.349759032 L561.647051301,392.457530922 L559.322563066,389.192521066 L558.757455652,388.086443509 L556.9819244,381.809996827 L556.093397134,380.323923826 L555.344820451,378.431009111 L554.910444784,376.364472197 L555.033085282,371.329853145 L555.441557139,368.612911462 L555.983552081,366.492563837 L558.923879545,363.779231713 L564.939620626,367.867029978 L567.379497963,371.157545027 L567.968330434,371.753136683 L568.631597556,372.322610226 L570.761569534,373.762523187 L573.172342927,374.898974322 L588.35382497,379.646448392 L590.608314829,380.938283736 L591.825311538,381.064931481 L593.314727471,380.914046518 L595.911062191,379.947111056 L597.150403451,379.139376363 L598.578514769,377.751551669 L599.222663244,377.23081651 L599.974762637,376.848185888 L601.273680138,376.688964271 L605.792322557,376.650550603 L607.397261964,376.429787583 L608.546740624,376.11512576 L610.686826609,374.932583251 L612.306895691,374.244535092 L613.614632798,374.30127141 L615.20476895,374.70315155 L622.251683504,378.756134205 L632.73479126,380.349220815 L642.220988615,383.120284855 L643.936781613,383.832372616 L644.534368416,384.306072851 L645.074592614,384.944318471 L647.179294109,387.964553074 L648.076552229,388.895627334 L649.33024445,389.955182739 L653.671749422,391.020971327 L665.358062169,392.560708015 L668.725808053,392.158565232 L677.646887455,389.355459895 L677.836175913,389.296938186 Z" fill="#cee3f5" id="JM.ST" stroke="#6e6e6e" stroke-width="0.4"><desc><labelrank>9</labelrank><code_hasc>JM.ST</code_hasc><name>Saint Thomas</name><admin>Jamaica</admin><type_en>Parish</type_en><region /><woe_id>2345922</woe_id><longitude>-76</longitude><woe_name>Saint Thomas</woe_name><fips>JM14</fips><woe_label>Saint Thomas, JM, Jamaica</woe_label><latitude>17</latitude><iso_a2>JM</iso_a2><postal>ST</postal><type>Parish</type><id>JM.ST</id></desc></path></svg>