<?xml version='1.0' encoding='utf-8'?>
<svg height="700" width="700" xmlns="http://www.w3.org/2000/svg"><path d="M648.677884615,401.742788462 L648.677884615,388.28125 L659.615384615,371.454326923 L668.870192308,349.579326923 L695.793269231,351.262019231 L700.0,344.53125 L697.475961538,416.045673077 L658.774038462,416.045673077 L648.677884615,401.742788462 Z" fill="#cee3f5" id="US.OK.079" stroke="#6e6e6e" stroke-width="0.4"><desc><name>Le Flore County</name><stateAbbrev>OK</stateAbbrev><state>Oklahoma</state><fips>079</fips><incits>40079</incits><id>US.OK.079</id><population>49774</population></desc></path><path d="M79.9278846154,213.28125 L79.0865384615,253.665865385 L0.0,253.665865385 L0.0,212.439903846 L79.9278846154,213.28125 Z" fill="#cee3f5" id="US.OK.025" stroke="#6e6e6e" stroke-width="0.4"><desc><name>Cimarron County</name><stateAbbrev>OK</stateAbbrev><state>Oklahoma</state><fips>025</fips><incits>40025</incits><id>US.OK.025</id><population>2335</population></desc></path><path d="M668.870192308,323.497596154 L670.552884615,281.430288462 L689.0625,281.430288462 L696.634615385,323.497596154 L668.870192308,323.497596154 Z" fill="#cee3f5" id="US.OK.001" stroke="#6e6e6e" stroke-width="0.4"><desc><name>Adair County</name><stateAbbrev>OK</stateAbbrev><state>Oklahoma</state><fips>001</fips><incits>40001</incits><id>US.OK.001</id><population>22194</population></desc></path><path d="M652.884615385,252.824519231 L653.725961538,239.362980769 L684.855769231,239.362980769 L689.0625,281.430288462 L670.552884615,281.430288462 L652.884615385,280.588942308 L652.884615385,252.824519231 Z" fill="#cee3f5" id="US.OK.041" stroke="#6e6e6e" stroke-width="0.4"><desc><name>Delaware County</name><stateAbbrev>OK</stateAbbrev><state>Oklahoma</state><fips>041</fips><incits>40041</incits><id>US.OK.041</id><population>41377</population></desc></path><path d="M651.201923077,212.439903846 L684.855769231,212.439903846 L684.855769231,239.362980769 L653.725961538,239.362980769 L651.201923077,212.439903846 Z" fill="#cee3f5" id="US.OK.115" stroke="#6e6e6e" stroke-width="0.4"><desc><name>Ottawa County</name><stateAbbrev>OK</stateAbbrev><state>Oklahoma</state><fips>115</fips><incits>40115</incits><id>US.OK.115</id><population>32245</population></desc></path><path d="M364.302884615,212.439903846 L399.639423077,212.439903846 L399.639423077,246.09375 L399.639423077,256.189903846 L365.144230769,256.189903846 L364.302884615,212.439903846 Z" fill="#cee3f5" id="US.OK.003" stroke="#6e6e6e" stroke-width="0.4"><desc><name>Alfalfa County</name><stateAbbrev>OK</stateAbbrev><state>Oklahoma</state><fips>003</fips><incits>40003</incits><id>US.OK.003</id><population>5847</population></desc></path><path d="M168.269230769,212.439903846 L244.831730769,212.439903846 L244.831730769,246.09375 L244.831730769,253.665865385 L167.427884615,253.665865385 L168.269230769,212.439903846 Z" fill="#cee3f5" id="US.OK.007" stroke="#6e6e6e" stroke-width="0.4"><desc><name>Beaver County</name><stateAbbrev>OK</stateAbbrev><state>Oklahoma</state><fips>007</fips><incits>40007</incits><id>US.OK.007</id><population>5566</population></desc></path><path d="M620.072115385,212.439903846 L651.201923077,212.439903846 L653.725961538,239.362980769 L652.884615385,252.824519231 L626.802884615,252.824519231 L618.389423077,245.252403846 L620.072115385,212.439903846 Z" fill="#cee3f5" id="US.OK.035" stroke="#6e6e6e" stroke-width="0.4"><desc><name>Craig County</name><stateAbbrev>OK</stateAbbrev><state>Oklahoma</state><fips>035</fips><incits>40035</incits><id>US.OK.035</id><population>14672</population></desc></path><path d="M399.639423077,212.439903846 L452.644230769,212.439903846 L452.644230769,246.09375 L399.639423077,246.09375 L399.639423077,212.439903846 Z" fill="#cee3f5" id="US.OK.053" stroke="#6e6e6e" stroke-width="0.4"><desc><name>Grant County</name><stateAbbrev>OK</stateAbbrev><state>Oklahoma</state><fips>053</fips><incits>40053</incits><id>US.OK.053</id><population>4528</population></desc></path><path d="M244.831730769,246.09375 L244.831730769,212.439903846 L290.264423077,212.439903846 L302.884615385,228.425480769 L302.884615385,246.09375 L277.644230769,246.09375 L244.831730769,246.09375 Z" fill="#cee3f5" id="US.OK.059" stroke="#6e6e6e" stroke-width="0.4"><desc><name>Harper County</name><stateAbbrev>OK</stateAbbrev><state>Oklahoma</state><fips>059</fips><incits>40059</incits><id>US.OK.059</id><population>3813</population></desc></path><path d="M452.644230769,212.439903846 L510.697115385,212.439903846 L509.855769231,230.108173077 L485.456730769,246.09375 L452.644230769,246.09375 L452.644230769,212.439903846 Z" fill="#cee3f5" id="US.OK.071" stroke="#6e6e6e" stroke-width="0.4"><desc><name>Kay County</name><stateAbbrev>OK</stateAbbrev><state>Oklahoma</state><fips>071</fips><incits>40071</incits><id>US.OK.071</id><population>45633</population></desc></path><path d="M588.942307692,212.439903846 L620.072115385,212.439903846 L618.389423077,245.252403846 L587.259615385,245.252403846 L588.942307692,212.439903846 Z" fill="#cee3f5" id="US.OK.105" stroke="#6e6e6e" stroke-width="0.4"><desc><name>Nowata County</name><stateAbbrev>OK</stateAbbrev><state>Oklahoma</state><fips>105</fips><incits>40105</incits><id>US.OK.105</id><population>10555</population></desc></path><path d="M510.697115385,212.439903846 L572.115384615,212.439903846 L572.115384615,259.555288462 L572.115384615,281.430288462 L549.399038462,280.588942308 L519.951923077,259.555288462 L489.663461538,252.824519231 L485.456730769,246.09375 L509.855769231,230.108173077 L510.697115385,212.439903846 Z" fill="#cee3f5" id="US.OK.113" stroke="#6e6e6e" stroke-width="0.4"><desc><name>Osage County</name><stateAbbrev>OK</stateAbbrev><state>Oklahoma</state><fips>113</fips><incits>40113</incits><id>US.OK.113</id><population>47987</population></desc></path><path d="M79.0865384615,253.665865385 L79.9278846154,213.28125 L168.269230769,212.439903846 L167.427884615,253.665865385 L79.0865384615,253.665865385 Z" fill="#cee3f5" id="US.OK.139" stroke="#6e6e6e" stroke-width="0.4"><desc><name>Texas County</name><stateAbbrev>OK</stateAbbrev><state>Oklahoma</state><fips>139</fips><incits>40139</incits><id>US.OK.139</id><population>22081</population></desc></path><path d="M572.115384615,259.555288462 L572.115384615,212.439903846 L588.942307692,212.439903846 L587.259615385,245.252403846 L587.259615385,259.555288462 L572.115384615,259.555288462 Z" fill="#cee3f5" id="US.OK.147" stroke="#6e6e6e" stroke-width="0.4"><desc><name>Washington County</name><stateAbbrev>OK</stateAbbrev><state>Oklahoma</state><fips>147</fips><incits>40147</incits><id>US.OK.147</id><population>51577</population></desc></path><path d="M290.264423077,212.439903846 L364.302884615,212.439903846 L365.144230769,256.189903846 L354.206730769,261.237980769 L329.807692308,252.824519231 L313.822115385,230.108173077 L302.884615385,228.425480769 L290.264423077,212.439903846 Z" fill="#cee3f5" id="US.OK.151" stroke="#6e6e6e" stroke-width="0.4"><desc><name>Woods County</name><stateAbbrev>OK</stateAbbrev><state>Oklahoma</state><fips>151</fips><incits>40151</incits><id>US.OK.151</id><population>9041</population></desc></path><path d="M641.105769231,444.651442308 L649.519230769,437.920673077 L649.519230769,416.045673077 L658.774038462,416.045673077 L697.475961538,416.045673077 L695.793269231,487.560096154 L664.663461538,478.305288462 L641.105769231,462.319711538 L641.105769231,444.651442308 Z" fill="#cee3f5" id="US.OK.089" stroke="#6e6e6e" stroke-width="0.4"><desc><name>McCurtain County</name><stateAbbrev>OK</stateAbbrev><state>Oklahoma</state><fips>089</fips><incits>40089</incits><id>US.OK.089</id><population>33065</population></desc></path><path d="M642.788461538,323.497596154 L668.870192308,323.497596154 L696.634615385,323.497596154 L700.0,344.53125 L695.793269231,351.262019231 L668.870192308,349.579326923 L649.519230769,338.641826923 L642.788461538,323.497596154 Z" fill="#cee3f5" id="US.OK.135" stroke="#6e6e6e" stroke-width="0.4"><desc><name>Sequoyah County</name><stateAbbrev>OK</stateAbbrev><state>Oklahoma</state><fips>135</fips><incits>40135</incits><id>US.OK.135</id><population>41218</population></desc></path><path d="M538.461538462,444.651442308 L539.302884615,423.617788462 L559.495192308,423.617788462 L564.543269231,401.742788462 L581.370192308,401.742788462 L599.038461538,409.314903846 L589.783653846,416.045673077 L589.783653846,444.651442308 L572.115384615,444.651442308 L538.461538462,444.651442308 Z" fill="#cee3f5" id="US.OK.005" stroke="#6e6e6e" stroke-width="0.4"><desc><name>Atoka County</name><stateAbbrev>OK</stateAbbrev><state>Oklahoma</state><fips>005</fips><incits>40005</incits><id>US.OK.005</id><population>13898</population></desc></path><path d="M244.831730769,373.978365385 L244.831730769,341.165865385 L280.168269231,342.007211538 L296.995192308,334.435096154 L296.995192308,337.800480769 L297.836538462,366.40625 L293.629807692,366.40625 L262.5,366.40625 L254.086538462,373.978365385 L244.831730769,373.978365385 Z" fill="#cee3f5" id="US.OK.009" stroke="#6e6e6e" stroke-width="0.4"><desc><name>Beckham County</name><stateAbbrev>OK</stateAbbrev><state>Oklahoma</state><fips>009</fips><incits>40009</incits><id>US.OK.009</id><population>23637</population></desc></path><path d="M356.730769231,280.588942308 L391.225961538,280.588942308 L392.067307692,316.766826923 L382.8125,331.069711538 L357.572115385,331.069711538 L356.730769231,310.036057692 L356.730769231,280.588942308 Z" fill="#cee3f5" id="US.OK.011" stroke="#6e6e6e" stroke-width="0.4"><desc><name>Blaine County</name><stateAbbrev>OK</stateAbbrev><state>Oklahoma</state><fips>011</fips><incits>40011</incits><id>US.OK.011</id><population>9720</population></desc></path><path d="M524.158653846,448.016826923 L538.461538462,444.651442308 L572.115384615,444.651442308 L577.163461538,461.478365385 L591.466346154,468.209134615 L578.846153846,467.367788462 L547.716346154,476.622596154 L523.317307692,466.526442308 L524.158653846,448.016826923 Z" fill="#cee3f5" id="US.OK.013" stroke="#6e6e6e" stroke-width="0.4"><desc><name>Bryan County</name><stateAbbrev>OK</stateAbbrev><state>Oklahoma</state><fips>013</fips><incits>40013</incits><id>US.OK.013</id><population>44244</population></desc></path><path d="M357.572115385,337.800480769 L357.572115385,331.069711538 L382.8125,331.069711538 L383.653846154,345.372596154 L400.480769231,345.372596154 L401.322115385,387.439903846 L357.572115385,387.439903846 L358.413461538,368.088942308 L357.572115385,337.800480769 Z" fill="#cee3f5" id="US.OK.015" stroke="#6e6e6e" stroke-width="0.4"><desc><name>Caddo County</name><stateAbbrev>OK</stateAbbrev><state>Oklahoma</state><fips>015</fips><incits>40015</incits><id>US.OK.015</id><population>29594</population></desc></path><path d="M382.8125,331.069711538 L392.067307692,316.766826923 L434.975961538,316.766826923 L435.817307692,345.372596154 L434.975961538,348.737980769 L400.480769231,345.372596154 L383.653846154,345.372596154 L382.8125,331.069711538 Z" fill="#cee3f5" id="US.OK.017" stroke="#6e6e6e" stroke-width="0.4"><desc><name>Canadian County</name><stateAbbrev>OK</stateAbbrev><state>Oklahoma</state><fips>017</fips><incits>40017</incits><id>US.OK.017</id><population>126123</population></desc></path><path d="M444.230769231,416.045673077 L461.899038462,416.045673077 L461.057692308,426.983173077 L495.552884615,430.348557692 L495.552884615,442.96875 L492.1875,451.382211538 L444.230769231,451.382211538 L444.230769231,433.713942308 L444.230769231,416.045673077 Z" fill="#cee3f5" id="US.OK.019" stroke="#6e6e6e" stroke-width="0.4"><desc><name>Carter County</name><stateAbbrev>OK</stateAbbrev><state>Oklahoma</state><fips>019</fips><incits>40019</incits><id>US.OK.019</id><population>48491</population></desc></path><path d="M636.899038462,288.161057692 L652.884615385,280.588942308 L670.552884615,281.430288462 L668.870192308,323.497596154 L642.788461538,323.497596154 L631.850961538,309.194711538 L636.899038462,288.161057692 Z" fill="#cee3f5" id="US.OK.021" stroke="#6e6e6e" stroke-width="0.4"><desc><name>Cherokee County</name><stateAbbrev>OK</stateAbbrev><state>Oklahoma</state><fips>021</fips><incits>40021</incits><id>US.OK.021</id><population>48017</population></desc></path><path d="M572.115384615,444.651442308 L589.783653846,444.651442308 L641.105769231,444.651442308 L641.105769231,462.319711538 L624.278846154,468.209134615 L591.466346154,468.209134615 L577.163461538,461.478365385 L572.115384615,444.651442308 Z" fill="#cee3f5" id="US.OK.023" stroke="#6e6e6e" stroke-width="0.4"><desc><name>Choctaw County</name><stateAbbrev>OK</stateAbbrev><state>Oklahoma</state><fips>023</fips><incits>40023</incits><id>US.OK.023</id><population>15045</population></desc></path><path d="M434.975961538,348.737980769 L435.817307692,345.372596154 L478.725961538,345.372596154 L478.725961538,381.550480769 L461.899038462,378.185096154 L456.850961538,364.723557692 L434.975961538,348.737980769 Z" fill="#cee3f5" id="US.OK.027" stroke="#6e6e6e" stroke-width="0.4"><desc><name>Cleveland County</name><stateAbbrev>OK</stateAbbrev><state>Oklahoma</state><fips>027</fips><incits>40027</incits><id>US.OK.027</id><population>269340</population></desc></path><path d="M538.461538462,395.012019231 L564.543269231,395.012019231 L564.543269231,401.742788462 L559.495192308,423.617788462 L539.302884615,423.617788462 L530.048076923,416.045673077 L538.461538462,395.012019231 Z" fill="#cee3f5" id="US.OK.029" stroke="#6e6e6e" stroke-width="0.4"><desc><name>Coal County</name><stateAbbrev>OK</stateAbbrev><state>Oklahoma</state><fips>029</fips><incits>40029</incits><id>US.OK.029</id><population>5867</population></desc></path><path d="M357.572115385,387.439903846 L401.322115385,387.439903846 L401.322115385,401.742788462 L397.115384615,416.045673077 L354.206730769,424.459134615 L340.745192308,409.314903846 L340.745192308,387.439903846 L357.572115385,387.439903846 Z" fill="#cee3f5" id="US.OK.031" stroke="#6e6e6e" stroke-width="0.4"><desc><name>Comanche County</name><stateAbbrev>OK</stateAbbrev><state>Oklahoma</state><fips>031</fips><incits>40031</incits><id>US.OK.031</id><population>124937</population></desc></path><path d="M354.206730769,424.459134615 L397.115384615,416.045673077 L397.115384615,433.713942308 L397.115384615,446.334134615 L358.413461538,444.651442308 L354.206730769,424.459134615 Z" fill="#cee3f5" id="US.OK.033" stroke="#6e6e6e" stroke-width="0.4"><desc><name>Cotton County</name><stateAbbrev>OK</stateAbbrev><state>Oklahoma</state><fips>033</fips><incits>40033</incits><id>US.OK.033</id><population>6152</population></desc></path><path d="M520.793269231,281.430288462 L547.716346154,280.588942308 L569.591346154,288.161057692 L569.591346154,305.829326923 L556.129807692,305.829326923 L556.129807692,324.338942308 L520.793269231,323.497596154 L520.793269231,299.098557692 L520.793269231,281.430288462 Z" fill="#cee3f5" id="US.OK.037" stroke="#6e6e6e" stroke-width="0.4"><desc><name>Creek County</name><stateAbbrev>OK</stateAbbrev><state>Oklahoma</state><fips>037</fips><incits>40037</incits><id>US.OK.037</id><population>70470</population></desc></path><path d="M296.153846154,310.036057692 L356.730769231,310.036057692 L357.572115385,331.069711538 L357.572115385,337.800480769 L296.995192308,337.800480769 L296.995192308,334.435096154 L296.153846154,310.036057692 Z" fill="#cee3f5" id="US.OK.039" stroke="#6e6e6e" stroke-width="0.4"><desc><name>Custer County</name><stateAbbrev>OK</stateAbbrev><state>Oklahoma</state><fips>039</fips><incits>40039</incits><id>US.OK.039</id><population>29377</population></desc></path><path d="M295.3125,280.588942308 L330.649038462,281.430288462 L356.730769231,280.588942308 L356.730769231,310.036057692 L296.153846154,310.036057692 L296.153846154,293.209134615 L295.3125,280.588942308 Z" fill="#cee3f5" id="US.OK.043" stroke="#6e6e6e" stroke-width="0.4"><desc><name>Dewey County</name><stateAbbrev>OK</stateAbbrev><state>Oklahoma</state><fips>043</fips><incits>40043</incits><id>US.OK.043</id><population>4844</population></desc></path><path d="M244.831730769,246.09375 L277.644230769,246.09375 L278.485576923,280.588942308 L295.3125,280.588942308 L296.153846154,293.209134615 L271.754807692,306.670673077 L254.086538462,296.574519231 L244.831730769,304.146634615 L244.831730769,253.665865385 L244.831730769,246.09375 Z" fill="#cee3f5" id="US.OK.045" stroke="#6e6e6e" stroke-width="0.4"><desc><name>Ellis County</name><stateAbbrev>OK</stateAbbrev><state>Oklahoma</state><fips>045</fips><incits>40045</incits><id>US.OK.045</id><population>4170</population></desc></path><path d="M399.639423077,246.09375 L452.644230769,246.09375 L452.644230769,280.588942308 L434.975961538,280.588942308 L399.639423077,280.588942308 L399.639423077,256.189903846 L399.639423077,246.09375 Z" fill="#cee3f5" id="US.OK.047" stroke="#6e6e6e" stroke-width="0.4"><desc><name>Garfield County</name><stateAbbrev>OK</stateAbbrev><state>Oklahoma</state><fips>047</fips><incits>40047</incits><id>US.OK.047</id><population>62267</population></desc></path><path d="M435.817307692,387.439903846 L495.552884615,387.439903846 L495.552884615,405.949519231 L478.725961538,405.108173077 L461.899038462,416.045673077 L444.230769231,416.045673077 L435.817307692,401.742788462 L435.817307692,387.439903846 Z" fill="#cee3f5" id="US.OK.049" stroke="#6e6e6e" stroke-width="0.4"><desc><name>Garvin County</name><stateAbbrev>OK</stateAbbrev><state>Oklahoma</state><fips>049</fips><incits>40049</incits><id>US.OK.049</id><population>27334</population></desc></path><path d="M400.480769231,345.372596154 L434.975961538,348.737980769 L435.817307692,387.439903846 L435.817307692,401.742788462 L401.322115385,401.742788462 L401.322115385,387.439903846 L400.480769231,345.372596154 Z" fill="#cee3f5" id="US.OK.051" stroke="#6e6e6e" stroke-width="0.4"><desc><name>Grady County</name><stateAbbrev>OK</stateAbbrev><state>Oklahoma</state><fips>051</fips><incits>40051</incits><id>US.OK.051</id><population>53685</population></desc></path><path d="M254.086538462,373.978365385 L262.5,366.40625 L293.629807692,366.40625 L307.091346154,390.805288462 L290.264423077,398.377403846 L272.596153846,398.377403846 L267.548076923,380.709134615 L254.086538462,373.978365385 Z" fill="#cee3f5" id="US.OK.055" stroke="#6e6e6e" stroke-width="0.4"><desc><name>Greer County</name><stateAbbrev>OK</stateAbbrev><state>Oklahoma</state><fips>055</fips><incits>40055</incits><id>US.OK.055</id><population>6171</population></desc></path><path d="M244.831730769,373.978365385 L254.086538462,373.978365385 L267.548076923,380.709134615 L272.596153846,398.377403846 L272.596153846,416.045673077 L257.451923077,416.045673077 L245.673076923,411.838942308 L244.831730769,373.978365385 Z" fill="#cee3f5" id="US.OK.057" stroke="#6e6e6e" stroke-width="0.4"><desc><name>Harmon County</name><stateAbbrev>OK</stateAbbrev><state>Oklahoma</state><fips>057</fips><incits>40057</incits><id>US.OK.057</id><population>2869</population></desc></path><path d="M616.706730769,352.103365385 L625.120192308,352.103365385 L635.216346154,353.786057692 L649.519230769,338.641826923 L668.870192308,349.579326923 L659.615384615,371.454326923 L625.120192308,371.454326923 L616.706730769,352.103365385 Z" fill="#cee3f5" id="US.OK.061" stroke="#6e6e6e" stroke-width="0.4"><desc><name>Haskell County</name><stateAbbrev>OK</stateAbbrev><state>Oklahoma</state><fips>061</fips><incits>40061</incits><id>US.OK.061</id><population>13052</population></desc></path><path d="M531.730769231,383.233173077 L535.9375,352.103365385 L573.798076923,352.103365385 L572.956730769,363.882211538 L564.543269231,372.295673077 L564.543269231,395.012019231 L538.461538462,395.012019231 L531.730769231,383.233173077 Z" fill="#cee3f5" id="US.OK.063" stroke="#6e6e6e" stroke-width="0.4"><desc><name>Hughes County</name><stateAbbrev>OK</stateAbbrev><state>Oklahoma</state><fips>063</fips><incits>40063</incits><id>US.OK.063</id><population>13823</population></desc></path><path d="M257.451923077,416.045673077 L272.596153846,416.045673077 L272.596153846,398.377403846 L290.264423077,398.377403846 L307.091346154,390.805288462 L318.870192308,405.949519231 L309.615384615,430.348557692 L257.451923077,416.045673077 Z" fill="#cee3f5" id="US.OK.065" stroke="#6e6e6e" stroke-width="0.4"><desc><name>Jackson County</name><stateAbbrev>OK</stateAbbrev><state>Oklahoma</state><fips>065</fips><incits>40065</incits><id>US.OK.065</id><population>26088</population></desc></path><path d="M397.115384615,446.334134615 L397.115384615,433.713942308 L444.230769231,433.713942308 L444.230769231,451.382211538 L444.230769231,465.685096154 L437.5,458.112980769 L418.990384615,469.891826923 L397.115384615,446.334134615 Z" fill="#cee3f5" id="US.OK.067" stroke="#6e6e6e" stroke-width="0.4"><desc><name>Jefferson County</name><stateAbbrev>OK</stateAbbrev><state>Oklahoma</state><fips>067</fips><incits>40067</incits><id>US.OK.067</id><population>6432</population></desc></path><path d="M495.552884615,430.348557692 L503.966346154,416.045673077 L530.048076923,416.045673077 L539.302884615,423.617788462 L538.461538462,444.651442308 L524.158653846,448.016826923 L495.552884615,442.96875 L495.552884615,430.348557692 Z" fill="#cee3f5" id="US.OK.069" stroke="#6e6e6e" stroke-width="0.4"><desc><name>Johnston County</name><stateAbbrev>OK</stateAbbrev><state>Oklahoma</state><fips>069</fips><incits>40069</incits><id>US.OK.069</id><population>10990</population></desc></path><path d="M391.225961538,280.588942308 L399.639423077,280.588942308 L434.975961538,280.588942308 L434.975961538,316.766826923 L392.067307692,316.766826923 L391.225961538,280.588942308 Z" fill="#cee3f5" id="US.OK.073" stroke="#6e6e6e" stroke-width="0.4"><desc><name>Kingfisher County</name><stateAbbrev>OK</stateAbbrev><state>Oklahoma</state><fips>073</fips><incits>40073</incits><id>US.OK.073</id><population>15276</population></desc></path><path d="M293.629807692,366.40625 L297.836538462,366.40625 L358.413461538,368.088942308 L357.572115385,387.439903846 L340.745192308,387.439903846 L340.745192308,409.314903846 L318.870192308,405.949519231 L307.091346154,390.805288462 L293.629807692,366.40625 Z" fill="#cee3f5" id="US.OK.075" stroke="#6e6e6e" stroke-width="0.4"><desc><name>Kiowa County</name><stateAbbrev>OK</stateAbbrev><state>Oklahoma</state><fips>075</fips><incits>40075</incits><id>US.OK.075</id><population>9341</population></desc></path><path d="M611.658653846,401.742788462 L612.5,373.978365385 L625.120192308,371.454326923 L659.615384615,371.454326923 L648.677884615,388.28125 L648.677884615,401.742788462 L611.658653846,401.742788462 Z" fill="#cee3f5" id="US.OK.077" stroke="#6e6e6e" stroke-width="0.4"><desc><name>Latimer County</name><stateAbbrev>OK</stateAbbrev><state>Oklahoma</state><fips>077</fips><incits>40077</incits><id>US.OK.077</id><population>10775</population></desc></path><path d="M478.725961538,299.098557692 L520.793269231,299.098557692 L520.793269231,323.497596154 L520.793269231,338.641826923 L478.725961538,337.800480769 L478.725961538,316.766826923 L478.725961538,299.098557692 Z" fill="#cee3f5" id="US.OK.081" stroke="#6e6e6e" stroke-width="0.4"><desc><name>Lincoln County</name><stateAbbrev>OK</stateAbbrev><state>Oklahoma</state><fips>081</fips><incits>40081</incits><id>US.OK.081</id><population>34351</population></desc></path><path d="M434.975961538,280.588942308 L452.644230769,280.588942308 L461.057692308,281.430288462 L461.057692308,295.733173077 L478.725961538,299.098557692 L478.725961538,316.766826923 L434.975961538,316.766826923 L434.975961538,280.588942308 Z" fill="#cee3f5" id="US.OK.083" stroke="#6e6e6e" stroke-width="0.4"><desc><name>Logan County</name><stateAbbrev>OK</stateAbbrev><state>Oklahoma</state><fips>083</fips><incits>40083</incits><id>US.OK.083</id><population>44422</population></desc></path><path d="M444.230769231,465.685096154 L444.230769231,451.382211538 L492.1875,451.382211538 L495.552884615,461.478365385 L461.057692308,471.574519231 L444.230769231,465.685096154 Z" fill="#cee3f5" id="US.OK.085" stroke="#6e6e6e" stroke-width="0.4"><desc><name>Love County</name><stateAbbrev>OK</stateAbbrev><state>Oklahoma</state><fips>085</fips><incits>40085</incits><id>US.OK.085</id><population>9742</population></desc></path><path d="M329.807692308,252.824519231 L354.206730769,261.237980769 L365.144230769,256.189903846 L399.639423077,256.189903846 L399.639423077,280.588942308 L391.225961538,280.588942308 L356.730769231,280.588942308 L330.649038462,281.430288462 L329.807692308,252.824519231 Z" fill="#cee3f5" id="US.OK.093" stroke="#6e6e6e" stroke-width="0.4"><desc><name>Major County</name><stateAbbrev>OK</stateAbbrev><state>Oklahoma</state><fips>093</fips><incits>40093</incits><id>US.OK.093</id><population>7683</population></desc></path><path d="M492.1875,451.382211538 L495.552884615,442.96875 L524.158653846,448.016826923 L523.317307692,466.526442308 L514.0625,471.574519231 L495.552884615,461.478365385 L492.1875,451.382211538 Z" fill="#cee3f5" id="US.OK.095" stroke="#6e6e6e" stroke-width="0.4"><desc><name>Marshall County</name><stateAbbrev>OK</stateAbbrev><state>Oklahoma</state><fips>095</fips><incits>40095</incits><id>US.OK.095</id><population>15988</population></desc></path><path d="M617.548076923,288.161057692 L618.389423077,252.824519231 L626.802884615,252.824519231 L652.884615385,252.824519231 L652.884615385,280.588942308 L636.899038462,288.161057692 L617.548076923,288.161057692 Z" fill="#cee3f5" id="US.OK.097" stroke="#6e6e6e" stroke-width="0.4"><desc><name>Mayes County</name><stateAbbrev>OK</stateAbbrev><state>Oklahoma</state><fips>097</fips><incits>40097</incits><id>US.OK.097</id><population>40804</population></desc></path><path d="M434.975961538,348.737980769 L456.850961538,364.723557692 L461.899038462,378.185096154 L478.725961538,381.550480769 L495.552884615,379.026442308 L495.552884615,387.439903846 L435.817307692,387.439903846 L434.975961538,348.737980769 Z" fill="#cee3f5" id="US.OK.087" stroke="#6e6e6e" stroke-width="0.4"><desc><name>McClain County</name><stateAbbrev>OK</stateAbbrev><state>Oklahoma</state><fips>087</fips><incits>40087</incits><id>US.OK.087</id><population>36511</population></desc></path><path d="M572.956730769,363.882211538 L573.798076923,352.103365385 L573.798076923,345.372596154 L595.673076923,331.069711538 L625.120192308,331.069711538 L625.120192308,352.103365385 L616.706730769,352.103365385 L591.466346154,361.358173077 L572.956730769,363.882211538 Z" fill="#cee3f5" id="US.OK.091" stroke="#6e6e6e" stroke-width="0.4"><desc><name>McIntosh County</name><stateAbbrev>OK</stateAbbrev><state>Oklahoma</state><fips>091</fips><incits>40091</incits><id>US.OK.091</id><population>20493</population></desc></path><path d="M461.899038462,416.045673077 L478.725961538,405.108173077 L495.552884615,405.949519231 L503.966346154,416.045673077 L495.552884615,430.348557692 L461.057692308,426.983173077 L461.899038462,416.045673077 Z" fill="#cee3f5" id="US.OK.099" stroke="#6e6e6e" stroke-width="0.4"><desc><name>Murray County</name><stateAbbrev>OK</stateAbbrev><state>Oklahoma</state><fips>099</fips><incits>40099</incits><id>US.OK.099</id><population>13712</population></desc></path><path d="M591.466346154,305.829326923 L604.927884615,313.401442308 L631.850961538,309.194711538 L642.788461538,323.497596154 L649.519230769,338.641826923 L635.216346154,353.786057692 L625.120192308,352.103365385 L625.120192308,331.069711538 L595.673076923,331.069711538 L591.466346154,305.829326923 Z" fill="#cee3f5" id="US.OK.101" stroke="#6e6e6e" stroke-width="0.4"><desc><name>Muskogee County</name><stateAbbrev>OK</stateAbbrev><state>Oklahoma</state><fips>101</fips><incits>40101</incits><id>US.OK.101</id><population>70303</population></desc></path><path d="M452.644230769,280.588942308 L452.644230769,246.09375 L485.456730769,246.09375 L489.663461538,252.824519231 L496.394230769,273.858173077 L461.057692308,281.430288462 L452.644230769,280.588942308 Z" fill="#cee3f5" id="US.OK.103" stroke="#6e6e6e" stroke-width="0.4"><desc><name>Noble County</name><stateAbbrev>OK</stateAbbrev><state>Oklahoma</state><fips>103</fips><incits>40103</incits><id>US.OK.103</id><population>11446</population></desc></path><path d="M520.793269231,342.848557692 L520.793269231,338.641826923 L520.793269231,323.497596154 L556.129807692,324.338942308 L573.798076923,345.372596154 L573.798076923,352.103365385 L535.9375,352.103365385 L520.793269231,342.848557692 Z" fill="#cee3f5" id="US.OK.107" stroke="#6e6e6e" stroke-width="0.4"><desc><name>Okfuskee County</name><stateAbbrev>OK</stateAbbrev><state>Oklahoma</state><fips>107</fips><incits>40107</incits><id>US.OK.107</id><population>12377</population></desc></path><path d="M434.975961538,316.766826923 L478.725961538,316.766826923 L478.725961538,337.800480769 L478.725961538,345.372596154 L435.817307692,345.372596154 L434.975961538,316.766826923 Z" fill="#cee3f5" id="US.OK.109" stroke="#6e6e6e" stroke-width="0.4"><desc><name>Oklahoma County</name><stateAbbrev>OK</stateAbbrev><state>Oklahoma</state><fips>109</fips><incits>40109</incits><id>US.OK.109</id><population>755245</population></desc></path><path d="M556.129807692,324.338942308 L556.129807692,305.829326923 L569.591346154,305.829326923 L586.418269231,305.829326923 L591.466346154,305.829326923 L595.673076923,331.069711538 L573.798076923,345.372596154 L556.129807692,324.338942308 Z" fill="#cee3f5" id="US.OK.111" stroke="#6e6e6e" stroke-width="0.4"><desc><name>Okmulgee County</name><stateAbbrev>OK</stateAbbrev><state>Oklahoma</state><fips>111</fips><incits>40111</incits><id>US.OK.111</id><population>39438</population></desc></path><path d="M489.663461538,252.824519231 L519.951923077,259.555288462 L549.399038462,280.588942308 L547.716346154,280.588942308 L520.793269231,281.430288462 L496.394230769,273.858173077 L489.663461538,252.824519231 Z" fill="#cee3f5" id="US.OK.117" stroke="#6e6e6e" stroke-width="0.4"><desc><name>Pawnee County</name><stateAbbrev>OK</stateAbbrev><state>Oklahoma</state><fips>117</fips><incits>40117</incits><id>US.OK.117</id><population>16513</population></desc></path><path d="M461.057692308,281.430288462 L496.394230769,273.858173077 L520.793269231,281.430288462 L520.793269231,299.098557692 L478.725961538,299.098557692 L461.057692308,295.733173077 L461.057692308,281.430288462 Z" fill="#cee3f5" id="US.OK.119" stroke="#6e6e6e" stroke-width="0.4"><desc><name>Payne County</name><stateAbbrev>OK</stateAbbrev><state>Oklahoma</state><fips>119</fips><incits>40119</incits><id>US.OK.119</id><population>79066</population></desc></path><path d="M572.956730769,363.882211538 L591.466346154,361.358173077 L616.706730769,352.103365385 L625.120192308,371.454326923 L612.5,373.978365385 L611.658653846,401.742788462 L599.038461538,409.314903846 L581.370192308,401.742788462 L564.543269231,401.742788462 L564.543269231,395.012019231 L564.543269231,372.295673077 L572.956730769,363.882211538 Z" fill="#cee3f5" id="US.OK.121" stroke="#6e6e6e" stroke-width="0.4"><desc><name>Pittsburg County</name><stateAbbrev>OK</stateAbbrev><state>Oklahoma</state><fips>121</fips><incits>40121</incits><id>US.OK.121</id><population>44703</population></desc></path><path d="M495.552884615,387.439903846 L495.552884615,379.026442308 L508.173076923,384.074519231 L531.730769231,383.233173077 L538.461538462,395.012019231 L530.048076923,416.045673077 L503.966346154,416.045673077 L495.552884615,405.949519231 L495.552884615,387.439903846 Z" fill="#cee3f5" id="US.OK.123" stroke="#6e6e6e" stroke-width="0.4"><desc><name>Pontotoc County</name><stateAbbrev>OK</stateAbbrev><state>Oklahoma</state><fips>123</fips><incits>40123</incits><id>US.OK.123</id><population>37992</population></desc></path><path d="M478.725961538,345.372596154 L478.725961538,337.800480769 L520.793269231,338.641826923 L520.793269231,342.848557692 L508.173076923,342.848557692 L508.173076923,384.074519231 L495.552884615,379.026442308 L478.725961538,381.550480769 L478.725961538,345.372596154 Z" fill="#cee3f5" id="US.OK.125" stroke="#6e6e6e" stroke-width="0.4"><desc><name>Pottawatomie County</name><stateAbbrev>OK</stateAbbrev><state>Oklahoma</state><fips>125</fips><incits>40125</incits><id>US.OK.125</id><population>71158</population></desc></path><path d="M589.783653846,444.651442308 L589.783653846,416.045673077 L599.038461538,409.314903846 L611.658653846,401.742788462 L648.677884615,401.742788462 L658.774038462,416.045673077 L649.519230769,416.045673077 L649.519230769,437.920673077 L641.105769231,444.651442308 L589.783653846,444.651442308 Z" fill="#cee3f5" id="US.OK.127" stroke="#6e6e6e" stroke-width="0.4"><desc><name>Pushmataha County</name><stateAbbrev>OK</stateAbbrev><state>Oklahoma</state><fips>127</fips><incits>40127</incits><id>US.OK.127</id><population>11233</population></desc></path><path d="M244.831730769,304.146634615 L254.086538462,296.574519231 L271.754807692,306.670673077 L296.153846154,293.209134615 L296.153846154,310.036057692 L296.995192308,334.435096154 L280.168269231,342.007211538 L244.831730769,341.165865385 L244.831730769,304.146634615 Z" fill="#cee3f5" id="US.OK.129" stroke="#6e6e6e" stroke-width="0.4"><desc><name>Roger Mills County</name><stateAbbrev>OK</stateAbbrev><state>Oklahoma</state><fips>129</fips><incits>40129</incits><id>US.OK.129</id><population>3743</population></desc></path><path d="M587.259615385,259.555288462 L587.259615385,245.252403846 L618.389423077,245.252403846 L626.802884615,252.824519231 L618.389423077,252.824519231 L617.548076923,288.161057692 L590.625,280.588942308 L587.259615385,259.555288462 Z" fill="#cee3f5" id="US.OK.131" stroke="#6e6e6e" stroke-width="0.4"><desc><name>Rogers County</name><stateAbbrev>OK</stateAbbrev><state>Oklahoma</state><fips>131</fips><incits>40131</incits><id>US.OK.131</id><population>89044</population></desc></path><path d="M508.173076923,384.074519231 L508.173076923,342.848557692 L520.793269231,342.848557692 L535.9375,352.103365385 L531.730769231,383.233173077 L508.173076923,384.074519231 Z" fill="#cee3f5" id="US.OK.133" stroke="#6e6e6e" stroke-width="0.4"><desc><name>Seminole County</name><stateAbbrev>OK</stateAbbrev><state>Oklahoma</state><fips>133</fips><incits>40133</incits><id>US.OK.133</id><population>25426</population></desc></path><path d="M401.322115385,401.742788462 L435.817307692,401.742788462 L444.230769231,416.045673077 L444.230769231,433.713942308 L397.115384615,433.713942308 L397.115384615,416.045673077 L401.322115385,401.742788462 Z" fill="#cee3f5" id="US.OK.137" stroke="#6e6e6e" stroke-width="0.4"><desc><name>Stephens County</name><stateAbbrev>OK</stateAbbrev><state>Oklahoma</state><fips>137</fips><incits>40137</incits><id>US.OK.137</id><population>44919</population></desc></path><path d="M318.870192308,405.949519231 L340.745192308,409.314903846 L354.206730769,424.459134615 L358.413461538,444.651442308 L345.793269231,446.334134615 L309.615384615,430.348557692 L318.870192308,405.949519231 Z" fill="#cee3f5" id="US.OK.141" stroke="#6e6e6e" stroke-width="0.4"><desc><name>Tillman County</name><stateAbbrev>OK</stateAbbrev><state>Oklahoma</state><fips>141</fips><incits>40141</incits><id>US.OK.141</id><population>7711</population></desc></path><path d="M547.716346154,280.588942308 L549.399038462,280.588942308 L572.115384615,281.430288462 L572.115384615,259.555288462 L587.259615385,259.555288462 L590.625,280.588942308 L586.418269231,305.829326923 L569.591346154,305.829326923 L569.591346154,288.161057692 L547.716346154,280.588942308 Z" fill="#cee3f5" id="US.OK.143" stroke="#6e6e6e" stroke-width="0.4"><desc><name>Tulsa County</name><stateAbbrev>OK</stateAbbrev><state>Oklahoma</state><fips>143</fips><incits>40143</incits><id>US.OK.143</id><population>622409</population></desc></path><path d="M590.625,280.588942308 L617.548076923,288.161057692 L636.899038462,288.161057692 L631.850961538,309.194711538 L604.927884615,313.401442308 L591.466346154,305.829326923 L586.418269231,305.829326923 L590.625,280.588942308 Z" fill="#cee3f5" id="US.OK.145" stroke="#6e6e6e" stroke-width="0.4"><desc><name>Wagoner County</name><stateAbbrev>OK</stateAbbrev><state>Oklahoma</state><fips>145</fips><incits>40145</incits><id>US.OK.145</id><population>75700</population></desc></path><path d="M296.995192308,337.800480769 L357.572115385,337.800480769 L358.413461538,368.088942308 L297.836538462,366.40625 L296.995192308,337.800480769 Z" fill="#cee3f5" id="US.OK.149" stroke="#6e6e6e" stroke-width="0.4"><desc><name>Washita County</name><stateAbbrev>OK</stateAbbrev><state>Oklahoma</state><fips>149</fips><incits>40149</incits><id>US.OK.149</id><population>11678</population></desc></path><path d="M277.644230769,246.09375 L302.884615385,246.09375 L302.884615385,228.425480769 L313.822115385,230.108173077 L329.807692308,252.824519231 L330.649038462,281.430288462 L295.3125,280.588942308 L278.485576923,280.588942308 L277.644230769,246.09375 Z" fill="#cee3f5" id="US.OK.153" stroke="#6e6e6e" stroke-width="0.4"><desc><name>Woodward County</name><stateAbbrev>OK</stateAbbrev><state>Oklahoma</state><fips>153</fips><incits>40153</incits><id>US.OK.153</id><population>21221</population></desc></path></svg>