<?xml version='1.0' encoding='utf-8'?>
<svg height="700" width="700" xmlns="http://www.w3.org/2000/svg"><path d="M36.6538952746,428.224776501 L90.2937420179,428.224776501 L91.1877394636,428.224776501 L91.1877394636,444.316730524 L102.809706258,444.316730524 L102.809706258,460.408684547 L103.703703704,465.772669221 L87.6117496807,461.302681992 L86.717752235,459.514687101 L75.9897828863,458.620689655 L71.5197956577,457.726692209 L71.5197956577,455.044699872 L68.8378033206,449.680715198 L56.3218390805,444.316730524 L50.9578544061,444.316730524 L46.4878671775,439.846743295 L42.9118773946,434.482758621 L36.6538952746,428.224776501 Z" fill="#cee3f5" id="US.MN.011" stroke="#6e6e6e" stroke-width="0.4"><desc><name>Big Stone County</name><stateAbbrev>MN</stateAbbrev><state>Minnesota</state><fips>011</fips><incits>27011</incits><id>US.MN.011</id><population>5122</population></desc></path><path d="M71.5197956577,556.066411239 L71.5197956577,515.836526181 L105.491698595,515.836526181 L106.385696041,523.882503193 L106.385696041,556.066411239 L71.5197956577,556.066411239 Z" fill="#cee3f5" id="US.MN.081" stroke="#6e6e6e" stroke-width="0.4"><desc><name>Lincoln County</name><stateAbbrev>MN</stateAbbrev><state>Minnesota</state><fips>081</fips><incits>27081</incits><id>US.MN.081</id><population>5830</population></desc></path><path d="M71.5197956577,556.066411239 L106.385696041,556.066411239 L107.279693487,556.066411239 L107.279693487,588.250319285 L71.5197956577,588.250319285 L71.5197956577,556.066411239 Z" fill="#cee3f5" id="US.MN.117" stroke="#6e6e6e" stroke-width="0.4"><desc><name>Pipestone County</name><stateAbbrev>MN</stateAbbrev><state>Minnesota</state><fips>117</fips><incits>27117</incits><id>US.MN.117</id><population>9270</population></desc></path><path d="M71.5197956577,588.250319285 L107.279693487,588.250319285 L109.067688378,588.250319285 L108.173690932,620.434227331 L71.5197956577,620.434227331 L71.5197956577,588.250319285 Z" fill="#cee3f5" id="US.MN.133" stroke="#6e6e6e" stroke-width="0.4"><desc><name>Rock County</name><stateAbbrev>MN</stateAbbrev><state>Minnesota</state><fips>133</fips><incits>27133</incits><id>US.MN.133</id><population>9520</population></desc></path><path d="M60.7918263091,387.994891443 L89.3997445722,387.994891443 L90.2937420179,396.040868455 L90.2937420179,412.132822478 L90.2937420179,428.224776501 L36.6538952746,428.224776501 L34.8659003831,426.436781609 L35.7598978289,422.860791826 L44.6998722861,418.390804598 L51.8518518519,414.814814815 L59.8978288633,406.768837803 L61.6858237548,396.040868455 L60.7918263091,387.994891443 Z" fill="#cee3f5" id="US.MN.155" stroke="#6e6e6e" stroke-width="0.4"><desc><name>Traverse County</name><stateAbbrev>MN</stateAbbrev><state>Minnesota</state><fips>155</fips><incits>27155</incits><id>US.MN.155</id><population>3445</population></desc></path><path d="M71.5197956577,499.744572158 L127.841634738,499.744572158 L127.841634738,492.592592593 L137.675606641,492.592592593 L137.675606641,488.122605364 L139.463601533,490.804597701 L143.933588761,491.698595147 L149.297573436,496.168582375 L152.873563218,497.062579821 L160.025542784,501.53256705 L161.813537676,505.108556833 L168.071519796,506.896551724 L172.541507024,509.578544061 L172.541507024,523.882503193 L151.085568327,523.882503193 L150.191570881,515.836526181 L105.491698595,515.836526181 L71.5197956577,515.836526181 L71.5197956577,499.744572158 Z" fill="#cee3f5" id="US.MN.173" stroke="#6e6e6e" stroke-width="0.4"><desc><name>Yellow Medicine County</name><stateAbbrev>MN</stateAbbrev><state>Minnesota</state><fips>173</fips><incits>27173</incits><id>US.MN.173</id><population>10143</population></desc></path><path d="M35.7598978289,284.291187739 L95.6577266922,284.291187739 L95.6577266922,300.383141762 L97.4457215837,300.383141762 L97.4457215837,324.521072797 L97.4457215837,332.567049808 L87.6117496807,332.567049808 L41.1238825032,332.567049808 L41.1238825032,320.945083014 L39.3358876117,315.58109834 L42.0178799489,312.005108557 L40.2298850575,302.171136654 L36.6538952746,297.701149425 L38.441890166,294.125159642 L38.441890166,287.867177522 L35.7598978289,284.291187739 Z" fill="#cee3f5" id="US.MN.027" stroke="#6e6e6e" stroke-width="0.4"><desc><name>Clay County</name><stateAbbrev>MN</stateAbbrev><state>Minnesota</state><fips>027</fips><incits>27027</incits><id>US.MN.027</id><population>60661</population></desc></path><path d="M75.9897828863,114.431673052 L75.9897828863,140.357598978 L77.7777777778,140.357598978 L77.7777777778,156.449553001 L36.6538952746,156.449553001 L6.25798212005,156.449553001 L8.93997445722,150.191570881 L12.5159642401,145.721583653 L11.6219667944,141.251596424 L7.15197956577,137.675606641 L5.36398467433,131.417624521 L5.36398467433,126.053639847 L0.0,118.901660281 L0.893997445722,114.431673052 L75.9897828863,114.431673052 Z" fill="#cee3f5" id="US.MN.069" stroke="#6e6e6e" stroke-width="0.4"><desc><name>Kittson County</name><stateAbbrev>MN</stateAbbrev><state>Minnesota</state><fips>069</fips><incits>27069</incits><id>US.MN.069</id><population>4503</population></desc></path><path d="M6.25798212005,156.449553001 L36.6538952746,156.449553001 L77.7777777778,156.449553001 L150.191570881,156.449553001 L151.085568327,172.541507024 L151.085568327,190.421455939 L67.0498084291,190.421455939 L8.04597701149,190.421455939 L8.93997445722,185.057471264 L10.7279693487,180.587484036 L9.83397190294,175.223499361 L7.15197956577,169.859514687 L9.83397190294,168.965517241 L9.83397190294,164.495530013 L7.15197956577,162.707535121 L8.93997445722,157.343550447 L6.25798212005,156.449553001 Z" fill="#cee3f5" id="US.MN.089" stroke="#6e6e6e" stroke-width="0.4"><desc><name>Marshall County</name><stateAbbrev>MN</stateAbbrev><state>Minnesota</state><fips>089</fips><incits>27089</incits><id>US.MN.089</id><population>9425</population></desc></path><path d="M34.8659003831,252.107279693 L107.279693487,252.107279693 L107.279693487,284.291187739 L95.6577266922,284.291187739 L35.7598978289,284.291187739 L37.5478927203,284.291187739 L35.7598978289,271.775223499 L36.6538952746,267.305236271 L33.9719029374,260.153256705 L34.8659003831,252.107279693 Z" fill="#cee3f5" id="US.MN.107" stroke="#6e6e6e" stroke-width="0.4"><desc><name>Norman County</name><stateAbbrev>MN</stateAbbrev><state>Minnesota</state><fips>107</fips><incits>27107</incits><id>US.MN.107</id><population>6631</population></desc></path><path d="M67.0498084291,190.421455939 L151.085568327,190.421455939 L151.979565773,204.72541507 L151.979565773,212.771392082 L139.463601533,212.771392082 L139.463601533,209.195402299 L68.8378033206,210.089399745 L67.0498084291,204.72541507 L67.0498084291,190.421455939 Z" fill="#cee3f5" id="US.MN.113" stroke="#6e6e6e" stroke-width="0.4"><desc><name>Pennington County</name><stateAbbrev>MN</stateAbbrev><state>Minnesota</state><fips>113</fips><incits>27113</incits><id>US.MN.113</id><population>14118</population></desc></path><path d="M8.04597701149,190.421455939 L67.0498084291,190.421455939 L67.0498084291,204.72541507 L68.8378033206,210.089399745 L68.8378033206,220.817369093 L81.3537675607,220.817369093 L81.3537675607,227.969348659 L127.841634738,228.863346105 L127.841634738,220.817369093 L140.357598978,219.923371648 L139.463601533,212.771392082 L151.979565773,212.771392082 L151.979565773,236.909323116 L154.66155811,236.909323116 L154.66155811,252.107279693 L107.279693487,252.107279693 L34.8659003831,252.107279693 L35.7598978289,244.061302682 L33.0779054917,241.379310345 L32.183908046,236.909323116 L27.7139208174,230.651340996 L27.7139208174,227.969348659 L24.1379310345,224.393358876 L16.9859514687,211.877394636 L14.3039591315,202.043422733 L8.04597701149,193.103448276 L8.04597701149,190.421455939 Z" fill="#cee3f5" id="US.MN.119" stroke="#6e6e6e" stroke-width="0.4"><desc><name>Polk County</name><stateAbbrev>MN</stateAbbrev><state>Minnesota</state><fips>119</fips><incits>27119</incits><id>US.MN.119</id><population>31569</population></desc></path><path d="M68.8378033206,210.089399745 L139.463601533,209.195402299 L139.463601533,212.771392082 L140.357598978,219.923371648 L127.841634738,220.817369093 L127.841634738,228.863346105 L81.3537675607,227.969348659 L81.3537675607,220.817369093 L68.8378033206,220.817369093 L68.8378033206,210.089399745 Z" fill="#cee3f5" id="US.MN.125" stroke="#6e6e6e" stroke-width="0.4"><desc><name>Red Lake County</name><stateAbbrev>MN</stateAbbrev><state>Minnesota</state><fips>125</fips><incits>27125</incits><id>US.MN.125</id><population>4057</population></desc></path><path d="M41.1238825032,332.567049808 L87.6117496807,332.567049808 L87.6117496807,363.856960409 L89.3997445722,363.856960409 L88.5057471264,379.948914432 L89.3997445722,387.994891443 L60.7918263091,387.994891443 L62.5798212005,384.41890166 L61.6858237548,379.948914432 L59.0038314176,373.690932312 L58.1098339719,360.280970626 L51.8518518519,355.810983397 L47.3818646232,349.553001277 L44.6998722861,336.143039591 L41.1238825032,332.567049808 Z" fill="#cee3f5" id="US.MN.167" stroke="#6e6e6e" stroke-width="0.4"><desc><name>Wilkin County</name><stateAbbrev>MN</stateAbbrev><state>Minnesota</state><fips>167</fips><incits>27167</incits><id>US.MN.167</id><population>6557</population></desc></path><path d="M108.173690932,620.434227331 L109.067688378,588.250319285 L162.707535121,588.250319285 L163.601532567,588.250319285 L163.601532567,620.434227331 L108.173690932,620.434227331 Z" fill="#cee3f5" id="US.MN.105" stroke="#6e6e6e" stroke-width="0.4"><desc><name>Nobles County</name><stateAbbrev>MN</stateAbbrev><state>Minnesota</state><fips>105</fips><incits>27105</incits><id>US.MN.105</id><population>21617</population></desc></path><path d="M439.846743295,620.434227331 L439.846743295,589.144316731 L439.846743295,588.250319285 L473.818646232,588.250319285 L506.002554278,588.250319285 L506.002554278,620.434227331 L439.846743295,620.434227331 Z" fill="#cee3f5" id="US.MN.045" stroke="#6e6e6e" stroke-width="0.4"><desc><name>Fillmore County</name><stateAbbrev>MN</stateAbbrev><state>Minnesota</state><fips>045</fips><incits>27045</incits><id>US.MN.045</id><population>20835</population></desc></path><path d="M506.002554278,620.434227331 L506.002554278,588.250319285 L546.232439336,588.250319285 L550.702426564,594.508301405 L548.020434227,600.766283525 L548.020434227,609.706257982 L551.59642401,612.388250319 L550.702426564,615.964240102 L553.384418902,620.434227331 L506.002554278,620.434227331 Z" fill="#cee3f5" id="US.MN.055" stroke="#6e6e6e" stroke-width="0.4"><desc><name>Houston County</name><stateAbbrev>MN</stateAbbrev><state>Minnesota</state><fips>055</fips><incits>27055</incits><id>US.MN.055</id><population>18799</population></desc></path><path d="M274.457215837,620.434227331 L274.457215837,588.250319285 L318.263090677,588.250319285 L329.885057471,588.250319285 L329.885057471,620.434227331 L274.457215837,620.434227331 Z" fill="#cee3f5" id="US.MN.043" stroke="#6e6e6e" stroke-width="0.4"><desc><name>Faribault County</name><stateAbbrev>MN</stateAbbrev><state>Minnesota</state><fips>043</fips><incits>27043</incits><id>US.MN.043</id><population>14191</population></desc></path><path d="M329.885057471,620.434227331 L329.885057471,588.250319285 L352.234993614,588.250319285 L384.41890166,588.250319285 L384.41890166,620.434227331 L329.885057471,620.434227331 Z" fill="#cee3f5" id="US.MN.047" stroke="#6e6e6e" stroke-width="0.4"><desc><name>Freeborn County</name><stateAbbrev>MN</stateAbbrev><state>Minnesota</state><fips>047</fips><incits>27047</incits><id>US.MN.047</id><population>30948</population></desc></path><path d="M163.601532567,620.434227331 L163.601532567,588.250319285 L218.135376756,588.250319285 L219.029374202,588.250319285 L218.135376756,620.434227331 L163.601532567,620.434227331 Z" fill="#cee3f5" id="US.MN.063" stroke="#6e6e6e" stroke-width="0.4"><desc><name>Jackson County</name><stateAbbrev>MN</stateAbbrev><state>Minnesota</state><fips>063</fips><incits>27063</incits><id>US.MN.063</id><population>10260</population></desc></path><path d="M218.135376756,620.434227331 L219.029374202,588.250319285 L262.835249042,588.250319285 L274.457215837,588.250319285 L274.457215837,620.434227331 L218.135376756,620.434227331 Z" fill="#cee3f5" id="US.MN.091" stroke="#6e6e6e" stroke-width="0.4"><desc><name>Martin County</name><stateAbbrev>MN</stateAbbrev><state>Minnesota</state><fips>091</fips><incits>27091</incits><id>US.MN.091</id><population>20422</population></desc></path><path d="M384.41890166,588.250319285 L385.312899106,588.250319285 L417.496807152,588.250319285 L417.496807152,589.144316731 L439.846743295,589.144316731 L439.846743295,620.434227331 L384.41890166,620.434227331 L384.41890166,588.250319285 Z" fill="#cee3f5" id="US.MN.099" stroke="#6e6e6e" stroke-width="0.4"><desc><name>Mower County</name><stateAbbrev>MN</stateAbbrev><state>Minnesota</state><fips>099</fips><incits>27099</incits><id>US.MN.099</id><population>39327</population></desc></path><path d="M134.993614304,380.842911877 L192.20945083,380.842911877 L192.20945083,396.9348659 L192.20945083,411.238825032 L192.20945083,412.132822478 L135.88761175,412.132822478 L135.88761175,396.040868455 L134.993614304,380.842911877 Z" fill="#cee3f5" id="US.MN.041" stroke="#6e6e6e" stroke-width="0.4"><desc><name>Douglas County</name><stateAbbrev>MN</stateAbbrev><state>Minnesota</state><fips>041</fips><incits>27041</incits><id>US.MN.041</id><population>36545</population></desc></path><path d="M88.5057471264,379.948914432 L134.993614304,380.842911877 L135.88761175,396.040868455 L135.88761175,412.132822478 L90.2937420179,412.132822478 L90.2937420179,396.040868455 L89.3997445722,387.994891443 L88.5057471264,379.948914432 Z" fill="#cee3f5" id="US.MN.051" stroke="#6e6e6e" stroke-width="0.4"><desc><name>Grant County</name><stateAbbrev>MN</stateAbbrev><state>Minnesota</state><fips>051</fips><incits>27051</incits><id>US.MN.051</id><population>5989</population></desc></path><path d="M182.375478927,444.316730524 L193.103448276,444.316730524 L227.075351213,444.316730524 L227.075351213,452.362707535 L227.969348659,460.408684547 L227.969348659,491.698595147 L182.375478927,492.592592593 L182.375478927,468.454661558 L182.375478927,460.408684547 L182.375478927,444.316730524 Z" fill="#cee3f5" id="US.MN.067" stroke="#6e6e6e" stroke-width="0.4"><desc><name>Kandiyohi County</name><stateAbbrev>MN</stateAbbrev><state>Minnesota</state><fips>067</fips><incits>27067</incits><id>US.MN.067</id><population>42410</population></desc></path><path d="M192.20945083,411.238825032 L237.803320562,411.238825032 L271.775223499,411.238825032 L273.563218391,413.920817369 L277.139208174,415.708812261 L278.927203065,421.072796935 L278.927203065,425.542784163 L283.397190294,430.906768838 L284.291187739,436.270753512 L288.761174968,440.740740741 L293.231162197,443.422733078 L286.973180077,452.362707535 L282.503192848,454.150702427 L279.821200511,453.256704981 L273.563218391,454.150702427 L273.563218391,455.938697318 L261.941251596,455.938697318 L261.941251596,452.362707535 L227.075351213,452.362707535 L227.075351213,444.316730524 L193.103448276,444.316730524 L193.103448276,428.224776501 L192.20945083,412.132822478 L192.20945083,411.238825032 Z" fill="#cee3f5" id="US.MN.145" stroke="#6e6e6e" stroke-width="0.4"><desc><name>Stearns County</name><stateAbbrev>MN</stateAbbrev><state>Minnesota</state><fips>145</fips><incits>27145</incits><id>US.MN.145</id><population>152092</population></desc></path><path d="M237.803320562,358.492975734 L246.743295019,362.068965517 L257.471264368,360.280970626 L265.517241379,364.750957854 L261.047254151,371.008939974 L262.835249042,376.372924649 L314.687100894,376.372924649 L314.687100894,392.464878672 L319.157088123,392.464878672 L319.157088123,406.768837803 L298.595146871,406.768837803 L264.623243934,406.768837803 L271.775223499,411.238825032 L237.803320562,411.238825032 L237.803320562,396.9348659 L237.803320562,363.856960409 L237.803320562,358.492975734 Z" fill="#cee3f5" id="US.MN.097" stroke="#6e6e6e" stroke-width="0.4"><desc><name>Morrison County</name><stateAbbrev>MN</stateAbbrev><state>Minnesota</state><fips>097</fips><incits>27097</incits><id>US.MN.097</id><population>32872</population></desc></path><path d="M87.6117496807,332.567049808 L97.4457215837,332.567049808 L97.4457215837,324.521072797 L112.643678161,324.521072797 L190.421455939,324.521072797 L191.315453384,332.567049808 L191.315453384,355.810983397 L192.20945083,364.750957854 L192.20945083,380.842911877 L134.993614304,380.842911877 L88.5057471264,379.948914432 L89.3997445722,363.856960409 L87.6117496807,363.856960409 L87.6117496807,332.567049808 Z" fill="#cee3f5" id="US.MN.111" stroke="#6e6e6e" stroke-width="0.4"><desc><name>Otter Tail County</name><stateAbbrev>MN</stateAbbrev><state>Minnesota</state><fips>111</fips><incits>27111</incits><id>US.MN.111</id><population>57581</population></desc></path><path d="M135.88761175,412.132822478 L192.20945083,412.132822478 L193.103448276,428.224776501 L193.103448276,444.316730524 L182.375478927,444.316730524 L136.781609195,444.316730524 L135.88761175,428.224776501 L135.88761175,412.132822478 Z" fill="#cee3f5" id="US.MN.121" stroke="#6e6e6e" stroke-width="0.4"><desc><name>Pope County</name><stateAbbrev>MN</stateAbbrev><state>Minnesota</state><fips>121</fips><incits>27121</incits><id>US.MN.121</id><population>10932</population></desc></path><path d="M283.397190294,430.906768838 L319.157088123,430.906768838 L342.401021711,430.906768838 L342.401021711,444.316730524 L342.401021711,459.514687101 L341.507024266,459.514687101 L337.037037037,455.044699872 L319.157088123,455.044699872 L310.217113665,451.468710089 L303.959131545,446.998722861 L301.277139208,447.892720307 L293.231162197,443.422733078 L288.761174968,440.740740741 L284.291187739,436.270753512 L283.397190294,430.906768838 Z" fill="#cee3f5" id="US.MN.141" stroke="#6e6e6e" stroke-width="0.4"><desc><name>Sherburne County</name><stateAbbrev>MN</stateAbbrev><state>Minnesota</state><fips>141</fips><incits>27141</incits><id>US.MN.141</id><population>90158</population></desc></path><path d="M90.2937420179,412.132822478 L135.88761175,412.132822478 L135.88761175,428.224776501 L136.781609195,444.316730524 L102.809706258,444.316730524 L91.1877394636,444.316730524 L91.1877394636,428.224776501 L90.2937420179,428.224776501 L90.2937420179,412.132822478 Z" fill="#cee3f5" id="US.MN.149" stroke="#6e6e6e" stroke-width="0.4"><desc><name>Stevens County</name><stateAbbrev>MN</stateAbbrev><state>Minnesota</state><fips>149</fips><incits>27149</incits><id>US.MN.149</id><population>9735</population></desc></path><path d="M102.809706258,444.316730524 L136.781609195,444.316730524 L182.375478927,444.316730524 L182.375478927,460.408684547 L182.375478927,468.454661558 L109.961685824,468.454661558 L103.703703704,465.772669221 L102.809706258,460.408684547 L102.809706258,444.316730524 Z" fill="#cee3f5" id="US.MN.151" stroke="#6e6e6e" stroke-width="0.4"><desc><name>Swift County</name><stateAbbrev>MN</stateAbbrev><state>Minnesota</state><fips>151</fips><incits>27151</incits><id>US.MN.151</id><population>9546</population></desc></path><path d="M191.315453384,355.810983397 L229.75734355,356.704980843 L237.803320562,358.492975734 L237.803320562,363.856960409 L237.803320562,396.9348659 L237.803320562,411.238825032 L192.20945083,411.238825032 L192.20945083,396.9348659 L192.20945083,380.842911877 L192.20945083,364.750957854 L191.315453384,355.810983397 Z" fill="#cee3f5" id="US.MN.153" stroke="#6e6e6e" stroke-width="0.4"><desc><name>Todd County</name><stateAbbrev>MN</stateAbbrev><state>Minnesota</state><fips>153</fips><incits>27153</incits><id>US.MN.153</id><population>24382</population></desc></path><path d="M319.157088123,406.768837803 L319.157088123,430.906768838 L283.397190294,430.906768838 L278.927203065,425.542784163 L278.927203065,421.072796935 L277.139208174,415.708812261 L273.563218391,413.920817369 L271.775223499,411.238825032 L264.623243934,406.768837803 L298.595146871,406.768837803 L319.157088123,406.768837803 Z" fill="#cee3f5" id="US.MN.009" stroke="#6e6e6e" stroke-width="0.4"><desc><name>Benton County</name><stateAbbrev>MN</stateAbbrev><state>Minnesota</state><fips>009</fips><incits>27009</incits><id>US.MN.009</id><population>39214</population></desc></path><path d="M314.687100894,376.372924649 L314.687100894,368.326947637 L349.553001277,368.326947637 L349.553001277,376.372924649 L349.553001277,392.464878672 L341.507024266,392.464878672 L342.401021711,414.814814815 L342.401021711,430.906768838 L319.157088123,430.906768838 L319.157088123,406.768837803 L319.157088123,392.464878672 L314.687100894,392.464878672 L314.687100894,376.372924649 Z" fill="#cee3f5" id="US.MN.095" stroke="#6e6e6e" stroke-width="0.4"><desc><name>Mille Lacs County</name><stateAbbrev>MN</stateAbbrev><state>Minnesota</state><fips>095</fips><incits>27095</incits><id>US.MN.095</id><population>25833</population></desc></path><path d="M227.075351213,452.362707535 L261.941251596,452.362707535 L261.941251596,455.938697318 L273.563218391,455.938697318 L273.563218391,461.302681992 L273.563218391,484.546615581 L251.213282248,484.546615581 L251.213282248,491.698595147 L227.969348659,491.698595147 L227.969348659,460.408684547 L227.075351213,452.362707535 Z" fill="#cee3f5" id="US.MN.093" stroke="#6e6e6e" stroke-width="0.4"><desc><name>Meeker County</name><stateAbbrev>MN</stateAbbrev><state>Minnesota</state><fips>093</fips><incits>27093</incits><id>US.MN.093</id><population>23119</population></desc></path><path d="M182.375478927,492.592592593 L227.969348659,491.698595147 L251.213282248,491.698595147 L252.107279693,507.79054917 L239.591315453,507.79054917 L240.485312899,531.928480204 L224.393358876,531.928480204 L218.135376756,528.352490421 L206.513409962,523.882503193 L204.72541507,524.776500639 L183.269476373,513.154533844 L179.69348659,513.154533844 L176.117496807,510.472541507 L172.541507024,509.578544061 L168.071519796,506.896551724 L161.813537676,505.108556833 L160.91954023,492.592592593 L182.375478927,492.592592593 Z" fill="#cee3f5" id="US.MN.129" stroke="#6e6e6e" stroke-width="0.4"><desc><name>Renville County</name><stateAbbrev>MN</stateAbbrev><state>Minnesota</state><fips>129</fips><incits>27129</incits><id>US.MN.129</id><population>15166</population></desc></path><path d="M318.263090677,316.475095785 L318.263090677,295.913154534 L335.249042146,295.913154534 L383.524904215,295.913154534 L383.524904215,320.051085568 L384.41890166,336.143039591 L384.41890166,352.234993614 L384.41890166,375.478927203 L367.432950192,375.478927203 L349.553001277,376.372924649 L349.553001277,368.326947637 L314.687100894,368.326947637 L314.687100894,337.037037037 L318.263090677,336.143039591 L318.263090677,316.475095785 Z" fill="#cee3f5" id="US.MN.001" stroke="#6e6e6e" stroke-width="0.4"><desc><name>Aitkin County</name><stateAbbrev>MN</stateAbbrev><state>Minnesota</state><fips>001</fips><incits>27001</incits><id>US.MN.001</id><population>15742</population></desc></path><path d="M342.401021711,459.514687101 L342.401021711,444.316730524 L387.100893997,444.316730524 L387.100893997,455.044699872 L387.100893997,471.136653895 L368.326947637,471.136653895 L368.326947637,479.182630907 L362.962962963,479.182630907 L363.856960409,472.924648787 L361.174968072,469.348659004 L350.446998723,463.090676884 L342.401021711,459.514687101 Z" fill="#cee3f5" id="US.MN.003" stroke="#6e6e6e" stroke-width="0.4"><desc><name>Anoka County</name><stateAbbrev>MN</stateAbbrev><state>Minnesota</state><fips>003</fips><incits>27003</incits><id>US.MN.003</id><population>339534</population></desc></path><path d="M195.785440613,556.066411239 L195.785440613,548.020434227 L218.135376756,548.020434227 L218.135376756,528.352490421 L224.393358876,531.928480204 L233.333333333,534.610472542 L238.697318008,538.186462324 L252.107279693,541.762452107 L257.471264368,545.33844189 L259.259259259,549.808429119 L263.729246488,549.808429119 L263.729246488,564.11238825 L218.135376756,564.11238825 L195.785440613,564.11238825 L195.785440613,556.066411239 Z" fill="#cee3f5" id="US.MN.015" stroke="#6e6e6e" stroke-width="0.4"><desc><name>Brown County</name><stateAbbrev>MN</stateAbbrev><state>Minnesota</state><fips>015</fips><incits>27015</incits><id>US.MN.015</id><population>25332</population></desc></path><path d="M383.524904215,320.051085568 L453.256704981,320.051085568 L454.150702427,328.991060026 L454.150702427,352.234993614 L384.41890166,352.234993614 L384.41890166,336.143039591 L383.524904215,320.051085568 Z" fill="#cee3f5" id="US.MN.017" stroke="#6e6e6e" stroke-width="0.4"><desc><name>Carlton County</name><stateAbbrev>MN</stateAbbrev><state>Minnesota</state><fips>017</fips><incits>27017</incits><id>US.MN.017</id><population>35460</population></desc></path><path d="M295.913154534,484.546615581 L318.263090677,484.546615581 L318.263090677,492.592592593 L341.507024266,492.592592593 L341.507024266,500.638569604 L336.143039591,500.638569604 L332.567049808,504.214559387 L330.779054917,509.578544061 L318.263090677,514.942528736 L318.263090677,512.260536398 L307.535121328,512.260536398 L307.535121328,507.79054917 L296.80715198,507.79054917 L295.913154534,484.546615581 Z" fill="#cee3f5" id="US.MN.019" stroke="#6e6e6e" stroke-width="0.4"><desc><name>Carver County</name><stateAbbrev>MN</stateAbbrev><state>Minnesota</state><fips>019</fips><incits>27019</incits><id>US.MN.019</id><population>95562</population></desc></path><path d="M109.961685824,468.454661558 L182.375478927,468.454661558 L182.375478927,492.592592593 L160.91954023,492.592592593 L161.813537676,505.108556833 L160.025542784,501.53256705 L152.873563218,497.062579821 L149.297573436,496.168582375 L143.933588761,491.698595147 L139.463601533,490.804597701 L137.675606641,488.122605364 L132.311621967,487.228607918 L129.62962963,483.652618135 L118.901660281,476.50063857 L109.961685824,468.454661558 Z" fill="#cee3f5" id="US.MN.023" stroke="#6e6e6e" stroke-width="0.4"><desc><name>Chippewa County</name><stateAbbrev>MN</stateAbbrev><state>Minnesota</state><fips>023</fips><incits>27023</incits><id>US.MN.023</id><population>12093</population></desc></path><path d="M376.372924649,414.814814815 L404.086845466,414.814814815 L401.404853129,416.602809706 L399.616858238,423.754789272 L399.616858238,429.118773946 L405.874840358,430.906768838 L410.344827586,430.012771392 L414.814814815,432.694763729 L414.814814815,435.376756066 L421.966794381,441.634738186 L421.072796935,445.210727969 L416.602809706,449.680715198 L413.026819923,455.044699872 L387.100893997,455.044699872 L387.100893997,444.316730524 L387.100893997,430.906768838 L376.372924649,430.906768838 L376.372924649,414.814814815 Z" fill="#cee3f5" id="US.MN.025" stroke="#6e6e6e" stroke-width="0.4"><desc><name>Chisago County</name><stateAbbrev>MN</stateAbbrev><state>Minnesota</state><fips>025</fips><incits>27025</incits><id>US.MN.025</id><population>53761</population></desc></path><path d="M372.796934866,492.592592593 L377.266922095,489.910600255 L384.41890166,489.910600255 L387.100893997,492.592592593 L388.888888889,498.850574713 L387.994891443,503.320561941 L394.252873563,504.214559387 L398.722860792,503.320561941 L401.404853129,505.108556833 L408.556832695,506.002554278 L413.920817369,508.684546616 L413.026819923,515.836526181 L408.556832695,516.730523627 L408.556832695,523.882503193 L396.9348659,523.882503193 L393.358876117,527.458492976 L385.312899106,526.56449553 L385.312899106,531.034482759 L362.962962963,531.034482759 L363.856960409,523.882503193 L363.856960409,515.836526181 L360.280970626,515.836526181 L359.38697318,501.53256705 L365.6449553,499.744572158 L370.114942529,497.062579821 L372.796934866,492.592592593 Z" fill="#cee3f5" id="US.MN.037" stroke="#6e6e6e" stroke-width="0.4"><desc><name>Dakota County</name><stateAbbrev>MN</stateAbbrev><state>Minnesota</state><fips>037</fips><incits>27037</incits><id>US.MN.037</id><population>408509</population></desc></path><path d="M385.312899106,531.034482759 L385.312899106,526.56449553 L393.358876117,527.458492976 L396.9348659,523.882503193 L408.556832695,523.882503193 L408.556832695,516.730523627 L413.026819923,515.836526181 L413.920817369,508.684546616 L429.118773946,518.518518519 L431.800766284,522.094508301 L449.680715198,522.988505747 L453.256704981,528.352490421 L458.620689655,531.928480204 L441.634738186,531.928480204 L441.634738186,539.974457216 L430.906768838,539.974457216 L430.906768838,556.066411239 L418.390804598,556.066411239 L385.312899106,556.066411239 L385.312899106,531.034482759 Z" fill="#cee3f5" id="US.MN.049" stroke="#6e6e6e" stroke-width="0.4"><desc><name>Goodhue County</name><stateAbbrev>MN</stateAbbrev><state>Minnesota</state><fips>049</fips><incits>27049</incits><id>US.MN.049</id><population>46464</population></desc></path><path d="M341.507024266,459.514687101 L342.401021711,459.514687101 L350.446998723,463.090676884 L361.174968072,469.348659004 L363.856960409,472.924648787 L362.962962963,479.182630907 L368.326947637,479.182630907 L370.114942529,479.182630907 L371.008939974,490.804597701 L372.796934866,492.592592593 L370.114942529,497.062579821 L365.6449553,499.744572158 L359.38697318,501.53256705 L352.234993614,499.744572158 L341.507024266,500.638569604 L341.507024266,492.592592593 L318.263090677,492.592592593 L318.263090677,484.546615581 L318.263090677,475.606641124 L321.83908046,474.712643678 L326.309067688,468.454661558 L341.507024266,459.514687101 Z" fill="#cee3f5" id="US.MN.053" stroke="#6e6e6e" stroke-width="0.4"><desc><name>Hennepin County</name><stateAbbrev>MN</stateAbbrev><state>Minnesota</state><fips>053</fips><incits>27053</incits><id>US.MN.053</id><population>1198778</population></desc></path><path d="M342.401021711,414.814814815 L376.372924649,414.814814815 L376.372924649,430.906768838 L387.100893997,430.906768838 L387.100893997,444.316730524 L342.401021711,444.316730524 L342.401021711,430.906768838 L342.401021711,414.814814815 Z" fill="#cee3f5" id="US.MN.059" stroke="#6e6e6e" stroke-width="0.4"><desc><name>Isanti County</name><stateAbbrev>MN</stateAbbrev><state>Minnesota</state><fips>059</fips><incits>27059</incits><id>US.MN.059</id><population>38204</population></desc></path><path d="M349.553001277,376.372924649 L367.432950192,375.478927203 L384.41890166,375.478927203 L384.41890166,392.464878672 L376.372924649,392.464878672 L376.372924649,414.814814815 L342.401021711,414.814814815 L341.507024266,392.464878672 L349.553001277,392.464878672 L349.553001277,376.372924649 Z" fill="#cee3f5" id="US.MN.065" stroke="#6e6e6e" stroke-width="0.4"><desc><name>Kanabec County</name><stateAbbrev>MN</stateAbbrev><state>Minnesota</state><fips>065</fips><incits>27065</incits><id>US.MN.065</id><population>15996</population></desc></path><path d="M105.491698595,515.836526181 L150.191570881,515.836526181 L151.085568327,523.882503193 L151.085568327,556.066411239 L107.279693487,556.066411239 L106.385696041,556.066411239 L106.385696041,523.882503193 L105.491698595,515.836526181 Z" fill="#cee3f5" id="US.MN.083" stroke="#6e6e6e" stroke-width="0.4"><desc><name>Lyon County</name><stateAbbrev>MN</stateAbbrev><state>Minnesota</state><fips>083</fips><incits>27083</incits><id>US.MN.083</id><population>25487</population></desc></path><path d="M273.563218391,484.546615581 L295.913154534,484.546615581 L296.80715198,507.79054917 L274.457215837,507.79054917 L274.457215837,515.836526181 L252.107279693,516.730523627 L252.107279693,507.79054917 L251.213282248,491.698595147 L251.213282248,484.546615581 L273.563218391,484.546615581 Z" fill="#cee3f5" id="US.MN.085" stroke="#6e6e6e" stroke-width="0.4"><desc><name>McLeod County</name><stateAbbrev>MN</stateAbbrev><state>Minnesota</state><fips>085</fips><incits>27085</incits><id>US.MN.085</id><population>35918</population></desc></path><path d="M224.393358876,531.928480204 L240.485312899,531.928480204 L303.959131545,531.928480204 L300.383141762,540.868454662 L303.959131545,542.656449553 L300.383141762,546.232439336 L295.913154534,548.914431673 L295.019157088,552.490421456 L296.80715198,557.85440613 L290.54916986,559.642401022 L284.291187739,556.960408685 L278.927203065,555.172413793 L263.729246488,549.808429119 L259.259259259,549.808429119 L257.471264368,545.33844189 L252.107279693,541.762452107 L238.697318008,538.186462324 L233.333333333,534.610472542 L224.393358876,531.928480204 Z" fill="#cee3f5" id="US.MN.103" stroke="#6e6e6e" stroke-width="0.4"><desc><name>Nicollet County</name><stateAbbrev>MN</stateAbbrev><state>Minnesota</state><fips>103</fips><incits>27103</incits><id>US.MN.103</id><population>33032</population></desc></path><path d="M376.372924649,414.814814815 L376.372924649,392.464878672 L384.41890166,392.464878672 L384.41890166,375.478927203 L384.41890166,352.234993614 L454.150702427,352.234993614 L454.150702427,383.524904215 L451.468710089,384.41890166 L447.892720307,388.888888889 L442.528735632,387.994891443 L438.058748404,392.464878672 L433.588761175,391.570881226 L430.012771392,395.146871009 L421.966794381,396.9348659 L415.708812261,399.616858238 L409.45083014,412.132822478 L404.086845466,414.814814815 L376.372924649,414.814814815 Z" fill="#cee3f5" id="US.MN.115" stroke="#6e6e6e" stroke-width="0.4"><desc><name>Pine County</name><stateAbbrev>MN</stateAbbrev><state>Minnesota</state><fips>115</fips><incits>27115</incits><id>US.MN.115</id><population>29104</population></desc></path><path d="M387.100893997,471.136653895 L390.67688378,471.136653895 L390.67688378,492.592592593 L387.100893997,492.592592593 L384.41890166,489.910600255 L377.266922095,489.910600255 L372.796934866,492.592592593 L371.008939974,490.804597701 L370.114942529,479.182630907 L368.326947637,479.182630907 L368.326947637,471.136653895 L387.100893997,471.136653895 Z" fill="#cee3f5" id="US.MN.123" stroke="#6e6e6e" stroke-width="0.4"><desc><name>Ramsey County</name><stateAbbrev>MN</stateAbbrev><state>Minnesota</state><fips>123</fips><incits>27123</incits><id>US.MN.123</id><population>526714</population></desc></path><path d="M151.085568327,523.882503193 L172.541507024,523.882503193 L172.541507024,509.578544061 L176.117496807,510.472541507 L179.69348659,513.154533844 L183.269476373,513.154533844 L204.72541507,524.776500639 L206.513409962,523.882503193 L218.135376756,528.352490421 L218.135376756,548.020434227 L195.785440613,548.020434227 L195.785440613,556.066411239 L162.707535121,556.066411239 L151.085568327,556.066411239 L151.085568327,523.882503193 Z" fill="#cee3f5" id="US.MN.127" stroke="#6e6e6e" stroke-width="0.4"><desc><name>Redwood County</name><stateAbbrev>MN</stateAbbrev><state>Minnesota</state><fips>127</fips><incits>27127</incits><id>US.MN.127</id><population>15744</population></desc></path><path d="M340.61302682,523.882503193 L363.856960409,523.882503193 L362.962962963,531.034482759 L385.312899106,531.034482759 L385.312899106,556.066411239 L385.312899106,556.066411239 L352.234993614,556.066411239 L340.61302682,556.066411239 L340.61302682,523.882503193 Z" fill="#cee3f5" id="US.MN.131" stroke="#6e6e6e" stroke-width="0.4"><desc><name>Rice County</name><stateAbbrev>MN</stateAbbrev><state>Minnesota</state><fips>131</fips><incits>27131</incits><id>US.MN.131</id><population>65049</population></desc></path><path d="M318.263090677,514.942528736 L330.779054917,509.578544061 L332.567049808,504.214559387 L336.143039591,500.638569604 L341.507024266,500.638569604 L352.234993614,499.744572158 L359.38697318,501.53256705 L360.280970626,515.836526181 L363.856960409,515.836526181 L363.856960409,523.882503193 L340.61302682,523.882503193 L305.747126437,523.882503193 L308.429118774,518.518518519 L318.263090677,514.942528736 Z" fill="#cee3f5" id="US.MN.139" stroke="#6e6e6e" stroke-width="0.4"><desc><name>Scott County</name><stateAbbrev>MN</stateAbbrev><state>Minnesota</state><fips>139</fips><incits>27139</incits><id>US.MN.139</id><population>137232</population></desc></path><path d="M252.107279693,507.79054917 L252.107279693,516.730523627 L274.457215837,515.836526181 L274.457215837,507.79054917 L296.80715198,507.79054917 L307.535121328,507.79054917 L307.535121328,512.260536398 L318.263090677,512.260536398 L318.263090677,514.942528736 L308.429118774,518.518518519 L305.747126437,523.882503193 L307.535121328,526.56449553 L303.959131545,531.928480204 L240.485312899,531.928480204 L239.591315453,507.79054917 L252.107279693,507.79054917 Z" fill="#cee3f5" id="US.MN.143" stroke="#6e6e6e" stroke-width="0.4"><desc><name>Sibley County</name><stateAbbrev>MN</stateAbbrev><state>Minnesota</state><fips>143</fips><incits>27143</incits><id>US.MN.143</id><population>15072</population></desc></path><path d="M387.100893997,492.592592593 L390.67688378,492.592592593 L390.67688378,471.136653895 L387.100893997,471.136653895 L387.100893997,455.044699872 L413.026819923,455.044699872 L411.238825032,455.938697318 L412.132822478,462.196679438 L410.344827586,464.878671775 L413.026819923,472.030651341 L408.556832695,474.712643678 L411.238825032,479.182630907 L411.238825032,490.804597701 L410.344827586,491.698595147 L411.238825032,497.062579821 L406.768837803,505.108556833 L408.556832695,506.002554278 L401.404853129,505.108556833 L398.722860792,503.320561941 L394.252873563,504.214559387 L387.994891443,503.320561941 L388.888888889,498.850574713 L387.100893997,492.592592593 Z" fill="#cee3f5" id="US.MN.163" stroke="#6e6e6e" stroke-width="0.4"><desc><name>Washington County</name><stateAbbrev>MN</stateAbbrev><state>Minnesota</state><fips>163</fips><incits>27163</incits><id>US.MN.163</id><population>246603</population></desc></path><path d="M293.231162197,443.422733078 L301.277139208,447.892720307 L303.959131545,446.998722861 L310.217113665,451.468710089 L319.157088123,455.044699872 L337.037037037,455.044699872 L341.507024266,459.514687101 L326.309067688,468.454661558 L321.83908046,474.712643678 L318.263090677,475.606641124 L318.263090677,484.546615581 L295.913154534,484.546615581 L273.563218391,484.546615581 L273.563218391,461.302681992 L273.563218391,455.938697318 L273.563218391,454.150702427 L279.821200511,453.256704981 L282.503192848,454.150702427 L286.973180077,452.362707535 L293.231162197,443.422733078 Z" fill="#cee3f5" id="US.MN.171" stroke="#6e6e6e" stroke-width="0.4"><desc><name>Wright County</name><stateAbbrev>MN</stateAbbrev><state>Minnesota</state><fips>171</fips><incits>27171</incits><id>US.MN.171</id><population>128470</population></desc></path><path d="M263.729246488,549.808429119 L278.927203065,555.172413793 L284.291187739,556.960408685 L290.54916986,559.642401022 L296.80715198,557.85440613 L295.019157088,552.490421456 L318.263090677,551.59642401 L318.263090677,556.066411239 L318.263090677,588.250319285 L274.457215837,588.250319285 L262.835249042,588.250319285 L263.729246488,564.11238825 L263.729246488,549.808429119 Z" fill="#cee3f5" id="US.MN.013" stroke="#6e6e6e" stroke-width="0.4"><desc><name>Blue Earth County</name><stateAbbrev>MN</stateAbbrev><state>Minnesota</state><fips>013</fips><incits>27013</incits><id>US.MN.013</id><population>65528</population></desc></path><path d="M162.707535121,556.066411239 L195.785440613,556.066411239 L195.785440613,564.11238825 L218.135376756,564.11238825 L218.135376756,588.250319285 L163.601532567,588.250319285 L162.707535121,588.250319285 L162.707535121,556.066411239 Z" fill="#cee3f5" id="US.MN.033" stroke="#6e6e6e" stroke-width="0.4"><desc><name>Cottonwood County</name><stateAbbrev>MN</stateAbbrev><state>Minnesota</state><fips>033</fips><incits>27033</incits><id>US.MN.033</id><population>11616</population></desc></path><path d="M303.959131545,531.928480204 L307.535121328,526.56449553 L305.747126437,523.882503193 L340.61302682,523.882503193 L340.61302682,556.066411239 L318.263090677,556.066411239 L318.263090677,551.59642401 L295.019157088,552.490421456 L295.913154534,548.914431673 L300.383141762,546.232439336 L303.959131545,542.656449553 L300.383141762,540.868454662 L303.959131545,531.928480204 Z" fill="#cee3f5" id="US.MN.079" stroke="#6e6e6e" stroke-width="0.4"><desc><name>Le Sueur County</name><stateAbbrev>MN</stateAbbrev><state>Minnesota</state><fips>079</fips><incits>27079</incits><id>US.MN.079</id><population>27810</population></desc></path><path d="M107.279693487,588.250319285 L107.279693487,556.066411239 L151.085568327,556.066411239 L162.707535121,556.066411239 L162.707535121,588.250319285 L109.067688378,588.250319285 L107.279693487,588.250319285 Z" fill="#cee3f5" id="US.MN.101" stroke="#6e6e6e" stroke-width="0.4"><desc><name>Murray County</name><stateAbbrev>MN</stateAbbrev><state>Minnesota</state><fips>101</fips><incits>27101</incits><id>US.MN.101</id><population>8533</population></desc></path><path d="M318.263090677,556.066411239 L340.61302682,556.066411239 L352.234993614,556.066411239 L352.234993614,588.250319285 L329.885057471,588.250319285 L318.263090677,588.250319285 L318.263090677,556.066411239 Z" fill="#cee3f5" id="US.MN.161" stroke="#6e6e6e" stroke-width="0.4"><desc><name>Waseca County</name><stateAbbrev>MN</stateAbbrev><state>Minnesota</state><fips>161</fips><incits>27161</incits><id>US.MN.161</id><population>19098</population></desc></path><path d="M218.135376756,588.250319285 L218.135376756,564.11238825 L263.729246488,564.11238825 L262.835249042,588.250319285 L219.029374202,588.250319285 L218.135376756,588.250319285 Z" fill="#cee3f5" id="US.MN.165" stroke="#6e6e6e" stroke-width="0.4"><desc><name>Watonwan County</name><stateAbbrev>MN</stateAbbrev><state>Minnesota</state><fips>165</fips><incits>27165</incits><id>US.MN.165</id><population>11137</population></desc></path><path d="M95.6577266922,284.291187739 L107.279693487,284.291187739 L121.583652618,284.291187739 L154.66155811,284.291187739 L189.527458493,284.291187739 L190.421455939,316.475095785 L190.421455939,324.521072797 L112.643678161,324.521072797 L97.4457215837,324.521072797 L97.4457215837,300.383141762 L95.6577266922,300.383141762 L95.6577266922,284.291187739 Z" fill="#cee3f5" id="US.MN.005" stroke="#6e6e6e" stroke-width="0.4"><desc><name>Becker County</name><stateAbbrev>MN</stateAbbrev><state>Minnesota</state><fips>005</fips><incits>27005</incits><id>US.MN.005</id><population>33231</population></desc></path><path d="M150.191570881,156.449553001 L174.329501916,156.449553001 L185.95146871,156.449553001 L185.95146871,172.541507024 L257.471264368,172.541507024 L258.365261814,172.541507024 L259.259259259,220.817369093 L259.259259259,257.471264368 L259.259259259,261.047254151 L236.01532567,261.047254151 L188.633461047,260.153256705 L188.633461047,236.01532567 L187.739463602,218.135376756 L182.375478927,217.24137931 L179.69348659,212.771392082 L181.481481481,207.407407407 L185.057471264,204.72541507 L151.979565773,204.72541507 L151.085568327,190.421455939 L151.085568327,172.541507024 L150.191570881,156.449553001 Z" fill="#cee3f5" id="US.MN.007" stroke="#6e6e6e" stroke-width="0.4"><desc><name>Beltrami County</name><stateAbbrev>MN</stateAbbrev><state>Minnesota</state><fips>007</fips><incits>27007</incits><id>US.MN.007</id><population>45670</population></desc></path><path d="M225.287356322,316.475095785 L236.909323116,316.475095785 L236.01532567,300.383141762 L236.01532567,269.093231162 L236.01532567,261.047254151 L259.259259259,261.047254151 L259.259259259,257.471264368 L269.093231162,260.153256705 L286.973180077,254.789272031 L289.655172414,254.789272031 L294.125159642,260.153256705 L295.913154534,266.411238825 L300.383141762,268.199233716 L304.853128991,270.881226054 L309.32311622,268.199233716 L312.005108557,269.987228608 L318.263090677,269.987228608 L315.58109834,275.351213282 L318.263090677,278.927203065 L318.263090677,295.913154534 L318.263090677,316.475095785 L265.517241379,316.475095785 L265.517241379,332.567049808 L267.305236271,332.567049808 L267.305236271,363.856960409 L265.517241379,364.750957854 L257.471264368,360.280970626 L246.743295019,362.068965517 L237.803320562,358.492975734 L229.75734355,356.704980843 L225.287356322,354.022988506 L225.287356322,332.567049808 L225.287356322,316.475095785 Z" fill="#cee3f5" id="US.MN.021" stroke="#6e6e6e" stroke-width="0.4"><desc><name>Cass County</name><stateAbbrev>MN</stateAbbrev><state>Minnesota</state><fips>021</fips><incits>27021</incits><id>US.MN.021</id><population>28555</population></desc></path><path d="M151.979565773,204.72541507 L185.057471264,204.72541507 L181.481481481,207.407407407 L179.69348659,212.771392082 L182.375478927,217.24137931 L187.739463602,218.135376756 L188.633461047,236.01532567 L188.633461047,260.153256705 L189.527458493,268.199233716 L189.527458493,284.291187739 L154.66155811,284.291187739 L155.555555556,252.107279693 L154.66155811,252.107279693 L154.66155811,236.909323116 L151.979565773,236.909323116 L151.979565773,212.771392082 L151.979565773,204.72541507 Z" fill="#cee3f5" id="US.MN.029" stroke="#6e6e6e" stroke-width="0.4"><desc><name>Clearwater County</name><stateAbbrev>MN</stateAbbrev><state>Minnesota</state><fips>029</fips><incits>27029</incits><id>US.MN.029</id><population>8838</population></desc></path><path d="M570.37037037,189.527458493 L574.840357599,185.95146871 L583.780332056,184.163473819 L588.250319285,184.163473819 L588.250319285,190.421455939 L595.402298851,197.573435504 L606.130268199,196.679438059 L612.388250319,195.785440613 L614.176245211,197.573435504 L624.904214559,197.573435504 L630.268199234,198.46743295 L636.526181354,196.679438059 L652.618135377,195.785440613 L663.346104725,198.46743295 L666.028097063,203.831417625 L674.074074074,207.407407407 L686.590038314,204.72541507 L700.0,206.513409962 L686.590038314,215.453384419 L671.392081737,219.923371648 L667.816091954,221.711366539 L641.890166028,227.075351213 L616.858237548,233.333333333 L614.176245211,235.121328225 L597.190293742,240.485312899 L582.88633461,248.531289911 L570.37037037,255.683269476 L571.264367816,221.711366539 L570.37037037,189.527458493 Z" fill="#cee3f5" id="US.MN.031" stroke="#6e6e6e" stroke-width="0.4"><desc><name>Cook County</name><stateAbbrev>MN</stateAbbrev><state>Minnesota</state><fips>031</fips><incits>27031</incits><id>US.MN.031</id><population>5200</population></desc></path><path d="M265.517241379,364.750957854 L267.305236271,363.856960409 L267.305236271,332.567049808 L265.517241379,332.567049808 L265.517241379,316.475095785 L318.263090677,316.475095785 L318.263090677,336.143039591 L314.687100894,337.037037037 L314.687100894,368.326947637 L314.687100894,376.372924649 L262.835249042,376.372924649 L261.047254151,371.008939974 L265.517241379,364.750957854 Z" fill="#cee3f5" id="US.MN.035" stroke="#6e6e6e" stroke-width="0.4"><desc><name>Crow Wing County</name><stateAbbrev>MN</stateAbbrev><state>Minnesota</state><fips>035</fips><incits>27035</incits><id>US.MN.035</id><population>63208</population></desc></path><path d="M188.633461047,260.153256705 L236.01532567,261.047254151 L236.01532567,269.093231162 L236.01532567,300.383141762 L236.909323116,316.475095785 L225.287356322,316.475095785 L190.421455939,316.475095785 L189.527458493,284.291187739 L189.527458493,268.199233716 L188.633461047,260.153256705 Z" fill="#cee3f5" id="US.MN.057" stroke="#6e6e6e" stroke-width="0.4"><desc><name>Hubbard County</name><stateAbbrev>MN</stateAbbrev><state>Minnesota</state><fips>057</fips><incits>27057</incits><id>US.MN.057</id><population>20658</population></desc></path><path d="M259.259259259,220.817369093 L318.263090677,219.923371648 L317.369093231,215.453384419 L345.977011494,215.453384419 L381.736909323,216.347381865 L381.736909323,232.439335888 L382.630906769,232.439335888 L383.524904215,248.531289911 L382.630906769,256.577266922 L383.524904215,288.761174968 L383.524904215,295.913154534 L335.249042146,295.913154534 L318.263090677,295.913154534 L318.263090677,278.927203065 L315.58109834,275.351213282 L318.263090677,269.987228608 L312.005108557,269.987228608 L309.32311622,268.199233716 L304.853128991,270.881226054 L300.383141762,268.199233716 L295.913154534,266.411238825 L294.125159642,260.153256705 L289.655172414,254.789272031 L286.973180077,254.789272031 L269.093231162,260.153256705 L259.259259259,257.471264368 L259.259259259,220.817369093 Z" fill="#cee3f5" id="US.MN.061" stroke="#6e6e6e" stroke-width="0.4"><desc><name>Itasca County</name><stateAbbrev>MN</stateAbbrev><state>Minnesota</state><fips>061</fips><incits>27061</incits><id>US.MN.061</id><population>45564</population></desc></path><path d="M257.471264368,142.14559387 L269.093231162,141.251596424 L273.563218391,142.14559387 L274.457215837,146.615581098 L296.80715198,147.509578544 L311.111111111,148.40357599 L315.58109834,153.767560664 L316.475095785,159.131545338 L329.885057471,159.131545338 L345.977011494,156.449553001 L345.977011494,151.979565773 L357.598978289,149.297573436 L370.114942529,147.509578544 L372.796934866,149.297573436 L380.842911877,148.40357599 L380.842911877,161.813537676 L379.948914432,189.527458493 L380.842911877,200.255427842 L381.736909323,208.301404853 L381.736909323,216.347381865 L345.977011494,215.453384419 L317.369093231,215.453384419 L318.263090677,219.923371648 L259.259259259,220.817369093 L258.365261814,172.541507024 L257.471264368,172.541507024 L257.471264368,142.14559387 Z" fill="#cee3f5" id="US.MN.071" stroke="#6e6e6e" stroke-width="0.4"><desc><name>Koochiching County</name><stateAbbrev>MN</stateAbbrev><state>Minnesota</state><fips>071</fips><incits>27071</incits><id>US.MN.071</id><population>13206</population></desc></path><path d="M499.744572158,187.739463602 L507.79054917,187.739463602 L508.684546616,193.103448276 L507.79054917,195.785440613 L521.200510856,197.573435504 L520.30651341,202.043422733 L528.352490421,200.255427842 L533.716475096,202.043422733 L539.08045977,200.255427842 L549.808429119,198.46743295 L556.066411239,194.891443167 L565.900383142,189.527458493 L570.37037037,189.527458493 L571.264367816,221.711366539 L570.37037037,255.683269476 L561.430395913,261.941251596 L548.914431673,271.775223499 L535.504469987,281.609195402 L531.034482759,286.079182631 L520.30651341,290.54916986 L512.260536398,296.80715198 L508.684546616,297.701149425 L499.744572158,303.959131545 L499.744572158,272.669220945 L500.638569604,246.743295019 L499.744572158,224.393358876 L499.744572158,187.739463602 Z" fill="#cee3f5" id="US.MN.075" stroke="#6e6e6e" stroke-width="0.4"><desc><name>Lake County</name><stateAbbrev>MN</stateAbbrev><state>Minnesota</state><fips>075</fips><incits>27075</incits><id>US.MN.075</id><population>10777</population></desc></path><path d="M174.329501916,156.449553001 L174.329501916,140.357598978 L196.679438059,140.357598978 L196.679438059,122.477650064 L193.997445722,123.37164751 L184.163473819,125.159642401 L178.799489144,124.265644955 L176.117496807,120.689655172 L176.117496807,115.325670498 L178.799489144,114.431673052 L191.315453384,114.431673052 L191.315453384,79.5657726692 L200.255427842,82.2477650064 L209.195402299,80.4597701149 L219.029374202,84.9297573436 L221.711366539,87.6117496807 L226.181353768,103.703703704 L227.969348659,105.491698595 L234.227330779,125.159642401 L232.439335888,130.523627075 L234.227330779,134.993614304 L243.167305236,140.357598978 L255.683269476,143.039591315 L257.471264368,142.14559387 L257.471264368,172.541507024 L185.95146871,172.541507024 L185.95146871,156.449553001 L174.329501916,156.449553001 Z" fill="#cee3f5" id="US.MN.077" stroke="#6e6e6e" stroke-width="0.4"><desc><name>Lake of the Woods County</name><stateAbbrev>MN</stateAbbrev><state>Minnesota</state><fips>077</fips><incits>27077</incits><id>US.MN.077</id><population>3929</population></desc></path><path d="M107.279693487,284.291187739 L107.279693487,252.107279693 L154.66155811,252.107279693 L155.555555556,252.107279693 L154.66155811,284.291187739 L121.583652618,284.291187739 L107.279693487,284.291187739 Z" fill="#cee3f5" id="US.MN.087" stroke="#6e6e6e" stroke-width="0.4"><desc><name>Mahnomen County</name><stateAbbrev>MN</stateAbbrev><state>Minnesota</state><fips>087</fips><incits>27087</incits><id>US.MN.087</id><population>5532</population></desc></path><path d="M75.9897828863,114.431673052 L120.689655172,114.431673052 L178.799489144,114.431673052 L176.117496807,115.325670498 L176.117496807,120.689655172 L178.799489144,124.265644955 L184.163473819,125.159642401 L193.997445722,123.37164751 L196.679438059,122.477650064 L196.679438059,140.357598978 L174.329501916,140.357598978 L174.329501916,156.449553001 L150.191570881,156.449553001 L77.7777777778,156.449553001 L77.7777777778,140.357598978 L75.9897828863,140.357598978 L75.9897828863,114.431673052 Z" fill="#cee3f5" id="US.MN.135" stroke="#6e6e6e" stroke-width="0.4"><desc><name>Roseau County</name><stateAbbrev>MN</stateAbbrev><state>Minnesota</state><fips>135</fips><incits>27135</incits><id>US.MN.135</id><population>15520</population></desc></path><path d="M380.842911877,148.40357599 L390.67688378,149.297573436 L413.920817369,156.449553001 L422.860791826,156.449553001 L422.860791826,160.91954023 L416.602809706,160.91954023 L415.708812261,163.601532567 L421.072796935,166.283524904 L434.482758621,165.389527458 L438.952745849,169.859514687 L438.058748404,174.329501916 L443.422733078,179.69348659 L446.998722861,185.95146871 L455.044699872,184.163473819 L453.256704981,179.69348659 L455.044699872,175.223499361 L476.50063857,173.43550447 L480.970625798,177.011494253 L480.970625798,182.375478927 L485.440613027,185.057471264 L490.804597701,184.163473819 L493.486590038,187.739463602 L499.744572158,187.739463602 L499.744572158,224.393358876 L500.638569604,246.743295019 L499.744572158,272.669220945 L499.744572158,303.959131545 L495.27458493,305.747126437 L475.606641124,316.475095785 L472.924648787,321.83908046 L467.560664112,324.521072797 L461.302681992,330.779054917 L454.150702427,328.991060026 L453.256704981,320.051085568 L383.524904215,320.051085568 L383.524904215,295.913154534 L383.524904215,288.761174968 L382.630906769,256.577266922 L383.524904215,248.531289911 L382.630906769,232.439335888 L381.736909323,232.439335888 L381.736909323,216.347381865 L381.736909323,208.301404853 L380.842911877,200.255427842 L379.948914432,189.527458493 L380.842911877,161.813537676 L380.842911877,148.40357599 Z" fill="#cee3f5" id="US.MN.137" stroke="#6e6e6e" stroke-width="0.4"><desc><name>St. Louis County</name><stateAbbrev>MN</stateAbbrev><state>Minnesota</state><fips>137</fips><incits>27137</incits><id>US.MN.137</id><population>200540</population></desc></path><path d="M190.421455939,316.475095785 L225.287356322,316.475095785 L225.287356322,332.567049808 L225.287356322,354.022988506 L229.75734355,356.704980843 L191.315453384,355.810983397 L191.315453384,332.567049808 L190.421455939,324.521072797 L190.421455939,316.475095785 Z" fill="#cee3f5" id="US.MN.159" stroke="#6e6e6e" stroke-width="0.4"><desc><name>Wadena County</name><stateAbbrev>MN</stateAbbrev><state>Minnesota</state><fips>159</fips><incits>27159</incits><id>US.MN.159</id><population>13804</population></desc></path><path d="M385.312899106,556.066411239 L385.312899106,556.066411239 L418.390804598,556.066411239 L418.390804598,588.250319285 L417.496807152,588.250319285 L385.312899106,588.250319285 L385.312899106,556.066411239 Z" fill="#cee3f5" id="US.MN.039" stroke="#6e6e6e" stroke-width="0.4"><desc><name>Dodge County</name><stateAbbrev>MN</stateAbbrev><state>Minnesota</state><fips>039</fips><incits>27039</incits><id>US.MN.039</id><population>20349</population></desc></path><path d="M417.496807152,588.250319285 L418.390804598,588.250319285 L418.390804598,556.066411239 L430.906768838,556.066411239 L451.468710089,556.066411239 L451.468710089,564.11238825 L473.818646232,564.11238825 L473.818646232,588.250319285 L439.846743295,588.250319285 L439.846743295,589.144316731 L417.496807152,589.144316731 L417.496807152,588.250319285 Z" fill="#cee3f5" id="US.MN.109" stroke="#6e6e6e" stroke-width="0.4"><desc><name>Olmsted County</name><stateAbbrev>MN</stateAbbrev><state>Minnesota</state><fips>109</fips><incits>27109</incits><id>US.MN.109</id><population>149226</population></desc></path><path d="M352.234993614,588.250319285 L352.234993614,556.066411239 L385.312899106,556.066411239 L385.312899106,588.250319285 L384.41890166,588.250319285 L352.234993614,588.250319285 Z" fill="#cee3f5" id="US.MN.147" stroke="#6e6e6e" stroke-width="0.4"><desc><name>Steele County</name><stateAbbrev>MN</stateAbbrev><state>Minnesota</state><fips>147</fips><incits>27147</incits><id>US.MN.147</id><population>36465</population></desc></path><path d="M458.620689655,531.928480204 L461.302681992,533.716475096 L476.50063857,537.292464879 L484.546615581,540.868454662 L488.122605364,543.550446999 L488.122605364,548.020434227 L494.380587484,556.066411239 L473.818646232,556.066411239 L473.818646232,564.11238825 L451.468710089,564.11238825 L451.468710089,556.066411239 L430.906768838,556.066411239 L430.906768838,539.974457216 L441.634738186,539.974457216 L441.634738186,531.928480204 L458.620689655,531.928480204 Z" fill="#cee3f5" id="US.MN.157" stroke="#6e6e6e" stroke-width="0.4"><desc><name>Wabasha County</name><stateAbbrev>MN</stateAbbrev><state>Minnesota</state><fips>157</fips><incits>27157</incits><id>US.MN.157</id><population>21443</population></desc></path><path d="M494.380587484,556.066411239 L497.956577267,558.748403576 L507.79054917,563.218390805 L514.04853129,568.582375479 L519.412515964,571.264367816 L532.82247765,573.946360153 L539.974457216,580.204342273 L546.232439336,588.250319285 L506.002554278,588.250319285 L473.818646232,588.250319285 L473.818646232,564.11238825 L473.818646232,556.066411239 L494.380587484,556.066411239 Z" fill="#cee3f5" id="US.MN.169" stroke="#6e6e6e" stroke-width="0.4"><desc><name>Winona County</name><stateAbbrev>MN</stateAbbrev><state>Minnesota</state><fips>169</fips><incits>27169</incits><id>US.MN.169</id><population>51232</population></desc></path><path d="M71.5197956577,457.726692209 L75.9897828863,458.620689655 L86.717752235,459.514687101 L87.6117496807,461.302681992 L103.703703704,465.772669221 L109.961685824,468.454661558 L118.901660281,476.50063857 L129.62962963,483.652618135 L132.311621967,487.228607918 L137.675606641,488.122605364 L137.675606641,492.592592593 L127.841634738,492.592592593 L127.841634738,499.744572158 L71.5197956577,499.744572158 L71.5197956577,457.726692209 Z" fill="#cee3f5" id="US.MN.073" stroke="#6e6e6e" stroke-width="0.4"><desc><name>Lac qui Parle County</name><stateAbbrev>MN</stateAbbrev><state>Minnesota</state><fips>073</fips><incits>27073</incits><id>US.MN.073</id><population>7027</population></desc></path></svg>