<?xml version='1.0' encoding='utf-8'?>
<svg height="700" width="700" xmlns="http://www.w3.org/2000/svg"><path d="M240.11627907,393.75 L241.472868217,406.637596899 L231.298449612,415.455426357 L249.612403101,430.377906977 L239.437984496,438.51744186 L244.186046512,451.40503876 L242.151162791,455.474806202 L244.864341085,458.86627907 L255.03875969,452.083333333 L269.96124031,464.970930233 L280.813953488,469.718992248 L284.205426357,467.005813953 L289.631782946,477.180232558 L297.771317829,478.536821705 L298.449612403,484.641472868 L288.953488372,485.998062016 L288.275193798,494.137596899 L295.736434109,502.277131783 L294.379844961,509.060077519 L305.23255814,515.164728682 L325.581395349,532.122093023 L324.224806202,551.114341085 L329.651162791,557.218992248 L322.868217054,577.567829457 L326.937984496,584.350775194 L323.546511628,604.699612403 L305.23255814,609.447674419 L305.910852713,601.308139535 L299.127906977,599.951550388 L296.414728682,588.420542636 L274.031007752,589.777131783 L259.786821705,582.994186047 L243.507751938,582.315891473 L240.794573643,576.889534884 L223.158914729,576.21124031 L213.662790698,570.106589147 L145.833333333,563.323643411 L113.953488372,570.784883721 L87.5,570.784883721 L77.3255813953,589.098837209 L56.976744186,604.699612403 L40.019379845,596.560077519 L29.8449612403,598.59496124 L29.1666666667,612.160852713 L23.7403100775,594.525193798 L36.6279069767,554.505813953 L33.9147286822,542.974806202 L25.0968992248,537.548449612 L23.7403100775,530.765503876 L1.35658914729,522.625968992 L0.0,516.521317829 L18.3139534884,490.746124031 L54.2635658915,473.110465116 L59.011627907,460.901162791 L75.9689922481,458.187984496 L104.457364341,466.32751938 L106.492248062,451.40503876 L113.275193798,445.978682171 L109.88372093,443.265503876 L115.988372093,439.874031008 L124.127906977,443.94379845 L133.624031008,440.552325581 L135.658914729,448.013565891 L143.120155039,446.656976744 L143.120155039,456.153100775 L156.686046512,452.761627907 L161.434108527,456.153100775 L160.755813953,445.300387597 L168.217054264,443.94379845 L182.46124031,423.59496124 L179.069767442,416.13372093 L183.139534884,411.385658915 L181.782945736,405.281007752 L191.279069767,389.680232558 L240.11627907,393.75 Z" fill="#cee3f5" id="BY.BR" stroke="#6e6e6e" stroke-width="0.4"><desc><labelrank>7</labelrank><code_hasc>BY.BR</code_hasc><name>Brest</name><admin>Belarus</admin><type_en>Region</type_en><region /><woe_id>2344830</woe_id><longitude>25</longitude><woe_name>Brest</woe_name><fips>BO01</fips><woe_label>Brestskaya Voblasts', BY, Belarus</woe_label><latitude>52</latitude><iso_a2>BY</iso_a2><postal>BR</postal><type>Voblasts'</type><id>BY.BR</id></desc></path><path d="M603.003875969,413.420542636 L595.542635659,426.986434109 L619.96124031,453.439922481 L621.317829457,460.901162791 L615.213178295,466.32751938 L626.744186047,481.928294574 L621.317829457,486.676356589 L626.744186047,502.955426357 L624.031007752,510.416666667 L634.205426357,517.199612403 L633.527131783,523.304263566 L640.310077519,535.513565891 L611.821705426,534.835271318 L600.968992248,545.009689922 L590.794573643,540.939922481 L577.906976744,544.331395349 L579.941860465,551.792635659 L565.697674419,564.001937984 L550.096899225,600.629844961 L561.627906977,629.118217054 L554.84496124,645.397286822 L539.92248062,637.257751938 L536.531007752,625.726744186 L522.965116279,616.230620155 L503.294573643,619.622093023 L499.224806202,624.370155039 L484.302325581,617.587209302 L472.093023256,630.474806202 L461.240310078,633.187984496 L448.352713178,604.699612403 L442.248062016,601.308139535 L434.786821705,609.447674419 L421.220930233,614.195736434 L415.794573643,630.474806202 L409.011627907,624.370155039 L406.298449612,612.160852713 L395.445736434,610.125968992 L385.949612403,615.552325581 L377.810077519,600.629844961 L366.279069767,612.160852713 L347.965116279,606.05620155 L339.147286822,623.691860465 L335.07751938,620.300387597 L337.112403101,608.769379845 L323.546511628,604.699612403 L326.937984496,584.350775194 L322.868217054,577.567829457 L329.651162791,557.218992248 L324.224806202,551.114341085 L325.581395349,532.122093023 L305.23255814,515.164728682 L309.980620155,501.598837209 L324.224806202,493.459302326 L326.937984496,497.529069767 L328.972868217,494.137596899 L329.651162791,501.598837209 L337.112403101,505.668604651 L354.748062016,504.990310078 L358.139534884,495.494186047 L368.313953488,501.598837209 L384.593023256,500.242248062 L389.341085271,495.494186047 L388.662790698,481.25 L393.410852713,475.823643411 L419.186046512,470.397286822 L417.151162791,464.970930233 L429.360465116,460.222868217 L430.03875969,451.40503876 L438.178294574,450.726744186 L444.96124031,441.908914729 L457.170542636,445.978682171 L460.562015504,441.230620155 L465.310077519,443.94379845 L471.414728682,439.874031008 L484.302325581,440.552325581 L476.841085271,422.238372093 L478.197674419,418.846899225 L486.337209302,418.168604651 L484.980620155,395.784883721 L488.372093023,391.036821705 L496.511627907,394.428294574 L502.61627907,392.393410853 L516.860465116,404.602713178 L530.426356589,400.532945736 L529.748062016,397.141472868 L537.887596899,393.071705426 L551.453488372,397.819767442 L574.515503876,393.071705426 L584.011627907,405.281007752 L583.333333333,413.420542636 L603.003875969,413.420542636 Z" fill="#cee3f5" id="BY.HO" stroke="#6e6e6e" stroke-width="0.4"><desc><labelrank>7</labelrank><code_hasc>BY.HO</code_hasc><name>Gomel</name><admin>Belarus</admin><type_en>Region</type_en><region /><woe_id>2344831</woe_id><longitude>29</longitude><woe_name>Homyel'</woe_name><fips>BO02</fips><woe_label>Homyel'skaya Voblasts', BY, Belarus</woe_label><latitude>52</latitude><iso_a2>BY</iso_a2><postal>HO</postal><type>Voblasts'</type><id>BY.HO</id></desc></path><path d="M579.941860465,253.343023256 L592.151162791,279.796511628 L628.779069767,298.78875969 L630.813953488,309.641472868 L625.387596899,329.990310078 L634.88372093,332.025193798 L649.80620155,326.598837209 L676.259689922,336.09496124 L680.329457364,340.843023256 L674.224806202,346.269379845 L676.937984496,355.087209302 L698.643410853,367.974806202 L700.0,380.862403101 L681.007751938,386.28875969 L679.651162791,398.498062016 L664.728682171,412.063953488 L635.562015504,412.742248062 L631.492248062,403.924418605 L619.282945736,401.889534884 L606.395348837,403.924418605 L603.003875969,413.420542636 L583.333333333,413.420542636 L584.011627907,405.281007752 L574.515503876,393.071705426 L551.453488372,397.819767442 L537.887596899,393.071705426 L529.748062016,397.141472868 L530.426356589,400.532945736 L516.860465116,404.602713178 L502.61627907,392.393410853 L496.511627907,394.428294574 L488.372093023,391.036821705 L484.980620155,395.784883721 L486.337209302,418.168604651 L478.197674419,418.846899225 L476.841085271,422.238372093 L484.302325581,440.552325581 L471.414728682,439.874031008 L465.310077519,443.94379845 L460.562015504,441.230620155 L457.170542636,445.978682171 L444.96124031,441.908914729 L438.178294574,450.726744186 L430.03875969,451.40503876 L429.360465116,460.222868217 L417.151162791,464.970930233 L419.186046512,470.397286822 L393.410852713,475.823643411 L379.84496124,465.649224806 L394.089147287,445.978682171 L391.375968992,441.230620155 L397.480620155,435.125968992 L396.124031008,418.846899225 L388.662790698,420.203488372 L385.271317829,413.420542636 L374.418604651,414.098837209 L364.244186047,402.567829457 L383.914728682,404.602713178 L390.019379845,401.21124031 L383.914728682,393.75 L386.627906977,380.184108527 L398.837209302,372.044573643 L401.550387597,362.548449612 L419.864341085,364.583333333 L421.899224806,372.722868217 L425.968992248,373.401162791 L425.290697674,365.939922481 L433.430232558,364.583333333 L436.821705426,355.087209302 L444.282945736,356.44379845 L459.88372093,346.269379845 L457.848837209,343.55620155 L463.275193798,338.129844961 L454.457364341,335.416666667 L457.170542636,332.025193798 L453.779069767,332.025193798 L451.744186047,315.067829457 L459.88372093,291.32751938 L456.492248062,285.901162791 L467.34496124,275.048449612 L483.624031008,275.048449612 L485.658914729,270.978682171 L499.903100775,279.118217054 L504.651162791,266.230620155 L509.399224806,270.978682171 L518.895348837,265.552325581 L516.182170543,273.691860465 L521.608527132,274.370155039 L526.356589147,268.94379845 L535.174418605,275.726744186 L546.027131783,258.769379845 L558.914728682,260.125968992 L562.984496124,256.05620155 L571.124031008,259.447674419 L579.941860465,253.343023256 Z" fill="#cee3f5" id="BY.MA" stroke="#6e6e6e" stroke-width="0.4"><desc><labelrank>7</labelrank><code_hasc>BY.MA</code_hasc><name>Mogilev</name><admin>Belarus</admin><type_en>Region</type_en><region /><woe_id>2344833</woe_id><longitude>30</longitude><woe_name>Mahilyow</woe_name><fips>BO04</fips><woe_label>Mahilyowskaya Voblasts', BY, Belarus</woe_label><latitude>53</latitude><iso_a2>BY</iso_a2><postal>MA</postal><type>Voblasts'</type><id>BY.MA</id></desc></path><path d="M579.941860465,253.343023256 L571.124031008,259.447674419 L562.984496124,256.05620155 L558.914728682,260.125968992 L546.027131783,258.769379845 L535.174418605,275.726744186 L526.356589147,268.94379845 L521.608527132,274.370155039 L516.182170543,273.691860465 L518.895348837,265.552325581 L509.399224806,270.978682171 L504.651162791,266.230620155 L499.903100775,279.118217054 L485.658914729,270.978682171 L483.624031008,275.048449612 L467.34496124,275.048449612 L456.492248062,285.901162791 L452.42248062,284.544573643 L455.813953488,276.40503876 L452.42248062,271.656976744 L459.205426357,239.098837209 L446.996124031,244.525193798 L435.465116279,235.707364341 L428.682170543,240.455426357 L417.151162791,239.098837209 L415.11627907,247.916666667 L402.228682171,244.525193798 L400.872093023,236.385658915 L394.76744186,235.707364341 L389.341085271,237.742248062 L383.236434109,249.273255814 L371.027131783,237.063953488 L349.321705426,241.812015504 L347.286821705,237.742248062 L338.468992248,239.098837209 L332.364341085,226.21124031 L321.511627907,222.141472868 L314.050387597,211.28875969 L307.26744186,210.610465116 L302.519379845,195.687984496 L292.34496124,195.009689922 L288.953488372,201.114341085 L278.100775194,198.401162791 L265.891472868,202.470930233 L242.151162791,197.722868217 L239.437984496,202.470930233 L234.011627907,203.82751938 L227.228682171,195.687984496 L234.011627907,178.052325581 L257.073643411,180.765503876 L261.143410853,169.234496124 L271.317829457,162.451550388 L246.899224806,155.668604651 L258.430232558,112.257751938 L272.674418605,109.544573643 L283.527131783,95.3003875969 L295.058139535,94.6220930233 L303.197674419,100.048449612 L308.624031008,94.6220930233 L325.581395349,98.6918604651 L328.972868217,83.0910852713 L347.965116279,60.7073643411 L360.174418605,54.6027131783 L373.740310078,68.1686046512 L379.166666667,62.742248062 L394.089147287,62.0639534884 L402.906976744,79.0213178295 L409.689922481,80.3779069767 L423.255813953,69.5251937984 L448.352713178,77.6647286822 L451.744186047,82.4127906977 L444.96124031,97.3352713178 L455.135658915,109.544573643 L468.701550388,98.6918604651 L476.841085271,98.0135658915 L483.624031008,89.1957364341 L497.189922481,91.230620155 L503.294573643,86.4825581395 L522.286821705,93.265503876 L541.957364341,116.32751938 L552.131782946,114.970930233 L555.523255814,140.746124031 L547.38372093,153.63372093 L559.593023256,167.877906977 L564.341085271,184.835271318 L557.558139535,184.835271318 L559.593023256,190.939922481 L551.453488372,197.044573643 L548.740310078,212.645348837 L577.906976744,232.994186047 L571.802325581,248.59496124 L579.941860465,253.343023256 Z" fill="#cee3f5" id="BY.VI" stroke="#6e6e6e" stroke-width="0.4"><desc><labelrank>7</labelrank><code_hasc>BY.VI</code_hasc><name>Vitebsk</name><admin>Belarus</admin><type_en>Region</type_en><region /><woe_id>2344835</woe_id><longitude>28</longitude><woe_name>Vitsyebsk</woe_name><fips>BO07</fips><woe_label>Vitsyebskaya Voblasts', BY, Belarus</woe_label><latitude>55</latitude><iso_a2>BY</iso_a2><postal>VI</postal><type>Voblasts'</type><id>BY.VI</id></desc></path><path d="M239.437984496,202.470930233 L239.437984496,212.645348837 L253.003875969,225.532945736 L255.717054264,238.420542636 L262.5,239.777131783 L262.5,245.881782946 L259.786821705,251.986434109 L255.717054264,250.629844961 L257.751937984,260.804263566 L247.57751938,282.509689922 L221.802325581,292.005813953 L219.089147287,299.467054264 L226.550387597,300.823643411 L227.906976744,311.676356589 L237.403100775,309.641472868 L244.864341085,316.424418605 L243.507751938,322.529069767 L228.585271318,334.060077519 L235.368217054,340.843023256 L231.976744186,349.660852713 L246.899224806,361.870155039 L248.255813953,376.792635659 L252.325581395,377.470930233 L253.682170543,389.001937984 L240.11627907,393.75 L191.279069767,389.680232558 L181.782945736,405.281007752 L183.139534884,411.385658915 L179.069767442,416.13372093 L182.46124031,423.59496124 L168.217054264,443.94379845 L160.755813953,445.300387597 L161.434108527,456.153100775 L156.686046512,452.761627907 L143.120155039,456.153100775 L143.120155039,446.656976744 L135.658914729,448.013565891 L133.624031008,440.552325581 L124.127906977,443.94379845 L115.988372093,439.874031008 L109.88372093,443.265503876 L113.275193798,445.978682171 L106.492248062,451.40503876 L104.457364341,466.32751938 L75.9689922481,458.187984496 L59.011627907,460.901162791 L59.011627907,432.412790698 L55.6201550388,424.951550388 L59.011627907,414.777131783 L39.3410852713,357.800387597 L33.9147286822,317.781007752 L43.4108527132,323.207364341 L82.7519379845,317.781007752 L88.8565891473,325.920542636 L96.996124031,327.277131783 L118.701550388,315.067829457 L120.736434109,318.459302326 L128.197674419,317.102713178 L130.23255814,298.110465116 L147.868217054,298.78875969 L158.042635659,283.86627907 L169.573643411,285.222868217 L175.678294574,279.118217054 L182.46124031,287.936046512 L178.391472868,288.614341085 L179.748062016,298.110465116 L195.348837209,298.110465116 L198.740310078,287.257751938 L192.635658915,277.083333333 L181.104651163,276.40503876 L188.565891473,254.021317829 L196.027131783,247.238372093 L195.348837209,221.463178295 L206.201550388,202.470930233 L222.480620155,200.436046512 L227.228682171,195.687984496 L234.011627907,203.82751938 L239.437984496,202.470930233 Z" fill="#cee3f5" id="BY.HR" stroke="#6e6e6e" stroke-width="0.4"><desc><labelrank>7</labelrank><code_hasc>BY.HR</code_hasc><name>Grodno</name><admin>Belarus</admin><type_en>Region</type_en><region /><woe_id>2344832</woe_id><longitude>25</longitude><woe_name>Hrodna</woe_name><fips>BO03</fips><woe_label>Haradzyenskaya Voblasts', BY, Belarus</woe_label><latitude>53</latitude><iso_a2>BY</iso_a2><postal>HR</postal><type>Voblasts'</type><id>BY.HR</id></desc></path><path d="M456.492248062,285.901162791 L459.88372093,291.32751938 L451.744186047,315.067829457 L453.779069767,332.025193798 L457.170542636,332.025193798 L454.457364341,335.416666667 L463.275193798,338.129844961 L457.848837209,343.55620155 L459.88372093,346.269379845 L444.282945736,356.44379845 L436.821705426,355.087209302 L433.430232558,364.583333333 L425.290697674,365.939922481 L425.968992248,373.401162791 L421.899224806,372.722868217 L419.864341085,364.583333333 L401.550387597,362.548449612 L398.837209302,372.044573643 L386.627906977,380.184108527 L383.914728682,393.75 L390.019379845,401.21124031 L383.914728682,404.602713178 L364.244186047,402.567829457 L374.418604651,414.098837209 L385.271317829,413.420542636 L388.662790698,420.203488372 L396.124031008,418.846899225 L397.480620155,435.125968992 L391.375968992,441.230620155 L394.089147287,445.978682171 L379.84496124,465.649224806 L393.410852713,475.823643411 L388.662790698,481.25 L389.341085271,495.494186047 L384.593023256,500.242248062 L368.313953488,501.598837209 L358.139534884,495.494186047 L354.748062016,504.990310078 L337.112403101,505.668604651 L329.651162791,501.598837209 L328.972868217,494.137596899 L326.937984496,497.529069767 L324.224806202,493.459302326 L309.980620155,501.598837209 L305.23255814,515.164728682 L294.379844961,509.060077519 L295.736434109,502.277131783 L288.275193798,494.137596899 L288.953488372,485.998062016 L298.449612403,484.641472868 L297.771317829,478.536821705 L289.631782946,477.180232558 L284.205426357,467.005813953 L280.813953488,469.718992248 L269.96124031,464.970930233 L255.03875969,452.083333333 L244.864341085,458.86627907 L242.151162791,455.474806202 L244.186046512,451.40503876 L239.437984496,438.51744186 L249.612403101,430.377906977 L231.298449612,415.455426357 L241.472868217,406.637596899 L240.11627907,393.75 L253.682170543,389.001937984 L252.325581395,377.470930233 L248.255813953,376.792635659 L246.899224806,361.870155039 L231.976744186,349.660852713 L235.368217054,340.843023256 L228.585271318,334.060077519 L243.507751938,322.529069767 L244.864341085,316.424418605 L237.403100775,309.641472868 L227.906976744,311.676356589 L226.550387597,300.823643411 L219.089147287,299.467054264 L221.802325581,292.005813953 L247.57751938,282.509689922 L257.751937984,260.804263566 L255.717054264,250.629844961 L259.786821705,251.986434109 L262.5,245.881782946 L262.5,239.777131783 L255.717054264,238.420542636 L253.003875969,225.532945736 L239.437984496,212.645348837 L239.437984496,202.470930233 L242.151162791,197.722868217 L265.891472868,202.470930233 L278.100775194,198.401162791 L288.953488372,201.114341085 L292.34496124,195.009689922 L302.519379845,195.687984496 L307.26744186,210.610465116 L314.050387597,211.28875969 L321.511627907,222.141472868 L332.364341085,226.21124031 L338.468992248,239.098837209 L347.286821705,237.742248062 L349.321705426,241.812015504 L371.027131783,237.063953488 L383.236434109,249.273255814 L389.341085271,237.742248062 L394.76744186,235.707364341 L400.872093023,236.385658915 L402.228682171,244.525193798 L415.11627907,247.916666667 L417.151162791,239.098837209 L428.682170543,240.455426357 L435.465116279,235.707364341 L446.996124031,244.525193798 L459.205426357,239.098837209 L452.42248062,271.656976744 L455.813953488,276.40503876 L452.42248062,284.544573643 L456.492248062,285.901162791 Z" fill="#cee3f5" id="BY.MI" stroke="#6e6e6e" stroke-width="0.4"><desc><labelrank>7</labelrank><code_hasc>BY.MI</code_hasc><name>Minsk</name><admin>Belarus</admin><type_en>Municipality</type_en><region /><woe_id>2344834</woe_id><longitude>27</longitude><woe_name>Minsk</woe_name><fips>BO06</fips><woe_label>Minskaya Voblasts', BY, Belarus</woe_label><latitude>53</latitude><iso_a2>BY</iso_a2><postal>MI</postal><type>Gorod</type><id>BY.MI</id></desc></path><path d="M334.399224806,317.781007752 L344.573643411,314.389534884 L340.503875969,327.955426357 L342.53875969,339.486434109 L324.903100775,342.877906977 L312.69379845,336.773255814 L314.050387597,317.102713178 L334.399224806,317.781007752 Z" fill="#cee3f5" id="BY.HM" stroke="#6e6e6e" stroke-width="0.4"><desc><labelrank>7</labelrank><code_hasc>BY.HM</code_hasc><name>City of Minsk</name><admin>Belarus</admin><type_en>Region</type_en><region /><woe_id>20069996</woe_id><longitude>27</longitude><woe_name>Minsk</woe_name><fips>BO06</fips><woe_label>Minsk, BY, Belarus</woe_label><latitude>53</latitude><iso_a2>BY</iso_a2><postal>MI</postal><type>Voblasts'</type><id>BY.HM</id></desc></path></svg>