<?xml version='1.0' encoding='utf-8'?>
<svg height="700" width="700" xmlns="http://www.w3.org/2000/svg"><path d="M162.335152969,52.3715403946 L161.948526189,53.1333128519 L161.182160432,52.6225279962 L157.879518679,44.8563918482 L162.527790402,33.8021448741 L162.769328074,37.8741859691 L160.822388433,45.3734256268 L162.335152969,52.3715403946 M271.239586426,78.6333645304 L270.846410317,80.7189668132 L270.350925901,81.5059987844 L269.483372431,81.6346428105 L266.393383287,80.0721853544 L262.516688261,82.7414035462 L259.411320171,82.7974330525 L259.149581254,83.8184928276 L259.771605673,85.5160572195 L265.323705298,91.2026086017 L266.154573765,92.5541522824 L266.612072978,94.1735075172 L266.448313605,96.5191161587 L265.682664287,98.1194488446 L263.210193017,101.188933027 L263.064419491,103.041165587 L262.42527962,104.079009997 L262.050766418,105.099916697 L262.240601835,105.827313134 L267.587001611,107.505413874 L268.615610563,107.134598213 L270.170213537,102.713397329 L271.884532254,102.040514775 L272.976851957,102.639236978 L277.300000759,110.703653604 L277.341409769,112.261796658 L276.571612878,113.792943983 L273.548658608,116.533045954 L233.248879537,113.711561638 L165.860182666,123.982765008 L147.8069779,125.712036626 L146.955279801,124.344157585 L143.362929853,123.919535659 L141.946043767,124.738509188 L141.646851903,126.343914023 L144.224323221,129.999978341 L143.778846628,131.111481419 L141.215851957,132.014186207 L139.74122889,131.594840544 L138.601123665,129.353681411 L138.370861476,117.650918531 L135.083553977,116.815431302 L131.166533213,117.787846098 L130.502360936,116.231808688 L132.456214784,112.600307118 L142.378246004,101.772740149 L143.79317086,91.6025939135 L145.358724843,88.1141141456 L149.16021976,84.3401532754 L154.548715924,82.3086536218 L156.821321564,80.4941053122 L159.489754366,76.0625964536 L163.571793424,57.9724295869 L164.410918269,42.0898786343 L165.964021423,32.3375236574 L169.93388637,20.909234062 L176.042927931,10.2547974259 L181.282403945,8.62481071328 L188.059716585,3.15339370211 L191.399379609,2.24782770014 L194.434122849,0.0 L215.588646201,4.40533811371 L244.24152406,5.43922024999 L253.58958703,10.3777767079 L254.358542208,44.1820306331 L259.454353899,54.2661053134 L260.174261935,59.8592258904 L264.385016731,68.3833211504 L270.51928954,75.7844814197 L270.916681122,76.9276494971 L271.239586426,78.6333645304 Z" fill="#cee3f5" id="SR.NI" stroke="#6e6e6e" stroke-width="0.4"><desc><labelrank>6</labelrank><code_hasc>SR.NI</code_hasc><name>Nickerie</name><admin>Suriname</admin><type_en>District</type_en><region /><woe_id>2346410</woe_id><longitude>-56</longitude><woe_name>Nickerie</woe_name><fips>NS14</fips><woe_label>Nickerie, SR, Suriname</woe_label><latitude>5</latitude><iso_a2>SR</iso_a2><postal>NI</postal><type>Distrikt</type><id>SR.NI</id></desc></path><path d="M547.718171457,172.782085684 L559.027248093,177.129986431 L563.577874479,181.209489937 L566.422089395,187.931460123 L565.593359629,191.386482898 L562.535425158,196.653690619 L561.460805011,204.722738206 L558.005578525,212.180240335 L556.599468424,219.617658905 L553.45530332,226.494517771 L552.95894537,247.009956321 L551.078221361,250.70829594 L542.279015674,259.43474636 L540.063468759,263.332260912 L540.048028746,269.270180519 L543.832252503,281.817149746 L544.146427663,287.183449191 L540.126190682,298.682548328 L531.711740551,314.824979089 L530.091451113,315.51892134 L528.482687542,314.550949134 L525.619364972,310.12183183 L523.62773131,308.496331645 L520.968173805,308.282238407 L513.631571084,317.160160762 L502.673714136,319.617814898 L491.889282491,328.912074966 L480.962390358,334.535569534 L477.459803651,335.160554142 L472.6432171,332.661570025 L470.566888551,325.444165823 L467.18513949,266.452243203 L465.62342554,261.458937258 L461.185881115,255.012825549 L462.321771172,221.620584892 L459.504538718,194.176128781 L455.275908035,182.804985785 L438.24036454,156.196126062 L444.009789015,149.616376062 L452.156547326,143.623883841 L457.725295426,137.978169133 L464.292641179,126.653669179 L464.165667324,124.489892021 L461.838518304,120.977033611 L463.857934513,116.933903864 L468.22580296,116.057263307 L518.343052298,115.583249258 L521.757779741,116.116220799 L523.669760838,118.961889154 L524.22764759,129.097292295 L525.711085741,132.609929275 L536.129195133,140.059272888 L539.992800733,144.901932585 L540.760937216,148.449955099 L540.020701196,153.505975994 L543.515189142,157.708498307 L544.313569564,161.031424916 L543.667001246,171.679149078 L545.266909932,173.75462598 L547.718171457,172.782085684 Z" fill="#cee3f5" id="SR.BR" stroke="#6e6e6e" stroke-width="0.4"><desc><labelrank>7</labelrank><code_hasc>SR.BR</code_hasc><name>Brokopondo</name><admin>Suriname</admin><type_en>District</type_en><region /><woe_id>2346406</woe_id><longitude>-55</longitude><woe_name>Brokopondo</woe_name><fips>NS10</fips><woe_label>Brokopondo, SR, Suriname</woe_label><latitude>4</latitude><iso_a2>SR</iso_a2><postal>BR</postal><type>Distrikt</type><id>SR.BR</id></desc></path><path d="M636.788346373,133.846469395 L632.759852768,129.735321283 L622.83556552,125.687044756 L611.169774453,118.143915976 L580.601143274,106.789678297 L586.114509227,99.0151419888 L588.143389059,93.4106142956 L588.471300137,87.5839857563 L587.5847856,81.8114739971 L585.067270519,75.8427847509 L572.217286918,55.2102209896 L566.477296125,39.8457274422 L566.15885554,33.4403955823 L571.259925985,25.2771822389 L570.023080026,11.9134386337 L572.037592299,6.25947525306 L611.154246882,11.8517565136 L647.925678416,19.4981236131 L674.005071507,27.3813535828 L679.942457825,28.5006189617 L684.187128001,28.1879810944 L687.897282883,31.8973660075 L687.630686191,33.6482632125 L692.688778671,44.364039188 L685.208004999,57.180071834 L680.251626727,83.4043761218 L678.164663542,87.2757847765 L670.649455849,95.1770259574 L668.974091764,99.9537482236 L658.610881326,114.815079696 L645.415203337,124.339542747 L636.788346373,133.846469395 Z" fill="#cee3f5" id="SR.MA" stroke="#6e6e6e" stroke-width="0.4"><desc><labelrank>6</labelrank><code_hasc>SR.MA</code_hasc><name>Marowijne</name><admin>Suriname</admin><type_en>District</type_en><region /><woe_id>2346409</woe_id><longitude>-54</longitude><woe_name>Marowijne</woe_name><fips>NS13</fips><woe_label>Marowijne, SR, Suriname</woe_label><latitude>5</latitude><iso_a2>SR</iso_a2><postal>MA</postal><type>Distrikt</type><id>SR.MA</id></desc></path><path d="M516.029482865,57.9290810432 L510.005973638,60.8352868611 L507.640025616,66.4466933064 L513.449160902,65.4019239595 L514.694369327,70.1180255024 L514.379228152,79.5013099173 L517.52003552,80.5019871711 L585.067270519,75.8427847509 L587.5847856,81.8114739971 L588.471300137,87.5839857563 L588.143389059,93.4106142956 L586.114509227,99.0151419888 L580.601143274,106.789678297 L578.187801717,106.00595448 L566.694102637,127.37980332 L564.641131134,132.784465296 L555.763513221,142.336423263 L550.529328178,164.832189189 L547.718171457,172.782085684 L545.266909932,173.75462598 L543.667001246,171.679149078 L544.313569564,161.031424916 L543.515189142,157.708498307 L540.020701196,153.505975994 L540.760937216,148.449955099 L539.992800733,144.901932585 L536.129195133,140.059272888 L525.711085741,132.609929275 L524.22764759,129.097292295 L523.669760838,118.961889154 L521.757779741,116.116220799 L518.343052298,115.583249258 L468.22580296,116.057263307 L463.857934513,116.933903864 L461.838518304,120.977033611 L464.165667324,124.489892021 L464.292641179,126.653669179 L457.725295426,137.978169133 L452.156547326,143.623883841 L444.009789015,149.616376062 L438.24036454,156.196126062 L434.178955384,157.910914459 L428.729964977,166.169144672 L416.335535659,171.813955735 L409.083154479,173.346230015 L405.459123332,171.260315164 L402.126536077,159.307401403 L396.207697162,155.05722788 L382.139976968,151.142635071 L364.637937877,154.625110982 L354.97488302,152.431026288 L354.81857038,143.827553774 L359.904038325,105.88493716 L368.758557105,79.2475039686 L373.339863827,85.6628244556 L373.204844144,87.3505720496 L369.325474659,93.4944625592 L370.355053527,100.574924004 L371.582180949,101.475523928 L380.595539223,99.8338290052 L389.282653612,101.705334038 L440.287986929,97.7204703137 L444.702570648,95.9705905578 L447.847850715,98.254415988 L450.548586058,95.0854565713 L455.756502329,93.2049136834 L458.45097017,86.9457410491 L458.644972168,84.6692676872 L455.373732244,81.6501313443 L454.574771931,79.4087560137 L456.644720049,73.6086293569 L459.535052022,70.0238096353 L457.239229086,65.8530590919 L457.637556691,64.7363050346 L464.815381356,60.9759217896 L463.516768812,56.9951427474 L479.771706505,58.8541055394 L485.416476838,58.6939805321 L503.345105467,55.2244208886 L507.598430849,55.4278880364 L516.029482865,57.9290810432 Z" fill="#cee3f5" id="SR.PR" stroke="#6e6e6e" stroke-width="0.4"><desc><labelrank>6</labelrank><code_hasc>SR.PR</code_hasc><name>Para</name><admin>Suriname</admin><type_en>District</type_en><region /><woe_id>2346411</woe_id><longitude>-55</longitude><woe_name>Para</woe_name><fips>NS15</fips><woe_label>Para, SR, Suriname</woe_label><latitude>5</latitude><iso_a2>SR</iso_a2><postal>PR</postal><type>Distrikt</type><id>SR.PR</id></desc></path><path d="M438.24036454,156.196126062 L455.275908035,182.804985785 L459.504538718,194.176128781 L462.321771172,221.620584892 L461.185881115,255.012825549 L465.62342554,261.458937258 L467.18513949,266.452243203 L470.566888551,325.444165823 L472.6432171,332.661570025 L477.459803651,335.160554142 L480.962390358,334.535569534 L491.889282491,328.912074966 L502.673714136,319.617814898 L513.631571084,317.160160762 L520.968173805,308.282238407 L523.62773131,308.496331645 L525.619364972,310.12183183 L528.482687542,314.550949134 L530.091451113,315.51892134 L531.711740551,314.824979089 L540.126190682,298.682548328 L544.146427663,287.183449191 L543.832252503,281.817149746 L540.048028746,269.270180519 L540.063468759,263.332260912 L542.279015674,259.43474636 L551.078221361,250.70829594 L552.95894537,247.009956321 L553.45530332,226.494517771 L556.599468424,219.617658905 L558.005578525,212.180240335 L561.460805011,204.722738206 L562.535425158,196.653690619 L565.593359629,191.386482898 L566.422089395,187.931460123 L563.577874479,181.209489937 L559.027248093,177.129986431 L547.718171457,172.782085684 L550.529328178,164.832189189 L555.763513221,142.336423263 L564.641131134,132.784465296 L566.694102637,127.37980332 L578.187801717,106.00595448 L580.601143274,106.789678297 L611.169774453,118.143915976 L622.83556552,125.687044756 L632.759852768,129.735321283 L636.788346373,133.846469395 L634.887807852,136.574492162 L632.957591289,143.249271932 L629.291892756,146.209123708 L627.58998471,150.212365593 L618.434395461,160.53275853 L615.353022569,165.412652654 L613.861378912,170.934395692 L615.341149412,177.61064206 L615.015787055,180.082866474 L609.761159536,184.100688948 L608.991305308,185.751234211 L610.353194155,189.817611975 L610.389721911,210.503542595 L610.940825438,212.757737384 L615.661144157,215.073850939 L617.664381635,218.160875666 L617.300229143,228.325006244 L619.710940214,235.757244485 L619.722998681,242.618024036 L615.620422506,251.645799151 L615.149722571,255.888550908 L618.099544842,273.950905059 L623.244605906,284.568915813 L624.74288825,291.790815966 L624.906451222,296.049878097 L621.9959306,302.05408239 L622.669868564,304.909834383 L624.63802555,307.187776739 L634.120004471,311.457292136 L634.777834443,314.910461917 L631.353529275,325.837391728 L631.577687838,329.992517424 L633.181983385,332.799180529 L638.937452942,337.9407863 L641.819163114,345.372721534 L646.42664576,349.93614363 L650.605035132,357.664630108 L655.071375482,360.69583108 L659.658407384,367.982089588 L670.076529156,372.309981547 L675.316413409,379.283330106 L678.773725017,391.164870354 L682.813904952,398.12321584 L688.240105744,396.953067949 L692.125589875,399.937400416 L693.138681693,402.048221901 L690.222634697,415.452764497 L690.79340789,428.123551516 L688.055552167,434.834366858 L681.949179389,441.161064751 L679.639839157,449.641344945 L677.834553895,452.55344271 L672.106380108,456.640543454 L661.641630765,470.864080613 L655.828335048,483.131739106 L659.735177268,482.528835105 L661.575001494,484.941719734 L661.594114814,492.274818435 L659.299546764,494.56367227 L661.599731144,496.274694755 L662.931655479,502.670930077 L660.245043732,504.839069599 L661.15350743,507.192729041 L663.907322461,509.535209669 L663.988822603,511.838072191 L662.777122896,516.965124587 L659.945160504,521.341057062 L659.227478076,525.021515313 L662.793261462,529.085965028 L659.645132226,531.566174418 L655.679807779,541.934378129 L643.432700665,558.441370243 L637.534325792,570.394876784 L630.977946746,586.928078648 L628.25666516,590.99091549 L620.201425291,599.014903385 L611.921886766,600.234415451 L608.423296487,602.185241888 L603.89647583,613.607011971 L601.999425881,615.071514907 L598.69952844,615.420454715 L593.038294578,613.71101486 L590.600554294,614.137071467 L587.895051348,617.411178611 L581.478885413,619.051940518 L574.88712404,618.64115439 L572.927309641,617.664399599 L572.484288861,612.912612533 L570.970964869,609.105075856 L571.935195225,605.944992932 L574.076760553,605.519321413 L574.354627924,604.480407881 L572.315948262,596.639611678 L566.354523658,593.934598117 L563.529442907,594.057757004 L558.024767965,597.013104565 L549.698852608,599.476670393 L543.233138843,597.160933226 L526.665864834,581.140585504 L525.951191289,579.583016712 L526.4983524,577.280400454 L530.856427156,571.75582647 L529.941461215,570.094521154 L520.06320034,573.181249471 L510.204307635,580.785430525 L502.69338607,584.207594511 L500.046407435,582.702741902 L500.636987224,579.508770787 L499.844180879,577.951196517 L494.090503282,578.429595 L480.62334291,588.725236097 L476.692922256,588.484154296 L474.716136396,586.044085272 L472.052140816,585.075533445 L469.06642903,585.310065525 L466.163662508,586.487910094 L463.339606357,589.232212281 L460.556062667,598.000191298 L455.751157108,600.069744638 L443.163045584,599.128676286 L420.590267811,599.442622096 L414.34431849,602.3421933 L401.051109784,605.648256231 L397.712579665,604.955759773 L395.945440481,603.55361988 L392.750889518,598.421214602 L376.394444372,593.252669427 L363.504125821,583.661011762 L357.471664877,583.945311037 L355.129144503,587.830761812 L353.342882684,594.96188346 L352.356661411,605.321435942 L346.138527738,613.991988447 L344.131547338,614.908865998 L339.195720573,613.176508032 L337.119193785,613.651910245 L332.363309607,621.136927623 L329.870697345,629.202515983 L331.811881429,630.484052142 L342.311781802,631.664134759 L345.497675695,634.590288046 L347.041521976,641.17697373 L349.317569764,644.734627001 L355.307124908,649.106579039 L361.339807408,656.879672268 L368.365669841,663.679071581 L368.892172011,665.812526793 L367.467697601,671.013782521 L368.615159347,685.142701155 L367.726080048,691.17488303 L362.369521302,696.691462779 L351.274052329,700.0 L340.658486853,697.812482841 L330.104494581,693.586349003 L319.236782843,690.774752853 L308.446536201,690.944387987 L295.951789069,684.392236429 L292.712273537,684.010125229 L284.621105454,685.543077491 L282.156693669,685.040002814 L273.392578324,681.868146276 L271.813614591,678.301344594 L270.333686058,677.114824627 L266.798453812,675.983523057 L263.242655114,672.558424894 L256.891357661,669.265879406 L240.370732025,668.98795105 L235.756117835,667.102412622 L219.547250365,644.25644105 L215.392543581,628.221761592 L213.257309949,624.965262373 L206.305840281,622.6655992 L205.680888651,615.13387432 L203.803250006,611.392612138 L197.777869871,606.158627125 L196.496288519,603.118941896 L197.884596375,598.973649773 L194.283723099,594.771745693 L192.946435507,590.996095826 L194.35340005,585.690832979 L192.953109543,584.139896069 L187.133564787,587.458374731 L186.046746197,585.899031126 L186.637080499,579.034657143 L181.567793728,572.588554105 L182.715824055,565.5775576 L181.577610061,563.438034038 L178.075532042,565.399382829 L176.735835115,564.410991603 L175.733267995,557.813088666 L168.84078268,547.97044259 L171.049972895,542.371758492 L169.422973061,541.581998427 L163.101151534,542.821002557 L161.990720692,539.659637382 L164.905842644,533.628975957 L163.731997414,532.528011796 L156.782177572,534.804816734 L154.763411687,534.083631946 L153.479081488,530.939207593 L152.130666739,530.227501802 L149.219618817,519.825568756 L155.260326197,513.73866238 L154.454157155,511.252805367 L148.857913211,510.656393497 L146.709582679,509.423972883 L148.977980503,505.704257204 L148.096919771,500.897886496 L151.545382867,499.751260463 L148.824313234,491.349267328 L145.921144014,488.687060282 L144.393816064,485.628538307 L146.96860225,480.723284089 L145.934462033,479.682790456 L141.648585654,482.230478148 L138.09135896,480.588680844 L139.969419736,476.132617273 L137.785103698,470.414846184 L139.05878078,462.927527033 L137.038706095,458.153646229 L138.679775636,455.013353601 L139.080745871,449.195703025 L134.391177037,438.274250787 L129.058811058,442.412599988 L124.558664409,443.166840211 L114.749339794,439.482608669 L114.92664585,442.517844669 L113.749228195,443.983413009 L108.986852141,445.19574292 L106.110629698,447.602050428 L104.139000365,445.489948819 L96.1811902497,442.751732731 L94.5301158886,446.039159703 L91.1452112216,445.751265597 L83.051510329,441.24112202 L76.0501145184,438.966826449 L74.4146640886,434.369350159 L75.4791594895,428.829148484 L75.0941399402,425.663116466 L77.6629169582,420.727972075 L77.9127775425,417.766798773 L75.1608634954,414.656379648 L70.6507560807,411.801850908 L68.0240985983,411.207237557 L64.1274933442,402.564269853 L57.7151234766,398.4619449 L46.6938132302,393.265582221 L43.8210299557,386.611303109 L42.6817804465,375.786446584 L39.1164062984,368.146957846 L27.8820861681,352.487956173 L16.8312742966,343.769766507 L12.7656359046,338.656256463 L6.86131830691,311.244177933 L7.16752111981,307.775770983 L9.51792591545,304.218281837 L26.0943496184,286.514973232 L27.5602044141,278.992228841 L25.6713860657,271.021978232 L26.3501830812,267.957744898 L31.5527508114,261.065805285 L32.8127775957,255.517511996 L38.7956649645,243.340281332 L41.4813663877,234.816988849 L45.8576515738,227.598167136 L46.1020077268,224.420241849 L40.2196413944,215.706009854 L37.9908330747,208.804403419 L32.4053137569,205.516638579 L31.1441888702,203.20416457 L32.3183243894,197.573536351 L45.1010731801,180.833520657 L47.2137646983,180.307679146 L52.5509357344,182.000676489 L56.6703262633,181.446365458 L58.6296132941,179.928175443 L61.1722562549,175.163985184 L65.693691983,170.856321716 L71.3390704252,168.115277225 L77.6543169331,167.770643748 L84.2465216523,170.652362124 L91.6276500105,168.036790506 L99.80234148,167.163670977 L104.386629042,170.709477142 L122.690638023,168.346674587 L131.425507413,165.295062796 L137.97114466,165.947748278 L139.658070345,164.977789946 L133.541525153,159.455736059 L132.790848646,157.579228379 L138.28584144,140.691361819 L140.18082078,139.709054257 L145.292073213,140.483712834 L147.62361378,145.558914771 L152.890677608,142.974080576 L154.944000304,141.035184945 L155.774198063,138.703763837 L154.523503964,135.345728417 L148.941217693,128.557063578 L147.8069779,125.712036626 L165.860182666,123.982765008 L233.248879537,113.711561638 L273.548658608,116.533045954 L289.314686164,115.955003732 L294.250286305,113.173344198 L300.702893732,107.173112757 L306.661138428,104.668994119 L316.36076756,103.916428114 L332.90352298,104.812759935 L344.719776989,103.505105202 L347.672623554,97.7942941277 L350.743870647,96.89590396 L353.990323053,92.6565246055 L360.848779442,88.9814105545 L359.719841862,82.809569288 L368.758557105,79.2475039686 L359.904038325,105.88493716 L354.81857038,143.827553774 L354.97488302,152.431026288 L364.637937877,154.625110982 L382.139976968,151.142635071 L396.207697162,155.05722788 L402.126536077,159.307401403 L405.459123332,171.260315164 L409.083154479,173.346230015 L416.335535659,171.813955735 L428.729964977,166.169144672 L434.178955384,157.910914459 L438.24036454,156.196126062 Z" fill="#cee3f5" id="SR.SI" stroke="#6e6e6e" stroke-width="0.4"><desc><labelrank>6</labelrank><code_hasc>SR.SI</code_hasc><name>Sipaliwini</name><admin>Suriname</admin><type_en>District</type_en><region /><woe_id>2346414</woe_id><longitude>-55</longitude><woe_name>Sipaliwini</woe_name><fips>NS18</fips><woe_label>Sipaliwini, SR, Suriname</woe_label><latitude>3</latitude><iso_a2>SR</iso_a2><postal>SI</postal><type>Distrikt</type><id>SR.SI</id></desc></path><path d="M572.037592299,6.25947525306 L570.023080026,11.9134386337 L571.259925985,25.2771822389 L566.15885554,33.4403955823 L566.477296125,39.8457274422 L572.217286918,55.2102209896 L585.067270519,75.8427847509 L517.52003552,80.5019871711 L514.379228152,79.5013099173 L514.694369327,70.1180255024 L513.449160902,65.4019239595 L507.640025616,66.4466933064 L510.005973638,60.8352868611 L516.029482865,57.9290810432 L518.017651996,56.2476048526 L516.567037081,53.9900444575 L506.5571604,50.4345451902 L500.994569227,45.488960609 L498.463303269,41.3106457834 L496.225396366,35.400858812 L501.005258803,32.0625607019 L505.628153506,30.526714048 L508.222210432,21.7637976722 L511.928573962,21.7456494367 L517.474851244,25.6111489253 L520.874814271,26.3159700591 L525.725744408,24.6469756696 L530.909645979,27.1826494679 L539.299485924,22.9659103921 L545.549727632,26.2831584837 L540.969980498,21.7230565996 L537.230480213,21.5228562091 L533.755083471,23.931827979 L529.91605143,24.2881716045 L524.977329665,22.1482555087 L522.31497613,23.6805993274 L519.786271833,23.5637069996 L514.636078038,20.1686584507 L501.486614285,15.7662010662 L498.577434964,13.8470758988 L495.723249507,9.16101997231 L498.314430201,6.45608735557 L502.949306774,4.60752013696 L520.212185197,3.22494908647 L560.517456235,4.53018453642 L572.037592299,6.25947525306 Z" fill="#cee3f5" id="SR.CM" stroke="#6e6e6e" stroke-width="0.4"><desc><labelrank>6</labelrank><code_hasc>SR.CM</code_hasc><name>Commewijne</name><admin>Suriname</admin><type_en>District</type_en><region /><woe_id>2346407</woe_id><longitude>-54</longitude><woe_name>Commewijne</woe_name><fips>NS13</fips><woe_label>Commewijne, SR, Suriname</woe_label><latitude>5</latitude><iso_a2>SR</iso_a2><postal>CM</postal><type>Distrikt</type><id>SR.CM</id></desc></path><path d="M372.05895854,56.3300884354 L369.390704771,59.539408868 L360.86632382,61.1715453803 L359.113378655,63.9144632773 L360.156610452,67.3511883524 L367.805836647,76.0792520336 L368.758557105,79.2475039686 L359.719841862,82.809569288 L360.848779442,88.9814105545 L353.990323053,92.6565246055 L350.743870647,96.89590396 L347.672623554,97.7942941277 L344.719776989,103.505105202 L332.90352298,104.812759935 L316.36076756,103.916428114 L306.661138428,104.668994119 L300.702893732,107.173112757 L294.250286305,113.173344198 L289.314686164,115.955003732 L273.548658608,116.533045954 L276.571612878,113.792943983 L277.341409769,112.261796658 L277.300000759,110.703653604 L272.976851957,102.639236978 L271.884532254,102.040514775 L270.170213537,102.713397329 L268.615610563,107.134598214 L267.587001611,107.505413874 L262.240601835,105.827313134 L262.050766418,105.099916697 L262.42527962,104.079009997 L263.064419491,103.041165587 L263.210193017,101.188933027 L265.682664287,98.1194488446 L266.448313605,96.5191161587 L266.612072978,94.1735075172 L266.154573765,92.5541522824 L265.323705298,91.2026086017 L259.771605673,85.5160572195 L259.149581254,83.8184928276 L259.411320171,82.7974330525 L262.516688261,82.7414035462 L266.393383287,80.0721853545 L269.483372431,81.6346428105 L270.350925901,81.5059987844 L270.846410317,80.7189668132 L271.239586426,78.6333645304 L270.916681122,76.9276494971 L270.51928954,75.7844814197 L264.385016731,68.3833211505 L260.174261935,59.8592258904 L259.454353899,54.2661053134 L254.358542208,44.1820306331 L253.58958703,10.3777767079 L295.291163805,19.7611761368 L303.88161541,20.1333168181 L333.991697574,27.6086688534 L354.968288009,33.8764804147 L365.565612865,34.8954614651 L371.007644552,39.639025135 L371.989766735,41.8748208491 L372.05895854,56.3300884354 Z" fill="#cee3f5" id="SR.CR" stroke="#6e6e6e" stroke-width="0.4"><desc><labelrank>6</labelrank><code_hasc>SR.CR</code_hasc><name>Coronie</name><admin>Suriname</admin><type_en>District</type_en><region /><woe_id>2346408</woe_id><longitude>-56</longitude><woe_name>Coronie</woe_name><fips>NS12</fips><woe_label>Coronie, SR, Suriname</woe_label><latitude>5</latitude><iso_a2>SR</iso_a2><postal>CR</postal><type>Distrikt</type><id>SR.CR</id></desc></path><path d="M501.005258803,32.0625607019 L496.225396366,35.400858812 L498.463303269,41.3106457834 L491.278476346,38.9801323536 L487.175213862,35.7983359928 L484.186635118,27.8202503113 L484.02647025,18.5019639474 L490.970210253,19.3357741913 L497.764843466,17.5234331817 L503.977247468,22.0408664541 L505.275062745,24.5116227137 L503.268156194,29.4187825496 L501.005258803,32.0625607019 Z" fill="#cee3f5" id="SR.PM" stroke="#6e6e6e" stroke-width="0.4"><desc><labelrank>9</labelrank><code_hasc>SR.PM</code_hasc><name>Paramaribo</name><admin>Suriname</admin><type_en>District</type_en><region /><woe_id>2346412</woe_id><longitude>-55</longitude><woe_name>Paramaribo</woe_name><fips>NS16</fips><woe_label>Paramaribo, SR, Suriname</woe_label><latitude>5</latitude><iso_a2>SR</iso_a2><postal>PM</postal><type>Distrikt</type><id>SR.PM</id></desc></path><path d="M480.09121234,15.928052207 L469.19770474,38.9449234496 L463.067714525,44.9988694431 L462.477192086,50.9282286156 L463.516768812,56.9951427474 L464.815381356,60.9759217896 L457.637556691,64.7363050346 L457.239229086,65.8530590919 L459.535052022,70.0238096353 L456.644720049,73.6086293569 L454.574771931,79.4087560137 L455.373732244,81.6501313443 L458.644972168,84.6692676872 L458.45097017,86.9457410491 L455.756502329,93.2049136834 L450.548586058,95.0854565713 L447.847850715,98.254415988 L444.702570648,95.9705905578 L440.287986929,97.7204703137 L389.282653612,101.705334038 L380.595539223,99.8338290052 L371.582180949,101.475523928 L370.355053527,100.574924004 L369.325474659,93.4944625592 L373.204844144,87.3505720496 L373.339863827,85.6628244556 L368.758557105,79.2475039686 L367.805836647,76.0792520336 L360.156610452,67.3511883524 L359.113378655,63.9144632773 L360.86632382,61.1715453803 L369.390704771,59.539408868 L372.05895854,56.3300884354 L373.233774694,56.3305152143 L374.11541699,53.693312178 L374.282159747,45.4059787046 L369.029899111,32.0310704194 L371.614307715,28.6499766004 L369.930768985,27.1495303443 L365.912403544,27.3305078977 L363.579549732,25.3708149342 L363.028153817,22.0223463074 L363.784143872,19.5133322844 L367.653461426,14.2637523533 L371.505545333,10.2286958786 L376.984404879,7.23795795464 L380.943862679,6.20931015834 L415.667909266,4.54712170923 L456.306810087,6.5499393059 L466.205809384,8.41478750057 L470.919951425,11.6542060297 L477.135022649,13.8859440026 L480.09121234,15.928052207 Z" fill="#cee3f5" id="SR.SA" stroke="#6e6e6e" stroke-width="0.4"><desc><labelrank>6</labelrank><code_hasc>SR.SA</code_hasc><name>Saramacca</name><admin>Suriname</admin><type_en>District</type_en><region /><woe_id>2346413</woe_id><longitude>-55</longitude><woe_name>Saramacca</woe_name><fips>NS17</fips><woe_label>Saramacca, SR, Suriname</woe_label><latitude>5</latitude><iso_a2>SR</iso_a2><postal>SA</postal><type>Distrikt</type><id>SR.SA</id></desc></path><path d="M484.02647025,18.5019639474 L484.186635118,27.8202503113 L487.175213862,35.7983359928 L491.278476346,38.9801323536 L498.463303269,41.3106457834 L500.994569227,45.488960609 L506.5571604,50.4345451902 L516.567037081,53.9900444575 L518.017651996,56.2476048526 L516.029482865,57.9290810432 L507.598430849,55.4278880364 L503.345105467,55.2244208886 L485.416476838,58.6939805321 L479.771706505,58.8541055394 L463.516768812,56.9951427474 L462.477192086,50.9282286156 L463.067714525,44.9988694431 L469.19770474,38.9449234496 L480.09121234,15.928052207 L484.02647025,18.5019639474 Z" fill="#cee3f5" id="SR.WA" stroke="#6e6e6e" stroke-width="0.4"><desc><labelrank>6</labelrank><code_hasc>SR.WA</code_hasc><name>Wanica</name><admin>Suriname</admin><type_en>District</type_en><region /><woe_id>2346415</woe_id><longitude>-55</longitude><woe_name>Wanica</woe_name><fips>NS19</fips><woe_label>Wanica, SR, Suriname</woe_label><latitude>5</latitude><iso_a2>SR</iso_a2><postal>WA</postal><type>Distrikt</type><id>SR.WA</id></desc></path></svg>