<?xml version='1.0' encoding='utf-8'?>
<svg height="700" width="700" xmlns="http://www.w3.org/2000/svg"><path d="M93.1451612903,214.516129032 L107.258064516,234.274193548 L101.612903226,249.798387097 L97.3790322581,296.370967742 L87.5,350.0 L2.82258064516,347.177419355 L0.0,340.120967742 L46.5725806452,213.10483871 L93.1451612903,214.516129032 Z" fill="#cee3f5" id="US.MA.003" stroke="#6e6e6e" stroke-width="0.4"><desc><name>Berkshire County</name><stateAbbrev>MA</stateAbbrev><state>Massachusetts</state><fips>003</fips><incits>25003</incits><id>US.MA.003</id><population>129585</population></desc></path><path d="M431.85483871,215.927419355 L455.846774194,198.991935484 L495.362903226,187.701612903 L530.64516129,191.935483871 L539.112903226,217.338709677 L568.75,218.75 L572.983870968,241.330645161 L532.056451613,262.5 L515.120967742,280.846774194 L501.008064516,283.669354839 L477.016129032,270.967741935 L455.846774194,241.330645161 L431.85483871,231.451612903 L431.85483871,215.927419355 Z" fill="#cee3f5" id="US.MA.009" stroke="#6e6e6e" stroke-width="0.4"><desc><name>Essex County</name><stateAbbrev>MA</stateAbbrev><state>Massachusetts</state><fips>009</fips><incits>25009</incits><id>US.MA.009</id><population>762550</population></desc></path><path d="M97.3790322581,296.370967742 L139.717741935,318.951612903 L246.975806452,310.483870968 L263.911290323,326.008064516 L263.911290323,351.411290323 L179.233870968,351.411290323 L87.5,350.0 L97.3790322581,296.370967742 Z" fill="#cee3f5" id="US.MA.013" stroke="#6e6e6e" stroke-width="0.4"><desc><name>Hampden County</name><stateAbbrev>MA</stateAbbrev><state>Massachusetts</state><fips>013</fips><incits>25013</incits><id>US.MA.013</id><population>467319</population></desc></path><path d="M101.612903226,249.798387097 L122.782258065,263.911290323 L155.241935484,269.556451613 L153.830645161,279.435483871 L196.169354839,273.790322581 L217.338709677,276.612903226 L228.629032258,290.725806452 L246.975806452,310.483870968 L139.717741935,318.951612903 L97.3790322581,296.370967742 L101.612903226,249.798387097 Z" fill="#cee3f5" id="US.MA.015" stroke="#6e6e6e" stroke-width="0.4"><desc><name>Hampshire County</name><stateAbbrev>MA</stateAbbrev><state>Massachusetts</state><fips>015</fips><incits>25015</incits><id>US.MA.015</id><population>159596</population></desc></path><path d="M235.685483871,218.75 L309.072580645,220.161290323 L318.951612903,234.274193548 L354.233870968,239.919354839 L378.225806452,252.620967742 L373.991935484,278.024193548 L361.290322581,289.314516129 L369.758064516,318.951612903 L389.516129032,327.419354839 L385.282258065,354.233870968 L263.911290323,351.411290323 L263.911290323,326.008064516 L246.975806452,310.483870968 L228.629032258,290.725806452 L235.685483871,245.564516129 L245.564516129,230.040322581 L235.685483871,218.75 Z" fill="#cee3f5" id="US.MA.027" stroke="#6e6e6e" stroke-width="0.4"><desc><name>Worcester County</name><stateAbbrev>MA</stateAbbrev><state>Massachusetts</state><fips>027</fips><incits>25027</incits><id>US.MA.027</id><population>809106</population></desc></path><path d="M93.1451612903,214.516129032 L235.685483871,218.75 L245.564516129,230.040322581 L235.685483871,245.564516129 L228.629032258,290.725806452 L217.338709677,276.612903226 L196.169354839,273.790322581 L153.830645161,279.435483871 L155.241935484,269.556451613 L122.782258065,263.911290323 L101.612903226,249.798387097 L107.258064516,234.274193548 L93.1451612903,214.516129032 Z" fill="#cee3f5" id="US.MA.011" stroke="#6e6e6e" stroke-width="0.4"><desc><name>Franklin County</name><stateAbbrev>MA</stateAbbrev><state>Massachusetts</state><fips>011</fips><incits>25011</incits><id>US.MA.011</id><population>71221</population></desc></path><path d="M407.862903226,359.879032258 L465.725806452,338.709677419 L471.370967742,364.112903226 L503.830645161,403.629032258 L512.298387097,430.443548387 L527.822580645,440.322580645 L527.822580645,440.322580645 L474.193548387,469.959677419 L462.903225806,465.725806452 L455.846774194,421.975806452 L417.741935484,399.39516129 L407.862903226,359.879032258 Z" fill="#cee3f5" id="US.MA.005" stroke="#6e6e6e" stroke-width="0.4"><desc><name>Bristol County</name><stateAbbrev>MA</stateAbbrev><state>Massachusetts</state><fips>005</fips><incits>25005</incits><id>US.MA.005</id><population>552780</population></desc></path><path d="M309.072580645,220.161290323 L424.798387097,222.983870968 L431.85483871,215.927419355 L431.85483871,231.451612903 L455.846774194,241.330645161 L477.016129032,270.967741935 L444.556451613,302.016129032 L389.516129032,327.419354839 L369.758064516,318.951612903 L361.290322581,289.314516129 L373.991935484,278.024193548 L378.225806452,252.620967742 L354.233870968,239.919354839 L318.951612903,234.274193548 L309.072580645,220.161290323 Z" fill="#cee3f5" id="US.MA.017" stroke="#6e6e6e" stroke-width="0.4"><desc><name>Middlesex County</name><stateAbbrev>MA</stateAbbrev><state>Massachusetts</state><fips>017</fips><incits>25017</incits><id>US.MA.017</id><population>1552802</population></desc></path><path d="M389.516129032,327.419354839 L444.556451613,302.016129032 L489.717741935,299.193548387 L499.596774194,306.25 L495.362903226,326.008064516 L465.725806452,338.709677419 L407.862903226,359.879032258 L385.282258065,354.233870968 L389.516129032,327.419354839 Z" fill="#cee3f5" id="US.MA.021" stroke="#6e6e6e" stroke-width="0.4"><desc><name>Norfolk County</name><stateAbbrev>MA</stateAbbrev><state>Massachusetts</state><fips>021</fips><incits>25021</incits><id>US.MA.021</id><population>687802</population></desc></path><path d="M465.725806452,338.709677419 L495.362903226,326.008064516 L499.596774194,306.25 L489.717741935,299.193548387 L519.35483871,292.137096774 L523.588709677,294.959677419 L532.056451613,297.782258065 L540.524193548,303.427419355 L582.862903226,368.346774194 L585.685483871,390.927419355 L554.637096774,405.040322581 L527.822580645,440.322580645 L512.298387097,430.443548387 L503.830645161,403.629032258 L471.370967742,364.112903226 L465.725806452,338.709677419 Z" fill="#cee3f5" id="US.MA.023" stroke="#6e6e6e" stroke-width="0.4"><desc><name>Plymouth County</name><stateAbbrev>MA</stateAbbrev><state>Massachusetts</state><fips>023</fips><incits>25023</incits><id>US.MA.023</id><population>501915</population></desc></path><path d="M527.822580645,440.322580645 L527.822580645,440.322580645 L554.637096774,405.040322581 L585.685483871,390.927419355 L598.387096774,396.572580645 L644.959677419,392.338709677 L644.959677419,368.346774194 L615.322580645,350.0 L625.201612903,333.064516129 L656.25,334.475806452 L673.185483871,344.35483871 L690.120967742,365.524193548 L700.0,396.572580645 L698.588709677,424.798387097 L685.887096774,447.379032258 L626.612903226,441.733870968 L596.975806452,441.733870968 L581.451612903,457.258064516 L543.346774194,448.790322581 L527.822580645,440.322580645 Z" fill="#cee3f5" id="US.MA.001" stroke="#6e6e6e" stroke-width="0.4"><desc><name>Barnstable County</name><stateAbbrev>MA</stateAbbrev><state>Massachusetts</state><fips>001</fips><incits>25001</incits><id>US.MA.001</id><population>214990</population></desc></path><path d="M444.556451613,302.016129032 L477.016129032,270.967741935 L501.008064516,283.669354839 L515.120967742,280.846774194 L519.35483871,292.137096774 L489.717741935,299.193548387 L444.556451613,302.016129032 Z" fill="#cee3f5" id="US.MA.025" stroke="#6e6e6e" stroke-width="0.4"><desc><name>Suffolk County</name><stateAbbrev>MA</stateAbbrev><state>Massachusetts</state><fips>025</fips><incits>25025</incits><id>US.MA.025</id><population>755503</population></desc></path><path d="M596.975806452,496.774193548 L611.088709677,472.782258065 L644.959677419,482.661290323 L663.306451613,464.314516129 L681.653225806,474.193548387 L692.943548387,492.540322581 L688.709677419,508.064516129 L652.016129032,512.298387097 L596.975806452,496.774193548 Z" fill="#cee3f5" id="US.MA.019" stroke="#6e6e6e" stroke-width="0.4"><desc><name>Nantucket County</name><stateAbbrev>MA</stateAbbrev><state>Massachusetts</state><fips>019</fips><incits>25019</incits><id>US.MA.019</id><population>10399</population></desc></path><path d="M474.193548387,469.959677419 L527.822580645,440.322580645 L543.346774194,448.790322581 L581.451612903,457.258064516 L611.088709677,472.782258065 L596.975806452,496.774193548 L574.39516129,491.129032258 L539.112903226,492.540322581 L527.822580645,508.064516129 L508.064516129,508.064516129 L505.241935484,491.129032258 L474.193548387,469.959677419 Z" fill="#cee3f5" id="US.MA.007" stroke="#6e6e6e" stroke-width="0.4"><desc><name>Dukes County</name><stateAbbrev>MA</stateAbbrev><state>Massachusetts</state><fips>007</fips><incits>25007</incits><id>US.MA.007</id><population>17256</population></desc></path></svg>