<?xml version='1.0' encoding='utf-8'?>
<svg height="700" width="700" xmlns="http://www.w3.org/2000/svg"><path d="M21.7054263566,430.717054264 L23.0620155039,353.391472868 L99.0310077519,362.887596899 L97.6744186047,407.65503876 L51.5503875969,406.298449612 L52.9069767442,430.717054264 L21.7054263566,430.717054264 Z" fill="#cee3f5" id="US.AR.113" stroke="#6e6e6e" stroke-width="0.4"><desc><name>Polk County</name><stateAbbrev>AR</stateAbbrev><state>Arkansas</state><fips>113</fips><incits>05113</incits><id>US.AR.113</id><population>20406</population></desc></path><path d="M107.170542636,99.7093023256 L107.170542636,126.841085271 L104.457364341,137.69379845 L40.6976744186,140.406976744 L32.5581395349,156.686046512 L9.49612403101,156.686046512 L0.0,99.7093023256 L107.170542636,99.7093023256 Z" fill="#cee3f5" id="US.AR.007" stroke="#6e6e6e" stroke-width="0.4"><desc><name>Benton County</name><stateAbbrev>AR</stateAbbrev><state>Arkansas</state><fips>007</fips><incits>05007</incits><id>US.AR.007</id><population>237297</population></desc></path><path d="M188.565891473,153.972868217 L188.565891473,99.7093023256 L252.325581395,99.7093023256 L246.899224806,155.329457364 L240.11627907,153.972868217 L188.565891473,153.972868217 Z" fill="#cee3f5" id="US.AR.009" stroke="#6e6e6e" stroke-width="0.4"><desc><name>Boone County</name><stateAbbrev>AR</stateAbbrev><state>Arkansas</state><fips>009</fips><incits>05009</incits><id>US.AR.009</id><population>37396</population></desc></path><path d="M107.170542636,99.7093023256 L188.565891473,99.7093023256 L188.565891473,153.972868217 L162.790697674,152.61627907 L135.658914729,126.841085271 L107.170542636,126.841085271 L107.170542636,99.7093023256 Z" fill="#cee3f5" id="US.AR.015" stroke="#6e6e6e" stroke-width="0.4"><desc><name>Carroll County</name><stateAbbrev>AR</stateAbbrev><state>Arkansas</state><fips>015</fips><incits>05015</incits><id>US.AR.015</id><population>27808</population></desc></path><path d="M299.80620155,99.7093023256 L352.713178295,99.7093023256 L352.713178295,133.624031008 L347.286821705,152.61627907 L316.085271318,174.321705426 L316.085271318,162.112403101 L307.945736434,134.980620155 L293.023255814,124.127906977 L299.80620155,99.7093023256 Z" fill="#cee3f5" id="US.AR.005" stroke="#6e6e6e" stroke-width="0.4"><desc><name>Baxter County</name><stateAbbrev>AR</stateAbbrev><state>Arkansas</state><fips>005</fips><incits>05005</incits><id>US.AR.005</id><population>40957</population></desc></path><path d="M549.418604651,99.7093023256 L640.310077519,99.7093023256 L652.519379845,115.988372093 L634.88372093,141.763565891 L615.891472868,133.624031008 L546.705426357,133.624031008 L549.418604651,99.7093023256 Z" fill="#cee3f5" id="US.AR.021" stroke="#6e6e6e" stroke-width="0.4"><desc><name>Clay County</name><stateAbbrev>AR</stateAbbrev><state>Arkansas</state><fips>021</fips><incits>05021</incits><id>US.AR.021</id><population>15402</population></desc></path><path d="M514.147286822,212.30620155 L514.147286822,187.887596899 L539.92248062,175.678294574 L607.751937984,171.608527132 L619.96124031,171.608527132 L621.317829457,213.662790698 L514.147286822,212.30620155 Z" fill="#cee3f5" id="US.AR.031" stroke="#6e6e6e" stroke-width="0.4"><desc><name>Craighead County</name><stateAbbrev>AR</stateAbbrev><state>Arkansas</state><fips>031</fips><incits>05031</incits><id>US.AR.031</id><population>101488</population></desc></path><path d="M17.6356589147,205.523255814 L93.6046511628,205.523255814 L101.744186047,205.523255814 L77.3255813953,250.290697674 L42.0542635659,263.856589147 L27.1317829457,257.073643411 L17.6356589147,205.523255814 Z" fill="#cee3f5" id="US.AR.033" stroke="#6e6e6e" stroke-width="0.4"><desc><name>Crawford County</name><stateAbbrev>AR</stateAbbrev><state>Arkansas</state><fips>033</fips><incits>05033</incits><id>US.AR.033</id><population>61640</population></desc></path><path d="M590.11627907,251.647286822 L621.317829457,251.647286822 L641.666666667,251.647286822 L649.80620155,259.786821705 L647.093023256,297.771317829 L619.96124031,318.120155039 L603.682170543,338.468992248 L603.682170543,327.61627907 L605.03875969,293.701550388 L590.11627907,293.701550388 L590.11627907,251.647286822 Z" fill="#cee3f5" id="US.AR.035" stroke="#6e6e6e" stroke-width="0.4"><desc><name>Crittenden County</name><stateAbbrev>AR</stateAbbrev><state>Arkansas</state><fips>035</fips><incits>05035</incits><id>US.AR.035</id><population>49746</population></desc></path><path d="M512.790697674,293.701550388 L512.790697674,263.856589147 L512.790697674,251.647286822 L590.11627907,251.647286822 L590.11627907,293.701550388 L512.790697674,293.701550388 Z" fill="#cee3f5" id="US.AR.037" stroke="#6e6e6e" stroke-width="0.4"><desc><name>Cross County</name><stateAbbrev>AR</stateAbbrev><state>Arkansas</state><fips>037</fips><incits>05037</incits><id>US.AR.037</id><population>17548</population></desc></path><path d="M77.3255813953,250.290697674 L101.744186047,205.523255814 L131.589147287,204.166666667 L130.23255814,261.143410853 L100.387596899,281.492248062 L84.1085271318,284.205426357 L77.3255813953,250.290697674 Z" fill="#cee3f5" id="US.AR.047" stroke="#6e6e6e" stroke-width="0.4"><desc><name>Franklin County</name><stateAbbrev>AR</stateAbbrev><state>Arkansas</state><fips>047</fips><incits>05047</incits><id>US.AR.047</id><population>18034</population></desc></path><path d="M352.713178295,133.624031008 L352.713178295,99.7093023256 L454.457364341,99.7093023256 L453.100775194,122.771317829 L419.186046512,134.980620155 L352.713178295,133.624031008 Z" fill="#cee3f5" id="US.AR.049" stroke="#6e6e6e" stroke-width="0.4"><desc><name>Fulton County</name><stateAbbrev>AR</stateAbbrev><state>Arkansas</state><fips>049</fips><incits>05049</incits><id>US.AR.049</id><population>12304</population></desc></path><path d="M546.705426357,149.903100775 L546.705426357,133.624031008 L615.891472868,133.624031008 L634.88372093,141.763565891 L607.751937984,171.608527132 L539.92248062,175.678294574 L546.705426357,149.903100775 Z" fill="#cee3f5" id="US.AR.055" stroke="#6e6e6e" stroke-width="0.4"><desc><name>Greene County</name><stateAbbrev>AR</stateAbbrev><state>Arkansas</state><fips>055</fips><incits>05055</incits><id>US.AR.055</id><population>43097</population></desc></path><path d="M397.480620155,190.600775194 L416.472868217,179.748062016 L466.666666667,186.531007752 L489.728682171,186.531007752 L470.736434109,208.236434109 L465.310077519,239.437984496 L435.465116279,238.081395349 L405.620155039,238.081395349 L398.837209302,213.662790698 L397.480620155,190.600775194 Z" fill="#cee3f5" id="US.AR.063" stroke="#6e6e6e" stroke-width="0.4"><desc><name>Independence County</name><stateAbbrev>AR</stateAbbrev><state>Arkansas</state><fips>063</fips><incits>05063</incits><id>US.AR.063</id><population>36997</population></desc></path><path d="M352.713178295,133.624031008 L419.186046512,134.980620155 L416.472868217,179.748062016 L397.480620155,190.600775194 L347.286821705,152.61627907 L352.713178295,133.624031008 Z" fill="#cee3f5" id="US.AR.065" stroke="#6e6e6e" stroke-width="0.4"><desc><name>Izard County</name><stateAbbrev>AR</stateAbbrev><state>Arkansas</state><fips>065</fips><incits>05065</incits><id>US.AR.065</id><population>13368</population></desc></path><path d="M435.465116279,238.081395349 L465.310077519,239.437984496 L470.736434109,208.236434109 L489.728682171,186.531007752 L514.147286822,187.887596899 L514.147286822,212.30620155 L512.790697674,251.647286822 L512.790697674,263.856589147 L482.945736434,263.856589147 L469.379844961,251.647286822 L434.108527132,251.647286822 L435.465116279,238.081395349 Z" fill="#cee3f5" id="US.AR.067" stroke="#6e6e6e" stroke-width="0.4"><desc><name>Jackson County</name><stateAbbrev>AR</stateAbbrev><state>Arkansas</state><fips>067</fips><incits>05067</incits><id>US.AR.067</id><population>17615</population></desc></path><path d="M466.666666667,186.531007752 L468.023255814,137.69379845 L480.23255814,133.624031008 L499.224806202,147.189922481 L546.705426357,149.903100775 L539.92248062,175.678294574 L514.147286822,187.887596899 L489.728682171,186.531007752 L466.666666667,186.531007752 Z" fill="#cee3f5" id="US.AR.075" stroke="#6e6e6e" stroke-width="0.4"><desc><name>Lawrence County</name><stateAbbrev>AR</stateAbbrev><state>Arkansas</state><fips>075</fips><incits>05075</incits><id>US.AR.075</id><population>17011</population></desc></path><path d="M504.651162791,333.042635659 L504.651162791,327.61627907 L603.682170543,327.61627907 L603.682170543,338.468992248 L577.906976744,365.600775194 L511.434108527,365.600775194 L504.651162791,333.042635659 Z" fill="#cee3f5" id="US.AR.077" stroke="#6e6e6e" stroke-width="0.4"><desc><name>Lee County</name><stateAbbrev>AR</stateAbbrev><state>Arkansas</state><fips>077</fips><incits>05077</incits><id>US.AR.077</id><population>10015</population></desc></path><path d="M67.8294573643,300.484496124 L84.1085271318,284.205426357 L100.387596899,281.492248062 L130.23255814,261.143410853 L170.930232558,254.360465116 L188.565891473,267.926356589 L192.635658915,269.282945736 L130.23255814,295.058139535 L130.23255814,311.337209302 L78.6821705426,309.980620155 L67.8294573643,300.484496124 Z" fill="#cee3f5" id="US.AR.083" stroke="#6e6e6e" stroke-width="0.4"><desc><name>Logan County</name><stateAbbrev>AR</stateAbbrev><state>Arkansas</state><fips>083</fips><incits>05083</incits><id>US.AR.083</id><population>22082</population></desc></path><path d="M93.6046511628,205.523255814 L96.3178294574,158.042635659 L104.457364341,137.69379845 L107.170542636,126.841085271 L135.658914729,126.841085271 L162.790697674,152.61627907 L166.860465116,175.678294574 L157.364341085,205.523255814 L131.589147287,204.166666667 L101.744186047,205.523255814 L93.6046511628,205.523255814 Z" fill="#cee3f5" id="US.AR.087" stroke="#6e6e6e" stroke-width="0.4"><desc><name>Madison County</name><stateAbbrev>AR</stateAbbrev><state>Arkansas</state><fips>087</fips><incits>05087</incits><id>US.AR.087</id><population>15701</population></desc></path><path d="M246.899224806,155.329457364 L252.325581395,99.7093023256 L299.80620155,99.7093023256 L293.023255814,124.127906977 L307.945736434,134.980620155 L316.085271318,162.112403101 L255.03875969,160.755813953 L246.899224806,155.329457364 Z" fill="#cee3f5" id="US.AR.089" stroke="#6e6e6e" stroke-width="0.4"><desc><name>Marion County</name><stateAbbrev>AR</stateAbbrev><state>Arkansas</state><fips>089</fips><incits>05089</incits><id>US.AR.089</id><population>16430</population></desc></path><path d="M619.96124031,171.608527132 L700.0,171.608527132 L689.147286822,205.523255814 L674.224806202,225.872093023 L641.666666667,251.647286822 L621.317829457,251.647286822 L621.317829457,213.662790698 L619.96124031,171.608527132 Z" fill="#cee3f5" id="US.AR.093" stroke="#6e6e6e" stroke-width="0.4"><desc><name>Mississippi County</name><stateAbbrev>AR</stateAbbrev><state>Arkansas</state><fips>093</fips><incits>05093</incits><id>US.AR.093</id><population>44765</population></desc></path><path d="M466.666666667,327.61627907 L496.511627907,314.050387597 L504.651162791,333.042635659 L511.434108527,365.600775194 L510.07751938,409.011627907 L463.953488372,376.453488372 L466.666666667,327.61627907 Z" fill="#cee3f5" id="US.AR.095" stroke="#6e6e6e" stroke-width="0.4"><desc><name>Monroe County</name><stateAbbrev>AR</stateAbbrev><state>Arkansas</state><fips>095</fips><incits>05095</incits><id>US.AR.095</id><population>7682</population></desc></path><path d="M162.790697674,152.61627907 L188.565891473,153.972868217 L240.11627907,153.972868217 L238.759689922,210.949612403 L208.914728682,209.593023256 L157.364341085,205.523255814 L166.860465116,175.678294574 L162.790697674,152.61627907 Z" fill="#cee3f5" id="US.AR.101" stroke="#6e6e6e" stroke-width="0.4"><desc><name>Newton County</name><stateAbbrev>AR</stateAbbrev><state>Arkansas</state><fips>101</fips><incits>05101</incits><id>US.AR.101</id><population>8064</population></desc></path><path d="M501.937984496,440.213178295 L510.07751938,409.011627907 L511.434108527,365.600775194 L577.906976744,365.600775194 L583.333333333,380.523255814 L573.837209302,402.228682171 L525.0,440.213178295 L501.937984496,440.213178295 Z" fill="#cee3f5" id="US.AR.107" stroke="#6e6e6e" stroke-width="0.4"><desc><name>Phillips County</name><stateAbbrev>AR</stateAbbrev><state>Arkansas</state><fips>107</fips><incits>05107</incits><id>US.AR.107</id><population>20399</population></desc></path><path d="M514.147286822,212.30620155 L621.317829457,213.662790698 L621.317829457,251.647286822 L590.11627907,251.647286822 L512.790697674,251.647286822 L514.147286822,212.30620155 Z" fill="#cee3f5" id="US.AR.111" stroke="#6e6e6e" stroke-width="0.4"><desc><name>Poinsett County</name><stateAbbrev>AR</stateAbbrev><state>Arkansas</state><fips>111</fips><incits>05111</incits><id>US.AR.111</id><population>24145</population></desc></path><path d="M404.263565891,308.624031008 L451.744186047,301.841085271 L466.666666667,327.61627907 L463.953488372,376.453488372 L432.751937984,376.453488372 L421.899224806,388.662790698 L419.186046512,326.259689922 L404.263565891,308.624031008 Z" fill="#cee3f5" id="US.AR.117" stroke="#6e6e6e" stroke-width="0.4"><desc><name>Prairie County</name><stateAbbrev>AR</stateAbbrev><state>Arkansas</state><fips>117</fips><incits>05117</incits><id>US.AR.117</id><population>8374</population></desc></path><path d="M459.88372093,99.7093023256 L549.418604651,99.7093023256 L546.705426357,133.624031008 L546.705426357,149.903100775 L499.224806202,147.189922481 L480.23255814,133.624031008 L478.875968992,117.34496124 L459.88372093,99.7093023256 Z" fill="#cee3f5" id="US.AR.121" stroke="#6e6e6e" stroke-width="0.4"><desc><name>Randolph County</name><stateAbbrev>AR</stateAbbrev><state>Arkansas</state><fips>121</fips><incits>05121</incits><id>US.AR.121</id><population>17692</population></desc></path><path d="M496.511627907,314.050387597 L512.790697674,293.701550388 L590.11627907,293.701550388 L605.03875969,293.701550388 L603.682170543,327.61627907 L504.651162791,327.61627907 L504.651162791,333.042635659 L496.511627907,314.050387597 Z" fill="#cee3f5" id="US.AR.123" stroke="#6e6e6e" stroke-width="0.4"><desc><name>St. Francis County</name><stateAbbrev>AR</stateAbbrev><state>Arkansas</state><fips>123</fips><incits>05123</incits><id>US.AR.123</id><population>27260</population></desc></path><path d="M238.759689922,210.949612403 L240.11627907,153.972868217 L246.899224806,155.329457364 L255.03875969,160.755813953 L316.085271318,162.112403101 L316.085271318,174.321705426 L316.085271318,201.453488372 L284.88372093,201.453488372 L259.108527132,210.949612403 L238.759689922,210.949612403 Z" fill="#cee3f5" id="US.AR.129" stroke="#6e6e6e" stroke-width="0.4"><desc><name>Searcy County</name><stateAbbrev>AR</stateAbbrev><state>Arkansas</state><fips>129</fips><incits>05129</incits><id>US.AR.129</id><population>8023</population></desc></path><path d="M24.4186046512,323.546511628 L27.1317829457,257.073643411 L42.0542635659,263.856589147 L77.3255813953,250.290697674 L84.1085271318,284.205426357 L67.8294573643,300.484496124 L55.6201550388,319.476744186 L24.4186046512,323.546511628 Z" fill="#cee3f5" id="US.AR.131" stroke="#6e6e6e" stroke-width="0.4"><desc><name>Sebastian County</name><stateAbbrev>AR</stateAbbrev><state>Arkansas</state><fips>131</fips><incits>05131</incits><id>US.AR.131</id><population>127342</population></desc></path><path d="M416.472868217,179.748062016 L419.186046512,134.980620155 L453.100775194,122.771317829 L454.457364341,99.7093023256 L459.88372093,99.7093023256 L478.875968992,117.34496124 L480.23255814,133.624031008 L468.023255814,137.69379845 L466.666666667,186.531007752 L416.472868217,179.748062016 Z" fill="#cee3f5" id="US.AR.135" stroke="#6e6e6e" stroke-width="0.4"><desc><name>Sharp County</name><stateAbbrev>AR</stateAbbrev><state>Arkansas</state><fips>135</fips><incits>05135</incits><id>US.AR.135</id><population>17049</population></desc></path><path d="M316.085271318,201.453488372 L316.085271318,174.321705426 L347.286821705,152.61627907 L397.480620155,190.600775194 L398.837209302,213.662790698 L340.503875969,212.30620155 L316.085271318,201.453488372 Z" fill="#cee3f5" id="US.AR.137" stroke="#6e6e6e" stroke-width="0.4"><desc><name>Stone County</name><stateAbbrev>AR</stateAbbrev><state>Arkansas</state><fips>137</fips><incits>05137</incits><id>US.AR.137</id><population>12581</population></desc></path><path d="M253.682170543,247.57751938 L259.108527132,210.949612403 L284.88372093,201.453488372 L316.085271318,201.453488372 L340.503875969,212.30620155 L339.147286822,262.5 L306.589147287,261.143410853 L306.589147287,248.934108527 L253.682170543,247.57751938 Z" fill="#cee3f5" id="US.AR.141" stroke="#6e6e6e" stroke-width="0.4"><desc><name>Van Buren County</name><stateAbbrev>AR</stateAbbrev><state>Arkansas</state><fips>141</fips><incits>05141</incits><id>US.AR.141</id><population>16932</population></desc></path><path d="M9.49612403101,156.686046512 L32.5581395349,156.686046512 L40.6976744186,140.406976744 L104.457364341,137.69379845 L96.3178294574,158.042635659 L93.6046511628,205.523255814 L17.6356589147,205.523255814 L9.49612403101,156.686046512 Z" fill="#cee3f5" id="US.AR.143" stroke="#6e6e6e" stroke-width="0.4"><desc><name>Washington County</name><stateAbbrev>AR</stateAbbrev><state>Arkansas</state><fips>143</fips><incits>05143</incits><id>US.AR.143</id><population>216410</population></desc></path><path d="M358.139534884,304.554263566 L359.496124031,262.5 L396.124031008,262.5 L405.620155039,238.081395349 L435.465116279,238.081395349 L434.108527132,251.647286822 L469.379844961,251.647286822 L457.170542636,261.143410853 L462.596899225,280.135658915 L451.744186047,301.841085271 L404.263565891,308.624031008 L358.139534884,304.554263566 Z" fill="#cee3f5" id="US.AR.145" stroke="#6e6e6e" stroke-width="0.4"><desc><name>White County</name><stateAbbrev>AR</stateAbbrev><state>Arkansas</state><fips>145</fips><incits>05145</incits><id>US.AR.145</id><population>78483</population></desc></path><path d="M451.744186047,301.841085271 L462.596899225,280.135658915 L457.170542636,261.143410853 L469.379844961,251.647286822 L482.945736434,263.856589147 L512.790697674,263.856589147 L512.790697674,293.701550388 L496.511627907,314.050387597 L466.666666667,327.61627907 L451.744186047,301.841085271 Z" fill="#cee3f5" id="US.AR.147" stroke="#6e6e6e" stroke-width="0.4"><desc><name>Woodruff County</name><stateAbbrev>AR</stateAbbrev><state>Arkansas</state><fips>147</fips><incits>05147</incits><id>US.AR.147</id><population>7072</population></desc></path><path d="M20.3488372093,465.988372093 L46.1240310078,483.624031008 L94.9612403101,493.120155039 L113.953488372,513.468992248 L82.7519379845,521.608527132 L65.1162790698,516.182170543 L36.6279069767,521.608527132 L18.992248062,509.399224806 L20.3488372093,465.988372093 Z" fill="#cee3f5" id="US.AR.081" stroke="#6e6e6e" stroke-width="0.4"><desc><name>Little River County</name><stateAbbrev>AR</stateAbbrev><state>Arkansas</state><fips>081</fips><incits>05081</incits><id>US.AR.081</id><population>12730</population></desc></path><path d="M23.0620155039,353.391472868 L24.4186046512,323.546511628 L55.6201550388,319.476744186 L67.8294573643,300.484496124 L78.6821705426,309.980620155 L130.23255814,311.337209302 L130.23255814,350.678294574 L99.0310077519,362.887596899 L23.0620155039,353.391472868 Z" fill="#cee3f5" id="US.AR.127" stroke="#6e6e6e" stroke-width="0.4"><desc><name>Scott County</name><stateAbbrev>AR</stateAbbrev><state>Arkansas</state><fips>127</fips><incits>05127</incits><id>US.AR.127</id><population>10950</population></desc></path><path d="M20.3488372093,465.988372093 L21.7054263566,430.717054264 L52.9069767442,430.717054264 L74.6124031008,430.717054264 L81.3953488372,472.771317829 L94.9612403101,493.120155039 L46.1240310078,483.624031008 L20.3488372093,465.988372093 Z" fill="#cee3f5" id="US.AR.133" stroke="#6e6e6e" stroke-width="0.4"><desc><name>Sevier County</name><stateAbbrev>AR</stateAbbrev><state>Arkansas</state><fips>133</fips><incits>05133</incits><id>US.AR.133</id><population>17366</population></desc></path><path d="M417.829457364,388.662790698 L421.899224806,388.662790698 L432.751937984,376.453488372 L463.953488372,376.453488372 L510.07751938,409.011627907 L501.937984496,440.213178295 L496.511627907,457.848837209 L473.449612403,463.275193798 L458.527131783,455.135658915 L454.457364341,445.639534884 L443.604651163,426.647286822 L416.472868217,423.934108527 L417.829457364,388.662790698 Z" fill="#cee3f5" id="US.AR.001" stroke="#6e6e6e" stroke-width="0.4"><desc><name>Arkansas County</name><stateAbbrev>AR</stateAbbrev><state>Arkansas</state><fips>001</fips><incits>05001</incits><id>US.AR.001</id><population>18777</population></desc></path><path d="M358.139534884,312.69379845 L358.139534884,304.554263566 L404.263565891,308.624031008 L419.186046512,326.259689922 L421.899224806,388.662790698 L417.829457364,388.662790698 L370.348837209,387.30620155 L358.139534884,312.69379845 Z" fill="#cee3f5" id="US.AR.085" stroke="#6e6e6e" stroke-width="0.4"><desc><name>Lonoke County</name><stateAbbrev>AR</stateAbbrev><state>Arkansas</state><fips>085</fips><incits>05085</incits><id>US.AR.085</id><population>70753</population></desc></path><path d="M339.147286822,262.5 L340.503875969,212.30620155 L398.837209302,213.662790698 L405.620155039,238.081395349 L396.124031008,262.5 L359.496124031,262.5 L339.147286822,262.5 Z" fill="#cee3f5" id="US.AR.023" stroke="#6e6e6e" stroke-width="0.4"><desc><name>Cleburne County</name><stateAbbrev>AR</stateAbbrev><state>Arkansas</state><fips>023</fips><incits>05023</incits><id>US.AR.023</id><population>25686</population></desc></path><path d="M242.829457364,289.631782946 L252.325581395,290.988372093 L253.682170543,247.57751938 L306.589147287,248.934108527 L306.589147287,261.143410853 L294.379844961,299.127906977 L272.674418605,304.554263566 L226.550387597,303.197674419 L242.829457364,289.631782946 Z" fill="#cee3f5" id="US.AR.029" stroke="#6e6e6e" stroke-width="0.4"><desc><name>Conway County</name><stateAbbrev>AR</stateAbbrev><state>Arkansas</state><fips>029</fips><incits>05029</incits><id>US.AR.029</id><population>21245</population></desc></path><path d="M294.379844961,299.127906977 L306.589147287,261.143410853 L339.147286822,262.5 L359.496124031,262.5 L358.139534884,304.554263566 L358.139534884,312.69379845 L341.860465116,324.903100775 L297.093023256,320.833333333 L294.379844961,299.127906977 Z" fill="#cee3f5" id="US.AR.045" stroke="#6e6e6e" stroke-width="0.4"><desc><name>Faulkner County</name><stateAbbrev>AR</stateAbbrev><state>Arkansas</state><fips>045</fips><incits>05045</incits><id>US.AR.045</id><population>119580</population></desc></path><path d="M208.914728682,209.593023256 L238.759689922,210.949612403 L259.108527132,210.949612403 L253.682170543,247.57751938 L252.325581395,290.988372093 L242.829457364,289.631782946 L222.480620155,297.771317829 L192.635658915,269.282945736 L188.565891473,267.926356589 L207.558139535,228.585271318 L208.914728682,209.593023256 Z" fill="#cee3f5" id="US.AR.115" stroke="#6e6e6e" stroke-width="0.4"><desc><name>Pope County</name><stateAbbrev>AR</stateAbbrev><state>Arkansas</state><fips>115</fips><incits>05115</incits><id>US.AR.115</id><population>62547</population></desc></path><path d="M130.23255814,261.143410853 L131.589147287,204.166666667 L157.364341085,205.523255814 L208.914728682,209.593023256 L207.558139535,228.585271318 L188.565891473,267.926356589 L170.930232558,254.360465116 L130.23255814,261.143410853 Z" fill="#cee3f5" id="US.AR.071" stroke="#6e6e6e" stroke-width="0.4"><desc><name>Johnson County</name><stateAbbrev>AR</stateAbbrev><state>Arkansas</state><fips>071</fips><incits>05071</incits><id>US.AR.071</id><population>25846</population></desc></path><path d="M130.23255814,350.678294574 L130.23255814,311.337209302 L130.23255814,295.058139535 L192.635658915,269.282945736 L222.480620155,297.771317829 L242.829457364,289.631782946 L226.550387597,303.197674419 L188.565891473,331.686046512 L191.279069767,346.608527132 L175.0,350.678294574 L130.23255814,350.678294574 Z" fill="#cee3f5" id="US.AR.149" stroke="#6e6e6e" stroke-width="0.4"><desc><name>Yell County</name><stateAbbrev>AR</stateAbbrev><state>Arkansas</state><fips>149</fips><incits>05149</incits><id>US.AR.149</id><population>21893</population></desc></path><path d="M175.0,350.678294574 L191.279069767,346.608527132 L221.124031008,346.608527132 L234.689922481,366.957364341 L259.108527132,373.740310078 L261.821705426,385.949612403 L238.759689922,402.228682171 L173.643410853,400.872093023 L175.0,350.678294574 Z" fill="#cee3f5" id="US.AR.051" stroke="#6e6e6e" stroke-width="0.4"><desc><name>Garland County</name><stateAbbrev>AR</stateAbbrev><state>Arkansas</state><fips>051</fips><incits>05051</incits><id>US.AR.051</id><population>97173</population></desc></path><path d="M278.100775194,436.143410853 L279.457364341,398.158914729 L340.503875969,387.30620155 L345.930232558,387.30620155 L341.860465116,448.352713178 L326.937984496,449.709302326 L303.875968992,437.5 L278.100775194,436.143410853 Z" fill="#cee3f5" id="US.AR.053" stroke="#6e6e6e" stroke-width="0.4"><desc><name>Grant County</name><stateAbbrev>AR</stateAbbrev><state>Arkansas</state><fips>053</fips><incits>05053</incits><id>US.AR.053</id><population>18019</population></desc></path><path d="M345.930232558,387.30620155 L370.348837209,387.30620155 L417.829457364,388.662790698 L416.472868217,423.934108527 L443.604651163,426.647286822 L454.457364341,445.639534884 L415.11627907,432.073643411 L412.403100775,444.282945736 L381.201550388,448.352713178 L341.860465116,448.352713178 L345.930232558,387.30620155 Z" fill="#cee3f5" id="US.AR.069" stroke="#6e6e6e" stroke-width="0.4"><desc><name>Jefferson County</name><stateAbbrev>AR</stateAbbrev><state>Arkansas</state><fips>069</fips><incits>05069</incits><id>US.AR.069</id><population>73191</population></desc></path><path d="M97.6744186047,407.65503876 L99.0310077519,362.887596899 L130.23255814,350.678294574 L175.0,350.678294574 L173.643410853,400.872093023 L173.643410853,409.011627907 L162.790697674,409.011627907 L97.6744186047,407.65503876 Z" fill="#cee3f5" id="US.AR.097" stroke="#6e6e6e" stroke-width="0.4"><desc><name>Montgomery County</name><stateAbbrev>AR</stateAbbrev><state>Arkansas</state><fips>097</fips><incits>05097</incits><id>US.AR.097</id><population>9226</population></desc></path><path d="M226.550387597,303.197674419 L272.674418605,304.554263566 L294.379844961,299.127906977 L297.093023256,320.833333333 L268.604651163,335.755813953 L221.124031008,334.399224806 L221.124031008,346.608527132 L191.279069767,346.608527132 L188.565891473,331.686046512 L226.550387597,303.197674419 Z" fill="#cee3f5" id="US.AR.105" stroke="#6e6e6e" stroke-width="0.4"><desc><name>Perry County</name><stateAbbrev>AR</stateAbbrev><state>Arkansas</state><fips>105</fips><incits>05105</incits><id>US.AR.105</id><population>10345</population></desc></path><path d="M297.093023256,320.833333333 L341.860465116,324.903100775 L358.139534884,312.69379845 L370.348837209,387.30620155 L345.930232558,387.30620155 L340.503875969,387.30620155 L295.736434109,358.817829457 L268.604651163,335.755813953 L297.093023256,320.833333333 Z" fill="#cee3f5" id="US.AR.119" stroke="#6e6e6e" stroke-width="0.4"><desc><name>Pulaski County</name><stateAbbrev>AR</stateAbbrev><state>Arkansas</state><fips>119</fips><incits>05119</incits><id>US.AR.119</id><population>391284</population></desc></path><path d="M268.604651163,335.755813953 L295.736434109,358.817829457 L340.503875969,387.30620155 L279.457364341,398.158914729 L261.821705426,385.949612403 L259.108527132,373.740310078 L234.689922481,366.957364341 L221.124031008,346.608527132 L221.124031008,334.399224806 L268.604651163,335.755813953 Z" fill="#cee3f5" id="US.AR.125" stroke="#6e6e6e" stroke-width="0.4"><desc><name>Saline County</name><stateAbbrev>AR</stateAbbrev><state>Arkansas</state><fips>125</fips><incits>05125</incits><id>US.AR.125</id><population>114404</population></desc></path><path d="M162.790697674,409.011627907 L173.643410853,409.011627907 L180.426356589,417.151162791 L226.550387597,423.934108527 L248.255813953,434.786821705 L246.899224806,484.980620155 L217.054263566,489.050387597 L195.348837209,482.26744186 L179.069767442,464.631782946 L169.573643411,451.065891473 L162.790697674,409.011627907 Z" fill="#cee3f5" id="US.AR.019" stroke="#6e6e6e" stroke-width="0.4"><desc><name>Clark County</name><stateAbbrev>AR</stateAbbrev><state>Arkansas</state><fips>019</fips><incits>05019</incits><id>US.AR.019</id><population>22743</population></desc></path><path d="M326.937984496,449.709302326 L341.860465116,448.352713178 L381.201550388,448.352713178 L378.488372093,487.69379845 L378.488372093,499.903100775 L328.294573643,499.903100775 L326.937984496,487.69379845 L306.589147287,461.918604651 L326.937984496,449.709302326 Z" fill="#cee3f5" id="US.AR.025" stroke="#6e6e6e" stroke-width="0.4"><desc><name>Cleveland County</name><stateAbbrev>AR</stateAbbrev><state>Arkansas</state><fips>025</fips><incits>05025</incits><id>US.AR.025</id><population>8593</population></desc></path><path d="M248.255813953,434.786821705 L278.100775194,436.143410853 L303.875968992,437.5 L326.937984496,449.709302326 L306.589147287,461.918604651 L326.937984496,487.69379845 L291.666666667,486.337209302 L246.899224806,484.980620155 L248.255813953,434.786821705 Z" fill="#cee3f5" id="US.AR.039" stroke="#6e6e6e" stroke-width="0.4"><desc><name>Dallas County</name><stateAbbrev>AR</stateAbbrev><state>Arkansas</state><fips>039</fips><incits>05039</incits><id>US.AR.039</id><population>7933</population></desc></path><path d="M173.643410853,409.011627907 L173.643410853,400.872093023 L238.759689922,402.228682171 L261.821705426,385.949612403 L279.457364341,398.158914729 L278.100775194,436.143410853 L248.255813953,434.786821705 L226.550387597,423.934108527 L180.426356589,417.151162791 L173.643410853,409.011627907 Z" fill="#cee3f5" id="US.AR.059" stroke="#6e6e6e" stroke-width="0.4"><desc><name>Hot Spring County</name><stateAbbrev>AR</stateAbbrev><state>Arkansas</state><fips>059</fips><incits>05059</incits><id>US.AR.059</id><population>33500</population></desc></path><path d="M381.201550388,448.352713178 L412.403100775,444.282945736 L415.11627907,432.073643411 L454.457364341,445.639534884 L458.527131783,455.135658915 L439.534883721,460.562015504 L439.534883721,489.050387597 L378.488372093,487.69379845 L381.201550388,448.352713178 Z" fill="#cee3f5" id="US.AR.079" stroke="#6e6e6e" stroke-width="0.4"><desc><name>Lincoln County</name><stateAbbrev>AR</stateAbbrev><state>Arkansas</state><fips>079</fips><incits>05079</incits><id>US.AR.079</id><population>14031</population></desc></path><path d="M355.426356589,577.228682171 L378.488372093,558.236434109 L377.131782946,544.670542636 L453.100775194,546.027131783 L453.100775194,600.290697674 L364.92248062,600.290697674 L355.426356589,577.228682171 Z" fill="#cee3f5" id="US.AR.003" stroke="#6e6e6e" stroke-width="0.4"><desc><name>Ashley County</name><stateAbbrev>AR</stateAbbrev><state>Arkansas</state><fips>003</fips><incits>05003</incits><id>US.AR.003</id><population>21283</population></desc></path><path d="M328.294573643,499.903100775 L378.488372093,499.903100775 L377.131782946,544.670542636 L378.488372093,558.236434109 L355.426356589,577.228682171 L325.581395349,558.236434109 L328.294573643,499.903100775 Z" fill="#cee3f5" id="US.AR.011" stroke="#6e6e6e" stroke-width="0.4"><desc><name>Bradley County</name><stateAbbrev>AR</stateAbbrev><state>Arkansas</state><fips>011</fips><incits>05011</incits><id>US.AR.011</id><population>11249</population></desc></path><path d="M291.666666667,486.337209302 L326.937984496,487.69379845 L328.294573643,499.903100775 L325.581395349,558.236434109 L294.379844961,548.740310078 L264.534883721,527.034883721 L291.666666667,495.833333333 L291.666666667,486.337209302 Z" fill="#cee3f5" id="US.AR.013" stroke="#6e6e6e" stroke-width="0.4"><desc><name>Calhoun County</name><stateAbbrev>AR</stateAbbrev><state>Arkansas</state><fips>013</fips><incits>05013</incits><id>US.AR.013</id><population>5241</population></desc></path><path d="M161.434108527,598.934108527 L162.790697674,563.662790698 L179.069767442,537.887596899 L214.341085271,536.531007752 L234.689922481,547.38372093 L233.333333333,598.934108527 L161.434108527,598.934108527 Z" fill="#cee3f5" id="US.AR.027" stroke="#6e6e6e" stroke-width="0.4"><desc><name>Columbia County</name><stateAbbrev>AR</stateAbbrev><state>Arkansas</state><fips>027</fips><incits>05027</incits><id>US.AR.027</id><population>24164</population></desc></path><path d="M378.488372093,499.903100775 L378.488372093,487.69379845 L439.534883721,489.050387597 L454.457364341,489.050387597 L453.100775194,520.251937984 L453.100775194,546.027131783 L377.131782946,544.670542636 L378.488372093,499.903100775 Z" fill="#cee3f5" id="US.AR.043" stroke="#6e6e6e" stroke-width="0.4"><desc><name>Drew County</name><stateAbbrev>AR</stateAbbrev><state>Arkansas</state><fips>043</fips><incits>05043</incits><id>US.AR.043</id><population>18785</population></desc></path><path d="M94.9612403101,493.120155039 L112.596899225,494.476744186 L113.953488372,456.492248062 L166.860465116,463.275193798 L162.790697674,532.46124031 L128.875968992,532.46124031 L113.953488372,513.468992248 L94.9612403101,493.120155039 Z" fill="#cee3f5" id="US.AR.057" stroke="#6e6e6e" stroke-width="0.4"><desc><name>Hempstead County</name><stateAbbrev>AR</stateAbbrev><state>Arkansas</state><fips>057</fips><incits>05057</incits><id>US.AR.057</id><population>22474</population></desc></path><path d="M97.6744186047,407.65503876 L113.953488372,432.073643411 L113.953488372,456.492248062 L112.596899225,494.476744186 L94.9612403101,493.120155039 L81.3953488372,472.771317829 L74.6124031008,430.717054264 L52.9069767442,430.717054264 L51.5503875969,406.298449612 L97.6744186047,407.65503876 Z" fill="#cee3f5" id="US.AR.061" stroke="#6e6e6e" stroke-width="0.4"><desc><name>Howard County</name><stateAbbrev>AR</stateAbbrev><state>Arkansas</state><fips>061</fips><incits>05061</incits><id>US.AR.061</id><population>13581</population></desc></path><path d="M162.790697674,532.46124031 L166.860465116,463.275193798 L179.069767442,464.631782946 L195.348837209,482.26744186 L217.054263566,489.050387597 L214.341085271,536.531007752 L179.069767442,537.887596899 L162.790697674,532.46124031 Z" fill="#cee3f5" id="US.AR.099" stroke="#6e6e6e" stroke-width="0.4"><desc><name>Nevada County</name><stateAbbrev>AR</stateAbbrev><state>Arkansas</state><fips>099</fips><incits>05099</incits><id>US.AR.099</id><population>8799</population></desc></path><path d="M214.341085271,536.531007752 L217.054263566,489.050387597 L246.899224806,484.980620155 L291.666666667,486.337209302 L291.666666667,495.833333333 L264.534883721,527.034883721 L294.379844961,548.740310078 L234.689922481,547.38372093 L214.341085271,536.531007752 Z" fill="#cee3f5" id="US.AR.103" stroke="#6e6e6e" stroke-width="0.4"><desc><name>Ouachita County</name><stateAbbrev>AR</stateAbbrev><state>Arkansas</state><fips>103</fips><incits>05103</incits><id>US.AR.103</id><population>25002</population></desc></path><path d="M97.6744186047,407.65503876 L162.790697674,409.011627907 L169.573643411,451.065891473 L179.069767442,464.631782946 L166.860465116,463.275193798 L113.953488372,456.492248062 L113.953488372,432.073643411 L97.6744186047,407.65503876 Z" fill="#cee3f5" id="US.AR.109" stroke="#6e6e6e" stroke-width="0.4"><desc><name>Pike County</name><stateAbbrev>AR</stateAbbrev><state>Arkansas</state><fips>109</fips><incits>05109</incits><id>US.AR.109</id><population>11177</population></desc></path><path d="M233.333333333,598.934108527 L234.689922481,547.38372093 L294.379844961,548.740310078 L325.581395349,558.236434109 L355.426356589,577.228682171 L364.92248062,600.290697674 L233.333333333,598.934108527 Z" fill="#cee3f5" id="US.AR.139" stroke="#6e6e6e" stroke-width="0.4"><desc><name>Union County</name><stateAbbrev>AR</stateAbbrev><state>Arkansas</state><fips>139</fips><incits>05139</incits><id>US.AR.139</id><population>40694</population></desc></path><path d="M128.875968992,532.46124031 L162.790697674,532.46124031 L179.069767442,537.887596899 L162.790697674,563.662790698 L161.434108527,598.934108527 L115.310077519,598.934108527 L134.302325581,552.810077519 L128.875968992,532.46124031 Z" fill="#cee3f5" id="US.AR.073" stroke="#6e6e6e" stroke-width="0.4"><desc><name>Lafayette County</name><stateAbbrev>AR</stateAbbrev><state>Arkansas</state><fips>073</fips><incits>05073</incits><id>US.AR.073</id><population>7252</population></desc></path><path d="M82.7519379845,521.608527132 L113.953488372,513.468992248 L128.875968992,532.46124031 L134.302325581,552.810077519 L115.310077519,598.934108527 L82.7519379845,598.934108527 L82.7519379845,521.608527132 Z" fill="#cee3f5" id="US.AR.091" stroke="#6e6e6e" stroke-width="0.4"><desc><name>Miller County</name><stateAbbrev>AR</stateAbbrev><state>Arkansas</state><fips>091</fips><incits>05091</incits><id>US.AR.091</id><population>43402</population></desc></path><path d="M453.100775194,546.027131783 L453.100775194,520.251937984 L485.658914729,520.251937984 L507.364341085,569.089147287 L495.15503876,600.290697674 L453.100775194,600.290697674 L453.100775194,546.027131783 Z" fill="#cee3f5" id="US.AR.017" stroke="#6e6e6e" stroke-width="0.4"><desc><name>Chicot County</name><stateAbbrev>AR</stateAbbrev><state>Arkansas</state><fips>017</fips><incits>05017</incits><id>US.AR.017</id><population>11335</population></desc></path><path d="M458.527131783,455.135658915 L473.449612403,463.275193798 L496.511627907,457.848837209 L501.937984496,440.213178295 L525.0,440.213178295 L506.007751938,461.918604651 L506.007751938,506.686046512 L485.658914729,520.251937984 L453.100775194,520.251937984 L454.457364341,489.050387597 L439.534883721,489.050387597 L439.534883721,460.562015504 L458.527131783,455.135658915 Z" fill="#cee3f5" id="US.AR.041" stroke="#6e6e6e" stroke-width="0.4"><desc><name>Desha County</name><stateAbbrev>AR</stateAbbrev><state>Arkansas</state><fips>041</fips><incits>05041</incits><id>US.AR.041</id><population>12505</population></desc></path></svg>