<?xml version='1.0' encoding='utf-8'?>
<svg height="700" width="700" xmlns="http://www.w3.org/2000/svg"><path d="M362.433518381,521.540974407 L358.143448666,522.077233121 L354.389637666,521.27284505 L354.121508309,517.787163407 L356.802801881,517.787163407 L358.411578024,516.446516621 L361.361000953,516.714645978 L362.433518381,521.540974407 M346.882015666,515.105869835 L341.251299166,516.982775335 L336.424970737,516.714645978 L332.671159737,513.76522305 L329.185478094,511.888317549 L332.134901022,511.352058835 L337.229358808,512.424576264 L339.91065238,512.960834978 L346.882015666,515.105869835 M268.218229678,492.169468292 L245.963493034,506.112194864 L232.825154533,501.553995792 L231.21637839,493.510115077 L243.818458176,486.806881148 L254.902279423,491.86546516 L268.218229678,492.169468292 M7.30277315918,51.0675230645 L1.18882314927,61.0876068752 L0.0,49.3692040811 L7.30277315918,51.0675230645 Z" fill="#cee3f5" id="AI.3618" stroke="#6e6e6e" stroke-width="0.4"><desc><labelrank>20</labelrank><code_hasc>-99</code_hasc><name /><admin>Anguilla</admin><type_en /><region /><woe_id>-99</woe_id><longitude>-63</longitude><woe_name /><fips /><woe_label /><latitude>18</latitude><iso_a2>AI</iso_a2><postal /><type /><id>AI.3618</id></desc></path><path d="M511.197956588,609.230909458 L458.149897978,640.78054498 L454.187153683,634.893038336 L444.789788085,628.439425365 L438.222952811,621.759370265 L438.178534265,612.012327232 L453.691194571,612.012327232 L454.799241557,605.918067558 L474.74409231,605.364044065 L483.608469449,598.161737405 L495.558043363,590.753001328 L496.267267405,603.792138346 L505.544049194,599.540279921 L511.272966612,590.263224121 L511.197956588,609.230909458 Z" fill="#cee3f5" id="AI.BP" stroke="#6e6e6e" stroke-width="0.4"><desc><labelrank>20</labelrank><code_hasc>AI.BP</code_hasc><name>Blowing Point</name><admin>Anguilla</admin><type_en>District</type_en><region /><woe_id>24549648</woe_id><longitude>-63</longitude><woe_name>Blowing Point</woe_name><fips /><woe_label /><latitude>18</latitude><iso_a2>AI</iso_a2><postal /><type>District</type><id>AI.BP</id></desc></path><path d="M634.322204999,511.255404379 L606.469771167,556.317472802 L603.833182538,559.599184244 L604.385615946,546.637541295 L593.859167077,546.637541295 L601.61549723,535.003046691 L603.277567709,529.46281051 L592.197096598,522.814527343 L577.792482026,522.814527343 L577.827375303,507.505047052 L586.316384165,506.047225131 L586.102836923,513.950148953 L596.629284541,513.950148953 L604.224816242,503.431037222 L618.867501276,501.291932453 L634.661869352,502.084480756 L634.322204999,511.255404379 M669.83544732,495.792177078 L656.847931582,504.171219489 L652.239458256,499.562746163 L657.685835824,492.859512234 L654.75317098,483.223613461 L665.226973994,479.453044376 L669.416495199,472.330858326 L688.688292745,476.101427411 L700.0,482.80466134 L691.202005468,486.156278305 L673.187064284,491.183703751 L669.83544732,495.792177078 Z" fill="#cee3f5" id="AI.EE" stroke="#6e6e6e" stroke-width="0.4"><desc><labelrank>20</labelrank><code_hasc>AI.EE</code_hasc><name>East End</name><admin>Anguilla</admin><type_en>District</type_en><region /><woe_id>24549654</woe_id><longitude>-62</longitude><woe_name>East End</woe_name><fips /><woe_label /><latitude>18</latitude><iso_a2>AI</iso_a2><postal /><type>District</type><id>AI.EE</id></desc></path><path d="M511.272966612,590.263224121 L505.544049194,599.540279921 L496.267267405,603.792138346 L495.558043363,590.753001328 L511.309650355,580.987005368 L511.272966612,590.263224121 Z" fill="#cee3f5" id="AI.GH" stroke="#6e6e6e" stroke-width="0.4"><desc><labelrank>20</labelrank><code_hasc>AI.GH</code_hasc><name>George Hill</name><admin>Anguilla</admin><type_en>District</type_en><region /><woe_id>24549657</woe_id><longitude>-63</longitude><woe_name>George Hill</woe_name><fips /><woe_label /><latitude>18</latitude><iso_a2>AI</iso_a2><postal /><type>District</type><id>AI.GH</id></desc></path><path d="M586.102836923,513.950148953 L586.316384165,506.047225131 L604.224816242,503.431037223 L596.629284541,513.950148953 L586.102836923,513.950148953 Z" fill="#cee3f5" id="AI.IH" stroke="#6e6e6e" stroke-width="0.4"><desc><labelrank>20</labelrank><code_hasc>AI.IH</code_hasc><name>Island Harbour</name><admin>Anguilla</admin><type_en>District</type_en><region /><woe_id>24549653</woe_id><longitude>-63</longitude><woe_name>Island Harbour</woe_name><fips /><woe_label /><latitude>18</latitude><iso_a2>AI</iso_a2><postal /><type>District</type><id>AI.IH</id></desc></path><path d="M531.254499856,570.460556499 L511.309650355,580.987005368 L500.229177992,580.432981875 L491.103142503,584.99599962 L491.533198991,579.096788506 L488.22315318,571.505836545 L495.435101264,564.017755767 L531.254499856,570.460556499 Z" fill="#cee3f5" id="AI.NH" stroke="#6e6e6e" stroke-width="0.4"><desc><labelrank>20</labelrank><code_hasc>AI.NH</code_hasc><name>North Hill</name><admin>Anguilla</admin><type_en>District</type_en><region /><woe_id>24549651</woe_id><longitude>-63</longitude><woe_name>North Hill</woe_name><fips /><woe_label /><latitude>18</latitude><iso_a2>AI</iso_a2><postal /><type>District</type><id>AI.NH</id></desc></path><path d="M529.665718039,558.324639829 L511.508459065,543.935522781 L519.968715652,532.031508418 L543.462130343,513.406608703 L564.710524154,509.757610827 L565.603962678,520.59843212 L560.617751241,533.894998454 L542.334972219,534.449021947 L529.665718039,558.324639829 Z" fill="#cee3f5" id="AI.NS" stroke="#6e6e6e" stroke-width="0.4"><desc><labelrank>20</labelrank><code_hasc>AI.NS</code_hasc><name>North Side</name><admin>Anguilla</admin><type_en>District</type_en><region /><woe_id>24549652</woe_id><longitude>-63</longitude><woe_name>North Side</woe_name><fips /><woe_label /><latitude>18</latitude><iso_a2>AI</iso_a2><postal /><type>District</type><id>AI.NS</id></desc></path><path d="M491.103142503,584.99599962 L486.932611658,587.081265042 L461.320094193,590.283855152 L477.17107254,582.981083486 L488.22315318,571.505836545 L491.533198991,579.096788506 L491.103142503,584.99599962 Z" fill="#cee3f5" id="AI.SG" stroke="#6e6e6e" stroke-width="0.4"><desc><labelrank>20</labelrank><code_hasc>AI.SG</code_hasc><name>Sandy Ground</name><admin>Anguilla</admin><type_en>District</type_en><region /><woe_id>24549650</woe_id><longitude>-63</longitude><woe_name>Sandy Ground</woe_name><fips /><woe_label /><latitude>18</latitude><iso_a2>AI</iso_a2><postal /><type>District</type><id>AI.SG</id></desc></path><path d="M554.261271502,586.720369777 L552.861419837,573.230675215 L548.983255386,568.79848602 L555.844043765,558.709091565 L564.495915692,536.66511717 L581.116624235,537.773164156 L603.277567709,529.46281051 L601.61549723,535.003046691 L593.859167077,546.637541296 L604.385615946,546.637541296 L603.833182538,559.599184244 L595.826970534,569.564361708 L580.542098292,579.188170672 L554.261271502,586.720369777 Z" fill="#cee3f5" id="AI.SH" stroke="#6e6e6e" stroke-width="0.4"><desc><labelrank>20</labelrank><code_hasc>AI.SH</code_hasc><name>Sandy Hill</name><admin>Anguilla</admin><type_en>District</type_en><region /><woe_id>24549655</woe_id><longitude>-63</longitude><woe_name>Sandy Hill</woe_name><fips /><woe_label /><latitude>18</latitude><iso_a2>AI</iso_a2><postal /><type>District</type><id>AI.SH</id></desc></path><path d="M511.309650355,580.987005368 L495.558043363,590.753001328 L483.608469449,598.161737405 L474.74409231,605.364044065 L454.799241557,605.918067558 L453.691194571,612.012327232 L438.178534265,612.012327232 L438.222952811,621.759370265 L426.036810909,630.473001095 L425.768613621,596.39780501 L461.320094193,590.283855152 L486.932611658,587.081265042 L491.103142503,584.99599962 L500.229177992,580.432981875 L511.309650355,580.987005368 Z" fill="#cee3f5" id="AI.SO" stroke="#6e6e6e" stroke-width="0.4"><desc><labelrank>20</labelrank><code_hasc>AI.SO</code_hasc><name>South Hill</name><admin>Anguilla</admin><type_en>District</type_en><region /><woe_id>24549649</woe_id><longitude>-63</longitude><woe_name>South Hill</woe_name><fips /><woe_label /><latitude>18</latitude><iso_a2>AI</iso_a2><postal /><type>District</type><id>AI.SO</id></desc></path><path d="M603.277567709,529.46281051 L581.116624235,537.773164156 L564.495915692,536.66511717 L555.844043765,558.709091565 L537.124098973,559.088208211 L535.23873549,562.741100271 L529.665718039,558.324639829 L542.334972219,534.449021947 L560.617751241,533.894998454 L565.603962678,520.59843212 L564.710524154,509.757610827 L577.827375303,507.505047052 L577.792482026,522.814527343 L592.197096598,522.814527343 L603.277567709,529.46281051 Z" fill="#cee3f5" id="AI.ST" stroke="#6e6e6e" stroke-width="0.4"><desc><labelrank>20</labelrank><code_hasc>AI.ST</code_hasc><name>Stoney Ground</name><admin>Anguilla</admin><type_en>District</type_en><region /><woe_id>24549656</woe_id><longitude>-63</longitude><woe_name>Stoney Ground</woe_name><fips /><woe_label /><latitude>18</latitude><iso_a2>AI</iso_a2><postal /><type>District</type><id>AI.ST</id></desc></path><path d="M554.261271502,586.720369777 L544.198068152,589.604527938 L511.197956588,609.230909458 L511.272966612,590.263224121 L511.309650355,580.987005368 L531.254499856,570.460556499 L548.983255386,568.79848602 L552.861419837,573.230675215 L554.261271502,586.720369777 Z" fill="#cee3f5" id="AI.TF" stroke="#6e6e6e" stroke-width="0.4"><desc><labelrank>20</labelrank><code_hasc>AI.TF</code_hasc><name>The Farrington</name><admin>Anguilla</admin><type_en>District</type_en><region /><woe_id>24549658</woe_id><longitude>-63</longitude><woe_name>The Farrington</woe_name><fips /><woe_label /><latitude>18</latitude><iso_a2>AI</iso_a2><postal /><type>District</type><id>AI.TF</id></desc></path><path d="M548.983255386,568.79848602 L531.254499856,570.460556499 L535.23873549,562.741100271 L537.124098973,559.088208211 L555.844043765,558.709091565 L548.983255386,568.79848602 Z" fill="#cee3f5" id="AI.TQ" stroke="#6e6e6e" stroke-width="0.4"><desc><labelrank>20</labelrank><code_hasc>AI.TQ</code_hasc><name>The Quarter</name><admin>Anguilla</admin><type_en>District</type_en><region /><woe_id>24549660</woe_id><longitude>-63</longitude><woe_name>The Quarter</woe_name><fips /><woe_label /><latitude>18</latitude><iso_a2>AI</iso_a2><postal /><type>District</type><id>AI.TQ</id></desc></path><path d="M529.665718039,558.324639829 L535.23873549,562.741100271 L531.254499856,570.460556499 L495.435101264,564.017755767 L502.306195721,556.88357913 L511.508459065,543.935522781 L529.665718039,558.324639829 Z" fill="#cee3f5" id="AI.TV" stroke="#6e6e6e" stroke-width="0.4"><desc><labelrank>20</labelrank><code_hasc>AI.TV</code_hasc><name>The Valley</name><admin>Anguilla</admin><type_en>District</type_en><region /><woe_id>24549659</woe_id><longitude>-63</longitude><woe_name>The Valley</woe_name><fips /><woe_label /><latitude>18</latitude><iso_a2>AI</iso_a2><postal /><type>District</type><id>AI.TV</id></desc></path><path d="M426.036810909,630.473001095 L406.237943127,644.630068288 L387.216768565,650.630795919 L363.100635662,650.291132957 L398.935169968,610.210800496 L409.691191588,601.945647554 L425.768613621,596.39780501 L426.036810909,630.473001095 Z" fill="#cee3f5" id="AI.WE" stroke="#6e6e6e" stroke-width="0.4"><desc><labelrank>20</labelrank><code_hasc>AI.WE</code_hasc><name>West End</name><admin>Anguilla</admin><type_en>District</type_en><region /><woe_id>24549647</woe_id><longitude>-63</longitude><woe_name>West End</woe_name><fips /><woe_label /><latitude>18</latitude><iso_a2>AI</iso_a2><postal /><type>District</type><id>AI.WE</id></desc></path></svg>