<?xml version='1.0' encoding='utf-8'?>
<svg height="700" width="700" xmlns="http://www.w3.org/2000/svg"><path d="M498.350703228,574.208236365 L474.906404938,700.0 L460.386522311,682.788626935 L452.807851867,684.842659112 L442.60851968,680.734594759 L471.577456238,636.112516442 L469.735910149,632.641910351 L467.398563189,634.200141657 L462.157239705,629.029646868 L458.332490135,629.454619043 L458.686633613,626.479813822 L454.932712739,626.975614692 L449.337245776,623.080036426 L446.43326925,624.992411211 L443.954264899,619.821916422 L435.596478802,614.86390772 L430.709298796,614.297278154 L430.355155317,617.059597288 L413.85206921,621.734291207 L412.364666599,616.70545381 L410.593949206,619.18445816 L408.894060508,615.359708591 L400.748760498,613.943134676 L400.111302236,611.534959021 L391.611858747,619.538601639 L386.866336133,619.396944248 L381.979156127,623.150865122 L373.479712638,624.85075382 L362.288778711,619.892745118 L359.384802186,623.575837296 L358.534857837,621.309319033 L350.035414348,623.717494688 L347.83972478,620.034402509 L340.615197814,618.19285642 L338.986137812,614.86390772 L342.669229991,608.985125974 L339.1986239,597.08590509 L336.507133461,595.102701609 L332.5407265,597.156733785 L325.812000405,593.26115552 L326.378629971,584.053425073 L320.499848224,574.704037236 L315.541839522,571.729232015 L311.221289082,572.862491146 L301.94272994,563.6547607 L293.939087322,562.875645047 L287.706162097,545.805929374 L310.937974299,538.652231104 L318.020843873,538.652231104 L323.970454315,543.964383284 L334.098957806,543.681068501 L338.702823029,547.505818071 L347.485581301,544.247698067 L352.231103916,547.36416068 L357.897399575,545.593443286 L366.326014368,550.834766771 L371.708995244,545.522614591 L377.729434382,548.214105029 L384.104016999,535.88991197 L388.991197005,532.56096327 L399.0488718,531.640190226 L402.590306587,525.761408479 L418.101790954,516.624506729 L424.334716179,517.332793686 L425.751290094,520.59091369 L432.338358798,522.149144996 L438.146311849,535.677425883 L442.60851968,533.906708489 L452.737023171,537.306485885 L454.932712739,541.697865021 L464.777901447,539.997976323 L461.023980573,544.601841546 L463.573813619,545.876758069 L462.369725792,553.738743297 L464.919558838,557.988465041 L462.086411009,561.388242437 L463.644642315,563.6547607 L466.05281797,562.309015481 L468.036021451,567.125366791 L470.798340585,565.99210766 L469.665081453,561.742385915 L478.02286755,560.609126783 L476.747951027,566.48790853 L485.884852777,563.938075483 L488.718000607,566.48790853 L488.647171911,570.950116361 L492.259435394,569.958514621 L498.350703228,574.208236365 Z" fill="#cee3f5" id="CO.AM" stroke="#6e6e6e" stroke-width="0.4"><desc><labelrank>5</labelrank><code_hasc>CO.AM</code_hasc><name>Amazonas</name><admin>Colombia</admin><type_en>Commissiary</type_en><region /><woe_id>2345047</woe_id><longitude>-71</longitude><woe_name>Amazonas</woe_name><fips>CO01</fips><woe_label>Amazonas, CO, Colombia</woe_label><latitude>-1</latitude><iso_a2>CO</iso_a2><postal>AM</postal><type>Comisaría</type><id>CO.AM</id></desc></path><path d="M270.35313164,179.40908631 L280.127491652,187.412728928 L282.110695133,190.316705454 L283.385611656,196.903774158 L283.881412527,197.682889811 L284.873014267,198.391176768 L285.085500354,198.886977638 L285.014671658,199.595264596 L284.306384701,200.799352423 L281.189922088,203.84498634 L280.694121218,207.244763736 L280.694121218,208.590508955 L280.906607305,209.652939391 L281.685722959,211.49448548 L283.102296873,213.194374178 L283.952241222,214.044318527 L284.731356875,214.256804614 L285.581301224,214.044318527 L286.572902965,213.265202874 L287.068703835,212.627744612 L288.272791662,210.077911565 L289.97268036,208.732166346 L290.680967318,211.069513306 L290.46848123,212.131943742 L290.185166447,212.769402003 L288.626935141,214.82343418 L288.626935141,218.435697663 L288.201962967,219.781442882 L288.272791662,220.843873318 L288.556106445,222.118789841 L290.043509056,226.29768289 L290.397652535,228.139228979 L290.822624709,228.776687241 L294.576545583,229.343316807 L308.10482647,216.594151573 L309.308914297,229.484974198 L288.98107862,244.854801174 L289.335222099,253.354244663 L283.456440352,259.233026409 L279.844176869,265.395122938 L281.119093393,270.990589902 L277.436001214,280.623292523 L272.619649904,284.023069918 L268.86572903,281.756551654 L259.445512496,285.297986441 L257.603966407,290.46848123 L251.866842052,294.647374279 L247.121319437,284.66052818 L238.055246383,282.039866437 L238.692704644,291.105939492 L232.813922898,289.406050794 L227.28928463,292.31002732 L219.498128099,288.626935141 L217.869068097,286.927046443 L217.231609835,285.864616007 L215.673378529,277.719315997 L215.744207225,276.727714257 L216.948295052,273.823737731 L216.664980269,271.911362946 L213.477688961,270.990589902 L212.273601133,269.432358596 L210.573712435,263.624405545 L206.748962866,262.845289892 L197.541232419,264.049377719 L194.141455024,264.191035111 L193.149853283,264.049377719 L192.016594152,263.766062936 L191.449964586,263.341090762 L187.979358494,258.170595973 L187.837701103,257.533137711 L187.908529799,256.683193362 L188.54598806,255.620762926 L188.121015886,255.337448143 L187.979358494,255.337448143 L187.696043711,253.07092988 L188.05018719,253.000101184 L188.262673277,252.929272488 L188.404330669,252.716786401 L188.54598806,252.433471618 L187.837701103,252.291814226 L187.766872407,251.866842052 L188.05018719,251.371041182 L188.404330669,250.875240312 L188.404330669,250.521096833 L187.412728928,249.317009005 L185.712840231,248.112921178 L185.146210665,246.41303248 L184.012951533,246.342203784 L183.517150663,241.667509865 L180.825660225,241.242537691 L180.754831529,236.780329859 L181.392289791,236.567843772 L182.596377618,236.213700293 L183.163007184,236.142871598 L184.508752403,235.363755945 L186.491955884,235.576242032 L186.846099363,235.363755945 L187.55438632,234.655468987 L187.908529799,234.159668117 L188.121015886,233.522209855 L187.908529799,231.963978549 L187.55438632,230.830719417 L186.846099363,230.334918547 L186.633613275,229.768288981 L186.56278458,229.484974198 L186.704441971,228.918344632 L187.341900233,228.493372458 L188.191844582,228.210057675 L189.395932409,227.997571588 L192.937367196,227.7850855 L198.674491551,229.343316807 L200.091065466,227.005969847 L200.232722857,226.651826369 L200.374380249,225.80188202 L200.303551553,221.127188101 L198.886977638,217.727410705 L192.654052413,214.044318527 L184.933724578,205.190731559 L180.613174137,202.074268947 L175.301021957,197.187088941 L174.876049782,196.620459375 L174.592734999,196.053829809 L174.734392391,195.912172417 L174.876049782,195.770515026 L175.159364565,195.770515026 L175.08853587,195.558028939 L175.017707174,195.345542851 L174.876049782,195.20388546 L174.876049782,193.503996762 L176.009308914,193.716482849 L178.984114135,191.166649803 L179.763229789,186.916928058 L181.250632399,185.358696752 L181.321461095,184.650409795 L181.604775878,184.22543762 L181.888090661,183.304664576 L181.604775878,179.834058484 L181.108975008,178.346655874 L180.613174137,176.150966306 L180.613174137,176.150966306 L181.038146312,176.292623697 L181.250632399,175.725994131 L182.383891531,181.533947182 L187.271071537,182.667206314 L186.987756754,185.854497622 L183.800465446,185.075381969 L182.667206314,188.404330669 L185.996155014,190.600020237 L190.458362845,189.466761105 L189.466761105,169.493068906 L182.313062835,164.039259334 L203.34918547,150.652635839 L212.273601133,162.906000202 L212.911059395,168.147323687 L204.199129819,182.950521097 L200.51603764,197.895375898 L204.553273298,213.052716786 L227.572599413,213.690175048 L231.255691592,208.16553678 L238.76353334,205.261560255 L244.288171608,195.274714156 L253.920874228,185.358696752 L265.820095113,184.296266316 L270.35313164,179.40908631 Z" fill="#cee3f5" id="CO.AN" stroke="#6e6e6e" stroke-width="0.4"><desc><labelrank>5</labelrank><code_hasc>CO.AN</code_hasc><name>Antioquia</name><admin>Colombia</admin><type_en>Department</type_en><region /><woe_id>2345048</woe_id><longitude>-75</longitude><woe_name>Antioquia</woe_name><fips>CO02</fips><woe_label>Antioquia, CO, Colombia</woe_label><latitude>6</latitude><iso_a2>CO</iso_a2><postal>AN</postal><type>Departamento</type><id>CO.AN</id></desc></path><path d="M389.132854396,228.493372458 L390.336942224,228.776687241 L384.670646565,240.392593342 L383.25407265,249.812809876 L375.462916119,256.258221188 L371.567337853,262.420317717 L374.683800465,267.661641202 L370.29242133,277.081857736 L379.075179601,284.235556005 L375.675402206,291.601740362 L371.425680461,289.47687949 L360.163917839,301.234442983 L355.205909137,296.772235151 L352.443590003,299.180410806 L349.114641303,306.192451685 L350.247900435,311.575432561 L345.856521299,313.487807346 L344.935748255,323.970454315 L342.456743904,326.945259537 L338.065364768,326.378629971 L329.920064758,318.020843873 L325.245370839,317.595871699 L327.22857432,310.158858646 L325.245370839,303.005160376 L319.720732571,293.584943843 L313.91277952,291.672569058 L313.629464737,289.335222099 L305.200849944,297.268036021 L294.718202975,292.380856015 L290.964282101,278.356774259 L278.073459476,281.402408176 L277.436001214,280.623292523 L281.119093393,270.990589902 L279.844176869,265.395122938 L283.456440352,259.233026409 L287.635333401,268.015784681 L293.868258626,269.007386421 L294.434888192,277.436001214 L297.905494283,275.240311646 L306.334109076,282.252352525 L316.179297784,281.048264697 L319.933218658,282.960639482 L322.412223009,271.557219468 L326.166143883,266.599210766 L331.124152585,270.990589902 L327.370231711,277.436001214 L330.203379541,281.260750784 L337.923707376,271.769705555 L346.423150865,273.540422948 L357.330770009,261.357887281 L358.251543054,251.866842052 L355.772538703,247.262976829 L361.226348275,252.787615097 L365.901042194,250.450268137 L368.94667611,239.117676819 L367.742588283,232.672265506 L372.842254376,234.159668117 L376.808661338,228.847515936 L378.721036123,229.909946373 L381.270869169,227.360113326 L389.132854396,228.493372458 Z" fill="#cee3f5" id="CO.BY" stroke="#6e6e6e" stroke-width="0.4"><desc><labelrank>5</labelrank><code_hasc>CO.BY</code_hasc><name>Boyacá</name><admin>Colombia</admin><type_en>Department</type_en><region /><woe_id>2345052</woe_id><longitude>-72</longitude><woe_name>Boyacá</woe_name><fips>CO36</fips><woe_label>Boyaca, CO, Colombia</woe_label><latitude>5</latitude><iso_a2>CO</iso_a2><postal>BY</postal><type>Departamento</type><id>CO.BY</id></desc></path><path d="M270.35313164,179.40908631 L265.820095113,184.296266316 L253.920874228,185.358696752 L244.288171608,195.274714156 L238.76353334,205.261560255 L231.255691592,208.16553678 L227.572599413,213.690175048 L204.553273298,213.052716786 L200.51603764,197.895375898 L204.199129819,182.950521097 L212.911059395,168.147323687 L212.273601133,162.906000202 L203.34918547,150.652635839 L210.927855914,145.340483659 L218.010725488,131.316401902 L224.314479409,126.854194071 L234.584640291,127.845795811 L234.513811596,130.537286249 L254.699989882,143.640594961 L254.275017707,144.419710614 L254.416675099,144.773854093 L255.195790752,145.836284529 L255.337448143,146.119599312 L254.841647273,148.598603663 L251.158555095,149.731862795 L248.679550744,151.998381058 L248.537893352,153.62744106 L249.175351614,158.868764545 L250.73358292,166.730749772 L255.833249013,170.484670647 L265.820095113,166.94323586 L271.415562076,172.609531519 L271.628048164,173.24698978 L271.628048164,175.58433674 L271.769705555,176.363452393 L271.840534251,176.57593848 L271.769705555,176.859253263 L271.132247293,177.496711525 L270.919761206,177.850855004 L270.707275119,178.275827178 L270.636446423,178.771628048 L270.35313164,179.40908631 Z" fill="#cee3f5" id="CO.CO" stroke="#6e6e6e" stroke-width="0.4"><desc><labelrank>5</labelrank><code_hasc>CO.CO</code_hasc><name>Córdoba</name><admin>Colombia</admin><type_en>Department</type_en><region /><woe_id>2345058</woe_id><longitude>-75</longitude><woe_name>Córdoba</woe_name><fips>CO12</fips><woe_label>Cordoba, CO, Colombia</woe_label><latitude>8</latitude><iso_a2>CO</iso_a2><postal>CO</postal><type>Departamento</type><id>CO.CO</id></desc></path><path d="M320.853991703,198.462005464 L331.903268238,206.1823333 L336.082161287,206.394819387 L337.923707376,202.782555904 L347.34392391,203.490842861 L353.576849135,214.185975918 L352.018617829,226.651826369 L360.8013761,230.264089851 L365.121926541,228.989173328 L365.971870889,233.94718203 L367.742588283,232.672265506 L368.94667611,239.117676819 L365.901042194,250.450268137 L361.226348275,252.787615097 L355.772538703,247.262976829 L358.251543054,251.866842052 L357.330770009,261.357887281 L346.423150865,273.540422948 L337.923707376,271.769705555 L330.203379541,281.260750784 L327.370231711,277.436001214 L331.124152585,270.990589902 L326.166143883,266.599210766 L322.412223009,271.557219468 L319.933218658,282.960639482 L316.179297784,281.048264697 L306.334109076,282.252352525 L297.905494283,275.240311646 L294.434888192,277.436001214 L293.868258626,269.007386421 L287.635333401,268.015784681 L283.456440352,259.233026409 L289.335222099,253.354244663 L288.98107862,244.854801174 L309.308914297,229.484974198 L308.10482647,216.594151573 L308.317312557,214.894262876 L308.813113427,213.123545482 L309.308914297,211.99028635 L309.379742993,211.565314176 L309.308914297,211.140342001 L308.883942123,210.50288374 L308.813113427,210.148740261 L308.813113427,208.519680259 L309.025599514,207.882221997 L311.504603865,204.553273298 L312.071233431,204.269958515 L312.283719518,203.703328949 L312.212890823,202.215926338 L312.354548214,201.861782859 L312.496205606,201.436810685 L312.567034301,201.082667206 L312.354548214,200.657695032 L312.000404735,200.091065466 L312.142062127,199.807750683 L312.354548214,199.453607204 L312.496205606,198.957806334 L312.850349084,196.549630679 L312.850349084,195.628857634 L312.283719518,193.149853283 L311.717089952,192.441566326 L311.079631691,189.891733279 L311.221289082,189.395932409 L310.513002125,187.05858545 L310.442173429,186.279469797 L310.513002125,185.500354143 L310.796316908,184.154608924 L311.221289082,183.021349793 L311.221289082,182.950521097 L312.071233431,182.525548922 L312.212890823,182.454720227 L314.125265608,180.613174137 L318.941616918,190.316705454 L315.541839522,198.178690681 L320.853991703,198.462005464 Z" fill="#cee3f5" id="CO.ST" stroke="#6e6e6e" stroke-width="0.4"><desc><labelrank>5</labelrank><code_hasc>CO.ST</code_hasc><name>Santander</name><admin>Colombia</admin><type_en>Department</type_en><region /><woe_id>2345071</woe_id><longitude>-73</longitude><woe_name>Santander</woe_name><fips>CO26</fips><woe_label>Santander, CO, Colombia</woe_label><latitude>6</latitude><iso_a2>CO</iso_a2><postal>ST</postal><type>Departamento</type><id>CO.ST</id></desc></path><path d="M350.106243044,85.6318931499 L340.827683902,86.6234948902 L339.056966508,84.4278053223 L343.448345644,77.2032783568 L336.223818679,72.8827279166 L334.736416068,67.8538905191 L321.491449965,68.2080339978 L319.649903875,61.337650511 L323.120509967,50.146716584 L334.382272589,49.3676009309 L357.118283922,32.0145704746 L376.808661338,24.4359000304 L381.837498735,15.2281695841 L380.491753516,9.77436001214 L388.778710918,8.85358696752 L386.937164828,11.4034200142 L390.124456137,12.536679146 L392.815946575,8.78275827178 L389.132854396,7.72032783568 L394.515835273,3.75392087423 L395.649094405,5.94961044217 L398.482242234,2.26651826369 L400.111302236,4.17889304867 L402.661135283,1.48740261054 L398.411413538,2.1248608722 L399.898816149,0.0 L418.739249216,5.52463826773 L424.122230092,15.2989982799 L423.130628352,18.5571182839 L412.010523121,27.1982191642 L388.07042396,34.2810887382 L376.808661338,55.0338965901 L367.175958717,56.5212992006 L350.106243044,85.6318931499 Z" fill="#cee3f5" id="CO.LG" stroke="#6e6e6e" stroke-width="0.4"><desc><labelrank>5</labelrank><code_hasc>CO.LG</code_hasc><name>La Guajira</name><admin>Colombia</admin><type_en>Department</type_en><region /><woe_id>2345062</woe_id><longitude>-72</longitude><woe_name>La Guajira</woe_name><fips>CO17</fips><woe_label>La Guajira, CO, Colombia</woe_label><latitude>11</latitude><iso_a2>CO</iso_a2><postal>LG</postal><type>Departamento</type><id>CO.LG</id></desc></path><path d="M277.436001214,280.623292523 L278.073459476,281.402408176 L277.50682991,293.726601234 L273.752909036,300.738642113 L262.7036325,300.596984721 L257.958109886,306.050794293 L250.875240312,307.325710817 L247.333805525,321.208135182 L242.517454214,316.25012648 L233.593038551,314.975209956 L231.822321158,310.937974299 L228.847515936,316.179297784 L225.589395932,313.91277952 L224.314479409,311.008802995 L225.943539411,307.6090256 L228.068400283,308.175655165 L228.918344632,301.44692907 L234.159668117,302.084387332 L236.213700293,300.101183851 L233.097237681,296.276434281 L227.28928463,297.12637863 L227.28928463,292.31002732 L232.813922898,289.406050794 L238.692704644,291.105939492 L238.055246383,282.039866437 L247.121319437,284.66052818 L251.866842052,294.647374279 L257.603966407,290.46848123 L259.445512496,285.297986441 L268.86572903,281.756551654 L272.619649904,284.023069918 L277.436001214,280.623292523 Z" fill="#cee3f5" id="CO.CL" stroke="#6e6e6e" stroke-width="0.4"><desc><labelrank>5</labelrank><code_hasc>CO.CL</code_hasc><name>Caldas</name><admin>Colombia</admin><type_en>Department</type_en><region /><woe_id>2345053</woe_id><longitude>-75</longitude><woe_name>Caldas</woe_name><fips>CO37</fips><woe_label>Caldas, CO, Colombia</woe_label><latitude>5</latitude><iso_a2>CO</iso_a2><postal>CL</postal><type>Departamento</type><id>CO.CL</id></desc></path><path d="M344.935748255,323.970454315 L341.465142163,345.148234342 L331.832439543,341.252656076 L325.032884752,342.244257816 L317.950015178,332.965698674 L313.133663867,337.144591723 L315.612668218,346.281493474 L298.684609936,354.49762218 L301.234442983,348.83132652 L298.755438632,344.369118689 L300.313669938,336.790448244 L305.413336032,328.291004756 L304.77587777,320.641505616 L301.801072549,319.791561267 L295.780633411,328.432662147 L297.693008196,333.815643023 L294.151573409,350.177071739 L290.822624709,350.106243044 L289.618536882,358.605686532 L284.448042092,367.175958717 L281.473236871,364.342810887 L285.014671658,349.185469999 L283.173125569,344.652433472 L280.764949914,343.377516948 L277.719315997,345.998178691 L267.732469898,343.094202165 L271.344733381,333.673985632 L270.423960336,324.537083881 L274.602853385,313.558636042 L273.752909036,300.738642113 L277.50682991,293.726601234 L278.073459476,281.402408176 L290.964282101,278.356774259 L294.718202975,292.380856015 L305.200849944,297.268036021 L313.629464737,289.335222099 L313.91277952,291.672569058 L319.720732571,293.584943843 L325.245370839,303.005160376 L327.22857432,310.158858646 L325.245370839,317.595871699 L329.920064758,318.020843873 L338.065364768,326.378629971 L342.456743904,326.945259537 L344.935748255,323.970454315 Z" fill="#cee3f5" id="CO.CU" stroke="#6e6e6e" stroke-width="0.4"><desc><labelrank>5</labelrank><code_hasc>CO.CU</code_hasc><name>Cundinamarca</name><admin>Colombia</admin><type_en>Department</type_en><region /><woe_id>2345078</woe_id><longitude>-74</longitude><woe_name>Cundinamarca</woe_name><fips /><woe_label>Cundinamarca, CO, Colombia</woe_label><latitude>5</latitude><iso_a2>CO</iso_a2><postal>CU</postal><type>Departamento</type><id>CO.CU</id></desc></path><path d="M298.684609936,354.49762218 L295.780633411,354.355964788 L287.210361226,368.167560457 L284.448042092,367.175958717 L289.618536882,358.605686532 L290.822624709,350.106243044 L294.151573409,350.177071739 L297.693008196,333.815643023 L295.780633411,328.432662147 L301.801072549,319.791561267 L304.77587777,320.641505616 L305.413336032,328.291004756 L300.313669938,336.790448244 L298.755438632,344.369118689 L301.234442983,348.83132652 L298.684609936,354.49762218 Z" fill="#cee3f5" id="CO.1136" stroke="#6e6e6e" stroke-width="0.4"><desc><labelrank>9</labelrank><code_hasc>CO.CU</code_hasc><name>Bogota</name><admin>Colombia</admin><type_en>Federal District</type_en><region /><woe_id>2345079</woe_id><longitude>-74</longitude><woe_name>Bogota</woe_name><fips>CO34</fips><woe_label>Distrito Especial, CO, Colombia</woe_label><latitude>4</latitude><iso_a2>CO</iso_a2><postal>CU</postal><type>Distrito Federal</type><id>CO.1136</id></desc></path><path d="M246.838004654,324.749569969 L231.1140342,351.451988263 L227.926742892,349.610442173 L230.051603764,340.048568249 L225.80188202,336.932105636 L227.005969847,328.999291713 L228.564201153,326.874430841 L233.097237681,327.157745624 L233.238895072,324.89122736 L242.871597693,326.591116058 L246.838004654,324.749569969 Z" fill="#cee3f5" id="CO.QD" stroke="#6e6e6e" stroke-width="0.4"><desc><labelrank>5</labelrank><code_hasc>CO.QD</code_hasc><name>Quindío</name><admin>Colombia</admin><type_en>Department</type_en><region /><woe_id>2345068</woe_id><longitude>-75</longitude><woe_name>Quindío</woe_name><fips>CO23</fips><woe_label>Quindio, CO, Colombia</woe_label><latitude>4</latitude><iso_a2>CO</iso_a2><postal>QD</postal><type>Departamento</type><id>CO.QD</id></desc></path><path d="M227.28928463,292.31002732 L227.28928463,297.12637863 L233.097237681,296.276434281 L236.213700293,300.101183851 L234.159668117,302.084387332 L228.918344632,301.44692907 L228.068400283,308.175655165 L225.943539411,307.6090256 L224.314479409,311.008802995 L225.589395932,313.91277952 L228.847515936,316.179297784 L231.822321158,310.937974299 L233.593038551,314.975209956 L242.517454214,316.25012648 L247.333805525,321.208135182 L246.838004654,324.749569969 L242.871597693,326.591116058 L233.238895072,324.89122736 L224.597794192,322.412223009 L224.456136801,318.162501265 L221.97713245,318.162501265 L218.010725488,311.292117778 L218.081554184,309.238085602 L217.444095922,308.175655165 L217.160781139,305.484164727 L213.619346352,298.047151675 L214.32763331,295.638976019 L217.373267227,293.726601234 L219.498128099,288.626935141 L227.28928463,292.31002732 Z" fill="#cee3f5" id="CO.RI" stroke="#6e6e6e" stroke-width="0.4"><desc><labelrank>5</labelrank><code_hasc>CO.RI</code_hasc><name>Risaralda</name><admin>Colombia</admin><type_en>Department</type_en><region /><woe_id>2345069</woe_id><longitude>-75</longitude><woe_name>Risaralda</woe_name><fips>CO24</fips><woe_label>Risaralda, CO, Colombia</woe_label><latitude>4</latitude><iso_a2>CO</iso_a2><postal>RI</postal><type>Departamento</type><id>CO.RI</id></desc></path><path d="M273.752909036,300.738642113 L274.602853385,313.558636042 L270.423960336,324.537083881 L271.344733381,333.673985632 L267.732469898,343.094202165 L277.719315997,345.998178691 L280.764949914,343.377516948 L283.173125569,344.652433472 L285.014671658,349.185469999 L281.473236871,364.342810887 L274.602853385,371.142365678 L272.548821208,378.154406557 L266.953354245,384.458160478 L260.295456845,384.033188303 L261.641202064,378.43772134 L252.291814226,380.987554386 L248.183749874,379.500151776 L242.446625519,382.049984822 L236.709501164,392.815946575 L228.918344632,401.102903977 L222.118789841,398.765557017 L220.985530709,398.694728321 L219.710614186,399.54467267 L216.31083679,392.603460488 L217.160781139,388.07042396 L217.869068097,387.645451786 L221.552160275,369.513305676 L231.1140342,351.451988263 L246.838004654,324.749569969 L247.333805525,321.208135182 L250.875240312,307.325710817 L257.958109886,306.050794293 L262.7036325,300.596984721 L273.752909036,300.738642113 Z" fill="#cee3f5" id="CO.TO" stroke="#6e6e6e" stroke-width="0.4"><desc><labelrank>5</labelrank><code_hasc>CO.TO</code_hasc><name>Tolima</name><admin>Colombia</admin><type_en>Department</type_en><region /><woe_id>2345073</woe_id><longitude>-75</longitude><woe_name>Tolima</woe_name><fips>CO28</fips><woe_label>Tolima, CO, Colombia</woe_label><latitude>3</latitude><iso_a2>CO</iso_a2><postal>TO</postal><type>Departamento</type><id>CO.TO</id></desc></path><path d="M318.870788222,454.224425782 L329.424263887,471.577456238 L340.68602651,482.272589295 L345.927349995,483.193362339 L351.876960437,478.377011029 L353.293534352,473.064858849 L357.401598705,473.914803197 L359.80977436,471.789942325 L371.425680461,478.518668421 L379.42932308,491.338662349 L387.999595265,494.384296266 L395.932409187,507.275118891 L398.482242234,506.566831934 L408.964889204,514.782960639 L413.922897905,514.145502378 L418.101790954,516.624506729 L402.590306587,525.761408479 L399.0488718,531.640190226 L388.991197005,532.56096327 L384.104016999,535.88991197 L377.729434382,548.214105029 L371.708995244,545.522614591 L366.326014368,550.834766771 L357.897399575,545.593443286 L352.231103916,547.36416068 L347.485581301,544.247698067 L338.702823029,547.505818071 L334.098957806,543.681068501 L323.970454315,543.964383284 L318.020843873,538.652231104 L310.937974299,538.652231104 L294.576545583,531.498532834 L291.389254275,527.319639785 L287.139532531,525.690579783 L281.685722959,527.107153698 L277.223515127,524.486491956 L276.444399474,515.916219771 L264.686835981,510.887382374 L263.19943337,502.529596276 L255.195790752,501.396337145 L251.512698573,491.409491045 L228.210057675,485.389051907 L223.747849843,479.014469291 L218.364868967,478.518668421 L214.185975918,474.764747546 L212.131943742,474.906404938 L210.219568957,474.552261459 L209.440453304,474.127289285 L208.519680259,472.569057978 L208.448851563,472.073257108 L208.873823738,466.619447536 L209.015481129,466.05281797 L214.82343418,456.207629262 L221.764646362,456.703430133 L227.643428109,451.816250126 L250.23778205,424.051401396 L253.354244663,416.260244865 L257.958109886,416.118587473 L262.986947283,411.798037033 L260.862086411,406.344227461 L267.449155115,398.694728321 L275.240311646,400.961246585 L280.127491652,408.327430942 L277.436001214,422.49317009 L282.32318122,430.850956187 L279.277547303,436.658909238 L282.039866437,443.883436204 L308.671456036,453.799453607 L318.870788222,454.224425782 Z" fill="#cee3f5" id="CO.CQ" stroke="#6e6e6e" stroke-width="0.4"><desc><labelrank>5</labelrank><code_hasc>CO.CQ</code_hasc><name>Caquetá</name><admin>Colombia</admin><type_en>Intendancy</type_en><region /><woe_id>2345054</woe_id><longitude>-73</longitude><woe_name>Caquetá</woe_name><fips>CO08</fips><woe_label>Caqueta, CO, Colombia</woe_label><latitude>0</latitude><iso_a2>CO</iso_a2><postal>CQ</postal><type>Intendencia</type><id>CO.CQ</id></desc></path><path d="M144.773854093,414.064555297 L141.444905393,413.427097035 L142.294849742,411.443893555 L140.240817566,409.035717899 L145.765455833,413.427097035 L144.773854093,414.064555297 M182.525548922,467.186077102 L181.958919356,459.182434483 L185.358696752,455.216027522 L181.958919356,450.116361429 L174.592734999,452.312050997 L165.10168977,451.391277952 L170.413841951,439.987857938 L165.030861075,435.738136193 L165.668319336,431.205099666 L160.002023677,429.080238794 L149.165233229,432.338358798 L143.428108874,430.850956187 L138.824243651,422.280684003 L138.682586259,414.985328342 L133.582920166,411.160578772 L138.824243651,410.02731964 L141.444905393,411.656379642 L140.736618436,413.993726601 L143.428108874,414.560356167 L146.827886269,413.497925731 L144.632196701,406.273398766 L151.856723667,402.802792674 L148.740261054,400.677931802 L151.927552363,400.607103106 L152.494181929,396.782353536 L148.456946271,397.136497015 L158.727107154,386.866336133 L156.106445411,386.08722048 L157.664676718,384.599817869 L158.372963675,384.174845695 L159.364565415,383.74987352 L161.2769402,385.591419609 L163.260143681,389.345340484 L167.9348376,391.257715269 L174.309420217,388.424567439 L178.346655874,389.416169179 L179.550743701,390.620257007 L182.454720227,392.107659618 L183.658808054,392.532631792 L184.437923707,392.603460488 L188.262673277,388.778710918 L192.724881109,391.966002226 L194.424769807,391.257715269 L195.416371547,392.3909744 L195.628857634,392.3909744 L195.770515026,392.249317009 L196.266315896,391.541030052 L196.762116766,391.328543964 L197.753718507,391.89517353 L202.215926338,387.999595265 L202.640898513,383.183243954 L210.290397653,384.670646565 L213.619346352,386.441363958 L216.31083679,387.07882222 L217.869068097,387.645451786 L216.31083679,392.603460488 L219.14398462,395.082464839 L219.781442882,396.711524841 L219.710614186,399.54467267 L219.993928969,400.252959628 L228.635029849,407.68997268 L229.201659415,408.327430942 L229.697460285,409.460690074 L230.264089851,410.381463118 L229.62663159,418.597591824 L228.635029849,419.16422139 L227.572599413,420.509966609 L226.156025498,420.580795305 L222.402104624,417.889304867 L211.140342001,423.697257918 L209.298795912,423.48477183 L206.961448953,421.714054437 L206.323990691,421.147424871 L205.049074168,420.864110088 L204.482444602,423.059799656 L205.969847212,426.388748356 L205.899018517,427.026206617 L204.269958515,430.6384701 L203.207528079,431.559243145 L203.420014166,432.904988364 L197.753718507,433.329960538 L197.116260245,434.250733583 L197.116260245,436.163108368 L197.257917636,437.438024891 L197.187088941,437.79216837 L196.053829809,438.854598806 L195.69968633,439.562885763 L195.628857634,440.129515329 L195.770515026,441.900232723 L196.620459375,443.458464029 L204.836588081,452.737023171 L210.148740261,454.932712739 L211.706971567,455.428513609 L213.265202874,455.499342305 L214.82343418,456.207629262 L214.044318527,456.774258828 L211.352828089,460.882323181 L209.015481129,466.05281797 L208.873823738,466.619447536 L208.448851563,472.073257108 L208.519680259,472.569057978 L209.440453304,474.127289285 L210.219568957,474.552261459 L212.131943742,474.906404938 L214.185975918,474.764747546 L218.364868967,478.518668421 L218.294040271,478.518668421 L217.869068097,478.943640595 L217.302438531,479.86441364 L214.681776788,480.006071031 L212.769402003,481.280987554 L212.061115046,481.493473642 L200.161894162,479.297784074 L199.311949813,478.660325812 L198.320348072,477.172923201 L197.895375898,475.402205808 L198.107861985,471.719113629 L198.320348072,470.939997976 L199.02863503,469.523424062 L199.170292421,468.815137104 L199.170292421,468.248507538 L199.02863503,467.681877972 L196.124658505,463.219670141 L193.362339371,461.944753617 L192.654052413,462.157239705 L189.537589801,466.477790145 L188.333501973,467.115248406 L187.200242841,467.398563189 L182.525548922,467.186077102 Z" fill="#cee3f5" id="CO.CA" stroke="#6e6e6e" stroke-width="0.4"><desc><labelrank>5</labelrank><code_hasc>CO.CA</code_hasc><name>Cauca</name><admin>Colombia</admin><type_en>Department</type_en><region /><woe_id>2345055</woe_id><longitude>-77</longitude><woe_name>Cauca</woe_name><fips>CO09</fips><woe_label>Cauca, CO, Colombia</woe_label><latitude>2</latitude><iso_a2>CO</iso_a2><postal>CA</postal><type>Departamento</type><id>CO.CA</id></desc></path><path d="M284.448042092,367.175958717 L279.277547303,376.312860467 L277.790144693,385.733077001 L270.494789032,392.107659618 L267.449155115,398.694728321 L260.862086411,406.344227461 L262.986947283,411.798037033 L257.958109886,416.118587473 L253.354244663,416.260244865 L250.23778205,424.051401396 L227.643428109,451.816250126 L221.764646362,456.703430133 L214.82343418,456.207629262 L213.265202874,455.499342305 L211.706971567,455.428513609 L210.148740261,454.932712739 L204.836588081,452.737023171 L196.620459375,443.458464029 L195.770515026,441.900232723 L195.69968633,439.562885763 L196.053829809,438.854598806 L197.187088941,437.79216837 L197.116260245,434.250733583 L197.753718507,433.329960538 L203.420014166,432.904988364 L205.899018517,427.026206617 L205.969847212,426.388748356 L204.482444602,423.059799656 L205.049074168,420.864110088 L206.323990691,421.147424871 L206.961448953,421.714054437 L209.298795912,423.48477183 L211.140342001,423.697257918 L222.402104624,417.889304867 L226.156025498,420.580795305 L227.572599413,420.509966609 L228.635029849,419.16422139 L229.62663159,418.597591824 L228.422543762,416.260244865 L228.564201153,415.056157037 L229.343316807,413.35626834 L230.264089851,410.381463118 L229.201659415,408.327430942 L228.635029849,407.68997268 L227.218455934,406.840028331 L219.993928969,400.252959628 L219.710614186,399.54467267 L220.985530709,398.694728321 L222.118789841,398.765557017 L228.918344632,401.102903977 L236.709501164,392.815946575 L242.446625519,382.049984822 L248.183749874,379.500151776 L252.291814226,380.987554386 L261.641202064,378.43772134 L260.295456845,384.033188303 L266.953354245,384.458160478 L272.548821208,378.154406557 L274.602853385,371.142365678 L281.473236871,364.342810887 L284.448042092,367.175958717 Z" fill="#cee3f5" id="CO.HU" stroke="#6e6e6e" stroke-width="0.4"><desc><labelrank>5</labelrank><code_hasc>CO.HU</code_hasc><name>Huila</name><admin>Colombia</admin><type_en>Department</type_en><region /><woe_id>2345061</woe_id><longitude>-75</longitude><woe_name>Huila</woe_name><fips>CO16</fips><woe_label>Huila, CO, Colombia</woe_label><latitude>2</latitude><iso_a2>CO</iso_a2><postal>HU</postal><type>Departamento</type><id>CO.HU</id></desc></path><path d="M133.582920166,411.160578772 L138.682586259,414.985328342 L138.824243651,422.280684003 L143.428108874,430.850956187 L149.165233229,432.338358798 L160.002023677,429.080238794 L165.668319336,431.205099666 L165.030861075,435.738136193 L170.413841951,439.987857938 L165.10168977,451.391277952 L174.592734999,452.312050997 L181.958919356,450.116361429 L185.358696752,455.216027522 L181.958919356,459.182434483 L182.525548922,467.186077102 L180.046544571,467.894364059 L179.834058484,468.531822321 L179.90488718,469.87756754 L179.763229789,470.302539715 L179.125771527,470.869169281 L178.700799352,471.152484064 L175.017707174,472.498229283 L174.946878478,473.064858849 L174.876049782,474.906404938 L175.08853587,477.243751897 L175.230193261,477.456237984 L175.867651523,477.52706668 L176.646767176,478.235353638 L177.213396742,478.447839725 L177.425882829,478.589497116 L177.567540221,478.943640595 L177.567540221,479.297784074 L177.142568046,480.431043206 L177.000910655,480.785186684 L174.946878478,485.105737124 L173.742790651,487.159769301 L172.963674997,487.797227562 L168.713953253,492.967722352 L170.343013255,494.596782354 L172.326216736,496.225842356 L174.026105434,497.288272792 L174.167762825,497.713244966 L174.096934129,498.421531924 L173.530304563,499.129818881 L173.459475868,499.554791055 L173.601133259,500.050591926 L174.451077608,501.962966711 L174.592734999,502.600424972 L174.663563695,503.875341495 L175.08853587,504.725285844 L175.159364565,505.575230193 L175.08853587,505.858544976 L174.946878478,506.141859759 L174.592734999,506.425174542 L174.451077608,507.062632804 L174.380248912,507.345947587 L169.988869776,508.195891936 L160.851968026,505.079429323 L159.010421937,494.880097136 L151.502580188,492.188606698 L149.094404533,486.876454518 L142.082363655,488.080542345 L121.825356673,477.881210159 L116.088232318,472.144085804 L107.659617525,468.39016493 L101.568349691,461.944753617 L100.222604472,456.774258828 L93.8480218557,454.011939694 L100.860062734,445.724982293 L112.475968835,447.354042295 L113.609227967,441.829404027 L111.626024486,442.537690985 L110.988566225,437.083881413 L108.509561874,438.925427502 L106.951330568,430.213497926 L114.530001012,417.464332693 L122.108671456,411.089750076 L125.933421026,415.551957908 L126.287564505,410.452291814 L127.916624507,415.693615299 L131.528887989,417.535161388 L133.0162906,416.897703127 L133.582920166,411.160578772 M128.058281898,409.460690074 L130.608114945,410.02731964 L132.166346251,416.756045735 L127.987453202,414.135383993 L128.058281898,409.460690074 Z" fill="#cee3f5" id="CO.NA" stroke="#6e6e6e" stroke-width="0.4"><desc><labelrank>5</labelrank><code_hasc>CO.NA</code_hasc><name>Nariño</name><admin>Colombia</admin><type_en>Department</type_en><region /><woe_id>2345065</woe_id><longitude>-77</longitude><woe_name>Nariño</woe_name><fips>CO20</fips><woe_label>Narino, CO, Colombia</woe_label><latitude>1</latitude><iso_a2>CO</iso_a2><postal>NA</postal><type>Departamento</type><id>CO.NA</id></desc></path><path d="M218.364868967,478.518668421 L223.747849843,479.014469291 L228.210057675,485.389051907 L251.512698573,491.409491045 L255.195790752,501.396337145 L263.19943337,502.529596276 L264.686835981,510.887382374 L276.444399474,515.916219771 L277.223515127,524.486491956 L281.685722959,527.107153698 L287.139532531,525.690579783 L291.389254275,527.319639785 L294.576545583,531.498532834 L310.937974299,538.652231104 L287.706162097,545.805929374 L278.144288172,536.38571284 L271.911362946,535.252453708 L273.398765557,533.835879794 L270.494789032,529.302843266 L265.890923809,530.931903268 L257.108165537,523.990691086 L253.708388141,523.565718911 L251.158555095,526.682181524 L236.638672468,518.891024992 L229.768288981,518.678538905 L218.64818375,506.991804108 L208.236365476,502.883739755 L203.34918547,505.362744106 L203.703328949,511.524840635 L197.682889811,513.083071942 L190.38753415,510.604067591 L189.962561975,512.44561368 L183.72963675,512.162298897 L174.380248912,507.345947587 L174.451077608,507.062632804 L174.592734999,506.425174542 L174.946878478,506.141859759 L175.08853587,505.858544976 L175.159364565,505.575230193 L175.08853587,504.725285844 L174.663563695,503.875341495 L174.592734999,502.600424972 L174.451077608,501.962966711 L173.601133259,500.050591926 L173.459475868,499.554791055 L173.530304563,499.129818881 L174.096934129,498.421531924 L174.167762825,497.713244966 L174.026105434,497.288272792 L172.326216736,496.225842356 L170.343013255,494.596782354 L168.713953253,492.967722352 L169.563897602,492.046949307 L172.963674997,487.797227562 L173.742790651,487.159769301 L174.946878478,485.105737124 L177.000910655,480.785186684 L177.142568046,480.431043206 L177.567540221,479.297784074 L177.567540221,478.943640595 L177.425882829,478.589497116 L177.213396742,478.447839725 L176.646767176,478.235353638 L175.867651523,477.52706668 L175.230193261,477.456237984 L175.08853587,477.243751897 L174.876049782,474.906404938 L174.946878478,473.064858849 L175.017707174,472.498229283 L178.700799352,471.152484064 L179.125771527,470.869169281 L179.763229789,470.302539715 L179.90488718,469.87756754 L179.975715876,469.452595366 L180.046544571,467.894364059 L181.250632399,468.248507538 L182.525548922,467.186077102 L187.200242841,467.398563189 L188.333501973,467.115248406 L189.537589801,466.477790145 L193.362339371,461.944753617 L196.124658505,463.219670141 L199.02863503,467.681877972 L199.170292421,468.248507538 L199.170292421,468.815137104 L199.02863503,469.523424062 L198.320348072,470.939997976 L198.107861985,471.719113629 L197.895375898,475.402205808 L198.320348072,477.172923201 L199.311949813,478.660325812 L200.161894162,479.297784074 L212.061115046,481.493473642 L212.769402003,481.280987554 L214.681776788,480.006071031 L217.302438531,479.86441364 L218.364868967,478.518668421 Z" fill="#cee3f5" id="CO.PU" stroke="#6e6e6e" stroke-width="0.4"><desc><labelrank>5</labelrank><code_hasc>CO.PU</code_hasc><name>Putumayo</name><admin>Colombia</admin><type_en>Intendancy</type_en><region /><woe_id>2345067</woe_id><longitude>-75</longitude><woe_name>Putumayo</woe_name><fips>CO22</fips><woe_label>Putumayo, CO, Colombia</woe_label><latitude>0</latitude><iso_a2>CO</iso_a2><postal>PU</postal><type>Intendencia</type><id>CO.PU</id></desc></path><path d="M233.238895072,324.89122736 L233.097237681,327.157745624 L228.564201153,326.874430841 L227.005969847,328.999291713 L225.80188202,336.932105636 L230.051603764,340.048568249 L227.926742892,349.610442173 L231.1140342,351.451988263 L221.552160275,369.513305676 L217.869068097,387.645451786 L216.31083679,387.07882222 L213.619346352,386.441363958 L210.290397653,384.670646565 L202.640898513,383.183243954 L202.215926338,387.999595265 L197.753718507,391.89517353 L196.762116766,391.328543964 L196.266315896,391.541030052 L195.770515026,392.249317009 L195.628857634,392.3909744 L195.416371547,392.3909744 L194.424769807,391.257715269 L192.724881109,391.966002226 L188.262673277,388.778710918 L184.437923707,392.603460488 L183.658808054,392.532631792 L182.454720227,392.107659618 L179.550743701,390.620257007 L178.346655874,389.416169179 L174.309420217,388.424567439 L167.9348376,391.257715269 L163.260143681,389.345340484 L161.2769402,385.591419609 L161.064454113,385.449762218 L159.364565415,383.74987352 L158.797935849,383.25407265 L162.906000202,380.208438733 L165.526661945,383.041586563 L163.472629768,379.570980472 L164.960032379,374.967115248 L167.864008904,376.737832642 L165.455833249,373.479712638 L174.026105434,368.025903066 L170.555499342,365.263583932 L173.742790651,365.688556106 L171.617929778,364.696954366 L172.680360215,362.359607407 L177.709197612,358.109885662 L166.730749772,360.376403926 L166.376606294,355.843367399 L170.201355864,355.48922392 L171.122128908,351.735303046 L167.9348376,349.964585652 L163.755944551,357.543256096 L160.922796722,353.930992614 L160.78113933,348.052210867 L166.518263685,346.989780431 L168.359809774,344.369118689 L169.776383689,347.485581301 L180.89648892,349.397956086 L183.587979358,352.797733482 L189.112617626,354.780936962 L189.820904584,354.851765658 L190.38753415,354.639279571 L193.574825458,351.947789133 L196.903774158,352.301932612 L197.187088941,351.310330871 L198.178690681,349.964585652 L199.241121117,348.902155216 L201.224324598,348.123039563 L202.35758373,346.989780431 L202.499241121,346.777294344 L202.640898513,346.210664778 L200.232722857,344.652433472 L200.091065466,343.660831731 L200.374380249,341.606799555 L200.303551553,341.252656076 L198.957806334,339.836082161 L198.249519377,338.490336942 L198.178690681,338.207022159 L198.178690681,338.065364768 L199.170292421,338.207022159 L199.949408074,338.065364768 L200.445208945,337.852878681 L200.799352423,337.782049985 L201.153495902,337.640392593 L201.436810685,337.498735202 L202.003440251,337.002934332 L203.207528079,330.274208236 L207.882221997,326.236972579 L208.661337651,322.624709096 L214.115147223,317.383385612 L218.010725488,311.292117778 L221.97713245,318.162501265 L224.456136801,318.162501265 L224.597794192,322.412223009 L233.238895072,324.89122736 Z" fill="#cee3f5" id="CO.VC" stroke="#6e6e6e" stroke-width="0.4"><desc><labelrank>5</labelrank><code_hasc>CO.VC</code_hasc><name>Valle del Cauca</name><admin>Colombia</admin><type_en>Department</type_en><region /><woe_id>2345074</woe_id><longitude>-76</longitude><woe_name>Valle del Cauca</woe_name><fips>CO11</fips><woe_label>Valle del Cauca, CO, Colombia</woe_label><latitude>3</latitude><iso_a2>CO</iso_a2><postal>VC</postal><type>Departamento</type><id>CO.VC</id></desc></path><path d="M267.095011636,92.3606192452 L266.245067287,91.3690175048 L264.403521198,89.2441566326 L260.507942932,86.1985227158 L258.170595973,86.694323586 L253.354244663,82.9404027117 L253.212587271,82.7279166245 L252.787615097,81.8779722756 L252.645957705,81.3113427097 L254.345846403,77.2032783568 L254.06253162,76.4241627036 L252.858443792,75.2909035718 L252.787615097,75.0784174846 L252.787615097,74.8659313973 L252.787615097,74.4409592229 L252.858443792,74.2993018314 L253.141758575,73.8035009612 L254.55833249,72.7410705251 L254.841647273,68.9163209552 L270.069816857,58.0087018112 L275.027825559,65.0915713852 L275.098654255,78.2657087929 L267.095011636,92.3606192452 Z" fill="#cee3f5" id="CO.AT" stroke="#6e6e6e" stroke-width="0.4"><desc><labelrank>5</labelrank><code_hasc>CO.AT</code_hasc><name>Atlántico</name><admin>Colombia</admin><type_en>Department</type_en><region /><woe_id>2345050</woe_id><longitude>-74</longitude><woe_name>Atlántico</woe_name><fips>CO04</fips><woe_label>Atlantico, CO, Colombia</woe_label><latitude>10</latitude><iso_a2>CO</iso_a2><postal>AT</postal><type>Departamento</type><id>CO.AT</id></desc></path><path d="M241.525852474,88.8191844582 L239.188505515,90.0941009815 L239.825963776,87.6859253263 L241.525852474,88.8191844582 M271.628048164,175.58433674 L272.619649904,175.442679348 L274.319538602,174.309420217 L277.790144693,174.026105434 L281.544065567,170.059698472 L280.056662957,156.885561064 L282.606496003,153.273297582 L267.732469898,138.045127998 L266.0325812,130.962258424 L267.590812506,127.137508854 L262.774461196,125.86259233 L263.270262066,123.171101892 L256.045735101,118.496407973 L248.042092482,118.567236669 L250.025295963,108.509561874 L243.792370738,107.022159263 L243.934028129,101.851664474 L241.384195082,101.497520996 L243.509055955,97.5311140342 L239.542648993,99.6559749064 L241.667509865,93.4230496813 L234.4429829,97.8144288172 L239.117676819,90.8023879389 L242.304968127,90.1649296772 L241.950824648,87.1192957604 L239.75513508,86.7651522817 L242.871597693,83.0820601032 L243.225741172,85.2777496712 L243.438227259,82.5154305373 L242.021653344,79.7531114034 L252.858443792,72.5285844379 L253.141758575,72.9535566124 L252.858443792,73.3785287868 L253.141758575,73.8035009612 L252.858443792,74.2993018314 L252.787615097,74.4409592229 L252.787615097,74.8659313973 L252.787615097,75.0784174846 L252.858443792,75.2909035718 L254.06253162,76.4241627036 L254.345846403,77.2032783568 L252.645957705,81.3113427097 L252.787615097,81.8779722756 L253.212587271,82.5154305373 L253.212587271,82.7279166245 L253.354244663,82.9404027117 L253.637559446,83.0820601032 L256.470707275,83.5070322776 L258.170595973,86.694323586 L260.507942932,86.1985227158 L264.403521198,89.2441566326 L266.245067287,91.3690175048 L267.095011636,92.3606192452 L266.811696853,92.9272488111 L265.961752504,95.7603966407 L265.820095113,96.6103409896 L266.0325812,97.8144288172 L269.786502074,99.6559749064 L271.628048164,102.134979257 L271.769705555,102.559951432 L271.698876859,103.622381868 L271.415562076,104.189011434 L269.007386421,105.676414044 L268.794900334,106.172214914 L268.653242942,107.092987959 L268.724071638,109.005362744 L268.86572903,109.926135789 L271.273904685,113.255084489 L272.6904786,118.992208843 L272.761307295,119.629667105 L272.336335121,121.329555803 L271.698876859,125.083476677 L271.911362946,126.641707983 L273.115450774,126.500050592 L274.319538602,127.916624507 L275.948598604,127.491652332 L278.710917738,129.474855813 L283.031468178,135.282808864 L287.281189922,134.291207123 L298.755438632,143.428108874 L310.513002125,146.615400182 L309.946372559,147.81948801 L310.08802995,149.094404533 L310.583830821,150.156834969 L311.221289082,151.077608014 L312.637862997,152.352524537 L313.204492563,153.13164019 L312.283719518,160.426995851 L313.629464737,163.11848629 L313.841950825,165.455833249 L315.116867348,168.147323687 L315.400182131,171.051300212 L315.258524739,171.75958717 L314.904381261,172.326216736 L314.975209956,172.75118891 L315.258524739,173.105332389 L315.400182131,173.601133259 L315.258524739,173.813619346 L314.762723869,174.734392391 L313.700293433,178.417484569 L313.700293433,178.700799352 L313.91277952,179.054942831 L314.196094303,180.188201963 L314.125265608,180.613174137 L312.850349084,181.533947182 L312.212890823,182.454720227 L312.071233431,182.525548922 L311.221289082,182.950521097 L311.221289082,183.021349793 L310.796316908,184.154608924 L310.513002125,185.500354143 L310.442173429,186.279469797 L310.513002125,187.05858545 L311.221289082,189.395932409 L311.079631691,189.891733279 L311.717089952,192.441566326 L312.283719518,193.149853283 L312.850349084,195.628857634 L312.850349084,196.549630679 L312.496205606,198.957806334 L312.354548214,199.453607204 L312.142062127,199.807750683 L312.000404735,200.091065466 L312.354548214,200.657695032 L312.567034301,201.082667206 L312.496205606,201.436810685 L312.354548214,201.861782859 L312.212890823,202.215926338 L312.283719518,203.703328949 L312.071233431,204.269958515 L311.504603865,204.553273298 L309.025599514,207.882221997 L308.813113427,208.519680259 L308.813113427,210.148740261 L308.883942123,210.50288374 L309.308914297,211.140342001 L309.379742993,211.565314176 L309.308914297,211.99028635 L308.813113427,213.123545482 L308.317312557,214.894262876 L308.10482647,216.594151573 L294.576545583,229.343316807 L290.822624709,228.776687241 L290.397652535,228.139228979 L290.043509056,226.29768289 L288.556106445,222.118789841 L288.272791662,220.843873318 L288.201962967,219.781442882 L288.626935141,214.82343418 L290.185166447,212.769402003 L290.46848123,212.131943742 L290.680967318,211.069513306 L289.97268036,208.732166346 L288.272791662,210.077911565 L287.776990792,210.786198523 L287.068703835,212.627744612 L286.572902965,213.265202874 L285.581301224,214.044318527 L284.731356875,214.256804614 L283.952241222,214.044318527 L283.102296873,213.194374178 L281.685722959,211.49448548 L280.906607305,209.652939391 L280.694121218,208.590508955 L280.694121218,207.244763736 L281.189922088,203.84498634 L284.306384701,200.799352423 L285.014671658,199.595264596 L285.085500354,198.886977638 L284.873014267,198.391176768 L283.385611656,196.903774158 L282.535667307,191.520793281 L282.110695133,190.316705454 L280.127491652,187.412728928 L270.35313164,179.40908631 L270.636446423,178.771628048 L270.707275119,178.275827178 L270.919761206,177.850855004 L271.132247293,177.496711525 L271.769705555,176.859253263 L271.840534251,176.57593848 L271.769705555,176.363452393 L271.628048164,175.58433674 Z" fill="#cee3f5" id="CO.BL" stroke="#6e6e6e" stroke-width="0.4"><desc><labelrank>5</labelrank><code_hasc>CO.BL</code_hasc><name>Bolívar</name><admin>Colombia</admin><type_en>Department</type_en><region /><woe_id>2345051</woe_id><longitude>-74</longitude><woe_name>Bolívar</woe_name><fips>CO35</fips><woe_label>Bolivar, CO, Colombia</woe_label><latitude>8</latitude><iso_a2>CO</iso_a2><postal>BL</postal><type>Departamento</type><id>CO.BL</id></desc></path><path d="M350.106243044,85.6318931499 L347.273095214,111.413538399 L330.486694324,137.33684104 L331.619953455,138.540928868 L328.574319539,140.594961044 L329.070120409,154.619042801 L323.40382475,162.693514115 L326.378629971,168.005666296 L324.820398664,171.192957604 L327.582717798,173.601133259 L329.920064758,171.688758474 L329.353435192,168.288981079 L331.974096934,168.92643934 L329.849236062,181.958919356 L334.948902155,188.970960235 L328.857634322,199.5244359 L325.8828291,200.728523728 L320.853991703,198.462005464 L315.541839522,198.178690681 L318.941616918,190.316705454 L314.125265608,180.613174137 L314.196094303,180.188201963 L314.054436912,179.763229789 L313.91277952,179.054942831 L313.700293433,178.700799352 L313.700293433,178.417484569 L313.771122129,178.204998482 L314.266922999,177.709197612 L314.691895174,176.434281089 L314.762723869,174.734392391 L315.258524739,173.813619346 L315.400182131,173.601133259 L315.258524739,173.105332389 L314.975209956,172.75118891 L314.904381261,172.326216736 L315.258524739,171.75958717 L315.400182131,171.051300212 L315.116867348,168.147323687 L313.841950825,165.455833249 L312.283719518,160.426995851 L312.212890823,157.664676718 L313.204492563,153.13164019 L312.637862997,152.352524537 L311.221289082,151.077608014 L310.583830821,150.156834969 L311.646261257,146.757057574 L313.487807346,143.144794091 L310.229687342,137.761813215 L306.900738642,136.982697561 L305.130021249,128.766568856 L299.463725589,124.658504503 L304.067590813,120.762926237 L314.125265608,120.479611454 L311.717089952,112.40514014 L302.296873419,100.293433168 L308.458969948,88.6775270667 L322.908023879,82.1612870586 L321.137306486,76.3533340079 L323.191338662,72.4577557422 L319.791561267,71.3244966103 L321.491449965,68.2080339978 L334.736416068,67.8538905191 L336.223818679,72.8827279166 L343.448345644,77.2032783568 L339.056966508,84.4278053223 L340.827683902,86.6234948902 L350.106243044,85.6318931499 Z" fill="#cee3f5" id="CO.CE" stroke="#6e6e6e" stroke-width="0.4"><desc><labelrank>5</labelrank><code_hasc>CO.CE</code_hasc><name>Cesar</name><admin>Colombia</admin><type_en>Department</type_en><region /><woe_id>2345056</woe_id><longitude>-73</longitude><woe_name>Cesar</woe_name><fips>CO10</fips><woe_label>Cesar, CO, Colombia</woe_label><latitude>9</latitude><iso_a2>CO</iso_a2><postal>CE</postal><type>Departamento</type><id>CO.CE</id></desc></path><path d="M164.251745421,343.377516948 L167.651522817,343.660831731 L155.96478802,345.856521299 L160.78113933,343.660831731 L161.064454113,340.19022564 L164.251745421,343.377516948 M168.643124557,166.022462815 L180.613174137,176.150966306 L180.684002833,176.292623697 L181.108975008,178.346655874 L181.604775878,179.834058484 L181.888090661,183.304664576 L181.604775878,184.22543762 L181.321461095,184.650409795 L181.250632399,185.358696752 L180.40068805,185.925326318 L179.763229789,186.916928058 L178.984114135,191.166649803 L174.876049782,193.503996762 L174.876049782,195.20388546 L175.017707174,195.345542851 L175.08853587,195.558028939 L175.159364565,195.770515026 L175.08853587,195.69968633 L174.876049782,195.770515026 L174.734392391,195.912172417 L174.592734999,196.053829809 L174.876049782,196.620459375 L175.301021957,197.187088941 L180.613174137,202.074268947 L184.933724578,205.190731559 L192.654052413,214.044318527 L198.886977638,217.727410705 L200.303551553,221.127188101 L200.374380249,225.80188202 L200.232722857,226.651826369 L200.091065466,227.005969847 L198.674491551,229.343316807 L192.937367196,227.7850855 L189.395932409,227.997571588 L188.191844582,228.210057675 L187.341900233,228.493372458 L186.704441971,228.918344632 L186.56278458,229.484974198 L186.633613275,229.768288981 L187.55438632,230.830719417 L187.908529799,231.963978549 L188.121015886,233.522209855 L187.908529799,234.159668117 L186.846099363,235.363755945 L186.491955884,235.576242032 L184.508752403,235.363755945 L180.754831529,236.780329859 L180.825660225,237.205302034 L180.825660225,238.76353334 L180.967317616,239.188505515 L181.746433269,240.109278559 L180.825660225,241.242537691 L183.517150663,241.667509865 L184.012951533,246.342203784 L185.146210665,246.41303248 L188.404330669,250.521096833 L188.404330669,250.875240312 L188.05018719,251.371041182 L187.766872407,251.866842052 L187.837701103,252.291814226 L188.54598806,252.433471618 L188.404330669,252.716786401 L188.262673277,252.929272488 L188.05018719,253.000101184 L187.696043711,253.07092988 L188.05018719,253.708388141 L188.333501973,254.204189011 L188.54598806,255.620762926 L188.191844582,255.974906405 L187.908529799,256.683193362 L187.837701103,257.533137711 L187.979358494,258.170595973 L189.112617626,258.737225539 L191.449964586,263.341090762 L192.016594152,263.766062936 L194.141455024,264.191035111 L197.541232419,264.049377719 L206.748962866,262.845289892 L210.573712435,263.624405545 L212.273601133,269.432358596 L216.664980269,271.911362946 L216.948295052,273.823737731 L215.744207225,276.727714257 L215.673378529,277.719315997 L215.885864616,278.852575129 L216.169179399,279.773348174 L217.65658201,282.32318122 L217.231609835,285.864616007 L219.498128099,288.626935141 L217.939896792,290.255995143 L217.373267227,293.726601234 L214.32763331,295.638976019 L213.619346352,298.047151675 L217.160781139,305.484164727 L218.081554184,309.238085602 L218.010725488,311.292117778 L215.31923505,314.054436912 L214.115147223,317.383385612 L208.661337651,322.624709096 L203.207528079,330.274208236 L202.003440251,337.002934332 L201.436810685,337.498735202 L201.153495902,337.640392593 L200.799352423,337.782049985 L200.445208945,337.852878681 L199.949408074,338.065364768 L199.170292421,338.207022159 L198.178690681,338.065364768 L198.178690681,338.207022159 L198.249519377,338.490336942 L198.957806334,339.836082161 L200.303551553,341.252656076 L200.374380249,341.606799555 L200.091065466,343.660831731 L200.232722857,344.652433472 L202.003440251,345.573206516 L202.640898513,346.210664778 L202.499241121,346.777294344 L202.35758373,346.989780431 L201.224324598,348.123039563 L199.241121117,348.902155216 L198.178690681,349.964585652 L197.187088941,351.310330871 L196.903774158,352.301932612 L193.574825458,351.947789133 L190.38753415,354.639279571 L189.820904584,354.851765658 L189.112617626,354.780936962 L187.200242841,354.001821309 L186.491955884,353.364363048 L183.587979358,352.797733482 L180.89648892,349.397956086 L169.776383689,347.485581301 L169.138925428,343.377516948 L164.889203683,343.235859557 L162.835171507,339.977739553 L165.951634119,334.736416068 L165.455833249,322.978852575 L168.288981079,325.032884752 L164.535060204,318.729130831 L163.260143681,295.709804715 L159.931194981,291.530911666 L155.823130628,291.460082971 L158.727107154,287.635333401 L165.314175858,286.785389052 L169.068096732,281.82738035 L164.6058889,269.574015987 L159.152079328,262.7036325 L159.222908024,258.312253364 L162.056055853,260.649600324 L163.472629768,258.028938581 L165.10168977,246.90883335 L162.339370636,241.525852474 L160.214509764,240.392593342 L157.027218456,242.800768997 L154.760700192,235.859556815 L150.440149752,234.93878377 L151.785894971,227.997571588 L142.224021046,218.719012446 L145.48214105,208.590508955 L149.236061925,206.394819387 L147.890316705,199.02863503 L155.539815845,206.536476778 L165.668319336,199.099463726 L163.968430638,196.266315896 L167.368208034,190.954163715 L173.105332389,189.395932409 L162.481028028,167.651522817 L159.647880198,166.872407164 L164.818374987,158.372963675 L168.643124557,166.022462815 Z" fill="#cee3f5" id="CO.CH" stroke="#6e6e6e" stroke-width="0.4"><desc><labelrank>5</labelrank><code_hasc>CO.CH</code_hasc><name>Chocó</name><admin>Colombia</admin><type_en>Department</type_en><region /><woe_id>2345057</woe_id><longitude>-76</longitude><woe_name>Chocó</woe_name><fips>CO11</fips><woe_label>Choco, CO, Colombia</woe_label><latitude>5</latitude><iso_a2>CO</iso_a2><postal>CH</postal><type>Departamento</type><id>CO.CH</id></desc></path><path d="M323.120509967,50.146716584 L319.649903875,61.337650511 L321.491449965,68.2080339978 L319.791561267,71.3244966103 L323.191338662,72.4577557422 L321.137306486,76.3533340079 L322.908023879,82.1612870586 L308.458969948,88.6775270667 L302.296873419,100.293433168 L311.717089952,112.40514014 L314.125265608,120.479611454 L304.067590813,120.762926237 L299.463725589,124.658504503 L305.130021249,128.766568856 L306.900738642,136.982697561 L310.229687342,137.761813215 L313.487807346,143.144794091 L311.646261257,146.757057574 L310.583830821,150.156834969 L310.08802995,149.094404533 L309.946372559,147.81948801 L310.513002125,146.615400182 L298.755438632,143.428108874 L287.281189922,134.291207123 L283.031468178,135.282808864 L278.710917738,129.474855813 L275.948598604,127.491652332 L274.319538602,127.916624507 L271.911362946,126.641707983 L271.698876859,125.083476677 L272.336335121,121.329555803 L272.761307295,119.629667105 L272.6904786,118.992208843 L270.778103815,116.72569058 L271.273904685,113.255084489 L268.86572903,109.926135789 L268.724071638,109.005362744 L268.653242942,107.092987959 L268.794900334,106.172214914 L269.007386421,105.676414044 L271.415562076,104.189011434 L271.698876859,103.622381868 L271.769705555,102.559951432 L271.628048164,102.134979257 L270.919761206,101.710007083 L269.786502074,99.6559749064 L266.0325812,97.8144288172 L265.820095113,96.6103409896 L265.961752504,95.7603966407 L267.095011636,92.3606192452 L275.098654255,78.2657087929 L275.027825559,65.0915713852 L270.069816857,58.0087018112 L292.80582819,62.1167661641 L284.802185571,62.6125670343 L285.227157746,67.9955479106 L280.410806435,67.2872609532 L280.33997774,70.8995244359 L281.82738035,68.8454922594 L284.448042092,71.6078113933 L284.023069918,68.2788626935 L288.48527775,72.3160983507 L296.13477689,58.4336739856 L295.497318628,51.6341191946 L298.826267328,47.3843974502 L323.120509967,50.146716584 Z" fill="#cee3f5" id="CO.MA" stroke="#6e6e6e" stroke-width="0.4"><desc><labelrank>5</labelrank><code_hasc>CO.MA</code_hasc><name>Magdalena</name><admin>Colombia</admin><type_en>Department</type_en><region /><woe_id>2345063</woe_id><longitude>-74</longitude><woe_name>Magdalena</woe_name><fips>CO18</fips><woe_label>Magdalena, CO, Colombia</woe_label><latitude>10</latitude><iso_a2>CO</iso_a2><postal>MA</postal><type>Departamento</type><id>CO.MA</id></desc></path><path d="M271.628048164,175.58433674 L271.628048164,173.24698978 L271.415562076,172.609531519 L265.820095113,166.94323586 L255.833249013,170.484670647 L250.73358292,166.730749772 L249.175351614,158.868764545 L249.317009005,156.248102803 L248.537893352,153.62744106 L248.679550744,151.998381058 L251.158555095,149.731862795 L254.841647273,148.598603663 L254.983304665,146.615400182 L255.124962056,146.402914095 L255.337448143,146.119599312 L254.699989882,143.640594961 L234.513811596,130.537286249 L234.584640291,127.845795811 L239.613477689,121.825356673 L237.913588991,116.513204493 L234.301325508,116.017403622 L239.542648993,99.6559749064 L243.509055955,97.5311140342 L241.384195082,101.497520996 L243.934028129,101.851664474 L243.792370738,107.022159263 L250.025295963,108.509561874 L248.042092482,118.567236669 L256.045735101,118.496407973 L263.270262066,123.171101892 L262.774461196,125.86259233 L267.590812506,127.137508854 L266.0325812,130.962258424 L267.732469898,138.045127998 L282.606496003,153.273297582 L280.056662957,156.885561064 L281.544065567,170.059698472 L277.790144693,174.026105434 L274.319538602,174.309420217 L272.619649904,175.442679348 L271.628048164,175.58433674 Z" fill="#cee3f5" id="CO.SU" stroke="#6e6e6e" stroke-width="0.4"><desc><labelrank>5</labelrank><code_hasc>CO.SU</code_hasc><name>Sucre</name><admin>Colombia</admin><type_en>Department</type_en><region /><woe_id>2345072</woe_id><longitude>-75</longitude><woe_name>Sucre</woe_name><fips>CO27</fips><woe_label>Sucre, CO, Colombia</woe_label><latitude>9</latitude><iso_a2>CO</iso_a2><postal>SU</postal><type>Departamento</type><id>CO.SU</id></desc></path><path d="M496.792471921,265.111808155 L479.014469291,269.290701204 L467.894364059,260.012142062 L458.261661439,258.808054235 L444.662551857,261.853688151 L422.209855307,259.233026409 L411.51472225,262.491146413 L400.677931802,262.491146413 L383.537387433,268.015784681 L375.462916119,261.499544673 L375.462916119,256.258221188 L383.25407265,249.812809876 L384.670646565,240.392593342 L390.336942224,228.776687241 L395.22412223,229.697460285 L404.715167459,226.722655064 L418.455934433,227.7850855 L422.98897096,230.405747243 L443.10432055,224.526965496 L459.253263179,231.184862896 L467.186077102,229.697460285 L496.792471921,265.111808155 Z" fill="#cee3f5" id="CO.AR" stroke="#6e6e6e" stroke-width="0.4"><desc><labelrank>7</labelrank><code_hasc>CO.AR</code_hasc><name>Arauca</name><admin>Colombia</admin><type_en>Intendancy</type_en><region /><woe_id>2345049</woe_id><longitude>-70</longitude><woe_name>Arauca</woe_name><fips>CO03</fips><woe_label>Arauca, CO, Colombia</woe_label><latitude>6</latitude><iso_a2>CO</iso_a2><postal>AR</postal><type>Intendencia</type><id>CO.AR</id></desc></path><path d="M389.132854396,228.493372458 L381.270869169,227.360113326 L378.721036123,229.909946373 L376.808661338,228.847515936 L372.842254376,234.159668117 L367.742588283,232.672265506 L365.971870889,233.94718203 L365.121926541,228.989173328 L360.8013761,230.264089851 L352.018617829,226.651826369 L353.576849135,214.185975918 L347.34392391,203.490842861 L337.923707376,202.782555904 L336.082161287,206.394819387 L331.903268238,206.1823333 L320.853991703,198.462005464 L325.8828291,200.728523728 L328.857634322,199.5244359 L334.948902155,188.970960235 L329.849236062,181.958919356 L331.974096934,168.92643934 L329.353435192,168.288981079 L329.920064758,171.688758474 L327.582717798,173.601133259 L324.820398664,171.192957604 L326.378629971,168.005666296 L323.40382475,162.693514115 L329.070120409,154.619042801 L328.574319539,140.594961044 L331.619953455,138.540928868 L337.923707376,138.186785389 L346.352322169,133.087119296 L348.618840433,141.090761914 L355.48922392,140.594961044 L360.376403926,159.931194981 L372.133967419,172.326216736 L374.61297177,182.808863705 L368.167560457,189.820904584 L368.734190023,208.802995042 L371.425680461,211.777800263 L380.137610037,213.052716786 L384.741475261,225.376909845 L389.132854396,228.493372458 Z" fill="#cee3f5" id="CO.NS" stroke="#6e6e6e" stroke-width="0.4"><desc><labelrank>5</labelrank><code_hasc>CO.NS</code_hasc><name>Norte de Santander</name><admin>Colombia</admin><type_en>Department</type_en><region /><woe_id>2345066</woe_id><longitude>-72</longitude><woe_name>Norte de Santander</woe_name><fips>CO21</fips><woe_label>Norte de Santander, CO, Colombia</woe_label><latitude>8</latitude><iso_a2>CO</iso_a2><postal>NS</postal><type>Departamento</type><id>CO.NS</id></desc></path><path d="M479.014469291,269.290701204 L469.240109279,285.368815137 L445.300010118,295.568147324 L443.883436204,299.392896894 L432.834159668,307.679854295 L428.655266619,316.037640393 L397.207325711,330.415865628 L388.707882222,337.994536072 L382.970757867,335.798846504 L364.201153496,341.890114338 L357.826570879,341.606799555 L344.935748255,323.970454315 L345.856521299,313.487807346 L350.247900435,311.575432561 L349.114641303,306.192451685 L352.443590003,299.180410806 L355.205909137,296.772235151 L360.163917839,301.234442983 L371.425680461,289.47687949 L375.675402206,291.601740362 L379.075179601,284.235556005 L370.29242133,277.081857736 L374.683800465,267.661641202 L371.567337853,262.420317717 L375.462916119,256.258221188 L375.462916119,261.499544673 L383.537387433,268.015784681 L400.677931802,262.491146413 L411.51472225,262.491146413 L422.209855307,259.233026409 L444.662551857,261.853688151 L458.261661439,258.808054235 L467.894364059,260.012142062 L479.014469291,269.290701204 Z" fill="#cee3f5" id="CO.CS" stroke="#6e6e6e" stroke-width="0.4"><desc><labelrank>5</labelrank><code_hasc>CO.CS</code_hasc><name>Casanare</name><admin>Colombia</admin><type_en>Intendancy</type_en><region /><woe_id>2345077</woe_id><longitude>-71</longitude><woe_name>Casanare</woe_name><fips>CO32</fips><woe_label>Casanare, CO, Colombia</woe_label><latitude>5</latitude><iso_a2>CO</iso_a2><postal>CS</postal><type>Intendencia</type><id>CO.CS</id></desc></path><path d="M428.867752707,401.952848325 L442.679348376,405.565111808 L444.804209248,401.88201963 L452.59536578,405.423454417 L435.383992715,413.143782252 L442.254376202,416.189416169 L447.495699686,424.618030962 L452.949509258,428.088637054 L471.577456238,426.247090964 L473.985631893,429.292724881 L469.38176667,434.038247496 L446.149954467,442.325204897 L435.667307498,441.758575331 L420.509966609,452.099564909 L415.126985733,449.620560559 L408.327430942,469.310937974 L410.381463118,475.473034504 L408.327430942,473.560659719 L405.919255287,478.518668421 L399.757158757,481.493473642 L387.999595265,494.384296266 L379.42932308,491.338662349 L371.425680461,478.518668421 L359.80977436,471.789942325 L357.401598705,473.914803197 L353.293534352,473.064858849 L351.876960437,478.377011029 L345.927349995,483.193362339 L340.68602651,482.272589295 L329.424263887,471.577456238 L318.870788222,454.224425782 L319.508246484,427.876150966 L321.774764748,422.49317009 L328.149347364,423.980572701 L328.574319539,422.351512699 L329.353435192,424.618030962 L341.18182738,423.343114439 L350.247900435,418.880906607 L354.851765658,413.497925731 L358.393200445,415.056157037 L361.155519579,412.789638774 L362.359607407,414.914499646 L363.705352626,412.506323991 L365.121926541,414.206212688 L366.113528281,410.168977031 L377.446119599,406.910857027 L378.791864818,409.248203987 L381.270869169,402.944450066 L384.316503086,402.165334413 L390.195284833,404.998482242 L398.128098755,402.3778205 L399.54467267,404.219366589 L400.182130932,401.457047455 L405.281797025,404.219366589 L417.605990084,402.448649196 L418.739249216,400.465445715 L422.068197916,402.519477891 L428.867752707,401.952848325 Z" fill="#cee3f5" id="CO.GV" stroke="#6e6e6e" stroke-width="0.4"><desc><labelrank>6</labelrank><code_hasc>CO.GV</code_hasc><name>Guaviare</name><admin>Colombia</admin><type_en>Commissiary</type_en><region /><woe_id>2345059</woe_id><longitude>-71</longitude><woe_name>Guaviare</woe_name><fips>CO14</fips><woe_label>Guavaire, CO, Colombia</woe_label><latitude>1</latitude><iso_a2>CO</iso_a2><postal>GV</postal><type>Comisaría</type><id>CO.GV</id></desc></path><path d="M480.501871901,450.541333603 L467.186077102,443.741778812 L469.38176667,434.038247496 L473.985631893,429.292724881 L471.577456238,426.247090964 L452.949509258,428.088637054 L447.495699686,424.618030962 L442.254376202,416.189416169 L435.383992715,413.143782252 L452.59536578,405.423454417 L461.803096226,398.765557017 L462.582211879,393.73671962 L460.669837094,392.815946575 L463.148841445,389.699483962 L468.177678842,387.787109177 L467.256905798,381.766670039 L470.727511889,378.508550035 L470.090053627,374.258828291 L475.118891025,375.10877264 L478.02286755,372.558939593 L488.00971365,373.904684812 L489.922088435,367.4592735 L495.730041485,366.184356977 L503.946170191,365.546898715 L511.94981281,370.575736113 L517.332793686,369.229990893 L518.324395426,366.396843064 L523.990691086,367.105130021 L528.877871092,362.501264798 L534.89831023,362.572093494 L542.193665891,357.189112618 L542.831124153,353.081048265 L546.585045027,353.789335222 L547.222503288,356.268339573 L549.913993727,354.99342305 L550.126479814,357.189112618 L553.951229384,353.647677831 L563.088131134,357.047455226 L569.81685723,352.089446524 L573.570778104,363.776181321 L579.166245067,365.546898715 L583.27430942,374.542143074 L587.524031165,377.800263078 L583.699281595,384.528989173 L565.000505919,400.677931802 L564.292218962,404.715167459 L568.754426793,402.519477891 L573.995750278,403.723565719 L576.191439846,408.823231812 L592.623697258,421.218253567 L591.490438126,426.672063139 L595.881817262,433.542446626 L595.102701609,438.28796924 L601.618941617,451.957907518 L606.151978144,470.656683193 L597.227562481,472.639886674 L595.810988566,450.116361429 L586.319943337,434.109076191 L582.707679854,432.125872711 L575.62481028,435.667307498 L565.99210766,447.070727512 L561.388242437,448.912273601 L557.067691996,447.354042295 L550.19730851,437.438024891 L546.514216331,445.229181423 L551.472225033,449.76221795 L501.183851057,449.974704037 L493.180208439,447.779014469 L480.501871901,450.541333603 Z" fill="#cee3f5" id="CO.GN" stroke="#6e6e6e" stroke-width="0.4"><desc><labelrank>5</labelrank><code_hasc>CO.GN</code_hasc><name>Guainía</name><admin>Colombia</admin><type_en>Commissiary</type_en><region /><woe_id>2345060</woe_id><longitude>-68</longitude><woe_name>Guainía</woe_name><fips>CO15</fips><woe_label>Guainia, CO, Colombia</woe_label><latitude>2</latitude><iso_a2>CO</iso_a2><postal>GN</postal><type>Comisaría</type><id>CO.GN</id></desc></path><path d="M428.867752707,401.952848325 L422.068197916,402.519477891 L418.739249216,400.465445715 L417.605990084,402.448649196 L405.281797025,404.219366589 L400.182130932,401.457047455 L399.54467267,404.219366589 L398.128098755,402.3778205 L390.195284833,404.998482242 L384.316503086,402.165334413 L381.270869169,402.944450066 L378.791864818,409.248203987 L377.446119599,406.910857027 L366.113528281,410.168977031 L365.121926541,414.206212688 L363.705352626,412.506323991 L362.359607407,414.914499646 L361.155519579,412.789638774 L358.393200445,415.056157037 L354.851765658,413.497925731 L350.247900435,418.880906607 L341.18182738,423.343114439 L329.353435192,424.618030962 L328.574319539,422.351512699 L328.149347364,423.980572701 L321.774764748,422.49317009 L319.508246484,427.876150966 L318.870788222,454.224425782 L308.671456036,453.799453607 L282.039866437,443.883436204 L279.277547303,436.658909238 L282.32318122,430.850956187 L277.436001214,422.49317009 L280.127491652,408.327430942 L275.240311646,400.961246585 L267.449155115,398.694728321 L270.494789032,392.107659618 L277.790144693,385.733077001 L279.277547303,376.312860467 L284.448042092,367.175958717 L287.210361226,368.167560457 L295.780633411,354.355964788 L298.684609936,354.49762218 L315.612668218,346.281493474 L313.133663867,337.144591723 L317.950015178,332.965698674 L325.032884752,342.244257816 L331.832439543,341.252656076 L341.465142163,345.148234342 L344.935748255,323.970454315 L357.826570879,341.606799555 L364.201153496,341.890114338 L382.970757867,335.798846504 L388.707882222,337.994536072 L397.207325711,330.415865628 L428.655266619,316.037640393 L428.867752707,401.952848325 Z" fill="#cee3f5" id="CO.ME" stroke="#6e6e6e" stroke-width="0.4"><desc><labelrank>5</labelrank><code_hasc>CO.ME</code_hasc><name>Meta</name><admin>Colombia</admin><type_en>Department</type_en><region /><woe_id>2345064</woe_id><longitude>-72</longitude><woe_name>Meta</woe_name><fips>CO19</fips><woe_label>Meta, CO, Colombia</woe_label><latitude>3</latitude><iso_a2>CO</iso_a2><postal>ME</postal><type>Departamento</type><id>CO.ME</id></desc></path><path d="M480.501871901,450.541333603 L480.147728423,477.739552767 L501.821309319,477.52706668 L509.683294546,485.743195386 L509.329151067,495.65921279 L503.592026713,496.225842356 L495.942527573,491.409491045 L489.99291713,494.880097136 L471.577456238,497.500758879 L471.010826672,528.948699788 L489.99291713,544.247698067 L491.480319741,549.276535465 L489.567944956,552.959627643 L497.429930183,564.575533745 L498.350703228,574.208236365 L492.259435394,569.958514621 L488.647171911,570.950116361 L488.718000607,566.48790853 L485.884852777,563.938075483 L476.747951027,566.48790853 L478.02286755,560.609126783 L469.665081453,561.742385915 L470.798340585,565.99210766 L468.036021451,567.125366791 L466.05281797,562.309015481 L463.644642315,563.6547607 L462.086411009,561.388242437 L464.919558838,557.988465041 L462.369725792,553.738743297 L463.573813619,545.876758069 L461.023980573,544.601841546 L464.777901447,539.997976323 L454.932712739,541.697865021 L452.737023171,537.306485885 L442.60851968,533.906708489 L438.146311849,535.677425883 L432.338358798,522.149144996 L425.751290094,520.59091369 L424.334716179,517.332793686 L418.101790954,516.624506729 L413.922897905,514.145502378 L408.964889204,514.782960639 L398.482242234,506.566831934 L395.932409187,507.275118891 L387.999595265,494.384296266 L399.757158757,481.493473642 L405.919255287,478.518668421 L408.327430942,473.560659719 L410.381463118,475.473034504 L408.327430942,469.310937974 L415.126985733,449.620560559 L420.509966609,452.099564909 L435.667307498,441.758575331 L446.149954467,442.325204897 L469.38176667,434.038247496 L467.186077102,443.741778812 L480.501871901,450.541333603 Z" fill="#cee3f5" id="CO.VP" stroke="#6e6e6e" stroke-width="0.4"><desc><labelrank>5</labelrank><code_hasc>CO.VP</code_hasc><name>Vaupés</name><admin>Colombia</admin><type_en>Commissiary</type_en><region /><woe_id>2345075</woe_id><longitude>-70</longitude><woe_name>Vaupés</woe_name><fips>CO30</fips><woe_label>Vaupes, CO, Colombia</woe_label><latitude>0</latitude><iso_a2>CO</iso_a2><postal>VP</postal><type>Comisaría</type><id>CO.VP</id></desc></path><path d="M569.81685723,352.089446524 L563.088131134,357.047455226 L553.951229384,353.647677831 L550.126479814,357.189112618 L549.913993727,354.99342305 L547.222503288,356.268339573 L546.585045027,353.789335222 L542.831124153,353.081048265 L542.193665891,357.189112618 L534.89831023,362.572093494 L528.877871092,362.501264798 L523.990691086,367.105130021 L518.324395426,366.396843064 L517.332793686,369.229990893 L511.94981281,370.575736113 L503.946170191,365.546898715 L495.730041485,366.184356977 L489.922088435,367.4592735 L488.00971365,373.904684812 L478.02286755,372.558939593 L475.118891025,375.10877264 L470.090053627,374.258828291 L470.727511889,378.508550035 L467.256905798,381.766670039 L468.177678842,387.787109177 L463.148841445,389.699483962 L460.669837094,392.815946575 L462.582211879,393.73671962 L461.803096226,398.765557017 L452.59536578,405.423454417 L444.804209248,401.88201963 L442.679348376,405.565111808 L428.867752707,401.952848325 L428.655266619,316.037640393 L432.834159668,307.679854295 L443.883436204,299.392896894 L445.300010118,295.568147324 L469.240109279,285.368815137 L479.014469291,269.290701204 L496.792471921,265.111808155 L501.042193666,263.624405545 L504.654457149,266.811696853 L513.366386725,260.932915107 L530.294445007,264.191035111 L557.917636345,260.437114237 L564.575533745,256.329049884 L580.228675503,261.003743802 L578.528786806,264.545178589 L581.503592027,270.282302944 L573.004148538,278.569260346 L573.499949408,288.768592533 L564.008904179,299.180410806 L566.275422443,309.025599514 L563.017302439,331.336638672 L566.48790853,335.728017808 L566.275422443,343.873317818 L569.81685723,352.089446524 Z" fill="#cee3f5" id="CO.VD" stroke="#6e6e6e" stroke-width="0.4"><desc><labelrank>5</labelrank><code_hasc>CO.VD</code_hasc><name>Vichada</name><admin>Colombia</admin><type_en>Commissiary</type_en><region /><woe_id>2345076</woe_id><longitude>-69</longitude><woe_name>Vichada</woe_name><fips>CO31</fips><woe_label>Vichada, CO, Colombia</woe_label><latitude>4</latitude><iso_a2>CO</iso_a2><postal>VD</postal><type>Comisaría</type><id>CO.VD</id></desc></path></svg>