<?xml version='1.0' encoding='utf-8'?>
<svg height="700" width="700" xmlns="http://www.w3.org/2000/svg"><path d="M64.4097222222,140.364583333 L83.8541666667,139.149305556 L116.666666667,146.440972222 L123.958333333,174.392361111 L72.9166666667,203.559027778 L64.4097222222,186.545138889 L64.4097222222,140.364583333 Z" fill="#cee3f5" id="US.SC.077" stroke="#6e6e6e" stroke-width="0.4"><desc><name>Pickens County</name><stateAbbrev>SC</stateAbbrev><state>South Carolina</state><fips>077</fips><incits>45077</incits><id>US.SC.077</id><population>119829</population></desc></path><path d="M83.8541666667,139.149305556 L123.958333333,123.350694444 L164.0625,119.704861111 L162.847222222,169.53125 L173.784722222,180.46875 L149.479166667,224.21875 L128.819444444,203.559027778 L123.958333333,174.392361111 L116.666666667,146.440972222 L83.8541666667,139.149305556 Z" fill="#cee3f5" id="US.SC.045" stroke="#6e6e6e" stroke-width="0.4"><desc><name>Greenville County</name><stateAbbrev>SC</stateAbbrev><state>South Carolina</state><fips>045</fips><incits>45045</incits><id>US.SC.045</id><population>474266</population></desc></path><path d="M164.0625,119.704861111 L213.888888889,122.135416667 L236.979166667,161.024305556 L227.256944444,171.961805556 L216.319444444,207.204861111 L193.229166667,197.482638889 L173.784722222,180.46875 L162.847222222,169.53125 L164.0625,119.704861111 Z" fill="#cee3f5" id="US.SC.083" stroke="#6e6e6e" stroke-width="0.4"><desc><name>Spartanburg County</name><stateAbbrev>SC</stateAbbrev><state>South Carolina</state><fips>083</fips><incits>45083</incits><id>US.SC.083</id><population>290969</population></desc></path><path d="M149.479166667,224.21875 L173.784722222,180.46875 L193.229166667,197.482638889 L216.319444444,207.204861111 L246.701388889,216.927083333 L202.951388889,264.322916667 L171.354166667,246.09375 L159.201388889,233.940972222 L149.479166667,224.21875 Z" fill="#cee3f5" id="US.SC.059" stroke="#6e6e6e" stroke-width="0.4"><desc><name>Laurens County</name><stateAbbrev>SC</stateAbbrev><state>South Carolina</state><fips>059</fips><incits>45059</incits><id>US.SC.059</id><population>66229</population></desc></path><path d="M51.0416666667,224.21875 L72.9166666667,203.559027778 L123.958333333,174.392361111 L128.819444444,203.559027778 L149.479166667,224.21875 L87.5,264.322916667 L66.8402777778,224.21875 L51.0416666667,224.21875 Z" fill="#cee3f5" id="US.SC.007" stroke="#6e6e6e" stroke-width="0.4"><desc><name>Anderson County</name><stateAbbrev>SC</stateAbbrev><state>South Carolina</state><fips>007</fips><incits>45007</incits><id>US.SC.007</id><population>190641</population></desc></path><path d="M64.4097222222,140.364583333 L64.4097222222,186.545138889 L72.9166666667,203.559027778 L51.0416666667,224.21875 L25.5208333333,205.989583333 L0.0,195.052083333 L7.29166666667,174.392361111 L34.0277777778,148.871527778 L64.4097222222,140.364583333 Z" fill="#cee3f5" id="US.SC.073" stroke="#6e6e6e" stroke-width="0.4"><desc><name>Oconee County</name><stateAbbrev>SC</stateAbbrev><state>South Carolina</state><fips>073</fips><incits>45073</incits><id>US.SC.073</id><population>75045</population></desc></path><path d="M251.5625,425.954861111 L262.5,417.447916667 L288.020833333,424.739583333 L312.326388889,422.309027778 L329.340277778,435.677083333 L307.465277778,447.829861111 L302.604166667,463.628472222 L281.944444444,476.996527778 L267.361111111,449.045138889 L269.791666667,439.322916667 L251.5625,425.954861111 Z" fill="#cee3f5" id="US.SC.005" stroke="#6e6e6e" stroke-width="0.4"><desc><name>Allendale County</name><stateAbbrev>SC</stateAbbrev><state>South Carolina</state><fips>005</fips><incits>45005</incits><id>US.SC.005</id><population>9839</population></desc></path><path d="M308.680555556,376.128472222 L350.0,395.572916667 L370.659722222,413.802083333 L329.340277778,435.677083333 L312.326388889,422.309027778 L308.680555556,417.447916667 L308.680555556,376.128472222 Z" fill="#cee3f5" id="US.SC.009" stroke="#6e6e6e" stroke-width="0.4"><desc><name>Bamberg County</name><stateAbbrev>SC</stateAbbrev><state>South Carolina</state><fips>009</fips><incits>45009</incits><id>US.SC.009</id><population>15430</population></desc></path><path d="M359.722222222,489.149305556 L367.013888889,483.072916667 L386.458333333,486.71875 L433.854166667,528.038194444 L421.701388889,545.052083333 L377.951388889,574.21875 L357.291666667,574.21875 L342.708333333,558.420138889 L343.923611111,541.40625 L364.583333333,530.46875 L365.798611111,498.871527778 L359.722222222,489.149305556 Z" fill="#cee3f5" id="US.SC.013" stroke="#6e6e6e" stroke-width="0.4"><desc><name>Beaufort County</name><stateAbbrev>SC</stateAbbrev><state>South Carolina</state><fips>013</fips><incits>45013</incits><id>US.SC.013</id><population>171838</population></desc></path><path d="M433.854166667,402.864583333 L449.652777778,395.572916667 L454.513888889,374.913194444 L471.527777778,367.621527778 L492.1875,367.621527778 L534.722222222,395.572916667 L567.534722222,408.940972222 L539.583333333,422.309027778 L507.986111111,458.767361111 L497.048611111,462.413194444 L481.25,442.96875 L464.236111111,435.677083333 L439.930555556,417.447916667 L433.854166667,402.864583333 Z" fill="#cee3f5" id="US.SC.015" stroke="#6e6e6e" stroke-width="0.4"><desc><name>Berkeley County</name><stateAbbrev>SC</stateAbbrev><state>South Carolina</state><fips>015</fips><incits>45015</incits><id>US.SC.015</id><population>194020</population></desc></path><path d="M428.993055556,461.197916667 L459.375,461.197916667 L475.173611111,450.260416667 L464.236111111,435.677083333 L481.25,442.96875 L497.048611111,462.413194444 L507.986111111,458.767361111 L539.583333333,422.309027778 L567.534722222,408.940972222 L595.486111111,425.954861111 L583.333333333,441.753472222 L518.923611111,478.211805556 L487.326388889,500.086805556 L453.298611111,511.024305556 L438.715277778,514.670138889 L421.701388889,478.211805556 L428.993055556,461.197916667 Z" fill="#cee3f5" id="US.SC.019" stroke="#6e6e6e" stroke-width="0.4"><desc><name>Charleston County</name><stateAbbrev>SC</stateAbbrev><state>South Carolina</state><fips>019</fips><incits>45019</incits><id>US.SC.019</id><population>372803</population></desc></path><path d="M329.340277778,435.677083333 L370.659722222,413.802083333 L396.180555556,430.815972222 L428.993055556,432.03125 L428.993055556,461.197916667 L421.701388889,478.211805556 L438.715277778,514.670138889 L453.298611111,511.024305556 L433.854166667,528.038194444 L386.458333333,486.71875 L367.013888889,483.072916667 L329.340277778,435.677083333 Z" fill="#cee3f5" id="US.SC.029" stroke="#6e6e6e" stroke-width="0.4"><desc><name>Colleton County</name><stateAbbrev>SC</stateAbbrev><state>South Carolina</state><fips>029</fips><incits>45029</incits><id>US.SC.029</id><population>37788</population></desc></path><path d="M370.659722222,413.802083333 L413.194444444,391.927083333 L433.854166667,402.864583333 L439.930555556,417.447916667 L464.236111111,435.677083333 L475.173611111,450.260416667 L459.375,461.197916667 L428.993055556,461.197916667 L428.993055556,432.03125 L396.180555556,430.815972222 L370.659722222,413.802083333 Z" fill="#cee3f5" id="US.SC.035" stroke="#6e6e6e" stroke-width="0.4"><desc><name>Dorchester County</name><stateAbbrev>SC</stateAbbrev><state>South Carolina</state><fips>035</fips><incits>45035</incits><id>US.SC.035</id><population>145397</population></desc></path><path d="M281.944444444,476.996527778 L302.604166667,463.628472222 L307.465277778,447.829861111 L329.340277778,435.677083333 L367.013888889,483.072916667 L359.722222222,489.149305556 L339.0625,475.78125 L300.173611111,504.947916667 L285.590277778,500.086805556 L281.944444444,476.996527778 Z" fill="#cee3f5" id="US.SC.049" stroke="#6e6e6e" stroke-width="0.4"><desc><name>Hampton County</name><stateAbbrev>SC</stateAbbrev><state>South Carolina</state><fips>049</fips><incits>45049</incits><id>US.SC.049</id><population>20408</population></desc></path><path d="M300.173611111,504.947916667 L339.0625,475.78125 L359.722222222,489.149305556 L365.798611111,498.871527778 L364.583333333,530.46875 L343.923611111,541.40625 L342.708333333,558.420138889 L357.291666667,574.21875 L377.951388889,574.21875 L353.645833333,580.295138889 L324.479166667,569.357638889 L323.263888889,545.052083333 L300.173611111,504.947916667 Z" fill="#cee3f5" id="US.SC.053" stroke="#6e6e6e" stroke-width="0.4"><desc><name>Jasper County</name><stateAbbrev>SC</stateAbbrev><state>South Carolina</state><fips>053</fips><incits>45053</incits><id>US.SC.053</id><population>26629</population></desc></path><path d="M286.805555556,368.836805556 L313.541666667,344.53125 L335.416666667,337.239583333 L346.354166667,349.392361111 L369.444444444,351.822916667 L391.319444444,371.267361111 L414.409722222,359.114583333 L435.069444444,377.34375 L454.513888889,374.913194444 L449.652777778,395.572916667 L433.854166667,402.864583333 L413.194444444,391.927083333 L370.659722222,413.802083333 L350.0,395.572916667 L308.680555556,376.128472222 L286.805555556,368.836805556 Z" fill="#cee3f5" id="US.SC.075" stroke="#6e6e6e" stroke-width="0.4"><desc><name>Orangeburg County</name><stateAbbrev>SC</stateAbbrev><state>South Carolina</state><fips>075</fips><incits>45075</incits><id>US.SC.075</id><population>90942</population></desc></path><path d="M87.5,264.322916667 L149.479166667,224.21875 L159.201388889,233.940972222 L147.048611111,244.878472222 L160.416666667,266.753472222 L148.263888889,284.982638889 L117.881944444,283.767361111 L109.375,292.274305556 L87.5,264.322916667 Z" fill="#cee3f5" id="US.SC.001" stroke="#6e6e6e" stroke-width="0.4"><desc><name>Abbeville County</name><stateAbbrev>SC</stateAbbrev><state>South Carolina</state><fips>001</fips><incits>45001</incits><id>US.SC.001</id><population>25007</population></desc></path><path d="M193.229166667,362.760416667 L246.701388889,321.440972222 L257.638888889,312.934027778 L280.729166667,333.59375 L313.541666667,344.53125 L286.805555556,368.836805556 L230.902777778,411.371527778 L207.8125,391.927083333 L206.597222222,372.482638889 L193.229166667,362.760416667 Z" fill="#cee3f5" id="US.SC.003" stroke="#6e6e6e" stroke-width="0.4"><desc><name>Aiken County</name><stateAbbrev>SC</stateAbbrev><state>South Carolina</state><fips>003</fips><incits>45003</incits><id>US.SC.003</id><population>164176</population></desc></path><path d="M230.902777778,411.371527778 L286.805555556,368.836805556 L308.680555556,376.128472222 L308.680555556,417.447916667 L312.326388889,422.309027778 L288.020833333,424.739583333 L262.5,417.447916667 L251.5625,425.954861111 L230.902777778,411.371527778 Z" fill="#cee3f5" id="US.SC.011" stroke="#6e6e6e" stroke-width="0.4"><desc><name>Barnwell County</name><stateAbbrev>SC</stateAbbrev><state>South Carolina</state><fips>011</fips><incits>45011</incits><id>US.SC.011</id><population>22119</population></desc></path><path d="M339.0625,311.71875 L371.875,327.517361111 L396.180555556,331.163194444 L409.548611111,345.746527778 L414.409722222,359.114583333 L391.319444444,371.267361111 L369.444444444,351.822916667 L346.354166667,349.392361111 L335.416666667,337.239583333 L339.0625,311.71875 Z" fill="#cee3f5" id="US.SC.017" stroke="#6e6e6e" stroke-width="0.4"><desc><name>Calhoun County</name><stateAbbrev>SC</stateAbbrev><state>South Carolina</state><fips>017</fips><incits>45017</incits><id>US.SC.017</id><population>15055</population></desc></path><path d="M213.888888889,122.135416667 L288.020833333,124.565972222 L269.791666667,144.010416667 L274.652777778,171.961805556 L271.006944444,169.53125 L236.979166667,161.024305556 L213.888888889,122.135416667 Z" fill="#cee3f5" id="US.SC.021" stroke="#6e6e6e" stroke-width="0.4"><desc><name>Cherokee County</name><stateAbbrev>SC</stateAbbrev><state>South Carolina</state><fips>021</fips><incits>45021</incits><id>US.SC.021</id><population>55885</population></desc></path><path d="M271.006944444,174.392361111 L356.076388889,174.392361111 L362.152777778,192.621527778 L358.506944444,215.711805556 L279.513888889,210.850694444 L271.006944444,174.392361111 Z" fill="#cee3f5" id="US.SC.023" stroke="#6e6e6e" stroke-width="0.4"><desc><name>Chester County</name><stateAbbrev>SC</stateAbbrev><state>South Carolina</state><fips>023</fips><incits>45023</incits><id>US.SC.023</id><population>32578</population></desc></path><path d="M404.6875,175.607638889 L497.048611111,176.822916667 L515.277777778,205.989583333 L511.631944444,216.927083333 L481.25,223.003472222 L444.791666667,240.017361111 L426.5625,204.774305556 L404.6875,175.607638889 Z" fill="#cee3f5" id="US.SC.025" stroke="#6e6e6e" stroke-width="0.4"><desc><name>Chesterfield County</name><stateAbbrev>SC</stateAbbrev><state>South Carolina</state><fips>025</fips><incits>45025</incits><id>US.SC.025</id><population>46197</population></desc></path><path d="M409.548611111,345.746527778 L428.993055556,328.732638889 L449.652777778,322.65625 L490.972222222,301.996527778 L505.555555556,311.71875 L487.326388889,328.732638889 L488.541666667,337.239583333 L471.527777778,367.621527778 L454.513888889,374.913194444 L435.069444444,377.34375 L414.409722222,359.114583333 L409.548611111,345.746527778 Z" fill="#cee3f5" id="US.SC.027" stroke="#6e6e6e" stroke-width="0.4"><desc><name>Clarendon County</name><stateAbbrev>SC</stateAbbrev><state>South Carolina</state><fips>027</fips><incits>45027</incits><id>US.SC.027</id><population>34355</population></desc></path><path d="M444.791666667,240.017361111 L481.25,223.003472222 L511.631944444,216.927083333 L535.9375,248.524305556 L515.277777778,257.03125 L476.388888889,281.336805556 L461.805555556,248.524305556 L444.791666667,240.017361111 Z" fill="#cee3f5" id="US.SC.031" stroke="#6e6e6e" stroke-width="0.4"><desc><name>Darlington County</name><stateAbbrev>SC</stateAbbrev><state>South Carolina</state><fips>031</fips><incits>45031</incits><id>US.SC.031</id><population>67935</population></desc></path><path d="M540.798611111,250.954861111 L567.534722222,203.559027778 L622.222222222,250.954861111 L613.715277778,257.03125 L579.6875,250.954861111 L551.736111111,258.246527778 L540.798611111,250.954861111 Z" fill="#cee3f5" id="US.SC.033" stroke="#6e6e6e" stroke-width="0.4"><desc><name>Dillon County</name><stateAbbrev>SC</stateAbbrev><state>South Carolina</state><fips>033</fips><incits>45033</incits><id>US.SC.033</id><population>31229</population></desc></path><path d="M188.368055556,300.78125 L193.229166667,300.78125 L210.243055556,298.350694444 L219.965277778,314.149305556 L246.701388889,321.440972222 L193.229166667,362.760416667 L178.645833333,353.038194444 L168.923611111,334.809027778 L188.368055556,300.78125 Z" fill="#cee3f5" id="US.SC.037" stroke="#6e6e6e" stroke-width="0.4"><desc><name>Edgefield County</name><stateAbbrev>SC</stateAbbrev><state>South Carolina</state><fips>037</fips><incits>45037</incits><id>US.SC.037</id><population>26436</population></desc></path><path d="M279.513888889,210.850694444 L358.506944444,215.711805556 L358.506944444,227.864583333 L374.305555556,240.017361111 L367.013888889,255.815972222 L314.756944444,267.96875 L295.3125,259.461805556 L279.513888889,221.788194444 L279.513888889,210.850694444 Z" fill="#cee3f5" id="US.SC.039" stroke="#6e6e6e" stroke-width="0.4"><desc><name>Fairfield County</name><stateAbbrev>SC</stateAbbrev><state>South Carolina</state><fips>039</fips><incits>45039</incits><id>US.SC.039</id><population>23109</population></desc></path><path d="M476.388888889,281.336805556 L515.277777778,257.03125 L535.9375,248.524305556 L540.798611111,250.954861111 L551.736111111,258.246527778 L557.8125,295.920138889 L585.763888889,323.871527778 L560.243055556,327.517361111 L516.493055556,317.795138889 L505.555555556,311.71875 L490.972222222,301.996527778 L487.326388889,287.413194444 L476.388888889,281.336805556 Z" fill="#cee3f5" id="US.SC.041" stroke="#6e6e6e" stroke-width="0.4"><desc><name>Florence County</name><stateAbbrev>SC</stateAbbrev><state>South Carolina</state><fips>041</fips><incits>45041</incits><id>US.SC.041</id><population>138326</population></desc></path><path d="M586.979166667,326.302083333 L605.208333333,337.239583333 L618.576388889,356.684027778 L635.590277778,356.684027778 L614.930555556,382.204861111 L610.069444444,417.447916667 L595.486111111,425.954861111 L567.534722222,408.940972222 L534.722222222,395.572916667 L546.875,376.128472222 L568.75,356.684027778 L573.611111111,339.670138889 L586.979166667,326.302083333 Z" fill="#cee3f5" id="US.SC.043" stroke="#6e6e6e" stroke-width="0.4"><desc><name>Georgetown County</name><stateAbbrev>SC</stateAbbrev><state>South Carolina</state><fips>043</fips><incits>45043</incits><id>US.SC.043</id><population>60440</population></desc></path><path d="M159.201388889,233.940972222 L171.354166667,246.09375 L202.951388889,264.322916667 L213.888888889,275.260416667 L193.229166667,300.78125 L188.368055556,300.78125 L150.694444444,298.350694444 L148.263888889,284.982638889 L160.416666667,266.753472222 L147.048611111,244.878472222 L159.201388889,233.940972222 Z" fill="#cee3f5" id="US.SC.047" stroke="#6e6e6e" stroke-width="0.4"><desc><name>Greenwood County</name><stateAbbrev>SC</stateAbbrev><state>South Carolina</state><fips>047</fips><incits>45047</incits><id>US.SC.047</id><population>69723</population></desc></path><path d="M613.715277778,257.03125 L622.222222222,250.954861111 L700.0,316.579861111 L672.048611111,326.302083333 L635.590277778,356.684027778 L618.576388889,356.684027778 L605.208333333,337.239583333 L584.548611111,299.565972222 L613.715277778,257.03125 Z" fill="#cee3f5" id="US.SC.051" stroke="#6e6e6e" stroke-width="0.4"><desc><name>Horry County</name><stateAbbrev>SC</stateAbbrev><state>South Carolina</state><fips>051</fips><incits>45051</incits><id>US.SC.051</id><population>289650</population></desc></path><path d="M358.506944444,227.864583333 L379.166666667,215.711805556 L391.319444444,224.21875 L426.5625,204.774305556 L444.791666667,240.017361111 L424.131944444,253.385416667 L416.840277778,269.184027778 L397.395833333,280.121527778 L382.8125,284.982638889 L359.722222222,267.96875 L367.013888889,255.815972222 L374.305555556,240.017361111 L358.506944444,227.864583333 Z" fill="#cee3f5" id="US.SC.055" stroke="#6e6e6e" stroke-width="0.4"><desc><name>Kershaw County</name><stateAbbrev>SC</stateAbbrev><state>South Carolina</state><fips>055</fips><incits>45055</incits><id>US.SC.055</id><population>62516</population></desc></path><path d="M356.076388889,137.934027778 L373.090277778,157.378472222 L370.659722222,174.392361111 L404.6875,175.607638889 L426.5625,204.774305556 L391.319444444,224.21875 L379.166666667,215.711805556 L358.506944444,227.864583333 L358.506944444,215.711805556 L362.152777778,192.621527778 L356.076388889,174.392361111 L360.9375,161.024305556 L356.076388889,137.934027778 Z" fill="#cee3f5" id="US.SC.057" stroke="#6e6e6e" stroke-width="0.4"><desc><name>Lancaster County</name><stateAbbrev>SC</stateAbbrev><state>South Carolina</state><fips>057</fips><incits>45057</incits><id>US.SC.057</id><population>80458</population></desc></path><path d="M416.840277778,269.184027778 L424.131944444,253.385416667 L444.791666667,240.017361111 L461.805555556,248.524305556 L476.388888889,281.336805556 L487.326388889,287.413194444 L460.590277778,300.78125 L439.930555556,282.552083333 L416.840277778,269.184027778 Z" fill="#cee3f5" id="US.SC.061" stroke="#6e6e6e" stroke-width="0.4"><desc><name>Lee County</name><stateAbbrev>SC</stateAbbrev><state>South Carolina</state><fips>061</fips><incits>45061</incits><id>US.SC.061</id><population>18347</population></desc></path><path d="M257.638888889,312.934027778 L273.4375,282.552083333 L291.666666667,265.538194444 L300.173611111,280.121527778 L332.986111111,293.489583333 L339.0625,311.71875 L335.416666667,337.239583333 L313.541666667,344.53125 L280.729166667,333.59375 L257.638888889,312.934027778 Z" fill="#cee3f5" id="US.SC.063" stroke="#6e6e6e" stroke-width="0.4"><desc><name>Lexington County</name><stateAbbrev>SC</stateAbbrev><state>South Carolina</state><fips>063</fips><incits>45063</incits><id>US.SC.063</id><population>273752</population></desc></path><path d="M551.736111111,258.246527778 L579.6875,250.954861111 L613.715277778,257.03125 L584.548611111,299.565972222 L605.208333333,337.239583333 L586.979166667,326.302083333 L585.763888889,323.871527778 L557.8125,295.920138889 L551.736111111,258.246527778 Z" fill="#cee3f5" id="US.SC.067" stroke="#6e6e6e" stroke-width="0.4"><desc><name>Marion County</name><stateAbbrev>SC</stateAbbrev><state>South Carolina</state><fips>067</fips><incits>45067</incits><id>US.SC.067</id><population>32072</population></desc></path><path d="M497.048611111,176.822916667 L534.722222222,176.822916667 L567.534722222,203.559027778 L540.798611111,250.954861111 L535.9375,248.524305556 L511.631944444,216.927083333 L515.277777778,205.989583333 L497.048611111,176.822916667 Z" fill="#cee3f5" id="US.SC.069" stroke="#6e6e6e" stroke-width="0.4"><desc><name>Marlboro County</name><stateAbbrev>SC</stateAbbrev><state>South Carolina</state><fips>069</fips><incits>45069</incits><id>US.SC.069</id><population>28003</population></desc></path><path d="M109.375,292.274305556 L117.881944444,283.767361111 L148.263888889,284.982638889 L150.694444444,298.350694444 L188.368055556,300.78125 L168.923611111,334.809027778 L178.645833333,353.038194444 L166.493055556,348.177083333 L150.694444444,322.65625 L113.020833333,300.78125 L109.375,292.274305556 Z" fill="#cee3f5" id="US.SC.065" stroke="#6e6e6e" stroke-width="0.4"><desc><name>McCormick County</name><stateAbbrev>SC</stateAbbrev><state>South Carolina</state><fips>065</fips><incits>45065</incits><id>US.SC.065</id><population>9947</population></desc></path><path d="M202.951388889,264.322916667 L246.701388889,216.927083333 L260.069444444,224.21875 L279.513888889,221.788194444 L295.3125,259.461805556 L291.666666667,265.538194444 L273.4375,282.552083333 L234.548611111,266.753472222 L213.888888889,275.260416667 L202.951388889,264.322916667 Z" fill="#cee3f5" id="US.SC.071" stroke="#6e6e6e" stroke-width="0.4"><desc><name>Newberry County</name><stateAbbrev>SC</stateAbbrev><state>South Carolina</state><fips>071</fips><incits>45071</incits><id>US.SC.071</id><population>37521</population></desc></path><path d="M295.3125,259.461805556 L314.756944444,267.96875 L367.013888889,255.815972222 L359.722222222,267.96875 L382.8125,284.982638889 L397.395833333,280.121527778 L396.180555556,331.163194444 L371.875,327.517361111 L339.0625,311.71875 L332.986111111,293.489583333 L300.173611111,280.121527778 L291.666666667,265.538194444 L295.3125,259.461805556 Z" fill="#cee3f5" id="US.SC.079" stroke="#6e6e6e" stroke-width="0.4"><desc><name>Richland County</name><stateAbbrev>SC</stateAbbrev><state>South Carolina</state><fips>079</fips><incits>45079</incits><id>US.SC.079</id><population>399256</population></desc></path><path d="M193.229166667,300.78125 L213.888888889,275.260416667 L234.548611111,266.753472222 L273.4375,282.552083333 L257.638888889,312.934027778 L246.701388889,321.440972222 L219.965277778,314.149305556 L210.243055556,298.350694444 L193.229166667,300.78125 Z" fill="#cee3f5" id="US.SC.081" stroke="#6e6e6e" stroke-width="0.4"><desc><name>Saluda County</name><stateAbbrev>SC</stateAbbrev><state>South Carolina</state><fips>081</fips><incits>45081</incits><id>US.SC.081</id><population>20091</population></desc></path><path d="M397.395833333,280.121527778 L416.840277778,269.184027778 L439.930555556,282.552083333 L460.590277778,300.78125 L487.326388889,287.413194444 L490.972222222,301.996527778 L449.652777778,322.65625 L428.993055556,328.732638889 L409.548611111,345.746527778 L396.180555556,331.163194444 L397.395833333,280.121527778 Z" fill="#cee3f5" id="US.SC.085" stroke="#6e6e6e" stroke-width="0.4"><desc><name>Sumter County</name><stateAbbrev>SC</stateAbbrev><state>South Carolina</state><fips>085</fips><incits>45085</incits><id>US.SC.085</id><population>108123</population></desc></path><path d="M216.319444444,207.204861111 L227.256944444,171.961805556 L236.979166667,161.024305556 L271.006944444,169.53125 L274.652777778,171.961805556 L273.4375,173.177083333 L273.4375,173.177083333 L272.222222222,174.392361111 L271.006944444,174.392361111 L279.513888889,210.850694444 L279.513888889,221.788194444 L260.069444444,224.21875 L246.701388889,216.927083333 L216.319444444,207.204861111 Z" fill="#cee3f5" id="US.SC.087" stroke="#6e6e6e" stroke-width="0.4"><desc><name>Union County</name><stateAbbrev>SC</stateAbbrev><state>South Carolina</state><fips>087</fips><incits>45087</incits><id>US.SC.087</id><population>28030</population></desc></path><path d="M471.527777778,367.621527778 L488.541666667,337.239583333 L487.326388889,328.732638889 L505.555555556,311.71875 L516.493055556,317.795138889 L560.243055556,327.517361111 L585.763888889,323.871527778 L586.979166667,326.302083333 L573.611111111,339.670138889 L568.75,356.684027778 L546.875,376.128472222 L534.722222222,395.572916667 L492.1875,367.621527778 L471.527777778,367.621527778 Z" fill="#cee3f5" id="US.SC.089" stroke="#6e6e6e" stroke-width="0.4"><desc><name>Williamsburg County</name><stateAbbrev>SC</stateAbbrev><state>South Carolina</state><fips>089</fips><incits>45089</incits><id>US.SC.089</id><population>33067</population></desc></path><path d="M288.020833333,124.565972222 L330.555555556,126.996527778 L356.076388889,137.934027778 L360.9375,161.024305556 L356.076388889,174.392361111 L271.006944444,174.392361111 L272.222222222,174.392361111 L273.4375,173.177083333 L273.4375,173.177083333 L274.652777778,171.961805556 L274.652777778,171.961805556 L269.791666667,144.010416667 L288.020833333,124.565972222 Z" fill="#cee3f5" id="US.SC.091" stroke="#6e6e6e" stroke-width="0.4"><desc><name>York County</name><stateAbbrev>SC</stateAbbrev><state>South Carolina</state><fips>091</fips><incits>45091</incits><id>US.SC.091</id><population>239363</population></desc></path></svg>