<?xml version='1.0' encoding='utf-8'?>
<svg height="700" width="700" xmlns="http://www.w3.org/2000/svg"><path d="M681.658986175,331.428571429 L682.580645161,332.073732719 L680.64516129,332.488479263 L681.658986175,331.428571429 M667.188940092,319.124423963 L668.525345622,319.262672811 L665.898617512,320.276497696 L667.188940092,319.124423963 M653.870967742,290.967741935 L655.668202765,291.751152074 L654.00921659,292.304147465 L652.073732719,290.737327189 L653.870967742,290.967741935 M122.67281106,284.423963134 L121.935483871,285.668202765 L121.797235023,283.732718894 L122.67281106,284.423963134 Z" fill="#cee3f5" id="MY.4783" stroke="#6e6e6e" stroke-width="0.4"><desc><labelrank>20</labelrank><code_hasc>-99</code_hasc><name /><admin>Malaysia</admin><type_en /><region /><woe_id>-99</woe_id><longitude>103</longitude><woe_name /><fips /><woe_label /><latitude>1</latitude><iso_a2>MY</iso_a2><postal /><type /><id>MY.4783</id></desc></path><path d="M74.4700460829,284.147465438 L73.2258064516,293.041474654 L76.1290322581,294.00921659 L75.9907834101,298.709677419 L73.2718894009,299.907834101 L71.1520737327,298.894009217 L67.8341013825,302.02764977 L64.1474654378,312.811059908 L65.0230414747,315.99078341 L60.5529953917,323.410138249 L61.797235023,325.944700461 L61.9815668203,330.092165899 L60.2764976959,332.534562212 L64.0552995392,334.423963134 L64.6543778802,340.322580645 L68.9400921659,345.483870968 L67.9723502304,348.294930876 L70.2304147465,356.820276498 L69.5852534562,357.004608295 L69.4930875576,357.096774194 L67.1428571429,359.815668203 L66.0368663594,360.276497696 L61.198156682,356.036866359 L59.8156682028,355.898617512 L59.4470046083,356.129032258 L59.400921659,356.267281106 L59.3548387097,356.359447005 L59.2626728111,356.6359447 L59.2165898618,356.728110599 L59.1705069124,356.820276498 L59.9539170507,359.124423963 L58.801843318,360.092165899 L58.4331797235,360.184331797 L57.5115207373,360.368663594 L56.9124423963,360.368663594 L56.0368663594,358.571428571 L52.1198156682,357.188940092 L51.2442396313,357.880184332 L50.6912442396,357.741935484 L50.5069124424,357.741935484 L50.2764976959,357.97235023 L50.1843317972,357.97235023 L50.1843317972,357.880184332 L50.2304147465,357.695852535 L50.2304147465,357.557603687 L50.2304147465,357.419354839 L50.2304147465,357.32718894 L50.3225806452,357.281105991 L50.5069124424,357.235023041 L50.8294930876,357.32718894 L51.0599078341,357.235023041 L51.0599078341,357.142857143 L50.7373271889,356.820276498 L50.6451612903,356.313364055 L49.4930875576,357.142857143 L47.9723502304,355.391705069 L47.0506912442,355.622119816 L46.9585253456,355.714285714 L46.866359447,355.806451613 L46.866359447,355.898617512 L46.8202764977,356.175115207 L46.7281105991,356.267281106 L46.6359447005,356.359447005 L46.3594470046,356.405529954 L46.2211981567,356.405529954 L46.0829493088,356.313364055 L46.0368663594,356.221198157 L45.9907834101,356.129032258 L45.9447004608,355.99078341 L45.9907834101,355.852534562 L46.0829493088,355.622119816 L46.4055299539,355.115207373 L45.069124424,353.087557604 L43.5944700461,353.3640553 L42.2580645161,353.456221198 L41.4285714286,353.686635945 L41.4746543779,353.640552995 L41.6129032258,353.3640553 L39.400921659,353.778801843 L37.0506912442,352.67281106 L36.5898617512,348.433179724 L42.7188940092,347.281105991 L39.2626728111,347.096774194 L38.8940092166,344.239631336 L34.0092165899,342.073732719 L31.6589861751,336.036866359 L34.8387096774,327.281105991 L32.9953917051,325.34562212 L35.668202765,323.271889401 L33.4101382488,323.3640553 L34.0092165899,318.709677419 L27.6497695853,313.778801843 L24.9769585253,307.788018433 L30.1382488479,306.082949309 L32.5806451613,307.97235023 L39.5852534562,299.723502304 L43.1797235023,298.387096774 L44.2396313364,293.870967742 L46.6820276498,291.751152074 L47.9723502304,283.179723502 L53.3179723502,288.571428571 L56.6820276498,286.774193548 L58.1105990783,282.949308756 L69.5391705069,278.755760369 L74.4700460829,284.147465438 Z" fill="#cee3f5" id="MY.PK" stroke="#6e6e6e" stroke-width="0.4"><desc><labelrank>6</labelrank><code_hasc>MY.PK</code_hasc><name>Perak</name><admin>Malaysia</admin><type_en>State</type_en><region /><woe_id>2346302</woe_id><longitude>101</longitude><woe_name>Perak</woe_name><fips>MY07</fips><woe_label>Perak, MY, Malaysia</woe_label><latitude>4</latitude><iso_a2>MY</iso_a2><postal>PK</postal><type>State</type><id>MY.PK</id></desc></path><path d="M23.3179723502,294.285714286 L24.5161290323,295.529953917 L22.3502304147,301.198156682 L18.5253456221,300.875576037 L18.5253456221,293.870967742 L23.3179723502,294.285714286 M32.1658986175,305.852534562 L26.4516129032,306.497695853 L27.6958525346,300.322580645 L25.8525345622,296.589861751 L26.1290322581,292.580645161 L25.9447004608,291.705069124 L25.1152073733,290.230414747 L25.069124424,290.0 L25.1152073733,290.0 L30.4147465438,290.460829493 L31.6589861751,290.921658986 L31.3824884793,291.658986175 L31.2442396313,293.824884793 L32.1658986175,305.852534562 Z" fill="#cee3f5" id="MY.PG" stroke="#6e6e6e" stroke-width="0.4"><desc><labelrank>6</labelrank><code_hasc>MY.PG</code_hasc><name>Pulau Pinang</name><admin>Malaysia</admin><type_en>State</type_en><region /><woe_id>2346304</woe_id><longitude>100</longitude><woe_name>Pulau Pinang</woe_name><fips>MY09</fips><woe_label>Pulau Pinang, MY, Malaysia</woe_label><latitude>5</latitude><iso_a2>MY</iso_a2><postal>PG</postal><type>State</type><id>MY.PG</id></desc></path><path d="M47.9723502304,283.179723502 L46.6820276498,291.751152074 L44.2396313364,293.870967742 L43.1797235023,298.387096774 L39.5852534562,299.723502304 L32.5806451613,307.97235023 L30.1382488479,306.082949309 L32.1658986175,305.852534562 L31.2442396313,293.824884793 L31.3824884793,291.658986175 L31.6589861751,290.921658986 L30.4147465438,290.460829493 L25.1152073733,290.0 L25.069124424,290.0 L24.8387096774,286.313364055 L26.4055299539,285.99078341 L25.3917050691,273.732718894 L20.1382488479,264.470046083 L20.4608294931,264.147465438 L20.599078341,263.686635945 L20.6912442396,263.31797235 L20.7373271889,263.179723502 L20.7834101382,263.041474654 L24.9769585253,258.617511521 L25.3456221198,258.341013825 L26.267281106,257.788018433 L26.4976958525,257.511520737 L27.0506912442,254.930875576 L27.4193548387,255.115207373 L28.202764977,255.391705069 L30.3225806452,255.529953917 L36.2211981567,258.202764977 L39.9078341014,256.589861751 L42.5806451613,259.539170507 L43.4101382488,266.082949309 L48.6175115207,264.930875576 L52.4884792627,265.99078341 L52.0276497696,277.281105991 L49.6774193548,278.66359447 L47.9723502304,283.179723502 Z" fill="#cee3f5" id="MY.KH" stroke="#6e6e6e" stroke-width="0.4"><desc><labelrank>6</labelrank><code_hasc>MY.KH</code_hasc><name>Kedah</name><admin>Malaysia</admin><type_en>State</type_en><region /><woe_id>2346297</woe_id><longitude>100</longitude><woe_name>Kedah</woe_name><fips>MY02</fips><woe_label>Kedah, MY, Malaysia</woe_label><latitude>5</latitude><iso_a2>MY</iso_a2><postal>KH</postal><type>State</type><id>MY.KH</id></desc></path><path d="M6.03686635945,267.096774194 L4.23963133641,265.299539171 L6.91244239631,262.764976959 L6.03686635945,267.096774194 M8.15668202765,257.834101382 L9.86175115207,261.520737327 L2.85714285714,263.824884793 L2.6267281106,260.460829493 L0.0,258.847926267 L0.0460829493088,257.32718894 L4.60829493088,258.064516129 L6.95852534562,256.267281106 L8.15668202765,257.834101382 M21.198156682,248.755760369 L23.4562211982,248.571428571 L27.0506912442,254.930875576 L26.9585253456,255.437788018 L26.9124423963,255.898617512 L26.4976958525,257.511520737 L26.267281106,257.788018433 L25.3456221198,258.341013825 L24.9769585253,258.617511521 L20.7834101382,263.041474654 L20.7373271889,263.179723502 L20.6912442396,263.31797235 L20.599078341,263.686635945 L20.4608294931,264.147465438 L20.1382488479,264.470046083 L19.3087557604,263.31797235 L18.5714285714,261.705069124 L17.7419354839,257.695852535 L19.5391705069,248.479262673 L21.198156682,248.755760369 Z" fill="#cee3f5" id="MY.PL" stroke="#6e6e6e" stroke-width="0.4"><desc><labelrank>6</labelrank><code_hasc>MY.PL</code_hasc><name>Perlis</name><admin>Malaysia</admin><type_en>State</type_en><region /><woe_id>2346303</woe_id><longitude>100</longitude><woe_name>Perlis</woe_name><fips>MY08</fips><woe_label>Perlis, MY, Malaysia</woe_label><latitude>6</latitude><iso_a2>MY</iso_a2><postal>PL</postal><type>State</type><id>MY.PL</id></desc></path><path d="M125.207373272,402.718894009 L125.529953917,402.764976959 L131.013824885,400.829493088 L133.041474654,400.506912442 L135.99078341,401.889400922 L136.774193548,402.718894009 L142.258064516,405.944700461 L142.396313364,405.944700461 L142.350230415,405.760368664 L142.304147465,405.622119816 L142.304147465,405.576036866 L142.350230415,405.483870968 L142.811059908,404.884792627 L142.903225806,404.608294931 L142.903225806,404.377880184 L142.903225806,404.193548387 L142.857142857,403.963133641 L142.764976959,403.778801843 L142.67281106,403.594470046 L142.488479263,403.3640553 L142.350230415,403.31797235 L142.258064516,403.271889401 L141.935483871,403.179723502 L141.843317972,403.133640553 L141.751152074,403.041474654 L141.705069124,402.903225806 L142.488479263,400.322580645 L142.258064516,399.861751152 L141.612903226,399.35483871 L141.658986175,399.216589862 L141.797235023,399.032258065 L142.580645161,398.66359447 L142.67281106,398.571428571 L142.995391705,398.064516129 L143.133640553,397.834101382 L147.649769585,398.709677419 L150.184331797,405.391705069 L154.193548387,409.907834101 L160.414746544,426.912442396 L162.995391705,429.493087558 L166.497695853,441.33640553 L165.852534562,445.069124424 L159.677419355,444.746543779 L157.97235023,440.783410138 L161.198156682,438.617511521 L157.741935484,440.046082949 L154.608294931,434.884792627 L156.175115207,442.119815668 L144.838709677,441.98156682 L141.244239631,445.437788018 L139.35483871,444.423963134 L138.202764977,448.433179724 L132.811059908,438.709677419 L117.096774194,431.013824885 L113.502304147,427.419354839 L108.571428571,426.912442396 L103.410138249,420.092165899 L102.304147465,419.170506912 L100.967741935,418.341013825 L100.921658986,418.341013825 L100.921658986,418.341013825 L101.566820276,417.373271889 L101.935483871,417.188940092 L102.488479263,417.235023041 L102.580645161,417.096774194 L102.718894009,416.774193548 L102.67281106,415.529953917 L100.967741935,414.838709677 L100.69124424,414.193548387 L100.737327189,414.00921659 L101.33640553,413.502304147 L101.428571429,413.410138249 L101.474654378,413.225806452 L101.520737327,411.889400922 L102.258064516,409.677419355 L102.258064516,409.539170507 L102.165898618,409.170506912 L102.165898618,409.032258065 L103.179723502,407.557603687 L103.456221198,407.32718894 L104.285714286,406.958525346 L105.115207373,406.451612903 L105.207373272,405.529953917 L105.34562212,405.207373272 L105.898617512,404.516129032 L105.898617512,404.285714286 L105.898617512,404.193548387 L105.714285714,403.410138249 L105.99078341,402.626728111 L105.898617512,401.382488479 L106.728110599,399.815668203 L106.451612903,398.755760369 L108.894009217,392.442396313 L109.124423963,391.33640553 L110.69124424,391.889400922 L112.580645161,392.67281106 L113.087557604,392.995391705 L119.493087558,400.322580645 L125.207373272,402.718894009 M163.179723502,396.68202765 L160.783410138,394.193548387 L162.442396313,390.092165899 L164.285714286,393.917050691 L163.179723502,396.68202765 Z" fill="#cee3f5" id="MY.JH" stroke="#6e6e6e" stroke-width="0.4"><desc><labelrank>7</labelrank><code_hasc>MY.JH</code_hasc><name>Johor</name><admin>Malaysia</admin><type_en>State</type_en><region /><woe_id>2346296</woe_id><longitude>103</longitude><woe_name>Johor</woe_name><fips>MY01</fips><woe_label>Johor, MY, Malaysia</woe_label><latitude>2</latitude><iso_a2>MY</iso_a2><postal>JH</postal><type>State</type><id>MY.JH</id></desc></path><path d="M105.299539171,281.797235023 L99.4930875576,287.788018433 L99.5391705069,297.188940092 L101.198156682,299.30875576 L100.0,305.898617512 L104.147465438,308.940092166 L103.3640553,315.898617512 L107.880184332,318.064516129 L108.709677419,321.33640553 L106.728110599,321.059907834 L106.543778802,323.963133641 L103.041474654,324.65437788 L99.2626728111,322.949308756 L97.0506912442,325.576036866 L92.8110599078,325.760368664 L88.8479262673,321.244239631 L83.4101382488,320.967741935 L81.2903225806,326.221198157 L77.3732718894,320.829493088 L75.9907834101,325.437788018 L71.5668202765,328.01843318 L61.797235023,325.944700461 L60.5529953917,323.410138249 L65.0230414747,315.99078341 L64.1474654378,312.811059908 L67.8341013825,302.02764977 L71.1520737327,298.894009217 L73.2718894009,299.907834101 L75.9907834101,298.709677419 L76.1290322581,294.00921659 L73.2258064516,293.041474654 L74.4700460829,284.147465438 L78.202764977,285.253456221 L82.4423963134,281.013824885 L83.3640552995,276.589861751 L88.0184331797,272.580645161 L88.66359447,266.68202765 L91.8894009217,268.986175115 L93.2258064516,267.741935484 L98.2488479263,269.907834101 L105.299539171,281.797235023 Z" fill="#cee3f5" id="MY.KN" stroke="#6e6e6e" stroke-width="0.4"><desc><labelrank>6</labelrank><code_hasc>MY.KN</code_hasc><name>Kelantan</name><admin>Malaysia</admin><type_en>State</type_en><region /><woe_id>2346298</woe_id><longitude>102</longitude><woe_name>Kelantan</woe_name><fips>MY03</fips><woe_label>Kelantan, MY, Malaysia</woe_label><latitude>5</latitude><iso_a2>MY</iso_a2><postal>KN</postal><type>State</type><id>MY.KN</id></desc></path><path d="M105.115207373,406.451612903 L102.165898618,409.032258065 L102.165898618,409.170506912 L102.258064516,409.539170507 L102.258064516,409.677419355 L101.520737327,411.889400922 L101.474654378,413.225806452 L101.428571429,413.410138249 L101.33640553,413.502304147 L100.737327189,414.00921659 L100.69124424,414.193548387 L100.967741935,414.838709677 L102.67281106,415.529953917 L102.718894009,416.774193548 L102.580645161,417.096774194 L102.488479263,417.235023041 L101.935483871,417.188940092 L101.566820276,417.373271889 L100.921658986,418.341013825 L100.921658986,418.341013825 L88.7557603687,413.041474654 L82.7649769585,407.32718894 L89.8156682028,403.732718894 L97.2350230415,403.963133641 L99.9078341014,405.207373272 L105.115207373,406.451612903 Z" fill="#cee3f5" id="MY.ME" stroke="#6e6e6e" stroke-width="0.4"><desc><labelrank>7</labelrank><code_hasc>MY.ME</code_hasc><name>Melaka</name><admin>Malaysia</admin><type_en>State</type_en><region /><woe_id>2346299</woe_id><longitude>102</longitude><woe_name>Melaka</woe_name><fips>MY04</fips><woe_label>Melaka, MY, Malaysia</woe_label><latitude>2</latitude><iso_a2>MY</iso_a2><postal>ME</postal><type>State</type><id>MY.ME</id></desc></path><path d="M109.124423963,391.33640553 L106.451612903,398.755760369 L106.728110599,399.815668203 L106.221198157,400.552995392 L105.898617512,401.382488479 L105.99078341,402.626728111 L105.714285714,403.410138249 L105.806451613,403.870967742 L105.898617512,404.193548387 L105.898617512,404.285714286 L105.898617512,404.516129032 L105.806451613,404.65437788 L105.34562212,405.207373272 L105.207373272,405.529953917 L105.115207373,406.451612903 L99.9078341014,405.207373272 L97.2350230415,403.963133641 L89.8156682028,403.732718894 L82.7649769585,407.32718894 L78.2488479263,407.142857143 L75.2995391705,400.506912442 L73.0414746544,399.769585253 L73.0414746544,399.723502304 L73.133640553,398.847926267 L73.7788018433,397.004608295 L74.9769585253,394.608294931 L74.930875576,393.087557604 L74.6082949309,390.921658986 L74.5622119816,390.368663594 L74.5622119816,390.046082949 L78.9861751152,389.815668203 L82.1198156682,383.917050691 L82.1658986175,383.778801843 L82.1198156682,383.502304147 L81.9815668203,383.041474654 L81.8894009217,381.889400922 L82.1198156682,379.953917051 L82.0276497696,379.585253456 L81.935483871,379.35483871 L81.7050691244,378.940092166 L81.5668202765,378.617511521 L81.5207373272,378.479262673 L81.4746543779,378.294930876 L81.6129032258,377.373271889 L81.5668202765,377.096774194 L81.2903225806,376.405529954 L81.1520737327,376.036866359 L81.0138248848,375.852534562 L80.5069124424,375.622119816 L80.6912442396,375.483870968 L80.9216589862,375.34562212 L80.9677419355,375.253456221 L81.1520737327,374.792626728 L81.3824884793,374.838709677 L85.3917050691,377.050691244 L86.0829493088,378.940092166 L88.2949308756,378.156682028 L97.6958525346,381.059907834 L108.525345622,389.262672811 L109.124423963,391.33640553 Z" fill="#cee3f5" id="MY.NS" stroke="#6e6e6e" stroke-width="0.4"><desc><labelrank>7</labelrank><code_hasc>MY.NS</code_hasc><name>Negeri Sembilan</name><admin>Malaysia</admin><type_en>State</type_en><region /><woe_id>2346300</woe_id><longitude>102</longitude><woe_name>Negeri Sembilan</woe_name><fips>MY05</fips><woe_label>Negeri Sembilan, MY, Malaysia</woe_label><latitude>2</latitude><iso_a2>MY</iso_a2><postal>NS</postal><type>State</type><id>MY.NS</id></desc></path><path d="M108.709677419,321.33640553 L111.33640553,324.239631336 L115.944700461,325.437788018 L115.668202765,331.290322581 L119.907834101,332.165898618 L121.658986175,334.470046083 L121.244239631,337.142857143 L118.294930876,339.493087558 L117.741935484,345.34562212 L120.875576037,344.562211982 L129.262672811,348.940092166 L132.073732719,354.147465438 L132.211981567,342.626728111 L136.728110599,343.594470046 L134.884792627,346.082949309 L136.267281106,351.520737327 L134.838709677,352.02764977 L132.718894009,359.078341014 L136.497695853,367.603686636 L137.741935484,367.373271889 L135.714285714,372.580645161 L135.760368664,387.235023041 L137.142857143,391.244239631 L138.801843318,393.548387097 L143.041474654,397.788018433 L143.133640553,397.834101382 L143.133640553,397.834101382 L142.995391705,398.064516129 L142.67281106,398.571428571 L142.580645161,398.66359447 L141.797235023,399.032258065 L141.658986175,399.216589862 L141.612903226,399.35483871 L142.488479263,400.322580645 L141.705069124,402.903225806 L141.751152074,403.041474654 L141.843317972,403.133640553 L141.935483871,403.179723502 L142.258064516,403.271889401 L142.350230415,403.31797235 L142.488479263,403.3640553 L142.67281106,403.594470046 L142.857142857,403.963133641 L142.903225806,404.193548387 L142.903225806,404.377880184 L142.903225806,404.608294931 L142.811059908,404.884792627 L142.396313364,405.391705069 L142.350230415,405.483870968 L142.304147465,405.576036866 L142.304147465,405.622119816 L142.350230415,405.760368664 L142.396313364,405.944700461 L142.258064516,405.944700461 L141.935483871,405.852534562 L136.774193548,402.718894009 L133.041474654,400.506912442 L131.013824885,400.829493088 L125.529953917,402.764976959 L125.391705069,402.764976959 L125.207373272,402.718894009 L119.493087558,400.322580645 L113.087557604,392.995391705 L112.580645161,392.67281106 L110.69124424,391.889400922 L109.124423963,391.33640553 L108.525345622,389.262672811 L97.6958525346,381.059907834 L88.2949308756,378.156682028 L86.0829493088,378.940092166 L85.3917050691,377.050691244 L81.3824884793,374.838709677 L81.1520737327,374.792626728 L80.9677419355,375.253456221 L80.9216589862,375.34562212 L80.6912442396,375.483870968 L80.5069124424,375.622119816 L79.5391705069,375.483870968 L79.3548387097,375.437788018 L77.3732718894,374.562211982 L75.069124424,371.428571429 L75.1612903226,366.820276498 L76.9585253456,363.271889401 L75.4838709677,360.64516129 L71.7050691244,358.894009217 L71.2442396313,358.479262673 L70.2304147465,356.820276498 L67.9723502304,348.294930876 L68.9400921659,345.483870968 L64.6543778802,340.322580645 L64.0552995392,334.423963134 L60.2764976959,332.534562212 L61.9815668203,330.092165899 L61.797235023,325.944700461 L71.5668202765,328.01843318 L75.9907834101,325.437788018 L77.3732718894,320.829493088 L81.2903225806,326.221198157 L83.4101382488,320.967741935 L88.8479262673,321.244239631 L92.8110599078,325.760368664 L97.0506912442,325.576036866 L99.2626728111,322.949308756 L103.041474654,324.65437788 L106.543778802,323.963133641 L106.728110599,321.059907834 L108.709677419,321.33640553 Z" fill="#cee3f5" id="MY.PH" stroke="#6e6e6e" stroke-width="0.4"><desc><labelrank>6</labelrank><code_hasc>MY.PH</code_hasc><name>Pahang</name><admin>Malaysia</admin><type_en>State</type_en><region /><woe_id>2346301</woe_id><longitude>102</longitude><woe_name>Pahang</woe_name><fips>MY06</fips><woe_label>Pahang, MY, Malaysia</woe_label><latitude>3</latitude><iso_a2>MY</iso_a2><postal>PH</postal><type>State</type><id>MY.PH</id></desc></path><path d="M46.2211981567,356.405529954 L46.3594470046,356.405529954 L46.6359447005,356.359447005 L46.7281105991,356.267281106 L46.8202764977,356.175115207 L46.866359447,355.806451613 L46.9585253456,355.714285714 L47.0506912442,355.622119816 L47.9723502304,355.391705069 L50.6451612903,356.313364055 L50.7373271889,356.820276498 L51.0599078341,357.142857143 L51.0599078341,357.235023041 L50.8294930876,357.32718894 L50.5069124424,357.235023041 L50.3225806452,357.281105991 L50.2304147465,357.32718894 L50.2304147465,357.419354839 L50.2304147465,357.557603687 L50.2304147465,357.695852535 L50.1843317972,357.880184332 L50.1843317972,357.97235023 L50.2764976959,357.97235023 L50.5069124424,357.741935484 L50.6912442396,357.741935484 L51.2442396313,357.880184332 L52.1198156682,357.188940092 L56.0368663594,358.571428571 L56.9124423963,360.368663594 L57.5115207373,360.368663594 L58.4331797235,360.184331797 L58.801843318,360.092165899 L59.9539170507,359.124423963 L59.1705069124,356.820276498 L59.2165898618,356.728110599 L59.2626728111,356.6359447 L59.3548387097,356.359447005 L59.400921659,356.267281106 L59.4470046083,356.129032258 L59.8156682028,355.898617512 L61.198156682,356.036866359 L66.0368663594,360.276497696 L67.1428571429,359.815668203 L69.4930875576,357.096774194 L69.5852534562,357.004608295 L70.2304147465,356.820276498 L75.4838709677,360.64516129 L76.9585253456,363.271889401 L76.9585253456,363.640552995 L75.069124424,371.428571429 L77.3732718894,374.562211982 L79.3548387097,375.437788018 L79.5391705069,375.483870968 L80.5069124424,375.622119816 L80.7373271889,375.668202765 L81.0138248848,375.852534562 L81.1520737327,376.036866359 L81.2903225806,376.405529954 L81.5668202765,377.096774194 L81.4746543779,378.294930876 L81.5207373272,378.479262673 L81.5668202765,378.617511521 L81.935483871,379.35483871 L82.0276497696,379.585253456 L82.1198156682,379.953917051 L81.8894009217,381.889400922 L81.9815668203,383.041474654 L82.1198156682,383.502304147 L82.1658986175,383.778801843 L82.0276497696,384.055299539 L81.33640553,384.470046083 L78.9861751152,389.815668203 L74.5622119816,390.046082949 L74.5622119816,390.368663594 L74.6082949309,390.921658986 L74.930875576,393.087557604 L74.9769585253,394.608294931 L73.0414746544,399.769585253 L72.7649769585,399.723502304 L72.3041474654,399.447004608 L71.2903225806,398.571428571 L66.4976958525,397.281105991 L61.33640553,391.428571429 L57.1889400922,390.276497696 L57.1428571429,388.01843318 L60.4608294931,384.746543779 L57.8341013825,374.746543779 L51.0138248848,367.373271889 L48.6175115207,361.889400922 L40.4147465438,355.115207373 L40.7834101382,354.239631336 L41.4285714286,353.686635945 L41.4285714286,353.686635945 L41.5668202765,353.640552995 L42.2580645161,353.456221198 L45.069124424,353.087557604 L46.4055299539,355.115207373 L46.0829493088,355.622119816 L45.9907834101,355.852534562 L45.9447004608,355.99078341 L45.9907834101,356.129032258 L46.0368663594,356.221198157 L46.0829493088,356.313364055 L46.2211981567,356.405529954 Z" fill="#cee3f5" id="MY.SL" stroke="#6e6e6e" stroke-width="0.4"><desc><labelrank>6</labelrank><code_hasc>MY.SL</code_hasc><name>Selangor</name><admin>Malaysia</admin><type_en>State</type_en><region /><woe_id>2346306</woe_id><longitude>101</longitude><woe_name>Selangor</woe_name><fips>MY12</fips><woe_label>Selangor, MY, Malaysia</woe_label><latitude>3</latitude><iso_a2>MY</iso_a2><postal>SL</postal><type>State</type><id>MY.SL</id></desc></path><path d="M136.728110599,343.594470046 L132.211981567,342.626728111 L132.073732719,354.147465438 L129.262672811,348.940092166 L120.875576037,344.562211982 L117.741935484,345.34562212 L118.294930876,339.493087558 L121.244239631,337.142857143 L121.658986175,334.470046083 L119.907834101,332.165898618 L115.668202765,331.290322581 L115.944700461,325.437788018 L111.33640553,324.239631336 L108.709677419,321.33640553 L107.880184332,318.064516129 L103.3640553,315.898617512 L104.147465438,308.940092166 L100.0,305.898617512 L101.198156682,299.30875576 L99.5391705069,297.188940092 L99.4930875576,287.788018433 L105.299539171,281.797235023 L125.898617512,299.493087558 L137.32718894,320.552995392 L138.755760369,338.66359447 L136.728110599,343.594470046 Z" fill="#cee3f5" id="MY.TE" stroke="#6e6e6e" stroke-width="0.4"><desc><labelrank>7</labelrank><code_hasc>MY.TE</code_hasc><name>Trengganu</name><admin>Malaysia</admin><type_en>State</type_en><region /><woe_id>2346307</woe_id><longitude>103</longitude><woe_name>Trengganu</woe_name><fips>MY13</fips><woe_label>Terengganu, MY, Malaysia</woe_label><latitude>4</latitude><iso_a2>MY</iso_a2><postal>TE</postal><type>State</type><id>MY.TE</id></desc></path><path d="M651.612903226,347.695852535 L644.65437788,347.97235023 L642.442396313,345.714285714 L645.253456221,344.377880184 L651.612903226,347.695852535 M679.170506912,338.294930876 L677.97235023,336.175115207 L681.935483871,337.096774194 L679.170506912,338.294930876 M672.534562212,330.414746544 L676.267281106,331.33640553 L674.00921659,332.534562212 L667.32718894,329.907834101 L671.198156682,329.170506912 L672.534562212,330.414746544 M661.935483871,289.677419355 L661.013824885,288.894009217 L663.271889401,288.617511521 L661.935483871,289.677419355 M635.391705069,261.059907834 L631.889400922,260.092165899 L635.437788018,258.847926267 L633.870967742,257.419354839 L636.313364055,256.451612903 L637.649769585,259.723502304 L635.391705069,261.059907834 M571.797235023,348.571428571 L572.995391705,342.350230415 L570.092165899,340.046082949 L568.894009217,333.502304147 L572.488479263,324.700460829 L571.751152074,320.64516129 L564.147465438,319.861751152 L568.940092166,316.175115207 L570.64516129,311.059907834 L567.788018433,311.198156682 L563.410138249,307.096774194 L562.211981567,307.695852535 L563.179723502,303.963133641 L570.69124424,296.175115207 L570.69124424,300.230414747 L571.198156682,298.571428571 L576.221198157,300.138248848 L579.262672811,298.847926267 L582.165898618,291.705069124 L586.405529954,288.940092166 L589.631336406,280.829493088 L588.341013825,278.940092166 L592.488479263,275.069124424 L594.884792627,275.207373272 L594.930875576,273.686635945 L592.949308756,273.824884793 L602.350230415,265.99078341 L612.02764977,247.32718894 L614.147465438,249.585253456 L614.608294931,252.119815668 L613.179723502,253.087557604 L614.838709677,254.65437788 L612.211981567,262.626728111 L614.377880184,262.580645161 L618.894009217,258.525345622 L621.843317972,253.686635945 L620.921658986,250.69124424 L625.115207373,248.156682028 L628.847926267,250.414746544 L627.926267281,254.65437788 L630.230414747,261.059907834 L635.944700461,264.147465438 L638.571428571,261.566820276 L639.447004608,264.423963134 L645.391705069,267.557603687 L645.253456221,274.470046083 L640.967741935,276.451612903 L643.087557604,279.677419355 L642.119815668,281.98156682 L643.3640553,284.377880184 L636.313364055,288.01843318 L647.096774194,286.6359447 L647.004608295,285.34562212 L650.967741935,284.976958525 L655.622119816,281.244239631 L659.447004608,288.156682028 L657.096774194,290.092165899 L652.258064516,290.092165899 L651.843317972,290.967741935 L653.640552995,294.377880184 L656.958525346,293.271889401 L659.769585253,294.285714286 L661.244239631,290.230414747 L667.926267281,289.907834101 L675.99078341,294.516129032 L674.976958525,300.0 L678.01843318,296.129032258 L683.963133641,301.658986175 L687.465437788,302.488479263 L687.926267281,304.608294931 L689.769585253,303.133640553 L693.3640553,304.055299539 L697.004608295,302.580645161 L700.0,305.714285714 L699.769585253,311.382488479 L695.852534562,314.700460829 L679.124423963,320.460829493 L675.299539171,319.493087558 L672.718894009,320.921658986 L667.695852535,317.188940092 L659.907834101,322.67281106 L664.884792627,329.262672811 L671.935483871,332.534562212 L672.626728111,335.806451613 L676.267281106,335.437788018 L677.926267281,338.341013825 L674.792626728,340.921658986 L667.603686636,340.967741935 L654.516129032,345.576036866 L642.995391705,338.801843318 L641.198156682,340.322580645 L642.903225806,344.147465438 L640.967741935,346.451612903 L641.98156682,347.511520737 L639.861751152,348.110599078 L635.253456221,347.188940092 L627.004608295,341.198156682 L612.949308756,342.119815668 L609.631336406,340.829493088 L605.34562212,342.073732719 L602.949308756,339.769585253 L601.98156682,342.304147465 L599.032258065,343.594470046 L595.483870968,340.230414747 L588.986175115,340.414746544 L585.253456221,344.193548387 L579.447004608,339.953917051 L576.451612903,345.760368664 L575.069124424,345.299539171 L571.797235023,348.571428571 M620.64516129,237.050691244 L619.216589862,239.35483871 L614.608294931,241.290322581 L616.313364055,238.156682028 L619.907834101,235.760368664 L620.64516129,237.050691244 M629.032258065,241.152073733 L622.350230415,244.65437788 L622.073732719,238.755760369 L624.930875576,236.451612903 L629.30875576,235.99078341 L629.032258065,241.152073733 Z" fill="#cee3f5" id="MY.SA" stroke="#6e6e6e" stroke-width="0.4"><desc><labelrank>6</labelrank><code_hasc>MY.SA</code_hasc><name>Sabah</name><admin>Malaysia</admin><type_en>State</type_en><region /><woe_id>2346310</woe_id><longitude>117</longitude><woe_name>Sabah</woe_name><fips>MY16</fips><woe_label>Sabah, MY, Malaysia</woe_label><latitude>5</latitude><iso_a2>MY</iso_a2><postal>SA</postal><type>State</type><id>MY.SA</id></desc></path><path d="M421.889400922,410.046082949 L420.414746544,411.013824885 L418.387096774,408.479262673 L418.525345622,395.99078341 L420.829493088,399.078341014 L421.889400922,410.046082949 M571.797235023,348.571428571 L570.737327189,353.824884793 L568.202764977,356.497695853 L570.0,358.709677419 L568.387096774,366.728110599 L570.414746544,373.732718894 L567.465437788,376.313364055 L566.221198157,381.612903226 L567.419354839,383.31797235 L565.529953917,387.788018433 L560.092165899,389.35483871 L557.695852535,387.373271889 L551.566820276,394.746543779 L552.811059908,397.235023041 L551.105990783,398.986175115 L551.105990783,402.626728111 L554.470046083,403.041474654 L556.405529954,406.082949309 L546.313364055,411.566820276 L545.99078341,414.00921659 L541.244239631,415.299539171 L540.322580645,419.262672811 L541.290322581,422.718894009 L543.456221198,422.67281106 L543.133640553,427.419354839 L537.695852535,429.585253456 L537.32718894,434.746543779 L532.949308756,443.870967742 L526.912442396,441.33640553 L519.769585253,444.377880184 L516.958525346,442.764976959 L510.414746544,443.594470046 L500.322580645,451.152073733 L496.774193548,448.110599078 L492.258064516,448.801843318 L481.33640553,443.917050691 L476.68202765,444.470046083 L479.032258065,441.013824885 L477.235023041,439.032258065 L459.400921659,439.078341014 L448.433179724,443.778801843 L449.30875576,445.714285714 L445.944700461,454.055299539 L439.447004608,455.069124424 L436.359447005,458.755760369 L429.262672811,457.97235023 L424.976958525,460.506912442 L423.870967742,458.248847926 L420.414746544,458.801843318 L414.147465438,456.359447005 L402.857142857,458.66359447 L399.124423963,462.442396313 L391.198156682,464.239631336 L384.470046083,459.631336406 L380.875576037,459.170506912 L377.557603687,452.811059908 L374.147465438,451.935483871 L368.66359447,444.976958525 L363.502304147,442.718894009 L358.940092166,437.050691244 L358.801843318,431.244239631 L354.976958525,429.170506912 L354.792626728,426.820276498 L358.940092166,420.506912442 L360.64516129,427.97235023 L368.986175115,434.423963134 L380.599078341,433.963133641 L381.889400922,435.115207373 L383.31797235,430.552995392 L385.437788018,434.239631336 L389.631336406,432.764976959 L388.110599078,437.004608295 L397.419354839,439.631336406 L395.668202765,443.133640553 L398.709677419,442.02764977 L399.769585253,438.755760369 L404.470046083,440.230414747 L412.165898618,445.898617512 L415.391705069,445.115207373 L419.216589862,447.281105991 L420.783410138,446.543778802 L409.447004608,442.67281106 L407.32718894,438.341013825 L408.479262673,435.115207373 L410.552995392,434.700460829 L413.548387097,436.866359447 L416.68202765,436.866359447 L413.31797235,435.714285714 L410.599078341,431.658986175 L414.516129032,421.244239631 L416.728110599,421.33640553 L416.221198157,419.262672811 L419.170506912,419.769585253 L420.64516129,418.01843318 L413.778801843,418.571428571 L413.778801843,416.820276498 L415.760368664,416.036866359 L413.778801843,414.746543779 L415.115207373,408.986175115 L420.230414747,411.658986175 L424.792626728,411.520737327 L421.658986175,406.6359447 L425.806451613,406.405529954 L422.119815668,404.101382488 L423.594470046,398.801843318 L431.105990783,393.963133641 L443.31797235,392.534562212 L478.617511521,382.949308756 L488.202764977,371.612903226 L493.824884793,362.165898618 L504.562211982,353.456221198 L512.02764977,343.917050691 L513.640552995,338.156682028 L513.087557604,332.626728111 L522.580645161,336.6359447 L523.870967742,344.239631336 L528.709677419,344.423963134 L530.737327189,348.525345622 L536.036866359,353.041474654 L540.967741935,348.986175115 L543.778801843,339.723502304 L541.751152074,337.419354839 L540.138248848,327.97235023 L547.465437788,324.838709677 L549.861751152,321.428571429 L552.488479263,339.400921659 L561.428571429,342.626728111 L558.847926267,336.958525346 L558.894009217,331.290322581 L554.423963134,321.705069124 L556.728110599,319.907834101 L561.935483871,321.935483871 L564.147465438,319.861751152 L571.751152074,320.64516129 L572.488479263,324.700460829 L568.894009217,333.502304147 L570.092165899,340.046082949 L572.995391705,342.350230415 L571.797235023,348.571428571 Z" fill="#cee3f5" id="MY.SK" stroke="#6e6e6e" stroke-width="0.4"><desc><labelrank>6</labelrank><code_hasc>MY.SK</code_hasc><name>Sarawak</name><admin>Malaysia</admin><type_en>State</type_en><region /><woe_id>2346305</woe_id><longitude>113</longitude><woe_name>Sarawak</woe_name><fips>MY11</fips><woe_label>Sarawak, MY, Malaysia</woe_label><latitude>2</latitude><iso_a2>MY</iso_a2><postal>SK</postal><type>State</type><id>MY.SK</id></desc></path><path d="M73.1797235023,377.511520737 L74.2857142857,377.188940092 L74.4700460829,377.465437788 L74.6082949309,377.880184332 L74.7926267281,378.202764977 L74.8847926267,378.617511521 L74.4239631336,379.262672811 L74.3778801843,379.769585253 L74.331797235,379.953917051 L74.1935483871,380.046082949 L74.1013824885,380.184331797 L74.0552995392,380.414746544 L74.1013824885,380.829493088 L74.2857142857,381.520737327 L74.4239631336,382.949308756 L74.3778801843,383.133640553 L74.331797235,383.271889401 L74.2396313364,383.3640553 L73.9631336406,383.410138249 L73.8709677419,383.456221198 L73.7788018433,383.594470046 L73.6866359447,383.778801843 L73.5944700461,383.917050691 L73.5023041475,384.055299539 L73.0875576037,383.640552995 L72.8571428571,383.594470046 L71.8433179724,383.732718894 L71.6129032258,383.732718894 L71.3824884793,383.686635945 L71.198156682,383.594470046 L71.1059907834,383.502304147 L70.8755760369,382.903225806 L70.8755760369,382.718894009 L71.2442396313,381.843317972 L70.8294930876,380.829493088 L70.7373271889,380.69124424 L70.2764976959,380.414746544 L70.1382488479,380.322580645 L70.0460829493,380.230414747 L69.9539170507,380.092165899 L69.8156682028,379.861751152 L69.7695852535,379.723502304 L69.6774193548,378.433179724 L69.7235023041,378.341013825 L70.2304147465,377.419354839 L70.4147465438,377.142857143 L70.4608294931,377.050691244 L70.9216589862,376.866359447 L71.198156682,376.6359447 L71.2903225806,376.543778802 L71.6129032258,376.589861751 L73.1797235023,377.511520737 Z" fill="#cee3f5" id="MY.KL" stroke="#6e6e6e" stroke-width="0.4"><desc><labelrank>6</labelrank><code_hasc>MY.KL</code_hasc><name>Kuala Lumpur</name><admin>Malaysia</admin><type_en>Federal Territory</type_en><region /><woe_id>56014685</woe_id><longitude>101</longitude><woe_name>Kuala Lumpur</woe_name><fips>MY14</fips><woe_label>Kuala Lumpur, MY, Malaysia</woe_label><latitude>3</latitude><iso_a2>MY</iso_a2><postal>KL</postal><type>Federal Territory</type><id>MY.KL</id></desc></path><path d="M71.7050691244,389.585253456 L71.5668202765,389.539170507 L71.3824884793,389.400921659 L71.2442396313,389.124423963 L71.198156682,388.847926267 L71.6129032258,387.97235023 L71.4746543779,387.373271889 L71.6129032258,386.866359447 L71.3824884793,386.451612903 L71.4746543779,386.221198157 L72.9493087558,385.714285714 L73.0414746544,386.359447005 L73.3179723502,386.6359447 L73.5944700461,386.958525346 L73.5483870968,387.603686636 L72.4884792627,389.078341014 L71.9815668203,389.493087558 L71.7050691244,389.585253456 Z" fill="#cee3f5" id="MY.PJ" stroke="#6e6e6e" stroke-width="0.4"><desc><labelrank>6</labelrank><code_hasc>MY.PJ</code_hasc><name>Putrajaya</name><admin>Malaysia</admin><type_en>Federal Territory</type_en><region /><woe_id>28350159</woe_id><longitude>101</longitude><woe_name>Putrajaya</woe_name><fips>MY17</fips><woe_label>Putrajaya, MY, Malaysia</woe_label><latitude>2</latitude><iso_a2>MY</iso_a2><postal>PJ</postal><type>Federal Territory</type><id>MY.PJ</id></desc></path><path d="M558.110599078,305.622119816 L558.479262673,308.248847926 L554.930875576,309.631336406 L555.99078341,306.359447005 L558.110599078,305.622119816 Z" fill="#cee3f5" id="MY.LA" stroke="#6e6e6e" stroke-width="0.4"><desc><labelrank>6</labelrank><code_hasc>MY.LA</code_hasc><name>Labuan</name><admin>Malaysia</admin><type_en>Federal Territory</type_en><region /><woe_id>2346309</woe_id><longitude>115</longitude><woe_name>Labuan</woe_name><fips>MY15</fips><woe_label>Labuan, MY, Malaysia</woe_label><latitude>5</latitude><iso_a2>MY</iso_a2><postal>LA</postal><type>Federal Territory</type><id>MY.LA</id></desc></path></svg>