<?xml version='1.0' encoding='utf-8'?>
<svg height="700" width="700" xmlns="http://www.w3.org/2000/svg"><path d="M487.554870394,160.932788118 L476.837987785,156.764859834 L463.572124587,154.457752675 L453.190145139,156.188082451 L441.654611717,148.113209371 L437.196511655,144.359020012 L430.695855678,138.884783108 L431.849408862,124.465366726 L435.310068414,115.813717055 L441.654611717,103.70140704 L453.190145139,106.008513408 L455.497251507,94.4729799859 L456.650804691,77.7464572357 L455.497251507,63.3270408534 L454.920474915,51.2147308389 L457.804358667,35.0649846806 L465.302455154,33.9114307054 L464.725678562,22.3758980742 L456.074028099,18.915237731 L456.124865604,0.714573764572 L473.743159536,3.50841372675 L480.079782685,5.87122261217 L483.588195532,11.7782443859 L489.101415972,24.6304917708 L497.765048845,63.7958372676 L497.335446589,117.710837618 L487.554870394,160.932788118 Z" fill="#cee3f5" id="VC.CH" stroke="#6e6e6e" stroke-width="0.4"><desc><labelrank>20</labelrank><code_hasc>VC.CH</code_hasc><name>Charlotte</name><admin>Saint Vincent and the Grenadines</admin><type_en>Parish</type_en><region /><woe_id>2347671</woe_id><longitude>-61</longitude><woe_name>Charlotte</woe_name><fips>VC01</fips><woe_label>Charlotte, VC, Saint Vincent and the Grenadines</woe_label><latitude>13</latitude><iso_a2>VC</iso_a2><postal>CH</postal><type>Parish</type><id>VC.CH</id></desc></path><path d="M226.077839378,697.637191115 L216.841404964,700.0 L205.671763919,699.17659729 L202.234951155,694.450979519 L205.886564167,689.940162876 L206.78156784,686.252748943 L204.919961292,683.030737306 L205.993965171,680.703728462 L212.366388362,678.197719411 L218.452411222,679.987725876 L229.049250725,686.503350112 L231.447859652,694.092978226 L226.077839378,697.637191115 M258.118958177,645.726998357 L262.414974572,648.340408411 L265.994987502,651.3476198 L262.414974572,657.326241656 L257.367155549,660.727254379 L254.467345164,665.560272274 L252.67733782,661.479057007 L250.887331355,657.075640487 L254.467345164,651.562420048 L255.254947833,647.839206073 L258.799160721,648.268808329 L258.118958177,645.726998357 M313.036362323,604.592646189 L304.050529078,605.058047606 L296.138699712,602.050836217 L298.286707469,599.36582608 L308.310744552,597.217818322 L312.96476224,591.418196672 L311.317955941,583.61376831 L311.747557316,575.021736399 L319.695186724,569.79491629 L325.781209584,569.222114749 L328.502019762,572.515726469 L330.220426145,580.57075688 L325.530608415,586.692579781 L320.41119019,591.740397924 L317.905180259,599.437427042 L313.036362323,604.592646189 M441.737840778,461.356314008 L438.909629596,461.821715425 L438.086226886,450.938475591 L445.64005496,437.513424906 L452.871681781,439.01703104 L445.282053667,456.415895109 L441.737840778,461.356314008 M483.015393991,389.612847333 L475.855367252,392.083056342 L473.277757239,381.593617843 L472.20375336,376.939600154 L477.466373511,373.7891886 L478.218176138,376.939600154 L477.502173552,379.195008916 L481.082186481,383.061423056 L483.015393991,389.612847333 M491.177823647,372.500383594 L485.73620417,376.724799907 L483.910396784,371.497979798 L489.029815889,366.485961696 L491.177823647,372.500383594 M407.584513383,341.032067215 L393.515061074,350.626502923 L400.066485351,350.626502923 L393.515061074,357.1779272 L389.004244431,350.733903047 L382.023218778,346.68848782 L373.108985616,344.934281397 L362.905947447,345.149082524 L362.905947447,338.597658247 L376.008796001,342.607272553 L395.985270084,338.705058371 L396.021071005,331.616631715 L390.185649314,325.136807521 L387.500639176,320.625990877 L394.803866081,313.680765266 L419.291156806,298.215107827 L429.529995017,289.981077209 L430.782999982,293.382089932 L431.176801316,296.568301527 L432.394005361,299.611312957 L436.117219335,302.582724305 L423.515573119,314.539968897 L407.584513383,341.032067215 Z" fill="#cee3f5" id="VC.GT" stroke="#6e6e6e" stroke-width="0.4"><desc><labelrank>20</labelrank><code_hasc>VC.GT</code_hasc><name>Grenadines</name><admin>Saint Vincent and the Grenadines</admin><type_en>Parish</type_en><region /><woe_id>2347676</woe_id><longitude>-61</longitude><woe_name>Grenadines</woe_name><fips>VC06</fips><woe_label>Grenadines, VC, Saint Vincent and the Grenadines</woe_label><latitude>13</latitude><iso_a2>VC</iso_a2><postal>GT</postal><type>Parish</type><id>VC.GT</id></desc></path><path d="M437.196511655,144.359020012 L431.849408862,155.034529267 L412.23900236,176.375265544 L397.489016226,191.272418612 L368.061166538,170.90983529 L379.36273266,159.071966202 L397.242809386,146.382879595 L413.392555544,129.079579462 L420.313875439,126.195696502 L431.849408862,124.465366726 L430.695855678,138.884783108 L437.196511655,144.359020012 Z" fill="#cee3f5" id="VC.AN" stroke="#6e6e6e" stroke-width="0.4"><desc><labelrank>20</labelrank><code_hasc>VC.AN</code_hasc><name>Saint Andrew</name><admin>Saint Vincent and the Grenadines</admin><type_en>Parish</type_en><region /><woe_id>2347672</woe_id><longitude>-61</longitude><woe_name>Saint Andrew</woe_name><fips>VC02</fips><woe_label /><latitude>13</latitude><iso_a2>VC</iso_a2><postal>AN</postal><type>Parish</type><id>VC.AN</id></desc></path><path d="M456.124865604,0.714573764572 L456.074028099,18.915237731 L464.725678562,22.3758980742 L465.302455154,33.9114307054 L457.804358667,35.0649846806 L454.920474915,51.2147308389 L455.497251507,63.3270408534 L456.650804691,77.7464572357 L455.497251507,94.4729799859 L453.190145139,106.008513408 L441.654611717,103.70140704 L430.119078295,92.1658736181 L418.006769071,102.547853856 L406.293765685,110.356521989 L386.860829148,106.008513408 L370.670575044,101.053065825 L375.471794501,91.79154172 L373.180585699,88.4621290797 L368.920370224,79.7626970449 L392.655858323,76.003683029 L402.823095571,56.1346090703 L408.87331839,30.7881147136 L420.257760561,10.4536393381 L431.606402692,3.29361259902 L442.167442154,0.28640121035 L451.618676816,0.0 L456.124865604,0.714573764572 Z" fill="#cee3f5" id="VC.DA" stroke="#6e6e6e" stroke-width="0.4"><desc><labelrank>20</labelrank><code_hasc>VC.DA</code_hasc><name>Saint David</name><admin>Saint Vincent and the Grenadines</admin><type_en>Parish</type_en><region /><woe_id>2347673</woe_id><longitude>-61</longitude><woe_name>Saint David</woe_name><fips>VC03</fips><woe_label>Saint David, VC, Saint Vincent and the Grenadines</woe_label><latitude>13</latitude><iso_a2>VC</iso_a2><postal>DA</postal><type>Parish</type><id>VC.DA</id></desc></path><path d="M487.554870394,160.932788118 L485.378202877,170.551834089 L459.566306223,206.495167069 L443.850048495,218.41661162 L421.86876682,208.141973369 L397.489016226,191.272418612 L412.23900236,176.375265544 L431.849408862,155.034529267 L437.196511655,144.359020012 L441.654611717,148.113209371 L453.190145139,156.188082451 L463.572124587,154.457752675 L476.837987785,156.764859834 L487.554870394,160.932788118 Z" fill="#cee3f5" id="VC.GE" stroke="#6e6e6e" stroke-width="0.4"><desc><labelrank>20</labelrank><code_hasc>VC.GE</code_hasc><name>Saint George</name><admin>Saint Vincent and the Grenadines</admin><type_en>Parish</type_en><region /><woe_id>2347674</woe_id><longitude>-61</longitude><woe_name>Saint George</woe_name><fips>VC04</fips><woe_label>Saint George, VC, Saint Vincent and the Grenadines</woe_label><latitude>13</latitude><iso_a2>VC</iso_a2><postal>GE</postal><type>Parish</type><id>VC.GE</id></desc></path><path d="M441.654611717,103.70140704 L435.310068414,115.813717055 L431.849408862,124.465366726 L420.313875439,126.195696502 L413.392555544,129.079579462 L397.242809386,146.382879595 L379.36273266,159.071966202 L368.061166538,170.90983529 L361.008540858,145.062139567 L363.371349744,115.133227605 L370.670575044,101.053065825 L386.860829148,106.008513408 L406.293765685,110.356521989 L418.006769071,102.547853856 L430.119078295,92.1658736181 L441.654611717,103.70140704 Z" fill="#cee3f5" id="VC.PA" stroke="#6e6e6e" stroke-width="0.4"><desc><labelrank>20</labelrank><code_hasc>VC.PA</code_hasc><name>Saint Patrick</name><admin>Saint Vincent and the Grenadines</admin><type_en>Parish</type_en><region /><woe_id>2347675</woe_id><longitude>-61</longitude><woe_name>Saint Patrick</woe_name><fips>VC05</fips><woe_label>Saint Patrick, VC, Saint Vincent and the Grenadines</woe_label><latitude>13</latitude><iso_a2>VC</iso_a2><postal>PA</postal><type>Parish</type><id>VC.PA</id></desc></path></svg>