<?xml version='1.0' encoding='utf-8'?>
<svg height="700" width="700" xmlns="http://www.w3.org/2000/svg"><path d="M595.451099318,249.696739955 L620.924943139,253.942380591 L640.561031084,262.964366945 L634.192570129,285.253980288 L631.008339651,283.13115997 L610.841546626,269.86353298 L595.451099318,249.696739955 Z" fill="#cee3f5" id="CN.qinghai.2707808" stroke="#6e6e6e" stroke-width="0.4"><desc><name>Datong Hui and Tu Autonomous County</name><admin_leve>6</admin_leve><wikipedia>en:Datong Hui and Tu Autonomous County</wikipedia><localname>大通回族土族自治县 (Datong)</localname><boundary>administrative</boundary><id>CN.qinghai.2707808</id></desc></path><path d="M18.0439727066,378.658074299 L59.9696739955,377.596664139 L79.0750568613,386.618650493 L90.7505686126,383.434420015 L122.592873389,394.579226687 L142.228961334,405.724033359 L158.150113723,405.193328279 L172.479150872,444.46550417 L161.3343442,460.917361638 L167.702805155,474.715693707 L159.211523882,490.106141016 L128.430629265,485.860500379 L92.3426838514,468.877937832 L63.6846095527,469.408642911 L27.5966641395,447.649734647 L18.0439727066,416.338134951 L18.0439727066,378.658074299 M93.4040940106,265.087187263 L111.978771797,269.3328279 L131.614859742,258.188021228 L143.290371494,259.780136467 L158.680818802,248.104624716 L176.724791509,245.451099318 L190.523123578,232.714177407 L214.404852161,240.674753601 L228.73388931,235.367702805 L249.431387415,237.490523124 L267.475360121,250.758150114 L300.379075057,260.841546626 L312.585291888,299.583017437 L317.892342684,339.916603487 L265.352539803,343.100833965 L235.633055345,340.447308567 L210.159211524,333.017437453 L139.044730857,326.118271418 L84.3821076573,313.912054587 L80.1364670205,294.275966641 L64.2153146323,281.008339651 L93.4040940106,265.087187263 Z" fill="#cee3f5" id="CN.qinghai.2708757" stroke="#6e6e6e" stroke-width="0.4"><desc><admin_leve>6</admin_leve><localname>格尔木市 (Golmud)</localname><boundary>administrative</boundary><id>CN.qinghai.2708757</id><name>Golmud City</name></desc></path><path d="M588.021228203,390.86429113 L596.512509477,379.188779378 L618.80212282,378.127369219 L641.091736164,385.026535254 L653.828658074,398.824867324 L653.297952995,410.500379075 L633.13115997,421.645185747 L596.512509477,408.377558757 L588.021228203,390.86429113 Z" fill="#cee3f5" id="CN.qinghai.4467007" stroke="#6e6e6e" stroke-width="0.4"><desc><name>Henan Mongol Autonomous County</name><admin_leve>6</admin_leve><wikipedia>en:Henan Mongol Autonomous County</wikipedia><localname>རྨ་ལྷོ་སོག་རིགས་རང་སྐྱོང་རྫོང་། / 河南蒙古族自治县 / Henan</localname><boundary>administrative</boundary><id>CN.qinghai.4467007</id></desc></path><path d="M627.824109174,313.912054587 L650.644427597,330.894617134 L651.175132676,333.548142532 L633.13115997,336.73237301 L627.824109174,313.912054587 Z" fill="#cee3f5" id="CN.qinghai.4467008" stroke="#6e6e6e" stroke-width="0.4"><desc><name>Jainca County</name><admin_leve>6</admin_leve><wikipedia>en:Jainca County</wikipedia><localname>གཅན་ཚ་རྫོང་། / 尖扎县 / Jainca</localname><boundary>administrative</boundary><id>CN.qinghai.4467008</id></desc></path><path d="M625.170583776,347.346474602 L633.13115997,336.73237301 L651.175132676,333.548142532 L668.157695224,350.0 L665.504169826,364.329037149 L651.705837756,372.820318423 L635.784685368,348.407884761 L625.170583776,347.346474602 Z" fill="#cee3f5" id="CN.qinghai.4467009" stroke="#6e6e6e" stroke-width="0.4"><desc><name>Tongren County</name><admin_leve>6</admin_leve><wikipedia>en:Tongren County</wikipedia><localname>གཅན་ཚ་རྫོང་། / 同仁县 / Tongren</localname><boundary>administrative</boundary><id>CN.qinghai.4467009</id></desc></path><path d="M577.937831691,352.122820318 L612.964366945,356.368460955 L619.3328279,348.407884761 L625.170583776,347.346474602 L635.784685368,348.407884761 L651.705837756,372.820318423 L641.091736164,385.026535254 L618.80212282,378.127369219 L596.512509477,379.188779378 L578.46853677,371.758908264 L590.674753601,360.083396513 L577.937831691,352.122820318 Z" fill="#cee3f5" id="CN.qinghai.4467010" stroke="#6e6e6e" stroke-width="0.4"><desc><name>Zêkog County</name><admin_leve>6</admin_leve><wikipedia>en:Zêkog County</wikipedia><localname>རྩེ་ཁོག་རྫོང་། / 泽库县 / Zêkog</localname><boundary>administrative</boundary><id>CN.qinghai.4467010</id></desc></path><path d="M627.824109174,313.912054587 L628.354814253,310.19711903 L635.784685368,307.012888552 L653.297952995,308.605003791 L668.157695224,311.789234268 L678.771796816,328.241091736 L650.644427597,330.894617134 L627.824109174,313.912054587 Z" fill="#cee3f5" id="CN.qinghai.4470184" stroke="#6e6e6e" stroke-width="0.4"><desc><name>Hualong Hui Autonomous County</name><admin_leve>6</admin_leve><wikipedia>en:Hualong Hui Autonomous County</wikipedia><localname>化隆回族自治县 / Hualong / خُوَلْو خُوِذُو ذِجِشِیًا</localname><boundary>administrative</boundary><id>CN.qinghai.4470184</id></desc></path><path d="M634.192570129,285.253980288 L640.561031084,262.964366945 L670.280515542,266.679302502 L676.118271418,285.253980288 L654.890068234,294.806671721 L640.561031084,293.214556482 L635.253980288,288.438210766 L634.192570129,285.253980288 Z" fill="#cee3f5" id="CN.qinghai.4470185" stroke="#6e6e6e" stroke-width="0.4"><desc><name>Huzhu Tu Autonomous County</name><admin_leve>6</admin_leve><wikipedia>en:Huzhu Tu Autonomous County</wikipedia><localname>互助土族自治县 / Ping'an</localname><boundary>administrative</boundary><id>CN.qinghai.4470185</id></desc></path><path d="M654.890068234,294.806671721 L676.118271418,285.253980288 L686.20166793,300.113722517 L668.157695224,311.789234268 L653.297952995,308.605003791 L654.890068234,294.806671721 Z" fill="#cee3f5" id="CN.qinghai.4470186" stroke="#6e6e6e" stroke-width="0.4"><desc><name>Ledu District</name><admin_leve>6</admin_leve><wikipedia>en:Ledu District</wikipedia><localname>平安县 (Ledu)</localname><boundary>administrative</boundary><id>CN.qinghai.4470186</id></desc></path><path d="M668.157695224,311.789234268 L686.20166793,300.113722517 L700.0,310.727824109 L681.956027293,331.425322214 L678.771796816,328.241091736 L668.157695224,311.789234268 Z" fill="#cee3f5" id="CN.qinghai.4470187" stroke="#6e6e6e" stroke-width="0.4"><desc><name>Minhe Hui and Tu Autonomous County</name><admin_leve>6</admin_leve><wikipedia>zh:民和回族土族自治县</wikipedia><localname>民和回族土族自治县 / Minhe / مٍهْ خُوِذُو تُوذُو ذِجِشِیًا</localname><boundary>administrative</boundary><id>CN.qinghai.4470187</id></desc></path><path d="M638.968915845,294.806671721 L640.561031084,293.214556482 L654.890068234,294.806671721 L653.297952995,308.605003791 L635.784685368,307.012888552 L638.968915845,294.806671721 Z" fill="#cee3f5" id="CN.qinghai.4470188" stroke="#6e6e6e" stroke-width="0.4"><desc><name>Ping'an County</name><admin_leve>6</admin_leve><wikipedia>en:Ping'an County</wikipedia><localname>平安县 / Ping'an</localname><boundary>administrative</boundary><id>CN.qinghai.4470188</id></desc></path><path d="M650.644427597,330.894617134 L678.771796816,328.241091736 L681.956027293,331.425322214 L686.20166793,343.631539045 L668.157695224,350.0 L651.175132676,333.548142532 L650.644427597,330.894617134 Z" fill="#cee3f5" id="CN.qinghai.4470189" stroke="#6e6e6e" stroke-width="0.4"><desc><name>Xunhua Salar Autonomous County</name><admin_leve>6</admin_leve><wikipedia>en:Xunhua Salar Autonomous County</wikipedia><localname>循化撒拉族自治县 / Xunhua</localname><boundary>administrative</boundary><id>CN.qinghai.4470189</id></desc></path><path d="M557.240333586,334.078847612 L590.144048522,315.504169826 L605.003790751,319.219105383 L619.3328279,348.407884761 L612.964366945,356.368460955 L577.937831691,352.122820318 L564.670204701,352.122820318 L553.525398029,340.447308567 L557.240333586,334.078847612 Z" fill="#cee3f5" id="CN.qinghai.4477905" stroke="#6e6e6e" stroke-width="0.4"><desc><name>Guinan County</name><admin_leve>6</admin_leve><wikipedia>en:Guinan County</wikipedia><localname>མང་རྫོང་ / 贵南县 / Guinan</localname><boundary>administrative</boundary><id>CN.qinghai.4477905</id></desc></path><path d="M553.525398029,340.447308567 L564.670204701,352.122820318 L577.937831691,352.122820318 L590.674753601,360.083396513 L578.46853677,371.758908264 L596.512509477,379.188779378 L588.021228203,390.86429113 L575.284306293,390.33358605 L557.771038666,378.127369219 L549.279757392,348.407884761 L553.525398029,340.447308567 Z" fill="#cee3f5" id="CN.qinghai.4478821" stroke="#6e6e6e" stroke-width="0.4"><desc><name>Tongde County</name><admin_leve>6</admin_leve><wikipedia>en:Tongde County</wikipedia><localname>འབའ་རྫོང་ / 同德县 / Tongde</localname><boundary>administrative</boundary><id>CN.qinghai.4478821</id></desc></path><path d="M590.144048522,315.504169826 L599.696739955,301.175132676 L611.372251706,301.175132676 L628.354814253,310.19711903 L627.824109174,313.912054587 L633.13115997,336.73237301 L625.170583776,347.346474602 L619.3328279,348.407884761 L605.003790751,319.219105383 L590.144048522,315.504169826 Z" fill="#cee3f5" id="CN.qinghai.4478884" stroke="#6e6e6e" stroke-width="0.4"><desc><name>Guide County</name><admin_leve>6</admin_leve><wikipedia>en:Guide County</wikipedia><localname>ཁྲི་ཀ་རྫོང་ / 贵德县 / Guide</localname><boundary>administrative</boundary><id>CN.qinghai.4478884</id></desc></path><path d="M490.371493556,317.626990144 L502.047005307,313.912054587 L520.621683093,321.872630781 L532.297194845,311.258529189 L552.994692949,321.341925701 L557.240333586,334.078847612 L553.525398029,340.447308567 L549.279757392,348.407884761 L557.771038666,378.127369219 L544.503411676,382.903714936 L515.845337377,374.943138741 L499.924184989,360.614101592 L503.108415466,341.508718726 L490.371493556,317.626990144 Z" fill="#cee3f5" id="CN.qinghai.4479112" stroke="#6e6e6e" stroke-width="0.4"><desc><name>Xinghai County</name><admin_leve>6</admin_leve><wikipedia>en:Xinghai County</wikipedia><localname>བྲག་དཀར་རྫོང / 兴海县 / Xinghai</localname><boundary>administrative</boundary><id>CN.qinghai.4479112</id></desc></path><path d="M487.717968158,297.460197119 L514.783927218,286.846095527 L498.862774829,273.047763457 L517.437452616,263.495072024 L556.178923427,278.885519333 L589.082638362,283.661865049 L599.696739955,301.175132676 L590.144048522,315.504169826 L557.240333586,334.078847612 L552.994692949,321.341925701 L532.297194845,311.258529189 L520.621683093,321.872630781 L502.047005307,313.912054587 L490.371493556,317.626990144 L487.717968158,297.460197119 Z" fill="#cee3f5" id="CN.qinghai.4479119" stroke="#6e6e6e" stroke-width="0.4"><desc><name>Gonghe County</name><admin_leve>6</admin_leve><wikipedia>en:Gonghe County</wikipedia><localname>གསེར་ཆེན་རྫོང / 共和县 / Gonghe</localname><boundary>administrative</boundary><id>CN.qinghai.4479119</id></desc></path><path d="M607.657316149,279.946929492 L611.372251706,301.175132676 L599.696739955,301.175132676 L589.082638362,283.661865049 L607.657316149,279.946929492 Z" fill="#cee3f5" id="CN.qinghai.4480258" stroke="#6e6e6e" stroke-width="0.4"><desc><name>Huangyuan County</name><admin_leve>6</admin_leve><wikipedia>en:Huangyuan County</wikipedia><localname>湟源县 (Huangyuan)</localname><boundary>administrative</boundary><id>CN.qinghai.4480258</id></desc></path><path d="M607.657316149,279.946929492 L610.841546626,269.86353298 L631.008339651,283.13115997 L626.762699014,288.968915845 L628.885519333,291.091736164 L634.723275208,294.275966641 L638.968915845,294.806671721 L635.784685368,307.012888552 L628.354814253,310.19711903 L611.372251706,301.175132676 L607.657316149,279.946929492 Z" fill="#cee3f5" id="CN.qinghai.4480259" stroke="#6e6e6e" stroke-width="0.4"><desc><name>Huangzhong County</name><admin_leve>6</admin_leve><wikipedia>en:Huangzhong County</wikipedia><localname>湟中县 (Huangzhong)</localname><boundary>administrative</boundary><id>CN.qinghai.4480259</id></desc></path><path d="M396.436694466,272.517058378 L421.379833207,276.231993935 L435.708870356,270.924943139 L444.20015163,257.657316149 L460.652009098,253.411675512 L480.818802123,259.780136467 L498.862774829,273.047763457 L514.783927218,286.846095527 L487.717968158,297.460197119 L482.941622441,289.499620925 L441.546626232,295.337376801 L424.564063685,307.012888552 L389.537528431,290.561031084 L396.436694466,272.517058378 Z" fill="#cee3f5" id="CN.qinghai.4489183" stroke="#6e6e6e" stroke-width="0.4"><desc><name>Ulan County</name><admin_leve>6</admin_leve><wikipedia>en:Ulan County</wikipedia><localname>ཝུའུ་ལན་རྫོང་ / 乌兰县 / Ulan</localname><boundary>administrative</boundary><id>CN.qinghai.4489183</id></desc></path><path d="M444.20015163,178.582259287 L448.976497346,184.950720243 L516.376042456,206.178923427 L526.459438969,215.73161486 L523.275208491,236.959818044 L511.59969674,250.227445034 L517.437452616,263.495072024 L498.862774829,273.047763457 L480.818802123,259.780136467 L460.652009098,253.411675512 L444.20015163,257.657316149 L445.261561789,242.26686884 L426.686884003,220.507960576 L428.278999242,204.586808188 L409.173616376,196.626231994 L387.414708112,173.805913571 L388.476118271,156.292645944 L405.458680819,158.946171342 L444.20015163,178.582259287 Z" fill="#cee3f5" id="CN.qinghai.4489240" stroke="#6e6e6e" stroke-width="0.4"><desc><name>Tianjun County</name><admin_leve>6</admin_leve><wikipedia>en:Tianjun County</wikipedia><localname>ཐེན་ཅུན་རྫོང་ / 天峻县 / Tianjun</localname><boundary>administrative</boundary><id>CN.qinghai.4489240</id></desc></path><path d="M387.414708112,173.805913571 L409.173616376,196.626231994 L428.278999242,204.586808188 L426.686884003,220.507960576 L445.261561789,242.26686884 L444.20015163,257.657316149 L435.708870356,270.924943139 L421.379833207,276.231993935 L396.436694466,272.517058378 L372.024260804,274.639878696 L335.405610311,258.718726308 L300.379075057,260.841546626 L267.475360121,250.758150114 L249.431387415,237.490523124 L228.73388931,235.367702805 L214.404852161,240.674753601 L190.523123578,232.714177407 L176.724791509,245.451099318 L158.680818802,248.104624716 L143.290371494,259.780136467 L131.614859742,258.188021228 L111.978771797,269.3328279 L93.4040940106,265.087187263 L83.8514025777,247.573919636 L54.1319181198,233.244882487 L54.6626231994,202.46398787 L60.5003790751,186.542835481 L150.189537528,167.437452616 L156.027293404,162.13040182 L188.40030326,161.06899166 L195.830174375,172.744503412 L219.711902957,171.683093252 L227.141774071,181.766489765 L252.615617892,179.643669447 L260.576194086,200.341167551 L283.396512509,197.156937074 L298.786959818,204.056103108 L319.484457923,199.279757392 L349.73464746,211.485974223 L368.840030326,200.871872631 L387.414708112,173.805913571 Z" fill="#cee3f5" id="CN.qinghai.4489246" stroke="#6e6e6e" stroke-width="0.4"><desc><name>Delhi City</name><admin_leve>6</admin_leve><wikipedia>en:Delhi, Qinghai</wikipedia><localname>གཏེར་ལེན་ཁ་གྲོང་ཁྱེར། / 德令哈市 / Delhi</localname><boundary>administrative</boundary><id>CN.qinghai.4489246</id></desc></path><path d="M159.211523882,490.106141016 L167.702805155,474.715693707 L161.3343442,460.917361638 L172.479150872,444.46550417 L219.711902957,440.750568613 L229.795299469,446.057619409 L260.576194086,434.912812737 L290.826383624,447.649734647 L312.054586808,461.448066717 L323.19939348,461.448066717 L333.813495072,473.123578469 L339.120545868,491.167551175 L312.054586808,501.781652767 L306.216830933,518.764215315 L280.212282032,506.557998484 L266.413949962,494.882486732 L240.409401061,505.496588324 L219.181197877,498.06671721 L208.567096285,503.373768006 L194.238059136,493.821076573 L159.211523882,490.106141016 Z" fill="#cee3f5" id="CN.qinghai.4492690" stroke="#6e6e6e" stroke-width="0.4"><desc><name>Zadoi County</name><admin_leve>6</admin_leve><wikipedia>en:Zadoi County</wikipedia><localname>རྫ་སྟོད་རྫོང་། / 杂多县 / Zadoi</localname><boundary>administrative</boundary><id>CN.qinghai.4492690</id></desc></path><path d="M404.39727066,357.960576194 L419.257012889,354.245640637 L443.138741471,358.491281274 L453.222137983,347.346474602 L470.204700531,349.46929492 L503.108415466,341.508718726 L499.924184989,360.614101592 L492.494313874,377.596664139 L505.761940864,390.86429113 L493.025018954,413.684609553 L474.450341168,422.175890826 L460.652009098,419.522365428 L436.770280516,414.746019712 L421.910538287,418.460955269 L396.436694466,400.416982563 L387.945413192,388.210765732 L404.39727066,357.960576194 Z" fill="#cee3f5" id="CN.qinghai.4493110" stroke="#6e6e6e" stroke-width="0.4"><desc><name>Madoi County</name><admin_leve>6</admin_leve><wikipedia>en:Madoi County</wikipedia><localname>རྨ་སྟོད་རྫོང་ / 玛多县 / Madoi</localname><boundary>administrative</boundary><id>CN.qinghai.4493110</id></desc></path><path d="M460.652009098,419.522365428 L474.450341168,422.175890826 L493.025018954,413.684609553 L504.700530705,437.566338135 L517.437452616,435.974222896 L527.520849128,434.382107657 L551.40257771,447.649734647 L565.20090978,434.912812737 L566.793025019,460.917361638 L536.012130402,474.184988628 L527.520849128,488.514025777 L478.695981804,461.978771797 L460.652009098,419.522365428 Z" fill="#cee3f5" id="CN.qinghai.4494512" stroke="#6e6e6e" stroke-width="0.4"><desc><name>Darlag County</name><admin_leve>6</admin_leve><wikipedia>en:Darlag County</wikipedia><localname>དར་ལག་རྫོང / 达日县 / Darlag</localname><boundary>administrative</boundary><id>CN.qinghai.4494512</id></desc></path><path d="M582.714177407,414.215314632 L586.959818044,422.706595906 L565.20090978,434.912812737 L551.40257771,447.649734647 L527.520849128,434.382107657 L517.437452616,435.974222896 L514.253222138,421.114480667 L545.564821835,410.500379075 L582.714177407,414.215314632 Z" fill="#cee3f5" id="CN.qinghai.4495153" stroke="#6e6e6e" stroke-width="0.4"><desc><name>Gadê County</name><admin_leve>6</admin_leve><wikipedia>en:Gadê County</wikipedia><localname>དགའ་བདེ་རྫོང / 甘德县 / Gadê</localname><boundary>administrative</boundary><id>CN.qinghai.4495153</id></desc></path><path d="M499.924184989,360.614101592 L515.845337377,374.943138741 L544.503411676,382.903714936 L557.771038666,378.127369219 L575.284306293,390.33358605 L588.021228203,390.86429113 L596.512509477,408.377558757 L582.714177407,414.215314632 L545.564821835,410.500379075 L514.253222138,421.114480667 L517.437452616,435.974222896 L504.700530705,437.566338135 L493.025018954,413.684609553 L505.761940864,390.86429113 L492.494313874,377.596664139 L499.924184989,360.614101592 Z" fill="#cee3f5" id="CN.qinghai.4495388" stroke="#6e6e6e" stroke-width="0.4"><desc><name>Maqên County</name><admin_leve>6</admin_leve><wikipedia>en:Maqên County</wikipedia><localname>རྨ་ཆེན་རྫོང་ / 玛沁县 / Maqên</localname><boundary>administrative</boundary><id>CN.qinghai.4495388</id></desc></path><path d="M566.793025019,460.917361638 L574.222896133,470.470053071 L600.758150114,473.654283548 L600.227445034,494.351781653 L570.507960576,498.59742229 L536.012130402,474.184988628 L566.793025019,460.917361638 Z" fill="#cee3f5" id="CN.qinghai.4495622" stroke="#6e6e6e" stroke-width="0.4"><desc><name>Banma County</name><admin_leve>6</admin_leve><wikipedia>zh:班玛县</wikipedia><localname>པད་མ་རྫོང་ / 班玛县 / Banma</localname><boundary>administrative</boundary><id>CN.qinghai.4495622</id></desc></path><path d="M565.20090978,434.912812737 L586.959818044,422.706595906 L606.06520091,441.281273692 L625.701288855,445.526914329 L632.06974981,462.509476876 L600.758150114,473.654283548 L574.222896133,470.470053071 L566.793025019,460.917361638 L565.20090978,434.912812737 Z" fill="#cee3f5" id="CN.qinghai.4495623" stroke="#6e6e6e" stroke-width="0.4"><desc><name>Jigzhi County</name><admin_leve>6</admin_leve><wikipedia>en:Jigzhi County</wikipedia><localname>གཅིག་སྒྲིལ་རྫོང / 久治县 / Jigzhi</localname><boundary>administrative</boundary><id>CN.qinghai.4495623</id></desc></path><path d="M387.945413192,388.210765732 L396.436694466,400.416982563 L421.910538287,418.460955269 L408.112206217,430.6671721 L408.642911296,443.93479909 L426.156178923,455.079605762 L405.989385898,481.084154663 L365.125094769,445.526914329 L367.247915087,422.706595906 L344.958301744,404.662623199 L343.896891585,387.680060652 L382.107657316,399.355572403 L387.945413192,388.210765732 Z" fill="#cee3f5" id="CN.qinghai.4505711" stroke="#6e6e6e" stroke-width="0.4"><desc><name>Chindu County</name><admin_leve>6</admin_leve><wikipedia>en:Chindu County</wikipedia><localname>ཁྲི་འདུ་རྫོང་། / 称多县 / Chindu</localname><boundary>administrative</boundary><id>CN.qinghai.4505711</id></desc></path><path d="M601.819560273,225.815011372 L616.679302502,225.815011372 L676.118271418,261.372251706 L670.280515542,266.679302502 L640.561031084,262.964366945 L620.924943139,253.942380591 L595.451099318,249.696739955 L591.205458681,247.043214556 L603.411675512,239.613343442 L601.819560273,225.815011372 Z" fill="#cee3f5" id="CN.qinghai.4516736" stroke="#6e6e6e" stroke-width="0.4"><desc><name>Menyuan Hui Autonomous County</name><admin_leve>6</admin_leve><wikipedia>en:Menyuan Hui Autonomous County</wikipedia><localname>མོང་ཡོན་ཧུའེ་རིགས་རང་སྐྱོང་རྫོང / 门源县 / Menyuan</localname><boundary>administrative</boundary><id>CN.qinghai.4516736</id></desc></path><path d="M306.216830933,518.764215315 L312.054586808,501.781652767 L339.120545868,491.167551175 L353.449583017,502.312357847 L382.638362396,508.680818802 L387.945413192,524.60197119 L374.677786202,527.786201668 L365.655799848,542.645943897 L343.896891585,543.707354056 L308.339651251,537.86959818 L306.216830933,518.764215315 Z" fill="#cee3f5" id="CN.qinghai.4523341" stroke="#6e6e6e" stroke-width="0.4"><desc><name>Nangchen County</name><admin_leve>6</admin_leve><wikipedia>en:Nangqên County</wikipedia><localname>ནང་ཆེན་རྫོང་། / 囊谦县 / Nangchen</localname><boundary>administrative</boundary><id>CN.qinghai.4523341</id></desc></path><path d="M235.633055345,340.447308567 L265.352539803,343.100833965 L327.445034117,372.289613343 L358.756633813,355.837755876 L368.840030326,362.206216831 L384.230477635,347.877179682 L404.39727066,357.960576194 L387.945413192,388.210765732 L382.107657316,399.355572403 L343.896891585,387.680060652 L344.958301744,404.662623199 L367.247915087,422.706595906 L365.125094769,445.526914329 L355.041698256,437.566338135 L331.159969674,429.605761941 L301.971190296,399.886277483 L262.699014405,386.087945413 L228.73388931,400.416982563 L193.707354056,398.824867324 L175.66338135,386.087945413 L184.154662623,360.614101592 L235.633055345,340.447308567 Z" fill="#cee3f5" id="CN.qinghai.4525617" stroke="#6e6e6e" stroke-width="0.4"><desc><name>Qumarlêb County</name><admin_leve>6</admin_leve><wikipedia>en:Qumarlêb County</wikipedia><localname>ཆུ་དམར་ལེབ་རྫོང / 曲麻莱县 / Qumarlêb</localname><boundary>administrative</boundary><id>CN.qinghai.4525617</id></desc></path><path d="M355.041698256,437.566338135 L365.125094769,445.526914329 L405.989385898,481.084154663 L412.888551933,494.351781653 L402.274450341,524.071266111 L387.945413192,524.60197119 L382.638362396,508.680818802 L353.449583017,502.312357847 L339.120545868,491.167551175 L333.813495072,473.123578469 L323.19939348,461.448066717 L355.041698256,437.566338135 Z" fill="#cee3f5" id="CN.qinghai.4525659" stroke="#6e6e6e" stroke-width="0.4"><desc><name>Yushu City</name><admin_leve>6</admin_leve><wikipedia>en:Yushu City, Qinghai</wikipedia><localname>ཡུལ་ཤུལ་རྫོང། / 玉树市 / Yushu</localname><boundary>administrative</boundary><id>CN.qinghai.4525659</id></desc></path><path d="M84.3821076573,313.912054587 L139.044730857,326.118271418 L210.159211524,333.017437453 L235.633055345,340.447308567 L184.154662623,360.614101592 L175.66338135,386.087945413 L193.707354056,398.824867324 L228.73388931,400.416982563 L262.699014405,386.087945413 L301.971190296,399.886277483 L331.159969674,429.605761941 L355.041698256,437.566338135 L323.19939348,461.448066717 L312.054586808,461.448066717 L290.826383624,447.649734647 L260.576194086,434.912812737 L229.795299469,446.057619409 L219.711902957,440.750568613 L172.479150872,444.46550417 L158.150113723,405.193328279 L142.228961334,405.724033359 L122.592873389,394.579226687 L90.7505686126,383.434420015 L79.0750568613,386.618650493 L59.9696739955,377.596664139 L18.0439727066,378.658074299 L4.77634571645,377.06595906 L1.59211523882,354.776345716 L11.1448066717,351.592115239 L15.9211523882,329.302501895 L0.0,320.811220622 L39.2721758908,313.381349507 L84.3821076573,313.912054587 Z" fill="#cee3f5" id="CN.qinghai.4538486" stroke="#6e6e6e" stroke-width="0.4"><desc><name>Zhidoi County</name><admin_leve>6</admin_leve><wikipedia>en:Zhidoi County</wikipedia><localname>འབྲི་སྟོད་རྫོང་། / 治多县 / Zhidoi</localname><boundary>administrative</boundary><id>CN.qinghai.4538486</id></desc></path><path d="M265.352539803,343.100833965 L317.892342684,339.916603487 L312.585291888,299.583017437 L300.379075057,260.841546626 L335.405610311,258.718726308 L372.024260804,274.639878696 L396.436694466,272.517058378 L389.537528431,290.561031084 L424.564063685,307.012888552 L441.546626232,295.337376801 L482.941622441,289.499620925 L487.717968158,297.460197119 L490.371493556,317.626990144 L503.108415466,341.508718726 L470.204700531,349.46929492 L453.222137983,347.346474602 L443.138741471,358.491281274 L419.257012889,354.245640637 L404.39727066,357.960576194 L384.230477635,347.877179682 L368.840030326,362.206216831 L358.756633813,355.837755876 L327.445034117,372.289613343 L265.352539803,343.100833965 Z" fill="#cee3f5" id="CN.qinghai.4542232" stroke="#6e6e6e" stroke-width="0.4"><desc><name>Dulan County</name><admin_leve>6</admin_leve><wikipedia>en:Dulan County</wikipedia><localname>ཏུའུ་ལན་རྫོང་ / 都兰县 / Dulan</localname><boundary>administrative</boundary><id>CN.qinghai.4542232</id></desc></path><path d="M444.20015163,178.582259287 L453.752843063,166.376042456 L478.695981804,162.661106899 L519.560272934,192.380591357 L546.095526914,204.586808188 L582.183472328,207.240333586 L601.819560273,225.815011372 L603.411675512,239.613343442 L591.205458681,247.043214556 L571.038665656,240.144048522 L558.301743745,225.284306293 L526.459438969,215.73161486 L516.376042456,206.178923427 L448.976497346,184.950720243 L444.20015163,178.582259287 Z" fill="#cee3f5" id="CN.qinghai.4543386" stroke="#6e6e6e" stroke-width="0.4"><desc><name>Qilian County</name><admin_leve>6</admin_leve><wikipedia>en:Qilian County</wikipedia><localname>ཆི་ལེན་རྫོང་ / 祁连县 / Qilian</localname><boundary>administrative</boundary><id>CN.qinghai.4543386</id></desc></path><path d="M526.459438969,215.73161486 L558.301743745,225.284306293 L571.038665656,240.144048522 L574.222896133,256.595905989 L556.178923427,278.885519333 L517.437452616,263.495072024 L511.59969674,250.227445034 L523.275208491,236.959818044 L526.459438969,215.73161486 Z" fill="#cee3f5" id="CN.qinghai.4543630" stroke="#6e6e6e" stroke-width="0.4"><desc><name>Gangca County</name><admin_leve>6</admin_leve><wikipedia>en:Gangca County</wikipedia><localname>རྐང་ཚ་རྫོང་ / 刚察县 / Gangca</localname><boundary>administrative</boundary><id>CN.qinghai.4543630</id></desc></path><path d="M556.178923427,278.885519333 L574.222896133,256.595905989 L571.038665656,240.144048522 L591.205458681,247.043214556 L595.451099318,249.696739955 L610.841546626,269.86353298 L607.657316149,279.946929492 L589.082638362,283.661865049 L556.178923427,278.885519333 Z" fill="#cee3f5" id="CN.qinghai.4543631" stroke="#6e6e6e" stroke-width="0.4"><desc><name>Haiyan County</name><admin_leve>6</admin_leve><wikipedia>en:Haiyan County, Qinghai</wikipedia><localname>ཧའེ་ཡན་ / 海晏县 / Haiyan</localname><boundary>administrative</boundary><id>CN.qinghai.4543631</id></desc></path><path d="M631.008339651,283.13115997 L634.192570129,285.253980288 L635.253980288,288.438210766 L634.723275208,289.499620925 L634.192570129,289.499620925 L626.762699014,288.968915845 L631.008339651,283.13115997 Z" fill="#cee3f5" id="CN.qinghai.5684035" stroke="#6e6e6e" stroke-width="0.4"><desc><name>Chengbei District</name><admin_leve>6</admin_leve><wikipedia>en:Chengbei District</wikipedia><localname>城北区 (Chengbei)</localname><boundary>administrative</boundary><id>CN.qinghai.5684035</id></desc></path><path d="M634.723275208,289.499620925 L635.253980288,288.438210766 L640.561031084,293.214556482 L638.968915845,294.806671721 L634.723275208,294.275966641 L634.723275208,289.499620925 Z" fill="#cee3f5" id="CN.qinghai.5684036" stroke="#6e6e6e" stroke-width="0.4"><desc><name>Chengdong District</name><admin_leve>6</admin_leve><wikipedia>en:Chengdong District</wikipedia><localname>城东区 (Chengdong)</localname><boundary>administrative</boundary><id>CN.qinghai.5684036</id></desc></path><path d="M626.762699014,288.968915845 L634.192570129,289.499620925 L628.885519333,291.091736164 L626.762699014,288.968915845 Z" fill="#cee3f5" id="CN.qinghai.5684037" stroke="#6e6e6e" stroke-width="0.4"><desc><name>Chengxi District</name><admin_leve>6</admin_leve><wikipedia>en:Chengxi District</wikipedia><localname>城西区 (Chengxi)</localname><boundary>administrative</boundary><id>CN.qinghai.5684037</id></desc></path><path d="M628.885519333,291.091736164 L634.192570129,289.499620925 L634.723275208,289.499620925 L634.723275208,294.275966641 L628.885519333,291.091736164 Z" fill="#cee3f5" id="CN.qinghai.5684038" stroke="#6e6e6e" stroke-width="0.4"><desc><name>Chengzhong District</name><admin_leve>6</admin_leve><wikipedia>en:Chengzhong District, Xining</wikipedia><localname>城中区 (Chengzhong)</localname><boundary>administrative</boundary><id>CN.qinghai.5684038</id></desc></path></svg>