<?xml version='1.0' encoding='utf-8'?>
<svg height="700" width="700" xmlns="http://www.w3.org/2000/svg"><path d="M5.73300573301,154.791154791 L45.864045864,155.364455364 L75.6756756757,159.950859951 L98.6076986077,170.27027027 L154.791154791,182.882882883 L184.602784603,185.749385749 L185.749385749,235.053235053 L200.081900082,249.385749386 L197.215397215,261.425061425 L261.998361998,261.425061425 L294.676494676,269.451269451 L303.276003276,291.80999181 L299.262899263,303.849303849 L339.967239967,301.556101556 L342.26044226,307.862407862 L359.459459459,318.181818182 L334.807534808,335.380835381 L352.57985258,340.540540541 L342.833742834,349.713349713 L364.619164619,355.446355446 L388.697788698,367.485667486 L404.176904177,368.632268632 L416.216216216,384.684684685 L429.975429975,388.124488124 L433.988533989,396.150696151 L456.347256347,405.896805897 L442.588042588,413.34971335 L458.067158067,421.949221949 L458.067158067,428.828828829 L469.533169533,440.294840295 L479.852579853,444.307944308 L483.292383292,460.933660934 L514.823914824,464.373464373 L526.863226863,475.839475839 L550.368550369,485.585585586 L565.274365274,486.732186732 L577.313677314,515.397215397 L584.193284193,516.543816544 L616.871416871,510.237510238 L640.376740377,514.823914824 L660.442260442,507.371007371 L667.321867322,518.263718264 L686.814086814,537.755937756 L700.0,546.355446355 L569.860769861,546.355446355 L488.452088452,546.355446355 L427.108927109,546.355446355 L346.273546274,546.355446355 L254.545454545,546.355446355 L183.456183456,546.355446355 L79.6887796888,546.355446355 L79.6887796888,531.44963145 L54.4635544636,532.596232596 L42.4242424242,538.329238329 L0.573300573301,533.742833743 L0.573300573301,494.185094185 L0.573300573301,441.441441441 L0.573300573301,374.938574939 L0.0,339.393939394 L0.573300573301,288.37018837 L0.0,250.532350532 L0.0,192.628992629 L0.0,153.644553645 L5.73300573301,154.791154791 Z" fill="#cee3f5" id="CA.YT.60001" stroke="#6e6e6e" stroke-width="0.4"><desc><feduid>60001</feduid><name>Yukon</name><prname>Yukon</prname><fedfname>Yukon</fedfname><pruid>60</pruid><fedename>Yukon</fedename><id>CA.YT.60001</id><fedname>Yukon</fedname></desc></path></svg>