<?xml version='1.0' encoding='utf-8'?>
<svg height="700" width="700" xmlns="http://www.w3.org/2000/svg"><path d="M466.470980731,432.797316899 L460.538324995,438.235739642 L447.579054716,420.879691111 L456.857280926,412.86566412 L473.211823397,428.187745147 L466.470980731,432.797316899 M518.37044915,395.055447778 L519.810582382,402.733628306 L519.810888286,402.735273013 L517.095026359,402.425359029 L504.997442715,400.341685956 L492.89493112,411.373903824 L485.72862739,398.273983046 L480.027656948,393.097124814 L453.503631507,349.691403281 L481.520911265,339.41327277 L481.52060733,339.418414587 L480.1626413,362.434292232 L480.70167432,372.040227342 L482.961249206,376.920950233 L487.923018982,379.028013241 L511.303188894,382.572136 L514.950964657,386.428708117 L518.37044915,395.055447778 Z" fill="#cee3f5" id="QA.DA" stroke="#6e6e6e" stroke-width="0.4"><desc><labelrank>9</labelrank><code_hasc>QA.DA</code_hasc><name>Ad Dawhah</name><admin>Qatar</admin><type_en>Municipality</type_en><region /><woe_id>20070008</woe_id><longitude>51</longitude><woe_name>Ad Dawhah</woe_name><fips>QA01</fips><woe_label>Doha, QA, Qatar</woe_label><latitude>25</latitude><iso_a2>QA</iso_a2><postal>DA</postal><type>Baladiyah</type><id>QA.DA</id></desc></path><path d="M256.376626106,168.592887907 L317.806600733,168.503750572 L317.855371164,187.23622588 L360.999437076,187.106175715 L363.988093375,210.110365896 L374.556236603,236.672233173 L390.52638851,259.853983962 L390.540345663,294.486110288 L397.544993166,339.157902531 L428.68292259,341.405869751 L453.503631507,349.691403281 L480.027656948,393.097124814 L485.72862739,398.273983046 L492.89493112,411.373903824 L483.023205804,421.475446379 L473.211823397,428.187745147 L456.857280926,412.86566412 L447.579054716,420.879691111 L460.538324995,438.235739642 L451.282290762,446.717064991 L445.142384163,465.62797873 L437.620032214,480.454390639 L408.998893702,467.894297545 L409.613659447,502.999710757 L365.020624617,503.1693761 L365.527092127,662.919029552 L362.192530953,667.538147188 L363.112592034,670.381798677 L363.275957491,670.964102173 L336.235625834,692.721601811 L315.466518486,699.814234755 L292.838773909,700.0 L268.841377689,696.608679365 L248.725306589,688.118538299 L229.678317297,666.628124295 L200.43347865,618.442212272 L207.939365409,617.549574186 L218.363813914,608.220854682 L221.084827795,597.02806915 L217.646823556,555.397828941 L214.329572467,544.351173792 L197.251495243,512.582276357 L195.920110047,506.088537722 L200.196408545,493.82849154 L201.133541943,485.270131893 L200.676990089,477.423926914 L198.212755497,474.008620327 L187.582095601,467.49882797 L184.664917742,452.660260007 L184.081135372,436.57594949 L180.454191553,426.238544191 L183.303387445,418.338659917 L182.688125391,409.157702128 L180.940353146,399.442924248 L180.455155762,389.888242369 L183.625422991,366.188255423 L183.366420663,357.042729962 L177.742221847,324.178952209 L182.29886188,305.336192022 L182.847907802,296.724275091 L177.744783585,291.35056451 L188.465829185,277.204644881 L196.038738577,275.956295621 L200.560232558,281.489591818 L201.818821852,289.514435823 L205.336392703,292.833800712 L205.331393864,301.345316304 L215.928278807,303.296807727 L209.619529993,285.614001683 L208.259404786,278.070331471 L207.771182243,270.170320726 L208.543528826,265.258957554 L209.961169979,260.098126926 L210.216485699,254.688778945 L207.760910469,249.280824881 L204.532804245,247.14709391 L195.819311262,245.477536588 L191.236651431,243.307743563 L195.752732958,237.75516029 L200.97909749,236.294447291 L206.495905813,235.615995759 L211.817714828,232.695082674 L213.106700363,230.203227423 L215.618678123,223.493473283 L217.230555684,222.122300097 L219.843907952,223.063537351 L222.363029064,227.171987 L225.299298139,228.094909188 L227.366717525,231.384979986 L226.630994055,238.752163593 L224.026996697,250.604817878 L224.034279438,259.697284047 L224.42426371,262.970965603 L227.62720731,271.260016972 L229.534197453,273.642642954 L232.377803422,276.113277668 L236.348033685,274.917169352 L237.154010556,273.759759472 L236.893487435,271.624822436 L238.496770008,261.391892603 L238.743699687,250.929044599 L240.481239898,246.265227257 L244.993465563,241.615878499 L247.73791266,243.00041194 L251.000911566,245.985546504 L256.487162903,246.244952205 L258.999759144,243.19861849 L264.529801615,230.43214884 L267.553495787,225.053592955 L256.592148896,229.305249337 L246.464867012,231.133641079 L238.073421493,227.72691234 L232.320227084,216.131275262 L231.862765246,209.903906435 L234.744198873,189.260253677 L235.709231354,187.301942373 L239.541492211,184.077158714 L240.409217298,181.816366406 L239.923744967,180.001927301 L237.890478264,177.370645131 L237.437341189,175.538352513 L237.423338331,162.388608844 L242.902042221,163.734830262 L244.766569296,160.262776281 L246.081657888,155.545744288 L249.750961769,153.156683918 L252.458849989,154.647789903 L254.783555353,158.452525114 L256.24042996,163.468396155 L256.376626106,168.592887907 Z" fill="#cee3f5" id="QA.RA" stroke="#6e6e6e" stroke-width="0.4"><desc><labelrank>9</labelrank><code_hasc>QA.RA</code_hasc><name>Ar Rayyān</name><admin>Qatar</admin><type_en>Municipality</type_en><region /><woe_id>20070010</woe_id><longitude>51</longitude><woe_name>Ar Rayyan</woe_name><fips>QA06</fips><woe_label>Al Rayyan, QA, Qatar</woe_label><latitude>25</latitude><iso_a2>QA</iso_a2><postal>RA</postal><type>Baladiyah</type><id>QA.RA</id></desc></path><path d="M365.527092127,662.919029552 L365.020624617,503.1693761 L409.613659447,502.999710757 L408.998893702,467.894297545 L437.620032214,480.454390639 L445.142384163,465.62797873 L451.282290762,446.717064991 L460.538324995,438.235739642 L466.470980731,432.797316899 L473.211823397,428.187745147 L483.023205804,421.475446379 L492.89493112,411.373903824 L504.997442715,400.341685956 L517.095026359,402.425359029 L519.810888286,402.735273013 L521.251535625,410.482939296 L522.257778153,446.599345695 L518.230910248,491.64408393 L520.370742728,496.826571608 L516.924762715,500.584825543 L510.957229956,527.027653829 L505.881473683,535.385738763 L492.148628782,550.999864332 L487.989799011,561.71731542 L484.817940154,563.407668091 L481.188754952,564.61993102 L478.568301528,566.289073343 L476.641117083,570.107307005 L466.460884584,609.905591384 L466.459474665,609.911098972 L465.918622459,612.120231681 L463.83094147,616.828358371 L459.169601362,620.357387896 L457.034169808,628.677377524 L454.427775344,647.016821183 L449.19337958,653.714786298 L433.077067333,663.416600957 L429.709437667,666.670093825 L427.608225162,676.821086897 L422.595893452,683.639844137 L417.121145933,689.143467507 L413.47007418,695.243800123 L408.78997257,688.751426273 L410.261109283,682.589317655 L413.810541129,675.653364411 L415.854431991,666.730859561 L412.7442792,661.88677198 L405.553664818,661.044727346 L391.51025686,662.487925755 L390.863225609,654.839839052 L388.326138127,654.635941576 L384.272554335,657.622302447 L378.946482636,659.563213599 L371.924969587,660.353024131 L365.527092127,662.919029552 Z" fill="#cee3f5" id="QA.WA" stroke="#6e6e6e" stroke-width="0.4"><desc><labelrank>9</labelrank><code_hasc>QA.WA</code_hasc><name>Al Wakrah</name><admin>Qatar</admin><type_en>Municipality</type_en><region /><woe_id>20070012</woe_id><longitude>51</longitude><woe_name>Al Wakrah</woe_name><fips>QA05</fips><woe_label>Al Wakra, QA, Qatar</woe_label><latitude>24</latitude><iso_a2>QA</iso_a2><postal>WA</postal><type>Baladiyah</type><id>QA.WA</id></desc></path><path d="M488.928012414,234.617487567 L478.599783956,228.358502926 L455.854604356,219.37627017 L437.386692856,239.957526871 L435.451801792,266.170064985 L396.332504908,266.226072936 L390.52638851,259.853983962 L374.556236603,236.672233173 L363.988093375,210.110365896 L360.999437076,187.106175715 L317.855371164,187.23622588 L317.806600733,168.503750572 L256.376626106,168.592887907 L261.977520923,164.830041918 L265.641007379,158.863263621 L266.789188128,151.74375028 L265.385904034,146.796007031 L265.457939259,146.769319642 L317.439323941,147.072723009 L317.320538477,101.544664408 L372.897435548,101.369577227 L372.938174353,114.034137607 L393.841205492,113.952945231 L393.959677682,127.886518749 L413.064454574,127.83446017 L413.219266622,144.604751306 L441.277634329,144.212556038 L440.835084453,92.4265465829 L440.88545565,90.6831814138 L443.972455027,91.2007480826 L461.049475624,89.7233899521 L470.706729846,90.6135712431 L478.635984826,93.0957311491 L485.576237702,96.8994074932 L492.169917266,101.77201606 L497.480395387,107.132137894 L501.834560357,113.832350938 L504.714829599,121.484596396 L511.841707959,169.097359497 L511.782718592,175.059326621 L510.654502608,180.138236047 L507.477108033,182.293625189 L505.147581983,180.866643296 L502.884894605,174.563135129 L499.427740371,173.107241699 L496.312956399,174.959049222 L493.53498312,179.282236902 L492.082252186,184.309225862 L492.686550891,188.363010834 L496.251911568,191.5982714 L499.666372773,191.150538282 L502.294030691,188.571936119 L503.724533041,185.306548141 L510.169794818,195.338809474 L504.977597951,205.532405752 L497.063854182,208.659249082 L495.448002766,197.315452497 L490.073367796,198.948975599 L476.573435147,206.358386038 L482.359052344,208.710076454 L488.410878174,212.376439161 L493.274469508,216.76101106 L495.590963019,221.196039384 L494.293042667,230.74206956 L488.928012414,234.617487567 Z" fill="#cee3f5" id="QA.KH" stroke="#6e6e6e" stroke-width="0.4"><desc><labelrank>9</labelrank><code_hasc>QA.KH</code_hasc><name>Al Khawr</name><admin>Qatar</admin><type_en>Municipality</type_en><region /><woe_id>20070006</woe_id><longitude>51</longitude><woe_name>Al Khawr</woe_name><fips>QA04</fips><woe_label>Al Khor, QA, Qatar</woe_label><latitude>25</latitude><iso_a2>QA</iso_a2><postal>KH</postal><type>Baladiyah</type><id>QA.KH</id></desc></path><path d="M440.88545565,90.6831814138 L440.835084453,92.4265465829 L441.277634329,144.212556038 L413.219266622,144.604751306 L413.064454574,127.83446017 L393.959677682,127.886518749 L393.841205492,113.952945231 L372.938174353,114.034137607 L372.897435548,101.369577227 L317.320538477,101.544664408 L317.439323941,147.072723009 L265.457939259,146.769319642 L265.385904034,146.796007031 L264.715996222,144.433684437 L262.015189056,147.427335514 L256.273037744,141.190104753 L256.96808704,131.864936874 L267.262981281,106.847994438 L268.890109291,98.3573410359 L269.95031709,78.4612729081 L273.235620812,80.9112232139 L274.460260836,82.1724600201 L275.622943359,84.7149886878 L278.067879078,84.7104997684 L286.957898698,58.4994424841 L294.842720538,47.0585109711 L306.11476945,42.2813280286 L312.090135852,40.9319466743 L328.689144533,34.2675417897 L332.120718262,31.7663246775 L334.22195454,25.0691770151 L343.414593951,15.6452378418 L345.578304475,9.07192848535 L352.782684746,11.6999525764 L360.869225945,9.12765930001 L375.194028144,0.0 L406.647188775,16.9022956119 L413.040528086,23.9922054894 L413.721112245,32.4064889809 L412.934484729,43.3187311899 L413.298514355,52.8021230156 L417.464439665,56.8406396622 L424.970137502,59.7954701865 L427.32004909,67.0983261436 L427.748810434,76.1008260233 L429.749762538,84.206016652 L435.921992117,89.8350431869 L440.881056332,90.6824436755 L440.88545565,90.6831814138 Z" fill="#cee3f5" id="QA.MS" stroke="#6e6e6e" stroke-width="0.4"><desc><labelrank>9</labelrank><code_hasc>QA.MS</code_hasc><name>Madinat ach Shamal</name><admin>Qatar</admin><type_en>Municipality</type_en><region /><woe_id>20070005</woe_id><longitude>51</longitude><woe_name>Madinat ach Shamal</woe_name><fips>QA07</fips><woe_label>Madinat Al Shamal, QA, Qatar</woe_label><latitude>26</latitude><iso_a2>QA</iso_a2><postal>MS</postal><type>Baladiyah</type><id>QA.MS</id></desc></path><path d="M435.451801792,266.170064985 L437.629664266,290.037619273 L438.811773665,320.763201224 L453.503631507,349.691403281 L428.68292259,341.405869751 L397.544993166,339.157902531 L390.540345663,294.486110288 L390.52638851,259.853983962 L396.332504908,266.226072936 L435.451801792,266.170064985 Z" fill="#cee3f5" id="QA.US" stroke="#6e6e6e" stroke-width="0.4"><desc><labelrank>9</labelrank><code_hasc>QA.US</code_hasc><name>Umm Salal</name><admin>Qatar</admin><type_en>Municipality</type_en><region /><woe_id>20070007</woe_id><longitude>51</longitude><woe_name>Umm Salal</woe_name><fips>QA09</fips><woe_label>Umm Slal, QA, Qatar</woe_label><latitude>25</latitude><iso_a2>QA</iso_a2><postal>US</postal><type>Baladiyah</type><id>QA.US</id></desc></path><path d="M488.928012414,234.617487567 L482.161963651,236.258169386 L476.758109324,239.224966815 L474.038293108,237.531837813 L471.290210155,236.532733799 L472.32013188,259.44694723 L471.517392291,266.088852228 L471.456054868,266.676418896 L469.281799384,270.532000735 L466.01098342,274.678114994 L463.805782737,278.925089872 L464.763938858,282.977150974 L479.470177852,308.18263186 L481.863640165,314.343876334 L482.64145837,320.443035174 L481.520911265,339.41327277 L453.503631507,349.691403281 L438.811773665,320.763201224 L437.629664266,290.037619273 L435.451801792,266.170064985 L437.386692856,239.957526871 L455.854604356,219.37627017 L478.599783956,228.358502926 L488.928012414,234.617487567 Z" fill="#cee3f5" id="QA.DY" stroke="#6e6e6e" stroke-width="0.4"><desc><labelrank>9</labelrank><code_hasc>QA.DY</code_hasc><name>Al Daayen</name><admin>Qatar</admin><type_en>Municipality</type_en><region /><woe_id>-20070007</woe_id><longitude>51</longitude><woe_name /><fips>QA09</fips><woe_label /><latitude>25</latitude><iso_a2>QA</iso_a2><postal>DA</postal><type>Baladiyah</type><id>QA.DY</id></desc></path></svg>