<?xml version='1.0' encoding='utf-8'?>
<svg height="700" width="700" xmlns="http://www.w3.org/2000/svg"><path d="M503.225806452,574.731182796 L503.225806452,533.870967742 L517.204301075,533.870967742 L558.064516129,533.870967742 L558.064516129,574.731182796 L530.107526882,574.731182796 L503.225806452,574.731182796 Z" fill="#cee3f5" id="US.WI.133" stroke="#6e6e6e" stroke-width="0.4"><desc><name>Waukesha County</name><stateAbbrev>WI</stateAbbrev><state>Wisconsin</state><fips>133</fips><incits>55133</incits><id>US.WI.133</id><population>393843</population></desc></path><path d="M558.064516129,574.731182796 L558.064516129,533.870967742 L578.494623656,534.946236559 L577.419354839,541.397849462 L581.720430108,547.849462366 L579.569892473,556.451612903 L583.870967742,560.752688172 L582.795698925,569.35483871 L586.021505376,574.731182796 L558.064516129,574.731182796 Z" fill="#cee3f5" id="US.WI.079" stroke="#6e6e6e" stroke-width="0.4"><desc><name>Milwaukee County</name><stateAbbrev>WI</stateAbbrev><state>Wisconsin</state><fips>079</fips><incits>55079</incits><id>US.WI.079</id><population>956023</population></desc></path><path d="M519.35483871,494.086021505 L547.311827957,494.086021505 L561.290322581,494.086021505 L561.290322581,514.516129032 L558.064516129,514.516129032 L558.064516129,533.870967742 L517.204301075,533.870967742 L517.204301075,513.440860215 L519.35483871,513.440860215 L519.35483871,494.086021505 Z" fill="#cee3f5" id="US.WI.131" stroke="#6e6e6e" stroke-width="0.4"><desc><name>Washington County</name><stateAbbrev>WI</stateAbbrev><state>Wisconsin</state><fips>131</fips><incits>55131</incits><id>US.WI.131</id><population>132739</population></desc></path><path d="M547.311827957,453.225806452 L561.290322581,453.225806452 L596.774193548,453.225806452 L597.849462366,462.903225806 L601.075268817,468.279569892 L598.924731183,471.505376344 L600.0,476.88172043 L590.322580645,490.860215054 L590.322580645,494.086021505 L561.290322581,494.086021505 L547.311827957,494.086021505 L547.311827957,453.225806452 Z" fill="#cee3f5" id="US.WI.117" stroke="#6e6e6e" stroke-width="0.4"><desc><name>Sheboygan County</name><stateAbbrev>WI</stateAbbrev><state>Wisconsin</state><fips>117</fips><incits>55117</incits><id>US.WI.117</id><population>114922</population></desc></path><path d="M463.440860215,483.333333333 L463.440860215,453.225806452 L519.35483871,453.225806452 L519.35483871,447.849462366 L547.311827957,447.849462366 L547.311827957,453.225806452 L547.311827957,494.086021505 L519.35483871,494.086021505 L519.35483871,483.333333333 L463.440860215,483.333333333 Z" fill="#cee3f5" id="US.WI.039" stroke="#6e6e6e" stroke-width="0.4"><desc><name>Fond du Lac County</name><stateAbbrev>WI</stateAbbrev><state>Wisconsin</state><fips>039</fips><incits>55039</incits><id>US.WI.039</id><population>101798</population></desc></path><path d="M431.182795699,442.47311828 L463.440860215,442.47311828 L463.440860215,453.225806452 L463.440860215,483.333333333 L449.462365591,483.333333333 L435.483870968,483.333333333 L421.505376344,482.258064516 L421.505376344,469.35483871 L430.107526882,468.279569892 L426.88172043,462.903225806 L426.88172043,455.376344086 L431.182795699,455.376344086 L431.182795699,442.47311828 Z" fill="#cee3f5" id="US.WI.047" stroke="#6e6e6e" stroke-width="0.4"><desc><name>Green Lake County</name><stateAbbrev>WI</stateAbbrev><state>Wisconsin</state><fips>047</fips><incits>55047</incits><id>US.WI.047</id><population>18959</population></desc></path><path d="M448.387096774,524.193548387 L449.462365591,513.440860215 L449.462365591,483.333333333 L463.440860215,483.333333333 L519.35483871,483.333333333 L519.35483871,494.086021505 L519.35483871,513.440860215 L517.204301075,513.440860215 L517.204301075,533.870967742 L503.225806452,533.870967742 L490.322580645,533.870967742 L448.387096774,533.870967742 L448.387096774,524.193548387 Z" fill="#cee3f5" id="US.WI.027" stroke="#6e6e6e" stroke-width="0.4"><desc><name>Dodge County</name><stateAbbrev>WI</stateAbbrev><state>Wisconsin</state><fips>027</fips><incits>55027</incits><id>US.WI.027</id><population>88344</population></desc></path><path d="M463.440860215,412.365591398 L479.569892473,412.365591398 L519.35483871,412.365591398 L519.35483871,447.849462366 L519.35483871,453.225806452 L463.440860215,453.225806452 L463.440860215,442.47311828 L463.440860215,412.365591398 Z" fill="#cee3f5" id="US.WI.139" stroke="#6e6e6e" stroke-width="0.4"><desc><name>Winnebago County</name><stateAbbrev>WI</stateAbbrev><state>Wisconsin</state><fips>139</fips><incits>55139</incits><id>US.WI.139</id><population>169541</population></desc></path><path d="M380.64516129,412.365591398 L423.655913978,412.365591398 L463.440860215,412.365591398 L463.440860215,442.47311828 L431.182795699,442.47311828 L380.64516129,442.47311828 L380.64516129,412.365591398 Z" fill="#cee3f5" id="US.WI.137" stroke="#6e6e6e" stroke-width="0.4"><desc><name>Waushara County</name><stateAbbrev>WI</stateAbbrev><state>Wisconsin</state><fips>137</fips><incits>55137</incits><id>US.WI.137</id><population>24329</population></desc></path><path d="M479.569892473,412.365591398 L480.64516129,372.580645161 L495.698924731,372.580645161 L537.634408602,373.655913978 L544.086021505,372.580645161 L543.010752688,412.365591398 L519.35483871,412.365591398 L479.569892473,412.365591398 Z" fill="#cee3f5" id="US.WI.087" stroke="#6e6e6e" stroke-width="0.4"><desc><name>Outagamie County</name><stateAbbrev>WI</stateAbbrev><state>Wisconsin</state><fips>087</fips><incits>55087</incits><id>US.WI.087</id><population>180345</population></desc></path><path d="M519.35483871,412.365591398 L543.010752688,412.365591398 L560.215053763,413.440860215 L561.290322581,453.225806452 L547.311827957,453.225806452 L547.311827957,447.849462366 L519.35483871,447.849462366 L519.35483871,412.365591398 Z" fill="#cee3f5" id="US.WI.015" stroke="#6e6e6e" stroke-width="0.4"><desc><name>Calumet County</name><stateAbbrev>WI</stateAbbrev><state>Wisconsin</state><fips>015</fips><incits>55015</incits><id>US.WI.015</id><population>49617</population></desc></path><path d="M297.849462366,320.967741935 L310.752688172,320.967741935 L311.827956989,311.290322581 L329.032258065,311.290322581 L401.075268817,311.290322581 L423.655913978,311.290322581 L423.655913978,322.043010753 L423.655913978,361.827956989 L393.548387097,361.827956989 L351.612903226,361.827956989 L297.849462366,361.827956989 L297.849462366,320.967741935 Z" fill="#cee3f5" id="US.WI.073" stroke="#6e6e6e" stroke-width="0.4"><desc><name>Marathon County</name><stateAbbrev>WI</stateAbbrev><state>Wisconsin</state><fips>073</fips><incits>55073</incits><id>US.WI.073</id><population>135416</population></desc></path><path d="M423.655913978,412.365591398 L423.655913978,361.827956989 L495.698924731,362.903225806 L495.698924731,372.580645161 L480.64516129,372.580645161 L479.569892473,412.365591398 L463.440860215,412.365591398 L423.655913978,412.365591398 Z" fill="#cee3f5" id="US.WI.135" stroke="#6e6e6e" stroke-width="0.4"><desc><name>Waupaca County</name><stateAbbrev>WI</stateAbbrev><state>Wisconsin</state><fips>135</fips><incits>55135</incits><id>US.WI.135</id><population>52285</population></desc></path><path d="M351.612903226,361.827956989 L393.548387097,361.827956989 L423.655913978,361.827956989 L423.655913978,412.365591398 L380.64516129,412.365591398 L365.591397849,412.365591398 L365.591397849,381.182795699 L351.612903226,381.182795699 L351.612903226,361.827956989 Z" fill="#cee3f5" id="US.WI.097" stroke="#6e6e6e" stroke-width="0.4"><desc><name>Portage County</name><stateAbbrev>WI</stateAbbrev><state>Wisconsin</state><fips>097</fips><incits>55097</incits><id>US.WI.097</id><population>70380</population></desc></path><path d="M423.655913978,322.043010753 L451.612903226,322.043010753 L451.612903226,331.720430108 L480.64516129,331.720430108 L480.64516129,341.397849462 L508.602150538,341.397849462 L536.559139785,342.47311828 L536.559139785,352.150537634 L537.634408602,361.827956989 L537.634408602,373.655913978 L495.698924731,372.580645161 L495.698924731,362.903225806 L423.655913978,361.827956989 L423.655913978,322.043010753 Z" fill="#cee3f5" id="US.WI.115" stroke="#6e6e6e" stroke-width="0.4"><desc><name>Shawano County</name><stateAbbrev>WI</stateAbbrev><state>Wisconsin</state><fips>115</fips><incits>55115</incits><id>US.WI.115</id><population>41643</population></desc></path><path d="M297.849462366,391.935483871 L297.849462366,361.827956989 L351.612903226,361.827956989 L351.612903226,381.182795699 L365.591397849,381.182795699 L365.591397849,412.365591398 L345.161290323,412.365591398 L297.849462366,412.365591398 L297.849462366,391.935483871 Z" fill="#cee3f5" id="US.WI.141" stroke="#6e6e6e" stroke-width="0.4"><desc><name>Wood County</name><stateAbbrev>WI</stateAbbrev><state>Wisconsin</state><fips>141</fips><incits>55141</incits><id>US.WI.141</id><population>73959</population></desc></path><path d="M345.161290323,412.365591398 L365.591397849,412.365591398 L380.64516129,412.365591398 L380.64516129,442.47311828 L380.64516129,482.258064516 L359.139784946,482.258064516 L352.688172043,472.580645161 L350.537634409,467.204301075 L338.709677419,455.376344086 L337.634408602,451.075268817 L339.784946237,445.698924731 L331.182795699,431.720430108 L333.333333333,427.419354839 L337.634408602,422.043010753 L345.161290323,419.892473118 L345.161290323,412.365591398 Z" fill="#cee3f5" id="US.WI.001" stroke="#6e6e6e" stroke-width="0.4"><desc><name>Adams County</name><stateAbbrev>WI</stateAbbrev><state>Wisconsin</state><fips>001</fips><incits>55001</incits><id>US.WI.001</id><population>20480</population></desc></path><path d="M226.88172043,371.505376344 L226.88172043,341.397849462 L226.88172043,322.043010753 L283.870967742,322.043010753 L297.849462366,320.967741935 L297.849462366,361.827956989 L297.849462366,391.935483871 L269.892473118,391.935483871 L240.860215054,391.935483871 L240.860215054,382.258064516 L226.88172043,382.258064516 L226.88172043,371.505376344 Z" fill="#cee3f5" id="US.WI.019" stroke="#6e6e6e" stroke-width="0.4"><desc><name>Clark County</name><stateAbbrev>WI</stateAbbrev><state>Wisconsin</state><fips>019</fips><incits>55019</incits><id>US.WI.019</id><population>34615</population></desc></path><path d="M226.88172043,290.860215054 L226.88172043,281.182795699 L255.913978495,281.182795699 L283.870967742,281.182795699 L329.032258065,281.182795699 L329.032258065,290.860215054 L329.032258065,311.290322581 L311.827956989,311.290322581 L310.752688172,320.967741935 L297.849462366,320.967741935 L283.870967742,322.043010753 L226.88172043,322.043010753 L226.88172043,311.290322581 L226.88172043,290.860215054 Z" fill="#cee3f5" id="US.WI.119" stroke="#6e6e6e" stroke-width="0.4"><desc><name>Taylor County</name><stateAbbrev>WI</stateAbbrev><state>Wisconsin</state><fips>119</fips><incits>55119</incits><id>US.WI.119</id><population>20610</population></desc></path><path d="M329.032258065,281.182795699 L329.032258065,260.752688172 L400.0,260.752688172 L401.075268817,271.505376344 L401.075268817,311.290322581 L329.032258065,311.290322581 L329.032258065,290.860215054 L329.032258065,281.182795699 Z" fill="#cee3f5" id="US.WI.069" stroke="#6e6e6e" stroke-width="0.4"><desc><name>Lincoln County</name><stateAbbrev>WI</stateAbbrev><state>Wisconsin</state><fips>069</fips><incits>55069</incits><id>US.WI.069</id><population>28684</population></desc></path><path d="M329.032258065,220.967741935 L407.52688172,220.967741935 L415.053763441,220.967741935 L415.053763441,225.268817204 L430.107526882,225.268817204 L429.032258065,220.967741935 L444.086021505,222.043010753 L444.086021505,271.505376344 L407.52688172,270.430107527 L401.075268817,271.505376344 L400.0,260.752688172 L329.032258065,260.752688172 L329.032258065,220.967741935 Z" fill="#cee3f5" id="US.WI.085" stroke="#6e6e6e" stroke-width="0.4"><desc><name>Oneida County</name><stateAbbrev>WI</stateAbbrev><state>Wisconsin</state><fips>085</fips><incits>55085</incits><id>US.WI.085</id><population>35689</population></desc></path><path d="M329.032258065,211.290322581 L341.935483871,211.290322581 L341.935483871,174.731182796 L396.774193548,185.483870968 L439.784946237,193.010752688 L458.064516129,200.537634409 L458.064516129,211.290322581 L444.086021505,211.290322581 L444.086021505,222.043010753 L429.032258065,220.967741935 L430.107526882,225.268817204 L415.053763441,225.268817204 L415.053763441,220.967741935 L407.52688172,220.967741935 L329.032258065,220.967741935 L329.032258065,211.290322581 Z" fill="#cee3f5" id="US.WI.125" stroke="#6e6e6e" stroke-width="0.4"><desc><name>Vilas County</name><stateAbbrev>WI</stateAbbrev><state>Wisconsin</state><fips>125</fips><incits>55125</incits><id>US.WI.125</id><population>21368</population></desc></path><path d="M458.064516129,200.537634409 L475.268817204,206.989247312 L479.569892473,205.913978495 L487.096774194,208.064516129 L487.096774194,211.290322581 L487.096774194,241.397849462 L516.129032258,241.397849462 L516.129032258,281.182795699 L487.096774194,281.182795699 L458.064516129,281.182795699 L459.139784946,277.956989247 L459.139784946,271.505376344 L455.913978495,271.505376344 L453.76344086,271.505376344 L449.462365591,271.505376344 L446.23655914,271.505376344 L444.086021505,271.505376344 L444.086021505,222.043010753 L444.086021505,211.290322581 L458.064516129,211.290322581 L458.064516129,200.537634409 Z" fill="#cee3f5" id="US.WI.041" stroke="#6e6e6e" stroke-width="0.4"><desc><name>Forest County</name><stateAbbrev>WI</stateAbbrev><state>Wisconsin</state><fips>041</fips><incits>55041</incits><id>US.WI.041</id><population>9126</population></desc></path><path d="M537.634408602,361.827956989 L538.709677419,362.903225806 L566.666666667,362.903225806 L565.591397849,363.978494624 L562.365591398,375.806451613 L566.666666667,379.032258065 L574.193548387,379.032258065 L579.569892473,371.505376344 L593.548387097,366.129032258 L592.47311828,372.580645161 L592.47311828,402.688172043 L578.494623656,402.688172043 L578.494623656,413.440860215 L560.215053763,413.440860215 L543.010752688,412.365591398 L544.086021505,372.580645161 L537.634408602,373.655913978 L537.634408602,361.827956989 Z" fill="#cee3f5" id="US.WI.009" stroke="#6e6e6e" stroke-width="0.4"><desc><name>Brown County</name><stateAbbrev>WI</stateAbbrev><state>Wisconsin</state><fips>009</fips><incits>55009</incits><id>US.WI.009</id><population>254586</population></desc></path><path d="M560.215053763,413.440860215 L578.494623656,413.440860215 L578.494623656,402.688172043 L592.47311828,402.688172043 L618.279569892,402.688172043 L619.35483871,406.989247312 L622.580645161,414.516129032 L621.505376344,419.892473118 L617.204301075,424.193548387 L607.52688172,428.494623656 L596.774193548,453.225806452 L561.290322581,453.225806452 L560.215053763,413.440860215 Z" fill="#cee3f5" id="US.WI.071" stroke="#6e6e6e" stroke-width="0.4"><desc><name>Manitowoc County</name><stateAbbrev>WI</stateAbbrev><state>Wisconsin</state><fips>071</fips><incits>55071</incits><id>US.WI.071</id><population>80654</population></desc></path><path d="M592.47311828,402.688172043 L592.47311828,372.580645161 L593.548387097,366.129032258 L595.698924731,362.903225806 L637.634408602,362.903225806 L626.88172043,377.956989247 L618.279569892,402.688172043 L592.47311828,402.688172043 Z" fill="#cee3f5" id="US.WI.061" stroke="#6e6e6e" stroke-width="0.4"><desc><name>Kewaunee County</name><stateAbbrev>WI</stateAbbrev><state>Wisconsin</state><fips>061</fips><incits>55061</incits><id>US.WI.061</id><population>20505</population></desc></path><path d="M595.698924731,362.903225806 L597.849462366,357.52688172 L610.752688172,343.548387097 L624.731182796,342.47311828 L632.258064516,339.247311828 L636.559139785,344.623655914 L645.161290323,348.924731183 L641.935483871,357.52688172 L637.634408602,362.903225806 L595.698924731,362.903225806 M634.408602151,336.021505376 L639.784946237,326.344086022 L649.462365591,315.591397849 L653.76344086,305.913978495 L659.139784946,305.913978495 L664.516129032,302.688172043 L668.817204301,295.161290323 L673.11827957,290.860215054 L683.870967742,290.860215054 L683.870967742,300.537634409 L678.494623656,298.387096774 L676.344086022,304.838709677 L672.043010753,308.064516129 L676.344086022,312.365591398 L674.193548387,315.591397849 L667.741935484,317.741935484 L665.591397849,323.11827957 L660.215053763,328.494623656 L661.290322581,333.870967742 L656.989247312,336.021505376 L658.064516129,340.322580645 L650.537634409,342.47311828 L645.161290323,348.924731183 L636.559139785,343.548387097 L636.559139785,338.172043011 L634.408602151,336.021505376 M686.021505376,285.483870968 L688.172043011,276.88172043 L697.849462366,276.88172043 L700.0,280.107526882 L696.774193548,286.559139785 L686.021505376,285.483870968 Z" fill="#cee3f5" id="US.WI.029" stroke="#6e6e6e" stroke-width="0.4"><desc><name>Door County</name><stateAbbrev>WI</stateAbbrev><state>Wisconsin</state><fips>029</fips><incits>55029</incits><id>US.WI.029</id><population>27896</population></desc></path><path d="M255.913978495,251.075268817 L255.913978495,211.290322581 L298.924731183,211.290322581 L329.032258065,211.290322581 L329.032258065,220.967741935 L329.032258065,260.752688172 L329.032258065,281.182795699 L283.870967742,281.182795699 L255.913978495,281.182795699 L255.913978495,251.075268817 Z" fill="#cee3f5" id="US.WI.099" stroke="#6e6e6e" stroke-width="0.4"><desc><name>Price County</name><stateAbbrev>WI</stateAbbrev><state>Wisconsin</state><fips>099</fips><incits>55099</incits><id>US.WI.099</id><population>13802</population></desc></path><path d="M270.967741935,141.397849462 L275.268817204,141.397849462 L288.172043011,147.849462366 L297.849462366,147.849462366 L303.225806452,151.075268817 L309.677419355,151.075268817 L320.430107527,168.279569892 L320.430107527,170.430107527 L341.935483871,174.731182796 L341.935483871,211.290322581 L329.032258065,211.290322581 L298.924731183,211.290322581 L298.924731183,191.935483871 L284.946236559,190.860215054 L284.946236559,181.182795699 L269.892473118,181.182795699 L270.967741935,141.397849462 Z" fill="#cee3f5" id="US.WI.051" stroke="#6e6e6e" stroke-width="0.4"><desc><name>Iron County</name><stateAbbrev>WI</stateAbbrev><state>Wisconsin</state><fips>051</fips><incits>55051</incits><id>US.WI.051</id><population>5886</population></desc></path><path d="M226.88172043,191.935483871 L226.88172043,151.075268817 L226.88172043,141.397849462 L229.032258065,141.397849462 L248.387096774,133.870967742 L253.76344086,132.795698925 L270.967741935,141.397849462 L269.892473118,181.182795699 L284.946236559,181.182795699 L284.946236559,190.860215054 L298.924731183,191.935483871 L298.924731183,211.290322581 L255.913978495,211.290322581 L226.88172043,211.290322581 L226.88172043,191.935483871 M243.010752688,118.817204301 L249.462365591,116.666666667 L262.365591398,108.064516129 L266.666666667,110.215053763 L255.913978495,114.516129032 L245.161290323,122.043010753 L243.010752688,118.817204301 M258.064516129,102.688172043 L260.215053763,100.537634409 L273.11827957,97.311827957 L273.11827957,101.612903226 L260.215053763,104.838709677 L258.064516129,102.688172043 M279.569892473,95.1612903226 L283.870967742,85.4838709677 L288.172043011,84.4086021505 L287.096774194,90.8602150538 L279.569892473,95.1612903226 Z" fill="#cee3f5" id="US.WI.003" stroke="#6e6e6e" stroke-width="0.4"><desc><name>Ashland County</name><stateAbbrev>WI</stateAbbrev><state>Wisconsin</state><fips>003</fips><incits>55003</incits><id>US.WI.003</id><population>16016</population></desc></path><path d="M154.838709677,190.860215054 L168.817204301,190.860215054 L226.88172043,191.935483871 L226.88172043,211.290322581 L255.913978495,211.290322581 L255.913978495,251.075268817 L155.913978495,251.075268817 L155.913978495,211.290322581 L154.838709677,211.290322581 L154.838709677,190.860215054 Z" fill="#cee3f5" id="US.WI.113" stroke="#6e6e6e" stroke-width="0.4"><desc><name>Sawyer County</name><stateAbbrev>WI</stateAbbrev><state>Wisconsin</state><fips>113</fips><incits>55113</incits><id>US.WI.113</id><population>16513</population></desc></path><path d="M154.838709677,122.043010753 L176.344086022,117.741935484 L179.569892473,114.516129032 L188.172043011,112.365591398 L191.397849462,110.215053763 L197.849462366,111.290322581 L207.52688172,106.989247312 L212.903225806,106.989247312 L221.505376344,100.537634409 L226.88172043,101.612903226 L235.483870968,98.3870967742 L243.010752688,101.612903226 L247.311827957,106.989247312 L241.935483871,114.516129032 L234.408602151,118.817204301 L232.258064516,123.11827957 L235.483870968,128.494623656 L227.956989247,132.795698925 L223.655913978,140.322580645 L226.88172043,141.397849462 L226.88172043,151.075268817 L226.88172043,191.935483871 L168.817204301,190.860215054 L154.838709677,190.860215054 L153.76344086,141.397849462 L154.838709677,122.043010753 Z" fill="#cee3f5" id="US.WI.007" stroke="#6e6e6e" stroke-width="0.4"><desc><name>Bayfield County</name><stateAbbrev>WI</stateAbbrev><state>Wisconsin</state><fips>007</fips><incits>55007</incits><id>US.WI.007</id><population>15156</population></desc></path><path d="M140.860215054,301.612903226 L155.913978495,301.612903226 L155.913978495,290.860215054 L226.88172043,290.860215054 L226.88172043,311.290322581 L226.88172043,322.043010753 L226.88172043,341.397849462 L143.010752688,341.397849462 L143.010752688,311.290322581 L140.860215054,301.612903226 Z" fill="#cee3f5" id="US.WI.017" stroke="#6e6e6e" stroke-width="0.4"><desc><name>Chippewa County</name><stateAbbrev>WI</stateAbbrev><state>Wisconsin</state><fips>017</fips><incits>55017</incits><id>US.WI.017</id><population>63132</population></desc></path><path d="M155.913978495,290.860215054 L155.913978495,251.075268817 L255.913978495,251.075268817 L255.913978495,281.182795699 L226.88172043,281.182795699 L226.88172043,290.860215054 L155.913978495,290.860215054 Z" fill="#cee3f5" id="US.WI.107" stroke="#6e6e6e" stroke-width="0.4"><desc><name>Rusk County</name><stateAbbrev>WI</stateAbbrev><state>Wisconsin</state><fips>107</fips><incits>55107</incits><id>US.WI.107</id><population>14395</population></desc></path><path d="M297.849462366,423.11827957 L297.849462366,412.365591398 L345.161290323,412.365591398 L345.161290323,419.892473118 L337.634408602,422.043010753 L333.333333333,427.419354839 L331.182795699,431.720430108 L339.784946237,445.698924731 L337.634408602,451.075268817 L338.709677419,455.376344086 L350.537634409,467.204301075 L352.688172043,472.580645161 L359.139784946,482.258064516 L297.849462366,482.258064516 L297.849462366,471.505376344 L297.849462366,423.11827957 Z" fill="#cee3f5" id="US.WI.057" stroke="#6e6e6e" stroke-width="0.4"><desc><name>Juneau County</name><stateAbbrev>WI</stateAbbrev><state>Wisconsin</state><fips>057</fips><incits>55057</incits><id>US.WI.057</id><population>26547</population></desc></path><path d="M221.505376344,432.795698925 L221.505376344,426.344086022 L227.956989247,422.043010753 L283.870967742,422.043010753 L297.849462366,423.11827957 L297.849462366,471.505376344 L283.870967742,472.580645161 L229.032258065,472.580645161 L227.956989247,432.795698925 L221.505376344,432.795698925 Z" fill="#cee3f5" id="US.WI.081" stroke="#6e6e6e" stroke-width="0.4"><desc><name>Monroe County</name><stateAbbrev>WI</stateAbbrev><state>Wisconsin</state><fips>081</fips><incits>55081</incits><id>US.WI.081</id><population>45298</population></desc></path><path d="M198.924731183,371.505376344 L226.88172043,371.505376344 L226.88172043,382.258064516 L240.860215054,382.258064516 L240.860215054,391.935483871 L269.892473118,391.935483871 L297.849462366,391.935483871 L297.849462366,412.365591398 L297.849462366,423.11827957 L283.870967742,422.043010753 L227.956989247,422.043010753 L221.505376344,426.344086022 L221.505376344,432.795698925 L201.075268817,432.795698925 L201.075268817,431.720430108 L201.075268817,412.365591398 L198.924731183,412.365591398 L198.924731183,371.505376344 Z" fill="#cee3f5" id="US.WI.053" stroke="#6e6e6e" stroke-width="0.4"><desc><name>Jackson County</name><stateAbbrev>WI</stateAbbrev><state>Wisconsin</state><fips>053</fips><incits>55053</incits><id>US.WI.053</id><population>20644</population></desc></path><path d="M487.096774194,208.064516129 L494.623655914,211.290322581 L500.0,208.064516129 L506.451612903,206.989247312 L516.129032258,211.290322581 L521.505376344,210.215053763 L531.182795699,214.516129032 L536.559139785,213.440860215 L545.161290323,215.591397849 L550.537634409,218.817204301 L556.989247312,224.193548387 L550.537634409,229.569892473 L554.838709677,233.870967742 L559.139784946,234.946236559 L559.139784946,242.47311828 L516.129032258,241.397849462 L487.096774194,241.397849462 L487.096774194,211.290322581 L487.096774194,208.064516129 Z" fill="#cee3f5" id="US.WI.037" stroke="#6e6e6e" stroke-width="0.4"><desc><name>Florence County</name><stateAbbrev>WI</stateAbbrev><state>Wisconsin</state><fips>037</fips><incits>55037</incits><id>US.WI.037</id><population>4520</population></desc></path><path d="M194.623655914,506.989247312 L256.989247312,508.064516129 L256.989247312,537.096774194 L253.76344086,537.096774194 L245.161290323,543.548387097 L235.483870968,547.849462366 L224.731182796,548.924731183 L222.580645161,552.150537634 L210.752688172,557.52688172 L200.0,557.52688172 L197.849462366,548.924731183 L197.849462366,541.397849462 L204.301075269,533.870967742 L211.827956989,527.419354839 L203.225806452,518.817204301 L194.623655914,516.666666667 L194.623655914,506.989247312 Z" fill="#cee3f5" id="US.WI.023" stroke="#6e6e6e" stroke-width="0.4"><desc><name>Crawford County</name><stateAbbrev>WI</stateAbbrev><state>Wisconsin</state><fips>023</fips><incits>55023</incits><id>US.WI.023</id><population>16397</population></desc></path><path d="M200.0,557.52688172 L210.752688172,557.52688172 L222.580645161,552.150537634 L224.731182796,548.924731183 L235.483870968,547.849462366 L245.161290323,543.548387097 L253.76344086,537.096774194 L256.989247312,537.096774194 L270.967741935,531.720430108 L284.946236559,533.870967742 L284.946236559,577.956989247 L284.946236559,613.440860215 L260.215053763,613.440860215 L258.064516129,606.989247312 L250.537634409,598.387096774 L223.655913978,593.010752688 L212.903225806,586.559139785 L210.752688172,584.408602151 L206.451612903,570.430107527 L201.075268817,567.204301075 L200.0,557.52688172 Z" fill="#cee3f5" id="US.WI.043" stroke="#6e6e6e" stroke-width="0.4"><desc><name>Grant County</name><stateAbbrev>WI</stateAbbrev><state>Wisconsin</state><fips>043</fips><incits>55043</incits><id>US.WI.043</id><population>51069</population></desc></path><path d="M168.817204301,442.47311828 L180.64516129,442.47311828 L178.494623656,437.096774194 L181.720430108,433.870967742 L193.548387097,433.870967742 L195.698924731,430.64516129 L201.075268817,431.720430108 L201.075268817,432.795698925 L221.505376344,432.795698925 L227.956989247,432.795698925 L229.032258065,472.580645161 L188.172043011,472.580645161 L190.322580645,467.204301075 L186.021505376,458.602150538 L176.344086022,448.924731183 L168.817204301,442.47311828 Z" fill="#cee3f5" id="US.WI.063" stroke="#6e6e6e" stroke-width="0.4"><desc><name>La Crosse County</name><stateAbbrev>WI</stateAbbrev><state>Wisconsin</state><fips>063</fips><incits>55063</incits><id>US.WI.063</id><population>116713</population></desc></path><path d="M188.172043011,472.580645161 L229.032258065,472.580645161 L283.870967742,472.580645161 L297.849462366,471.505376344 L297.849462366,482.258064516 L297.849462366,493.010752688 L255.913978495,493.010752688 L256.989247312,508.064516129 L194.623655914,506.989247312 L191.397849462,503.76344086 L193.548387097,497.311827957 L190.322580645,493.010752688 L191.397849462,489.784946237 L187.096774194,485.483870968 L187.096774194,474.731182796 L188.172043011,472.580645161 Z" fill="#cee3f5" id="US.WI.123" stroke="#6e6e6e" stroke-width="0.4"><desc><name>Vernon County</name><stateAbbrev>WI</stateAbbrev><state>Wisconsin</state><fips>123</fips><incits>55123</incits><id>US.WI.123</id><population>30329</population></desc></path><path d="M13.9784946237,341.397849462 L59.1397849462,341.397849462 L87.0967741935,341.397849462 L87.0967741935,361.827956989 L87.0967741935,377.956989247 L65.5913978495,377.956989247 L62.3655913978,376.88172043 L49.4623655914,375.806451613 L43.0107526882,374.731182796 L31.1827956989,369.35483871 L31.1827956989,367.204301075 L17.2043010753,357.52688172 L9.67741935484,354.301075269 L13.9784946237,343.548387097 L13.9784946237,341.397849462 Z" fill="#cee3f5" id="US.WI.093" stroke="#6e6e6e" stroke-width="0.4"><desc><name>Pierce County</name><stateAbbrev>WI</stateAbbrev><state>Wisconsin</state><fips>093</fips><incits>55093</incits><id>US.WI.093</id><population>40976</population></desc></path><path d="M65.5913978495,377.956989247 L87.0967741935,377.956989247 L87.0967741935,361.827956989 L143.010752688,361.827956989 L143.010752688,371.505376344 L101.075268817,371.505376344 L98.9247311828,373.655913978 L96.7741935484,381.182795699 L93.5483870968,394.086021505 L77.4193548387,389.784946237 L70.9677419355,386.559139785 L65.5913978495,377.956989247 Z" fill="#cee3f5" id="US.WI.091" stroke="#6e6e6e" stroke-width="0.4"><desc><name>Pepin County</name><stateAbbrev>WI</stateAbbrev><state>Wisconsin</state><fips>091</fips><incits>55091</incits><id>US.WI.091</id><population>7360</population></desc></path><path d="M0.0,251.075268817 L2.15053763441,242.47311828 L11.8279569892,237.096774194 L20.4301075269,222.043010753 L29.0322580645,217.741935484 L38.7096774194,214.516129032 L41.935483871,211.290322581 L48.3870967742,212.365591398 L53.7634408602,205.913978495 L60.2150537634,208.064516129 L64.5161290323,201.612903226 L68.8172043011,200.537634409 L68.8172043011,190.860215054 L96.7741935484,190.860215054 L96.7741935484,211.290322581 L98.9247311828,211.290322581 L98.9247311828,251.075268817 L84.9462365591,251.075268817 L84.9462365591,241.397849462 L41.935483871,240.322580645 L40.8602150538,251.075268817 L0.0,251.075268817 Z" fill="#cee3f5" id="US.WI.013" stroke="#6e6e6e" stroke-width="0.4"><desc><name>Burnett County</name><stateAbbrev>WI</stateAbbrev><state>Wisconsin</state><fips>013</fips><incits>55013</incits><id>US.WI.013</id><population>15333</population></desc></path><path d="M154.838709677,122.043010753 L153.76344086,141.397849462 L154.838709677,190.860215054 L96.7741935484,190.860215054 L68.8172043011,190.860215054 L68.8172043011,137.096774194 L72.0430107527,133.870967742 L77.4193548387,133.870967742 L86.0215053763,126.344086022 L92.4731182796,123.11827957 L98.9247311828,127.419354839 L109.677419355,130.64516129 L126.88172043,128.494623656 L151.612903226,122.043010753 L154.838709677,122.043010753 Z" fill="#cee3f5" id="US.WI.031" stroke="#6e6e6e" stroke-width="0.4"><desc><name>Douglas County</name><stateAbbrev>WI</stateAbbrev><state>Wisconsin</state><fips>031</fips><incits>55031</incits><id>US.WI.031</id><population>43887</population></desc></path><path d="M0.0,251.075268817 L40.8602150538,251.075268817 L41.935483871,240.322580645 L84.9462365591,241.397849462 L84.9462365591,251.075268817 L84.9462365591,300.537634409 L15.0537634409,300.537634409 L13.9784946237,291.935483871 L20.4301075269,287.634408602 L21.5053763441,284.408602151 L26.8817204301,279.032258065 L27.9569892473,273.655913978 L18.2795698925,266.129032258 L18.2795698925,262.903225806 L13.9784946237,259.677419355 L7.52688172043,260.752688172 L0.0,258.602150538 L0.0,251.075268817 Z" fill="#cee3f5" id="US.WI.095" stroke="#6e6e6e" stroke-width="0.4"><desc><name>Polk County</name><stateAbbrev>WI</stateAbbrev><state>Wisconsin</state><fips>095</fips><incits>55095</incits><id>US.WI.095</id><population>43476</population></desc></path><path d="M96.7741935484,190.860215054 L154.838709677,190.860215054 L154.838709677,211.290322581 L155.913978495,211.290322581 L155.913978495,251.075268817 L98.9247311828,251.075268817 L98.9247311828,211.290322581 L96.7741935484,211.290322581 L96.7741935484,190.860215054 Z" fill="#cee3f5" id="US.WI.129" stroke="#6e6e6e" stroke-width="0.4"><desc><name>Washburn County</name><stateAbbrev>WI</stateAbbrev><state>Wisconsin</state><fips>129</fips><incits>55129</incits><id>US.WI.129</id><population>15686</population></desc></path><path d="M93.5483870968,394.086021505 L96.7741935484,381.182795699 L98.9247311828,373.655913978 L101.075268817,371.505376344 L143.010752688,371.505376344 L156.989247312,371.505376344 L156.989247312,412.365591398 L148.387096774,415.591397849 L148.387096774,422.043010753 L152.688172043,423.11827957 L155.913978495,429.569892473 L152.688172043,436.021505376 L153.76344086,438.172043011 L144.086021505,433.870967742 L136.559139785,427.419354839 L123.655913978,422.043010753 L117.204301075,417.741935484 L115.053763441,409.139784946 L111.827956989,408.064516129 L110.752688172,402.688172043 L107.52688172,399.462365591 L93.5483870968,394.086021505 Z" fill="#cee3f5" id="US.WI.011" stroke="#6e6e6e" stroke-width="0.4"><desc><name>Buffalo County</name><stateAbbrev>WI</stateAbbrev><state>Wisconsin</state><fips>011</fips><incits>55011</incits><id>US.WI.011</id><population>13357</population></desc></path><path d="M156.989247312,371.505376344 L198.924731183,371.505376344 L198.924731183,412.365591398 L201.075268817,412.365591398 L201.075268817,431.720430108 L195.698924731,430.64516129 L193.548387097,433.870967742 L181.720430108,433.870967742 L178.494623656,437.096774194 L180.64516129,442.47311828 L168.817204301,442.47311828 L167.741935484,440.322580645 L153.76344086,438.172043011 L152.688172043,436.021505376 L155.913978495,429.569892473 L152.688172043,423.11827957 L148.387096774,422.043010753 L148.387096774,415.591397849 L156.989247312,412.365591398 L156.989247312,371.505376344 Z" fill="#cee3f5" id="US.WI.121" stroke="#6e6e6e" stroke-width="0.4"><desc><name>Trempealeau County</name><stateAbbrev>WI</stateAbbrev><state>Wisconsin</state><fips>121</fips><incits>55121</incits><id>US.WI.121</id><population>29582</population></desc></path><path d="M84.9462365591,251.075268817 L98.9247311828,251.075268817 L155.913978495,251.075268817 L155.913978495,290.860215054 L155.913978495,301.612903226 L140.860215054,301.612903226 L84.9462365591,300.537634409 L84.9462365591,251.075268817 Z" fill="#cee3f5" id="US.WI.005" stroke="#6e6e6e" stroke-width="0.4"><desc><name>Barron County</name><stateAbbrev>WI</stateAbbrev><state>Wisconsin</state><fips>005</fips><incits>55005</incits><id>US.WI.005</id><population>45676</population></desc></path><path d="M84.9462365591,300.537634409 L140.860215054,301.612903226 L143.010752688,311.290322581 L143.010752688,341.397849462 L143.010752688,361.827956989 L87.0967741935,361.827956989 L87.0967741935,341.397849462 L87.0967741935,311.290322581 L83.8709677419,311.290322581 L84.9462365591,300.537634409 Z" fill="#cee3f5" id="US.WI.033" stroke="#6e6e6e" stroke-width="0.4"><desc><name>Dunn County</name><stateAbbrev>WI</stateAbbrev><state>Wisconsin</state><fips>033</fips><incits>55033</incits><id>US.WI.033</id><population>44122</population></desc></path><path d="M143.010752688,371.505376344 L143.010752688,361.827956989 L143.010752688,341.397849462 L226.88172043,341.397849462 L226.88172043,371.505376344 L198.924731183,371.505376344 L156.989247312,371.505376344 L143.010752688,371.505376344 Z" fill="#cee3f5" id="US.WI.035" stroke="#6e6e6e" stroke-width="0.4"><desc><name>Eau Claire County</name><stateAbbrev>WI</stateAbbrev><state>Wisconsin</state><fips>035</fips><incits>55035</incits><id>US.WI.035</id><population>101438</population></desc></path><path d="M516.129032258,281.182795699 L516.129032258,241.397849462 L559.139784946,242.47311828 L559.139784946,234.946236559 L566.666666667,232.795698925 L569.892473118,237.096774194 L579.569892473,238.172043011 L587.096774194,242.47311828 L591.397849462,246.774193548 L586.021505376,248.924731183 L591.397849462,255.376344086 L588.172043011,261.827956989 L589.247311828,267.204301075 L587.096774194,271.505376344 L581.720430108,274.731182796 L582.795698925,277.956989247 L578.494623656,283.333333333 L594.623655914,284.408602151 L601.075268817,280.107526882 L606.451612903,285.483870968 L602.150537634,290.860215054 L596.774193548,304.838709677 L602.150537634,308.064516129 L605.376344086,312.365591398 L612.903225806,314.516129032 L609.677419355,319.892473118 L608.602150538,327.419354839 L605.376344086,328.494623656 L593.548387097,329.569892473 L593.548387097,326.344086022 L572.043010753,326.344086022 L572.043010753,323.11827957 L551.612903226,322.043010753 L551.612903226,312.365591398 L544.086021505,312.365591398 L544.086021505,302.688172043 L530.107526882,301.612903226 L530.107526882,282.258064516 L516.129032258,281.182795699 Z" fill="#cee3f5" id="US.WI.075" stroke="#6e6e6e" stroke-width="0.4"><desc><name>Marinette County</name><stateAbbrev>WI</stateAbbrev><state>Wisconsin</state><fips>075</fips><incits>55075</incits><id>US.WI.075</id><population>41610</population></desc></path><path d="M15.0537634409,300.537634409 L84.9462365591,300.537634409 L83.8709677419,311.290322581 L87.0967741935,311.290322581 L87.0967741935,341.397849462 L59.1397849462,341.397849462 L13.9784946237,341.397849462 L15.0537634409,330.64516129 L13.9784946237,322.043010753 L10.752688172,315.591397849 L16.1290322581,312.365591398 L13.9784946237,303.76344086 L15.0537634409,300.537634409 Z" fill="#cee3f5" id="US.WI.109" stroke="#6e6e6e" stroke-width="0.4"><desc><name>St. Croix County</name><stateAbbrev>WI</stateAbbrev><state>Wisconsin</state><fips>109</fips><incits>55109</incits><id>US.WI.109</id><population>85930</population></desc></path><path d="M359.139784946,482.258064516 L380.64516129,482.258064516 L421.505376344,482.258064516 L435.483870968,483.333333333 L449.462365591,483.333333333 L449.462365591,513.440860215 L448.387096774,524.193548387 L407.52688172,524.193548387 L407.52688172,523.11827957 L366.666666667,523.11827957 L365.591397849,519.892473118 L370.967741935,515.591397849 L380.64516129,512.365591398 L380.64516129,493.010752688 L369.892473118,490.860215054 L366.666666667,487.634408602 L361.290322581,486.559139785 L359.139784946,482.258064516 Z" fill="#cee3f5" id="US.WI.021" stroke="#6e6e6e" stroke-width="0.4"><desc><name>Columbia County</name><stateAbbrev>WI</stateAbbrev><state>Wisconsin</state><fips>021</fips><incits>55021</incits><id>US.WI.021</id><population>56653</population></desc></path><path d="M352.688172043,532.795698925 L356.989247312,528.494623656 L362.365591398,528.494623656 L366.666666667,523.11827957 L407.52688172,523.11827957 L407.52688172,524.193548387 L448.387096774,524.193548387 L448.387096774,533.870967742 L448.387096774,574.731182796 L407.52688172,574.731182796 L407.52688172,573.655913978 L352.688172043,572.580645161 L352.688172043,532.795698925 Z" fill="#cee3f5" id="US.WI.025" stroke="#6e6e6e" stroke-width="0.4"><desc><name>Dane County</name><stateAbbrev>WI</stateAbbrev><state>Wisconsin</state><fips>025</fips><incits>55025</incits><id>US.WI.025</id><population>509939</population></desc></path><path d="M352.688172043,577.956989247 L352.688172043,572.580645161 L407.52688172,573.655913978 L407.52688172,574.731182796 L407.52688172,614.516129032 L352.688172043,613.440860215 L352.688172043,577.956989247 Z" fill="#cee3f5" id="US.WI.045" stroke="#6e6e6e" stroke-width="0.4"><desc><name>Green County</name><stateAbbrev>WI</stateAbbrev><state>Wisconsin</state><fips>045</fips><incits>55045</incits><id>US.WI.045</id><population>37090</population></desc></path><path d="M284.946236559,533.870967742 L293.548387097,532.795698925 L304.301075269,533.870967742 L311.827956989,538.172043011 L327.956989247,538.172043011 L334.408602151,533.870967742 L345.161290323,534.946236559 L352.688172043,532.795698925 L352.688172043,572.580645161 L352.688172043,577.956989247 L284.946236559,577.956989247 L284.946236559,533.870967742 Z" fill="#cee3f5" id="US.WI.049" stroke="#6e6e6e" stroke-width="0.4"><desc><name>Iowa County</name><stateAbbrev>WI</stateAbbrev><state>Wisconsin</state><fips>049</fips><incits>55049</incits><id>US.WI.049</id><population>23749</population></desc></path><path d="M448.387096774,533.870967742 L490.322580645,533.870967742 L503.225806452,533.870967742 L503.225806452,574.731182796 L476.344086022,574.731182796 L448.387096774,574.731182796 L448.387096774,533.870967742 Z" fill="#cee3f5" id="US.WI.055" stroke="#6e6e6e" stroke-width="0.4"><desc><name>Jefferson County</name><stateAbbrev>WI</stateAbbrev><state>Wisconsin</state><fips>055</fips><incits>55055</incits><id>US.WI.055</id><population>84509</population></desc></path><path d="M530.107526882,601.612903226 L544.086021505,601.612903226 L544.086021505,595.161290323 L588.172043011,595.161290323 L587.096774194,600.537634409 L589.247311828,615.591397849 L530.107526882,615.591397849 L530.107526882,601.612903226 Z" fill="#cee3f5" id="US.WI.059" stroke="#6e6e6e" stroke-width="0.4"><desc><name>Kenosha County</name><stateAbbrev>WI</stateAbbrev><state>Wisconsin</state><fips>059</fips><incits>55059</incits><id>US.WI.059</id><population>167757</population></desc></path><path d="M284.946236559,577.956989247 L352.688172043,577.956989247 L352.688172043,613.440860215 L284.946236559,613.440860215 L284.946236559,577.956989247 Z" fill="#cee3f5" id="US.WI.065" stroke="#6e6e6e" stroke-width="0.4"><desc><name>Lafayette County</name><stateAbbrev>WI</stateAbbrev><state>Wisconsin</state><fips>065</fips><incits>55065</incits><id>US.WI.065</id><population>16766</population></desc></path><path d="M380.64516129,482.258064516 L380.64516129,442.47311828 L431.182795699,442.47311828 L431.182795699,455.376344086 L426.88172043,455.376344086 L426.88172043,462.903225806 L430.107526882,468.279569892 L421.505376344,469.35483871 L421.505376344,482.258064516 L380.64516129,482.258064516 Z" fill="#cee3f5" id="US.WI.077" stroke="#6e6e6e" stroke-width="0.4"><desc><name>Marquette County</name><stateAbbrev>WI</stateAbbrev><state>Wisconsin</state><fips>077</fips><incits>55077</incits><id>US.WI.077</id><population>15176</population></desc></path><path d="M491.397849462,311.290322581 L509.677419355,311.290322581 L508.602150538,341.397849462 L480.64516129,341.397849462 L480.64516129,331.720430108 L451.612903226,331.720430108 L451.612903226,322.043010753 L451.612903226,311.290322581 L491.397849462,311.290322581 Z" fill="#cee3f5" id="US.WI.078" stroke="#6e6e6e" stroke-width="0.4"><desc><name>Menominee County</name><stateAbbrev>WI</stateAbbrev><state>Wisconsin</state><fips>078</fips><incits>55078</incits><id>US.WI.078</id><population>4317</population></desc></path><path d="M558.064516129,533.870967742 L558.064516129,514.516129032 L561.290322581,514.516129032 L561.290322581,494.086021505 L590.322580645,494.086021505 L590.322580645,499.462365591 L587.096774194,505.913978495 L580.64516129,513.440860215 L576.344086022,527.419354839 L578.494623656,534.946236559 L558.064516129,533.870967742 Z" fill="#cee3f5" id="US.WI.089" stroke="#6e6e6e" stroke-width="0.4"><desc><name>Ozaukee County</name><stateAbbrev>WI</stateAbbrev><state>Wisconsin</state><fips>089</fips><incits>55089</incits><id>US.WI.089</id><population>87054</population></desc></path><path d="M530.107526882,574.731182796 L558.064516129,574.731182796 L586.021505376,574.731182796 L593.548387097,582.258064516 L591.397849462,585.483870968 L591.397849462,590.860215054 L588.172043011,595.161290323 L544.086021505,595.161290323 L544.086021505,601.612903226 L530.107526882,601.612903226 L530.107526882,574.731182796 Z" fill="#cee3f5" id="US.WI.101" stroke="#6e6e6e" stroke-width="0.4"><desc><name>Racine County</name><stateAbbrev>WI</stateAbbrev><state>Wisconsin</state><fips>101</fips><incits>55101</incits><id>US.WI.101</id><population>195041</population></desc></path><path d="M297.849462366,493.010752688 L311.827956989,491.935483871 L311.827956989,538.172043011 L304.301075269,533.870967742 L293.548387097,532.795698925 L284.946236559,533.870967742 L270.967741935,531.720430108 L256.989247312,537.096774194 L256.989247312,508.064516129 L255.913978495,493.010752688 L297.849462366,493.010752688 Z" fill="#cee3f5" id="US.WI.103" stroke="#6e6e6e" stroke-width="0.4"><desc><name>Richland County</name><stateAbbrev>WI</stateAbbrev><state>Wisconsin</state><fips>103</fips><incits>55103</incits><id>US.WI.103</id><population>17717</population></desc></path><path d="M407.52688172,574.731182796 L448.387096774,574.731182796 L476.344086022,574.731182796 L476.344086022,615.591397849 L407.52688172,614.516129032 L407.52688172,574.731182796 Z" fill="#cee3f5" id="US.WI.105" stroke="#6e6e6e" stroke-width="0.4"><desc><name>Rock County</name><stateAbbrev>WI</stateAbbrev><state>Wisconsin</state><fips>105</fips><incits>55105</incits><id>US.WI.105</id><population>160739</population></desc></path><path d="M297.849462366,482.258064516 L359.139784946,482.258064516 L361.290322581,486.559139785 L366.666666667,487.634408602 L369.892473118,490.860215054 L380.64516129,493.010752688 L380.64516129,512.365591398 L370.967741935,515.591397849 L365.591397849,519.892473118 L366.666666667,523.11827957 L362.365591398,528.494623656 L356.989247312,528.494623656 L352.688172043,532.795698925 L345.161290323,534.946236559 L334.408602151,533.870967742 L327.956989247,538.172043011 L311.827956989,538.172043011 L311.827956989,491.935483871 L297.849462366,493.010752688 L297.849462366,482.258064516 Z" fill="#cee3f5" id="US.WI.111" stroke="#6e6e6e" stroke-width="0.4"><desc><name>Sauk County</name><stateAbbrev>WI</stateAbbrev><state>Wisconsin</state><fips>111</fips><incits>55111</incits><id>US.WI.111</id><population>63162</population></desc></path><path d="M476.344086022,574.731182796 L503.225806452,574.731182796 L530.107526882,574.731182796 L530.107526882,601.612903226 L530.107526882,615.591397849 L476.344086022,615.591397849 L476.344086022,574.731182796 Z" fill="#cee3f5" id="US.WI.127" stroke="#6e6e6e" stroke-width="0.4"><desc><name>Walworth County</name><stateAbbrev>WI</stateAbbrev><state>Wisconsin</state><fips>127</fips><incits>55127</incits><id>US.WI.127</id><population>102945</population></desc></path><path d="M401.075268817,311.290322581 L401.075268817,271.505376344 L407.52688172,270.430107527 L444.086021505,271.505376344 L446.23655914,271.505376344 L449.462365591,271.505376344 L459.139784946,271.505376344 L459.139784946,277.956989247 L458.064516129,281.182795699 L487.096774194,281.182795699 L487.096774194,301.612903226 L491.397849462,301.612903226 L491.397849462,311.290322581 L451.612903226,311.290322581 L451.612903226,322.043010753 L423.655913978,322.043010753 L423.655913978,311.290322581 L401.075268817,311.290322581 Z" fill="#cee3f5" id="US.WI.067" stroke="#6e6e6e" stroke-width="0.4"><desc><name>Langlade County</name><stateAbbrev>WI</stateAbbrev><state>Wisconsin</state><fips>067</fips><incits>55067</incits><id>US.WI.067</id><population>19575</population></desc></path><path d="M487.096774194,281.182795699 L516.129032258,281.182795699 L530.107526882,282.258064516 L530.107526882,301.612903226 L544.086021505,302.688172043 L544.086021505,312.365591398 L551.612903226,312.365591398 L551.612903226,322.043010753 L572.043010753,323.11827957 L572.043010753,326.344086022 L593.548387097,326.344086022 L593.548387097,329.569892473 L587.096774194,330.64516129 L583.870967742,334.946236559 L586.021505376,337.096774194 L581.720430108,343.548387097 L578.494623656,344.623655914 L573.11827957,353.225806452 L567.741935484,358.602150538 L566.666666667,362.903225806 L538.709677419,362.903225806 L537.634408602,361.827956989 L536.559139785,352.150537634 L536.559139785,342.47311828 L508.602150538,341.397849462 L509.677419355,311.290322581 L491.397849462,311.290322581 L491.397849462,301.612903226 L487.096774194,301.612903226 L487.096774194,281.182795699 Z" fill="#cee3f5" id="US.WI.083" stroke="#6e6e6e" stroke-width="0.4"><desc><name>Oconto County</name><stateAbbrev>WI</stateAbbrev><state>Wisconsin</state><fips>083</fips><incits>55083</incits><id>US.WI.083</id><population>37318</population></desc></path></svg>