<?xml version='1.0' encoding='utf-8'?>
<svg height="700" width="700" xmlns="http://www.w3.org/2000/svg"><path d="M553.668156718,187.501095626 L547.655359804,182.163204488 L541.581207818,181.181523359 L537.040932597,187.86922605 L533.911823999,177.745639407 L528.757998072,175.230081515 L517.100534666,174.861951091 L508.878955211,169.830835305 L503.234288719,165.842755719 L499.614339556,159.216408099 L497.957752651,147.006749058 L496.66929617,125.041633798 L490.595144184,125.471119292 L490.10430362,85.2835480761 L489.490752914,39.451310369 L491.392760102,39.2672451573 L504.584100272,36.6289771233 L506.54746253,35.7086510649 L507.774563941,34.2361293715 L509.431150846,34.7883250066 L513.603295644,34.174774301 L518.757121571,31.5978613375 L519.861512841,29.3890787974 L520.597773687,28.5301078096 L521.456744675,28.1619773863 L524.892628627,28.1006223157 L526.978701026,27.364361469 L532.99149794,28.1006223157 L535.322990621,27.7324918924 L536.795512315,26.5053904812 L537.163642738,26.5053904812 L539.863265843,25.0328687878 L540.906302042,25.4009992111 L546.428258392,25.27828907 L549.373301779,23.621702165 L550.845823473,22.3946007538 L552.686475589,22.3946007538 L554.036287142,21.5969848365 L556.245069682,20.9834341309 L561.398895609,16.811289333 L563.669033219,16.3204487685 L564.650714348,15.6455429924 L568.332018582,11.4120431238 L569.129634499,6.93312297309 L570.663511263,4.4175650802 L571.39977211,3.74265930406 L573.976685073,2.69962310457 L574.651590849,1.96336225787 L575.694627049,2.27013761066 L581.216583399,0.184065211675 L582.505039881,0.0 L586.002278903,2.27013761066 L591.2174599,2.69962310457 L594.285213428,5.09247085634 L595.266894557,5.39924620913 L599.254974143,5.27653606802 L601.954597248,6.44228240862 L605.267771058,6.74905776142 L607.599263739,7.42396353756 L606.372162328,11.2279779122 L605.574546411,12.8232097467 L605.942676834,15.2160574985 L605.574546411,16.7499342624 L599.316329214,24.4193180822 L599.684459637,26.1986151284 L599.561749496,27.364361469 L597.475677097,32.8249627487 L597.168901744,38.346919099 L597.905162591,40.6784117802 L600.175300202,42.0282233325 L602.384082742,42.089578403 L603.181698659,43.1326146025 L601.954597248,44.2370058726 L599.99123499,48.2864405294 L599.561749496,50.6179332106 L601.034271189,66.815671838 L602.261372601,70.8037514243 L601.954597248,71.3559470593 L599.623104567,71.9694977649 L599.316329214,72.8898238233 L599.684459637,75.159961434 L598.94819879,76.816548339 L596.064510474,77.6141642563 L595.205539486,78.4117801735 L594.837409063,79.3934613025 L595.266894557,80.1297221492 L596.248575686,80.2524322903 L603.917959506,78.5958453852 L605.45183627,78.7799105969 L605.390481199,77.798229468 L604.224734858,76.9392584801 L603.979314576,74.73047594 L603.120343588,72.6444035411 L605.390481199,74.4850556578 L609.071785433,76.7551932685 L610.789727408,77.0619686213 L612.384959243,76.5097729862 L614.28696643,76.6938381979 L614.716451924,77.798229468 L615.452712771,78.2890700324 L614.471031642,80.9273380664 L613.243930231,81.7249539837 L613.427995442,82.3998597598 L610.605662197,81.9090191954 L609.623981068,82.2157945482 L608.212814445,81.9703742659 L607.353843457,79.8229467964 L606.55622754,79.5775265142 L598.88684372,80.6819177842 L595.205539486,82.0317293365 L590.726619336,84.9154176527 L589.867648348,86.5720045578 L589.499517924,89.7011131563 L590.11306863,92.6461565431 L588.701902007,96.5115259883 L589.00867736,98.8430186695 L589.744938207,101.11315628 L589.192742572,102.401612762 L588.579191866,105.960206854 L588.763257078,106.57375756 L587.90428609,108.598474888 L587.474800596,111.114032781 L586.493119467,113.568235603 L586.738539749,114.979402226 L586.124989044,119.642387589 L585.204662985,120.992199141 L585.634148479,125.22569901 L586.922604961,128.53887282 L586.983960032,130.563590148 L583.54807608,136.637742133 L579.559996494,138.969234815 L577.473924095,142.282408625 L577.167148742,143.018669471 L577.657989307,147.436234552 L576.92172846,149.338241739 L575.449206767,151.178893856 L569.927250416,155.657814006 L567.166272241,158.970987817 L566.307301253,160.566219651 L564.773424489,166.885791919 L563.975808572,168.665088965 L561.644315891,171.671487422 L561.276185468,172.714523622 L561.337540538,176.763958279 L560.539924621,178.665965466 L559.865018845,179.586291524 L558.147076869,180.322552371 L556.858620387,183.144885617 L553.668156718,187.501095626 Z" fill="#cee3f5" id="SO.BR" stroke="#6e6e6e" stroke-width="0.4"><desc><labelrank>5</labelrank><code_hasc>SO.BR</code_hasc><name>Bari</name><admin>Somalia</admin><type_en>Region</type_en><region /><woe_id>2347008</woe_id><longitude>50</longitude><woe_name>Bari</woe_name><fips>SO03</fips><woe_label>Bari, SO, Somalia</woe_label><latitude>9</latitude><iso_a2>SO</iso_a2><postal>BR</postal><type>Gobolka</type><id>SO.BR</id></desc></path><path d="M270.759926374,363.160662635 L274.993426242,388.99114734 L278.552020335,406.293277237 L281.128933298,416.969059514 L279.595056534,425.129283899 L280.085897099,447.033044088 L273.950390043,448.014725217 L271.373477079,447.033044088 L261.127180296,447.523884652 L254.500832676,443.474449996 L256.03470944,440.897537032 L256.03470944,431.755631519 L249.40836182,417.459900079 L237.628188272,413.901305987 L234.06959418,413.901305987 L229.467963888,415.926023315 L227.381891489,417.459900079 L223.823297397,424.086247699 L218.66947147,429.66955912 L210.018406521,431.694276448 L195.170479446,426.540450522 L196.213515646,417.398545008 L194.188798317,413.287755281 L182.46997984,392.979226926 L184.003856604,391.322640021 L184.740117451,389.666053116 L185.66044351,386.107459024 L186.703479709,383.898676483 L195.231834517,376.781488299 L216.153913577,366.903321939 L232.351652204,363.283372776 L238.671224472,361.258655447 L270.759926374,363.160662635 Z" fill="#cee3f5" id="SO.BK" stroke="#6e6e6e" stroke-width="0.4"><desc><labelrank>5</labelrank><code_hasc>SO.BK</code_hasc><name>Bakool</name><admin>Somalia</admin><type_en>Region</type_en><region /><woe_id>2347006</woe_id><longitude>43</longitude><woe_name>Bakool</woe_name><fips>SO01</fips><woe_label /><latitude>4</latitude><iso_a2>SO</iso_a2><postal>BK</postal><type>Gobolka</type><id>SO.BK</id></desc></path><path d="M273.950390043,448.014725217 L275.484266807,458.19966693 L272.907353843,470.409325971 L273.950390043,473.477079499 L271.864317644,487.220615304 L273.398194408,500.473310544 L233.946884039,517.775440442 L218.608116399,523.849592427 L187.807870979,539.127004996 L183.697081252,536.059251468 L164.247523885,517.714085371 L158.112016829,514.094136208 L168.481023753,457.09527566 L185.353668157,458.629152424 L194.066088176,457.647471295 L194.066088176,448.996406346 L195.170479446,426.540450522 L210.018406521,431.694276448 L218.66947147,429.66955912 L223.823297397,424.086247699 L227.381891489,417.459900079 L229.467963888,415.926023315 L234.06959418,413.901305987 L237.628188272,413.901305987 L249.40836182,417.459900079 L256.03470944,431.755631519 L256.03470944,440.897537032 L254.500832676,443.474449996 L261.127180296,447.523884652 L271.373477079,447.033044088 L273.950390043,448.014725217 Z" fill="#cee3f5" id="SO.BY" stroke="#6e6e6e" stroke-width="0.4"><desc><labelrank>5</labelrank><code_hasc>SO.BY</code_hasc><name>Bay</name><admin>Somalia</admin><type_en>Region</type_en><region /><woe_id>2347009</woe_id><longitude>43</longitude><woe_name>Bay</woe_name><fips>SO04</fips><woe_label>Bay, SO, Somalia</woe_label><latitude>2</latitude><iso_a2>SO</iso_a2><postal>BY</postal><type>Gobolka</type><id>SO.BY</id></desc></path><path d="M195.170479446,426.540450522 L194.066088176,448.996406346 L194.066088176,457.647471295 L185.353668157,458.629152424 L168.481023753,457.09527566 L158.112016829,514.094136208 L119.151547024,514.584976773 L107.800858971,549.250591638 L84.6086422999,550.723113332 L84.6699973705,506.117977036 L84.6086422999,469.857130336 L85.4062582172,468.445963713 L104.058199667,450.162152686 L132.711017618,409.729161189 L133.385923394,409.176965554 L133.999474099,405.986501884 L134.919800158,405.188885967 L138.539749321,402.980103427 L141.423437637,400.709965816 L143.202734683,399.789639758 L144.859321588,399.421509335 L153.142256114,399.360154264 L178.359190113,395.126654396 L180.506617583,394.329038478 L182.46997984,392.979226926 L194.188798317,413.287755281 L196.213515646,417.398545008 L195.170479446,426.540450522 Z" fill="#cee3f5" id="SO.GE" stroke="#6e6e6e" stroke-width="0.4"><desc><labelrank>5</labelrank><code_hasc>SO.GE</code_hasc><name>Gedo</name><admin>Somalia</admin><type_en>Region</type_en><region /><woe_id>2347011</woe_id><longitude>42</longitude><woe_name>Gedo</woe_name><fips>SO06</fips><woe_label>Gedo, SO, Somalia</woe_label><latitude>3</latitude><iso_a2>SO</iso_a2><postal>GE</postal><type>Gobolka</type><id>SO.GE</id></desc></path><path d="M187.807870979,539.127004996 L202.655798054,561.030765185 L215.540362871,579.253221141 L212.779384696,581.891489175 L203.453413971,592.383206241 L198.299588045,597.352966956 L174.984661232,597.721097379 L169.830835305,576.799018319 L159.584538522,546.244193181 L147.804364975,546.735033745 L107.800858971,549.250591638 L119.151547024,514.584976773 L158.112016829,514.094136208 L164.247523885,517.714085371 L183.697081252,536.059251468 L187.807870979,539.127004996 Z" fill="#cee3f5" id="SO.JD" stroke="#6e6e6e" stroke-width="0.4"><desc><labelrank>5</labelrank><code_hasc>SO.JD</code_hasc><name>Jubbada Dhexe</name><admin>Somalia</admin><type_en>Region</type_en><region /><woe_id>2347013</woe_id><longitude>42</longitude><woe_name>Jubbada Dhexe</woe_name><fips>SO08</fips><woe_label>Jubbada Dhexe, SO, Somalia</woe_label><latitude>1</latitude><iso_a2>SO</iso_a2><postal>JD</postal><type>Gobolka</type><id>SO.JD</id></desc></path><path d="M294.933824174,448.014725217 L297.449382067,458.751862565 L308.73871505,475.010956263 L308.247874485,502.498027873 L311.315628013,504.031904637 L304.996055745,512.314839162 L291.436585152,518.450346218 L274.74800596,530.107809624 L268.305723552,534.09588921 L257.13910071,542.746954159 L251.433079148,548.514330791 L248.181260408,550.293627838 L247.383644491,551.275308967 L247.138224209,552.809185731 L245.972477868,553.300026295 L241.80033307,557.594881234 L238.977999825,559.067402928 L236.646507143,562.073801385 L230.879130511,565.141554913 L228.915768253,566.552721536 L226.461565431,569.927250416 L224.866333596,570.663511263 L222.596195986,572.50416338 L215.540362871,579.253221141 L202.655798054,561.030765185 L187.807870979,539.127004996 L218.608116399,523.849592427 L233.946884039,517.775440442 L273.398194408,500.473310544 L271.864317644,487.220615304 L273.950390043,473.477079499 L272.907353843,470.409325971 L275.484266807,458.19966693 L273.950390043,448.014725217 L280.085897099,447.033044088 L294.933824174,448.014725217 Z" fill="#cee3f5" id="SO.SH" stroke="#6e6e6e" stroke-width="0.4"><desc><labelrank>5</labelrank><code_hasc>SO.SH</code_hasc><name>Shabeellaha Hoose</name><admin>Somalia</admin><type_en>Region</type_en><region /><woe_id>2347019</woe_id><longitude>44</longitude><woe_name>Shabeellaha Hoose</woe_name><fips>SO02</fips><woe_label>Shabeellaha Hoose, SO, Somalia</woe_label><latitude>1</latitude><iso_a2>SO</iso_a2><postal>SH</postal><type>Gobolka</type><id>SO.SH</id></desc></path><path d="M304.996055745,512.314839162 L311.315628013,504.031904637 L314.874222105,502.988868437 L322.359540713,502.375317732 L304.996055745,512.314839162 Z" fill="#cee3f5" id="SO.BN" stroke="#6e6e6e" stroke-width="0.4"><desc><labelrank>5</labelrank><code_hasc>SO.BN</code_hasc><name>Banaadir</name><admin>Somalia</admin><type_en>Region</type_en><region /><woe_id>2347007</woe_id><longitude>45</longitude><woe_name>Banaadir</woe_name><fips>SO02</fips><woe_label>Banaadir, SO, Somalia</woe_label><latitude>2</latitude><iso_a2>SO</iso_a2><postal>BN</postal><type>Gobolka</type><id>SO.BN</id></desc></path><path d="M395.678850031,436.786747305 L362.424401788,415.37382768 L362.915242353,398.071697782 L350.092032606,387.94811114 L348.005960207,372.118502936 L353.098431063,361.933561224 L354.141467263,354.816373039 L344.447366114,357.393286002 L327.574721711,353.343851345 L325.550004383,349.233061618 L317.757910422,331.440091156 L339.048119905,308.186519414 L366.044350951,280.515382593 L404.575335262,289.166447541 L423.840827417,293.46130248 L411.201682882,320.518888597 L417.398545008,329.66079411 L424.577088264,348.987641336 L419.116486984,384.696292401 L436.29590674,392.120255938 L436.541327023,392.181611009 L423.165921641,406.60005259 L418.625646419,412.919624858 L395.678850031,436.786747305 Z" fill="#cee3f5" id="SO.GA" stroke="#6e6e6e" stroke-width="0.4"><desc><labelrank>5</labelrank><code_hasc>SO.GA</code_hasc><name>Galguduud</name><admin>Somalia</admin><type_en>Region</type_en><region /><woe_id>2347010</woe_id><longitude>46</longitude><woe_name>Galguduud</woe_name><fips>SO05</fips><woe_label>Galguduud, SO, Somalia</woe_label><latitude>5</latitude><iso_a2>SO</iso_a2><postal>GA</postal><type>Gobolka</type><id>SO.GA</id></desc></path><path d="M362.424401788,415.37382768 L344.017880621,434.271189412 L339.416250329,448.014725217 L305.118765887,450.59163818 L298.983258831,450.100797616 L294.933824174,448.014725217 L280.085897099,447.033044088 L279.595056534,425.129283899 L281.128933298,416.969059514 L278.552020335,406.293277237 L274.993426242,388.99114734 L270.759926374,363.160662635 L286.896309931,364.080988693 L288.368831624,363.467437988 L317.757910422,331.440091156 L325.550004383,349.233061618 L327.574721711,353.343851345 L344.447366114,357.393286002 L354.141467263,354.816373039 L353.098431063,361.933561224 L348.005960207,372.118502936 L350.092032606,387.94811114 L362.915242353,398.071697782 L362.424401788,415.37382768 Z" fill="#cee3f5" id="SO.HI" stroke="#6e6e6e" stroke-width="0.4"><desc><labelrank>5</labelrank><code_hasc>SO.HI</code_hasc><name>Hiiraan</name><admin>Somalia</admin><type_en>Region</type_en><region /><woe_id>2347012</woe_id><longitude>45</longitude><woe_name>Hiiraan</woe_name><fips>SO07</fips><woe_label>Hiiraan, SO, Somalia</woe_label><latitude>4</latitude><iso_a2>SO</iso_a2><postal>HI</postal><type>Gobolka</type><id>SO.HI</id></desc></path><path d="M395.678850031,436.786747305 L385.187132965,448.873696205 L378.376720133,454.94784819 L374.572705759,459.488123411 L367.516872644,465.378210185 L363.71285827,469.18222456 L360.522394601,471.513717241 L359.908843895,472.863528793 L358.804452625,473.354369358 L357.331930932,476.176702603 L354.632307827,477.649224297 L349.846612324,482.680340082 L347.944605136,485.68673854 L345.735822596,487.036550092 L344.999561749,488.509071785 L333.648873696,495.933035323 L322.359540713,502.375317732 L314.874222105,502.988868437 L311.315628013,504.031904637 L308.247874485,502.498027873 L308.73871505,475.010956263 L297.449382067,458.751862565 L294.933824174,448.014725217 L298.983258831,450.100797616 L305.118765887,450.59163818 L339.416250329,448.014725217 L344.017880621,434.271189412 L362.424401788,415.37382768 L395.678850031,436.786747305 Z" fill="#cee3f5" id="SO.SD" stroke="#6e6e6e" stroke-width="0.4"><desc><labelrank>5</labelrank><code_hasc>SO.SD</code_hasc><name>Shabeellaha Dhexe</name><admin>Somalia</admin><type_en>Region</type_en><region /><woe_id>2347018</woe_id><longitude>46</longitude><woe_name>Shabeellaha Dhexe</woe_name><fips>SO13</fips><woe_label>Shabeellaha Dhexe, SO, Somalia</woe_label><latitude>3</latitude><iso_a2>SO</iso_a2><postal>SD</postal><type>Gobolka</type><id>SO.SD</id></desc></path><path d="M520.168288194,226.891050925 L527.46954159,235.051275309 L524.769918485,239.898325883 L521.395389605,243.763695328 L513.664650714,254.746252958 L509.983346481,262.170216496 L507.6518538,265.790165659 L505.197650977,272.845998773 L499.062143921,286.037338943 L499.000788851,288.307476554 L499.614339556,291.559295293 L498.93943378,296.038215444 L497.160136734,299.903584889 L487.772810939,316.285388728 L479.980716978,328.433692699 L477.526514155,333.955649049 L476.176702603,335.796301166 L472.49539837,339.354895258 L467.402927513,347.821894995 L461.390130599,354.448242615 L454.94784819,363.222017705 L447.523884652,378.315365063 L442.063283373,386.291524235 L436.541327023,392.181611009 L436.29590674,392.120255938 L419.116486984,384.696292401 L424.577088264,348.987641336 L417.398545008,329.66079411 L411.201682882,320.518888597 L423.840827417,293.46130248 L366.044350951,280.515382593 L393.470067491,253.88728197 L408.195284425,239.468840389 L413.16504514,234.683144886 L415.619247962,232.290297134 L418.073450784,229.897449382 L420.036813042,227.934087124 L469.304934701,235.542115873 L496.178455605,220.019283022 L504.338679989,220.448768516 L517.161889736,226.461565431 L520.168288194,226.891050925 Z" fill="#cee3f5" id="SO.MU" stroke="#6e6e6e" stroke-width="0.4"><desc><labelrank>5</labelrank><code_hasc>SO.MU</code_hasc><name>Mudug</name><admin>Somalia</admin><type_en>Region</type_en><region /><woe_id>2347015</woe_id><longitude>48</longitude><woe_name>Mudug</woe_name><fips>SO10</fips><woe_label /><latitude>5</latitude><iso_a2>SO</iso_a2><postal>MU</postal><type>Gobolka</type><id>SO.MU</id></desc></path><path d="M553.668156718,187.501095626 L552.441055307,189.832588307 L551.029888684,194.372863529 L549.986852485,196.397580857 L548.33026558,197.992812692 L541.76527303,202.042247349 L537.40906302,206.64387764 L536.488736962,208.116399334 L535.936541327,210.018406521 L535.507055833,213.638355684 L535.752476115,214.25190639 L536.550092033,214.742746954 L536.795512315,215.847138224 L536.366026821,218.055920764 L533.420983434,221.798580068 L532.99149794,222.657551056 L532.623367517,225.786659655 L527.46954159,235.051275309 L520.168288194,226.891050925 L517.161889736,226.461565431 L504.338679989,220.448768516 L496.178455605,220.019283022 L469.304934701,235.542115873 L421.325269524,228.240862477 L420.036813042,227.934087124 L442.615479008,205.846261723 L466.666666667,168.542378824 L490.656499255,131.177140854 L490.595144184,125.471119292 L496.66929617,125.041633798 L497.957752651,147.006749058 L499.614339556,159.216408099 L503.234288719,165.842755719 L508.878955211,169.830835305 L517.100534666,174.861951091 L528.757998072,175.230081515 L533.911823999,177.745639407 L537.040932597,187.86922605 L541.581207818,181.181523359 L547.655359804,182.163204488 L553.668156718,187.501095626 Z" fill="#cee3f5" id="SO.NU" stroke="#6e6e6e" stroke-width="0.4"><desc><labelrank>5</labelrank><code_hasc>SO.NU</code_hasc><name>Nugaal</name><admin>Somalia</admin><type_en>Region</type_en><region /><woe_id>2347016</woe_id><longitude>48</longitude><woe_name>Nugaal</woe_name><fips>SO18</fips><woe_label>Nugaal, SO, Somalia</woe_label><latitude>8</latitude><iso_a2>SO</iso_a2><postal>NU</postal><type>Gobolka</type><id>SO.NU</id></desc></path><path d="M198.299588045,597.352966956 L193.45253747,602.138662459 L177.009378561,620.054343062 L170.751161364,625.146813919 L167.315277413,628.644052941 L166.026820931,630.423349987 L165.781400649,631.711806469 L164.186168814,632.325357174 L162.161451486,635.024980279 L161.854676133,635.822596196 L162.468226838,636.374791831 L161.977386274,637.233762819 L161.793321062,637.417828031 L161.425190639,636.374791831 L158.664212464,638.522219301 L157.927951617,639.872030853 L155.473748795,642.326233675 L150.381277938,648.461740731 L150.135857656,649.566132001 L149.46095188,649.811552283 L147.374879481,653.063371023 L146.086422999,654.413182575 L144.491191165,655.394863704 L141.178017355,655.701639057 L140.748531861,656.253834692 L141.73021299,656.499254974 L141.239372425,658.585327373 L139.460075379,660.364624419 L138.355684109,662.818827242 L136.085546498,664.475414147 L135.656061004,661.959856254 L135.717416075,659.935138925 L135.410640722,659.076167938 L135.103865369,659.076167938 L135.226575511,659.873783855 L134.797090017,662.143921466 L135.226575511,664.107283723 L136.146901569,665.027609782 L136.085546498,665.702515558 L135.16522044,667.972653169 L133.692698747,669.445174862 L133.324568323,670.610921203 L131.054430713,673.433254448 L131.054430713,674.414935577 L132.281532124,673.801384872 L131.667981418,675.151196424 L130.502235078,675.273906565 L129.459198878,674.537645718 L129.091068455,673.065124025 L128.784293102,673.065124025 L129.459198878,675.948812341 L129.152423525,677.850819528 L123.814532387,686.440529407 L121.667104917,689.446927864 L119.703742659,693.312297309 L117.61767026,694.723463932 L115.777018144,697.79121746 L113.752300815,700.0 L113.875010956,695.766500131 L113.077395039,693.680427732 L85.160837935,657.910421597 L84.5472872294,613.612060654 L84.6086422999,550.723113332 L107.800858971,549.250591638 L147.804364975,546.735033745 L159.584538522,546.244193181 L169.830835305,576.799018319 L174.984661232,597.721097379 L198.299588045,597.352966956 Z" fill="#cee3f5" id="SO.JH" stroke="#6e6e6e" stroke-width="0.4"><desc><labelrank>5</labelrank><code_hasc>SO.JH</code_hasc><name>Jubbada Hoose</name><admin>Somalia</admin><type_en>Region</type_en><region /><woe_id>2347014</woe_id><longitude>41</longitude><woe_name>Jubbada Hoose</woe_name><fips>SO09</fips><woe_label>Jubbada Hoose, SO, Somalia</woe_label><latitude>0</latitude><iso_a2>SO</iso_a2><postal>JH</postal><type>Gobolka</type><id>SO.JH</id></desc></path></svg>