<?xml version="1.0"?>
<svg xmlns="http://www.w3.org/2000/svg" version="1.2" baseProfile="tiny" width="800" height="585" viewBox="0 0 800 585" stroke-linecap="round" stroke-linejoin="round">
<g id="netherlands">
<path d="M 241.2307 254.2891 253.7665 231.7145 255.5718 225.8431 255.5718 224.3162 259.6379 219.0016 268.4281 178.7621 272.1062 168.4956 272.6798 165.3659 274.6707 158.8786 283.4272 145.0859 285.435 138.2781 285.6543 134.4313 286.481 129.4962 288.0332 125.2277 290.4291 123.4224 303.1842 124.6203 305.2426 123.4224 306.7948 124.9661 303.6904 131.3015 308.5326 135.0893 317.036 136.6162 325.1851 136.2787 329.8924 134.659 338.6995 130.0361 343.0018 129.0744 351.2691 128.4164 359.4013 126.24 380.4728 114.8397 380.5439 115.049 380.9617 115.6918 381.7652 117.7167 382.0602 118.46 382.0754 118.4983 397.1448 144.6186 419.9781 160.1717 419.9541 160.3839 417.6061 181.1806 407.2078 179.168 400.8346 181.8515 397.4803 189.5664 362.9308 203.3191 367.9623 217.0717 378.0252 226.1284 383.3921 235.185 376.3481 235.185 364.608 241.8936 364.9434 248.6023 376.3481 255.9818 382.7213 256.988 390.4362 256.6526 394.7968 256.6526 401.8409 257.9943 419.4136 265.2887 419.1065 265.3228 412.0729 266.1033 400.4633 266.1126 398.8241 266.4983 397.8921 266.8304 394.1316 270.7087 389.9104 277.1369 389.2033 279.5689 388.0462 281.1117 386.5999 283.2865 385.0892 285.1722 381.0073 286.9078 369.4902 286.5221 361.6645 287.418 357.9786 288.4711 352.5374 289.1732 351.4843 284.7852 350.2557 281.6258 351.8234 277.4155 355.2625 274.8121 354.2661 273.5371 353.7197 273.0764 353.3019 272.68 352.8198 272.3051 352.1127 271.9087 351.5341 271.7158 351.0841 271.4158 350.7627 270.9659 350.5377 270.1945 350.2163 269.5624 349.5092 268.641 350.5056 267.6661 356.8374 266.134 348.4486 265.6519 345.0952 266.5626 344.131 265.6519 343.1346 265.1591 341.8811 264.8484 340.3705 264.8377 335.2279 266.584 331.2639 267.0125 329.3354 266.9161 328.3712 267.2697 327.6963 267.6339 324.8036 271.0301 316.5648 271.7372 312.0329 273.1086 308.9045 275.1013 304.7262 276.4191 295.0732 278.1654 288.5165 280.8438 286.3202 280.1796 285.6131 279.1939 284.7131 276.1405 284.1989 275.8299 283.1382 275.3906 274.6744 277.0726 270.2711 278.369 261.4217 279.826 256.3112 279.901 254.897 279.7403 253.9007 279.4404 251.8651 278.2297 249.5188 278.3368 249.2295 276.8048 251.8329 274.0835 252.84 271.2873 253.0329 269.3481 253.29 268.4482 253.5793 267.9446 262.2895 259.0416 257.629 258.3559 253.3221 259.738 249.6152 259.2344 248.426 258.9452 239.3408 256.4274 241.2307 254.2891 Z M 320.9334 93.6857 320.9334 94.9764 325.1851 94.9764 323.7341 97.6927 321.0346 100.9237 315.2645 106.2974 305.4956 111.1565 300.839 116.6399 293.854 117.88 286.5654 116.0662 282.6005 110.8022 283.8828 105.3779 287.9826 99.245 293.1286 94.2171 302.9142 89.1303 307.8071 82.913 313.0036 77.7839 319.5162 77.9948 320.3598 79.2096 320.8322 80.2725 320.6803 81.2595 319.5162 82.2465 322.4519 85.1232 324.5777 88.8013 324.5271 92.066 320.9334 93.6857 Z"/>
<path d="M 158.8764 397.2134 158.6597 396.4094 158.6091 394.0389 159.2333 392.2758 161.9328 390.4452 165.5097 389.5088 172.5621 389.1545 170.3688 387.7372 165.1385 385.4089 150.713 382.6588 147.7267 379.9424 146.4107 373.0587 142.9182 368.7564 137.9073 365.9219 132.0358 363.4164 128.1216 365.2386 122.8575 366.2509 117.5092 366.2425 113.4599 366.9511 112.7007 367.7947 111.2328 367.9634 109.2588 367.9212 107.3354 362.1595 113.3587 359.6287 126.3669 357.1654 128.1384 355.6722 132.1877 355.4782 139.122 356.4568 144.8922 358.397 145.7527 358.5067 147.288 358.397 149.4476 357.7981 151.9784 356.4568 150.4093 354.5587 145.1284 350.0455 143.7281 349.3368 142.5302 348.4848 142.0577 347.1941 142.5133 345.5744 143.475 344.4356 144.4367 343.6173 144.8922 342.9593 144.2173 339.7705 140.2693 331.6298 137.9579 328.1458 139.122 326.5767 140.5393 325.1932 150.19 326.5261 158.2041 325.7078 165.2903 322.8649 194.9005 300.6108 220.242 277.6988 241.2307 254.2891 239.3408 256.4274 248.426 258.9452 249.6152 259.2344 253.3221 259.738 257.629 258.3559 262.2895 259.0416 253.5793 267.9446 253.29 268.4482 253.0329 269.3481 252.84 271.2873 251.8329 274.0835 249.2295 276.8048 249.5188 278.3368 251.8651 278.2297 253.9007 279.4404 254.897 279.7403 256.3112 279.901 261.4217 279.826 270.2711 278.369 274.6744 277.0726 283.1382 275.3906 284.1989 275.8299 284.7131 276.1405 285.6131 279.1939 286.3202 280.1796 288.5165 280.8438 295.0732 278.1654 297.773 281.0795 298.8016 281.9795 300.0658 282.7509 304.6298 283.8651 314.7327 289.2005 312.8686 290.1433 313.7042 292.436 315.022 294.718 315.3434 295.4144 315.3113 295.9179 314.8613 296.2715 313.9935 296.4215 310.5759 295.4144 309.5473 295.2644 308.8402 295.0608 308.1653 294.7501 307.0404 294.9001 306.044 295.1037 301.0943 298.3392 299.8408 299.207 302.7013 300.7498 305.8488 301.4597 308.4816 309.1826 317.8504 309.2243 316.3582 310.6307 308.1964 313.1319 301.6144 319.319 302.5359 320.6354 312.014 319.8455 312.9355 322.3467 310.3187 323.3556 308.8081 323.7948 307.4582 324.0627 306.7832 324.6841 308.6474 326.6554 315.2791 331.8944 319.8432 336.2227 321.2252 334.9049 325.9285 335.0763 328.0177 334.5406 333.8352 330.8337 340.4883 328.4553 340.9169 328.1339 349.5092 329.3445 351.5984 328.7767 354.6089 326.3983 356.4517 325.5197 361.1871 324.7162 363.0191 323.8377 364.9476 323.2377 367.8081 323.6234 370.3366 324.8448 373.1971 327.9196 375.147 329.4195 379.0575 330.7051 381.0502 330.898 375.8862 337.4547 374.922 338.4618 367.6474 346.5185 368.001 347.6756 368.3867 348.6076 368.3867 349.2397 368.1938 349.6897 366.0404 350.5361 350.1199 354.7037 344.131 354.9287 345.4488 356.1822 345.4166 356.5893 344.8702 358.2606 345.1274 360.2641 340.2098 360.5534 329.6783 359.2356 324.3322 359.2891 316.3184 363.8103 311.1651 364.8281 299.7444 364.9352 293.809 367.7636 289.2878 370.7956 286.3202 374.4275 275.9373 382.2061 269.3885 382.26 264.59 383.1597 256.0428 385.7089 248.8451 387.0585 240.8976 387.2084 219.4546 384.5093 213.1566 391.707 205.0592 395.1559 193.9628 396.9553 185.4155 397.4051 176.8854 399.099 176.7135 399.1331 172.0426 397.9858 167.6133 395.9921 162.9683 394.867 159.473 396.7304 158.9135 397.1833 158.8764 397.2134 Z"/>
<path d="M 539.3401 376.6261 538.1121 377.3843 537.9406 379.6128 539.9977 380.1324 546.0187 380.0467 548.3972 380.7538 553.0254 382.934 555.0825 384.2518 552.2969 390.1228 557.0538 393.894 571.0887 397.7349 568.6674 402.3739 567.5531 405.3362 568.4531 407.8807 582.2523 419.7193 590.6089 425.7511 592.0874 432.5435 593.0945 436.304 592.3445 440.4073 590.7589 444.816 590.4803 448.6354 593.6087 450.9763 592.4088 452.7977 591.766 457.3402 590.6518 459.9222 588.5947 461.7489 583.3236 464.0523 581.1595 465.3862 570.5315 477.6908 566.1604 481.0388 564.0391 483.3262 562.2606 487.4563 561.6606 492.0846 563.1391 495.9147 568.0031 497.6182 578.3311 493.156 583.0879 494.1845 581.438 494.7898 576.7026 497.2271 581.0523 499.7823 577.9668 502.359 566.1604 506.3927 546.983 515.8635 544.1974 517.8884 540.2119 523.1649 537.6621 524.9326 533.848 525.1897 531.0839 523.5934 528.6198 521.5739 525.7485 520.5561 519.9417 522.4846 521.1202 527.3378 524.3129 533.3 524.5272 538.5282 527.3556 538.164 532.7338 536.4819 535.5408 535.9784 538.412 536.2248 543.8546 537.3604 551.2898 536.7926 551.7184 537.8747 550.4542 539.621 549.6614 541.3459 549.9613 544.335 550.497 545.9849 552.0826 547.0884 556.9681 549.0276 563.7391 550.5168 563.332 551.3525 562.2392 552.4774 561.8535 553.8487 563.6105 558.1128 563.5462 559.7627 562.282 561.8947 559.9679 563.6517 555.2967 563.3946 552.4469 564.4231 550.6256 566.5016 550.8184 568.2907 551.2684 570.1978 550.1756 572.6619 547.1972 574.4297 544.0474 573.9261 544.9259 576.5831 546.5116 578.3187 548.5686 579.2294 549.9185 580.4936 549.4685 583.1934 545.2902 583.6862 530.2482 583.3755 527.9853 582.9198 525.6199 582.4435 507.6425 582.7327 505.5212 581.7899 501.2785 578.8223 499.2001 578.3187 497.3574 579.2187 495.1226 581.3431 494.1004 582.3149 491.9363 582.5935 489.6864 582.3042 485.9152 580.9328 488.0579 576.176 488.4222 573.7333 485.1867 573.1226 480.7084 571.762 479.5021 571.228 476.0372 569.6942 472.6731 566.5337 472.2231 561.8947 487.1794 551.3203 489.5792 550.7096 491.9791 550.1633 492.9648 549.6597 495.6432 547.1099 499.2215 542.2887 501.6 539.7603 499.5858 538.9996 497.5931 538.9675 492.9648 539.7603 501.1286 531.5215 504.4069 526.4647 501.6 524.0541 502.0928 521.3061 503.1427 519.2972 504.8355 518.6384 507.2568 519.9454 508.821 518.6009 509.9566 517.1277 511.4994 514.2833 510.9208 513.4476 510.5994 512.8155 510.0852 511.3156 512.3565 511.4709 514.5849 511.2567 516.6848 510.721 518.5918 509.9121 513.8778 506.7301 514.542 504.3624 517.4562 502.5465 516.9419 501.5501 515.0991 498.9092 511.5636 498.7324 505.1997 499.7502 502.4356 498.2878 498.1073 494.5273 494.7218 493.2524 492.0648 493.0756 483.3868 494.2005 479.8298 494.222 477.58 493.2095 475.5872 491.7685 472.7803 490.5258 461.0381 488.2973 457.5206 486.4073 457.567 486.3958 461.0383 485.5387 465.9987 484.5959 467.7986 484.7031 469.3413 484.2745 470.7877 483.2567 471.9448 481.7889 473.8196 474.8144 477.4837 470.7432 478.8979 469.329 483.3012 465.7613 503.475 461.9044 518.2063 458.9689 524.613 457.9404 529.402 455.4441 536.9337 451.555 531.8876 444.8269 524.8059 438.7094 520.1026 426.8387 516.8885 413.7894 524.3238 414.2501 532.2411 415.9215 534.6839 415.9429 540.2764 415.3644 550.4436 413.1788 552.4685 413.5109 557.5253 415.6858 560.7394 413.9073 560.7823 412.236 559.5502 410.4896 557.0111 404.3186 556.1433 403.4079 555.9183 402.6687 551.8257 398.3939 549.9615 397.2262 547.8724 396.4333 546.8438 395.3727 548.2259 393.3692 544.9904 391.1301 542.2263 383.652 539.0229 382.0449 530.6555 381.5092 527.345 380.2129 525.5773 377.6738 526.2094 375.1775 522.0739 373.9133 522.1703 371.1277 524.0345 370.3349 526.0915 370.0671 527.0879 370.0778 527.6986 370.1956 528.6306 370.9992 532.3376 374.1704 533.0768 374.5989 538.3801 376.8274 539.0443 376.6881 539.3401 376.6261 Z"/>
<path d="M 710.4881 301.4711 709.3054 301.5531 705.9841 302.6995 702.4701 304.9547 701.3773 306.1332 699.6845 308.7741 698.0132 310.0758 695.5276 310.8472 693.342 310.9437 691.4779 311.4901 690.0422 313.6488 690.4708 316.8094 693.7706 318.2504 698.3132 319.0807 711.8552 323.7625 717.212 327.2659 718.2834 328.2676 718.7977 329.6657 718.6048 332.1995 717.5549 332.8316 715.9693 333.003 714.2765 334.1548 709.5411 339.4687 704.7199 343.031 699.106 344.9113 680.7535 345.2755 660.119 349.6467 649.9196 354.5 646.4913 355.4642 642.2701 355.4642 628.9852 353.0268 630.6779 357.7034 629.8208 359.7711 622.0427 361.1156 621.4214 357.8855 618.0573 356.6695 610.1077 355.9195 609.1649 355.2071 606.8722 352.6572 605.3937 351.768 603.6796 351.6394 597.2085 352.5233 590.2018 350.7395 583.5379 347.3915 576.8526 345.4362 569.803 347.8039 572.3743 349.0146 580.1095 354.05 582.8951 356.7713 579.5524 356.257 574.667 355.4803 567.9388 354.3661 559.4965 355.7749 556.5181 356.7606 552.2326 358.7372 548.2257 359.7979 539.762 360.73 536.3122 362.2459 535.6051 364.094 540.3191 366.3386 543.0832 370.3508 542.7189 374.5398 539.3401 376.6261 539.0443 376.6881 538.3801 376.8274 533.0768 374.5989 532.3376 374.1704 528.6306 370.9992 527.6986 370.1956 527.0879 370.0778 526.0915 370.0671 524.0345 370.3349 522.1703 371.1277 522.0739 373.9133 500.7537 373.249 486.2796 367.003 482.2727 366.3494 480.3014 365.4495 477.7408 361.4533 476.5516 360.5534 467.2843 359.2677 454.0315 360.5319 451.0103 359.9105 447.0355 358.2285 443.0393 359.2249 438.9789 361.1212 434.7256 362.0961 426.3475 361.7104 422.212 363.0818 420.4443 367.1208 419.3943 370.592 416.7266 373.249 413.0733 375.156 409.12 376.3881 371.1722 379.0022 369.3295 378.6058 371.6436 375.2096 371.6758 371.867 364.0155 368.6422 361.7014 369.1028 356.6767 368.9957 348.9628 365.3209 345.7059 363.1139 345.2881 361.4426 345.1274 360.2641 344.8702 358.2606 345.4166 356.5893 345.4488 356.1822 344.131 354.9287 350.1199 354.7037 366.0404 350.5361 368.1938 349.6897 368.3867 349.2397 368.3867 348.6076 368.001 347.6756 367.6474 346.5185 374.922 338.4618 375.8862 337.4547 381.0502 330.898 384.125 331.1551 389.1069 330.5659 392.8459 328.7767 395.9315 328.3696 407.5772 332.3765 411.8734 331.6908 417.9694 328.7874 422.5656 328.1339 428.0081 329.3552 430.3544 329.4195 432.2828 328.8517 436.3862 327.0304 438.9789 326.5911 447.9141 327.7589 463.8881 333.705 470.852 334.7549 471.5912 333.78 471.6876 330.523 471.3984 329.4516 471.0127 328.6267 470.1449 327.6839 468.7307 325.8197 464.4559 322.9699 461.8418 320.0772 460.0098 313.7883 460.299 308.8279 459.8812 307.6172 459.6883 306.4923 457.9206 302.2926 454.5137 302.7854 455.4136 304.3174 455.285 305.1424 454.9958 305.9566 454.128 306.9637 453.3244 307.5422 452.4888 307.8851 451.6531 307.9279 450.946 308.0886 448.7819 309.1386 446.8855 309.5564 441.1002 307.7779 440.6823 307.4137 440.3609 306.9637 441.9358 306.128 442.9322 305.4102 443.5429 304.7246 444.7642 302.4961 446.3713 300.3962 448.6212 300.5034 448.6854 300.2677 448.6854 299.8713 448.4926 299.1427 448.4605 297.75 449.489 296.5072 449.5211 295.7787 448.9747 295.3073 447.3677 294.193 445.6963 293.5395 444.8607 293.0467 443.0286 291.3646 441.5823 290.6683 437.2968 290.0683 432.3793 289.0719 431.1258 287.6577 431.2865 287.2506 431.6722 286.972 433.0221 286.2971 433.7292 285.44 434.147 283.4044 426.6475 279.6546 425.4904 278.444 425.9725 276.1834 426.7212 272.6392 427.9449 268.6378 427.9804 268.5215 431.5216 269.3084 446.2756 268.1907 453.6525 266.6259 457.6764 262.155 459.9118 257.6841 463.265 252.5426 467.7359 249.86 473.3245 246.9539 478.9131 244.942 486.0666 243.1537 495.2319 240.4711 503.056 238.2357 508.1976 235.5531 512.2214 232.647 516.9158 228.1761 520.4925 224.3759 522.728 219.2343 522.9515 215.8812 522.9392 215.8475 525.85 215.9849 528.02 216.1441 530.5912 218.5333 534.9731 223.6758 536.2909 224.3829 537.9622 224.6508 544.2404 223.483 550.8615 220.0332 556.8825 218.0833 559.3895 218.7368 560.8037 219.2618 562.2179 220.6332 563.7607 222.5616 567.4355 224.9829 568.9782 225.7971 570.296 227.0185 572.128 230.3076 573.7351 232.8467 578.042 236.6822 578.4705 237.2179 578.7598 237.8607 578.4705 240.1748 575.4064 245.1674 568.4961 246.5923 567.8533 246.903 567.4355 247.1923 568.464 248.6172 568.6247 249.5064 566.6962 251.2635 564.8856 255.8168 564.6285 257.3167 565.1749 258.0238 567.3069 259.8987 568.3676 260.6808 572.6102 261.8914 576.3385 267.8589 576.2421 269.5945 575.8885 270.2266 576.2421 270.9016 577.0456 271.2658 579.3705 271.9301 580.399 272.4443 580.7847 273.4514 580.0133 274.7906 579.949 274.9942 579.949 275.2835 580.2383 275.7549 580.8168 276.2798 582.5203 277.2548 583.2274 277.3512 583.6774 277.3083 585.1558 275.9156 587.1164 274.9085 587.7592 274.7478 589.752 274.8013 604.269 276.5798 617.3932 276.4512 619.4502 276.0763 622.5357 274.6406 629.6496 272.8622 635.8207 273.3229 637.0527 274.5978 637.2777 274.8871 647.1128 283.7151 653.1982 287.2935 658.1479 286.9506 666.1296 287.5506 671.9578 286.8006 673.2113 286.8435 674.3683 287.1113 675.0754 288.0863 675.2683 288.9648 675.2683 289.629 676.1682 289.8326 677.0039 289.9183 684.3749 288.8148 686.0141 289.0933 688.039 289.6397 688.7461 289.929 689.2925 290.5183 689.646 291.3539 689.871 293.4217 689.8067 294.5144 687.7497 297.6321 707.9878 300.2891 710.3448 301.4033 710.4881 301.4711 Z"/>
<path d="M 194.1636 454.8572 194.1507 454.7798 193.8936 453.2371 193.1222 451.9193 191.1616 450.8801 190.3581 446.8732 190.2295 444.5055 190.6152 443.8734 190.8402 443.177 191.5794 442.3413 190.6473 439.2986 190.5824 439.2152 190.5723 439.2022 194.5968 438.53 197.3975 433.7975 195.7103 429.318 191.3911 425.9689 185.5872 423.8515 183.6638 423.6322 186.1797 419.532 186.4369 418.6963 186.469 416.2214 185.0227 413.5966 184.3477 412.9859 178.9052 409.1183 178.757 408.9125 178.771 408.9199 178.8553 408.9705 177.8936 405.0647 175.2616 403.4956 174.4686 403.4703 176.8002 399.2518 176.8854 399.099 185.4155 397.4051 193.9628 396.9553 205.0592 395.1559 213.1566 391.707 219.4546 384.5093 240.8976 387.2084 248.8451 387.0585 256.0428 385.7089 264.59 383.1597 269.3885 382.26 275.9373 382.2061 286.3202 374.4275 289.2878 370.7956 293.809 367.7636 299.7444 364.9352 311.1651 364.8281 316.3184 363.8103 324.3322 359.2891 329.6783 359.2356 340.2098 360.5534 345.1274 360.2641 345.2881 361.4426 345.7059 363.1139 348.9628 365.3209 356.6767 368.9957 361.7014 369.1028 364.0155 368.6422 371.6758 371.867 371.6436 375.2096 369.3295 378.6058 371.1722 379.0022 409.12 376.3881 413.0733 375.156 416.7266 373.249 419.3943 370.592 420.4443 367.1208 422.212 363.0818 426.3475 361.7104 434.7256 362.0961 438.9789 361.1212 443.0393 359.2249 447.0355 358.2285 451.0103 359.9105 454.0315 360.5319 467.2843 359.2677 476.5516 360.5534 477.7408 361.4533 480.3014 365.4495 482.2727 366.3494 486.2796 367.003 500.7537 373.249 522.0739 373.9133 526.2094 375.1775 525.5773 377.6738 527.345 380.2129 530.6555 381.5092 539.0229 382.0449 542.2263 383.652 544.9904 391.1301 548.2259 393.3692 546.8438 395.3727 547.8724 396.4333 549.9615 397.2262 551.8257 398.3939 555.9183 402.6687 556.1433 403.4079 557.0111 404.3186 559.5502 410.4896 560.7823 412.236 560.7394 413.9073 557.5253 415.6858 552.4685 413.5109 550.4436 413.1788 540.2764 415.3644 534.6839 415.9429 532.2411 415.9215 524.3238 414.2501 516.8885 413.7894 520.1026 426.8387 524.8059 438.7094 531.8876 444.8269 536.9337 451.555 529.402 455.4441 524.613 457.9404 518.2063 458.9689 503.475 461.9044 483.3012 465.7613 478.8979 469.329 477.4837 470.7432 473.8196 474.8144 471.9448 481.7889 470.7877 483.2567 469.3413 484.2745 467.7986 484.7031 465.9987 484.5959 461.0383 485.5387 457.567 486.3958 457.5206 486.4073 456.3027 485.7528 455.6384 481.0388 454.1599 477.0212 450.3245 473.8714 445.4605 471.9429 440.9822 471.6215 436.8895 472.859 428.1901 476.7105 423.8618 477.7122 399.3275 477.0641 392.8465 478.0806 391.5066 478.2908 387.8639 477.7069 387.7568 470.3252 384.1141 467.4218 380.2787 467.1807 372.2648 467.62 368.6865 466.3772 367.6794 465.0219 365.5581 460.4472 364.4653 458.6473 357.33 453.6976 356.0015 451.6834 356.7301 447.1944 359.0442 443.8785 359.7727 440.4288 355.7016 435.5701 349.4876 432.9881 348.9091 432.4953 345.7164 433.0096 344.4737 434.2577 343.7666 436.1862 342.3309 438.736 339.0954 442.0894 334.3171 446.1391 329.0889 449.3264 324.6106 450.0978 316.5968 447.789 312.7827 447.1462 298.2764 446.8355 293.8838 445.6463 295.0623 443.1554 297.3979 442.9411 306.4402 445.582 304.9403 441.9769 305.8617 438.8378 307.1473 435.8647 306.6973 432.7364 304.5546 430.9793 301.0834 429.549 297.3122 428.6491 294.3124 428.467 287.4771 430.6686 271.4495 442.984 269.3067 443.9803 266.5212 444.6446 263.3071 444.7785 256.6861 443.7339 250.7078 444.4196 247.9652 444.2589 244.0011 442.4804 244.3868 440.4555 246.1438 437.8736 246.4224 434.4077 244.7725 432.6774 242.1584 432.3775 236.0302 433.0096 224.9094 435.5701 214.0672 439.5288 216.5742 441.2483 216.1456 442.7268 214.7957 444.3446 214.6457 446.4445 216.2528 448.3086 220.9025 451.7799 222.1667 453.8155 221.1382 457.3885 217.1956 458.7009 207.5319 458.3098 203.525 457.4527 196.0254 454.8975 194.1636 454.8572 Z"/>
<path d="M 699.6053 194.0854 696.0205 195.6702 697.7561 197.8397 697.3489 199.6985 696.4061 201.4181 696.4704 203.143 697.9275 204.4768 704.7199 207.9855 693.2135 211.5371 689.7851 211.7246 692.335 214.9762 693.0635 218.6778 693.3635 222.3311 694.6277 225.422 698.7203 228.3361 704.1843 229.9699 720.5976 231.3895 731.3112 233.8965 737.1608 234.4804 742.6034 234.2607 747.7888 233.3287 749.7172 232.2144 751.0029 230.8217 752.3099 230.4467 764.9306 243.0084 767.8447 248.3385 766.0877 255.897 761.9308 261.8216 760.4309 264.95 760.3023 268.748 762.1451 273.1781 763.3602 274.5545 763.8807 275.144 763.3021 276.21 754.0884 279.6598 751.86 281.2615 746.996 286.1255 742.8605 288.3861 733.9682 290.7859 729.9399 293.384 725.3544 299.1479 722.7403 300.6211 710.4881 301.4711 710.3448 301.4033 707.9878 300.2891 687.7497 297.6321 689.8067 294.5144 689.871 293.4217 689.646 291.3539 689.2925 290.5183 688.7461 289.929 688.039 289.6397 686.0141 289.0933 684.3749 288.8148 677.0039 289.9183 676.1682 289.8326 675.2683 289.629 675.2683 288.9648 675.0754 288.0863 674.3683 287.1113 673.2113 286.8435 671.9578 286.8006 666.1296 287.5506 658.1479 286.9506 653.1982 287.2935 647.1128 283.7151 637.2777 274.8871 637.0527 274.5978 635.8207 273.3229 629.6496 272.8622 622.5357 274.6406 619.4502 276.0763 617.3932 276.4512 604.269 276.5798 589.752 274.8013 587.7592 274.7478 587.1164 274.9085 585.1558 275.9156 583.6774 277.3083 583.2274 277.3512 582.5203 277.2548 580.8168 276.2798 580.2383 275.7549 579.949 275.2835 579.949 274.9942 580.0133 274.7906 580.7847 273.4514 580.399 272.4443 579.3705 271.9301 577.0456 271.2658 576.2421 270.9016 575.8885 270.2266 576.2421 269.5945 576.3385 267.8589 572.6102 261.8914 568.3676 260.6808 567.3069 259.8987 565.1749 258.0238 564.6285 257.3167 564.8856 255.8168 566.6962 251.2635 568.6247 249.5064 568.464 248.6172 567.4355 247.1923 567.8533 246.903 568.4961 246.5923 575.4064 245.1674 578.4705 240.1748 578.7598 237.8607 578.4705 237.2179 578.042 236.6822 573.7351 232.8467 572.128 230.3076 570.296 227.0185 568.9782 225.7971 567.4355 224.9829 563.7607 222.5616 562.2179 220.6332 560.8037 219.2618 559.3895 218.7368 556.8825 218.0833 550.8615 220.0332 544.2404 223.483 537.9622 224.6508 536.2909 224.3829 534.9731 223.6758 530.5912 218.5333 528.02 216.1441 525.85 215.9849 522.9392 215.8475 518.7042 204.2568 515.7981 202.692 515.7981 200.233 518.0335 198.6682 518.2299 198.5308 528.7592 195.5954 531.4912 195.4882 532.659 195.9061 536.0338 196.2489 537.9944 196.1739 548.0009 194.0848 554.6219 191.8349 550.0579 188.4708 546.0082 187.1209 537.6408 185.621 535.8731 185.1067 535.2945 184.7746 535.6802 184.421 537.1908 183.5532 538.0265 182.3426 539.1836 181.2284 537.6087 175.9037 534.6517 170.6326 533.2054 169.1434 530.7841 167.1935 521.174 162.4366 505.982 157.4012 513.7065 155.0549 516.1493 156.3513 516.9206 156.5763 522.781 157.1655 523.9381 157.1227 525.513 156.9405 531.6519 154.7121 532.659 154.1014 533.5911 153.2551 534.3303 152.4515 534.8446 151.7551 535.5838 151.2516 536.6123 150.8659 540.7906 150.2552 541.562 149.9338 542.0763 149.5481 542.6227 149.6124 543.7262 149.9231 546.1689 152.1087 548.0652 153.1372 549.0937 153.4372 557.2361 153.8014 560.193 151.7337 560.3859 151.4016 560.5787 150.5016 560.8037 150.2659 561.2858 150.0195 564.6606 149.441 568.6568 149.1839 577.367 147.0947 587.7914 154.6907 589.3663 155.5585 591.5305 157.0584 593.4268 158.8476 592.4947 160.6153 584.9951 165.1151 579.5312 166.7328 577.5277 168.8434 584.7059 180.2641 585.7022 180.757 587.1164 182.2569 587.6628 182.6212 588.5306 183.0497 590.1805 183.3283 591.4019 183.2854 593.0732 182.6319 594.2624 181.9783 595.7088 181.7533 598.9871 182.5033 605.3939 185.1924 607.1295 185.5567 617.1361 185.4817 617.9074 185.5781 619.5145 187.1744 622.6643 188.7494 626.2748 190.9778 627.9461 192.4991 629.6175 195.2525 629.8424 195.5739 630.6781 195.7989 632.0602 195.8096 636.892 194.899 638.3705 194.4169 639.4633 193.8276 639.9454 193.8812 640.5882 194.1383 641.5846 195.0811 642.3881 195.6061 643.4809 195.9275 644.6701 195.8418 646.3736 195.1883 647.2735 194.5883 648.827 194.5883 650.0805 194.7276 658.6621 197.256 658.0515 191.0849 658.5014 190.1207 661.0834 188.4494 671.1757 185.246 677.2289 184.5817 679.9287 184.6353 694.8957 188.8136 696.0849 189.4029 696.8563 189.9707 696.7599 191.492 697.2741 193.2169 699.4597 194.0312 699.6053 194.0854 Z"/>
<path d="M 427.9804 268.5215 427.9449 268.6378 426.7212 272.6392 425.9725 276.1834 425.4904 278.444 426.6475 279.6546 434.147 283.4044 433.7292 285.44 433.0221 286.2971 431.6722 286.972 431.2865 287.2506 431.1258 287.6577 432.3793 289.0719 437.2968 290.0683 441.5823 290.6683 443.0286 291.3646 444.8607 293.0467 445.6963 293.5395 447.3677 294.193 448.9747 295.3073 449.5211 295.7787 449.489 296.5072 448.4605 297.75 448.4926 299.1427 448.6854 299.8713 448.6854 300.2677 448.6212 300.5034 446.3713 300.3962 444.7642 302.4961 443.5429 304.7246 442.9322 305.4102 441.9358 306.128 440.3609 306.9637 440.6823 307.4137 441.1002 307.7779 446.8855 309.5564 448.7819 309.1386 450.946 308.0886 451.6531 307.9279 452.4888 307.8851 453.3244 307.5422 454.128 306.9637 454.9958 305.9566 455.285 305.1424 455.4136 304.3174 454.5137 302.7854 457.9206 302.2926 459.6883 306.4923 459.8812 307.6172 460.299 308.8279 460.0098 313.7883 461.8418 320.0772 464.4559 322.9699 468.7307 325.8197 470.1449 327.6839 471.0127 328.6267 471.3984 329.4516 471.6876 330.523 471.5912 333.78 470.852 334.7549 463.8881 333.705 447.9141 327.7589 438.9789 326.5911 436.3862 327.0304 432.2828 328.8517 430.3544 329.4195 428.0081 329.3552 422.5656 328.1339 417.9694 328.7874 411.8734 331.6908 407.5772 332.3765 395.9315 328.3696 392.8459 328.7767 389.1069 330.5659 384.125 331.1551 381.0502 330.898 379.0575 330.7051 375.147 329.4195 373.1971 327.9196 370.3366 324.8448 367.8081 323.6234 364.9476 323.2377 363.0191 323.8377 361.1871 324.7162 356.4517 325.5197 354.6089 326.3983 351.5984 328.7767 349.5092 329.3445 340.9169 328.1339 340.4883 328.4553 333.8352 330.8337 328.0177 334.5406 325.9285 335.0763 321.2252 334.9049 319.8432 336.2227 315.2791 331.8944 308.6474 326.6554 306.7832 324.6841 307.4582 324.0627 308.8081 323.7948 310.3187 323.3556 312.9355 322.3467 312.014 319.8455 302.5359 320.6354 301.6144 319.319 308.1964 313.1319 316.3582 310.6307 317.8504 309.2243 308.4816 309.1826 305.8488 301.4597 302.7013 300.7498 299.8408 299.207 301.0943 298.3392 306.044 295.1037 307.0404 294.9001 308.1653 294.7501 308.8402 295.0608 309.5473 295.2644 310.5759 295.4144 313.9935 296.4215 314.8613 296.2715 315.3113 295.9179 315.3434 295.4144 315.022 294.718 313.7042 292.436 312.8686 290.1433 314.7327 289.2005 304.6298 283.8651 300.0658 282.7509 298.8016 281.9795 297.773 281.0795 295.0732 278.1654 304.7262 276.4191 308.9045 275.1013 312.0329 273.1086 316.5648 271.7372 324.8036 271.0301 327.6963 267.6339 328.3712 267.2697 329.3354 266.9161 331.2639 267.0125 335.2279 266.584 340.3705 264.8377 341.8811 264.8484 343.1346 265.1591 344.131 265.6519 345.0952 266.5626 348.4486 265.6519 356.8374 266.134 350.5056 267.6661 349.5092 268.641 350.2163 269.5624 350.5377 270.1945 350.7627 270.9659 351.0841 271.4158 351.5341 271.7158 352.1127 271.9087 352.8198 272.3051 353.3019 272.68 353.7197 273.0764 354.2661 273.5371 355.2625 274.8121 351.8234 277.4155 350.2557 281.6258 351.4843 284.7852 352.5374 289.1732 357.9786 288.4711 361.6645 287.418 369.4902 286.5221 381.0073 286.9078 385.0892 285.1722 386.5999 283.2865 388.0462 281.1117 389.2033 279.5689 389.9104 277.1369 394.1316 270.7087 397.8921 266.8304 398.8241 266.4983 400.4633 266.1126 412.0729 266.1033 419.1065 265.3228 427.4978 268.4143 427.9804 268.5215 Z"/>
<path d="M 772.8038 149.603 770.6946 153.1906 768.8947 160.1223 766.9662 182.5031 765.4449 189.8098 761.6737 194.2453 754.2812 192.8364 751.1529 192.0329 740.932 192.9597 729.9399 190.9348 710.2696 191.1276 703.3272 192.44 699.6053 194.0854 699.4597 194.0312 697.2741 193.2169 696.7599 191.492 696.8563 189.9707 696.0849 189.4029 694.8957 188.8136 679.9287 184.6353 677.2289 184.5817 671.1757 185.246 661.0834 188.4494 658.5014 190.1207 658.0515 191.0849 658.6621 197.256 650.0805 194.7276 648.827 194.5883 647.2735 194.5883 646.3736 195.1883 644.6701 195.8418 643.4809 195.9275 642.3881 195.6061 641.5846 195.0811 640.5882 194.1383 639.9454 193.8812 639.4633 193.8276 638.3705 194.4169 636.892 194.899 632.0602 195.8096 630.6781 195.7989 629.8424 195.5739 629.6175 195.2525 627.9461 192.4991 626.2748 190.9778 622.6643 188.7494 619.5145 187.1744 617.9074 185.5781 617.1361 185.4817 607.1295 185.5567 605.3939 185.1924 598.9871 182.5033 595.7088 181.7533 594.2624 181.9783 593.0732 182.6319 591.4019 183.2854 590.1805 183.3283 588.5306 183.0497 587.6628 182.6212 587.1164 182.2569 585.7022 180.757 584.7059 180.2641 577.5277 168.8434 579.5312 166.7328 584.9951 165.1151 592.4947 160.6153 593.4268 158.8476 591.5305 157.0584 589.3663 155.5585 587.7914 154.6907 577.367 147.0947 594.9374 138.8988 601.8584 134.0776 603.3047 133.1884 605.5546 132.117 611.0829 132.1063 615.7219 132.8348 622.6643 135.6954 632.5744 131.6671 633.8601 130.8207 639.5597 125.1317 640.1061 123.9854 640.4597 123.064 637.9527 119.9035 626.7248 110.7969 625.9534 108.472 624.8285 106.4043 625.0213 105.2686 624.5285 104.1116 624.0464 103.5116 618.1967 102.001 614.9505 100.8332 614.3077 100.4475 614.6934 97.6191 618.9681 98.4441 620.6073 97.8655 623.9499 94.2336 624.8285 92.1551 625.6641 90.8159 628.2675 87.5054 628.8782 86.4341 629.0389 85.9412 630.421 83.9056 633.5387 81.5272 636.3028 79.8345 640.1061 78.3881 647.6271 74.3062 654.4838 76.2561 658.2765 77.231 660.537 77.0596 664.0725 79.963 667.4473 83.5414 668.0902 83.8735 669.2151 84.1199 671.3792 85.1913 678.4502 90.8909 680.668 94.0836 681.0537 94.405 681.4394 94.8121 682.5643 94.5871 695.3778 92.0373 700.906 92.348 702.8666 92.9908 704.0559 93.5051 711.3304 98.2084 720.4049 104.2401 725.3224 107.165 729.2436 109.4148 736.4539 113.9895 744.4677 119.1107 754.1529 127.0388 764.3094 134.7097 765.7664 134.9133 766.0236 135.8025 765.9271 136.6275 761.5453 143.5806 765.67 144.4484 767.8235 145.5091 771.584 148.3375 772.7303 149.5267 772.8038 149.603 Z"/>
<path d="M 505.982 157.4012 521.174 162.4366 530.7841 167.1935 533.2054 169.1434 534.6517 170.6326 537.6087 175.9037 539.1836 181.2284 538.0265 182.3426 537.1908 183.5532 535.6802 184.421 535.2945 184.7746 535.8731 185.1067 537.6408 185.621 546.0082 187.1209 550.0579 188.4708 554.6219 191.8349 548.0009 194.0848 537.9944 196.1739 536.0338 196.2489 532.659 195.9061 531.4912 195.4882 528.7592 195.5954 518.2299 198.5308 518.0335 198.6682 515.7981 200.233 515.7981 202.692 518.7042 204.2568 522.9392 215.8475 522.9515 215.8812 522.728 219.2343 520.4925 224.3759 516.9158 228.1761 512.2214 232.647 508.1976 235.5531 503.056 238.2357 495.2319 240.4711 486.0666 243.1537 478.9131 244.942 473.3245 246.9539 467.7359 249.86 463.265 252.5426 459.9118 257.6841 457.6764 262.155 453.6525 266.6259 446.2756 268.1907 431.5216 269.3084 427.9804 268.5215 427.4978 268.4143 419.1065 265.3228 419.4136 265.2887 401.8409 257.9943 394.7968 256.6526 390.4362 256.6526 382.7213 256.988 376.3481 255.9818 364.9434 248.6023 364.608 241.8936 376.3481 235.185 383.3921 235.185 378.0252 226.1284 367.9623 217.0717 362.9308 203.3191 397.4803 189.5664 400.8346 181.8515 407.2078 179.168 417.6061 181.1806 419.9541 160.3839 419.9781 160.1717 420.2896 160.3839 458.8642 159.713 467.5854 155.6878 474.294 152.3335 479.3255 150.9918 484.3569 150.3209 489.053 150.3209 491.9247 150.6081 492.4721 150.5445 496.7147 150.1374 498.7182 150.8981 503.8928 154.23 505.982 157.4012 Z"/>
<path d="M 772.8038 149.603 772.7303 149.5267 771.584 148.3375 767.8235 145.5091 765.67 144.4484 761.5453 143.5806 765.9271 136.6275 766.0236 135.8025 765.7664 134.9133 764.3094 134.7097 754.1529 127.0388 744.4677 119.1107 736.4539 113.9895 729.2436 109.4148 725.3224 107.165 720.4049 104.2401 711.3304 98.2084 704.0559 93.5051 702.8666 92.9908 700.906 92.348 695.3778 92.0373 682.5643 94.5871 681.4394 94.8121 681.0537 94.405 680.668 94.0836 678.4502 90.8909 671.3792 85.1913 669.2151 84.1199 668.0902 83.8735 667.4473 83.5414 664.0725 79.963 660.537 77.0596 658.2765 77.231 654.4838 76.2561 647.6271 74.3062 640.1061 78.3881 636.3028 79.8345 633.5387 81.5272 630.421 83.9056 629.0389 85.9412 628.8782 86.4341 628.2675 87.5054 625.6641 90.8159 624.8285 92.1551 623.9499 94.2336 620.6073 97.8655 618.9681 98.4441 614.6934 97.6191 612.8827 97.0084 605.426 94.0622 601.8584 93.2908 593.0089 92.7765 591.209 92.423 588.4663 90.9338 586.5379 89.4446 585.5737 84.9984 587.02 80.5416 589.1413 77.981 596.8337 71.8099 597.3801 70.9743 597.3158 70.4064 597.0908 69.8172 596.7373 69.1851 596.3195 68.6708 596.1266 67.803 595.7088 66.8281 598.28 63.7426 601.3656 60.5713 602.4048 57.8929 603.1762 56.9608 606.0046 55.0217 609.4758 53.0825 610.0543 52.6646 610.0543 52.4504 608.6723 52.129 608.1259 51.9361 607.7723 51.6897 607.8688 49.6648 608.3509 47.0721 607.9973 45.9258 607.2581 45.2401 603.4333 44.4687 602.7584 44.5009 602.1798 44.6508 601.012 45.1222 600.2728 45.2937 599.63 45.3151 599.0514 45.208 598.3443 44.9615 597.4765 44.383 596.2873 43.3438 595.4838 42.8938 594.7445 42.626 590.8234 41.951 587.8557 41.1689 585.8308 36.6585 586.8593 34.1622 589.09 31.496 607.3167 31.1501 609.4763 31.5887 613.1206 33.5459 615.1115 33.9845 616.8831 33.6302 622.164 31.1501 653.0226 25.751 701.9173 21.2041 722.4167 23.2878 726.7021 24.4688 730.2452 26.6706 737.2302 43.7702 738.31 44.0402 743.3378 46.1998 743.7259 46.7144 744.7213 47.1699 745.7505 48.14 747.1846 49.1017 753.7309 50.4093 761.9981 53.2353 765.6762 52.5099 767.4309 53.7078 769.9279 54.1042 772.3743 53.6909 774.1459 52.5099 775.5631 52.5099 775.5631 53.9271 773.9097 54.7876 773.0829 55.4118 773.1336 56.306 774.1459 58.0438 774.5845 61.3929 780.8777 63.5609 795.86 65.8893 798.1883 65.9061 798.7857 71.7937 799 75.1203 798.3572 78.3504 796.943 81.9181 794.0074 86.4821 793.4932 88.1534 793.6432 90.6336 794.436 91.9514 795.4431 93.0335 796.2145 94.8441 798.1429 109.6879 797.8215 117.1178 795.9145 123.7281 791.4147 130.6705 774.4015 146.8856 772.8038 149.603 Z M 641.9884 1.3037 644.8735 1 656.2789 4.0032 655.351 3.9695 654.5917 4.2225 653.9506 4.754 653.4444 5.5385 646.0377 4.0538 642.3765 2.6788 641.9884 1.3037 Z"/>
<path d="M 22.6572 482.4959 16.0362 482.0084 11.2383 480.6165 9.758 480.1871 4.7226 476.7212 1.787 471.5144 1.937 466.6825 2.7941 461.54 1 453.5559 34.4826 446.7719 37.5533 445.186 40.7927 444.9498 53.919 450.2729 74.1316 453.8919 80.7791 457.5868 85.1995 458.7679 93.568 458.7679 101.464 460.1851 106.4749 459.7296 126.7212 454.2715 129.5051 452.2216 130.6186 448.088 132.5926 446.2489 137.0637 446.3839 141.9059 447.5481 144.8922 448.7291 146.2588 450.0282 148.5872 453.2592 150.4262 454.5246 152.7376 455.0223 157.7486 455.4441 159.8238 456.507 161.1567 456.8445 168.3273 457.2156 171.8872 453.8666 173.2032 453.0989 177.2525 453.3857 181.8004 455.0533 181.6905 455.9207 180.1478 460.7472 178.9907 462.8096 170.8269 469.8002 160.5418 474.8731 134.8505 482.9941 125.4011 487.6491 120.7513 488.5866 96.2171 488.7794 93.6458 488.067 90.5603 485.7635 90.2175 483.5994 90.5603 481.296 89.4889 478.58 85.5677 476.9623 60.2193 471.6751 54.9267 471.1341 49.8056 471.3215 41.5561 472.484 38.2349 472.6072 35.1922 473.0839 32.9209 474.5517 32.5352 476.9462 33.0709 479.5711 32.4709 481.5317 22.6572 482.4959 Z M 194.1636 454.8572 190.0054 454.7675 189.1809 454.1197 187.5106 451.6901 186.9538 449.1593 187.055 447.025 186.6501 445.4138 184.5411 444.4774 182.1116 446.4514 177.5562 447.3118 158.9127 446.9744 154.6104 446.0802 150.4262 444.4774 139.0208 438.277 135.6296 437.4081 126.9743 436.8513 124.0892 437.9733 117.931 445.2535 115.5858 447.3962 112.397 448.4591 104.9396 448.9653 102.2738 450.0282 100.0468 450.2729 97.8197 449.6402 92.1507 445.8946 79.6487 442.0309 71.5502 437.1634 68.2939 436.9356 59.7061 438.9434 55.0326 439.0784 43.2898 437.4081 39.5611 436.1427 36.406 433.207 33.639 429.9001 31.142 427.4958 24.3258 423.7503 22.0649 421.5232 21.2382 418.1572 23.4147 416.2676 44.7407 408.0679 100.4011 404.3139 105.0071 404.7188 108.1115 405.8323 111.4522 407.7642 114.4216 410.3118 116.345 413.3319 114.1685 413.8802 110.6423 415.3734 109.2588 416.1664 109.2588 417.4486 129.1001 418.7478 139.1726 421.2954 147.7267 425.952 150.4599 429.1914 154.5429 436.3451 157.6136 438.9434 162.5739 439.846 173.372 438.9097 177.4381 440.2257 181.5379 439.3905 188.2867 439.6014 190.5723 439.2022 190.5824 439.2152 190.6473 439.2986 191.5794 442.3413 190.8402 443.177 190.6152 443.8734 190.2295 444.5055 190.3581 446.8732 191.1616 450.8801 193.1222 451.9193 193.8936 453.2371 194.1507 454.7798 194.1636 454.8572 Z M 183.6638 423.6322 176.2402 422.797 167.6693 420.4181 164.4805 420.2494 157.9173 420.7386 154.8129 420.4181 149.8188 418.5622 133.4193 408.9705 144.4198 405.7058 149.92 404.7441 168.4791 405.3177 173.895 406.3469 178.757 408.9125 178.9052 409.1183 184.3477 412.9859 185.0227 413.5966 186.469 416.2214 186.4369 418.6963 186.1797 419.532 183.6638 423.6322 Z M 174.4686 403.4703 166.2858 403.2509 164.0755 402.7195 162.0003 401.8337 160.3469 400.5936 159.3008 398.7883 158.8764 397.2134 158.9135 397.1833 159.473 396.7304 162.9683 394.867 167.6133 395.9921 172.0426 397.9858 176.7135 399.1331 176.8854 399.099 176.8002 399.2518 174.4686 403.4703 Z M 143.475 389.1545 152.1303 390.6561 156.0614 392.3939 156.4832 395.7345 154.3405 397.8266 150.9324 399.3029 147.2543 400.1887 131.3272 402.129 127.6492 402.0108 119.9387 400.2224 115.4677 398.2484 113.4768 395.4477 112.1608 392.7819 108.8876 391.1791 100.7554 389.1545 99.3719 388.3193 98.0727 387.2058 96.3349 386.32 93.568 386.1935 88.4558 389.9896 87.241 390.6983 77.9446 391.0273 73.6929 390.2427 70.9259 387.7372 71.4995 381.0307 79.0413 377.9853 96.5037 376.4162 97.3641 376.2222 100.7554 376.4162 103.4886 377.3442 123.3637 377.69 127.9528 378.3227 131.3272 379.9424 139.0714 385.8645 140.0837 386.9527 141.3997 388.0662 143.475 389.1545 Z"/>
<path d="M 380.4728 114.8397 401.1423 103.657 404.1961 101.4805 408.0429 99.5318 417.6093 98.182 421.8273 96.5202 426.079 91.3995 431.7479 77.244 435.9659 70.9086 443.2545 65.7965 447.7425 63.4175 455.3686 61.4351 458.861 59.0646 462.1004 56.2385 465.846 53.9271 470.0471 53.0329 479.9678 52.029 487.2058 48.275 520.4097 40.244 527.8839 37.0383 532.6418 36.8021 546.5442 32.5167 566.5542 31.9262 589.09 31.496 586.8593 34.1622 585.8308 36.6585 587.8557 41.1689 590.8234 41.951 594.7445 42.626 595.4838 42.8938 596.2873 43.3438 597.4765 44.383 598.3443 44.9615 599.0514 45.208 599.63 45.3151 600.2728 45.2937 601.012 45.1222 602.1798 44.6508 602.7584 44.5009 603.4333 44.4687 607.2581 45.2401 607.9973 45.9258 608.3509 47.0721 607.8688 49.6648 607.7723 51.6897 608.1259 51.9361 608.6723 52.129 610.0543 52.4504 610.0543 52.6646 609.4758 53.0825 606.0046 55.0217 603.1762 56.9608 602.4048 57.8929 601.3656 60.5713 598.28 63.7426 595.7088 66.8281 596.1266 67.803 596.3195 68.6708 596.7373 69.1851 597.0908 69.8172 597.3158 70.4064 597.3801 70.9743 596.8337 71.8099 589.1413 77.981 587.02 80.5416 585.5737 84.9984 586.5379 89.4446 588.4663 90.9338 591.209 92.423 593.0089 92.7765 601.8584 93.2908 605.426 94.0622 612.8827 97.0084 614.6934 97.6191 614.3077 100.4475 614.9505 100.8332 618.1967 102.001 624.0464 103.5116 624.5285 104.1116 625.0213 105.2686 624.8285 106.4043 625.9534 108.472 626.7248 110.7969 637.9527 119.9035 640.4597 123.064 640.1061 123.9854 639.5597 125.1317 633.8601 130.8207 632.5744 131.6671 622.6643 135.6954 615.7219 132.8348 611.0829 132.1063 605.5546 132.117 603.3047 133.1884 601.8584 134.0776 594.9374 138.8988 577.367 147.0947 568.6568 149.1839 564.6606 149.441 561.2858 150.0195 560.8037 150.2659 560.5787 150.5016 560.3859 151.4016 560.193 151.7337 557.2361 153.8014 549.0937 153.4372 548.0652 153.1372 546.1689 152.1087 543.7262 149.9231 542.6227 149.6124 542.0763 149.5481 541.562 149.9338 540.7906 150.2552 536.6123 150.8659 535.5838 151.2516 534.8446 151.7551 534.3303 152.4515 533.5911 153.2551 532.659 154.1014 531.6519 154.7121 525.513 156.9405 523.9381 157.1227 522.781 157.1655 516.9206 156.5763 516.1493 156.3513 513.7065 155.0549 505.982 157.4012 503.8928 154.23 498.7182 150.8981 496.7147 150.1374 492.4721 150.5445 491.9247 150.6081 489.053 150.3209 484.3569 150.3209 479.3255 150.9918 474.294 152.3335 467.5854 155.6878 458.8642 159.713 420.2896 160.3839 419.9781 160.1717 397.1448 144.6186 382.0754 118.4983 382.0602 118.46 381.7652 117.7167 380.9617 115.6918 380.5439 115.049 380.4728 114.8397 Z M 318.0989 70.9086 326.8723 64.1008 340.4036 56.5844 354.4916 51.6494 364.9353 52.5099 364.9353 53.9271 359.4013 53.9271 356.803 54.8213 350.7629 56.2048 334.3972 65.7965 329.8755 69.8541 324.5777 72.6549 318.0989 70.9086 Z M 431.0224 27.4804 433.8063 26.215 464.5469 22.6635 459.7215 26.6621 453.8501 27.8938 441.7698 28.189 442.1747 28.8977 442.664 30.4161 443.069 31.1501 440.3526 32.0105 431.7311 32.4407 422.5021 34.8787 415.1291 36.0092 386.3963 43.5846 380.4912 43.5003 377.9604 40.3621 380.2887 36.7937 391.3904 34.4569 395.0685 32.4407 399.7926 32.5167 427.6312 29.1001 431.0224 27.4804 Z M 482.9372 19.694 532.6586 18.4624 541.1115 21.1113 520.5952 23.9458 499.2692 23.9458 493.9377 24.7894 483.9664 27.531 478.7024 26.7802 475.0749 23.6842 476.2897 20.6389 479.799 18.8758 482.9372 19.694 Z M 594.4266 11.2075 614.9597 10.1108 620.7467 11.2075 620.7467 12.6247 617.9123 12.6247 582.2788 19.5085 578.1621 22.6635 576.9473 21.3559 576.8798 20.6979 578.1621 19.694 575.9856 16.8511 581.199 14.1095 588.9601 12.0342 594.4266 11.2075 Z"/>
</g>
</svg>