<?xml version="1.0" standalone="no"?> 
<!DOCTYPE svg PUBLIC "-//W3C//DTD SVG 1.1//EN" "http://www.w3.org/Graphics/SVG/1.1/DTD/svg11.dtd" >
<svg xmlns="http://www.w3.org/2000/svg">
<defs>
  <font id="anychart" horiz-adv-x="1195">
    <font-face font-family="anychart"
      units-per-em="1024" ascent="874"
      descent="150" />
    <missing-glyph horiz-adv-x="0" />
    <glyph glyph-name="align-center"
      unicode="&#xF101;"
      horiz-adv-x="1024" d=" M0 769.98H1026.003V641.73H0V769.98zM192.376 577.604H833.6279999999999V449.354H192.376V577.604zM192.376 192.8530000000001H833.6279999999999V64.6030000000001H192.376V192.8530000000001zM0 385.228H1026.003V256.9780000000001H0V385.2280000000001zM0 0.4770000000001H1026.003V-127.7729999999999H0V0.4770000000001z" />
    <glyph glyph-name="align-justify"
      unicode="&#xF102;"
      horiz-adv-x="1024" d=" M0 769.98H1026.003V641.73H0V769.98zM0 577.604H1026.003V449.354H0V577.604zM0 385.228H1026.003V256.978H0V385.228zM0 192.853H1026.003V64.603H0V192.853zM0 0.477H1026.003V-127.773H0V0.477z" />
    <glyph glyph-name="align-left"
      unicode="&#xF103;"
      horiz-adv-x="1024" d=" M0 769.98H1026.003V641.73H0V769.98zM0 577.604H641.252V449.354H0V577.604zM0 192.8530000000001H641.252V64.6030000000001H0V192.8530000000001zM0 385.2280000000001H1026.003V256.9780000000001H0V385.2280000000001zM0 0.4770000000001H1026.003V-127.7729999999999H0V0.4770000000001z" />
    <glyph glyph-name="align-right"
      unicode="&#xF104;"
      horiz-adv-x="1024" d=" M0 769.98H1026.003V641.73H0V769.98zM384.751 577.604H1026.003V449.354H384.751V577.604zM384.751 192.8530000000001H1026.003V64.6030000000001H384.751V192.8530000000001zM0 385.228H1026.003V256.9780000000001H0V385.2280000000001zM0 0.4770000000001H1026.003V-127.7729999999999H0V0.4770000000001z" />
    <glyph glyph-name="all-sides"
      unicode="&#xF105;"
      horiz-adv-x="1024" d=" M336.3 12H687.8C873.5 12 1024.1 168.7000000000001 1024.1 362S873.5 712 687.8 712H336.3C150.6 712 0 555.3 0 362S150.6 12 336.3 12z M336.3 112C206 112 100 224.1 100 362S206 612 336.3 612H687.8C818.0999999999999 612 924.1 499.9 924.1 362S818.0999999999999 112 687.8 112H336.3z" />
    <glyph glyph-name="anchor-center-bottom"
      unicode="&#xF106;"
      horiz-adv-x="930" d=" M473.447 855.757C516.08 855.757 550.553 821.794 550.553 779.059S516.08 701.5450000000001 473.447 701.5450000000001S396.341 736.222 396.341 779.059S430.916 855.7570000000001 473.447 855.7570000000001zM850.512 463.087C893.145 463.087 927.618 429.125 927.618 386.39S893.145 308.876 850.512 308.876C807.8789999999999 308.876 773.406 343.553 773.406 386.39S807.981 463.088 850.512 463.088zM80.982 463.087C123.615 463.087 158.088 429.125 158.088 386.39S123.615 308.876 80.982 308.876S3.876 343.553 3.876 386.39S38.349 463.088 80.982 463.088zM80.37 854.737C123.003 854.737 157.476 820.774 157.476 778.039S123.003 700.525 80.37 700.525S3.264 735.202 3.264 778.039S37.839 854.737 80.37 854.737zM474.2629999999999 463.087C516.896 463.087 551.3689999999999 429.125 551.3689999999999 386.39S516.896 308.876 474.2629999999999 308.876S397.157 343.553 397.157 386.39S431.7319999999999 463.088 474.2629999999999 463.088zM850.512 857.39C893.145 857.39 927.618 823.427 927.618 780.692S893.145 703.178 850.512 703.178C807.8789999999999 703.178 773.406 737.855 773.406 780.692S807.981 857.39 850.512 857.39zM849.492 81.333C892.125 81.333 926.598 47.37 926.598 4.635S892.125 -72.879 849.492 -72.879C806.8589999999999 -72.879 772.386 -38.202 772.386 4.635S806.961 81.333 849.492 81.333zM84.041 67.46C126.674 67.46 161.147 33.4970000000001 161.147 -9.2379999999999S126.674 -86.7519999999999 84.041 -86.7519999999999S6.935 -52.0749999999999 6.935 -9.2379999999999C6.935 33.599 41.51 67.46 84.041 67.46zM475.895 146.606C561.058 146.606 630.107 78.781 630.107 -6.79S561.058 -161.818 475.895 -161.818S321.683 -92.463 321.683 -6.79S390.732 146.606 475.895 146.606zM59.767 783.955H108.315V-12.093H59.767V783.955zM828.277 783.955H876.825V-12.093H828.277V783.955zM77.31 802.008H873.358V753.46H77.31V802.008zM76.29 23.298H872.338V-25.25H76.29V23.298z" />
    <glyph glyph-name="anchor-center-top"
      unicode="&#xF107;"
      horiz-adv-x="930" d=" M456.553 -159.471C413.92 -159.471 379.447 -125.508 379.447 -82.773S413.92 -5.259 456.553 -5.259S533.659 -39.936 533.659 -82.773S499.084 -159.471 456.553 -159.471zM79.488 233.198C36.855 233.198 2.382 267.161 2.382 309.896S36.855 387.41 79.488 387.41C122.121 387.41 156.594 352.733 156.594 309.896S122.019 233.198 79.488 233.198zM849.018 233.198C806.385 233.198 771.912 267.161 771.912 309.896S806.385 387.41 849.018 387.41S926.124 352.733 926.124 309.896S891.6510000000001 233.198 849.018 233.198zM849.63 -158.452C806.997 -158.452 772.524 -124.488 772.524 -81.753S806.997 -4.239 849.63 -4.239S926.736 -38.9160000000001 926.736 -81.753S892.161 -158.451 849.63 -158.451zM455.737 233.198C413.1040000000001 233.198 378.6310000000001 267.161 378.6310000000001 309.896S413.1040000000001 387.41 455.737 387.41S532.8430000000001 352.733 532.8430000000001 309.896S498.2680000000001 233.198 455.7370000000001 233.198zM79.488 -161.1030000000001C36.855 -161.1030000000001 2.382 -127.1400000000001 2.382 -84.4050000000001S36.855 -6.8910000000001 79.488 -6.8910000000001C122.121 -6.8910000000001 156.594 -41.5680000000001 156.594 -84.4050000000001S122.019 -161.1030000000001 79.488 -161.1030000000001zM80.508 614.954C37.875 614.954 3.402 648.9169999999999 3.402 691.6519999999999S37.875 769.1659999999999 80.508 769.1659999999999C123.141 769.1659999999999 157.614 734.4889999999999 157.614 691.6519999999999S123.039 614.954 80.508 614.954zM845.9590000000001 628.824C803.326 628.824 768.8530000000001 662.788 768.8530000000001 705.5229999999999S803.326 783.0369999999999 845.9590000000001 783.0369999999999S923.065 748.3599999999999 923.065 705.5229999999999C923.065 662.6859999999999 888.49 628.825 845.9590000000001 628.825zM454.105 549.6800000000001C368.942 549.6800000000001 299.8930000000001 617.505 299.8930000000001 703.076S368.942 858.103 454.105 858.103S608.317 788.748 608.317 703.075S539.268 549.6790000000001 454.105 549.6790000000001zM870.233 -87.6700000000001H821.685V708.379H870.233V-87.67zM101.723 -87.6700000000001H53.175V708.379H101.723V-87.67zM852.6899999999999 -105.7230000000001H56.642V-57.1750000000001H852.69V-105.7230000000001zM853.7099999999999 672.987H57.662V721.535H853.71V672.987z" />
    <glyph glyph-name="anchor-center"
      unicode="&#xF108;"
      horiz-adv-x="1017" d=" M518.523 857.435C565.6610000000001 857.435 603.938 819.897 603.938 772.512S565.661 686.727 518.523 686.727S433.108 725.127 433.108 772.512S471.385 857.435 518.523 857.435zM929.846 427.528C976.984 427.528 1015.261 389.99 1015.261 342.605S976.984 256.8200000000001 929.846 256.8200000000001S844.431 295.2200000000001 844.431 342.605S882.7080000000001 427.528 929.846 427.528zM87.631 427.528C134.769 427.528 173.046 389.99 173.046 342.605S134.769 256.8200000000001 87.631 256.8200000000001S2.216 295.2200000000001 2.216 342.605S40.493 427.528 87.631 427.528zM88.246 857.558C135.384 857.558 173.661 820.02 173.661 772.635S135.384 686.85 88.246 686.85S2.831 725.25 2.831 772.635S41.108 857.558 88.246 857.558zM521.846 427.528C568.984 427.528 607.261 389.99 607.261 342.605S568.9839999999999 256.8200000000001 521.846 256.8200000000001S436.431 295.2200000000001 436.431 342.605S474.708 427.528 521.846 427.528zM929.846 858.051C976.984 858.051 1015.261 820.513 1015.261 773.128S976.984 687.3430000000001 929.846 687.3430000000001S844.431 725.743 844.431 773.128S882.7080000000001 858.051 929.846 858.051zM929.969 8.697C977.107 8.697 1015.384 -28.841 1015.384 -76.226S977.107 -162.011 929.969 -162.011S844.5540000000001 -123.611 844.5540000000001 -76.226S882.8310000000001 8.697 929.969 8.697zM91.077 8.697C138.215 8.697 176.492 -28.841 176.492 -76.226S138.215 -162.011 91.077 -162.011S5.662 -123.7339999999999 5.662 -76.226S43.939 8.697 91.077 8.697zM518.523 512.943C612.8000000000001 512.943 689.231 437.866 689.231 343.097S612.8 171.5270000000001 518.523 171.5270000000001S347.8150000000001 248.327 347.8150000000001 343.097S424.2460000000001 512.943 518.523 512.943zM61.785 782.85H115.57V-98.504H61.785V782.85zM912.615 782.85H966.4V-98.504H912.615V782.85zM81.108 802.91H962.462V749.126H81.108V802.912zM80 -59.241H961.354V-113.0259999999999H80V-59.241zM510.523 8.698C557.6610000000001 8.698 595.938 -28.84 595.938 -76.225S557.661 -162.01 510.523 -162.01S425.108 -123.61 425.108 -76.225S463.3849999999999 8.698 510.523 8.698z" />
    <glyph glyph-name="anchor-left-bottom"
      unicode="&#xF109;"
      horiz-adv-x="1009" d=" M548.868 856.546C591.9190000000001 856.546 626.8760000000001 822.263 626.8760000000001 778.986S591.9180000000001 700.641 548.868 700.641S470.8600000000001 735.711 470.8600000000001 778.987S505.8180000000001 856.546 548.868 856.546zM929.019 459.423C972.07 459.423 1007.027 425.14 1007.027 381.863S972.069 303.5180000000001 929.019 303.5180000000001S851.011 338.5880000000001 851.011 381.8640000000001S885.9689999999999 459.423 929.019 459.423zM154.218 459.423C197.269 459.423 232.226 425.14 232.226 381.863S197.268 303.5180000000001 154.218 303.5180000000001S76.21 338.5880000000001 76.21 381.8640000000001S111.168 459.423 154.218 459.423zM155.904 855.533C198.955 855.533 233.912 821.251 233.912 777.975S198.954 699.629 155.904 699.629S77.896 734.6990000000001 77.896 777.975S112.854 855.534 155.904 855.534zM550.8919999999999 459.423C593.943 459.423 628.9 425.14 628.9 381.863S593.942 303.5180000000001 550.8919999999999 303.5180000000001S472.884 338.5880000000001 472.884 381.8640000000001S507.842 459.423 550.8919999999999 459.423zM929.019 857.108C972.07 857.108 1007.027 822.825 1007.027 779.548S972.069 701.203 929.019 701.203S851.011 736.273 851.011 779.549S885.9689999999999 857.108 929.019 857.108zM929.131 73.54C972.182 73.54 1007.139 39.257 1007.139 -4.02S972.181 -82.365 929.131 -82.365S851.1229999999999 -47.295 851.1229999999999 -4.019S886.0809999999999 73.54 929.131 73.54zM156.241 59.49C199.292 59.49 234.249 25.207 234.249 -18.0699999999999S199.291 -96.415 156.241 -96.415S78.233 -61.3449999999999 78.233 -18.069S113.191 59.49 156.241 59.49zM158.49 149.188C244.591 149.188 314.394 80.622 314.394 -5.929S244.591 -162.7329999999999 158.49 -162.7329999999999S2.586 -92.593 2.586 -6.043S72.389 149.187 158.49 149.187zM131.737 783.933H180.858V-20.992H131.737V783.933zM908.786 783.933H957.907V-20.992H908.786V783.933zM149.385 802.255H954.31V753.134H149.385V802.254zM148.373 14.865H953.298V-34.256H148.373V14.864zM541.562 73.54C584.613 73.54 619.57 39.257 619.57 -4.02S584.6120000000001 -82.365 541.562 -82.365S463.554 -47.295 463.554 -4.019S498.5120000000001 73.54 541.562 73.54z" />
    <glyph glyph-name="anchor-left-center"
      unicode="&#xF10A;"
      horiz-adv-x="1093" d=" M593.92 857.445C640.889 857.445 679.029 820.0409999999999 679.029 772.827S640.89 687.35 593.92 687.35S508.811 725.612 508.811 772.826S546.9499999999999 857.444 593.92 857.444zM1006.218 426.629C1053.187 426.629 1091.327 389.225 1091.327 342.011S1053.188 256.535 1006.218 256.535S921.109 294.7970000000001 921.109 342.011S959.248 426.629 1006.218 426.629zM163.3489999999999 426.629C210.3179999999999 426.629 248.4579999999999 389.225 248.4579999999999 342.011S210.3189999999999 256.535 163.3489999999999 256.535S78.24 294.7970000000001 78.24 342.01S116.379 426.628 163.349 426.628zM165.1889999999999 857.568C212.1579999999999 857.568 250.298 820.164 250.298 772.95S212.1589999999999 687.474 165.189 687.474S80.08 725.736 80.08 772.95S118.219 857.568 165.189 857.568zM597.2309999999999 426.6280000000001C644.1999999999999 426.6280000000001 682.3399999999999 389.225 682.3399999999999 342.0110000000001S644.2009999999999 256.5350000000001 597.2309999999999 256.5350000000001S512.1219999999998 294.7970000000001 512.1219999999998 342.0110000000001S550.2609999999999 426.6290000000001 597.2309999999999 426.6290000000001zM1006.2179999999998 858.058C1053.187 858.058 1091.3269999999998 820.654 1091.3269999999998 773.44S1053.1879999999999 687.964 1006.2179999999998 687.964S921.1089999999996 726.2260000000001 921.1089999999996 773.44S959.2479999999998 858.058 1006.2179999999998 858.058zM1006.3409999999998 8.077C1053.31 8.077 1091.4499999999998 -29.327 1091.4499999999998 -76.5409999999999S1053.311 -162.0169999999998 1006.3409999999998 -162.0169999999998S921.2319999999997 -123.7549999999999 921.2319999999997 -76.5409999999998S959.3709999999998 8.0770000000002 1006.3409999999998 8.0770000000002zM168.0099999999999 8.077C214.9789999999999 8.077 253.1189999999999 -29.327 253.1189999999999 -76.5409999999999S214.9799999999999 -162.0169999999998 168.0099999999999 -162.0169999999998S82.9009999999999 -123.7549999999999 82.9009999999999 -76.5409999999998S121.0399999999999 8.0770000000002 168.0099999999999 8.0770000000002zM172.9149999999999 511.737C266.8529999999999 511.737 343.0089999999999 436.9310000000001 343.0089999999999 342.502S266.8529999999999 171.4269999999999 172.9149999999999 171.4269999999999S2.821 248.074 2.821 342.502S78.977 511.7379999999999 172.915 511.7379999999999zM138.8229999999999 780.677H192.4139999999999V-97.51H138.8229999999999V780.676zM986.5959999999998 780.677H1040.187V-97.51H986.5959999999998V780.676zM158.0759999999999 800.666H1036.263V747.075H158.076V800.665zM156.9719999999999 -58.39H1035.1589999999999V-111.981H156.972V-58.391zM585.9489999999998 8.078C632.9179999999999 8.078 671.0579999999999 -29.326 671.0579999999999 -76.54S632.9189999999999 -162.0160000000001 585.9489999999998 -162.0160000000001S500.8399999999999 -123.7540000000001 500.8399999999999 -76.5400000000001S538.9789999999998 8.078 585.9489999999998 8.078z" />
    <glyph glyph-name="anchor-left-top"
      unicode="&#xF10B;"
      horiz-adv-x="1009" d=" M1012.903 303.775C1012.903 260.724 978.62 225.767 935.344 225.767S856.998 260.7249999999999 856.998 303.775S892.0680000000001 381.783 935.344 381.783S1012.903 346.825 1012.903 303.775zM615.78 -76.376C615.78 -119.427 581.497 -154.384 538.221 -154.384S459.875 -119.426 459.875 -76.376S494.945 1.6320000000001 538.221 1.6320000000001S615.78 -33.3259999999999 615.78 -76.376zM615.78 698.424C615.78 655.374 581.497 620.4169999999999 538.221 620.4169999999999S459.875 655.375 459.875 698.425S494.945 776.433 538.221 776.433S615.78 741.4749999999999 615.78 698.425zM1011.891 696.739C1011.891 653.688 977.608 618.731 934.332 618.731S855.986 653.689 855.986 696.739S891.056 774.747 934.332 774.747S1011.891 739.789 1011.891 696.739zM615.78 301.75C615.78 258.699 581.497 223.742 538.221 223.742S459.875 258.7 459.875 301.75S494.945 379.758 538.221 379.758S615.78 344.8 615.78 301.75zM1013.465 -76.3769999999999C1013.465 -119.428 979.182 -154.385 935.906 -154.385S857.56 -119.427 857.56 -76.3769999999999S892.63 1.6310000000001 935.906 1.6310000000001S1013.465 -33.3269999999999 1013.465 -76.3769999999999zM229.897 -76.4889999999999C229.897 -119.54 195.6139999999999 -154.4969999999998 152.3379999999999 -154.4969999999998S73.9919999999999 -119.5389999999999 73.9919999999999 -76.4889999999998S109.0619999999999 1.5190000000002 152.3379999999999 1.5190000000002S229.897 -33.4389999999997 229.897 -76.4889999999998zM215.8469999999999 696.4010000000001C215.8469999999999 653.3500000000001 181.5639999999999 618.393 138.2879999999999 618.393S59.9419999999999 653.3510000000001 59.9419999999999 696.4010000000001S95.0119999999999 774.4090000000001 138.2879999999999 774.4090000000001S215.8469999999999 739.451 215.8469999999999 696.4010000000001zM305.5449999999999 694.1510000000001C305.5449999999999 608.051 236.9789999999999 538.248 150.4279999999999 538.248S-6.376 608.052 -6.376 694.153S63.764 850.057 150.315 850.057S305.545 780.254 305.545 694.153zM940.29 720.9050000000001V671.7840000000001H135.365V720.904H940.29zM940.29 -56.1449999999999V-105.2649999999999H135.365V-56.1449999999999H940.29zM958.612 703.2570000000002V-101.6679999999998H909.491V703.258H958.612zM171.222 704.2690000000002V-100.6559999999997H122.101V704.27H171.222zM229.897 311.0790000000002C229.897 268.0290000000002 195.614 233.0720000000001 152.338 233.0720000000001S73.992 268.03 73.992 311.0800000000001S109.062 389.088 152.338 389.088S229.897 354.13 229.897 311.0800000000001z" />
    <glyph glyph-name="anchor-right-bottom"
      unicode="&#xF10C;"
      horiz-adv-x="1009" d=" M-3.903 392.51C-3.903 435.562 30.38 470.519 73.656 470.519S152.002 435.5610000000001 152.002 392.511S116.932 314.5030000000001 73.656 314.5030000000001S-3.903 349.4600000000001 -3.903 392.51zM393.2200000000001 772.663C393.2200000000001 815.713 427.5030000000001 850.671 470.779 850.671S549.125 815.713 549.125 772.663S514.055 694.655 470.779 694.655S393.2200000000001 729.613 393.2200000000001 772.663zM393.2200000000001 -2.138C393.2200000000001 40.9119999999999 427.5030000000001 75.87 470.779 75.87S549.125 40.912 549.125 -2.138S514.055 -80.1460000000001 470.779 -80.1460000000001S393.2200000000001 -45.1880000000001 393.2200000000001 -2.138zM-2.891 -0.452C-2.891 42.598 31.392 77.556 74.668 77.556S153.0140000000001 42.5980000000001 153.0140000000001 -0.452S117.9440000000001 -78.46 74.668 -78.46S-2.891 -43.5020000000001 -2.891 -0.452zM393.2200000000001 394.5350000000001C393.2200000000001 437.5850000000001 427.5030000000001 472.543 470.779 472.543S549.125 437.5850000000001 549.125 394.5350000000001S514.055 316.5270000000001 470.779 316.5270000000001S393.2200000000001 351.485 393.2200000000001 394.5350000000001zM-4.465 772.662C-4.465 815.712 29.818 850.67 73.094 850.67S151.44 815.712 151.44 772.662S116.37 694.654 73.094 694.654S-4.465 729.612 -4.465 772.662zM779.103 772.774C779.103 815.824 813.386 850.782 856.6619999999999 850.782S935.008 815.824 935.008 772.774S899.9379999999999 694.7660000000001 856.6619999999999 694.7660000000001S779.103 729.724 779.103 772.774zM793.1529999999999 -0.116C793.1529999999999 42.934 827.4359999999999 77.8920000000001 870.7119999999999 77.8920000000001S949.0579999999998 42.9340000000001 949.0579999999998 -0.116S913.9879999999998 -78.124 870.7119999999999 -78.124S793.1529999999999 -43.1660000000001 793.1529999999999 -0.116zM703.4549999999999 2.133C703.4549999999999 88.2330000000001 772.021 158.037 858.5719999999999 158.037S1015.3759999999997 88.234 1015.3759999999997 2.133S945.2359999999998 -153.7709999999999 858.6849999999998 -153.7709999999999S703.4549999999998 -83.968 703.4549999999998 2.133zM68.71 -24.62V24.5H873.635V-24.62H68.71zM68.71 752.429V801.549H873.635V752.429H68.71zM50.388 -6.972V797.953H99.509V-6.972H50.388zM837.778 -7.9839999999999V796.94H886.899V-7.9849999999999H837.778zM779.1030000000001 385.2050000000001C779.1030000000001 428.2550000000001 813.3860000000001 463.2130000000001 856.662 463.2130000000001S935.008 428.2550000000001 935.008 385.2050000000001S899.938 307.1970000000001 856.662 307.1970000000001S779.1030000000001 342.1550000000001 779.1030000000001 385.2050000000001z" />
    <glyph glyph-name="anchor-right-center"
      unicode="&#xF10D;"
      horiz-adv-x="1093" d=" M499.08 -161.1600000000001C452.111 -161.1600000000001 413.971 -123.7550000000001 413.971 -76.541S452.11 8.9349999999999 499.08 8.9349999999999S584.189 -29.327 584.189 -76.541S546.05 -161.1590000000001 499.08 -161.1590000000001zM86.782 269.658C39.813 269.658 1.673 307.062 1.673 354.2760000000001S39.812 439.7520000000001 86.782 439.7520000000001S171.891 401.4900000000001 171.891 354.2760000000001S133.752 269.6580000000002 86.782 269.6580000000002zM929.651 269.658C882.682 269.658 844.542 307.062 844.542 354.2760000000001S882.681 439.7520000000001 929.651 439.7520000000001S1014.7600000000002 401.4900000000001 1014.7600000000002 354.2760000000001S976.621 269.6580000000002 929.651 269.6580000000002zM927.811 -161.2819999999999C880.842 -161.2819999999999 842.702 -123.8769999999999 842.702 -76.6629999999999S880.841 8.8130000000001 927.811 8.8130000000001S1012.92 -29.4489999999998 1012.92 -76.6629999999999S974.781 -161.2809999999999 927.811 -161.2809999999999zM495.7690000000001 269.6580000000002C448.8000000000001 269.6580000000002 410.6600000000001 307.0620000000002 410.6600000000001 354.2760000000001S448.7990000000001 439.7520000000001 495.7690000000001 439.7520000000001S580.878 401.4900000000001 580.878 354.2760000000001S542.739 269.6580000000002 495.7690000000001 269.6580000000002zM86.782 -161.7719999999999C39.813 -161.7719999999999 1.673 -124.3669999999999 1.673 -77.1529999999999S39.8120000000001 8.3230000000001 86.782 8.3230000000001S171.891 -29.9389999999998 171.891 -77.1529999999999S133.752 -161.7709999999999 86.782 -161.7709999999999zM86.659 688.21C39.69 688.21 1.55 725.614 1.55 772.828S39.689 858.3040000000001 86.659 858.3040000000001S171.768 820.042 171.768 772.828S133.629 688.21 86.659 688.21zM924.99 688.21C878.021 688.21 839.881 725.614 839.881 772.828S878.02 858.3040000000001 924.99 858.3040000000001S1010.099 820.042 1010.099 772.828S971.96 688.21 924.99 688.21zM920.085 184.549C826.147 184.549 749.991 259.356 749.991 353.785S826.147 524.86 920.085 524.86S1090.179 448.213 1090.179 353.7850000000001S1014.0230000000003 184.5490000000001 920.085 184.5490000000001zM954.177 -84.389H900.586V793.797H954.177V-84.39zM106.404 -84.389H52.813V793.797H106.404V-84.39zM934.924 -104.379H56.737V-50.787H934.924V-104.378zM936.028 754.678H57.841V808.268H936.028V754.678zM507.051 688.21C460.082 688.21 421.942 725.614 421.942 772.828S460.081 858.304 507.051 858.304S592.16 820.042 592.16 772.828S554.021 688.21 507.051 688.21z" />
    <glyph glyph-name="anchor-right-top"
      unicode="&#xF10E;"
      horiz-adv-x="1009" d=" M460.132 -160.26C417.081 -160.26 382.124 -125.977 382.124 -82.701S417.082 -4.355 460.132 -4.355S538.14 -39.4250000000001 538.14 -82.701S503.182 -160.261 460.132 -160.261zM79.981 236.8630000000001C36.93 236.8630000000001 1.973 271.1460000000001 1.973 314.4220000000001S36.931 392.7680000000001 79.981 392.7680000000001S157.989 357.698 157.989 314.4220000000001S123.031 236.8620000000001 79.981 236.8620000000001zM854.782 236.8630000000001C811.731 236.8630000000001 776.774 271.1460000000001 776.774 314.4220000000001S811.732 392.7680000000001 854.782 392.7680000000001S932.79 357.698 932.79 314.4220000000001S897.8320000000001 236.8620000000001 854.782 236.8620000000001zM853.096 -159.248C810.045 -159.248 775.088 -124.965 775.088 -81.6890000000001S810.0459999999999 -3.3430000000001 853.096 -3.3430000000001S931.104 -38.4130000000001 931.104 -81.6890000000001S896.1460000000001 -159.249 853.096 -159.249zM458.108 236.862C415.057 236.862 380.1 271.146 380.1 314.4220000000001S415.058 392.7680000000001 458.108 392.7680000000001S536.116 357.698 536.116 314.4220000000001S501.158 236.8620000000001 458.108 236.8620000000001zM79.981 -160.8209999999999C36.93 -160.8209999999999 1.973 -126.5379999999999 1.973 -83.2619999999999S36.931 -4.9159999999999 79.981 -4.9159999999999S157.989 -39.986 157.989 -83.2619999999999S123.031 -160.8219999999999 79.981 -160.8219999999999zM79.869 622.7470000000001C36.818 622.7470000000001 1.861 657.0300000000001 1.861 700.306S36.819 778.65 79.869 778.65S157.877 743.58 157.877 700.304S122.919 622.744 79.869 622.744zM852.759 636.797C809.708 636.797 774.751 671.0800000000002 774.751 714.3560000000001S809.709 792.7 852.759 792.7S930.767 757.63 930.767 714.354S895.8090000000001 636.794 852.759 636.794zM850.51 547.0990000000002C764.409 547.0990000000002 694.606 615.6650000000001 694.606 702.2160000000001S764.409 859.019 850.51 859.019S1006.414 788.879 1006.414 702.328S936.611 547.098 850.51 547.098zM877.263 -87.646H828.142V717.278H877.263V-87.6469999999999zM100.2140000000001 -87.646H51.093V717.278H100.214V-87.6469999999999zM859.615 -105.968H54.69V-56.848H859.615V-105.968zM860.627 681.422H55.702V730.542H860.627V681.422zM467.4379999999999 622.7470000000001C424.387 622.7470000000001 389.43 657.03 389.43 700.306S424.3879999999999 778.652 467.4379999999999 778.652S545.4459999999999 743.582 545.4459999999999 700.306S510.4879999999999 622.746 467.4379999999999 622.746z" />
    <glyph glyph-name="andrews-pitchfork"
      unicode="&#xF10F;"
      horiz-adv-x="1024" d=" M1026.003 588.524L441.085 440.43L518.861 296.5990000000001L1026.003 423.3850000000001V329.6280000000001L556.151 213.4980000000001L634.992 69.667L1026.002 168.7520000000001V76.0600000000001L590.243 -34.744L468.785 185.798L-0.001 69.668V164.492L424.038 268.904L308.973 494.774L396.337 517.148L1026.002 676.962V588.532z" />
    <glyph glyph-name="anychart"
      unicode="&#xF110;"
      horiz-adv-x="1024" d=" M568.719 712.6320000000001Q660.075 712.6320000000001 740.389 677.496Q820.702 641.356 880.937 580.116T976.309 436.556Q1012.449 354.236 1012.449 260.871Q1012.449 166.5029999999999 978.316 84.181Q943.18 1.8610000000001 882.944 -59.3789999999999T742.396 -155.7539999999999Q661.079 -191.894 568.718 -191.894T396.044 -156.758Q314.727 -120.618 254.492 -59.378Q194.257 2.865 160.124 85.1859999999999Q124.988 167.5059999999999 124.988 260.8709999999999V279.9459999999999H549.646V712.635H568.721zM853.8330000000001 -31.2729999999999Q880.9380000000001 -3.1639999999999 903.025 29.9660000000001T940.169 99.2360000000001Q955.228 136.3810000000001 962.256 176.5380000000001Q970.2880000000002 217.6980000000001 969.2840000000002 260.8660000000001Q969.2840000000002 303.0300000000001 961.252 343.1860000000002T938.161 420.4860000000002Q922.098 457.6310000000001 901.017 490.7620000000002Q878.93 523.89 851.825 552Q799.6210000000001 605.208 731.354 636.328Q663.087 668.453 584.782 672.4680000000001V240.783H161.128Q165.144 160.47 196.264 91.1990000000001Q228.389 21.9280000000001 279.588 -31.2789999999999Q307.697 -59.3889999999999 339.823 -81.4749999999999Q372.952 -103.5619999999999 409.094 -118.6189999999999Q445.234 -134.6819999999999 484.388 -142.7139999999999Q524.544 -151.75 566.708 -151.75T648.025 -143.7179999999999Q688.1809999999999 -135.6859999999999 724.323 -120.6279999999999Q761.467 -104.564 793.5939999999999 -82.4789999999999T853.829 -31.2789999999999zM477.3630000000001 362.2640000000001H13.553V381.3390000000001Q13.553 475.7070000000001 47.686 558.028Q82.822 640.348 143.058 701.588T284.61 797.9639999999999Q365.927 834.104 457.284 834.104H477.363V362.262zM438.211 793.948Q359.906 790.936 291.639 758.812Q222.368 726.687 172.172 673.48Q119.968 621.276 88.848 551.002T53.712 401.418H438.212V793.95z" />
    <glyph glyph-name="anychart2"
      unicode="&#xF111;"
      horiz-adv-x="1024" d=" M575.367 741.06Q673.942 741.06 756.4269999999999 706.862Q838.9079999999999 671.659 898.2559999999999 611.304Q958.6089999999998 549.9459999999999 991.8039999999997 466.457Q1026.002 382.969 1026.002 284.3920000000001T988.785 99.308Q950.563 12.802 886.187 -51.5740000000001Q821.8100000000001 -116.9560000000001 735.3050000000001 -154.172Q647.7940000000001 -191.3890000000001 550.221 -191.3890000000001Q451.646 -191.3890000000001 368.156 -157.191T224.314 -62.638Q162.956 -1.2800000000001 128.756 81.204Q93.553 164.692 93.553 263.269Q93.553 276.346 102.607 285.399Q112.666 294.454 125.743 294.454T147.874 285.4Q157.933 276.346 157.933 263.269Q157.933 177.771 187.104 106.352T268.58 -17.373T392.305 -97.845Q464.7289999999999 -127.0160000000001 550.2289999999999 -127.0160000000001Q634.723 -127.0160000000001 709.1579999999999 -94.8280000000001Q784.5989999999999 -62.6400000000001 839.9239999999999 -6.3120000000001Q896.2549999999999 50.0179999999999 928.4399999999998 124.4539999999998Q960.6279999999998 199.8939999999998 960.6279999999998 284.3879999999998Q960.6279999999998 369.8859999999998 932.4639999999998 442.3119999999998Q904.2999999999998 513.7289999999998 854.0049999999999 566.0369999999998Q802.7059999999999 618.3409999999998 732.2929999999999 647.5129999999998Q660.8759999999999 676.6829999999998 575.3759999999999 676.6829999999998Q562.2989999999999 676.6829999999998 553.2449999999999 685.7379999999998Q544.1909999999999 695.7969999999998 544.1909999999999 708.8739999999998T553.2449999999999 731.0039999999998Q562.2989999999999 741.0639999999999 575.3759999999999 741.0639999999999zM480.814 384.979Q480.814 371.902 471.76 362.848Q461.701 353.794 448.624 353.794H32.189Q19.112 353.794 10.058 362.848Q-0.001 371.902 -0.001 384.978Q-0.001 478.5269999999999 35.202 560.0029999999999Q70.405 642.483 130.76 702.8359999999999Q192.118 763.189 273.593 798.3939999999999Q356.074 833.597 449.622 833.597Q462.699 833.597 471.753 824.5429999999999Q480.807 814.483 480.807 801.4069999999999V384.9719999999999z" />
    <glyph glyph-name="anygantt"
      unicode="&#xF112;"
      horiz-adv-x="1024" d=" M838.997 287.24Q916.832 287.24 971.417 232.656Q1026.002 177.06 1026.002 98.2149999999999Q1026.002 21.391 971.417 -33.195Q915.821 -87.779 837.9869999999999 -87.779H509.463Q437.6930000000001 -87.779 385.13 -40.27T324.48 75.977H311.339Q294.154 75.977 273.938 79.01Q252.71 83.053 230.473 93.162Q209.245 102.26 189.029 120.4550000000001Q168.812 139.6610000000001 155.67 167.9640000000001Q146.572 188.1810000000001 142.529 212.4400000000001Q137.475 236.7000000000001 137.475 266.014V363.0540000000001Q77.836 380.24 39.423 428.76Q0.001 477.279 0.001 541.973Q0.001 619.808 54.586 674.393Q110.182 728.9780000000001 187.006 729.989H718.708Q795.5319999999999 729.989 850.117 675.404Q905.713 620.819 905.713 545.006Q905.713 468.182 851.1279999999999 414.608Q795.5319999999999 360.0229999999999 718.708 360.0229999999999H177.908V268.036Q177.908 241.753 181.951 221.5379999999999T192.06 187.1679999999999Q199.136 170.9949999999999 208.234 160.8859999999999T226.43 143.7000000000001Q245.636 129.548 269.895 124.494Q295.167 119.4400000000001 312.349 119.4400000000001H325.49Q330.544 191.21 384.118 238.7180000000001Q437.692 287.2380000000001 510.472 287.2380000000001H838.996zM40.432 541.97Q40.432 513.667 51.552 486.375Q63.682 459.082 83.9 438.865Q103.106 418.649 129.387 407.529Q156.68 396.409 187.004 396.409H718.706Q749.032 396.409 775.313 407.529Q802.606 418.649 821.811 438.866Q842.028 459.083 853.148 485.364Q865.278 511.647 865.278 541.971T853.148 598.578Q841.018 625.871 821.811 645.076Q802.605 665.2929999999999 776.3240000000001 676.413Q749.0310000000001 687.5329999999999 718.7070000000001 687.5329999999999H187.005Q155.668 687.5329999999999 129.388 676.413T83.901 645.076Q63.684 624.8589999999999 52.564 598.578Q40.434 572.295 40.434 541.971zM943.113 -2.87Q962.319 18.3579999999999 973.439 44.639Q985.569 70.922 986.58 101.246Q986.58 131.572 974.45 157.853Q962.32 185.146 943.113 204.351T896.615 234.677Q869.322 246.807 838.998 246.807H511.485Q481.159 246.807 454.878 235.687Q427.5850000000001 223.557 407.3690000000001 204.35Q387.1520000000001 184.1330000000001 376.0320000000001 157.852Q363.9020000000001 131.569 363.9020000000001 101.245T375.0220000000001 44.638Q387.1520000000001 18.355 406.3590000000001 -2.872Q426.576 -22.077 452.857 -33.197Q480.15 -45.327 510.474 -45.327H838.998Q869.3240000000001 -45.327 896.615 -34.207Q923.908 -22.077 943.113 -2.87z" />
    <glyph glyph-name="anymap"
      unicode="&#xF113;"
      horiz-adv-x="1019" d=" M509.994 834.105C580.128 834.105 645.924 820.745 707.3810000000001 794.027S822.6080000000001 730.902 868.6920000000001 684.809C914.7840000000002 638.0519999999999 951.1900000000002 583.615 977.9090000000002 521.495C1005.2970000000003 458.708 1018.988 391.91 1018.988 321.102C1018.988 250.2970000000001 1005.627 183.829 978.911 121.709C952.192 58.9219999999999 915.786 4.4829999999999 869.6940000000001 -41.6070000000001C823.6 -88.3630000000001 769.83 -125.1030000000001 708.383 -151.8230000000001C646.258 -178.5400000000002 580.1320000000001 -191.8990000000001 509.9970000000001 -191.8990000000001C439.1890000000001 -191.8990000000001 373.0630000000001 -178.5400000000002 311.6130000000001 -151.8230000000001C249.4890000000001 -125.104 195.3840000000001 -88.6980000000001 149.2930000000001 -42.6050000000001C103.2010000000001 4.1519999999998 66.7960000000001 58.5919999999999 40.0760000000001 120.7089999999998C13.358 183.496 -0.001 250.293 -0.001 321.1S13.358 458.373 40.076 520.496C66.795 583.2819999999999 103.2 637.722 149.293 683.81C195.386 730.567 249.155 767.304 310.606 794.025C372.729 820.744 439.193 834.1030000000001 509.998 834.1030000000001H509.995zM836.6310000000001 -10.543C858.008 10.833 877.0400000000001 33.875 893.7400000000001 58.595C910.4370000000002 83.975 924.4660000000002 110.6940000000001 935.8250000000002 138.751C947.8490000000002 166.807 956.8680000000002 195.865 962.8740000000003 225.926C969.5560000000002 256.65 972.895 288.3789999999999 972.895 321.116C972.895 353.178 969.891 384.573 963.8790000000002 415.296C957.198 445.356 948.1820000000002 474.415 936.8320000000002 502.47A457.914 457.914 0 0 1 894.7460000000001 582.627C878.0430000000001 608.0070000000001 859.339 631.387 838.6370000000001 652.761C817.2610000000001 674.135 794.2170000000001 693.1700000000001 769.5010000000001 709.87C744.1190000000001 727.239 717.7350000000001 741.9350000000001 690.3420000000001 753.955C662.2870000000001 765.981 633.2270000000001 774.999 603.1670000000001 781.005C573.1100000000001 787.687 542.0450000000002 791.027 509.9830000000002 791.027C477.9230000000002 791.027 446.5270000000002 788.022 415.8000000000002 782.013C385.0760000000002 775.3280000000001 356.0200000000002 765.9780000000001 328.6290000000002 753.9580000000001C300.5730000000002 741.932 274.1850000000002 727.5720000000001 249.4690000000002 710.875C224.7520000000002 693.5050000000001 202.0420000000002 674.135 181.3370000000002 652.76C159.9630000000002 631.3860000000001 140.9280000000002 608.34 124.2280000000002 583.6200000000001C106.8590000000002 558.24 92.4970000000002 531.52 81.1460000000002 503.467C69.1200000000002 475.412 60.1030000000002 446.3510000000001 54.0970000000002 416.2920000000001C48.0870000000002 385.567 45.0830000000002 353.8390000000001 45.0830000000002 321.1020000000001C45.0830000000002 288.3670000000001 48.0870000000002 256.9720000000001 54.0970000000002 226.9220000000001C60.1080000000002 196.198 68.7910000000002 166.807 80.1510000000002 138.751C92.1770000000002 110.6949999999999 106.5370000000002 84.307 123.2330000000002 59.5939999999999C139.9310000000002 34.2089999999999 158.6360000000002 10.833 179.3430000000002 -10.5400000000001C200.7190000000002 -31.917 223.7620000000002 -50.95 248.4800000000002 -67.6500000000001C273.1970000000002 -85.0200000000001 299.2470000000002 -99.7130000000001 326.6280000000002 -111.7350000000001C354.6860000000002 -123.7610000000001 383.7440000000002 -132.7790000000001 413.8030000000002 -138.7830000000001C444.5280000000002 -145.4650000000001 475.9220000000001 -148.8050000000002 507.9830000000002 -148.8050000000002S571.1080000000002 -145.8010000000001 601.1700000000002 -139.7910000000002C631.8940000000002 -133.1070000000002 661.2850000000002 -123.7570000000002 689.3410000000002 -111.7370000000002S743.7840000000002 -85.3550000000002 768.4980000000003 -68.6540000000002C793.2160000000002 -51.2880000000002 815.9270000000002 -31.9170000000003 836.6320000000003 -10.5410000000002zM435.8510000000001 387.233L799.556 622.69L604.177 234.9360000000001L240.471 -1.525L432.8450000000001 382.2270000000001L435.85 387.2330000000001zM489.9610000000001 369.1960000000001L580.1410000000001 286.0360000000001L684.344 494.4430000000001L489.961 369.1970000000001zM459.8980000000001 335.126L355.6930000000002 126.716L550.075 253.9700000000001L459.898 335.125z" />
    <glyph glyph-name="anymap2"
      unicode="&#xF114;"
      horiz-adv-x="853" d=" M852.907 320.683C852.907 271.945 845.345 225.4500000000001 830.219 181.1949999999999C814.5350000000001 136.939 792.9670000000001 96.885 765.517 61.0329999999999C738.066 24.6179999999999 705.575 -6.7510000000001 668.043 -33.0810000000001S589.335 -78.7390000000001 544.518 -91.0640000000001L530.235 -56.6120000000001C562.726 -47.09 593.538 -33.9250000000001 622.667 -17.119C651.796 0.2479999999999 678.4060000000001 20.6959999999999 702.495 44.223C719.862 62.151 735.546 81.476 749.551 102.2059999999999S775.3190000000001 145.0629999999999 784.844 168.5909999999999C794.926 192.1199999999999 802.4870000000001 216.7679999999999 807.5300000000001 242.5389999999999C813.1320000000001 268.306 815.9320000000001 294.9149999999999 815.9320000000001 322.3669999999999C815.9320000000001 349.2559999999999 813.4120000000001 375.5849999999999 808.3710000000001 401.3539999999998C802.7690000000001 426.5639999999998 795.2060000000001 450.9299999999998 785.6850000000001 474.4589999999998C775.6020000000001 497.9869999999999 763.5550000000001 520.3939999999998 749.551 541.6829999999998S719.861 582.5769999999998 702.495 600.5019999999998A425.308 425.308 0 0 1 644.5120000000001 647.5579999999998C623.7860000000001 662.1239999999998 601.9380000000001 674.4479999999999 578.969 684.5309999999998C555.442 694.6129999999998 531.0730000000001 702.1759999999998 505.864 707.2169999999999C480.6540000000001 712.8199999999998 454.607 715.6209999999999 427.716 715.6209999999999L490.739 652.5989999999998L463.01 624.8689999999999L363.009 724.8679999999998L463.006 834.1059999999999L489.054 808.8949999999999L435.273 749.2349999999999C493.534 748.1139999999998 547.873 736.0679999999999 598.292 713.1009999999999C649.272 690.1349999999999 693.528 659.3229999999999 731.062 620.6679999999999S798.287 536.9179999999999 820.133 485.3809999999999C841.98 433.8449999999999 852.9060000000001 378.9429999999999 852.9060000000001 320.6799999999999L852.9050000000001 320.6849999999999zM670.56 572.773L504.183 248.4170000000001L201.677 50.9450000000001L363.0130000000001 371.9390000000001L364.6960000000001 377.8220000000001L670.5630000000001 572.772zM573.9259999999999 465.216L411.7489999999999 359.336L487.3749999999999 290.433L573.9269999999999 465.217zM297.466 158.5080000000001L459.6439999999999 264.385L384.017 333.289L297.4649999999999 158.506zM37.816 320.683C37.816 293.793 40.336 267.743 45.378 242.5370000000001C50.979 216.7670000000001 58.544 192.119 68.065 168.5890000000001C78.147 145.062 90.193 122.9330000000001 104.198 102.2040000000001A440.952 440.952 0 0 1 151.254 42.5440000000001C168.621 25.7390000000001 187.387 10.3340000000001 207.555 -3.6729999999999S249.009 -29.4429999999999 271.4170000000001 -38.9639999999999C294.384 -49.0469999999999 318.194 -56.89 342.841 -62.492S392.98 -70.895 419.31 -70.895L363.009 -7.875L389.057 18.174L489.056 -91.063L389.057 -191.8979999999999L363.009 -166.6889999999998L420.991 -108.7069999999999C362.731 -107.5869999999999 308.112 -95.8219999999999 257.133 -73.4149999999998C206.153 -50.4489999999998 161.619 -19.6359999999999 123.526 19.0180000000001C85.432 58.2300000000001 55.462 103.6080000000002 33.613 155.1440000000001C11.205 207.246 0 262.704 0 321.524C0 370.262 7.562 416.758 22.686 461.012C38.371 505.268 59.939 545.322 87.389 581.174C114.839 617.588 147.331 648.957 184.863 675.289C222.957 701.617 264.692 721.2239999999999 310.067 734.106L324.35 698.815C291.858 689.293 261.0470000000001 676.129 231.918 659.321C202.788 641.954 176.179 621.506 152.09 597.979C134.165 580.0519999999999 118.199 560.726 104.194 539.997A384.338 384.338 0 0 1 68.903 472.773C58.82 449.245 51.258 424.876 46.216 399.666C40.615 373.8979999999999 37.814 347.57 37.814 320.679H37.818z" />
    <glyph glyph-name="anystock"
      unicode="&#xF115;"
      horiz-adv-x="1024" d=" M125.389 705.233Q163.205 697.271 186.093 668.412Q209.976 639.552 210.971 601.7370000000001V323.0940000000001Q210.971 285.278 187.088 256.4190000000001Q162.21 227.5590000000001 126.384 220.5930000000001V-171.498H84.587V218.602Q48.761 224.572 24.878 253.432Q0 283.286 0 321.102V601.735Q0 639.551 23.883 668.4100000000001Q48.761 697.269 85.582 705.23V813.704H125.388V705.23zM170.171 601.7370000000001Q170.171 627.61 152.259 645.524Q133.352 664.431 107.477 664.431Q80.608 664.431 62.695 646.519Q43.788 627.6120000000001 43.788 601.7370000000001V323.0940000000001Q43.788 297.221 61.7 279.307Q80.607 260.4 107.478 260.4Q133.351 260.4 151.265 278.312Q170.172 297.2190000000001 170.172 323.0940000000001V601.7370000000001zM534.3969999999999 460.426Q570.223 453.46 594.106 425.5960000000001Q618.984 396.7360000000001 618.984 356.9300000000001V76.297Q618.984 38.481 595.101 9.6220000000001Q570.223 -19.2379999999999 534.397 -26.2039999999999V-170.5019999999999H492.6V-25.21Q455.779 -18.244 431.896 10.616T408.0130000000001 77.2909999999999V357.925Q408.0130000000001 395.741 431.896 424.6T492.6 460.426V813.706H534.397V460.426zM577.189 356.9300000000001Q577.189 382.8030000000001 558.2819999999999 401.7120000000001Q539.3749999999999 419.624 513.4999999999999 419.624T469.7129999999999 401.7120000000001Q450.8059999999999 382.8050000000001 450.8059999999999 356.9300000000001V78.287Q450.8059999999999 52.414 468.7179999999999 34.5Q487.6249999999999 15.593 513.4999999999999 15.593T558.2819999999999 33.505Q577.189 52.412 577.189 78.287V356.93zM941.414 603.7280000000001Q977.24 596.7620000000001 1001.123 567.902Q1025.006 538.048 1026.001 500.232V221.5890000000001Q1026.001 182.778 1002.118 153.9190000000001Q977.2399999999998 125.0590000000001 941.414 118.0930000000001V-170.5019999999999H899.617V117.0980000000001Q863.7909999999999 124.0640000000001 839.9079999999999 152.9240000000001Q815.0299999999999 181.7830000000001 815.0299999999999 220.5940000000001V500.232Q815.0299999999999 539.042 838.9129999999999 567.902Q863.7909999999999 596.761 899.6169999999998 603.7280000000001V813.705H941.4139999999998V603.7280000000001zM985.202 500.2320000000001Q985.202 526.105 967.29 545.0140000000001Q948.383 563.921 922.508 563.921T877.7259999999999 545.0140000000001T858.8189999999998 500.2320000000001V221.5890000000002Q858.8189999999998 195.7160000000001 877.7259999999999 176.8070000000001T922.508 157.9000000000001T966.295 176.8070000000001Q985.202 195.7140000000002 985.202 221.5890000000002V500.232z" />
    <glyph glyph-name="api"
      unicode="&#xF116;"
      horiz-adv-x="1024" d=" M51.797 507.874Q58.77 514.847 70.722 517.836Q82.676 521.821 97.617 521.821H131.485V479.984H123.516Q117.539 479.984 112.558 478.9880000000001Q107.577 476.996 104.589 475.003Q101.6 472.013 100.604 466.037Q98.612 460.0600000000001 98.612 450.0970000000001Q98.612 442.129 99.608 433.163T100.604 415.233Q102.596 408.26 102.596 398.298Q103.592 388.336 103.592 377.38Q103.592 363.434 101.6 354.4700000000001Q98.611 344.5080000000001 94.627 339.5270000000001Q89.646 333.5500000000001 82.673 330.5610000000001Q75.7 326.576 68.727 325.5800000000001V323.5880000000001Q77.693 319.6030000000001 84.666 316.6150000000001Q92.635 312.6300000000001 96.62 306.6530000000002Q101.601 300.6760000000002 103.593 290.7130000000001Q106.582 280.7520000000001 106.582 266.8080000000001Q106.582 255.8500000000002 105.586 246.8870000000001Q104.59 236.9250000000001 104.59 228.9570000000001Q102.598 219.9910000000001 102.598 211.0270000000002Q101.602 202.0610000000002 101.602 194.0920000000002Q101.602 184.1300000000002 102.598 178.1520000000002Q104.59 172.1760000000002 107.579 169.1870000000001Q109.571 167.1950000000002 113.556 166.1970000000001Q118.537 164.2060000000001 124.514 164.2060000000001H132.483V122.3690000000002H98.615Q91.642 122.3690000000002 84.669 123.3650000000001T71.719 125.3570000000001Q65.742 127.3490000000001 60.761 130.3370000000001Q55.78 134.3230000000001 51.795 137.3110000000002T45.818 145.2800000000002Q42.829 151.2570000000002 40.837 157.2340000000002Q39.841 163.2110000000001 38.845 171.1800000000002Q37.849 180.1460000000002 37.849 190.1050000000001V210.0250000000001Q37.849 215.0070000000001 38.845 218.9920000000001T39.841 227.9580000000001Q39.841 231.9430000000001 40.837 235.9270000000002Q41.833 240.9070000000002 41.833 244.8930000000002V264.8130000000001Q41.833 270.7910000000001 39.841 276.7680000000002Q36.852 282.7450000000001 32.868 286.7300000000002Q27.887 291.7100000000002 19.918 294.6990000000002Q10.952 297.6880000000002 -0.003 297.6880000000002V345.5020000000002Q11.951 345.5020000000002 19.918 348.4910000000002T32.868 356.4600000000003Q36.853 360.4450000000003 38.845 366.4220000000003Q41.834 372.3990000000003 41.834 378.3760000000003V398.2960000000003Q41.834 402.2820000000003 40.838 407.2630000000003Q39.842 411.2480000000003 39.842 415.2320000000003T38.846 424.1980000000003T37.85 433.1640000000003V453.0840000000003Q37.85 473.0060000000003 40.839 485.9570000000003Q44.824 499.9030000000003 51.797 507.8710000000003zM992.133 356.4640000000001Q998.11 350.4870000000001 1005.083 347.4980000000001Q1013.0520000000002 344.5080000000001 1026.001 341.5210000000001V294.7030000000001Q1015.043 294.7030000000001 1007.076 291.7130000000001T994.126 283.7450000000001Q990.141 279.7600000000001 988.149 273.7830000000002Q985.16 267.8060000000002 985.16 261.8290000000002V241.9080000000002Q985.16 237.9230000000001 986.156 233.9380000000001Q987.152 228.9580000000001 987.152 224.9730000000001T988.148 217.0030000000001Q989.1439999999998 212.023 989.1439999999998 207.042V169.1890000000001Q988.148 160.2230000000001 986.1549999999997 154.2460000000001Q985.1589999999998 148.2690000000001 982.1699999999998 143.2880000000001Q979.1809999999998 137.3110000000002 975.1969999999998 134.3220000000001Q971.2119999999998 130.3370000000001 967.2279999999998 127.3490000000002Q962.2469999999998 124.3590000000002 954.2779999999998 122.3680000000002Q948.3009999999998 122.3680000000002 942.3239999999998 121.3720000000002Q935.3509999999998 119.3800000000002 927.3809999999997 119.3800000000002H893.5129999999998V161.2170000000002H901.4819999999997Q907.4589999999998 161.2170000000002 911.4439999999998 162.2130000000002Q916.4249999999998 164.2050000000002 919.4129999999998 166.1980000000002Q921.4049999999997 169.1870000000003 922.402 175.1640000000002Q924.3939999999998 181.1410000000002 924.3939999999998 191.1030000000002Q924.3939999999998 199.0720000000002 923.398 208.0380000000001T922.402 225.9680000000001Q920.41 232.9410000000001 920.41 242.903V263.8200000000001Q920.41 277.7660000000001 922.402 286.73Q924.3939999999998 296.692 929.3749999999998 303.665Q933.3599999999998 309.642 940.3329999999999 313.627Q948.302 317.612 957.2679999999998 319.604V322.593Q948.3019999999998 325.582 941.3289999999998 329.5659999999999Q933.3599999999998 332.555 929.3749999999998 338.532Q924.3939999999998 345.5049999999999 922.402 355.4669999999999Q920.41 364.4329999999999 920.41 378.3769999999999Q920.41 389.3349999999999 921.406 399.2949999999999Q922.402 408.2609999999999 922.402 416.2299999999999Q923.398 425.1959999999999 923.398 434.1599999999999Q924.3939999999998 443.1259999999999 924.3939999999998 451.0949999999999Q924.3939999999998 461.0569999999999 923.398 467.0339999999999Q921.406 473.0109999999999 919.4129999999998 475.9999999999999Q916.4239999999998 477.992 912.44 478.9889999999999Q907.459 480.9809999999999 901.482 480.9809999999999H893.5129999999999V522.818H927.381Q943.32 522.818 955.272 518.8329999999999T973.2019999999998 505.8829999999999Q980.1749999999998 498.9099999999999 983.1639999999998 485.9619999999999Q987.1489999999998 473.0119999999999 987.1489999999998 453.0899999999999V433.169Q987.1489999999998 428.188 986.153 424.2029999999999T985.157 415.2369999999999Q985.157 411.2519999999999 984.161 407.2669999999999Q983.165 402.2869999999999 983.165 398.3019999999999V378.3809999999999Q983.165 372.404 985.157 366.4269999999999Q988.146 360.45 992.1299999999998 356.4649999999999zM244.0470000000001 494.9240000000001H341.6660000000001L434.3040000000001 191.1080000000002H348.6370000000001L334.6910000000001 253.8630000000002H249.0240000000001L235.0780000000001 191.1080000000002H151.403zM263.9700000000001 316.6190000000002V317.6150000000001H321.7440000000001L315.7670000000001 338.5330000000002Q313.7750000000001 349.4910000000001 310.7860000000001 361.4430000000001T304.8090000000001 387.3420000000001Q302.8170000000001 399.2960000000001 299.8280000000001 411.2480000000001Q295.8430000000001 422.2060000000002 293.8510000000001 435.1540000000001H291.8590000000001Q286.8780000000001 423.2000000000001 284.8860000000001 411.2480000000001Q281.8970000000001 399.2940000000001 279.9050000000001 386.3460000000001Q276.9160000000001 372.4000000000001 273.9280000000001 360.4460000000002T267.9510000000002 337.5360000000002L262.9700000000002 316.6190000000002H263.9660000000001zM668.394 473.0090000000001Q675.367 467.0330000000001 682.34 459.0640000000001T694.294 443.1240000000002Q699.275 433.1630000000001 701.2669999999999 421.2110000000002Q704.256 409.2570000000001 704.256 395.3110000000002Q704.256 380.3690000000002 702.264 368.4170000000002Q699.275 356.4630000000002 694.295 347.4990000000002Q688.318 336.5410000000002 681.3449999999999 327.5780000000001T666.4019999999999 312.6350000000001T649.467 301.6770000000002Q639.505 296.6960000000002 628.549 292.7110000000002Q617.591 289.7210000000001 606.635 288.7260000000001Q594.681 286.7340000000002 582.729 286.7340000000002H544.8760000000001V191.1070000000002H465.1860000000001V494.923H584.7210000000001Q595.6790000000001 494.923 607.6310000000001 493.927Q619.585 491.935 630.541 489.942Q641.499 485.957 650.4620000000001 482.969Q659.4280000000001 478.984 668.392 473.007zM613.608 362.4410000000002Q620.5809999999999 367.4210000000002 622.574 375.3910000000002Q625.563 383.3600000000002 626.559 394.3160000000002Q626.559 403.2820000000002 623.5699999999999 411.2510000000002Q620.5809999999999 418.2240000000002 613.608 422.2090000000002Q608.627 426.1940000000002 599.6619999999999 429.1820000000002Q589.6999999999999 431.1740000000002 579.7409999999999 431.1740000000002H544.8769999999998V351.4840000000002H579.7409999999999Q590.6989999999998 351.4840000000002 598.6659999999998 354.4730000000002Q607.6319999999998 356.4650000000002 613.6089999999998 362.4420000000002zM754.06 494.924H834.746V191.108H754.06V494.924z" />
    <glyph glyph-name="arrow-down-left-square"
      unicode="&#xF117;"
      horiz-adv-x="1024" d=" M0 -191.8979999999999V545.54L256.5 289.04L801.564 834.105L1026.002 609.667L480.938 64.6030000000001L737.438 -191.8969999999999H-0.001z" />
    <glyph glyph-name="arrow-down-left-thin"
      unicode="&#xF118;"
      horiz-adv-x="899" d=" M875.798 642.566C890.602 656.594 898.007 674.128 898.007 695.168S890.6039999999999 733.744 875.798 747.77C868.784 755.566 860.601 761.215 851.25 764.722S832.547 769.979 823.196 769.979S804.493 768.226 795.142 764.722C785.791 761.217 777.6080000000001 755.566 770.594 747.77L149.881 128.23V395.917C149.881 416.959 142.671 434.687 128.252 449.105C113.832 463.5219999999999 96.104 470.7309999999999 75.065 470.734S36.297 463.527 21.878 449.104C7.458 434.683 0.249 416.955 0.249 395.918V-52.96C0.249 -57.6360000000001 0.637 -62.5060000000001 1.416 -67.575S3.753 -77.1210000000001 6.095 -81.0150000000001C11.548 -95.0420000000001 20.704 -106.3420000000001 33.562 -114.9150000000001S60.25 -127.7760000000001 75.056 -127.7760000000001H523.932C544.974 -127.7760000000001 562.702 -120.566 577.119 -106.147S598.745 -73.999 598.748 -52.96S591.541 -14.192 577.119 0.227C562.696 14.6469999999999 544.9680000000001 21.856 523.932 21.856H256.245L875.8 642.565z" />
    <glyph glyph-name="arrow-down-right-square"
      unicode="&#xF119;"
      horiz-adv-x="1024" d=" M1026.003 -191.8979999999999H288.564L545.0640000000001 64.6020000000001L0 609.6659999999999L224.438 834.104L769.502 289.04L1026.002 545.54V-191.9000000000001z" />
    <glyph glyph-name="arrow-down-right-thin"
      unicode="&#xF11A;"
      horiz-adv-x="899" d=" M22.457 642.566C7.653 656.594 0.248 674.1279999999999 0.248 695.168S7.651 733.744 22.457 747.77C29.471 755.566 37.654 761.215 47.005 764.722S65.708 769.979 75.059 769.979S93.762 768.226 103.113 764.722C112.464 761.217 120.647 755.566 127.661 747.77L748.374 128.23V395.917C748.374 416.959 755.5840000000001 434.687 770.003 449.105S802.1510000000001 470.7309999999999 823.19 470.734S861.9580000000001 463.527 876.3770000000001 449.104C890.797 434.682 898.0060000000001 416.954 898.0060000000001 395.917V-52.96C898.0060000000001 -57.6360000000001 897.618 -62.5060000000001 896.839 -67.575S894.5020000000001 -77.1210000000001 892.1600000000001 -81.0150000000001C886.7070000000001 -95.0420000000001 877.551 -106.3420000000001 864.6930000000001 -114.9150000000001S838.0050000000001 -127.7760000000001 823.1990000000001 -127.7760000000001H374.323C353.281 -127.7760000000001 335.553 -120.566 321.136 -106.147S299.51 -73.999 299.507 -52.96S306.714 -14.192 321.136 0.227C335.559 14.6469999999999 353.287 21.856 374.323 21.856H642.01L22.455 642.565z" />
    <glyph glyph-name="arrow-down-square"
      unicode="&#xF11B;"
      horiz-adv-x="993" d=" M992.906 304.555H695.034V834.105H297.872V304.5550000000001H0L496.453 -191.8979999999999L992.905 304.5550000000001z" />
    <glyph glyph-name="arrow-down-thin"
      unicode="&#xF11C;"
      horiz-adv-x="882" d=" M860.211 196.288C874.716 210.028 881.968 227.2040000000001 881.968 247.817S874.716 285.606 860.211 299.346C853.34 306.98 845.3240000000001 312.516 836.165 315.949S817.843 321.102 808.682 321.102C799.52 321.102 790.36 319.385 781.1990000000001 315.949S764.022 306.978 757.153 299.346L515.537 58.876V760.816C515.537 781.428 508.4760000000001 798.7950000000001 494.352 812.919S462.862 834.104 442.2510000000001 834.104S404.273 827.043 390.1490000000001 812.919S368.9630000000001 781.428 368.9630000000001 760.817V58.876L127.3480000000001 299.346C113.6090000000001 313.85 96.4320000000001 321.102 75.8200000000001 321.102S38.0310000000001 313.851 24.2910000000001 299.346C9.7870000000001 285.606 2.5350000000001 268.43 2.5350000000001 247.8160000000001S9.7870000000001 210.028 24.2910000000001 196.288L390.7200000000001 -170.142C404.4600000000001 -184.645 421.6370000000001 -191.8970000000001 442.249 -191.8970000000001S480.038 -184.6450000000002 493.778 -170.1410000000001L860.2090000000001 196.289z" />
    <glyph glyph-name="arrow-down"
      unicode="&#xF11D;"
      horiz-adv-x="1024" d=" M-0.001 349.4840000000001Q-0.001 382.6840000000001 24.632 408.3880000000001L73.897 457.653Q98.53 483.356 133.873 483.356T192.777 457.653L386.625 264.876V728.612Q386.625 762.8820000000001 411.258 784.302T471.234 805.722H554.771Q590.1129999999999 805.722 614.747 784.302T639.38 728.612V264.876L833.2280000000001 457.653Q856.7900000000001 483.3559999999999 892.1320000000001 483.3559999999999T952.108 457.653L1001.373 408.388Q1026.006 383.755 1026.006 349.4839999999999Q1026.006 314.142 1001.373 289.5079999999999L571.9090000000001 -139.9560000000001Q549.4180000000001 -163.518 513.0050000000001 -163.518Q477.6630000000001 -163.518 453.0290000000001 -139.956L24.636 289.5080000000001Q0.003 315.2100000000001 0.003 349.4840000000001z" />
    <glyph glyph-name="arrow-left-square"
      unicode="&#xF11E;"
      horiz-adv-x="1024" d=" M496.453 817.556V519.684H1026.003V122.5219999999999H496.453V-175.3500000000001L0 321.103z" />
    <glyph glyph-name="arrow-left-thin"
      unicode="&#xF11F;"
      horiz-adv-x="1024" d=" M388.186 -96.855L21.757 269.574Q0.001 290.184 0.001 321.103T21.757 372.632L388.186 739.06Q408.797 760.816 439.715 760.816T491.244 739.06Q513 718.45 513 687.53T491.244 636.002L250.7740000000001 394.387H952.715Q983.632 394.387 1004.817 373.202T1026.002 321.1T1004.817 268.9980000000001T952.715 247.8130000000001H250.774L491.244 6.1980000000001Q502.6950000000001 -4.1079999999999 507.847 -17.848T513 -45.33T507.847 -72.813T491.244 -96.859Q470.633 -118.615 439.715 -118.615T388.186 -96.859z" />
    <glyph glyph-name="arrow-left"
      unicode="&#xF120;"
      horiz-adv-x="968" d=" M513.001 834.106C535.136 834.106 554.77 825.895 571.905 809.473L621.17 760.208C638.3059999999999 743.785 646.872 723.793 646.872 700.232S638.305 657.037 621.17 641.328L428.393 447.48H892.1289999999999C914.9769999999997 447.48 933.54 439.269 947.819 422.8470000000001S969.238 386.432 969.239 362.8710000000001V279.3340000000001C969.239 255.7720000000001 962.099 235.7810000000001 947.819 219.3580000000001S914.976 194.725 892.1289999999999 194.725H428.393L621.17 0.877C638.3059999999999 -14.831 646.872 -34.465 646.872 -58.027S638.305 -101.58 621.17 -118.003L571.905 -167.268C555.482 -183.69 535.8489999999999 -191.9010000000001 513.001 -191.9010000000001C489.439 -191.9010000000001 469.448 -183.691 453.025 -167.268L23.561 262.1950000000001C7.854 277.1900000000001 -0.001 296.8250000000001 -0.001 321.0990000000001C-0.001 344.6610000000001 7.853 364.653 23.561 381.0750000000001L453.025 809.469C470.873 825.891 490.867 834.102 513.001 834.102V834.104z" />
    <glyph glyph-name="arrow-right-square"
      unicode="&#xF121;"
      horiz-adv-x="1024" d=" M529.55 -175.3499999999999V122.524H0V519.685H529.55V817.557L1026.003 321.1040000000001z" />
    <glyph glyph-name="arrow-right-thin"
      unicode="&#xF122;"
      horiz-adv-x="1024" d=" M637.817 -96.857Q617.206 -118.6129999999999 586.288 -118.6129999999999T534.759 -96.857Q523.308 -86.5509999999999 518.1560000000001 -72.8109999999999T513.003 -45.328T518.1560000000001 -17.845T534.759 6.201L775.229 247.8160000000001H73.288Q42.371 247.8160000000001 21.186 269.001T0.001 321.103T21.186 373.205T73.288 394.39H775.229L534.759 636.0049999999999Q513.003 656.615 513.003 687.5339999999999T534.759 739.0629999999999Q555.37 760.819 586.288 760.819T637.817 739.0629999999999L1004.246 372.6329999999999Q1026.002 352.0229999999999 1026.002 321.1049999999999T1004.246 269.575L637.817 -96.852z" />
    <glyph glyph-name="arrow-right"
      unicode="&#xF123;"
      horiz-adv-x="971" d=" M457.066 -191.9000000000001C434.931 -191.9000000000001 415.297 -183.69 398.162 -167.2660000000001L348.897 -118.0010000000001C331.761 -101.5790000000001 323.195 -81.5860000000001 323.195 -58.0260000000001C323.195 -34.4640000000001 331.762 -14.83 348.897 0.8779999999999L541.674 194.7259999999999H77.938C55.091 194.7259999999999 36.527 202.9359999999999 22.248 219.3599999999999S0.829 255.774 0.828 279.3350000000001V362.8720000000001C0.828 386.4340000000001 7.968 406.4250000000001 22.248 422.8480000000001S55.091 447.4810000000001 77.938 447.4810000000001H541.674L348.897 641.33C331.761 657.038 323.195 676.672 323.195 700.234S331.762 743.787 348.897 760.21L398.162 809.475C414.585 825.897 434.218 834.108 457.066 834.108C480.628 834.108 500.619 825.897 517.0419999999999 809.475L946.506 380.01C962.213 365.015 970.068 345.38 970.068 321.106C970.068 297.544 962.213 277.552 946.506 261.13L517.0419999999999 -167.2629999999999C499.1939999999999 -183.6859999999999 479.1999999999999 -191.8959999999999 457.0659999999999 -191.8959999999999V-191.8989999999999z" />
    <glyph glyph-name="arrow-up-left-square"
      unicode="&#xF124;"
      horiz-adv-x="1024" d=" M0 834.105H737.439L480.939 577.605L1026.003 32.5410000000001L801.5649999999999 -191.8969999999999L256.501 353.1670000000001L0.001 96.667V834.106z" />
    <glyph glyph-name="arrow-up-left-thin"
      unicode="&#xF125;"
      horiz-adv-x="899" d=" M876.048 -0.3579999999999C890.852 -14.386 898.257 -31.92 898.257 -52.9599999999999S890.8539999999999 -91.5359999999999 876.048 -105.5619999999999C869.034 -113.3579999999999 860.851 -119.0069999999999 851.5 -122.5139999999999S832.797 -127.7709999999998 823.446 -127.7709999999998S804.743 -126.0179999999998 795.392 -122.5139999999999C786.041 -119.0089999999999 777.8580000000001 -113.3579999999999 770.844 -105.5619999999999L150.1310000000001 513.9780000000001V246.29C150.1310000000001 225.248 142.9210000000001 207.519 128.5020000000001 193.102C114.0820000000001 178.685 96.3540000000001 171.476 75.3150000000001 171.472S36.5470000000001 178.68 22.1280000000001 193.102C7.708 207.526 0.499 225.2530000000001 0.499 246.29V695.167C0.499 699.843 0.887 704.713 1.666 709.782S4.003 719.328 6.345 723.221C11.798 737.249 20.954 748.549 33.812 757.121S60.5 769.983 75.306 769.983H524.182C545.224 769.983 562.952 762.773 577.369 748.3530000000001S598.995 716.206 598.998 695.167S591.791 656.399 577.369 641.98C562.946 627.5600000000001 545.2180000000001 620.35 524.182 620.35H256.495L876.05 -0.356z" />
    <glyph glyph-name="arrow-up-right-square"
      unicode="&#xF126;"
      horiz-adv-x="1024" d=" M1026.003 834.105V96.665L769.5029999999999 353.165L224.439 -191.8980000000001L0.001 32.54L545.0649999999999 577.6039999999999L288.565 834.1039999999999H1026.004z" />
    <glyph glyph-name="arrow-up-right-thin"
      unicode="&#xF127;"
      horiz-adv-x="899" d=" M22.209 -0.3579999999999C7.405 -14.386 0 -31.92 0 -52.96S7.403 -91.5360000000001 22.209 -105.562C29.223 -113.358 37.406 -119.007 46.757 -122.514S65.46 -127.7709999999999 74.811 -127.7709999999999S93.514 -126.0179999999999 102.865 -122.514C112.216 -119.009 120.399 -113.358 127.413 -105.562L748.126 513.978V246.29C748.126 225.248 755.336 207.519 769.755 193.102S801.903 171.476 822.942 171.472C843.982 171.471 861.71 178.68 876.129 193.102S897.758 225.252 897.758 246.29V695.167C897.758 699.843 897.37 704.713 896.591 709.782S894.254 719.328 891.912 723.221C886.4590000000001 737.249 877.303 748.549 864.445 757.121S837.7570000000001 769.983 822.951 769.983H374.075C353.033 769.983 335.305 762.773 320.888 748.3530000000001S299.262 716.206 299.259 695.167S306.466 656.399 320.888 641.98C335.311 627.5600000000001 353.039 620.35 374.075 620.35H641.762L22.207 -0.356z" />
    <glyph glyph-name="arrow-up-square"
      unicode="&#xF128;"
      horiz-adv-x="993" d=" M992.906 337.6520000000001H695.034V-191.8979999999999H297.872V337.6520000000001H0L496.453 834.105L992.905 337.6520000000001z" />
    <glyph glyph-name="arrow-up-thin"
      unicode="&#xF129;"
      horiz-adv-x="882" d=" M860.211 445.919C874.716 432.179 881.968 415.003 881.968 394.389S874.716 356.601 860.211 342.861C853.34 335.227 845.3240000000001 329.6910000000001 836.165 326.2580000000001S817.843 321.105 808.682 321.105C799.52 321.1040000000001 790.36 322.822 781.1990000000001 326.2580000000001S764.022 335.2280000000001 757.153 342.861L515.537 583.3299999999999V-118.6100000000001C515.537 -139.2210000000001 508.4760000000001 -156.5880000000002 494.352 -170.7120000000002S462.862 -191.8970000000001 442.2510000000001 -191.8970000000001S404.273 -184.8370000000002 390.1490000000001 -170.7120000000002S368.9630000000001 -139.2220000000002 368.9630000000001 -118.6100000000002V583.3299999999999L127.348 342.86C113.609 328.357 96.432 321.105 75.82 321.105S38.031 328.355 24.291 342.861C9.787 356.6 2.535 373.777 2.535 394.39S9.787 432.179 24.291 445.919L390.7200000000001 812.348C404.4600000000001 826.852 421.6370000000001 834.104 442.249 834.104S480.038 826.852 493.778 812.348L860.2090000000001 445.918z" />
    <glyph glyph-name="arrow-up"
      unicode="&#xF12A;"
      horiz-adv-x="1024" d=" M1026.004 292.722Q1026.004 259.522 1001.3709999999998 233.818L952.1059999999998 184.553Q927.4729999999998 158.85 892.1299999999999 158.85T833.2259999999999 184.553L639.378 377.33V-86.4059999999999Q639.378 -120.6769999999999 614.745 -142.096T554.769 -163.5160000000001H471.232Q435.89 -163.5160000000001 411.256 -142.0960000000001T386.623 -86.4060000000002V377.33L192.775 184.553Q169.213 158.85 133.871 158.85T73.895 184.553L24.63 233.818Q-0.003 258.4500000000001 -0.003 292.722Q-0.003 328.064 24.63 352.698L454.094 782.162Q476.585 805.724 512.998 805.724Q548.34 805.724 572.974 782.162L1001.367 352.698Q1026 326.995 1026 292.722z" />
    <glyph glyph-name="asterisk"
      unicode="&#xF12B;"
      horiz-adv-x="956" d=" M914.094 219.164C934.666 207.41 947.8900000000002 189.776 953.769 166.264C959.647 143.49 957.075 121.816 946.054 101.244L903.074 28.509C891.3209999999999 7.938 874.055 -5.2859999999999 851.2779999999999 -11.165C827.7669999999999 -17.043 806.0929999999998 -14.471 786.257 -3.4509999999999L608.828 97.937V-105.94C608.828 -128.715 600.379 -148.9200000000001 583.48 -166.5520000000001C566.582 -183.45 546.379 -191.902 522.868 -191.902H438.0110000000001C414.5000000000001 -191.902 394.2950000000001 -183.452 377.3990000000001 -166.5520000000001C360.5010000000001 -148.9200000000002 352.0510000000001 -128.7150000000001 352.0510000000001 -105.9400000000002V97.939L174.62 -3.451C154.048 -14.471 132.375 -17.0410000000001 109.6 -11.164S69.192 7.938 56.701 28.51L14.823 101.245C3.802 121.8150000000001 1.232 143.49 7.108 166.265C12.986 189.7770000000001 26.21 207.409 46.782 219.165L223.109 321.655L46.782 424.144C26.211 435.897 12.986 453.164 7.108 475.941S3.802 520.389 14.823 540.961L56.701 613.696C69.19 635.003 86.823 648.594 109.6 654.472S154.048 657.4110000000001 174.62 645.655L352.049 544.267V749.2470000000001C352.049 772.022 360.498 791.86 377.397 808.7570000000001S414.499 834.104 438.009 834.105H522.866C546.377 834.105 566.582 825.655 583.478 808.7570000000001S608.8259999999999 772.0210000000001 608.8259999999999 749.2460000000001V544.2660000000001L786.2549999999999 645.6540000000001C806.0919999999999 657.4070000000002 827.3979999999999 660.3470000000001 850.1729999999999 654.4710000000001C873.6839999999999 648.5930000000001 891.3159999999999 635.0010000000001 903.0719999999998 613.6950000000002L946.052 540.96C957.0729999999998 520.3890000000001 959.643 498.7150000000001 953.767 475.9400000000001S934.665 435.8990000000001 914.092 424.1430000000002L736.665 321.6530000000002L914.094 219.1630000000001z" />
    <glyph glyph-name="backward"
      unicode="&#xF12C;"
      horiz-adv-x="979" d=" M513.001 834.105V367.74L979.366 834.105V-191.8979999999999L513.001 274.466V-191.8979999999999L0 321.102L513.001 834.105z" />
    <glyph glyph-name="bars"
      unicode="&#xF12D;"
      horiz-adv-x="1024" d=" M1004.888 73.879H22.221C16.295 73.879 11.11 71.657 6.666 67.211S-0.002 57.583 -0.002 51.6560000000001V-155.0119999999999C-0.002 -160.9379999999999 2.22 -166.123 6.666 -170.567S16.295 -177.2349999999999 22.221 -177.2349999999999H1004.888C1010.815 -177.2349999999999 1015.815 -175.0129999999999 1019.891 -170.567C1023.964 -166.123 1026.0030000000002 -160.9380000000001 1026.0030000000002 -155.0119999999999V51.656C1026.0030000000002 57.583 1023.9650000000001 62.766 1019.8910000000002 67.2109999999999C1015.8140000000002 71.6549999999999 1010.8150000000002 73.8789999999999 1004.8880000000001 73.8789999999999zM1019.891 812.772C1015.818 817.216 1010.8170000000002 819.44 1004.8890000000002 819.44H22.221C16.295 819.44 11.11 817.2180000000001 6.666 812.772S-0.002 803.144 -0.002 797.217V590.549C-0.002 583.881 2.22 578.511 6.666 574.4359999999999S16.295 568.324 22.221 568.324H1004.889C1018.963 568.324 1026.001 575.731 1026.001 590.547V797.217C1026.003 803.144 1023.968 808.327 1019.891 812.772zM1004.888 446.1020000000001H22.221C16.295 446.1020000000001 11.11 443.8810000000001 6.666 439.4350000000001S-0.002 429.8070000000001 -0.002 423.8800000000001V217.212C-0.002 211.286 2.22 206.101 6.666 201.6570000000001S16.295 194.989 22.221 194.989H1004.888C1010.815 194.989 1015.815 197.211 1019.891 201.6570000000001C1023.964 206.101 1026.0030000000002 211.2860000000001 1026.0030000000002 217.212V423.88C1026.0030000000002 429.807 1023.9650000000001 434.99 1019.8910000000002 439.435C1015.8140000000002 443.879 1010.8150000000002 446.103 1004.8880000000001 446.103z" />
    <glyph glyph-name="bold"
      unicode="&#xF12E;"
      horiz-adv-x="947" d=" M373.724 -99.282C406.568 -114.138 437.848 -121.57 467.564 -121.57C635.692 -121.57 719.755 -46.5 719.755 103.6429999999999C719.755 154.473 710.763 194.743 692.778 224.4599999999999C680.263 244.0099999999999 666.187 260.43 650.549 273.7249999999999C635.692 287.0199999999999 620.835 297.185 605.978 304.223C591.1189999999999 312.043 573.1339999999999 317.9079999999999 552.019 321.817S512.138 328.072 495.716 328.855C479.295 329.6380000000001 458.182 330.028 432.374 330.028C399.531 330.028 376.8540000000001 327.682 364.341 322.99V110.6800000000001C364.341 106.7700000000001 363.952 91.5220000000001 363.169 64.9350000000001S362.386 16.8430000000001 363.169 0.423C363.169 -16.001 363.953 -34.375 365.515 -54.708C367.86 -75.823 370.598 -90.679 373.726 -99.28L373.724 -99.283zM364.338 400.408C383.105 397.282 407.347 395.717 437.063 395.717C473.817 395.717 505.878 398.454 533.25 403.927C560.619 410.183 585.252 420.349 607.147 434.426S645.856 468.442 657.5820000000001 494.246C668.5330000000001 520.053 674.0060000000001 551.721 674.0060000000001 589.26C674.0060000000001 620.539 667.7510000000001 647.908 655.239 671.3679999999999C641.947 694.828 623.9590000000001 713.203 601.282 726.498C579.3870000000001 739.7909999999999 555.5360000000001 749.567 529.729 755.825C503.924 762.0799999999999 476.163 765.208 446.4480000000001 765.208C423.7720000000001 765.208 394.838 762.081 359.646 755.825C359.646 733.93 360.4290000000001 700.304 361.992 654.948S364.3370000000001 575.575 364.3370000000001 552.8979999999999V400.408zM1.887 -195.4649999999999L3.06 -132.1229999999999C10.098 -130.5579999999999 29.257 -127.0379999999999 60.535 -121.568C91.815 -116.095 115.273 -110.2289999999999 130.914 -103.975C134.041 -98.5 136.78 -92.2470000000001 139.125 -85.208C142.2520000000001 -78.953 144.208 -71.523 144.9900000000001 -62.92C146.5560000000001 -55.0999999999999 147.728 -48.063 148.5080000000001 -41.8049999999999C150.0740000000001 -35.549 150.8540000000001 -26.947 150.8540000000001 -16V50.86C150.8540000000001 489.555 146.161 718.289 136.7780000000001 737.056C135.2120000000001 740.966 130.1310000000001 744.484 121.5290000000001 747.6120000000001C113.7080000000001 749.9580000000001 103.9350000000001 752.3050000000001 92.2030000000001 754.6500000000001C80.4740000000001 756.215 69.5260000000001 757.777 59.3590000000001 759.3430000000001L26.5150000000001 761.688C14.7870000000001 763.253 7.7490000000001 764.034 5.4000000000001 764.034L3.057 820.335C46.849 821.117 122.702 823.461 230.615 827.373C339.312 832.063 422.986 834.4110000000001 481.633 834.4110000000001C491.8 834.4110000000001 507.049 834.02 527.38 833.238H571.952C603.234 833.238 633.728 830.498 663.444 825.026C693.1579999999999 818.771 722.092 809.386 750.247 796.875C777.615 783.581 801.466 767.55 821.798 748.783C842.914 730.016 859.724 706.556 872.233 678.403C884.748 651.034 891 620.537 891 586.913C891 563.453 887.09 541.947 879.272 522.4C872.2330000000001 502.85 863.634 486.818 853.4670000000001 474.308C843.3000000000001 461.796 828.8370000000001 448.893 810.0680000000001 435.598C791.301 423.086 774.8780000000002 412.921 760.8020000000001 405.101C747.5100000000001 398.063 728.7420000000002 389.461 704.4990000000001 379.296C773.3120000000001 363.656 830.7910000000002 333.548 876.9270000000001 288.976S946.1350000000002 188.881 946.1350000000002 122.412C946.1350000000002 77.8390000000001 938.314 37.9580000000001 922.674 2.7670000000001C907.036 -33.2039999999999 885.9230000000001 -62.5309999999999 859.3340000000001 -85.208C833.5290000000001 -107.886 802.639 -127.043 766.6680000000001 -142.683C731.4780000000001 -157.54 695.1170000000001 -168.0979999999999 657.5780000000001 -174.354C620.0430000000001 -180.6079999999999 580.5520000000001 -183.738 539.1070000000001 -183.738C519.556 -183.738 490.2330000000001 -183.3479999999999 451.1310000000001 -182.565C412.0340000000001 -180.999 15.1710000000001 -195.4680000000001 1.8770000000001 -195.4680000000001H1.8850000000001z" />
    <glyph glyph-name="book"
      unicode="&#xF12F;"
      horiz-adv-x="1028" d=" M952.712 827.075Q979.817 834.103 1001.904 818.04Q1023.991 800.972 1023.991 773.868V-2.1579999999999Q1023.991 -26.2529999999999 1007.928 -46.3299999999999T968.776 -72.4309999999999L548.135 -186.8779999999999Q539.1 -190.894 528.056 -190.894Q517.0120000000001 -191.8979999999999 509.985 -191.8979999999999Q498.941 -191.8979999999999 488.902 -190.894Q477.8580000000001 -188.886 469.8270000000001 -186.8779999999999L58.222 -72.431Q35.131 -66.407 20.074 -46.331Q4.011 -26.251 4.011 -2.158V771.86Q4.011 800.973 26.098 817.0360000000001Q48.185 834.104 76.293 827.076L485.891 712.63Q493.923 710.622 507.978 710.622T531.069 712.63zM480.872 -124.6369999999999V648.3779999999999Q476.856 649.382 473.844 649.382L467.82 651.39L66.253 762.825V-2.16Q66.253 -4.168 69.265 -7.1799999999999L74.284 -12.198L482.878 -124.6379999999999H480.87zM959.74 -2.16V762.825L545.123 651.39V-120.621L952.713 -12.198Q955.725 -10.1899999999999 957.732 -7.179Q960.744 -4.167 960.744 -2.16H959.7399999999998zM643.506 463.658Q633.466 463.658 625.435 470.686Q616.4 476.71 614.391 487.754Q610.375 499.801 616.399 510.844Q623.427 522.892 636.478 525.904L860.352 589.1510000000001Q872.399 592.163 883.443 586.139T898.502 566.059Q902.518 554.013 896.4939999999999 542.969Q889.4659999999999 531.9250000000001 876.415 527.9090000000001L651.538 465.6660000000001Q649.53 463.6580000000001 647.522 463.6580000000001H643.5060000000001zM643.506 272.914Q633.466 272.914 625.435 278.938Q616.4 285.966 612.3839999999999 297.0080000000001Q609.372 309.0560000000001 615.3959999999998 320.1T635.4749999999998 335.159L858.3439999999998 397.403Q870.3909999999998 401.4190000000001 881.4349999999998 395.3950000000001Q893.4819999999999 388.367 896.4939999999998 375.3150000000001Q900.5099999999998 363.2690000000001 894.4859999999998 352.225Q887.4579999999997 340.178 874.4069999999998 337.1650000000001L651.538 273.92Q649.53 272.916 647.522 272.916H643.5060000000001zM643.506 81.1659999999999Q633.466 81.1659999999999 625.435 87.1899999999999Q616.4 94.218 612.3839999999999 105.26Q609.372 117.308 615.3959999999998 128.352Q621.4199999999998 140.399 635.4749999999998 144.415L858.3439999999998 206.659Q870.3909999999998 210.675 881.4349999999998 204.651Q893.4819999999999 197.6229999999999 896.4939999999998 184.5709999999999Q900.5099999999998 172.5249999999999 894.4859999999998 161.4809999999999Q887.4579999999997 149.4339999999999 874.4069999999998 145.4179999999999L651.5379999999998 83.1739999999999Q649.5299999999997 82.1699999999999 647.5219999999998 82.1699999999999Q645.5139999999998 81.1659999999998 643.5059999999999 81.1659999999998zM397.5470000000001 525.902Q409.5940000000001 522.89 416.622 511.846Q423.6500000000001 499.799 419.634 485.745Q417.6260000000001 476.71 409.594 470.685Q400.559 463.658 389.515 463.658H386.503L381.484 465.666L157.61 527.9100000000001Q144.559 531.926 138.535 541.966Q131.507 553.01 135.523 566.061Q137.531 580.117 149.579 586.1400000000001T173.674 589.152zM397.5470000000001 335.157Q409.5940000000001 331.141 416.622 320.097Q423.6500000000001 308.051 419.634 295Q417.6260000000001 284.9600000000001 409.594 278.937Q400.559 272.913 389.515 272.913H386.503L381.484 273.9170000000001L157.61 337.164Q144.559 340.176 138.535 351.2200000000001Q131.507 362.264 135.523 375.3150000000001Q137.531 388.3650000000001 149.579 395.3940000000001Q161.626 401.4180000000001 173.674 397.4020000000001zM397.5470000000001 144.4119999999999Q409.5940000000001 140.396 416.622 129.352Q423.6500000000001 117.3059999999999 419.634 104.255Q417.6260000000001 94.215 409.594 88.192Q400.559 81.164 389.515 81.164H386.503Q383.491 82.168 381.484 83.172L157.61 145.4160000000001Q144.559 149.432 138.535 159.4720000000001Q131.507 170.5160000000001 135.523 184.5700000000001Q137.531 197.62 149.579 203.6450000000001Q161.626 210.6730000000001 173.674 206.6570000000001z" />
    <glyph glyph-name="bookmark"
      unicode="&#xF130;"
      horiz-adv-x="874" d=" M793.065 834.105C803.0790000000001 834.105 812.7070000000001 831.408 821.95 826.017C838.897 821.395 851.606 812.922 860.0790000000001 800.597S872.788 774.407 872.788 759.002V-116.798C872.788 -132.203 868.551 -146.4539999999999 860.0790000000001 -159.549C851.6060000000001 -171.873 838.8950000000001 -181.116 821.95 -187.279C812.707 -190.3599999999999 803.0790000000001 -191.902 793.065 -191.902C772.269 -191.902 753.782 -184.969 737.606 -171.104L437.2 116.593L139.105 -171.104C122.158 -184.971 103.672 -191.902 83.646 -191.902C72.861 -191.902 62.463 -190.3600000000001 52.451 -187.279C37.816 -181.1169999999999 26.26 -171.874 17.788 -159.549C8.545 -146.4539999999999 3.922 -132.203 3.922 -116.799V759.001C3.922 774.4069999999999 8.159 788.2729999999999 16.631 800.598C25.874 812.922 37.814 821.395 52.449 826.0169999999999C62.463 831.4069999999999 72.861 834.105 83.644 834.105H793.0639999999999z" />
    <glyph glyph-name="bullhorn-2"
      unicode="&#xF131;"
      horiz-adv-x="1024" d=" M951.786 481.059Q982.102 481.059 1003.551 459.609T1025.001 407.8440000000001T1003.551 356.0790000000001T951.786 334.629V114.986Q951.786 85.2429999999999 930.051 63.506T878.5719999999999 41.7719999999999Q640.0529999999999 240.252 414.1179999999999 259.127Q380.9429999999999 248.2589999999999 362.0669999999999 221.376T344.3359999999999 163.891T367.2149999999999 110.981Q355.7749999999999 92.107 354.0589999999999 73.516T357.491 40.341T376.6529999999999 8.881T404.1089999999999 -19.719T439.286 -48.6030000000001Q422.699 -81.778 375.51 -96.0780000000001T279.13 -102.6550000000001T203.627 -70.9100000000001Q199.623 -57.7540000000001 186.754 -20.8610000000001T168.45 33.1919999999999T155.294 84.0989999999999T146.715 141.8689999999999T148.717 198.209T161.3 261.415H91.518Q53.767 261.415 26.884 288.298T0.001 352.932V462.752Q0.001 500.504 26.884 527.387T91.518 554.27H366.072Q614.886 554.27 878.572 773.913Q908.315 773.913 930.051 752.178T951.786 700.698V481.056zM878.5719999999999 135.578V681.254Q653.2089999999998 508.514 439.2859999999999 485.062V330.625Q654.9259999999999 306.602 878.5719999999999 135.578z" />
    <glyph glyph-name="bullhorn"
      unicode="&#xF132;"
      horiz-adv-x="1024" d=" M1025.001 449.486C1025.001 650.608 966.152 813.78 893.39 815.069C893.682 815.075 893.9689999999999 815.099 894.263 815.099H811.24S616.25 668.619 335.545 611.146C326.9770000000001 565.81 321.5010000000001 511.775 321.5010000000001 449.486S326.9720000000001 333.164 335.545 287.828C616.247 230.3540000000001 811.24 83.8730000000001 811.24 83.8730000000001H894.263C893.971 83.8730000000001 893.6840000000001 83.8970000000001 893.39 83.9050000000001C966.157 85.1940000000001 1025.001 248.3640000000001 1025.001 449.4850000000001zM865.669 139.1859999999999C856.278 139.1859999999999 846.1179999999999 148.939 840.899 154.7499999999999C828.257 168.8279999999999 816.083 190.7449999999999 805.677 218.1399999999999C782.398 279.4319999999999 769.576 361.5899999999999 769.576 449.4899999999999C769.576 537.386 782.399 619.5459999999999 805.677 680.838C816.081 708.233 828.261 730.1519999999999 840.899 744.2279999999998C846.118 750.0459999999999 856.278 759.7949999999998 865.669 759.7949999999998C875.058 759.7949999999998 885.2239999999999 750.0409999999999 890.437 744.2279999999998C903.083 730.1499999999999 915.257 708.2349999999999 925.659 680.838C948.94 619.5479999999999 961.762 537.386 961.762 449.4899999999999C961.762 361.5999999999999 948.939 279.4359999999999 925.659 218.1399999999999C915.259 190.7449999999999 903.075 168.8279999999999 890.437 154.7499999999999C885.224 148.9379999999999 875.062 139.1869999999999 865.669 139.1869999999999zM252.058 449.486C252.058 501.4859999999999 255.872 552.016 263.121 598.7259999999999C215.703 592.1659999999999 174.092 588.3919999999999 122.644 588.3919999999999H55.52L0 493.612V405.3570000000001L55.514 310.577H122.64C174.088 310.577 215.699 306.8 263.117 300.2440000000001C255.874 346.9540000000001 252.058 397.4840000000001 252.058 449.486zM368.51 236.362L240.387 260.896L322.309 -60.962C326.549 -77.612 343.073 -86.024 359.031 -79.634L477.703 -32.136C493.663 -25.754 500.053 -8.149 491.913 6.986L368.51 236.362zM865.669 329.895C862.047 329.895 858.134 333.653 856.122 335.8930000000001C851.247 341.318 846.5569999999999 349.7670000000001 842.5469999999999 360.3250000000001C833.5759999999999 383.9480000000001 828.6329999999999 415.6130000000001 828.6329999999999 449.4900000000001S833.5759999999999 515.032 842.5469999999999 538.6550000000001C846.5569999999999 549.2130000000001 851.252 557.662 856.122 563.0870000000001C858.1339999999999 565.3290000000002 862.048 569.0870000000001 865.669 569.0870000000001S873.206 565.3270000000001 875.216 563.0870000000001C880.091 557.662 884.7810000000001 549.2150000000001 888.789 538.6550000000001C897.762 515.0340000000001 902.705 483.3670000000001 902.705 449.4900000000001C902.705 415.6150000000001 897.7620000000001 383.9480000000001 888.789 360.3250000000001C884.781 349.7670000000001 880.084 341.3180000000001 875.216 335.8930000000001C873.206 333.653 869.29 329.895 865.669 329.895z" />
    <glyph glyph-name="calendar-plus-o"
      unicode="&#xF133;"
      horiz-adv-x="954" d=" M881.613 687.675C901.004 687.675 918.054 680.32 932.764 665.61C947.473 651.567 954.829 634.519 954.829 614.46V-118.6849999999999C954.829 -138.0749999999999 947.474 -155.125 932.764 -169.835S901.004 -191.9010000000001 881.613 -191.9010000000001H75.254C55.864 -191.9010000000001 38.813 -184.546 24.104 -169.835S2.038 -138.075 2.038 -118.685V614.4590000000001C2.038 634.518 9.392 651.566 24.104 665.609C38.813 680.318 55.864 687.674 75.254 687.674H148.467V742.837C148.467 767.575 157.493 788.972 175.545 807.026S214.994 834.104 239.734 834.104H276.842C302.25 834.104 323.647 825.077 341.031 807.026C359.0849999999999 788.972 368.108 767.576 368.108 742.836V687.674H588.7539999999999V742.837C588.7539999999999 767.575 597.4449999999999 788.972 614.8279999999999 807.026C632.8819999999998 825.079 654.6119999999999 834.104 680.0209999999998 834.104H716.1259999999999C741.5329999999999 834.104 763.2639999999999 825.077 781.3169999999999 807.026C799.3719999999998 788.972 808.3949999999999 767.576 808.3949999999999 742.836V687.674H881.6089999999999zM661.971 742.835V577.352C661.971 572.002 663.644 567.6569999999999 666.986 564.3119999999999S674.677 559.297 680.026 559.297H716.131C722.149 559.297 726.828 560.97 730.173 564.3119999999999S735.188 572.002 735.188 577.352V742.836C735.188 748.184 733.516 752.53 730.173 755.875S722.149 760.89 716.131 760.89H680.026C674.6769999999999 760.89 670.3309999999999 759.2180000000001 666.986 755.875S661.971 748.184 661.971 742.835zM221.682 742.835V577.352C221.682 572.002 223.354 567.6569999999999 226.697 564.3119999999999S234.387 559.297 239.736 559.297H276.844C282.193 559.297 286.539 560.97 289.884 564.3119999999999S294.899 572.002 294.899 577.352V742.836C294.899 748.184 293.226 752.53 289.884 755.875S282.1930000000001 760.89 276.844 760.89H239.736C234.387 760.89 230.042 759.2180000000001 226.697 755.875S221.682 748.184 221.682 742.835zM881.613 -118.683V468.033H75.254V-118.683H881.613zM515.542 211.2820000000001H642.914C648.263 211.2820000000001 652.608 209.61 655.953 206.2670000000001C659.9649999999999 202.9240000000001 661.971 198.576 661.971 193.2270000000001V156.1200000000001C661.971 150.7700000000001 660.299 146.4250000000001 656.956 143.0800000000002C652.9440000000001 139.7380000000002 648.265 138.0650000000002 642.914 138.0650000000002H515.542V9.6900000000001C515.542 4.34 513.87 -0.0039999999999 510.527 -3.3499999999999C506.515 -6.6919999999999 501.835 -8.3639999999999 496.484 -8.3639999999999H460.38C455.031 -8.3639999999999 450.685 -6.6919999999999 447.34 -3.3489999999999C443.328 -0.006 441.322 4.3410000000001 441.322 9.6900000000001V138.066H313.951C307.9330000000001 138.066 303.254 139.739 299.9090000000001 143.081S294.8940000000001 150.7710000000001 294.8940000000001 156.121V193.2289999999999C294.8940000000001 198.5769999999999 296.5660000000001 202.9229999999999 299.9090000000001 206.2679999999999S307.9330000000001 211.2829999999999 313.951 211.2829999999999H441.3230000000001V339.6570000000001C441.3230000000001 345.0060000000001 442.9960000000001 349.351 446.338 352.6960000000001C450.35 356.708 455.03 358.7140000000001 460.381 358.7140000000001H496.485C501.834 358.7140000000001 506.18 356.7080000000001 509.525 352.6960000000001C513.537 349.3530000000001 515.543 345.006 515.543 339.6560000000001V211.2820000000001z" />
    <glyph glyph-name="calendar"
      unicode="&#xF134;"
      horiz-adv-x="952" d=" M72.722 -119.732H237.97V46.5599999999999H72.722V-119.7320000000001zM274.576 -119.732H458.651V46.5599999999999H274.576V-119.7320000000001zM72.722 83.168H237.97V267.242H72.722V83.1679999999999zM274.576 83.168H458.651V267.242H274.576V83.1679999999999zM72.722 302.802H237.97V468.05H72.722V302.802zM494.21 -119.732H678.285V46.5599999999999H494.21V-119.7320000000001zM274.576 302.802H458.651V468.05H274.576V302.802zM714.889 -119.732H880.137V46.5599999999999H714.889V-119.7320000000001zM494.21 83.168H678.2850000000001V267.242H494.21V83.1679999999999zM293.402 577.866V743.114C293.402 747.994 291.658 752.179 288.173 755.664C283.989 759.149 279.456 760.893 274.577 760.893H237.971C233.09 760.893 228.907 759.15 225.421 755.663S220.192 747.995 220.192 743.113V577.866C220.192 572.985 221.935 568.453 225.421 564.27C228.906 560.785 233.09 559.04 237.971 559.04H274.577C279.458 559.04 283.642 560.784 287.127 564.27C291.31 568.453 293.402 572.987 293.402 577.866zM714.889 83.168H880.137V267.242H714.889V83.1679999999999zM494.21 302.802H678.285V468.05H494.21V302.802zM714.889 302.802H880.137V468.05H714.889V302.802zM732.669 577.866V743.114C732.669 747.994 731.275 752.179 728.486 755.664C725.001 759.149 720.467 760.893 714.89 760.893H678.284C673.403 760.893 669.2189999999999 759.15 665.734 755.663C661.551 752.179 659.4590000000001 747.995 659.4590000000001 743.113V577.866C659.4590000000001 572.985 661.2030000000001 568.453 664.6880000000001 564.27C668.8720000000001 560.785 673.4050000000001 559.04 678.2840000000001 559.04H714.8900000000001C720.4670000000001 559.04 724.652 560.784 727.44 564.27C730.9250000000001 568.453 732.6690000000001 572.987 732.6690000000001 577.866zM953.348 613.426V-119.7339999999999C953.348 -139.2549999999999 946.027 -156.3389999999999 931.386 -170.98C916.046 -184.9259999999999 898.963 -191.8969999999999 880.1379999999999 -191.8969999999999H72.723C53.2 -191.8969999999999 36.117 -184.924 21.475 -170.98C6.834 -156.3399999999999 -0.487 -139.256 -0.487 -119.733V613.4259999999999C-0.487 633.646 6.834 651.078 21.475 665.719C36.116 681.059 53.2 688.7280000000001 72.723 688.7280000000001H144.887V743.113C144.887 767.517 153.952 788.783 172.081 806.9110000000001C190.906 825.0409999999999 212.87 834.106 237.97 834.106H274.576C299.677 834.106 320.942 825.041 338.374 806.9110000000001C356.504 788.781 365.568 767.518 365.568 743.113V688.729H587.294V743.113C587.294 767.517 596.011 788.783 613.443 806.9110000000001C631.571 825.04 653.186 834.105 678.286 834.105H714.8919999999999C739.9929999999999 834.105 761.2579999999999 825.04 778.6899999999999 806.91C796.8199999999999 788.78 805.8839999999999 767.517 805.8839999999999 743.112V688.7280000000001H880.1409999999998C898.9659999999999 688.7280000000001 915.7009999999998 681.058 930.3429999999998 665.7180000000001C945.682 651.078 953.3509999999998 633.647 953.3499999999998 613.426z" />
    <glyph glyph-name="caret-down"
      unicode="&#xF135;"
      horiz-adv-x="587" d=" M586.144 474.975Q586.144 460.947 575.122 449.927L318.622 193.427Q307.6 182.405 293.574 182.405Q278.544 182.405 267.524 193.427L11.0239999999999 449.927Q0.002 460.949 0.002 474.975Q0.002 490.005 11.024 501.025T37.074 512.047H550.0749999999999Q564.103 512.047 575.1229999999999 501.025T586.145 474.975z" />
    <glyph glyph-name="caret-left"
      unicode="&#xF136;"
      horiz-adv-x="366" d=" M387.338 607.01V36.313Q387.338 19.593 375.077 7.333T346.097 -4.928T317.117 7.332L31.769 292.682Q20.622 304.942 20.622 321.6620000000001T31.769 349.528L317.117 634.876Q329.3780000000001 647.136 346.0970000000001 647.136T375.0770000000001 634.876Q387.3380000000001 623.729 387.3380000000001 607.01z" />
    <glyph glyph-name="caret-right"
      unicode="&#xF137;"
      horiz-adv-x="366" d=" M366.716 321.659Q366.716 304.939 354.455 292.679L69.107 7.33Q56.846 -4.9299999999999 41.241 -4.9299999999999Q24.522 -4.9299999999999 12.261 7.33T0 36.3099999999999V607.009Q0 623.7280000000001 12.261 634.875Q24.522 647.135 41.241 647.135Q56.846 647.135 69.107 634.875L354.4550000000001 349.5270000000001Q366.7160000000001 338.38 366.7160000000001 321.6610000000001z" />
    <glyph glyph-name="caret-up"
      unicode="&#xF138;"
      horiz-adv-x="587" d=" M586.144 182.403Q586.144 167.3730000000001 575.122 156.3530000000001T550.074 145.331H37.073Q22.043 145.331 11.023 156.3530000000001T0.001 182.403T11.023 208.453L267.523 464.953Q278.545 474.973 293.5730000000001 474.973Q307.6010000000001 474.973 318.6210000000001 464.953L575.1210000000001 208.453Q586.1430000000001 197.4309999999999 586.1430000000001 182.403z" />
    <glyph glyph-name="chart-area"
      unicode="&#xF139;"
      horiz-adv-x="1024" d=" M1026.003 -1.211V-64.274H0V706.48H63.063V-1.211H1026.0030000000002zM833.814 513.29L962.94 64.85H127.124V354.136L351.343 642.4179999999999L640.626 354.136z" />
    <glyph glyph-name="chart-column"
      unicode="&#xF13A;"
      horiz-adv-x="1024" d=" M990.605 834.104Q1004.565 834.104 1013.537 825.13Q1023.508 815.159 1023.508 802.198V-158.9949999999999Q1023.508 -171.9579999999998 1013.537 -180.9299999999998Q1003.566 -190.9009999999998 990.605 -190.9009999999998H760.277Q746.317 -190.9009999999998 737.345 -181.9269999999999Q727.374 -171.9569999999999 727.374 -158.9949999999999V802.198Q727.374 815.161 737.345 824.133Q747.316 834.103 760.277 834.103H990.605zM265.723 513.0419999999999Q280.68 513.0419999999999 289.652 504.068Q299.623 495.094 298.626 482.133V-159.991Q298.626 -172.9539999999999 288.655 -181.9259999999999Q278.684 -191.8969999999999 265.723 -191.8969999999999H35.395Q21.435 -191.8969999999999 12.463 -182.923Q2.492 -172.953 2.492 -159.991V482.133Q2.492 495.096 12.463 504.068T35.395 513.0419999999999H265.723zM629.66 322.598Q642.6229999999999 322.598 651.5949999999999 313.6239999999999Q660.569 303.6529999999999 659.5719999999999 290.6919999999999V-158.9950000000001Q659.5719999999999 -171.9580000000001 650.5979999999998 -180.9300000000001Q640.6269999999998 -190.9010000000001 627.6659999999998 -190.9010000000001H396.341Q382.3810000000001 -190.9010000000001 373.409 -181.9270000000001Q363.438 -171.9570000000001 363.438 -158.9950000000001V290.692Q363.438 303.655 373.409 312.627Q383.38 322.597 396.341 322.597H629.66z" />
    <glyph glyph-name="chart-column2"
      unicode="&#xF13B;"
      horiz-adv-x="1024" d=" M321.313 320.602V64.352H192.187V320.602H321.313zM513.501 577.854V64.3520000000001H385.376V577.854H513.501zM1026.003 0.29V-63.774H0V705.979H64.064V0.289H1026.003zM705.689 448.728V64.3530000000001H577.564V448.728H705.689zM897.877 641.917V64.3530000000001H769.752V641.917H897.877z" />
    <glyph glyph-name="chart-database-o"
      unicode="&#xF13C;"
      horiz-adv-x="929" d=" M318.365 512.1600000000001H0.436V532.222C0.436 573.008 7.791 611.788 22.502 648.562S58.608 717.7650000000001 86.691 745.8480000000001C114.772 775.267 146.532 797.331 181.97 812.042C218.075 826.7510000000001 255.853 834.1080000000001 295.302 834.1080000000001H318.37V512.1670000000001L318.369 512.1650000000001zM117.779 715.758C96.383 695.031 79.332 670.293 66.629 641.542C53.256 613.461 45.566 584.374 43.561 554.287H275.24V791.982C245.152 789.976 216.735 782.287 189.991 768.914C162.576 756.211 138.507 738.491 117.778 715.7570000000001zM665.381 476.057H619.246L618.2429999999999 484.082C614.9 512.162 607.2099999999999 539.242 595.175 565.318C583.139 592.063 567.0939999999999 616.135 547.034 637.528C502.905 682.327 449.749 707.3979999999999 387.567 712.7479999999999V431.9269999999999H112.764C115.439 401.8399999999999 122.794 373.0889999999999 134.83 345.675C147.533 318.261 164.584 293.189 185.98 270.455C209.382 247.055 235.457 229.003 264.208 216.2969999999999S323.047 196.5719999999999 354.473 195.2339999999999L362.497 194.2309999999999V152.1079999999998H354.473C316.361 154.1139999999998 280.256 163.1399999999999 246.155 179.1849999999998C211.386 195.2329999999998 180.63 217.6309999999999 153.885 246.3819999999999C127.81 274.4619999999999 107.75 306.2219999999999 93.708 341.6609999999999C78.999 377.7659999999999 71.642 415.2099999999998 71.642 453.9899999999998V474.0499999999998H348.451V754.87H368.512C405.956 754.87 441.392 748.182 474.824 734.809C508.256 722.106 539.013 703.049 567.095 677.641C594.508 652.233 616.572 623.148 633.289 590.386S660.367 522.521 664.379 485.076L665.379 476.054zM843.9019999999999 416.8830000000001C871.983 403.5100000000001 893.0459999999999 387.7980000000001 907.088 369.7450000000001C921.798 352.36 929.154 333.3040000000001 929.154 312.5750000000001V-50.4859999999999C929.154 -92.6099999999999 900.737 -127.3779999999999 843.905 -154.7929999999999C818.497 -166.8289999999999 789.746 -176.1889999999998 757.653 -182.8729999999998C725.5600000000001 -188.8909999999998 691.794 -191.9009999999998 656.355 -191.9009999999998C620.25 -191.9009999999998 586.15 -188.8909999999998 554.0550000000001 -182.8729999999998C521.9620000000001 -176.1859999999999 493.544 -166.8249999999998 468.806 -154.7929999999999C440.725 -141.4199999999998 419.3280000000001 -126.0429999999999 404.6170000000001 -108.6579999999999C389.2380000000001 -90.6039999999999 381.5490000000001 -71.2139999999999 381.5490000000001 -50.4859999999999V312.576C381.5490000000001 333.303 388.9040000000001 352.36 403.6150000000001 369.745C418.9930000000001 387.798 440.7220000000001 403.51 468.806 416.883C493.544 429.587 521.962 438.948 554.0550000000001 444.963C586.148 451.651 620.249 454.9929999999999 656.355 454.9929999999999C691.793 454.9929999999999 725.559 451.651 757.653 444.963C789.746 438.945 818.4970000000001 429.585 843.905 416.883H843.904zM894.049 -1.3389999999999C887.361 -6.689 879.673 -12.372 870.982 -18.391A353.15 353.15 0 0 0 843.904 -33.4359999999999C818.496 -46.1389999999999 789.745 -55.8359999999999 757.652 -62.5199999999999C725.5590000000001 -68.5379999999999 691.793 -71.5469999999999 656.355 -71.5469999999999C620.249 -71.5469999999999 586.149 -68.5379999999999 554.054 -62.5199999999999C521.961 -55.8319999999999 493.5429999999999 -46.1379999999999 468.8049999999999 -33.4359999999999C458.775 -28.7539999999999 449.748 -23.7409999999999 441.728 -18.391C433.036 -12.372 425.346 -6.6909999999999 418.66 -1.3389999999999V-50.4829999999999C418.66 -62.52 424.344 -74.553 435.711 -86.588C447.748 -98.6239999999999 464.1279999999999 -109.6559999999999 484.8559999999999 -119.684C505.5829999999999 -129.0449999999999 530.3209999999999 -136.735 559.0709999999999 -142.751C588.4909999999999 -148.769 620.9189999999999 -151.778 656.3559999999999 -151.778C691.1249999999999 -151.778 722.8839999999999 -148.769 751.6359999999999 -142.751C781.0549999999998 -136.7329999999999 806.1279999999998 -129.0449999999999 826.8539999999998 -119.684C848.2499999999998 -109.654 864.6319999999998 -98.621 875.9989999999998 -86.588C888.0349999999997 -74.552 894.0529999999998 -62.5179999999999 894.0529999999998 -50.4829999999999V-1.34H894.0489999999998zM894.049 120.0150000000001C880.007 107.9780000000001 863.292 96.9470000000001 843.9019999999999 86.9190000000001C818.4939999999999 74.8830000000002 789.7429999999999 65.5230000000001 757.65 58.8380000000001C725.557 52.8200000000001 691.7909999999999 49.811 656.352 49.811C620.247 49.811 586.1469999999999 52.8200000000001 554.052 58.8380000000001C521.9590000000001 65.5260000000001 493.541 74.8860000000001 468.803 86.9180000000001C458.773 92.2680000000001 449.746 97.6170000000001 441.725 102.9670000000001C433.0340000000001 108.9860000000001 425.3440000000001 114.6670000000002 418.658 120.0190000000001V70.8750000000001C418.658 58.8380000000001 424.3420000000001 46.8040000000001 435.709 34.7700000000001C447.746 22.7340000000002 464.126 11.7020000000001 484.853 1.6740000000001S530.319 -16.3789999999999 559.069 -22.396C588.4889999999999 -28.414 620.9169999999999 -31.423 656.355 -31.423C691.123 -31.423 722.8820000000001 -28.414 751.634 -22.395C781.053 -16.377 806.126 -8.353 826.8530000000001 1.674C848.249 11.704 864.6300000000001 22.737 875.9970000000001 34.77C888.033 46.8059999999999 894.051 58.84 894.051 70.875L894.0490000000001 120.0170000000001zM894.049 241.3700000000001C887.361 235.3500000000002 879.673 229.6690000000001 870.982 224.3180000000001S853.264 213.9540000000001 843.904 209.2730000000002C818.496 196.5690000000002 789.745 186.8730000000002 757.652 180.1890000000002C725.5590000000001 174.1710000000002 691.793 171.1620000000002 656.355 171.1620000000002C620.249 171.1620000000002 586.149 174.1710000000002 554.054 180.1890000000002C521.961 186.8770000000002 493.5429999999999 196.5710000000002 468.8049999999999 209.2730000000002C448.745 217.9630000000002 432.031 228.6630000000001 418.658 241.3660000000001V191.2180000000001C418.658 179.1820000000001 424.342 167.148 435.709 155.114C447.7459999999999 143.077 464.126 132.044 484.853 122.018C505.581 112.6570000000001 530.319 104.967 559.069 98.9500000000001C588.4889999999999 92.932 620.9169999999999 89.923 656.355 89.923C691.123 89.923 722.8820000000001 92.932 751.634 98.9500000000001C781.053 104.9680000000001 806.126 112.6570000000001 826.8530000000001 122.018C848.249 132.048 864.6300000000001 143.081 875.9970000000001 155.114C888.033 167.15 894.051 179.1840000000001 894.051 191.2180000000001L894.0490000000001 241.3680000000001zM656.354 211.2800000000001C691.123 211.2800000000001 722.8820000000001 214.2890000000001 751.634 220.3070000000001C781.053 226.3250000000002 806.126 234.0130000000002 826.852 243.3750000000001C848.2479999999999 253.4050000000001 864.63 264.4380000000001 875.997 276.4700000000002C888.0329999999999 288.5070000000002 894.0509999999999 300.5400000000002 894.0509999999999 312.5750000000002S888.366 336.6450000000002 876.9999999999999 348.6800000000002C864.9629999999999 360.7160000000001 848.5829999999999 371.4130000000002 827.8549999999999 380.7730000000002C806.459 390.8030000000002 781.387 398.8270000000002 752.637 404.8420000000002C723.217 410.8600000000002 691.1229999999999 413.8700000000003 656.3539999999999 413.8700000000003C620.9169999999999 413.8700000000003 588.8229999999999 410.8600000000003 560.0719999999999 404.8420000000002C530.6519999999999 398.8240000000003 505.5799999999999 390.8000000000003 484.8529999999999 380.7720000000002C464.1259999999999 371.4120000000002 448.0789999999999 360.7120000000002 436.7119999999999 348.6800000000002C424.6759999999999 336.6440000000003 418.6579999999999 324.6100000000002 418.6579999999999 312.5750000000002S424.342 288.5050000000001 435.7089999999999 276.4700000000002C447.7459999999999 264.4340000000002 464.1259999999999 253.4020000000002 484.8529999999999 243.3750000000001C505.5809999999999 234.0140000000001 530.3189999999998 226.3240000000001 559.0689999999998 220.3070000000001C588.4889999999998 214.2890000000001 620.9159999999998 211.2800000000001 656.3539999999998 211.2800000000001z" />
    </font>
</defs>
</svg>
