<?xml version='1.0' encoding='utf-8'?>
<svg height="700" width="700" xmlns="http://www.w3.org/2000/svg"><path d="M428.279883382,355.685131195 L399.125364431,393.87755102 L400.874635569,405.83090379 L393.294460641,403.790087464 L386.588921283,400.29154519 L372.886297376,412.536443149 L338.775510204,398.833819242 L322.448979592,402.332361516 L289.504373178,396.209912536 L302.040816327,390.670553936 L307.871720117,388.04664723 L318.075801749,368.804664723 L310.204081633,352.7696793 L322.448979592,330.320699708 L317.78425656,322.740524781 L329.44606414,311.66180758 L353.935860058,302.040816327 L404.664723032,336.151603499 L414.577259475,336.151603499 L425.072886297,326.239067055 L434.110787172,330.029154519 L428.279883382,355.685131195 Z" fill="#cee3f5" id="NP.PM" stroke="#6e6e6e" stroke-width="0.4"><desc><labelrank>6</labelrank><code_hasc>NP.PM</code_hasc><name>Gandaki</name><admin>Nepal</admin><type_en>District</type_en><region>West</region><woe_id>23706802</woe_id><longitude>84</longitude><woe_name>Gandaki</woe_name><fips>NP04</fips><woe_label /><latitude>28</latitude><iso_a2>NP</iso_a2><postal>PM</postal><type>Vikas Kshetra</type><id>NP.PM</id></desc></path><path d="M213.994169096,297.959183673 L181.924198251,332.944606414 L169.970845481,332.361516035 L166.472303207,337.317784257 L164.139941691,358.89212828 L174.635568513,369.096209913 L167.638483965,377.551020408 L182.21574344,391.253644315 L181.049562682,396.793002915 L171.137026239,402.040816327 L154.518950437,407.288629738 L121.865889213,386.880466472 L115.160349854,377.842565598 L106.705539359,381.049562682 L95.9183673469,358.60058309 L85.4227405248,355.976676385 L105.247813411,328.279883382 L100.0,312.536443149 L89.5043731778,311.370262391 L81.3411078717,302.332361516 L86.0058309038,299.70845481 L99.1253644315,306.12244898 L118.950437318,306.997084548 L126.530612245,321.282798834 L129.737609329,318.367346939 L116.034985423,297.084548105 L127.696793003,285.131195335 L130.612244898,292.128279883 L152.7696793,298.833819242 L172.303206997,298.833819242 L189.795918367,286.297376093 L200.0,288.33819242 L200.874635569,296.501457726 L213.994169096,297.959183673 Z" fill="#cee3f5" id="NP.MP" stroke="#6e6e6e" stroke-width="0.4"><desc><labelrank>6</labelrank><code_hasc>NP.MP</code_hasc><name>Bheri</name><admin>Nepal</admin><type_en>District</type_en><region>Mid-Western</region><woe_id>23706800</woe_id><longitude>81</longitude><woe_name>Bheri</woe_name><fips>NP02</fips><woe_label /><latitude>28</latitude><iso_a2>NP</iso_a2><postal>MP</postal><type>Vikas Kshetra</type><id>NP.MP</id></desc></path><path d="M353.935860058,302.040816327 L329.44606414,311.66180758 L317.78425656,322.740524781 L322.448979592,330.320699708 L310.204081633,352.7696793 L318.075801749,368.804664723 L307.871720117,388.04664723 L302.040816327,390.670553936 L293.002915452,379.883381924 L267.055393586,367.346938776 L259.183673469,368.221574344 L241.690962099,347.2303207 L247.521865889,334.693877551 L259.183673469,329.44606414 L263.265306122,320.991253644 L275.510204082,322.448979592 L290.670553936,316.618075802 L305.247813411,279.300291545 L308.454810496,273.177842566 L326.822157434,266.472303207 L341.690962099,269.387755102 L354.227405248,291.253644315 L353.935860058,302.040816327 Z" fill="#cee3f5" id="NP.747" stroke="#6e6e6e" stroke-width="0.4"><desc><labelrank>6</labelrank><code_hasc>NP.PM</code_hasc><name>Dhawalagiri</name><admin>Nepal</admin><type_en>Administrative Zone</type_en><region>West</region><woe_id>23706801</woe_id><longitude>83</longitude><woe_name>Dhawalagiri</woe_name><fips>NP03</fips><woe_label /><latitude>28</latitude><iso_a2>NP</iso_a2><postal>PM</postal><type>Anchal</type><id>NP.747</id></desc></path><path d="M305.247813411,279.300291545 L290.670553936,316.618075802 L275.510204082,322.448979592 L263.265306122,320.991253644 L245.481049563,313.411078717 L230.029154519,313.702623907 L213.994169096,297.959183673 L200.874635569,296.501457726 L200.0,288.33819242 L189.795918367,286.297376093 L172.303206997,298.833819242 L152.7696793,298.833819242 L130.612244898,292.128279883 L127.696793003,285.131195335 L122.448979592,281.049562682 L121.282798834,269.096209913 L130.029154519,262.390670554 L142.274052478,263.556851312 L141.10787172,252.186588921 L147.521865889,240.233236152 L139.941690962,231.195335277 L146.355685131,211.078717201 L135.860058309,206.413994169 L122.157434402,211.370262391 L116.909620991,198.833819242 L103.790087464,194.460641399 L103.790087464,189.212827988 L111.370262391,184.548104956 L113.702623907,165.306122449 L123.906705539,169.679300292 L132.653061224,161.224489796 L170.84548105,168.513119534 L172.011661808,178.717201166 L177.842565598,183.381924198 L177.842565598,195.335276968 L210.495626822,207.871720117 L235.56851312,232.944606414 L247.2303207,232.361516035 L254.810495627,240.233236152 L263.848396501,236.151603499 L271.720116618,250.145772595 L279.300291545,251.020408163 L294.16909621,277.551020408 L305.247813411,279.300291545 Z" fill="#cee3f5" id="NP.748" stroke="#6e6e6e" stroke-width="0.4"><desc><labelrank>6</labelrank><code_hasc>NP.MP</code_hasc><name>Karnali</name><admin>Nepal</admin><type_en>Administrative Zone</type_en><region>Mid-Western</region><woe_id>23706804</woe_id><longitude>82</longitude><woe_name>Karnali</woe_name><fips>NP06</fips><woe_label /><latitude>29</latitude><iso_a2>NP</iso_a2><postal>MP</postal><type>Anchal</type><id>NP.748</id></desc></path><path d="M302.040816327,390.670553936 L289.504373178,396.209912536 L322.448979592,402.332361516 L338.775510204,398.833819242 L372.886297376,412.536443149 L373.177842566,417.78425656 L357.434402332,422.448979592 L346.93877551,434.402332362 L332.944606414,433.527696793 L331.778425656,443.148688047 L324.198250729,444.897959184 L326.239067055,453.352769679 L303.206997085,443.148688047 L286.005830904,442.274052478 L277.259475219,455.685131195 L264.139941691,445.189504373 L231.486880466,440.816326531 L224.489795918,421.574344023 L227.988338192,415.160349854 L239.067055394,413.702623907 L231.778425656,409.037900875 L239.067055394,401.457725948 L251.895043732,397.667638484 L252.478134111,373.469387755 L259.183673469,368.221574344 L267.055393586,367.346938776 L293.002915452,379.883381924 L302.040816327,390.670553936 Z" fill="#cee3f5" id="NP.749" stroke="#6e6e6e" stroke-width="0.4"><desc><labelrank>6</labelrank><code_hasc>NP.PM</code_hasc><name>Lumbini</name><admin>Nepal</admin><type_en>Administrative Zone</type_en><region>West</region><woe_id>23706806</woe_id><longitude>83</longitude><woe_name>Lumbini</woe_name><fips>NP08</fips><woe_label /><latitude>27</latitude><iso_a2>NP</iso_a2><postal>PM</postal><type>Anchal</type><id>NP.749</id></desc></path><path d="M88.6297376093,198.833819242 L81.6326530612,208.163265306 L85.7142857143,225.364431487 L61.2244897959,234.985422741 L59.7667638484,247.2303207 L72.0116618076,255.976676385 L42.8571428571,288.629737609 L38.7755102041,298.542274052 L42.2740524781,327.988338192 L38.1924198251,339.358600583 L0.0,312.536443149 L8.45481049563,286.588921283 L16.9096209913,283.673469388 L15.7434402332,276.967930029 L20.6997084548,271.428571429 L15.7434402332,255.393586006 L30.029154519,239.067055394 L28.5714285714,224.489795918 L57.7259475219,200.0 L70.5539358601,182.21574344 L82.2157434402,183.381924198 L88.6297376093,198.833819242 Z" fill="#cee3f5" id="NP.SP" stroke="#6e6e6e" stroke-width="0.4"><desc><labelrank>6</labelrank><code_hasc>NP.SP</code_hasc><name>Mahakali</name><admin>Nepal</admin><type_en>Administrative Zone</type_en><region>Far-Western</region><woe_id>23706807</woe_id><longitude>80</longitude><woe_name>Mahakali</woe_name><fips>NP09</fips><woe_label /><latitude>29</latitude><iso_a2>NP</iso_a2><postal>SP</postal><type>Anchal</type><id>NP.SP</id></desc></path><path d="M127.696793003,285.131195335 L116.034985423,297.084548105 L129.737609329,318.367346939 L126.530612245,321.282798834 L118.950437318,306.997084548 L99.1253644315,306.12244898 L86.0058309038,299.70845481 L81.3411078717,302.332361516 L89.5043731778,311.370262391 L100.0,312.536443149 L105.247813411,328.279883382 L85.4227405248,355.976676385 L42.2740524781,327.988338192 L38.7755102041,298.542274052 L42.8571428571,288.629737609 L72.0116618076,255.976676385 L59.7667638484,247.2303207 L61.2244897959,234.985422741 L85.7142857143,225.364431487 L81.6326530612,208.163265306 L88.6297376093,198.833819242 L99.7084548105,200.583090379 L103.790087464,194.460641399 L116.909620991,198.833819242 L122.157434402,211.370262391 L135.860058309,206.413994169 L146.355685131,211.078717201 L139.941690962,231.195335277 L147.521865889,240.233236152 L141.10787172,252.186588921 L142.274052478,263.556851312 L130.029154519,262.390670554 L121.282798834,269.096209913 L122.448979592,281.049562682 L127.696793003,285.131195335 Z" fill="#cee3f5" id="NP.751" stroke="#6e6e6e" stroke-width="0.4"><desc><labelrank>6</labelrank><code_hasc>NP.SP</code_hasc><name>Seti</name><admin>Nepal</admin><type_en>District</type_en><region>Far-Western</region><woe_id>23706812</woe_id><longitude>81</longitude><woe_name>Seti</woe_name><fips>NP14</fips><woe_label /><latitude>29</latitude><iso_a2>NP</iso_a2><postal>SP</postal><type>Vikas Kshetra</type><id>NP.751</id></desc></path><path d="M512.827988338,395.043731778 L511.370262391,408.163265306 L496.209912536,427.405247813 L492.419825073,441.39941691 L484.256559767,447.521865889 L467.638483965,445.481049563 L447.2303207,437.026239067 L440.816326531,418.075801749 L428.571428571,414.577259475 L406.12244898,418.367346939 L394.752186589,413.119533528 L393.294460641,403.790087464 L400.874635569,405.83090379 L399.125364431,393.87755102 L428.279883382,355.685131195 L442.274052478,361.224489796 L458.017492711,358.017492711 L472.594752187,361.807580175 L480.174927114,353.352769679 L484.256559767,364.139941691 L495.626822157,371.137026239 L504.956268222,395.043731778 L512.827988338,395.043731778 Z" fill="#cee3f5" id="NP.MM" stroke="#6e6e6e" stroke-width="0.4"><desc><labelrank>6</labelrank><code_hasc>NP.MM</code_hasc><name>Bagmati</name><admin>Nepal</admin><type_en>District</type_en><region>Central</region><woe_id>23706799</woe_id><longitude>85</longitude><woe_name>Bagmati</woe_name><fips>NP01</fips><woe_label /><latitude>27</latitude><iso_a2>NP</iso_a2><postal>MM</postal><type>Vikas Kshetra</type><id>NP.MM</id></desc></path><path d="M551.895043732,385.422740525 L559.183673469,406.997084548 L554.810495627,417.49271137 L530.903790087,441.690962099 L528.571428571,456.268221574 L544.897959184,461.807580175 L539.650145773,468.221574344 L542.274052478,480.758017493 L524.781341108,489.504373178 L529.737609329,507.871720117 L525.655976676,518.658892128 L513.994169096,513.994169096 L498.542274052,523.032069971 L488.04664723,515.160349854 L486.588921283,501.166180758 L477.551020408,496.209912536 L456.851311953,505.83090379 L461.224489796,479.883381924 L468.513119534,466.472303207 L468.221574344,456.851311953 L462.390670554,451.603498542 L467.638483965,445.481049563 L484.256559767,447.521865889 L492.419825073,441.39941691 L496.209912536,427.405247813 L511.370262391,408.163265306 L512.827988338,395.043731778 L517.78425656,391.253644315 L513.411078717,376.967930029 L520.408163265,369.096209913 L526.239067055,384.256559767 L544.314868805,391.836734694 L551.895043732,385.422740525 Z" fill="#cee3f5" id="NP.753" stroke="#6e6e6e" stroke-width="0.4"><desc><labelrank>6</labelrank><code_hasc>NP.MM</code_hasc><name>Janakpur</name><admin>Nepal</admin><type_en>Administrative Zone</type_en><region>Central</region><woe_id>23706803</woe_id><longitude>85</longitude><woe_name>Janakpur</woe_name><fips>NP05</fips><woe_label /><latitude>27</latitude><iso_a2>NP</iso_a2><postal>MM</postal><type>Anchal</type><id>NP.753</id></desc></path><path d="M393.294460641,403.790087464 L394.752186589,413.119533528 L406.12244898,418.367346939 L428.571428571,414.577259475 L440.816326531,418.075801749 L447.2303207,437.026239067 L467.638483965,445.481049563 L462.390670554,451.603498542 L468.221574344,456.851311953 L468.513119534,466.472303207 L461.224489796,479.883381924 L456.851311953,505.83090379 L443.148688047,506.413994169 L439.941690962,497.667638484 L427.696793003,498.542274052 L409.620991254,483.381924198 L393.294460641,481.341107872 L395.335276968,465.306122449 L388.33819242,453.352769679 L363.265306122,449.562682216 L346.647230321,436.443148688 L339.067055394,444.023323615 L331.778425656,443.148688047 L332.944606414,433.527696793 L346.93877551,434.402332362 L357.434402332,422.448979592 L373.177842566,417.78425656 L372.886297376,412.536443149 L386.588921283,400.29154519 L393.294460641,403.790087464 Z" fill="#cee3f5" id="NP.754" stroke="#6e6e6e" stroke-width="0.4"><desc><labelrank>6</labelrank><code_hasc>NP.MM</code_hasc><name>Narayani</name><admin>Nepal</admin><type_en>Administrative Zone</type_en><region>Central</region><woe_id>23706809</woe_id><longitude>84</longitude><woe_name>Narayani</woe_name><fips>NP11</fips><woe_label /><latitude>27</latitude><iso_a2>NP</iso_a2><postal>MM</postal><type>Anchal</type><id>NP.754</id></desc></path><path d="M591.836734694,385.422740525 L594.460641399,408.746355685 L587.755102041,436.443148688 L593.002915452,447.2303207 L590.379008746,466.472303207 L595.335276968,486.005830904 L613.411078717,485.714285714 L599.416909621,503.498542274 L594.460641399,523.32361516 L575.510204082,534.402332362 L539.067055394,517.201166181 L525.655976676,518.658892128 L529.737609329,507.871720117 L524.781341108,489.504373178 L542.274052478,480.758017493 L539.650145773,468.221574344 L544.897959184,461.807580175 L528.571428571,456.268221574 L530.903790087,441.690962099 L554.810495627,417.49271137 L559.183673469,406.997084548 L551.895043732,385.422740525 L554.518950437,372.594752187 L563.848396501,371.720116618 L570.84548105,379.591836735 L591.836734694,385.422740525 Z" fill="#cee3f5" id="NP.PW" stroke="#6e6e6e" stroke-width="0.4"><desc><labelrank>6</labelrank><code_hasc>NP.PW</code_hasc><name>Sagarmatha</name><admin>Nepal</admin><type_en>Administrative Zone</type_en><region>East</region><woe_id>23706811</woe_id><longitude>86</longitude><woe_name>Sagarmatha</woe_name><fips>NP13</fips><woe_label /><latitude>27</latitude><iso_a2>NP</iso_a2><postal>PW</postal><type>Anchal</type><id>NP.PW</id></desc></path><path d="M652.186588921,395.626822157 L647.521865889,407.580174927 L641.690962099,409.329446064 L634.402332362,438.192419825 L641.39941691,446.064139942 L660.349854227,453.06122449 L639.358600583,476.67638484 L656.268221574,496.793002915 L656.851311953,530.903790087 L651.603498542,534.402332362 L636.443148688,530.320699708 L627.988338192,538.775510204 L619.533527697,532.944606414 L609.620991254,533.819241983 L603.206997085,517.201166181 L594.460641399,523.32361516 L599.416909621,503.498542274 L613.411078717,485.714285714 L595.335276968,486.005830904 L590.379008746,466.472303207 L593.002915452,447.2303207 L587.755102041,436.443148688 L594.460641399,408.746355685 L591.836734694,385.422740525 L607.288629738,396.793002915 L625.072886297,393.002915452 L625.655976676,397.959183673 L652.186588921,395.626822157 Z" fill="#cee3f5" id="NP.756" stroke="#6e6e6e" stroke-width="0.4"><desc><labelrank>6</labelrank><code_hasc>NP.PW</code_hasc><name>Bhojpur</name><admin>Nepal</admin><type_en>District</type_en><region>East</region><woe_id>23706805</woe_id><longitude>87</longitude><woe_name>Kosi</woe_name><fips>NP07</fips><woe_label /><latitude>27</latitude><iso_a2>NP</iso_a2><postal>PW</postal><type>Vikas Kshetra</type><id>NP.756</id></desc></path><path d="M656.851311953,530.903790087 L656.268221574,496.793002915 L639.358600583,476.67638484 L660.349854227,453.06122449 L641.39941691,446.064139942 L634.402332362,438.192419825 L641.690962099,409.329446064 L647.521865889,407.580174927 L652.186588921,395.626822157 L658.60058309,394.752186589 L665.014577259,385.714285714 L693.586005831,390.379008746 L683.381924198,424.781341108 L685.422740525,441.39941691 L680.758017493,462.099125364 L697.959183673,485.131195335 L700.0,496.501457726 L688.04664723,533.236151603 L675.510204082,524.781341108 L656.851311953,530.903790087 Z" fill="#cee3f5" id="NP.757" stroke="#6e6e6e" stroke-width="0.4"><desc><labelrank>6</labelrank><code_hasc>NP.PW</code_hasc><name>Mechi</name><admin>Nepal</admin><type_en>Administrative Zone</type_en><region>East</region><woe_id>23706808</woe_id><longitude>87</longitude><woe_name>Mechi</woe_name><fips>NP10</fips><woe_label /><latitude>27</latitude><iso_a2>NP</iso_a2><postal>PW</postal><type>Anchal</type><id>NP.757</id></desc></path><path d="M263.265306122,320.991253644 L259.183673469,329.44606414 L247.521865889,334.693877551 L241.690962099,347.2303207 L259.183673469,368.221574344 L252.478134111,373.469387755 L251.895043732,397.667638484 L239.067055394,401.457725948 L231.778425656,409.037900875 L239.067055394,413.702623907 L227.988338192,415.160349854 L224.489795918,421.574344023 L201.166180758,423.61516035 L171.137026239,402.040816327 L181.049562682,396.793002915 L182.21574344,391.253644315 L167.638483965,377.551020408 L174.635568513,369.096209913 L164.139941691,358.89212828 L166.472303207,337.317784257 L169.970845481,332.361516035 L181.924198251,332.944606414 L213.994169096,297.959183673 L230.029154519,313.702623907 L245.481049563,313.411078717 L263.265306122,320.991253644 Z" fill="#cee3f5" id="NP.354" stroke="#6e6e6e" stroke-width="0.4"><desc><labelrank>6</labelrank><code_hasc>NP.MP</code_hasc><name>Rapti</name><admin>Nepal</admin><type_en>Administrative Zone</type_en><region>Mid-Western</region><woe_id>23706810</woe_id><longitude>82</longitude><woe_name>Rapti</woe_name><fips>NP12</fips><woe_label /><latitude>28</latitude><iso_a2>NP</iso_a2><postal>MP</postal><type>Anchal</type><id>NP.354</id></desc></path></svg>