<?xml version='1.0' encoding='utf-8'?>
<svg height="700" width="700" xmlns="http://www.w3.org/2000/svg"><path d="M445.797027166,38.0317785751 L446.514607893,39.4669400308 L444.003075346,38.390568939 L445.797027166,38.0317785751 M303.357252691,1.07637109175 L299.051768324,2.1527421835 L302.639671963,0.0 L303.357252691,1.07637109175 Z" fill="#cee3f5" id="TN.4431" stroke="#6e6e6e" stroke-width="0.4"><desc><labelrank>20</labelrank><code_hasc>-99</code_hasc><name /><admin>Tunisia</admin><type_en /><region /><woe_id>-99</woe_id><longitude>10</longitude><woe_name /><fips /><woe_label /><latitude>37</latitude><iso_a2>TN</iso_a2><postal /><type /><id>TN.4431</id></desc></path><path d="M280.3946694,330.445925167 L269.630958483,347.309072271 L219.759097899,386.776012301 L202.895950794,395.028190671 L190.697078421,370.989236289 L186.750384418,357.713992824 L185.315222963,348.385443362 L187.467965146,331.881086622 L197.8728857,319.323423885 L208.636596617,315.376729882 L214.018452076,299.231163506 L235.545873911,287.749871861 L235.187083547,296.360840595 L238.774987186,301.383905689 L233.393131727,302.460276781 L229.446437724,308.200922604 L236.981035366,313.941568426 L240.210148642,319.323423885 L250.973859559,322.55253716 L255.63813429,330.445925167 L280.3946694,330.445925167 Z" fill="#cee3f5" id="TN.TO" stroke="#6e6e6e" stroke-width="0.4"><desc><labelrank>7</labelrank><code_hasc>TN.TO</code_hasc><name>Tozeur</name><admin>Tunisia</admin><type_en>Governorate</type_en><region /><woe_id>2347255</woe_id><longitude>8</longitude><woe_name>Tozeur</woe_name><fips>TS35</fips><woe_label>Tawzar, TN, Tunisia</woe_label><latitude>33</latitude><iso_a2>TN</iso_a2><postal>TO</postal><type>Wilayat</type><id>TN.TO</id></desc></path><path d="M409.55920041,61.7119425935 L383.726294208,73.5520246028 L388.031778575,81.4454126089 L381.573552025,86.4684777037 L379.062019477,85.0333162481 L375.832906202,91.4915427986 L372.962583291,92.9267042542 L365.069195284,78.5750896976 L358.25217837,76.4223475141 L349.282419272,68.170169144 L363.634033829,61.3531522296 L368.657098924,55.9712967709 L381.932342389,58.1240389544 L390.902101486,41.6196822142 L400.230650948,39.1081496668 L400.589441312,42.3372629421 L400.230650948,40.9021014864 L396.642747309,44.1312147617 L397.360328037,48.7954894926 L409.55920041,61.7119425935 Z" fill="#cee3f5" id="TN.MN" stroke="#6e6e6e" stroke-width="0.4"><desc><labelrank>9</labelrank><code_hasc>TN.MN</code_hasc><name>Manubah</name><admin>Tunisia</admin><type_en>Governorate</type_en><region /><woe_id>2347247</woe_id><longitude>9</longitude><woe_name>Manubah</woe_name><fips>TS38</fips><woe_label>Aryanah, TN, Tunisia</woe_label><latitude>36</latitude><iso_a2>TN</iso_a2><postal>MN</postal><type>Wilayat</type><id>TN.MN</id></desc></path><path d="M349.282419272,68.170169144 L358.25217837,76.4223475141 L365.069195284,78.5750896976 L372.962583291,92.9267042542 L366.863147104,98.308559713 L363.275243465,105.125576627 L351.076371092,108.713480267 L344.618144541,104.766786263 L336.724756535,105.484366991 L330.625320349,113.736545361 L323.090722706,110.148641722 L315.914915428,111.942593542 L307.662737058,104.766786263 L309.815479241,103.331624808 L312.327011789,94.7206560738 L308.021527422,83.9569451563 L308.380317786,76.781137878 L300.128139416,73.1932342389 L301.204510507,68.5289595079 L304.792414147,64.5822655049 L300.128139416,57.0476678626 L302.639671963,54.8949256791 L298.69297796,50.2306509482 L305.868785238,40.9021014864 L312.685802153,35.8790363916 L313.044592517,46.6427473091 L320.937980523,48.4366991287 L326.319835982,60.6355715018 L334.572014352,66.0174269605 L333.49564326,72.8344438749 L335.289595079,77.4987186058 L338.877498719,77.8575089698 L349.282419272,68.170169144 Z" fill="#cee3f5" id="TN.BJ" stroke="#6e6e6e" stroke-width="0.4"><desc><labelrank>9</labelrank><code_hasc>TN.BJ</code_hasc><name>Béja</name><admin>Tunisia</admin><type_en>Governorate</type_en><region /><woe_id>2347242</woe_id><longitude>9</longitude><woe_name>Béja</woe_name><fips>TS17</fips><woe_label>Bajah, TN, Tunisia</woe_label><latitude>36</latitude><iso_a2>TN</iso_a2><postal>BJ</postal><type>Wilayat</type><id>TN.BJ</id></desc></path><path d="M416.017426961,77.1399282419 L411.35315223,89.697590979 L410.276781138,101.896463352 L403.10097386,104.4079959 L401.665812404,100.82009226 L394.490005126,94.003075346 L384.443874936,90.7739620707 L381.573552025,86.4684777037 L388.031778575,81.4454126089 L392.337262942,81.4454126089 L394.848795489,78.5750896976 L399.871860584,77.8575089698 L403.10097386,71.3992824193 L404.536135315,68.8877498719 L408.482829318,75.3459764223 L416.017426961,77.1399282419 Z" fill="#cee3f5" id="TN.BA" stroke="#6e6e6e" stroke-width="0.4"><desc><labelrank>7</labelrank><code_hasc>TN.BA</code_hasc><name>Ben Arous (Tunis Sud)</name><admin>Tunisia</admin><type_en>Governorate</type_en><region /><woe_id>2347248</woe_id><longitude>10</longitude><woe_name>Ben Arous (Tunis Sud)</woe_name><fips>TS32</fips><woe_label>Bin 'Arus, TN, Tunisia</woe_label><latitude>36</latitude><iso_a2>TN</iso_a2><postal>BA</postal><type>Wilayat</type><id>TN.BA</id></desc></path><path d="M400.230650948,39.1081496668 L390.902101486,41.6196822142 L381.932342389,58.1240389544 L368.657098924,55.9712967709 L363.634033829,61.3531522296 L349.282419272,68.170169144 L338.877498719,77.8575089698 L335.289595079,77.4987186058 L333.49564326,72.8344438749 L334.572014352,66.0174269605 L326.319835982,60.6355715018 L320.937980523,48.4366991287 L313.044592517,46.6427473091 L312.685802153,35.8790363916 L319.861609431,33.0087134803 L322.731932342,29.4208098411 L332.778062532,29.4208098411 L338.877498719,25.474115838 L341.389031266,26.1916965659 L348.923628908,22.2450025628 L351.79395182,22.9625832906 L363.634033829,18.6570989236 L372.245002563,20.0922603793 L372.603792927,25.8329062019 L365.786776012,31.2147616607 L368.657098924,36.9554074833 L374.038954382,37.3141978473 L377.626858022,32.6499231164 L377.626858022,31.2147616607 L372.603792927,29.4208098411 L369.374679651,29.779600205 L372.962583291,26.5504869298 L381.573552025,27.9856483854 L387.314197847,25.8329062019 L404.177344951,34.085084572 L393.05484367,36.2378267555 L393.772424398,37.6729882112 L400.230650948,39.1081496668 Z" fill="#cee3f5" id="TN.BZ" stroke="#6e6e6e" stroke-width="0.4"><desc><labelrank>7</labelrank><code_hasc>TN.BZ</code_hasc><name>Bizerte</name><admin>Tunisia</admin><type_en>Governorate</type_en><region /><woe_id>2347243</woe_id><longitude>9</longitude><woe_name>Bizerte</woe_name><fips>TS18</fips><woe_label>Banzart, TN, Tunisia</woe_label><latitude>37</latitude><iso_a2>TN</iso_a2><postal>BZ</postal><type>Wilayat</type><id>TN.BZ</id></desc></path><path d="M307.662737058,104.766786263 L300.128139416,105.843157355 L293.669912865,107.995899539 L274.295233214,109.07227063 L264.249103024,113.736545361 L256.714505382,113.377754997 L256.355715018,104.766786263 L242.362890825,100.461301896 L242.362890825,97.2321886212 L262.813941568,84.3157355202 L265.325474116,77.4987186058 L261.019989749,73.9108149667 L261.378780113,72.475653511 L272.501281394,70.6817016914 L278.959507945,67.4525884162 L276.089185033,57.7652485905 L282.906201948,54.8949256791 L291.517170682,54.5361353152 L298.69297796,50.2306509482 L302.639671963,54.8949256791 L300.128139416,57.0476678626 L304.792414147,64.5822655049 L301.204510507,68.5289595079 L300.128139416,73.1932342389 L308.380317786,76.781137878 L308.021527422,83.9569451563 L312.327011789,94.7206560738 L309.815479241,103.331624808 L307.662737058,104.766786263 Z" fill="#cee3f5" id="TN.JE" stroke="#6e6e6e" stroke-width="0.4"><desc><labelrank>7</labelrank><code_hasc>TN.JE</code_hasc><name>Jendouba</name><admin>Tunisia</admin><type_en>Governorate</type_en><region /><woe_id>2347237</woe_id><longitude>8</longitude><woe_name>Jendouba</woe_name><fips>TS06</fips><woe_label>Jundubah, TN, Tunisia</woe_label><latitude>36</latitude><iso_a2>TN</iso_a2><postal>JE</postal><type>Wilayat</type><id>TN.JE</id></desc></path><path d="M424.987186058,113.377754997 L423.910814967,110.86622245 L412.429523321,111.942593542 L410.635571502,110.86622245 L410.276781138,101.896463352 L411.35315223,89.697590979 L416.017426961,77.1399282419 L425.345976422,72.8344438749 L428.575089698,62.7883136853 L440.056381343,60.6355715018 L451.537672988,49.8718605843 L452.61404408,45.9251665812 L464.095335725,42.696053306 L464.095335725,48.4366991287 L470.553562276,64.223475141 L462.301383906,70.6817016914 L445.797027166,103.331624808 L432.162993337,109.431060994 L429.292670425,108.713480267 L424.987186058,113.377754997 Z" fill="#cee3f5" id="TN.NB" stroke="#6e6e6e" stroke-width="0.4"><desc><labelrank>7</labelrank><code_hasc>TN.NB</code_hasc><name>Nabeul</name><admin>Tunisia</admin><type_en>Governorate</type_en><region /><woe_id>2347244</woe_id><longitude>10</longitude><woe_name>Nabeul</woe_name><fips>TS19</fips><woe_label>Nabul, TN, Tunisia</woe_label><latitude>36</latitude><iso_a2>TN</iso_a2><postal>NB</postal><type>Wilayat</type><id>TN.NB</id></desc></path><path d="M403.10097386,71.3992824193 L399.871860584,77.8575089698 L394.848795489,78.5750896976 L392.337262942,81.4454126089 L388.031778575,81.4454126089 L383.726294208,73.5520246028 L409.55920041,61.7119425935 L409.917990774,63.864684777 L406.688877499,68.5289595079 L403.10097386,66.0174269605 L399.871860584,67.4525884162 L398.077908765,70.6817016914 L403.10097386,71.3992824193 Z" fill="#cee3f5" id="TN.TU" stroke="#6e6e6e" stroke-width="0.4"><desc><labelrank>9</labelrank><code_hasc>TN.TU</code_hasc><name>Tunis</name><admin>Tunisia</admin><type_en>Governorate</type_en><region /><woe_id>2347256</woe_id><longitude>10</longitude><woe_name>Tunis</woe_name><fips>TS36</fips><woe_label>Tunis, TN, Tunisia</woe_label><latitude>36</latitude><iso_a2>TN</iso_a2><postal>TU</postal><type>Wilayat</type><id>TN.TU</id></desc></path><path d="M306.94515633,176.166068683 L282.547411584,168.272680677 L277.883136853,172.21937468 L275.730394669,181.189133778 L264.607893388,179.036391594 L258.867247565,182.983085597 L254.202972834,183.700666325 L248.821117376,171.501793952 L247.38595592,163.96719631 L250.256278831,143.87493593 L253.485392107,133.470015377 L252.767811379,124.141465915 L256.714505382,113.377754997 L264.249103024,113.736545361 L274.295233214,109.07227063 L293.669912865,107.995899539 L300.128139416,105.843157355 L304.792414147,113.377754997 L303.716043055,119.835981548 L308.380317786,127.37057919 L309.097898514,134.546386468 L315.1973347,138.493080472 L318.426447975,143.516145566 L316.99128652,151.050743209 L308.380317786,163.249615582 L306.94515633,176.166068683 Z" fill="#cee3f5" id="TN.KF" stroke="#6e6e6e" stroke-width="0.4"><desc><labelrank>9</labelrank><code_hasc>TN.KF</code_hasc><name>Le Kef</name><admin>Tunisia</admin><type_en>Governorate</type_en><region /><woe_id>2347239</woe_id><longitude>8</longitude><woe_name>Le Kef</woe_name><fips>TS14</fips><woe_label>Al Kaf, TN, Tunisia</woe_label><latitude>36</latitude><iso_a2>TN</iso_a2><postal>KF</postal><type>Wilayat</type><id>TN.KF</id></desc></path><path d="M306.94515633,176.166068683 L313.044592517,184.777037417 L320.579190159,186.212198872 L322.731932342,190.158892875 L330.266529985,193.746796515 L332.419272168,197.334700154 L331.342901076,200.922603793 L324.884674526,206.663249616 L318.426447975,218.862121989 L319.502819067,221.014864172 L327.396207073,224.602767811 L328.113787801,238.595592004 L318.067657611,243.618657099 L315.1973347,243.259866735 L308.73910815,252.588416197 L311.250640697,255.458739108 L291.158380318,267.298821117 L275.012813942,273.757047668 L272.501281394,278.062532035 L248.103536648,268.016401845 L247.38595592,252.588416197 L251.691440287,236.801640185 L262.096360841,220.297283444 L253.126601743,215.633008713 L251.332649923,212.045105074 L250.973859559,204.869297796 L254.561763198,194.823167606 L254.202972834,183.700666325 L258.867247565,182.983085597 L264.607893388,179.036391594 L275.730394669,181.189133778 L277.883136853,172.21937468 L282.547411584,168.272680677 L306.94515633,176.166068683 Z" fill="#cee3f5" id="TN.KS" stroke="#6e6e6e" stroke-width="0.4"><desc><labelrank>9</labelrank><code_hasc>TN.KS</code_hasc><name>Kassérine</name><admin>Tunisia</admin><type_en>Governorate</type_en><region /><woe_id>2347235</woe_id><longitude>8</longitude><woe_name>Kassérine</woe_name><fips>TS02</fips><woe_label>Al Qasrayn, TN, Tunisia</woe_label><latitude>35</latitude><iso_a2>TN</iso_a2><postal>KS</postal><type>Wilayat</type><id>TN.KS</id></desc></path><path d="M363.275243465,315.376729882 L364.351614557,316.811891338 L365.069195284,317.529472066 L367.221937468,318.247052793 L368.29830856,318.605843157 L368.657098924,318.605843157 L372.245002563,317.88826243 L373.680164018,317.88826243 L374.397744746,318.247052793 L375.115325474,318.605843157 L376.55048693,320.758585341 L377.985648385,321.834956433 L380.855971297,323.628908252 L382.649923116,323.987698616 L383.00871348,323.987698616 L383.726294208,323.987698616 L384.443874936,320.758585341 L384.8026653,320.399794977 L385.161455664,320.758585341 L385.161455664,320.758585341 L386.955407483,322.193746797 L390.184520759,340.492055356 L399.51307022,354.484879549 L413.147104049,367.042542286 L416.017426961,368.836494106 L422.475653511,371.348026653 L423.552024603,371.706817017 L423.552024603,371.706817017 L416.735007688,379.241414659 L411.35315223,388.211173757 L409.917990774,391.799077396 L409.200410046,392.15786776 L408.841619682,392.516658124 L403.459764223,394.310609944 L400.948231676,395.386981035 L391.619682214,402.921578678 L381.932342389,406.150691953 L376.191696566,405.791901589 L374.75653511,406.150691953 L371.168631471,407.227063045 L370.451050743,407.227063045 L367.580727832,406.868272681 L366.145566376,406.868272681 L350.717580728,388.211173757 L353.229113275,378.882624295 L348.923628908,373.8595592 L345.694515633,373.500768836 L342.824192722,369.19528447 L337.083546899,366.324961558 L330.266529985,354.126089185 L327.396207073,343.003587904 L327.754997437,334.751409534 L335.289595079,327.216811891 L328.113787801,319.682214249 L334.572014352,317.170681702 L344.976934905,317.88826243 L351.076371092,315.017939518 L358.969759098,311.071245515 L363.275243465,315.376729882 Z" fill="#cee3f5" id="TN.GB" stroke="#6e6e6e" stroke-width="0.4"><desc><labelrank>9</labelrank><code_hasc>TN.GB</code_hasc><name>Gabès</name><admin>Tunisia</admin><type_en>Governorate</type_en><region /><woe_id>2347250</woe_id><longitude>9</longitude><woe_name>Gabès</woe_name><fips>TS29</fips><woe_label>Qabis, TN, Tunisia</woe_label><latitude>33</latitude><iso_a2>TN</iso_a2><postal>GB</postal><type>Wilayat</type><id>TN.GB</id></desc></path><path d="M351.076371092,315.017939518 L344.976934905,317.88826243 L334.572014352,317.170681702 L328.113787801,319.682214249 L310.891850333,322.193746797 L308.380317786,323.628908252 L306.586365966,329.369554075 L297.616606868,327.934392619 L280.3946694,330.445925167 L255.63813429,330.445925167 L250.973859559,322.55253716 L240.210148642,319.323423885 L236.981035366,313.941568426 L229.446437724,308.200922604 L233.393131727,302.460276781 L238.774987186,301.383905689 L235.187083547,296.360840595 L235.545873911,287.749871861 L245.5920041,278.062532035 L244.515633009,272.321886212 L248.103536648,268.016401845 L272.501281394,278.062532035 L275.012813942,273.757047668 L291.158380318,267.298821117 L304.074833419,272.321886212 L319.861609431,274.115838032 L325.961045618,276.986160943 L329.548949257,275.909789851 L327.754997437,283.444387494 L329.548949257,287.749871861 L351.076371092,302.819067145 L351.076371092,315.017939518 Z" fill="#cee3f5" id="TN.GF" stroke="#6e6e6e" stroke-width="0.4"><desc><labelrank>7</labelrank><code_hasc>TN.GF</code_hasc><name>Gafsa</name><admin>Tunisia</admin><type_en>Governorate</type_en><region /><woe_id>2347238</woe_id><longitude>8</longitude><woe_name>Gafsa</woe_name><fips>TS10</fips><woe_label>Qafash, TN, Tunisia</woe_label><latitude>34</latitude><iso_a2>TN</iso_a2><postal>GF</postal><type>Wilayat</type><id>TN.GF</id></desc></path><path d="M342.106611994,196.617119426 L344.976934905,200.563813429 L344.618144541,210.251153255 L350.358790364,215.633008713 L355.381855459,216.350589441 L363.634033829,225.320348539 L379.062019477,229.625832906 L384.085084572,228.549461814 L387.672988211,238.954382368 L388.031778575,239.671963096 L389.466940031,241.824705279 L383.367503844,255.458739108 L374.397744746,270.527934393 L372.245002563,275.909789851 L371.886212199,279.138903127 L372.245002563,280.932854946 L372.603792927,281.29164531 L372.603792927,281.650435674 L372.962583291,281.650435674 L372.962583291,282.009226038 L383.367503844,283.444387494 L389.825730395,286.673500769 L390.184520759,291.3377755 L389.108149667,293.131727319 L384.8026653,295.284469503 L384.443874936,296.002050231 L382.649923116,297.79600205 L379.062019477,298.154792414 L374.397744746,302.101486417 L367.939518196,304.254228601 L365.786776012,305.689390056 L364.710404921,306.406970784 L363.992824193,307.483341876 L363.634033829,307.84213224 L363.634033829,308.559712968 L363.992824193,308.918503332 L363.992824193,309.277293696 L365.427985648,310.353664787 L366.50435674,311.788826243 L366.863147104,312.865197335 L367.221937468,313.582778063 L367.221937468,314.30035879 L367.221937468,315.017939518 L367.221937468,315.735520246 L366.863147104,316.09431061 L366.50435674,316.09431061 L366.145566376,316.453100974 L365.786776012,316.453100974 L365.786776012,316.453100974 L365.069195284,316.09431061 L363.275243465,315.376729882 L358.969759098,311.071245515 L351.076371092,315.017939518 L351.076371092,302.819067145 L329.548949257,287.749871861 L327.754997437,283.444387494 L329.548949257,275.909789851 L325.961045618,276.986160943 L319.861609431,274.115838032 L304.074833419,272.321886212 L291.158380318,267.298821117 L311.250640697,255.458739108 L308.73910815,252.588416197 L315.1973347,243.259866735 L318.067657611,243.618657099 L328.113787801,238.595592004 L327.396207073,224.602767811 L319.502819067,221.014864172 L318.426447975,218.862121989 L324.884674526,206.663249616 L331.342901076,200.922603793 L332.419272168,197.334700154 L342.106611994,196.617119426 Z" fill="#cee3f5" id="TN.SZ" stroke="#6e6e6e" stroke-width="0.4"><desc><labelrank>9</labelrank><code_hasc>TN.SZ</code_hasc><name>Sidi Bou Zid</name><admin>Tunisia</admin><type_en>Governorate</type_en><region /><woe_id>2347253</woe_id><longitude>9</longitude><woe_name>Sidi Bou Zid</woe_name><fips>TS33</fips><woe_label>Sidi Bu Zayd, TN, Tunisia</woe_label><latitude>34</latitude><iso_a2>TN</iso_a2><postal>SZ</postal><type>Wilayat</type><id>TN.SZ</id></desc></path><path d="M472.347514095,275.550999487 L469.477191184,278.062532035 L461.942593542,274.83341876 L463.736545361,273.398257304 L473.065094823,273.398257304 L472.347514095,275.550999487 M486.699128652,264.069707842 L488.134290108,267.298821117 L475.217837007,274.115838032 L474.500256279,272.321886212 L478.446950282,264.78728857 L482.393644285,265.863659662 L482.034853921,262.634546386 L484.546386468,258.329062019 L488.493080472,260.123013839 L485.981547924,261.916965659 L486.699128652,264.069707842 M448.308559713,218.862121989 L450.82009226,227.114300359 L451.896463352,227.831881087 L452.972834444,227.831881087 L453.690415172,227.831881087 L454.049205536,227.473090723 L455.125576627,226.037929267 L455.484366991,225.679138903 L455.843157355,225.679138903 L456.201947719,226.037929267 L457.278318811,226.755509995 L457.995899539,228.190671451 L460.507432086,231.77857509 L465.171706817,232.854946181 L465.171706817,232.854946181 L465.889287545,235.725269093 L463.018964634,242.183495643 L457.995899539,246.130189646 L457.995899539,254.023577652 L453.331624808,258.329062019 L454.4079959,261.558175295 L449.743721169,264.428498206 L442.56791389,274.474628396 L435.392106612,277.703741671 L432.162993337,287.391081497 L422.834443875,289.54382368 L416.017426961,298.154792414 L408.841619682,298.872373142 L405.612506407,303.177857509 L396.283956945,307.483341876 L386.955407483,322.193746797 L385.161455664,320.758585341 L385.161455664,320.758585341 L384.8026653,320.399794977 L384.443874936,320.758585341 L383.726294208,323.987698616 L383.00871348,323.987698616 L382.649923116,323.987698616 L380.855971297,323.628908252 L377.985648385,321.834956433 L376.55048693,320.758585341 L375.115325474,318.605843157 L374.397744746,318.247052793 L373.680164018,317.88826243 L372.245002563,317.88826243 L368.29830856,318.605843157 L367.221937468,318.247052793 L365.069195284,317.529472066 L364.351614557,316.811891338 L363.275243465,315.376729882 L365.069195284,316.09431061 L365.786776012,316.453100974 L365.786776012,316.453100974 L366.145566376,316.453100974 L366.50435674,316.09431061 L366.863147104,316.09431061 L367.221937468,315.735520246 L367.221937468,315.017939518 L367.221937468,314.30035879 L367.221937468,313.582778063 L366.863147104,312.865197335 L366.50435674,311.788826243 L365.427985648,310.353664787 L363.992824193,309.277293696 L363.992824193,308.918503332 L363.634033829,308.559712968 L363.634033829,307.84213224 L363.992824193,307.483341876 L364.710404921,306.406970784 L365.786776012,305.689390056 L367.939518196,304.254228601 L374.397744746,302.101486417 L379.062019477,298.154792414 L382.649923116,297.79600205 L384.443874936,296.002050231 L384.8026653,295.284469503 L389.108149667,293.131727319 L390.184520759,291.3377755 L390.543311123,288.108662225 L389.825730395,286.673500769 L383.367503844,283.444387494 L381.573552025,282.726806766 L372.962583291,281.650435674 L372.603792927,281.650435674 L372.603792927,281.29164531 L372.245002563,280.932854946 L371.886212199,279.138903127 L371.886212199,278.062532035 L372.245002563,275.909789851 L374.397744746,270.527934393 L383.367503844,255.458739108 L389.466940031,241.824705279 L390.184520759,240.389543824 L391.619682214,238.23680164 L395.566376217,233.572526909 L398.795489493,230.702203998 L400.230650948,229.625832906 L403.459764223,228.908252178 L412.429523321,230.343413634 L416.376217324,232.496155818 L417.452588416,232.496155818 L418.528959508,232.496155818 L427.139928242,228.190671451 L428.575089698,226.755509995 L433.598154792,219.579702717 L442.209123526,221.373654536 L446.155817529,216.350589441 L448.308559713,218.862121989 Z" fill="#cee3f5" id="TN.SF" stroke="#6e6e6e" stroke-width="0.4"><desc><labelrank>9</labelrank><code_hasc>TN.SF</code_hasc><name>Sfax</name><admin>Tunisia</admin><type_en>Governorate</type_en><region /><woe_id>2347252</woe_id><longitude>11</longitude><woe_name>Sfax</woe_name><fips>TS32</fips><woe_label>Safaqis, TN, Tunisia</woe_label><latitude>34</latitude><iso_a2>TN</iso_a2><postal>SF</postal><type>Wilayat</type><id>TN.SF</id></desc></path><path d="M307.662737058,104.766786263 L315.914915428,111.942593542 L323.090722706,110.148641722 L330.625320349,113.736545361 L336.724756535,105.484366991 L344.618144541,104.766786263 L351.076371092,108.713480267 L363.275243465,105.125576627 L364.710404921,109.07227063 L363.275243465,113.736545361 L351.076371092,123.782675551 L355.740645823,128.446950282 L364.351614557,131.317273193 L365.427985648,137.057919016 L363.275243465,141.004613019 L344.618144541,157.508969759 L344.259354177,166.837519221 L346.053305997,172.578165044 L338.518708355,176.166068683 L328.113787801,175.448487955 L342.106611994,196.617119426 L332.419272168,197.334700154 L330.266529985,193.746796515 L322.731932342,190.158892875 L320.579190159,186.212198872 L313.044592517,184.777037417 L306.94515633,176.166068683 L308.380317786,163.249615582 L316.99128652,151.050743209 L318.426447975,143.516145566 L315.1973347,138.493080472 L309.097898514,134.546386468 L308.380317786,127.37057919 L303.716043055,119.835981548 L304.792414147,113.377754997 L300.128139416,105.843157355 L307.662737058,104.766786263 Z" fill="#cee3f5" id="TN.SL" stroke="#6e6e6e" stroke-width="0.4"><desc><labelrank>7</labelrank><code_hasc>TN.SL</code_hasc><name>Siliana</name><admin>Tunisia</admin><type_en>Governorate</type_en><region /><woe_id>2347245</woe_id><longitude>9</longitude><woe_name>Siliana</woe_name><fips>TS22</fips><woe_label>Silyanah, TN, Tunisia</woe_label><latitude>35</latitude><iso_a2>TN</iso_a2><postal>SL</postal><type>Wilayat</type><id>TN.SL</id></desc></path><path d="M432.162993337,194.464377242 L450.461301896,198.411071246 L456.201947719,191.594054331 L464.095335725,188.006150692 L466.248077909,192.311635059 L469.835981548,193.388006151 L467.324449001,197.693490518 L466.965658637,209.892362891 L471.629933368,216.350589441 L476.294208098,218.862121989 L476.294208098,220.656073808 L472.706304459,222.091235264 L471.271143004,224.961558175 L468.759610456,227.114300359 L466.965658637,231.77857509 L465.171706817,232.854946181 L465.171706817,232.854946181 L461.583803178,232.496155818 L460.507432086,231.77857509 L457.995899539,228.190671451 L457.278318811,226.755509995 L456.201947719,226.037929267 L455.843157355,225.679138903 L455.484366991,225.679138903 L455.125576627,226.037929267 L454.049205536,227.473090723 L453.690415172,227.831881087 L452.972834444,227.831881087 L451.896463352,227.831881087 L450.82009226,227.114300359 L446.155817529,216.350589441 L442.209123526,221.373654536 L433.598154792,219.579702717 L428.575089698,226.755509995 L427.139928242,228.190671451 L418.528959508,232.496155818 L417.452588416,232.496155818 L416.376217324,232.496155818 L403.459764223,228.908252178 L403.10097386,223.885187084 L398.795489493,208.457201435 L404.536135315,196.617119426 L403.459764223,190.517683239 L408.841619682,187.647360328 L408.482829318,191.594054331 L412.070732957,195.18195797 L419.246540236,195.899538698 L421.040492055,200.205023065 L426.06355715,202.357765249 L430.727831881,198.052280882 L432.162993337,194.464377242 Z" fill="#cee3f5" id="TN.MH" stroke="#6e6e6e" stroke-width="0.4"><desc><labelrank>7</labelrank><code_hasc>TN.MH</code_hasc><name>Mahdia</name><admin>Tunisia</admin><type_en>Governorate</type_en><region /><woe_id>2347240</woe_id><longitude>10</longitude><woe_name>Mahdia</woe_name><fips>TS15</fips><woe_label>Al Mahdiyah, TN, Tunisia</woe_label><latitude>35</latitude><iso_a2>TN</iso_a2><postal>MH</postal><type>Wilayat</type><id>TN.MH</id></desc></path><path d="M464.095335725,188.006150692 L456.201947719,191.594054331 L450.461301896,198.411071246 L432.162993337,194.464377242 L428.933880062,193.029215787 L427.139928242,195.899538698 L424.269605331,196.258329062 L422.475653511,193.029215787 L426.422347514,190.158892875 L426.06355715,186.570989236 L433.956945156,182.983085597 L434.674525884,172.21937468 L438.621219887,166.837519221 L442.926704254,168.63147104 L448.308559713,167.196309585 L450.461301896,168.63147104 L449.026140441,171.860584316 L450.461301896,175.089697591 L466.248077909,180.830343414 L467.324449001,182.983085597 L464.454126089,184.059456689 L464.095335725,188.006150692 Z" fill="#cee3f5" id="TN.MS" stroke="#6e6e6e" stroke-width="0.4"><desc><labelrank>7</labelrank><code_hasc>TN.MS</code_hasc><name>Monastir</name><admin>Tunisia</admin><type_en>Governorate</type_en><region /><woe_id>2347241</woe_id><longitude>10</longitude><woe_name>Monastir</woe_name><fips>TS16</fips><woe_label>Al Munastir, TN, Tunisia</woe_label><latitude>35</latitude><iso_a2>TN</iso_a2><postal>MS</postal><type>Wilayat</type><id>TN.MS</id></desc></path><path d="M408.841619682,187.647360328 L403.459764223,190.517683239 L404.536135315,196.617119426 L398.795489493,208.457201435 L403.10097386,223.885187084 L403.459764223,228.908252178 L400.230650948,229.625832906 L398.795489493,230.702203998 L395.566376217,233.572526909 L391.619682214,238.23680164 L390.184520759,240.389543824 L389.466940031,241.824705279 L388.031778575,239.671963096 L387.672988211,238.954382368 L384.085084572,228.549461814 L379.062019477,229.625832906 L363.634033829,225.320348539 L355.381855459,216.350589441 L350.358790364,215.633008713 L344.618144541,210.251153255 L344.976934905,200.563813429 L342.106611994,196.617119426 L328.113787801,175.448487955 L338.518708355,176.166068683 L346.053305997,172.578165044 L344.259354177,166.837519221 L344.618144541,157.508969759 L363.275243465,141.004613019 L376.909277294,141.004613019 L387.672988211,146.386468478 L390.184520759,139.210661199 L392.337262942,139.928241927 L395.925166581,135.981547924 L400.230650948,134.546386468 L398.077908765,140.645822655 L402.383393132,142.798564839 L404.177344951,146.386468478 L402.024602768,156.073808303 L397.001537673,163.96719631 L408.841619682,187.647360328 Z" fill="#cee3f5" id="TN.KR" stroke="#6e6e6e" stroke-width="0.4"><desc><labelrank>9</labelrank><code_hasc>TN.KR</code_hasc><name>Kairouan</name><admin>Tunisia</admin><type_en>Governorate</type_en><region /><woe_id>2347236</woe_id><longitude>9</longitude><woe_name>Kairouan</woe_name><fips>TS03</fips><woe_label>Al Qayrawan, TN, Tunisia</woe_label><latitude>35</latitude><iso_a2>TN</iso_a2><postal>KR</postal><type>Wilayat</type><id>TN.KR</id></desc></path><path d="M424.987186058,113.377754997 L421.399282419,125.935417734 L421.758072783,139.210661199 L424.987186058,148.898001025 L430.010251153,154.279856484 L432.162993337,160.37929267 L438.621219887,166.837519221 L434.674525884,172.21937468 L433.956945156,182.983085597 L426.06355715,186.570989236 L426.422347514,190.158892875 L422.475653511,193.029215787 L424.269605331,196.258329062 L427.139928242,195.899538698 L428.933880062,193.029215787 L432.162993337,194.464377242 L430.727831881,198.052280882 L426.06355715,202.357765249 L421.040492055,200.205023065 L419.246540236,195.899538698 L412.070732957,195.18195797 L408.482829318,191.594054331 L408.841619682,187.647360328 L397.001537673,163.96719631 L402.024602768,156.073808303 L404.177344951,146.386468478 L402.383393132,142.798564839 L398.077908765,140.645822655 L400.230650948,134.546386468 L404.536135315,131.676063557 L404.894925679,125.935417734 L411.711942594,123.782675551 L410.635571502,120.91235264 L412.429523321,119.11840082 L412.429523321,111.942593542 L423.910814967,110.86622245 L424.987186058,113.377754997 Z" fill="#cee3f5" id="TN.SS" stroke="#6e6e6e" stroke-width="0.4"><desc><labelrank>7</labelrank><code_hasc>TN.SS</code_hasc><name>Sousse</name><admin>Tunisia</admin><type_en>Governorate</type_en><region /><woe_id>2347246</woe_id><longitude>10</longitude><woe_name>Sousse</woe_name><fips>TS23</fips><woe_label>Susah, TN, Tunisia</woe_label><latitude>35</latitude><iso_a2>TN</iso_a2><postal>SS</postal><type>Wilayat</type><id>TN.SS</id></desc></path><path d="M381.573552025,86.4684777037 L384.443874936,90.7739620707 L394.490005126,94.003075346 L401.665812404,100.82009226 L403.10097386,104.4079959 L410.276781138,101.896463352 L410.635571502,110.86622245 L412.429523321,111.942593542 L412.429523321,119.11840082 L410.635571502,120.91235264 L411.711942594,123.782675551 L404.894925679,125.935417734 L404.536135315,131.676063557 L400.230650948,134.546386468 L395.925166581,135.981547924 L392.337262942,139.928241927 L390.184520759,139.210661199 L387.672988211,146.386468478 L376.909277294,141.004613019 L363.275243465,141.004613019 L365.427985648,137.057919016 L364.351614557,131.317273193 L355.740645823,128.446950282 L351.076371092,123.782675551 L363.275243465,113.736545361 L364.710404921,109.07227063 L363.275243465,105.125576627 L366.863147104,98.308559713 L372.962583291,92.9267042542 L375.832906202,91.4915427986 L379.062019477,85.0333162481 L381.573552025,86.4684777037 Z" fill="#cee3f5" id="TN.ZA" stroke="#6e6e6e" stroke-width="0.4"><desc><labelrank>7</labelrank><code_hasc>TN.ZA</code_hasc><name>Zaghouan</name><admin>Tunisia</admin><type_en>Governorate</type_en><region /><woe_id>2347257</woe_id><longitude>9</longitude><woe_name>Zaghouan</woe_name><fips>TS37</fips><woe_label>Zaghwan, TN, Tunisia</woe_label><latitude>36</latitude><iso_a2>TN</iso_a2><postal>ZA</postal><type>Wilayat</type><id>TN.ZA</id></desc></path><path d="M445.797027166,369.554074833 L445.797027166,376.012301384 L440.773962071,381.752947207 L444.36186571,387.493593029 L449.384930805,387.134802665 L459.789851358,381.752947207 L461.583803178,378.523833931 L459.431060994,374.577139928 L465.530497181,372.065607381 L471.629933368,374.935930292 L475.576627371,380.676576115 L476.294208098,386.417221937 L474.500256279,390.005125577 L475.576627371,398.257303947 L477.729369554,397.539723219 L480.958482829,401.486417222 L491.004613019,405.433111225 L478.088159918,403.280369042 L477.37057919,406.509482317 L482.034853921,412.967708867 L487.41670938,412.250128139 L497.462839569,415.120451051 L502.485904664,414.044079959 L495.66888775,407.944643772 L508.226550487,415.120451051 L504.997437212,442.029728344 L504.997437212,467.503844182 L512.532034854,476.114812916 L514.684777037,483.649410559 L505.356227576,493.336750384 L484.187596105,503.741670938 L484.187596105,503.741670938 L489.210661199,493.695540748 L490.645822655,492.260379293 L499.974372117,486.51973347 L502.844695028,484.366991287 L503.562275756,483.649410559 L504.279856484,482.931829831 L504.279856484,482.573039467 L504.279856484,482.214249103 L504.279856484,481.855458739 L503.92106612,481.496668375 L498.898001025,481.137878011 L477.011788826,463.915940543 L477.011788826,463.198359815 L477.011788826,462.839569452 L477.011788826,462.480779088 L477.729369554,459.610456176 L477.729369554,458.534085085 L477.37057919,450.281906715 L477.37057919,449.205535623 L477.37057919,448.846745259 L478.446950282,445.976422348 L478.805740646,444.182470528 L479.16453101,442.747309072 L478.805740646,441.670937981 L478.805740646,440.953357253 L478.446950282,440.235776525 L478.088159918,439.876986161 L477.37057919,439.518195797 L475.217837007,438.441824705 L471.271143004,434.853921066 L469.477191184,429.113275243 L469.11840082,428.395694516 L468.759610456,428.036904152 L468.400820092,428.036904152 L468.042029728,427.678113788 L445.438236802,417.631983598 L440.056381343,416.555612506 L438.621219887,416.196822142 L437.903639159,415.838031779 L436.827268068,414.761660687 L436.468477704,414.402870323 L436.468477704,414.044079959 L436.468477704,413.685289595 L436.468477704,413.326499231 L438.262429523,412.608918503 L438.621219887,412.250128139 L438.621219887,412.250128139 L438.621219887,411.891337775 L438.621219887,411.532547412 L439.338800615,410.45617632 L439.338800615,410.097385956 L439.338800615,409.738595592 L439.338800615,409.379805228 L439.338800615,409.021014864 L438.262429523,409.021014864 L428.575089698,409.738595592 L407.406458227,419.425935418 L406.688877499,419.784725782 L405.971296771,420.861096873 L398.795489493,420.143516146 L395.925166581,421.937467965 L395.566376217,422.296258329 L393.772424398,425.16658124 L390.543311123,426.601742696 L388.749359303,426.96053306 L386.955407483,427.319323424 L380.138390569,427.678113788 L381.214761661,424.807790876 L381.214761661,424.090210149 L381.214761661,423.372629421 L381.214761661,416.196822142 L381.214761661,415.479241415 L372.603792927,412.967708867 L370.809841107,411.891337775 L366.145566376,406.868272681 L367.580727832,406.868272681 L370.451050743,407.227063045 L371.168631471,407.227063045 L376.191696566,405.791901589 L381.932342389,406.150691953 L391.619682214,402.921578678 L400.948231676,395.386981035 L403.459764223,394.310609944 L408.841619682,392.516658124 L409.200410046,392.15786776 L409.917990774,391.799077396 L411.35315223,388.211173757 L416.735007688,379.241414659 L421.758072783,373.141978473 L423.193234239,371.706817017 L423.552024603,371.706817017 L431.445412609,371.348026653 L444.003075346,366.324961558 L445.797027166,369.554074833 M460.86622245,347.667862635 L471.271143004,356.637621732 L464.454126089,362.737057919 L463.377754997,366.683751922 L463.018964634,363.454638647 L461.942593542,363.813429011 L457.995899539,372.424397745 L456.919528447,367.760123014 L452.61404408,363.813429011 L447.949769349,366.683751922 L445.797027166,365.248590466 L445.438236802,349.10302409 L448.308559713,348.026652998 L458.354689903,349.461814454 L460.86622245,347.667862635 Z" fill="#cee3f5" id="TN.ME" stroke="#6e6e6e" stroke-width="0.4"><desc><labelrank>9</labelrank><code_hasc>TN.ME</code_hasc><name>Médenine</name><admin>Tunisia</admin><type_en>Governorate</type_en><region /><woe_id>2347249</woe_id><longitude>10</longitude><woe_name>Médenine</woe_name><fips>TS28</fips><woe_label>Madanin, TN, Tunisia</woe_label><latitude>33</latitude><iso_a2>TN</iso_a2><postal>ME</postal><type>Wilayat</type><id>TN.ME</id></desc></path><path d="M366.145566376,406.868272681 L370.809841107,411.891337775 L372.603792927,412.967708867 L381.214761661,415.479241415 L381.214761661,416.196822142 L381.214761661,423.372629421 L381.214761661,424.090210149 L381.214761661,424.807790876 L380.138390569,427.678113788 L380.138390569,430.548436699 L386.237826756,436.647872886 L383.00871348,439.159405433 L384.8026653,447.770374167 L381.214761661,454.946181445 L381.214761661,459.610456176 L384.443874936,467.145053819 L380.497180933,465.709892363 L367.221937468,454.228600718 L361.122501281,453.869810354 L348.923628908,460.328036904 L252.409021015,480.06150692 L248.821117376,450.281906715 L233.034341363,425.525371604 L226.217324449,424.090210149 L215.812403895,416.91440287 L206.12506407,414.402870323 L203.972321886,412.250128139 L202.895950794,395.028190671 L219.759097899,386.776012301 L269.630958483,347.309072271 L280.3946694,330.445925167 L297.616606868,327.934392619 L306.586365966,329.369554075 L308.380317786,323.628908252 L310.891850333,322.193746797 L328.113787801,319.682214249 L335.289595079,327.216811891 L327.754997437,334.751409534 L327.396207073,343.003587904 L330.266529985,354.126089185 L337.083546899,366.324961558 L342.824192722,369.19528447 L345.694515633,373.500768836 L348.923628908,373.8595592 L353.229113275,378.882624295 L350.717580728,388.211173757 L366.145566376,406.868272681 Z" fill="#cee3f5" id="TN.KB" stroke="#6e6e6e" stroke-width="0.4"><desc><labelrank>7</labelrank><code_hasc>TN.KB</code_hasc><name>Kebili</name><admin>Tunisia</admin><type_en>Governorate</type_en><region /><woe_id>2347251</woe_id><longitude>8</longitude><woe_name>Kebili</woe_name><fips>TS31</fips><woe_label>Qibili, TN, Tunisia</woe_label><latitude>33</latitude><iso_a2>TN</iso_a2><postal>KB</postal><type>Wilayat</type><id>TN.KB</id></desc></path><path d="M252.409021015,480.06150692 L348.923628908,460.328036904 L361.122501281,453.869810354 L367.221937468,454.228600718 L380.497180933,465.709892363 L384.443874936,467.145053819 L381.214761661,459.610456176 L381.214761661,454.946181445 L384.8026653,447.770374167 L383.00871348,439.159405433 L386.237826756,436.647872886 L380.138390569,430.548436699 L380.138390569,427.678113788 L386.955407483,427.319323424 L388.749359303,426.96053306 L390.543311123,426.601742696 L393.772424398,425.16658124 L395.566376217,422.296258329 L395.925166581,421.937467965 L398.795489493,420.143516146 L405.971296771,420.861096873 L406.688877499,419.784725782 L407.406458227,419.425935418 L428.575089698,409.738595592 L432.162993337,409.738595592 L439.338800615,409.021014864 L439.338800615,409.379805228 L439.338800615,410.097385956 L439.338800615,410.45617632 L438.621219887,411.532547412 L438.621219887,411.891337775 L438.621219887,412.250128139 L438.262429523,412.608918503 L436.468477704,413.326499231 L436.468477704,413.685289595 L436.468477704,414.044079959 L436.468477704,414.402870323 L436.827268068,414.761660687 L437.903639159,415.838031779 L438.621219887,416.196822142 L440.056381343,416.555612506 L445.438236802,417.631983598 L468.042029728,427.678113788 L468.400820092,428.036904152 L468.759610456,428.036904152 L469.477191184,429.113275243 L470.553562276,433.41875961 L471.271143004,434.853921066 L475.217837007,438.441824705 L477.37057919,439.518195797 L478.088159918,439.876986161 L478.446950282,440.235776525 L478.805740646,440.953357253 L478.805740646,441.670937981 L478.805740646,444.182470528 L478.446950282,445.976422348 L477.37057919,449.205535623 L477.729369554,458.534085085 L477.729369554,459.610456176 L477.011788826,462.480779088 L477.011788826,462.839569452 L477.011788826,463.198359815 L477.011788826,463.915940543 L498.898001025,481.137878011 L501.050743209,481.855458739 L503.92106612,481.496668375 L504.279856484,481.855458739 L504.279856484,482.214249103 L504.279856484,482.573039467 L504.279856484,482.931829831 L503.562275756,483.649410559 L502.844695028,484.366991287 L499.974372117,486.51973347 L490.645822655,492.260379293 L489.210661199,493.695540748 L484.187596105,503.741670938 L484.187596105,503.741670938 L459.07227063,516.299333675 L454.049205536,526.345463865 L445.797027166,533.162480779 L439.697590979,532.086109687 L437.544848795,534.238851871 L436.10968734,545.002562788 L430.369041517,553.254741158 L423.552024603,557.201435161 L414.223475141,557.201435161 L410.276781138,560.789338801 L399.51307022,576.217324449 L397.719118401,586.622245003 L409.200410046,618.195797027 L411.35315223,637.211686315 L405.253716043,651.563300871 L376.909277294,689.236289083 L368.29830856,690.312660174 L350.0,700.0 L310.174269605,523.833931317 L308.380317786,520.604818042 L252.409021015,480.06150692 Z" fill="#cee3f5" id="TN.TA" stroke="#6e6e6e" stroke-width="0.4"><desc><labelrank>7</labelrank><code_hasc>TN.TA</code_hasc><name>Tataouine</name><admin>Tunisia</admin><type_en>Governorate</type_en><region /><woe_id>2347254</woe_id><longitude>9</longitude><woe_name>Tataouine</woe_name><fips>TS34</fips><woe_label>Tatawin, TN, Tunisia</woe_label><latitude>32</latitude><iso_a2>TN</iso_a2><postal>TA</postal><type>Wilayat</type><id>TN.TA</id></desc></path></svg>