<?xml version='1.0' encoding='utf-8'?>
<svg height="700" width="700" xmlns="http://www.w3.org/2000/svg"><path d="M0.0,138.108108108 L0.0,22.0720720721 L187.927927928,22.0720720721 L166.486486486,46.036036036 L165.225225225,112.882882883 L165.225225225,138.108108108 L0.0,138.108108108 Z" fill="#cee3f5" id="US.NM.045" stroke="#6e6e6e" stroke-width="0.4"><desc><name>San Juan County</name><stateAbbrev>NM</stateAbbrev><state>New Mexico</state><fips>045</fips><incits>35045</incits><id>US.NM.045</id><population>126503</population></desc></path><path d="M442.702702703,23.3333333333 L582.702702703,23.3333333333 L582.702702703,112.882882883 L581.441441441,112.882882883 L533.513513514,112.882882883 L533.513513514,112.882882883 L509.54954955,112.882882883 L428.828828829,107.837837838 L426.306306306,59.9099099099 L441.441441441,54.8648648649 L442.702702703,23.3333333333 Z" fill="#cee3f5" id="US.NM.007" stroke="#6e6e6e" stroke-width="0.4"><desc><name>Colfax County</name><stateAbbrev>NM</stateAbbrev><state>New Mexico</state><fips>007</fips><incits>35007</incits><id>US.NM.007</id><population>13094</population></desc></path><path d="M351.891891892,23.3333333333 L442.702702703,23.3333333333 L441.441441441,54.8648648649 L426.306306306,59.9099099099 L428.828828829,107.837837838 L407.387387387,136.846846847 L383.423423423,126.756756757 L356.936936937,97.7477477477 L351.891891892,23.3333333333 Z" fill="#cee3f5" id="US.NM.055" stroke="#6e6e6e" stroke-width="0.4"><desc><name>Taos County</name><stateAbbrev>NM</stateAbbrev><state>New Mexico</state><fips>055</fips><incits>35055</incits><id>US.NM.055</id><population>33035</population></desc></path><path d="M324.144144144,165.855855856 L324.144144144,157.027027027 L324.144144144,154.504504505 L324.144144144,145.675675676 L345.585585586,138.108108108 L385.945945946,140.630630631 L384.684684685,153.243243243 L385.945945946,249.099099099 L325.405405405,249.099099099 L324.144144144,228.918918919 L324.144144144,165.855855856 Z" fill="#cee3f5" id="US.NM.049" stroke="#6e6e6e" stroke-width="0.4"><desc><name>Santa Fe County</name><stateAbbrev>NM</stateAbbrev><state>New Mexico</state><fips>049</fips><incits>35049</incits><id>US.NM.049</id><population>147423</population></desc></path><path d="M384.684684685,153.243243243 L428.828828829,153.243243243 L467.927927928,164.594594595 L541.081081081,163.333333333 L586.486486486,160.810810811 L625.585585586,208.738738739 L570.09009009,237.747747748 L570.09009009,228.918918919 L435.135135135,228.918918919 L435.135135135,249.099099099 L385.945945946,249.099099099 L384.684684685,153.243243243 Z" fill="#cee3f5" id="US.NM.047" stroke="#6e6e6e" stroke-width="0.4"><desc><name>San Miguel County</name><stateAbbrev>NM</stateAbbrev><state>New Mexico</state><fips>047</fips><incits>35047</incits><id>US.NM.047</id><population>28541</population></desc></path><path d="M384.684684685,153.243243243 L385.945945946,140.630630631 L407.387387387,136.846846847 L428.828828829,107.837837838 L509.54954955,112.882882883 L533.513513514,112.882882883 L533.513513514,112.882882883 L534.774774775,112.882882883 L533.513513514,115.405405405 L534.774774775,121.711711712 L544.864864865,138.108108108 L541.081081081,163.333333333 L467.927927928,164.594594595 L428.828828829,153.243243243 L384.684684685,153.243243243 Z" fill="#cee3f5" id="US.NM.033" stroke="#6e6e6e" stroke-width="0.4"><desc><name>Mora County</name><stateAbbrev>NM</stateAbbrev><state>New Mexico</state><fips>033</fips><incits>35033</incits><id>US.NM.033</id><population>4704</population></desc></path><path d="M324.144144144,141.891891892 L324.144144144,145.675675676 L324.144144144,154.504504505 L324.144144144,157.027027027 L324.144144144,165.855855856 L306.486486486,160.810810811 L324.144144144,141.891891892 Z" fill="#cee3f5" id="US.NM.028" stroke="#6e6e6e" stroke-width="0.4"><desc><name>Los Alamos County</name><stateAbbrev>NM</stateAbbrev><state>New Mexico</state><fips>028</fips><incits>35028</incits><id>US.NM.028</id><population>17798</population></desc></path><path d="M165.225225225,138.108108108 L165.225225225,112.882882883 L250.990990991,112.882882883 L250.990990991,138.108108108 L324.144144144,141.891891892 L306.486486486,160.810810811 L324.144144144,165.855855856 L324.144144144,228.918918919 L214.414414414,228.918918919 L201.801801802,218.828828829 L201.801801802,138.108108108 L165.225225225,138.108108108 Z" fill="#cee3f5" id="US.NM.043" stroke="#6e6e6e" stroke-width="0.4"><desc><name>Sandoval County</name><stateAbbrev>NM</stateAbbrev><state>New Mexico</state><fips>043</fips><incits>35043</incits><id>US.NM.043</id><population>136575</population></desc></path><path d="M582.702702703,112.882882883 L582.702702703,23.3333333333 L700.0,22.0720720721 L694.954954955,80.0900900901 L694.954954955,168.378378378 L655.855855856,168.378378378 L657.117117117,128.018018018 L607.927927928,128.018018018 L582.702702703,117.927927928 L582.702702703,112.882882883 Z" fill="#cee3f5" id="US.NM.059" stroke="#6e6e6e" stroke-width="0.4"><desc><name>Union County</name><stateAbbrev>NM</stateAbbrev><state>New Mexico</state><fips>059</fips><incits>35059</incits><id>US.NM.059</id><population>4370</population></desc></path><path d="M165.225225225,112.882882883 L166.486486486,46.036036036 L187.927927928,22.0720720721 L351.891891892,23.3333333333 L356.936936937,97.7477477477 L383.423423423,126.756756757 L407.387387387,136.846846847 L385.945945946,140.630630631 L345.585585586,138.108108108 L324.144144144,145.675675676 L324.144144144,141.891891892 L250.990990991,138.108108108 L250.990990991,112.882882883 L165.225225225,112.882882883 Z" fill="#cee3f5" id="US.NM.039" stroke="#6e6e6e" stroke-width="0.4"><desc><name>Rio Arriba County</name><stateAbbrev>NM</stateAbbrev><state>New Mexico</state><fips>039</fips><incits>35039</incits><id>US.NM.039</id><population>40072</population></desc></path><path d="M214.414414414,228.918918919 L324.144144144,228.918918919 L325.405405405,249.099099099 L305.225225225,269.279279279 L234.594594595,268.018018018 L229.54954955,257.927927928 L214.414414414,228.918918919 Z" fill="#cee3f5" id="US.NM.001" stroke="#6e6e6e" stroke-width="0.4"><desc><name>Bernalillo County</name><stateAbbrev>NM</stateAbbrev><state>New Mexico</state><fips>001</fips><incits>35001</incits><id>US.NM.001</id><population>674221</population></desc></path><path d="M0.0,302.072072072 L153.873873874,302.072072072 L155.135135135,429.459459459 L121.081081081,429.459459459 L121.081081081,462.252252252 L0.0,460.990990991 L0.0,302.072072072 Z" fill="#cee3f5" id="US.NM.003" stroke="#6e6e6e" stroke-width="0.4"><desc><name>Catron County</name><stateAbbrev>NM</stateAbbrev><state>New Mexico</state><fips>003</fips><incits>35003</incits><id>US.NM.003</id><population>3607</population></desc></path><path d="M431.351351351,469.81981982 L479.279279279,469.81981982 L480.540540541,358.828828829 L493.153153153,368.918918919 L566.306306306,370.18018018 L590.27027027,360.09009009 L616.756756757,409.279279279 L640.720720721,419.369369369 L616.756756757,419.369369369 L605.405405405,488.738738739 L486.846846847,488.738738739 L485.585585586,540.45045045 L427.567567568,540.45045045 L431.351351351,469.81981982 Z" fill="#cee3f5" id="US.NM.005" stroke="#6e6e6e" stroke-width="0.4"><desc><name>Chaves County</name><stateAbbrev>NM</stateAbbrev><state>New Mexico</state><fips>005</fips><incits>35005</incits><id>US.NM.005</id><population>65823</population></desc></path><path d="M0.0,302.072072072 L0.0,257.927927928 L66.8468468468,259.189189189 L66.8468468468,218.828828829 L201.801801802,218.828828829 L214.414414414,228.918918919 L229.54954955,257.927927928 L214.414414414,257.927927928 L214.414414414,302.072072072 L153.873873874,302.072072072 L0.0,302.072072072 Z" fill="#cee3f5" id="US.NM.006" stroke="#6e6e6e" stroke-width="0.4"><desc><name>Cibola County</name><stateAbbrev>NM</stateAbbrev><state>New Mexico</state><fips>006</fips><incits>35006</incits><id>US.NM.006</id><population>27335</population></desc></path><path d="M614.234234234,299.54954955 L667.207207207,259.189189189 L694.954954955,259.189189189 L694.954954955,334.864864865 L614.234234234,334.864864865 L614.234234234,299.54954955 Z" fill="#cee3f5" id="US.NM.009" stroke="#6e6e6e" stroke-width="0.4"><desc><name>Curry County</name><stateAbbrev>NM</stateAbbrev><state>New Mexico</state><fips>009</fips><incits>35009</incits><id>US.NM.009</id><population>50598</population></desc></path><path d="M480.540540541,358.828828829 L480.540540541,328.558558559 L480.540540541,299.54954955 L532.252252252,299.54954955 L544.864864865,279.369369369 L568.828828829,279.369369369 L590.27027027,299.54954955 L590.27027027,360.09009009 L566.306306306,370.18018018 L493.153153153,368.918918919 L480.540540541,358.828828829 Z" fill="#cee3f5" id="US.NM.011" stroke="#6e6e6e" stroke-width="0.4"><desc><name>De Baca County</name><stateAbbrev>NM</stateAbbrev><state>New Mexico</state><fips>011</fips><incits>35011</incits><id>US.NM.011</id><population>1907</population></desc></path><path d="M203.063063063,530.36036036 L203.063063063,510.18018018 L250.990990991,505.135135135 L312.792792793,478.648648649 L309.009009009,490.0 L309.009009009,600.990990991 L291.351351351,626.216216216 L203.063063063,626.216216216 L203.063063063,530.36036036 Z" fill="#cee3f5" id="US.NM.013" stroke="#6e6e6e" stroke-width="0.4"><desc><name>Dona Ana County</name><stateAbbrev>NM</stateAbbrev><state>New Mexico</state><fips>013</fips><incits>35013</incits><id>US.NM.013</id><population>213460</population></desc></path><path d="M485.585585586,540.45045045 L486.846846847,488.738738739 L605.405405405,488.738738739 L616.756756757,540.45045045 L616.756756757,600.990990991 L485.585585586,600.990990991 L485.585585586,540.45045045 Z" fill="#cee3f5" id="US.NM.015" stroke="#6e6e6e" stroke-width="0.4"><desc><name>Eddy County</name><stateAbbrev>NM</stateAbbrev><state>New Mexico</state><fips>015</fips><incits>35015</incits><id>US.NM.015</id><population>55471</population></desc></path><path d="M0.0,460.990990991 L121.081081081,462.252252252 L137.477477477,460.990990991 L160.18018018,530.36036036 L95.8558558559,540.45045045 L97.1171171171,617.387387387 L60.5405405405,616.126126126 L60.5405405405,540.45045045 L23.963963964,531.621621622 L0.0,510.18018018 L0.0,460.990990991 Z" fill="#cee3f5" id="US.NM.017" stroke="#6e6e6e" stroke-width="0.4"><desc><name>Grant County</name><stateAbbrev>NM</stateAbbrev><state>New Mexico</state><fips>017</fips><incits>35017</incits><id>US.NM.017</id><population>29328</population></desc></path><path d="M432.612612613,328.558558559 L435.135135135,249.099099099 L435.135135135,228.918918919 L570.09009009,228.918918919 L570.09009009,237.747747748 L568.828828829,279.369369369 L544.864864865,279.369369369 L532.252252252,299.54954955 L480.540540541,299.54954955 L480.540540541,328.558558559 L432.612612613,328.558558559 Z" fill="#cee3f5" id="US.NM.019" stroke="#6e6e6e" stroke-width="0.4"><desc><name>Guadalupe County</name><stateAbbrev>NM</stateAbbrev><state>New Mexico</state><fips>019</fips><incits>35019</incits><id>US.NM.019</id><population>4551</population></desc></path><path d="M533.513513514,112.882882883 L533.513513514,112.882882883 L581.441441441,112.882882883 L582.702702703,117.927927928 L607.927927928,128.018018018 L657.117117117,128.018018018 L655.855855856,168.378378378 L655.855855856,207.477477477 L625.585585586,208.738738739 L586.486486486,160.810810811 L541.081081081,163.333333333 L544.864864865,138.108108108 L534.774774775,121.711711712 L533.513513514,115.405405405 L534.774774775,112.882882883 L533.513513514,112.882882883 L533.513513514,112.882882883 Z" fill="#cee3f5" id="US.NM.021" stroke="#6e6e6e" stroke-width="0.4"><desc><name>Harding County</name><stateAbbrev>NM</stateAbbrev><state>New Mexico</state><fips>021</fips><incits>35021</incits><id>US.NM.021</id><population>693</population></desc></path><path d="M0.0,510.18018018 L23.963963964,531.621621622 L60.5405405405,540.45045045 L60.5405405405,616.126126126 L97.1171171171,617.387387387 L97.1171171171,626.216216216 L97.1171171171,677.927927928 L0.0,677.927927928 L0.0,510.18018018 Z" fill="#cee3f5" id="US.NM.023" stroke="#6e6e6e" stroke-width="0.4"><desc><name>Hidalgo County</name><stateAbbrev>NM</stateAbbrev><state>New Mexico</state><fips>023</fips><incits>35023</incits><id>US.NM.023</id><population>4654</population></desc></path><path d="M605.405405405,488.738738739 L616.756756757,419.369369369 L640.720720721,419.369369369 L693.693693694,419.369369369 L692.432432432,600.990990991 L616.756756757,600.990990991 L616.756756757,540.45045045 L605.405405405,488.738738739 Z" fill="#cee3f5" id="US.NM.025" stroke="#6e6e6e" stroke-width="0.4"><desc><name>Lea County</name><stateAbbrev>NM</stateAbbrev><state>New Mexico</state><fips>025</fips><incits>35025</incits><id>US.NM.025</id><population>68062</population></desc></path><path d="M310.27027027,429.459459459 L310.27027027,408.018018018 L346.846846847,409.279279279 L361.981981982,389.099099099 L361.981981982,339.90990991 L432.612612613,339.90990991 L432.612612613,328.558558559 L480.540540541,328.558558559 L480.540540541,358.828828829 L479.279279279,469.81981982 L431.351351351,469.81981982 L431.351351351,449.63963964 L384.684684685,439.54954955 L312.792792793,439.54954955 L310.27027027,429.459459459 Z" fill="#cee3f5" id="US.NM.027" stroke="#6e6e6e" stroke-width="0.4"><desc><name>Lincoln County</name><stateAbbrev>NM</stateAbbrev><state>New Mexico</state><fips>027</fips><incits>35027</incits><id>US.NM.027</id><population>20105</population></desc></path><path d="M160.18018018,530.36036036 L203.063063063,530.36036036 L203.063063063,626.216216216 L97.1171171171,626.216216216 L97.1171171171,617.387387387 L95.8558558559,540.45045045 L160.18018018,530.36036036 Z" fill="#cee3f5" id="US.NM.029" stroke="#6e6e6e" stroke-width="0.4"><desc><name>Luna County</name><stateAbbrev>NM</stateAbbrev><state>New Mexico</state><fips>029</fips><incits>35029</incits><id>US.NM.029</id><population>24659</population></desc></path><path d="M0.0,138.108108108 L165.225225225,138.108108108 L201.801801802,138.108108108 L201.801801802,218.828828829 L66.8468468468,218.828828829 L66.8468468468,259.189189189 L0.0,257.927927928 L0.0,138.108108108 Z" fill="#cee3f5" id="US.NM.031" stroke="#6e6e6e" stroke-width="0.4"><desc><name>McKinley County</name><stateAbbrev>NM</stateAbbrev><state>New Mexico</state><fips>031</fips><incits>35031</incits><id>US.NM.031</id><population>73308</population></desc></path><path d="M312.792792793,478.648648649 L312.792792793,439.54954955 L384.684684685,439.54954955 L431.351351351,449.63963964 L431.351351351,469.81981982 L427.567567568,540.45045045 L485.585585586,540.45045045 L485.585585586,600.990990991 L309.009009009,600.990990991 L309.009009009,490.0 L312.792792793,478.648648649 Z" fill="#cee3f5" id="US.NM.035" stroke="#6e6e6e" stroke-width="0.4"><desc><name>Otero County</name><stateAbbrev>NM</stateAbbrev><state>New Mexico</state><fips>035</fips><incits>35035</incits><id>US.NM.035</id><population>65616</population></desc></path><path d="M570.09009009,237.747747748 L625.585585586,208.738738739 L655.855855856,207.477477477 L655.855855856,168.378378378 L694.954954955,168.378378378 L694.954954955,259.189189189 L667.207207207,259.189189189 L614.234234234,299.54954955 L590.27027027,299.54954955 L568.828828829,279.369369369 L570.09009009,237.747747748 Z" fill="#cee3f5" id="US.NM.037" stroke="#6e6e6e" stroke-width="0.4"><desc><name>Quay County</name><stateAbbrev>NM</stateAbbrev><state>New Mexico</state><fips>037</fips><incits>35037</incits><id>US.NM.037</id><population>8662</population></desc></path><path d="M590.27027027,299.54954955 L614.234234234,299.54954955 L614.234234234,334.864864865 L694.954954955,334.864864865 L693.693693694,419.369369369 L640.720720721,419.369369369 L616.756756757,409.279279279 L590.27027027,360.09009009 L590.27027027,299.54954955 Z" fill="#cee3f5" id="US.NM.041" stroke="#6e6e6e" stroke-width="0.4"><desc><name>Roosevelt County</name><stateAbbrev>NM</stateAbbrev><state>New Mexico</state><fips>041</fips><incits>35041</incits><id>US.NM.041</id><population>19955</population></desc></path><path d="M155.135135135,429.459459459 L310.27027027,429.459459459 L312.792792793,439.54954955 L312.792792793,478.648648649 L250.990990991,505.135135135 L203.063063063,510.18018018 L203.063063063,530.36036036 L160.18018018,530.36036036 L137.477477477,460.990990991 L121.081081081,462.252252252 L121.081081081,429.459459459 L155.135135135,429.459459459 Z" fill="#cee3f5" id="US.NM.051" stroke="#6e6e6e" stroke-width="0.4"><desc><name>Sierra County</name><stateAbbrev>NM</stateAbbrev><state>New Mexico</state><fips>051</fips><incits>35051</incits><id>US.NM.051</id><population>11572</population></desc></path><path d="M153.873873874,302.072072072 L214.414414414,302.072072072 L250.990990991,302.072072072 L305.225225225,318.468468468 L305.225225225,338.648648649 L361.981981982,339.90990991 L361.981981982,389.099099099 L346.846846847,409.279279279 L310.27027027,408.018018018 L310.27027027,429.459459459 L155.135135135,429.459459459 L153.873873874,302.072072072 Z" fill="#cee3f5" id="US.NM.053" stroke="#6e6e6e" stroke-width="0.4"><desc><name>Socorro County</name><stateAbbrev>NM</stateAbbrev><state>New Mexico</state><fips>053</fips><incits>35053</incits><id>US.NM.053</id><population>17584</population></desc></path><path d="M305.225225225,269.279279279 L325.405405405,249.099099099 L385.945945946,249.099099099 L435.135135135,249.099099099 L432.612612613,328.558558559 L432.612612613,339.90990991 L361.981981982,339.90990991 L305.225225225,338.648648649 L305.225225225,318.468468468 L305.225225225,269.279279279 Z" fill="#cee3f5" id="US.NM.057" stroke="#6e6e6e" stroke-width="0.4"><desc><name>Torrance County</name><stateAbbrev>NM</stateAbbrev><state>New Mexico</state><fips>057</fips><incits>35057</incits><id>US.NM.057</id><population>15717</population></desc></path><path d="M214.414414414,302.072072072 L214.414414414,257.927927928 L229.54954955,257.927927928 L234.594594595,268.018018018 L305.225225225,269.279279279 L305.225225225,318.468468468 L250.990990991,302.072072072 L214.414414414,302.072072072 Z" fill="#cee3f5" id="US.NM.061" stroke="#6e6e6e" stroke-width="0.4"><desc><name>Valencia County</name><stateAbbrev>NM</stateAbbrev><state>New Mexico</state><fips>061</fips><incits>35061</incits><id>US.NM.061</id><population>76284</population></desc></path></svg>