<?xml version='1.0' encoding='utf-8'?>
<svg height="700" width="700" xmlns="http://www.w3.org/2000/svg"><path d="M397.461463085,410.725378236 L397.416821705,410.724881856 L337.96500122,410.022008411 L338.927939871,406.031251617 L338.266021395,405.342427101 L337.923145042,405.131078788 L337.22547777,404.839978417 L325.978883663,401.669402536 L323.729699854,400.584416244 L322.701455384,399.923644049 L321.813043605,399.201769668 L321.047150594,398.363177529 L320.362919593,397.45749819 L319.946104437,396.649036231 L319.582014128,395.709067982 L319.081970916,393.379221295 L318.929744447,391.541731958 L319.188883435,385.946312707 L319.419105741,384.674414912 L319.419152261,384.656863057 L320.005218632,380.785308865 L320.716120779,378.063726122 L321.664334618,375.737675806 L321.823021687,375.097450239 L321.859864703,374.351594504 L321.704938038,373.558431283 L321.218798697,372.67956007 L320.853604596,372.248574009 L320.482253727,371.94920677 L317.172163468,370.369364696 L316.318987602,369.802422032 L315.77955967,369.327018562 L315.083967625,368.561558751 L314.417794673,367.682077092 L313.862401013,366.703432299 L313.637323572,366.114792463 L313.155879726,363.688277246 L312.834802194,360.103752708 L312.905757013,353.647602712 L313.457294709,349.837397896 L315.115965342,344.947975982 L316.164139644,344.169885142 L317.002272457,343.680791777 L317.543205818,343.489238361 L319.374422103,343.178396314 L322.012878838,343.010073374 L326.248433457,343.126573463 L326.876277498,343.005330133 L327.457790662,342.822527507 L327.946555588,342.551721495 L328.383154197,342.228122362 L329.04711876,341.597936462 L329.519358641,340.955559218 L329.941416581,339.464716967 L334.444749911,310.410099313 L334.431288026,308.801146595 L333.426187046,306.78604253 L331.5612126,305.1226882 L329.268913004,302.674120346 L327.795034752,300.318251373 L327.570039947,299.805713824 L325.4222826,293.519123304 L325.304456419,292.044400418 L325.396820396,290.102187748 L326.370477816,284.139956555 L327.249427865,280.927332621 L327.255416041,278.724519669 L326.278765532,273.178183795 L327.240430823,271.466532897 L327.315969339,271.414082338 L327.472964934,271.265315611 L327.613567335,270.747901056 L327.719394256,270.221615165 L326.763025867,267.925459759 L326.281781747,265.809041093 L326.248234337,265.361356498 L326.441424593,264.700745387 L326.809038864,263.868016692 L327.687509687,262.808509546 L328.297934331,262.219246683 L328.907806516,261.825976954 L329.970141343,261.346155592 L331.101623196,261.015685513 L337.23042661,260.829625406 L339.040266486,260.447946409 L343.502355292,258.867205292 L344.495016164,258.299062846 L345.348812813,257.598940402 L346.121695351,256.775754158 L346.505442496,256.267614165 L346.734621532,254.887380333 L346.84405249,252.620504993 L345.987201834,244.547582461 L344.399917518,239.342643893 L344.039073663,237.560253816 L342.34612019,233.206195568 L341.82681306,232.34487727 L341.133827816,231.448019515 L338.267299879,228.75243317 L337.626562985,227.873178313 L337.211721767,227.009117105 L337.108249981,226.70168196 L337.00548119,226.122183843 L336.957812591,224.393135409 L337.187866671,222.775968446 L337.922294566,220.949465555 L339.283607158,218.5219054 L342.112811941,214.845863299 L342.426045621,214.618449887 L342.791643807,214.285847209 L345.192041331,212.913760631 L350.599843847,212.908629281 L356.46197644,211.549173788 L362.130648995,211.191780779 L367.83500053,210.192904739 L385.478821678,211.544181726 L403.456379894,209.113316232 L409.575101397,209.301467684 L425.945749185,212.67047795 L452.992361021,210.403933035 L479.967500151,204.901719869 L522.384513583,200.12410392 L522.428661265,200.119103504 L522.45744024,203.596356364 L521.620399436,206.635229996 L518.77516604,212.294625831 L517.775368728,215.31621502 L517.67428807,221.161456146 L516.938212667,223.257889989 L515.240633012,225.382983359 L513.492092792,225.65633441 L506.301821846,221.922476145 L503.938071458,221.509253534 L501.738867584,222.224711425 L499.554075328,224.396800516 L498.814838092,225.460152463 L498.503492284,226.180388679 L498.392018871,228.409681684 L497.954417915,229.756168369 L495.135751825,234.108483986 L492.83921536,239.234790351 L492.947288535,241.35247644 L494.551250192,243.932576682 L502.193173902,251.775133641 L503.204616255,253.197685572 L503.532847115,254.966805484 L503.236718397,256.995262016 L503.144104779,257.629599182 L502.128808122,260.115201417 L500.727882397,261.162298445 L499.094463329,261.94651123 L497.358268951,263.614259024 L496.631111201,265.446802384 L495.95291897,275.11880609 L494.820173938,277.370319349 L491.19659909,281.708772216 L488.246808035,287.10173258 L486.265524924,288.956440357 L479.511263402,288.2319736 L475.138272727,289.39890032 L467.065586801,292.719188578 L465.256585459,294.063590803 L464.272300236,296.32852767 L464.019366914,298.891113163 L464.416078166,301.11670685 L465.80071748,304.60204224 L466.697970157,308.043941411 L465.911427809,311.01070784 L462.256046902,313.058676543 L460.27052938,312.943358786 L458.07581296,312.535597511 L456.264980456,313.092693271 L455.419344126,315.883751601 L455.559213873,316.647081525 L456.152436665,318.088692578 L456.025117408,318.67378422 L449.178604157,327.628486376 L448.342698228,328.360162025 L446.531016159,328.972353923 L445.718207262,329.575262122 L443.559057137,333.071482774 L443.118784248,336.207208361 L443.875139224,339.365879215 L445.305699738,342.922048014 L445.689953652,344.811403858 L445.681478747,352.161796862 L444.98511105,354.513737909 L442.673708157,358.913710187 L438.933706115,370.526757644 L437.213592508,374.066290102 L434.44630083,375.985510212 L426.759465771,377.977729178 L425.445328393,377.989346651 L424.317321678,377.445212142 L423.224259408,376.69923307 L421.991663151,376.114071155 L420.770646231,375.967608694 L417.316812296,376.077942072 L416.107325752,376.30573064 L414.909271617,377.077519371 L413.955309697,378.077503845 L412.873449541,378.878524145 L411.361484199,379.088506656 L402.686025769,378.373171991 L403.044673264,381.374359713 L402.795929878,388.549001942 L402.177420375,391.649006039 L401.816338018,392.336125565 L400.546979317,394.239395591 L400.267598416,394.473197907 L400.464753429,395.400524551 L400.941604113,395.649460823 L401.499935608,395.848721266 L401.929911637,396.638720424 L401.882263287,398.367300885 L400.472213388,401.589603298 L400.052117213,403.3354771 L400.19107853,404.338807623 L400.771776327,406.079502337 L400.631458782,407.082643555 L400.025888801,407.678912531 L398.128272616,408.546272357 L397.487540614,409.399870493 L397.451738011,410.601971125 L397.461463085,410.725378236 Z" fill="#cee3f5" id="BJ.BO" stroke="#6e6e6e" stroke-width="0.4"><desc><labelrank>7</labelrank><code_hasc>BJ.BO</code_hasc><name>Borgou</name><admin>Benin</admin><type_en>Department</type_en><region /><woe_id>2344826</woe_id><longitude>2</longitude><woe_name>Borgou</woe_name><fips>BN10</fips><woe_label>Borgou, BJ, Benin</woe_label><latitude>9</latitude><iso_a2>BJ</iso_a2><postal>BO</postal><type>Département</type><id>BJ.BO</id></desc></path><path d="M522.428661265,200.119103504 L522.384513583,200.12410392 L479.967500151,204.901719869 L452.992361021,210.403933035 L425.945749185,212.67047795 L409.575101397,209.301467684 L403.456379894,209.113316232 L385.478821678,211.544181726 L367.83500053,210.192904739 L362.130648995,211.191780779 L356.46197644,211.549173788 L350.599843847,212.908629281 L345.192041331,212.913760631 L346.450095729,212.214631784 L345.974670908,176.160650548 L346.187391942,174.300579895 L346.595586375,172.911977924 L347.745365616,170.940057978 L349.971895549,168.397237519 L356.633443339,162.868411761 L352.99903251,159.355779657 L351.694654988,158.440079343 L351.400041974,158.351639446 L350.87990338,158.297780907 L350.325532389,158.050754146 L349.771354699,157.724730931 L348.783988801,157.254321793 L347.397302492,156.987699713 L346.333779573,156.950001081 L340.839861777,149.057643761 L319.205180786,109.979224154 L318.689530641,109.376168778 L333.428525343,94.4596981782 L341.604894744,87.8243334176 L347.589365285,84.4991506682 L349.138852036,83.0051773651 L349.545260276,81.9295787082 L349.456097162,80.6889029992 L349.530261971,78.7113852287 L350.737640931,75.5079408456 L355.03873535,70.7262084883 L356.613598233,67.7867391538 L360.661109805,56.8483243544 L360.444689827,55.6893180667 L359.14683717,53.7262850751 L358.999825579,52.4855018202 L359.636859791,51.0299857663 L360.582259651,50.7863366102 L361.63049332,50.9349115174 L362.598978958,50.6619957541 L363.349736201,49.8151765762 L364.228845015,48.1787031818 L365.002468034,47.3670023264 L366.120237254,47.263974073 L367.283019107,47.6934486241 L368.101374796,47.5195360966 L368.17432351,45.5771048525 L367.946701933,44.1665317905 L367.222011129,43.6326352579 L366.162705251,43.3788959493 L364.977295103,42.8381501434 L363.82733706,41.8936996835 L363.034482786,40.9733741063 L362.414897335,39.8486087625 L358.684262212,29.2261121138 L357.605190665,22.9158975862 L357.519163488,20.3411129539 L358.502185905,18.3773725002 L361.198381578,17.143059473 L362.729609219,16.9533623957 L365.284540328,17.0641780463 L366.712033215,16.9267222521 L366.977355078,16.6347050701 L367.900683564,15.3668649398 L368.476978841,14.9467356317 L369.305234112,15.1414751505 L369.936943079,15.7980545979 L370.500529048,15.986390075 L371.135799319,14.8056663223 L371.656349684,13.4082174507 L372.439511054,13.087878796 L373.486454771,13.2478060021 L374.798295697,13.2970004348 L375.10855524,13.5550085342 L375.280074909,14.1755406924 L375.624429077,14.6852046185 L376.464661295,14.6281654371 L377.098287819,14.2489338362 L378.112667737,13.2793649175 L378.619569401,12.9525494759 L382.579946231,11.8822869387 L383.017105346,11.9648721664 L383.971389632,12.5280199733 L384.523673185,12.5873496018 L385.203112052,12.2548279761 L386.539381387,11.2678962193 L387.310564844,11.122692999 L391.233179089,12.1751994509 L392.246548763,11.59133905 L393.802889639,9.13573378593 L394.172103677,8.25849811618 L394.391737216,7.36938443643 L394.714819088,6.55645113728 L395.313839715,5.89010162764 L396.522371651,5.42334086683 L397.695044716,6.2144784265 L398.857349183,5.92895938028 L399.882096996,5.09911252815 L401.667252487,2.97099068299 L402.898863208,2.16463349868 L403.968865977,1.95490232275 L406.223477377,2.03860358236 L407.362482882,1.81124960497 L410.008313871,1.71940984218 L411.332197894,-1.13686837722e-13 L416.66749451,4.77708297504 L418.933477107,5.99492205432 L420.049105885,7.20642598275 L420.911649305,8.59920355872 L421.624418266,11.1445670867 L422.533270033,12.0926286374 L423.764443794,12.7306134376 L425.076242193,13.2164312573 L428.770214785,13.6320653664 L429.702361451,13.9245968789 L430.116676998,14.5155292129 L431.210134369,16.6218093872 L435.723221899,23.2677868955 L454.893553406,40.7223653624 L455.239623863,41.3247133464 L456.749590325,42.4642986801 L457.095722065,43.0724771414 L457.374441942,45.4886526544 L457.929849128,48.05668509 L458.749853087,50.1154186571 L461.30070467,54.4015486737 L462.892975182,56.242866421 L463.838956174,57.1252949718 L465.211456453,58.048152478 L466.756270503,58.4441566231 L468.253629119,57.7460206284 L469.819750425,56.8078300418 L471.133885371,57.0634987464 L472.333423845,57.7639474182 L473.578685648,58.1658854847 L478.585491111,61.2475578615 L482.668278183,62.6917870624 L483.914704412,63.5555513227 L484.815356869,64.4081908384 L488.560469687,69.731523865 L489.31116443,70.3912462593 L489.934500705,70.7644998394 L490.43119552,71.2257571375 L490.848040753,72.1142925292 L491.416609033,73.903581641 L491.833467506,74.768701274 L492.054581025,75.7687854286 L492.448415476,76.6339444684 L493.383558316,77.1410766422 L494.425211015,78.9351934848 L495.210820603,79.5830129683 L492.7594871,82.1625461617 L485.032035134,95.3652952483 L483.713860446,100.469577677 L483.012806124,102.193857952 L480.783687746,108.288288234 L480.984143081,110.891585205 L482.651651625,113.966383262 L502.735351262,142.137131995 L505.445318319,144.696603317 L506.3702102,144.849502333 L507.42141776,144.656870311 L507.55330966,144.663604845 L508.46164928,144.709971558 L509.399930056,145.608755103 L508.266298667,150.008485568 L508.272143333,152.460018746 L508.728370255,154.720319214 L509.565715311,156.795392965 L510.714970096,158.726341516 L510.715041543,158.755596189 L513.041018175,168.833966189 L512.922084841,172.169296005 L510.50750966,178.137257987 L510.373378248,180.097623147 L510.943502458,181.44780897 L511.848198609,182.387615329 L512.833646847,183.210184749 L513.680662324,184.179344503 L514.239063557,185.392019193 L515.301357026,189.10468372 L516.357602924,190.357032882 L517.793715172,190.789246183 L519.379952772,191.083510875 L520.805591485,191.898869649 L521.841494308,194.084354822 L522.405949874,197.376927755 L522.428661265,200.119103504 Z" fill="#cee3f5" id="BJ.AL" stroke="#6e6e6e" stroke-width="0.4"><desc><labelrank>7</labelrank><code_hasc>BJ.AL</code_hasc><name>Alibori</name><admin>Benin</admin><type_en>Department</type_en><region /><woe_id>55967672</woe_id><longitude>2</longitude><woe_name>Alibori</woe_name><fips>BN07</fips><woe_label>Alibori, BJ, Benin</woe_label><latitude>11</latitude><iso_a2>BJ</iso_a2><postal>AL</postal><type>Département</type><id>BJ.AL</id></desc></path><path d="M397.461463085,410.725378236 L399.637593846,438.317645276 L399.898411365,441.621809556 L399.010637945,445.443975576 L398.112799379,446.777083741 L395.862741768,449.305444638 L395.267558155,450.720617708 L395.243499486,451.723817211 L395.521529132,453.815280717 L395.520743396,454.865293657 L394.655002008,459.553135249 L394.513518894,461.720320679 L394.919321281,464.417312065 L395.791480218,466.915751498 L398.00250035,471.629174722 L398.770139237,474.039722888 L398.710219182,476.522833793 L397.822927409,478.601767417 L396.644255982,480.490369184 L395.768573466,482.40548489 L395.463965568,484.476016624 L395.214211639,491.243790119 L393.786279028,498.411370109 L393.349387681,505.547486409 L392.952055449,506.553305719 L391.795629008,508.710891275 L391.538326742,509.576420375 L391.60705765,510.083872428 L391.665898734,510.51829585 L392.574703409,511.905338741 L393.84382754,515.152773165 L396.548314265,518.167173992 L397.550594127,519.793997378 L397.864557145,521.420356692 L396.775050326,536.675363175 L396.73444085,536.67510643 L373.496816607,536.522648167 L371.991102863,536.594033642 L370.281412343,541.295092474 L370.014932225,544.500354205 L370.781912557,547.443608342 L370.51776426,548.695107776 L368.888548149,549.207921496 L367.766861671,549.952372351 L364.21700902,554.963917314 L362.882664143,557.433635194 L363.17101035,560.151165316 L363.978946484,562.962955743 L343.727275412,553.701677885 L335.757091798,551.174820641 L329.184759233,550.574091498 L323.223891529,550.71089493 L317.878247371,549.804105917 L313.605839572,546.860408479 L309.394237357,543.117841037 L303.230720367,540.536996879 L298.184393706,539.470657385 L275.338895183,540.729365544 L273.118591517,540.522862754 L273.115797433,538.531012553 L273.095107342,516.086133928 L273.084504118,498.164029363 L273.425348038,480.12595713 L273.668047699,467.151696591 L272.501323344,457.434531837 L271.933933685,456.388076548 L271.270424222,456.163378697 L271.268316336,456.160293712 L270.945788395,455.688268478 L271.514987918,452.928464689 L271.52198066,450.962443316 L271.700188979,450.003459634 L275.427011596,443.907858434 L275.853431382,441.908217695 L275.37964741,440.800668519 L272.480319104,437.106973771 L271.914076486,435.83811703 L271.75581489,434.503433526 L271.725582117,431.122006163 L273.765196447,431.274961418 L279.815291022,431.515637124 L281.947410189,431.329836002 L282.541359944,431.349401069 L283.788022904,431.23072331 L293.585488205,428.644157728 L295.444008141,428.333992598 L296.806900346,428.232868423 L297.505116032,428.410525223 L298.708953144,428.914418904 L299.667932451,429.52285834 L300.521834782,430.227499341 L303.557839175,433.512819336 L304.01113053,433.84176685 L304.534395324,434.141655331 L305.127725108,434.38030372 L305.756176447,434.557610444 L306.454737862,434.656120568 L309.884929232,434.630544887 L310.548527489,434.737667937 L311.089547573,434.949759484 L311.57785216,435.27578809 L311.978667318,435.654230562 L313.650136053,437.82924755 L314.475084452,438.612467185 L315.451831068,439.264425014 L316.5162162,439.820049411 L319.816013421,440.822986513 L320.30457357,441.096247358 L321.600780092,442.161295971 L322.141891667,442.390783733 L322.753177532,442.506351266 L325.496487696,442.504132676 L326.841364316,442.744223113 L329.954840449,443.886316402 L330.63599172,444.028252881 L331.317321736,444.091200173 L333.979320914,444.000505363 L335.902546338,443.457624942 L337.249309567,442.819860919 L338.22907228,442.198852087 L339.827346421,440.994068614 L340.703679061,439.638604771 L340.076028895,438.987964928 L339.266321793,436.254273406 L340.800120322,426.551944327 L338.975732318,416.436046997 L338.164136019,414.884009889 L337.119375414,413.524507297 L337.96500122,410.022008411 L397.416821705,410.724881856 L397.461463085,410.725378236 Z" fill="#cee3f5" id="BJ.CL" stroke="#6e6e6e" stroke-width="0.4"><desc><labelrank>7</labelrank><code_hasc>BJ.CL</code_hasc><name>Collines</name><admin>Benin</admin><type_en>Department</type_en><region /><woe_id>55967670</woe_id><longitude>2</longitude><woe_name>Collines</woe_name><fips>BN11</fips><woe_label>Collines, BJ, Benin</woe_label><latitude>8</latitude><iso_a2>BJ</iso_a2><postal>CL</postal><type>Département</type><id>BJ.CL</id></desc></path><path d="M368.373746527,679.579892471 L363.030481884,680.232169032 L360.624649381,680.896240111 L358.621782889,682.186587271 L357.209824244,683.527317967 L356.166743117,686.293713633 L350.17767064,686.842155384 L341.096319467,688.846753986 L314.008477178,691.873309306 L314.009036386,691.865067624 L314.075315042,690.888253531 L313.692953104,688.851724817 L312.72713525,685.898518345 L310.99385992,683.382490549 L310.649761289,679.886405788 L311.233912742,677.524175638 L313.727881891,671.143896622 L314.363059466,669.521788558 L314.681715388,668.168149158 L314.809213464,665.843030767 L314.43591189,659.43945369 L314.319257709,656.373808691 L314.461793556,655.318168649 L314.81471326,654.36240519 L315.677398642,652.97769284 L316.257980589,652.238832924 L317.189885448,651.310544377 L317.454619896,650.547647674 L317.667617848,649.325424152 L317.548892627,647.263067461 L318.16883434,644.339308345 L319.683823218,641.259370515 L319.582947611,639.036181626 L319.375206472,637.631774834 L319.535019162,636.663920212 L319.946600563,635.532765402 L321.583623452,632.69875544 L322.515435259,631.621257485 L323.026061807,630.627757826 L324.823953169,626.074123142 L325.52805732,624.750461339 L326.075038329,623.028701871 L325.045586653,620.259717893 L359.085070489,620.174125463 L362.9529488,626.467179874 L364.069922865,631.080818815 L364.418913964,637.606283379 L364.861035138,649.750189854 L364.979999897,653.142977795 L365.775688536,663.45340553 L367.01933976,665.668746112 L367.651000913,665.818582482 L368.317654814,666.073736816 L368.808797874,666.337473299 L370.141692259,667.277669528 L370.627912501,672.434335202 L370.168739069,675.206444192 L368.373746527,679.579892471 Z" fill="#cee3f5" id="BJ.AQ" stroke="#6e6e6e" stroke-width="0.4"><desc><labelrank>7</labelrank><code_hasc>BJ.AQ</code_hasc><name>Atlantique</name><admin>Benin</admin><type_en>Department</type_en><region /><woe_id>2344825</woe_id><longitude>2</longitude><woe_name>Atlantique</woe_name><fips>BN09</fips><woe_label>Atlantique, BJ, Benin</woe_label><latitude>6</latitude><iso_a2>BJ</iso_a2><postal>AQ</postal><type>Département</type><id>BJ.AQ</id></desc></path><path d="M370.222120277,685.004194063 L356.166743117,686.293713633 L357.209824244,683.527317967 L358.621782889,682.186587271 L360.624649381,680.896240111 L363.030481884,680.232169032 L368.373746527,679.579892471 L368.003198173,681.919989549 L368.85855174,682.64824069 L369.414934852,682.734379786 L369.971061782,683.077231243 L370.222120277,685.004194063 Z" fill="#cee3f5" id="BJ.LI" stroke="#6e6e6e" stroke-width="0.4"><desc><labelrank>7</labelrank><code_hasc>BJ.LI</code_hasc><name>Littoral</name><admin>Benin</admin><type_en>Department</type_en><region /><woe_id>55967673</woe_id><longitude>2</longitude><woe_name>Littoral</woe_name><fips>BN14</fips><woe_label>Littoral, BJ, Benin</woe_label><latitude>6</latitude><iso_a2>BJ</iso_a2><postal>LI</postal><type>Département</type><id>BJ.LI</id></desc></path><path d="M325.045586653,620.259717893 L326.075038329,623.028701871 L325.52805732,624.750461339 L324.823953169,626.074123142 L323.026061807,630.627757826 L322.515435259,631.621257485 L321.583623452,632.69875544 L319.946600563,635.532765402 L319.535019162,636.663920212 L319.375206472,637.631774834 L319.582947611,639.036181626 L319.683823218,641.259370515 L318.16883434,644.339308345 L311.274790262,640.873599941 L307.785496515,639.880325371 L304.007842868,639.722741487 L297.84051358,641.045266602 L290.686985736,643.645958228 L280.035010288,646.11960323 L277.560811401,646.069060005 L275.64867911,645.826879044 L269.474165725,642.857771253 L269.000693033,642.637942353 L269.893410613,641.451740943 L270.354665472,639.700720243 L269.695769604,636.966449187 L268.836909275,634.64698753 L268.351353114,632.694276539 L268.286853329,630.760345104 L269.154614355,626.008994743 L268.925356942,624.434411365 L267.911553007,623.20855193 L266.237039014,621.951940944 L266.056303167,621.816303326 L264.787341975,619.93426942 L262.613849702,611.88230539 L271.160571931,611.966792018 L273.2201137,611.364352904 L273.187400714,594.735954817 L273.1668511,578.300563261 L273.148794247,561.396987542 L273.132483362,550.268723564 L276.783991654,551.02282105 L279.175033218,553.917538682 L280.029198379,555.318468966 L285.920192191,567.897310199 L286.560320072,570.806924528 L286.960890066,571.685653914 L287.60663432,572.62649251 L287.814771349,573.399361391 L287.984070887,575.544103228 L288.419708583,576.443382818 L289.316337446,577.534064018 L291.065318649,578.846424206 L295.42037767,584.47154141 L295.960482916,585.727869565 L296.379333993,586.433930714 L297.814314517,587.341489013 L299.542057262,590.358808232 L301.001500114,595.648249826 L302.06478073,600.579766899 L303.461724651,602.946649642 L304.231845982,603.510105726 L304.879889319,603.801222667 L306.68263291,605.174388982 L309.047305927,608.801085233 L310.88268688,611.39682355 L312.704296524,612.348549528 L314.230802792,614.650947101 L314.752623169,616.655722749 L314.997059934,617.165200503 L315.609653909,617.736879886 L319.462022694,620.599674163 L320.449183514,621.005318167 L321.185618602,621.088693157 L322.379164265,620.605514237 L324.257721318,619.573750611 L325.045586653,620.259717893 Z" fill="#cee3f5" id="BJ.CF" stroke="#6e6e6e" stroke-width="0.4"><desc><labelrank>7</labelrank><code_hasc>BJ.CF</code_hasc><name>Kouffo</name><admin>Benin</admin><type_en>Department</type_en><region /><woe_id>55967668</woe_id><longitude>1</longitude><woe_name>Kouffo</woe_name><fips>BN12</fips><woe_label>Kouffo, BJ, Benin</woe_label><latitude>6</latitude><iso_a2>BJ</iso_a2><postal>CF</postal><type>Département</type><id>BJ.CF</id></desc></path><path d="M374.379115874,611.973330294 L374.180376437,617.731864388 L375.261867162,623.468271596 L380.65758339,636.549499385 L382.979617679,649.82057131 L385.158325096,653.372802903 L390.653059001,657.994739208 L392.389093625,659.85007394 L396.79539958,667.272385688 L396.827228392,667.325991845 L396.443643849,668.436079363 L396.046102908,670.749484782 L395.175695691,675.814059285 L395.124510365,682.712475308 L395.063029124,682.7168294 L370.222120277,685.004194063 L369.971061782,683.077231243 L369.414934852,682.734379786 L368.85855174,682.64824069 L368.003198173,681.919989549 L368.373746527,679.579892471 L370.168739069,675.206444192 L370.627912501,672.434335202 L370.141692259,667.277669528 L368.808797874,666.337473299 L368.317654814,666.073736816 L367.651000913,665.818582482 L367.01933976,665.668746112 L365.775688536,663.45340553 L364.979999897,653.142977795 L364.861035138,649.750189854 L364.418913964,637.606283379 L364.069922865,631.080818815 L362.9529488,626.467179874 L359.085070489,620.174125463 L359.280932937,617.881365501 L360.528763587,615.680622621 L362.373020317,613.188127247 L364.197711483,612.233973442 L367.359967765,611.921837421 L374.379115874,611.973330294 Z" fill="#cee3f5" id="BJ.OU" stroke="#6e6e6e" stroke-width="0.4"><desc><labelrank>7</labelrank><code_hasc>BJ.OU</code_hasc><name>Ouémé</name><admin>Benin</admin><type_en>Department</type_en><region /><woe_id>2344828</woe_id><longitude>2</longitude><woe_name>Ouémé</woe_name><fips>BN16</fips><woe_label>Oueme, BJ, Benin</woe_label><latitude>6</latitude><iso_a2>BJ</iso_a2><postal>OU</postal><type>Département</type><id>BJ.OU</id></desc></path><path d="M363.978946484,562.962955743 L364.589333087,565.081294528 L364.582899978,570.138256239 L364.972887844,571.153651294 L365.602552404,571.993853534 L366.115129675,573.082508308 L366.124633373,574.849087309 L366.490943663,576.183235265 L368.252697043,582.877218671 L369.965744482,586.622888968 L375.312915181,590.264134729 L375.960628455,591.001827747 L376.012565857,591.633620237 L375.870415736,593.540393083 L378.370542095,606.145414928 L378.909281574,611.185167471 L378.909273364,611.193941598 L378.874149979,611.255327255 L378.786328682,611.421952096 L378.523019016,611.755119182 L378.031854314,612.003252709 L377.36548119,612.116677544 L376.535554818,612.133419632 L374.379115874,611.973330294 L367.359967765,611.921837421 L364.197711483,612.233973442 L362.373020317,613.188127247 L360.528763587,615.680622621 L359.280932937,617.881365501 L359.085070489,620.174125463 L325.045586653,620.259717893 L324.257721318,619.573750611 L322.379164265,620.605514237 L321.185618602,621.088693157 L320.449183514,621.005318167 L319.462022694,620.599674163 L315.609653909,617.736879886 L314.997059934,617.165200503 L314.752623169,616.655722749 L314.230802792,614.650947101 L312.704296524,612.348549528 L310.88268688,611.39682355 L309.047305927,608.801085233 L306.68263291,605.174388982 L304.879889319,603.801222667 L304.231845982,603.510105726 L303.461724651,602.946649642 L302.06478073,600.579766899 L301.001500114,595.648249826 L299.542057262,590.358808232 L297.814314517,587.341489013 L296.379333993,586.433930714 L295.960482916,585.727869565 L295.42037767,584.47154141 L291.065318649,578.846424206 L289.316337446,577.534064018 L288.419708583,576.443382818 L287.984070887,575.544103228 L287.814771349,573.399361391 L287.60663432,572.62649251 L286.960890066,571.685653914 L286.560320072,570.806924528 L285.920192191,567.897310199 L280.029198379,555.318468966 L279.175033218,553.917538682 L276.783991654,551.02282105 L273.132483362,550.268723564 L273.118591517,540.522862754 L275.338895183,540.729365544 L298.184393706,539.470657385 L303.230720367,540.536996879 L309.394237357,543.117841037 L313.605839572,546.860408479 L317.878247371,549.804105917 L323.223891529,550.71089493 L329.184759233,550.574091498 L335.757091798,551.174820641 L343.727275412,553.701677885 L363.978946484,562.962955743 Z" fill="#cee3f5" id="BJ.ZO" stroke="#6e6e6e" stroke-width="0.4"><desc><labelrank>7</labelrank><code_hasc>BJ.ZO</code_hasc><name>Zou</name><admin>Benin</admin><type_en>Department</type_en><region /><woe_id>2344829</woe_id><longitude>2</longitude><woe_name>Zou</woe_name><fips>BN18</fips><woe_label>Zou, BJ, Benin</woe_label><latitude>7</latitude><iso_a2>BJ</iso_a2><postal>ZO</postal><type>Département</type><id>BJ.ZO</id></desc></path><path d="M396.775050326,536.675363175 L396.510144927,540.383413278 L397.102559783,544.823517308 L399.364653742,549.036496313 L402.701386636,553.010101554 L405.197900786,557.158550551 L404.892067603,561.890537017 L404.623006092,562.902346642 L404.540957121,563.539886545 L404.178840603,563.767835724 L401.73847336,563.281087619 L400.559047942,563.268741257 L399.69462171,563.765445394 L399.413627876,565.017047051 L401.769594903,592.861155025 L401.651937676,594.428704512 L401.277465513,595.498929181 L400.377092766,596.668306939 L399.335907115,598.814422839 L398.844679402,599.568703976 L398.727373356,600.35244202 L399.15892743,601.826706698 L400.128233175,603.043892132 L403.095449937,605.47286201 L403.749423721,606.543588765 L403.304718257,607.765872044 L402.147335435,608.379477276 L400.697826262,608.805728176 L399.376750288,609.430886386 L396.440587551,613.500279737 L396.812187591,617.606686564 L398.341107422,621.947715622 L398.899653213,626.691757663 L397.692696874,631.437733104 L397.387281494,633.888384303 L397.959005761,636.120184258 L398.823723816,637.270030859 L399.782275144,637.9578241 L400.939825968,638.303521894 L402.343073101,638.435817259 L403.009408373,638.947935738 L403.231071479,640.097403743 L403.602937802,645.317966095 L402.97077872,646.595722213 L401.578510021,647.510458595 L399.53072663,649.325597306 L398.231081726,651.758165094 L398.194732042,654.077344806 L399.163136716,658.850781672 L398.927909094,661.245889994 L396.827228392,667.325991845 L396.79539958,667.272385688 L392.389093625,659.85007394 L390.653059001,657.994739208 L385.158325096,653.372802903 L382.979617679,649.82057131 L380.65758339,636.549499385 L375.261867162,623.468271596 L374.180376437,617.731864388 L374.379115874,611.973330294 L376.535554818,612.133419632 L377.36548119,612.116677544 L378.031854314,612.003252709 L378.523019016,611.755119182 L378.786328682,611.421952096 L378.874149979,611.255327255 L378.909273364,611.193941598 L378.909281574,611.185167471 L378.370542095,606.145414928 L375.870415736,593.540393083 L376.012565857,591.633620237 L375.960628455,591.001827747 L375.312915181,590.264134729 L369.965744482,586.622888968 L368.252697043,582.877218671 L366.490943663,576.183235265 L366.124633373,574.849087309 L366.115129675,573.082508308 L365.602552404,571.993853534 L364.972887844,571.153651294 L364.582899978,570.138256239 L364.589333087,565.081294528 L363.978946484,562.962955743 L363.17101035,560.151165316 L362.882664143,557.433635194 L364.21700902,554.963917314 L367.766861671,549.952372351 L368.888548149,549.207921496 L370.51776426,548.695107776 L370.781912557,547.443608342 L370.014932225,544.500354205 L370.281412343,541.295092474 L371.991102863,536.594033642 L373.496816607,536.522648167 L396.73444085,536.67510643 L396.775050326,536.675363175 Z" fill="#cee3f5" id="BJ.PL" stroke="#6e6e6e" stroke-width="0.4"><desc><labelrank>7</labelrank><code_hasc>BJ.PL</code_hasc><name>Plateau</name><admin>Benin</admin><type_en>Department</type_en><region /><woe_id>55967669</woe_id><longitude>2</longitude><woe_name>Plateau</woe_name><fips>BN17</fips><woe_label>Plateau, BJ, Benin</woe_label><latitude>7</latitude><iso_a2>BJ</iso_a2><postal>PL</postal><type>Département</type><id>BJ.PL</id></desc></path><path d="M318.16883434,644.339308345 L317.548892627,647.263067461 L317.667617848,649.325424152 L317.454619896,650.547647674 L317.189885448,651.310544377 L316.257980589,652.238832924 L315.677398642,652.97769284 L314.81471326,654.36240519 L314.461793556,655.318168649 L314.319257709,656.373808691 L314.43591189,659.43945369 L314.809213464,665.843030767 L314.681715388,668.168149158 L314.363059466,669.521788558 L313.727881891,671.143896622 L311.233912742,677.524175638 L310.649761289,679.886405788 L310.99385992,683.382490549 L312.72713525,685.898518345 L313.692953104,688.851724817 L314.075315042,690.888253531 L314.009036386,691.865067624 L314.008477178,691.873309306 L302.318464171,693.17558947 L272.295092656,700.0 L271.482810928,697.635740261 L273.82794616,696.404440313 L288.390376665,693.00627782 L290.744016678,692.871384609 L288.632880848,684.558855802 L286.452807354,676.05287476 L283.550041129,671.374020757 L282.580454366,670.646098658 L280.149276396,669.390766396 L279.401830459,668.777436959 L279.15863317,667.788044741 L279.445847006,665.360776402 L279.308390437,664.222465617 L278.597070379,663.25523821 L276.717098776,661.70274096 L276.426651912,660.915042008 L276.278006417,659.618708059 L275.459652792,659.329815307 L274.347692926,659.432111033 L273.283158202,659.306334925 L272.395266592,658.777319673 L271.4495234,658.017018378 L270.562697278,657.119365414 L269.88662336,656.187180404 L269.527150684,655.027693189 L269.600309212,653.983517572 L269.801904116,653.036244867 L269.780994887,652.155628217 L268.547213763,649.884892196 L267.088118479,648.69587934 L266.366422267,647.421201032 L267.309759447,644.884626751 L269.000693033,642.637942353 L269.474165725,642.857771253 L275.64867911,645.826879044 L277.560811401,646.069060005 L280.035010288,646.11960323 L290.686985736,643.645958228 L297.84051358,641.045266602 L304.007842868,639.722741487 L307.785496515,639.880325371 L311.274790262,640.873599941 L318.16883434,644.339308345 Z" fill="#cee3f5" id="BJ.1764" stroke="#6e6e6e" stroke-width="0.4"><desc><labelrank>7</labelrank><code_hasc>BJ.CF</code_hasc><name>Mono</name><admin>Benin</admin><type_en>Department</type_en><region /><woe_id>2344827</woe_id><longitude>1</longitude><woe_name>Mono</woe_name><fips>BN15</fips><woe_label>Mono, BJ, Benin</woe_label><latitude>6</latitude><iso_a2>BJ</iso_a2><postal>CF</postal><type>Département</type><id>BJ.1764</id></desc></path><path d="M318.689530641,109.376168778 L319.205180786,109.979224154 L340.839861777,149.057643761 L346.333779573,156.950001081 L347.397302492,156.987699713 L348.783988801,157.254321793 L349.771354699,157.724730931 L350.325532389,158.050754146 L350.87990338,158.297780907 L351.400041974,158.351639446 L351.694654988,158.440079343 L352.99903251,159.355779657 L356.633443339,162.868411761 L349.971895549,168.397237519 L347.745365616,170.940057978 L346.595586375,172.911977924 L346.187391942,174.300579895 L345.974670908,176.160650548 L346.450095729,212.214631784 L345.192041331,212.913760631 L342.791643807,214.285847209 L342.426045621,214.618449887 L342.112811941,214.845863299 L339.283607158,218.5219054 L337.922294566,220.949465555 L337.187866671,222.775968446 L336.957812591,224.393135409 L337.00548119,226.122183843 L337.108249981,226.70168196 L337.211721767,227.009117105 L337.626562985,227.873178313 L338.267299879,228.75243317 L341.133827816,231.448019515 L341.82681306,232.34487727 L342.34612019,233.206195568 L344.039073663,237.560253816 L344.399917518,239.342643893 L345.987201834,244.547582461 L346.84405249,252.620504993 L346.734621532,254.887380333 L346.505442496,256.267614165 L346.121695351,256.775754158 L345.348812813,257.598940402 L344.495016164,258.299062846 L343.502355292,258.867205292 L339.040266486,260.447946409 L337.23042661,260.829625406 L331.101623196,261.015685513 L329.970141343,261.346155592 L328.907806516,261.825976954 L328.297934331,262.219246683 L327.687509687,262.808509546 L326.809038864,263.868016692 L326.441424593,264.700745387 L326.248234337,265.361356498 L326.281781747,265.809041093 L326.763025867,267.925459759 L294.899811545,266.814362493 L290.683547607,268.378722167 L286.736837095,270.63123539 L283.030337626,273.621633143 L278.252558999,275.97543513 L272.602279151,277.321472271 L265.516255188,276.509850514 L260.74656071,275.391357158 L255.296217854,274.71673119 L250.557098363,274.550923223 L244.19231199,275.778139449 L242.775506532,276.293197653 L242.766701319,275.422719727 L241.347300016,271.561660158 L229.543320918,263.619094924 L213.527041261,252.837569022 L204.012641686,246.423813628 L197.577276466,242.082687561 L186.956637774,234.914674396 L178.509134546,229.201101974 L177.616912468,227.488179838 L177.54255976,224.882294506 L179.189718124,213.225455486 L180.879701103,206.926049107 L180.992200599,202.497767338 L180.173315135,192.284181438 L181.810090356,188.507906375 L187.941230557,182.749454978 L189.402874935,180.675488311 L189.758288487,179.512929458 L189.950004858,176.926588525 L190.178397247,175.716308631 L191.949323204,172.388702182 L191.795852037,171.161128119 L190.874597389,168.853880137 L190.617022061,167.631410454 L190.956839909,165.382747629 L193.874942185,158.427622837 L197.274523966,160.336289157 L198.777025819,160.551484429 L200.77824619,160.582654781 L201.256643395,159.979983853 L201.543214597,158.658879406 L201.448094634,157.329340144 L200.804462432,156.716141823 L199.91667147,156.288597227 L199.530435741,155.255614862 L199.481294158,153.984907697 L199.616355614,152.841327183 L200.011392943,152.580589396 L200.969566729,151.149919711 L201.638072997,149.787516786 L202.385037533,148.785673993 L202.883645971,148.590013422 L203.402784062,148.777931193 L205.85176531,149.183684305 L206.599885897,149.721391507 L207.163018075,150.254923397 L207.762740213,150.504765717 L208.0849209,150.752763186 L208.667425753,151.863005025 L208.862315698,152.124788226 L209.568007842,152.094297418 L210.78632775,151.487601923 L211.226564405,151.370465516 L214.670358153,151.770271408 L215.801178621,152.169694141 L216.098322063,152.727689011 L216.889156549,153.859543387 L217.705464291,154.628602025 L218.078774858,154.11875587 L218.217423887,152.302066185 L216.953616317,150.985784039 L216.255859976,149.7784119 L216.078695761,148.54507138 L216.063750725,147.263006034 L215.841104257,145.9152198 L215.632943351,145.919740905 L214.57232642,145.427064993 L214.250016458,145.202542967 L214.184005297,144.681127822 L214.389645085,143.274613478 L214.265455961,142.811359878 L213.21494239,142.561619072 L212.50555831,143.192148406 L212.088326157,143.344555945 L211.983876282,141.634538397 L212.563573723,141.38660676 L216.256835201,140.579252883 L216.907143414,140.126825708 L217.683286317,138.068343098 L218.184038631,137.492018379 L219.374572032,137.511290622 L221.59884178,138.587739967 L222.752275309,138.998841079 L222.186492747,137.043139146 L221.771480556,133.180079614 L219.70138741,129.730884225 L220.265117029,128.314949319 L221.427689742,127.218904225 L222.605978555,125.449761817 L223.675222667,126.311104848 L224.510696844,127.607038025 L224.356863121,128.185582566 L225.339005499,128.206322574 L225.930117347,127.92316071 L226.510077532,127.572605799 L227.482092619,127.356156125 L229.596051939,127.474431285 L231.407088177,128.003407839 L235.105882571,129.790216363 L236.542627002,127.170561239 L236.721111304,126.290697801 L236.473447801,125.177130449 L235.382235945,124.084918228 L235.14493207,123.185035808 L235.707539443,121.827481392 L236.951580357,122.458186907 L238.248413464,123.949564459 L238.946090762,125.174009134 L239.714040486,124.244878339 L240.501496954,123.933353247 L241.296863806,124.253992285 L242.065612762,125.191957952 L244.027556237,123.543759097 L243.816285722,122.088082617 L242.739191984,120.530895648 L242.103396941,118.586958053 L243.085958,116.447423419 L245.323388237,115.011507646 L247.858995212,113.916602784 L249.701602233,112.794289394 L248.652534211,110.374128769 L248.796407202,109.423823767 L249.727706013,108.079894796 L251.188597453,107.008103737 L252.543768126,106.573521467 L252.588248897,106.559256092 L253.734756236,105.939246556 L254.390158018,104.315711715 L256.208861281,105.352680117 L258.365592362,105.808970948 L268.868062006,106.708487509 L268.633425352,107.456441273 L268.371501086,109.047017 L268.171483556,109.795141719 L270.111947286,109.687676229 L272.43497249,114.044390723 L274.621146532,113.308683576 L276.531313711,112.305265769 L281.697977233,111.237707838 L283.838756858,110.220315874 L285.584709938,109.677996481 L290.52495899,110.050625392 L292.638543918,109.907442747 L297.033208985,108.161306882 L299.170838585,107.731070504 L301.108085058,108.323973138 L302.184584878,107.614292793 L303.546107184,107.818565017 L306.438715585,109.190182056 L311.154076013,111.033398372 L315.101645071,111.354712463 L318.166262755,109.905377473 L318.689530641,109.376168778 Z" fill="#cee3f5" id="BJ.AK" stroke="#6e6e6e" stroke-width="0.4"><desc><labelrank>7</labelrank><code_hasc>BJ.AK</code_hasc><name>Atakora</name><admin>Benin</admin><type_en>Department</type_en><region /><woe_id>2344824</woe_id><longitude>1</longitude><woe_name>Atakora</woe_name><fips>BN08</fips><woe_label>Atakora, BJ, Benin</woe_label><latitude>10</latitude><iso_a2>BJ</iso_a2><postal>AK</postal><type>Département</type><id>BJ.AK</id></desc></path><path d="M326.763025867,267.925459759 L327.719394256,270.221615165 L327.613567335,270.747901056 L327.472964934,271.265315611 L327.315969339,271.414082338 L327.240430823,271.466532897 L326.278765532,273.178183795 L327.255416041,278.724519669 L327.249427865,280.927332621 L326.370477816,284.139956555 L325.396820396,290.102187748 L325.304456419,292.044400418 L325.4222826,293.519123304 L327.570039947,299.805713824 L327.795034752,300.318251373 L329.268913004,302.674120346 L331.5612126,305.1226882 L333.426187046,306.78604253 L334.431288026,308.801146595 L334.444749911,310.410099313 L329.941416581,339.464716967 L329.519358641,340.955559218 L329.04711876,341.597936462 L328.383154197,342.228122362 L327.946555588,342.551721495 L327.457790662,342.822527507 L326.876277498,343.005330133 L326.248433457,343.126573463 L322.012878838,343.010073374 L319.374422103,343.178396314 L317.543205818,343.489238361 L317.002272457,343.680791777 L316.164139644,344.169885142 L315.115965342,344.947975982 L313.457294709,349.837397896 L312.905757013,353.647602712 L312.834802194,360.103752708 L313.155879726,363.688277246 L313.637323572,366.114792463 L313.862401013,366.703432299 L314.417794673,367.682077092 L315.083967625,368.561558751 L315.77955967,369.327018562 L316.318987602,369.802422032 L317.172163468,370.369364696 L320.482253727,371.94920677 L320.853604596,372.248574009 L321.218798697,372.67956007 L321.704938038,373.558431283 L321.859864703,374.351594504 L321.823021687,375.097450239 L321.664334618,375.737675806 L320.716120779,378.063726122 L320.005218632,380.785308865 L319.419152261,384.656863057 L319.419105741,384.674414912 L319.188883435,385.946312707 L318.929744447,391.541731958 L319.081970916,393.379221295 L319.582014128,395.709067982 L319.946104437,396.649036231 L320.362919593,397.45749819 L321.047150594,398.363177529 L321.813043605,399.201769668 L322.701455384,399.923644049 L323.729699854,400.584416244 L325.978883663,401.669402536 L337.22547777,404.839978417 L337.923145042,405.131078788 L338.266021395,405.342427101 L338.927939871,406.031251617 L337.96500122,410.022008411 L337.119375414,413.524507297 L338.164136019,414.884009889 L338.975732318,416.436046997 L340.800120322,426.551944327 L339.266321793,436.254273406 L340.076028895,438.987964928 L340.703679061,439.638604771 L339.827346421,440.994068614 L338.22907228,442.198852087 L337.249309567,442.819860919 L335.902546338,443.457624942 L333.979320914,444.000505363 L331.317321736,444.091200173 L330.63599172,444.028252881 L329.954840449,443.886316402 L326.841364316,442.744223113 L325.496487696,442.504132676 L322.753177532,442.506351266 L322.141891667,442.390783733 L321.600780092,442.161295971 L320.30457357,441.096247358 L319.816013421,440.822986513 L316.5162162,439.820049411 L315.451831068,439.264425014 L314.475084452,438.612467185 L313.650136053,437.82924755 L311.978667318,435.654230562 L311.57785216,435.27578809 L311.089547573,434.949759484 L310.548527489,434.737667937 L309.884929232,434.630544887 L306.454737862,434.656120568 L305.756176447,434.557610444 L305.127725108,434.38030372 L304.534395324,434.141655331 L304.01113053,433.84176685 L303.557839175,433.512819336 L300.521834782,430.227499341 L299.667932451,429.52285834 L298.708953144,428.914418904 L297.505116032,428.410525223 L296.806900346,428.232868423 L295.444008141,428.333992598 L293.585488205,428.644157728 L283.788022904,431.23072331 L282.541359944,431.349401069 L281.947410189,431.329836002 L279.815291022,431.515637124 L273.765196447,431.274961418 L271.725582117,431.122006163 L271.590649112,415.962675841 L271.489929236,405.461890587 L271.373446991,393.100209578 L271.241300425,378.930257988 L270.648303385,375.83835435 L269.763229995,373.108083649 L267.464616073,369.040938829 L260.505045562,361.683289806 L251.557395152,352.240682557 L250.985312902,351.352772542 L248.867209443,348.064849433 L247.260296097,343.542570518 L246.546183919,332.063020583 L245.271345712,328.844153436 L243.337986863,329.7743296 L241.684401508,328.072180676 L240.559021141,325.298564502 L240.210009352,322.991005305 L240.681873592,321.521399679 L242.694871349,318.464442743 L243.398771613,317.03105784 L243.543712601,315.875904364 L243.519789381,313.602130181 L243.792356548,312.476852765 L243.961591538,311.099425319 L243.104496328,305.807618034 L243.008055272,297.010902309 L242.860087637,284.63507173 L242.775506532,276.293197653 L244.19231199,275.778139449 L250.557098363,274.550923223 L255.296217854,274.71673119 L260.74656071,275.391357158 L265.516255188,276.509850514 L272.602279151,277.321472271 L278.252558999,275.97543513 L283.030337626,273.621633143 L286.736837095,270.63123539 L290.683547607,268.378722167 L294.899811545,266.814362493 L326.763025867,267.925459759 Z" fill="#cee3f5" id="BJ.DO" stroke="#6e6e6e" stroke-width="0.4"><desc><labelrank>7</labelrank><code_hasc>BJ.DO</code_hasc><name>Donga</name><admin>Benin</admin><type_en>Department</type_en><region /><woe_id>55967671</woe_id><longitude>1</longitude><woe_name>Donga</woe_name><fips>BN13</fips><woe_label /><latitude>9</latitude><iso_a2>BJ</iso_a2><postal>DO</postal><type>Département</type><id>BJ.DO</id></desc></path></svg>