<?xml version='1.0' encoding='utf-8'?>
<svg height="700" width="700" xmlns="http://www.w3.org/2000/svg"><path d="M215.646731572,699.026425591 L211.752433936,700.0 L215.646731572,696.105702364 L216.620305981,696.105702364 L215.646731572,699.026425591 M192.280945758,379.694019471 L193.254520167,382.614742698 L189.360222531,381.641168289 L191.307371349,378.720445063 L192.280945758,379.694019471 M198.122392211,368.011126565 L202.016689847,370.931849791 L195.201668985,371.9054242 L194.228094576,369.958275382 L198.122392211,368.011126565 M180.598052851,369.958275382 L180.598052851,370.931849791 L177.677329624,368.011126565 L180.598052851,369.958275382 M166.968011127,282.336578581 L160.152990264,282.336578581 L160.152990264,280.389429764 L166.968011127,276.495132128 L170.862308762,279.415855355 L166.968011127,282.336578581 Z" fill="#cee3f5" id="IE.5551" stroke="#6e6e6e" stroke-width="0.4"><desc><labelrank>20</labelrank><code_hasc>-99</code_hasc><name /><admin>Ireland</admin><type_en /><region /><woe_id>-99</woe_id><longitude>-9</longitude><woe_name /><fips /><woe_label /><latitude>51</latitude><iso_a2>IE</iso_a2><postal /><type /><id>IE.5551</id></desc></path><path d="M446.383866481,537.413073713 L462.934631433,552.990264256 L469.749652295,548.122392211 L471.696801113,555.910987483 L475.591098748,559.805285118 L483.379694019,559.805285118 L486.300417246,556.884561892 L482.406119611,551.043115438 L487.273991655,549.09596662 L489.221140473,556.884561892 L488.247566064,562.726008345 L491.168289291,564.673157163 L484.353268428,571.488178025 L475.591098748,573.435326843 L478.511821975,566.620305981 L474.617524339,565.646731572 L474.617524339,569.541029207 L470.723226704,568.567454798 L465.855354659,573.435326843 L439.568845619,575.382475661 L425.938803894,582.197496523 L423.991655076,579.276773296 L422.044506259,579.276773296 L419.123783032,586.091794159 L421.07093185,585.11821975 L427.885952712,588.038942976 L423.991655076,591.933240612 L423.018080668,598.748261474 L410.361613352,602.64255911 L408.414464534,607.510431154 L396.731571627,606.536856745 L394.784422809,601.668984701 L394.784422809,601.668984701 L392.837273992,601.668984701 L387.969401947,601.668984701 L387.969401947,600.695410292 L386.995827538,597.774687065 L386.022253129,596.801112656 L386.022253129,595.827538248 L382.127955494,592.906815021 L377.260083449,589.012517385 L371.418636996,574.408901252 L362.656467316,573.435326843 L361.682892907,572.461752434 L362.656467316,571.488178025 L362.656467316,569.541029207 L365.577190542,563.699582754 L367.52433936,561.752433936 L377.260083449,561.752433936 L378.233657858,561.752433936 L379.207232267,555.910987483 L384.075104312,554.937413074 L404.520166898,557.8581363 L404.520166898,551.043115438 L400.625869263,546.175243394 L400.625869263,540.33379694 L402.573018081,537.413073713 L422.044506259,533.518776078 L446.383866481,537.413073713 Z" fill="#cee3f5" id="IE.WD" stroke="#6e6e6e" stroke-width="0.4"><desc><labelrank>9</labelrank><code_hasc>IE.WD</code_hasc><name>Waterford</name><admin>Ireland</admin><type_en>County</type_en><region>South-East</region><woe_id>2345271</woe_id><longitude>-7</longitude><woe_name>Waterford</woe_name><fips>EI32</fips><woe_label>Waterford, IE, Ireland</woe_label><latitude>52</latitude><iso_a2>IE</iso_a2><postal>WD</postal><type>Traditional County</type><id>IE.WD</id></desc></path><path d="M518.42837274,233.657858136 L522.322670376,236.578581363 L524.269819193,244.367176634 L517.454798331,246.314325452 L516.481223922,255.076495132 L510.639777469,258.970792768 L503.824756606,257.997218359 L496.036161335,252.155771905 L490.194714882,242.420027816 L476.564673157,229.763560501 L475.591098748,225.869262865 L461.961057024,228.789986092 L444.436717663,223.922114047 L442.489568846,217.107093185 L446.383866481,215.159944367 L446.383866481,221.974965229 L447.35744089,221.974965229 L451.251738526,214.186369958 L450.278164117,209.318497914 L460.987482615,204.450625869 L460.987482615,199.582753825 L454.172461752,191.794158554 L456.11961057,184.979137691 L462.934631433,182.058414465 L467.802503477,174.269819193 L473.64394993,170.375521558 L488.247566064,183.031988873 L491.168289291,190.820584145 L488.247566064,193.741307371 L493.115438108,196.662030598 L497.983310153,206.397774687 L502.851182197,210.292072323 L507.719054242,207.371349096 L513.560500695,212.23922114 L510.639777469,229.763560501 L515.507649513,234.631432545 L518.42837274,233.657858136 Z" fill="#cee3f5" id="IE.3566" stroke="#6e6e6e" stroke-width="0.4"><desc><labelrank>8</labelrank><code_hasc>IE.</code_hasc><name>Monaghan</name><admin>Ireland</admin><type_en>Administrative County</type_en><region>Border</region><woe_id>2345266</woe_id><longitude>-6</longitude><woe_name>Monaghan</woe_name><fips /><woe_label>Monaghan, IE, Ireland</woe_label><latitude>54</latitude><iso_a2>IE</iso_a2><postal>MN</postal><type>Administrative County</type><id>IE.3566</id></desc></path><path d="M278.92906815,376.773296245 L276.008344924,376.773296245 L267.246175243,373.852573018 L256.536856745,376.773296245 L257.510431154,371.9054242 L265.299026426,364.116828929 L272.114047288,367.037552156 L277.955493741,369.958275382 L278.92906815,376.773296245 Z" fill="#cee3f5" id="IE.GY" stroke="#6e6e6e" stroke-width="0.4"><desc><labelrank>9</labelrank><code_hasc>IE.GY</code_hasc><name>Galway</name><admin>Ireland</admin><type_en>City</type_en><region>West</region><woe_id>2345255</woe_id><longitude>-9</longitude><woe_name>Galway</woe_name><fips>EI36</fips><woe_label>Galway, IE, Ireland</woe_label><latitude>53</latitude><iso_a2>IE</iso_a2><postal>GY</postal><type>Cathair</type><id>IE.GY</id></desc></path><path d="M336.369958275,617.246175243 L334.422809458,618.219749652 L331.502086231,619.193324061 L335.396383866,620.16689847 L333.449235049,625.034770515 L322.739916551,624.061196106 L319.819193324,622.114047288 L320.792767733,616.272600834 L324.687065369,612.378303199 L330.528511822,613.351877608 L336.369958275,617.246175243 Z" fill="#cee3f5" id="IE.CK" stroke="#6e6e6e" stroke-width="0.4"><desc><labelrank>9</labelrank><code_hasc>IE.CK</code_hasc><name>Cork</name><admin>Ireland</admin><type_en>City</type_en><region>South-West</region><woe_id>2345252</woe_id><longitude>-8</longitude><woe_name>Cork</woe_name><fips>EI32</fips><woe_label>Cork, IE, Ireland</woe_label><latitude>51</latitude><iso_a2>IE</iso_a2><postal>CK</postal><type>Cathair</type><id>IE.CK</id></desc></path><path d="M315.924895688,479.972183588 L316.898470097,485.813630042 L313.977746871,488.734353268 L308.136300417,487.76077886 L305.215577191,483.866481224 L309.109874826,478.998609179 L315.924895688,479.972183588 Z" fill="#cee3f5" id="IE.LK" stroke="#6e6e6e" stroke-width="0.4"><desc><labelrank>9</labelrank><code_hasc>IE.LK</code_hasc><name>Limerick</name><admin>Ireland</admin><type_en>City</type_en><region>Mid-West</region><woe_id>2345261</woe_id><longitude>-8</longitude><woe_name>Limerick</woe_name><fips>EI37</fips><woe_label>Limerick, IE, Ireland</woe_label><latitude>52</latitude><iso_a2>IE</iso_a2><postal>LK</postal><type>Cathair</type><id>IE.LK</id></desc></path><path d="M482.406119611,551.043115438 L486.300417246,556.884561892 L483.379694019,559.805285118 L475.591098748,559.805285118 L471.696801113,555.910987483 L469.749652295,548.122392211 L476.564673157,552.016689847 L482.406119611,551.043115438 Z" fill="#cee3f5" id="IE.7032" stroke="#6e6e6e" stroke-width="0.4"><desc><labelrank>9</labelrank><code_hasc>IE.WD</code_hasc><name>Waterford</name><admin>Ireland</admin><type_en>City</type_en><region>South-East</region><woe_id>2345271</woe_id><longitude>-7</longitude><woe_name>Waterford</woe_name><fips>EI41</fips><woe_label>Waterford, IE, Ireland</woe_label><latitude>52</latitude><iso_a2>IE</iso_a2><postal>WD</postal><type>Cathair</type><id>IE.7032</id></desc></path><path d="M446.383866481,537.413073713 L422.044506259,533.518776078 L402.573018081,537.413073713 L400.625869263,540.33379694 L400.625869263,546.175243394 L404.520166898,551.043115438 L404.520166898,557.8581363 L384.075104312,554.937413074 L379.207232267,555.910987483 L378.233657858,561.752433936 L377.260083449,561.752433936 L367.52433936,561.752433936 L367.52433936,558.831710709 L361.682892907,556.884561892 L359.735744089,550.069541029 L357.788595271,549.09596662 L360.709318498,543.254520167 L358.76216968,541.307371349 L358.76216968,533.518776078 L354.867872045,533.518776078 L350.973574409,526.703755216 L335.396383866,518.915159944 L339.290681502,510.152990264 L341.23783032,510.152990264 L342.211404729,515.020862309 L343.184979138,510.152990264 L351.947148818,507.232267038 L356.815020862,480.945757997 L366.550764951,478.998609179 L385.04867872,498.470097357 L385.04867872,506.258692629 L386.995827538,498.470097357 L393.810848401,499.443671766 L409.388038943,491.655076495 L415.229485396,481.919332406 L414.255910987,471.210013908 L416.203059805,468.289290682 L423.991655076,472.183588317 L433.727399166,487.76077886 L436.648122392,494.575799722 L436.648122392,505.28511822 L439.568845619,506.258692629 L435.674547983,514.0472879 L443.463143255,520.862308762 L446.383866481,537.413073713 Z" fill="#cee3f5" id="IE.TY" stroke="#6e6e6e" stroke-width="0.4"><desc><labelrank>8</labelrank><code_hasc>IE.TY</code_hasc><name>South Tipperary</name><admin>Ireland</admin><type_en>County</type_en><region>South-East</region><woe_id>2345270</woe_id><longitude>-7</longitude><woe_name>Tipperary</woe_name><fips>EI40</fips><woe_label>Tipperary, IE, Ireland</woe_label><latitude>52</latitude><iso_a2>IE</iso_a2><postal>TY</postal><type>Administrative County</type><id>IE.TY</id></desc></path><path d="M557.371349096,362.169680111 L557.371349096,378.720445063 L552.503477051,386.509040334 L546.662030598,380.66759388 L537.899860918,378.720445063 L532.058414465,375.799721836 L533.031988873,371.9054242 L531.084840056,368.011126565 L535.9527121,352.433936022 L538.873435327,353.407510431 L539.847009736,353.407510431 L540.820584145,351.460361613 L547.635605007,351.460361613 L549.582753825,354.38108484 L547.635605007,355.354659249 L546.662030598,357.301808067 L547.635605007,358.275382476 L549.582753825,357.301808067 L557.371349096,362.169680111 Z" fill="#cee3f5" id="IE.DN" stroke="#6e6e6e" stroke-width="0.4"><desc><labelrank>9</labelrank><code_hasc>IE.DN</code_hasc><name>South Dublin</name><admin>Ireland</admin><type_en>County</type_en><region>Dublin</region><woe_id>2345254</woe_id><longitude>-6</longitude><woe_name>Dublin</woe_name><fips>EI39</fips><woe_label>Dublin, IE, Ireland</woe_label><latitude>53</latitude><iso_a2>IE</iso_a2><postal>DN</postal><type>Administrative County</type><id>IE.DN</id></desc></path><path d="M584.631432545,331.015299026 L582.684283727,329.068150209 L584.631432545,329.068150209 L584.631432545,331.015299026 M570.027816412,348.539638387 L569.054242003,342.698191933 L556.397774687,343.671766342 L549.582753825,354.38108484 L547.635605007,351.460361613 L540.820584145,351.460361613 L539.847009736,353.407510431 L538.873435327,353.407510431 L535.9527121,352.433936022 L537.899860918,349.513212796 L541.794158554,344.645340751 L542.767732962,342.698191933 L543.741307371,340.751043115 L544.71488178,339.777468707 L548.609179416,338.803894298 L548.609179416,337.830319889 L549.582753825,335.883171071 L550.556328234,331.015299026 L541.794158554,323.226703755 L541.794158554,322.253129346 L541.794158554,321.279554937 L540.820584145,320.305980529 L540.820584145,319.33240612 L541.794158554,318.358831711 L541.794158554,317.385257302 L543.741307371,314.464534075 L544.71488178,313.490959666 L545.688456189,313.490959666 L547.635605007,313.490959666 L550.556328234,316.411682893 L550.556328234,316.411682893 L551.529902643,316.411682893 L551.529902643,316.411682893 L553.47705146,314.464534075 L556.397774687,312.517385257 L558.344923505,305.702364395 L562.23922114,305.702364395 L563.212795549,305.702364395 L563.212795549,304.728789986 L576.842837274,318.358831711 L571.001390821,334.909596662 L569.054242003,332.962447844 L565.159944367,335.883171071 L571.974965229,338.803894298 L572.948539638,345.61891516 L580.73713491,348.539638387 L577.816411683,351.460361613 L572.948539638,347.566063978 L570.027816412,348.539638387 Z" fill="#cee3f5" id="IE.7034" stroke="#6e6e6e" stroke-width="0.4"><desc><labelrank>9</labelrank><code_hasc>IE.DN</code_hasc><name>Fingal</name><admin>Ireland</admin><type_en>County</type_en><region>Dublin</region><woe_id>2345254</woe_id><longitude>-6</longitude><woe_name>Dublin</woe_name><fips>EI35</fips><woe_label>Dublin, IE, Ireland</woe_label><latitude>53</latitude><iso_a2>IE</iso_a2><postal>DN</postal><type>Administrative County</type><id>IE.7034</id></desc></path><path d="M568.080667594,355.354659249 L567.107093185,356.328233658 L572.948539638,351.460361613 L568.080667594,355.354659249 M570.027816412,348.539638387 L563.212795549,353.407510431 L567.107093185,361.196105702 L557.371349096,362.169680111 L549.582753825,357.301808067 L547.635605007,358.275382476 L546.662030598,357.301808067 L547.635605007,355.354659249 L549.582753825,354.38108484 L556.397774687,343.671766342 L569.054242003,342.698191933 L570.027816412,348.539638387 Z" fill="#cee3f5" id="IE.7035" stroke="#6e6e6e" stroke-width="0.4"><desc><labelrank>9</labelrank><code_hasc>IE.DN</code_hasc><name>Dublin</name><admin>Ireland</admin><type_en>County</type_en><region>Dublin</region><woe_id>2345254</woe_id><longitude>-6</longitude><woe_name>Dublin</woe_name><fips>EI33</fips><woe_label>Dublin, IE, Ireland</woe_label><latitude>53</latitude><iso_a2>IE</iso_a2><postal>DN</postal><type>Administrative County</type><id>IE.7035</id></desc></path><path d="M577.816411683,380.66759388 L573.922114047,382.614742698 L557.371349096,378.720445063 L557.371349096,362.169680111 L567.107093185,361.196105702 L576.842837274,366.063977747 L577.816411683,380.66759388 Z" fill="#cee3f5" id="IE.7036" stroke="#6e6e6e" stroke-width="0.4"><desc><labelrank>9</labelrank><code_hasc>IE.DN</code_hasc><name>Dún Laoghaire–Rathdown</name><admin>Ireland</admin><type_en>County</type_en><region>Dublin</region><woe_id>2345254</woe_id><longitude>-6</longitude><woe_name>Dublin</woe_name><fips>EI34</fips><woe_label>Dublin, IE, Ireland</woe_label><latitude>53</latitude><iso_a2>IE</iso_a2><postal>DN</postal><type>Administrative County</type><id>IE.7036</id></desc></path><path d="M557.371349096,288.178025035 L550.556328234,291.098748261 L536.926286509,291.098748261 L536.926286509,283.31015299 L528.164116829,280.389429764 L521.349095967,265.78581363 L510.639777469,258.970792768 L516.481223922,255.076495132 L517.454798331,246.314325452 L524.269819193,244.367176634 L522.322670376,236.578581363 L518.42837274,233.657858136 L531.084840056,229.763560501 L535.9527121,231.710709318 L541.794158554,229.763560501 L543.741307371,221.001390821 L546.662030598,223.922114047 L551.529902643,221.974965229 L570.027816412,237.552155772 L565.159944367,244.367176634 L543.741307371,238.525730181 L543.741307371,258.970792768 L549.582753825,263.838664812 L557.371349096,264.812239221 L556.397774687,271.627260083 L559.318497914,276.495132128 L557.371349096,278.442280946 L557.371349096,288.178025035 Z" fill="#cee3f5" id="IE.LH" stroke="#6e6e6e" stroke-width="0.4"><desc><labelrank>8</labelrank><code_hasc>IE.LH</code_hasc><name>Louth</name><admin>Ireland</admin><type_en>County</type_en><region>Border</region><woe_id>2345263</woe_id><longitude>-6</longitude><woe_name>Louth</woe_name><fips>EI19</fips><woe_label>Louth, IE, Ireland</woe_label><latitude>53</latitude><iso_a2>IE</iso_a2><postal>LH</postal><type>Administrative County</type><id>IE.LH</id></desc></path><path d="M189.360222531,398.191933241 L198.122392211,399.16550765 L198.122392211,403.059805285 L201.043115438,405.980528512 L183.518776078,398.191933241 L187.413073713,396.244784423 L189.360222531,398.191933241 M200.069541029,381.641168289 L196.175243394,382.614742698 L194.228094576,379.694019471 L193.254520167,374.826147427 L196.175243394,372.878998609 L198.122392211,372.878998609 L202.016689847,377.746870654 L200.069541029,381.641168289 M196.175243394,315.438108484 L210.778859527,314.464534075 L212.726008345,319.33240612 L220.514603616,323.226703755 L233.171070932,323.226703755 L233.171070932,326.147426982 L239.012517385,327.121001391 L240.959666203,332.962447844 L249.721835883,338.803894298 L259.457579972,333.936022253 L273.087621697,308.623087622 L288.664812239,304.728789986 L290.611961057,305.702364395 L294.506258693,305.702364395 L305.215577191,302.781641168 L314.95132128,295.966620306 L326.634214186,297.913769124 L327.607788595,298.887343533 L327.607788595,301.808066759 L327.607788595,301.808066759 L328.581363004,302.781641168 L336.369958275,307.649513213 L333.449235049,309.596662031 L332.47566064,310.570236439 L334.422809458,312.517385257 L334.422809458,312.517385257 L334.422809458,314.464534075 L335.396383866,315.438108484 L338.317107093,316.411682893 L340.264255911,319.33240612 L344.158553547,321.279554937 L345.132127955,322.253129346 L346.105702364,337.830319889 L346.105702364,339.777468707 L347.079276773,339.777468707 L348.052851182,341.724617524 L349.026425591,343.671766342 L349.026425591,343.671766342 L349.026425591,344.645340751 L348.052851182,345.61891516 L348.052851182,345.61891516 L348.052851182,346.592489569 L349.026425591,347.566063978 L350.0,349.513212796 L350.973574409,350.486787204 L350.973574409,351.460361613 L350.973574409,352.433936022 L350.973574409,352.433936022 L350.0,355.354659249 L350.0,356.328233658 L350.0,357.301808067 L350.0,358.275382476 L350.973574409,359.248956885 L353.894297636,361.196105702 L354.867872045,361.196105702 L355.841446453,362.169680111 L355.841446453,366.063977747 L355.841446453,367.037552156 L356.815020862,368.984700974 L357.788595271,370.931849791 L358.76216968,371.9054242 L359.735744089,371.9054242 L360.709318498,372.878998609 L366.550764951,372.878998609 L370.445062587,372.878998609 L370.445062587,373.852573018 L372.392211405,375.799721836 L378.233657858,379.694019471 L379.207232267,382.614742698 L378.233657858,385.535465925 L376.28650904,387.482614743 L371.418636996,388.456189152 L367.52433936,392.350486787 L365.577190542,393.324061196 L363.630041725,394.297635605 L360.709318498,395.271210014 L353.894297636,409.874826147 L349.026425591,413.769123783 L348.052851182,414.742698192 L347.079276773,418.636995828 L343.184979138,424.478442281 L343.184979138,425.45201669 L325.660639777,426.425591099 L323.71349096,425.45201669 L321.766342142,421.557719054 L320.792767733,420.584144645 L318.845618915,419.610570236 L314.95132128,416.68984701 L312.030598053,416.68984701 L305.215577191,416.68984701 L303.268428373,417.663421419 L302.294853964,418.636995828 L300.347705146,418.636995828 L299.374130737,419.610570236 L298.400556328,420.584144645 L298.400556328,421.557719054 L297.426981919,422.531293463 L296.45340751,423.504867872 L296.45340751,423.504867872 L294.506258693,425.45201669 L293.532684284,426.425591099 L291.585535466,427.399165508 L290.611961057,427.399165508 L289.638386648,427.399165508 L288.664812239,427.399165508 L287.69123783,426.425591099 L287.69123783,426.425591099 L286.717663421,426.425591099 L285.744089013,427.399165508 L285.744089013,428.372739917 L284.770514604,428.372739917 L283.796940195,428.372739917 L282.823365786,427.399165508 L281.849791377,426.425591099 L281.849791377,426.425591099 L281.849791377,425.45201669 L281.849791377,423.504867872 L281.849791377,422.531293463 L281.849791377,422.531293463 L281.849791377,422.531293463 L281.849791377,422.531293463 L282.823365786,420.584144645 L282.823365786,420.584144645 L282.823365786,419.610570236 L281.849791377,418.636995828 L281.849791377,417.663421419 L281.849791377,416.68984701 L281.849791377,415.716272601 L281.849791377,415.716272601 L281.849791377,414.742698192 L281.849791377,413.769123783 L281.849791377,413.769123783 L280.876216968,412.795549374 L280.876216968,411.821974965 L269.193324061,405.980528512 L268.219749652,405.006954103 L268.219749652,404.033379694 L267.246175243,403.059805285 L267.246175243,403.059805285 L267.246175243,401.112656467 L267.246175243,401.112656467 L267.246175243,400.139082058 L268.219749652,399.16550765 L269.193324061,399.16550765 L269.193324061,398.191933241 L269.193324061,397.218358832 L269.193324061,396.244784423 L264.325452017,393.324061196 L272.114047288,391.376912378 L272.114047288,394.297635605 L276.008344924,397.218358832 L274.061196106,390.403337969 L280.876216968,383.588317107 L264.325452017,383.588317107 L273.087621697,380.66759388 L270.16689847,379.694019471 L271.140472879,377.746870654 L278.92906815,376.773296245 L277.955493741,369.958275382 L272.114047288,367.037552156 L265.299026426,364.116828929 L257.510431154,371.9054242 L256.536856745,376.773296245 L227.329624478,378.720445063 L215.646731572,381.641168289 L209.805285118,375.799721836 L210.778859527,370.931849791 L206.884561892,380.66759388 L202.990264256,378.720445063 L203.963838665,365.090403338 L208.831710709,365.090403338 L210.778859527,362.169680111 L205.910987483,358.275382476 L211.752433936,354.38108484 L203.963838665,355.354659249 L205.910987483,360.222531293 L202.990264256,364.116828929 L201.043115438,353.407510431 L191.307371349,367.037552156 L184.492350487,368.984700974 L180.598052851,365.090403338 L174.756606398,365.090403338 L175.730180807,358.275382476 L186.439499305,352.433936022 L183.518776078,351.460361613 L185.465924896,348.539638387 L178.650904033,352.433936022 L176.703755216,350.486787204 L180.598052851,345.61891516 L176.703755216,347.566063978 L173.783031989,346.592489569 L172.80945758,353.407510431 L167.941585535,355.354659249 L163.073713491,354.38108484 L157.232267038,348.539638387 L145.549374131,348.539638387 L149.443671766,342.698191933 L159.179415855,341.724617524 L155.28511822,336.85674548 L162.100139082,338.803894298 L163.073713491,336.85674548 L153.337969402,334.909596662 L148.470097357,326.147426982 L143.602225313,325.173852573 L145.549374131,323.226703755 L153.337969402,324.200278164 L152.364394993,321.279554937 L157.232267038,321.279554937 L165.020862309,325.173852573 L167.941585535,322.253129346 L160.152990264,316.411682893 L164.0472879,315.438108484 L171.835883171,316.411682893 L179.624478442,312.517385257 L188.386648122,316.411682893 L196.175243394,315.438108484 Z" fill="#cee3f5" id="IE.1510" stroke="#6e6e6e" stroke-width="0.4"><desc><labelrank>9</labelrank><code_hasc>IE.GY</code_hasc><name>Galway</name><admin>Ireland</admin><type_en>County</type_en><region>West</region><woe_id>2345255</woe_id><longitude>-8</longitude><woe_name>Galway</woe_name><fips>EI10</fips><woe_label>Galway, IE, Ireland</woe_label><latitude>53</latitude><iso_a2>IE</iso_a2><postal>GY</postal><type>Traditional County</type><id>IE.1510</id></desc></path><path d="M169.888734353,242.420027816 L171.835883171,247.287899861 L169.888734353,247.287899861 L168.915159944,253.129346314 L172.80945758,253.129346314 L173.783031989,255.076495132 L169.888734353,266.759388039 L163.073713491,260.917941586 L159.179415855,260.917941586 L158.205841446,251.182197497 L148.470097357,252.155771905 L137.76077886,249.235048679 L142.628650904,247.287899861 L145.549374131,242.420027816 L151.390820584,245.340751043 L159.179415855,241.446453408 L169.888734353,242.420027816 M288.664812239,304.728789986 L273.087621697,308.623087622 L259.457579972,333.936022253 L249.721835883,338.803894298 L240.959666203,332.962447844 L239.012517385,327.121001391 L233.171070932,326.147426982 L233.171070932,323.226703755 L220.514603616,323.226703755 L212.726008345,319.33240612 L210.778859527,314.464534075 L196.175243394,315.438108484 L187.413073713,315.438108484 L174.756606398,307.649513213 L174.756606398,287.204450626 L187.413073713,283.31015299 L191.307371349,285.257301808 L210.778859527,281.363004172 L204.937413074,278.442280946 L210.778859527,269.680111266 L208.831710709,268.706536857 L210.778859527,263.838664812 L190.33379694,263.838664812 L174.756606398,270.653685675 L170.862308762,266.759388039 L174.756606398,259.944367177 L174.756606398,254.102920723 L179.624478442,252.155771905 L187.413073713,260.917941586 L187.413073713,255.076495132 L185.465924896,251.182197497 L183.518776078,253.129346314 L181.57162726,246.314325452 L176.703755216,241.446453408 L176.703755216,235.605006954 L183.518776078,225.869262865 L178.650904033,225.869262865 L174.756606398,233.657858136 L168.915159944,231.710709318 L166.968011127,226.842837274 L175.730180807,224.895688456 L168.915159944,213.212795549 L170.862308762,214.186369958 L172.80945758,212.23922114 L165.020862309,206.397774687 L164.0472879,212.23922114 L161.126564673,212.23922114 L162.100139082,216.133518776 L157.232267038,217.107093185 L159.179415855,222.948539638 L156.258692629,223.922114047 L159.179415855,228.789986092 L155.28511822,228.789986092 L152.364394993,226.842837274 L160.152990264,206.397774687 L154.311543811,203.47705146 L159.179415855,197.635605007 L166.968011127,191.794158554 L168.915159944,196.662030598 L177.677329624,197.635605007 L173.783031989,205.424200278 L168.915159944,202.503477051 L167.941585535,206.397774687 L175.730180807,209.318497914 L179.624478442,205.424200278 L179.624478442,200.556328234 L182.545201669,196.662030598 L190.33379694,200.556328234 L187.413073713,195.688456189 L191.307371349,195.688456189 L184.492350487,193.741307371 L182.545201669,188.873435327 L188.386648122,185.9527121 L197.148817803,189.847009736 L218.567454798,189.847009736 L230.250347705,193.741307371 L235.11821975,189.847009736 L241.933240612,192.767732962 L243.88038943,197.635605007 L247.774687065,197.635605007 L247.774687065,207.371349096 L254.589707928,214.186369958 L254.589707928,220.027816412 L255.563282337,217.107093185 L255.563282337,217.107093185 L255.563282337,218.080667594 L258.484005563,220.027816412 L259.457579972,221.001390821 L259.457579972,221.001390821 L263.351877608,221.001390821 L263.351877608,221.001390821 L263.351877608,220.027816412 L264.325452017,219.054242003 L264.325452017,219.054242003 L266.272600834,218.080667594 L273.087621697,220.027816412 L274.061196106,221.001390821 L275.034770515,221.001390821 L276.008344924,223.922114047 L277.955493741,225.869262865 L277.955493741,226.842837274 L277.955493741,226.842837274 L275.034770515,227.816411683 L269.193324061,236.578581363 L269.193324061,237.552155772 L268.219749652,238.525730181 L268.219749652,239.49930459 L268.219749652,240.472878999 L268.219749652,240.472878999 L269.193324061,241.446453408 L270.16689847,241.446453408 L274.061196106,242.420027816 L276.008344924,243.393602225 L280.876216968,242.420027816 L281.849791377,246.314325452 L283.796940195,248.26147427 L284.770514604,250.208623088 L284.770514604,250.208623088 L285.744089013,251.182197497 L288.664812239,251.182197497 L294.506258693,250.208623088 L302.294853964,244.367176634 L303.268428373,241.446453408 L304.242002782,240.472878999 L304.242002782,240.472878999 L305.215577191,240.472878999 L306.189151599,240.472878999 L306.189151599,240.472878999 L312.030598053,243.393602225 L313.004172462,244.367176634 L313.004172462,245.340751043 L312.030598053,251.182197497 L313.004172462,253.129346314 L311.057023644,254.102920723 L305.215577191,252.155771905 L303.268428373,252.155771905 L303.268428373,252.155771905 L302.294853964,253.129346314 L303.268428373,256.050069541 L303.268428373,257.997218359 L303.268428373,258.970792768 L303.268428373,259.944367177 L303.268428373,259.944367177 L303.268428373,260.917941586 L303.268428373,260.917941586 L304.242002782,261.891515994 L307.162726008,263.838664812 L308.136300417,264.812239221 L308.136300417,264.812239221 L308.136300417,266.759388039 L307.162726008,268.706536857 L307.162726008,268.706536857 L306.189151599,269.680111266 L306.189151599,269.680111266 L304.242002782,268.706536857 L303.268428373,268.706536857 L302.294853964,268.706536857 L301.321279555,269.680111266 L301.321279555,272.600834492 L299.374130737,273.574408901 L299.374130737,275.521557719 L298.400556328,277.468706537 L298.400556328,278.442280946 L298.400556328,279.415855355 L301.321279555,282.336578581 L302.294853964,283.31015299 L302.294853964,285.257301808 L302.294853964,287.204450626 L301.321279555,292.07232267 L301.321279555,294.019471488 L300.347705146,294.993045897 L298.400556328,296.940194715 L295.479833102,299.860917942 L294.506258693,299.860917942 L291.585535466,300.83449235 L288.664812239,304.728789986 Z" fill="#cee3f5" id="IE.MO" stroke="#6e6e6e" stroke-width="0.4"><desc><labelrank>8</labelrank><code_hasc>IE.MO</code_hasc><name>Mayo</name><admin>Ireland</admin><type_en>County</type_en><region>West</region><woe_id>2345264</woe_id><longitude>-9</longitude><woe_name>Mayo</woe_name><fips>EI20</fips><woe_label>Mayo, IE, Ireland</woe_label><latitude>53</latitude><iso_a2>IE</iso_a2><postal>MO</postal><type>Administrative County</type><id>IE.MO</id></desc></path><path d="M510.639777469,258.970792768 L521.349095967,265.78581363 L528.164116829,280.389429764 L536.926286509,283.31015299 L536.926286509,291.098748261 L550.556328234,291.098748261 L557.371349096,288.178025035 L560.292072323,300.83449235 L560.292072323,302.781641168 L562.23922114,303.755215577 L563.212795549,304.728789986 L563.212795549,305.702364395 L562.23922114,305.702364395 L558.344923505,305.702364395 L556.397774687,312.517385257 L555.424200278,313.490959666 L553.47705146,314.464534075 L551.529902643,316.411682893 L551.529902643,316.411682893 L550.556328234,316.411682893 L550.556328234,316.411682893 L545.688456189,313.490959666 L544.71488178,313.490959666 L543.741307371,314.464534075 L541.794158554,317.385257302 L541.794158554,318.358831711 L540.820584145,319.33240612 L540.820584145,320.305980529 L541.794158554,321.279554937 L541.794158554,322.253129346 L541.794158554,323.226703755 L543.741307371,324.200278164 L546.662030598,326.147426982 L550.556328234,330.041724618 L550.556328234,330.041724618 L550.556328234,331.015299026 L548.609179416,337.830319889 L548.609179416,338.803894298 L544.71488178,339.777468707 L543.741307371,340.751043115 L543.741307371,340.751043115 L542.767732962,342.698191933 L541.794158554,344.645340751 L537.899860918,349.513212796 L533.031988873,348.539638387 L530.111265647,347.566063978 L526.216968011,349.513212796 L506.745479833,343.671766342 L500.90403338,347.566063978 L497.009735744,347.566063978 L490.194714882,340.751043115 L484.353268428,339.777468707 L472.670375522,353.407510431 L460.987482615,344.645340751 L473.64394993,336.85674548 L484.353268428,304.728789986 L479.485396384,300.83449235 L473.64394993,305.702364395 L461.961057024,298.887343533 L456.11961057,294.993045897 L450.278164117,284.283727399 L443.463143255,280.389429764 L449.304589708,278.442280946 L456.11961057,283.31015299 L463.908205841,278.442280946 L481.432545202,282.336578581 L488.247566064,276.495132128 L482.406119611,265.78581363 L485.326842837,266.759388039 L486.300417246,261.891515994 L492.1418637,263.838664812 L500.90403338,260.917941586 L503.824756606,257.997218359 L510.639777469,258.970792768 Z" fill="#cee3f5" id="IE.MH" stroke="#6e6e6e" stroke-width="0.4"><desc><labelrank>8</labelrank><code_hasc>IE.MH</code_hasc><name>Meath</name><admin>Ireland</admin><type_en>County</type_en><region>Mid-East</region><woe_id>2345265</woe_id><longitude>-6</longitude><woe_name>Meath</woe_name><fips>EI21</fips><woe_label>Meath, IE, Ireland</woe_label><latitude>53</latitude><iso_a2>IE</iso_a2><postal>MH</postal><type>Administrative County</type><id>IE.MH</id></desc></path><path d="M472.670375522,353.407510431 L482.406119611,365.090403338 L479.485396384,375.799721836 L474.617524339,379.694019471 L479.485396384,381.641168289 L478.511821975,386.509040334 L466.828929068,387.482614743 L471.696801113,390.403337969 L467.802503477,393.324061196 L451.251738526,396.244784423 L445.410292072,385.535465925 L441.515994437,383.588317107 L437.621696801,384.561891516 L435.674547983,388.456189152 L429.83310153,387.482614743 L415.229485396,392.350486787 L414.255910987,396.244784423 L419.123783032,405.006954103 L409.388038943,417.663421419 L405.493741307,429.346314325 L395.757997218,427.399165508 L391.863699583,431.293463143 L391.863699583,435.187760779 L385.04867872,442.002781641 L382.127955494,441.029207232 L382.127955494,444.923504868 L378.233657858,447.844228095 L371.418636996,434.21418637 L376.28650904,435.187760779 L379.207232267,432.267037552 L376.28650904,424.478442281 L382.127955494,423.504867872 L380.180806676,417.663421419 L384.075104312,414.742698192 L385.04867872,406.954102921 L382.127955494,401.112656467 L375.312934631,398.191933241 L367.52433936,392.350486787 L371.418636996,388.456189152 L376.28650904,387.482614743 L378.233657858,385.535465925 L379.207232267,382.614742698 L378.233657858,379.694019471 L372.392211405,375.799721836 L370.445062587,373.852573018 L370.445062587,372.878998609 L370.445062587,371.9054242 L370.445062587,369.958275382 L374.339360223,365.090403338 L381.154381085,357.301808067 L390.890125174,360.222531293 L400.625869263,359.248956885 L415.229485396,348.539638387 L420.097357441,352.433936022 L424.965229485,363.14325452 L426.912378303,360.222531293 L433.727399166,363.14325452 L441.515994437,360.222531293 L460.987482615,344.645340751 L472.670375522,353.407510431 Z" fill="#cee3f5" id="IE.OY" stroke="#6e6e6e" stroke-width="0.4"><desc><labelrank>8</labelrank><code_hasc>IE.OY</code_hasc><name>Offaly</name><admin>Ireland</admin><type_en>County</type_en><region>Midlands</region><woe_id>2345267</woe_id><longitude>-7</longitude><woe_name>Offaly</woe_name><fips>EI23</fips><woe_label>Offaly, IE, Ireland</woe_label><latitude>53</latitude><iso_a2>IE</iso_a2><postal>OY</postal><type>Administrative County</type><id>IE.OY</id></desc></path><path d="M460.987482615,344.645340751 L441.515994437,360.222531293 L433.727399166,363.14325452 L426.912378303,360.222531293 L424.965229485,363.14325452 L420.097357441,352.433936022 L415.229485396,348.539638387 L400.625869263,359.248956885 L390.890125174,360.222531293 L381.154381085,357.301808067 L382.127955494,351.460361613 L378.233657858,329.068150209 L392.837273992,324.200278164 L399.652294854,327.121001391 L410.361613352,326.147426982 L414.255910987,317.385257302 L421.07093185,311.543810848 L416.203059805,304.728789986 L419.123783032,305.702364395 L432.753824757,292.07232267 L438.59527121,291.098748261 L437.621696801,283.31015299 L443.463143255,280.389429764 L450.278164117,284.283727399 L456.11961057,294.993045897 L461.961057024,298.887343533 L473.64394993,305.702364395 L479.485396384,300.83449235 L484.353268428,304.728789986 L473.64394993,336.85674548 L460.987482615,344.645340751 Z" fill="#cee3f5" id="IE.WH" stroke="#6e6e6e" stroke-width="0.4"><desc><labelrank>8</labelrank><code_hasc>IE.WH</code_hasc><name>Westmeath</name><admin>Ireland</admin><type_en>County</type_en><region>Midlands</region><woe_id>2345272</woe_id><longitude>-7</longitude><woe_name>Westmeath</woe_name><fips>EI29</fips><woe_label>Westmeath, IE, Ireland</woe_label><latitude>53</latitude><iso_a2>IE</iso_a2><postal>WH</postal><type>Administrative County</type><id>IE.WH</id></desc></path><path d="M574.895688456,462.447844228 L568.080667594,476.077885953 L570.027816412,496.52294854 L554.450625869,521.835883171 L554.450625869,532.545201669 L551.529902643,530.598052851 L542.767732962,530.598052851 L543.741307371,527.677329624 L539.847009736,529.624478442 L544.71488178,534.492350487 L544.71488178,539.360222531 L549.582753825,543.254520167 L553.47705146,536.439499305 L551.529902643,541.307371349 L560.292072323,551.043115438 L554.450625869,561.752433936 L551.529902643,560.778859527 L553.47705146,556.884561892 L548.609179416,559.805285118 L543.741307371,559.805285118 L545.688456189,558.831710709 L543.741307371,557.8581363 L532.058414465,562.726008345 L517.454798331,556.884561892 L507.719054242,557.8581363 L511.613351878,549.09596662 L508.692628651,552.990264256 L503.824756606,552.990264256 L505.771905424,562.726008345 L494.089012517,573.435326843 L492.1418637,572.461752434 L497.009735744,565.646731572 L486.300417246,545.201668985 L486.300417246,547.148817803 L484.353268428,544.228094576 L490.194714882,521.835883171 L493.115438108,520.862308762 L493.115438108,513.073713491 L499.930458971,512.100139082 L508.692628651,493.602225313 L508.692628651,485.813630042 L520.375521558,480.945757997 L522.322670376,478.998609179 L519.401947149,475.104311544 L525.243393602,469.26286509 L534.979137691,474.130737135 L543.741307371,466.342141864 L549.582753825,456.606397775 L555.424200278,453.685674548 L559.318497914,455.632823366 L564.186369958,453.685674548 L571.974965229,457.579972184 L574.895688456,462.447844228 Z" fill="#cee3f5" id="IE.WX" stroke="#6e6e6e" stroke-width="0.4"><desc><labelrank>8</labelrank><code_hasc>IE.WX</code_hasc><name>Wexford</name><admin>Ireland</admin><type_en>County</type_en><region>South-East</region><woe_id>2345273</woe_id><longitude>-6</longitude><woe_name>Wexford</woe_name><fips>EI30</fips><woe_label>Wexford, IE, Ireland</woe_label><latitude>52</latitude><iso_a2>IE</iso_a2><postal>WX</postal><type>Administrative County</type><id>IE.WX</id></desc></path><path d="M557.371349096,378.720445063 L573.922114047,382.614742698 L577.816411683,380.66759388 L584.631432545,396.244784423 L583.657858136,414.742698192 L589.49930459,423.504867872 L582.684283727,440.055632823 L575.869262865,448.817802503 L574.895688456,462.447844228 L571.974965229,457.579972184 L564.186369958,453.685674548 L559.318497914,455.632823366 L555.424200278,453.685674548 L549.582753825,456.606397775 L543.741307371,466.342141864 L534.979137691,474.130737135 L525.243393602,469.26286509 L520.375521558,459.527121001 L517.454798331,459.527121001 L517.454798331,452.712100139 L520.375521558,447.844228095 L527.19054242,452.712100139 L534.979137691,449.791376912 L536.926286509,441.029207232 L511.613351878,433.240611961 L505.771905424,422.531293463 L507.719054242,416.68984701 L511.613351878,407.92767733 L526.216968011,398.191933241 L530.111265647,390.403337969 L529.137691238,386.509040334 L537.899860918,378.720445063 L546.662030598,380.66759388 L552.503477051,386.509040334 L557.371349096,378.720445063 Z" fill="#cee3f5" id="IE.WW" stroke="#6e6e6e" stroke-width="0.4"><desc><labelrank>8</labelrank><code_hasc>IE.WW</code_hasc><name>Wicklow</name><admin>Ireland</admin><type_en>County</type_en><region>Mid-East</region><woe_id>2345274</woe_id><longitude>-6</longitude><woe_name>Wicklow</woe_name><fips>EI31</fips><woe_label>Wicklow, IE, Ireland</woe_label><latitude>52</latitude><iso_a2>IE</iso_a2><postal>WW</postal><type>Administrative County</type><id>IE.WW</id></desc></path><path d="M537.899860918,349.513212796 L535.9527121,352.433936022 L531.084840056,368.011126565 L533.031988873,371.9054242 L532.058414465,375.799721836 L537.899860918,378.720445063 L529.137691238,386.509040334 L530.111265647,390.403337969 L526.216968011,398.191933241 L511.613351878,407.92767733 L507.719054242,416.68984701 L505.771905424,422.531293463 L511.613351878,433.240611961 L506.745479833,442.002781641 L496.036161335,442.97635605 L490.194714882,440.055632823 L485.326842837,426.425591099 L477.538247566,424.478442281 L474.617524339,420.584144645 L477.538247566,409.874826147 L471.696801113,396.244784423 L474.617524339,391.376912378 L471.696801113,390.403337969 L466.828929068,387.482614743 L478.511821975,386.509040334 L479.485396384,381.641168289 L474.617524339,379.694019471 L479.485396384,375.799721836 L482.406119611,365.090403338 L472.670375522,353.407510431 L484.353268428,339.777468707 L490.194714882,340.751043115 L497.009735744,347.566063978 L500.90403338,347.566063978 L506.745479833,343.671766342 L526.216968011,349.513212796 L530.111265647,347.566063978 L533.031988873,348.539638387 L537.899860918,349.513212796 Z" fill="#cee3f5" id="IE.KE" stroke="#6e6e6e" stroke-width="0.4"><desc><labelrank>8</labelrank><code_hasc>IE.KE</code_hasc><name>Kildare</name><admin>Ireland</admin><type_en>County</type_en><region>Mid-East</region><woe_id>2345257</woe_id><longitude>-6</longitude><woe_name>Kildare</woe_name><fips>EI12</fips><woe_label>Kildare, IE, Ireland</woe_label><latitude>53</latitude><iso_a2>IE</iso_a2><postal>KE</postal><type>Administrative County</type><id>IE.KE</id></desc></path><path d="M478.511821975,456.606397775 L473.64394993,468.289290682 L477.538247566,472.183588317 L481.432545202,471.210013908 L486.300417246,477.051460362 L487.273991655,488.734353268 L493.115438108,494.575799722 L491.168289291,503.337969402 L493.115438108,513.073713491 L493.115438108,520.862308762 L490.194714882,521.835883171 L484.353268428,544.228094576 L486.300417246,547.148817803 L487.273991655,549.09596662 L482.406119611,551.043115438 L476.564673157,552.016689847 L469.749652295,548.122392211 L462.934631433,552.990264256 L446.383866481,537.413073713 L443.463143255,520.862308762 L435.674547983,514.0472879 L439.568845619,506.258692629 L436.648122392,505.28511822 L436.648122392,494.575799722 L433.727399166,487.76077886 L423.991655076,472.183588317 L416.203059805,468.289290682 L412.30876217,460.50069541 L417.176634214,458.553546592 L423.018080668,452.712100139 L434.700973574,458.553546592 L447.35744089,451.73852573 L450.278164117,445.897079277 L457.093184979,446.870653686 L462.934631433,440.055632823 L478.511821975,456.606397775 Z" fill="#cee3f5" id="IE.KK" stroke="#6e6e6e" stroke-width="0.4"><desc><labelrank>9</labelrank><code_hasc>IE.KK</code_hasc><name>Kilkenny</name><admin>Ireland</admin><type_en>County</type_en><region>South-East</region><woe_id>2345258</woe_id><longitude>-7</longitude><woe_name>Kilkenny</woe_name><fips>EI13</fips><woe_label>Kilkenny, IE, Ireland</woe_label><latitude>52</latitude><iso_a2>IE</iso_a2><postal>KK</postal><type>Administrative County</type><id>IE.KK</id></desc></path><path d="M471.696801113,390.403337969 L474.617524339,391.376912378 L471.696801113,396.244784423 L477.538247566,409.874826147 L474.617524339,420.584144645 L477.538247566,424.478442281 L485.326842837,426.425591099 L490.194714882,440.055632823 L490.194714882,449.791376912 L478.511821975,456.606397775 L462.934631433,440.055632823 L457.093184979,446.870653686 L450.278164117,445.897079277 L447.35744089,451.73852573 L434.700973574,458.553546592 L423.018080668,452.712100139 L417.176634214,458.553546592 L412.30876217,460.50069541 L407.440890125,446.870653686 L412.30876217,434.21418637 L405.493741307,429.346314325 L409.388038943,417.663421419 L419.123783032,405.006954103 L414.255910987,396.244784423 L415.229485396,392.350486787 L429.83310153,387.482614743 L435.674547983,388.456189152 L437.621696801,384.561891516 L441.515994437,383.588317107 L445.410292072,385.535465925 L451.251738526,396.244784423 L467.802503477,393.324061196 L471.696801113,390.403337969 Z" fill="#cee3f5" id="IE.LS" stroke="#6e6e6e" stroke-width="0.4"><desc><labelrank>8</labelrank><code_hasc>IE.LS</code_hasc><name>Laoighis</name><admin>Ireland</admin><type_en>County</type_en><region>Midlands</region><woe_id>2345260</woe_id><longitude>-7</longitude><woe_name>Laoighis</woe_name><fips>EI15</fips><woe_label>Laois, IE, Ireland</woe_label><latitude>53</latitude><iso_a2>IE</iso_a2><postal>LS</postal><type>Administrative County</type><id>IE.LS</id></desc></path><path d="M405.493741307,429.346314325 L412.30876217,434.21418637 L407.440890125,446.870653686 L412.30876217,460.50069541 L416.203059805,468.289290682 L414.255910987,471.210013908 L415.229485396,481.919332406 L409.388038943,491.655076495 L393.810848401,499.443671766 L386.995827538,498.470097357 L385.04867872,506.258692629 L385.04867872,498.470097357 L366.550764951,478.998609179 L356.815020862,480.945757997 L349.026425591,480.945757997 L345.132127955,477.051460362 L328.581363004,477.051460362 L325.660639777,465.368567455 L333.449235049,439.082058414 L340.264255911,438.108484006 L346.105702364,429.346314325 L343.184979138,425.45201669 L343.184979138,424.478442281 L347.079276773,418.636995828 L348.052851182,416.68984701 L348.052851182,414.742698192 L349.026425591,413.769123783 L360.709318498,395.271210014 L363.630041725,394.297635605 L365.577190542,393.324061196 L367.52433936,392.350486787 L375.312934631,398.191933241 L382.127955494,401.112656467 L385.04867872,406.954102921 L384.075104312,414.742698192 L380.180806676,417.663421419 L382.127955494,423.504867872 L376.28650904,424.478442281 L379.207232267,432.267037552 L376.28650904,435.187760779 L371.418636996,434.21418637 L378.233657858,447.844228095 L382.127955494,444.923504868 L382.127955494,441.029207232 L385.04867872,442.002781641 L391.863699583,435.187760779 L391.863699583,431.293463143 L395.757997218,427.399165508 L405.493741307,429.346314325 Z" fill="#cee3f5" id="IE.1532" stroke="#6e6e6e" stroke-width="0.4"><desc><labelrank>8</labelrank><code_hasc>IE.TY</code_hasc><name>North Tipperary</name><admin>Ireland</admin><type_en>County</type_en><region>Mid-West</region><woe_id>2345270</woe_id><longitude>-7</longitude><woe_name>Tipperary</woe_name><fips>EI38</fips><woe_label>Tipperary, IE, Ireland</woe_label><latitude>52</latitude><iso_a2>IE</iso_a2><postal>TY</postal><type>Administrative County</type><id>IE.1532</id></desc></path><path d="M125.104311544,610.431154381 L128.025034771,611.40472879 L127.051460362,613.351877608 L114.394993046,618.219749652 L115.368567455,614.325452017 L125.104311544,610.431154381 M245.827538248,547.148817803 L246.801112656,549.09596662 L240.959666203,557.8581363 L250.695410292,585.11821975 L246.801112656,593.88038943 L256.536856745,599.721835883 L255.563282337,601.668984701 L243.88038943,604.589707928 L238.038942976,609.457579972 L239.012517385,621.140472879 L234.144645341,626.981919332 L224.408901252,630.876216968 L220.514603616,635.744089013 L203.963838665,637.69123783 L197.148817803,643.532684284 L190.33379694,645.479833102 L184.492350487,653.268428373 L180.598052851,653.268428373 L175.730180807,641.585535466 L175.730180807,637.69123783 L183.518776078,639.638386648 L180.598052851,635.744089013 L189.360222531,626.981919332 L196.175243394,626.008344924 L205.910987483,620.16689847 L186.439499305,625.034770515 L174.756606398,632.823365786 L172.80945758,629.902642559 L145.549374131,643.532684284 L145.549374131,641.585535466 L135.813630042,636.717663421 L139.707927677,634.770514604 L140.681502086,630.876216968 L138.734353268,626.008344924 L134.840055633,624.061196106 L123.157162726,634.770514604 L123.157162726,625.034770515 L118.289290682,625.034770515 L117.315716273,618.219749652 L132.892906815,614.325452017 L132.892906815,610.431154381 L127.051460362,605.563282337 L132.892906815,602.64255911 L131.919332406,599.721835883 L157.232267038,590.959666203 L162.100139082,588.038942976 L164.0472879,582.197496523 L165.994436718,587.065368567 L168.915159944,587.065368567 L170.862308762,575.382475661 L174.756606398,577.329624478 L185.465924896,576.35605007 L183.518776078,574.408901252 L187.413073713,571.488178025 L165.994436718,572.461752434 L165.994436718,579.276773296 L161.126564673,573.435326843 L140.681502086,578.303198887 L137.76077886,574.408901252 L134.840055633,576.35605007 L130.945757997,573.435326843 L128.025034771,575.382475661 L131.919332406,578.303198887 L121.210013908,575.382475661 L122.183588317,578.303198887 L113.421418637,580.250347705 L110.50069541,577.329624478 L111.474269819,565.646731572 L117.315716273,561.752433936 L116.342141864,564.673157163 L121.210013908,566.620305981 L121.210013908,556.884561892 L127.051460362,555.910987483 L131.919332406,550.069541029 L142.628650904,547.148817803 L143.602225313,556.884561892 L150.417246175,555.910987483 L156.258692629,551.043115438 L157.232267038,547.148817803 L155.28511822,543.254520167 L160.152990264,544.228094576 L160.152990264,553.963838665 L166.968011127,555.910987483 L174.756606398,556.884561892 L180.598052851,552.990264256 L181.57162726,555.910987483 L189.360222531,554.937413074 L175.730180807,550.069541029 L174.756606398,546.175243394 L177.677329624,548.122392211 L179.624478442,547.148817803 L176.703755216,545.201668985 L180.598052851,544.228094576 L179.624478442,532.545201669 L166.968011127,525.730180807 L189.360222531,517.941585535 L194.228094576,513.073713491 L201.043115438,515.020862309 L199.09596662,511.126564673 L196.175243394,511.126564673 L196.175243394,506.258692629 L197.148817803,501.390820584 L202.990264256,496.52294854 L218.567454798,499.443671766 L221.488178025,497.496522949 L230.250347705,497.496522949 L233.171070932,503.337969402 L234.144645341,505.28511822 L236.091794159,507.232267038 L237.065368567,509.179415855 L237.065368567,511.126564673 L237.065368567,511.126564673 L235.11821975,513.073713491 L235.11821975,514.0472879 L235.11821975,515.020862309 L234.144645341,516.968011127 L234.144645341,517.941585535 L234.144645341,518.915159944 L234.144645341,519.888734353 L235.11821975,520.862308762 L236.091794159,521.835883171 L236.091794159,522.80945758 L236.091794159,523.783031989 L234.144645341,526.703755216 L234.144645341,527.677329624 L234.144645341,528.650904033 L234.144645341,529.624478442 L234.144645341,529.624478442 L236.091794159,530.598052851 L236.091794159,531.57162726 L237.065368567,532.545201669 L237.065368567,533.518776078 L236.091794159,533.518776078 L236.091794159,534.492350487 L234.144645341,534.492350487 L234.144645341,535.465924896 L233.171070932,536.439499305 L234.144645341,536.439499305 L234.144645341,537.413073713 L236.091794159,538.386648122 L237.065368567,539.360222531 L238.038942976,540.33379694 L238.038942976,541.307371349 L238.038942976,541.307371349 L239.986091794,541.307371349 L243.88038943,544.228094576 L245.827538248,547.148817803 Z" fill="#cee3f5" id="IE.KY" stroke="#6e6e6e" stroke-width="0.4"><desc><labelrank>8</labelrank><code_hasc>IE.KY</code_hasc><name>Kerry</name><admin>Ireland</admin><type_en>County</type_en><region>South-West</region><woe_id>2345256</woe_id><longitude>-9</longitude><woe_name>Kerry</woe_name><fips>EI11</fips><woe_label>Kerry, IE, Ireland</woe_label><latitude>52</latitude><iso_a2>IE</iso_a2><postal>KY</postal><type>Administrative County</type><id>IE.KY</id></desc></path><path d="M356.815020862,480.945757997 L351.947148818,507.232267038 L343.184979138,510.152990264 L342.211404729,515.020862309 L341.23783032,510.152990264 L339.290681502,510.152990264 L335.396383866,518.915159944 L350.973574409,526.703755216 L354.867872045,533.518776078 L358.76216968,533.518776078 L358.76216968,541.307371349 L360.709318498,543.254520167 L357.788595271,549.09596662 L355.841446453,548.122392211 L354.867872045,548.122392211 L350.0,549.09596662 L349.026425591,549.09596662 L348.052851182,549.09596662 L342.211404729,542.280945758 L341.23783032,542.280945758 L340.264255911,543.254520167 L339.290681502,543.254520167 L339.290681502,545.201668985 L336.369958275,547.148817803 L335.396383866,547.148817803 L325.660639777,550.069541029 L323.71349096,550.069541029 L321.766342142,549.09596662 L320.792767733,549.09596662 L319.819193324,548.122392211 L317.872044506,545.201668985 L317.872044506,545.201668985 L316.898470097,545.201668985 L314.95132128,544.228094576 L313.977746871,544.228094576 L313.977746871,543.254520167 L313.004172462,543.254520167 L313.004172462,542.280945758 L312.030598053,540.33379694 L312.030598053,540.33379694 L312.030598053,539.360222531 L311.057023644,539.360222531 L309.109874826,538.386648122 L308.136300417,538.386648122 L307.162726008,536.439499305 L307.162726008,536.439499305 L307.162726008,535.465924896 L306.189151599,535.465924896 L306.189151599,534.492350487 L306.189151599,534.492350487 L305.215577191,532.545201669 L304.242002782,532.545201669 L298.400556328,532.545201669 L290.611961057,532.545201669 L286.717663421,535.465924896 L282.823365786,538.386648122 L282.823365786,539.360222531 L282.823365786,539.360222531 L281.849791377,541.307371349 L280.876216968,542.280945758 L272.114047288,547.148817803 L256.536856745,540.33379694 L255.563282337,540.33379694 L254.589707928,541.307371349 L249.721835883,545.201668985 L245.827538248,547.148817803 L243.88038943,544.228094576 L239.986091794,541.307371349 L238.038942976,541.307371349 L238.038942976,541.307371349 L238.038942976,540.33379694 L236.091794159,538.386648122 L234.144645341,537.413073713 L234.144645341,536.439499305 L233.171070932,536.439499305 L234.144645341,535.465924896 L234.144645341,534.492350487 L236.091794159,534.492350487 L236.091794159,533.518776078 L237.065368567,533.518776078 L237.065368567,532.545201669 L236.091794159,531.57162726 L236.091794159,530.598052851 L234.144645341,529.624478442 L234.144645341,529.624478442 L234.144645341,528.650904033 L234.144645341,527.677329624 L234.144645341,526.703755216 L236.091794159,523.783031989 L236.091794159,522.80945758 L236.091794159,521.835883171 L235.11821975,520.862308762 L234.144645341,519.888734353 L234.144645341,518.915159944 L234.144645341,517.941585535 L234.144645341,516.968011127 L235.11821975,515.020862309 L235.11821975,514.0472879 L235.11821975,513.073713491 L237.065368567,511.126564673 L237.065368567,511.126564673 L237.065368567,509.179415855 L236.091794159,507.232267038 L234.144645341,505.28511822 L233.171070932,503.337969402 L230.250347705,497.496522949 L243.88038943,496.52294854 L264.325452017,487.76077886 L269.193324061,489.707927677 L274.061196106,483.866481224 L296.45340751,479.972183588 L305.215577191,483.866481224 L308.136300417,487.76077886 L313.977746871,488.734353268 L316.898470097,485.813630042 L315.924895688,479.972183588 L322.739916551,473.157162726 L321.766342142,467.315716273 L325.660639777,465.368567455 L328.581363004,477.051460362 L345.132127955,477.051460362 L349.026425591,480.945757997 L356.815020862,480.945757997 Z" fill="#cee3f5" id="IE.1533" stroke="#6e6e6e" stroke-width="0.4"><desc><labelrank>9</labelrank><code_hasc>IE.LK</code_hasc><name>Limerick</name><admin>Ireland</admin><type_en>County</type_en><region>Mid-West</region><woe_id>2345261</woe_id><longitude>-8</longitude><woe_name>Limerick</woe_name><fips>EI16</fips><woe_label>Limerick, IE, Ireland</woe_label><latitude>52</latitude><iso_a2>IE</iso_a2><postal>LK</postal><type>Traditional County</type><id>IE.1533</id></desc></path><path d="M382.127955494,278.442280946 L386.022253129,286.230876217 L379.207232267,292.07232267 L371.418636996,312.517385257 L378.233657858,329.068150209 L382.127955494,351.460361613 L381.154381085,357.301808067 L374.339360223,365.090403338 L370.445062587,369.958275382 L370.445062587,371.9054242 L370.445062587,372.878998609 L366.550764951,372.878998609 L360.709318498,372.878998609 L359.735744089,371.9054242 L358.76216968,371.9054242 L357.788595271,370.931849791 L356.815020862,368.984700974 L355.841446453,367.037552156 L355.841446453,366.063977747 L355.841446453,364.116828929 L355.841446453,364.116828929 L355.841446453,362.169680111 L354.867872045,361.196105702 L353.894297636,361.196105702 L350.973574409,359.248956885 L350.0,358.275382476 L350.0,357.301808067 L350.0,356.328233658 L350.0,355.354659249 L350.973574409,352.433936022 L350.973574409,352.433936022 L350.973574409,351.460361613 L350.973574409,350.486787204 L350.0,349.513212796 L349.026425591,347.566063978 L348.052851182,346.592489569 L348.052851182,345.61891516 L348.052851182,345.61891516 L349.026425591,344.645340751 L349.026425591,343.671766342 L349.026425591,343.671766342 L348.052851182,341.724617524 L347.079276773,339.777468707 L346.105702364,339.777468707 L346.105702364,337.830319889 L345.132127955,322.253129346 L344.158553547,321.279554937 L340.264255911,319.33240612 L338.317107093,316.411682893 L335.396383866,315.438108484 L334.422809458,314.464534075 L334.422809458,312.517385257 L334.422809458,312.517385257 L332.47566064,310.570236439 L333.449235049,309.596662031 L333.449235049,309.596662031 L336.369958275,308.623087622 L336.369958275,307.649513213 L328.581363004,302.781641168 L327.607788595,301.808066759 L327.607788595,301.808066759 L327.607788595,298.887343533 L326.634214186,297.913769124 L314.95132128,295.966620306 L305.215577191,302.781641168 L294.506258693,305.702364395 L290.611961057,305.702364395 L288.664812239,304.728789986 L291.585535466,300.83449235 L293.532684284,299.860917942 L294.506258693,299.860917942 L295.479833102,299.860917942 L298.400556328,296.940194715 L300.347705146,294.993045897 L301.321279555,294.019471488 L301.321279555,292.07232267 L302.294853964,287.204450626 L302.294853964,285.257301808 L302.294853964,283.31015299 L298.400556328,279.415855355 L298.400556328,278.442280946 L298.400556328,277.468706537 L299.374130737,275.521557719 L299.374130737,273.574408901 L301.321279555,272.600834492 L302.294853964,268.706536857 L303.268428373,268.706536857 L304.242002782,268.706536857 L306.189151599,269.680111266 L306.189151599,269.680111266 L307.162726008,268.706536857 L307.162726008,268.706536857 L308.136300417,266.759388039 L308.136300417,264.812239221 L308.136300417,264.812239221 L307.162726008,263.838664812 L304.242002782,261.891515994 L303.268428373,260.917941586 L303.268428373,260.917941586 L303.268428373,259.944367177 L303.268428373,259.944367177 L303.268428373,258.970792768 L303.268428373,257.997218359 L303.268428373,256.050069541 L303.268428373,255.076495132 L302.294853964,254.102920723 L302.294853964,253.129346314 L303.268428373,252.155771905 L303.268428373,252.155771905 L305.215577191,252.155771905 L311.057023644,254.102920723 L313.004172462,253.129346314 L318.845618915,254.102920723 L320.792767733,258.970792768 L326.634214186,261.891515994 L329.554937413,258.970792768 L338.317107093,258.970792768 L337.343532684,255.076495132 L332.47566064,253.129346314 L333.449235049,246.314325452 L340.264255911,245.340751043 L344.158553547,239.49930459 L349.026425591,238.525730181 L356.815020862,226.842837274 L361.682892907,225.869262865 L368.497913769,229.763560501 L367.52433936,233.657858136 L364.603616134,236.578581363 L366.550764951,245.340751043 L362.656467316,254.102920723 L363.630041725,259.944367177 L367.52433936,260.917941586 L371.418636996,256.050069541 L375.312934631,262.865090403 L375.312934631,269.680111266 L382.127955494,278.442280946 Z" fill="#cee3f5" id="IE.RN" stroke="#6e6e6e" stroke-width="0.4"><desc><labelrank>9</labelrank><code_hasc>IE.RN</code_hasc><name>Roscommon</name><admin>Ireland</admin><type_en>County</type_en><region>West</region><woe_id>2345268</woe_id><longitude>-8</longitude><woe_name>Roscommon</woe_name><fips>EI24</fips><woe_label>Roscommon, IE, Ireland</woe_label><latitude>53</latitude><iso_a2>IE</iso_a2><postal>RN</postal><type>Administrative County</type><id>IE.RN</id></desc></path><path d="M333.449235049,163.560500695 L333.449235049,166.481223922 L329.554937413,172.322670376 L336.369958275,172.322670376 L332.47566064,184.979137691 L337.343532684,194.71488178 L338.317107093,211.265646732 L341.23783032,216.133518776 L345.132127955,219.054242003 L350.973574409,219.054242003 L356.815020862,226.842837274 L349.026425591,238.525730181 L344.158553547,239.49930459 L340.264255911,245.340751043 L333.449235049,246.314325452 L332.47566064,253.129346314 L337.343532684,255.076495132 L338.317107093,258.970792768 L329.554937413,258.970792768 L326.634214186,261.891515994 L320.792767733,258.970792768 L318.845618915,254.102920723 L313.004172462,253.129346314 L312.030598053,251.182197497 L313.004172462,245.340751043 L313.004172462,244.367176634 L312.030598053,243.393602225 L306.189151599,240.472878999 L306.189151599,240.472878999 L305.215577191,240.472878999 L304.242002782,240.472878999 L304.242002782,240.472878999 L303.268428373,241.446453408 L302.294853964,244.367176634 L294.506258693,250.208623088 L288.664812239,251.182197497 L285.744089013,251.182197497 L284.770514604,250.208623088 L284.770514604,250.208623088 L281.849791377,246.314325452 L280.876216968,242.420027816 L276.008344924,243.393602225 L274.061196106,242.420027816 L270.16689847,241.446453408 L269.193324061,241.446453408 L268.219749652,240.472878999 L268.219749652,239.49930459 L269.193324061,237.552155772 L269.193324061,236.578581363 L272.114047288,234.631432545 L275.034770515,227.816411683 L277.955493741,226.842837274 L277.955493741,226.842837274 L277.955493741,225.869262865 L275.034770515,221.001390821 L274.061196106,221.001390821 L273.087621697,220.027816412 L266.272600834,218.080667594 L264.325452017,219.054242003 L264.325452017,219.054242003 L263.351877608,220.027816412 L263.351877608,221.001390821 L263.351877608,221.001390821 L259.457579972,221.001390821 L259.457579972,221.001390821 L258.484005563,220.027816412 L255.563282337,218.080667594 L255.563282337,217.107093185 L256.536856745,214.186369958 L256.536856745,212.23922114 L255.563282337,209.318497914 L260.431154381,206.397774687 L264.325452017,194.71488178 L268.219749652,194.71488178 L276.008344924,194.71488178 L284.770514604,199.582753825 L293.532684284,197.635605007 L296.45340751,199.582753825 L303.268428373,198.609179416 L313.977746871,210.292072323 L319.819193324,209.318497914 L313.977746871,202.503477051 L309.109874826,200.556328234 L311.057023644,195.688456189 L324.687065369,196.662030598 L320.792767733,193.741307371 L313.977746871,191.794158554 L313.977746871,188.873435327 L317.872044506,190.820584145 L318.845618915,187.899860918 L304.242002782,185.9527121 L304.242002782,184.005563282 L323.71349096,170.375521558 L324.687065369,162.586926287 L326.634214186,167.454798331 L333.449235049,163.560500695 Z" fill="#cee3f5" id="IE.SO" stroke="#6e6e6e" stroke-width="0.4"><desc><labelrank>9</labelrank><code_hasc>IE.SO</code_hasc><name>Sligo</name><admin>Ireland</admin><type_en>County</type_en><region>Border</region><woe_id>2345269</woe_id><longitude>-8</longitude><woe_name>Sligo</woe_name><fips>EI25</fips><woe_label>Sligo, IE, Ireland</woe_label><latitude>54</latitude><iso_a2>IE</iso_a2><postal>SO</postal><type>Administrative County</type><id>IE.SO</id></desc></path><path d="M321.766342142,73.9916550765 L313.977746871,73.9916550765 L315.924895688,67.1766342142 L320.792767733,69.123783032 L321.766342142,73.9916550765 M458.066759388,16.5507649513 L473.64394993,22.3922114047 L475.591098748,21.4186369958 L477.538247566,28.2336578581 L455.146036161,40.8901251739 L447.35744089,55.4937413074 L433.727399166,62.3087621697 L430.806675939,70.0973574409 L430.806675939,76.9123783032 L427.885952712,79.8331015299 L426.912378303,92.4895688456 L418.150208623,104.172461752 L418.150208623,113.908205841 L407.440890125,112.934631433 L394.784422809,120.723226704 L386.995827538,115.855354659 L379.207232267,122.670375522 L381.154381085,128.511821975 L387.969401947,133.379694019 L390.890125174,132.406119611 L397.705146036,136.300417246 L401.599443672,134.353268428 L401.599443672,138.247566064 L387.969401947,149.930458971 L384.075104312,150.90403338 L372.392211405,149.930458971 L362.656467316,160.639777469 L354.867872045,163.560500695 L347.079276773,163.560500695 L341.23783032,161.613351878 L350.973574409,156.745479833 L344.158553547,153.824756606 L350.0,148.956884562 L350.0,145.062586926 L354.867872045,141.168289291 L353.894297636,136.300417246 L357.788595271,139.221140473 L358.76216968,130.458970793 L342.211404729,139.221140473 L343.184979138,134.353268428 L341.23783032,133.379694019 L325.660639777,146.036161335 L332.47566064,139.221140473 L331.502086231,135.326842837 L328.581363004,136.300417246 L329.554937413,132.406119611 L324.687065369,139.221140473 L321.766342142,134.353268428 L313.977746871,138.247566064 L303.268428373,136.300417246 L301.321279555,133.379694019 L290.611961057,129.485396384 L290.611961057,122.670375522 L294.506258693,121.696801113 L296.45340751,116.828929068 L304.242002782,111.961057024 L324.687065369,112.934631433 L315.924895688,108.066759388 L321.766342142,107.093184979 L326.634214186,110.987482615 L329.554937413,110.987482615 L324.687065369,106.11961057 L314.95132128,101.251738526 L321.766342142,95.4102920723 L338.317107093,99.3045897079 L332.47566064,94.4367176634 L334.422809458,90.5424200278 L339.290681502,90.5424200278 L337.343532684,86.6481223922 L333.449235049,85.6745479833 L332.47566064,89.5688456189 L329.554937413,89.5688456189 L325.660639777,82.7538247566 L325.660639777,78.859527121 L328.581363004,80.8066759388 L334.422809458,78.859527121 L324.687065369,69.123783032 L328.581363004,69.123783032 L335.396383866,58.4144645341 L338.317107093,63.2823365786 L338.317107093,50.6258692629 L342.211404729,40.8901251739 L350.0,42.8372739917 L356.815020862,40.8901251739 L354.867872045,46.7315716273 L372.392211405,30.1808066759 L375.312934631,32.1279554937 L370.445062587,37.9694019471 L380.180806676,36.0222531293 L381.154381085,40.8901251739 L385.04867872,38.9429763561 L381.154381085,43.8108484006 L385.04867872,43.8108484006 L386.995827538,39.916550765 L384.075104312,31.1543810848 L390.890125174,23.3657858136 L388.942976356,34.0751043115 L398.678720445,38.9429763561 L400.625869263,50.6258692629 L404.520166898,42.8372739917 L401.599443672,32.1279554937 L398.678720445,29.207232267 L398.678720445,37.9694019471 L391.863699583,32.1279554937 L391.863699583,30.1808066759 L394.784422809,23.3657858136 L406.467315716,20.4450625869 L409.388038943,25.3129346314 L409.388038943,34.0751043115 L413.282336579,36.0222531293 L419.123783032,47.7051460362 L417.176634214,51.5994436718 L407.440890125,59.388038943 L415.229485396,60.3616133519 L403.54659249,76.9123783032 L425.938803894,58.4144645341 L425.938803894,52.5730180807 L423.991655076,50.6258692629 L424.965229485,42.8372739917 L416.203059805,30.1808066759 L419.123783032,23.3657858136 L418.150208623,16.5507649513 L423.018080668,17.5243393602 L423.991655076,14.6036161335 L429.83310153,17.5243393602 L435.674547983,12.6564673157 L438.59527121,17.5243393602 L445.410292072,17.5243393602 L430.806675939,0.973574408901 L433.727399166,0.0 L449.304589708,6.81502086231 L458.066759388,16.5507649513 Z" fill="#cee3f5" id="IE.DL" stroke="#6e6e6e" stroke-width="0.4"><desc><labelrank>9</labelrank><code_hasc>IE.DL</code_hasc><name>Donegal</name><admin>Ireland</admin><type_en>County</type_en><region>Border</region><woe_id>2345253</woe_id><longitude>-8</longitude><woe_name>Donegal</woe_name><fips>EI06</fips><woe_label>Donegal, IE, Ireland</woe_label><latitude>54</latitude><iso_a2>IE</iso_a2><postal>DL</postal><type>Administrative County</type><id>IE.DL</id></desc></path><path d="M379.207232267,192.767732962 L373.365785814,200.556328234 L368.497913769,202.503477051 L369.471488178,212.23922114 L378.233657858,214.186369958 L391.863699583,226.842837274 L394.784422809,224.895688456 L400.625869263,226.842837274 L415.229485396,240.472878999 L418.150208623,248.26147427 L415.229485396,256.050069541 L411.335187761,256.050069541 L407.440890125,258.970792768 L397.705146036,270.653685675 L395.757997218,277.468706537 L389.916550765,275.521557719 L388.942976356,279.415855355 L386.022253129,276.495132128 L382.127955494,278.442280946 L375.312934631,269.680111266 L375.312934631,262.865090403 L371.418636996,256.050069541 L367.52433936,260.917941586 L363.630041725,259.944367177 L362.656467316,254.102920723 L366.550764951,245.340751043 L364.603616134,236.578581363 L367.52433936,233.657858136 L368.497913769,229.763560501 L361.682892907,225.869262865 L356.815020862,226.842837274 L350.973574409,219.054242003 L345.132127955,219.054242003 L341.23783032,216.133518776 L338.317107093,211.265646732 L337.343532684,194.71488178 L332.47566064,184.979137691 L336.369958275,172.322670376 L329.554937413,172.322670376 L333.449235049,166.481223922 L333.449235049,163.560500695 L341.23783032,161.613351878 L347.079276773,163.560500695 L354.867872045,163.560500695 L364.603616134,178.164116829 L372.392211405,182.058414465 L379.207232267,192.767732962 Z" fill="#cee3f5" id="IE.LM" stroke="#6e6e6e" stroke-width="0.4"><desc><labelrank>8</labelrank><code_hasc>IE.LM</code_hasc><name>Leitrim</name><admin>Ireland</admin><type_en>County</type_en><region>Border</region><woe_id>2345259</woe_id><longitude>-7</longitude><woe_name>Leitrim</woe_name><fips>EI14</fips><woe_label>Leitrim, IE, Ireland</woe_label><latitude>54</latitude><iso_a2>IE</iso_a2><postal>LM</postal><type>Administrative County</type><id>IE.LM</id></desc></path><path d="M415.229485396,256.050069541 L422.044506259,263.838664812 L419.123783032,269.680111266 L427.885952712,269.680111266 L431.780250348,278.442280946 L437.621696801,283.31015299 L438.59527121,291.098748261 L432.753824757,292.07232267 L419.123783032,305.702364395 L416.203059805,304.728789986 L421.07093185,311.543810848 L414.255910987,317.385257302 L410.361613352,326.147426982 L399.652294854,327.121001391 L392.837273992,324.200278164 L378.233657858,329.068150209 L371.418636996,312.517385257 L379.207232267,292.07232267 L386.022253129,286.230876217 L382.127955494,278.442280946 L386.022253129,276.495132128 L388.942976356,279.415855355 L389.916550765,275.521557719 L395.757997218,277.468706537 L397.705146036,270.653685675 L407.440890125,258.970792768 L411.335187761,256.050069541 L415.229485396,256.050069541 Z" fill="#cee3f5" id="IE.LD" stroke="#6e6e6e" stroke-width="0.4"><desc><labelrank>8</labelrank><code_hasc>IE.LD</code_hasc><name>Longford</name><admin>Ireland</admin><type_en>County</type_en><region>Midlands</region><woe_id>2345262</woe_id><longitude>-7</longitude><woe_name>Longford</woe_name><fips>EI18</fips><woe_label>Longford, IE, Ireland</woe_label><latitude>53</latitude><iso_a2>IE</iso_a2><postal>LD</postal><type>Administrative County</type><id>IE.LD</id></desc></path><path d="M343.184979138,425.45201669 L346.105702364,429.346314325 L340.264255911,438.108484006 L333.449235049,439.082058414 L325.660639777,465.368567455 L321.766342142,467.315716273 L322.739916551,473.157162726 L315.924895688,479.972183588 L309.109874826,478.998609179 L305.215577191,483.866481224 L296.45340751,479.972183588 L274.061196106,477.051460362 L275.034770515,469.26286509 L273.087621697,467.315716273 L276.008344924,462.447844228 L267.246175243,467.315716273 L253.616133519,488.734353268 L241.933240612,490.681502086 L239.012517385,494.575799722 L234.144645341,493.602225313 L239.986091794,485.813630042 L223.435326843,490.681502086 L213.699582754,486.787204451 L210.778859527,480.945757997 L206.884561892,480.945757997 L209.805285118,485.813630042 L195.201668985,491.655076495 L193.254520167,496.52294854 L168.915159944,500.417246175 L180.598052851,493.602225313 L202.990264256,473.157162726 L202.016689847,470.236439499 L216.620305981,466.342141864 L216.620305981,457.579972184 L232.197496523,434.21418637 L218.567454798,433.240611961 L228.303198887,420.584144645 L240.959666203,396.244784423 L242.906815021,395.271210014 L252.64255911,403.059805285 L259.457579972,400.139082058 L261.40472879,402.086230876 L262.378303199,399.16550765 L255.563282337,394.297635605 L262.378303199,393.324061196 L269.193324061,396.244784423 L269.193324061,397.218358832 L269.193324061,398.191933241 L269.193324061,399.16550765 L268.219749652,399.16550765 L267.246175243,400.139082058 L267.246175243,401.112656467 L267.246175243,401.112656467 L267.246175243,402.086230876 L267.246175243,403.059805285 L267.246175243,403.059805285 L268.219749652,404.033379694 L268.219749652,405.006954103 L268.219749652,405.006954103 L269.193324061,405.980528512 L280.876216968,411.821974965 L280.876216968,412.795549374 L281.849791377,413.769123783 L281.849791377,413.769123783 L281.849791377,414.742698192 L281.849791377,415.716272601 L281.849791377,415.716272601 L281.849791377,416.68984701 L281.849791377,417.663421419 L281.849791377,418.636995828 L282.823365786,419.610570236 L282.823365786,420.584144645 L282.823365786,420.584144645 L281.849791377,422.531293463 L281.849791377,422.531293463 L281.849791377,423.504867872 L281.849791377,425.45201669 L281.849791377,426.425591099 L281.849791377,426.425591099 L282.823365786,427.399165508 L283.796940195,428.372739917 L284.770514604,428.372739917 L285.744089013,428.372739917 L285.744089013,427.399165508 L286.717663421,426.425591099 L287.69123783,426.425591099 L287.69123783,426.425591099 L288.664812239,427.399165508 L289.638386648,427.399165508 L290.611961057,427.399165508 L291.585535466,427.399165508 L293.532684284,426.425591099 L294.506258693,425.45201669 L296.45340751,423.504867872 L296.45340751,423.504867872 L297.426981919,422.531293463 L298.400556328,421.557719054 L298.400556328,420.584144645 L299.374130737,419.610570236 L300.347705146,418.636995828 L302.294853964,418.636995828 L303.268428373,417.663421419 L305.215577191,416.68984701 L312.030598053,416.68984701 L314.95132128,416.68984701 L318.845618915,419.610570236 L320.792767733,420.584144645 L321.766342142,421.557719054 L323.71349096,425.45201669 L325.660639777,426.425591099 L343.184979138,425.45201669 Z" fill="#cee3f5" id="IE.CE" stroke="#6e6e6e" stroke-width="0.4"><desc><labelrank>8</labelrank><code_hasc>IE.CE</code_hasc><name>Clare</name><admin>Ireland</admin><type_en>County</type_en><region>Mid-West</region><woe_id>2345251</woe_id><longitude>-9</longitude><woe_name>Clare</woe_name><fips>EI03</fips><woe_label>Clare, IE, Ireland</woe_label><latitude>52</latitude><iso_a2>IE</iso_a2><postal>CE</postal><type>Administrative County</type><id>IE.CE</id></desc></path><path d="M525.243393602,469.26286509 L519.401947149,475.104311544 L522.322670376,478.998609179 L520.375521558,480.945757997 L508.692628651,485.813630042 L508.692628651,493.602225313 L499.930458971,512.100139082 L493.115438108,513.073713491 L491.168289291,503.337969402 L493.115438108,494.575799722 L487.273991655,488.734353268 L486.300417246,477.051460362 L481.432545202,471.210013908 L477.538247566,472.183588317 L473.64394993,468.289290682 L478.511821975,456.606397775 L490.194714882,449.791376912 L490.194714882,440.055632823 L496.036161335,442.97635605 L506.745479833,442.002781641 L511.613351878,433.240611961 L536.926286509,441.029207232 L534.979137691,449.791376912 L527.19054242,452.712100139 L520.375521558,447.844228095 L517.454798331,452.712100139 L517.454798331,459.527121001 L520.375521558,459.527121001 L525.243393602,469.26286509 Z" fill="#cee3f5" id="IE.CW" stroke="#6e6e6e" stroke-width="0.4"><desc><labelrank>8</labelrank><code_hasc>IE.CW</code_hasc><name>Carlow</name><admin>Ireland</admin><type_en>County</type_en><region>South-East</region><woe_id>2345249</woe_id><longitude>-6</longitude><woe_name>Carlow</woe_name><fips>EI01</fips><woe_label>Carlow, IE, Ireland</woe_label><latitude>52</latitude><iso_a2>IE</iso_a2><postal>CW</postal><type>Administrative County</type><id>IE.CW</id></desc></path><path d="M179.624478442,662.030598053 L181.57162726,663.004172462 L171.835883171,666.898470097 L168.915159944,665.924895688 L172.80945758,662.030598053 L179.624478442,662.030598053 M175.730180807,641.585535466 L180.598052851,653.268428373 L184.492350487,653.268428373 L190.33379694,645.479833102 L197.148817803,643.532684284 L203.963838665,637.69123783 L220.514603616,635.744089013 L224.408901252,630.876216968 L234.144645341,626.981919332 L239.012517385,621.140472879 L238.038942976,609.457579972 L243.88038943,604.589707928 L255.563282337,601.668984701 L256.536856745,599.721835883 L246.801112656,593.88038943 L250.695410292,585.11821975 L240.959666203,557.8581363 L246.801112656,549.09596662 L245.827538248,547.148817803 L249.721835883,545.201668985 L254.589707928,541.307371349 L255.563282337,540.33379694 L256.536856745,540.33379694 L272.114047288,547.148817803 L273.087621697,545.201668985 L280.876216968,542.280945758 L281.849791377,541.307371349 L282.823365786,539.360222531 L282.823365786,539.360222531 L282.823365786,538.386648122 L285.744089013,536.439499305 L286.717663421,535.465924896 L290.611961057,532.545201669 L291.585535466,531.57162726 L298.400556328,532.545201669 L303.268428373,532.545201669 L304.242002782,532.545201669 L305.215577191,532.545201669 L306.189151599,534.492350487 L306.189151599,534.492350487 L306.189151599,535.465924896 L307.162726008,535.465924896 L307.162726008,536.439499305 L308.136300417,537.413073713 L308.136300417,538.386648122 L309.109874826,538.386648122 L311.057023644,539.360222531 L312.030598053,539.360222531 L312.030598053,540.33379694 L313.004172462,542.280945758 L313.004172462,543.254520167 L313.977746871,543.254520167 L313.977746871,544.228094576 L314.95132128,544.228094576 L316.898470097,545.201668985 L317.872044506,545.201668985 L317.872044506,545.201668985 L319.819193324,548.122392211 L320.792767733,549.09596662 L321.766342142,549.09596662 L323.71349096,550.069541029 L325.660639777,550.069541029 L330.528511822,548.122392211 L336.369958275,547.148817803 L339.290681502,545.201668985 L339.290681502,543.254520167 L340.264255911,543.254520167 L341.23783032,542.280945758 L342.211404729,542.280945758 L348.052851182,549.09596662 L349.026425591,549.09596662 L350.0,549.09596662 L355.841446453,548.122392211 L357.788595271,549.09596662 L359.735744089,550.069541029 L361.682892907,556.884561892 L367.52433936,558.831710709 L367.52433936,559.805285118 L367.52433936,559.805285118 L367.52433936,561.752433936 L365.577190542,563.699582754 L362.656467316,569.541029207 L362.656467316,571.488178025 L361.682892907,572.461752434 L362.656467316,573.435326843 L367.52433936,573.435326843 L371.418636996,574.408901252 L377.260083449,589.012517385 L382.127955494,592.906815021 L386.022253129,595.827538248 L386.022253129,596.801112656 L386.995827538,597.774687065 L387.969401947,600.695410292 L387.969401947,601.668984701 L392.837273992,601.668984701 L394.784422809,601.668984701 L394.784422809,602.64255911 L394.784422809,606.536856745 L393.810848401,608.484005563 L392.837273992,610.431154381 L386.995827538,613.351877608 L391.863699583,617.246175243 L378.233657858,624.061196106 L376.28650904,628.92906815 L352.920723227,633.796940195 L351.947148818,632.823365786 L353.894297636,626.981919332 L359.735744089,624.061196106 L356.815020862,622.114047288 L358.76216968,617.246175243 L355.841446453,619.193324061 L347.079276773,615.299026426 L336.369958275,617.246175243 L330.528511822,613.351877608 L324.687065369,612.378303199 L320.792767733,616.272600834 L319.819193324,622.114047288 L322.739916551,624.061196106 L333.449235049,625.034770515 L335.396383866,620.16689847 L340.264255911,621.140472879 L343.184979138,623.087621697 L341.23783032,628.92906815 L346.105702364,628.92906815 L347.079276773,631.849791377 L344.158553547,633.796940195 L348.052851182,633.796940195 L346.105702364,641.585535466 L341.23783032,647.426981919 L331.502086231,653.268428373 L325.660639777,649.374130737 L328.581363004,652.294853964 L326.634214186,655.215577191 L325.660639777,652.294853964 L317.872044506,650.347705146 L324.687065369,653.268428373 L319.819193324,661.057023644 L320.792767733,667.872044506 L316.898470097,661.057023644 L296.45340751,661.057023644 L303.268428373,663.977746871 L303.268428373,673.71349096 L285.744089013,669.819193324 L276.981919332,680.528511822 L270.16689847,675.660639777 L261.40472879,678.581363004 L256.536856745,675.660639777 L256.536856745,680.528511822 L248.748261474,682.47566064 L248.748261474,685.396383866 L244.853963839,689.290681502 L239.986091794,689.290681502 L239.986091794,685.396383866 L231.223922114,691.23783032 L227.329624478,691.23783032 L231.223922114,687.343532684 L228.303198887,688.317107093 L233.171070932,679.554937413 L225.382475661,686.369958275 L225.382475661,678.581363004 L220.514603616,676.634214186 L220.514603616,679.554937413 L209.805285118,682.47566064 L208.831710709,685.396383866 L202.016689847,688.317107093 L197.148817803,683.449235049 L190.33379694,690.264255911 L192.280945758,691.23783032 L179.624478442,696.105702364 L179.624478442,691.23783032 L177.677329624,689.290681502 L209.805285118,666.898470097 L204.937413074,666.898470097 L183.518776078,677.607788595 L176.703755216,677.607788595 L203.963838665,659.109874826 L219.541029207,654.242002782 L221.488178025,648.400556328 L215.646731572,649.374130737 L211.752433936,646.45340751 L211.752433936,643.532684284 L207.8581363,640.611961057 L209.805285118,648.400556328 L201.043115438,654.242002782 L173.783031989,659.109874826 L156.258692629,668.845618915 L147.496522949,668.845618915 L142.628650904,671.766342142 L143.602225313,666.898470097 L153.337969402,663.004172462 L152.364394993,658.136300417 L148.470097357,658.136300417 L150.417246175,656.189151599 L159.179415855,655.215577191 L165.020862309,650.347705146 L160.152990264,648.400556328 L165.994436718,642.559109875 L172.80945758,640.611961057 L170.862308762,643.532684284 L175.730180807,641.585535466 Z" fill="#cee3f5" id="IE.491" stroke="#6e6e6e" stroke-width="0.4"><desc><labelrank>9</labelrank><code_hasc>IE.CK</code_hasc><name>Cork</name><admin>Ireland</admin><type_en>County</type_en><region>South-West</region><woe_id>2345252</woe_id><longitude>-8</longitude><woe_name>Cork</woe_name><fips>EI04</fips><woe_label>Cork, IE, Ireland</woe_label><latitude>51</latitude><iso_a2>IE</iso_a2><postal>CK</postal><type>Traditional County</type><id>IE.491</id></desc></path><path d="M444.436717663,223.922114047 L461.961057024,228.789986092 L475.591098748,225.869262865 L476.564673157,229.763560501 L490.194714882,242.420027816 L496.036161335,252.155771905 L503.824756606,257.997218359 L500.90403338,260.917941586 L492.1418637,263.838664812 L486.300417246,261.891515994 L485.326842837,266.759388039 L482.406119611,265.78581363 L488.247566064,276.495132128 L481.432545202,282.336578581 L463.908205841,278.442280946 L456.11961057,283.31015299 L449.304589708,278.442280946 L443.463143255,280.389429764 L437.621696801,283.31015299 L431.780250348,278.442280946 L427.885952712,269.680111266 L419.123783032,269.680111266 L422.044506259,263.838664812 L415.229485396,256.050069541 L418.150208623,248.26147427 L415.229485396,240.472878999 L400.625869263,226.842837274 L394.784422809,224.895688456 L391.863699583,226.842837274 L378.233657858,214.186369958 L369.471488178,212.23922114 L368.497913769,202.503477051 L373.365785814,200.556328234 L379.207232267,192.767732962 L385.04867872,194.71488178 L386.022253129,205.424200278 L389.916550765,209.318497914 L403.54659249,209.318497914 L411.335187761,215.159944367 L413.282336579,220.027816412 L424.965229485,221.974965229 L433.727399166,219.054242003 L432.753824757,220.027816412 L435.674547983,222.948539638 L444.436717663,223.922114047 Z" fill="#cee3f5" id="IE.CN" stroke="#6e6e6e" stroke-width="0.4"><desc><labelrank>8</labelrank><code_hasc>IE.CN</code_hasc><name>Cavan</name><admin>Ireland</admin><type_en>County</type_en><region>Border</region><woe_id>2345250</woe_id><longitude>-7</longitude><woe_name>Cavan</woe_name><fips>EI02</fips><woe_label>Cavan, IE, Ireland</woe_label><latitude>53</latitude><iso_a2>IE</iso_a2><postal>CN</postal><type>Administrative County</type><id>IE.CN</id></desc></path></svg>