<?xml version='1.0' encoding='utf-8'?>
<svg height="700" width="700" xmlns="http://www.w3.org/2000/svg"><path d="M330.885122411,429.755178908 L365.16007533,415.254237288 L390.207156309,370.433145009 L408.662900188,361.20527307 L416.572504708,297.928436911 L437.664783427,287.382297552 L453.483992467,315.065913371 L473.258003766,312.429378531 L466.666666667,351.97740113 L475.894538606,371.751412429 L440.301318267,395.480225989 L482.485875706,436.346516008 L536.534839925,465.348399247 L522.033898305,486.440677966 L551.035781544,518.079096045 L528.625235405,553.672316384 L490.395480226,565.536723164 L420.527306968,514.124293785 L400.753295669,514.124293785 L380.979284369,557.627118644 L337.47645951,572.128060264 L322.975517891,539.171374765 L321.657250471,503.578154426 L303.201506591,493.032015066 L301.883239171,449.529190207 L330.885122411,429.755178908 Z" fill="#cee3f5" id="CN.guizhou.2777425" stroke="#6e6e6e" stroke-width="0.4"><desc><admin_leve>5</admin_leve><localname>黔南布依族苗族自治州 / Qiannan</localname><boundary>administrative</boundary><id>CN.guizhou.2777425</id><name>Qiannan Buyei and Miao Autonomous Prefecture</name></desc></path><path d="M473.258003766,312.429378531 L498.305084746,322.975517891 L512.806026365,304.519774011 L551.035781544,297.928436911 L586.629001883,276.836158192 L630.131826742,280.790960452 L619.585687382,325.612052731 L652.542372881,332.203389831 L682.86252354,321.657250471 L700.0,346.70433145 L670.998116761,382.297551789 L693.4086629,444.256120527 L668.361581921,495.668549906 L649.905838041,487.758945386 L627.495291902,514.124293785 L595.856873823,506.214689266 L585.310734463,527.306967985 L551.035781544,518.079096045 L522.033898305,486.440677966 L536.534839925,465.348399247 L482.485875706,436.346516008 L440.301318267,395.480225989 L475.894538606,371.751412429 L466.666666667,351.97740113 L473.258003766,312.429378531 Z" fill="#cee3f5" id="CN.guizhou.2777847" stroke="#6e6e6e" stroke-width="0.4"><desc><admin_leve>5</admin_leve><localname>黔东南苗族侗族自治州 / Qiandongnan</localname><boundary>administrative</boundary><id>CN.guizhou.2777847</id><name>Qiandongnan Miao and Dong Autonomous Prefecture</name></desc></path><path d="M520.715630885,89.6421845574 L548.399246704,93.5969868173 L566.854990584,143.691148776 L593.220338983,179.284369115 L632.768361582,201.694915254 L656.497175141,163.465160075 L677.589453861,189.830508475 L669.679849341,210.922787194 L686.8173258,272.881355932 L653.860640301,290.018832392 L619.585687382,325.612052731 L630.131826742,280.790960452 L586.629001883,276.836158192 L551.035781544,297.928436911 L512.806026365,304.519774011 L486.440677966,296.610169492 L506.214689266,247.834274953 L487.758945386,208.286252354 L498.305084746,175.329566855 L516.760828625,176.647834275 L537.853107345,125.235404896 L520.715630885,89.6421845574 Z" fill="#cee3f5" id="CN.guizhou.2778223" stroke="#6e6e6e" stroke-width="0.4"><desc><admin_leve>5</admin_leve><localname>铜仁市 / Tongren</localname><boundary>administrative</boundary><id>CN.guizhou.2778223</id><name>Tongren City</name></desc></path><path d="M520.715630885,89.6421845574 L537.853107345,125.235404896 L516.760828625,176.647834275 L498.305084746,175.329566855 L487.758945386,208.286252354 L506.214689266,247.834274953 L486.440677966,296.610169492 L512.806026365,304.519774011 L498.305084746,322.975517891 L473.258003766,312.429378531 L453.483992467,315.065913371 L437.664783427,287.382297552 L416.572504708,297.928436911 L358.56873823,303.201506591 L342.74952919,276.836158192 L317.702448211,282.109227872 L272.881355932,250.470809793 L311.111111111,242.561205273 L309.792843691,220.150659134 L287.382297552,200.376647834 L258.380414313,205.649717514 L226.741996234,159.510357815 L286.064030132,145.009416196 L371.751412429,148.964218456 L371.751412429,130.508474576 L400.753295669,112.052730697 L438.983050847,118.644067797 L441.619585687,77.7777777778 L520.715630885,89.6421845574 Z" fill="#cee3f5" id="CN.guizhou.2778812" stroke="#6e6e6e" stroke-width="0.4"><desc><admin_leve>5</admin_leve><localname>遵义市 / Zunyi</localname><boundary>administrative</boundary><id>CN.guizhou.2778812</id><name>Zunyi City</name></desc></path><path d="M272.881355932,250.470809793 L317.702448211,282.109227872 L342.74952919,276.836158192 L358.56873823,303.201506591 L326.930320151,317.702448211 L315.065913371,353.29566855 L290.018832392,358.56873823 L290.018832392,386.252354049 L216.195856874,417.890772128 L177.966101695,396.798493409 L159.510357815,365.16007533 L133.145009416,354.61393597 L119.962335217,384.934086629 L101.506591337,395.480225989 L47.4576271186,383.615819209 L1.31826741996,386.252354049 L0.0,337.47645951 L23.7288135593,287.382297552 L54.0489642185,308.474576271 L79.0960451977,284.745762712 L105.461393597,303.201506591 L135.781544256,305.838041431 L180.602636535,288.700564972 L189.830508475,255.743879473 L272.881355932,250.470809793 Z" fill="#cee3f5" id="CN.guizhou.2780074" stroke="#6e6e6e" stroke-width="0.4"><desc><admin_leve>5</admin_leve><localname>毕节市 / Bijie</localname><boundary>administrative</boundary><id>CN.guizhou.2780074</id><name>Bijie City</name></desc></path><path d="M101.506591337,395.480225989 L119.962335217,384.934086629 L133.145009416,354.61393597 L159.510357815,365.16007533 L177.966101695,396.798493409 L216.195856874,417.890772128 L226.741996234,441.619585687 L183.239171375,462.711864407 L151.600753296,445.574387947 L137.099811676,487.758945386 L142.372881356,516.760828625 L109.416195857,537.853107345 L71.186440678,508.851224105 L97.5517890772,429.755178908 L101.506591337,395.480225989 Z" fill="#cee3f5" id="CN.guizhou.2780191" stroke="#6e6e6e" stroke-width="0.4"><desc><admin_leve>5</admin_leve><localname>六盘水市 / Liupanshui</localname><boundary>administrative</boundary><id>CN.guizhou.2780191</id><name>Liupanshui City</name></desc></path><path d="M109.416195857,537.853107345 L142.372881356,516.760828625 L137.099811676,487.758945386 L151.600753296,445.574387947 L183.239171375,462.711864407 L197.740112994,482.485875706 L322.975517891,539.171374765 L337.47645951,572.128060264 L295.291902072,586.629001883 L293.973634652,609.039548023 L251.789077213,616.949152542 L205.649717514,590.583804143 L174.011299435,582.674199623 L156.873822976,606.403013183 L108.097928437,622.222222222 L97.5517890772,602.448210923 L130.508474576,549.717514124 L109.416195857,537.853107345 Z" fill="#cee3f5" id="CN.guizhou.2781292" stroke="#6e6e6e" stroke-width="0.4"><desc><admin_leve>5</admin_leve><localname>黔西南布依族苗族自治州 / Qianxinan</localname><boundary>administrative</boundary><id>CN.guizhou.2781292</id><name>Qianxinan Buyei and Miao Autonomous Prefecture</name></desc></path><path d="M358.56873823,303.201506591 L416.572504708,297.928436911 L408.662900188,361.20527307 L390.207156309,370.433145009 L365.16007533,415.254237288 L330.885122411,429.755178908 L341.43126177,420.527306968 L290.018832392,386.252354049 L290.018832392,358.56873823 L315.065913371,353.29566855 L326.930320151,317.702448211 L358.56873823,303.201506591 Z" fill="#cee3f5" id="CN.guizhou.2782246" stroke="#6e6e6e" stroke-width="0.4"><desc><admin_leve>5</admin_leve><localname>贵阳市 / Guiyang</localname><boundary>administrative</boundary><id>CN.guizhou.2782246</id><name>Guiyang City</name></desc></path><path d="M216.195856874,417.890772128 L290.018832392,386.252354049 L341.43126177,420.527306968 L330.885122411,429.755178908 L301.883239171,449.529190207 L303.201506591,493.032015066 L321.657250471,503.578154426 L322.975517891,539.171374765 L197.740112994,482.485875706 L183.239171375,462.711864407 L226.741996234,441.619585687 L216.195856874,417.890772128 Z" fill="#cee3f5" id="CN.guizhou.2782250" stroke="#6e6e6e" stroke-width="0.4"><desc><admin_leve>5</admin_leve><localname>安顺市 / Anshun</localname><boundary>administrative</boundary><id>CN.guizhou.2782250</id><name>Anshun City</name></desc></path></svg>