<?xml version='1.0' encoding='utf-8'?>
<svg height="700" width="700" xmlns="http://www.w3.org/2000/svg"><path d="M609.039548023,535.480225989 L622.485875706,535.480225989 L639.88700565,534.689265537 L640.677966102,552.09039548 L641.468926554,573.446327684 L611.412429379,574.237288136 L600.338983051,574.237288136 L590.847457627,575.028248588 L589.265536723,559.209039548 L588.474576271,544.18079096 L588.474576271,536.271186441 L609.039548023,535.480225989 L609.039548023,535.480225989 Z" fill="#cee3f5" id="US.MI.125" stroke="#6e6e6e" stroke-width="0.4"><desc><name>Oakland County</name><stateAbbrev>MI</stateAbbrev><state>Michigan</state><fips>125</fips><incits>26125</incits><id>US.MI.125</id><population>1231640</population></desc></path><path d="M639.88700565,534.689265537 L650.169491525,534.689265537 L667.570621469,533.898305085 L671.525423729,533.898305085 L672.316384181,550.508474576 L674.689265537,552.881355932 L673.107344633,557.627118644 L673.107344633,571.073446328 L670.734463277,572.655367232 L660.451977401,572.655367232 L641.468926554,573.446327684 L640.677966102,552.09039548 L639.88700565,534.689265537 Z" fill="#cee3f5" id="US.MI.099" stroke="#6e6e6e" stroke-width="0.4"><desc><name>Macomb County</name><stateAbbrev>MI</stateAbbrev><state>Michigan</state><fips>099</fips><incits>26099</incits><id>US.MI.099</id><population>854769</population></desc></path><path d="M638.305084746,496.723163842 L638.305084746,499.88700565 L648.587570621,499.88700565 L649.378531073,511.751412429 L649.378531073,520.451977401 L650.169491525,534.689265537 L639.88700565,534.689265537 L622.485875706,535.480225989 L609.039548023,535.480225989 L608.248587571,520.451977401 L608.248587571,505.423728814 L608.248587571,504.632768362 L617.740112994,504.632768362 L617.740112994,496.723163842 L638.305084746,496.723163842 Z" fill="#cee3f5" id="US.MI.087" stroke="#6e6e6e" stroke-width="0.4"><desc><name>Lapeer County</name><stateAbbrev>MI</stateAbbrev><state>Michigan</state><fips>087</fips><incits>26087</incits><id>US.MI.087</id><population>88389</population></desc></path><path d="M587.683615819,505.423728814 L608.248587571,505.423728814 L608.248587571,520.451977401 L609.039548023,535.480225989 L609.039548023,535.480225989 L588.474576271,536.271186441 L588.474576271,544.18079096 L578.192090395,544.18079096 L567.90960452,544.18079096 L567.118644068,529.152542373 L567.90960452,521.242937853 L567.90960452,513.333333333 L567.118644068,505.423728814 L587.683615819,505.423728814 Z" fill="#cee3f5" id="US.MI.049" stroke="#6e6e6e" stroke-width="0.4"><desc><name>Genesee County</name><stateAbbrev>MI</stateAbbrev><state>Michigan</state><fips>049</fips><incits>26049</incits><id>US.MI.049</id><population>415376</population></desc></path><path d="M547.344632768,544.18079096 L564.745762712,544.18079096 L566.327683616,544.18079096 L567.90960452,544.18079096 L578.192090395,544.18079096 L588.474576271,544.18079096 L589.265536723,559.209039548 L590.847457627,575.028248588 L566.327683616,575.028248588 L549.717514124,575.028248588 L548.926553672,575.028248588 L548.926553672,564.745762712 L548.13559322,550.508474576 L547.344632768,544.18079096 Z" fill="#cee3f5" id="US.MI.093" stroke="#6e6e6e" stroke-width="0.4"><desc><name>Livingston County</name><stateAbbrev>MI</stateAbbrev><state>Michigan</state><fips>093</fips><incits>26093</incits><id>US.MI.093</id><population>184443</population></desc></path><path d="M549.717514124,575.028248588 L566.327683616,575.028248588 L590.847457627,575.028248588 L600.338983051,574.237288136 L601.129943503,586.101694915 L601.920903955,605.084745763 L581.355932203,605.084745763 L560.790960452,605.875706215 L560.790960452,605.875706215 L549.717514124,605.875706215 L549.717514124,597.966101695 L549.717514124,590.847457627 L549.717514124,575.028248588 Z" fill="#cee3f5" id="US.MI.161" stroke="#6e6e6e" stroke-width="0.4"><desc><name>Washtenaw County</name><stateAbbrev>MI</stateAbbrev><state>Michigan</state><fips>161</fips><incits>26161</incits><id>US.MI.161</id><population>354240</population></desc></path><path d="M600.338983051,574.237288136 L611.412429379,574.237288136 L641.468926554,573.446327684 L660.451977401,572.655367232 L670.734463277,572.655367232 L663.615819209,579.774011299 L653.333333333,582.146892655 L649.378531073,583.728813559 L646.214689266,583.728813559 L643.050847458,584.519774011 L639.88700565,587.683615819 L637.514124294,591.638418079 L636.723163842,597.175141243 L638.305084746,601.129943503 L635.93220339,609.039548023 L635.93220339,609.830508475 L631.97740113,609.830508475 L624.858757062,605.875706215 L624.06779661,604.293785311 L624.06779661,604.293785311 L623.276836158,604.293785311 L612.203389831,604.293785311 L612.203389831,605.084745763 L601.920903955,605.084745763 L601.129943503,586.101694915 L600.338983051,574.237288136 Z" fill="#cee3f5" id="US.MI.163" stroke="#6e6e6e" stroke-width="0.4"><desc><name>Wayne County</name><stateAbbrev>MI</stateAbbrev><state>Michigan</state><fips>163</fips><incits>26163</incits><id>US.MI.163</id><population>1775273</population></desc></path><path d="M581.355932203,605.084745763 L601.920903955,605.084745763 L612.203389831,605.084745763 L612.203389831,604.293785311 L623.276836158,604.293785311 L624.06779661,604.293785311 L624.06779661,604.293785311 L624.858757062,605.875706215 L631.97740113,609.830508475 L631.186440678,610.621468927 L630.395480226,612.203389831 L627.231638418,614.576271186 L625.649717514,617.740112994 L623.276836158,616.949152542 L621.694915254,617.740112994 L620.11299435,619.322033898 L620.11299435,621.694915254 L615.367231638,624.06779661 L612.994350282,628.02259887 L610.621468927,628.813559322 L609.830508475,629.604519774 L611.412429379,633.559322034 L608.248587571,633.559322034 L609.039548023,635.93220339 L582.146892655,636.723163842 L581.355932203,620.903954802 L581.355932203,605.084745763 Z" fill="#cee3f5" id="US.MI.115" stroke="#6e6e6e" stroke-width="0.4"><desc><name>Monroe County</name><stateAbbrev>MI</stateAbbrev><state>Michigan</state><fips>115</fips><incits>26115</incits><id>US.MI.115</id><population>150376</population></desc></path><path d="M354.350282486,590.847457627 L367.005649718,590.847457627 L367.005649718,605.875706215 L367.005649718,613.785310734 L367.005649718,633.559322034 L337.740112994,633.559322034 L314.011299435,633.559322034 L319.548022599,630.395480226 L326.666666667,626.440677966 L332.203389831,621.694915254 L335.367231638,616.949152542 L337.740112994,612.203389831 L340.903954802,607.457627119 L343.276836158,603.502824859 L343.276836158,601.920903955 L346.440677966,599.548022599 L351.97740113,594.011299435 L354.350282486,590.847457627 Z" fill="#cee3f5" id="US.MI.021" stroke="#6e6e6e" stroke-width="0.4"><desc><name>Berrien County</name><stateAbbrev>MI</stateAbbrev><state>Michigan</state><fips>021</fips><incits>26021</incits><id>US.MI.021</id><population>155252</population></desc></path><path d="M546.553672316,475.367231638 L546.553672316,464.293785311 L546.553672316,452.429378531 L546.553672316,438.192090395 L557.627118644,437.401129944 L557.627118644,445.310734463 L569.491525424,445.310734463 L568.700564972,449.265536723 L567.90960452,450.056497175 L568.700564972,452.429378531 L567.90960452,456.384180791 L566.327683616,457.966101695 L564.745762712,457.966101695 L566.327683616,461.920903955 L569.491525424,465.875706215 L574.237288136,468.248587571 L576.610169492,468.248587571 L582.937853107,469.830508475 L587.683615819,472.203389831 L587.683615819,483.276836158 L577.401129944,483.276836158 L577.401129944,479.322033898 L556.836158192,479.322033898 L556.836158192,475.367231638 L546.553672316,475.367231638 Z" fill="#cee3f5" id="US.MI.017" stroke="#6e6e6e" stroke-width="0.4"><desc><name>Bay County</name><stateAbbrev>MI</stateAbbrev><state>Michigan</state><fips>017</fips><incits>26017</incits><id>US.MI.017</id><population>106832</population></desc></path><path d="M587.683615819,472.203389831 L590.056497175,472.994350282 L592.429378531,471.412429379 L599.548022599,465.084745763 L601.129943503,463.502824859 L603.502824859,461.920903955 L605.875706215,463.502824859 L607.457627119,461.129943503 L608.248587571,466.666666667 L628.02259887,465.875706215 L638.305084746,465.875706215 L639.88700565,496.723163842 L638.305084746,496.723163842 L617.740112994,496.723163842 L617.740112994,504.632768362 L608.248587571,504.632768362 L608.248587571,505.423728814 L587.683615819,505.423728814 L587.683615819,496.723163842 L587.683615819,496.723163842 L587.683615819,483.276836158 L587.683615819,472.203389831 Z" fill="#cee3f5" id="US.MI.157" stroke="#6e6e6e" stroke-width="0.4"><desc><name>Tuscola County</name><stateAbbrev>MI</stateAbbrev><state>Michigan</state><fips>157</fips><incits>26157</incits><id>US.MI.157</id><population>54263</population></desc></path><path d="M546.553672316,423.163841808 L571.86440678,423.163841808 L583.728813559,423.163841808 L599.548022599,423.163841808 L598.757062147,428.700564972 L597.175141243,431.073446328 L597.966101695,433.446327684 L594.802259887,432.655367232 L592.429378531,432.655367232 L590.056497175,433.446327684 L589.265536723,435.81920904 L589.265536723,438.192090395 L585.310734463,437.401129944 L583.728813559,438.192090395 L581.355932203,438.983050847 L575.81920904,438.983050847 L571.86440678,442.146892655 L569.491525424,445.310734463 L557.627118644,445.310734463 L557.627118644,437.401129944 L546.553672316,438.192090395 L546.553672316,423.163841808 Z" fill="#cee3f5" id="US.MI.011" stroke="#6e6e6e" stroke-width="0.4"><desc><name>Arenac County</name><stateAbbrev>MI</stateAbbrev><state>Michigan</state><fips>011</fips><incits>26011</incits><id>US.MI.011</id><population>15487</population></desc></path><path d="M683.389830508,464.293785311 L638.305084746,465.875706215 L628.02259887,465.875706215 L608.248587571,466.666666667 L607.457627119,461.129943503 L610.621468927,456.384180791 L611.412429379,454.802259887 L613.785310734,452.429378531 L614.576271186,450.847457627 L616.949152542,450.056497175 L619.322033898,447.683615819 L620.11299435,445.310734463 L623.276836158,443.728813559 L625.649717514,439.774011299 L628.813559322,438.983050847 L635.93220339,438.192090395 L639.096045198,437.401129944 L642.259887006,437.401129944 L644.632768362,435.81920904 L647.005649718,433.446327684 L649.378531073,433.446327684 L651.751412429,431.86440678 L653.333333333,431.86440678 L655.706214689,431.86440678 L659.661016949,433.446327684 L663.615819209,434.237288136 L669.152542373,436.610169492 L671.525423729,438.192090395 L675.480225989,443.728813559 L676.271186441,445.310734463 L677.062146893,447.683615819 L679.435028249,449.265536723 L679.435028249,451.638418079 L681.016949153,453.220338983 L682.598870056,456.384180791 L682.598870056,459.548022599 L683.389830508,462.711864407 L683.389830508,464.293785311 M608.248587571,454.802259887 L608.248587571,453.220338983 L610.621468927,450.847457627 L612.994350282,452.429378531 L612.994350282,454.011299435 L610.621468927,453.220338983 L608.248587571,454.802259887 Z" fill="#cee3f5" id="US.MI.063" stroke="#6e6e6e" stroke-width="0.4"><desc><name>Huron County</name><stateAbbrev>MI</stateAbbrev><state>Michigan</state><fips>063</fips><incits>26063</incits><id>US.MI.063</id><population>32224</population></desc></path><path d="M649.378531073,511.751412429 L665.988700565,510.960451977 L692.09039548,510.169491525 L693.672316384,515.706214689 L699.209039548,523.615819209 L699.209039548,525.988700565 L700.0,526.779661017 L698.418079096,529.152542373 L696.04519774,531.525423729 L695.254237288,534.689265537 L695.254237288,537.062146893 L693.672316384,541.807909605 L695.254237288,545.762711864 L693.672316384,548.13559322 L693.672316384,549.717514124 L691.299435028,554.463276836 L691.299435028,556.836158192 L690.508474576,559.209039548 L683.389830508,564.745762712 L680.225988701,563.95480226 L677.853107345,565.536723164 L673.107344633,571.073446328 L673.107344633,557.627118644 L674.689265537,552.881355932 L672.316384181,550.508474576 L671.525423729,533.898305085 L667.570621469,533.898305085 L650.169491525,534.689265537 L649.378531073,520.451977401 L649.378531073,511.751412429 Z" fill="#cee3f5" id="US.MI.147" stroke="#6e6e6e" stroke-width="0.4"><desc><name>St. Clair County</name><stateAbbrev>MI</stateAbbrev><state>Michigan</state><fips>147</fips><incits>26147</incits><id>US.MI.147</id><population>160469</population></desc></path><path d="M507.796610169,423.95480226 L529.152542373,423.163841808 L546.553672316,423.163841808 L546.553672316,438.192090395 L546.553672316,452.429378531 L529.152542373,452.429378531 L529.152542373,454.011299435 L507.796610169,454.011299435 L508.587570621,431.073446328 L507.796610169,423.95480226 Z" fill="#cee3f5" id="US.MI.051" stroke="#6e6e6e" stroke-width="0.4"><desc><name>Gladwin County</name><stateAbbrev>MI</stateAbbrev><state>Michigan</state><fips>051</fips><incits>26051</incits><id>US.MI.051</id><population>25493</population></desc></path><path d="M638.305084746,496.723163842 L639.88700565,496.723163842 L638.305084746,465.875706215 L683.389830508,464.293785311 L683.389830508,467.457627119 L684.18079096,471.412429379 L683.389830508,472.203389831 L686.553672316,481.694915254 L688.13559322,483.276836158 L688.13559322,485.649717514 L688.926553672,487.231638418 L688.926553672,489.604519774 L689.717514124,491.186440678 L688.926553672,494.350282486 L689.717514124,495.141242938 L689.717514124,498.305084746 L690.508474576,501.468926554 L690.508474576,502.259887006 L691.299435028,507.005649718 L692.09039548,510.169491525 L665.988700565,510.960451977 L649.378531073,511.751412429 L648.587570621,499.88700565 L638.305084746,499.88700565 L638.305084746,496.723163842 Z" fill="#cee3f5" id="US.MI.151" stroke="#6e6e6e" stroke-width="0.4"><desc><name>Sanilac County</name><stateAbbrev>MI</stateAbbrev><state>Michigan</state><fips>151</fips><incits>26151</incits><id>US.MI.151</id><population>41823</population></desc></path><path d="M529.152542373,513.333333333 L536.271186441,514.124293785 L567.90960452,513.333333333 L567.90960452,521.242937853 L567.118644068,529.152542373 L567.90960452,544.18079096 L566.327683616,544.18079096 L564.745762712,544.18079096 L547.344632768,544.18079096 L529.943502825,544.971751412 L529.152542373,537.853107345 L529.152542373,514.915254237 L529.152542373,513.333333333 Z" fill="#cee3f5" id="US.MI.155" stroke="#6e6e6e" stroke-width="0.4"><desc><name>Shiawassee County</name><stateAbbrev>MI</stateAbbrev><state>Michigan</state><fips>155</fips><incits>26155</incits><id>US.MI.155</id><population>68900</population></desc></path><path d="M529.152542373,484.06779661 L529.152542373,482.485875706 L546.553672316,482.485875706 L546.553672316,475.367231638 L556.836158192,475.367231638 L556.836158192,479.322033898 L577.401129944,479.322033898 L577.401129944,483.276836158 L587.683615819,483.276836158 L587.683615819,496.723163842 L587.683615819,496.723163842 L587.683615819,505.423728814 L567.118644068,505.423728814 L567.90960452,513.333333333 L536.271186441,514.124293785 L529.152542373,513.333333333 L529.152542373,484.06779661 Z" fill="#cee3f5" id="US.MI.145" stroke="#6e6e6e" stroke-width="0.4"><desc><name>Saginaw County</name><stateAbbrev>MI</stateAbbrev><state>Michigan</state><fips>145</fips><incits>26145</incits><id>US.MI.145</id><population>196542</population></desc></path><path d="M571.073446328,393.107344633 L594.011299435,393.107344633 L620.903954802,393.107344633 L620.903954802,393.898305085 L620.11299435,398.644067797 L620.903954802,401.807909605 L619.322033898,404.971751412 L619.322033898,408.13559322 L616.15819209,408.926553672 L612.203389831,412.09039548 L611.412429379,413.672316384 L607.457627119,412.881355932 L604.293785311,413.672316384 L601.920903955,415.254237288 L600.338983051,418.418079096 L600.338983051,420.0 L599.548022599,423.163841808 L583.728813559,423.163841808 L571.86440678,423.163841808 L571.86440678,403.389830508 L571.073446328,393.107344633 Z" fill="#cee3f5" id="US.MI.069" stroke="#6e6e6e" stroke-width="0.4"><desc><name>Iosco County</name><stateAbbrev>MI</stateAbbrev><state>Michigan</state><fips>069</fips><incits>26069</incits><id>US.MI.069</id><population>25429</population></desc></path><path d="M508.587570621,544.971751412 L529.152542373,544.971751412 L529.943502825,544.971751412 L547.344632768,544.18079096 L548.13559322,550.508474576 L548.926553672,564.745762712 L548.926553672,575.028248588 L529.152542373,575.81920904 L508.587570621,575.81920904 L508.587570621,567.90960452 L508.587570621,544.971751412 Z" fill="#cee3f5" id="US.MI.065" stroke="#6e6e6e" stroke-width="0.4"><desc><name>Ingham County</name><stateAbbrev>MI</stateAbbrev><state>Michigan</state><fips>065</fips><incits>26065</incits><id>US.MI.065</id><population>282234</population></desc></path><path d="M498.305084746,575.81920904 L508.587570621,575.81920904 L529.152542373,575.81920904 L548.926553672,575.028248588 L549.717514124,575.028248588 L549.717514124,590.847457627 L549.717514124,597.966101695 L549.717514124,605.875706215 L529.152542373,605.875706215 L499.096045198,606.666666667 L498.305084746,590.847457627 L498.305084746,575.81920904 Z" fill="#cee3f5" id="US.MI.075" stroke="#6e6e6e" stroke-width="0.4"><desc><name>Jackson County</name><stateAbbrev>MI</stateAbbrev><state>Michigan</state><fips>075</fips><incits>26075</incits><id>US.MI.075</id><population>160369</population></desc></path><path d="M166.892655367,150.282485876 L170.056497175,147.90960452 L170.847457627,145.536723164 L174.011299435,143.163841808 L178.757062147,140.790960452 L183.502824859,140.0 L186.666666667,138.418079096 L189.830508475,137.627118644 L192.203389831,136.04519774 L195.367231638,135.254237288 L207.231638418,133.672316384 L213.559322034,132.881355932 L219.88700565,133.672316384 L222.259887006,134.463276836 L224.632768362,133.672316384 L228.587570621,133.672316384 L231.751412429,134.463276836 L236.497175141,136.836158192 L235.706214689,140.0 L234.124293785,140.0 L230.960451977,140.790960452 L227.796610169,141.581920904 L224.632768362,140.790960452 L222.259887006,140.790960452 L215.141242938,141.581920904 L214.350282486,143.163841808 L216.723163842,144.745762712 L210.395480226,148.700564972 L206.440677966,149.491525424 L203.276836158,152.655367232 L200.903954802,153.446327684 L200.11299435,154.237288136 L196.15819209,156.610169492 L192.994350282,156.610169492 L191.412429379,157.401129944 L185.084745763,157.401129944 L185.084745763,150.282485876 L166.892655367,150.282485876 M242.033898305,138.418079096 L244.406779661,137.627118644 L245.197740113,139.209039548 L242.033898305,138.418079096 M92.5423728814,89.3785310734 L94.1242937853,90.1694915254 L113.107344633,82.2598870056 L151.86440678,66.4406779661 L178.757062147,60.9039548023 L192.203389831,65.6497175141 L184.293785311,73.5593220339 L184.293785311,83.8418079096 L170.056497175,87.7966101695 L140.790960452,98.0790960452 L124.971751412,103.615819209 L113.107344633,107.570621469 L92.5423728814,107.570621469 L92.5423728814,89.3785310734 Z" fill="#cee3f5" id="US.MI.083" stroke="#6e6e6e" stroke-width="0.4"><desc><name>Keweenaw County</name><stateAbbrev>MI</stateAbbrev><state>Michigan</state><fips>083</fips><incits>26083</incits><id>US.MI.083</id><population>2191</population></desc></path><path d="M488.02259887,514.124293785 L529.152542373,514.915254237 L529.152542373,537.853107345 L529.943502825,544.971751412 L529.152542373,544.971751412 L508.587570621,544.971751412 L488.02259887,544.971751412 L488.02259887,537.853107345 L488.02259887,529.943502825 L488.02259887,514.124293785 Z" fill="#cee3f5" id="US.MI.037" stroke="#6e6e6e" stroke-width="0.4"><desc><name>Clinton County</name><stateAbbrev>MI</stateAbbrev><state>Michigan</state><fips>037</fips><incits>26037</incits><id>US.MI.037</id><population>76739</population></desc></path><path d="M467.457627119,544.971751412 L488.02259887,544.971751412 L508.587570621,544.971751412 L508.587570621,567.90960452 L508.587570621,575.81920904 L498.305084746,575.81920904 L477.740112994,575.81920904 L467.457627119,575.81920904 L467.457627119,544.971751412 Z" fill="#cee3f5" id="US.MI.045" stroke="#6e6e6e" stroke-width="0.4"><desc><name>Eaton County</name><stateAbbrev>MI</stateAbbrev><state>Michigan</state><fips>045</fips><incits>26045</incits><id>US.MI.045</id><population>108348</population></desc></path><path d="M401.807909605,393.107344633 L402.598870056,370.169491525 L417.627118644,370.169491525 L421.581920904,370.169491525 L423.163841808,366.214689266 L424.745762712,364.632768362 L425.536723164,362.259887006 L427.118644068,361.468926554 L427.90960452,359.096045198 L425.536723164,359.096045198 L427.90960452,355.93220339 L427.90960452,352.768361582 L432.655367232,351.186440678 L433.446327684,353.559322034 L431.073446328,353.559322034 L431.073446328,358.305084746 L430.282485876,363.050847458 L426.327683616,364.632768362 L424.745762712,366.214689266 L424.745762712,368.587570621 L423.163841808,370.960451977 L425.536723164,371.751412429 L427.90960452,371.751412429 L429.491525424,370.169491525 L429.491525424,367.796610169 L432.655367232,366.214689266 L435.028248588,362.259887006 L440.564971751,362.259887006 L442.146892655,365.423728814 L444.519774011,366.214689266 L444.519774011,393.107344633 L423.163841808,393.107344633 L401.807909605,393.107344633 Z" fill="#cee3f5" id="US.MI.055" stroke="#6e6e6e" stroke-width="0.4"><desc><name>Grand Traverse County</name><stateAbbrev>MI</stateAbbrev><state>Michigan</state><fips>055</fips><incits>26055</incits><id>US.MI.055</id><population>89987</population></desc></path><path d="M417.627118644,370.169491525 L402.598870056,370.169491525 L379.661016949,369.378531073 L379.661016949,367.796610169 L380.451977401,365.423728814 L380.451977401,359.88700565 L380.451977401,358.305084746 L382.824858757,357.514124294 L385.988700565,359.096045198 L388.361581921,358.305084746 L389.152542373,355.93220339 L391.525423729,353.559322034 L393.898305085,352.768361582 L395.480225989,353.559322034 L397.062146893,355.141242938 L398.644067797,355.141242938 L403.389830508,354.350282486 L405.762711864,351.97740113 L405.762711864,348.813559322 L407.344632768,348.02259887 L408.926553672,345.649717514 L412.09039548,344.06779661 L414.463276836,341.694915254 L414.463276836,340.11299435 L416.836158192,336.949152542 L420.0,333.785310734 L423.163841808,333.785310734 L426.327683616,331.412429379 L427.90960452,333.785310734 L427.118644068,334.576271186 L424.745762712,336.15819209 L422.372881356,336.949152542 L420.0,339.322033898 L421.581920904,342.485875706 L424.745762712,344.858757062 L422.372881356,344.858757062 L421.581920904,348.02259887 L418.418079096,350.395480226 L416.836158192,351.97740113 L418.418079096,352.768361582 L420.790960452,351.97740113 L421.581920904,356.723163842 L419.209039548,356.723163842 L416.836158192,361.468926554 L416.836158192,364.632768362 L418.418079096,367.796610169 L417.627118644,370.169491525 M380.451977401,337.740112994 L382.033898305,336.15819209 L385.988700565,336.15819209 L388.361581921,337.740112994 L387.570621469,342.485875706 L389.152542373,344.06779661 L386.779661017,345.649717514 L382.824858757,342.485875706 L381.242937853,340.903954802 L380.451977401,337.740112994 M372.542372881,348.813559322 L374.124293785,346.440677966 L376.497175141,345.649717514 L378.870056497,346.440677966 L377.288135593,348.02259887 L378.079096045,349.604519774 L374.915254237,350.395480226 L372.542372881,348.813559322 M396.271186441,310.847457627 L398.644067797,311.638418079 L401.016949153,313.220338983 L401.807909605,314.802259887 L401.016949153,317.175141243 L397.062146893,312.429378531 L396.271186441,310.847457627 Z" fill="#cee3f5" id="US.MI.089" stroke="#6e6e6e" stroke-width="0.4"><desc><name>Leelanau County</name><stateAbbrev>MI</stateAbbrev><state>Michigan</state><fips>089</fips><incits>26089</incits><id>US.MI.089</id><population>21747</population></desc></path><path d="M200.903954802,269.717514124 L200.903954802,252.316384181 L200.903954802,241.242937853 L234.124293785,241.242937853 L244.406779661,241.242937853 L244.406779661,264.18079096 L244.406779661,271.299435028 L238.079096045,271.299435028 L238.079096045,287.118644068 L224.632768362,287.118644068 L222.259887006,283.95480226 L217.514124294,283.163841808 L214.350282486,283.95480226 L211.97740113,280.790960452 L208.02259887,280.790960452 L207.231638418,281.581920904 L203.276836158,281.581920904 L202.485875706,280.0 L200.11299435,279.209039548 L200.11299435,277.627118644 L204.06779661,275.254237288 L205.649717514,273.672316384 L202.485875706,272.881355932 L200.903954802,269.717514124 Z" fill="#cee3f5" id="US.MI.043" stroke="#6e6e6e" stroke-width="0.4"><desc><name>Dickinson County</name><stateAbbrev>MI</stateAbbrev><state>Michigan</state><fips>043</fips><incits>26043</incits><id>US.MI.043</id><population>26098</population></desc></path><path d="M46.6666666667,195.367231638 L48.2485875706,195.367231638 L48.2485875706,210.395480226 L59.3220338983,211.186440678 L59.3220338983,218.305084746 L91.7514124294,218.305084746 L91.7514124294,233.333333333 L124.971751412,233.333333333 L124.971751412,241.242937853 L124.971751412,253.898305085 L116.271186441,250.734463277 L83.0508474576,244.406779661 L43.5028248588,236.497175141 L26.1016949153,233.333333333 L26.1016949153,230.960451977 L24.5197740113,230.169491525 L22.9378531073,227.005649718 L22.1468926554,224.632768362 L21.3559322034,223.84180791 L17.4011299435,219.096045198 L16.6101694915,218.305084746 L13.4463276836,218.305084746 L12.6553672316,217.514124294 L8.70056497175,217.514124294 L9.49152542373,215.93220339 L7.1186440678,214.350282486 L5.53672316384,215.141242938 L1.58192090395,215.93220339 L0.0,212.768361582 L7.1186440678,209.604519774 L9.49152542373,209.604519774 L13.4463276836,208.02259887 L22.1468926554,205.649717514 L26.1016949153,205.649717514 L32.4293785311,204.06779661 L34.802259887,203.276836158 L38.7570621469,200.903954802 L43.5028248588,197.740112994 L46.6666666667,195.367231638 Z" fill="#cee3f5" id="US.MI.053" stroke="#6e6e6e" stroke-width="0.4"><desc><name>Gogebic County</name><stateAbbrev>MI</stateAbbrev><state>Michigan</state><fips>053</fips><incits>26053</incits><id>US.MI.053</id><population>15916</population></desc></path><path d="M124.971751412,226.214689266 L151.86440678,226.214689266 L200.903954802,226.214689266 L200.903954802,241.242937853 L200.903954802,252.316384181 L200.903954802,269.717514124 L195.367231638,267.344632768 L191.412429379,267.344632768 L189.039548023,265.762711864 L188.248587571,266.553672316 L185.084745763,266.553672316 L182.711864407,265.762711864 L177.966101695,263.389830508 L177.175141243,264.18079096 L174.011299435,264.18079096 L170.847457627,262.598870056 L167.683615819,262.598870056 L166.892655367,261.016949153 L162.146892655,261.016949153 L159.774011299,261.807909605 L158.983050847,261.016949153 L157.401129944,263.389830508 L153.446327684,263.389830508 L151.86440678,261.016949153 L149.491525424,261.016949153 L147.118644068,260.225988701 L143.163841808,261.016949153 L138.418079096,260.225988701 L136.836158192,259.435028249 L124.971751412,253.898305085 L124.971751412,241.242937853 L124.971751412,233.333333333 L124.971751412,226.214689266 Z" fill="#cee3f5" id="US.MI.071" stroke="#6e6e6e" stroke-width="0.4"><desc><name>Iron County</name><stateAbbrev>MI</stateAbbrev><state>Michigan</state><fips>071</fips><incits>26071</incits><id>US.MI.071</id><population>11516</population></desc></path><path d="M207.231638418,182.711864407 L211.97740113,183.502824859 L215.141242938,182.711864407 L220.677966102,182.711864407 L224.632768362,185.084745763 L227.796610169,184.293785311 L230.960451977,185.875706215 L231.751412429,187.457627119 L234.124293785,186.666666667 L234.915254237,189.830508475 L237.288135593,190.621468927 L239.661016949,189.039548023 L240.451977401,190.621468927 L243.615819209,191.412429379 L246.779661017,194.576271186 L247.570621469,198.531073446 L248.361581921,199.322033898 L252.316384181,201.694915254 L253.107344633,203.276836158 L254.689265537,205.649717514 L257.853107345,207.231638418 L258.644067797,208.813559322 L261.016949153,211.186440678 L264.971751412,211.97740113 L264.18079096,212.768361582 L265.762711864,215.141242938 L264.18079096,215.93220339 L266.553672316,218.305084746 L270.508474576,219.096045198 L277.627118644,219.88700565 L281.581920904,219.88700565 L283.95480226,218.305084746 L287.118644068,219.096045198 L288.700564972,219.096045198 L288.700564972,248.361581921 L277.627118644,249.152542373 L277.627118644,264.18079096 L266.553672316,264.18079096 L244.406779661,264.18079096 L244.406779661,241.242937853 L234.124293785,241.242937853 L200.903954802,241.242937853 L200.903954802,226.214689266 L200.903954802,203.276836158 L211.97740113,203.276836158 L211.97740113,195.367231638 L207.231638418,195.367231638 L207.231638418,182.711864407 Z" fill="#cee3f5" id="US.MI.103" stroke="#6e6e6e" stroke-width="0.4"><desc><name>Marquette County</name><stateAbbrev>MI</stateAbbrev><state>Michigan</state><fips>103</fips><incits>26103</incits><id>US.MI.103</id><population>67700</population></desc></path><path d="M224.632768362,287.118644068 L238.079096045,287.118644068 L238.079096045,271.299435028 L244.406779661,271.299435028 L244.406779661,264.18079096 L266.553672316,264.18079096 L266.553672316,271.299435028 L270.508474576,271.299435028 L269.717514124,302.146892655 L276.04519774,302.146892655 L273.672316384,306.101694915 L269.717514124,310.847457627 L269.717514124,313.220338983 L267.344632768,314.802259887 L267.344632768,316.384180791 L264.971751412,317.966101695 L263.389830508,321.129943503 L261.016949153,321.920903955 L261.016949153,324.293785311 L258.644067797,325.875706215 L251.525423729,332.994350282 L249.152542373,334.576271186 L246.779661017,336.949152542 L245.197740113,340.11299435 L246.779661017,341.694915254 L241.242937853,340.903954802 L238.870056497,337.740112994 L236.497175141,336.15819209 L234.915254237,334.576271186 L234.124293785,332.994350282 L234.915254237,332.203389831 L235.706214689,329.830508475 L236.497175141,329.039548023 L238.870056497,324.293785311 L242.033898305,320.338983051 L241.242937853,317.966101695 L238.079096045,315.593220339 L235.706214689,317.175141243 L233.333333333,319.548022599 L230.169491525,318.757062147 L224.632768362,319.548022599 L221.468926554,317.966101695 L223.84180791,316.384180791 L224.632768362,314.011299435 L223.84180791,312.429378531 L227.796610169,309.265536723 L229.378531073,306.101694915 L228.587570621,305.310734463 L228.587570621,302.146892655 L230.960451977,297.401129944 L227.796610169,294.237288136 L227.005649718,291.86440678 L230.960451977,291.073446328 L228.587570621,289.491525424 L227.796610169,287.90960452 L224.632768362,287.118644068 Z" fill="#cee3f5" id="US.MI.109" stroke="#6e6e6e" stroke-width="0.4"><desc><name>Menominee County</name><stateAbbrev>MI</stateAbbrev><state>Michigan</state><fips>109</fips><incits>26109</incits><id>US.MI.109</id><population>23791</population></desc></path><path d="M46.6666666667,195.367231638 L49.8305084746,192.994350282 L53.7853107345,191.412429379 L60.9039548023,189.830508475 L65.6497175141,189.830508475 L69.604519774,190.621468927 L75.9322033898,189.039548023 L79.0960451977,189.039548023 L83.0508474576,189.039548023 L87.7966101695,189.039548023 L93.3333333333,187.457627119 L105.197740113,181.920903955 L109.152542373,177.966101695 L113.107344633,175.593220339 L117.062146893,176.384180791 L120.225988701,174.802259887 L124.18079096,175.593220339 L128.13559322,174.011299435 L129.717514124,172.429378531 L129.717514124,195.367231638 L136.04519774,195.367231638 L136.04519774,203.276836158 L124.971751412,203.276836158 L124.971751412,226.214689266 L124.971751412,233.333333333 L91.7514124294,233.333333333 L91.7514124294,218.305084746 L59.3220338983,218.305084746 L59.3220338983,211.186440678 L48.2485875706,210.395480226 L48.2485875706,195.367231638 L46.6666666667,195.367231638 Z" fill="#cee3f5" id="US.MI.131" stroke="#6e6e6e" stroke-width="0.4"><desc><name>Ontonagon County</name><stateAbbrev>MI</stateAbbrev><state>Michigan</state><fips>131</fips><incits>26131</incits><id>US.MI.131</id><population>6322</population></desc></path><path d="M448.474576271,605.875706215 L458.757062147,605.875706215 L488.813559322,605.875706215 L489.604519774,633.559322034 L476.15819209,633.559322034 L448.474576271,633.559322034 L448.474576271,621.694915254 L448.474576271,605.875706215 Z" fill="#cee3f5" id="US.MI.023" stroke="#6e6e6e" stroke-width="0.4"><desc><name>Branch County</name><stateAbbrev>MI</stateAbbrev><state>Michigan</state><fips>023</fips><incits>26023</incits><id>US.MI.023</id><population>43649</population></desc></path><path d="M367.005649718,633.559322034 L367.005649718,613.785310734 L367.005649718,605.875706215 L386.779661017,606.666666667 L407.344632768,606.666666667 L407.344632768,620.903954802 L407.344632768,630.395480226 L404.971751412,631.97740113 L404.971751412,633.559322034 L382.824858757,633.559322034 L367.005649718,633.559322034 Z" fill="#cee3f5" id="US.MI.027" stroke="#6e6e6e" stroke-width="0.4"><desc><name>Cass County</name><stateAbbrev>MI</stateAbbrev><state>Michigan</state><fips>027</fips><incits>26027</incits><id>US.MI.027</id><population>51910</population></desc></path><path d="M488.813559322,605.875706215 L499.096045198,606.666666667 L529.152542373,605.875706215 L529.943502825,638.305084746 L495.93220339,639.096045198 L491.186440678,639.096045198 L491.186440678,633.559322034 L489.604519774,633.559322034 L488.813559322,605.875706215 Z" fill="#cee3f5" id="US.MI.059" stroke="#6e6e6e" stroke-width="0.4"><desc><name>Hillsdale County</name><stateAbbrev>MI</stateAbbrev><state>Michigan</state><fips>059</fips><incits>26059</incits><id>US.MI.059</id><population>46101</population></desc></path><path d="M529.152542373,605.875706215 L549.717514124,605.875706215 L560.790960452,605.875706215 L560.790960452,605.875706215 L581.355932203,605.084745763 L581.355932203,620.903954802 L582.146892655,636.723163842 L541.016949153,637.514124294 L529.943502825,638.305084746 L529.152542373,605.875706215 Z" fill="#cee3f5" id="US.MI.091" stroke="#6e6e6e" stroke-width="0.4"><desc><name>Lenawee County</name><stateAbbrev>MI</stateAbbrev><state>Michigan</state><fips>091</fips><incits>26091</incits><id>US.MI.091</id><population>99188</population></desc></path><path d="M407.344632768,606.666666667 L427.118644068,605.875706215 L448.474576271,605.875706215 L448.474576271,621.694915254 L448.474576271,633.559322034 L420.790960452,633.559322034 L404.971751412,633.559322034 L404.971751412,631.97740113 L407.344632768,630.395480226 L407.344632768,620.903954802 L407.344632768,606.666666667 Z" fill="#cee3f5" id="US.MI.149" stroke="#6e6e6e" stroke-width="0.4"><desc><name>St. Joseph County</name><stateAbbrev>MI</stateAbbrev><state>Michigan</state><fips>149</fips><incits>26149</incits><id>US.MI.149</id><population>60964</population></desc></path><path d="M288.700564972,219.096045198 L291.86440678,217.514124294 L296.610169492,216.723163842 L297.401129944,215.93220339 L300.564971751,216.723163842 L302.146892655,217.514124294 L305.310734463,222.259887006 L308.474576271,222.259887006 L310.056497175,224.632768362 L313.220338983,224.632768362 L314.802259887,224.632768362 L315.593220339,222.259887006 L317.175141243,220.677966102 L320.338983051,220.677966102 L322.711864407,221.468926554 L325.084745763,223.84180791 L329.039548023,223.84180791 L328.248587571,226.214689266 L330.621468927,227.005649718 L338.531073446,219.096045198 L340.11299435,219.096045198 L340.903954802,217.514124294 L343.276836158,216.723163842 L345.649717514,214.350282486 L348.02259887,214.350282486 L353.559322034,212.768361582 L357.514124294,211.186440678 L370.169491525,204.858757062 L374.124293785,204.06779661 L375.706214689,204.858757062 L380.451977401,204.858757062 L382.824858757,204.06779661 L388.361581921,203.276836158 L390.734463277,203.276836158 L394.689265537,202.485875706 L398.644067797,202.485875706 L398.644067797,218.305084746 L365.423728814,218.305084746 L354.350282486,218.305084746 L354.350282486,233.333333333 L332.203389831,233.333333333 L332.203389831,248.361581921 L310.056497175,249.152542373 L288.700564972,248.361581921 L288.700564972,219.096045198 M324.293785311,215.141242938 L325.875706215,213.559322034 L329.039548023,213.559322034 L331.412429379,215.93220339 L331.412429379,218.305084746 L329.830508475,219.88700565 L332.994350282,221.468926554 L330.621468927,223.050847458 L329.039548023,221.468926554 L326.666666667,223.050847458 L326.666666667,219.096045198 L325.084745763,217.514124294 L324.293785311,215.141242938 Z" fill="#cee3f5" id="US.MI.003" stroke="#6e6e6e" stroke-width="0.4"><desc><name>Alger County</name><stateAbbrev>MI</stateAbbrev><state>Michigan</state><fips>003</fips><incits>26003</incits><id>US.MI.003</id><population>9522</population></desc></path><path d="M171.638418079,180.338983051 L170.056497175,185.084745763 L169.265536723,189.830508475 L170.847457627,193.785310734 L169.265536723,193.785310734 L167.683615819,196.15819209 L170.056497175,196.949152542 L173.220338983,192.994350282 L177.966101695,189.039548023 L177.175141243,186.666666667 L180.338983051,187.457627119 L184.293785311,185.084745763 L188.248587571,182.711864407 L189.830508475,181.129943503 L193.785310734,180.338983051 L197.740112994,177.966101695 L198.531073446,179.548022599 L195.367231638,181.920903955 L191.412429379,184.293785311 L189.830508475,185.875706215 L187.457627119,189.039548023 L189.039548023,189.039548023 L190.621468927,186.666666667 L195.367231638,183.502824859 L200.11299435,182.711864407 L204.06779661,181.920903955 L207.231638418,182.711864407 L207.231638418,195.367231638 L211.97740113,195.367231638 L211.97740113,203.276836158 L200.903954802,203.276836158 L200.903954802,226.214689266 L151.86440678,226.214689266 L151.86440678,211.186440678 L151.86440678,195.367231638 L151.86440678,188.248587571 L162.937853107,188.248587571 L162.937853107,180.338983051 L171.638418079,180.338983051 Z" fill="#cee3f5" id="US.MI.013" stroke="#6e6e6e" stroke-width="0.4"><desc><name>Baraga County</name><stateAbbrev>MI</stateAbbrev><state>Michigan</state><fips>013</fips><incits>26013</incits><id>US.MI.013</id><population>8695</population></desc></path><path d="M452.429378531,196.15819209 L461.129943503,195.367231638 L465.084745763,196.15819209 L470.621468927,196.15819209 L476.15819209,194.576271186 L477.740112994,195.367231638 L472.994350282,199.322033898 L471.412429379,201.694915254 L470.621468927,210.395480226 L471.412429379,215.141242938 L469.039548023,216.723163842 L469.830508475,218.305084746 L470.621468927,219.88700565 L472.994350282,220.677966102 L476.949152542,220.677966102 L479.322033898,219.88700565 L482.485875706,221.468926554 L485.649717514,221.468926554 L488.02259887,223.84180791 L488.813559322,223.84180791 L494.350282486,223.050847458 L502.259887006,219.88700565 L506.214689266,219.88700565 L509.378531073,223.84180791 L508.587570621,226.214689266 L510.169491525,226.214689266 L512.542372881,226.214689266 L517.288135593,223.84180791 L519.661016949,224.632768362 L521.242937853,223.84180791 L521.242937853,221.468926554 L525.197740113,219.88700565 L526.779661017,219.88700565 L530.734463277,218.305084746 L534.689265537,219.88700565 L534.689265537,221.468926554 L538.644067797,224.632768362 L539.435028249,227.796610169 L541.807909605,231.751412429 L541.807909605,237.288135593 L544.18079096,238.870056497 L545.762711864,241.242937853 L542.598870056,241.242937853 L541.807909605,244.406779661 L539.435028249,246.779661017 L541.807909605,248.361581921 L544.18079096,247.570621469 L545.762711864,245.988700565 L546.553672316,247.570621469 L551.299435028,248.361581921 L553.672316384,249.943502825 L556.04519774,249.943502825 L559.209039548,250.734463277 L556.04519774,252.316384181 L555.254237288,254.689265537 L558.418079096,257.062146893 L559.209039548,257.853107345 L560.790960452,258.644067797 L563.163841808,260.225988701 L566.327683616,260.225988701 L569.491525424,261.807909605 L570.282485876,263.389830508 L568.700564972,265.762711864 L563.163841808,264.971751412 L560.0,266.553672316 L553.672316384,264.971751412 L551.299435028,264.18079096 L551.299435028,264.18079096 L540.225988701,263.389830508 L540.225988701,256.271186441 L529.943502825,256.271186441 L529.152542373,249.152542373 L503.84180791,249.152542373 L463.502824859,249.152542373 L463.502824859,241.242937853 L453.220338983,241.242937853 L453.220338983,218.305084746 L452.429378531,196.15819209 M571.86440678,264.971751412 L573.446327684,261.807909605 L575.028248588,260.225988701 L575.81920904,261.807909605 L578.192090395,264.18079096 L580.564971751,262.598870056 L582.146892655,260.225988701 L584.519774011,260.225988701 L586.101694915,259.435028249 L587.683615819,259.435028249 L590.056497175,257.853107345 L590.056497175,256.271186441 L586.892655367,255.480225989 L585.310734463,254.689265537 L586.101694915,253.898305085 L594.011299435,253.898305085 L597.175141243,254.689265537 L600.338983051,257.062146893 L601.129943503,261.016949153 L605.875706215,262.598870056 L607.457627119,264.18079096 L605.084745763,265.762711864 L602.711864407,269.717514124 L601.920903955,269.717514124 L596.384180791,268.926553672 L594.011299435,268.13559322 L591.638418079,267.344632768 L586.101694915,268.13559322 L583.728813559,268.13559322 L582.146892655,266.553672316 L579.774011299,268.13559322 L578.192090395,268.13559322 L578.192090395,265.762711864 L575.028248588,266.553672316 L575.028248588,264.971751412 L571.86440678,264.971751412 M536.271186441,220.677966102 L537.062146893,219.88700565 L539.435028249,219.096045198 L542.598870056,215.93220339 L545.762711864,216.723163842 L548.926553672,215.93220339 L549.717514124,218.305084746 L548.13559322,219.88700565 L548.13559322,221.468926554 L546.553672316,222.259887006 L544.18079096,225.423728814 L544.18079096,226.214689266 L548.13559322,228.587570621 L548.13559322,230.169491525 L549.717514124,231.751412429 L551.299435028,234.124293785 L545.762711864,233.333333333 L544.971751412,230.169491525 L541.016949153,228.587570621 L540.225988701,223.84180791 L537.062146893,222.259887006 L536.271186441,220.677966102 M542.598870056,237.288135593 L542.598870056,234.124293785 L545.762711864,234.124293785 L549.717514124,234.915254237 L550.508474576,238.870056497 L552.09039548,239.661016949 L550.508474576,242.824858757 L548.13559322,242.824858757 L545.762711864,241.242937853 L545.762711864,239.661016949 L542.598870056,237.288135593 Z" fill="#cee3f5" id="US.MI.033" stroke="#6e6e6e" stroke-width="0.4"><desc><name>Chippewa County</name><stateAbbrev>MI</stateAbbrev><state>Michigan</state><fips>033</fips><incits>26033</incits><id>US.MI.033</id><population>38696</population></desc></path><path d="M266.553672316,264.18079096 L277.627118644,264.18079096 L277.627118644,249.152542373 L288.700564972,248.361581921 L310.056497175,249.152542373 L332.203389831,248.361581921 L343.276836158,248.361581921 L343.276836158,272.09039548 L345.649717514,272.09039548 L345.649717514,283.95480226 L344.06779661,284.745762712 L342.485875706,283.95480226 L339.322033898,284.745762712 L340.11299435,287.90960452 L336.15819209,287.118644068 L335.367231638,288.700564972 L335.367231638,290.282485876 L334.576271186,291.86440678 L331.412429379,292.655367232 L332.203389831,295.81920904 L329.830508475,295.81920904 L326.666666667,294.237288136 L323.502824859,291.86440678 L323.502824859,290.282485876 L325.875706215,290.282485876 L328.248587571,288.700564972 L327.457627119,287.118644068 L332.203389831,284.745762712 L330.621468927,283.163841808 L331.412429379,281.581920904 L335.367231638,281.581920904 L336.15819209,280.0 L337.740112994,279.209039548 L337.740112994,277.627118644 L340.11299435,275.254237288 L339.322033898,272.881355932 L336.15819209,271.299435028 L332.994350282,273.672316384 L330.621468927,274.463276836 L330.621468927,276.04519774 L328.248587571,276.836158192 L322.711864407,276.04519774 L320.338983051,274.463276836 L317.966101695,275.254237288 L318.757062147,279.209039548 L317.175141243,280.790960452 L315.593220339,280.790960452 L315.593220339,282.372881356 L312.429378531,285.536723164 L313.220338983,287.118644068 L310.056497175,287.90960452 L307.683615819,287.90960452 L303.728813559,288.700564972 L302.146892655,290.282485876 L300.564971751,287.90960452 L301.355932203,283.95480226 L299.774011299,279.209039548 L298.983050847,278.418079096 L300.564971751,276.04519774 L303.728813559,273.672316384 L303.728813559,271.299435028 L300.564971751,271.299435028 L298.983050847,272.881355932 L296.610169492,275.254237288 L298.983050847,276.04519774 L295.81920904,276.836158192 L294.237288136,279.209039548 L293.446327684,283.95480226 L295.028248588,284.745762712 L292.655367232,287.118644068 L293.446327684,287.90960452 L290.282485876,288.700564972 L290.282485876,290.282485876 L287.90960452,290.282485876 L283.95480226,291.86440678 L283.163841808,293.446327684 L281.581920904,294.237288136 L277.627118644,299.774011299 L276.04519774,302.146892655 L269.717514124,302.146892655 L270.508474576,271.299435028 L266.553672316,271.299435028 L266.553672316,264.18079096 M328.248587571,299.774011299 L329.039548023,298.983050847 L332.203389831,300.564971751 L331.412429379,302.146892655 L329.830508475,302.146892655 L328.248587571,299.774011299 Z" fill="#cee3f5" id="US.MI.041" stroke="#6e6e6e" stroke-width="0.4"><desc><name>Delta County</name><stateAbbrev>MI</stateAbbrev><state>Michigan</state><fips>041</fips><incits>26041</incits><id>US.MI.041</id><population>36905</population></desc></path><path d="M166.892655367,150.282485876 L185.084745763,150.282485876 L185.084745763,157.401129944 L191.412429379,157.401129944 L190.621468927,159.774011299 L190.621468927,162.146892655 L187.457627119,162.146892655 L185.875706215,163.728813559 L185.084745763,166.892655367 L181.129943503,168.474576271 L179.548022599,173.220338983 L175.593220339,176.384180791 L174.802259887,177.175141243 L171.638418079,174.011299435 L170.056497175,173.220338983 L170.056497175,170.056497175 L170.847457627,169.265536723 L174.802259887,166.892655367 L176.384180791,165.310734463 L175.593220339,161.355932203 L177.175141243,159.774011299 L175.593220339,158.983050847 L172.429378531,161.355932203 L175.593220339,162.146892655 L175.593220339,164.519774011 L173.220338983,166.892655367 L168.474576271,167.683615819 L167.683615819,165.310734463 L163.728813559,164.519774011 L159.774011299,164.519774011 L157.401129944,163.728813559 L155.81920904,159.774011299 L157.401129944,158.192090395 L157.401129944,156.610169492 L156.610169492,155.028248588 L158.192090395,154.237288136 L160.564971751,153.446327684 L166.892655367,150.282485876 M129.717514124,172.429378531 L131.299435028,170.056497175 L132.09039548,167.683615819 L133.672316384,166.101694915 L138.418079096,164.519774011 L140.0,162.937853107 L142.372881356,162.146892655 L143.95480226,162.146892655 L148.700564972,158.192090395 L152.655367232,155.81920904 L155.81920904,155.028248588 L157.401129944,155.81920904 L157.401129944,157.401129944 L155.028248588,159.774011299 L156.610169492,163.728813559 L159.774011299,164.519774011 L163.728813559,164.519774011 L166.892655367,165.310734463 L166.101694915,171.638418079 L169.265536723,172.429378531 L170.847457627,174.011299435 L173.220338983,175.593220339 L171.638418079,180.338983051 L162.937853107,180.338983051 L162.937853107,188.248587571 L151.86440678,188.248587571 L151.86440678,195.367231638 L151.86440678,211.186440678 L151.86440678,226.214689266 L124.971751412,226.214689266 L124.971751412,203.276836158 L136.04519774,203.276836158 L136.04519774,195.367231638 L129.717514124,195.367231638 L129.717514124,172.429378531 Z" fill="#cee3f5" id="US.MI.061" stroke="#6e6e6e" stroke-width="0.4"><desc><name>Houghton County</name><stateAbbrev>MI</stateAbbrev><state>Michigan</state><fips>061</fips><incits>26061</incits><id>US.MI.061</id><population>36225</population></desc></path><path d="M397.853107345,241.242937853 L398.644067797,218.305084746 L398.644067797,202.485875706 L407.344632768,203.276836158 L415.254237288,203.276836158 L423.163841808,203.276836158 L429.491525424,203.276836158 L442.937853107,199.322033898 L446.892655367,197.740112994 L452.429378531,196.15819209 L453.220338983,218.305084746 L453.220338983,241.242937853 L420.0,241.242937853 L397.853107345,241.242937853 Z" fill="#cee3f5" id="US.MI.095" stroke="#6e6e6e" stroke-width="0.4"><desc><name>Luce County</name><stateAbbrev>MI</stateAbbrev><state>Michigan</state><fips>095</fips><incits>26095</incits><id>US.MI.095</id><population>6502</population></desc></path><path d="M397.853107345,241.242937853 L420.0,241.242937853 L453.220338983,241.242937853 L463.502824859,241.242937853 L463.502824859,249.152542373 L503.84180791,249.152542373 L529.152542373,249.152542373 L529.943502825,256.271186441 L540.225988701,256.271186441 L540.225988701,263.389830508 L551.299435028,264.18079096 L551.299435028,264.18079096 L547.344632768,264.18079096 L544.18079096,264.971751412 L542.598870056,264.18079096 L541.016949153,264.971751412 L537.853107345,263.389830508 L535.480225989,264.18079096 L532.316384181,262.598870056 L529.943502825,262.598870056 L529.943502825,264.971751412 L526.779661017,263.389830508 L522.824858757,261.807909605 L518.870056497,262.598870056 L514.915254237,263.389830508 L513.333333333,260.225988701 L511.751412429,259.435028249 L508.587570621,260.225988701 L504.632768362,257.853107345 L502.259887006,258.644067797 L500.677966102,260.225988701 L501.468926554,261.807909605 L501.468926554,264.971751412 L497.514124294,265.762711864 L496.723163842,267.344632768 L498.305084746,268.926553672 L497.514124294,269.717514124 L498.305084746,274.463276836 L499.88700565,276.04519774 L496.723163842,276.04519774 L495.141242938,276.836158192 L491.97740113,274.463276836 L489.604519774,274.463276836 L488.02259887,272.881355932 L488.02259887,271.299435028 L485.649717514,270.508474576 L483.276836158,268.926553672 L480.903954802,268.926553672 L478.531073446,265.762711864 L473.785310734,261.807909605 L469.830508475,261.016949153 L465.084745763,260.225988701 L461.129943503,257.853107345 L456.384180791,257.853107345 L455.593220339,257.853107345 L450.847457627,257.062146893 L445.310734463,254.689265537 L442.146892655,254.689265537 L436.610169492,253.898305085 L434.237288136,254.689265537 L431.86440678,253.898305085 L427.90960452,254.689265537 L423.95480226,257.062146893 L421.581920904,260.225988701 L418.418079096,263.389830508 L417.627118644,264.18079096 L416.04519774,265.762711864 L408.926553672,265.762711864 L402.598870056,264.18079096 L400.225988701,265.762711864 L397.853107345,265.762711864 L397.853107345,241.242937853 M509.378531073,279.209039548 L510.960451977,278.418079096 L513.333333333,279.209039548 L517.288135593,279.209039548 L523.615819209,281.581920904 L525.988700565,280.790960452 L529.943502825,282.372881356 L529.152542373,284.745762712 L524.406779661,287.118644068 L518.079096045,285.536723164 L513.333333333,280.790960452 L509.378531073,279.209039548 M504.632768362,274.463276836 L506.214689266,272.881355932 L507.796610169,274.463276836 L507.005649718,276.04519774 L504.632768362,274.463276836 M522.824858757,265.762711864 L524.406779661,266.553672316 L525.197740113,264.18079096 L527.570621469,263.389830508 L530.734463277,267.344632768 L529.943502825,268.13559322 L525.988700565,267.344632768 L522.824858757,265.762711864 Z" fill="#cee3f5" id="US.MI.097" stroke="#6e6e6e" stroke-width="0.4"><desc><name>Mackinac County</name><stateAbbrev>MI</stateAbbrev><state>Michigan</state><fips>097</fips><incits>26097</incits><id>US.MI.097</id><population>11061</population></desc></path><path d="M332.203389831,248.361581921 L332.203389831,233.333333333 L354.350282486,233.333333333 L354.350282486,218.305084746 L365.423728814,218.305084746 L398.644067797,218.305084746 L397.853107345,241.242937853 L397.853107345,265.762711864 L395.480225989,265.762711864 L393.107344633,266.553672316 L393.107344633,269.717514124 L390.734463277,268.13559322 L385.197740113,266.553672316 L381.242937853,265.762711864 L375.706214689,265.762711864 L371.751412429,266.553672316 L368.587570621,265.762711864 L366.214689266,267.344632768 L362.259887006,267.344632768 L362.259887006,268.13559322 L359.096045198,269.717514124 L356.723163842,274.463276836 L357.514124294,275.254237288 L355.93220339,276.836158192 L355.93220339,278.418079096 L353.559322034,280.790960452 L351.97740113,280.790960452 L350.395480226,280.790960452 L348.02259887,283.95480226 L345.649717514,283.95480226 L345.649717514,272.09039548 L343.276836158,272.09039548 L343.276836158,248.361581921 L332.203389831,248.361581921 Z" fill="#cee3f5" id="US.MI.153" stroke="#6e6e6e" stroke-width="0.4"><desc><name>Schoolcraft County</name><stateAbbrev>MI</stateAbbrev><state>Michigan</state><fips>153</fips><incits>26153</incits><id>US.MI.153</id><population>8247</population></desc></path><path d="M571.073446328,362.259887006 L579.774011299,362.259887006 L602.711864407,362.259887006 L620.903954802,362.259887006 L622.485875706,364.632768362 L623.276836158,367.005649718 L622.485875706,370.960451977 L623.276836158,373.333333333 L624.858757062,374.915254237 L623.276836158,380.451977401 L622.485875706,382.033898305 L620.903954802,385.197740113 L621.694915254,389.943502825 L620.903954802,393.107344633 L594.011299435,393.107344633 L571.073446328,393.107344633 L571.073446328,378.079096045 L571.073446328,362.259887006 Z" fill="#cee3f5" id="US.MI.001" stroke="#6e6e6e" stroke-width="0.4"><desc><name>Alcona County</name><stateAbbrev>MI</stateAbbrev><state>Michigan</state><fips>001</fips><incits>26001</incits><id>US.MI.001</id><population>10578</population></desc></path><path d="M362.259887006,575.81920904 L363.050847458,574.237288136 L364.632768362,569.491525424 L365.423728814,565.536723164 L367.005649718,560.0 L366.214689266,556.836158192 L367.005649718,554.463276836 L368.587570621,550.508474576 L367.796610169,544.971751412 L387.570621469,544.971751412 L394.689265537,544.971751412 L405.762711864,544.971751412 L426.327683616,544.971751412 L426.327683616,560.790960452 L426.327683616,575.81920904 L407.344632768,575.81920904 L386.779661017,575.81920904 L362.259887006,575.81920904 Z" fill="#cee3f5" id="US.MI.005" stroke="#6e6e6e" stroke-width="0.4"><desc><name>Allegan County</name><stateAbbrev>MI</stateAbbrev><state>Michigan</state><fips>005</fips><incits>26005</incits><id>US.MI.005</id><population>112531</population></desc></path><path d="M571.073446328,362.259887006 L571.073446328,354.350282486 L571.073446328,347.231638418 L571.86440678,347.231638418 L571.86440678,332.203389831 L593.220338983,332.203389831 L603.502824859,332.203389831 L614.576271186,332.203389831 L616.15819209,333.785310734 L616.949152542,334.576271186 L618.531073446,336.15819209 L621.694915254,339.322033898 L620.903954802,339.322033898 L622.485875706,341.694915254 L621.694915254,343.276836158 L622.485875706,345.649717514 L624.06779661,345.649717514 L625.649717514,348.02259887 L618.531073446,346.440677966 L615.367231638,343.276836158 L610.621468927,344.858757062 L609.830508475,346.440677966 L609.039548023,348.02259887 L610.621468927,348.813559322 L609.039548023,350.395480226 L609.830508475,353.559322034 L611.412429379,355.93220339 L613.785310734,358.305084746 L617.740112994,359.88700565 L621.694915254,360.677966102 L620.903954802,362.259887006 L602.711864407,362.259887006 L579.774011299,362.259887006 L571.073446328,362.259887006 Z" fill="#cee3f5" id="US.MI.007" stroke="#6e6e6e" stroke-width="0.4"><desc><name>Alpena County</name><stateAbbrev>MI</stateAbbrev><state>Michigan</state><fips>007</fips><incits>26007</incits><id>US.MI.007</id><population>29091</population></desc></path><path d="M439.774011299,332.203389831 L454.011299435,332.203389831 L454.011299435,340.11299435 L475.367231638,339.322033898 L485.649717514,340.11299435 L486.440677966,347.231638418 L487.231638418,347.231638418 L487.231638418,355.141242938 L487.231638418,358.305084746 L487.231638418,362.259887006 L465.875706215,362.259887006 L448.474576271,362.259887006 L445.310734463,362.259887006 L445.310734463,363.050847458 L446.101694915,363.84180791 L446.101694915,366.214689266 L444.519774011,366.214689266 L442.146892655,365.423728814 L440.564971751,362.259887006 L435.028248588,362.259887006 L438.192090395,358.305084746 L440.564971751,352.768361582 L441.355932203,349.604519774 L440.564971751,345.649717514 L442.146892655,344.06779661 L442.146892655,340.11299435 L441.355932203,339.322033898 L440.564971751,334.576271186 L439.774011299,332.203389831 Z" fill="#cee3f5" id="US.MI.009" stroke="#6e6e6e" stroke-width="0.4"><desc><name>Antrim County</name><stateAbbrev>MI</stateAbbrev><state>Michigan</state><fips>009</fips><incits>26009</incits><id>US.MI.009</id><population>23370</population></desc></path><path d="M426.327683616,544.971751412 L446.892655367,544.971751412 L467.457627119,544.971751412 L467.457627119,575.81920904 L447.683615819,575.81920904 L426.327683616,575.81920904 L426.327683616,560.790960452 L426.327683616,544.971751412 Z" fill="#cee3f5" id="US.MI.015" stroke="#6e6e6e" stroke-width="0.4"><desc><name>Barry County</name><stateAbbrev>MI</stateAbbrev><state>Michigan</state><fips>015</fips><incits>26015</incits><id>US.MI.015</id><population>59097</population></desc></path><path d="M379.661016949,369.378531073 L402.598870056,370.169491525 L401.807909605,393.107344633 L381.242937853,392.316384181 L366.214689266,392.316384181 L367.005649718,387.570621469 L366.214689266,384.406779661 L363.84180791,379.661016949 L363.84180791,377.288135593 L365.423728814,375.706214689 L370.960451977,374.915254237 L372.542372881,373.333333333 L377.288135593,373.333333333 L378.870056497,372.542372881 L379.661016949,369.378531073 Z" fill="#cee3f5" id="US.MI.019" stroke="#6e6e6e" stroke-width="0.4"><desc><name>Benzie County</name><stateAbbrev>MI</stateAbbrev><state>Michigan</state><fips>019</fips><incits>26019</incits><id>US.MI.019</id><population>17428</population></desc></path><path d="M447.683615819,575.81920904 L467.457627119,575.81920904 L477.740112994,575.81920904 L498.305084746,575.81920904 L498.305084746,590.847457627 L499.096045198,606.666666667 L488.813559322,605.875706215 L458.757062147,605.875706215 L448.474576271,605.875706215 L447.683615819,588.474576271 L447.683615819,575.81920904 Z" fill="#cee3f5" id="US.MI.025" stroke="#6e6e6e" stroke-width="0.4"><desc><name>Calhoun County</name><stateAbbrev>MI</stateAbbrev><state>Michigan</state><fips>025</fips><incits>26025</incits><id>US.MI.025</id><population>135012</population></desc></path><path d="M418.418079096,298.192090395 L420.0,295.028248588 L420.790960452,294.237288136 L420.790960452,290.282485876 L423.95480226,287.90960452 L424.745762712,285.536723164 L426.327683616,283.95480226 L430.282485876,283.95480226 L428.700564972,285.536723164 L430.282485876,286.327683616 L431.073446328,288.700564972 L429.491525424,291.073446328 L431.073446328,293.446327684 L431.073446328,295.81920904 L431.073446328,296.610169492 L427.90960452,298.192090395 L427.118644068,299.774011299 L424.745762712,299.774011299 L422.372881356,298.983050847 L420.0,298.983050847 L418.418079096,298.192090395 M427.118644068,280.0 L427.118644068,278.418079096 L428.700564972,277.627118644 L431.86440678,279.209039548 L433.446327684,280.790960452 L431.073446328,281.581920904 L430.282485876,280.790960452 L427.118644068,280.0 M436.610169492,281.581920904 L438.983050847,282.372881356 L440.564971751,280.790960452 L440.564971751,279.209039548 L442.937853107,280.0 L442.937853107,282.372881356 L441.355932203,283.163841808 L436.610169492,281.581920904 M465.084745763,317.966101695 L465.084745763,320.338983051 L469.830508475,321.129943503 L472.203389831,324.293785311 L472.994350282,325.875706215 L476.15819209,326.666666667 L476.15819209,324.293785311 L497.514124294,325.084745763 L496.723163842,332.203389831 L496.723163842,340.11299435 L485.649717514,340.11299435 L475.367231638,339.322033898 L454.011299435,340.11299435 L454.011299435,332.203389831 L439.774011299,332.203389831 L439.774011299,329.830508475 L441.355932203,326.666666667 L443.728813559,325.084745763 L445.310734463,323.502824859 L450.056497175,322.711864407 L456.384180791,318.757062147 L457.966101695,318.757062147 L461.920903955,317.175141243 L465.084745763,317.966101695 M412.09039548,285.536723164 L414.463276836,284.745762712 L416.836158192,285.536723164 L416.836158192,287.118644068 L415.254237288,288.700564972 L412.881355932,289.491525424 L413.672316384,287.118644068 L412.09039548,285.536723164 Z" fill="#cee3f5" id="US.MI.029" stroke="#6e6e6e" stroke-width="0.4"><desc><name>Charlevoix County</name><stateAbbrev>MI</stateAbbrev><state>Michigan</state><fips>029</fips><incits>26029</incits><id>US.MI.029</id><population>26129</population></desc></path><path d="M496.723163842,332.203389831 L497.514124294,325.084745763 L497.514124294,302.146892655 L497.514124294,280.790960452 L498.305084746,282.372881356 L504.632768362,285.536723164 L506.214689266,285.536723164 L510.960451977,287.90960452 L518.079096045,291.073446328 L518.870056497,291.86440678 L523.615819209,293.446327684 L525.197740113,291.86440678 L528.361581921,292.655367232 L532.316384181,291.86440678 L539.435028249,294.237288136 L539.435028249,312.429378531 L539.435028249,325.084745763 L539.435028249,332.994350282 L529.152542373,332.994350282 L507.796610169,332.203389831 L496.723163842,332.203389831 Z" fill="#cee3f5" id="US.MI.031" stroke="#6e6e6e" stroke-width="0.4"><desc><name>Cheboygan County</name><stateAbbrev>MI</stateAbbrev><state>Michigan</state><fips>031</fips><incits>26031</incits><id>US.MI.031</id><population>25726</population></desc></path><path d="M466.666666667,423.163841808 L486.440677966,423.163841808 L507.796610169,423.95480226 L508.587570621,431.073446328 L507.796610169,454.011299435 L497.514124294,454.011299435 L476.15819209,454.011299435 L465.875706215,454.011299435 L465.875706215,438.983050847 L466.666666667,423.163841808 Z" fill="#cee3f5" id="US.MI.035" stroke="#6e6e6e" stroke-width="0.4"><desc><name>Clare County</name><stateAbbrev>MI</stateAbbrev><state>Michigan</state><fips>035</fips><incits>26035</incits><id>US.MI.035</id><population>30569</population></desc></path><path d="M497.514124294,280.790960452 L497.514124294,302.146892655 L497.514124294,325.084745763 L476.15819209,324.293785311 L476.15819209,326.666666667 L472.994350282,325.875706215 L472.203389831,324.293785311 L469.830508475,321.129943503 L465.084745763,320.338983051 L465.084745763,317.966101695 L470.621468927,318.757062147 L472.994350282,317.966101695 L474.576271186,317.966101695 L476.949152542,317.175141243 L480.903954802,315.593220339 L480.903954802,313.220338983 L477.740112994,312.429378531 L473.785310734,312.429378531 L470.621468927,311.638418079 L468.248587571,310.847457627 L465.875706215,308.474576271 L463.502824859,302.937853107 L463.502824859,299.774011299 L465.875706215,297.401129944 L468.248587571,294.237288136 L472.203389831,292.655367232 L474.576271186,290.282485876 L476.15819209,290.282485876 L478.531073446,287.90960452 L479.322033898,286.327683616 L476.949152542,283.95480226 L479.322033898,283.95480226 L481.694915254,284.745762712 L484.06779661,283.95480226 L487.231638418,284.745762712 L488.813559322,283.95480226 L491.97740113,284.745762712 L493.559322034,280.790960452 L495.93220339,281.581920904 L497.514124294,280.790960452 M466.666666667,283.163841808 L471.412429379,283.163841808 L471.412429379,283.95480226 L466.666666667,283.163841808 Z" fill="#cee3f5" id="US.MI.047" stroke="#6e6e6e" stroke-width="0.4"><desc><name>Emmet County</name><stateAbbrev>MI</stateAbbrev><state>Michigan</state><fips>047</fips><incits>26047</incits><id>US.MI.047</id><population>33140</population></desc></path><path d="M487.231638418,484.06779661 L507.796610169,484.06779661 L529.152542373,484.06779661 L529.152542373,513.333333333 L529.152542373,514.915254237 L488.02259887,514.124293785 L488.02259887,499.096045198 L487.231638418,499.096045198 L487.231638418,484.06779661 Z" fill="#cee3f5" id="US.MI.057" stroke="#6e6e6e" stroke-width="0.4"><desc><name>Gratiot County</name><stateAbbrev>MI</stateAbbrev><state>Michigan</state><fips>057</fips><incits>26057</incits><id>US.MI.057</id><population>41968</population></desc></path><path d="M446.892655367,514.915254237 L467.457627119,514.124293785 L488.02259887,514.124293785 L488.02259887,529.943502825 L488.02259887,537.853107345 L488.02259887,544.971751412 L467.457627119,544.971751412 L446.892655367,544.971751412 L446.892655367,537.853107345 L446.101694915,529.943502825 L446.892655367,514.915254237 Z" fill="#cee3f5" id="US.MI.067" stroke="#6e6e6e" stroke-width="0.4"><desc><name>Ionia County</name><stateAbbrev>MI</stateAbbrev><state>Michigan</state><fips>067</fips><incits>26067</incits><id>US.MI.067</id><population>64073</population></desc></path><path d="M465.875706215,454.011299435 L476.15819209,454.011299435 L497.514124294,454.011299435 L507.796610169,454.011299435 L508.587570621,469.039548023 L507.796610169,484.06779661 L487.231638418,484.06779661 L466.666666667,484.06779661 L466.666666667,476.949152542 L465.875706215,461.129943503 L465.875706215,454.011299435 Z" fill="#cee3f5" id="US.MI.073" stroke="#6e6e6e" stroke-width="0.4"><desc><name>Isabella County</name><stateAbbrev>MI</stateAbbrev><state>Michigan</state><fips>073</fips><incits>26073</incits><id>US.MI.073</id><population>70436</population></desc></path><path d="M407.344632768,575.81920904 L426.327683616,575.81920904 L447.683615819,575.81920904 L447.683615819,588.474576271 L448.474576271,605.875706215 L427.118644068,605.875706215 L407.344632768,606.666666667 L406.553672316,598.757062147 L407.344632768,575.81920904 Z" fill="#cee3f5" id="US.MI.077" stroke="#6e6e6e" stroke-width="0.4"><desc><name>Kalamazoo County</name><stateAbbrev>MI</stateAbbrev><state>Michigan</state><fips>077</fips><incits>26077</incits><id>US.MI.077</id><population>256725</population></desc></path><path d="M444.519774011,393.107344633 L444.519774011,366.214689266 L446.101694915,366.214689266 L446.101694915,363.84180791 L445.310734463,363.050847458 L445.310734463,362.259887006 L448.474576271,362.259887006 L465.875706215,362.259887006 L476.949152542,362.259887006 L487.231638418,362.259887006 L487.231638418,370.169491525 L487.231638418,385.197740113 L486.440677966,393.107344633 L476.15819209,393.107344633 L444.519774011,393.107344633 Z" fill="#cee3f5" id="US.MI.079" stroke="#6e6e6e" stroke-width="0.4"><desc><name>Kalkaska County</name><stateAbbrev>MI</stateAbbrev><state>Michigan</state><fips>079</fips><incits>26079</incits><id>US.MI.079</id><population>17196</population></desc></path><path d="M404.971751412,507.005649718 L404.971751412,499.096045198 L424.745762712,499.096045198 L446.892655367,499.096045198 L446.892655367,514.915254237 L446.101694915,529.943502825 L446.892655367,537.853107345 L446.892655367,544.971751412 L426.327683616,544.971751412 L405.762711864,544.971751412 L405.762711864,532.316384181 L404.971751412,522.033898305 L404.971751412,507.005649718 Z" fill="#cee3f5" id="US.MI.081" stroke="#6e6e6e" stroke-width="0.4"><desc><name>Kent County</name><stateAbbrev>MI</stateAbbrev><state>Michigan</state><fips>081</fips><incits>26081</incits><id>US.MI.081</id><population>621700</population></desc></path><path d="M382.824858757,423.163841808 L391.525423729,423.163841808 L401.807909605,423.163841808 L424.745762712,423.163841808 L424.745762712,438.983050847 L424.745762712,454.011299435 L413.672316384,454.011299435 L382.824858757,454.011299435 L382.824858757,446.101694915 L382.824858757,423.163841808 Z" fill="#cee3f5" id="US.MI.085" stroke="#6e6e6e" stroke-width="0.4"><desc><name>Lake County</name><stateAbbrev>MI</stateAbbrev><state>Michigan</state><fips>085</fips><incits>26085</incits><id>US.MI.085</id><population>11386</population></desc></path><path d="M352.768361582,421.581920904 L355.93220339,417.627118644 L356.723163842,415.254237288 L358.305084746,414.463276836 L359.88700565,411.299435028 L363.050847458,406.553672316 L364.632768362,401.807909605 L364.632768362,395.480225989 L366.214689266,392.316384181 L381.242937853,392.316384181 L401.807909605,393.107344633 L401.807909605,423.163841808 L391.525423729,423.163841808 L382.824858757,423.163841808 L352.768361582,421.581920904 Z" fill="#cee3f5" id="US.MI.101" stroke="#6e6e6e" stroke-width="0.4"><desc><name>Manistee County</name><stateAbbrev>MI</stateAbbrev><state>Michigan</state><fips>101</fips><incits>26101</incits><id>US.MI.101</id><population>24450</population></desc></path><path d="M352.768361582,421.581920904 L382.824858757,423.163841808 L382.824858757,446.101694915 L382.824858757,454.011299435 L362.259887006,453.220338983 L348.813559322,453.220338983 L348.02259887,450.056497175 L347.231638418,446.892655367 L347.231638418,444.519774011 L345.649717514,442.146892655 L345.649717514,439.774011299 L341.694915254,434.237288136 L341.694915254,432.655367232 L342.485875706,431.073446328 L347.231638418,427.90960452 L348.813559322,427.118644068 L351.186440678,423.95480226 L352.768361582,421.581920904 Z" fill="#cee3f5" id="US.MI.105" stroke="#6e6e6e" stroke-width="0.4"><desc><name>Mason County</name><stateAbbrev>MI</stateAbbrev><state>Michigan</state><fips>105</fips><incits>26105</incits><id>US.MI.105</id><population>28605</population></desc></path><path d="M424.745762712,454.011299435 L445.310734463,454.011299435 L455.593220339,454.011299435 L465.875706215,454.011299435 L465.875706215,461.129943503 L466.666666667,476.949152542 L466.666666667,484.06779661 L435.028248588,484.06779661 L424.745762712,484.06779661 L424.745762712,469.039548023 L424.745762712,454.011299435 Z" fill="#cee3f5" id="US.MI.107" stroke="#6e6e6e" stroke-width="0.4"><desc><name>Mecosta County</name><stateAbbrev>MI</stateAbbrev><state>Michigan</state><fips>107</fips><incits>26107</incits><id>US.MI.107</id><population>43108</population></desc></path><path d="M507.796610169,484.06779661 L508.587570621,469.039548023 L507.796610169,454.011299435 L529.152542373,454.011299435 L529.152542373,452.429378531 L546.553672316,452.429378531 L546.553672316,464.293785311 L546.553672316,475.367231638 L546.553672316,482.485875706 L529.152542373,482.485875706 L529.152542373,484.06779661 L507.796610169,484.06779661 Z" fill="#cee3f5" id="US.MI.111" stroke="#6e6e6e" stroke-width="0.4"><desc><name>Midland County</name><stateAbbrev>MI</stateAbbrev><state>Michigan</state><fips>111</fips><incits>26111</incits><id>US.MI.111</id><population>83919</population></desc></path><path d="M444.519774011,393.107344633 L476.15819209,393.107344633 L486.440677966,393.107344633 L486.440677966,416.04519774 L486.440677966,423.163841808 L466.666666667,423.163841808 L444.519774011,423.163841808 L444.519774011,415.254237288 L444.519774011,400.225988701 L444.519774011,393.107344633 Z" fill="#cee3f5" id="US.MI.113" stroke="#6e6e6e" stroke-width="0.4"><desc><name>Missaukee County</name><stateAbbrev>MI</stateAbbrev><state>Michigan</state><fips>113</fips><incits>26113</incits><id>US.MI.113</id><population>15051</population></desc></path><path d="M424.745762712,484.06779661 L435.028248588,484.06779661 L466.666666667,484.06779661 L487.231638418,484.06779661 L487.231638418,499.096045198 L488.02259887,499.096045198 L488.02259887,514.124293785 L467.457627119,514.124293785 L446.892655367,514.915254237 L446.892655367,499.096045198 L424.745762712,499.096045198 L424.745762712,484.06779661 Z" fill="#cee3f5" id="US.MI.117" stroke="#6e6e6e" stroke-width="0.4"><desc><name>Montcalm County</name><stateAbbrev>MI</stateAbbrev><state>Michigan</state><fips>117</fips><incits>26117</incits><id>US.MI.117</id><population>63105</population></desc></path><path d="M528.361581921,362.259887006 L529.152542373,332.994350282 L539.435028249,332.994350282 L560.790960452,332.994350282 L571.86440678,332.203389831 L571.86440678,347.231638418 L571.073446328,347.231638418 L571.073446328,354.350282486 L571.073446328,362.259887006 L549.717514124,363.050847458 L528.361581921,362.259887006 Z" fill="#cee3f5" id="US.MI.119" stroke="#6e6e6e" stroke-width="0.4"><desc><name>Montmorency County</name><stateAbbrev>MI</stateAbbrev><state>Michigan</state><fips>119</fips><incits>26119</incits><id>US.MI.119</id><population>9350</population></desc></path><path d="M345.649717514,484.06779661 L351.97740113,483.276836158 L365.423728814,484.06779661 L382.824858757,484.06779661 L382.824858757,499.096045198 L394.689265537,499.88700565 L404.971751412,499.096045198 L404.971751412,507.005649718 L394.689265537,507.005649718 L394.689265537,514.915254237 L372.542372881,514.915254237 L362.259887006,514.915254237 L358.305084746,507.005649718 L351.186440678,496.723163842 L349.604519774,492.768361582 L347.231638418,487.231638418 L345.649717514,484.06779661 Z" fill="#cee3f5" id="US.MI.121" stroke="#6e6e6e" stroke-width="0.4"><desc><name>Muskegon County</name><stateAbbrev>MI</stateAbbrev><state>Michigan</state><fips>121</fips><incits>26121</incits><id>US.MI.121</id><population>171008</population></desc></path><path d="M382.824858757,454.011299435 L413.672316384,454.011299435 L424.745762712,454.011299435 L424.745762712,469.039548023 L424.745762712,484.06779661 L424.745762712,499.096045198 L404.971751412,499.096045198 L394.689265537,499.88700565 L382.824858757,499.096045198 L382.824858757,484.06779661 L382.824858757,476.949152542 L382.824858757,469.039548023 L382.824858757,454.011299435 Z" fill="#cee3f5" id="US.MI.123" stroke="#6e6e6e" stroke-width="0.4"><desc><name>Newaygo County</name><stateAbbrev>MI</stateAbbrev><state>Michigan</state><fips>123</fips><incits>26123</incits><id>US.MI.123</id><population>48001</population></desc></path><path d="M348.813559322,453.220338983 L362.259887006,453.220338983 L382.824858757,454.011299435 L382.824858757,469.039548023 L382.824858757,476.949152542 L382.824858757,484.06779661 L365.423728814,484.06779661 L351.97740113,483.276836158 L345.649717514,484.06779661 L344.858757062,480.903954802 L340.11299435,473.785310734 L339.322033898,469.830508475 L339.322033898,466.666666667 L341.694915254,463.502824859 L345.649717514,459.548022599 L348.02259887,455.593220339 L348.813559322,453.220338983 Z" fill="#cee3f5" id="US.MI.127" stroke="#6e6e6e" stroke-width="0.4"><desc><name>Oceana County</name><stateAbbrev>MI</stateAbbrev><state>Michigan</state><fips>127</fips><incits>26127</incits><id>US.MI.127</id><population>26245</population></desc></path><path d="M528.361581921,393.107344633 L539.435028249,393.107344633 L560.790960452,393.107344633 L571.073446328,393.107344633 L571.86440678,403.389830508 L571.86440678,423.163841808 L546.553672316,423.163841808 L529.152542373,423.163841808 L528.361581921,393.107344633 Z" fill="#cee3f5" id="US.MI.129" stroke="#6e6e6e" stroke-width="0.4"><desc><name>Ogemaw County</name><stateAbbrev>MI</stateAbbrev><state>Michigan</state><fips>129</fips><incits>26129</incits><id>US.MI.129</id><population>21234</population></desc></path><path d="M424.745762712,454.011299435 L424.745762712,438.983050847 L424.745762712,423.163841808 L444.519774011,423.163841808 L466.666666667,423.163841808 L465.875706215,438.983050847 L465.875706215,454.011299435 L455.593220339,454.011299435 L445.310734463,454.011299435 L424.745762712,454.011299435 Z" fill="#cee3f5" id="US.MI.133" stroke="#6e6e6e" stroke-width="0.4"><desc><name>Osceola County</name><stateAbbrev>MI</stateAbbrev><state>Michigan</state><fips>133</fips><incits>26133</incits><id>US.MI.133</id><population>23259</population></desc></path><path d="M486.440677966,393.107344633 L487.231638418,385.197740113 L487.231638418,370.169491525 L487.231638418,362.259887006 L498.305084746,362.259887006 L508.587570621,362.259887006 L528.361581921,362.259887006 L528.361581921,393.107344633 L518.870056497,393.107344633 L497.514124294,393.107344633 L486.440677966,393.107344633 Z" fill="#cee3f5" id="US.MI.039" stroke="#6e6e6e" stroke-width="0.4"><desc><name>Crawford County</name><stateAbbrev>MI</stateAbbrev><state>Michigan</state><fips>039</fips><incits>26039</incits><id>US.MI.039</id><population>13904</population></desc></path><path d="M528.361581921,362.259887006 L549.717514124,363.050847458 L571.073446328,362.259887006 L571.073446328,378.079096045 L571.073446328,393.107344633 L560.790960452,393.107344633 L539.435028249,393.107344633 L528.361581921,393.107344633 L528.361581921,362.259887006 Z" fill="#cee3f5" id="US.MI.135" stroke="#6e6e6e" stroke-width="0.4"><desc><name>Oscoda County</name><stateAbbrev>MI</stateAbbrev><state>Michigan</state><fips>135</fips><incits>26135</incits><id>US.MI.135</id><population>8379</population></desc></path><path d="M485.649717514,340.11299435 L496.723163842,340.11299435 L496.723163842,332.203389831 L507.796610169,332.203389831 L529.152542373,332.994350282 L528.361581921,362.259887006 L508.587570621,362.259887006 L498.305084746,362.259887006 L487.231638418,362.259887006 L487.231638418,358.305084746 L487.231638418,355.141242938 L487.231638418,347.231638418 L486.440677966,347.231638418 L485.649717514,340.11299435 Z" fill="#cee3f5" id="US.MI.137" stroke="#6e6e6e" stroke-width="0.4"><desc><name>Otsego County</name><stateAbbrev>MI</stateAbbrev><state>Michigan</state><fips>137</fips><incits>26137</incits><id>US.MI.137</id><population>24129</population></desc></path><path d="M362.259887006,514.915254237 L372.542372881,514.915254237 L394.689265537,514.915254237 L394.689265537,507.005649718 L404.971751412,507.005649718 L404.971751412,522.033898305 L405.762711864,532.316384181 L405.762711864,544.971751412 L394.689265537,544.971751412 L387.570621469,544.971751412 L367.796610169,544.971751412 L367.796610169,537.853107345 L367.005649718,527.570621469 L366.214689266,523.615819209 L364.632768362,519.661016949 L363.84180791,518.079096045 L362.259887006,514.915254237 Z" fill="#cee3f5" id="US.MI.139" stroke="#6e6e6e" stroke-width="0.4"><desc><name>Ottawa County</name><stateAbbrev>MI</stateAbbrev><state>Michigan</state><fips>139</fips><incits>26139</incits><id>US.MI.139</id><population>272701</population></desc></path><path d="M539.435028249,294.237288136 L542.598870056,294.237288136 L546.553672316,298.192090395 L548.926553672,299.774011299 L550.508474576,301.355932203 L550.508474576,304.519774011 L552.881355932,306.101694915 L554.463276836,306.892655367 L560.0,306.892655367 L566.327683616,306.892655367 L569.491525424,307.683615819 L573.446327684,310.847457627 L576.610169492,312.429378531 L581.355932203,314.802259887 L586.101694915,314.011299435 L587.683615819,315.593220339 L590.847457627,316.384180791 L596.384180791,319.548022599 L600.338983051,319.548022599 L601.920903955,318.757062147 L605.875706215,320.338983051 L607.457627119,320.338983051 L610.621468927,323.502824859 L615.367231638,326.666666667 L614.576271186,328.248587571 L612.994350282,329.039548023 L614.576271186,332.203389831 L603.502824859,332.203389831 L593.220338983,332.203389831 L571.86440678,332.203389831 L560.790960452,332.994350282 L539.435028249,332.994350282 L539.435028249,325.084745763 L539.435028249,312.429378531 L539.435028249,294.237288136 Z" fill="#cee3f5" id="US.MI.141" stroke="#6e6e6e" stroke-width="0.4"><desc><name>Presque Isle County</name><stateAbbrev>MI</stateAbbrev><state>Michigan</state><fips>141</fips><incits>26141</incits><id>US.MI.141</id><population>13062</population></desc></path><path d="M486.440677966,423.163841808 L486.440677966,416.04519774 L486.440677966,393.107344633 L497.514124294,393.107344633 L518.870056497,393.107344633 L528.361581921,393.107344633 L529.152542373,423.163841808 L507.796610169,423.95480226 L486.440677966,423.163841808 Z" fill="#cee3f5" id="US.MI.143" stroke="#6e6e6e" stroke-width="0.4"><desc><name>Roscommon County</name><stateAbbrev>MI</stateAbbrev><state>Michigan</state><fips>143</fips><incits>26143</incits><id>US.MI.143</id><population>24014</population></desc></path><path d="M354.350282486,590.847457627 L356.723163842,587.683615819 L359.88700565,581.355932203 L362.259887006,575.81920904 L386.779661017,575.81920904 L407.344632768,575.81920904 L406.553672316,598.757062147 L407.344632768,606.666666667 L386.779661017,606.666666667 L367.005649718,605.875706215 L367.005649718,590.847457627 L354.350282486,590.847457627 Z" fill="#cee3f5" id="US.MI.159" stroke="#6e6e6e" stroke-width="0.4"><desc><name>Van Buren County</name><stateAbbrev>MI</stateAbbrev><state>Michigan</state><fips>159</fips><incits>26159</incits><id>US.MI.159</id><population>75455</population></desc></path><path d="M401.807909605,393.107344633 L423.163841808,393.107344633 L444.519774011,393.107344633 L444.519774011,400.225988701 L444.519774011,415.254237288 L444.519774011,423.163841808 L424.745762712,423.163841808 L401.807909605,423.163841808 L401.807909605,393.107344633 Z" fill="#cee3f5" id="US.MI.165" stroke="#6e6e6e" stroke-width="0.4"><desc><name>Wexford County</name><stateAbbrev>MI</stateAbbrev><state>Michigan</state><fips>165</fips><incits>26165</incits><id>US.MI.165</id><population>32645</population></desc></path></svg>