<?xml version='1.0' encoding='utf-8'?>
<svg height="700" width="700" xmlns="http://www.w3.org/2000/svg"><path d="M501.483468295,615.695486237 L501.476478871,615.700306247 L473.975344255,634.640380829 L424.110498206,685.33083188 L405.739313863,687.567184643 L390.794488511,687.375361606 L376.325947523,689.901477893 L360.334938832,700.0 L337.296392044,660.585254372 L294.082660227,635.926450368 L241.543802032,623.593346015 L210.34178081,621.357397758 L282.77281321,583.070114973 L283.800211876,582.946853807 L283.498154677,579.741091507 L279.993623936,563.958787353 L414.145293073,513.273640383 L436.021633491,520.050607246 L439.46683763,523.502188787 L443.45664217,529.91278455 L447.269958104,555.927831698 L447.935159393,557.777147686 L461.659494494,581.200341339 L464.622588723,587.857652103 L464.56242091,588.844055299 L466.799004247,590.56962148 L470.727666642,591.801515439 L484.0855427,596.97614892 L490.069662523,599.933466756 L501.483468295,615.695486237 Z" fill="#cee3f5" id="BB.CC" stroke="#6e6e6e" stroke-width="0.4"><desc><labelrank>10</labelrank><code_hasc>BB.CC</code_hasc><name>Christ Church</name><admin>Barbados</admin><type_en>Parish</type_en><region /><woe_id>2344730</woe_id><longitude>-59</longitude><woe_name>Christ Church</woe_name><fips>BB01</fips><woe_label>Christ Church, BB, Barbados</woe_label><latitude>13</latitude><iso_a2>BB</iso_a2><postal>CC</postal><type>Parish</type><id>BB.CC</id></desc></path><path d="M337.646472411,240.406032687 L337.568303491,240.422192021 L332.132394323,241.655467077 L302.596851929,255.588925521 L295.52988187,257.43834608 L292.630642079,256.081995049 L291.966243219,255.465484681 L291.18105725,254.232472707 L290.577058326,253.739258322 L289.973059328,253.369345909 L289.127448701,253.246022935 L288.161028427,253.369296162 L286.832195457,253.739153191 L279.523159434,265.452327837 L255.417924691,321.428666833 L244.727159236,307.371549424 L236.391416033,304.288150167 L208.543876798,305.887111953 L196.836394468,244.481951271 L198.240335142,163.967493205 L201.321410739,157.803055422 L203.557687035,147.446254663 L204.946743013,146.953297788 L205.731896769,146.460230639 L206.396228812,146.213743836 L207.000086901,146.460445528 L207.724722159,146.707166787 L208.449280427,147.447086538 L209.898519141,148.187126356 L211.528953309,148.803888602 L213.461342369,149.420695973 L214.608757471,149.420875282 L215.816617851,149.051161006 L216.782899674,148.804708576 L217.869941357,148.681573548 L219.681607387,148.928439465 L220.345898323,148.928536464 L221.130990443,148.80535136 L221.734908229,148.682139307 L222.580335853,148.928857175 L223.908782371,149.915444605 L227.411468392,149.546023694 L232.967645222,147.327338838 L242.933022263,137.711090248 L248.247556263,134.629133121 L251.629413018,133.643056533 L252.776743595,134.259659103 L253.984483234,134.629664941 L254.829912549,134.753041637 L255.614915319,135.369607196 L256.701903083,135.492997355 L258.090853361,135.369812333 L261.955989323,131.917712677 L262.439096214,131.917748276 L262.680633794,132.164365701 L265.941560066,132.904393473 L279.5289926,132.411951502 L283.5218021,130.952137715 L283.536080815,130.982999264 L328.331879444,227.583945851 L337.646472411,240.406032687 Z" fill="#cee3f5" id="BB.AN" stroke="#6e6e6e" stroke-width="0.4"><desc><labelrank>10</labelrank><code_hasc>BB.AN</code_hasc><name>Saint Andrew</name><admin>Barbados</admin><type_en>Parish</type_en><region /><woe_id>2344731</woe_id><longitude>-59</longitude><woe_name>Saint Andrew</woe_name><fips>BB02</fips><woe_label>Saint Andrew, BB, Barbados</woe_label><latitude>13</latitude><iso_a2>BB</iso_a2><postal>AN</postal><type>Parish</type><id>BB.AN</id></desc></path><path d="M424.410121606,474.309313946 L414.145293073,513.273640383 L279.993623936,563.958787353 L241.088606874,437.205013669 L296.25230501,415.50784706 L300.964905207,412.672027518 L317.82091701,392.450891307 L349.176033221,386.777626529 L350.746806283,386.654208867 L399.810823066,431.775733842 L404.463987118,436.953515257 L424.410121606,474.309313946 Z" fill="#cee3f5" id="BB.GE" stroke="#6e6e6e" stroke-width="0.4"><desc><labelrank>10</labelrank><code_hasc>BB.GE</code_hasc><name>Saint George</name><admin>Barbados</admin><type_en>Parish</type_en><region /><woe_id>2344732</woe_id><longitude>-59</longitude><woe_name>Saint George</woe_name><fips>BB03</fips><woe_label>Saint George, BB, Barbados</woe_label><latitude>13</latitude><iso_a2>BB</iso_a2><postal>GE</postal><type>Parish</type><id>BB.GE</id></desc></path><path d="M196.836394468,244.481951271 L208.543876798,305.887111953 L195.915790765,322.776892948 L192.471886475,326.105321142 L192.109484375,325.858653134 L191.626240863,325.735259577 L191.384581199,325.858512947 L190.901217726,326.351615495 L190.29703534,326.844693989 L189.934561016,326.967923085 L189.209680836,326.844480017 L188.847230735,326.844408245 L188.243169009,326.720990075 L187.397450877,326.720820864 L186.853748859,326.844009494 L186.309996636,327.213798016 L184.739168264,328.199870612 L184.37666653,328.446394323 L183.591276332,328.816130504 L183.228797263,328.939355456 L182.866343751,328.939279991 L180.328703089,331.158129582 L179.482870735,331.651145429 L178.939135924,331.897626908 L178.5162731,331.897535759 L178.153766454,332.144057757 L177.247626637,332.143860852 L176.764356132,332.143755264 L176.341463942,332.266960586 L175.253935442,333.006515438 L170.904106481,334.608427687 L169.513720904,338.800279553 L163.345427126,365.67803269 L160.081197607,373.56837641 L157.663482913,378.253138876 L155.246740841,378.99232077 L154.400788956,379.608597933 L153.796423692,380.4715362 L152.950050764,382.690700554 L152.466418096,383.923564375 L151.801729195,384.416586968 L152.94928414,385.649876769 L155.969578692,387.376838383 L171.431788372,404.88901182 L185.013543004,463.582167015 L160.175107434,482.811165284 L158.120117432,485.030031664 L153.889555832,488.234724603 L142.34695209,493.286891818 L137.572515892,496.121422728 L137.451522689,496.614582278 L134.551572214,494.887571518 L122.590724503,483.663811186 L116.125122158,484.154969511 L115.9683451,484.169718575 L103.215750011,439.391297194 L92.2022176325,252.200568319 L92.2810066686,252.221117065 L106.957136121,256.048560022 L146.16257164,237.688891548 L196.836394468,244.481951271 Z" fill="#cee3f5" id="BB.JM" stroke="#6e6e6e" stroke-width="0.4"><desc><labelrank>10</labelrank><code_hasc>BB.JM</code_hasc><name>Saint James</name><admin>Barbados</admin><type_en>Parish</type_en><region /><woe_id>2344733</woe_id><longitude>-59</longitude><woe_name>Saint James</woe_name><fips>BB04</fips><woe_label>Saint James, BB, Barbados</woe_label><latitude>13</latitude><iso_a2>BB</iso_a2><postal>JM</postal><type>Parish</type><id>BB.JM</id></desc></path><path d="M520.333050229,376.990305902 L520.327445505,376.999229882 L516.765074966,382.672283748 L491.159222323,413.752300858 L488.13926727,416.712420702 L472.373013413,426.581028254 L455.638694796,433.243684518 L424.410121606,474.309313946 L404.463987118,436.953515257 L399.810823066,431.775733842 L350.746806283,386.654208867 L352.918694744,349.29443384 L353.462118361,345.965312955 L354.609544558,341.526450362 L356.663486298,341.526273488 L357.630035588,341.402887661 L358.656983743,341.15619677 L397.011770613,305.517970237 L402.54211203,303.115128683 L463.904560084,349.79430579 L499.301664647,370.171710801 L520.333050229,376.990305902 Z" fill="#cee3f5" id="BB.JN" stroke="#6e6e6e" stroke-width="0.4"><desc><labelrank>10</labelrank><code_hasc>BB.JN</code_hasc><name>Saint John</name><admin>Barbados</admin><type_en>Parish</type_en><region /><woe_id>2344734</woe_id><longitude>-59</longitude><woe_name>Saint John</woe_name><fips>BB05</fips><woe_label>Saint John, BB, Barbados</woe_label><latitude>13</latitude><iso_a2>BB</iso_a2><postal>JN</postal><type>Parish</type><id>BB.JN</id></desc></path><path d="M402.54211203,303.115128683 L397.011770613,305.517970237 L358.656983743,341.15619677 L357.630035588,341.402887661 L356.663486298,341.526273488 L354.609544558,341.526450362 L353.462118361,345.965312955 L352.918694744,349.29443384 L350.746806283,386.654208867 L349.176033221,386.777626529 L317.82091701,392.450891307 L297.9447708,352.502112319 L291.662179936,344.980757851 L288.400101047,342.021493266 L255.417924691,321.428666833 L279.523159434,265.452327837 L286.832195457,253.739153191 L288.161028427,253.369296162 L289.127448701,253.246022935 L289.973059328,253.369345909 L290.577058326,253.739258322 L291.18105725,254.232472707 L291.966243219,255.465484681 L292.630642079,256.081995049 L295.52988187,257.43834608 L302.596851929,255.588925521 L332.132394323,241.655467077 L337.568303491,240.422192021 L337.646472411,240.406032687 L359.153204127,270.008590131 L402.534507735,303.109342597 L402.54211203,303.115128683 Z" fill="#cee3f5" id="BB.JS" stroke="#6e6e6e" stroke-width="0.4"><desc><labelrank>10</labelrank><code_hasc>BB.JS</code_hasc><name>Saint Joseph</name><admin>Barbados</admin><type_en>Parish</type_en><region /><woe_id>2344735</woe_id><longitude>-59</longitude><woe_name>Saint Joseph</woe_name><fips>BB06</fips><woe_label>Saint Joseph, BB, Barbados</woe_label><latitude>13</latitude><iso_a2>BB</iso_a2><postal>JS</postal><type>Parish</type><id>BB.JS</id></desc></path><path d="M267.271790901,95.8270417378 L265.158961907,97.147326633 L139.728143961,137.814235478 L96.4792418044,166.652563486 L87.3593050221,168.62203008 L87.2881109647,168.636820116 L84.3070621608,117.931922779 L88.9805878243,80.9435944275 L105.537265273,49.687522863 L138.732190173,15.7175317306 L180.951474909,0.0 L223.923604171,23.3084881722 L256.057269822,71.6613579717 L267.271790901,95.8270417378 Z" fill="#cee3f5" id="BB.LU" stroke="#6e6e6e" stroke-width="0.4"><desc><labelrank>10</labelrank><code_hasc>BB.LU</code_hasc><name>Saint Lucy</name><admin>Barbados</admin><type_en>Parish</type_en><region /><woe_id>2344736</woe_id><longitude>-59</longitude><woe_name>Saint Lucy</woe_name><fips>BB07</fips><woe_label>Saint Lucy, BB, Barbados</woe_label><latitude>13</latitude><iso_a2>BB</iso_a2><postal>LU</postal><type>Parish</type><id>BB.LU</id></desc></path><path d="M279.993623936,563.958787353 L283.498154677,579.741091507 L283.800211876,582.946853807 L282.77281321,583.070114973 L210.34178081,621.357397758 L210.32527852,621.3562155 L191.860761805,620.090863595 L160.457134567,597.851533072 L133.442513998,545.515353943 L115.9683451,484.169718575 L116.125122158,484.154969511 L122.590724503,483.663811186 L134.551572214,494.887571518 L137.451522689,496.614582278 L137.572515892,496.121422728 L142.34695209,493.286891818 L153.889555832,488.234724603 L158.120117432,485.030031664 L160.175107434,482.811165284 L185.013543004,463.582167015 L222.476642614,455.944098582 L225.800044052,454.464970608 L241.088606874,437.205013669 L279.993623936,563.958787353 Z" fill="#cee3f5" id="BB.MI" stroke="#6e6e6e" stroke-width="0.4"><desc><labelrank>10</labelrank><code_hasc>BB.MI</code_hasc><name>Saint Michael</name><admin>Barbados</admin><type_en>Parish</type_en><region /><woe_id>2344737</woe_id><longitude>-59</longitude><woe_name>Saint Michael</woe_name><fips>BB08</fips><woe_label>Saint Michael, BB, Barbados</woe_label><latitude>13</latitude><iso_a2>BB</iso_a2><postal>MI</postal><type>Parish</type><id>BB.MI</id></desc></path><path d="M283.5218021,130.952137715 L279.5289926,132.411951502 L265.941560066,132.904393473 L262.680633794,132.164365701 L262.439096214,131.917748276 L261.955989323,131.917712677 L258.090853361,135.369812333 L256.701903083,135.492997355 L255.614915319,135.369607196 L254.829912549,134.753041637 L253.984483234,134.629664941 L252.776743595,134.259659103 L251.629413018,133.643056533 L248.247556263,134.629133121 L242.933022263,137.711090248 L232.967645222,147.327338838 L227.411468392,149.546023694 L223.908782371,149.915444605 L222.580335853,148.928857175 L221.734908229,148.682139307 L221.130990443,148.80535136 L220.345898323,148.928536464 L219.681607387,148.928439465 L217.869941357,148.681573548 L216.782899674,148.804708576 L215.816617851,149.051161006 L214.608757471,149.420875282 L213.461342369,149.420695973 L211.528953309,148.803888602 L209.898519141,148.187126356 L208.449280427,147.447086538 L207.724722159,146.707166787 L207.000086901,146.460445528 L206.396228812,146.213743836 L205.731896769,146.460230639 L204.946743013,146.953297788 L203.557687035,147.446254663 L201.321410739,157.803055422 L198.240335142,163.967493205 L196.836394468,244.481951271 L146.16257164,237.688891548 L106.957136121,256.048560022 L92.2810066686,252.221117065 L92.2022176325,252.200568319 L87.2881109647,168.636820116 L87.3593050221,168.62203008 L96.4792418044,166.652563486 L139.728143961,137.814235478 L265.158961907,97.147326633 L267.271790901,95.8270417378 L267.276319253,95.8367986625 L283.5218021,130.952137715 Z" fill="#cee3f5" id="BB.PE" stroke="#6e6e6e" stroke-width="0.4"><desc><labelrank>10</labelrank><code_hasc>BB.PE</code_hasc><name>Saint Peter</name><admin>Barbados</admin><type_en>Parish</type_en><region /><woe_id>2344738</woe_id><longitude>-59</longitude><woe_name>Saint Peter</woe_name><fips>BB09</fips><woe_label>Saint Peter, BB, Barbados</woe_label><latitude>13</latitude><iso_a2>BB</iso_a2><postal>PE</postal><type>Parish</type><id>BB.PE</id></desc></path><path d="M501.483468295,615.695486237 L490.069662523,599.933466756 L484.0855427,596.97614892 L470.727666642,591.801515439 L466.799004247,590.56962148 L464.56242091,588.844055299 L464.622588723,587.857652103 L461.659494494,581.200341339 L447.935159393,557.777147686 L447.269958104,555.927831698 L443.45664217,529.91278455 L439.46683763,523.502188787 L436.021633491,520.050607246 L414.145293073,513.273640383 L424.410121606,474.309313946 L455.638694796,433.243684518 L472.373013413,426.581028254 L488.13926727,416.712420702 L491.159222323,413.752300858 L516.765074966,382.672283748 L520.327445505,376.999229882 L520.333050229,376.990305902 L545.069456152,385.008941944 L588.273092015,404.795243596 L615.692937839,439.343982733 L608.408705552,521.579386093 L548.386111939,583.353497506 L501.483468295,615.695486237 Z" fill="#cee3f5" id="BB.PH" stroke="#6e6e6e" stroke-width="0.4"><desc><labelrank>10</labelrank><code_hasc>BB.PH</code_hasc><name>Saint Philip</name><admin>Barbados</admin><type_en>Parish</type_en><region /><woe_id>2344739</woe_id><longitude>-59</longitude><woe_name>Saint Philip</woe_name><fips>BB10</fips><woe_label>Saint Philip, BB, Barbados</woe_label><latitude>13</latitude><iso_a2>BB</iso_a2><postal>PH</postal><type>Parish</type><id>BB.PH</id></desc></path><path d="M255.417924691,321.428666833 L288.400101047,342.021493266 L291.662179936,344.980757851 L297.9447708,352.502112319 L317.82091701,392.450891307 L300.964905207,412.672027518 L296.25230501,415.50784706 L241.088606874,437.205013669 L225.800044052,454.464970608 L222.476642614,455.944098582 L185.013543004,463.582167015 L171.431788372,404.88901182 L155.969578692,387.376838383 L152.94928414,385.649876769 L151.801729195,384.416586968 L152.466418096,383.923564375 L152.950050764,382.690700554 L153.796423692,380.4715362 L154.400788956,379.608597933 L155.246740841,378.99232077 L157.663482913,378.253138876 L160.081197607,373.56837641 L163.345427126,365.67803269 L169.513720904,338.800279553 L170.904106481,334.608427687 L175.253935442,333.006515438 L176.341463942,332.266960586 L176.764356132,332.143755264 L177.247626637,332.143860852 L178.153766454,332.144057757 L178.5162731,331.897535759 L178.939135924,331.897626908 L179.482870735,331.651145429 L180.328703089,331.158129582 L182.866343751,328.939279991 L183.228797263,328.939355456 L183.591276332,328.816130504 L184.37666653,328.446394323 L184.739168264,328.199870612 L186.309996636,327.213798016 L186.853748859,326.844009494 L187.397450877,326.720820864 L188.243169009,326.720990075 L188.847230735,326.844408245 L189.209680836,326.844480017 L189.934561016,326.967923085 L190.29703534,326.844693989 L190.901217726,326.351615495 L191.384581199,325.858512947 L191.626240863,325.735259577 L192.109484375,325.858653134 L192.471886475,326.105321142 L195.915790765,322.776892948 L208.543876798,305.887111953 L236.391416033,304.288150167 L244.727159236,307.371549424 L255.417924691,321.428666833 Z" fill="#cee3f5" id="BB.TH" stroke="#6e6e6e" stroke-width="0.4"><desc><labelrank>10</labelrank><code_hasc>BB.TH</code_hasc><name>Saint Thomas</name><admin>Barbados</admin><type_en>Parish</type_en><region /><woe_id>2344740</woe_id><longitude>-59</longitude><woe_name>Saint Thomas</woe_name><fips>BB11</fips><woe_label>Saint Thomas, BB, Barbados</woe_label><latitude>13</latitude><iso_a2>BB</iso_a2><postal>TH</postal><type>Parish</type><id>BB.TH</id></desc></path></svg>