<?xml version='1.0' encoding='utf-8'?>
<svg height="700" width="700" xmlns="http://www.w3.org/2000/svg"><path d="M420.496453901,689.078014184 L435.390070922,673.191489362 L431.418439716,663.262411348 L451.276595745,655.319148936 L459.219858156,692.056737589 L455.24822695,700.0 L427.446808511,700.0 L420.496453901,689.078014184 Z" fill="#cee3f5" id="CN.shaanxi.2134760" stroke="#6e6e6e" stroke-width="0.4"><desc><admin_leve>6</admin_leve><localname>镇坪县 (Zhenping)</localname><boundary>administrative</boundary><id>CN.shaanxi.2134760</id><name>Zhenping County</name></desc></path><path d="M539.645390071,164.822695035 L554.539007092,165.815602837 L562.482269504,178.723404255 L550.567375887,189.645390071 L539.645390071,164.822695035 Z" fill="#cee3f5" id="CN.shaanxi.2241199" stroke="#6e6e6e" stroke-width="0.4"><desc><admin_leve>6</admin_leve><localname>吴堡县 (Wubu)</localname><boundary>administrative</boundary><id>CN.shaanxi.2241199</id><name>Wubu County</name></desc></path><path d="M177.234042553,539.14893617 L181.205673759,555.035460993 L168.29787234,573.90070922 L158.368794326,567.943262411 L131.560283688,571.914893617 L112.695035461,559.007092199 L110.709219858,551.063829787 L131.560283688,531.205673759 L151.418439716,537.163120567 L175.24822695,530.212765957 L177.234042553,539.14893617 Z" fill="#cee3f5" id="CN.shaanxi.2967643" stroke="#6e6e6e" stroke-width="0.4"><desc><admin_leve>6</admin_leve><localname>略阳县 (Lueyang)</localname><boundary>administrative</boundary><id>CN.shaanxi.2967643</id><name>Lueyang County</name></desc></path><path d="M229.858156028,553.04964539 L228.865248227,539.14893617 L241.773049645,527.234042553 L254.680851064,531.205673759 L257.659574468,571.914893617 L268.581560284,582.836879433 L252.695035461,593.758865248 L252.695035461,608.65248227 L242.765957447,604.680851064 L237.80141844,587.80141844 L240.780141844,576.879432624 L229.858156028,553.04964539 Z" fill="#cee3f5" id="CN.shaanxi.2967706" stroke="#6e6e6e" stroke-width="0.4"><desc><admin_leve>6</admin_leve><localname>城固县 (Chenggu)</localname><boundary>administrative</boundary><id>CN.shaanxi.2967706</id><name>Chenggu County</name></desc></path><path d="M284.468085106,523.262411348 L286.453900709,521.276595745 L318.226950355,522.269503546 L318.226950355,557.021276596 L317.234042553,563.971631206 L306.312056738,550.070921986 L289.432624113,544.113475177 L284.468085106,523.262411348 Z" fill="#cee3f5" id="CN.shaanxi.2967707" stroke="#6e6e6e" stroke-width="0.4"><desc><admin_leve>6</admin_leve><localname>佛坪县 (Foping)</localname><boundary>administrative</boundary><id>CN.shaanxi.2967707</id><name>Foping County</name></desc></path><path d="M212.978723404,559.007092199 L229.858156028,553.04964539 L240.780141844,576.879432624 L218.936170213,575.886524823 L212.978723404,559.007092199 Z" fill="#cee3f5" id="CN.shaanxi.2967708" stroke="#6e6e6e" stroke-width="0.4"><desc><admin_leve>6</admin_leve><localname>汉台区 (Hantai)</localname><boundary>administrative</boundary><id>CN.shaanxi.2967708</id><name>Hantai District</name></desc></path><path d="M228.865248227,507.375886525 L251.70212766,523.262411348 L241.773049645,527.234042553 L228.865248227,539.14893617 L229.858156028,553.04964539 L212.978723404,559.007092199 L204.042553191,538.156028369 L192.127659574,529.219858156 L205.035460993,525.24822695 L210.992907801,508.368794326 L228.865248227,507.375886525 Z" fill="#cee3f5" id="CN.shaanxi.2967709" stroke="#6e6e6e" stroke-width="0.4"><desc><admin_leve>6</admin_leve><localname>留坝县 (Liuba)</localname><boundary>administrative</boundary><id>CN.shaanxi.2967709</id><name>Liuba County</name></desc></path><path d="M168.29787234,573.90070922 L181.205673759,555.035460993 L177.234042553,539.14893617 L187.163120567,534.184397163 L192.127659574,529.219858156 L204.042553191,538.156028369 L212.978723404,559.007092199 L218.936170213,575.886524823 L201.063829787,581.843971631 L200.070921986,593.758865248 L181.205673759,595.744680851 L168.29787234,573.90070922 Z" fill="#cee3f5" id="CN.shaanxi.2967710" stroke="#6e6e6e" stroke-width="0.4"><desc><admin_leve>6</admin_leve><localname>勉县 (Mian)</localname><boundary>administrative</boundary><id>CN.shaanxi.2967710</id><name>Mian County</name></desc></path><path d="M181.205673759,595.744680851 L200.070921986,593.758865248 L201.063829787,581.843971631 L218.936170213,575.886524823 L240.780141844,576.879432624 L237.80141844,587.80141844 L242.765957447,604.680851064 L252.695035461,608.65248227 L257.659574468,626.524822695 L246.737588652,637.446808511 L235.815602837,632.482269504 L225.886524823,610.638297872 L198.085106383,610.638297872 L182.19858156,615.602836879 L181.205673759,595.744680851 Z" fill="#cee3f5" id="CN.shaanxi.2967711" stroke="#6e6e6e" stroke-width="0.4"><desc><admin_leve>6</admin_leve><localname>南郑县 (Nanzheng)</localname><boundary>administrative</boundary><id>CN.shaanxi.2967711</id><name>Nanzheng County</name></desc></path><path d="M131.560283688,571.914893617 L158.368794326,567.943262411 L168.29787234,573.90070922 L181.205673759,595.744680851 L182.19858156,615.602836879 L174.255319149,619.574468085 L150.425531915,613.617021277 L135.531914894,600.709219858 L119.645390071,601.70212766 L101.773049645,612.624113475 L98.7943262411,596.737588652 L127.588652482,584.822695035 L131.560283688,571.914893617 Z" fill="#cee3f5" id="CN.shaanxi.2967712" stroke="#6e6e6e" stroke-width="0.4"><desc><admin_leve>6</admin_leve><localname>宁强县 (Ningqiang)</localname><boundary>administrative</boundary><id>CN.shaanxi.2967712</id><name>Ningqiang County</name></desc></path><path d="M252.695035461,608.65248227 L252.695035461,593.758865248 L268.581560284,582.836879433 L288.439716312,578.865248227 L317.234042553,563.971631206 L326.170212766,585.815602837 L320.212765957,597.730496454 L330.141843972,606.666666667 L334.113475177,613.617021277 L324.184397163,617.588652482 L288.439716312,602.695035461 L262.624113475,627.517730496 L257.659574468,626.524822695 L252.695035461,608.65248227 Z" fill="#cee3f5" id="CN.shaanxi.2967713" stroke="#6e6e6e" stroke-width="0.4"><desc><admin_leve>6</admin_leve><localname>西乡县 (Xixiang)</localname><boundary>administrative</boundary><id>CN.shaanxi.2967713</id><name>Xixiang County</name></desc></path><path d="M241.773049645,527.234042553 L251.70212766,523.262411348 L259.645390071,528.226950355 L284.468085106,523.262411348 L289.432624113,544.113475177 L306.312056738,550.070921986 L317.234042553,563.971631206 L288.439716312,578.865248227 L268.581560284,582.836879433 L257.659574468,571.914893617 L254.680851064,531.205673759 L241.773049645,527.234042553 Z" fill="#cee3f5" id="CN.shaanxi.2967714" stroke="#6e6e6e" stroke-width="0.4"><desc><admin_leve>6</admin_leve><localname>洋县 (Yang)</localname><boundary>administrative</boundary><id>CN.shaanxi.2967714</id><name>Yang County</name></desc></path><path d="M262.624113475,627.517730496 L288.439716312,602.695035461 L324.184397163,617.588652482 L334.113475177,613.617021277 L337.092198582,616.595744681 L336.09929078,633.475177305 L323.191489362,641.418439716 L327.163120567,653.333333333 L300.354609929,656.312056738 L284.468085106,639.432624113 L270.567375887,641.418439716 L262.624113475,627.517730496 Z" fill="#cee3f5" id="CN.shaanxi.2967715" stroke="#6e6e6e" stroke-width="0.4"><desc><admin_leve>6</admin_leve><localname>镇巴县 (Zhenba)</localname><boundary>administrative</boundary><id>CN.shaanxi.2967715</id><name>Zhenba County</name></desc></path><path d="M503.90070922,527.234042553 L514.822695035,505.390070922 L538.65248227,502.411347518 L545.602836879,507.375886525 L564.468085106,519.290780142 L553.546099291,536.170212766 L537.659574468,541.134751773 L534.680851064,554.042553191 L524.75177305,553.04964539 L503.90070922,527.234042553 Z" fill="#cee3f5" id="CN.shaanxi.2971122" stroke="#6e6e6e" stroke-width="0.4"><desc><admin_leve>6</admin_leve><localname>丹凤县 (Danfeng)</localname><boundary>administrative</boundary><id>CN.shaanxi.2971122</id><name>Danfeng County</name></desc></path><path d="M492.978723404,463.687943262 L506.879432624,457.730496454 L529.716312057,459.716312057 L531.70212766,474.609929078 L552.553191489,500.425531915 L545.602836879,507.375886525 L538.65248227,502.411347518 L514.822695035,505.390070922 L495.957446809,499.432624113 L485.035460993,482.553191489 L475.106382979,481.560283688 L470.141843972,476.595744681 L492.978723404,463.687943262 Z" fill="#cee3f5" id="CN.shaanxi.2971123" stroke="#6e6e6e" stroke-width="0.4"><desc><admin_leve>6</admin_leve><localname>洛南县 (Luonan)</localname><boundary>administrative</boundary><id>CN.shaanxi.2971123</id><name>Luonan County</name></desc></path><path d="M534.680851064,554.042553191 L537.659574468,541.134751773 L553.546099291,536.170212766 L564.468085106,519.290780142 L580.354609929,533.191489362 L579.361702128,562.978723404 L556.524822695,573.90070922 L535.673758865,567.943262411 L534.680851064,554.042553191 Z" fill="#cee3f5" id="CN.shaanxi.2971124" stroke="#6e6e6e" stroke-width="0.4"><desc><admin_leve>6</admin_leve><localname>商南县 (Shangnan)</localname><boundary>administrative</boundary><id>CN.shaanxi.2971124</id><name>Shangnan County</name></desc></path><path d="M447.304964539,510.354609929 L454.255319149,490.496453901 L475.106382979,481.560283688 L485.035460993,482.553191489 L495.957446809,499.432624113 L514.822695035,505.390070922 L503.90070922,527.234042553 L471.134751773,523.262411348 L456.241134752,526.241134752 L447.304964539,510.354609929 Z" fill="#cee3f5" id="CN.shaanxi.2971125" stroke="#6e6e6e" stroke-width="0.4"><desc><admin_leve>6</admin_leve><localname>商州区 (Shangzhou)</localname><boundary>administrative</boundary><id>CN.shaanxi.2971125</id><name>Shangzhou District</name></desc></path><path d="M452.269503546,547.092198582 L456.241134752,526.241134752 L471.134751773,523.262411348 L503.90070922,527.234042553 L524.75177305,553.04964539 L534.680851064,554.042553191 L535.673758865,567.943262411 L510.85106383,570.921985816 L457.234042553,560.992907801 L452.269503546,547.092198582 Z" fill="#cee3f5" id="CN.shaanxi.2971126" stroke="#6e6e6e" stroke-width="0.4"><desc><admin_leve>6</admin_leve><localname>山阳县 (Shanyang)</localname><boundary>administrative</boundary><id>CN.shaanxi.2971126</id><name>Shanyang County</name></desc></path><path d="M387.730496454,513.333333333 L407.588652482,503.404255319 L423.475177305,507.375886525 L447.304964539,510.354609929 L456.241134752,526.241134752 L452.269503546,547.092198582 L424.468085106,536.170212766 L411.560283688,536.170212766 L393.687943262,525.24822695 L387.730496454,513.333333333 Z" fill="#cee3f5" id="CN.shaanxi.2971127" stroke="#6e6e6e" stroke-width="0.4"><desc><admin_leve>6</admin_leve><localname>柞水县 (Zhashui)</localname><boundary>administrative</boundary><id>CN.shaanxi.2971127</id><name>Zhashui County</name></desc></path><path d="M393.687943262,525.24822695 L411.560283688,536.170212766 L424.468085106,536.170212766 L452.269503546,547.092198582 L457.234042553,560.992907801 L441.34751773,571.914893617 L407.588652482,566.95035461 L399.645390071,571.914893617 L374.822695035,560.992907801 L365.886524823,545.106382979 L393.687943262,525.24822695 Z" fill="#cee3f5" id="CN.shaanxi.2971128" stroke="#6e6e6e" stroke-width="0.4"><desc><admin_leve>6</admin_leve><localname>镇安县 (Zhen'an)</localname><boundary>administrative</boundary><id>CN.shaanxi.2971128</id><name>Zhen'an County</name></desc></path><path d="M476.09929078,595.744680851 L504.893617021,603.687943262 L506.879432624,622.553191489 L492.978723404,626.524822695 L467.163120567,620.567375887 L461.205673759,603.687943262 L476.09929078,595.744680851 Z" fill="#cee3f5" id="CN.shaanxi.2996857" stroke="#6e6e6e" stroke-width="0.4"><desc><admin_leve>6</admin_leve><localname>白河县 (Xunyang)</localname><boundary>administrative</boundary><id>CN.shaanxi.2996857</id><name>Baihe County</name></desc></path><path d="M361.914893617,605.673758865 L369.858156028,571.914893617 L374.822695035,560.992907801 L399.645390071,571.914893617 L403.617021277,583.829787234 L421.489361702,600.709219858 L423.475177305,611.631205674 L437.375886525,623.546099291 L413.546099291,621.560283688 L401.631205674,641.418439716 L392.695035461,629.503546099 L369.858156028,627.517730496 L361.914893617,605.673758865 Z" fill="#cee3f5" id="CN.shaanxi.2996858" stroke="#6e6e6e" stroke-width="0.4"><desc><admin_leve>6</admin_leve><localname>汉滨区 (Hanbin)</localname><boundary>administrative</boundary><id>CN.shaanxi.2996858</id><name>Hanbin District</name></desc></path><path d="M330.141843972,606.666666667 L343.04964539,598.723404255 L356.95035461,574.893617021 L369.858156028,571.914893617 L361.914893617,605.673758865 L337.092198582,616.595744681 L334.113475177,613.617021277 L330.141843972,606.666666667 Z" fill="#cee3f5" id="CN.shaanxi.2996859" stroke="#6e6e6e" stroke-width="0.4"><desc><admin_leve>6</admin_leve><localname>汉阴县 (Hanyin)</localname><boundary>administrative</boundary><id>CN.shaanxi.2996859</id><name>Hanyin County</name></desc></path><path d="M369.858156028,627.517730496 L392.695035461,629.503546099 L401.631205674,641.418439716 L410.567375887,644.397163121 L410.567375887,681.134751773 L370.85106383,663.262411348 L374.822695035,650.354609929 L369.858156028,627.517730496 Z" fill="#cee3f5" id="CN.shaanxi.2996860" stroke="#6e6e6e" stroke-width="0.4"><desc><admin_leve>6</admin_leve><localname>岚皋县 (Langao)</localname><boundary>administrative</boundary><id>CN.shaanxi.2996860</id><name>Langao County</name></desc></path><path d="M318.226950355,522.269503546 L346.028368794,515.319148936 L375.815602837,511.34751773 L387.730496454,513.333333333 L393.687943262,525.24822695 L365.886524823,545.106382979 L374.822695035,560.992907801 L369.858156028,571.914893617 L356.95035461,574.893617021 L351.985815603,567.943262411 L318.226950355,557.021276596 L318.226950355,522.269503546 Z" fill="#cee3f5" id="CN.shaanxi.2996861" stroke="#6e6e6e" stroke-width="0.4"><desc><admin_leve>6</admin_leve><localname>宁陕县 (Chengkou)</localname><boundary>administrative</boundary><id>CN.shaanxi.2996861</id><name>Ningshan County</name></desc></path><path d="M437.375886525,623.546099291 L453.262411348,632.482269504 L451.276595745,655.319148936 L431.418439716,663.262411348 L435.390070922,673.191489362 L420.496453901,689.078014184 L410.567375887,681.134751773 L410.567375887,644.397163121 L401.631205674,641.418439716 L413.546099291,621.560283688 L437.375886525,623.546099291 Z" fill="#cee3f5" id="CN.shaanxi.2996862" stroke="#6e6e6e" stroke-width="0.4"><desc><admin_leve>6</admin_leve><localname>平利县 (Pingli)</localname><boundary>administrative</boundary><id>CN.shaanxi.2996862</id><name>Pingli County</name></desc></path><path d="M318.226950355,557.021276596 L351.985815603,567.943262411 L356.95035461,574.893617021 L343.04964539,598.723404255 L330.141843972,606.666666667 L320.212765957,597.730496454 L326.170212766,585.815602837 L317.234042553,563.971631206 L318.226950355,557.021276596 Z" fill="#cee3f5" id="CN.shaanxi.2996863" stroke="#6e6e6e" stroke-width="0.4"><desc><admin_leve>6</admin_leve><localname>石泉县 (Shiquan)</localname><boundary>administrative</boundary><id>CN.shaanxi.2996863</id><name>Shiquan County</name></desc></path><path d="M399.645390071,571.914893617 L407.588652482,566.95035461 L441.34751773,571.914893617 L473.120567376,579.858156028 L476.09929078,595.744680851 L461.205673759,603.687943262 L467.163120567,620.567375887 L453.262411348,632.482269504 L437.375886525,623.546099291 L423.475177305,611.631205674 L421.489361702,600.709219858 L403.617021277,583.829787234 L399.645390071,571.914893617 Z" fill="#cee3f5" id="CN.shaanxi.2996864" stroke="#6e6e6e" stroke-width="0.4"><desc><admin_leve>6</admin_leve><localname>旬阳县 (Xunyang)</localname><boundary>administrative</boundary><id>CN.shaanxi.2996864</id><name>Xunyang County</name></desc></path><path d="M337.092198582,616.595744681 L361.914893617,605.673758865 L369.858156028,627.517730496 L374.822695035,650.354609929 L370.85106383,663.262411348 L355.957446809,651.34751773 L327.163120567,653.333333333 L323.191489362,641.418439716 L336.09929078,633.475177305 L337.092198582,616.595744681 Z" fill="#cee3f5" id="CN.shaanxi.2996865" stroke="#6e6e6e" stroke-width="0.4"><desc><admin_leve>6</admin_leve><localname>紫阳县 (Ziyang)</localname><boundary>administrative</boundary><id>CN.shaanxi.2996865</id><name>Ziyang County</name></desc></path><path d="M341.063829787,172.765957447 L346.028368794,192.624113475 L333.120567376,199.574468085 L332.127659574,213.475177305 L303.333333333,220.425531915 L290.425531915,211.489361702 L283.475177305,226.382978723 L284.468085106,244.255319149 L251.70212766,236.312056738 L253.687943262,217.446808511 L246.737588652,199.574468085 L249.716312057,185.673758865 L268.581560284,160.85106383 L284.468085106,150.921985816 L310.283687943,157.872340426 L315.24822695,169.787234043 L341.063829787,172.765957447 Z" fill="#cee3f5" id="CN.shaanxi.3016342" stroke="#6e6e6e" stroke-width="0.4"><desc><admin_leve>6</admin_leve><localname>定边县 (Dingbian)</localname><boundary>administrative</boundary><id>CN.shaanxi.3016342</id><name>Dingbian County</name></desc></path><path d="M524.75177305,21.8439716312 L538.65248227,15.8865248227 L547.588652482,27.8014184397 L570.425531915,5.95744680851 L583.333333333,0.0 L589.290780142,17.8723404255 L601.205673759,24.8226950355 L593.262411348,44.6808510638 L579.361702128,52.6241134752 L573.404255319,76.4539007092 L565.460992908,60.5673758865 L527.730496454,29.7872340426 L524.75177305,21.8439716312 Z" fill="#cee3f5" id="CN.shaanxi.3016343" stroke="#6e6e6e" stroke-width="0.4"><desc><admin_leve>6</admin_leve><localname>府谷县 (Fugu)</localname><boundary>administrative</boundary><id>CN.shaanxi.3016343</id><name>Fugu County</name></desc></path><path d="M398.65248227,146.95035461 L407.588652482,138.014184397 L432.411347518,134.042553191 L437.375886525,124.113475177 L463.191489362,119.14893617 L481.063829787,142.978723404 L495.957446809,147.943262411 L477.092198582,158.865248227 L446.312056738,184.680851064 L432.411347518,196.595744681 L426.453900709,178.723404255 L407.588652482,169.787234043 L410.567375887,150.921985816 L398.65248227,146.95035461 Z" fill="#cee3f5" id="CN.shaanxi.3016344" stroke="#6e6e6e" stroke-width="0.4"><desc><name>Hengshan County</name><admin_leve>6</admin_leve><wikipedia>zh:横山县</wikipedia><localname>横山县 (Hengshan)</localname><boundary>administrative</boundary><id>CN.shaanxi.3016344</id></desc></path><path d="M527.730496454,104.255319149 L538.65248227,122.127659574 L536.666666667,137.021276596 L554.539007092,165.815602837 L539.645390071,164.822695035 L535.673758865,161.843971631 L502.907801418,132.056737589 L495.957446809,114.184397163 L527.730496454,104.255319149 Z" fill="#cee3f5" id="CN.shaanxi.3016345" stroke="#6e6e6e" stroke-width="0.4"><desc><admin_leve>6</admin_leve><localname>佳县 (Jia)</localname><boundary>administrative</boundary><id>CN.shaanxi.3016345</id><name>Jia County</name></desc></path><path d="M341.063829787,172.765957447 L384.75177305,166.808510638 L384.75177305,144.964539007 L398.65248227,146.95035461 L410.567375887,150.921985816 L407.588652482,169.787234043 L426.453900709,178.723404255 L432.411347518,196.595744681 L421.489361702,200.567375887 L405.602836879,201.560283688 L392.695035461,213.475177305 L357.943262411,228.368794326 L362.907801418,213.475177305 L346.028368794,192.624113475 L341.063829787,172.765957447 Z" fill="#cee3f5" id="CN.shaanxi.3016346" stroke="#6e6e6e" stroke-width="0.4"><desc><admin_leve>6</admin_leve><localname>靖边县 (Jingbian)</localname><boundary>administrative</boundary><id>CN.shaanxi.3016346</id><name>Jingbian County</name></desc></path><path d="M495.957446809,147.943262411 L502.907801418,132.056737589 L535.673758865,161.843971631 L527.730496454,166.808510638 L501.914893617,166.808510638 L477.092198582,158.865248227 L495.957446809,147.943262411 Z" fill="#cee3f5" id="CN.shaanxi.3016347" stroke="#6e6e6e" stroke-width="0.4"><desc><admin_leve>6</admin_leve><localname>米脂县 (Mizhi)</localname><boundary>administrative</boundary><id>CN.shaanxi.3016347</id><name>Mizhi County</name></desc></path><path d="M493.971631206,205.531914894 L503.90070922,194.609929078 L515.815602837,191.631205674 L527.730496454,202.553191489 L549.574468085,204.539007092 L529.716312057,232.340425532 L492.978723404,220.425531915 L493.971631206,205.531914894 Z" fill="#cee3f5" id="CN.shaanxi.3016348" stroke="#6e6e6e" stroke-width="0.4"><desc><admin_leve>6</admin_leve><localname>清涧县 (Qingjian)</localname><boundary>administrative</boundary><id>CN.shaanxi.3016348</id><name>Qingjian County</name></desc></path><path d="M463.191489362,54.609929078 L467.163120567,44.6808510638 L492.978723404,30.780141844 L524.75177305,21.8439716312 L527.730496454,29.7872340426 L565.460992908,60.5673758865 L573.404255319,76.4539007092 L561.489361702,99.2907801418 L538.65248227,122.127659574 L527.730496454,104.255319149 L521.773049645,95.3191489362 L486.028368794,86.3829787234 L479.078014184,69.5035460993 L463.191489362,54.609929078 Z" fill="#cee3f5" id="CN.shaanxi.3016349" stroke="#6e6e6e" stroke-width="0.4"><desc><admin_leve>6</admin_leve><localname>神木县 (Shenmu)</localname><boundary>administrative</boundary><id>CN.shaanxi.3016349</id><name>Shenmu County</name></desc></path><path d="M501.914893617,166.808510638 L527.730496454,166.808510638 L535.673758865,161.843971631 L539.645390071,164.822695035 L550.567375887,189.645390071 L549.574468085,204.539007092 L527.730496454,202.553191489 L515.815602837,191.631205674 L503.90070922,194.609929078 L501.914893617,166.808510638 Z" fill="#cee3f5" id="CN.shaanxi.3016350" stroke="#6e6e6e" stroke-width="0.4"><desc><admin_leve>6</admin_leve><localname>绥德县 (Suide)</localname><boundary>administrative</boundary><id>CN.shaanxi.3016350</id><name>Suide County</name></desc></path><path d="M463.191489362,54.609929078 L479.078014184,69.5035460993 L486.028368794,86.3829787234 L521.773049645,95.3191489362 L527.730496454,104.255319149 L495.957446809,114.184397163 L502.907801418,132.056737589 L495.957446809,147.943262411 L481.063829787,142.978723404 L463.191489362,119.14893617 L437.375886525,124.113475177 L432.411347518,134.042553191 L407.588652482,138.014184397 L396.666666667,123.120567376 L400.638297872,109.219858156 L416.524822695,90.3546099291 L438.368794326,76.4539007092 L440.354609929,67.5177304965 L463.191489362,54.609929078 Z" fill="#cee3f5" id="CN.shaanxi.3016351" stroke="#6e6e6e" stroke-width="0.4"><desc><admin_leve>6</admin_leve><localname>榆阳区 (Yuyang)</localname><boundary>administrative</boundary><id>CN.shaanxi.3016351</id><name>Yuyang District</name></desc></path><path d="M446.312056738,184.680851064 L477.092198582,158.865248227 L501.914893617,166.808510638 L503.90070922,194.609929078 L493.971631206,205.531914894 L446.312056738,184.680851064 Z" fill="#cee3f5" id="CN.shaanxi.3016352" stroke="#6e6e6e" stroke-width="0.4"><desc><admin_leve>6</admin_leve><localname>子洲县 (Zizhou)</localname><boundary>administrative</boundary><id>CN.shaanxi.3016352</id><name>Zizhou County</name></desc></path><path d="M421.489361702,200.567375887 L440.354609929,226.382978723 L439.361702128,247.234042553 L427.446808511,256.170212766 L424.468085106,271.063829787 L393.687943262,262.127659574 L407.588652482,233.333333333 L392.695035461,213.475177305 L405.602836879,201.560283688 L421.489361702,200.567375887 Z" fill="#cee3f5" id="CN.shaanxi.3019988" stroke="#6e6e6e" stroke-width="0.4"><desc><name>Ansai County</name><admin_leve>6</admin_leve><wikipedia>en:Ansai County</wikipedia><localname>安塞县 (Ansai)</localname><boundary>administrative</boundary><id>CN.shaanxi.3019988</id></desc></path><path d="M424.468085106,271.063829787 L427.446808511,256.170212766 L439.361702128,247.234042553 L440.354609929,226.382978723 L457.234042553,228.368794326 L463.191489362,240.283687943 L485.035460993,249.219858156 L467.163120567,263.120567376 L470.141843972,275.035460993 L499.929078014,282.978723404 L499.929078014,291.914893617 L466.170212766,301.843971631 L454.255319149,297.872340426 L448.29787234,283.971631206 L424.468085106,271.063829787 Z" fill="#cee3f5" id="CN.shaanxi.3019989" stroke="#6e6e6e" stroke-width="0.4"><desc><admin_leve>6</admin_leve><localname>宝塔区 (Baota)</localname><boundary>administrative</boundary><id>CN.shaanxi.3019989</id><name>Baota District</name></desc></path><path d="M370.85106383,281.985815603 L381.773049645,285.957446809 L398.65248227,289.929078014 L417.517730496,307.80141844 L437.375886525,307.80141844 L454.255319149,297.872340426 L466.170212766,301.843971631 L465.177304965,311.773049645 L453.262411348,313.758865248 L430.425531915,337.588652482 L360.921985816,340.567375887 L358.936170213,327.659574468 L371.843971631,322.695035461 L376.808510638,305.815602837 L370.85106383,281.985815603 Z" fill="#cee3f5" id="CN.shaanxi.3019990" stroke="#6e6e6e" stroke-width="0.4"><desc><admin_leve>6</admin_leve><localname>富县 (Fu)</localname><boundary>administrative</boundary><id>CN.shaanxi.3019990</id><name>Fu County</name></desc></path><path d="M393.687943262,262.127659574 L424.468085106,271.063829787 L448.29787234,283.971631206 L454.255319149,297.872340426 L437.375886525,307.80141844 L417.517730496,307.80141844 L398.65248227,289.929078014 L381.773049645,285.957446809 L393.687943262,262.127659574 Z" fill="#cee3f5" id="CN.shaanxi.3019991" stroke="#6e6e6e" stroke-width="0.4"><desc><admin_leve>6</admin_leve><localname>甘泉县 (Ganquan)</localname><boundary>administrative</boundary><id>CN.shaanxi.3019991</id><name>Ganquan County</name></desc></path><path d="M360.921985816,340.567375887 L430.425531915,337.588652482 L442.340425532,361.418439716 L417.517730496,355.460992908 L405.602836879,359.432624113 L395.673758865,375.319148936 L390.709219858,376.312056738 L368.865248227,358.439716312 L360.921985816,340.567375887 Z" fill="#cee3f5" id="CN.shaanxi.3019992" stroke="#6e6e6e" stroke-width="0.4"><desc><admin_leve>6</admin_leve><localname>黄陵县 (Huangling)</localname><boundary>administrative</boundary><id>CN.shaanxi.3019992</id><name>Huangling County</name></desc></path><path d="M471.134751773,318.723404255 L493.971631206,315.744680851 L505.886524823,326.666666667 L512.836879433,343.546099291 L515.815602837,358.439716312 L502.907801418,368.368794326 L493.971631206,370.354609929 L467.163120567,370.354609929 L461.205673759,336.595744681 L471.134751773,318.723404255 Z" fill="#cee3f5" id="CN.shaanxi.3019993" stroke="#6e6e6e" stroke-width="0.4"><desc><admin_leve>6</admin_leve><localname>黄龙县 (Huanglong)</localname><boundary>administrative</boundary><id>CN.shaanxi.3019993</id><name>Huanglong County</name></desc></path><path d="M430.425531915,337.588652482 L453.262411348,313.758865248 L465.177304965,311.773049645 L471.134751773,318.723404255 L461.205673759,336.595744681 L467.163120567,370.354609929 L446.312056738,375.319148936 L442.340425532,361.418439716 L430.425531915,337.588652482 Z" fill="#cee3f5" id="CN.shaanxi.3019994" stroke="#6e6e6e" stroke-width="0.4"><desc><admin_leve>6</admin_leve><localname>洛川县 (Luochuan)</localname><boundary>administrative</boundary><id>CN.shaanxi.3019994</id><name>Luochuan County</name></desc></path><path d="M346.028368794,192.624113475 L362.907801418,213.475177305 L357.943262411,228.368794326 L333.120567376,262.127659574 L309.290780142,260.141843972 L304.326241135,250.212765957 L284.468085106,244.255319149 L283.475177305,226.382978723 L290.425531915,211.489361702 L303.333333333,220.425531915 L332.127659574,213.475177305 L333.120567376,199.574468085 L346.028368794,192.624113475 Z" fill="#cee3f5" id="CN.shaanxi.3019995" stroke="#6e6e6e" stroke-width="0.4"><desc><admin_leve>6</admin_leve><localname>吴起县 (Wuqi)</localname><boundary>administrative</boundary><id>CN.shaanxi.3019995</id><name>Wuqi County</name></desc></path><path d="M485.035460993,249.219858156 L512.836879433,253.191489362 L530.709219858,261.134751773 L536.666666667,267.092198582 L533.687943262,291.914893617 L499.929078014,282.978723404 L470.141843972,275.035460993 L467.163120567,263.120567376 L485.035460993,249.219858156 Z" fill="#cee3f5" id="CN.shaanxi.3019996" stroke="#6e6e6e" stroke-width="0.4"><desc><admin_leve>6</admin_leve><localname>延长县 (Yanchang)</localname><boundary>administrative</boundary><id>CN.shaanxi.3019996</id><name>Yanchang County</name></desc></path><path d="M457.234042553,228.368794326 L484.042553191,226.382978723 L492.978723404,220.425531915 L529.716312057,232.340425532 L530.709219858,261.134751773 L512.836879433,253.191489362 L485.035460993,249.219858156 L463.191489362,240.283687943 L457.234042553,228.368794326 Z" fill="#cee3f5" id="CN.shaanxi.3019997" stroke="#6e6e6e" stroke-width="0.4"><desc><admin_leve>6</admin_leve><localname>延川县 (Yanchuan)</localname><boundary>administrative</boundary><id>CN.shaanxi.3019997</id><name>Yanchuan County</name></desc></path><path d="M466.170212766,301.843971631 L499.929078014,291.914893617 L499.929078014,282.978723404 L533.687943262,291.914893617 L531.70212766,305.815602837 L540.638297872,332.624113475 L512.836879433,343.546099291 L505.886524823,326.666666667 L493.971631206,315.744680851 L471.134751773,318.723404255 L465.177304965,311.773049645 L466.170212766,301.843971631 Z" fill="#cee3f5" id="CN.shaanxi.3019998" stroke="#6e6e6e" stroke-width="0.4"><desc><admin_leve>6</admin_leve><localname>宜川县 (Yichuan)</localname><boundary>administrative</boundary><id>CN.shaanxi.3019998</id><name>Yichuan County</name></desc></path><path d="M333.120567376,262.127659574 L357.943262411,228.368794326 L392.695035461,213.475177305 L407.588652482,233.333333333 L393.687943262,262.127659574 L381.773049645,285.957446809 L370.85106383,281.985815603 L350.0,278.014184397 L333.120567376,262.127659574 Z" fill="#cee3f5" id="CN.shaanxi.3019999" stroke="#6e6e6e" stroke-width="0.4"><desc><name>Zhidan County</name><admin_leve>6</admin_leve><wikipedia>en:Zhidan County</wikipedia><localname>志丹县 (Zhidan)</localname><boundary>administrative</boundary><id>CN.shaanxi.3019999</id></desc></path><path d="M421.489361702,200.567375887 L432.411347518,196.595744681 L446.312056738,184.680851064 L493.971631206,205.531914894 L492.978723404,220.425531915 L484.042553191,226.382978723 L457.234042553,228.368794326 L440.354609929,226.382978723 L421.489361702,200.567375887 Z" fill="#cee3f5" id="CN.shaanxi.3020000" stroke="#6e6e6e" stroke-width="0.4"><desc><admin_leve>6</admin_leve><localname>子长县 (Zichang)</localname><boundary>administrative</boundary><id>CN.shaanxi.3020000</id><name>Zichang County</name></desc></path><path d="M427.446808511,384.255319149 L446.312056738,375.319148936 L467.163120567,370.354609929 L471.134751773,392.19858156 L442.340425532,393.191489362 L427.446808511,384.255319149 Z" fill="#cee3f5" id="CN.shaanxi.3028610" stroke="#6e6e6e" stroke-width="0.4"><desc><admin_leve>6</admin_leve><localname>白水县 (Baishui)</localname><boundary>administrative</boundary><id>CN.shaanxi.3028610</id><name>Baishui County</name></desc></path><path d="M467.163120567,370.354609929 L493.971631206,370.354609929 L491.985815603,402.127659574 L500.921985816,406.09929078 L485.035460993,413.04964539 L471.134751773,392.19858156 L467.163120567,370.354609929 Z" fill="#cee3f5" id="CN.shaanxi.3028611" stroke="#6e6e6e" stroke-width="0.4"><desc><admin_leve>6</admin_leve><localname>澄城县 (Chengcheng)</localname><boundary>administrative</boundary><id>CN.shaanxi.3028611</id><name>Chengcheng County</name></desc></path><path d="M471.134751773,425.957446809 L485.035460993,413.04964539 L500.921985816,406.09929078 L516.808510638,410.070921986 L514.822695035,438.865248227 L506.879432624,439.858156028 L483.04964539,443.829787234 L466.170212766,444.822695035 L471.134751773,425.957446809 Z" fill="#cee3f5" id="CN.shaanxi.3028612" stroke="#6e6e6e" stroke-width="0.4"><desc><admin_leve>6</admin_leve><localname>大荔县 (Dali)</localname><boundary>administrative</boundary><id>CN.shaanxi.3028612</id><name>Dali County</name></desc></path><path d="M411.560283688,411.063829787 L414.539007092,408.085106383 L428.439716312,397.163120567 L440.354609929,402.127659574 L433.404255319,417.021276596 L439.361702128,427.943262411 L439.361702128,429.929078014 L419.503546099,433.90070922 L400.638297872,422.978723404 L411.560283688,411.063829787 Z" fill="#cee3f5" id="CN.shaanxi.3028613" stroke="#6e6e6e" stroke-width="0.4"><desc><admin_leve>6</admin_leve><localname>富平县 (Fuping)</localname><boundary>administrative</boundary><id>CN.shaanxi.3028613</id><name>Fuping County</name></desc></path><path d="M502.907801418,368.368794326 L515.815602837,358.439716312 L512.836879433,343.546099291 L540.638297872,332.624113475 L546.595744681,352.482269504 L530.709219858,379.290780142 L502.907801418,368.368794326 Z" fill="#cee3f5" id="CN.shaanxi.3028614" stroke="#6e6e6e" stroke-width="0.4"><desc><name>Hancheng City</name><admin_leve>6</admin_leve><wikipedia>en:Hancheng</wikipedia><localname>韩城市 (Hancheng)</localname><boundary>administrative</boundary><id>CN.shaanxi.3028614</id></desc></path><path d="M493.971631206,370.354609929 L502.907801418,368.368794326 L530.709219858,379.290780142 L516.808510638,410.070921986 L500.921985816,406.09929078 L491.985815603,402.127659574 L493.971631206,370.354609929 Z" fill="#cee3f5" id="CN.shaanxi.3028615" stroke="#6e6e6e" stroke-width="0.4"><desc><admin_leve>6</admin_leve><localname>合阳县 (Heyang)</localname><boundary>administrative</boundary><id>CN.shaanxi.3028615</id><name>Heyang County</name></desc></path><path d="M466.170212766,444.822695035 L483.04964539,443.829787234 L492.978723404,463.687943262 L470.141843972,476.595744681 L464.184397163,474.609929078 L456.241134752,458.723404255 L466.170212766,444.822695035 Z" fill="#cee3f5" id="CN.shaanxi.3028616" stroke="#6e6e6e" stroke-width="0.4"><desc><admin_leve>6</admin_leve><localname>华县 (Hua)</localname><boundary>administrative</boundary><id>CN.shaanxi.3028616</id><name>Hua County</name></desc></path><path d="M506.879432624,439.858156028 L506.879432624,457.730496454 L492.978723404,463.687943262 L483.04964539,443.829787234 L506.879432624,439.858156028 Z" fill="#cee3f5" id="CN.shaanxi.3028617" stroke="#6e6e6e" stroke-width="0.4"><desc><name>Huayin City</name><admin_leve>6</admin_leve><wikipedia>en:Huayin</wikipedia><localname>华阴市 (Huayin)</localname><boundary>administrative</boundary><id>CN.shaanxi.3028617</id></desc></path><path d="M440.354609929,437.872340426 L439.361702128,429.929078014 L439.361702128,427.943262411 L471.134751773,425.957446809 L466.170212766,444.822695035 L456.241134752,458.723404255 L464.184397163,474.609929078 L443.333333333,467.659574468 L440.354609929,437.872340426 Z" fill="#cee3f5" id="CN.shaanxi.3028618" stroke="#6e6e6e" stroke-width="0.4"><desc><admin_leve>6</admin_leve><localname>临渭区 (Linwei)</localname><boundary>administrative</boundary><id>CN.shaanxi.3028618</id><name>Linwei District</name></desc></path><path d="M440.354609929,402.127659574 L442.340425532,393.191489362 L471.134751773,392.19858156 L485.035460993,413.04964539 L471.134751773,425.957446809 L439.361702128,427.943262411 L433.404255319,417.021276596 L440.354609929,402.127659574 Z" fill="#cee3f5" id="CN.shaanxi.3028619" stroke="#6e6e6e" stroke-width="0.4"><desc><admin_leve>6</admin_leve><localname>蒲城县 (Pucheng)</localname><boundary>administrative</boundary><id>CN.shaanxi.3028619</id><name>Pucheng County</name></desc></path><path d="M506.879432624,457.730496454 L506.879432624,439.858156028 L514.822695035,438.865248227 L524.75177305,442.836879433 L529.716312057,459.716312057 L506.879432624,457.730496454 Z" fill="#cee3f5" id="CN.shaanxi.3028620" stroke="#6e6e6e" stroke-width="0.4"><desc><admin_leve>6</admin_leve><localname>潼关县 (Tongguan)</localname><boundary>administrative</boundary><id>CN.shaanxi.3028620</id><name>Tongguan County</name></desc></path><path d="M282.482269504,482.553191489 L291.418439716,468.65248227 L313.262411348,475.602836879 L315.24822695,476.595744681 L307.304964539,495.460992908 L294.397163121,498.439716312 L282.482269504,482.553191489 Z" fill="#cee3f5" id="CN.shaanxi.3048835" stroke="#6e6e6e" stroke-width="0.4"><desc><admin_leve>6</admin_leve><localname>眉县 (Mei)</localname><boundary>administrative</boundary><id>CN.shaanxi.3048835</id><name>Mei County</name></desc></path><path d="M177.234042553,437.872340426 L202.056737589,442.836879433 L219.929078014,432.907801418 L242.765957447,446.808510638 L246.737588652,457.730496454 L273.546099291,465.673758865 L271.560283688,481.560283688 L249.716312057,480.567375887 L250.709219858,465.673758865 L227.872340426,450.780141844 L217.943262411,454.75177305 L214.964539007,470.638297872 L198.085106383,471.631205674 L189.14893617,455.744680851 L162.340425532,444.822695035 L177.234042553,437.872340426 Z" fill="#cee3f5" id="CN.shaanxi.3048908" stroke="#6e6e6e" stroke-width="0.4"><desc><admin_leve>6</admin_leve><localname>陈仓区 (Long)</localname><boundary>administrative</boundary><id>CN.shaanxi.3048908</id><name>Chencang District</name></desc></path><path d="M198.085106383,471.631205674 L214.964539007,470.638297872 L231.843971631,485.531914894 L228.865248227,507.375886525 L210.992907801,508.368794326 L205.035460993,525.24822695 L192.127659574,529.219858156 L187.163120567,534.184397163 L172.269503546,507.375886525 L179.219858156,487.517730496 L198.085106383,471.631205674 Z" fill="#cee3f5" id="CN.shaanxi.3048909" stroke="#6e6e6e" stroke-width="0.4"><desc><admin_leve>6</admin_leve><localname>凤县 (Feng)</localname><boundary>administrative</boundary><id>CN.shaanxi.3048909</id><name>Feng County</name></desc></path><path d="M242.765957447,446.808510638 L253.687943262,430.921985816 L273.546099291,429.929078014 L281.489361702,442.836879433 L273.546099291,465.673758865 L246.737588652,457.730496454 L242.765957447,446.808510638 Z" fill="#cee3f5" id="CN.shaanxi.3048910" stroke="#6e6e6e" stroke-width="0.4"><desc><admin_leve>6</admin_leve><localname>凤翔县 (Fengxiang)</localname><boundary>administrative</boundary><id>CN.shaanxi.3048910</id><name>Fengxiang County</name></desc></path><path d="M296.382978723,446.808510638 L313.262411348,441.843971631 L314.255319149,453.758865248 L315.24822695,457.730496454 L318.226950355,467.659574468 L313.262411348,475.602836879 L291.418439716,468.65248227 L302.340425532,460.709219858 L296.382978723,446.808510638 Z" fill="#cee3f5" id="CN.shaanxi.3048911" stroke="#6e6e6e" stroke-width="0.4"><desc><admin_leve>6</admin_leve><localname>扶风县 (Fufeng)</localname><boundary>administrative</boundary><id>CN.shaanxi.3048911</id><name>Fufeng County</name></desc></path><path d="M250.709219858,465.673758865 L229.858156028,463.687943262 L217.943262411,454.75177305 L227.872340426,450.780141844 L250.709219858,465.673758865 Z" fill="#cee3f5" id="CN.shaanxi.3048912" stroke="#6e6e6e" stroke-width="0.4"><desc><admin_leve>6</admin_leve><localname>金台区 (Jintai)</localname><boundary>administrative</boundary><id>CN.shaanxi.3048912</id><name>Jintai District</name></desc></path><path d="M253.687943262,430.921985816 L256.666666667,415.035460993 L296.382978723,410.070921986 L308.29787234,420.0 L316.241134752,435.886524823 L317.234042553,441.843971631 L313.262411348,441.843971631 L296.382978723,446.808510638 L281.489361702,442.836879433 L273.546099291,429.929078014 L253.687943262,430.921985816 Z" fill="#cee3f5" id="CN.shaanxi.3048913" stroke="#6e6e6e" stroke-width="0.4"><desc><admin_leve>6</admin_leve><localname>麟游县 (Linyou)</localname><boundary>administrative</boundary><id>CN.shaanxi.3048913</id><name>Linyou County</name></desc></path><path d="M237.80141844,413.04964539 L219.929078014,432.907801418 L202.056737589,442.836879433 L177.234042553,437.872340426 L186.170212766,425.957446809 L178.226950355,409.078014184 L185.177304965,399.14893617 L215.957446809,399.14893617 L237.80141844,413.04964539 Z" fill="#cee3f5" id="CN.shaanxi.3048914" stroke="#6e6e6e" stroke-width="0.4"><desc><admin_leve>6</admin_leve><localname>陇县 (Long)</localname><boundary>administrative</boundary><id>CN.shaanxi.3048914</id><name>Long County</name></desc></path><path d="M219.929078014,432.907801418 L237.80141844,413.04964539 L256.666666667,415.035460993 L253.687943262,430.921985816 L242.765957447,446.808510638 L219.929078014,432.907801418 Z" fill="#cee3f5" id="CN.shaanxi.3048915" stroke="#6e6e6e" stroke-width="0.4"><desc><name>Qianyang County</name><admin_leve>6</admin_leve><wikipedia>en:Qianyang County</wikipedia><localname>千阳县 (Qianyang)</localname><boundary>administrative</boundary><id>CN.shaanxi.3048915</id></desc></path><path d="M271.560283688,481.560283688 L273.546099291,465.673758865 L281.489361702,442.836879433 L296.382978723,446.808510638 L302.340425532,460.709219858 L291.418439716,468.65248227 L282.482269504,482.553191489 L271.560283688,481.560283688 Z" fill="#cee3f5" id="CN.shaanxi.3048916" stroke="#6e6e6e" stroke-width="0.4"><desc><admin_leve>6</admin_leve><localname>岐山县 (Qishan)</localname><boundary>administrative</boundary><id>CN.shaanxi.3048916</id><name>Qishan County</name></desc></path><path d="M228.865248227,507.375886525 L231.843971631,485.531914894 L249.716312057,480.567375887 L271.560283688,481.560283688 L282.482269504,482.553191489 L294.397163121,498.439716312 L286.453900709,521.276595745 L284.468085106,523.262411348 L259.645390071,528.226950355 L251.70212766,523.262411348 L228.865248227,507.375886525 Z" fill="#cee3f5" id="CN.shaanxi.3048917" stroke="#6e6e6e" stroke-width="0.4"><desc><admin_leve>6</admin_leve><localname>太白县 (Taibai)</localname><boundary>administrative</boundary><id>CN.shaanxi.3048917</id><name>Taibai County</name></desc></path><path d="M217.943262411,454.75177305 L229.858156028,463.687943262 L250.709219858,465.673758865 L249.716312057,480.567375887 L231.843971631,485.531914894 L214.964539007,470.638297872 L217.943262411,454.75177305 Z" fill="#cee3f5" id="CN.shaanxi.3048918" stroke="#6e6e6e" stroke-width="0.4"><desc><admin_leve>6</admin_leve><localname>渭滨区 (Weibin)</localname><boundary>administrative</boundary><id>CN.shaanxi.3048918</id><name>Weibin District</name></desc></path><path d="M301.34751773,407.092198582 L309.290780142,385.24822695 L324.184397163,382.269503546 L334.113475177,391.205673759 L329.14893617,403.120567376 L345.035460993,412.056737589 L342.056737589,419.007092199 L331.134751773,411.063829787 L308.29787234,420.0 L296.382978723,410.070921986 L301.34751773,407.092198582 Z" fill="#cee3f5" id="CN.shaanxi.3221006" stroke="#6e6e6e" stroke-width="0.4"><desc><name>Bin County</name><admin_leve>6</admin_leve><wikipedia>en:Bin County, Shaanxi</wikipedia><localname>彬县 (Bin)</localname><boundary>administrative</boundary><id>CN.shaanxi.3221006</id></desc></path><path d="M309.290780142,385.24822695 L301.34751773,407.092198582 L282.482269504,385.24822695 L309.290780142,385.24822695 Z" fill="#cee3f5" id="CN.shaanxi.3221007" stroke="#6e6e6e" stroke-width="0.4"><desc><name>Changwu County</name><admin_leve>6</admin_leve><wikipedia>en:Changwu County</wikipedia><localname>长武县 (Changwu)</localname><boundary>administrative</boundary><id>CN.shaanxi.3221007</id></desc></path><path d="M342.056737589,419.007092199 L345.035460993,412.056737589 L365.886524823,404.113475177 L386.737588652,424.964539007 L383.758865248,430.921985816 L358.936170213,430.921985816 L345.035460993,421.985815603 L342.056737589,419.007092199 Z" fill="#cee3f5" id="CN.shaanxi.3221008" stroke="#6e6e6e" stroke-width="0.4"><desc><name>Chunhua County</name><admin_leve>6</admin_leve><wikipedia>en:Chunhua County</wikipedia><localname>淳化县 (Chunhua)</localname><boundary>administrative</boundary><id>CN.shaanxi.3221008</id></desc></path><path d="M358.936170213,430.921985816 L383.758865248,430.921985816 L398.65248227,446.808510638 L399.645390071,457.730496454 L375.815602837,453.758865248 L358.936170213,430.921985816 Z" fill="#cee3f5" id="CN.shaanxi.3221009" stroke="#6e6e6e" stroke-width="0.4"><desc><name>Jingyang County</name><admin_leve>6</admin_leve><wikipedia>en:Jingyang County</wikipedia><localname>泾阳县 (Jingyang)</localname><boundary>administrative</boundary><id>CN.shaanxi.3221009</id></desc></path><path d="M345.035460993,421.985815603 L358.936170213,430.921985816 L375.815602837,453.758865248 L373.829787234,455.744680851 L363.90070922,457.730496454 L346.028368794,465.673758865 L349.007092199,454.75177305 L340.070921986,430.921985816 L345.035460993,421.985815603 Z" fill="#cee3f5" id="CN.shaanxi.3221010" stroke="#6e6e6e" stroke-width="0.4"><desc><name>Liquan County</name><admin_leve>6</admin_leve><wikipedia>en:Liquan County</wikipedia><localname>礼泉县 (Liquan)</localname><boundary>administrative</boundary><id>CN.shaanxi.3221010</id></desc></path><path d="M314.255319149,453.758865248 L317.234042553,441.843971631 L316.241134752,435.886524823 L340.070921986,430.921985816 L349.007092199,454.75177305 L346.028368794,465.673758865 L343.04964539,466.666666667 L315.24822695,457.730496454 L314.255319149,453.758865248 Z" fill="#cee3f5" id="CN.shaanxi.3221011" stroke="#6e6e6e" stroke-width="0.4"><desc><name>Qian County</name><admin_leve>6</admin_leve><wikipedia>en:Qian County</wikipedia><localname>乾县 (Qian)</localname><boundary>administrative</boundary><id>CN.shaanxi.3221011</id></desc></path><path d="M363.90070922,457.730496454 L373.829787234,455.744680851 L385.744680851,463.687943262 L383.758865248,469.645390071 L373.829787234,475.602836879 L368.865248227,473.617021277 L363.90070922,457.730496454 Z" fill="#cee3f5" id="CN.shaanxi.3221012" stroke="#6e6e6e" stroke-width="0.4"><desc><name>Qindu District</name><admin_leve>6</admin_leve><wikipedia>en:Qindu District</wikipedia><localname>秦都区 (Qindu)</localname><boundary>administrative</boundary><id>CN.shaanxi.3221012</id></desc></path><path d="M386.737588652,424.964539007 L400.638297872,422.978723404 L419.503546099,433.90070922 L416.524822695,439.858156028 L414.539007092,444.822695035 L398.65248227,446.808510638 L383.758865248,430.921985816 L386.737588652,424.964539007 Z" fill="#cee3f5" id="CN.shaanxi.3221013" stroke="#6e6e6e" stroke-width="0.4"><desc><name>Sanyuan County</name><admin_leve>6</admin_leve><wikipedia>en:Sanyuan County</wikipedia><localname>三原县 (Sanyuan)</localname><boundary>administrative</boundary><id>CN.shaanxi.3221013</id></desc></path><path d="M375.815602837,453.758865248 L399.645390071,457.730496454 L399.645390071,458.723404255 L385.744680851,463.687943262 L373.829787234,455.744680851 L375.815602837,453.758865248 Z" fill="#cee3f5" id="CN.shaanxi.3221014" stroke="#6e6e6e" stroke-width="0.4"><desc><name>Weicheng District</name><admin_leve>6</admin_leve><wikipedia>en:Weicheng District, Xianyang</wikipedia><localname>渭城区 (Weicheng)</localname><boundary>administrative</boundary><id>CN.shaanxi.3221014</id></desc></path><path d="M315.24822695,457.730496454 L343.04964539,466.666666667 L340.070921986,477.588652482 L323.191489362,476.595744681 L318.226950355,467.659574468 L315.24822695,457.730496454 Z" fill="#cee3f5" id="CN.shaanxi.3221015" stroke="#6e6e6e" stroke-width="0.4"><desc><name>Wugong County</name><admin_leve>6</admin_leve><wikipedia>en:Wugong County</wikipedia><localname>武功县 (Wugong)</localname><boundary>administrative</boundary><id>CN.shaanxi.3221015</id></desc></path><path d="M343.04964539,466.666666667 L346.028368794,465.673758865 L363.90070922,457.730496454 L368.865248227,473.617021277 L358.936170213,476.595744681 L340.070921986,477.588652482 L343.04964539,466.666666667 Z" fill="#cee3f5" id="CN.shaanxi.3221016" stroke="#6e6e6e" stroke-width="0.4"><desc><name>Xingping City</name><admin_leve>6</admin_leve><wikipedia>en:Xingping</wikipedia><localname>兴平市 (Xingping)</localname><boundary>administrative</boundary><id>CN.shaanxi.3221016</id></desc></path><path d="M324.184397163,382.269503546 L335.106382979,384.255319149 L365.886524823,379.290780142 L368.865248227,358.439716312 L390.709219858,376.312056738 L389.716312057,379.290780142 L373.829787234,388.226950355 L365.886524823,404.113475177 L345.035460993,412.056737589 L329.14893617,403.120567376 L334.113475177,391.205673759 L324.184397163,382.269503546 Z" fill="#cee3f5" id="CN.shaanxi.3221017" stroke="#6e6e6e" stroke-width="0.4"><desc><name>Xunyi County</name><admin_leve>6</admin_leve><wikipedia>en:Xunyi County</wikipedia><localname>旬邑县 (Xunyi)</localname><boundary>administrative</boundary><id>CN.shaanxi.3221017</id></desc></path><path d="M318.226950355,467.659574468 L323.191489362,476.595744681 L315.24822695,476.595744681 L313.262411348,475.602836879 L318.226950355,467.659574468 Z" fill="#cee3f5" id="CN.shaanxi.3221018" stroke="#6e6e6e" stroke-width="0.4"><desc><name>Yangling District</name><admin_leve>6</admin_leve><wikipedia>en:Yangling District</wikipedia><localname>杨陵区 (Yangling)</localname><boundary>administrative</boundary><id>CN.shaanxi.3221018</id></desc></path><path d="M308.29787234,420.0 L331.134751773,411.063829787 L342.056737589,419.007092199 L345.035460993,421.985815603 L340.070921986,430.921985816 L316.241134752,435.886524823 L308.29787234,420.0 M313.262411348,441.843971631 L317.234042553,441.843971631 L314.255319149,453.758865248 L313.262411348,441.843971631 Z" fill="#cee3f5" id="CN.shaanxi.3221019" stroke="#6e6e6e" stroke-width="0.4"><desc><name>Yongshou County</name><admin_leve>6</admin_leve><wikipedia>en:Yongshou County</wikipedia><localname>永寿县 (Yongshou)</localname><boundary>administrative</boundary><id>CN.shaanxi.3221019</id></desc></path><path d="M402.624113475,470.638297872 L404.609929078,457.730496454 L416.524822695,456.737588652 L426.453900709,467.659574468 L416.524822695,480.567375887 L407.588652482,479.574468085 L405.602836879,474.609929078 L402.624113475,470.638297872 Z" fill="#cee3f5" id="CN.shaanxi.3226087" stroke="#6e6e6e" stroke-width="0.4"><desc><name>Baqiao District</name><admin_leve>6</admin_leve><wikipedia>en:Baqiao District</wikipedia><localname>灞桥区 (Baqiao)</localname><boundary>administrative</boundary><id>CN.shaanxi.3226087</id></desc></path><path d="M394.680851064,475.602836879 L397.659574468,473.617021277 L403.617021277,474.609929078 L394.680851064,475.602836879 Z" fill="#cee3f5" id="CN.shaanxi.3226088" stroke="#6e6e6e" stroke-width="0.4"><desc><name>Beilin District</name><admin_leve>6</admin_leve><wikipedia>en:Beilin District, Xi'an</wikipedia><localname>碑林区 (Beilin)</localname><boundary>administrative</boundary><id>CN.shaanxi.3226088</id></desc></path><path d="M373.829787234,475.602836879 L383.758865248,469.645390071 L385.744680851,474.609929078 L407.588652482,479.574468085 L416.524822695,480.567375887 L423.475177305,507.375886525 L407.588652482,503.404255319 L387.730496454,513.333333333 L375.815602837,511.34751773 L382.765957447,502.411347518 L373.829787234,475.602836879 Z" fill="#cee3f5" id="CN.shaanxi.3226089" stroke="#6e6e6e" stroke-width="0.4"><desc><name>Chang'an District</name><admin_leve>6</admin_leve><wikipedia>en:Chang'an District, Xi'an</wikipedia><localname>长安区 (Chang'an)</localname><boundary>administrative</boundary><id>CN.shaanxi.3226089</id></desc></path><path d="M398.65248227,446.808510638 L414.539007092,444.822695035 L416.524822695,456.737588652 L404.609929078,457.730496454 L399.645390071,458.723404255 L399.645390071,457.730496454 L398.65248227,446.808510638 Z" fill="#cee3f5" id="CN.shaanxi.3226090" stroke="#6e6e6e" stroke-width="0.4"><desc><name>Gaoling County</name><admin_leve>6</admin_leve><wikipedia>zh:高陵区</wikipedia><localname>高陵县 (Gaoling)</localname><boundary>administrative</boundary><id>CN.shaanxi.3226090</id></desc></path><path d="M346.028368794,515.319148936 L358.936170213,476.595744681 L368.865248227,473.617021277 L373.829787234,475.602836879 L382.765957447,502.411347518 L375.815602837,511.34751773 L346.028368794,515.319148936 Z" fill="#cee3f5" id="CN.shaanxi.3226091" stroke="#6e6e6e" stroke-width="0.4"><desc><name>Hu County</name><admin_leve>6</admin_leve><wikipedia>en:Hu County</wikipedia><localname>户县 (Hu)</localname><boundary>administrative</boundary><id>CN.shaanxi.3226091</id></desc></path><path d="M416.524822695,480.567375887 L426.453900709,467.659574468 L443.333333333,467.659574468 L464.184397163,474.609929078 L470.141843972,476.595744681 L475.106382979,481.560283688 L454.255319149,490.496453901 L447.304964539,510.354609929 L423.475177305,507.375886525 L416.524822695,480.567375887 Z" fill="#cee3f5" id="CN.shaanxi.3226092" stroke="#6e6e6e" stroke-width="0.4"><desc><name>Lantian County</name><admin_leve>6</admin_leve><wikipedia>en:Lantian County</wikipedia><localname>蓝田县 (Lantian)</localname><boundary>administrative</boundary><id>CN.shaanxi.3226092</id></desc></path><path d="M397.659574468,470.638297872 L397.659574468,473.617021277 L394.680851064,475.602836879 L389.716312057,473.617021277 L397.659574468,470.638297872 Z" fill="#cee3f5" id="CN.shaanxi.3226093" stroke="#6e6e6e" stroke-width="0.4"><desc><name>Lianhu District</name><admin_leve>6</admin_leve><wikipedia>en:Lianhu District</wikipedia><localname>莲湖区 (Lianhu)</localname><boundary>administrative</boundary><id>CN.shaanxi.3226093</id></desc></path><path d="M416.524822695,456.737588652 L414.539007092,444.822695035 L416.524822695,439.858156028 L440.354609929,437.872340426 L443.333333333,467.659574468 L426.453900709,467.659574468 L416.524822695,456.737588652 Z" fill="#cee3f5" id="CN.shaanxi.3226094" stroke="#6e6e6e" stroke-width="0.4"><desc><name>Lintong District</name><admin_leve>6</admin_leve><wikipedia>en:Lintong District</wikipedia><localname>临潼区 (Chang'an)</localname><boundary>administrative</boundary><id>CN.shaanxi.3226094</id></desc></path><path d="M383.758865248,469.645390071 L385.744680851,463.687943262 L399.645390071,458.723404255 L404.609929078,457.730496454 L402.624113475,470.638297872 L397.659574468,470.638297872 L389.716312057,473.617021277 L385.744680851,474.609929078 L383.758865248,469.645390071 Z" fill="#cee3f5" id="CN.shaanxi.3226095" stroke="#6e6e6e" stroke-width="0.4"><desc><name>Weiyang District</name><admin_leve>6</admin_leve><wikipedia>en:Weiyang District, Xi'an</wikipedia><localname>未央区 (Weiyang)</localname><boundary>administrative</boundary><id>CN.shaanxi.3226095</id></desc></path><path d="M397.659574468,473.617021277 L397.659574468,470.638297872 L402.624113475,470.638297872 L405.602836879,474.609929078 L403.617021277,474.609929078 L397.659574468,473.617021277 Z" fill="#cee3f5" id="CN.shaanxi.3226096" stroke="#6e6e6e" stroke-width="0.4"><desc><name>Xincheng District</name><admin_leve>6</admin_leve><wikipedia>en:Xincheng District, Xi'an</wikipedia><localname>新城区 (Xincheng)</localname><boundary>administrative</boundary><id>CN.shaanxi.3226096</id></desc></path><path d="M416.524822695,439.858156028 L419.503546099,433.90070922 L439.361702128,429.929078014 L440.354609929,437.872340426 L416.524822695,439.858156028 Z" fill="#cee3f5" id="CN.shaanxi.3226097" stroke="#6e6e6e" stroke-width="0.4"><desc><name>Yanliang District</name><admin_leve>6</admin_leve><wikipedia>en:Yanliang District</wikipedia><localname>阎良区 (Yanliang)</localname><boundary>administrative</boundary><id>CN.shaanxi.3226097</id></desc></path><path d="M385.744680851,474.609929078 L389.716312057,473.617021277 L394.680851064,475.602836879 L403.617021277,474.609929078 L405.602836879,474.609929078 L407.588652482,479.574468085 L385.744680851,474.609929078 Z" fill="#cee3f5" id="CN.shaanxi.3226098" stroke="#6e6e6e" stroke-width="0.4"><desc><name>Yanta District</name><admin_leve>6</admin_leve><wikipedia>en:Yanta District</wikipedia><localname>雁塔区 (Yanta)</localname><boundary>administrative</boundary><id>CN.shaanxi.3226098</id></desc></path><path d="M294.397163121,498.439716312 L307.304964539,495.460992908 L315.24822695,476.595744681 L323.191489362,476.595744681 L340.070921986,477.588652482 L358.936170213,476.595744681 L346.028368794,515.319148936 L318.226950355,522.269503546 L286.453900709,521.276595745 L294.397163121,498.439716312 Z" fill="#cee3f5" id="CN.shaanxi.3226099" stroke="#6e6e6e" stroke-width="0.4"><desc><name>Zhouzhi County</name><admin_leve>6</admin_leve><wikipedia>en:Zhouzhi County</wikipedia><localname>周至县 (Zhouzhi)</localname><boundary>administrative</boundary><id>CN.shaanxi.3226099</id></desc></path><path d="M398.65248227,391.205673759 L414.539007092,408.085106383 L411.560283688,411.063829787 L398.65248227,391.205673759 Z" fill="#cee3f5" id="CN.shaanxi.3226167" stroke="#6e6e6e" stroke-width="0.4"><desc><name>Wangyi District</name><admin_leve>6</admin_leve><wikipedia>en:Wangyi District</wikipedia><localname>王益区 (Wangyi)</localname><boundary>administrative</boundary><id>CN.shaanxi.3226167</id></desc></path><path d="M365.886524823,404.113475177 L373.829787234,388.226950355 L389.716312057,379.290780142 L398.65248227,391.205673759 L411.560283688,411.063829787 L400.638297872,422.978723404 L386.737588652,424.964539007 L365.886524823,404.113475177 Z" fill="#cee3f5" id="CN.shaanxi.3226168" stroke="#6e6e6e" stroke-width="0.4"><desc><name>Yaozhou District</name><admin_leve>6</admin_leve><wikipedia>en:Yaozhou District</wikipedia><localname>耀州区 (Yaozhou)</localname><boundary>administrative</boundary><id>CN.shaanxi.3226168</id></desc></path><path d="M395.673758865,375.319148936 L405.602836879,359.432624113 L417.517730496,355.460992908 L442.340425532,361.418439716 L446.312056738,375.319148936 L427.446808511,384.255319149 L411.560283688,396.170212766 L395.673758865,375.319148936 Z" fill="#cee3f5" id="CN.shaanxi.3226169" stroke="#6e6e6e" stroke-width="0.4"><desc><name>Yijun County</name><admin_leve>6</admin_leve><wikipedia>en:Yijun County</wikipedia><localname>宜君县 (Yijun)</localname><boundary>administrative</boundary><id>CN.shaanxi.3226169</id></desc></path><path d="M389.716312057,379.290780142 L390.709219858,376.312056738 L395.673758865,375.319148936 L411.560283688,396.170212766 L427.446808511,384.255319149 L442.340425532,393.191489362 L440.354609929,402.127659574 L428.439716312,397.163120567 L414.539007092,408.085106383 L398.65248227,391.205673759 L389.716312057,379.290780142 Z" fill="#cee3f5" id="CN.shaanxi.3226170" stroke="#6e6e6e" stroke-width="0.4"><desc><name>Yintai District</name><admin_leve>6</admin_leve><wikipedia>en:Yintai District</wikipedia><localname>印台区 (Yintai)</localname><boundary>administrative</boundary><id>CN.shaanxi.3226170</id></desc></path></svg>