<?xml version='1.0' encoding='utf-8'?>
<svg height="700" width="700" xmlns="http://www.w3.org/2000/svg"><path d="M0.960219478738,421.056241427 L48.9711934156,422.016460905 L49.9314128944,454.663923182 L46.0905349794,454.663923182 L0.960219478738,454.663923182 L0.960219478738,421.056241427 Z" fill="#cee3f5" id="US.KS.187" stroke="#6e6e6e" stroke-width="0.4"><desc><name>Stanton County</name><stateAbbrev>KS</stateAbbrev><state>Kansas</state><fips>187</fips><incits>20187</incits><id>US.KS.187</id><population>2194</population></desc></path><path d="M409.053497942,380.72702332 L440.740740741,380.72702332 L460.905349794,380.72702332 L460.905349794,388.40877915 L460.905349794,404.732510288 L409.053497942,404.732510288 L409.053497942,380.72702332 Z" fill="#cee3f5" id="US.KS.079" stroke="#6e6e6e" stroke-width="0.4"><desc><name>Harvey County</name><stateAbbrev>KS</stateAbbrev><state>Kansas</state><fips>079</fips><incits>20079</incits><id>US.KS.079</id><population>34741</population></desc></path><path d="M387.92866941,348.079561043 L387.92866941,339.437585734 L440.740740741,339.437585734 L440.740740741,380.72702332 L409.053497942,380.72702332 L388.888888889,380.72702332 L387.92866941,348.079561043 Z" fill="#cee3f5" id="US.KS.113" stroke="#6e6e6e" stroke-width="0.4"><desc><name>McPherson County</name><stateAbbrev>KS</stateAbbrev><state>Kansas</state><fips>113</fips><incits>20113</incits><id>US.KS.113</id><population>29569</population></desc></path><path d="M399.451303155,422.016460905 L410.013717421,422.016460905 L409.053497942,404.732510288 L460.905349794,404.732510288 L460.905349794,446.021947874 L399.451303155,446.021947874 L399.451303155,422.016460905 Z" fill="#cee3f5" id="US.KS.173" stroke="#6e6e6e" stroke-width="0.4"><desc><name>Sedgwick County</name><stateAbbrev>KS</stateAbbrev><state>Kansas</state><fips>173</fips><incits>20173</incits><id>US.KS.173</id><population>505415</population></desc></path><path d="M348.559670782,454.663923182 L399.451303155,454.663923182 L399.451303155,491.152263374 L348.559670782,491.152263374 L348.559670782,454.663923182 Z" fill="#cee3f5" id="US.KS.077" stroke="#6e6e6e" stroke-width="0.4"><desc><name>Harper County</name><stateAbbrev>KS</stateAbbrev><state>Kansas</state><fips>077</fips><incits>20077</incits><id>US.KS.077</id><population>5860</population></desc></path><path d="M337.037037037,380.72702332 L388.888888889,380.72702332 L409.053497942,380.72702332 L409.053497942,404.732510288 L410.013717421,422.016460905 L399.451303155,422.016460905 L337.037037037,422.016460905 L337.037037037,413.374485597 L337.037037037,380.72702332 Z" fill="#cee3f5" id="US.KS.155" stroke="#6e6e6e" stroke-width="0.4"><desc><name>Reno County</name><stateAbbrev>KS</stateAbbrev><state>Kansas</state><fips>155</fips><incits>20155</incits><id>US.KS.155</id><population>64190</population></desc></path><path d="M656.790123457,458.504801097 L699.039780521,459.465020576 L699.039780521,491.152263374 L656.790123457,491.152263374 L656.790123457,458.504801097 Z" fill="#cee3f5" id="US.KS.021" stroke="#6e6e6e" stroke-width="0.4"><desc><name>Cherokee County</name><stateAbbrev>KS</stateAbbrev><state>Kansas</state><fips>021</fips><incits>20021</incits><id>US.KS.021</id><population>20978</population></desc></path><path d="M122.908093278,249.176954733 L123.868312757,208.847736626 L176.680384088,208.847736626 L175.720164609,249.176954733 L124.828532236,249.176954733 L122.908093278,249.176954733 Z" fill="#cee3f5" id="US.KS.039" stroke="#6e6e6e" stroke-width="0.4"><desc><name>Decatur County</name><stateAbbrev>KS</stateAbbrev><state>Kansas</state><fips>039</fips><incits>20039</incits><id>US.KS.039</id><population>2930</population></desc></path><path d="M230.452674897,331.755829904 L231.412894376,290.466392318 L282.304526749,290.466392318 L283.264746228,290.466392318 L283.264746228,330.795610425 L232.373113855,331.755829904 L230.452674897,331.755829904 Z" fill="#cee3f5" id="US.KS.051" stroke="#6e6e6e" stroke-width="0.4"><desc><name>Ellis County</name><stateAbbrev>KS</stateAbbrev><state>Kansas</state><fips>051</fips><incits>20051</incits><id>US.KS.051</id><population>29061</population></desc></path><path d="M655.829903978,393.209876543 L656.790123457,360.562414266 L700.0,360.562414266 L700.0,393.209876543 L655.829903978,393.209876543 Z" fill="#cee3f5" id="US.KS.107" stroke="#6e6e6e" stroke-width="0.4"><desc><name>Linn County</name><stateAbbrev>KS</stateAbbrev><state>Kansas</state><fips>107</fips><incits>20107</incits><id>US.KS.107</id><population>9516</population></desc></path><path d="M335.11659808,281.82441701 L335.11659808,249.176954733 L387.92866941,249.176954733 L387.92866941,274.14266118 L387.92866941,281.82441701 L335.11659808,281.82441701 Z" fill="#cee3f5" id="US.KS.123" stroke="#6e6e6e" stroke-width="0.4"><desc><name>Mitchell County</name><stateAbbrev>KS</stateAbbrev><state>Kansas</state><fips>123</fips><incits>20123</incits><id>US.KS.123</id><population>6378</population></desc></path><path d="M589.574759945,241.495198903 L589.574759945,208.847736626 L631.82441701,208.847736626 L631.82441701,241.495198903 L610.699588477,241.495198903 L589.574759945,241.495198903 Z" fill="#cee3f5" id="US.KS.013" stroke="#6e6e6e" stroke-width="0.4"><desc><name>Brown County</name><stateAbbrev>KS</stateAbbrev><state>Kansas</state><fips>013</fips><incits>20013</incits><id>US.KS.013</id><population>9997</population></desc></path><path d="M609.739368999,263.580246914 L610.699588477,241.495198903 L631.82441701,241.495198903 L652.949245542,241.495198903 L658.710562414,245.336076818 L653.909465021,252.057613169 L666.392318244,263.580246914 L646.227709191,263.580246914 L609.739368999,263.580246914 Z" fill="#cee3f5" id="US.KS.005" stroke="#6e6e6e" stroke-width="0.4"><desc><name>Atchison County</name><stateAbbrev>KS</stateAbbrev><state>Kansas</state><fips>005</fips><incits>20005</incits><id>US.KS.005</id><population>16749</population></desc></path><path d="M280.384087791,249.176954733 L280.384087791,208.847736626 L334.156378601,208.847736626 L333.196159122,249.176954733 L283.264746228,249.176954733 L280.384087791,249.176954733 Z" fill="#cee3f5" id="US.KS.183" stroke="#6e6e6e" stroke-width="0.4"><desc><name>Smith County</name><stateAbbrev>KS</stateAbbrev><state>Kansas</state><fips>183</fips><incits>20183</incits><id>US.KS.183</id><population>3706</population></desc></path><path d="M440.740740741,290.466392318 L440.740740741,274.14266118 L440.740740741,249.176954733 L479.14951989,249.176954733 L479.14951989,281.82441701 L479.14951989,290.466392318 L440.740740741,290.466392318 Z" fill="#cee3f5" id="US.KS.027" stroke="#6e6e6e" stroke-width="0.4"><desc><name>Clay County</name><stateAbbrev>KS</stateAbbrev><state>Kansas</state><fips>027</fips><incits>20027</incits><id>US.KS.027</id><population>8406</population></desc></path><path d="M228.53223594,208.847736626 L280.384087791,208.847736626 L280.384087791,249.176954733 L230.452674897,249.176954733 L227.572016461,249.176954733 L228.53223594,208.847736626 Z" fill="#cee3f5" id="US.KS.147" stroke="#6e6e6e" stroke-width="0.4"><desc><name>Phillips County</name><stateAbbrev>KS</stateAbbrev><state>Kansas</state><fips>147</fips><incits>20147</incits><id>US.KS.147</id><population>5540</population></desc></path><path d="M482.030178326,339.437585734 L482.030178326,320.233196159 L485.871056241,315.432098765 L522.359396433,314.471879287 L532.9218107,319.27297668 L535.802469136,326.95473251 L535.802469136,348.079561043 L492.592592593,347.119341564 L482.030178326,347.119341564 L482.030178326,339.437585734 Z" fill="#cee3f5" id="US.KS.127" stroke="#6e6e6e" stroke-width="0.4"><desc><name>Morris County</name><stateAbbrev>KS</stateAbbrev><state>Kansas</state><fips>127</fips><incits>20127</incits><id>US.KS.127</id><population>5741</population></desc></path><path d="M48.0109739369,372.085048011 L87.3799725652,372.085048011 L89.3004115226,372.085048011 L89.3004115226,413.374485597 L90.2606310014,422.016460905 L48.9711934156,422.016460905 L48.0109739369,413.374485597 L48.0109739369,372.085048011 Z" fill="#cee3f5" id="US.KS.093" stroke="#6e6e6e" stroke-width="0.4"><desc><name>Kearny County</name><stateAbbrev>KS</stateAbbrev><state>Kansas</state><fips>093</fips><incits>20093</incits><id>US.KS.093</id><population>3923</population></desc></path><path d="M655.829903978,393.209876543 L700.0,393.209876543 L699.039780521,427.777777778 L654.869684499,427.777777778 L654.869684499,422.016460905 L655.829903978,393.209876543 Z" fill="#cee3f5" id="US.KS.011" stroke="#6e6e6e" stroke-width="0.4"><desc><name>Bourbon County</name><stateAbbrev>KS</stateAbbrev><state>Kansas</state><fips>011</fips><incits>20011</incits><id>US.KS.011</id><population>14852</population></desc></path><path d="M519.478737997,462.345679012 L519.478737997,446.021947874 L519.478737997,433.53909465 L573.251028807,434.499314129 L573.251028807,454.663923182 L573.251028807,462.345679012 L519.478737997,462.345679012 Z" fill="#cee3f5" id="US.KS.049" stroke="#6e6e6e" stroke-width="0.4"><desc><name>Elk County</name><stateAbbrev>KS</stateAbbrev><state>Kansas</state><fips>049</fips><incits>20049</incits><id>US.KS.049</id><population>2655</population></desc></path><path d="M171.879286694,404.732510288 L171.879286694,397.050754458 L171.879286694,372.085048011 L232.373113855,372.085048011 L233.333333333,388.40877915 L233.333333333,404.732510288 L171.879286694,404.732510288 Z" fill="#cee3f5" id="US.KS.083" stroke="#6e6e6e" stroke-width="0.4"><desc><name>Hodgeman County</name><stateAbbrev>KS</stateAbbrev><state>Kansas</state><fips>083</fips><incits>20083</incits><id>US.KS.083</id><population>1950</population></desc></path><path d="M131.550068587,446.021947874 L172.839506173,446.021947874 L183.401920439,446.021947874 L184.362139918,454.663923182 L184.362139918,491.152263374 L133.470507545,491.152263374 L131.550068587,454.663923182 L131.550068587,446.021947874 Z" fill="#cee3f5" id="US.KS.119" stroke="#6e6e6e" stroke-width="0.4"><desc><name>Meade County</name><stateAbbrev>KS</stateAbbrev><state>Kansas</state><fips>119</fips><incits>20119</incits><id>US.KS.119</id><population>4343</population></desc></path><path d="M614.540466392,393.209876543 L615.500685871,360.562414266 L656.790123457,360.562414266 L655.829903978,393.209876543 L614.540466392,393.209876543 Z" fill="#cee3f5" id="US.KS.003" stroke="#6e6e6e" stroke-width="0.4"><desc><name>Anderson County</name><stateAbbrev>KS</stateAbbrev><state>Kansas</state><fips>003</fips><incits>20003</incits><id>US.KS.003</id><population>7897</population></desc></path><path d="M233.333333333,388.40877915 L254.458161866,388.40877915 L254.458161866,397.050754458 L285.185185185,397.050754458 L286.145404664,413.374485597 L286.145404664,422.016460905 L234.293552812,422.016460905 L233.333333333,404.732510288 L233.333333333,388.40877915 Z" fill="#cee3f5" id="US.KS.047" stroke="#6e6e6e" stroke-width="0.4"><desc><name>Edwards County</name><stateAbbrev>KS</stateAbbrev><state>Kansas</state><fips>047</fips><incits>20047</incits><id>US.KS.047</id><population>2945</population></desc></path><path d="M45.1303155007,330.795610425 L53.7722908093,330.795610425 L86.4197530864,330.795610425 L87.3799725652,372.085048011 L48.0109739369,372.085048011 L46.0905349794,372.085048011 L45.1303155007,330.795610425 Z" fill="#cee3f5" id="US.KS.203" stroke="#6e6e6e" stroke-width="0.4"><desc><name>Wichita County</name><stateAbbrev>KS</stateAbbrev><state>Kansas</state><fips>203</fips><incits>20203</incits><id>US.KS.203</id><population>2192</population></desc></path><path d="M336.076817558,372.085048011 L336.076817558,348.079561043 L387.92866941,348.079561043 L388.888888889,380.72702332 L337.037037037,380.72702332 L336.076817558,372.085048011 Z" fill="#cee3f5" id="US.KS.159" stroke="#6e6e6e" stroke-width="0.4"><desc><name>Rice County</name><stateAbbrev>KS</stateAbbrev><state>Kansas</state><fips>159</fips><incits>20159</incits><id>US.KS.159</id><population>10011</population></desc></path><path d="M62.414266118,290.466392318 L62.414266118,249.176954733 L122.908093278,249.176954733 L124.828532236,249.176954733 L124.828532236,290.466392318 L116.186556927,290.466392318 L62.414266118,290.466392318 Z" fill="#cee3f5" id="US.KS.193" stroke="#6e6e6e" stroke-width="0.4"><desc><name>Thomas County</name><stateAbbrev>KS</stateAbbrev><state>Kansas</state><fips>193</fips><incits>20193</incits><id>US.KS.193</id><population>7948</population></desc></path><path d="M285.185185185,397.050754458 L294.787379973,397.050754458 L294.787379973,372.085048011 L336.076817558,372.085048011 L337.037037037,380.72702332 L337.037037037,413.374485597 L286.145404664,413.374485597 L285.185185185,397.050754458 Z" fill="#cee3f5" id="US.KS.185" stroke="#6e6e6e" stroke-width="0.4"><desc><name>Stafford County</name><stateAbbrev>KS</stateAbbrev><state>Kansas</state><fips>185</fips><incits>20185</incits><id>US.KS.185</id><population>4359</population></desc></path><path d="M175.720164609,249.176954733 L176.680384088,208.847736626 L228.53223594,208.847736626 L227.572016461,249.176954733 L177.640603567,249.176954733 L175.720164609,249.176954733 Z" fill="#cee3f5" id="US.KS.137" stroke="#6e6e6e" stroke-width="0.4"><desc><name>Norton County</name><stateAbbrev>KS</stateAbbrev><state>Kansas</state><fips>137</fips><incits>20137</incits><id>US.KS.137</id><population>5622</population></desc></path><path d="M48.9711934156,422.016460905 L90.2606310014,422.016460905 L90.2606310014,454.663923182 L49.9314128944,454.663923182 L48.9711934156,422.016460905 Z" fill="#cee3f5" id="US.KS.067" stroke="#6e6e6e" stroke-width="0.4"><desc><name>Grant County</name><stateAbbrev>KS</stateAbbrev><state>Kansas</state><fips>067</fips><incits>20067</incits><id>US.KS.067</id><population>7950</population></desc></path><path d="M519.478737997,491.152263374 L519.478737997,462.345679012 L573.251028807,462.345679012 L572.290809328,491.152263374 L519.478737997,491.152263374 Z" fill="#cee3f5" id="US.KS.019" stroke="#6e6e6e" stroke-width="0.4"><desc><name>Chautauqua County</name><stateAbbrev>KS</stateAbbrev><state>Kansas</state><fips>019</fips><incits>20019</incits><id>US.KS.019</id><population>3552</population></desc></path><path d="M0.0,290.466392318 L53.7722908093,290.466392318 L53.7722908093,330.795610425 L45.1303155007,330.795610425 L0.960219478738,331.755829904 L0.0,290.466392318 Z" fill="#cee3f5" id="US.KS.199" stroke="#6e6e6e" stroke-width="0.4"><desc><name>Wallace County</name><stateAbbrev>KS</stateAbbrev><state>Kansas</state><fips>199</fips><incits>20199</incits><id>US.KS.199</id><population>1569</population></desc></path><path d="M230.452674897,290.466392318 L230.452674897,249.176954733 L280.384087791,249.176954733 L283.264746228,249.176954733 L282.304526749,290.466392318 L231.412894376,290.466392318 L230.452674897,290.466392318 Z" fill="#cee3f5" id="US.KS.163" stroke="#6e6e6e" stroke-width="0.4"><desc><name>Rooks County</name><stateAbbrev>KS</stateAbbrev><state>Kansas</state><fips>163</fips><incits>20163</incits><id>US.KS.163</id><population>5190</population></desc></path><path d="M565.569272977,249.176954733 L589.574759945,249.176954733 L589.574759945,241.495198903 L610.699588477,241.495198903 L609.739368999,263.580246914 L607.818930041,282.784636488 L565.569272977,282.784636488 L565.569272977,249.176954733 Z" fill="#cee3f5" id="US.KS.085" stroke="#6e6e6e" stroke-width="0.4"><desc><name>Jackson County</name><stateAbbrev>KS</stateAbbrev><state>Kansas</state><fips>085</fips><incits>20085</incits><id>US.KS.085</id><population>13366</population></desc></path><path d="M0.960219478738,454.663923182 L46.0905349794,454.663923182 L47.0507544582,491.152263374 L0.960219478738,491.152263374 L0.960219478738,454.663923182 Z" fill="#cee3f5" id="US.KS.129" stroke="#6e6e6e" stroke-width="0.4"><desc><name>Morton County</name><stateAbbrev>KS</stateAbbrev><state>Kansas</state><fips>129</fips><incits>20129</incits><id>US.KS.129</id><population>3143</population></desc></path><path d="M0.960219478738,372.085048011 L46.0905349794,372.085048011 L48.0109739369,372.085048011 L48.0109739369,413.374485597 L48.9711934156,422.016460905 L0.960219478738,421.056241427 L0.960219478738,372.085048011 Z" fill="#cee3f5" id="US.KS.075" stroke="#6e6e6e" stroke-width="0.4"><desc><name>Hamilton County</name><stateAbbrev>KS</stateAbbrev><state>Kansas</state><fips>075</fips><incits>20075</incits><id>US.KS.075</id><population>2609</population></desc></path><path d="M522.359396433,314.471879287 L522.359396433,299.108367627 L532.9218107,299.108367627 L532.9218107,286.625514403 L547.325102881,282.784636488 L561.728395062,284.705075446 L565.569272977,291.426611797 L574.211248285,293.347050754 L574.211248285,315.432098765 L574.211248285,326.95473251 L535.802469136,326.95473251 L532.9218107,319.27297668 L522.359396433,314.471879287 Z" fill="#cee3f5" id="US.KS.197" stroke="#6e6e6e" stroke-width="0.4"><desc><name>Wabaunsee County</name><stateAbbrev>KS</stateAbbrev><state>Kansas</state><fips>197</fips><incits>20197</incits><id>US.KS.197</id><population>7051</population></desc></path><path d="M479.14951989,281.82441701 L479.14951989,249.176954733 L493.552812071,249.176954733 L514.677640604,249.176954733 L501.234567901,264.540466392 L508.916323731,275.102880658 L522.359396433,286.625514403 L532.9218107,286.625514403 L532.9218107,299.108367627 L522.359396433,299.108367627 L522.359396433,296.227709191 L489.711934156,294.307270233 L489.711934156,281.82441701 L479.14951989,281.82441701 Z" fill="#cee3f5" id="US.KS.161" stroke="#6e6e6e" stroke-width="0.4"><desc><name>Riley County</name><stateAbbrev>KS</stateAbbrev><state>Kansas</state><fips>161</fips><incits>20161</incits><id>US.KS.161</id><population>75394</population></desc></path><path d="M171.879286694,397.050754458 L171.879286694,404.732510288 L172.839506173,446.021947874 L131.550068587,446.021947874 L131.550068587,422.016460905 L130.589849108,397.050754458 L171.879286694,397.050754458 Z" fill="#cee3f5" id="US.KS.069" stroke="#6e6e6e" stroke-width="0.4"><desc><name>Gray County</name><stateAbbrev>KS</stateAbbrev><state>Kansas</state><fips>069</fips><incits>20069</incits><id>US.KS.069</id><population>6009</population></desc></path><path d="M387.92866941,241.495198903 L387.92866941,208.847736626 L440.740740741,208.847736626 L440.740740741,241.495198903 L387.92866941,241.495198903 Z" fill="#cee3f5" id="US.KS.157" stroke="#6e6e6e" stroke-width="0.4"><desc><name>Republic County</name><stateAbbrev>KS</stateAbbrev><state>Kansas</state><fips>157</fips><incits>20157</incits><id>US.KS.157</id><population>4820</population></desc></path><path d="M60.4938271605,249.176954733 L60.4938271605,208.847736626 L123.868312757,208.847736626 L122.908093278,249.176954733 L62.414266118,249.176954733 L60.4938271605,249.176954733 Z" fill="#cee3f5" id="US.KS.153" stroke="#6e6e6e" stroke-width="0.4"><desc><name>Rawlins County</name><stateAbbrev>KS</stateAbbrev><state>Kansas</state><fips>153</fips><incits>20153</incits><id>US.KS.153</id><population>2589</population></desc></path><path d="M284.224965706,330.795610425 L335.11659808,331.755829904 L336.076817558,348.079561043 L336.076817558,372.085048011 L294.787379973,372.085048011 L284.224965706,372.085048011 L284.224965706,364.403292181 L284.224965706,330.795610425 Z" fill="#cee3f5" id="US.KS.009" stroke="#6e6e6e" stroke-width="0.4"><desc><name>Barton County</name><stateAbbrev>KS</stateAbbrev><state>Kansas</state><fips>009</fips><incits>20009</incits><id>US.KS.009</id><population>27509</population></desc></path><path d="M460.905349794,446.021947874 L519.478737997,446.021947874 L519.478737997,462.345679012 L519.478737997,491.152263374 L461.865569273,491.152263374 L460.905349794,446.021947874 Z" fill="#cee3f5" id="US.KS.035" stroke="#6e6e6e" stroke-width="0.4"><desc><name>Cowley County</name><stateAbbrev>KS</stateAbbrev><state>Kansas</state><fips>035</fips><incits>20035</incits><id>US.KS.035</id><population>36204</population></desc></path><path d="M439.780521262,306.790123457 L440.740740741,290.466392318 L479.14951989,290.466392318 L479.14951989,304.869684499 L485.871056241,315.432098765 L482.030178326,320.233196159 L482.030178326,339.437585734 L440.740740741,339.437585734 L439.780521262,306.790123457 Z" fill="#cee3f5" id="US.KS.041" stroke="#6e6e6e" stroke-width="0.4"><desc><name>Dickinson County</name><stateAbbrev>KS</stateAbbrev><state>Kansas</state><fips>041</fips><incits>20041</incits><id>US.KS.041</id><population>19609</population></desc></path><path d="M283.264746228,249.176954733 L333.196159122,249.176954733 L335.11659808,249.176954733 L335.11659808,281.82441701 L335.11659808,290.466392318 L283.264746228,290.466392318 L282.304526749,290.466392318 L283.264746228,249.176954733 Z" fill="#cee3f5" id="US.KS.141" stroke="#6e6e6e" stroke-width="0.4"><desc><name>Osborne County</name><stateAbbrev>KS</stateAbbrev><state>Kansas</state><fips>141</fips><incits>20141</incits><id>US.KS.141</id><population>3818</population></desc></path><path d="M53.7722908093,330.795610425 L53.7722908093,290.466392318 L62.414266118,290.466392318 L116.186556927,290.466392318 L116.186556927,330.795610425 L86.4197530864,330.795610425 L53.7722908093,330.795610425 Z" fill="#cee3f5" id="US.KS.109" stroke="#6e6e6e" stroke-width="0.4"><desc><name>Logan County</name><stateAbbrev>KS</stateAbbrev><state>Kansas</state><fips>109</fips><incits>20109</incits><id>US.KS.109</id><population>2798</population></desc></path><path d="M613.580246914,422.016460905 L614.540466392,393.209876543 L655.829903978,393.209876543 L654.869684499,422.016460905 L613.580246914,422.016460905 Z" fill="#cee3f5" id="US.KS.001" stroke="#6e6e6e" stroke-width="0.4"><desc><name>Allen County</name><stateAbbrev>KS</stateAbbrev><state>Kansas</state><fips>001</fips><incits>20001</incits><id>US.KS.001</id><population>13124</population></desc></path><path d="M519.478737997,433.53909465 L520.438957476,388.40877915 L535.802469136,388.40877915 L535.802469136,380.72702332 L573.251028807,380.72702332 L573.251028807,393.209876543 L573.251028807,422.016460905 L573.251028807,434.499314129 L519.478737997,433.53909465 Z" fill="#cee3f5" id="US.KS.073" stroke="#6e6e6e" stroke-width="0.4"><desc><name>Greenwood County</name><stateAbbrev>KS</stateAbbrev><state>Kansas</state><fips>073</fips><incits>20073</incits><id>US.KS.073</id><population>6424</population></desc></path><path d="M616.46090535,297.187928669 L630.864197531,300.068587106 L646.227709191,298.148148148 L648.148148148,304.869684499 L657.750342936,304.869684499 L657.750342936,326.95473251 L616.46090535,326.95473251 L616.46090535,315.432098765 L616.46090535,297.187928669 Z" fill="#cee3f5" id="US.KS.045" stroke="#6e6e6e" stroke-width="0.4"><desc><name>Douglas County</name><stateAbbrev>KS</stateAbbrev><state>Kansas</state><fips>045</fips><incits>20045</incits><id>US.KS.045</id><population>114322</population></desc></path><path d="M232.373113855,364.403292181 L284.224965706,364.403292181 L284.224965706,372.085048011 L294.787379973,372.085048011 L294.787379973,397.050754458 L285.185185185,397.050754458 L254.458161866,397.050754458 L254.458161866,388.40877915 L233.333333333,388.40877915 L232.373113855,372.085048011 L232.373113855,364.403292181 Z" fill="#cee3f5" id="US.KS.145" stroke="#6e6e6e" stroke-width="0.4"><desc><name>Pawnee County</name><stateAbbrev>KS</stateAbbrev><state>Kansas</state><fips>145</fips><incits>20145</incits><id>US.KS.145</id><population>6971</population></desc></path><path d="M574.211248285,355.761316872 L615.500685871,355.761316872 L615.500685871,360.562414266 L614.540466392,393.209876543 L573.251028807,393.209876543 L573.251028807,380.72702332 L574.211248285,355.761316872 Z" fill="#cee3f5" id="US.KS.031" stroke="#6e6e6e" stroke-width="0.4"><desc><name>Coffey County</name><stateAbbrev>KS</stateAbbrev><state>Kansas</state><fips>031</fips><incits>20031</incits><id>US.KS.031</id><population>8412</population></desc></path><path d="M460.905349794,388.40877915 L490.672153635,388.40877915 L520.438957476,388.40877915 L519.478737997,433.53909465 L519.478737997,446.021947874 L460.905349794,446.021947874 L460.905349794,404.732510288 L460.905349794,388.40877915 Z" fill="#cee3f5" id="US.KS.015" stroke="#6e6e6e" stroke-width="0.4"><desc><name>Butler County</name><stateAbbrev>KS</stateAbbrev><state>Kansas</state><fips>015</fips><incits>20015</incits><id>US.KS.015</id><population>65803</population></desc></path><path d="M440.740740741,208.847736626 L493.552812071,208.847736626 L493.552812071,249.176954733 L479.14951989,249.176954733 L440.740740741,249.176954733 L440.740740741,241.495198903 L440.740740741,208.847736626 Z" fill="#cee3f5" id="US.KS.201" stroke="#6e6e6e" stroke-width="0.4"><desc><name>Washington County</name><stateAbbrev>KS</stateAbbrev><state>Kansas</state><fips>201</fips><incits>20201</incits><id>US.KS.201</id><population>5629</population></desc></path><path d="M535.802469136,380.72702332 L535.802469136,348.079561043 L535.802469136,326.95473251 L574.211248285,326.95473251 L574.211248285,355.761316872 L573.251028807,380.72702332 L535.802469136,380.72702332 Z" fill="#cee3f5" id="US.KS.111" stroke="#6e6e6e" stroke-width="0.4"><desc><name>Lyon County</name><stateAbbrev>KS</stateAbbrev><state>Kansas</state><fips>111</fips><incits>20111</incits><id>US.KS.111</id><population>33510</population></desc></path><path d="M631.82441701,208.847736626 L659.670781893,221.330589849 L674.074074074,224.211248285 L658.710562414,245.336076818 L652.949245542,241.495198903 L631.82441701,241.495198903 L631.82441701,208.847736626 Z" fill="#cee3f5" id="US.KS.043" stroke="#6e6e6e" stroke-width="0.4"><desc><name>Doniphan County</name><stateAbbrev>KS</stateAbbrev><state>Kansas</state><fips>043</fips><incits>20043</incits><id>US.KS.043</id><population>7851</population></desc></path><path d="M128.669410151,330.795610425 L169.958847737,330.795610425 L169.958847737,372.085048011 L128.669410151,372.085048011 L128.669410151,330.795610425 Z" fill="#cee3f5" id="US.KS.101" stroke="#6e6e6e" stroke-width="0.4"><desc><name>Lane County</name><stateAbbrev>KS</stateAbbrev><state>Kansas</state><fips>101</fips><incits>20101</incits><id>US.KS.101</id><population>1720</population></desc></path><path d="M479.14951989,290.466392318 L479.14951989,281.82441701 L489.711934156,281.82441701 L489.711934156,294.307270233 L522.359396433,296.227709191 L522.359396433,299.108367627 L522.359396433,314.471879287 L485.871056241,315.432098765 L479.14951989,304.869684499 L479.14951989,290.466392318 Z" fill="#cee3f5" id="US.KS.061" stroke="#6e6e6e" stroke-width="0.4"><desc><name>Geary County</name><stateAbbrev>KS</stateAbbrev><state>Kansas</state><fips>061</fips><incits>20061</incits><id>US.KS.061</id><population>37384</population></desc></path><path d="M183.401920439,446.021947874 L235.253772291,446.982167353 L236.21399177,454.663923182 L236.21399177,491.152263374 L184.362139918,491.152263374 L184.362139918,454.663923182 L183.401920439,446.021947874 Z" fill="#cee3f5" id="US.KS.025" stroke="#6e6e6e" stroke-width="0.4"><desc><name>Clark County</name><stateAbbrev>KS</stateAbbrev><state>Kansas</state><fips>025</fips><incits>20025</incits><id>US.KS.025</id><population>2193</population></desc></path><path d="M0.0,249.176954733 L60.4938271605,249.176954733 L62.414266118,249.176954733 L62.414266118,290.466392318 L53.7722908093,290.466392318 L0.0,290.466392318 L0.0,249.176954733 Z" fill="#cee3f5" id="US.KS.181" stroke="#6e6e6e" stroke-width="0.4"><desc><name>Sherman County</name><stateAbbrev>KS</stateAbbrev><state>Kansas</state><fips>181</fips><incits>20181</incits><id>US.KS.181</id><population>6115</population></desc></path><path d="M514.677640604,249.176954733 L546.364883402,249.176954733 L565.569272977,249.176954733 L565.569272977,282.784636488 L565.569272977,291.426611797 L561.728395062,284.705075446 L547.325102881,282.784636488 L532.9218107,286.625514403 L522.359396433,286.625514403 L508.916323731,275.102880658 L501.234567901,264.540466392 L514.677640604,249.176954733 Z" fill="#cee3f5" id="US.KS.149" stroke="#6e6e6e" stroke-width="0.4"><desc><name>Pottawatomie County</name><stateAbbrev>KS</stateAbbrev><state>Kansas</state><fips>149</fips><incits>20149</incits><id>US.KS.149</id><population>22691</population></desc></path><path d="M171.879286694,404.732510288 L233.333333333,404.732510288 L234.293552812,422.016460905 L235.253772291,446.982167353 L183.401920439,446.021947874 L172.839506173,446.021947874 L171.879286694,404.732510288 Z" fill="#cee3f5" id="US.KS.057" stroke="#6e6e6e" stroke-width="0.4"><desc><name>Ford County</name><stateAbbrev>KS</stateAbbrev><state>Kansas</state><fips>057</fips><incits>20057</incits><id>US.KS.057</id><population>34819</population></desc></path><path d="M614.540466392,491.152263374 L614.540466392,454.663923182 L654.869684499,454.663923182 L656.790123457,458.504801097 L656.790123457,491.152263374 L614.540466392,491.152263374 Z" fill="#cee3f5" id="US.KS.099" stroke="#6e6e6e" stroke-width="0.4"><desc><name>Labette County</name><stateAbbrev>KS</stateAbbrev><state>Kansas</state><fips>099</fips><incits>20099</incits><id>US.KS.099</id><population>20916</population></desc></path><path d="M573.251028807,454.663923182 L573.251028807,434.499314129 L573.251028807,422.016460905 L613.580246914,422.016460905 L613.580246914,454.663923182 L573.251028807,454.663923182 Z" fill="#cee3f5" id="US.KS.205" stroke="#6e6e6e" stroke-width="0.4"><desc><name>Wilson County</name><stateAbbrev>KS</stateAbbrev><state>Kansas</state><fips>205</fips><incits>20205</incits><id>US.KS.205</id><population>9105</population></desc></path><path d="M169.958847737,330.795610425 L178.600823045,331.755829904 L230.452674897,331.755829904 L232.373113855,331.755829904 L232.373113855,364.403292181 L232.373113855,372.085048011 L171.879286694,372.085048011 L169.958847737,372.085048011 L169.958847737,330.795610425 Z" fill="#cee3f5" id="US.KS.135" stroke="#6e6e6e" stroke-width="0.4"><desc><name>Ness County</name><stateAbbrev>KS</stateAbbrev><state>Kansas</state><fips>135</fips><incits>20135</incits><id>US.KS.135</id><population>3073</population></desc></path><path d="M60.4938271605,208.847736626 L60.4938271605,249.176954733 L0.0,249.176954733 L0.0,208.847736626 L60.4938271605,208.847736626 Z" fill="#cee3f5" id="US.KS.023" stroke="#6e6e6e" stroke-width="0.4"><desc><name>Cheyenne County</name><stateAbbrev>KS</stateAbbrev><state>Kansas</state><fips>023</fips><incits>20023</incits><id>US.KS.023</id><population>2694</population></desc></path><path d="M565.569272977,291.426611797 L565.569272977,282.784636488 L607.818930041,282.784636488 L607.818930041,297.187928669 L616.46090535,297.187928669 L616.46090535,315.432098765 L574.211248285,315.432098765 L574.211248285,293.347050754 L565.569272977,291.426611797 Z" fill="#cee3f5" id="US.KS.177" stroke="#6e6e6e" stroke-width="0.4"><desc><name>Shawnee County</name><stateAbbrev>KS</stateAbbrev><state>Kansas</state><fips>177</fips><incits>20177</incits><id>US.KS.177</id><population>178831</population></desc></path><path d="M286.145404664,422.016460905 L286.145404664,413.374485597 L337.037037037,413.374485597 L337.037037037,422.016460905 L337.037037037,446.982167353 L286.145404664,446.982167353 L286.145404664,422.016460905 Z" fill="#cee3f5" id="US.KS.151" stroke="#6e6e6e" stroke-width="0.4"><desc><name>Pratt County</name><stateAbbrev>KS</stateAbbrev><state>Kansas</state><fips>151</fips><incits>20151</incits><id>US.KS.151</id><population>9878</population></desc></path><path d="M654.869684499,427.777777778 L699.039780521,427.777777778 L699.039780521,459.465020576 L656.790123457,458.504801097 L654.869684499,454.663923182 L654.869684499,427.777777778 Z" fill="#cee3f5" id="US.KS.037" stroke="#6e6e6e" stroke-width="0.4"><desc><name>Crawford County</name><stateAbbrev>KS</stateAbbrev><state>Kansas</state><fips>037</fips><incits>20037</incits><id>US.KS.037</id><population>39278</population></desc></path><path d="M0.960219478738,331.755829904 L45.1303155007,330.795610425 L46.0905349794,372.085048011 L0.960219478738,372.085048011 L0.960219478738,331.755829904 Z" fill="#cee3f5" id="US.KS.071" stroke="#6e6e6e" stroke-width="0.4"><desc><name>Greeley County</name><stateAbbrev>KS</stateAbbrev><state>Kansas</state><fips>071</fips><incits>20071</incits><id>US.KS.071</id><population>1290</population></desc></path><path d="M286.145404664,446.982167353 L337.037037037,446.982167353 L337.037037037,454.663923182 L348.559670782,454.663923182 L348.559670782,491.152263374 L287.105624143,491.152263374 L286.145404664,454.663923182 L286.145404664,446.982167353 Z" fill="#cee3f5" id="US.KS.007" stroke="#6e6e6e" stroke-width="0.4"><desc><name>Barber County</name><stateAbbrev>KS</stateAbbrev><state>Kansas</state><fips>007</fips><incits>20007</incits><id>US.KS.007</id><population>4947</population></desc></path><path d="M387.92866941,306.790123457 L439.780521262,306.790123457 L440.740740741,339.437585734 L387.92866941,339.437585734 L387.92866941,306.790123457 Z" fill="#cee3f5" id="US.KS.169" stroke="#6e6e6e" stroke-width="0.4"><desc><name>Saline County</name><stateAbbrev>KS</stateAbbrev><state>Kansas</state><fips>169</fips><incits>20169</incits><id>US.KS.169</id><population>55740</population></desc></path><path d="M387.92866941,249.176954733 L387.92866941,241.495198903 L440.740740741,241.495198903 L440.740740741,249.176954733 L440.740740741,274.14266118 L387.92866941,274.14266118 L387.92866941,249.176954733 Z" fill="#cee3f5" id="US.KS.029" stroke="#6e6e6e" stroke-width="0.4"><desc><name>Cloud County</name><stateAbbrev>KS</stateAbbrev><state>Kansas</state><fips>029</fips><incits>20029</incits><id>US.KS.029</id><population>9292</population></desc></path><path d="M89.3004115226,372.085048011 L128.669410151,372.085048011 L169.958847737,372.085048011 L171.879286694,372.085048011 L171.879286694,397.050754458 L130.589849108,397.050754458 L131.550068587,422.016460905 L90.2606310014,422.016460905 L89.3004115226,413.374485597 L89.3004115226,372.085048011 Z" fill="#cee3f5" id="US.KS.055" stroke="#6e6e6e" stroke-width="0.4"><desc><name>Finney County</name><stateAbbrev>KS</stateAbbrev><state>Kansas</state><fips>055</fips><incits>20055</incits><id>US.KS.055</id><population>37098</population></desc></path><path d="M124.828532236,249.176954733 L175.720164609,249.176954733 L177.640603567,249.176954733 L177.640603567,290.466392318 L124.828532236,290.466392318 L124.828532236,249.176954733 Z" fill="#cee3f5" id="US.KS.179" stroke="#6e6e6e" stroke-width="0.4"><desc><name>Sheridan County</name><stateAbbrev>KS</stateAbbrev><state>Kansas</state><fips>179</fips><incits>20179</incits><id>US.KS.179</id><population>2553</population></desc></path><path d="M656.790123457,360.562414266 L657.750342936,326.95473251 L700.0,327.914951989 L700.0,360.562414266 L656.790123457,360.562414266 Z" fill="#cee3f5" id="US.KS.121" stroke="#6e6e6e" stroke-width="0.4"><desc><name>Miami County</name><stateAbbrev>KS</stateAbbrev><state>Kansas</state><fips>121</fips><incits>20121</incits><id>US.KS.121</id><population>32835</population></desc></path><path d="M178.600823045,331.755829904 L178.600823045,290.466392318 L230.452674897,290.466392318 L231.412894376,290.466392318 L230.452674897,331.755829904 L178.600823045,331.755829904 Z" fill="#cee3f5" id="US.KS.195" stroke="#6e6e6e" stroke-width="0.4"><desc><name>Trego County</name><stateAbbrev>KS</stateAbbrev><state>Kansas</state><fips>195</fips><incits>20195</incits><id>US.KS.195</id><population>2980</population></desc></path><path d="M440.740740741,339.437585734 L482.030178326,339.437585734 L482.030178326,347.119341564 L492.592592593,347.119341564 L489.711934156,364.403292181 L490.672153635,388.40877915 L460.905349794,388.40877915 L460.905349794,380.72702332 L440.740740741,380.72702332 L440.740740741,339.437585734 Z" fill="#cee3f5" id="US.KS.115" stroke="#6e6e6e" stroke-width="0.4"><desc><name>Marion County</name><stateAbbrev>KS</stateAbbrev><state>Kansas</state><fips>115</fips><incits>20115</incits><id>US.KS.115</id><population>12219</population></desc></path><path d="M236.21399177,454.663923182 L286.145404664,454.663923182 L287.105624143,491.152263374 L236.21399177,491.152263374 L236.21399177,454.663923182 Z" fill="#cee3f5" id="US.KS.033" stroke="#6e6e6e" stroke-width="0.4"><desc><name>Comanche County</name><stateAbbrev>KS</stateAbbrev><state>Kansas</state><fips>033</fips><incits>20033</incits><id>US.KS.033</id><population>1955</population></desc></path><path d="M90.2606310014,422.016460905 L131.550068587,422.016460905 L131.550068587,446.021947874 L131.550068587,454.663923182 L92.1810699588,454.663923182 L90.2606310014,454.663923182 L90.2606310014,422.016460905 Z" fill="#cee3f5" id="US.KS.081" stroke="#6e6e6e" stroke-width="0.4"><desc><name>Haskell County</name><stateAbbrev>KS</stateAbbrev><state>Kansas</state><fips>081</fips><incits>20081</incits><id>US.KS.081</id><population>4141</population></desc></path><path d="M333.196159122,249.176954733 L334.156378601,208.847736626 L387.92866941,208.847736626 L387.92866941,241.495198903 L387.92866941,249.176954733 L335.11659808,249.176954733 L333.196159122,249.176954733 Z" fill="#cee3f5" id="US.KS.089" stroke="#6e6e6e" stroke-width="0.4"><desc><name>Jewell County</name><stateAbbrev>KS</stateAbbrev><state>Kansas</state><fips>089</fips><incits>20089</incits><id>US.KS.089</id><population>3046</population></desc></path><path d="M232.373113855,364.403292181 L232.373113855,331.755829904 L283.264746228,330.795610425 L284.224965706,330.795610425 L284.224965706,364.403292181 L232.373113855,364.403292181 Z" fill="#cee3f5" id="US.KS.165" stroke="#6e6e6e" stroke-width="0.4"><desc><name>Rush County</name><stateAbbrev>KS</stateAbbrev><state>Kansas</state><fips>165</fips><incits>20165</incits><id>US.KS.165</id><population>3186</population></desc></path><path d="M646.227709191,263.580246914 L666.392318244,263.580246914 L673.113854595,275.102880658 L684.63648834,283.744855967 L673.113854595,283.744855967 L672.153635117,303.909465021 L657.750342936,304.869684499 L648.148148148,304.869684499 L646.227709191,298.148148148 L646.227709191,263.580246914 Z" fill="#cee3f5" id="US.KS.103" stroke="#6e6e6e" stroke-width="0.4"><desc><name>Leavenworth County</name><stateAbbrev>KS</stateAbbrev><state>Kansas</state><fips>103</fips><incits>20103</incits><id>US.KS.103</id><population>78185</population></desc></path><path d="M657.750342936,304.869684499 L672.153635117,303.909465021 L674.074074074,298.148148148 L700.0,298.148148148 L700.0,327.914951989 L657.750342936,326.95473251 L657.750342936,304.869684499 Z" fill="#cee3f5" id="US.KS.091" stroke="#6e6e6e" stroke-width="0.4"><desc><name>Johnson County</name><stateAbbrev>KS</stateAbbrev><state>Kansas</state><fips>091</fips><incits>20091</incits><id>US.KS.091</id><population>566933</population></desc></path><path d="M116.186556927,330.795610425 L116.186556927,290.466392318 L124.828532236,290.466392318 L177.640603567,290.466392318 L178.600823045,290.466392318 L178.600823045,331.755829904 L169.958847737,330.795610425 L128.669410151,330.795610425 L116.186556927,330.795610425 Z" fill="#cee3f5" id="US.KS.063" stroke="#6e6e6e" stroke-width="0.4"><desc><name>Gove County</name><stateAbbrev>KS</stateAbbrev><state>Kansas</state><fips>063</fips><incits>20063</incits><id>US.KS.063</id><population>2769</population></desc></path><path d="M337.037037037,446.982167353 L337.037037037,422.016460905 L399.451303155,422.016460905 L399.451303155,446.021947874 L399.451303155,454.663923182 L348.559670782,454.663923182 L337.037037037,454.663923182 L337.037037037,446.982167353 Z" fill="#cee3f5" id="US.KS.095" stroke="#6e6e6e" stroke-width="0.4"><desc><name>Kingman County</name><stateAbbrev>KS</stateAbbrev><state>Kansas</state><fips>095</fips><incits>20095</incits><id>US.KS.095</id><population>7844</population></desc></path><path d="M92.1810699588,454.663923182 L131.550068587,454.663923182 L133.470507545,491.152263374 L92.1810699588,491.152263374 L92.1810699588,454.663923182 Z" fill="#cee3f5" id="US.KS.175" stroke="#6e6e6e" stroke-width="0.4"><desc><name>Seward County</name><stateAbbrev>KS</stateAbbrev><state>Kansas</state><fips>175</fips><incits>20175</incits><id>US.KS.175</id><population>23390</population></desc></path><path d="M177.640603567,290.466392318 L177.640603567,249.176954733 L227.572016461,249.176954733 L230.452674897,249.176954733 L230.452674897,290.466392318 L178.600823045,290.466392318 L177.640603567,290.466392318 Z" fill="#cee3f5" id="US.KS.065" stroke="#6e6e6e" stroke-width="0.4"><desc><name>Graham County</name><stateAbbrev>KS</stateAbbrev><state>Kansas</state><fips>065</fips><incits>20065</incits><id>US.KS.065</id><population>2593</population></desc></path><path d="M574.211248285,355.761316872 L574.211248285,326.95473251 L574.211248285,315.432098765 L616.46090535,315.432098765 L616.46090535,326.95473251 L615.500685871,355.761316872 L574.211248285,355.761316872 Z" fill="#cee3f5" id="US.KS.139" stroke="#6e6e6e" stroke-width="0.4"><desc><name>Osage County</name><stateAbbrev>KS</stateAbbrev><state>Kansas</state><fips>139</fips><incits>20139</incits><id>US.KS.139</id><population>16142</population></desc></path><path d="M283.264746228,330.795610425 L283.264746228,290.466392318 L335.11659808,290.466392318 L336.076817558,290.466392318 L335.11659808,310.631001372 L335.11659808,311.59122085 L335.11659808,331.755829904 L284.224965706,330.795610425 L283.264746228,330.795610425 Z" fill="#cee3f5" id="US.KS.167" stroke="#6e6e6e" stroke-width="0.4"><desc><name>Russell County</name><stateAbbrev>KS</stateAbbrev><state>Kansas</state><fips>167</fips><incits>20167</incits><id>US.KS.167</id><population>6933</population></desc></path><path d="M613.580246914,454.663923182 L613.580246914,422.016460905 L654.869684499,422.016460905 L654.869684499,427.777777778 L654.869684499,454.663923182 L614.540466392,454.663923182 L613.580246914,454.663923182 Z" fill="#cee3f5" id="US.KS.133" stroke="#6e6e6e" stroke-width="0.4"><desc><name>Neosho County</name><stateAbbrev>KS</stateAbbrev><state>Kansas</state><fips>133</fips><incits>20133</incits><id>US.KS.133</id><population>16430</population></desc></path><path d="M335.11659808,331.755829904 L335.11659808,314.471879287 L387.92866941,314.471879287 L387.92866941,339.437585734 L387.92866941,348.079561043 L336.076817558,348.079561043 L335.11659808,331.755829904 Z" fill="#cee3f5" id="US.KS.053" stroke="#6e6e6e" stroke-width="0.4"><desc><name>Ellsworth County</name><stateAbbrev>KS</stateAbbrev><state>Kansas</state><fips>053</fips><incits>20053</incits><id>US.KS.053</id><population>6398</population></desc></path><path d="M573.251028807,422.016460905 L573.251028807,393.209876543 L614.540466392,393.209876543 L613.580246914,422.016460905 L573.251028807,422.016460905 Z" fill="#cee3f5" id="US.KS.207" stroke="#6e6e6e" stroke-width="0.4"><desc><name>Woodson County</name><stateAbbrev>KS</stateAbbrev><state>Kansas</state><fips>207</fips><incits>20207</incits><id>US.KS.207</id><population>3221</population></desc></path><path d="M399.451303155,454.663923182 L399.451303155,446.021947874 L460.905349794,446.021947874 L461.865569273,491.152263374 L399.451303155,491.152263374 L399.451303155,454.663923182 Z" fill="#cee3f5" id="US.KS.191" stroke="#6e6e6e" stroke-width="0.4"><desc><name>Sumner County</name><stateAbbrev>KS</stateAbbrev><state>Kansas</state><fips>191</fips><incits>20191</incits><id>US.KS.191</id><population>23591</population></desc></path><path d="M335.11659808,281.82441701 L387.92866941,281.82441701 L387.92866941,306.790123457 L387.92866941,314.471879287 L335.11659808,314.471879287 L335.11659808,311.59122085 L335.11659808,310.631001372 L336.076817558,290.466392318 L335.11659808,290.466392318 L335.11659808,281.82441701 Z" fill="#cee3f5" id="US.KS.105" stroke="#6e6e6e" stroke-width="0.4"><desc><name>Lincoln County</name><stateAbbrev>KS</stateAbbrev><state>Kansas</state><fips>105</fips><incits>20105</incits><id>US.KS.105</id><population>3147</population></desc></path><path d="M616.46090535,326.95473251 L657.750342936,326.95473251 L656.790123457,360.562414266 L615.500685871,360.562414266 L615.500685871,355.761316872 L616.46090535,326.95473251 Z" fill="#cee3f5" id="US.KS.059" stroke="#6e6e6e" stroke-width="0.4"><desc><name>Franklin County</name><stateAbbrev>KS</stateAbbrev><state>Kansas</state><fips>059</fips><incits>20059</incits><id>US.KS.059</id><population>25740</population></desc></path><path d="M86.4197530864,330.795610425 L116.186556927,330.795610425 L128.669410151,330.795610425 L128.669410151,372.085048011 L89.3004115226,372.085048011 L87.3799725652,372.085048011 L86.4197530864,330.795610425 Z" fill="#cee3f5" id="US.KS.171" stroke="#6e6e6e" stroke-width="0.4"><desc><name>Scott County</name><stateAbbrev>KS</stateAbbrev><state>Kansas</state><fips>171</fips><incits>20171</incits><id>US.KS.171</id><population>5035</population></desc></path><path d="M572.290809328,491.152263374 L573.251028807,462.345679012 L573.251028807,454.663923182 L613.580246914,454.663923182 L614.540466392,454.663923182 L614.540466392,491.152263374 L572.290809328,491.152263374 Z" fill="#cee3f5" id="US.KS.125" stroke="#6e6e6e" stroke-width="0.4"><desc><name>Montgomery County</name><stateAbbrev>KS</stateAbbrev><state>Kansas</state><fips>125</fips><incits>20125</incits><id>US.KS.125</id><population>34292</population></desc></path><path d="M546.364883402,249.176954733 L547.325102881,208.847736626 L589.574759945,208.847736626 L589.574759945,241.495198903 L589.574759945,249.176954733 L565.569272977,249.176954733 L546.364883402,249.176954733 Z" fill="#cee3f5" id="US.KS.131" stroke="#6e6e6e" stroke-width="0.4"><desc><name>Nemaha County</name><stateAbbrev>KS</stateAbbrev><state>Kansas</state><fips>131</fips><incits>20131</incits><id>US.KS.131</id><population>10161</population></desc></path><path d="M46.0905349794,454.663923182 L49.9314128944,454.663923182 L90.2606310014,454.663923182 L92.1810699588,454.663923182 L92.1810699588,491.152263374 L47.0507544582,491.152263374 L46.0905349794,454.663923182 Z" fill="#cee3f5" id="US.KS.189" stroke="#6e6e6e" stroke-width="0.4"><desc><name>Stevens County</name><stateAbbrev>KS</stateAbbrev><state>Kansas</state><fips>189</fips><incits>20189</incits><id>US.KS.189</id><population>5816</population></desc></path><path d="M684.63648834,283.744855967 L700.0,287.585733882 L700.0,298.148148148 L674.074074074,298.148148148 L672.153635117,303.909465021 L673.113854595,283.744855967 L684.63648834,283.744855967 Z" fill="#cee3f5" id="US.KS.209" stroke="#6e6e6e" stroke-width="0.4"><desc><name>Wyandotte County</name><stateAbbrev>KS</stateAbbrev><state>Kansas</state><fips>209</fips><incits>20209</incits><id>US.KS.209</id><population>160384</population></desc></path><path d="M607.818930041,282.784636488 L609.739368999,263.580246914 L646.227709191,263.580246914 L646.227709191,298.148148148 L630.864197531,300.068587106 L616.46090535,297.187928669 L607.818930041,297.187928669 L607.818930041,282.784636488 Z" fill="#cee3f5" id="US.KS.087" stroke="#6e6e6e" stroke-width="0.4"><desc><name>Jefferson County</name><stateAbbrev>KS</stateAbbrev><state>Kansas</state><fips>087</fips><incits>20087</incits><id>US.KS.087</id><population>18813</population></desc></path><path d="M234.293552812,422.016460905 L286.145404664,422.016460905 L286.145404664,446.982167353 L286.145404664,454.663923182 L236.21399177,454.663923182 L235.253772291,446.982167353 L234.293552812,422.016460905 Z" fill="#cee3f5" id="US.KS.097" stroke="#6e6e6e" stroke-width="0.4"><desc><name>Kiowa County</name><stateAbbrev>KS</stateAbbrev><state>Kansas</state><fips>097</fips><incits>20097</incits><id>US.KS.097</id><population>2523</population></desc></path><path d="M493.552812071,208.847736626 L547.325102881,208.847736626 L546.364883402,249.176954733 L514.677640604,249.176954733 L493.552812071,249.176954733 L493.552812071,208.847736626 Z" fill="#cee3f5" id="US.KS.117" stroke="#6e6e6e" stroke-width="0.4"><desc><name>Marshall County</name><stateAbbrev>KS</stateAbbrev><state>Kansas</state><fips>117</fips><incits>20117</incits><id>US.KS.117</id><population>10002</population></desc></path><path d="M387.92866941,274.14266118 L440.740740741,274.14266118 L440.740740741,290.466392318 L439.780521262,306.790123457 L387.92866941,306.790123457 L387.92866941,274.14266118 Z" fill="#cee3f5" id="US.KS.143" stroke="#6e6e6e" stroke-width="0.4"><desc><name>Ottawa County</name><stateAbbrev>KS</stateAbbrev><state>Kansas</state><fips>143</fips><incits>20143</incits><id>US.KS.143</id><population>6042</population></desc></path><path d="M492.592592593,347.119341564 L535.802469136,348.079561043 L535.802469136,380.72702332 L535.802469136,388.40877915 L520.438957476,388.40877915 L490.672153635,388.40877915 L489.711934156,364.403292181 L492.592592593,347.119341564 Z" fill="#cee3f5" id="US.KS.017" stroke="#6e6e6e" stroke-width="0.4"><desc><name>Chase County</name><stateAbbrev>KS</stateAbbrev><state>Kansas</state><fips>017</fips><incits>20017</incits><id>US.KS.017</id><population>2700</population></desc></path></svg>