<?xml version='1.0' encoding='utf-8'?>
<svg height="700" width="700" xmlns="http://www.w3.org/2000/svg"><path d="M479.62962963,291.077441077 L506.734006734,271.043771044 L524.410774411,272.222222222 L547.97979798,251.01010101 L568.013468013,261.616161616 L551.515151515,274.579124579 L540.909090909,289.898989899 L520.875420875,304.04040404 L499.663299663,293.434343434 L479.62962963,291.077441077 Z" fill="#cee3f5" id="US.WV.057" stroke="#6e6e6e" stroke-width="0.4"><desc><name>Mineral County</name><stateAbbrev>WV</stateAbbrev><state>West Virginia</state><fips>057</fips><incits>54057</incits><id>US.WV.057</id><population>27704</population></desc></path><path d="M628.114478114,282.828282828 L641.077441077,253.367003367 L657.575757576,249.831649832 L676.430976431,253.367003367 L685.858585859,267.508417508 L656.397306397,300.505050505 L628.114478114,282.828282828 Z" fill="#cee3f5" id="US.WV.003" stroke="#6e6e6e" stroke-width="0.4"><desc><name>Berkeley County</name><stateAbbrev>WV</stateAbbrev><state>West Virginia</state><fips>003</fips><incits>54003</incits><id>US.WV.003</id><population>108706</population></desc></path><path d="M685.858585859,267.508417508 L698.821548822,282.828282828 L700.0,292.255892256 L685.858585859,319.36026936 L656.397306397,300.505050505 L685.858585859,267.508417508 Z" fill="#cee3f5" id="US.WV.037" stroke="#6e6e6e" stroke-width="0.4"><desc><name>Jefferson County</name><stateAbbrev>WV</stateAbbrev><state>West Virginia</state><fips>037</fips><incits>54037</incits><id>US.WV.037</id><population>55073</population></desc></path><path d="M520.875420875,304.04040404 L540.909090909,289.898989899 L551.515151515,274.579124579 L568.013468013,261.616161616 L593.939393939,265.151515152 L611.616161616,272.222222222 L612.794612795,287.542087542 L601.01010101,301.683501684 L603.367003367,314.646464646 L589.225589226,325.252525253 L532.65993266,309.932659933 L520.875420875,304.04040404 Z" fill="#cee3f5" id="US.WV.027" stroke="#6e6e6e" stroke-width="0.4"><desc><name>Hampshire County</name><stateAbbrev>WV</stateAbbrev><state>West Virginia</state><fips>027</fips><incits>54027</incits><id>US.WV.027</id><population>23445</population></desc></path><path d="M593.939393939,265.151515152 L611.616161616,247.474747475 L623.400673401,249.831649832 L635.185185185,239.225589226 L657.575757576,249.831649832 L641.077441077,253.367003367 L628.114478114,282.828282828 L611.616161616,272.222222222 L593.939393939,265.151515152 Z" fill="#cee3f5" id="US.WV.065" stroke="#6e6e6e" stroke-width="0.4"><desc><name>Morgan County</name><stateAbbrev>WV</stateAbbrev><state>West Virginia</state><fips>065</fips><incits>54065</incits><id>US.WV.065</id><population>17498</population></desc></path><path d="M448.98989899,309.932659933 L448.98989899,308.754208754 L452.525252525,308.754208754 L458.417508418,306.397306397 L471.38047138,295.791245791 L479.62962963,291.077441077 L499.663299663,293.434343434 L520.875420875,304.04040404 L505.555555556,332.323232323 L511.447811448,348.821548822 L499.663299663,365.31986532 L469.023569024,344.107744108 L467.845117845,342.929292929 L472.558922559,307.575757576 L450.168350168,311.111111111 L448.98989899,309.932659933 Z" fill="#cee3f5" id="US.WV.023" stroke="#6e6e6e" stroke-width="0.4"><desc><name>Grant County</name><stateAbbrev>WV</stateAbbrev><state>West Virginia</state><fips>023</fips><incits>54023</incits><id>US.WV.023</id><population>11759</population></desc></path><path d="M410.101010101,235.69023569 L450.168350168,235.69023569 L450.168350168,262.794612795 L448.98989899,288.720538721 L448.98989899,300.505050505 L448.98989899,300.505050505 L448.98989899,308.754208754 L448.98989899,309.932659933 L446.632996633,307.575757576 L420.707070707,299.326599327 L404.208754209,305.218855219 L391.245791246,295.791245791 L391.245791246,275.757575758 L390.067340067,269.865319865 L406.565656566,249.831649832 L410.101010101,235.69023569 Z" fill="#cee3f5" id="US.WV.077" stroke="#6e6e6e" stroke-width="0.4"><desc><name>Preston County</name><stateAbbrev>WV</stateAbbrev><state>West Virginia</state><fips>077</fips><incits>54077</incits><id>US.WV.077</id><population>33859</population></desc></path><path d="M279.292929293,169.696969697 L289.898989899,150.841750842 L286.363636364,139.057239057 L301.683501684,139.057239057 L301.683501684,173.232323232 L279.292929293,169.696969697 Z" fill="#cee3f5" id="US.WV.009" stroke="#6e6e6e" stroke-width="0.4"><desc><name>Brooke County</name><stateAbbrev>WV</stateAbbrev><state>West Virginia</state><fips>009</fips><incits>54009</incits><id>US.WV.009</id><population>23737</population></desc></path><path d="M301.683501684,139.057239057 L286.363636364,139.057239057 L291.077441077,127.272727273 L280.471380471,114.30976431 L301.683501684,104.882154882 L301.683501684,139.057239057 Z" fill="#cee3f5" id="US.WV.029" stroke="#6e6e6e" stroke-width="0.4"><desc><name>Hancock County</name><stateAbbrev>WV</stateAbbrev><state>West Virginia</state><fips>029</fips><incits>54029</incits><id>US.WV.029</id><population>30291</population></desc></path><path d="M271.043771044,190.909090909 L301.683501684,193.265993266 L301.683501684,235.69023569 L256.902356902,235.69023569 L258.080808081,218.013468013 L268.686868687,208.585858586 L271.043771044,190.909090909 Z" fill="#cee3f5" id="US.WV.051" stroke="#6e6e6e" stroke-width="0.4"><desc><name>Marshall County</name><stateAbbrev>WV</stateAbbrev><state>West Virginia</state><fips>051</fips><incits>54051</incits><id>US.WV.051</id><population>32459</population></desc></path><path d="M279.292929293,169.696969697 L301.683501684,173.232323232 L301.683501684,193.265993266 L271.043771044,190.909090909 L279.292929293,169.696969697 Z" fill="#cee3f5" id="US.WV.069" stroke="#6e6e6e" stroke-width="0.4"><desc><name>Ohio County</name><stateAbbrev>WV</stateAbbrev><state>West Virginia</state><fips>069</fips><incits>54069</incits><id>US.WV.069</id><population>43727</population></desc></path><path d="M352.356902357,304.04040404 L373.569023569,302.861952862 L391.245791246,295.791245791 L404.208754209,305.218855219 L400.673400673,321.717171717 L391.245791246,341.750841751 L364.141414141,345.286195286 L370.033670034,337.037037037 L344.107744108,322.895622896 L352.356902357,304.04040404 Z" fill="#cee3f5" id="US.WV.001" stroke="#6e6e6e" stroke-width="0.4"><desc><name>Barbour County</name><stateAbbrev>WV</stateAbbrev><state>West Virginia</state><fips>001</fips><incits>54001</incits><id>US.WV.001</id><population>16770</population></desc></path><path d="M298.148148148,276.936026936 L305.218855219,271.043771044 L333.501683502,275.757575758 L347.643097643,281.64983165 L352.356902357,304.04040404 L344.107744108,322.895622896 L333.501683502,324.074074074 L291.077441077,314.646464646 L300.505050505,308.754208754 L289.898989899,296.96969697 L298.148148148,276.936026936 Z" fill="#cee3f5" id="US.WV.033" stroke="#6e6e6e" stroke-width="0.4"><desc><name>Harrison County</name><stateAbbrev>WV</stateAbbrev><state>West Virginia</state><fips>033</fips><incits>54033</incits><id>US.WV.033</id><population>68972</population></desc></path><path d="M319.36026936,247.474747475 L353.535353535,251.01010101 L385.353535354,273.400673401 L364.141414141,284.006734007 L347.643097643,281.64983165 L333.501683502,275.757575758 L305.218855219,271.043771044 L305.218855219,258.080808081 L319.36026936,247.474747475 Z" fill="#cee3f5" id="US.WV.049" stroke="#6e6e6e" stroke-width="0.4"><desc><name>Marion County</name><stateAbbrev>WV</stateAbbrev><state>West Virginia</state><fips>049</fips><incits>54049</incits><id>US.WV.049</id><population>56868</population></desc></path><path d="M315.824915825,235.69023569 L410.101010101,235.69023569 L406.565656566,249.831649832 L390.067340067,269.865319865 L391.245791246,275.757575758 L385.353535354,273.400673401 L353.535353535,251.01010101 L319.36026936,247.474747475 L315.824915825,235.69023569 Z" fill="#cee3f5" id="US.WV.061" stroke="#6e6e6e" stroke-width="0.4"><desc><name>Monongalia County</name><stateAbbrev>WV</stateAbbrev><state>West Virginia</state><fips>061</fips><incits>54061</incits><id>US.WV.061</id><population>102274</population></desc></path><path d="M347.643097643,281.64983165 L364.141414141,284.006734007 L385.353535354,273.400673401 L391.245791246,275.757575758 L391.245791246,295.791245791 L373.569023569,302.861952862 L352.356902357,304.04040404 L347.643097643,281.64983165 Z" fill="#cee3f5" id="US.WV.091" stroke="#6e6e6e" stroke-width="0.4"><desc><name>Taylor County</name><stateAbbrev>WV</stateAbbrev><state>West Virginia</state><fips>091</fips><incits>54091</incits><id>US.WV.091</id><population>16973</population></desc></path><path d="M404.208754209,305.218855219 L420.707070707,299.326599327 L446.632996633,307.575757576 L448.98989899,309.932659933 L450.168350168,311.111111111 L472.558922559,307.575757576 L467.845117845,342.929292929 L447.811447811,341.750841751 L406.565656566,333.501683502 L400.673400673,321.717171717 L404.208754209,305.218855219 Z" fill="#cee3f5" id="US.WV.093" stroke="#6e6e6e" stroke-width="0.4"><desc><name>Tucker County</name><stateAbbrev>WV</stateAbbrev><state>West Virginia</state><fips>093</fips><incits>54093</incits><id>US.WV.093</id><population>6968</population></desc></path><path d="M241.582491582,252.188552189 L256.902356902,235.69023569 L301.683501684,235.69023569 L315.824915825,235.69023569 L319.36026936,247.474747475 L305.218855219,258.080808081 L305.218855219,271.043771044 L298.148148148,276.936026936 L287.542087542,274.579124579 L274.579124579,271.043771044 L255.723905724,254.545454545 L241.582491582,252.188552189 Z" fill="#cee3f5" id="US.WV.103" stroke="#6e6e6e" stroke-width="0.4"><desc><name>Wetzel County</name><stateAbbrev>WV</stateAbbrev><state>West Virginia</state><fips>103</fips><incits>54103</incits><id>US.WV.103</id><population>16204</population></desc></path><path d="M215.656565657,273.400673401 L241.582491582,252.188552189 L255.723905724,254.545454545 L274.579124579,271.043771044 L287.542087542,274.579124579 L249.831649832,295.791245791 L232.154882155,288.720538721 L229.797979798,272.222222222 L215.656565657,273.400673401 Z" fill="#cee3f5" id="US.WV.095" stroke="#6e6e6e" stroke-width="0.4"><desc><name>Tyler County</name><stateAbbrev>WV</stateAbbrev><state>West Virginia</state><fips>095</fips><incits>54095</incits><id>US.WV.095</id><population>8995</population></desc></path><path d="M228.61952862,385.353535354 L235.69023569,378.282828283 L279.292929293,353.535353535 L289.898989899,351.178451178 L308.754208754,362.962962963 L311.111111111,375.925925926 L302.861952862,388.888888889 L282.828282828,405.387205387 L263.973063973,401.851851852 L249.831649832,408.922558923 L228.61952862,385.353535354 Z" fill="#cee3f5" id="US.WV.007" stroke="#6e6e6e" stroke-width="0.4"><desc><name>Braxton County</name><stateAbbrev>WV</stateAbbrev><state>West Virginia</state><fips>007</fips><incits>54007</incits><id>US.WV.007</id><population>14502</population></desc></path><path d="M18.8552188552,421.885521886 L45.9595959596,414.814814815 L49.4949494949,398.316498316 L60.101010101,395.95959596 L82.4915824916,413.636363636 L83.67003367,427.777777778 L65.9932659933,432.491582492 L53.0303030303,447.811447811 L18.8552188552,421.885521886 Z" fill="#cee3f5" id="US.WV.011" stroke="#6e6e6e" stroke-width="0.4"><desc><name>Cabell County</name><stateAbbrev>WV</stateAbbrev><state>West Virginia</state><fips>011</fips><incits>54011</incits><id>US.WV.011</id><population>97133</population></desc></path><path d="M193.265993266,350.0 L194.444444444,347.643097643 L212.121212121,332.323232323 L214.478114478,332.323232323 L215.656565657,332.323232323 L215.656565657,332.323232323 L215.656565657,332.323232323 L216.835016835,332.323232323 L216.835016835,332.323232323 L220.37037037,335.858585859 L221.548821549,335.858585859 L222.727272727,337.037037037 L225.084175084,337.037037037 L225.084175084,337.037037037 L225.084175084,337.037037037 L227.441077441,337.037037037 L227.441077441,337.037037037 L228.61952862,337.037037037 L228.61952862,338.215488215 L228.61952862,338.215488215 L232.154882155,360.606060606 L225.084175084,367.676767677 L235.69023569,378.282828283 L228.61952862,385.353535354 L221.548821549,393.602693603 L210.942760943,388.888888889 L202.693602694,360.606060606 L193.265993266,350.0 Z" fill="#cee3f5" id="US.WV.013" stroke="#6e6e6e" stroke-width="0.4"><desc><name>Calhoun County</name><stateAbbrev>WV</stateAbbrev><state>West Virginia</state><fips>013</fips><incits>54013</incits><id>US.WV.013</id><population>7564</population></desc></path><path d="M206.228956229,405.387205387 L221.548821549,393.602693603 L228.61952862,385.353535354 L249.831649832,408.922558923 L246.296296296,421.885521886 L200.336700337,443.097643098 L193.265993266,413.636363636 L206.228956229,405.387205387 Z" fill="#cee3f5" id="US.WV.015" stroke="#6e6e6e" stroke-width="0.4"><desc><name>Clay County</name><stateAbbrev>WV</stateAbbrev><state>West Virginia</state><fips>015</fips><incits>54015</incits><id>US.WV.015</id><population>9244</population></desc></path><path d="M249.831649832,295.791245791 L287.542087542,274.579124579 L298.148148148,276.936026936 L289.898989899,296.96969697 L300.505050505,308.754208754 L291.077441077,314.646464646 L272.222222222,325.252525253 L260.437710438,322.895622896 L249.831649832,295.791245791 Z" fill="#cee3f5" id="US.WV.017" stroke="#6e6e6e" stroke-width="0.4"><desc><name>Doddridge County</name><stateAbbrev>WV</stateAbbrev><state>West Virginia</state><fips>017</fips><incits>54017</incits><id>US.WV.017</id><population>8344</population></desc></path><path d="M179.124579125,485.521885522 L187.373737374,453.703703704 L200.336700337,443.097643098 L221.548821549,451.346801347 L235.69023569,448.98989899 L249.831649832,465.488215488 L266.32996633,483.164983165 L261.616161616,499.663299663 L241.582491582,506.734006734 L222.727272727,498.484848485 L190.909090909,496.127946128 L179.124579125,485.521885522 Z" fill="#cee3f5" id="US.WV.019" stroke="#6e6e6e" stroke-width="0.4"><desc><name>Fayette County</name><stateAbbrev>WV</stateAbbrev><state>West Virginia</state><fips>019</fips><incits>54019</incits><id>US.WV.019</id><population>45599</population></desc></path><path d="M228.61952862,338.215488215 L229.797979798,337.037037037 L260.437710438,322.895622896 L272.222222222,325.252525253 L273.400673401,337.037037037 L289.898989899,351.178451178 L279.292929293,353.535353535 L235.69023569,378.282828283 L225.084175084,367.676767677 L232.154882155,360.606060606 L228.61952862,338.215488215 Z" fill="#cee3f5" id="US.WV.021" stroke="#6e6e6e" stroke-width="0.4"><desc><name>Gilmer County</name><stateAbbrev>WV</stateAbbrev><state>West Virginia</state><fips>021</fips><incits>54021</incits><id>US.WV.021</id><population>8672</population></desc></path><path d="M103.703703704,355.892255892 L122.558922559,342.929292929 L117.845117845,329.966329966 L127.272727273,325.252525253 L150.841750842,334.68013468 L161.447811448,350.0 L155.555555556,385.353535354 L159.090909091,393.602693603 L143.771043771,401.851851852 L134.343434343,391.245791246 L122.558922559,382.996632997 L103.703703704,355.892255892 Z" fill="#cee3f5" id="US.WV.035" stroke="#6e6e6e" stroke-width="0.4"><desc><name>Jackson County</name><stateAbbrev>WV</stateAbbrev><state>West Virginia</state><fips>035</fips><incits>54035</incits><id>US.WV.035</id><population>29178</population></desc></path><path d="M102.525252525,434.848484848 L104.882154882,424.242424242 L130.808080808,413.636363636 L126.094276094,397.138047138 L134.343434343,391.245791246 L143.771043771,401.851851852 L159.090909091,393.602693603 L167.34006734,401.851851852 L206.228956229,405.387205387 L193.265993266,413.636363636 L200.336700337,443.097643098 L187.373737374,453.703703704 L179.124579125,485.521885522 L168.518518519,483.164983165 L157.912457912,464.30976431 L141.414141414,448.98989899 L114.30976431,450.168350168 L117.845117845,436.026936027 L102.525252525,434.848484848 Z" fill="#cee3f5" id="US.WV.039" stroke="#6e6e6e" stroke-width="0.4"><desc><name>Kanawha County</name><stateAbbrev>WV</stateAbbrev><state>West Virginia</state><fips>039</fips><incits>54039</incits><id>US.WV.039</id><population>191275</population></desc></path><path d="M272.222222222,325.252525253 L291.077441077,314.646464646 L333.501683502,324.074074074 L331.144781145,344.107744108 L320.538720539,355.892255892 L319.36026936,377.104377104 L311.111111111,375.925925926 L308.754208754,362.962962963 L289.898989899,351.178451178 L273.400673401,337.037037037 L272.222222222,325.252525253 Z" fill="#cee3f5" id="US.WV.041" stroke="#6e6e6e" stroke-width="0.4"><desc><name>Lewis County</name><stateAbbrev>WV</stateAbbrev><state>West Virginia</state><fips>041</fips><incits>54041</incits><id>US.WV.041</id><population>16452</population></desc></path><path d="M103.703703704,355.892255892 L122.558922559,382.996632997 L96.632996633,387.71043771 L82.4915824916,393.602693603 L82.4915824916,413.636363636 L60.101010101,395.95959596 L64.8148148148,380.63973064 L58.9225589226,368.855218855 L69.5286195286,361.784511785 L77.7777777778,341.750841751 L89.5622895623,333.501683502 L100.168350168,340.572390572 L103.703703704,355.892255892 Z" fill="#cee3f5" id="US.WV.053" stroke="#6e6e6e" stroke-width="0.4"><desc><name>Mason County</name><stateAbbrev>WV</stateAbbrev><state>West Virginia</state><fips>053</fips><incits>54053</incits><id>US.WV.053</id><population>27126</population></desc></path><path d="M30.6397306397,502.02020202 L47.138047138,489.057239057 L63.6363636364,484.343434343 L78.9562289562,522.053872054 L94.2760942761,527.946127946 L119.023569024,530.303030303 L111.952861953,545.622895623 L101.346801347,550.336700337 L73.063973064,544.444444444 L48.3164983165,525.589225589 L30.6397306397,502.02020202 Z" fill="#cee3f5" id="US.WV.059" stroke="#6e6e6e" stroke-width="0.4"><desc><name>Mingo County</name><stateAbbrev>WV</stateAbbrev><state>West Virginia</state><fips>059</fips><incits>54059</incits><id>US.WV.059</id><population>25900</population></desc></path><path d="M200.336700337,443.097643098 L246.296296296,421.885521886 L249.831649832,408.922558923 L263.973063973,401.851851852 L282.828282828,405.387205387 L286.363636364,428.956228956 L313.468013468,443.097643098 L274.579124579,469.023569024 L249.831649832,465.488215488 L235.69023569,448.98989899 L221.548821549,451.346801347 L200.336700337,443.097643098 Z" fill="#cee3f5" id="US.WV.067" stroke="#6e6e6e" stroke-width="0.4"><desc><name>Nicholas County</name><stateAbbrev>WV</stateAbbrev><state>West Virginia</state><fips>067</fips><incits>54067</incits><id>US.WV.067</id><population>25965</population></desc></path><path d="M180.303030303,289.898989899 L201.515151515,282.828282828 L215.656565657,273.400673401 L229.797979798,272.222222222 L232.154882155,288.720538721 L202.693602694,294.612794613 L199.158249158,300.505050505 L180.303030303,289.898989899 Z" fill="#cee3f5" id="US.WV.073" stroke="#6e6e6e" stroke-width="0.4"><desc><name>Pleasants County</name><stateAbbrev>WV</stateAbbrev><state>West Virginia</state><fips>073</fips><incits>54073</incits><id>US.WV.073</id><population>7577</population></desc></path><path d="M122.558922559,382.996632997 L134.343434343,391.245791246 L126.094276094,397.138047138 L130.808080808,413.636363636 L104.882154882,424.242424242 L102.525252525,434.848484848 L83.67003367,439.562289562 L83.67003367,427.777777778 L82.4915824916,413.636363636 L82.4915824916,393.602693603 L96.632996633,387.71043771 L122.558922559,382.996632997 Z" fill="#cee3f5" id="US.WV.079" stroke="#6e6e6e" stroke-width="0.4"><desc><name>Putnam County</name><stateAbbrev>WV</stateAbbrev><state>West Virginia</state><fips>079</fips><incits>54079</incits><id>US.WV.079</id><population>56650</population></desc></path><path d="M335.858585859,381.818181818 L358.249158249,374.747474747 L364.141414141,345.286195286 L391.245791246,341.750841751 L400.673400673,321.717171717 L406.565656566,333.501683502 L447.811447811,341.750841751 L467.845117845,342.929292929 L469.023569024,344.107744108 L443.097643098,360.606060606 L446.632996633,367.676767677 L428.956228956,386.531986532 L407.744107744,374.747474747 L395.95959596,401.851851852 L372.390572391,415.993265993 L359.427609428,413.636363636 L340.572390572,425.420875421 L350.0,406.565656566 L335.858585859,381.818181818 Z" fill="#cee3f5" id="US.WV.083" stroke="#6e6e6e" stroke-width="0.4"><desc><name>Randolph County</name><stateAbbrev>WV</stateAbbrev><state>West Virginia</state><fips>083</fips><incits>54083</incits><id>US.WV.083</id><population>29415</population></desc></path><path d="M190.909090909,312.28956229 L199.158249158,300.505050505 L202.693602694,294.612794613 L232.154882155,288.720538721 L249.831649832,295.791245791 L260.437710438,322.895622896 L229.797979798,337.037037037 L228.61952862,338.215488215 L228.61952862,338.215488215 L228.61952862,337.037037037 L227.441077441,337.037037037 L227.441077441,337.037037037 L225.084175084,337.037037037 L225.084175084,337.037037037 L225.084175084,337.037037037 L222.727272727,337.037037037 L220.37037037,335.858585859 L218.013468013,333.501683502 L216.835016835,332.323232323 L216.835016835,332.323232323 L215.656565657,332.323232323 L215.656565657,332.323232323 L215.656565657,332.323232323 L212.121212121,332.323232323 L210.942760943,333.501683502 L197.97979798,333.501683502 L190.909090909,312.28956229 Z" fill="#cee3f5" id="US.WV.085" stroke="#6e6e6e" stroke-width="0.4"><desc><name>Ritchie County</name><stateAbbrev>WV</stateAbbrev><state>West Virginia</state><fips>085</fips><incits>54085</incits><id>US.WV.085</id><population>10073</population></desc></path><path d="M161.447811448,350.0 L189.730639731,351.178451178 L193.265993266,350.0 L202.693602694,360.606060606 L210.942760943,388.888888889 L221.548821549,393.602693603 L206.228956229,405.387205387 L167.34006734,401.851851852 L159.090909091,393.602693603 L155.555555556,385.353535354 L161.447811448,350.0 Z" fill="#cee3f5" id="US.WV.087" stroke="#6e6e6e" stroke-width="0.4"><desc><name>Roane County</name><stateAbbrev>WV</stateAbbrev><state>West Virginia</state><fips>087</fips><incits>54087</incits><id>US.WV.087</id><population>14656</population></desc></path><path d="M333.501683502,324.074074074 L344.107744108,322.895622896 L370.033670034,337.037037037 L364.141414141,345.286195286 L358.249158249,374.747474747 L335.858585859,381.818181818 L319.36026936,377.104377104 L320.538720539,355.892255892 L331.144781145,344.107744108 L333.501683502,324.074074074 Z" fill="#cee3f5" id="US.WV.097" stroke="#6e6e6e" stroke-width="0.4"><desc><name>Upshur County</name><stateAbbrev>WV</stateAbbrev><state>West Virginia</state><fips>097</fips><incits>54097</incits><id>US.WV.097</id><population>24665</population></desc></path><path d="M18.8552188552,421.885521886 L53.0303030303,447.811447811 L50.6734006734,460.774410774 L62.4579124579,474.915824916 L47.138047138,489.057239057 L30.6397306397,502.02020202 L18.8552188552,490.235690236 L11.7845117845,470.202020202 L0.0,460.774410774 L9.42760942761,443.097643098 L5.89225589226,421.885521886 L18.8552188552,421.885521886 Z" fill="#cee3f5" id="US.WV.099" stroke="#6e6e6e" stroke-width="0.4"><desc><name>Wayne County</name><stateAbbrev>WV</stateAbbrev><state>West Virginia</state><fips>099</fips><incits>54099</incits><id>US.WV.099</id><population>41437</population></desc></path><path d="M150.841750842,334.68013468 L173.232323232,318.181818182 L190.909090909,312.28956229 L197.97979798,333.501683502 L210.942760943,333.501683502 L189.730639731,351.178451178 L161.447811448,350.0 L150.841750842,334.68013468 Z" fill="#cee3f5" id="US.WV.105" stroke="#6e6e6e" stroke-width="0.4"><desc><name>Wirt County</name><stateAbbrev>WV</stateAbbrev><state>West Virginia</state><fips>105</fips><incits>54105</incits><id>US.WV.105</id><population>5901</population></desc></path><path d="M180.303030303,289.898989899 L199.158249158,300.505050505 L190.909090909,312.28956229 L173.232323232,318.181818182 L150.841750842,334.68013468 L127.272727273,325.252525253 L126.094276094,312.28956229 L168.518518519,280.471380471 L180.303030303,289.898989899 Z" fill="#cee3f5" id="US.WV.107" stroke="#6e6e6e" stroke-width="0.4"><desc><name>Wood County</name><stateAbbrev>WV</stateAbbrev><state>West Virginia</state><fips>107</fips><incits>54107</incits><id>US.WV.107</id><population>86569</population></desc></path><path d="M101.346801347,477.272727273 L94.2760942761,469.023569024 L114.30976431,450.168350168 L141.414141414,448.98989899 L157.912457912,464.30976431 L168.518518519,483.164983165 L152.02020202,491.414141414 L160.269360269,510.269360269 L146.127946128,510.269360269 L130.808080808,507.912457912 L116.666666667,489.057239057 L101.346801347,477.272727273 Z" fill="#cee3f5" id="US.WV.005" stroke="#6e6e6e" stroke-width="0.4"><desc><name>Boone County</name><stateAbbrev>WV</stateAbbrev><state>West Virginia</state><fips>005</fips><incits>54005</incits><id>US.WV.005</id><population>24224</population></desc></path><path d="M249.831649832,465.488215488 L274.579124579,469.023569024 L313.468013468,443.097643098 L324.074074074,448.98989899 L324.074074074,464.30976431 L338.215488215,473.737373737 L381.818181818,471.38047138 L375.925925926,481.986531987 L352.356902357,498.484848485 L333.501683502,524.410774411 L302.861952862,524.410774411 L281.64983165,519.696969697 L261.616161616,499.663299663 L266.32996633,483.164983165 L249.831649832,465.488215488 Z" fill="#cee3f5" id="US.WV.025" stroke="#6e6e6e" stroke-width="0.4"><desc><name>Greenbrier County</name><stateAbbrev>WV</stateAbbrev><state>West Virginia</state><fips>025</fips><incits>54025</incits><id>US.WV.025</id><population>35644</population></desc></path><path d="M499.663299663,365.31986532 L511.447811448,348.821548822 L505.555555556,332.323232323 L520.875420875,304.04040404 L532.65993266,309.932659933 L589.225589226,325.252525253 L575.084175084,342.929292929 L549.158249158,354.713804714 L537.373737374,372.390572391 L519.696969697,359.427609428 L510.269360269,372.390572391 L499.663299663,365.31986532 Z" fill="#cee3f5" id="US.WV.031" stroke="#6e6e6e" stroke-width="0.4"><desc><name>Hardy County</name><stateAbbrev>WV</stateAbbrev><state>West Virginia</state><fips>031</fips><incits>54031</incits><id>US.WV.031</id><population>13920</population></desc></path><path d="M47.138047138,489.057239057 L62.4579124579,474.915824916 L50.6734006734,460.774410774 L53.0303030303,447.811447811 L65.9932659933,432.491582492 L83.67003367,427.777777778 L83.67003367,439.562289562 L102.525252525,434.848484848 L117.845117845,436.026936027 L114.30976431,450.168350168 L94.2760942761,469.023569024 L101.346801347,477.272727273 L63.6363636364,484.343434343 L47.138047138,489.057239057 Z" fill="#cee3f5" id="US.WV.043" stroke="#6e6e6e" stroke-width="0.4"><desc><name>Lincoln County</name><stateAbbrev>WV</stateAbbrev><state>West Virginia</state><fips>043</fips><incits>54043</incits><id>US.WV.043</id><population>21559</population></desc></path><path d="M63.6363636364,484.343434343 L101.346801347,477.272727273 L116.666666667,489.057239057 L130.808080808,507.912457912 L146.127946128,510.269360269 L119.023569024,530.303030303 L94.2760942761,527.946127946 L78.9562289562,522.053872054 L63.6363636364,484.343434343 Z" fill="#cee3f5" id="US.WV.045" stroke="#6e6e6e" stroke-width="0.4"><desc><name>Logan County</name><stateAbbrev>WV</stateAbbrev><state>West Virginia</state><fips>045</fips><incits>54045</incits><id>US.WV.045</id><population>35987</population></desc></path><path d="M101.346801347,550.336700337 L111.952861953,545.622895623 L115.488215488,550.336700337 L162.626262626,556.228956229 L189.730639731,563.2996633 L181.481481481,575.084175084 L153.198653199,593.939393939 L136.7003367,595.117845118 L124.915824916,584.511784512 L101.346801347,571.548821549 L101.346801347,550.336700337 Z" fill="#cee3f5" id="US.WV.047" stroke="#6e6e6e" stroke-width="0.4"><desc><name>McDowell County</name><stateAbbrev>WV</stateAbbrev><state>West Virginia</state><fips>047</fips><incits>54047</incits><id>US.WV.047</id><population>20876</population></desc></path><path d="M181.481481481,575.084175084 L189.730639731,563.2996633 L201.515151515,550.336700337 L220.37037037,539.730639731 L253.367003367,562.121212121 L254.545454545,573.905723906 L240.404040404,580.976430976 L216.835016835,583.333333333 L201.515151515,590.404040404 L181.481481481,575.084175084 Z" fill="#cee3f5" id="US.WV.055" stroke="#6e6e6e" stroke-width="0.4"><desc><name>Mercer County</name><stateAbbrev>WV</stateAbbrev><state>West Virginia</state><fips>055</fips><incits>54055</incits><id>US.WV.055</id><population>61984</population></desc></path><path d="M253.367003367,562.121212121 L281.64983165,519.696969697 L302.861952862,524.410774411 L333.501683502,524.410774411 L339.393939394,538.552188552 L333.501683502,551.515151515 L308.754208754,563.2996633 L296.96969697,556.228956229 L275.757575758,566.835016835 L253.367003367,562.121212121 Z" fill="#cee3f5" id="US.WV.063" stroke="#6e6e6e" stroke-width="0.4"><desc><name>Monroe County</name><stateAbbrev>WV</stateAbbrev><state>West Virginia</state><fips>063</fips><incits>54063</incits><id>US.WV.063</id><population>13483</population></desc></path><path d="M426.599326599,395.95959596 L428.956228956,386.531986532 L446.632996633,367.676767677 L443.097643098,360.606060606 L469.023569024,344.107744108 L499.663299663,365.31986532 L510.269360269,372.390572391 L489.057239057,410.101010101 L473.737373737,421.885521886 L450.168350168,415.993265993 L441.919191919,401.851851852 L426.599326599,395.95959596 Z" fill="#cee3f5" id="US.WV.071" stroke="#6e6e6e" stroke-width="0.4"><desc><name>Pendleton County</name><stateAbbrev>WV</stateAbbrev><state>West Virginia</state><fips>071</fips><incits>54071</incits><id>US.WV.071</id><population>7471</population></desc></path><path d="M324.074074074,448.98989899 L328.787878788,432.491582492 L340.572390572,425.420875421 L359.427609428,413.636363636 L372.390572391,415.993265993 L395.95959596,401.851851852 L407.744107744,374.747474747 L428.956228956,386.531986532 L426.599326599,395.95959596 L420.707070707,419.528619529 L406.565656566,441.919191919 L390.067340067,453.703703704 L381.818181818,471.38047138 L338.215488215,473.737373737 L324.074074074,464.30976431 L324.074074074,448.98989899 Z" fill="#cee3f5" id="US.WV.075" stroke="#6e6e6e" stroke-width="0.4"><desc><name>Pocahontas County</name><stateAbbrev>WV</stateAbbrev><state>West Virginia</state><fips>075</fips><incits>54075</incits><id>US.WV.075</id><population>8669</population></desc></path><path d="M168.518518519,483.164983165 L179.124579125,485.521885522 L190.909090909,496.127946128 L222.727272727,498.484848485 L241.582491582,506.734006734 L242.760942761,522.053872054 L220.37037037,539.730639731 L201.515151515,550.336700337 L188.552188552,539.730639731 L168.518518519,511.447811448 L160.269360269,510.269360269 L152.02020202,491.414141414 L168.518518519,483.164983165 Z" fill="#cee3f5" id="US.WV.081" stroke="#6e6e6e" stroke-width="0.4"><desc><name>Raleigh County</name><stateAbbrev>WV</stateAbbrev><state>West Virginia</state><fips>081</fips><incits>54081</incits><id>US.WV.081</id><population>78833</population></desc></path><path d="M220.37037037,539.730639731 L242.760942761,522.053872054 L241.582491582,506.734006734 L261.616161616,499.663299663 L281.64983165,519.696969697 L253.367003367,562.121212121 L220.37037037,539.730639731 Z" fill="#cee3f5" id="US.WV.089" stroke="#6e6e6e" stroke-width="0.4"><desc><name>Summers County</name><stateAbbrev>WV</stateAbbrev><state>West Virginia</state><fips>089</fips><incits>54089</incits><id>US.WV.089</id><population>13563</population></desc></path><path d="M282.828282828,405.387205387 L302.861952862,388.888888889 L311.111111111,375.925925926 L319.36026936,377.104377104 L335.858585859,381.818181818 L350.0,406.565656566 L340.572390572,425.420875421 L328.787878788,432.491582492 L324.074074074,448.98989899 L313.468013468,443.097643098 L286.363636364,428.956228956 L282.828282828,405.387205387 Z" fill="#cee3f5" id="US.WV.101" stroke="#6e6e6e" stroke-width="0.4"><desc><name>Webster County</name><stateAbbrev>WV</stateAbbrev><state>West Virginia</state><fips>101</fips><incits>54101</incits><id>US.WV.101</id><population>8893</population></desc></path><path d="M119.023569024,530.303030303 L146.127946128,510.269360269 L160.269360269,510.269360269 L168.518518519,511.447811448 L188.552188552,539.730639731 L201.515151515,550.336700337 L189.730639731,563.2996633 L162.626262626,556.228956229 L115.488215488,550.336700337 L111.952861953,545.622895623 L119.023569024,530.303030303 Z" fill="#cee3f5" id="US.WV.109" stroke="#6e6e6e" stroke-width="0.4"><desc><name>Wyoming County</name><stateAbbrev>WV</stateAbbrev><state>West Virginia</state><fips>109</fips><incits>54109</incits><id>US.WV.109</id><population>23019</population></desc></path></svg>