<?xml version='1.0' encoding='utf-8'?>
<svg height="700" width="700" xmlns="http://www.w3.org/2000/svg"><path d="M475.812619503,318.546845124 L475.812619503,328.585086042 L476.481835564,351.338432122 L467.112810707,357.361376673 L477.820267686,366.061185468 L485.181644359,362.715105163 L483.173996176,374.091778203 L473.135755258,380.783938815 L456.405353728,382.791586998 L449.713193117,398.183556405 L439.005736138,397.514340344 L437.667304015,404.206500956 L430.305927342,406.21414914 L430.975143403,412.23709369 L436.328871893,413.575525813 L425.621414914,443.690248566 L413.575525813,444.359464627 L407.552581262,437.667304015 L408.221797323,426.290630975 L392.160611855,386.137667304 L398.183556405,381.453154876 L390.822179732,348.661567878 L408.221797323,348.661567878 L418.260038241,343.977055449 L420.936902486,333.26959847 L430.975143403,323.900573614 L441.682600382,317.877629063 L443.021032505,311.185468451 L449.713193117,310.51625239 L452.390057361,315.200764818 L467.112810707,313.862332696 L475.812619503,318.546845124 Z" fill="#cee3f5" id="BG.SL" stroke="#6e6e6e" stroke-width="0.4"><desc><labelrank>7</labelrank><code_hasc>BG.SL</code_hasc><name>Sliven</name><admin>Bulgaria</admin><type_en>Province</type_en><region /><woe_id>20070049</woe_id><longitude>26</longitude><woe_name>Sliven</woe_name><fips>BU39</fips><woe_label>Sliven, BG, Bulgaria</woe_label><latitude>42</latitude><iso_a2>BG</iso_a2><postal>SL</postal><type>Oblast</type><id>BG.SL</id></desc></path><path d="M426.290630975,461.089866157 L446.367112811,467.112810707 L451.7208413,477.151051625 L459.751434034,471.797323136 L464.435946463,484.512428298 L472.466539197,485.850860421 L469.789674952,494.550669216 L447.705544933,499.904397706 L447.705544933,511.281070746 L435.659655832,505.927342256 L422.275334608,509.273422562 L416.252390057,512.619502868 L416.252390057,521.319311663 L400.191204589,534.034416826 L384.799235182,517.973231358 L377.437858509,524.665391969 L368.738049713,524.665391969 L364.722753346,522.657743786 L368.068833652,512.619502868 L362.715105163,503.250478011 L356.692160612,499.235181644 L350.0,501.242829828 L340.630975143,489.866156788 L324.569789675,493.881453155 L322.562141491,480.497131931 L331.931166348,470.458891013 L329.923518164,446.367112811 L335.277246654,447.705544933 L348.661567878,451.7208413 L351.338432122,441.682600382 L364.722753346,437.667304015 L368.068833652,439.674952199 L366.061185468,447.036328872 L372.75334608,446.367112811 L382.791586998,457.743785851 L396.175908222,448.374760994 L404.875717017,451.051625239 L416.921606119,464.435946463 L426.290630975,461.089866157 Z" fill="#cee3f5" id="BG.KK" stroke="#6e6e6e" stroke-width="0.4"><desc><labelrank>7</labelrank><code_hasc>BG.KK</code_hasc><name>Haskovo</name><admin>Bulgaria</admin><type_en>Province</type_en><region /><woe_id>20070073</woe_id><longitude>25</longitude><woe_name>Haskovo</woe_name><fips>BU43</fips><woe_label>Khaskovo, BG, Bulgaria</woe_label><latitude>41</latitude><iso_a2>BG</iso_a2><postal>KK</postal><type>Oblast</type><id>BG.KK</id></desc></path><path d="M390.822179732,348.661567878 L398.183556405,381.453154876 L392.160611855,386.137667304 L408.221797323,426.290630975 L407.552581262,437.667304015 L413.575525813,444.359464627 L425.621414914,443.690248566 L426.290630975,461.089866157 L416.921606119,464.435946463 L404.875717017,451.051625239 L396.175908222,448.374760994 L382.791586998,457.743785851 L372.75334608,446.367112811 L366.061185468,447.036328872 L368.068833652,439.674952199 L364.722753346,437.667304015 L351.338432122,441.682600382 L348.661567878,451.7208413 L335.277246654,447.705544933 L327.915869981,440.34416826 L316.539196941,444.359464627 L307.839388145,437.667304015 L307.839388145,426.290630975 L315.200764818,422.944550669 L311.185468451,404.875717017 L321.223709369,402.868068834 L317.208413002,388.814531549 L308.508604207,389.48374761 L302.485659656,383.460803059 L301.147227533,352.676864245 L324.569789675,349.330783939 L327.915869981,354.015296367 L343.977055449,355.353728489 L362.715105163,350.0 L368.738049713,355.353728489 L369.407265774,350.669216061 L390.822179732,348.661567878 Z" fill="#cee3f5" id="BG.SZ" stroke="#6e6e6e" stroke-width="0.4"><desc><labelrank>7</labelrank><code_hasc>BG.SZ</code_hasc><name>Stara Zagora</name><admin>Bulgaria</admin><type_en>Province</type_en><region /><woe_id>20070054</woe_id><longitude>25</longitude><woe_name>Stara Zagora</woe_name><fips>BU43</fips><woe_label>Stara Zagora, BG, Bulgaria</woe_label><latitude>42</latitude><iso_a2>BG</iso_a2><postal>SZ</postal><type>Oblast</type><id>BG.SZ</id></desc></path><path d="M232.887189293,378.776290631 L230.879541109,393.499043977 L243.594646272,438.336520076 L236.233269598,443.690248566 L234.894837476,471.797323136 L214.149139579,502.58126195 L203.4416826,503.919694073 L204.780114723,498.565965583 L200.095602294,494.550669216 L190.726577438,493.881453155 L194.072657744,501.912045889 L190.726577438,509.942638623 L160.611854685,482.504780115 L157.265774379,470.458891013 L164.627151052,444.359464627 L158.604206501,434.321223709 L173.326959847,417.59082218 L181.357552581,421.606118547 L182.026768642,402.868068834 L190.726577438,400.86042065 L192.734225621,394.837476099 L178.680688337,385.468451243 L176.673040153,375.430210325 L191.395793499,378.776290631 L213.479923518,368.068833652 L232.887189293,378.776290631 Z" fill="#cee3f5" id="BG.PZ" stroke="#6e6e6e" stroke-width="0.4"><desc><labelrank>7</labelrank><code_hasc>BG.PZ</code_hasc><name>Pazardzhik</name><admin>Bulgaria</admin><type_en>Province</type_en><region /><woe_id>20070066</woe_id><longitude>24</longitude><woe_name>Pazardzhik</woe_name><fips>BU51</fips><woe_label>Pazardzhik, BG, Bulgaria</woe_label><latitude>42</latitude><iso_a2>BG</iso_a2><postal>PZ</postal><type>Oblast</type><id>BG.PZ</id></desc></path><path d="M301.147227533,350.669216061 L301.147227533,352.676864245 L302.485659656,383.460803059 L308.508604207,389.48374761 L317.208413002,388.814531549 L321.223709369,402.868068834 L311.185468451,404.875717017 L315.200764818,422.944550669 L307.839388145,426.290630975 L307.839388145,437.667304015 L316.539196941,444.359464627 L327.915869981,440.34416826 L335.277246654,447.705544933 L329.923518164,446.367112811 L331.931166348,470.458891013 L322.562141491,480.497131931 L313.862332696,483.843212237 L304.493307839,496.5583174 L296.462715105,489.866156788 L289.101338432,491.20458891 L275.717017208,475.812619503 L264.340344168,474.47418738 L247.609942639,481.835564054 L234.894837476,471.797323136 L236.233269598,443.690248566 L243.594646272,438.336520076 L230.879541109,393.499043977 L232.887189293,378.776290631 L240.248565966,373.422562141 L229.541108987,363.384321224 L232.887189293,349.330783939 L254.30210325,345.315487572 L272.370936902,357.361376673 L291.778202677,357.361376673 L301.147227533,350.669216061 Z" fill="#cee3f5" id="BG.PD" stroke="#6e6e6e" stroke-width="0.4"><desc><labelrank>9</labelrank><code_hasc>BG.PD</code_hasc><name>Plovdiv</name><admin>Bulgaria</admin><type_en>Province</type_en><region /><woe_id>20070068</woe_id><longitude>24</longitude><woe_name>Plovdiv</woe_name><fips>BU51</fips><woe_label>Plovdiv, BG, Bulgaria</woe_label><latitude>42</latitude><iso_a2>BG</iso_a2><postal>PD</postal><type>Oblast</type><id>BG.PD</id></desc></path><path d="M304.493307839,496.5583174 L301.147227533,501.912045889 L306.500956023,521.988527725 L295.124282983,529.349904398 L303.824091778,542.734225621 L311.854684512,538.049713193 L312.523900574,570.841300191 L282.40917782,556.118546845 L273.040152964,556.787762906 L269.694072658,563.479923518 L260.994263862,554.110898662 L247.609942639,549.426386233 L240.248565966,530.68833652 L215.487571702,536.711281071 L210.803059273,529.349904398 L204.780114723,531.357552581 L191.395793499,519.31166348 L196.749521989,515.296367113 L190.726577438,509.942638623 L194.072657744,501.912045889 L190.726577438,493.881453155 L200.095602294,494.550669216 L204.780114723,498.565965583 L203.4416826,503.919694073 L214.149139579,502.58126195 L234.894837476,471.797323136 L247.609942639,481.835564054 L264.340344168,474.47418738 L275.717017208,475.812619503 L289.101338432,491.20458891 L296.462715105,489.866156788 L304.493307839,496.5583174 Z" fill="#cee3f5" id="BG.SM" stroke="#6e6e6e" stroke-width="0.4"><desc><labelrank>7</labelrank><code_hasc>BG.SM</code_hasc><name>Smolyan</name><admin>Bulgaria</admin><type_en>Province</type_en><region /><woe_id>20070067</woe_id><longitude>24</longitude><woe_name>Smolyan</woe_name><fips>BU51</fips><woe_label>Smolyan, BG, Bulgaria</woe_label><latitude>41</latitude><iso_a2>BG</iso_a2><postal>SM</postal><type>Oblast</type><id>BG.SM</id></desc></path><path d="M322.562141491,480.497131931 L324.569789675,493.881453155 L340.630975143,489.866156788 L350.0,501.242829828 L356.692160612,499.235181644 L362.715105163,503.250478011 L368.068833652,512.619502868 L364.722753346,522.657743786 L368.738049713,524.665391969 L377.437858509,524.665391969 L384.799235182,517.973231358 L400.191204589,534.034416826 L416.252390057,521.319311663 L428.298279159,539.388145315 L429.636711281,554.110898662 L422.275334608,565.487571702 L395.506692161,572.848948375 L387.476099426,566.826003824 L372.75334608,573.518164436 L358.030592734,570.841300191 L352.676864245,575.52581262 L324.569789675,581.54875717 L312.523900574,570.841300191 L311.854684512,538.049713193 L303.824091778,542.734225621 L295.124282983,529.349904398 L306.500956023,521.988527725 L301.147227533,501.912045889 L304.493307839,496.5583174 L313.862332696,483.843212237 L322.562141491,480.497131931 Z" fill="#cee3f5" id="BG.KZ" stroke="#6e6e6e" stroke-width="0.4"><desc><labelrank>7</labelrank><code_hasc>BG.KZ</code_hasc><name>Kardzhali</name><admin>Bulgaria</admin><type_en>Province</type_en><region /><woe_id>20070053</woe_id><longitude>25</longitude><woe_name>Kardzhali</woe_name><fips>GR01</fips><woe_label>Kurdzhali, BG, Bulgaria</woe_label><latitude>41</latitude><iso_a2>BG</iso_a2><postal>KZ</postal><type>Oblast</type><id>BG.KZ</id></desc></path><path d="M106.405353728,378.776290631 L94.3594646272,369.407265774 L93.0210325048,358.030592734 L82.982791587,350.669216061 L86.9980879541,345.984703633 L98.3747609943,347.323135755 L108.413001912,323.231357553 L122.466539197,331.261950287 L145.219885277,330.592734226 L132.504780115,360.707456979 L147.896749522,394.837476099 L134.512428298,394.837476099 L133.173996176,380.783938815 L128.489483748,379.445506692 L123.135755258,388.145315488 L106.405353728,378.776290631 Z" fill="#cee3f5" id="BG.SG" stroke="#6e6e6e" stroke-width="0.4"><desc><labelrank>9</labelrank><code_hasc>BG.SG</code_hasc><name>Grad Sofiya</name><admin>Bulgaria</admin><type_en>Province</type_en><region /><woe_id>20069794</woe_id><longitude>23</longitude><woe_name>Grad Sofiya</woe_name><fips>BU42</fips><woe_label>Sofiya-Grad, BG, Bulgaria</woe_label><latitude>42</latitude><iso_a2>BG</iso_a2><postal>SG</postal><type>Oblast</type><id>BG.SG</id></desc></path><path d="M123.804971319,283.747609943 L131.166347992,285.755258126 L127.820267686,291.778202677 L139.866156788,307.839388145 L149.235181644,301.147227533 L155.927342256,305.162523901 L163.95793499,299.808795411 L182.695984704,306.500956023 L187.380497132,301.816443595 L206.118546845,325.239005736 L206.118546845,344.646271511 L232.887189293,349.330783939 L229.541108987,363.384321224 L240.248565966,373.422562141 L232.887189293,378.776290631 L213.479923518,368.068833652 L191.395793499,378.776290631 L176.673040153,375.430210325 L178.680688337,385.468451243 L192.734225621,394.837476099 L190.726577438,400.86042065 L182.026768642,402.868068834 L181.357552581,421.606118547 L173.326959847,417.59082218 L158.604206501,434.321223709 L140.535372849,437.667304015 L133.843212237,447.705544933 L127.820267686,445.028680688 L131.835564054,439.674952199 L121.128107075,431.644359465 L111.089866157,432.982791587 L118.45124283,420.267686424 L107.07456979,402.868068834 L98.3747609943,402.198852772 L106.405353728,378.776290631 L123.135755258,388.145315488 L128.489483748,379.445506692 L133.173996176,380.783938815 L134.512428298,394.837476099 L147.896749522,394.837476099 L132.504780115,360.707456979 L145.219885277,330.592734226 L122.466539197,331.261950287 L108.413001912,323.231357553 L98.3747609943,347.323135755 L86.9980879541,345.984703633 L82.982791587,350.669216061 L79.6367112811,342.638623327 L62.9063097514,334.608030593 L60.2294455067,327.24665392 L54.8757170172,329.254302103 L48.8527724665,319.885277247 L53.5372848948,307.839388145 L74.2829827916,289.770554493 L78.2982791587,277.724665392 L82.982791587,277.055449331 L93.690248566,289.101338432 L103.728489484,290.439770554 L123.804971319,283.747609943 Z" fill="#cee3f5" id="BG.SF" stroke="#6e6e6e" stroke-width="0.4"><desc><labelrank>7</labelrank><code_hasc>BG.SF</code_hasc><name>Sofia</name><admin>Bulgaria</admin><type_en>Province</type_en><region /><woe_id>20070061</woe_id><longitude>23</longitude><woe_name>Sofia</woe_name><fips>BU42</fips><woe_label>Sofiya, BG, Bulgaria</woe_label><latitude>42</latitude><iso_a2>BG</iso_a2><postal>SF</postal><type>Oblast</type><id>BG.SF</id></desc></path><path d="M82.982791587,350.669216061 L93.0210325048,358.030592734 L94.3594646272,369.407265774 L106.405353728,378.776290631 L98.3747609943,402.198852772 L85.6596558317,397.514340344 L84.3212237094,401.529636711 L74.2829827916,397.514340344 L56.8833652008,402.198852772 L30.7839388145,361.37667304 L13.3843212237,358.699808795 L18.7380497132,343.977055449 L14.7227533461,329.923518164 L22.7533460803,323.231357553 L48.8527724665,319.885277247 L54.8757170172,329.254302103 L60.2294455067,327.24665392 L62.9063097514,334.608030593 L79.6367112811,342.638623327 L82.982791587,350.669216061 Z" fill="#cee3f5" id="BG.PN" stroke="#6e6e6e" stroke-width="0.4"><desc><labelrank>7</labelrank><code_hasc>BG.PN</code_hasc><name>Pernik</name><admin>Bulgaria</admin><type_en>Province</type_en><region /><woe_id>20070058</woe_id><longitude>22</longitude><woe_name>Pernik</woe_name><fips>BU58</fips><woe_label>Pernik, BG, Bulgaria</woe_label><latitude>42</latitude><iso_a2>BG</iso_a2><postal>PN</postal><type>Oblast</type><id>BG.PN</id></desc></path><path d="M309.847036329,287.093690249 L317.208413002,297.801147228 L332.600382409,298.470363289 L337.954110899,307.170172084 L363.384321224,310.51625239 L362.045889101,324.569789675 L370.745697897,332.600382409 L369.407265774,350.669216061 L368.738049713,355.353728489 L362.715105163,350.0 L343.977055449,355.353728489 L327.915869981,354.015296367 L324.569789675,349.330783939 L301.147227533,352.676864245 L301.147227533,350.669216061 L297.801147228,336.615678776 L287.76290631,329.254302103 L286.424474187,315.86998088 L299.808795411,284.416826004 L309.847036329,287.093690249 Z" fill="#cee3f5" id="BG.GB" stroke="#6e6e6e" stroke-width="0.4"><desc><labelrank>7</labelrank><code_hasc>BG.GB</code_hasc><name>Gabrovo</name><admin>Bulgaria</admin><type_en>Province</type_en><region /><woe_id>20070062</woe_id><longitude>25</longitude><woe_name>Gabrovo</woe_name><fips>BU46</fips><woe_label>Gabrovo, BG, Bulgaria</woe_label><latitude>42</latitude><iso_a2>BG</iso_a2><postal>GB</postal><type>Oblast</type><id>BG.GB</id></desc></path><path d="M314.531548757,272.370936902 L314.531548757,281.739961759 L309.847036329,287.093690249 L299.808795411,284.416826004 L286.424474187,315.86998088 L287.76290631,329.254302103 L297.801147228,336.615678776 L301.147227533,350.669216061 L291.778202677,357.361376673 L272.370936902,357.361376673 L254.30210325,345.315487572 L232.887189293,349.330783939 L206.118546845,344.646271511 L206.118546845,325.239005736 L187.380497132,301.816443595 L186.04206501,293.116634799 L192.06500956,294.455066922 L194.072657744,279.063097514 L206.118546845,273.040152964 L216.826003824,277.724665392 L234.894837476,270.363288719 L240.248565966,277.724665392 L254.30210325,282.40917782 L275.047801147,267.017208413 L293.78585086,269.024856597 L305.831739962,258.986615679 L314.531548757,272.370936902 Z" fill="#cee3f5" id="BG.LV" stroke="#6e6e6e" stroke-width="0.4"><desc><labelrank>7</labelrank><code_hasc>BG.LV</code_hasc><name>Lovech</name><admin>Bulgaria</admin><type_en>Province</type_en><region /><woe_id>20070064</woe_id><longitude>24</longitude><woe_name>Lovech</woe_name><fips>BU46</fips><woe_label>Lovech, BG, Bulgaria</woe_label><latitude>43</latitude><iso_a2>BG</iso_a2><postal>LV</postal><type>Oblast</type><id>BG.LV</id></desc></path><path d="M334.608030593,210.133843212 L328.585086042,215.487571702 L323.900573614,225.52581262 L327.24665392,232.217973231 L317.877629063,244.933078394 L323.900573614,247.609942639 L327.24665392,263.671128107 L314.531548757,272.370936902 L305.831739962,258.986615679 L293.78585086,269.024856597 L275.047801147,267.017208413 L254.30210325,282.40917782 L240.248565966,277.724665392 L234.894837476,270.363288719 L216.826003824,277.724665392 L206.118546845,273.040152964 L194.072657744,279.063097514 L185.372848948,273.709369025 L188.718929254,266.347992352 L216.826003824,259.65583174 L217.495219885,238.240917782 L212.141491396,236.90248566 L206.118546845,222.179732314 L224.856596558,211.472275335 L230.879541109,197.41873805 L245.602294455,190.726577438 L271.03250478,200.764818356 L299.808795411,200.764818356 L334.608030593,210.133843212 Z" fill="#cee3f5" id="BG.PV" stroke="#6e6e6e" stroke-width="0.4"><desc><labelrank>7</labelrank><code_hasc>BG.PV</code_hasc><name>Pleven</name><admin>Bulgaria</admin><type_en>Province</type_en><region /><woe_id>20070065</woe_id><longitude>24</longitude><woe_name>Pleven</woe_name><fips>BU46</fips><woe_label>Pleven, BG, Bulgaria</woe_label><latitude>43</latitude><iso_a2>BG</iso_a2><postal>PV</postal><type>Oblast</type><id>BG.PV</id></desc></path><path d="M356.692160612,214.149139579 L359.369024857,222.179732314 L354.684512428,232.887189293 L365.391969407,238.240917782 L363.384321224,246.940726577 L369.407265774,252.963671128 L379.445506692,252.963671128 L390.152963671,259.65583174 L405.544933078,258.986615679 L406.883365201,266.347992352 L414.913957935,267.686424474 L422.275334608,273.040152964 L419.598470363,279.063097514 L424.282982792,289.101338432 L418.929254302,301.147227533 L424.952198853,312.523900574 L422.944550669,319.885277247 L430.975143403,323.900573614 L420.936902486,333.26959847 L418.260038241,343.977055449 L408.221797323,348.661567878 L390.822179732,348.661567878 L369.407265774,350.669216061 L370.745697897,332.600382409 L362.045889101,324.569789675 L363.384321224,310.51625239 L337.954110899,307.170172084 L332.600382409,298.470363289 L317.208413002,297.801147228 L309.847036329,287.093690249 L314.531548757,281.739961759 L314.531548757,272.370936902 L327.24665392,263.671128107 L323.900573614,247.609942639 L317.877629063,244.933078394 L327.24665392,232.217973231 L323.900573614,225.52581262 L328.585086042,215.487571702 L334.608030593,210.133843212 L342.638623327,216.156787763 L356.692160612,214.149139579 Z" fill="#cee3f5" id="BG.VT" stroke="#6e6e6e" stroke-width="0.4"><desc><labelrank>7</labelrank><code_hasc>BG.VT</code_hasc><name>Veliko Tarnovo</name><admin>Bulgaria</admin><type_en>Province</type_en><region /><woe_id>20070063</woe_id><longitude>25</longitude><woe_name>Veliko Tarnovo</woe_name><fips>BU46</fips><woe_label>Veliko Turnovo, BG, Bulgaria</woe_label><latitude>42</latitude><iso_a2>BG</iso_a2><postal>VT</postal><type>Oblast</type><id>BG.VT</id></desc></path><path d="M152.58126195,182.695984704 L151.912045889,201.434034417 L143.881453155,220.841300191 L151.242829828,229.541108987 L131.166347992,234.225621415 L117.782026769,262.332695985 L117.112810707,266.347992352 L131.835564054,273.709369025 L123.804971319,283.747609943 L103.728489484,290.439770554 L93.690248566,289.101338432 L82.982791587,277.055449331 L78.2982791587,277.724665392 L67.5908221797,270.363288719 L50.8604206501,246.271510516 L59.5602294455,230.879541109 L78.9674952199,226.195028681 L78.2982791587,210.133843212 L89.0057361377,200.095602294 L81.6443594646,190.057361377 L89.0057361377,188.049713193 L90.34416826,178.680688337 L120.458891013,173.326959847 L137.858508604,175.334608031 L152.58126195,182.695984704 Z" fill="#cee3f5" id="BG.MT" stroke="#6e6e6e" stroke-width="0.4"><desc><labelrank>7</labelrank><code_hasc>BG.MT</code_hasc><name>Montana</name><admin>Bulgaria</admin><type_en>Province</type_en><region /><woe_id>20070056</woe_id><longitude>23</longitude><woe_name>Montana</woe_name><fips>BU47</fips><woe_label>Montana, BG, Bulgaria</woe_label><latitude>43</latitude><iso_a2>BG</iso_a2><postal>MT</postal><type>Oblast</type><id>BG.MT</id></desc></path><path d="M230.879541109,197.41873805 L224.856596558,211.472275335 L206.118546845,222.179732314 L212.141491396,236.90248566 L217.495219885,238.240917782 L216.826003824,259.65583174 L188.718929254,266.347992352 L185.372848948,273.709369025 L194.072657744,279.063097514 L192.06500956,294.455066922 L186.04206501,293.116634799 L187.380497132,301.816443595 L182.695984704,306.500956023 L163.95793499,299.808795411 L155.927342256,305.162523901 L149.235181644,301.147227533 L139.866156788,307.839388145 L127.820267686,291.778202677 L131.166347992,285.755258126 L123.804971319,283.747609943 L131.835564054,273.709369025 L117.112810707,266.347992352 L117.782026769,262.332695985 L131.166347992,234.225621415 L151.242829828,229.541108987 L143.881453155,220.841300191 L151.912045889,201.434034417 L152.58126195,182.695984704 L165.965583174,182.026768642 L211.472275335,197.41873805 L230.879541109,197.41873805 Z" fill="#cee3f5" id="BG.VR" stroke="#6e6e6e" stroke-width="0.4"><desc><labelrank>7</labelrank><code_hasc>BG.VR</code_hasc><name>Vratsa</name><admin>Bulgaria</admin><type_en>Province</type_en><region /><woe_id>20070057</woe_id><longitude>23</longitude><woe_name>Vratsa</woe_name><fips>BU47</fips><woe_label>Vratsa, BG, Bulgaria</woe_label><latitude>43</latitude><iso_a2>BG</iso_a2><postal>VR</postal><type>Oblast</type><id>BG.VR</id></desc></path><path d="M98.3747609943,402.198852772 L107.07456979,402.868068834 L118.45124283,420.267686424 L111.089866157,432.982791587 L121.128107075,431.644359465 L131.835564054,439.674952199 L127.820267686,445.028680688 L115.774378585,450.382409178 L95.0286806883,445.028680688 L78.9674952199,450.382409178 L64.913957935,444.359464627 L54.206500956,455.736137667 L19.4072657744,435.659655832 L0.0,406.21414914 L9.3690248566,404.875717017 L22.0841300191,385.468451243 L22.0841300191,378.10707457 L11.3766730402,367.399617591 L13.3843212237,358.699808795 L30.7839388145,361.37667304 L56.8833652008,402.198852772 L74.2829827916,397.514340344 L84.3212237094,401.529636711 L85.6596558317,397.514340344 L98.3747609943,402.198852772 Z" fill="#cee3f5" id="BG.KY" stroke="#6e6e6e" stroke-width="0.4"><desc><labelrank>7</labelrank><code_hasc>BG.KY</code_hasc><name>Kyustendil</name><admin>Bulgaria</admin><type_en>Province</type_en><region /><woe_id>20070059</woe_id><longitude>22</longitude><woe_name>Kyustendil</woe_name><fips>BU58</fips><woe_label>Kyustendil, BG, Bulgaria</woe_label><latitude>42</latitude><iso_a2>BG</iso_a2><postal>KY</postal><type>Oblast</type><id>BG.KY</id></desc></path><path d="M90.34416826,178.680688337 L89.0057361377,188.049713193 L81.6443594646,190.057361377 L89.0057361377,200.095602294 L78.2982791587,210.133843212 L78.9674952199,226.195028681 L59.5602294455,230.879541109 L50.8604206501,246.271510516 L28.776290631,231.54875717 L24.7609942639,204.780114723 L17.3996175908,196.749521989 L13.3843212237,180.019120459 L20.0764818356,152.58126195 L42.1606118547,142.543021033 L44.1682600382,125.812619503 L54.206500956,118.45124283 L89.6749521989,140.535372849 L89.0057361377,149.904397706 L73.6137667304,155.258126195 L68.9292543021,172.657743786 L75.621414914,179.349904398 L90.34416826,178.680688337 Z" fill="#cee3f5" id="BG.VD" stroke="#6e6e6e" stroke-width="0.4"><desc><labelrank>7</labelrank><code_hasc>BG.VD</code_hasc><name>Vidin</name><admin>Bulgaria</admin><type_en>Province</type_en><region /><woe_id>20070055</woe_id><longitude>22</longitude><woe_name>Vidin</woe_name><fips>BU47</fips><woe_label>Vidin, BG, Bulgaria</woe_label><latitude>43</latitude><iso_a2>BG</iso_a2><postal>VD</postal><type>Oblast</type><id>BG.VD</id></desc></path><path d="M621.701720841,339.292543021 L623.040152964,360.038240918 L604.971319312,360.038240918 L606.309751434,368.068833652 L593.594646272,372.75334608 L596.271510516,383.460803059 L580.879541109,384.13001912 L574.187380497,397.514340344 L575.52581262,403.537284895 L576.195028681,398.183556405 L580.879541109,402.198852772 L593.594646272,398.852772467 L596.271510516,404.875717017 L604.30210325,404.875717017 L603.632887189,414.913957935 L610.994263862,416.252390057 L611.663479924,420.936902486 L608.317399618,428.96749522 L634.416826004,456.405353728 L638.432122371,471.797323136 L615.009560229,468.45124283 L615.678776291,475.812619503 L600.956022945,472.466539197 L584.894837476,483.173996176 L554.110898662,454.397705545 L547.41873805,453.728489484 L542.734225621,459.751434034 L528.680688337,455.736137667 L525.334608031,440.34416826 L533.365200765,416.921606119 L508.604206501,396.845124283 L491.873804971,364.053537285 L485.181644359,362.715105163 L477.820267686,366.061185468 L467.112810707,357.361376673 L476.481835564,351.338432122 L475.812619503,328.585086042 L483.843212237,326.577437859 L488.527724665,333.938814532 L501.242829828,324.569789675 L526.003824092,327.915869981 L536.711281071,323.900573614 L549.426386233,318.546845124 L572.848948375,334.608030593 L592.256214149,330.592734226 L613.001912046,343.307839388 L621.701720841,339.292543021 Z" fill="#cee3f5" id="BG.BR" stroke="#6e6e6e" stroke-width="0.4"><desc><labelrank>7</labelrank><code_hasc>BG.BR</code_hasc><name>Burgas</name><admin>Bulgaria</admin><type_en>Province</type_en><region /><woe_id>20070075</woe_id><longitude>27</longitude><woe_name>Burgas</woe_name><fips>BU39</fips><woe_label>Burgas, BG, Bulgaria</woe_label><latitude>42</latitude><iso_a2>BG</iso_a2><postal>BR</postal><type>Oblast</type><id>BG.BR</id></desc></path><path d="M528.680688337,455.736137667 L516.634799235,469.120458891 L503.250478011,473.135755258 L478.489483748,473.135755258 L471.797323136,480.497131931 L472.466539197,485.850860421 L464.435946463,484.512428298 L459.751434034,471.797323136 L451.7208413,477.151051625 L446.367112811,467.112810707 L426.290630975,461.089866157 L425.621414914,443.690248566 L436.328871893,413.575525813 L430.975143403,412.23709369 L430.305927342,406.21414914 L437.667304015,404.206500956 L439.005736138,397.514340344 L449.713193117,398.183556405 L456.405353728,382.791586998 L473.135755258,380.783938815 L483.173996176,374.091778203 L485.181644359,362.715105163 L491.873804971,364.053537285 L508.604206501,396.845124283 L533.365200765,416.921606119 L525.334608031,440.34416826 L528.680688337,455.736137667 Z" fill="#cee3f5" id="BG.YA" stroke="#6e6e6e" stroke-width="0.4"><desc><labelrank>7</labelrank><code_hasc>BG.YA</code_hasc><name>Yambol</name><admin>Bulgaria</admin><type_en>Province</type_en><region /><woe_id>20070074</woe_id><longitude>26</longitude><woe_name>Yambol</woe_name><fips>BU39</fips><woe_label>Yambol, BG, Bulgaria</woe_label><latitude>42</latitude><iso_a2>BG</iso_a2><postal>YA</postal><type>Oblast</type><id>BG.YA</id></desc></path><path d="M523.326959847,210.803059273 L524.665391969,215.487571702 L514.627151052,227.533460803 L509.273422562,225.52581262 L500.573613767,233.556405354 L500.573613767,239.579349904 L492.543021033,243.594646272 L492.543021033,254.30210325 L487.858508604,253.632887189 L487.858508604,259.65583174 L479.158699809,265.009560229 L466.443594646,263.671128107 L466.443594646,253.632887189 L453.059273423,249.617590822 L453.059273423,243.594646272 L443.021032505,234.894837476 L433.652007648,234.894837476 L432.982791587,216.156787763 L445.69789675,216.826003824 L453.059273423,200.764818356 L441.013384321,196.749521989 L441.682600382,190.726577438 L457.07456979,172.657743786 L475.812619503,174.665391969 L481.166347992,185.372848948 L494.550669216,188.718929254 L497.896749522,194.741873805 L505.258126195,188.718929254 L513.95793499,204.780114723 L523.326959847,210.803059273 Z" fill="#cee3f5" id="BG.RG" stroke="#6e6e6e" stroke-width="0.4"><desc><labelrank>7</labelrank><code_hasc>BG.RG</code_hasc><name>Razgrad</name><admin>Bulgaria</admin><type_en>Province</type_en><region /><woe_id>20070071</woe_id><longitude>26</longitude><woe_name>Razgrad</woe_name><fips>BU52</fips><woe_label>Razgrad, BG, Bulgaria</woe_label><latitude>43</latitude><iso_a2>BG</iso_a2><postal>RG</postal><type>Oblast</type><id>BG.RG</id></desc></path><path d="M492.543021033,254.30210325 L497.896749522,255.640535373 L499.235181644,260.994263862 L493.881453155,271.701720841 L497.227533461,285.086042065 L485.181644359,298.470363289 L488.527724665,301.816443595 L480.497131931,311.185468451 L482.504780115,315.86998088 L475.812619503,318.546845124 L467.112810707,313.862332696 L452.390057361,315.200764818 L449.713193117,310.51625239 L443.021032505,311.185468451 L441.682600382,317.877629063 L430.975143403,323.900573614 L422.944550669,319.885277247 L424.952198853,312.523900574 L418.929254302,301.147227533 L424.282982792,289.101338432 L419.598470363,279.063097514 L422.275334608,273.040152964 L414.913957935,267.686424474 L414.913957935,260.994263862 L406.883365201,252.963671128 L414.913957935,247.609942639 L417.59082218,239.579349904 L433.652007648,234.894837476 L443.021032505,234.894837476 L453.059273423,243.594646272 L453.059273423,249.617590822 L466.443594646,253.632887189 L466.443594646,263.671128107 L479.158699809,265.009560229 L487.858508604,259.65583174 L487.858508604,253.632887189 L492.543021033,254.30210325 Z" fill="#cee3f5" id="BG.TU" stroke="#6e6e6e" stroke-width="0.4"><desc><labelrank>7</labelrank><code_hasc>BG.TU</code_hasc><name>Targovishte</name><admin>Bulgaria</admin><type_en>Province</type_en><region /><woe_id>20070072</woe_id><longitude>26</longitude><woe_name>Targovishte</woe_name><fips>BU52</fips><woe_label>Turgovishte, BG, Bulgaria</woe_label><latitude>43</latitude><iso_a2>BG</iso_a2><postal>TU</postal><type>Oblast</type><id>BG.TU</id></desc></path><path d="M545.411089866,215.487571702 L554.110898662,224.856596558 L565.487571702,224.187380497 L569.502868069,230.210325048 L554.780114723,238.240917782 L560.133843212,239.579349904 L560.133843212,248.2791587 L553.4416826,259.65583174 L556.787762906,268.355640535 L550.764818356,271.701720841 L550.764818356,278.393881453 L540.726577438,281.739961759 L546.749521989,289.770554493 L540.726577438,304.493307839 L546.749521989,309.847036329 L532.026768642,316.539196941 L536.711281071,323.900573614 L526.003824092,327.915869981 L501.242829828,324.569789675 L488.527724665,333.938814532 L483.843212237,326.577437859 L475.812619503,328.585086042 L475.812619503,318.546845124 L482.504780115,315.86998088 L480.497131931,311.185468451 L488.527724665,301.816443595 L485.181644359,298.470363289 L497.227533461,285.086042065 L493.881453155,271.701720841 L499.235181644,260.994263862 L497.896749522,255.640535373 L492.543021033,254.30210325 L492.543021033,243.594646272 L500.573613767,239.579349904 L500.573613767,233.556405354 L509.273422562,225.52581262 L514.627151052,227.533460803 L524.665391969,215.487571702 L523.326959847,210.803059273 L529.349904398,207.456978967 L538.049713193,215.487571702 L545.411089866,215.487571702 Z" fill="#cee3f5" id="BG.SH" stroke="#6e6e6e" stroke-width="0.4"><desc><labelrank>7</labelrank><code_hasc>BG.SH</code_hasc><name>Shumen</name><admin>Bulgaria</admin><type_en>Province</type_en><region /><woe_id>20070052</woe_id><longitude>26</longitude><woe_name>Shumen</woe_name><fips>BU61</fips><woe_label>Shumen, BG, Bulgaria</woe_label><latitude>43</latitude><iso_a2>BG</iso_a2><postal>SH</postal><type>Oblast</type><id>BG.SH</id></desc></path><path d="M643.78585086,262.332695985 L635.086042065,263.001912046 L626.38623327,256.309751434 L619.024856597,260.994263862 L589.579349904,234.225621415 L580.879541109,240.917782027 L569.502868069,230.210325048 L565.487571702,224.187380497 L554.110898662,224.856596558 L545.411089866,215.487571702 L549.426386233,215.487571702 L546.749521989,204.110898662 L553.4416826,196.749521989 L565.487571702,199.426386233 L564.149139579,192.06500956 L576.195028681,190.726577438 L581.54875717,178.011472275 L589.579349904,179.349904398 L592.92543021,168.642447419 L598.2791587,167.304015296 L602.294455067,172.657743786 L623.040152964,165.965583174 L631.070745698,187.380497132 L657.170172084,200.764818356 L696.653919694,202.772466539 L700.0,233.556405354 L685.946462715,259.65583174 L669.216061185,250.956022945 L651.147227533,254.30210325 L643.78585086,262.332695985 Z" fill="#cee3f5" id="BG.DO" stroke="#6e6e6e" stroke-width="0.4"><desc><labelrank>7</labelrank><code_hasc>BG.DO</code_hasc><name>Dobrich</name><admin>Bulgaria</admin><type_en>Province</type_en><region /><woe_id>20070050</woe_id><longitude>27</longitude><woe_name>Dobrich</woe_name><fips>BU61</fips><woe_label>Dobrich, BG, Bulgaria</woe_label><latitude>43</latitude><iso_a2>BG</iso_a2><postal>DO</postal><type>Oblast</type><id>BG.DO</id></desc></path><path d="M643.78585086,262.332695985 L635.755258126,281.070745698 L623.709369025,285.755258126 L628.393881453,290.439770554 L621.701720841,311.854684512 L621.701720841,339.292543021 L613.001912046,343.307839388 L592.256214149,330.592734226 L572.848948375,334.608030593 L549.426386233,318.546845124 L536.711281071,323.900573614 L532.026768642,316.539196941 L546.749521989,309.847036329 L540.726577438,304.493307839 L546.749521989,289.770554493 L540.726577438,281.739961759 L550.764818356,278.393881453 L550.764818356,271.701720841 L556.787762906,268.355640535 L553.4416826,259.65583174 L560.133843212,248.2791587 L560.133843212,239.579349904 L554.780114723,238.240917782 L569.502868069,230.210325048 L580.879541109,240.917782027 L589.579349904,234.225621415 L619.024856597,260.994263862 L626.38623327,256.309751434 L635.086042065,263.001912046 L643.78585086,262.332695985 Z" fill="#cee3f5" id="BG.VN" stroke="#6e6e6e" stroke-width="0.4"><desc><labelrank>7</labelrank><code_hasc>BG.VN</code_hasc><name>Varna</name><admin>Bulgaria</admin><type_en>Province</type_en><region /><woe_id>20070051</woe_id><longitude>27</longitude><woe_name>Varna</woe_name><fips>BU61</fips><woe_label>Varna, BG, Bulgaria</woe_label><latitude>43</latitude><iso_a2>BG</iso_a2><postal>VN</postal><type>Oblast</type><id>BG.VN</id></desc></path><path d="M598.2791587,167.304015296 L592.92543021,168.642447419 L589.579349904,179.349904398 L581.54875717,178.011472275 L576.195028681,190.726577438 L564.149139579,192.06500956 L565.487571702,199.426386233 L553.4416826,196.749521989 L546.749521989,204.110898662 L549.426386233,215.487571702 L545.411089866,215.487571702 L538.049713193,215.487571702 L529.349904398,207.456978967 L523.326959847,210.803059273 L513.95793499,204.780114723 L505.258126195,188.718929254 L497.896749522,194.741873805 L494.550669216,188.718929254 L481.166347992,185.372848948 L475.812619503,174.665391969 L457.07456979,172.657743786 L450.382409178,156.596558317 L496.5583174,149.235181644 L526.003824092,138.527724665 L550.764818356,146.5583174 L565.487571702,163.288718929 L592.256214149,160.611854685 L598.2791587,167.304015296 Z" fill="#cee3f5" id="BG.SI" stroke="#6e6e6e" stroke-width="0.4"><desc><labelrank>7</labelrank><code_hasc>BG.SI</code_hasc><name>Silistra</name><admin>Bulgaria</admin><type_en>Province</type_en><region /><woe_id>20070070</woe_id><longitude>27</longitude><woe_name>Silistra</woe_name><fips>RO41</fips><woe_label>Silistra, BG, Bulgaria</woe_label><latitude>43</latitude><iso_a2>BG</iso_a2><postal>SI</postal><type>Oblast</type><id>BG.SI</id></desc></path><path d="M457.07456979,172.657743786 L441.682600382,190.726577438 L441.013384321,196.749521989 L453.059273423,200.764818356 L445.69789675,216.826003824 L432.982791587,216.156787763 L433.652007648,234.894837476 L417.59082218,239.579349904 L414.913957935,247.609942639 L406.883365201,252.963671128 L414.913957935,260.994263862 L414.913957935,267.686424474 L406.883365201,266.347992352 L405.544933078,258.986615679 L390.152963671,259.65583174 L379.445506692,252.963671128 L369.407265774,252.963671128 L363.384321224,246.940726577 L365.391969407,238.240917782 L354.684512428,232.887189293 L359.369024857,222.179732314 L356.692160612,214.149139579 L389.48374761,204.780114723 L426.959847036,165.296367113 L450.382409178,156.596558317 L457.07456979,172.657743786 Z" fill="#cee3f5" id="BG.RS" stroke="#6e6e6e" stroke-width="0.4"><desc><labelrank>7</labelrank><code_hasc>BG.RS</code_hasc><name>Ruse</name><admin>Bulgaria</admin><type_en>Province</type_en><region /><woe_id>20070069</woe_id><longitude>25</longitude><woe_name>Ruse</woe_name><fips>BU52</fips><woe_label>Ruse, BG, Bulgaria</woe_label><latitude>43</latitude><iso_a2>BG</iso_a2><postal>RS</postal><type>Oblast</type><id>BG.RS</id></desc></path><path d="M158.604206501,434.321223709 L164.627151052,444.359464627 L157.265774379,470.458891013 L160.611854685,482.504780115 L190.726577438,509.942638623 L196.749521989,515.296367113 L191.395793499,519.31166348 L204.780114723,531.357552581 L201.434034417,536.711281071 L187.380497132,534.034416826 L185.372848948,545.411089866 L176.003824092,547.41873805 L169.31166348,542.734225621 L137.189292543,556.118546845 L114.435946463,550.764818356 L104.397705545,554.780114723 L100.382409178,550.095602294 L84.3212237094,562.141491396 L57.552581262,558.126195029 L62.2370936902,543.403441683 L61.5678776291,513.95793499 L70.9369024857,497.227533461 L63.5755258126,492.543021033 L56.8833652008,476.481835564 L54.206500956,455.736137667 L64.913957935,444.359464627 L78.9674952199,450.382409178 L95.0286806883,445.028680688 L115.774378585,450.382409178 L127.820267686,445.028680688 L133.843212237,447.705544933 L140.535372849,437.667304015 L158.604206501,434.321223709 Z" fill="#cee3f5" id="BG.BL" stroke="#6e6e6e" stroke-width="0.4"><desc><labelrank>7</labelrank><code_hasc>BG.BL</code_hasc><name>Blagoevgrad</name><admin>Bulgaria</admin><type_en>Province</type_en><region /><woe_id>20070060</woe_id><longitude>23</longitude><woe_name>Blagoevgrad</woe_name><fips>MK78</fips><woe_label>Blagoevgrad, BG, Bulgaria</woe_label><latitude>41</latitude><iso_a2>BG</iso_a2><postal>BL</postal><type>Oblast</type><id>BG.BL</id></desc></path></svg>