<?xml version='1.0' encoding='utf-8'?>
<svg height="700" width="700" xmlns="http://www.w3.org/2000/svg"><path d="M382.51565762,108.872651357 L336.482254697,108.141962422 L322.599164927,96.4509394572 L300.678496868,62.108559499 L293.371607516,61.3778705637 L280.949895616,52.6096033403 L280.949895616,50.4175365344 L291.17954071,44.5720250522 L294.102296451,40.1878914405 L299.947807933,35.8037578288 L298.486430063,24.8434237996 L295.563674322,20.4592901879 L303.60125261,18.267223382 L318.945720251,30.6889352818 L323.329853862,25.5741127349 L324.060542797,18.9979123173 L322.599164927,15.3444676409 L328.444676409,8.76826722338 L334.290187891,11.6910229645 L355.480167015,30.6889352818 L356.941544885,35.0730688935 L373.747390397,56.993736952 L375.208768267,60.6471816284 L373.747390397,64.3006263048 L379.592901879,82.5678496868 L377.400835073,92.7974947808 L379.592901879,99.3736951983 L378.862212944,104.488517745 L380.323590814,108.141962422 L382.51565762,108.872651357 Z" fill="#cee3f5" id="MW.CT" stroke="#6e6e6e" stroke-width="0.4"><desc><labelrank>8</labelrank><code_hasc>MW.CT</code_hasc><name>Chitipa</name><admin>Malawi</admin><type_en>District</type_en><region /><woe_id>20070125</woe_id><longitude>33</longitude><woe_name>Chitipa</woe_name><fips>MI08</fips><woe_label>Karonga, MW, Malawi</woe_label><latitude>-10</latitude><iso_a2>MW</iso_a2><postal>CT</postal><type>District</type><id>MW.CT</id></desc></path><path d="M295.563674322,20.4592901879 L298.486430063,24.8434237996 L299.947807933,35.8037578288 L294.102296451,40.1878914405 L291.17954071,44.5720250522 L280.949895616,50.4175365344 L280.949895616,52.6096033403 L293.371607516,61.3778705637 L300.678496868,62.108559499 L322.599164927,96.4509394572 L297.755741127,107.411273486 L297.025052192,102.296450939 L293.371607516,100.104384134 L285.334029228,86.9519832985 L285.334029228,76.7223382046 L280.949895616,71.6075156576 L264.87473904,61.3778705637 L265.605427975,56.993736952 L270.720250522,46.764091858 L268.528183716,40.9185803758 L263.413361169,37.9958246347 L256.837160752,31.4196242171 L256.837160752,24.8434237996 L253.183716075,19.7286012526 L246.607515658,18.9979123173 L245.146137787,25.5741127349 L240.762004175,21.1899791232 L236.377870564,21.9206680585 L235.647181628,19.7286012526 L237.108559499,10.9603340292 L231.263048017,8.76826722338 L230.532359081,2.19206680585 L235.647181628,0.0 L247.338204593,9.49895615866 L253.183716075,11.6910229645 L256.106471816,10.2296450939 L264.87473904,10.2296450939 L277.296450939,21.9206680585 L280.949895616,21.9206680585 L287.526096033,18.9979123173 L295.563674322,20.4592901879 Z" fill="#cee3f5" id="MW.1646" stroke="#6e6e6e" stroke-width="0.4"><desc><labelrank>8</labelrank><code_hasc>MW.CT</code_hasc><name>Chitipa</name><admin>Malawi</admin><type_en>District</type_en><region /><woe_id>20070124</woe_id><longitude>33</longitude><woe_name>Chitipa</woe_name><fips>MI04</fips><woe_label>Chitipa, MW, Malawi</woe_label><latitude>-9</latitude><iso_a2>MW</iso_a2><postal>CT</postal><type>District</type><id>MW.1646</id></desc></path><path d="M311.638830898,300.313152401 L310.908141962,312.004175365 L320.407098121,312.734864301 L326.252609603,320.041753653 L318.945720251,328.079331942 L312.369519833,331.732776618 L299.947807933,344.885177453 L292.64091858,347.077244259 L283.872651357,357.306889353 L278.75782881,355.845511482 L279.488517745,360.229645094 L275.104384134,369.728601253 L271.450939457,373.382045929 L271.450939457,378.496868476 L267.066805846,382.881002088 L254.645093946,370.459290188 L250.260960334,356.576200418 L229.070981211,358.037578288 L231.993736952,349.269311065 L237.839248434,344.154488518 L234.916492693,336.847599165 L238.56993737,318.580375783 L232.724425887,312.004175365 L232.724425887,305.427974948 L240.03131524,291.544885177 L242.954070981,288.622129436 L245.146137787,290.814196242 L249.530271399,288.622129436 L253.183716075,292.275574113 L260.490605428,284.237995825 L267.066805846,284.237995825 L270.720250522,282.776617954 L283.141962422,269.624217119 L289.718162839,271.816283925 L286.795407098,277.661795407 L287.526096033,282.776617954 L289.718162839,287.160751566 L288.256784969,293.736951983 L291.910229645,295.198329854 L297.025052192,300.313152401 L305.06263048,298.85177453 L308.716075157,301.043841336 L311.638830898,300.313152401 Z" fill="#cee3f5" id="MW.KS" stroke="#6e6e6e" stroke-width="0.4"><desc><labelrank>8</labelrank><code_hasc>MW.KS</code_hasc><name>Kasungu</name><admin>Malawi</admin><type_en>District</type_en><region>Central</region><woe_id>20070128</woe_id><longitude>33</longitude><woe_name>Kasungu</woe_name><fips>MI09</fips><woe_label>Kasungu, MW, Malawi</woe_label><latitude>-12</latitude><iso_a2>MW</iso_a2><postal>KS</postal><type>District</type><id>MW.KS</id></desc></path><path d="M332.098121086,152.713987474 L328.444676409,168.058455115 L331.36743215,170.981210856 L335.751565762,186.325678497 L331.36743215,188.517745303 L327.713987474,187.787056367 L322.599164927,194.363256785 L314.561586639,194.363256785 L307.985386221,199.478079332 L306.524008351,206.784968685 L305.793319415,211.169102296 L310.908141962,217.745302714 L308.716075157,225.782881002 L310.908141962,235.281837161 L301.409185804,244.780793319 L306.524008351,249.164926931 L312.369519833,249.164926931 L305.06263048,256.471816284 L305.793319415,260.855949896 L313.100208768,263.778705637 L319.676409186,277.661795407 L335.751565762,281.315240084 L332.098121086,287.160751566 L316.753653445,292.275574113 L311.638830898,300.313152401 L308.716075157,301.043841336 L305.06263048,298.85177453 L297.025052192,300.313152401 L291.910229645,295.198329854 L288.256784969,293.736951983 L289.718162839,287.160751566 L287.526096033,282.776617954 L286.795407098,277.661795407 L289.718162839,271.816283925 L283.141962422,269.624217119 L284.603340292,268.162839248 L283.141962422,265.970772443 L278.027139875,264.509394572 L271.450939457,266.701461378 L268.528183716,265.970772443 L264.144050104,253.549060543 L259.759916493,248.434237996 L260.490605428,242.588726514 L265.605427975,227.244258873 L264.144050104,222.129436326 L265.605427975,215.553235908 L264.144050104,199.478079332 L256.837160752,196.555323591 L258.298538622,192.171189979 L258.298538622,183.402922756 L259.029227557,181.941544885 L261.221294363,184.133611691 L261.951983299,179.018789144 L264.144050104,177.557411273 L272.181628392,160.751565762 L266.33611691,151.252609603 L263.413361169,143.945720251 L276.565762004,146.868475992 L278.027139875,155.636743215 L286.064718163,147.599164927 L291.910229645,150.521920668 L298.486430063,150.521920668 L302.139874739,153.444676409 L304.331941545,151.983298539 L304.331941545,148.329853862 L310.177453027,146.868475992 L319.676409186,148.329853862 L321.868475992,142.48434238 L328.444676409,147.599164927 L332.098121086,152.713987474 Z" fill="#cee3f5" id="MW.MZ" stroke="#6e6e6e" stroke-width="0.4"><desc><labelrank>7</labelrank><code_hasc>MW.MZ</code_hasc><name>Mzimba</name><admin>Malawi</admin><type_en>District</type_en><region>Northern</region><woe_id>20070127</woe_id><longitude>33</longitude><woe_name>Mzimba</woe_name><fips>MI15</fips><woe_label>Mzimba, MW, Malawi</woe_label><latitude>-11</latitude><iso_a2>MW</iso_a2><postal>MZ</postal><type>District</type><id>MW.MZ</id></desc></path><path d="M381.784968685,143.215031315 L379.592901879,147.599164927 L381.784968685,157.098121086 L390.553235908,164.405010438 L391.283924843,169.519832985 L394.206680585,171.711899791 L392.014613779,173.173277662 L394.93736952,177.557411273 L397.860125261,176.096033403 L405.167014614,180.480167015 L411.743215031,191.440501044 L412.473903967,198.016701461 L381.054279749,198.747390397 L380.323590814,212.630480167 L376.670146138,221.39874739 L359.864300626,245.511482255 L357.67223382,255.010438413 L329.175365344,255.010438413 L322.599164927,252.818371608 L316.022964509,249.164926931 L312.369519833,249.164926931 L306.524008351,249.164926931 L301.409185804,244.780793319 L310.908141962,235.281837161 L308.716075157,225.782881002 L310.908141962,217.745302714 L305.793319415,211.169102296 L306.524008351,206.784968685 L307.985386221,199.478079332 L314.561586639,194.363256785 L322.599164927,194.363256785 L327.713987474,187.787056367 L331.36743215,188.517745303 L335.751565762,186.325678497 L331.36743215,170.981210856 L328.444676409,168.058455115 L332.098121086,152.713987474 L347.442588727,143.215031315 L381.784968685,143.215031315 Z" fill="#cee3f5" id="MW.NA" stroke="#6e6e6e" stroke-width="0.4"><desc><labelrank>7</labelrank><code_hasc>MW.NA</code_hasc><name>Nkhata Bay</name><admin>Malawi</admin><type_en>District</type_en><region>Northern</region><woe_id>20070147</woe_id><longitude>34</longitude><woe_name>Nkhata Bay</woe_name><fips>MI17</fips><woe_label>Nkhata Bay, MW, Malawi</woe_label><latitude>-11</latitude><iso_a2>MW</iso_a2><postal>NA</postal><type>District</type><id>MW.NA</id></desc></path><path d="M357.67223382,255.010438413 L370.09394572,298.121085595 L374.478079332,341.231732777 L374.478079332,355.845511482 L377.400835073,363.152400835 L354.749478079,363.152400835 L337.943632568,370.459290188 L335.020876827,341.962421712 L331.36743215,340.501043841 L331.36743215,336.11691023 L326.983298539,337.5782881 L324.791231733,341.962421712 L322.599164927,341.231732777 L318.945720251,332.463465553 L318.945720251,328.079331942 L326.252609603,320.041753653 L320.407098121,312.734864301 L310.908141962,312.004175365 L311.638830898,300.313152401 L316.753653445,292.275574113 L332.098121086,287.160751566 L335.751565762,281.315240084 L319.676409186,277.661795407 L313.100208768,263.778705637 L305.793319415,260.855949896 L305.06263048,256.471816284 L312.369519833,249.164926931 L316.022964509,249.164926931 L322.599164927,252.818371608 L329.175365344,255.010438413 L357.67223382,255.010438413 Z" fill="#cee3f5" id="MW.NK" stroke="#6e6e6e" stroke-width="0.4"><desc><labelrank>7</labelrank><code_hasc>MW.NK</code_hasc><name>Nkhotakota</name><admin>Malawi</admin><type_en>District</type_en><region>Central</region><woe_id>20070129</woe_id><longitude>34</longitude><woe_name>Nkhotakota</woe_name><fips>MI18</fips><woe_label>Nkhotakota, MW, Malawi</woe_label><latitude>-12</latitude><iso_a2>MW</iso_a2><postal>NK</postal><type>District</type><id>MW.NK</id></desc></path><path d="M382.51565762,108.872651357 L385.438413361,116.17954071 L384.707724426,119.832985386 L386.899791232,124.217118998 L385.438413361,125.678496868 L384.707724426,137.369519833 L381.784968685,143.215031315 L347.442588727,143.215031315 L332.098121086,152.713987474 L328.444676409,147.599164927 L321.868475992,142.48434238 L319.676409186,148.329853862 L310.177453027,146.868475992 L304.331941545,148.329853862 L304.331941545,151.983298539 L302.139874739,153.444676409 L298.486430063,150.521920668 L291.910229645,150.521920668 L286.064718163,147.599164927 L278.027139875,155.636743215 L276.565762004,146.868475992 L263.413361169,143.945720251 L262.682672234,138.100208768 L258.298538622,136.638830898 L259.029227557,133.716075157 L263.413361169,132.985386221 L266.33611691,129.331941545 L276.565762004,128.60125261 L282.411273486,124.947807933 L284.603340292,119.832985386 L297.755741127,107.411273486 L322.599164927,96.4509394572 L336.482254697,108.141962422 L382.51565762,108.872651357 Z" fill="#cee3f5" id="MW.RU" stroke="#6e6e6e" stroke-width="0.4"><desc><labelrank>8</labelrank><code_hasc>MW.RU</code_hasc><name>Rumphi</name><admin>Malawi</admin><type_en>District</type_en><region>Northern</region><woe_id>20070126</woe_id><longitude>33</longitude><woe_name>Rumphi</woe_name><fips>MI21</fips><woe_label>Rumphi, MW, Malawi</woe_label><latitude>-10</latitude><iso_a2>MW</iso_a2><postal>RU</postal><type>District</type><id>MW.RU</id></desc></path><path d="M481.889352818,526.826722338 L459.237995825,526.096033403 L452.661795407,529.749478079 L442.432150313,526.826722338 L438.778705637,529.749478079 L433.66388309,528.288100209 L430.741127349,530.480167015 L427.818371608,528.288100209 L433.66388309,512.212943633 L439.509394572,503.444676409 L440.240083507,491.753653445 L437.317327766,485.177453027 L438.778705637,478.60125261 L444.624217119,483.716075157 L453.392484342,485.908141962 L460.699373695,480.06263048 L460.699373695,474.217118998 L462.891440501,472.025052192 L474.582463466,469.102296451 L478.966597077,466.910229645 L487.734864301,476.409185804 L489.196242171,496.868475992 L492.118997912,497.599164927 L481.889352818,520.981210856 L481.889352818,526.826722338 Z" fill="#cee3f5" id="MW.MA" stroke="#6e6e6e" stroke-width="0.4"><desc><labelrank>7</labelrank><code_hasc>MW.MA</code_hasc><name>Machinga</name><admin>Malawi</admin><type_en>District</type_en><region /><woe_id>20070138</woe_id><longitude>35</longitude><woe_name>Machinga</woe_name><fips>MI28</fips><woe_label>Machinga, MW, Malawi</woe_label><latitude>-14</latitude><iso_a2>MW</iso_a2><postal>MA</postal><type>District</type><id>MW.MA</id></desc></path><path d="M390.553235908,423.799582463 L391.283924843,444.258872651 L372.286012526,455.219206681 L362.056367432,452.296450939 L359.133611691,453.75782881 L354.749478079,451.565762004 L341.597077244,455.949895616 L335.020876827,456.680584551 L332.098121086,457.411273486 L329.90605428,461.064718163 L318.215031315,459.603340292 L307.985386221,464.718162839 L300.678496868,460.334029228 L297.755741127,463.256784969 L295.563674322,471.294363257 L291.910229645,466.910229645 L297.755741127,461.064718163 L300.678496868,451.565762004 L311.638830898,444.258872651 L319.676409186,442.797494781 L322.599164927,434.029227557 L327.713987474,432.567849687 L333.559498956,426.722338205 L343.78914405,409.916492693 L351.096033403,403.340292276 L369.363256785,426.722338205 L373.747390397,423.068893528 L390.553235908,423.799582463 Z" fill="#cee3f5" id="MW.DE" stroke="#6e6e6e" stroke-width="0.4"><desc><labelrank>7</labelrank><code_hasc>MW.DE</code_hasc><name>Dedza</name><admin>Malawi</admin><type_en>District</type_en><region>Central</region><woe_id>20070135</woe_id><longitude>34</longitude><woe_name>Dedza</woe_name><fips>MI06</fips><woe_label>Dedza, MW, Malawi</woe_label><latitude>-14</latitude><iso_a2>MW</iso_a2><postal>DE</postal><type>District</type><id>MW.DE</id></desc></path><path d="M336.482254697,371.920668058 L337.212943633,378.496868476 L336.482254697,382.881002088 L343.78914405,388.72651357 L351.096033403,387.265135699 L352.557411273,393.841336117 L348.173277662,396.764091858 L329.90605428,400.417536534 L320.407098121,395.302713987 L307.254697286,394.572025052 L303.60125261,385.803757829 L288.987473904,389.457202505 L283.872651357,389.457202505 L278.75782881,386.534446764 L276.565762004,377.035490605 L277.296450939,371.920668058 L275.104384134,369.728601253 L279.488517745,360.229645094 L278.75782881,355.845511482 L283.872651357,357.306889353 L292.64091858,347.077244259 L293.371607516,350.730688935 L300.678496868,358.768267223 L304.331941545,371.920668058 L315.292275574,370.459290188 L331.36743215,373.382045929 L336.482254697,371.920668058 Z" fill="#cee3f5" id="MW.DO" stroke="#6e6e6e" stroke-width="0.4"><desc><labelrank>8</labelrank><code_hasc>MW.DO</code_hasc><name>Dowa</name><admin>Malawi</admin><type_en>District</type_en><region>Central</region><woe_id>20070132</woe_id><longitude>33</longitude><woe_name>Dowa</woe_name><fips>MI07</fips><woe_label>Dowa, MW, Malawi</woe_label><latitude>-13</latitude><iso_a2>MW</iso_a2><postal>DO</postal><type>District</type><id>MW.DO</id></desc></path><path d="M348.173277662,396.764091858 L347.442588727,398.956158664 L343.058455115,401.878914405 L342.32776618,404.801670146 L351.096033403,403.340292276 L343.78914405,409.916492693 L333.559498956,426.722338205 L327.713987474,432.567849687 L322.599164927,434.029227557 L319.676409186,442.797494781 L311.638830898,444.258872651 L300.678496868,451.565762004 L297.755741127,461.064718163 L291.910229645,466.910229645 L289.718162839,462.526096033 L278.027139875,453.027139875 L269.258872651,436.951983299 L267.066805846,425.991649269 L267.797494781,414.300626305 L259.759916493,401.14822547 L262.682672234,390.187891441 L267.066805846,382.881002088 L271.450939457,378.496868476 L271.450939457,373.382045929 L275.104384134,369.728601253 L277.296450939,371.920668058 L276.565762004,377.035490605 L278.75782881,386.534446764 L283.872651357,389.457202505 L288.987473904,389.457202505 L303.60125261,385.803757829 L307.254697286,394.572025052 L320.407098121,395.302713987 L329.90605428,400.417536534 L348.173277662,396.764091858 Z" fill="#cee3f5" id="MW.LI" stroke="#6e6e6e" stroke-width="0.4"><desc><labelrank>7</labelrank><code_hasc>MW.LI</code_hasc><name>Lilongwe</name><admin>Malawi</admin><type_en>District</type_en><region>Central</region><woe_id>20070134</woe_id><longitude>33</longitude><woe_name>Lilongwe</woe_name><fips>MI11</fips><woe_label>Lilongwe, MW, Malawi</woe_label><latitude>-14</latitude><iso_a2>MW</iso_a2><postal>LI</postal><type>District</type><id>MW.LI</id></desc></path><path d="M478.966597077,466.910229645 L474.582463466,469.102296451 L462.891440501,472.025052192 L460.699373695,474.217118998 L460.699373695,480.06263048 L453.392484342,485.908141962 L444.624217119,483.716075157 L438.778705637,478.60125261 L437.317327766,485.177453027 L412.473903967,485.177453027 L405.897703549,480.793319415 L395.668058455,466.910229645 L392.014613779,453.027139875 L391.283924843,444.258872651 L390.553235908,423.799582463 L402.244258873,373.382045929 L421.24217119,390.187891441 L454.123173278,429.645093946 L459.237995825,441.33611691 L478.966597077,466.910229645 Z" fill="#cee3f5" id="MW.MG" stroke="#6e6e6e" stroke-width="0.4"><desc><labelrank>7</labelrank><code_hasc>MW.MG</code_hasc><name>Mangochi</name><admin>Malawi</admin><type_en>District</type_en><region>Southern</region><woe_id>20070136</woe_id><longitude>35</longitude><woe_name>Mangochi</woe_name><fips>MI12</fips><woe_label>Mangochi, MW, Malawi</woe_label><latitude>-14</latitude><iso_a2>MW</iso_a2><postal>MG</postal><type>District</type><id>MW.MG</id></desc></path><path d="M267.066805846,382.881002088 L262.682672234,390.187891441 L259.759916493,401.14822547 L267.797494781,414.300626305 L267.066805846,425.991649269 L269.258872651,436.951983299 L263.413361169,430.375782881 L262.682672234,421.607515658 L255.375782881,417.223382046 L250.260960334,409.916492693 L237.839248434,420.876826722 L234.916492693,416.492693111 L235.647181628,411.377870564 L231.993736952,409.916492693 L231.263048017,405.532359081 L226.878914405,400.417536534 L216.649269311,396.033402923 L216.649269311,393.841336117 L221.033402923,390.187891441 L217.379958246,384.342379958 L209.342379958,382.881002088 L207.881002088,379.958246347 L209.342379958,377.035490605 L212.995824635,377.766179541 L221.033402923,374.112734864 L221.764091858,368.997912317 L226.878914405,366.075156576 L229.070981211,358.037578288 L250.260960334,356.576200418 L254.645093946,370.459290188 L267.066805846,382.881002088 Z" fill="#cee3f5" id="MW.MC" stroke="#6e6e6e" stroke-width="0.4"><desc><labelrank>7</labelrank><code_hasc>MW.MC</code_hasc><name>Mchinji</name><admin>Malawi</admin><type_en>District</type_en><region>Central</region><woe_id>20070131</woe_id><longitude>33</longitude><woe_name>Mchinji</woe_name><fips>MI13</fips><woe_label>Mchinji, MW, Malawi</woe_label><latitude>-13</latitude><iso_a2>MW</iso_a2><postal>MC</postal><type>District</type><id>MW.MC</id></desc></path><path d="M412.473903967,485.177453027 L411.012526096,496.137787056 L405.897703549,504.175365344 L399.321503132,535.594989562 L397.129436326,536.325678497 L396.39874739,531.21085595 L394.206680585,529.018789144 L374.478079332,525.365344468 L373.747390397,512.212943633 L376.670146138,505.636743215 L373.747390397,499.791231733 L373.016701461,488.830897704 L370.09394572,480.06263048 L370.824634656,471.294363257 L359.133611691,453.75782881 L362.056367432,452.296450939 L372.286012526,455.219206681 L391.283924843,444.258872651 L392.014613779,453.027139875 L395.668058455,466.910229645 L405.897703549,480.793319415 L412.473903967,485.177453027 Z" fill="#cee3f5" id="MW.NU" stroke="#6e6e6e" stroke-width="0.4"><desc><labelrank>7</labelrank><code_hasc>MW.NU</code_hasc><name>Ntcheu</name><admin>Malawi</admin><type_en>District</type_en><region>Central</region><woe_id>20070137</woe_id><longitude>34</longitude><woe_name>Ntcheu</woe_name><fips>MI16</fips><woe_label>Ntcheu, MW, Malawi</woe_label><latitude>-14</latitude><iso_a2>MW</iso_a2><postal>NU</postal><type>District</type><id>MW.NU</id></desc></path><path d="M337.943632568,370.459290188 L336.482254697,371.920668058 L331.36743215,373.382045929 L315.292275574,370.459290188 L304.331941545,371.920668058 L300.678496868,358.768267223 L293.371607516,350.730688935 L292.64091858,347.077244259 L299.947807933,344.885177453 L312.369519833,331.732776618 L318.945720251,328.079331942 L318.945720251,332.463465553 L322.599164927,341.231732777 L324.791231733,341.962421712 L326.983298539,337.5782881 L331.36743215,336.11691023 L331.36743215,340.501043841 L335.020876827,341.962421712 L337.943632568,370.459290188 Z" fill="#cee3f5" id="MW.NI" stroke="#6e6e6e" stroke-width="0.4"><desc><labelrank>8</labelrank><code_hasc>MW.NI</code_hasc><name>Ntchisi</name><admin>Malawi</admin><type_en>District</type_en><region>Central</region><woe_id>20070130</woe_id><longitude>33</longitude><woe_name>Ntchisi</woe_name><fips>MI20</fips><woe_label>Ntchisi, MW, Malawi</woe_label><latitude>-13</latitude><iso_a2>MW</iso_a2><postal>NI</postal><type>District</type><id>MW.NI</id></desc></path><path d="M402.244258873,373.382045929 L390.553235908,423.799582463 L373.747390397,423.068893528 L369.363256785,426.722338205 L351.096033403,403.340292276 L342.32776618,404.801670146 L343.058455115,401.878914405 L347.442588727,398.956158664 L348.173277662,396.764091858 L352.557411273,393.841336117 L351.096033403,387.265135699 L343.78914405,388.72651357 L336.482254697,382.881002088 L337.212943633,378.496868476 L336.482254697,371.920668058 L337.943632568,370.459290188 L354.749478079,363.152400835 L377.400835073,363.152400835 L383.246346555,371.189979123 L402.244258873,373.382045929 Z" fill="#cee3f5" id="MW.SA" stroke="#6e6e6e" stroke-width="0.4"><desc><labelrank>8</labelrank><code_hasc>MW.SA</code_hasc><name>Salima</name><admin>Malawi</admin><type_en>District</type_en><region>Central</region><woe_id>20070133</woe_id><longitude>34</longitude><woe_name>Salima</woe_name><fips>MI22</fips><woe_label>Salima, MW, Malawi</woe_label><latitude>-13</latitude><iso_a2>MW</iso_a2><postal>SA</postal><type>District</type><id>MW.SA</id></desc></path><path d="M437.317327766,485.177453027 L440.240083507,491.753653445 L439.509394572,503.444676409 L433.66388309,512.212943633 L427.818371608,528.288100209 L421.24217119,535.594989562 L417.588726514,536.325678497 L399.321503132,535.594989562 L405.897703549,504.175365344 L411.012526096,496.137787056 L412.473903967,485.177453027 L437.317327766,485.177453027 Z" fill="#cee3f5" id="MW.BA" stroke="#6e6e6e" stroke-width="0.4"><desc><labelrank>8</labelrank><code_hasc>MW.BA</code_hasc><name>Balaka</name><admin>Malawi</admin><type_en>District</type_en><region>Southern</region><woe_id>1500503</woe_id><longitude>35</longitude><woe_name>Balaka</woe_name><fips>MI26</fips><woe_label /><latitude>-15</latitude><iso_a2>MW</iso_a2><postal>BA</postal><type>District</type><id>MW.BA</id></desc></path><path d="M390.553235908,580.167014614 L400.782881002,581.628392484 L401.513569937,584.551148225 L398.590814196,594.780793319 L401.513569937,594.780793319 L401.513569937,598.434237996 L402.974947808,599.895615866 L419.050104384,621.08559499 L420.511482255,627.661795407 L416.858037578,641.544885177 L409.551148225,648.85177453 L408.82045929,653.235908142 L401.513569937,660.542797495 L397.860125261,658.350730689 L388.361169102,645.198329854 L381.784968685,641.544885177 L370.824634656,624.008350731 L363.517745303,623.277661795 L362.056367432,621.816283925 L358.402922756,613.778705637 L359.864300626,602.087682672 L351.826722338,592.588726514 L345.981210856,589.665970772 L345.250521921,586.743215031 L346.711899791,578.705636743 L354.749478079,572.860125261 L371.555323591,579.436325678 L390.553235908,580.167014614 Z" fill="#cee3f5" id="MW.CK" stroke="#6e6e6e" stroke-width="0.4"><desc><labelrank>8</labelrank><code_hasc>MW.CK</code_hasc><name>Chikwawa</name><admin>Malawi</admin><type_en>District</type_en><region>Southern</region><woe_id>20070146</woe_id><longitude>34</longitude><woe_name>Chikwawa</woe_name><fips>MI02</fips><woe_label>Chikwawa, MW, Malawi</woe_label><latitude>-16</latitude><iso_a2>MW</iso_a2><postal>CK</postal><type>District</type><id>MW.CK</id></desc></path><path d="M442.432150313,569.206680585 L440.240083507,574.321503132 L440.970772443,594.050104384 L439.509394572,598.434237996 L430.010438413,586.012526096 L424.895615866,585.281837161 L422.703549061,579.436325678 L421.24217119,562.630480167 L424.895615866,556.054279749 L429.279749478,554.592901879 L429.279749478,557.51565762 L432.933194154,560.438413361 L436.586638831,566.283924843 L442.432150313,569.206680585 Z" fill="#cee3f5" id="MW.CR" stroke="#6e6e6e" stroke-width="0.4"><desc><labelrank>9</labelrank><code_hasc>MW.CR</code_hasc><name>Chiradzulu</name><admin>Malawi</admin><type_en>District</type_en><region>Southern</region><woe_id>20070142</woe_id><longitude>35</longitude><woe_name>Chiradzulu</woe_name><fips>MI03</fips><woe_label>Chiradzulu, MW, Malawi</woe_label><latitude>-15</latitude><iso_a2>MW</iso_a2><postal>CR</postal><type>District</type><id>MW.CR</id></desc></path><path d="M439.509394572,598.434237996 L439.509394572,609.394572025 L436.586638831,614.509394572 L438.048016701,616.701461378 L434.394572025,622.54697286 L435.12526096,629.853862213 L432.202505219,633.507306889 L424.895615866,632.776617954 L420.511482255,627.661795407 L419.050104384,621.08559499 L402.974947808,599.895615866 L408.089770355,596.972860125 L411.743215031,591.127348643 L415.396659708,590.396659708 L424.895615866,585.281837161 L430.010438413,586.012526096 L439.509394572,598.434237996 Z" fill="#cee3f5" id="MW.TH" stroke="#6e6e6e" stroke-width="0.4"><desc><labelrank>8</labelrank><code_hasc>MW.TH</code_hasc><name>Thyolo</name><admin>Malawi</admin><type_en>District</type_en><region>Southern</region><woe_id>20070144</woe_id><longitude>35</longitude><woe_name>Thyolo</woe_name><fips>MI05</fips><woe_label>Thyolo, MW, Malawi</woe_label><latitude>-16</latitude><iso_a2>MW</iso_a2><postal>TH</postal><type>District</type><id>MW.TH</id></desc></path><path d="M432.202505219,633.507306889 L431.471816284,640.083507307 L423.434237996,645.929018789 L427.087682672,653.966597077 L430.741127349,655.427974948 L435.855949896,661.27348643 L438.048016701,674.425887265 L435.855949896,676.617954071 L435.12526096,683.194154489 L438.778705637,686.11691023 L436.586638831,700.0 L422.703549061,700.0 L416.858037578,697.807933194 L416.858037578,695.615866388 L414.665970772,691.231732777 L415.396659708,688.308977035 L421.24217119,683.924843424 L421.972860125,681.732776618 L421.972860125,672.964509395 L419.780793319,671.503131524 L411.743215031,670.772442589 L402.974947808,664.196242171 L401.513569937,660.542797495 L408.82045929,653.235908142 L409.551148225,648.85177453 L416.858037578,641.544885177 L420.511482255,627.661795407 L424.895615866,632.776617954 L432.202505219,633.507306889 Z" fill="#cee3f5" id="MW.NS" stroke="#6e6e6e" stroke-width="0.4"><desc><labelrank>7</labelrank><code_hasc>MW.NS</code_hasc><name>Nsanje</name><admin>Malawi</admin><type_en>District</type_en><region>Southern</region><woe_id>20070145</woe_id><longitude>35</longitude><woe_name>Nsanje</woe_name><fips>MI19</fips><woe_label>Nsanje, MW, Malawi</woe_label><latitude>-17</latitude><iso_a2>MW</iso_a2><postal>NS</postal><type>District</type><id>MW.NS</id></desc></path><path d="M481.889352818,526.826722338 L485.542797495,549.478079332 L476.043841336,549.478079332 L470.198329854,551.670146138 L459.96868476,559.707724426 L458.507306889,562.630480167 L453.392484342,567.745302714 L442.432150313,569.206680585 L436.586638831,566.283924843 L432.933194154,560.438413361 L429.279749478,557.51565762 L429.279749478,554.592901879 L424.895615866,556.054279749 L422.703549061,554.592901879 L424.895615866,550.208768267 L421.24217119,549.478079332 L413.935281837,539.248434238 L417.588726514,536.325678497 L421.24217119,535.594989562 L427.818371608,528.288100209 L430.741127349,530.480167015 L433.66388309,528.288100209 L438.778705637,529.749478079 L442.432150313,526.826722338 L452.661795407,529.749478079 L459.237995825,526.096033403 L481.889352818,526.826722338 Z" fill="#cee3f5" id="MW.ZO" stroke="#6e6e6e" stroke-width="0.4"><desc><labelrank>8</labelrank><code_hasc>MW.ZO</code_hasc><name>Zomba</name><admin>Malawi</admin><type_en>District</type_en><region>Southern</region><woe_id>20070140</woe_id><longitude>35</longitude><woe_name>Zomba</woe_name><fips>MI23</fips><woe_label>Zomba, MW, Malawi</woe_label><latitude>-15</latitude><iso_a2>MW</iso_a2><postal>ZO</postal><type>District</type><id>MW.ZO</id></desc></path><path d="M424.895615866,556.054279749 L421.24217119,562.630480167 L422.703549061,579.436325678 L424.895615866,585.281837161 L415.396659708,590.396659708 L411.743215031,591.127348643 L408.089770355,596.972860125 L402.974947808,599.895615866 L401.513569937,598.434237996 L401.513569937,594.780793319 L398.590814196,594.780793319 L401.513569937,584.551148225 L400.782881002,581.628392484 L390.553235908,580.167014614 L389.091858038,570.668058455 L392.014613779,567.745302714 L392.014613779,561.899791232 L392.745302714,559.707724426 L398.590814196,556.054279749 L405.167014614,542.901878914 L413.935281837,539.248434238 L421.24217119,549.478079332 L424.895615866,550.208768267 L422.703549061,554.592901879 L424.895615866,556.054279749 Z" fill="#cee3f5" id="MW.BL" stroke="#6e6e6e" stroke-width="0.4"><desc><labelrank>7</labelrank><code_hasc>MW.BL</code_hasc><name>Blantyre</name><admin>Malawi</admin><type_en>District</type_en><region>Southern</region><woe_id>20070143</woe_id><longitude>34</longitude><woe_name>Blantyre</woe_name><fips>MI24</fips><woe_label>Blantyre, MW, Malawi</woe_label><latitude>-15</latitude><iso_a2>MW</iso_a2><postal>BL</postal><type>District</type><id>MW.BL</id></desc></path><path d="M392.014613779,561.899791232 L392.014613779,567.745302714 L389.091858038,570.668058455 L390.553235908,580.167014614 L371.555323591,579.436325678 L354.749478079,572.860125261 L360.594989562,565.553235908 L362.056367432,558.977035491 L392.014613779,561.899791232 Z" fill="#cee3f5" id="MW.MW" stroke="#6e6e6e" stroke-width="0.4"><desc><labelrank>7</labelrank><code_hasc>MW.MW</code_hasc><name>Mwanza</name><admin>Malawi</admin><type_en>District</type_en><region>Southern</region><woe_id>20070139</woe_id><longitude>34</longitude><woe_name>Mwanza</woe_name><fips>MI25</fips><woe_label /><latitude>-15</latitude><iso_a2>MW</iso_a2><postal>MW</postal><type>District</type><id>MW.MW</id></desc></path><path d="M481.889352818,592.588726514 L480.427974948,602.087682672 L473.121085595,607.933194154 L458.507306889,610.855949896 L457.045929019,613.778705637 L451.931106472,609.394572025 L446.08559499,609.394572025 L438.048016701,616.701461378 L436.586638831,614.509394572 L439.509394572,609.394572025 L439.509394572,598.434237996 L440.970772443,594.050104384 L440.240083507,574.321503132 L442.432150313,569.206680585 L453.392484342,567.745302714 L458.507306889,562.630480167 L458.507306889,564.822546973 L455.584551148,569.93736952 L457.045929019,570.668058455 L458.507306889,582.35908142 L461.43006263,584.551148225 L464.352818372,592.588726514 L470.198329854,588.204592902 L476.043841336,593.319415449 L481.889352818,592.588726514 Z" fill="#cee3f5" id="MW.MJ" stroke="#6e6e6e" stroke-width="0.4"><desc><labelrank>7</labelrank><code_hasc>MW.MJ</code_hasc><name>Mulanje</name><admin>Malawi</admin><type_en>District</type_en><region>Southern</region><woe_id>20070141</woe_id><longitude>35</longitude><woe_name>Mulanje</woe_name><fips>MI29</fips><woe_label>Mulanje, MW, Malawi</woe_label><latitude>-15</latitude><iso_a2>MW</iso_a2><postal>MJ</postal><type>District</type><id>MW.MJ</id></desc></path><path d="M481.889352818,592.588726514 L476.043841336,593.319415449 L470.198329854,588.204592902 L464.352818372,592.588726514 L461.43006263,584.551148225 L458.507306889,582.35908142 L457.045929019,570.668058455 L455.584551148,569.93736952 L458.507306889,564.822546973 L458.507306889,562.630480167 L459.96868476,559.707724426 L470.198329854,551.670146138 L476.043841336,549.478079332 L485.542797495,549.478079332 L481.889352818,592.588726514 Z" fill="#cee3f5" id="MW.PH" stroke="#6e6e6e" stroke-width="0.4"><desc><labelrank>8</labelrank><code_hasc>MW.PH</code_hasc><name>Phalombe</name><admin>Malawi</admin><type_en>District</type_en><region>Southern</region><woe_id>1368989</woe_id><longitude>35</longitude><woe_name>Phalombe</woe_name><fips>MI30</fips><woe_label /><latitude>-15</latitude><iso_a2>MW</iso_a2><postal>PH</postal><type>District</type><id>MW.PH</id></desc></path><path d="M389.822546973,247.703549061 L385.438413361,246.972860125 L384.707724426,245.511482255 L388.361169102,236.743215031 L392.014613779,237.473903967 L394.206680585,240.396659708 L392.745302714,244.780793319 L389.822546973,247.703549061 M382.51565762,241.127348643 L379.592901879,242.588726514 L374.478079332,236.012526096 L379.592901879,233.82045929 L381.784968685,235.281837161 L382.51565762,241.127348643 Z" fill="#cee3f5" id="MW.6970" stroke="#6e6e6e" stroke-width="0.4"><desc><labelrank>7</labelrank><code_hasc>MW.NA</code_hasc><name>Likoma</name><admin>Malawi</admin><type_en>District</type_en><region>Northern</region><woe_id>20070147</woe_id><longitude>34</longitude><woe_name>Nkhata Bay</woe_name><fips>MI17</fips><woe_label>Nkhata Bay, MW, Malawi</woe_label><latitude>-12</latitude><iso_a2>MW</iso_a2><postal>NA</postal><type>District</type><id>MW.6970</id></desc></path><path d="M399.321503132,535.594989562 L417.588726514,536.325678497 L413.935281837,539.248434238 L405.167014614,542.901878914 L398.590814196,556.054279749 L392.745302714,559.707724426 L392.014613779,561.899791232 L362.056367432,558.977035491 L361.325678497,550.208768267 L374.478079332,534.133611691 L374.478079332,525.365344468 L394.206680585,529.018789144 L396.39874739,531.21085595 L397.129436326,536.325678497 L399.321503132,535.594989562 Z" fill="#cee3f5" id="MW.6971" stroke="#6e6e6e" stroke-width="0.4"><desc><labelrank>7</labelrank><code_hasc>MW.MW</code_hasc><name>Neno</name><admin>Malawi</admin><type_en>District</type_en><region>Southern</region><woe_id>20070139</woe_id><longitude>34</longitude><woe_name>Mwanza</woe_name><fips>MI31</fips><woe_label /><latitude>-15</latitude><iso_a2>MW</iso_a2><postal>MW</postal><type>District</type><id>MW.6971</id></desc></path></svg>