<?xml version='1.0' encoding='utf-8'?>
<svg height="700" width="700" xmlns="http://www.w3.org/2000/svg"><path d="M248.302129222,556.864904552 L250.679148311,470.970998532 L256.589574156,399.403450808 L307.856093979,401.266519824 L309.076725404,410.389133627 L306.635462555,414.757709251 L310.875550661,419.383259912 L312.545888399,418.162628488 L311.646475771,426.514317181 L312.802863436,418.548091043 L320.383627019,418.805066079 L326.872246696,438.27092511 L323.595814978,444.695301028 L337.665198238,438.849118943 L354.304331865,443.217694567 L336.894273128,466.795154185 L334.581497797,469.878854626 L332.268722467,473.026798825 L327.578928047,479.322687225 L319.484214391,490.179882526 L314.601688693,495.447870778 L309.333700441,500.908590308 L306.956681351,503.414096916 L306.635462555,503.735315712 L307.213656388,558.856461087 L248.302129222,556.864904552 Z" fill="#cee3f5" id="CA.MB" stroke="#6e6e6e" stroke-width="0.4"><desc><labelrank>2</labelrank><code_hasc>CA.MB</code_hasc><name>Manitoba</name><admin>Canada</admin><type_en>Province</type_en><region>Western Canada</region><woe_id>2344917</woe_id><longitude>-97</longitude><woe_name>Manitoba</woe_name><fips>CA03</fips><woe_label>Manitoba, CA, Canada</woe_label><latitude>54</latitude><iso_a2>CA</iso_a2><postal>MB</postal><type>Province</type><id>CA.MB</id></desc></path><path d="M248.302129222,556.864904552 L166.969530103,544.787077827 L183.672907489,467.437591777 L200.247797357,390.794787078 L256.589574156,399.403450808 L250.679148311,470.970998532 L248.302129222,556.864904552 Z" fill="#cee3f5" id="CA.SK" stroke="#6e6e6e" stroke-width="0.4"><desc><labelrank>2</labelrank><code_hasc>CA.SK</code_hasc><name>Saskatchewan</name><admin>Canada</admin><type_en>Province</type_en><region>Western Canada</region><woe_id>2344925</woe_id><longitude>-105</longitude><woe_name>Saskatchewan</woe_name><fips>CA11</fips><woe_label>Saskatchewan, CA, Canada</woe_label><latitude>54</latitude><iso_a2>CA</iso_a2><postal>SK</postal><type>Province</type><id>CA.SK</id></desc></path><path d="M166.969530103,544.787077827 L129.451174743,535.471732746 L129.836637298,534.957782673 L129.194199706,533.030469897 L128.744493392,532.323788546 L128.551762115,532.259544787 L128.423274596,532.259544787 L128.230543319,532.195301028 L127.395374449,531.681350954 L126.367474302,528.533406755 L125.596549192,525.385462555 L125.660792952,525.321218796 L125.853524229,525.0 L126.367474302,524.935756241 L126.752936858,524.100587372 L126.817180617,524.036343612 L126.881424376,523.972099853 L127.009911894,523.907856094 L127.202643172,523.715124816 L127.459618209,523.072687225 L127.523861968,522.944199706 L127.523861968,522.751468429 L127.523861968,522.366005874 L127.459618209,521.145374449 L127.652349486,520.438693098 L127.973568282,520.438693098 L128.1020558,520.31020558 L128.1020558,520.181718062 L128.1020558,520.053230543 L128.1020558,519.732011747 L128.1020558,519.603524229 L128.166299559,519.475036711 L128.230543319,519.346549192 L128.230543319,519.218061674 L128.230543319,519.153817915 L128.294787078,519.089574156 L128.294787078,519.025330396 L128.294787078,518.961086637 L128.294787078,518.896842878 L128.166299559,518.832599119 L128.1020558,518.318649046 L127.973568282,518.125917768 L127.973568282,517.99743025 L127.973568282,517.804698972 L128.037812041,517.483480176 L128.230543319,516.905286344 L128.230543319,515.042217327 L128.230543319,514.913729809 L128.423274596,514.84948605 L128.487518355,514.720998532 L128.359030837,514.464023495 L128.230543319,514.207048458 L128.1020558,514.014317181 L127.973568282,513.821585903 L127.973568282,513.757342144 L127.909324523,513.628854626 L127.909324523,513.500367107 L127.909324523,513.371879589 L127.909324523,513.24339207 L127.33113069,511.251835536 L125.339574156,510.866372981 L125.082599119,508.103891336 L124.504405286,508.103891336 L124.440161527,507.525697504 L122.898311307,505.534140969 L123.155286344,505.148678414 L123.604992658,505.148678414 L123.733480176,505.084434655 L123.733480176,504.955947137 L123.669236417,504.827459618 L123.604992658,504.763215859 L123.604992658,504.570484581 L123.604992658,503.992290749 L119.55763583,497.567914831 L118.208516887,489.665932452 L115.574522761,490.115638767 L115.510279001,487.160425844 L115.189060206,486.261013216 L114.675110132,485.747063142 L114.418135095,485.040381791 L114.353891336,484.847650514 L114.289647577,484.783406755 L114.225403818,484.783406755 L114.225403818,484.783406755 L114.418135095,482.727606461 L111.912628488,482.663362702 L111.527165932,481.763950073 L111.398678414,481.571218796 L111.141703377,481.442731278 L110.884728341,481.25 L110.242290749,476.752936858 L107.736784141,477.588105727 L107.8010279,477.523861968 L107.8010279,477.395374449 L107.865271659,477.266886931 L107.865271659,477.202643172 L107.865271659,477.009911894 L107.8010279,476.881424376 L107.8010279,476.688693098 L107.865271659,476.495961821 L107.993759178,476.367474302 L108.379221733,476.303230543 L108.443465492,476.174743025 L108.379221733,476.046255507 L108.250734214,475.917767988 L108.186490455,475.917767988 L108.058002937,475.468061674 L107.929515419,473.926211454 L107.929515419,473.733480176 L108.122246696,473.604992658 L108.250734214,473.540748899 L108.379221733,473.47650514 L108.507709251,473.348017621 L108.507709251,472.127386197 L108.122246696,471.484948605 L108.058002937,471.292217327 L108.122246696,471.227973568 L108.314977974,471.035242291 L108.379221733,470.906754772 L108.443465492,470.649779736 L108.379221733,470.521292217 L108.122246696,470.264317181 L108.122246696,470.071585903 L108.186490455,469.943098385 L108.122246696,469.814610866 L108.058002937,469.621879589 L107.929515419,469.621879589 L107.094346549,469.621879589 L106.965859031,469.429148311 L107.287077827,467.309104258 L107.03010279,465.895741557 L106.580396476,464.803597651 L106.451908957,464.546622614 L106.130690162,464.225403818 L105.937958884,463.775697504 L105.809471366,463.711453744 L105.552496329,463.711453744 L105.295521292,464.225403818 L105.167033774,464.289647577 L105.102790015,464.418135095 L105.102790015,464.482378855 L105.102790015,464.739353891 L105.038546256,464.86784141 L104.910058737,464.932085169 L103.303964758,463.390234949 L100.605726872,459.471365639 L100.348751836,457.544052863 L99.8990455213,457.351321586 L99.8348017621,457.287077827 L99.7705580029,457.094346549 L99.8348017621,456.965859031 L100.156020558,456.580396476 L100.02753304,455.937958884 L100.541483113,452.790014684 L131.956681351,370.493759178 L200.247797357,390.794787078 L183.672907489,467.437591777 L166.969530103,544.787077827 Z" fill="#cee3f5" id="CA.AB" stroke="#6e6e6e" stroke-width="0.4"><desc><labelrank>2</labelrank><code_hasc>CA.AB</code_hasc><name>Alberta</name><admin>Canada</admin><type_en>Province</type_en><region>Western Canada</region><woe_id>2344915</woe_id><longitude>-115</longitude><woe_name>Alberta</woe_name><fips>CA01</fips><woe_label>Alberta, CA, Canada</woe_label><latitude>55</latitude><iso_a2>CA</iso_a2><postal>AB</postal><type>Province</type><id>CA.AB</id></desc></path><path d="M41.951174743,492.685389134 L42.3366372981,495.961820852 L39.8953744493,489.85866373 L41.951174743,492.685389134 M22.6780469897,480.607562408 L21.8428781204,484.462187959 L19.9798091043,481.185756241 L22.6780469897,480.607562408 M38.9317180617,479.965124816 L37.7753303965,483.691262849 L36.875917768,479.965124816 L38.9317180617,479.965124816 M20.0440528634,462.876284875 L26.0829662261,471.420704846 L36.4262114537,479.772393539 L36.6831864905,493.584801762 L42.4008810573,500.073421439 L43.4930249633,513.371879589 L39.6383994126,513.371879589 L29.5521292217,502.129221733 L29.2309104258,500.78010279 L33.4709985316,499.302496329 L35.2055800294,496.475770925 L33.0855359765,499.23825257 L29.3593979442,496.989720999 L27.3035976505,498.017621145 L25.1193098385,494.162995595 L28.0745227606,493.77753304 L27.6890602056,490.950807636 L24.9265785609,491.143538913 L26.9823788546,489.473201175 L21.328928047,487.545888399 L22.4853157122,484.847650514 L26.9181350954,485.618575624 L23.127753304,483.241556535 L22.6138032305,478.680249633 L19.4658590308,478.808737151 L21.6501468429,475.339574156 L14.84030837,472.384361233 L16.9603524229,467.823054332 L20.3010279001,470.970998532 L22.0356093979,468.208516887 L18.5022026432,465.895741557 L20.236784141,468.208516887 L15.8039647577,467.373348018 L15.0972834068,461.784140969 L20.0440528634,462.876284875 M24.1556534508,455.167033774 L22.8065345081,452.533039648 L24.7338472834,451.440895742 L24.1556534508,455.167033774 M27.3678414097,447.265051395 L23.8986784141,450.605726872 L24.7338472834,447.522026432 L27.3678414097,447.265051395 M26.0829662261,443.795888399 L24.5411160059,445.530469897 L23.7059471366,443.795888399 L26.0829662261,443.795888399 M28.9739353891,444.374082232 L28.3957415565,445.980176211 L27.0466226138,443.988619677 L28.9739353891,444.374082232 M33.3425110132,447.265051395 L27.2393538913,448.999632893 L29.7448604993,446.044419971 L35.3983113069,445.401982379 L33.3425110132,447.265051395 M26.6611600587,438.206681351 L25.7617474302,440.390969163 L23.8986784141,437.949706314 L26.6611600587,438.206681351 M23.3204845815,434.609030837 L22.1640969163,438.142437592 L22.4853157122,432.232011747 L23.3204845815,434.609030837 M6.74559471366,416.042584435 L6.6171071953,419.51174743 L3.79038179148,417.391703377 L5.65345080764,420.796622614 L2.56975036711,419.768722467 L5.07525697504,432.167767988 L3.01945668135,432.681718062 L0.321218795888,419.383259912 L2.50550660793,417.648678414 L0.0,414.500734214 L0.449706314244,413.858296623 L1.60609397944,414.886196769 L4.04735682819,415.914096916 L6.74559471366,416.042584435 M29.7448604993,430.754405286 L28.2672540382,435.058737151 L24.9265785609,437.307268722 L28.203010279,433.131424376 L24.2841409692,435.893906021 L23.8986784141,432.296255507 L24.6696035242,432.874449339 L24.4768722467,432.232011747 L25.4405286344,432.03928047 L26.1472099853,431.396842878 L27.2393538913,431.396842878 L27.2393538913,431.139867841 L26.6611600587,429.276798825 L26.5326725404,429.983480176 L26.7896475771,429.983480176 L27.0466226138,431.26835536 L26.404185022,431.139867841 L24.3483847283,431.975036711 L24.3483847283,430.304698972 L27.4320851689,427.028267254 L29.7448604993,430.754405286 M28.7812041116,427.092511013 L27.1751101322,426.000367107 L29.5521292217,424.330029369 L28.7812041116,427.092511013 M20.4937591777,418.869309838 L21.0719530103,425.936123348 L18.8876651982,416.941997063 L20.4937591777,418.869309838 M30.7727606461,424.20154185 L29.9375917768,423.880323054 L28.5884728341,424.394273128 L27.1751101322,425.614904552 L29.2309104258,422.466960352 L31.8649045521,422.852422907 L30.7727606461,424.20154185 M21.7143906021,418.997797357 L20.1082966226,416.685022026 L21.7143906021,415.721365639 L21.7143906021,418.997797357 M24.7338472834,419.640234949 L24.7338472834,426.57856094 L22.9350220264,425.936123348 L22.5495594714,414.82195301 L24.7338472834,419.640234949 M23.4489720999,413.215859031 L21.5859030837,415.078928047 L22.7422907489,413.023127753 L19.0803964758,413.28010279 L22.0356093979,411.481277533 L23.4489720999,413.215859031 M4.8825256975,399.531938326 L7.51651982379,401.973201175 L5.58920704846,403.772026432 L8.60866372981,402.936857562 L9.70080763583,405.121145374 L7.38803230543,407.626651982 L3.72613803231,406.791483113 L5.78193832599,408.397577093 L4.11160058737,408.975770925 L7.38803230543,408.911527166 L9.37958883994,406.919970631 L9.76505139501,404.607195301 L14.454845815,405.378120411 L6.68135095448,414.243759178 L2.890969163,414.308002937 L3.91886930984,415.143171806 L3.08370044053,415.335903084 L2.50550660793,414.372246696 L2.18428781204,414.693465492 L1.09214390602,414.308002937 L1.34911894273,413.858296623 L0.642437591777,413.023127753 L1.02790014684,412.830396476 L0.0642437591777,411.802496329 L2.890969163,412.380690162 L0.385462555066,406.984214391 L4.8825256975,399.531938326 M13.748164464,304.451174743 L58.7187958884,334.966960352 L106.837371512,360.086270191 L131.956681351,370.493759178 L100.541483113,452.790014684 L101.697870778,456.25917768 L100.091776799,455.809471366 L100.156020558,456.580396476 L100.091776799,456.708883994 L99.8348017621,456.965859031 L99.7705580029,457.094346549 L99.8348017621,457.287077827 L99.8990455213,457.351321586 L100.348751836,457.544052863 L101.055433186,460.17804699 L103.303964758,463.390234949 L104.910058737,464.932085169 L105.038546256,464.86784141 L105.102790015,464.739353891 L105.102790015,464.482378855 L105.102790015,464.418135095 L105.167033774,464.289647577 L105.295521292,464.225403818 L105.552496329,463.711453744 L105.680983847,463.647209985 L105.809471366,463.711453744 L105.937958884,463.775697504 L106.130690162,464.225403818 L106.580396476,464.803597651 L107.03010279,466.024229075 L106.516152717,466.795154185 L106.965859031,469.429148311 L107.094346549,469.621879589 L107.736784141,469.55763583 L107.929515419,469.621879589 L108.058002937,469.621879589 L108.122246696,469.814610866 L108.186490455,469.943098385 L108.122246696,470.071585903 L108.122246696,470.264317181 L108.379221733,470.521292217 L108.443465492,470.649779736 L108.379221733,470.906754772 L108.314977974,471.035242291 L108.122246696,471.227973568 L108.058002937,471.292217327 L108.122246696,471.484948605 L108.507709251,472.127386197 L108.57195301,473.219530103 L108.507709251,473.348017621 L108.379221733,473.47650514 L108.250734214,473.540748899 L108.122246696,473.604992658 L107.929515419,473.733480176 L107.929515419,473.926211454 L108.250734214,474.889867841 L108.058002937,475.468061674 L108.186490455,475.917767988 L108.250734214,475.917767988 L108.379221733,476.046255507 L108.443465492,476.174743025 L108.379221733,476.303230543 L107.993759178,476.367474302 L107.865271659,476.495961821 L107.8010279,476.688693098 L107.8010279,476.881424376 L107.865271659,477.009911894 L107.865271659,477.202643172 L107.865271659,477.266886931 L107.8010279,477.395374449 L107.8010279,477.523861968 L107.736784141,477.588105727 L110.242290749,476.752936858 L110.884728341,481.25 L111.141703377,481.442731278 L111.398678414,481.571218796 L111.527165932,481.763950073 L111.912628488,482.663362702 L114.418135095,482.727606461 L114.225403818,484.783406755 L114.225403818,484.783406755 L114.289647577,484.783406755 L114.353891336,484.847650514 L114.418135095,485.040381791 L114.675110132,485.747063142 L115.189060206,486.261013216 L115.510279001,487.160425844 L115.574522761,490.115638767 L118.208516887,489.665932452 L119.55763583,497.567914831 L123.604992658,503.992290749 L123.604992658,504.570484581 L123.604992658,504.763215859 L123.669236417,504.827459618 L123.733480176,504.955947137 L123.733480176,505.084434655 L123.604992658,505.148678414 L123.155286344,505.148678414 L122.962555066,505.212922173 L122.898311307,505.534140969 L125.339574156,510.866372981 L127.33113069,511.251835536 L127.909324523,513.24339207 L127.909324523,513.371879589 L127.909324523,513.628854626 L127.973568282,513.757342144 L127.973568282,513.821585903 L128.1020558,514.014317181 L128.230543319,514.207048458 L128.359030837,514.464023495 L128.487518355,514.720998532 L128.423274596,514.84948605 L128.230543319,514.913729809 L128.230543319,515.042217327 L128.294787078,515.684654919 L128.230543319,516.905286344 L128.037812041,517.483480176 L127.973568282,517.804698972 L127.973568282,517.99743025 L127.973568282,518.125917768 L128.1020558,518.318649046 L128.166299559,518.832599119 L128.294787078,518.896842878 L128.294787078,518.961086637 L128.294787078,519.025330396 L128.294787078,519.089574156 L128.230543319,519.153817915 L128.230543319,519.218061674 L128.230543319,519.346549192 L128.166299559,519.475036711 L128.1020558,519.603524229 L128.1020558,519.732011747 L128.1020558,519.860499266 L128.1020558,520.053230543 L128.1020558,520.181718062 L128.1020558,520.31020558 L127.973568282,520.438693098 L127.652349486,520.438693098 L127.459618209,521.145374449 L127.459618209,523.072687225 L127.395374449,523.136930984 L127.138399413,523.265418502 L127.202643172,523.715124816 L127.009911894,523.907856094 L126.881424376,523.972099853 L126.817180617,524.036343612 L126.752936858,524.100587372 L126.752936858,524.164831131 L126.752936858,524.293318649 L126.367474302,524.935756241 L125.596549192,525.385462555 L125.725036711,525.642437592 L125.917767988,525.835168869 L125.982011747,526.092143906 L127.009911894,526.284875184 L126.367474302,528.533406755 L127.395374449,531.681350954 L127.973568282,531.938325991 L128.230543319,532.195301028 L128.423274596,532.259544787 L128.744493392,532.323788546 L129.194199706,533.030469897 L129.451174743,535.471732746 L89.3630690162,522.751468429 L48.5682819383,506.562041116 L48.825256975,502.257709251 L53.1938325991,501.486784141 L48.9537444934,501.358296623 L51.9732011747,496.796989721 L47.0264317181,499.623715125 L43.9427312775,494.419970631 L45.6130690162,493.392070485 L45.6130690162,497.182452276 L48.8895007342,495.447870778 L45.8700440529,493.199339207 L49.0179882526,488.381057269 L47.9900881057,486.903450808 L46.1270190896,492.299926579 L45.8700440529,490.62958884 L42.7220998532,492.042951542 L39.9596182085,486.068281938 L46.7052129222,481.892437592 L39.5099118943,481.314243759 L45.4203377386,474.504405286 L39.3171806167,479.70814978 L36.2977239354,477.459618209 L38.8674743025,474.697136564 L35.3340675477,477.459618209 L30.7727606461,473.990455213 L37.7110866373,473.540748899 L39.766886931,468.979441997 L37.6468428781,473.155286344 L34.8201174743,473.283773862 L30.6442731278,468.78671072 L34.3704111601,468.979441997 L32.4430983847,465.831497797 L29.8733480176,467.758810573 L26.2756975037,464.932085169 L26.6611600587,467.052129222 L24.21989721,463.775697504 L23.1919970631,458.57195301 L29.6806167401,459.278634361 L24.21989721,456.965859031 L28.3957415565,454.910058737 L35.8480176211,457.287077827 L29.0381791483,454.524596182 L30.9654919236,452.276064611 L25.312041116,456.066446402 L26.7254038179,450.156020558 L35.4625550661,447.393538913 L37.0686490455,453.496696035 L37.0044052863,448.357195301 L39.06020558,448.357195301 L35.5910425844,446.301395007 L39.8953744493,442.96071953 L39.7026431718,440.390969163 L39.3171806167,443.024963289 L31.6721732746,445.723201175 L29.1666666667,445.723201175 L31.0297356828,441.868575624 L28.90969163,443.474669604 L31.5436857562,441.033406755 L25.6332599119,442.575256975 L32.6358296623,436.215124816 L28.8454478708,435.636930984 L30.7085168869,431.461086637 L28.8454478708,428.313142438 L30.387298091,425.74339207 L29.5521292217,425.74339207 L29.8091042584,424.265785609 L30.5157856094,424.97246696 L31.2867107195,424.843979442 L31.9933920705,428.89133627 L35.4625550661,429.019823789 L35.9122613803,432.874449339 L35.8480176211,428.634361233 L32.3146108664,427.670704846 L31.4794419971,424.20154185 L35.4625550661,422.723935389 L35.8480176211,419.832966226 L31.6079295154,421.696035242 L31.9291483113,419.832966226 L26.2756975037,425.100954479 L24.1556534508,414.757709251 L26.018722467,412.380690162 L27.0466226138,416.235315712 L27.1751101322,412.50917768 L30.7727606461,413.729809104 L28.2672540382,412.187958884 L25.5047723935,411.995227606 L26.3399412628,408.397577093 L24.4768722467,407.883627019 L26.6611600587,404.864170338 L27.8817914831,410.646108664 L27.3035976505,404.735682819 L30.5800293686,407.305433186 L30.001835536,403.322320117 L34.8843612335,403.643538913 L32.5073421439,401.780469897 L39.3171806167,398.375550661 L37.3898678414,397.990088106 L37.968061674,395.099118943 L31.5436857562,401.52349486 L39.5099118943,388.353524229 L31.2224669604,375.055066079 L34.6273861968,346.787812041 L31.800660793,330.020190896 L32.8285609398,321.989720999 L26.018722467,320.640602056 L21.2646842878,324.623715125 L13.5554331865,323.852790015 L15.6112334802,319.355726872 L13.748164464,304.451174743 Z" fill="#cee3f5" id="CA.BC" stroke="#6e6e6e" stroke-width="0.4"><desc><labelrank>2</labelrank><code_hasc>CA.BC</code_hasc><name>British Columbia</name><admin>Canada</admin><type_en>Province</type_en><region>Western Canada</region><woe_id>2344916</woe_id><longitude>-124</longitude><woe_name>British Columbia</woe_name><fips>CA02</fips><woe_label>British Columbia, CA, Canada</woe_label><latitude>54</latitude><iso_a2>CA</iso_a2><postal>BC</postal><type>Province</type><id>CA.BC</id></desc></path><path d="M423.623348018,484.140969163 L427.734948605,484.911894273 L431.396842878,490.115638767 L418.869309838,488.188325991 L423.623348018,484.140969163 M427.477973568,437.114537445 L424.522760646,440.326725404 L427.606461087,434.673274596 L427.477973568,437.114537445 M430.047723935,432.103524229 L433.452643172,436.150881057 L432.681718062,443.217694567 L432.424743025,435.444199706 L431.975036711,443.281938326 L431.653817915,437.949706314 L428.377386197,445.33773862 L429.66226138,440.133994126 L427.285242291,445.080763583 L426.193098385,443.73164464 L428.248898678,434.095080764 L428.570117474,440.326725404 L429.790748899,438.656387665 L430.047723935,432.103524229 M513.371879589,343.704111601 L513.179148311,344.667767988 L510.095447871,343.896842878 L513.371879589,343.704111601 M488.959251101,352.120044053 L491.464757709,353.661894273 L489.408957416,358.094713656 L488.959251101,352.120044053 M503.028634361,329.056534508 L504.377753304,332.975403818 L498.981277533,331.433553598 L503.028634361,329.056534508 M407.690895742,353.790381791 L409.810939794,358.994126285 L407.947870778,365.546989721 L403.515051395,358.351688693 L404.607195301,354.432819383 L407.690895742,353.790381791 M497.63215859,317.17143906 L499.816446402,316.529001468 L499.302496329,318.970264317 L496.796989721,319.227239354 L497.63215859,317.17143906 M459.535609398,329.827459618 L464.482378855,332.268722467 L461.334434655,333.425110132 L456.644640235,330.277165932 L459.535609398,329.827459618 M388.738986784,349.614537445 L390.537812041,353.1479442 L384.820117474,361.75660793 L380.772760646,363.234214391 L378.459985316,359.058370044 L380.644273128,352.37701909 L388.738986784,349.614537445 M410.067914831,336.70154185 L414.757709251,336.187591777 L416.492290749,339.464023495 L414.564977974,341.455580029 L410.067914831,336.70154185 M417.070484581,332.140234949 L420.860866373,333.103891336 L421.053597651,335.352422907 L415.65712188,333.61784141 L417.070484581,332.140234949 M489.08773862,299.761380323 L491.657488987,301.945668135 L487.995594714,301.495961821 L489.08773862,299.761380323 M360.792951542,313.766519824 L362.656020558,313.573788546 L365.418502203,321.411527166 L366.960352423,317.235682819 L386.169236417,327.643171806 L388.353524229,332.654185022 L386.361967695,335.095447871 L392.914831131,333.682085169 L392.722099853,331.819016153 L398.247063142,335.93061674 L393.428781204,341.327092511 L384.306167401,340.106461087 L384.306167401,336.765785609 L379.809104258,337.022760646 L379.166666667,333.810572687 L368.245227606,351.220631424 L365.675477239,349.935756241 L364.005139501,342.547723935 L355.589207048,346.787812041 L355.974669604,341.905286344 L360.279001468,338.371879589 L357.83773862,318.327826725 L360.535976505,311.967694567 L360.792951542,313.766519824 M366.574889868,308.113069016 L373.898678414,313.830763583 L368.630690162,312.867107195 L366.574889868,308.113069016 M234.232745962,287.555066079 L233.012114537,288.647209985 L233.526064611,285.691997063 L234.232745962,287.555066079 M413.986784141,266.868575624 L418.612334802,266.547356828 L419.897209985,269.245594714 L413.794052863,270.980176211 L411.609765051,267.896475771 L413.986784141,266.868575624 M351.156387665,284.214390602 L349.935756241,287.298091043 L347.62298091,282.544052863 L348.715124816,279.139133627 L351.156387665,284.214390602 M406.21328928,265.904919236 L409.939427313,267.18979442 L412.252202643,276.440895742 L409.296989721,280.809471366 L403.579295154,282.8010279 L399.853157122,276.954845815 L400.367107195,270.145007342 L406.21328928,265.904919236 M254.212555066,278.368208517 L251.57856094,275.862701909 L254.212555066,276.183920705 L254.212555066,278.368208517 M408.654552129,261.472099853 L410.13215859,264.427312775 L406.21328928,262.692731278 L406.084801762,259.737518355 L408.654552129,261.472099853 M269.181350954,274.449339207 L268.538913363,277.533039648 L266.033406755,275.605726872 L269.181350954,274.449339207 M277.790014684,273.100220264 L275.284508076,275.348751836 L275.79845815,271.301395007 L277.790014684,273.100220264 M387.51835536,255.176211454 L388.803230543,257.617474302 L385.462555066,264.04185022 L387.51835536,255.176211454 M394.328193833,252.863436123 L396.383994126,252.799192364 L396.319750367,256.975036711 L393.557268722,256.011380323 L394.328193833,252.863436123 M296.035242291,264.620044053 L298.540748899,264.555800294 L298.604992658,267.575256975 L296.035242291,264.620044053 M300.917767988,263.913362702 L302.523861968,265.519456681 L300.78928047,268.024963289 L300.917767988,263.913362702 M436.150881057,232.755139501 L437.114537445,235.13215859 L434.930249633,235.196402349 L436.150881057,232.755139501 M380.001835536,250.80763583 L382.121879589,251.899779736 L378.781204112,253.634361233 L379.552129222,255.690161527 L375.055066079,254.148311307 L380.001835536,250.80763583 M292.309104258,263.977606461 L298.219530103,268.153450808 L300.211086637,274.513582966 L303.423274596,274.642070485 L296.549192364,280.616740088 L280.745227606,271.943832599 L287.041116006,268.024963289 L286.462922173,263.977606461 L289.03267254,266.290381791 L287.362334802,263.720631424 L289.225403818,259.737518355 L292.309104258,263.977606461 M343.511380323,253.505873715 L346.338105727,254.919236417 L341.712555066,253.955580029 L343.511380323,253.505873715 M410.9030837,222.154919236 L413.537077827,223.182819383 L410.96732746,225.945301028 L410.9030837,222.154919236 M403.193832599,219.392437592 L403.643538913,217.786343612 L404.350220264,220.870044053 L401.908957416,218.814243759 L402.422907489,217.336637298 L403.193832599,219.392437592 M256.589574156,399.403450808 L262.114537445,339.399779736 L220.741556535,325.523127753 L212.903817915,313.31681351 L202.36784141,310.682819383 L169.346549192,262.5 L177.505506608,241.556534508 L191.189427313,256.718061674 L196.714390602,259.737518355 L195.622246696,257.232011747 L197.870778267,257.103524229 L203.588472834,263.206681351 L205.45154185,268.474669604 L204.230910426,270.530469897 L197.806534508,269.438325991 L197.742290749,272.008076358 L195.108296623,272.586270191 L196.84287812,274.899045521 L213.417767988,281.194933921 L223.953744493,278.88215859 L225.045888399,283.379221733 L228.515051395,284.085903084 L228.772026432,289.418135095 L230.763582966,285.884728341 L233.397577093,293.529735683 L231.21328928,294.750367107 L229.350220264,292.437591777 L229.542951542,294.236417034 L234.939427313,305.286343612 L232.883627019,298.797723935 L234.489720999,294.621879589 L234.36123348,298.026798825 L235.581864905,296.292217327 L236.995227606,298.604992658 L234.168502203,285.306534508 L235.838839941,280.038546256 L243.548091043,280.48825257 L248.816079295,274.19236417 L243.805066079,275.220264317 L243.355359765,278.303964758 L236.73825257,276.505139501 L237.444933921,279.203377386 L233.204845815,279.267621145 L233.59030837,276.505139501 L231.406020558,276.505139501 L235.13215859,272.136563877 L246.503303965,269.374082232 L253.762848752,283.636196769 L259.673274596,282.415565345 L265.390969163,289.932085169 L273.806901615,288.325991189 L283.314977974,291.088472834 L286.462922173,289.803597651 L285.435022026,285.435022026 L288.775697504,291.281204112 L292.694566814,292.437591777 L292.566079295,288.133259912 L290.189060206,286.655653451 L287.940528634,289.289647577 L284.921071953,281.323421439 L290.060572687,281.644640235 L288.904185022,279.074889868 L295.970998532,284.40712188 L297.191629956,282.544052863 L295.200073421,286.848384728 L299.889867841,282.8010279 L296.741923642,294.621879589 L298.797723935,294.750367107 L298.669236417,298.283773862 L301.752936858,296.035242291 L300.211086637,299.054698972 L302.459618209,298.540748899 L302.973568282,301.817180617 L296.741923642,300.596549192 L300.468061674,307.149412628 L298.797723935,302.523861968 L303.680249633,301.817180617 L300.917767988,291.088472834 L302.138399413,286.141703377 L305.800293686,286.462922173 L313.124082232,277.597283407 L311.132525698,278.11123348 L310.490088106,271.494126285 L309.269456681,275.991189427 L306.442731278,276.119676946 L309.590675477,270.209251101 L308.048825257,267.96071953 L311.839207048,266.097650514 L310.425844347,270.080763583 L312.224669604,265.390969163 L307.856093979,266.033406755 L306.185756241,262.692731278 L304.965124816,264.363069016 L300.403817915,261.986049927 L296.741923642,256.396842878 L298.155286344,249.97246696 L300.339574156,250.422173275 L300.211086637,247.852422907 L298.41226138,249.20154185 L296.420704846,246.760279001 L296.934654919,239.693465492 L298.669236417,237.701908957 L301.495961821,239.436490455 L302.202643172,236.288546256 L299.697136564,234.939427313 L305.607562408,231.020558003 L302.845080764,229.864170338 L306.121512482,229.221732746 L306.314243759,231.149045521 L305.47907489,231.727239354 L306.571218796,233.975770925 L309.719162996,232.433920705 L313.381057269,238.344346549 L313.381057269,245.411160059 L321.347283407,255.176211454 L317.107195301,254.341042584 L316.143538913,256.653817915 L319.355726872,257.296255507 L314.794419971,262.628487518 L317.556901615,261.986049927 L320.576358297,264.941262849 L323.595814978,262.307268722 L321.796989721,264.555800294 L328.15712188,264.87701909 L325.844346549,267.96071953 L322.503671072,266.675844347 L328.221365639,273.228707783 L328.671071953,281.002202643 L330.662628488,281.901615272 L334.003303965,266.868575624 L340.813142438,272.907488987 L342.868942731,279.588839941 L342.290748899,281.580396476 L340.62041116,279.139133627 L339.720998532,280.552496329 L340.363436123,285.049559471 L346.595080764,296.677679883 L351.54185022,292.437591777 L353.1479442,272.393538913 L357.709251101,271.494126285 L355.332232012,268.795888399 L358.287444934,267.18979442 L352.890969163,264.427312775 L351.156387665,256.204111601 L367.98825257,256.26835536 L365.739720999,257.617474302 L367.1530837,258.58113069 L363.169970631,258.709618209 L374.541116006,262.821218796 L371.264684288,266.804331865 L374.733847283,266.161894273 L376.082966226,269.245594714 L369.53010279,273.678414097 L380.001835536,285.756240822 L380.001835536,292.501835536 L371.521659325,303.808737151 L367.410058737,301.046255507 L367.024596182,296.87041116 L366.253671072,299.568649046 L364.262114537,296.09948605 L361.114170338,295.32856094 L362.784508076,296.227973568 L359.765051395,297.64133627 L363.105726872,296.806167401 L370.044052863,306.442731278 L364.776064611,304.258443465 L366.125183554,307.534875184 L361.114170338,306.892437592 L359.122613803,302.780837004 L351.798825257,304.643906021 L357.83773862,308.948237885 L350.642437592,321.989720999 L346.530837004,322.118208517 L336.123348018,314.794419971 L334.260279001,314.987151248 L335.802129222,316.593245228 L325.587371512,315.62958884 L334.774229075,317.107195301 L340.813142438,323.210352423 L352.826725404,323.017621145 L349.100587372,338.628854626 L344.924743025,342.22650514 L341.262848752,339.913729809 L342.99743025,342.740455213 L339.592511013,341.262848752 L339.977973568,343.061674009 L337.857929515,338.950073421 L335.866372981,340.877386197 L337.986417034,343.639867841 L335.095447871,342.740455213 L336.380323054,348.008443465 L333.103891336,347.173274596 L331.626284875,349.293318649 L313.124082232,341.39133627 L314.08773862,345.824155653 L316.850220264,346.273861968 L315.62958884,344.346549192 L323.981277533,347.944199706 L321.796989721,350.513950073 L325.972834068,347.558737151 L332.589941263,351.670337739 L334.003303965,356.360132159 L329.313509545,360.600220264 L322.439427313,360.535976505 L326.294052863,363.169970631 L321.475770925,363.426945668 L320.31938326,367.281571219 L322.824889868,370.108296623 L317.492657856,367.21732746 L320.833333333,369.208883994 L316.593245228,372.035609398 L317.556901615,373.962922173 L315.308370044,373.256240822 L317.749632893,376.147209985 L312.224669604,382.250367107 L313.188325991,385.462555066 L307.727606461,394.199706314 L308.177312775,401.009544787 L256.589574156,399.403450808 M196.136196769,246.824522761 L196.457415565,241.556534508 L216.501468429,247.531204112 L215.987518355,249.908223201 L218.428781204,248.045154185 L230.44236417,250.871879589 L238.023127753,215.923274596 L238.151615272,215.409324523 L238.215859031,215.023861968 L238.537077827,213.546255507 L238.794052863,212.325624082 L238.922540382,211.68318649 L239.629221733,208.406754772 L244.254772394,215.6020558 L245.154185022,229.992657856 L248.559104258,226.266519824 L246.824522761,222.411894273 L248.302129222,205.323054332 L252.477973568,207.957048458 L253.634361233,206.158223201 L257.424743025,210.655286344 L260.893906021,232.883627019 L258.902349486,240.014684288 L262.885462555,247.402716593 L265.840675477,249.265785609 L265.326725404,246.567547724 L271.943832599,255.368942731 L274.834801762,254.983480176 L274.385095448,262.178781204 L272.265051395,258.452643172 L270.787444934,262.114537445 L268.410425844,257.938693098 L266.161894273,263.142437592 L261.793318649,260.508443465 L263.784875184,263.849118943 L262.307268722,268.924375918 L268.538913363,264.170337739 L269.245594714,271.429882526 L260.829662261,273.678414097 L252.028267254,270.915932452 L253.377386197,268.346182085 L246.11784141,265.776431718 L245.925110132,261.150881057 L241.042584435,267.318281938 L234.682452276,267.254038179 L231.534508076,269.888032305 L209.049192364,268.667400881 L210.334067548,258.002936858 L198.834434655,252.991923642 L196.136196769,246.824522761 M263.142437592,207.571585903 L259.287812041,213.931718062 L253.505873715,203.267254038 L255.690161527,200.569016153 L261.664831131,200.825991189 L263.142437592,207.571585903 M363.234214391,195.750734214 L375.633259912,195.493759178 L383.984948605,203.90969163 L369.979809104,209.177679883 L365.803964758,203.074522761 L362.591776799,202.432085169 L361.178414097,196.393171806 L363.234214391,195.750734214 M337.857929515,199.21989721 L345.117474302,199.733847283 L339.464023495,215.666299559 L344.153817915,228.836270191 L351.220631424,235.196402349 L342.611967695,240.849853157 L350.77092511,236.545521292 L352.37701909,239.693465492 L351.220631424,229.542951542 L348.329662261,229.992657856 L344.025330396,225.559838473 L345.952643172,221.576725404 L352.37701909,224.017988253 L348.265418502,220.805800294 L350.256975037,219.135462555 L345.374449339,218.75 L343.639867841,212.646842878 L351.349118943,213.28928047 L344.218061674,208.856461087 L352.055800294,209.820117474 L345.053230543,206.029735683 L348.45814978,206.800660793 L346.723568282,204.68061674 L348.522393539,203.13876652 L351.349118943,205.194566814 L350.385462555,201.018722467 L358.60866373,197.485315712 L367.1530837,210.205580029 L363.940895742,218.428781204 L366.703377386,213.738986784 L366.831864905,223.054331865 L368.694933921,216.43722467 L371.778634361,218.300293686 L368.951908957,215.987518355 L369.787077827,213.096549192 L371.007709251,217.015418502 L372.228340675,213.995961821 L374.284140969,215.280837004 L374.284140969,219.906387665 L377.817547724,220.484581498 L375.247797357,216.694199706 L381.607929515,221.319750367 L374.733847283,214.317180617 L383.342511013,215.023861968 L375.569016153,212.775330396 L375.376284875,210.269823789 L381.22246696,206.350954479 L385.655286344,209.049192364 L389.381424376,207.571585903 L391.43722467,211.426211454 L387.004405286,218.043318649 L391.051762115,213.353524229 L390.023861968,219.456681351 L391.629955947,212.51835536 L395.356093979,212.004405286 L396.512481645,215.537812041 L392.272393539,219.263950073 L394.263950073,218.814243759 L392.97907489,221.383994126 L395.548825257,218.236049927 L395.870044053,225.559838473 L396.12701909,218.171806167 L397.540381791,216.501468429 L398.311306902,219.328193833 L399.017988253,215.345080764 L398.182819383,221.255506608 L399.467694567,224.082232012 L400.75256975,218.171806167 L401.780469897,225.559838473 L402.936857562,220.741556535 L404.414464023,225.75256975 L404.607195301,215.088105727 L412.894640235,218.107562408 L407.883627019,227.037444934 L410.517621145,225.688325991 L409.875183554,229.478707783 L416.106828194,219.906387665 L417.1989721,224.917400881 L416.106828194,227.551395007 L414.308002937,227.744126285 L413.601321586,231.020558003 L414.886196769,232.498164464 L414.82195301,228.12958884 L416.556534508,228.12958884 L417.584434655,235.646108664 L416.877753304,226.459251101 L420.411160059,221.06277533 L420.025697504,227.615638767 L422.723935389,221.576725404 L429.533773862,222.925844347 L423.816079295,232.81938326 L425.679148311,232.883627019 L423.494860499,236.095814978 L426.064610866,233.012114537 L425.486417034,230.635095448 L429.66226138,227.872613803 L426.835535977,238.151615272 L431.26835536,231.21328928 L431.589574156,225.045888399 L437.692731278,228.258076358 L439.555800294,230.892070485 L435.18722467,232.176945668 L427.285242291,239.372246696 L433.645374449,235.774596182 L444.438325991,235.96732746 L444.759544787,237.958883994 L432.424743025,240.849853157 L438.142437592,239.629221733 L434.030837004,241.42804699 L436.279368576,240.785609398 L435.251468429,244.897209985 L437.050293686,240.785609398 L441.097650514,241.363803231 L437.371512482,243.74082232 L442.061306902,244.961453744 L434.095080764,246.760279001 L441.483113069,246.567547724 L437.885462555,249.458516887 L442.767988253,247.980910426 L443.603157122,250.100954479 L444.052863436,247.338472834 L445.401982379,249.522760646 L449.577826725,246.696035242 L444.823788546,251.642804699 L448.549926579,249.008810573 L446.751101322,252.34948605 L450.156020558,249.458516887 L452.019089574,252.734948605 L453.239720999,249.908223201 L452.661527166,254.148311307 L455.038546256,254.598017621 L454.845814978,248.559104258 L457.8010279,255.561674009 L456.644640235,250.74339207 L458.186490455,249.587004405 L461.205947137,254.469530103 L458.893171806,250.550660793 L461.591409692,247.852422907 L461.71989721,253.505873715 L464.03267254,249.715491924 L464.289647577,251.835535977 L465.446035242,250.100954479 L468.080029369,251.964023495 L466.473935389,253.698604993 L470.264317181,254.533773862 L465.574522761,256.26835536 L468.78671072,255.49743025 L466.730910426,258.131424376 L470.200073421,255.047723935 L468.337004405,260.379955947 L472.705580029,254.341042584 L473.283773862,258.58113069 L473.669236417,252.156754772 L475.853524229,256.975036711 L473.990455213,260.508443465 L475.275330396,258.324155653 L476.688693098,260.829662261 L477.716593245,256.011380323 L479.772393539,260.251468429 L478.487518355,256.011380323 L482.085168869,257.553230543 L480.864537445,252.799192364 L487.738619677,255.49743025 L483.370044053,258.388399413 L488.509544787,260.18722467 L482.534875184,261.986049927 L485.040381791,262.885462555 L483.883994126,264.87701909 L481.892437592,264.04185022 L483.883994126,265.262481645 L488.895007342,265.326725404 L482.534875184,267.18979442 L488.573788546,268.795888399 L484.976138032,269.374082232 L488.31681351,272.714757709 L485.682819383,271.365638767 L485.233113069,273.742657856 L481.506975037,270.787444934 L488.445301028,283.957415565 L485.040381791,281.066446402 L483.048825257,283.443465492 L481.121512482,279.139133627 L480.286343612,284.021659325 L478.1020558,282.158590308 L479.900881057,279.010646109 L477.459618209,282.094346549 L477.138399413,277.597283407 L474.311674009,280.231277533 L476.238986784,276.954845815 L472.320117474,278.496696035 L474.954111601,273.614170338 L474.440161527,267.832232012 L468.979441997,276.954845815 L468.401248164,270.27349486 L467.373348018,275.156020558 L458.700440529,270.915932452 L459.278634361,273.164464023 L455.616740088,273.549926579 L460.306534508,275.605726872 L454.6530837,274.96328928 L462.426578561,280.680983847 L458.636196769,282.672540382 L457.287077827,280.424008811 L453.175477239,278.817914831 L452.019089574,281.066446402 L457.03010279,280.680983847 L457.222834068,282.287077827 L455.552496329,281.901615272 L457.736784141,284.728340675 L459.728340675,283.57195301 L460.499265786,288.325991189 L463.647209985,284.40712188 L463.518722467,286.784140969 L466.152716593,286.71989721 L464.610866373,288.582966226 L467.887298091,288.775697504 L468.080029369,291.538179148 L469.364904552,288.968428781 L472.063142438,294.300660793 L470.521292217,290.703010279 L475.211086637,293.979441997 L475.275330396,291.345447871 L477.845080764,293.593979442 L477.009911894,290.703010279 L479.322687225,295.200073421 L483.048825257,293.979441997 L480.800293686,297.448604993 L484.976138032,299.761380323 L488.445301028,298.540748899 L487.545888399,301.624449339 L491.207782673,302.33113069 L493.841776799,307.599118943 L485.875550661,302.716593245 L495.576358297,312.224669604 L491.207782673,312.931350954 L495.576358297,316.529001468 L494.612701909,318.199339207 L491.464757709,314.216226138 L490.436857562,316.207782673 L488.381057269,313.638032305 L489.08773862,316.079295154 L484.526431718,314.151982379 L486.774963289,316.015051395 L484.719162996,316.207782673 L480.928781204,312.096182085 L482.920337739,316.593245228 L471.227973568,310.425844347 L474.889867841,314.987151248 L469.55763583,312.288913363 L465.124816446,313.25256975 L474.954111601,319.612701909 L477.009911894,318.327826725 L476.881424376,320.512114537 L477.780837004,318.77753304 L477.845080764,320.769089574 L478.87298091,319.291483113 L492.428414097,325.073421439 L491.336270191,327.000734214 L494.227239354,329.249265786 L476.367474302,331.883259912 L469.236417034,330.212922173 L468.401248164,327.32195301 L459.021659325,329.185022026 L456.516152717,328.671071953 L456.965859031,325.78010279 L454.71732746,328.478340675 L448.292951542,324.944933921 L452.918502203,320.769089574 L447.714757709,319.484214391 L448.485682819,321.732745962 L446.044419971,322.246696035 L445.080763583,318.327826725 L445.209251101,321.026064611 L443.153450808,320.640602056 L441.997063142,317.621145374 L442.318281938,319.291483113 L436.793318649,316.464757709 L435.444199706,311.132525698 L435.251468429,313.638032305 L432.167767988,313.188325991 L431.910792952,317.042951542 L430.882892805,311.839207048 L428.505873715,314.216226138 L427.220998532,310.490088106 L425.100954479,312.674375918 L429.212555066,314.922907489 L428.827092511,317.813876652 L421.053597651,316.657488987 L422.595447871,319.933920705 L417.712922173,324.109765051 L408.911527166,323.210352423 L406.149045521,319.805433186 L406.21328928,315.822320117 L410.003671072,311.389500734 L408.461820852,307.79185022 L418.548091043,308.305800294 L423.173641703,314.473201175 L422.531204112,308.948237885 L422.017254038,310.554331865 L417.263215859,307.342143906 L421.760279001,306.956681351 L426.707048458,301.046255507 L430.625917768,300.853524229 L421.88876652,293.465491924 L427.34948605,282.608296623 L428.570117474,273.871145374 L419.704478708,262.435756241 L417.006240822,262.821218796 L417.905653451,260.893906021 L416.492290749,263.399412628 L414.0510279,261.72907489 L413.729809104,257.681718062 L411.417033774,257.874449339 L413.729809104,259.737518355 L412.252202643,260.829662261 L408.975770925,256.975036711 L407.04845815,258.067180617 L407.562408223,254.341042584 L399.467694567,262.435756241 L397.990088106,257.874449339 L402.679882526,255.304698972 L402.101688693,253.248898678 L395.805800294,250.486417034 L397.476138032,248.173641703 L392.593612335,249.908223201 L394.263950073,248.302129222 L393.878487518,246.696035242 L391.308737151,247.402716593 L392.465124816,245.539647577 L389.83113069,248.045154185 L390.216593245,249.20154185 L389.574155653,248.109397944 L387.968061674,242.905653451 L384.627386197,243.676578561 L380.001835536,237.894640235 L378.267254038,242.391703377 L381.864904552,243.098384728 L383.984948605,248.880323054 L368.951908957,248.816079295 L374.284140969,253.762848752 L362.399045521,247.531204112 L369.787077827,252.34948605 L368.116740088,254.084067548 L354.175844347,251.835535977 L349.743024963,254.405286344 L345.502936858,251.514317181 L345.759911894,247.209985316 L344.860499266,250.293685756 L342.93318649,248.43061674 L343.318649046,251.000367107 L339.142804699,252.34948605 L334.324522761,249.330029369 L329.634728341,240.914096916 L341.776798825,240.849853157 L337.215491924,237.380690162 L327.771659325,237.316446402 L326.165565345,221.705212922 L329.955947137,206.607929515 L337.857929515,199.21989721 M283.636196769,200.890234949 L286.141703377,204.102422907 L292.052129222,200.954478708 L294.55763583,202.239353891 L295.264317181,205.130323054 L292.309104258,207.378854626 L294.364904552,209.241923642 L288.775697504,216.244493392 L290.831497797,213.803230543 L293.915198238,215.023861968 L294.107929515,220.163362702 L296.998898678,218.171806167 L297.962555066,222.797356828 L295.392804699,224.403450808 L296.613436123,231.791483113 L291.538179148,234.618208517 L288.968428781,233.847283407 L288.904185022,230.44236417 L287.876284875,233.012114537 L289.86784141,235.838839941 L286.591409692,239.500734214 L278.625183554,225.75256975 L273.678414097,223.568281938 L270.016519824,217.015418502 L273.935389134,212.004405286 L276.119676946,217.657856094 L280.038546256,217.722099853 L280.295521292,213.417767988 L281.965859031,214.83113069 L280.038546256,210.462555066 L283.314977974,210.97650514 L275.79845815,206.350954479 L278.88215859,204.937591777 L280.680983847,207.957048458 L278.175477239,203.074522761 L280.295521292,201.339941263 L282.736784141,203.203010279 L281.837371512,200.890234949 L283.636196769,200.890234949 M292.630323054,198.705947137 L290.510279001,201.468428781 L285.370778267,201.211453744 L292.630323054,198.705947137 M312.48164464,198.256240822 L322.889133627,200.890234949 L316.272026432,217.786343612 L306.763950073,217.657856094 L310.425844347,222.540381791 L308.048825257,229.285976505 L306.763950073,228.707782673 L303.166299559,229.67143906 L304.70814978,226.780469897 L300.725036711,217.465124816 L300.468061674,204.423641703 L305.029368576,204.873348018 L302.074155653,201.018722467 L304.515418502,198.320484581 L312.48164464,198.256240822 M270.145007342,179.047356828 L269.245594714,182.323788546 L265.455212922,180.910425844 L267.96071953,176.606093979 L270.145007342,179.047356828 M305.286343612,175.963656388 L308.755506608,180.910425844 L309.269456681,189.06938326 L304.322687225,190.482745962 L296.998898678,184.058370044 L300.082599119,177.633994126 L305.286343612,175.963656388 M298.219530103,175.385462555 L299.568649046,176.927312775 L296.035242291,179.68979442 L298.219530103,175.385462555 M359.572320117,160.416666667 L361.114170338,164.207048458 L359.315345081,165.62041116 L359.572320117,160.416666667 M275.734214391,164.913729809 L274.770558003,167.676211454 L269.181350954,166.905286344 L275.734214391,164.913729809 M271.815345081,159.196035242 L274.706314244,162.087004405 L273.42143906,163.757342144 L269.631057269,163.24339207 L269.181350954,159.131791483 L271.815345081,159.196035242 M290.959985316,160.031204112 L293.465491924,162.793685756 L292.18061674,173.843612335 L294.49339207,179.047356828 L292.758810573,176.413362702 L291.152716593,179.946769457 L293.337004405,182.77349486 L291.345447871,181.552863436 L291.730910426,184.700807636 L286.334434655,184.893538913 L286.71989721,182.77349486 L286.141703377,184.829295154 L282.672540382,184.315345081 L282.03010279,181.424375918 L284.214390602,181.038913363 L281.644640235,177.890969163 L288.582966226,174.22907489 L274.642070485,176.413362702 L273.871145374,174.550293686 L277.211820852,173.586637298 L276.505139501,171.016886931 L281.323421439,172.237518355 L279.074889868,171.273861968 L280.167033774,165.62041116 L277.597283407,165.877386197 L278.11123348,162.986417034 L280.295521292,162.857929515 L284.921071953,171.595080764 L286.848384728,170.245961821 L284.214390602,167.611967695 L287.105359765,167.419236417 L283.379221733,166.134361233 L285.691997063,165.491923642 L281.837371512,161.894273128 L286.655653451,160.288179148 L288.518722467,163.885829662 L290.959985316,160.031204112 M245.475403818,181.488619677 L247.595447871,171.402349486 L251.385829662,173.201174743 L252.34948605,170.181718062 L248.687591777,166.584067548 L248.751835536,166.070117474 L251.835535977,164.528267254 L249.779735683,161.508810573 L250.614904552,157.654185022 L255.947136564,153.028634361 L256.653817915,161.958516887 L254.469530103,165.299192364 L257.424743025,166.584067548 L255.49743025,169.346549192 L259.223568282,168.254405286 L259.287812041,172.109030837 L262.243024963,166.327092511 L264.748531571,172.879955947 L261.150881057,181.295888399 L256.139867841,182.516519824 L254.598017621,179.561306902 L251.642804699,181.745594714 L250.550660793,179.240088106 L245.475403818,181.488619677 M301.881424376,154.955947137 L308.948237885,158.682085169 L307.920337739,164.07856094 L309.462187959,160.545154185 L315.051395007,159.196035242 L318.649045521,162.087004405 L315.436857562,162.729441997 L323.017621145,164.464023495 L320.447870778,167.354992658 L314.922907489,165.62041116 L320.190895742,168.254405286 L316.785976505,169.218061674 L317.107195301,171.980543319 L321.09030837,168.896842878 L324.366740088,172.366005874 L322.439427313,175.321218796 L325.715859031,177.248531571 L326.101321586,173.393906021 L328.285609398,176.349118943 L329.827459618,174.486049927 L331.112334802,176.220631424 L331.562041116,173.650881057 L334.453010279,177.055800294 L338.436123348,175.963656388 L335.866372981,174.743024963 L342.93318649,168.704111601 L357.195301028,168.896842878 L357.131057269,171.209618209 L360.022026432,170.631424376 L361.178414097,172.944199706 L358.415932452,177.441262849 L363.041483113,178.404919236 L358.994126285,179.240088106 L360.857195301,183.737151248 L351.349118943,186.885095448 L347.366005874,181.809838473 L348.265418502,186.628120411 L345.502936858,188.234214391 L342.93318649,188.619676946 L342.098017621,185.857195301 L341.905286344,189.06938326 L340.106461087,186.371145374 L340.234948605,189.262114537 L337.729441997,187.784508076 L337.279735683,189.84030837 L335.288179148,188.105726872 L336.380323054,190.225770925 L328.863803231,190.739720999 L328.09287812,184.829295154 L325.137665198,190.354258443 L318.71328928,188.683920705 L319.419970631,185.92143906 L316.914464023,189.711820852 L312.545888399,181.488619677 L314.02349486,174.743024963 L309.719162996,164.720998532 L301.495961821,166.584067548 L303.551762115,165.234948605 L299.375917768,163.628854626 L300.725036711,161.059104258 L296.09948605,159.38876652 L298.219530103,158.746328928 L296.613436123,155.341409692 L301.881424376,154.955947137 M317.749632893,144.869676946 L320.31938326,149.109765051 L318.135095448,151.358296623 L314.922907489,145.897577093 L317.749632893,144.869676946 M269.695301028,146.86123348 L269.952276065,151.5510279 L267.575256975,141.143538913 L269.695301028,146.86123348 M301.238986784,143.327826725 L308.177312775,143.906020558 L307.406387665,148.274596182 L299.375917768,147.953377386 L298.540748899,144.484214391 L301.238986784,143.327826725 M283.443465492,143.327826725 L279.396108664,143.71328928 L278.625183554,141.079295154 L283.443465492,143.327826725 M256.461086637,130.47907489 L257.617474302,125.146842878 L259.095080764,129.001468429 L256.461086637,130.47907489 M296.613436123,129.322687225 L302.909324523,134.462187959 L302.266886931,140.436857562 L296.549192364,143.199339207 L293.72246696,139.344713656 L296.613436123,137.931350954 L291.987885463,132.406387665 L292.95154185,127.459618209 L296.613436123,129.322687225 M277.533039648,118.272760646 L279.845814978,125.660792952 L282.929515419,122.834067548 L288.582966226,130.607562408 L289.161160059,142.17143906 L284.599853157,141.593245228 L283.57195301,136.325256975 L278.625183554,133.177312775 L274.706314244,134.847650514 L272.329295154,132.856093979 L272.200807636,129.965124816 L276.440895742,131.121512482 L275.156020558,128.93722467 L277.468795888,127.588105727 L274.96328928,126.688693098 L275.220264317,123.348017621 L272.65051395,125.917767988 L271.943832599,119.172173275 L277.533039648,118.272760646 M290.124816446,107.415565345 L291.473935389,114.289647577 L288.004772394,110.370778267 L290.124816446,107.415565345 M306.956681351,88.592143906 L319.162995595,106.708883994 L318.392070485,102.147577093 L320.897577093,101.762114537 L323.338839941,115.253303965 L326.101321586,112.812041116 L327.386196769,115.895741557 L327.835903084,113.069016153 L330.855359765,117.566079295 L325.523127753,122.063142438 L324.366740088,128.680249633 L323.274596182,121.998898678 L322.182452276,123.47650514 L323.788546256,130.157856094 L320.961820852,129.579662261 L321.604258443,136.389500734 L317.364170338,129.900881057 L319.612701909,136.646475771 L317.364170338,134.269456681 L315.308370044,137.224669604 L309.719162996,134.654919236 L308.56277533,132.406387665 L312.48164464,130.993024963 L307.534875184,130.800293686 L305.800293686,128.230543319 L308.113069016,128.166299559 L304.322687225,124.889867841 L315.436857562,120.264317181 L309.012481645,120.778267254 L313.124082232,118.272760646 L307.534875184,117.116372981 L305.222099853,120.714023495 L303.616005874,118.208516887 L301.56020558,120.457048458 L300.01835536,116.473935389 L303.93722467,112.683553598 L299.697136564,114.739353891 L297.705580029,111.591409692 L297.448604993,107.03010279 L303.680249633,109.471365639 L304.322687225,106.387665198 L300.917767988,107.415565345 L297.512848752,104.010646109 L300.78928047,104.010646109 L299.24743025,100.284508076 L304.965124816,101.055433186 L300.596549192,95.2734948605 L306.25,92.0613069016 L303.487518355,88.0139500734 L306.956681351,88.592143906 M349.100587372,49.9816446402 L350.0,51.7804698972 L356.360132159,49.9174008811 L354.175844347,56.3417767988 L359.37958884,48.825256975 L360.92143906,50.7525697504 L362.399045521,48.9537444934 L365.290014684,54.221732746 L368.951908957,51.9732011747 L371.07195301,55.4423641703 L366.38215859,68.2268722467 L361.885095448,71.5033039648 L358.60866373,70.2184287812 L361.435389134,72.5312041116 L365.61123348,70.6038913363 L360.792951542,79.7907488987 L370.429515419,68.9977973568 L366.639133627,89.3630690162 L364.647577093,90.9049192364 L362.142070485,88.3994126285 L365.996696035,93.1534508076 L360.279001468,94.7595447871 L361.306901615,97.1365638767 L365.61123348,94.7595447871 L365.868208517,99.8990455213 L363.748164464,102.854258443 L357.388032305,101.312408223 L356.038913363,102.468795888 L360.15051395,102.276064611 L361.75660793,106.066446402 L357.259544787,107.544052863 L357.83773862,109.664096916 L351.413362702,108.828928047 L355.589207048,110.820484581 L351.734581498,109.985315712 L352.248531571,112.105359765 L349.678781204,112.362334802 L360.086270191,111.270190896 L360.985682819,113.968428781 L355.781938326,113.069016153 L349.935756241,115.253303965 L356.103157122,114.996328928 L348.522393539,117.309104258 L351.991556535,117.052129222 L351.477606461,121.163729809 L354.754038179,116.024229075 L357.901982379,116.216960352 L356.360132159,118.593979442 L361.178414097,117.244860499 L362.784508076,120.649779736 L357.131057269,123.604992658 L362.848751836,124.697136564 L357.83773862,128.1020558 L362.077826725,128.230543319 L361.949339207,130.864537445 L354.818281938,132.470631424 L357.966226138,137.738619677 L354.754038179,143.649045521 L349.22907489,144.291483113 L344.410792952,139.987151248 L348.008443465,144.612701909 L344.860499266,145.576358297 L346.338105727,147.503671072 L348.393906021,145.255139501 L351.863069016,145.704845815 L351.477606461,147.824889868 L353.983113069,144.676945668 L355.332232012,149.174008811 L357.83773862,150.00917768 L359.122613803,146.604258443 L361.69236417,151.5510279 L352.37701909,162.215491924 L352.441262849,157.718428781 L347.751468429,157.268722467 L348.136930984,154.570484581 L344.53928047,153.285609398 L347.301762115,159.131791483 L344.282305433,158.746328928 L342.419236417,154.634728341 L343.832599119,159.774229075 L339.656754772,156.626284875 L340.427679883,159.774229075 L337.408223201,159.196035242 L340.234948605,161.830029369 L337.47246696,162.793685756 L333.232378855,161.830029369 L331.883259912,158.232378855 L332.01174743,162.665198238 L328.542584435,159.003303965 L328.606828194,163.24339207 L325.908590308,162.600954479 L324.944933921,156.369309838 L325.330396476,162.53671072 L324.623715125,159.774229075 L323.338839941,162.53671072 L321.540014684,155.855359765 L325.137665198,151.615271659 L330.662628488,150.266152717 L326.615271659,147.889133627 L324.045521292,140.62958884 L329.6989721,140.308370044 L332.78267254,146.154552129 L337.408223201,147.246696035 L340.556167401,145.961820852 L341.969530103,134.526431718 L338.628854626,144.098751836 L335.545154185,143.906020558 L336.123348018,140.565345081 L333.746328928,142.235682819 L333.232378855,139.216226138 L336.316079295,138.31681351 L331.947503671,138.445301028 L335.866372981,135.554331865 L333.360866373,134.462187959 L336.444566814,133.948237885 L333.425110132,133.948237885 L333.425110132,127.973568282 L332.075991189,135.811306902 L329.6989721,136.517988253 L330.341409692,131.763950073 L325.78010279,136.325256975 L327.129221733,125.725036711 L331.433553598,123.283773862 L340.363436123,127.074155653 L340.042217327,124.311674009 L336.830029369,123.669236417 L341.198604993,122.64133627 L341.327092511,119.364904552 L338.821585903,122.512848752 L331.947503671,121.420704846 L335.93061674,120.392804699 L329.6989721,112.747797357 L325.394640235,111.205947137 L325.137665198,108.058002937 L328.285609398,108.122246696 L324.623715125,107.094346549 L324.109765051,102.790014684 L331.305066079,102.468795888 L338.564610866,111.141703377 L341.969530103,111.013215859 L343.704111601,108.379221733 L338.950073421,109.34287812 L338.500367107,105.937958884 L332.589941263,101.119676946 L344.53928047,94.4383259912 L339.720998532,94.8237885463 L347.109030837,88.5279001468 L341.198604993,90.1982378855 L343.575624082,80.1119676946 L340.748898678,86.5363436123 L338.628854626,85.701174743 L340.234948605,89.684287812 L336.573054332,95.4019823789 L332.140234949,97.6505139501 L334.645741557,92.8322320117 L330.726872247,95.466226138 L330.855359765,93.1534508076 L330.148678414,98.1644640235 L324.559471366,99.1281204112 L322.824889868,98.2929515419 L324.752202643,92.0613069016 L331.883259912,87.5 L324.23825257,91.2903817915 L320.31938326,97.971732746 L315.501101322,94.1171071953 L322.053964758,92.0613069016 L326.037077827,86.8575624082 L314.408957416,92.8322320117 L313.059838473,90.1339941263 L316.207782673,88.9776064611 L313.702276065,87.7569750367 L319.484214391,84.2878120411 L316.978707783,83.4526431718 L312.48164464,87.4357562408 L314.08773862,83.0671806167 L309.847650514,85.0587371512 L308.56277533,83.0671806167 L312.160425844,79.0198237885 L314.344713656,80.2404552129 L316.657488987,75.2294419971 L319.998164464,78.1846549192 L319.869676946,75.550660793 L324.752202643,77.4779735683 L318.970264317,73.3021292217 L322.889133627,68.2268722467 L327.450440529,74.0730543319 L330.212922173,73.9445668135 L327.064977974,70.4754038179 L336.765785609,76.0646108664 L327.32195301,69.062041116 L329.441997063,66.6207782673 L327.193465492,64.5007342144 L331.112334802,65.5286343612 L328.221365639,61.6097650514 L334.709985316,62.4449339207 L330.084434655,59.8751835536 L334.966960352,58.204845815 L340.363436123,64.5649779736 L341.134361233,61.481277533 L335.802129222,56.0848017621 L341.519823789,54.8641703377 L346.145374449,58.3333333333 L343.382892805,52.9368575624 L345.695668135,51.5877386197 L348.393906021,54.2859765051 L346.595080764,51.2665198238 L349.100587372,49.9816446402 Z" fill="#cee3f5" id="CA.NU" stroke="#6e6e6e" stroke-width="0.4"><desc><labelrank>2</labelrank><code_hasc>CA.NU</code_hasc><name>Nunavut</name><admin>Canada</admin><type_en>Territory</type_en><region>Northern Canada</region><woe_id>20069920</woe_id><longitude>-97</longitude><woe_name>Nunavut</woe_name><fips>CA10</fips><woe_label>Nunavut, CA, Canada</woe_label><latitude>64</latitude><iso_a2>CA</iso_a2><postal>NU</postal><type>Territoire</type><id>CA.NU</id></desc></path><path d="M177.505506608,241.556534508 L169.346549192,262.5 L202.36784141,310.682819383 L212.903817915,313.31681351 L220.741556535,325.523127753 L262.114537445,339.399779736 L256.589574156,399.403450808 L191.574889868,388.803230543 L131.956681351,370.493759178 L106.837371512,360.086270191 L105.745227606,348.907856094 L107.544052863,345.31020558 L101.633627019,345.374449339 L98.9996328928,342.290748899 L92.3182819383,341.198604993 L94.9522760646,331.24082232 L91.483113069,325.78010279 L90.9691629956,318.520558003 L86.8575624082,315.758076358 L91.3546255507,303.294787078 L89.684287812,299.18318649 L93.0249632893,297.577092511 L91.8685756241,293.272760646 L93.7316446402,292.630323054 L91.3546255507,287.362334802 L92.575256975,281.773127753 L88.6563876652,280.231277533 L90.4552129222,278.88215859 L87.7569750367,272.329295154 L97.8432452276,259.159324523 L91.5473568282,255.304698972 L98.5499265786,242.070484581 L87.6927312775,234.746696035 L102.211820852,211.426211454 L105.745227606,218.236049927 L104.396108664,212.325624082 L107.158590308,212.775330396 L107.222834068,208.920704846 L108.122246696,212.261380323 L108.314977974,208.470998532 L110.563509545,210.97650514 L112.362334802,208.470998532 L114.932085169,210.783773862 L117.758810573,207.82856094 L118.850954479,211.490455213 L113.518722467,214.83113069 L125.468061674,212.389867841 L126.752936858,214.188693098 L131.956681351,212.646842878 L131.892437592,214.895374449 L135.16886931,212.132892805 L139.344713656,214.895374449 L141.593245228,213.096549192 L139.922907489,216.758443465 L131.057268722,218.75 L131.121512482,217.529368576 L126.303230543,216.43722467 L122.64133627,219.071218796 L122.577092511,218.107562408 L121.227973568,219.713656388 L121.998898678,217.97907489 L120.264317181,218.043318649 L118.144273128,220.805800294 L117.18061674,219.263950073 L114.289647577,221.12701909 L115.767254038,224.21071953 L114.932085169,221.06277533 L118.593979442,224.082232012 L118.979441997,219.777900147 L121.163729809,219.906387665 L122.191629956,218.942731278 L120.970998532,220.356093979 L122.512848752,219.263950073 L122.384361233,220.548825257 L125.78928047,217.97907489 L127.909324523,218.75 L127.074155653,220.163362702 L129.258443465,218.75 L127.459618209,220.805800294 L128.808737151,220.356093979 L129.836637298,217.786343612 L128.744493392,220.677312775 L130.47907489,217.593612335 L127.973568282,224.146475771 L134.3979442,218.557268722 L142.749632893,218.557268722 L140.758076358,222.283406755 L146.347283407,217.97907489 L150.523127753,218.685756241 L148.724302496,215.152349486 L150.972834068,212.839574156 L151.165565345,227.037444934 L153.992290749,235.003671072 L156.433553598,234.040014684 L153.799559471,233.333333333 L156.562041116,233.526064611 L156.690528634,230.313876652 L159.260279001,231.21328928 L157.78267254,228.964757709 L161.830029369,228.065345081 L159.324522761,226.58773862 L162.408223201,227.808370044 L163.24339207,225.881057269 L160.866372981,231.598751836 L162.665198238,233.269089574 L159.003303965,236.609765051 L164.07856094,238.151615272 L168.575624082,233.397577093 L177.505506608,241.556534508 M238.922540382,211.68318649 L236.481277533,207.700073421 L239.629221733,208.406754772 L238.922540382,211.68318649 M238.023127753,215.923274596 L230.44236417,250.871879589 L218.428781204,248.045154185 L215.987518355,249.908223201 L216.501468429,247.531204112 L196.457415565,241.556534508 L196.136196769,246.824522761 L194.915565345,241.235315712 L197.742290749,240.078928047 L224.467694567,245.218428781 L214.124449339,236.160058737 L206.28671072,235.9030837 L196.714390602,231.984214391 L195.493759178,225.559838473 L212.51835536,223.43979442 L197.870778267,220.741556535 L201.5969163,217.786343612 L196.007709251,217.143906021 L195.879221733,214.124449339 L202.624816446,209.177679883 L202.175110132,204.937591777 L222.219162996,197.935022026 L223.761013216,202.110866373 L219.006975037,209.498898678 L222.925844347,209.884361233 L227.165932452,204.937591777 L233.654552129,210.97650514 L229.607195301,217.786343612 L232.498164464,214.509911894 L233.012114537,217.400881057 L235.389133627,213.546255507 L238.023127753,215.923274596 M200.954478708,172.301762115 L206.864904552,179.754038179 L204.937591777,182.06681351 L206.99339207,179.882525698 L206.929148311,183.480176211 L209.820117474,180.974669604 L214.83113069,182.516519824 L219.649412628,195.686490455 L200.119309838,202.303597651 L197.356828194,206.158223201 L193.823421439,205.580029369 L187.977239354,215.537812041 L183.287444934,213.995961821 L175.128487518,216.565712188 L174.678781204,206.543685756 L172.494493392,201.082966226 L168.832599119,199.541116006 L188.234214391,179.497063142 L188.041483113,170.181718062 L200.954478708,172.301762115 M222.990088106,155.598384728 L218.557268722,162.343979442 L214.381424376,160.866372981 L222.990088106,155.598384728 M247.595447871,171.402349486 L245.475403818,181.488619677 L237.958883994,185.086270191 L231.598751836,184.957782673 L228.386563877,179.304331865 L240.014684288,177.890969163 L243.226872247,174.935756241 L237.573421439,175.513950073 L236.930983847,172.944199706 L235.646108664,175.192731278 L231.662995595,174.935756241 L235.13215859,170.245961821 L232.690895742,168.76835536 L226.973201175,175.0 L227.165932452,171.659324523 L224.531938326,174.22907489 L223.632525698,170.181718062 L218.75,167.804698972 L221.512481645,165.234948605 L230.249632893,164.656754772 L221.833700441,163.757342144 L224.082232012,161.251835536 L231.662995595,162.215491924 L225.174375918,159.581497797 L228.450807636,156.176578561 L233.397577093,158.296622614 L229.607195301,155.212922173 L234.232745962,152.964390602 L235.9030837,158.61784141 L241.171071953,160.288179148 L243.034140969,170.759911894 L247.595447871,171.402349486 M239.500734214,148.788546256 L239.0510279,151.486784141 L235.260646109,149.430983847 L239.500734214,148.788546256 M234.296989721,137.995594714 L235.9030837,141.143538913 L231.919970631,142.556901615 L231.598751836,149.366740088 L227.230176211,150.266152717 L225.559838473,153.863803231 L223.054331865,151.101321586 L225.688325991,145.512114537 L220.677312775,148.46732746 L217.97907489,154.441997063 L217.143906021,150.201908957 L214.124449339,156.626284875 L211.940161527,156.562041116 L212.646842878,150.587371512 L210.783773862,153.992290749 L205.323054332,151.743759178 L207.82856094,146.154552129 L211.875917768,146.283039648 L224.017988253,136.967694567 L230.635095448,139.665932452 L232.176945668,136.325256975 L234.296989721,137.995594714 M242.263215859,131.828193833 L243.74082232,135.361600587 L241.42804699,136.453744493 L239.629221733,131.892437592 L242.263215859,131.828193833 M255.754405286,133.883994126 L255.176211454,136.389500734 L252.156754772,136.903450808 L254.148311307,140.62958884 L250.74339207,143.456314244 L246.439060206,143.77753304 L243.805066079,140.115638767 L245.089941263,134.333700441 L255.754405286,133.883994126 M257.617474302,125.146842878 L256.461086637,130.47907489 L246.503303965,127.909324523 L255.690161527,123.604992658 L257.617474302,125.146842878 Z" fill="#cee3f5" id="CA.NT" stroke="#6e6e6e" stroke-width="0.4"><desc><labelrank>2</labelrank><code_hasc>CA.NT</code_hasc><name>Northwest Territories</name><admin>Canada</admin><type_en>Territory</type_en><region>Northern Canada</region><woe_id>2344920</woe_id><longitude>-119</longitude><woe_name>Northwest Territories</woe_name><fips>CA13</fips><woe_label>Northwest Territories, CA, Canada</woe_label><latitude>64</latitude><iso_a2>CA</iso_a2><postal>NT</postal><type>Territoire</type><id>CA.NT</id></desc></path><path d="M102.211820852,211.426211454 L87.6927312775,234.746696035 L98.5499265786,242.070484581 L91.5473568282,255.304698972 L97.8432452276,259.159324523 L87.7569750367,272.329295154 L90.4552129222,278.88215859 L88.6563876652,280.231277533 L92.575256975,281.773127753 L91.3546255507,287.362334802 L93.7316446402,292.630323054 L91.8685756241,293.272760646 L93.0249632893,297.577092511 L89.684287812,299.18318649 L91.3546255507,303.294787078 L86.8575624082,315.758076358 L90.9691629956,318.520558003 L91.483113069,325.78010279 L94.9522760646,331.24082232 L92.3182819383,341.198604993 L98.9996328928,342.290748899 L101.633627019,345.374449339 L107.544052863,345.31020558 L105.745227606,348.907856094 L106.837371512,360.086270191 L58.7187958884,334.966960352 L13.748164464,304.451174743 L16.5748898678,300.339574156 L10.0220264317,298.155286344 L5.78193832599,292.309104258 L47.7973568282,240.785609398 L90.1339941263,188.812408223 L96.2371512482,196.200440529 L96.0444199706,201.018722467 L102.211820852,211.426211454 Z" fill="#cee3f5" id="CA.YT" stroke="#6e6e6e" stroke-width="0.4"><desc><labelrank>2</labelrank><code_hasc>CA.YT</code_hasc><name>Yukon</name><admin>Canada</admin><type_en>Territory</type_en><region>Northern Canada</region><woe_id>2344926</woe_id><longitude>-135</longitude><woe_name>Yukon</woe_name><fips>CA12</fips><woe_label>Yukon Territory, CA, Canada</woe_label><latitude>63</latitude><iso_a2>CA</iso_a2><postal>YT</postal><type>Territoire</type><id>CA.YT</id></desc></path><path d="M447.586270191,511.765785609 L444.759544787,509.067547724 L445.787444934,504.827459618 L447.586270191,511.765785609 M447.65051395,512.087004405 L459.599853157,561.169236417 L468.915198238,572.604625551 L472.255873715,574.660425844 L485.104625551,574.403450808 L490.822320117,577.615638767 L492.428414097,575.75256975 L498.660058737,580.121145374 L504.763215859,579.478707783 L514.592511013,572.219162996 L517.419236417,572.540381791 L519.53928047,577.294419971 L517.033773862,581.598751836 L505.791116006,595.925110132 L501.679515419,607.617474302 L482.02092511,613.335168869 L478.230543319,616.675844347 L482.342143906,625.734214391 L446.494126285,651.174743025 L440.519456681,646.87041116 L440.6479442,642.887298091 L445.658957416,637.105359765 L446.815345081,622.457782673 L437.628487518,598.559104258 L425.422173275,593.226872247 L424.97246696,589.179515419 L421.053597651,590.335903084 L418.355359765,583.975770925 L413.986784141,585.710352423 L409.810939794,579.992657856 L372.870778267,564.638399413 L363.876651982,570.356093979 L350.321218796,570.034875184 L348.907856094,567.97907489 L343.76835536,571.255506608 L337.279735683,567.143906021 L334.453010279,569.135462555 L328.285609398,563.674743025 L320.704845815,565.409324523 L311.839207048,561.875917768 L310.297356828,554.230910426 L307.213656388,553.395741557 L306.635462555,503.735315712 L306.956681351,503.414096916 L309.333700441,500.908590308 L314.601688693,495.447870778 L319.484214391,490.179882526 L327.578928047,479.322687225 L332.268722467,473.026798825 L334.581497797,469.878854626 L336.894273128,466.795154185 L354.68979442,443.089207048 L362.52753304,448.164464023 L366.125183554,454.010646109 L387.389867841,460.306534508 L385.848017621,465.63876652 L388.096549192,461.013215859 L411.031571219,459.214390602 L417.006240822,489.408957416 L426.064610866,497.182452276 L422.916666667,499.495227606 L425.936123348,498.146108664 L435.572687225,503.671071953 L438.206681351,508.296622614 L434.159324523,514.014317181 L438.656387665,508.425110132 L447.65051395,512.087004405 Z" fill="#cee3f5" id="CA.ON" stroke="#6e6e6e" stroke-width="0.4"><desc><labelrank>2</labelrank><code_hasc>CA.ON</code_hasc><name>Ontario</name><admin>Canada</admin><type_en>Province</type_en><region>Eastern Canada</region><woe_id>2344922</woe_id><longitude>-84</longitude><woe_name>Ontario</woe_name><fips>CA08</fips><woe_label>Ontario, CA, Canada</woe_label><latitude>50</latitude><iso_a2>CA</iso_a2><postal>ON</postal><type>Province</type><id>CA.ON</id></desc></path><path d="M525.899412628,570.356093979 L522.173274596,572.925844347 L525.706681351,567.465124816 L525.899412628,570.356093979 M574.146475771,511.444566814 L570.548825257,515.684654919 L567.400881057,514.592511013 L560.97650514,518.639867841 L563.032305433,523.907856094 L558.535242291,529.818281938 L555.901248164,528.404919236 L553.267254038,541.317914831 L555.258810573,552.881791483 L553.010279001,564.638399413 L548.513215859,565.6020558 L548.320484581,569.970631424 L517.033773862,581.598751836 L526.670337739,571.640969163 L527.055800294,561.74743025 L533.801395007,551.853891336 L536.114170338,548.770190896 L537.720264317,548.705947137 L540.996696035,545.686490455 L546.650146843,539.197870778 L551.082966226,521.916299559 L559.241923642,507.204478708 L577.165932452,489.537444934 L583.975770925,487.353157122 L590.978340675,488.509544787 L592.327459618,489.987151248 L588.215859031,490.179882526 L593.676578561,493.649045521 L588.408590308,503.735315712 L581.020558003,504.441997063 L574.146475771,511.444566814 M584.618208517,474.632892805 L600.165198238,471.87041116 L610.572687225,473.540748899 L606.011380323,477.395374449 L592.96989721,479.386930984 L582.04845815,477.33113069 L584.618208517,474.632892805 M513.179148311,344.860499266 L511.508810573,346.402349486 L514.014317181,347.494493392 L512.53671072,349.357562408 L513.436123348,350.128487518 L514.977973568,350.192731278 L515.427679883,354.946769457 L517.740455213,356.295888399 L519.603524229,354.368575624 L520.438693098,358.929882526 L523.265418502,360.471732746 L519.860499266,363.362701909 L530.203744493,360.792951542 L526.991556535,363.940895742 L529.882525698,365.546989721 L528.533406755,372.67804699 L533.030469897,375.247797357 L536.628120411,374.348384728 L539.583333333,388.867474302 L543.116740088,391.37298091 L541.189427313,392.593612335 L544.658590308,396.512481645 L548.962922173,394.970631424 L546.90712188,397.861600587 L550.440528634,403.258076358 L554.038179148,402.487151248 L552.496328928,405.249632893 L554.552129222,404.928414097 L555.258810573,414.629221733 L544.080396476,414.693465492 L541.38215859,419.897209985 L529.432819383,415.785609398 L533.60866373,423.302129222 L526.220631424,421.696035242 L531.103157122,425.422173275 L527.633994126,431.011380323 L529.561306902,436.343612335 L540.354258443,441.097650514 L541.574889868,445.787444934 L538.362701909,446.87958884 L540.482745962,449.706314244 L545.814977974,450.156020558 L546.264684288,444.245594714 L552.239353891,455.616740088 L551.918135095,453.11123348 L555.837004405,455.167033774 L559.498898678,452.790014684 L562.582599119,455.745227606 L570.484581498,455.359765051 L571.448237885,452.404552129 L566.116005874,440.069750367 L569.135462555,435.444199706 L572.347650514,437.114537445 L568.107562408,442.254038179 L571.705212922,442.832232012 L573.953744493,446.87958884 L624.385095448,416.620778267 L629.074889868,423.559104258 L624.19236417,425.679148311 L618.73164464,432.745961821 L619.759544787,440.904919236 L618.217694567,439.555800294 L615.069750367,453.046989721 L603.248898678,461.912628488 L603.762848752,460.17804699 L593.74082232,463.711453744 L563.225036711,480.286343612 L560.334067548,488.638032305 L561.297723935,496.026064611 L555.708516887,499.302496329 L554.166666667,503.606828194 L552.946035242,502.064977974 L548.127753304,520.695668135 L534.058370044,521.8520558 L547.742290749,521.273861968 L546.714390602,531.552863436 L544.722834068,533.223201175 L544.401615272,538.426945668 L540.932452276,545.493759178 L535.857195301,548.513215859 L527.826725404,558.984948605 L521.8520558,572.219162996 L517.611967695,572.66886931 L522.68722467,574.146475771 L519.53928047,577.294419971 L517.419236417,572.540381791 L514.592511013,572.219162996 L504.763215859,579.478707783 L498.660058737,580.121145374 L492.428414097,575.75256975 L490.822320117,577.615638767 L485.104625551,574.403450808 L472.255873715,574.660425844 L468.915198238,572.604625551 L459.599853157,561.169236417 L447.65051395,512.087004405 L450.091776799,514.720998532 L447.586270191,511.765785609 L445.787444934,504.827459618 L447.457782673,501.808002937 L452.725770925,507.461453744 L452.918502203,502.643171806 L448.871145374,499.495227606 L452.468795888,491.40051395 L444.695301028,481.892437592 L443.217694567,474.311674009 L440.776431718,472.898311307 L442.511013216,470.842511013 L438.335168869,467.887298091 L440.005506608,466.088472834 L437.178781204,466.602422907 L432.488986784,460.9489721 L445.915932452,448.292951542 L451.312408223,431.139867841 L443.73164464,413.215859031 L436.72907489,407.305433186 L427.285242291,403.964757709 L426.064610866,399.274963289 L427.927679883,399.274963289 L430.625917768,391.43722467 L428.89133627,391.694199706 L428.698604993,387.454111601 L432.488986784,388.482011747 L430.176211454,386.490455213 L431.332599119,381.479441997 L428.313142438,382.314610866 L429.533773862,380.901248164 L426.128854626,377.560572687 L427.863436123,375.312041116 L424.715491924,374.669603524 L426.064610866,371.457415565 L421.696035242,373.4489721 L423.559104258,361.820851689 L419.319016153,360.15051395 L416.363803231,351.927312775 L419.383259912,347.430249633 L432.617474302,348.136930984 L431.139867841,350.256975037 L434.095080764,347.044787078 L439.87701909,348.201174743 L438.206681351,346.723568282 L443.667400881,341.262848752 L451.954845815,343.832599119 L452.276064611,347.944199706 L455.873715125,346.145374449 L458.186490455,348.201174743 L456.773127753,350.385462555 L458.636196769,349.100587372 L458.250734214,347.62298091 L461.077459618,348.008443465 L460.049559471,351.220631424 L462.105359765,350.706681351 L460.884728341,352.055800294 L463.518722467,354.047356828 L472.962555066,351.349118943 L475.982011747,354.368575624 L476.881424376,349.807268722 L479.451174743,353.019456681 L478.1020558,357.83773862 L481.892437592,363.169970631 L472.705580029,367.088839941 L481.763950073,364.84030837 L485.040381791,368.437958884 L485.233113069,373.513215859 L488.573788546,371.971365639 L489.408957416,379.616372981 L485.93979442,377.175110132 L487.674375918,380.066079295 L484.847650514,382.05763583 L488.830763583,383.149779736 L490.308370044,378.267254038 L494.098751836,375.825991189 L500.201908957,378.973935389 L501.5510279,384.948604993 L496.540014684,392.657856094 L501.615271659,386.233480176 L501.229809104,377.946035242 L503.349853157,384.755873715 L503.606828194,378.524229075 L507.140234949,385.462555066 L506.305066079,381.093979442 L511.123348018,374.669603524 L510.480910426,369.337371512 L514.84948605,370.879221733 L515.941629956,374.926578561 L515.877386197,371.007709251 L512.729441997,367.21732746 L516.327092511,363.426945668 L512.986417034,363.29845815 L512.600954479,360.022026432 L514.528267254,360.535976505 L511.894273128,358.544419971 L516.327092511,358.030469897 L510.480910426,355.46071953 L513.821585903,353.212187959 L511.508810573,352.505506608 L510.802129222,346.8520558 L513.179148311,344.860499266 Z" fill="#cee3f5" id="CA.QC" stroke="#6e6e6e" stroke-width="0.4"><desc><labelrank>2</labelrank><code_hasc>CA.QC</code_hasc><name>Qubec</name><admin>Canada</admin><type_en>Province</type_en><region>Eastern Canada</region><woe_id>2344924</woe_id><longitude>-73</longitude><woe_name>Qubec</woe_name><fips>CA10</fips><woe_label>Quebec, CA, Canada</woe_label><latitude>52</latitude><iso_a2>CA</iso_a2><postal>QC</postal><type>Province</type><id>CA.QC</id></desc></path><path d="M594.897209985,553.331497797 L596.760279001,555.323054332 L594.768722467,556.479441997 L594.897209985,553.331497797 M612.178781204,525.064243759 L611.150881057,528.1479442 L609.416299559,530.781938326 L608.388399413,528.533406755 L605.047723935,527.184287812 L608.324155653,529.240088106 L608.131424376,533.415932452 L601.514317181,542.795521292 L597.531204112,543.630690162 L597.723935389,541.060939794 L596.182085169,548.063509545 L587.50917768,551.018722467 L583.718795888,545.622246696 L579.478707783,545.686490455 L571.12701909,527.569750367 L565.537812041,525.642437592 L560.719530103,530.46071953 L558.535242291,529.818281938 L563.032305433,523.907856094 L560.97650514,518.639867841 L567.400881057,514.592511013 L570.548825257,515.684654919 L574.146475771,511.444566814 L577.679882526,508.489353891 L583.718795888,508.232378855 L587.187958884,511.187591777 L591.042584435,505.534140969 L594.768722467,505.405653451 L593.034140969,516.969530103 L598.109397944,514.464023495 L603.955580029,523.843612335 L613.784875184,522.173274596 L612.178781204,525.064243759 Z" fill="#cee3f5" id="CA.NB" stroke="#6e6e6e" stroke-width="0.4"><desc><labelrank>2</labelrank><code_hasc>CA.NB</code_hasc><name>New Brunswick</name><admin>Canada</admin><type_en>Province</type_en><region>Eastern Canada</region><woe_id>2344918</woe_id><longitude>-66</longitude><woe_name>New Brunswick</woe_name><fips>CA04</fips><woe_label>New Brunswick, CA, Canada</woe_label><latitude>46</latitude><iso_a2>CA</iso_a2><postal>NB</postal><type>Province</type><id>CA.NB</id></desc></path><path d="M611.150881057,528.1479442 L612.178781204,525.064243759 L620.851688693,524.871512482 L625.991189427,521.209618209 L626.440895742,523.650881057 L631.965859031,515.941629956 L633.700440529,518.254405286 L640.767254038,517.354992658 L639.86784141,520.374449339 L644.878854626,518.896842878 L632.094346549,535.535976505 L628.88215859,536.049926579 L627.34030837,540.161527166 L624.449339207,539.711820852 L626.633627019,543.116740088 L623.357195301,543.694933921 L622.457782673,541.060939794 L622.265051395,544.851321586 L619.50256975,544.787077827 L621.943832599,547.935022026 L619.888032305,548.384728341 L619.438325991,557.05763583 L615.005506608,560.719530103 L615.776431718,564.83113069 L613.206681351,565.473568282 L609.866005874,562.261380323 L607.81020558,564.317180617 L604.72650514,560.205580029 L604.919236417,551.853891336 L602.799192364,555.45154185 L613.592143906,536.499632893 L612.628487518,535.535976505 L618.024963289,538.683920705 L616.804331865,535.471732746 L622.714757709,529.882525698 L611.279368576,535.086270191 L608.58113069,537.912995595 L611.150881057,528.1479442 M636.077459618,494.741189427 L639.225403818,496.218795888 L641.216960352,505.277165932 L642.116372981,503.349853157 L641.538179148,506.497797357 L638.518722467,511.123348018 L641.088472834,507.78267254 L640.060572687,514.335535977 L643.915198238,512.47246696 L644.49339207,506.754772394 L641.473935389,509.324522761 L643.015785609,502.000734214 L644.236417034,504.185022026 L648.283773862,501.486784141 L650.146842878,504.377753304 L647.191629956,511.187591777 L640.060572687,517.033773862 L634.214390602,512.408223201 L636.077459618,494.741189427 Z" fill="#cee3f5" id="CA.NS" stroke="#6e6e6e" stroke-width="0.4"><desc><labelrank>2</labelrank><code_hasc>CA.NS</code_hasc><name>Nova Scotia</name><admin>Canada</admin><type_en>Province</type_en><region>Eastern Canada</region><woe_id>2344921</woe_id><longitude>-62</longitude><woe_name>Nova Scotia</woe_name><fips>CA07</fips><woe_label>Nova Scotia, CA, Canada</woe_label><latitude>45</latitude><iso_a2>CA</iso_a2><postal>NS</postal><type>Province</type><id>CA.NS</id></desc></path><path d="M636.462922173,415.014684288 L637.555066079,416.363803231 L640.446035242,413.151615272 L641.088472834,417.134728341 L636.976872247,418.997797357 L641.987885463,420.539647577 L642.373348018,426.642804699 L640.446035242,425.165198238 L645.970998532,444.631057269 L646.741923642,433.452643172 L648.026798825,436.600587372 L653.294787078,432.296255507 L650.917767988,437.692731278 L651.110499266,440.6479442 L652.716593245,437.5 L652.588105727,442.18979442 L656.763950073,438.142437592 L657.470631424,439.941262849 L657.856093979,437.178781204 L659.847650514,439.106093979 L659.333700441,435.508443465 L661.582232012,442.639500734 L661.261013216,437.307268722 L662.738619677,438.592143906 L662.738619677,435.379955947 L664.02349486,436.857562408 L664.473201175,431.653817915 L666.657488987,435.058737151 L668.135095448,430.111967695 L674.495227606,429.405286344 L672.889133627,438.849118943 L675.78010279,436.472099853 L676.358296623,439.363069016 L678.349853157,436.793318649 L676.615271659,443.538913363 L683.874816446,434.223568282 L684.453010279,438.27092511 L679.955947137,444.438325991 L683.360866373,444.438325991 L681.819016153,446.365638767 L683.810572687,444.181350954 L684.838472834,448.549926579 L683.103891336,448.42143906 L687.986417034,450.669970631 L686.765785609,442.703744493 L689.335535977,438.977606461 L690.877386197,447.907488987 L693.190161527,448.742657856 L692.547723935,442.18979442 L696.338105727,444.56681351 L700.0,457.929515419 L695.952643172,460.563509545 L691.648311307,453.817914831 L689.913729809,461.912628488 L687.793685756,452.725770925 L681.690528634,449.063876652 L680.020190896,449.770558003 L682.78267254,455.873715125 L682.01174743,458.250734214 L681.369309838,454.139133627 L679.634728341,458.764684288 L679.634728341,468.658223201 L674.174008811,470.649779736 L678.606828194,455.038546256 L676.037077827,458.058002937 L675.715859031,455.038546256 L676.037077827,458.379221733 L672.375183554,458.57195301 L673.660058737,463.390234949 L672.118208517,461.848384728 L670.769089574,464.739353891 L670.897577093,461.976872247 L668.199339207,465.381791483 L671.09030837,460.242290749 L668.970264317,462.041116006 L667.556901615,457.736784141 L667.428414097,462.426578561 L665.565345081,461.205947137 L667.042951542,463.904185022 L664.987151248,463.133259912 L662.931350954,468.529735683 L649.311674009,475.532305433 L649.118942731,473.797723935 L641.40969163,480.864537445 L638.454478708,477.845080764 L642.95154185,464.482378855 L635.049559471,469.172173275 L636.912628488,463.839941263 L636.655653451,466.859397944 L639.03267254,466.152716593 L637.233847283,457.287077827 L642.501835536,456.965859031 L639.289647577,456.387665198 L641.088472834,454.203377386 L639.546622614,455.873715125 L639.996328928,453.88215859 L636.655653451,453.88215859 L636.912628488,450.412995595 L640.060572687,450.091776799 L636.398678414,448.742657856 L634.985315712,433.259911894 L632.479809104,433.516886931 L634.40712188,428.634361233 L632.351321586,428.248898678 L632.672540382,422.788179148 L636.462922173,415.014684288 M565.023861968,384.37041116 L566.37298091,385.334067548 L564.445668135,385.91226138 L565.023861968,384.37041116 M559.948604993,380.644273128 L561.940161527,380.837004405 L558.406754772,382.378854626 L559.948604993,380.644273128 M556.479441997,375.825991189 L557.507342144,376.468428781 L556.607929515,378.588472834 L558.920704846,379.68061674 L556.415198238,379.166666667 L556.479441997,375.825991189 M629.074889868,423.559104258 L624.385095448,416.620778267 L573.953744493,446.87958884 L571.705212922,442.832232012 L568.107562408,442.254038179 L572.347650514,437.114537445 L569.135462555,435.444199706 L566.116005874,440.069750367 L571.448237885,452.404552129 L570.484581498,455.359765051 L562.582599119,455.745227606 L559.498898678,452.790014684 L555.837004405,455.167033774 L551.918135095,453.11123348 L552.239353891,455.616740088 L546.264684288,444.245594714 L545.814977974,450.156020558 L540.482745962,449.706314244 L538.362701909,446.87958884 L541.574889868,445.787444934 L540.354258443,441.097650514 L529.561306902,436.343612335 L527.633994126,431.011380323 L531.103157122,425.422173275 L526.220631424,421.696035242 L533.60866373,423.302129222 L529.432819383,415.785609398 L541.38215859,419.897209985 L544.080396476,414.693465492 L555.258810573,414.629221733 L554.552129222,404.928414097 L552.496328928,405.249632893 L554.038179148,402.487151248 L550.440528634,403.258076358 L546.90712188,397.861600587 L548.962922173,394.970631424 L544.658590308,396.512481645 L541.189427313,392.593612335 L543.116740088,391.37298091 L539.583333333,388.867474302 L536.628120411,374.348384728 L533.030469897,375.247797357 L528.533406755,372.67804699 L529.882525698,365.546989721 L526.991556535,363.940895742 L530.203744493,360.792951542 L519.860499266,363.362701909 L523.265418502,360.471732746 L520.438693098,358.929882526 L519.603524229,354.368575624 L517.740455213,356.295888399 L515.427679883,354.946769457 L514.977973568,350.192731278 L513.436123348,350.128487518 L512.53671072,349.357562408 L514.014317181,347.494493392 L511.508810573,346.402349486 L513.179148311,344.860499266 L512.215491924,346.466593245 L515.042217327,346.08113069 L515.042217327,347.430249633 L513.436123348,349.871512482 L515.299192364,347.62298091 L515.299192364,346.595080764 L515.941629956,349.935756241 L517.16226138,347.173274596 L518.447136564,350.835168869 L521.338105727,351.027900147 L521.016886931,353.469162996 L523.522393539,352.120044053 L522.237518355,354.882525698 L527.31277533,353.91886931 L524.807268722,359.443832599 L530.396475771,355.781938326 L530.524963289,358.994126285 L532.259544787,357.388032305 L534.829295154,359.443832599 L532.516519824,366.896108664 L538.105726872,360.985682819 L537.656020558,365.546989721 L539.647577093,364.904552129 L536.371145374,369.979809104 L540.803964758,364.326358297 L542.924008811,365.61123348 L541.125183554,368.180983847 L544.337371512,365.675477239 L548.4489721,368.951908957 L545.108296623,373.127753304 L555.644273128,373.513215859 L556.929148311,375.247797357 L555.644273128,375.569016153 L554.295154185,379.423641703 L556.99339207,380.772760646 L550.247797357,381.864904552 L552.689060206,379.552129222 L549.605359765,381.99339207 L557.121879589,381.415198238 L555.001835536,384.563142438 L559.948604993,384.563142438 L556.736417034,386.361967695 L562.132892805,384.306167401 L564.188693098,386.104992658 L562.582599119,387.582599119 L568.942731278,386.490455213 L568.493024963,388.738986784 L570.163362702,386.233480176 L571.512481645,389.702643172 L572.283406755,385.591042584 L574.467694567,391.501468429 L575.881057269,389.381424376 L575.624082232,396.705212922 L579.478707783,388.738986784 L579.799926579,392.143906021 L583.333333333,389.574155653 L582.883627019,396.576725404 L584.489720999,387.261380323 L584.875183554,391.37298091 L585.96732746,387.582599119 L589.179515419,390.859030837 L602.028267254,386.940161527 L601.57856094,390.859030837 L590.464390602,403.515051395 L597.723935389,395.934287812 L592.905653451,405.699339207 L588.472834068,409.168502203 L590.335903084,412.316446402 L582.755139501,411.866740088 L583.269089574,413.472834068 L591.235315712,412.316446402 L590.207415565,416.749265786 L596.824522761,405.635095448 L596.567547724,401.459251101 L602.991923642,395.163362702 L598.109397944,397.154919236 L599.908223201,394.263950073 L604.276798825,392.143906021 L608.452643172,393.621512482 L610.315712188,395.998531571 L608.516886931,399.788913363 L610.18722467,398.761013216 L610.95814978,400.81681351 L611.407856094,395.484581498 L614.491556535,392.336637298 L613.592143906,394.713656388 L619.245594714,392.657856094 L617.896475771,394.071218796 L623.999632893,395.034875184 L622.779001468,399.724669604 L626.954845815,400.174375918 L624.770558003,402.422907489 L629.074889868,402.487151248 L623.999632893,406.534508076 L631.387665198,404.093245228 L627.34030837,406.791483113 L632.158590308,406.149045521 L633.828928047,408.204845815 L629.074889868,423.559104258 Z" fill="#cee3f5" id="CA.NF" stroke="#6e6e6e" stroke-width="0.4"><desc><labelrank>2</labelrank><code_hasc>CA.NF</code_hasc><name>Newfoundland and Labrador</name><admin>Canada</admin><type_en>Province</type_en><region>Eastern Canada</region><woe_id>2344919</woe_id><longitude>-56</longitude><woe_name>Newfoundland and Labrador</woe_name><fips>CA05</fips><woe_label>Newfoundland and Labrador, CA, Canada</woe_label><latitude>48</latitude><iso_a2>CA</iso_a2><postal>NL</postal><type>Province</type><id>CA.NF</id></desc></path><path d="M627.019089574,509.067547724 L623.549926579,514.785242291 L626.183920705,516.905286344 L624.063876652,519.346549192 L620.723201175,519.218061674 L619.56681351,515.62041116 L618.410425844,519.218061674 L614.620044053,520.053230543 L612.178781204,518.382892805 L608.516886931,519.988986784 L607.488986784,516.776798825 L604.148311307,517.868942731 L605.304698972,510.994860499 L609.866005874,518.254405286 L627.019089574,509.067547724 Z" fill="#cee3f5" id="CA.PE" stroke="#6e6e6e" stroke-width="0.4"><desc><labelrank>2</labelrank><code_hasc>CA.PE</code_hasc><name>Prince Edward Island</name><admin>Canada</admin><type_en>Province</type_en><region>Eastern Canada</region><woe_id>2344923</woe_id><longitude>-63</longitude><woe_name>Prince Edward Island</woe_name><fips>CA09</fips><woe_label>Prince Edward Island, CA, Canada</woe_label><latitude>46</latitude><iso_a2>CA</iso_a2><postal>PE</postal><type>Province</type><id>CA.PE</id></desc></path></svg>