<?xml version='1.0' encoding='utf-8'?>
<svg height="700" width="700" xmlns="http://www.w3.org/2000/svg"><path d="M214.84375,92.578125 L210.9375,94.140625 L212.5,105.078125 L206.25,112.890625 L215.625,113.671875 L212.5,124.609375 L234.375,140.234375 L229.6875,148.046875 L239.84375,157.421875 L235.15625,163.671875 L246.09375,171.484375 L249.21875,180.078125 L244.53125,183.984375 L242.1875,191.796875 L226.5625,183.984375 L206.25,185.546875 L192.96875,183.203125 L191.40625,188.671875 L180.46875,191.015625 L160.9375,191.015625 L157.03125,187.109375 L144.53125,191.015625 L127.34375,191.796875 L103.90625,185.546875 L98.4375,190.234375 L92.96875,186.328125 L95.3125,180.859375 L87.5,173.046875 L53.90625,166.796875 L42.96875,161.328125 L41.40625,155.859375 L26.5625,153.515625 L21.875,148.828125 L32.8125,144.140625 L25.78125,134.765625 L28.90625,130.859375 L45.3125,137.890625 L53.125,137.109375 L58.59375,141.796875 L69.53125,140.234375 L71.875,137.890625 L76.5625,141.015625 L87.5,141.015625 L86.71875,132.421875 L93.75,129.296875 L92.96875,124.609375 L100.78125,122.265625 L107.03125,124.609375 L111.71875,123.046875 L114.84375,117.578125 L121.09375,116.015625 L120.3125,109.765625 L125.78125,103.515625 L142.1875,110.546875 L150.0,108.203125 L153.90625,98.046875 L153.125,89.453125 L171.875,84.765625 L207.03125,87.890625 L214.84375,92.578125 Z" fill="#cee3f5" id="RS.JC" stroke="#6e6e6e" stroke-width="0.4"><desc><labelrank>9</labelrank><code_hasc>RS.JC</code_hasc><name>Južno-Backi</name><admin>Republic of Serbia</admin><type_en>District</type_en><region>Južno-Bački</region><woe_id>29389212</woe_id><longitude>19</longitude><woe_name>Južno-Backi</woe_name><fips>RB02</fips><woe_label>Juzhna Bachka, RS, Serbia</woe_label><latitude>45</latitude><iso_a2>RS</iso_a2><postal>JC</postal><type>Okrug</type><id>RS.JC</id></desc></path><path d="M425.78125,244.921875 L410.15625,246.484375 L396.875,252.734375 L392.1875,258.203125 L371.09375,262.109375 L362.5,262.890625 L344.53125,270.703125 L329.6875,272.265625 L321.09375,269.921875 L302.34375,255.078125 L303.125,241.015625 L296.09375,239.453125 L294.53125,231.640625 L283.59375,227.734375 L278.90625,220.703125 L264.0625,211.328125 L262.5,204.296875 L272.65625,192.578125 L270.3125,189.453125 L277.34375,180.859375 L286.71875,183.203125 L292.96875,178.515625 L304.6875,181.640625 L317.1875,189.453125 L320.3125,183.984375 L338.28125,174.609375 L334.375,171.484375 L350.0,164.453125 L365.625,163.671875 L367.1875,160.546875 L382.03125,166.796875 L388.28125,163.671875 L404.6875,176.171875 L432.8125,181.640625 L447.65625,191.015625 L448.4375,194.921875 L439.0625,199.609375 L435.9375,209.765625 L425.78125,212.109375 L424.21875,215.234375 L433.59375,222.265625 L451.5625,226.171875 L455.46875,233.984375 L426.5625,237.890625 L422.65625,243.359375 L425.78125,244.921875 Z" fill="#cee3f5" id="RS.JN" stroke="#6e6e6e" stroke-width="0.4"><desc><labelrank>9</labelrank><code_hasc>RS.JN</code_hasc><name>Južno-Banatski</name><admin>Republic of Serbia</admin><type_en>District</type_en><region /><woe_id>29389222</woe_id><longitude>20</longitude><woe_name>Južno-Banatski</woe_name><fips>RB02</fips><woe_label>Juzhni Banat, RS, Serbia</woe_label><latitude>45</latitude><iso_a2>RS</iso_a2><postal>JN</postal><type>Okrug</type><id>RS.JN</id></desc></path><path d="M367.1875,160.546875 L365.625,163.671875 L350.0,164.453125 L334.375,171.484375 L338.28125,174.609375 L320.3125,183.984375 L317.1875,189.453125 L304.6875,181.640625 L292.96875,178.515625 L286.71875,183.203125 L277.34375,180.859375 L270.3125,189.453125 L272.65625,192.578125 L262.5,204.296875 L253.125,201.953125 L242.1875,191.796875 L244.53125,183.984375 L249.21875,180.078125 L246.09375,171.484375 L235.15625,163.671875 L239.84375,157.421875 L229.6875,148.046875 L234.375,140.234375 L212.5,124.609375 L215.625,113.671875 L206.25,112.890625 L212.5,105.078125 L210.9375,94.140625 L214.84375,92.578125 L222.65625,89.453125 L220.3125,83.203125 L223.4375,81.640625 L253.90625,81.640625 L260.9375,93.359375 L267.1875,96.484375 L264.0625,100.390625 L257.03125,103.515625 L253.90625,103.515625 L254.6875,100.390625 L252.34375,101.171875 L255.46875,106.640625 L250.0,111.328125 L257.03125,113.671875 L268.75,111.328125 L282.8125,112.109375 L285.15625,111.328125 L279.6875,104.296875 L281.25,101.171875 L289.0625,95.703125 L300.0,96.484375 L303.90625,80.859375 L314.0625,91.015625 L317.96875,91.015625 L325.0,85.546875 L328.125,87.890625 L322.65625,112.890625 L330.46875,125.390625 L324.21875,131.640625 L325.0,133.984375 L333.59375,137.109375 L358.59375,157.421875 L367.1875,160.546875 Z" fill="#cee3f5" id="RS.SD" stroke="#6e6e6e" stroke-width="0.4"><desc><labelrank>9</labelrank><code_hasc>RS.SD</code_hasc><name>Srednje-Banatski</name><admin>Republic of Serbia</admin><type_en>District</type_en><region /><woe_id>29389197</woe_id><longitude>20</longitude><woe_name>Srednje-Banatski</woe_name><fips>RB02</fips><woe_label>Srednji Banat, RS, Serbia</woe_label><latitude>45</latitude><iso_a2>RS</iso_a2><postal>SD</postal><type>Okrug</type><id>RS.SD</id></desc></path><path d="M625.78125,575.390625 L607.03125,573.046875 L594.53125,565.234375 L600.78125,563.671875 L600.0,561.328125 L567.96875,551.171875 L577.34375,544.140625 L573.4375,541.015625 L583.59375,534.765625 L578.90625,528.515625 L572.65625,528.515625 L553.125,519.140625 L556.25,512.890625 L561.71875,508.203125 L557.03125,496.484375 L567.96875,496.484375 L577.34375,499.609375 L588.28125,498.828125 L590.625,488.671875 L609.375,494.921875 L616.40625,491.796875 L622.65625,497.265625 L631.25,498.828125 L632.03125,494.921875 L645.3125,485.546875 L657.8125,489.453125 L669.53125,498.046875 L673.4375,505.859375 L683.59375,514.453125 L700.0,519.921875 L700.0,523.828125 L695.3125,535.546875 L685.9375,541.796875 L683.59375,547.265625 L674.21875,555.078125 L664.84375,557.421875 L657.03125,573.046875 L646.09375,575.390625 L633.59375,573.046875 L625.78125,575.390625 Z" fill="#cee3f5" id="RS.PI" stroke="#6e6e6e" stroke-width="0.4"><desc><labelrank>9</labelrank><code_hasc>RS.PI</code_hasc><name>Pirotski</name><admin>Republic of Serbia</admin><type_en>District</type_en><region /><woe_id>29389200</woe_id><longitude>22</longitude><woe_name>Pirotski</woe_name><fips>BU47</fips><woe_label>Pirot, RS, Serbia</woe_label><latitude>43</latitude><iso_a2>RS</iso_a2><postal>PI</postal><type>Okrug</type><id>RS.PI</id></desc></path><path d="M612.5,381.640625 L609.375,375.390625 L615.625,369.921875 L613.28125,366.015625 L600.0,360.546875 L590.625,362.109375 L580.46875,361.328125 L573.4375,355.859375 L566.40625,365.234375 L570.3125,367.578125 L574.21875,381.640625 L569.53125,383.984375 L560.9375,399.609375 L554.6875,405.859375 L543.75,401.171875 L539.0625,392.578125 L533.59375,394.921875 L524.21875,392.578125 L516.40625,386.328125 L495.3125,385.546875 L503.125,373.046875 L526.5625,366.015625 L524.21875,360.546875 L526.5625,347.265625 L519.53125,348.828125 L516.40625,347.265625 L515.625,337.109375 L508.59375,333.203125 L502.34375,333.984375 L499.21875,323.828125 L503.90625,317.578125 L509.375,317.578125 L514.0625,312.890625 L519.53125,312.109375 L521.875,297.265625 L539.84375,284.765625 L551.5625,298.046875 L562.5,298.828125 L585.15625,269.921875 L598.4375,266.015625 L605.46875,260.546875 L615.625,262.109375 L632.8125,274.609375 L652.34375,277.734375 L663.28125,285.546875 L659.375,291.015625 L652.34375,292.578125 L639.0625,287.890625 L632.03125,288.671875 L626.5625,298.046875 L615.625,299.609375 L614.84375,305.859375 L619.53125,310.546875 L621.875,320.703125 L632.03125,328.515625 L649.21875,332.421875 L650.78125,345.703125 L643.75,348.046875 L635.9375,355.078125 L634.375,373.828125 L624.21875,374.609375 L618.75,380.859375 L612.5,381.640625 Z" fill="#cee3f5" id="RS.BO" stroke="#6e6e6e" stroke-width="0.4"><desc><labelrank>9</labelrank><code_hasc>RS.BO</code_hasc><name>Borski</name><admin>Republic of Serbia</admin><type_en>District</type_en><region /><woe_id>29389206</woe_id><longitude>22</longitude><woe_name>Borski</woe_name><fips>RO26</fips><woe_label>Bor, RS, Serbia</woe_label><latitude>44</latitude><iso_a2>RS</iso_a2><postal>BO</postal><type>Okrug</type><id>RS.BO</id></desc></path><path d="M206.25,369.921875 L204.6875,380.078125 L207.8125,383.203125 L204.6875,387.890625 L212.5,394.921875 L210.15625,399.609375 L221.875,405.078125 L214.0625,405.859375 L210.15625,411.328125 L217.1875,419.921875 L216.40625,428.515625 L223.4375,431.640625 L221.09375,439.453125 L225.0,442.578125 L221.875,446.484375 L209.375,444.921875 L209.375,451.171875 L201.5625,451.171875 L190.625,458.984375 L186.71875,459.765625 L179.6875,455.859375 L177.34375,462.890625 L181.25,466.796875 L195.3125,472.265625 L212.5,501.171875 L216.40625,503.515625 L235.9375,499.609375 L240.625,502.734375 L235.15625,512.890625 L229.6875,516.796875 L242.96875,526.953125 L223.4375,530.078125 L219.53125,537.109375 L210.9375,540.234375 L204.6875,549.609375 L188.28125,540.234375 L183.59375,533.984375 L173.4375,538.671875 L162.5,538.671875 L154.6875,535.546875 L146.875,525.390625 L138.28125,526.953125 L127.34375,523.828125 L113.28125,512.890625 L89.0625,488.671875 L63.28125,479.296875 L56.25,472.265625 L55.46875,467.578125 L59.375,463.671875 L63.28125,463.671875 L68.75,454.296875 L77.34375,454.296875 L85.15625,450.390625 L95.3125,462.109375 L99.21875,456.640625 L109.375,458.203125 L107.03125,449.609375 L111.71875,444.140625 L111.71875,439.453125 L104.6875,424.609375 L72.65625,395.703125 L64.84375,391.796875 L67.1875,383.984375 L72.65625,382.421875 L88.28125,388.671875 L119.53125,387.109375 L131.25,378.515625 L127.34375,373.828125 L124.21875,375.390625 L113.28125,369.140625 L118.75,365.234375 L128.90625,364.453125 L130.46875,359.765625 L151.5625,366.796875 L159.375,375.390625 L163.28125,373.828125 L157.03125,365.234375 L159.375,363.671875 L166.40625,366.796875 L171.875,362.890625 L177.34375,362.890625 L180.46875,367.578125 L187.5,371.484375 L191.40625,371.484375 L196.875,366.796875 L206.25,369.921875 Z" fill="#cee3f5" id="RS.ZL" stroke="#6e6e6e" stroke-width="0.4"><desc><labelrank>9</labelrank><code_hasc>RS.ZL</code_hasc><name>Zlatiborski</name><admin>Republic of Serbia</admin><type_en>District</type_en><region /><woe_id>29389216</woe_id><longitude>19</longitude><woe_name>Zlatiborski</woe_name><fips>BK00</fips><woe_label>Zlatibor, RS, Serbia</woe_label><latitude>43</latitude><iso_a2>RS</iso_a2><postal>ZL</postal><type>Okrug</type><id>RS.ZL</id></desc></path><path d="M125.78125,103.515625 L120.3125,109.765625 L121.09375,116.015625 L114.84375,117.578125 L111.71875,123.046875 L107.03125,124.609375 L100.78125,122.265625 L92.96875,124.609375 L93.75,129.296875 L86.71875,132.421875 L87.5,141.015625 L76.5625,141.015625 L71.875,137.890625 L69.53125,140.234375 L58.59375,141.796875 L53.125,137.109375 L45.3125,137.890625 L28.90625,130.859375 L39.0625,132.421875 L44.53125,128.515625 L28.90625,119.140625 L16.40625,123.828125 L10.15625,118.359375 L11.71875,110.546875 L21.09375,101.953125 L12.5,95.703125 L9.375,85.546875 L0.0,76.953125 L1.5625,69.921875 L10.15625,68.359375 L4.6875,63.671875 L10.15625,60.546875 L9.375,57.421875 L24.21875,58.984375 L23.4375,54.296875 L34.375,51.953125 L37.5,44.140625 L41.40625,42.578125 L51.5625,48.828125 L66.40625,49.609375 L71.09375,49.609375 L76.5625,42.578125 L83.59375,48.046875 L82.03125,56.640625 L85.9375,69.140625 L98.4375,78.515625 L100.78125,85.546875 L108.59375,89.453125 L115.625,85.546875 L124.21875,90.234375 L120.3125,94.140625 L129.6875,101.171875 L125.78125,103.515625 Z" fill="#cee3f5" id="RS.ZC" stroke="#6e6e6e" stroke-width="0.4"><desc><labelrank>9</labelrank><code_hasc>RS.ZC</code_hasc><name>Zapadno-Backi</name><admin>Republic of Serbia</admin><type_en>District</type_en><region>Zapadno-Bački</region><woe_id>29389204</woe_id><longitude>19</longitude><woe_name>Zapadno-Backi</woe_name><fips>HR10</fips><woe_label>Zapadna Bachka, RS, Serbia</woe_label><latitude>45</latitude><iso_a2>RS</iso_a2><postal>ZC</postal><type>Okrug</type><id>RS.ZC</id></desc></path><path d="M174.21875,19.921875 L170.3125,26.171875 L171.09375,34.765625 L161.71875,45.703125 L162.5,59.765625 L155.46875,62.890625 L163.28125,74.609375 L167.1875,75.390625 L171.875,84.765625 L153.125,89.453125 L153.90625,98.046875 L150.0,108.203125 L142.1875,110.546875 L125.78125,103.515625 L129.6875,101.171875 L120.3125,94.140625 L124.21875,90.234375 L115.625,85.546875 L108.59375,89.453125 L100.78125,85.546875 L98.4375,78.515625 L85.9375,69.140625 L82.03125,56.640625 L83.59375,48.046875 L76.5625,42.578125 L90.625,40.234375 L110.9375,27.734375 L108.59375,23.046875 L110.9375,21.484375 L119.53125,18.359375 L139.0625,16.796875 L160.15625,24.609375 L174.21875,19.921875 Z" fill="#cee3f5" id="RS.SC" stroke="#6e6e6e" stroke-width="0.4"><desc><labelrank>9</labelrank><code_hasc>RS.SC</code_hasc><name>Severno-Backi</name><admin>Republic of Serbia</admin><type_en>District</type_en><region>Severno-Bački</region><woe_id>29389196</woe_id><longitude>19</longitude><woe_name>Severno-Backi</woe_name><fips>HU19</fips><woe_label>Severna Bachka, RS, Serbia</woe_label><latitude>45</latitude><iso_a2>RS</iso_a2><postal>SC</postal><type>Okrug</type><id>RS.SC</id></desc></path><path d="M303.90625,80.859375 L300.0,96.484375 L289.0625,95.703125 L281.25,101.171875 L279.6875,104.296875 L285.15625,111.328125 L282.8125,112.109375 L268.75,111.328125 L257.03125,113.671875 L250.0,111.328125 L255.46875,106.640625 L252.34375,101.171875 L254.6875,100.390625 L253.90625,103.515625 L257.03125,103.515625 L264.0625,100.390625 L267.1875,96.484375 L260.9375,93.359375 L253.90625,81.640625 L223.4375,81.640625 L220.3125,83.203125 L222.65625,89.453125 L214.84375,92.578125 L207.03125,87.890625 L171.875,84.765625 L167.1875,75.390625 L163.28125,74.609375 L155.46875,62.890625 L162.5,59.765625 L161.71875,45.703125 L171.09375,34.765625 L170.3125,26.171875 L174.21875,19.921875 L183.59375,18.359375 L201.5625,22.265625 L211.71875,19.921875 L218.75,23.046875 L227.34375,22.265625 L246.875,37.109375 L255.46875,50.390625 L276.5625,60.546875 L289.84375,62.890625 L303.125,75.390625 L303.90625,80.859375 Z" fill="#cee3f5" id="RS.SN" stroke="#6e6e6e" stroke-width="0.4"><desc><labelrank>9</labelrank><code_hasc>RS.SN</code_hasc><name>Severno-Banatski</name><admin>Republic of Serbia</admin><type_en>District</type_en><region /><woe_id>29389203</woe_id><longitude>20</longitude><woe_name>Severno-Banatski</woe_name><fips>HU19</fips><woe_label>Severni Banat, RS, Serbia</woe_label><latitude>45</latitude><iso_a2>RS</iso_a2><postal>SN</postal><type>Okrug</type><id>RS.SN</id></desc></path><path d="M539.84375,284.765625 L521.875,297.265625 L519.53125,312.109375 L514.0625,312.890625 L509.375,317.578125 L503.90625,317.578125 L499.21875,323.828125 L502.34375,333.984375 L508.59375,333.203125 L515.625,337.109375 L516.40625,347.265625 L519.53125,348.828125 L526.5625,347.265625 L524.21875,360.546875 L526.5625,366.015625 L503.125,373.046875 L489.0625,369.140625 L482.03125,370.703125 L473.4375,365.234375 L459.375,364.453125 L446.875,353.515625 L438.28125,351.171875 L425.78125,353.515625 L426.5625,348.046875 L414.0625,337.890625 L409.375,344.140625 L403.125,342.578125 L396.875,337.109375 L387.5,336.328125 L385.15625,331.640625 L389.0625,330.859375 L383.59375,320.703125 L386.71875,312.109375 L393.75,310.546875 L389.84375,307.421875 L390.625,303.515625 L393.75,303.515625 L390.625,302.734375 L391.40625,298.828125 L385.15625,295.703125 L388.28125,289.453125 L384.375,283.203125 L378.90625,283.203125 L375.78125,275.390625 L378.125,273.828125 L373.4375,269.921875 L374.21875,266.796875 L371.09375,262.109375 L392.1875,258.203125 L396.875,252.734375 L410.15625,246.484375 L425.78125,244.921875 L434.375,251.953125 L462.5,252.734375 L475.78125,268.359375 L492.96875,269.921875 L509.375,266.015625 L532.8125,273.046875 L539.84375,284.765625 Z" fill="#cee3f5" id="RS.BR" stroke="#6e6e6e" stroke-width="0.4"><desc><labelrank>9</labelrank><code_hasc>RS.BR</code_hasc><name>Branicevski</name><admin>Republic of Serbia</admin><type_en>District</type_en><region>Braničevski</region><woe_id>29389198</woe_id><longitude>21</longitude><woe_name>Branicevski</woe_name><fips>RO12</fips><woe_label>Branichevo, RS, Serbia</woe_label><latitude>44</latitude><iso_a2>RS</iso_a2><postal>BR</postal><type>Okrug</type><id>RS.BR</id></desc></path><path d="M92.96875,186.328125 L98.4375,190.234375 L103.90625,185.546875 L127.34375,191.796875 L144.53125,191.015625 L157.03125,187.109375 L160.9375,191.015625 L180.46875,191.015625 L191.40625,188.671875 L192.96875,183.203125 L206.25,185.546875 L226.5625,183.984375 L242.1875,191.796875 L253.125,201.953125 L255.46875,209.765625 L244.53125,219.140625 L250.0,226.953125 L221.875,233.984375 L216.40625,249.609375 L209.375,251.953125 L214.0625,256.640625 L210.9375,264.453125 L190.625,276.171875 L185.15625,277.734375 L182.03125,274.609375 L196.875,267.578125 L180.46875,266.796875 L160.9375,257.421875 L148.4375,255.078125 L144.53125,248.046875 L153.90625,229.296875 L139.84375,226.171875 L135.15625,230.078125 L119.53125,232.421875 L110.9375,229.296875 L105.46875,232.421875 L95.3125,225.390625 L91.40625,229.296875 L81.25,228.515625 L86.71875,233.203125 L78.90625,230.078125 L60.15625,230.859375 L57.8125,227.734375 L40.625,235.546875 L28.90625,237.890625 L25.0,229.296875 L29.6875,227.734375 L37.5,230.859375 L48.4375,223.046875 L46.09375,219.140625 L40.625,219.140625 L39.84375,201.171875 L33.59375,191.796875 L49.21875,190.234375 L46.875,182.421875 L52.34375,182.421875 L60.9375,187.890625 L71.875,187.109375 L75.0,184.765625 L77.34375,187.109375 L92.96875,186.328125 Z" fill="#cee3f5" id="RS.SM" stroke="#6e6e6e" stroke-width="0.4"><desc><labelrank>9</labelrank><code_hasc>RS.SM</code_hasc><name>Sremski</name><admin>Republic of Serbia</admin><type_en>District</type_en><region /><woe_id>29389205</woe_id><longitude>19</longitude><woe_name>Sremski</woe_name><fips>HR18</fips><woe_label>Srem, RS, Serbia</woe_label><latitude>45</latitude><iso_a2>RS</iso_a2><postal>SM</postal><type>Okrug</type><id>RS.SM</id></desc></path><path d="M300.78125,408.203125 L289.84375,415.234375 L290.625,418.359375 L283.59375,423.046875 L284.375,427.734375 L270.3125,431.640625 L273.4375,444.140625 L267.96875,443.359375 L256.25,446.484375 L257.8125,455.859375 L246.875,462.890625 L263.28125,476.953125 L264.84375,497.265625 L252.34375,505.078125 L250.78125,509.765625 L240.625,502.734375 L235.9375,499.609375 L216.40625,503.515625 L212.5,501.171875 L195.3125,472.265625 L181.25,466.796875 L177.34375,462.890625 L179.6875,455.859375 L186.71875,459.765625 L190.625,458.984375 L201.5625,451.171875 L209.375,451.171875 L209.375,444.921875 L221.875,446.484375 L225.0,442.578125 L221.09375,439.453125 L223.4375,431.640625 L216.40625,428.515625 L217.1875,419.921875 L210.15625,411.328125 L214.0625,405.859375 L221.875,405.078125 L210.15625,399.609375 L212.5,394.921875 L204.6875,387.890625 L207.8125,383.203125 L204.6875,380.078125 L206.25,369.921875 L216.40625,372.265625 L216.40625,368.359375 L225.0,365.234375 L243.75,363.671875 L253.125,355.859375 L258.59375,355.078125 L267.1875,343.359375 L273.4375,358.203125 L282.03125,361.328125 L286.71875,371.484375 L303.125,380.859375 L300.0,383.984375 L296.09375,382.421875 L290.625,390.234375 L284.375,393.359375 L300.78125,408.203125 Z" fill="#cee3f5" id="RS.MR" stroke="#6e6e6e" stroke-width="0.4"><desc><labelrank>9</labelrank><code_hasc>RS.MR</code_hasc><name>Moravicki</name><admin>Republic of Serbia</admin><type_en>District</type_en><region>Moravički</region><woe_id>29389210</woe_id><longitude>20</longitude><woe_name>Moravicki</woe_name><fips>RB00</fips><woe_label>Moravica, RS, Serbia</woe_label><latitude>43</latitude><iso_a2>RS</iso_a2><postal>MR</postal><type>Okrug</type><id>RS.MR</id></desc></path><path d="M590.625,488.671875 L588.28125,498.828125 L577.34375,499.609375 L567.96875,496.484375 L557.03125,496.484375 L561.71875,508.203125 L556.25,512.890625 L553.125,519.140625 L572.65625,528.515625 L578.90625,528.515625 L583.59375,534.765625 L573.4375,541.015625 L569.53125,544.140625 L560.15625,543.359375 L538.28125,529.296875 L532.03125,527.734375 L523.4375,530.859375 L517.96875,526.171875 L509.375,530.078125 L500.78125,530.078125 L492.96875,519.921875 L496.09375,516.796875 L494.53125,512.109375 L484.375,510.546875 L482.03125,518.359375 L470.3125,514.453125 L467.96875,511.328125 L470.3125,508.203125 L462.5,501.171875 L464.84375,494.921875 L447.65625,494.921875 L443.75,491.015625 L460.15625,483.203125 L456.25,475.390625 L460.15625,466.796875 L451.5625,455.859375 L446.09375,454.296875 L450.0,447.265625 L446.09375,446.484375 L444.53125,437.890625 L450.78125,435.546875 L443.75,426.953125 L457.8125,419.921875 L474.21875,417.578125 L483.59375,425.390625 L478.90625,428.515625 L482.8125,432.421875 L480.46875,434.765625 L481.25,441.015625 L492.1875,454.296875 L510.9375,457.421875 L518.75,466.796875 L531.25,465.234375 L525.78125,460.546875 L528.90625,456.640625 L538.28125,463.671875 L541.40625,470.703125 L548.4375,470.703125 L561.71875,475.390625 L569.53125,474.609375 L579.6875,479.296875 L585.15625,476.171875 L592.96875,480.078125 L590.625,488.671875 Z" fill="#cee3f5" id="RS.NS" stroke="#6e6e6e" stroke-width="0.4"><desc><labelrank>9</labelrank><code_hasc>RS.NS</code_hasc><name>Nišavski</name><admin>Republic of Serbia</admin><type_en>District</type_en><region /><woe_id>29389223</woe_id><longitude>21</longitude><woe_name>Nišavski</woe_name><fips>RB00</fips><woe_label>Nishava, RS, Serbia</woe_label><latitude>43</latitude><iso_a2>RS</iso_a2><postal>NS</postal><type>Okrug</type><id>RS.NS</id></desc></path><path d="M387.5,336.328125 L392.96875,341.015625 L389.84375,343.359375 L390.625,348.828125 L387.5,348.828125 L390.625,351.171875 L388.28125,353.515625 L364.0625,347.265625 L360.15625,341.015625 L348.4375,343.359375 L333.59375,341.015625 L334.375,335.546875 L325.78125,333.984375 L325.0,329.296875 L328.90625,325.390625 L323.4375,324.609375 L318.75,319.140625 L324.21875,313.671875 L333.59375,314.453125 L337.5,310.546875 L320.3125,294.140625 L332.03125,289.453125 L325.78125,280.078125 L329.6875,272.265625 L344.53125,270.703125 L362.5,262.890625 L371.09375,262.109375 L374.21875,266.796875 L373.4375,269.921875 L378.125,273.828125 L375.78125,275.390625 L378.90625,283.203125 L384.375,283.203125 L388.28125,289.453125 L385.15625,295.703125 L391.40625,298.828125 L390.625,302.734375 L393.75,303.515625 L390.625,303.515625 L389.84375,307.421875 L393.75,310.546875 L386.71875,312.109375 L383.59375,320.703125 L389.0625,330.859375 L385.15625,331.640625 L387.5,336.328125 Z" fill="#cee3f5" id="RS.PD" stroke="#6e6e6e" stroke-width="0.4"><desc><labelrank>9</labelrank><code_hasc>RS.PD</code_hasc><name>Podunavski</name><admin>Republic of Serbia</admin><type_en>District</type_en><region /><woe_id>29389211</woe_id><longitude>20</longitude><woe_name>Podunavski</woe_name><fips>RB00</fips><woe_label>Podunavlje, RS, Serbia</woe_label><latitude>44</latitude><iso_a2>RS</iso_a2><postal>PD</postal><type>Okrug</type><id>RS.PD</id></desc></path><path d="M503.125,373.046875 L495.3125,385.546875 L496.09375,388.671875 L487.5,397.265625 L487.5,400.390625 L478.125,403.515625 L481.25,410.546875 L474.21875,417.578125 L457.8125,419.921875 L443.75,426.953125 L429.6875,430.859375 L428.125,423.046875 L410.15625,423.828125 L411.71875,413.671875 L408.59375,411.328125 L404.6875,423.828125 L394.53125,428.515625 L388.28125,426.953125 L389.84375,437.109375 L380.46875,433.203125 L357.03125,430.078125 L351.5625,426.171875 L349.21875,416.796875 L353.90625,417.578125 L367.1875,408.984375 L364.84375,402.734375 L371.875,400.390625 L371.875,396.484375 L375.0,394.140625 L371.875,388.671875 L379.6875,385.546875 L382.03125,380.859375 L373.4375,376.171875 L387.5,369.140625 L385.15625,363.671875 L388.28125,353.515625 L390.625,351.171875 L387.5,348.828125 L390.625,348.828125 L389.84375,343.359375 L392.96875,341.015625 L387.5,336.328125 L396.875,337.109375 L403.125,342.578125 L409.375,344.140625 L414.0625,337.890625 L426.5625,348.046875 L425.78125,353.515625 L438.28125,351.171875 L446.875,353.515625 L459.375,364.453125 L473.4375,365.234375 L482.03125,370.703125 L489.0625,369.140625 L503.125,373.046875 Z" fill="#cee3f5" id="RS.PM" stroke="#6e6e6e" stroke-width="0.4"><desc><labelrank>9</labelrank><code_hasc>RS.PM</code_hasc><name>Pomoravski</name><admin>Republic of Serbia</admin><type_en>District</type_en><region /><woe_id>29389221</woe_id><longitude>21</longitude><woe_name>Pomoravski</woe_name><fips>RB00</fips><woe_label>Pomoravlje, RS, Serbia</woe_label><latitude>43</latitude><iso_a2>RS</iso_a2><postal>PM</postal><type>Okrug</type><id>RS.PM</id></desc></path><path d="M443.75,426.953125 L450.78125,435.546875 L444.53125,437.890625 L446.09375,446.484375 L450.0,447.265625 L446.09375,454.296875 L451.5625,455.859375 L460.15625,466.796875 L456.25,475.390625 L460.15625,483.203125 L443.75,491.015625 L421.875,487.890625 L400.78125,494.140625 L389.84375,508.203125 L382.8125,512.890625 L359.375,511.328125 L355.46875,516.796875 L357.03125,523.828125 L350.0,530.078125 L337.5,524.609375 L337.5,517.578125 L341.40625,516.796875 L332.03125,509.765625 L331.25,503.515625 L337.5,497.265625 L335.9375,488.671875 L328.90625,488.671875 L324.21875,485.546875 L328.125,476.171875 L324.21875,467.578125 L335.9375,466.015625 L343.75,469.921875 L355.46875,468.359375 L348.4375,456.640625 L356.25,449.609375 L350.0,445.703125 L343.75,444.921875 L350.78125,439.453125 L350.78125,430.859375 L357.03125,430.078125 L380.46875,433.203125 L389.84375,437.109375 L388.28125,426.953125 L394.53125,428.515625 L404.6875,423.828125 L408.59375,411.328125 L411.71875,413.671875 L410.15625,423.828125 L428.125,423.046875 L429.6875,430.859375 L443.75,426.953125 Z" fill="#cee3f5" id="RS.RN" stroke="#6e6e6e" stroke-width="0.4"><desc><labelrank>9</labelrank><code_hasc>RS.RN</code_hasc><name>Pomoravski</name><admin>Republic of Serbia</admin><type_en>District</type_en><region>Rasinski</region><woe_id>29389199</woe_id><longitude>21</longitude><woe_name>Pomoravski</woe_name><fips>RB00</fips><woe_label>Rasina, RS, Serbia</woe_label><latitude>43</latitude><iso_a2>RS</iso_a2><postal>RN</postal><type>Okrug</type><id>RS.RN</id></desc></path><path d="M349.21875,416.796875 L351.5625,426.171875 L357.03125,430.078125 L350.78125,430.859375 L350.78125,439.453125 L343.75,444.921875 L350.0,445.703125 L356.25,449.609375 L348.4375,456.640625 L355.46875,468.359375 L343.75,469.921875 L335.9375,466.015625 L324.21875,467.578125 L328.125,476.171875 L324.21875,485.546875 L328.90625,488.671875 L335.9375,488.671875 L337.5,497.265625 L331.25,503.515625 L332.03125,509.765625 L325.78125,509.765625 L308.59375,518.359375 L297.65625,519.921875 L300.0,530.859375 L308.59375,534.765625 L307.8125,539.453125 L296.09375,552.734375 L290.625,551.953125 L285.15625,558.203125 L275.78125,558.984375 L273.4375,562.109375 L271.875,566.796875 L279.6875,574.609375 L275.78125,577.734375 L253.90625,583.203125 L255.46875,572.265625 L252.34375,569.140625 L228.125,558.984375 L214.84375,557.421875 L204.6875,549.609375 L210.9375,540.234375 L219.53125,537.109375 L223.4375,530.078125 L242.96875,526.953125 L229.6875,516.796875 L235.15625,512.890625 L240.625,502.734375 L250.78125,509.765625 L252.34375,505.078125 L264.84375,497.265625 L263.28125,476.953125 L246.875,462.890625 L257.8125,455.859375 L256.25,446.484375 L267.96875,443.359375 L273.4375,444.140625 L270.3125,431.640625 L284.375,427.734375 L283.59375,423.046875 L290.625,418.359375 L289.84375,415.234375 L300.78125,408.203125 L317.1875,422.265625 L325.78125,419.921875 L323.4375,415.234375 L328.90625,412.890625 L340.625,411.328125 L349.21875,416.796875 Z" fill="#cee3f5" id="RS.RS" stroke="#6e6e6e" stroke-width="0.4"><desc><labelrank>9</labelrank><code_hasc>RS.RS</code_hasc><name>Raški</name><admin>Republic of Serbia</admin><type_en>District</type_en><region /><woe_id>29389224</woe_id><longitude>20</longitude><woe_name>Raški</woe_name><fips>RB00</fips><woe_label>Rashka, RS, Serbia</woe_label><latitude>43</latitude><iso_a2>RS</iso_a2><postal>RS</postal><type>Okrug</type><id>RS.RS</id></desc></path><path d="M443.75,491.015625 L447.65625,494.921875 L464.84375,494.921875 L462.5,501.171875 L470.3125,508.203125 L467.96875,511.328125 L470.3125,514.453125 L482.03125,518.359375 L484.375,510.546875 L494.53125,512.109375 L496.09375,516.796875 L492.96875,519.921875 L500.78125,530.078125 L502.34375,533.203125 L495.3125,537.109375 L480.46875,544.140625 L472.65625,544.140625 L466.40625,548.828125 L456.25,549.609375 L441.40625,557.421875 L444.53125,565.234375 L433.59375,580.078125 L432.03125,578.515625 L408.59375,573.046875 L403.90625,568.359375 L400.0,554.296875 L389.84375,555.078125 L382.8125,539.453125 L365.625,537.109375 L350.0,530.078125 L357.03125,523.828125 L355.46875,516.796875 L359.375,511.328125 L382.8125,512.890625 L389.84375,508.203125 L400.78125,494.140625 L421.875,487.890625 L443.75,491.015625 Z" fill="#cee3f5" id="RS.TO" stroke="#6e6e6e" stroke-width="0.4"><desc><labelrank>9</labelrank><code_hasc>RS.TO</code_hasc><name>Toplicki</name><admin>Republic of Serbia</admin><type_en>District</type_en><region>Toplički</region><woe_id>29389219</woe_id><longitude>21</longitude><woe_name>Toplicki</woe_name><fips>RB00</fips><woe_label>Toplica, RS, Serbia</woe_label><latitude>43</latitude><iso_a2>RS</iso_a2><postal>TO</postal><type>Okrug</type><id>RS.TO</id></desc></path><path d="M262.5,204.296875 L264.0625,211.328125 L278.90625,220.703125 L283.59375,227.734375 L294.53125,231.640625 L296.09375,239.453125 L303.125,241.015625 L302.34375,255.078125 L321.09375,269.921875 L329.6875,272.265625 L325.78125,280.078125 L332.03125,289.453125 L320.3125,294.140625 L337.5,310.546875 L333.59375,314.453125 L324.21875,313.671875 L318.75,319.140625 L323.4375,324.609375 L328.90625,325.390625 L325.0,329.296875 L325.78125,333.984375 L312.5,327.734375 L305.46875,330.078125 L298.4375,321.484375 L285.9375,323.828125 L286.71875,319.140625 L270.3125,313.671875 L262.5,318.359375 L268.75,323.828125 L260.9375,334.765625 L255.46875,335.546875 L249.21875,341.796875 L239.84375,343.359375 L227.34375,330.859375 L229.6875,326.953125 L228.125,323.046875 L233.59375,314.453125 L227.34375,293.359375 L217.1875,300.390625 L211.71875,295.703125 L203.125,298.828125 L193.75,295.703125 L190.625,288.671875 L190.625,276.171875 L210.9375,264.453125 L214.0625,256.640625 L209.375,251.953125 L216.40625,249.609375 L221.875,233.984375 L250.0,226.953125 L244.53125,219.140625 L255.46875,209.765625 L253.125,201.953125 L262.5,204.296875 Z" fill="#cee3f5" id="RS.BG" stroke="#6e6e6e" stroke-width="0.4"><desc><labelrank>9</labelrank><code_hasc>RS.BG</code_hasc><name>Grad Beograd</name><admin>Republic of Serbia</admin><type_en>City</type_en><region /><woe_id>29389217</woe_id><longitude>20</longitude><woe_name>Grad Beograd</woe_name><fips>RB02</fips><woe_label>Beograd, RS, Serbia</woe_label><latitude>44</latitude><iso_a2>RS</iso_a2><postal>BG</postal><type>Grad</type><id>RS.BG</id></desc></path><path d="M190.625,288.671875 L193.75,295.703125 L203.125,298.828125 L211.71875,295.703125 L217.1875,300.390625 L227.34375,293.359375 L233.59375,314.453125 L228.125,323.046875 L229.6875,326.953125 L227.34375,330.859375 L239.84375,343.359375 L249.21875,341.796875 L255.46875,335.546875 L260.9375,334.765625 L265.625,336.328125 L267.1875,343.359375 L258.59375,355.078125 L253.125,355.859375 L243.75,363.671875 L225.0,365.234375 L216.40625,368.359375 L216.40625,372.265625 L206.25,369.921875 L196.875,366.796875 L191.40625,371.484375 L187.5,371.484375 L180.46875,367.578125 L177.34375,362.890625 L171.875,362.890625 L166.40625,366.796875 L159.375,363.671875 L157.03125,365.234375 L163.28125,373.828125 L159.375,375.390625 L151.5625,366.796875 L130.46875,359.765625 L121.09375,348.828125 L98.4375,341.796875 L103.90625,332.421875 L109.375,330.078125 L102.34375,323.828125 L109.375,318.359375 L111.71875,313.671875 L108.59375,311.328125 L121.09375,308.984375 L128.125,312.890625 L140.625,310.546875 L154.6875,314.453125 L157.8125,318.359375 L167.1875,318.359375 L170.3125,316.015625 L166.40625,312.109375 L171.875,310.546875 L173.4375,302.734375 L171.09375,294.140625 L178.125,290.234375 L182.8125,291.015625 L190.625,288.671875 Z" fill="#cee3f5" id="RS.KB" stroke="#6e6e6e" stroke-width="0.4"><desc><labelrank>9</labelrank><code_hasc>RS.KB</code_hasc><name>Kolubarski</name><admin>Republic of Serbia</admin><type_en>District</type_en><region /><woe_id>29389220</woe_id><longitude>19</longitude><woe_name>Kolubarski</woe_name><fips>BK00</fips><woe_label>Kolubara, RS, Serbia</woe_label><latitude>44</latitude><iso_a2>RS</iso_a2><postal>KB</postal><type>Okrug</type><id>RS.KB</id></desc></path><path d="M190.625,276.171875 L190.625,288.671875 L182.8125,291.015625 L178.125,290.234375 L171.09375,294.140625 L173.4375,302.734375 L171.875,310.546875 L166.40625,312.109375 L170.3125,316.015625 L167.1875,318.359375 L157.8125,318.359375 L154.6875,314.453125 L140.625,310.546875 L128.125,312.890625 L121.09375,308.984375 L108.59375,311.328125 L111.71875,313.671875 L109.375,318.359375 L102.34375,323.828125 L109.375,330.078125 L103.90625,332.421875 L98.4375,341.796875 L121.09375,348.828125 L130.46875,359.765625 L128.90625,364.453125 L118.75,365.234375 L113.28125,369.140625 L104.6875,358.984375 L100.78125,360.546875 L87.5,351.953125 L81.25,339.453125 L53.125,334.765625 L44.53125,323.046875 L50.0,311.328125 L48.4375,296.484375 L56.25,293.359375 L57.8125,287.109375 L79.6875,263.671875 L89.84375,238.671875 L86.71875,233.203125 L81.25,228.515625 L91.40625,229.296875 L95.3125,225.390625 L105.46875,232.421875 L110.9375,229.296875 L119.53125,232.421875 L135.15625,230.078125 L139.84375,226.171875 L153.90625,229.296875 L144.53125,248.046875 L148.4375,255.078125 L160.9375,257.421875 L180.46875,266.796875 L196.875,267.578125 L182.03125,274.609375 L185.15625,277.734375 L190.625,276.171875 Z" fill="#cee3f5" id="RS.MA" stroke="#6e6e6e" stroke-width="0.4"><desc><labelrank>9</labelrank><code_hasc>RS.MA</code_hasc><name>Macvanski</name><admin>Republic of Serbia</admin><type_en>District</type_en><region>Mačvanski</region><woe_id>29389202</woe_id><longitude>19</longitude><woe_name>Macvanski</woe_name><fips>BK00</fips><woe_label>Machva, RS, Serbia</woe_label><latitude>44</latitude><iso_a2>RS</iso_a2><postal>MA</postal><type>Okrug</type><id>RS.MA</id></desc></path><path d="M325.78125,333.984375 L334.375,335.546875 L333.59375,341.015625 L348.4375,343.359375 L360.15625,341.015625 L364.0625,347.265625 L388.28125,353.515625 L385.15625,363.671875 L387.5,369.140625 L373.4375,376.171875 L382.03125,380.859375 L379.6875,385.546875 L371.875,388.671875 L375.0,394.140625 L371.875,396.484375 L371.875,400.390625 L364.84375,402.734375 L367.1875,408.984375 L353.90625,417.578125 L349.21875,416.796875 L340.625,411.328125 L328.90625,412.890625 L323.4375,415.234375 L325.78125,419.921875 L317.1875,422.265625 L300.78125,408.203125 L284.375,393.359375 L290.625,390.234375 L296.09375,382.421875 L300.0,383.984375 L303.125,380.859375 L286.71875,371.484375 L282.03125,361.328125 L273.4375,358.203125 L267.1875,343.359375 L265.625,336.328125 L260.9375,334.765625 L268.75,323.828125 L262.5,318.359375 L270.3125,313.671875 L286.71875,319.140625 L285.9375,323.828125 L298.4375,321.484375 L305.46875,330.078125 L312.5,327.734375 L325.78125,333.984375 Z" fill="#cee3f5" id="RS.SU" stroke="#6e6e6e" stroke-width="0.4"><desc><labelrank>9</labelrank><code_hasc>RS.SU</code_hasc><name>Šumadijski</name><admin>Republic of Serbia</admin><type_en>District</type_en><region /><woe_id>29389225</woe_id><longitude>20</longitude><woe_name>Šumadijski</woe_name><fips>RB00</fips><woe_label>Shumadija, RS, Serbia</woe_label><latitude>44</latitude><iso_a2>RS</iso_a2><postal>SU</postal><type>Okrug</type><id>RS.SU</id></desc></path><path d="M606.25,584.765625 L615.625,598.828125 L608.59375,607.421875 L605.46875,626.171875 L620.3125,634.765625 L624.21875,641.796875 L619.53125,654.296875 L613.28125,656.640625 L607.8125,665.234375 L602.34375,668.359375 L585.9375,669.140625 L580.46875,665.234375 L578.90625,660.546875 L550.0,670.703125 L538.28125,671.484375 L521.875,666.015625 L514.0625,670.703125 L503.125,671.484375 L478.90625,683.203125 L460.15625,680.859375 L451.5625,669.140625 L451.5625,665.234375 L468.75,657.421875 L469.53125,646.484375 L485.9375,629.296875 L489.0625,617.578125 L495.3125,612.890625 L490.625,608.203125 L497.65625,603.515625 L497.65625,598.828125 L503.125,592.578125 L528.125,589.453125 L532.8125,584.765625 L539.0625,587.109375 L551.5625,583.984375 L553.125,588.671875 L562.5,587.109375 L572.65625,594.921875 L582.03125,596.484375 L606.25,584.765625 Z" fill="#cee3f5" id="RS.PC" stroke="#6e6e6e" stroke-width="0.4"><desc><labelrank>9</labelrank><code_hasc>RS.PC</code_hasc><name>Pcinjski</name><admin>Republic of Serbia</admin><type_en>District</type_en><region>Pčinjski</region><woe_id>29389215</woe_id><longitude>22</longitude><woe_name>Pcinjski</woe_name><fips>MK59</fips><woe_label>Pchinja, RS, Serbia</woe_label><latitude>42</latitude><iso_a2>RS</iso_a2><postal>PC</postal><type>Okrug</type><id>RS.PC</id></desc></path><path d="M573.4375,541.015625 L577.34375,544.140625 L567.96875,551.171875 L600.0,561.328125 L600.78125,563.671875 L594.53125,565.234375 L607.03125,573.046875 L625.78125,575.390625 L619.53125,575.390625 L606.25,584.765625 L582.03125,596.484375 L572.65625,594.921875 L562.5,587.109375 L553.125,588.671875 L551.5625,583.984375 L539.0625,587.109375 L532.8125,584.765625 L528.125,589.453125 L503.125,592.578125 L497.65625,598.828125 L497.65625,603.515625 L490.625,608.203125 L481.25,606.640625 L471.09375,608.984375 L460.15625,601.171875 L430.46875,598.046875 L433.59375,580.078125 L444.53125,565.234375 L441.40625,557.421875 L456.25,549.609375 L466.40625,548.828125 L472.65625,544.140625 L480.46875,544.140625 L495.3125,537.109375 L502.34375,533.203125 L500.78125,530.078125 L509.375,530.078125 L517.96875,526.171875 L523.4375,530.859375 L532.03125,527.734375 L538.28125,529.296875 L560.15625,543.359375 L569.53125,544.140625 L573.4375,541.015625 Z" fill="#cee3f5" id="RS.JA" stroke="#6e6e6e" stroke-width="0.4"><desc><labelrank>9</labelrank><code_hasc>RS.JA</code_hasc><name>Jablanicki</name><admin>Republic of Serbia</admin><type_en>District</type_en><region>Jablanički</region><woe_id>29389208</woe_id><longitude>21</longitude><woe_name>Jablanicki</woe_name><fips>MK97</fips><woe_label>Jablanica, RS, Serbia</woe_label><latitude>42</latitude><iso_a2>RS</iso_a2><postal>JA</postal><type>Okrug</type><id>RS.JA</id></desc></path><path d="M612.5,381.640625 L601.5625,385.546875 L592.96875,416.796875 L599.21875,425.390625 L602.34375,437.109375 L612.5,444.140625 L614.84375,458.984375 L621.875,473.046875 L634.375,480.859375 L641.40625,481.640625 L645.3125,485.546875 L632.03125,494.921875 L631.25,498.828125 L622.65625,497.265625 L616.40625,491.796875 L609.375,494.921875 L590.625,488.671875 L592.96875,480.078125 L585.15625,476.171875 L579.6875,479.296875 L569.53125,474.609375 L561.71875,475.390625 L548.4375,470.703125 L541.40625,470.703125 L538.28125,463.671875 L528.90625,456.640625 L525.78125,460.546875 L531.25,465.234375 L518.75,466.796875 L510.9375,457.421875 L492.1875,454.296875 L481.25,441.015625 L480.46875,434.765625 L482.8125,432.421875 L478.90625,428.515625 L483.59375,425.390625 L474.21875,417.578125 L481.25,410.546875 L478.125,403.515625 L487.5,400.390625 L487.5,397.265625 L496.09375,388.671875 L495.3125,385.546875 L516.40625,386.328125 L524.21875,392.578125 L533.59375,394.921875 L539.0625,392.578125 L543.75,401.171875 L554.6875,405.859375 L560.9375,399.609375 L569.53125,383.984375 L574.21875,381.640625 L570.3125,367.578125 L566.40625,365.234375 L573.4375,355.859375 L580.46875,361.328125 L590.625,362.109375 L600.0,360.546875 L613.28125,366.015625 L615.625,369.921875 L609.375,375.390625 L612.5,381.640625 Z" fill="#cee3f5" id="RS.ZJ" stroke="#6e6e6e" stroke-width="0.4"><desc><labelrank>9</labelrank><code_hasc>RS.ZJ</code_hasc><name>Zajecarski</name><admin>Republic of Serbia</admin><type_en>District</type_en><region>Zaječarski</region><woe_id>29389213</woe_id><longitude>22</longitude><woe_name>Zajecarski</woe_name><fips>RB00</fips><woe_label>Zajechar, RS, Serbia</woe_label><latitude>43</latitude><iso_a2>RS</iso_a2><postal>ZJ</postal><type>Okrug</type><id>RS.ZJ</id></desc></path></svg>