<?xml version='1.0' encoding='utf-8'?>
<svg height="700" width="700" xmlns="http://www.w3.org/2000/svg"><path d="M564.912280702,565.634674923 L564.189886481,568.524251806 L561.300309598,567.079463364 L564.912280702,565.634674923 M535.294117647,544.685242518 L532.404540764,544.685242518 L533.126934985,543.240454076 L535.294117647,544.685242518 M456.553147575,538.906088751 L458.720330237,541.073271414 L455.108359133,540.350877193 L456.553147575,538.906088751 M471.723426213,525.180598555 L471.001031992,526.625386997 L469.55624355,525.180598555 L471.723426213,525.180598555 M111.24871001,472.445820433 L109.081527348,471.723426213 L111.971104231,470.278637771 L111.24871001,472.445820433 M119.91744066,466.666666667 L117.027863777,465.944272446 L119.91744066,464.499484004 L119.91744066,466.666666667 M468.833849329,445.717234262 L466.666666667,446.439628483 L468.111455108,442.105263158 L468.833849329,445.717234262 M130.030959752,444.27244582 L127.141382869,443.5500516 L129.308565531,441.382868937 L130.030959752,444.27244582 M301.238390093,158.926728586 L302.683178535,159.649122807 L299.07120743,162.53869969 L301.238390093,158.926728586 Z" fill="#cee3f5" id="PG.4773" stroke="#6e6e6e" stroke-width="0.4"><desc><labelrank>20</labelrank><code_hasc>-99</code_hasc><name /><admin>Papua New Guinea</admin><type_en /><region /><woe_id>-99</woe_id><longitude>152</longitude><woe_name /><fips /><woe_label /><latitude>-4</latitude><iso_a2>PG</iso_a2><postal /><type /><id>PG.4773</id></desc></path><path d="M157.481940144,292.569659443 L155.314757482,296.904024768 L148.090815273,300.515995872 L150.980392157,307.73993808 L150.257997936,312.796697626 L135.087719298,320.743034056 L136.53250774,324.35500516 L122.084623323,325.077399381 L111.24871001,316.408668731 L94.6336429309,310.629514964 L89.5768833849,304.127966976 L88.8544891641,281.73374613 L99.6904024768,283.900928793 L144.478844169,279.566563467 L157.481940144,292.569659443 Z" fill="#cee3f5" id="PG.EG" stroke="#6e6e6e" stroke-width="0.4"><desc><labelrank>6</labelrank><code_hasc>PG.EG</code_hasc><name>Enga</name><admin>Papua New Guinea</admin><type_en>Province</type_en><region /><woe_id>2346599</woe_id><longitude>143</longitude><woe_name>Enga</woe_name><fips>PP19</fips><woe_label>Enga, PG, Papua New Guinea</woe_label><latitude>-5</latitude><iso_a2>PG</iso_a2><postal>EG</postal><type>Province</type><id>PG.EG</id></desc></path><path d="M172.652218782,234.055727554 L171.929824561,256.4499484 L166.873065015,265.118679051 L144.478844169,279.566563467 L99.6904024768,283.900928793 L85.9649122807,280.288957688 L85.2425180599,280.288957688 L84.520123839,279.566563467 L78.0185758514,280.288957688 L75.128998968,279.566563467 L68.6274509804,278.844169247 L67.1826625387,265.841073271 L62.1259029928,262.951496388 L23.8390092879,261.506707946 L23.1166150671,247.78121775 L41.1764705882,234.778121775 L44.0660474716,239.1124871 L77.2961816305,236.945304438 L82.3529411765,228.276573787 L80.9081527348,213.82868937 L83.0753353973,208.771929825 L88.1320949432,207.327141383 L101.857585139,212.383900929 L103.302373581,204.437564499 L123.529411765,208.049535604 L146.646026832,225.386996904 L153.86996904,225.386996904 L151.702786378,226.109391125 L156.759545924,228.276573787 L160.371517028,225.386996904 L169.762641899,226.109391125 L172.652218782,234.055727554 Z" fill="#cee3f5" id="PG.ES" stroke="#6e6e6e" stroke-width="0.4"><desc><labelrank>6</labelrank><code_hasc>PG.ES</code_hasc><name>East Sepik</name><admin>Papua New Guinea</admin><type_en>Province</type_en><region /><woe_id>2346591</woe_id><longitude>143</longitude><woe_name>East Sepik</woe_name><fips>PP11</fips><woe_label>East Sepik, PG, Papua New Guinea</woe_label><latitude>-4</latitude><iso_a2>PG</iso_a2><postal>ES</postal><type>Province</type><id>PG.ES</id></desc></path><path d="M295.459236326,300.515995872 L289.680082559,300.515995872 L285.345717234,296.181630547 L285.345717234,291.847265222 L291.124871001,289.680082559 L294.736842105,292.569659443 L295.459236326,300.515995872 M250.670794634,272.342621259 L247.78121775,272.342621259 L249.226006192,270.897832817 L250.670794634,272.342621259 M236.945304438,269.453044376 L232.610939112,265.118679051 L237.667698658,258.617131063 L241.279669763,265.118679051 L236.945304438,269.453044376 M196.49122807,236.945304438 L197.213622291,239.834881321 L194.324045408,239.834881321 L193.601651187,236.945304438 L196.49122807,236.945304438 M275.232198142,318.575851393 L260.784313725,327.244582043 L232.610939112,326.522187822 L230.44375645,325.077399381 L220.330237358,322.910216718 L219.607843137,322.910216718 L218.163054696,323.632610939 L215.995872033,325.077399381 L215.273477812,325.077399381 L213.10629515,325.077399381 L212.383900929,324.35500516 L211.661506708,323.632610939 L209.494324045,320.743034056 L208.771929825,320.743034056 L200.103199174,321.465428277 L194.324045408,317.131062951 L190.712074303,312.074303406 L187.100103199,309.907120743 L186.377708978,308.462332301 L185.655314757,307.01754386 L185.655314757,306.295149639 L184.932920537,306.295149639 L184.932920537,305.572755418 L184.210526316,305.572755418 L180.598555212,304.127966976 L177.708978328,300.515995872 L169.040247678,294.736842105 L157.481940144,292.569659443 L144.478844169,279.566563467 L166.873065015,265.118679051 L171.929824561,256.4499484 L172.652218782,234.055727554 L186.377708978,239.1124871 L185.655314757,242.002063983 L195.768833849,250.670794634 L208.049535604,252.115583075 L228.998968008,272.342621259 L227.554179567,302.683178535 L233.333333333,304.127966976 L236.945304438,301.960784314 L260.061919505,308.462332301 L275.232198142,318.575851393 Z" fill="#cee3f5" id="PG.MD" stroke="#6e6e6e" stroke-width="0.4"><desc><labelrank>7</labelrank><code_hasc>PG.MD</code_hasc><name>Madang</name><admin>Papua New Guinea</admin><type_en>Province</type_en><region /><woe_id>2346592</woe_id><longitude>145</longitude><woe_name>Madang</woe_name><fips>PP12</fips><woe_label>Madang, PG, Papua New Guinea</woe_label><latitude>-5</latitude><iso_a2>PG</iso_a2><postal>MD</postal><type>Province</type><id>PG.MD</id></desc></path><path d="M103.302373581,204.437564499 L101.857585139,212.383900929 L88.1320949432,207.327141383 L83.0753353973,208.771929825 L80.9081527348,213.82868937 L82.3529411765,228.276573787 L77.2961816305,236.945304438 L44.0660474716,239.1124871 L41.1764705882,234.778121775 L23.1166150671,247.78121775 L23.8390092879,261.506707946 L62.1259029928,262.951496388 L67.1826625387,265.841073271 L68.6274509804,278.844169247 L68.6274509804,283.900928793 L70.0722394221,288.235294118 L69.3498452012,289.680082559 L67.1826625387,296.904024768 L62.8482972136,299.793601651 L7.22394220846,280.288957688 L5.77915376677,280.288957688 L5.77915376677,169.762641899 L19.5046439628,171.207430341 L47.6780185759,186.377708978 L53.4571723426,186.377708978 L56.346749226,190.712074303 L103.302373581,204.437564499 Z" fill="#cee3f5" id="PG.SA" stroke="#6e6e6e" stroke-width="0.4"><desc><labelrank>6</labelrank><code_hasc>PG.SA</code_hasc><name>Sandaun</name><admin>Papua New Guinea</admin><type_en>Province</type_en><region /><woe_id>2346598</woe_id><longitude>141</longitude><woe_name>Sandaun</woe_name><fips>PP18</fips><woe_label>Sandaun, PG, Papua New Guinea</woe_label><latitude>-3</latitude><iso_a2>PG</iso_a2><postal>SA</postal><type>Province</type><id>PG.SA</id></desc></path><path d="M194.324045408,317.131062951 L200.103199174,321.465428277 L199.380804954,330.134158927 L203.715170279,334.468524252 L204.437564499,340.970072239 L200.103199174,346.026831785 L194.324045408,346.026831785 L191.434468524,348.916408669 L201.547987616,358.30753354 L206.604747162,359.029927761 L205.882352941,367.698658411 L188.544891641,361.197110423 L179.15376677,361.197110423 L166.873065015,353.250773994 L166.873065015,349.63880289 L170.48503612,347.471620227 L171.207430341,343.859649123 L174.097007224,345.304437564 L178.431372549,338.802889577 L179.876160991,333.02373581 L179.15376677,327.966976264 L183.488132095,324.35500516 L182.765737874,317.131062951 L194.324045408,317.131062951 Z" fill="#cee3f5" id="PG.CH" stroke="#6e6e6e" stroke-width="0.4"><desc><labelrank>6</labelrank><code_hasc>PG.CH</code_hasc><name>Chimbu</name><admin>Papua New Guinea</admin><type_en>Province</type_en><region /><woe_id>2346588</woe_id><longitude>144</longitude><woe_name>Chimbu</woe_name><fips>PP08</fips><woe_label>Chimbu, PG, Papua New Guinea</woe_label><latitude>-6</latitude><iso_a2>PG</iso_a2><postal>CH</postal><type>Province</type><id>PG.CH</id></desc></path><path d="M231.166150671,384.31372549 L205.882352941,367.698658411 L206.604747162,359.029927761 L201.547987616,358.30753354 L191.434468524,348.916408669 L194.324045408,346.026831785 L200.103199174,346.026831785 L204.437564499,340.970072239 L203.715170279,334.468524252 L199.380804954,330.134158927 L200.103199174,321.465428277 L208.771929825,320.743034056 L209.494324045,320.743034056 L211.661506708,323.632610939 L212.383900929,324.35500516 L213.10629515,325.077399381 L215.273477812,325.077399381 L215.995872033,325.077399381 L216.718266254,325.077399381 L219.607843137,322.910216718 L221.052631579,323.632610939 L223.219814241,325.077399381 L230.44375645,325.077399381 L235.500515996,330.856553148 L236.945304438,330.856553148 L236.945304438,332.301341589 L243.446852425,335.913312693 L244.169246646,336.635706914 L244.169246646,337.358101135 L244.169246646,338.802889577 L240.557275542,358.30753354 L238.390092879,361.197110423 L239.1124871,367.698658411 L231.166150671,384.31372549 Z" fill="#cee3f5" id="PG.EH" stroke="#6e6e6e" stroke-width="0.4"><desc><labelrank>6</labelrank><code_hasc>PG.EH</code_hasc><name>Eastern Highlands</name><admin>Papua New Guinea</admin><type_en>Province</type_en><region /><woe_id>2346589</woe_id><longitude>145</longitude><woe_name>Eastern Highlands</woe_name><fips>PP09</fips><woe_label>Eastern Highlands, PG, Papua New Guinea</woe_label><latitude>-6</latitude><iso_a2>PG</iso_a2><postal>EH</postal><type>Province</type><id>PG.EH</id></desc></path><path d="M205.882352941,367.698658411 L231.166150671,384.31372549 L242.724458204,398.039215686 L257.894736842,402.373581011 L267.285861713,408.875128999 L263.673890609,411.764705882 L257.172342621,416.821465428 L256.4499484,446.439628483 L249.226006192,431.991744066 L244.169246646,429.102167183 L243.446852425,423.323013416 L228.998968008,419.711042312 L228.998968008,415.376676987 L225.386996904,417.543859649 L212.383900929,416.821465428 L200.825593395,410.319917441 L186.377708978,409.59752322 L185.655314757,399.484004128 L184.210526316,405.263157895 L176.264189886,399.484004128 L176.264189886,402.373581011 L174.097007224,403.818369453 L169.762641899,396.594427245 L169.762641899,404.540763674 L164.705882353,397.316821465 L169.762641899,410.319917441 L164.705882353,406.707946336 L163.261093911,407.430340557 L160.371517028,401.651186791 L161.093911249,405.263157895 L158.204334365,402.373581011 L156.759545924,403.818369453 L158.926728586,408.875128999 L156.037151703,410.319917441 L138.699690402,403.818369453 L135.087719298,396.594427245 L129.308565531,393.704850361 L134.365325077,397.316821465 L143.034055728,418.988648091 L99.6904024768,374.922600619 L99.6904024768,365.531475748 L131.475748194,365.531475748 L179.15376677,361.197110423 L188.544891641,361.197110423 L205.882352941,367.698658411 Z" fill="#cee3f5" id="PG.GU" stroke="#6e6e6e" stroke-width="0.4"><desc><labelrank>6</labelrank><code_hasc>PG.GU</code_hasc><name>Gulf</name><admin>Papua New Guinea</admin><type_en>Province</type_en><region /><woe_id>2346582</woe_id><longitude>144</longitude><woe_name /><fips>PP02</fips><woe_label /><latitude>-7</latitude><iso_a2>PG</iso_a2><postal>GU</postal><type>Province</type><id>PG.GU</id></desc></path><path d="M646.542827657,303.405572755 L650.154798762,306.295149639 L658.101135191,306.295149639 L665.325077399,320.743034056 L672.549019608,325.077399381 L676.160990712,333.02373581 L682.6625387,337.358101135 L684.829721362,335.190918473 L692.776057792,343.859649123 L700.0,359.752321981 L697.832817337,364.809081527 L697.832817337,360.474716202 L696.388028896,364.086687307 L693.498452012,363.364293086 L688.441692466,367.698658411 L679.772961816,365.531475748 L663.880288958,352.528379773 L666.04747162,348.194014448 L665.325077399,341.69246646 L655.211558308,336.635706914 L643.653250774,323.632610939 L641.486068111,316.408668731 L642.930856553,307.01754386 L644.375644995,306.295149639 L641.486068111,300.515995872 L646.542827657,303.405572755 M641.486068111,286.068111455 L642.930856553,291.847265222 L640.763673891,300.515995872 L638.596491228,301.960784314 L634.262125903,285.345717234 L637.874097007,281.011351909 L641.486068111,286.068111455 M617.647058824,255.72755418 L620.536635707,258.617131063 L619.814241486,261.506707946 L617.647058824,255.72755418 M642.930856553,208.771929825 L634.984520124,197.936016512 L637.874097007,198.658410733 L642.930856553,208.771929825 Z" fill="#cee3f5" id="PG.NS" stroke="#6e6e6e" stroke-width="0.4"><desc><labelrank>6</labelrank><code_hasc>PG.NS</code_hasc><name>North Solomons</name><admin>Papua New Guinea</admin><type_en>Province</type_en><region /><woe_id>2346587</woe_id><longitude>154</longitude><woe_name>North Solomons</woe_name><fips>PP07</fips><woe_label>North Solomons, PG, Papua New Guinea</woe_label><latitude>-5</latitude><iso_a2>PG</iso_a2><postal>NS</postal><type>Province</type><id>PG.NS</id></desc></path><path d="M88.8544891641,281.73374613 L89.5768833849,304.127966976 L94.6336429309,310.629514964 L111.24871001,316.408668731 L122.084623323,325.077399381 L136.53250774,324.35500516 L171.207430341,343.859649123 L170.48503612,347.471620227 L166.873065015,349.63880289 L166.873065015,353.250773994 L179.15376677,361.197110423 L131.475748194,365.531475748 L99.6904024768,365.531475748 L91.0216718266,365.531475748 L87.4097007224,365.531475748 L84.520123839,364.809081527 L83.7977296182,362.641898865 L83.7977296182,359.752321981 L83.0753353973,324.35500516 L62.8482972136,305.572755418 L61.4035087719,303.405572755 L61.4035087719,302.683178535 L62.8482972136,299.793601651 L64.2930856553,298.348813209 L67.1826625387,296.904024768 L69.3498452012,289.680082559 L70.0722394221,288.235294118 L68.6274509804,283.900928793 L68.6274509804,278.844169247 L75.128998968,279.566563467 L78.0185758514,280.288957688 L82.3529411765,280.288957688 L85.2425180599,280.288957688 L85.9649122807,280.288957688 L88.8544891641,281.73374613 Z" fill="#cee3f5" id="PG.SH" stroke="#6e6e6e" stroke-width="0.4"><desc><labelrank>6</labelrank><code_hasc>PG.SH</code_hasc><name>Southern Highlands</name><admin>Papua New Guinea</admin><type_en>Province</type_en><region /><woe_id>2346585</woe_id><longitude>143</longitude><woe_name>Southern Highlands</woe_name><fips>PP05</fips><woe_label>Southern Highlands, PG, Papua New Guinea</woe_label><latitude>-6</latitude><iso_a2>PG</iso_a2><postal>SH</postal><type>Province</type><id>PG.SH</id></desc></path><path d="M194.324045408,317.131062951 L182.765737874,317.131062951 L183.488132095,324.35500516 L179.15376677,327.966976264 L179.876160991,333.02373581 L178.431372549,338.802889577 L174.097007224,345.304437564 L171.207430341,343.859649123 L136.53250774,324.35500516 L135.087719298,320.743034056 L150.257997936,312.796697626 L150.980392157,307.73993808 L148.090815273,300.515995872 L155.314757482,296.904024768 L157.481940144,292.569659443 L169.040247678,294.736842105 L172.652218782,298.348813209 L176.264189886,299.793601651 L180.598555212,304.127966976 L181.320949432,304.850361197 L184.210526316,305.572755418 L184.932920537,305.572755418 L184.932920537,306.295149639 L185.655314757,307.01754386 L186.377708978,308.462332301 L187.100103199,309.907120743 L194.324045408,317.131062951 Z" fill="#cee3f5" id="PG.WH" stroke="#6e6e6e" stroke-width="0.4"><desc><labelrank>6</labelrank><code_hasc>PG.WH</code_hasc><name>Western Highlands</name><admin>Papua New Guinea</admin><type_en>Province</type_en><region /><woe_id>2346596</woe_id><longitude>144</longitude><woe_name>Western Highlands</woe_name><fips>PP16</fips><woe_label>Western Highlands, PG, Papua New Guinea</woe_label><latitude>-5</latitude><iso_a2>PG</iso_a2><postal>WH</postal><type>Province</type><id>PG.WH</id></desc></path><path d="M129.308565531,452.941176471 L107.636738906,439.215686275 L121.362229102,444.27244582 L129.308565531,450.051599587 L129.308565531,452.941176471 M116.305469556,436.326109391 L126.418988648,437.048503612 L127.86377709,441.382868937 L123.529411765,442.105263158 L114.138286894,437.048503612 L116.305469556,436.326109391 M130.753353973,439.215686275 L124.974200206,435.60371517 L129.308565531,435.60371517 L130.753353973,439.215686275 M5.77915376677,280.288957688 L7.22394220846,280.288957688 L62.8482972136,299.793601651 L61.4035087719,302.683178535 L61.4035087719,303.405572755 L62.8482972136,305.572755418 L83.0753353973,324.35500516 L83.7977296182,359.752321981 L83.7977296182,362.641898865 L84.520123839,364.809081527 L87.4097007224,365.531475748 L91.0216718266,365.531475748 L99.6904024768,365.531475748 L99.6904024768,374.922600619 L143.034055728,418.988648091 L143.034055728,418.988648091 L142.311661507,418.988648091 L140.144478844,416.821465428 L136.53250774,416.821465428 L141.589267286,419.711042312 L135.087719298,421.155830753 L130.030959752,418.988648091 L122.084623323,418.988648091 L116.305469556,414.654282766 L125.696594427,421.878224974 L128.586171311,430.546955624 L98.9680082559,434.881320949 L85.9649122807,431.991744066 L72.9618163055,434.881320949 L70.7946336429,428.379772962 L67.9050567595,426.93498452 L59.9587203302,429.824561404 L69.3498452012,428.379772962 L74.4066047472,437.048503612 L86.6873065015,434.158926729 L104.024767802,441.382868937 L117.750257998,455.108359133 L117.027863777,465.944272446 L101.857585139,470.278637771 L83.7977296182,481.114551084 L62.8482972136,473.168214654 L35.3973168215,476.780185759 L23.1166150671,472.445820433 L13.7254901961,476.780185759 L5.77915376677,471.001031992 L5.77915376677,368.421052632 L0.0,359.752321981 L5.77915376677,342.414860681 L5.77915376677,280.288957688 Z" fill="#cee3f5" id="PG.WE" stroke="#6e6e6e" stroke-width="0.4"><desc><labelrank>6</labelrank><code_hasc>PG.WE</code_hasc><name>Western</name><admin>Papua New Guinea</admin><type_en>Province</type_en><region /><woe_id>2346586</woe_id><longitude>142</longitude><woe_name>Western</woe_name><fips>PP06</fips><woe_label>Western, PG, Papua New Guinea</woe_label><latitude>-7</latitude><iso_a2>PG</iso_a2><postal>WE</postal><type>Province</type><id>PG.WE</id></desc></path><path d="M284.623323013,419.711042312 L299.07120743,432.714138287 L312.074303406,442.827657379 L313.519091847,445.717234262 L308.462332301,454.385964912 L308.462332301,459.442724458 L319.298245614,473.168214654 L322.187822497,473.168214654 L328.689370485,480.392156863 L333.746130031,492.672858617 L346.026831785,501.341589267 L368.421052632,510.732714138 L376.367389061,509.287925697 L375.64499484,502.063983488 L380.701754386,502.063983488 L383.591331269,502.063983488 L387.203302374,503.50877193 L390.092879257,504.953560372 L390.815273478,505.675954592 L391.537667699,506.398348813 L392.26006192,508.565531476 L407.430340557,516.511867905 L408.875128999,528.070175439 L400.92879257,529.51496388 L394.427244582,525.180598555 L392.26006192,526.625386997 L382.146542828,523.013415893 L375.64499484,525.180598555 L365.531475748,523.013415893 L366.97626419,519.401444788 L363.364293086,517.234262126 L360.474716202,520.84623323 L349.63880289,521.568627451 L338.080495356,515.789473684 L330.134158927,520.123839009 L327.244582043,516.511867905 L324.35500516,516.511867905 L325.077399381,514.344685243 L317.853457172,516.511867905 L317.131062951,512.899896801 L311.351909185,510.010319917 L298.348813209,489.783281734 L297.626418989,485.448916409 L293.292053664,484.004127967 L287.512899897,486.17131063 L289.680082559,488.338493292 L287.512899897,487.616099071 L283.178534572,478.947368421 L280.288957688,478.2249742 L279.566563467,471.723426213 L283.900928793,467.389060888 L278.844169247,471.001031992 L266.563467492,465.944272446 L263.673890609,460.8875129 L266.563467492,456.553147575 L264.39628483,457.275541796 L256.4499484,446.439628483 L257.172342621,416.821465428 L263.673890609,411.764705882 L267.285861713,408.875128999 L271.620227038,411.764705882 L271.620227038,412.487100103 L272.342621259,416.099071207 L272.342621259,417.543859649 L273.06501548,417.543859649 L274.509803922,417.543859649 L275.232198142,418.26625387 L275.954592363,418.988648091 L276.676986584,418.988648091 L281.73374613,419.711042312 L283.178534572,419.711042312 L283.178534572,419.711042312 L284.623323013,419.711042312 Z" fill="#cee3f5" id="PG.CE" stroke="#6e6e6e" stroke-width="0.4"><desc><labelrank>6</labelrank><code_hasc>PG.CE</code_hasc><name>Central</name><admin>Papua New Guinea</admin><type_en>Province</type_en><region /><woe_id>2346581</woe_id><longitude>148</longitude><woe_name>Central</woe_name><fips>PP01</fips><woe_label>Central, PG, Papua New Guinea</woe_label><latitude>-9</latitude><iso_a2>PG</iso_a2><postal>CE</postal><type>Province</type><id>PG.CE</id></desc></path><path d="M459.442724458,333.02373581 L452.21878225,322.910216718 L451.496388029,317.853457172 L468.833849329,313.519091847 L469.55624355,308.462332301 L473.890608875,309.184726522 L479.669762642,304.850361197 L481.836945304,301.960784314 L477.502579979,300.515995872 L486.17131063,284.623323013 L491.228070175,281.73374613 L501.341589267,281.011351909 L499.896800826,278.121775026 L502.786377709,272.342621259 L498.452012384,256.4499484 L494.117647059,249.226006192 L494.84004128,242.724458204 L507.843137255,244.169246646 L515.067079463,249.948400413 L517.956656347,247.058823529 L516.511867905,243.446852425 L523.013415893,244.169246646 L525.180598555,241.279669763 L528.070175439,245.614035088 L524.458204334,244.169246646 L525.180598555,248.503611971 L535.294117647,249.948400413 L533.126934985,257.894736842 L535.294117647,265.841073271 L531.682146543,275.954592363 L527.347781218,279.566563467 L515.067079463,280.288957688 L515.067079463,287.512899897 L523.013415893,296.904024768 L520.84623323,301.960784314 L508.565531476,308.462332301 L503.50877193,304.850361197 L498.452012384,307.01754386 L491.950464396,305.572755418 L491.228070175,307.73993808 L494.84004128,311.351909185 L489.783281734,313.519091847 L486.89370485,319.298245614 L473.168214654,328.689370485 L464.499484004,329.411764706 L461.609907121,327.966976264 L459.442724458,333.02373581 M538.906088751,244.169246646 L536.738906089,242.002063983 L538.18369453,239.834881321 L538.906088751,244.169246646 Z" fill="#cee3f5" id="PG.EN" stroke="#6e6e6e" stroke-width="0.4"><desc><labelrank>6</labelrank><code_hasc>PG.EN</code_hasc><name>East New Britain</name><admin>Papua New Guinea</admin><type_en>Province</type_en><region /><woe_id>2346590</woe_id><longitude>151</longitude><woe_name>East New Britain</woe_name><fips>PP10</fips><woe_label>East New Britain, PG, Papua New Guinea</woe_label><latitude>-5</latitude><iso_a2>PG</iso_a2><postal>EN</postal><type>Province</type><id>PG.EN</id></desc></path><path d="M325.799793602,155.314757482 L322.910216718,157.481940144 L318.575851393,156.759545924 L322.187822497,152.425180599 L325.799793602,155.314757482 M279.566563467,139.422084623 L289.680082559,140.144478844 L291.847265222,142.311661507 L293.292053664,140.866873065 L304.127966976,143.756449948 L303.405572755,139.422084623 L305.572755418,143.756449948 L303.405572755,145.20123839 L298.348813209,144.478844169 L294.736842105,150.257997936 L282.456140351,150.980392157 L270.897832817,147.368421053 L272.342621259,150.257997936 L263.673890609,150.980392157 L262.951496388,148.090815273 L267.285861713,145.923632611 L265.118679051,141.589267286 L279.566563467,139.422084623 Z" fill="#cee3f5" id="PG.MN" stroke="#6e6e6e" stroke-width="0.4"><desc><labelrank>6</labelrank><code_hasc>PG.MN</code_hasc><name>Manus</name><admin>Papua New Guinea</admin><type_en>Province</type_en><region /><woe_id>2346593</woe_id><longitude>147</longitude><woe_name>Manus</woe_name><fips>PP13</fips><woe_label>Manus, PG, Papua New Guinea</woe_label><latitude>-2</latitude><iso_a2>PG</iso_a2><postal>MN</postal><type>Province</type><id>PG.MN</id></desc></path><path d="M575.025799794,575.025799794 L595.252837977,582.972136223 L598.864809082,586.584107327 L588.75128999,588.028895769 L584.416924665,584.416924665 L580.08255934,584.416924665 L580.80495356,581.527347781 L575.748194014,582.972136223 L577.915376677,580.08255934 L571.413828689,575.025799794 L572.13622291,573.581011352 L575.025799794,575.025799794 M619.814241486,572.858617131 L622.703818369,576.470588235 L621.259029928,577.915376677 L609.700722394,576.470588235 L609.700722394,574.303405573 L615.479876161,575.748194014 L613.312693498,572.858617131 L619.814241486,572.858617131 M574.303405573,569.969040248 L571.413828689,571.413828689 L567.801857585,567.079463364 L574.303405573,569.969040248 M541.795665635,541.073271414 L548.297213622,542.518059856 L552.631578947,541.073271414 L556.965944272,543.240454076 L550.464396285,544.685242518 L541.795665635,541.073271414 M471.723426213,540.350877193 L472.445820433,543.240454076 L467.389060888,541.795665635 L466.666666667,543.962848297 L467.389060888,540.350877193 L471.723426213,540.350877193 M461.609907121,537.46130031 L465.221878225,537.46130031 L464.499484004,542.518059856 L459.442724458,540.350877193 L463.777089783,541.073271414 L461.609907121,537.46130031 M472.445820433,509.287925697 L471.723426213,511.455108359 L476.057791538,514.344685243 L478.2249742,510.010319917 L483.281733746,508.565531476 L481.114551084,521.568627451 L468.111455108,517.234262126 L469.55624355,512.17750258 L467.389060888,510.010319917 L465.944272446,512.17750258 L463.054695562,504.953560372 L458.720330237,502.063983488 L459.442724458,498.452012384 L472.445820433,509.287925697 M403.095975232,493.395252838 L424.045407637,495.562435501 L426.212590299,497.729618163 L411.042311662,504.231166151 L421.155830753,515.067079463 L432.714138287,516.511867905 L441.382868937,521.568627451 L451.496388029,521.568627451 L452.941176471,525.180598555 L464.499484004,523.013415893 L454.385964912,528.070175439 L440.660474716,527.347781218 L440.660474716,530.959752322 L453.663570691,534.571723426 L455.830753354,538.18369453 L446.439628483,541.073271414 L443.5500516,543.962848297 L433.436532508,544.685242518 L431.991744066,541.795665635 L424.045407637,540.350877193 L424.045407637,538.18369453 L416.821465428,537.46130031 L427.657378741,533.849329205 L421.878224974,531.682146543 L420.433436533,534.571723426 L417.543859649,530.959752322 L408.875128999,528.070175439 L407.430340557,516.511867905 L392.26006192,508.565531476 L391.537667699,506.398348813 L390.815273478,505.675954592 L390.092879257,504.953560372 L387.203302374,503.50877193 L383.591331269,502.063983488 L380.701754386,502.063983488 L375.64499484,502.063983488 L375.64499484,500.619195046 L375.64499484,500.619195046 L375.64499484,499.896800826 L375.64499484,499.174406605 L376.367389061,499.174406605 L376.367389061,498.452012384 L377.089783282,497.729618163 L377.812177503,497.729618163 L378.534571723,497.729618163 L379.256965944,497.729618163 L382.146542828,498.452012384 L395.872033024,494.84004128 L398.039215686,494.117647059 L398.761609907,493.395252838 L403.095975232,493.395252838 M471.723426213,496.284829721 L468.111455108,493.395252838 L471.001031992,493.395252838 L471.723426213,496.284829721 M454.385964912,486.17131063 L460.8875129,485.448916409 L466.666666667,497.007223942 L463.054695562,499.174406605 L463.054695562,496.284829721 L443.5500516,494.84004128 L447.884416925,491.228070175 L443.5500516,482.559339525 L447.162022704,481.836945304 L454.385964912,486.17131063 M440.660474716,482.559339525 L440.660474716,488.338493292 L438.493292054,489.783281734 L431.991744066,486.17131063 L429.102167183,479.669762642 L433.436532508,475.335397317 L438.493292054,478.2249742 L440.660474716,482.559339525 M538.18369453,463.777089783 L540.350877193,465.944272446 L553.353973168,465.944272446 L559.855521156,469.55624355 L563.46749226,473.168214654 L559.133126935,474.613003096 L561.300309598,477.502579979 L554.076367389,477.502579979 L551.186790506,474.613003096 L550.464396285,478.2249742 L546.13003096,474.613003096 L549.742002064,473.168214654 L538.18369453,468.111455108 L537.46130031,464.499484004 L536.016511868,469.55624355 L534.571723426,465.221878225 L538.18369453,463.777089783 M476.057791538,439.215686275 L475.335397317,443.5500516 L476.780185759,447.162022704 L474.613003096,454.385964912 L476.780185759,457.997936017 L472.445820433,452.941176471 L476.057791538,446.439628483 L470.278637771,443.5500516 L476.057791538,439.215686275 Z" fill="#cee3f5" id="PG.MB" stroke="#6e6e6e" stroke-width="0.4"><desc><labelrank>6</labelrank><code_hasc>PG.MB</code_hasc><name>Milne Bay</name><admin>Papua New Guinea</admin><type_en>Province</type_en><region /><woe_id>2346583</woe_id><longitude>153</longitude><woe_name>Milne Bay</woe_name><fips>PP03</fips><woe_label>Milne Bay, PG, Papua New Guinea</woe_label><latitude>-11</latitude><iso_a2>PG</iso_a2><postal>MB</postal><type>Province</type><id>PG.MB</id></desc></path><path d="M232.610939112,326.522187822 L260.784313725,327.244582043 L275.232198142,318.575851393 L281.73374613,320.020639835 L290.40247678,325.799793602 L300.515995872,323.632610939 L306.295149639,325.799793602 L322.910216718,342.414860681 L324.35500516,359.029927761 L311.351909185,361.919504644 L288.957688338,359.752321981 L283.178534572,361.919504644 L282.456140351,367.698658411 L286.068111455,374.922600619 L288.235294118,374.200206398 L287.512899897,379.979360165 L291.124871001,382.868937049 L293.292053664,394.427244582 L307.73993808,401.651186791 L312.074303406,405.985552116 L312.796697626,411.042311662 L314.963880289,411.042311662 L314.241486068,408.875128999 L316.408668731,411.042311662 L318.575851393,416.821465428 L325.077399381,416.821465428 L330.134158927,419.711042312 L284.623323013,419.711042312 L283.178534572,419.711042312 L281.73374613,419.711042312 L281.011351909,419.711042312 L279.566563467,418.988648091 L275.954592363,418.988648091 L274.509803922,417.543859649 L273.06501548,417.543859649 L272.342621259,417.543859649 L272.342621259,413.209494324 L271.620227038,412.487100103 L271.620227038,411.764705882 L267.285861713,408.875128999 L257.894736842,402.373581011 L242.724458204,398.039215686 L231.166150671,384.31372549 L239.1124871,367.698658411 L238.390092879,361.197110423 L240.557275542,358.30753354 L244.169246646,338.802889577 L244.169246646,337.358101135 L244.169246646,336.635706914 L243.446852425,335.913312693 L236.945304438,332.301341589 L236.945304438,330.856553148 L232.610939112,326.522187822 M322.910216718,303.405572755 L334.468524252,309.907120743 L332.301341589,320.020639835 L325.799793602,316.408668731 L320.743034056,309.184726522 L320.743034056,304.127966976 L322.910216718,303.405572755 M338.080495356,301.238390093 L335.190918473,301.960784314 L334.468524252,299.07120743 L338.080495356,301.238390093 M314.963880289,295.459236326 L312.796697626,297.626418989 L310.629514964,294.736842105 L314.963880289,295.459236326 Z" fill="#cee3f5" id="PG.MR" stroke="#6e6e6e" stroke-width="0.4"><desc><labelrank>6</labelrank><code_hasc>PG.MR</code_hasc><name>Morobe</name><admin>Papua New Guinea</admin><type_en>Province</type_en><region /><woe_id>2346594</woe_id><longitude>146</longitude><woe_name>Morobe</woe_name><fips>PP14</fips><woe_label>Morobe, PG, Papua New Guinea</woe_label><latitude>-6</latitude><iso_a2>PG</iso_a2><postal>MR</postal><type>Province</type><id>PG.MR</id></desc></path><path d="M298.348813209,489.783281734 L292.569659443,489.783281734 L289.680082559,485.448916409 L289.680082559,488.338493292 L287.512899897,486.17131063 L293.292053664,484.004127967 L297.626418989,485.448916409 L298.348813209,489.783281734 Z" fill="#cee3f5" id="PG.1041" stroke="#6e6e6e" stroke-width="0.4"><desc><labelrank>6</labelrank><code_hasc>PG.CE</code_hasc><name>National Capital District</name><admin>Papua New Guinea</admin><type_en>Province</type_en><region /><woe_id>2346600</woe_id><longitude>147</longitude><woe_name>National Capital District</woe_name><fips /><woe_label>National Capital, PG, Papua New Guinea</woe_label><latitude>-9</latitude><iso_a2>PG</iso_a2><postal /><type>Province</type><id>PG.1041</id></desc></path><path d="M593.808049536,238.390092879 L591.640866873,240.557275542 L590.196078431,239.1124871 L592.363261094,235.500515996 L593.808049536,238.390092879 M546.852425181,197.936016512 L541.073271414,193.601651187 L543.240454076,189.989680083 L546.852425181,189.989680083 L546.852425181,197.936016512 M469.55624355,185.655314757 L471.001031992,186.377708978 L459.442724458,187.100103199 L464.499484004,183.488132095 L469.55624355,185.655314757 M518.679050568,187.82249742 L515.067079463,181.320949432 L519.401444788,184.210526316 L518.679050568,187.82249742 M516.511867905,179.15376677 L512.17750258,180.598555212 L512.17750258,174.097007224 L516.511867905,176.264189886 L516.511867905,179.15376677 M517.234262126,172.652218782 L514.344685243,171.929824561 L515.067079463,169.762641899 L517.234262126,172.652218782 M472.445820433,174.819401445 L480.392156863,182.043343653 L490.505675955,183.488132095 L507.843137255,196.49122807 L518.679050568,199.380804954 L536.016511868,218.163054696 L539.628482972,218.163054696 L543.240454076,226.109391125 L551.186790506,229.721362229 L554.79876161,228.276573787 L556.965944272,234.055727554 L560.577915377,234.055727554 L568.524251806,245.614035088 L569.246646027,252.115583075 L564.912280702,257.172342621 L566.357069143,262.229102167 L557.688338493,273.787409701 L548.297213622,260.061919505 L548.297213622,242.002063983 L529.51496388,214.551083591 L507.843137255,204.437564499 L498.452012384,195.768833849 L474.613003096,180.598555212 L457.997936017,176.264189886 L465.221878225,174.097007224 L460.8875129,170.48503612 L461.609907121,167.595459236 L472.445820433,174.819401445 M434.158926729,159.649122807 L444.27244582,163.983488132 L444.994840041,171.929824561 L431.991744066,173.374613003 L421.878224974,163.983488132 L434.158926729,159.649122807 M422.600619195,125.696594427 L424.767801858,126.418988648 L419.711042312,126.418988648 L422.600619195,125.696594427 M404.540763674,111.971104231 L411.042311662,115.583075335 L413.931888545,122.084623323 L408.152734778,122.084623323 L403.095975232,118.472652219 L404.540763674,111.971104231 Z" fill="#cee3f5" id="PG.NI" stroke="#6e6e6e" stroke-width="0.4"><desc><labelrank>6</labelrank><code_hasc>PG.NI</code_hasc><name>New Ireland</name><admin>Papua New Guinea</admin><type_en>Province</type_en><region /><woe_id>2346595</woe_id><longitude>150</longitude><woe_name>New Ireland</woe_name><fips>PP15</fips><woe_label>New Ireland, PG, Papua New Guinea</woe_label><latitude>-2</latitude><iso_a2>PG</iso_a2><postal>NI</postal><type>Province</type><id>PG.NI</id></desc></path><path d="M375.64499484,502.063983488 L376.367389061,509.287925697 L368.421052632,510.732714138 L346.026831785,501.341589267 L333.746130031,492.672858617 L328.689370485,480.392156863 L322.187822497,473.168214654 L319.298245614,473.168214654 L308.462332301,459.442724458 L308.462332301,454.385964912 L313.519091847,445.717234262 L312.074303406,442.827657379 L299.07120743,432.714138287 L284.623323013,419.711042312 L330.134158927,419.711042312 L338.080495356,421.878224974 L341.69246646,444.994840041 L351.805985552,450.773993808 L358.30753354,468.833849329 L366.253869969,471.001031992 L384.31372549,464.499484004 L392.26006192,466.666666667 L392.98245614,472.445820433 L390.092879257,474.613003096 L386.480908153,484.004127967 L387.925696594,488.338493292 L392.98245614,489.783281734 L398.039215686,492.672858617 L398.039215686,493.395252838 L398.761609907,493.395252838 L398.761609907,493.395252838 L398.039215686,494.117647059 L395.872033024,494.84004128 L382.146542828,498.452012384 L379.256965944,497.729618163 L378.534571723,497.729618163 L377.089783282,497.729618163 L376.367389061,498.452012384 L376.367389061,499.174406605 L375.64499484,499.174406605 L375.64499484,499.896800826 L375.64499484,500.619195046 L375.64499484,500.619195046 L375.64499484,502.063983488 Z" fill="#cee3f5" id="PG.NO" stroke="#6e6e6e" stroke-width="0.4"><desc><labelrank>6</labelrank><code_hasc>PG.NO</code_hasc><name>Northern</name><admin>Papua New Guinea</admin><type_en>Province</type_en><region /><woe_id>2346584</woe_id><longitude>148</longitude><woe_name>Northern</woe_name><fips>PP04</fips><woe_label>Northern, PG, Papua New Guinea</woe_label><latitude>-9</latitude><iso_a2>PG</iso_a2><postal>NO</postal><type>Province</type><id>PG.NO</id></desc></path><path d="M499.896800826,278.121775026 L501.341589267,281.011351909 L491.228070175,281.73374613 L486.17131063,284.623323013 L477.502579979,300.515995872 L481.836945304,301.960784314 L479.669762642,304.850361197 L473.890608875,309.184726522 L469.55624355,308.462332301 L468.833849329,313.519091847 L451.496388029,317.853457172 L452.21878225,322.910216718 L459.442724458,333.02373581 L443.5500516,340.247678019 L431.991744066,338.802889577 L428.379772962,340.970072239 L426.212590299,338.802889577 L424.045407637,341.69246646 L423.323013416,339.525283798 L406.707946336,340.970072239 L398.761609907,331.578947368 L392.26006192,329.411764706 L379.979360165,334.468524252 L379.979360165,327.244582043 L371.310629515,326.522187822 L372.033023736,324.35500516 L366.97626419,323.632610939 L366.253869969,320.743034056 L348.916408669,316.408668731 L346.749226006,312.074303406 L346.749226006,305.572755418 L351.083591331,301.238390093 L356.862745098,305.572755418 L361.197110423,302.683178535 L370.588235294,305.572755418 L376.367389061,301.960784314 L387.925696594,308.462332301 L400.92879257,307.73993808 L408.152734778,302.683178535 L410.319917441,307.01754386 L413.931888545,304.127966976 L417.543859649,304.850361197 L422.600619195,301.238390093 L419.711042312,296.904024768 L424.767801858,291.124871001 L425.490196078,282.456140351 L429.102167183,281.011351909 L433.436532508,283.900928793 L426.93498452,288.235294118 L427.657378741,293.292053664 L425.490196078,294.014447884 L430.546955624,305.572755418 L437.048503612,307.01754386 L446.439628483,301.238390093 L452.941176471,306.295149639 L459.442724458,301.960784314 L465.944272446,303.405572755 L470.278637771,300.515995872 L473.890608875,288.235294118 L486.89370485,275.954592363 L499.896800826,278.121775026 M478.947368421,278.121775026 L476.057791538,276.676986584 L478.947368421,275.954592363 L478.947368421,278.121775026 M403.095975232,265.118679051 L403.095975232,267.285861713 L400.92879257,265.118679051 L398.761609907,266.563467492 L400.206398349,264.39628483 L403.095975232,265.118679051 Z" fill="#cee3f5" id="PG.WN" stroke="#6e6e6e" stroke-width="0.4"><desc><labelrank>6</labelrank><code_hasc>PG.WN</code_hasc><name>West New Britain</name><admin>Papua New Guinea</admin><type_en>Province</type_en><region /><woe_id>2346597</woe_id><longitude>149</longitude><woe_name>West New Britain</woe_name><fips>PP17</fips><woe_label>West New Britain, PG, Papua New Guinea</woe_label><latitude>-5</latitude><iso_a2>PG</iso_a2><postal>WN</postal><type>Province</type><id>PG.WN</id></desc></path></svg>