<?xml version='1.0' encoding='utf-8'?>
<svg height="700" width="700" xmlns="http://www.w3.org/2000/svg"><path d="M280.085261876,262.713154689 L285.84043849,263.565773447 L289.25091352,265.91047503 L287.971985384,267.615712546 L282.643118149,270.386723508 L279.445797808,280.19183922 L252.161997564,282.536540804 L237.028014616,281.683922046 L225.943970767,283.602314251 L223.599269184,286.160170524 L222.320341048,289.570645554 L221.680876979,298.736297199 L216.138855055,309.394031669 L212.302070646,326.446406821 L203.775883069,328.791108404 L168.179049939,345.417174178 L161.571254568,349.893422655 L154.963459196,352.664433618 L148.995127893,351.598660171 L125.974421437,335.825213155 L122.350791717,330.709500609 L120.219244823,324.101705238 L115.529841657,287.65225335 L115.742996346,248.644945189 L117.448233861,223.492691839 L121.924482339,225.197929354 L144.305724726,251.202801462 L148.568818514,253.547503045 L152.618757613,253.760657734 L175.426309379,246.087088916 L190.773447016,245.660779537 L216.352009744,247.366017052 L223.812423873,246.726552984 L229.780755177,259.302679659 L232.764920828,262.286845311 L280.085261876,262.713154689 Z" fill="#cee3f5" id="SD.NB" stroke="#6e6e6e" stroke-width="0.4"><desc><labelrank>3</labelrank><code_hasc>SD.NB</code_hasc><name>North Bahr-al-Ghazal</name><admin>S. Sudan</admin><type_en>State</type_en><region>Bahr al Ghazal</region><woe_id>20069897</woe_id><longitude>27</longitude><woe_name>North Bahr-al-Ghazal</woe_name><fips>SU54</fips><woe_label>Shamal Bahr al Ghazal, SD, Sudan</woe_label><latitude>8</latitude><iso_a2>SS</iso_a2><postal>NB</postal><type>Wilayat</type><id>SD.NB</id></desc></path><path d="M397.107186358,395.934835566 L399.238733252,398.919001218 L402.222898904,399.771619976 L406.272838002,403.182095006 L411.814859927,405.52679659 L412.667478685,408.084652862 L422.472594397,416.18453106 L426.948842875,423.21863581 L428.4409257,429.186967113 L431.211936663,430.46589525 L432.490864799,435.581607795 L436.753958587,440.91047503 L440.164433618,452.633982948 L442.72228989,455.40499391 L444.853836784,461.799634592 L447.838002436,464.357490865 L444.853836784,467.128501827 L442.72228989,466.915347138 L438.672350792,464.783800244 L418.635809988,461.160170524 L411.388550548,457.962850183 L400.304506699,448.584043849 L397.320341048,448.584043849 L392.84409257,450.715590743 L387.728380024,451.78136419 L374.512789281,452.847137637 L371.954933009,449.862971985 L365.773447016,437.713154689 L360.65773447,432.171132765 L344.884287454,432.384287454 L343.392204629,434.08952497 L343.179049939,439.205237515 L344.457978076,445.386723508 L343.392204629,453.699756395 L341.473812424,458.176004872 L334.866017052,465.636419001 L331.242387333,476.080998782 L328.258221681,477.786236297 L323.995127893,477.999390987 L296.071863581,474.802070646 L285.414129111,468.194275274 L279.658952497,459.881242387 L271.772228989,453.060292326 L267.295980512,444.107795371 L265.803897686,433.450060901 L267.93544458,416.397685749 L272.838002436,420.234470158 L279.658952497,422.366017052 L285.6272838,421.513398295 L289.46406821,419.59500609 L291.382460414,416.610840438 L299.695493301,390.819123021 L303.7454324,385.063946407 L323.142509135,363.748477467 L330.816077954,352.024969549 L339.981729598,352.664433618 L342.539585871,354.156516443 L361.510353228,392.950669915 L368.331303289,395.295371498 L397.107186358,395.934835566 Z" fill="#cee3f5" id="SD.EB" stroke="#6e6e6e" stroke-width="0.4"><desc><labelrank>3</labelrank><code_hasc>SD.EB</code_hasc><name>Lakes</name><admin>S. Sudan</admin><type_en>State</type_en><region>Bahr al Ghazal</region><woe_id>20069896</woe_id><longitude>30</longitude><woe_name>Lakes</woe_name><fips>SU37</fips><woe_label>Al Buhayrat, SD, Sudan</woe_label><latitude>6</latitude><iso_a2>SS</iso_a2><postal>EB</postal><type>Wilayat</type><id>SD.EB</id></desc></path><path d="M267.93544458,416.397685749 L265.803897686,433.450060901 L267.295980512,444.107795371 L271.772228989,453.060292326 L279.658952497,459.881242387 L285.414129111,468.194275274 L296.071863581,474.802070646 L323.995127893,477.999390987 L328.258221681,477.786236297 L331.242387333,476.080998782 L334.866017052,465.636419001 L341.473812424,458.176004872 L343.392204629,453.699756395 L344.457978076,445.386723508 L343.179049939,439.205237515 L343.392204629,434.08952497 L344.884287454,432.384287454 L360.65773447,432.171132765 L365.773447016,437.713154689 L371.954933009,449.862971985 L374.512789281,452.847137637 L388.154689403,464.357490865 L394.762484775,472.670523752 L402.649208283,479.065164434 L405.633373934,485.033495737 L405.207064555,489.509744214 L402.436053593,493.772838002 L400.730816078,499.314859927 L399.451887942,518.711936663 L397.107186358,520.843483557 L382.1863581,527.024969549 L369.397076736,537.682704019 L365.986601705,537.682704019 L358.099878197,531.714372716 L353.836784409,532.566991474 L336.144945189,546.635200974 L336.571254568,545.782582217 L333.587088916,544.077344702 L331.881851401,544.290499391 L326.126674787,540.666869671 L316.534713764,538.961632156 L315.682095006,544.077344702 L312.484774665,549.406211937 L309.500609013,551.96406821 L307.369062119,555.800852619 L303.7454324,555.800852619 L302.466504263,558.571863581 L300.974421437,558.78501827 L288.611449452,549.406211937 L278.380024361,550.258830694 L276.887941535,549.832521315 L276.461632156,547.274665043 L274.756394641,545.782582217 L271.34591961,547.061510353 L267.93544458,553.029841657 L263.885505481,554.735079172 L263.032886724,556.653471376 L259.409257004,556.866626066 L255.359317905,561.556029233 L252.588306943,562.40864799 L251.309378806,561.982338611 L250.03045067,559.211327649 L248.112058465,557.932399513 L240.651644336,558.145554202 L235.962241169,552.390377588 L232.978075518,553.882460414 L230.633373934,550.258830694 L230.846528624,545.995736906 L225.730816078,544.929963459 L224.87819732,546.208891596 L221.041412911,545.995736906 L216.565164434,543.437880633 L215.286236297,532.566991474 L211.449451888,531.288063337 L210.59683313,527.877588307 L208.678440926,525.959196102 L203.56272838,525.319732034 L201.218026797,524.040803898 L200.365408039,521.482947625 L196.52862363,518.711936663 L196.954933009,515.301461632 L193.544457978,510.825213155 L187.362971985,505.709500609 L184.805115713,500.167478685 L183.526187576,494.199147381 L186.084043849,485.033495737 L185.444579781,484.180876979 L183.526187576,484.607186358 L183.739342266,481.196711328 L181.607795371,477.359926918 L178.836784409,475.867844093 L177.984165652,473.736297199 L175.0,472.457369062 L172.868453106,472.883678441 L169.671132765,468.407429963 L165.834348356,469.046894032 L164.34226553,466.702192448 L159.866017052,466.275883069 L159.226552984,462.65225335 L157.521315469,461.160170524 L153.258221681,459.454933009 L147.076735688,459.454933009 L143.666260658,458.176004872 L139.829476248,453.912911084 L136.632155907,455.831303289 L136.845310597,453.273447016 L141.108404385,450.076126675 L141.534713764,447.944579781 L138.337393423,446.452496955 L138.124238733,443.468331303 L133.647990256,441.549939099 L128.53227771,437.073690621 L128.53227771,432.810596833 L127.466504263,432.384287454 L129.384896468,430.679049939 L133.861144945,422.579171742 L226.157125457,411.708282582 L237.028014616,418.955542022 L267.93544458,416.397685749 Z" fill="#cee3f5" id="SD.WE" stroke="#6e6e6e" stroke-width="0.4"><desc><labelrank>3</labelrank><code_hasc>SD.WE</code_hasc><name>West Equatoria</name><admin>S. Sudan</admin><type_en>State</type_en><region>Equatoria</region><woe_id>20069900</woe_id><longitude>28</longitude><woe_name>West Equatoria</woe_name><fips>SU45</fips><woe_label>Gharb al Istiwa´iyah, SD, Sudan</woe_label><latitude>5</latitude><iso_a2>SS</iso_a2><postal>WE</postal><type>Wilayat</type><id>SD.WE</id></desc></path><path d="M447.838002436,464.357490865 L479.811205847,466.275883069 L478.319123021,472.883678441 L478.7454324,510.185749086 L481.090133983,517.646163216 L486.632155907,527.877588307 L487.058465286,531.927527406 L476.400730816,553.242996346 L472.990255786,564.327040195 L462.332521315,573.919001218 L455.511571255,590.118757613 L454.232643118,589.692448234 L448.690621194,595.660779537 L441.443361754,597.152862363 L439.098660171,599.071254568 L425.456760049,592.037149817 L420.767356882,590.97137637 L416.504263094,591.397685749 L412.667478685,594.381851401 L404.780755177,597.792326431 L398.599269184,608.87637028 L397.746650426,607.810596833 L398.386114495,604.613276492 L394.975639464,602.268574909 L394.123020706,598.858099878 L393.057247259,598.005481121 L389.859926918,600.563337393 L383.891595615,602.268574909 L380.907429963,601.62911084 L382.1863581,596.726552984 L379.841656516,586.495127893 L375.791717418,586.495127893 L368.757612667,583.084652862 L360.018270402,581.379415347 L355.968331303,572.640073082 L351.278928136,570.721680877 L348.081607795,565.819123021 L344.244823386,564.113885505 L345.097442144,561.556029233 L344.457978076,560.490255786 L341.686967113,558.358708892 L337.637028015,558.145554202 L336.144945189,556.866626066 L335.505481121,554.735079172 L336.144945189,546.635200974 L353.836784409,532.566991474 L358.099878197,531.714372716 L365.986601705,537.682704019 L369.397076736,537.682704019 L382.1863581,527.024969549 L397.107186358,520.843483557 L399.451887942,518.711936663 L400.730816078,499.314859927 L402.436053593,493.772838002 L405.207064555,489.509744214 L405.633373934,485.033495737 L402.649208283,479.065164434 L394.762484775,472.670523752 L388.154689403,464.357490865 L374.512789281,452.847137637 L387.728380024,451.78136419 L392.84409257,450.715590743 L397.320341048,448.584043849 L400.304506699,448.584043849 L411.388550548,457.962850183 L418.635809988,461.160170524 L438.672350792,464.783800244 L442.72228989,466.915347138 L444.853836784,467.128501827 L447.838002436,464.357490865 Z" fill="#cee3f5" id="UG.MY" stroke="#6e6e6e" stroke-width="0.4"><desc><labelrank>3</labelrank><code_hasc>UG.MY</code_hasc><name>Central Equatoria</name><admin>S. Sudan</admin><type_en>State</type_en><region>Equatoria</region><woe_id>20069902</woe_id><longitude>31</longitude><woe_name>Central Equatoria</woe_name><fips>SU44</fips><woe_label>Bahr al Jabal, SD, Sudan</woe_label><latitude>4</latitude><iso_a2>SS</iso_a2><postal>MY</postal><type>Wilayat</type><id>UG.MY</id></desc></path><path d="M527.131546894,344.77771011 L520.097442144,341.580389769 L517.326431181,339.448842875 L517.539585871,336.038367844 L520.523751523,327.512180268 L519.671132765,320.264920828 L511.997563946,316.00182704 L503.47137637,307.688794153 L488.550548112,281.044457978 L484.926918392,280.618148599 L468.300852619,289.357490865 L464.037758831,289.996954933 L459.774665043,287.225943971 L439.31181486,260.581607795 L432.06455542,261.647381242 L428.65408039,259.515834348 L415.438489647,256.318514007 L404.354445798,251.415956151 L404.993909866,237.34774665 L417.78319123,236.708282582 L422.046285018,235.003045067 L447.411693057,210.063946407 L455.511571255,200.471985384 L459.348355664,194.71680877 L464.037758831,183.84591961 L491.961023143,160.398903776 L492.8136419,158.480511571 L493.239951279,156.988428745 L488.976857491,149.101705238 L488.124238733,145.051766139 L488.124238733,121.604750305 L472.137637028,104.126065773 L511.571254568,103.912911084 L510.505481121,96.2393422655 L510.71863581,91.1236297199 L539.068209501,91.5499390987 L538.641900122,96.4524969549 L535.231425091,107.962850183 L534.591961023,122.670523752 L531.607795371,127.786236297 L537.576126675,172.761875761 L535.018270402,178.943361754 L549.299634592,184.485383678 L554.628501827,190.453714982 L581.059683313,212.40864799 L584.043848965,219.869062119 L583.404384896,226.69001218 L584.470158343,231.379415347 L580.420219245,239.905602923 L578.928136419,252.481729598 L580.207064555,255.039585871 L590.225334957,255.039585871 L592.570036541,304.278319123 L591.291108404,308.328258222 L584.257003654,314.936053593 L575.517661389,316.428136419 L571.2545676,319.412302071 L568.057247259,319.199147381 L563.580998782,314.083434836 L559.531059683,314.936053593 L555.481120585,313.230816078 L555.267965895,314.296589525 L549.93909866,314.509744214 L548.233861145,315.575517661 L540.560292326,314.296589525 L536.936662607,317.493909866 L536.297198538,319.838611449 L536.936662607,321.117539586 L536.510353228,324.101705238 L539.068209501,326.233252132 L536.723507917,329.217417783 L537.576126675,333.054202192 L536.510353228,334.546285018 L533.739342266,335.185749086 L527.131546894,344.77771011 Z" fill="#cee3f5" id="SD.UN" stroke="#6e6e6e" stroke-width="0.4"><desc><labelrank>3</labelrank><code_hasc>SD.UN</code_hasc><name>Upper Nile</name><admin>S. Sudan</admin><type_en>State</type_en><region>Upper Nile</region><woe_id>20069908</woe_id><longitude>32</longitude><woe_name>Upper Nile</woe_name><fips>SU35</fips><woe_label>A`ali an Nil, SD, Sudan</woe_label><latitude>10</latitude><iso_a2>SS</iso_a2><postal>UN</postal><type>Wilayat</type><id>SD.UN</id></desc></path><path d="M404.354445798,251.415956151 L415.438489647,256.318514007 L428.65408039,259.515834348 L432.06455542,261.647381242 L439.31181486,260.581607795 L459.774665043,287.225943971 L464.037758831,289.996954933 L468.300852619,289.357490865 L484.926918392,280.618148599 L488.550548112,281.044457978 L503.47137637,307.688794153 L511.997563946,316.00182704 L519.671132765,320.264920828 L520.523751523,327.512180268 L517.539585871,336.038367844 L517.326431181,339.448842875 L520.097442144,341.580389769 L527.131546894,344.77771011 L526.065773447,346.269792935 L529.689403167,353.090742996 L540.560292326,354.156516443 L543.970767357,357.140682095 L547.381242387,357.993300853 L554.202192448,356.288063337 L559.317904994,359.698538368 L564.43361754,359.698538368 L569.123020706,361.830085262 L574.87819732,367.372107186 L579.141291108,368.864190012 L587.454323995,378.029841657 L588.093788063,385.916565164 L593.848964677,391.03227771 L596.833130329,390.819123021 L598.325213155,397.426918392 L603.65408039,402.542630938 L612.180267966,404.674177832 L616.017052375,407.232034105 L617.93544458,415.97137637 L622.624847747,416.397685749 L627.740560292,419.381851401 L629.445797808,422.152862363 L632.643118149,433.87637028 L635.414129111,438.992082826 L636.053593179,445.386723508 L639.46406821,451.78136419 L642.448233861,455.19183922 L643.514007308,459.668087698 L597.259439708,473.30998782 L479.811205847,466.275883069 L447.838002436,464.357490865 L444.853836784,461.799634592 L442.72228989,455.40499391 L440.164433618,452.633982948 L436.753958587,440.91047503 L432.490864799,435.581607795 L431.211936663,430.46589525 L428.4409257,429.186967113 L426.948842875,423.21863581 L422.472594397,416.18453106 L412.667478685,408.084652862 L411.814859927,405.52679659 L406.272838002,403.182095006 L402.222898904,399.771619976 L399.238733252,398.919001218 L397.107186358,395.934835566 L396.2545676,393.803288672 L391.138855055,389.753349574 L386.875761267,378.029841657 L380.694275274,370.569427527 L382.1863581,369.929963459 L382.399512789,367.798416565 L377.923264312,361.616930572 L378.989037759,360.551157125 L378.989037759,356.714372716 L380.481120585,354.369671133 L380.054811206,353.517052375 L381.333739342,353.090742996 L379.628501827,352.877588307 L380.481120585,351.81181486 L378.775883069,350.532886724 L377.496954933,346.056638246 L373.873325213,341.793544458 L374.725943971,341.15408039 L371.954933009,337.743605359 L371.52862363,334.546285018 L369.610231425,334.759439708 L369.610231425,333.693666261 L367.90499391,334.333130329 L367.052375152,332.414738124 L367.265529842,328.791108404 L368.331303289,328.364799026 L367.69183922,326.65956151 L368.757612667,326.446406821 L367.478684531,323.462241169 L369.183922046,322.609622412 L367.90499391,319.838611449 L370.036540804,314.083434836 L364.920828258,308.328258222 L365.560292326,306.409866017 L364.707673569,306.836175396 L364.920828258,305.34409257 L367.052375152,300.654689403 L362.149817296,296.178440926 L363.855054811,294.260048721 L360.018270402,282.536540804 L360.87088916,280.40499391 L362.576126675,279.978684531 L364.28136419,277.207673569 L366.412911084,275.715590743 L367.69183922,272.091961023 L370.036540804,270.173568819 L370.249695493,263.778928136 L367.90499391,261.434226553 L369.823386114,260.368453106 L373.873325213,253.334348356 L377.710109622,250.776492083 L387.088915956,250.350182704 L397.107186358,252.268574909 L401.796589525,252.268574909 L404.354445798,251.415956151 Z" fill="#cee3f5" id="SD.JG" stroke="#6e6e6e" stroke-width="0.4"><desc><labelrank>3</labelrank><code_hasc>SD.JG</code_hasc><name>Jungoli</name><admin>S. Sudan</admin><type_en>State</type_en><region>Upper Nile</region><woe_id>20069909</woe_id><longitude>32</longitude><woe_name>Jungoli</woe_name><fips>SU51</fips><woe_label>Junqali, SD, Sudan</woe_label><latitude>7</latitude><iso_a2>SS</iso_a2><postal>JG</postal><type>Wilayat</type><id>SD.JG</id></desc></path><path d="M404.993909866,237.34774665 L404.354445798,251.415956151 L401.796589525,252.268574909 L397.107186358,252.268574909 L387.088915956,250.350182704 L377.710109622,250.776492083 L373.873325213,253.334348356 L369.823386114,260.368453106 L367.90499391,261.434226553 L370.249695493,263.778928136 L370.036540804,270.173568819 L367.69183922,272.091961023 L366.412911084,275.715590743 L364.28136419,277.207673569 L362.576126675,279.978684531 L360.87088916,280.40499391 L360.018270402,282.536540804 L363.855054811,294.260048721 L362.149817296,296.178440926 L367.052375152,300.654689403 L364.920828258,305.34409257 L364.707673569,306.836175396 L365.560292326,306.409866017 L364.920828258,308.328258222 L370.036540804,314.083434836 L367.90499391,319.838611449 L369.183922046,322.609622412 L367.478684531,323.462241169 L368.757612667,326.446406821 L367.69183922,326.65956151 L368.331303289,328.364799026 L367.265529842,328.791108404 L367.052375152,332.414738124 L367.90499391,334.333130329 L369.610231425,333.693666261 L369.610231425,334.759439708 L371.52862363,334.546285018 L371.954933009,337.743605359 L374.725943971,341.15408039 L373.873325213,341.793544458 L377.496954933,346.056638246 L378.775883069,350.532886724 L380.481120585,351.81181486 L379.628501827,352.877588307 L381.333739342,353.090742996 L380.054811206,353.517052375 L380.481120585,354.369671133 L378.989037759,356.714372716 L378.989037759,360.551157125 L377.923264312,361.616930572 L382.399512789,367.798416565 L382.1863581,369.929963459 L380.694275274,370.569427527 L386.875761267,378.029841657 L391.138855055,389.753349574 L396.2545676,393.803288672 L397.107186358,395.934835566 L368.331303289,395.295371498 L361.510353228,392.950669915 L342.539585871,354.156516443 L339.981729598,352.664433618 L330.816077954,352.024969549 L328.045066991,316.21498173 L310.140073082,303.212545676 L295.006090134,280.40499391 L291.595615104,279.126065773 L279.445797808,280.19183922 L282.643118149,270.386723508 L287.971985384,267.615712546 L289.25091352,265.91047503 L285.84043849,263.565773447 L280.085261876,262.713154689 L279.232643118,256.744823386 L284.348355664,250.563337393 L289.890377588,246.300243605 L297.137637028,242.463459196 L318.02679659,236.921437272 L322.929354446,232.232034105 L325.700365408,227.755785627 L325.913520097,219.229598051 L349.360535932,206.653471376 L377.496954933,224.345310597 L394.123020706,239.052984166 L398.386114495,237.56090134 L404.993909866,237.34774665 Z" fill="#cee3f5" id="SD.WH" stroke="#6e6e6e" stroke-width="0.4"><desc><labelrank>3</labelrank><code_hasc>SD.WH</code_hasc><name>Unity</name><admin>S. Sudan</admin><type_en>State</type_en><region>Upper Nile</region><woe_id>20069907</woe_id><longitude>29</longitude><woe_name>Unity</woe_name><fips>SU40</fips><woe_label>Al Wahdah, SD, Sudan</woe_label><latitude>8</latitude><iso_a2>SS</iso_a2><postal>WH</postal><type>Wilayat</type><id>SD.WH</id></desc></path><path d="M330.816077954,352.024969549 L323.142509135,363.748477467 L303.7454324,385.063946407 L299.695493301,390.819123021 L291.382460414,416.610840438 L289.46406821,419.59500609 L285.6272838,421.513398295 L279.658952497,422.366017052 L272.838002436,420.234470158 L267.93544458,416.397685749 L264.951278928,395.508526188 L266.230207065,376.537758831 L265.377588307,372.700974421 L262.393422655,369.71680877 L263.459196102,365.453714982 L262.606577345,364.174786845 L250.669914738,357.993300853 L241.504263094,351.598660171 L227.649208283,347.761875761 L212.302070646,326.446406821 L216.138855055,309.394031669 L221.680876979,298.736297199 L222.320341048,289.570645554 L223.599269184,286.160170524 L225.943970767,283.602314251 L237.028014616,281.683922046 L252.161997564,282.536540804 L279.445797808,280.19183922 L291.595615104,279.126065773 L295.006090134,280.40499391 L310.140073082,303.212545676 L328.045066991,316.21498173 L330.816077954,352.024969549 Z" fill="#cee3f5" id="SD.WR" stroke="#6e6e6e" stroke-width="0.4"><desc><labelrank>3</labelrank><code_hasc>SD.WR</code_hasc><name>Warap</name><admin>S. Sudan</admin><type_en>State</type_en><region>Bahr al Ghazal</region><woe_id>20069898</woe_id><longitude>28</longitude><woe_name>Warap</woe_name><fips>SU59</fips><woe_label>Warab, SD, Sudan</woe_label><latitude>7</latitude><iso_a2>SS</iso_a2><postal>WR</postal><type>Wilayat</type><id>SD.WR</id></desc></path><path d="M117.448233861,223.492691839 L115.742996346,248.644945189 L115.529841657,287.65225335 L120.219244823,324.101705238 L122.350791717,330.709500609 L125.974421437,335.825213155 L148.995127893,351.598660171 L154.963459196,352.664433618 L161.571254568,349.893422655 L168.179049939,345.417174178 L203.775883069,328.791108404 L212.302070646,326.446406821 L227.649208283,347.761875761 L241.504263094,351.598660171 L250.669914738,357.993300853 L262.606577345,364.174786845 L263.459196102,365.453714982 L262.393422655,369.71680877 L265.377588307,372.700974421 L266.230207065,376.537758831 L264.951278928,395.508526188 L267.93544458,416.397685749 L237.028014616,418.955542022 L226.157125457,411.708282582 L133.861144945,422.579171742 L133.861144945,421.300243605 L125.334957369,417.250304507 L120.219244823,412.34774665 L116.808769793,410.855663825 L115.742996346,407.018879415 L114.037758831,406.592570037 L113.398294762,405.3136419 L112.971985384,400.837393423 L109.561510353,400.411084044 L108.922046285,399.345310597 L104.658952497,397.640073082 L104.019488429,395.508526188 L99.5432399513,394.442752741 L98.6906211937,392.311205847 L87.1802679659,388.261266748 L82.7040194884,384.637637028 L80.5724725944,384.850791717 L72.6857490865,380.161388551 L70.7673568819,375.898294762 L63.3069427527,370.995736906 L61.8148599269,367.158952497 L63.0937880633,365.027405603 L66.9305724726,363.748477467 L68.6358099878,361.616930572 L67.9963459196,355.648599269 L65.6516443362,350.106577345 L62.2411693057,347.975030451 L57.3386114495,348.18818514 L53.7149817296,346.269792935 L49.2387332521,341.580389769 L47.1071863581,336.251522533 L41.9914738124,331.562119367 L29.2021924482,328.577953715 L23.0207064555,329.004263094 L18.3313032887,325.380633374 L12.3629719854,326.8727162 L5.96833130329,324.954323995 L1.70523751523,322.609622412 L0.0,319.199147381 L0.852618757613,315.362362972 L4.04993909866,309.820341048 L7.46041412911,307.049330085 L5.11571254568,304.278319123 L6.6077953715,300.867844093 L2.77101096224,300.441534714 L3.62362971985,298.736297199 L15.1339829476,291.275883069 L21.9549330085,290.423264312 L25.7917174178,288.718026797 L25.7917174178,282.110231425 L31.7600487211,271.452496955 L33.0389768575,259.942143727 L39.646772229,251.202801462 L39.8599269184,233.510962241 L46.8940316687,229.247868453 L50.5176613886,224.558465286 L53.7149817296,217.311205847 L53.0755176614,212.834957369 L56.9123020706,205.37454324 L66.2911084044,203.456151035 L71.1936662607,204.095615104 L101.887941535,197.700974421 L105.085261876,201.96406821 L105.511571255,211.769183922 L111.906211937,215.392813642 L117.448233861,223.492691839 Z" fill="#cee3f5" id="SD.WB" stroke="#6e6e6e" stroke-width="0.4"><desc><labelrank>3</labelrank><code_hasc>SD.WB</code_hasc><name>West Bahr-al-Ghazal</name><admin>S. Sudan</admin><type_en>State</type_en><region>Bahr al Ghazal</region><woe_id>20069899</woe_id><longitude>26</longitude><woe_name>West Bahr-al-Ghazal</woe_name><fips>SU46</fips><woe_label>Gharb Bahr al Ghazal, SD, Sudan</woe_label><latitude>7</latitude><iso_a2>SS</iso_a2><postal>WB</postal><type>Wilayat</type><id>SD.WB</id></desc></path><path d="M455.511571255,590.118757613 L462.332521315,573.919001218 L472.990255786,564.327040195 L476.400730816,553.242996346 L487.058465286,531.927527406 L486.632155907,527.877588307 L481.090133983,517.646163216 L478.7454324,510.185749086 L478.319123021,472.883678441 L479.811205847,466.275883069 L597.259439708,473.30998782 L643.514007308,459.668087698 L642.661388551,462.865408039 L644.153471376,465.210109622 L644.366626066,469.47320341 L650.12180268,477.786236297 L651.187576127,482.475639464 L660.992691839,489.083434836 L661.632155907,491.00182704 L660.140073082,493.559683313 L663.337393423,498.24908648 L665.895249695,498.462241169 L670.797807552,493.985992692 L673.142509135,493.772838002 L680.816077954,497.609622412 L685.931790499,496.970158343 L693.179049939,500.593788063 L691.260657734,504.856881851 L693.179049939,510.825213155 L690.194884287,515.727771011 L689.981729598,528.090742996 L691.900121803,533.419610231 L700.0,541.945797808 L691.686967113,541.945797808 L691.473812424,538.535322777 L689.12911084,538.322168088 L687.637028015,539.387941535 L686.997563946,543.864190012 L681.668696711,541.945797808 L676.339829476,532.353836784 L679.323995128,525.106577345 L674.84774665,523.827649208 L668.879415347,523.827649208 L671.010962241,519.138246041 L669.732034105,517.646163216 L660.992691839,522.548721072 L659.926918392,520.417174178 L625.609013398,533.419610231 L608.556638246,541.945797808 L558.252131547,592.037149817 L555.907429963,593.529232643 L536.510353228,592.889768575 L526.492082826,585.429354446 L517.326431181,590.97137637 L512.210718636,592.463459196 L489.40316687,594.59500609 L478.53227771,601.415956151 L477.679658952,607.171132765 L476.613885505,607.597442144 L471.924482339,606.318514007 L469.153471376,603.334348356 L463.185140073,602.481729598 L461.479902558,596.300243605 L455.511571255,590.118757613 Z" fill="#cee3f5" id="SD.EE" stroke="#6e6e6e" stroke-width="0.4"><desc><labelrank>3</labelrank><code_hasc>SD.EE</code_hasc><name>East Equatoria</name><admin>S. Sudan</admin><type_en>State</type_en><region>Equatoria</region><woe_id>20069901</woe_id><longitude>33</longitude><woe_name>East Equatoria</woe_name><fips>SU57</fips><woe_label>Sharq al Istiwa´iyah, SD, Sudan</woe_label><latitude>4</latitude><iso_a2>SS</iso_a2><postal>EE</postal><type>Wilayat</type><id>SD.EE</id></desc></path></svg>