<?xml version='1.0' encoding='utf-8'?>
<svg height="700" width="700" xmlns="http://www.w3.org/2000/svg"><path d="M42.1553090333,572.424722662 L74.3264659271,569.096671949 L94.294770206,572.424722662 L94.294770206,584.627575277 L110.935023772,584.627575277 L125.356576862,595.721077655 L119.809825674,601.267828843 L141.996830428,612.36133122 L158.637083994,621.236133122 L139.778129952,645.641838352 L120.919175911,651.18858954 L115.372424723,667.828843106 L128.684627575,671.156893819 L130.903328051,682.250396197 L114.263074485,682.250396197 L114.263074485,700.0 L102.06022187,698.890649762 L68.7797147385,676.703645008 L70.9984152139,661.17274168 L44.3740095087,640.095087163 L45.4833597464,606.814580032 L42.1553090333,572.424722662 Z" fill="#cee3f5" id="US.ME.031" stroke="#6e6e6e" stroke-width="0.4"><desc><name>York County</name><stateAbbrev>ME</stateAbbrev><state>Maine</state><fips>031</fips><incits>23031</incits><id>US.ME.031</id><population>199431</population></desc></path><path d="M159.746434231,468.145800317 L176.386687797,463.708399366 L185.261489699,493.660855784 L185.261489699,508.082408875 L196.354992076,520.28526149 L191.917591125,543.581616482 L178.605388273,554.675118859 L147.543581616,533.597464342 L139.778129952,542.472266244 L122.028526149,534.70681458 L120.919175911,530.269413629 L145.324881141,506.973058637 L159.746434231,468.145800317 Z" fill="#cee3f5" id="US.ME.001" stroke="#6e6e6e" stroke-width="0.4"><desc><name>Androscoggin County</name><stateAbbrev>ME</stateAbbrev><state>Maine</state><fips>001</fips><incits>23001</incits><id>US.ME.001</id><population>107604</population></desc></path><path d="M193.026941363,138.668779715 L197.464342314,119.809825674 L318.383518225,0.0 L347.226624406,6.65610142631 L346.117274168,33.2805071315 L368.304278922,43.264659271 L418.22503962,26.6244057052 L450.396196513,26.6244057052 L457.05229794,15.5309033281 L473.692551506,17.7496038035 L516.957210777,41.0459587956 L526.941362916,55.4675118859 L541.362916006,61.0142630745 L542.472266244,134.231378764 L543.581616482,236.291600634 L539.144215531,248.494453249 L539.144215531,277.337559429 L501.426307448,283.993660856 L441.521394612,293.977812995 L442.630744849,238.510301109 L440.412044374,168.621236133 L381.616481775,166.402535658 L380.507131537,138.668779715 L240.729001585,138.668779715 L193.026941363,138.668779715 Z" fill="#cee3f5" id="US.ME.003" stroke="#6e6e6e" stroke-width="0.4"><desc><name>Aroostook County</name><stateAbbrev>ME</stateAbbrev><state>Maine</state><fips>003</fips><incits>23003</incits><id>US.ME.003</id><population>70055</population></desc></path><path d="M122.028526149,534.70681458 L139.778129952,542.472266244 L147.543581616,533.597464342 L178.605388273,554.675118859 L191.917591125,543.581616482 L215.213946117,562.440570523 L180.824088748,566.877971474 L157.527733756,590.174326466 L165.29318542,604.595879556 L141.996830428,612.36133122 L119.809825674,601.267828843 L125.356576862,595.721077655 L110.935023772,584.627575277 L94.294770206,584.627575277 L94.294770206,572.424722662 L74.3264659271,569.096671949 L85.4199683043,545.800316957 L68.7797147385,528.050713154 L99.8415213946,513.629160063 L100.950871632,530.269413629 L122.028526149,534.70681458 Z" fill="#cee3f5" id="US.ME.005" stroke="#6e6e6e" stroke-width="0.4"><desc><name>Cumberland County</name><stateAbbrev>ME</stateAbbrev><state>Maine</state><fips>005</fips><incits>23005</incits><id>US.ME.005</id><population>285456</population></desc></path><path d="M110.935023772,279.556259905 L132.012678288,361.648177496 L150.87163233,367.194928685 L171.949286846,363.866877971 L179.71473851,392.709984152 L176.386687797,407.131537242 L191.917591125,404.912836767 L197.464342314,433.755942948 L207.448494453,444.849445325 L190.808240887,448.177496038 L176.386687797,463.708399366 L159.746434231,468.145800317 L153.090332805,451.505546751 L117.591125198,442.630744849 L100.950871632,416.006339144 L76.5451664025,425.990491284 L76.5451664025,409.350237718 L68.7797147385,381.616481775 L75.4358161648,381.616481775 L66.5610142631,340.570522979 L67.6703645008,321.711568938 L99.8415213946,320.6022187 L84.3106180666,303.961965135 L110.935023772,279.556259905 Z" fill="#cee3f5" id="US.ME.007" stroke="#6e6e6e" stroke-width="0.4"><desc><name>Franklin County</name><stateAbbrev>ME</stateAbbrev><state>Maine</state><fips>007</fips><incits>23007</incits><id>US.ME.007</id><population>30495</population></desc></path><path d="M381.616481775,433.755942948 L439.302694136,420.443740095 L430.427892235,387.163232964 L450.396196513,383.83518225 L447.0681458,370.522979398 L467.036450079,368.304278922 L461.489698891,349.445324881 L500.316957211,343.898573693 L511.410459588,390.491283677 L492.551505547,393.81933439 L514.738510301,478.129952456 L496.988906498,485.89540412 L490.332805071,470.364500792 L478.129952456,462.599049128 L463.708399366,465.927099842 L444.849445325,477.020602219 L421.553090333,475.911251981 L420.443740095,489.223454834 L401.584786054,493.660855784 L381.616481775,480.348652932 L392.709984152,454.833597464 L383.83518225,449.286846276 L377.179080824,443.740095087 L381.616481775,433.755942948 Z" fill="#cee3f5" id="US.ME.009" stroke="#6e6e6e" stroke-width="0.4"><desc><name>Hancock County</name><stateAbbrev>ME</stateAbbrev><state>Maine</state><fips>009</fips><incits>23009</incits><id>US.ME.009</id><population>54845</population></desc></path><path d="M176.386687797,463.708399366 L190.808240887,448.177496038 L207.448494453,444.849445325 L219.651347068,442.630744849 L258.478605388,450.396196513 L254.041204437,430.427892235 L279.556259905,431.537242472 L291.75911252,440.412044374 L282.884310618,468.145800317 L274.009508716,487.004754358 L267.35340729,499.207606973 L251.822503962,495.87955626 L250.713153724,521.394611727 L235.182250396,518.066561014 L219.651347068,513.629160063 L212.995245642,523.613312203 L196.354992076,520.28526149 L185.261489699,508.082408875 L185.261489699,493.660855784 L176.386687797,463.708399366 Z" fill="#cee3f5" id="US.ME.011" stroke="#6e6e6e" stroke-width="0.4"><desc><name>Kennebec County</name><stateAbbrev>ME</stateAbbrev><state>Maine</state><fips>011</fips><incits>23011</incits><id>US.ME.011</id><population>121164</population></desc></path><path d="M289.540412044,489.223454834 L310.618066561,482.567353407 L333.914421553,500.316957211 L348.335974643,501.426307448 L337.242472266,528.050713154 L326.148969889,539.144215531 L293.977812995,545.800316957 L308.399366086,530.269413629 L300.633914422,506.973058637 L285.103011094,504.754358162 L289.540412044,489.223454834 Z" fill="#cee3f5" id="US.ME.013" stroke="#6e6e6e" stroke-width="0.4"><desc><name>Knox County</name><stateAbbrev>ME</stateAbbrev><state>Maine</state><fips>013</fips><incits>23013</incits><id>US.ME.013</id><population>39550</population></desc></path><path d="M235.182250396,518.066561014 L250.713153724,521.394611727 L251.822503962,495.87955626 L267.35340729,499.207606973 L274.009508716,487.004754358 L289.540412044,489.223454834 L285.103011094,504.754358162 L300.633914422,506.973058637 L308.399366086,530.269413629 L293.977812995,545.800316957 L292.868462758,563.549920761 L317.274167987,574.643423138 L308.399366086,584.627575277 L296.196513471,584.627575277 L289.540412044,570.206022187 L274.009508716,574.643423138 L265.134706815,586.846275753 L249.603803487,584.627575277 L237.400950872,556.893819334 L244.057052298,539.144215531 L226.307448494,535.816164818 L235.182250396,518.066561014 Z" fill="#cee3f5" id="US.ME.015" stroke="#6e6e6e" stroke-width="0.4"><desc><name>Lincoln County</name><stateAbbrev>ME</stateAbbrev><state>Maine</state><fips>015</fips><incits>23015</incits><id>US.ME.015</id><population>34088</population></desc></path><path d="M66.5610142631,340.570522979 L75.4358161648,381.616481775 L68.7797147385,381.616481775 L76.5451664025,409.350237718 L76.5451664025,425.990491284 L100.950871632,416.006339144 L117.591125198,442.630744849 L153.090332805,451.505546751 L159.746434231,468.145800317 L145.324881141,506.973058637 L120.919175911,530.269413629 L122.028526149,534.70681458 L100.950871632,530.269413629 L99.8415213946,513.629160063 L68.7797147385,528.050713154 L85.4199683043,545.800316957 L74.3264659271,569.096671949 L42.1553090333,572.424722662 L35.499207607,429.318541997 L27.7337559429,336.133122029 L42.1553090333,331.695721078 L66.5610142631,340.570522979 Z" fill="#cee3f5" id="US.ME.017" stroke="#6e6e6e" stroke-width="0.4"><desc><name>Oxford County</name><stateAbbrev>ME</stateAbbrev><state>Maine</state><fips>017</fips><incits>23017</incits><id>US.ME.017</id><population>57277</population></desc></path><path d="M297.305863708,372.741679873 L374.960380349,361.648177496 L371.632329635,348.335974643 L388.272583201,346.117274168 L374.960380349,301.743264659 L358.320126783,303.961965135 L359.429477021,280.665610143 L380.507131537,277.337559429 L381.616481775,166.402535658 L440.412044374,168.621236133 L442.630744849,238.510301109 L441.521394612,293.977812995 L501.426307448,283.993660856 L518.066561014,342.789223455 L500.316957211,343.898573693 L461.489698891,349.445324881 L467.036450079,368.304278922 L447.0681458,370.522979398 L450.396196513,383.83518225 L430.427892235,387.163232964 L439.302694136,420.443740095 L381.616481775,433.755942948 L368.304278922,432.64659271 L323.930269414,439.302694136 L311.727416799,427.099841521 L297.305863708,372.741679873 Z" fill="#cee3f5" id="US.ME.019" stroke="#6e6e6e" stroke-width="0.4"><desc><name>Penobscot County</name><stateAbbrev>ME</stateAbbrev><state>Maine</state><fips>019</fips><incits>23019</incits><id>US.ME.019</id><population>153364</population></desc></path><path d="M240.729001585,138.668779715 L380.507131537,138.668779715 L381.616481775,166.402535658 L380.507131537,277.337559429 L359.429477021,280.665610143 L358.320126783,303.961965135 L374.960380349,301.743264659 L388.272583201,346.117274168 L371.632329635,348.335974643 L374.960380349,361.648177496 L297.305863708,372.741679873 L256.259904913,382.725832013 L230.744849445,299.524564184 L242.94770206,287.321711569 L237.400950872,266.244057052 L245.166402536,249.603803487 L238.510301109,231.854199683 L238.510301109,166.402535658 L240.729001585,138.668779715 Z" fill="#cee3f5" id="US.ME.021" stroke="#6e6e6e" stroke-width="0.4"><desc><name>Piscataquis County</name><stateAbbrev>ME</stateAbbrev><state>Maine</state><fips>021</fips><incits>23021</incits><id>US.ME.021</id><population>17124</population></desc></path><path d="M196.354992076,520.28526149 L212.995245642,523.613312203 L219.651347068,513.629160063 L235.182250396,518.066561014 L226.307448494,535.816164818 L244.057052298,539.144215531 L237.400950872,556.893819334 L249.603803487,584.627575277 L239.619651347,593.502377179 L215.213946117,596.830427892 L215.213946117,562.440570523 L191.917591125,543.581616482 L196.354992076,520.28526149 Z" fill="#cee3f5" id="US.ME.023" stroke="#6e6e6e" stroke-width="0.4"><desc><name>Sagadahoc County</name><stateAbbrev>ME</stateAbbrev><state>Maine</state><fips>023</fips><incits>23023</incits><id>US.ME.023</id><population>35013</population></desc></path><path d="M110.935023772,279.556259905 L134.231378764,271.790808241 L132.012678288,259.587955626 L157.527733756,242.94770206 L148.652931854,234.072900158 L150.87163233,198.573692552 L164.183835182,176.386687797 L188.589540412,163.074484945 L193.026941363,138.668779715 L240.729001585,138.668779715 L238.510301109,166.402535658 L238.510301109,231.854199683 L245.166402536,249.603803487 L237.400950872,266.244057052 L242.94770206,287.321711569 L230.744849445,299.524564184 L256.259904913,382.725832013 L297.305863708,372.741679873 L311.727416799,427.099841521 L279.556259905,431.537242472 L254.041204437,430.427892235 L258.478605388,450.396196513 L219.651347068,442.630744849 L207.448494453,444.849445325 L197.464342314,433.755942948 L191.917591125,404.912836767 L176.386687797,407.131537242 L179.71473851,392.709984152 L171.949286846,363.866877971 L150.87163233,367.194928685 L132.012678288,361.648177496 L110.935023772,279.556259905 Z" fill="#cee3f5" id="US.ME.025" stroke="#6e6e6e" stroke-width="0.4"><desc><name>Somerset County</name><stateAbbrev>ME</stateAbbrev><state>Maine</state><fips>025</fips><incits>23025</incits><id>US.ME.025</id><population>51706</population></desc></path><path d="M274.009508716,487.004754358 L282.884310618,468.145800317 L291.75911252,440.412044374 L279.556259905,431.537242472 L311.727416799,427.099841521 L323.930269414,439.302694136 L368.304278922,432.64659271 L381.616481775,433.755942948 L376.069730586,440.412044374 L374.960380349,445.958795563 L378.288431062,445.958795563 L383.83518225,451.505546751 L383.83518225,468.145800317 L376.069730586,477.020602219 L369.41362916,508.082408875 L348.335974643,501.426307448 L333.914421553,500.316957211 L310.618066561,482.567353407 L289.540412044,489.223454834 L274.009508716,487.004754358 Z" fill="#cee3f5" id="US.ME.027" stroke="#6e6e6e" stroke-width="0.4"><desc><name>Waldo County</name><stateAbbrev>ME</stateAbbrev><state>Maine</state><fips>027</fips><incits>23027</incits><id>US.ME.027</id><population>38940</population></desc></path><path d="M500.316957211,343.898573693 L518.066561014,342.789223455 L501.426307448,283.993660856 L539.144215531,277.337559429 L553.565768621,277.337559429 L570.206022187,289.540412044 L597.93977813,292.868462758 L599.049128368,303.961965135 L586.846275753,307.290015848 L597.93977813,330.58637084 L590.174326466,340.570522979 L605.705229794,360.538827258 L620.126782884,354.99207607 L640.095087163,358.320126783 L661.17274168,391.600633914 L670.047543582,398.256735341 L672.266244057,413.787638669 L650.079239303,423.771790808 L635.657686212,439.302694136 L616.798732171,437.083993661 L593.502377179,447.0681458 L579.080824089,443.740095087 L576.862123613,457.05229794 L531.378763867,464.817749604 L514.738510301,478.129952456 L492.551505547,393.81933439 L511.410459588,390.491283677 L500.316957211,343.898573693 Z" fill="#cee3f5" id="US.ME.029" stroke="#6e6e6e" stroke-width="0.4"><desc><name>Washington County</name><stateAbbrev>ME</stateAbbrev><state>Maine</state><fips>029</fips><incits>23029</incits><id>US.ME.029</id><population>32190</population></desc></path></svg>