<?xml version='1.0' encoding='utf-8'?>
<svg height="700" width="700" xmlns="http://www.w3.org/2000/svg"><path d="M8.86075949367,421.033755274 L12.4050632911,416.603375527 L8.86075949367,411.582278481 L13.5864978903,403.312236287 L20.0843881857,401.244725738 L24.5147679325,402.130801688 L32.194092827,396.223628692 L38.3966244726,394.156118143 L39.8734177215,388.839662447 L47.552742616,391.497890295 L51.9831223629,390.907172996 L61.1392405063,385.0 L67.0464135021,390.316455696 L64.9789029536,394.156118143 L72.6582278481,395.928270042 L71.1814345992,400.358649789 L72.9535864979,405.379746835 L69.1139240506,410.991561181 L61.1392405063,415.421940928 L55.2320675105,418.670886076 L54.3459915612,426.35021097 L58.1856540084,434.029535865 L48.1434599156,439.641350211 L33.0801687764,429.303797468 L20.3797468354,427.23628692 L8.86075949367,421.033755274 Z" fill="#cee3f5" id="CN.xizang.2710638" stroke="#6e6e6e" stroke-width="0.4"><desc><name>Ulugqat County</name><admin_leve>6</admin_leve><wikipedia>de:Ulugqat</wikipedia><localname>乌恰县 / ئۇلۇغچات ناھىيىس / Ulugqat</localname><boundary>administrative</boundary><id>CN.xizang.2710638</id></desc></path><path d="M61.1392405063,415.421940928 L69.1139240506,410.991561181 L72.9535864979,405.379746835 L71.1814345992,400.358649789 L72.6582278481,395.928270042 L74.135021097,393.565400844 L85.6540084388,394.156118143 L91.8565400844,390.316455696 L95.6962025316,383.227848101 L105.147679325,381.751054852 L113.122362869,384.70464135 L114.894514768,387.067510549 L122.573839662,386.476793249 L127.890295359,396.518987342 L127.594936709,400.358649789 L127.594936709,403.607594937 L119.029535865,404.789029536 L116.962025316,406.856540084 L116.075949367,409.219409283 L107.805907173,409.514767932 L98.6497890295,412.76371308 L93.0379746835,416.603375527 L87.4261603376,417.784810127 L66.4556962025,417.489451477 L61.1392405063,415.421940928 Z" fill="#cee3f5" id="CN.xizang.2710651" stroke="#6e6e6e" stroke-width="0.4"><desc><name>Artux City</name><admin_leve>6</admin_leve><wikipedia>de:Artux</wikipedia><localname>阿图什市 / ارتىش / Artux</localname><boundary>administrative</boundary><id>CN.xizang.2710651</id></desc></path><path d="M148.565400844,361.962025316 L159.198312236,369.345991561 L163.628691983,375.548523207 L162.151898734,377.911392405 L153.88185654,382.046413502 L152.700421941,387.953586498 L142.953586498,392.088607595 L139.4092827,396.518987342 L127.594936709,400.358649789 L127.890295359,396.518987342 L122.573839662,386.476793249 L114.894514768,387.067510549 L113.122362869,384.70464135 L105.147679325,381.751054852 L95.6962025316,383.227848101 L98.6497890295,375.843881857 L104.852320675,372.594936709 L117.257383966,373.185654008 L120.210970464,374.367088608 L129.367088608,373.776371308 L130.548523207,370.52742616 L140.886075949,366.687763713 L142.362869198,362.257383966 L148.565400844,361.962025316 Z" fill="#cee3f5" id="CN.xizang.2710677" stroke="#6e6e6e" stroke-width="0.4"><desc><name>Akqi County</name><admin_leve>6</admin_leve><wikipedia>de:Akqi</wikipedia><localname>阿合奇县 / ئاقچى ناھىيىسى / Akqi</localname><boundary>administrative</boundary><id>CN.xizang.2710677</id></desc></path><path d="M8.86075949367,421.033755274 L20.3797468354,427.23628692 L33.0801687764,429.303797468 L48.1434599156,439.641350211 L58.1856540084,434.029535865 L64.388185654,435.506329114 L69.7046413502,431.371308017 L72.9535864979,426.35021097 L80.0421940928,434.029535865 L68.8185654008,436.983122363 L74.135021097,442.890295359 L93.9240506329,453.523206751 L93.9240506329,457.953586498 L89.4936708861,470.358649789 L83.8818565401,474.493670886 L71.1814345992,473.902953586 L71.4767932489,469.767932489 L61.7299578059,469.767932489 L57.2995780591,468.291139241 L55.8227848101,462.088607595 L48.7341772152,460.316455696 L39.8734177215,454.70464135 L40.1687763713,451.455696203 L29.5358649789,446.729957806 L18.3122362869,445.253164557 L13.8818565401,449.978902954 L7.9746835443,447.320675105 L5.02109704641,439.345991561 L8.27004219409,434.324894515 L0.0,427.23628692 L2.95358649789,421.033755274 L8.86075949367,421.033755274 Z" fill="#cee3f5" id="CN.xizang.2710678" stroke="#6e6e6e" stroke-width="0.4"><desc><name>Akto County</name><admin_leve>6</admin_leve><wikipedia>de:Akto</wikipedia><localname>阿克陶县 / ئاقتو ناھىيىسى / Akto</localname><boundary>administrative</boundary><id>CN.xizang.2710678</id></desc></path><path d="M550.253164557,248.544303797 L556.160337553,249.725738397 L567.383966245,249.135021097 L572.700421941,251.202531646 L580.675105485,251.793248945 L589.535864979,250.316455696 L611.687763713,252.679324895 L633.248945148,261.835443038 L637.383966245,265.084388186 L650.675105485,271.877637131 L641.223628692,278.375527426 L638.270042194,282.510548523 L632.067510549,284.873417722 L617.299578059,296.392405063 L616.41350211,302.594936709 L611.392405063,302.890295359 L603.122362869,298.755274262 L585.991561181,297.573839662 L575.949367089,298.755274262 L565.021097046,298.755274262 L558.523206751,294.324894515 L547.004219409,291.666666667 L550.843881857,286.94092827 L544.050632911,281.919831224 L544.345991561,267.742616034 L551.729957806,252.679324895 L550.253164557,248.544303797 Z" fill="#cee3f5" id="CN.xizang.2747164" stroke="#6e6e6e" stroke-width="0.4"><desc><name>Barköl Kazakh Autonomous County</name><admin_leve>6</admin_leve><wikipedia>de:Barkol</wikipedia><localname>巴里坤哈萨克自治县 (Barköl)</localname><boundary>administrative</boundary><id>CN.xizang.2747164</id></desc></path><path d="M538.734177215,298.164556962 L546.708860759,294.324894515 L547.004219409,291.666666667 L558.523206751,294.324894515 L565.021097046,298.755274262 L575.949367089,298.755274262 L585.991561181,297.573839662 L603.122362869,298.755274262 L611.392405063,302.890295359 L616.41350211,302.594936709 L627.341772152,301.708860759 L643.58649789,313.227848101 L659.240506329,312.341772152 L665.443037975,315.0 L681.097046414,316.476793249 L700.0,321.497890295 L699.70464135,324.451476793 L693.206751055,327.109704641 L689.957805907,331.540084388 L693.797468354,344.535864979 L684.936708861,349.261603376 L679.620253165,349.852320675 L667.215189873,356.64556962 L663.375527426,351.033755274 L655.400843882,353.987341772 L651.856540084,358.122362869 L645.063291139,358.713080169 L629.113924051,369.345991561 L621.139240506,377.911392405 L613.755274262,375.843881857 L602.23628692,374.662447257 L591.898734177,370.82278481 L585.400843882,370.82278481 L562.362869198,365.801687764 L562.658227848,361.962025316 L559.113924051,358.417721519 L559.4092827,349.852320675 L556.751054852,342.76371308 L551.434599156,336.856540084 L549.662447257,331.244725738 L549.071729958,319.725738397 L546.11814346,310.569620253 L540.210970464,298.459915612 L538.734177215,298.164556962 Z" fill="#cee3f5" id="CN.xizang.2747165" stroke="#6e6e6e" stroke-width="0.4"><desc><name>Kumul</name><admin_leve>6</admin_leve><wikipedia>de:Kumul (Stadt)</wikipedia><localname>哈密市 (Kumul)</localname><boundary>administrative</boundary><id>CN.xizang.2747165</id></desc></path><path d="M616.41350211,302.594936709 L617.299578059,296.392405063 L632.067510549,284.873417722 L638.270042194,282.510548523 L641.223628692,278.375527426 L650.675105485,271.877637131 L657.46835443,274.831223629 L668.987341772,273.64978903 L667.510548523,281.624472574 L673.417721519,282.215189873 L683.755274262,300.52742616 L685.52742616,305.843881857 L699.113924051,316.181434599 L700.0,321.497890295 L681.097046414,316.476793249 L665.443037975,315.0 L659.240506329,312.341772152 L643.58649789,313.227848101 L627.341772152,301.708860759 L616.41350211,302.594936709 Z" fill="#cee3f5" id="CN.xizang.2747166" stroke="#6e6e6e" stroke-width="0.4"><desc><name>Yiwu County</name><admin_leve>6</admin_leve><wikipedia>de:Aratürük</wikipedia><localname>伊吾县 (Yiwu)</localname><boundary>administrative</boundary><id>CN.xizang.2747166</id></desc></path><path d="M494.135021097,300.52742616 L509.493670886,296.392405063 L515.991561181,297.573839662 L531.35021097,296.687763713 L538.734177215,298.164556962 L540.210970464,298.459915612 L546.11814346,310.569620253 L549.071729958,319.725738397 L549.662447257,331.244725738 L551.434599156,336.856540084 L556.751054852,342.76371308 L559.4092827,349.852320675 L559.113924051,358.417721519 L562.658227848,361.962025316 L562.362869198,365.801687764 L548.776371308,368.164556962 L537.848101266,366.687763713 L528.101265823,367.278481013 L507.721518987,366.687763713 L502.995780591,363.438818565 L494.135021097,363.438818565 L490.29535865,357.53164557 L492.067510549,354.578059072 L491.476793249,344.535864979 L489.4092827,335.675105485 L495.316455696,325.632911392 L491.181434599,320.316455696 L497.974683544,311.751054852 L498.565400844,303.185654008 L494.135021097,300.52742616 Z" fill="#cee3f5" id="CN.xizang.2747194" stroke="#6e6e6e" stroke-width="0.4"><desc><name>Shanshan</name><admin_leve>6</admin_leve><wikipedia>zh:鄯善县</wikipedia><localname>鄯善县</localname><boundary>administrative</boundary><id>CN.xizang.2747194</id></desc></path><path d="M420.29535865,308.797468354 L423.544303797,304.367088608 L431.814345992,304.957805907 L446.877637131,303.185654008 L450.717299578,306.139240506 L457.510548523,306.729957806 L469.915611814,318.248945148 L464.894514768,329.47257384 L468.438818565,341.877637131 L477.004219409,349.556962025 L475.82278481,354.282700422 L480.548523207,363.143459916 L467.552742616,361.666666667 L465.780590717,359.599156118 L454.261603376,359.599156118 L453.670886076,351.329113924 L447.172995781,343.64978903 L442.742616034,341.582278481 L439.789029536,335.970464135 L446.877637131,332.130801688 L448.05907173,326.814345992 L436.835443038,320.021097046 L427.974683544,319.430379747 L428.565400844,315.29535865 L430.042194093,312.932489451 L420.29535865,308.797468354 Z" fill="#cee3f5" id="CN.xizang.2747195" stroke="#6e6e6e" stroke-width="0.4"><desc><name>Toksun County</name><admin_leve>6</admin_leve><wikipedia>de:Toksun</wikipedia><localname>托克逊县 (Toksun)</localname><boundary>administrative</boundary><id>CN.xizang.2747195</id></desc></path><path d="M471.392405063,293.438818565 L479.957805907,296.392405063 L485.569620253,299.050632911 L494.135021097,300.52742616 L498.565400844,303.185654008 L497.974683544,311.751054852 L491.181434599,320.316455696 L495.316455696,325.632911392 L489.4092827,335.675105485 L491.476793249,344.535864979 L492.067510549,354.578059072 L490.29535865,357.53164557 L494.135021097,363.438818565 L480.548523207,363.143459916 L475.82278481,354.282700422 L477.004219409,349.556962025 L468.438818565,341.877637131 L464.894514768,329.47257384 L469.915611814,318.248945148 L457.510548523,306.729957806 L459.282700422,302.890295359 L471.687763713,299.936708861 L471.392405063,293.438818565 Z" fill="#cee3f5" id="CN.xizang.2747196" stroke="#6e6e6e" stroke-width="0.4"><desc><name>Gaochang District</name><admin_leve>6</admin_leve><wikipedia>de:Gaochang (Turpan)</wikipedia><localname>高昌区 Gaochang قاراھوجا رايونى</localname><boundary>administrative</boundary><id>CN.xizang.2747196</id></desc></path><path d="M300.675105485,309.683544304 L308.945147679,310.569620253 L313.080168776,308.502109705 L321.35021097,309.092827004 L328.438818565,307.911392405 L337.890295359,299.641350211 L348.227848101,299.936708861 L350.29535865,298.459915612 L351.772151899,296.687763713 L356.497890295,302.594936709 L360.337552743,301.708860759 L362.700421941,303.776371308 L370.970464135,303.185654008 L373.924050633,299.641350211 L384.261603376,299.050632911 L392.827004219,299.641350211 L390.464135021,305.548523207 L396.075949367,308.502109705 L406.11814346,309.683544304 L414.092827004,312.341772152 L418.227848101,311.455696203 L428.565400844,315.29535865 L427.974683544,319.430379747 L412.616033755,321.202531646 L412.025316456,327.109704641 L401.392405063,332.721518987 L402.278481013,336.561181435 L396.666666667,340.696202532 L390.464135021,338.924050633 L387.805907173,341.877637131 L375.105485232,342.172995781 L369.789029536,340.105485232 L360.337552743,336.561181435 L343.206751055,332.721518987 L335.52742616,330.358649789 L327.552742616,330.654008439 L318.396624473,327.405063291 L311.603375527,327.109704641 L304.810126582,329.17721519 L296.835443038,325.928270042 L285.907172996,326.223628692 L282.067510549,325.042194093 L279.113924051,316.181434599 L286.497890295,313.227848101 L293.88185654,313.227848101 L300.675105485,309.683544304 Z" fill="#cee3f5" id="CN.xizang.2747241" stroke="#6e6e6e" stroke-width="0.4"><desc><name>Hejing County</name><admin_leve>6</admin_leve><wikipedia>de:Hejing</wikipedia><localname>和静县 (Hejing)</localname><boundary>administrative</boundary><id>CN.xizang.2747241</id></desc></path><path d="M393.122362869,348.375527426 L397.848101266,348.080168776 L399.620253165,342.76371308 L403.755274262,339.219409283 L402.278481013,336.561181435 L406.41350211,339.219409283 L422.658227848,343.05907173 L418.523206751,347.784810127 L418.227848101,356.94092827 L414.683544304,357.53164557 L394.008438819,353.987341772 L393.122362869,348.375527426 Z" fill="#cee3f5" id="CN.xizang.2747281" stroke="#6e6e6e" stroke-width="0.4"><desc><name>Bagrax County</name><admin_leve>6</admin_leve><wikipedia>ug:باغراش ناھىيىسى</wikipedia><localname>博湖县 (Bagrax)</localname><boundary>administrative</boundary><id>CN.xizang.2747281</id></desc></path><path d="M427.974683544,319.430379747 L436.835443038,320.021097046 L448.05907173,326.814345992 L446.877637131,332.130801688 L439.789029536,335.970464135 L442.742616034,341.582278481 L447.172995781,343.64978903 L453.670886076,351.329113924 L454.261603376,359.599156118 L443.333333333,361.371308017 L432.700421941,358.713080169 L426.202531646,359.599156118 L418.227848101,356.94092827 L418.523206751,347.784810127 L422.658227848,343.05907173 L406.41350211,339.219409283 L402.278481013,336.561181435 L401.392405063,332.721518987 L412.025316456,327.109704641 L412.616033755,321.202531646 L427.974683544,319.430379747 Z" fill="#cee3f5" id="CN.xizang.2747282" stroke="#6e6e6e" stroke-width="0.4"><desc><name>Hoxud County</name><admin_leve>6</admin_leve><wikipedia>de:Hoxud</wikipedia><localname>和硕县 (Hoxud)</localname><boundary>administrative</boundary><id>CN.xizang.2747282</id></desc></path><path d="M360.337552743,336.561181435 L369.789029536,340.105485232 L371.856540084,342.76371308 L380.717299578,343.35443038 L383.080168776,346.603375527 L392.23628692,345.421940928 L393.122362869,348.375527426 L394.008438819,353.987341772 L386.919831224,355.464135021 L382.489451477,366.392405063 L374.219409283,366.097046414 L370.084388186,368.164556962 L364.17721519,366.983122363 L359.451476793,368.755274262 L360.042194093,366.097046414 L356.793248945,352.510548523 L358.565400844,343.64978903 L361.814345992,339.219409283 L360.337552743,336.561181435 Z" fill="#cee3f5" id="CN.xizang.2747283" stroke="#6e6e6e" stroke-width="0.4"><desc><name>Korla</name><admin_leve>6</admin_leve><wikipedia>en:Korla</wikipedia><localname>库尔勒市 (Korla)</localname><boundary>administrative</boundary><id>CN.xizang.2747283</id></desc></path><path d="M318.396624473,327.405063291 L327.552742616,330.654008439 L335.52742616,330.358649789 L343.206751055,332.721518987 L360.337552743,336.561181435 L361.814345992,339.219409283 L358.565400844,343.64978903 L356.793248945,352.510548523 L360.042194093,366.097046414 L359.451476793,368.755274262 L343.797468354,369.050632911 L329.620253165,367.869198312 L322.23628692,370.82278481 L319.873417722,357.23628692 L318.101265823,353.101265823 L319.873417722,348.670886076 L318.396624473,344.240506329 L318.396624473,327.405063291 Z" fill="#cee3f5" id="CN.xizang.2747284" stroke="#6e6e6e" stroke-width="0.4"><desc><name>Luntai County</name><admin_leve>6</admin_leve><wikipedia>de:Bügür</wikipedia><localname>轮台县 (Luntai)</localname><boundary>administrative</boundary><id>CN.xizang.2747284</id></desc></path><path d="M303.037974684,420.443037975 L320.464135021,404.789029536 L321.64556962,396.223628692 L329.029535865,398.88185654 L339.071729958,400.063291139 L402.869198312,399.47257384 L407.004219409,441.11814346 L410.253164557,444.957805907 L413.502109705,457.658227848 L417.341772152,458.839662447 L424.725738397,470.654008439 L430.632911392,469.47257384 L437.426160338,471.540084388 L442.151898734,480.991561181 L441.561181435,484.831223629 L428.565400844,488.375527426 L431.814345992,493.691983122 L432.700421941,499.303797468 L431.223628692,507.278481013 L423.544303797,514.662447257 L417.046413502,518.206751055 L393.713080169,521.160337553 L387.510548523,523.523206751 L387.805907173,526.476793249 L380.421940928,533.860759494 L372.447257384,535.042194093 L369.789029536,537.995780591 L359.156118143,534.156118143 L348.523206751,536.814345992 L346.751054852,525.5907173 L339.662447257,520.864978903 L332.278481013,518.797468354 L331.097046414,510.52742616 L325.485232068,506.097046414 L315.443037975,502.552742616 L316.033755274,488.080168776 L319.578059072,483.35443038 L318.691983122,471.540084388 L313.966244726,464.746835443 L302.742616034,457.362869198 L303.037974684,420.443037975 Z" fill="#cee3f5" id="CN.xizang.2747285" stroke="#6e6e6e" stroke-width="0.4"><desc><name>Qiemo County</name><admin_leve>6</admin_leve><wikipedia>de:Qarqan</wikipedia><localname>且末县 (Qiemo)</localname><boundary>administrative</boundary><id>CN.xizang.2747285</id></desc></path><path d="M402.869198312,399.47257384 L434.47257384,399.47257384 L441.856540084,397.109704641 L438.607594937,392.679324895 L444.514767932,387.953586498 L448.64978903,391.793248945 L459.282700422,391.497890295 L469.029535865,389.135021097 L477.594936709,385.29535865 L498.270042194,385.5907173 L503.88185654,382.341772152 L499.156118143,373.481012658 L498.565400844,368.755274262 L494.135021097,363.438818565 L502.995780591,363.438818565 L507.721518987,366.687763713 L528.101265823,367.278481013 L537.848101266,366.687763713 L548.776371308,368.164556962 L562.362869198,365.801687764 L585.400843882,370.82278481 L591.898734177,370.82278481 L602.23628692,374.662447257 L613.755274262,375.843881857 L621.139240506,377.911392405 L619.367088608,384.70464135 L593.966244726,387.362869198 L593.375527426,395.337552743 L589.831223629,400.358649789 L585.105485232,419.852320675 L575.949367089,428.417721519 L578.312236287,435.210970464 L564.430379747,437.573839662 L561.772151899,439.050632911 L548.481012658,441.41350211 L543.164556962,443.481012658 L523.966244726,446.729957806 L517.172995781,451.160337553 L508.312236287,451.160337553 L508.607594937,455.886075949 L512.742616034,458.839662447 L520.421940928,456.476793249 L520.126582278,474.493670886 L528.396624473,477.151898734 L533.713080169,482.172995781 L537.848101266,483.05907173 L544.345991561,496.35021097 L539.029535865,496.64556962 L530.464135021,499.303797468 L526.329113924,503.143459916 L526.624472574,509.345991561 L535.780590717,511.11814346 L535.780590717,517.320675105 L538.438818565,523.818565401 L530.168776371,526.772151899 L525.147679325,523.523206751 L511.561181435,522.341772152 L505.063291139,519.978902954 L499.746835443,525.0 L488.523206751,522.637130802 L480.843881857,518.502109705 L477.594936709,519.683544304 L471.687763713,516.434599156 L466.962025316,518.502109705 L457.510548523,512.594936709 L434.767932489,515.548523207 L429.746835443,517.025316456 L423.544303797,514.662447257 L431.223628692,507.278481013 L432.700421941,499.303797468 L431.814345992,493.691983122 L428.565400844,488.375527426 L441.561181435,484.831223629 L442.151898734,480.991561181 L437.426160338,471.540084388 L430.632911392,469.47257384 L424.725738397,470.654008439 L417.341772152,458.839662447 L413.502109705,457.658227848 L410.253164557,444.957805907 L407.004219409,441.11814346 L402.869198312,399.47257384 Z" fill="#cee3f5" id="CN.xizang.2747286" stroke="#6e6e6e" stroke-width="0.4"><desc><name>Ruoqiang County</name><admin_leve>6</admin_leve><wikipedia>de:Qakilik</wikipedia><localname>若羌县 (Ruoqiang)</localname><boundary>administrative</boundary><id>CN.xizang.2747286</id></desc></path><path d="M369.789029536,340.105485232 L375.105485232,342.172995781 L387.805907173,341.877637131 L390.464135021,338.924050633 L396.666666667,340.696202532 L402.278481013,336.561181435 L403.755274262,339.219409283 L399.620253165,342.76371308 L397.848101266,348.080168776 L393.122362869,348.375527426 L392.23628692,345.421940928 L383.080168776,346.603375527 L380.717299578,343.35443038 L371.856540084,342.76371308 L369.789029536,340.105485232 Z" fill="#cee3f5" id="CN.xizang.2747287" stroke="#6e6e6e" stroke-width="0.4"><desc><name>Yanqi Hui Autonomous County</name><admin_leve>6</admin_leve><wikipedia>de:Yanqi</wikipedia><localname>焉耆回族自治县 (Yanqi)</localname><boundary>administrative</boundary><id>CN.xizang.2747287</id></desc></path><path d="M321.64556962,396.223628692 L322.53164557,381.455696203 L322.23628692,370.82278481 L329.620253165,367.869198312 L343.797468354,369.050632911 L359.451476793,368.755274262 L364.17721519,366.983122363 L370.084388186,368.164556962 L374.219409283,366.097046414 L382.489451477,366.392405063 L386.919831224,355.464135021 L394.008438819,353.987341772 L414.683544304,357.53164557 L418.227848101,356.94092827 L426.202531646,359.599156118 L432.700421941,358.713080169 L443.333333333,361.371308017 L454.261603376,359.599156118 L465.780590717,359.599156118 L467.552742616,361.666666667 L480.548523207,363.143459916 L494.135021097,363.438818565 L498.565400844,368.755274262 L499.156118143,373.481012658 L503.88185654,382.341772152 L498.270042194,385.5907173 L477.594936709,385.29535865 L469.029535865,389.135021097 L459.282700422,391.497890295 L448.64978903,391.793248945 L444.514767932,387.953586498 L438.607594937,392.679324895 L441.856540084,397.109704641 L434.47257384,399.47257384 L402.869198312,399.47257384 L339.071729958,400.063291139 L329.029535865,398.88185654 L321.64556962,396.223628692 Z" fill="#cee3f5" id="CN.xizang.2747288" stroke="#6e6e6e" stroke-width="0.4"><desc><name>Yuli County</name><admin_leve>6</admin_leve><wikipedia>de:Lopnur</wikipedia><localname>尉犁县 (Yuli)</localname><boundary>administrative</boundary><id>CN.xizang.2747288</id></desc></path><path d="M196.708860759,486.603375527 L200.843881857,488.670886076 L196.41350211,496.64556962 L192.869198312,491.329113924 L196.708860759,486.603375527 Z" fill="#cee3f5" id="CN.xizang.2748331" stroke="#6e6e6e" stroke-width="0.4"><desc><name>Hotan City</name><admin_leve>6</admin_leve><wikipedia>de:Hotan (Stadt)</wikipedia><localname>和田市 (Hotan)</localname><boundary>administrative</boundary><id>CN.xizang.2748331</id></desc></path><path d="M140.0,544.789029536 L144.430379747,537.995780591 L149.451476793,534.746835443 L153.88185654,534.451476793 L161.561181435,529.725738397 L157.721518987,527.362869198 L160.379746835,522.341772152 L160.084388186,517.911392405 L165.105485232,512.594936709 L172.194092827,508.164556962 L178.987341772,506.097046414 L184.599156118,500.189873418 L189.915611814,497.53164557 L188.734177215,493.987341772 L190.801687764,488.375527426 L195.52742616,480.991561181 L200.843881857,477.742616034 L211.476793249,465.337552743 L215.021097046,463.565400844 L212.362869198,468.291139241 L211.772151899,477.742616034 L196.708860759,486.603375527 L192.869198312,491.329113924 L196.41350211,496.64556962 L195.232067511,501.075949367 L207.046413502,511.708860759 L210.29535865,519.092827004 L207.046413502,522.046413502 L204.683544304,530.316455696 L210.0,538.58649789 L210.886075949,544.493670886 L206.751054852,547.151898734 L204.388185654,554.240506329 L199.367088608,556.603375527 L192.278481013,573.734177215 L167.46835443,576.392405063 L161.265822785,575.506329114 L158.312236287,572.552742616 L145.611814346,569.894514768 L142.362869198,564.282700422 L140.886075949,555.717299578 L136.751054852,550.696202532 L140.0,544.789029536 Z" fill="#cee3f5" id="CN.xizang.2748332" stroke="#6e6e6e" stroke-width="0.4"><desc><name>Hotan County</name><admin_leve>6</admin_leve><wikipedia>de:Hotan (Kreis)</wikipedia><localname>和田县 (Hotan)</localname><boundary>administrative</boundary><id>CN.xizang.2748332</id></desc></path><path d="M185.780590717,442.299578059 L190.801687764,415.126582278 L200.548523207,420.443037975 L225.063291139,420.147679325 L226.244725738,432.552742616 L224.767932489,438.755274262 L227.130801688,447.025316456 L224.47257384,453.818565401 L216.497890295,459.430379747 L215.021097046,463.565400844 L211.476793249,465.337552743 L200.843881857,477.742616034 L195.52742616,480.991561181 L190.801687764,488.375527426 L188.734177215,493.987341772 L189.915611814,497.53164557 L184.599156118,500.189873418 L178.987341772,506.097046414 L172.194092827,508.164556962 L168.05907173,503.143459916 L170.421940928,494.873417722 L176.033755274,489.852320675 L182.23628692,466.223628692 L185.780590717,442.299578059 Z" fill="#cee3f5" id="CN.xizang.2748333" stroke="#6e6e6e" stroke-width="0.4"><desc><name>Karakax County</name><admin_leve>6</admin_leve><wikipedia>de:Karakax</wikipedia><localname>墨玉县 (Karakax)</localname><boundary>administrative</boundary><id>CN.xizang.2748333</id></desc></path><path d="M264.641350211,420.147679325 L274.683544304,420.147679325 L274.388185654,467.109704641 L271.729957806,497.827004219 L278.227848101,505.506329114 L278.227848101,511.41350211 L273.502109705,518.797468354 L277.932489451,520.274261603 L279.70464135,530.907172996 L283.544303797,537.109704641 L273.502109705,536.223628692 L269.367088608,540.654008439 L260.506329114,544.493670886 L259.620253165,548.037974684 L254.894514768,550.105485232 L246.033755274,550.696202532 L243.966244726,548.628691983 L246.329113924,544.789029536 L246.033755274,538.88185654 L240.717299578,536.518987342 L239.831223629,532.383966245 L243.670886076,527.067510549 L238.35443038,513.481012658 L235.991561181,504.029535865 L232.151898734,498.417721519 L235.696202532,491.033755274 L244.852320675,464.746835443 L250.759493671,457.362869198 L254.599156118,445.548523207 L261.687763713,431.962025316 L264.641350211,420.147679325 Z" fill="#cee3f5" id="CN.xizang.2748334" stroke="#6e6e6e" stroke-width="0.4"><desc><name>Keriya County</name><admin_leve>6</admin_leve><wikipedia>en:Yutian County, Xinjiang</wikipedia><localname>于田县 (Keriya)</localname><boundary>administrative</boundary><id>CN.xizang.2748334</id></desc></path><path d="M196.41350211,496.64556962 L200.843881857,488.670886076 L196.708860759,486.603375527 L211.772151899,477.742616034 L212.362869198,468.291139241 L215.021097046,463.565400844 L216.497890295,459.430379747 L224.47257384,453.818565401 L227.130801688,447.025316456 L224.767932489,438.755274262 L226.244725738,432.552742616 L225.063291139,420.147679325 L230.970464135,420.147679325 L243.966244726,420.147679325 L243.670886076,428.122362869 L228.312236287,466.814345992 L217.679324895,490.738396624 L213.248945148,496.35021097 L213.248945148,500.780590717 L207.046413502,511.708860759 L195.232067511,501.075949367 L196.41350211,496.64556962 Z" fill="#cee3f5" id="CN.xizang.2748335" stroke="#6e6e6e" stroke-width="0.4"><desc><name>Lop County</name><admin_leve>6</admin_leve><wikipedia>de:Lop</wikipedia><localname>洛浦县 (Lop)</localname><boundary>administrative</boundary><id>CN.xizang.2748335</id></desc></path><path d="M274.683544304,420.147679325 L303.037974684,420.443037975 L302.742616034,457.362869198 L313.966244726,464.746835443 L318.691983122,471.540084388 L319.578059072,483.35443038 L316.033755274,488.080168776 L315.443037975,502.552742616 L325.485232068,506.097046414 L331.097046414,510.52742616 L332.278481013,518.797468354 L339.662447257,520.864978903 L346.751054852,525.5907173 L348.523206751,536.814345992 L346.160337553,538.58649789 L334.345991561,541.244725738 L330.801687764,545.379746835 L323.417721519,546.856540084 L308.945147679,547.742616034 L304.810126582,545.970464135 L293.58649789,545.970464135 L289.746835443,543.312236287 L288.860759494,537.700421941 L283.544303797,537.109704641 L279.70464135,530.907172996 L277.932489451,520.274261603 L273.502109705,518.797468354 L278.227848101,511.41350211 L278.227848101,505.506329114 L271.729957806,497.827004219 L274.388185654,467.109704641 L274.683544304,420.147679325 Z" fill="#cee3f5" id="CN.xizang.2748336" stroke="#6e6e6e" stroke-width="0.4"><desc><name>Minfeng County</name><admin_leve>6</admin_leve><wikipedia>ug:نىيە ناھىيىسى</wikipedia><localname>民丰县 (Minfeng)</localname><boundary>administrative</boundary><id>CN.xizang.2748336</id></desc></path><path d="M152.700421941,453.523206751 L164.810126582,447.616033755 L172.489451477,441.11814346 L179.873417722,440.82278481 L185.780590717,442.299578059 L182.23628692,466.223628692 L176.033755274,489.852320675 L170.421940928,494.873417722 L168.05907173,503.143459916 L172.194092827,508.164556962 L165.105485232,512.594936709 L160.084388186,517.911392405 L160.379746835,522.341772152 L157.721518987,527.362869198 L161.561181435,529.725738397 L153.88185654,534.451476793 L149.451476793,534.746835443 L144.430379747,537.995780591 L140.0,544.789029536 L129.071729958,542.721518987 L132.320675105,538.58649789 L132.911392405,527.953586498 L128.481012658,524.4092827 L133.502109705,521.160337553 L124.641350211,516.434599156 L118.438818565,510.52742616 L125.52742616,506.097046414 L120.801687764,502.848101266 L123.459915612,496.94092827 L122.278481013,488.375527426 L124.641350211,482.172995781 L135.864978903,468.291139241 L152.700421941,453.523206751 Z" fill="#cee3f5" id="CN.xizang.2748337" stroke="#6e6e6e" stroke-width="0.4"><desc><name>Pishan County</name><admin_leve>6</admin_leve><wikipedia>ug:گۇما ناھىيىسى</wikipedia><localname>皮山县 (Pishan)</localname><boundary>administrative</boundary><id>CN.xizang.2748337</id></desc></path><path d="M207.046413502,511.708860759 L213.248945148,500.780590717 L213.248945148,496.35021097 L217.679324895,490.738396624 L228.312236287,466.814345992 L243.670886076,428.122362869 L243.966244726,420.147679325 L258.734177215,420.147679325 L264.641350211,420.147679325 L261.687763713,431.962025316 L254.599156118,445.548523207 L250.759493671,457.362869198 L244.852320675,464.746835443 L235.696202532,491.033755274 L232.151898734,498.417721519 L235.991561181,504.029535865 L238.35443038,513.481012658 L243.670886076,527.067510549 L239.831223629,532.383966245 L240.717299578,536.518987342 L246.033755274,538.88185654 L246.329113924,544.789029536 L243.966244726,548.628691983 L241.603375527,547.151898734 L229.493670886,548.333333333 L210.886075949,544.493670886 L210.0,538.58649789 L204.683544304,530.316455696 L207.046413502,522.046413502 L210.29535865,519.092827004 L207.046413502,511.708860759 Z" fill="#cee3f5" id="CN.xizang.2748338" stroke="#6e6e6e" stroke-width="0.4"><desc><name>Qira County</name><admin_leve>6</admin_leve><wikipedia>de:Qira</wikipedia><localname>策勒县 (Qira)</localname><boundary>administrative</boundary><id>CN.xizang.2748338</id></desc></path><path d="M86.5400843882,483.05907173 L96.8776371308,477.151898734 L98.9451476793,477.447257384 L104.852320675,469.17721519 L107.510548523,466.518987342 L114.599156118,465.042194093 L119.324894515,462.383966245 L120.506329114,458.248945148 L122.869198312,453.227848101 L152.700421941,453.523206751 L135.864978903,468.291139241 L124.641350211,482.172995781 L122.278481013,488.375527426 L123.459915612,496.94092827 L120.801687764,502.848101266 L125.52742616,506.097046414 L118.438818565,510.52742616 L124.641350211,516.434599156 L133.502109705,521.160337553 L128.481012658,524.4092827 L132.911392405,527.953586498 L132.320675105,538.58649789 L129.071729958,542.721518987 L117.552742616,543.607594937 L107.805907173,539.767932489 L105.738396624,535.928270042 L106.624472574,525.0 L105.147679325,517.025316456 L101.012658228,515.843881857 L90.0843881857,507.278481013 L85.358649789,505.506329114 L80.9282700422,500.189873418 L82.7004219409,492.805907173 L82.4050632911,486.308016878 L86.5400843882,483.05907173 Z" fill="#cee3f5" id="CN.xizang.2748424" stroke="#6e6e6e" stroke-width="0.4"><desc><name>Kargilik County</name><admin_leve>6</admin_leve><wikipedia>de:Kargilik</wikipedia><localname>叶城县 (Kargilik)</localname><boundary>administrative</boundary><id>CN.xizang.2748424</id></desc></path><path d="M121.097046414,434.620253165 L124.936708861,434.620253165 L128.776371308,429.008438819 L139.70464135,425.168776371 L141.772151899,430.485232068 L147.679324895,433.143459916 L161.856540084,433.734177215 L168.05907173,439.345991561 L172.489451477,441.11814346 L164.810126582,447.616033755 L152.700421941,453.523206751 L122.869198312,453.227848101 L122.278481013,439.641350211 L121.097046414,434.620253165 Z" fill="#cee3f5" id="CN.xizang.2748426" stroke="#6e6e6e" stroke-width="0.4"><desc><name>Makit County</name><admin_leve>6</admin_leve><wikipedia>de:Makit</wikipedia><localname>麦盖提县 (Makit)</localname><boundary>administrative</boundary><id>CN.xizang.2748426</id></desc></path><path d="M127.594936709,400.358649789 L139.4092827,396.518987342 L139.4092827,402.721518987 L147.974683544,404.493670886 L163.924050633,397.109704641 L172.784810127,396.518987342 L194.050632911,400.949367089 L190.801687764,415.126582278 L185.780590717,442.299578059 L179.873417722,440.82278481 L172.489451477,441.11814346 L168.05907173,439.345991561 L161.856540084,433.734177215 L147.679324895,433.143459916 L141.772151899,430.485232068 L139.70464135,425.168776371 L128.776371308,429.008438819 L124.936708861,434.620253165 L121.097046414,434.620253165 L116.666666667,434.029535865 L116.962025316,427.23628692 L137.046413502,415.421940928 L137.637130802,406.265822785 L116.962025316,406.856540084 L119.029535865,404.789029536 L127.594936709,403.607594937 L127.594936709,400.358649789 Z" fill="#cee3f5" id="CN.xizang.2748427" stroke="#6e6e6e" stroke-width="0.4"><desc><name>Maralbexi County</name><admin_leve>6</admin_leve><wikipedia>de:Maralbexi</wikipedia><localname>巴楚县 (Maralbexi)</localname><boundary>administrative</boundary><id>CN.xizang.2748427</id></desc></path><path d="M89.4936708861,421.329113924 L93.0379746835,416.603375527 L98.6497890295,412.76371308 L107.805907173,409.514767932 L116.075949367,409.219409283 L116.962025316,406.856540084 L137.637130802,406.265822785 L137.046413502,415.421940928 L116.962025316,427.23628692 L108.396624473,426.94092827 L90.3797468354,425.464135021 L89.4936708861,421.329113924 Z" fill="#cee3f5" id="CN.xizang.2748428" stroke="#6e6e6e" stroke-width="0.4"><desc><name>Peyziwat County</name><admin_leve>6</admin_leve><wikipedia>de:Payzawat</wikipedia><localname>伽师县 (Peyziwat)</localname><boundary>administrative</boundary><id>CN.xizang.2748428</id></desc></path><path d="M120.506329114,458.248945148 L119.324894515,462.383966245 L114.599156118,465.042194093 L107.510548523,466.518987342 L104.852320675,469.17721519 L102.489451477,466.223628692 L113.417721519,458.544303797 L120.506329114,458.248945148 Z" fill="#cee3f5" id="CN.xizang.2748429" stroke="#6e6e6e" stroke-width="0.4"><desc><name>Poskam County</name><admin_leve>6</admin_leve><wikipedia>de:Poskam</wikipedia><localname>泽普县 (Bagrax)</localname><boundary>administrative</boundary><id>CN.xizang.2748429</id></desc></path><path d="M61.1392405063,415.421940928 L66.4556962025,417.489451477 L87.4261603376,417.784810127 L93.0379746835,416.603375527 L89.4936708861,421.329113924 L82.1097046414,423.101265823 L76.2025316456,422.510548523 L72.9535864979,426.35021097 L69.7046413502,431.371308017 L64.388185654,435.506329114 L58.1856540084,434.029535865 L54.3459915612,426.35021097 L55.2320675105,418.670886076 L61.1392405063,415.421940928 Z" fill="#cee3f5" id="CN.xizang.2748430" stroke="#6e6e6e" stroke-width="0.4"><desc><name>Shufu County</name><admin_leve>6</admin_leve><wikipedia>en:Shufu County</wikipedia><localname>疏附县 (Shufu)</localname><boundary>administrative</boundary><id>CN.xizang.2748430</id></desc></path><path d="M72.9535864979,426.35021097 L76.2025316456,422.510548523 L82.1097046414,423.101265823 L89.4936708861,421.329113924 L90.3797468354,425.464135021 L89.7890295359,432.257383966 L96.582278481,433.143459916 L104.261603376,436.097046414 L101.603375527,439.936708861 L86.835443038,434.915611814 L80.0421940928,434.029535865 L72.9535864979,426.35021097 Z" fill="#cee3f5" id="CN.xizang.2748431" stroke="#6e6e6e" stroke-width="0.4"><desc><name>Shule County</name><admin_leve>6</admin_leve><wikipedia>de:Shule</wikipedia><localname>疏勒县 (Shule)</localname><boundary>administrative</boundary><id>CN.xizang.2748431</id></desc></path><path d="M39.8734177215,454.70464135 L48.7341772152,460.316455696 L55.8227848101,462.088607595 L57.2995780591,468.291139241 L61.7299578059,469.767932489 L71.4767932489,469.767932489 L71.1814345992,473.902953586 L83.8818565401,474.493670886 L86.5400843882,483.05907173 L82.4050632911,486.308016878 L82.7004219409,492.805907173 L80.9282700422,500.189873418 L85.358649789,505.506329114 L90.0843881857,507.278481013 L101.012658228,515.843881857 L105.147679325,517.025316456 L106.624472574,525.0 L105.738396624,535.928270042 L107.805907173,539.767932489 L104.852320675,539.767932489 L89.7890295359,530.907172996 L86.2447257384,532.679324895 L79.746835443,532.383966245 L78.5654008439,527.067510549 L73.8396624473,523.818565401 L77.0886075949,519.978902954 L73.5443037975,509.641350211 L66.7510548523,504.324894515 L57.5949367089,503.734177215 L55.8227848101,498.122362869 L48.4388185654,496.35021097 L42.2362869198,497.53164557 L31.3080168776,496.054852321 L28.05907173,492.805907173 L29.5358649789,489.556962025 L38.9873417722,490.147679325 L48.7341772152,486.898734177 L49.3248945148,483.945147679 L42.5316455696,479.514767932 L43.7130801688,473.902953586 L42.2362869198,465.337552743 L39.2827004219,463.565400844 L38.1012658228,455.5907173 L39.8734177215,454.70464135 Z" fill="#cee3f5" id="CN.xizang.2748432" stroke="#6e6e6e" stroke-width="0.4"><desc><name>Taxkorgan Tajik Autonomous County</name><admin_leve>6</admin_leve><wikipedia>de:Taxkorgan (Kaxgar)</wikipedia><localname>塔什库尔干塔吉克自治县 (Taxkorgan)</localname><boundary>administrative</boundary><id>CN.xizang.2748432</id></desc></path><path d="M83.8818565401,474.493670886 L89.4936708861,470.358649789 L93.9240506329,457.953586498 L93.9240506329,453.523206751 L101.308016878,440.82278481 L108.691983122,442.890295359 L116.666666667,434.029535865 L121.097046414,434.620253165 L122.278481013,439.641350211 L122.869198312,453.227848101 L120.506329114,458.248945148 L113.417721519,458.544303797 L102.489451477,466.223628692 L104.852320675,469.17721519 L98.9451476793,477.447257384 L96.8776371308,477.151898734 L86.5400843882,483.05907173 L83.8818565401,474.493670886 Z" fill="#cee3f5" id="CN.xizang.2748433" stroke="#6e6e6e" stroke-width="0.4"><desc><name>Yarkant</name><admin_leve>6</admin_leve><wikipedia>zh:莎车县</wikipedia><localname>莎车县</localname><boundary>administrative</boundary><id>CN.xizang.2748433</id></desc></path><path d="M80.0421940928,434.029535865 L86.835443038,434.915611814 L101.603375527,439.936708861 L101.308016878,440.82278481 L93.9240506329,453.523206751 L74.135021097,442.890295359 L68.8185654008,436.983122363 L80.0421940928,434.029535865 Z" fill="#cee3f5" id="CN.xizang.2748434" stroke="#6e6e6e" stroke-width="0.4"><desc><name>Yengisar County</name><admin_leve>6</admin_leve><wikipedia>de:Yengisar</wikipedia><localname>英吉沙县 (Yengisar)</localname><boundary>administrative</boundary><id>CN.xizang.2748434</id></desc></path><path d="M90.3797468354,425.464135021 L108.396624473,426.94092827 L116.962025316,427.23628692 L116.666666667,434.029535865 L108.691983122,442.890295359 L101.308016878,440.82278481 L101.603375527,439.936708861 L104.261603376,436.097046414 L96.582278481,433.143459916 L89.7890295359,432.257383966 L90.3797468354,425.464135021 Z" fill="#cee3f5" id="CN.xizang.2748435" stroke="#6e6e6e" stroke-width="0.4"><desc><name>Yopurga County</name><admin_leve>6</admin_leve><wikipedia>de:Yopurga</wikipedia><localname>岳普湖县 (Yopurga)</localname><boundary>administrative</boundary><id>CN.xizang.2748435</id></desc></path><path d="M156.835443038,413.05907173 L165.400843882,407.742616034 L168.64978903,403.902953586 L181.94092827,401.835443038 L184.894514768,404.493670886 L184.008438819,409.219409283 L175.443037975,408.628691983 L174.556962025,413.05907173 L167.172995781,416.603375527 L162.447257384,416.898734177 L156.835443038,413.05907173 Z" fill="#cee3f5" id="CN.xizang.2748778" stroke="#6e6e6e" stroke-width="0.4"><desc><name>Tumxuk City</name><admin_leve>6</admin_leve><wikipedia>de:Tumxuk</wikipedia><localname>图木舒克市 (Tumxuk)</localname><boundary>administrative</boundary><id>CN.xizang.2748778</id></desc></path><path d="M216.202531646,385.886075949 L220.042194093,383.523206751 L224.47257384,384.70464135 L233.037974684,383.523206751 L255.485232068,376.139240506 L252.827004219,380.864978903 L258.438818565,385.29535865 L258.438818565,390.611814346 L252.23628692,391.497890295 L237.172995781,391.793248945 L229.198312236,392.679324895 L220.337552743,393.565400844 L221.814345992,389.135021097 L216.202531646,385.886075949 Z" fill="#cee3f5" id="CN.xizang.2748887" stroke="#6e6e6e" stroke-width="0.4"><desc><name>Aral City</name><admin_leve>6</admin_leve><wikipedia>de:Aral (Xinjiang)</wikipedia><localname>阿拉尔市 / Aral / ئارال</localname><boundary>administrative</boundary><id>CN.xizang.2748887</id></desc></path><path d="M189.620253165,381.455696203 L191.392405063,377.616033755 L197.594936709,374.662447257 L197.299578059,369.936708861 L206.751054852,368.459915612 L215.021097046,378.206751055 L220.928270042,378.797468354 L229.789029536,374.957805907 L231.561181435,370.232067511 L243.966244726,366.392405063 L251.054852321,370.232067511 L255.485232068,376.139240506 L233.037974684,383.523206751 L224.47257384,384.70464135 L220.042194093,383.523206751 L216.202531646,385.886075949 L206.751054852,377.616033755 L202.911392405,378.206751055 L199.662447257,386.772151899 L195.232067511,393.860759494 L189.915611814,392.383966245 L187.552742616,389.135021097 L191.392405063,384.70464135 L189.620253165,381.455696203 M229.198312236,392.679324895 L237.172995781,391.793248945 L252.23628692,391.497890295 L258.438818565,390.611814346 L259.324894515,392.383966245 L258.734177215,420.147679325 L243.966244726,420.147679325 L230.970464135,420.147679325 L231.265822785,403.312236287 L229.198312236,392.679324895 Z" fill="#cee3f5" id="CN.xizang.2748928" stroke="#6e6e6e" stroke-width="0.4"><desc><name>Aksu City</name><admin_leve>6</admin_leve><wikipedia>de:Aksu (Stadt)</wikipedia><localname>阿克苏市 (Aksu)</localname><boundary>administrative</boundary><id>CN.xizang.2748928</id></desc></path><path d="M190.801687764,415.126582278 L194.050632911,400.949367089 L195.232067511,393.860759494 L199.662447257,386.772151899 L202.911392405,378.206751055 L206.751054852,377.616033755 L216.202531646,385.886075949 L221.814345992,389.135021097 L220.337552743,393.565400844 L229.198312236,392.679324895 L231.265822785,403.312236287 L230.970464135,420.147679325 L225.063291139,420.147679325 L200.548523207,420.443037975 L190.801687764,415.126582278 Z" fill="#cee3f5" id="CN.xizang.2748929" stroke="#6e6e6e" stroke-width="0.4"><desc><name>Awat County</name><admin_leve>6</admin_leve><wikipedia>de:Awat</wikipedia><localname>阿瓦提县 (Awat)</localname><boundary>administrative</boundary><id>CN.xizang.2748929</id></desc></path><path d="M217.088607595,332.721518987 L225.949367089,332.721518987 L228.607594937,335.379746835 L252.827004219,331.244725738 L261.097046414,330.949367089 L271.729957806,326.814345992 L282.067510549,325.042194093 L285.907172996,326.223628692 L291.223628692,331.244725738 L287.088607595,339.219409283 L289.156118143,344.831223629 L277.932489451,351.919831224 L265.52742616,354.873417722 L243.670886076,358.713080169 L243.670886076,361.666666667 L231.265822785,359.303797468 L230.084388186,352.510548523 L225.949367089,349.556962025 L225.063291139,344.240506329 L219.156118143,338.333333333 L217.088607595,332.721518987 Z" fill="#cee3f5" id="CN.xizang.2748930" stroke="#6e6e6e" stroke-width="0.4"><desc><name>Baicheng County</name><admin_leve>6</admin_leve><wikipedia>en:Baicheng County</wikipedia><localname>拜城县 (Baicheng)</localname><boundary>administrative</boundary><id>CN.xizang.2748930</id></desc></path><path d="M139.4092827,396.518987342 L142.953586498,392.088607595 L152.700421941,387.953586498 L153.88185654,382.046413502 L162.151898734,377.911392405 L169.535864979,376.139240506 L175.147679325,379.978902954 L181.94092827,382.341772152 L189.620253165,381.455696203 L191.392405063,384.70464135 L187.552742616,389.135021097 L189.915611814,392.383966245 L195.232067511,393.860759494 L194.050632911,400.949367089 L172.784810127,396.518987342 L163.924050633,397.109704641 L147.974683544,404.493670886 L139.4092827,402.721518987 L139.4092827,396.518987342 Z" fill="#cee3f5" id="CN.xizang.2748931" stroke="#6e6e6e" stroke-width="0.4"><desc><name>Kalpin County</name><admin_leve>6</admin_leve><wikipedia>de:Kalpin</wikipedia><localname>柯坪县 (Kalpin)</localname><boundary>administrative</boundary><id>CN.xizang.2748931</id></desc></path><path d="M277.932489451,351.919831224 L289.156118143,344.831223629 L287.088607595,339.219409283 L291.223628692,331.244725738 L285.907172996,326.223628692 L296.835443038,325.928270042 L304.810126582,329.17721519 L311.603375527,327.109704641 L318.396624473,327.405063291 L318.396624473,344.240506329 L319.873417722,348.670886076 L318.101265823,353.101265823 L319.873417722,357.23628692 L322.23628692,370.82278481 L322.53164557,381.455696203 L316.033755274,377.616033755 L309.535864979,370.232067511 L303.037974684,373.185654008 L293.291139241,367.278481013 L285.907172996,360.485232068 L280.0,359.894514768 L280.5907173,353.396624473 L277.932489451,351.919831224 Z" fill="#cee3f5" id="CN.xizang.2748932" stroke="#6e6e6e" stroke-width="0.4"><desc><name>Kuqa County</name><admin_leve>6</admin_leve><wikipedia>de:Kuqa</wikipedia><localname>库车县 (Kuqa)</localname><boundary>administrative</boundary><id>CN.xizang.2748932</id></desc></path><path d="M277.932489451,351.919831224 L280.5907173,353.396624473 L280.0,359.894514768 L276.751054852,364.029535865 L266.41350211,369.641350211 L260.506329114,371.41350211 L255.485232068,376.139240506 L251.054852321,370.232067511 L243.966244726,366.392405063 L243.670886076,361.666666667 L243.670886076,358.713080169 L265.52742616,354.873417722 L277.932489451,351.919831224 Z" fill="#cee3f5" id="CN.xizang.2748933" stroke="#6e6e6e" stroke-width="0.4"><desc><name>Toksu County</name><admin_leve>6</admin_leve><wikipedia>de:Toksu</wikipedia><localname>新和县 (Toksu)</localname><boundary>administrative</boundary><id>CN.xizang.2748933</id></desc></path><path d="M182.23628692,348.670886076 L186.075949367,356.64556962 L186.075949367,362.257383966 L190.210970464,368.459915612 L197.299578059,369.936708861 L197.594936709,374.662447257 L191.392405063,377.616033755 L189.620253165,381.455696203 L181.94092827,382.341772152 L175.147679325,379.978902954 L169.535864979,376.139240506 L162.151898734,377.911392405 L163.628691983,375.548523207 L159.198312236,369.345991561 L148.565400844,361.962025316 L156.540084388,359.894514768 L165.400843882,354.578059072 L182.23628692,348.670886076 Z" fill="#cee3f5" id="CN.xizang.2748934" stroke="#6e6e6e" stroke-width="0.4"><desc><name>Uqturpan County</name><admin_leve>6</admin_leve><wikipedia>de:Uqturpan</wikipedia><localname>乌什县 (Uqturpan)</localname><boundary>administrative</boundary><id>CN.xizang.2748934</id></desc></path><path d="M182.23628692,348.670886076 L190.801687764,346.898734177 L193.459915612,343.05907173 L202.025316456,342.76371308 L203.502109705,336.856540084 L206.455696203,333.902953586 L217.088607595,332.721518987 L219.156118143,338.333333333 L225.063291139,344.240506329 L225.949367089,349.556962025 L230.084388186,352.510548523 L231.265822785,359.303797468 L243.670886076,361.666666667 L243.966244726,366.392405063 L231.561181435,370.232067511 L229.789029536,374.957805907 L220.928270042,378.797468354 L215.021097046,378.206751055 L206.751054852,368.459915612 L197.299578059,369.936708861 L190.210970464,368.459915612 L186.075949367,362.257383966 L186.075949367,356.64556962 L182.23628692,348.670886076 Z" fill="#cee3f5" id="CN.xizang.2748935" stroke="#6e6e6e" stroke-width="0.4"><desc><name>Wensu County</name><admin_leve>6</admin_leve><wikipedia>en:Wensu County</wikipedia><localname>温宿县 (Wensu)</localname><boundary>administrative</boundary><id>CN.xizang.2748935</id></desc></path><path d="M255.485232068,376.139240506 L260.506329114,371.41350211 L266.41350211,369.641350211 L276.751054852,364.029535865 L280.0,359.894514768 L285.907172996,360.485232068 L293.291139241,367.278481013 L303.037974684,373.185654008 L309.535864979,370.232067511 L316.033755274,377.616033755 L322.53164557,381.455696203 L321.64556962,396.223628692 L320.464135021,404.789029536 L303.037974684,420.443037975 L274.683544304,420.147679325 L264.641350211,420.147679325 L258.734177215,420.147679325 L259.324894515,392.383966245 L258.438818565,390.611814346 L258.438818565,385.29535865 L252.827004219,380.864978903 L255.485232068,376.139240506 Z" fill="#cee3f5" id="CN.xizang.2748936" stroke="#6e6e6e" stroke-width="0.4"><desc><name>Xayar County</name><admin_leve>6</admin_leve><wikipedia>de:Xayar</wikipedia><localname>沙雅县 (Xayar)</localname><boundary>administrative</boundary><id>CN.xizang.2748936</id></desc></path><path d="M219.746835443,260.949367089 L234.514767932,259.47257384 L243.966244726,260.358649789 L248.987341772,250.611814346 L249.282700422,243.818565401 L246.033755274,242.341772152 L253.122362869,240.864978903 L256.962025316,244.70464135 L277.046413502,245.0 L280.5907173,246.476793249 L277.046413502,250.316455696 L280.29535865,255.632911392 L277.932489451,260.063291139 L271.434599156,262.130801688 L259.620253165,261.835443038 L261.687763713,266.561181435 L254.008438819,268.924050633 L251.64556962,271.582278481 L246.919831224,269.219409283 L239.535864979,268.628691983 L229.789029536,266.856540084 L217.974683544,263.016877637 L219.746835443,260.949367089 Z" fill="#cee3f5" id="CN.xizang.2751052" stroke="#6e6e6e" stroke-width="0.4"><desc><name>Bole City</name><admin_leve>6</admin_leve><wikipedia>de:Bortala (Stadt)</wikipedia><localname>Бортал / 博乐市 / Bole</localname><boundary>administrative</boundary><id>CN.xizang.2751052</id></desc></path><path d="M280.5907173,246.476793249 L290.928270042,250.907172996 L304.219409283,252.383966245 L310.421940928,255.337552743 L316.033755274,260.063291139 L313.375527426,265.379746835 L307.172995781,267.742616034 L302.447257384,277.194092827 L303.628691983,281.033755274 L289.156118143,279.556962025 L280.29535865,279.852320675 L267.594936709,274.831223629 L259.620253165,273.35443038 L251.64556962,271.582278481 L254.008438819,268.924050633 L261.687763713,266.561181435 L259.620253165,261.835443038 L271.434599156,262.130801688 L277.932489451,260.063291139 L280.29535865,255.632911392 L277.046413502,250.316455696 L280.5907173,246.476793249 Z" fill="#cee3f5" id="CN.xizang.2751053" stroke="#6e6e6e" stroke-width="0.4"><desc><name>Jinghe County</name><admin_leve>6</admin_leve><wikipedia>de:Jinghe</wikipedia><localname>Жин / 精河县 / Jinghe</localname><boundary>administrative</boundary><id>CN.xizang.2751053</id></desc></path><path d="M246.033755274,242.341772152 L249.282700422,243.818565401 L248.987341772,250.611814346 L243.966244726,260.358649789 L234.514767932,259.47257384 L219.746835443,260.949367089 L203.206751055,257.109704641 L199.071729958,257.700421941 L194.345991561,254.451476793 L200.548523207,250.316455696 L204.388185654,250.907172996 L220.632911392,246.772151899 L225.358649789,247.953586498 L232.151898734,245.0 L246.033755274,242.341772152 Z" fill="#cee3f5" id="CN.xizang.2751054" stroke="#6e6e6e" stroke-width="0.4"><desc><name>Wenquan County</name><admin_leve>6</admin_leve><wikipedia>de:Arixang</wikipedia><localname>Рашаан / 温泉县 / Wenquan</localname><boundary>administrative</boundary><id>CN.xizang.2751054</id></desc></path><path d="M246.329113924,300.52742616 L250.759493671,293.734177215 L265.82278481,294.620253165 L274.683544304,294.915611814 L274.092827004,302.299578059 L286.793248945,305.253164557 L296.244725738,309.092827004 L300.675105485,309.683544304 L293.88185654,313.227848101 L286.497890295,313.227848101 L279.113924051,316.181434599 L273.797468354,310.569620253 L271.139240506,303.185654008 L259.029535865,303.481012658 L246.329113924,300.52742616 Z" fill="#cee3f5" id="CN.xizang.2751489" stroke="#6e6e6e" stroke-width="0.4"><desc><name>Gongliu County</name><admin_leve>6</admin_leve><wikipedia>de:Tokkuztara</wikipedia><localname>巩留县 (Gongliu)</localname><boundary>administrative</boundary><id>CN.xizang.2751489</id></desc></path><path d="M203.206751055,257.109704641 L219.746835443,260.949367089 L217.974683544,263.016877637 L229.789029536,266.856540084 L239.535864979,268.628691983 L238.945147679,274.831223629 L235.991561181,275.717299578 L230.970464135,285.168776371 L225.358649789,283.987341772 L213.839662447,287.827004219 L210.0,278.966244726 L208.523206751,267.447257384 L210.5907173,263.607594937 L203.206751055,257.109704641 Z" fill="#cee3f5" id="CN.xizang.2751490" stroke="#6e6e6e" stroke-width="0.4"><desc><name>Huocheng County</name><admin_leve>6</admin_leve><wikipedia>de:Huocheng</wikipedia><localname>霍城县 (Huocheng)</localname><boundary>administrative</boundary><id>CN.xizang.2751490</id></desc></path><path d="M344.388185654,270.400843882 L347.046413502,262.426160338 L351.476793249,259.17721519 L352.067510549,263.607594937 L357.974683544,267.151898734 L354.430379747,271.877637131 L344.388185654,270.400843882 Z" fill="#cee3f5" id="CN.xizang.2751492" stroke="#6e6e6e" stroke-width="0.4"><desc><name>Kuytun City</name><admin_leve>6</admin_leve><wikipedia>de:Kuytun</wikipedia><localname>奎屯市 / Kuytun</localname><boundary>administrative</boundary><id>CN.xizang.2751492</id></desc></path><path d="M259.620253165,273.35443038 L267.594936709,274.831223629 L280.29535865,279.852320675 L289.156118143,279.556962025 L303.628691983,281.033755274 L308.64978903,283.396624473 L317.215189873,283.987341772 L329.029535865,290.485232068 L335.82278481,289.894514768 L344.092827004,293.438818565 L350.29535865,298.459915612 L348.227848101,299.936708861 L337.890295359,299.641350211 L330.801687764,297.869198312 L317.215189873,296.983122363 L301.265822785,292.552742616 L290.928270042,294.029535865 L287.383966245,296.983122363 L280.0,296.983122363 L274.683544304,294.915611814 L265.82278481,294.620253165 L264.345991561,286.94092827 L257.552742616,287.53164557 L257.848101266,283.396624473 L262.869198312,277.194092827 L259.620253165,273.35443038 Z" fill="#cee3f5" id="CN.xizang.2751493" stroke="#6e6e6e" stroke-width="0.4"><desc><name>Nilka County</name><admin_leve>6</admin_leve><wikipedia>de:Nilka</wikipedia><localname>尼勒克县 (Nilka)</localname><boundary>administrative</boundary><id>CN.xizang.2751493</id></desc></path><path d="M213.839662447,287.827004219 L225.358649789,283.987341772 L230.970464135,285.168776371 L241.603375527,287.23628692 L250.759493671,293.734177215 L246.329113924,300.52742616 L240.421940928,301.11814346 L230.084388186,301.41350211 L221.814345992,303.481012658 L220.928270042,298.755274262 L213.839662447,287.827004219 Z" fill="#cee3f5" id="CN.xizang.2751494" stroke="#6e6e6e" stroke-width="0.4"><desc><name>Qapqal Xibe Autonomous County</name><admin_leve>6</admin_leve><wikipedia>de:Qapqal</wikipedia><localname>察布查尔锡伯自治县 (Qapqal)</localname><boundary>administrative</boundary><id>CN.xizang.2751494</id></desc></path><path d="M240.421940928,301.11814346 L246.329113924,300.52742616 L259.029535865,303.481012658 L271.139240506,303.185654008 L273.797468354,310.569620253 L279.113924051,316.181434599 L282.067510549,325.042194093 L271.729957806,326.814345992 L261.097046414,330.949367089 L252.827004219,331.244725738 L253.417721519,323.860759494 L243.080168776,324.451476793 L242.784810127,313.523206751 L248.101265823,310.274261603 L240.421940928,301.11814346 Z" fill="#cee3f5" id="CN.xizang.2751495" stroke="#6e6e6e" stroke-width="0.4"><desc><name>Tekes County</name><admin_leve>6</admin_leve><wikipedia>fr:Xian de Tekes</wikipedia><localname>特克斯县 (Tekes)</localname><boundary>administrative</boundary><id>CN.xizang.2751495</id></desc></path><path d="M274.683544304,294.915611814 L280.0,296.983122363 L287.383966245,296.983122363 L290.928270042,294.029535865 L301.265822785,292.552742616 L317.215189873,296.983122363 L330.801687764,297.869198312 L337.890295359,299.641350211 L328.438818565,307.911392405 L321.35021097,309.092827004 L313.080168776,308.502109705 L308.945147679,310.569620253 L300.675105485,309.683544304 L296.244725738,309.092827004 L286.793248945,305.253164557 L274.092827004,302.299578059 L274.683544304,294.915611814 Z" fill="#cee3f5" id="CN.xizang.2751496" stroke="#6e6e6e" stroke-width="0.4"><desc><name>Xinyuan County</name><admin_leve>6</admin_leve><wikipedia>de:Künes</wikipedia><localname>新源县 (Xinyuan)</localname><boundary>administrative</boundary><id>CN.xizang.2751496</id></desc></path><path d="M230.970464135,285.168776371 L235.991561181,275.717299578 L235.991561181,281.919831224 L241.603375527,287.23628692 L230.970464135,285.168776371 Z" fill="#cee3f5" id="CN.xizang.2751497" stroke="#6e6e6e" stroke-width="0.4"><desc><name>Yining City</name><admin_leve>6</admin_leve><wikipedia>de:Gulja (Stadt)</wikipedia><localname>伊宁市 (Yining)</localname><boundary>administrative</boundary><id>CN.xizang.2751497</id></desc></path><path d="M235.991561181,275.717299578 L238.945147679,274.831223629 L239.535864979,268.628691983 L246.919831224,269.219409283 L251.64556962,271.582278481 L259.620253165,273.35443038 L262.869198312,277.194092827 L257.848101266,283.396624473 L257.552742616,287.53164557 L264.345991561,286.94092827 L265.82278481,294.620253165 L250.759493671,293.734177215 L241.603375527,287.23628692 L235.991561181,281.919831224 L235.991561181,275.717299578 Z" fill="#cee3f5" id="CN.xizang.2751498" stroke="#6e6e6e" stroke-width="0.4"><desc><name>Yining County</name><admin_leve>6</admin_leve><wikipedia>de:Gulja (Kreis)</wikipedia><localname>拜城县 (Yining)</localname><boundary>administrative</boundary><id>CN.xizang.2751498</id></desc></path><path d="M221.814345992,303.481012658 L230.084388186,301.41350211 L240.421940928,301.11814346 L248.101265823,310.274261603 L242.784810127,313.523206751 L243.080168776,324.451476793 L253.417721519,323.860759494 L252.827004219,331.244725738 L228.607594937,335.379746835 L225.949367089,332.721518987 L217.088607595,332.721518987 L206.455696203,333.902953586 L202.911392405,324.451476793 L206.455696203,317.953586498 L214.135021097,316.772151899 L209.70464135,312.932489451 L215.907172996,308.797468354 L221.814345992,308.797468354 L221.814345992,303.481012658 Z" fill="#cee3f5" id="CN.xizang.2751499" stroke="#6e6e6e" stroke-width="0.4"><desc><name>Zhaosu County</name><admin_leve>6</admin_leve><wikipedia>ug:موڭغۇلكۈرە ناھىيىسى</wikipedia><localname>Бортал / 昭苏县 / Bole</localname><boundary>administrative</boundary><id>CN.xizang.2751499</id></desc></path><path d="M348.818565401,231.41350211 L357.383966245,226.687763713 L369.493670886,230.52742616 L366.244725738,236.139240506 L359.451476793,239.092827004 L361.814345992,236.434599156 L348.818565401,231.41350211 Z" fill="#cee3f5" id="CN.xizang.2751562" stroke="#6e6e6e" stroke-width="0.4"><desc><name>Baijiantan District</name><admin_leve>6</admin_leve><wikipedia>de:Baijiantan</wikipedia><localname>白碱滩区 (Baijiantan)</localname><boundary>administrative</boundary><id>CN.xizang.2751562</id></desc></path><path d="M344.388185654,270.400843882 L354.430379747,271.877637131 L353.839662447,272.76371308 L348.523206751,276.898734177 L344.092827004,276.898734177 L344.388185654,270.400843882 Z" fill="#cee3f5" id="CN.xizang.2751563" stroke="#6e6e6e" stroke-width="0.4"><desc><admin_leve>6</admin_leve><localname>独山子区 (Dushanzi)</localname><boundary>administrative</boundary><id>CN.xizang.2751563</id><name>Dushanzi District</name></desc></path><path d="M348.818565401,231.41350211 L361.814345992,236.434599156 L359.451476793,239.092827004 L358.565400844,241.751054852 L358.860759494,250.907172996 L352.658227848,253.860759494 L351.476793249,259.17721519 L347.046413502,262.426160338 L339.662447257,256.814345992 L340.843881857,247.658227848 L338.776371308,242.637130802 L344.683544304,233.481012658 L348.818565401,231.41350211 Z" fill="#cee3f5" id="CN.xizang.2751564" stroke="#6e6e6e" stroke-width="0.4"><desc><name>Karamay District</name><admin_leve>6</admin_leve><wikipedia>de:Karamay (Stadtbezirk)</wikipedia><localname>克拉玛依区 (Karamay)</localname><boundary>administrative</boundary><id>CN.xizang.2751564</id></desc></path><path d="M357.383966245,226.687763713 L362.700421941,216.94092827 L368.016877637,214.873417722 L376.286919831,214.873417722 L382.194092827,219.008438819 L369.493670886,230.52742616 L357.383966245,226.687763713 Z" fill="#cee3f5" id="CN.xizang.2751565" stroke="#6e6e6e" stroke-width="0.4"><desc><name>Urho District</name><admin_leve>6</admin_leve><wikipedia>de:Orku</wikipedia><localname>乌尔禾区 (Urho)</localname><boundary>administrative</boundary><id>CN.xizang.2751565</id></desc></path><path d="M302.742616034,208.670886076 L304.514767932,204.240506329 L305.991561181,192.130801688 L308.945147679,188.88185654 L317.805907173,191.244725738 L342.911392405,190.063291139 L349.4092827,194.493670886 L343.797468354,196.561181435 L341.434599156,201.582278481 L347.932489451,206.012658228 L348.523206751,211.329113924 L355.907172996,214.873417722 L353.248945148,216.35021097 L326.371308017,214.578059072 L316.919831224,215.759493671 L311.308016878,213.987341772 L308.64978903,210.147679325 L302.742616034,208.670886076 Z" fill="#cee3f5" id="CN.xizang.2751613" stroke="#6e6e6e" stroke-width="0.4"><desc><name>Emin County</name><admin_leve>6</admin_leve><wikipedia>de:Dorbiljin</wikipedia><localname>额敏县 (Emin)</localname><boundary>administrative</boundary><id>CN.xizang.2751613</id></desc></path><path d="M349.4092827,194.493670886 L360.337552743,188.58649789 L368.312236287,188.88185654 L380.717299578,188.291139241 L385.147679325,190.063291139 L393.417721519,187.700421941 L397.552742616,188.58649789 L413.502109705,186.814345992 L414.388185654,192.721518987 L419.113924051,198.628691983 L414.092827004,205.717299578 L422.658227848,220.780590717 L422.658227848,241.751054852 L415.864978903,241.751054852 L403.164556962,241.455696203 L371.561181435,241.455696203 L358.565400844,241.751054852 L359.451476793,239.092827004 L366.244725738,236.139240506 L369.493670886,230.52742616 L382.194092827,219.008438819 L376.286919831,214.873417722 L368.016877637,214.873417722 L362.700421941,216.94092827 L355.907172996,214.873417722 L348.523206751,211.329113924 L347.932489451,206.012658228 L341.434599156,201.582278481 L343.797468354,196.561181435 L349.4092827,194.493670886 Z" fill="#cee3f5" id="CN.xizang.2751614" stroke="#6e6e6e" stroke-width="0.4"><desc><name>Hoboksar Mongol Autonomous County</name><admin_leve>6</admin_leve><wikipedia>de:Hoboksar</wikipedia><localname>Ховогсайр / 和布克赛尔蒙古自治县 / Hoboksar</localname><boundary>administrative</boundary><id>CN.xizang.2751614</id></desc></path><path d="M353.839662447,272.76371308 L354.430379747,271.877637131 L357.974683544,267.151898734 L352.067510549,263.607594937 L351.476793249,259.17721519 L352.658227848,253.860759494 L358.860759494,250.907172996 L358.565400844,241.751054852 L371.561181435,241.455696203 L371.561181435,254.156118143 L377.46835443,256.223628692 L380.421940928,262.721518987 L378.05907173,268.333333333 L381.308016878,277.489451477 L384.556962025,278.375527426 L374.514767932,288.417721519 L372.447257384,294.029535865 L365.654008439,300.52742616 L360.337552743,301.708860759 L356.497890295,302.594936709 L351.772151899,296.687763713 L352.067510549,287.53164557 L354.135021097,283.987341772 L353.839662447,272.76371308 Z" fill="#cee3f5" id="CN.xizang.2751615" stroke="#6e6e6e" stroke-width="0.4"><desc><name>Shawan County</name><admin_leve>6</admin_leve><wikipedia>de:Shawan (Tacheng)</wikipedia><localname>沙湾县 (Shawan)</localname><boundary>administrative</boundary><id>CN.xizang.2751615</id></desc></path><path d="M281.476793249,206.012658228 L283.248945148,199.810126582 L291.518987342,183.565400844 L300.675105485,185.042194093 L308.945147679,188.88185654 L305.991561181,192.130801688 L304.514767932,204.240506329 L302.742616034,208.670886076 L295.358649789,206.308016878 L281.476793249,206.012658228 Z" fill="#cee3f5" id="CN.xizang.2751616" stroke="#6e6e6e" stroke-width="0.4"><desc><name>Tacheng City</name><admin_leve>6</admin_leve><wikipedia>de:Tacheng (Stadt)</wikipedia><localname>塔城市 (Tacheng)</localname><boundary>administrative</boundary><id>CN.xizang.2751616</id></desc></path><path d="M275.864978903,238.797468354 L287.088607595,234.662447257 L286.202531646,227.573839662 L291.518987342,226.097046414 L297.426160338,221.075949367 L296.540084388,217.827004219 L302.742616034,208.670886076 L308.64978903,210.147679325 L311.308016878,213.987341772 L316.919831224,215.759493671 L326.371308017,214.578059072 L353.248945148,216.35021097 L355.907172996,214.873417722 L362.700421941,216.94092827 L357.383966245,226.687763713 L348.818565401,231.41350211 L344.683544304,233.481012658 L338.776371308,242.637130802 L336.11814346,244.4092827 L313.966244726,251.202531646 L304.219409283,252.383966245 L290.928270042,250.907172996 L280.5907173,246.476793249 L277.046413502,245.0 L275.864978903,238.797468354 Z" fill="#cee3f5" id="CN.xizang.2751617" stroke="#6e6e6e" stroke-width="0.4"><desc><name>Toli County</name><admin_leve>6</admin_leve><wikipedia>de:Toli</wikipedia><localname>托里县 (Toli)</localname><boundary>administrative</boundary><id>CN.xizang.2751617</id></desc></path><path d="M304.219409283,252.383966245 L313.966244726,251.202531646 L336.11814346,244.4092827 L338.776371308,242.637130802 L340.843881857,247.658227848 L339.662447257,256.814345992 L347.046413502,262.426160338 L344.388185654,270.400843882 L344.092827004,276.898734177 L348.523206751,276.898734177 L353.839662447,272.76371308 L354.135021097,283.987341772 L352.067510549,287.53164557 L351.772151899,296.687763713 L350.29535865,298.459915612 L344.092827004,293.438818565 L335.82278481,289.894514768 L329.029535865,290.485232068 L317.215189873,283.987341772 L308.64978903,283.396624473 L303.628691983,281.033755274 L302.447257384,277.194092827 L307.172995781,267.742616034 L313.375527426,265.379746835 L316.033755274,260.063291139 L310.421940928,255.337552743 L304.219409283,252.383966245 Z" fill="#cee3f5" id="CN.xizang.2751618" stroke="#6e6e6e" stroke-width="0.4"><desc><name>Usu City</name><admin_leve>6</admin_leve><wikipedia>ug:ۋۇسۇ شەھىرى</wikipedia><localname>乌苏市 (Usu)</localname><boundary>administrative</boundary><id>CN.xizang.2751618</id></desc></path><path d="M281.476793249,206.012658228 L295.358649789,206.308016878 L302.742616034,208.670886076 L296.540084388,217.827004219 L297.426160338,221.075949367 L291.518987342,226.097046414 L286.202531646,227.573839662 L287.088607595,234.662447257 L275.864978903,238.797468354 L267.890295359,235.253164557 L269.367088608,222.848101266 L273.206751055,221.666666667 L274.978902954,216.35021097 L281.476793249,206.012658228 Z" fill="#cee3f5" id="CN.xizang.2751619" stroke="#6e6e6e" stroke-width="0.4"><desc><name>Yumin County</name><admin_leve>6</admin_leve><wikipedia>en:Yumin County</wikipedia><localname>裕民县 / Yumin</localname><boundary>administrative</boundary><id>CN.xizang.2751619</id></desc></path><path d="M409.071729958,177.362869198 L413.797468354,172.637130802 L421.181434599,171.751054852 L422.362869198,164.367088608 L425.611814346,161.708860759 L424.430379747,157.573839662 L431.518987342,153.438818565 L432.109704641,144.578059072 L443.037974684,140.738396624 L444.514767932,143.101265823 L458.987341772,147.53164557 L462.53164557,154.324894515 L457.805907173,156.687763713 L456.919831224,162.594936709 L462.827004219,171.455696203 L459.282700422,178.839662447 L459.578059072,183.270042194 L451.308016878,182.974683544 L428.565400844,176.772151899 L412.911392405,180.907172996 L409.071729958,177.362869198 Z" fill="#cee3f5" id="CN.xizang.2752330" stroke="#6e6e6e" stroke-width="0.4"><desc><admin_leve>6</admin_leve><localname>阿勒泰市 (Altay)</localname><boundary>administrative</boundary><id>CN.xizang.2752330</id><name>Altay City</name></desc></path><path d="M394.894514768,168.502109705 L396.666666667,162.594936709 L404.345991561,160.232067511 L406.708860759,156.097046414 L404.641350211,152.257383966 L413.797468354,147.53164557 L412.911392405,134.535864979 L418.818565401,131.877637131 L422.362869198,125.970464135 L436.244725738,123.607594937 L439.198312236,130.105485232 L437.426160338,135.126582278 L443.628691983,136.898734177 L443.037974684,140.738396624 L432.109704641,144.578059072 L431.518987342,153.438818565 L424.430379747,157.573839662 L425.611814346,161.708860759 L422.362869198,164.367088608 L421.181434599,171.751054852 L413.797468354,172.637130802 L409.071729958,177.362869198 L395.189873418,175.886075949 L394.894514768,168.502109705 Z" fill="#cee3f5" id="CN.xizang.2752331" stroke="#6e6e6e" stroke-width="0.4"><desc><name>Burqin County</name><admin_leve>6</admin_leve><wikipedia>de:Burqin</wikipedia><localname>布尔津县 (Burqin)</localname><boundary>administrative</boundary><id>CN.xizang.2752331</id></desc></path><path d="M412.911392405,180.907172996 L428.565400844,176.772151899 L451.308016878,182.974683544 L459.578059072,183.270042194 L459.282700422,178.839662447 L462.827004219,171.455696203 L456.919831224,162.594936709 L457.805907173,156.687763713 L462.53164557,154.324894515 L471.097046414,156.392405063 L475.52742616,160.232067511 L472.869198312,164.367088608 L475.232067511,168.206751055 L467.848101266,173.818565401 L474.345991561,178.544303797 L474.641350211,182.383966245 L465.780590717,191.835443038 L460.759493671,200.696202532 L456.033755274,205.126582278 L468.438818565,222.552742616 L469.029535865,231.11814346 L467.848101266,239.683544304 L465.485232068,244.113924051 L465.485232068,251.793248945 L443.037974684,251.793248945 L422.658227848,251.793248945 L422.658227848,241.751054852 L422.658227848,220.780590717 L414.092827004,205.717299578 L419.113924051,198.628691983 L414.388185654,192.721518987 L413.502109705,186.814345992 L412.911392405,180.907172996 Z" fill="#cee3f5" id="CN.xizang.2752332" stroke="#6e6e6e" stroke-width="0.4"><desc><name>Fuhai County</name><admin_leve>6</admin_leve><wikipedia>de:Burultokay</wikipedia><localname>福海县 (Fuhai)</localname><boundary>administrative</boundary><id>CN.xizang.2752332</id></desc></path><path d="M475.52742616,160.232067511 L491.476793249,158.755274262 L496.793248945,164.957805907 L502.995780591,164.957805907 L515.696202532,170.274261603 L518.945147679,175.5907173 L518.945147679,180.611814346 L513.037974684,180.907172996 L506.835443038,185.337552743 L507.721518987,187.700421941 L502.109704641,192.426160338 L502.405063291,204.240506329 L506.244725738,215.168776371 L503.291139241,222.257383966 L504.17721519,227.869198312 L500.337552743,238.206751055 L503.291139241,251.793248945 L483.502109705,251.793248945 L465.485232068,251.793248945 L465.485232068,244.113924051 L467.848101266,239.683544304 L469.029535865,231.11814346 L468.438818565,222.552742616 L456.033755274,205.126582278 L460.759493671,200.696202532 L465.780590717,191.835443038 L474.641350211,182.383966245 L474.345991561,178.544303797 L467.848101266,173.818565401 L475.232067511,168.206751055 L472.869198312,164.367088608 L475.52742616,160.232067511 Z" fill="#cee3f5" id="CN.xizang.2752333" stroke="#6e6e6e" stroke-width="0.4"><desc><name>Fuyun County</name><admin_leve>6</admin_leve><wikipedia>de:Koktokay</wikipedia><localname>富蕴县 (Fuyun)</localname><boundary>administrative</boundary><id>CN.xizang.2752333</id></desc></path><path d="M422.362869198,125.970464135 L418.818565401,131.877637131 L412.911392405,134.535864979 L413.797468354,147.53164557 L404.641350211,152.257383966 L406.708860759,156.097046414 L404.345991561,160.232067511 L396.666666667,162.594936709 L394.894514768,168.502109705 L386.033755274,165.843881857 L368.607594937,162.299578059 L368.312236287,155.210970464 L374.219409283,147.53164557 L388.101265823,146.64556962 L399.620253165,143.101265823 L405.52742616,137.784810127 L404.050632911,130.696202532 L409.071729958,125.084388186 L422.362869198,125.970464135 Z" fill="#cee3f5" id="CN.xizang.2752334" stroke="#6e6e6e" stroke-width="0.4"><desc><name>Habahe County</name><admin_leve>6</admin_leve><wikipedia>de:Kaba (Altay)</wikipedia><localname>哈巴河县 (Habahe)</localname><boundary>administrative</boundary><id>CN.xizang.2752334</id></desc></path><path d="M368.312236287,188.88185654 L372.151898734,183.565400844 L371.856540084,177.067510549 L368.607594937,162.299578059 L386.033755274,165.843881857 L394.894514768,168.502109705 L395.189873418,175.886075949 L409.071729958,177.362869198 L412.911392405,180.907172996 L413.502109705,186.814345992 L397.552742616,188.58649789 L393.417721519,187.700421941 L385.147679325,190.063291139 L380.717299578,188.291139241 L368.312236287,188.88185654 Z" fill="#cee3f5" id="CN.xizang.2752335" stroke="#6e6e6e" stroke-width="0.4"><desc><name>Jeminay County</name><admin_leve>6</admin_leve><wikipedia>de:Jeminay</wikipedia><localname>吉木乃县 (Jeminay)</localname><boundary>administrative</boundary><id>CN.xizang.2752335</id></desc></path><path d="M518.945147679,180.611814346 L527.805907173,190.949367089 L531.94092827,191.835443038 L536.371308017,198.924050633 L536.962025316,203.35443038 L531.64556962,211.329113924 L535.780590717,220.485232068 L526.033755274,229.345991561 L524.852320675,236.729957806 L519.831223629,237.911392405 L510.970464135,249.725738397 L503.291139241,251.793248945 L500.337552743,238.206751055 L504.17721519,227.869198312 L503.291139241,222.257383966 L506.244725738,215.168776371 L502.405063291,204.240506329 L502.109704641,192.426160338 L507.721518987,187.700421941 L506.835443038,185.337552743 L513.037974684,180.907172996 L518.945147679,180.611814346 Z" fill="#cee3f5" id="CN.xizang.2752336" stroke="#6e6e6e" stroke-width="0.4"><desc><name>Qinghe County</name><admin_leve>6</admin_leve><wikipedia>de:Qinggil</wikipedia><localname>青河县 (Qinghe)</localname><boundary>administrative</boundary><id>CN.xizang.2752336</id></desc></path><path d="M415.864978903,241.751054852 L422.658227848,241.751054852 L422.658227848,251.793248945 L428.860759494,261.244725738 L430.337552743,266.265822785 L424.430379747,265.970464135 L425.316455696,271.582278481 L428.270042194,275.126582278 L427.679324895,280.443037975 L425.316455696,280.738396624 L420.29535865,284.873417722 L420.886075949,288.713080169 L409.367088608,299.936708861 L410.548523207,301.708860759 L406.11814346,309.683544304 L396.075949367,308.502109705 L396.666666667,296.687763713 L404.936708861,291.075949367 L405.232067511,286.64556962 L414.978902954,275.717299578 L415.864978903,269.219409283 L415.864978903,241.751054852 Z" fill="#cee3f5" id="CN.xizang.2752405" stroke="#6e6e6e" stroke-width="0.4"><desc><name>Changji City</name><admin_leve>6</admin_leve><wikipedia>de:Changji (Stadt)</wikipedia><localname>昌吉市 (Changji)</localname><boundary>administrative</boundary><id>CN.xizang.2752405</id></desc></path><path d="M443.037974684,251.793248945 L465.485232068,251.793248945 L465.189873418,281.033755274 L458.691983122,286.64556962 L447.172995781,289.894514768 L442.742616034,282.215189873 L437.426160338,278.670886076 L436.835443038,270.991561181 L443.037974684,251.793248945 Z" fill="#cee3f5" id="CN.xizang.2752406" stroke="#6e6e6e" stroke-width="0.4"><desc><name>Fukang City</name><admin_leve>6</admin_leve><wikipedia>de:Fukang</wikipedia><localname>阜康市 / Fukang / فۇكاڭ شەھىرى</localname><boundary>administrative</boundary><id>CN.xizang.2752406</id></desc></path><path d="M384.261603376,299.050632911 L389.282700422,289.599156118 L397.257383966,278.080168776 L397.552742616,267.447257384 L396.666666667,256.223628692 L403.459915612,254.451476793 L403.164556962,241.455696203 L415.864978903,241.751054852 L415.864978903,269.219409283 L414.978902954,275.717299578 L405.232067511,286.64556962 L404.936708861,291.075949367 L396.666666667,296.687763713 L396.075949367,308.502109705 L390.464135021,305.548523207 L392.827004219,299.641350211 L384.261603376,299.050632911 Z" fill="#cee3f5" id="CN.xizang.2752407" stroke="#6e6e6e" stroke-width="0.4"><desc><name>Hutubi County</name><admin_leve>6</admin_leve><wikipedia>de:Hutubi</wikipedia><localname>呼图壁县 (Hutubi)</localname><boundary>administrative</boundary><id>CN.xizang.2752407</id></desc></path><path d="M458.691983122,286.64556962 L465.189873418,281.033755274 L465.485232068,251.793248945 L483.502109705,251.793248945 L481.729957806,262.130801688 L485.274261603,268.628691983 L485.274261603,282.215189873 L482.911392405,283.691983122 L479.957805907,296.392405063 L471.392405063,293.438818565 L458.691983122,286.64556962 Z" fill="#cee3f5" id="CN.xizang.2752408" stroke="#6e6e6e" stroke-width="0.4"><desc><name>Jimsar County</name><admin_leve>6</admin_leve><wikipedia>de:Jimsar</wikipedia><localname>吉木萨尔县 (Jimsar)</localname><boundary>administrative</boundary><id>CN.xizang.2752408</id></desc></path><path d="M360.337552743,301.708860759 L365.654008439,300.52742616 L372.447257384,294.029535865 L374.514767932,288.417721519 L384.556962025,278.375527426 L385.443037975,268.628691983 L380.421940928,262.721518987 L377.46835443,256.223628692 L371.561181435,254.156118143 L371.561181435,241.455696203 L403.164556962,241.455696203 L403.459915612,254.451476793 L396.666666667,256.223628692 L397.552742616,267.447257384 L397.257383966,278.080168776 L389.282700422,289.599156118 L384.261603376,299.050632911 L373.924050633,299.641350211 L370.970464135,303.185654008 L362.700421941,303.776371308 L360.337552743,301.708860759 Z" fill="#cee3f5" id="CN.xizang.2752409" stroke="#6e6e6e" stroke-width="0.4"><desc><name>Manas County</name><admin_leve>6</admin_leve><wikipedia>de:Manas (Changji)</wikipedia><localname>玛纳斯县 (Manas)</localname><boundary>administrative</boundary><id>CN.xizang.2752409</id></desc></path><path d="M546.41350211,248.248945148 L550.253164557,248.544303797 L551.729957806,252.679324895 L544.345991561,267.742616034 L544.050632911,281.919831224 L550.843881857,286.94092827 L547.004219409,291.666666667 L546.708860759,294.324894515 L538.734177215,298.164556962 L531.35021097,296.687763713 L515.991561181,297.573839662 L509.493670886,296.392405063 L501.814345992,294.029535865 L503.88185654,286.054852321 L509.493670886,271.582278481 L519.831223629,268.333333333 L537.257383966,259.17721519 L542.573839662,258.291139241 L546.41350211,248.248945148 Z" fill="#cee3f5" id="CN.xizang.2752410" stroke="#6e6e6e" stroke-width="0.4"><desc><name>Mori Kazakh Autonomous County</name><admin_leve>6</admin_leve><wikipedia>de:Mori (Changji)</wikipedia><localname>木垒哈萨克自治县 (Mori)</localname><boundary>administrative</boundary><id>CN.xizang.2752410</id></desc></path><path d="M479.957805907,296.392405063 L482.911392405,283.691983122 L485.274261603,282.215189873 L485.274261603,268.628691983 L481.729957806,262.130801688 L483.502109705,251.793248945 L503.291139241,251.793248945 L510.970464135,249.725738397 L519.831223629,237.911392405 L524.852320675,236.729957806 L532.827004219,245.886075949 L538.734177215,245.29535865 L546.41350211,248.248945148 L542.573839662,258.291139241 L537.257383966,259.17721519 L519.831223629,268.333333333 L509.493670886,271.582278481 L503.88185654,286.054852321 L501.814345992,294.029535865 L509.493670886,296.392405063 L494.135021097,300.52742616 L485.569620253,299.050632911 L479.957805907,296.392405063 Z" fill="#cee3f5" id="CN.xizang.2752411" stroke="#6e6e6e" stroke-width="0.4"><desc><name>Qitai County</name><admin_leve>6</admin_leve><wikipedia>de:Qitai</wikipedia><localname>奇台县 (Qitai)</localname><boundary>administrative</boundary><id>CN.xizang.2752411</id></desc></path><path d="M430.337552743,266.265822785 L434.17721519,271.582278481 L430.337552743,275.126582278 L428.270042194,280.738396624 L427.679324895,280.443037975 L428.270042194,275.126582278 L425.316455696,271.582278481 L424.430379747,265.970464135 L430.337552743,266.265822785 Z" fill="#cee3f5" id="CN.xizang.2752471" stroke="#6e6e6e" stroke-width="0.4"><desc><name>Wujiaqu City</name><admin_leve>6</admin_leve><wikipedia>de:Wujiaqu</wikipedia><localname>五家渠市 / Wujiaqu / ئۇجاچۇ شەھرى</localname><boundary>administrative</boundary><id>CN.xizang.2752471</id></desc></path><path d="M380.421940928,262.721518987 L385.443037975,268.628691983 L384.556962025,278.375527426 L381.308016878,277.489451477 L378.05907173,268.333333333 L380.421940928,262.721518987 Z" fill="#cee3f5" id="CN.xizang.3431881" stroke="#6e6e6e" stroke-width="0.4"><desc><name>Shihezi City</name><admin_leve>6</admin_leve><wikipedia>en:Shihezi</wikipedia><localname>石河子市 (Shihezi)</localname><boundary>administrative</boundary><id>CN.xizang.3431881</id></desc></path><path d="M422.658227848,251.793248945 L443.037974684,251.793248945 L436.835443038,270.991561181 L437.426160338,278.670886076 L442.742616034,282.215189873 L447.172995781,289.894514768 L443.333333333,289.303797468 L437.130801688,285.759493671 L430.632911392,286.054852321 L428.270042194,280.738396624 L430.337552743,275.126582278 L434.17721519,271.582278481 L430.337552743,266.265822785 L428.860759494,261.244725738 L422.658227848,251.793248945 Z" fill="#cee3f5" id="CN.xizang.5662754" stroke="#6e6e6e" stroke-width="0.4"><desc><name>Midong District</name><admin_leve>6</admin_leve><wikipedia>en:Midong District</wikipedia><localname>米东区 / Midong / میدونگ رايونى</localname><boundary>administrative</boundary><id>CN.xizang.5662754</id></desc></path><path d="M433.88185654,289.599156118 L443.333333333,289.303797468 L447.172995781,289.894514768 L458.691983122,286.64556962 L471.392405063,293.438818565 L471.687763713,299.936708861 L459.282700422,302.890295359 L457.510548523,306.729957806 L450.717299578,306.139240506 L446.877637131,303.185654008 L444.514767932,300.232067511 L438.312236287,298.164556962 L433.58649789,293.438818565 L433.88185654,289.599156118 M420.29535865,308.797468354 L430.042194093,312.932489451 L428.565400844,315.29535865 L418.227848101,311.455696203 L420.29535865,308.797468354 Z" fill="#cee3f5" id="CN.xizang.5662915" stroke="#6e6e6e" stroke-width="0.4"><desc><name>Dabancheng District</name><admin_leve>6</admin_leve><wikipedia>en:Dabancheng District</wikipedia><localname>达坂城区 / Dabancheng / داۋانچىڭ رايونى</localname><boundary>administrative</boundary><id>CN.xizang.5662915</id></desc></path><path d="M422.953586498,289.008438819 L427.383966245,288.417721519 L430.632911392,287.53164557 L430.928270042,288.417721519 L429.156118143,293.438818565 L424.135021097,295.801687764 L422.953586498,289.008438819 Z" fill="#cee3f5" id="CN.xizang.5663100" stroke="#6e6e6e" stroke-width="0.4"><desc><name>Saybagh District</name><admin_leve>6</admin_leve><wikipedia>en:Saybagh District</wikipedia><localname>沙依巴克区 / Saybagh / سايباغ رايونى‎</localname><boundary>administrative</boundary><id>CN.xizang.5663100</id></desc></path><path d="M406.11814346,309.683544304 L410.548523207,301.708860759 L409.367088608,299.936708861 L420.886075949,288.713080169 L422.953586498,289.008438819 L424.135021097,295.801687764 L429.156118143,293.438818565 L433.58649789,293.438818565 L438.312236287,298.164556962 L444.514767932,300.232067511 L446.877637131,303.185654008 L431.814345992,304.957805907 L423.544303797,304.367088608 L420.29535865,308.797468354 L418.227848101,311.455696203 L414.092827004,312.341772152 L406.11814346,309.683544304 Z" fill="#cee3f5" id="CN.xizang.5663101" stroke="#6e6e6e" stroke-width="0.4"><desc><name>Ürümqi County</name><admin_leve>6</admin_leve><wikipedia>en:Ürümqi County</wikipedia><localname>乌鲁木齐县 / Ürümqi / ئۈرۈمچى ناھىيىسى</localname><boundary>administrative</boundary><id>CN.xizang.5663101</id></desc></path><path d="M430.928270042,288.417721519 L433.88185654,289.599156118 L433.58649789,293.438818565 L429.156118143,293.438818565 L430.928270042,288.417721519 Z" fill="#cee3f5" id="CN.xizang.5663207" stroke="#6e6e6e" stroke-width="0.4"><desc><name>Tianshan District</name><admin_leve>6</admin_leve><wikipedia>en:Tianshan District</wikipedia><localname>天山区 / Tianshan / تەڭرىتاغ رايونى</localname><boundary>administrative</boundary><id>CN.xizang.5663207</id></desc></path><path d="M430.632911392,287.53164557 L430.632911392,286.054852321 L437.130801688,285.759493671 L443.333333333,289.303797468 L433.88185654,289.599156118 L430.928270042,288.417721519 L430.632911392,287.53164557 Z" fill="#cee3f5" id="CN.xizang.5663231" stroke="#6e6e6e" stroke-width="0.4"><desc><name>Shuimogou District</name><admin_leve>6</admin_leve><wikipedia>en:Shuimogou District</wikipedia><localname>水磨沟区 / Shuimogou / شۇيموگۇ رايونى</localname><boundary>administrative</boundary><id>CN.xizang.5663231</id></desc></path><path d="M425.316455696,280.738396624 L426.497890295,288.122362869 L426.793248945,288.417721519 L427.383966245,288.417721519 L422.953586498,289.008438819 L420.886075949,288.713080169 L420.29535865,284.873417722 L425.316455696,280.738396624 Z" fill="#cee3f5" id="CN.xizang.5663232" stroke="#6e6e6e" stroke-width="0.4"><desc><name>Toutunhe District</name><admin_leve>6</admin_leve><wikipedia>en:Toutunhe District</wikipedia><localname>头屯河区 / Toutunhe / تۇدۇڭخابا رايونى</localname><boundary>administrative</boundary><id>CN.xizang.5663232</id></desc></path><path d="M425.316455696,280.738396624 L427.679324895,280.443037975 L428.270042194,280.738396624 L430.632911392,286.054852321 L430.632911392,287.53164557 L427.383966245,288.417721519 L426.793248945,288.417721519 L426.497890295,288.122362869 L425.316455696,280.738396624 Z" fill="#cee3f5" id="CN.xizang.5663233" stroke="#6e6e6e" stroke-width="0.4"><desc><name>Xinshi District</name><admin_leve>6</admin_leve><wikipedia>en:Xinshi District, Ürümqi</wikipedia><localname>新市区 / Xinshi / يېڭىشەھەر رايونى</localname><boundary>administrative</boundary><id>CN.xizang.5663233</id></desc></path></svg>