<?xml version="1.0"?>
<svg xmlns="http://www.w3.org/2000/svg" version="1.2" baseProfile="tiny" width="800" height="812" viewBox="0 0 800 812" stroke-linecap="round" stroke-linejoin="round">
<g id="sierra_leone">
<path d="M 449.5213 397.4639 440.3701 397.1484 417.3015 397.1484 405.7672 410.9895 401.1534 420.217 397.6931 422.5238 393.0794 429.4444 385.0054 434.0581 379.2383 435.2116 365.3971 435.2116 356.1697 429.4444 350.4025 428.291 335.4079 430.5978 331.9476 438.6719 330.7942 444.439 331.9476 460.587 328.4873 455.9733 311.1859 447.8993 297.3447 438.6719 289.2707 437.5184 270.8158 432.9047 265.0487 435.2116 246.5938 436.365 239.6732 440.9787 230.4458 446.7459 220.0649 447.8993 205.0703 446.7459 191.2291 445.5924 184.3085 439.8253 169.3139 429.4444 148.5522 434.0581 128.9439 425.9841 123.1767 429.4444 117.4096 437.5184 113.9493 446.7459 108.1821 451.3596 100.1081 459.4336 83.9601 459.4336 98.9547 458.2802 98.9547 447.8993 101.2616 445.5924 96.6478 437.5184 96.6478 432.9047 100.1081 428.291 94.341 424.8307 71.2724 427.1376 63.4465 427.1376 61.397 423.8622 59.5887 419.39 61.0354 419.2111 63.9286 417.959 61.7587 416.8857 57.9613 417.4223 55.6105 416.1702 50.1856 414.5603 44.9415 411.5194 43.6757 408.121 48.1965 406.8689 50.5472 404.186 52.7172 399.7147 55.7913 400.2512 61.0354 397.3897 64.2903 396.3166 67.9069 388.6266 72.9701 383.6195 74.2359 379.6856 79.4799 382.0102 82.3732 381.6525 87.0748 380.7584 90.5105 382.3678 92.4997 381.6525 99.1903 382.9043 102.6261 384.156 106.6044 381.1161 111.3059 378.7915 114.5608 379.1491 117.9966 380.222 121.9748 380.9373 124.6873 381.1161 123.6023 378.6127 117.9966 377.361 111.6676 376.6458 106.4235 377.7186 101.5411 381.2949 97.7437 377.7186 93.223 375.9305 93.5846 374.8577 98.2862 372.1757 100.8178 369.1361 103.1686 364.8451 106.0619 361.9846 108.9551 358.9453 108.051 353.5822 105.881 358.7665 101.9028 360.9119 99.3712 366.633 95.2121 371.1029 89.4256 371.8181 84.0007 369.8513 77.4908 370.3877 74.2359 369.3149 70.981 370.7453 66.6411 376.2881 61.9395 374.5001 59.5887 374.1425 56.5146 373.7849 56.153 371.4605 54.8872 368.9573 58.3229 368.0633 63.2053 366.0966 65.7369 363.5936 66.8219 360.3755 69.7152 358.2302 71.7043 358.5878 73.5126 357.1576 73.6934 355.1911 73.8742 351.437 73.3317 353.4034 72.0659 355.7274 69.896 355.9062 66.8219 357.5151 66.4602 355.7274 66.4602 352.5096 66.2794 347.8618 65.3753 350.7219 64.4711 353.9397 64.1094 357.5151 62.6628 362.3421 60.6737 364.8451 57.2379 365.2027 54.8872 365.0239 52.3555 364.4875 48.739 361.2694 48.3773 359.4816 46.569 357.5151 44.2182 358.0514 41.6866 358.0514 40.4208 355.7274 40.24 353.9397 38.6125 356.6212 40.0591 359.4816 45.1224 360.1968 47.4731 363.0573 48.9198 365.7391 51.8131 369.4937 53.0789 373.7849 50.3664 377.7186 41.6866 390.5938 36.6234 388.4478 27.2203 376.2881 22.157 363.4148 15.6472 350.5432 17.0938 339.1031 14.9239 317.6566 19.9871 307.6498 25.7736 304.0762 32.2835 304.0762 45.3032 306.9351 53.2597 304.7909 46.7498 302.6468 37.3467 296.9294 40.9633 291.9269 40.24 286.9248 30.1135 286.2102 21.4337 276.9212 14.9239 278.3502 2.6275 274.7777 1.226 255.0866 1.226 253.9704 1 252.7204 2.085 251.381 4.3906 251.2024 7.1482 249.1935 8.5044 247.6756 12.9347 247.4077 13.9745 247.1399 14.7882 245.4881 17.0486 246.4256 20.3035 244.8185 23.4228 243.8364 25.2763 243.7918 27.3107 242.8097 27.0394 240.4884 28.034 239.1492 30.2039 240.042 31.741 239.5956 33.3685 239.8634 36.6234 241.9168 36.4426 243.7025 43.2237 249.506 46.9307 251.0239 49.5527 251.2024 50.4568 250.3989 53.8926 252.1846 57.0571 252.0953 59.3175 251.4703 59.3175 248.7024 61.2162 246.4702 60.5833 244.5953 61.9395 242.5418 69.1727 242.274 69.5343 239.0599 72.7893 237.7208 73.6934 238.0779 74.8688 238.9706 78.3046 236.1138 80.5649 232.9892 82.1924 226.5619 85.2665 222.2772 85.6281 219.778 93.4038 216.7432 92.6805 212.816 91.2339 211.745 89.7872 207.6395 88.5214 204.4266 90.3297 203.1772 93.4038 196.7519 93.4038 194.9672 92.6805 190.3271 96.2971 188.0071 98.8287 188.8994 101.3603 189.7917 102.9878 192.2902 105.1125 195.5472 108.0962 192.6025 110.673 192.7363 111.0799 191.7548 110.3114 190.2378 110.8086 188.4532 111.6676 188.0517 111.8032 187.2933 113.5211 187.4271 115.239 188.4086 117.5897 187.0702 120.709 190.5055 121.2967 190.0594 121.7036 188.4532 122.9694 187.9625 124.3708 188.1856 126.9024 186.6687 130.1122 188.1409 131.2424 188.1409 131.9205 186.981 133.3219 185.7318 136.8481 184.8395 137.5262 183.4119 136.622 181.2706 139.1536 179.7092 139.018 178.5047 140.6003 176.1851 140.6003 175.1145 139.9674 173.8208 140.329 173.4194 141.9565 173.9547 145.9347 173.4194 147.0649 173.687 147.6074 172.3488 147.2005 170.2523 146.2964 169.3602 145.3923 168.2005 145.3923 165.9703 144.8498 164.6322 144.9402 162.4912 145.3018 160.3504 147.1101 159.1016 149.1897 159.3692 150.5459 160.3504 152.8063 160.4396 154.0721 160.172 155.157 160.3504 157.8695 161.956 157.4174 159.3692 157.5982 157.2284 160.6723 154.6416 163.8368 157.1392 163.8368 154.2849 164.9218 154.0173 165.1027 152.8577 163.8368 151.1631 165.9164 150.0036 166.3685 148.9333 164.6506 148.1306 165.0122 146.8819 165.7356 145.2765 165.4643 142.9577 167.9055 141.174 168.1768 140.6389 167.5438 138.7661 168.3576 138.3202 174.3249 129.1351 173.9633 127.0842 172.4262 125.2117 171.3413 123.4284 172.2454 122.2692 173.8729 120.7534 175.4099 119.951 176.6757 120.0401 178.2128 120.3968 178.3936 118.881 177.2182 116.6521 177.0374 115.493 177.3086 114.6906 178.8457 114.2448 180.0211 108.8956 181.6485 107.9149 181.4677 106.2211 181.5581 104.973 182.8239 104.4382 184.361 105.2405 186.5309 106.3994 187.6159 106.3994 189.0625 106.2211 189.2434 102.0312 190.7804 97.1284 190.5092 96.5936 189.7859 95.4348 189.7859 94.4543 189.3338 92.4042 189.2434 90.7107 190.2379 89.3737 191.1421 89.5519 193.312 91.3346 192.9504 88.1259 193.7641 87.2346 194.9395 84.739 195.1203 82.8673 194.8491 81.6196 195.5724 78.8568 199.3698 78.4112 200.5452 77.0744 202.896 75.292 203.6193 74.3118 204.6139 74.7573 204.433 75.9159 204.6139 77.7874 206.7838 78.5894 207.5976 77.52 207.4167 75.9159 206.7838 74.6682 206.3317 73.4206 205.4276 71.4601 205.6084 69.767 206.5126 68.8758 208.0496 69.0541 210.4004 69.1432 211.0333 67.4501 210.31 65.8461 208.0496 66.2026 208.14 64.6877 209.5867 63.5294 210.4908 58.3614 212.3895 55.7776 213.4745 50.4319 214.3787 50.521 215.2828 50.2537 215.8253 47.3137 215.3732 45.7992 214.3787 45.8883 213.1128 45.6211 212.8416 44.7302 213.6553 42.2358 213.2937 41.6122 219.3515 40.8105 221.7022 39.2961 225.2284 34.2187 226.4942 33.5952 228.1217 32.6153 252.7145 29.2306 254.4324 26.4695 285.0829 18.81 285.6254 22.9069 287.0721 25.4007 292.4969 28.0727 297.9218 31.2792 302.2617 32.3481 305.5167 33.5952 310.399 34.3078 312.2073 34.6641 368.0836 16.8507 367.9028 12.0418 371.7002 1.1781 386.5282 1.1781 390.8681 2.0685 471.1564 1.7123 475.1346 1 482.5486 1.1781 485.9844 1.8904 550.7213 1.7123 551.6254 4.3836 555.6037 5.096 559.5819 4.9179 561.571 8.836 563.0177 9.3703 564.1027 20.5912 566.6343 27.182 566.8151 30.7448 567.7192 33.9515 569.8892 36.8019 574.0483 37.5145 579.654 39.4743 585.2597 43.9284 590.8654 49.4519 595.2053 54.2629 599.9069 57.6486 604.0659 63.8858 609.31 67.9847 614.9157 80.1045 617.2665 87.4128 619.0748 90.4433 621.0639 91.1563 623.9572 91.1563 624.4997 92.4042 624.4997 94.3652 626.1271 95.2565 627.5738 95.6131 630.467 105.0622 633.3603 107.2017 640.051 111.8376 642.9443 122.0017 644.2101 125.39 647.2842 126.1034 649.9966 127.1734 650.1774 130.0268 648.9116 135.734 649.9966 139.4796 648.3691 145.3657 653.9748 151.2523 659.5806 152.6794 661.208 154.1065 661.0272 156.604 656.5065 158.9232 656.6873 160.3504 660.3039 163.3833 661.3889 162.8481 662.293 161.5992 664.463 161.064 667.3562 161.956 670.0687 161.4208 672.7811 161.7776 674.7702 164.989 681.0993 171.0552 683.2692 172.6611 687.0666 173.7316 690.3215 179.62 695.2039 181.5829 697.7356 183.9027 697.1931 188.1856 694.2998 191.0409 693.3956 194.4318 694.8423 202.1063 690.3215 209.246 683.45 212.459 680.1951 214.4226 678.9293 217.2787 679.8334 221.2061 679.6526 223.884 678.206 225.1337 677.3018 226.919 677.8443 230.4897 675.4935 238.5243 676.3977 241.9168 678.206 243.7025 682.1842 244.4167 694.2998 243.881 702.4371 246.0238 705.3304 244.4167 719.9776 249.0595 719.2905 251.1171 699.8919 257.5833 683.7438 267.9642 680.2836 271.4245 686.0507 278.3451 680.2836 282.9588 659.5218 286.4191 646.8341 281.8053 614.538 250.6627 607.6174 250.6627 591.4694 248.3559 570.7077 259.8902 570.7077 267.9642 564.9405 280.6519 534.9513 287.5725 513.0362 322.1754 516.4965 381.0003 513.0362 385.6141 507.269 386.7675 484.2004 385.6141 471.5127 386.7675 458.8249 390.2278 449.5213 397.4639 Z"/>
<path d="M 568.3313 703.9608 567.2474 703.9608 530.3376 688.9662 517.6499 676.2785 511.8827 655.5167 517.6499 653.2099 518.8033 633.6016 511.8827 632.4481 508.4224 623.2207 492.2744 633.6016 487.6607 646.2893 471.5127 647.4427 476.1264 626.681 465.7455 617.4535 473.8195 608.2261 481.8935 603.6124 491.121 608.2261 495.7347 603.6124 496.8881 589.7712 489.9676 574.7766 488.8141 571.3163 481.8935 575.9301 481.8935 565.5492 485.3538 556.3217 498.0416 548.2477 506.1156 542.4806 510.7293 536.7134 513.0362 521.7188 509.5759 477.8885 491.121 461.7405 479.5867 445.5924 474.973 439.8253 465.7455 432.9047 462.2852 431.7513 462.2852 414.4498 458.8249 407.5292 454.2112 400.6087 448.4441 398.3018 458.8249 390.2278 471.5127 386.7675 484.2004 385.6141 507.269 386.7675 513.0362 385.6141 516.4965 381.0003 513.0362 322.1754 534.9513 287.5725 564.9405 280.6519 570.7077 267.9642 570.7077 259.8902 591.4694 248.3559 607.6174 250.6627 614.538 250.6627 646.8341 281.8053 659.5218 286.4191 680.2836 282.9588 686.0507 278.3451 680.2836 271.4245 683.7438 267.9642 699.8919 257.5833 719.2905 251.1171 714.3719 265.847 723.2325 308.1858 723.2325 316.0483 725.4024 317.1205 727.9341 315.3335 733.7206 322.4816 736.0714 332.3112 737.8797 332.6686 737.3372 334.6347 739.8688 337.3157 739.3263 339.4606 740.2305 341.6055 741.8579 341.4268 744.932 344.823 744.7512 347.683 746.3787 346.968 747.6445 350.1856 746.1978 351.7945 744.932 354.8335 746.7403 356.2637 744.2087 358.9453 740.5921 361.4482 740.9538 363.236 736.2522 364.3088 735.1672 365.9178 734.2631 364.3088 731.0082 365.7391 730.104 365.0239 728.1149 365.9178 727.0299 367.7057 723.2325 368.9573 722.8708 370.3877 721.4242 368.9573 718.7118 370.5665 719.6159 377.0034 717.8076 377.0034 715.0952 378.9703 714.5527 383.4407 708.7661 384.8713 705.692 394.1705 705.692 396.1378 707.3195 397.5685 706.5962 399.5358 703.8838 398.8204 704.2454 401.3243 701.8946 403.2917 699.7247 416.349 702.6179 424.7567 700.0863 427.2612 692.4915 428.1557 691.5874 435.6698 688.3324 442.1108 686.5241 444.6158 685.9816 453.7415 688.6941 452.6678 690.6832 444.6158 692.3107 444.9736 695.9273 435.8487 702.4371 434.5963 703.1604 437.6378 705.8729 435.3119 710.7553 438.1746 718.1693 439.6059 720.5201 446.7629 728.1149 446.2261 744.2087 431.9127 743.4854 429.5869 749.2719 425.1145 763.1958 411.3406 770.0673 398.8204 785.4378 394.707 797.5534 400.2512 798.0959 403.2917 796.2876 405.438 799 410.6251 796.6492 415.2758 798.2767 416.7068 796.6492 424.3989 794.6601 427.0823 795.0218 429.2291 792.8518 433.5228 793.9368 438.8902 791.0435 449.9838 786.3419 452.131 793.2135 467.5211 791.0435 476.1119 786.7036 476.8278 777.3005 487.9254 772.2373 484.3454 769.344 485.0614 766.4507 487.9254 757.4092 487.9254 753.431 486.4934 747.2828 487.5674 738.603 489.3574 732.0931 494.0116 719.0734 515.1372 711.1169 516.9277 711.1169 586.7803 688.3324 595.3806 672.4194 614.7338 662.293 629.4301 660.4847 634.4488 656.1448 633.7318 648.1883 645.5624 627.9354 659.5455 624.3188 656.3185 600.811 676.0407 587.4296 687.1583 582.0048 688.5929 568.985 700.0704 568.3313 703.9608 Z"/>
<path d="M 196.4765 688.5929 193.5833 676.3993 190.69 671.3788 184.1801 667.0756 167.5438 660.6212 150.1842 656.3185 134.2712 649.1476 116.9116 645.5624 93.7655 639.8262 109.6785 641.2602 101.722 634.8072 105.3385 631.9394 112.5717 629.0716 121.2515 628.3547 129.208 628.3547 137.8878 632.6563 134.2712 626.2039 142.2277 626.9208 151.6309 626.9208 158.1407 624.0531 164.6506 623.3362 174.0537 624.0531 184.9035 623.3362 191.4133 625.487 187.0734 631.9394 191.4133 629.7885 201.5398 632.6563 210.9429 637.6752 212.3895 642.6942 208.7729 649.1476 214.5595 649.8647 221.7927 648.4306 223.9626 654.1672 216.7294 654.8843 210.2196 660.6212 202.9864 666.3585 202.9864 677.8338 202.2631 687.8756 196.4765 688.5929 Z M 83.9601 459.4336 100.1081 459.4336 108.1821 451.3596 113.9493 446.7459 117.4096 437.5184 123.1767 429.4444 128.9439 425.9841 148.5522 434.0581 169.3139 429.4444 184.3085 439.8253 191.2291 445.5924 205.0703 446.7459 220.0649 447.8993 230.4458 446.7459 239.6732 440.9787 246.5938 436.365 265.0487 435.2116 270.8158 432.9047 289.2707 437.5184 297.3447 438.6719 311.1859 447.8993 328.4873 455.9733 331.9476 460.587 330.7942 444.439 331.9476 438.6719 335.4079 430.5978 350.4025 428.291 356.1697 429.4444 365.3971 435.2116 379.2383 435.2116 385.0054 434.0581 393.0794 429.4444 397.6931 422.5238 401.1534 420.217 405.7672 410.9895 417.3015 397.1484 440.3701 397.1484 449.5213 397.4639 448.4441 398.3018 454.2112 400.6087 458.8249 407.5292 462.2852 414.4498 462.2852 431.7513 465.7455 432.9047 474.973 439.8253 479.5867 445.5924 491.121 461.7405 509.5759 477.8885 513.0362 521.7188 510.7293 536.7134 506.1156 542.4806 498.0416 548.2477 485.3538 556.3217 481.8935 565.5492 481.8935 575.9301 488.8141 571.3163 489.9676 574.7766 496.8881 589.7712 495.7347 603.6124 491.121 608.2261 481.8935 603.6124 473.8195 608.2261 465.7455 617.4535 476.1264 626.681 471.5127 647.4427 487.6607 646.2893 492.2744 633.6016 508.4224 623.2207 511.8827 632.4481 518.8033 633.6016 517.6499 653.2099 511.8827 655.5167 517.6499 676.2785 530.3376 688.9662 567.2474 703.9608 568.3313 703.9608 567.5384 708.6793 560.3052 714.4189 557.412 723.0289 542.9456 725.899 529.9259 735.9449 515.4596 753.1685 518.3528 770.3946 509.673 771.8302 508.2264 790.4947 493.76 800.5461 495.2067 807.7261 472.0605 810.5982 454.7009 799.1101 459.7641 789.0589 448.9143 795.5203 438.0646 784.7515 411.3018 767.5234 383.8158 753.8862 353.4364 740.9682 323.0571 729.4867 295.571 718.0063 266.6383 706.5271 249.2787 699.3531 228.3025 694.3315 208.0496 690.0276 214.5595 686.441 224.6859 684.2891 236.259 682.1373 235.5357 677.8338 215.2828 675.6821 221.0693 667.0756 229.7492 654.1672 240.5989 652.0159 247.1088 645.5624 230.4725 645.5624 221.7927 641.9772 212.3895 624.7701 203.7097 623.3362 200.8165 614.7338 206.603 606.8487 214.5595 591.0804 190.69 608.9991 181.2869 607.5655 162.4806 606.8487 153.0775 604.6984 141.5044 591.7971 134.2712 582.4804 128.4847 580.3305 114.0184 573.8811 103.1686 561.6998 97.3821 558.1174 92.3188 549.52 105.3385 543.7888 111.8484 537.3415 106.7852 520.8669 106.0619 507.9755 103.8919 501.5304 94.4888 486.4934 87.2556 474.3221 80.7458 466.4473 78.7679 465.6643 83.9601 459.4336 Z"/>
<path d="M 63.4465 427.1376 71.2724 427.1376 94.341 424.8307 100.1081 428.291 96.6478 432.9047 96.6478 437.5184 101.2616 445.5924 98.9547 447.8993 98.9547 458.2802 83.9601 459.4336 78.7679 465.6643 77.1292 465.0156 61.9395 467.1632 51.0897 470.7426 38.7933 483.6294 38.07 470.0267 34.4534 452.8468 19.4446 437.4589 6.2441 417.2434 4.4358 417.7801 3.7124 413.3082 7.329 409.1941 3.7124 397.032 9.3182 397.9262 17.4555 398.9993 20.5296 398.8204 23.242 397.7474 26.1353 397.9262 28.3052 401.1455 31.5602 401.3243 35.5384 406.3323 38.07 407.9421 43.4949 415.0969 47.1115 416.7068 52.1747 420.4633 52.8118 420.2113 55.7913 419.0323 57.7804 422.61 58.8654 426.1878 59.8711 427.1376 62.8436 429.9447 70.6193 428.8713 63.7478 427.619 63.4465 427.1376 Z"/>
</g>
</svg>