<?xml version='1.0' encoding='utf-8'?>
<svg height="700" width="700" xmlns="http://www.w3.org/2000/svg"><path d="M66.5598290598,314.102564103 L111.431623932,273.717948718 L147.329059829,288.675213675 L172.756410256,246.794871795 L165.277777778,200.427350427 L193.696581197,161.538461538 L262.5,143.58974359 L287.927350427,179.487179487 L255.021367521,224.358974359 L240.064102564,240.811965812 L256.517094017,273.717948718 L275.961538462,272.222222222 L243.055555556,303.632478632 L256.517094017,321.581196581 L231.08974359,329.05982906 L226.602564103,360.47008547 L168.269230769,391.88034188 L151.816239316,436.752136752 L123.397435897,454.700854701 L144.337606838,487.606837607 L138.354700855,513.034188034 L120.405982906,550.427350427 L78.5256410256,538.461538462 L65.0641025641,469.658119658 L53.0982905983,453.205128205 L84.5085470085,414.316239316 L65.0641025641,387.393162393 L14.2094017094,396.367521368 L0.747863247863,379.914529915 L69.5512820513,333.547008547 L66.5598290598,314.102564103 Z" fill="#cee3f5" id="CN.hunan.2773826" stroke="#6e6e6e" stroke-width="0.4"><desc><admin_leve>5</admin_leve><localname>怀化市 / Huaihua</localname><boundary>administrative</boundary><id>CN.hunan.2773826</id><name>Huaihua City</name></desc></path><path d="M103.952991453,65.811965812 L120.405982906,97.2222222222 L157.799145299,107.692307692 L193.696581197,161.538461538 L165.277777778,200.427350427 L172.756410256,246.794871795 L147.329059829,288.675213675 L111.431623932,273.717948718 L66.5598290598,314.102564103 L56.0897435897,306.623931624 L47.1153846154,233.333333333 L51.6025641026,179.487179487 L42.6282051282,163.034188034 L68.0555555556,76.2820512821 L103.952991453,65.811965812 Z" fill="#cee3f5" id="CN.hunan.2972168" stroke="#6e6e6e" stroke-width="0.4"><desc><admin_leve>5</admin_leve><localname>湘西州 / Xiangxi</localname><boundary>administrative</boundary><id>CN.hunan.2972168</id><name>Xiangxi Tujia and Miao Autonomous Prefecture</name></desc></path><path d="M546.688034188,284.188034188 L582.585470085,296.153846154 L603.525641026,282.692307692 L630.448717949,291.666666667 L611.004273504,336.538461538 L652.884615385,417.307692308 L654.38034188,457.692307692 L679.807692308,463.675213675 L658.867521368,514.52991453 L615.491452991,502.564102564 L609.508547009,463.675213675 L569.123931624,430.769230769 L534.722222222,350.0 L546.688034188,284.188034188 Z" fill="#cee3f5" id="CN.hunan.2972720" stroke="#6e6e6e" stroke-width="0.4"><desc><admin_leve>5</admin_leve><localname>株洲市 / Zhuzhou</localname><boundary>administrative</boundary><id>CN.hunan.2972720</id><name>Zhuzhou City</name></desc></path><path d="M275.961538462,272.222222222 L311.858974359,248.290598291 L337.286324786,270.726495726 L391.132478632,273.717948718 L404.594017094,288.675213675 L418.055555556,323.076923077 L446.474358974,320.085470085 L473.397435897,351.495726496 L416.55982906,379.914529915 L346.260683761,324.572649573 L302.884615385,339.52991453 L256.517094017,321.581196581 L243.055555556,303.632478632 L275.961538462,272.222222222 Z" fill="#cee3f5" id="CN.hunan.3070610" stroke="#6e6e6e" stroke-width="0.4"><desc><admin_leve>5</admin_leve><localname>娄底市 / Loudi</localname><boundary>administrative</boundary><id>CN.hunan.3070610</id><name>Loudi City</name></desc></path><path d="M256.517094017,321.581196581 L302.884615385,339.52991453 L346.260683761,324.572649573 L416.55982906,379.914529915 L415.064102564,405.341880342 L368.696581197,399.358974359 L344.764957265,429.273504274 L316.346153846,429.273504274 L311.858974359,474.145299145 L274.465811966,492.094017094 L231.08974359,498.076923077 L192.200854701,525.0 L151.816239316,532.478632479 L138.354700855,513.034188034 L144.337606838,487.606837607 L123.397435897,454.700854701 L151.816239316,436.752136752 L168.269230769,391.88034188 L226.602564103,360.47008547 L231.08974359,329.05982906 L256.517094017,321.581196581 Z" fill="#cee3f5" id="CN.hunan.3075378" stroke="#6e6e6e" stroke-width="0.4"><desc><name>Shaoyang City</name><admin_leve>5</admin_leve><wikipedia>en:Shaoyang</wikipedia><localname>邵阳市 / Shaoyang</localname><boundary>administrative</boundary><id>CN.hunan.3075378</id></desc></path><path d="M434.508547009,523.504273504 L464.423076923,514.52991453 L495.833333333,522.008547009 L539.209401709,516.025641026 L564.636752137,477.136752137 L569.123931624,430.769230769 L609.508547009,463.675213675 L615.491452991,502.564102564 L658.867521368,514.52991453 L672.329059829,529.487179487 L655.876068376,577.35042735 L658.867521368,613.247863248 L611.004273504,629.700854701 L555.662393162,605.769230769 L533.226495726,637.179487179 L534.722222222,680.555555556 L506.303418803,683.547008547 L489.85042735,652.136752137 L450.961538462,644.658119658 L464.423076923,619.230769231 L434.508547009,523.504273504 Z" fill="#cee3f5" id="CN.hunan.3123920" stroke="#6e6e6e" stroke-width="0.4"><desc><admin_leve>5</admin_leve><localname>郴州市 (Chenzhou)</localname><boundary>administrative</boundary><id>CN.hunan.3123920</id><name>Chenzhou City</name></desc></path><path d="M274.465811966,492.094017094 L311.858974359,474.145299145 L316.346153846,429.273504274 L344.764957265,429.273504274 L386.645299145,433.760683761 L422.542735043,457.692307692 L434.508547009,523.504273504 L464.423076923,619.230769231 L450.961538462,644.658119658 L428.525641026,646.153846154 L427.02991453,680.555555556 L409.081196581,700.0 L364.209401709,698.504273504 L286.431623932,632.692307692 L316.346153846,604.273504274 L299.893162393,544.444444444 L311.858974359,510.042735043 L274.465811966,492.094017094 Z" fill="#cee3f5" id="CN.hunan.3149752" stroke="#6e6e6e" stroke-width="0.4"><desc><admin_leve>5</admin_leve><localname>永州市 / Yongzhou</localname><boundary>administrative</boundary><id>CN.hunan.3149752</id><name>Yongzhou City</name></desc></path><path d="M225.106837607,46.3675213675 L278.952991453,58.3333333333 L316.346153846,77.7777777778 L304.38034188,109.188034188 L262.5,143.58974359 L193.696581197,161.538461538 L157.799145299,107.692307692 L120.405982906,97.2222222222 L103.952991453,65.811965812 L114.423076923,46.3675213675 L157.799145299,43.3760683761 L190.705128205,62.8205128205 L225.106837607,46.3675213675 Z" fill="#cee3f5" id="CN.hunan.3152588" stroke="#6e6e6e" stroke-width="0.4"><desc><admin_leve>5</admin_leve><localname>张家界市 / Zhangjiajie</localname><boundary>administrative</boundary><id>CN.hunan.3152588</id><name>Zhangjiajie City</name></desc></path><path d="M416.55982906,379.914529915 L473.397435897,351.495726496 L507.799145299,361.965811966 L534.722222222,350.0 L569.123931624,430.769230769 L564.636752137,477.136752137 L539.209401709,516.025641026 L495.833333333,522.008547009 L464.423076923,514.52991453 L434.508547009,523.504273504 L422.542735043,457.692307692 L386.645299145,433.760683761 L344.764957265,429.273504274 L368.696581197,399.358974359 L415.064102564,405.341880342 L416.55982906,379.914529915 Z" fill="#cee3f5" id="CN.hunan.3156043" stroke="#6e6e6e" stroke-width="0.4"><desc><admin_leve>5</admin_leve><localname>衡阳市 / Hengyang</localname><boundary>administrative</boundary><id>CN.hunan.3156043</id><name>Hengyang City</name></desc></path><path d="M441.987179487,80.7692307692 L428.525641026,128.632478632 L440.491452991,182.478632479 L422.542735043,191.452991453 L346.260683761,194.444444444 L255.021367521,224.358974359 L287.927350427,179.487179487 L262.5,143.58974359 L304.38034188,109.188034188 L316.346153846,77.7777777778 L278.952991453,58.3333333333 L225.106837607,46.3675213675 L211.645299145,7.47863247863 L240.064102564,0.0 L305.876068376,10.4700854701 L343.269230769,28.4188034188 L400.106837607,37.3931623932 L441.987179487,80.7692307692 Z" fill="#cee3f5" id="CN.hunan.3161246" stroke="#6e6e6e" stroke-width="0.4"><desc><admin_leve>5</admin_leve><localname>常德市 / Changde</localname><boundary>administrative</boundary><id>CN.hunan.3161246</id><name>Changde City</name></desc></path><path d="M676.816239316,204.914529915 L627.457264957,221.367521368 L585.576923077,191.452991453 L558.653846154,210.897435897 L494.337606838,207.905982906 L471.901709402,191.452991453 L525.747863248,143.58974359 L446.474358974,77.7777777778 L468.91025641,62.8205128205 L557.158119658,85.2564102564 L599.038461538,40.3846153846 L621.474358974,56.8376068376 L633.44017094,86.7521367521 L613.995726496,113.675213675 L658.867521368,139.102564103 L685.790598291,169.017094017 L676.816239316,204.914529915 Z" fill="#cee3f5" id="CN.hunan.3202467" stroke="#6e6e6e" stroke-width="0.4"><desc><name>Yueyang City</name><admin_leve>5</admin_leve><wikipedia>en:Yueyang</wikipedia><localname>岳阳市 / Yueyang</localname><boundary>administrative</boundary><id>CN.hunan.3202467</id></desc></path><path d="M255.021367521,224.358974359 L346.260683761,194.444444444 L422.542735043,191.452991453 L440.491452991,182.478632479 L428.525641026,128.632478632 L441.987179487,80.7692307692 L446.474358974,77.7777777778 L525.747863248,143.58974359 L471.901709402,191.452991453 L494.337606838,207.905982906 L476.388888889,234.829059829 L397.115384615,251.282051282 L391.132478632,273.717948718 L337.286324786,270.726495726 L311.858974359,248.290598291 L275.961538462,272.222222222 L256.517094017,273.717948718 L240.064102564,240.811965812 L255.021367521,224.358974359 Z" fill="#cee3f5" id="CN.hunan.3202593" stroke="#6e6e6e" stroke-width="0.4"><desc><admin_leve>5</admin_leve><localname>益阳市 / Yiyang</localname><boundary>administrative</boundary><id>CN.hunan.3202593</id><name>Yiyang City</name></desc></path><path d="M404.594017094,288.675213675 L455.448717949,281.196581197 L546.688034188,284.188034188 L534.722222222,350.0 L507.799145299,361.965811966 L473.397435897,351.495726496 L446.474358974,320.085470085 L418.055555556,323.076923077 L404.594017094,288.675213675 Z" fill="#cee3f5" id="CN.hunan.3202624" stroke="#6e6e6e" stroke-width="0.4"><desc><admin_leve>5</admin_leve><localname>湘潭市 / Xiangtan</localname><boundary>administrative</boundary><id>CN.hunan.3202624</id><name>Xiangtan City</name></desc></path><path d="M391.132478632,273.717948718 L397.115384615,251.282051282 L476.388888889,234.829059829 L494.337606838,207.905982906 L558.653846154,210.897435897 L585.576923077,191.452991453 L627.457264957,221.367521368 L676.816239316,204.914529915 L699.252136752,234.829059829 L630.448717949,291.666666667 L603.525641026,282.692307692 L582.585470085,296.153846154 L546.688034188,284.188034188 L455.448717949,281.196581197 L404.594017094,288.675213675 L391.132478632,273.717948718 Z" fill="#cee3f5" id="CN.hunan.3202711" stroke="#6e6e6e" stroke-width="0.4"><desc><admin_leve>5</admin_leve><localname>长沙市 / Changsha</localname><boundary>administrative</boundary><id>CN.hunan.3202711</id><name>Changsha City</name></desc></path></svg>