<?xml version='1.0' encoding='utf-8'?>
<svg height="700" width="700" xmlns="http://www.w3.org/2000/svg"><path d="M261.474398519,509.418054699 L261.042566317,510.857495373 L260.89862225,511.433271643 L260.89862225,512.872712317 L263.921447666,521.221468229 L268.239769689,524.100349578 L274.573308657,531.009664816 L286.376722188,532.305161423 L288.391939132,534.464322435 L288.823771335,537.343203784 L286.80855439,545.835903763 L284.217561176,545.835903763 L279.179518816,548.426896977 L286.088834053,546.411680033 L288.104050997,550.154225787 L285.657001851,550.010281719 L285.800945918,553.752827473 L283.209952704,553.89677154 L279.899239153,558.790869833 L275.580917129,560.374254575 L269.103434094,565.556241003 L267.951881555,568.723010487 L263.057783261,572.897388443 L261.042566317,579.230927411 L259.459181575,580.670368086 L260.89862225,580.814312153 L262.338062924,577.935430804 L259.74706971,592.761669751 L256.436356159,595.6405511 L252.98169854,596.504215505 L247.223935842,588.443347728 L249.527040921,592.473781616 L243.769278223,594.488998561 L249.527040921,593.481390088 L252.837754473,597.079991775 L245.784495168,601.110425663 L243.337446021,606.148468024 L242.905613819,613.345671396 L239.307012132,617.376105285 L242.473781616,614.929056138 L245.784495168,627.164301871 L243.769278223,628.171910343 L240.314620605,627.308245939 L237.147851121,628.891630681 L241.322229077,628.027966276 L243.193501954,628.891630681 L242.761669751,629.899239153 L245.6405511,628.459798478 L254.13325108,643.286037425 L253.269586675,644.437589965 L252.98169854,642.566317088 L233.2613613,637.240386593 L207.639317294,638.5358832 L206.487764754,635.513057783 L199.866337652,629.899239153 L201.881554596,623.27781205 L199.722393584,620.542874769 L201.305778326,617.232161217 L200.154225787,610.754678182 L197.419288505,610.034957845 L195.404071561,611.618342587 L194.108574954,610.610734115 L190.3660292,613.921447666 L188.638700391,613.921447666 L186.047707177,604.565083282 L182.44910549,600.966481596 L183.02488176,598.807320584 L181.585441086,597.223935842 L182.736993625,593.481390088 L180.577832614,589.019123998 L181.873329221,583.981081637 L186.767427514,582.68558503 L185.471930907,581.677976558 L187.487147851,576.639934197 L190.509973268,575.200493523 L192.813078347,571.889779971 L192.525190212,564.836520666 L196.267735965,561.957639317 L195.116183426,556.487764754 L191.949413942,553.464939338 L194.252519021,546.5556241 L193.676742751,543.388854616 L196.411680033,542.237302077 L197.995064775,537.775035986 L199.866337652,538.350812256 L200.442113921,537.487147851 L198.139008842,534.896154637 L199.434505449,533.456713963 L198.570841045,529.570224141 L202.313386798,525.971622455 L200.442113921,517.334978408 L197.995064775,515.319761464 L200.154225787,514.600041127 L201.737610528,512.009047913 L201.737610528,512.009047913 L231.246144355,510.281719103 L249.958873124,509.705942834 L261.474398519,509.418054699 L261.474398519,509.418054699 Z" fill="#cee3f5" id="AR.SC" stroke="#6e6e6e" stroke-width="0.4"><desc><labelrank>3</labelrank><code_hasc>AR.SC</code_hasc><name>Santa Cruz</name><admin>Argentina</admin><type_en>Province</type_en><region /><woe_id>2344694</woe_id><longitude>-69</longitude><woe_name>Santa Cruz</woe_name><fips>AR20</fips><woe_label>Santa Cruz, AR, Argentina</woe_label><latitude>-49</latitude><iso_a2>AR</iso_a2><postal>SC</postal><type>Provincia</type><id>AR.SC</id></desc></path><path d="M252.40592227,697.121118651 L252.40592227,695.249845774 L253.413530742,696.977174584 L252.40592227,697.121118651 M304.945506889,693.23462883 L311.422989924,693.666461032 L309.40777298,695.393789842 L309.263828912,694.242237302 L306.097059428,695.825622044 L305.233395024,694.530125437 L300.627184865,696.977174584 L299.763520461,695.537733909 L300.771128933,694.242237302 L302.64240181,694.530125437 L302.498457742,693.090684762 L304.513674686,694.530125437 L304.945506889,693.23462883 M255.860579889,656.816779766 L256.292412091,659.695661115 L254.709027349,657.536500103 L252.693810405,659.839605182 L252.40592227,662.286654329 L258.019740901,664.44581534 L259.74706971,669.771745836 L263.345671396,673.946123792 L265.216944273,674.665844129 L265.073000206,676.105284804 L275.149084927,683.158544109 L278.747686613,687.764754267 L286.520666255,691.507300021 L295.157310302,691.507300021 L292.710261156,697.265062718 L291.270820481,696.545342381 L288.679827267,698.416615258 L288.104050997,696.977174584 L285.081225581,696.833230516 L284.793337446,698.416615258 L278.171910343,700.0 L272.126259511,696.977174584 L256.580300226,694.961957639 L256.292412091,696.113510179 L253.413530742,696.113510179 L252.40592227,694.961957639 L250.966481596,649.763520461 L255.860579889,656.816779766 Z" fill="#cee3f5" id="AR.TF" stroke="#6e6e6e" stroke-width="0.4"><desc><labelrank>3</labelrank><code_hasc>AR.TF</code_hasc><name>Tierra del Fuego</name><admin>Argentina</admin><type_en>National Territory</type_en><region /><woe_id>2344697</woe_id><longitude>-67</longitude><woe_name>Tierra del Fuego</woe_name><fips>AR23</fips><woe_label>Tierra del Fuego, AR, Argentina</woe_label><latitude>-54</latitude><iso_a2>AR</iso_a2><postal>TF</postal><type>Territorio Nacional|Provincia</type><id>AR.TF</id></desc></path><path d="M271.550483241,211.885667284 L260.178901912,211.597779149 L259.74706971,220.090479128 L258.019740901,219.082870656 L251.974090068,219.802590993 L247.799712112,216.203989307 L241.898005346,218.075262184 L236.716018918,222.105696072 L233.117417232,222.24964014 L232.397696895,216.779765577 L230.238535883,216.635821509 L227.791486737,214.33271643 L225.776269792,216.491877442 L220.162451162,218.075262184 L219.15484269,220.954143533 L208.646925766,222.537528275 L207.495373226,221.961752005 L206.055932552,217.211597779 L207.927205429,216.923709644 L208.502981699,214.764548633 L204.328603743,212.317499486 L202.025498663,207.135513058 L202.169442731,201.521694427 L203.608883405,197.059428336 L204.904380012,198.210980876 L206.055932552,195.763931729 L207.351429159,195.619987662 L206.055932552,193.604770718 L209.222702036,183.096853794 L208.502981699,181.513469052 L212.38947152,181.513469052 L214.548632531,177.051202961 L211.81369525,175.179930084 L212.821303722,169.566111454 L210.230310508,158.914250463 L214.404688464,154.595928439 L216.707793543,139.769689492 L220.162451162,140.201521694 L225.488381657,143.656179313 L230.814312153,152.148879293 L229.230927411,155.315648776 L230.526424018,158.626362328 L229.374871479,165.24778943 L235.132634176,164.672013161 L241.754061279,166.255397903 L254.852971417,177.770923298 L256.292412091,180.649804647 L263.057783261,187.559119885 L265.073000206,191.301665638 L264.785112071,200.945918158 L265.792720543,204.544519844 L269.247378162,206.847624923 L271.550483241,211.885667284 Z" fill="#cee3f5" id="AR.SJ" stroke="#6e6e6e" stroke-width="0.4"><desc><labelrank>6</labelrank><code_hasc>AR.SJ</code_hasc><name>San Juan</name><admin>Argentina</admin><type_en>Province</type_en><region /><woe_id>2344692</woe_id><longitude>-68</longitude><woe_name>San Juan</woe_name><fips>AR18</fips><woe_label>San Juan, AR, Argentina</woe_label><latitude>-30</latitude><iso_a2>AR</iso_a2><postal>SJ</postal><type>Provincia</type><id>AR.SJ</id></desc></path><path d="M231.246144355,425.930495579 L270.830762904,424.922887107 L298.324079786,424.922887107 L299.475632326,425.210775242 L299.475632326,425.210775242 L300.771128933,427.657824388 L302.64240181,429.097265063 L308.400164508,430.39276167 L306.528891631,433.991363356 L308.975940777,434.423195558 L314.301871273,434.135307423 L314.877647543,430.824593872 L310.703269587,430.104873535 L319.052025499,426.794159984 L322.218794983,431.688258277 L322.36273905,437.877853177 L320.779354308,442.1961752 L314.013983138,443.779559942 L311.854822126,441.476454863 L312.574542463,438.597573514 L309.839605182,436.0065803 L306.241003496,435.862636233 L301.059017068,438.741517582 L300.195352663,441.476454863 L305.665227226,444.49928028 L310.991157722,445.794776887 L300.915073,451.120707382 L294.869422167,459.901295497 L295.733086572,466.234834464 L297.028583179,467.818219206 L295.157310302,471.272876825 L296.452806909,474.727534444 L294.7254781,476.742751388 L295.589142505,477.894303928 L289.975323874,481.061073411 L288.823771335,484.083898828 L288.967715402,485.379395435 L291.846596751,486.674892042 L289.255603537,489.409829323 L287.096442525,488.114332716 L285.657001851,489.121941189 L281.626567962,487.970388649 L277.308245939,489.985605593 L277.596134074,491.568990335 L275.868805264,490.993214065 L276.876413736,492.576598807 L270.830762904,493.584207279 L264.929056138,501.213242854 L264.497223936,504.81184454 L261.474398519,509.418054699 L261.474398519,509.418054699 L249.958873124,509.705942834 L231.246144355,510.281719103 L201.737610528,512.009047913 L201.737610528,512.009047913 L202.169442731,511.433271643 L202.025498663,510.713551306 L199.146617314,506.827061485 L199.290561382,503.228459798 L203.32099527,501.357186922 L202.889163068,499.485914045 L205.62410035,496.319144561 L201.161834259,490.417437796 L193.676742751,489.409829323 L193.244910549,486.962780177 L202.169442731,485.379395435 L205.192268147,486.387003907 L207.495373226,480.629241209 L206.055932552,478.470080197 L196.123791898,478.038247995 L196.843512235,476.742751388 L195.691959696,472.424429365 L198.426896977,468.393995476 L195.835903763,465.083281925 L197.419288505,463.355953115 L197.13140037,461.628624306 L193.244910549,458.60579889 L193.964630886,455.870861608 L196.123791898,455.151141271 L196.123791898,452.991980259 L191.229693605,451.552539585 L189.646308863,449.393378573 L189.070532593,440.037014189 L190.509973268,438.309685379 L188.782644458,433.847419289 L190.3660292,430.824593872 L191.805469875,431.832202344 L194.540407156,430.104873535 L194.540407156,428.521488793 L194.396463089,428.377544725 L194.108574954,428.089656591 L193.964630886,427.945712523 L202.457330866,427.369936253 L231.246144355,425.930495579 Z" fill="#cee3f5" id="AR.CH" stroke="#6e6e6e" stroke-width="0.4"><desc><labelrank>3</labelrank><code_hasc>AR.CH</code_hasc><name>Chubut</name><admin>Argentina</admin><type_en>Province</type_en><region /><woe_id>2344678</woe_id><longitude>-67</longitude><woe_name>Chubut</woe_name><fips>AR04</fips><woe_label>Chubut, AR, Argentina</woe_label><latitude>-43</latitude><iso_a2>AR</iso_a2><postal>CH</postal><type>Provincia</type><id>AR.CH</id></desc></path><path d="M259.74706971,220.090479128 L263.489615464,230.598396052 L262.913839194,233.765165536 L264.353279868,244.560970594 L271.550483241,257.947768867 L270.542874769,264.713140037 L275.149084927,275.940777298 L276.012749332,284.721365412 L274.141476455,298.539995887 L245.6405511,299.403660292 L246.936047707,331.791075468 L244.057166358,331.503187333 L242.617725684,329.631914456 L238.443347728,328.048529714 L234.556857907,328.048529714 L231.53403249,324.305983961 L225.200493523,324.305983961 L222.321612174,323.154431421 L220.306395229,320.851326342 L220.594283364,317.972444993 L213.972856262,312.358626362 L212.101583385,308.040304339 L210.518198643,307.896360271 L210.374254575,304.441702653 L209.078757968,303.002261978 L209.798478306,301.274933169 L208.934813901,297.532387415 L209.942422373,296.380834876 L207.639317294,287.312358626 L208.359037631,286.736582357 L205.62410035,284.86530948 L208.934813901,282.706148468 L210.518198643,274.933168826 L209.654534238,273.781616286 L213.684968127,266.584412914 L213.828912194,263.9934197 L217.715402015,262.84186716 L215.844129138,253.053670574 L217.859346083,245.136746864 L216.851737611,242.257865515 L214.980464734,241.826033313 L213.828912194,243.12152992 L211.957639317,240.530536706 L211.81369525,237.651655357 L213.684968127,234.196997738 L210.806086778,231.462060457 L210.950030845,227.86345877 L208.646925766,222.537528275 L219.15484269,220.954143533 L220.162451162,218.075262184 L225.776269792,216.491877442 L227.791486737,214.33271643 L230.238535883,216.635821509 L232.397696895,216.779765577 L233.117417232,222.24964014 L236.716018918,222.105696072 L241.898005346,218.075262184 L247.799712112,216.203989307 L251.974090068,219.802590993 L258.019740901,219.082870656 L259.74706971,220.090479128 Z" fill="#cee3f5" id="AR.MZ" stroke="#6e6e6e" stroke-width="0.4"><desc><labelrank>6</labelrank><code_hasc>AR.MZ</code_hasc><name>Mendoza</name><admin>Argentina</admin><type_en>Province</type_en><region /><woe_id>2344687</woe_id><longitude>-68</longitude><woe_name>Mendoza</woe_name><fips>AR08</fips><woe_label>Mendoza, AR, Argentina</woe_label><latitude>-34</latitude><iso_a2>AR</iso_a2><postal>MZ</postal><type>Provincia</type><id>AR.MZ</id></desc></path><path d="M246.936047707,331.791075468 L247.511823977,354.966070327 L251.686201933,361.58749743 L246.504215505,361.443553362 L242.041949414,365.042155048 L236.284186716,372.815134691 L231.821920625,374.974295702 L227.935430804,379.868393995 L224.912605388,380.300226198 L220.738227432,383.035163479 L218.723010487,393.543080403 L216.563849476,395.99012955 L213.253135924,396.421961752 L211.81369525,395.41435328 L204.904380012,398.437178696 L202.601274933,401.60394818 L204.328603743,404.194941394 L202.601274933,407.361710878 L200.298169854,408.36931935 L191.085749537,407.217766811 L189.21447666,401.172115978 L191.373637672,394.550688875 L192.525190212,394.550688875 L193.244910549,392.535471931 L190.797861402,390.664199054 L190.653917335,387.785317705 L192.813078347,387.785317705 L193.532798684,383.754883817 L191.661525807,377.277400781 L194.972239358,377.133456714 L194.252519021,375.694016039 L196.123791898,371.087805881 L195.835903763,362.451161834 L203.177051203,358.564672013 L204.760435945,354.678182192 L202.313386798,351.799300843 L201.305778326,344.458153403 L197.995064775,336.829117829 L198.85872918,331.791075468 L197.13140037,328.192473782 L198.85872918,324.018095826 L196.699568168,321.427102612 L197.851120707,320.995270409 L196.843512235,318.548221263 L197.419288505,315.381451779 L199.002673247,315.237507711 L199.002673247,311.063129755 L200.730002056,310.631297553 L201.449722394,309.047912811 L204.47254781,309.191856878 L204.328603743,306.169031462 L206.487764754,303.434094181 L209.078757968,303.002261978 L210.374254575,304.441702653 L210.518198643,307.896360271 L212.101583385,308.040304339 L213.972856262,312.358626362 L220.594283364,317.972444993 L220.306395229,320.851326342 L222.321612174,323.154431421 L225.200493523,324.305983961 L231.53403249,324.305983961 L234.556857907,328.048529714 L238.443347728,328.048529714 L242.617725684,329.631914456 L244.057166358,331.503187333 L246.936047707,331.791075468 Z" fill="#cee3f5" id="AR.NQ" stroke="#6e6e6e" stroke-width="0.4"><desc><labelrank>3</labelrank><code_hasc>AR.NQ</code_hasc><name>Neuquén</name><admin>Argentina</admin><type_en>Province</type_en><region /><woe_id>2344689</woe_id><longitude>-69</longitude><woe_name>Neuquén</woe_name><fips>AR15</fips><woe_label>Neuquen, AR, Argentina</woe_label><latitude>-38</latitude><iso_a2>AR</iso_a2><postal>NQ</postal><type>Provincia</type><id>AR.NQ</id></desc></path><path d="M348.416615258,394.406744808 L347.121118651,395.99012955 L345.105901707,394.83857701 L346.257454246,391.959695661 L347.984783056,392.535471931 L348.416615258,394.406744808 M348.84844746,391.096031256 L347.409006786,386.9216533 L348.992391528,387.929261773 L348.84844746,391.096031256 M351.583384742,366.481595723 L352.303105079,368.3528686 L348.704503393,364.898210981 L351.583384742,366.481595723 M350.287888135,363.458770306 L350.431832202,364.466378779 L348.272671191,363.458770306 L350.287888135,363.458770306 M419.668928645,266.152580711 L418.661320173,266.728356981 L418.80526424,264.425251902 L419.668928645,266.152580711 M394.334772774,251.614229899 L396.637877853,253.053670574 L397.213654123,253.197614641 L398.653094797,252.765782439 L400.092535472,254.205223113 L400.812255809,254.780999383 L403.115360888,254.493111248 L403.691137158,256.220440058 L403.835081226,256.220440058 L404.12296936,256.07649599 L404.12296936,256.07649599 L404.842689698,256.940160395 L407.145794777,257.084104462 L413.623277812,262.122146823 L417.941599835,262.122146823 L418.085543903,265.432860374 L414.486942217,267.304133251 L416.358215094,269.175406128 L415.350606621,270.470902735 L415.782438824,272.342175612 L414.630886284,273.205840016 L414.055110014,275.077112893 L414.342998149,276.228665433 L415.926382891,277.812050175 L416.646103228,276.516553568 L417.797655768,276.084721365 L418.22948797,275.652889163 L418.373432038,275.508945096 L425.858523545,279.683323052 L431.616286243,284.001645075 L435.934608267,289.471519638 L437.661937076,293.645897594 L433.199670985,299.403660292 L432.479950648,304.58564672 L434.207279457,308.903968744 L438.957433683,313.942011104 L442.556035369,312.790458565 L442.556035369,325.169648365 L434.926999794,335.389677154 L426.866132017,343.594488999 L425.138803208,349.640139831 L411.608060868,356.261566934 L386.849681267,361.731441497 L364.394406745,363.890602509 L353.022825416,362.882994037 L349.42422373,361.443553362 L347.984783056,358.996504216 L344.242237302,358.708616081 L344.38618137,360.723833025 L345.969566111,362.019329632 L344.38618137,365.042155048 L345.969566111,368.3528686 L344.818013572,368.208924532 L349.712111865,370.799917746 L349.136335595,371.807526218 L346.977174584,369.504421139 L345.393789842,369.504421139 L348.992391528,372.671190623 L347.696894921,380.300226198 L346.977174584,381.163890603 L344.674069504,380.012338063 L343.522516965,387.929261773 L341.219411886,390.376310919 L342.370964425,393.68702447 L344.674069504,395.702241415 L344.530125437,397.429570224 L343.378572897,396.565905819 L343.522516965,398.005346494 L345.969566111,397.285626157 L343.23462883,402.323668517 L335.605593255,405.634382069 L330.999383097,399.444787168 L326.537117006,398.293234629 L327.112893276,380.588114333 L327.400781411,369.216533004 L328.408389883,335.677565289 L328.840222085,317.108780588 L329.272054287,298.827884022 L329.415998355,298.108163685 L329.70388649,288.607855233 L329.991774625,278.09993831 L330.27966276,269.319350195 L330.423606827,265.720748509 L331.143327164,265.144972239 L339.492083076,265.432860374 L349.42422373,265.720748509 L359.500308452,266.008636644 L365.545959284,259.819041744 L370.008225375,255.356775653 L373.318938927,251.902118034 L374.326547399,249.599012955 L375.622044006,249.31112482 L375.909932141,249.31112482 L376.773596545,249.88690109 L378.500925355,250.030845157 L381.955582973,251.182397697 L385.55418466,243.553362122 L386.417849064,244.129138392 L388.433066009,246.720131606 L391.455891425,249.023236685 L391.74377956,249.167180753 L392.031667695,249.167180753 L392.8953321,249.742957022 L393.183220234,249.88690109 L393.471108369,250.318733292 L394.046884639,251.326341764 L394.334772774,251.614229899 Z" fill="#cee3f5" id="AR.BA" stroke="#6e6e6e" stroke-width="0.4"><desc><labelrank>3</labelrank><code_hasc>AR.BA</code_hasc><name>Buenos Aires</name><admin>Argentina</admin><type_en>Federal District</type_en><region /><woe_id>2344675</woe_id><longitude>-60</longitude><woe_name /><fips>AR01</fips><woe_label>Buenos Aires</woe_label><latitude>-36</latitude><iso_a2>AR</iso_a2><postal>DF</postal><type>Distrito Federal</type><id>AR.BA</id></desc></path><path d="M329.991774625,278.09993831 L329.272054287,298.827884022 L329.12811022,307.608472137 L328.984166153,312.358626362 L328.55233395,326.177256837 L327.97655768,347.049146617 L327.688669546,358.708616081 L327.400781411,369.216533004 L325.241620399,368.640756735 L317.324696689,362.019329632 L309.839605182,358.852560148 L301.634793337,357.701007608 L295.157310302,358.276783878 L291.846596751,356.981287271 L289.831379807,357.844951676 L285.369113716,356.261566934 L275.436973062,355.397902529 L273.997532387,352.375077113 L266.944273082,349.352251696 L265.073000206,345.465761875 L258.883405305,346.32942628 L255.860579889,342.586880526 L253.845362945,342.011104257 L253.55747481,339.707999177 L256.148468024,336.253341559 L254.421139214,332.942628007 L246.936047707,331.791075468 L245.6405511,299.403660292 L274.141476455,298.539995887 L300.33929673,298.683939955 L300.483240798,277.668106107 L329.991774625,278.09993831 Z" fill="#cee3f5" id="AR.LP" stroke="#6e6e6e" stroke-width="0.4"><desc><labelrank>3</labelrank><code_hasc>AR.LP</code_hasc><name>La Pampa</name><admin>Argentina</admin><type_en>Province</type_en><region /><woe_id>2344685</woe_id><longitude>-65</longitude><woe_name>La Pampa</woe_name><fips>AR11</fips><woe_label>La Pampa, AR, Argentina</woe_label><latitude>-37</latitude><iso_a2>AR</iso_a2><postal>LP</postal><type>Provincia</type><id>AR.LP</id></desc></path><path d="M327.400781411,369.216533004 L326.537117006,398.293234629 L330.999383097,399.444787168 L335.605593255,405.634382069 L330.855439029,407.79354308 L320.059633971,407.649599013 L315.59736788,404.194941394 L302.06662554,400.164507506 L304.657618754,399.876619371 L304.369730619,398.437178696 L300.915073,398.005346494 L302.210569607,399.012954966 L298.755911988,400.308451573 L297.892247584,403.187332922 L300.627184865,414.990746453 L299.907464528,417.869627802 L300.483240798,420.604565083 L299.187744191,423.915278635 L299.331688258,424.634998972 L299.475632326,425.210775242 L299.475632326,425.210775242 L246.504215505,425.354719309 L231.246144355,425.930495579 L202.457330866,427.369936253 L194.252519021,427.945712523 L193.964630886,427.945712523 L191.085749537,420.748509151 L192.093358009,418.877236274 L191.085749537,407.217766811 L200.298169854,408.36931935 L202.601274933,407.361710878 L204.328603743,404.194941394 L202.601274933,401.60394818 L204.904380012,398.437178696 L211.81369525,395.41435328 L213.253135924,396.421961752 L216.563849476,395.99012955 L218.723010487,393.543080403 L220.738227432,383.035163479 L224.912605388,380.300226198 L227.935430804,379.868393995 L231.821920625,374.974295702 L236.284186716,372.815134691 L242.041949414,365.042155048 L246.504215505,361.443553362 L251.686201933,361.58749743 L247.511823977,354.966070327 L246.936047707,331.791075468 L254.421139214,332.942628007 L256.148468024,336.253341559 L253.55747481,339.707999177 L253.845362945,342.011104257 L255.860579889,342.586880526 L258.883405305,346.32942628 L265.073000206,345.465761875 L266.944273082,349.352251696 L273.997532387,352.375077113 L275.436973062,355.397902529 L285.369113716,356.261566934 L289.831379807,357.844951676 L291.846596751,356.981287271 L295.157310302,358.276783878 L301.634793337,357.701007608 L309.839605182,358.852560148 L317.324696689,362.019329632 L325.241620399,368.640756735 L327.400781411,369.216533004 Z" fill="#cee3f5" id="AR.RN" stroke="#6e6e6e" stroke-width="0.4"><desc><labelrank>3</labelrank><code_hasc>AR.RN</code_hasc><name>Río Negro</name><admin>Argentina</admin><type_en>Province</type_en><region /><woe_id>2344690</woe_id><longitude>-67</longitude><woe_name>Río Negro</woe_name><fips>AR16</fips><woe_label>Rio Negro, AR, Argentina</woe_label><latitude>-40</latitude><iso_a2>AR</iso_a2><postal>RN</postal><type>Provincia</type><id>AR.RN</id></desc></path><path d="M271.550483241,211.885667284 L278.027966276,213.037219823 L283.641784906,211.741723216 L288.967715402,212.029611351 L297.028583179,215.772157105 L299.187744191,221.385975735 L303.937898417,220.954143533 L304.513674686,227.575570635 L301.778737405,237.939543492 L300.051408596,239.810816368 L300.483240798,277.668106107 L300.33929673,298.683939955 L274.141476455,298.539995887 L276.012749332,284.721365412 L275.149084927,275.940777298 L270.542874769,264.713140037 L271.550483241,257.947768867 L264.353279868,244.560970594 L262.913839194,233.765165536 L263.489615464,230.598396052 L259.74706971,220.090479128 L260.178901912,211.597779149 L271.550483241,211.885667284 Z" fill="#cee3f5" id="AR.SL" stroke="#6e6e6e" stroke-width="0.4"><desc><labelrank>6</labelrank><code_hasc>AR.SL</code_hasc><name>San Luis</name><admin>Argentina</admin><type_en>Province</type_en><region /><woe_id>2344693</woe_id><longitude>-66</longitude><woe_name>San Luis</woe_name><fips>AR19</fips><woe_label>San Luis, AR, Argentina</woe_label><latitude>-33</latitude><iso_a2>AR</iso_a2><postal>SL</postal><type>Provincia</type><id>AR.SL</id></desc></path><path d="M356.1895949,176.907258894 L355.181986428,182.808965659 L359.932140654,189.142504627 L354.462266091,207.423401193 L352.303105079,209.726506272 L352.303105079,218.507094386 L357.485091507,225.560353691 L357.772979642,229.734731647 L360.363972856,233.045445198 L359.788196586,236.644046885 L356.909315238,239.235040099 L346.977174584,254.205223113 L339.492083076,265.432860374 L331.143327164,265.144972239 L330.423606827,265.720748509 L330.27966276,269.319350195 L329.991774625,278.09993831 L300.483240798,277.668106107 L300.051408596,239.810816368 L301.778737405,237.939543492 L304.513674686,227.575570635 L303.937898417,220.954143533 L299.187744191,221.385975735 L297.028583179,215.772157105 L288.967715402,212.029611351 L288.823771335,195.476043594 L295.589142505,175.323874152 L300.483240798,173.74048941 L304.081842484,169.997943656 L303.793954349,164.240180958 L305.233395024,163.232572486 L316.748920419,160.497635205 L320.491466173,161.649187744 L320.923298375,163.088628419 L324.953732264,165.391733498 L331.287271232,165.679621633 L332.582767839,168.126670779 L352.734937282,168.846391117 L356.1895949,176.907258894 Z" fill="#cee3f5" id="AR.CB" stroke="#6e6e6e" stroke-width="0.4"><desc><labelrank>3</labelrank><code_hasc>AR.CB</code_hasc><name>Córdoba</name><admin>Argentina</admin><type_en>Province</type_en><region /><woe_id>2344679</woe_id><longitude>-63</longitude><woe_name>Córdoba</woe_name><fips>AR05</fips><woe_label>Cordoba, AR, Argentina</woe_label><latitude>-32</latitude><iso_a2>AR</iso_a2><postal>CB</postal><type>Provincia</type><id>AR.CB</id></desc></path><path d="M283.641784906,93.7075879087 L281.77051203,99.3214065392 L287.38433066,103.351840428 L287.096442525,107.238330249 L281.050791692,116.018918363 L285.081225581,117.602303105 L287.528274728,125.80711495 L290.263212009,126.526835287 L292.710261156,131.42093358 L296.884639112,127.534443759 L300.195352663,128.542052231 L301.922681472,139.33785729 L299.907464528,143.944067448 L301.49084927,145.52745219 L302.498457742,157.618753856 L305.233395024,163.232572486 L303.793954349,164.240180958 L304.081842484,169.997943656 L300.483240798,173.74048941 L295.589142505,175.323874152 L289.687435739,161.937075879 L288.5358832,156.611145384 L282.490232367,150.709438618 L278.027966276,148.406333539 L278.459798478,145.815340325 L273.85358832,138.906025087 L266.51244088,136.027143738 L262.625951059,137.898416615 L252.98169854,137.754472548 L250.822537528,138.618136952 L248.663376517,133.292206457 L245.6405511,134.011926794 L239.163068065,130.84515731 L239.019123998,125.375282747 L226.064157927,126.382891219 L231.821920625,112.420316677 L236.140242649,113.283981082 L237.291795188,111.412708205 L240.890396874,110.5490438 L241.178285009,107.670162451 L235.564466379,98.4577421345 L235.852354514,95.1470285832 L239.019123998,91.8363150319 L234.844746042,77.729796422 L237.003907053,71.1083693194 L250.102817191,73.555418466 L273.997532387,73.1235862636 L275.724861197,77.4419082871 L275.293028994,80.1768455686 L269.535266297,82.4799506477 L269.391322229,85.5027760642 L276.876413736,96.4425251902 L280.475015423,91.9802590993 L283.641784906,93.7075879087 Z" fill="#cee3f5" id="AR.CT" stroke="#6e6e6e" stroke-width="0.4"><desc><labelrank>6</labelrank><code_hasc>AR.CT</code_hasc><name>Catamarca</name><admin>Argentina</admin><type_en>Province</type_en><region /><woe_id>2344676</woe_id><longitude>-67</longitude><woe_name>Catamarca</woe_name><fips>AR02</fips><woe_label>Catamarca, AR, Argentina</woe_label><latitude>-26</latitude><iso_a2>AR</iso_a2><postal>CT</postal><type>Provincia</type><id>AR.CT</id></desc></path><path d="M300.483240798,6.47748303516 L297.460415381,16.697511824 L299.043800123,17.8490643636 L299.763520461,24.3265473987 L303.793954349,26.1978202756 L303.362122147,30.9479745013 L304.945506889,31.9555829735 L306.528891631,35.8420727946 L310.703269587,34.9784083899 L314.877647543,38.5770100761 L316.317088217,36.2739049969 L319.915689903,36.5617931318 L320.203578038,50.3804236068 L317.468640757,54.9866337652 L313.438206868,56.5700185071 L311.279045856,59.3049557886 L307.248611968,55.9942422373 L305.377339091,59.0170676537 L300.771128933,55.9942422373 L298.611967921,56.857906642 L293.57392556,55.4184659675 L289.399547604,50.0925354719 L289.255603537,47.9333744602 L284.649393379,45.0544931112 L284.793337446,36.5617931318 L278.027966276,33.1071355131 L276.732469669,36.2739049969 L278.171910343,40.5922270204 L277.884022209,47.213654123 L275.00514086,51.388032079 L271.694427308,50.5243676743 L260.466790047,40.8801151553 L264.929056138,25.4780999383 L261.474398519,21.7355541847 L264.641168003,17.8490643636 L264.497223936,15.4020152169 L269.391322229,13.3867982727 L270.254986634,9.06847624923 L278.603742546,6.04565083282 L279.899239153,1.13686837722e-13 L282.778120502,0.863664404689 L289.687435739,6.76537117006 L300.483240798,6.47748303516 Z" fill="#cee3f5" id="AR.JY" stroke="#6e6e6e" stroke-width="0.4"><desc><labelrank>3</labelrank><code_hasc>AR.JY</code_hasc><name>Jujuy</name><admin>Argentina</admin><type_en>Province</type_en><region /><woe_id>2344684</woe_id><longitude>-65</longitude><woe_name>Jujuy</woe_name><fips>AR10</fips><woe_label>Jujuy, AR, Argentina</woe_label><latitude>-23</latitude><iso_a2>AR</iso_a2><postal>JY</postal><type>Provincia</type><id>AR.JY</id></desc></path><path d="M295.589142505,175.323874152 L288.823771335,195.476043594 L288.967715402,212.029611351 L283.641784906,211.741723216 L278.027966276,213.037219823 L271.550483241,211.885667284 L269.247378162,206.847624923 L265.792720543,204.544519844 L264.785112071,200.945918158 L265.073000206,191.301665638 L263.057783261,187.559119885 L256.292412091,180.649804647 L254.852971417,177.770923298 L241.754061279,166.255397903 L235.132634176,164.672013161 L229.374871479,165.24778943 L230.526424018,158.626362328 L229.230927411,155.315648776 L230.814312153,152.148879293 L225.488381657,143.656179313 L220.162451162,140.201521694 L216.707793543,139.769689492 L219.730618959,135.451367469 L221.026115567,135.739255604 L223.041332511,131.133045445 L225.200493523,130.125436973 L226.064157927,126.382891219 L239.019123998,125.375282747 L239.163068065,130.84515731 L245.6405511,134.011926794 L248.663376517,133.292206457 L250.822537528,138.618136952 L252.98169854,137.754472548 L262.625951059,137.898416615 L266.51244088,136.027143738 L273.85358832,138.906025087 L278.459798478,145.815340325 L278.027966276,148.406333539 L282.490232367,150.709438618 L288.5358832,156.611145384 L289.687435739,161.937075879 L295.589142505,175.323874152 Z" fill="#cee3f5" id="AR.LR" stroke="#6e6e6e" stroke-width="0.4"><desc><labelrank>6</labelrank><code_hasc>AR.LR</code_hasc><name>La Rioja</name><admin>Argentina</admin><type_en>Province</type_en><region /><woe_id>2344686</woe_id><longitude>-67</longitude><woe_name>La Rioja</woe_name><fips>AR12</fips><woe_label>La Rioja, AR, Argentina</woe_label><latitude>-29</latitude><iso_a2>AR</iso_a2><postal>LR</postal><type>Provincia</type><id>AR.LR</id></desc></path><path d="M356.045650833,15.114127082 L355.325930496,49.804647337 L355.181986428,55.7063541024 L334.166152581,81.6162862431 L324.234011927,81.3283981082 L319.195969566,79.7450133662 L313.294262801,93.1318116389 L307.968332305,92.843923504 L304.657618754,94.139420111 L298.899856056,91.9802590993 L297.748303516,89.965042155 L295.30125437,90.8287065597 L291.126876414,89.965042155 L289.975323874,94.5712523134 L283.641784906,93.7075879087 L280.475015423,91.9802590993 L276.876413736,96.4425251902 L269.391322229,85.5027760642 L269.535266297,82.4799506477 L275.293028994,80.1768455686 L275.724861197,77.4419082871 L273.997532387,73.1235862636 L250.102817191,73.555418466 L237.003907053,71.1083693194 L239.4509562,70.3886489821 L235.276578244,63.7672218795 L236.716018918,59.4488998561 L237.579683323,60.0246761258 L238.587291795,57.2897388443 L239.882788402,57.1457947769 L241.466173144,54.8426896977 L258.451573103,47.0697100555 L260.466790047,40.8801151553 L271.694427308,50.5243676743 L275.00514086,51.388032079 L277.884022209,47.213654123 L278.171910343,40.5922270204 L276.732469669,36.2739049969 L278.027966276,33.1071355131 L284.793337446,36.5617931318 L284.649393379,45.0544931112 L289.255603537,47.9333744602 L289.399547604,50.0925354719 L293.57392556,55.4184659675 L298.611967921,56.857906642 L300.771128933,55.9942422373 L305.377339091,59.0170676537 L307.248611968,55.9942422373 L311.279045856,59.3049557886 L313.438206868,56.5700185071 L317.468640757,54.9866337652 L320.203578038,50.3804236068 L319.915689903,36.5617931318 L316.317088217,36.2739049969 L314.877647543,38.5770100761 L310.703269587,34.9784083899 L306.528891631,35.8420727946 L304.945506889,31.9555829735 L303.362122147,30.9479745013 L303.793954349,26.1978202756 L299.763520461,24.3265473987 L299.043800123,17.8490643636 L297.460415381,16.697511824 L300.483240798,6.47748303516 L312.286654329,8.92453218178 L317.324696689,22.8871067242 L318.764137364,15.9777914867 L325.097676331,4.60621015834 L328.840222085,5.75776269792 L330.855439029,4.60621015834 L347.265062718,5.03804236068 L347.552950853,7.7729796422 L350.719720337,10.2200287888 L350.57577627,11.5155253958 L356.045650833,15.114127082 Z" fill="#cee3f5" id="AR.SA" stroke="#6e6e6e" stroke-width="0.4"><desc><labelrank>6</labelrank><code_hasc>AR.SA</code_hasc><name>Salta</name><admin>Argentina</admin><type_en>Province</type_en><region /><woe_id>2344691</woe_id><longitude>-64</longitude><woe_name>Salta</woe_name><fips>AR17</fips><woe_label>Salta, AR, Argentina</woe_label><latitude>-25</latitude><iso_a2>AR</iso_a2><postal>SA</postal><type>Provincia</type><id>AR.SA</id></desc></path><path d="M334.166152581,81.6162862431 L365.545959284,82.4799506477 L364.68229488,131.852765782 L356.1895949,176.907258894 L352.734937282,168.846391117 L332.582767839,168.126670779 L331.287271232,165.679621633 L324.953732264,165.391733498 L320.923298375,163.088628419 L320.491466173,161.649187744 L316.748920419,160.497635205 L305.233395024,163.232572486 L302.498457742,157.618753856 L301.49084927,145.52745219 L299.907464528,143.944067448 L301.922681472,139.33785729 L300.195352663,128.542052231 L301.922681472,128.110220029 L303.362122147,125.80711495 L302.06662554,122.064569196 L303.937898417,120.193296319 L302.210569607,119.329631914 L305.665227226,116.018918363 L309.695661115,105.367057372 L311.422989924,102.776064158 L313.006374666,102.776064158 L313.294262801,93.1318116389 L319.195969566,79.7450133662 L324.234011927,81.3283981082 L334.166152581,81.6162862431 Z" fill="#cee3f5" id="AR.SE" stroke="#6e6e6e" stroke-width="0.4"><desc><labelrank>6</labelrank><code_hasc>AR.SE</code_hasc><name>Santiago del Estero</name><admin>Argentina</admin><type_en>Province</type_en><region /><woe_id>2344696</woe_id><longitude>-63</longitude><woe_name>Santiago del Estero</woe_name><fips>AR22</fips><woe_label>Santiago del Estero, AR, Argentina</woe_label><latitude>-27</latitude><iso_a2>AR</iso_a2><postal>SE</postal><type>Provincia</type><id>AR.SE</id></desc></path><path d="M313.294262801,93.1318116389 L313.006374666,102.776064158 L311.422989924,102.776064158 L309.695661115,105.367057372 L305.665227226,116.018918363 L302.210569607,119.329631914 L303.937898417,120.193296319 L302.06662554,122.064569196 L303.362122147,125.80711495 L301.922681472,128.110220029 L300.195352663,128.542052231 L296.884639112,127.534443759 L292.710261156,131.42093358 L290.263212009,126.526835287 L287.528274728,125.80711495 L285.081225581,117.602303105 L281.050791692,116.018918363 L287.096442525,107.238330249 L287.38433066,103.351840428 L281.77051203,99.3214065392 L283.641784906,93.7075879087 L289.975323874,94.5712523134 L291.126876414,89.965042155 L295.30125437,90.8287065597 L297.748303516,89.965042155 L298.899856056,91.9802590993 L304.657618754,94.139420111 L307.968332305,92.843923504 L313.294262801,93.1318116389 Z" fill="#cee3f5" id="AR.TM" stroke="#6e6e6e" stroke-width="0.4"><desc><labelrank>3</labelrank><code_hasc>AR.TM</code_hasc><name>Tucumán</name><admin>Argentina</admin><type_en>Province</type_en><region /><woe_id>2344698</woe_id><longitude>-65</longitude><woe_name>Tucumán</woe_name><fips>AR24</fips><woe_label>Tucuman, AR, Argentina</woe_label><latitude>-26</latitude><iso_a2>AR</iso_a2><postal>TM</postal><type>Provincia</type><id>AR.TM</id></desc></path><path d="M429.025293029,111.268764137 L426.578243882,112.27637261 L425.714579478,114.867365824 L422.979642196,116.7386387 L423.699362533,120.193296319 L418.22948797,123.216121736 L419.237096443,128.398108164 L417.941599835,134.299814929 L364.68229488,131.852765782 L365.545959284,82.4799506477 L334.166152581,81.6162862431 L355.181986428,55.7063541024 L355.325930496,49.804647337 L365.977791487,54.6987456303 L372.167386387,60.8883405305 L376.773596545,61.8959490027 L379.076701625,66.7900472959 L389.872506683,73.8433066009 L394.622660909,80.1768455686 L395.630269381,83.7754472548 L398.221262595,84.495167592 L404.842689698,91.548426897 L404.986633765,94.139420111 L409.592843924,95.4349167181 L410.744396463,98.7456302694 L414.486942217,98.0259099321 L418.22948797,100.472959079 L429.025293029,111.268764137 Z" fill="#cee3f5" id="AR.CC" stroke="#6e6e6e" stroke-width="0.4"><desc><labelrank>3</labelrank><code_hasc>AR.CC</code_hasc><name>Chaco</name><admin>Argentina</admin><type_en>Province</type_en><region /><woe_id>2344677</woe_id><longitude>-60</longitude><woe_name>Chaco</woe_name><fips>AR03</fips><woe_label>Chaco, AR, Argentina</woe_label><latitude>-26</latitude><iso_a2>AR</iso_a2><postal>CC</postal><type>Provincia</type><id>AR.CC</id></desc></path><path d="M429.025293029,111.268764137 L418.22948797,100.472959079 L414.486942217,98.0259099321 L410.744396463,98.7456302694 L409.592843924,95.4349167181 L404.986633765,94.139420111 L404.842689698,91.548426897 L398.221262595,84.495167592 L395.630269381,83.7754472548 L394.622660909,80.1768455686 L389.872506683,73.8433066009 L379.076701625,66.7900472959 L376.773596545,61.8959490027 L372.167386387,60.8883405305 L365.977791487,54.6987456303 L355.325930496,49.804647337 L356.045650833,15.114127082 L358.060867777,16.5535677565 L357.772979642,17.993008431 L363.242854205,27.2054287477 L367.561176229,31.6676948386 L371.735554185,33.9707999177 L371.879498252,35.2662965248 L379.364589759,39.7285626157 L381.235862636,43.9029405717 L394.046884639,48.9409829323 L399.948591404,48.9409829323 L422.835698129,66.3582150936 L429.169237096,68.2294879704 L431.616286243,71.3962574542 L433.919391322,70.3886489821 L442.412091302,75.7145794777 L446.010692988,81.7602303105 L445.578860786,84.3512235246 L441.548426897,86.9422167386 L438.669545548,92.4120913017 L439.245321818,93.4196997738 L433.775447255,96.7304133251 L434.495167592,98.0259099321 L432.192062513,101.624511618 L432.623894715,106.518609912 L431.472342176,106.518609912 L429.025293029,111.268764137 Z" fill="#cee3f5" id="AR.FM" stroke="#6e6e6e" stroke-width="0.4"><desc><labelrank>6</labelrank><code_hasc>AR.FM</code_hasc><name>Formosa</name><admin>Argentina</admin><type_en>Province</type_en><region /><woe_id>2344683</woe_id><longitude>-59</longitude><woe_name>Formosa</woe_name><fips>AR09</fips><woe_label>Formosa, AR, Argentina</woe_label><latitude>-24</latitude><iso_a2>AR</iso_a2><postal>FM</postal><type>Provincia</type><id>AR.FM</id></desc></path><path d="M473.50400987,123.935842073 L472.352457331,126.382891219 L474.943450545,136.315031873 L478.542052231,141.784906436 L475.519226815,143.368291178 L477.390499692,145.52745219 L476.670779354,147.110836932 L474.07978614,145.671396257 L472.784289533,146.247172527 L472.784289533,148.118445404 L470.625128521,148.550277606 L469.905408184,150.997326753 L465.011309891,154.164096237 L461.844540407,160.065803002 L458.101994654,161.793131812 L456.518609912,165.24778943 L449.753238742,172.157104668 L444.571252313,174.604153815 L443.707587909,178.058811433 L437.517993008,182.089245322 L437.086160806,184.968126671 L432.479950648,189.286448694 L433.631503187,193.604770718 L430.608677771,190.294057166 L426.72218795,182.521077524 L420.244704915,180.074028378 L414.918774419,181.225580917 L412.471725272,180.649804647 L408.009459182,183.240797861 L400.380423607,182.665021592 L401.963808349,176.763314826 L400.668311742,172.444992803 L403.691137158,160.065803002 L410.456508328,155.459592844 L413.047501542,147.254780999 L413.623277812,137.754472548 L416.790047296,136.171087806 L417.941599835,134.299814929 L419.237096443,128.398108164 L418.22948797,123.216121736 L423.699362533,120.193296319 L434.783055727,119.617520049 L450.329015011,125.519226815 L455.654945507,124.511618343 L457.958050586,126.526835287 L462.27637261,125.663170882 L464.867365824,128.685996299 L467.458359038,124.65556241 L470.049352252,123.216121736 L473.50400987,123.935842073 Z" fill="#cee3f5" id="AR.CN" stroke="#6e6e6e" stroke-width="0.4"><desc><labelrank>6</labelrank><code_hasc>AR.CN</code_hasc><name>Corrientes</name><admin>Argentina</admin><type_en>Province</type_en><region /><woe_id>2344680</woe_id><longitude>-57</longitude><woe_name>Corrientes</woe_name><fips>AR06</fips><woe_label>Corrientes, AR, Argentina</woe_label><latitude>-28</latitude><iso_a2>AR</iso_a2><postal>CN</postal><type>Provincia</type><id>AR.CN</id></desc></path><path d="M433.631503187,193.604770718 L433.343615052,196.915484269 L431.472342176,197.635204606 L432.33600658,200.082253753 L431.184454041,203.824799506 L427.729796422,208.574953732 L429.169237096,210.446226609 L429.025293029,212.317499486 L427.441908287,215.772157105 L424.706971006,217.211597779 L425.57063541,219.946535061 L424.563026938,222.82541641 L426.002467613,225.560353691 L423.555418466,229.878675715 L423.987250668,241.682089245 L418.949208308,242.257865515 L418.80526424,246.576187539 L416.358215094,250.606621427 L415.782438824,255.068887518 L417.077935431,261.546370553 L413.623277812,262.122146823 L407.145794777,257.084104462 L404.842689698,256.940160395 L404.12296936,256.07649599 L404.12296936,256.07649599 L403.835081226,256.220440058 L403.691137158,256.220440058 L403.115360888,254.493111248 L400.812255809,254.780999383 L400.092535472,254.205223113 L398.653094797,252.765782439 L396.637877853,253.053670574 L394.334772774,251.614229899 L394.046884639,251.326341764 L393.471108369,250.318733292 L392.8953321,249.742957022 L392.031667695,249.167180753 L391.74377956,249.167180753 L391.455891425,249.023236685 L388.433066009,246.720131606 L386.417849064,244.129138392 L385.55418466,243.553362122 L381.235862636,239.235040099 L377.925149085,228.871067242 L380.372198232,218.219206251 L379.364589759,215.052436767 L380.947974501,210.878058811 L385.842072795,209.726506272 L398.653094797,193.028994448 L400.812255809,187.84700802 L400.380423607,182.665021592 L408.009459182,183.240797861 L412.471725272,180.649804647 L414.918774419,181.225580917 L420.244704915,180.074028378 L426.72218795,182.521077524 L430.608677771,190.294057166 L433.631503187,193.604770718 Z" fill="#cee3f5" id="AR.ER" stroke="#6e6e6e" stroke-width="0.4"><desc><labelrank>3</labelrank><code_hasc>AR.ER</code_hasc><name>Entre Ríos</name><admin>Argentina</admin><type_en>Province</type_en><region /><woe_id>2344682</woe_id><longitude>-59</longitude><woe_name>Entre Ríos</woe_name><fips>AR08</fips><woe_label>Entre Rios, AR, Argentina</woe_label><latitude>-32</latitude><iso_a2>AR</iso_a2><postal>ER</postal><type>Provincia</type><id>AR.ER</id></desc></path><path d="M400.380423607,182.665021592 L400.812255809,187.84700802 L398.653094797,193.028994448 L385.842072795,209.726506272 L380.947974501,210.878058811 L379.364589759,215.052436767 L380.372198232,218.219206251 L377.925149085,228.871067242 L381.235862636,239.235040099 L385.55418466,243.553362122 L385.842072795,244.129138392 L385.842072795,244.704914662 L381.955582973,251.182397697 L380.372198232,251.470285832 L378.500925355,250.030845157 L376.773596545,249.88690109 L375.909932141,249.31112482 L375.622044006,249.31112482 L374.326547399,249.599012955 L373.318938927,251.902118034 L370.008225375,255.356775653 L365.545959284,259.819041744 L359.500308452,266.008636644 L349.42422373,265.720748509 L339.492083076,265.432860374 L346.977174584,254.205223113 L356.909315238,239.235040099 L359.788196586,236.644046885 L360.363972856,233.045445198 L357.772979642,229.734731647 L357.485091507,225.560353691 L352.303105079,218.507094386 L352.303105079,209.726506272 L354.462266091,207.423401193 L359.932140654,189.142504627 L355.181986428,182.808965659 L356.1895949,176.907258894 L364.68229488,131.852765782 L417.941599835,134.299814929 L416.790047296,136.171087806 L413.623277812,137.754472548 L413.047501542,147.254780999 L410.456508328,155.459592844 L403.691137158,160.065803002 L400.668311742,172.444992803 L401.963808349,176.763314826 L400.380423607,182.665021592 Z" fill="#cee3f5" id="AR.SF" stroke="#6e6e6e" stroke-width="0.4"><desc><labelrank>6</labelrank><code_hasc>AR.SF</code_hasc><name>Santa Fe</name><admin>Argentina</admin><type_en>Province</type_en><region /><woe_id>2344695</woe_id><longitude>-60</longitude><woe_name>Santa Fe</woe_name><fips>AR21</fips><woe_label>Santa Fe, AR, Argentina</woe_label><latitude>-30</latitude><iso_a2>AR</iso_a2><postal>SF</postal><type>Provincia</type><id>AR.SF</id></desc></path><path d="M478.542052231,141.784906436 L474.943450545,136.315031873 L472.352457331,126.382891219 L473.50400987,123.935842073 L477.246555624,126.670779354 L480.557269175,124.511618343 L480.701213243,121.056960724 L483.436150524,119.761464117 L484.587703064,117.31441497 L489.91363356,117.31441497 L490.345465762,115.443142093 L493.368291178,114.003701419 L494.519843718,111.70059634 L497.110836932,111.268764137 L500.853382686,102.056343821 L502.724655562,88.8134896155 L505.459592844,91.548426897 L506.755089451,89.3892658853 L510.641579272,89.6771540202 L510.20974707,88.669545548 L512.224964014,87.9498252108 L512.368908081,90.2529302899 L512.800740284,89.2453218178 L514.815957228,91.6923709644 L516.111453835,91.4044828295 L516.831174172,98.4577421345 L519.422167386,105.079169237 L516.39934197,114.579477689 L517.119062307,118.753855645 L514.384125026,123.935842073 L511.793131812,123.647953938 L509.202138598,126.095003085 L507.618753856,125.087394612 L505.171704709,128.829940366 L502.148879293,128.110220029 L502.004935225,129.261772568 L499.413942011,128.829940366 L497.254780999,130.701213243 L495.095619988,129.981492906 L492.648570841,134.299814929 L489.481801357,134.875591199 L490.201521694,136.458975941 L484.731647131,137.322640345 L482.140653917,140.633353897 L478.542052231,141.784906436 Z" fill="#cee3f5" id="AR.MN" stroke="#6e6e6e" stroke-width="0.4"><desc><labelrank>3</labelrank><code_hasc>AR.MN</code_hasc><name>Misiones</name><admin>Argentina</admin><type_en>Province</type_en><region /><woe_id>2344688</woe_id><longitude>-54</longitude><woe_name>Misiones</woe_name><fips>AR14</fips><woe_label>Misiones, AR, Argentina</woe_label><latitude>-27</latitude><iso_a2>AR</iso_a2><postal>MN</postal><type>Provincia</type><id>AR.MN</id></desc></path><path d="M418.373432038,275.508945096 L418.22948797,275.652889163 L417.797655768,276.084721365 L416.646103228,276.516553568 L415.926382891,277.812050175 L414.342998149,276.228665433 L414.630886284,273.205840016 L415.782438824,272.342175612 L417.365823566,273.637672219 L417.941599835,274.357392556 L418.085543903,274.933168826 L418.373432038,275.508945096 Z" fill="#cee3f5" id="AR.DF" stroke="#6e6e6e" stroke-width="0.4"><desc><labelrank>3</labelrank><code_hasc>AR.DF</code_hasc><name>Ciudad de Buenos Aires</name><admin>Argentina</admin><type_en>Federal District</type_en><region /><woe_id>2344681</woe_id><longitude>-58</longitude><woe_name>Ciudad de Buenos Aires</woe_name><fips>AR07</fips><woe_label>Buenos Aires, AR, Argentina</woe_label><latitude>-34</latitude><iso_a2>AR</iso_a2><postal>DF</postal><type>Distrito Federal</type><id>AR.DF</id></desc></path></svg>