<?xml version='1.0' encoding='utf-8'?>
<svg height="700" width="700" xmlns="http://www.w3.org/2000/svg"><path d="M215.092402464,445.379876797 L224.229979466,449.691991786 L228.850102669,449.075975359 L233.778234086,455.338809035 L252.977412731,455.544147844 L276.59137577,450.205338809 L282.340862423,451.950718686 L274.024640657,462.114989733 L278.131416838,465.605749487 L281.724845996,474.743326489 L287.371663244,479.568788501 L292.607802875,493.018480493 L300.205338809,495.379876797 L298.151950719,505.133470226 L302.772073922,514.681724846 L295.585215606,516.735112936 L287.063655031,524.229979466 L275.359342916,515.605749487 L266.529774127,513.244353183 L260.67761807,491.683778234 L235.831622177,481.006160164 L232.238193018,484.907597536 L220.841889117,485.626283368 L211.498973306,489.014373717 L203.18275154,485.728952772 L185.934291581,489.32238193 L182.546201232,472.176591376 L172.176591376,467.248459959 L168.377823409,455.954825462 L191.375770021,456.36550308 L190.862422998,445.071868583 L198.459958932,447.741273101 L202.464065708,452.258726899 L207.392197125,448.151950719 L201.026694045,440.041067762 L206.981519507,439.117043121 L215.092402464,445.379876797 Z" fill="#cee3f5" id="TD.HD" stroke="#6e6e6e" stroke-width="0.4"><desc><labelrank>4</labelrank><code_hasc>TD.HD</code_hasc><name>Hadjer-Lamis</name><admin>Chad</admin><type_en>Prefecture</type_en><region /><woe_id>-2344948</woe_id><longitude>15</longitude><woe_name>Hadjer-Lamis</woe_name><fips>CD18</fips><woe_label>Chari-Baguirmi, TD, Chad</woe_label><latitude>12</latitude><iso_a2>TD</iso_a2><postal>HD</postal><type>Préfecture</type><id>TD.HD</id></desc></path><path d="M265.297741273,311.704312115 L257.289527721,324.845995893 L240.965092402,378.234086242 L239.938398357,388.501026694 L225.051334702,406.878850103 L217.145790554,409.856262834 L217.248459959,424.024640657 L224.024640657,422.587268994 L228.234086242,424.640657084 L228.850102669,449.075975359 L224.229979466,449.691991786 L215.092402464,445.379876797 L207.700205339,423.921971253 L183.059548255,427.207392197 L169.609856263,407.49486653 L164.373716632,405.954825462 L153.285420945,393.223819302 L132.854209446,388.19301848 L135.420944559,386.13963039 L134.804928131,382.443531828 L139.835728953,379.568788501 L139.630390144,373.921971253 L143.223819302,366.427104723 L167.04312115,335.112936345 L215.195071869,285.831622177 L265.297741273,311.704312115 Z" fill="#cee3f5" id="TD.KM" stroke="#6e6e6e" stroke-width="0.4"><desc><labelrank>4</labelrank><code_hasc>TD.KM</code_hasc><name>Kanem</name><admin>Chad</admin><type_en>Prefecture</type_en><region /><woe_id>2344950</woe_id><longitude>15</longitude><woe_name>Kanem</woe_name><fips>CD06</fips><woe_label /><latitude>15</latitude><iso_a2>TD</iso_a2><postal>KM</postal><type>Préfecture</type><id>TD.KM</id></desc></path><path d="M215.092402464,445.379876797 L206.981519507,439.117043121 L201.026694045,440.041067762 L207.392197125,448.151950719 L202.464065708,452.258726899 L198.459958932,447.741273101 L190.862422998,445.071868583 L191.375770021,456.36550308 L168.377823409,455.954825462 L165.811088296,452.258726899 L150.616016427,452.05338809 L131.724845996,423.921971253 L125.872689938,394.045174538 L127.412731006,389.527720739 L132.854209446,388.19301848 L153.285420945,393.223819302 L164.373716632,405.954825462 L169.609856263,407.49486653 L183.059548255,427.207392197 L207.700205339,423.921971253 L215.092402464,445.379876797 Z" fill="#cee3f5" id="TD.LC" stroke="#6e6e6e" stroke-width="0.4"><desc><labelrank>4</labelrank><code_hasc>TD.LC</code_hasc><name>Lac</name><admin>Chad</admin><type_en>Prefecture</type_en><region /><woe_id>2344951</woe_id><longitude>14</longitude><woe_name>Lac</woe_name><fips>CD07</fips><woe_label /><latitude>13</latitude><iso_a2>TD</iso_a2><postal>LC</postal><type>Préfecture</type><id>TD.LC</id></desc></path><path d="M405.646817248,337.885010267 L405.338809035,408.932238193 L405.338809035,415.297741273 L415.400410678,420.841889117 L417.761806982,455.441478439 L404.722792608,460.67761807 L392.50513347,456.981519507 L367.04312115,470.020533881 L337.987679671,469.301848049 L318.685831622,481.416837782 L311.704312115,482.340862423 L300.410677618,491.889117043 L300.205338809,495.379876797 L292.607802875,493.018480493 L287.371663244,479.568788501 L281.724845996,474.743326489 L278.131416838,465.605749487 L274.024640657,462.114989733 L282.340862423,451.950718686 L285.420944559,447.330595483 L287.26899384,426.796714579 L300.718685832,422.689938398 L320.636550308,344.455852156 L329.77412731,351.540041068 L341.170431211,354.825462012 L358.726899384,350.205338809 L368.891170431,340.041067762 L372.895277207,320.328542094 L379.158110883,322.484599589 L380.800821355,329.055441478 L386.858316222,333.367556468 L405.646817248,337.885010267 Z" fill="#cee3f5" id="TD.BA" stroke="#6e6e6e" stroke-width="0.4"><desc><labelrank>4</labelrank><code_hasc>TD.BA</code_hasc><name>Batha</name><admin>Chad</admin><type_en>Prefecture</type_en><region /><woe_id>2344945</woe_id><longitude>18</longitude><woe_name>Batha</woe_name><fips>CD01</fips><woe_label /><latitude>14</latitude><iso_a2>TD</iso_a2><postal>BA</postal><type>Préfecture</type><id>TD.BA</id></desc></path><path d="M537.474332649,340.965092402 L528.64476386,348.254620123 L531.622176591,355.544147844 L531.211498973,362.114989733 L518.377823409,378.234086242 L519.09650924,385.523613963 L505.852156057,391.991786448 L508.521560575,395.174537988 L508.726899384,404.106776181 L513.141683778,406.057494867 L513.757700205,409.54825462 L498.254620123,419.199178645 L477.823408624,410.985626283 L465.9137577,409.240246407 L455.030800821,411.498973306 L446.098562628,406.981519507 L441.273100616,400.410677618 L428.850102669,395.379876797 L417.659137577,396.611909651 L405.338809035,408.932238193 L405.646817248,337.885010267 L417.967145791,343.018480493 L426.078028747,341.170431211 L429.568788501,342.299794661 L440.862422998,337.371663244 L451.950718686,329.260780287 L461.088295688,333.470225873 L478.850102669,328.542094456 L486.550308008,330.90349076 L497.638603696,328.439425051 L501.540041068,331.416837782 L510.061601643,332.340862423 L513.449691992,336.550308008 L531.314168378,336.036960986 L537.474332649,340.965092402 Z" fill="#cee3f5" id="TD.BI" stroke="#6e6e6e" stroke-width="0.4"><desc><labelrank>4</labelrank><code_hasc>TD.BI</code_hasc><name>Wadi Fira</name><admin>Chad</admin><type_en>Prefecture</type_en><region /><woe_id>2344946</woe_id><longitude>21</longitude><woe_name>Wadi Fira</woe_name><fips>CD02</fips><woe_label>Wadi Fira, TD, Chad</woe_label><latitude>15</latitude><iso_a2>TD</iso_a2><postal>BI</postal><type>Préfecture</type><id>TD.BI</id></desc></path><path d="M404.722792608,460.67761807 L412.525667351,467.967145791 L407.186858316,473.921971253 L409.034907598,477.104722793 L401.437371663,485.318275154 L397.227926078,499.281314168 L378.747433265,495.995893224 L371.35523614,502.977412731 L374.53798768,508.521560575 L370.123203285,517.145790554 L364.476386037,519.609856263 L362.012320329,515.605749487 L356.057494867,516.735112936 L355.749486653,531.416837782 L391.375770021,549.691991786 L390.041067762,563.347022587 L384.599589322,568.685831622 L377.926078029,569.815195072 L373.716632444,574.948665298 L374.53798768,577.104722793 L363.552361396,588.603696099 L352.566735113,590.349075975 L351.12936345,595.174537988 L348.254620123,595.893223819 L344.045174538,593.839835729 L344.455852156,589.117043121 L337.782340862,582.135523614 L324.53798768,574.948665298 L315.297741273,573.100616016 L310.882956879,569.09650924 L298.151950719,569.404517454 L287.885010267,563.963039014 L287.063655031,524.229979466 L295.585215606,516.735112936 L302.772073922,514.681724846 L298.151950719,505.133470226 L300.205338809,495.379876797 L300.410677618,491.889117043 L311.704312115,482.340862423 L318.685831622,481.416837782 L337.987679671,469.301848049 L367.04312115,470.020533881 L392.50513347,456.981519507 L404.722792608,460.67761807 Z" fill="#cee3f5" id="TD.GR" stroke="#6e6e6e" stroke-width="0.4"><desc><labelrank>4</labelrank><code_hasc>TD.GR</code_hasc><name>Guéra</name><admin>Chad</admin><type_en>Prefecture</type_en><region /><woe_id>2344949</woe_id><longitude>18</longitude><woe_name>Guéra</woe_name><fips>CD05</fips><woe_label>Guera, TD, Chad</woe_label><latitude>11</latitude><iso_a2>TD</iso_a2><postal>GR</postal><type>Préfecture</type><id>TD.GR</id></desc></path><path d="M498.254620123,419.199178645 L493.737166324,425.770020534 L502.05338809,444.76386037 L489.117043121,455.133470226 L482.546201232,468.480492813 L472.484599589,464.681724846 L458.110882957,473.613963039 L447.125256674,474.024640657 L441.478439425,471.765913758 L441.067761807,464.681724846 L434.496919918,463.347022587 L434.0862423,457.49486653 L417.761806982,455.441478439 L415.400410678,420.841889117 L405.338809035,415.297741273 L405.338809035,408.932238193 L417.659137577,396.611909651 L428.850102669,395.379876797 L441.273100616,400.410677618 L446.098562628,406.981519507 L455.030800821,411.498973306 L465.9137577,409.240246407 L477.823408624,410.985626283 L498.254620123,419.199178645 Z" fill="#cee3f5" id="TD.OA" stroke="#6e6e6e" stroke-width="0.4"><desc><labelrank>4</labelrank><code_hasc>TD.OA</code_hasc><name>Ouaddaï</name><admin>Chad</admin><type_en>Prefecture</type_en><region /><woe_id>2344956</woe_id><longitude>21</longitude><woe_name>Ouaddaï</woe_name><fips>CD12</fips><woe_label>Ouaddai, TD, Chad</woe_label><latitude>13</latitude><iso_a2>TD</iso_a2><postal>OA</postal><type>Préfecture</type><id>TD.OA</id></desc></path><path d="M249.794661191,627.207392197 L256.673511294,637.166324435 L252.977412731,643.63449692 L230.698151951,654.004106776 L222.27926078,662.422997947 L211.60164271,664.784394251 L198.767967146,656.262833676 L200.308008214,646.509240246 L207.49486653,631.006160164 L212.012320329,632.648870637 L222.895277207,631.314168378 L230.90349076,627.515400411 L237.26899384,628.747433265 L246.509240246,622.27926078 L249.794661191,627.207392197 Z" fill="#cee3f5" id="TD.LO" stroke="#6e6e6e" stroke-width="0.4"><desc><labelrank>4</labelrank><code_hasc>TD.LO</code_hasc><name>Logone Occidental</name><admin>Chad</admin><type_en>Prefecture</type_en><region /><woe_id>2344952</woe_id><longitude>15</longitude><woe_name>Logone Occidental</woe_name><fips>CD08</fips><woe_label>Logone Occidental, TD, Chad</woe_label><latitude>8</latitude><iso_a2>TD</iso_a2><postal>LO</postal><type>Préfecture</type><id>TD.LO</id></desc></path><path d="M278.850102669,630.082135524 L279.260780287,642.607802875 L275.564681725,649.178644764 L284.804928131,664.476386037 L281.211498973,669.917864476 L277.412731006,670.841889117 L283.983572895,685.215605749 L278.131416838,690.965092402 L268.480492813,692.813141684 L265.195071869,696.714579055 L256.878850103,690.657084189 L254.106776181,682.340862423 L247.227926078,686.036960986 L246.201232033,690.862422998 L231.930184805,694.558521561 L226.694045175,698.665297741 L219.404517454,700.0 L215.503080082,697.330595483 L208.829568789,697.433264887 L207.289527721,696.919917864 L210.985626283,685.215605749 L205.749486653,683.059548255 L195.995893224,657.392197125 L198.767967146,656.262833676 L211.60164271,664.784394251 L222.27926078,662.422997947 L230.698151951,654.004106776 L252.977412731,643.63449692 L256.673511294,637.166324435 L249.794661191,627.207392197 L270.841889117,631.519507187 L278.850102669,630.082135524 Z" fill="#cee3f5" id="TD.LR" stroke="#6e6e6e" stroke-width="0.4"><desc><labelrank>4</labelrank><code_hasc>TD.LR</code_hasc><name>Logone Oriental</name><admin>Chad</admin><type_en>Prefecture</type_en><region /><woe_id>2344953</woe_id><longitude>16</longitude><woe_name>Logone Oriental</woe_name><fips>CD09</fips><woe_label /><latitude>8</latitude><iso_a2>TD</iso_a2><postal>LR</postal><type>Préfecture</type><id>TD.LR</id></desc></path><path d="M241.067761807,580.287474333 L241.991786448,585.831622177 L238.19301848,595.174537988 L230.082135524,602.669404517 L223.921971253,600.0 L206.468172485,624.024640657 L191.375770021,614.681724846 L187.474332649,602.464065708 L176.283367556,602.464065708 L176.283367556,591.170431211 L194.76386037,588.706365503 L207.084188912,591.375770021 L217.556468172,588.911704312 L208.829568789,582.546201232 L201.334702259,574.640657084 L197.843942505,566.837782341 L194.455852156,565.297741273 L190.143737166,540.657084189 L198.973305955,536.344969199 L203.798767967,536.960985626 L212.525667351,547.843942505 L220.944558522,553.080082136 L237.782340862,556.160164271 L237.166324435,575.051334702 L241.067761807,580.287474333 Z" fill="#cee3f5" id="TD.ME" stroke="#6e6e6e" stroke-width="0.4"><desc><labelrank>4</labelrank><code_hasc>TD.ME</code_hasc><name>Mayo-Kebbi Est</name><admin>Chad</admin><type_en>Prefecture</type_en><region /><woe_id>56013483</woe_id><longitude>15</longitude><woe_name>Mayo-Kebbi Est</woe_name><fips>CD16</fips><woe_label>Mayo-Kebbi Est, TD, Chad</woe_label><latitude>9</latitude><iso_a2>TD</iso_a2><postal>ME</postal><type>Préfecture</type><id>TD.ME</id></desc></path><path d="M289.014373717,597.535934292 L298.254620123,603.388090349 L297.843942505,607.700205339 L293.839835729,605.133470226 L283.470225873,608.316221766 L283.572895277,616.324435318 L277.207392197,621.560574949 L282.443531828,626.283367556 L278.850102669,630.082135524 L270.841889117,631.519507187 L249.794661191,627.207392197 L246.509240246,622.27926078 L237.26899384,628.747433265 L230.90349076,627.515400411 L222.895277207,631.314168378 L212.012320329,632.648870637 L207.49486653,631.006160164 L206.468172485,624.024640657 L223.921971253,600.0 L230.082135524,602.669404517 L238.19301848,595.174537988 L241.991786448,585.831622177 L241.067761807,580.287474333 L250.616016427,580.595482546 L256.262833676,578.131416838 L258.932238193,585.01026694 L263.552361396,588.090349076 L289.014373717,597.535934292 Z" fill="#cee3f5" id="TD.TA" stroke="#6e6e6e" stroke-width="0.4"><desc><labelrank>4</labelrank><code_hasc>TD.TA</code_hasc><name>Tandjilé</name><admin>Chad</admin><type_en>Prefecture</type_en><region /><woe_id>2344958</woe_id><longitude>16</longitude><woe_name>Tandjile</woe_name><fips>CD14</fips><woe_label /><latitude>9</latitude><iso_a2>TD</iso_a2><postal>TA</postal><type>Préfecture</type><id>TD.TA</id></desc></path><path d="M297.843942505,607.700205339 L301.642710472,613.552361396 L306.36550308,614.579055441 L308.932238193,620.739219713 L324.948665298,626.59137577 L321.765913758,631.724845996 L316.324435318,633.162217659 L314.98973306,639.630390144 L318.275154004,642.094455852 L318.1724846,650.0 L323.100616016,660.67761807 L325.051334702,676.283367556 L311.190965092,678.850102669 L301.745379877,677.72073922 L283.983572895,685.215605749 L277.412731006,670.841889117 L281.211498973,669.917864476 L284.804928131,664.476386037 L275.564681725,649.178644764 L279.260780287,642.607802875 L278.850102669,630.082135524 L282.443531828,626.283367556 L277.207392197,621.560574949 L283.572895277,616.324435318 L283.470225873,608.316221766 L293.839835729,605.133470226 L297.843942505,607.700205339 Z" fill="#cee3f5" id="TD.MA" stroke="#6e6e6e" stroke-width="0.4"><desc><labelrank>4</labelrank><code_hasc>TD.MA</code_hasc><name>Mandoul</name><admin>Chad</admin><type_en>Prefecture</type_en><region /><woe_id>56013482</woe_id><longitude>17</longitude><woe_name>Mandoul</woe_name><fips>CD11</fips><woe_label /><latitude>8</latitude><iso_a2>TD</iso_a2><postal>MA</postal><type>Préfecture</type><id>TD.MA</id></desc></path><path d="M397.227926078,499.281314168 L399.281314168,504.209445585 L402.874743326,504.106776181 L402.772073922,500.102669405 L415.708418891,499.897330595 L449.178644764,518.480492813 L459.137577002,520.739219713 L483.264887064,516.324435318 L492.915811088,519.404517454 L506.776180698,548.665297741 L498.665297741,554.722792608 L493.121149897,553.798767967 L491.170431211,557.905544148 L479.055441478,562.628336756 L478.952772074,577.412731006 L470.123203285,581.622176591 L464.065708419,591.58110883 L459.650924025,590.965092402 L452.464065708,600.308008214 L448.767967146,601.437371663 L447.227926078,607.700205339 L440.349075975,615.811088296 L432.95687885,619.09650924 L433.470225873,620.841889117 L428.028747433,620.020533881 L423.40862423,628.028747433 L409.342915811,627.412731006 L401.642710472,631.211498973 L386.13963039,586.960985626 L389.219712526,580.492813142 L387.679671458,574.640657084 L390.041067762,563.347022587 L391.375770021,549.691991786 L355.749486653,531.416837782 L356.057494867,516.735112936 L362.012320329,515.605749487 L364.476386037,519.609856263 L370.123203285,517.145790554 L374.53798768,508.521560575 L371.35523614,502.977412731 L378.747433265,495.995893224 L397.227926078,499.281314168 Z" fill="#cee3f5" id="TD.SA" stroke="#6e6e6e" stroke-width="0.4"><desc><labelrank>4</labelrank><code_hasc>TD.SA</code_hasc><name>Salamat</name><admin>Chad</admin><type_en>Prefecture</type_en><region /><woe_id>2344957</woe_id><longitude>20</longitude><woe_name>Salamat</woe_name><fips>CD13</fips><woe_label>Salamat, TD, Chad</woe_label><latitude>10</latitude><iso_a2>TD</iso_a2><postal>SA</postal><type>Préfecture</type><id>TD.SA</id></desc></path><path d="M191.58110883,497.94661191 L190.349075975,495.585215606 L192.094455852,492.402464066 L194.969199179,494.558521561 L191.58110883,497.94661191 Z" fill="#cee3f5" id="TD.NJ" stroke="#6e6e6e" stroke-width="0.4"><desc><labelrank>4</labelrank><code_hasc>TD.NJ</code_hasc><name>Ville de N'Djamena</name><admin>Chad</admin><type_en>Capital</type_en><region /><woe_id>56013485</woe_id><longitude>15</longitude><woe_name>Ville de N'Djamena</woe_name><fips>CD21</fips><woe_label>Ville de N'Djamena, TD, Chad</woe_label><latitude>12</latitude><iso_a2>TD</iso_a2><postal>NJ</postal><type>Préfecture</type><id>TD.NJ</id></desc></path><path d="M176.283367556,591.170431211 L176.283367556,602.464065708 L187.474332649,602.464065708 L191.375770021,614.681724846 L206.468172485,624.024640657 L207.49486653,631.006160164 L200.308008214,646.509240246 L198.767967146,656.262833676 L195.995893224,657.392197125 L189.219712526,647.535934292 L159.034907598,624.024640657 L141.889117043,603.080082136 L152.361396304,588.295687885 L163.655030801,587.782340862 L176.283367556,591.170431211 Z" fill="#cee3f5" id="TD.MW" stroke="#6e6e6e" stroke-width="0.4"><desc><labelrank>4</labelrank><code_hasc>TD.MW</code_hasc><name>Mayo-Kebbi Ouest</name><admin>Chad</admin><type_en>Prefecture</type_en><region /><woe_id>56013484</woe_id><longitude>14</longitude><woe_name>Mayo-Kebbi Ouest</woe_name><fips>CD20</fips><woe_label>Mayo-Kebbi Ouest, TD, Chad</woe_label><latitude>9</latitude><iso_a2>TD</iso_a2><postal>MO</postal><type>Préfecture</type><id>TD.MW</id></desc></path><path d="M443.531827515,109.342915811 L406.673511294,185.318275154 L412.628336756,211.293634497 L423.819301848,242.607802875 L422.689938398,277.104722793 L418.480492813,295.379876797 L432.546201232,335.420944559 L426.078028747,341.170431211 L417.967145791,343.018480493 L405.646817248,337.885010267 L386.858316222,333.367556468 L380.800821355,329.055441478 L379.158110883,322.484599589 L372.895277207,320.328542094 L368.891170431,340.041067762 L358.726899384,350.205338809 L341.170431211,354.825462012 L329.77412731,351.540041068 L320.636550308,344.455852156 L314.476386037,336.652977413 L265.297741273,311.704312115 L215.195071869,285.831622177 L216.324435318,276.180698152 L297.94661191,134.0862423 L300.308008214,122.27926078 L317.556468172,121.560574949 L331.006160164,112.114989733 L355.441478439,103.798767967 L354.928131417,72.4845995893 L363.039014374,66.2217659138 L443.531827515,109.342915811 Z" fill="#cee3f5" id="TD.BR" stroke="#6e6e6e" stroke-width="0.4"><desc><labelrank>4</labelrank><code_hasc>TD.BR</code_hasc><name>Borkou</name><admin>Chad</admin><type_en>Préfecture</type_en><region /><woe_id>-2344947</woe_id><longitude>19</longitude><woe_name>Bet</woe_name><fips>CD23</fips><woe_label>Borkou-Ennedi-Tibesti, TD, Chad</woe_label><latitude>18</latitude><iso_a2>TD</iso_a2><postal>BR</postal><type>Préfecture</type><id>TD.BR</id></desc></path><path d="M363.039014374,66.2217659138 L354.928131417,72.4845995893 L355.441478439,103.798767967 L331.006160164,112.114989733 L317.556468172,121.560574949 L300.308008214,122.27926078 L297.94661191,134.0862423 L216.324435318,276.180698152 L230.287474333,154.722792608 L240.554414784,136.13963039 L224.640657084,117.351129363 L223.716632444,111.293634497 L226.488706366,108.726899384 L209.958932238,84.3942505133 L210.266940452,62.4229979466 L204.106776181,18.1724845996 L245.585215606,0.0 L363.039014374,66.2217659138 Z" fill="#cee3f5" id="TD.TI" stroke="#6e6e6e" stroke-width="0.4"><desc><labelrank>4</labelrank><code_hasc>TD.TI</code_hasc><name>Tibesti</name><admin>Chad</admin><type_en>Préfecture</type_en><region /><woe_id>-2344947</woe_id><longitude>16</longitude><woe_name>Bet</woe_name><fips>CD26</fips><woe_label>Borkou-Ennedi-Tibesti, TD, Chad</woe_label><latitude>21</latitude><iso_a2>TD</iso_a2><postal>TI</postal><type>Préfecture</type><id>TD.TI</id></desc></path><path d="M537.474332649,340.965092402 L531.314168378,336.036960986 L513.449691992,336.550308008 L510.061601643,332.340862423 L501.540041068,331.416837782 L497.638603696,328.439425051 L486.550308008,330.90349076 L478.850102669,328.542094456 L461.088295688,333.470225873 L451.950718686,329.260780287 L440.862422998,337.371663244 L429.568788501,342.299794661 L426.078028747,341.170431211 L432.546201232,335.420944559 L418.480492813,295.379876797 L422.689938398,277.104722793 L423.819301848,242.607802875 L412.628336756,211.293634497 L406.673511294,185.318275154 L443.531827515,109.342915811 L571.35523614,174.948665298 L574.127310062,339.835728953 L537.474332649,340.965092402 Z" fill="#cee3f5" id="TD.EN" stroke="#6e6e6e" stroke-width="0.4"><desc><labelrank>4</labelrank><code_hasc>TD.EN</code_hasc><name>Ennedi</name><admin>Chad</admin><type_en>Préfecture</type_en><region /><woe_id>-2344947</woe_id><longitude>22</longitude><woe_name>Bet</woe_name><fips>CD24</fips><woe_label>Borkou-Ennedi-Tibesti, TD, Chad</woe_label><latitude>18</latitude><iso_a2>TD</iso_a2><postal>EN</postal><type>Préfecture</type><id>TD.EN</id></desc></path><path d="M287.063655031,524.229979466 L287.885010267,563.963039014 L298.151950719,569.404517454 L289.014373717,597.535934292 L263.552361396,588.090349076 L258.932238193,585.01026694 L256.262833676,578.131416838 L250.616016427,580.595482546 L241.067761807,580.287474333 L237.166324435,575.051334702 L237.782340862,556.160164271 L220.944558522,553.080082136 L212.525667351,547.843942505 L203.798767967,536.960985626 L198.973305955,536.344969199 L190.143737166,540.657084189 L191.786447639,525.975359343 L195.174537988,521.047227926 L192.402464066,515.297741273 L194.353182752,509.958932238 L191.58110883,505.749486653 L193.223819302,501.642710472 L191.58110883,497.94661191 L194.969199179,494.558521561 L192.094455852,492.402464066 L190.349075975,495.585215606 L185.728952772,493.839835729 L185.934291581,489.32238193 L203.18275154,485.728952772 L211.498973306,489.014373717 L220.841889117,485.626283368 L232.238193018,484.907597536 L235.831622177,481.006160164 L260.67761807,491.683778234 L266.529774127,513.244353183 L275.359342916,515.605749487 L287.063655031,524.229979466 Z" fill="#cee3f5" id="TD.CG" stroke="#6e6e6e" stroke-width="0.4"><desc><labelrank>4</labelrank><code_hasc>TD.CG</code_hasc><name>Chari-Baguirmi</name><admin>Chad</admin><type_en>Prefecture</type_en><region /><woe_id>-2344948</woe_id><longitude>16</longitude><woe_name>Hadjer-Lamis</woe_name><fips>CD15</fips><woe_label>Chari-Baguirmi, TD, Chad</woe_label><latitude>11</latitude><iso_a2>TD</iso_a2><postal>CG</postal><type>Préfecture</type><id>TD.CG</id></desc></path><path d="M320.636550308,344.455852156 L300.718685832,422.689938398 L287.26899384,426.796714579 L285.420944559,447.330595483 L282.340862423,451.950718686 L276.59137577,450.205338809 L252.977412731,455.544147844 L233.778234086,455.338809035 L228.850102669,449.075975359 L228.234086242,424.640657084 L224.024640657,422.587268994 L217.248459959,424.024640657 L217.145790554,409.856262834 L225.051334702,406.878850103 L239.938398357,388.501026694 L240.965092402,378.234086242 L257.289527721,324.845995893 L265.297741273,311.704312115 L314.476386037,336.652977413 L320.636550308,344.455852156 Z" fill="#cee3f5" id="TD.BG" stroke="#6e6e6e" stroke-width="0.4"><desc><labelrank>4</labelrank><code_hasc>TD.BG</code_hasc><name>Barh El Gazel</name><admin>Chad</admin><type_en>Prefecture</type_en><region /><woe_id>-2344950</woe_id><longitude>16</longitude><woe_name>Kanem</woe_name><fips>CD22</fips><woe_label /><latitude>14</latitude><iso_a2>TD</iso_a2><postal>BG</postal><type>Préfecture</type><id>TD.BG</id></desc></path><path d="M482.546201232,468.480492813 L487.987679671,475.154004107 L495.277207392,474.640657084 L499.486652977,470.636550308 L509.856262834,476.283367556 L506.776180698,482.751540041 L511.60164271,495.790554415 L510.574948665,501.642710472 L517.145790554,499.794661191 L514.271047228,518.993839836 L524.229979466,528.952772074 L530.390143737,529.260780287 L532.238193018,537.371663244 L528.131416838,550.102669405 L513.039014374,546.611909651 L506.776180698,548.665297741 L492.915811088,519.404517454 L483.264887064,516.324435318 L459.137577002,520.739219713 L449.178644764,518.480492813 L415.708418891,499.897330595 L402.772073922,500.102669405 L402.874743326,504.106776181 L399.281314168,504.209445585 L397.227926078,499.281314168 L401.437371663,485.318275154 L409.034907598,477.104722793 L407.186858316,473.921971253 L412.525667351,467.967145791 L404.722792608,460.67761807 L417.761806982,455.441478439 L434.0862423,457.49486653 L434.496919918,463.347022587 L441.067761807,464.681724846 L441.478439425,471.765913758 L447.125256674,474.024640657 L458.110882957,473.613963039 L472.484599589,464.681724846 L482.546201232,468.480492813 Z" fill="#cee3f5" id="TD.SI" stroke="#6e6e6e" stroke-width="0.4"><desc><labelrank>4</labelrank><code_hasc>TD.SI</code_hasc><name>Sila</name><admin>Chad</admin><type_en>Prefecture</type_en><region /><woe_id>-2344956</woe_id><longitude>21</longitude><woe_name>Ouaddaï</woe_name><fips>CD25</fips><woe_label>Ouaddai, TD, Chad</woe_label><latitude>12</latitude><iso_a2>TD</iso_a2><postal>SI</postal><type>Préfecture</type><id>TD.SI</id></desc></path><path d="M401.642710472,631.211498973 L362.114989733,634.496919918 L355.441478439,640.349075975 L366.427104723,648.049281314 L352.874743326,665.297741273 L345.277207392,669.609856263 L343.018480493,675.256673511 L325.051334702,676.283367556 L323.100616016,660.67761807 L318.1724846,650.0 L318.275154004,642.094455852 L314.98973306,639.630390144 L316.324435318,633.162217659 L321.765913758,631.724845996 L324.948665298,626.59137577 L308.932238193,620.739219713 L306.36550308,614.579055441 L301.642710472,613.552361396 L297.843942505,607.700205339 L298.254620123,603.388090349 L289.014373717,597.535934292 L298.151950719,569.404517454 L310.882956879,569.09650924 L315.297741273,573.100616016 L324.53798768,574.948665298 L337.782340862,582.135523614 L344.455852156,589.117043121 L344.045174538,593.839835729 L348.254620123,595.893223819 L351.12936345,595.174537988 L352.566735113,590.349075975 L363.552361396,588.603696099 L374.53798768,577.104722793 L373.716632444,574.948665298 L377.926078029,569.815195072 L384.599589322,568.685831622 L390.041067762,563.347022587 L387.679671458,574.640657084 L389.219712526,580.492813142 L386.13963039,586.960985626 L401.642710472,631.211498973 Z" fill="#cee3f5" id="TD.MO" stroke="#6e6e6e" stroke-width="0.4"><desc><labelrank>4</labelrank><code_hasc>TD.MO</code_hasc><name>Moyen-Chari</name><admin>Chad</admin><type_en>Prefecture</type_en><region /><woe_id>-56013482</woe_id><longitude>18</longitude><woe_name>Mandoul</woe_name><fips>CD17</fips><woe_label /><latitude>9</latitude><iso_a2>TD</iso_a2><postal>MA</postal><type>Préfecture</type><id>TD.MO</id></desc></path></svg>