<?xml version='1.0' encoding='utf-8'?>
<svg height="700" width="700" xmlns="http://www.w3.org/2000/svg"><path d="M10.1855560005,267.067147243 L18.8759845148,275.523962088 L8.26992390869,270.898411427 L6.91496462422,268.141770124 L10.1855560005,267.067147243 M46.7694566814,246.55586704 L43.6390335069,247.069817114 L39.106928314,254.825790949 L42.2373514885,261.039914564 L40.3217193966,262.161260179 L43.7324789748,278.467494327 L38.3126418369,276.97236684 L36.2101188092,268.048324656 L33.2198638366,266.833533574 L25.3704445334,255.386463757 L19.2030436524,253.797890802 L5.37311440395,240.295020691 L0.0,230.062741957 L0.0934454678948,226.138032305 L6.49446001869,225.110132159 L18.5489253771,231.744760379 L35.7428914698,231.791483113 L46.7694566814,246.55586704 Z" fill="#cee3f5" id="ID.AC" stroke="#6e6e6e" stroke-width="0.4"><desc><labelrank>6</labelrank><code_hasc>ID.AC</code_hasc><name>Aceh</name><admin>Indonesia</admin><type_en>Autonomous Province</type_en><region /><woe_id>2345710</woe_id><longitude>96</longitude><woe_name>Aceh</woe_name><fips>ID01</fips><woe_label>Aceh, ID, Indonesia</woe_label><latitude>4</latitude><iso_a2>ID</iso_a2><postal>AC</postal><type>Propinsi</type><id>ID.AC</id></desc></path><path d="M335.983179816,263.609664931 L334.207715926,261.039914564 L336.310238953,261.2268055 L335.983179816,263.609664931 M319.910559338,346.68268589 L309.304498732,346.355626752 L305.006007209,334.160993192 L306.641302897,332.806033907 L307.248698438,332.806033907 L307.482312108,332.572420238 L307.715925778,332.2453611 L308.463489521,330.843679082 L308.556934989,330.516619944 L308.603657723,329.769056201 L308.69710319,329.582165265 L308.510212255,327.759978641 L307.529034842,328.040315045 L303.417434254,324.816446402 L300.660792952,316.359631558 L300.800961153,314.4907222 L300.894406621,314.210385796 L301.361633961,313.369376585 L301.408356695,313.182485649 L301.59524763,312.201308237 L301.735415832,311.734080897 L301.735415832,311.687358163 L301.735415832,311.593912695 L301.641970364,311.547189961 L301.59524763,311.500467227 L300.660792952,311.313576292 L299.959951942,311.407021759 L299.726338273,311.407021759 L299.352556401,311.687358163 L298.184488052,313.042317448 L298.04431985,313.275931117 L297.950874383,313.369376585 L297.857428915,313.509544787 L297.717260713,313.556267521 L297.250033373,313.789881191 L297.109865172,313.836603925 L296.595915098,314.397276732 L296.362301428,314.397276732 L296.222133227,314.210385796 L296.222133227,313.509544787 L296.128687759,313.322653851 L296.081965025,313.182485649 L296.081965025,313.042317448 L296.128687759,312.761981044 L296.362301428,312.014417301 L296.829528768,310.893071686 L296.876251502,310.752903484 L296.876251502,310.566012548 L296.782806034,310.379121613 L296.7360833,310.145507943 L296.175410493,309.16433053 L295.848351355,307.15525297 L296.081965025,306.407689227 L296.922974236,304.678948071 L297.717260713,303.697770658 L297.717260713,303.510879722 L297.483647043,302.996929649 L297.436924309,302.342811374 L297.343478841,302.249365906 L297.203310639,302.06247497 L296.96969697,301.641970364 L296.222133227,300.894406621 L294.913896676,300.894406621 L291.549859832,302.576425043 L282.485649446,302.202643172 L281.971699373,302.342811374 L281.644640235,302.669870511 L281.504472033,302.810038713 L281.270858363,302.856761447 L280.663462822,302.903484181 L280.429849152,302.996929649 L279.775730877,303.230543319 L279.588839941,303.277266053 L278.841276198,303.37071152 L278.420771593,303.510879722 L280.943799226,299.025497263 L279.729008143,297.343478841 L284.681617942,293.699105593 L284.775063409,290.521959685 L290.054732345,290.381791483 L291.736750768,284.728340675 L294.072887465,283.700440529 L293.278600988,278.607662528 L299.586170071,274.729675611 L297.390201575,273.281270858 L297.530369777,270.057402216 L300.100120144,266.880256308 L303.417434254,267.020424509 L305.426511814,261.133360032 L304.445334401,253.89133627 L308.977439594,246.976371646 L311.593912695,248.705112802 L313.135762915,247.116539848 L329.114937926,247.350153518 L334.534775063,250.200240288 L331.637965559,250.10679482 L338.412761981,256.928313977 L335.515952476,258.002936858 L333.133093045,255.66680016 L333.740488586,258.376718729 L326.638633026,258.610332399 L332.806033907,260.946469096 L330.189560806,263.936724069 L335.375784274,266.08596983 L334.581497797,267.627820051 L336.403684421,267.908156454 L334.301161394,268.515551996 L337.151248164,268.842611133 L335.422507008,269.963956748 L342.337471633,277.159257776 L337.431584568,281.691362969 L356.260846349,297.296756107 L353.083700441,299.81978374 L346.916299559,299.81978374 L339.58083033,295.287678548 L341.683353357,299.913229208 L337.3381391,300.800961153 L333.273261247,310.145507943 L332.852756641,319.536777466 L335.656120678,317.948204512 L333.460152183,322.106527833 L335.56267521,323.321318916 L331.310906421,325.096782806 L330.46989721,323.741823522 L325.657455613,330.096115338 L323.60165532,330.376451742 L322.480309705,326.91896943 L322.760646109,331.918301962 L314.72433587,338.179148311 L317.948204512,337.992257376 L318.181818182,341.916967027 L315.612067815,343.785876385 L320.284341209,344.019490055 L319.910559338,346.68268589 Z" fill="#cee3f5" id="ID.KI" stroke="#6e6e6e" stroke-width="0.4"><desc><labelrank>2</labelrank><code_hasc>ID.KI</code_hasc><name>Kalimantan Timur</name><admin>Indonesia</admin><type_en>Province</type_en><region /><woe_id>2345723</woe_id><longitude>116</longitude><woe_name>Kalimantan Timur</woe_name><fips>ID14</fips><woe_label>East Kalimantan, ID, Indonesia</woe_label><latitude>1</latitude><iso_a2>ID</iso_a2><postal>KI</postal><type>Propinsi</type><id>ID.KI</id></desc></path><path d="M174.743024963,405.086103324 L174.929915899,405.179548792 L175.490588706,405.786944333 L177.406220798,406.114003471 L178.060339074,401.768789214 L178.854625551,399.292484315 L188.292617808,404.011480443 L198.384728341,404.058203177 L202.075824323,411.627286077 L206.327593112,412.37484982 L206.327593112,412.37484982 L205.299692965,413.589640902 L204.972633827,414.15031371 L204.879188359,414.38392738 L204.785742891,415.131491123 L204.879188359,415.832332132 L204.785742891,416.019223068 L204.692297424,416.206114003 L204.505406488,416.346282205 L204.131624616,416.766786811 L203.757842745,417.047123215 L203.617674543,417.140568682 L203.430783607,417.187291416 L203.057001735,417.23401415 L202.215992524,417.140568682 L201.935656121,417.23401415 L201.795487919,417.374182352 L201.655319717,417.561073288 L201.234815111,419.289814444 L201.374983313,419.71031905 L203.664397277,421.0185556 L204.17834735,423.02763316 L204.17834735,423.448137765 L204.038179148,423.868642371 L204.038179148,424.055533307 L204.084901882,424.148978775 L204.17834735,424.242424242 L205.019356561,424.943265252 L198.104391937,427.279401949 L184.554799092,422.653851288 L169.510078761,421.112001068 L171.612601789,415.69216393 L171.145374449,414.944600187 L169.556801495,415.365104792 L169.463356027,415.178213857 L169.463356027,414.991322921 L169.650246963,414.056868242 L170.21091977,413.075690829 L171.051928981,412.047790682 L170.070751569,411.533840609 L169.977306101,411.346949673 L169.837137899,410.973167801 L169.463356027,408.450140168 L169.696969697,406.160726205 L169.837137899,405.880389801 L170.304365238,405.646776131 L170.67814711,406.254171673 L171.332265385,405.880389801 L172.780670137,406.347617141 L174.415965826,406.347617141 L174.789747697,406.114003471 L174.743024963,405.880389801 L174.743024963,405.086103324 Z" fill="#cee3f5" id="ID.JR" stroke="#6e6e6e" stroke-width="0.4"><desc><labelrank>2</labelrank><code_hasc>ID.JR</code_hasc><name>Jawa Barat</name><admin>Indonesia</admin><type_en>Province</type_en><region /><woe_id>2345715</woe_id><longitude>107</longitude><woe_name>Jawa Barat</woe_name><fips>ID30</fips><woe_label>West Java, ID, Indonesia</woe_label><latitude>-6</latitude><iso_a2>ID</iso_a2><postal>JR</postal><type>Propinsi</type><id>ID.JR</id></desc></path><path d="M207.355493259,425.737551729 L208.617007075,426.57856094 L204.972633827,425.737551729 L207.355493259,425.737551729 M247.303430784,410.973167801 L246.368976105,417.187291416 L243.939393939,419.523428114 L240.388466159,418.869309838 L241.93031638,427.279401949 L236.650647444,433.026298225 L235.155519957,432.652516353 L235.062074489,431.67133894 L234.641569884,431.718061674 L234.548124416,431.624616206 L234.501401682,431.484448004 L234.407956214,428.914697637 L234.314510746,428.540915766 L234.267788012,427.840074756 L234.267788012,427.653183821 L234.221065278,427.559738353 L234.080897076,427.372847417 L233.800560673,427.232679215 L232.866105994,427.045788279 L230.623414764,426.905620077 L230.156187425,426.531838206 L229.688960085,425.597383527 L229.175010012,423.354692297 L229.128287278,423.214524096 L228.754505406,423.681751435 L227.119209718,424.849819784 L226.511814177,425.550660793 L226.324923241,424.896542518 L225.063409425,424.849819784 L224.736350287,424.989987986 L224.642904819,425.130156187 L224.549459351,425.270324389 L224.596182085,425.690828995 L224.549459351,425.971165398 L224.409291149,426.204779068 L223.661727406,427.326124683 L223.428113736,427.606461087 L223.381391003,427.746629288 L223.334668269,428.12041116 L223.241222801,428.026965692 L221.69937258,427.606461087 L221.325590709,427.372847417 L217.681217461,426.57856094 L214.270457883,426.485115472 L213.429448672,425.597383527 L208.19650247,425.924442665 L206.093979442,424.148978775 L205.019356561,424.943265252 L204.17834735,424.242424242 L204.084901882,424.148978775 L204.038179148,424.055533307 L204.038179148,423.868642371 L204.17834735,423.448137765 L204.17834735,423.02763316 L203.664397277,421.0185556 L202.963556268,420.177546389 L201.374983313,419.71031905 L201.234815111,419.289814444 L201.608596983,418.121746095 L201.655319717,417.561073288 L201.795487919,417.374182352 L201.935656121,417.23401415 L202.215992524,417.140568682 L202.496328928,417.140568682 L203.430783607,417.187291416 L203.757842745,417.047123215 L204.131624616,416.766786811 L204.505406488,416.346282205 L204.692297424,416.206114003 L204.785742891,416.019223068 L204.879188359,415.832332132 L204.879188359,414.38392738 L204.972633827,414.15031371 L205.299692965,413.589640902 L206.327593112,412.37484982 L206.327593112,412.37484982 L207.916166066,412.001067948 L229.595514618,414.197036444 L232.492324122,407.562408223 L236.230142838,406.160726205 L239.500734214,410.412494994 L244.640234949,409.384594847 L247.303430784,410.973167801 Z" fill="#cee3f5" id="ID.JT" stroke="#6e6e6e" stroke-width="0.4"><desc><labelrank>2</labelrank><code_hasc>ID.JT</code_hasc><name>Jawa Tengah</name><admin>Indonesia</admin><type_en>Province</type_en><region /><woe_id>2345716</woe_id><longitude>109</longitude><woe_name>Jawa Tengah</woe_name><fips>ID07</fips><woe_label>Central Java, ID, Indonesia</woe_label><latitude>-7</latitude><iso_a2>ID</iso_a2><postal>JT</postal><type>Propinsi</type><id>ID.JT</id></desc></path><path d="M109.284474703,393.592310773 L104.98598318,391.676678681 L107.649179015,391.30289681 L109.284474703,393.592310773 M129.84247764,383.406754772 L129.421973034,383.920704846 L128.954745695,384.247763983 L127.506340942,385.088773195 L107.929515419,371.53918035 L106.481110666,366.306234148 L97.6037912161,360.512615138 L88.3059671606,349.065545321 L92.9315178214,346.262181284 L94.193031638,345.374449339 L94.4266453077,345.327726605 L94.5668135095,345.421172073 L94.7069817114,345.514617541 L95.1742090509,345.981844881 L95.4078227206,346.122013082 L95.5947136564,346.262181284 L95.6881591243,346.355626752 L96.0152182619,347.056467761 L96.3890001335,348.551595248 L96.5291683353,348.738486183 L96.7160592711,348.878654385 L97.1832866106,349.065545321 L97.4169002803,349.252436257 L97.6505139501,349.813109064 L98.2111867574,350.280336404 L98.5382458951,350.794286477 L99.0521959685,351.308236551 L99.5661460419,351.728741156 L100.407155253,352.149245762 L100.640768923,352.195968496 L101.014550794,352.289413963 L101.66866907,352.896809505 L104.004805767,353.457482312 L104.331864905,353.877986918 L104.892537712,354.298491523 L105.453210519,355.232946202 L106.5278334,356.167400881 L106.200774262,357.008410092 L106.854892538,357.662528367 L108.630356428,357.662528367 L109.564811107,357.989587505 L110.172206648,358.503537578 L110.31237485,358.64370578 L110.452543052,358.924042184 L110.265652116,359.811774129 L110.172206648,359.951942331 L109.985315712,360.232278734 L109.985315712,360.279001468 L110.032038446,360.41916967 L110.125483914,360.465892404 L110.31237485,360.559337872 L110.499265786,360.65278334 L111.573888666,361.774128955 L114.610866373,360.792951542 L118.115071419,362.6618609 L118.208516887,362.802029102 L118.348685089,363.082365505 L118.442130557,363.829929248 L118.255239621,364.997997597 L118.068348685,365.325056735 L117.694566814,365.278334001 L117.133894006,365.371779469 L116.433052997,365.184888533 L116.386330263,365.278334001 L116.433052997,365.418502203 L116.666666667,365.839006808 L116.619943933,366.025897744 L113.723134428,368.455479909 L112.648511547,368.782539047 L112.741957015,369.016152717 L113.676411694,369.903884662 L114.190361767,370.230943799 L114.751034575,370.978507542 L115.218261914,371.30556668 L117.133894006,371.492457616 L117.974903217,372.053130423 L119.750367107,371.772794019 L119.843812575,371.819516753 L120.170871713,372.006407689 L120.357762649,372.193298625 L120.918435456,373.594980643 L121.292217327,375.463890001 L127.366172741,377.239353891 L127.786677346,379.341876919 L128.674409291,380.743558937 L129.188359365,382.705913763 L129.749032172,383.126418369 L129.84247764,383.406754772 Z" fill="#cee3f5" id="ID.BE" stroke="#6e6e6e" stroke-width="0.4"><desc><labelrank>7</labelrank><code_hasc>ID.BE</code_hasc><name>Bengkulu</name><admin>Indonesia</admin><type_en>Province</type_en><region /><woe_id>2345712</woe_id><longitude>102</longitude><woe_name>Bengkulu</woe_name><fips>ID03</fips><woe_label>Bengkulu, ID, Indonesia</woe_label><latitude>-3</latitude><iso_a2>ID</iso_a2><postal>BE</postal><type>Propinsi</type><id>ID.BE</id></desc></path><path d="M165.725537311,400.834334535 L174.182352156,401.301561874 L174.22907489,401.48845281 L174.182352156,401.535175544 L173.715124816,401.908957416 L173.528233881,402.142571085 L173.808570284,403.73114404 L174.743024963,405.086103324 L174.743024963,405.880389801 L174.789747697,406.114003471 L174.415965826,406.347617141 L172.780670137,406.347617141 L171.332265385,405.880389801 L170.67814711,406.254171673 L170.304365238,405.646776131 L170.164197036,405.646776131 L169.837137899,405.880389801 L169.696969697,406.160726205 L169.883860633,407.188626352 L169.463356027,408.450140168 L169.837137899,410.973167801 L169.977306101,411.346949673 L170.070751569,411.533840609 L170.584701642,411.674008811 L170.771592578,411.767454278 L171.051928981,412.047790682 L169.650246963,414.056868242 L169.556801495,415.365104792 L169.510078761,415.365104792 L169.183019624,415.505272994 L168.809237752,415.551995728 L167.828060339,415.318382058 L163.202509678,412.888799893 L152.503003604,413.402749967 L154.044853825,410.739554132 L155.960485916,412.842077159 L158.343345348,407.842744627 L160.25897744,408.3566947 L163.669737018,399.152316113 L165.725537311,400.834334535 Z" fill="#cee3f5" id="ID.BT" stroke="#6e6e6e" stroke-width="0.4"><desc><labelrank>2</labelrank><code_hasc>ID.BT</code_hasc><name>Banten</name><admin>Indonesia</admin><type_en>Province</type_en><region /><woe_id>28350158</woe_id><longitude>106</longitude><woe_name>Banten</woe_name><fips>ID33</fips><woe_label>Banten, ID, Indonesia</woe_label><latitude>-6</latitude><iso_a2>ID</iso_a2><postal>BT</postal><type>Propinsi</type><id>ID.BT</id></desc></path><path d="M178.060339074,401.768789214 L177.406220798,406.114003471 L175.490588706,405.786944333 L174.929915899,405.179548792 L174.743024963,405.086103324 L173.808570284,403.73114404 L173.528233881,402.142571085 L173.715124816,401.908957416 L174.182352156,401.535175544 L174.22907489,401.48845281 L174.322520358,401.862234682 L174.556134027,402.049125617 L175.163529569,402.142571085 L178.060339074,401.768789214 Z" fill="#cee3f5" id="ID.JK" stroke="#6e6e6e" stroke-width="0.4"><desc><labelrank>9</labelrank><code_hasc>ID.JK</code_hasc><name>Jakarta Raya</name><admin>Indonesia</admin><type_en>Special district</type_en><region /><woe_id>2345713</woe_id><longitude>106</longitude><woe_name>Jakarta Raya</woe_name><fips>ID04</fips><woe_label>DKI Jakarta, ID, Indonesia</woe_label><latitude>-6</latitude><iso_a2>ID</iso_a2><postal>JK</postal><type>Daerah Khusus Ibukota</type><id>ID.JK</id></desc></path><path d="M216.513149112,326.124682953 L219.082899479,328.600987852 L214.457348819,330.843679082 L214.363903351,326.311573889 L216.513149112,326.124682953 M284.775063409,290.521959685 L284.681617942,293.699105593 L279.729008143,297.343478841 L280.943799226,299.025497263 L278.420771593,303.510879722 L278.046989721,303.791216126 L277.43959418,304.305166199 L276.505139501,305.706848218 L276.364971299,305.940461888 L276.318248565,306.174075557 L276.271525831,307.015084768 L276.131357629,307.15525297 L275.617407556,307.342143906 L274.96328928,307.856093979 L273.18782539,307.669203044 L272.206647978,307.949539447 L271.692697904,308.136430383 L272.11320251,308.743825924 L272.346816179,309.211053264 L273.281270858,310.098785209 L274.028834602,312.808703778 L270.618075023,316.733413429 L271.365638767,318.181818182 L270.711520491,319.863836604 L270.384461354,319.910559338 L270.244293152,319.81711387 L269.169670271,318.695768255 L260.619409959,322.153250567 L257.488986784,322.900814311 L255.620077426,322.620477907 L253.797890802,322.573755173 L253.610999867,322.620477907 L239.220397811,334.301161394 L238.986784141,334.394606862 L238.846615939,334.394606862 L237.771993058,334.160993192 L236.60392471,334.861834201 L236.276865572,335.235616073 L236.13669737,335.375784274 L236.043251902,335.515952476 L236.043251902,335.656120678 L236.043251902,335.79628888 L236.183420104,335.983179816 L236.323588306,336.170070752 L236.510479242,336.310238953 L237.304765719,336.076625284 L237.398211187,336.123348018 L237.491656655,336.216793486 L237.538379389,336.590575357 L237.444933921,336.964357229 L237.444933921,337.104525431 L237.771993058,337.665198238 L237.164597517,342.290748899 L239.267120545,347.196635963 L239.126952343,349.76638633 L239.640902416,351.074622881 L239.640902416,351.54185022 L239.547456948,351.728741156 L239.45401148,351.915632092 L239.267120545,352.055800294 L239.080229609,352.149245762 L238.239220398,352.523027633 L238.052329462,352.663195835 L237.865438526,352.896809505 L237.631824856,353.504205046 L237.351488453,353.971432386 L237.211320251,354.064877853 L237.071152049,354.111600587 L236.650647444,354.298491523 L236.650647444,354.298491523 L234.174342544,355.139500734 L232.258710453,357.195301028 L230.57669203,354.018155119 L226.324923241,356.027232679 L224.736350287,350.420504606 L226.558536911,348.878654385 L223.755172874,340.515285009 L220.951808837,338.693098385 L223.287945535,331.591242825 L218.84928581,324.582832733 L217.587771993,326.264851155 L211.607262048,324.349219063 L211.420371112,321.59257776 L215.06474436,322.340141503 L209.598184488,319.536777466 L208.19650247,315.378454145 L210.859698305,315.238285943 L209.831798158,311.453744493 L211.981043919,311.593912695 L206.327593112,306.734748365 L206.42103858,294.586837538 L211.51381658,291.17607796 L207.308770525,293.792551061 L212.635162195,283.186490455 L217.120544654,281.037244694 L215.391803498,283.887331464 L217.307435589,288.185822988 L230.623414764,299.212388199 L240.15485249,295.895074089 L249.452676545,296.876251502 L253.424108931,294.913896676 L254.452009078,290.615405153 L259.030837004,288.653050327 L266.506474436,288.606327593 L266.272860766,290.895741557 L276.178080363,293.652382859 L280.383126418,290.475236951 L284.775063409,290.521959685 Z" fill="#cee3f5" id="ID.KB" stroke="#6e6e6e" stroke-width="0.4"><desc><labelrank>2</labelrank><code_hasc>ID.KB</code_hasc><name>Kalimantan Barat</name><admin>Indonesia</admin><type_en>Province</type_en><region /><woe_id>2345720</woe_id><longitude>111</longitude><woe_name>Kalimantan Barat</woe_name><fips>ID11</fips><woe_label>West Kalimantan, ID, Indonesia</woe_label><latitude>0</latitude><iso_a2>ID</iso_a2><postal>KB</postal><type>Propinsi</type><id>ID.KB</id></desc></path><path d="M127.506340942,385.088773195 L128.954745695,384.247763983 L129.421973034,383.920704846 L129.84247764,383.406754772 L131.197436924,384.107595782 L131.197436924,384.714991323 L131.337605126,384.995327727 L131.337605126,385.135495928 L131.477773328,385.228941396 L131.758109732,385.27566413 L134.608196502,385.462555066 L136.523828594,384.621545855 L137.037778668,384.574823121 L137.505006007,384.668268589 L137.832065145,384.574823121 L138.439460686,383.50020024 L137.738619677,382.799359231 L137.271392337,381.771459084 L137.364837805,381.304231745 L137.411560539,381.257509011 L137.645174209,381.070618075 L137.738619677,381.023895341 L137.832065145,380.883727139 L137.925510613,380.650113469 L137.972233347,380.4164998 L137.925510613,380.18288613 L137.691896943,378.687758644 L137.785342411,378.267254038 L137.925510613,377.846749433 L141.149379255,376.024562809 L148.344680283,373.735148845 L149.279134962,372.473635029 L149.419303164,372.333466827 L149.839807769,372.099853157 L149.886530503,372.006407689 L149.746362301,371.585903084 L150.073421439,371.118675744 L150.073421439,370.558002937 L150.166866907,370.417834735 L150.260312375,370.277666533 L150.493926045,370.230943799 L150.634094246,370.090775597 L150.91443065,369.857161928 L151.007876118,369.810439194 L151.568548925,369.857161928 L151.755439861,369.810439194 L151.895608063,369.716993726 L152.129221733,369.483380056 L152.175944467,369.389934588 L152.362835402,368.875984515 L152.409558136,368.362034441 L152.596449072,368.175143506 L152.596449072,367.941529836 L152.643171806,367.7546389 L152.68989454,367.661193432 L152.783340008,367.52102523 L152.970230944,367.474302496 L153.063676412,367.661193432 L153.344012815,368.128420772 L155.820317715,369.203043652 L158.763849953,373.361366974 L159.978641036,373.127753304 L160.539313843,373.454812442 L161.754104926,378.033640368 L160.118809238,398.217861434 L157.408890669,397.984247764 L152.549726338,392.61113336 L150.91443065,397.70391136 L142.551061274,393.265251635 L144.27980243,399.806434388 L141.943665732,399.94660259 L127.506340942,385.088773195 Z" fill="#cee3f5" id="ID.LA" stroke="#6e6e6e" stroke-width="0.4"><desc><labelrank>2</labelrank><code_hasc>ID.LA</code_hasc><name>Lampung</name><admin>Indonesia</admin><type_en>Province</type_en><region /><woe_id>2345724</woe_id><longitude>105</longitude><woe_name>Lampung</woe_name><fips>ID15</fips><woe_label>Lampung, ID, Indonesia</woe_label><latitude>-4</latitude><iso_a2>ID</iso_a2><postal>LA</postal><type>Propinsi</type><id>ID.LA</id></desc></path><path d="M140.962488319,337.57175277 L140.448538246,340.562007743 L141.429715659,339.393939394 L141.80349753,341.823521559 L146.242157255,343.365371779 L142.083833934,347.476972367 L143.672406888,347.009745027 L143.719129622,349.813109064 L141.009211053,352.990254973 L143.999466026,350.280336404 L145.915098118,345.794953945 L157.081831531,347.336804165 L164.183687091,359.578160459 L160.352422907,366.259511414 L162.361500467,368.642370845 L162.127886797,369.76371646 L161.146709385,371.165398478 L160.913095715,372.146575891 L160.586036577,373.174476038 L160.539313843,373.454812442 L158.763849953,373.361366974 L155.820317715,369.203043652 L153.344012815,368.128420772 L153.063676412,367.661193432 L152.970230944,367.474302496 L152.830062742,367.474302496 L152.783340008,367.52102523 L152.68989454,367.661193432 L152.643171806,367.7546389 L152.596449072,367.941529836 L152.596449072,368.175143506 L152.409558136,368.362034441 L152.362835402,368.875984515 L152.175944467,369.389934588 L152.129221733,369.483380056 L151.895608063,369.716993726 L151.755439861,369.810439194 L151.568548925,369.857161928 L151.007876118,369.810439194 L150.91443065,369.857161928 L150.634094246,370.090775597 L150.493926045,370.230943799 L150.260312375,370.277666533 L150.166866907,370.417834735 L150.073421439,370.558002937 L150.073421439,371.118675744 L149.746362301,371.585903084 L149.886530503,372.006407689 L149.839807769,372.099853157 L149.419303164,372.333466827 L149.279134962,372.473635029 L148.344680283,373.735148845 L141.149379255,376.024562809 L139.233747163,377.332799359 L137.925510613,377.846749433 L137.785342411,378.267254038 L137.691896943,378.687758644 L137.925510613,380.18288613 L137.972233347,380.4164998 L137.925510613,380.650113469 L137.832065145,380.883727139 L137.738619677,381.023895341 L137.645174209,381.070618075 L137.411560539,381.257509011 L137.364837805,381.304231745 L137.271392337,381.771459084 L137.832065145,384.574823121 L137.505006007,384.668268589 L137.037778668,384.574823121 L136.523828594,384.621545855 L134.608196502,385.462555066 L133.15979175,385.415832332 L131.758109732,385.27566413 L131.477773328,385.228941396 L131.337605126,385.135495928 L131.337605126,384.995327727 L131.197436924,384.714991323 L131.197436924,384.107595782 L129.84247764,383.406754772 L129.749032172,383.126418369 L129.188359365,382.705913763 L127.786677346,379.341876919 L127.366172741,377.239353891 L121.292217327,375.463890001 L120.357762649,372.193298625 L120.170871713,372.006407689 L119.843812575,371.819516753 L117.974903217,372.053130423 L117.133894006,371.492457616 L115.919102924,371.53918035 L115.218261914,371.30556668 L114.751034575,370.978507542 L114.190361767,370.230943799 L113.676411694,369.903884662 L113.115738887,369.249766386 L112.648511547,368.782539047 L116.619943933,366.025897744 L116.666666667,365.839006808 L116.433052997,365.184888533 L117.133894006,365.371779469 L118.068348685,365.325056735 L118.255239621,364.997997597 L118.442130557,363.829929248 L118.348685089,363.082365505 L118.208516887,362.802029102 L118.115071419,362.6618609 L117.788012281,362.474969964 L115.965825657,362.147910826 L114.610866373,360.792951542 L112.601788813,362.19463356 L111.573888666,361.774128955 L110.966493125,361.213456147 L110.826324923,361.026565212 L110.639433987,360.839674276 L110.499265786,360.65278334 L110.31237485,360.559337872 L110.125483914,360.465892404 L110.032038446,360.41916967 L109.985315712,360.279001468 L109.985315712,360.232278734 L110.032038446,360.138833267 L110.172206648,359.951942331 L110.265652116,359.811774129 L110.31237485,359.344546789 L110.452543052,358.924042184 L110.31237485,358.64370578 L109.564811107,357.989587505 L108.630356428,357.662528367 L107.836069951,357.942864771 L107.322119877,357.709251101 L106.854892538,357.662528367 L106.668001602,357.569082899 L106.200774262,357.008410092 L106.200774262,356.86824189 L106.5278334,356.167400881 L105.453210519,355.232946202 L104.892537712,354.298491523 L104.331864905,353.877986918 L104.004805767,353.457482312 L104.612201308,352.850086771 L104.799092244,352.756641303 L106.5278334,351.962354826 L106.901615272,351.261513817 L111.994393272,352.289413963 L115.965825657,346.963022293 L121.011880924,347.149913229 L121.479108263,344.299826458 L124.889867841,347.617140569 L125.777599786,341.262848752 L131.290882392,338.506207449 L140.962488319,337.57175277 Z" fill="#cee3f5" id="ID.SL" stroke="#6e6e6e" stroke-width="0.4"><desc><labelrank>2</labelrank><code_hasc>ID.SL</code_hasc><name>Sumatera Selatan</name><admin>Indonesia</admin><type_en>Province</type_en><region /><woe_id>2345734</woe_id><longitude>104</longitude><woe_name>Sumatera Selatan</woe_name><fips>ID32</fips><woe_label>South Sumatra, ID, Indonesia</woe_label><latitude>-3</latitude><iso_a2>ID</iso_a2><postal>SL</postal><type>Propinsi</type><id>ID.SL</id></desc></path><path d="M175.864370578,356.587905487 L173.76184755,355.56000534 L176.23815245,354.999332532 L175.864370578,356.587905487 M190.44186357,349.439327193 L196.702709919,352.476304899 L195.861700708,358.083032973 L192.497663863,359.624883193 L190.722199973,356.86824189 L187.264717661,359.671605927 L186.049926579,354.718996129 L187.825390469,349.626218128 L190.44186357,349.439327193 M161.006541183,333.833934054 L163.482846082,335.235616073 L167.687892137,347.804031504 L175.350420505,349.76638633 L171.98638366,354.859164331 L174.088906688,357.382191964 L170.91176078,357.755973835 L162.782005073,353.597650514 L159.651581898,343.692430917 L149.886530503,342.150580697 L154.979308504,334.908556935 L156.801495127,334.394606862 L160.118809238,338.366039247 L158.343345348,334.488052329 L161.006541183,333.833934054 Z" fill="#cee3f5" id="ID.BB" stroke="#6e6e6e" stroke-width="0.4"><desc><labelrank>2</labelrank><code_hasc>ID.BB</code_hasc><name>Bangka-Belitung</name><admin>Indonesia</admin><type_en>Province</type_en><region /><woe_id>28350154</woe_id><longitude>106</longitude><woe_name>Bangka-Belitung</woe_name><fips>ID35</fips><woe_label>Bangka-Belitung, ID, Indonesia</woe_label><latitude>-2</latitude><iso_a2>ID</iso_a2><postal>BB</postal><type>Propinsi</type><id>ID.BB</id></desc></path><path d="M304.585502603,439.707649179 L304.772393539,441.716726739 L302.996929649,440.595381124 L304.585502603,439.707649179 M303.60432519,432.372179949 L306.454411961,436.016553197 L298.091042584,442.32412228 L298.418101722,439.520758243 L290.381791483,435.409157656 L288.09237752,431.484448004 L294.119610199,432.605793619 L299.025497263,430.596716059 L303.60432519,432.372179949 Z" fill="#cee3f5" id="ID.BA" stroke="#6e6e6e" stroke-width="0.4"><desc><labelrank>2</labelrank><code_hasc>ID.BA</code_hasc><name>Bali</name><admin>Indonesia</admin><type_en>Province</type_en><region /><woe_id>2345711</woe_id><longitude>115</longitude><woe_name>Bali</woe_name><fips>ID02</fips><woe_label>Bali, ID, Indonesia</woe_label><latitude>-8</latitude><iso_a2>ID</iso_a2><postal>BA</postal><type>Propinsi</type><id>ID.BA</id></desc></path><path d="M281.411026565,413.122413563 L283.420104125,414.664263783 L274.402616473,418.588973435 L262.348151115,416.019223068 L264.964624216,413.402749967 L281.411026565,413.122413563 M301.922306768,412.60846349 L304.725670805,414.010145508 L300.614070218,415.131491123 L299.913229208,412.748631691 L301.922306768,412.60846349 M236.650647444,433.026298225 L241.93031638,427.279401949 L240.388466159,418.869309838 L243.939393939,419.523428114 L246.368976105,417.187291416 L247.303430784,410.973167801 L253.704445334,413.589640902 L260.712855427,412.982245361 L260.99319183,417.747964224 L264.217060473,418.775864371 L263.329328528,422.747296756 L268.795888399,425.644106261 L282.205313042,423.962087839 L288.09237752,426.672006408 L287.017754639,437.371512482 L290.615405153,440.642103858 L270.33773862,433.773861968 L262.021091977,436.250166867 L236.650647444,433.026298225 Z" fill="#cee3f5" id="ID.JI" stroke="#6e6e6e" stroke-width="0.4"><desc><labelrank>2</labelrank><code_hasc>ID.JI</code_hasc><name>Jawa Timur</name><admin>Indonesia</admin><type_en>Province</type_en><region /><woe_id>2345717</woe_id><longitude>112</longitude><woe_name>Jawa Timur</woe_name><fips>ID08</fips><woe_label>East Java, ID, Indonesia</woe_label><latitude>-7</latitude><iso_a2>ID</iso_a2><postal>JI</postal><type>Propinsi</type><id>ID.JI</id></desc></path><path d="M313.135762915,371.258843946 L311.547189961,365.325056735 L315.331731411,359.297824056 L315.892404218,369.249766386 L313.135762915,371.258843946 M319.910559338,346.68268589 L319.069550127,349.486049927 L315.892404218,349.065545321 L315.612067815,355.887064477 L313.416099319,353.457482312 L312.902149246,356.027232679 L315.285008677,358.083032973 L310.846348952,365.044720331 L290.895741557,373.267921506 L289.821118676,361.120010679 L288.746495795,363.362701909 L286.270190896,362.381524496 L288.699773061,356.027232679 L289.073554933,354.438659725 L289.1670004,354.251768789 L289.63422774,353.737818716 L289.727673208,353.691095982 L290.755573355,353.457482312 L291.035909758,353.364036844 L291.129355226,353.31731411 L291.222800694,353.223868642 L291.40969163,353.036977707 L291.456414364,352.896809505 L291.503137098,352.803364037 L291.503137098,352.616473101 L291.549859832,352.523027633 L292.71792818,352.102523028 L292.811373648,352.00907756 L292.904819116,351.915632092 L293.18515552,351.635295688 L293.325323722,351.401682018 L295.147510346,347.570417835 L294.773728474,345.281003871 L301.455079429,341.823521559 L301.128020291,341.12268055 L301.922306768,339.487384862 L301.548524897,338.319316513 L301.59524763,337.80536644 L302.576425043,333.506874917 L302.669870511,333.179815779 L302.763315979,333.039647577 L302.903484181,332.899479375 L303.60432519,332.665865706 L304.772393539,332.47897477 L306.080630089,331.918301962 L306.454411961,331.824856494 L306.641302897,331.824856494 L306.734748365,331.965024696 L306.734748365,332.151915632 L306.641302897,332.806033907 L305.006007209,334.160993192 L309.304498732,346.355626752 L319.910559338,346.68268589 Z" fill="#cee3f5" id="ID.KS" stroke="#6e6e6e" stroke-width="0.4"><desc><labelrank>2</labelrank><code_hasc>ID.KS</code_hasc><name>Kalimantan Selatan</name><admin>Indonesia</admin><type_en>Province</type_en><region /><woe_id>2345721</woe_id><longitude>115</longitude><woe_name>Kalimantan Selatan</woe_name><fips>ID12</fips><woe_label>South Kalimantan, ID, Indonesia</woe_label><latitude>-3</latitude><iso_a2>ID</iso_a2><postal>KS</postal><type>Propinsi</type><id>ID.KS</id></desc></path><path d="M418.916032572,470.357762649 L416.393004939,473.861967695 L410.59938593,474.889867841 L410.552663196,473.161126685 L419.196368976,468.255239621 L418.916032572,470.357762649 M397.797356828,467.554398612 L396.862902149,470.030703511 L394.059538112,469.42330797 L397.797356828,467.554398612 M369.716993726,450.827659858 L381.304231745,460.405820318 L379.94927246,463.536243492 L376.164731011,465.17153918 L371.53918035,463.723134428 L364.016820184,456.808169804 L356.120678147,455.920437859 L353.831264184,453.397410226 L358.737151248,450.687491657 L369.716993726,450.827659858 M442.978240555,448.678414097 L446.435722867,448.584968629 L446.202109198,450.453877987 L443.305299693,450.734214391 L444.706981711,454.939260446 L435.969830463,464.050193566 L420.504605527,467.274062208 L425.03671072,463.115738887 L422.233346683,462.08783874 L425.737551729,454.75236951 L429.335202243,452.229341877 L433.44680283,454.565478574 L435.736216793,449.986650647 L442.838072353,446.949672941 L442.978240555,448.678414097 M364.951274863,440.361767454 L366.680016019,439.847817381 L365.278334001,442.464290482 L364.951274863,440.361767454 M361.961019891,437.605126151 L363.689761047,438.913362702 L360.606060606,441.483113069 L361.961019891,437.605126151 M418.775864371,435.45588039 L418.729141637,437.792017087 L414.710986517,437.511680683 L418.775864371,435.45588039 M428.540915766,435.68949406 L423.02763316,440.361767454 L417.747964224,439.614203711 L421.672673875,437.091176078 L420.644773728,435.829662261 L422.934187692,435.596048592 L422.887464958,437.511680683 L424.195701508,435.175543986 L428.540915766,435.68949406 M432.839407289,437.885462555 L430.877052463,440.408490188 L427.933520224,438.819917234 L433.493525564,434.848484848 L432.839407289,437.885462555 M437.978908023,434.241089307 L445.781604592,434.941930316 L446.389000133,437.651848885 L434.661593913,439.053530904 L437.651848885,435.736216793 L435.362434922,435.549325858 L437.978908023,434.241089307 M414.243759178,434.054198371 L414.851154719,436.437057803 L411.440395141,438.119076225 L411.440395141,440.688826592 L396.068615672,444.426645308 L390.415164865,442.931517821 L389.52743292,444.753704445 L384.387932185,444.940595381 L372.193298625,442.137231344 L368.362034441,443.585636097 L366.866906955,441.623281271 L367.894807102,436.76411694 L376.164731011,434.147643839 L392.050460553,440.081431051 L399.806434388,437.651848885 L403.73114404,440.828994794 L412.655186223,435.876384995 L413.589640902,434.521425711 L410.59938593,434.98865305 L411.487117875,433.21318916 L414.243759178,434.054198371 Z" fill="#cee3f5" id="ID.NT" stroke="#6e6e6e" stroke-width="0.4"><desc><labelrank>2</labelrank><code_hasc>ID.NT</code_hasc><name>Nusa Tenggara Timur</name><admin>Indonesia</admin><type_en>Province</type_en><region /><woe_id>2345727</woe_id><longitude>120</longitude><woe_name>Nusa Tenggara Timur</woe_name><fips>ID18</fips><woe_label>East Nusa Tenggara, ID, Indonesia</woe_label><latitude>-8</latitude><iso_a2>ID</iso_a2><postal>NT</postal><type>Propinsi</type><id>ID.NT</id></desc></path><path d="M394.807101856,356.120678147 L387.144573488,355.139500734 L386.350287011,351.682018422 L382.565745561,350.700841009 L373.922039781,355.746896276 L377.239353891,360.185556001 L377.379522093,380.883727139 L374.529435322,388.359364571 L377.426244827,395.367774663 L375.323721799,393.685756241 L366.399679616,396.489120278 L362.101188092,394.713656388 L360.933119744,391.256174076 L365.511947671,370.838339341 L362.708583634,366.913629689 L363.596315579,364.670938459 L362.708583634,360.465892404 L362.101188092,359.484714991 L362.241356294,359.157655854 L362.381524496,359.064210386 L362.521692698,359.017487652 L363.035642771,359.157655854 L363.269256441,359.11093312 L363.549592845,358.970764918 L364.016820184,358.64370578 L364.343879322,358.456814844 L364.624215726,358.316646643 L365.325056735,358.176478441 L365.511947671,358.083032973 L365.511947671,357.942864771 L364.063542918,354.905887064 L364.016820184,354.625550661 L364.016820184,354.345214257 L364.063542918,353.364036844 L363.689761047,352.709918569 L364.624215726,352.523027633 L365.465224937,352.709918569 L365.839006808,352.709918569 L366.866906955,352.429582165 L367.427579762,352.149245762 L367.614470698,351.962354826 L367.707916166,351.77546389 L367.7546389,351.682018422 L367.427579762,351.214791083 L367.567747964,350.560672807 L367.053797891,349.859831798 L366.960352423,348.691763449 L366.680016019,348.131090642 L366.913629689,347.149913229 L366.773461487,347.009745027 L366.586570551,346.729408624 L366.072620478,346.262181284 L365.885729542,346.168735816 L365.558670404,346.028567614 L365.371779469,345.935122147 L365.325056735,345.794953945 L365.325056735,345.608063009 L365.418502203,345.327726605 L365.465224937,344.626885596 L365.511947671,344.346549192 L365.698838606,344.066212789 L367.287411561,342.66453077 L367.801361634,342.617808036 L367.98825257,342.524362568 L368.175143506,342.384194367 L369.109598184,340.795621412 L377.052462956,339.11360299 L382.378854626,344.767053798 L392.657856094,347.383526899 L397.70391136,351.635295688 L394.807101856,356.120678147 Z" fill="#cee3f5" id="ID.SE" stroke="#6e6e6e" stroke-width="0.4"><desc><labelrank>2</labelrank><code_hasc>ID.SE</code_hasc><name>Sulawesi Selatan</name><admin>Indonesia</admin><type_en>Province</type_en><region /><woe_id>2345729</woe_id><longitude>119</longitude><woe_name>Sulawesi Selatan</woe_name><fips>ID38</fips><woe_label>South Sulawesi, ID, Indonesia</woe_label><latitude>-3</latitude><iso_a2>ID</iso_a2><postal>SE</postal><type>Propinsi</type><id>ID.SE</id></desc></path><path d="M369.109598184,340.795621412 L368.175143506,342.384194367 L367.98825257,342.524362568 L367.801361634,342.617808036 L367.287411561,342.66453077 L365.511947671,344.346549192 L365.465224937,344.626885596 L365.418502203,345.327726605 L365.325056735,345.608063009 L365.325056735,345.794953945 L365.371779469,345.935122147 L365.558670404,346.028567614 L365.885729542,346.168735816 L366.072620478,346.262181284 L366.586570551,346.729408624 L366.773461487,347.009745027 L366.913629689,347.149913229 L366.680016019,348.131090642 L366.960352423,348.691763449 L367.053797891,349.859831798 L367.567747964,350.560672807 L367.427579762,351.214791083 L367.7546389,351.682018422 L367.707916166,351.77546389 L367.614470698,351.962354826 L367.427579762,352.149245762 L366.866906955,352.429582165 L365.839006808,352.709918569 L365.465224937,352.709918569 L364.624215726,352.523027633 L363.689761047,352.709918569 L364.063542918,353.364036844 L364.016820184,354.345214257 L364.016820184,354.625550661 L364.063542918,354.905887064 L365.511947671,357.942864771 L365.511947671,358.083032973 L365.325056735,358.176478441 L364.624215726,358.316646643 L364.343879322,358.456814844 L364.016820184,358.64370578 L363.549592845,358.970764918 L363.269256441,359.11093312 L363.035642771,359.157655854 L362.521692698,359.017487652 L362.381524496,359.064210386 L362.241356294,359.157655854 L362.147910826,359.297824056 L362.101188092,359.484714991 L362.19463356,359.811774129 L362.708583634,360.465892404 L363.222533707,363.502870111 L360.372446936,362.615138166 L354.999332532,364.764383927 L352.429582165,357.569082899 L354.251768789,354.298491523 L352.382859431,352.896809505 L358.036310239,348.177813376 L359.251101322,341.589907889 L361.213456147,340.842344146 L360.746228808,330.23628354 L364.530770258,324.115605393 L364.577492992,327.012414898 L365.091443065,328.834601522 L363.736483781,330.142838072 L363.362701909,330.890401816 L363.362701909,331.217460953 L363.456147377,331.497797357 L363.643038313,331.637965559 L365.652115872,332.432252036 L365.885729542,332.572420238 L366.072620478,332.806033907 L366.259511414,333.039647577 L366.399679616,333.460152183 L366.633293285,335.002002403 L366.726738753,335.375784274 L366.866906955,335.702843412 L367.52102523,336.543852623 L368.362034441,337.431584568 L368.595648111,337.852089174 L368.315311707,340.094780403 L369.109598184,340.795621412 Z" fill="#cee3f5" id="ID.SR" stroke="#6e6e6e" stroke-width="0.4"><desc><labelrank>2</labelrank><code_hasc>ID.SR</code_hasc><name>Sulawesi Barat</name><admin>Indonesia</admin><type_en>Province</type_en><region /><woe_id>28350155</woe_id><longitude>119</longitude><woe_name>Sulawesi Barat</woe_name><fips>ID41</fips><woe_label>West Sulawesi, ID, Indonesia</woe_label><latitude>-2</latitude><iso_a2>ID</iso_a2><postal>SR</postal><type>Propinsi</type><id>ID.SR</id></desc></path><path d="M141.149379255,317.667868108 L140.588706448,320.891736751 L138.25256975,321.59257776 L137.17794687,317.714590842 L141.149379255,317.667868108 M141.710052062,311.640635429 L147.924175677,316.126017888 L139.607529035,315.051395007 L141.710052062,311.640635429 M135.495928447,298.604992658 L136.9443332,299.025497263 L135.589373915,299.866506474 L134.421305567,297.623815245 L135.495928447,298.604992658 M135.215592044,294.773728474 L134.327860099,297.016419704 L131.524496062,295.801628621 L135.215592044,294.773728474 M141.80349753,293.932719263 L141.896942998,299.352556401 L139.700974503,295.988519557 L136.617274062,296.595915098 L138.065678815,294.213055667 L141.80349753,293.932719263 M159.651581898,267.581097317 L158.670404485,269.543452143 L158.343345348,266.366306234 L159.651581898,267.581097317 M197.356828194,251.368308637 L198.85195568,254.545454545 L195.53464157,257.862768656 L194.179682285,257.115204913 L196.702709919,255.713522894 L192.591109331,252.442931518 L196.188759845,249.03217194 L197.356828194,251.368308637 Z" fill="#cee3f5" id="ID.KR" stroke="#6e6e6e" stroke-width="0.4"><desc><labelrank>2</labelrank><code_hasc>ID.KR</code_hasc><name>Kepulauan Riau</name><admin>Indonesia</admin><type_en>Province</type_en><region /><woe_id>55949082</woe_id><longitude>104</longitude><woe_name>Kepulauan Riau</woe_name><fips>ID40</fips><woe_label>Kepulauan Riau, ID, Indonesia</woe_label><latitude>0</latitude><iso_a2>ID</iso_a2><postal>KR</postal><type>Propinsi</type><id>ID.KR</id></desc></path><path d="M417.561073288,297.810706181 L423.354692297,303.417434254 L423.02763316,307.061807502 L417.23401415,304.024829796 L391.022560406,304.865839007 L391.022560406,304.865839007 L391.162728608,304.492057135 L391.209451342,304.351888933 L391.022560406,303.183820585 L389.714323855,302.903484181 L388.406087305,301.548524897 L389.247096516,301.174743025 L389.574155653,300.941129355 L389.620878387,300.800961153 L389.947937525,300.146842878 L390.181551195,299.773061007 L390.555333066,299.446001869 L391.162728608,299.072219997 L391.396342277,298.978774529 L391.676678681,298.932051795 L391.957015085,298.885329062 L393.265251635,299.165665465 L393.452142571,299.165665465 L393.639033507,299.118942731 L398.871979709,297.203310639 L399.012147911,297.203310639 L399.152316113,297.203310639 L399.385929782,297.250033373 L400.927780003,297.763983447 L401.72206648,297.670537979 L404.011480443,296.409024162 L413.823254572,299.492724603 L417.561073288,297.810706181 Z" fill="#cee3f5" id="ID.GO" stroke="#6e6e6e" stroke-width="0.4"><desc><labelrank>7</labelrank><code_hasc>ID.GO</code_hasc><name>Gorontalo</name><admin>Indonesia</admin><type_en>Province</type_en><region /><woe_id>2345732</woe_id><longitude>122</longitude><woe_name>Gorontalo</woe_name><fips>ID34</fips><woe_label>Gorontalo, ID, Indonesia</woe_label><latitude>0</latitude><iso_a2>ID</iso_a2><postal>GO</postal><type>Propinsi</type><id>ID.GO</id></desc></path><path d="M140.962488319,337.57175277 L131.290882392,338.506207449 L125.777599786,341.262848752 L124.889867841,347.617140569 L121.479108263,344.299826458 L121.011880924,347.149913229 L115.965825657,346.963022293 L111.994393272,352.289413963 L106.901615272,351.261513817 L106.5278334,351.962354826 L104.799092244,352.756641303 L104.612201308,352.850086771 L104.004805767,353.457482312 L101.66866907,352.896809505 L101.014550794,352.289413963 L100.640768923,352.195968496 L100.407155253,352.149245762 L99.5661460419,351.728741156 L99.0521959685,351.308236551 L98.5382458951,350.794286477 L98.2111867574,350.280336404 L97.6505139501,349.813109064 L97.4169002803,349.252436257 L97.1832866106,349.065545321 L96.7160592711,348.878654385 L96.5291683353,348.738486183 L96.3890001335,348.551595248 L96.0152182619,347.056467761 L95.6881591243,346.355626752 L95.4078227206,346.122013082 L95.1742090509,345.981844881 L94.5668135095,345.421172073 L94.193031638,345.374449339 L92.9315178214,346.262181284 L89.9879855827,340.608730477 L89.6142037111,338.926712054 L89.5207582432,337.384861834 L90.0814310506,337.478307302 L90.3617674543,337.431584568 L91.2027766653,337.711920972 L93.8659725003,337.3381391 L94.5668135095,337.525030036 L94.9873181151,337.291416366 L95.6414363903,336.356961687 L96.2021091977,335.843011614 L97.4636230143,334.908556935 L97.7906821519,334.534775063 L97.9775730877,334.25443866 L98.0242958217,331.077292751 L100.453877987,329.255106127 L100.453877987,328.974769724 L99.5661460419,328.741156054 L99.3792551061,327.339474036 L101.061273528,326.732078494 L101.20144173,326.68535576 L102.603123748,325.050060072 L105.686824189,324.582832733 L105.873715125,324.582832733 L106.481110666,324.769723668 L106.668001602,324.816446402 L106.76144707,324.956614604 L106.99506074,325.517287412 L107.836069951,326.311573889 L108.022960886,326.498464824 L108.06968362,326.638633026 L108.116406354,326.778801228 L108.116406354,326.825523962 L108.209851822,326.872246696 L108.77052463,327.012414898 L109.331197437,327.619810439 L111.013215859,327.993592311 L114.984648245,323.60165532 L124.51608597,322.900814311 L130.356427713,327.759978641 L138.579628888,327.105860366 L140.962488319,337.57175277 Z" fill="#cee3f5" id="ID.JA" stroke="#6e6e6e" stroke-width="0.4"><desc><labelrank>6</labelrank><code_hasc>ID.JA</code_hasc><name>Jambi</name><admin>Indonesia</admin><type_en>Province</type_en><region /><woe_id>2345714</woe_id><longitude>102</longitude><woe_name>Jambi</woe_name><fips>ID05</fips><woe_label>Jambi, ID, Indonesia</woe_label><latitude>-1</latitude><iso_a2>ID</iso_a2><postal>JA</postal><type>Propinsi</type><id>ID.JA</id></desc></path><path d="M296.50246963,314.397276732 L296.595915098,314.397276732 L297.109865172,313.836603925 L297.250033373,313.789881191 L297.717260713,313.556267521 L297.857428915,313.509544787 L297.950874383,313.369376585 L298.04431985,313.275931117 L298.184488052,313.042317448 L299.352556401,311.687358163 L299.726338273,311.407021759 L299.959951942,311.407021759 L300.660792952,311.313576292 L301.59524763,311.500467227 L301.641970364,311.547189961 L301.735415832,311.593912695 L301.735415832,311.687358163 L301.735415832,311.734080897 L301.59524763,312.201308237 L301.408356695,313.182485649 L301.361633961,313.369376585 L300.894406621,314.210385796 L300.800961153,314.4907222 L300.660792952,316.359631558 L302.716593245,323.181150714 L303.417434254,324.816446402 L304.258443465,325.610732879 L307.529034842,328.040315045 L307.715925778,328.087037779 L308.229875851,327.853424109 L308.510212255,327.759978641 L308.69710319,329.582165265 L308.603657723,329.769056201 L308.556934989,330.516619944 L308.463489521,330.843679082 L307.715925778,332.2453611 L307.482312108,332.572420238 L307.248698438,332.806033907 L306.641302897,332.806033907 L306.734748365,332.151915632 L306.734748365,331.965024696 L306.641302897,331.824856494 L306.454411961,331.824856494 L306.080630089,331.918301962 L304.772393539,332.47897477 L303.60432519,332.665865706 L302.903484181,332.899479375 L302.763315979,333.039647577 L301.59524763,337.80536644 L301.548524897,338.319316513 L301.922306768,339.487384862 L301.128020291,341.12268055 L301.455079429,341.823521559 L294.773728474,345.281003871 L295.147510346,347.570417835 L293.699105593,349.813109064 L293.512214658,350.420504606 L293.325323722,351.401682018 L293.18515552,351.635295688 L292.904819116,351.915632092 L292.811373648,352.00907756 L292.71792818,352.102523028 L291.549859832,352.523027633 L291.503137098,352.616473101 L291.503137098,352.803364037 L291.40969163,353.036977707 L291.222800694,353.223868642 L291.129355226,353.31731411 L291.035909758,353.364036844 L290.755573355,353.457482312 L289.727673208,353.691095982 L289.63422774,353.737818716 L289.1670004,354.251768789 L289.073554933,354.438659725 L289.026832199,354.625550661 L288.699773061,356.027232679 L286.270190896,362.381524496 L287.111200107,359.11093312 L284.448004272,361.633960753 L283.420104125,358.783873982 L282.29875851,361.213456147 L276.224803097,362.708583634 L275.944466693,358.550260312 L271.365638767,358.363369377 L272.066479776,359.998665065 L267.394206381,354.812441597 L267.207315445,358.363369377 L261.507141904,362.101188092 L255.059404619,360.839674276 L250.387131224,364.343879322 L248.424776398,352.102523028 L245.714857829,356.214123615 L242.631157389,354.812441597 L237.024429315,357.288746496 L233.613669737,356.354291817 L236.744092911,354.485382459 L236.650647444,354.298491523 L236.650647444,354.298491523 L237.071152049,354.111600587 L237.211320251,354.064877853 L237.351488453,353.971432386 L237.631824856,353.504205046 L237.865438526,352.896809505 L238.052329462,352.663195835 L238.239220398,352.523027633 L239.080229609,352.149245762 L239.267120545,352.055800294 L239.45401148,351.915632092 L239.547456948,351.728741156 L239.640902416,351.54185022 L239.126952343,349.76638633 L239.267120545,347.196635963 L237.164597517,342.290748899 L237.771993058,337.665198238 L237.444933921,337.104525431 L237.444933921,336.964357229 L237.538379389,336.590575357 L237.491656655,336.216793486 L237.398211187,336.123348018 L237.304765719,336.076625284 L236.510479242,336.310238953 L236.323588306,336.170070752 L236.183420104,335.983179816 L236.043251902,335.79628888 L236.043251902,335.656120678 L236.043251902,335.515952476 L236.13669737,335.375784274 L236.276865572,335.235616073 L236.60392471,334.861834201 L237.771993058,334.160993192 L238.846615939,334.394606862 L238.986784141,334.394606862 L239.220397811,334.301161394 L253.610999867,322.620477907 L253.797890802,322.573755173 L255.620077426,322.620477907 L257.488986784,322.900814311 L260.619409959,322.153250567 L269.169670271,318.695768255 L270.244293152,319.81711387 L270.384461354,319.910559338 L270.711520491,319.863836604 L271.365638767,318.181818182 L270.618075023,316.733413429 L274.028834602,312.808703778 L271.692697904,308.136430383 L272.206647978,307.949539447 L273.18782539,307.669203044 L274.96328928,307.856093979 L276.131357629,307.15525297 L276.271525831,307.015084768 L276.318248565,306.174075557 L276.364971299,305.940461888 L276.505139501,305.706848218 L276.925644106,305.239620878 L277.43959418,304.305166199 L277.813376051,304.07155253 L278.046989721,303.791216126 L278.420771593,303.510879722 L278.841276198,303.37071152 L279.588839941,303.277266053 L279.775730877,303.230543319 L280.429849152,302.996929649 L280.663462822,302.903484181 L281.270858363,302.856761447 L281.504472033,302.810038713 L281.644640235,302.669870511 L281.971699373,302.342811374 L282.485649446,302.202643172 L291.549859832,302.576425043 L296.222133227,300.894406621 L296.409024162,301.268188493 L296.96969697,301.641970364 L297.203310639,302.06247497 L297.343478841,302.249365906 L297.483647043,302.996929649 L297.717260713,303.510879722 L297.717260713,303.697770658 L297.577092511,304.07155253 L297.436924309,304.258443465 L297.063142438,304.538779869 L296.922974236,304.678948071 L296.081965025,306.407689227 L295.848351355,307.15525297 L296.175410493,309.16433053 L296.7360833,310.145507943 L296.782806034,310.379121613 L296.876251502,310.566012548 L296.876251502,310.752903484 L296.829528768,310.893071686 L296.362301428,312.014417301 L296.128687759,312.761981044 L296.081965025,313.042317448 L296.081965025,313.182485649 L296.128687759,313.322653851 L296.222133227,313.509544787 L296.222133227,314.210385796 L296.362301428,314.397276732 L296.50246963,314.397276732 Z" fill="#cee3f5" id="ID.KT" stroke="#6e6e6e" stroke-width="0.4"><desc><labelrank>2</labelrank><code_hasc>ID.KT</code_hasc><name>Kalimantan Tengah</name><admin>Indonesia</admin><type_en>Province</type_en><region /><woe_id>2345722</woe_id><longitude>113</longitude><woe_name>Kalimantan Tengah</woe_name><fips>ID13</fips><woe_label>Central Kalimantan, ID, Indonesia</woe_label><latitude>-1</latitude><iso_a2>ID</iso_a2><postal>KT</postal><type>Propinsi</type><id>ID.KT</id></desc></path><path d="M578.240555333,378.594313176 L579.315178214,379.715658791 L574.596182085,376.538512882 L578.240555333,378.594313176 M528.667734615,337.992257376 L529.882525698,342.384194367 L526.518488853,343.598985449 L518.66906955,340.795621412 L528.667734615,337.992257376 M537.778667735,326.124682953 L539.97463623,326.91896943 L538.152449606,332.806033907 L533.293285276,327.105860366 L537.778667735,326.124682953 M536.283540248,323.695100788 L529.415298358,326.171405687 L530.396475771,324.209050861 L536.283540248,323.695100788 M596.462421573,356.914964624 L589.313843279,365.465224937 L605.66680016,371.866239487 L599.172340142,379.575490589 L595.621412362,377.286076625 L596.182085169,374.809771726 L600.80763583,374.529435322 L596.135362435,373.968762515 L593.70578027,375.790949139 L590.715525297,373.174476038 L590.341743425,375.604058203 L587.491656655,371.118675744 L585.202242691,372.800694166 L582.959551462,368.595648111 L582.725937792,370.651448405 L580.763582966,369.810439194 L580.623414764,362.848751836 L584.548124416,361.073287946 L583.520224269,358.036310239 L580.389801095,361.120010679 L579.642237351,365.74556134 L577.866773461,365.091443065 L579.03484181,367.7546389 L576.091309571,370.511280203 L576.745427847,372.753971432 L569.269790415,376.491790148 L565.391803498,369.576825524 L568.61567214,367.661193432 L566.793485516,363.315979175 L564.550794286,364.016820184 L559.224402616,357.942864771 L553.757842745,357.569082899 L553.477506341,355.32639167 L557.355493259,353.644373248 L565.765585369,355.887064477 L572.773995461,349.906554532 L576.044586838,351.401682018 L575.997864104,353.971432386 L577.072486984,351.121345615 L577.119209718,353.457482312 L577.49299159,351.588572954 L580.156187425,351.962354826 L580.763582966,354.718996129 L581.324255774,351.495127486 L582.912828728,353.691095982 L581.884928581,350.327059138 L585.996529168,349.579495394 L583.800560673,348.831931651 L585.155519957,346.635963156 L582.632492324,347.523695101 L585.015351755,345.140835669 L580.296355627,347.103190495 L559.084234415,347.243358697 L553.430783607,341.403016954 L554.131624616,335.79628888 L537.918835936,333.693765852 L542.450941129,329.161660659 L542.591109331,324.489387265 L552.543051662,322.527032439 L560.766252837,317.294086237 L569.92390869,318.742490989 L576.511814177,323.181150714 L585.809638233,323.227873448 L588.940061407,325.470564678 L586.744092911,326.91896943 L590.622079829,333.179815779 L587.444933921,338.412761981 L588.566279535,348.551595248 L593.191830196,357.242023762 L593.612334802,352.102523028 L596.088639701,351.728741156 L596.462421573,356.914964624 M536.096649313,311.827526365 L544.226405019,316.26618609 L538.386063276,317.340808971 L533.34000801,312.995594714 L538.012281404,317.480977173 L534.64824456,318.602322787 L533.947403551,316.26618609 L531.751435055,318.508877319 L531.377653184,315.752236017 L526.611934321,314.864504072 L536.096649313,311.827526365 Z" fill="#cee3f5" id="ID.IB" stroke="#6e6e6e" stroke-width="0.4"><desc><labelrank>2</labelrank><code_hasc>ID.IB</code_hasc><name>Irian Jaya Barat</name><admin>Indonesia</admin><type_en>Province</type_en><region /><woe_id>28350157</woe_id><longitude>132</longitude><woe_name>Irian Jaya Barat</woe_name><fips>ID39</fips><woe_label>West Papua, ID, Indonesia</woe_label><latitude>-1</latitude><iso_a2>ID</iso_a2><postal>IB</postal><type>Propinsi</type><id>ID.IB</id></desc></path><path d="M49.4793752503,319.536777466 L46.2555066079,319.723668402 L48.5916433053,315.471899613 L49.4793752503,319.536777466 M50.600720865,315.985849686 L50.3203844614,317.527699907 L46.5825657456,311.874249099 L50.600720865,315.985849686 M51.5818982779,309.117607796 L54.9459351221,310.47256708 L50.2736617274,310.379121613 L51.5818982779,309.117607796 M32.5190228274,288.559604859 L41.1160058737,296.7360833 L39.2938192498,303.230543319 L27.8000266987,290.428514217 L32.5190228274,288.559604859 M77.5130156187,273.234548124 L77.0925110132,282.812708584 L79.3819249766,287.39153651 L73.6350287011,290.94246429 L75.9711653985,294.259778401 L75.2236016553,300.333733814 L68.1217460953,298.371378988 L71.1587238019,304.164997998 L65.9257775998,303.230543319 L59.6182085169,307.949539447 L52.9835802964,287.998932052 L54.6655987185,286.223468162 L43.7324789748,278.467494327 L40.3217193966,262.161260179 L42.2373514885,261.039914564 L39.106928314,254.825790949 L43.6390335069,247.069817114 L46.7694566814,246.55586704 L45.3677746629,249.265785609 L46.6292884795,248.237885463 L69.0562007743,263.703110399 L72.5136830864,267.254038179 L72.8874649579,272.486984381 L73.5883059672,270.618075023 L74.662928848,273.608329996 L75.8309971966,270.898411427 L77.5130156187,273.234548124 Z" fill="#cee3f5" id="ID.SU" stroke="#6e6e6e" stroke-width="0.4"><desc><labelrank>2</labelrank><code_hasc>ID.SU</code_hasc><name>Sumatera Utara</name><admin>Indonesia</admin><type_en>Province</type_en><region /><woe_id>2345735</woe_id><longitude>99</longitude><woe_name>Sumatera Utara</woe_name><fips>ID26</fips><woe_label>North Sumatra, ID, Indonesia</woe_label><latitude>2</latitude><iso_a2>ID</iso_a2><postal>SU</postal><type>Propinsi</type><id>ID.SU</id></desc></path><path d="M129.281804832,316.920304365 L124.843145107,316.733413429 L126.29154986,315.098117741 L129.281804832,316.920304365 M120.638099052,304.07155253 L121.105326392,301.174743025 L122.413562942,303.183820585 L120.638099052,304.07155253 M112.601788813,296.829528768 L118.255239621,299.118942731 L118.395407823,301.221465759 L108.957415565,298.698438126 L110.405820318,297.483647043 L110.218929382,294.820451208 L112.601788813,296.829528768 M118.488853291,296.128687759 L119.843812575,299.305833667 L112.274729676,296.455746896 L114.237084501,294.306501135 L118.488853291,296.128687759 M109.84514751,297.343478841 L108.443465492,297.763983447 L106.481110666,295.568014951 L106.154051529,290.662127887 L109.985315712,293.18515552 L109.84514751,297.343478841 M106.481110666,288.232545722 L110.265652116,289.447336804 L110.54598852,292.624482713 L103.023628354,287.531704712 L106.481110666,288.232545722 M98.7251368309,280.897076492 L98.631691363,285.102122547 L95.2209317848,285.662795354 L94.146308904,281.037244694 L98.7251368309,280.897076492 M99.3792551061,327.339474036 L85.5493258577,316.593245228 L83.8673074356,312.995594714 L85.268989454,308.743825924 L76.5785609398,304.959284475 L75.2236016553,300.333733814 L75.9711653985,294.259778401 L73.6350287011,290.94246429 L79.3819249766,287.39153651 L77.0925110132,282.812708584 L77.5130156187,273.234548124 L79.2884795087,277.486316914 L86.9977306101,284.30783607 L84.8017621145,278.51421706 L88.6330262982,277.299425978 L94.2397543719,286.08329996 L99.0989187024,286.830863703 L104.658924042,290.989187024 L106.013883327,296.409024162 L109.237751969,299.726338273 L116.059271125,300.894406621 L119.142971566,304.07155253 L111.6206114,309.070885062 L109.471365639,308.183153117 L111.527165932,309.3979442 L123.348017621,303.744493392 L129.328527566,308.183153117 L129.935923108,311.874249099 L121.946335603,315.612067815 L125.263649713,314.911226805 L123.114403951,317.247363503 L126.898945401,318.27526365 L123.488185823,318.462154586 L124.51608597,322.900814311 L114.984648245,323.60165532 L111.013215859,327.993592311 L109.331197437,327.619810439 L108.77052463,327.012414898 L108.209851822,326.872246696 L108.116406354,326.825523962 L108.116406354,326.778801228 L108.06968362,326.638633026 L108.022960886,326.498464824 L107.836069951,326.311573889 L106.99506074,325.517287412 L106.901615272,325.14350554 L106.76144707,324.956614604 L106.668001602,324.816446402 L106.481110666,324.769723668 L105.873715125,324.582832733 L105.686824189,324.582832733 L102.603123748,325.050060072 L99.3792551061,327.339474036 Z" fill="#cee3f5" id="ID.RI" stroke="#6e6e6e" stroke-width="0.4"><desc><labelrank>2</labelrank><code_hasc>ID.RI</code_hasc><name>Riau</name><admin>Indonesia</admin><type_en>Province</type_en><region /><woe_id>2345728</woe_id><longitude>101</longitude><woe_name>Riau</woe_name><fips>ID37</fips><woe_label>Riau, ID, Indonesia</woe_label><latitude>0</latitude><iso_a2>ID</iso_a2><postal>RI</postal><type>Propinsi</type><id>ID.RI</id></desc></path><path d="M447.230009345,286.457081832 L450.126818849,289.307168602 L438.259244427,305.006007209 L423.02763316,307.061807502 L423.354692297,303.417434254 L417.561073288,297.810706181 L430.269656922,299.259110933 L440.174876518,293.745828327 L439.474035509,291.269523428 L447.230009345,286.457081832 M455.546655987,258.516886931 L455.546655987,260.339073555 L453.771192097,259.357896142 L452.696569216,255.246295555 L455.546655987,258.516886931 M474.329195034,243.378721132 L475.076758777,246.602589774 L471.432385529,250.901081298 L473.301294887,247.537044453 L472.133226539,242.818048325 L474.329195034,243.378721132 Z" fill="#cee3f5" id="ID.SW" stroke="#6e6e6e" stroke-width="0.4"><desc><labelrank>2</labelrank><code_hasc>ID.SW</code_hasc><name>Sulawesi Utara</name><admin>Indonesia</admin><type_en>Province</type_en><region /><woe_id>28350156</woe_id><longitude>124</longitude><woe_name>Sulawesi Utara</woe_name><fips>ID31</fips><woe_label>North Sulawesi, ID, Indonesia</woe_label><latitude>0</latitude><iso_a2>ID</iso_a2><postal>SW</postal><type>Propinsi</type><id>ID.SW</id></desc></path><path d="M462.601788813,349.112268055 L459.377920171,343.365371779 L460.499265786,341.543185156 L462.601788813,349.112268055 M452.696569216,338.879989321 L466.806834869,339.34721666 L452.836737418,341.216126018 L452.696569216,338.879989321 M439.193699106,336.403684421 L450.640768923,337.898811908 L451.154718996,340.188225871 L437.278067014,341.916967027 L436.156721399,339.253771192 L439.193699106,336.403684421 M489.607529035,333.647043118 L494.513416099,337.291416366 L482.645841677,336.637298091 L483.39340542,333.319983981 L486.570551328,332.058470164 L489.607529035,333.647043118 M481.758109732,323.648378054 L479.281804832,323.508209852 L479.982645842,321.265518622 L481.758109732,323.648378054 M486.617274062,318.088372714 L486.897610466,322.573755173 L490.682151916,323.508209852 L488.48618342,325.330396476 L486.47710586,323.227873448 L483.907355493,324.209050861 L481.38432786,319.022827393 L482.458950741,316.733413429 L486.617274062,318.088372714 M480.169536777,315.565345081 L480.963823255,318.835936457 L478.721132025,319.770391136 L480.169536777,315.565345081 M492.971565879,278.233880657 L489.794419971,283.466826859 L492.410893072,285.475904419 L492.457615806,291.783473502 L486.617274062,297.717260713 L490.308370044,299.165665465 L494.980643439,294.072887465 L493.625684154,292.531037245 L495.35442531,290.475236951 L503.297290081,287.671872914 L503.063676412,295.334401282 L495.541316246,299.913229208 L502.783340008,303.230543319 L502.92350821,306.454411961 L506.147376852,308.323321319 L490.869042851,305.052729943 L491.990388466,315.798958751 L499.045521292,325.704178347 L492.737952209,322.433586971 L487.224669604,315.285008677 L487.878787879,306.968362034 L484.981978374,303.183820585 L486.47710586,299.072219997 L482.972900814,295.521292217 L485.729542117,285.008677079 L492.971565879,278.233880657 M501.194767054,271.739420638 L502.736617274,274.309171005 L500.961153384,279.21505807 L496.288879989,281.177412895 L495.260979842,276.73875317 L501.194767054,271.739420638 Z" fill="#cee3f5" id="ID.133" stroke="#6e6e6e" stroke-width="0.4"><desc><labelrank>2</labelrank><code_hasc>ID.LA</code_hasc><name>Maluku Utara</name><admin>Indonesia</admin><type_en>Province</type_en><region /><woe_id>20069998</woe_id><longitude>125</longitude><woe_name>Maluku Utara</woe_name><fips>ID29</fips><woe_label>North Maluku, ID, Indonesia</woe_label><latitude>-2</latitude><iso_a2>ID</iso_a2><postal>LA</postal><type>Propinsi</type><id>ID.133</id></desc></path><path d="M79.8958750501,357.989587505 L79.8491523161,362.007742624 L75.6441062608,353.877986918 L79.8958750501,357.989587505 M75.8777199306,353.364036844 L73.0276331598,354.532105193 L72.4669603524,349.252436257 L75.8777199306,353.364036844 M68.2151915632,343.926044587 L70.5046055266,347.663863303 L65.5052729943,344.206380991 L66.4864504072,342.197303431 L68.2151915632,343.926044587 M56.1140034708,326.031237485 L61.1600587372,338.693098385 L55.6467761314,337.244693632 L51.1613936724,329.955947137 L52.2827392871,326.264851155 L56.1140034708,326.031237485 M75.2236016553,300.333733814 L76.5785609398,304.959284475 L85.268989454,308.743825924 L83.8673074356,312.995594714 L85.5493258577,316.593245228 L99.3792551061,327.339474036 L99.5661460419,327.713255907 L99.6128687759,328.087037779 L99.5661460419,328.741156054 L100.453877987,328.974769724 L100.453877987,329.255106127 L100.126818849,329.909224403 L99.472700574,330.563342678 L98.0242958217,331.077292751 L98.1177412895,333.78721132 L97.9775730877,334.25443866 L97.7906821519,334.534775063 L97.4636230143,334.908556935 L96.2021091977,335.843011614 L95.6414363903,336.356961687 L94.9873181151,337.291416366 L94.5668135095,337.525030036 L93.8659725003,337.3381391 L91.2027766653,337.711920972 L90.3617674543,337.431584568 L90.0814310506,337.478307302 L89.5207582432,337.384861834 L89.6142037111,338.926712054 L89.9879855827,340.608730477 L91.7634494727,343.038312642 L92.370845014,344.486717394 L92.9315178214,346.262181284 L88.3059671606,349.065545321 L77.1392337472,324.068882659 L66.9536777466,310.519289814 L59.6182085169,307.949539447 L65.9257775998,303.230543319 L71.1587238019,304.164997998 L68.1217460953,298.371378988 L75.2236016553,300.333733814 Z" fill="#cee3f5" id="ID.SB" stroke="#6e6e6e" stroke-width="0.4"><desc><labelrank>2</labelrank><code_hasc>ID.SB</code_hasc><name>Sumatera Barat</name><admin>Indonesia</admin><type_en>Province</type_en><region /><woe_id>2345733</woe_id><longitude>100</longitude><woe_name>Sumatera Barat</woe_name><fips>ID24</fips><woe_label>West Sumatra, ID, Indonesia</woe_label><latitude>0</latitude><iso_a2>ID</iso_a2><postal>SB</postal><type>Propinsi</type><id>ID.SB</id></desc></path><path d="M231.230810306,427.045788279 L232.866105994,427.045788279 L233.800560673,427.232679215 L234.080897076,427.372847417 L234.221065278,427.559738353 L234.267788012,427.653183821 L234.267788012,427.840074756 L234.314510746,428.540915766 L234.407956214,428.914697637 L234.501401682,431.484448004 L234.548124416,431.624616206 L234.641569884,431.718061674 L235.062074489,431.67133894 L235.155519957,432.652516353 L223.334668269,428.12041116 L223.334668269,428.12041116 L223.381391003,427.746629288 L223.428113736,427.606461087 L223.661727406,427.326124683 L224.409291149,426.204779068 L224.549459351,425.971165398 L224.596182085,425.690828995 L224.549459351,425.270324389 L224.736350287,424.989987986 L225.063409425,424.849819784 L226.324923241,424.896542518 L226.511814177,425.550660793 L227.119209718,424.849819784 L228.754505406,423.681751435 L229.128287278,423.214524096 L229.175010012,423.354692297 L229.688960085,425.597383527 L229.922573755,426.1113336 L230.156187425,426.531838206 L230.623414764,426.905620077 L231.230810306,427.045788279 Z" fill="#cee3f5" id="ID.YO" stroke="#6e6e6e" stroke-width="0.4"><desc><labelrank>7</labelrank><code_hasc>ID.YO</code_hasc><name>Yogyakarta</name><admin>Indonesia</admin><type_en>Special region</type_en><region /><woe_id>2345719</woe_id><longitude>110</longitude><woe_name>Yogyakarta</woe_name><fips>ID10</fips><woe_label>Special Region of Yogyakarta, ID, Indonesia</woe_label><latitude>-7</latitude><iso_a2>ID</iso_a2><postal>YO</postal><type>Daerah Istimewa</type><id>ID.YO</id></desc></path><path d="M487.318115071,435.45588039 L491.756774796,436.623948738 L489.887865439,438.025630757 L487.318115071,435.45588039 M537.031103991,438.259244427 L538.66639968,438.072353491 L532.031771459,441.296222133 L537.031103991,438.259244427 M517.033773862,432.278734481 L517.033773862,436.016553197 L514.183687091,433.540248298 L517.033773862,432.278734481 M470.684821786,428.307302096 L472.320117474,429.708984114 L466.666666667,432.699239087 L460.452543052,431.250834335 L456.200774262,432.979575491 L459.284474703,427.793352022 L469.283139768,426.625283674 L470.684821786,428.307302096 M480.823655053,428.35402483 L480.636764117,426.158056334 L482.318782539,426.625283674 L480.823655053,428.35402483 M546.655987185,423.494860499 L546.001868909,430.549993325 L540.815645441,436.530503271 L537.731945001,436.109998665 L540.021358964,428.260579362 L546.655987185,423.494860499 M550.814310506,422.700574022 L551.468428781,425.130156187 L547.917501001,423.167801362 L550.814310506,422.700574022 M593.612334802,413.869977306 L592.490989187,415.551995728 L589.500734214,412.701908957 L591.136029903,411.580563343 L593.612334802,413.869977306 M590.855693499,414.15031371 L591.743425444,417.23401415 L586.557201976,421.439060206 L584.548124416,418.916032572 L585.716192765,414.103590976 L587.258042985,414.944600187 L585.762915499,409.711653985 L590.855693499,414.15031371 M586.697370178,407.001735416 L588.519556801,407.936190095 L588.005606728,409.197703911 L590.762248031,411.487117875 L586.697370178,409.991990388 L586.697370178,407.001735416 M593.845948471,398.030970498 L596.509144307,402.049125617 L595.948471499,406.768121746 L593.845948471,406.394339875 L596.462421573,408.730476572 L593.659057536,413.028968095 L588.753170471,409.431317581 L588.846615939,407.842744627 L590.108129756,407.375517287 L590.388466159,403.73114404 L587.631824856,402.376184755 L593.845948471,398.030970498 M569.409958617,400.647443599 L565.999199039,405.973835269 L571.325590709,395.040715525 L569.409958617,400.647443599 M498.438125751,367.334134294 L498.391403017,365.74556134 L500.400480577,366.493125083 L498.438125751,367.334134294 M496.756107329,366.446402349 L495.401148044,368.735816313 L490.72887465,369.29648912 L492.317447604,366.633293285 L496.756107329,366.446402349 M501.989053531,365.97917501 L503.016953678,367.240688827 L500.447203311,365.325056735 L501.989053531,365.97917501 M474.656254172,359.064210386 L480.496595915,363.129088239 L480.169536777,366.726738753 L472.460285676,370.417834735 L464.283807235,366.820184221 L461.386997731,362.708583634 L462.695234281,358.924042184 L474.656254172,359.064210386 M515.772260045,354.625550661 L531.938325991,360.279001468 L536.283540248,367.240688827 L535.676144707,371.772794019 L521.051928981,363.222533707 L515.164864504,362.6618609 L514.744359899,365.138165799 L506.661326926,363.315979175 L505.399813109,360.933119744 L499.279134962,364.857829395 L494.466693365,358.690428514 L490.26164731,365.605393138 L489.514083567,360.138833267 L493.532238686,358.690428514 L494.653584301,355.466559872 L508.203177146,354.859164331 L510.118809238,357.242023762 L515.772260045,354.625550661 Z" fill="#cee3f5" id="ID.MA" stroke="#6e6e6e" stroke-width="0.4"><desc><labelrank>2</labelrank><code_hasc>ID.MA</code_hasc><name>Maluku</name><admin>Indonesia</admin><type_en>Province</type_en><region /><woe_id>20069997</woe_id><longitude>128</longitude><woe_name>Maluku</woe_name><fips>ID28</fips><woe_label>Maluku, ID, Indonesia</woe_label><latitude>-8</latitude><iso_a2>ID</iso_a2><postal>MA</postal><type>Propinsi</type><id>ID.MA</id></desc></path><path d="M321.779468696,435.736216793 L319.116272861,443.165131491 L308.463489521,441.903617675 L312.107862769,440.735549326 L311.266853558,436.437057803 L315.098117741,433.400080096 L321.779468696,435.736216793 M333.740488586,435.68949406 L332.806033907,432.792684555 L335.422507008,432.325457215 L333.740488586,435.68949406 M339.954612201,431.67133894 L344.907222,435.736216793 L349.906554532,434.614871179 L350.140168202,438.446135362 L351.448404752,435.175543986 L354.905887064,434.98865305 L357.662528367,441.156053931 L347.056467761,443.071686023 L346.402349486,438.913362702 L342.524362568,443.071686023 L326.498464824,446.295554666 L322.013082366,444.987318115 L323.181150714,437.46495795 L328.46081965,435.315712188 L334.768388733,436.577226005 L337.384861834,440.78227206 L344.393271926,439.754371913 L336.02990255,433.540248298 L339.954612201,431.67133894 Z" fill="#cee3f5" id="ID.NB" stroke="#6e6e6e" stroke-width="0.4"><desc><labelrank>2</labelrank><code_hasc>ID.NB</code_hasc><name>Nusa Tenggara Barat</name><admin>Indonesia</admin><type_en>Province</type_en><region /><woe_id>2345726</woe_id><longitude>116</longitude><woe_name>Nusa Tenggara Barat</woe_name><fips>ID17</fips><woe_label>West Nusa Tenggara, ID, Indonesia</woe_label><latitude>-8</latitude><iso_a2>ID</iso_a2><postal>NB</postal><type>Propinsi</type><id>ID.NB</id></desc></path><path d="M399.292484315,387.845414497 L401.441730076,389.29381925 L400.881057269,393.405419837 L397.563743158,390.274996663 L399.292484315,387.845414497 M412.187958884,385.883059672 L409.384594847,392.891469764 L408.123081031,390.882392204 L404.618875985,392.050460553 L406.300894407,382.752636497 L411.253504205,380.883727139 L412.187958884,385.883059672 M418.775864371,381.911627286 L418.729141637,384.387932185 L416.346282205,382.799359231 L414.664263783,389.247096516 L418.635696169,391.256174076 L413.542918168,393.545588039 L412.515018022,396.956347617 L410.13215859,396.769456681 L408.870644774,394.15298358 L412.655186223,389.807769323 L414.243759178,378.781204112 L416.953677747,377.566413029 L418.775864371,381.911627286 M416.953677747,371.726071286 L419.47670538,372.520357763 L417.747964224,375.323721799 L414.991322921,372.380189561 L416.953677747,371.726071286 M394.807101856,356.120678147 L405.927112535,360.185556001 L406.487785342,363.175810973 L404.572153251,362.241356294 L403.871312241,365.465224937 L410.59938593,369.997330129 L408.964090242,371.165398478 L411.019890535,373.735148845 L413.402749967,372.520357763 L414.15031371,377.519690295 L410.692831398,376.351621946 L412.001067948,378.921372313 L404.104925911,378.547590442 L401.301561874,380.883727139 L401.908957416,384.060873048 L396.115338406,383.920704846 L392.751301562,380.743558937 L395.087438259,372.753971432 L383.920704846,363.876651982 L387.144573488,355.139500734 L394.807101856,356.120678147 Z" fill="#cee3f5" id="ID.SG" stroke="#6e6e6e" stroke-width="0.4"><desc><labelrank>2</labelrank><code_hasc>ID.SG</code_hasc><name>Sulawesi Tenggara</name><admin>Indonesia</admin><type_en>Province</type_en><region /><woe_id>2345731</woe_id><longitude>122</longitude><woe_name>Sulawesi Tenggara</woe_name><fips>ID22</fips><woe_label>South East Sulawesi, ID, Indonesia</woe_label><latitude>-4</latitude><iso_a2>ID</iso_a2><postal>SG</postal><type>Propinsi</type><id>ID.SG</id></desc></path><path d="M424.662928848,335.79628888 L423.494860499,337.431584568 L424.055533307,333.974102256 L424.662928848,335.79628888 M419.102923508,329.068215192 L419.570150848,332.665865706 L422.233346683,330.049392604 L424.382592444,331.030570017 L424.055533307,333.273261247 L420.411160059,333.086370311 L418.729141637,336.076625284 L418.261914297,331.264183687 L414.15031371,335.515952476 L414.570818315,329.488719797 L419.102923508,329.068215192 M398.871979709,317.761313576 L399.47937525,319.349886531 L395.648111067,319.910559338 L398.871979709,317.761313576 M405.973835269,315.191563209 L406.721399012,316.920304365 L404.431985049,314.72433587 L405.973835269,315.191563209 M405.927112535,360.185556001 L394.807101856,356.120678147 L397.70391136,351.635295688 L392.657856094,347.383526899 L382.378854626,344.767053798 L377.052462956,339.11360299 L369.109598184,340.795621412 L368.315311707,340.094780403 L368.595648111,337.852089174 L368.362034441,337.431584568 L367.52102523,336.543852623 L366.866906955,335.702843412 L366.726738753,335.375784274 L366.633293285,335.002002403 L366.399679616,333.460152183 L366.259511414,333.039647577 L366.072620478,332.806033907 L365.885729542,332.572420238 L365.652115872,332.432252036 L363.643038313,331.637965559 L363.456147377,331.497797357 L363.362701909,331.217460953 L363.362701909,330.890401816 L365.044720331,329.114937926 L365.091443065,328.834601522 L364.997997597,328.367374182 L364.577492992,327.012414898 L364.530770258,324.115605393 L365.932452276,322.106527833 L367.053797891,321.172073154 L368.969429983,324.162328127 L368.034975304,313.602990255 L365.465224937,312.014417301 L368.782539047,312.668535576 L367.848084368,308.183153117 L371.726071286,300.847683887 L375.183553598,296.96969697 L379.528767855,300.100120144 L384.621545855,291.596582566 L392.751301562,292.390869043 L394.807101856,295.895074089 L403.918034975,296.315578694 L401.72206648,297.670537979 L400.927780003,297.763983447 L399.385929782,297.250033373 L399.152316113,297.203310639 L399.012147911,297.203310639 L398.871979709,297.203310639 L393.639033507,299.118942731 L393.452142571,299.165665465 L393.265251635,299.165665465 L392.37751969,298.932051795 L391.957015085,298.885329062 L391.676678681,298.932051795 L391.396342277,298.978774529 L391.162728608,299.072219997 L390.555333066,299.446001869 L389.947937525,300.146842878 L389.620878387,300.800961153 L389.574155653,300.941129355 L388.406087305,301.548524897 L389.247096516,302.389534108 L389.714323855,302.903484181 L391.022560406,303.183820585 L391.209451342,304.351888933 L391.162728608,304.492057135 L391.022560406,304.865839007 L391.022560406,304.865839007 L390.975837672,304.865839007 L390.83566947,304.819116273 L390.321719397,304.538779869 L389.947937525,304.585502603 L387.658523562,305.706848218 L376.678681084,304.632225337 L370.978507542,314.864504072 L372.380189561,321.545855026 L378.500867708,326.264851155 L381.117340809,332.525697504 L387.565078094,332.712588439 L395.321051929,323.695100788 L399.899879856,326.031237485 L404.151648645,323.181150714 L415.038045655,323.13442798 L412.094513416,321.452409558 L417.000400481,320.144173008 L422.420237618,321.59257776 L421.392337472,327.339474036 L417.561073288,324.255773595 L413.68308637,325.236951008 L406.534508076,334.067547724 L398.918702443,336.684020825 L396.348952076,340.234948605 L390.415164865,338.833266587 L405.179548792,354.952609798 L405.03938059,357.195301028 L407.936190095,358.924042184 L405.927112535,360.185556001 Z" fill="#cee3f5" id="ID.ST" stroke="#6e6e6e" stroke-width="0.4"><desc><labelrank>2</labelrank><code_hasc>ID.ST</code_hasc><name>Sulawesi Tengah</name><admin>Indonesia</admin><type_en>Province</type_en><region /><woe_id>2345730</woe_id><longitude>120</longitude><woe_name>Sulawesi Tengah</woe_name><fips>ID21</fips><woe_label>Central Sulawesi, ID, Indonesia</woe_label><latitude>-1</latitude><iso_a2>ID</iso_a2><postal>ST</postal><type>Propinsi</type><id>ID.ST</id></desc></path><path d="M660.93979442,449.052195968 L655.14617541,448.538245895 L659.211053264,445.734881858 L660.93979442,449.052195968 M661.126685356,443.912695234 L652.29608864,449.379255106 L640.335068749,448.771859565 L647.109865172,436.390335069 L653.697770658,432.979575491 L660.425844347,432.886130023 L664.630890402,436.530503271 L661.126685356,443.912695234 M609.778400748,337.197970898 L632.76598585,340.88906688 L622.440261647,342.524362568 L609.778400748,337.197970898 M599.172340142,379.575490589 L605.66680016,371.866239487 L589.313843279,365.465224937 L596.462421573,356.914964624 L597.350153518,359.297824056 L599.359231077,357.989587505 L598.751835536,361.727406221 L601.321585903,364.857829395 L609.404618876,365.511947671 L622.253370712,352.990254973 L624.215725537,347.757308771 L637.204645575,345.935122147 L636.410359098,340.88906688 L648.184488052,335.749566146 L680.096115338,350.841009211 L686.403684421,350.373781872 L696.168735816,353.597650514 L695.748231211,355.840341743 L700.0,355.373114404 L697.383526899,417.93485516 L694.907222,423.962087839 L696.822854092,427.326124683 L694.019490055,464.190361767 L678.92804699,447.697236684 L681.965024696,442.838072353 L678.787878788,446.10866373 L669.162995595,447.136563877 L666.546522494,442.838072353 L661.17340809,448.071018556 L660.192230677,445.127486317 L661.593912695,444.426645308 L664.911226805,436.250166867 L658.323321319,429.89587505 L667.761313576,429.708984114 L661.266853558,429.195034041 L656.874916567,425.223601655 L662.995594714,424.33586971 L667.153918035,426.718729142 L659.070885062,421.999733013 L661.453744493,421.953010279 L655.800293686,416.673341343 L652.903484181,408.543585636 L655.286343612,407.328794553 L651.268188493,406.160726205 L654.725670805,404.759044186 L649.913229208,405.319716994 L650.146842878,400.133493526 L648.932051795,401.208116406 L637.578427446,391.910292351 L630.28968095,391.536510479 L616.3195835,384.154318516 L604.732345481,383.032972901 L599.172340142,379.575490589 M609.030837004,322.246696035 L616.226138032,323.040982512 L624.449339207,329.862501669 L616.413028968,330.750233614 L614.497396876,325.236951008 L609.591509812,324.442664531 L609.030837004,322.246696035 Z" fill="#cee3f5" id="ID.PA" stroke="#6e6e6e" stroke-width="0.4"><desc><labelrank>2</labelrank><code_hasc>ID.PA</code_hasc><name>Papua</name><admin>Indonesia</admin><type_en>Province</type_en><region /><woe_id>2345718</woe_id><longitude>138</longitude><woe_name>Papua</woe_name><fips>ID36</fips><woe_label>Papua, ID, Indonesia</woe_label><latitude>-4</latitude><iso_a2>ID</iso_a2><postal>PA</postal><type>Propinsi</type><id>ID.PA</id></desc></path></svg>