<?xml version='1.0' encoding='utf-8'?>
<svg height="700" width="700" xmlns="http://www.w3.org/2000/svg"><path d="M568.649885584,251.086956522 L567.848970252,253.489702517 L566.247139588,256.693363844 L564.645308924,257.494279176 L564.645308924,263.901601831 L576.659038902,263.901601831 L576.659038902,267.105263158 L607.09382151,266.304347826 L609.496567506,267.105263158 L612.700228833,271.109839817 L613.501144165,273.512585812 L616.704805492,275.915331808 L618.306636156,279.118993135 L615.90389016,279.919908467 L615.102974828,283.123569794 L616.704805492,284.725400458 L616.704805492,286.327231121 L619.107551487,291.132723112 L591.876430206,290.33180778 L546.224256293,291.132723112 L546.224256293,268.707093822 L546.224256293,252.688787185 L547.025171625,251.086956522 L568.649885584,251.086956522 Z" fill="#cee3f5" id="US.FL.095" stroke="#6e6e6e" stroke-width="0.4"><desc><name>Orange County</name><stateAbbrev>FL</stateAbbrev><state>Florida</state><fips>095</fips><incits>12095</incits><id>US.FL.095</id><population>1225267</population></desc></path><path d="M568.649885584,251.086956522 L568.649885584,246.281464531 L571.853546911,243.878718535 L572.654462243,242.276887872 L575.057208238,245.480549199 L577.459954233,246.281464531 L585.469107551,246.281464531 L586.270022883,248.684210526 L590.274599542,251.086956522 L593.47826087,250.28604119 L595.080091533,247.082379863 L599.885583524,247.883295195 L601.487414188,252.688787185 L603.089244851,257.494279176 L604.691075515,259.09610984 L606.292906178,265.503432494 L607.09382151,266.304347826 L576.659038902,267.105263158 L576.659038902,263.901601831 L564.645308924,263.901601831 L564.645308924,257.494279176 L566.247139588,256.693363844 L567.848970252,253.489702517 L568.649885584,251.086956522 Z" fill="#cee3f5" id="US.FL.117" stroke="#6e6e6e" stroke-width="0.4"><desc><name>Seminole County</name><stateAbbrev>FL</stateAbbrev><state>Florida</state><fips>117</fips><incits>12117</incits><id>US.FL.117</id><population>436041</population></desc></path><path d="M546.224256293,291.132723112 L591.876430206,290.33180778 L619.107551487,291.132723112 L619.107551487,315.160183066 L618.306636156,315.160183066 L618.306636156,339.187643021 L617.505720824,339.187643021 L617.505720824,347.196796339 L617.505720824,347.196796339 L617.505720824,355.205949657 L593.47826087,355.205949657 L592.677345538,348.798627002 L591.075514874,347.99771167 L591.075514874,346.395881007 L588.672768879,341.590389016 L587.070938215,339.187643021 L585.469107551,336.784897025 L579.061784897,335.183066362 L577.459954233,331.979405034 L578.260869565,329.576659039 L575.057208238,328.775743707 L575.85812357,327.173913043 L571.853546911,324.771167048 L570.251716247,322.368421053 L567.848970252,322.368421053 L566.247139588,319.164759725 L571.853546911,319.965675057 L573.455377574,319.164759725 L573.455377574,315.961098398 L574.256292906,315.160183066 L564.645308924,315.160183066 L564.645308924,309.553775744 L558.23798627,309.553775744 L558.23798627,303.947368421 L555.034324943,299.14187643 L546.224256293,299.14187643 L546.224256293,291.132723112 Z" fill="#cee3f5" id="US.FL.097" stroke="#6e6e6e" stroke-width="0.4"><desc><name>Osceola County</name><stateAbbrev>FL</stateAbbrev><state>Florida</state><fips>097</fips><incits>12097</incits><id>US.FL.097</id><population>298504</population></desc></path><path d="M607.09382151,266.304347826 L609.496567506,266.304347826 L609.496567506,250.28604119 L636.727688787,250.28604119 L640.732265446,255.091533181 L649.542334096,267.105263158 L651.945080092,273.512585812 L654.347826087,277.517162471 L655.148741419,281.52173913 L653.546910755,283.924485126 L650.343249428,287.128146453 L648.741418764,291.933638444 L647.940503432,297.540045767 L651.945080092,315.160183066 L662.356979405,335.183066362 L656.750572082,335.183066362 L652.745995423,335.983981693 L651.14416476,339.187643021 L618.306636156,339.187643021 L618.306636156,315.160183066 L619.107551487,315.160183066 L619.107551487,291.132723112 L616.704805492,286.327231121 L616.704805492,284.725400458 L615.102974828,283.123569794 L615.90389016,279.919908467 L618.306636156,279.118993135 L616.704805492,275.915331808 L613.501144165,273.512585812 L612.700228833,271.109839817 L609.496567506,267.105263158 L607.09382151,266.304347826 Z" fill="#cee3f5" id="US.FL.009" stroke="#6e6e6e" stroke-width="0.4"><desc><name>Brevard County</name><stateAbbrev>FL</stateAbbrev><state>Florida</state><fips>009</fips><incits>12009</incits><id>US.FL.009</id><population>550823</population></desc></path><path d="M543.821510297,201.43020595 L565.446224256,196.624713959 L567.04805492,195.022883295 L567.848970252,195.022883295 L567.848970252,207.036613272 L592.677345538,207.036613272 L591.876430206,193.421052632 L595.881006865,191.819221968 L602.288329519,191.819221968 L610.297482838,208.638443936 L615.102974828,218.249427918 L617.505720824,221.453089245 L627.917620137,236.670480549 L636.727688787,250.28604119 L609.496567506,250.28604119 L609.496567506,266.304347826 L607.09382151,266.304347826 L606.292906178,265.503432494 L604.691075515,259.09610984 L603.089244851,257.494279176 L601.487414188,252.688787185 L599.885583524,247.883295195 L595.080091533,247.082379863 L593.47826087,250.28604119 L590.274599542,251.086956522 L586.270022883,248.684210526 L585.469107551,246.281464531 L577.459954233,246.281464531 L575.057208238,245.480549199 L572.654462243,242.276887872 L574.256292906,240.675057208 L574.256292906,235.869565217 L572.654462243,235.068649886 L574.256292906,232.66590389 L571.853546911,231.864988558 L569.450800915,227.860411899 L567.04805492,227.059496568 L563.844393593,222.254004577 L560.640732265,222.254004577 L559.839816934,219.851258581 L557.437070938,215.04576659 L555.034324943,212.643020595 L550.228832952,212.643020595 L548.627002288,208.638443936 L547.826086957,206.235697941 L543.821510297,201.43020595 Z" fill="#cee3f5" id="US.FL.127" stroke="#6e6e6e" stroke-width="0.4"><desc><name>Volusia County</name><stateAbbrev>FL</stateAbbrev><state>Florida</state><fips>127</fips><incits>12127</incits><id>US.FL.127</id><population>500800</population></desc></path><path d="M518.993135011,291.132723112 L518.993135011,269.508009153 L518.993135011,235.068649886 L546.224256293,235.068649886 L546.224256293,227.059496568 L547.826086957,227.059496568 L547.826086957,206.235697941 L548.627002288,208.638443936 L550.228832952,212.643020595 L555.034324943,212.643020595 L557.437070938,215.04576659 L559.839816934,219.851258581 L560.640732265,222.254004577 L563.844393593,222.254004577 L567.04805492,227.059496568 L569.450800915,227.860411899 L571.853546911,231.864988558 L574.256292906,232.66590389 L572.654462243,235.068649886 L574.256292906,235.869565217 L574.256292906,240.675057208 L572.654462243,242.276887872 L571.853546911,243.878718535 L568.649885584,246.281464531 L568.649885584,251.086956522 L547.025171625,251.086956522 L546.224256293,252.688787185 L546.224256293,268.707093822 L546.224256293,291.132723112 L534.210526316,291.132723112 L534.210526316,289.530892449 L527.803203661,289.530892449 L527.803203661,291.132723112 L518.993135011,291.132723112 Z" fill="#cee3f5" id="US.FL.069" stroke="#6e6e6e" stroke-width="0.4"><desc><name>Lake County</name><stateAbbrev>FL</stateAbbrev><state>Florida</state><fips>069</fips><incits>12069</incits><id>US.FL.069</id><population>308034</population></desc></path><path d="M367.6201373,80.4919908467 L395.652173913,82.0938215103 L398.85583524,82.0938215103 L399.656750572,86.8993135011 L402.059496568,92.5057208238 L401.258581236,96.5102974828 L402.860411899,97.3112128146 L403.661327231,101.315789474 L406.864988558,102.116704805 L407.66590389,104.519450801 L406.064073227,105.320366133 L406.064073227,107.723112128 L404.462242563,108.52402746 L404.462242563,111.727688787 L402.860411899,112.528604119 L400.457665904,115.732265446 L390.04576659,115.732265446 L380.434782609,115.732265446 L380.434782609,111.727688787 L348.398169336,111.727688787 L350.800915332,109.324942792 L350.0,106.121281465 L351.601830664,104.519450801 L354.004576659,104.519450801 L354.805491991,102.917620137 L357.208237986,99.7139588101 L357.208237986,94.9084668192 L356.407322654,93.3066361556 L358.81006865,90.9038901602 L362.013729977,89.3020594966 L365.217391304,89.3020594966 L368.421052632,86.8993135011 L368.421052632,81.2929061785 L367.6201373,80.4919908467 Z" fill="#cee3f5" id="US.FL.079" stroke="#6e6e6e" stroke-width="0.4"><desc><name>Madison County</name><stateAbbrev>FL</stateAbbrev><state>Florida</state><fips>079</fips><incits>12079</incits><id>US.FL.079</id><population>18728</population></desc></path><path d="M195.423340961,48.4553775744 L218.649885584,48.4553775744 L240.274599542,48.4553775744 L240.274599542,50.057208238 L241.876430206,51.6590389016 L242.677345538,54.061784897 L245.881006865,58.8672768879 L247.482837529,62.0709382151 L246.681922197,65.2745995423 L249.084668192,70.881006865 L249.885583524,70.881006865 L253.089244851,74.885583524 L253.890160183,76.4874141876 L251.487414188,78.8901601831 L249.885583524,82.8947368421 L246.681922197,84.4965675057 L225.057208238,84.4965675057 L225.057208238,88.5011441648 L205.835240275,87.700228833 L201.029748284,87.700228833 L201.029748284,67.6773455378 L197.025171625,67.6773455378 L197.025171625,63.6727688787 L185.812356979,63.6727688787 L186.613272311,61.2700228833 L188.215102975,58.0663615561 L190.61784897,54.8627002288 L192.219679634,54.061784897 L192.219679634,50.8581235698 L195.423340961,48.4553775744 Z" fill="#cee3f5" id="US.FL.063" stroke="#6e6e6e" stroke-width="0.4"><desc><name>Jackson County</name><stateAbbrev>FL</stateAbbrev><state>Florida</state><fips>063</fips><incits>12063</incits><id>US.FL.063</id><population>48922</population></desc></path><path d="M543.821510297,128.546910755 L547.025171625,128.546910755 L549.42791762,127.745995423 L557.437070938,128.546910755 L557.437070938,130.148741419 L567.04805492,130.148741419 L566.247139588,116.533180778 L576.659038902,116.533180778 L579.862700229,128.546910755 L583.066361556,139.7597254 L587.070938215,150.972540046 L587.871853547,155.778032037 L589.473684211,161.384439359 L591.075514874,165.389016018 L592.677345538,170.194508009 L585.469107551,170.194508009 L580.663615561,171.796338673 L579.061784897,171.796338673 L576.659038902,174.199084668 L558.23798627,174.199084668 L558.23798627,161.384439359 L554.233409611,158.180778032 L553.432494279,154.176201373 L551.830663616,150.972540046 L551.029748284,147.768878719 L551.830663616,145.366132723 L550.228832952,142.162471396 L544.622425629,138.958810069 L543.020594966,137.356979405 L543.821510297,128.546910755 Z" fill="#cee3f5" id="US.FL.109" stroke="#6e6e6e" stroke-width="0.4"><desc><name>St. Johns County</name><stateAbbrev>FL</stateAbbrev><state>Florida</state><fips>109</fips><incits>12109</incits><id>US.FL.109</id><population>209647</population></desc></path><path d="M439.702517162,361.613272311 L446.910755149,361.613272311 L464.530892449,355.205949657 L510.183066362,355.205949657 L510.183066362,383.23798627 L509.38215103,395.251716247 L491.76201373,395.251716247 L491.76201373,378.432494279 L450.114416476,378.432494279 L447.711670481,376.029748284 L445.308924485,370.423340961 L440.503432494,364.816933638 L439.702517162,361.613272311 Z" fill="#cee3f5" id="US.FL.081" stroke="#6e6e6e" stroke-width="0.4"><desc><name>Manatee County</name><stateAbbrev>FL</stateAbbrev><state>Florida</state><fips>081</fips><incits>12081</incits><id>US.FL.081</id><population>342106</population></desc></path><path d="M76.0869565217,109.324942792 L76.8878718535,86.0983981693 L77.6887871854,48.4553775744 L84.8970251716,49.2562929062 L101.71624714,49.2562929062 L113.729977117,49.2562929062 L113.729977117,76.4874141876 L113.729977117,93.3066361556 L112.929061785,110.125858124 L104.919908467,109.324942792 L101.71624714,109.324942792 L95.3089244851,108.52402746 L90.5034324943,108.52402746 L84.0961098398,108.52402746 L76.0869565217,109.324942792 Z" fill="#cee3f5" id="US.FL.091" stroke="#6e6e6e" stroke-width="0.4"><desc><name>Okaloosa County</name><stateAbbrev>FL</stateAbbrev><state>Florida</state><fips>091</fips><incits>12091</incits><id>US.FL.091</id><population>193811</population></desc></path><path d="M617.505720824,507.3798627 L635.926773455,507.3798627 L635.926773455,508.981693364 L670.366132723,508.981693364 L670.366132723,508.180778032 L686.384439359,507.3798627 L692.791762014,507.3798627 L691.18993135,514.588100686 L692.791762014,520.194508009 L691.18993135,527.402745995 L689.588100686,530.606407323 L688.787185355,537.013729977 L691.990846682,539.416475973 L693.592677346,541.819221968 L692.791762014,545.823798627 L690.389016018,547.425629291 L687.185354691,547.425629291 L686.384439359,553.032036613 L684.782608696,557.036613272 L687.185354691,560.2402746 L687.185354691,562.643020595 L683.981693364,568.249427918 L674.370709382,565.846681922 L673.56979405,564.244851259 L663.958810069,568.249427918 L663.157894737,570.652173913 L658.352402746,575.457665904 L644.736842105,577.860411899 L638.329519451,579.462242563 L638.329519451,581.864988558 L635.926773455,581.064073227 L631.922196796,581.864988558 L630.320366133,583.466819222 L627.917620137,581.864988558 L622.311212815,581.864988558 L619.107551487,580.263157895 L619.107551487,574.656750572 L619.107551487,563.443935927 L617.505720824,563.443935927 L617.505720824,523.398169336 L617.505720824,507.3798627 Z" fill="#cee3f5" id="US.FL.086" stroke="#6e6e6e" stroke-width="0.4"><desc><name>Miami-Dade County</name><stateAbbrev>FL</stateAbbrev><state>Florida</state><fips>086</fips><incits>12086</incits><id>US.FL.086</id><population>2617176</population></desc></path><path d="M230.663615561,121.338672769 L235.469107551,115.732265446 L235.469107551,112.528604119 L237.070938215,106.121281465 L239.473684211,104.519450801 L237.871853547,101.315789474 L241.876430206,97.3112128146 L241.075514874,92.5057208238 L242.677345538,89.3020594966 L245.881006865,86.8993135011 L246.681922197,84.4965675057 L251.487414188,84.4965675057 L251.487414188,90.9038901602 L257.894736842,90.9038901602 L261.098398169,92.5057208238 L261.098398169,98.1121281465 L266.704805492,98.1121281465 L266.704805492,101.315789474 L269.908466819,101.315789474 L269.908466819,104.519450801 L273.112128146,104.519450801 L269.908466819,106.121281465 L269.107551487,107.723112128 L266.704805492,109.324942792 L266.704805492,112.528604119 L265.102974828,113.329519451 L265.90389016,116.533180778 L267.505720824,116.533180778 L269.908466819,119.736842105 L271.510297483,124.542334096 L271.510297483,128.546910755 L274.71395881,134.153318078 L275.514874142,134.153318078 L278.718535469,137.356979405 L282.723112128,138.958810069 L255.491990847,138.958810069 L240.274599542,138.157894737 L238.672768879,142.162471396 L237.871853547,140.560640732 L230.663615561,137.356979405 L228.260869565,135.755148741 L228.260869565,132.551487414 L227.459954233,130.148741419 L228.260869565,127.745995423 L228.260869565,123.741418764 L230.663615561,121.338672769 Z" fill="#cee3f5" id="US.FL.077" stroke="#6e6e6e" stroke-width="0.4"><desc><name>Liberty County</name><stateAbbrev>FL</stateAbbrev><state>Florida</state><fips>077</fips><incits>12077</incits><id>US.FL.077</id><population>8349</population></desc></path><path d="M200.228832952,148.56979405 L205.034324943,146.967963387 L205.034324943,139.7597254 L205.034324943,121.338672769 L230.663615561,121.338672769 L228.260869565,123.741418764 L228.260869565,127.745995423 L227.459954233,130.148741419 L228.260869565,132.551487414 L228.260869565,135.755148741 L230.663615561,137.356979405 L237.871853547,140.560640732 L238.672768879,142.162471396 L238.672768879,143.764302059 L235.469107551,148.56979405 L237.070938215,150.972540046 L237.871853547,154.977116705 L238.672768879,156.578947368 L237.070938215,159.782608696 L234.66819222,159.782608696 L233.867276888,160.583524027 L230.663615561,160.583524027 L221.853546911,166.18993135 L221.052631579,167.791762014 L218.649885584,174.199084668 L213.844393593,173.398169336 L210.640732265,175.800915332 L205.835240275,175.0 L201.830663616,170.194508009 L198.627002288,163.787185355 L197.826086957,158.981693364 L197.025171625,154.977116705 L197.826086957,151.773455378 L200.228832952,148.56979405 Z" fill="#cee3f5" id="US.FL.045" stroke="#6e6e6e" stroke-width="0.4"><desc><name>Gulf County</name><stateAbbrev>FL</stateAbbrev><state>Florida</state><fips>045</fips><incits>12045</incits><id>US.FL.045</id><population>15829</population></desc></path><path d="M509.38215103,411.270022883 L509.38215103,395.251716247 L510.183066362,383.23798627 L524.599542334,383.23798627 L525.400457666,383.23798627 L527.803203661,383.23798627 L555.034324943,382.437070938 L555.034324943,410.469107551 L545.423340961,411.270022883 L516.590389016,410.469107551 L509.38215103,411.270022883 Z" fill="#cee3f5" id="US.FL.027" stroke="#6e6e6e" stroke-width="0.4"><desc><name>DeSoto County</name><stateAbbrev>FL</stateAbbrev><state>Florida</state><fips>027</fips><incits>12027</incits><id>US.FL.027</id><population>34517</population></desc></path><path d="M635.926773455,363.215102975 L673.56979405,363.215102975 L675.171624714,367.219679634 L676.773455378,369.622425629 L676.773455378,372.025171625 L684.782608696,389.645308924 L671.967963387,389.645308924 L671.967963387,395.251716247 L635.926773455,395.251716247 L635.926773455,363.215102975 Z" fill="#cee3f5" id="US.FL.111" stroke="#6e6e6e" stroke-width="0.4"><desc><name>St. Lucie County</name><stateAbbrev>FL</stateAbbrev><state>Florida</state><fips>111</fips><incits>12111</incits><id>US.FL.111</id><population>286832</population></desc></path><path d="M246.681922197,84.4965675057 L249.885583524,82.8947368421 L251.487414188,78.8901601831 L253.890160183,76.4874141876 L253.089244851,74.885583524 L285.125858124,76.4874141876 L305.949656751,77.2883295195 L304.347826087,78.0892448513 L305.148741419,81.2929061785 L301.945080092,85.2974828375 L297.940503432,87.700228833 L296.338672769,92.5057208238 L295.537757437,93.3066361556 L295.537757437,96.5102974828 L293.935926773,97.3112128146 L284.324942792,98.9130434783 L280.320366133,100.514874142 L277.917620137,102.116704805 L274.71395881,102.116704805 L273.112128146,104.519450801 L269.908466819,104.519450801 L269.908466819,101.315789474 L266.704805492,101.315789474 L266.704805492,98.1121281465 L261.098398169,98.1121281465 L261.098398169,92.5057208238 L257.894736842,90.9038901602 L251.487414188,90.9038901602 L251.487414188,84.4965675057 L246.681922197,84.4965675057 Z" fill="#cee3f5" id="US.FL.039" stroke="#6e6e6e" stroke-width="0.4"><desc><name>Gadsden County</name><stateAbbrev>FL</stateAbbrev><state>Florida</state><fips>039</fips><incits>12039</incits><id>US.FL.039</id><population>46194</population></desc></path><path d="M616.704805492,417.677345538 L629.519450801,408.066361556 L635.926773455,402.459954233 L635.926773455,395.251716247 L671.967963387,395.251716247 L671.967963387,389.645308924 L684.782608696,389.645308924 L688.787185355,397.654462243 L690.389016018,402.459954233 L694.393592677,411.270022883 L695.995423341,416.876430206 L684.782608696,416.876430206 L684.782608696,417.677345538 L665.560640732,417.677345538 L639.931350114,417.677345538 L616.704805492,417.677345538 Z" fill="#cee3f5" id="US.FL.085" stroke="#6e6e6e" stroke-width="0.4"><desc><name>Martin County</name><stateAbbrev>FL</stateAbbrev><state>Florida</state><fips>085</fips><incits>12085</incits><id>US.FL.085</id><population>151263</population></desc></path><path d="M390.04576659,115.732265446 L400.457665904,115.732265446 L400.457665904,121.338672769 L402.860411899,129.347826087 L406.864988558,130.949656751 L409.267734554,130.148741419 L417.276887872,132.551487414 L417.276887872,134.153318078 L422.082379863,136.556064073 L423.684210526,138.958810069 L426.887871854,140.560640732 L427.688787185,143.764302059 L430.091533181,143.764302059 L431.693363844,148.56979405 L434.897025172,150.171624714 L434.897025172,151.773455378 L433.295194508,155.778032037 L430.892448513,155.778032037 L426.887871854,155.778032037 L394.050343249,155.778032037 L391.647597254,155.778032037 L391.647597254,150.171624714 L390.04576659,150.171624714 L390.04576659,115.732265446 Z" fill="#cee3f5" id="US.FL.067" stroke="#6e6e6e" stroke-width="0.4"><desc><name>Lafayette County</name><stateAbbrev>FL</stateAbbrev><state>Florida</state><fips>067</fips><incits>12067</incits><id>US.FL.067</id><population>8848</population></desc></path><path d="M443.707093822,259.09610984 L476.544622426,259.09610984 L476.544622426,261.498855835 L490.961098398,261.498855835 L490.160183066,262.299771167 L495.766590389,270.308924485 L502.173913043,271.109839817 L506.178489703,275.114416476 L510.183066362,275.114416476 L510.183066362,279.118993135 L491.76201373,279.118993135 L491.76201373,283.123569794 L466.933638444,283.123569794 L446.109839817,283.123569794 L446.910755149,278.318077803 L446.109839817,274.313501144 L447.711670481,269.508009153 L448.512585812,267.90617849 L446.910755149,265.503432494 L445.308924485,262.299771167 L443.707093822,259.09610984 Z" fill="#cee3f5" id="US.FL.053" stroke="#6e6e6e" stroke-width="0.4"><desc><name>Hernando County</name><stateAbbrev>FL</stateAbbrev><state>Florida</state><fips>053</fips><incits>12053</incits><id>US.FL.053</id><population>174441</population></desc></path><path d="M440.503432494,355.205949657 L446.910755149,355.205949657 L447.711670481,358.409610984 L450.114416476,356.80778032 L450.915331808,355.205949657 L459.725400458,355.205949657 L465.33180778,342.391304348 L462.929061785,339.187643021 L462.929061785,333.581235698 L462.128146453,330.377574371 L460.526315789,328.775743707 L455.720823799,327.173913043 L455.720823799,306.350114416 L476.544622426,307.151029748 L505.377574371,307.151029748 L510.183066362,307.151029748 L510.183066362,335.183066362 L510.183066362,355.205949657 L464.530892449,355.205949657 L446.910755149,361.613272311 L439.702517162,361.613272311 L440.503432494,355.205949657 Z" fill="#cee3f5" id="US.FL.057" stroke="#6e6e6e" stroke-width="0.4"><desc><name>Hillsborough County</name><stateAbbrev>FL</stateAbbrev><state>Florida</state><fips>057</fips><incits>12057</incits><id>US.FL.057</id><population>1291578</population></desc></path><path d="M555.034324943,382.437070938 L555.034324943,355.205949657 L559.038901602,355.205949657 L559.839816934,355.205949657 L583.867276888,355.205949657 L593.47826087,355.205949657 L593.47826087,359.210526316 L587.070938215,365.61784897 L587.871853547,367.219679634 L587.871853547,368.821510297 L590.274599542,370.423340961 L593.47826087,374.42791762 L593.47826087,376.029748284 L595.881006865,378.432494279 L599.885583524,379.233409611 L601.487414188,380.835240275 L603.890160183,385.640732265 L606.292906178,387.242562929 L606.292906178,389.645308924 L608.695652174,394.450800915 L611.899313501,394.450800915 L591.075514874,394.450800915 L591.075514874,402.459954233 L581.464530892,403.260869565 L582.265446224,411.270022883 L555.034324943,410.469107551 L555.034324943,382.437070938 Z" fill="#cee3f5" id="US.FL.055" stroke="#6e6e6e" stroke-width="0.4"><desc><name>Highlands County</name><stateAbbrev>FL</stateAbbrev><state>Florida</state><fips>055</fips><incits>12055</incits><id>US.FL.055</id><population>97616</population></desc></path><path d="M332.3798627,138.958810069 L333.180778032,130.949656751 L335.583524027,126.14416476 L336.384439359,122.940503432 L338.787185355,122.139588101 L339.588100686,117.33409611 L342.791762014,115.732265446 L346.796338673,114.130434783 L348.398169336,111.727688787 L380.434782609,111.727688787 L380.434782609,115.732265446 L390.04576659,115.732265446 L390.04576659,150.171624714 L391.647597254,150.171624714 L391.647597254,155.778032037 L394.050343249,155.778032037 L394.050343249,159.782608696 L391.647597254,162.986270023 L391.647597254,166.990846682 L389.244851259,170.194508009 L386.842105263,169.393592677 L382.036613272,170.995423341 L379.633867277,173.398169336 L376.43020595,173.398169336 L374.027459954,170.194508009 L367.6201373,166.990846682 L365.217391304,163.787185355 L364.416475973,158.180778032 L362.814645309,157.3798627 L359.610983982,152.574370709 L355.606407323,149.370709382 L350.0,148.56979405 L344.393592677,146.167048055 L342.791762014,143.764302059 L340.389016018,143.764302059 L337.185354691,140.560640732 L332.3798627,138.958810069 Z" fill="#cee3f5" id="US.FL.123" stroke="#6e6e6e" stroke-width="0.4"><desc><name>Taylor County</name><stateAbbrev>FL</stateAbbrev><state>Florida</state><fips>123</fips><incits>12123</incits><id>US.FL.123</id><population>22857</population></desc></path><path d="M523.798627002,475.343249428 L531.80778032,475.343249428 L531.80778032,476.14416476 L546.224256293,476.14416476 L546.224256293,466.533180778 L555.034324943,466.533180778 L555.034324943,458.52402746 L581.464530892,457.723112128 L581.464530892,482.551487414 L617.505720824,481.750572082 L617.505720824,507.3798627 L617.505720824,523.398169336 L599.885583524,523.398169336 L554.233409611,523.398169336 L548.627002288,526.601830664 L543.821510297,526.601830664 L540.61784897,524.199084668 L538.215102975,519.393592677 L535.812356979,516.18993135 L534.210526316,512.986270023 L532.608695652,509.782608696 L533.409610984,507.3798627 L528.604118993,499.370709382 L527.803203661,495.366132723 L527.00228833,485.755148741 L525.400457666,480.148741419 L523.798627002,475.343249428 Z" fill="#cee3f5" id="US.FL.021" stroke="#6e6e6e" stroke-width="0.4"><desc><name>Collier County</name><stateAbbrev>FL</stateAbbrev><state>Florida</state><fips>021</fips><incits>12021</incits><id>US.FL.021</id><population>339642</population></desc></path><path d="M43.2494279176,48.4553775744 L57.6659038902,48.4553775744 L77.6887871854,48.4553775744 L76.8878718535,86.0983981693 L76.0869565217,109.324942792 L65.6750572082,110.926773455 L65.6750572082,104.519450801 L52.0594965675,106.922196796 L44.8512585812,107.723112128 L41.647597254,109.324942792 L36.8421052632,107.723112128 L37.643020595,105.320366133 L43.2494279176,102.917620137 L45.652173913,101.315789474 L45.652173913,98.1121281465 L46.4530892449,94.1075514874 L42.4485125858,90.1029748284 L39.2448512586,89.3020594966 L36.8421052632,85.2974828375 L34.4393592677,83.6956521739 L33.6384439359,80.4919908467 L33.6384439359,74.885583524 L30.4347826087,74.0846681922 L29.6338672769,72.4828375286 L30.4347826087,63.6727688787 L29.6338672769,62.0709382151 L32.0366132723,58.8672768879 L32.0366132723,55.6636155606 L34.4393592677,54.8627002288 L36.0411899314,51.6590389016 L40.8466819222,50.8581235698 L43.2494279176,48.4553775744 Z" fill="#cee3f5" id="US.FL.113" stroke="#6e6e6e" stroke-width="0.4"><desc><name>Santa Rosa County</name><stateAbbrev>FL</stateAbbrev><state>Florida</state><fips>113</fips><incits>12113</incits><id>US.FL.113</id><population>161096</population></desc></path><path d="M446.109839817,283.123569794 L466.933638444,283.123569794 L491.76201373,283.123569794 L491.76201373,279.118993135 L510.183066362,279.118993135 L510.183066362,294.336384439 L510.183066362,299.14187643 L505.377574371,299.14187643 L505.377574371,307.151029748 L476.544622426,307.151029748 L455.720823799,306.350114416 L432.494279176,307.151029748 L431.693363844,302.345537757 L434.897025172,299.14187643 L438.100686499,298.340961098 L442.105263158,295.137299771 L442.105263158,290.33180778 L443.707093822,285.526315789 L446.109839817,283.123569794 Z" fill="#cee3f5" id="US.FL.101" stroke="#6e6e6e" stroke-width="0.4"><desc><name>Pasco County</name><stateAbbrev>FL</stateAbbrev><state>Florida</state><fips>101</fips><incits>12101</incits><id>US.FL.101</id><population>475502</population></desc></path><path d="M510.183066362,165.389016018 L510.183066362,165.389016018 L512.585812357,165.389016018 L514.187643021,163.787185355 L520.594965675,162.986270023 L522.99771167,158.981693364 L527.803203661,158.180778032 L531.80778032,154.977116705 L553.432494279,154.176201373 L554.233409611,158.180778032 L558.23798627,161.384439359 L558.23798627,174.199084668 L558.23798627,178.203661327 L558.23798627,179.805491991 L559.038901602,185.411899314 L561.441647597,189.416475973 L563.043478261,195.022883295 L567.04805492,195.022883295 L565.446224256,196.624713959 L543.821510297,201.43020595 L546.224256293,199.828375286 L545.423340961,197.425629291 L538.215102975,197.425629291 L538.215102975,191.819221968 L535.812356979,191.819221968 L535.011441648,187.013729977 L529.405034325,187.013729977 L529.405034325,183.81006865 L522.99771167,184.610983982 L521.395881007,183.81006865 L518.19221968,185.411899314 L512.585812357,186.212814645 L510.183066362,187.814645309 L510.183066362,165.389016018 Z" fill="#cee3f5" id="US.FL.107" stroke="#6e6e6e" stroke-width="0.4"><desc><name>Putnam County</name><stateAbbrev>FL</stateAbbrev><state>Florida</state><fips>107</fips><incits>12107</incits><id>US.FL.107</id><population>72577</population></desc></path><path d="M379.633867277,173.398169336 L382.036613272,170.995423341 L386.842105263,169.393592677 L389.244851259,170.194508009 L391.647597254,166.990846682 L391.647597254,162.986270023 L394.050343249,159.782608696 L394.050343249,155.778032037 L426.887871854,155.778032037 L430.892448513,155.778032037 L429.290617849,157.3798627 L428.489702517,162.185354691 L429.290617849,162.986270023 L427.688787185,166.990846682 L427.688787185,172.597254005 L426.086956522,175.800915332 L427.688787185,177.402745995 L429.290617849,177.402745995 L428.489702517,180.606407323 L425.28604119,182.208237986 L425.28604119,186.212814645 L421.281464531,191.819221968 L420.480549199,195.823798627 L418.077803204,196.624713959 L417.276887872,199.828375286 L414.874141876,200.629290618 L413.272311213,202.231121281 L410.869565217,201.43020595 L408.466819222,204.633867277 L401.258581236,208.638443936 L402.059496568,203.032036613 L396.453089245,199.828375286 L395.652173913,195.823798627 L391.647597254,194.221967963 L390.846681922,191.819221968 L384.439359268,189.416475973 L382.837528604,187.013729977 L380.434782609,179.004576659 L381.235697941,175.0 L379.633867277,173.398169336 Z" fill="#cee3f5" id="US.FL.029" stroke="#6e6e6e" stroke-width="0.4"><desc><name>Dixie County</name><stateAbbrev>FL</stateAbbrev><state>Florida</state><fips>029</fips><incits>12029</incits><id>US.FL.029</id><population>15940</population></desc></path><path d="M618.306636156,339.187643021 L651.14416476,339.187643021 L652.745995423,335.983981693 L656.750572082,335.183066362 L662.356979405,335.183066362 L667.963386728,345.594965675 L670.366132723,354.405034325 L671.967963387,356.80778032 L673.56979405,363.215102975 L635.926773455,363.215102975 L626.315789474,363.215102975 L626.315789474,355.205949657 L617.505720824,355.205949657 L617.505720824,347.196796339 L617.505720824,347.196796339 L617.505720824,339.187643021 L618.306636156,339.187643021 Z" fill="#cee3f5" id="US.FL.061" stroke="#6e6e6e" stroke-width="0.4"><desc><name>Indian River County</name><stateAbbrev>FL</stateAbbrev><state>Florida</state><fips>061</fips><incits>12061</incits><id>US.FL.061</id><population>141994</population></desc></path><path d="M218.649885584,174.199084668 L221.052631579,167.791762014 L221.853546911,166.18993135 L230.663615561,160.583524027 L233.867276888,160.583524027 L234.66819222,159.782608696 L237.070938215,159.782608696 L238.672768879,156.578947368 L237.871853547,154.977116705 L237.070938215,150.972540046 L235.469107551,148.56979405 L238.672768879,143.764302059 L238.672768879,142.162471396 L240.274599542,138.157894737 L255.491990847,138.958810069 L282.723112128,138.958810069 L285.125858124,140.560640732 L287.528604119,141.361556064 L289.130434783,139.7597254 L289.931350114,142.162471396 L292.33409611,142.162471396 L302.745995423,143.764302059 L308.352402746,142.162471396 L308.352402746,145.366132723 L305.148741419,151.773455378 L301.14416476,153.375286041 L297.139588101,154.176201373 L291.533180778,152.574370709 L287.528604119,154.977116705 L285.125858124,154.977116705 L284.324942792,158.981693364 L282.723112128,160.583524027 L278.718535469,162.986270023 L273.913043478,163.787185355 L265.102974828,170.995423341 L261.899313501,172.597254005 L257.09382151,174.199084668 L247.482837529,179.004576659 L237.871853547,182.208237986 L233.867276888,181.407322654 L230.663615561,179.004576659 L225.057208238,177.402745995 L221.853546911,175.0 L218.649885584,174.199084668 Z" fill="#cee3f5" id="US.FL.037" stroke="#6e6e6e" stroke-width="0.4"><desc><name>Franklin County</name><stateAbbrev>FL</stateAbbrev><state>Florida</state><fips>037</fips><incits>12037</incits><id>US.FL.037</id><population>11598</population></desc></path><path d="M476.544622426,146.967963387 L479.748283753,146.167048055 L482.95194508,145.366132723 L483.752860412,142.963386728 L486.155606407,143.764302059 L490.160183066,139.7597254 L490.961098398,137.356979405 L494.164759725,136.556064073 L498.970251716,132.551487414 L499.771167048,130.949656751 L501.372997712,129.347826087 L502.173913043,126.945080092 L510.183066362,126.945080092 L510.983981693,162.986270023 L510.183066362,165.389016018 L510.183066362,165.389016018 L509.38215103,162.986270023 L507.780320366,159.782608696 L504.576659039,159.782608696 L502.974828375,154.977116705 L498.970251716,154.977116705 L497.368421053,153.375286041 L492.562929062,153.375286041 L489.359267735,154.176201373 L484.553775744,150.972540046 L478.947368421,150.171624714 L476.544622426,146.967963387 Z" fill="#cee3f5" id="US.FL.007" stroke="#6e6e6e" stroke-width="0.4"><desc><name>Bradford County</name><stateAbbrev>FL</stateAbbrev><state>Florida</state><fips>007</fips><incits>12007</incits><id>US.FL.007</id><population>26850</population></desc></path><path d="M617.505720824,474.542334096 L652.745995423,474.542334096 L676.773455378,474.542334096 L679.176201373,475.343249428 L687.986270023,475.343249428 L689.588100686,476.14416476 L695.995423341,476.14416476 L695.995423341,481.750572082 L693.592677346,496.967963387 L692.791762014,507.3798627 L686.384439359,507.3798627 L670.366132723,508.180778032 L670.366132723,508.981693364 L635.926773455,508.981693364 L635.926773455,507.3798627 L617.505720824,507.3798627 L617.505720824,481.750572082 L617.505720824,474.542334096 Z" fill="#cee3f5" id="US.FL.011" stroke="#6e6e6e" stroke-width="0.4"><desc><name>Broward County</name><stateAbbrev>FL</stateAbbrev><state>Florida</state><fips>011</fips><incits>12011</incits><id>US.FL.011</id><population>1838844</population></desc></path><path d="M510.183066362,122.940503432 L518.993135011,122.940503432 L543.821510297,122.139588101 L543.020594966,126.945080092 L543.821510297,128.546910755 L543.020594966,137.356979405 L544.622425629,138.958810069 L550.228832952,142.162471396 L551.830663616,145.366132723 L551.029748284,147.768878719 L551.830663616,150.972540046 L553.432494279,154.176201373 L531.80778032,154.977116705 L527.803203661,158.180778032 L522.99771167,158.981693364 L520.594965675,162.986270023 L514.187643021,163.787185355 L512.585812357,165.389016018 L510.183066362,165.389016018 L510.983981693,162.986270023 L510.183066362,126.945080092 L510.183066362,122.940503432 Z" fill="#cee3f5" id="US.FL.019" stroke="#6e6e6e" stroke-width="0.4"><desc><name>Clay County</name><stateAbbrev>FL</stateAbbrev><state>Florida</state><fips>019</fips><incits>12019</incits><id>US.FL.019</id><population>196399</population></desc></path><path d="M112.929061785,110.125858124 L113.729977117,93.3066361556 L113.729977117,76.4874141876 L113.729977117,49.2562929062 L146.567505721,49.2562929062 L145.766590389,75.6864988558 L163.386727689,75.6864988558 L156.979405034,81.2929061785 L156.979405034,85.2974828375 L159.38215103,86.0983981693 L160.183066362,89.3020594966 L160.183066362,93.3066361556 L161.784897025,94.9084668192 L158.581235698,99.7139588101 L153.775743707,98.9130434783 L150.57208238,101.315789474 L149.771167048,104.519450801 L149.771167048,120.537757437 L132.151029748,114.130434783 L124.14187643,111.727688787 L112.929061785,110.125858124 Z" fill="#cee3f5" id="US.FL.131" stroke="#6e6e6e" stroke-width="0.4"><desc><name>Walton County</name><stateAbbrev>FL</stateAbbrev><state>Florida</state><fips>131</fips><incits>12131</incits><id>US.FL.131</id><population>59807</population></desc></path><path d="M266.704805492,112.528604119 L297.940503432,111.727688787 L309.153318078,111.727688787 L309.95423341,114.931350114 L325.171624714,114.931350114 L325.171624714,136.556064073 L321.967963387,137.356979405 L319.565217391,140.560640732 L315.560640732,141.361556064 L309.153318078,140.560640732 L308.352402746,142.162471396 L302.745995423,143.764302059 L292.33409611,142.162471396 L289.931350114,142.162471396 L289.130434783,139.7597254 L287.528604119,141.361556064 L285.125858124,140.560640732 L282.723112128,138.958810069 L278.718535469,137.356979405 L275.514874142,134.153318078 L274.71395881,134.153318078 L271.510297483,128.546910755 L271.510297483,124.542334096 L269.908466819,119.736842105 L267.505720824,116.533180778 L265.90389016,116.533180778 L265.102974828,113.329519451 L266.704805492,112.528604119 Z" fill="#cee3f5" id="US.FL.129" stroke="#6e6e6e" stroke-width="0.4"><desc><name>Wakulla County</name><stateAbbrev>FL</stateAbbrev><state>Florida</state><fips>129</fips><incits>12129</incits><id>US.FL.129</id><population>31022</population></desc></path><path d="M149.771167048,120.537757437 L149.771167048,104.519450801 L152.974828375,102.116704805 L156.178489703,102.116704805 L157.780320366,102.917620137 L160.183066362,102.116704805 L162.585812357,99.7139588101 L196.224256293,99.7139588101 L196.224256293,87.700228833 L201.029748284,87.700228833 L205.835240275,87.700228833 L205.034324943,101.315789474 L205.034324943,121.338672769 L205.034324943,139.7597254 L205.034324943,146.967963387 L200.228832952,148.56979405 L194.622425629,147.768878719 L191.418764302,146.167048055 L187.414187643,142.963386728 L182.608695652,138.157894737 L176.201372998,135.755148741 L170.594965675,132.551487414 L164.988558352,128.546910755 L154.576659039,122.139588101 L149.771167048,120.537757437 Z" fill="#cee3f5" id="US.FL.005" stroke="#6e6e6e" stroke-width="0.4"><desc><name>Bay County</name><stateAbbrev>FL</stateAbbrev><state>Florida</state><fips>005</fips><incits>12005</incits><id>US.FL.005</id><population>174987</population></desc></path><path d="M510.183066362,114.931350114 L531.006864989,96.5102974828 L533.409610984,94.1075514874 L535.812356979,93.3066361556 L537.414187643,90.9038901602 L540.61784897,87.700228833 L545.423340961,88.5011441648 L549.42791762,86.0983981693 L552.631578947,87.700228833 L553.432494279,90.9038901602 L555.835240275,90.1029748284 L557.437070938,91.704805492 L559.038901602,87.700228833 L561.441647597,88.5011441648 L562.242562929,90.9038901602 L567.04805492,93.3066361556 L573.455377574,94.1075514874 L574.256292906,98.9130434783 L576.659038902,101.315789474 L576.659038902,105.320366133 L575.85812357,106.922196796 L575.85812357,112.528604119 L576.659038902,116.533180778 L566.247139588,116.533180778 L567.04805492,130.148741419 L557.437070938,130.148741419 L557.437070938,128.546910755 L549.42791762,127.745995423 L547.025171625,128.546910755 L543.821510297,128.546910755 L543.020594966,126.945080092 L543.821510297,122.139588101 L518.993135011,122.940503432 L510.183066362,122.940503432 L510.183066362,114.931350114 Z" fill="#cee3f5" id="US.FL.031" stroke="#6e6e6e" stroke-width="0.4"><desc><name>Duval County</name><stateAbbrev>FL</stateAbbrev><state>Florida</state><fips>031</fips><incits>12031</incits><id>US.FL.031</id><population>885855</population></desc></path><path d="M573.455377574,94.1075514874 L567.04805492,93.3066361556 L562.242562929,90.9038901602 L561.441647597,88.5011441648 L559.038901602,87.700228833 L557.437070938,91.704805492 L555.835240275,90.1029748284 L553.432494279,90.9038901602 L552.631578947,87.700228833 L549.42791762,86.0983981693 L545.423340961,88.5011441648 L540.61784897,87.700228833 L537.414187643,90.9038901602 L535.812356979,93.3066361556 L533.409610984,94.1075514874 L531.006864989,96.5102974828 L510.183066362,114.931350114 L510.183066362,106.922196796 L511.784897025,106.121281465 L510.983981693,102.917620137 L511.784897025,99.7139588101 L513.386727689,96.5102974828 L513.386727689,90.9038901602 L514.187643021,86.8993135011 L510.983981693,82.0938215103 L510.183066362,78.0892448513 L511.784897025,74.885583524 L510.983981693,73.2837528604 L511.784897025,70.881006865 L514.187643021,70.0800915332 L514.187643021,67.6773455378 L516.590389016,68.4782608696 L519.794050343,64.4736842105 L529.405034325,67.6773455378 L532.608695652,67.6773455378 L538.215102975,70.0800915332 L540.61784897,71.6819221968 L543.020594966,71.6819221968 L551.029748284,74.0846681922 L551.029748284,73.2837528604 L555.835240275,74.0846681922 L562.242562929,73.2837528604 L563.844393593,74.885583524 L574.256292906,74.885583524 L573.455377574,78.0892448513 L571.853546911,78.8901601831 L571.853546911,82.0938215103 L571.853546911,90.9038901602 L573.455377574,94.1075514874 Z" fill="#cee3f5" id="US.FL.089" stroke="#6e6e6e" stroke-width="0.4"><desc><name>Nassau County</name><stateAbbrev>FL</stateAbbrev><state>Florida</state><fips>089</fips><incits>12089</incits><id>US.FL.089</id><population>75710</population></desc></path><path d="M401.258581236,208.638443936 L408.466819222,204.633867277 L410.869565217,201.43020595 L413.272311213,202.231121281 L414.874141876,200.629290618 L417.276887872,199.828375286 L418.077803204,196.624713959 L420.480549199,195.823798627 L421.281464531,191.819221968 L425.28604119,186.212814645 L425.28604119,182.208237986 L428.489702517,180.606407323 L429.290617849,177.402745995 L436.498855835,177.402745995 L436.498855835,177.402745995 L444.508009153,177.402745995 L446.109839817,179.805491991 L454.919908467,179.805491991 L454.919908467,182.208237986 L463.729977117,182.208237986 L463.729977117,187.013729977 L469.336384439,187.013729977 L478.146453089,187.013729977 L478.146453089,211.842105263 L466.132723112,211.842105263 L466.132723112,227.059496568 L458.924485126,230.263157895 L451.71624714,227.860411899 L447.711670481,230.263157895 L437.299771167,239.073226545 L436.498855835,236.670480549 L438.100686499,233.466819222 L437.299771167,229.462242563 L435.697940503,227.059496568 L434.09610984,227.059496568 L428.489702517,223.85583524 L425.28604119,224.656750572 L423.684210526,226.258581236 L416.47597254,227.059496568 L413.272311213,226.258581236 L410.068649886,224.656750572 L408.466819222,219.851258581 L407.66590389,214.244851259 L402.059496568,209.439359268 L401.258581236,208.638443936 Z" fill="#cee3f5" id="US.FL.075" stroke="#6e6e6e" stroke-width="0.4"><desc><name>Levy County</name><stateAbbrev>FL</stateAbbrev><state>Florida</state><fips>075</fips><incits>12075</incits><id>US.FL.075</id><population>39644</population></desc></path><path d="M474.942791762,418.47826087 L491.76201373,419.279176201 L491.76201373,411.270022883 L509.38215103,411.270022883 L516.590389016,410.469107551 L545.423340961,411.270022883 L555.034324943,410.469107551 L554.233409611,435.297482838 L536.613272311,435.297482838 L496.567505721,434.496567506 L490.961098398,432.894736842 L484.553775744,433.695652174 L483.752860412,432.09382151 L478.947368421,425.686498856 L474.942791762,418.47826087 Z" fill="#cee3f5" id="US.FL.015" stroke="#6e6e6e" stroke-width="0.4"><desc><name>Charlotte County</name><stateAbbrev>FL</stateAbbrev><state>Florida</state><fips>015</fips><incits>12015</incits><id>US.FL.015</id><population>164736</population></desc></path><path d="M478.146453089,187.013729977 L494.965675057,187.013729977 L495.766590389,191.819221968 L496.567505721,192.6201373 L501.372997712,192.6201373 L502.974828375,191.819221968 L506.979405034,191.819221968 L510.183066362,191.018306636 L510.183066362,187.814645309 L512.585812357,186.212814645 L518.19221968,185.411899314 L521.395881007,183.81006865 L522.99771167,184.610983982 L529.405034325,183.81006865 L529.405034325,187.013729977 L535.011441648,187.013729977 L535.812356979,191.819221968 L538.215102975,191.819221968 L538.215102975,197.425629291 L545.423340961,197.425629291 L546.224256293,199.828375286 L543.821510297,201.43020595 L547.826086957,206.235697941 L547.826086957,227.059496568 L546.224256293,227.059496568 L546.224256293,235.068649886 L518.993135011,235.068649886 L486.155606407,235.068649886 L483.752860412,232.66590389 L478.146453089,229.462242563 L476.544622426,230.263157895 L474.14187643,227.860411899 L470.137299771,226.258581236 L466.132723112,227.059496568 L466.132723112,211.842105263 L478.146453089,211.842105263 L478.146453089,187.013729977 Z" fill="#cee3f5" id="US.FL.083" stroke="#6e6e6e" stroke-width="0.4"><desc><name>Marion County</name><stateAbbrev>FL</stateAbbrev><state>Florida</state><fips>083</fips><incits>12083</incits><id>US.FL.083</id><population>337362</population></desc></path><path d="M484.553775744,433.695652174 L490.961098398,432.894736842 L496.567505721,434.496567506 L536.613272311,435.297482838 L554.233409611,435.297482838 L555.034324943,458.52402746 L555.034324943,466.533180778 L546.224256293,466.533180778 L546.224256293,476.14416476 L531.80778032,476.14416476 L531.80778032,475.343249428 L523.798627002,475.343249428 L520.594965675,471.338672769 L516.590389016,468.935926773 L514.187643021,468.935926773 L508.581235698,471.338672769 L504.576659039,470.537757437 L501.372997712,468.935926773 L498.970251716,465.732265446 L494.965675057,463.329519451 L493.363844394,461.727688787 L490.961098398,455.320366133 L489.359267735,452.917620137 L489.359267735,449.71395881 L485.354691076,444.908466819 L486.155606407,438.501144165 L485.354691076,435.297482838 L484.553775744,433.695652174 Z" fill="#cee3f5" id="US.FL.071" stroke="#6e6e6e" stroke-width="0.4"><desc><name>Lee County</name><stateAbbrev>FL</stateAbbrev><state>Florida</state><fips>071</fips><incits>12071</incits><id>US.FL.071</id><population>661115</population></desc></path><path d="M432.494279176,307.151029748 L455.720823799,306.350114416 L455.720823799,327.173913043 L460.526315789,328.775743707 L462.128146453,330.377574371 L462.929061785,333.581235698 L462.929061785,339.187643021 L465.33180778,342.391304348 L459.725400458,355.205949657 L450.915331808,355.205949657 L450.114416476,356.80778032 L447.711670481,358.409610984 L446.910755149,355.205949657 L440.503432494,355.205949657 L441.304347826,348.798627002 L434.897025172,341.590389016 L432.494279176,337.585812357 L431.693363844,332.780320366 L434.09610984,325.57208238 L434.09610984,321.567505721 L434.897025172,318.363844394 L433.295194508,315.160183066 L432.494279176,307.151029748 Z" fill="#cee3f5" id="US.FL.103" stroke="#6e6e6e" stroke-width="0.4"><desc><name>Pinellas County</name><stateAbbrev>FL</stateAbbrev><state>Florida</state><fips>103</fips><incits>12103</incits><id>US.FL.103</id><population>929048</population></desc></path><path d="M554.233409611,435.297482838 L555.034324943,410.469107551 L582.265446224,411.270022883 L581.464530892,403.260869565 L591.075514874,402.459954233 L591.075514874,394.450800915 L611.899313501,394.450800915 L614.302059497,396.853546911 L615.90389016,398.455377574 L618.306636156,400.057208238 L616.704805492,417.677345538 L611.098398169,435.297482838 L590.274599542,435.297482838 L554.233409611,435.297482838 Z" fill="#cee3f5" id="US.FL.043" stroke="#6e6e6e" stroke-width="0.4"><desc><name>Glades County</name><stateAbbrev>FL</stateAbbrev><state>Florida</state><fips>043</fips><incits>12043</incits><id>US.FL.043</id><population>13345</population></desc></path><path d="M400.457665904,115.732265446 L402.860411899,112.528604119 L404.462242563,111.727688787 L404.462242563,108.52402746 L406.064073227,107.723112128 L406.064073227,105.320366133 L407.66590389,104.519450801 L409.267734554,101.315789474 L412.471395881,100.514874142 L416.47597254,99.7139588101 L416.47597254,100.514874142 L422.883295195,100.514874142 L428.489702517,102.917620137 L428.489702517,102.917620137 L428.489702517,102.917620137 L428.489702517,102.917620137 L429.290617849,102.917620137 L429.290617849,102.917620137 L434.09610984,106.121281465 L436.498855835,106.922196796 L437.299771167,108.52402746 L442.105263158,109.324942792 L442.105263158,141.361556064 L445.308924485,141.361556064 L445.308924485,142.963386728 L442.90617849,143.764302059 L442.105263158,146.167048055 L438.901601831,147.768878719 L435.697940503,147.768878719 L434.897025172,150.171624714 L431.693363844,148.56979405 L430.091533181,143.764302059 L427.688787185,143.764302059 L426.887871854,140.560640732 L423.684210526,138.958810069 L422.082379863,136.556064073 L417.276887872,134.153318078 L417.276887872,132.551487414 L409.267734554,130.148741419 L406.864988558,130.949656751 L402.860411899,129.347826087 L400.457665904,121.338672769 L400.457665904,115.732265446 Z" fill="#cee3f5" id="US.FL.121" stroke="#6e6e6e" stroke-width="0.4"><desc><name>Suwannee County</name><stateAbbrev>FL</stateAbbrev><state>Florida</state><fips>121</fips><incits>12121</incits><id>US.FL.121</id><population>43734</population></desc></path><path d="M325.171624714,114.931350114 L325.171624714,99.7139588101 L328.375286041,97.3112128146 L328.375286041,91.704805492 L333.981693364,91.704805492 L331.578947368,84.4965675057 L331.578947368,78.0892448513 L367.6201373,80.4919908467 L368.421052632,81.2929061785 L368.421052632,86.8993135011 L365.217391304,89.3020594966 L362.013729977,89.3020594966 L358.81006865,90.9038901602 L356.407322654,93.3066361556 L357.208237986,94.9084668192 L357.208237986,99.7139588101 L354.805491991,102.917620137 L354.004576659,104.519450801 L351.601830664,104.519450801 L350.0,106.121281465 L350.800915332,109.324942792 L348.398169336,111.727688787 L346.796338673,114.130434783 L342.791762014,115.732265446 L339.588100686,117.33409611 L338.787185355,122.139588101 L336.384439359,122.940503432 L335.583524027,126.14416476 L333.180778032,130.949656751 L332.3798627,138.958810069 L328.375286041,136.556064073 L325.171624714,136.556064073 L325.171624714,114.931350114 Z" fill="#cee3f5" id="US.FL.065" stroke="#6e6e6e" stroke-width="0.4"><desc><name>Jefferson County</name><stateAbbrev>FL</stateAbbrev><state>Florida</state><fips>065</fips><incits>12065</incits><id>US.FL.065</id><population>14194</population></desc></path><path d="M442.105263158,146.167048055 L442.90617849,143.764302059 L445.308924485,142.963386728 L445.308924485,141.361556064 L442.105263158,141.361556064 L442.105263158,109.324942792 L442.90617849,110.125858124 L447.711670481,110.125858124 L449.313501144,110.125858124 L452.517162471,108.52402746 L455.720823799,102.917620137 L454.919908467,99.7139588101 L450.915331808,96.5102974828 L449.313501144,93.3066361556 L449.313501144,90.9038901602 L448.512585812,88.5011441648 L451.71624714,85.2974828375 L472.540045767,86.0983981693 L473.340961098,99.7139588101 L473.340961098,126.945080092 L473.340961098,130.148741419 L469.336384439,131.750572082 L466.132723112,134.95423341 L465.33180778,138.157894737 L462.929061785,138.958810069 L462.929061785,142.162471396 L466.132723112,143.764302059 L466.132723112,145.366132723 L462.128146453,147.768878719 L460.526315789,150.171624714 L460.526315789,152.574370709 L457.322654462,153.375286041 L454.919908467,154.977116705 L451.71624714,154.977116705 L447.711670481,152.574370709 L446.109839817,149.370709382 L442.105263158,146.167048055 Z" fill="#cee3f5" id="US.FL.023" stroke="#6e6e6e" stroke-width="0.4"><desc><name>Columbia County</name><stateAbbrev>FL</stateAbbrev><state>Florida</state><fips>023</fips><incits>12023</incits><id>US.FL.023</id><population>67543</population></desc></path><path d="M450.114416476,378.432494279 L491.76201373,378.432494279 L491.76201373,395.251716247 L509.38215103,395.251716247 L509.38215103,411.270022883 L491.76201373,411.270022883 L491.76201373,419.279176201 L474.942791762,418.47826087 L469.336384439,409.66819222 L466.933638444,403.260869565 L462.929061785,395.251716247 L459.725400458,392.04805492 L458.123569794,390.446224256 L457.322654462,387.242562929 L453.318077803,382.437070938 L450.114416476,378.432494279 Z" fill="#cee3f5" id="US.FL.115" stroke="#6e6e6e" stroke-width="0.4"><desc><name>Sarasota County</name><stateAbbrev>FL</stateAbbrev><state>Florida</state><fips>115</fips><incits>12115</incits><id>US.FL.115</id><population>390429</population></desc></path><path d="M472.540045767,86.0983981693 L494.965675057,87.700228833 L492.562929062,90.9038901602 L494.164759725,93.3066361556 L496.567505721,95.709382151 L495.766590389,100.514874142 L497.368421053,105.320366133 L498.970251716,106.922196796 L505.377574371,106.121281465 L506.178489703,106.922196796 L510.183066362,106.922196796 L510.183066362,114.931350114 L510.183066362,122.940503432 L510.183066362,126.945080092 L502.173913043,126.945080092 L482.151029748,126.945080092 L473.340961098,126.945080092 L473.340961098,99.7139588101 L472.540045767,86.0983981693 Z" fill="#cee3f5" id="US.FL.003" stroke="#6e6e6e" stroke-width="0.4"><desc><name>Baker County</name><stateAbbrev>FL</stateAbbrev><state>Florida</state><fips>003</fips><incits>12003</incits><id>US.FL.003</id><population>27013</population></desc></path><path d="M273.112128146,104.519450801 L274.71395881,102.116704805 L277.917620137,102.116704805 L280.320366133,100.514874142 L284.324942792,98.9130434783 L293.935926773,97.3112128146 L295.537757437,96.5102974828 L295.537757437,93.3066361556 L296.338672769,92.5057208238 L297.940503432,87.700228833 L301.945080092,85.2974828375 L305.148741419,81.2929061785 L304.347826087,78.0892448513 L305.949656751,77.2883295195 L331.578947368,78.0892448513 L331.578947368,84.4965675057 L333.981693364,91.704805492 L328.375286041,91.704805492 L328.375286041,97.3112128146 L325.171624714,99.7139588101 L325.171624714,114.931350114 L309.95423341,114.931350114 L309.153318078,111.727688787 L297.940503432,111.727688787 L266.704805492,112.528604119 L266.704805492,109.324942792 L269.107551487,107.723112128 L269.908466819,106.121281465 L273.112128146,104.519450801 Z" fill="#cee3f5" id="US.FL.073" stroke="#6e6e6e" stroke-width="0.4"><desc><name>Leon County</name><stateAbbrev>FL</stateAbbrev><state>Florida</state><fips>073</fips><incits>12073</incits><id>US.FL.073</id><population>281845</population></desc></path><path d="M43.2494279176,48.4553775744 L40.8466819222,50.8581235698 L36.0411899314,51.6590389016 L34.4393592677,54.8627002288 L32.0366132723,55.6636155606 L32.0366132723,58.8672768879 L29.6338672769,62.0709382151 L30.4347826087,63.6727688787 L29.6338672769,72.4828375286 L30.4347826087,74.0846681922 L33.6384439359,74.885583524 L33.6384439359,80.4919908467 L34.4393592677,83.6956521739 L36.8421052632,85.2974828375 L39.2448512586,89.3020594966 L42.4485125858,90.1029748284 L46.4530892449,94.1075514874 L45.652173913,98.1121281465 L45.652173913,101.315789474 L43.2494279176,102.917620137 L37.643020595,105.320366133 L36.8421052632,107.723112128 L41.647597254,109.324942792 L44.8512585812,107.723112128 L52.0594965675,106.922196796 L65.6750572082,104.519450801 L65.6750572082,110.926773455 L52.0594965675,112.528604119 L45.652173913,114.130434783 L34.4393592677,115.732265446 L31.2356979405,114.931350114 L21.6247139588,116.533180778 L12.0137299771,118.135011442 L10.4118993135,118.935926773 L10.4118993135,114.130434783 L12.8146453089,111.727688787 L12.0137299771,110.125858124 L16.0183066362,109.324942792 L19.2219679634,102.116704805 L21.6247139588,102.116704805 L24.0274599542,100.514874142 L24.0274599542,98.9130434783 L20.0228832952,98.1121281465 L18.4210526316,95.709382151 L16.819221968,93.3066361556 L18.4210526316,90.1029748284 L20.823798627,86.0983981693 L22.4256292906,82.0938215103 L20.823798627,78.0892448513 L9.61098398169,71.6819221968 L8.00915331808,68.4782608696 L0.800915331808,62.0709382151 L0.0,60.4691075515 L1.60183066362,58.8672768879 L4.00457665904,51.6590389016 L3.20366132723,48.4553775744 L29.6338672769,48.4553775744 L36.0411899314,48.4553775744 L43.2494279176,48.4553775744 Z" fill="#cee3f5" id="US.FL.033" stroke="#6e6e6e" stroke-width="0.4"><desc><name>Escambia County</name><stateAbbrev>FL</stateAbbrev><state>Florida</state><fips>033</fips><incits>12033</incits><id>US.FL.033</id><population>305817</population></desc></path><path d="M510.183066362,383.23798627 L510.183066362,355.205949657 L535.011441648,355.205949657 L555.034324943,355.205949657 L555.034324943,382.437070938 L527.803203661,383.23798627 L525.400457666,383.23798627 L524.599542334,383.23798627 L510.183066362,383.23798627 Z" fill="#cee3f5" id="US.FL.049" stroke="#6e6e6e" stroke-width="0.4"><desc><name>Hardee County</name><stateAbbrev>FL</stateAbbrev><state>Florida</state><fips>049</fips><incits>12049</incits><id>US.FL.049</id><population>27519</population></desc></path><path d="M454.919908467,154.977116705 L457.322654462,153.375286041 L460.526315789,152.574370709 L460.526315789,150.171624714 L462.128146453,147.768878719 L466.132723112,145.366132723 L470.938215103,145.366132723 L476.544622426,146.967963387 L478.947368421,150.171624714 L484.553775744,150.972540046 L489.359267735,154.176201373 L492.562929062,153.375286041 L497.368421053,153.375286041 L498.970251716,154.977116705 L502.974828375,154.977116705 L504.576659039,159.782608696 L507.780320366,159.782608696 L509.38215103,162.986270023 L510.183066362,165.389016018 L510.183066362,187.814645309 L510.183066362,191.018306636 L506.979405034,191.819221968 L502.974828375,191.819221968 L501.372997712,192.6201373 L496.567505721,192.6201373 L495.766590389,191.819221968 L494.965675057,187.013729977 L478.146453089,187.013729977 L469.336384439,187.013729977 L463.729977117,187.013729977 L463.729977117,182.208237986 L454.919908467,182.208237986 L454.919908467,179.805491991 L454.919908467,154.977116705 Z" fill="#cee3f5" id="US.FL.001" stroke="#6e6e6e" stroke-width="0.4"><desc><name>Alachua County</name><stateAbbrev>FL</stateAbbrev><state>Florida</state><fips>001</fips><incits>12001</incits><id>US.FL.001</id><population>253451</population></desc></path><path d="M437.299771167,239.073226545 L447.711670481,230.263157895 L451.71624714,227.860411899 L458.924485126,230.263157895 L466.132723112,227.059496568 L470.137299771,226.258581236 L474.14187643,227.860411899 L476.544622426,230.263157895 L478.146453089,229.462242563 L483.752860412,232.66590389 L486.155606407,235.068649886 L487.757437071,235.869565217 L489.359267735,239.874141876 L492.562929062,242.276887872 L493.363844394,243.878718535 L498.169336384,247.082379863 L498.970251716,250.28604119 L497.368421053,253.489702517 L495.766590389,253.489702517 L493.363844394,255.091533181 L490.961098398,261.498855835 L476.544622426,261.498855835 L476.544622426,259.09610984 L443.707093822,259.09610984 L442.90617849,254.290617849 L440.503432494,250.28604119 L440.503432494,248.684210526 L442.105263158,243.878718535 L441.304347826,241.47597254 L437.299771167,239.073226545 Z" fill="#cee3f5" id="US.FL.017" stroke="#6e6e6e" stroke-width="0.4"><desc><name>Citrus County</name><stateAbbrev>FL</stateAbbrev><state>Florida</state><fips>017</fips><incits>12017</incits><id>US.FL.017</id><population>139271</population></desc></path><path d="M430.892448513,155.778032037 L433.295194508,155.778032037 L434.897025172,151.773455378 L434.897025172,150.171624714 L435.697940503,147.768878719 L438.901601831,147.768878719 L442.105263158,146.167048055 L446.109839817,149.370709382 L447.711670481,152.574370709 L451.71624714,154.977116705 L454.919908467,154.977116705 L454.919908467,179.805491991 L446.109839817,179.805491991 L444.508009153,177.402745995 L436.498855835,177.402745995 L436.498855835,177.402745995 L429.290617849,177.402745995 L427.688787185,177.402745995 L426.086956522,175.800915332 L427.688787185,172.597254005 L427.688787185,166.990846682 L429.290617849,162.986270023 L428.489702517,162.185354691 L429.290617849,157.3798627 L430.892448513,155.778032037 Z" fill="#cee3f5" id="US.FL.041" stroke="#6e6e6e" stroke-width="0.4"><desc><name>Gilchrist County</name><stateAbbrev>FL</stateAbbrev><state>Florida</state><fips>041</fips><incits>12041</incits><id>US.FL.041</id><population>16931</population></desc></path><path d="M395.652173913,82.0938215103 L417.276887872,82.8947368421 L451.71624714,85.2974828375 L448.512585812,88.5011441648 L449.313501144,90.9038901602 L449.313501144,93.3066361556 L450.915331808,96.5102974828 L454.919908467,99.7139588101 L455.720823799,102.917620137 L452.517162471,108.52402746 L449.313501144,110.125858124 L447.711670481,110.125858124 L442.90617849,110.125858124 L442.105263158,109.324942792 L437.299771167,108.52402746 L436.498855835,106.922196796 L434.09610984,106.121281465 L429.290617849,102.917620137 L429.290617849,102.917620137 L428.489702517,102.917620137 L428.489702517,102.917620137 L428.489702517,102.917620137 L428.489702517,102.917620137 L422.883295195,100.514874142 L416.47597254,100.514874142 L416.47597254,99.7139588101 L412.471395881,100.514874142 L409.267734554,101.315789474 L407.66590389,104.519450801 L406.864988558,102.116704805 L403.661327231,101.315789474 L402.860411899,97.3112128146 L401.258581236,96.5102974828 L402.059496568,92.5057208238 L399.656750572,86.8993135011 L398.85583524,82.0938215103 L395.652173913,82.0938215103 Z" fill="#cee3f5" id="US.FL.047" stroke="#6e6e6e" stroke-width="0.4"><desc><name>Hamilton County</name><stateAbbrev>FL</stateAbbrev><state>Florida</state><fips>047</fips><incits>12047</incits><id>US.FL.047</id><population>14354</population></desc></path><path d="M205.034324943,121.338672769 L205.034324943,101.315789474 L205.835240275,87.700228833 L225.057208238,88.5011441648 L225.057208238,84.4965675057 L246.681922197,84.4965675057 L245.881006865,86.8993135011 L242.677345538,89.3020594966 L241.075514874,92.5057208238 L241.876430206,97.3112128146 L237.871853547,101.315789474 L239.473684211,104.519450801 L237.070938215,106.121281465 L235.469107551,112.528604119 L235.469107551,115.732265446 L230.663615561,121.338672769 L205.034324943,121.338672769 Z" fill="#cee3f5" id="US.FL.013" stroke="#6e6e6e" stroke-width="0.4"><desc><name>Calhoun County</name><stateAbbrev>FL</stateAbbrev><state>Florida</state><fips>013</fips><incits>12013</incits><id>US.FL.013</id><population>14682</population></desc></path><path d="M554.233409611,435.297482838 L590.274599542,435.297482838 L611.098398169,435.297482838 L616.704805492,417.677345538 L616.704805492,444.107551487 L617.505720824,473.741418764 L617.505720824,474.542334096 L617.505720824,481.750572082 L581.464530892,482.551487414 L581.464530892,457.723112128 L555.034324943,458.52402746 L554.233409611,435.297482838 Z" fill="#cee3f5" id="US.FL.051" stroke="#6e6e6e" stroke-width="0.4"><desc><name>Hendry County</name><stateAbbrev>FL</stateAbbrev><state>Florida</state><fips>051</fips><incits>12051</incits><id>US.FL.051</id><population>37471</population></desc></path><path d="M473.340961098,126.945080092 L482.151029748,126.945080092 L502.173913043,126.945080092 L501.372997712,129.347826087 L499.771167048,130.949656751 L498.970251716,132.551487414 L494.164759725,136.556064073 L490.961098398,137.356979405 L490.160183066,139.7597254 L486.155606407,143.764302059 L483.752860412,142.963386728 L482.95194508,145.366132723 L479.748283753,146.167048055 L476.544622426,146.967963387 L470.938215103,145.366132723 L466.132723112,145.366132723 L466.132723112,143.764302059 L462.929061785,142.162471396 L462.929061785,138.958810069 L465.33180778,138.157894737 L466.132723112,134.95423341 L469.336384439,131.750572082 L473.340961098,130.148741419 L473.340961098,126.945080092 Z" fill="#cee3f5" id="US.FL.125" stroke="#6e6e6e" stroke-width="0.4"><desc><name>Union County</name><stateAbbrev>FL</stateAbbrev><state>Florida</state><fips>125</fips><incits>12125</incits><id>US.FL.125</id><population>15136</population></desc></path><path d="M554.233409611,523.398169336 L599.885583524,523.398169336 L617.505720824,523.398169336 L617.505720824,563.443935927 L619.107551487,563.443935927 L619.107551487,574.656750572 L619.107551487,580.263157895 L622.311212815,581.864988558 L627.917620137,581.864988558 L630.320366133,583.466819222 L631.922196796,581.864988558 L635.926773455,581.064073227 L638.329519451,581.864988558 L638.329519451,579.462242563 L644.736842105,577.860411899 L658.352402746,575.457665904 L663.157894737,570.652173913 L663.958810069,568.249427918 L673.56979405,564.244851259 L674.370709382,565.846681922 L683.981693364,568.249427918 L680.778032037,569.851258581 L677.574370709,569.851258581 L675.171624714,573.054919908 L676.773455378,576.258581236 L675.171624714,580.263157895 L670.366132723,583.466819222 L667.162471396,587.471395881 L664.7597254,589.874141876 L662.356979405,591.47597254 L659.95423341,595.480549199 L657.551487414,597.082379863 L655.949656751,600.28604119 L655.148741419,601.086956522 L650.343249428,601.887871854 L648.741418764,604.290617849 L643.935926773,606.693363844 L640.732265446,609.897025172 L638.329519451,612.299771167 L635.926773455,612.299771167 L629.519450801,616.304347826 L626.315789474,618.707093822 L623.112128146,618.707093822 L619.908466819,619.508009153 L615.90389016,622.711670481 L613.501144165,622.711670481 L606.292906178,626.71624714 L603.890160183,627.517162471 L602.288329519,629.919908467 L599.084668192,629.919908467 L595.080091533,629.919908467 L592.677345538,629.118993135 L589.473684211,630.720823799 L587.871853547,630.720823799 L581.464530892,633.924485126 L579.862700229,633.924485126 L571.052631579,636.327231121 L567.848970252,636.327231121 L563.043478261,637.128146453 L559.038901602,636.327231121 L558.23798627,637.929061785 L559.038901602,641.132723112 L556.636155606,643.535469108 L552.631578947,645.137299771 L550.228832952,646.739130435 L541.418764302,649.14187643 L538.215102975,648.340961098 L536.613272311,646.739130435 L534.210526316,647.540045767 L531.80778032,649.942791762 L527.00228833,651.544622426 L519.794050343,651.544622426 L516.590389016,648.340961098 L517.391304348,645.137299771 L512.585812357,644.336384439 L510.183066362,642.734553776 L508.581235698,640.33180778 L505.377574371,642.734553776 L498.970251716,642.734553776 L495.766590389,640.33180778 L494.965675057,638.729977117 L494.965675057,634.725400458 L499.771167048,630.720823799 L502.173913043,629.919908467 L507.780320366,629.919908467 L512.585812357,632.322654462 L515.789473684,629.919908467 L520.594965675,628.318077803 L524.599542334,627.517162471 L527.00228833,627.517162471 L532.608695652,624.313501144 L539.816933638,621.910755149 L551.029748284,614.702517162 L556.636155606,613.100686499 L558.23798627,611.498855835 L564.645308924,609.09610984 L569.450800915,607.494279176 L572.654462243,608.295194508 L577.459954233,608.295194508 L579.862700229,609.09610984 L583.066361556,607.494279176 L587.871853547,609.09610984 L589.473684211,610.697940503 L591.876430206,611.498855835 L594.279176201,614.702517162 L597.482837529,613.901601831 L600.686498856,615.503432494 L609.496567506,613.100686499 L612.700228833,609.897025172 L608.695652174,609.09610984 L607.09382151,605.091533181 L604.691075515,602.688787185 L601.487414188,599.485125858 L599.084668192,593.878718535 L597.482837529,590.675057208 L595.080091533,589.874141876 L592.677345538,586.670480549 L589.473684211,585.068649886 L588.672768879,581.064073227 L586.270022883,579.462242563 L584.66819222,575.457665904 L588.672768879,564.244851259 L587.871853547,562.643020595 L587.871853547,559.439359268 L586.270022883,556.235697941 L582.265446224,553.032036613 L581.464530892,547.425629291 L576.659038902,542.6201373 L574.256292906,538.615560641 L571.853546911,537.814645309 L569.450800915,536.212814645 L565.446224256,529.004576659 L561.441647597,528.203661327 L558.23798627,525.0 L554.233409611,523.398169336 M424.485125858,631.52173913 L424.485125858,629.919908467 L426.887871854,626.71624714 L429.290617849,625.915331808 L432.494279176,622.711670481 L435.697940503,621.910755149 L442.105263158,621.910755149 L444.508009153,624.313501144 L444.508009153,626.71624714 L441.304347826,633.123569794 L437.299771167,635.526315789 L432.494279176,634.725400458 L427.688787185,634.725400458 L425.28604119,633.924485126 L424.485125858,631.52173913 Z" fill="#cee3f5" id="US.FL.087" stroke="#6e6e6e" stroke-width="0.4"><desc><name>Monroe County</name><stateAbbrev>FL</stateAbbrev><state>Florida</state><fips>087</fips><incits>12087</incits><id>US.FL.087</id><population>76351</population></desc></path><path d="M593.47826087,355.205949657 L617.505720824,355.205949657 L626.315789474,355.205949657 L626.315789474,363.215102975 L635.926773455,363.215102975 L635.926773455,395.251716247 L635.926773455,402.459954233 L629.519450801,408.066361556 L616.704805492,417.677345538 L618.306636156,400.057208238 L615.90389016,398.455377574 L614.302059497,396.853546911 L611.899313501,394.450800915 L608.695652174,394.450800915 L606.292906178,389.645308924 L606.292906178,387.242562929 L603.890160183,385.640732265 L601.487414188,380.835240275 L599.885583524,379.233409611 L595.881006865,378.432494279 L593.47826087,376.029748284 L593.47826087,374.42791762 L590.274599542,370.423340961 L587.871853547,368.821510297 L587.871853547,367.219679634 L587.070938215,365.61784897 L593.47826087,359.210526316 L593.47826087,355.205949657 Z" fill="#cee3f5" id="US.FL.093" stroke="#6e6e6e" stroke-width="0.4"><desc><name>Okeechobee County</name><stateAbbrev>FL</stateAbbrev><state>Florida</state><fips>093</fips><incits>12093</incits><id>US.FL.093</id><population>39330</population></desc></path><path d="M616.704805492,417.677345538 L639.931350114,417.677345538 L665.560640732,417.677345538 L684.782608696,417.677345538 L684.782608696,416.876430206 L695.995423341,416.876430206 L700.0,432.09382151 L699.199084668,436.899313501 L700.0,440.90389016 L699.199084668,445.709382151 L699.199084668,450.514874142 L696.796338673,465.732265446 L695.995423341,476.14416476 L689.588100686,476.14416476 L687.986270023,475.343249428 L679.176201373,475.343249428 L676.773455378,474.542334096 L652.745995423,474.542334096 L617.505720824,474.542334096 L617.505720824,473.741418764 L616.704805492,444.107551487 L616.704805492,417.677345538 Z" fill="#cee3f5" id="US.FL.099" stroke="#6e6e6e" stroke-width="0.4"><desc><name>Palm Beach County</name><stateAbbrev>FL</stateAbbrev><state>Florida</state><fips>099</fips><incits>12099</incits><id>US.FL.099</id><population>1372171</population></desc></path><path d="M558.23798627,174.199084668 L576.659038902,174.199084668 L579.061784897,171.796338673 L580.663615561,171.796338673 L585.469107551,170.194508009 L592.677345538,170.194508009 L595.080091533,176.601830664 L598.28375286,183.009153318 L602.288329519,191.819221968 L595.881006865,191.819221968 L591.876430206,193.421052632 L592.677345538,207.036613272 L567.848970252,207.036613272 L567.848970252,195.022883295 L567.04805492,195.022883295 L563.043478261,195.022883295 L561.441647597,189.416475973 L559.038901602,185.411899314 L558.23798627,179.805491991 L558.23798627,178.203661327 L558.23798627,174.199084668 Z" fill="#cee3f5" id="US.FL.035" stroke="#6e6e6e" stroke-width="0.4"><desc><name>Flagler County</name><stateAbbrev>FL</stateAbbrev><state>Florida</state><fips>035</fips><incits>12035</incits><id>US.FL.035</id><population>99956</population></desc></path><path d="M146.567505721,49.2562929062 L160.983981693,49.2562929062 L195.423340961,48.4553775744 L192.219679634,50.8581235698 L192.219679634,54.061784897 L190.61784897,54.8627002288 L188.215102975,58.0663615561 L186.613272311,61.2700228833 L185.812356979,63.6727688787 L185.812356979,66.8764302059 L184.210526316,69.2791762014 L184.210526316,71.6819221968 L173.798627002,71.6819221968 L173.798627002,69.2791762014 L172.196796339,67.6773455378 L165.789473684,67.6773455378 L164.988558352,70.881006865 L165.789473684,72.4828375286 L163.386727689,75.6864988558 L145.766590389,75.6864988558 L146.567505721,49.2562929062 Z" fill="#cee3f5" id="US.FL.059" stroke="#6e6e6e" stroke-width="0.4"><desc><name>Holmes County</name><stateAbbrev>FL</stateAbbrev><state>Florida</state><fips>059</fips><incits>12059</incits><id>US.FL.059</id><population>19717</population></desc></path><path d="M163.386727689,75.6864988558 L165.789473684,72.4828375286 L164.988558352,70.881006865 L165.789473684,67.6773455378 L172.196796339,67.6773455378 L173.798627002,69.2791762014 L173.798627002,71.6819221968 L184.210526316,71.6819221968 L184.210526316,69.2791762014 L185.812356979,66.8764302059 L185.812356979,63.6727688787 L197.025171625,63.6727688787 L197.025171625,67.6773455378 L201.029748284,67.6773455378 L201.029748284,87.700228833 L196.224256293,87.700228833 L196.224256293,99.7139588101 L162.585812357,99.7139588101 L160.183066362,102.116704805 L157.780320366,102.917620137 L156.178489703,102.116704805 L152.974828375,102.116704805 L149.771167048,104.519450801 L150.57208238,101.315789474 L153.775743707,98.9130434783 L158.581235698,99.7139588101 L161.784897025,94.9084668192 L160.183066362,93.3066361556 L160.183066362,89.3020594966 L159.38215103,86.0983981693 L156.979405034,85.2974828375 L156.979405034,81.2929061785 L163.386727689,75.6864988558 Z" fill="#cee3f5" id="US.FL.133" stroke="#6e6e6e" stroke-width="0.4"><desc><name>Washington County</name><stateAbbrev>FL</stateAbbrev><state>Florida</state><fips>133</fips><incits>12133</incits><id>US.FL.133</id><population>24624</population></desc></path><path d="M486.155606407,235.068649886 L518.993135011,235.068649886 L518.993135011,269.508009153 L518.993135011,291.132723112 L518.993135011,294.336384439 L512.585812357,292.734553776 L510.183066362,294.336384439 L510.183066362,279.118993135 L510.183066362,275.114416476 L506.178489703,275.114416476 L502.173913043,271.109839817 L495.766590389,270.308924485 L490.160183066,262.299771167 L490.961098398,261.498855835 L493.363844394,255.091533181 L495.766590389,253.489702517 L497.368421053,253.489702517 L498.970251716,250.28604119 L498.169336384,247.082379863 L493.363844394,243.878718535 L492.562929062,242.276887872 L489.359267735,239.874141876 L487.757437071,235.869565217 L486.155606407,235.068649886 Z" fill="#cee3f5" id="US.FL.119" stroke="#6e6e6e" stroke-width="0.4"><desc><name>Sumter County</name><stateAbbrev>FL</stateAbbrev><state>Florida</state><fips>119</fips><incits>12119</incits><id>US.FL.119</id><population>107056</population></desc></path><path d="M510.183066362,294.336384439 L512.585812357,292.734553776 L518.993135011,294.336384439 L518.993135011,291.132723112 L527.803203661,291.132723112 L527.803203661,289.530892449 L534.210526316,289.530892449 L534.210526316,291.132723112 L546.224256293,291.132723112 L546.224256293,299.14187643 L555.034324943,299.14187643 L558.23798627,303.947368421 L558.23798627,309.553775744 L564.645308924,309.553775744 L564.645308924,315.160183066 L574.256292906,315.160183066 L573.455377574,315.961098398 L573.455377574,319.164759725 L571.853546911,319.965675057 L566.247139588,319.164759725 L567.848970252,322.368421053 L570.251716247,322.368421053 L571.853546911,324.771167048 L575.85812357,327.173913043 L575.057208238,328.775743707 L578.260869565,329.576659039 L577.459954233,331.979405034 L579.061784897,335.183066362 L585.469107551,336.784897025 L587.070938215,339.187643021 L588.672768879,341.590389016 L591.075514874,346.395881007 L591.075514874,347.99771167 L592.677345538,348.798627002 L593.47826087,355.205949657 L583.867276888,355.205949657 L559.839816934,355.205949657 L559.038901602,355.205949657 L555.034324943,355.205949657 L535.011441648,355.205949657 L510.183066362,355.205949657 L510.183066362,335.183066362 L510.183066362,307.151029748 L505.377574371,307.151029748 L505.377574371,299.14187643 L510.183066362,299.14187643 L510.183066362,294.336384439 Z" fill="#cee3f5" id="US.FL.105" stroke="#6e6e6e" stroke-width="0.4"><desc><name>Polk County</name><stateAbbrev>FL</stateAbbrev><state>Florida</state><fips>105</fips><incits>12105</incits><id>US.FL.105</id><population>623009</population></desc></path></svg>