<?xml version='1.0' encoding='utf-8'?>
<svg height="700" width="700" xmlns="http://www.w3.org/2000/svg"><path d="M538.781575037,310.475482912 L549.182763744,303.194650817 L561.664190193,302.154531947 L566.864784547,313.595839525 L575.185735513,319.836552749 L571.02526003,330.237741456 L576.225854383,339.598811293 L586.627043091,351.040118871 L600.14858841,358.320950966 L610.549777117,351.040118871 L615.750371471,341.679049034 L635.512630015,346.879643388 L640.713224368,340.638930163 L638.632986627,329.197622585 L651.114413076,331.277860327 L661.515601783,340.638930163 L662.555720654,351.040118871 L658.395245171,366.641901932 L649.034175334,370.802377415 L638.632986627,385.364041605 L634.472511144,402.005943536 L641.753343239,424.888558692 L634.472511144,438.410104012 L621.991084695,450.891530461 L612.630014859,451.931649331 L606.389301634,461.292719168 L591.827637444,464.41307578 L580.386329866,449.85141159 L576.225854383,439.450222883 L578.306092125,429.049034175 L569.985141159,417.607726597 L559.583952452,416.567607727 L568.945022288,405.126300149 L561.664190193,393.684992571 L566.864784547,385.364041605 L559.583952452,352.080237741 L541.901931649,344.799405646 L543.982169391,331.277860327 L550.222882615,317.756315007 L538.781575037,310.475482912 Z" fill="#cee3f5" id="CN.guangxi.2044154" stroke="#6e6e6e" stroke-width="0.4"><desc><admin_leve>5</admin_leve><localname>梧州市 / Wuzhou</localname><boundary>administrative</boundary><id>CN.guangxi.2044154</id><name>Wuzhou City</name></desc></path><path d="M407.726597325,544.502228826 L415.007429421,536.18127786 L436.849925706,535.14115899 L444.130757801,529.940564636 L458.692421991,532.020802377 L472.213967311,528.900445765 L480.534918276,529.940564636 L480.534918276,551.783060921 L486.775631501,552.823179792 L486.775631501,567.384843982 L475.334323923,561.144130758 L457.65230312,571.545319465 L446.210995542,572.585438336 L432.689450223,578.82615156 L427.488855869,560.104011887 L412.927191679,559.063893016 L402.526002972,550.742942051 L407.726597325,544.502228826 Z" fill="#cee3f5" id="CN.guangxi.2100680" stroke="#6e6e6e" stroke-width="0.4"><desc><name>Beihai City</name><admin_leve>5</admin_leve><wikipedia>en:Beihai</wikipedia><localname>北海市</localname><boundary>administrative</boundary><id>CN.guangxi.2100680</id></desc></path><path d="M199.70282318,438.410104012 L212.184249629,425.928677563 L210.104011887,411.367013373 L224.665676077,402.005943536 L236.106983655,403.046062407 L257.949479941,395.765230312 L265.230312036,406.166419019 L261.069836553,416.567607727 L276.671619614,431.129271917 L282.912332838,441.530460624 L290.193164933,433.209509658 L318.276374443,442.570579495 L325.557206538,451.931649331 L326.597325409,460.252600297 L321.396731055,475.854383358 L331.797919762,478.97473997 L332.838038633,487.295690936 L322.436849926,490.416047548 L314.11589896,501.857355126 L289.153046062,503.937592868 L292.273402675,513.298662704 L280.832095097,532.020802377 L281.872213967,546.582466568 L275.631500743,553.863298663 L264.190193165,552.823179792 L257.949479941,545.542347697 L248.588410104,547.622585438 L232.986627043,538.261515602 L236.106983655,528.900445765 L203.863298663,519.539375929 L198.662704309,490.416047548 L189.301634473,489.375928678 L189.301634473,478.97473997 L194.502228826,465.453194651 L204.903417533,467.533432392 L214.26448737,449.85141159 L199.70282318,438.410104012 Z" fill="#cee3f5" id="CN.guangxi.2127478" stroke="#6e6e6e" stroke-width="0.4"><desc><name>Chongzuo City</name><admin_leve>5</admin_leve><wikipedia>en:Chongzuo</wikipedia><localname>崇左市 / Chongzuo</localname><boundary>administrative</boundary><id>CN.guangxi.2127478</id></desc></path><path d="M561.664190193,302.154531947 L563.744427935,299.034175334 L591.827637444,310.475482912 L605.349182764,289.673105498 L600.14858841,283.432392273 L603.268945022,273.031203566 L616.790490342,263.67013373 L616.790490342,252.228826152 L609.509658247,249.108469539 L610.549777117,239.747399703 L626.151560178,229.346210996 L640.713224368,238.707280832 L645.913818722,261.589895988 L641.753343239,270.950965825 L654.234769688,276.151560178 L665.676077266,263.67013373 L688.558692422,264.7102526 L687.518573551,277.191679049 L694.799405646,284.472511144 L692.719167905,292.79346211 L700.0,302.154531947 L695.839524517,308.395245171 L682.317979198,314.635958395 L687.518573551,338.558692422 L677.117384844,345.839524517 L676.077265973,353.120356612 L662.555720654,351.040118871 L661.515601783,340.638930163 L651.114413076,331.277860327 L638.632986627,329.197622585 L640.713224368,340.638930163 L635.512630015,346.879643388 L615.750371471,341.679049034 L610.549777117,351.040118871 L600.14858841,358.320950966 L586.627043091,351.040118871 L576.225854383,339.598811293 L571.02526003,330.237741456 L575.185735513,319.836552749 L566.864784547,313.595839525 L561.664190193,302.154531947 Z" fill="#cee3f5" id="CN.guangxi.2773741" stroke="#6e6e6e" stroke-width="0.4"><desc><admin_leve>5</admin_leve><localname>贺州市 / Hezhou</localname><boundary>administrative</boundary><id>CN.guangxi.2773741</id><name>Hezhou City</name></desc></path><path d="M191.381872214,234.546805349 L205.943536404,243.907875186 L216.344725111,255.349182764 L210.104011887,262.630014859 L213.224368499,273.031203566 L210.104011887,287.592867756 L223.625557207,311.515601783 L220.505200594,323.997028232 L230.906389302,332.317979198 L263.150074294,342.719167905 L270.430906389,351.040118871 L304.754829123,357.280832095 L295.393759287,372.882615156 L298.514115899,385.364041605 L310.995542348,390.564635958 L295.393759287,403.046062407 L283.952451709,400.965824666 L280.832095097,409.286775632 L265.230312036,406.166419019 L257.949479941,395.765230312 L236.106983655,403.046062407 L224.665676077,402.005943536 L210.104011887,411.367013373 L212.184249629,425.928677563 L199.70282318,438.410104012 L186.18127786,433.209509658 L178.900445765,439.450222883 L163.298662704,440.490341753 L157.05794948,430.089153046 L138.335809807,429.049034175 L125.854383358,435.2897474 L117.533432392,426.968796434 L97.7711738484,420.72808321 L93.6106983655,406.166419019 L120.653789004,381.203566122 L144.576523031,382.243684993 L154.977711738,352.080237741 L142.49628529,327.117384844 L131.054977712,323.997028232 L126.894502229,332.317979198 L115.453194651,329.197622585 L105.052005944,332.317979198 L102.971768202,323.997028232 L82.1693907875,331.277860327 L66.5676077266,319.836552749 L63.4472511144,305.274888559 L48.8855869242,294.873699851 L39.5245170877,297.994056464 L30.1634472511,294.873699851 L10.4011887073,296.953937593 L0.0,285.512630015 L0.0,267.830609212 L10.4011887073,274.071322437 L30.1634472511,273.031203566 L32.2436849926,267.830609212 L47.8454680535,262.630014859 L48.8855869242,254.309063893 L61.367013373,243.907875186 L69.6879643388,249.108469539 L86.3298662704,250.14858841 L90.4903417533,260.549777117 L99.8514115899,260.549777117 L121.693907875,269.910846954 L142.49628529,271.991084695 L153.937592868,264.7102526 L154.977711738,247.028231798 L166.419019316,244.947994056 L191.381872214,234.546805349 Z" fill="#cee3f5" id="CN.guangxi.2773986" stroke="#6e6e6e" stroke-width="0.4"><desc><admin_leve>5</admin_leve><localname>百色市</localname><boundary>administrative</boundary><id>CN.guangxi.2773986</id><name>Baise City</name></desc></path><path d="M275.631500743,553.863298663 L281.872213967,546.582466568 L280.832095097,532.020802377 L292.273402675,513.298662704 L289.153046062,503.937592868 L314.11589896,501.857355126 L322.436849926,490.416047548 L332.838038633,487.295690936 L349.479940565,500.817236256 L340.118870728,508.098068351 L341.158989599,521.61961367 L350.520059435,529.940564636 L358.841010401,527.860326895 L367.161961367,536.18127786 L376.523031204,550.742942051 L367.161961367,562.184249629 L361.961367013,552.823179792 L340.118870728,559.063893016 L336.998514116,565.304606241 L319.316493314,564.26448737 L312.035661218,553.863298663 L292.273402675,558.023774146 L275.631500743,553.863298663 Z" fill="#cee3f5" id="CN.guangxi.2774214" stroke="#6e6e6e" stroke-width="0.4"><desc><admin_leve>5</admin_leve><localname>防城港市 / Fangchenggang</localname><boundary>administrative</boundary><id>CN.guangxi.2774214</id><name>Fangchenggang City</name></desc></path><path d="M191.381872214,234.546805349 L201.783060921,226.225854383 L221.545319465,224.145616642 L231.946508172,216.864784547 L228.82615156,207.50371471 L236.106983655,190.861812779 L251.708766716,190.861812779 L269.390787519,206.46359584 L270.430906389,215.824665676 L277.711738484,223.105497771 L287.072808321,217.904903418 L305.794947994,230.386329866 L335.958395245,221.02526003 L336.998514116,206.46359584 L352.600297177,193.982169391 L368.202080238,200.222882615 L380.683506686,214.784546805 L382.763744428,222.0653789 L395.245170877,230.386329866 L410.846953938,231.426448737 L420.208023774,224.145616642 L425.408618128,233.506686478 L415.007429421,250.14858841 L428.52897474,252.228826152 L409.806835067,268.870728083 L412.927191679,274.071322437 L402.526002972,282.392273403 L415.007429421,301.114413076 L407.726597325,311.515601783 L392.124814264,301.114413076 L384.843982169,321.91679049 L378.603268945,331.277860327 L367.161961367,334.398216939 L357.80089153,334.398216939 L348.439821694,354.160475483 L343.23922734,348.959881129 L324.517087667,356.240713224 L323.476968796,367.682020802 L310.995542348,374.962852897 L295.393759287,372.882615156 L304.754829123,357.280832095 L270.430906389,351.040118871 L263.150074294,342.719167905 L230.906389302,332.317979198 L220.505200594,323.997028232 L223.625557207,311.515601783 L210.104011887,287.592867756 L213.224368499,273.031203566 L210.104011887,262.630014859 L216.344725111,255.349182764 L205.943536404,243.907875186 L191.381872214,234.546805349 Z" fill="#cee3f5" id="CN.guangxi.2774389" stroke="#6e6e6e" stroke-width="0.4"><desc><admin_leve>5</admin_leve><localname>河池市 / Hechi</localname><boundary>administrative</boundary><id>CN.guangxi.2774389</id><name>Hechi City</name></desc></path><path d="M486.775631501,161.738484398 L482.615156018,167.979197623 L490.936106984,181.500742942 L484.695393759,188.781575037 L488.855869242,196.062407132 L485.73551263,215.824665676 L475.334323923,231.426448737 L474.294205052,258.469539376 L497.176820208,259.509658247 L510.698365527,274.071322437 L523.179791976,278.23179792 L519.019316493,293.833580981 L512.778603269,295.913818722 L512.778603269,310.475482912 L500.29717682,307.3551263 L472.213967311,322.956909361 L460.772659733,332.317979198 L455.572065379,343.759286776 L449.331352155,343.759286776 L442.050520059,331.277860327 L435.809806835,334.398216939 L412.927191679,323.997028232 L407.726597325,311.515601783 L415.007429421,301.114413076 L402.526002972,282.392273403 L412.927191679,274.071322437 L409.806835067,268.870728083 L428.52897474,252.228826152 L415.007429421,250.14858841 L425.408618128,233.506686478 L420.208023774,224.145616642 L410.846953938,231.426448737 L395.245170877,230.386329866 L382.763744428,222.0653789 L380.683506686,214.784546805 L378.603268945,205.423476969 L386.924219911,184.621099554 L399.40564636,191.901931649 L410.846953938,190.861812779 L430.609212481,172.139673105 L443.09063893,176.300148588 L447.251114413,164.85884101 L458.692421991,150.29717682 L470.133729569,148.216939079 L483.655274889,151.337295691 L486.775631501,161.738484398 Z" fill="#cee3f5" id="CN.guangxi.2774469" stroke="#6e6e6e" stroke-width="0.4"><desc><name>Liuzhou City</name><admin_leve>5</admin_leve><wikipedia>en:Liuzhou</wikipedia><localname>柳州市 / Liuzhou</localname><boundary>administrative</boundary><id>CN.guangxi.2774469</id></desc></path><path d="M265.230312036,406.166419019 L280.832095097,409.286775632 L283.952451709,400.965824666 L295.393759287,403.046062407 L310.995542348,390.564635958 L298.514115899,385.364041605 L295.393759287,372.882615156 L310.995542348,374.962852897 L323.476968796,367.682020802 L324.517087667,356.240713224 L343.23922734,348.959881129 L348.439821694,354.160475483 L357.80089153,334.398216939 L367.161961367,334.398216939 L361.961367013,352.080237741 L372.362555721,365.601783061 L376.523031204,360.401188707 L391.084695394,354.160475483 L402.526002972,385.364041605 L411.887072808,395.765230312 L425.408618128,400.965824666 L435.809806835,400.965824666 L446.210995542,419.687964339 L447.251114413,429.049034175 L472.213967311,458.172362556 L450.371471025,462.332838039 L438.930163447,474.814264487 L401.485884101,470.653789004 L374.442793462,483.135215453 L373.402674591,494.576523031 L349.479940565,500.817236256 L332.838038633,487.295690936 L331.797919762,478.97473997 L321.396731055,475.854383358 L326.597325409,460.252600297 L325.557206538,451.931649331 L318.276374443,442.570579495 L290.193164933,433.209509658 L282.912332838,441.530460624 L276.671619614,431.129271917 L261.069836553,416.567607727 L265.230312036,406.166419019 Z" fill="#cee3f5" id="CN.guangxi.2775778" stroke="#6e6e6e" stroke-width="0.4"><desc><admin_leve>5</admin_leve><localname>南宁市 / Nanning</localname><boundary>administrative</boundary><id>CN.guangxi.2775778</id><name>Nanning City</name></desc></path><path d="M367.161961367,334.398216939 L378.603268945,331.277860327 L384.843982169,321.91679049 L392.124814264,301.114413076 L407.726597325,311.515601783 L412.927191679,323.997028232 L435.809806835,334.398216939 L442.050520059,331.277860327 L449.331352155,343.759286776 L455.572065379,343.759286776 L460.772659733,332.317979198 L472.213967311,322.956909361 L500.29717682,307.3551263 L512.778603269,310.475482912 L512.778603269,295.913818722 L519.019316493,293.833580981 L526.300148588,295.913818722 L538.781575037,310.475482912 L550.222882615,317.756315007 L543.982169391,331.277860327 L537.741456166,333.358098068 L532.540861813,345.839524517 L522.139673105,346.879643388 L508.618127786,356.240713224 L502.377414562,364.56166419 L498.216939079,383.283803863 L489.895988113,383.283803863 L469.093610698,395.765230312 L445.170876672,390.564635958 L435.809806835,400.965824666 L425.408618128,400.965824666 L411.887072808,395.765230312 L402.526002972,385.364041605 L391.084695394,354.160475483 L376.523031204,360.401188707 L372.362555721,365.601783061 L361.961367013,352.080237741 L367.161961367,334.398216939 Z" fill="#cee3f5" id="CN.guangxi.2775865" stroke="#6e6e6e" stroke-width="0.4"><desc><admin_leve>5</admin_leve><localname>来宾市 / Laibin</localname><boundary>administrative</boundary><id>CN.guangxi.2775865</id><name>Laibin City</name></desc></path><path d="M435.809806835,400.965824666 L445.170876672,390.564635958 L469.093610698,395.765230312 L489.895988113,383.283803863 L498.216939079,383.283803863 L502.377414562,364.56166419 L508.618127786,356.240713224 L522.139673105,346.879643388 L532.540861813,345.839524517 L537.741456166,333.358098068 L543.982169391,331.277860327 L541.901931649,344.799405646 L559.583952452,352.080237741 L566.864784547,385.364041605 L561.664190193,393.684992571 L568.945022288,405.126300149 L559.583952452,416.567607727 L554.383358098,422.808320951 L539.821693908,422.808320951 L528.38038633,437.369985141 L519.019316493,438.410104012 L503.417533432,425.928677563 L485.73551263,443.610698366 L482.615156018,456.092124814 L477.414561664,460.252600297 L472.213967311,458.172362556 L447.251114413,429.049034175 L446.210995542,419.687964339 L435.809806835,400.965824666 Z" fill="#cee3f5" id="CN.guangxi.2776275" stroke="#6e6e6e" stroke-width="0.4"><desc><admin_leve>5</admin_leve><localname>贵港市 / Guigang</localname><boundary>administrative</boundary><id>CN.guangxi.2776275</id><name>Guigang City</name></desc></path><path d="M349.479940565,500.817236256 L373.402674591,494.576523031 L374.442793462,483.135215453 L401.485884101,470.653789004 L438.930163447,474.814264487 L450.371471025,462.332838039 L472.213967311,458.172362556 L477.414561664,460.252600297 L491.976225854,478.97473997 L471.17384844,494.576523031 L468.053491828,506.017830609 L472.213967311,528.900445765 L458.692421991,532.020802377 L444.130757801,529.940564636 L436.849925706,535.14115899 L415.007429421,536.18127786 L407.726597325,544.502228826 L401.485884101,546.582466568 L402.526002972,553.863298663 L391.084695394,556.983655275 L377.563150074,547.622585438 L379.643387816,537.221396731 L367.161961367,536.18127786 L358.841010401,527.860326895 L350.520059435,529.940564636 L341.158989599,521.61961367 L340.118870728,508.098068351 L349.479940565,500.817236256 Z" fill="#cee3f5" id="CN.guangxi.2776297" stroke="#6e6e6e" stroke-width="0.4"><desc><admin_leve>5</admin_leve><localname>钦州市 / Qinzhou</localname><boundary>administrative</boundary><id>CN.guangxi.2776297</id><name>Qinzhou City</name></desc></path><path d="M477.414561664,460.252600297 L482.615156018,456.092124814 L485.73551263,443.610698366 L503.417533432,425.928677563 L519.019316493,438.410104012 L528.38038633,437.369985141 L539.821693908,422.808320951 L554.383358098,422.808320951 L559.583952452,416.567607727 L569.985141159,417.607726597 L578.306092125,429.049034175 L576.225854383,439.450222883 L580.386329866,449.85141159 L591.827637444,464.41307578 L580.386329866,467.533432392 L575.185735513,480.014858841 L580.386329866,491.456166419 L555.423476969,508.098068351 L547.102526003,501.857355126 L541.901931649,512.258543834 L545.022288262,530.980683507 L520.059435364,529.940564636 L503.417533432,536.18127786 L500.29717682,552.823179792 L486.775631501,552.823179792 L480.534918276,551.783060921 L480.534918276,529.940564636 L472.213967311,528.900445765 L468.053491828,506.017830609 L471.17384844,494.576523031 L491.976225854,478.97473997 L477.414561664,460.252600297 Z" fill="#cee3f5" id="CN.guangxi.2776309" stroke="#6e6e6e" stroke-width="0.4"><desc><admin_leve>5</admin_leve><localname>玉林市 / Yulin</localname><boundary>administrative</boundary><id>CN.guangxi.2776309</id><name>Yulin City</name></desc></path><path d="M486.775631501,161.738484398 L488.855869242,150.29717682 L497.176820208,147.176820208 L505.497771174,132.615156018 L519.019316493,137.815750371 L514.85884101,146.136701337 L531.500742942,147.176820208 L539.821693908,152.377414562 L543.982169391,140.936106984 L572.0653789,121.17384844 L578.306092125,126.374442793 L609.509658247,121.17384844 L620.950965825,121.17384844 L628.23179792,129.494799406 L619.910846954,154.457652303 L641.753343239,161.738484398 L641.753343239,171.099554235 L630.312035661,177.340267459 L631.352154532,197.102526003 L623.031203566,207.50371471 L610.549777117,216.864784547 L601.188707281,228.306092125 L597.028231798,239.747399703 L601.188707281,250.14858841 L609.509658247,249.108469539 L616.790490342,252.228826152 L616.790490342,263.67013373 L603.268945022,273.031203566 L600.14858841,283.432392273 L605.349182764,289.673105498 L591.827637444,310.475482912 L563.744427935,299.034175334 L561.664190193,302.154531947 L549.182763744,303.194650817 L538.781575037,310.475482912 L526.300148588,295.913818722 L519.019316493,293.833580981 L523.179791976,278.23179792 L510.698365527,274.071322437 L497.176820208,259.509658247 L474.294205052,258.469539376 L475.334323923,231.426448737 L485.73551263,215.824665676 L488.855869242,196.062407132 L484.695393759,188.781575037 L490.936106984,181.500742942 L482.615156018,167.979197623 L486.775631501,161.738484398 Z" fill="#cee3f5" id="CN.guangxi.3471982" stroke="#6e6e6e" stroke-width="0.4"><desc><name>Guilin City</name><admin_leve>5</admin_leve><wikipedia>en:Guilin</wikipedia><localname>桂林中心广场</localname><boundary>administrative</boundary><id>CN.guangxi.3471982</id></desc></path></svg>