<?xml version='1.0' encoding='utf-8'?>
<svg height="700" width="700" xmlns="http://www.w3.org/2000/svg"><path d="M178.673856588,527.441306533 L181.077707217,539.643917496 L173.345696106,548.500448737 L172.298993352,556.230746756 L180.219824766,560.266089814 L189.137278055,580.809107347 L200.681039092,580.562863448 L208.603649443,592.045474512 L219.646154727,594.226737804 L220.528141725,603.514432472 L224.048027872,607.039711797 L219.886314283,622.930026052 L202.531529696,620.446171349 L182.953032156,626.384155694 L142.37137045,628.056976904 L140.009057605,611.544535067 L135.38856459,607.066030696 L106.852646131,600.90166287 L108.386801754,579.688795189 L120.792719016,574.188452559 L118.139255526,556.271954428 L121.81559753,553.850835295 L125.686719734,528.880469483 L134.397647286,518.714091526 L156.940189438,504.568017169 L162.789617902,496.131256264 L165.803129426,500.812589678 L170.97379725,501.015913344 L178.673856588,527.441306533 Z" fill="#cee3f5" id="MK.RE" stroke="#6e6e6e" stroke-width="0.4"><desc><labelrank>10</labelrank><code_hasc>MK.RE</code_hasc><name>Resen</name><admin>Macedonia</admin><type_en>Statistical Region</type_en><region>Southwestern</region><woe_id>24550855</woe_id><longitude>21</longitude><woe_name>Resen Municipality</woe_name><fips>MK86</fips><woe_label>Resen Municipality, MK, Macedonia</woe_label><latitude>41</latitude><iso_a2>MK</iso_a2><postal>RE</postal><type>Statistical Region</type><id>MK.RE</id></desc></path><path d="M18.039873452,496.397596481 L13.3867617168,481.773079708 L33.3425966082,480.686326468 L48.210658674,483.544007973 L49.4021142271,486.138386037 L40.6527685877,492.472695089 L18.039873452,496.397596481 Z" fill="#cee3f5" id="MK.VV" stroke="#6e6e6e" stroke-width="0.4"><desc><labelrank>10</labelrank><code_hasc>MK.VV</code_hasc><name>Vevčani</name><admin>Macedonia</admin><type_en>Statistical Region</type_en><region>Southwestern</region><woe_id>24550867</woe_id><longitude>20</longitude><woe_name>Vevcani</woe_name><fips>MK99</fips><woe_label>Vevcani Municipality, MK, Macedonia</woe_label><latitude>41</latitude><iso_a2>MK</iso_a2><postal>VV</postal><type>Statistical Region</type><id>MK.VV</id></desc></path><path d="M238.260723781,496.579755033 L240.716432286,500.050070446 L239.263590062,514.536791726 L251.218527212,525.228987231 L252.225759672,541.680774115 L257.931589197,544.872227253 L270.385986114,542.387950908 L268.051751629,554.059584996 L272.736902103,562.809861878 L273.648009021,574.004657764 L279.611878061,575.49712646 L291.013018127,590.564021342 L291.613590421,608.910672477 L263.766115466,606.248848277 L242.936687503,621.738414345 L219.886314283,622.930026052 L224.048027872,607.039711797 L220.528141725,603.514432472 L219.646154727,594.226737804 L208.603649443,592.045474512 L200.681039092,580.562863448 L189.137278055,580.809107347 L180.219824766,560.266089814 L172.298993352,556.230746756 L173.345696106,548.500448737 L181.077707217,539.643917496 L178.673856588,527.441306533 L211.741370998,512.232858114 L231.632116577,493.499605604 L238.260723781,496.579755033 Z" fill="#cee3f5" id="MK.TL" stroke="#6e6e6e" stroke-width="0.4"><desc><labelrank>10</labelrank><code_hasc>MK.TL</code_hasc><name>Bitola</name><admin>Macedonia</admin><type_en>Statistical Region</type_en><region>Pelagonia</region><woe_id>24550747</woe_id><longitude>21</longitude><woe_name>Bitola</woe_name><fips>MK06</fips><woe_label>Bitola Municipality, MK, Macedonia</woe_label><latitude>41</latitude><iso_a2>MK</iso_a2><postal>TL</postal><type>Statistical Region</type><id>MK.TL</id></desc></path><path d="M190.098406142,433.146427675 L198.54997174,438.011883836 L198.560143877,443.2026985 L210.038196082,443.177438452 L212.154216866,461.819635611 L219.693906918,460.078526655 L225.722460114,465.232628199 L232.52288961,479.729806391 L231.632116577,493.499605604 L211.741370998,512.232858114 L178.673856588,527.441306533 L170.97379725,501.015913344 L165.803129426,500.812589678 L162.789617902,496.131256264 L160.629208546,491.383416167 L150.095188188,469.86038037 L140.111683834,462.56036319 L139.775060158,455.253622634 L154.093448703,444.433104388 L175.406681927,444.27119243 L184.774556067,434.583737875 L190.098406142,433.146427675 Z" fill="#cee3f5" id="MK.DM" stroke="#6e6e6e" stroke-width="0.4"><desc><labelrank>10</labelrank><code_hasc>MK.DM</code_hasc><name>Demir Hisar</name><admin>Macedonia</admin><type_en>Statistical Region</type_en><region>Southwestern</region><woe_id>24550759</woe_id><longitude>21</longitude><woe_name>Demir Hisar Municipality</woe_name><fips>MK24</fips><woe_label /><latitude>41</latitude><iso_a2>MK</iso_a2><postal>DM</postal><type>Statistical Region</type><id>MK.DM</id></desc></path><path d="M160.629208546,491.383416167 L162.789617902,496.131256264 L156.940189438,504.568017169 L134.397647286,518.714091526 L125.686719734,528.880469483 L121.81559753,553.850835295 L118.139255526,556.271954428 L120.792719016,574.188452559 L108.386801754,579.688795189 L106.852646131,600.90166287 L87.3793035204,611.837299629 L73.9023187547,604.707658784 L59.4407503775,551.547383392 L91.0138903969,506.935750898 L95.7924746375,505.00094274 L95.4403409229,497.703050133 L104.670309189,484.341972307 L126.504433532,482.184241304 L143.590639922,490.471383789 L160.629208546,491.383416167 Z" fill="#cee3f5" id="MK.OD" stroke="#6e6e6e" stroke-width="0.4"><desc><labelrank>10</labelrank><code_hasc>MK.OD</code_hasc><name>Ohrid</name><admin>Macedonia</admin><type_en>Statistical Region</type_en><region>Southwestern</region><woe_id>24550834</woe_id><longitude>20</longitude><woe_name>Ohrid</woe_name><fips>MK74</fips><woe_label>Ohrid Municipality, MK, Macedonia</woe_label><latitude>41</latitude><iso_a2>MK</iso_a2><postal>OD</postal><type>Statistical Region</type><id>MK.OD</id></desc></path><path d="M139.775060158,455.253622634 L140.111683834,462.56036319 L150.095188188,469.86038037 L160.629208546,491.383416167 L143.590639922,490.471383789 L126.504433532,482.184241304 L104.670309189,484.341972307 L95.4403409229,497.703050133 L95.7924746375,505.00094274 L91.0138903969,506.935750898 L59.4407503775,551.547383392 L56.6455245083,545.668779001 L80.8002796409,510.941620832 L78.0044657198,495.953422908 L83.1686763397,487.938255975 L86.1335544973,473.352308912 L78.6571256958,459.215645705 L77.6058553311,441.693282093 L66.3225282856,419.293002981 L96.735298746,417.173414395 L121.446666419,419.644259788 L128.586078022,443.744639483 L133.714575394,445.451187609 L139.775060158,455.253622634 Z" fill="#cee3f5" id="MK.3086" stroke="#6e6e6e" stroke-width="0.4"><desc><labelrank>10</labelrank><code_hasc>MK.</code_hasc><name>Debarca</name><admin>Macedonia</admin><type_en>Statistical Region</type_en><region>Southwestern</region><woe_id>24550746</woe_id><longitude>20</longitude><woe_name>Debarca</woe_name><fips>MK00</fips><woe_label>Debarca Municipality, MK, Macedonia</woe_label><latitude>41</latitude><iso_a2>MK</iso_a2><postal /><type>Statistical Region</type><id>MK.3086</id></desc></path><path d="M372.86287471,229.385940907 L370.354306839,240.451645552 L361.060109006,247.553246835 L352.392580326,249.698466373 L352.621259372,263.230659874 L348.368599429,279.359001014 L338.787652352,274.490374726 L333.488042112,280.588923489 L332.96763979,275.175667141 L322.74503121,274.217972547 L325.276846138,251.345139146 L311.443641443,247.01398994 L306.718938364,246.622579354 L307.499834257,241.491662386 L310.42673187,238.001499932 L321.157900671,229.997564592 L335.165134446,232.478060175 L333.726808023,224.551300833 L338.447858097,214.459684262 L351.979677115,224.523923085 L364.426298174,222.128136392 L372.86287471,229.385940907 Z" fill="#cee3f5" id="MK.PE" stroke="#6e6e6e" stroke-width="0.4"><desc><labelrank>10</labelrank><code_hasc>MK.PE</code_hasc><name>Skopje</name><admin>Macedonia</admin><type_en>Statistical Region</type_en><region /><woe_id>24550796</woe_id><longitude>21</longitude><woe_name>Skopje</woe_name><fips>MK79</fips><woe_label>Petrovec Municipality, MK, Macedonia</woe_label><latitude>41</latitude><iso_a2>MK</iso_a2><postal>PE</postal><type>Statistical Region</type><id>MK.PE</id></desc></path><path d="M205.444715899,417.026989182 L188.557359962,425.82335272 L179.234900331,421.359712376 L176.312727431,415.758251651 L171.473252355,417.229712257 L166.406382821,418.201923672 L162.917498381,403.844217196 L172.819936356,403.376783861 L191.485113701,398.32193797 L194.2746472,408.050100545 L204.558377542,413.088773092 L205.444715899,417.026989182 Z" fill="#cee3f5" id="MK.PN" stroke="#6e6e6e" stroke-width="0.4"><desc><labelrank>10</labelrank><code_hasc>MK.PN</code_hasc><name>Plasnica</name><admin>Macedonia</admin><type_en>Statistical Region</type_en><region /><woe_id>24550797</woe_id><longitude>21</longitude><woe_name>Plasnica Municipality</woe_name><fips>MK80</fips><woe_label /><latitude>41</latitude><iso_a2>MK</iso_a2><postal>PN</postal><type>Statistical Region</type><id>MK.PN</id></desc></path><path d="M363.401894331,411.687065229 L369.518750991,421.224469582 L375.642451737,415.947928822 L375.080251046,431.442712908 L379.348873793,442.311620161 L377.747175796,467.700352287 L380.485566214,475.132021032 L394.569869997,475.735891935 L390.133473986,494.815342137 L395.40734343,502.219973154 L396.2331785,521.895066666 L405.295619406,523.663054318 L406.740474951,533.047864886 L400.10631542,538.933368927 L398.856548783,548.434830129 L389.75103017,545.057214477 L382.532844399,537.444375989 L380.56404304,539.880088572 L370.453617305,539.09026482 L362.765679324,532.143595258 L329.329725967,523.424080976 L321.158420675,514.04171668 L316.825104716,516.375883118 L299.517580136,508.166472072 L287.907490366,510.557956602 L280.71156471,504.33491049 L273.005927273,503.303129598 L263.714038231,491.001386762 L253.420269027,487.831282838 L252.124144114,483.454661098 L257.713995446,482.800508002 L265.651900551,474.535768403 L269.346046996,458.239913465 L262.589928145,456.842878762 L260.007705362,450.234454775 L264.463809141,445.323801075 L276.507846208,434.054281958 L300.395268314,430.164814722 L309.64458823,423.842022613 L311.737761352,415.063285943 L317.005184251,411.265497546 L322.613220306,411.771242455 L326.70285333,417.459292668 L331.82309532,416.884972103 L336.416858996,403.260290846 L349.7165197,399.927228308 L363.401894331,411.687065229 Z" fill="#cee3f5" id="MK.PP" stroke="#6e6e6e" stroke-width="0.4"><desc><labelrank>10</labelrank><code_hasc>MK.PP</code_hasc><name>Prilep</name><admin>Macedonia</admin><type_en>Statistical Region</type_en><region>Pelagonia</region><woe_id>24550799</woe_id><longitude>21</longitude><woe_name>Prilep</woe_name><fips>MK82</fips><woe_label>Prilep Municipality, MK, Macedonia</woe_label><latitude>41</latitude><iso_a2>MK</iso_a2><postal>PP</postal><type>Statistical Region</type><id>MK.PP</id></desc></path><path d="M514.753920858,196.959400758 L512.568251457,206.174913238 L493.347267529,225.636454134 L489.258082521,226.457994239 L484.71937881,239.100075778 L475.100828307,246.741786903 L485.212072834,261.810091292 L474.295671663,263.778662711 L469.610475562,256.477592315 L464.122138692,258.291765065 L450.867898199,255.59623036 L447.233872294,250.666593767 L449.464464722,242.577132935 L427.449056273,220.564600756 L430.214026667,207.579418266 L440.751585438,210.903009572 L444.785488214,201.352133398 L467.534075378,194.657727639 L472.855556946,200.153577252 L481.744074893,197.762041573 L488.127000303,202.627975216 L490.833907211,188.13953467 L505.136639639,188.133197555 L514.753920858,196.959400758 Z" fill="#cee3f5" id="MK.PT" stroke="#6e6e6e" stroke-width="0.4"><desc><labelrank>10</labelrank><code_hasc>MK.PT</code_hasc><name>Probistip</name><admin>Macedonia</admin><type_en>Statistical Region</type_en><region>Northeastern</region><woe_id>24550800</woe_id><longitude>22</longitude><woe_name>Probistip</woe_name><fips>MK83</fips><woe_label>Probistip Municipality, MK, Macedonia</woe_label><latitude>41</latitude><iso_a2>MK</iso_a2><postal>PT</postal><type>Statistical Region</type><id>MK.PT</id></desc></path><path d="M593.918448163,304.460259243 L595.228932652,315.64047781 L600.668513918,319.864914614 L595.336921647,330.343061124 L596.84148932,338.273754434 L587.956332116,340.21804307 L582.940322435,350.000247415 L590.78491632,366.300155648 L589.577199635,377.395337629 L585.830493183,379.712821153 L571.733613298,369.412376228 L562.113628947,377.022498256 L563.355795847,385.034606822 L548.923128311,381.226897284 L552.30280213,373.728973447 L539.794940243,359.225318143 L525.229561474,358.256236203 L513.53137129,352.568786497 L508.945117298,348.123567249 L505.284253043,328.105275026 L511.441405297,322.998226765 L525.638988548,327.103967188 L534.062852204,310.750938474 L538.538013344,294.883097286 L546.029213289,289.640799258 L556.054272895,295.970604469 L565.867138028,294.755181972 L570.563084077,289.478759524 L585.967554283,302.877609395 L593.918448163,304.460259243 Z" fill="#cee3f5" id="MK.RV" stroke="#6e6e6e" stroke-width="0.4"><desc><labelrank>10</labelrank><code_hasc>MK.RV</code_hasc><name>Radovis</name><admin>Macedonia</admin><type_en>Statistical Region</type_en><region>Eastern</region><woe_id>24550865</woe_id><longitude>22</longitude><woe_name>Radovis</woe_name><fips>MK84</fips><woe_label>Radovis Municipality, MK, Macedonia</woe_label><latitude>41</latitude><iso_a2>MK</iso_a2><postal>RV</postal><type>Statistical Region</type><id>MK.RV</id></desc></path><path d="M560.152783619,151.488788593 L536.077319669,169.870481735 L517.026745995,172.031833858 L499.534451714,162.423277903 L486.228407578,166.325647803 L479.306548756,166.217586365 L478.087661359,163.224560099 L474.331788342,109.901508345 L460.660136607,99.8167884072 L459.420834208,91.0853709268 L485.005426938,79.8904133381 L494.461046044,71.9430230959 L496.796102546,82.501025007 L505.208115671,90.3509105744 L515.349132005,92.3378064756 L542.598449206,127.942862652 L552.967773329,135.451427673 L560.152783619,151.488788593 Z" fill="#cee3f5" id="MK.KZ" stroke="#6e6e6e" stroke-width="0.4"><desc><labelrank>10</labelrank><code_hasc>MK.KZ</code_hasc><name>Kriva Palanka</name><admin>Macedonia</admin><type_en>Statistical Region</type_en><region>Northeastern</region><woe_id>24550831</woe_id><longitude>22</longitude><woe_name>Kriva Palanka</woe_name><fips>MK85</fips><woe_label>Kriva Palanka Municipality, MK, Macedonia</woe_label><latitude>42</latitude><iso_a2>MK</iso_a2><postal>KZ</postal><type>Statistical Region</type><id>MK.KZ</id></desc></path><path d="M420.824979548,370.643989981 L421.142928536,388.642118028 L419.159764054,403.374347011 L411.832212151,411.290297545 L401.540583025,407.102806314 L397.825846948,414.609153294 L380.559403048,414.969976106 L373.681363214,406.06317863 L375.300031035,394.649386749 L385.056281814,388.620821337 L384.813827955,378.362422327 L398.732860066,382.133684665 L404.55550274,374.049597743 L413.397483097,376.191841025 L414.046140976,370.96473557 L420.824979548,370.643989981 Z" fill="#cee3f5" id="MK.RM" stroke="#6e6e6e" stroke-width="0.4"><desc><labelrank>10</labelrank><code_hasc>MK.RM</code_hasc><name>Vardar</name><admin>Macedonia</admin><type_en>Statistical Region</type_en><region /><woe_id>24550801</woe_id><longitude>21</longitude><woe_name>Vardar</woe_name><fips>MK87</fips><woe_label>Rosoman Municipality, MK, Macedonia</woe_label><latitude>41</latitude><iso_a2>MK</iso_a2><postal>RM</postal><type>Statistical Region</type><id>MK.RM</id></desc></path><path d="M218.584879487,174.199838391 L219.930704489,190.363845061 L229.094347311,188.943274745 L242.481160732,214.015357892 L249.360016684,214.617696474 L249.752475382,227.867440974 L238.058815069,232.493708496 L211.035144841,253.747645761 L200.981168241,245.532527284 L203.73824277,221.535358468 L189.546441029,212.966719126 L200.563860408,207.200017505 L197.818694747,195.270946776 L203.276755879,190.557119548 L202.169303325,184.098418716 L196.930560392,185.576321144 L192.549410508,180.891385315 L210.474878885,176.432781213 L214.123539786,171.425868153 L218.584879487,174.199838391 Z" fill="#cee3f5" id="MK.AJ" stroke="#6e6e6e" stroke-width="0.4"><desc><labelrank>10</labelrank><code_hasc>MK.AJ</code_hasc><name>Saraj</name><admin>Macedonia</admin><type_en>Municipality</type_en><region>Greater Skopje</region><woe_id>24550803</woe_id><longitude>21</longitude><woe_name>Saraj</woe_name><fips>MK90</fips><woe_label>Skopje, Saraj Municipality, Macedonia</woe_label><latitude>41</latitude><iso_a2>MK</iso_a2><postal>AJ</postal><type>Municipality</type><id>MK.AJ</id></desc></path><path d="M268.405058604,228.882026775 L272.45386769,229.764303476 L273.582325515,236.106725287 L271.628988827,249.640956971 L249.638643317,247.627286928 L243.524283193,250.94371302 L244.764805908,258.932765411 L255.322416892,261.709839082 L249.714382765,265.730938401 L246.621088654,279.859934775 L242.744299231,281.756195735 L247.339542838,290.408891521 L244.278313842,299.609314687 L246.425267478,308.111777556 L240.31318883,308.897334931 L235.026813827,304.2144451 L215.621417066,275.751565815 L217.495474012,261.658446934 L211.035144841,253.747645761 L238.058815069,232.493708496 L249.752475382,227.867440974 L268.405058604,228.882026775 Z" fill="#cee3f5" id="MK.SS" stroke="#6e6e6e" stroke-width="0.4"><desc><labelrank>10</labelrank><code_hasc>MK.SS</code_hasc><name>Sopiste</name><admin>Macedonia</admin><type_en>Statistical Region</type_en><region>Skopje</region><woe_id>24550804</woe_id><longitude>21</longitude><woe_name>Sopiste</woe_name><fips>MK92</fips><woe_label>Sopiste Municipality, MK, Macedonia</woe_label><latitude>41</latitude><iso_a2>MK</iso_a2><postal>SS</postal><type>Statistical Region</type><id>MK.SS</id></desc></path><path d="M434.451627574,97.4842616222 L436.310223292,114.616662193 L428.266572606,119.831720463 L435.523680918,146.166731623 L429.193201691,148.115429798 L420.327767687,148.822072753 L417.955743423,166.514519582 L415.285744408,170.683775278 L408.4123917,172.435184697 L403.344787533,162.501441102 L396.777936143,169.240722451 L382.831635197,164.220094824 L369.115814161,171.162616262 L364.793278671,170.318594841 L357.793058607,161.314756389 L356.482971658,152.513193256 L356.978188334,132.615521482 L363.123494009,128.647251557 L363.527089422,123.865337648 L346.520278396,113.491486329 L372.777429453,97.1684939164 L390.912860444,95.3975627962 L402.874340708,85.9483619346 L434.451627574,97.4842616222 Z" fill="#cee3f5" id="MK.NA" stroke="#6e6e6e" stroke-width="0.4"><desc><labelrank>10</labelrank><code_hasc>MK.NA</code_hasc><name>Northeastern</name><admin>Macedonia</admin><type_en>Statistical Region</type_en><region /><woe_id>24550856</woe_id><longitude>21</longitude><woe_name>Northeastern</woe_name><fips>MK97</fips><woe_label>Staro Nagoricane Municipality, MK, Macedonia</woe_label><latitude>42</latitude><iso_a2>MK</iso_a2><postal>NA</postal><type>Statistical Region</type><id>MK.NA</id></desc></path><path d="M464.122138692,258.291765065 L457.596785089,266.909519894 L462.816855966,287.082933687 L475.337677369,288.296165012 L487.77075767,299.004543751 L493.164999256,299.848522113 L506.011145623,312.686344795 L528.761834449,308.964623686 L534.062852204,310.750938474 L525.638988548,327.103967188 L511.441405297,322.998226765 L505.284253043,328.105275026 L508.945117298,348.123567249 L513.53137129,352.568786497 L496.571850768,372.905183845 L484.465696165,372.326222529 L472.269354146,365.035872323 L471.262222029,357.43069767 L457.23710566,356.280782863 L449.378599626,337.870668828 L441.733259574,344.982676031 L436.392993103,337.579683401 L427.882421972,333.805883834 L414.297866519,330.142641735 L407.528136743,319.852397127 L408.492642923,315.214399809 L413.888239046,308.58978142 L422.346573508,313.714000961 L428.416677885,304.886618422 L432.921677302,309.253818378 L437.231065442,308.985511928 L433.3211731,290.870099196 L439.148351926,288.325653194 L450.314436216,273.93590283 L446.612663302,261.604392675 L450.867898199,255.59623036 L464.122138692,258.291765065 Z" fill="#cee3f5" id="MK.ST" stroke="#6e6e6e" stroke-width="0.4"><desc><labelrank>10</labelrank><code_hasc>MK.ST</code_hasc><name>Štip</name><admin>Macedonia</admin><type_en>Statistical Region</type_en><region>Eastern</region><woe_id>24550807</woe_id><longitude>22</longitude><woe_name>Štip</woe_name><fips>MK98</fips><woe_label>Stip Municipality, MK, Macedonia</woe_label><latitude>41</latitude><iso_a2>MK</iso_a2><postal>ST</postal><type>Statistical Region</type><id>MK.ST</id></desc></path><path d="M307.499834257,241.491662386 L306.718938364,246.622579354 L311.443641443,247.01398994 L297.981162411,256.17785503 L290.447498636,275.522398037 L286.394273875,275.376751131 L285.04358167,270.446982313 L280.780346542,272.869058815 L279.408670103,284.510171627 L284.838959098,293.89406196 L283.644736785,301.904134576 L273.1045506,306.691419366 L261.96132129,322.037923007 L259.861892387,331.527271498 L254.017930035,323.907609798 L253.96406142,311.503441257 L246.425267478,308.111777556 L244.278313842,299.609314687 L247.339542838,290.408891521 L242.744299231,281.756195735 L246.621088654,279.859934775 L249.714382765,265.730938401 L255.322416892,261.709839082 L244.764805908,258.932765411 L243.524283193,250.94371302 L249.638643317,247.627286928 L271.628988827,249.640956971 L273.582325515,236.106725287 L281.892573401,235.111989819 L285.081671257,247.517848489 L288.433980784,248.796356179 L297.701637112,238.4419088 L302.624905372,235.062432809 L307.499834257,241.491662386 Z" fill="#cee3f5" id="MK.SU" stroke="#6e6e6e" stroke-width="0.4"><desc><labelrank>10</labelrank><code_hasc>MK.SU</code_hasc><name>Studenicani</name><admin>Macedonia</admin><type_en>Statistical Region</type_en><region>Skopje</region><woe_id>24550809</woe_id><longitude>21</longitude><woe_name>Studenicani</woe_name><fips>MKA2</fips><woe_label>Studenicani Municipality, MK, Macedonia</woe_label><latitude>41</latitude><iso_a2>MK</iso_a2><postal>SU</postal><type>Statistical Region</type><id>MK.SU</id></desc></path><path d="M273.025335108,210.048619086 L272.631440835,215.261011861 L271.003454437,215.259994549 L267.993013611,213.836251496 L268.160100276,207.957327767 L273.025335108,210.048619086 Z" fill="#cee3f5" id="MK.CI" stroke="#6e6e6e" stroke-width="0.4"><desc><labelrank>10</labelrank><code_hasc>MK.CI</code_hasc><name>Cair</name><admin>Macedonia</admin><type_en>Municipality</type_en><region>Greater Skopje</region><woe_id>24550752</woe_id><longitude>21</longitude><woe_name>Cair Municipality</woe_name><fips>MKA3</fips><woe_label /><latitude>41</latitude><iso_a2>MK</iso_a2><postal>CI</postal><type>Municipality</type><id>MK.CI</id></desc></path><path d="M430.214026667,207.579418266 L427.449056273,220.564600756 L449.464464722,242.577132935 L447.233872294,250.666593767 L450.867898199,255.59623036 L446.612663302,261.604392675 L450.314436216,273.93590283 L439.148351926,288.325653194 L433.3211731,290.870099196 L437.231065442,308.985511928 L432.921677302,309.253818378 L428.416677885,304.886618422 L405.252547683,281.502558135 L395.920157448,277.463235912 L389.674746859,269.476409609 L383.050204939,268.235454375 L373.428486935,256.43074345 L370.354306839,240.451645552 L372.86287471,229.385940907 L387.46056652,209.124107394 L398.546682458,209.169068125 L404.810083797,217.360182358 L416.58144236,213.100043686 L419.609382759,207.901463478 L430.214026667,207.579418266 Z" fill="#cee3f5" id="MK.SL" stroke="#6e6e6e" stroke-width="0.4"><desc><labelrank>10</labelrank><code_hasc>MK.SL</code_hasc><name>Sveti Nikole</name><admin>Macedonia</admin><type_en>Statistical Region</type_en><region>Northeastern</region><woe_id>24550811</woe_id><longitude>21</longitude><woe_name>Sveti Nikole</woe_name><fips>MKA4</fips><woe_label>Sveti Nikole Municipality, MK, Macedonia</woe_label><latitude>41</latitude><iso_a2>MK</iso_a2><postal>SL</postal><type>Statistical Region</type><id>MK.SL</id></desc></path><path d="M383.050204939,268.235454375 L374.19376268,280.745768437 L380.244890299,289.284032625 L376.206963164,302.866607564 L382.312971903,304.876610163 L386.902605918,312.957283295 L385.931321458,322.992975711 L372.070085154,345.586125613 L364.90653969,346.291506566 L363.2469406,353.247272078 L351.91410702,348.756569851 L350.158660006,338.087506948 L342.657171311,342.137104917 L335.056164215,319.230948988 L319.967689247,314.716543014 L314.849598439,316.501873875 L307.601375215,303.290388979 L318.536424325,299.735518841 L323.96291228,290.611245184 L322.74503121,274.217972547 L332.96763979,275.175667141 L333.488042112,280.588923489 L338.787652352,274.490374726 L348.368599429,279.359001014 L352.621259372,263.230659874 L352.392580326,249.698466373 L361.060109006,247.553246835 L370.354306839,240.451645552 L373.428486935,256.43074345 L383.050204939,268.235454375 Z" fill="#cee3f5" id="MK.VE" stroke="#6e6e6e" stroke-width="0.4"><desc><labelrank>10</labelrank><code_hasc>MK.VE</code_hasc><name>Veles</name><admin>Macedonia</admin><type_en>Statistical Region</type_en><region>Vardar</region><woe_id>24550815</woe_id><longitude>21</longitude><woe_name>Veles</woe_name><fips>MKB1</fips><woe_label>Veles Municipality, MK, Macedonia</woe_label><latitude>41</latitude><iso_a2>MK</iso_a2><postal>VE</postal><type>Statistical Region</type><id>MK.VE</id></desc></path><path d="M172.819936356,403.376783861 L162.917498381,403.844217196 L166.406382821,418.201923672 L171.473252355,417.229712257 L167.513381583,422.583367531 L153.242050084,423.312509852 L150.835412646,416.748707884 L142.600211102,409.694056208 L145.262536097,402.463435908 L153.409911558,389.740939086 L161.637317517,386.814399839 L166.577806459,374.887695667 L179.703495525,362.236977208 L183.021165901,372.201077851 L192.53022217,380.941752038 L173.352218069,397.517720135 L172.819936356,403.376783861 Z" fill="#cee3f5" id="MK.VC" stroke="#6e6e6e" stroke-width="0.4"><desc><labelrank>10</labelrank><code_hasc>MK.VC</code_hasc><name>Vraneštica</name><admin>Macedonia</admin><type_en>Statistical Region</type_en><region>Southwestern</region><woe_id>24550818</woe_id><longitude>21</longitude><woe_name>Vranestica Municipality</woe_name><fips>MKB6</fips><woe_label /><latitude>41</latitude><iso_a2>MK</iso_a2><postal>VC</postal><type>Statistical Region</type><id>MK.VC</id></desc></path><path d="M322.74503121,274.217972547 L323.96291228,290.611245184 L318.536424325,299.735518841 L307.601375215,303.290388979 L283.644736785,301.904134576 L284.838959098,293.89406196 L279.408670103,284.510171627 L280.780346542,272.869058815 L285.04358167,270.446982313 L286.394273875,275.376751131 L290.447498636,275.522398037 L297.981162411,256.17785503 L311.443641443,247.01398994 L325.276846138,251.345139146 L322.74503121,274.217972547 Z" fill="#cee3f5" id="MK.ZK" stroke="#6e6e6e" stroke-width="0.4"><desc><labelrank>10</labelrank><code_hasc>MK.ZK</code_hasc><name>Zelenikovo</name><admin>Macedonia</admin><type_en>Statistical Region</type_en><region>Skopje</region><woe_id>24550820</woe_id><longitude>21</longitude><woe_name>Zelenikovo Municipality</woe_name><fips>MKC2</fips><woe_label /><latitude>41</latitude><iso_a2>MK</iso_a2><postal>ZK</postal><type>Statistical Region</type><id>MK.ZK</id></desc></path><path d="M189.546441029,212.966719126 L203.73824277,221.535358468 L200.981168241,245.532527284 L211.035144841,253.747645761 L217.495474012,261.658446934 L215.621417066,275.751565815 L201.984433911,267.828522184 L200.509890229,262.179535993 L196.51767399,262.921037899 L195.427585941,266.572026921 L186.707861104,266.831126167 L181.413665019,262.211401519 L171.232166686,261.497869086 L175.044163584,248.591452238 L167.592543359,243.970603291 L167.025006072,235.45985401 L157.415520883,226.520313379 L164.854532885,222.078403175 L155.952840542,212.103290845 L160.497125495,206.59092039 L171.272157525,207.976365983 L171.670483679,214.474670822 L174.899196374,215.553249269 L189.546441029,212.966719126 Z" fill="#cee3f5" id="MK.ZE" stroke="#6e6e6e" stroke-width="0.4"><desc><labelrank>10</labelrank><code_hasc>MK.ZE</code_hasc><name>Želino</name><admin>Macedonia</admin><type_en>Statistical Region</type_en><region>Polog</region><woe_id>24550821</woe_id><longitude>21</longitude><woe_name>Želino</woe_name><fips>MKC3</fips><woe_label>Zelino Municipality, MK, Macedonia</woe_label><latitude>41</latitude><iso_a2>MK</iso_a2><postal>ZE</postal><type>Statistical Region</type><id>MK.ZE</id></desc></path><path d="M315.715384206,187.092261909 L323.530610961,189.970252872 L323.869603267,194.096688525 L311.602085893,208.649512159 L298.611779146,213.437633121 L301.873300964,201.274813423 L298.673661963,183.265504352 L307.916276133,194.660789666 L313.864285624,195.024499116 L315.715384206,187.092261909 Z" fill="#cee3f5" id="MK.AR" stroke="#6e6e6e" stroke-width="0.4"><desc><labelrank>10</labelrank><code_hasc>MK.AR</code_hasc><name>Aracinovo</name><admin>Macedonia</admin><type_en>Statistical Region</type_en><region>Skopje</region><woe_id>24550745</woe_id><longitude>21</longitude><woe_name>Aracinovo Municipality</woe_name><fips>MK01</fips><woe_label /><latitude>42</latitude><iso_a2>MK</iso_a2><postal>AR</postal><type>Statistical Region</type><id>MK.AR</id></desc></path><path d="M335.067648244,123.054314463 L337.771556513,147.676735559 L331.923093708,151.41941131 L331.995476213,160.720946611 L325.156164817,159.879622589 L322.9458952,175.320991467 L315.030321527,181.369248428 L315.715384206,187.092261909 L313.864285624,195.024499116 L307.916276133,194.660789666 L298.673661963,183.265504352 L290.476754509,171.879181795 L283.697822403,157.302998322 L290.893607936,152.652300143 L291.590752914,142.941783655 L282.4056139,131.765491477 L279.63022855,121.904355982 L282.191981535,118.739925813 L287.019040215,122.032268296 L303.911572007,118.832698962 L335.067648244,123.054314463 Z" fill="#cee3f5" id="MK.LI" stroke="#6e6e6e" stroke-width="0.4"><desc><labelrank>10</labelrank><code_hasc>MK.LI</code_hasc><name>Lipkovo</name><admin>Macedonia</admin><type_en>Statistical Region</type_en><region>Skopje</region><woe_id>24550842</woe_id><longitude>21</longitude><woe_name>Lipkovo</woe_name><fips>MK01</fips><woe_label>Lipkovo Municipality, MK, Macedonia</woe_label><latitude>42</latitude><iso_a2>MK</iso_a2><postal>LI</postal><type>Statistical Region</type><id>MK.LI</id></desc></path><path d="M283.697822403,157.302998322 L290.476754509,171.879181795 L279.263952993,186.060627258 L278.69922906,205.870776389 L273.025335108,210.048619086 L268.160100276,207.957327767 L260.360080942,208.079651623 L255.558914698,201.123094154 L257.42691077,198.603568214 L266.412613413,206.376560415 L266.789675961,197.515211822 L270.601012073,196.91294284 L271.81450436,171.240244222 L278.102695627,158.152438674 L283.697822403,157.302998322 Z" fill="#cee3f5" id="MK.BU" stroke="#6e6e6e" stroke-width="0.4"><desc><labelrank>10</labelrank><code_hasc>MK.BU</code_hasc><name>Butel</name><admin>Macedonia</admin><type_en>Municipality</type_en><region>Greater Skopje</region><woe_id>55848399</woe_id><longitude>21</longitude><woe_name>Butel Municipality</woe_name><fips>MK13</fips><woe_label /><latitude>42</latitude><iso_a2>MK</iso_a2><postal>BU</postal><type>Municipality</type><id>MK.BU</id></desc></path><path d="M307.601375215,303.290388979 L314.849598439,316.501873875 L319.967689247,314.716543014 L335.056164215,319.230948988 L342.657171311,342.137104917 L350.158660006,338.087506948 L351.91410702,348.756569851 L363.2469406,353.247272078 L362.886662549,360.322963606 L372.293130102,369.472609301 L367.471317291,379.871829511 L367.82021175,390.223313561 L375.300031035,394.649386749 L373.681363214,406.06317863 L368.933537268,403.69952598 L363.401894331,411.687065229 L349.7165197,399.927228308 L336.416858996,403.260290846 L331.82309532,416.884972103 L326.70285333,417.459292668 L322.613220306,411.771242455 L317.005184251,411.265497546 L312.349374677,405.043607173 L300.754891523,401.71492669 L297.732458205,393.326327295 L282.684544481,393.06627751 L279.007341952,387.707113765 L276.518142574,371.441654165 L267.595061986,361.114159251 L254.247244718,357.244844252 L253.677201124,342.943443826 L259.861892387,331.527271498 L261.96132129,322.037923007 L273.1045506,306.691419366 L283.644736785,301.904134576 L307.601375215,303.290388979 Z" fill="#cee3f5" id="MK.CA" stroke="#6e6e6e" stroke-width="0.4"><desc><labelrank>10</labelrank><code_hasc>MK.CA</code_hasc><name>Caška</name><admin>Macedonia</admin><type_en>Statistical Region</type_en><region>Vardar</region><woe_id>24550754</woe_id><longitude>21</longitude><woe_name>Caška</woe_name><fips>MK15</fips><woe_label>Caska Municipality, MK, Macedonia</woe_label><latitude>41</latitude><iso_a2>MK</iso_a2><postal>CA</postal><type>Statistical Region</type><id>MK.CA</id></desc></path><path d="M271.003454437,215.259994549 L269.985215575,219.262274828 L268.190913786,225.365674964 L263.282205195,220.54517729 L267.993013611,213.836251496 L271.003454437,215.259994549 Z" fill="#cee3f5" id="MK.CE" stroke="#6e6e6e" stroke-width="0.4"><desc><labelrank>10</labelrank><code_hasc>MK.CE</code_hasc><name>Centar</name><admin>Macedonia</admin><type_en>Municipality</type_en><region>Greater Skopje</region><woe_id>24550756</woe_id><longitude>21</longitude><woe_name>Centar Municipality</woe_name><fips>MK17</fips><woe_label /><latitude>41</latitude><iso_a2>MK</iso_a2><postal>CE</postal><type>Municipality</type><id>MK.CE</id></desc></path><path d="M546.024605029,282.670044876 L530.861081081,281.876127906 L521.999772293,269.976857749 L521.144603166,262.163698994 L530.461461189,257.198156884 L534.892982462,259.835228612 L542.496308015,253.538109059 L546.103323066,263.948008423 L546.024605029,282.670044876 Z" fill="#cee3f5" id="MK.ZR" stroke="#6e6e6e" stroke-width="0.4"><desc><labelrank>10</labelrank><code_hasc>MK.ZR</code_hasc><name>Zrnovci</name><admin>Macedonia</admin><type_en>Statistical Region</type_en><region /><woe_id>24550824</woe_id><longitude>22</longitude><woe_name>Zrnovci Municipality</woe_name><fips>MK19</fips><woe_label /><latitude>41</latitude><iso_a2>MK</iso_a2><postal>ZR</postal><type>Statistical Region</type><id>MK.ZR</id></desc></path><path d="M493.347267529,225.636454134 L502.297093747,236.123993291 L513.545201485,236.563691658 L512.405441711,250.108672345 L515.579929392,258.939679089 L521.144603166,262.163698994 L521.999772293,269.976857749 L530.861081081,281.876127906 L524.258454233,282.809863187 L518.196377298,276.922638662 L501.201604824,275.658531903 L485.212072834,261.810091292 L475.100828307,246.741786903 L484.71937881,239.100075778 L489.258082521,226.457994239 L493.347267529,225.636454134 Z" fill="#cee3f5" id="MK.CH" stroke="#6e6e6e" stroke-width="0.4"><desc><labelrank>10</labelrank><code_hasc>MK.CH</code_hasc><name>Cešinovo-Obleševo</name><admin>Macedonia</admin><type_en>Statistical Region</type_en><region>Eastern</region><woe_id>24550757</woe_id><longitude>22</longitude><woe_name>Cesinovo-Oblesevo Municipality</woe_name><fips>MK19</fips><woe_label /><latitude>41</latitude><iso_a2>MK</iso_a2><postal>CH</postal><type>Statistical Region</type><id>MK.CH</id></desc></path><path d="M279.63022855,121.904355982 L282.4056139,131.765491477 L291.590752914,142.941783655 L290.893607936,152.652300143 L283.697822403,157.302998322 L278.102695627,158.152438674 L271.81450436,171.240244222 L270.601012073,196.91294284 L266.789675961,197.515211822 L261.733383154,189.93102276 L257.595301436,192.461359605 L257.42691077,198.603568214 L255.558914698,201.123094154 L249.460857931,198.516110523 L244.715110226,183.07382782 L233.510643194,173.330101441 L231.864472065,154.934599534 L247.692363964,130.48690235 L255.927391917,127.187640984 L268.27499863,130.439354801 L265.546923701,121.640163982 L269.978992215,119.134885911 L279.63022855,121.904355982 Z" fill="#cee3f5" id="MK.CS" stroke="#6e6e6e" stroke-width="0.4"><desc><labelrank>10</labelrank><code_hasc>MK.CS</code_hasc><name>Cucer Sandevo</name><admin>Macedonia</admin><type_en>Statistical Region</type_en><region>Skopje</region><woe_id>24550830</woe_id><longitude>21</longitude><woe_name>Cucer Sandevo</woe_name><fips>MK20</fips><woe_label>Cucer-Sandevo Municipality, MK, Macedonia</woe_label><latitude>42</latitude><iso_a2>MK</iso_a2><postal>CS</postal><type>Statistical Region</type><id>MK.CS</id></desc></path><path d="M516.313595748,415.906495016 L514.909557372,424.092642313 L518.359195407,432.853303787 L521.624954858,451.52111783 L508.758642724,452.178373805 L503.787607606,459.335035001 L487.590048512,469.519990885 L478.112538858,469.65152868 L449.471622385,444.265152693 L463.040619167,443.461372153 L465.186325117,434.187583903 L460.389557506,424.873048567 L465.720141846,420.97511194 L470.089580485,406.780179058 L476.944563486,398.889728585 L482.902997393,398.017104219 L496.816343745,405.211728788 L507.749441906,392.502143271 L517.884204805,400.248974914 L514.597462865,407.391893691 L516.313595748,415.906495016 Z" fill="#cee3f5" id="MK.DK" stroke="#6e6e6e" stroke-width="0.4"><desc><labelrank>10</labelrank><code_hasc>MK.DK</code_hasc><name>Demir Kapija</name><admin>Macedonia</admin><type_en>Statistical Region</type_en><region>Southeastern</region><woe_id>24550760</woe_id><longitude>22</longitude><woe_name>Demir Kapija</woe_name><fips>MK25</fips><woe_label>Demir Kapija Municipality, MK, Macedonia</woe_label><latitude>41</latitude><iso_a2>MK</iso_a2><postal>DK</postal><type>Statistical Region</type><id>MK.DK</id></desc></path><path d="M317.005184251,411.265497546 L311.737761352,415.063285943 L309.64458823,423.842022613 L300.395268314,430.164814722 L276.507846208,434.054281958 L264.463809141,445.323801075 L260.851323683,442.538264832 L247.902654538,443.308724406 L243.69300588,432.05956129 L237.051804735,436.504069872 L223.924152279,424.078021224 L225.129684173,420.134131015 L234.275584265,420.292242836 L234.545004261,416.351082986 L223.062998019,401.332661855 L223.165501536,397.78707349 L230.810944005,391.678477877 L241.794921201,394.676823324 L242.286543358,382.694212305 L249.764590319,372.649080422 L254.247244718,357.244844252 L267.595061986,361.114159251 L276.518142574,371.441654165 L279.007341952,387.707113765 L282.684544481,393.06627751 L297.732458205,393.326327295 L300.754891523,401.71492669 L312.349374677,405.043607173 L317.005184251,411.265497546 Z" fill="#cee3f5" id="MK.DE" stroke="#6e6e6e" stroke-width="0.4"><desc><labelrank>10</labelrank><code_hasc>MK.DE</code_hasc><name>Dolneni</name><admin>Macedonia</admin><type_en>Statistical Region</type_en><region>Pelagonia</region><woe_id>24550763</woe_id><longitude>21</longitude><woe_name>Dolneni</woe_name><fips>MK28</fips><woe_label>Dolneni Municipality, MK, Macedonia</woe_label><latitude>41</latitude><iso_a2>MK</iso_a2><postal>DE</postal><type>Statistical Region</type><id>MK.DE</id></desc></path><path d="M298.673661963,183.265504352 L301.873300964,201.274813423 L298.611779146,213.437633121 L296.09226862,219.021177858 L307.430220287,226.848473778 L310.42673187,238.001499932 L307.499834257,241.491662386 L302.624905372,235.062432809 L295.641277048,227.827069398 L272.631440835,215.261011861 L273.025335108,210.048619086 L278.69922906,205.870776389 L279.263952993,186.060627258 L290.476754509,171.879181795 L298.673661963,183.265504352 Z" fill="#cee3f5" id="MK.GB" stroke="#6e6e6e" stroke-width="0.4"><desc><labelrank>10</labelrank><code_hasc>MK.GB</code_hasc><name>Gazi Baba</name><admin>Macedonia</admin><type_en>Municipality</type_en><region>Greater Skopje</region><woe_id>24550766</woe_id><longitude>21</longitude><woe_name>Gazi Baba Municipality</woe_name><fips>MK32</fips><woe_label /><latitude>42</latitude><iso_a2>MK</iso_a2><postal>GB</postal><type>Municipality</type><id>MK.GB</id></desc></path><path d="M414.297866519,330.142641735 L427.882421972,333.805883834 L419.331800408,353.599609833 L422.045032902,356.258634492 L433.575251131,354.477785785 L429.604479872,379.458728161 L426.129362374,379.64978215 L424.564171705,371.409982556 L420.824979548,370.643989981 L414.046140976,370.96473557 L413.397483097,376.191841025 L404.55550274,374.049597743 L398.732860066,382.133684665 L384.813827955,378.362422327 L385.056281814,388.620821337 L375.300031035,394.649386749 L367.82021175,390.223313561 L367.471317291,379.871829511 L372.293130102,369.472609301 L362.886662549,360.322963606 L363.2469406,353.247272078 L364.90653969,346.291506566 L372.070085154,345.586125613 L385.931321458,322.992975711 L386.902605918,312.957283295 L387.971449908,309.918059835 L393.456975642,311.611666657 L397.6442042,334.667724382 L407.712155665,336.78012551 L414.297866519,330.142641735 Z" fill="#cee3f5" id="MK.GR" stroke="#6e6e6e" stroke-width="0.4"><desc><labelrank>10</labelrank><code_hasc>MK.GR</code_hasc><name>Gradsko</name><admin>Macedonia</admin><type_en>Statistical Region</type_en><region>Vardar</region><woe_id>24550768</woe_id><longitude>21</longitude><woe_name>Gradsko</woe_name><fips>MK35</fips><woe_label>Gradsko Municipality, MK, Macedonia</woe_label><latitude>41</latitude><iso_a2>MK</iso_a2><postal>GR</postal><type>Statistical Region</type><id>MK.GR</id></desc></path><path d="M428.416677885,304.886618422 L422.346573508,313.714000961 L413.888239046,308.58978142 L408.492642923,315.214399809 L407.528136743,319.852397127 L414.297866519,330.142641735 L407.712155665,336.78012551 L397.6442042,334.667724382 L393.456975642,311.611666657 L387.971449908,309.918059835 L386.902605918,312.957283295 L382.312971903,304.876610163 L376.206963164,302.866607564 L380.244890299,289.284032625 L374.19376268,280.745768437 L383.050204939,268.235454375 L389.674746859,269.476409609 L395.920157448,277.463235912 L405.252547683,281.502558135 L428.416677885,304.886618422 Z" fill="#cee3f5" id="MK.LO" stroke="#6e6e6e" stroke-width="0.4"><desc><labelrank>10</labelrank><code_hasc>MK.LO</code_hasc><name>Lozovo</name><admin>Macedonia</admin><type_en>Statistical Region</type_en><region>Vardar</region><woe_id>24550785</woe_id><longitude>21</longitude><woe_name>Lozovo Municipality</woe_name><fips>MK35</fips><woe_label /><latitude>41</latitude><iso_a2>MK</iso_a2><postal>LO</postal><type>Statistical Region</type><id>MK.LO</id></desc></path><path d="M563.355795847,385.034606822 L565.056383749,399.821171175 L563.478198216,403.470360917 L556.829744772,402.03277029 L547.89399497,407.630350578 L525.851479667,410.15182561 L516.313595748,415.906495016 L514.597462865,407.391893691 L517.884204805,400.248974914 L507.749441906,392.502143271 L496.571850768,372.905183845 L513.53137129,352.568786497 L525.229561474,358.256236203 L539.794940243,359.225318143 L552.30280213,373.728973447 L548.923128311,381.226897284 L563.355795847,385.034606822 Z" fill="#cee3f5" id="MK.KN" stroke="#6e6e6e" stroke-width="0.4"><desc><labelrank>10</labelrank><code_hasc>MK.KN</code_hasc><name>Konce</name><admin>Macedonia</admin><type_en>Statistical Region</type_en><region>Southeastern</region><woe_id>24550778</woe_id><longitude>22</longitude><woe_name>Konce Municipality</woe_name><fips>MK35</fips><woe_label /><latitude>41</latitude><iso_a2>MK</iso_a2><postal>KN</postal><type>Statistical Region</type><id>MK.KN</id></desc></path><path d="M338.447858097,214.459684262 L333.726808023,224.551300833 L335.165134446,232.478060175 L321.157900671,229.997564592 L310.42673187,238.001499932 L307.430220287,226.848473778 L296.09226862,219.021177858 L298.611779146,213.437633121 L311.602085893,208.649512159 L323.869603267,194.096688525 L334.377160624,203.647612946 L338.080352941,203.618246711 L338.447858097,214.459684262 Z" fill="#cee3f5" id="MK.IL" stroke="#6e6e6e" stroke-width="0.4"><desc><labelrank>10</labelrank><code_hasc>MK.IL</code_hasc><name>Ilinden</name><admin>Macedonia</admin><type_en>Statistical Region</type_en><region>Skopje</region><woe_id>24550769</woe_id><longitude>21</longitude><woe_name>Ilinden</woe_name><fips>MK36</fips><woe_label>Ilinden Municipality, MK, Macedonia</woe_label><latitude>41</latitude><iso_a2>MK</iso_a2><postal>IL</postal><type>Statistical Region</type><id>MK.IL</id></desc></path><path d="M485.212072834,261.810091292 L501.201604824,275.658531903 L518.196377298,276.922638662 L524.258454233,282.809863187 L530.861081081,281.876127906 L546.024605029,282.670044876 L546.029213289,289.640799258 L538.538013344,294.883097286 L534.062852204,310.750938474 L528.761834449,308.964623686 L506.011145623,312.686344795 L493.164999256,299.848522113 L487.77075767,299.004543751 L475.337677369,288.296165012 L462.816855966,287.082933687 L457.596785089,266.909519894 L464.122138692,258.291765065 L469.610475562,256.477592315 L474.295671663,263.778662711 L485.212072834,261.810091292 Z" fill="#cee3f5" id="MK.KB" stroke="#6e6e6e" stroke-width="0.4"><desc><labelrank>10</labelrank><code_hasc>MK.KB</code_hasc><name>Karbinci</name><admin>Macedonia</admin><type_en>Statistical Region</type_en><region>Eastern</region><woe_id>24550772</woe_id><longitude>22</longitude><woe_name>Karbinci Municipality</woe_name><fips>MK40</fips><woe_label /><latitude>41</latitude><iso_a2>MK</iso_a2><postal>KB</postal><type>Statistical Region</type><id>MK.KB</id></desc></path><path d="M255.558914698,201.123094154 L260.360080942,208.079651623 L268.160100276,207.957327767 L267.993013611,213.836251496 L263.282205195,220.54517729 L268.190913786,225.365674964 L268.405058604,228.882026775 L249.752475382,227.867440974 L249.360016684,214.617696474 L249.460857931,198.516110523 L255.558914698,201.123094154 Z" fill="#cee3f5" id="MK.KX" stroke="#6e6e6e" stroke-width="0.4"><desc><labelrank>10</labelrank><code_hasc>MK.KX</code_hasc><name>Karpoš</name><admin>Macedonia</admin><type_en>Municipality</type_en><region>Greater Skopje</region><woe_id>24550773</woe_id><longitude>21</longitude><woe_name>Karpoš</woe_name><fips>MK41</fips><woe_label>Skopje, Karpos Municipality, Macedonia</woe_label><latitude>41</latitude><iso_a2>MK</iso_a2><postal>KX</postal><type>Municipality</type><id>MK.KX</id></desc></path><path d="M449.471622385,444.265152693 L478.112538858,469.65152868 L487.590048512,469.519990885 L503.787607606,459.335035001 L506.070345653,473.588776245 L509.618877787,477.382845047 L495.444829335,484.814680148 L498.791291468,500.144601427 L485.948297492,502.321394867 L485.769833093,512.447232637 L471.15104609,515.841009124 L455.625967555,527.10320625 L440.304240389,516.251090008 L435.101744826,521.147234291 L406.740474951,533.047864886 L405.295619406,523.663054318 L396.2331785,521.895066666 L395.40734343,502.219973154 L390.133473986,494.815342137 L394.569869997,475.735891935 L380.485566214,475.132021032 L377.747175796,467.700352287 L379.348873793,442.311620161 L375.080251046,431.442712908 L375.642451737,415.947928822 L369.518750991,421.224469582 L363.401894331,411.687065229 L368.933537268,403.69952598 L373.681363214,406.06317863 L380.559403048,414.969976106 L397.825846948,414.609153294 L401.540583025,407.102806314 L411.832212151,411.290297545 L419.159764054,403.374347011 L421.142928536,388.642118028 L433.436825018,387.906485585 L437.688426383,391.025140931 L440.762540121,425.129349045 L445.18741347,441.684885426 L449.471622385,444.265152693 Z" fill="#cee3f5" id="MK.AV" stroke="#6e6e6e" stroke-width="0.4"><desc><labelrank>10</labelrank><code_hasc>MK.AV</code_hasc><name>Kavadartsi</name><admin>Macedonia</admin><type_en>Statistical Region</type_en><region>Vardar</region><woe_id>24550774</woe_id><longitude>22</longitude><woe_name>Kavadartsi</woe_name><fips>MK42</fips><woe_label>Kavadarci Municipality, MK, Macedonia</woe_label><latitude>41</latitude><iso_a2>MK</iso_a2><postal>AV</postal><type>Statistical Region</type><id>MK.AV</id></desc></path><path d="M272.631440835,215.261011861 L295.641277048,227.827069398 L302.624905372,235.062432809 L297.701637112,238.4419088 L269.985215575,219.262274828 L271.003454437,215.259994549 L272.631440835,215.261011861 Z" fill="#cee3f5" id="MK.AD" stroke="#6e6e6e" stroke-width="0.4"><desc><labelrank>10</labelrank><code_hasc>MK.AD</code_hasc><name>Aerodrom</name><admin>Macedonia</admin><type_en>Municipality</type_en><region>Greater Skopje</region><woe_id>55848400</woe_id><longitude>21</longitude><woe_name>Aerodrom Municipality</woe_name><fips>MK44</fips><woe_label /><latitude>41</latitude><iso_a2>MK</iso_a2><postal>AD</postal><type>Municipality</type><id>MK.AD</id></desc></path><path d="M297.701637112,238.4419088 L288.433980784,248.796356179 L285.081671257,247.517848489 L281.892573401,235.111989819 L273.582325515,236.106725287 L272.45386769,229.764303476 L268.405058604,228.882026775 L268.190913786,225.365674964 L269.985215575,219.262274828 L297.701637112,238.4419088 Z" fill="#cee3f5" id="MK.VD" stroke="#6e6e6e" stroke-width="0.4"><desc><labelrank>10</labelrank><code_hasc>MK.VD</code_hasc><name>Kisela Voda</name><admin>Macedonia</admin><type_en>Municipality</type_en><region>Greater Skopje</region><woe_id>24550756</woe_id><longitude>21</longitude><woe_name>Skopje</woe_name><fips>MK44</fips><woe_label>Skopje, Centar Municipality, Macedonia</woe_label><latitude>41</latitude><iso_a2>MK</iso_a2><postal>VD</postal><type>Municipality</type><id>MK.VD</id></desc></path><path d="M536.077319669,169.870481735 L539.141448101,175.46412629 L543.050868007,171.24963329 L546.474978923,174.823014476 L546.921633279,186.236533995 L555.947972264,194.040227546 L564.391162135,225.606083362 L557.133303993,228.282999384 L551.485792664,223.366242008 L547.107822081,223.610292959 L542.496308015,253.538109059 L534.892982462,259.835228612 L530.461461189,257.198156884 L521.144603166,262.163698994 L515.579929392,258.939679089 L512.405441711,250.108672345 L513.545201485,236.563691658 L502.297093747,236.123993291 L493.347267529,225.636454134 L512.568251457,206.174913238 L514.753920858,196.959400758 L519.239363561,180.783428409 L517.026745995,172.031833858 L536.077319669,169.870481735 Z" fill="#cee3f5" id="MK.OC" stroke="#6e6e6e" stroke-width="0.4"><desc><labelrank>10</labelrank><code_hasc>MK.OC</code_hasc><name>Kocani</name><admin>Macedonia</admin><type_en>Statistical Region</type_en><region>Eastern</region><woe_id>24550777</woe_id><longitude>22</longitude><woe_name>Kocani</woe_name><fips>MK46</fips><woe_label>Kocani Municipality, MK, Macedonia</woe_label><latitude>41</latitude><iso_a2>MK</iso_a2><postal>OC</postal><type>Statistical Region</type><id>MK.OC</id></desc></path><path d="M429.193201691,148.115429798 L436.898570071,153.251757098 L438.362302781,160.664826933 L448.953641572,163.165175796 L461.517609791,174.730758153 L474.639410799,171.080616141 L475.2733067,164.298802803 L478.087661359,163.224560099 L479.306548756,166.217586365 L486.228407578,166.325647803 L499.534451714,162.423277903 L517.026745995,172.031833858 L519.239363561,180.783428409 L514.753920858,196.959400758 L505.136639639,188.133197555 L490.833907211,188.13953467 L488.127000303,202.627975216 L481.744074893,197.762041573 L472.855556946,200.153577252 L467.534075378,194.657727639 L444.785488214,201.352133398 L440.751585438,210.903009572 L430.214026667,207.579418266 L419.609382759,207.901463478 L412.360054284,199.612432427 L410.300947546,191.047704689 L402.286222109,188.981560648 L408.4123917,172.435184697 L415.285744408,170.683775278 L417.955743423,166.514519582 L420.327767687,148.822072753 L429.193201691,148.115429798 Z" fill="#cee3f5" id="MK.KY" stroke="#6e6e6e" stroke-width="0.4"><desc><labelrank>10</labelrank><code_hasc>MK.KY</code_hasc><name>Kratovo</name><admin>Macedonia</admin><type_en>Statistical Region</type_en><region>Northeastern</region><woe_id>24550780</woe_id><longitude>22</longitude><woe_name>Kratovo</woe_name><fips>MK51</fips><woe_label>Kratovo Municipality, MK, Macedonia</woe_label><latitude>42</latitude><iso_a2>MK</iso_a2><postal>KY</postal><type>Statistical Region</type><id>MK.KY</id></desc></path><path d="M264.463809141,445.323801075 L260.007705362,450.234454775 L262.589928145,456.842878762 L269.346046996,458.239913465 L265.651900551,474.535768403 L257.713995446,482.800508002 L252.124144114,483.454661098 L243.86778201,477.375517727 L240.338270961,474.642991629 L243.529451496,463.186680098 L236.618066959,449.971816407 L237.051804735,436.504069872 L243.69300588,432.05956129 L247.902654538,443.308724406 L260.851323683,442.538264832 L264.463809141,445.323801075 Z" fill="#cee3f5" id="MK.KG" stroke="#6e6e6e" stroke-width="0.4"><desc><labelrank>10</labelrank><code_hasc>MK.KG</code_hasc><name>Krivogaštani</name><admin>Macedonia</admin><type_en>Statistical Region</type_en><region>Pelagonia</region><woe_id>24550781</woe_id><longitude>21</longitude><woe_name>Krivogastani Municipality</woe_name><fips>MK53</fips><woe_label /><latitude>41</latitude><iso_a2>MK</iso_a2><postal>KG</postal><type>Statistical Region</type><id>MK.KG</id></desc></path><path d="M223.062998019,401.332661855 L234.545004261,416.351082986 L234.275584265,420.292242836 L225.129684173,420.134131015 L223.924152279,424.078021224 L237.051804735,436.504069872 L236.618066959,449.971816407 L243.529451496,463.186680098 L240.338270961,474.642991629 L243.86778201,477.375517727 L240.493457705,478.225199706 L235.53877123,489.865895785 L238.260723781,496.579755033 L231.632116577,493.499605604 L232.52288961,479.729806391 L225.722460114,465.232628199 L219.693906918,460.078526655 L212.154216866,461.819635611 L210.038196082,443.177438452 L198.560143877,443.2026985 L198.54997174,438.011883836 L190.098406142,433.146427675 L188.557359962,425.82335272 L205.444715899,417.026989182 L217.887298239,412.077461229 L219.470122281,401.371386574 L223.062998019,401.332661855 Z" fill="#cee3f5" id="MK.KS" stroke="#6e6e6e" stroke-width="0.4"><desc><labelrank>10</labelrank><code_hasc>MK.KS</code_hasc><name>Kruševo</name><admin>Macedonia</admin><type_en>Statistical Region</type_en><region>Pelagonia</region><woe_id>24550782</woe_id><longitude>21</longitude><woe_name>Kruševo</woe_name><fips>MK54</fips><woe_label>Krusevo Municipality, MK, Macedonia</woe_label><latitude>41</latitude><iso_a2>MK</iso_a2><postal>KS</postal><type>Statistical Region</type><id>MK.KS</id></desc></path><path d="M408.4123917,172.435184697 L402.286222109,188.981560648 L410.300947546,191.047704689 L412.360054284,199.612432427 L419.609382759,207.901463478 L416.58144236,213.100043686 L404.810083797,217.360182358 L398.546682458,209.169068125 L387.46056652,209.124107394 L372.86287471,229.385940907 L364.426298174,222.128136392 L351.979677115,224.523923085 L338.447858097,214.459684262 L338.080352941,203.618246711 L334.377160624,203.647612946 L323.869603267,194.096688525 L323.530610961,189.970252872 L315.715384206,187.092261909 L315.030321527,181.369248428 L322.9458952,175.320991467 L325.156164817,159.879622589 L331.995476213,160.720946611 L331.923093708,151.41941131 L337.771556513,147.676735559 L335.067648244,123.054314463 L346.520278396,113.491486329 L363.527089422,123.865337648 L363.123494009,128.647251557 L356.978188334,132.615521482 L356.482971658,152.513193256 L357.793058607,161.314756389 L364.793278671,170.318594841 L369.115814161,171.162616262 L382.831635197,164.220094824 L396.777936143,169.240722451 L403.344787533,162.501441102 L408.4123917,172.435184697 Z" fill="#cee3f5" id="MK.UM" stroke="#6e6e6e" stroke-width="0.4"><desc><labelrank>10</labelrank><code_hasc>MK.UM</code_hasc><name>Kumanovo</name><admin>Macedonia</admin><type_en>Statistical Region</type_en><region>Northeastern</region><woe_id>24550832</woe_id><longitude>21</longitude><woe_name>Kumanovo</woe_name><fips>MK57</fips><woe_label>Kumanovo Municipality, MK, Macedonia</woe_label><latitude>42</latitude><iso_a2>MK</iso_a2><postal>UM</postal><type>Statistical Region</type><id>MK.UM</id></desc></path><path d="M201.984433911,267.828522184 L215.621417066,275.751565815 L235.026813827,304.2144451 L240.31318883,308.897334931 L246.425267478,308.111777556 L253.96406142,311.503441257 L254.017930035,323.907609798 L259.861892387,331.527271498 L253.677201124,342.943443826 L254.247244718,357.244844252 L249.764590319,372.649080422 L242.286543358,382.694212305 L241.794921201,394.676823324 L230.810944005,391.678477877 L223.165501536,397.78707349 L223.062998019,401.332661855 L219.470122281,401.371386574 L217.887298239,412.077461229 L205.444715899,417.026989182 L204.558377542,413.088773092 L194.2746472,408.050100545 L191.485113701,398.32193797 L172.819936356,403.376783861 L173.352218069,397.517720135 L192.53022217,380.941752038 L183.021165901,372.201077851 L179.703495525,362.236977208 L178.609849183,344.220072709 L168.928122459,342.28238699 L166.413629457,337.563203583 L167.280737468,325.976754829 L160.139799743,308.225185023 L164.899556577,303.59615206 L166.328814693,291.181651049 L173.508563258,290.348570825 L181.077408314,285.816898659 L191.97599764,271.440288966 L201.984433911,267.828522184 Z" fill="#cee3f5" id="MK.MD" stroke="#6e6e6e" stroke-width="0.4"><desc><labelrank>10</labelrank><code_hasc>MK.MD</code_hasc><name>Brod</name><admin>Macedonia</admin><type_en>Statistical Region</type_en><region>Polog</region><woe_id>24550786</woe_id><longitude>21</longitude><woe_name>Brod</woe_name><fips>MK63</fips><woe_label>Makedonski Brod Municipality, MK, Macedonia</woe_label><latitude>41</latitude><iso_a2>MK</iso_a2><postal>MD</postal><type>Statistical Region</type><id>MK.MD</id></desc></path><path d="M252.124144114,483.454661098 L253.420269027,487.831282838 L263.714038231,491.001386762 L273.005927273,503.303129598 L280.71156471,504.33491049 L287.907490366,510.557956602 L299.517580136,508.166472072 L316.825104716,516.375883118 L315.584024561,521.979653998 L300.930954993,538.964204168 L277.743026022,534.272925283 L270.385986114,542.387950908 L257.931589197,544.872227253 L252.225759672,541.680774115 L251.218527212,525.228987231 L239.263590062,514.536791726 L240.716432286,500.050070446 L238.260723781,496.579755033 L235.53877123,489.865895785 L240.493457705,478.225199706 L243.86778201,477.375517727 L252.124144114,483.454661098 Z" fill="#cee3f5" id="MK.MG" stroke="#6e6e6e" stroke-width="0.4"><desc><labelrank>10</labelrank><code_hasc>MK.MG</code_hasc><name>Pelagonia</name><admin>Macedonia</admin><type_en>Statistical Region</type_en><region /><woe_id>24550789</woe_id><longitude>21</longitude><woe_name>Pelagonia</woe_name><fips>MK67</fips><woe_label>Mogila Municipality, MK, Macedonia</woe_label><latitude>41</latitude><iso_a2>MK</iso_a2><postal>MG</postal><type>Statistical Region</type><id>MK.MG</id></desc></path><path d="M496.571850768,372.905183845 L507.749441906,392.502143271 L496.816343745,405.211728788 L482.902997393,398.017104219 L476.944563486,398.889728585 L470.089580485,406.780179058 L465.720141846,420.97511194 L460.389557506,424.873048567 L465.186325117,434.187583903 L463.040619167,443.461372153 L449.471622385,444.265152693 L445.18741347,441.684885426 L440.762540121,425.129349045 L437.688426383,391.025140931 L433.436825018,387.906485585 L421.142928536,388.642118028 L420.824979548,370.643989981 L424.564171705,371.409982556 L426.129362374,379.64978215 L429.604479872,379.458728161 L433.575251131,354.477785785 L422.045032902,356.258634492 L419.331800408,353.599609833 L427.882421972,333.805883834 L436.392993103,337.579683401 L441.733259574,344.982676031 L449.378599626,337.870668828 L457.23710566,356.280782863 L471.262222029,357.43069767 L472.269354146,365.035872323 L484.465696165,372.326222529 L496.571850768,372.905183845 Z" fill="#cee3f5" id="MK.NG" stroke="#6e6e6e" stroke-width="0.4"><desc><labelrank>10</labelrank><code_hasc>MK.NG</code_hasc><name>Negotino</name><admin>Macedonia</admin><type_en>Statistical Region</type_en><region>Vardar</region><woe_id>24550790</woe_id><longitude>22</longitude><woe_name>Negotino</woe_name><fips>MK69</fips><woe_label>Negotino Municipality, MK, Macedonia</woe_label><latitude>41</latitude><iso_a2>MK</iso_a2><postal>NG</postal><type>Statistical Region</type><id>MK.NG</id></desc></path><path d="M398.856548783,548.434830129 L381.178413248,574.518671965 L368.164953968,585.321837969 L366.723955977,596.41243432 L363.275288248,600.016309898 L355.416043317,601.814100643 L341.068615346,598.714694019 L333.307570159,602.328784465 L331.142702551,610.507183116 L324.211020179,611.065367502 L312.634293186,621.375933237 L304.91548146,619.921441832 L291.613590421,608.910672477 L291.013018127,590.564021342 L279.611878061,575.49712646 L273.648009021,574.004657764 L272.736902103,562.809861878 L268.051751629,554.059584996 L270.385986114,542.387950908 L277.743026022,534.272925283 L300.930954993,538.964204168 L315.584024561,521.979653998 L316.825104716,516.375883118 L321.158420675,514.04171668 L329.329725967,523.424080976 L362.765679324,532.143595258 L370.453617305,539.09026482 L380.56404304,539.880088572 L382.532844399,537.444375989 L389.75103017,545.057214477 L398.856548783,548.434830129 Z" fill="#cee3f5" id="MK.NV" stroke="#6e6e6e" stroke-width="0.4"><desc><labelrank>10</labelrank><code_hasc>MK.NV</code_hasc><name>Novatsi</name><admin>Macedonia</admin><type_en>Statistical Region</type_en><region>Pelagonia</region><woe_id>24550791</woe_id><longitude>21</longitude><woe_name>Novatsi</woe_name><fips>MK71</fips><woe_label>Novaci Municipality, MK, Macedonia</woe_label><latitude>41</latitude><iso_a2>MK</iso_a2><postal>NV</postal><type>Statistical Region</type><id>MK.NV</id></desc></path><path d="M249.460857931,198.516110523 L249.360016684,214.617696474 L242.481160732,214.015357892 L229.094347311,188.943274745 L219.930704489,190.363845061 L218.584879487,174.199838391 L230.285734021,176.515080997 L233.510643194,173.330101441 L244.715110226,183.07382782 L249.460857931,198.516110523 Z" fill="#cee3f5" id="MK.GP" stroke="#6e6e6e" stroke-width="0.4"><desc><labelrank>10</labelrank><code_hasc>MK.GP</code_hasc><name>Gjorce Petrov</name><admin>Macedonia</admin><type_en>Municipality</type_en><region>Greater Skopje</region><woe_id>24550839</woe_id><longitude>21</longitude><woe_name>Gjorce Petrov Municipality</woe_name><fips>MK00</fips><woe_label /><latitude>42</latitude><iso_a2>MK</iso_a2><postal>GP</postal><type>Municipality</type><id>MK.GP</id></desc></path><path d="M147.875222986,345.97453649 L148.098268283,362.732562944 L143.038544612,373.113177367 L125.060570175,378.770118084 L123.783032312,383.517612313 L112.649584781,363.668729403 L108.103350014,362.936604985 L103.01780183,350.024217921 L99.9419453915,349.490997682 L92.9717369959,348.543568157 L95.7243637409,342.465824715 L101.933392804,342.2353297 L111.995487025,333.010291533 L123.958110044,331.381850776 L136.79003831,334.986010777 L147.875222986,345.97453649 Z" fill="#cee3f5" id="MK.ZA" stroke="#6e6e6e" stroke-width="0.4"><desc><labelrank>10</labelrank><code_hasc>MK.ZA</code_hasc><name>Zajas</name><admin>Macedonia</admin><type_en>Statistical Region</type_en><region>Southwestern</region><woe_id>24550864</woe_id><longitude>20</longitude><woe_name>Zajas</woe_name><fips>MKC1</fips><woe_label>Zajas Municipality, MK, Macedonia</woe_label><latitude>41</latitude><iso_a2>MK</iso_a2><postal>ZA</postal><type>Statistical Region</type><id>MK.ZA</id></desc></path><path d="M63.8632161082,418.24016457 L55.1376999164,426.528607072 L25.6594220884,426.270463292 L21.0850294053,417.967170702 L12.5288358965,414.15676497 L10.0586081703,402.406414854 L33.7789152724,381.978813197 L45.1958470516,382.785471075 L50.0089193216,394.223271917 L55.9940928435,396.90023594 L57.9344795365,414.02325256 L63.8632161082,418.24016457 Z" fill="#cee3f5" id="MK.CZ" stroke="#6e6e6e" stroke-width="0.4"><desc><labelrank>10</labelrank><code_hasc>MK.CZ</code_hasc><name>Centar župa</name><admin>Macedonia</admin><type_en>Statistical Region</type_en><region>Southwestern</region><woe_id>24550829</woe_id><longitude>20</longitude><woe_name>Centar župa</woe_name><fips>MK18</fips><woe_label>Centar Zupa Municipality, MK, Macedonia</woe_label><latitude>41</latitude><iso_a2>MK</iso_a2><postal>CZ</postal><type>Statistical Region</type><id>MK.CZ</id></desc></path><path d="M77.7681929213,398.887503191 L71.1430331795,400.549120665 L65.6177620386,418.45350254 L63.8632161082,418.24016457 L57.9344795365,414.02325256 L55.9940928435,396.90023594 L50.0089193216,394.223271917 L45.1958470516,382.785471075 L33.7789152724,381.978813197 L10.0586081703,402.406414854 L0.129784644624,387.711052597 L0.0,372.719672454 L17.3196738861,368.235467187 L24.8206664777,359.158166987 L42.1056995603,372.511374008 L54.3895409981,374.464958505 L66.9141928445,388.581836596 L76.5994697718,392.799452911 L77.7681929213,398.887503191 Z" fill="#cee3f5" id="MK.DB" stroke="#6e6e6e" stroke-width="0.4"><desc><labelrank>10</labelrank><code_hasc>MK.DB</code_hasc><name>Debar</name><admin>Macedonia</admin><type_en>Statistical Region</type_en><region>Southwestern</region><woe_id>24550837</woe_id><longitude>20</longitude><woe_name>Debar</woe_name><fips>MK21</fips><woe_label>Debar Municipality, MK, Macedonia</woe_label><latitude>41</latitude><iso_a2>MK</iso_a2><postal>DB</postal><type>Statistical Region</type><id>MK.DB</id></desc></path><path d="M123.783032312,383.517612313 L127.986692783,391.910524759 L145.262536097,402.463435908 L142.600211102,409.694056208 L150.835412646,416.748707884 L153.242050084,423.312509852 L167.513381583,422.583367531 L171.473252355,417.229712257 L176.312727431,415.758251651 L179.234900331,421.359712376 L188.557359962,425.82335272 L190.098406142,433.146427675 L184.774556067,434.583737875 L175.406681927,444.27119243 L154.093448703,444.433104388 L139.775060158,455.253622634 L133.714575394,445.451187609 L128.586078022,443.744639483 L121.446666419,419.644259788 L96.735298746,417.173414395 L66.3225282856,419.293002981 L65.6177620386,418.45350254 L71.1430331795,400.549120665 L77.7681929213,398.887503191 L88.7137974156,399.624570182 L98.3286213537,388.673941552 L98.6293939674,380.690667257 L102.085897507,376.899011263 L99.9419453915,349.490997682 L103.01780183,350.024217921 L108.103350014,362.936604985 L112.649584781,363.668729403 L123.783032312,383.517612313 Z" fill="#cee3f5" id="MK.DR" stroke="#6e6e6e" stroke-width="0.4"><desc><labelrank>10</labelrank><code_hasc>MK.DR</code_hasc><name>Drugovo</name><admin>Macedonia</admin><type_en>Statistical Region</type_en><region /><woe_id>24550764</woe_id><longitude>20</longitude><woe_name>Drugovo Municipality</woe_name><fips>MK30</fips><woe_label /><latitude>41</latitude><iso_a2>MK</iso_a2><postal>DR</postal><type>Statistical Region</type><id>MK.DR</id></desc></path><path d="M143.038544612,373.113177367 L144.986032698,380.731019444 L151.939520236,380.732051446 L153.409911558,389.740939086 L145.262536097,402.463435908 L127.986692783,391.910524759 L123.783032312,383.517612313 L125.060570175,378.770118084 L143.038544612,373.113177367 Z" fill="#cee3f5" id="MK.KH" stroke="#6e6e6e" stroke-width="0.4"><desc><labelrank>10</labelrank><code_hasc>MK.KH</code_hasc><name>Kicevo</name><admin>Macedonia</admin><type_en>Statistical Region</type_en><region>Southwestern</region><woe_id>24550775</woe_id><longitude>20</longitude><woe_name>Kicevo</woe_name><fips>MK43</fips><woe_label>Kicevo Municipality, MK, Macedonia</woe_label><latitude>41</latitude><iso_a2>MK</iso_a2><postal>KH</postal><type>Statistical Region</type><id>MK.KH</id></desc></path><path d="M123.958110044,331.381850776 L111.995487025,333.010291533 L101.933392804,342.2353297 L95.7243637409,342.465824715 L92.9717369959,348.543568157 L99.9419453915,349.490997682 L102.085897507,376.899011263 L98.6293939674,380.690667257 L98.3286213537,388.673941552 L88.7137974156,399.624570182 L77.7681929213,398.887503191 L76.5994697718,392.799452911 L66.9141928445,388.581836596 L54.3895409981,374.464958505 L42.1056995603,372.511374008 L24.8206664777,359.158166987 L17.780266262,332.031158542 L15.7609573094,305.686812789 L29.4511308595,281.752102784 L61.8313354701,298.310532778 L67.491276616,298.820637619 L75.7175238768,289.84880452 L95.9299021863,291.852577 L104.087638216,309.87993745 L117.758089282,308.201671115 L113.944436054,314.026441235 L123.958110044,331.381850776 Z" fill="#cee3f5" id="MK.MR" stroke="#6e6e6e" stroke-width="0.4"><desc><labelrank>10</labelrank><code_hasc>MK.MR</code_hasc><name>Mavrovo and Rostusa</name><admin>Macedonia</admin><type_en>Statistical Region</type_en><region>Polog</region><woe_id>24550858</woe_id><longitude>20</longitude><woe_name>Mavrovo and Rostusa</woe_name><fips>MK64</fips><woe_label>Mavrovo and Rostusa Municipality, MK, Macedonia</woe_label><latitude>41</latitude><iso_a2>MK</iso_a2><postal>MR</postal><type>Statistical Region</type><id>MK.MR</id></desc></path><path d="M166.413629457,337.563203583 L168.928122459,342.28238699 L178.609849183,344.220072709 L179.703495525,362.236977208 L166.577806459,374.887695667 L161.637317517,386.814399839 L153.409911558,389.740939086 L151.939520236,380.732051446 L144.986032698,380.731019444 L143.038544612,373.113177367 L148.098268283,362.732562944 L147.875222986,345.97453649 L152.137106981,341.554973373 L166.413629457,337.563203583 Z" fill="#cee3f5" id="MK.OS" stroke="#6e6e6e" stroke-width="0.4"><desc><labelrank>10</labelrank><code_hasc>MK.OS</code_hasc><name>Oslomej</name><admin>Macedonia</admin><type_en>Statistical Region</type_en><region /><woe_id>24550795</woe_id><longitude>21</longitude><woe_name>Oslomej Municipality</woe_name><fips>MK77</fips><woe_label /><latitude>41</latitude><iso_a2>MK</iso_a2><postal>OS</postal><type>Statistical Region</type><id>MK.OS</id></desc></path><path d="M159.963244021,204.268147584 L154.857119704,202.125067227 L153.762244577,190.933529277 L145.408143176,186.550041839 L138.548009657,172.91949453 L126.000474381,166.818995353 L153.031509901,157.630717611 L163.057853968,151.069248995 L187.557047703,178.463730686 L177.097237246,197.691429249 L159.963244021,204.268147584 Z" fill="#cee3f5" id="MK.TR" stroke="#6e6e6e" stroke-width="0.4"><desc><labelrank>10</labelrank><code_hasc>MK.TR</code_hasc><name>Tearce</name><admin>Macedonia</admin><type_en>Municipality</type_en><region /><woe_id>24550861</woe_id><longitude>21</longitude><woe_name>Tearce</woe_name><fips>MKA5</fips><woe_label>Tearce Municipality, MK, Macedonia</woe_label><latitude>42</latitude><iso_a2>MK</iso_a2><postal>TR</postal><type>Opština</type><id>MK.TR</id></desc></path><path d="M159.963244021,204.268147584 L160.497125495,206.59092039 L155.952840542,212.103290845 L164.854532885,222.078403175 L157.415520883,226.520313379 L145.229859293,221.34743157 L140.538800274,226.583976406 L130.326002969,217.20029635 L110.542865854,213.768981285 L84.4234207666,230.917183648 L82.2027017766,211.5660578 L88.33503648,185.795645141 L100.60807955,175.414878535 L126.000474381,166.818995353 L138.548009657,172.91949453 L145.408143176,186.550041839 L153.762244577,190.933529277 L154.857119704,202.125067227 L159.963244021,204.268147584 Z" fill="#cee3f5" id="MK.ET" stroke="#6e6e6e" stroke-width="0.4"><desc><labelrank>10</labelrank><code_hasc>MK.ET</code_hasc><name>Tetovo</name><admin>Macedonia</admin><type_en>Statistical Region</type_en><region /><woe_id>24550862</woe_id><longitude>20</longitude><woe_name>Tetovo</woe_name><fips>MKA6</fips><woe_label>Tetovo Municipality, MK, Macedonia</woe_label><latitude>42</latitude><iso_a2>MK</iso_a2><postal>ET</postal><type>Statistical Region</type><id>MK.ET</id></desc></path><path d="M137.909882706,255.416885452 L139.957885929,264.079539631 L135.651783778,268.064411321 L136.942060397,273.905417333 L134.210259957,277.072784535 L113.440744875,277.527428128 L110.170993214,280.446586837 L100.524396685,277.022970726 L95.4530749811,267.757277387 L84.5404164433,267.004202313 L74.2590754274,260.431644253 L84.2865242325,241.879967363 L90.8030153014,238.788926471 L107.683105895,241.751929459 L137.909882706,255.416885452 Z" fill="#cee3f5" id="MK.VH" stroke="#6e6e6e" stroke-width="0.4"><desc><labelrank>10</labelrank><code_hasc>MK.VH</code_hasc><name>Polog</name><admin>Macedonia</admin><type_en>Statistical Region</type_en><region /><woe_id>24550819</woe_id><longitude>20</longitude><woe_name>Polog</woe_name><fips>MKB7</fips><woe_label>Vrapciste Municipality, MK, Macedonia</woe_label><latitude>41</latitude><iso_a2>MK</iso_a2><postal>VH</postal><type>Statistical Region</type><id>MK.VH</id></desc></path><path d="M140.538800274,226.583976406 L141.854863253,235.218001652 L148.596788168,235.464471934 L148.399735169,238.14474322 L144.576265295,246.175322341 L138.390965135,250.066011933 L137.909882706,255.416885452 L107.683105895,241.751929459 L90.8030153014,238.788926471 L84.2865242325,241.879967363 L84.4234207666,230.917183648 L110.542865854,213.768981285 L130.326002969,217.20029635 L140.538800274,226.583976406 Z" fill="#cee3f5" id="MK.VJ" stroke="#6e6e6e" stroke-width="0.4"><desc><labelrank>10</labelrank><code_hasc>MK.VJ</code_hasc><name>Bogovinje</name><admin>Macedonia</admin><type_en>Statistical Region</type_en><region>Polog</region><woe_id>24550828</woe_id><longitude>20</longitude><woe_name>Bogovinje</woe_name><fips>MK10</fips><woe_label>Bogovinje Municipality, MK, Macedonia</woe_label><latitude>41</latitude><iso_a2>MK</iso_a2><postal>VJ</postal><type>Statistical Region</type><id>MK.VJ</id></desc></path><path d="M157.415520883,226.520313379 L167.025006072,235.45985401 L167.592543359,243.970603291 L175.044163584,248.591452238 L171.232166686,261.497869086 L181.413665019,262.211401519 L186.707861104,266.831126167 L195.427585941,266.572026921 L196.51767399,262.921037899 L200.509890229,262.179535993 L201.984433911,267.828522184 L191.97599764,271.440288966 L181.077408314,285.816898659 L173.508563258,290.348570825 L159.874766969,274.397938019 L159.507160577,268.802436667 L147.860621884,268.314260226 L139.957885929,264.079539631 L137.909882706,255.416885452 L138.390965135,250.066011933 L144.576265295,246.175322341 L148.399735169,238.14474322 L148.596788168,235.464471934 L141.854863253,235.218001652 L140.538800274,226.583976406 L145.229859293,221.34743157 L157.415520883,226.520313379 Z" fill="#cee3f5" id="MK.BN" stroke="#6e6e6e" stroke-width="0.4"><desc><labelrank>10</labelrank><code_hasc>MK.BN</code_hasc><name>Brvenica</name><admin>Macedonia</admin><type_en>Statistical Region</type_en><region>Polog</region><woe_id>24550751</woe_id><longitude>21</longitude><woe_name>Brvenica</woe_name><fips>MK12</fips><woe_label>Brvenica Municipality, MK, Macedonia</woe_label><latitude>41</latitude><iso_a2>MK</iso_a2><postal>BN</postal><type>Statistical Region</type><id>MK.BN</id></desc></path><path d="M74.2590754274,260.431644253 L84.5404164433,267.004202313 L95.4530749811,267.757277387 L100.524396685,277.022970726 L110.170993214,280.446586837 L113.440744875,277.527428128 L134.210259957,277.072784535 L136.942060397,273.905417333 L135.651783778,268.064411321 L139.957885929,264.079539631 L147.860621884,268.314260226 L159.507160577,268.802436667 L159.874766969,274.397938019 L173.508563258,290.348570825 L166.328814693,291.181651049 L164.899556577,303.59615206 L160.139799743,308.225185023 L167.280737468,325.976754829 L166.413629457,337.563203583 L152.137106981,341.554973373 L147.875222986,345.97453649 L136.79003831,334.986010777 L123.958110044,331.381850776 L113.944436054,314.026441235 L117.758089282,308.201671115 L104.087638216,309.87993745 L95.9299021863,291.852577 L75.7175238768,289.84880452 L67.491276616,298.820637619 L61.8313354701,298.310532778 L29.4511308595,281.752102784 L27.2790739468,259.348267709 L34.2181461854,255.161547685 L43.7664046327,263.690773484 L48.2113827433,263.475815054 L54.9684246665,255.087682445 L65.2749943573,265.915301428 L74.2590754274,260.431644253 Z" fill="#cee3f5" id="MK.GT" stroke="#6e6e6e" stroke-width="0.4"><desc><labelrank>10</labelrank><code_hasc>MK.GT</code_hasc><name>Gostivar</name><admin>Macedonia</admin><type_en>Statistical Region</type_en><region>Polog</region><woe_id>24550767</woe_id><longitude>20</longitude><woe_name>Gostivar</woe_name><fips>MK34</fips><woe_label>Gostivar Municipality, MK, Macedonia</woe_label><latitude>41</latitude><iso_a2>MK</iso_a2><postal>GT</postal><type>Statistical Region</type><id>MK.GT</id></desc></path><path d="M214.123539786,171.425868153 L210.474878885,176.432781213 L192.549410508,180.891385315 L196.930560392,185.576321144 L202.169303325,184.098418716 L203.276755879,190.557119548 L197.818694747,195.270946776 L200.563860408,207.200017505 L189.546441029,212.966719126 L174.899196374,215.553249269 L171.670483679,214.474670822 L171.272157525,207.976365983 L160.497125495,206.59092039 L159.963244021,204.268147584 L177.097237246,197.691429249 L187.557047703,178.463730686 L163.057853968,151.069248995 L172.112514405,142.150805696 L182.543908213,138.518421757 L206.116004126,157.858927835 L214.123539786,171.425868153 Z" fill="#cee3f5" id="MK.JG" stroke="#6e6e6e" stroke-width="0.4"><desc><labelrank>10</labelrank><code_hasc>MK.JG</code_hasc><name>Jegunovce</name><admin>Macedonia</admin><type_en>Municipality</type_en><region /><woe_id>24550771</woe_id><longitude>21</longitude><woe_name>Jegunovce Municipality</woe_name><fips>MK38</fips><woe_label /><latitude>42</latitude><iso_a2>MK</iso_a2><postal>JG</postal><type>Opština</type><id>MK.JG</id></desc></path><path d="M610.284025809,396.721750853 L615.894623154,407.177569787 L613.851890574,415.693931946 L624.785018112,415.657258274 L631.641881278,425.558038166 L641.492409295,423.625851682 L644.84654099,445.486674231 L635.483503352,450.972685824 L616.971418338,441.937216091 L607.814323118,453.892782156 L603.615744436,452.411168125 L599.366945541,455.774584436 L591.668097675,455.231271602 L586.57535997,448.23176438 L573.409592309,449.503376583 L567.827822716,435.237209955 L571.797644565,424.095311527 L568.992406197,420.852297971 L557.634923724,419.318309071 L547.89399497,407.630350578 L556.829744772,402.03277029 L563.478198216,403.470360917 L565.056383749,399.821171175 L574.122904487,390.827878385 L584.623243825,395.661772226 L590.359074108,402.818831667 L598.314243928,402.839612877 L610.284025809,396.721750853 Z" fill="#cee3f5" id="MK.RU" stroke="#6e6e6e" stroke-width="0.4"><desc><labelrank>10</labelrank><code_hasc>MK.RU</code_hasc><name>Southeastern</name><admin>Macedonia</admin><type_en>Statistical Region</type_en><region /><woe_id>24550808</woe_id><longitude>22</longitude><woe_name>Southeastern</woe_name><fips>MKA1</fips><woe_label>Strumica Municipality, MK, Macedonia</woe_label><latitude>41</latitude><iso_a2>MK</iso_a2><postal>RU</postal><type>Statistical Region</type><id>MK.RU</id></desc></path><path d="M547.89399497,407.630350578 L557.634923724,419.318309071 L568.992406197,420.852297971 L571.797644565,424.095311527 L567.827822716,435.237209955 L573.409592309,449.503376583 L586.57535997,448.23176438 L591.668097675,455.231271602 L599.366945541,455.774584436 L603.615744436,452.411168125 L607.814323118,453.892782156 L616.971418338,441.937216091 L635.483503352,450.972685824 L630.175568312,463.995085285 L608.221777397,461.834327882 L604.256439949,469.72749333 L592.746909903,470.61095713 L582.268775259,481.488690255 L572.259894904,477.603280482 L570.463130006,488.499680574 L565.469706845,492.161176991 L558.934273006,483.798068575 L554.853234432,455.769802826 L548.925603844,454.15737001 L535.881126432,438.596745711 L518.359195407,432.853303787 L514.909557372,424.092642313 L516.313595748,415.906495016 L525.851479667,410.15182561 L547.89399497,407.630350578 Z" fill="#cee3f5" id="MK.VA" stroke="#6e6e6e" stroke-width="0.4"><desc><labelrank>10</labelrank><code_hasc>MK.VA</code_hasc><name>Valandovo</name><admin>Macedonia</admin><type_en>Statistical Region</type_en><region>Southeastern</region><woe_id>24550813</woe_id><longitude>22</longitude><woe_name>Valandovo</woe_name><fips>MKA8</fips><woe_label>Valandovo Municipality, MK, Macedonia</woe_label><latitude>41</latitude><iso_a2>MK</iso_a2><postal>VA</postal><type>Statistical Region</type><id>MK.VA</id></desc></path><path d="M624.293101482,361.288029282 L624.270611648,382.786253881 L617.307330532,392.614580616 L610.284025809,396.721750853 L598.314243928,402.839612877 L590.359074108,402.818831667 L584.623243825,395.661772226 L574.122904487,390.827878385 L565.056383749,399.821171175 L563.355795847,385.034606822 L562.113628947,377.022498256 L571.733613298,369.412376228 L585.830493183,379.712821153 L589.577199635,377.395337629 L590.78491632,366.300155648 L582.940322435,350.000247415 L587.956332116,340.21804307 L596.84148932,338.273754434 L597.723087253,344.579186135 L602.479219738,339.295502342 L612.940132576,345.801029546 L613.883199903,353.5724975 L610.106921379,359.874300336 L624.293101482,361.288029282 Z" fill="#cee3f5" id="MK.VL" stroke="#6e6e6e" stroke-width="0.4"><desc><labelrank>10</labelrank><code_hasc>MK.VL</code_hasc><name>Vasilevo</name><admin>Macedonia</admin><type_en>Statistical Region</type_en><region>Southeastern</region><woe_id>24550814</woe_id><longitude>22</longitude><woe_name>Vasilevo Municipality</woe_name><fips>MKA9</fips><woe_label /><latitude>41</latitude><iso_a2>MK</iso_a2><postal>VL</postal><type>Statistical Region</type><id>MK.VL</id></desc></path><path d="M582.268775259,481.488690255 L589.066293286,489.76568462 L600.133201854,489.024412884 L608.221369294,493.001123566 L607.654634177,504.501843584 L599.998894874,504.614347739 L598.829203122,513.53534946 L588.605044806,524.116975233 L576.345662268,515.835441506 L569.415615184,514.762602962 L571.40692227,501.812456951 L565.469706845,492.161176991 L570.463130006,488.499680574 L572.259894904,477.603280482 L582.268775259,481.488690255 Z" fill="#cee3f5" id="MK.BG" stroke="#6e6e6e" stroke-width="0.4"><desc><labelrank>10</labelrank><code_hasc>MK.BG</code_hasc><name>Bogdanci</name><admin>Macedonia</admin><type_en>Statistical Region</type_en><region>Southeastern</region><woe_id>24550827</woe_id><longitude>22</longitude><woe_name>Bogdanci</woe_name><fips>MK08</fips><woe_label>Bogdanci Municipality, MK, Macedonia</woe_label><latitude>41</latitude><iso_a2>MK</iso_a2><postal>BG</postal><type>Statistical Region</type><id>MK.BG</id></desc></path><path d="M660.242081545,379.612832643 L660.03979097,388.630837707 L645.267381914,404.853216934 L645.537672908,417.840610769 L641.492409295,423.625851682 L631.641881278,425.558038166 L624.785018112,415.657258274 L613.851890574,415.693931946 L615.894623154,407.177569787 L610.284025809,396.721750853 L617.307330532,392.614580616 L624.270611648,382.786253881 L624.293101482,361.288029282 L636.488579823,373.017719128 L653.883429953,374.555082544 L660.242081545,379.612832643 Z" fill="#cee3f5" id="MK.BS" stroke="#6e6e6e" stroke-width="0.4"><desc><labelrank>10</labelrank><code_hasc>MK.BS</code_hasc><name>Bosilovo</name><admin>Macedonia</admin><type_en>Statistical Region</type_en><region /><woe_id>24550750</woe_id><longitude>22</longitude><woe_name>Bosilovo Municipality</woe_name><fips>MK11</fips><woe_label /><latitude>41</latitude><iso_a2>MK</iso_a2><postal>BS</postal><type>Statistical Region</type><id>MK.BS</id></desc></path><path d="M565.469706845,492.161176991 L571.40692227,501.812456951 L569.415615184,514.762602962 L576.345662268,515.835441506 L588.605044806,524.116975233 L551.472396805,528.557005908 L543.302142056,528.334308237 L531.739664335,522.312282786 L512.124693868,525.060601596 L510.334904432,517.61929811 L485.769833093,512.447232637 L485.948297492,502.321394867 L498.791291468,500.144601427 L495.444829335,484.814680148 L509.618877787,477.382845047 L506.070345653,473.588776245 L503.787607606,459.335035001 L508.758642724,452.178373805 L521.624954858,451.52111783 L518.359195407,432.853303787 L535.881126432,438.596745711 L548.925603844,454.15737001 L554.853234432,455.769802826 L558.934273006,483.798068575 L565.469706845,492.161176991 Z" fill="#cee3f5" id="MK.GV" stroke="#6e6e6e" stroke-width="0.4"><desc><labelrank>10</labelrank><code_hasc>MK.GV</code_hasc><name>Southeastern</name><admin>Macedonia</admin><type_en>Statistical Region</type_en><region /><woe_id>24550840</woe_id><longitude>22</longitude><woe_name>Southeastern</woe_name><fips>MK33</fips><woe_label>Gevgelija Municipality, MK, Macedonia</woe_label><latitude>41</latitude><iso_a2>MK</iso_a2><postal>GV</postal><type>Statistical Region</type><id>MK.GV</id></desc></path><path d="M644.84654099,445.486674231 L641.492409295,423.625851682 L645.537672908,417.840610769 L645.267381914,404.853216934 L660.03979097,388.630837707 L660.242081545,379.612832643 L683.589877286,376.860201492 L687.345504071,409.839109343 L682.794056541,417.826310413 L684.253685665,439.980230959 L677.818839447,445.241856391 L644.84654099,445.486674231 Z" fill="#cee3f5" id="MK.NS" stroke="#6e6e6e" stroke-width="0.4"><desc><labelrank>10</labelrank><code_hasc>MK.NS</code_hasc><name>Novo Selo</name><admin>Macedonia</admin><type_en>Statistical Region</type_en><region>Southeastern</region><woe_id>24550853</woe_id><longitude>22</longitude><woe_name>Novo Selo</woe_name><fips>MK72</fips><woe_label>Novo Selo Municipality, MK, Macedonia</woe_label><latitude>41</latitude><iso_a2>MK</iso_a2><postal>NS</postal><type>Statistical Region</type><id>MK.NS</id></desc></path><path d="M630.175568312,463.995085285 L629.329128186,494.093726557 L623.984241198,515.611505233 L617.423260841,516.116214339 L607.654634177,504.501843584 L608.221369294,493.001123566 L600.133201854,489.024412884 L589.066293286,489.76568462 L582.268775259,481.488690255 L592.746909903,470.61095713 L604.256439949,469.72749333 L608.221777397,461.834327882 L630.175568312,463.995085285 Z" fill="#cee3f5" id="MK.SD" stroke="#6e6e6e" stroke-width="0.4"><desc><labelrank>10</labelrank><code_hasc>MK.SD</code_hasc><name>Dojran</name><admin>Macedonia</admin><type_en>Statistical Region</type_en><region>Southeastern</region><woe_id>24550860</woe_id><longitude>22</longitude><woe_name>Dojran</woe_name><fips>MK00</fips><woe_label>Star Dojran Municipality, MK, Macedonia</woe_label><latitude>41</latitude><iso_a2>MK</iso_a2><postal>SD</postal><type>Statistical Region</type><id>MK.SD</id></desc></path><path d="M588.093632406,211.598021227 L589.199176537,231.598195142 L617.840493506,241.599779128 L607.948954854,275.044814252 L605.364005569,298.615781407 L593.918448163,304.460259243 L585.967554283,302.877609395 L570.563084077,289.478759524 L565.867138028,294.755181972 L556.054272895,295.970604469 L546.029213289,289.640799258 L546.024605029,282.670044876 L546.103323066,263.948008423 L542.496308015,253.538109059 L547.107822081,223.610292959 L551.485792664,223.366242008 L557.133303993,228.282999384 L564.391162135,225.606083362 L573.234151124,225.231407797 L579.423454255,210.404212109 L588.093632406,211.598021227 Z" fill="#cee3f5" id="MK.NI" stroke="#6e6e6e" stroke-width="0.4"><desc><labelrank>10</labelrank><code_hasc>MK.NI</code_hasc><name>Vinitsa</name><admin>Macedonia</admin><type_en>Statistical Region</type_en><region>Eastern</region><woe_id>24550817</woe_id><longitude>22</longitude><woe_name>Vinica Municipality</woe_name><fips>MKB4</fips><woe_label /><latitude>41</latitude><iso_a2>MK</iso_a2><postal>NI</postal><type>Statistical Region</type><id>MK.NI</id></desc></path><path d="M630.745540218,281.38261439 L639.027641742,303.134478005 L643.753129396,299.9215553 L659.464418577,301.656911782 L664.144817339,308.132296225 L672.210462021,308.133711955 L693.743225188,320.547619452 L688.963464782,331.638044287 L683.228084222,333.941848034 L680.697341526,339.428106721 L680.387385553,354.574811102 L684.676832889,363.078528021 L683.589877286,376.860201492 L660.242081545,379.612832643 L653.883429953,374.555082544 L636.488579823,373.017719128 L624.293101482,361.288029282 L610.106921379,359.874300336 L613.883199903,353.5724975 L612.940132576,345.801029546 L602.479219738,339.295502342 L597.723087253,344.579186135 L596.84148932,338.273754434 L595.336921647,330.343061124 L600.668513918,319.864914614 L595.228932652,315.64047781 L593.918448163,304.460259243 L605.364005569,298.615781407 L607.948954854,275.044814252 L630.745540218,281.38261439 Z" fill="#cee3f5" id="MK.BR" stroke="#6e6e6e" stroke-width="0.4"><desc><labelrank>10</labelrank><code_hasc>MK.BR</code_hasc><name>Berovo</name><admin>Macedonia</admin><type_en>Statistical Region</type_en><region>Southeastern</region><woe_id>24550826</woe_id><longitude>22</longitude><woe_name>Berovo</woe_name><fips>MK04</fips><woe_label>Berovo Municipality, MK, Macedonia</woe_label><latitude>41</latitude><iso_a2>MK</iso_a2><postal>BR</postal><type>Statistical Region</type><id>MK.BR</id></desc></path><path d="M663.992327598,250.413295958 L650.487448421,262.735574676 L645.392993167,273.400710007 L635.44617289,281.229568254 L630.745540218,281.38261439 L607.948954854,275.044814252 L617.840493506,241.599779128 L589.199176537,231.598195142 L588.093632406,211.598021227 L588.030685292,203.752612376 L592.761575004,201.593490986 L593.206386212,176.298730924 L620.0168144,189.120094989 L635.15471671,188.555790108 L640.230106913,196.438127431 L650.903757712,196.851114051 L663.992327598,250.413295958 Z" fill="#cee3f5" id="MK.DL" stroke="#6e6e6e" stroke-width="0.4"><desc><labelrank>10</labelrank><code_hasc>MK.DL</code_hasc><name>Delcevo</name><admin>Macedonia</admin><type_en>Statistical Region</type_en><region>Eastern</region><woe_id>24550838</woe_id><longitude>22</longitude><woe_name>Delcevo</woe_name><fips>MK22</fips><woe_label>Delcevo Municipality, MK, Macedonia</woe_label><latitude>41</latitude><iso_a2>MK</iso_a2><postal>DL</postal><type>Statistical Region</type><id>MK.DL</id></desc></path><path d="M593.206386212,176.298730924 L592.761575004,201.593490986 L588.030685292,203.752612376 L588.093632406,211.598021227 L579.423454255,210.404212109 L573.234151124,225.231407797 L564.391162135,225.606083362 L555.947972264,194.040227546 L546.921633279,186.236533995 L546.474978923,174.823014476 L543.050868007,171.24963329 L539.141448101,175.46412629 L536.077319669,169.870481735 L560.152783619,151.488788593 L593.206386212,176.298730924 Z" fill="#cee3f5" id="MK.MK" stroke="#6e6e6e" stroke-width="0.4"><desc><labelrank>10</labelrank><code_hasc>MK.MK</code_hasc><name>Makedonska Kamenica</name><admin>Macedonia</admin><type_en>Statistical Region</type_en><region>Eastern</region><woe_id>24550851</woe_id><longitude>22</longitude><woe_name>Makedonska Kamenica</woe_name><fips>MK52</fips><woe_label>Makedonska Kamenica Municipality, MK, Macedonia</woe_label><latitude>42</latitude><iso_a2>MK</iso_a2><postal>MK</postal><type>Statistical Region</type><id>MK.MK</id></desc></path><path d="M693.743225188,320.547619452 L672.210462021,308.133711955 L664.144817339,308.132296225 L659.464418577,301.656911782 L643.753129396,299.9215553 L639.027641742,303.134478005 L630.745540218,281.38261439 L635.44617289,281.229568254 L645.392993167,273.400710007 L650.487448421,262.735574676 L663.992327598,250.413295958 L669.328914151,254.37466174 L682.201020146,287.255602556 L694.606869212,290.010969901 L699.602447067,297.563973655 L700.0,306.13664606 L693.743225188,320.547619452 Z" fill="#cee3f5" id="MK.PH" stroke="#6e6e6e" stroke-width="0.4"><desc><labelrank>10</labelrank><code_hasc>MK.PH</code_hasc><name>Phecevo</name><admin>Macedonia</admin><type_en>Statistical Region</type_en><region>Eastern</region><woe_id>24550854</woe_id><longitude>22</longitude><woe_name>Pehcevo Municipality</woe_name><fips>MK78</fips><woe_label /><latitude>41</latitude><iso_a2>MK</iso_a2><postal>PH</postal><type>Statistical Region</type><id>MK.PH</id></desc></path><path d="M65.6177620386,418.45350254 L66.3225282856,419.293002981 L77.6058553311,441.693282093 L78.6571256958,459.215645705 L86.1335544973,473.352308912 L83.1686763397,487.938255975 L78.0044657198,495.953422908 L80.8002796409,510.941620832 L56.6455245083,545.668779001 L35.501342349,538.936708269 L32.4406606471,519.305924828 L18.039873452,496.397596481 L40.6527685877,492.472695089 L49.4021142271,486.138386037 L48.210658674,483.544007973 L33.3425966082,480.686326468 L13.3867617168,481.773079708 L9.80310561282,448.653519495 L13.7362578692,449.91802156 L21.2868826856,443.039388542 L25.6594220884,426.270463292 L55.1376999164,426.528607072 L63.8632161082,418.24016457 L65.6177620386,418.45350254 Z" fill="#cee3f5" id="MK.UG" stroke="#6e6e6e" stroke-width="0.4"><desc><labelrank>10</labelrank><code_hasc>MK.UG</code_hasc><name>Struga</name><admin>Macedonia</admin><type_en>Statistical Region</type_en><region>Southwestern</region><woe_id>24550846</woe_id><longitude>20</longitude><woe_name>Struga Municipality</woe_name><fips>MKE6</fips><woe_label>Struga Municipality, MK, Macedonia</woe_label><latitude>41</latitude><iso_a2>MK</iso_a2><postal>UG</postal><type>Statistical Region</type><id>MK.UG</id></desc></path><path d="M478.087661359,163.224560099 L475.2733067,164.298802803 L474.639410799,171.080616141 L461.517609791,174.730758153 L448.953641572,163.165175796 L438.362302781,160.664826933 L436.898570071,153.251757098 L429.193201691,148.115429798 L435.523680918,146.166731623 L428.266572606,119.831720463 L436.310223292,114.616662193 L434.451627574,97.4842616222 L459.420834208,91.0853709268 L460.660136607,99.8167884072 L474.331788342,109.901508345 L478.087661359,163.224560099 Z" fill="#cee3f5" id="MK.RN" stroke="#6e6e6e" stroke-width="0.4"><desc><labelrank>10</labelrank><code_hasc>MK.RN</code_hasc><name>Rankovce</name><admin>Macedonia</admin><type_en>Statistical Region</type_en><region>Northeastern</region><woe_id>24550844</woe_id><longitude>22</longitude><woe_name>Rankovce Municipality</woe_name><fips>MK85</fips><woe_label>Rankovce Municipality, MK, Macedonia</woe_label><latitude>42</latitude><iso_a2>MK</iso_a2><postal>KZ</postal><type>Statistical Region</type><id>MK.RN</id></desc></path><path d="M266.789675961,197.515211822 L266.412613413,206.376560415 L257.42691077,198.603568214 L257.595301436,192.461359605 L261.733383154,189.93102276 L266.789675961,197.515211822 Z" fill="#cee3f5" id="MK.SO" stroke="#6e6e6e" stroke-width="0.4"><desc><labelrank>10</labelrank><code_hasc>MK.SO</code_hasc><name>Šuto Orizari</name><admin>Macedonia</admin><type_en>Municipality</type_en><region>Greater Skopje</region><woe_id>24550756</woe_id><longitude>21</longitude><woe_name>Centar Municipality</woe_name><fips>MK17</fips><woe_label /><latitude>42</latitude><iso_a2>MK</iso_a2><postal>SO</postal><type>Municipality</type><id>MK.SO</id></desc></path></svg>