<?xml version='1.0' encoding='utf-8'?>
<svg height="700" width="700" xmlns="http://www.w3.org/2000/svg"><path d="M261.672727273,386.781818182 L268.036363636,399.763636364 L280.254545455,409.436363636 L282.545454545,417.836363636 L290.436363636,421.909090909 L292.981818182,424.2 L284.836363636,438.454545455 L285.090909091,442.781818182 L319.963636364,442.018181818 L351.527272727,449.4 L351.781818182,452.709090909 L361.2,455.509090909 L353.309090909,460.854545455 L347.963636364,470.527272727 L339.054545455,478.163636364 L340.327272727,491.4 L338.8,495.472727273 L332.945454545,497.254545455 L324.036363636,505.4 L301.127272727,505.909090909 L295.527272727,509.472727273 L290.945454545,507.945454545 L284.836363636,510.745454545 L281.272727273,516.6 L286.363636364,527.545454545 L284.581818182,529.581818182 L299.090909091,548.418181818 L295.018181818,546.381818182 L291.709090909,549.436363636 L291.454545455,557.836363636 L288.654545455,561.4 L277.454545455,553.0 L258.872727273,555.290909091 L250.218181818,547.145454545 L238.254545455,547.145454545 L229.6,540.272727273 L226.290909091,542.054545455 L213.309090909,534.163636364 L200.836363636,532.636363636 L194.981818182,525.254545455 L183.018181818,524.745454545 L177.418181818,520.672727273 L177.672727273,513.036363636 L169.018181818,502.6 L181.745454545,495.218181818 L186.327272727,489.109090909 L185.818181818,475.109090909 L188.109090909,472.309090909 L199.818181818,466.963636364 L202.872727273,476.127272727 L208.218181818,482.745454545 L215.6,483.0 L215.090909091,478.927272727 L197.527272727,456.527272727 L169.018181818,439.981818182 L167.745454545,437.945454545 L172.072727273,427.509090909 L174.363636364,423.945454545 L180.727272727,421.654545455 L183.018181818,417.072727273 L185.563636364,403.581818182 L203.127272727,396.963636364 L211.781818182,396.454545455 L218.145454545,387.036363636 L233.418181818,381.945454545 L248.181818182,387.545454545 L261.672727273,386.781818182 Z" fill="#cee3f5" id="TZ.MB" stroke="#6e6e6e" stroke-width="0.4"><desc><labelrank>6</labelrank><code_hasc>TZ.MB</code_hasc><name>Mbeya</name><admin>United Republic of Tanzania</admin><type_en>Region</type_en><region /><woe_id>2347360</woe_id><longitude>33</longitude><woe_name>Mbeya</woe_name><fips>TZ09</fips><woe_label>Mbeya, TZ, Tanzania</woe_label><latitude>-8</latitude><iso_a2>TZ</iso_a2><postal>MB</postal><type>Mkoa</type><id>TZ.MB</id></desc></path><path d="M169.018181818,439.981818182 L197.527272727,456.527272727 L215.090909091,478.927272727 L215.6,483.0 L208.218181818,482.745454545 L202.872727273,476.127272727 L199.818181818,466.963636364 L188.109090909,472.309090909 L185.818181818,475.109090909 L186.327272727,489.109090909 L181.745454545,495.218181818 L169.018181818,502.6 L177.672727273,513.036363636 L177.418181818,520.672727273 L164.436363636,520.163636364 L164.436363636,512.018181818 L155.018181818,509.472727273 L147.636363636,510.745454545 L140.254545455,504.381818182 L139.236363636,497.509090909 L127.527272727,490.381818182 L121.927272727,492.672727273 L118.363636364,489.872727273 L110.218181818,492.163636364 L102.836363636,488.090909091 L94.6909090909,477.909090909 L83.7454545455,448.890909091 L70.2545454545,428.018181818 L61.0909090909,399.763636364 L78.9090909091,387.036363636 L99.5272727273,384.236363636 L104.872727273,386.272727273 L110.472727273,404.090909091 L129.563636364,405.618181818 L132.872727273,409.690909091 L136.436363636,434.890909091 L169.018181818,439.981818182 Z" fill="#cee3f5" id="TZ.RK" stroke="#6e6e6e" stroke-width="0.4"><desc><labelrank>5</labelrank><code_hasc>TZ.RK</code_hasc><name>Rukwa</name><admin>United Republic of Tanzania</admin><type_en>Region</type_en><region /><woe_id>2347375</woe_id><longitude>31</longitude><woe_name>Rukwa</woe_name><fips>TZ24</fips><woe_label>Rukwa, TZ, Tanzania</woe_label><latitude>-7</latitude><iso_a2>TZ</iso_a2><postal>RK</postal><type>Mkoa</type><id>TZ.RK</id></desc></path><path d="M628.218181818,343.0 L625.927272727,329.763636364 L633.309090909,327.472727273 L636.109090909,331.8 L635.090909091,339.690909091 L637.636363636,340.963636364 L640.436363636,339.945454545 L640.181818182,335.363636364 L644.509090909,353.945454545 L638.4,355.981818182 L635.090909091,346.563636364 L634.581818182,350.636363636 L632.545454545,350.381818182 L628.218181818,343.0 Z" fill="#cee3f5" id="TZ.ZS" stroke="#6e6e6e" stroke-width="0.4"><desc><labelrank>5</labelrank><code_hasc>TZ.ZS</code_hasc><name>Zanzibar South and Central</name><admin>United Republic of Tanzania</admin><type_en>Region</type_en><region /><woe_id>2347372</woe_id><longitude>39</longitude><woe_name>Zanzibar South and Central</woe_name><fips>TZ21</fips><woe_label>Zanzibar South and Central, TZ, Tanzania</woe_label><latitude>-6</latitude><iso_a2>TZ</iso_a2><postal>ZS</postal><type>Mkoa</type><id>TZ.ZS</id></desc></path><path d="M253.781818182,86.4181818182 L263.709090909,103.981818182 L280.763636364,120.272727273 L274.654545455,125.618181818 L270.327272727,124.345454545 L263.454545455,128.418181818 L264.472727273,137.072727273 L257.854545455,155.909090909 L244.618181818,159.472727273 L242.327272727,164.054545455 L238.254545455,166.090909091 L229.090909091,161.509090909 L222.472727273,154.890909091 L217.127272727,155.4 L211.272727273,158.963636364 L211.527272727,166.854545455 L209.236363636,166.854545455 L201.854545455,162.018181818 L200.327272727,151.072727273 L205.927272727,136.309090909 L200.327272727,131.727272727 L202.109090909,126.890909091 L190.909090909,120.527272727 L194.472727273,114.163636364 L183.781818182,112.381818182 L165.454545455,100.418181818 L160.618181818,85.1454545455 L212.545454545,42.3818181818 L252.254545455,42.6363636364 L259.890909091,45.6909090909 L259.890909091,59.1818181818 L255.563636364,57.4 L252.763636364,59.4363636364 L248.945454545,70.8909090909 L250.981818182,72.4181818182 L260.4,68.3454545455 L262.181818182,71.1454545455 L260.4,72.6727272727 L267.272727273,74.9636363636 L266.0,77.7636363636 L262.436363636,77.5090909091 L256.327272727,74.2 L255.054545455,79.2909090909 L248.945454545,75.9818181818 L249.2,79.2909090909 L245.127272727,78.5272727273 L245.127272727,84.8909090909 L248.945454545,82.8545454545 L253.781818182,86.4181818182 Z" fill="#cee3f5" id="TZ.MW" stroke="#6e6e6e" stroke-width="0.4"><desc><labelrank>7</labelrank><code_hasc>TZ.MW</code_hasc><name>Mwanza</name><admin>United Republic of Tanzania</admin><type_en>Region</type_en><region /><woe_id>2347363</woe_id><longitude>32</longitude><woe_name>Mwanza</woe_name><fips>TZ12</fips><woe_label>Mwanza, TZ, Tanzania</woe_label><latitude>-2</latitude><iso_a2>TZ</iso_a2><postal>MW</postal><type>Mkoa</type><id>TZ.MW</id></desc></path><path d="M257.854545455,155.909090909 L274.145454545,165.836363636 L281.781818182,165.072727273 L288.4,171.181818182 L304.181818182,173.472727273 L311.054545455,190.018181818 L320.218181818,199.181818182 L312.327272727,204.018181818 L306.472727273,206.054545455 L295.272727273,203.509090909 L288.4,199.181818182 L273.890909091,197.4 L268.8,194.090909091 L255.563636364,194.6 L239.272727273,199.181818182 L230.109090909,195.618181818 L222.727272727,196.127272727 L213.309090909,200.454545455 L213.054545455,207.327272727 L209.236363636,210.890909091 L214.327272727,214.2 L213.309090909,217.509090909 L205.672727273,219.545454545 L204.909090909,215.472727273 L201.6,213.181818182 L197.781818182,214.709090909 L193.963636364,225.4 L181.745454545,221.581818182 L166.472727273,228.709090909 L165.709090909,210.636363636 L161.890909091,207.581818182 L148.909090909,204.018181818 L148.909090909,195.618181818 L158.072727273,185.436363636 L176.654545455,181.109090909 L175.636363636,163.545454545 L179.709090909,155.909090909 L184.036363636,153.618181818 L190.145454545,158.709090909 L194.472727273,153.618181818 L200.327272727,151.072727273 L201.854545455,162.018181818 L209.236363636,166.854545455 L211.527272727,166.854545455 L211.272727273,158.963636364 L217.127272727,155.4 L222.472727273,154.890909091 L229.090909091,161.509090909 L238.254545455,166.090909091 L242.327272727,164.054545455 L244.618181818,159.472727273 L257.854545455,155.909090909 Z" fill="#cee3f5" id="TZ.SH" stroke="#6e6e6e" stroke-width="0.4"><desc><labelrank>6</labelrank><code_hasc>TZ.SH</code_hasc><name>Shinyanga</name><admin>United Republic of Tanzania</admin><type_en>Region</type_en><region /><woe_id>2347366</woe_id><longitude>33</longitude><woe_name>Shinyanga</woe_name><fips>TZ15</fips><woe_label>Shinyanga, TZ, Tanzania</woe_label><latitude>-3</latitude><iso_a2>TZ</iso_a2><postal>SH</postal><type>Mkoa</type><id>TZ.SH</id></desc></path><path d="M312.327272727,204.018181818 L310.545454545,210.890909091 L305.2,211.654545455 L291.709090909,232.781818182 L290.436363636,238.381818182 L289.672727273,274.018181818 L308.763636364,289.036363636 L297.818181818,302.018181818 L301.127272727,307.872727273 L297.818181818,312.963636364 L294.254545455,331.8 L295.272727273,341.218181818 L263.963636364,366.672727273 L264.472727273,381.181818182 L261.672727273,386.781818182 L248.181818182,387.545454545 L233.418181818,381.945454545 L218.145454545,387.036363636 L211.781818182,396.454545455 L203.127272727,396.963636364 L205.163636364,371.0 L206.945454545,365.4 L214.327272727,356.745454545 L213.309090909,352.672727273 L200.581818182,350.127272727 L195.490909091,343.763636364 L181.236363636,334.090909091 L171.309090909,312.963636364 L157.563636364,309.4 L144.836363636,316.527272727 L122.690909091,315.0 L119.381818182,311.436363636 L114.8,312.2 L114.036363636,304.818181818 L107.418181818,299.981818182 L109.454545455,295.909090909 L119.890909091,291.581818182 L117.6,281.4 L121.163636364,265.618181818 L119.636363636,262.054545455 L129.818181818,254.672727273 L130.072727273,246.272727273 L134.654545455,244.236363636 L136.181818182,240.672727273 L131.6,224.127272727 L135.418181818,217.254545455 L148.4,214.963636364 L145.6,209.618181818 L148.909090909,204.018181818 L161.890909091,207.581818182 L165.709090909,210.636363636 L166.472727273,228.709090909 L181.745454545,221.581818182 L193.963636364,225.4 L197.781818182,214.709090909 L201.6,213.181818182 L204.909090909,215.472727273 L205.672727273,219.545454545 L213.309090909,217.509090909 L214.327272727,214.2 L209.236363636,210.890909091 L213.054545455,207.327272727 L213.309090909,200.454545455 L222.727272727,196.127272727 L230.109090909,195.618181818 L239.272727273,199.181818182 L255.563636364,194.6 L268.8,194.090909091 L273.890909091,197.4 L288.4,199.181818182 L295.272727273,203.509090909 L306.472727273,206.054545455 L312.327272727,204.018181818 Z" fill="#cee3f5" id="TZ.TB" stroke="#6e6e6e" stroke-width="0.4"><desc><labelrank>6</labelrank><code_hasc>TZ.TB</code_hasc><name>Tabora</name><admin>United Republic of Tanzania</admin><type_en>Region</type_en><region /><woe_id>2347368</woe_id><longitude>32</longitude><woe_name>Tabora</woe_name><fips>TZ17</fips><woe_label>Tabora, TZ, Tanzania</woe_label><latitude>-6</latitude><iso_a2>TZ</iso_a2><postal>TB</postal><type>Mkoa</type><id>TZ.TB</id></desc></path><path d="M213.818181818,13.1090909091 L212.545454545,42.3818181818 L160.618181818,85.1454545455 L152.472727273,87.1818181818 L151.2,93.5454545455 L145.345454545,98.1272727273 L128.290909091,92.5272727273 L115.818181818,93.5454545455 L106.654545455,109.327272727 L99.7818181818,112.636363636 L97.4909090909,119.0 L103.6,124.6 L104.363636364,128.672727273 L93.9272727273,138.090909091 L82.7272727273,137.072727273 L76.3636363636,132.490909091 L73.3090909091,135.290909091 L68.7272727273,129.436363636 L75.3454545455,116.709090909 L68.4727272727,117.981818182 L74.5818181818,105.0 L77.3818181818,100.927272727 L82.7272727273,100.927272727 L85.0181818182,97.8727272727 L90.3636363636,99.9090909091 L94.9454545455,97.6181818182 L98.2545454545,81.0727272727 L93.9272727273,77.0 L94.4363636364,71.6545454545 L92.6545454545,71.4 L95.2,65.5454545455 L94.6909090909,50.2727272727 L92.4,50.0181818182 L89.0909090909,43.6545454545 L88.8363636364,38.5636363636 L77.3818181818,32.9636363636 L74.5818181818,23.5454545455 L71.7818181818,22.7818181818 L72.2909090909,16.9272727273 L82.7272727273,17.4363636364 L91.3818181818,12.0909090909 L213.818181818,13.1090909091 Z" fill="#cee3f5" id="TZ.KR" stroke="#6e6e6e" stroke-width="0.4"><desc><labelrank>5</labelrank><code_hasc>TZ.KR</code_hasc><name>Kagera</name><admin>United Republic of Tanzania</admin><type_en>Region</type_en><region /><woe_id>2347370</woe_id><longitude>31</longitude><woe_name>Kagera</woe_name><fips>TZ19</fips><woe_label>Kagera, TZ, Tanzania</woe_label><latitude>-1</latitude><iso_a2>TZ</iso_a2><postal>KR</postal><type>Mkoa</type><id>TZ.KR</id></desc></path><path d="M131.6,224.127272727 L136.181818182,240.672727273 L134.654545455,244.236363636 L130.072727273,246.272727273 L129.818181818,254.672727273 L119.636363636,262.054545455 L121.163636364,265.618181818 L117.6,281.4 L119.890909091,291.581818182 L109.454545455,295.909090909 L102.836363636,280.890909091 L98.2545454545,284.454545455 L88.3272727273,276.563636364 L68.2181818182,276.563636364 L59.5636363636,284.709090909 L43.0181818182,285.727272727 L41.7454545455,287.0 L49.8909090909,297.436363636 L53.9636363636,321.363636364 L61.6,338.927272727 L66.4363636364,343.0 L67.2,352.163636364 L61.3454545455,356.236363636 L57.7818181818,364.127272727 L40.4727272727,378.127272727 L24.1818181818,366.418181818 L12.7272727273,344.781818182 L9.41818181818,327.727272727 L18.0727272727,308.890909091 L5.68434188608e-14,259.509090909 L5.09090909091,229.981818182 L25.7090909091,230.745454545 L29.0181818182,225.145454545 L42.7636363636,218.781818182 L62.1090909091,188.490909091 L66.4363636364,188.236363636 L65.9272727273,183.145454545 L69.7454545455,173.472727273 L82.7272727273,165.072727273 L80.4363636364,162.272727273 L82.7272727273,159.727272727 L92.9090909091,155.909090909 L94.9454545455,148.018181818 L91.3818181818,141.654545455 L93.9272727273,138.090909091 L104.363636364,128.672727273 L109.709090909,134.781818182 L105.636363636,151.327272727 L108.945454545,150.054545455 L112.254545455,152.6 L118.363636364,167.872727273 L119.127272727,178.818181818 L128.036363636,194.345454545 L126.509090909,211.654545455 L131.6,224.127272727 Z" fill="#cee3f5" id="TZ.KM" stroke="#6e6e6e" stroke-width="0.4"><desc><labelrank>7</labelrank><code_hasc>TZ.KM</code_hasc><name>Kigoma</name><admin>United Republic of Tanzania</admin><type_en>Region</type_en><region /><woe_id>2347356</woe_id><longitude>30</longitude><woe_name>Kigoma</woe_name><fips>TZ05</fips><woe_label>Kigoma, TZ, Tanzania</woe_label><latitude>-4</latitude><iso_a2>TZ</iso_a2><postal>KM</postal><type>Mkoa</type><id>TZ.KM</id></desc></path><path d="M636.109090909,401.8 L634.581818182,401.036363636 L634.327272727,392.127272727 L631.272727273,388.054545455 L624.4,387.545454545 L622.872727273,389.581818182 L619.563636364,391.363636364 L613.709090909,393.909090909 L610.4,392.381818182 L613.454545455,386.781818182 L614.727272727,386.018181818 L615.490909091,385.0 L614.727272727,383.472727273 L614.472727273,382.454545455 L612.690909091,381.181818182 L612.181818182,379.145454545 L612.181818182,377.872727273 L611.418181818,377.109090909 L609.890909091,377.109090909 L610.145454545,376.090909091 L611.927272727,373.8 L614.218181818,365.4 L615.236363636,364.381818182 L616.254545455,363.109090909 L616.763636364,362.6 L616.763636364,362.6 L617.018181818,362.854545455 L618.545454545,364.127272727 L622.109090909,367.945454545 L624.145454545,373.545454545 L626.436363636,373.290909091 L626.436363636,379.654545455 L638.145454545,381.436363636 L643.490909091,390.090909091 L643.236363636,397.981818182 L640.181818182,401.545454545 L638.909090909,400.018181818 L636.109090909,401.8 L636.109090909,401.8 Z" fill="#cee3f5" id="TZ.DS" stroke="#6e6e6e" stroke-width="0.4"><desc><labelrank>9</labelrank><code_hasc>TZ.DS</code_hasc><name>Dar-Es-Salaam</name><admin>United Republic of Tanzania</admin><type_en>Region</type_en><region /><woe_id>2347374</woe_id><longitude>39</longitude><woe_name>Dar-Es-Salaam</woe_name><fips>TZ23</fips><woe_label>Dar es Salaam, TZ, Tanzania</woe_label><latitude>-6</latitude><iso_a2>TZ</iso_a2><postal>DS</postal><type>Mkoa</type><id>TZ.DS</id></desc></path><path d="M533.272727273,320.854545455 L544.981818182,339.690909091 L549.563636364,343.254545455 L549.563636364,348.345454545 L548.290909091,358.018181818 L546.763636364,361.836363636 L545.490909091,363.109090909 L545.490909091,364.381818182 L545.236363636,364.381818182 L547.272727273,367.945454545 L558.472727273,371.763636364 L565.090909091,371.0 L563.818181818,383.218181818 L566.363636364,386.781818182 L576.036363636,388.563636364 L577.054545455,389.327272727 L577.309090909,391.618181818 L578.327272727,393.145454545 L576.8,396.454545455 L572.981818182,401.8 L568.145454545,403.581818182 L566.363636364,405.872727273 L564.836363636,410.454545455 L568.909090909,420.890909091 L568.654545455,423.181818182 L552.109090909,426.745454545 L547.781818182,425.981818182 L542.181818182,427.0 L539.636363636,427.763636364 L537.854545455,429.545454545 L536.836363636,442.018181818 L536.072727273,442.781818182 L535.818181818,443.290909091 L535.563636364,443.290909091 L535.563636364,443.545454545 L535.054545455,444.054545455 L534.8,444.309090909 L534.290909091,447.109090909 L534.036363636,448.381818182 L533.781818182,449.145454545 L533.272727273,449.909090909 L533.018181818,450.418181818 L532.254545455,451.436363636 L532.0,452.2 L528.181818182,455.254545455 L526.909090909,457.290909091 L525.636363636,458.563636364 L525.381818182,459.072727273 L525.381818182,459.581818182 L525.381818182,460.090909091 L523.090909091,463.145454545 L522.836363636,464.163636364 L522.581818182,465.181818182 L521.563636364,465.690909091 L520.290909091,465.945454545 L519.527272727,466.454545455 L519.018181818,466.963636364 L516.727272727,470.272727273 L515.963636364,472.054545455 L515.2,473.327272727 L514.945454545,474.345454545 L514.436363636,474.854545455 L506.036363636,484.781818182 L505.527272727,486.563636364 L506.8,492.163636364 L502.218181818,504.381818182 L502.981818182,509.981818182 L502.981818182,512.018181818 L504.763636364,516.090909091 L504.254545455,520.163636364 L506.036363636,522.709090909 L505.527272727,525.254545455 L501.963636364,526.272727273 L499.163636364,528.818181818 L492.036363636,551.727272727 L487.2,553.0 L474.727272727,561.145454545 L461.745454545,573.363636364 L451.818181818,576.672727273 L450.036363636,573.872727273 L455.636363636,564.2 L450.290909091,550.963636364 L442.909090909,562.163636364 L428.4,563.436363636 L425.6,560.890909091 L418.218181818,567.254545455 L404.981818182,567.254545455 L402.436363636,565.218181818 L414.909090909,543.581818182 L413.636363636,528.054545455 L406.0,536.2 L400.909090909,537.727272727 L399.890909091,531.872727273 L387.927272727,522.454545455 L383.6,516.090909091 L380.036363636,516.854545455 L377.745454545,507.181818182 L378.509090909,496.745454545 L396.581818182,499.290909091 L399.127272727,507.181818182 L402.181818182,493.436363636 L414.4,485.036363636 L416.690909091,478.418181818 L425.854545455,468.745454545 L431.454545455,465.181818182 L439.6,464.672727273 L441.890909091,455.254545455 L452.072727273,449.654545455 L463.527272727,451.945454545 L468.109090909,450.672727273 L473.454545455,439.727272727 L480.836363636,431.581818182 L471.418181818,431.581818182 L469.381818182,427.0 L452.581818182,421.909090909 L450.036363636,413.763636364 L452.327272727,411.472727273 L452.581818182,399.509090909 L455.127272727,393.909090909 L460.472727273,390.6 L462.254545455,366.927272727 L464.036363636,367.181818182 L468.109090909,355.472727273 L473.963636364,349.109090909 L472.181818182,334.345454545 L474.218181818,327.727272727 L486.690909091,319.327272727 L487.709090909,325.945454545 L491.272727273,327.472727273 L490.509090909,331.8 L493.563636364,334.6 L505.527272727,323.145454545 L507.563636364,314.236363636 L516.218181818,317.290909091 L522.581818182,326.2 L533.272727273,320.854545455 Z" fill="#cee3f5" id="TZ.MO" stroke="#6e6e6e" stroke-width="0.4"><desc><labelrank>6</labelrank><code_hasc>TZ.MO</code_hasc><name>Morogoro</name><admin>United Republic of Tanzania</admin><type_en>Region</type_en><region /><woe_id>2347361</woe_id><longitude>36</longitude><woe_name>Morogoro</woe_name><fips>TZ10</fips><woe_label>Morogoro, TZ, Tanzania</woe_label><latitude>-8</latitude><iso_a2>TZ</iso_a2><postal>MO</postal><type>Mkoa</type><id>TZ.MO</id></desc></path><path d="M662.581818182,276.054545455 L659.781818182,277.327272727 L658.509090909,277.072727273 L658.0,274.527272727 L656.218181818,274.527272727 L655.454545455,274.781818182 L654.945454545,274.527272727 L653.927272727,275.290909091 L652.145454545,273.254545455 L654.436363636,269.690909091 L651.381818182,267.4 L651.636363636,263.836363636 L653.927272727,263.072727273 L651.381818182,261.036363636 L651.890909091,257.727272727 L660.545454545,264.090909091 L663.6,258.745454545 L664.109090909,263.836363636 L660.8,270.963636364 L661.563636364,273.254545455 L663.090909091,271.727272727 L663.090909091,273.0 L662.581818182,275.290909091 L662.581818182,276.054545455 Z" fill="#cee3f5" id="TZ.PN" stroke="#6e6e6e" stroke-width="0.4"><desc><labelrank>5</labelrank><code_hasc>TZ.PN</code_hasc><name>Kaskazini-Pemba</name><admin>United Republic of Tanzania</admin><type_en>Region</type_en><region /><woe_id>2347364</woe_id><longitude>39</longitude><woe_name>Kaskazini-Pemba</woe_name><fips>TZ13</fips><woe_label>Pemba North, TZ, Tanzania</woe_label><latitude>-5</latitude><iso_a2>TZ</iso_a2><postal>PN</postal><type>Mkoa</type><id>TZ.PN</id></desc></path><path d="M658.509090909,277.072727273 L659.781818182,277.327272727 L660.8,276.563636364 L662.581818182,276.054545455 L662.581818182,276.054545455 L659.018181818,290.309090909 L658.0,288.781818182 L654.690909091,293.109090909 L655.2,291.836363636 L649.6,291.581818182 L649.854545455,285.981818182 L652.654545455,286.236363636 L650.618181818,282.672727273 L658.0,279.618181818 L649.6,276.563636364 L655.709090909,277.581818182 L655.2,277.072727273 L655.709090909,275.8 L655.454545455,274.781818182 L656.218181818,274.527272727 L658.0,274.527272727 L658.509090909,277.072727273 Z" fill="#cee3f5" id="TZ.PS" stroke="#6e6e6e" stroke-width="0.4"><desc><labelrank>5</labelrank><code_hasc>TZ.PS</code_hasc><name>Kusini-Pemba</name><admin>United Republic of Tanzania</admin><type_en>Region</type_en><region /><woe_id>2347371</woe_id><longitude>39</longitude><woe_name>Kusini-Pemba</woe_name><fips>TZ20</fips><woe_label>Pemba South, TZ, Tanzania</woe_label><latitude>-5</latitude><iso_a2>TZ</iso_a2><postal>PS</postal><type>Mkoa</type><id>TZ.PS</id></desc></path><path d="M655.963636364,457.545454545 L652.909090909,459.072727273 L655.454545455,452.963636364 L659.018181818,452.963636364 L655.963636364,457.545454545 M665.127272727,437.945454545 L660.545454545,447.872727273 L656.218181818,448.127272727 L650.618181818,452.963636364 L645.781818182,449.909090909 L652.4,445.327272727 L653.163636364,442.018181818 L660.036363636,439.981818182 L657.490909091,439.218181818 L662.072727273,436.927272727 L665.127272727,430.563636364 L665.127272727,437.945454545 M626.690909091,473.327272727 L620.327272727,471.290909091 L596.4,477.4 L589.018181818,476.636363636 L586.218181818,482.745454545 L579.6,484.527272727 L577.563636364,475.872727273 L564.072727273,464.418181818 L545.236363636,458.309090909 L542.181818182,456.527272727 L533.272727273,449.909090909 L533.781818182,449.145454545 L534.036363636,448.381818182 L534.290909091,447.109090909 L534.8,444.309090909 L535.054545455,444.054545455 L535.563636364,443.545454545 L535.563636364,443.290909091 L535.818181818,443.290909091 L536.836363636,442.018181818 L537.854545455,429.545454545 L539.636363636,427.763636364 L542.181818182,427.0 L547.781818182,425.981818182 L568.654545455,423.181818182 L568.909090909,420.890909091 L564.836363636,410.454545455 L566.363636364,405.872727273 L568.145454545,403.581818182 L572.981818182,401.8 L574.509090909,399.254545455 L576.8,396.454545455 L578.327272727,393.145454545 L577.054545455,389.327272727 L576.036363636,388.563636364 L566.363636364,386.781818182 L563.818181818,383.218181818 L565.090909091,371.0 L558.472727273,371.763636364 L547.272727273,367.945454545 L546.763636364,366.418181818 L546.0,365.4 L545.236363636,364.381818182 L545.490909091,363.109090909 L548.290909091,358.018181818 L549.563636364,348.345454545 L549.563636364,343.254545455 L544.981818182,339.690909091 L536.327272727,323.145454545 L533.272727273,320.854545455 L542.945454545,318.309090909 L555.163636364,318.563636364 L575.272727273,329.0 L591.054545455,324.418181818 L596.145454545,325.181818182 L594.872727273,331.036363636 L599.963636364,338.163636364 L600.218181818,351.145454545 L604.290909091,355.727272727 L611.418181818,357.0 L616.763636364,362.6 L616.763636364,362.6 L616.254545455,363.109090909 L615.236363636,364.381818182 L614.218181818,365.4 L610.145454545,376.090909091 L609.890909091,377.109090909 L611.418181818,377.109090909 L612.181818182,377.872727273 L612.181818182,379.145454545 L612.690909091,381.181818182 L614.472727273,382.454545455 L615.490909091,385.0 L614.727272727,386.018181818 L613.454545455,386.781818182 L610.4,392.381818182 L613.709090909,393.909090909 L617.272727273,390.6 L619.563636364,391.363636364 L624.4,387.545454545 L626.436363636,387.290909091 L631.272727273,388.054545455 L634.327272727,392.127272727 L634.581818182,401.036363636 L635.345454545,400.781818182 L636.109090909,401.8 L636.109090909,401.8 L632.036363636,409.690909091 L629.490909091,409.945454545 L631.018181818,413.763636364 L626.181818182,428.018181818 L627.709090909,437.945454545 L624.654545455,442.272727273 L629.490909091,436.163636364 L630.254545455,439.727272727 L636.618181818,442.018181818 L635.345454545,447.109090909 L636.363636364,452.963636364 L637.636363636,452.2 L630.254545455,466.454545455 L630.763636364,470.781818182 L627.2,470.272727273 L626.690909091,473.327272727 Z" fill="#cee3f5" id="TZ.PW" stroke="#6e6e6e" stroke-width="0.4"><desc><labelrank>5</labelrank><code_hasc>TZ.PW</code_hasc><name>Pwani</name><admin>United Republic of Tanzania</admin><type_en>Region</type_en><region /><woe_id>2347353</woe_id><longitude>39</longitude><woe_name>Pwani</woe_name><fips>TZ02</fips><woe_label>Pwani, TZ, Tanzania</woe_label><latitude>-7</latitude><iso_a2>TZ</iso_a2><postal>PW</postal><type>Mkoa</type><id>TZ.PW</id></desc></path><path d="M631.272727273,321.872727273 L633.309090909,327.472727273 L621.345454545,329.509090909 L620.836363636,321.363636364 L626.436363636,317.545454545 L628.472727273,309.909090909 L631.272727273,321.872727273 Z" fill="#cee3f5" id="TZ.ZN" stroke="#6e6e6e" stroke-width="0.4"><desc><labelrank>5</labelrank><code_hasc>TZ.ZN</code_hasc><name>Kaskazini-Unguja</name><admin>United Republic of Tanzania</admin><type_en>Region</type_en><region /><woe_id>2347373</woe_id><longitude>39</longitude><woe_name>Kaskazini-Unguja</woe_name><fips>TZ22</fips><woe_label>Zanzibar North, TZ, Tanzania</woe_label><latitude>-5</latitude><iso_a2>TZ</iso_a2><postal>ZN</postal><type>Mkoa</type><id>TZ.ZN</id></desc></path><path d="M625.927272727,329.763636364 L628.218181818,343.0 L625.927272727,346.818181818 L619.818181818,337.4 L622.109090909,334.6 L621.345454545,329.509090909 L625.927272727,329.763636364 Z" fill="#cee3f5" id="TZ.ZW" stroke="#6e6e6e" stroke-width="0.4"><desc><labelrank>5</labelrank><code_hasc>TZ.ZW</code_hasc><name>Zanzibar West</name><admin>United Republic of Tanzania</admin><type_en>Region</type_en><region /><woe_id>2347376</woe_id><longitude>39</longitude><woe_name>Zanzibar West</woe_name><fips>TZ25</fips><woe_label>Zanzibar West, TZ, Tanzania</woe_label><latitude>-6</latitude><iso_a2>TZ</iso_a2><postal>ZW</postal><type>Mkoa</type><id>TZ.ZW</id></desc></path><path d="M474.218181818,327.727272727 L472.181818182,334.345454545 L473.963636364,349.109090909 L468.109090909,355.472727273 L464.036363636,367.181818182 L462.254545455,366.927272727 L460.472727273,390.6 L455.127272727,393.909090909 L452.581818182,399.509090909 L452.327272727,411.472727273 L450.036363636,413.763636364 L448.254545455,410.709090909 L440.618181818,410.709090909 L435.272727273,401.290909091 L426.872727273,398.236363636 L401.672727273,394.672727273 L384.872727273,386.272727273 L368.327272727,389.072727273 L362.218181818,385.509090909 L360.945454545,372.781818182 L368.836363636,372.527272727 L370.618181818,368.454545455 L371.127272727,347.581818182 L368.836363636,337.4 L370.363636364,324.418181818 L378.509090909,308.636363636 L365.781818182,290.054545455 L361.454545455,274.018181818 L377.236363636,261.290909091 L378.509090909,255.436363636 L389.2,255.945454545 L398.109090909,239.909090909 L397.345454545,232.018181818 L408.8,224.381818182 L416.945454545,223.872727273 L423.054545455,217.763636364 L438.836363636,213.181818182 L439.345454545,232.018181818 L442.654545455,244.236363636 L439.6,272.236363636 L435.018181818,282.927272727 L435.272727273,293.363636364 L448.0,307.363636364 L455.890909091,311.690909091 L462.509090909,321.872727273 L474.218181818,327.727272727 Z" fill="#cee3f5" id="TZ.DO" stroke="#6e6e6e" stroke-width="0.4"><desc><labelrank>7</labelrank><code_hasc>TZ.DO</code_hasc><name>Dodoma</name><admin>United Republic of Tanzania</admin><type_en>Region</type_en><region /><woe_id>2347354</woe_id><longitude>35</longitude><woe_name>Dodoma</woe_name><fips>TZ03</fips><woe_label>Dodoma, TZ, Tanzania</woe_label><latitude>-5</latitude><iso_a2>TZ</iso_a2><postal>DO</postal><type>Mkoa</type><id>TZ.DO</id></desc></path><path d="M362.218181818,385.509090909 L368.327272727,389.072727273 L384.872727273,386.272727273 L401.672727273,394.672727273 L426.872727273,398.236363636 L435.272727273,401.290909091 L440.618181818,410.709090909 L448.254545455,410.709090909 L450.036363636,413.763636364 L452.581818182,421.909090909 L469.381818182,427.0 L471.418181818,431.581818182 L480.836363636,431.581818182 L473.454545455,439.727272727 L468.109090909,450.672727273 L463.527272727,451.945454545 L452.072727273,449.654545455 L441.890909091,455.254545455 L439.6,464.672727273 L431.454545455,465.181818182 L425.854545455,468.745454545 L416.690909091,478.418181818 L414.4,485.036363636 L402.181818182,493.436363636 L399.127272727,507.181818182 L396.581818182,499.290909091 L378.509090909,496.745454545 L377.745454545,507.181818182 L380.036363636,516.854545455 L369.6,517.872727273 L363.490909091,513.8 L364.254545455,502.6 L349.236363636,497.254545455 L349.236363636,494.2 L340.327272727,491.4 L339.054545455,478.163636364 L347.963636364,470.527272727 L353.309090909,460.854545455 L361.2,455.509090909 L351.781818182,452.709090909 L351.527272727,449.4 L319.963636364,442.018181818 L285.090909091,442.781818182 L284.836363636,438.454545455 L292.981818182,424.2 L290.436363636,421.909090909 L305.2,410.2 L316.654545455,410.963636364 L320.981818182,404.090909091 L339.563636364,400.272727273 L342.618181818,389.836363636 L352.036363636,383.472727273 L362.218181818,385.509090909 Z" fill="#cee3f5" id="TZ.IR" stroke="#6e6e6e" stroke-width="0.4"><desc><labelrank>6</labelrank><code_hasc>TZ.IR</code_hasc><name>Iringa</name><admin>United Republic of Tanzania</admin><type_en>Region</type_en><region /><woe_id>2347355</woe_id><longitude>35</longitude><woe_name>Iringa</woe_name><fips>TZ04</fips><woe_label>Iringa, TZ, Tanzania</woe_label><latitude>-7</latitude><iso_a2>TZ</iso_a2><postal>IR</postal><type>Mkoa</type><id>TZ.IR</id></desc></path><path d="M626.690909091,473.327272727 L627.963636364,485.290909091 L631.527272727,491.909090909 L631.018181818,498.272727273 L636.363636364,500.818181818 L643.745454545,511.509090909 L637.127272727,507.436363636 L633.309090909,509.981818182 L637.890909091,509.981818182 L636.872727273,511.509090909 L639.672727273,512.527272727 L640.181818182,523.981818182 L644.509090909,522.2 L649.345454545,528.309090909 L649.345454545,539.509090909 L644.509090909,541.8 L644.509090909,544.345454545 L649.854545455,544.345454545 L655.454545455,558.345454545 L652.654545455,563.181818182 L656.218181818,563.436363636 L659.272727273,568.018181818 L659.018181818,571.072727273 L656.218181818,571.581818182 L658.509090909,574.381818182 L653.672727273,576.163636364 L652.145454545,582.018181818 L656.727272727,578.2 L664.872727273,580.236363636 L670.218181818,590.418181818 L653.163636364,600.090909091 L651.636363636,602.127272727 L651.127272727,604.672727273 L650.109090909,607.218181818 L652.145454545,612.563636364 L650.618181818,614.854545455 L648.581818182,616.636363636 L640.181818182,603.4 L633.818181818,600.345454545 L626.690909091,603.145454545 L625.927272727,604.672727273 L625.163636364,607.218181818 L622.618181818,607.727272727 L619.309090909,603.654545455 L600.727272727,613.327272727 L582.4,613.072727273 L565.6,619.945454545 L561.781818182,623.763636364 L558.727272727,628.345454545 L556.436363636,629.872727273 L545.490909091,630.636363636 L534.545454545,610.527272727 L528.181818182,605.945454545 L493.054545455,597.545454545 L478.036363636,591.945454545 L474.727272727,589.145454545 L474.981818182,584.818181818 L474.727272727,580.236363636 L475.236363636,576.418181818 L476.763636364,572.854545455 L482.109090909,568.272727273 L486.945454545,562.927272727 L489.490909091,559.109090909 L491.018181818,555.290909091 L496.872727273,536.454545455 L498.654545455,532.636363636 L499.163636364,528.818181818 L501.963636364,526.272727273 L505.527272727,525.254545455 L506.036363636,522.709090909 L504.254545455,520.163636364 L504.763636364,516.090909091 L502.981818182,512.018181818 L502.981818182,509.981818182 L502.218181818,504.381818182 L506.8,492.163636364 L507.054545455,489.363636364 L505.527272727,486.563636364 L506.036363636,484.781818182 L512.909090909,475.618181818 L514.436363636,474.854545455 L514.945454545,474.345454545 L515.2,473.327272727 L515.963636364,472.054545455 L516.727272727,470.272727273 L519.018181818,466.963636364 L519.527272727,466.454545455 L520.290909091,465.945454545 L521.563636364,465.690909091 L522.581818182,465.181818182 L522.836363636,464.163636364 L523.090909091,463.145454545 L525.381818182,460.090909091 L525.381818182,459.581818182 L525.381818182,459.072727273 L525.636363636,458.563636364 L526.909090909,457.290909091 L528.181818182,455.254545455 L532.0,452.2 L532.254545455,451.436363636 L533.018181818,450.418181818 L533.272727273,449.909090909 L542.181818182,456.527272727 L545.236363636,458.309090909 L564.072727273,464.418181818 L577.563636364,475.872727273 L579.6,484.527272727 L586.218181818,482.745454545 L589.018181818,476.636363636 L596.4,477.4 L620.327272727,471.290909091 L626.690909091,473.327272727 Z" fill="#cee3f5" id="TZ.LI" stroke="#6e6e6e" stroke-width="0.4"><desc><labelrank>6</labelrank><code_hasc>TZ.LI</code_hasc><name>Lindi</name><admin>United Republic of Tanzania</admin><type_en>Region</type_en><region /><woe_id>2347358</woe_id><longitude>38</longitude><woe_name>Lindi</woe_name><fips>TZ07</fips><woe_label>Lindi, TZ, Tanzania</woe_label><latitude>-9</latitude><iso_a2>TZ</iso_a2><postal>LI</postal><type>Mkoa</type><id>TZ.LI</id></desc></path><path d="M551.854545455,658.381818182 L545.490909091,630.636363636 L556.436363636,629.872727273 L558.727272727,628.345454545 L561.781818182,623.763636364 L565.6,619.945454545 L582.4,613.072727273 L600.727272727,613.327272727 L619.309090909,603.654545455 L622.618181818,607.727272727 L625.163636364,607.218181818 L625.927272727,604.672727273 L626.690909091,603.145454545 L633.818181818,600.345454545 L640.181818182,603.4 L648.581818182,616.636363636 L650.618181818,614.854545455 L652.145454545,612.563636364 L650.109090909,607.218181818 L651.127272727,604.672727273 L651.636363636,602.127272727 L653.163636364,600.090909091 L670.218181818,590.418181818 L670.727272727,593.218181818 L670.981818182,587.363636364 L680.145454545,589.909090909 L679.381818182,596.272727273 L682.690909091,595.254545455 L686.254545455,597.8 L688.545454545,596.018181818 L684.218181818,594.490909091 L686.254545455,591.945454545 L693.636363636,601.618181818 L698.218181818,601.618181818 L696.436363636,598.818181818 L697.963636364,597.8 L700.0,600.854545455 L697.454545455,603.909090909 L699.236363636,603.909090909 L698.218181818,611.036363636 L672.254545455,630.127272727 L656.727272727,638.527272727 L640.181818182,641.581818182 L625.418181818,652.527272727 L616.763636364,651.0 L602.254545455,652.781818182 L593.6,658.636363636 L586.981818182,659.4 L576.8,668.054545455 L567.636363636,664.745454545 L562.036363636,659.654545455 L551.854545455,658.381818182 Z" fill="#cee3f5" id="TZ.MT" stroke="#6e6e6e" stroke-width="0.4"><desc><labelrank>7</labelrank><code_hasc>TZ.MT</code_hasc><name>Mtwara</name><admin>United Republic of Tanzania</admin><type_en>Region</type_en><region /><woe_id>2347362</woe_id><longitude>39</longitude><woe_name>Mtwara</woe_name><fips>TZ11</fips><woe_label>Mtwara, TZ, Tanzania</woe_label><latitude>-10</latitude><iso_a2>TZ</iso_a2><postal>MT</postal><type>Mkoa</type><id>TZ.MT</id></desc></path><path d="M492.036363636,551.727272727 L491.018181818,555.290909091 L489.490909091,559.109090909 L486.945454545,562.927272727 L482.109090909,568.272727273 L476.763636364,572.854545455 L475.236363636,576.418181818 L474.727272727,580.236363636 L474.981818182,584.818181818 L474.727272727,589.145454545 L478.036363636,591.945454545 L493.054545455,597.545454545 L528.181818182,605.945454545 L534.545454545,610.527272727 L545.490909091,630.636363636 L551.854545455,658.381818182 L538.109090909,662.2 L534.290909091,675.690909091 L511.381818182,687.654545455 L491.781818182,684.6 L484.909090909,677.727272727 L471.672727273,678.236363636 L466.581818182,684.6 L459.454545455,687.4 L454.363636364,687.909090909 L451.054545455,685.109090909 L432.472727273,686.381818182 L430.690909091,678.490909091 L418.218181818,673.654545455 L416.181818182,669.327272727 L409.054545455,668.054545455 L400.909090909,673.145454545 L398.872727273,678.236363636 L393.272727273,680.272727273 L354.836363636,678.236363636 L350.0,665.763636364 L342.363636364,663.727272727 L339.054545455,654.818181818 L332.690909091,648.454545455 L331.418181818,643.109090909 L336.763636364,626.563636364 L330.654545455,612.563636364 L337.781818182,612.054545455 L356.109090909,598.309090909 L357.890909091,592.454545455 L364.509090909,591.181818182 L370.618181818,581.763636364 L365.018181818,564.2 L400.909090909,537.727272727 L406.0,536.2 L413.636363636,528.054545455 L414.909090909,543.581818182 L402.436363636,565.218181818 L404.981818182,567.254545455 L418.218181818,567.254545455 L425.6,560.890909091 L428.4,563.436363636 L442.909090909,562.163636364 L450.290909091,550.963636364 L455.636363636,564.2 L450.036363636,573.872727273 L451.818181818,576.672727273 L461.745454545,573.363636364 L474.727272727,561.145454545 L487.2,553.0 L492.036363636,551.727272727 Z" fill="#cee3f5" id="TZ.RV" stroke="#6e6e6e" stroke-width="0.4"><desc><labelrank>5</labelrank><code_hasc>TZ.RV</code_hasc><name>Ruvuma</name><admin>United Republic of Tanzania</admin><type_en>Region</type_en><region /><woe_id>2347365</woe_id><longitude>36</longitude><woe_name>Ruvuma</woe_name><fips>TZ14</fips><woe_label>Ruvuma, TZ, Tanzania</woe_label><latitude>-10</latitude><iso_a2>TZ</iso_a2><postal>RV</postal><type>Mkoa</type><id>TZ.RV</id></desc></path><path d="M350.254545455,195.872727273 L358.145454545,208.345454545 L348.981818182,225.654545455 L365.527272727,241.945454545 L366.290909091,247.290909091 L378.509090909,255.436363636 L377.236363636,261.290909091 L361.454545455,274.018181818 L365.781818182,290.054545455 L378.509090909,308.636363636 L370.363636364,324.418181818 L368.836363636,337.4 L371.127272727,347.581818182 L370.618181818,368.454545455 L368.836363636,372.527272727 L360.945454545,372.781818182 L362.218181818,385.509090909 L352.036363636,383.472727273 L342.618181818,389.836363636 L339.563636364,400.272727273 L320.981818182,404.090909091 L316.654545455,410.963636364 L305.2,410.2 L290.436363636,421.909090909 L282.545454545,417.836363636 L280.254545455,409.436363636 L268.036363636,399.763636364 L261.672727273,386.781818182 L264.472727273,381.181818182 L263.963636364,366.672727273 L295.272727273,341.218181818 L294.254545455,331.8 L297.818181818,312.963636364 L301.127272727,307.872727273 L297.818181818,302.018181818 L308.763636364,289.036363636 L289.672727273,274.018181818 L290.436363636,238.381818182 L291.709090909,232.781818182 L305.2,211.654545455 L310.545454545,210.890909091 L312.327272727,204.018181818 L320.218181818,199.181818182 L342.109090909,189.254545455 L350.254545455,195.872727273 Z" fill="#cee3f5" id="TZ.SD" stroke="#6e6e6e" stroke-width="0.4"><desc><labelrank>7</labelrank><code_hasc>TZ.SD</code_hasc><name>Singida</name><admin>United Republic of Tanzania</admin><type_en>Region</type_en><region /><woe_id>2347367</woe_id><longitude>34</longitude><woe_name>Singida</woe_name><fips>TZ16</fips><woe_label>Singida, TZ, Tanzania</woe_label><latitude>-5</latitude><iso_a2>TZ</iso_a2><postal>SD</postal><type>Mkoa</type><id>TZ.SD</id></desc></path><path d="M509.6,133.763636364 L499.672727273,129.945454545 L491.781818182,129.690909091 L477.272727273,138.6 L476.509090909,148.781818182 L484.4,153.872727273 L486.690909091,158.2 L486.945454545,169.654545455 L480.072727273,174.745454545 L475.236363636,174.745454545 L472.181818182,178.818181818 L462.254545455,176.272727273 L456.4,180.6 L451.563636364,187.981818182 L453.345454545,206.818181818 L441.636363636,209.363636364 L435.527272727,208.6 L416.181818182,179.327272727 L412.618181818,180.6 L404.218181818,190.781818182 L403.963636364,174.490909091 L402.436363636,174.236363636 L400.909090909,180.854545455 L393.272727273,182.890909091 L392.509090909,186.963636364 L387.672727273,184.672727273 L390.472727273,180.6 L381.054545455,178.054545455 L350.254545455,195.872727273 L342.109090909,189.254545455 L341.6,184.163636364 L345.927272727,178.054545455 L350.254545455,176.272727273 L350.763636364,131.472727273 L359.418181818,136.818181818 L364.763636364,133.763636364 L370.618181818,112.636363636 L370.109090909,106.527272727 L378.509090909,90.7454545455 L377.745454545,87.6909090909 L371.636363636,84.8909090909 L372.654545455,57.4 L509.6,133.763636364 Z" fill="#cee3f5" id="TZ.AS" stroke="#6e6e6e" stroke-width="0.4"><desc><labelrank>7</labelrank><code_hasc>TZ.AS</code_hasc><name>Arusha</name><admin>United Republic of Tanzania</admin><type_en>Region</type_en><region /><woe_id>2347352</woe_id><longitude>36</longitude><woe_name>Arusha</woe_name><fips>TZ26</fips><woe_label>Arusha, TZ, Tanzania</woe_label><latitude>-3</latitude><iso_a2>TZ</iso_a2><postal>AS</postal><type>Mkoa</type><id>TZ.AS</id></desc></path><path d="M547.781818182,241.945454545 L544.727272727,245.254545455 L543.963636364,252.381818182 L549.054545455,264.6 L542.436363636,262.309090909 L530.218181818,265.109090909 L520.290909091,263.327272727 L507.563636364,277.581818182 L506.036363636,288.527272727 L498.909090909,300.236363636 L496.363636364,310.927272727 L486.690909091,319.327272727 L474.218181818,327.727272727 L462.509090909,321.872727273 L455.890909091,311.690909091 L448.0,307.363636364 L435.272727273,293.363636364 L435.018181818,282.927272727 L439.6,272.236363636 L442.654545455,244.236363636 L439.345454545,232.018181818 L438.836363636,213.181818182 L423.054545455,217.763636364 L416.945454545,223.872727273 L408.8,224.381818182 L397.345454545,232.018181818 L398.109090909,239.909090909 L389.2,255.945454545 L378.509090909,255.436363636 L366.290909091,247.290909091 L365.527272727,241.945454545 L348.981818182,225.654545455 L358.145454545,208.345454545 L350.254545455,195.872727273 L381.054545455,178.054545455 L390.472727273,180.6 L387.672727273,184.672727273 L392.509090909,186.963636364 L393.272727273,182.890909091 L400.909090909,180.854545455 L402.436363636,174.236363636 L403.963636364,174.490909091 L404.218181818,190.781818182 L412.618181818,180.6 L416.181818182,179.327272727 L435.527272727,208.6 L441.636363636,209.363636364 L453.345454545,206.818181818 L451.563636364,187.981818182 L456.4,180.6 L462.254545455,176.272727273 L472.181818182,178.818181818 L475.236363636,174.745454545 L480.072727273,174.745454545 L486.945454545,169.654545455 L495.854545455,167.109090909 L501.2,169.909090909 L511.127272727,187.472727273 L515.2,208.090909091 L514.181818182,225.909090909 L516.218181818,229.472727273 L530.727272727,238.636363636 L541.418181818,237.363636364 L547.781818182,241.945454545 Z" fill="#cee3f5" id="TZ.MY" stroke="#6e6e6e" stroke-width="0.4"><desc><labelrank>5</labelrank><code_hasc>TZ.MY</code_hasc><name>Manyara</name><admin>United Republic of Tanzania</admin><type_en>Region</type_en><region /><woe_id>56025085</woe_id><longitude>36</longitude><woe_name>Manyara</woe_name><fips>TZ27</fips><woe_label>Manyara, TZ, Tanzania</woe_label><latitude>-4</latitude><iso_a2>TZ</iso_a2><postal>MY</postal><type>Mkoa</type><id>TZ.MY</id></desc></path><path d="M509.6,133.763636364 L524.618181818,143.181818182 L526.909090909,158.454545455 L519.781818182,164.818181818 L520.545454545,171.181818182 L527.418181818,171.945454545 L531.490909091,180.090909091 L571.963636364,209.109090909 L547.781818182,241.945454545 L541.418181818,237.363636364 L530.727272727,238.636363636 L516.218181818,229.472727273 L514.181818182,225.909090909 L515.2,208.090909091 L511.127272727,187.472727273 L501.2,169.909090909 L495.854545455,167.109090909 L486.945454545,169.654545455 L486.690909091,158.2 L484.4,153.872727273 L476.509090909,148.781818182 L477.272727273,138.6 L491.781818182,129.690909091 L499.672727273,129.945454545 L509.6,133.763636364 Z" fill="#cee3f5" id="TZ.KL" stroke="#6e6e6e" stroke-width="0.4"><desc><labelrank>5</labelrank><code_hasc>TZ.KL</code_hasc><name>Kilimanjaro</name><admin>United Republic of Tanzania</admin><type_en>Region</type_en><region /><woe_id>2347357</woe_id><longitude>37</longitude><woe_name>Kilimanjaro</woe_name><fips>TZ06</fips><woe_label>Kilimanjaro, TZ, Tanzania</woe_label><latitude>-4</latitude><iso_a2>TZ</iso_a2><postal>KL</postal><type>Mkoa</type><id>TZ.KL</id></desc></path><path d="M372.654545455,57.4 L371.636363636,84.8909090909 L377.745454545,87.6909090909 L378.509090909,90.7454545455 L370.109090909,106.527272727 L335.490909091,106.781818182 L324.290909091,102.454545455 L312.836363636,92.0181818182 L300.363636364,87.9454545455 L296.545454545,84.1272727273 L294.509090909,87.1818181818 L286.109090909,87.9454545455 L278.472727273,81.3272727273 L269.309090909,87.4363636364 L253.781818182,86.4181818182 L248.945454545,82.8545454545 L245.127272727,84.8909090909 L245.127272727,78.5272727273 L249.2,79.2909090909 L248.945454545,75.9818181818 L255.054545455,79.2909090909 L256.327272727,74.2 L262.436363636,77.5090909091 L266.0,77.7636363636 L267.272727273,74.9636363636 L260.4,72.6727272727 L262.181818182,71.1454545455 L260.4,68.3454545455 L250.981818182,72.4181818182 L248.945454545,70.8909090909 L252.763636364,59.4363636364 L255.563636364,57.4 L259.890909091,59.1818181818 L259.890909091,45.6909090909 L252.254545455,42.6363636364 L212.545454545,42.3818181818 L213.818181818,13.1090909091 L294.254545455,13.1090909091 L372.654545455,57.4 Z" fill="#cee3f5" id="TZ.MA" stroke="#6e6e6e" stroke-width="0.4"><desc><labelrank>5</labelrank><code_hasc>TZ.MA</code_hasc><name>Mara</name><admin>United Republic of Tanzania</admin><type_en>Region</type_en><region /><woe_id>2347359</woe_id><longitude>34</longitude><woe_name>Mara</woe_name><fips>TZ08</fips><woe_label>Mara, TZ, Tanzania</woe_label><latitude>-1</latitude><iso_a2>TZ</iso_a2><postal>MA</postal><type>Mkoa</type><id>TZ.MA</id></desc></path><path d="M533.272727273,320.854545455 L522.581818182,326.2 L516.218181818,317.290909091 L507.563636364,314.236363636 L505.527272727,323.145454545 L493.563636364,334.6 L490.509090909,331.8 L491.272727273,327.472727273 L487.709090909,325.945454545 L486.690909091,319.327272727 L496.363636364,310.927272727 L498.909090909,300.236363636 L506.036363636,288.527272727 L507.563636364,277.581818182 L520.290909091,263.327272727 L530.218181818,265.109090909 L542.436363636,262.309090909 L549.054545455,264.6 L543.963636364,252.381818182 L544.727272727,245.254545455 L547.781818182,241.945454545 L571.963636364,209.109090909 L622.363636364,245.0 L622.363636364,248.818181818 L619.563636364,250.854545455 L622.363636364,251.618181818 L622.363636364,255.436363636 L619.054545455,260.781818182 L619.054545455,254.927272727 L615.745454545,259.254545455 L617.018181818,265.363636364 L614.218181818,267.654545455 L617.018181818,267.654545455 L617.781818182,270.709090909 L611.418181818,279.618181818 L613.963636364,279.109090909 L607.6,290.818181818 L607.854545455,296.418181818 L601.745454545,304.563636364 L602.254545455,309.4 L598.181818182,316.018181818 L597.672727273,322.890909091 L596.4,324.418181818 L596.4,324.927272727 L596.145454545,325.181818182 L596.145454545,325.181818182 L591.054545455,324.418181818 L575.272727273,329.0 L555.163636364,318.563636364 L542.945454545,318.309090909 L533.272727273,320.854545455 Z" fill="#cee3f5" id="TZ.TN" stroke="#6e6e6e" stroke-width="0.4"><desc><labelrank>7</labelrank><code_hasc>TZ.TN</code_hasc><name>Tanga</name><admin>United Republic of Tanzania</admin><type_en>Region</type_en><region /><woe_id>2347369</woe_id><longitude>38</longitude><woe_name>Tanga</woe_name><fips>TZ18</fips><woe_label>Tanga, TZ, Tanzania</woe_label><latitude>-5</latitude><iso_a2>TZ</iso_a2><postal>TN</postal><type>Mkoa</type><id>TZ.TN</id></desc></path><path d="M109.454545455,295.909090909 L107.418181818,299.981818182 L114.036363636,304.818181818 L114.8,312.2 L119.381818182,311.436363636 L122.690909091,315.0 L144.836363636,316.527272727 L157.563636364,309.4 L171.309090909,312.963636364 L181.236363636,334.090909091 L195.490909091,343.763636364 L200.581818182,350.127272727 L213.309090909,352.672727273 L214.327272727,356.745454545 L206.945454545,365.4 L205.163636364,371.0 L203.127272727,396.963636364 L185.563636364,403.581818182 L183.018181818,417.072727273 L180.727272727,421.654545455 L174.363636364,423.945454545 L172.072727273,427.509090909 L167.745454545,437.945454545 L169.018181818,439.981818182 L136.436363636,434.890909091 L132.872727273,409.690909091 L129.563636364,405.618181818 L110.472727273,404.090909091 L104.872727273,386.272727273 L99.5272727273,384.236363636 L78.9090909091,387.036363636 L61.0909090909,399.763636364 L48.1090909091,383.472727273 L40.4727272727,378.127272727 L57.7818181818,364.127272727 L61.3454545455,356.236363636 L67.2,352.163636364 L66.4363636364,343.0 L61.6,338.927272727 L53.9636363636,321.363636364 L49.8909090909,297.436363636 L41.7454545455,287.0 L43.0181818182,285.727272727 L59.5636363636,284.709090909 L68.2181818182,276.563636364 L88.3272727273,276.563636364 L98.2545454545,284.454545455 L102.836363636,280.890909091 L109.454545455,295.909090909 Z" fill="#cee3f5" id="TZ.KA" stroke="#6e6e6e" stroke-width="0.4"><desc><labelrank>5</labelrank><code_hasc>TZ.KA</code_hasc><name>Katavi</name><admin>United Republic of Tanzania</admin><type_en>Region</type_en><region /><woe_id>-2347375</woe_id><longitude>31</longitude><woe_name>Rukwa</woe_name><fips>TZ29</fips><woe_label>Rukwa, TZ, Tanzania</woe_label><latitude>-6</latitude><iso_a2>TZ</iso_a2><postal>RK</postal><type>Mkoa</type><id>TZ.KA</id></desc></path><path d="M370.109090909,106.527272727 L370.618181818,112.636363636 L364.763636364,133.763636364 L359.418181818,136.818181818 L350.763636364,131.472727273 L350.254545455,176.272727273 L345.927272727,178.054545455 L341.6,184.163636364 L342.109090909,189.254545455 L320.218181818,199.181818182 L311.054545455,190.018181818 L304.181818182,173.472727273 L288.4,171.181818182 L281.781818182,165.072727273 L274.145454545,165.836363636 L257.854545455,155.909090909 L264.472727273,137.072727273 L263.454545455,128.418181818 L270.327272727,124.345454545 L274.654545455,125.618181818 L280.763636364,120.272727273 L263.709090909,103.981818182 L253.781818182,86.4181818182 L269.309090909,87.4363636364 L278.472727273,81.3272727273 L286.109090909,87.9454545455 L294.509090909,87.1818181818 L296.545454545,84.1272727273 L300.363636364,87.9454545455 L312.836363636,92.0181818182 L324.290909091,102.454545455 L335.490909091,106.781818182 L370.109090909,106.527272727 Z" fill="#cee3f5" id="TZ.SI" stroke="#6e6e6e" stroke-width="0.4"><desc><labelrank>6</labelrank><code_hasc>TZ.SI</code_hasc><name>Simiyu</name><admin>United Republic of Tanzania</admin><type_en>Region</type_en><region /><woe_id>-2347366</woe_id><longitude>34</longitude><woe_name>Shinyanga</woe_name><fips>TZ31</fips><woe_label>Shinyanga, TZ, Tanzania</woe_label><latitude>-2</latitude><iso_a2>TZ</iso_a2><postal>SH</postal><type>Mkoa</type><id>TZ.SI</id></desc></path><path d="M200.327272727,151.072727273 L194.472727273,153.618181818 L190.145454545,158.709090909 L184.036363636,153.618181818 L179.709090909,155.909090909 L175.636363636,163.545454545 L176.654545455,181.109090909 L158.072727273,185.436363636 L148.909090909,195.618181818 L148.909090909,204.018181818 L145.6,209.618181818 L148.4,214.963636364 L135.418181818,217.254545455 L131.6,224.127272727 L126.509090909,211.654545455 L128.036363636,194.345454545 L119.127272727,178.818181818 L118.363636364,167.872727273 L112.254545455,152.6 L108.945454545,150.054545455 L105.636363636,151.327272727 L109.709090909,134.781818182 L104.363636364,128.672727273 L103.6,124.6 L97.4909090909,119.0 L99.7818181818,112.636363636 L106.654545455,109.327272727 L115.818181818,93.5454545455 L128.290909091,92.5272727273 L145.345454545,98.1272727273 L151.2,93.5454545455 L152.472727273,87.1818181818 L160.618181818,85.1454545455 L165.454545455,100.418181818 L183.781818182,112.381818182 L194.472727273,114.163636364 L190.909090909,120.527272727 L202.109090909,126.890909091 L200.327272727,131.727272727 L205.927272727,136.309090909 L200.327272727,151.072727273 Z" fill="#cee3f5" id="TZ.GE" stroke="#6e6e6e" stroke-width="0.4"><desc><labelrank>5</labelrank><code_hasc>TZ.GE</code_hasc><name>Geita</name><admin>United Republic of Tanzania</admin><type_en>Region</type_en><region /><woe_id>-2347370</woe_id><longitude>31</longitude><woe_name>Kagera</woe_name><fips>TZ28</fips><woe_label>Kagera, TZ, Tanzania</woe_label><latitude>-3</latitude><iso_a2>TZ</iso_a2><postal>KR</postal><type>Mkoa</type><id>TZ.GE</id></desc></path><path d="M380.036363636,516.854545455 L383.6,516.090909091 L387.927272727,522.454545455 L399.890909091,531.872727273 L400.909090909,537.727272727 L365.018181818,564.2 L370.618181818,581.763636364 L364.509090909,591.181818182 L357.890909091,592.454545455 L356.109090909,598.309090909 L337.781818182,612.054545455 L330.654545455,612.563636364 L330.909090909,597.545454545 L327.090909091,579.727272727 L314.109090909,561.654545455 L299.090909091,548.418181818 L284.581818182,529.581818182 L286.363636364,527.545454545 L281.272727273,516.6 L284.836363636,510.745454545 L290.945454545,507.945454545 L295.527272727,509.472727273 L301.127272727,505.909090909 L324.036363636,505.4 L332.945454545,497.254545455 L338.8,495.472727273 L340.327272727,491.4 L349.236363636,494.2 L349.236363636,497.254545455 L364.254545455,502.6 L363.490909091,513.8 L369.6,517.872727273 L380.036363636,516.854545455 Z" fill="#cee3f5" id="TZ.NJ" stroke="#6e6e6e" stroke-width="0.4"><desc><labelrank>6</labelrank><code_hasc>TZ.NJ</code_hasc><name>Njombe</name><admin>United Republic of Tanzania</admin><type_en>Region</type_en><region /><woe_id>-2347355</woe_id><longitude>34</longitude><woe_name>Iringa</woe_name><fips>TZ30</fips><woe_label>Iringa, TZ, Tanzania</woe_label><latitude>-9</latitude><iso_a2>TZ</iso_a2><postal>IR</postal><type>Mkoa</type><id>TZ.NJ</id></desc></path></svg>