<?xml version='1.0' encoding='utf-8'?>
<svg height="700" width="700" xmlns="http://www.w3.org/2000/svg"><path d="M321.363636364,221.136363636 L343.636363636,213.712121212 L364.848484848,225.378787879 L358.484848485,235.984848485 L352.121212121,255.075757576 L359.545454545,261.439393939 L357.424242424,268.863636364 L312.878787879,258.257575758 L325.606060606,242.348484848 L328.787878788,231.742424242 L321.363636364,221.136363636 Z" fill="#cee3f5" id="US.OR.055" stroke="#6e6e6e" stroke-width="0.4"><desc><name>Sherman County</name><stateAbbrev>OR</stateAbbrev><state>Oregon</state><fips>055</fips><incits>41055</incits><id>US.OR.055</id><population>1731</population></desc></path><path d="M343.636363636,213.712121212 L356.363636364,216.893939394 L381.818181818,213.712121212 L399.848484848,206.287878788 L398.787878788,254.015151515 L409.393939394,254.015151515 L420.0,261.439393939 L417.878787879,269.924242424 L357.424242424,269.924242424 L357.424242424,268.863636364 L359.545454545,261.439393939 L352.121212121,255.075757576 L358.484848485,235.984848485 L364.848484848,225.378787879 L343.636363636,213.712121212 Z" fill="#cee3f5" id="US.OR.021" stroke="#6e6e6e" stroke-width="0.4"><desc><name>Gilliam County</name><stateAbbrev>OR</stateAbbrev><state>Oregon</state><fips>021</fips><incits>41021</incits><id>US.OR.021</id><population>1947</population></desc></path><path d="M550.454545455,338.863636364 L556.818181818,337.803030303 L572.727272727,322.954545455 L604.545454545,322.954545455 L613.03030303,335.681818182 L636.363636364,335.681818182 L663.939393939,347.348484848 L660.757575758,362.196969697 L652.272727273,374.924242424 L652.272727273,443.863636364 L652.272727273,530.833333333 L552.575757576,531.893939394 L550.454545455,453.409090909 L550.454545455,357.954545455 L550.454545455,338.863636364 Z" fill="#cee3f5" id="US.OR.045" stroke="#6e6e6e" stroke-width="0.4"><desc><name>Malheur County</name><stateAbbrev>OR</stateAbbrev><state>Oregon</state><fips>045</fips><incits>41045</incits><id>US.OR.045</id><population>30479</population></desc></path><path d="M549.393939394,279.46969697 L558.939393939,272.045454545 L572.727272727,276.287878788 L606.666666667,276.287878788 L606.666666667,268.863636364 L632.121212121,268.863636364 L673.484848485,268.863636364 L660.757575758,294.318181818 L651.212121212,297.5 L642.727272727,314.46969697 L635.303030303,319.772727273 L636.363636364,335.681818182 L613.03030303,335.681818182 L604.545454545,322.954545455 L572.727272727,322.954545455 L556.818181818,337.803030303 L550.454545455,338.863636364 L527.121212121,338.863636364 L534.545454545,321.893939394 L544.090909091,311.287878788 L537.727272727,305.984848485 L549.393939394,279.46969697 Z" fill="#cee3f5" id="US.OR.001" stroke="#6e6e6e" stroke-width="0.4"><desc><name>Baker County</name><stateAbbrev>OR</stateAbbrev><state>Oregon</state><fips>001</fips><incits>41001</incits><id>US.OR.001</id><population>16018</population></desc></path><path d="M93.3333333333,299.621212121 L131.515151515,299.621212121 L121.96969697,313.409090909 L129.393939394,336.742424242 L78.4848484848,336.742424242 L83.7878787879,324.015151515 L93.3333333333,324.015151515 L93.3333333333,299.621212121 Z" fill="#cee3f5" id="US.OR.003" stroke="#6e6e6e" stroke-width="0.4"><desc><name>Benton County</name><stateAbbrev>OR</stateAbbrev><state>Oregon</state><fips>003</fips><incits>41003</incits><id>US.OR.003</id><population>86591</population></desc></path><path d="M155.909090909,248.712121212 L166.515151515,247.651515152 L166.515151515,239.166666667 L175.0,237.045454545 L245.0,237.045454545 L255.606060606,244.46969697 L255.606060606,254.015151515 L255.606060606,256.136363636 L255.606060606,257.196969697 L258.787878788,269.924242424 L246.060606061,275.227272727 L252.424242424,285.833333333 L195.151515152,285.833333333 L162.272727273,264.621212121 L156.96969697,254.015151515 L155.909090909,248.712121212 Z" fill="#cee3f5" id="US.OR.005" stroke="#6e6e6e" stroke-width="0.4"><desc><name>Clackamas County</name><stateAbbrev>OR</stateAbbrev><state>Oregon</state><fips>005</fips><incits>41005</incits><id>US.OR.005</id><population>388263</population></desc></path><path d="M113.484848485,178.712121212 L113.484848485,209.46969697 L54.0909090909,209.46969697 L58.3333333333,184.015151515 L46.6666666667,169.166666667 L70.0,171.287878788 L103.939393939,168.106060606 L113.484848485,178.712121212 Z" fill="#cee3f5" id="US.OR.007" stroke="#6e6e6e" stroke-width="0.4"><desc><name>Clatsop County</name><stateAbbrev>OR</stateAbbrev><state>Oregon</state><fips>007</fips><incits>41007</incits><id>US.OR.007</id><population>37244</population></desc></path><path d="M113.484848485,178.712121212 L134.696969697,175.53030303 L152.727272727,184.015151515 L163.333333333,202.045454545 L164.393939394,213.712121212 L150.606060606,214.772727273 L145.303030303,213.712121212 L145.303030303,212.651515152 L142.121212121,209.46969697 L113.484848485,209.46969697 L113.484848485,178.712121212 Z" fill="#cee3f5" id="US.OR.009" stroke="#6e6e6e" stroke-width="0.4"><desc><name>Columbia County</name><stateAbbrev>OR</stateAbbrev><state>Oregon</state><fips>009</fips><incits>41009</incits><id>US.OR.009</id><population>49344</population></desc></path><path d="M12.7272727273,450.227272727 L20.1515151515,429.015151515 L19.0909090909,418.409090909 L27.5757575758,412.045454545 L35.0,394.015151515 L70.0,394.015151515 L79.5454545455,408.863636364 L84.8484848485,423.712121212 L84.8484848485,438.560606061 L75.303030303,445.984848485 L75.303030303,464.015151515 L59.3939393939,472.5 L47.7272727273,473.560606061 L46.6666666667,457.651515152 L38.1818181818,450.227272727 L12.7272727273,450.227272727 Z" fill="#cee3f5" id="US.OR.011" stroke="#6e6e6e" stroke-width="0.4"><desc><name>Coos County</name><stateAbbrev>OR</stateAbbrev><state>Oregon</state><fips>011</fips><incits>41011</incits><id>US.OR.011</id><population>62282</population></desc></path><path d="M305.454545455,328.257575758 L316.060606061,320.833333333 L329.848484848,320.833333333 L329.848484848,313.409090909 L366.96969697,313.409090909 L366.96969697,324.015151515 L397.727272727,324.015151515 L408.333333333,328.257575758 L408.333333333,334.621212121 L429.545454545,334.621212121 L428.484848485,364.318181818 L418.939393939,364.318181818 L418.939393939,386.590909091 L408.333333333,386.590909091 L377.575757576,386.590909091 L368.03030303,379.166666667 L368.03030303,371.742424242 L336.212121212,371.742424242 L336.212121212,364.318181818 L316.060606061,364.318181818 L316.060606061,349.46969697 L305.454545455,349.46969697 L305.454545455,328.257575758 Z" fill="#cee3f5" id="US.OR.013" stroke="#6e6e6e" stroke-width="0.4"><desc><name>Crook County</name><stateAbbrev>OR</stateAbbrev><state>Oregon</state><fips>013</fips><incits>41013</incits><id>US.OR.013</id><population>20815</population></desc></path><path d="M12.7272727273,450.227272727 L38.1818181818,450.227272727 L46.6666666667,457.651515152 L47.7272727273,473.560606061 L59.3939393939,472.5 L75.303030303,464.015151515 L83.7878787879,464.015151515 L68.9393939394,488.409090909 L59.3939393939,488.409090909 L57.2727272727,500.075757576 L68.9393939394,501.136363636 L75.303030303,509.621212121 L74.2424242424,531.893939394 L31.8181818182,530.833333333 L19.0909090909,513.863636364 L18.0303030303,497.954545455 L11.6666666667,490.53030303 L19.0909090909,478.863636364 L0.0,464.015151515 L12.7272727273,450.227272727 Z" fill="#cee3f5" id="US.OR.015" stroke="#6e6e6e" stroke-width="0.4"><desc><name>Curry County</name><stateAbbrev>OR</stateAbbrev><state>Oregon</state><fips>015</fips><incits>41015</incits><id>US.OR.015</id><population>22339</population></desc></path><path d="M229.090909091,394.015151515 L231.212121212,372.803030303 L241.818181818,364.318181818 L249.242424242,351.590909091 L247.121212121,338.863636364 L242.878787879,327.196969697 L305.454545455,328.257575758 L305.454545455,349.46969697 L316.060606061,349.46969697 L316.060606061,364.318181818 L336.212121212,364.318181818 L336.212121212,371.742424242 L368.03030303,371.742424242 L368.03030303,379.166666667 L377.575757576,386.590909091 L408.333333333,386.590909091 L408.333333333,394.015151515 L286.363636364,394.015151515 L229.090909091,394.015151515 Z" fill="#cee3f5" id="US.OR.017" stroke="#6e6e6e" stroke-width="0.4"><desc><name>Deschutes County</name><stateAbbrev>OR</stateAbbrev><state>Oregon</state><fips>017</fips><incits>41017</incits><id>US.OR.017</id><population>165954</population></desc></path><path d="M35.0,394.015151515 L40.303030303,372.803030303 L64.696969697,372.803030303 L74.2424242424,365.378787879 L92.2727272727,367.5 L99.696969697,375.984848485 L114.545454545,380.227272727 L132.575757576,380.227272727 L135.757575758,400.378787879 L166.515151515,399.318181818 L166.515151515,408.863636364 L218.484848485,408.863636364 L231.212121212,423.712121212 L221.666666667,439.621212121 L205.757575758,440.681818182 L205.757575758,445.984848485 L182.424242424,451.287878788 L162.272727273,465.075757576 L131.515151515,467.196969697 L125.151515152,471.439393939 L107.121212121,471.439393939 L83.7878787879,464.015151515 L75.303030303,464.015151515 L75.303030303,445.984848485 L84.8484848485,438.560606061 L84.8484848485,423.712121212 L79.5454545455,408.863636364 L70.0,394.015151515 L35.0,394.015151515 Z" fill="#cee3f5" id="US.OR.019" stroke="#6e6e6e" stroke-width="0.4"><desc><name>Douglas County</name><stateAbbrev>OR</stateAbbrev><state>Oregon</state><fips>019</fips><incits>41019</incits><id>US.OR.019</id><population>106940</population></desc></path><path d="M427.424242424,276.287878788 L470.909090909,276.287878788 L526.060606061,276.287878788 L549.393939394,279.46969697 L537.727272727,305.984848485 L544.090909091,311.287878788 L534.545454545,321.893939394 L527.121212121,338.863636364 L550.454545455,338.863636364 L550.454545455,357.954545455 L500.606060606,356.893939394 L500.606060606,364.318181818 L428.484848485,364.318181818 L429.545454545,334.621212121 L429.545454545,291.136363636 L427.424242424,276.287878788 Z" fill="#cee3f5" id="US.OR.023" stroke="#6e6e6e" stroke-width="0.4"><desc><name>Grant County</name><stateAbbrev>OR</stateAbbrev><state>Oregon</state><fips>023</fips><incits>41023</incits><id>US.OR.023</id><population>7283</population></desc></path><path d="M408.333333333,394.015151515 L408.333333333,386.590909091 L418.939393939,386.590909091 L418.939393939,364.318181818 L428.484848485,364.318181818 L500.606060606,364.318181818 L500.606060606,356.893939394 L550.454545455,357.954545455 L550.454545455,453.409090909 L552.575757576,531.893939394 L453.939393939,531.893939394 L453.939393939,467.196969697 L404.090909091,467.196969697 L405.151515152,431.136363636 L408.333333333,431.136363636 L408.333333333,394.015151515 Z" fill="#cee3f5" id="US.OR.025" stroke="#6e6e6e" stroke-width="0.4"><desc><name>Harney County</name><stateAbbrev>OR</stateAbbrev><state>Oregon</state><fips>025</fips><incits>41025</incits><id>US.OR.025</id><population>7146</population></desc></path><path d="M236.515151515,221.136363636 L240.757575758,216.893939394 L269.393939394,213.712121212 L276.818181818,216.893939394 L273.636363636,231.742424242 L273.636363636,254.015151515 L255.606060606,254.015151515 L255.606060606,244.46969697 L245.0,237.045454545 L236.515151515,229.621212121 L236.515151515,221.136363636 Z" fill="#cee3f5" id="US.OR.027" stroke="#6e6e6e" stroke-width="0.4"><desc><name>Hood River County</name><stateAbbrev>OR</stateAbbrev><state>Oregon</state><fips>027</fips><incits>41027</incits><id>US.OR.027</id><population>22675</population></desc></path><path d="M125.151515152,471.439393939 L131.515151515,467.196969697 L162.272727273,465.075757576 L182.424242424,451.287878788 L205.757575758,445.984848485 L204.696969697,530.833333333 L125.151515152,530.833333333 L125.151515152,471.439393939 Z" fill="#cee3f5" id="US.OR.029" stroke="#6e6e6e" stroke-width="0.4"><desc><name>Jackson County</name><stateAbbrev>OR</stateAbbrev><state>Oregon</state><fips>029</fips><incits>41029</incits><id>US.OR.029</id><population>208545</population></desc></path><path d="M246.060606061,309.166666667 L246.060606061,309.166666667 L247.121212121,302.803030303 L250.303030303,291.136363636 L368.03030303,291.136363636 L366.96969697,313.409090909 L329.848484848,313.409090909 L329.848484848,320.833333333 L316.060606061,320.833333333 L305.454545455,328.257575758 L242.878787879,327.196969697 L246.060606061,309.166666667 Z" fill="#cee3f5" id="US.OR.031" stroke="#6e6e6e" stroke-width="0.4"><desc><name>Jefferson County</name><stateAbbrev>OR</stateAbbrev><state>Oregon</state><fips>031</fips><incits>41031</incits><id>US.OR.031</id><population>21145</population></desc></path><path d="M83.7878787879,464.015151515 L107.121212121,471.439393939 L125.151515152,471.439393939 L125.151515152,530.833333333 L74.2424242424,531.893939394 L75.303030303,509.621212121 L68.9393939394,501.136363636 L57.2727272727,500.075757576 L59.3939393939,488.409090909 L68.9393939394,488.409090909 L83.7878787879,464.015151515 Z" fill="#cee3f5" id="US.OR.033" stroke="#6e6e6e" stroke-width="0.4"><desc><name>Josephine County</name><stateAbbrev>OR</stateAbbrev><state>Oregon</state><fips>033</fips><incits>41033</incits><id>US.OR.033</id><population>83306</population></desc></path><path d="M205.757575758,445.984848485 L205.757575758,440.681818182 L221.666666667,439.621212121 L231.212121212,423.712121212 L218.484848485,408.863636364 L218.484848485,398.257575758 L229.090909091,394.015151515 L286.363636364,394.015151515 L285.303030303,415.227272727 L285.303030303,467.196969697 L324.545454545,468.257575758 L324.545454545,531.893939394 L204.696969697,530.833333333 L205.757575758,445.984848485 Z" fill="#cee3f5" id="US.OR.035" stroke="#6e6e6e" stroke-width="0.4"><desc><name>Klamath County</name><stateAbbrev>OR</stateAbbrev><state>Oregon</state><fips>035</fips><incits>41035</incits><id>US.OR.035</id><population>65910</population></desc></path><path d="M286.363636364,394.015151515 L408.333333333,394.015151515 L408.333333333,431.136363636 L405.151515152,431.136363636 L404.090909091,467.196969697 L453.939393939,467.196969697 L453.939393939,531.893939394 L324.545454545,531.893939394 L324.545454545,468.257575758 L285.303030303,467.196969697 L285.303030303,415.227272727 L286.363636364,394.015151515 Z" fill="#cee3f5" id="US.OR.037" stroke="#6e6e6e" stroke-width="0.4"><desc><name>Lake County</name><stateAbbrev>OR</stateAbbrev><state>Oregon</state><fips>037</fips><incits>41037</incits><id>US.OR.037</id><population>7820</population></desc></path><path d="M40.303030303,372.803030303 L43.4848484848,337.803030303 L78.4848484848,336.742424242 L129.393939394,336.742424242 L129.393939394,336.742424242 L129.393939394,337.803030303 L130.454545455,344.166666667 L152.727272727,344.166666667 L155.909090909,336.742424242 L198.333333333,343.106060606 L201.515151515,339.924242424 L247.121212121,338.863636364 L249.242424242,351.590909091 L241.818181818,364.318181818 L231.212121212,372.803030303 L229.090909091,394.015151515 L218.484848485,398.257575758 L218.484848485,408.863636364 L166.515151515,408.863636364 L166.515151515,399.318181818 L135.757575758,400.378787879 L132.575757576,380.227272727 L114.545454545,380.227272727 L99.696969697,375.984848485 L92.2727272727,367.5 L74.2424242424,365.378787879 L64.696969697,372.803030303 L40.303030303,372.803030303 Z" fill="#cee3f5" id="US.OR.039" stroke="#6e6e6e" stroke-width="0.4"><desc><name>Lane County</name><stateAbbrev>OR</stateAbbrev><state>Oregon</state><fips>039</fips><incits>41039</incits><id>US.OR.039</id><population>356212</population></desc></path><path d="M50.9090909091,272.045454545 L82.7272727273,272.045454545 L82.7272727273,298.560606061 L93.3333333333,299.621212121 L93.3333333333,324.015151515 L83.7878787879,324.015151515 L78.4848484848,336.742424242 L43.4848484848,337.803030303 L46.6666666667,321.893939394 L46.6666666667,295.378787879 L50.9090909091,272.045454545 Z" fill="#cee3f5" id="US.OR.041" stroke="#6e6e6e" stroke-width="0.4"><desc><name>Lincoln County</name><stateAbbrev>OR</stateAbbrev><state>Oregon</state><fips>041</fips><incits>41041</incits><id>US.OR.041</id><population>46350</population></desc></path><path d="M131.515151515,299.621212121 L132.575757576,297.5 L144.242424242,302.803030303 L162.272727273,293.257575758 L177.121212121,294.318181818 L217.424242424,299.621212121 L226.96969697,302.803030303 L247.121212121,302.803030303 L246.060606061,309.166666667 L246.060606061,309.166666667 L242.878787879,327.196969697 L247.121212121,338.863636364 L201.515151515,339.924242424 L198.333333333,343.106060606 L155.909090909,336.742424242 L152.727272727,344.166666667 L130.454545455,344.166666667 L129.393939394,337.803030303 L129.393939394,336.742424242 L129.393939394,336.742424242 L121.96969697,313.409090909 L131.515151515,299.621212121 Z" fill="#cee3f5" id="US.OR.043" stroke="#6e6e6e" stroke-width="0.4"><desc><name>Linn County</name><stateAbbrev>OR</stateAbbrev><state>Oregon</state><fips>043</fips><incits>41043</incits><id>US.OR.043</id><population>118765</population></desc></path><path d="M138.939393939,269.924242424 L141.060606061,257.196969697 L156.96969697,254.015151515 L162.272727273,264.621212121 L195.151515152,285.833333333 L252.424242424,285.833333333 L250.303030303,291.136363636 L247.121212121,302.803030303 L226.96969697,302.803030303 L217.424242424,299.621212121 L177.121212121,294.318181818 L162.272727273,293.257575758 L144.242424242,302.803030303 L132.575757576,297.5 L133.636363636,283.712121212 L141.060606061,280.53030303 L138.939393939,269.924242424 Z" fill="#cee3f5" id="US.OR.047" stroke="#6e6e6e" stroke-width="0.4"><desc><name>Marion County</name><stateAbbrev>OR</stateAbbrev><state>Oregon</state><fips>047</fips><incits>41047</incits><id>US.OR.047</id><population>323614</population></desc></path><path d="M399.848484848,206.287878788 L427.424242424,203.106060606 L435.909090909,197.803030303 L447.575757576,197.803030303 L447.575757576,224.318181818 L463.484848485,224.318181818 L471.96969697,231.742424242 L470.909090909,276.287878788 L427.424242424,276.287878788 L417.878787879,269.924242424 L420.0,261.439393939 L409.393939394,254.015151515 L398.787878788,254.015151515 L399.848484848,206.287878788 Z" fill="#cee3f5" id="US.OR.049" stroke="#6e6e6e" stroke-width="0.4"><desc><name>Morrow County</name><stateAbbrev>OR</stateAbbrev><state>Oregon</state><fips>049</fips><incits>41049</incits><id>US.OR.049</id><population>11336</population></desc></path><path d="M150.606060606,214.772727273 L164.393939394,213.712121212 L171.818181818,223.257575758 L206.818181818,229.621212121 L236.515151515,221.136363636 L236.515151515,229.621212121 L245.0,237.045454545 L175.0,237.045454545 L166.515151515,239.166666667 L166.515151515,231.742424242 L150.606060606,222.196969697 L150.606060606,214.772727273 Z" fill="#cee3f5" id="US.OR.051" stroke="#6e6e6e" stroke-width="0.4"><desc><name>Multnomah County</name><stateAbbrev>OR</stateAbbrev><state>Oregon</state><fips>051</fips><incits>41051</incits><id>US.OR.051</id><population>766135</population></desc></path><path d="M82.7272727273,272.045454545 L82.7272727273,269.924242424 L138.939393939,269.924242424 L141.060606061,280.53030303 L133.636363636,283.712121212 L132.575757576,297.5 L131.515151515,299.621212121 L93.3333333333,299.621212121 L82.7272727273,298.560606061 L82.7272727273,272.045454545 Z" fill="#cee3f5" id="US.OR.053" stroke="#6e6e6e" stroke-width="0.4"><desc><name>Polk County</name><stateAbbrev>OR</stateAbbrev><state>Oregon</state><fips>053</fips><incits>41053</incits><id>US.OR.053</id><population>76794</population></desc></path><path d="M50.9090909091,272.045454545 L56.2121212121,252.954545455 L53.0303030303,246.590909091 L58.3333333333,215.833333333 L54.0909090909,209.46969697 L113.484848485,209.46969697 L102.878787879,215.833333333 L113.484848485,226.439393939 L105.0,239.166666667 L105.0,257.196969697 L77.4242424242,257.196969697 L82.7272727273,269.924242424 L82.7272727273,272.045454545 L50.9090909091,272.045454545 Z" fill="#cee3f5" id="US.OR.057" stroke="#6e6e6e" stroke-width="0.4"><desc><name>Tillamook County</name><stateAbbrev>OR</stateAbbrev><state>Oregon</state><fips>057</fips><incits>41057</incits><id>US.OR.057</id><population>25317</population></desc></path><path d="M447.575757576,197.803030303 L474.090909091,196.742424242 L485.757575758,191.439393939 L571.666666667,190.378787879 L571.666666667,203.106060606 L560.0,217.954545455 L560.0,235.984848485 L552.575757576,239.166666667 L533.484848485,239.166666667 L533.484848485,245.53030303 L510.151515152,246.590909091 L514.393939394,259.318181818 L522.878787879,259.318181818 L526.060606061,276.287878788 L470.909090909,276.287878788 L471.96969697,231.742424242 L463.484848485,224.318181818 L447.575757576,224.318181818 L447.575757576,197.803030303 Z" fill="#cee3f5" id="US.OR.059" stroke="#6e6e6e" stroke-width="0.4"><desc><name>Umatilla County</name><stateAbbrev>OR</stateAbbrev><state>Oregon</state><fips>059</fips><incits>41059</incits><id>US.OR.059</id><population>76720</population></desc></path><path d="M571.666666667,203.106060606 L591.818181818,203.106060606 L587.575757576,216.893939394 L600.303030303,247.651515152 L610.909090909,252.954545455 L614.090909091,261.439393939 L632.121212121,261.439393939 L632.121212121,268.863636364 L606.666666667,268.863636364 L606.666666667,276.287878788 L572.727272727,276.287878788 L558.939393939,272.045454545 L549.393939394,279.46969697 L526.060606061,276.287878788 L522.878787879,259.318181818 L514.393939394,259.318181818 L510.151515152,246.590909091 L533.484848485,245.53030303 L533.484848485,239.166666667 L552.575757576,239.166666667 L560.0,235.984848485 L560.0,217.954545455 L571.666666667,203.106060606 Z" fill="#cee3f5" id="US.OR.061" stroke="#6e6e6e" stroke-width="0.4"><desc><name>Union County</name><stateAbbrev>OR</stateAbbrev><state>Oregon</state><fips>061</fips><incits>41061</incits><id>US.OR.061</id><population>25652</population></desc></path><path d="M571.666666667,190.378787879 L661.818181818,191.439393939 L673.484848485,206.287878788 L689.393939394,209.46969697 L700.0,224.318181818 L683.03030303,248.712121212 L673.484848485,268.863636364 L632.121212121,268.863636364 L632.121212121,261.439393939 L614.090909091,261.439393939 L610.909090909,252.954545455 L600.303030303,247.651515152 L587.575757576,216.893939394 L591.818181818,203.106060606 L571.666666667,203.106060606 L571.666666667,190.378787879 Z" fill="#cee3f5" id="US.OR.063" stroke="#6e6e6e" stroke-width="0.4"><desc><name>Wallowa County</name><stateAbbrev>OR</stateAbbrev><state>Oregon</state><fips>063</fips><incits>41063</incits><id>US.OR.063</id><population>6814</population></desc></path><path d="M255.606060606,257.196969697 L255.606060606,256.136363636 L255.606060606,254.015151515 L273.636363636,254.015151515 L273.636363636,231.742424242 L276.818181818,216.893939394 L321.363636364,221.136363636 L328.787878788,231.742424242 L325.606060606,242.348484848 L312.878787879,258.257575758 L357.424242424,268.863636364 L357.424242424,269.924242424 L360.606060606,286.893939394 L368.03030303,291.136363636 L250.303030303,291.136363636 L252.424242424,285.833333333 L246.060606061,275.227272727 L258.787878788,269.924242424 L255.606060606,257.196969697 Z" fill="#cee3f5" id="US.OR.065" stroke="#6e6e6e" stroke-width="0.4"><desc><name>Wasco County</name><stateAbbrev>OR</stateAbbrev><state>Oregon</state><fips>065</fips><incits>41065</incits><id>US.OR.065</id><population>25477</population></desc></path><path d="M113.484848485,209.46969697 L142.121212121,209.46969697 L145.303030303,212.651515152 L145.303030303,213.712121212 L150.606060606,214.772727273 L150.606060606,222.196969697 L166.515151515,231.742424242 L166.515151515,239.166666667 L166.515151515,247.651515152 L155.909090909,248.712121212 L132.575757576,239.166666667 L105.0,239.166666667 L113.484848485,226.439393939 L102.878787879,215.833333333 L113.484848485,209.46969697 Z" fill="#cee3f5" id="US.OR.067" stroke="#6e6e6e" stroke-width="0.4"><desc><name>Washington County</name><stateAbbrev>OR</stateAbbrev><state>Oregon</state><fips>067</fips><incits>41067</incits><id>US.OR.067</id><population>554996</population></desc></path><path d="M357.424242424,269.924242424 L417.878787879,269.924242424 L427.424242424,276.287878788 L429.545454545,291.136363636 L429.545454545,334.621212121 L408.333333333,334.621212121 L408.333333333,328.257575758 L397.727272727,324.015151515 L366.96969697,324.015151515 L366.96969697,313.409090909 L368.03030303,291.136363636 L360.606060606,286.893939394 L357.424242424,269.924242424 Z" fill="#cee3f5" id="US.OR.069" stroke="#6e6e6e" stroke-width="0.4"><desc><name>Wheeler County</name><stateAbbrev>OR</stateAbbrev><state>Oregon</state><fips>069</fips><incits>41069</incits><id>US.OR.069</id><population>1381</population></desc></path><path d="M105.0,239.166666667 L132.575757576,239.166666667 L155.909090909,248.712121212 L156.96969697,254.015151515 L141.060606061,257.196969697 L138.939393939,269.924242424 L82.7272727273,269.924242424 L77.4242424242,257.196969697 L105.0,257.196969697 L105.0,239.166666667 Z" fill="#cee3f5" id="US.OR.071" stroke="#6e6e6e" stroke-width="0.4"><desc><name>Yamhill County</name><stateAbbrev>OR</stateAbbrev><state>Oregon</state><fips>071</fips><incits>41071</incits><id>US.OR.071</id><population>100725</population></desc></path></svg>