<?xml version="1.0"?>
<svg xmlns="http://www.w3.org/2000/svg" version="1.2" baseProfile="tiny" width="800" height="1084" viewBox="0 0 800 1084" stroke-linecap="round" stroke-linejoin="round">
<g id="liechtenstein">
<path d="M 295.462 227.324 297.1105 227.1534 338.095 197.8788 436.7819 173.4973 386.5882 228.6095 403.3529 227.4709 408.3824 237.718 421.7941 227.4709 448.6176 245.6882 475.4412 249.1041 513.5049 288.4478 405.4268 298.8764 320.5302 272.5292 295.6467 228.6172 295.462 227.324 Z"/>
<path d="M 436.7819 173.4973 338.095 197.8788 297.1105 227.1534 295.462 227.324 291.2555 197.8788 319.0665 170.0678 330.7763 145.1843 385.6816 73.4714 386.5882 73.8132 426.8235 101.1235 465.3824 142.0943 436.7819 173.4973 Z"/>
<path d="M 491.1672 387.6415 437.6289 358.8895 386.3982 355.962 348.1353 377.8265 242.9523 331.0785 235.6336 279.8479 258.78 231.1187 295.462 227.324 295.6467 228.6172 320.5302 272.5292 405.4268 298.8764 513.5049 288.4478 514 288.9595 517.3529 302.6257 550.8824 318.5704 529.0882 351.6019 527.4118 364.1321 491.1672 387.6415 Z"/>
<path d="M 491.6532 894.3792 461.0487 923.8908 493.2508 956.0929 538.6266 957.5566 548.8727 925.3545 527.6991 898.2994 548.8727 900.471 603.0308 901.9348 605.9583 963.4116 628.8763 1025.9953 537.4706 1062.2262 507.2941 1061.084 420.1176 1082.7868 400 1072.5063 393.2941 1040.5252 356.4118 1019.9679 333.7887 1007.4468 330.7763 992.6863 294.183 948.7742 283.9369 919.4996 232.7062 907.7897 209.6006 891.6158 230.6765 841.8731 230.6765 821.3316 200.2196 704.1862 253.1984 697.012 325.4275 688.5145 355.6598 714.5768 374.6884 825.8206 472.7585 860.9502 491.6532 894.3792 Z"/>
<path d="M 348.1353 377.8265 345.4137 379.3818 279.5457 389.6279 193.1854 389.6279 137.5635 367.6719 88.9821 352.6558 130.0882 294.6537 141.8235 245.6882 156.9118 221.7783 171.047 205.2001 254.6622 231.5446 258.78 231.1187 235.6336 279.8479 242.9523 331.0785 348.1353 377.8265 Z"/>
<path d="M 295.462 227.324 254.6622 231.5446 171.047 205.2001 230.6765 135.2654 274.2647 53.3324 282.6471 37.4041 286 1 312.8235 22.6143 332.9412 26.0272 327.9118 43.0927 356.4118 62.4348 385.6816 73.4714 330.7763 145.1843 319.0665 170.0678 291.2555 197.8788 295.462 227.324 Z"/>
<path d="M 431.5151 546.8878 403.963 615.0429 348.3412 616.5066 332.2401 629.6803 327.8489 688.2296 253.1984 697.012 200.2196 704.1862 192.1176 673.0241 172 627.408 135.1176 592.0611 115.8412 560.02 235.6336 578.4496 222.46 500.8717 257.5897 511.1178 282.4731 537.465 323.4577 521.3639 428.8465 544.7837 431.5151 546.8878 Z M 671.9669 885.7986 603.0825 903.0196 603.0308 901.9348 548.8727 900.471 525.6434 898.0885 526.9167 803.8646 557.6551 798.0096 562.9923 794.2736 563.51 796.5459 644.8205 783.4782 676.2175 840.4579 671.9669 885.7986 Z"/>
<path d="M 348.1353 377.8265 386.3982 355.962 437.6289 358.8895 491.1672 387.6415 490.5294 388.0553 493.8824 463.2566 462.0294 473.513 460.4072 476.27 392.2532 456.9597 341.0225 418.9026 348.3412 377.918 348.1353 377.8265 Z M 431.5151 546.8878 431.774 546.2474 461.2533 491.1339 492.2059 492.8874 522.3824 486.0492 540.8632 496.329 506.6834 605.5146 504.9607 604.7968 431.5151 546.8878 Z"/>
<path d="M 705.6062 937.9672 671.8263 887.2974 676.2175 840.4579 644.8205 783.4782 645.4791 783.3723 730.1442 784.1943 745.3529 797.3685 760.4412 796.2274 762.1176 804.2148 787.2647 825.8962 799 853.2858 795.6471 887.5268 785.5882 914.9229 740.3235 918.3476 720.2059 940.0385 705.6062 937.9672 Z M 562.9923 794.2736 557.6551 798.0096 526.9167 803.8646 525.6434 898.0885 491.7871 894.6161 472.7585 860.9502 374.6884 825.8206 355.6598 714.5768 325.4275 688.5145 327.8489 688.2296 332.2401 629.6803 348.3412 616.5066 403.963 615.0429 431.5151 546.8878 504.9607 604.7968 506.6834 605.5146 491.7871 653.1 537.1628 680.9109 562.9923 794.2736 Z"/>
<path d="M 209.6006 891.6158 232.7062 907.7897 283.9369 919.4996 294.183 948.7742 330.7763 992.6863 333.7887 1007.4468 329.5882 1005.122 215.5882 1027.9622 205.5294 1041.6673 151.8824 1047.3779 135.1176 1042.8094 135.1176 1058.7996 108.2941 1047.3779 91.5294 1047.3779 63.0294 1082.7868 47.9412 1066.7951 47.9412 1048.5201 26.1471 1050.8044 17.7647 1067.9373 1 1021.1099 4.3529 1002.8381 24.4706 992.5608 91.5294 965.1565 205.5294 901.2245 209.6006 891.6158 Z M 506.6834 605.5146 540.8632 496.329 577.7059 516.8224 607.8824 525.9411 629.6765 545.3193 624.6471 556.719 641.4118 582.9401 663.2059 598.9021 686.6765 602.3226 728.5882 580.6599 750.3824 609.1638 735.2941 633.1096 743.6765 644.5131 743.6765 671.8836 793.9706 695.8351 758.7404 728.0722 680.6087 735.0691 557.6551 626.7528 506.6834 605.5146 Z M 527.6991 898.2994 548.8727 925.3545 538.6266 957.5566 493.2508 956.0929 461.0487 923.8908 491.6532 894.3792 491.7871 894.6161 527.6991 898.2994 Z"/>
<path d="M 461.2533 491.1339 431.774 546.2474 431.5151 546.8878 428.8465 544.7837 323.4577 521.3639 282.4731 537.465 257.5897 511.1178 222.46 500.8717 235.6336 578.4496 115.8412 560.02 89.8529 516.8224 64.7059 439.3265 79.7941 380.0806 86.5 356.1582 88.9821 352.6558 137.5635 367.6719 193.1854 389.6279 279.5457 389.6279 345.4137 379.3818 348.1353 377.8265 348.3412 377.918 341.0225 418.9026 392.2532 456.9597 460.4072 476.27 451.9706 490.608 461.2533 491.1339 Z M 730.1442 784.1943 645.4791 783.3723 563.51 796.5459 537.1628 680.9109 491.7871 653.1 506.6834 605.5146 557.6551 626.7528 680.6087 735.0691 758.7404 728.0722 745.3529 740.3224 743.6765 765.4211 726.9118 781.3943 730.1442 784.1943 Z M 603.0825 903.0196 671.9669 885.7986 671.8263 887.2974 705.6062 937.9672 679.9706 934.3302 674.9412 956.0224 690.0294 975.4328 679.9706 993.7027 683.3235 1003.9801 658.1765 1025.6781 643.0882 1019.9679 629.6765 1025.6781 628.8763 1025.9953 605.9583 963.4116 603.0825 903.0196 Z"/>
</g>
</svg>