<?xml version='1.0' encoding='utf-8'?>
<svg height="700" width="700" xmlns="http://www.w3.org/2000/svg"><path d="M263.613231552,457.760814249 L268.956743003,450.636132316 L268.956743003,445.292620865 L281.424936387,441.730279898 L281.424936387,429.262086514 L284.987277354,415.012722646 L297.455470738,413.231552163 L306.361323155,416.79389313 L325.954198473,409.669211196 L333.078880407,404.325699746 L333.078880407,395.419847328 L325.954198473,397.201017812 L318.829516539,390.076335878 L327.735368957,386.513994911 L325.954198473,375.82697201 L329.51653944,374.045801527 L327.735368957,361.577608142 L340.203562341,361.577608142 L340.203562341,356.234096692 L350.890585242,354.452926209 L356.234096692,358.015267176 L363.358778626,358.015267176 L368.702290076,352.671755725 L388.295165394,356.234096692 L384.732824427,368.702290076 L388.295165394,370.48346056 L395.419847328,381.170483461 L407.888040712,391.857506361 L406.106870229,402.544529262 L398.982188295,409.669211196 L395.419847328,423.918575064 L398.982188295,431.043256997 L404.325699746,436.386768448 L404.325699746,443.511450382 L413.231552163,443.511450382 L423.918575064,445.292620865 L429.262086514,448.854961832 L429.262086514,464.885496183 L441.730279898,459.541984733 L441.730279898,457.760814249 L454.198473282,455.979643766 L457.760814249,452.417302799 L463.1043257,454.198473282 L473.791348601,463.1043257 L466.666666667,468.44783715 L466.666666667,473.791348601 L455.979643766,475.572519084 L459.541984733,482.697201018 L473.791348601,493.384223919 L463.1043257,495.165394402 L464.885496183,504.071246819 L457.760814249,504.071246819 L441.730279898,509.41475827 L427.480916031,509.41475827 L422.13740458,512.977099237 L425.699745547,520.10178117 L434.605597964,518.320610687 L436.386768448,534.351145038 L431.043256997,537.913486005 L423.918575064,539.694656489 L427.480916031,552.162849873 L418.575063613,559.287531807 L407.888040712,546.819338422 L398.982188295,543.256997455 L379.389312977,550.381679389 L379.389312977,537.913486005 L374.045801527,527.226463104 L375.82697201,520.10178117 L370.48346056,512.977099237 L361.577608142,514.75826972 L358.015267176,505.852417303 L347.328244275,504.071246819 L338.422391858,507.633587786 L329.51653944,502.290076336 L327.735368957,509.41475827 L315.267175573,507.633587786 L304.580152672,507.633587786 L293.893129771,511.195928753 L290.330788804,505.852417303 L283.20610687,511.195928753 L272.519083969,507.633587786 L274.300254453,500.508905852 L268.956743003,496.946564885 L277.86259542,489.821882952 L286.768447837,488.040712468 L290.330788804,482.697201018 L279.643765903,470.229007634 L261.832061069,461.323155216 L263.613231552,457.760814249 Z" fill="#cee3f5" id="CN.fujian.2666969" stroke="#6e6e6e" stroke-width="0.4"><desc><name>Quanzhou</name><admin_leve>5</admin_leve><wikipedia>zh:泉州市</wikipedia><wikidata>Q68695</wikidata><localname>泉州市 / Quanzhou</localname><boundary>administrative</boundary><id>CN.fujian.2666969</id></desc></path><path d="M90.8396946565,336.641221374 L101.526717557,338.422391858 L105.089058524,345.547073791 L112.213740458,340.203562341 L117.557251908,343.765903308 L124.681933842,341.984732824 L128.244274809,349.109414758 L140.712468193,356.234096692 L142.493638677,363.358778626 L153.180661578,372.264631043 L160.305343511,370.48346056 L165.648854962,363.358778626 L183.460559796,363.358778626 L187.022900763,372.264631043 L192.366412214,391.857506361 L199.491094148,393.638676845 L204.834605598,400.763358779 L211.959287532,404.325699746 L215.521628499,395.419847328 L220.865139949,390.076335878 L219.083969466,381.170483461 L231.55216285,377.608142494 L238.676844784,381.170483461 L240.458015267,391.857506361 L244.020356234,390.076335878 L247.582697201,382.951653944 L254.707379135,381.170483461 L261.832061069,382.951653944 L270.737913486,391.857506361 L277.86259542,390.076335878 L288.549618321,404.325699746 L281.424936387,407.888040712 L284.987277354,415.012722646 L281.424936387,429.262086514 L281.424936387,441.730279898 L268.956743003,445.292620865 L268.956743003,450.636132316 L263.613231552,457.760814249 L252.926208651,463.1043257 L251.145038168,470.229007634 L254.707379135,475.572519084 L252.926208651,493.384223919 L242.239185751,491.603053435 L226.208651399,493.384223919 L222.646310433,489.821882952 L204.834605598,509.41475827 L201.272264631,520.10178117 L183.460559796,521.882951654 L181.679389313,532.569974555 L187.022900763,539.694656489 L181.679389313,555.72519084 L172.773536896,555.72519084 L167.430025445,559.287531807 L170.992366412,571.755725191 L165.648854962,580.661577608 L156.743002545,573.536895674 L156.743002545,566.41221374 L149.618320611,562.849872774 L144.27480916,555.72519084 L149.618320611,543.256997455 L138.93129771,537.913486005 L121.119592875,541.475826972 L113.994910941,546.819338422 L105.089058524,530.788804071 L94.4020356234,527.226463104 L90.8396946565,518.320610687 L94.4020356234,512.977099237 L89.058524173,507.633587786 L78.3715012723,518.320610687 L67.6844783715,520.10178117 L60.5597964377,509.41475827 L53.4351145038,511.195928753 L39.1857506361,509.41475827 L37.4045801527,504.071246819 L28.4987277354,500.508905852 L14.2493638677,498.727735369 L12.4681933842,486.259541985 L21.3740458015,480.916030534 L12.4681933842,470.229007634 L10.6870229008,455.979643766 L21.3740458015,454.198473282 L33.8422391858,439.949109415 L32.0610687023,436.386768448 L30.2798982188,420.356234097 L40.9669211196,406.106870229 L40.9669211196,386.513994911 L48.0916030534,384.732824427 L51.6539440204,375.82697201 L58.7786259542,375.82697201 L51.6539440204,365.139949109 L51.6539440204,361.577608142 L67.6844783715,352.671755725 L76.5903307888,352.671755725 L85.4961832061,340.203562341 L90.8396946565,336.641221374 Z" fill="#cee3f5" id="CN.fujian.3144724" stroke="#6e6e6e" stroke-width="0.4"><desc><name>Longyan City</name><admin_leve>5</admin_leve><wikipedia>zh:龙岩市</wikipedia><wikidata>Q68862</wikidata><localname>龙岩市 / Longyan</localname><boundary>administrative</boundary><id>CN.fujian.3144724</id></desc></path><path d="M187.022900763,178.117048346 L203.053435115,176.335877863 L215.521628499,188.804071247 L220.865139949,183.460559796 L224.427480916,174.554707379 L236.8956743,178.117048346 L245.801526718,190.58524173 L260.050890585,194.147582697 L254.707379135,203.053435115 L265.394402036,203.053435115 L267.175572519,208.396946565 L277.86259542,220.865139949 L276.081424936,231.55216285 L268.956743003,233.333333333 L272.519083969,240.458015267 L281.424936387,245.801526718 L290.330788804,242.239185751 L306.361323155,242.239185751 L306.361323155,249.363867684 L309.923664122,256.488549618 L325.954198473,256.488549618 L333.078880407,265.394402036 L338.422391858,277.86259542 L341.984732824,283.20610687 L350.890585242,284.987277354 L365.139949109,283.20610687 L377.608142494,276.081424936 L379.389312977,279.643765903 L391.857506361,283.20610687 L397.201017812,290.330788804 L400.763358779,286.768447837 L415.012722646,293.893129771 L423.918575064,302.798982188 L418.575063613,304.580152672 L411.450381679,322.391857506 L416.79389313,329.51653944 L407.888040712,331.297709924 L402.544529262,341.984732824 L402.544529262,354.452926209 L388.295165394,356.234096692 L368.702290076,352.671755725 L363.358778626,358.015267176 L356.234096692,358.015267176 L350.890585242,354.452926209 L340.203562341,356.234096692 L340.203562341,361.577608142 L327.735368957,361.577608142 L329.51653944,374.045801527 L325.954198473,375.82697201 L327.735368957,386.513994911 L318.829516539,390.076335878 L325.954198473,397.201017812 L333.078880407,395.419847328 L333.078880407,404.325699746 L325.954198473,409.669211196 L306.361323155,416.79389313 L297.455470738,413.231552163 L284.987277354,415.012722646 L281.424936387,407.888040712 L288.549618321,404.325699746 L277.86259542,390.076335878 L270.737913486,391.857506361 L261.832061069,382.951653944 L254.707379135,381.170483461 L247.582697201,382.951653944 L244.020356234,390.076335878 L240.458015267,391.857506361 L238.676844784,381.170483461 L231.55216285,377.608142494 L219.083969466,381.170483461 L220.865139949,390.076335878 L215.521628499,395.419847328 L211.959287532,404.325699746 L204.834605598,400.763358779 L199.491094148,393.638676845 L192.366412214,391.857506361 L187.022900763,372.264631043 L183.460559796,363.358778626 L165.648854962,363.358778626 L160.305343511,370.48346056 L153.180661578,372.264631043 L142.493638677,363.358778626 L140.712468193,356.234096692 L128.244274809,349.109414758 L124.681933842,341.984732824 L117.557251908,343.765903308 L112.213740458,340.203562341 L105.089058524,345.547073791 L101.526717557,338.422391858 L90.8396946565,336.641221374 L90.8396946565,333.078880407 L105.089058524,324.17302799 L101.526717557,315.267175573 L94.4020356234,317.048346056 L89.058524173,304.580152672 L96.1832061069,293.893129771 L112.213740458,281.424936387 L119.338422392,286.768447837 L126.463104326,268.956743003 L110.432569975,256.488549618 L115.776081425,245.801526718 L106.870229008,238.676844784 L113.994910941,227.989821883 L113.994910941,213.740458015 L124.681933842,203.053435115 L137.150127226,194.147582697 L153.180661578,190.58524173 L172.773536896,187.022900763 L174.554707379,183.460559796 L187.022900763,178.117048346 Z" fill="#cee3f5" id="CN.fujian.3181479" stroke="#6e6e6e" stroke-width="0.4"><desc><name>Sanming City</name><admin_leve>5</admin_leve><wikidata>Q68614</wikidata><localname>三明市 (Sanming)</localname><boundary>administrative</boundary><id>CN.fujian.3181479</id></desc></path><path d="M514.75826972,130.025445293 L516.539440204,137.150127226 L505.852417303,153.180661578 L509.41475827,158.524173028 L502.290076336,163.867684478 L504.071246819,172.773536896 L498.727735369,178.117048346 L491.603053435,181.679389313 L484.478371501,176.335877863 L477.353689567,178.117048346 L468.44783715,172.773536896 L461.323155216,179.89821883 L455.979643766,188.804071247 L443.511450382,201.272264631 L431.043256997,199.491094148 L431.043256997,211.959287532 L420.356234097,213.740458015 L422.13740458,220.865139949 L416.79389313,233.333333333 L415.012722646,254.707379135 L418.575063613,258.269720102 L416.79389313,268.956743003 L409.669211196,276.081424936 L407.888040712,281.424936387 L425.699745547,290.330788804 L425.699745547,297.455470738 L423.918575064,302.798982188 L415.012722646,293.893129771 L400.763358779,286.768447837 L397.201017812,290.330788804 L391.857506361,283.20610687 L379.389312977,279.643765903 L377.608142494,276.081424936 L365.139949109,283.20610687 L350.890585242,284.987277354 L341.984732824,283.20610687 L338.422391858,277.86259542 L333.078880407,265.394402036 L325.954198473,256.488549618 L309.923664122,256.488549618 L306.361323155,249.363867684 L306.361323155,242.239185751 L290.330788804,242.239185751 L281.424936387,245.801526718 L272.519083969,240.458015267 L268.956743003,233.333333333 L276.081424936,231.55216285 L277.86259542,220.865139949 L267.175572519,208.396946565 L265.394402036,203.053435115 L254.707379135,203.053435115 L260.050890585,194.147582697 L245.801526718,190.58524173 L236.8956743,178.117048346 L224.427480916,174.554707379 L220.865139949,183.460559796 L215.521628499,188.804071247 L203.053435115,176.335877863 L187.022900763,178.117048346 L187.022900763,172.773536896 L190.58524173,167.430025445 L201.272264631,156.743002545 L204.834605598,149.618320611 L194.147582697,142.493638677 L199.491094148,131.806615776 L195.928753181,113.994910941 L181.679389313,108.651399491 L179.89821883,99.7455470738 L185.24173028,94.4020356234 L194.147582697,94.4020356234 L197.709923664,90.8396946565 L204.834605598,92.6208651399 L210.178117048,87.2773536896 L215.521628499,87.2773536896 L224.427480916,78.3715012723 L222.646310433,64.1221374046 L240.458015267,60.5597964377 L254.707379135,48.0916030534 L263.613231552,49.8727735369 L268.956743003,64.1221374046 L288.549618321,74.8091603053 L295.674300254,65.903307888 L297.455470738,60.5597964377 L306.361323155,53.4351145038 L313.486005089,53.4351145038 L318.829516539,48.0916030534 L324.17302799,49.8727735369 L341.984732824,44.5292620865 L349.109414758,35.6234096692 L356.234096692,37.4045801527 L370.48346056,32.0610687023 L377.608142494,32.0610687023 L382.951653944,24.9363867684 L381.170483461,17.8117048346 L375.82697201,10.6870229008 L390.076335878,1.78117048346 L397.201017812,8.9058524173 L413.231552163,1.78117048346 L418.575063613,7.12468193384 L427.480916031,3.56234096692 L431.043256997,0.0 L447.073791349,12.4681933842 L445.292620865,26.7175572519 L434.605597964,35.6234096692 L434.605597964,48.0916030534 L445.292620865,55.2162849873 L450.636132316,62.3409669211 L455.979643766,81.9338422392 L455.979643766,89.058524173 L461.323155216,96.1832061069 L463.1043257,108.651399491 L457.760814249,115.776081425 L461.323155216,122.900763359 L468.44783715,124.681933842 L477.353689567,119.338422392 L484.478371501,122.900763359 L493.384223919,121.119592875 L495.165394402,128.244274809 L509.41475827,130.025445293 L514.75826972,130.025445293 Z" fill="#cee3f5" id="CN.fujian.3206301" stroke="#6e6e6e" stroke-width="0.4"><desc><name>Nanping City</name><admin_leve>5</admin_leve><wikipedia>en:Nanping</wikipedia><wikidata>Q68534</wikidata><localname>南平市</localname><boundary>administrative</boundary><id>CN.fujian.3206301</id></desc></path><path d="M165.648854962,580.661577608 L170.992366412,571.755725191 L167.430025445,559.287531807 L172.773536896,555.72519084 L181.679389313,555.72519084 L187.022900763,539.694656489 L181.679389313,532.569974555 L183.460559796,521.882951654 L201.272264631,520.10178117 L204.834605598,509.41475827 L222.646310433,489.821882952 L226.208651399,493.384223919 L242.239185751,491.603053435 L252.926208651,493.384223919 L254.707379135,475.572519084 L251.145038168,470.229007634 L252.926208651,463.1043257 L263.613231552,457.760814249 L261.832061069,461.323155216 L279.643765903,470.229007634 L290.330788804,482.697201018 L286.768447837,488.040712468 L277.86259542,489.821882952 L268.956743003,496.946564885 L274.300254453,500.508905852 L272.519083969,507.633587786 L283.20610687,511.195928753 L290.330788804,505.852417303 L293.893129771,511.195928753 L304.580152672,507.633587786 L315.267175573,507.633587786 L322.391857506,511.195928753 L322.391857506,521.882951654 L318.829516539,527.226463104 L322.391857506,536.132315522 L315.267175573,546.819338422 L317.048346056,557.506361323 L322.391857506,564.631043257 L320.610687023,568.193384224 L306.361323155,564.631043257 L301.017811705,566.41221374 L304.580152672,573.536895674 L315.267175573,578.880407125 L331.297709924,575.318066158 L338.422391858,575.318066158 L347.328244275,591.348600509 L347.328244275,596.692111959 L338.422391858,600.254452926 L320.610687023,612.72264631 L313.486005089,623.409669211 L311.704834606,632.315521628 L306.361323155,632.315521628 L295.674300254,637.659033079 L284.987277354,632.315521628 L283.20610687,639.440203562 L284.987277354,644.783715013 L277.86259542,648.34605598 L270.737913486,660.814249364 L263.613231552,650.127226463 L251.145038168,650.127226463 L254.707379135,657.251908397 L251.145038168,666.157760814 L244.020356234,671.501272265 L240.458015267,669.720101781 L238.676844784,667.938931298 L236.8956743,667.938931298 L231.55216285,673.282442748 L220.865139949,675.063613232 L220.865139949,689.312977099 L213.740458015,692.875318066 L199.491094148,687.531806616 L187.022900763,680.407124682 L187.022900763,669.720101781 L183.460559796,660.814249364 L178.117048346,657.251908397 L174.554707379,650.127226463 L176.335877863,635.877862595 L174.554707379,635.877862595 L169.211195929,623.409669211 L169.211195929,618.066157761 L179.89821883,609.160305344 L170.992366412,603.816793893 L165.648854962,580.661577608 M227.989821883,700.0 L235.114503817,691.094147583 L231.55216285,683.969465649 L231.55216285,675.063613232 L236.8956743,669.720101781 L238.676844784,667.938931298 L242.239185751,671.501272265 L245.801526718,675.063613232 L252.926208651,678.625954198 L249.363867684,687.531806616 L242.239185751,691.094147583 L244.020356234,698.218829517 L235.114503817,700.0 L227.989821883,700.0 Z" fill="#cee3f5" id="CN.fujian.3242122" stroke="#6e6e6e" stroke-width="0.4"><desc><name>Zhangzhou City</name><admin_leve>5</admin_leve><wikipedia>en:Zhangzhou</wikipedia><wikidata>Q68814</wikidata><localname>漳州市 / Zhangzhou</localname><boundary>administrative</boundary><id>CN.fujian.3242122</id></desc></path><path d="M315.267175573,507.633587786 L327.735368957,509.41475827 L329.51653944,502.290076336 L338.422391858,507.633587786 L347.328244275,504.071246819 L358.015267176,505.852417303 L361.577608142,514.75826972 L370.48346056,512.977099237 L375.82697201,520.10178117 L374.045801527,527.226463104 L379.389312977,537.913486005 L379.389312977,550.381679389 L372.264631043,552.162849873 L365.139949109,557.506361323 L359.796437659,555.72519084 L356.234096692,548.600508906 L349.109414758,546.819338422 L343.765903308,552.162849873 L356.234096692,559.287531807 L358.015267176,564.631043257 L347.328244275,573.536895674 L338.422391858,568.193384224 L341.984732824,553.944020356 L333.078880407,555.72519084 L338.422391858,561.06870229 L333.078880407,566.41221374 L334.860050891,571.755725191 L320.610687023,568.193384224 L322.391857506,564.631043257 L317.048346056,557.506361323 L315.267175573,546.819338422 L322.391857506,536.132315522 L318.829516539,527.226463104 L322.391857506,521.882951654 L322.391857506,511.195928753 L315.267175573,507.633587786 M370.48346056,552.162849873 L382.951653944,552.162849873 L377.608142494,559.287531807 L370.48346056,552.162849873 Z" fill="#cee3f5" id="CN.fujian.3242930" stroke="#6e6e6e" stroke-width="0.4"><desc><name>Xiamen City</name><admin_leve>5</admin_leve><wikipedia>en:Xiamen</wikipedia><wikidata>Q68744</wikidata><localname>厦门市 / Xiamen</localname><boundary>administrative</boundary><id>CN.fujian.3242930</id></desc></path><path d="M388.295165394,356.234096692 L402.544529262,354.452926209 L402.544529262,341.984732824 L407.888040712,331.297709924 L416.79389313,329.51653944 L411.450381679,322.391857506 L418.575063613,304.580152672 L423.918575064,302.798982188 L425.699745547,297.455470738 L434.605597964,290.330788804 L441.730279898,293.893129771 L447.073791349,286.768447837 L438.167938931,281.424936387 L434.605597964,268.956743003 L445.292620865,268.956743003 L448.854961832,277.86259542 L466.666666667,268.956743003 L466.666666667,263.613231552 L475.572519084,261.832061069 L475.572519084,256.488549618 L484.478371501,252.926208651 L493.384223919,261.832061069 L505.852417303,256.488549618 L509.41475827,263.613231552 L516.539440204,261.832061069 L532.569974555,249.363867684 L543.256997455,247.582697201 L550.381679389,249.363867684 L553.944020356,256.488549618 L568.193384224,263.613231552 L573.536895674,261.832061069 L578.880407125,256.488549618 L589.567430025,254.707379135 L596.692111959,261.832061069 L600.254452926,276.081424936 L612.72264631,276.081424936 L619.847328244,279.643765903 L621.628498728,286.768447837 L609.160305344,304.580152672 L603.816793893,318.829516539 L605.597964377,334.860050891 L603.816793893,356.234096692 L602.03562341,366.921119593 L602.03562341,375.82697201 L612.72264631,397.201017812 L618.066157761,413.231552163 L616.284987277,425.699745547 L605.597964377,438.167938931 L591.348600509,447.073791349 L580.661577608,450.636132316 L564.631043257,447.073791349 L546.819338422,443.511450382 L511.195928753,425.699745547 L507.633587786,416.79389313 L511.195928753,409.669211196 L502.290076336,406.106870229 L495.165394402,393.638676845 L498.727735369,384.732824427 L495.165394402,377.608142494 L488.040712468,377.608142494 L473.791348601,379.389312977 L466.666666667,384.732824427 L463.1043257,381.170483461 L454.198473282,384.732824427 L448.854961832,381.170483461 L443.511450382,386.513994911 L427.480916031,388.295165394 L423.918575064,384.732824427 L407.888040712,391.857506361 L395.419847328,381.170483461 L388.295165394,370.48346056 L384.732824427,368.702290076 L388.295165394,356.234096692 Z" fill="#cee3f5" id="CN.fujian.3263977" stroke="#6e6e6e" stroke-width="0.4"><desc><name>Fuzhou City</name><admin_leve>5</admin_leve><wikipedia>en:Fuzhou</wikipedia><wikidata>Q68481</wikidata><localname>福州市 / Fuzhou</localname><boundary>administrative</boundary><id>CN.fujian.3263977</id></desc></path><path d="M407.888040712,391.857506361 L423.918575064,384.732824427 L427.480916031,388.295165394 L443.511450382,386.513994911 L448.854961832,381.170483461 L454.198473282,384.732824427 L463.1043257,381.170483461 L466.666666667,384.732824427 L473.791348601,379.389312977 L488.040712468,377.608142494 L495.165394402,377.608142494 L498.727735369,384.732824427 L495.165394402,393.638676845 L502.290076336,406.106870229 L511.195928753,409.669211196 L507.633587786,416.79389313 L498.727735369,423.918575064 L498.727735369,432.824427481 L507.633587786,434.605597964 L514.75826972,441.730279898 L525.445292621,447.073791349 L530.788804071,450.636132316 L518.320610687,454.198473282 L520.10178117,461.323155216 L504.071246819,461.323155216 L496.946564885,457.760814249 L491.603053435,459.541984733 L496.946564885,470.229007634 L484.478371501,472.010178117 L480.916030534,466.666666667 L486.259541985,461.323155216 L484.478371501,455.979643766 L475.572519084,457.760814249 L475.572519084,445.292620865 L457.760814249,452.417302799 L454.198473282,455.979643766 L441.730279898,457.760814249 L441.730279898,459.541984733 L429.262086514,464.885496183 L429.262086514,448.854961832 L423.918575064,445.292620865 L413.231552163,443.511450382 L404.325699746,443.511450382 L404.325699746,436.386768448 L398.982188295,431.043256997 L395.419847328,423.918575064 L398.982188295,409.669211196 L406.106870229,402.544529262 L407.888040712,391.857506361 M541.475826972,454.198473282 L548.600508906,452.417302799 L550.381679389,461.323155216 L543.256997455,459.541984733 L541.475826972,454.198473282 Z" fill="#cee3f5" id="CN.fujian.3276849" stroke="#6e6e6e" stroke-width="0.4"><desc><name>Putian City</name><admin_leve>5</admin_leve><wikipedia>en:Putian</wikipedia><wikidata>Q68579</wikidata><localname>莆田市 / Putian</localname><boundary>administrative</boundary><id>CN.fujian.3276849</id></desc></path><path d="M514.75826972,130.025445293 L525.445292621,121.119592875 L530.788804071,113.994910941 L545.038167939,113.994910941 L548.600508906,101.526717557 L557.506361323,92.6208651399 L569.974554707,92.6208651399 L568.193384224,105.089058524 L573.536895674,108.651399491 L573.536895674,113.994910941 L580.661577608,117.557251908 L577.099236641,128.244274809 L593.129770992,146.055979644 L600.254452926,147.837150127 L614.503816794,146.055979644 L619.847328244,138.93129771 L623.409669211,137.150127226 L632.315521628,140.712468193 L644.783715013,130.025445293 L660.814249364,128.244274809 L664.376590331,135.368956743 L675.063613232,135.368956743 L676.844783715,142.493638677 L687.531806616,154.961832061 L683.969465649,163.867684478 L689.312977099,170.992366412 L682.188295165,172.773536896 L676.844783715,179.89821883 L664.376590331,179.89821883 L660.814249364,187.022900763 L664.376590331,190.58524173 L659.03307888,204.834605598 L641.221374046,203.053435115 L641.221374046,208.396946565 L628.753180662,211.959287532 L628.753180662,217.302798982 L635.877862595,219.083969466 L637.659033079,229.770992366 L643.002544529,235.114503817 L641.221374046,244.020356234 L626.972010178,251.145038168 L616.284987277,252.926208651 L614.503816794,258.269720102 L607.37913486,265.394402036 L596.692111959,261.832061069 L589.567430025,254.707379135 L578.880407125,256.488549618 L573.536895674,261.832061069 L568.193384224,263.613231552 L553.944020356,256.488549618 L550.381679389,249.363867684 L543.256997455,247.582697201 L532.569974555,249.363867684 L516.539440204,261.832061069 L509.41475827,263.613231552 L505.852417303,256.488549618 L493.384223919,261.832061069 L484.478371501,252.926208651 L475.572519084,256.488549618 L475.572519084,261.832061069 L466.666666667,263.613231552 L466.666666667,268.956743003 L448.854961832,277.86259542 L445.292620865,268.956743003 L434.605597964,268.956743003 L438.167938931,281.424936387 L447.073791349,286.768447837 L441.730279898,293.893129771 L434.605597964,290.330788804 L425.699745547,297.455470738 L425.699745547,290.330788804 L407.888040712,281.424936387 L409.669211196,276.081424936 L416.79389313,268.956743003 L418.575063613,258.269720102 L415.012722646,254.707379135 L416.79389313,233.333333333 L422.13740458,220.865139949 L420.356234097,213.740458015 L431.043256997,211.959287532 L431.043256997,199.491094148 L443.511450382,201.272264631 L455.979643766,188.804071247 L461.323155216,179.89821883 L468.44783715,172.773536896 L477.353689567,178.117048346 L484.478371501,176.335877863 L491.603053435,181.679389313 L498.727735369,178.117048346 L504.071246819,172.773536896 L502.290076336,163.867684478 L509.41475827,158.524173028 L505.852417303,153.180661578 L516.539440204,137.150127226 L514.75826972,130.025445293 Z" fill="#cee3f5" id="CN.fujian.3277236" stroke="#6e6e6e" stroke-width="0.4"><desc><name>Ningde City</name><admin_leve>5</admin_leve><wikipedia>en:Ningde</wikipedia><wikidata>Q68919</wikidata><localname>宁德市</localname><boundary>administrative</boundary><id>CN.fujian.3277236</id></desc></path></svg>