<?xml version='1.0' encoding='utf-8'?>
<svg height="700" width="700" xmlns="http://www.w3.org/2000/svg"><path d="M416.403157412,479.839185051 L417.641977732,484.609472517 L416.344780035,489.146743984 L419.145846275,493.454555553 L418.130611018,500.039393555 L421.05307681,502.976203955 L433.844693966,504.179123602 L446.091966335,499.182883446 L453.821201058,502.143413226 L453.854086166,507.212083127 L456.036330424,508.348931888 L460.475300341,506.354618365 L465.774474286,507.125260686 L471.440589104,502.845940998 L487.432138994,498.444504615 L487.335117975,510.278001224 L480.102871055,513.547932422 L477.79566132,526.930657264 L460.454326808,545.925239194 L460.683815989,549.578806945 L466.056780062,552.797079645 L470.572217973,562.604002116 L466.993360536,564.822015926 L466.634313242,569.916619477 L462.302203702,573.567744653 L467.245704778,588.739670793 L465.510189785,598.066716932 L453.137652424,600.517388881 L448.310544682,594.373996226 L431.375309529,601.925537031 L412.898070572,616.968321676 L397.998803077,615.536113689 L394.533547094,607.546678467 L391.072666821,603.362411557 L387.189615455,602.024634575 L371.905386527,607.903217072 L364.014415961,608.001753134 L356.445670199,604.373251293 L345.172544014,610.13313259 L340.110687335,608.480325445 L320.362134013,614.599261811 L302.987178583,605.917508883 L303.589492491,603.560199943 L300.240322757,598.963093421 L299.82684292,594.829694206 L304.445902872,588.673755201 L304.441343929,583.961122328 L300.510211217,565.070788288 L296.831618467,557.87050025 L291.827204786,555.574919309 L285.126554359,545.875234429 L286.335261862,531.14197577 L289.431328711,522.110997405 L293.360835725,517.971548048 L301.26469913,515.565343503 L299.101428664,511.995129428 L301.184613373,509.525319917 L310.425065872,506.074718946 L310.627130045,498.21403374 L312.472657918,495.518888847 L323.871646974,487.12789957 L330.4021156,493.650133065 L336.695134552,495.388965051 L351.553933525,497.142211468 L366.531565747,488.753911468 L364.762852326,481.851731934 L369.941618307,478.497129226 L377.999960393,480.490425531 L396.113580546,476.396794292 L405.625205783,481.297637941 L416.403157412,479.839185051 Z" fill="#cee3f5" id="LT.AS" stroke="#6e6e6e" stroke-width="0.4"><desc><labelrank>7</labelrank><code_hasc>LT.AS</code_hasc><name>Alytaus</name><admin>Lithuania</admin><type_en>County</type_en><region /><woe_id>55848082</woe_id><longitude>24</longitude><woe_name>Alytaus</woe_name><fips>LH56</fips><woe_label>Alytus County, LT, Lithuania</woe_label><latitude>54</latitude><iso_a2>LT</iso_a2><postal>AS</postal><type>Apskritis</type><id>LT.AS</id></desc></path><path d="M350.598518445,265.95642217 L354.686027303,266.880062984 L357.928191844,276.386718765 L365.222704518,276.514962011 L372.33917371,283.928340879 L372.695982029,293.856698321 L391.18112956,286.23364638 L396.150536812,291.437695165 L400.292003051,292.198293803 L402.19891731,289.385799205 L407.785662154,292.395953346 L415.688875389,302.57251226 L412.573593283,318.597217203 L415.710513236,324.770360739 L416.70305862,332.120499134 L419.162478734,335.200827815 L425.437971518,337.941408613 L422.809219543,340.343387031 L422.85243993,344.894797323 L428.944180884,351.6248851 L430.529555737,359.42191325 L436.838866556,359.166098565 L439.082810768,365.564581375 L442.717662738,367.301089681 L444.435532614,371.696750904 L432.180901654,387.085660161 L447.499545935,398.568002222 L457.080094168,400.605739415 L462.553271668,407.124503042 L455.459054107,415.928397961 L445.433654631,422.67234691 L440.922711396,441.598832929 L433.794212725,440.849674735 L431.590784814,444.080945268 L423.578315193,448.506813544 L425.669400591,466.169181872 L424.143543966,468.255788653 L419.814642918,467.93357097 L416.403157412,479.839185051 L405.625205783,481.297637941 L396.113580546,476.396794292 L377.999960393,480.490425531 L369.941618307,478.497129226 L364.762852326,481.851731934 L366.531565747,488.753911468 L351.553933525,497.142211468 L336.695134552,495.388965051 L339.445699752,489.617574855 L337.139036605,481.289747182 L331.87229068,479.490659625 L325.651049575,473.245902324 L328.128956969,466.959079673 L320.745871516,461.444062274 L327.059848762,457.150825143 L327.865507449,453.234210164 L324.030096733,432.719084624 L319.734503665,430.33458528 L323.867010334,424.219586029 L321.981030981,412.087295826 L313.066486921,404.345708746 L305.514402535,406.235964449 L301.824104962,396.231811267 L294.136005662,392.070723666 L298.089124599,387.48743518 L306.599213224,387.422849512 L310.681539796,381.621247508 L315.395473556,380.017169562 L315.468985377,378.113949424 L312.532931636,374.175020407 L304.521443701,373.968743825 L295.945076218,368.065859844 L301.288449684,354.162814918 L301.219050564,344.066492638 L303.960667866,339.675943208 L301.627994554,336.7027303 L290.77696958,337.474198722 L285.966313618,333.163091082 L273.670079357,333.8927222 L266.582735606,326.157429879 L248.172963137,329.470380829 L246.687913552,327.356372731 L248.793230162,322.645361883 L238.592396243,313.923777504 L235.650240606,319.174744925 L230.795746596,322.160632952 L229.87253123,318.785043966 L224.301365901,312.828123757 L223.403962756,301.776234294 L218.217363912,301.987045862 L215.070150971,299.464869784 L215.074374304,294.205452754 L209.608786501,291.239076623 L205.764523899,284.238569708 L216.388581128,278.628876883 L225.20196119,277.468419861 L228.901338255,282.526022913 L231.963200839,283.353267759 L250.349056449,276.377705344 L255.745988819,272.411988935 L261.564096908,264.257220734 L268.932243396,263.441742022 L274.423616881,264.745566658 L277.789245319,271.173952219 L286.451559161,265.998566564 L295.358137255,273.712026408 L301.913394565,276.484205678 L305.117825263,275.996287531 L306.076794061,272.902196035 L311.676257244,270.746220003 L317.294163464,274.2279304 L315.267165049,280.450212513 L316.649229941,283.78089246 L322.942506532,285.617738002 L329.018532157,277.848939686 L350.598518445,265.95642217 Z" fill="#cee3f5" id="LT.KS" stroke="#6e6e6e" stroke-width="0.4"><desc><labelrank>7</labelrank><code_hasc>LT.KS</code_hasc><name>Kauno</name><admin>Lithuania</admin><type_en>County</type_en><region /><woe_id>55848084</woe_id><longitude>23</longitude><woe_name>Kauno</woe_name><fips>LH57</fips><woe_label>Kaunas County, LT, Lithuania</woe_label><latitude>55</latitude><iso_a2>LT</iso_a2><postal>KS</postal><type>Apskritis</type><id>LT.KS</id></desc></path><path d="M295.945076218,368.065859844 L304.521443701,373.968743825 L312.532931636,374.175020407 L315.468985377,378.113949424 L315.395473556,380.017169562 L310.681539796,381.621247508 L306.599213224,387.422849512 L298.089124599,387.48743518 L294.136005662,392.070723666 L301.824104962,396.231811267 L305.514402535,406.235964449 L313.066486921,404.345708746 L321.981030981,412.087295826 L323.867010334,424.219586029 L319.734503665,430.33458528 L324.030096733,432.719084624 L327.865507449,453.234210164 L327.059848762,457.150825143 L320.745871516,461.444062274 L328.128956969,466.959079673 L325.651049575,473.245902324 L331.87229068,479.490659625 L337.139036605,481.289747182 L339.445699752,489.617574855 L336.695134552,495.388965051 L330.4021156,493.650133065 L323.871646974,487.12789957 L312.472657918,495.518888847 L310.627130045,498.21403374 L310.425065872,506.074718946 L301.184613373,509.525319917 L299.101428664,511.995129428 L301.26469913,515.565343503 L293.360835725,517.971548048 L289.431328711,522.110997405 L286.335261862,531.14197577 L285.126554359,545.875234429 L272.891354768,539.93640722 L258.560610566,529.480113857 L250.363019547,531.174794365 L248.210040979,528.071644775 L249.459374089,521.531051429 L243.170439316,518.854678619 L239.95678647,512.897332857 L234.617197881,512.9357234 L224.790243666,508.648136251 L221.733746173,510.02098776 L216.05824329,517.819326099 L208.953675447,504.650723454 L205.856067252,497.39826988 L205.305829054,489.232784351 L206.475666925,473.052192173 L209.923241613,459.394655739 L209.217042885,450.212297573 L212.476468382,444.889063807 L212.28257271,441.120720545 L225.520379996,429.808747922 L227.510906388,422.506404988 L224.49899536,407.494380891 L215.923304313,402.253889763 L216.350260755,397.827754788 L212.03116037,393.520782916 L202.201444464,391.964486483 L195.170268661,369.683561726 L198.57415694,368.190598216 L203.8874038,371.294610199 L231.182983057,364.422570717 L237.655331905,366.369302306 L246.858250478,361.942848274 L284.853981526,369.529222524 L295.945076218,368.065859844 Z" fill="#cee3f5" id="LT.MA" stroke="#6e6e6e" stroke-width="0.4"><desc><labelrank>7</labelrank><code_hasc>LT.MA</code_hasc><name>Marijampoles</name><admin>Lithuania</admin><type_en>County</type_en><region /><woe_id>55848078</woe_id><longitude>23</longitude><woe_name>Marijampoles</woe_name><fips>LH59</fips><woe_label>Marijampole County, LT, Lithuania</woe_label><latitude>54</latitude><iso_a2>LT</iso_a2><postal>MA</postal><type>Apskritis</type><id>LT.MA</id></desc></path><path d="M595.960000543,181.476928969 L593.74010676,185.70864481 L593.72249051,191.559017794 L586.62062893,200.151804855 L579.045265396,220.038677143 L571.82733672,219.87856207 L565.060804861,229.985211359 L562.460106112,226.670473242 L549.754709411,227.365274692 L541.58925465,231.752950167 L537.802427087,226.583968412 L533.068181792,228.392307514 L528.512150816,221.508540435 L519.677269744,226.766778464 L518.011296017,234.37742735 L512.09177484,233.7353527 L495.243023303,240.049423519 L492.398416387,239.74854499 L492.200363604,236.38561064 L486.188351724,230.596388887 L467.656389712,232.271444375 L464.295052103,235.246723511 L459.795162248,233.702877504 L455.254377866,234.950992786 L447.527933203,233.844835415 L447.19592867,239.058411579 L450.964665799,244.111898465 L449.418030789,246.695126943 L445.133591479,245.065473736 L440.809244357,246.896635957 L445.261941726,250.79223876 L447.350907507,256.586139267 L442.679324711,262.402035071 L443.259168447,271.479273161 L440.976317713,275.372811654 L437.46812282,277.291582728 L441.237689221,281.907273395 L440.685597896,283.843114727 L432.015989713,282.848900502 L427.084030664,295.12947538 L422.840423837,299.765409133 L419.030164888,299.920023177 L415.688875389,302.57251226 L407.785662154,292.395953346 L402.19891731,289.385799205 L400.292003051,292.198293803 L396.150536812,291.437695165 L391.18112956,286.23364638 L372.695982029,293.856698321 L372.33917371,283.928340879 L365.222704518,276.514962011 L357.928191844,276.386718765 L354.686027303,266.880062984 L350.598518445,265.95642217 L356.332980341,254.628914527 L366.909870569,250.795003792 L365.336898109,242.742863035 L369.545419617,235.655527159 L368.823805211,225.624230313 L365.777295245,218.694153692 L360.450910368,214.808835599 L358.962274651,208.729277463 L363.483993685,208.198162909 L365.050597907,202.675703082 L373.383743475,196.071155358 L374.299445663,184.468929356 L367.66660301,179.149355512 L366.867645575,168.254485064 L368.008553884,166.113077804 L371.130458909,167.131205398 L378.36928802,146.412115178 L384.68960875,142.284771691 L384.819418762,135.925286256 L381.383387823,135.069476675 L380.801964543,132.81596958 L383.121630195,126.543908807 L382.632692067,122.273006622 L403.290096191,113.649466184 L414.451980501,120.494270225 L418.276769781,121.511382012 L422.227253547,119.747909516 L428.895525556,115.777089936 L444.922119339,96.9177158425 L459.546212544,90.2328139684 L464.220370305,90.9319236105 L467.027606079,83.031678324 L471.613869362,87.282536565 L479.265370775,112.48381943 L485.544854061,120.862207725 L491.198950479,133.798762391 L495.44578767,136.806522423 L523.466058485,141.15265355 L535.82523177,143.037061957 L543.71043433,141.420863667 L549.61376576,144.11570132 L559.993986245,144.336346956 L564.312199365,155.282171421 L572.596837243,161.182722114 L585.234942553,174.739941116 L595.960000543,181.476928969 Z" fill="#cee3f5" id="LT.PA" stroke="#6e6e6e" stroke-width="0.4"><desc><labelrank>7</labelrank><code_hasc>LT.PA</code_hasc><name>Panevezio</name><admin>Lithuania</admin><type_en>County</type_en><region /><woe_id>55848086</woe_id><longitude>24</longitude><woe_name>Panevezio</woe_name><fips>LH60</fips><woe_label>Panevezys County, LT, Lithuania</woe_label><latitude>56</latitude><iso_a2>LT</iso_a2><postal>PA</postal><type>Apskritis</type><id>LT.PA</id></desc></path><path d="M382.632692067,122.273006622 L383.121630195,126.543908807 L380.801964543,132.81596958 L381.383387823,135.069476675 L384.819418762,135.925286256 L384.68960875,142.284771691 L378.36928802,146.412115178 L371.130458909,167.131205398 L368.008553884,166.113077804 L366.867645575,168.254485064 L367.66660301,179.149355512 L374.299445663,184.468929356 L373.383743475,196.071155358 L365.050597907,202.675703082 L363.483993685,208.198162909 L358.962274651,208.729277463 L360.450910368,214.808835599 L365.777295245,218.694153692 L368.823805211,225.624230313 L369.545419617,235.655527159 L365.336898109,242.742863035 L366.909870569,250.795003792 L356.332980341,254.628914527 L350.598518445,265.95642217 L329.018532157,277.848939686 L322.942506532,285.617738002 L316.649229941,283.78089246 L315.267165049,280.450212513 L317.294163464,274.2279304 L311.676257244,270.746220003 L306.076794061,272.902196035 L305.117825263,275.996287531 L301.913394565,276.484205678 L295.358137255,273.712026408 L286.451559161,265.998566564 L277.789245319,271.173952219 L274.423616881,264.745566658 L268.932243396,263.441742022 L261.564096908,264.257220734 L255.745988819,272.411988935 L250.349056449,276.377705344 L231.963200839,283.353267759 L228.901338255,282.526022913 L225.20196119,277.468419861 L216.388581128,278.628876883 L205.764523899,284.238569708 L202.907966174,282.731279589 L202.319924277,277.799665329 L204.696983619,273.067016208 L197.122962013,263.128524468 L190.129789671,257.996487456 L188.245864097,252.754976213 L189.276307196,249.146421513 L184.997018078,245.616095777 L184.34347909,241.263854076 L190.120080903,236.329715706 L190.552351387,223.05620493 L189.002400505,216.289419365 L197.870976357,210.980125106 L198.415762604,203.427486598 L204.586398398,200.725692831 L211.112257297,190.014707064 L210.738528625,187.709303338 L213.862079986,185.211510888 L208.893475214,179.818565686 L206.057605546,182.78411338 L203.307935515,182.869478864 L200.233792946,177.821853649 L203.689110322,172.950143476 L202.991829704,163.494534939 L214.808881331,158.017254148 L212.472475886,154.293568269 L212.913415212,148.248725467 L207.994616827,147.074385838 L200.740059022,150.548549896 L194.231823486,150.126054575 L187.518285947,152.450852976 L184.492978497,150.7536126 L183.337996392,146.659101951 L180.925767857,146.204571034 L181.876899249,141.785762846 L177.008162597,139.573542203 L178.917347385,127.450698303 L186.920347602,116.157148833 L185.958156249,110.642607761 L189.225013737,106.442266655 L195.358185605,107.601117051 L198.647416687,106.030613946 L200.329109475,100.702609696 L198.704078599,96.4924476462 L201.678590448,93.5750484903 L211.729167764,101.692290163 L241.859124813,89.0613081749 L245.582431219,91.2334210702 L252.263995888,107.645368098 L257.494552338,111.828998906 L263.36561085,110.504234174 L270.426983315,100.763523719 L283.885926092,97.7637330866 L306.195109662,106.928160783 L310.364158694,107.26053142 L321.097972344,102.074816635 L332.322629097,102.001093881 L334.267904615,103.810711558 L334.421464174,107.360509808 L349.862680914,106.24218984 L364.147477036,110.848993811 L375.045445261,119.447627137 L382.632692067,122.273006622 Z" fill="#cee3f5" id="LT.SH" stroke="#6e6e6e" stroke-width="0.4"><desc><labelrank>7</labelrank><code_hasc>LT.SH</code_hasc><name>Šiauliai</name><admin>Lithuania</admin><type_en>County</type_en><region /><woe_id>55848079</woe_id><longitude>23</longitude><woe_name>Šiauliai</woe_name><fips>LH61</fips><woe_label>Siauliai County, LT, Lithuania</woe_label><latitude>55</latitude><iso_a2>LT</iso_a2><postal>SH</postal><type>Apskritis</type><id>LT.SH</id></desc></path><path d="M184.34347909,241.263854076 L184.997018078,245.616095777 L189.276307196,249.146421513 L188.245864097,252.754976213 L190.129789671,257.996487456 L197.122962013,263.128524468 L204.696983619,273.067016208 L202.319924277,277.799665329 L202.907966174,282.731279589 L205.764523899,284.238569708 L209.608786501,291.239076623 L215.074374304,294.205452754 L215.070150971,299.464869784 L218.217363912,301.987045862 L223.403962756,301.776234294 L224.301365901,312.828123757 L229.87253123,318.785043966 L230.795746596,322.160632952 L235.650240606,319.174744925 L238.592396243,313.923777504 L248.793230162,322.645361883 L246.687913552,327.356372731 L248.172963137,329.470380829 L266.582735606,326.157429879 L273.670079357,333.8927222 L285.966313618,333.163091082 L290.77696958,337.474198722 L301.627994554,336.7027303 L303.960667866,339.675943208 L301.219050564,344.066492638 L301.288449684,354.162814918 L295.945076218,368.065859844 L284.853981526,369.529222524 L246.858250478,361.942848274 L237.655331905,366.369302306 L231.182983057,364.422570717 L203.8874038,371.294610199 L198.57415694,368.190598216 L195.170268661,369.683561726 L191.618627836,367.152619808 L178.986424934,370.634020629 L159.114771948,367.710276189 L159.46551593,361.806668079 L161.413699046,356.799389473 L162.435050203,355.238212815 L162.923697605,354.214263475 L162.816852113,351.751467346 L155.651644662,349.642092766 L151.838505898,349.911794872 L148.41079295,347.006481856 L147.255780439,346.296369616 L146.054998841,346.156813587 L142.967869581,346.571064547 L138.441884412,349.891076435 L137.354347857,349.661648726 L136.882204791,348.628864015 L137.659557545,345.294021148 L137.574794218,342.982281357 L135.873908775,338.845321078 L133.832494682,332.831410088 L121.565527683,326.316778184 L117.80767337,325.638566302 L116.443661609,324.885300514 L116.18018136,323.199050809 L117.445187284,320.463274037 L126.661853645,310.568033636 L130.364499017,307.129038846 L131.30016889,305.358727972 L132.365572917,299.641992548 L134.255219145,298.632216196 L134.231096018,296.866998546 L133.878868207,296.290499923 L133.198135995,295.607588555 L124.656532666,292.064895667 L121.102708914,289.380547927 L117.897073465,291.303003485 L116.680008875,291.363425001 L115.484604131,289.902454168 L112.831535014,278.00234452 L111.166591446,275.964862694 L110.551809551,274.456230034 L109.995256882,267.552375949 L107.961060147,264.898098583 L107.786490919,262.863306101 L114.03497924,260.369973641 L114.902797199,259.587066171 L115.640170661,258.265800074 L116.020863826,257.208842237 L115.527487087,255.353437413 L129.002582972,253.833255477 L133.378831372,254.185402478 L137.020902648,250.4351022 L138.557055314,243.505944533 L144.531156994,243.227542228 L150.739057544,240.069501922 L163.43237582,238.905014067 L175.320451141,242.525699754 L184.34347909,241.263854076 Z" fill="#cee3f5" id="LT.TG" stroke="#6e6e6e" stroke-width="0.4"><desc><labelrank>7</labelrank><code_hasc>LT.TG</code_hasc><name>Taurages</name><admin>Lithuania</admin><type_en>County</type_en><region /><woe_id>55848087</woe_id><longitude>22</longitude><woe_name>Taurages</woe_name><fips>LH62</fips><woe_label>Taurage County, LT, Lithuania</woe_label><latitude>55</latitude><iso_a2>LT</iso_a2><postal>TG</postal><type>Apskritis</type><id>LT.TG</id></desc></path><path d="M693.006460311,327.698415878 L689.934322739,322.332930343 L685.466882585,320.789075204 L672.455535317,328.302455177 L659.273339181,332.647877711 L643.129796386,332.402105501 L630.476198047,327.729818212 L623.182541643,328.919124983 L623.955696415,319.861054495 L618.313457989,315.587545106 L608.08629173,316.118752494 L604.385336024,321.643638465 L599.643594908,324.08781783 L596.28733989,320.361114047 L590.624266337,320.899248673 L586.825859678,315.848124978 L582.383695746,318.490246811 L572.680385633,313.967807648 L569.8416657,324.148842757 L563.024496896,330.711776002 L561.736641348,336.504084454 L571.795528664,349.933324991 L579.304406644,354.832805676 L575.750377345,359.805450485 L576.82796323,362.799729315 L573.567092789,366.064368221 L574.285711095,370.319522223 L565.574631585,369.948747299 L563.714292883,367.748530344 L559.980828003,367.749459463 L528.066512178,377.651320609 L512.815051584,374.814086314 L510.94262534,367.554066826 L501.05717858,362.109586019 L502.029267864,352.282496512 L515.827084955,342.75803163 L508.356270511,338.201391339 L503.775586403,337.566306048 L506.475852,327.639450009 L498.493157014,326.880304741 L492.010214033,320.125390726 L492.242460576,315.968603388 L480.920042557,316.024987923 L479.707715403,308.339450417 L471.852495944,311.528463972 L469.947415565,306.655133624 L459.570941978,304.410818291 L457.670956943,299.200334534 L461.201252155,293.966571216 L460.412483947,290.955204703 L440.976317713,275.372811654 L443.259168447,271.479273161 L442.679324711,262.402035071 L447.350907507,256.586139267 L445.261941726,250.79223876 L440.809244357,246.896635957 L445.133591479,245.065473736 L449.418030789,246.695126943 L450.964665799,244.111898465 L447.19592867,239.058411579 L447.527933203,233.844835415 L455.254377866,234.950992786 L459.795162248,233.702877504 L464.295052103,235.246723511 L467.656389712,232.271444375 L486.188351724,230.596388887 L492.200363604,236.38561064 L492.398416387,239.74854499 L495.243023303,240.049423519 L512.09177484,233.7353527 L518.011296017,234.37742735 L519.677269744,226.766778464 L528.512150816,221.508540435 L533.068181792,228.392307514 L537.802427087,226.583968412 L541.58925465,231.752950167 L549.754709411,227.365274692 L562.460106112,226.670473242 L565.060804861,229.985211359 L571.82733672,219.87856207 L579.045265396,220.038677143 L586.62062893,200.151804855 L593.72249051,191.559017794 L593.74010676,185.70864481 L595.960000543,181.476928969 L622.125434922,203.433932765 L634.7222359,225.244273578 L642.28452222,230.611062246 L658.906081529,237.978703151 L672.374026718,239.85030844 L674.318464947,250.337413335 L673.268408553,260.494025897 L666.159512708,271.575165577 L667.913503791,283.344363201 L663.864603446,287.766903735 L657.217351164,309.239426767 L659.749453204,312.626369133 L666.941155775,315.035269368 L676.073260961,312.863573218 L695.954364905,315.573638862 L700.0,321.037938743 L698.817502345,324.454557161 L693.006460311,327.698415878 Z" fill="#cee3f5" id="LT.UN" stroke="#6e6e6e" stroke-width="0.4"><desc><labelrank>7</labelrank><code_hasc>LT.UN</code_hasc><name>Utenos</name><admin>Lithuania</admin><type_en>County</type_en><region /><woe_id>55848081</woe_id><longitude>25</longitude><woe_name>Utenos</woe_name><fips>LH64</fips><woe_label>Utena County, LT, Lithuania</woe_label><latitude>55</latitude><iso_a2>LT</iso_a2><postal>UN</postal><type>Apskritis</type><id>LT.UN</id></desc></path><path d="M693.006460311,327.698415878 L686.633841449,330.278257523 L681.549881476,336.48662938 L677.390423654,353.777580488 L674.775663225,354.349655685 L661.956425557,349.145769224 L656.747654838,352.977570719 L642.374680596,350.032749205 L637.020100085,351.158107536 L633.454764922,357.220374244 L632.830558377,369.09169031 L623.079174222,387.345041611 L618.824179937,389.967143409 L604.326550514,393.379682907 L595.493694441,392.50286101 L591.026760298,394.555063151 L588.37534172,401.434491154 L580.877369827,409.257713733 L580.708471715,422.706625545 L575.547526875,426.224027272 L574.004317266,430.923261426 L574.677752058,441.566963951 L572.984965597,452.602952465 L577.083780022,464.047143311 L577.349050802,472.229838516 L573.475918788,477.956865458 L564.35752036,485.099807198 L562.550059921,503.212467771 L552.844635419,519.222902718 L552.794696577,524.477718581 L557.188745559,528.103236405 L562.477783019,527.628318617 L571.517797438,523.080478531 L573.205020884,524.011050782 L576.242033115,532.169411026 L578.684718761,531.893757992 L585.024522513,541.413072916 L583.01100086,545.293998856 L582.244142514,558.141286531 L579.473991097,560.335347859 L573.412743004,560.072502958 L568.963110722,564.244979267 L552.046254533,561.28003771 L548.202194992,554.964701371 L553.399007844,550.625077598 L549.698174529,547.327890192 L549.944873827,545.251428745 L556.29564979,543.129052416 L544.436989822,529.261120267 L533.707362115,540.123265308 L523.677058406,540.872978249 L513.695539848,538.633123677 L507.89898275,555.653627314 L497.687388685,564.896286634 L492.203794971,565.883681797 L476.843994599,561.520335491 L470.572217973,562.604002116 L466.056780062,552.797079645 L460.683815989,549.578806945 L460.454326808,545.925239194 L477.79566132,526.930657264 L480.102871055,513.547932422 L487.335117975,510.278001224 L487.432138994,498.444504615 L471.440589104,502.845940998 L465.774474286,507.125260686 L460.475300341,506.354618365 L456.036330424,508.348931888 L453.854086166,507.212083127 L453.821201058,502.143413226 L446.091966335,499.182883446 L433.844693966,504.179123602 L421.05307681,502.976203955 L418.130611018,500.039393555 L419.145846275,493.454555553 L416.344780035,489.146743984 L417.641977732,484.609472517 L416.403157412,479.839185051 L419.814642918,467.93357097 L424.143543966,468.255788653 L425.669400591,466.169181872 L423.578315193,448.506813544 L431.590784814,444.080945268 L433.794212725,440.849674735 L440.922711396,441.598832929 L445.433654631,422.67234691 L455.459054107,415.928397961 L462.553271668,407.124503042 L457.080094168,400.605739415 L447.499545935,398.568002222 L432.180901654,387.085660161 L444.435532614,371.696750904 L442.717662738,367.301089681 L439.082810768,365.564581375 L436.838866556,359.166098565 L430.529555737,359.42191325 L428.944180884,351.6248851 L422.85243993,344.894797323 L422.809219543,340.343387031 L425.437971518,337.941408613 L419.162478734,335.200827815 L416.70305862,332.120499134 L415.710513236,324.770360739 L412.573593283,318.597217203 L415.688875389,302.57251226 L419.030164888,299.920023177 L422.840423837,299.765409133 L427.084030664,295.12947538 L432.015989713,282.848900502 L440.685597896,283.843114727 L441.237689221,281.907273395 L437.46812282,277.291582728 L440.976317713,275.372811654 L460.412483947,290.955204703 L461.201252155,293.966571216 L457.670956943,299.200334534 L459.570941978,304.410818291 L469.947415565,306.655133624 L471.852495944,311.528463972 L479.707715403,308.339450417 L480.920042557,316.024987923 L492.242460576,315.968603388 L492.010214033,320.125390726 L498.493157014,326.880304741 L506.475852,327.639450009 L503.775586403,337.566306048 L508.356270511,338.201391339 L515.827084955,342.75803163 L502.029267864,352.282496512 L501.05717858,362.109586019 L510.94262534,367.554066826 L512.815051584,374.814086314 L528.066512178,377.651320609 L559.980828003,367.749459463 L563.714292883,367.748530344 L565.574631585,369.948747299 L574.285711095,370.319522223 L573.567092789,366.064368221 L576.82796323,362.799729315 L575.750377345,359.805450485 L579.304406644,354.832805676 L571.795528664,349.933324991 L561.736641348,336.504084454 L563.024496896,330.711776002 L569.8416657,324.148842757 L572.680385633,313.967807648 L582.383695746,318.490246811 L586.825859678,315.848124978 L590.624266337,320.899248673 L596.28733989,320.361114047 L599.643594908,324.08781783 L604.385336024,321.643638465 L608.08629173,316.118752494 L618.313457989,315.587545106 L623.955696415,319.861054495 L623.182541643,328.919124983 L630.476198047,327.729818212 L643.129796386,332.402105501 L659.273339181,332.647877711 L672.455535317,328.302455177 L685.466882585,320.789075204 L689.934322739,322.332930343 L693.006460311,327.698415878 Z" fill="#cee3f5" id="LT.VI" stroke="#6e6e6e" stroke-width="0.4"><desc><labelrank>7</labelrank><code_hasc>LT.VI</code_hasc><name>Vilniaus</name><admin>Lithuania</admin><type_en>County</type_en><region /><woe_id>55848083</woe_id><longitude>25</longitude><woe_name>Vilniaus</woe_name><fips>LH65</fips><woe_label>Vilnius County, LT, Lithuania</woe_label><latitude>54</latitude><iso_a2>LT</iso_a2><postal>VI</postal><type>Apskritis</type><id>LT.VI</id></desc></path><path d="M7.74334585594,316.236130325 L7.63718227891,320.037742081 L0.0,317.709755465 L9.59338582505,302.589715579 L20.6708855517,273.670319754 L23.5662801149,252.667472514 L22.9825103967,226.696542827 L26.5770657522,231.668827678 L27.8543685912,240.957186245 L25.0432653793,275.562067582 L20.7448977052,285.4940307 L22.8309876307,289.731047468 L18.6907225834,295.706111018 L13.8967545959,308.710116518 L7.74334585594,316.236130325 M120.497616571,145.409983055 L119.237535041,146.197154874 L111.903903524,146.249162446 L108.691343215,149.40707213 L101.662685082,150.528431803 L95.9275956506,155.649461888 L89.4372067134,169.367136385 L84.0995290535,171.870736764 L83.6002557784,173.170475488 L83.596540409,174.31479137 L83.8422488807,175.597383822 L84.0483822972,176.975751339 L83.2626610594,185.423619745 L83.2850890795,187.383975967 L84.1586361548,190.502230617 L86.1766351253,193.881278098 L86.5860168831,195.029010613 L86.8473214484,196.603464867 L86.3380520143,197.643941515 L84.5902129453,199.035571829 L83.5817851208,200.798114422 L77.208293399,205.675211225 L75.5206712143,207.499065773 L74.7660243987,208.713685968 L74.3498829419,209.638089013 L74.2555627414,210.741385527 L74.3907399444,212.058057522 L79.3356757021,212.719774778 L81.9403598198,211.796339022 L84.2501577484,209.890223362 L84.8791089823,210.160318968 L84.972094938,213.801838656 L86.2521986944,216.015981693 L87.106784664,217.173503321 L87.6415262134,218.082478355 L87.7567951882,218.982479967 L87.3632964861,219.811099656 L86.6732736678,220.764484695 L86.3657992911,221.741760357 L86.7959080068,223.046631486 L100.891341925,221.887567002 L101.747161139,222.525300978 L102.031775824,223.322561883 L101.685578532,224.423213712 L101.520219615,225.578303673 L101.408008409,226.783693727 L101.137088821,227.811208443 L100.642289129,228.977164237 L100.748710896,230.200456212 L102.920495598,234.27567233 L103.529882067,236.367879242 L103.963987319,239.371945007 L104.478796999,240.629823485 L105.365843416,242.083048631 L105.774848377,243.035204085 L106.059811312,244.436758379 L109.447798494,249.671036404 L115.527487087,255.353437413 L116.020863826,257.208842237 L115.640170661,258.265800074 L114.902797199,259.587066171 L114.03497924,260.369973641 L107.786490919,262.863306101 L107.961060147,264.898098583 L109.995256882,267.552375949 L110.551809551,274.456230034 L111.166591446,275.964862694 L112.831535014,278.00234452 L115.484604131,289.902454168 L116.680008875,291.363425001 L117.897073465,291.303003485 L121.102708914,289.380547927 L124.656532666,292.064895667 L133.198135995,295.607588555 L133.878868207,296.290499923 L134.231096018,296.866998546 L134.255219145,298.632216196 L132.365572917,299.641992548 L131.30016889,305.358727972 L130.364499017,307.129038846 L126.661853645,310.568033636 L117.445187284,320.463274037 L116.18018136,323.199050809 L116.443661609,324.885300514 L117.80767337,325.638566302 L121.565527683,326.316778184 L133.832494682,332.831410088 L134.517458053,334.145562606 L135.873908775,338.845321078 L137.574794218,342.982281357 L136.882204791,348.628864015 L137.354347857,349.661648725 L138.441884412,349.891076435 L142.967869581,346.571064547 L146.054998841,346.156813587 L147.255780439,346.296369616 L148.41079295,347.006481856 L151.838505898,349.911794872 L155.651644662,349.642092766 L162.816852113,351.751467346 L162.923697605,354.214263475 L162.435050203,355.238212815 L161.413699046,356.799389473 L159.46551593,361.806668079 L159.114771948,367.710276189 L143.797084615,370.430809868 L138.531332742,375.447431825 L135.761043354,375.652237969 L129.969600405,372.188601907 L127.352235652,361.861947217 L119.998659874,364.821450656 L111.777483056,361.099957955 L105.554763048,355.813681957 L97.3317208948,353.750256363 L80.395598696,339.704311603 L68.3324713896,338.881867533 L64.1295267247,335.232396625 L53.6763720948,318.380623731 L50.68117317,318.720681237 L40.5692595383,326.503914292 L40.4788359713,319.1173598 L43.7730691908,316.516857622 L40.3167366113,308.193761075 L40.3084406262,301.272320489 L31.9362858731,307.366380553 L31.3518201574,305.761173361 L39.664421344,291.111673032 L37.5043691474,269.640902719 L34.8673642711,265.887136831 L34.7570341075,255.967802288 L29.9009448962,236.321969782 L21.9026949196,222.033109841 L20.6670185803,212.719289067 L19.5543694587,195.015962168 L21.8517181935,178.78454404 L22.3461084477,153.565694119 L38.4306819138,151.75890392 L43.6725963387,135.517040243 L55.5754013715,123.200427928 L66.3341466526,120.889400955 L87.3865049478,106.923361118 L97.6649794048,106.811520157 L130.695771137,92.4861282568 L130.23707475,94.5638130672 L128.690622572,95.8024015393 L124.43382292,97.8764842805 L123.631576544,98.8344389709 L123.225608816,100.354951123 L123.4214254,101.602329868 L123.9954144,102.839604219 L126.575168103,106.792819487 L126.480994036,111.129434429 L127.015410734,114.934347375 L128.933071012,117.905996848 L132.036672074,125.790878428 L132.481897136,127.843971279 L132.14924829,128.73017087 L128.869106749,129.799467018 L128.085089376,130.672139857 L121.444115061,144.6184768 L120.497616571,145.409983055 Z" fill="#cee3f5" id="LT.KP" stroke="#6e6e6e" stroke-width="0.4"><desc><labelrank>7</labelrank><code_hasc>LT.KP</code_hasc><name>Klaipedos</name><admin>Lithuania</admin><type_en>County</type_en><region /><woe_id>55848085</woe_id><longitude>21</longitude><woe_name>Klaipedos</woe_name><fips>LH58</fips><woe_label>Klaipeda County, LT, Lithuania</woe_label><latitude>55</latitude><iso_a2>LT</iso_a2><postal>KP</postal><type>Apskritis</type><id>LT.KP</id></desc></path><path d="M201.678590448,93.5750484903 L198.704078599,96.4924476462 L200.329109475,100.702609696 L198.647416687,106.030613946 L195.358185605,107.601117051 L189.225013737,106.442266655 L185.958156249,110.642607761 L186.920347602,116.157148833 L178.917347385,127.450698303 L177.008162597,139.573542203 L181.876899249,141.785762846 L180.925767857,146.204571034 L183.337996392,146.659101951 L184.492978497,150.7536126 L187.518285947,152.450852976 L194.231823486,150.126054575 L200.740059022,150.548549896 L207.994616827,147.074385838 L212.913415212,148.248725467 L212.472475886,154.293568269 L214.808881331,158.017254148 L202.991829704,163.494534939 L203.689110322,172.950143476 L200.233792946,177.821853649 L203.307935515,182.869478864 L206.057605546,182.78411338 L208.893475214,179.818565686 L213.862079986,185.211510888 L210.738528625,187.709303338 L211.112257297,190.014707064 L204.586398398,200.725692831 L198.415762604,203.427486598 L197.870976357,210.980125106 L189.002400505,216.289419365 L190.552351387,223.05620493 L190.120080903,236.329715706 L184.34347909,241.263854076 L175.320451141,242.525699754 L163.43237582,238.905014067 L150.739057544,240.069501922 L144.531156994,243.227542228 L138.557055314,243.505944533 L137.020902648,250.4351022 L133.378831372,254.185402478 L129.002582972,253.833255477 L115.527487087,255.353437413 L109.447798494,249.671036404 L106.059811312,244.436758379 L105.774848377,243.035204085 L105.365843416,242.083048631 L104.478796999,240.629823485 L103.963987319,239.371945007 L102.920495598,234.275672331 L100.748710896,230.200456212 L100.642289129,228.977164237 L101.137088821,227.811208443 L101.408008409,226.783693727 L101.520219615,225.578303673 L101.685578532,224.423213712 L102.031775824,223.322561883 L101.747161139,222.525300978 L100.891341925,221.887567002 L86.7959080068,223.046631486 L86.3657992911,221.741760357 L86.6732736678,220.764484695 L87.3632964861,219.811099656 L87.7567951882,218.982479967 L87.6415262134,218.082478355 L87.106784664,217.173503321 L86.2521986944,216.015981693 L84.972094938,213.801838656 L84.8791089823,210.160318968 L84.2501577484,209.890223362 L81.9403598198,211.796339022 L79.3356757021,212.719774778 L74.3907399444,212.058057522 L74.2555627414,210.741385527 L74.3498829419,209.638089014 L74.7660243987,208.713685968 L75.5206712143,207.499065773 L77.208293399,205.675211225 L83.5817851208,200.798114423 L84.5902129453,199.035571829 L86.3380520143,197.643941515 L86.8473214484,196.603464867 L86.5860168831,195.029010613 L86.1766351253,193.881278098 L84.1586361548,190.502230617 L83.2850890795,187.383975967 L83.2626610594,185.423619745 L84.0483822972,176.975751339 L83.8422488807,175.597383822 L83.596540409,174.31479137 L83.6002557784,173.170475488 L84.0995290535,171.870736764 L89.4372067134,169.367136385 L95.9275956506,155.649461888 L101.662685082,150.528431803 L108.691343215,149.40707213 L111.903903524,146.249162446 L119.237535041,146.197154874 L120.497616571,145.409983055 L121.444115061,144.6184768 L128.085089376,130.672139857 L128.869106749,129.799467018 L132.14924829,128.73017087 L132.481897136,127.843971279 L132.036672074,125.790878428 L128.933071012,117.905996848 L127.015410734,114.934347375 L126.480994036,111.129434429 L126.575168103,106.792819487 L123.9954144,102.839604219 L123.4214254,101.602329868 L123.225608816,100.354951123 L123.631576544,98.8344389709 L124.43382292,97.8764842805 L128.690622572,95.8024015393 L130.23707475,94.5638130672 L130.695771137,92.4861282568 L145.799513185,85.872677032 L151.002871813,86.3714098683 L159.630226651,91.8888193957 L194.020329456,91.5416635328 L201.678590448,93.5750484903 Z" fill="#cee3f5" id="LT.TL" stroke="#6e6e6e" stroke-width="0.4"><desc><labelrank>7</labelrank><code_hasc>LT.TL</code_hasc><name>Telšiai</name><admin>Lithuania</admin><type_en>County</type_en><region /><woe_id>55848080</woe_id><longitude>22</longitude><woe_name>Telšiai</woe_name><fips>LH63</fips><woe_label>Telsiai County, LT, Lithuania</woe_label><latitude>56</latitude><iso_a2>LT</iso_a2><postal>TL</postal><type>Apskritis</type><id>LT.TL</id></desc></path></svg>