<?xml version='1.0' encoding='utf-8'?>
<svg height="700" width="700" xmlns="http://www.w3.org/2000/svg"><path d="M431.497584541,422.028985507 L451.111111111,422.028985507 L465.314009662,418.647342995 L465.314009662,403.09178744 L466.666666667,396.328502415 L476.1352657,396.328502415 L480.869565217,391.594202899 L488.309178744,391.594202899 L488.309178744,388.212560386 L497.777777778,388.212560386 L502.512077295,388.212560386 L502.512077295,392.946859903 L517.391304348,392.946859903 L530.917874396,398.357487923 L532.270531401,409.178743961 L543.09178744,409.855072464 L543.09178744,428.115942029 L541.062801932,438.260869565 L569.468599034,438.260869565 L570.144927536,449.082125604 L489.661835749,449.082125604 L454.492753623,449.082125604 L461.256038647,436.90821256 L428.115942029,436.231884058 L428.115942029,428.792270531 L431.497584541,422.028985507 Z" fill="#cee3f5" id="US.MT.003" stroke="#6e6e6e" stroke-width="0.4"><desc><name>Big Horn County</name><stateAbbrev>MT</stateAbbrev><state>Montana</state><fips>003</fips><incits>30003</incits><id>US.MT.003</id><population>13042</population></desc></path><path d="M123.09178744,408.502415459 L124.444444444,405.120772947 L130.531400966,404.444444444 L135.942028986,399.710144928 L146.763285024,397.68115942 L147.439613527,394.299516908 L154.879227053,404.444444444 L165.024154589,398.357487923 L172.463768116,399.033816425 L177.198067633,401.062801932 L191.400966184,405.120772947 L196.1352657,412.560386473 L196.1352657,420.676328502 L200.869565217,424.057971014 L206.280193237,423.381642512 L208.985507246,426.086956522 L209.661835749,443.671497585 L216.425120773,443.671497585 L216.425120773,449.082125604 L224.541062802,449.082125604 L225.893719807,459.22705314 L231.980676329,461.256038647 L248.888888889,461.93236715 L248.888888889,465.990338164 L266.473429952,465.990338164 L260.38647343,474.106280193 L247.536231884,476.811594203 L244.154589372,474.782608696 L230.628019324,476.811594203 L219.130434783,474.106280193 L215.072463768,476.1352657 L213.719806763,480.869565217 L208.309178744,479.516908213 L190.048309179,479.516908213 L184.637681159,484.251207729 L177.874396135,480.869565217 L177.198067633,476.811594203 L171.787439614,464.637681159 L162.995169082,459.22705314 L156.90821256,459.22705314 L151.497584541,456.52173913 L151.497584541,445.700483092 L144.057971014,440.966183575 L143.381642512,438.260869565 L137.29468599,433.526570048 L132.560386473,425.410628019 L130.531400966,413.913043478 L123.09178744,408.502415459 Z" fill="#cee3f5" id="US.MT.001" stroke="#6e6e6e" stroke-width="0.4"><desc><name>Beaverhead County</name><stateAbbrev>MT</stateAbbrev><state>Montana</state><fips>001</fips><incits>30001</incits><id>US.MT.001</id><population>9341</population></desc></path><path d="M24.347826087,304.347826087 L44.6376811594,304.347826087 L62.8985507246,310.434782609 L62.8985507246,314.492753623 L73.0434782609,316.52173913 L74.3961352657,319.22705314 L91.3043478261,328.695652174 L86.5700483092,334.106280193 L87.2463768116,346.956521739 L79.806763285,347.632850242 L65.6038647343,342.222222222 L64.9275362319,338.164251208 L58.1642512077,334.106280193 L49.3719806763,324.637681159 L43.2850241546,321.256038647 L41.2560386473,317.198067633 L30.4347826087,315.169082126 L29.0821256039,312.463768116 L17.5845410628,306.376811594 L24.347826087,304.347826087 Z" fill="#cee3f5" id="US.MT.061" stroke="#6e6e6e" stroke-width="0.4"><desc><name>Mineral County</name><stateAbbrev>MT</stateAbbrev><state>Montana</state><fips>061</fips><incits>30061</incits><id>US.MT.061</id><population>4275</population></desc></path><path d="M77.1014492754,215.748792271 L115.652173913,215.748792271 L117.004830918,222.512077295 L121.739130435,226.570048309 L128.502415459,224.541062802 L133.236714976,226.570048309 L136.618357488,231.304347826 L133.913043478,238.06763285 L138.647342995,240.096618357 L146.086956522,240.096618357 L150.144927536,242.125603865 L150.144927536,247.536231884 L156.90821256,249.565217391 L157.584541063,256.328502415 L164.347826087,260.38647343 L164.347826087,263.768115942 L176.52173913,266.473429952 L184.637681159,275.265700483 L178.550724638,276.618357488 L172.463768116,278.647342995 L173.816425121,287.439613527 L167.729468599,290.144927536 L169.082125604,297.584541063 L150.144927536,297.584541063 L140.676328502,297.584541063 L142.70531401,292.850241546 L140.676328502,290.144927536 L138.647342995,280.676328502 L125.797101449,271.207729469 L117.68115942,271.207729469 L117.004830918,276.618357488 L90.6280193237,276.618357488 L91.3043478261,286.086956522 L83.8647342995,286.086956522 L83.8647342995,281.352657005 L61.5458937198,281.352657005 L60.193236715,273.236714976 L60.193236715,261.062801932 L69.6618357488,261.062801932 L69.6618357488,240.77294686 L67.6328502415,235.362318841 L79.1304347826,234.685990338 L81.8357487923,228.599033816 L79.1304347826,225.217391304 L77.1014492754,215.748792271 Z" fill="#cee3f5" id="US.MT.029" stroke="#6e6e6e" stroke-width="0.4"><desc><name>Flathead County</name><stateAbbrev>MT</stateAbbrev><state>Montana</state><fips>029</fips><incits>30029</incits><id>US.MT.029</id><population>93068</population></desc></path><path d="M115.652173913,215.748792271 L181.93236715,215.748792271 L224.541062802,215.748792271 L225.217391304,246.183574879 L202.222222222,246.183574879 L202.222222222,256.328502415 L157.584541063,256.328502415 L156.90821256,249.565217391 L150.144927536,247.536231884 L150.144927536,242.125603865 L146.086956522,240.096618357 L138.647342995,240.096618357 L133.913043478,238.06763285 L136.618357488,231.304347826 L133.236714976,226.570048309 L128.502415459,224.541062802 L121.739130435,226.570048309 L117.004830918,222.512077295 L115.652173913,215.748792271 Z" fill="#cee3f5" id="US.MT.035" stroke="#6e6e6e" stroke-width="0.4"><desc><name>Glacier County</name><stateAbbrev>MT</stateAbbrev><state>Montana</state><fips>035</fips><incits>30035</incits><id>US.MT.035</id><population>13739</population></desc></path><path d="M336.1352657,380.096618357 L336.1352657,377.391304348 L372.657004831,378.06763285 L375.362318841,388.212560386 L386.183574879,388.212560386 L386.183574879,392.946859903 L381.449275362,392.946859903 L378.06763285,403.09178744 L378.06763285,413.236714976 L370.628019324,413.236714976 L356.425120773,418.647342995 L356.425120773,428.792270531 L348.985507246,428.792270531 L348.985507246,438.937198068 L338.84057971,438.937198068 L340.193236715,416.618357488 L339.516908213,403.09178744 L335.458937198,403.09178744 L336.1352657,380.096618357 Z" fill="#cee3f5" id="US.MT.097" stroke="#6e6e6e" stroke-width="0.4"><desc><name>Sweet Grass County</name><stateAbbrev>MT</stateAbbrev><state>Montana</state><fips>097</fips><incits>30097</incits><id>US.MT.097</id><population>3669</population></desc></path><path d="M307.053140097,379.420289855 L336.1352657,380.096618357 L335.458937198,403.09178744 L339.516908213,403.09178744 L340.193236715,416.618357488 L338.84057971,438.937198068 L348.985507246,438.937198068 L364.541062802,438.937198068 L364.541062802,449.082125604 L291.497584541,449.082125604 L292.173913043,428.115942029 L298.937198068,428.115942029 L298.937198068,417.971014493 L306.376811594,414.589371981 L307.053140097,379.420289855 Z" fill="#cee3f5" id="US.MT.067" stroke="#6e6e6e" stroke-width="0.4"><desc><name>Park County</name><stateAbbrev>MT</stateAbbrev><state>Montana</state><fips>067</fips><incits>30067</incits><id>US.MT.067</id><population>15682</population></desc></path><path d="M247.536231884,402.415458937 L255.652173913,400.38647343 L267.149758454,393.623188406 L273.913043478,379.420289855 L290.821256039,379.420289855 L307.053140097,379.420289855 L306.376811594,414.589371981 L298.937198068,417.971014493 L298.937198068,428.115942029 L292.173913043,428.115942029 L291.497584541,449.082125604 L290.821256039,468.019323671 L291.497584541,479.516908213 L286.763285024,478.164251208 L281.352657005,470.724637681 L272.560386473,463.285024155 L272.560386473,428.115942029 L273.913043478,411.207729469 L263.09178744,411.207729469 L255.652173913,405.797101449 L247.536231884,402.415458937 Z" fill="#cee3f5" id="US.MT.031" stroke="#6e6e6e" stroke-width="0.4"><desc><name>Gallatin County</name><stateAbbrev>MT</stateAbbrev><state>Montana</state><fips>031</fips><incits>30031</incits><id>US.MT.031</id><population>94720</population></desc></path><path d="M386.183574879,388.212560386 L386.859903382,382.801932367 L415.265700483,382.801932367 L416.618357488,392.946859903 L416.618357488,409.178743961 L420.0,413.236714976 L411.884057971,413.236714976 L406.473429952,415.265700483 L399.710144928,422.028985507 L390.241545894,422.028985507 L378.06763285,427.439613527 L375.362318841,433.526570048 L370.628019324,433.526570048 L370.628019324,438.937198068 L364.541062802,438.937198068 L348.985507246,438.937198068 L348.985507246,428.792270531 L356.425120773,428.792270531 L356.425120773,418.647342995 L370.628019324,413.236714976 L378.06763285,413.236714976 L378.06763285,403.09178744 L381.449275362,392.946859903 L386.183574879,392.946859903 L386.183574879,388.212560386 Z" fill="#cee3f5" id="US.MT.095" stroke="#6e6e6e" stroke-width="0.4"><desc><name>Stillwater County</name><stateAbbrev>MT</stateAbbrev><state>Montana</state><fips>095</fips><incits>30095</incits><id>US.MT.095</id><population>9318</population></desc></path><path d="M364.541062802,449.082125604 L364.541062802,438.937198068 L370.628019324,438.937198068 L370.628019324,433.526570048 L375.362318841,433.526570048 L378.06763285,427.439613527 L390.241545894,422.028985507 L399.710144928,422.028985507 L406.473429952,415.265700483 L411.884057971,413.236714976 L420.0,413.236714976 L424.734299517,418.647342995 L431.497584541,422.028985507 L428.115942029,428.792270531 L428.115942029,436.231884058 L461.256038647,436.90821256 L454.492753623,449.082125604 L405.797101449,449.082125604 L404.444444444,448.405797101 L364.541062802,449.082125604 Z" fill="#cee3f5" id="US.MT.009" stroke="#6e6e6e" stroke-width="0.4"><desc><name>Carbon County</name><stateAbbrev>MT</stateAbbrev><state>Montana</state><fips>009</fips><incits>30009</incits><id>US.MT.009</id><population>10340</population></desc></path><path d="M77.1014492754,215.748792271 L79.1304347826,225.217391304 L81.8357487923,228.599033816 L79.1304347826,234.685990338 L67.6328502415,235.362318841 L69.6618357488,240.77294686 L69.6618357488,261.062801932 L60.193236715,261.062801932 L60.193236715,273.236714976 L52.077294686,273.236714976 L50.0483091787,278.647342995 L31.7874396135,279.323671498 L24.347826087,269.855072464 L21.6425120773,261.739130435 L14.2028985507,261.062801932 L2.02898550725,264.444444444 L0.0,261.739130435 L0.0,215.748792271 L45.9903381643,215.748792271 L77.1014492754,215.748792271 Z" fill="#cee3f5" id="US.MT.053" stroke="#6e6e6e" stroke-width="0.4"><desc><name>Lincoln County</name><stateAbbrev>MT</stateAbbrev><state>Montana</state><fips>053</fips><incits>30053</incits><id>US.MT.053</id><population>19460</population></desc></path><path d="M645.217391304,403.09178744 L647.922705314,403.09178744 L647.246376812,382.801932367 L650.628019324,382.801932367 L672.270531401,382.801932367 L672.270531401,387.536231884 L679.033816425,387.536231884 L679.033816425,392.270531401 L694.589371981,392.270531401 L694.589371981,397.68115942 L699.323671498,397.68115942 L700.0,449.082125604 L641.835748792,449.082125604 L641.835748792,428.115942029 L644.541062802,428.115942029 L645.217391304,403.09178744 Z" fill="#cee3f5" id="US.MT.011" stroke="#6e6e6e" stroke-width="0.4"><desc><name>Carter County</name><stateAbbrev>MT</stateAbbrev><state>Montana</state><fips>011</fips><incits>30011</incits><id>US.MT.011</id><population>1174</population></desc></path><path d="M659.420289855,355.072463768 L666.859903382,351.014492754 L677.68115942,351.014492754 L681.739130435,353.043478261 L699.323671498,353.043478261 L699.323671498,397.68115942 L694.589371981,397.68115942 L694.589371981,392.270531401 L679.033816425,392.270531401 L679.033816425,387.536231884 L672.270531401,387.536231884 L672.270531401,382.801932367 L650.628019324,382.801932367 L650.628019324,372.657004831 L649.275362319,362.512077295 L659.420289855,362.512077295 L659.420289855,355.072463768 Z" fill="#cee3f5" id="US.MT.025" stroke="#6e6e6e" stroke-width="0.4"><desc><name>Fallon County</name><stateAbbrev>MT</stateAbbrev><state>Montana</state><fips>025</fips><incits>30025</incits><id>US.MT.025</id><population>3079</population></desc></path><path d="M632.367149758,270.531400966 L641.835748792,270.531400966 L648.599033816,265.797101449 L662.801932367,267.826086957 L670.241545894,266.473429952 L688.502415459,272.560386473 L694.589371981,271.207729469 L699.323671498,273.913043478 L699.323671498,309.082125604 L694.589371981,311.787439614 L677.68115942,311.787439614 L672.270531401,311.787439614 L672.270531401,301.642512077 L667.536231884,301.642512077 L667.536231884,296.231884058 L645.217391304,296.231884058 L645.217391304,291.497584541 L630.338164251,291.497584541 L630.338164251,286.086956522 L632.367149758,282.028985507 L632.367149758,270.531400966 Z" fill="#cee3f5" id="US.MT.083" stroke="#6e6e6e" stroke-width="0.4"><desc><name>Richland County</name><stateAbbrev>MT</stateAbbrev><state>Montana</state><fips>083</fips><incits>30083</incits><id>US.MT.083</id><population>11214</population></desc></path><path d="M594.492753623,273.236714976 L595.169082126,261.739130435 L597.198067633,261.739130435 L597.198067633,241.449275362 L645.893719807,241.449275362 L658.06763285,241.449275362 L658.06763285,246.183574879 L665.507246377,246.183574879 L665.507246377,251.594202899 L699.323671498,251.594202899 L699.323671498,273.913043478 L694.589371981,271.207729469 L688.502415459,272.560386473 L670.241545894,266.473429952 L662.801932367,267.826086957 L648.599033816,265.797101449 L641.835748792,270.531400966 L632.367149758,270.531400966 L629.661835749,268.502415459 L608.695652174,269.178743961 L594.492753623,273.236714976 Z" fill="#cee3f5" id="US.MT.085" stroke="#6e6e6e" stroke-width="0.4"><desc><name>Roosevelt County</name><stateAbbrev>MT</stateAbbrev><state>Montana</state><fips>085</fips><incits>30085</incits><id>US.MT.085</id><population>11125</population></desc></path><path d="M640.483091787,215.748792271 L699.323671498,215.748792271 L699.323671498,251.594202899 L665.507246377,251.594202899 L665.507246377,246.183574879 L658.06763285,246.183574879 L658.06763285,241.449275362 L645.893719807,241.449275362 L641.835748792,236.038647343 L641.835748792,221.15942029 L640.483091787,215.748792271 Z" fill="#cee3f5" id="US.MT.091" stroke="#6e6e6e" stroke-width="0.4"><desc><name>Sheridan County</name><stateAbbrev>MT</stateAbbrev><state>Montana</state><fips>091</fips><incits>30091</incits><id>US.MT.091</id><population>3668</population></desc></path><path d="M666.859903382,340.193236715 L672.946859903,340.193236715 L678.357487923,338.164251208 L684.444444444,330.048309179 L682.415458937,317.874396135 L677.68115942,311.787439614 L694.589371981,311.787439614 L699.323671498,309.082125604 L699.323671498,353.043478261 L681.739130435,353.043478261 L677.68115942,351.014492754 L666.859903382,351.014492754 L666.859903382,340.193236715 Z" fill="#cee3f5" id="US.MT.109" stroke="#6e6e6e" stroke-width="0.4"><desc><name>Wibaux County</name><stateAbbrev>MT</stateAbbrev><state>Montana</state><fips>109</fips><incits>30109</incits><id>US.MT.109</id><population>1121</population></desc></path><path d="M382.125603865,215.748792271 L455.169082126,215.748792271 L453.816425121,230.628019324 L450.434782609,230.628019324 L450.434782609,240.77294686 L449.082125604,247.536231884 L445.024154589,248.212560386 L443.671497585,261.062801932 L443.671497585,275.265700483 L433.526570048,274.589371981 L432.850241546,278.647342995 L417.29468599,278.647342995 L417.29468599,289.468599034 L412.560386473,286.086956522 L395.652173913,286.086956522 L386.183574879,290.144927536 L379.420289855,289.468599034 L379.420289855,266.473429952 L380.77294686,250.917874396 L384.154589372,247.536231884 L381.449275362,241.449275362 L381.449275362,221.15942029 L382.125603865,215.748792271 Z" fill="#cee3f5" id="US.MT.005" stroke="#6e6e6e" stroke-width="0.4"><desc><name>Blaine County</name><stateAbbrev>MT</stateAbbrev><state>Montana</state><fips>005</fips><incits>30005</incits><id>US.MT.005</id><population>6604</population></desc></path><path d="M248.212560386,357.777777778 L257.004830918,356.425120773 L257.004830918,347.632850242 L265.120772947,346.280193237 L270.531400966,353.043478261 L275.265700483,353.719806763 L279.323671498,364.541062802 L286.763285024,364.541062802 L290.821256039,366.570048309 L286.763285024,374.685990338 L290.821256039,379.420289855 L273.913043478,379.420289855 L267.149758454,393.623188406 L255.652173913,400.38647343 L255.652173913,387.536231884 L248.888888889,387.536231884 L248.212560386,357.777777778 Z" fill="#cee3f5" id="US.MT.007" stroke="#6e6e6e" stroke-width="0.4"><desc><name>Broadwater County</name><stateAbbrev>MT</stateAbbrev><state>Montana</state><fips>007</fips><incits>30007</incits><id>US.MT.007</id><population>5692</population></desc></path><path d="M233.333333333,302.31884058 L240.77294686,302.995169082 L240.096618357,296.90821256 L255.652173913,296.90821256 L255.652173913,291.497584541 L270.531400966,291.497584541 L295.555555556,291.497584541 L291.497584541,297.584541063 L302.31884058,301.642512077 L307.729468599,301.642512077 L307.729468599,306.376811594 L315.169082126,307.729468599 L315.169082126,311.111111111 L307.729468599,311.787439614 L307.729468599,326.666666667 L315.169082126,326.666666667 L315.169082126,341.54589372 L314.492753623,342.898550725 L308.405797101,341.54589372 L298.937198068,333.429951691 L284.734299517,331.400966184 L263.09178744,332.077294686 L263.09178744,337.487922705 L255.652173913,337.487922705 L248.212560386,337.487922705 L248.212560386,324.637681159 L239.420289855,323.961352657 L233.333333333,321.256038647 L233.333333333,302.31884058 Z" fill="#cee3f5" id="US.MT.013" stroke="#6e6e6e" stroke-width="0.4"><desc><name>Cascade County</name><stateAbbrev>MT</stateAbbrev><state>Montana</state><fips>013</fips><incits>30013</incits><id>US.MT.013</id><population>82384</population></desc></path><path d="M270.531400966,266.473429952 L304.347826087,266.473429952 L308.405797101,261.062801932 L315.845410628,261.062801932 L315.845410628,256.328502415 L361.835748792,256.328502415 L361.835748792,261.062801932 L368.599033816,261.062801932 L368.599033816,266.473429952 L379.420289855,266.473429952 L379.420289855,289.468599034 L361.835748792,290.821256039 L361.835748792,300.289855072 L342.898550725,307.729468599 L340.193236715,307.729468599 L315.169082126,307.729468599 L307.729468599,306.376811594 L307.729468599,301.642512077 L302.31884058,301.642512077 L291.497584541,297.584541063 L295.555555556,291.497584541 L270.531400966,291.497584541 L270.531400966,274.589371981 L270.531400966,266.473429952 Z" fill="#cee3f5" id="US.MT.015" stroke="#6e6e6e" stroke-width="0.4"><desc><name>Chouteau County</name><stateAbbrev>MT</stateAbbrev><state>Montana</state><fips>015</fips><incits>30015</incits><id>US.MT.015</id><population>5849</population></desc></path><path d="M574.202898551,403.09178744 L574.202898551,382.801932367 L576.90821256,382.801932367 L576.231884058,362.512077295 L578.260869565,362.512077295 L578.260869565,342.222222222 L580.289855072,341.54589372 L580.289855072,340.193236715 L595.169082126,340.193236715 L608.019323671,342.222222222 L610.048309179,352.367149758 L615.458937198,352.367149758 L617.487922705,357.101449275 L630.338164251,359.130434783 L645.217391304,359.130434783 L659.420289855,355.072463768 L659.420289855,362.512077295 L649.275362319,362.512077295 L650.628019324,372.657004831 L650.628019324,382.801932367 L647.246376812,382.801932367 L647.922705314,403.09178744 L645.217391304,403.09178744 L574.202898551,403.09178744 Z" fill="#cee3f5" id="US.MT.017" stroke="#6e6e6e" stroke-width="0.4"><desc><name>Custer County</name><stateAbbrev>MT</stateAbbrev><state>Montana</state><fips>017</fips><incits>30017</incits><id>US.MT.017</id><population>11951</population></desc></path><path d="M579.61352657,215.748792271 L640.483091787,215.748792271 L641.835748792,221.15942029 L641.835748792,236.038647343 L645.893719807,241.449275362 L597.198067633,241.449275362 L584.347826087,241.449275362 L584.347826087,225.893719807 L576.90821256,225.893719807 L579.61352657,215.748792271 Z" fill="#cee3f5" id="US.MT.019" stroke="#6e6e6e" stroke-width="0.4"><desc><name>Daniels County</name><stateAbbrev>MT</stateAbbrev><state>Montana</state><fips>019</fips><incits>30019</incits><id>US.MT.019</id><population>1791</population></desc></path><path d="M630.338164251,286.086956522 L630.338164251,291.497584541 L645.217391304,291.497584541 L645.217391304,296.231884058 L667.536231884,296.231884058 L667.536231884,301.642512077 L672.270531401,301.642512077 L672.270531401,311.787439614 L677.68115942,311.787439614 L682.415458937,317.874396135 L684.444444444,330.048309179 L678.357487923,338.164251208 L672.946859903,340.193236715 L666.859903382,340.193236715 L642.512077295,340.193236715 L639.806763285,336.811594203 L632.367149758,336.811594203 L632.367149758,333.429951691 L624.927536232,333.429951691 L624.927536232,321.93236715 L620.193236715,321.93236715 L620.193236715,301.642512077 L622.898550725,301.642512077 L622.898550725,286.086956522 L630.338164251,286.086956522 Z" fill="#cee3f5" id="US.MT.021" stroke="#6e6e6e" stroke-width="0.4"><desc><name>Dawson County</name><stateAbbrev>MT</stateAbbrev><state>Montana</state><fips>021</fips><incits>30021</incits><id>US.MT.021</id><population>9445</population></desc></path><path d="M340.193236715,307.729468599 L342.898550725,307.729468599 L361.835748792,300.289855072 L361.835748792,290.821256039 L379.420289855,289.468599034 L386.183574879,290.144927536 L395.652173913,286.086956522 L412.560386473,286.086956522 L417.29468599,289.468599034 L423.381642512,294.202898551 L439.61352657,297.584541063 L451.111111111,298.260869565 L450.434782609,313.816425121 L434.879227053,314.492753623 L427.439613527,316.52173913 L426.086956522,326.666666667 L433.526570048,326.666666667 L433.526570048,341.54589372 L432.173913043,346.956521739 L410.531400966,346.956521739 L388.212560386,346.956521739 L388.212560386,350.338164251 L367.246376812,350.338164251 L366.570048309,344.927536232 L362.512077295,344.251207729 L366.570048309,338.164251208 L366.570048309,321.256038647 L352.367149758,316.52173913 L344.927536232,316.52173913 L344.927536232,311.111111111 L340.193236715,307.729468599 Z" fill="#cee3f5" id="US.MT.027" stroke="#6e6e6e" stroke-width="0.4"><desc><name>Fergus County</name><stateAbbrev>MT</stateAbbrev><state>Montana</state><fips>027</fips><incits>30027</incits><id>US.MT.027</id><population>11501</population></desc></path><path d="M474.106280193,306.376811594 L476.811594203,302.31884058 L484.927536232,298.937198068 L486.956521739,295.555555556 L492.367149758,294.202898551 L501.15942029,296.231884058 L503.188405797,292.173913043 L512.657004831,293.526570048 L526.183574879,293.526570048 L534.299516908,292.850241546 L534.975845411,289.468599034 L552.560386473,284.734299517 L557.29468599,277.971014493 L561.352657005,276.618357488 L564.734299517,282.028985507 L570.144927536,282.028985507 L570.144927536,301.642512077 L568.115942029,311.787439614 L575.555555556,311.787439614 L575.555555556,321.93236715 L580.289855072,321.93236715 L580.289855072,340.193236715 L580.289855072,341.54589372 L543.768115942,341.54589372 L543.768115942,340.193236715 L499.806763285,340.869565217 L475.458937198,340.869565217 L473.429951691,339.516908213 L474.106280193,328.695652174 L472.077294686,325.314009662 L471.400966184,311.787439614 L474.106280193,306.376811594 Z" fill="#cee3f5" id="US.MT.033" stroke="#6e6e6e" stroke-width="0.4"><desc><name>Garfield County</name><stateAbbrev>MT</stateAbbrev><state>Montana</state><fips>033</fips><incits>30033</incits><id>US.MT.033</id><population>1290</population></desc></path><path d="M372.657004831,378.06763285 L387.536231884,378.06763285 L388.212560386,350.338164251 L388.212560386,346.956521739 L410.531400966,346.956521739 L411.207729469,357.101449275 L415.942028986,357.101449275 L418.647342995,369.275362319 L424.057971014,374.685990338 L423.381642512,382.801932367 L415.265700483,382.801932367 L386.859903382,382.801932367 L386.183574879,388.212560386 L375.362318841,388.212560386 L372.657004831,378.06763285 Z" fill="#cee3f5" id="US.MT.037" stroke="#6e6e6e" stroke-width="0.4"><desc><name>Golden Valley County</name><stateAbbrev>MT</stateAbbrev><state>Montana</state><fips>037</fips><incits>30037</incits><id>US.MT.037</id><population>859</population></desc></path><path d="M129.178743961,352.367149758 L138.647342995,352.367149758 L138.647342995,348.985507246 L149.468599034,346.956521739 L153.526570048,342.222222222 L159.61352657,342.222222222 L171.787439614,348.985507246 L175.169082126,347.632850242 L175.845410628,375.362318841 L175.845410628,377.391304348 L160.966183575,377.391304348 L161.642512077,386.859903382 L147.439613527,394.299516908 L140.0,392.946859903 L133.913043478,384.154589372 L131.884057971,369.951690821 L126.473429952,361.15942029 L130.531400966,356.425120773 L129.178743961,352.367149758 Z" fill="#cee3f5" id="US.MT.039" stroke="#6e6e6e" stroke-width="0.4"><desc><name>Granite County</name><stateAbbrev>MT</stateAbbrev><state>Montana</state><fips>039</fips><incits>30039</incits><id>US.MT.039</id><population>3138</population></desc></path><path d="M309.082125604,215.748792271 L382.125603865,215.748792271 L381.449275362,221.15942029 L381.449275362,241.449275362 L384.154589372,247.536231884 L380.77294686,250.917874396 L379.420289855,266.473429952 L368.599033816,266.473429952 L368.599033816,261.062801932 L361.835748792,261.062801932 L361.835748792,256.328502415 L315.845410628,256.328502415 L315.845410628,261.062801932 L308.405797101,261.062801932 L309.082125604,220.483091787 L309.082125604,215.748792271 Z" fill="#cee3f5" id="US.MT.041" stroke="#6e6e6e" stroke-width="0.4"><desc><name>Hill County</name><stateAbbrev>MT</stateAbbrev><state>Montana</state><fips>041</fips><incits>30041</incits><id>US.MT.041</id><population>16568</population></desc></path><path d="M203.574879227,375.362318841 L204.927536232,371.304347826 L217.777777778,365.893719807 L225.893719807,363.8647343 L234.009661836,357.777777778 L248.212560386,357.777777778 L248.888888889,387.536231884 L255.652173913,387.536231884 L255.652173913,400.38647343 L247.536231884,402.415458937 L240.096618357,399.033816425 L230.628019324,399.710144928 L225.893719807,405.120772947 L211.014492754,399.710144928 L208.985507246,384.830917874 L202.222222222,380.096618357 L203.574879227,375.362318841 Z" fill="#cee3f5" id="US.MT.043" stroke="#6e6e6e" stroke-width="0.4"><desc><name>Jefferson County</name><stateAbbrev>MT</stateAbbrev><state>Montana</state><fips>043</fips><incits>30043</incits><id>US.MT.043</id><population>11512</population></desc></path><path d="M315.169082126,307.729468599 L340.193236715,307.729468599 L344.927536232,311.111111111 L344.927536232,316.52173913 L352.367149758,316.52173913 L366.570048309,321.256038647 L366.570048309,338.164251208 L362.512077295,344.251207729 L366.570048309,344.927536232 L367.246376812,350.338164251 L362.512077295,350.338164251 L354.396135266,346.956521739 L336.811594203,348.985507246 L325.314009662,351.014492754 L316.52173913,345.603864734 L314.492753623,342.898550725 L315.169082126,341.54589372 L315.169082126,326.666666667 L307.729468599,326.666666667 L307.729468599,311.787439614 L315.169082126,311.111111111 L315.169082126,307.729468599 Z" fill="#cee3f5" id="US.MT.045" stroke="#6e6e6e" stroke-width="0.4"><desc><name>Judith Basin County</name><stateAbbrev>MT</stateAbbrev><state>Montana</state><fips>045</fips><incits>30045</incits><id>US.MT.045</id><population>2016</population></desc></path><path d="M83.8647342995,286.086956522 L91.3043478261,286.086956522 L90.6280193237,276.618357488 L117.004830918,276.618357488 L117.68115942,271.207729469 L125.797101449,271.207729469 L138.647342995,280.676328502 L140.676328502,290.144927536 L142.70531401,292.850241546 L140.676328502,297.584541063 L123.768115942,297.584541063 L122.415458937,304.347826087 L127.149758454,309.758454106 L127.149758454,315.845410628 L129.855072464,321.93236715 L123.09178744,323.961352657 L110.917874396,323.961352657 L107.536231884,321.93236715 L106.183574879,311.787439614 L102.125603865,311.111111111 L99.4202898551,297.584541063 L85.2173913043,297.584541063 L83.8647342995,286.086956522 Z" fill="#cee3f5" id="US.MT.047" stroke="#6e6e6e" stroke-width="0.4"><desc><name>Lake County</name><stateAbbrev>MT</stateAbbrev><state>Montana</state><fips>047</fips><incits>30047</incits><id>US.MT.047</id><population>29017</population></desc></path><path d="M178.550724638,276.618357488 L182.608695652,284.057971014 L182.608695652,291.497584541 L185.990338164,295.555555556 L202.222222222,295.555555556 L211.014492754,296.90821256 L219.806763285,302.995169082 L233.333333333,302.31884058 L233.333333333,321.256038647 L239.420289855,323.961352657 L248.212560386,324.637681159 L248.212560386,337.487922705 L255.652173913,337.487922705 L259.033816425,343.574879227 L265.120772947,346.280193237 L257.004830918,347.632850242 L257.004830918,356.425120773 L248.212560386,357.777777778 L234.009661836,357.777777778 L225.893719807,363.8647343 L217.777777778,365.893719807 L219.130434783,355.072463768 L211.690821256,349.661835749 L204.927536232,349.661835749 L204.927536232,342.222222222 L189.371980676,342.222222222 L189.371980676,321.93236715 L174.492753623,321.93236715 L174.492753623,303.671497585 L169.082125604,297.584541063 L167.729468599,290.144927536 L173.816425121,287.439613527 L172.463768116,278.647342995 L178.550724638,276.618357488 Z" fill="#cee3f5" id="US.MT.049" stroke="#6e6e6e" stroke-width="0.4"><desc><name>Lewis and Clark County</name><stateAbbrev>MT</stateAbbrev><state>Montana</state><fips>049</fips><incits>30049</incits><id>US.MT.049</id><population>65338</population></desc></path><path d="M270.531400966,266.473429952 L270.531400966,261.062801932 L277.971014493,261.062801932 L278.647342995,215.748792271 L309.082125604,215.748792271 L309.082125604,220.483091787 L308.405797101,261.062801932 L304.347826087,266.473429952 L270.531400966,266.473429952 Z" fill="#cee3f5" id="US.MT.051" stroke="#6e6e6e" stroke-width="0.4"><desc><name>Liberty County</name><stateAbbrev>MT</stateAbbrev><state>Montana</state><fips>051</fips><incits>30051</incits><id>US.MT.051</id><population>2369</population></desc></path><path d="M196.1352657,412.560386473 L208.985507246,405.797101449 L225.893719807,405.120772947 L230.628019324,399.710144928 L240.096618357,399.033816425 L247.536231884,402.415458937 L255.652173913,405.797101449 L263.09178744,411.207729469 L273.913043478,411.207729469 L272.560386473,428.115942029 L272.560386473,463.285024155 L266.473429952,465.990338164 L248.888888889,465.990338164 L248.888888889,461.93236715 L231.980676329,461.256038647 L225.893719807,459.22705314 L224.541062802,449.082125604 L216.425120773,449.082125604 L216.425120773,443.671497585 L209.661835749,443.671497585 L208.985507246,426.086956522 L206.280193237,423.381642512 L200.869565217,424.057971014 L196.1352657,420.676328502 L196.1352657,412.560386473 Z" fill="#cee3f5" id="US.MT.057" stroke="#6e6e6e" stroke-width="0.4"><desc><name>Madison County</name><stateAbbrev>MT</stateAbbrev><state>Montana</state><fips>057</fips><incits>30057</incits><id>US.MT.057</id><population>7712</population></desc></path><path d="M594.492753623,273.236714976 L608.695652174,269.178743961 L629.661835749,268.502415459 L632.367149758,270.531400966 L632.367149758,282.028985507 L630.338164251,286.086956522 L622.898550725,286.086956522 L622.898550725,301.642512077 L620.193236715,301.642512077 L620.193236715,321.93236715 L595.169082126,321.93236715 L595.169082126,326.666666667 L588.405797101,326.666666667 L588.405797101,321.93236715 L580.289855072,321.93236715 L575.555555556,321.93236715 L575.555555556,311.787439614 L568.115942029,311.787439614 L570.144927536,301.642512077 L570.144927536,282.028985507 L564.734299517,282.028985507 L561.352657005,276.618357488 L561.352657005,271.207729469 L572.173913043,272.560386473 L585.700483092,271.884057971 L594.492753623,273.236714976 Z" fill="#cee3f5" id="US.MT.055" stroke="#6e6e6e" stroke-width="0.4"><desc><name>McCone County</name><stateAbbrev>MT</stateAbbrev><state>Montana</state><fips>055</fips><incits>30055</incits><id>US.MT.055</id><population>1709</population></desc></path><path d="M255.652173913,337.487922705 L263.09178744,337.487922705 L263.09178744,332.077294686 L284.734299517,331.400966184 L298.937198068,333.429951691 L308.405797101,341.54589372 L314.492753623,342.898550725 L316.52173913,345.603864734 L325.314009662,351.014492754 L336.811594203,348.985507246 L336.1352657,377.391304348 L336.1352657,380.096618357 L307.053140097,379.420289855 L290.821256039,379.420289855 L286.763285024,374.685990338 L290.821256039,366.570048309 L286.763285024,364.541062802 L279.323671498,364.541062802 L275.265700483,353.719806763 L270.531400966,353.043478261 L265.120772947,346.280193237 L259.033816425,343.574879227 L255.652173913,337.487922705 Z" fill="#cee3f5" id="US.MT.059" stroke="#6e6e6e" stroke-width="0.4"><desc><name>Meagher County</name><stateAbbrev>MT</stateAbbrev><state>Montana</state><fips>059</fips><incits>30059</incits><id>US.MT.059</id><population>1937</population></desc></path><path d="M73.0434782609,316.52173913 L79.1304347826,316.52173913 L94.6859903382,319.903381643 L104.830917874,325.314009662 L108.212560386,324.637681159 L110.917874396,323.961352657 L123.09178744,323.961352657 L129.855072464,321.93236715 L127.149758454,315.845410628 L127.149758454,309.758454106 L122.415458937,304.347826087 L123.768115942,297.584541063 L140.676328502,297.584541063 L150.144927536,297.584541063 L150.821256039,321.93236715 L159.61352657,321.93236715 L159.61352657,342.222222222 L153.526570048,342.222222222 L149.468599034,346.956521739 L138.647342995,348.985507246 L138.647342995,352.367149758 L129.178743961,352.367149758 L100.096618357,352.367149758 L91.9806763285,353.719806763 L83.8647342995,353.719806763 L79.806763285,347.632850242 L87.2463768116,346.956521739 L86.5700483092,334.106280193 L91.3043478261,328.695652174 L74.3961352657,319.22705314 L73.0434782609,316.52173913 Z" fill="#cee3f5" id="US.MT.063" stroke="#6e6e6e" stroke-width="0.4"><desc><name>Missoula County</name><stateAbbrev>MT</stateAbbrev><state>Montana</state><fips>063</fips><incits>30063</incits><id>US.MT.063</id><population>111807</population></desc></path><path d="M410.531400966,346.956521739 L432.173913043,346.956521739 L478.84057971,346.280193237 L480.869565217,351.014492754 L481.54589372,361.835748792 L481.54589372,367.922705314 L473.429951691,367.922705314 L468.695652174,371.304347826 L467.342995169,375.362318841 L450.434782609,375.362318841 L445.700483092,376.714975845 L445.700483092,382.801932367 L423.381642512,382.801932367 L424.057971014,374.685990338 L418.647342995,369.275362319 L415.942028986,357.101449275 L411.207729469,357.101449275 L410.531400966,346.956521739 Z" fill="#cee3f5" id="US.MT.065" stroke="#6e6e6e" stroke-width="0.4"><desc><name>Musselshell County</name><stateAbbrev>MT</stateAbbrev><state>Montana</state><fips>065</fips><incits>30065</incits><id>US.MT.065</id><population>4629</population></desc></path><path d="M451.111111111,298.260869565 L465.314009662,297.584541063 L472.753623188,298.937198068 L474.106280193,306.376811594 L471.400966184,311.787439614 L472.077294686,325.314009662 L474.106280193,328.695652174 L473.429951691,339.516908213 L475.458937198,340.869565217 L478.84057971,346.280193237 L432.173913043,346.956521739 L433.526570048,341.54589372 L433.526570048,326.666666667 L426.086956522,326.666666667 L427.439613527,316.52173913 L434.879227053,314.492753623 L450.434782609,313.816425121 L451.111111111,298.260869565 Z" fill="#cee3f5" id="US.MT.069" stroke="#6e6e6e" stroke-width="0.4"><desc><name>Petroleum County</name><stateAbbrev>MT</stateAbbrev><state>Montana</state><fips>069</fips><incits>30069</incits><id>US.MT.069</id><population>506</population></desc></path><path d="M455.169082126,215.748792271 L516.714975845,215.748792271 L515.362318841,221.15942029 L515.362318841,240.77294686 L509.951690821,246.183574879 L511.980676329,256.328502415 L505.893719807,256.328502415 L503.8647343,261.062801932 L503.188405797,292.173913043 L501.15942029,296.231884058 L492.367149758,294.202898551 L486.956521739,295.555555556 L484.927536232,298.937198068 L476.811594203,302.31884058 L474.106280193,306.376811594 L472.753623188,298.937198068 L465.314009662,297.584541063 L451.111111111,298.260869565 L439.61352657,297.584541063 L423.381642512,294.202898551 L417.29468599,289.468599034 L417.29468599,278.647342995 L432.850241546,278.647342995 L433.526570048,274.589371981 L443.671497585,275.265700483 L443.671497585,261.062801932 L445.024154589,248.212560386 L449.082125604,247.536231884 L450.434782609,240.77294686 L450.434782609,230.628019324 L453.816425121,230.628019324 L455.169082126,215.748792271 Z" fill="#cee3f5" id="US.MT.071" stroke="#6e6e6e" stroke-width="0.4"><desc><name>Phillips County</name><stateAbbrev>MT</stateAbbrev><state>Montana</state><fips>071</fips><incits>30071</incits><id>US.MT.071</id><population>4179</population></desc></path><path d="M157.584541063,256.328502415 L202.222222222,256.328502415 L202.222222222,246.183574879 L225.217391304,246.183574879 L236.714975845,250.917874396 L247.536231884,251.594202899 L255.652173913,253.623188406 L254.975845411,261.062801932 L270.531400966,261.062801932 L270.531400966,266.473429952 L270.531400966,274.589371981 L236.714975845,275.265700483 L236.714975845,271.207729469 L225.893719807,266.473429952 L176.52173913,266.473429952 L164.347826087,263.768115942 L164.347826087,260.38647343 L157.584541063,256.328502415 Z" fill="#cee3f5" id="US.MT.073" stroke="#6e6e6e" stroke-width="0.4"><desc><name>Pondera County</name><stateAbbrev>MT</stateAbbrev><state>Montana</state><fips>073</fips><incits>30073</incits><id>US.MT.073</id><population>6211</population></desc></path><path d="M574.202898551,403.09178744 L645.217391304,403.09178744 L644.541062802,428.115942029 L641.835748792,428.115942029 L641.835748792,449.082125604 L590.434782609,449.082125604 L570.144927536,449.082125604 L569.468599034,438.260869565 L569.468599034,428.115942029 L572.173913043,428.115942029 L572.173913043,403.09178744 L574.202898551,403.09178744 Z" fill="#cee3f5" id="US.MT.075" stroke="#6e6e6e" stroke-width="0.4"><desc><name>Powder River County</name><stateAbbrev>MT</stateAbbrev><state>Montana</state><fips>075</fips><incits>30075</incits><id>US.MT.075</id><population>1748</population></desc></path><path d="M150.144927536,297.584541063 L169.082125604,297.584541063 L174.492753623,303.671497585 L174.492753623,321.93236715 L189.371980676,321.93236715 L189.371980676,342.222222222 L204.927536232,342.222222222 L204.927536232,349.661835749 L211.690821256,349.661835749 L219.130434783,355.072463768 L217.777777778,365.893719807 L204.927536232,371.304347826 L203.574879227,375.362318841 L175.845410628,375.362318841 L175.169082126,347.632850242 L171.787439614,348.985507246 L159.61352657,342.222222222 L159.61352657,321.93236715 L150.821256039,321.93236715 L150.144927536,297.584541063 Z" fill="#cee3f5" id="US.MT.077" stroke="#6e6e6e" stroke-width="0.4"><desc><name>Powell County</name><stateAbbrev>MT</stateAbbrev><state>Montana</state><fips>077</fips><incits>30077</incits><id>US.MT.077</id><population>6993</population></desc></path><path d="M580.289855072,321.93236715 L588.405797101,321.93236715 L588.405797101,326.666666667 L595.169082126,326.666666667 L595.169082126,321.93236715 L620.193236715,321.93236715 L624.927536232,321.93236715 L624.927536232,333.429951691 L632.367149758,333.429951691 L632.367149758,336.811594203 L639.806763285,336.811594203 L642.512077295,340.193236715 L666.859903382,340.193236715 L666.859903382,351.014492754 L659.420289855,355.072463768 L645.217391304,359.130434783 L630.338164251,359.130434783 L617.487922705,357.101449275 L615.458937198,352.367149758 L610.048309179,352.367149758 L608.019323671,342.222222222 L595.169082126,340.193236715 L580.289855072,340.193236715 L580.289855072,321.93236715 Z" fill="#cee3f5" id="US.MT.079" stroke="#6e6e6e" stroke-width="0.4"><desc><name>Prairie County</name><stateAbbrev>MT</stateAbbrev><state>Montana</state><fips>079</fips><incits>30079</incits><id>US.MT.079</id><population>1179</population></desc></path><path d="M100.096618357,352.367149758 L129.178743961,352.367149758 L130.531400966,356.425120773 L126.473429952,361.15942029 L131.884057971,369.951690821 L133.913043478,384.154589372 L140.0,392.946859903 L147.439613527,394.299516908 L147.439613527,394.299516908 L146.763285024,397.68115942 L135.942028986,399.710144928 L130.531400966,404.444444444 L124.444444444,405.120772947 L123.09178744,408.502415459 L103.47826087,420.676328502 L99.4202898551,422.028985507 L94.0096618357,417.29468599 L86.5700483092,414.589371981 L90.6280193237,409.855072464 L86.5700483092,403.768115942 L89.9516908213,399.033816425 L96.038647343,398.357487923 L95.3623188406,391.594202899 L91.3043478261,388.888888889 L93.3333333333,380.77294686 L91.9806763285,375.362318841 L99.4202898551,360.483091787 L100.096618357,352.367149758 Z" fill="#cee3f5" id="US.MT.081" stroke="#6e6e6e" stroke-width="0.4"><desc><name>Ravalli County</name><stateAbbrev>MT</stateAbbrev><state>Montana</state><fips>081</fips><incits>30081</incits><id>US.MT.081</id><population>40823</population></desc></path><path d="M475.458937198,340.869565217 L499.806763285,340.869565217 L543.768115942,340.193236715 L543.768115942,341.54589372 L580.289855072,341.54589372 L578.260869565,342.222222222 L578.260869565,362.512077295 L576.231884058,362.512077295 L576.90821256,382.801932367 L574.202898551,382.801932367 L574.202898551,403.09178744 L572.173913043,403.09178744 L572.173913043,428.115942029 L569.468599034,428.115942029 L569.468599034,438.260869565 L541.062801932,438.260869565 L543.09178744,428.115942029 L543.09178744,409.855072464 L532.270531401,409.178743961 L530.917874396,398.357487923 L530.917874396,382.801932367 L526.859903382,382.801932367 L525.507246377,367.246376812 L518.743961353,367.246376812 L517.391304348,362.512077295 L484.251207729,362.512077295 L481.54589372,361.835748792 L480.869565217,351.014492754 L478.84057971,346.280193237 L475.458937198,340.869565217 Z" fill="#cee3f5" id="US.MT.087" stroke="#6e6e6e" stroke-width="0.4"><desc><name>Rosebud County</name><stateAbbrev>MT</stateAbbrev><state>Montana</state><fips>087</fips><incits>30087</incits><id>US.MT.087</id><population>9329</population></desc></path><path d="M0.0,261.739130435 L2.02898550725,264.444444444 L14.2028985507,261.062801932 L21.6425120773,261.739130435 L24.347826087,269.855072464 L31.7874396135,279.323671498 L50.0483091787,278.647342995 L52.077294686,273.236714976 L60.193236715,273.236714976 L61.5458937198,281.352657005 L83.8647342995,281.352657005 L83.8647342995,286.086956522 L85.2173913043,297.584541063 L99.4202898551,297.584541063 L102.125603865,311.111111111 L106.183574879,311.787439614 L107.536231884,321.93236715 L108.212560386,324.637681159 L104.830917874,325.314009662 L94.6859903382,319.903381643 L79.1304347826,316.52173913 L73.0434782609,316.52173913 L62.8985507246,314.492753623 L62.8985507246,310.434782609 L44.6376811594,304.347826087 L24.347826087,304.347826087 L17.5845410628,300.966183575 L20.9661835749,297.584541063 L18.9371980676,292.173913043 L12.8502415459,288.792270531 L0.0,275.265700483 L0.0,261.739130435 Z" fill="#cee3f5" id="US.MT.089" stroke="#6e6e6e" stroke-width="0.4"><desc><name>Sanders County</name><stateAbbrev>MT</stateAbbrev><state>Montana</state><fips>089</fips><incits>30089</incits><id>US.MT.089</id><population>11363</population></desc></path><path d="M172.463768116,399.033816425 L181.93236715,394.299516908 L190.724637681,382.801932367 L196.1352657,382.801932367 L202.222222222,380.096618357 L208.985507246,384.830917874 L211.014492754,399.710144928 L225.893719807,405.120772947 L208.985507246,405.797101449 L196.1352657,412.560386473 L191.400966184,405.120772947 L177.198067633,401.062801932 L172.463768116,399.033816425 Z" fill="#cee3f5" id="US.MT.093" stroke="#6e6e6e" stroke-width="0.4"><desc><name>Silver Bow County</name><stateAbbrev>MT</stateAbbrev><state>Montana</state><fips>093</fips><incits>30093</incits><id>US.MT.093</id><population>34523</population></desc></path><path d="M176.52173913,266.473429952 L225.893719807,266.473429952 L236.714975845,271.207729469 L236.714975845,275.265700483 L270.531400966,274.589371981 L270.531400966,291.497584541 L255.652173913,291.497584541 L255.652173913,296.90821256 L240.096618357,296.90821256 L240.77294686,302.995169082 L233.333333333,302.31884058 L219.806763285,302.995169082 L211.014492754,296.90821256 L202.222222222,295.555555556 L185.990338164,295.555555556 L182.608695652,291.497584541 L182.608695652,284.057971014 L178.550724638,276.618357488 L184.637681159,275.265700483 L176.52173913,266.473429952 Z" fill="#cee3f5" id="US.MT.099" stroke="#6e6e6e" stroke-width="0.4"><desc><name>Teton County</name><stateAbbrev>MT</stateAbbrev><state>Montana</state><fips>099</fips><incits>30099</incits><id>US.MT.099</id><population>6065</population></desc></path><path d="M224.541062802,215.748792271 L278.647342995,215.748792271 L277.971014493,261.062801932 L270.531400966,261.062801932 L254.975845411,261.062801932 L255.652173913,253.623188406 L247.536231884,251.594202899 L236.714975845,250.917874396 L225.217391304,246.183574879 L224.541062802,215.748792271 Z" fill="#cee3f5" id="US.MT.101" stroke="#6e6e6e" stroke-width="0.4"><desc><name>Toole County</name><stateAbbrev>MT</stateAbbrev><state>Montana</state><fips>101</fips><incits>30101</incits><id>US.MT.101</id><population>5138</population></desc></path><path d="M484.251207729,362.512077295 L517.391304348,362.512077295 L518.743961353,367.246376812 L525.507246377,367.246376812 L526.859903382,382.801932367 L530.917874396,382.801932367 L530.917874396,398.357487923 L517.391304348,392.946859903 L502.512077295,392.946859903 L502.512077295,388.212560386 L497.777777778,388.212560386 L499.806763285,380.096618357 L491.690821256,372.657004831 L484.251207729,362.512077295 Z" fill="#cee3f5" id="US.MT.103" stroke="#6e6e6e" stroke-width="0.4"><desc><name>Treasure County</name><stateAbbrev>MT</stateAbbrev><state>Montana</state><fips>103</fips><incits>30103</incits><id>US.MT.103</id><population>700</population></desc></path><path d="M503.188405797,292.173913043 L503.8647343,261.062801932 L505.893719807,256.328502415 L511.980676329,256.328502415 L509.951690821,246.183574879 L515.362318841,240.77294686 L515.362318841,221.15942029 L516.714975845,215.748792271 L579.61352657,215.748792271 L576.90821256,225.893719807 L584.347826087,225.893719807 L584.347826087,241.449275362 L597.198067633,241.449275362 L597.198067633,261.739130435 L595.169082126,261.739130435 L594.492753623,273.236714976 L585.700483092,271.884057971 L572.173913043,272.560386473 L561.352657005,271.207729469 L561.352657005,276.618357488 L557.29468599,277.971014493 L552.560386473,284.734299517 L534.975845411,289.468599034 L534.299516908,292.850241546 L526.183574879,293.526570048 L512.657004831,293.526570048 L503.188405797,292.173913043 Z" fill="#cee3f5" id="US.MT.105" stroke="#6e6e6e" stroke-width="0.4"><desc><name>Valley County</name><stateAbbrev>MT</stateAbbrev><state>Montana</state><fips>105</fips><incits>30105</incits><id>US.MT.105</id><population>7630</population></desc></path><path d="M336.1352657,377.391304348 L336.811594203,348.985507246 L354.396135266,346.956521739 L362.512077295,350.338164251 L367.246376812,350.338164251 L388.212560386,350.338164251 L387.536231884,378.06763285 L372.657004831,378.06763285 L336.1352657,377.391304348 Z" fill="#cee3f5" id="US.MT.107" stroke="#6e6e6e" stroke-width="0.4"><desc><name>Wheatland County</name><stateAbbrev>MT</stateAbbrev><state>Montana</state><fips>107</fips><incits>30107</incits><id>US.MT.107</id><population>2134</population></desc></path><path d="M415.265700483,382.801932367 L423.381642512,382.801932367 L445.700483092,382.801932367 L445.700483092,376.714975845 L450.434782609,375.362318841 L467.342995169,375.362318841 L468.695652174,371.304347826 L473.429951691,367.922705314 L481.54589372,367.922705314 L481.54589372,361.835748792 L484.251207729,362.512077295 L491.690821256,372.657004831 L499.806763285,380.096618357 L497.777777778,388.212560386 L488.309178744,388.212560386 L488.309178744,391.594202899 L480.869565217,391.594202899 L476.1352657,396.328502415 L466.666666667,396.328502415 L465.314009662,403.09178744 L465.314009662,418.647342995 L451.111111111,422.028985507 L431.497584541,422.028985507 L424.734299517,418.647342995 L420.0,413.236714976 L416.618357488,409.178743961 L416.618357488,392.946859903 L415.265700483,382.801932367 Z" fill="#cee3f5" id="US.MT.111" stroke="#6e6e6e" stroke-width="0.4"><desc><name>Yellowstone County</name><stateAbbrev>MT</stateAbbrev><state>Montana</state><fips>111</fips><incits>30111</incits><id>US.MT.111</id><population>154162</population></desc></path><path d="M175.845410628,375.362318841 L203.574879227,375.362318841 L202.222222222,380.096618357 L196.1352657,382.801932367 L190.724637681,382.801932367 L181.93236715,394.299516908 L172.463768116,399.033816425 L165.024154589,398.357487923 L154.879227053,404.444444444 L147.439613527,394.299516908 L147.439613527,394.299516908 L161.642512077,386.859903382 L160.966183575,377.391304348 L175.845410628,377.391304348 L175.845410628,375.362318841 Z" fill="#cee3f5" id="US.MT.30023" stroke="#6e6e6e" stroke-width="0.4"><desc><name>Deer Lodge County</name><stateAbbrev>MT</stateAbbrev><state>Montana</state><fips>023</fips><incits>30023</incits><id>US.MT.30023</id><population>9329</population></desc></path></svg>