<?xml version='1.0' encoding='utf-8'?>
<svg height="700" width="700" xmlns="http://www.w3.org/2000/svg"><path d="M74.5562130178,475.641025641 L114.59566075,477.021696252 L136.686390533,478.402366864 L132.544378698,529.487179487 L91.124260355,528.106508876 L75.9368836292,523.964497041 L75.9368836292,518.441814596 L75.9368836292,518.441814596 L80.0788954635,482.544378698 L74.5562130178,475.641025641 Z" fill="#cee3f5" id="US.OH.165" stroke="#6e6e6e" stroke-width="0.4"><desc><name>Warren County</name><stateAbbrev>OH</stateAbbrev><state>Ohio</state><fips>165</fips><incits>39165</incits><id>US.OH.165</id><population>219169</population></desc></path><path d="M91.124260355,528.106508876 L132.544378698,529.487179487 L133.92504931,530.867850099 L124.26035503,608.185404339 L99.4082840237,602.662721893 L95.2662721893,588.856015779 L81.459566075,568.145956607 L84.2209072978,543.293885602 L91.124260355,528.106508876 Z" fill="#cee3f5" id="US.OH.025" stroke="#6e6e6e" stroke-width="0.4"><desc><name>Clermont County</name><stateAbbrev>OH</stateAbbrev><state>Ohio</state><fips>025</fips><incits>39025</incits><id>US.OH.025</id><population>200218</population></desc></path><path d="M132.544378698,529.487179487 L136.686390533,478.402366864 L187.771203156,482.544378698 L202.958579882,482.544378698 L200.197238659,510.157790927 L168.441814596,529.487179487 L154.635108481,530.867850099 L133.92504931,530.867850099 L132.544378698,529.487179487 Z" fill="#cee3f5" id="US.OH.027" stroke="#6e6e6e" stroke-width="0.4"><desc><name>Clinton County</name><stateAbbrev>OH</stateAbbrev><state>Ohio</state><fips>027</fips><incits>39027</incits><id>US.OH.027</id><population>41945</population></desc></path><path d="M114.59566075,477.021696252 L118.737672584,435.601577909 L124.26035503,432.840236686 L161.538461538,436.982248521 L190.532544379,445.266272189 L190.532544379,454.930966469 L187.771203156,482.544378698 L136.686390533,478.402366864 L114.59566075,477.021696252 Z" fill="#cee3f5" id="US.OH.057" stroke="#6e6e6e" stroke-width="0.4"><desc><name>Greene County</name><stateAbbrev>OH</stateAbbrev><state>Ohio</state><fips>057</fips><incits>39057</incits><id>US.OH.057</id><population>163204</population></desc></path><path d="M53.8461538462,421.794871795 L63.5108481262,421.794871795 L106.311637081,421.794871795 L125.641025641,428.698224852 L124.26035503,432.840236686 L118.737672584,435.601577909 L114.59566075,477.021696252 L74.5562130178,475.641025641 L55.2268244576,475.641025641 L53.8461538462,421.794871795 Z" fill="#cee3f5" id="US.OH.113" stroke="#6e6e6e" stroke-width="0.4"><desc><name>Montgomery County</name><stateAbbrev>OH</stateAbbrev><state>Ohio</state><fips>113</fips><incits>39113</incits><id>US.OH.113</id><population>535846</population></desc></path><path d="M0.0,522.58382643 L1.38067061144,479.783037475 L55.2268244576,478.402366864 L55.2268244576,475.641025641 L74.5562130178,475.641025641 L80.0788954635,482.544378698 L75.9368836292,518.441814596 L75.9368836292,518.441814596 L75.9368836292,523.964497041 L30.3747534517,521.203155819 L0.0,522.58382643 Z" fill="#cee3f5" id="US.OH.017" stroke="#6e6e6e" stroke-width="0.4"><desc><name>Butler County</name><stateAbbrev>OH</stateAbbrev><state>Ohio</state><fips>017</fips><incits>39017</incits><id>US.OH.017</id><population>371272</population></desc></path><path d="M0.0,522.58382643 L30.3747534517,521.203155819 L75.9368836292,523.964497041 L91.124260355,528.106508876 L84.2209072978,543.293885602 L81.459566075,568.145956607 L62.1301775148,555.719921105 L30.3747534517,558.481262327 L11.0453648915,547.435897436 L0.0,554.339250493 L0.0,522.58382643 Z" fill="#cee3f5" id="US.OH.061" stroke="#6e6e6e" stroke-width="0.4"><desc><name>Hamilton County</name><stateAbbrev>OH</stateAbbrev><state>Ohio</state><fips>061</fips><incits>39061</incits><id>US.OH.061</id><population>804520</population></desc></path><path d="M124.26035503,608.185404339 L133.92504931,530.867850099 L154.635108481,530.867850099 L154.635108481,568.145956607 L186.390532544,568.145956607 L180.867850099,630.276134122 L154.635108481,609.566074951 L124.26035503,608.185404339 Z" fill="#cee3f5" id="US.OH.015" stroke="#6e6e6e" stroke-width="0.4"><desc><name>Brown County</name><stateAbbrev>OH</stateAbbrev><state>Ohio</state><fips>015</fips><incits>39015</incits><id>US.OH.015</id><population>44264</population></desc></path><path d="M262.327416174,391.420118343 L269.230769231,385.897435897 L335.50295858,388.65877712 L331.360946746,419.033530572 L324.457593688,442.504930966 L256.804733728,439.743589744 L255.424063116,401.084812623 L262.327416174,391.420118343 Z" fill="#cee3f5" id="US.OH.049" stroke="#6e6e6e" stroke-width="0.4"><desc><name>Franklin County</name><stateAbbrev>OH</stateAbbrev><state>Ohio</state><fips>049</fips><incits>39049</incits><id>US.OH.049</id><population>1212263</population></desc></path><path d="M190.532544379,454.930966469 L190.532544379,445.266272189 L200.197238659,446.646942801 L212.623274162,406.607495069 L214.003944773,390.039447732 L262.327416174,391.420118343 L255.424063116,401.084812623 L256.804733728,439.743589744 L255.424063116,457.692307692 L190.532544379,454.930966469 Z" fill="#cee3f5" id="US.OH.097" stroke="#6e6e6e" stroke-width="0.4"><desc><name>Madison County</name><stateAbbrev>OH</stateAbbrev><state>Ohio</state><fips>097</fips><incits>39097</incits><id>US.OH.097</id><population>43277</population></desc></path><path d="M207.100591716,372.090729783 L211.24260355,326.528599606 L227.810650888,326.528599606 L255.424063116,326.528599606 L255.424063116,336.193293886 L255.424063116,369.32938856 L267.850098619,369.32938856 L269.230769231,385.897435897 L262.327416174,391.420118343 L214.003944773,390.039447732 L215.384615385,372.090729783 L207.100591716,372.090729783 Z" fill="#cee3f5" id="US.OH.159" stroke="#6e6e6e" stroke-width="0.4"><desc><name>Union County</name><stateAbbrev>OH</stateAbbrev><state>Ohio</state><fips>159</fips><incits>39159</incits><id>US.OH.159</id><population>53306</population></desc></path><path d="M255.424063116,336.193293886 L292.702169625,337.573964497 L307.889546351,350.0 L338.264299803,351.380670611 L336.883629191,363.806706114 L335.50295858,388.65877712 L269.230769231,385.897435897 L267.850098619,369.32938856 L255.424063116,369.32938856 L255.424063116,336.193293886 Z" fill="#cee3f5" id="US.OH.041" stroke="#6e6e6e" stroke-width="0.4"><desc><name>Delaware County</name><stateAbbrev>OH</stateAbbrev><state>Ohio</state><fips>041</fips><incits>39041</incits><id>US.OH.041</id><population>184979</population></desc></path><path d="M331.360946746,419.033530572 L335.50295858,388.65877712 L336.883629191,363.806706114 L381.065088757,369.32938856 L426.627218935,369.32938856 L428.007889546,381.755424063 L426.627218935,416.272189349 L421.104536489,423.175542406 L383.82642998,420.414201183 L331.360946746,419.033530572 Z" fill="#cee3f5" id="US.OH.089" stroke="#6e6e6e" stroke-width="0.4"><desc><name>Licking County</name><stateAbbrev>OH</stateAbbrev><state>Ohio</state><fips>089</fips><incits>39089</incits><id>US.OH.089</id><population>168375</population></desc></path><path d="M324.457593688,442.504930966 L331.360946746,419.033530572 L383.82642998,420.414201183 L383.82642998,421.794871795 L383.82642998,421.794871795 L394.871794872,435.601577909 L397.633136095,464.59566075 L379.684418146,463.214990138 L378.303747535,472.879684418 L339.644970414,481.163708087 L321.696252465,479.783037475 L324.457593688,442.504930966 Z" fill="#cee3f5" id="US.OH.045" stroke="#6e6e6e" stroke-width="0.4"><desc><name>Fairfield County</name><stateAbbrev>OH</stateAbbrev><state>Ohio</state><fips>045</fips><incits>39045</incits><id>US.OH.045</id><population>148867</population></desc></path><path d="M252.662721893,488.067061144 L255.424063116,457.692307692 L256.804733728,439.743589744 L324.457593688,442.504930966 L321.696252465,479.783037475 L339.644970414,481.163708087 L338.264299803,494.970414201 L310.650887574,493.58974359 L310.650887574,493.58974359 L310.650887574,493.58974359 L309.270216963,493.58974359 L283.037475345,488.067061144 L277.514792899,488.067061144 L252.662721893,488.067061144 Z" fill="#cee3f5" id="US.OH.129" stroke="#6e6e6e" stroke-width="0.4"><desc><name>Pickaway County</name><stateAbbrev>OH</stateAbbrev><state>Ohio</state><fips>129</fips><incits>39129</incits><id>US.OH.129</id><population>56304</population></desc></path><path d="M124.26035503,432.840236686 L125.641025641,428.698224852 L127.021696252,402.465483235 L212.623274162,406.607495069 L200.197238659,446.646942801 L190.532544379,445.266272189 L161.538461538,436.982248521 L124.26035503,432.840236686 Z" fill="#cee3f5" id="US.OH.023" stroke="#6e6e6e" stroke-width="0.4"><desc><name>Clark County</name><stateAbbrev>OH</stateAbbrev><state>Ohio</state><fips>023</fips><incits>39023</incits><id>US.OH.023</id><population>136167</population></desc></path><path d="M127.021696252,402.465483235 L129.783037475,378.99408284 L131.163708087,363.806706114 L207.100591716,372.090729783 L215.384615385,372.090729783 L214.003944773,390.039447732 L212.623274162,406.607495069 L127.021696252,402.465483235 Z" fill="#cee3f5" id="US.OH.021" stroke="#6e6e6e" stroke-width="0.4"><desc><name>Champaign County</name><stateAbbrev>OH</stateAbbrev><state>Ohio</state><fips>021</fips><incits>39021</incits><id>US.OH.021</id><population>39455</population></desc></path><path d="M131.163708087,363.806706114 L132.544378698,354.142011834 L132.544378698,351.380670611 L132.544378698,330.67061144 L153.25443787,321.00591716 L211.24260355,326.528599606 L207.100591716,372.090729783 L131.163708087,363.806706114 Z" fill="#cee3f5" id="US.OH.091" stroke="#6e6e6e" stroke-width="0.4"><desc><name>Logan County</name><stateAbbrev>OH</stateAbbrev><state>Ohio</state><fips>091</fips><incits>39091</incits><id>US.OH.091</id><population>45481</population></desc></path><path d="M227.810650888,297.534516765 L277.514792899,294.773175542 L318.934911243,293.392504931 L303.747534517,304.437869822 L302.366863905,329.289940828 L292.702169625,337.573964497 L255.424063116,336.193293886 L255.424063116,326.528599606 L227.810650888,326.528599606 L227.810650888,297.534516765 Z" fill="#cee3f5" id="US.OH.101" stroke="#6e6e6e" stroke-width="0.4"><desc><name>Marion County</name><stateAbbrev>OH</stateAbbrev><state>Ohio</state><fips>101</fips><incits>39101</incits><id>US.OH.101</id><population>65905</population></desc></path><path d="M292.702169625,337.573964497 L302.366863905,329.289940828 L303.747534517,304.437869822 L318.934911243,293.392504931 L341.025641026,293.392504931 L356.213017751,293.392504931 L357.593688363,319.625246548 L353.451676529,352.761341223 L338.264299803,351.380670611 L307.889546351,350.0 L292.702169625,337.573964497 Z" fill="#cee3f5" id="US.OH.117" stroke="#6e6e6e" stroke-width="0.4"><desc><name>Morrow County</name><stateAbbrev>OH</stateAbbrev><state>Ohio</state><fips>117</fips><incits>39117</incits><id>US.OH.117</id><population>35033</population></desc></path><path d="M336.883629191,363.806706114 L338.264299803,351.380670611 L353.451676529,352.761341223 L357.593688363,319.625246548 L404.536489152,318.244575937 L422.485207101,316.863905325 L429.388560158,334.812623274 L426.627218935,369.32938856 L381.065088757,369.32938856 L336.883629191,363.806706114 Z" fill="#cee3f5" id="US.OH.083" stroke="#6e6e6e" stroke-width="0.4"><desc><name>Knox County</name><stateAbbrev>OH</stateAbbrev><state>Ohio</state><fips>083</fips><incits>39083</incits><id>US.OH.083</id><population>60810</population></desc></path><path d="M426.627218935,369.32938856 L429.388560158,334.812623274 L506.706114398,336.193293886 L505.325443787,348.619329389 L521.893491124,348.619329389 L520.512820513,373.471400394 L505.325443787,384.516765286 L444.575936884,381.755424063 L443.195266272,381.755424063 L428.007889546,381.755424063 L426.627218935,369.32938856 Z" fill="#cee3f5" id="US.OH.031" stroke="#6e6e6e" stroke-width="0.4"><desc><name>Coshocton County</name><stateAbbrev>OH</stateAbbrev><state>Ohio</state><fips>031</fips><incits>39031</incits><id>US.OH.031</id><population>36760</population></desc></path><path d="M421.104536489,423.175542406 L426.627218935,416.272189349 L428.007889546,381.755424063 L443.195266272,381.755424063 L444.575936884,381.755424063 L505.325443787,384.516765286 L502.564102564,420.414201183 L508.08678501,434.220907298 L508.08678501,448.027613412 L445.956607495,446.646942801 L430.769230769,438.362919132 L421.104536489,423.175542406 Z" fill="#cee3f5" id="US.OH.119" stroke="#6e6e6e" stroke-width="0.4"><desc><name>Muskingum County</name><stateAbbrev>OH</stateAbbrev><state>Ohio</state><fips>119</fips><incits>39119</incits><id>US.OH.119</id><population>85231</population></desc></path><path d="M383.82642998,421.794871795 L383.82642998,421.794871795 L383.82642998,420.414201183 L421.104536489,423.175542406 L430.769230769,438.362919132 L445.956607495,446.646942801 L455.621301775,453.550295858 L451.479289941,482.544378698 L433.530571992,481.163708087 L397.633136095,474.26035503 L397.633136095,464.59566075 L394.871794872,435.601577909 L383.82642998,421.794871795 Z" fill="#cee3f5" id="US.OH.127" stroke="#6e6e6e" stroke-width="0.4"><desc><name>Perry County</name><stateAbbrev>OH</stateAbbrev><state>Ohio</state><fips>127</fips><incits>39127</incits><id>US.OH.127</id><population>35997</population></desc></path><path d="M336.883629191,511.538461538 L338.264299803,494.970414201 L339.644970414,481.163708087 L378.303747535,472.879684418 L379.684418146,463.214990138 L397.633136095,464.59566075 L397.633136095,474.26035503 L433.530571992,481.163708087 L432.149901381,496.351084813 L412.820512821,494.970414201 L411.439842209,508.777120316 L336.883629191,511.538461538 Z" fill="#cee3f5" id="US.OH.073" stroke="#6e6e6e" stroke-width="0.4"><desc><name>Hocking County</name><stateAbbrev>OH</stateAbbrev><state>Ohio</state><fips>073</fips><incits>39073</incits><id>US.OH.073</id><population>28665</population></desc></path><path d="M236.094674556,510.157790927 L252.662721893,488.067061144 L277.514792899,488.067061144 L283.037475345,488.067061144 L309.270216963,493.58974359 L310.650887574,493.58974359 L310.650887574,493.58974359 L310.650887574,493.58974359 L338.264299803,494.970414201 L336.883629191,511.538461538 L334.122287968,537.771203156 L331.360946746,544.674556213 L238.856015779,539.151873767 L236.094674556,510.157790927 Z" fill="#cee3f5" id="US.OH.141" stroke="#6e6e6e" stroke-width="0.4"><desc><name>Ross County</name><stateAbbrev>OH</stateAbbrev><state>Ohio</state><fips>141</fips><incits>39141</incits><id>US.OH.141</id><population>77910</population></desc></path><path d="M187.771203156,482.544378698 L190.532544379,454.930966469 L255.424063116,457.692307692 L252.662721893,488.067061144 L236.094674556,510.157790927 L200.197238659,510.157790927 L202.958579882,482.544378698 L187.771203156,482.544378698 Z" fill="#cee3f5" id="US.OH.047" stroke="#6e6e6e" stroke-width="0.4"><desc><name>Fayette County</name><stateAbbrev>OH</stateAbbrev><state>Ohio</state><fips>047</fips><incits>39047</incits><id>US.OH.047</id><population>28800</population></desc></path><path d="M154.635108481,530.867850099 L168.441814596,529.487179487 L200.197238659,510.157790927 L236.094674556,510.157790927 L238.856015779,539.151873767 L233.333333333,562.623274162 L186.390532544,568.145956607 L154.635108481,568.145956607 L154.635108481,530.867850099 Z" fill="#cee3f5" id="US.OH.071" stroke="#6e6e6e" stroke-width="0.4"><desc><name>Highland County</name><stateAbbrev>OH</stateAbbrev><state>Ohio</state><fips>071</fips><incits>39071</incits><id>US.OH.071</id><population>43299</population></desc></path><path d="M415.581854043,124.950690335 L480.473372781,95.9566074951 L465.285996055,111.143984221 L463.905325444,188.461538462 L479.09270217,188.461538462 L479.09270217,200.887573964 L463.905325444,200.887573964 L463.905325444,213.313609467 L447.337278107,213.313609467 L430.769230769,224.358974359 L430.769230769,235.40433925 L404.536489152,235.40433925 L403.15581854,199.506903353 L400.394477318,138.75739645 L415.581854043,124.950690335 Z" fill="#cee3f5" id="US.OH.093" stroke="#6e6e6e" stroke-width="0.4"><desc><name>Lorain County</name><stateAbbrev>OH</stateAbbrev><state>Ohio</state><fips>093</fips><incits>39093</incits><id>US.OH.093</id><population>302827</population></desc></path><path d="M303.747534517,171.893491124 L345.16765286,166.370808679 L358.974358974,158.08678501 L331.360946746,149.802761341 L339.644970414,131.854043393 L347.928994083,135.996055227 L394.871794872,135.996055227 L415.581854043,124.950690335 L400.394477318,138.75739645 L403.15581854,199.506903353 L321.696252465,199.506903353 L321.696252465,176.035502959 L303.747534517,171.893491124 Z" fill="#cee3f5" id="US.OH.043" stroke="#6e6e6e" stroke-width="0.4"><desc><name>Erie County</name><stateAbbrev>OH</stateAbbrev><state>Ohio</state><fips>043</fips><incits>39043</incits><id>US.OH.043</id><population>76048</population></desc></path><path d="M543.984220907,66.9625246548 L581.262327416,49.0138067061 L621.301775148,43.4911242604 L621.301775148,129.09270217 L604.733727811,130.473372781 L604.733727811,141.518737673 L574.358974359,141.518737673 L572.978303748,153.944773176 L557.790927022,153.944773176 L542.603550296,153.944773176 L543.984220907,66.9625246548 Z" fill="#cee3f5" id="US.OH.085" stroke="#6e6e6e" stroke-width="0.4"><desc><name>Lake County</name><stateAbbrev>OH</stateAbbrev><state>Ohio</state><fips>085</fips><incits>39085</incits><id>US.OH.085</id><population>229857</population></desc></path><path d="M229.191321499,145.660749507 L269.230769231,144.280078895 L285.798816568,105.621301775 L339.644970414,131.854043393 L331.360946746,149.802761341 L358.974358974,158.08678501 L345.16765286,166.370808679 L303.747534517,171.893491124 L241.617357002,171.893491124 L229.191321499,164.990138067 L229.191321499,145.660749507 Z" fill="#cee3f5" id="US.OH.123" stroke="#6e6e6e" stroke-width="0.4"><desc><name>Ottawa County</name><stateAbbrev>OH</stateAbbrev><state>Ohio</state><fips>123</fips><incits>39123</incits><id>US.OH.123</id><population>41153</population></desc></path><path d="M480.473372781,95.9566074951 L543.984220907,66.9625246548 L542.603550296,153.944773176 L557.790927022,153.944773176 L557.790927022,189.842209073 L524.654832347,188.461538462 L528.796844181,200.887573964 L510.848126233,200.887573964 L479.09270217,200.887573964 L479.09270217,188.461538462 L463.905325444,188.461538462 L465.285996055,111.143984221 L480.473372781,95.9566074951 Z" fill="#cee3f5" id="US.OH.035" stroke="#6e6e6e" stroke-width="0.4"><desc><name>Cuyahoga County</name><stateAbbrev>OH</stateAbbrev><state>Ohio</state><fips>035</fips><incits>39035</incits><id>US.OH.035</id><population>1263154</population></desc></path><path d="M621.301775148,43.4911242604 L700.0,31.0650887574 L700.0,164.990138067 L621.301775148,164.990138067 L621.301775148,129.09270217 L621.301775148,43.4911242604 Z" fill="#cee3f5" id="US.OH.007" stroke="#6e6e6e" stroke-width="0.4"><desc><name>Ashtabula County</name><stateAbbrev>OH</stateAbbrev><state>Ohio</state><fips>007</fips><incits>39007</incits><id>US.OH.007</id><population>99811</population></desc></path><path d="M151.873767258,178.796844181 L151.873767258,166.370808679 L153.25443787,129.09270217 L229.191321499,126.331360947 L277.514792899,90.4339250493 L285.798816568,105.621301775 L269.230769231,144.280078895 L229.191321499,145.660749507 L204.339250493,145.660749507 L182.24852071,158.08678501 L179.487179487,166.370808679 L151.873767258,178.796844181 Z" fill="#cee3f5" id="US.OH.095" stroke="#6e6e6e" stroke-width="0.4"><desc><name>Lucas County</name><stateAbbrev>OH</stateAbbrev><state>Ohio</state><fips>095</fips><incits>39095</incits><id>US.OH.095</id><population>436393</population></desc></path><path d="M404.536489152,235.40433925 L430.769230769,235.40433925 L437.672583826,247.830374753 L439.053254438,300.295857988 L422.485207101,300.295857988 L422.485207101,316.863905325 L404.536489152,318.244575937 L403.15581854,290.631163708 L390.729783037,274.063116371 L387.968441815,247.830374753 L387.968441815,235.40433925 L404.536489152,235.40433925 Z" fill="#cee3f5" id="US.OH.005" stroke="#6e6e6e" stroke-width="0.4"><desc><name>Ashland County</name><stateAbbrev>OH</stateAbbrev><state>Ohio</state><fips>005</fips><incits>39005</incits><id>US.OH.005</id><population>53043</population></desc></path><path d="M566.07495069,373.471400394 L577.120315582,359.66469428 L578.500986193,338.954635108 L630.966469428,340.33530572 L643.392504931,340.33530572 L640.631163708,383.136094675 L585.40433925,381.755424063 L566.07495069,373.471400394 Z" fill="#cee3f5" id="US.OH.067" stroke="#6e6e6e" stroke-width="0.4"><desc><name>Harrison County</name><stateAbbrev>OH</stateAbbrev><state>Ohio</state><fips>067</fips><incits>39067</incits><id>US.OH.067</id><population>15622</population></desc></path><path d="M570.216962525,303.057199211 L582.642998028,290.631163708 L607.495069034,290.631163708 L635.108481262,290.631163708 L635.108481262,304.437869822 L644.773175542,311.34122288 L635.108481262,318.244575937 L630.966469428,340.33530572 L578.500986193,338.954635108 L578.500986193,316.863905325 L570.216962525,303.057199211 Z" fill="#cee3f5" id="US.OH.019" stroke="#6e6e6e" stroke-width="0.4"><desc><name>Carroll County</name><stateAbbrev>OH</stateAbbrev><state>Ohio</state><fips>019</fips><incits>39019</incits><id>US.OH.019</id><population>28275</population></desc></path><path d="M439.053254438,300.295857988 L516.370808679,300.295857988 L516.370808679,305.818540434 L512.228796844,336.193293886 L506.706114398,336.193293886 L429.388560158,334.812623274 L422.485207101,316.863905325 L422.485207101,300.295857988 L439.053254438,300.295857988 Z" fill="#cee3f5" id="US.OH.075" stroke="#6e6e6e" stroke-width="0.4"><desc><name>Holmes County</name><stateAbbrev>OH</stateAbbrev><state>Ohio</state><fips>075</fips><incits>39075</incits><id>US.OH.075</id><population>43593</population></desc></path><path d="M59.3688362919,297.534516765 L69.033530572,297.534516765 L96.6469428008,297.534516765 L115.976331361,304.437869822 L153.25443787,304.437869822 L153.25443787,321.00591716 L132.544378698,330.67061144 L78.6982248521,330.67061144 L78.6982248521,347.238658777 L62.1301775148,351.380670611 L59.3688362919,350.0 L59.3688362919,297.534516765 Z" fill="#cee3f5" id="US.OH.011" stroke="#6e6e6e" stroke-width="0.4"><desc><name>Auglaize County</name><stateAbbrev>OH</stateAbbrev><state>Ohio</state><fips>011</fips><incits>39011</incits><id>US.OH.011</id><population>45920</population></desc></path><path d="M153.25443787,218.836291913 L227.810650888,218.836291913 L227.810650888,247.830374753 L222.287968442,247.830374753 L212.623274162,275.443786982 L153.25443787,275.443786982 L153.25443787,258.875739645 L153.25443787,218.836291913 Z" fill="#cee3f5" id="US.OH.063" stroke="#6e6e6e" stroke-width="0.4"><desc><name>Hancock County</name><stateAbbrev>OH</stateAbbrev><state>Ohio</state><fips>063</fips><incits>39063</incits><id>US.OH.063</id><population>75773</population></desc></path><path d="M607.495069034,290.631163708 L607.495069034,261.637080868 L700.0,263.017751479 L700.0,304.437869822 L675.147928994,314.102564103 L644.773175542,311.34122288 L635.108481262,304.437869822 L635.108481262,290.631163708 L607.495069034,290.631163708 Z" fill="#cee3f5" id="US.OH.029" stroke="#6e6e6e" stroke-width="0.4"><desc><name>Columbiana County</name><stateAbbrev>OH</stateAbbrev><state>Ohio</state><fips>029</fips><incits>39029</incits><id>US.OH.029</id><population>105893</population></desc></path><path d="M321.696252465,199.506903353 L403.15581854,199.506903353 L404.536489152,235.40433925 L387.968441815,235.40433925 L387.968441815,247.830374753 L341.025641026,246.449704142 L324.457593688,246.449704142 L321.696252465,205.029585799 L321.696252465,199.506903353 Z" fill="#cee3f5" id="US.OH.077" stroke="#6e6e6e" stroke-width="0.4"><desc><name>Huron County</name><stateAbbrev>OH</stateAbbrev><state>Ohio</state><fips>077</fips><incits>39077</incits><id>US.OH.077</id><population>58889</population></desc></path><path d="M180.867850099,630.276134122 L186.390532544,568.145956607 L233.333333333,562.623274162 L252.662721893,569.526627219 L252.662721893,634.418145957 L211.24260355,620.611439842 L180.867850099,630.276134122 Z" fill="#cee3f5" id="US.OH.001" stroke="#6e6e6e" stroke-width="0.4"><desc><name>Adams County</name><stateAbbrev>OH</stateAbbrev><state>Ohio</state><fips>001</fips><incits>39001</incits><id>US.OH.001</id><population>28105</population></desc></path><path d="M557.790927022,153.944773176 L572.978303748,153.944773176 L574.358974359,141.518737673 L604.733727811,141.518737673 L604.733727811,130.473372781 L621.301775148,129.09270217 L621.301775148,164.990138067 L621.301775148,189.842209073 L557.790927022,189.842209073 L557.790927022,153.944773176 Z" fill="#cee3f5" id="US.OH.055" stroke="#6e6e6e" stroke-width="0.4"><desc><name>Geauga County</name><stateAbbrev>OH</stateAbbrev><state>Ohio</state><fips>055</fips><incits>39055</incits><id>US.OH.055</id><population>93972</population></desc></path><path d="M77.3175542406,166.370808679 L151.873767258,166.370808679 L151.873767258,178.796844181 L153.25443787,218.836291913 L96.6469428008,218.836291913 L96.6469428008,176.035502959 L77.3175542406,176.035502959 L77.3175542406,166.370808679 Z" fill="#cee3f5" id="US.OH.069" stroke="#6e6e6e" stroke-width="0.4"><desc><name>Henry County</name><stateAbbrev>OH</stateAbbrev><state>Ohio</state><fips>069</fips><incits>39069</incits><id>US.OH.069</id><population>28092</population></desc></path><path d="M1.38067061144,421.794871795 L2.76134122288,351.380670611 L62.1301775148,351.380670611 L63.5108481262,376.232741617 L63.5108481262,421.794871795 L53.8461538462,421.794871795 L1.38067061144,421.794871795 Z" fill="#cee3f5" id="US.OH.037" stroke="#6e6e6e" stroke-width="0.4"><desc><name>Darke County</name><stateAbbrev>OH</stateAbbrev><state>Ohio</state><fips>037</fips><incits>39037</incits><id>US.OH.037</id><population>52376</population></desc></path><path d="M1.38067061144,421.794871795 L53.8461538462,421.794871795 L55.2268244576,475.641025641 L55.2268244576,478.402366864 L1.38067061144,479.783037475 L1.38067061144,421.794871795 Z" fill="#cee3f5" id="US.OH.135" stroke="#6e6e6e" stroke-width="0.4"><desc><name>Preble County</name><stateAbbrev>OH</stateAbbrev><state>Ohio</state><fips>135</fips><incits>39135</incits><id>US.OH.135</id><population>41732</population></desc></path><path d="M77.3175542406,268.540433925 L115.976331361,268.540433925 L115.976331361,261.637080868 L153.25443787,258.875739645 L153.25443787,275.443786982 L153.25443787,304.437869822 L115.976331361,304.437869822 L96.6469428008,297.534516765 L69.033530572,297.534516765 L69.033530572,275.443786982 L77.3175542406,268.540433925 Z" fill="#cee3f5" id="US.OH.003" stroke="#6e6e6e" stroke-width="0.4"><desc><name>Allen County</name><stateAbbrev>OH</stateAbbrev><state>Ohio</state><fips>003</fips><incits>39003</incits><id>US.OH.003</id><population>105298</population></desc></path><path d="M630.966469428,340.33530572 L635.108481262,318.244575937 L644.773175542,311.34122288 L675.147928994,314.102564103 L687.573964497,330.67061144 L686.193293886,356.903353057 L669.625246548,383.136094675 L640.631163708,383.136094675 L643.392504931,340.33530572 L630.966469428,340.33530572 Z" fill="#cee3f5" id="US.OH.081" stroke="#6e6e6e" stroke-width="0.4"><desc><name>Jefferson County</name><stateAbbrev>OH</stateAbbrev><state>Ohio</state><fips>081</fips><incits>39081</incits><id>US.OH.081</id><population>67964</population></desc></path><path d="M277.514792899,246.449704142 L324.457593688,246.449704142 L341.025641026,246.449704142 L341.025641026,293.392504931 L318.934911243,293.392504931 L277.514792899,294.773175542 L277.514792899,246.449704142 Z" fill="#cee3f5" id="US.OH.033" stroke="#6e6e6e" stroke-width="0.4"><desc><name>Crawford County</name><stateAbbrev>OH</stateAbbrev><state>Ohio</state><fips>033</fips><incits>39033</incits><id>US.OH.033</id><population>42808</population></desc></path><path d="M69.033530572,131.854043393 L153.25443787,129.09270217 L151.873767258,166.370808679 L77.3175542406,166.370808679 L71.7948717949,162.228796844 L69.033530572,131.854043393 Z" fill="#cee3f5" id="US.OH.051" stroke="#6e6e6e" stroke-width="0.4"><desc><name>Fulton County</name><stateAbbrev>OH</stateAbbrev><state>Ohio</state><fips>051</fips><incits>39051</incits><id>US.OH.051</id><population>42488</population></desc></path><path d="M582.642998028,430.078895464 L584.023668639,416.272189349 L585.40433925,381.755424063 L640.631163708,383.136094675 L669.625246548,383.136094675 L661.34122288,423.175542406 L650.295857988,432.840236686 L582.642998028,430.078895464 Z" fill="#cee3f5" id="US.OH.013" stroke="#6e6e6e" stroke-width="0.4"><desc><name>Belmont County</name><stateAbbrev>OH</stateAbbrev><state>Ohio</state><fips>013</fips><incits>39013</incits><id>US.OH.013</id><population>69571</population></desc></path><path d="M2.76134122288,176.035502959 L77.3175542406,176.035502959 L96.6469428008,176.035502959 L96.6469428008,218.836291913 L77.3175542406,218.836291913 L59.3688362919,205.029585799 L2.76134122288,205.029585799 L2.76134122288,176.035502959 Z" fill="#cee3f5" id="US.OH.039" stroke="#6e6e6e" stroke-width="0.4"><desc><name>Defiance County</name><stateAbbrev>OH</stateAbbrev><state>Ohio</state><fips>039</fips><incits>39039</incits><id>US.OH.039</id><population>38532</population></desc></path><path d="M327.218934911,580.57199211 L331.360946746,544.674556213 L334.122287968,537.771203156 L371.400394477,541.91321499 L389.349112426,548.816568047 L387.968441815,565.384615385 L385.207100592,597.140039448 L365.877712032,597.140039448 L353.451676529,595.759368836 L335.50295858,595.759368836 L327.218934911,580.57199211 Z" fill="#cee3f5" id="US.OH.079" stroke="#6e6e6e" stroke-width="0.4"><desc><name>Jackson County</name><stateAbbrev>OH</stateAbbrev><state>Ohio</state><fips>079</fips><incits>39079</incits><id>US.OH.079</id><population>32783</population></desc></path><path d="M153.25443787,304.437869822 L153.25443787,275.443786982 L212.623274162,275.443786982 L215.384615385,294.773175542 L227.810650888,297.534516765 L227.810650888,326.528599606 L211.24260355,326.528599606 L153.25443787,321.00591716 L153.25443787,304.437869822 Z" fill="#cee3f5" id="US.OH.065" stroke="#6e6e6e" stroke-width="0.4"><desc><name>Hardin County</name><stateAbbrev>OH</stateAbbrev><state>Ohio</state><fips>065</fips><incits>39065</incits><id>US.OH.065</id><population>31641</population></desc></path><path d="M365.877712032,597.140039448 L385.207100592,597.140039448 L387.968441815,565.384615385 L405.917159763,566.765285996 L443.195266272,570.90729783 L443.195266272,577.810650888 L434.911242604,598.520710059 L422.485207101,606.804733728 L429.388560158,619.230769231 L426.627218935,637.179487179 L412.820512821,639.940828402 L400.394477318,638.560157791 L401.775147929,624.753451677 L382.445759369,623.372781065 L379.684418146,608.185404339 L365.877712032,597.140039448 Z" fill="#cee3f5" id="US.OH.053" stroke="#6e6e6e" stroke-width="0.4"><desc><name>Gallia County</name><stateAbbrev>OH</stateAbbrev><state>Ohio</state><fips>053</fips><incits>39053</incits><id>US.OH.053</id><population>30621</population></desc></path><path d="M411.439842209,508.777120316 L412.820512821,494.970414201 L432.149901381,496.351084813 L433.530571992,481.163708087 L451.479289941,482.544378698 L450.098619329,496.351084813 L484.615384615,497.731755424 L483.234714004,519.822485207 L503.944773176,536.390532544 L498.42209073,541.91321499 L415.581854043,537.771203156 L411.439842209,508.777120316 Z" fill="#cee3f5" id="US.OH.009" stroke="#6e6e6e" stroke-width="0.4"><desc><name>Athens County</name><stateAbbrev>OH</stateAbbrev><state>Ohio</state><fips>009</fips><incits>39009</incits><id>US.OH.009</id><population>64681</population></desc></path><path d="M505.325443787,384.516765286 L520.512820513,373.471400394 L566.07495069,373.471400394 L585.40433925,381.755424063 L584.023668639,416.272189349 L559.171597633,416.272189349 L546.74556213,425.936883629 L527.41617357,425.936883629 L508.08678501,434.220907298 L502.564102564,420.414201183 L505.325443787,384.516765286 Z" fill="#cee3f5" id="US.OH.059" stroke="#6e6e6e" stroke-width="0.4"><desc><name>Guernsey County</name><stateAbbrev>OH</stateAbbrev><state>Ohio</state><fips>059</fips><incits>39059</incits><id>US.OH.059</id><population>39636</population></desc></path><path d="M325.8382643,641.321499014 L338.264299803,637.179487179 L350.690335306,612.327416174 L353.451676529,595.759368836 L365.877712032,597.140039448 L379.684418146,608.185404339 L382.445759369,623.372781065 L401.775147929,624.753451677 L400.394477318,638.560157791 L412.820512821,639.940828402 L407.297830375,659.270216963 L371.400394477,668.934911243 L341.025641026,644.082840237 L325.8382643,641.321499014 Z" fill="#cee3f5" id="US.OH.087" stroke="#6e6e6e" stroke-width="0.4"><desc><name>Lawrence County</name><stateAbbrev>OH</stateAbbrev><state>Ohio</state><fips>087</fips><incits>39087</incits><id>US.OH.087</id><population>61917</population></desc></path><path d="M69.033530572,131.854043393 L71.7948717949,162.228796844 L77.3175542406,166.370808679 L77.3175542406,176.035502959 L2.76134122288,176.035502959 L2.76134122288,133.234714004 L69.033530572,131.854043393 Z" fill="#cee3f5" id="US.OH.171" stroke="#6e6e6e" stroke-width="0.4"><desc><name>Williams County</name><stateAbbrev>OH</stateAbbrev><state>Ohio</state><fips>171</fips><incits>39171</incits><id>US.OH.171</id><population>37500</population></desc></path><path d="M557.790927022,189.842209073 L621.301775148,189.842209073 L621.301775148,224.358974359 L621.301775148,247.830374753 L607.495069034,247.830374753 L557.790927022,247.830374753 L557.790927022,189.842209073 Z" fill="#cee3f5" id="US.OH.133" stroke="#6e6e6e" stroke-width="0.4"><desc><name>Portage County</name><stateAbbrev>OH</stateAbbrev><state>Ohio</state><fips>133</fips><incits>39133</incits><id>US.OH.133</id><population>163862</population></desc></path><path d="M484.615384615,497.731755424 L506.706114398,493.58974359 L505.325443787,477.021696252 L526.035502959,475.641025641 L575.73964497,472.879684418 L615.779092702,483.92504931 L585.40433925,508.777120316 L557.790927022,514.299802761 L546.74556213,504.635108481 L503.944773176,536.390532544 L483.234714004,519.822485207 L484.615384615,497.731755424 Z" fill="#cee3f5" id="US.OH.167" stroke="#6e6e6e" stroke-width="0.4"><desc><name>Washington County</name><stateAbbrev>OH</stateAbbrev><state>Ohio</state><fips>167</fips><incits>39167</incits><id>US.OH.167</id><population>61310</population></desc></path><path d="M2.76134122288,290.631163708 L59.3688362919,290.631163708 L59.3688362919,297.534516765 L59.3688362919,350.0 L62.1301775148,351.380670611 L2.76134122288,351.380670611 L2.76134122288,290.631163708 Z" fill="#cee3f5" id="US.OH.107" stroke="#6e6e6e" stroke-width="0.4"><desc><name>Mercer County</name><stateAbbrev>OH</stateAbbrev><state>Ohio</state><fips>107</fips><incits>39107</incits><id>US.OH.107</id><population>40784</population></desc></path><path d="M252.662721893,569.526627219 L262.327416174,577.810650888 L327.218934911,580.57199211 L335.50295858,595.759368836 L353.451676529,595.759368836 L350.690335306,612.327416174 L338.264299803,637.179487179 L325.8382643,641.321499014 L313.412228797,610.946745562 L291.321499014,616.469428008 L270.611439842,633.037475345 L252.662721893,634.418145957 L252.662721893,569.526627219 Z" fill="#cee3f5" id="US.OH.145" stroke="#6e6e6e" stroke-width="0.4"><desc><name>Scioto County</name><stateAbbrev>OH</stateAbbrev><state>Ohio</state><fips>145</fips><incits>39145</incits><id>US.OH.145</id><population>78153</population></desc></path><path d="M132.544378698,330.67061144 L132.544378698,351.380670611 L132.544378698,354.142011834 L131.163708087,363.806706114 L129.783037475,378.99408284 L63.5108481262,376.232741617 L62.1301775148,351.380670611 L78.6982248521,347.238658777 L78.6982248521,330.67061144 L132.544378698,330.67061144 Z" fill="#cee3f5" id="US.OH.149" stroke="#6e6e6e" stroke-width="0.4"><desc><name>Shelby County</name><stateAbbrev>OH</stateAbbrev><state>Ohio</state><fips>149</fips><incits>39149</incits><id>US.OH.149</id><population>49192</population></desc></path><path d="M582.642998028,430.078895464 L650.295857988,432.840236686 L643.392504931,449.408284024 L642.01183432,470.118343195 L615.779092702,483.92504931 L575.73964497,472.879684418 L570.216962525,456.311637081 L570.216962525,430.078895464 L582.642998028,430.078895464 Z" fill="#cee3f5" id="US.OH.111" stroke="#6e6e6e" stroke-width="0.4"><desc><name>Monroe County</name><stateAbbrev>OH</stateAbbrev><state>Ohio</state><fips>111</fips><incits>39111</incits><id>US.OH.111</id><population>14585</population></desc></path><path d="M430.769230769,235.40433925 L430.769230769,224.358974359 L447.337278107,213.313609467 L463.905325444,213.313609467 L463.905325444,200.887573964 L479.09270217,200.887573964 L510.848126233,200.887573964 L509.467455621,247.830374753 L437.672583826,247.830374753 L430.769230769,235.40433925 Z" fill="#cee3f5" id="US.OH.103" stroke="#6e6e6e" stroke-width="0.4"><desc><name>Medina County</name><stateAbbrev>OH</stateAbbrev><state>Ohio</state><fips>103</fips><incits>39103</incits><id>US.OH.103</id><population>174915</population></desc></path><path d="M2.76134122288,247.830374753 L69.033530572,247.830374753 L69.033530572,261.637080868 L77.3175542406,268.540433925 L69.033530572,275.443786982 L69.033530572,297.534516765 L59.3688362919,297.534516765 L59.3688362919,290.631163708 L2.76134122288,290.631163708 L2.76134122288,247.830374753 Z" fill="#cee3f5" id="US.OH.161" stroke="#6e6e6e" stroke-width="0.4"><desc><name>Van Wert County</name><stateAbbrev>OH</stateAbbrev><state>Ohio</state><fips>161</fips><incits>39161</incits><id>US.OH.161</id><population>28459</population></desc></path><path d="M212.623274162,275.443786982 L222.287968442,247.830374753 L227.810650888,247.830374753 L277.514792899,246.449704142 L277.514792899,294.773175542 L227.810650888,297.534516765 L215.384615385,294.773175542 L212.623274162,275.443786982 Z" fill="#cee3f5" id="US.OH.175" stroke="#6e6e6e" stroke-width="0.4"><desc><name>Wyandot County</name><stateAbbrev>OH</stateAbbrev><state>Ohio</state><fips>175</fips><incits>39175</incits><id>US.OH.175</id><population>22447</population></desc></path><path d="M227.810650888,218.836291913 L227.810650888,205.029585799 L321.696252465,205.029585799 L324.457593688,246.449704142 L277.514792899,246.449704142 L227.810650888,247.830374753 L227.810650888,218.836291913 Z" fill="#cee3f5" id="US.OH.147" stroke="#6e6e6e" stroke-width="0.4"><desc><name>Seneca County</name><stateAbbrev>OH</stateAbbrev><state>Ohio</state><fips>147</fips><incits>39147</incits><id>US.OH.147</id><population>55914</population></desc></path><path d="M516.370808679,300.295857988 L516.370808679,260.256410256 L553.648915187,261.637080868 L557.790927022,247.830374753 L607.495069034,247.830374753 L607.495069034,261.637080868 L607.495069034,290.631163708 L582.642998028,290.631163708 L570.216962525,303.057199211 L516.370808679,305.818540434 L516.370808679,300.295857988 Z" fill="#cee3f5" id="US.OH.151" stroke="#6e6e6e" stroke-width="0.4"><desc><name>Stark County</name><stateAbbrev>OH</stateAbbrev><state>Ohio</state><fips>151</fips><incits>39151</incits><id>US.OH.151</id><population>375432</population></desc></path><path d="M621.301775148,164.990138067 L700.0,164.990138067 L700.0,224.358974359 L621.301775148,224.358974359 L621.301775148,189.842209073 L621.301775148,164.990138067 Z" fill="#cee3f5" id="US.OH.155" stroke="#6e6e6e" stroke-width="0.4"><desc><name>Trumbull County</name><stateAbbrev>OH</stateAbbrev><state>Ohio</state><fips>155</fips><incits>39155</incits><id>US.OH.155</id><population>206442</population></desc></path><path d="M508.08678501,448.027613412 L508.08678501,434.220907298 L527.41617357,425.936883629 L546.74556213,425.936883629 L559.171597633,416.272189349 L584.023668639,416.272189349 L582.642998028,430.078895464 L570.216962525,430.078895464 L570.216962525,456.311637081 L575.73964497,472.879684418 L526.035502959,475.641025641 L508.08678501,448.027613412 Z" fill="#cee3f5" id="US.OH.121" stroke="#6e6e6e" stroke-width="0.4"><desc><name>Noble County</name><stateAbbrev>OH</stateAbbrev><state>Ohio</state><fips>121</fips><incits>39121</incits><id>US.OH.121</id><population>14628</population></desc></path><path d="M69.033530572,247.830374753 L77.3175542406,247.830374753 L77.3175542406,218.836291913 L96.6469428008,218.836291913 L153.25443787,218.836291913 L153.25443787,258.875739645 L115.976331361,261.637080868 L115.976331361,268.540433925 L77.3175542406,268.540433925 L69.033530572,261.637080868 L69.033530572,247.830374753 Z" fill="#cee3f5" id="US.OH.137" stroke="#6e6e6e" stroke-width="0.4"><desc><name>Putnam County</name><stateAbbrev>OH</stateAbbrev><state>Ohio</state><fips>137</fips><incits>39137</incits><id>US.OH.137</id><population>34088</population></desc></path><path d="M445.956607495,446.646942801 L508.08678501,448.027613412 L526.035502959,475.641025641 L505.325443787,477.021696252 L506.706114398,493.58974359 L484.615384615,497.731755424 L450.098619329,496.351084813 L451.479289941,482.544378698 L455.621301775,453.550295858 L445.956607495,446.646942801 Z" fill="#cee3f5" id="US.OH.115" stroke="#6e6e6e" stroke-width="0.4"><desc><name>Morgan County</name><stateAbbrev>OH</stateAbbrev><state>Ohio</state><fips>115</fips><incits>39115</incits><id>US.OH.115</id><population>14904</population></desc></path><path d="M227.810650888,205.029585799 L229.191321499,164.990138067 L241.617357002,171.893491124 L303.747534517,171.893491124 L321.696252465,176.035502959 L321.696252465,199.506903353 L321.696252465,205.029585799 L227.810650888,205.029585799 Z" fill="#cee3f5" id="US.OH.143" stroke="#6e6e6e" stroke-width="0.4"><desc><name>Sandusky County</name><stateAbbrev>OH</stateAbbrev><state>Ohio</state><fips>143</fips><incits>39143</incits><id>US.OH.143</id><population>60098</population></desc></path><path d="M437.672583826,247.830374753 L509.467455621,247.830374753 L516.370808679,260.256410256 L516.370808679,300.295857988 L439.053254438,300.295857988 L437.672583826,247.830374753 Z" fill="#cee3f5" id="US.OH.169" stroke="#6e6e6e" stroke-width="0.4"><desc><name>Wayne County</name><stateAbbrev>OH</stateAbbrev><state>Ohio</state><fips>169</fips><incits>39169</incits><id>US.OH.169</id><population>115071</population></desc></path><path d="M506.706114398,336.193293886 L512.228796844,336.193293886 L516.370808679,305.818540434 L570.216962525,303.057199211 L578.500986193,316.863905325 L578.500986193,338.954635108 L577.120315582,359.66469428 L566.07495069,373.471400394 L520.512820513,373.471400394 L521.893491124,348.619329389 L505.325443787,348.619329389 L506.706114398,336.193293886 Z" fill="#cee3f5" id="US.OH.157" stroke="#6e6e6e" stroke-width="0.4"><desc><name>Tuscarawas County</name><stateAbbrev>OH</stateAbbrev><state>Ohio</state><fips>157</fips><incits>39157</incits><id>US.OH.157</id><population>92672</population></desc></path><path d="M63.5108481262,376.232741617 L129.783037475,378.99408284 L127.021696252,402.465483235 L125.641025641,428.698224852 L106.311637081,421.794871795 L63.5108481262,421.794871795 L63.5108481262,376.232741617 Z" fill="#cee3f5" id="US.OH.109" stroke="#6e6e6e" stroke-width="0.4"><desc><name>Miami County</name><stateAbbrev>OH</stateAbbrev><state>Ohio</state><fips>109</fips><incits>39109</incits><id>US.OH.109</id><population>103439</population></desc></path><path d="M233.333333333,562.623274162 L238.856015779,539.151873767 L331.360946746,544.674556213 L327.218934911,580.57199211 L262.327416174,577.810650888 L252.662721893,569.526627219 L233.333333333,562.623274162 Z" fill="#cee3f5" id="US.OH.131" stroke="#6e6e6e" stroke-width="0.4"><desc><name>Pike County</name><stateAbbrev>OH</stateAbbrev><state>Ohio</state><fips>131</fips><incits>39131</incits><id>US.OH.131</id><population>28367</population></desc></path><path d="M334.122287968,537.771203156 L336.883629191,511.538461538 L411.439842209,508.777120316 L415.581854043,537.771203156 L408.678500986,537.771203156 L405.917159763,566.765285996 L387.968441815,565.384615385 L389.349112426,548.816568047 L371.400394477,541.91321499 L334.122287968,537.771203156 Z" fill="#cee3f5" id="US.OH.163" stroke="#6e6e6e" stroke-width="0.4"><desc><name>Vinton County</name><stateAbbrev>OH</stateAbbrev><state>Ohio</state><fips>163</fips><incits>39163</incits><id>US.OH.163</id><population>13276</population></desc></path><path d="M341.025641026,293.392504931 L341.025641026,246.449704142 L387.968441815,247.830374753 L390.729783037,274.063116371 L403.15581854,290.631163708 L404.536489152,318.244575937 L357.593688363,319.625246548 L356.213017751,293.392504931 L341.025641026,293.392504931 Z" fill="#cee3f5" id="US.OH.139" stroke="#6e6e6e" stroke-width="0.4"><desc><name>Richland County</name><stateAbbrev>OH</stateAbbrev><state>Ohio</state><fips>139</fips><incits>39139</incits><id>US.OH.139</id><population>121773</population></desc></path><path d="M509.467455621,247.830374753 L510.848126233,200.887573964 L528.796844181,200.887573964 L524.654832347,188.461538462 L557.790927022,189.842209073 L557.790927022,247.830374753 L553.648915187,261.637080868 L516.370808679,260.256410256 L509.467455621,247.830374753 Z" fill="#cee3f5" id="US.OH.153" stroke="#6e6e6e" stroke-width="0.4"><desc><name>Summit County</name><stateAbbrev>OH</stateAbbrev><state>Ohio</state><fips>153</fips><incits>39153</incits><id>US.OH.153</id><population>541824</population></desc></path><path d="M405.917159763,566.765285996 L408.678500986,537.771203156 L415.581854043,537.771203156 L498.42209073,541.91321499 L497.041420118,569.526627219 L483.234714004,587.475345168 L458.382642998,566.765285996 L443.195266272,577.810650888 L443.195266272,570.90729783 L405.917159763,566.765285996 Z" fill="#cee3f5" id="US.OH.105" stroke="#6e6e6e" stroke-width="0.4"><desc><name>Meigs County</name><stateAbbrev>OH</stateAbbrev><state>Ohio</state><fips>105</fips><incits>39105</incits><id>US.OH.105</id><population>23496</population></desc></path><path d="M607.495069034,247.830374753 L621.301775148,247.830374753 L621.301775148,224.358974359 L700.0,224.358974359 L700.0,263.017751479 L607.495069034,261.637080868 L607.495069034,247.830374753 Z" fill="#cee3f5" id="US.OH.099" stroke="#6e6e6e" stroke-width="0.4"><desc><name>Mahoning County</name><stateAbbrev>OH</stateAbbrev><state>Ohio</state><fips>099</fips><incits>39099</incits><id>US.OH.099</id><population>233869</population></desc></path><path d="M151.873767258,178.796844181 L179.487179487,166.370808679 L182.24852071,158.08678501 L204.339250493,145.660749507 L229.191321499,145.660749507 L229.191321499,164.990138067 L227.810650888,205.029585799 L227.810650888,218.836291913 L153.25443787,218.836291913 L151.873767258,178.796844181 Z" fill="#cee3f5" id="US.OH.173" stroke="#6e6e6e" stroke-width="0.4"><desc><name>Wood County</name><stateAbbrev>OH</stateAbbrev><state>Ohio</state><fips>173</fips><incits>39173</incits><id>US.OH.173</id><population>129264</population></desc></path><path d="M2.76134122288,205.029585799 L59.3688362919,205.029585799 L77.3175542406,218.836291913 L77.3175542406,247.830374753 L69.033530572,247.830374753 L2.76134122288,247.830374753 L2.76134122288,205.029585799 Z" fill="#cee3f5" id="US.OH.125" stroke="#6e6e6e" stroke-width="0.4"><desc><name>Paulding County</name><stateAbbrev>OH</stateAbbrev><state>Ohio</state><fips>125</fips><incits>39125</incits><id>US.OH.125</id><population>19254</population></desc></path></svg>