<?xml version='1.0' encoding='utf-8'?>
<svg height="700" width="700" xmlns="http://www.w3.org/2000/svg"><path d="M22.7436823105,65.7039711191 L48.0144404332,65.7039711191 L48.0144404332,71.6004813478 L55.59566787,71.6004813478 L66.5463297232,71.6004813478 L68.2310469314,72.4428399519 L69.9157641396,80.0240673887 L69.0734055355,81.7087845969 L72.4428399519,85.0782190132 L70.7581227437,86.7629362214 L70.7581227437,89.2900120337 L69.9157641396,90.9747292419 L72.4428399519,95.1865222623 L70.7581227437,97.7135980746 L69.9157641396,101.083032491 L67.3886883273,102.767749699 L61.4921780987,101.925391095 L58.1227436823,103.610108303 L58.9651022864,105.294825511 L62.3345367028,108.664259928 L63.1768953069,115.403128761 L63.1768953069,143.200962696 L63.1768953069,165.102286402 L31.1672683514,165.102286402 L23.5860409146,165.102286402 L21.9013237064,160.890493381 L16.8471720818,158.363417569 L12.6353790614,155.836341757 L5.89651022864,150.782190132 L4.21179302046,149.097472924 L3.36943441637,146.570397112 L4.21179302046,143.200962696 L3.36943441637,140.673886883 L0.0,136.462093863 L0.0,133.935018051 L1.68471720818,131.407942238 L1.68471720818,128.880866426 L7.58122743682,119.614921781 L16.8471720818,106.137184116 L19.3742478941,101.083032491 L20.2166064982,96.8712394705 L18.53188929,96.0288808664 L16.0048134777,90.9747292419 L16.0048134777,86.7629362214 L19.3742478941,85.0782190132 L21.9013237064,77.4969915764 L19.3742478941,77.4969915764 L16.0048134777,75.8122743682 L16.8471720818,72.4428399519 L19.3742478941,70.7581227437 L22.7436823105,71.6004813478 L22.7436823105,65.7039711191 Z" fill="#cee3f5" id="US.CA.023" stroke="#6e6e6e" stroke-width="0.4"><desc><name>Humboldt County</name><stateAbbrev>CA</stateAbbrev><state>California</state><fips>023</fips><incits>06023</incits><id>US.CA.023</id><population>134493</population></desc></path><path d="M331.889290012,402.647412756 L339.470517449,396.750902527 L350.421179302,396.750902527 L350.421179302,390.854392298 L371.480144404,390.854392298 L371.480144404,385.800240674 L388.327316486,385.800240674 L400.962695548,385.800240674 L400.962695548,384.95788207 L408.543922984,384.95788207 L413.598074609,384.95788207 L415.282791817,386.642599278 L416.125150421,388.327316486 L413.598074609,388.327316486 L416.967509025,392.539109507 L418.652226233,395.908543923 L418.652226233,397.593261131 L420.336943442,398.435619735 L422.02166065,400.120336943 L421.179302046,402.647412756 L423.706377858,405.174488568 L424.548736462,406.859205776 L427.918170878,406.016847172 L427.918170878,408.543922984 L430.445246691,411.913357401 L431.287605295,411.913357401 L429.602888087,416.967509025 L431.287605295,421.179302046 L433.814681107,423.706377858 L432.972322503,426.23345367 L433.814681107,429.602888087 L434.657039711,429.602888087 L436.341756919,434.657039711 L438.026474128,436.341756919 L437.184115523,438.026474128 L438.868832732,439.711191336 L439.711191336,443.080625752 L438.026474128,444.76534296 L438.026474128,449.819494585 L413.598074609,449.819494585 L406.859205776,449.819494585 L400.120336943,449.819494585 L371.480144404,449.819494585 L334.416365824,449.819494585 L334.416365824,426.23345367 L335.258724428,426.23345367 L335.258724428,417.809867629 L338.628158845,417.809867629 L338.628158845,408.543922984 L335.258724428,408.543922984 L335.258724428,402.647412756 L331.889290012,402.647412756 Z" fill="#cee3f5" id="US.CA.107" stroke="#6e6e6e" stroke-width="0.4"><desc><name>Tulare County</name><stateAbbrev>CA</stateAbbrev><state>California</state><fips>107</fips><incits>06107</incits><id>US.CA.107</id><population>454143</population></desc></path><path d="M176.895306859,295.667870036 L178.580024067,294.825511432 L181.10709988,296.51022864 L185.3188929,294.825511432 L187.003610108,294.825511432 L188.688327316,289.771359807 L190.373044525,288.086642599 L193.742478941,287.244283995 L194.584837545,285.559566787 L194.584837545,280.505415162 L195.427196149,278.820697954 L200.481347774,275.451263538 L200.481347774,272.924187726 L199.63898917,271.239470517 L201.323706378,270.397111913 L201.323706378,268.712394705 L198.796630566,267.870036101 L197.954271961,265.342960289 L200.481347774,263.658243081 L201.323706378,260.288808664 L197.954271961,259.44645006 L197.111913357,256.919374248 L194.584837545,256.919374248 L192.900120337,254.392298436 L192.900120337,253.549939832 L194.584837545,250.180505415 L203.008423586,251.022864019 L225.752105897,251.865222623 L227.436823105,251.865222623 L233.333333333,266.185318893 L233.333333333,279.663056558 L230.806257521,280.505415162 L225.752105897,282.190132371 L221.540312876,283.874849579 L217.328519856,283.032490975 L212.274368231,284.717208183 L208.062575211,284.717208183 L206.377858002,283.032490975 L203.85078219,283.032490975 L201.323706378,286.401925391 L199.63898917,287.244283995 L198.796630566,289.771359807 L196.269554753,292.29843562 L196.269554753,293.983152828 L194.584837545,293.140794224 L192.057761733,293.983152828 L189.530685921,293.983152828 L189.530685921,296.51022864 L184.476534296,299.037304452 L180.264741276,299.037304452 L176.895306859,295.667870036 Z" fill="#cee3f5" id="US.CA.067" stroke="#6e6e6e" stroke-width="0.4"><desc><name>Sacramento County</name><stateAbbrev>CA</stateAbbrev><state>California</state><fips>067</fips><incits>06067</incits><id>US.CA.067</id><population>1462131</population></desc></path><path d="M96.0288808664,285.559566787 L96.8712394705,282.190132371 L95.1865222623,280.505415162 L99.3983152828,280.505415162 L102.767749699,278.820697954 L106.97954272,278.820697954 L117.930204573,286.401925391 L123.826714801,288.086642599 L129.72322503,288.086642599 L133.935018051,293.140794224 L144.0433213,295.667870036 L138.146811071,302.406738869 L138.146811071,304.933814681 L138.989169675,309.987966306 L133.935018051,312.515042118 L132.250300842,312.515042118 L126.353790614,313.357400722 L122.141997593,310.83032491 L119.614921781,310.83032491 L117.087845969,309.987966306 L114.560770156,307.460890493 L111.19133574,305.776173285 L110.348977136,304.091456077 L107.821901324,302.406738869 L103.610108303,304.091456077 L98.5559566787,304.091456077 L95.1865222623,303.249097473 L94.3441636582,301.564380265 L94.3441636582,299.037304452 L96.0288808664,298.194945848 L99.3983152828,290.613718412 L96.0288808664,285.559566787 Z" fill="#cee3f5" id="US.CA.041" stroke="#6e6e6e" stroke-width="0.4"><desc><name>Marin County</name><stateAbbrev>CA</stateAbbrev><state>California</state><fips>041</fips><incits>06041</incits><id>US.CA.041</id><population>258365</population></desc></path><path d="M144.0433213,295.667870036 L154.993983153,296.51022864 L158.363417569,298.194945848 L165.102286402,295.667870036 L172.683513839,297.352587244 L175.210589651,297.352587244 L176.895306859,295.667870036 L180.264741276,299.037304452 L184.476534296,299.037304452 L189.530685921,296.51022864 L189.530685921,293.983152828 L192.057761733,293.983152828 L194.584837545,293.140794224 L196.269554753,293.983152828 L196.269554753,297.352587244 L197.111913357,299.037304452 L196.269554753,300.722021661 L197.954271961,304.933814681 L196.269554753,309.145607702 L199.63898917,310.83032491 L197.954271961,312.515042118 L170.156438026,319.253910951 L166.78700361,317.569193742 L167.629362214,316.726835138 L164.259927798,314.199759326 L158.363417569,313.357400722 L154.993983153,311.672683514 L149.939831528,306.618531889 L142.358604091,308.303249097 L138.146811071,304.933814681 L138.146811071,302.406738869 L144.0433213,295.667870036 Z" fill="#cee3f5" id="US.CA.013" stroke="#6e6e6e" stroke-width="0.4"><desc><name>Contra Costa County</name><stateAbbrev>CA</stateAbbrev><state>California</state><fips>013</fips><incits>06013</incits><id>US.CA.013</id><population>1094205</population></desc></path><path d="M125.51143201,255.23465704 L136.462093863,252.707581227 L139.831528279,247.653429603 L142.358604091,245.126353791 L140.673886883,241.756919374 L144.0433213,243.441636582 L148.25511432,243.441636582 L151.624548736,250.180505415 L153.309265945,253.549939832 L156.678700361,256.077015644 L158.363417569,259.44645006 L160.890493381,265.342960289 L159.205776173,271.239470517 L162.57521059,276.293622142 L163.417569194,278.820697954 L154.151624549,278.820697954 L153.309265945,283.874849579 L154.151624549,285.559566787 L153.309265945,287.244283995 L154.151624549,289.771359807 L139.831528279,289.771359807 L142.358604091,289.771359807 L143.200962696,288.086642599 L143.200962696,284.717208183 L140.673886883,281.347773767 L140.673886883,279.663056558 L138.146811071,276.293622142 L138.146811071,276.293622142 L137.304452467,274.608904934 L133.935018051,271.239470517 L133.092659446,269.554753309 L130.565583634,267.027677497 L130.565583634,265.342960289 L128.038507822,262.815884477 L124.669073406,261.973525872 L123.826714801,259.44645006 L125.51143201,258.604091456 L125.51143201,255.23465704 Z" fill="#cee3f5" id="US.CA.055" stroke="#6e6e6e" stroke-width="0.4"><desc><name>Napa County</name><stateAbbrev>CA</stateAbbrev><state>California</state><fips>055</fips><incits>06055</incits><id>US.CA.055</id><population>140326</population></desc></path><path d="M234.175691937,206.377858002 L235.860409146,204.693140794 L240.072202166,204.693140794 L246.811070999,203.008423586 L249.338146811,203.008423586 L251.865222623,202.166064982 L255.23465704,198.796630566 L258.604091456,197.111913357 L263.658243081,197.111913357 L268.712394705,202.166064982 L303.249097473,202.166064982 L302.406738869,211.432009627 L259.44645006,211.432009627 L253.549939832,213.116726835 L248.495788207,217.328519856 L245.126353791,218.17087846 L244.283995187,220.697954272 L242.599277978,220.697954272 L237.545126354,224.067388688 L235.860409146,227.436823105 L232.490974729,231.648616125 L228.279181709,231.648616125 L225.752105897,229.963898917 L222.38267148,231.648616125 L220.697954272,231.648616125 L216.486161252,229.963898917 L216.486161252,217.328519856 L217.328519856,213.959085439 L220.697954272,213.959085439 L221.540312876,211.432009627 L224.909747292,209.747292419 L226.594464501,207.220216606 L229.963898917,206.377858002 L234.175691937,206.377858002 Z" fill="#cee3f5" id="US.CA.057" stroke="#6e6e6e" stroke-width="0.4"><desc><name>Nevada County</name><stateAbbrev>CA</stateAbbrev><state>California</state><fips>057</fips><incits>06057</incits><id>US.CA.057</id><population>98200</population></desc></path><path d="M349.578820698,315.04211793 L331.046931408,330.204572804 L331.046931408,334.416365824 L329.3622142,334.416365824 L329.3622142,336.943441637 L326.835138387,336.943441637 L326.835138387,339.470517449 L319.253910951,339.470517449 L299.879663057,355.475330927 L297.352587244,352.948255114 L293.140794224,352.10589651 L290.613718412,350.421179302 L290.613718412,347.89410349 L284.717208183,341.155234657 L283.874849579,338.628158845 L283.874849579,336.943441637 L277.135980746,325.150421179 L279.663056558,322.623345367 L282.190132371,322.623345367 L280.505415162,320.096269555 L283.874849579,317.569193742 L284.717208183,318.411552347 L287.244283995,316.726835138 L289.771359807,316.726835138 L291.456077016,314.199759326 L294.825511432,315.04211793 L297.352587244,311.672683514 L301.564380265,313.357400722 L306.618531889,315.884476534 L313.357400722,316.726835138 L317.569193742,316.726835138 L320.096269555,315.04211793 L323.465703971,314.199759326 L326.835138387,312.515042118 L325.992779783,311.672683514 L330.204572804,309.987966306 L331.046931408,307.460890493 L332.731648616,306.618531889 L338.628158845,309.987966306 L340.312876053,309.145607702 L345.367027677,311.672683514 L347.051744886,313.357400722 L349.578820698,314.199759326 L349.578820698,315.04211793 Z" fill="#cee3f5" id="US.CA.043" stroke="#6e6e6e" stroke-width="0.4"><desc><name>Mariposa County</name><stateAbbrev>CA</stateAbbrev><state>California</state><fips>043</fips><incits>06043</incits><id>US.CA.043</id><population>17755</population></desc></path><path d="M429.602888087,591.335740072 L430.445246691,588.80866426 L432.129963899,587.123947052 L432.129963899,586.281588448 L433.814681107,582.912154031 L434.657039711,581.227436823 L436.341756919,579.542719615 L439.711191336,577.858002407 L439.711191336,574.48856799 L453.188929001,574.48856799 L460.770156438,579.542719615 L466.666666667,587.123947052 L470.036101083,587.123947052 L470.036101083,590.493381468 L474.247894103,591.335740072 L478.459687124,593.862815884 L471.720818291,602.286401925 L471.720818291,604.813477738 L471.720818291,606.498194946 L469.193742479,608.182912154 L466.666666667,608.182912154 L464.981949458,615.764139591 L457.400722022,610.709987966 L455.716004813,610.709987966 L450.661853189,605.655836342 L443.080625752,601.444043321 L436.341756919,597.232250301 L432.129963899,594.705174489 L429.602888087,591.335740072 Z" fill="#cee3f5" id="US.CA.059" stroke="#6e6e6e" stroke-width="0.4"><desc><name>Orange County</name><stateAbbrev>CA</stateAbbrev><state>California</state><fips>059</fips><incits>06059</incits><id>US.CA.059</id><population>3114363</population></desc></path><path d="M233.333333333,279.663056558 L235.860409146,284.717208183 L239.229843562,293.983152828 L240.072202166,294.825511432 L240.072202166,308.303249097 L240.91456077,317.569193742 L238.387484958,318.411552347 L235.860409146,316.726835138 L233.333333333,317.569193742 L229.121540313,317.569193742 L224.909747292,320.096269555 L219.855595668,321.780986763 L218.17087846,324.308062575 L203.85078219,335.258724428 L201.323706378,332.731648616 L197.954271961,331.046931408 L197.954271961,312.515042118 L199.63898917,310.83032491 L196.269554753,309.145607702 L197.954271961,304.933814681 L196.269554753,300.722021661 L197.111913357,299.037304452 L196.269554753,297.352587244 L196.269554753,293.983152828 L196.269554753,292.29843562 L198.796630566,289.771359807 L199.63898917,287.244283995 L201.323706378,286.401925391 L203.85078219,283.032490975 L206.377858002,283.032490975 L208.062575211,284.717208183 L212.274368231,284.717208183 L217.328519856,283.032490975 L221.540312876,283.874849579 L225.752105897,282.190132371 L230.806257521,280.505415162 L233.333333333,279.663056558 Z" fill="#cee3f5" id="US.CA.077" stroke="#6e6e6e" stroke-width="0.4"><desc><name>San Joaquin County</name><stateAbbrev>CA</stateAbbrev><state>California</state><fips>077</fips><incits>06077</incits><id>US.CA.077</id><population>704379</population></desc></path><path d="M57.2803850782,249.338146811 L64.019253911,248.495788207 L66.5463297232,247.653429603 L74.9699157641,247.653429603 L74.9699157641,245.968712395 L90.9747292419,245.968712395 L90.9747292419,243.441636582 L94.3441636582,242.599277978 L112.033694344,242.599277978 L117.087845969,245.968712395 L117.087845969,246.811070999 L119.614921781,249.338146811 L121.299638989,251.865222623 L123.826714801,252.707581227 L125.51143201,255.23465704 L125.51143201,258.604091456 L123.826714801,259.44645006 L124.669073406,261.973525872 L128.038507822,262.815884477 L130.565583634,265.342960289 L130.565583634,267.027677497 L133.092659446,269.554753309 L133.935018051,271.239470517 L137.304452467,274.608904934 L138.146811071,276.293622142 L138.146811071,276.293622142 L140.673886883,279.663056558 L140.673886883,281.347773767 L143.200962696,284.717208183 L143.200962696,288.086642599 L142.358604091,289.771359807 L139.831528279,289.771359807 L144.0433213,295.667870036 L133.935018051,293.140794224 L129.72322503,288.086642599 L123.826714801,288.086642599 L117.930204573,286.401925391 L106.97954272,278.820697954 L102.767749699,278.820697954 L99.3983152828,280.505415162 L95.1865222623,280.505415162 L96.8712394705,282.190132371 L96.0288808664,285.559566787 L90.9747292419,280.505415162 L90.9747292419,277.135980746 L89.2900120337,273.76654633 L85.0782190132,270.397111913 L81.7087845969,269.554753309 L78.3393501805,267.027677497 L75.8122743682,266.185318893 L73.285198556,262.815884477 L69.0734055355,258.604091456 L65.7039711191,254.392298436 L60.6498194946,251.865222623 L59.8074608905,250.180505415 L57.2803850782,249.338146811 Z" fill="#cee3f5" id="US.CA.097" stroke="#6e6e6e" stroke-width="0.4"><desc><name>Sonoma County</name><stateAbbrev>CA</stateAbbrev><state>California</state><fips>097</fips><incits>06097</incits><id>US.CA.097</id><population>495025</population></desc></path><path d="M213.116726835,85.0782190132 L254.392298436,85.0782190132 L277.97833935,85.0782190132 L303.249097473,85.0782190132 L303.249097473,112.876052948 L303.249097473,126.353790614 L303.249097473,164.259927798 L303.249097473,183.634175692 L301.564380265,184.476534296 L293.140794224,184.476534296 L293.140794224,182.791817088 L295.667870036,181.10709988 L295.667870036,169.314079422 L292.29843562,166.78700361 L289.771359807,164.259927798 L288.929001203,159.205776173 L286.401925391,157.521058965 L279.663056558,157.521058965 L275.451263538,154.993983153 L273.76654633,153.309265945 L272.081829122,150.782190132 L270.397111913,150.782190132 L269.554753309,149.097472924 L263.658243081,145.728038508 L261.131167268,145.728038508 L258.604091456,144.0433213 L253.549939832,144.0433213 L251.022864019,144.0433213 L249.338146811,144.885679904 L249.338146811,146.570397112 L246.811070999,146.570397112 L244.283995187,149.097472924 L244.283995187,151.624548736 L240.072202166,151.624548736 L239.229843562,149.939831528 L235.018050542,149.939831528 L230.806257521,147.412755716 L230.806257521,134.777376655 L213.116726835,134.777376655 L213.116726835,131.407942238 L213.959085439,108.664259928 L213.959085439,103.610108303 L213.116726835,103.610108303 L213.116726835,85.0782190132 Z" fill="#cee3f5" id="US.CA.035" stroke="#6e6e6e" stroke-width="0.4"><desc><name>Lassen County</name><stateAbbrev>CA</stateAbbrev><state>California</state><fips>035</fips><incits>06035</incits><id>US.CA.035</id><population>32163</population></desc></path><path d="M235.860409146,284.717208183 L237.545126354,285.559566787 L243.441636582,283.874849579 L245.968712395,282.190132371 L253.549939832,279.663056558 L258.604091456,277.97833935 L261.131167268,276.293622142 L261.973525872,273.76654633 L267.870036101,272.081829122 L269.554753309,269.554753309 L272.081829122,270.397111913 L274.608904934,268.712394705 L277.135980746,269.554753309 L284.717208183,267.870036101 L289.771359807,266.185318893 L294.825511432,267.027677497 L298.194945848,266.185318893 L299.037304452,269.554753309 L301.564380265,271.239470517 L297.352587244,272.924187726 L293.983152828,273.76654633 L291.456077016,274.608904934 L288.929001203,277.97833935 L287.244283995,278.820697954 L281.347773767,286.401925391 L277.97833935,289.771359807 L276.293622142,292.29843562 L271.239470517,299.879663057 L267.027677497,300.722021661 L267.870036101,303.249097473 L264.500601685,307.460890493 L260.288808664,309.987966306 L258.604091456,311.672683514 L240.072202166,294.825511432 L239.229843562,293.983152828 L235.860409146,284.717208183 Z" fill="#cee3f5" id="US.CA.009" stroke="#6e6e6e" stroke-width="0.4"><desc><name>Calaveras County</name><stateAbbrev>CA</stateAbbrev><state>California</state><fips>009</fips><incits>06009</incits><id>US.CA.009</id><population>44515</population></desc></path><path d="M258.604091456,311.672683514 L260.288808664,309.987966306 L264.500601685,307.460890493 L267.870036101,303.249097473 L267.027677497,300.722021661 L271.239470517,299.879663057 L276.293622142,292.29843562 L277.97833935,289.771359807 L281.347773767,286.401925391 L287.244283995,278.820697954 L288.929001203,277.97833935 L291.456077016,274.608904934 L293.983152828,273.76654633 L297.352587244,272.924187726 L301.564380265,271.239470517 L310.83032491,276.293622142 L316.726835138,272.924187726 L320.096269555,272.081829122 L323.465703971,272.924187726 L323.465703971,275.451263538 L327.677496992,277.97833935 L326.835138387,281.347773767 L329.3622142,283.032490975 L328.519855596,287.244283995 L331.889290012,288.086642599 L331.889290012,289.771359807 L338.628158845,291.456077016 L340.312876053,293.983152828 L341.997593261,293.140794224 L347.051744886,294.825511432 L350.421179302,299.037304452 L349.578820698,300.722021661 L349.578820698,304.091456077 L356.317689531,307.460890493 L356.317689531,309.145607702 L357.160048135,314.199759326 L352.948255114,318.411552347 L349.578820698,315.04211793 L349.578820698,314.199759326 L347.051744886,313.357400722 L345.367027677,311.672683514 L340.312876053,309.145607702 L338.628158845,309.987966306 L332.731648616,306.618531889 L331.046931408,307.460890493 L330.204572804,309.987966306 L325.992779783,311.672683514 L326.835138387,312.515042118 L323.465703971,314.199759326 L320.096269555,315.04211793 L317.569193742,316.726835138 L313.357400722,316.726835138 L306.618531889,315.884476534 L301.564380265,313.357400722 L297.352587244,311.672683514 L294.825511432,315.04211793 L291.456077016,314.199759326 L289.771359807,316.726835138 L287.244283995,316.726835138 L284.717208183,318.411552347 L283.874849579,317.569193742 L280.505415162,320.096269555 L282.190132371,322.623345367 L279.663056558,322.623345367 L277.135980746,325.150421179 L258.604091456,311.672683514 Z" fill="#cee3f5" id="US.CA.109" stroke="#6e6e6e" stroke-width="0.4"><desc><name>Tuolumne County</name><stateAbbrev>CA</stateAbbrev><state>California</state><fips>109</fips><incits>06109</incits><id>US.CA.109</id><population>53874</population></desc></path><path d="M327.677496992,277.97833935 L329.3622142,275.451263538 L328.519855596,273.76654633 L332.731648616,272.924187726 L331.889290012,271.239470517 L334.416365824,267.870036101 L330.204572804,260.288808664 L328.519855596,258.604091456 L329.3622142,255.23465704 L331.046931408,251.865222623 L366.42599278,277.135980746 L385.800240674,290.613718412 L411.070998797,308.303249097 L432.129963899,323.465703971 L449.819494585,336.943441637 L425.391095066,336.943441637 L385.800240674,336.943441637 L384.115523466,335.258724428 L380.746089049,336.101083032 L379.903730445,333.57400722 L376.534296029,331.046931408 L370.6377858,329.3622142 L368.953068592,328.519855596 L368.953068592,325.992779783 L366.42599278,323.465703971 L366.42599278,321.780986763 L362.214199759,318.411552347 L357.160048135,318.411552347 L356.317689531,320.096269555 L352.948255114,318.411552347 L357.160048135,314.199759326 L356.317689531,309.145607702 L356.317689531,307.460890493 L349.578820698,304.091456077 L349.578820698,300.722021661 L350.421179302,299.037304452 L347.051744886,294.825511432 L341.997593261,293.140794224 L340.312876053,293.983152828 L338.628158845,291.456077016 L331.889290012,289.771359807 L331.889290012,288.086642599 L328.519855596,287.244283995 L329.3622142,283.032490975 L326.835138387,281.347773767 L327.677496992,277.97833935 Z" fill="#cee3f5" id="US.CA.051" stroke="#6e6e6e" stroke-width="0.4"><desc><name>Mono County</name><stateAbbrev>CA</stateAbbrev><state>California</state><fips>051</fips><incits>06051</incits><id>US.CA.051</id><population>14074</population></desc></path><path d="M157.521058965,348.736462094 L161.732851986,352.948255114 L165.944645006,355.475330927 L165.944645006,356.317689531 L168.471720818,358.002406739 L173.525872443,360.529482551 L179.422382671,362.214199759 L180.264741276,363.056558363 L184.476534296,364.741275572 L187.003610108,367.268351384 L188.688327316,369.795427196 L196.269554753,373.164861613 L196.269554753,374.849578821 L192.900120337,374.007220217 L192.057761733,374.849578821 L187.003610108,374.007220217 L185.3188929,374.007220217 L181.949458484,375.691937425 L180.264741276,378.219013237 L164.259927798,379.903730445 L162.57521059,374.007220217 L155.836341757,372.322503008 L150.782190132,368.953068592 L149.097472924,366.42599278 L146.570397112,364.741275572 L148.25511432,360.529482551 L146.570397112,358.002406739 L146.570397112,355.475330927 L150.782190132,355.475330927 L150.782190132,353.790613718 L157.521058965,353.790613718 L157.521058965,348.736462094 Z" fill="#cee3f5" id="US.CA.087" stroke="#6e6e6e" stroke-width="0.4"><desc><name>Santa Cruz County</name><stateAbbrev>CA</stateAbbrev><state>California</state><fips>087</fips><incits>06087</incits><id>US.CA.087</id><population>269419</population></desc></path><path d="M235.018050542,189.530685921 L236.70276775,188.688327316 L239.229843562,186.161251504 L240.072202166,182.791817088 L244.283995187,180.264741276 L249.338146811,184.476534296 L252.707581227,183.634175692 L256.919374248,187.003610108 L258.604091456,184.476534296 L272.924187726,184.476534296 L293.140794224,184.476534296 L301.564380265,184.476534296 L303.249097473,183.634175692 L303.249097473,202.166064982 L268.712394705,202.166064982 L263.658243081,197.111913357 L258.604091456,197.111913357 L255.23465704,198.796630566 L251.865222623,202.166064982 L249.338146811,203.008423586 L246.811070999,203.008423586 L240.072202166,204.693140794 L235.860409146,204.693140794 L234.175691937,206.377858002 L233.333333333,197.954271961 L231.648616125,196.269554753 L234.175691937,194.584837545 L235.018050542,189.530685921 Z" fill="#cee3f5" id="US.CA.091" stroke="#6e6e6e" stroke-width="0.4"><desc><name>Sierra County</name><stateAbbrev>CA</stateAbbrev><state>California</state><fips>091</fips><incits>06091</incits><id>US.CA.091</id><population>3047</population></desc></path><path d="M192.900120337,212.274368231 L193.742478941,211.432009627 L197.111913357,212.274368231 L199.63898917,211.432009627 L202.166064982,211.432009627 L208.062575211,209.747292419 L209.747292419,208.062575211 L212.274368231,201.323706378 L213.959085439,200.481347774 L214.801444043,197.954271961 L219.013237064,197.111913357 L224.909747292,197.111913357 L224.909747292,195.427196149 L228.279181709,194.584837545 L229.963898917,192.057761733 L235.018050542,189.530685921 L234.175691937,194.584837545 L231.648616125,196.269554753 L233.333333333,197.954271961 L234.175691937,206.377858002 L229.963898917,206.377858002 L226.594464501,207.220216606 L224.909747292,209.747292419 L221.540312876,211.432009627 L220.697954272,213.959085439 L217.328519856,213.959085439 L216.486161252,217.328519856 L216.486161252,229.963898917 L213.959085439,229.121540313 L210.589651023,230.806257521 L207.220216606,233.333333333 L204.693140794,232.490974729 L196.269554753,236.70276775 L195.427196149,233.333333333 L196.269554753,232.490974729 L193.742478941,229.121540313 L195.427196149,226.594464501 L192.900120337,219.013237064 L192.057761733,216.486161252 L192.900120337,212.274368231 Z" fill="#cee3f5" id="US.CA.115" stroke="#6e6e6e" stroke-width="0.4"><desc><name>Yuba County</name><stateAbbrev>CA</stateAbbrev><state>California</state><fips>115</fips><incits>06115</incits><id>US.CA.115</id><population>73340</population></desc></path><path d="M117.930204573,206.377858002 L128.880866426,206.377858002 L138.146811071,206.377858002 L158.363417569,206.377858002 L158.363417569,204.693140794 L166.78700361,204.693140794 L167.629362214,206.377858002 L175.210589651,206.377858002 L173.525872443,212.274368231 L170.998796631,216.486161252 L172.683513839,219.013237064 L170.998796631,220.697954272 L173.525872443,222.38267148 L172.683513839,224.067388688 L175.210589651,227.436823105 L178.580024067,228.279181709 L180.264741276,233.333333333 L178.580024067,235.860409146 L178.580024067,237.545126354 L165.944645006,237.545126354 L144.885679904,237.545126354 L139.831528279,235.018050542 L139.831528279,231.648616125 L138.146811071,230.806257521 L134.777376655,227.436823105 L133.935018051,224.909747292 L135.619735259,223.225030084 L133.092659446,218.17087846 L128.880866426,219.013237064 L124.669073406,217.328519856 L122.984356197,218.17087846 L120.457280385,215.643802647 L116.245487365,213.116726835 L115.403128761,211.432009627 L117.930204573,208.062575211 L117.930204573,206.377858002 Z" fill="#cee3f5" id="US.CA.011" stroke="#6e6e6e" stroke-width="0.4"><desc><name>Colusa County</name><stateAbbrev>CA</stateAbbrev><state>California</state><fips>011</fips><incits>06011</incits><id>US.CA.011</id><population>21358</population></desc></path><path d="M202.166064982,134.777376655 L213.116726835,134.777376655 L230.806257521,134.777376655 L230.806257521,147.412755716 L235.018050542,149.939831528 L239.229843562,149.939831528 L240.072202166,151.624548736 L244.283995187,151.624548736 L244.283995187,149.097472924 L246.811070999,146.570397112 L249.338146811,146.570397112 L249.338146811,144.885679904 L251.022864019,144.0433213 L253.549939832,144.0433213 L258.604091456,144.0433213 L261.131167268,145.728038508 L263.658243081,145.728038508 L269.554753309,149.097472924 L270.397111913,150.782190132 L272.081829122,150.782190132 L273.76654633,153.309265945 L275.451263538,154.993983153 L279.663056558,157.521058965 L286.401925391,157.521058965 L288.929001203,159.205776173 L289.771359807,164.259927798 L292.29843562,166.78700361 L295.667870036,169.314079422 L295.667870036,181.10709988 L293.140794224,182.791817088 L293.140794224,184.476534296 L272.924187726,184.476534296 L258.604091456,184.476534296 L256.919374248,187.003610108 L252.707581227,183.634175692 L249.338146811,184.476534296 L244.283995187,180.264741276 L240.072202166,182.791817088 L239.229843562,186.161251504 L236.70276775,188.688327316 L235.018050542,189.530685921 L229.963898917,192.057761733 L229.121540313,190.373044525 L225.752105897,190.373044525 L224.909747292,187.845968712 L221.540312876,185.3188929 L218.17087846,181.949458484 L213.959085439,178.580024067 L210.589651023,175.210589651 L207.220216606,173.525872443 L207.220216606,170.156438026 L207.220216606,164.259927798 L209.747292419,161.732851986 L209.747292419,157.521058965 L208.062575211,157.521058965 L208.062575211,154.993983153 L205.535499398,154.993983153 L205.535499398,152.466907341 L210.589651023,150.782190132 L212.274368231,144.0433213 L209.747292419,142.358604091 L206.377858002,141.516245487 L203.85078219,141.516245487 L202.166064982,138.989169675 L203.008423586,136.462093863 L202.166064982,134.777376655 Z" fill="#cee3f5" id="US.CA.063" stroke="#6e6e6e" stroke-width="0.4"><desc><name>Plumas County</name><stateAbbrev>CA</stateAbbrev><state>California</state><fips>063</fips><incits>06063</incits><id>US.CA.063</id><population>18859</population></desc></path><path d="M173.525872443,212.274368231 L192.900120337,212.274368231 L192.900120337,212.274368231 L192.057761733,216.486161252 L192.900120337,219.013237064 L195.427196149,226.594464501 L193.742478941,229.121540313 L196.269554753,232.490974729 L195.427196149,233.333333333 L196.269554753,236.70276775 L204.693140794,232.490974729 L207.220216606,233.333333333 L207.220216606,237.545126354 L203.85078219,237.545126354 L203.85078219,249.338146811 L203.008423586,251.022864019 L194.584837545,250.180505415 L195.427196149,248.495788207 L188.688327316,248.495788207 L188.688327316,246.811070999 L186.161251504,245.968712395 L186.161251504,242.599277978 L180.264741276,240.91456077 L181.10709988,239.229843562 L178.580024067,237.545126354 L178.580024067,235.860409146 L180.264741276,233.333333333 L178.580024067,228.279181709 L175.210589651,227.436823105 L172.683513839,224.067388688 L173.525872443,222.38267148 L170.998796631,220.697954272 L172.683513839,219.013237064 L170.998796631,216.486161252 L173.525872443,212.274368231 Z" fill="#cee3f5" id="US.CA.101" stroke="#6e6e6e" stroke-width="0.4"><desc><name>Sutter County</name><stateAbbrev>CA</stateAbbrev><state>California</state><fips>101</fips><incits>06101</incits><id>US.CA.101</id><population>95350</population></desc></path><path d="M374.007220217,571.119133574 L374.849578821,566.064981949 L384.95788207,559.326113117 L393.381468111,559.326113117 L393.381468111,555.114320096 L395.908543923,555.114320096 L395.066185319,550.902527076 L388.327316486,536.582430806 L379.061371841,518.050541516 L380.746089049,515.523465704 L405.174488568,515.523465704 L438.868832732,515.523465704 L460.770156438,515.523465704 L460.770156438,533.21299639 L462.454873646,551.74488568 L459.927797834,560.168471721 L456.558363418,569.434416366 L454.031287605,569.434416366 L451.504211793,572.803850782 L453.188929001,574.48856799 L439.711191336,574.48856799 L439.711191336,577.858002407 L436.341756919,579.542719615 L434.657039711,581.227436823 L433.814681107,582.912154031 L432.129963899,586.281588448 L432.129963899,587.123947052 L430.445246691,588.80866426 L429.602888087,591.335740072 L422.02166065,592.178098676 L419.494584838,593.862815884 L415.282791817,593.862815884 L409.386281588,591.335740072 L406.859205776,589.651022864 L405.174488568,587.966305656 L405.174488568,584.596871239 L408.543922984,582.069795427 L402.647412756,574.48856799 L400.962695548,571.961492178 L389.16967509,571.961492178 L385.800240674,574.48856799 L382.430806258,574.48856799 L378.219013237,571.961492178 L374.007220217,571.119133574 M397.593261131,606.498194946 L401.805054152,606.498194946 L404.332129964,608.182912154 L413.598074609,610.709987966 L413.598074609,612.394705174 L416.967509025,615.764139591 L417.809867629,617.448856799 L416.125150421,618.291215403 L412.755716005,617.448856799 L409.386281588,617.448856799 L406.859205776,616.606498195 L405.174488568,614.079422383 L406.016847172,612.394705174 L405.174488568,610.709987966 L400.120336943,609.025270758 L397.593261131,606.498194946 M396.750902527,637.665463297 L398.435619735,635.980746089 L400.120336943,636.823104693 L401.805054152,639.350180505 L405.174488568,643.561973526 L414.440433213,651.143200963 L411.913357401,651.143200963 L410.228640193,651.985559567 L407.70156438,651.143200963 L404.332129964,648.61612515 L401.805054152,644.40433213 L399.277978339,641.034897714 L398.435619735,638.507821901 L396.750902527,637.665463297 Z" fill="#cee3f5" id="US.CA.037" stroke="#6e6e6e" stroke-width="0.4"><desc><name>Los Angeles County</name><stateAbbrev>CA</stateAbbrev><state>California</state><fips>037</fips><incits>06037</incits><id>US.CA.037</id><population>10017068</population></desc></path><path d="M281.347773767,442.238267148 L305.776173285,423.706377858 L305.776173285,408.543922984 L320.096269555,408.543922984 L323.465703971,406.859205776 L325.992779783,407.70156438 L331.889290012,402.647412756 L335.258724428,402.647412756 L335.258724428,408.543922984 L338.628158845,408.543922984 L338.628158845,417.809867629 L335.258724428,417.809867629 L335.258724428,426.23345367 L334.416365824,426.23345367 L334.416365824,449.819494585 L312.515042118,449.819494585 L289.771359807,449.819494585 L288.929001203,449.819494585 L288.086642599,448.134777377 L285.559566787,445.607701564 L286.401925391,443.922984356 L284.717208183,442.238267148 L281.347773767,442.238267148 Z" fill="#cee3f5" id="US.CA.031" stroke="#6e6e6e" stroke-width="0.4"><desc><name>Kings County</name><stateAbbrev>CA</stateAbbrev><state>California</state><fips>031</fips><incits>06031</incits><id>US.CA.031</id><population>150960</population></desc></path><path d="M303.249097473,228.279181709 L303.249097473,232.490974729 L309.145607702,237.545126354 L310.83032491,238.387484958 L311.672683514,241.756919374 L305.776173285,247.653429603 L298.194945848,252.707581227 L295.667870036,252.707581227 L293.983152828,256.919374248 L288.929001203,257.761732852 L287.244283995,260.288808664 L284.717208183,262.815884477 L281.347773767,263.658243081 L278.820697954,263.658243081 L268.712394705,265.342960289 L260.288808664,266.185318893 L256.919374248,265.342960289 L254.392298436,263.658243081 L248.495788207,262.815884477 L245.968712395,262.815884477 L243.441636582,264.500601685 L239.229843562,264.500601685 L233.333333333,266.185318893 L227.436823105,251.865222623 L225.752105897,251.865222623 L229.121540313,244.283995187 L231.648616125,242.599277978 L231.648616125,239.229843562 L238.387484958,236.70276775 L239.229843562,235.018050542 L244.283995187,235.860409146 L246.811070999,233.333333333 L251.865222623,232.490974729 L253.549939832,232.490974729 L258.604091456,235.860409146 L261.973525872,236.70276775 L265.342960289,238.387484958 L269.554753309,236.70276775 L271.239470517,234.175691937 L273.76654633,230.806257521 L280.505415162,230.806257521 L286.401925391,230.806257521 L290.613718412,230.806257521 L293.140794224,228.279181709 L303.249097473,228.279181709 Z" fill="#cee3f5" id="US.CA.017" stroke="#6e6e6e" stroke-width="0.4"><desc><name>El Dorado County</name><stateAbbrev>CA</stateAbbrev><state>California</state><fips>017</fips><incits>06017</incits><id>US.CA.017</id><population>181737</population></desc></path><path d="M464.981949458,615.764139591 L466.666666667,608.182912154 L469.193742479,608.182912154 L471.720818291,606.498194946 L471.720818291,604.813477738 L480.986762936,604.813477738 L480.986762936,605.655836342 L489.410348977,608.182912154 L489.410348977,609.867629362 L496.14921781,609.025270758 L507.099879663,609.867629362 L518.050541516,609.867629362 L553.429602888,609.867629362 L567.749699158,609.867629362 L568.592057762,633.453670277 L566.907340554,633.453670277 L566.907340554,651.143200963 L566.907340554,664.620938628 L524.789410349,667.990373045 L497.833935018,670.517448857 L491.937424789,670.517448857 L491.095066185,664.620938628 L486.883273165,663.778580024 L485.198555957,662.093862816 L484.356197353,659.566787004 L483.513838748,651.985559567 L482.671480144,649.458483755 L484.356197353,645.246690734 L480.986762936,633.453670277 L476.774969916,626.714801444 L470.878459687,620.818291215 L467.509025271,617.448856799 L464.981949458,615.764139591 Z" fill="#cee3f5" id="US.CA.073" stroke="#6e6e6e" stroke-width="0.4"><desc><name>San Diego County</name><stateAbbrev>CA</stateAbbrev><state>California</state><fips>073</fips><incits>06073</incits><id>US.CA.073</id><population>3211252</population></desc></path><path d="M64.861612515,29.4825511432 L76.6546329723,29.4825511432 L90.1323706378,29.4825511432 L96.8712394705,29.4825511432 L119.614921781,29.4825511432 L142.358604091,29.4825511432 L167.629362214,29.4825511432 L204.693140794,29.4825511432 L204.693140794,32.8519855596 L204.693140794,44.6450060168 L204.693140794,44.6450060168 L205.535499398,68.2310469314 L205.535499398,85.0782190132 L185.3188929,85.0782190132 L151.624548736,85.0782190132 L133.935018051,85.0782190132 L132.250300842,82.551143201 L133.935018051,74.12755716 L131.407942238,74.12755716 L129.72322503,72.4428399519 L128.038507822,74.9699157641 L124.669073406,74.9699157641 L123.826714801,76.6546329723 L120.457280385,78.3393501805 L118.772563177,80.8664259928 L115.403128761,81.7087845969 L112.876052948,83.3935018051 L106.97954272,83.3935018051 L104.452466907,85.0782190132 L101.925391095,90.1323706378 L101.925391095,91.817087846 L105.294825511,92.6594464501 L106.97954272,96.0288808664 L105.294825511,97.7135980746 L101.083032491,96.0288808664 L97.7135980746,96.8712394705 L96.0288808664,94.3441636582 L92.6594464501,92.6594464501 L85.9205776173,92.6594464501 L83.3935018051,91.817087846 L81.7087845969,89.2900120337 L78.3393501805,87.6052948255 L76.6546329723,86.7629362214 L74.9699157641,86.7629362214 L72.4428399519,85.0782190132 L69.0734055355,81.7087845969 L69.9157641396,80.0240673887 L68.2310469314,72.4428399519 L66.5463297232,71.6004813478 L55.59566787,71.6004813478 L58.1227436823,68.2310469314 L56.4380264741,61.4921780987 L53.0685920578,59.8074608905 L53.9109506619,57.2803850782 L51.3838748496,57.2803850782 L53.0685920578,54.7533092659 L53.0685920578,52.2262334537 L55.59566787,48.8567990373 L53.9109506619,47.1720818291 L53.0685920578,42.9602888087 L52.2262334537,41.2755716005 L54.7533092659,40.4332129964 L56.4380264741,37.06377858 L58.9651022864,37.9061371841 L59.8074608905,36.2214199759 L61.4921780987,36.2214199759 L64.019253911,32.8519855596 L63.1768953069,30.3249097473 L64.861612515,29.4825511432 Z" fill="#cee3f5" id="US.CA.093" stroke="#6e6e6e" stroke-width="0.4"><desc><name>Siskiyou County</name><stateAbbrev>CA</stateAbbrev><state>California</state><fips>093</fips><incits>06093</incits><id>US.CA.093</id><population>43799</population></desc></path><path d="M72.4428399519,85.0782190132 L74.9699157641,86.7629362214 L76.6546329723,86.7629362214 L78.3393501805,87.6052948255 L81.7087845969,89.2900120337 L83.3935018051,91.817087846 L85.9205776173,92.6594464501 L92.6594464501,92.6594464501 L96.0288808664,94.3441636582 L97.7135980746,96.8712394705 L101.083032491,96.0288808664 L105.294825511,97.7135980746 L106.97954272,96.0288808664 L105.294825511,92.6594464501 L101.925391095,91.817087846 L101.925391095,90.1323706378 L104.452466907,85.0782190132 L106.97954272,83.3935018051 L112.876052948,83.3935018051 L115.403128761,81.7087845969 L118.772563177,80.8664259928 L120.457280385,78.3393501805 L123.826714801,76.6546329723 L124.669073406,74.9699157641 L128.038507822,74.9699157641 L129.72322503,72.4428399519 L131.407942238,74.12755716 L133.935018051,74.12755716 L132.250300842,82.551143201 L133.935018051,85.0782190132 L137.304452467,86.7629362214 L137.304452467,90.1323706378 L132.250300842,91.817087846 L132.250300842,93.5018050542 L131.407942238,96.8712394705 L128.038507822,98.5559566787 L126.353790614,100.240673887 L127.196149218,104.452466907 L124.669073406,107.821901324 L122.984356197,109.506618532 L122.984356197,112.033694344 L118.772563177,115.403128761 L119.614921781,116.245487365 L117.930204573,119.614921781 L119.614921781,122.141997593 L120.457280385,126.353790614 L118.772563177,126.353790614 L115.403128761,127.196149218 L113.718411552,130.565583634 L110.348977136,131.407942238 L106.97954272,134.777376655 L104.452466907,136.462093863 L100.240673887,136.462093863 L96.8712394705,141.516245487 L95.1865222623,141.516245487 L96.0288808664,145.728038508 L96.8712394705,146.570397112 L101.083032491,148.25511432 L101.925391095,152.466907341 L101.083032491,154.993983153 L102.767749699,158.363417569 L103.610108303,160.890493381 L103.610108303,165.102286402 L104.452466907,166.78700361 L63.1768953069,166.78700361 L63.1768953069,165.102286402 L63.1768953069,143.200962696 L63.1768953069,115.403128761 L62.3345367028,108.664259928 L58.9651022864,105.294825511 L58.1227436823,103.610108303 L61.4921780987,101.925391095 L67.3886883273,102.767749699 L69.9157641396,101.083032491 L70.7581227437,97.7135980746 L72.4428399519,95.1865222623 L69.9157641396,90.9747292419 L70.7581227437,89.2900120337 L70.7581227437,86.7629362214 L72.4428399519,85.0782190132 Z" fill="#cee3f5" id="US.CA.105" stroke="#6e6e6e" stroke-width="0.4"><desc><name>Trinity County</name><stateAbbrev>CA</stateAbbrev><state>California</state><fips>105</fips><incits>06105</incits><id>US.CA.105</id><population>13448</population></desc></path><path d="M164.259927798,379.903730445 L180.264741276,378.219013237 L181.949458484,375.691937425 L185.3188929,374.007220217 L187.003610108,374.007220217 L192.057761733,374.849578821 L192.900120337,378.219013237 L196.269554753,379.903730445 L201.323706378,384.115523466 L203.008423586,384.115523466 L204.693140794,386.642599278 L202.166064982,387.484957882 L205.535499398,390.012033694 L208.062575211,390.854392298 L210.589651023,390.854392298 L213.959085439,394.223826715 L213.116726835,398.435619735 L216.486161252,401.805054152 L219.013237064,401.805054152 L222.38267148,405.174488568 L232.490974729,413.598074609 L232.490974729,416.967509025 L238.387484958,416.967509025 L240.91456077,414.440433213 L244.283995187,416.125150421 L248.495788207,418.652226233 L251.865222623,422.02166065 L254.392298436,422.02166065 L255.23465704,420.336943442 L254.392298436,417.809867629 L256.919374248,417.809867629 L256.919374248,418.652226233 L260.288808664,422.02166065 L257.761732852,424.548736462 L259.44645006,428.760529483 L262.815884477,429.602888087 L264.500601685,432.129963899 L270.397111913,434.657039711 L273.76654633,438.026474128 L275.451263538,437.184115523 L278.820697954,438.026474128 L281.347773767,442.238267148 L284.717208183,442.238267148 L286.401925391,443.922984356 L285.559566787,445.607701564 L288.086642599,448.134777377 L288.929001203,449.819494585 L255.23465704,449.819494585 L229.963898917,449.819494585 L205.535499398,449.819494585 L204.693140794,448.134777377 L200.481347774,444.76534296 L197.111913357,439.711191336 L193.742478941,438.026474128 L191.215403129,435.499398315 L189.530685921,431.287605295 L186.161251504,427.075812274 L183.634175692,424.548736462 L177.737665463,422.864019254 L176.052948255,421.179302046 L173.525872443,418.652226233 L170.156438026,416.125150421 L169.314079422,409.386281588 L167.629362214,404.332129964 L165.944645006,400.962695548 L166.78700361,399.277978339 L165.102286402,397.593261131 L165.102286402,395.066185319 L167.629362214,391.696750903 L164.259927798,379.903730445 Z" fill="#cee3f5" id="US.CA.053" stroke="#6e6e6e" stroke-width="0.4"><desc><name>Monterey County</name><stateAbbrev>CA</stateAbbrev><state>California</state><fips>053</fips><incits>06053</incits><id>US.CA.053</id><population>428826</population></desc></path><path d="M96.0288808664,145.728038508 L101.925391095,144.0433213 L105.294825511,144.0433213 L108.664259928,141.516245487 L110.348977136,141.516245487 L117.087845969,140.673886883 L123.826714801,143.200962696 L128.880866426,139.831528279 L132.250300842,138.989169675 L137.304452467,139.831528279 L146.570397112,139.831528279 L152.466907341,138.989169675 L159.205776173,138.146811071 L160.890493381,137.304452467 L167.629362214,136.462093863 L171.841155235,137.304452467 L176.052948255,135.619735259 L181.10709988,134.777376655 L187.003610108,134.777376655 L194.584837545,136.462093863 L197.111913357,134.777376655 L202.166064982,134.777376655 L203.008423586,136.462093863 L202.166064982,138.989169675 L203.85078219,141.516245487 L206.377858002,141.516245487 L209.747292419,142.358604091 L212.274368231,144.0433213 L210.589651023,150.782190132 L205.535499398,152.466907341 L205.535499398,154.993983153 L204.693140794,156.678700361 L203.008423586,156.678700361 L200.481347774,158.363417569 L195.427196149,158.363417569 L195.427196149,160.890493381 L192.900120337,162.57521059 L192.057761733,165.944645006 L187.845968712,165.944645006 L185.3188929,169.314079422 L184.476534296,170.998796631 L181.10709988,172.683513839 L165.944645006,172.683513839 L163.417569194,176.052948255 L164.259927798,178.580024067 L137.304452467,178.580024067 L111.19133574,178.580024067 L104.452466907,178.580024067 L102.767749699,175.210589651 L103.610108303,171.841155235 L105.294825511,170.998796631 L104.452466907,166.78700361 L103.610108303,165.102286402 L103.610108303,160.890493381 L102.767749699,158.363417569 L101.083032491,154.993983153 L101.925391095,152.466907341 L101.083032491,148.25511432 L96.8712394705,146.570397112 L96.0288808664,145.728038508 Z" fill="#cee3f5" id="US.CA.103" stroke="#6e6e6e" stroke-width="0.4"><desc><name>Tehama County</name><stateAbbrev>CA</stateAbbrev><state>California</state><fips>103</fips><incits>06103</incits><id>US.CA.103</id><population>63057</population></desc></path><path d="M126.353790614,313.357400722 L132.250300842,312.515042118 L133.935018051,312.515042118 L138.989169675,309.987966306 L138.146811071,304.933814681 L142.358604091,308.303249097 L144.0433213,313.357400722 L148.25511432,320.096269555 L128.880866426,320.096269555 L128.038507822,314.199759326 L126.353790614,313.357400722 M88.4476534296,315.884476534 L88.4476534296,314.199759326 L91.817087846,312.515042118 L95.1865222623,313.357400722 L97.7135980746,315.04211793 L100.240673887,315.884476534 L103.610108303,318.411552347 L104.452466907,320.938628159 L103.610108303,323.465703971 L100.240673887,324.308062575 L95.1865222623,322.623345367 L93.5018050542,320.096269555 L90.9747292419,319.253910951 L89.2900120337,317.569193742 L88.4476534296,315.884476534 Z" fill="#cee3f5" id="US.CA.075" stroke="#6e6e6e" stroke-width="0.4"><desc><name>San Francisco County</name><stateAbbrev>CA</stateAbbrev><state>California</state><fips>075</fips><incits>06075</incits><id>US.CA.075</id><population>837442</population></desc></path><path d="M266.185318893,364.741275572 L270.397111913,361.371841155 L275.451263538,360.529482551 L277.135980746,359.687123947 L279.663056558,359.687123947 L284.717208183,358.002406739 L287.244283995,357.160048135 L290.613718412,357.160048135 L295.667870036,357.160048135 L299.879663057,355.475330927 L319.253910951,339.470517449 L326.835138387,339.470517449 L326.835138387,336.943441637 L329.3622142,336.943441637 L329.3622142,334.416365824 L331.046931408,334.416365824 L331.046931408,330.204572804 L349.578820698,315.04211793 L352.948255114,318.411552347 L356.317689531,320.096269555 L357.160048135,318.411552347 L362.214199759,318.411552347 L366.42599278,321.780986763 L366.42599278,323.465703971 L368.953068592,325.992779783 L368.953068592,328.519855596 L349.578820698,344.524669073 L347.89410349,347.051744886 L348.736462094,351.263537906 L348.736462094,353.790613718 L344.524669073,358.002406739 L342.839951865,357.160048135 L339.470517449,358.002406739 L338.628158845,360.529482551 L335.258724428,358.844765343 L331.889290012,363.898916968 L329.3622142,363.056558363 L328.519855596,366.42599278 L323.465703971,367.268351384 L320.938628159,369.795427196 L320.938628159,371.480144404 L318.411552347,374.007220217 L317.569193742,375.691937425 L315.884476534,378.219013237 L310.83032491,378.219013237 L306.618531889,379.061371841 L302.406738869,379.903730445 L301.564380265,380.746089049 L298.194945848,379.903730445 L291.456077016,381.588447653 L290.613718412,383.273164862 L288.086642599,382.430806258 L285.559566787,383.273164862 L283.032490975,383.273164862 L279.663056558,382.430806258 L276.293622142,379.903730445 L272.924187726,377.376654633 L271.239470517,375.691937425 L272.081829122,374.007220217 L270.397111913,369.795427196 L266.185318893,364.741275572 Z" fill="#cee3f5" id="US.CA.039" stroke="#6e6e6e" stroke-width="0.4"><desc><name>Madera County</name><stateAbbrev>CA</stateAbbrev><state>California</state><fips>039</fips><incits>06039</incits><id>US.CA.039</id><population>152389</population></desc></path><path d="M23.5860409146,165.102286402 L31.1672683514,165.102286402 L63.1768953069,165.102286402 L63.1768953069,166.78700361 L104.452466907,166.78700361 L105.294825511,170.998796631 L103.610108303,171.841155235 L102.767749699,175.210589651 L104.452466907,178.580024067 L104.452466907,181.949458484 L106.137184116,181.949458484 L106.97954272,184.476534296 L107.821901324,193.742478941 L107.821901324,197.111913357 L104.452466907,197.954271961 L98.5559566787,197.954271961 L96.0288808664,198.796630566 L96.0288808664,202.166064982 L95.1865222623,205.535499398 L97.7135980746,208.062575211 L98.5559566787,210.589651023 L98.5559566787,213.959085439 L99.3983152828,215.643802647 L96.8712394705,220.697954272 L95.1865222623,220.697954272 L93.5018050542,227.436823105 L96.0288808664,228.279181709 L96.0288808664,231.648616125 L98.5559566787,233.333333333 L101.083032491,232.490974729 L101.925391095,236.70276775 L103.610108303,239.229843562 L106.137184116,239.229843562 L106.97954272,240.91456077 L112.033694344,242.599277978 L94.3441636582,242.599277978 L90.9747292419,243.441636582 L90.9747292419,245.968712395 L74.9699157641,245.968712395 L74.9699157641,247.653429603 L66.5463297232,247.653429603 L64.019253911,248.495788207 L57.2803850782,249.338146811 L51.3838748496,244.283995187 L49.6991576414,242.599277978 L47.1720818291,240.072202166 L45.4873646209,235.018050542 L46.329723225,233.333333333 L48.0144404332,232.490974729 L48.8567990373,229.963898917 L45.4873646209,223.225030084 L42.9602888087,220.697954272 L42.1179302046,217.328519856 L39.5908543923,209.747292419 L39.5908543923,202.166064982 L41.2755716005,197.954271961 L43.8026474128,195.427196149 L42.9602888087,193.742478941 L42.1179302046,187.003610108 L39.5908543923,184.476534296 L38.7484957882,178.580024067 L36.2214199759,177.737665463 L32.0096269555,171.841155235 L30.3249097473,169.314079422 L26.9554753309,166.78700361 L23.5860409146,165.102286402 Z" fill="#cee3f5" id="US.CA.045" stroke="#6e6e6e" stroke-width="0.4"><desc><name>Mendocino County</name><stateAbbrev>CA</stateAbbrev><state>California</state><fips>045</fips><incits>06045</incits><id>US.CA.045</id><population>87192</population></desc></path><path d="M233.333333333,266.185318893 L239.229843562,264.500601685 L243.441636582,264.500601685 L245.968712395,262.815884477 L248.495788207,262.815884477 L254.392298436,263.658243081 L256.919374248,265.342960289 L260.288808664,266.185318893 L268.712394705,265.342960289 L278.820697954,263.658243081 L281.347773767,263.658243081 L284.717208183,262.815884477 L287.244283995,260.288808664 L288.929001203,257.761732852 L293.983152828,256.919374248 L295.667870036,252.707581227 L298.194945848,252.707581227 L298.194945848,266.185318893 L294.825511432,267.027677497 L289.771359807,266.185318893 L284.717208183,267.870036101 L277.135980746,269.554753309 L274.608904934,268.712394705 L272.081829122,270.397111913 L269.554753309,269.554753309 L267.870036101,272.081829122 L261.973525872,273.76654633 L261.131167268,276.293622142 L258.604091456,277.97833935 L253.549939832,279.663056558 L245.968712395,282.190132371 L243.441636582,283.874849579 L237.545126354,285.559566787 L235.860409146,284.717208183 L233.333333333,279.663056558 L233.333333333,266.185318893 Z" fill="#cee3f5" id="US.CA.005" stroke="#6e6e6e" stroke-width="0.4"><desc><name>Amador County</name><stateAbbrev>CA</stateAbbrev><state>California</state><fips>005</fips><incits>06005</incits><id>US.CA.005</id><population>36519</population></desc></path><path d="M385.800240674,336.943441637 L425.391095066,336.943441637 L449.819494585,336.943441637 L477.61732852,357.160048135 L494.464500602,369.795427196 L518.89290012,388.327316486 L551.74488568,413.598074609 L579.542719615,434.657039711 L583.754512635,438.026474128 L597.232250301,448.977135981 L591.335740072,448.977135981 L591.335740072,449.819494585 L555.114320096,449.819494585 L539.951865223,449.819494585 L505.415162455,449.819494585 L481.82912154,449.819494585 L463.29723225,449.819494585 L443.080625752,448.977135981 L443.922984356,449.819494585 L438.026474128,449.819494585 L438.026474128,444.76534296 L439.711191336,443.080625752 L438.868832732,439.711191336 L437.184115523,438.026474128 L438.026474128,436.341756919 L436.341756919,434.657039711 L434.657039711,429.602888087 L433.814681107,429.602888087 L432.972322503,426.23345367 L433.814681107,423.706377858 L431.287605295,421.179302046 L429.602888087,416.967509025 L431.287605295,411.913357401 L430.445246691,411.913357401 L427.918170878,408.543922984 L427.918170878,406.016847172 L424.548736462,406.859205776 L423.706377858,405.174488568 L421.179302046,402.647412756 L422.02166065,400.120336943 L420.336943442,398.435619735 L418.652226233,397.593261131 L418.652226233,395.908543923 L416.967509025,392.539109507 L413.598074609,388.327316486 L416.125150421,388.327316486 L415.282791817,386.642599278 L413.598074609,384.95788207 L412.755716005,381.588447653 L411.913357401,379.061371841 L413.598074609,378.219013237 L413.598074609,375.691937425 L412.755716005,372.322503008 L410.228640193,368.110709988 L408.543922984,363.898916968 L405.174488568,363.056558363 L401.805054152,360.529482551 L400.120336943,360.529482551 L398.435619735,358.844765343 L394.223826715,358.844765343 L392.539109507,356.317689531 L392.539109507,351.263537906 L393.381468111,350.421179302 L390.012033694,346.209386282 L388.327316486,347.051744886 L384.95788207,344.524669073 L386.642599278,342.839951865 L384.95788207,341.155234657 L386.642599278,337.785800241 L385.800240674,336.943441637 Z" fill="#cee3f5" id="US.CA.027" stroke="#6e6e6e" stroke-width="0.4"><desc><name>Inyo County</name><stateAbbrev>CA</stateAbbrev><state>California</state><fips>027</fips><incits>06027</incits><id>US.CA.027</id><population>18467</population></desc></path><path d="M240.91456077,385.800240674 L258.604091456,371.480144404 L262.815884477,371.480144404 L262.815884477,368.110709988 L266.185318893,364.741275572 L270.397111913,369.795427196 L272.081829122,374.007220217 L271.239470517,375.691937425 L272.924187726,377.376654633 L276.293622142,379.903730445 L279.663056558,382.430806258 L283.032490975,383.273164862 L285.559566787,383.273164862 L288.086642599,382.430806258 L290.613718412,383.273164862 L291.456077016,381.588447653 L298.194945848,379.903730445 L301.564380265,380.746089049 L302.406738869,379.903730445 L306.618531889,379.061371841 L310.83032491,378.219013237 L315.884476534,378.219013237 L317.569193742,375.691937425 L318.411552347,374.007220217 L320.938628159,371.480144404 L320.938628159,369.795427196 L323.465703971,367.268351384 L328.519855596,366.42599278 L329.3622142,363.056558363 L331.889290012,363.898916968 L335.258724428,358.844765343 L338.628158845,360.529482551 L339.470517449,358.002406739 L342.839951865,357.160048135 L344.524669073,358.002406739 L348.736462094,353.790613718 L348.736462094,351.263537906 L347.89410349,347.051744886 L349.578820698,344.524669073 L368.953068592,328.519855596 L370.6377858,329.3622142 L376.534296029,331.046931408 L379.903730445,333.57400722 L380.746089049,336.101083032 L384.115523466,335.258724428 L385.800240674,336.943441637 L386.642599278,337.785800241 L384.95788207,341.155234657 L386.642599278,342.839951865 L384.95788207,344.524669073 L388.327316486,347.051744886 L390.012033694,346.209386282 L393.381468111,350.421179302 L392.539109507,351.263537906 L392.539109507,356.317689531 L394.223826715,358.844765343 L398.435619735,358.844765343 L400.120336943,360.529482551 L401.805054152,360.529482551 L405.174488568,363.056558363 L408.543922984,363.898916968 L410.228640193,368.110709988 L412.755716005,372.322503008 L413.598074609,375.691937425 L413.598074609,378.219013237 L411.913357401,379.061371841 L412.755716005,381.588447653 L413.598074609,384.95788207 L408.543922984,384.95788207 L400.962695548,384.95788207 L400.962695548,385.800240674 L388.327316486,385.800240674 L371.480144404,385.800240674 L371.480144404,390.854392298 L350.421179302,390.854392298 L350.421179302,396.750902527 L339.470517449,396.750902527 L331.889290012,402.647412756 L325.992779783,407.70156438 L323.465703971,406.859205776 L320.096269555,408.543922984 L305.776173285,408.543922984 L305.776173285,423.706377858 L281.347773767,442.238267148 L278.820697954,438.026474128 L275.451263538,437.184115523 L273.76654633,438.026474128 L270.397111913,434.657039711 L264.500601685,432.129963899 L262.815884477,429.602888087 L259.44645006,428.760529483 L257.761732852,424.548736462 L260.288808664,422.02166065 L256.919374248,418.652226233 L256.919374248,417.809867629 L256.919374248,416.125150421 L257.761732852,414.440433213 L262.815884477,413.598074609 L262.815884477,402.647412756 L261.973525872,402.647412756 L240.91456077,385.800240674 Z" fill="#cee3f5" id="US.CA.019" stroke="#6e6e6e" stroke-width="0.4"><desc><name>Fresno County</name><stateAbbrev>CA</stateAbbrev><state>California</state><fips>019</fips><incits>06019</incits><id>US.CA.019</id><population>955272</population></desc></path><path d="M104.452466907,178.580024067 L111.19133574,178.580024067 L137.304452467,178.580024067 L164.259927798,178.580024067 L168.471720818,182.791817088 L170.998796631,183.634175692 L171.841155235,185.3188929 L169.314079422,187.003610108 L170.156438026,188.688327316 L167.629362214,192.057761733 L167.629362214,195.427196149 L169.314079422,197.111913357 L170.998796631,196.269554753 L177.737665463,196.269554753 L176.052948255,197.954271961 L176.052948255,202.166064982 L175.210589651,206.377858002 L167.629362214,206.377858002 L166.78700361,204.693140794 L158.363417569,204.693140794 L158.363417569,206.377858002 L138.146811071,206.377858002 L128.880866426,206.377858002 L117.930204573,206.377858002 L117.930204573,202.166064982 L117.930204573,193.742478941 L107.821901324,193.742478941 L106.97954272,184.476534296 L106.137184116,181.949458484 L104.452466907,181.949458484 L104.452466907,178.580024067 Z" fill="#cee3f5" id="US.CA.021" stroke="#6e6e6e" stroke-width="0.4"><desc><name>Glenn County</name><stateAbbrev>CA</stateAbbrev><state>California</state><fips>021</fips><incits>06021</incits><id>US.CA.021</id><population>27940</population></desc></path><path d="M289.771359807,449.819494585 L312.515042118,449.819494585 L334.416365824,449.819494585 L371.480144404,449.819494585 L400.120336943,449.819494585 L406.859205776,449.819494585 L413.598074609,449.819494585 L438.026474128,449.819494585 L443.922984356,449.819494585 L443.080625752,448.977135981 L463.29723225,449.819494585 L463.29723225,455.716004813 L461.612515042,457.400722022 L463.29723225,459.08543923 L463.29723225,480.144404332 L463.29723225,496.991576414 L463.29723225,497.833935018 L463.29723225,515.523465704 L460.770156438,515.523465704 L438.868832732,515.523465704 L405.174488568,515.523465704 L380.746089049,515.523465704 L379.061371841,518.050541516 L372.322503008,517.208182912 L372.322503008,516.365824308 L354.632972323,515.523465704 L354.632972323,512.996389892 L352.10589651,512.154031288 L344.524669073,512.154031288 L344.524669073,510.469314079 L340.312876053,509.626955475 L338.628158845,509.626955475 L338.628158845,497.833935018 L337.785800241,496.991576414 L332.731648616,497.833935018 L333.57400722,491.095066185 L325.150421179,491.937424789 L325.992779783,485.198555957 L315.884476534,485.198555957 L315.884476534,479.302045728 L310.83032491,479.302045728 L310.83032491,473.405535499 L303.249097473,473.405535499 L303.249097473,471.720818291 L298.194945848,467.509025271 L297.352587244,467.509025271 L297.352587244,461.612515042 L289.771359807,461.612515042 L289.771359807,449.819494585 Z" fill="#cee3f5" id="US.CA.029" stroke="#6e6e6e" stroke-width="0.4"><desc><name>Kern County</name><stateAbbrev>CA</stateAbbrev><state>California</state><fips>029</fips><incits>06029</incits><id>US.CA.029</id><population>864124</population></desc></path><path d="M679.783393502,565.222623345 L678.941034898,570.27677497 L673.044524669,575.330926594 L674.729241877,577.015643803 L674.729241877,579.542719615 L673.044524669,580.385078219 L673.044524669,583.754512635 L674.729241877,587.123947052 L674.729241877,588.80866426 L674.729241877,591.335740072 L673.044524669,592.178098676 L673.044524669,594.705174489 L673.886883273,597.232250301 L672.202166065,598.916967509 L673.886883273,601.444043321 L671.359807461,602.286401925 L667.14801444,607.34055355 L666.305655836,609.025270758 L652.827918171,609.867629362 L637.665463297,609.867629362 L609.867629362,609.867629362 L584.596871239,609.867629362 L567.749699158,609.867629362 L553.429602888,609.867629362 L518.050541516,609.867629362 L507.099879663,609.867629362 L496.14921781,609.025270758 L489.410348977,609.867629362 L489.410348977,608.182912154 L480.986762936,605.655836342 L480.986762936,604.813477738 L471.720818291,604.813477738 L471.720818291,602.286401925 L478.459687124,593.862815884 L474.247894103,591.335740072 L470.036101083,590.493381468 L470.036101083,587.123947052 L466.666666667,587.123947052 L460.770156438,579.542719615 L461.612515042,578.700361011 L461.612515042,576.173285199 L464.981949458,576.173285199 L464.981949458,572.803850782 L468.351383875,571.961492178 L468.351383875,568.592057762 L480.986762936,568.592057762 L480.986762936,569.434416366 L491.095066185,569.434416366 L491.095066185,571.119133574 L510.469314079,570.27677497 L510.469314079,568.592057762 L534.055354994,568.592057762 L553.429602888,568.592057762 L574.48856799,568.592057762 L619.975932611,568.592057762 L619.975932611,566.064981949 L632.611311673,565.222623345 L657.882069795,566.064981949 L679.783393502,565.222623345 Z" fill="#cee3f5" id="US.CA.065" stroke="#6e6e6e" stroke-width="0.4"><desc><name>Riverside County</name><stateAbbrev>CA</stateAbbrev><state>California</state><fips>065</fips><incits>06065</incits><id>US.CA.065</id><population>2292507</population></desc></path><path d="M205.535499398,449.819494585 L229.963898917,449.819494585 L255.23465704,449.819494585 L288.929001203,449.819494585 L289.771359807,449.819494585 L289.771359807,461.612515042 L297.352587244,461.612515042 L297.352587244,467.509025271 L298.194945848,467.509025271 L303.249097473,471.720818291 L303.249097473,473.405535499 L310.83032491,473.405535499 L310.83032491,479.302045728 L315.884476534,479.302045728 L315.884476534,485.198555957 L325.992779783,485.198555957 L325.150421179,491.937424789 L333.57400722,491.095066185 L332.731648616,497.833935018 L337.785800241,496.991576414 L338.628158845,497.833935018 L338.628158845,509.626955475 L334.416365824,510.469314079 L329.3622142,507.099879663 L325.150421179,505.415162455 L320.096269555,505.415162455 L314.199759326,502.888086643 L312.515042118,501.203369434 L309.987966306,500.36101083 L308.303249097,499.518652226 L303.249097473,498.676293622 L302.406738869,497.833935018 L299.037304452,496.991576414 L296.51022864,495.306859206 L293.140794224,496.991576414 L291.456077016,498.676293622 L290.613718412,501.203369434 L283.032490975,502.045728039 L280.505415162,503.730445247 L282.190132371,505.415162455 L283.032490975,507.942238267 L283.032490975,509.626955475 L277.97833935,506.257521059 L273.76654633,504.572803851 L269.554753309,503.730445247 L264.500601685,504.572803851 L260.288808664,506.257521059 L255.23465704,503.730445247 L256.077015644,496.991576414 L253.549939832,495.306859206 L248.495788207,495.306859206 L245.968712395,493.622141998 L240.91456077,491.095066185 L238.387484958,486.883273165 L238.387484958,483.513838748 L240.91456077,480.144404332 L240.072202166,476.774969916 L232.490974729,475.090252708 L224.909747292,468.351383875 L221.540312876,464.139590854 L213.116726835,460.770156438 L210.589651023,457.400722022 L208.062575211,451.504211793 L205.535499398,449.819494585 Z" fill="#cee3f5" id="US.CA.079" stroke="#6e6e6e" stroke-width="0.4"><desc><name>San Luis Obispo County</name><stateAbbrev>CA</stateAbbrev><state>California</state><fips>079</fips><incits>06079</incits><id>US.CA.079</id><population>276443</population></desc></path><path d="M298.194945848,266.185318893 L298.194945848,252.707581227 L305.776173285,247.653429603 L311.672683514,241.756919374 L310.83032491,238.387484958 L309.145607702,237.545126354 L331.046931408,251.865222623 L329.3622142,255.23465704 L328.519855596,258.604091456 L330.204572804,260.288808664 L334.416365824,267.870036101 L331.889290012,271.239470517 L332.731648616,272.924187726 L328.519855596,273.76654633 L329.3622142,275.451263538 L327.677496992,277.97833935 L323.465703971,275.451263538 L323.465703971,272.924187726 L320.096269555,272.081829122 L316.726835138,272.924187726 L310.83032491,276.293622142 L301.564380265,271.239470517 L299.037304452,269.554753309 L298.194945848,266.185318893 Z" fill="#cee3f5" id="US.CA.003" stroke="#6e6e6e" stroke-width="0.4"><desc><name>Alpine County</name><stateAbbrev>CA</stateAbbrev><state>California</state><fips>003</fips><incits>06003</incits><id>US.CA.003</id><population>1159</population></desc></path><path d="M128.880866426,320.096269555 L148.25511432,320.096269555 L160.048134777,334.416365824 L162.57521059,336.101083032 L160.890493381,336.943441637 L156.678700361,336.943441637 L154.993983153,338.628158845 L154.993983153,341.155234657 L154.151624549,343.682310469 L154.993983153,347.051744886 L157.521058965,348.736462094 L157.521058965,353.790613718 L150.782190132,353.790613718 L150.782190132,355.475330927 L146.570397112,355.475330927 L146.570397112,358.002406739 L148.25511432,360.529482551 L146.570397112,364.741275572 L142.358604091,363.898916968 L140.673886883,360.529482551 L137.304452467,358.002406739 L136.462093863,356.317689531 L134.777376655,351.263537906 L136.462093863,344.524669073 L133.935018051,340.312876053 L133.092659446,337.785800241 L130.565583634,336.943441637 L128.880866426,334.416365824 L128.038507822,327.677496992 L129.72322503,325.150421179 L128.880866426,320.096269555 Z" fill="#cee3f5" id="US.CA.081" stroke="#6e6e6e" stroke-width="0.4"><desc><name>San Mateo County</name><stateAbbrev>CA</stateAbbrev><state>California</state><fips>081</fips><incits>06081</incits><id>US.CA.081</id><population>747373</population></desc></path><path d="M142.358604091,308.303249097 L149.939831528,306.618531889 L154.993983153,311.672683514 L158.363417569,313.357400722 L164.259927798,314.199759326 L167.629362214,316.726835138 L166.78700361,317.569193742 L170.156438026,319.253910951 L197.954271961,312.515042118 L197.954271961,331.046931408 L201.323706378,332.731648616 L203.85078219,335.258724428 L176.895306859,335.258724428 L172.683513839,336.943441637 L171.841155235,336.943441637 L167.629362214,336.101083032 L164.259927798,336.943441637 L162.57521059,336.101083032 L160.048134777,334.416365824 L148.25511432,320.096269555 L144.0433213,313.357400722 L142.358604091,308.303249097 Z" fill="#cee3f5" id="US.CA.001" stroke="#6e6e6e" stroke-width="0.4"><desc><name>Alameda County</name><stateAbbrev>CA</stateAbbrev><state>California</state><fips>001</fips><incits>06001</incits><id>US.CA.001</id><population>1578891</population></desc></path><path d="M192.057761733,374.849578821 L192.900120337,374.007220217 L196.269554753,374.849578821 L200.481347774,371.480144404 L202.166064982,368.953068592 L205.535499398,369.795427196 L207.220216606,370.6377858 L220.697954272,370.6377858 L219.855595668,373.164861613 L223.225030084,374.007220217 L225.752105897,379.061371841 L240.072202166,384.95788207 L240.91456077,385.800240674 L261.973525872,402.647412756 L262.815884477,402.647412756 L262.815884477,413.598074609 L257.761732852,414.440433213 L256.919374248,416.125150421 L256.919374248,417.809867629 L254.392298436,417.809867629 L255.23465704,420.336943442 L254.392298436,422.02166065 L251.865222623,422.02166065 L248.495788207,418.652226233 L244.283995187,416.125150421 L240.91456077,414.440433213 L238.387484958,416.967509025 L232.490974729,416.967509025 L232.490974729,413.598074609 L222.38267148,405.174488568 L219.013237064,401.805054152 L216.486161252,401.805054152 L213.116726835,398.435619735 L213.959085439,394.223826715 L210.589651023,390.854392298 L208.062575211,390.854392298 L205.535499398,390.012033694 L202.166064982,387.484957882 L204.693140794,386.642599278 L203.008423586,384.115523466 L201.323706378,384.115523466 L196.269554753,379.903730445 L192.900120337,378.219013237 L192.057761733,374.849578821 Z" fill="#cee3f5" id="US.CA.069" stroke="#6e6e6e" stroke-width="0.4"><desc><name>San Benito County</name><stateAbbrev>CA</stateAbbrev><state>California</state><fips>069</fips><incits>06069</incits><id>US.CA.069</id><population>57600</population></desc></path><path d="M162.57521059,336.101083032 L164.259927798,336.943441637 L167.629362214,336.101083032 L171.841155235,336.943441637 L172.683513839,336.943441637 L176.895306859,335.258724428 L203.85078219,335.258724428 L203.008423586,336.943441637 L203.85078219,338.628158845 L204.693140794,341.155234657 L207.220216606,341.997593261 L206.377858002,343.682310469 L208.062575211,347.051744886 L204.693140794,348.736462094 L204.693140794,351.263537906 L206.377858002,352.948255114 L208.062575211,357.160048135 L210.589651023,355.475330927 L213.116726835,356.317689531 L219.013237064,357.160048135 L219.855595668,358.844765343 L219.855595668,361.371841155 L221.540312876,363.898916968 L219.013237064,366.42599278 L219.855595668,368.110709988 L219.013237064,369.795427196 L220.697954272,370.6377858 L207.220216606,370.6377858 L205.535499398,369.795427196 L202.166064982,368.953068592 L200.481347774,371.480144404 L196.269554753,374.849578821 L196.269554753,373.164861613 L188.688327316,369.795427196 L187.003610108,367.268351384 L184.476534296,364.741275572 L180.264741276,363.056558363 L179.422382671,362.214199759 L173.525872443,360.529482551 L168.471720818,358.002406739 L165.944645006,356.317689531 L165.944645006,355.475330927 L161.732851986,352.948255114 L157.521058965,348.736462094 L154.993983153,347.051744886 L154.151624549,343.682310469 L154.993983153,341.155234657 L154.993983153,338.628158845 L156.678700361,336.943441637 L160.890493381,336.943441637 L162.57521059,336.101083032 Z" fill="#cee3f5" id="US.CA.085" stroke="#6e6e6e" stroke-width="0.4"><desc><name>Santa Clara County</name><stateAbbrev>CA</stateAbbrev><state>California</state><fips>085</fips><incits>06085</incits><id>US.CA.085</id><population>1862041</population></desc></path><path d="M107.821901324,193.742478941 L117.930204573,193.742478941 L117.930204573,202.166064982 L117.930204573,206.377858002 L117.930204573,208.062575211 L115.403128761,211.432009627 L116.245487365,213.116726835 L120.457280385,215.643802647 L122.984356197,218.17087846 L124.669073406,217.328519856 L128.880866426,219.013237064 L133.092659446,218.17087846 L135.619735259,223.225030084 L133.935018051,224.909747292 L134.777376655,227.436823105 L138.146811071,230.806257521 L139.831528279,231.648616125 L139.831528279,235.018050542 L144.885679904,237.545126354 L140.673886883,237.545126354 L138.989169675,239.229843562 L140.673886883,241.756919374 L142.358604091,245.126353791 L139.831528279,247.653429603 L136.462093863,252.707581227 L125.51143201,255.23465704 L123.826714801,252.707581227 L121.299638989,251.865222623 L119.614921781,249.338146811 L117.087845969,246.811070999 L117.087845969,245.968712395 L112.033694344,242.599277978 L106.97954272,240.91456077 L106.137184116,239.229843562 L103.610108303,239.229843562 L101.925391095,236.70276775 L101.083032491,232.490974729 L98.5559566787,233.333333333 L96.0288808664,231.648616125 L96.0288808664,228.279181709 L93.5018050542,227.436823105 L95.1865222623,220.697954272 L96.8712394705,220.697954272 L99.3983152828,215.643802647 L98.5559566787,213.959085439 L98.5559566787,210.589651023 L97.7135980746,208.062575211 L95.1865222623,205.535499398 L96.0288808664,202.166064982 L96.0288808664,198.796630566 L98.5559566787,197.954271961 L104.452466907,197.954271961 L107.821901324,197.111913357 L107.821901324,193.742478941 Z" fill="#cee3f5" id="US.CA.033" stroke="#6e6e6e" stroke-width="0.4"><desc><name>Lake County</name><stateAbbrev>CA</stateAbbrev><state>California</state><fips>033</fips><incits>06033</incits><id>US.CA.033</id><population>63860</population></desc></path><path d="M64.861612515,29.4825511432 L63.1768953069,30.3249097473 L64.019253911,32.8519855596 L61.4921780987,36.2214199759 L59.8074608905,36.2214199759 L58.9651022864,37.9061371841 L56.4380264741,37.06377858 L54.7533092659,40.4332129964 L52.2262334537,41.2755716005 L53.0685920578,42.9602888087 L53.9109506619,47.1720818291 L55.59566787,48.8567990373 L53.0685920578,52.2262334537 L53.0685920578,54.7533092659 L51.3838748496,57.2803850782 L53.9109506619,57.2803850782 L53.0685920578,59.8074608905 L56.4380264741,61.4921780987 L58.1227436823,68.2310469314 L55.59566787,71.6004813478 L48.0144404332,71.6004813478 L48.0144404332,65.7039711191 L22.7436823105,65.7039711191 L21.9013237064,60.6498194946 L19.3742478941,58.1227436823 L19.3742478941,56.4380264741 L17.6895306859,53.9109506619 L17.6895306859,51.3838748496 L10.1083032491,48.0144404332 L5.05415162455,44.6450060168 L2.52707581227,41.2755716005 L3.36943441637,39.5908543923 L4.21179302046,37.9061371841 L7.58122743682,37.06377858 L10.9506618532,39.5908543923 L13.4777376655,39.5908543923 L13.4777376655,36.2214199759 L12.6353790614,35.3790613718 L13.4777376655,32.8519855596 L11.7930204573,30.3249097473 L17.6895306859,29.4825511432 L32.0096269555,30.3249097473 L50.5415162455,30.3249097473 L64.861612515,29.4825511432 Z" fill="#cee3f5" id="US.CA.015" stroke="#6e6e6e" stroke-width="0.4"><desc><name>Del Norte County</name><stateAbbrev>CA</stateAbbrev><state>California</state><fips>015</fips><incits>06015</incits><id>US.CA.015</id><population>27873</population></desc></path><path d="M219.855595668,358.844765343 L235.860409146,346.209386282 L236.70276775,344.524669073 L236.70276775,341.155234657 L277.135980746,325.150421179 L283.874849579,336.943441637 L283.874849579,338.628158845 L284.717208183,341.155234657 L290.613718412,347.89410349 L290.613718412,350.421179302 L293.140794224,352.10589651 L297.352587244,352.948255114 L299.879663057,355.475330927 L295.667870036,357.160048135 L290.613718412,357.160048135 L287.244283995,357.160048135 L284.717208183,358.002406739 L279.663056558,359.687123947 L277.135980746,359.687123947 L275.451263538,360.529482551 L270.397111913,361.371841155 L266.185318893,364.741275572 L262.815884477,368.110709988 L262.815884477,371.480144404 L258.604091456,371.480144404 L240.91456077,385.800240674 L240.072202166,384.95788207 L225.752105897,379.061371841 L223.225030084,374.007220217 L219.855595668,373.164861613 L220.697954272,370.6377858 L219.013237064,369.795427196 L219.855595668,368.110709988 L219.013237064,366.42599278 L221.540312876,363.898916968 L219.855595668,361.371841155 L219.855595668,358.844765343 Z" fill="#cee3f5" id="US.CA.047" stroke="#6e6e6e" stroke-width="0.4"><desc><name>Merced County</name><stateAbbrev>CA</stateAbbrev><state>California</state><fips>047</fips><incits>06047</incits><id>US.CA.047</id><population>263228</population></desc></path><path d="M336.943441637,549.217809868 L338.628158845,545.848375451 L340.312876053,544.163658243 L341.155234657,539.951865223 L340.312876053,509.626955475 L344.524669073,510.469314079 L344.524669073,512.154031288 L352.10589651,512.154031288 L354.632972323,512.996389892 L354.632972323,515.523465704 L372.322503008,516.365824308 L372.322503008,517.208182912 L379.061371841,518.050541516 L388.327316486,536.582430806 L395.066185319,550.902527076 L395.908543923,555.114320096 L393.381468111,555.114320096 L393.381468111,559.326113117 L384.95788207,559.326113117 L374.849578821,566.064981949 L374.007220217,571.119133574 L368.953068592,570.27677497 L359.687123947,568.592057762 L356.317689531,566.907340554 L351.263537906,561.853188929 L347.89410349,555.114320096 L345.367027677,554.271961492 L343.682310469,552.587244284 L339.470517449,550.902527076 L336.943441637,549.217809868 Z" fill="#cee3f5" id="US.CA.111" stroke="#6e6e6e" stroke-width="0.4"><desc><name>Ventura County</name><stateAbbrev>CA</stateAbbrev><state>California</state><fips>111</fips><incits>06111</incits><id>US.CA.111</id><population>839620</population></desc></path><path d="M204.693140794,29.4825511432 L224.909747292,30.3249097473 L233.333333333,30.3249097473 L283.874849579,30.3249097473 L303.249097473,30.3249097473 L303.249097473,63.1768953069 L303.249097473,85.0782190132 L277.97833935,85.0782190132 L254.392298436,85.0782190132 L213.116726835,85.0782190132 L205.535499398,85.0782190132 L205.535499398,68.2310469314 L204.693140794,44.6450060168 L204.693140794,44.6450060168 L204.693140794,32.8519855596 L204.693140794,29.4825511432 Z" fill="#cee3f5" id="US.CA.049" stroke="#6e6e6e" stroke-width="0.4"><desc><name>Modoc County</name><stateAbbrev>CA</stateAbbrev><state>California</state><fips>049</fips><incits>06049</incits><id>US.CA.049</id><population>9147</population></desc></path><path d="M144.885679904,237.545126354 L165.944645006,237.545126354 L178.580024067,237.545126354 L181.10709988,239.229843562 L180.264741276,240.91456077 L186.161251504,242.599277978 L186.161251504,245.968712395 L188.688327316,246.811070999 L188.688327316,248.495788207 L195.427196149,248.495788207 L194.584837545,250.180505415 L192.900120337,253.549939832 L192.900120337,254.392298436 L194.584837545,256.919374248 L197.111913357,256.919374248 L197.954271961,259.44645006 L201.323706378,260.288808664 L200.481347774,263.658243081 L197.954271961,265.342960289 L198.796630566,267.870036101 L201.323706378,268.712394705 L201.323706378,270.397111913 L199.63898917,271.239470517 L200.481347774,272.924187726 L200.481347774,275.451263538 L195.427196149,278.820697954 L188.688327316,278.820697954 L188.688327316,264.500601685 L184.476534296,263.658243081 L180.264741276,264.500601685 L176.895306859,263.658243081 L171.841155235,264.500601685 L166.78700361,267.027677497 L164.259927798,265.342960289 L160.890493381,265.342960289 L158.363417569,259.44645006 L156.678700361,256.077015644 L153.309265945,253.549939832 L151.624548736,250.180505415 L148.25511432,243.441636582 L144.0433213,243.441636582 L140.673886883,241.756919374 L138.989169675,239.229843562 L140.673886883,237.545126354 L144.885679904,237.545126354 Z" fill="#cee3f5" id="US.CA.113" stroke="#6e6e6e" stroke-width="0.4"><desc><name>Yolo County</name><stateAbbrev>CA</stateAbbrev><state>California</state><fips>113</fips><incits>06113</incits><id>US.CA.113</id><population>204593</population></desc></path><path d="M205.535499398,154.993983153 L208.062575211,154.993983153 L208.062575211,157.521058965 L209.747292419,157.521058965 L209.747292419,161.732851986 L207.220216606,164.259927798 L207.220216606,170.156438026 L207.220216606,173.525872443 L210.589651023,175.210589651 L213.959085439,178.580024067 L218.17087846,181.949458484 L221.540312876,185.3188929 L224.909747292,187.845968712 L225.752105897,190.373044525 L229.121540313,190.373044525 L229.963898917,192.057761733 L228.279181709,194.584837545 L224.909747292,195.427196149 L224.909747292,197.111913357 L219.013237064,197.111913357 L214.801444043,197.954271961 L213.959085439,200.481347774 L212.274368231,201.323706378 L209.747292419,208.062575211 L208.062575211,209.747292419 L202.166064982,211.432009627 L199.63898917,211.432009627 L197.111913357,212.274368231 L193.742478941,211.432009627 L192.900120337,212.274368231 L192.900120337,212.274368231 L173.525872443,212.274368231 L175.210589651,206.377858002 L176.052948255,202.166064982 L176.052948255,197.954271961 L177.737665463,196.269554753 L170.998796631,196.269554753 L169.314079422,197.111913357 L167.629362214,195.427196149 L167.629362214,192.057761733 L170.156438026,188.688327316 L169.314079422,187.003610108 L171.841155235,185.3188929 L170.998796631,183.634175692 L168.471720818,182.791817088 L164.259927798,178.580024067 L163.417569194,176.052948255 L165.944645006,172.683513839 L181.10709988,172.683513839 L184.476534296,170.998796631 L185.3188929,169.314079422 L187.845968712,165.944645006 L192.057761733,165.944645006 L192.900120337,162.57521059 L195.427196149,160.890493381 L195.427196149,158.363417569 L200.481347774,158.363417569 L203.008423586,156.678700361 L204.693140794,156.678700361 L205.535499398,154.993983153 Z" fill="#cee3f5" id="US.CA.007" stroke="#6e6e6e" stroke-width="0.4"><desc><name>Butte County</name><stateAbbrev>CA</stateAbbrev><state>California</state><fips>007</fips><incits>06007</incits><id>US.CA.007</id><population>222090</population></desc></path><path d="M460.770156438,515.523465704 L463.29723225,515.523465704 L463.29723225,497.833935018 L463.29723225,496.991576414 L463.29723225,480.144404332 L463.29723225,459.08543923 L461.612515042,457.400722022 L463.29723225,455.716004813 L463.29723225,449.819494585 L481.82912154,449.819494585 L505.415162455,449.819494585 L539.951865223,449.819494585 L555.114320096,449.819494585 L591.335740072,449.819494585 L591.335740072,448.977135981 L597.232250301,448.977135981 L614.921780987,462.454873646 L641.034897714,483.513838748 L666.305655836,502.888086643 L666.305655836,507.099879663 L666.305655836,512.154031288 L668.832731649,513.838748496 L671.359807461,518.89290012 L674.729241877,521.419975933 L677.25631769,523.104693141 L678.941034898,527.316486161 L679.783393502,530.685920578 L681.46811071,532.370637786 L683.152827918,536.582430806 L683.152827918,539.951865223 L685.67990373,540.794223827 L690.734055355,544.163658243 L693.261131167,545.848375451 L697.472924188,547.533092659 L700.0,550.060168472 L700.0,553.429602888 L697.472924188,553.429602888 L694.103489771,557.641395909 L689.891696751,559.326113117 L686.522262335,561.853188929 L680.625752106,563.537906137 L679.783393502,565.222623345 L657.882069795,566.064981949 L632.611311673,565.222623345 L619.975932611,566.064981949 L619.975932611,568.592057762 L574.48856799,568.592057762 L553.429602888,568.592057762 L534.055354994,568.592057762 L510.469314079,568.592057762 L510.469314079,570.27677497 L491.095066185,571.119133574 L491.095066185,569.434416366 L480.986762936,569.434416366 L480.986762936,568.592057762 L468.351383875,568.592057762 L468.351383875,571.961492178 L464.981949458,572.803850782 L464.981949458,576.173285199 L461.612515042,576.173285199 L461.612515042,578.700361011 L460.770156438,579.542719615 L453.188929001,574.48856799 L451.504211793,572.803850782 L454.031287605,569.434416366 L456.558363418,569.434416366 L459.927797834,560.168471721 L462.454873646,551.74488568 L460.770156438,533.21299639 L460.770156438,515.523465704 Z" fill="#cee3f5" id="US.CA.071" stroke="#6e6e6e" stroke-width="0.4"><desc><name>San Bernardino County</name><stateAbbrev>CA</stateAbbrev><state>California</state><fips>071</fips><incits>06071</incits><id>US.CA.071</id><population>2088371</population></desc></path><path d="M255.23465704,503.730445247 L260.288808664,506.257521059 L264.500601685,504.572803851 L269.554753309,503.730445247 L273.76654633,504.572803851 L277.97833935,506.257521059 L283.032490975,509.626955475 L283.032490975,507.942238267 L282.190132371,505.415162455 L280.505415162,503.730445247 L283.032490975,502.045728039 L290.613718412,501.203369434 L291.456077016,498.676293622 L293.140794224,496.991576414 L296.51022864,495.306859206 L299.037304452,496.991576414 L302.406738869,497.833935018 L303.249097473,498.676293622 L308.303249097,499.518652226 L309.987966306,500.36101083 L312.515042118,501.203369434 L314.199759326,502.888086643 L320.096269555,505.415162455 L325.150421179,505.415162455 L329.3622142,507.099879663 L334.416365824,510.469314079 L338.628158845,509.626955475 L340.312876053,509.626955475 L341.155234657,539.951865223 L340.312876053,544.163658243 L338.628158845,545.848375451 L336.943441637,549.217809868 L331.046931408,546.690734055 L326.835138387,545.848375451 L322.623345367,548.375451264 L316.726835138,546.690734055 L314.199759326,546.690734055 L309.987966306,546.690734055 L308.303249097,545.848375451 L299.879663057,543.321299639 L296.51022864,543.321299639 L293.983152828,542.478941035 L283.874849579,542.478941035 L277.97833935,543.321299639 L272.924187726,544.163658243 L269.554753309,543.321299639 L267.870036101,542.478941035 L265.342960289,538.267148014 L262.815884477,536.582430806 L259.44645006,536.582430806 L256.919374248,535.740072202 L255.23465704,532.370637786 L255.23465704,529.001203369 L257.761732852,523.947051745 L255.23465704,520.577617329 L257.761732852,514.6811071 L254.392298436,512.996389892 L253.549939832,510.469314079 L253.549939832,507.099879663 L255.23465704,503.730445247 Z" fill="#cee3f5" id="US.CA.083" stroke="#6e6e6e" stroke-width="0.4"><desc><name>Santa Barbara County</name><stateAbbrev>CA</stateAbbrev><state>California</state><fips>083</fips><incits>06083</incits><id>US.CA.083</id><population>435697</population></desc></path><path d="M207.220216606,233.333333333 L210.589651023,230.806257521 L213.959085439,229.121540313 L216.486161252,229.963898917 L220.697954272,231.648616125 L222.38267148,231.648616125 L225.752105897,229.963898917 L228.279181709,231.648616125 L232.490974729,231.648616125 L235.860409146,227.436823105 L237.545126354,224.067388688 L242.599277978,220.697954272 L244.283995187,220.697954272 L245.126353791,218.17087846 L248.495788207,217.328519856 L253.549939832,213.116726835 L259.44645006,211.432009627 L302.406738869,211.432009627 L303.249097473,228.279181709 L293.140794224,228.279181709 L290.613718412,230.806257521 L286.401925391,230.806257521 L280.505415162,230.806257521 L273.76654633,230.806257521 L271.239470517,234.175691937 L269.554753309,236.70276775 L265.342960289,238.387484958 L261.973525872,236.70276775 L258.604091456,235.860409146 L253.549939832,232.490974729 L251.865222623,232.490974729 L246.811070999,233.333333333 L244.283995187,235.860409146 L239.229843562,235.018050542 L238.387484958,236.70276775 L231.648616125,239.229843562 L231.648616125,242.599277978 L229.121540313,244.283995187 L225.752105897,251.865222623 L203.008423586,251.022864019 L203.85078219,249.338146811 L203.85078219,237.545126354 L207.220216606,237.545126354 L207.220216606,233.333333333 Z" fill="#cee3f5" id="US.CA.061" stroke="#6e6e6e" stroke-width="0.4"><desc><name>Placer County</name><stateAbbrev>CA</stateAbbrev><state>California</state><fips>061</fips><incits>06061</incits><id>US.CA.061</id><population>367309</population></desc></path><path d="M133.935018051,85.0782190132 L151.624548736,85.0782190132 L185.3188929,85.0782190132 L205.535499398,85.0782190132 L213.116726835,85.0782190132 L213.116726835,103.610108303 L213.959085439,103.610108303 L213.959085439,108.664259928 L213.116726835,131.407942238 L213.116726835,134.777376655 L202.166064982,134.777376655 L197.111913357,134.777376655 L194.584837545,136.462093863 L187.003610108,134.777376655 L181.10709988,134.777376655 L176.052948255,135.619735259 L171.841155235,137.304452467 L167.629362214,136.462093863 L160.890493381,137.304452467 L159.205776173,138.146811071 L152.466907341,138.989169675 L146.570397112,139.831528279 L137.304452467,139.831528279 L132.250300842,138.989169675 L128.880866426,139.831528279 L123.826714801,143.200962696 L117.087845969,140.673886883 L110.348977136,141.516245487 L108.664259928,141.516245487 L105.294825511,144.0433213 L101.925391095,144.0433213 L96.0288808664,145.728038508 L95.1865222623,141.516245487 L96.8712394705,141.516245487 L100.240673887,136.462093863 L104.452466907,136.462093863 L106.97954272,134.777376655 L110.348977136,131.407942238 L113.718411552,130.565583634 L115.403128761,127.196149218 L118.772563177,126.353790614 L120.457280385,126.353790614 L119.614921781,122.141997593 L117.930204573,119.614921781 L119.614921781,116.245487365 L118.772563177,115.403128761 L122.984356197,112.033694344 L122.984356197,109.506618532 L124.669073406,107.821901324 L127.196149218,104.452466907 L126.353790614,100.240673887 L128.038507822,98.5559566787 L131.407942238,96.8712394705 L132.250300842,93.5018050542 L132.250300842,91.817087846 L137.304452467,90.1323706378 L137.304452467,86.7629362214 L133.935018051,85.0782190132 Z" fill="#cee3f5" id="US.CA.089" stroke="#6e6e6e" stroke-width="0.4"><desc><name>Shasta County</name><stateAbbrev>CA</stateAbbrev><state>California</state><fips>089</fips><incits>06089</incits><id>US.CA.089</id><population>178980</population></desc></path><path d="M139.831528279,289.771359807 L154.151624549,289.771359807 L153.309265945,287.244283995 L154.151624549,285.559566787 L153.309265945,283.874849579 L154.151624549,278.820697954 L163.417569194,278.820697954 L162.57521059,276.293622142 L159.205776173,271.239470517 L160.890493381,265.342960289 L164.259927798,265.342960289 L166.78700361,267.027677497 L171.841155235,264.500601685 L176.895306859,263.658243081 L180.264741276,264.500601685 L184.476534296,263.658243081 L188.688327316,264.500601685 L188.688327316,278.820697954 L195.427196149,278.820697954 L194.584837545,280.505415162 L194.584837545,285.559566787 L193.742478941,287.244283995 L190.373044525,288.086642599 L188.688327316,289.771359807 L187.003610108,294.825511432 L185.3188929,294.825511432 L181.10709988,296.51022864 L178.580024067,294.825511432 L176.895306859,295.667870036 L175.210589651,297.352587244 L172.683513839,297.352587244 L165.102286402,295.667870036 L158.363417569,298.194945848 L154.993983153,296.51022864 L144.0433213,295.667870036 L139.831528279,289.771359807 Z" fill="#cee3f5" id="US.CA.095" stroke="#6e6e6e" stroke-width="0.4"><desc><name>Solano County</name><stateAbbrev>CA</stateAbbrev><state>California</state><fips>095</fips><incits>06095</incits><id>US.CA.095</id><population>424788</population></desc></path><path d="M203.85078219,335.258724428 L218.17087846,324.308062575 L219.855595668,321.780986763 L224.909747292,320.096269555 L229.121540313,317.569193742 L233.333333333,317.569193742 L235.860409146,316.726835138 L238.387484958,318.411552347 L240.91456077,317.569193742 L240.072202166,308.303249097 L240.072202166,294.825511432 L258.604091456,311.672683514 L277.135980746,325.150421179 L236.70276775,341.155234657 L236.70276775,344.524669073 L235.860409146,346.209386282 L219.855595668,358.844765343 L219.013237064,357.160048135 L213.116726835,356.317689531 L210.589651023,355.475330927 L208.062575211,357.160048135 L206.377858002,352.948255114 L204.693140794,351.263537906 L204.693140794,348.736462094 L208.062575211,347.051744886 L206.377858002,343.682310469 L207.220216606,341.997593261 L204.693140794,341.155234657 L203.85078219,338.628158845 L203.008423586,336.943441637 L203.85078219,335.258724428 Z" fill="#cee3f5" id="US.CA.099" stroke="#6e6e6e" stroke-width="0.4"><desc><name>Stanislaus County</name><stateAbbrev>CA</stateAbbrev><state>California</state><fips>099</fips><incits>06099</incits><id>US.CA.099</id><population>525491</population></desc></path><path d="M566.907340554,664.620938628 L566.907340554,651.143200963 L566.907340554,633.453670277 L568.592057762,633.453670277 L567.749699158,609.867629362 L584.596871239,609.867629362 L609.867629362,609.867629362 L637.665463297,609.867629362 L652.827918171,609.867629362 L666.305655836,609.025270758 L665.463297232,610.709987966 L662.093862816,610.709987966 L660.409145608,611.55234657 L662.093862816,614.079422383 L661.251504212,616.606498195 L659.566787004,618.291215403 L660.409145608,619.133574007 L662.93622142,619.975932611 L662.093862816,622.503008424 L663.778580024,623.345367028 L662.93622142,627.557160048 L661.251504212,632.611311673 L667.14801444,636.823104693 L670.517448857,635.980746089 L673.886883273,636.823104693 L675.571600481,638.507821901 L676.413959085,642.719614922 L678.098676294,645.246690734 L677.25631769,649.458483755 L673.044524669,652.827918171 L673.044524669,655.354993983 L667.14801444,657.039711191 L661.251504212,656.197352587 L660.409145608,657.882069795 L629.241877256,659.566787004 L593.02045728,662.093862816 L566.907340554,664.620938628 Z" fill="#cee3f5" id="US.CA.025" stroke="#6e6e6e" stroke-width="0.4"><desc><name>Imperial County</name><stateAbbrev>CA</stateAbbrev><state>California</state><fips>025</fips><incits>06025</incits><id>US.CA.025</id><population>176584</population></desc></path></svg>