<?xml version='1.0' encoding='utf-8'?>
<svg height="700" width="700" xmlns="http://www.w3.org/2000/svg"><path d="M465.059636677,311.475018246 L464.834337028,311.504198791 L453.644644775,312.952044374 L449.055772382,314.980313436 L445.521017566,318.683335866 L441.895153018,326.602251324 L440.752256333,331.090890983 L442.096923496,335.108076777 L444.108791178,336.732820671 L447.36561357,338.774970811 L447.27542437,342.917171696 L446.801222014,346.246256435 L434.729499521,366.921675458 L415.090771261,358.01321264 L402.319450141,346.086508008 L396.669908552,339.431309118 L379.729054902,335.191590851 L373.603860764,335.412315864 L352.89547438,341.147017985 L347.153624062,339.687958325 L341.604704454,337.020261578 L332.67861299,331.093670886 L325.503364044,329.531640094 L319.570219009,329.62218663 L309.227159595,334.537351314 L303.47259788,341.480298536 L302.125391767,345.447388018 L300.582056114,351.830289602 L294.11874852,360.348690102 L291.040789685,367.073382259 L283.360014083,375.711051484 L282.102327737,381.280323642 L281.688883142,394.79039275 L279.461160302,405.140471778 L278.574429114,415.592157123 L278.742932104,425.701076667 L257.307769471,432.599553104 L241.747534789,440.098426722 L232.338535814,442.681792897 L205.635236818,443.473691466 L193.52216476,447.415620698 L193.284272489,445.247955521 L189.726657298,439.562429127 L185.699227125,439.249423065 L181.728660546,440.563559334 L178.278269575,439.907266829 L174.578676577,437.819584018 L165.958408795,435.166197321 L162.00944151,431.942183606 L162.275854197,429.724489446 L160.997607045,416.404453552 L160.060659714,411.912636625 L145.638168995,383.042717448 L141.582395421,376.956280238 L133.753652753,372.081918201 L127.119053914,370.911246559 L120.878873642,367.818726873 L114.429724894,356.932890669 L110.734597959,344.928356028 L109.908964298,333.532398482 L112.706229472,324.426254228 L120.070310064,319.537888521 L114.170917147,313.980712461 L115.275261577,310.535331152 L116.436038073,308.323054638 L117.345365478,305.468232608 L117.313640046,299.945087935 L133.498449359,301.712755706 L127.808614215,293.002461265 L114.228051387,282.519843037 L106.983750563,278.975552936 L109.523318555,269.917294744 L131.07188572,233.007376168 L133.587892974,226.955733219 L135.078207435,222.131209311 L137.396353993,217.163160956 L142.266935918,210.778471538 L146.609032199,207.891739283 L155.718484049,205.817628899 L160.831862123,201.059525846 L167.637544216,187.975052503 L165.182365565,182.686902771 L160.883995393,177.340339206 L161.647514857,164.17750915 L165.485896014,159.116793995 L177.968786732,153.65177458 L182.438436146,148.937692081 L183.996640748,141.399664898 L184.035995178,132.424863498 L183.385842187,121.375864827 L187.094921512,115.474457371 L196.080658181,107.720927744 L199.848502507,102.311870352 L201.39819809,95.8087637456 L202.665927848,80.3294442673 L204.910638127,74.2727904455 L215.096074258,65.0408606537 L237.967186769,53.9260679492 L247.127742136,44.4371700081 L252.04967434,30.7426309187 L254.622384522,17.6819583881 L259.842570902,8.86945107229 L272.896647947,7.52267750312 L282.352956528,0.0 L286.270752484,4.29896034761 L288.278441091,13.4262857675 L292.002311502,20.4365659844 L297.412928979,23.0813543316 L300.10614619,24.3974855378 L307.012243091,25.3961218362 L320.958003274,23.1988226293 L326.285571971,19.9020354437 L330.219510957,15.6660100305 L334.972375555,15.0304346548 L342.885400587,22.6820615387 L345.53934744,31.4622173527 L344.834103964,40.4859073576 L346.222350821,48.0320243545 L355.350244904,52.1319294543 L351.091230091,65.9365552673 L348.099235369,79.0514274662 L344.204643455,105.874176549 L345.283316536,106.565509538 L348.96588776,106.223403459 L350.362459274,106.421743985 L348.074368354,109.526623117 L342.349614502,120.666214752 L349.014830746,124.51836399 L353.010581882,132.362026819 L356.809549875,152.286690509 L355.086654826,162.887676497 L357.751742356,170.631344594 L368.362975401,186.810818935 L377.707443819,213.638902171 L382.606875033,221.973118078 L389.225144268,208.856194322 L399.792890256,225.965230566 L420.071020348,274.77262468 L429.702107434,284.52799417 L450.619879099,293.823029306 L459.617463336,299.628169361 L462.558880363,304.850313925 L465.059636677,311.475018246 Z" fill="#cee3f5" id="LU.DI" stroke="#6e6e6e" stroke-width="0.4"><desc><labelrank>9</labelrank><code_hasc>LU.DI</code_hasc><name>Diekirch</name><admin>Luxembourg</admin><type_en>District</type_en><region /><woe_id>20070542</woe_id><longitude>6</longitude><woe_name>Diekirch</woe_name><fips>LU01</fips><woe_label>Diekirch, LU, Luxembourg</woe_label><latitude>49</latitude><iso_a2>LU</iso_a2><postal>DI</postal><type>District</type><id>LU.DI</id></desc></path><path d="M438.017268803,654.21689366 L435.498673917,638.317559297 L427.85928577,605.979106118 L427.270164176,593.060912005 L431.592872442,584.97030484 L451.515242851,565.5682219 L456.224366847,563.095905203 L467.472550176,560.587434521 L469.000916523,554.790967059 L467.935072889,550.207159199 L464.755954349,546.563825066 L461.385946057,543.462979788 L458.977130272,540.015224876 L460.221425427,536.66025583 L462.715435177,533.549742501 L475.702037392,522.703140025 L465.066031481,502.924946897 L459.167092478,477.786974102 L454.646749702,472.172647745 L446.288237175,466.415124421 L437.807666414,464.058580792 L390.46161335,462.904278942 L418.580669254,418.119743913 L423.658242447,413.382115137 L431.514389029,408.394706364 L435.828788739,409.179189072 L445.062620661,408.77378567 L452.219807163,386.42663326 L450.970260865,383.593082857 L447.516158701,379.776294657 L444.543988935,377.857077125 L434.729499521,366.921675458 L446.801222014,346.246256435 L447.27542437,342.917171696 L447.36561357,338.774970811 L444.108791178,336.732820671 L442.096923496,335.108076777 L440.752256333,331.090890983 L441.895153018,326.602251324 L445.521017566,318.683335866 L449.055772382,314.980313436 L453.644644775,312.952044374 L464.834337028,311.504198791 L465.059636677,311.475018246 L468.773406207,321.309347659 L469.417061806,324.513379749 L474.393444753,324.947886825 L483.630999026,319.307798275 L489.052775695,319.44391685 L499.529288421,326.026937915 L517.31133086,342.893320143 L527.797325172,349.519241192 L538.593268026,352.44346778 L568.209234857,352.336137365 L587.254299962,357.878576292 L589.680689081,358.01588024 L593.016249437,361.600771605 L592.823845112,361.404389197 L591.489121379,362.741738564 L591.460989026,370.779557349 L590.569882592,371.424549493 L587.723099753,392.196917053 L587.688650999,398.952634362 L589.368463551,403.186003305 L589.129096046,406.885351405 L583.14470086,412.18744459 L582.73355802,420.719906723 L584.173154197,428.504817329 L587.143789004,435.346162451 L591.582014374,441.243935211 L586.201056916,439.147138086 L583.329523451,440.589446852 L581.238720996,445.233460974 L585.480777556,450.097118394 L586.705020383,452.162865092 L541.32459408,481.824303502 L531.766025017,495.316808945 L532.864419677,498.469148959 L536.842997182,501.168410699 L540.633211821,504.854149748 L541.230638902,511.163754843 L539.579625201,515.45915418 L534.925964302,522.377597615 L528.687610893,535.316160399 L512.593913204,555.283572532 L503.27141623,570.002008256 L499.770134946,580.513424556 L499.844036751,610.739269525 L498.658085962,619.921880377 L494.67428183,650.740427284 L496.669914676,679.630058628 L496.641419729,686.66204488 L484.212192899,685.377605937 L467.675061657,676.336915228 L438.017268803,654.21689366 Z" fill="#cee3f5" id="LU.GR" stroke="#6e6e6e" stroke-width="0.4"><desc><labelrank>9</labelrank><code_hasc>LU.GR</code_hasc><name>Grevenmacher</name><admin>Luxembourg</admin><type_en>District</type_en><region /><woe_id>20070559</woe_id><longitude>6</longitude><woe_name>Grevenmacher</woe_name><fips>LU02</fips><woe_label>Grevenmacher, LU, Luxembourg</woe_label><latitude>49</latitude><iso_a2>LU</iso_a2><postal>GR</postal><type>District</type><id>LU.GR</id></desc></path><path d="M434.729499521,366.921675458 L444.543988935,377.857077125 L447.516158701,379.776294657 L450.970260865,383.593082857 L452.219807163,386.42663326 L445.062620661,408.77378567 L435.828788739,409.179189072 L431.514389029,408.394706364 L423.658242447,413.382115137 L418.580669254,418.119743913 L390.46161335,462.904278942 L437.807666414,464.058580792 L446.288237175,466.415124421 L454.646749702,472.172647745 L459.167092478,477.786974102 L465.066031481,502.924946897 L475.702037392,522.703140025 L462.715435177,533.549742501 L460.221425427,536.66025583 L458.977130272,540.015224876 L461.385946057,543.462979788 L464.755954349,546.563825066 L467.935072889,550.207159199 L469.000916523,554.790967059 L467.472550176,560.587434521 L456.224366847,563.095905203 L451.515242851,565.5682219 L431.592872442,584.97030484 L427.270164176,593.060912005 L427.85928577,605.979106118 L435.498673917,638.317559297 L438.017268803,654.21689366 L436.927578542,653.403400561 L419.898708657,646.614537596 L402.234319058,644.750480346 L366.52131453,648.694219234 L370.56528838,657.47243644 L353.024840582,659.090701145 L348.590272575,660.862487447 L345.308465623,666.678073437 L345.367486772,672.792250827 L343.949051726,677.918986186 L336.42592406,680.771540327 L330.372955139,689.935979504 L321.238951742,693.32655456 L268.186924715,696.428840588 L257.374670153,700.0 L248.901696685,672.659656009 L237.242283846,660.839636981 L237.241374745,660.839416881 L197.829650745,651.280453562 L182.251595942,643.868478197 L171.443455024,633.662738282 L152.051987051,607.584219695 L166.846078323,600.604562295 L181.158250433,585.432854519 L187.123142399,570.567236674 L176.632004115,564.75230882 L183.649638704,558.175745779 L188.626529786,548.631012068 L196.663703691,526.672275329 L201.619849902,520.873577684 L207.791368217,515.177625361 L211.281133631,506.906814985 L207.874690471,493.333814368 L203.408033418,489.519713211 L190.994845382,488.03951834 L186.783583235,484.816590465 L184.637468485,477.805369326 L185.548093787,474.406903442 L187.416983771,471.357678657 L187.763353257,465.146089223 L188.745419139,459.874077467 L191.7664484,456.484367042 L194.08564414,452.549164589 L193.52216476,447.415620698 L205.635236818,443.473691466 L232.338535814,442.681792897 L241.747534789,440.098426722 L257.307769471,432.599553104 L278.742932104,425.701076667 L278.574429114,415.592157123 L279.461160302,405.140471778 L281.688883142,394.79039275 L282.102327737,381.280323642 L283.360014083,375.711051484 L291.040789685,367.073382259 L294.11874852,360.348690102 L300.582056114,351.830289602 L302.125391767,345.447388018 L303.47259788,341.480298536 L309.227159595,334.537351314 L319.570219009,329.62218663 L325.503364044,329.531640094 L332.67861299,331.093670886 L341.604704454,337.020261578 L347.153624062,339.687958325 L352.89547438,341.147017985 L373.603860764,335.412315864 L379.729054902,335.191590851 L396.669908552,339.431309118 L402.319450141,346.086508008 L415.090771261,358.01321264 L434.729499521,366.921675458 Z" fill="#cee3f5" id="LU.LU" stroke="#6e6e6e" stroke-width="0.4"><desc><labelrank>9</labelrank><code_hasc>LU.LU</code_hasc><name>Luxembourg</name><admin>Luxembourg</admin><type_en>District</type_en><region /><woe_id>20070560</woe_id><longitude>6</longitude><woe_name>Luxembourg</woe_name><fips>LU03</fips><woe_label>Luxemburg, LU, Luxembourg</woe_label><latitude>49</latitude><iso_a2>LU</iso_a2><postal>LU</postal><type>District</type><id>LU.LU</id></desc></path></svg>