<?xml version='1.0' encoding='utf-8'?>
<svg height="700" width="700" xmlns="http://www.w3.org/2000/svg"><path d="M502.224694105,261.482455253 L497.906765093,260.916169481 L492.456264536,261.694812418 L487.572049752,259.642026494 L482.829406411,261.34088381 L482.192334918,263.039741127 L483.112549297,265.163312772 L478.299120235,274.153099403 L481.272120538,279.886742846 L479.927191829,280.736171504 L477.095762969,279.886742846 L475.892405703,280.594600061 L472.707048235,287.460815047 L472.707048235,289.796743857 L476.175548589,292.982101325 L472.423905349,295.318030134 L472.990191121,301.971887956 L476.317120032,302.962888057 L485.731620993,301.617959349 L487.288906866,302.255030842 L489.058549904,305.015673981 L488.633835575,307.917888563 L483.891192234,308.554960057 L483.041763576,309.545960158 L483.961977955,316.836889473 L481.130549095,317.898675296 L473.698048337,318.323389625 L463.646475882,309.970674487 L459.611689756,308.484174335 L454.727474972,308.059460006 L449.843260188,309.758317322 L446.303974113,312.518960461 L444.251188189,318.394175346 L440.428759227,321.579532814 L436.677115987,321.8626757 L432.217615532,320.234604106 L428.465972292,321.508747093 L425.422186268,321.437961371 L419.617757104,329.436747902 L412.114470624,329.295176459 L404.044898372,325.11881889 L392.789968652,316.058246537 L387.05632521,309.970674487 L373.819395288,309.970674487 L369.289109111,314.571746385 L363.767822833,317.403175245 L360.653251087,324.127818789 L358.317322277,326.392961877 L351.592678734,329.082819294 L350.601678633,332.62210537 L353.008393164,338.143391647 L352.866821721,342.744463545 L348.053392659,348.548892709 L344.089392254,346.70846395 L331.914248155,313.439174841 L329.295176459,309.545960158 L324.694104561,305.794316918 L328.87046213,300.343816362 L330.073819395,293.336029932 L336.232177167,287.460815047 L338.426534533,283.496814643 L335.311962787,272.312670644 L325.685104662,270.401456163 L315.208817878,262.473455354 L311.669531803,261.624026696 L303.175245222,262.190312468 L300.343816362,264.597027 L299.140459096,269.410456062 L295.318030134,271.534027708 L290.292243907,272.029527758 L283.001314592,270.755384771 L280.382242896,271.958742037 L278.046314086,275.568813834 L273.51602791,277.338456871 L265.446455658,274.719385175 L260.986955203,276.630599656 L258.155526342,282.859743149 L258.013954899,293.760744261 L254.899383153,298.928101931 L256.031954697,303.599959551 L258.721812114,307.988674285 L270.330670442,309.121245829 L272.171099201,313.226817676 L271.887956315,317.120032359 L270.755384771,318.606532511 L268.702598847,319.172818283 L259.42966933,316.270603701 L257.164526241,317.332389524 L250.156739812,326.109818991 L239.822024472,328.233390636 L231.186166448,327.313176256 L226.514308828,320.800889878 L223.187379917,319.102032561 L214.480736172,310.395388816 L212.640307412,299.706744868 L210.729092932,295.388815856 L208.676307008,294.680958641 L206.269592476,290.787743958 L205.349378097,289.01810092 L206.057235312,286.965314996 L203.225806452,281.090100111 L200.677520477,279.532814238 L199.191020326,275.85195672 L195.085448478,272.666599252 L190.48437658,265.234098493 L188.927090707,265.234098493 L184.609161695,260.491455152 L180.220446961,258.792597836 L179.22944686,259.217312165 L178.663161088,258.297097785 L178.946303974,256.952169077 L180.928304176,255.607240368 L180.999089898,254.120740216 L178.73394681,244.635453534 L176.539589443,242.795024775 L174.06208919,233.734452422 L171.301446051,232.24795227 L164.293659622,231.186166448 L161.674587926,229.274951967 L163.161088078,226.018808777 L163.868945293,219.718879563 L166.204874103,217.312165032 L169.39023157,211.507735868 L172.858731924,209.73809283 L174.274446355,205.561735261 L170.664374558,204.216806553 L168.328445748,201.385377692 L168.540802912,199.332591769 L172.434017595,196.430377187 L173.000303367,194.589948428 L172.64637476,183.90130448 L162.948730913,172.434017595 L162.948730913,168.89473152 L165.426231166,164.081302457 L178.450803924,162.170087977 L181.706947113,158.347659015 L186.23723329,156.436444534 L188.360804935,152.189301244 L190.272019416,151.0567297 L200.252806148,150.065729599 L210.233592881,147.021943574 L220.426736778,147.659015067 L227.363737486,146.38487208 L238.193952877,147.163515017 L252.280311457,144.04894327 L271.463241986,144.827586207 L274.365456568,141.429871574 L278.754171301,139.235514208 L279.957528567,134.492870867 L278.612599858,131.449084842 L279.17888563,126.21094145 L283.072100313,123.87501264 L286.540600667,123.308726868 L286.328243503,122.034583881 L283.85074325,120.689655172 L286.894529275,119.911012236 L290.292243907,120.477298008 L293.973101426,118.21215492 L283.85074325,108.443725351 L286.18667206,103.064010517 L287.673172212,95.2067954293 L295.955101628,87.7035089493 L301.122459298,80.3417939124 L304.803316817,80.1294367479 L314.500960663,84.2350085954 L315.2796036,86.6417231267 L318.464961068,90.2517949237 L323.632318738,92.5169380119 L326.746890484,92.5877237334 L328.87046213,94.2865810497 L331.631105268,91.5967236323 L331.206390939,82.8900798867 L337.152391546,78.7137223177 L339.629891799,73.9710789766 L353.928607544,68.874507028 L363.413894226,70.8565072303 L361.219536859,74.0418646981 L362.352108403,74.6081504702 L369.784609162,68.449792699 L372.191323693,62.7869349783 L375.730609768,60.5925776115 L377.075538477,57.0532915361 L386.206896552,57.6903630296 L385.782182223,61.5127919911 L387.55182526,63.4240064718 L387.834968146,65.2644352311 L385.64061078,69.6531499646 L386.277682273,70.3610071797 L387.622610982,69.5823642431 L389.816968349,70.2194357367 L393.214682981,67.3880068763 L398.31125493,67.9542926484 L402.346041056,65.9722924462 L406.451612903,66.4677924967 L409.707756093,59.4600060673 L412.680756396,61.0172919405 L416.007685307,61.2296491051 L426.696329255,57.1948629791 L442.90625948,54.4342198402 L451.82526039,50.3286479927 L451.117403175,55.3544342198 L452.249974719,57.6195773081 L464.920618869,63.1408635858 L467.964404894,67.6711497624 L475.396905653,73.050864597 L481.201334816,83.5979371018 L483.112549297,81.8282940641 L487.00576398,83.1024370513 L491.323692992,82.2530083932 L492.385478815,83.3147942158 L491.889978764,86.5709374052 L496.137122055,91.9506522399 L495.216907675,94.1450096066 L501.446051168,93.2955809485 L504.702194357,95.6315097583 L502.01233694,97.6135099606 L500.455051067,102.497724745 L500.101122459,113.894225908 L501.162908282,116.725654768 L504.631408636,118.566083527 L504.914551522,120.760440894 L504.489837193,122.954798261 L499.747193852,123.37951259 L500.384265345,124.441298412 L499.747193852,126.777227222 L501.941551219,133.147942158 L498.897765194,136.970371119 L499.18090808,144.119728992 L496.915764991,152.614015573 L497.057336434,154.596015775 L499.605622409,159.338659116 L499.605622409,163.231873799 L498.473050865,164.576802508 L496.561836384,164.789159672 L491.819193043,160.825159268 L490.26190717,163.868945293 L490.403478613,167.054302761 L492.102335929,169.39023157 L495.500050561,169.673374456 L499.888765295,168.540802912 L502.01233694,168.965517241 L502.93255132,171.23066033 L502.224694105,172.717160481 L500.455051067,173.212660532 L496.986550713,171.938517545 L495.004550511,173.212660532 L487.00576398,172.787946203 L486.227121044,176.539589443 L489.554049954,179.441804025 L493.801193245,179.017089696 L494.792193346,180.220446961 L493.022550308,182.273232885 L486.793406816,183.90130448 L487.147335423,189.847305086 L491.182121549,189.634947922 L496.137122055,187.936090606 L498.2606937,183.264232986 L499.888765295,182.48559005 L506.68419456,181.777732834 L514.470623926,184.184447366 L515.320052584,186.23723329 L514.399838204,188.785519264 L519.637981596,191.687733846 L520.345838811,194.23601982 L518.717767216,204.358377996 L515.532409748,207.260592578 L516.877338457,214.976236222 L512.417838002,220.4975225 L511.922337951,225.735665891 L508.949337648,232.460309435 L515.744766913,244.635453534 L517.089695621,249.944382647 L514.753766812,253.412883001 L513.691980989,257.943169178 L507.816766104,258.226312064 L508.383051876,258.651026393 L506.542623117,261.694812418 L505.410051572,259.288097887 L502.720194155,259.004955001 L502.224694105,261.482455253 Z" fill="#cee3f5" id="GH.NP" stroke="#6e6e6e" stroke-width="0.4"><desc><labelrank>5</labelrank><code_hasc>GH.NP</code_hasc><name>Northern</name><admin>Ghana</admin><type_en>Region</type_en><region /><woe_id>2345467</woe_id><longitude>-1</longitude><woe_name>Northern</woe_name><fips>GH06</fips><woe_label>Northern, GH, Ghana</woe_label><latitude>9</latitude><iso_a2>GH</iso_a2><postal>NP</postal><type>Region</type><id>GH.NP</id></desc></path><path d="M451.82526039,50.3286479927 L442.90625948,54.4342198402 L426.696329255,57.1948629791 L416.007685307,61.2296491051 L412.680756396,61.0172919405 L409.707756093,59.4600060673 L406.451612903,66.4677924967 L402.346041056,65.9722924462 L398.31125493,67.9542926484 L393.214682981,67.3880068763 L389.816968349,70.2194357367 L387.622610982,69.5823642431 L386.277682273,70.3610071797 L385.64061078,69.6531499646 L387.834968146,65.2644352311 L387.55182526,63.4240064718 L385.782182223,61.5127919911 L386.206896552,57.6903630296 L377.075538477,57.0532915361 L375.730609768,60.5925776115 L372.191323693,62.7869349783 L369.784609162,68.449792699 L362.352108403,74.6081504702 L361.219536859,74.0418646981 L363.413894226,70.8565072303 L353.928607544,68.874507028 L339.629891799,73.9710789766 L337.152391546,78.7137223177 L331.206390939,82.8900798867 L331.631105268,91.5967236323 L328.87046213,94.2865810497 L326.746890484,92.5877237334 L323.632318738,92.5169380119 L318.464961068,90.2517949237 L315.2796036,86.6417231267 L314.500960663,84.2350085954 L315.562746486,81.120436849 L314.288603499,76.0946506219 L312.165031854,74.9620790778 L309.19203155,76.94407928 L306.077459804,74.6081504702 L305.015673981,69.5115785216 L300.768530691,67.8835069269 L297.229244615,63.8487208009 L294.043887147,62.6453635352 L291.637172616,53.7971483466 L292.840529882,47.7803620184 L299.919102033,41.6220042471 L300.414602083,38.2242896147 L305.157245424,33.9063606027 L305.652745475,22.7222166043 L308.342602892,15.856001618 L315.704317929,18.1919304277 L342.390534938,18.4750733138 L343.310749317,16.7762159976 L346.354535342,16.3515016685 L361.219536859,17.4840732127 L364.263322884,20.1031449085 L365.395894428,20.032359187 L364.688037213,21.5188593387 L366.528465972,21.2357164526 L368.935180504,18.6166447568 L372.474466579,17.2009303266 L373.677823845,18.2627161493 L386.702396602,18.4750733138 L386.843968045,19.6784305794 L389.038325412,19.6076448579 L389.675396906,20.3862877945 L388.118111032,22.8637880473 L393.285468703,27.8187885529 L395.196683183,26.6862170088 L398.028112044,19.7492163009 L406.380827182,18.8997876428 L412.468399231,14.5818586308 L413.742542219,9.34371523915 L415.795328142,6.72464354333 L417.918899788,6.72464354333 L421.882900192,10.6886439478 L427.262615027,6.72464354333 L429.456972394,3.75164323996 L429.103043786,0.0 L443.684902417,3.04378602488 L444.463545353,4.81342906259 L448.498331479,7.64485792294 L450.480331682,8.14035797351 L458.125189605,6.93700070786 L461.735261402,8.28192941652 L463.363332996,10.8302153908 L463.150975832,19.4660734149 L460.107189807,22.7222166043 L457.771260997,33.6940034382 L458.195975326,38.0119324502 L453.594903428,42.3298614622 L451.82526039,50.3286479927 Z" fill="#cee3f5" id="GH.UE" stroke="#6e6e6e" stroke-width="0.4"><desc><labelrank>5</labelrank><code_hasc>GH.UE</code_hasc><name>Upper East</name><admin>Ghana</admin><type_en>Region</type_en><region /><woe_id>2345470</woe_id><longitude>0</longitude><woe_name>Upper East</woe_name><fips>GH10</fips><woe_label>Upper East, GH, Ghana</woe_label><latitude>10</latitude><iso_a2>GH</iso_a2><postal>UE</postal><type>Region</type><id>GH.UE</id></desc></path><path d="M308.342602892,15.856001618 L305.652745475,22.7222166043 L305.157245424,33.9063606027 L300.414602083,38.2242896147 L299.919102033,41.6220042471 L292.840529882,47.7803620184 L291.637172616,53.7971483466 L294.043887147,62.6453635352 L297.229244615,63.8487208009 L300.768530691,67.8835069269 L305.015673981,69.5115785216 L306.077459804,74.6081504702 L309.19203155,76.94407928 L312.165031854,74.9620790778 L314.288603499,76.0946506219 L315.562746486,81.120436849 L314.500960663,84.2350085954 L304.803316817,80.1294367479 L301.122459298,80.3417939124 L295.955101628,87.7035089493 L287.673172212,95.2067954293 L286.18667206,103.064010517 L283.85074325,108.443725351 L293.973101426,118.21215492 L290.292243907,120.477298008 L286.894529275,119.911012236 L283.85074325,120.689655172 L286.328243503,122.034583881 L286.540600667,123.308726868 L283.072100313,123.87501264 L279.17888563,126.21094145 L278.612599858,131.449084842 L279.957528567,134.492870867 L278.754171301,139.235514208 L274.365456568,141.429871574 L271.463241986,144.827586207 L252.280311457,144.04894327 L238.193952877,147.163515017 L227.363737486,146.38487208 L220.426736778,147.659015067 L210.233592881,147.021943574 L200.252806148,150.065729599 L190.272019416,151.0567297 L188.360804935,152.189301244 L186.23723329,156.436444534 L181.706947113,158.347659015 L178.450803924,162.170087977 L165.426231166,164.081302457 L163.585802407,160.542016382 L160.612802103,159.05551623 L159.834159167,156.790373142 L162.099302255,150.844372535 L166.55880271,145.606229143 L163.72737385,140.368085752 L163.231873799,137.678228335 L164.435231065,129.891798969 L160.754373546,122.034583881 L160.825159268,112.690868642 L159.763373445,107.806653858 L159.834159167,105.612296491 L164.2228739,100.728081707 L164.506016786,97.8966528466 L159.692587724,95.6315097583 L159.05551623,93.6495095561 L156.153301648,92.8708666195 L155.233087269,91.1012235818 L156.578015977,85.013651532 L158.206087572,83.3147942158 L161.816159369,82.3945798362 L163.302659521,80.3417939124 L158.489230458,79.4923652543 L153.392658509,75.4575791283 L152.189301244,71.9890787744 L149.994943877,69.3700070786 L149.287086662,64.9105066235 L145.606229143,57.0532915361 L148.579229447,50.6825766003 L146.809586409,47.5680048539 L151.127515421,39.3568611589 L153.109515623,31.995146122 L157.781373243,27.4648599454 L158.418444737,24.9873596926 L156.153301648,17.4840732127 L165.426231166,17.6964303772 L165.426231166,18.8290019213 L289.513600971,18.1211447062 L291.566386895,15.5020730104 L293.406815654,14.8650015168 L308.342602892,15.856001618 Z" fill="#cee3f5" id="GH.UW" stroke="#6e6e6e" stroke-width="0.4"><desc><labelrank>5</labelrank><code_hasc>GH.UW</code_hasc><name>Upper West</name><admin>Ghana</admin><type_en>Region</type_en><region /><woe_id>2345471</woe_id><longitude>-2</longitude><woe_name>Upper West</woe_name><fips>GH11</fips><woe_label>Upper West, GH, Ghana</woe_label><latitude>10</latitude><iso_a2>GH</iso_a2><postal>UW</postal><type>Region</type><id>GH.UW</id></desc></path><path d="M439.508544848,432.57154414 L431.297401153,434.341187178 L425.492971989,440.287187784 L417.56497118,443.401759531 L414.521185155,446.516331277 L397.249469107,447.436545657 L376.509252705,475.75083426 L374.314895338,477.095762969 L366.457680251,478.228334513 L359.662250986,481.83840631 L359.237536657,486.439478208 L364.475680049,491.6776216 L365.820608757,495.712407726 L346.212963899,516.948124178 L341.54110628,524.239053494 L337.435534432,536.909697644 L333.259176863,540.095055112 L334.0378198,543.563555466 L332.126605319,548.44777025 L333.683891192,552.340984933 L331.560319547,553.544342198 L327.525533421,564.516129032 L327.667104864,565.790272019 L329.790676509,566.427343513 L327.808676307,571.807058348 L326.180604712,574.70927293 L325.189604611,574.142987157 L322.075032865,575.275558702 L320.234604106,572.727272727 L313.580746284,571.523915462 L303.670745273,574.638487208 L303.1044595,577.823844676 L301.830316513,578.390130448 L298.149458995,576.62048741 L297.653958944,575.346344423 L299.282030539,574.072201436 L297.087673172,571.665486905 L294.256244312,570.95762969 L279.674385681,571.736272626 L275.285670948,568.692486601 L269.622813227,567.135200728 L266.154312873,564.516129032 L265.800384265,560.764485792 L264.101526949,559.631914248 L260.491455152,560.835271514 L257.518454849,560.056628577 L254.474668824,560.976842957 L249.802811204,556.729699666 L247.042168066,550.358984731 L244.564667813,550.429770452 L243.50288199,548.44777025 L241.945596117,540.02426939 L243.078167661,537.900697745 L243.644453433,531.034482759 L237.273738497,530.043482657 L233.238952371,529.68955405 L229.628880574,523.389624836 L220.143593892,520.77055314 L219.860451006,517.726767115 L221.91323693,511.568409344 L220.851451107,508.878551926 L215.967236323,509.657194863 L210.870664375,506.967337446 L209.030235615,507.038123167 L207.614521185,509.727980584 L206.481949641,517.302052786 L204.853878046,521.26605319 L202.093234907,523.389624836 L199.049448883,523.460410557 L198.200020224,522.823339064 L198.553948832,520.204267368 L198.553948832,518.080695723 L196.430377187,516.594195571 L196.925877237,513.125695217 L203.862877945,502.93255132 L203.084235009,500.525836788 L204.146020831,498.189907979 L201.810092021,496.137122055 L201.243806249,493.164121751 L199.544948933,492.031550207 L200.040448984,487.855192638 L206.41116392,488.279906967 L211.649307311,486.085549601 L213.277378906,483.041763576 L214.622307615,474.972191324 L218.869450905,471.291333805 L217.524522196,469.592476489 L213.631307513,468.743047831 L202.376377794,469.450905046 L203.084235009,467.610476287 L206.269592476,465.628476085 L209.525735666,461.452118516 L211.083021539,454.585903529 L217.949236525,447.082617049 L220.002022449,446.020831227 L223.187379917,446.587116999 L224.74466579,449.630903024 L225.806451613,449.772474467 L241.16695318,448.356760036 L247.112953787,444.534331075 L252.351097179,438.375973304 L258.50945495,436.960258873 L259.995955102,433.98725857 L260.774598038,428.041257963 L254.333097381,426.271614926 L246.051167964,418.909899889 L240.459095965,419.759328547 L236.141166953,415.866113864 L229.770452017,414.875113763 L230.761452119,408.716755992 L233.805238143,403.195469714 L240.317524522,403.97411265 L244.281524927,402.629183942 L248.67023966,402.487612499 L252.280311457,403.690969764 L261.907169582,402.487612499 L263.393669734,404.257255536 L264.455455557,411.265041966 L269.552027505,413.671756497 L272.808170695,416.573971079 L278.754171301,415.22904237 L283.072100313,416.432399636 L286.328243503,415.441399535 L290.858529679,410.203256143 L297.016887451,409.283041764 L297.512387501,408.008898776 L296.096673071,401.071898069 L304.803316817,395.125897462 L309.687531601,387.834968146 L312.94367479,385.782182223 L315.2796036,386.13611083 L318.11103246,388.330468197 L319.385175447,391.445039943 L320.022246941,398.948326423 L321.36717565,401.284255233 L322.499747194,402.487612499 L327.100819092,403.407826878 L333.967034078,403.124683992 L344.584892305,400.930326626 L346.354535342,398.169683487 L350.46010719,394.630397411 L354.494893316,395.05511174 L356.54767924,396.612397614 L359.308322378,396.258469006 L361.71503691,398.169683487 L370.350894934,397.037111943 L376.29689554,399.797755081 L378.491252907,397.461826272 L381.039538882,397.957326322 L386.702396602,394.701183133 L393.427040146,399.72696936 L399.656183638,411.123470523 L404.611184144,413.105470725 L415.936899585,415.087470927 L431.934472646,420.891900091 L434.624330064,424.006471837 L439.508544848,432.57154414 Z" fill="#cee3f5" id="GH.AH" stroke="#6e6e6e" stroke-width="0.4"><desc><labelrank>5</labelrank><code_hasc>GH.AH</code_hasc><name>Ashanti</name><admin>Ghana</admin><type_en>Region</type_en><region /><woe_id>2345463</woe_id><longitude>-1</longitude><woe_name>Ashanti</woe_name><fips>GH02</fips><woe_label>Ashanti, GH, Ghana</woe_label><latitude>6</latitude><iso_a2>GH</iso_a2><postal>AH</postal><type>Region</type><id>GH.AH</id></desc></path><path d="M419.617757104,329.436747902 L427.970472242,332.126605319 L443.118616645,344.230963697 L445.666902619,347.770249772 L450.40954596,358.671250885 L451.542117504,364.829608656 L454.444332086,369.643037719 L456.355546567,371.341895035 L461.806047123,372.686823744 L463.717261604,374.314895338 L466.902619072,383.941753463 L475.396905653,399.373040752 L476.529477197,408.64597027 L477.449691576,409.849327536 L486.085549601,413.530185054 L488.492264132,416.14925675 L488.987764182,420.82111437 L486.722621094,429.881686723 L487.076549702,435.190615836 L481.272120538,433.420972798 L473.910405501,436.181615937 L466.973404793,433.562544241 L439.508544848,432.57154414 L434.624330064,424.006471837 L431.934472646,420.891900091 L415.936899585,415.087470927 L404.611184144,413.105470725 L399.656183638,411.123470523 L393.427040146,399.72696936 L386.702396602,394.701183133 L381.039538882,397.957326322 L378.491252907,397.461826272 L376.29689554,399.797755081 L370.350894934,397.037111943 L361.71503691,398.169683487 L359.308322378,396.258469006 L356.54767924,396.612397614 L354.494893316,395.05511174 L350.46010719,394.630397411 L346.354535342,398.169683487 L344.584892305,400.930326626 L333.967034078,403.124683992 L327.100819092,403.407826878 L322.499747194,402.487612499 L321.36717565,401.284255233 L320.022246941,398.948326423 L319.385175447,391.445039943 L318.11103246,388.330468197 L315.2796036,386.13611083 L312.94367479,385.782182223 L309.687531601,387.834968146 L304.803316817,395.125897462 L296.096673071,401.071898069 L297.512387501,408.008898776 L297.016887451,409.283041764 L290.858529679,410.203256143 L286.328243503,415.441399535 L283.072100313,416.432399636 L278.754171301,415.22904237 L272.808170695,416.573971079 L269.552027505,413.671756497 L264.455455557,411.265041966 L263.393669734,404.257255536 L261.907169582,402.487612499 L252.280311457,403.690969764 L248.67023966,402.487612499 L244.281524927,402.629183942 L240.317524522,403.97411265 L233.805238143,403.195469714 L230.761452119,408.716755992 L229.770452017,414.875113763 L236.141166953,415.866113864 L240.459095965,419.759328547 L246.051167964,418.909899889 L254.333097381,426.271614926 L260.774598038,428.041257963 L259.995955102,433.98725857 L258.50945495,436.960258873 L252.351097179,438.375973304 L247.112953787,444.534331075 L241.16695318,448.356760036 L225.806451613,449.772474467 L224.74466579,449.630903024 L223.187379917,446.587116999 L220.002022449,446.020831227 L217.949236525,447.082617049 L211.083021539,454.585903529 L209.525735666,461.452118516 L206.269592476,465.628476085 L203.084235009,467.610476287 L202.376377794,469.450905046 L213.631307513,468.743047831 L217.524522196,469.592476489 L218.869450905,471.291333805 L214.622307615,474.972191324 L213.277378906,483.041763576 L211.649307311,486.085549601 L206.41116392,488.279906967 L200.040448984,487.855192638 L199.544948933,492.031550207 L201.243806249,493.164121751 L201.810092021,496.137122055 L204.146020831,498.189907979 L203.084235009,500.525836788 L203.862877945,502.93255132 L196.925877237,513.125695217 L196.430377187,516.594195571 L198.553948832,518.080695723 L198.553948832,520.204267368 L193.528162605,517.797552836 L188.643947821,517.160481343 L183.335018708,506.401051674 L177.247446658,503.144908484 L174.628374962,497.906765093 L171.301446051,496.84497927 L164.576802508,496.774193548 L159.834159167,493.305693194 L154.879158661,491.394478714 L153.109515623,484.315906563 L154.383658611,480.42269188 L153.463444231,475.042977045 L148.508443725,463.504904439 L145.747800587,460.7442613 L140.792800081,458.195975326 L138.38608555,458.195975326 L133.71422793,459.965618364 L130.387299019,459.257761149 L127.555870159,455.506117909 L125.644655678,447.224188492 L131.236727677,445.383759733 L133.289513601,438.022044696 L139.306299929,429.74011528 L137.395085448,423.65254323 L142.845586005,390.241682678 L154.171301446,366.386894529 L154.029730003,363.838608555 L158.276873294,360.582465366 L159.409444838,350.46010719 L161.533016483,351.805035898 L170.31044595,343.239963596 L179.017089696,339.983820407 L180.220446961,336.656891496 L177.884518151,329.578319345 L179.087875417,326.392961877 L179.795732632,325.755890383 L183.335018708,326.605319041 L184.821518859,326.109818991 L189.705733643,323.207604409 L190.413590859,321.579532814 L180.220446961,258.792597836 L184.609161695,260.491455152 L188.927090707,265.234098493 L190.48437658,265.234098493 L195.085448478,272.666599252 L199.191020326,275.85195672 L200.677520477,279.532814238 L203.225806452,281.090100111 L206.057235312,286.965314996 L205.349378097,289.01810092 L206.269592476,290.787743958 L208.676307008,294.680958641 L210.729092932,295.388815856 L212.640307412,299.706744868 L214.480736172,310.395388816 L223.187379917,319.102032561 L226.514308828,320.800889878 L231.186166448,327.313176256 L239.822024472,328.233390636 L250.156739812,326.109818991 L257.164526241,317.332389524 L259.42966933,316.270603701 L268.702598847,319.172818283 L270.755384771,318.606532511 L271.887956315,317.120032359 L272.171099201,313.226817676 L270.330670442,309.121245829 L258.721812114,307.988674285 L256.031954697,303.599959551 L254.899383153,298.928101931 L258.013954899,293.760744261 L258.155526342,282.859743149 L260.986955203,276.630599656 L265.446455658,274.719385175 L273.51602791,277.338456871 L278.046314086,275.568813834 L280.382242896,271.958742037 L283.001314592,270.755384771 L290.292243907,272.029527758 L295.318030134,271.534027708 L299.140459096,269.410456062 L300.343816362,264.597027 L303.175245222,262.190312468 L311.669531803,261.624026696 L315.208817878,262.473455354 L325.685104662,270.401456163 L335.311962787,272.312670644 L338.426534533,283.496814643 L336.232177167,287.460815047 L330.073819395,293.336029932 L328.87046213,300.343816362 L324.694104561,305.794316918 L329.295176459,309.545960158 L331.914248155,313.439174841 L344.089392254,346.70846395 L348.053392659,348.548892709 L352.866821721,342.744463545 L353.008393164,338.143391647 L350.601678633,332.62210537 L351.592678734,329.082819294 L358.317322277,326.392961877 L360.653251087,324.127818789 L363.767822833,317.403175245 L369.289109111,314.571746385 L373.819395288,309.970674487 L387.05632521,309.970674487 L392.789968652,316.058246537 L404.044898372,325.11881889 L412.114470624,329.295176459 L419.617757104,329.436747902 Z" fill="#cee3f5" id="GH.BA" stroke="#6e6e6e" stroke-width="0.4"><desc><labelrank>5</labelrank><code_hasc>GH.BA</code_hasc><name>Brong Ahafo</name><admin>Ghana</admin><type_en>Region</type_en><region /><woe_id>2345464</woe_id><longitude>-1</longitude><woe_name>Brong Ahafo</woe_name><fips>GH03</fips><woe_label>Brong-Ahafo, GH, Ghana</woe_label><latitude>8</latitude><iso_a2>GH</iso_a2><postal>BA</postal><type>Region</type><id>GH.BA</id></desc></path><path d="M327.808676307,571.807058348 L335.099605622,575.275558702 L341.257963394,586.672059864 L353.149964607,586.884417029 L358.388107999,589.149560117 L366.811608858,588.654060067 L379.199110122,591.485488927 L399.939326524,589.998988775 L407.796541612,592.405703307 L413.459399333,602.740418647 L420.467185762,607.483061988 L423.864900394,617.109920113 L414.521185155,624.47163515 L411.618970573,628.860349884 L407.72575589,631.267064415 L398.80675498,633.178278896 L394.418040247,635.868136313 L393.497825867,634.31085044 L386.490039438,638.770350895 L375.872181211,648.043280413 L367.731823238,649.246637678 L365.183537264,649.175851957 L363.62625139,647.760137527 L361.856608353,649.034280514 L356.54767924,649.883709172 L355.202750531,649.81292345 L354.282536151,647.830923248 L337.152391546,654.697138234 L334.958034179,657.245424209 L328.445747801,660.501567398 L319.102032561,661.138638892 L314.217817777,663.474567701 L309.687531601,663.474567701 L303.741530994,666.022853676 L296.167458793,667.084639498 L291.849529781,669.349782587 L290.929315401,661.138638892 L291.707958338,657.245424209 L294.327030033,652.14885226 L296.875316008,650.237637779 L302.113459399,649.246637678 L307.988674285,643.442208515 L305.794316918,640.610779654 L297.795530387,634.593993326 L294.043887147,627.72777834 L287.673172212,622.418849226 L286.894529275,616.685205784 L290.292243907,612.296491051 L287.673172212,608.190919203 L283.213671756,605.359490343 L277.480028314,604.580847406 L274.01152796,602.598847204 L271.463241986,602.598847204 L266.720598645,604.368490242 L264.950955607,603.80220447 L264.243098392,598.564061078 L265.658812822,590.423703104 L267.570027303,587.238345637 L264.667812721,584.902416827 L265.021741329,578.814844777 L262.685812519,574.638487208 L255.111740318,570.249772474 L247.466882395,560.268985742 L240.67145313,556.800485388 L237.627667105,551.562341996 L231.256952169,548.9432703 L227.646880372,546.324198605 L226.301951663,543.421984023 L226.655880271,538.750126403 L234.159166751,534.36141167 L237.273738497,530.043482657 L243.644453433,531.034482759 L243.078167661,537.900697745 L241.945596117,540.02426939 L243.50288199,548.44777025 L244.564667813,550.429770452 L247.042168066,550.358984731 L249.802811204,556.729699666 L254.474668824,560.976842957 L257.518454849,560.056628577 L260.491455152,560.835271514 L264.101526949,559.631914248 L265.800384265,560.764485792 L266.154312873,564.516129032 L269.622813227,567.135200728 L275.285670948,568.692486601 L279.674385681,571.736272626 L294.256244312,570.95762969 L297.087673172,571.665486905 L299.282030539,574.072201436 L297.653958944,575.346344423 L298.149458995,576.62048741 L301.830316513,578.390130448 L303.1044595,577.823844676 L303.670745273,574.638487208 L313.580746284,571.523915462 L320.234604106,572.727272727 L322.075032865,575.275558702 L325.189604611,574.142987157 L326.180604712,574.70927293 L327.808676307,571.807058348 Z" fill="#cee3f5" id="GH.CP" stroke="#6e6e6e" stroke-width="0.4"><desc><labelrank>5</labelrank><code_hasc>GH.CP</code_hasc><name>Central</name><admin>Ghana</admin><type_en>Region</type_en><region /><woe_id>2345465</woe_id><longitude>-1</longitude><woe_name>Central</woe_name><fips>GH04</fips><woe_label>Central, GH, Ghana</woe_label><latitude>5</latitude><iso_a2>GH</iso_a2><postal>CP</postal><type>Region</type><id>GH.CP</id></desc></path><path d="M487.076549702,435.190615836 L487.572049752,441.065830721 L485.306906664,448.710688644 L485.943978158,458.620689655 L480.351906158,464.991404591 L478.440691678,471.645262413 L479.573263222,474.193548387 L483.183335019,475.821619982 L485.306906664,478.228334513 L486.368692487,485.165335221 L485.448478107,486.793406816 L480.705834766,489.624835676 L477.59126302,493.164121751 L474.972191324,504.206694307 L481.059763373,505.480837294 L482.404692082,510.718980686 L486.085549601,514.541409647 L486.51026393,517.93912428 L482.546263525,528.910911113 L472.9194054,534.502983113 L474.476691273,539.670340783 L473.202548286,542.501769643 L472.9194054,546.253412883 L478.723834564,551.27919911 L490.049550005,551.916270604 L497.623622206,556.800485388 L497.906765093,568.480129437 L491.536050157,575.346344423 L488.633835575,576.549701689 L485.802406715,574.850844373 L482.829406411,570.95762969 L477.732834463,568.055415108 L474.547476995,563.241986045 L469.521690768,563.595914653 L463.434118718,567.20598645 L458.903832541,565.153200526 L456.284760845,572.514915563 L450.267974517,575.417130145 L446.445545556,584.831631105 L442.977045202,587.733845687 L441.136616443,588.087774295 L435.756901608,585.53948832 L428.961472343,590.423703104 L424.289614723,590.919203155 L417.989685509,588.583274345 L416.715542522,585.397916877 L410.769541915,585.610274042 L408.008898776,586.813631308 L407.796541612,592.405703307 L399.939326524,589.998988775 L379.199110122,591.485488927 L366.811608858,588.654060067 L358.388107999,589.149560117 L353.149964607,586.884417029 L341.257963394,586.672059864 L335.099605622,575.275558702 L327.808676307,571.807058348 L329.790676509,566.427343513 L327.667104864,565.790272019 L327.525533421,564.516129032 L331.560319547,553.544342198 L333.683891192,552.340984933 L332.126605319,548.44777025 L334.0378198,543.563555466 L333.259176863,540.095055112 L337.435534432,536.909697644 L341.54110628,524.239053494 L346.212963899,516.948124178 L365.820608757,495.712407726 L364.475680049,491.6776216 L359.237536657,486.439478208 L359.662250986,481.83840631 L366.457680251,478.228334513 L374.314895338,477.095762969 L376.509252705,475.75083426 L397.249469107,447.436545657 L414.521185155,446.516331277 L417.56497118,443.401759531 L425.492971989,440.287187784 L431.297401153,434.341187178 L439.508544848,432.57154414 L466.973404793,433.562544241 L473.910405501,436.181615937 L481.272120538,433.420972798 L487.076549702,435.190615836 Z" fill="#cee3f5" id="GH.EP" stroke="#6e6e6e" stroke-width="0.4"><desc><labelrank>5</labelrank><code_hasc>GH.EP</code_hasc><name>Eastern</name><admin>Ghana</admin><type_en>Region</type_en><region /><woe_id>2345466</woe_id><longitude>0</longitude><woe_name>Eastern</woe_name><fips>GH05</fips><woe_label>Eastern, GH, Ghana</woe_label><latitude>6</latitude><iso_a2>GH</iso_a2><postal>EP</postal><type>Region</type><id>GH.EP</id></desc></path><path d="M198.553948832,520.204267368 L198.200020224,522.823339064 L199.049448883,523.460410557 L202.093234907,523.389624836 L204.853878046,521.26605319 L206.481949641,517.302052786 L207.614521185,509.727980584 L209.030235615,507.038123167 L210.870664375,506.967337446 L215.967236323,509.657194863 L220.851451107,508.878551926 L221.91323693,511.568409344 L219.860451006,517.726767115 L220.143593892,520.77055314 L229.628880574,523.389624836 L233.238952371,529.68955405 L237.273738497,530.043482657 L234.159166751,534.36141167 L226.655880271,538.750126403 L226.301951663,543.421984023 L227.646880372,546.324198605 L231.256952169,548.9432703 L237.627667105,551.562341996 L240.67145313,556.800485388 L247.466882395,560.268985742 L255.111740318,570.249772474 L262.685812519,574.638487208 L265.021741329,578.814844777 L264.667812721,584.902416827 L267.570027303,587.238345637 L265.658812822,590.423703104 L264.243098392,598.564061078 L264.950955607,603.80220447 L266.720598645,604.368490242 L271.463241986,602.598847204 L274.01152796,602.598847204 L277.480028314,604.580847406 L283.213671756,605.359490343 L287.673172212,608.190919203 L290.292243907,612.296491051 L286.894529275,616.685205784 L287.673172212,622.418849226 L294.043887147,627.72777834 L297.795530387,634.593993326 L305.794316918,640.610779654 L307.988674285,643.442208515 L302.113459399,649.246637678 L296.875316008,650.237637779 L294.327030033,652.14885226 L291.707958338,657.245424209 L290.929315401,661.138638892 L291.849529781,669.349782587 L286.399029224,668.995853979 L285.054100516,670.057639802 L285.620386288,672.605925776 L284.700171908,674.233997371 L275.427242391,679.330569319 L272.241884923,682.799069673 L272.171099201,684.781069876 L262.685812519,687.187784407 L254.262311659,690.939427647 L248.245525331,697.734856912 L234.796238245,700.0 L233.309738093,699.150571342 L232.885023764,695.823642431 L227.717666094,694.691070887 L222.125594094,689.382141774 L218.798665184,687.754070179 L217.029022146,684.49792699 L205.703306704,680.109212256 L187.228233391,676.286783295 L169.248660127,670.128425523 L155.020730104,668.995853979 L139.235514208,666.23521084 L122.388512489,661.138638892 L122.884012539,659.368995854 L124.653655577,658.802710082 L133.71422793,658.661138639 L136.05015674,659.368995854 L138.598442714,662.341996157 L140.084942866,662.129638993 L143.482657498,660.855496006 L143.199514612,657.882495702 L146.243300637,656.608352715 L152.543229851,654.909495399 L159.409444838,654.767923956 L160.966730711,653.635352412 L162.028516534,651.65335221 L159.692587724,649.3174234 L160.117302053,645.141065831 L157.781373243,640.186065325 L158.56001618,633.39063606 L163.656588128,633.815350389 L165.001516837,630.5592072 L161.603802204,621.64020629 L158.206087572,604.934776014 L156.790373142,603.80220447 L149.003943776,601.749418546 L141.571443017,604.863990292 L138.952371322,603.448275862 L138.38608555,600.616847002 L139.518657094,593.821417737 L132.440084943,594.387703509 L133.289513601,578.03620184 L126.21094145,562.463343109 L122.954798261,544.271412681 L120.689655172,538.183840631 L115.87622611,533.299625847 L107.45272525,494.792193346 L108.37293963,491.819193043 L110.992011326,489.978764284 L113.186368692,484.032763677 L109.647082617,477.59126302 L109.78865406,473.627262615 L124.299726969,448.07361715 L125.644655678,447.224188492 L127.555870159,455.506117909 L130.387299019,459.257761149 L133.71422793,459.965618364 L138.38608555,458.195975326 L140.792800081,458.195975326 L145.747800587,460.7442613 L148.508443725,463.504904439 L153.463444231,475.042977045 L154.383658611,480.42269188 L153.109515623,484.315906563 L154.879158661,491.394478714 L159.834159167,493.305693194 L164.576802508,496.774193548 L171.301446051,496.84497927 L174.628374962,497.906765093 L177.247446658,503.144908484 L183.335018708,506.401051674 L188.643947821,517.160481343 L193.528162605,517.797552836 L198.553948832,520.204267368 Z" fill="#cee3f5" id="GH.WP" stroke="#6e6e6e" stroke-width="0.4"><desc><labelrank>5</labelrank><code_hasc>GH.WP</code_hasc><name>Western</name><admin>Ghana</admin><type_en>Region</type_en><region /><woe_id>2345469</woe_id><longitude>-2</longitude><woe_name>Western</woe_name><fips>GH09</fips><woe_label>Western, GH, Ghana</woe_label><latitude>5</latitude><iso_a2>GH</iso_a2><postal>WP</postal><type>Region</type><id>GH.WP</id></desc></path><path d="M536.555769036,588.512488624 L502.861765598,586.176559814 L495.570836283,587.025988472 L493.164121751,588.512488624 L490.545050056,588.654060067 L487.572049752,590.423703104 L480.281120437,592.405703307 L475.609262817,596.369703711 L471.362119527,597.573060977 L466.83183335,602.952775812 L458.195975326,605.854990393 L455.57690363,608.120133482 L429.527758115,616.189705734 L423.864900394,617.109920113 L420.467185762,607.483061988 L413.459399333,602.740418647 L407.796541612,592.405703307 L408.008898776,586.813631308 L410.769541915,585.610274042 L416.715542522,585.397916877 L417.989685509,588.583274345 L424.289614723,590.919203155 L428.961472343,590.423703104 L435.756901608,585.53948832 L441.136616443,588.087774295 L442.977045202,587.733845687 L446.445545556,584.831631105 L450.267974517,575.417130145 L456.284760845,572.514915563 L458.903832541,565.153200526 L463.434118718,567.20598645 L469.521690768,563.595914653 L474.547476995,563.241986045 L477.732834463,568.055415108 L482.829406411,570.95762969 L485.802406715,574.850844373 L488.633835575,576.549701689 L491.536050157,575.346344423 L497.906765093,568.480129437 L499.888765295,565.507129133 L505.976337345,562.392557387 L515.673981191,562.746485995 L525.725553645,565.294771969 L527.707553848,567.135200728 L532.804125796,579.097987663 L541.510769542,584.548488219 L541.086055213,586.318131257 L536.555769036,588.512488624 Z" fill="#cee3f5" id="GH.AA" stroke="#6e6e6e" stroke-width="0.4"><desc><labelrank>9</labelrank><code_hasc>GH.AA</code_hasc><name>Greater Accra</name><admin>Ghana</admin><type_en>Region</type_en><region /><woe_id>2345462</woe_id><longitude>0</longitude><woe_name>Greater Accra</woe_name><fips>GH01</fips><woe_label>Greater Accra, GH, Ghana</woe_label><latitude>5</latitude><iso_a2>GH</iso_a2><postal>AA</postal><type>Region</type><id>GH.AA</id></desc></path><path d="M502.224694105,261.482455253 L502.93255132,265.446455658 L506.117908788,272.241884923 L510.506623521,278.258671251 L522.18626757,287.743957933 L529.264839721,291.070886844 L532.591768632,299.211244817 L536.768126201,302.60895945 L537.263626251,308.201031449 L539.387197897,309.121245829 L539.811912226,311.811103246 L539.033269289,313.509960562 L532.52098291,316.69531803 L524.805339266,322.145818586 L524.663767823,323.561533016 L526.928910911,327.95024775 L524.946910709,330.78167661 L526.999696633,342.602892102 L529.194053999,377.075538477 L526.008696531,376.580038427 L524.663767823,378.774395793 L523.743553443,386.631610881 L518.009910001,389.533825463 L516.948124178,392.082111437 L516.594195571,398.382040651 L517.160481343,403.761755486 L518.930124381,408.575184548 L522.327839013,411.548184852 L524.309839215,411.831327738 L530.468196987,409.920113257 L532.945697239,418.060471231 L530.397411265,429.456972394 L527.849125291,436.040044494 L527.919911012,449.91404591 L525.796339367,453.66568915 L516.664981292,456.284760845 L522.327839013,462.655475781 L519.071695824,470.58347659 L521.761553241,473.273334007 L525.654767924,480.068763272 L531.034482759,482.970977854 L532.096268581,486.51026393 L531.176054202,492.031550207 L531.742339974,494.296693296 L535.706340378,498.402265143 L540.732126605,498.614622308 L542.147841035,499.959551016 L540.448983719,506.330265952 L544.200626959,514.18748104 L546.536555769,516.523409849 L554.676913743,520.912124583 L559.631914248,526.221053696 L570.178986753,526.787339468 L573.081201335,535.493983214 L580.726059258,543.846698352 L591.273131763,545.545555668 L592.54727475,547.315198706 L592.334917585,551.137627667 L582.849630903,557.012842552 L577.328344625,562.958843159 L573.435129942,570.178986753 L571.665486905,579.664273435 L567.276772171,584.973202548 L562.888057438,586.4597027 L542.006269592,588.937202953 L536.555769036,588.512488624 L541.086055213,586.318131257 L541.510769542,584.548488219 L532.804125796,579.097987663 L527.707553848,567.135200728 L525.725553645,565.294771969 L515.673981191,562.746485995 L505.976337345,562.392557387 L499.888765295,565.507129133 L497.906765093,568.480129437 L497.623622206,556.800485388 L490.049550005,551.916270604 L478.723834564,551.27919911 L472.9194054,546.253412883 L473.202548286,542.501769643 L474.476691273,539.670340783 L472.9194054,534.502983113 L482.546263525,528.910911113 L486.51026393,517.93912428 L486.085549601,514.541409647 L482.404692082,510.718980686 L481.059763373,505.480837294 L474.972191324,504.206694307 L477.59126302,493.164121751 L480.705834766,489.624835676 L485.448478107,486.793406816 L486.368692487,485.165335221 L485.306906664,478.228334513 L483.183335019,475.821619982 L479.573263222,474.193548387 L478.440691678,471.645262413 L480.351906158,464.991404591 L485.943978158,458.620689655 L485.306906664,448.710688644 L487.572049752,441.065830721 L487.076549702,435.190615836 L486.722621094,429.881686723 L488.987764182,420.82111437 L488.492264132,416.14925675 L486.085549601,413.530185054 L477.449691576,409.849327536 L476.529477197,408.64597027 L475.396905653,399.373040752 L466.902619072,383.941753463 L463.717261604,374.314895338 L461.806047123,372.686823744 L456.355546567,371.341895035 L454.444332086,369.643037719 L451.542117504,364.829608656 L450.40954596,358.671250885 L445.666902619,347.770249772 L443.118616645,344.230963697 L427.970472242,332.126605319 L419.617757104,329.436747902 L425.422186268,321.437961371 L428.465972292,321.508747093 L432.217615532,320.234604106 L436.677115987,321.8626757 L440.428759227,321.579532814 L444.251188189,318.394175346 L446.303974113,312.518960461 L449.843260188,309.758317322 L454.727474972,308.059460006 L459.611689756,308.484174335 L463.646475882,309.970674487 L473.698048337,318.323389625 L481.130549095,317.898675296 L483.961977955,316.836889473 L483.041763576,309.545960158 L483.891192234,308.554960057 L488.633835575,307.917888563 L489.058549904,305.015673981 L487.288906866,302.255030842 L485.731620993,301.617959349 L476.317120032,302.962888057 L472.990191121,301.971887956 L472.423905349,295.318030134 L476.175548589,292.982101325 L472.707048235,289.796743857 L472.707048235,287.460815047 L475.892405703,280.594600061 L477.095762969,279.886742846 L479.927191829,280.736171504 L481.272120538,279.886742846 L478.299120235,274.153099403 L483.112549297,265.163312772 L482.192334918,263.039741127 L482.829406411,261.34088381 L487.572049752,259.642026494 L492.456264536,261.694812418 L497.906765093,260.916169481 L502.224694105,261.482455253 Z" fill="#cee3f5" id="GH.TV" stroke="#6e6e6e" stroke-width="0.4"><desc><labelrank>5</labelrank><code_hasc>GH.TV</code_hasc><name>Volta</name><admin>Ghana</admin><type_en>Region</type_en><region /><woe_id>2345468</woe_id><longitude>0</longitude><woe_name>Volta</woe_name><fips>GH08</fips><woe_label>Volta, GH, Ghana</woe_label><latitude>7</latitude><iso_a2>GH</iso_a2><postal>TV</postal><type>Region</type><id>GH.TV</id></desc></path></svg>