<?xml version='1.0' encoding='utf-8'?>
<svg height="700" width="700" xmlns="http://www.w3.org/2000/svg"><path d="M460.070671378,286.307420495 L457.597173145,288.780918728 L451.413427562,287.544169611 L446.466431095,282.597173145 L431.625441696,276.413427562 L431.625441696,261.572438163 L460.070671378,261.572438163 L460.070671378,286.307420495 Z" fill="#cee3f5" id="US.MD.510" stroke="#6e6e6e" stroke-width="0.4"><desc><name>Baltimore city</name><stateAbbrev>MD</stateAbbrev><state>Maryland</state><fips>510</fips><incits>24510</incits><id>US.MD.510</id><population>622104</population></desc></path><path d="M602.296819788,432.243816254 L641.872791519,429.770318021 L643.109540636,426.060070671 L648.056537102,423.586572438 L650.530035336,419.876325088 L646.819787986,416.166077739 L649.293286219,412.455830389 L645.583038869,405.035335689 L665.371024735,405.035335689 L700.0,405.035335689 L698.763250883,413.692579505 L693.816254417,427.296819788 L691.342756184,431.007067138 L690.106007067,434.717314488 L682.685512367,449.558303887 L677.738515901,461.925795053 L671.554770318,470.583038869 L660.424028269,470.583038869 L639.399293286,473.056537102 L601.060070671,476.766784452 L602.296819788,474.293286219 L596.113074205,470.583038869 L594.876325088,469.346289753 L601.060070671,466.872791519 L602.296819788,464.399293286 L608.480565371,464.399293286 L609.717314488,461.925795053 L613.427561837,460.689045936 L612.190812721,456.978798587 L608.480565371,453.268551237 L612.190812721,449.558303887 L613.427561837,447.084805654 L608.480565371,440.901060071 L607.243816254,440.901060071 L603.533568905,435.954063604 L602.296819788,432.243816254 Z" fill="#cee3f5" id="US.MD.047" stroke="#6e6e6e" stroke-width="0.4"><desc><name>Worcester County</name><stateAbbrev>MD</stateAbbrev><state>Maryland</state><fips>047</fips><incits>24047</incits><id>US.MD.047</id><population>51620</population></desc></path><path d="M551.590106007,442.137809187 L552.826855124,439.664310954 L554.06360424,437.190812721 L554.06360424,428.533568905 L555.300353357,426.060070671 L560.247349823,422.349823322 L565.19434629,419.876325088 L563.957597173,416.166077739 L567.667844523,414.929328622 L566.431095406,412.455830389 L566.431095406,409.982332155 L568.90459364,409.982332155 L570.141342756,406.272084806 L568.90459364,403.798586572 L571.378091873,402.561837456 L571.378091873,400.088339223 L575.088339223,398.851590106 L580.035335689,396.378091873 L582.508833922,391.431095406 L584.982332155,391.431095406 L588.692579505,387.720848057 L589.929328622,403.798586572 L607.243816254,403.798586572 L633.215547703,405.035335689 L645.583038869,405.035335689 L649.293286219,412.455830389 L646.819787986,416.166077739 L650.530035336,419.876325088 L648.056537102,423.586572438 L643.109540636,426.060070671 L641.872791519,429.770318021 L602.296819788,432.243816254 L594.876325088,428.533568905 L592.402826855,429.770318021 L589.929328622,432.243816254 L586.219081272,433.480565371 L583.745583039,431.007067138 L578.798586572,431.007067138 L576.325088339,433.480565371 L572.614840989,435.954063604 L567.667844523,435.954063604 L563.957597173,438.427561837 L561.48409894,440.901060071 L551.590106007,442.137809187 Z" fill="#cee3f5" id="US.MD.045" stroke="#6e6e6e" stroke-width="0.4"><desc><name>Wicomico County</name><stateAbbrev>MD</stateAbbrev><state>Maryland</state><fips>045</fips><incits>24045</incits><id>US.MD.045</id><population>100896</population></desc></path><path d="M505.830388693,492.844522968 L510.777385159,465.636042403 L530.565371025,465.636042403 L537.985865724,452.03180212 L546.643109541,449.558303887 L546.643109541,444.61130742 L551.590106007,442.137809187 L561.48409894,440.901060071 L563.957597173,438.427561837 L567.667844523,435.954063604 L572.614840989,435.954063604 L576.325088339,433.480565371 L578.798586572,431.007067138 L583.745583039,431.007067138 L586.219081272,433.480565371 L589.929328622,432.243816254 L592.402826855,429.770318021 L594.876325088,428.533568905 L602.296819788,432.243816254 L603.533568905,435.954063604 L607.243816254,440.901060071 L608.480565371,440.901060071 L613.427561837,447.084805654 L612.190812721,449.558303887 L608.480565371,453.268551237 L612.190812721,456.978798587 L613.427561837,460.689045936 L609.717314488,461.925795053 L608.480565371,464.399293286 L602.296819788,464.399293286 L601.060070671,466.872791519 L594.876325088,469.346289753 L596.113074205,470.583038869 L602.296819788,474.293286219 L601.060070671,476.766784452 L597.349823322,480.477031802 L597.349823322,484.187279152 L589.929328622,481.713780919 L580.035335689,484.187279152 L573.851590106,489.134275618 L560.247349823,489.134275618 L550.35335689,490.371024735 L551.590106007,484.187279152 L542.932862191,482.950530035 L534.275618375,482.950530035 L505.830388693,492.844522968 Z" fill="#cee3f5" id="US.MD.039" stroke="#6e6e6e" stroke-width="0.4"><desc><name>Somerset County</name><stateAbbrev>MD</stateAbbrev><state>Maryland</state><fips>039</fips><incits>24039</incits><id>US.MD.039</id><population>26273</population></desc></path><path d="M474.911660777,386.48409894 L482.332155477,385.247349823 L489.752650177,380.300353357 L492.22614841,375.35335689 L497.173144876,372.879858657 L505.830388693,372.879858657 L508.303886926,375.35335689 L514.487632509,375.35335689 L520.671378092,376.590106007 L521.908127208,381.537102473 L530.565371025,382.77385159 L533.038869258,385.247349823 L536.749116608,386.48409894 L541.696113074,382.77385159 L544.169611307,382.77385159 L545.406360424,376.590106007 L547.879858657,375.35335689 L550.35335689,370.406360424 L560.247349823,366.696113074 L567.667844523,365.459363958 L573.851590106,366.696113074 L573.851590106,370.406360424 L581.272084806,370.406360424 L587.455830389,375.35335689 L587.455830389,376.590106007 L588.692579505,387.720848057 L584.982332155,391.431095406 L582.508833922,391.431095406 L580.035335689,396.378091873 L575.088339223,398.851590106 L571.378091873,400.088339223 L571.378091873,402.561837456 L568.90459364,403.798586572 L570.141342756,406.272084806 L568.90459364,409.982332155 L566.431095406,409.982332155 L566.431095406,412.455830389 L567.667844523,414.929328622 L563.957597173,416.166077739 L565.19434629,419.876325088 L560.247349823,422.349823322 L555.300353357,426.060070671 L554.06360424,428.533568905 L554.06360424,437.190812721 L552.826855124,439.664310954 L551.590106007,442.137809187 L546.643109541,444.61130742 L546.643109541,449.558303887 L537.985865724,452.03180212 L530.565371025,465.636042403 L510.777385159,465.636042403 L512.014134276,463.16254417 L493.462897527,428.533568905 L492.22614841,424.823321555 L489.752650177,414.929328622 L477.385159011,398.851590106 L476.148409894,396.378091873 L474.911660777,386.48409894 Z" fill="#cee3f5" id="US.MD.019" stroke="#6e6e6e" stroke-width="0.4"><desc><name>Dorchester County</name><stateAbbrev>MD</stateAbbrev><state>Maryland</state><fips>019</fips><incits>24019</incits><id>US.MD.019</id><population>32660</population></desc></path><path d="M550.35335689,333.303886926 L550.35335689,328.356890459 L551.590106007,325.883392226 L552.826855124,322.173144876 L559.010600707,317.22614841 L562.720848057,311.042402827 L566.431095406,308.568904594 L567.667844523,302.385159011 L575.088339223,298.674911661 L581.272084806,297.438162544 L583.745583039,329.593639576 L587.455830389,376.590106007 L587.455830389,375.35335689 L581.272084806,370.406360424 L573.851590106,370.406360424 L573.851590106,366.696113074 L567.667844523,365.459363958 L560.247349823,366.696113074 L550.35335689,370.406360424 L547.879858657,369.169611307 L545.406360424,366.696113074 L540.459363958,362.985865724 L542.932862191,360.512367491 L542.932862191,358.038869258 L550.35335689,354.328621908 L552.826855124,351.855123675 L557.77385159,349.381625442 L557.77385159,346.908127208 L554.06360424,344.434628975 L554.06360424,341.961130742 L550.35335689,338.250883392 L550.35335689,333.303886926 Z" fill="#cee3f5" id="US.MD.011" stroke="#6e6e6e" stroke-width="0.4"><desc><name>Caroline County</name><stateAbbrev>MD</stateAbbrev><state>Maryland</state><fips>011</fips><incits>24011</incits><id>US.MD.011</id><population>32693</population></desc></path><path d="M473.674911661,350.618374558 L479.858657244,350.618374558 L484.80565371,349.381625442 L494.699646643,341.961130742 L498.409893993,341.961130742 L500.883392226,339.487632509 L504.593639576,339.487632509 L509.540636042,346.908127208 L513.250883392,340.724381625 L515.724381625,340.724381625 L516.961130742,338.250883392 L526.855123675,338.250883392 L524.381625442,334.540636042 L525.618374558,330.830388693 L526.855123675,328.356890459 L545.406360424,332.067137809 L550.35335689,333.303886926 L550.35335689,338.250883392 L554.06360424,341.961130742 L554.06360424,344.434628975 L557.77385159,346.908127208 L557.77385159,349.381625442 L552.826855124,351.855123675 L550.35335689,354.328621908 L542.932862191,358.038869258 L542.932862191,360.512367491 L540.459363958,362.985865724 L545.406360424,366.696113074 L547.879858657,369.169611307 L550.35335689,370.406360424 L547.879858657,375.35335689 L545.406360424,376.590106007 L544.169611307,382.77385159 L541.696113074,382.77385159 L536.749116608,386.48409894 L533.038869258,385.247349823 L530.565371025,382.77385159 L521.908127208,381.537102473 L520.671378092,376.590106007 L514.487632509,375.35335689 L508.303886926,375.35335689 L505.830388693,372.879858657 L497.173144876,372.879858657 L492.22614841,375.35335689 L489.752650177,380.300353357 L482.332155477,385.247349823 L474.911660777,386.48409894 L471.201413428,365.459363958 L473.674911661,350.618374558 Z" fill="#cee3f5" id="US.MD.041" stroke="#6e6e6e" stroke-width="0.4"><desc><name>Talbot County</name><stateAbbrev>MD</stateAbbrev><state>Maryland</state><fips>041</fips><incits>24041</incits><id>US.MD.041</id><population>37931</population></desc></path><path d="M473.674911661,350.618374558 L474.911660777,345.671378092 L478.621908127,335.777385159 L486.042402827,319.699646643 L488.51590106,311.042402827 L499.64664311,307.332155477 L500.883392226,309.80565371 L499.64664311,315.989399293 L508.303886926,320.93639576 L510.777385159,320.93639576 L514.487632509,318.462897527 L510.777385159,313.51590106 L512.014134276,311.042402827 L516.961130742,306.09540636 L519.434628975,303.621908127 L524.381625442,303.621908127 L528.091872792,299.911660777 L530.565371025,297.438162544 L535.512367491,293.727915194 L535.512367491,291.254416961 L531.802120141,290.017667845 L534.275618375,286.307420495 L540.459363958,282.597173145 L547.879858657,281.360424028 L551.590106007,282.597173145 L554.06360424,281.360424028 L560.247349823,281.360424028 L563.957597173,278.886925795 L567.667844523,280.123674912 L573.851590106,282.597173145 L580.035335689,281.360424028 L581.272084806,297.438162544 L575.088339223,298.674911661 L567.667844523,302.385159011 L566.431095406,308.568904594 L562.720848057,311.042402827 L559.010600707,317.22614841 L552.826855124,322.173144876 L551.590106007,325.883392226 L550.35335689,328.356890459 L550.35335689,333.303886926 L545.406360424,332.067137809 L526.855123675,328.356890459 L525.618374558,330.830388693 L524.381625442,334.540636042 L526.855123675,338.250883392 L516.961130742,338.250883392 L515.724381625,340.724381625 L513.250883392,340.724381625 L509.540636042,346.908127208 L504.593639576,339.487632509 L500.883392226,339.487632509 L498.409893993,341.961130742 L494.699646643,341.961130742 L484.80565371,349.381625442 L479.858657244,350.618374558 L473.674911661,350.618374558 Z" fill="#cee3f5" id="US.MD.035" stroke="#6e6e6e" stroke-width="0.4"><desc><name>Queen Annes County</name><stateAbbrev>MD</stateAbbrev><state>Maryland</state><fips>035</fips><incits>24035</incits><id>US.MD.035</id><population>48517</population></desc></path><path d="M488.51590106,296.201413428 L500.883392226,280.123674912 L507.067137809,270.229681979 L515.724381625,264.045936396 L523.144876325,259.098939929 L530.565371025,256.625441696 L535.512367491,260.335689046 L542.932862191,261.572438163 L545.406360424,262.809187279 L547.879858657,261.572438163 L551.590106007,262.809187279 L565.19434629,262.809187279 L570.141342756,260.335689046 L578.798586572,261.572438163 L580.035335689,281.360424028 L573.851590106,282.597173145 L567.667844523,280.123674912 L563.957597173,278.886925795 L560.247349823,281.360424028 L554.06360424,281.360424028 L551.590106007,282.597173145 L547.879858657,281.360424028 L540.459363958,282.597173145 L534.275618375,286.307420495 L531.802120141,290.017667845 L535.512367491,291.254416961 L535.512367491,293.727915194 L530.565371025,297.438162544 L528.091872792,299.911660777 L524.381625442,303.621908127 L519.434628975,303.621908127 L516.961130742,306.09540636 L512.014134276,311.042402827 L510.777385159,313.51590106 L514.487632509,318.462897527 L510.777385159,320.93639576 L508.303886926,320.93639576 L499.64664311,315.989399293 L500.883392226,309.80565371 L499.64664311,307.332155477 L488.51590106,311.042402827 L488.51590106,299.911660777 L488.51590106,296.201413428 Z" fill="#cee3f5" id="US.MD.029" stroke="#6e6e6e" stroke-width="0.4"><desc><name>Kent County</name><stateAbbrev>MD</stateAbbrev><state>Maryland</state><fips>029</fips><incits>24029</incits><id>US.MD.029</id><population>19944</population></desc></path><path d="M505.830388693,207.155477032 L575.088339223,207.155477032 L575.088339223,218.286219081 L578.798586572,261.572438163 L570.141342756,260.335689046 L565.19434629,262.809187279 L551.590106007,262.809187279 L547.879858657,261.572438163 L545.406360424,262.809187279 L542.932862191,261.572438163 L535.512367491,260.335689046 L530.565371025,256.625441696 L534.275618375,254.151943463 L536.749116608,246.731448763 L535.512367491,241.784452297 L529.328621908,233.127208481 L521.908127208,224.469964664 L519.434628975,223.233215548 L516.961130742,218.286219081 L509.540636042,213.339222615 L505.830388693,207.155477032 Z" fill="#cee3f5" id="US.MD.015" stroke="#6e6e6e" stroke-width="0.4"><desc><name>Cecil County</name><stateAbbrev>MD</stateAbbrev><state>Maryland</state><fips>015</fips><incits>24015</incits><id>US.MD.015</id><population>101913</population></desc></path><path d="M453.886925795,207.155477032 L505.830388693,207.155477032 L509.540636042,213.339222615 L516.961130742,218.286219081 L519.434628975,223.233215548 L521.908127208,224.469964664 L529.328621908,233.127208481 L535.512367491,241.784452297 L536.749116608,246.731448763 L534.275618375,254.151943463 L530.565371025,256.625441696 L523.144876325,259.098939929 L515.724381625,264.045936396 L507.067137809,270.229681979 L500.883392226,280.123674912 L489.752650177,275.176678445 L490.989399293,273.939929329 L494.699646643,271.466431095 L493.462897527,266.519434629 L490.989399293,264.045936396 L492.22614841,261.572438163 L487.279151943,259.098939929 L483.568904594,254.151943463 L483.568904594,250.441696113 L481.09540636,247.96819788 L472.438162544,240.54770318 L465.017667845,238.074204947 L462.544169611,238.074204947 L460.070671378,235.600706714 L457.597173145,228.180212014 L455.123674912,224.469964664 L453.886925795,207.155477032 Z" fill="#cee3f5" id="US.MD.025" stroke="#6e6e6e" stroke-width="0.4"><desc><name>Harford County</name><stateAbbrev>MD</stateAbbrev><state>Maryland</state><fips>025</fips><incits>24025</incits><id>US.MD.025</id><population>249215</population></desc></path><path d="M353.71024735,208.392226148 L384.628975265,207.155477032 L420.494699647,207.155477032 L409.363957597,235.600706714 L406.890459364,243.021201413 L405.653710247,245.494699647 L403.180212014,251.67844523 L405.653710247,255.38869258 L403.180212014,260.335689046 L405.653710247,265.282685512 L400.706713781,265.282685512 L392.049469965,262.809187279 L383.392226148,265.282685512 L379.681978799,262.809187279 L371.024734982,262.809187279 L367.314487633,262.809187279 L363.604240283,265.282685512 L361.130742049,264.045936396 L362.367491166,261.572438163 L363.604240283,254.151943463 L366.077738516,252.915194346 L368.551236749,245.494699647 L369.787985866,243.021201413 L363.604240283,236.83745583 L361.130742049,236.83745583 L361.130742049,234.363957597 L356.183745583,229.416961131 L352.473498233,229.416961131 L347.526501767,225.706713781 L342.5795053,225.706713781 L338.869257951,223.233215548 L343.816254417,221.996466431 L345.053003534,217.049469965 L350.0,214.575971731 L348.763250883,212.102473498 L353.71024735,208.392226148 Z" fill="#cee3f5" id="US.MD.013" stroke="#6e6e6e" stroke-width="0.4"><desc><name>Carroll County</name><stateAbbrev>MD</stateAbbrev><state>Maryland</state><fips>013</fips><incits>24013</incits><id>US.MD.013</id><population>167564</population></desc></path><path d="M361.130742049,264.045936396 L363.604240283,265.282685512 L367.314487633,262.809187279 L371.024734982,262.809187279 L379.681978799,262.809187279 L383.392226148,265.282685512 L392.049469965,262.809187279 L400.706713781,265.282685512 L405.653710247,265.282685512 L409.363957597,270.229681979 L419.25795053,271.466431095 L421.731448763,273.939929329 L419.25795053,277.650176678 L425.441696113,281.360424028 L426.67844523,283.833922261 L434.098939929,286.307420495 L430.38869258,291.254416961 L426.67844523,291.254416961 L420.494699647,297.438162544 L420.494699647,299.911660777 L414.310954064,301.148409894 L411.83745583,303.621908127 L406.890459364,302.385159011 L404.416961131,298.674911661 L400.706713781,299.911660777 L390.812720848,294.964664311 L387.102473498,293.727915194 L385.865724382,287.544169611 L379.681978799,282.597173145 L377.208480565,280.123674912 L371.024734982,278.886925795 L366.077738516,277.650176678 L366.077738516,275.176678445 L359.893992933,271.466431095 L357.4204947,266.519434629 L361.130742049,264.045936396 Z" fill="#cee3f5" id="US.MD.027" stroke="#6e6e6e" stroke-width="0.4"><desc><name>Howard County</name><stateAbbrev>MD</stateAbbrev><state>Maryland</state><fips>027</fips><incits>24027</incits><id>US.MD.027</id><population>304580</population></desc></path><path d="M411.83745583,303.621908127 L414.310954064,301.148409894 L420.494699647,299.911660777 L420.494699647,297.438162544 L426.67844523,291.254416961 L430.38869258,291.254416961 L434.098939929,286.307420495 L440.282685512,283.833922261 L443.992932862,285.070671378 L446.466431095,282.597173145 L451.413427562,287.544169611 L457.597173145,288.780918728 L460.070671378,286.307420495 L462.544169611,288.780918728 L488.51590106,296.201413428 L488.51590106,299.911660777 L488.51590106,311.042402827 L486.042402827,319.699646643 L478.621908127,335.777385159 L474.911660777,345.671378092 L473.674911661,350.618374558 L471.201413428,365.459363958 L460.070671378,364.222614841 L458.833922261,362.985865724 L448.939929329,362.985865724 L445.229681979,361.749116608 L445.229681979,355.565371025 L441.519434629,355.565371025 L435.335689046,359.275618375 L431.625441696,354.328621908 L431.625441696,349.381625442 L434.098939929,346.908127208 L434.098939929,345.671378092 L435.335689046,340.724381625 L437.809187279,339.487632509 L437.809187279,334.540636042 L435.335689046,332.067137809 L434.098939929,322.173144876 L427.915194346,318.462897527 L425.441696113,313.51590106 L420.494699647,312.279151943 L416.784452297,309.80565371 L413.074204947,309.80565371 L414.310954064,306.09540636 L411.83745583,303.621908127 Z" fill="#cee3f5" id="US.MD.003" stroke="#6e6e6e" stroke-width="0.4"><desc><name>Anne Arundel County</name><stateAbbrev>MD</stateAbbrev><state>Maryland</state><fips>003</fips><incits>24003</incits><id>US.MD.003</id><population>555743</population></desc></path><path d="M420.494699647,207.155477032 L453.886925795,207.155477032 L455.123674912,224.469964664 L457.597173145,228.180212014 L460.070671378,235.600706714 L462.544169611,238.074204947 L465.017667845,238.074204947 L472.438162544,240.54770318 L481.09540636,247.96819788 L483.568904594,250.441696113 L483.568904594,254.151943463 L487.279151943,259.098939929 L492.22614841,261.572438163 L490.989399293,264.045936396 L493.462897527,266.519434629 L494.699646643,271.466431095 L490.989399293,273.939929329 L489.752650177,275.176678445 L500.883392226,280.123674912 L488.51590106,296.201413428 L462.544169611,288.780918728 L460.070671378,286.307420495 L460.070671378,261.572438163 L431.625441696,261.572438163 L431.625441696,276.413427562 L446.466431095,282.597173145 L443.992932862,285.070671378 L440.282685512,283.833922261 L434.098939929,286.307420495 L426.67844523,283.833922261 L425.441696113,281.360424028 L419.25795053,277.650176678 L421.731448763,273.939929329 L419.25795053,271.466431095 L409.363957597,270.229681979 L405.653710247,265.282685512 L403.180212014,260.335689046 L405.653710247,255.38869258 L403.180212014,251.67844523 L405.653710247,245.494699647 L406.890459364,243.021201413 L409.363957597,235.600706714 L420.494699647,207.155477032 Z" fill="#cee3f5" id="US.MD.005" stroke="#6e6e6e" stroke-width="0.4"><desc><name>Baltimore County</name><stateAbbrev>MD</stateAbbrev><state>Maryland</state><fips>005</fips><incits>24005</incits><id>US.MD.005</id><population>823015</population></desc></path><path d="M435.335689046,359.275618375 L441.519434629,355.565371025 L445.229681979,355.565371025 L445.229681979,361.749116608 L448.939929329,362.985865724 L458.833922261,362.985865724 L460.070671378,364.222614841 L471.201413428,365.459363958 L474.911660777,386.48409894 L476.148409894,396.378091873 L477.385159011,398.851590106 L489.752650177,414.929328622 L492.22614841,424.823321555 L482.332155477,424.823321555 L478.621908127,426.060070671 L472.438162544,427.296819788 L467.491166078,422.349823322 L465.017667845,418.639575972 L461.307420495,414.929328622 L455.123674912,413.692579505 L447.703180212,408.745583039 L440.282685512,403.798586572 L441.519434629,401.325088339 L437.809187279,397.614840989 L439.045936396,392.667844523 L437.809187279,391.431095406 L437.809187279,388.957597173 L436.572438163,384.010600707 L437.809187279,379.06360424 L435.335689046,376.590106007 L436.572438163,372.879858657 L434.098939929,371.643109541 L432.862190813,364.222614841 L436.572438163,360.512367491 L435.335689046,359.275618375 Z" fill="#cee3f5" id="US.MD.009" stroke="#6e6e6e" stroke-width="0.4"><desc><name>Calvert County</name><stateAbbrev>MD</stateAbbrev><state>Maryland</state><fips>009</fips><incits>24009</incits><id>US.MD.009</id><population>90484</population></desc></path><path d="M437.809187279,397.614840989 L441.519434629,401.325088339 L440.282685512,403.798586572 L447.703180212,408.745583039 L455.123674912,413.692579505 L461.307420495,414.929328622 L465.017667845,418.639575972 L467.491166078,422.349823322 L472.438162544,427.296819788 L478.621908127,426.060070671 L482.332155477,424.823321555 L492.22614841,424.823321555 L493.462897527,428.533568905 L512.014134276,463.16254417 L510.777385159,465.636042403 L505.830388693,492.844522968 L500.883392226,489.134275618 L489.752650177,484.187279152 L478.621908127,480.477031802 L469.964664311,473.056537102 L462.544169611,470.583038869 L462.544169611,468.109540636 L458.833922261,463.16254417 L452.650176678,460.689045936 L448.939929329,458.215547703 L447.703180212,452.03180212 L432.862190813,450.795053004 L418.021201413,449.558303887 L411.83745583,449.558303887 L406.890459364,448.32155477 L413.074204947,435.954063604 L414.310954064,433.480565371 L410.600706714,424.823321555 L409.363957597,423.586572438 L410.600706714,418.639575972 L406.890459364,416.166077739 L414.310954064,407.508833922 L421.731448763,396.378091873 L422.96819788,395.141342756 L431.625441696,396.378091873 L434.098939929,397.614840989 L437.809187279,397.614840989 Z" fill="#cee3f5" id="US.MD.037" stroke="#6e6e6e" stroke-width="0.4"><desc><name>St. Marys County</name><stateAbbrev>MD</stateAbbrev><state>Maryland</state><fips>037</fips><incits>24037</incits><id>US.MD.037</id><population>109633</population></desc></path><path d="M373.498233216,365.459363958 L379.681978799,379.06360424 L383.392226148,374.116607774 L393.286219081,372.879858657 L401.943462898,374.116607774 L405.653710247,372.879858657 L409.363957597,372.879858657 L426.67844523,379.06360424 L427.915194346,388.957597173 L437.809187279,391.431095406 L439.045936396,392.667844523 L437.809187279,397.614840989 L434.098939929,397.614840989 L431.625441696,396.378091873 L422.96819788,395.141342756 L421.731448763,396.378091873 L414.310954064,407.508833922 L406.890459364,416.166077739 L410.600706714,418.639575972 L409.363957597,423.586572438 L410.600706714,424.823321555 L414.310954064,433.480565371 L413.074204947,435.954063604 L406.890459364,448.32155477 L400.706713781,444.61130742 L394.522968198,443.374558304 L393.286219081,439.664310954 L393.286219081,435.954063604 L389.575971731,432.243816254 L387.102473498,432.243816254 L382.155477032,427.296819788 L384.628975265,423.586572438 L384.628975265,417.402826855 L380.918727915,412.455830389 L378.445229682,413.692579505 L373.498233216,417.402826855 L364.840989399,418.639575972 L362.367491166,421.113074205 L348.763250883,423.586572438 L345.053003534,423.586572438 L342.5795053,422.349823322 L342.5795053,419.876325088 L340.106007067,417.402826855 L336.395759717,407.508833922 L337.632508834,401.325088339 L338.869257951,398.851590106 L342.5795053,393.90459364 L345.053003534,388.957597173 L347.526501767,387.720848057 L348.763250883,382.77385159 L356.183745583,379.06360424 L366.077738516,376.590106007 L366.077738516,374.116607774 L366.077738516,370.406360424 L367.314487633,369.169611307 L373.498233216,365.459363958 Z" fill="#cee3f5" id="US.MD.017" stroke="#6e6e6e" stroke-width="0.4"><desc><name>Charles County</name><stateAbbrev>MD</stateAbbrev><state>Maryland</state><fips>017</fips><incits>24017</incits><id>US.MD.017</id><population>152864</population></desc></path><path d="M373.498233216,365.459363958 L378.445229682,365.459363958 L379.681978799,364.222614841 L380.918727915,351.855123675 L400.706713781,337.014134276 L387.102473498,324.64664311 L389.575971731,323.409893993 L388.339222615,320.93639576 L404.416961131,298.674911661 L406.890459364,302.385159011 L411.83745583,303.621908127 L414.310954064,306.09540636 L413.074204947,309.80565371 L416.784452297,309.80565371 L420.494699647,312.279151943 L425.441696113,313.51590106 L427.915194346,318.462897527 L434.098939929,322.173144876 L435.335689046,332.067137809 L437.809187279,334.540636042 L437.809187279,339.487632509 L435.335689046,340.724381625 L434.098939929,345.671378092 L434.098939929,346.908127208 L431.625441696,349.381625442 L431.625441696,354.328621908 L435.335689046,359.275618375 L436.572438163,360.512367491 L432.862190813,364.222614841 L434.098939929,371.643109541 L436.572438163,372.879858657 L435.335689046,376.590106007 L437.809187279,379.06360424 L436.572438163,384.010600707 L437.809187279,388.957597173 L437.809187279,391.431095406 L427.915194346,388.957597173 L426.67844523,379.06360424 L409.363957597,372.879858657 L405.653710247,372.879858657 L401.943462898,374.116607774 L393.286219081,372.879858657 L383.392226148,374.116607774 L379.681978799,379.06360424 L373.498233216,365.459363958 Z" fill="#cee3f5" id="US.MD.033" stroke="#6e6e6e" stroke-width="0.4"><desc><name>Prince Georges County</name><stateAbbrev>MD</stateAbbrev><state>Maryland</state><fips>033</fips><incits>24033</incits><id>US.MD.033</id><population>890081</population></desc></path><path d="M315.371024735,285.070671378 L325.265017668,281.360424028 L361.130742049,264.045936396 L357.4204947,266.519434629 L359.893992933,271.466431095 L366.077738516,275.176678445 L366.077738516,277.650176678 L371.024734982,278.886925795 L377.208480565,280.123674912 L379.681978799,282.597173145 L385.865724382,287.544169611 L387.102473498,293.727915194 L390.812720848,294.964664311 L400.706713781,299.911660777 L404.416961131,298.674911661 L388.339222615,320.93639576 L389.575971731,323.409893993 L387.102473498,324.64664311 L380.918727915,320.93639576 L368.551236749,329.593639576 L363.604240283,325.883392226 L356.183745583,324.64664311 L348.763250883,322.173144876 L347.526501767,319.699646643 L348.763250883,315.989399293 L343.816254417,314.752650177 L341.342756184,312.279151943 L333.922261484,309.80565371 L326.501766784,309.80565371 L315.371024735,307.332155477 L311.660777385,302.385159011 L305.477031802,301.148409894 L305.477031802,298.674911661 L307.950530035,291.254416961 L312.897526502,290.017667845 L312.897526502,287.544169611 L315.371024735,285.070671378 Z" fill="#cee3f5" id="US.MD.031" stroke="#6e6e6e" stroke-width="0.4"><desc><name>Montgomery County</name><stateAbbrev>MD</stateAbbrev><state>Maryland</state><fips>031</fips><incits>24031</incits><id>US.MD.031</id><population>1016677</population></desc></path><path d="M281.978798587,268.992932862 L281.978798587,266.519434629 L285.689045936,260.335689046 L288.16254417,250.441696113 L290.636042403,246.731448763 L291.872791519,243.021201413 L290.636042403,240.54770318 L291.872791519,238.074204947 L294.346289753,235.600706714 L298.056537102,223.233215548 L304.240282686,221.996466431 L310.424028269,214.575971731 L309.187279152,212.102473498 L314.134275618,207.155477032 L353.71024735,208.392226148 L348.763250883,212.102473498 L350.0,214.575971731 L345.053003534,217.049469965 L343.816254417,221.996466431 L338.869257951,223.233215548 L342.5795053,225.706713781 L347.526501767,225.706713781 L352.473498233,229.416961131 L356.183745583,229.416961131 L361.130742049,234.363957597 L361.130742049,236.83745583 L363.604240283,236.83745583 L369.787985866,243.021201413 L368.551236749,245.494699647 L366.077738516,252.915194346 L363.604240283,254.151943463 L362.367491166,261.572438163 L361.130742049,264.045936396 L325.265017668,281.360424028 L315.371024735,285.070671378 L311.660777385,281.360424028 L303.003533569,278.886925795 L299.293286219,275.176678445 L298.056537102,271.466431095 L294.346289753,272.703180212 L286.925795053,271.466431095 L281.978798587,268.992932862 Z" fill="#cee3f5" id="US.MD.021" stroke="#6e6e6e" stroke-width="0.4"><desc><name>Frederick County</name><stateAbbrev>MD</stateAbbrev><state>Maryland</state><fips>021</fips><incits>24021</incits><id>US.MD.021</id><population>241409</population></desc></path><path d="M178.091872792,207.155477032 L221.378091873,207.155477032 L269.61130742,207.155477032 L314.134275618,207.155477032 L309.187279152,212.102473498 L310.424028269,214.575971731 L304.240282686,221.996466431 L298.056537102,223.233215548 L294.346289753,235.600706714 L291.872791519,238.074204947 L290.636042403,240.54770318 L291.872791519,243.021201413 L290.636042403,246.731448763 L288.16254417,250.441696113 L285.689045936,260.335689046 L281.978798587,266.519434629 L281.978798587,268.992932862 L278.268551237,270.229681979 L273.32155477,270.229681979 L269.61130742,267.756183746 L270.848056537,262.809187279 L269.61130742,260.335689046 L272.084805654,259.098939929 L269.61130742,254.151943463 L263.427561837,252.915194346 L264.664310954,250.441696113 L263.427561837,243.021201413 L256.007067138,241.784452297 L253.533568905,239.310954064 L252.296819788,235.600706714 L249.823321555,234.363957597 L251.060070671,231.890459364 L256.007067138,231.890459364 L257.243816254,228.180212014 L256.007067138,225.706713781 L249.823321555,224.469964664 L248.586572438,226.943462898 L241.166077739,224.469964664 L237.455830389,224.469964664 L234.982332155,226.943462898 L230.035335689,225.706713781 L226.325088339,220.759717314 L220.141342756,215.812720848 L215.19434629,213.339222615 L202.826855124,212.102473498 L200.35335689,214.575971731 L195.406360424,214.575971731 L196.643109541,217.049469965 L191.696113074,219.522968198 L190.459363958,223.233215548 L186.749116608,223.233215548 L179.328621908,220.759717314 L178.091872792,218.286219081 L179.328621908,213.339222615 L181.802120141,214.575971731 L181.802120141,210.865724382 L178.091872792,207.155477032 Z" fill="#cee3f5" id="US.MD.043" stroke="#6e6e6e" stroke-width="0.4"><desc><name>Washington County</name><stateAbbrev>MD</stateAbbrev><state>Maryland</state><fips>043</fips><incits>24043</incits><id>US.MD.043</id><population>149588</population></desc></path><path d="M65.5477031802,245.494699647 L86.5724381625,207.155477032 L147.173144876,207.155477032 L178.091872792,207.155477032 L181.802120141,210.865724382 L181.802120141,214.575971731 L179.328621908,213.339222615 L178.091872792,218.286219081 L179.328621908,220.759717314 L176.855123675,219.522968198 L169.434628975,224.469964664 L165.724381625,223.233215548 L164.487632509,224.469964664 L169.434628975,228.180212014 L166.961130742,229.416961131 L162.014134276,228.180212014 L160.777385159,230.653710247 L164.487632509,233.127208481 L163.250883392,235.600706714 L160.777385159,235.600706714 L158.303886926,239.310954064 L149.64664311,238.074204947 L143.462897527,239.310954064 L134.80565371,235.600706714 L129.858657244,236.83745583 L123.674911661,234.363957597 L118.727915194,231.890459364 L117.491166078,230.653710247 L113.780918728,229.416961131 L110.070671378,225.706713781 L115.017667845,225.706713781 L107.597173145,220.759717314 L107.597173145,224.469964664 L102.650176678,228.180212014 L103.886925795,233.127208481 L100.176678445,231.890459364 L95.2296819788,238.074204947 L90.2826855124,241.784452297 L89.0459363958,244.25795053 L81.6254416961,247.96819788 L82.8621908127,251.67844523 L71.7314487633,247.96819788 L70.4946996466,245.494699647 L65.5477031802,245.494699647 Z" fill="#cee3f5" id="US.MD.001" stroke="#6e6e6e" stroke-width="0.4"><desc><name>Allegany County</name><stateAbbrev>MD</stateAbbrev><state>Maryland</state><fips>001</fips><incits>24001</incits><id>US.MD.001</id><population>73521</population></desc></path><path d="M86.5724381625,207.155477032 L65.5477031802,245.494699647 L60.6007067138,247.96819788 L59.3639575972,250.441696113 L55.6537102473,252.915194346 L55.6537102473,255.38869258 L50.7067137809,255.38869258 L46.9964664311,260.335689046 L44.5229681979,259.098939929 L42.0494699647,262.809187279 L39.5759717314,262.809187279 L35.8657243816,264.045936396 L35.8657243816,267.756183746 L32.1554770318,268.992932862 L30.9187279152,272.703180212 L27.2084805654,272.703180212 L24.7349823322,272.703180212 L21.0247349823,276.413427562 L14.8409893993,278.886925795 L9.89399293286,283.833922261 L2.47349823322,288.780918728 L0.0,287.544169611 L0.0,278.886925795 L0.0,266.519434629 L1.23674911661,236.83745583 L1.23674911661,236.83745583 L1.23674911661,207.155477032 L34.628975265,207.155477032 L86.5724381625,207.155477032 Z" fill="#cee3f5" id="US.MD.023" stroke="#6e6e6e" stroke-width="0.4"><desc><name>Garrett County</name><stateAbbrev>MD</stateAbbrev><state>Maryland</state><fips>023</fips><incits>24023</incits><id>US.MD.023</id><population>29889</population></desc></path></svg>