<?xml version='1.0' encoding='utf-8'?>
<svg height="700" width="700" xmlns="http://www.w3.org/2000/svg"><path d="M518.782282047,163.03020817 L510.017217092,193.707935514 L465.315385819,232.493347942 L435.514164971,248.708718109 L484.050712162,290.342776647 L482.516825794,337.235874159 L450.195648771,353.779934262 L454.468617937,374.706526843 L493.582720301,378.869932697 L493.473156989,417.655345124 L502.238221944,459.946783534 L490.73407419,461.042416654 L471.779621224,455.892940992 L451.729535139,444.936609798 L415.792768821,449.866958835 L399.139145406,426.639536704 L389.278447331,427.516043199 L387.306307716,424.776960401 L375.473470027,431.898575677 L375.144780091,437.70543121 L368.680544686,442.416653623 L360.025043043,442.307090311 L354.21818751,427.844733135 L324.30740335,438.25324777 L301.299107842,433.980278604 L295.930505556,439.239317577 L289.466270152,441.211457192 L296.478322116,406.041634059 L285.083737674,396.400062608 L268.320550947,209.26592581 L252.433870715,24.5421818751 L323.21177023,25.9665049303 L422.147440914,96.7444044451 L518.782282047,163.03020817 Z" fill="#cee3f5" id="ML.TB" stroke="#6e6e6e" stroke-width="0.4"><desc><labelrank>4</labelrank><code_hasc>ML.TB</code_hasc><name>Timbuktu</name><admin>Mali</admin><type_en>Region</type_en><region /><woe_id>2346187</woe_id><longitude>-3</longitude><woe_name>Timbuktu</woe_name><fips>ML08</fips><woe_label>Tombouctou, ML, Mali</woe_label><latitude>19</latitude><iso_a2>ML</iso_a2><postal>TB</postal><type>Région</type><id>ML.TB</id></desc></path><path d="M699.561746752,327.813429332 L604.570355298,330.990765378 L597.33917671,340.741900141 L572.468304899,346.987008922 L545.406166849,325.403036469 L523.822194397,300.64172797 L484.050712162,290.342776647 L435.514164971,248.708718109 L465.315385819,232.493347942 L510.017217092,193.707935514 L518.782282047,163.03020817 L566.442322742,194.694005322 L567.099702614,210.580685553 L584.082015965,216.387541086 L593.39489748,228.98732196 L605.665988418,232.602911254 L611.034590703,229.754265143 L619.580529034,239.067146658 L653.106902489,248.270464861 L656.393801847,267.224917828 L650.258256378,278.509938958 L658.037251526,284.426357802 L697.260917201,276.428236031 L699.561746752,327.813429332 Z" fill="#cee3f5" id="ML.KD" stroke="#6e6e6e" stroke-width="0.4"><desc><labelrank>4</labelrank><code_hasc>ML.KD</code_hasc><name>Kidal</name><admin>Mali</admin><type_en>Region</type_en><region /><woe_id>55999799</woe_id><longitude>1</longitude><woe_name>Kidal</woe_name><fips>ML10</fips><woe_label>Kidal, ML, Mali</woe_label><latitude>19</latitude><iso_a2>ML</iso_a2><postal>KD</postal><type>Région</type><id>ML.KD</id></desc></path><path d="M699.561746752,327.813429332 L700.0,396.619189231 L694.960087651,401.987791517 L687.728909062,427.954296447 L673.376115198,438.034121146 L672.718735326,444.279229926 L652.449522617,441.759273752 L651.134762874,445.59398967 L580.028173423,449.757395524 L565.017999687,462.904992957 L552.089528878,465.315385819 L533.0255126,463.124119581 L532.915949288,466.849272187 L513.413679762,460.385036782 L505.41555799,463.233682892 L502.238221944,459.946783534 L493.473156989,417.655345124 L493.582720301,378.869932697 L454.468617937,374.706526843 L450.195648771,353.779934262 L482.516825794,337.235874159 L484.050712162,290.342776647 L523.822194397,300.64172797 L545.406166849,325.403036469 L572.468304899,346.987008922 L597.33917671,340.741900141 L604.570355298,330.990765378 L699.561746752,327.813429332 Z" fill="#cee3f5" id="ML.GA" stroke="#6e6e6e" stroke-width="0.4"><desc><labelrank>6</labelrank><code_hasc>ML.GA</code_hasc><name>Gao</name><admin>Mali</admin><type_en>Region</type_en><region /><woe_id>2346181</woe_id><longitude>1</longitude><woe_name>Gao</woe_name><fips>ML09</fips><woe_label>Gao, ML, Mali</woe_label><latitude>16</latitude><iso_a2>ML</iso_a2><postal>GA</postal><type>Région</type><id>ML.GA</id></desc></path><path d="M181.655971201,569.510095477 L178.040381906,566.661449366 L179.683831586,562.498043512 L183.518547504,564.251056503 L181.655971201,569.510095477 Z" fill="#cee3f5" id="ML.KK" stroke="#6e6e6e" stroke-width="0.4"><desc><labelrank>6</labelrank><code_hasc>ML.KK</code_hasc><name>Bamako</name><admin>Mali</admin><type_en>District</type_en><region /><woe_id>2346180</woe_id><longitude>-8</longitude><woe_name>Bamako</woe_name><fips>ML01</fips><woe_label>Bamako, ML, Mali</woe_label><latitude>12</latitude><iso_a2>ML</iso_a2><postal>KK</postal><type>District</type><id>ML.KK</id></desc></path><path d="M134.872437001,438.581937705 L149.006104242,449.976522147 L151.416497104,459.72765691 L161.277195179,462.685866333 L162.044138363,472.875254343 L176.068242291,483.94114885 L176.725622163,490.405384254 L162.153701675,491.829707309 L157.990295821,486.78979496 L147.691344498,492.048833933 L149.663484113,498.732195962 L145.719204883,506.072937862 L155.360776334,512.098920019 L157.661605885,507.278134293 L162.044138363,508.483330725 L157.880732509,518.891845359 L162.263264987,530.395993113 L157.223352637,540.256691188 L155.251213022,557.348567851 L142.432305525,563.922366568 L136.296760056,574.550007826 L120.300516513,571.263108468 L122.710909375,580.247300047 L110.00156519,584.301142589 L105.728596024,590.54625137 L82.3916105807,581.452496478 L71.6544060103,585.615902332 L62.779777743,595.367037095 L52.6999530443,580.575989983 L42.0723117859,589.341054938 L35.8272030052,588.574111755 L28.486461105,581.123806542 L33.9646267021,572.687431523 L30.7872906558,565.565816247 L34.8411331977,546.830489905 L28.7055877289,540.3662545 L25.6378149945,529.300359994 L20.1596493974,526.999530443 L16.3249334794,531.272499609 L5.25903897324,513.30411645 L11.2850211301,507.935514165 L10.4085146345,493.034903741 L1.09563311942,482.735952418 L3.94427922993,471.670057912 L0.0,465.644075755 L8.21724839568,467.725778682 L19.2831429019,460.82329003 L18.7353263422,448.44263578 L24.4326185632,432.665518861 L33.3072468305,428.502113007 L58.5068085772,453.372984818 L67.1623102207,439.129754265 L95.100954766,443.074033495 L122.710909375,440.663640632 L121.724839568,434.089841916 L125.997808734,429.378619502 L125.997808734,438.25324777 L134.872437001,438.581937705 Z" fill="#cee3f5" id="ML.KY" stroke="#6e6e6e" stroke-width="0.4"><desc><labelrank>6</labelrank><code_hasc>ML.KY</code_hasc><name>Kayes</name><admin>Mali</admin><type_en>Region</type_en><region /><woe_id>2346182</woe_id><longitude>-10</longitude><woe_name>Kayes</woe_name><fips>ML03</fips><woe_label>Kayes, ML, Mali</woe_label><latitude>13</latitude><iso_a2>ML</iso_a2><postal>KY</postal><type>Région</type><id>ML.KY</id></desc></path><path d="M332.962904993,563.703239944 L335.373297856,581.671623102 L331.867271874,581.014243231 L328.251682579,589.012365002 L320.034434184,594.709657223 L305.900766943,595.805290343 L291.876663015,602.269525747 L297.2452653,605.446861794 L300.09391141,620.128345594 L295.053999061,633.275943027 L287.713257161,635.357645954 L290.781029895,645.327907341 L288.480200344,658.913758022 L286.617624041,663.734543747 L271.169197057,665.706683362 L265.143214901,673.814368446 L255.50164345,670.965722335 L258.131162936,663.624980435 L254.625136954,659.571137893 L257.145093129,654.531225544 L254.95382689,650.258256378 L247.503521678,651.901706057 L246.627015182,657.70856159 L236.985443731,653.216465801 L236.875880419,666.035373298 L224.166536234,666.583189858 L221.756143371,675.457818125 L206.636406323,670.417905776 L200.82955079,661.324150884 L193.707935514,662.091094068 L186.476756926,671.951792143 L179.35514165,674.03349507 L179.245578338,666.69275317 L169.165753639,662.310220692 L166.426670841,657.270308342 L165.440601033,635.905462514 L157.661605885,634.481139458 L149.334794177,638.315855376 L158.428549069,624.620441384 L163.468461418,623.963061512 L156.565972766,616.731882924 L161.386758491,608.62419784 L176.944748787,606.980748161 L198.638284552,594.490530599 L218.797933949,574.988261074 L220.112693692,593.39489748 L224.823916106,595.038347159 L225.700422601,600.078259509 L246.188761935,609.500704336 L251.666927532,593.175770856 L255.830333386,591.094067929 L260.103302551,593.94271404 L269.087494131,585.287212396 L268.868367507,581.452496478 L257.802473,576.850837377 L255.720770074,570.057912036 L285.193300986,558.99201753 L291.328846455,568.195335733 L298.450461731,559.978087338 L303.819064016,562.278916888 L307.105963375,569.7292221 L319.596180936,567.757082486 L325.950853029,561.950226953 L332.962904993,563.703239944 Z" fill="#cee3f5" id="ML.SK" stroke="#6e6e6e" stroke-width="0.4"><desc><labelrank>6</labelrank><code_hasc>ML.SK</code_hasc><name>Sikasso</name><admin>Mali</admin><type_en>Region</type_en><region /><woe_id>2346185</woe_id><longitude>-6</longitude><woe_name>Sikasso</woe_name><fips>ML06</fips><woe_label>Sikasso, ML, Mali</woe_label><latitude>11</latitude><iso_a2>ML</iso_a2><postal>SK</postal><type>Région</type><id>ML.SK</id></desc></path><path d="M490.73407419,461.042416654 L477.696040069,472.546564408 L451.510408515,485.913288465 L438.691501017,487.008921584 L437.048051338,499.718265769 L418.860541556,495.445296604 L413.053686023,497.965252778 L401.549538269,507.716387541 L400.344341838,522.945687901 L393.003599937,524.917827516 L383.58115511,520.973548286 L385.224604789,538.722804821 L376.678666458,539.81843794 L376.678666458,544.091407106 L354.327750822,534.449835655 L354.546877446,530.067303177 L348.301768665,510.345907028 L341.070590077,514.728439505 L336.578494287,523.055251213 L316.528408202,525.465644076 L316.637971514,508.812020661 L301.518234465,507.716387541 L302.504304273,499.827829081 L298.450461731,494.240100172 L282.344654876,483.831585538 L287.494130537,466.411018939 L299.217404915,464.658005948 L306.667710127,455.016434497 L303.161684145,442.964470183 L295.930505556,439.239317577 L301.299107842,433.980278604 L324.30740335,438.25324777 L354.21818751,427.844733135 L360.025043043,442.307090311 L368.680544686,442.416653623 L375.144780091,437.70543121 L375.473470027,431.898575677 L387.306307716,424.776960401 L389.278447331,427.516043199 L399.139145406,426.639536704 L415.792768821,449.866958835 L451.729535139,444.936609798 L471.779621224,455.892940992 L490.73407419,461.042416654 Z" fill="#cee3f5" id="ML.MO" stroke="#6e6e6e" stroke-width="0.4"><desc><labelrank>6</labelrank><code_hasc>ML.MO</code_hasc><name>Mopti</name><admin>Mali</admin><type_en>Region</type_en><region /><woe_id>2346183</woe_id><longitude>-3</longitude><woe_name>Mopti</woe_name><fips>ML22</fips><woe_label>Mopti, ML, Mali</woe_label><latitude>14</latitude><iso_a2>ML</iso_a2><postal>MO</postal><type>Région</type><id>ML.MO</id></desc></path><path d="M354.546877446,530.067303177 L338.002817342,546.173110033 L343.152293004,553.623415245 L342.93316638,562.607606824 L332.962904993,563.703239944 L325.950853029,561.950226953 L319.596180936,567.757082486 L307.105963375,569.7292221 L303.819064016,562.278916888 L298.450461731,559.978087338 L291.328846455,568.195335733 L285.193300986,558.99201753 L255.720770074,570.057912036 L240.162779778,558.772890906 L229.096885272,560.525903897 L228.98732196,554.280795117 L220.660510252,549.350446079 L225.590859289,536.96979183 L236.656753796,530.505556425 L228.98732196,517.357958992 L229.206448584,506.51119111 L241.587102833,486.022851776 L248.380028173,487.118484896 L251.666927532,483.283768978 L244.983565503,465.205822507 L254.95382689,441.211457192 L289.466270152,441.211457192 L295.930505556,439.239317577 L303.161684145,442.964470183 L306.667710127,455.016434497 L299.217404915,464.658005948 L287.494130537,466.411018939 L282.344654876,483.831585538 L298.450461731,494.240100172 L302.504304273,499.827829081 L301.518234465,507.716387541 L316.637971514,508.812020661 L316.528408202,525.465644076 L336.578494287,523.055251213 L341.070590077,514.728439505 L348.301768665,510.345907028 L354.546877446,530.067303177 Z" fill="#cee3f5" id="ML.SG" stroke="#6e6e6e" stroke-width="0.4"><desc><labelrank>4</labelrank><code_hasc>ML.SG</code_hasc><name>Ségou</name><admin>Mali</admin><type_en>Region</type_en><region /><woe_id>2346184</woe_id><longitude>-5</longitude><woe_name>Ségou</woe_name><fips>ML05</fips><woe_label>Segou, ML, Mali</woe_label><latitude>13</latitude><iso_a2>ML</iso_a2><postal>SG</postal><type>Région</type><id>ML.SG</id></desc></path><path d="M254.95382689,441.211457192 L244.983565503,465.205822507 L251.666927532,483.283768978 L248.380028173,487.118484896 L241.587102833,486.022851776 L229.206448584,506.51119111 L228.98732196,517.357958992 L236.656753796,530.505556425 L225.590859289,536.96979183 L220.660510252,549.350446079 L228.98732196,554.280795117 L229.096885272,560.525903897 L240.162779778,558.772890906 L255.720770074,570.057912036 L257.802473,576.850837377 L268.868367507,581.452496478 L269.087494131,585.287212396 L260.103302551,593.94271404 L255.830333386,591.094067929 L251.666927532,593.175770856 L246.188761935,609.500704336 L225.700422601,600.078259509 L224.823916106,595.038347159 L220.112693692,593.39489748 L218.797933949,574.988261074 L198.638284552,594.490530599 L176.944748787,606.980748161 L161.386758491,608.62419784 L156.565972766,616.731882924 L151.416497104,614.869306621 L148.567850994,608.07638128 L143.308812021,607.638128033 L145.719204883,595.914853655 L140.46016591,590.54625137 L136.296760056,574.550007826 L142.432305525,563.922366568 L155.251213022,557.348567851 L157.223352637,540.256691188 L162.263264987,530.395993113 L157.880732509,518.891845359 L162.044138363,508.483330725 L157.661605885,507.278134293 L155.360776334,512.098920019 L145.719204883,506.072937862 L149.663484113,498.732195962 L147.691344498,492.048833933 L157.990295821,486.78979496 L162.153701675,491.829707309 L176.725622163,490.405384254 L176.068242291,483.94114885 L162.044138363,472.875254343 L161.277195179,462.685866333 L151.416497104,459.72765691 L149.006104242,449.976522147 L134.872437001,438.581937705 L254.95382689,441.211457192 Z" fill="#cee3f5" id="ML.2897" stroke="#6e6e6e" stroke-width="0.4"><desc><labelrank>6</labelrank><code_hasc>ML.KK</code_hasc><name>Koulikoro</name><admin>Mali</admin><type_en>Region</type_en><region /><woe_id>2346186</woe_id><longitude>-7</longitude><woe_name>Koulikoro</woe_name><fips>ML07</fips><woe_label>Koulikoro, ML, Mali</woe_label><latitude>13</latitude><iso_a2>ML</iso_a2><postal>KK</postal><type>Région</type><id>ML.2897</id></desc></path></svg>