<?xml version='1.0' encoding='utf-8'?>
<svg height="700" width="700" xmlns="http://www.w3.org/2000/svg"><path d="M561.676646707,463.173652695 L592.415169661,440.818363273 L599.401197605,438.72255489 L603.592814371,439.421157685 L601.497005988,445.00998004 L598.70259481,449.201596806 L595.908183633,471.556886228 L560.279441118,470.858283433 L561.676646707,463.173652695 Z" fill="#cee3f5" id="US.VA.800" stroke="#6e6e6e" stroke-width="0.4"><desc><name>Suffolk city</name><stateAbbrev>VA</stateAbbrev><state>Virginia</state><fips>800</fips><incits>51800</incits><id>US.VA.800</id><population>85728</population></desc></path><path d="M514.870259481,417.764471058 L515.568862275,414.97005988 L515.568862275,414.97005988 L515.568862275,414.97005988 L515.568862275,414.97005988 L515.568862275,414.97005988 L516.26746507,414.97005988 L516.26746507,414.97005988 L516.966067864,414.97005988 L516.966067864,414.97005988 L516.966067864,414.97005988 L516.966067864,414.97005988 L516.966067864,414.97005988 L516.966067864,414.97005988 L516.966067864,414.97005988 L516.966067864,414.97005988 L517.664670659,414.271457086 L518.363273453,414.271457086 L518.363273453,414.271457086 L518.363273453,414.271457086 L518.363273453,414.271457086 L518.363273453,414.271457086 L518.363273453,414.271457086 L518.363273453,414.271457086 L519.061876248,414.271457086 L519.760479042,413.572854291 L521.856287425,413.572854291 L525.349301397,417.065868263 L524.650698603,419.161676647 L523.952095808,419.161676647 L523.952095808,419.161676647 L523.952095808,419.161676647 L523.952095808,419.161676647 L523.253493014,419.161676647 L522.55489022,419.161676647 L522.55489022,419.161676647 L522.55489022,419.161676647 L522.55489022,419.161676647 L521.856287425,419.161676647 L521.856287425,418.463073852 L521.157684631,418.463073852 L521.157684631,419.161676647 L520.459081836,419.161676647 L519.760479042,419.161676647 L519.760479042,419.161676647 L519.760479042,419.161676647 L519.760479042,419.161676647 L519.760479042,419.161676647 L517.664670659,419.860279441 L514.870259481,417.764471058 Z" fill="#cee3f5" id="US.VA.730" stroke="#6e6e6e" stroke-width="0.4"><desc><name>Petersburg city</name><stateAbbrev>VA</stateAbbrev><state>Virginia</state><fips>730</fips><incits>51730</incits><id>US.VA.730</id><population>32538</population></desc></path><path d="M370.958083832,394.710578842 L379.341317365,400.998003992 L371.656686627,405.189620758 L364.670658683,403.79241517 L364.670658683,396.107784431 L370.958083832,394.710578842 Z" fill="#cee3f5" id="US.VA.680" stroke="#6e6e6e" stroke-width="0.4"><desc><name>Lynchburg city</name><stateAbbrev>VA</stateAbbrev><state>Virginia</state><fips>680</fips><incits>51680</incits><id>US.VA.680</id><population>78014</population></desc></path><path d="M617.564870259,447.105788423 L625.249500998,430.339321357 L644.111776447,434.530938124 L642.714570858,438.72255489 L646.906187625,454.790419162 L653.892215569,471.556886228 L626.646706587,471.556886228 L626.646706587,461.776447106 L630.838323353,459.680638723 L624.550898204,454.091816367 L619.660678643,452.694610778 L617.564870259,447.105788423 Z" fill="#cee3f5" id="US.VA.810" stroke="#6e6e6e" stroke-width="0.4"><desc><name>Virginia Beach city</name><stateAbbrev>VA</stateAbbrev><state>Virginia</state><fips>810</fips><incits>51810</incits><id>US.VA.810</id><population>448479</population></desc></path><path d="M608.483033932,440.119760479 L609.181636727,436.626746507 L625.249500998,430.339321357 L617.564870259,447.105788423 L616.167664671,447.804391218 L616.167664671,447.804391218 L612.674650699,448.502994012 L608.483033932,440.119760479 Z" fill="#cee3f5" id="US.VA.710" stroke="#6e6e6e" stroke-width="0.4"><desc><name>Norfolk city</name><stateAbbrev>VA</stateAbbrev><state>Virginia</state><fips>710</fips><incits>51710</incits><id>US.VA.710</id><population>246139</population></desc></path><path d="M601.497005988,445.00998004 L603.592814371,439.421157685 L604.291417166,438.023952096 L608.483033932,440.119760479 L612.674650699,448.502994012 L611.27744511,450.598802395 L611.27744511,450.598802395 L609.880239521,450.598802395 L609.181636727,451.29740519 L601.497005988,445.00998004 Z" fill="#cee3f5" id="US.VA.740" stroke="#6e6e6e" stroke-width="0.4"><desc><name>Portsmouth city</name><stateAbbrev>VA</stateAbbrev><state>Virginia</state><fips>740</fips><incits>51740</incits><id>US.VA.740</id><population>96205</population></desc></path><path d="M472.954091816,265.469061876 L481.337325349,259.181636727 L484.131736527,255.688622754 L491.816367265,240.319361277 L505.788423154,241.017964072 L507.884231537,244.510978044 L514.870259481,248.003992016 L509.281437126,254.99001996 L514.870259481,260.578842315 L526.047904192,261.976047904 L508.582834331,279.441117764 L498.80239521,271.756487026 L472.954091816,265.469061876 Z" fill="#cee3f5" id="US.VA.107" stroke="#6e6e6e" stroke-width="0.4"><desc><name>Loudoun County</name><stateAbbrev>VA</stateAbbrev><state>Virginia</state><fips>107</fips><incits>51107</incits><id>US.VA.107</id><population>349679</population></desc></path><path d="M508.582834331,279.441117764 L526.047904192,261.976047904 L532.335329341,264.071856287 L533.033932136,268.263473054 L540.718562874,269.660678643 L543.512974052,272.45508982 L538.622754491,275.249500998 L540.718562874,277.345309381 L544.211576846,279.441117764 L549.800399202,284.331337325 L549.800399202,289.920159681 L542.115768463,294.111776447 L542.115768463,296.906187625 L534.431137725,299.700598802 L531.636726547,292.714570858 L518.363273453,287.125748503 L516.26746507,283.632734531 L508.582834331,279.441117764 Z" fill="#cee3f5" id="US.VA.059" stroke="#6e6e6e" stroke-width="0.4"><desc><name>Fairfax County</name><stateAbbrev>VA</stateAbbrev><state>Virginia</state><fips>059</fips><incits>51059</incits><id>US.VA.059</id><population>1130924</population></desc></path><path d="M544.211576846,279.441117764 L549.101796407,280.139720559 L549.800399202,284.331337325 L544.211576846,279.441117764 Z" fill="#cee3f5" id="US.VA.510" stroke="#6e6e6e" stroke-width="0.4"><desc><name>Alexandria city</name><stateAbbrev>VA</stateAbbrev><state>Virginia</state><fips>510</fips><incits>51510</incits><id>US.VA.510</id><population>148892</population></desc></path><path d="M538.622754491,275.249500998 L543.512974052,272.45508982 L549.800399202,277.345309381 L549.101796407,280.139720559 L544.211576846,279.441117764 L540.718562874,277.345309381 L538.622754491,275.249500998 Z" fill="#cee3f5" id="US.VA.013" stroke="#6e6e6e" stroke-width="0.4"><desc><name>Arlington County</name><stateAbbrev>VA</stateAbbrev><state>Virginia</state><fips>013</fips><incits>51013</incits><id>US.VA.013</id><population>224906</population></desc></path><path d="M498.80239521,271.756487026 L508.582834331,279.441117764 L516.26746507,283.632734531 L518.363273453,287.125748503 L531.636726547,292.714570858 L534.431137725,299.700598802 L528.143712575,308.083832335 L521.157684631,305.988023952 L515.568862275,301.796407186 L509.281437126,303.892215569 L493.213572854,280.838323353 L498.80239521,271.756487026 Z" fill="#cee3f5" id="US.VA.153" stroke="#6e6e6e" stroke-width="0.4"><desc><name>Prince William County</name><stateAbbrev>VA</stateAbbrev><state>Virginia</state><fips>153</fips><incits>51153</incits><id>US.VA.153</id><population>438580</population></desc></path><path d="M583.333333333,352.794411178 L585.429141717,350.0 L593.81237525,347.205588822 L602.195608782,352.794411178 L616.866267465,359.081836327 L615.469061876,364.670658683 L607.085828343,375.149700599 L605.688622754,368.862275449 L600.798403194,364.670658683 L593.81237525,363.273453094 L590.319361277,356.28742515 L583.333333333,352.794411178 Z" fill="#cee3f5" id="US.VA.133" stroke="#6e6e6e" stroke-width="0.4"><desc><name>Northumberland County</name><stateAbbrev>VA</stateAbbrev><state>Virginia</state><fips>133</fips><incits>51133</incits><id>US.VA.133</id><population>12200</population></desc></path><path d="M509.281437126,303.892215569 L515.568862275,301.796407186 L521.157684631,305.988023952 L528.143712575,308.083832335 L526.047904192,314.371257485 L529.540918164,321.357285429 L523.952095808,324.850299401 L526.047904192,329.740518962 L522.55489022,329.740518962 L515.568862275,326.24750499 L509.281437126,324.151696607 L501.596806387,319.261477046 L500.199600798,315.768463074 L500.199600798,311.576846307 L509.281437126,303.892215569 Z" fill="#cee3f5" id="US.VA.179" stroke="#6e6e6e" stroke-width="0.4"><desc><name>Stafford County</name><stateAbbrev>VA</stateAbbrev><state>Virginia</state><fips>179</fips><incits>51179</incits><id>US.VA.179</id><population>136788</population></desc></path><path d="M529.540918164,321.357285429 L533.033932136,322.754491018 L551.896207585,318.562874251 L550.499001996,324.151696607 L553.293413174,326.946107784 L549.101796407,328.343313373 L547.704590818,336.726546906 L540.01996008,336.027944112 L526.047904192,329.740518962 L523.952095808,324.850299401 L529.540918164,321.357285429 Z" fill="#cee3f5" id="US.VA.099" stroke="#6e6e6e" stroke-width="0.4"><desc><name>King George County</name><stateAbbrev>VA</stateAbbrev><state>Virginia</state><fips>099</fips><incits>51099</incits><id>US.VA.099</id><population>24926</population></desc></path><path d="M652.49500998,394.710578842 L654.590818363,389.121756487 L649.700598802,387.025948104 L642.714570858,382.834331337 L649.700598802,376.546906188 L655.988023952,367.46506986 L660.179640719,366.067864271 L667.864271457,350.698602794 L700.0,347.904191617 L692.315369261,359.780439122 L689.520958084,362.574850299 L683.233532934,361.876247505 L676.24750499,368.163672655 L671.357285429,376.546906188 L670.658682635,386.327345309 L663.672654691,395.409181637 L655.988023952,391.916167665 L652.49500998,394.710578842 Z" fill="#cee3f5" id="US.VA.001" stroke="#6e6e6e" stroke-width="0.4"><desc><name>Accomack County</name><stateAbbrev>VA</stateAbbrev><state>Virginia</state><fips>001</fips><incits>51001</incits><id>US.VA.001</id><population>33148</population></desc></path><path d="M456.886227545,263.373253493 L460.379241517,258.483033932 L466.666666667,244.510978044 L484.131736527,255.688622754 L481.337325349,259.181636727 L472.954091816,265.469061876 L469.461077844,268.263473054 L465.269461078,264.770459082 L456.886227545,263.373253493 Z" fill="#cee3f5" id="US.VA.043" stroke="#6e6e6e" stroke-width="0.4"><desc><name>Clarke County</name><stateAbbrev>VA</stateAbbrev><state>Virginia</state><fips>043</fips><incits>51043</incits><id>US.VA.043</id><population>14348</population></desc></path><path d="M458.982035928,278.043912176 L469.461077844,268.263473054 L472.954091816,265.469061876 L498.80239521,271.756487026 L493.213572854,280.838323353 L509.281437126,303.892215569 L500.199600798,311.576846307 L500.199600798,315.768463074 L491.816367265,315.768463074 L485.528942116,305.988023952 L479.94011976,301.097804391 L480.638722555,296.20758483 L475.748502994,292.015968064 L469.461077844,289.920159681 L467.365269461,283.632734531 L458.982035928,278.043912176 Z" fill="#cee3f5" id="US.VA.061" stroke="#6e6e6e" stroke-width="0.4"><desc><name>Fauquier County</name><stateAbbrev>VA</stateAbbrev><state>Virginia</state><fips>061</fips><incits>51061</incits><id>US.VA.061</id><population>67207</population></desc></path><path d="M424.750499002,261.976047904 L435.928143713,252.894211577 L433.133732535,250.099800399 L434.530938124,245.209580838 L441.516966068,236.826347305 L440.818363273,227.744510978 L466.666666667,244.510978044 L460.379241517,258.483033932 L456.886227545,263.373253493 L443.612774451,265.469061876 L435.928143713,259.181636727 L431.736526946,264.071856287 L424.750499002,261.976047904 Z" fill="#cee3f5" id="US.VA.069" stroke="#6e6e6e" stroke-width="0.4"><desc><name>Frederick County</name><stateAbbrev>VA</stateAbbrev><state>Virginia</state><fips>069</fips><incits>51069</incits><id>US.VA.069</id><population>81319</population></desc></path><path d="M444.311377246,349.301397206 L451.996007984,339.520958084 L461.776447106,337.425149701 L472.954091816,340.219560878 L483.433133733,341.616766467 L496.007984032,349.301397206 L486.22754491,372.355289421 L478.542914172,370.259481038 L474.351297405,363.273453094 L464.570858283,357.684630739 L444.311377246,349.301397206 Z" fill="#cee3f5" id="US.VA.109" stroke="#6e6e6e" stroke-width="0.4"><desc><name>Louisa County</name><stateAbbrev>VA</stateAbbrev><state>Virginia</state><fips>109</fips><incits>51109</incits><id>US.VA.109</id><population>33945</population></desc></path><path d="M438.72255489,334.630738523 L445.708582834,327.644710579 L453.393213573,329.740518962 L461.776447106,324.151696607 L477.145708583,317.864271457 L494.610778443,319.96007984 L492.51497006,322.754491018 L472.954091816,340.219560878 L461.776447106,337.425149701 L451.996007984,339.520958084 L438.72255489,334.630738523 Z" fill="#cee3f5" id="US.VA.137" stroke="#6e6e6e" stroke-width="0.4"><desc><name>Orange County</name><stateAbbrev>VA</stateAbbrev><state>Virginia</state><fips>137</fips><incits>51137</incits><id>US.VA.137</id><population>34689</population></desc></path><path d="M472.954091816,340.219560878 L492.51497006,322.754491018 L494.610778443,319.96007984 L501.596806387,319.261477046 L509.281437126,324.151696607 L515.568862275,326.24750499 L522.55489022,329.740518962 L499.500998004,350.698602794 L496.007984032,349.301397206 L483.433133733,341.616766467 L472.954091816,340.219560878 Z" fill="#cee3f5" id="US.VA.177" stroke="#6e6e6e" stroke-width="0.4"><desc><name>Spotsylvania County</name><stateAbbrev>VA</stateAbbrev><state>Virginia</state><fips>177</fips><incits>51177</incits><id>US.VA.177</id><population>127348</population></desc></path><path d="M437.325349301,280.838323353 L445.00998004,271.057884232 L443.612774451,265.469061876 L456.886227545,263.373253493 L465.269461078,264.770459082 L469.461077844,268.263473054 L458.982035928,278.043912176 L453.393213573,285.02994012 L445.708582834,286.427145709 L437.325349301,280.838323353 Z" fill="#cee3f5" id="US.VA.187" stroke="#6e6e6e" stroke-width="0.4"><desc><name>Warren County</name><stateAbbrev>VA</stateAbbrev><state>Virginia</state><fips>187</fips><incits>51187</incits><id>US.VA.187</id><population>38699</population></desc></path><path d="M62.1756487026,442.914171657 L71.2574850299,450.598802395 L64.9700598802,456.886227545 L56.5868263473,460.379241517 L53.0938123752,467.365269461 L0.0,467.365269461 L0.698602794411,464.570858283 L7.68463073852,461.776447106 L16.7664670659,461.776447106 L35.628742515,455.489021956 L46.1077844311,445.708582834 L54.4910179641,445.708582834 L62.1756487026,442.914171657 Z" fill="#cee3f5" id="US.VA.105" stroke="#6e6e6e" stroke-width="0.4"><desc><name>Lee County</name><stateAbbrev>VA</stateAbbrev><state>Virginia</state><fips>105</fips><incits>51105</incits><id>US.VA.105</id><population>25185</population></desc></path><path d="M298.303393214,354.191616766 L308.083832335,353.493013972 L311.576846307,358.383233533 L323.453093812,359.780439122 L329.041916168,363.972055888 L331.836327345,360.479041916 L335.329341317,361.876247505 L329.740518962,370.259481038 L317.864271457,366.766467066 L309.481037924,375.149700599 L301.097804391,379.341317365 L291.317365269,383.532934132 L284.331337325,381.437125749 L278.043912176,375.848303393 L289.221556886,360.479041916 L298.303393214,354.191616766 Z" fill="#cee3f5" id="US.VA.005" stroke="#6e6e6e" stroke-width="0.4"><desc><name>Alleghany County</name><stateAbbrev>VA</stateAbbrev><state>Virginia</state><fips>005</fips><incits>51005</incits><id>US.VA.005</id><population>16161</population></desc></path><path d="M349.301397206,382.135728543 L356.986027944,378.642714571 L361.177644711,370.958083832 L366.766467066,366.067864271 L371.656686627,366.766467066 L380.738522954,368.862275449 L380.738522954,373.75249501 L389.121756487,377.245508982 L394.011976048,387.724550898 L396.806387226,388.423153693 L384.231536926,397.50499002 L379.341317365,400.998003992 L370.958083832,394.710578842 L363.972055888,390.518962076 L357.684630739,389.820359281 L354.191616766,384.231536926 L349.301397206,382.135728543 Z" fill="#cee3f5" id="US.VA.009" stroke="#6e6e6e" stroke-width="0.4"><desc><name>Amherst County</name><stateAbbrev>VA</stateAbbrev><state>Virginia</state><fips>009</fips><incits>51009</incits><id>US.VA.009</id><population>32178</population></desc></path><path d="M298.303393214,354.191616766 L302.49500998,350.698602794 L310.878243513,333.932135729 L319.96007984,327.644710579 L326.946107784,331.836327345 L343.71257485,335.329341317 L350.0,336.726546906 L345.808383234,343.013972056 L331.836327345,360.479041916 L329.041916168,363.972055888 L323.453093812,359.780439122 L311.576846307,358.383233533 L308.083832335,353.493013972 L298.303393214,354.191616766 Z" fill="#cee3f5" id="US.VA.017" stroke="#6e6e6e" stroke-width="0.4"><desc><name>Bath County</name><stateAbbrev>VA</stateAbbrev><state>Virginia</state><fips>017</fips><incits>51017</incits><id>US.VA.017</id><population>4616</population></desc></path><path d="M315.069860279,407.984031936 L319.96007984,404.491017964 L317.864271457,399.600798403 L331.137724551,393.313373253 L336.726546906,396.107784431 L344.411177645,389.121756487 L349.301397206,386.327345309 L349.301397206,382.135728543 L354.191616766,384.231536926 L357.684630739,389.820359281 L363.972055888,390.518962076 L370.958083832,394.710578842 L364.670658683,396.107784431 L364.670658683,403.79241517 L349.301397206,428.942115768 L336.027944112,429.640718563 L326.24750499,417.764471058 L315.069860279,414.97005988 L315.069860279,407.984031936 Z" fill="#cee3f5" id="US.VA.019" stroke="#6e6e6e" stroke-width="0.4"><desc><name>Bedford County</name><stateAbbrev>VA</stateAbbrev><state>Virginia</state><fips>019</fips><incits>51019</incits><id>US.VA.019</id><population>75773</population></desc></path><path d="M200.499001996,414.271457086 L209.580838323,410.778443114 L220.758483034,409.381237525 L217.964071856,410.778443114 L231.23752495,421.25748503 L224.9500998,424.051896208 L226.347305389,427.54491018 L210.279441118,431.736526946 L199.800399202,429.640718563 L187.225548902,438.023952096 L182.335329341,433.133732535 L192.115768463,428.243512974 L197.005988024,423.353293413 L194.910179641,415.668662675 L200.499001996,414.271457086 Z" fill="#cee3f5" id="US.VA.021" stroke="#6e6e6e" stroke-width="0.4"><desc><name>Bland County</name><stateAbbrev>VA</stateAbbrev><state>Virginia</state><fips>021</fips><incits>51021</incits><id>US.VA.021</id><population>6735</population></desc></path><path d="M295.508982036,398.902195609 L304.590818363,388.423153693 L301.097804391,379.341317365 L309.481037924,375.149700599 L317.864271457,366.766467066 L329.740518962,370.259481038 L329.041916168,378.642714571 L344.411177645,389.121756487 L336.726546906,396.107784431 L331.137724551,393.313373253 L317.864271457,399.600798403 L319.96007984,404.491017964 L315.069860279,407.984031936 L313.672654691,405.888223553 L295.508982036,398.902195609 Z" fill="#cee3f5" id="US.VA.023" stroke="#6e6e6e" stroke-width="0.4"><desc><name>Botetourt County</name><stateAbbrev>VA</stateAbbrev><state>Virginia</state><fips>023</fips><incits>51023</incits><id>US.VA.023</id><population>33002</population></desc></path><path d="M110.379241517,407.984031936 L138.323353293,388.423153693 L141.816367265,403.79241517 L147.405189621,407.984031936 L155.788423154,410.778443114 L157.185628743,413.572854291 L155.788423154,416.367265469 L143.912175649,421.956087824 L134.830339321,424.051896208 L131.337325349,429.640718563 L122.954091816,430.339321357 L124.351297405,428.243512974 L116.666666667,417.065868263 L114.570858283,410.778443114 L110.379241517,407.984031936 Z" fill="#cee3f5" id="US.VA.027" stroke="#6e6e6e" stroke-width="0.4"><desc><name>Buchanan County</name><stateAbbrev>VA</stateAbbrev><state>Virginia</state><fips>027</fips><incits>51027</incits><id>US.VA.027</id><population>23597</population></desc></path><path d="M349.301397206,428.942115768 L364.670658683,403.79241517 L371.656686627,405.189620758 L379.341317365,400.998003992 L384.231536926,397.50499002 L392.614770459,412.874251497 L400.998003992,417.065868263 L394.011976048,431.736526946 L385.628742515,431.037924152 L378.642714571,428.243512974 L364.670658683,422.654690619 L354.191616766,424.051896208 L349.301397206,428.942115768 Z" fill="#cee3f5" id="US.VA.031" stroke="#6e6e6e" stroke-width="0.4"><desc><name>Campbell County</name><stateAbbrev>VA</stateAbbrev><state>Virginia</state><fips>031</fips><incits>51031</incits><id>US.VA.031</id><population>55235</population></desc></path><path d="M215.169660679,449.900199601 L241.017964072,443.612774451 L249.401197605,439.421157685 L264.071856287,458.283433134 L263.373253493,461.077844311 L250.798403194,465.269461078 L251.497005988,470.858283433 L232.634730539,470.858283433 L226.347305389,463.173652695 L224.9500998,461.077844311 L215.169660679,449.900199601 Z" fill="#cee3f5" id="US.VA.035" stroke="#6e6e6e" stroke-width="0.4"><desc><name>Carroll County</name><stateAbbrev>VA</stateAbbrev><state>Virginia</state><fips>035</fips><incits>51035</incits><id>US.VA.035</id><population>29883</population></desc></path><path d="M262.674650699,398.203592814 L277.345309381,391.21756487 L275.249500998,386.327345309 L284.331337325,381.437125749 L291.317365269,383.532934132 L301.097804391,379.341317365 L304.590818363,388.423153693 L295.508982036,398.902195609 L280.838323353,405.189620758 L274.550898204,403.79241517 L266.866267465,407.285429142 L262.674650699,398.203592814 Z" fill="#cee3f5" id="US.VA.045" stroke="#6e6e6e" stroke-width="0.4"><desc><name>Craig County</name><stateAbbrev>VA</stateAbbrev><state>Virginia</state><fips>045</fips><incits>51045</incits><id>US.VA.045</id><population>5210</population></desc></path><path d="M89.4211576846,416.367265469 L106.18762475,411.477045908 L110.379241517,407.984031936 L114.570858283,410.778443114 L116.666666667,417.065868263 L124.351297405,428.243512974 L122.954091816,430.339321357 L108.283433134,435.928143713 L101.996007984,435.229540918 L94.3113772455,431.037924152 L90.119760479,423.353293413 L89.4211576846,416.367265469 Z" fill="#cee3f5" id="US.VA.051" stroke="#6e6e6e" stroke-width="0.4"><desc><name>Dickenson County</name><stateAbbrev>VA</stateAbbrev><state>Virginia</state><fips>051</fips><incits>51051</incits><id>US.VA.051</id><population>15486</population></desc></path><path d="M249.401197605,439.421157685 L257.784431138,435.928143713 L265.469061876,431.736526946 L273.153692615,431.736526946 L278.043912176,427.54491018 L287.824351297,423.353293413 L292.015968064,423.353293413 L293.413173653,431.736526946 L291.317365269,436.626746507 L282.934131737,444.311377246 L271.057884232,449.900199601 L268.962075848,455.489021956 L264.071856287,458.283433134 L249.401197605,439.421157685 Z" fill="#cee3f5" id="US.VA.063" stroke="#6e6e6e" stroke-width="0.4"><desc><name>Floyd County</name><stateAbbrev>VA</stateAbbrev><state>Virginia</state><fips>063</fips><incits>51063</incits><id>US.VA.063</id><population>15528</population></desc></path><path d="M282.934131737,444.311377246 L291.317365269,436.626746507 L293.413173653,431.736526946 L292.015968064,423.353293413 L299.700598802,419.161676647 L305.988023952,421.956087824 L315.069860279,414.97005988 L326.24750499,417.764471058 L336.027944112,429.640718563 L332.53493014,445.708582834 L330.439121756,447.804391218 L319.261477046,451.29740519 L302.49500998,447.804391218 L299.001996008,450.598802395 L296.906187625,447.105788423 L282.934131737,444.311377246 Z" fill="#cee3f5" id="US.VA.067" stroke="#6e6e6e" stroke-width="0.4"><desc><name>Franklin County</name><stateAbbrev>VA</stateAbbrev><state>Virginia</state><fips>067</fips><incits>51067</incits><id>US.VA.067</id><population>56335</population></desc></path><path d="M220.758483034,409.381237525 L231.936127745,404.491017964 L236.826347305,400.998003992 L243.81237525,400.998003992 L256.387225549,394.011976048 L262.674650699,398.203592814 L266.866267465,407.285429142 L260.578842315,410.778443114 L252.195608782,412.874251497 L237.5249501,417.764471058 L231.23752495,421.25748503 L217.964071856,410.778443114 L220.758483034,409.381237525 Z" fill="#cee3f5" id="US.VA.071" stroke="#6e6e6e" stroke-width="0.4"><desc><name>Giles County</name><stateAbbrev>VA</stateAbbrev><state>Virginia</state><fips>071</fips><incits>51071</incits><id>US.VA.071</id><population>16925</population></desc></path><path d="M164.870259481,465.968063872 L168.363273453,463.872255489 L173.253493014,458.283433134 L183.033932136,456.886227545 L197.005988024,453.393213573 L211.676646707,452.694610778 L215.169660679,449.900199601 L224.9500998,461.077844311 L226.347305389,463.173652695 L232.634730539,470.858283433 L187.924151697,469.461077844 L162.774451098,468.063872255 L164.870259481,465.968063872 Z" fill="#cee3f5" id="US.VA.077" stroke="#6e6e6e" stroke-width="0.4"><desc><name>Grayson County</name><stateAbbrev>VA</stateAbbrev><state>Virginia</state><fips>077</fips><incits>51077</incits><id>US.VA.077</id><population>15161</population></desc></path><path d="M368.163672655,472.255489022 L378.642714571,428.243512974 L385.628742515,431.037924152 L394.011976048,431.736526946 L394.710578842,435.229540918 L407.984031936,435.229540918 L408.682634731,440.818363273 L413.572854291,445.708582834 L415.668662675,458.982035928 L411.477045908,460.379241517 L408.682634731,472.255489022 L368.163672655,472.255489022 Z" fill="#cee3f5" id="US.VA.083" stroke="#6e6e6e" stroke-width="0.4"><desc><name>Halifax County</name><stateAbbrev>VA</stateAbbrev><state>Virginia</state><fips>083</fips><incits>51083</incits><id>US.VA.083</id><population>35401</population></desc></path><path d="M299.001996008,450.598802395 L302.49500998,447.804391218 L319.261477046,451.29740519 L330.439121756,447.804391218 L332.53493014,445.708582834 L326.24750499,472.255489022 L298.303393214,472.255489022 L297.604790419,462.4750499 L294.810379242,452.694610778 L299.001996008,450.598802395 Z" fill="#cee3f5" id="US.VA.089" stroke="#6e6e6e" stroke-width="0.4"><desc><name>Henry County</name><stateAbbrev>VA</stateAbbrev><state>Virginia</state><fips>089</fips><incits>51089</incits><id>US.VA.089</id><population>52617</population></desc></path><path d="M252.195608782,412.874251497 L260.578842315,410.778443114 L266.866267465,407.285429142 L274.550898204,403.79241517 L280.838323353,405.189620758 L286.427145709,414.271457086 L287.824351297,423.353293413 L278.043912176,427.54491018 L273.153692615,431.736526946 L265.469061876,431.736526946 L257.784431138,435.928143713 L254.291417166,426.147704591 L258.483033932,422.654690619 L251.497005988,415.668662675 L252.195608782,412.874251497 Z" fill="#cee3f5" id="US.VA.121" stroke="#6e6e6e" stroke-width="0.4"><desc><name>Montgomery County</name><stateAbbrev>VA</stateAbbrev><state>Virginia</state><fips>121</fips><incits>51121</incits><id>US.VA.121</id><population>96207</population></desc></path><path d="M264.071856287,458.283433134 L268.962075848,455.489021956 L271.057884232,449.900199601 L282.934131737,444.311377246 L296.906187625,447.105788423 L299.001996008,450.598802395 L294.810379242,452.694610778 L297.604790419,462.4750499 L298.303393214,472.255489022 L278.043912176,471.556886228 L251.497005988,470.858283433 L250.798403194,465.269461078 L263.373253493,461.077844311 L264.071856287,458.283433134 Z" fill="#cee3f5" id="US.VA.141" stroke="#6e6e6e" stroke-width="0.4"><desc><name>Patrick County</name><stateAbbrev>VA</stateAbbrev><state>Virginia</state><fips>141</fips><incits>51141</incits><id>US.VA.141</id><population>18368</population></desc></path><path d="M326.24750499,472.255489022 L332.53493014,445.708582834 L336.027944112,429.640718563 L349.301397206,428.942115768 L354.191616766,424.051896208 L364.670658683,422.654690619 L378.642714571,428.243512974 L368.163672655,472.255489022 L357.684630739,472.255489022 L358.383233533,466.666666667 L352.794411178,463.872255489 L347.205588822,472.255489022 L326.24750499,472.255489022 Z" fill="#cee3f5" id="US.VA.143" stroke="#6e6e6e" stroke-width="0.4"><desc><name>Pittsylvania County</name><stateAbbrev>VA</stateAbbrev><state>Virginia</state><fips>143</fips><incits>51143</incits><id>US.VA.143</id><population>62426</population></desc></path><path d="M231.23752495,421.25748503 L237.5249501,417.764471058 L252.195608782,412.874251497 L251.497005988,415.668662675 L258.483033932,422.654690619 L254.291417166,426.147704591 L257.784431138,435.928143713 L249.401197605,439.421157685 L241.017964072,443.612774451 L227.744510978,431.037924152 L226.347305389,427.54491018 L224.9500998,424.051896208 L231.23752495,421.25748503 Z" fill="#cee3f5" id="US.VA.155" stroke="#6e6e6e" stroke-width="0.4"><desc><name>Pulaski County</name><stateAbbrev>VA</stateAbbrev><state>Virginia</state><fips>155</fips><incits>51155</incits><id>US.VA.155</id><population>34507</population></desc></path><path d="M280.838323353,405.189620758 L295.508982036,398.902195609 L313.672654691,405.888223553 L315.069860279,407.984031936 L315.069860279,414.97005988 L305.988023952,421.956087824 L299.700598802,419.161676647 L292.015968064,423.353293413 L287.824351297,423.353293413 L286.427145709,414.271457086 L280.838323353,405.189620758 Z" fill="#cee3f5" id="US.VA.161" stroke="#6e6e6e" stroke-width="0.4"><desc><name>Roanoke County</name><stateAbbrev>VA</stateAbbrev><state>Virginia</state><fips>161</fips><incits>51161</incits><id>US.VA.161</id><population>93524</population></desc></path><path d="M329.740518962,370.259481038 L335.329341317,361.876247505 L331.836327345,360.479041916 L345.808383234,343.013972056 L369.560878244,356.28742515 L373.053892216,359.081836327 L371.656686627,366.766467066 L366.766467066,366.067864271 L361.177644711,370.958083832 L356.986027944,378.642714571 L349.301397206,382.135728543 L349.301397206,386.327345309 L344.411177645,389.121756487 L329.041916168,378.642714571 L329.740518962,370.259481038 Z" fill="#cee3f5" id="US.VA.163" stroke="#6e6e6e" stroke-width="0.4"><desc><name>Rockbridge County</name><stateAbbrev>VA</stateAbbrev><state>Virginia</state><fips>163</fips><incits>51163</incits><id>US.VA.163</id><population>22307</population></desc></path><path d="M101.996007984,443.612774451 L110.379241517,441.516966068 L108.283433134,435.928143713 L122.954091816,430.339321357 L131.337325349,429.640718563 L134.830339321,424.051896208 L143.912175649,421.956087824 L154.391217565,437.325349301 L149.500998004,439.421157685 L139.720558882,445.00998004 L136.926147705,443.612774451 L126.447105788,447.105788423 L126.447105788,450.598802395 L107.584830339,457.584830339 L101.996007984,443.612774451 Z" fill="#cee3f5" id="US.VA.167" stroke="#6e6e6e" stroke-width="0.4"><desc><name>Russell County</name><stateAbbrev>VA</stateAbbrev><state>Virginia</state><fips>167</fips><incits>51167</incits><id>US.VA.167</id><population>28264</population></desc></path><path d="M53.0938123752,467.365269461 L56.5868263473,460.379241517 L64.9700598802,456.886227545 L71.2574850299,450.598802395 L76.8463073852,449.201596806 L82.4351297405,443.612774451 L101.996007984,443.612774451 L107.584830339,457.584830339 L111.077844311,467.365269461 L53.0938123752,467.365269461 Z" fill="#cee3f5" id="US.VA.169" stroke="#6e6e6e" stroke-width="0.4"><desc><name>Scott County</name><stateAbbrev>VA</stateAbbrev><state>Virginia</state><fips>169</fips><incits>51169</incits><id>US.VA.169</id><population>22640</population></desc></path><path d="M149.500998004,439.421157685 L154.391217565,437.325349301 L159.98003992,435.928143713 L162.075848303,439.421157685 L171.157684631,434.530938124 L182.335329341,433.133732535 L187.225548902,438.023952096 L190.718562874,441.516966068 L197.005988024,453.393213573 L183.033932136,456.886227545 L173.253493014,458.283433134 L168.363273453,463.872255489 L160.678642715,451.29740519 L149.500998004,439.421157685 Z" fill="#cee3f5" id="US.VA.173" stroke="#6e6e6e" stroke-width="0.4"><desc><name>Smyth County</name><stateAbbrev>VA</stateAbbrev><state>Virginia</state><fips>173</fips><incits>51173</incits><id>US.VA.173</id><population>31652</population></desc></path><path d="M143.912175649,421.956087824 L155.788423154,416.367265469 L157.185628743,413.572854291 L162.075848303,417.065868263 L172.55489022,416.367265469 L188.622754491,405.189620758 L200.499001996,414.271457086 L194.910179641,415.668662675 L197.005988024,423.353293413 L192.115768463,428.243512974 L182.335329341,433.133732535 L171.157684631,434.530938124 L162.075848303,439.421157685 L159.98003992,435.928143713 L154.391217565,437.325349301 L143.912175649,421.956087824 Z" fill="#cee3f5" id="US.VA.185" stroke="#6e6e6e" stroke-width="0.4"><desc><name>Tazewell County</name><stateAbbrev>VA</stateAbbrev><state>Virginia</state><fips>185</fips><incits>51185</incits><id>US.VA.185</id><population>44103</population></desc></path><path d="M107.584830339,457.584830339 L126.447105788,450.598802395 L126.447105788,447.105788423 L136.926147705,443.612774451 L139.720558882,445.00998004 L149.500998004,439.421157685 L160.678642715,451.29740519 L168.363273453,463.872255489 L164.870259481,465.968063872 L141.816367265,465.968063872 L141.117764471,467.365269461 L123.652694611,467.365269461 L115.269461078,467.365269461 L111.077844311,467.365269461 L107.584830339,457.584830339 Z" fill="#cee3f5" id="US.VA.191" stroke="#6e6e6e" stroke-width="0.4"><desc><name>Washington County</name><stateAbbrev>VA</stateAbbrev><state>Virginia</state><fips>191</fips><incits>51191</incits><id>US.VA.191</id><population>54907</population></desc></path><path d="M89.4211576846,416.367265469 L90.119760479,423.353293413 L94.3113772455,431.037924152 L101.996007984,435.229540918 L108.283433134,435.928143713 L110.379241517,441.516966068 L101.996007984,443.612774451 L82.4351297405,443.612774451 L76.8463073852,449.201596806 L71.2574850299,450.598802395 L62.1756487026,442.914171657 L66.3672654691,433.133732535 L75.4491017964,428.942115768 L75.4491017964,423.353293413 L89.4211576846,416.367265469 Z" fill="#cee3f5" id="US.VA.195" stroke="#6e6e6e" stroke-width="0.4"><desc><name>Wise County</name><stateAbbrev>VA</stateAbbrev><state>Virginia</state><fips>195</fips><incits>51195</incits><id>US.VA.195</id><population>40589</population></desc></path><path d="M187.225548902,438.023952096 L199.800399202,429.640718563 L210.279441118,431.736526946 L226.347305389,427.54491018 L227.744510978,431.037924152 L241.017964072,443.612774451 L215.169660679,449.900199601 L211.676646707,452.694610778 L197.005988024,453.393213573 L190.718562874,441.516966068 L187.225548902,438.023952096 Z" fill="#cee3f5" id="US.VA.197" stroke="#6e6e6e" stroke-width="0.4"><desc><name>Wythe County</name><stateAbbrev>VA</stateAbbrev><state>Virginia</state><fips>197</fips><incits>51197</incits><id>US.VA.197</id><population>29344</population></desc></path><path d="M399.600798403,346.506986028 L404.491017964,343.013972056 L406.586826347,332.53493014 L414.97005988,326.946107784 L438.72255489,334.630738523 L451.996007984,339.520958084 L444.311377246,349.301397206 L428.942115768,367.46506986 L428.243512974,369.560878244 L418.463073852,370.259481038 L414.97005988,373.053892216 L399.600798403,346.506986028 Z" fill="#cee3f5" id="US.VA.003" stroke="#6e6e6e" stroke-width="0.4"><desc><name>Albemarle County</name><stateAbbrev>VA</stateAbbrev><state>Virginia</state><fips>003</fips><incits>51003</incits><id>US.VA.003</id><population>103000</population></desc></path><path d="M458.283433134,395.409181637 L463.872255489,396.107784431 L468.063872255,392.614770459 L477.844311377,394.011976048 L482.035928144,398.902195609 L479.94011976,403.093812375 L489.021956088,410.778443114 L498.80239521,411.477045908 L490.419161677,417.065868263 L486.22754491,417.764471058 L450.598802395,408.682634731 L449.900199601,403.093812375 L452.694610778,398.203592814 L458.283433134,395.409181637 Z" fill="#cee3f5" id="US.VA.007" stroke="#6e6e6e" stroke-width="0.4"><desc><name>Amelia County</name><stateAbbrev>VA</stateAbbrev><state>Virginia</state><fips>007</fips><incits>51007</incits><id>US.VA.007</id><population>12745</population></desc></path><path d="M384.231536926,397.50499002 L396.806387226,388.423153693 L400.299401198,387.025948104 L412.874251497,398.203592814 L419.860279441,400.299401198 L419.161676647,404.491017964 L412.874251497,412.874251497 L400.998003992,417.065868263 L392.614770459,412.874251497 L384.231536926,397.50499002 Z" fill="#cee3f5" id="US.VA.011" stroke="#6e6e6e" stroke-width="0.4"><desc><name>Appomattox County</name><stateAbbrev>VA</stateAbbrev><state>Virginia</state><fips>011</fips><incits>51011</incits><id>US.VA.011</id><population>15255</population></desc></path><path d="M343.71257485,335.329341317 L352.095808383,329.740518962 L359.780439122,315.768463074 L367.46506986,310.179640719 L406.586826347,332.53493014 L404.491017964,343.013972056 L399.600798403,346.506986028 L396.806387226,347.904191617 L394.011976048,354.890219561 L386.327345309,359.780439122 L381.437125749,356.986027944 L373.053892216,359.081836327 L369.560878244,356.28742515 L345.808383234,343.013972056 L350.0,336.726546906 L343.71257485,335.329341317 Z" fill="#cee3f5" id="US.VA.015" stroke="#6e6e6e" stroke-width="0.4"><desc><name>Augusta County</name><stateAbbrev>VA</stateAbbrev><state>Virginia</state><fips>015</fips><incits>51015</incits><id>US.VA.015</id><population>73912</population></desc></path><path d="M465.968063872,471.556886228 L467.365269461,451.996007984 L468.76247505,432.435129741 L478.542914172,434.530938124 L489.021956088,435.928143713 L498.103792415,442.914171657 L498.103792415,457.584830339 L489.021956088,471.556886228 L465.968063872,471.556886228 Z" fill="#cee3f5" id="US.VA.025" stroke="#6e6e6e" stroke-width="0.4"><desc><name>Brunswick County</name><stateAbbrev>VA</stateAbbrev><state>Virginia</state><fips>025</fips><incits>51025</incits><id>US.VA.025</id><population>16973</population></desc></path><path d="M414.97005988,373.053892216 L418.463073852,370.259481038 L428.243512974,369.560878244 L428.942115768,367.46506986 L431.037924152,370.259481038 L449.201596806,375.848303393 L448.502994012,380.738522954 L431.037924152,405.189620758 L426.846307385,405.888223553 L419.860279441,400.299401198 L412.874251497,398.203592814 L400.299401198,387.025948104 L400.299401198,381.437125749 L407.984031936,380.738522954 L413.572854291,376.546906188 L414.97005988,373.053892216 Z" fill="#cee3f5" id="US.VA.029" stroke="#6e6e6e" stroke-width="0.4"><desc><name>Buckingham County</name><stateAbbrev>VA</stateAbbrev><state>Virginia</state><fips>029</fips><incits>51029</incits><id>US.VA.029</id><population>17136</population></desc></path><path d="M499.500998004,350.698602794 L522.55489022,329.740518962 L526.047904192,329.740518962 L540.01996008,336.027944112 L543.512974052,338.822355289 L539.321357285,343.71257485 L545.608782435,349.301397206 L547.005988024,352.794411178 L537.924151697,354.191616766 L537.924151697,359.081836327 L530.239520958,361.177644711 L523.952095808,368.163672655 L499.500998004,350.698602794 Z" fill="#cee3f5" id="US.VA.033" stroke="#6e6e6e" stroke-width="0.4"><desc><name>Caroline County</name><stateAbbrev>VA</stateAbbrev><state>Virginia</state><fips>033</fips><incits>51033</incits><id>US.VA.033</id><population>29298</population></desc></path><path d="M530.938123752,404.491017964 L532.335329341,401.696606786 L538.622754491,392.614770459 L545.608782435,396.806387226 L560.978043912,402.395209581 L563.77245509,406.586826347 L563.073852295,412.175648703 L558.183632735,413.572854291 L552.594810379,407.285429142 L530.938123752,406.586826347 L530.938123752,404.491017964 Z" fill="#cee3f5" id="US.VA.036" stroke="#6e6e6e" stroke-width="0.4"><desc><name>Charles City County</name><stateAbbrev>VA</stateAbbrev><state>Virginia</state><fips>036</fips><incits>51036</incits><id>US.VA.036</id><population>7130</population></desc></path><path d="M394.011976048,431.736526946 L400.998003992,417.065868263 L412.874251497,412.874251497 L412.175648703,416.367265469 L421.25748503,421.956087824 L426.846307385,422.654690619 L432.435129741,426.846307385 L428.243512974,442.914171657 L415.668662675,458.982035928 L413.572854291,445.708582834 L408.682634731,440.818363273 L407.984031936,435.229540918 L394.710578842,435.229540918 L394.011976048,431.736526946 Z" fill="#cee3f5" id="US.VA.037" stroke="#6e6e6e" stroke-width="0.4"><desc><name>Charlotte County</name><stateAbbrev>VA</stateAbbrev><state>Virginia</state><fips>037</fips><incits>51037</incits><id>US.VA.037</id><population>12305</population></desc></path><path d="M482.035928144,398.902195609 L498.80239521,386.327345309 L503.69261477,387.025948104 L509.281437126,389.121756487 L510.678642715,394.710578842 L518.363273453,396.107784431 L520.459081836,399.600798403 L528.143712575,403.79241517 L532.335329341,401.696606786 L530.938123752,404.491017964 L525.349301397,407.285429142 L523.253493014,410.079840319 L517.664670659,410.079840319 L516.966067864,410.778443114 L518.363273453,412.874251497 L518.363273453,413.572854291 L518.363273453,414.271457086 L516.966067864,414.97005988 L515.568862275,414.97005988 L515.568862275,414.97005988 L514.171656687,414.97005988 L513.473053892,414.97005988 L512.075848303,414.97005988 L509.281437126,415.668662675 L506.487025948,414.97005988 L498.80239521,411.477045908 L489.021956088,410.778443114 L479.94011976,403.093812375 L482.035928144,398.902195609 Z" fill="#cee3f5" id="US.VA.041" stroke="#6e6e6e" stroke-width="0.4"><desc><name>Chesterfield County</name><stateAbbrev>VA</stateAbbrev><state>Virginia</state><fips>041</fips><incits>51041</incits><id>US.VA.041</id><population>327745</population></desc></path><path d="M449.900199601,305.289421158 L454.790419162,306.686626747 L462.4750499,299.700598802 L475.748502994,292.015968064 L480.638722555,296.20758483 L479.94011976,301.097804391 L485.528942116,305.988023952 L491.816367265,315.768463074 L500.199600798,315.768463074 L501.596806387,319.261477046 L494.610778443,319.96007984 L477.145708583,317.864271457 L461.776447106,324.151696607 L461.776447106,317.165668663 L458.283433134,312.974051896 L449.900199601,305.289421158 Z" fill="#cee3f5" id="US.VA.047" stroke="#6e6e6e" stroke-width="0.4"><desc><name>Culpeper County</name><stateAbbrev>VA</stateAbbrev><state>Virginia</state><fips>047</fips><incits>51047</incits><id>US.VA.047</id><population>48506</population></desc></path><path d="M431.037924152,405.189620758 L448.502994012,380.738522954 L449.201596806,375.848303393 L456.18762475,370.958083832 L461.776447106,374.451097804 L463.872255489,378.642714571 L458.283433134,395.409181637 L452.694610778,398.203592814 L449.900199601,403.093812375 L442.914171657,407.984031936 L431.037924152,405.189620758 Z" fill="#cee3f5" id="US.VA.049" stroke="#6e6e6e" stroke-width="0.4"><desc><name>Cumberland County</name><stateAbbrev>VA</stateAbbrev><state>Virginia</state><fips>049</fips><incits>51049</incits><id>US.VA.049</id><population>9841</population></desc></path><path d="M486.22754491,417.764471058 L490.419161677,417.065868263 L498.80239521,411.477045908 L506.487025948,414.97005988 L509.281437126,415.668662675 L512.075848303,414.97005988 L513.473053892,414.97005988 L514.171656687,414.97005988 L515.568862275,414.97005988 L515.568862275,415.668662675 L516.26746507,417.065868263 L516.26746507,417.764471058 L519.760479042,419.161676647 L519.760479042,419.860279441 L519.760479042,429.640718563 L519.061876248,434.530938124 L501.596806387,443.612774451 L498.103792415,442.914171657 L489.021956088,435.928143713 L478.542914172,434.530938124 L477.844311377,421.956087824 L486.22754491,417.764471058 Z" fill="#cee3f5" id="US.VA.053" stroke="#6e6e6e" stroke-width="0.4"><desc><name>Dinwiddie County</name><stateAbbrev>VA</stateAbbrev><state>Virginia</state><fips>053</fips><incits>51053</incits><id>US.VA.053</id><population>27904</population></desc></path><path d="M543.512974052,338.822355289 L548.403193613,341.616766467 L558.183632735,343.71257485 L559.580838323,352.095808383 L568.662674651,358.383233533 L574.9500998,366.766467066 L579.840319361,369.560878244 L573.552894212,371.656686627 L570.05988024,367.46506986 L563.073852295,368.163672655 L551.896207585,363.273453094 L547.005988024,352.794411178 L545.608782435,349.301397206 L539.321357285,343.71257485 L543.512974052,338.822355289 Z" fill="#cee3f5" id="US.VA.057" stroke="#6e6e6e" stroke-width="0.4"><desc><name>Essex County</name><stateAbbrev>VA</stateAbbrev><state>Virginia</state><fips>057</fips><incits>51057</incits><id>US.VA.057</id><population>11229</population></desc></path><path d="M428.942115768,367.46506986 L444.311377246,349.301397206 L464.570858283,357.684630739 L456.18762475,370.958083832 L449.201596806,375.848303393 L431.037924152,370.259481038 L428.942115768,367.46506986 Z" fill="#cee3f5" id="US.VA.065" stroke="#6e6e6e" stroke-width="0.4"><desc><name>Fluvanna County</name><stateAbbrev>VA</stateAbbrev><state>Virginia</state><fips>065</fips><incits>51065</incits><id>US.VA.065</id><population>25977</population></desc></path><path d="M581.936127745,383.532934132 L593.113772455,387.724550898 L600.099800399,391.21756487 L599.401197605,396.107784431 L598.003992016,403.093812375 L602.894211577,405.189620758 L604.291417166,409.381237525 L598.003992016,412.175648703 L588.922155689,407.285429142 L577.744510978,396.806387226 L582.634730539,393.313373253 L580.538922156,389.121756487 L581.936127745,383.532934132 Z" fill="#cee3f5" id="US.VA.073" stroke="#6e6e6e" stroke-width="0.4"><desc><name>Gloucester County</name><stateAbbrev>VA</stateAbbrev><state>Virginia</state><fips>073</fips><incits>51073</incits><id>US.VA.073</id><population>36834</population></desc></path><path d="M456.18762475,370.958083832 L464.570858283,357.684630739 L474.351297405,363.273453094 L478.542914172,370.259481038 L486.22754491,372.355289421 L500.199600798,374.451097804 L498.80239521,386.327345309 L484.830339321,381.437125749 L475.748502994,375.848303393 L471.556886228,381.437125749 L463.872255489,378.642714571 L461.776447106,374.451097804 L456.18762475,370.958083832 Z" fill="#cee3f5" id="US.VA.075" stroke="#6e6e6e" stroke-width="0.4"><desc><name>Goochland County</name><stateAbbrev>VA</stateAbbrev><state>Virginia</state><fips>075</fips><incits>51075</incits><id>US.VA.075</id><population>21626</population></desc></path><path d="M414.97005988,326.946107784 L423.353293413,322.055888224 L428.942115768,315.069860279 L431.736526946,310.179640719 L433.832335329,319.261477046 L442.215568862,327.644710579 L445.708582834,327.644710579 L438.72255489,334.630738523 L414.97005988,326.946107784 Z" fill="#cee3f5" id="US.VA.079" stroke="#6e6e6e" stroke-width="0.4"><desc><name>Greene County</name><stateAbbrev>VA</stateAbbrev><state>Virginia</state><fips>079</fips><incits>51079</incits><id>US.VA.079</id><population>18804</population></desc></path><path d="M489.021956088,471.556886228 L498.103792415,457.584830339 L498.103792415,442.914171657 L501.596806387,443.612774451 L506.487025948,446.407185629 L514.870259481,445.00998004 L512.075848303,456.886227545 L516.966067864,458.283433134 L511.377245509,461.077844311 L521.856287425,464.570858283 L523.253493014,469.461077844 L528.143712575,471.556886228 L489.021956088,471.556886228 Z" fill="#cee3f5" id="US.VA.081" stroke="#6e6e6e" stroke-width="0.4"><desc><name>Greensville County</name><stateAbbrev>VA</stateAbbrev><state>Virginia</state><fips>081</fips><incits>51081</incits><id>US.VA.081</id><population>11886</population></desc></path><path d="M486.22754491,372.355289421 L496.007984032,349.301397206 L499.500998004,350.698602794 L523.952095808,368.163672655 L525.349301397,370.958083832 L534.431137725,375.848303393 L541.417165669,377.944111776 L542.115768463,380.738522954 L533.033932136,388.423153693 L519.061876248,382.834331337 L515.568862275,376.546906188 L505.788423154,376.546906188 L500.199600798,374.451097804 L486.22754491,372.355289421 Z" fill="#cee3f5" id="US.VA.085" stroke="#6e6e6e" stroke-width="0.4"><desc><name>Hanover County</name><stateAbbrev>VA</stateAbbrev><state>Virginia</state><fips>085</fips><incits>51085</incits><id>US.VA.085</id><population>101330</population></desc></path><path d="M359.780439122,315.768463074 L352.095808383,329.740518962 L343.71257485,335.329341317 L326.946107784,331.836327345 L319.96007984,327.644710579 L318.562874251,324.850299401 L324.151696607,320.658682635 L328.343313373,314.371257485 L327.644710579,310.179640719 L332.53493014,300.399201597 L341.616766467,303.892215569 L346.506986028,312.275449102 L359.780439122,315.768463074 Z" fill="#cee3f5" id="US.VA.091" stroke="#6e6e6e" stroke-width="0.4"><desc><name>Highland County</name><stateAbbrev>VA</stateAbbrev><state>Virginia</state><fips>091</fips><incits>51091</incits><id>US.VA.091</id><population>2215</population></desc></path><path d="M559.580838323,458.283433134 L568.662674651,442.215568862 L565.169660679,437.325349301 L565.868263473,433.832335329 L578.443113772,428.942115768 L580.538922156,421.956087824 L581.23752495,429.640718563 L586.826347305,431.037924152 L595.908183633,437.325349301 L592.415169661,440.818363273 L561.676646707,463.173652695 L560.978043912,463.173652695 L559.580838323,458.283433134 Z" fill="#cee3f5" id="US.VA.093" stroke="#6e6e6e" stroke-width="0.4"><desc><name>Isle of Wight County</name><stateAbbrev>VA</stateAbbrev><state>Virginia</state><fips>093</fips><incits>51093</incits><id>US.VA.093</id><population>35656</population></desc></path><path d="M560.978043912,402.395209581 L565.169660679,396.107784431 L573.552894212,395.409181637 L580.538922156,403.093812375 L574.9500998,402.395209581 L575.648702595,407.984031936 L579.840319361,411.477045908 L587.5249501,415.668662675 L585.429141717,419.860279441 L582.634730539,414.97005988 L571.457085828,416.367265469 L563.77245509,413.572854291 L563.77245509,406.586826347 L560.978043912,402.395209581 Z" fill="#cee3f5" id="US.VA.095" stroke="#6e6e6e" stroke-width="0.4"><desc><name>James City County</name><stateAbbrev>VA</stateAbbrev><state>Virginia</state><fips>095</fips><incits>51095</incits><id>US.VA.095</id><population>70516</population></desc></path><path d="M547.005988024,352.794411178 L551.896207585,363.273453094 L563.073852295,368.163672655 L570.05988024,367.46506986 L573.552894212,371.656686627 L574.251497006,375.149700599 L581.936127745,383.532934132 L580.538922156,389.121756487 L582.634730539,393.313373253 L577.744510978,396.806387226 L570.758483034,388.423153693 L565.169660679,380.738522954 L555.389221557,374.451097804 L550.499001996,373.053892216 L544.211576846,368.163672655 L537.924151697,359.081836327 L537.924151697,354.191616766 L547.005988024,352.794411178 Z" fill="#cee3f5" id="US.VA.097" stroke="#6e6e6e" stroke-width="0.4"><desc><name>King and Queen County</name><stateAbbrev>VA</stateAbbrev><state>Virginia</state><fips>097</fips><incits>51097</incits><id>US.VA.097</id><population>7130</population></desc></path><path d="M584.730538922,366.067864271 L593.81237525,363.273453094 L600.798403194,364.670658683 L605.688622754,368.862275449 L607.085828343,375.149700599 L602.894211577,377.944111776 L595.908183633,373.75249501 L591.716566866,375.149700599 L584.730538922,366.067864271 Z" fill="#cee3f5" id="US.VA.103" stroke="#6e6e6e" stroke-width="0.4"><desc><name>Lancaster County</name><stateAbbrev>VA</stateAbbrev><state>Virginia</state><fips>103</fips><incits>51103</incits><id>US.VA.103</id><population>11148</population></desc></path><path d="M428.243512974,442.914171657 L432.435129741,426.846307385 L449.900199601,423.353293413 L452.694610778,426.846307385 L462.4750499,432.435129741 L468.76247505,432.435129741 L467.365269461,451.996007984 L450.598802395,449.900199601 L443.612774451,446.407185629 L428.243512974,442.914171657 Z" fill="#cee3f5" id="US.VA.111" stroke="#6e6e6e" stroke-width="0.4"><desc><name>Lunenburg County</name><stateAbbrev>VA</stateAbbrev><state>Virginia</state><fips>111</fips><incits>51111</incits><id>US.VA.111</id><population>12527</population></desc></path><path d="M431.736526946,310.179640719 L433.133732535,305.988023952 L438.023952096,303.193612774 L441.516966068,297.604790419 L449.900199601,305.289421158 L458.283433134,312.974051896 L461.776447106,317.165668663 L461.776447106,324.151696607 L453.393213573,329.740518962 L445.708582834,327.644710579 L442.215568862,327.644710579 L433.832335329,319.261477046 L431.736526946,310.179640719 Z" fill="#cee3f5" id="US.VA.113" stroke="#6e6e6e" stroke-width="0.4"><desc><name>Madison County</name><stateAbbrev>VA</stateAbbrev><state>Virginia</state><fips>113</fips><incits>51113</incits><id>US.VA.113</id><population>13200</population></desc></path><path d="M600.099800399,391.21756487 L602.894211577,389.820359281 L616.167664671,396.806387226 L616.167664671,401.696606786 L611.27744511,406.586826347 L600.099800399,398.902195609 L599.401197605,396.107784431 L600.099800399,391.21756487 Z" fill="#cee3f5" id="US.VA.115" stroke="#6e6e6e" stroke-width="0.4"><desc><name>Mathews County</name><stateAbbrev>VA</stateAbbrev><state>Virginia</state><fips>115</fips><incits>51115</incits><id>US.VA.115</id><population>8897</population></desc></path><path d="M415.668662675,458.982035928 L428.243512974,442.914171657 L443.612774451,446.407185629 L450.598802395,449.900199601 L467.365269461,451.996007984 L465.968063872,471.556886228 L408.682634731,472.255489022 L411.477045908,460.379241517 L415.668662675,458.982035928 Z" fill="#cee3f5" id="US.VA.117" stroke="#6e6e6e" stroke-width="0.4"><desc><name>Mecklenburg County</name><stateAbbrev>VA</stateAbbrev><state>Virginia</state><fips>117</fips><incits>51117</incits><id>US.VA.117</id><population>31426</population></desc></path><path d="M573.552894212,371.656686627 L579.840319361,369.560878244 L586.127744511,373.053892216 L591.716566866,382.135728543 L600.798403194,382.834331337 L607.784431138,385.628742515 L606.387225549,389.121756487 L599.401197605,389.820359281 L593.113772455,387.724550898 L581.936127745,383.532934132 L574.251497006,375.149700599 L573.552894212,371.656686627 Z" fill="#cee3f5" id="US.VA.119" stroke="#6e6e6e" stroke-width="0.4"><desc><name>Middlesex County</name><stateAbbrev>VA</stateAbbrev><state>Virginia</state><fips>119</fips><incits>51119</incits><id>US.VA.119</id><population>10762</population></desc></path><path d="M371.656686627,366.766467066 L373.053892216,359.081836327 L381.437125749,356.986027944 L386.327345309,359.780439122 L394.011976048,354.890219561 L396.806387226,347.904191617 L399.600798403,346.506986028 L414.97005988,373.053892216 L413.572854291,376.546906188 L407.984031936,380.738522954 L400.299401198,381.437125749 L400.299401198,387.025948104 L396.806387226,388.423153693 L394.011976048,387.724550898 L389.121756487,377.245508982 L380.738522954,373.75249501 L380.738522954,368.862275449 L371.656686627,366.766467066 Z" fill="#cee3f5" id="US.VA.125" stroke="#6e6e6e" stroke-width="0.4"><desc><name>Nelson County</name><stateAbbrev>VA</stateAbbrev><state>Virginia</state><fips>125</fips><incits>51125</incits><id>US.VA.125</id><population>14789</population></desc></path><path d="M533.033932136,388.423153693 L542.115768463,380.738522954 L557.48502994,389.121756487 L569.361277445,389.820359281 L573.552894212,395.409181637 L565.169660679,396.107784431 L560.978043912,402.395209581 L545.608782435,396.806387226 L538.622754491,392.614770459 L533.033932136,388.423153693 Z" fill="#cee3f5" id="US.VA.127" stroke="#6e6e6e" stroke-width="0.4"><desc><name>New Kent County</name><stateAbbrev>VA</stateAbbrev><state>Virginia</state><fips>127</fips><incits>51127</incits><id>US.VA.127</id><population>19507</population></desc></path><path d="M649.700598802,387.025948104 L654.590818363,389.121756487 L652.49500998,394.710578842 L651.796407186,397.50499002 L644.111776447,405.189620758 L642.015968064,420.558882236 L637.125748503,419.860279441 L634.331337325,412.175648703 L635.02994012,405.888223553 L639.221556886,400.998003992 L637.824351297,397.50499002 L642.714570858,387.025948104 L649.700598802,387.025948104 Z" fill="#cee3f5" id="US.VA.131" stroke="#6e6e6e" stroke-width="0.4"><desc><name>Northampton County</name><stateAbbrev>VA</stateAbbrev><state>Virginia</state><fips>131</fips><incits>51131</incits><id>US.VA.131</id><population>12125</population></desc></path><path d="M449.900199601,423.353293413 L450.598802395,408.682634731 L486.22754491,417.764471058 L477.844311377,421.956087824 L478.542914172,434.530938124 L468.76247505,432.435129741 L462.4750499,432.435129741 L452.694610778,426.846307385 L449.900199601,423.353293413 Z" fill="#cee3f5" id="US.VA.135" stroke="#6e6e6e" stroke-width="0.4"><desc><name>Nottoway County</name><stateAbbrev>VA</stateAbbrev><state>Virginia</state><fips>135</fips><incits>51135</incits><id>US.VA.135</id><population>15773</population></desc></path><path d="M416.367265469,299.700598802 L424.051896208,288.522954092 L426.846307385,289.221556886 L437.325349301,280.838323353 L445.708582834,286.427145709 L442.215568862,291.317365269 L441.516966068,297.604790419 L438.023952096,303.193612774 L433.133732535,305.988023952 L431.736526946,310.179640719 L428.942115768,315.069860279 L419.161676647,311.576846307 L412.175648703,306.686626747 L416.367265469,299.700598802 Z" fill="#cee3f5" id="US.VA.139" stroke="#6e6e6e" stroke-width="0.4"><desc><name>Page County</name><stateAbbrev>VA</stateAbbrev><state>Virginia</state><fips>139</fips><incits>51139</incits><id>US.VA.139</id><population>23821</population></desc></path><path d="M458.283433134,395.409181637 L463.872255489,378.642714571 L471.556886228,381.437125749 L475.748502994,375.848303393 L484.830339321,381.437125749 L498.80239521,386.327345309 L482.035928144,398.902195609 L477.844311377,394.011976048 L468.063872255,392.614770459 L463.872255489,396.107784431 L458.283433134,395.409181637 Z" fill="#cee3f5" id="US.VA.145" stroke="#6e6e6e" stroke-width="0.4"><desc><name>Powhatan County</name><stateAbbrev>VA</stateAbbrev><state>Virginia</state><fips>145</fips><incits>51145</incits><id>US.VA.145</id><population>28259</population></desc></path><path d="M412.874251497,412.874251497 L419.161676647,404.491017964 L419.860279441,400.299401198 L426.846307385,405.888223553 L431.037924152,405.189620758 L442.914171657,407.984031936 L449.900199601,403.093812375 L450.598802395,408.682634731 L449.900199601,423.353293413 L432.435129741,426.846307385 L426.846307385,422.654690619 L421.25748503,421.956087824 L412.175648703,416.367265469 L412.874251497,412.874251497 Z" fill="#cee3f5" id="US.VA.147" stroke="#6e6e6e" stroke-width="0.4"><desc><name>Prince Edward County</name><stateAbbrev>VA</stateAbbrev><state>Virginia</state><fips>147</fips><incits>51147</incits><id>US.VA.147</id><population>22802</population></desc></path><path d="M519.061876248,434.530938124 L519.760479042,429.640718563 L519.760479042,419.860279441 L519.760479042,419.161676647 L521.157684631,419.161676647 L522.55489022,419.161676647 L523.253493014,419.161676647 L523.952095808,419.161676647 L524.650698603,419.161676647 L525.349301397,417.065868263 L523.253493014,410.079840319 L525.349301397,407.285429142 L526.047904192,411.477045908 L535.129740519,407.285429142 L544.211576846,408.682634731 L551.896207585,414.97005988 L540.01996008,424.750499002 L519.061876248,434.530938124 Z" fill="#cee3f5" id="US.VA.149" stroke="#6e6e6e" stroke-width="0.4"><desc><name>Prince George County</name><stateAbbrev>VA</stateAbbrev><state>Virginia</state><fips>149</fips><incits>51149</incits><id>US.VA.149</id><population>37253</population></desc></path><path d="M441.516966068,297.604790419 L442.215568862,291.317365269 L445.708582834,286.427145709 L453.393213573,285.02994012 L458.982035928,278.043912176 L467.365269461,283.632734531 L469.461077844,289.920159681 L475.748502994,292.015968064 L462.4750499,299.700598802 L454.790419162,306.686626747 L449.900199601,305.289421158 L441.516966068,297.604790419 Z" fill="#cee3f5" id="US.VA.157" stroke="#6e6e6e" stroke-width="0.4"><desc><name>Rappahannock County</name><stateAbbrev>VA</stateAbbrev><state>Virginia</state><fips>157</fips><incits>51157</incits><id>US.VA.157</id><population>7478</population></desc></path><path d="M558.183632735,343.013972056 L562.375249501,340.219560878 L572.854291417,349.301397206 L583.333333333,352.794411178 L590.319361277,356.28742515 L593.81237525,363.273453094 L584.730538922,366.067864271 L575.648702595,363.972055888 L571.457085828,356.986027944 L562.375249501,350.698602794 L558.183632735,343.013972056 Z" fill="#cee3f5" id="US.VA.159" stroke="#6e6e6e" stroke-width="0.4"><desc><name>Richmond County</name><stateAbbrev>VA</stateAbbrev><state>Virginia</state><fips>159</fips><incits>51159</incits><id>US.VA.159</id><population>8953</population></desc></path><path d="M396.806387226,286.427145709 L416.367265469,299.700598802 L412.175648703,306.686626747 L419.161676647,311.576846307 L428.942115768,315.069860279 L423.353293413,322.055888224 L414.97005988,326.946107784 L406.586826347,332.53493014 L367.46506986,310.179640719 L375.149700599,295.508982036 L378.642714571,294.810379242 L380.03992016,287.824351297 L386.327345309,279.441117764 L396.806387226,286.427145709 Z" fill="#cee3f5" id="US.VA.165" stroke="#6e6e6e" stroke-width="0.4"><desc><name>Rockingham County</name><stateAbbrev>VA</stateAbbrev><state>Virginia</state><fips>165</fips><incits>51165</incits><id>US.VA.165</id><population>77741</population></desc></path><path d="M396.806387226,286.427145709 L403.79241517,275.948103792 L407.984031936,272.45508982 L412.874251497,273.153692615 L419.161676647,269.660678643 L424.750499002,261.976047904 L431.736526946,264.071856287 L435.928143713,259.181636727 L443.612774451,265.469061876 L445.00998004,271.057884232 L437.325349301,280.838323353 L426.846307385,289.221556886 L424.051896208,288.522954092 L416.367265469,299.700598802 L396.806387226,286.427145709 Z" fill="#cee3f5" id="US.VA.171" stroke="#6e6e6e" stroke-width="0.4"><desc><name>Shenandoah County</name><stateAbbrev>VA</stateAbbrev><state>Virginia</state><fips>171</fips><incits>51171</incits><id>US.VA.171</id><population>42684</population></desc></path><path d="M516.966067864,458.283433134 L556.786427146,438.023952096 L565.868263473,433.832335329 L565.169660679,437.325349301 L568.662674651,442.215568862 L559.580838323,458.283433134 L560.978043912,463.173652695 L561.676646707,463.173652695 L560.279441118,470.858283433 L528.143712575,471.556886228 L523.253493014,469.461077844 L521.856287425,464.570858283 L511.377245509,461.077844311 L516.966067864,458.283433134 Z" fill="#cee3f5" id="US.VA.175" stroke="#6e6e6e" stroke-width="0.4"><desc><name>Southampton County</name><stateAbbrev>VA</stateAbbrev><state>Virginia</state><fips>175</fips><incits>51175</incits><id>US.VA.175</id><population>18128</population></desc></path><path d="M540.01996008,424.750499002 L551.896207585,414.97005988 L568.662674651,416.367265469 L580.538922156,421.956087824 L578.443113772,428.942115768 L565.868263473,433.832335329 L556.786427146,438.023952096 L556.087824351,429.640718563 L540.01996008,424.750499002 Z" fill="#cee3f5" id="US.VA.181" stroke="#6e6e6e" stroke-width="0.4"><desc><name>Surry County</name><stateAbbrev>VA</stateAbbrev><state>Virginia</state><fips>181</fips><incits>51181</incits><id>US.VA.181</id><population>6765</population></desc></path><path d="M501.596806387,443.612774451 L519.061876248,434.530938124 L540.01996008,424.750499002 L556.087824351,429.640718563 L556.786427146,438.023952096 L516.966067864,458.283433134 L512.075848303,456.886227545 L514.870259481,445.00998004 L506.487025948,446.407185629 L501.596806387,443.612774451 Z" fill="#cee3f5" id="US.VA.183" stroke="#6e6e6e" stroke-width="0.4"><desc><name>Sussex County</name><stateAbbrev>VA</stateAbbrev><state>Virginia</state><fips>183</fips><incits>51183</incits><id>US.VA.183</id><population>11810</population></desc></path><path d="M553.293413174,326.946107784 L557.48502994,332.53493014 L563.073852295,335.329341317 L585.429141717,338.123752495 L593.81237525,347.205588822 L585.429141717,350.0 L583.333333333,352.794411178 L572.854291417,349.301397206 L562.375249501,340.219560878 L558.183632735,343.013972056 L550.499001996,341.616766467 L547.704590818,336.726546906 L549.101796407,328.343313373 L553.293413174,326.946107784 Z" fill="#cee3f5" id="US.VA.193" stroke="#6e6e6e" stroke-width="0.4"><desc><name>Westmoreland County</name><stateAbbrev>VA</stateAbbrev><state>Virginia</state><fips>193</fips><incits>51193</incits><id>US.VA.193</id><population>17612</population></desc></path><path d="M500.199600798,374.451097804 L505.788423154,376.546906188 L515.568862275,376.546906188 L519.061876248,382.834331337 L533.033932136,388.423153693 L538.622754491,392.614770459 L532.335329341,401.696606786 L528.143712575,403.79241517 L520.459081836,399.600798403 L518.363273453,396.107784431 L521.157684631,389.820359281 L518.363273453,384.930139721 L513.473053892,383.532934132 L508.582834331,387.025948104 L503.69261477,387.025948104 L498.80239521,386.327345309 L500.199600798,374.451097804 Z" fill="#cee3f5" id="US.VA.087" stroke="#6e6e6e" stroke-width="0.4"><desc><name>Henrico County</name><stateAbbrev>VA</stateAbbrev><state>Virginia</state><fips>087</fips><incits>51087</incits><id>US.VA.087</id><population>318611</population></desc></path><path d="M523.952095808,368.163672655 L530.239520958,361.177644711 L537.924151697,359.081836327 L544.211576846,368.163672655 L550.499001996,373.053892216 L555.389221557,374.451097804 L565.169660679,380.738522954 L570.758483034,388.423153693 L569.361277445,389.820359281 L557.48502994,389.121756487 L542.115768463,380.738522954 L541.417165669,377.944111776 L534.431137725,375.848303393 L525.349301397,370.958083832 L523.952095808,368.163672655 Z" fill="#cee3f5" id="US.VA.101" stroke="#6e6e6e" stroke-width="0.4"><desc><name>King William County</name><stateAbbrev>VA</stateAbbrev><state>Virginia</state><fips>101</fips><incits>51101</incits><id>US.VA.101</id><population>16097</population></desc></path><path d="M357.684630739,472.255489022 L347.205588822,472.255489022 L352.794411178,463.872255489 L358.383233533,466.666666667 L357.684630739,472.255489022 Z" fill="#cee3f5" id="US.VA.590" stroke="#6e6e6e" stroke-width="0.4"><desc><name>Danville city</name><stateAbbrev>VA</stateAbbrev><state>Virginia</state><fips>590</fips><incits>51590</incits><id>US.VA.590</id><population>42907</population></desc></path><path d="M595.908183633,471.556886228 L598.70259481,449.201596806 L601.497005988,445.00998004 L609.181636727,451.29740519 L609.880239521,450.598802395 L611.27744511,450.598802395 L611.27744511,450.598802395 L612.674650699,448.502994012 L616.167664671,447.804391218 L616.167664671,447.804391218 L617.564870259,447.105788423 L619.660678643,452.694610778 L624.550898204,454.091816367 L630.838323353,459.680638723 L626.646706587,461.776447106 L626.646706587,471.556886228 L595.908183633,471.556886228 Z" fill="#cee3f5" id="US.VA.550" stroke="#6e6e6e" stroke-width="0.4"><desc><name>Chesapeake city</name><stateAbbrev>VA</stateAbbrev><state>Virginia</state><fips>550</fips><incits>51550</incits><id>US.VA.550</id><population>230571</population></desc></path><path d="M600.099800399,426.147704591 L603.592814371,424.750499002 L625.249500998,424.051896208 L625.249500998,430.339321357 L609.181636727,436.626746507 L608.483033932,440.119760479 L604.291417166,438.023952096 L599.401197605,430.339321357 L600.099800399,426.147704591 Z" fill="#cee3f5" id="US.VA.650" stroke="#6e6e6e" stroke-width="0.4"><desc><name>Hampton city</name><stateAbbrev>VA</stateAbbrev><state>Virginia</state><fips>650</fips><incits>51650</incits><id>US.VA.650</id><population>136699</population></desc></path><path d="M585.429141717,419.860279441 L587.5249501,415.668662675 L589.620758483,414.97005988 L600.099800399,426.147704591 L599.401197605,430.339321357 L604.291417166,438.023952096 L603.592814371,439.421157685 L599.401197605,438.72255489 L597.305389222,435.928143713 L584.031936128,426.147704591 L585.429141717,419.860279441 Z" fill="#cee3f5" id="US.VA.700" stroke="#6e6e6e" stroke-width="0.4"><desc><name>Newport News city</name><stateAbbrev>VA</stateAbbrev><state>Virginia</state><fips>700</fips><incits>51700</incits><id>US.VA.700</id><population>182020</population></desc></path><path d="M609.181636727,417.065868263 L625.249500998,417.764471058 L625.249500998,424.051896208 L603.592814371,424.750499002 L602.195608782,420.558882236 L609.181636727,417.065868263 Z" fill="#cee3f5" id="US.VA.735" stroke="#6e6e6e" stroke-width="0.4"><desc><name>Poquoson city</name><stateAbbrev>VA</stateAbbrev><state>Virginia</state><fips>735</fips><incits>51735</incits><id>US.VA.735</id><population>12104</population></desc></path><path d="M580.538922156,403.093812375 L581.936127745,402.395209581 L593.81237525,412.874251497 L597.305389222,414.271457086 L609.181636727,412.874251497 L609.181636727,417.065868263 L602.195608782,420.558882236 L603.592814371,424.750499002 L600.099800399,426.147704591 L589.620758483,414.97005988 L587.5249501,415.668662675 L579.840319361,411.477045908 L575.648702595,407.984031936 L574.9500998,402.395209581 L580.538922156,403.093812375 Z" fill="#cee3f5" id="US.VA.199" stroke="#6e6e6e" stroke-width="0.4"><desc><name>York County</name><stateAbbrev>VA</stateAbbrev><state>Virginia</state><fips>199</fips><incits>51199</incits><id>US.VA.199</id><population>66269</population></desc></path></svg>