<?xml version='1.0' encoding='utf-8'?>
<svg height="700" width="700" xmlns="http://www.w3.org/2000/svg"><path d="M390.887269076,674.738903803 L391.678660296,669.050570497 L392.464473184,666.887084024 L395.822027828,662.105569964 L401.024794701,656.435845904 L405.851469112,645.195714352 L409.8307681,639.282843388 L413.312286762,632.705611524 L428.525729215,590.561572699 L435.086824849,577.9643502 L436.284664177,574.713652293 L436.938002151,568.157003145 L435.910630456,555.958229446 L436.339859588,552.506020843 L437.840384474,549.674681199 L445.647246736,538.975697738 L445.338333293,537.142614339 L439.354580929,523.040604941 L429.321506656,508.734918884 L427.756272765,503.097152768 L427.987690709,494.41295013 L424.722528037,481.740073701 L424.484053156,477.434236282 L420.923568701,469.835509573 L411.320289414,455.201852896 L407.610378378,440.962649379 L407.418091756,438.063164721 L408.129702089,433.265837461 L404.292914458,420.079463878 L398.522078142,412.113983169 L397.119675496,409.403230586 L403.016843261,390.802800334 L411.164015877,376.667185221 L412.205751778,373.100847628 L428.145249895,372.782261592 L431.069736296,372.196223372 L432.777563285,371.265174584 L439.519594954,350.722996798 L451.244536941,337.075861189 L455.946188847,324.861963053 L461.001623787,317.318757803 L464.794639057,308.729981345 L467.829047931,305.560327182 L468.830068781,302.082012207 L469.599108237,293.00446186 L474.716568926,271.863939771 L476.651123923,266.788979985 L476.503189363,265.125064887 L475.042035066,263.741508727 L473.766232329,263.453406795 L472.25887143,261.802623693 L469.356036046,255.514053739 L469.661742788,252.314265823 L469.255132345,247.783055514 L468.75502629,245.515846761 L467.139228066,242.90169591 L468.29363217,241.783353602 L470.311007414,241.028716936 L471.431738717,241.287374708 L473.105621416,242.607661465 L474.121353046,242.483879193 L475.022607167,241.637098066 L477.001188877,238.137799716 L477.503848071,236.077628973 L475.488040082,233.602969734 L474.748440693,230.548982891 L474.856954854,227.937037637 L476.739873293,226.24112333 L481.615880568,225.442733883 L483.978358864,224.474820023 L484.629308002,223.340972151 L484.065412171,220.794536186 L484.827441541,217.317982135 L485.152621986,213.801570414 L487.660145816,211.542713479 L489.962083709,211.641066457 L495.422414237,214.029861495 L506.707263035,221.43668151 L514.51701666,229.345411794 L518.32922374,235.63087554 L520.575635765,245.790036656 L518.473700762,243.162881698 L520.731622269,247.899311622 L521.176665971,254.88354865 L518.063335536,262.703127158 L516.82338823,269.171112297 L519.052718713,272.822452398 L518.866605337,277.943673448 L515.500168131,284.973227579 L510.676401334,291.885910467 L509.494254807,296.024843879 L509.006227358,300.275669105 L503.404261385,306.415543409 L502.302923945,308.473099492 L502.680665628,309.352915031 L504.89622219,308.797872232 L506.757603181,309.266751457 L506.901908329,315.88959653 L507.549786748,317.156618938 L509.205263722,317.284741863 L510.085029947,316.248690467 L508.621999987,314.182602873 L508.789407499,313.273667876 L509.590294106,312.808476592 L511.623848987,313.044500508 L512.752795023,315.42646068 L515.920112909,319.261981707 L516.631899272,321.161048031 L516.164783613,322.481531804 L515.004975832,323.581284681 L512.027125874,325.050350594 L510.701679299,322.180737027 L507.808134674,321.748315778 L506.736861271,322.306472123 L503.646715464,331.870390634 L504.073694824,332.931515368 L507.541524554,336.049686498 L506.587948269,336.60055174 L502.882871594,336.238625742 L497.943159588,337.9755574 L487.587682211,339.333443708 L484.989503425,337.332086424 L480.364671252,337.835461574 L476.190944647,339.323921872 L472.457468271,337.700726564 L468.884423115,337.902912517 L465.69317918,339.460333957 L463.139687305,341.902902661 L461.706349681,344.601522259 L460.599443746,345.462760252 L458.2692461,345.781008718 L455.247531406,344.829033562 L454.052749162,345.128928744 L448.370665882,352.43839817 L446.83886955,354.614754753 L446.180708525,357.801852164 L446.896746503,359.108882388 L450.060535498,360.963071233 L451.329008559,364.865678529 L454.666536932,369.790068622 L454.531638806,371.588461724 L452.063112248,375.677591472 L450.552412089,380.502968624 L447.179838875,387.39906246 L446.472557278,390.539573653 L443.535968945,394.444244802 L443.154980378,396.178645613 L444.231531017,400.686295535 L443.409558053,404.94406053 L434.048232349,414.97625203 L432.721858922,416.991202058 L432.551899537,418.953804126 L433.747168823,423.04033287 L434.981806034,431.106386276 L435.917614547,434.457325877 L438.222409269,437.346773533 L444.482432818,442.269565544 L450.852384044,451.119646856 L452.87623371,455.439107492 L453.529995691,461.563027878 L455.160987176,465.325748246 L461.401287374,468.256878339 L465.032934054,470.572873693 L467.244781285,475.460310062 L468.731518415,475.794654746 L471.28581724,477.406282552 L472.845465105,479.164148081 L472.706439346,480.839967093 L471.256810384,483.634607399 L471.477157488,485.425836559 L470.879137173,488.561643305 L471.808098574,491.161908435 L475.77158413,492.443478694 L480.354929203,494.989483677 L482.270556906,495.149825612 L483.202347327,493.288253952 L486.19087447,494.659451646 L487.707583133,494.83172609 L488.824901064,496.025468789 L490.450693023,494.661545893 L493.144764578,493.97184927 L493.809942538,493.141565884 L493.707278444,491.424020133 L499.261239151,493.501484737 L501.807358044,493.071198192 L504.821876762,490.72506189 L507.484164751,496.902406859 L507.261616582,500.195185873 L506.335229481,501.973642092 L507.481982424,504.673901342 L506.766651343,508.912249499 L508.006955958,512.146621451 L506.94729542,514.669860104 L508.961611346,515.596498482 L511.385331272,514.151572669 L511.971335656,514.739708797 L510.517643584,517.517691738 L511.384171628,519.2476013 L513.029060862,520.752264761 L514.574859934,525.505584981 L512.624006334,526.156898037 L513.125916728,528.876507515 L511.844651132,530.983247113 L513.061312098,531.679299404 L516.228893589,532.013085679 L516.68681197,533.41946102 L513.272126253,536.868445857 L514.926415559,542.75364721 L515.690009148,543.155577515 L516.418898541,544.934392276 L517.561887261,545.341268084 L521.493741857,544.048195361 L522.158803837,544.67056617 L520.512794397,548.0856557 L521.143251538,549.874219415 L524.720416027,549.168982018 L525.641751248,549.614952204 L524.394914124,552.785125283 L528.301948767,558.351739429 L528.87336909,562.085526913 L529.632206225,562.644152358 L531.613156305,561.531924913 L532.258655704,562.742223456 L531.613043716,566.711163878 L534.485983913,570.356745535 L534.155806971,574.242394407 L534.771829031,575.124381062 L538.063795116,573.242748053 L538.857253023,574.119809339 L538.063914696,577.123495789 L538.822944409,579.259840807 L540.863402383,581.636217618 L540.079887743,583.983322214 L540.806932207,585.703162311 L544.22020789,588.662504569 L545.284984585,590.779190479 L545.233511452,594.194445687 L545.642682173,595.042099613 L549.578592041,596.340196475 L550.788882868,598.182432642 L553.148657933,607.256822462 L562.334577854,620.181449025 L564.947614867,621.246695991 L574.299723339,621.396462967 L577.896658768,623.257514431 L579.911146127,625.194918251 L581.912969614,625.833789441 L582.751300967,626.504848126 L583.646751525,628.523413592 L576.29171703,631.840377104 L574.770750387,631.953460314 L570.441357001,629.195770017 L568.597426238,628.978122555 L564.362863608,631.32605283 L559.240376927,631.243616423 L555.138879268,634.460995344 L552.673807364,634.980678096 L544.637385593,633.406054265 L541.659423759,630.760270102 L536.418712843,631.09361783 L533.145111603,630.716337451 L528.870793603,627.918412267 L527.741895261,625.963310743 L527.145489307,623.263439435 L524.241930734,620.960325218 L519.622513946,622.785178309 L511.462800812,627.872792443 L509.53519543,627.522161969 L506.08452072,625.377860861 L503.737872112,625.159378475 L501.632589299,625.945407182 L497.524898904,630.082568774 L493.235015956,632.443360524 L489.865500077,640.461425205 L483.517541579,648.441936509 L480.666881141,650.582467769 L476.20895684,651.705698121 L473.279910678,651.792957935 L461.805924593,650.14966074 L458.758157282,650.956986455 L446.210280573,656.873683621 L440.219180285,655.427595929 L439.646775765,656.118297577 L440.320258526,660.509574893 L440.0285035,662.148688063 L437.718141232,666.950203237 L436.183449552,668.782320684 L432.183251544,669.525294599 L427.670488403,669.376003355 L424.598201759,668.565759664 L423.23848026,665.710263831 L420.91150773,663.961790289 L417.818432075,665.05538475 L411.870763329,664.054482282 L410.228818852,663.237430466 L408.198287206,660.765956036 L407.107773004,661.507783792 L405.245824173,665.30748944 L401.53520196,667.444511627 L401.902690009,671.292283876 L399.31686455,673.013473168 L390.887269076,674.738903803 Z" fill="#cee3f5" id="GY.MA" stroke="#6e6e6e" stroke-width="0.4"><desc><labelrank>6</labelrank><code_hasc>GY.MA</code_hasc><name>Mahaica-Berbice</name><admin>Guyana</admin><type_en>Region</type_en><region /><woe_id>2345606</woe_id><longitude>-57</longitude><woe_name>Mahaica-Berbice</woe_name><fips>GY13</fips><woe_label>East Berbice-Corentyne, GY, Guyana</woe_label><latitude>2</latitude><iso_a2>GY</iso_a2><postal>MA</postal><type>Region</type><id>GY.MA</id></desc></path><path d="M358.867484512,298.909775503 L357.511960644,299.508693029 L355.621354519,303.920413911 L355.021382324,307.274631714 L361.114999831,316.551769914 L360.982288042,323.383348997 L358.642716161,337.06764818 L358.818615139,340.970746116 L361.117972933,347.01233423 L363.496738815,360.510735395 L364.783632753,362.127014668 L369.124790238,360.870764233 L370.505586127,362.347394061 L371.865421075,366.382952006 L374.147407519,369.543113749 L385.021716875,374.281517295 L389.474092206,374.999512833 L403.806950126,374.908520846 L412.205751778,373.100847628 L411.164015877,376.667185221 L403.016843261,390.802800334 L397.119675496,409.403230586 L388.325289215,405.935396381 L385.286385862,406.03954917 L382.085054106,407.314825849 L378.748441788,409.653476576 L374.838711652,415.204223822 L362.07240658,426.451743308 L357.659948523,431.388522253 L355.098314702,433.088822672 L350.87366934,433.152573624 L348.026614251,431.557290847 L341.54315837,423.20124174 L339.260996774,416.583410712 L338.495161957,415.757663766 L335.982397169,415.589233181 L329.653636871,418.303466373 L325.651857536,417.924704617 L320.01662494,418.820986819 L307.102195008,418.35649177 L304.332393532,417.506965909 L299.731370548,414.878560854 L299.034882244,414.000882187 L298.705684712,412.216982251 L301.27961318,407.985083355 L300.491140391,399.021784833 L301.370402643,395.856257915 L302.354334627,394.549944052 L302.35816123,393.380212113 L299.433462458,385.454369619 L297.373603549,384.68713296 L293.099472088,386.521573017 L290.724716191,389.215996346 L287.621188839,395.434719128 L285.854854699,397.204271812 L282.991879734,397.849126361 L278.355212786,397.673188256 L278.040879828,396.43831275 L275.846479442,395.964357458 L273.526542716,393.46868092 L267.981468998,390.349899929 L266.714977286,388.679479069 L265.127882287,389.730670253 L261.604461924,389.143034313 L260.802169897,388.42113019 L261.077705262,387.21770278 L260.690111783,386.858020807 L256.719844809,387.823633592 L254.847858796,385.546863389 L253.055907962,384.815897934 L251.013958522,385.0136776 L250.055310623,386.425383113 L246.61454117,385.454391845 L243.28504759,386.132440383 L242.271630297,385.868114021 L241.77412477,384.136222262 L240.233000908,382.895508565 L239.201461166,382.846943832 L238.469647749,384.686543207 L237.064316494,385.08294914 L234.414075471,384.060588938 L233.351438598,382.652391304 L232.896138606,380.900816883 L233.219245199,379.098664216 L235.777087035,376.418073484 L238.510863744,376.258250111 L240.273824552,375.110216605 L241.441210869,371.054495487 L244.181094189,367.128388562 L245.585835433,363.937522995 L245.414949584,358.0139036 L246.772586036,353.794929457 L247.036750872,348.103933639 L248.755610554,341.835622507 L248.860833855,338.175495637 L250.579853159,332.434881199 L250.439799087,329.725620025 L243.600965357,325.976403738 L240.416783184,323.083249289 L249.720271973,314.822364185 L252.787405342,307.049771023 L253.914242208,304.881454264 L255.711439857,302.895470252 L264.292440338,300.311029768 L268.460879609,300.590346537 L272.952436368,300.063772165 L281.602891522,301.833866428 L288.566437704,301.392846776 L289.584334638,299.592016655 L288.217250486,287.138958642 L289.032388129,285.61941135 L291.756047934,283.14918965 L296.774454737,280.085455332 L305.889624157,282.517064814 L309.847289738,282.018115335 L312.310580112,280.399692961 L314.113539624,277.373511597 L316.981350653,273.998455792 L322.151178022,271.019788811 L323.82644199,270.97476471 L325.871408147,272.522427897 L330.133646133,277.596704079 L331.992996098,280.98953971 L334.325363619,283.390924969 L334.283102883,287.676544085 L334.752642105,288.980112413 L337.680856127,289.740593431 L341.973763242,287.975393609 L343.685368129,288.157712452 L346.611167673,291.847369833 L347.991186205,292.788409008 L355.401565348,293.9741321 L358.867484512,298.909775503 Z" fill="#cee3f5" id="GY.PT" stroke="#6e6e6e" stroke-width="0.4"><desc><labelrank>6</labelrank><code_hasc>GY.PT</code_hasc><name>Potaro-Siparuni</name><admin>Guyana</admin><type_en>Region</type_en><region /><woe_id>2345610</woe_id><longitude>-59</longitude><woe_name>Potaro-Siparuni</woe_name><fips>GY17</fips><woe_label>Potaro-Siparuni, GY, Guyana</woe_label><latitude>4</latitude><iso_a2>GY</iso_a2><postal>PT</postal><type>Region</type><id>GY.PT</id></desc></path><path d="M413.211980902,233.522917846 L416.217052167,234.591128332 L422.206911182,232.668507248 L425.39222336,235.508395408 L427.395350061,236.019894283 L428.441416359,239.097638479 L428.489516886,240.769085593 L427.296637601,244.614181027 L428.345793403,246.295019909 L436.135647209,249.040164275 L443.921298419,250.311238464 L444.997147107,252.535686994 L448.465466091,256.361731085 L451.525275249,256.491544998 L454.817305737,258.866128577 L458.479286787,256.67096808 L462.758413878,256.948873344 L466.347389013,255.792089977 L469.356036046,255.514053739 L472.25887143,261.802623693 L473.766232329,263.453406795 L475.042035066,263.741508727 L476.503189363,265.125064887 L476.651123923,266.788979985 L474.716568926,271.863939771 L469.599108237,293.00446186 L468.830068781,302.082012207 L467.829047931,305.560327182 L464.794639057,308.729981345 L461.001623787,317.318757803 L455.946188847,324.861963053 L451.244536941,337.075861189 L439.519594954,350.722996798 L432.777563285,371.265174584 L431.069736296,372.196223372 L428.145249895,372.782261592 L412.205751778,373.100847628 L403.806950126,374.908520846 L389.474092206,374.999512833 L385.021716875,374.281517295 L374.147407519,369.543113749 L371.865421075,366.382952006 L370.505586127,362.347394061 L369.124790238,360.870764233 L364.783632753,362.127014668 L363.496738815,360.510735395 L361.117972933,347.01233423 L358.818615139,340.970746116 L358.642716161,337.06764818 L360.982288042,323.383348997 L361.114999831,316.551769914 L355.021382324,307.274631714 L355.621354519,303.920413911 L357.511960644,299.508693029 L358.867484512,298.909775503 L362.779076309,298.75974218 L373.303864471,296.809484372 L374.95929821,295.122771814 L377.139718429,290.969158807 L380.019910184,283.211844537 L381.158886409,266.603630941 L380.790495518,260.60707759 L381.181980061,258.478147209 L384.809460678,251.676782142 L385.093185832,249.420113615 L385.122739957,241.647718984 L383.836700882,238.34723057 L383.783557346,236.381263383 L385.175081225,223.720343103 L383.985612774,221.184764884 L385.19430369,217.271459311 L384.880405298,215.625799428 L382.620781897,211.081815609 L382.220311513,203.963700311 L383.337178201,203.905379879 L382.628504351,203.316435082 L384.216560693,199.381115525 L386.240191269,200.670590138 L392.7414203,210.281044325 L397.572832479,213.613366925 L401.227977114,217.743390622 L402.939608162,221.554229818 L404.870536119,229.897225814 L404.883963466,230.404595926 L404.75183737,231.235114613 L405.072634738,231.456509673 L405.580218348,231.54112415 L409.767033573,231.801508394 L413.211980902,233.522917846 Z" fill="#cee3f5" id="GY.UT" stroke="#6e6e6e" stroke-width="0.4"><desc><labelrank>6</labelrank><code_hasc>GY.UT</code_hasc><name>Upper Takutu-Upper Essequibo</name><admin>Guyana</admin><type_en>Region</type_en><region /><woe_id>2345611</woe_id><longitude>-58</longitude><woe_name>Upper Takutu-Upper Essequibo</woe_name><fips>GY18</fips><woe_label>Upper Demerara-Berbice, GY, Guyana</woe_label><latitude>5</latitude><iso_a2>GY</iso_a2><postal>UT</postal><type>Region</type><id>GY.UT</id></desc></path><path d="M397.119675496,409.403230586 L398.522078142,412.113983169 L404.292914458,420.079463878 L408.129702089,433.265837461 L407.418091756,438.063164721 L407.610378378,440.962649379 L411.320289414,455.201852896 L420.923568701,469.835509573 L424.484053156,477.434236282 L424.722528037,481.740073701 L427.987690709,494.41295013 L427.756272765,503.097152768 L429.321506656,508.734918884 L439.354580929,523.040604941 L445.338333293,537.142614339 L445.647246736,538.975697738 L437.840384474,549.674681199 L436.339859588,552.506020843 L435.910630456,555.958229446 L436.938002151,568.157003145 L436.284664177,574.713652293 L435.086824849,577.9643502 L428.525729215,590.561572699 L413.312286762,632.705611524 L409.8307681,639.282843388 L405.851469112,645.195714352 L401.024794701,656.435845904 L395.822027828,662.105569964 L392.464473184,666.887084024 L391.678660296,669.050570497 L390.887269076,674.738903803 L389.749932979,676.151565537 L392.18814214,681.843849383 L392.851498707,686.113482792 L389.236569017,692.429439259 L386.933059355,691.751649557 L385.606677921,690.564643526 L383.356180979,691.906336267 L372.167107512,691.109997544 L366.903405679,697.376330361 L365.076938503,698.674227076 L360.872107707,700.0 L357.428022015,699.860446683 L355.509079986,699.05024084 L353.053072719,697.09732981 L351.733532655,693.071355155 L350.230221621,690.795414708 L346.506590417,688.33138672 L342.249392043,686.675727619 L326.317216404,683.857464635 L318.492693694,680.974260055 L315.261199708,674.834012367 L312.731488245,672.798755343 L312.103379884,669.382503566 L310.994494452,667.94689797 L307.021415979,668.065145761 L305.642270718,665.587003345 L303.523131717,665.030413805 L300.789022124,660.686893215 L296.926105737,657.354525393 L295.322151932,655.304864207 L292.662517812,650.990253917 L290.683088215,649.33228054 L288.655404285,648.699281821 L285.290791807,649.37403605 L282.260408429,649.203093668 L278.331228066,645.815411744 L278.176867682,645.035247835 L281.719506272,639.146788884 L281.627452038,637.981678619 L279.572136098,637.718637992 L275.983486232,636.31763781 L271.76979163,636.889988997 L270.905122648,635.860919051 L270.361121442,630.316693107 L272.346758789,626.397901625 L272.206710091,623.04471768 L272.999234555,619.889329161 L271.491409085,615.611536107 L273.175730063,612.001535868 L272.267028978,608.203018059 L272.599726743,597.735142319 L270.546335962,595.43539447 L266.922613321,594.977028727 L262.81801826,591.8634326 L257.201246993,588.608954486 L256.220516788,586.79156952 L257.365682912,584.345761617 L256.87342074,579.193117567 L254.111387144,573.004988638 L253.653533355,569.28977864 L252.473855362,567.29993147 L250.770909718,566.476560199 L251.343038192,564.495654691 L248.35695229,558.664315551 L248.016044193,556.833276955 L248.662207748,541.33461839 L250.663443393,533.553023746 L250.587328774,526.114379272 L251.047662885,523.735932482 L254.554984488,517.352426227 L256.569103267,515.802687891 L255.625979077,513.552933265 L257.379052164,512.743383963 L256.083075507,510.605474985 L256.103839456,509.369123577 L257.927369163,507.171351394 L259.239006734,502.887004964 L262.142978812,497.878773676 L263.158072173,494.687833549 L265.203842953,493.975018252 L264.570279961,491.426960297 L265.007722262,486.846021032 L263.354370625,487.437213619 L265.278960248,481.842697382 L264.50485049,479.431508111 L261.322833797,475.37666939 L261.346293129,472.590024264 L263.759967554,469.98013341 L271.600485156,467.266838236 L275.225694134,463.946936106 L278.226942108,462.342111274 L278.811743584,461.254866432 L278.817756235,458.461232428 L279.620866379,456.079642486 L280.834276335,454.879075533 L284.732209265,453.1568931 L286.613832961,451.717993757 L286.923354985,450.377374034 L286.257184666,446.659708754 L288.245424822,442.535687569 L290.026918172,440.738540095 L292.7413919,439.900702041 L293.417383251,438.723126356 L292.548264103,436.996409448 L286.884633306,435.750148899 L286.978532988,433.307683313 L284.659574266,429.849485883 L281.440403975,426.851684002 L280.533995773,425.374622101 L280.841848565,423.148584093 L282.179008565,420.224518939 L280.164882596,418.648038612 L276.073922769,417.316973418 L274.514044345,416.171021561 L273.404697894,413.670143389 L273.466393471,410.135771947 L274.75741869,407.856726139 L273.432868609,405.713119661 L274.456163755,403.940903835 L277.725650242,400.592206035 L278.355212786,397.673188256 L282.991879734,397.849126361 L285.854854699,397.204271812 L287.621188839,395.434719128 L290.724716191,389.215996346 L293.099472088,386.521573017 L297.373603549,384.68713296 L299.433462458,385.454369619 L302.35816123,393.380212113 L302.354334627,394.549944052 L301.370402643,395.856257915 L300.491140391,399.021784833 L301.27961318,407.985083355 L298.705684712,412.216982251 L299.034882244,414.000882187 L299.731370548,414.878560854 L304.332393532,417.506965909 L307.102195008,418.35649177 L320.01662494,418.820986819 L325.651857536,417.924704617 L329.653636871,418.303466373 L335.982397169,415.589233181 L338.495161957,415.757663766 L339.260996774,416.583410712 L341.54315837,423.20124174 L348.026614251,431.557290847 L350.87366934,433.152573624 L355.098314702,433.088822672 L357.659948523,431.388522253 L362.07240658,426.451743308 L374.838711652,415.204223822 L378.748441788,409.653476576 L382.085054106,407.314825849 L385.286385862,406.03954917 L388.325289215,405.935396381 L397.119675496,409.403230586 Z" fill="#cee3f5" id="GY.UD" stroke="#6e6e6e" stroke-width="0.4"><desc><labelrank>6</labelrank><code_hasc>GY.UD</code_hasc><name>Upper Demerara-Berbice</name><admin>Guyana</admin><type_en>Region</type_en><region /><woe_id>2345612</woe_id><longitude>-58</longitude><woe_name>Upper Demerara-Berbice</woe_name><fips>GY19</fips><woe_label>Upper Takutu-Upper Essequibo, GY, Guyana</woe_label><latitude>2</latitude><iso_a2>GY</iso_a2><postal>UD</postal><type>Region</type><id>GY.UD</id></desc></path><path d="M365.716334544,85.4535989552 L361.074111432,91.1746715551 L357.444267225,94.5228441539 L355.442537402,95.7817193714 L342.472529226,101.193591087 L335.735549542,108.441900043 L335.137909429,109.566985936 L335.32690324,111.009648069 L337.799328694,115.167478702 L337.962033177,117.568676427 L333.532852515,121.861087354 L327.965989518,139.190493508 L328.051513478,141.848942005 L330.028013416,149.898352956 L324.937799038,147.606569452 L319.21450962,146.608195321 L317.292356478,147.886283433 L316.451112474,150.569860944 L313.290594724,152.977242512 L312.244086398,153.008860504 L305.180413311,150.844597964 L303.205340093,149.414429231 L299.843198799,149.426322757 L298.52620491,148.698317264 L290.092252253,140.07062185 L279.623136261,137.344851571 L265.915325767,129.800059419 L263.61422779,129.859349027 L259.626985955,131.124785079 L257.929443801,134.119550419 L253.907964968,138.323870044 L252.182195518,138.371698968 L248.421548203,136.990464028 L246.952065064,137.194326396 L243.47827811,140.621500487 L241.558304707,141.448008547 L235.249061206,139.157781758 L232.503985663,138.719366745 L230.489162948,139.029426111 L227.562947555,136.437062055 L221.213283357,133.378104031 L219.625434253,132.939593764 L216.889975947,133.239425416 L214.65049339,131.361810774 L210.494622671,131.419407375 L207.3099647,129.780314811 L204.860990993,129.747044072 L202.835135493,130.482801625 L201.281809824,131.934057451 L199.161622655,135.664104041 L197.918231478,135.679108488 L191.35064688,130.413203677 L188.96858806,126.54440373 L188.944688286,123.715701272 L190.146991252,121.1571311 L192.9071537,118.439230466 L192.969268751,116.195675235 L190.4300336,111.024033535 L188.139625097,109.664680546 L187.468236534,106.079223677 L183.685863618,104.397647288 L181.521611594,100.357235482 L180.906005039,97.5379130399 L182.262624673,95.06446902 L186.574203759,93.726016696 L190.361923709,88.1941063007 L190.98553797,87.7377574243 L192.357599611,87.9997120131 L193.254785752,87.3393927557 L193.409089298,84.7086750206 L194.885375778,82.1578100242 L194.681104684,78.4880245621 L197.307891406,75.0974443023 L199.208056114,71.5927746006 L200.552924957,70.3421472716 L202.688741279,69.6480327221 L214.866754502,69.4874257432 L217.186283048,67.7779398156 L217.962459716,65.5995548783 L224.68316947,60.6211539944 L228.576250561,56.2485769022 L233.137902438,54.5218732587 L238.271767639,50.1781997608 L240.294509406,49.553089822 L246.106279526,49.847062053 L247.712731936,48.9191512085 L248.683690288,47.2650856073 L249.511543119,43.4604253327 L250.627288146,42.0479336277 L250.526584353,38.4818203143 L251.234362745,37.0074433096 L254.686440009,34.0295987079 L256.33247447,33.2540627283 L264.978917739,31.4837271247 L266.804117606,29.8479716517 L268.014037266,27.7588621409 L268.128060836,25.8067541315 L264.386835283,19.6683750929 L254.62783364,8.57664266353 L248.899630651,0.0 L253.869779795,2.92912532858 L257.217290514,6.35510245865 L262.561116721,14.6135962845 L266.083665389,18.050967807 L268.759360197,19.4572214061 L273.367688529,20.7415594594 L283.605010833,27.251577373 L286.406298487,27.8534588137 L287.556415881,30.2753733111 L293.82880512,31.5132965772 L304.145862436,40.9902360089 L301.988776214,37.4739284474 L298.706836136,34.2169226778 L294.76354024,31.5733066584 L287.68261921,28.6305735935 L279.019088262,22.5616329641 L273.307710824,19.4159687851 L271.390739562,15.7243891933 L271.618742473,14.4973993387 L273.860200661,14.1578032389 L278.741817518,17.5451929814 L282.584953263,18.7187914429 L287.47587786,22.6184183172 L293.676993208,26.3593887075 L302.286547612,30.3185394272 L312.286538541,37.5739255892 L329.512718928,47.9270074964 L335.198225048,52.2391491518 L343.046216919,60.1183707583 L355.91163854,74.63161101 L360.753087313,78.4849830288 L365.716334544,85.4535989552 Z" fill="#cee3f5" id="GY.BA" stroke="#6e6e6e" stroke-width="0.4"><desc><labelrank>6</labelrank><code_hasc>GY.BA</code_hasc><name>Barima-Waini</name><admin>Guyana</admin><type_en>Region</type_en><region /><woe_id>2345603</woe_id><longitude>-59</longitude><woe_name>Barima-Waini</woe_name><fips>GY10</fips><woe_label>Barima-Waini, GY, Guyana</woe_label><latitude>7</latitude><iso_a2>GY</iso_a2><postal>BA</postal><type>Region</type><id>GY.BA</id></desc></path><path d="M330.028013416,149.898352956 L329.975030972,151.842568433 L328.085350217,157.863511875 L328.190675575,160.566149642 L338.520381719,164.373045842 L341.452220357,164.157502963 L344.327609056,161.592742699 L345.420918,161.486968667 L347.938775214,162.35301172 L348.962288021,164.343071 L349.289846926,168.181302935 L350.58784941,170.233658921 L354.558758762,171.301059478 L358.394458172,170.573015752 L360.348050063,175.674690632 L361.911359198,178.418835235 L362.185245638,179.920157003 L361.621420239,185.277043762 L361.202018533,187.344569287 L360.903076322,190.662801936 L361.274374345,191.710938526 L361.706086493,192.330276363 L369.249302402,193.21738519 L375.847754718,196.588163745 L376.724500195,196.8876494 L377.479489088,196.934239868 L379.14087538,196.451831811 L380.817704061,197.169148068 L380.536286422,198.237581258 L374.197731698,207.172862606 L374.844587963,207.769459915 L379.670629403,203.314835255 L382.220311513,203.963700311 L382.620781897,211.081815609 L384.880405298,215.625799428 L385.19430369,217.271459311 L383.985612774,221.184764884 L385.175081225,223.720343103 L383.783557346,236.381263383 L383.836700882,238.34723057 L385.122739957,241.647718984 L385.093185832,249.420113615 L384.809460678,251.676782142 L381.181980061,258.478147209 L380.790495518,260.60707759 L381.158886409,266.603630941 L380.019910184,283.211844537 L377.139718429,290.969158807 L374.95929821,295.122771814 L373.303864471,296.809484372 L362.779076309,298.75974218 L358.867484512,298.909775503 L355.401565348,293.9741321 L347.991186205,292.788409008 L346.611167673,291.847369833 L343.685368129,288.157712452 L341.973763242,287.975393609 L337.680856127,289.740593431 L334.752642105,288.980112413 L334.283102883,287.676544085 L334.325363619,283.390924969 L331.992996098,280.98953971 L330.133646133,277.596704079 L325.871408147,272.522427897 L323.82644199,270.97476471 L322.151178022,271.019788811 L316.981350653,273.998455792 L314.113539624,277.373511597 L312.310580112,280.399692961 L309.847289738,282.018115335 L305.889624157,282.517064814 L296.774454737,280.085455332 L291.756047934,283.14918965 L289.032388129,285.61941135 L288.217250486,287.138958642 L289.584334638,299.592016655 L288.566437704,301.392846776 L281.602891522,301.833866428 L272.952436368,300.063772165 L268.460879609,300.590346537 L264.292440338,300.311029768 L255.711439857,302.895470252 L253.914242208,304.881454264 L252.787405342,307.049771023 L249.720271973,314.822364185 L240.416783184,323.083249289 L236.362059136,314.705469938 L232.086373133,316.227452622 L230.722329702,315.005832881 L229.843246179,312.768230678 L228.595456482,312.403531526 L222.843958446,314.260855334 L217.165883087,319.321103978 L215.079062453,319.366515857 L210.901317075,317.905884208 L208.915031701,317.998231834 L206.119815909,321.117525975 L205.416247564,321.069514695 L203.412215316,319.421299403 L201.516973147,319.030365045 L194.763126625,319.58423603 L190.461605921,317.733272421 L182.688130562,317.403387484 L178.426799054,318.308826319 L117.951714385,251.045166728 L116.353248475,247.201365129 L121.966547076,243.326424956 L126.487011472,236.290395441 L128.597480805,231.926138839 L135.745532585,229.545243545 L137.724245894,225.873110896 L138.957006848,224.814093654 L142.723741998,224.484805178 L143.425219527,217.135241579 L142.080393484,215.289563208 L140.412264655,214.239632443 L139.097004094,209.652263171 L139.713967714,205.072977562 L141.246717044,201.830252799 L141.185686994,200.264853517 L138.280249736,193.777383587 L134.614952765,190.72985715 L134.412630327,188.782280577 L136.540935391,182.006943852 L138.426611654,178.634939821 L142.345219278,174.167332427 L144.140911278,173.833620958 L147.99035103,174.592957152 L148.876511256,172.86851131 L152.913217446,173.818137942 L154.674820551,172.508652908 L159.00902514,173.079433162 L160.985340668,172.810493884 L164.276278815,169.33713076 L164.117795373,167.675607843 L162.988316761,165.271864776 L163.543735599,164.89322968 L166.879073966,165.597974983 L170.166533888,167.692026404 L174.362080715,167.015400656 L176.302011542,167.543801277 L181.175115276,170.312017368 L183.193101462,169.625175274 L187.465633553,164.194511649 L189.018613006,162.956553125 L197.661289174,160.610367847 L209.846911734,153.182817603 L212.392175163,152.607119736 L213.984558638,153.561071918 L214.896192045,148.859738746 L215.704616767,147.270075052 L220.12027722,143.943827405 L221.812984507,141.059642368 L222.224449575,139.393586646 L222.164794101,137.783094999 L221.454720742,136.280856976 L216.889975947,133.239425416 L219.625434253,132.939593764 L221.213283357,133.378104031 L227.562947555,136.437062055 L230.489162948,139.029426111 L232.503985663,138.719366745 L235.249061206,139.157781758 L241.558304707,141.448008547 L243.47827811,140.621500487 L246.952065064,137.194326396 L248.421548203,136.990464028 L252.182195518,138.371698968 L253.907964968,138.323870044 L257.929443801,134.119550419 L259.626985955,131.124785079 L263.61422779,129.859349027 L265.915325767,129.800059419 L279.623136261,137.344851571 L290.092252253,140.07062185 L298.52620491,148.698317264 L299.843198799,149.426322757 L303.205340093,149.414429231 L305.180413311,150.844597964 L312.244086398,153.008860504 L313.290594724,152.977242512 L316.451112474,150.569860944 L317.292356478,147.886283433 L319.21450962,146.608195321 L324.937799038,147.606569452 L330.028013416,149.898352956 Z" fill="#cee3f5" id="GY.PM" stroke="#6e6e6e" stroke-width="0.4"><desc><labelrank>6</labelrank><code_hasc>GY.PM</code_hasc><name>Pomeroon-Supenaam</name><admin>Guyana</admin><type_en>Region</type_en><region /><woe_id>2345604</woe_id><longitude>-59</longitude><woe_name>Pomeroon-Supenaam</woe_name><fips>GY11</fips><woe_label>Cuyuni-Mazaruni, GY, Guyana</woe_label><latitude>6</latitude><iso_a2>GY</iso_a2><postal>PM</postal><type>Region</type><id>GY.PM</id></desc></path><path d="M447.560824388,176.026399314 L447.63625324,181.408627039 L449.577756207,186.342673105 L449.414973546,189.667768755 L450.478209489,192.649502947 L449.646585406,193.103836433 L445.668879701,193.103979607 L445.151610081,194.494940626 L446.157346945,198.0354077 L445.36545263,200.800636368 L444.57259936,201.394660776 L438.946655035,202.746455329 L436.313725513,206.463716045 L433.335225464,208.73920609 L431.822818515,210.936761097 L426.506074197,225.024266131 L426.521820484,231.462253399 L427.395350061,236.019894283 L425.39222336,235.508395408 L422.206911182,232.668507248 L416.217052167,234.591128332 L413.211980902,233.522917846 L414.777938044,231.061101409 L414.869144669,229.82611477 L414.601626138,228.84761707 L413.214880152,225.104384088 L412.477091006,223.889448904 L411.894238773,222.518019378 L411.910460963,221.90044913 L412.034434973,221.349314304 L413.687360607,218.341266677 L414.075953901,216.864363678 L414.107409079,216.02626055 L413.729832968,214.986197095 L411.330451664,212.463282121 L410.443782727,210.113142238 L410.299075007,209.156941266 L410.315719615,208.392314225 L410.429902377,207.841158878 L411.544627966,205.268119915 L411.806904632,204.317849118 L411.8135107,203.641430526 L411.72179334,203.067699618 L410.606677893,199.074861084 L410.752782256,198.501732186 L410.998977431,198.090616634 L412.162168139,196.642672289 L416.453255905,192.129176511 L421.488695537,182.4411789 L422.543782918,179.809121126 L422.560206848,179.0886331 L422.463620438,178.492863814 L421.809203303,176.540469235 L421.467517187,174.978490928 L421.3242728,173.434144737 L421.394995541,172.564286542 L421.64513099,171.46204111 L421.88935555,170.771514117 L422.970322815,166.490171253 L422.952425553,166.247366652 L423.333644377,166.433430421 L424.043281725,164.906787149 L424.850116707,164.654001043 L432.986854428,165.670369081 L438.876485823,168.523183699 L447.560824388,176.026399314 Z" fill="#cee3f5" id="GY.EB" stroke="#6e6e6e" stroke-width="0.4"><desc><labelrank>6</labelrank><code_hasc>GY.EB</code_hasc><name>East Berbice-Corentyne</name><admin>Guyana</admin><type_en>Region</type_en><region /><woe_id>2345605</woe_id><longitude>-58</longitude><woe_name>East Berbice-Corentyne</woe_name><fips>GY12</fips><woe_label>Demerara-Mahaica, GY, Guyana</woe_label><latitude>6</latitude><iso_a2>GY</iso_a2><postal>EB</postal><type>Region</type><id>GY.EB</id></desc></path><path d="M386.513197517,173.487892523 L385.720744133,175.582600102 L385.057351449,175.026076226 L384.955805284,173.589092002 L386.673702838,166.198087568 L388.699207692,162.566341887 L391.824249675,160.48811135 L393.159828184,160.165204328 L393.376518047,161.049635351 L386.975124832,170.949519896 L386.513197517,173.487892523 M414.777938044,231.061101409 L413.211980902,233.522917846 L409.767033573,231.801508394 L405.580218348,231.54112415 L405.072634738,231.456509673 L404.75183737,231.235114613 L404.883963466,230.404595926 L404.870536119,229.897225814 L402.939608162,221.554229818 L401.227977114,217.743390622 L397.572832479,213.613366925 L392.7414203,210.281044325 L386.240191269,200.670590138 L384.216560693,199.381115525 L384.625362389,187.071560725 L385.606786898,183.091022463 L395.66339951,165.559031372 L398.200589509,162.154491077 L401.664159562,159.740731305 L405.840843791,158.710617114 L409.844111199,158.930226336 L413.474670667,160.043922182 L419.129576716,163.030499723 L422.952425553,166.247366652 L422.970322815,166.490171253 L421.88935555,170.771514117 L421.64513099,171.46204111 L421.394995541,172.564286542 L421.3242728,173.434144737 L421.467517187,174.978490928 L421.809203303,176.540469235 L422.463620438,178.492863814 L422.560206848,179.0886331 L422.543782918,179.809121126 L421.488695537,182.4411789 L416.453255905,192.129176511 L412.162168139,196.642672289 L410.998977431,198.090616634 L410.752782256,198.501732186 L410.606677893,199.074861084 L410.568147934,199.761005933 L411.806904632,204.317849118 L411.544627966,205.268119915 L410.429902377,207.841158878 L410.315719615,208.392314225 L410.299075007,209.156941266 L410.443782727,210.113142238 L411.330451664,212.463282121 L413.729832968,214.986197095 L414.107409079,216.02626055 L414.075953901,216.864363678 L413.687360607,218.341266677 L412.034434973,221.349314304 L411.910460963,221.90044913 L411.894238773,222.518019378 L412.477091006,223.889448904 L413.214880152,225.104384088 L414.601626138,228.84761707 L414.869144669,229.82611477 L414.777938044,231.061101409 M397.631498257,157.698431143 L395.777605367,159.723126154 L395.500926126,158.1165339 L396.074573628,155.960574014 L397.07552754,154.064540131 L399.745145387,151.316643585 L407.830810649,151.988664426 L402.376317993,156.280528128 L397.631498257,157.698431143 M381.357011428,195.125033031 L380.817704061,197.169148068 L379.14087538,196.451831811 L377.479489088,196.934239868 L376.724500195,196.8876494 L375.847754718,196.588163745 L369.249302402,193.21738519 L361.706086493,192.330276363 L361.274374345,191.710938526 L360.903076322,190.662801936 L361.202018533,187.344569287 L361.621420239,185.277043762 L362.185245638,179.920157003 L361.911359198,178.418835235 L360.348050063,175.674690632 L364.430736179,173.120659272 L368.13824267,171.175437488 L372.501078844,165.346904944 L377.907162023,163.598333355 L378.383000538,162.724854124 L378.630792807,161.906973553 L379.369350774,157.274132793 L380.174375508,156.105180981 L388.408148958,151.289070292 L390.207223129,150.76025282 L390.20498839,150.761969958 L388.681549492,151.930506956 L386.208856146,155.531640799 L385.010074248,161.109483359 L382.745842243,166.80350294 L382.71882685,175.025616994 L381.411632084,178.229161792 L381.357011428,195.125033031 M394.296942287,156.088099234 L392.950901534,158.066586842 L391.840386773,157.949307818 L392.18359485,156.406078036 L397.023424492,146.501476271 L398.357346982,146.399206972 L400.567839093,148.289653818 L396.09966741,152.12572931 L394.296942287,156.088099234 Z" fill="#cee3f5" id="GY.DE" stroke="#6e6e6e" stroke-width="0.4"><desc><labelrank>6</labelrank><code_hasc>GY.DE</code_hasc><name>Demerara-Mahaica</name><admin>Guyana</admin><type_en>Region</type_en><region /><woe_id>2345607</woe_id><longitude>-58</longitude><woe_name>Demerara-Mahaica</woe_name><fips>GY14</fips><woe_label>Essequibo Islands-West Demerara, GY, Guyana</woe_label><latitude>6</latitude><iso_a2>GY</iso_a2><postal>DE</postal><type>Region</type><id>GY.DE</id></desc></path><path d="M484.827441541,217.317982135 L484.065412171,220.794536186 L484.629308002,223.340972151 L483.978358864,224.474820023 L481.615880568,225.442733883 L476.739873293,226.24112333 L474.856954854,227.937037637 L474.748440693,230.548982891 L475.488040082,233.602969734 L477.503848071,236.077628973 L477.001188877,238.137799716 L475.022607167,241.637098066 L474.121353046,242.483879193 L473.105621416,242.607661465 L471.431738717,241.287374708 L470.311007414,241.028716936 L468.29363217,241.783353602 L467.139228066,242.90169591 L468.75502629,245.515846761 L469.255132345,247.783055514 L469.661742788,252.314265823 L469.356036046,255.514053739 L466.347389013,255.792089977 L462.758413878,256.948873344 L458.479286787,256.67096808 L454.817305737,258.866128577 L451.525275249,256.491544998 L448.465466091,256.361731085 L444.997147107,252.535686994 L443.921298419,250.311238464 L436.135647209,249.040164275 L428.345793403,246.295019909 L427.296637601,244.614181027 L428.489516886,240.769085593 L428.441416359,239.097638479 L427.395350061,236.019894283 L426.521820484,231.462253399 L426.506074197,225.024266131 L431.822818515,210.936761097 L433.335225464,208.73920609 L436.313725513,206.463716045 L438.946655035,202.746455329 L444.57259936,201.394660776 L445.36545263,200.800636368 L446.157346945,198.0354077 L445.151610081,194.494940626 L445.668879701,193.103979607 L449.646585406,193.103836433 L450.478209489,192.649502947 L449.414973546,189.667768755 L449.577756207,186.342673105 L447.63625324,181.408627039 L447.560824388,176.026399314 L454.741667983,182.443368108 L458.630949456,186.921988501 L460.349075131,187.664408338 L472.857512992,198.354919866 L477.427917067,203.155678078 L482.249778007,214.550766328 L483.287288376,215.877774352 L484.02107223,218.482047843 L484.827441541,217.317982135 Z" fill="#cee3f5" id="GY.ES" stroke="#6e6e6e" stroke-width="0.4"><desc><labelrank>6</labelrank><code_hasc>GY.ES</code_hasc><name>Essequibo Islands-West Demerara</name><admin>Guyana</admin><type_en>Region</type_en><region /><woe_id>2345608</woe_id><longitude>-57</longitude><woe_name>Essequibo Islands-West Demerara</woe_name><fips>GY15</fips><woe_label>Mahaica-Berbice, GY, Guyana</woe_label><latitude>6</latitude><iso_a2>GY</iso_a2><postal>ES</postal><type>Region</type><id>GY.ES</id></desc></path><path d="M360.348050063,175.674690632 L358.394458172,170.573015752 L354.558758762,171.301059478 L350.58784941,170.233658921 L349.289846926,168.181302935 L348.962288021,164.343071 L347.938775214,162.35301172 L345.420918,161.486968667 L344.327609056,161.592742699 L341.452220357,164.157502963 L338.520381719,164.373045842 L328.190675575,160.566149642 L328.085350217,157.863511875 L329.975030972,151.842568433 L330.028013416,149.898352956 L328.051513478,141.848942005 L327.965989518,139.190493508 L333.532852515,121.861087354 L337.962033177,117.568676427 L337.799328694,115.167478702 L335.32690324,111.009648069 L335.137909429,109.566985936 L335.735549542,108.441900043 L342.472529226,101.193591087 L355.442537402,95.7817193714 L357.444267225,94.5228441539 L361.074111432,91.1746715551 L365.716334544,85.4535989552 L369.760581022,92.7513552756 L370.114352243,92.1493622956 L369.178674429,89.806090507 L369.362445698,88.7701521095 L373.010000489,89.6685658086 L376.808921855,93.0762195355 L385.755528137,105.619125287 L393.15874702,112.969844842 L394.867800926,115.889860564 L395.555051983,119.041904952 L394.600831004,122.095950885 L395.250643446,121.391678176 L394.747906291,125.466247961 L395.198457993,137.642211242 L393.493251198,147.626529716 L392.316019513,149.139786137 L390.207223129,150.76025282 L388.408148958,151.289070292 L380.174375508,156.105180981 L379.369350774,157.274132793 L378.630792807,161.906973553 L378.383000538,162.724854124 L377.907162023,163.598333355 L372.501078844,165.346904944 L368.13824267,171.175437488 L364.430736179,173.120659272 L360.348050063,175.674690632 Z" fill="#cee3f5" id="GY.CU" stroke="#6e6e6e" stroke-width="0.4"><desc><labelrank>6</labelrank><code_hasc>GY.CU</code_hasc><name>Cuyuni-Mazaruni</name><admin>Guyana</admin><type_en>Region</type_en><region /><woe_id>2345609</woe_id><longitude>-58</longitude><woe_name>Cuyuni-Mazaruni</woe_name><fips>GY16</fips><woe_label>Pomeroon-Supenaam, GY, Guyana</woe_label><latitude>7</latitude><iso_a2>GY</iso_a2><postal>CU</postal><type>Region</type><id>GY.CU</id></desc></path></svg>