<?xml version='1.0' encoding='utf-8'?>
<svg height="700" width="700" xmlns="http://www.w3.org/2000/svg"><path d="M416.860308025,317.846527965 L416.860308025,330.707916779 L409.673061335,337.138611186 L403.620643069,357.943798973 L408.349094839,361.91569846 L399.837881654,382.153472035 L389.246149689,390.66468522 L388.111321265,401.823831397 L391.89408268,403.147797892 L392.272358822,407.119697379 L395.676844096,409.389354229 L393.596325317,418.089705485 L385.652526344,427.357470954 L383.761145636,439.273169414 L377.5195893,445.136449608 L379.78924615,449.864901378 L352.364225885,450.999729803 L344.798703053,450.43231559 L338.746284788,451.378005944 L313.969197514,473.318022156 L302.999189408,478.046473926 L297.135909214,479.559578492 L292.029181302,480.126992705 L290.137800594,481.072683059 L280.491758984,497.905971359 L280.113482842,498.851661713 L279.924344772,500.55390435 L278.032964064,507.930289111 L277.654687922,511.902188598 L278.032964064,517.008916509 L278.032964064,538.381518509 L278.411240205,545.001350986 L290.705214807,570.345852472 L290.516076736,584.531207782 L269.332612807,623.115374223 L255.903809781,631.81572548 L256.849500135,614.604161038 L249.094839233,607.606052418 L251.175358011,605.903809781 L248.52742502,599.851391516 L241.34017833,594.177249392 L233.396379357,595.690353958 L228.289651446,601.742772224 L239.637935693,597.960010808 L246.636044312,601.742772224 L246.825182383,605.903809781 L235.476898136,601.931910295 L207.673601729,607.795190489 L195.757903269,605.147257498 L188.192380438,605.903809781 L184.598757093,609.686571197 L165.684950014,607.606052418 L161.902188598,611.010537693 L163.793569306,614.982437179 L161.145636315,615.549851392 L158.686841394,615.17157525 L160.01080789,612.334504188 L157.173736828,610.064847339 L151.310456633,611.767089976 L135.422858687,606.092947852 L137.314239395,600.040529587 L130.126992705,601.931910295 L133.531477979,601.742772224 L133.909754121,605.52553364 L111.402323696,603.634152932 L106.484733856,607.227776277 L107.61956228,612.145366117 L91.3536881924,607.98432856 L85.8686841394,609.875709268 L60.3350445825,606.660362064 L60.7133207241,609.119156985 L53.7152121048,611.767089976 L55.417454742,615.360713321 L49.5541745474,614.415022967 L52.3912456093,612.9019184 L51.8238313969,610.064847339 L44.8257227776,607.98432856 L40.6646852202,610.821399622 L42.1777897865,613.658470684 L32.1534720346,613.280194542 L26.1010537693,617.63037017 L24.3988111321,616.306403675 L27.8032964064,608.740880843 L18.7246690084,607.416914347 L23.8313969198,578.667927587 L28.3707106188,576.398270738 L33.0991623885,555.782221021 L45.39313699,551.810321535 L46.9062415563,548.973250473 L53.3369359633,549.918940827 L55.0391786004,542.920832208 L60.9024587949,540.083761146 L76.6009186706,536.679275871 L94.1907592543,538.381518509 L97.0278303161,527.222372332 L100.43231559,526.087543907 L99.4866252364,516.063226155 L103.647662794,513.604431235 L97.4061064577,506.228046474 L84.3555795731,507.930289111 L77.5466090246,504.714941908 L81.5185085112,493.36665766 L79.2488516617,467.643880032 L80.9510942988,454.782491219 L72.629019184,455.16076736 L64.6852202108,445.703863821 L42.5560659281,437.570926777 L28.9381248311,419.791948122 L19.6703593623,398.419346123 L20.2377735747,393.312618211 L0.0,367.211564442 L71.4941907593,394.825722778 L120.480951094,392.745203999 L143.36665766,399.365036477 L147.338557147,394.636584707 L161.145636315,390.66468522 L185.922723588,393.123480141 L241.529316401,377.235882194 L244.555525534,373.642258849 L239.259659551,368.346392867 L243.420697109,358.889489327 L242.096730613,340.732234531 L246.825182383,324.466360443 L254.958119427,321.818427452 L261.767089976,310.848419346 L268.008646312,306.876519859 L275.195893002,304.985139152 L275.952445285,308.957038638 L290.137800594,310.848419346 L300.540394488,308.011348284 L309.051607674,303.661172656 L308.862469603,301.580653877 L301.864360984,300.634963523 L300.162118346,294.582545258 L305.647122399,294.9608214 L312.077816806,289.854093488 L317.373682788,289.097541205 L325.128343691,279.829775736 L340.637665496,284.936503648 L342.907322345,283.423399081 L337.233180222,281.910294515 L341.961631991,280.018913807 L348.959740611,282.666846798 L352.742502026,290.421507701 L355.768711159,290.988921913 L364.279924345,287.584436639 L375.628208592,273.966495542 L385.841664415,273.966495542 L391.326668468,269.238043772 L398.135639016,267.914077276 L399.270467441,277.370980816 L403.431504999,276.04701432 L402.485814645,295.528235612 L406.268576061,298.554444745 L407.403404485,305.174277222 L409.483923264,300.445825453 L416.292893812,297.41961632 L416.860308025,317.846527965 Z" fill="#cee3f5" id="PK.BA" stroke="#6e6e6e" stroke-width="0.4"><desc><labelrank>3</labelrank><code_hasc>PK.BA</code_hasc><name>Baluchistan</name><admin>Pakistan</admin><type_en>Province</type_en><region /><woe_id>2346496</woe_id><longitude>65</longitude><woe_name>Baluchistan</woe_name><fips>PK02</fips><woe_label>Balochistan, PK, Pakistan</woe_label><latitude>27</latitude><iso_a2>PK</iso_a2><postal>BA</postal><type>Province</type><id>PK.BA</id></desc></path><path d="M624.912185896,128.519319103 L616.211834639,129.465009457 L584.814914888,123.980005404 L569.683869225,131.356390165 L570.251283437,135.139151581 L564.388003242,144.217778979 L573.844906782,152.728992164 L569.873007295,158.213996217 L571.196973791,162.564171845 L584.436638746,162.753309916 L586.517157525,165.212104837 L582.734396109,170.697108889 L575.73628749,173.534179951 L573.844906782,179.586598217 L582.734396109,189.421777898 L576.303701702,204.36368549 L583.680086463,212.496622534 L590.678195082,214.577141313 L591.245609295,223.27749257 L560.794379897,209.281275331 L561.929208322,206.255066198 L558.713861119,203.985409349 L558.146446906,196.041610376 L560.416103756,188.097811402 L554.36368549,164.455552553 L548.500405296,145.920021616 L550.013509862,136.463118076 L557.389894623,135.895703864 L560.226965685,125.871386112 L573.27749257,118.873277493 L577.249392056,107.524993245 L592.38043772,105.633612537 L599.000270197,114.523101864 L606.187516887,118.684139422 L613.753039719,120.197243988 L621.507700621,117.171034855 L625.479600108,122.088624696 L624.912185896,128.519319103 Z" fill="#cee3f5" id="PK.JK" stroke="#6e6e6e" stroke-width="0.4"><desc><labelrank>3</labelrank><code_hasc>PK.JK</code_hasc><name>Azad Kashmir</name><admin>Pakistan</admin><type_en>Centrally Administered Area</type_en><region /><woe_id>2346500</woe_id><longitude>73</longitude><woe_name>Azad Kashmir</woe_name><fips>PK06</fips><woe_label>Azad Kashmir, PK, Pakistan</woe_label><latitude>33</latitude><iso_a2>PK</iso_a2><postal>JK</postal><type>Centrally Administered Area</type><id>PK.JK</id></desc></path><path d="M529.775736287,179.775736287 L538.097811402,175.61469873 L546.609024588,181.099702783 L541.124020535,191.124020535 L537.719535261,190.367468252 L535.828154553,184.882464199 L525.992974872,186.962982978 L524.858146447,183.369359633 L529.775736287,179.775736287 Z" fill="#cee3f5" id="PK.IS" stroke="#6e6e6e" stroke-width="0.4"><desc><labelrank>3</labelrank><code_hasc>PK.IS</code_hasc><name>F.C.T.</name><admin>Pakistan</admin><type_en>Capital Territory</type_en><region /><woe_id>20070149</woe_id><longitude>73</longitude><woe_name>F.C.T.</woe_name><fips>PK08</fips><woe_label>Islamabad, PK, Pakistan</woe_label><latitude>33</latitude><iso_a2>PK</iso_a2><postal>IS</postal><type>Capital Territory</type><id>PK.IS</id></desc></path><path d="M624.912185896,128.519319103 L625.479600108,122.088624696 L621.507700621,117.171034855 L613.753039719,120.197243988 L606.187516887,118.684139422 L599.000270197,114.523101864 L592.38043772,105.633612537 L577.249392056,107.524993245 L563.631450959,101.283436909 L560.037827614,102.418265334 L558.335584977,95.2310186436 L562.118346393,90.5025668738 L561.36179411,86.719805458 L546.230748446,86.1523912456 L541.880572818,83.6935963253 L533.936773845,77.64117806 L535.07160227,72.3453120778 L532.045393137,69.8865171575 L519.940556606,72.3453120778 L508.213996217,69.5082410159 L511.051067279,63.6449608214 L508.592272359,59.483923264 L510.105376925,52.1075385031 L526.560389084,39.6244258309 L530.721426641,32.8154552824 L529.775736287,28.0870035126 L543.771953526,24.6825182383 L563.064036747,25.6282085923 L563.064036747,22.7911375304 L555.498513915,16.7387192651 L568.927316941,20.1432045393 L572.520940286,15.7930289111 L584.814914888,9.74061064577 L589.165090516,11.4428532829 L589.165090516,8.41664415023 L593.893542286,6.52526344231 L600.702512834,9.1731964334 L602.972169684,13.5233720616 L604.863550392,10.1188867874 L612.050797082,8.41664415023 L622.642529046,11.8211294245 L626.614428533,21.4671710349 L635.50391786,19.1975141854 L645.14995947,25.4390705215 L649.87841124,33.1937314239 L652.33720616,44.920291813 L648.176168603,53.8097811402 L656.498243718,57.5925425561 L658.957038638,65.1580653877 L666.333423399,65.5363415293 L676.16860308,60.2404755471 L677.303431505,67.616860308 L686.382058903,72.3453120778 L700.0,98.8246419887 L698.865171575,105.255336396 L695.27154823,109.038097811 L688.462577682,109.794650095 L688.273439611,114.712239935 L684.679816266,118.684139422 L675.601188868,118.495001351 L664.06376655,124.547419616 L658.389624426,124.169143475 L648.554444745,133.815185085 L630.208051878,132.302080519 L624.912185896,128.519319103 Z" fill="#cee3f5" id="PK.NA" stroke="#6e6e6e" stroke-width="0.4"><desc><labelrank>3</labelrank><code_hasc>PK.NA</code_hasc><name>Northern Areas</name><admin>Pakistan</admin><type_en>Centrally Administered Area</type_en><region /><woe_id>2346501</woe_id><longitude>74</longitude><woe_name>Northern Areas</woe_name><fips>PK07</fips><woe_label>Northern Areas, PK, Pakistan</woe_label><latitude>35</latitude><iso_a2>PK</iso_a2><postal>NA</postal><type>Centrally Administered Area</type><id>PK.NA</id></desc></path><path d="M423.858416644,308.957038638 L424.047554715,311.7941097 L417.805998379,313.685490408 L416.860308025,317.846527965 L416.292893812,297.41961632 L409.483923264,300.445825453 L407.403404485,305.174277222 L406.268576061,298.554444745 L402.485814645,295.528235612 L403.431504999,276.04701432 L399.270467441,277.370980816 L398.135639016,267.914077276 L391.326668468,269.238043772 L385.841664415,273.966495542 L375.628208592,273.966495542 L372.60199946,247.29802756 L380.924074574,237.462847879 L378.654417725,231.599567684 L383.004593353,227.249392056 L383.382869495,218.5490408 L386.030802486,216.090245879 L405.133747636,213.253174818 L417.805998379,203.417995136 L411.753580113,193.961091597 L412.510132397,187.53039719 L410.051337476,183.180221562 L403.242366928,181.477978925 L398.513915158,172.588489597 L399.459605512,168.049175898 L405.133747636,166.725209403 L427.073763848,171.642799243 L441.637395299,170.129694677 L449.392056201,166.15779519 L452.229127263,149.891921102 L445.041880573,141.191569846 L449.581194272,139.67846528 L449.770332343,134.571737368 L458.65982167,123.412591192 L465.090516077,120.008105917 L471.710348554,127.951904891 L480.22156174,128.897595245 L473.790867333,140.245879492 L476.249662253,145.352607403 L468.116725209,156.322615509 L461.686030802,160.105376925 L463.57741151,168.994866252 L469.818967847,181.477978925 L475.49310997,179.775736287 L478.897595245,175.61469873 L483.815185085,178.640907863 L481.167252094,184.125911916 L483.626047014,186.206430694 L473.980005404,190.367468252 L471.899486625,189.232639827 L474.925695758,185.828154553 L462.442583086,186.773844907 L453.363955688,181.288840854 L452.039989192,188.854363685 L447.500675493,190.934882464 L437.854633883,189.232639827 L436.341529316,194.150229668 L425.938935423,198.311267225 L430.289111051,205.120237774 L442.772223723,209.659551473 L436.719805458,216.090245879 L426.884625777,218.5490408 L421.777897865,228.005944339 L421.777897865,233.869224534 L431.045663334,245.974061065 L425.749797352,245.028370711 L420.45393137,253.161307755 L414.590651175,255.430964604 L408.916509052,261.861659011 L423.858416644,308.957038638 Z" fill="#cee3f5" id="PK.TA" stroke="#6e6e6e" stroke-width="0.4"><desc><labelrank>3</labelrank><code_hasc>PK.TA</code_hasc><name>F.A.T.A.</name><admin>Pakistan</admin><type_en>Territory</type_en><region /><woe_id>2346495</woe_id><longitude>69</longitude><woe_name>F.A.T.A.</woe_name><fips>PK01</fips><woe_label>Federally Administered Tribal Areas, PK, Pakistan</woe_label><latitude>32</latitude><iso_a2>PK</iso_a2><postal>TA</postal><type>Territory</type><id>PK.TA</id></desc></path><path d="M529.775736287,179.775736287 L524.858146447,183.369359633 L525.992974872,186.962982978 L535.828154553,184.882464199 L537.719535261,190.367468252 L541.124020535,191.124020535 L546.609024588,181.099702783 L538.097811402,175.61469873 L554.36368549,164.455552553 L560.416103756,188.097811402 L558.146446906,196.041610376 L558.713861119,203.985409349 L561.929208322,206.255066198 L560.794379897,209.281275331 L591.245609295,223.27749257 L592.758713861,226.114563631 L600.324236693,226.871115915 L606.565793029,221.575249932 L605.430964604,234.625776817 L608.268035666,240.299918941 L624.155633613,240.299918941 L636.449608214,246.919751419 L637.584436639,250.513374764 L635.50391786,255.430964604 L615.644420427,262.807349365 L613.94217779,267.157524993 L610.159416374,266.968386922 L604.106998109,273.5882194 L601.648203188,279.640637665 L607.889759524,292.312888409 L603.728721967,306.876519859 L605.241826533,309.902728992 L610.726830586,311.226695488 L599.945960551,321.629289381 L596.352337206,321.818427452 L585.760605242,336.760335045 L585.571467171,340.732234531 L576.871115915,349.243447717 L581.410429614,358.511213186 L572.520940286,365.887597947 L556.444204269,372.885706566 L550.959200216,392.93434207 L538.476087544,418.278843556 L512.942447987,433.409889219 L504.431234801,454.782491219 L493.839502837,466.130775466 L492.515536342,475.209402864 L442.393947582,488.827343961 L431.802215617,473.318022156 L423.101864361,473.696298298 L416.292893812,479.937854634 L416.292893812,479.937854634 L410.99702783,477.479059714 L406.646852202,474.26371251 L403.053228857,468.778708457 L400.027019724,459.132666847 L399.837881654,458.754390705 L399.270467441,458.186976493 L399.08132937,457.808700351 L399.08132937,457.43042421 L399.08132937,455.728181573 L399.08132937,455.349905431 L398.8921913,454.782491219 L398.513915158,454.404215077 L396.433396379,452.891110511 L395.487706025,450.810591732 L390.002701972,449.864901378 L389.43528776,449.675763307 L389.43528776,448.730072953 L389.246149689,448.540934882 L389.057011618,448.351796812 L388.678735477,448.162658741 L387.543907052,447.784382599 L386.409078627,447.595244529 L385.274250203,447.595244529 L384.517697919,447.784382599 L379.78924615,449.864901378 L377.5195893,445.136449608 L383.761145636,439.273169414 L385.652526344,427.357470954 L393.596325317,418.089705485 L395.676844096,409.389354229 L392.272358822,407.119697379 L391.89408268,403.147797892 L388.111321265,401.823831397 L389.246149689,390.66468522 L399.837881654,382.153472035 L408.349094839,361.91569846 L403.620643069,357.943798973 L409.673061335,337.138611186 L416.860308025,330.707916779 L416.860308025,317.846527965 L417.805998379,313.685490408 L424.047554715,311.7941097 L423.858416644,308.957038638 L430.667387193,304.796001081 L440.313428803,306.309105647 L444.28532829,299.500135099 L445.231018644,284.936503648 L463.955687652,247.865441772 L463.199135369,242.56957579 L460.172926236,244.83923264 L459.983788165,239.921642799 L456.011888679,239.543366658 L453.174817617,229.708186976 L456.39016482,220.629559578 L468.116725209,216.657660092 L466.036206431,206.444204269 L472.656038908,207.957308835 L478.330181032,215.333693596 L480.599837882,209.09213726 L478.897595245,200.391786004 L485.517427722,196.798162659 L491.191569846,180.154012429 L493.839502837,177.88435558 L500.081059173,178.830045934 L500.081059173,170.129694677 L508.024858146,165.96865712 L512.185895704,165.401242907 L517.670899757,169.751418536 L516.15779519,172.210213456 L518.049175898,173.723318022 L522.966765739,168.805728182 L527.316941367,175.236422588 L526.182112942,178.451769792 L529.775736287,179.775736287 Z" fill="#cee3f5" id="PK.PB" stroke="#6e6e6e" stroke-width="0.4"><desc><labelrank>3</labelrank><code_hasc>PK.PB</code_hasc><name>Punjab</name><admin>Pakistan</admin><type_en>Province</type_en><region /><woe_id>2346498</woe_id><longitude>72</longitude><woe_name>Punjab</woe_name><fips>PK04</fips><woe_label>Punjab, PK, Pakistan</woe_label><latitude>31</latitude><iso_a2>PK</iso_a2><postal>PB</postal><type>Province</type><id>PK.PB</id></desc></path><path d="M291.46176709,675.128343691 L289.00297217,677.39800054 L286.544177249,674.560929479 L291.46176709,675.128343691 M395.487706025,450.810591732 L396.433396379,452.891110511 L398.513915158,454.404215077 L398.8921913,454.782491219 L399.08132937,455.349905431 L399.08132937,455.728181573 L399.08132937,457.43042421 L399.08132937,457.808700351 L399.270467441,458.186976493 L399.837881654,458.754390705 L400.027019724,459.132666847 L403.053228857,468.778708457 L406.646852202,474.26371251 L416.292893812,479.937854634 L412.320994326,483.909754121 L411.942718184,484.855444474 L407.592542556,496.203728722 L386.787354769,519.089435288 L384.139421778,537.435828155 L397.757362875,545.94704134 L410.80788976,546.136179411 L415.536341529,549.162388544 L412.320994326,579.802756012 L420.832207511,591.529316401 L438.800324237,592.475006755 L438.989462307,606.660362064 L448.068089705,618.386922453 L458.470683599,642.785733586 L453.553093758,647.703323426 L454.498784112,653.755741691 L459.605512024,656.403674683 L451.850851121,659.051607674 L444.47446636,665.860578222 L435.584977033,663.780059443 L435.395838962,656.214536612 L428.586868414,657.349365036 L413.644960821,662.834369089 L407.970818698,669.643339638 L395.865982167,669.454201567 L388.678735477,663.969197514 L360.686301,665.104025939 L358.038368009,661.888678735 L355.012158876,666.049716293 L353.120778168,661.321264523 L350.661983248,661.321264523 L349.716292894,679.856795461 L331.180761956,679.856795461 L324.371791408,686.098351797 L323.047824912,682.883004593 L323.047824912,693.474736558 L318.697649284,692.150770062 L320.589029992,687.422318292 L316.427992434,680.991623885 L318.319373142,686.665766009 L316.238854364,689.691975142 L309.619021886,685.530937584 L309.051607674,682.504728452 L307.916779249,687.611456363 L302.620913267,685.909213726 L303.188327479,688.368008646 L298.459875709,687.800594434 L299.405566063,681.180761956 L297.703323426,685.530937584 L291.272629019,683.261280735 L294.298838152,680.802485815 L290.137800594,678.343690894 L293.92056201,674.182653337 L285.598486895,674.182653337 L283.139691975,668.130235072 L282.572277763,660.942988382 L286.165901108,660.186436098 L282.00486355,658.862469603 L282.761415834,655.268846258 L278.032964064,647.514185355 L281.248311267,647.514185355 L276.519859497,645.244528506 L281.059173196,638.813834099 L268.008646312,634.463658471 L253.634152932,634.463658471 L269.332612807,623.115374223 L290.516076736,584.531207782 L290.705214807,570.345852472 L278.411240205,545.001350986 L278.032964064,538.381518509 L278.032964064,517.008916509 L277.654687922,511.902188598 L278.032964064,507.930289111 L279.924344772,500.55390435 L280.113482842,498.851661713 L280.491758984,497.905971359 L290.137800594,481.072683059 L292.029181302,480.126992705 L297.135909214,479.559578492 L302.999189408,478.046473926 L313.969197514,473.318022156 L338.746284788,451.378005944 L344.798703053,450.43231559 L352.364225885,450.999729803 L379.78924615,449.864901378 L384.517697919,447.784382599 L385.274250203,447.595244529 L386.409078627,447.595244529 L387.543907052,447.784382599 L388.678735477,448.162658741 L389.057011618,448.351796812 L389.246149689,448.540934882 L389.43528776,448.730072953 L389.43528776,449.675763307 L390.002701972,449.864901378 L395.487706025,450.810591732 Z" fill="#cee3f5" id="PK.SD" stroke="#6e6e6e" stroke-width="0.4"><desc><labelrank>3</labelrank><code_hasc>PK.SD</code_hasc><name>Sind</name><admin>Pakistan</admin><type_en>Province</type_en><region /><woe_id>2346499</woe_id><longitude>68</longitude><woe_name>Sind</woe_name><fips>PK05</fips><woe_label>Sindh, PK, Pakistan</woe_label><latitude>26</latitude><iso_a2>PK</iso_a2><postal>SD</postal><type>Province</type><id>PK.SD</id></desc></path><path d="M555.498513915,16.7387192651 L563.064036747,22.7911375304 L563.064036747,25.6282085923 L543.771953526,24.6825182383 L529.775736287,28.0870035126 L530.721426641,32.8154552824 L526.560389084,39.6244258309 L510.105376925,52.1075385031 L508.592272359,59.483923264 L511.051067279,63.6449608214 L508.213996217,69.5082410159 L519.940556606,72.3453120778 L532.045393137,69.8865171575 L535.07160227,72.3453120778 L533.936773845,77.64117806 L541.880572818,83.6935963253 L546.230748446,86.1523912456 L561.36179411,86.719805458 L562.118346393,90.5025668738 L558.335584977,95.2310186436 L560.037827614,102.418265334 L563.631450959,101.283436909 L577.249392056,107.524993245 L573.27749257,118.873277493 L560.226965685,125.871386112 L557.389894623,135.895703864 L550.013509862,136.463118076 L548.500405296,145.920021616 L554.36368549,164.455552553 L538.097811402,175.61469873 L529.775736287,179.775736287 L526.182112942,178.451769792 L527.316941367,175.236422588 L522.966765739,168.805728182 L518.049175898,173.723318022 L516.15779519,172.210213456 L517.670899757,169.751418536 L512.185895704,165.401242907 L508.024858146,165.96865712 L500.081059173,170.129694677 L500.081059173,178.830045934 L493.839502837,177.88435558 L491.191569846,180.154012429 L485.517427722,196.798162659 L478.897595245,200.391786004 L480.599837882,209.09213726 L478.330181032,215.333693596 L472.656038908,207.957308835 L466.036206431,206.444204269 L468.116725209,216.657660092 L456.39016482,220.629559578 L453.174817617,229.708186976 L456.011888679,239.543366658 L459.983788165,239.921642799 L460.172926236,244.83923264 L463.199135369,242.56957579 L463.955687652,247.865441772 L445.231018644,284.936503648 L444.28532829,299.500135099 L440.313428803,306.309105647 L430.667387193,304.796001081 L423.858416644,308.957038638 L408.916509052,261.861659011 L414.590651175,255.430964604 L420.45393137,253.161307755 L425.749797352,245.028370711 L431.045663334,245.974061065 L421.777897865,233.869224534 L421.777897865,228.005944339 L426.884625777,218.5490408 L436.719805458,216.090245879 L442.772223723,209.659551473 L430.289111051,205.120237774 L425.938935423,198.311267225 L436.341529316,194.150229668 L437.854633883,189.232639827 L447.500675493,190.934882464 L452.039989192,188.854363685 L453.363955688,181.288840854 L462.442583086,186.773844907 L474.925695758,185.828154553 L471.899486625,189.232639827 L473.980005404,190.367468252 L483.626047014,186.206430694 L481.167252094,184.125911916 L483.815185085,178.640907863 L478.897595245,175.61469873 L475.49310997,179.775736287 L469.818967847,181.477978925 L463.57741151,168.994866252 L461.686030802,160.105376925 L468.116725209,156.322615509 L476.249662253,145.352607403 L473.790867333,140.245879492 L480.22156174,128.897595245 L471.710348554,127.951904891 L465.090516077,120.008105917 L472.845176979,106.957579033 L468.116725209,101.47257498 L471.899486625,94.852742502 L470.197243988,88.0437719535 L465.84706836,84.8284247501 L467.360172926,81.9913536882 L463.38827344,73.8584166442 L452.418265334,64.7797892461 L454.498784112,59.6730613348 L468.116725209,49.0813293704 L470.008105917,42.4614968927 L477.195352607,45.2985679546 L476.627938395,41.1375303972 L492.704674412,31.6806268576 L494.406917049,27.8978654418 L511.24020535,21.8454471764 L555.498513915,16.7387192651 Z" fill="#cee3f5" id="PK.NW" stroke="#6e6e6e" stroke-width="0.4"><desc><labelrank>3</labelrank><code_hasc>PK.NW</code_hasc><name>N.W.F.P.</name><admin>Pakistan</admin><type_en>Province</type_en><region /><woe_id>2346497</woe_id><longitude>72</longitude><woe_name>N.W.F.P.</woe_name><fips>PK03</fips><woe_label>North-West Frontier, PK, Pakistan</woe_label><latitude>34</latitude><iso_a2>PK</iso_a2><postal>NW</postal><type>Province</type><id>PK.NW</id></desc></path></svg>