<?xml version='1.0' encoding='utf-8'?>
<svg height="700" width="700" xmlns="http://www.w3.org/2000/svg"><path d="M409.160305344,564.122137405 L410.687022901,564.885496183 L412.213740458,568.702290076 L411.450381679,570.229007634 L406.106870229,570.229007634 L404.580152672,566.41221374 L406.870229008,567.175572519 L409.160305344,564.122137405 Z" fill="#cee3f5" id="CA.AB.48003" stroke="#6e6e6e" stroke-width="0.4"><desc><feduid>48003</feduid><name>Calgary Centre-North / Calgary-Centre-Nord</name><prname>Alberta</prname><fedfname>Calgary-Centre-Nord</fedfname><pruid>48</pruid><fedename>Calgary Centre-North</fedename><id>CA.AB.48003</id><fedname>Calgary Centre-North / Calgary-Centre-Nord</fedname></desc></path><path d="M409.160305344,561.06870229 L409.160305344,564.122137405 L406.870229008,567.175572519 L404.580152672,566.41221374 L396.946564885,563.358778626 L398.473282443,561.06870229 L409.160305344,561.06870229 Z" fill="#cee3f5" id="CA.AB.48005" stroke="#6e6e6e" stroke-width="0.4"><desc><feduid>48005</feduid><name>Calgary - Nose Hill</name><prname>Alberta</prname><fedfname>Calgary - Nose Hill</fedfname><pruid>48</pruid><fedename>Calgary - Nose Hill</fedename><id>CA.AB.48005</id><fedname>Calgary - Nose Hill</fedname></desc></path><path d="M340.458015267,472.519083969 L340.458015267,489.312977099 L341.221374046,494.65648855 L386.259541985,494.65648855 L386.259541985,500.763358779 L377.099236641,500.763358779 L377.099236641,504.580152672 L381.679389313,504.580152672 L381.679389313,512.977099237 L384.732824427,514.503816794 L401.526717557,514.503816794 L403.053435115,516.79389313 L424.427480916,516.79389313 L425.954198473,516.030534351 L425.954198473,533.58778626 L424.427480916,533.58778626 L424.427480916,553.435114504 L425.954198473,553.435114504 L428.244274809,557.251908397 L428.244274809,563.358778626 L419.083969466,563.358778626 L419.083969466,561.06870229 L409.160305344,561.06870229 L398.473282443,561.06870229 L396.946564885,563.358778626 L396.183206107,566.41221374 L392.366412214,563.358778626 L384.732824427,562.595419847 L382.442748092,561.06870229 L377.86259542,561.832061069 L370.992366412,562.595419847 L351.908396947,568.702290076 L351.145038168,572.519083969 L322.13740458,572.519083969 L326.717557252,577.099236641 L326.717557252,579.389312977 L322.900763359,582.442748092 L326.717557252,586.259541985 L325.954198473,587.022900763 L329.007633588,590.076335878 L325.190839695,591.603053435 L322.13740458,588.549618321 L319.847328244,588.549618321 L318.320610687,587.022900763 L315.267175573,585.496183206 L312.977099237,583.20610687 L309.160305344,583.20610687 L309.160305344,580.916030534 L312.213740458,579.389312977 L310.687022901,575.572519084 L309.160305344,573.282442748 L301.526717557,570.229007634 L300.0,567.938931298 L294.65648855,567.175572519 L291.603053435,567.938931298 L289.312977099,565.648854962 L286.259541985,564.885496183 L283.969465649,561.832061069 L286.259541985,560.305343511 L286.259541985,558.778625954 L279.389312977,556.488549618 L269.465648855,552.671755725 L268.702290076,550.381679389 L266.41221374,548.091603053 L268.702290076,547.328244275 L267.938931298,543.511450382 L263.358778626,542.748091603 L261.06870229,540.458015267 L261.832061069,538.167938931 L258.015267176,537.404580153 L256.488549618,534.351145038 L248.854961832,530.534351145 L249.618320611,528.244274809 L245.038167939,525.190839695 L245.801526718,522.900763359 L242.748091603,521.374045802 L238.93129771,521.374045802 L234.351145038,525.954198473 L235.114503817,528.244274809 L228.244274809,527.480916031 L224.427480916,524.427480916 L225.190839695,522.13740458 L220.610687023,518.320610687 L221.374045802,516.030534351 L216.79389313,512.977099237 L216.030534351,512.213740458 L210.687022901,510.687022901 L203.816793893,503.053435115 L203.053435115,496.946564885 L204.580152672,498.473282443 L210.687022901,497.709923664 L210.687022901,496.183206107 L217.557251908,493.129770992 L220.610687023,490.076335878 L222.13740458,486.259541985 L225.190839695,482.442748092 L231.297709924,477.86259542 L229.770992366,474.809160305 L229.770992366,473.282442748 L293.893129771,472.519083969 L340.458015267,472.519083969 Z" fill="#cee3f5" id="CA.AB.48027" stroke="#6e6e6e" stroke-width="0.4"><desc><feduid>48027</feduid><name>Wild Rose</name><prname>Alberta</prname><fedfname>Wild Rose</fedfname><pruid>48</pruid><fedename>Wild Rose</fedename><id>CA.AB.48027</id><fedname>Wild Rose</fedname></desc></path><path d="M500.0,627.480916031 L508.396946565,627.480916031 L508.396946565,631.297709924 L511.450381679,631.297709924 L511.450381679,645.038167939 L512.977099237,645.038167939 L512.977099237,654.198473282 L514.503816794,655.72519084 L523.664122137,658.015267176 L525.190839695,660.305343511 L529.007633588,661.832061069 L535.877862595,661.832061069 L536.641221374,663.358778626 L547.328244275,664.122137405 L548.091603053,666.41221374 L548.091603053,677.86259542 L556.488549618,677.86259542 L556.488549618,683.20610687 L576.335877863,683.20610687 L576.335877863,689.312977099 L577.099236641,691.603053435 L580.152671756,692.366412214 L582.442748092,691.603053435 L582.442748092,700.0 L555.72519084,700.0 L523.664122137,700.0 L493.129770992,700.0 L461.06870229,700.0 L409.160305344,700.0 L409.923664122,698.473282443 L408.396946565,696.183206107 L403.816793893,693.893129771 L403.816793893,690.076335878 L409.160305344,688.549618321 L412.977099237,689.312977099 L421.374045802,688.549618321 L421.374045802,691.603053435 L425.954198473,691.603053435 L427.480916031,695.419847328 L433.58778626,695.419847328 L432.061068702,692.366412214 L436.641221374,689.312977099 L436.641221374,687.022900763 L462.595419847,687.022900763 L460.305343511,684.732824427 L461.06870229,680.916030534 L465.648854962,677.86259542 L470.229007634,676.335877863 L474.809160305,677.099236641 L476.335877863,671.755725191 L481.679389313,666.41221374 L483.20610687,667.175572519 L487.786259542,664.122137405 L483.969465649,662.595419847 L481.679389313,658.778625954 L478.625954198,656.488549618 L479.389312977,653.435114504 L476.335877863,651.145038168 L467.938931298,649.618320611 L466.41221374,650.381679389 L462.595419847,645.801526718 L462.595419847,641.984732824 L459.541984733,641.984732824 L459.541984733,633.58778626 L465.648854962,632.824427481 L482.442748092,632.824427481 L482.442748092,631.297709924 L489.312977099,631.297709924 L489.312977099,627.480916031 L500.0,627.480916031 Z" fill="#cee3f5" id="CA.AB.48019" stroke="#6e6e6e" stroke-width="0.4"><desc><feduid>48019</feduid><name>Lethbridge</name><prname>Alberta</prname><fedfname>Lethbridge</fedfname><pruid>48</pruid><fedename>Lethbridge</fedename><id>CA.AB.48019</id><fedname>Lethbridge</fedname></desc></path><path d="M445.801526718,408.396946565 L446.564885496,411.450381679 L442.748091603,411.450381679 L441.984732824,413.740458015 L441.221374046,413.740458015 L438.167938931,412.977099237 L438.167938931,409.160305344 L445.801526718,408.396946565 Z" fill="#cee3f5" id="CA.AB.48012" stroke="#6e6e6e" stroke-width="0.4"><desc><feduid>48012</feduid><name>Edmonton Centre / Edmonton-Centre</name><prname>Alberta</prname><fedfname>Edmonton-Centre</fedfname><pruid>48</pruid><fedename>Edmonton Centre</fedename><id>CA.AB.48012</id><fedname>Edmonton Centre / Edmonton-Centre</fedname></desc></path><path d="M419.083969466,568.702290076 L419.083969466,575.572519084 L412.213740458,575.572519084 L409.160305344,573.282442748 L411.450381679,570.229007634 L412.213740458,568.702290076 L419.083969466,568.702290076 Z" fill="#cee3f5" id="CA.AB.48002" stroke="#6e6e6e" stroke-width="0.4"><desc><feduid>48002</feduid><name>Calgary East / Calgary-Est</name><prname>Alberta</prname><fedfname>Calgary-Est</fedfname><pruid>48</pruid><fedename>Calgary East</fedename><id>CA.AB.48002</id><fedname>Calgary East / Calgary-Est</fedname></desc></path><path d="M667.938931298,505.34351145 L667.938931298,522.13740458 L667.938931298,543.511450382 L667.938931298,574.809160305 L664.122137405,574.809160305 L661.832061069,576.335877863 L650.381679389,579.389312977 L644.27480916,577.86259542 L641.221374046,577.86259542 L639.694656489,580.152671756 L633.58778626,583.20610687 L628.244274809,581.679389313 L621.374045802,582.442748092 L616.79389313,581.679389313 L614.503816794,578.625954198 L609.160305344,576.335877863 L605.34351145,577.86259542 L598.473282443,578.625954198 L592.366412214,583.20610687 L590.076335878,580.916030534 L587.786259542,580.916030534 L584.732824427,583.20610687 L584.732824427,585.496183206 L578.625954198,588.549618321 L574.809160305,587.022900763 L568.702290076,587.786259542 L565.648854962,584.732824427 L564.122137405,582.442748092 L561.06870229,581.679389313 L552.671755725,583.20610687 L549.618320611,578.625954198 L545.038167939,578.625954198 L542.748091603,577.099236641 L545.801526718,574.045801527 L542.748091603,568.702290076 L541.221374046,567.175572519 L535.877862595,565.648854962 L534.351145038,564.122137405 L525.954198473,559.541984733 L525.954198473,566.41221374 L516.79389313,566.41221374 L516.79389313,572.519083969 L508.396946565,572.519083969 L508.396946565,577.86259542 L500.763358779,577.86259542 L500.763358779,583.20610687 L501.526717557,584.732824427 L496.183206107,584.732824427 L493.893129771,585.496183206 L487.786259542,584.732824427 L483.969465649,582.442748092 L477.099236641,582.442748092 L469.465648855,580.152671756 L465.648854962,577.86259542 L461.832061069,577.099236641 L460.305343511,576.335877863 L457.251908397,582.442748092 L453.435114504,583.969465649 L449.618320611,583.20610687 L446.564885496,585.496183206 L443.511450382,584.732824427 L441.221374046,585.496183206 L432.824427481,585.496183206 L425.954198473,583.969465649 L422.13740458,581.679389313 L419.847328244,581.679389313 L419.083969466,575.572519084 L419.083969466,568.702290076 L419.083969466,563.358778626 L428.244274809,563.358778626 L428.244274809,557.251908397 L425.954198473,553.435114504 L424.427480916,553.435114504 L424.427480916,533.58778626 L425.954198473,533.58778626 L425.954198473,516.030534351 L436.641221374,516.030534351 L436.641221374,512.213740458 L446.564885496,512.213740458 L446.564885496,509.923664122 L458.778625954,509.923664122 L458.778625954,511.450381679 L483.20610687,511.450381679 L482.442748092,509.160305344 L479.389312977,506.870229008 L475.572519084,501.526717557 L475.572519084,497.709923664 L473.282442748,496.183206107 L473.282442748,493.129770992 L471.755725191,489.312977099 L472.519083969,485.496183206 L475.572519084,485.496183206 L476.335877863,480.152671756 L481.679389313,478.625954198 L477.099236641,474.045801527 L472.519083969,472.519083969 L467.938931298,472.519083969 L467.938931298,469.465648855 L474.045801527,469.465648855 L474.045801527,455.72519084 L469.465648855,455.72519084 L469.465648855,447.328244275 L470.992366412,447.328244275 L470.992366412,438.167938931 L466.41221374,438.167938931 L465.648854962,432.061068702 L466.41221374,430.534351145 L474.045801527,430.534351145 L474.045801527,429.770992366 L474.045801527,426.717557252 L490.839694656,426.717557252 L497.709923664,427.480916031 L497.709923664,433.58778626 L509.923664122,433.58778626 L509.923664122,438.93129771 L520.610687023,438.93129771 L519.847328244,444.27480916 L519.847328244,463.358778626 L517.557251908,463.358778626 L517.557251908,465.648854962 L516.030534351,469.465648855 L518.320610687,470.992366412 L522.13740458,476.335877863 L529.770992366,478.625954198 L538.93129771,480.152671756 L541.221374046,479.389312977 L543.511450382,480.916030534 L546.564885496,480.152671756 L550.381679389,480.916030534 L551.908396947,483.20610687 L556.488549618,483.969465649 L559.541984733,486.259541985 L565.648854962,488.549618321 L570.229007634,484.732824427 L574.809160305,484.732824427 L580.152671756,483.20610687 L584.732824427,480.152671756 L585.496183206,483.20610687 L594.65648855,483.20610687 L595.419847328,490.839694656 L601.526717557,490.839694656 L601.526717557,492.366412214 L604.580152672,494.65648855 L645.038167939,494.65648855 L645.038167939,502.290076336 L654.198473282,502.290076336 L654.198473282,505.34351145 L667.938931298,505.34351145 Z" fill="#cee3f5" id="CA.AB.48010" stroke="#6e6e6e" stroke-width="0.4"><desc><feduid>48010</feduid><name>Crowfoot</name><prname>Alberta</prname><fedfname>Crowfoot</fedfname><pruid>48</pruid><fedename>Crowfoot</fedename><id>CA.AB.48010</id><fedname>Crowfoot</fedname></desc></path><path d="M451.908396947,409.923664122 L451.908396947,412.977099237 L454.961832061,412.977099237 L455.72519084,415.267175573 L450.381679389,414.503816794 L445.801526718,415.267175573 L441.984732824,415.267175573 L441.984732824,413.740458015 L442.748091603,411.450381679 L446.564885496,411.450381679 L451.908396947,409.923664122 Z" fill="#cee3f5" id="CA.AB.48018" stroke="#6e6e6e" stroke-width="0.4"><desc><feduid>48018</feduid><name>Edmonton - Strathcona</name><prname>Alberta</prname><fedfname>Edmonton - Strathcona</fedfname><pruid>48</pruid><fedename>Edmonton - Strathcona</fedename><id>CA.AB.48018</id><fedname>Edmonton - Strathcona</fedname></desc></path><path d="M455.72519084,415.267175573 L455.72519084,424.427480916 L441.984732824,424.427480916 L445.801526718,419.083969466 L445.801526718,415.267175573 L450.381679389,414.503816794 L455.72519084,415.267175573 Z" fill="#cee3f5" id="CA.AB.48011" stroke="#6e6e6e" stroke-width="0.4"><desc><feduid>48011</feduid><name>Edmonton - Mill Woods - Beaumont</name><prname>Alberta</prname><fedfname>Edmonton - Mill Woods - Beaumont</fedfname><pruid>48</pruid><fedename>Edmonton - Mill Woods - Beaumont</fedename><id>CA.AB.48011</id><fedname>Edmonton - Mill Woods - Beaumont</fedname></desc></path><path d="M667.938931298,407.633587786 L667.938931298,425.954198473 L667.938931298,446.564885496 L667.938931298,470.992366412 L667.938931298,491.603053435 L667.938931298,505.34351145 L654.198473282,505.34351145 L654.198473282,502.290076336 L645.038167939,502.290076336 L645.038167939,494.65648855 L604.580152672,494.65648855 L601.526717557,492.366412214 L601.526717557,490.839694656 L595.419847328,490.839694656 L594.65648855,483.20610687 L585.496183206,483.20610687 L584.732824427,480.152671756 L580.152671756,483.20610687 L574.809160305,484.732824427 L570.229007634,484.732824427 L565.648854962,488.549618321 L559.541984733,486.259541985 L556.488549618,483.969465649 L551.908396947,483.20610687 L550.381679389,480.916030534 L546.564885496,480.152671756 L543.511450382,480.916030534 L541.221374046,479.389312977 L538.93129771,480.152671756 L529.770992366,478.625954198 L522.13740458,476.335877863 L518.320610687,470.992366412 L516.030534351,469.465648855 L517.557251908,465.648854962 L517.557251908,463.358778626 L519.847328244,463.358778626 L519.847328244,444.27480916 L520.610687023,438.93129771 L509.923664122,438.93129771 L509.923664122,433.58778626 L497.709923664,433.58778626 L497.709923664,427.480916031 L490.839694656,426.717557252 L474.045801527,426.717557252 L474.045801527,429.770992366 L455.72519084,429.770992366 L455.72519084,424.427480916 L455.72519084,415.267175573 L461.832061069,415.267175573 L461.832061069,403.053435115 L464.885496183,403.053435115 L466.41221374,400.0 L469.465648855,400.0 L469.465648855,396.183206107 L467.175572519,396.183206107 L473.282442748,390.839694656 L477.86259542,389.312977099 L486.259541985,385.496183206 L487.022900763,383.969465649 L487.022900763,380.152671756 L490.076335878,377.86259542 L495.419847328,378.625954198 L501.526717557,381.679389313 L508.396946565,382.442748092 L513.740458015,382.442748092 L517.557251908,380.152671756 L525.954198473,377.86259542 L529.007633588,380.152671756 L530.534351145,383.20610687 L539.694656489,385.496183206 L542.748091603,387.786259542 L555.72519084,387.022900763 L558.778625954,389.312977099 L556.488549618,393.129770992 L558.778625954,395.419847328 L566.41221374,395.419847328 L570.229007634,394.65648855 L578.625954198,396.183206107 L580.152671756,397.709923664 L584.732824427,397.709923664 L594.65648855,397.709923664 L598.473282443,396.946564885 L602.290076336,393.893129771 L609.160305344,390.839694656 L612.977099237,391.603053435 L619.083969466,390.839694656 L622.13740458,392.366412214 L627.480916031,391.603053435 L633.58778626,394.65648855 L635.114503817,397.709923664 L641.221374046,399.236641221 L645.801526718,403.816793893 L648.091603053,403.816793893 L652.671755725,401.526717557 L655.72519084,401.526717557 L658.015267176,403.816793893 L667.938931298,407.633587786 Z" fill="#cee3f5" id="CA.AB.48024" stroke="#6e6e6e" stroke-width="0.4"><desc><feduid>48024</feduid><name>Vegreville - Wainwright</name><prname>Alberta</prname><fedfname>Vegreville - Wainwright</fedfname><pruid>48</pruid><fedename>Vegreville - Wainwright</fedename><id>CA.AB.48024</id><fedname>Vegreville - Wainwright</fedname></desc></path><path d="M396.183206107,566.41221374 L398.473282443,567.938931298 L398.473282443,572.519083969 L403.816793893,572.519083969 L404.580152672,572.519083969 L404.580152672,577.86259542 L400.0,577.86259542 L400.0,579.389312977 L407.633587786,580.152671756 L409.923664122,580.916030534 L414.503816794,580.916030534 L415.267175573,581.679389313 L419.847328244,581.679389313 L422.13740458,581.679389313 L425.954198473,583.969465649 L432.824427481,585.496183206 L441.221374046,585.496183206 L443.511450382,584.732824427 L446.564885496,585.496183206 L449.618320611,583.20610687 L453.435114504,583.969465649 L457.251908397,582.442748092 L460.305343511,576.335877863 L461.832061069,577.099236641 L465.648854962,577.86259542 L469.465648855,580.152671756 L477.099236641,582.442748092 L483.969465649,582.442748092 L487.786259542,584.732824427 L493.893129771,585.496183206 L496.183206107,584.732824427 L501.526717557,584.732824427 L509.160305344,586.259541985 L509.160305344,589.312977099 L506.106870229,588.549618321 L507.633587786,593.129770992 L509.923664122,596.183206107 L513.740458015,596.183206107 L517.557251908,598.473282443 L516.030534351,600.763358779 L518.320610687,602.290076336 L517.557251908,605.34351145 L522.13740458,609.160305344 L529.007633588,608.396946565 L530.534351145,616.79389313 L513.740458015,616.79389313 L513.740458015,619.847328244 L507.633587786,619.847328244 L506.870229008,622.900763359 L505.34351145,624.427480916 L500.0,624.427480916 L500.0,627.480916031 L489.312977099,627.480916031 L489.312977099,631.297709924 L482.442748092,631.297709924 L482.442748092,632.824427481 L465.648854962,632.824427481 L459.541984733,633.58778626 L459.541984733,641.984732824 L462.595419847,641.984732824 L462.595419847,645.801526718 L466.41221374,650.381679389 L467.938931298,649.618320611 L476.335877863,651.145038168 L479.389312977,653.435114504 L478.625954198,656.488549618 L481.679389313,658.778625954 L483.969465649,662.595419847 L487.786259542,664.122137405 L483.20610687,667.175572519 L481.679389313,666.41221374 L476.335877863,671.755725191 L474.809160305,677.099236641 L470.229007634,676.335877863 L465.648854962,677.86259542 L461.06870229,680.916030534 L460.305343511,684.732824427 L462.595419847,687.022900763 L436.641221374,687.022900763 L436.641221374,689.312977099 L432.061068702,692.366412214 L433.58778626,695.419847328 L427.480916031,695.419847328 L425.954198473,691.603053435 L421.374045802,691.603053435 L421.374045802,688.549618321 L412.977099237,689.312977099 L409.160305344,688.549618321 L403.816793893,690.076335878 L400.0,689.312977099 L391.603053435,687.786259542 L387.786259542,686.259541985 L388.549618321,683.969465649 L385.496183206,683.20610687 L382.442748092,677.86259542 L377.86259542,676.335877863 L375.572519084,674.045801527 L375.572519084,667.938931298 L374.045801527,665.648854962 L369.465648855,664.885496183 L367.175572519,663.358778626 L366.41221374,660.305343511 L371.755725191,658.778625954 L370.992366412,654.961832061 L373.282442748,653.435114504 L371.755725191,651.145038168 L373.282442748,650.381679389 L373.282442748,647.328244275 L369.465648855,642.748091603 L369.465648855,640.458015267 L371.755725191,638.167938931 L370.992366412,633.58778626 L367.175572519,629.007633588 L367.938931298,624.427480916 L364.885496183,620.610687023 L365.648854962,619.083969466 L362.595419847,616.030534351 L364.885496183,614.503816794 L359.541984733,611.450381679 L358.015267176,609.160305344 L355.72519084,607.633587786 L348.854961832,600.0 L345.038167939,599.236641221 L342.748091603,600.0 L338.93129771,600.0 L335.114503817,601.526717557 L335.114503817,599.236641221 L331.297709924,597.709923664 L332.061068702,593.893129771 L329.770992366,590.076335878 L329.007633588,590.076335878 L325.954198473,587.022900763 L326.717557252,586.259541985 L322.900763359,582.442748092 L326.717557252,579.389312977 L326.717557252,577.099236641 L322.13740458,572.519083969 L351.145038168,572.519083969 L351.908396947,568.702290076 L370.992366412,562.595419847 L377.86259542,561.832061069 L382.442748092,561.06870229 L384.732824427,562.595419847 L392.366412214,563.358778626 L396.183206107,566.41221374 Z" fill="#cee3f5" id="CA.AB.48020" stroke="#6e6e6e" stroke-width="0.4"><desc><feduid>48020</feduid><name>Macleod</name><prname>Alberta</prname><fedfname>Macleod</fedfname><pruid>48</pruid><fedename>Macleod</fedename><id>CA.AB.48020</id><fedname>Macleod</fedname></desc></path><path d="M313.740458015,0.0 L313.740458015,22.9007633588 L315.267175573,22.9007633588 L314.503816794,33.5877862595 L347.328244275,33.5877862595 L413.740458015,33.5877862595 L413.740458015,72.5190839695 L413.740458015,103.053435115 L413.740458015,122.13740458 L413.740458015,147.328244275 L413.740458015,167.175572519 L351.908396947,167.175572519 L351.145038168,177.86259542 L351.908396947,177.86259542 L352.671755725,200.0 L352.671755725,211.450381679 L322.900763359,211.450381679 L281.679389313,211.450381679 L281.679389313,221.374045802 L284.732824427,223.664122137 L283.20610687,225.954198473 L283.20610687,245.038167939 L283.969465649,244.27480916 L283.969465649,255.72519084 L234.351145038,255.72519084 L234.351145038,267.175572519 L235.877862595,267.175572519 L235.877862595,289.312977099 L237.404580153,289.312977099 L237.404580153,311.450381679 L238.93129771,311.450381679 L238.93129771,328.244274809 L239.694656489,345.038167939 L206.106870229,344.27480916 L160.305343511,345.038167939 L146.564885496,344.27480916 L116.030534351,344.27480916 L61.0687022901,344.27480916 L32.0610687023,345.038167939 L32.0610687023,311.450381679 L32.0610687023,277.86259542 L32.0610687023,245.801526718 L32.0610687023,212.977099237 L32.0610687023,190.839694656 L32.0610687023,158.778625954 L32.0610687023,133.58778626 L32.0610687023,95.4198473282 L32.0610687023,64.1221374046 L32.0610687023,42.7480916031 L32.0610687023,16.0305343511 L32.0610687023,0.763358778626 L64.1221374046,0.763358778626 L111.450381679,0.763358778626 L159.541984733,0.763358778626 L190.839694656,0.763358778626 L222.900763359,0.763358778626 L254.961832061,0.763358778626 L313.740458015,0.0 Z" fill="#cee3f5" id="CA.AB.48022" stroke="#6e6e6e" stroke-width="0.4"><desc><feduid>48022</feduid><name>Peace River</name><prname>Alberta</prname><fedfname>Peace River</fedfname><pruid>48</pruid><fedename>Peace River</fedename><id>CA.AB.48022</id><fedname>Peace River</fedname></desc></path><path d="M455.72519084,415.267175573 L454.961832061,412.977099237 L451.908396947,412.977099237 L451.908396947,409.923664122 L451.145038168,408.396946565 L451.908396947,405.34351145 L445.801526718,405.34351145 L445.801526718,404.580152672 L449.618320611,404.580152672 L449.618320611,400.0 L458.778625954,400.0 L461.832061069,401.526717557 L466.41221374,397.709923664 L467.175572519,396.183206107 L469.465648855,396.183206107 L469.465648855,400.0 L466.41221374,400.0 L464.885496183,403.053435115 L461.832061069,403.053435115 L461.832061069,415.267175573 L455.72519084,415.267175573 Z" fill="#cee3f5" id="CA.AB.48016" stroke="#6e6e6e" stroke-width="0.4"><desc><feduid>48016</feduid><name>Edmonton - Sherwood Park</name><prname>Alberta</prname><fedfname>Edmonton - Sherwood Park</fedfname><pruid>48</pruid><fedename>Edmonton - Sherwood Park</fedename><id>CA.AB.48016</id><fedname>Edmonton - Sherwood Park</fedname></desc></path><path d="M409.160305344,573.282442748 L409.160305344,574.809160305 L409.923664122,580.916030534 L407.633587786,580.152671756 L400.0,579.389312977 L400.0,577.86259542 L404.580152672,577.86259542 L404.580152672,572.519083969 L409.160305344,573.282442748 Z" fill="#cee3f5" id="CA.AB.48008" stroke="#6e6e6e" stroke-width="0.4"><desc><feduid>48008</feduid><name>Calgary Southwest / Calgary-Sud-Ouest</name><prname>Alberta</prname><fedfname>Calgary-Sud-Ouest</fedfname><pruid>48</pruid><fedename>Calgary Southwest</fedename><id>CA.AB.48008</id><fedname>Calgary Southwest / Calgary-Sud-Ouest</fedname></desc></path><path d="M445.801526718,415.267175573 L445.801526718,419.083969466 L441.984732824,424.427480916 L455.72519084,424.427480916 L455.72519084,429.770992366 L430.534351145,429.770992366 L430.534351145,422.900763359 L429.007633588,422.900763359 L435.877862595,421.374045802 L435.877862595,418.320610687 L441.221374046,413.740458015 L441.984732824,413.740458015 L441.984732824,415.267175573 L445.801526718,415.267175573 Z" fill="#cee3f5" id="CA.AB.48014" stroke="#6e6e6e" stroke-width="0.4"><desc><feduid>48014</feduid><name>Edmonton - Leduc</name><prname>Alberta</prname><fedfname>Edmonton - Leduc</fedfname><pruid>48</pruid><fedename>Edmonton - Leduc</fedename><id>CA.AB.48014</id><fedname>Edmonton - Leduc</fedname></desc></path><path d="M451.908396947,409.923664122 L446.564885496,411.450381679 L445.801526718,408.396946565 L445.801526718,405.34351145 L451.908396947,405.34351145 L451.145038168,408.396946565 L451.908396947,409.923664122 Z" fill="#cee3f5" id="CA.AB.48013" stroke="#6e6e6e" stroke-width="0.4"><desc><feduid>48013</feduid><name>Edmonton East / Edmonton-Est</name><prname>Alberta</prname><fedfname>Edmonton-Est</fedfname><pruid>48</pruid><fedename>Edmonton East</fedename><id>CA.AB.48013</id><fedname>Edmonton East / Edmonton-Est</fedname></desc></path><path d="M393.129770992,344.27480916 L393.129770992,348.854961832 L394.65648855,350.381679389 L394.65648855,355.72519084 L396.183206107,355.72519084 L396.183206107,367.175572519 L401.526717557,367.175572519 L401.526717557,370.229007634 L403.816793893,370.229007634 L403.816793893,377.86259542 L410.687022901,377.86259542 L410.687022901,391.603053435 L411.450381679,391.603053435 L412.213740458,403.816793893 L406.106870229,403.816793893 L404.580152672,407.633587786 L404.580152672,423.664122137 L396.183206107,422.13740458 L393.893129771,419.083969466 L390.076335878,418.320610687 L385.496183206,423.664122137 L383.20610687,423.664122137 L380.916030534,425.954198473 L374.809160305,425.954198473 L370.229007634,425.190839695 L368.702290076,425.954198473 L364.122137405,424.427480916 L358.015267176,428.244274809 L354.961832061,433.58778626 L352.671755725,435.877862595 L353.435114504,438.93129771 L348.854961832,440.458015267 L348.854961832,441.221374046 L344.27480916,441.984732824 L337.404580153,441.984732824 L335.877862595,443.511450382 L337.404580153,447.328244275 L335.877862595,451.145038168 L338.93129771,453.435114504 L341.221374046,457.251908397 L340.458015267,460.305343511 L344.27480916,461.832061069 L345.801526718,467.175572519 L348.854961832,472.519083969 L340.458015267,472.519083969 L293.893129771,472.519083969 L229.770992366,473.282442748 L229.770992366,474.809160305 L231.297709924,477.86259542 L225.190839695,482.442748092 L222.13740458,486.259541985 L220.610687023,490.076335878 L217.557251908,493.129770992 L210.687022901,496.183206107 L210.687022901,497.709923664 L204.580152672,498.473282443 L203.053435115,496.946564885 L201.526717557,500.0 L198.473282443,500.763358779 L190.839694656,500.0 L189.312977099,499.236641221 L183.969465649,500.0 L180.916030534,496.946564885 L175.572519084,496.183206107 L170.992366412,494.65648855 L169.465648855,491.603053435 L174.809160305,489.312977099 L177.86259542,486.259541985 L174.045801527,482.442748092 L166.41221374,482.442748092 L161.06870229,479.389312977 L160.305343511,477.099236641 L155.72519084,480.916030534 L156.488549618,483.969465649 L150.381679389,483.20610687 L145.801526718,485.496183206 L143.511450382,483.20610687 L142.748091603,480.916030534 L144.27480916,477.86259542 L141.221374046,474.809160305 L141.984732824,473.282442748 L138.167938931,472.519083969 L136.641221374,468.702290076 L140.458015267,467.938931298 L140.458015267,466.41221374 L137.404580153,464.122137405 L137.404580153,462.595419847 L132.061068702,459.541984733 L133.58778626,456.488549618 L131.297709924,454.961832061 L130.534351145,452.671755725 L124.427480916,451.145038168 L120.610687023,452.671755725 L120.610687023,449.618320611 L117.557251908,448.091603053 L118.320610687,445.801526718 L117.557251908,443.511450382 L112.977099237,441.984732824 L112.977099237,438.167938931 L109.160305344,435.877862595 L100.763358779,432.061068702 L99.2366412214,430.534351145 L93.893129771,430.534351145 L95.4198473282,433.58778626 L92.3664122137,436.641221374 L84.7328244275,433.58778626 L79.3893129771,432.824427481 L73.2824427481,425.954198473 L73.2824427481,423.664122137 L69.465648855,422.13740458 L66.4122137405,422.900763359 L62.5954198473,422.13740458 L53.4351145038,422.13740458 L49.6183206107,420.610687023 L45.0381679389,415.267175573 L38.1679389313,412.977099237 L40.4580152672,410.687022901 L37.4045801527,407.633587786 L41.2213740458,406.870229008 L48.0916030534,407.633587786 L50.3816793893,406.870229008 L45.0381679389,400.763358779 L38.1679389313,400.763358779 L38.9312977099,396.183206107 L35.8778625954,396.183206107 L32.0610687023,394.65648855 L32.0610687023,364.885496183 L32.0610687023,345.038167939 L61.0687022901,344.27480916 L116.030534351,344.27480916 L146.564885496,344.27480916 L160.305343511,345.038167939 L206.106870229,344.27480916 L239.694656489,345.038167939 L238.93129771,328.244274809 L305.34351145,328.244274809 L345.801526718,328.244274809 L346.564885496,333.58778626 L346.564885496,344.27480916 L362.595419847,344.27480916 L393.129770992,344.27480916 Z" fill="#cee3f5" id="CA.AB.48028" stroke="#6e6e6e" stroke-width="0.4"><desc><feduid>48028</feduid><name>Yellowhead</name><prname>Alberta</prname><fedfname>Yellowhead</fedfname><pruid>48</pruid><fedename>Yellowhead</fedename><id>CA.AB.48028</id><fedname>Yellowhead</fedname></desc></path><path d="M419.083969466,563.358778626 L419.083969466,568.702290076 L412.213740458,568.702290076 L410.687022901,564.885496183 L409.160305344,564.122137405 L409.160305344,561.06870229 L419.083969466,561.06870229 L419.083969466,563.358778626 Z" fill="#cee3f5" id="CA.AB.48004" stroke="#6e6e6e" stroke-width="0.4"><desc><feduid>48004</feduid><name>Calgary Northeast / Calgary-Nord-Est</name><prname>Alberta</prname><fedfname>Calgary-Nord-Est</fedfname><pruid>48</pruid><fedename>Calgary Northeast</fedename><id>CA.AB.48004</id><fedname>Calgary Northeast / Calgary-Nord-Est</fedname></desc></path><path d="M667.938931298,574.809160305 L667.938931298,607.633587786 L667.938931298,618.320610687 L667.938931298,638.93129771 L667.938931298,674.045801527 L667.938931298,700.0 L620.610687023,700.0 L582.442748092,700.0 L582.442748092,691.603053435 L580.152671756,692.366412214 L577.099236641,691.603053435 L576.335877863,689.312977099 L576.335877863,683.20610687 L556.488549618,683.20610687 L556.488549618,677.86259542 L548.091603053,677.86259542 L548.091603053,666.41221374 L547.328244275,664.122137405 L536.641221374,663.358778626 L535.877862595,661.832061069 L529.007633588,661.832061069 L525.190839695,660.305343511 L523.664122137,658.015267176 L514.503816794,655.72519084 L512.977099237,654.198473282 L512.977099237,645.038167939 L511.450381679,645.038167939 L511.450381679,631.297709924 L508.396946565,631.297709924 L508.396946565,627.480916031 L500.0,627.480916031 L500.0,624.427480916 L505.34351145,624.427480916 L506.870229008,622.900763359 L507.633587786,619.847328244 L513.740458015,619.847328244 L513.740458015,616.79389313 L530.534351145,616.79389313 L529.007633588,608.396946565 L522.13740458,609.160305344 L517.557251908,605.34351145 L518.320610687,602.290076336 L516.030534351,600.763358779 L517.557251908,598.473282443 L513.740458015,596.183206107 L509.923664122,596.183206107 L507.633587786,593.129770992 L506.106870229,588.549618321 L509.160305344,589.312977099 L509.160305344,586.259541985 L501.526717557,584.732824427 L500.763358779,583.20610687 L500.763358779,577.86259542 L508.396946565,577.86259542 L508.396946565,572.519083969 L516.79389313,572.519083969 L516.79389313,566.41221374 L525.954198473,566.41221374 L525.954198473,559.541984733 L534.351145038,564.122137405 L535.877862595,565.648854962 L541.221374046,567.175572519 L542.748091603,568.702290076 L545.801526718,574.045801527 L542.748091603,577.099236641 L545.038167939,578.625954198 L549.618320611,578.625954198 L552.671755725,583.20610687 L561.06870229,581.679389313 L564.122137405,582.442748092 L565.648854962,584.732824427 L568.702290076,587.786259542 L574.809160305,587.022900763 L578.625954198,588.549618321 L584.732824427,585.496183206 L584.732824427,583.20610687 L587.786259542,580.916030534 L590.076335878,580.916030534 L592.366412214,583.20610687 L598.473282443,578.625954198 L605.34351145,577.86259542 L609.160305344,576.335877863 L614.503816794,578.625954198 L616.79389313,581.679389313 L621.374045802,582.442748092 L628.244274809,581.679389313 L633.58778626,583.20610687 L639.694656489,580.152671756 L641.221374046,577.86259542 L644.27480916,577.86259542 L650.381679389,579.389312977 L661.832061069,576.335877863 L664.122137405,574.809160305 L667.938931298,574.809160305 Z" fill="#cee3f5" id="CA.AB.48021" stroke="#6e6e6e" stroke-width="0.4"><desc><feduid>48021</feduid><name>Medicine Hat</name><prname>Alberta</prname><fedfname>Medicine Hat</fedfname><pruid>48</pruid><fedename>Medicine Hat</fedename><id>CA.AB.48021</id><fedname>Medicine Hat</fedname></desc></path><path d="M419.083969466,575.572519084 L419.847328244,581.679389313 L415.267175573,581.679389313 L414.503816794,580.916030534 L409.923664122,580.916030534 L409.160305344,574.809160305 L409.160305344,573.282442748 L412.213740458,575.572519084 L419.083969466,575.572519084 Z" fill="#cee3f5" id="CA.AB.48007" stroke="#6e6e6e" stroke-width="0.4"><desc><feduid>48007</feduid><name>Calgary Southeast / Calgary-Sud-Est</name><prname>Alberta</prname><fedfname>Calgary-Sud-Est</fedfname><pruid>48</pruid><fedename>Calgary Southeast</fedename><id>CA.AB.48007</id><fedname>Calgary Southeast / Calgary-Sud-Est</fedname></desc></path><path d="M412.213740458,403.816793893 L419.083969466,403.816793893 L419.083969466,405.34351145 L424.427480916,405.34351145 L424.427480916,407.633587786 L432.061068702,407.633587786 L432.061068702,409.160305344 L438.167938931,409.160305344 L438.167938931,412.977099237 L441.221374046,413.740458015 L435.877862595,418.320610687 L435.877862595,421.374045802 L429.007633588,422.900763359 L424.427480916,422.900763359 L421.374045802,423.664122137 L416.030534351,423.664122137 L410.687022901,425.190839695 L409.923664122,423.664122137 L404.580152672,423.664122137 L404.580152672,407.633587786 L406.106870229,403.816793893 L412.213740458,403.816793893 Z" fill="#cee3f5" id="CA.AB.48017" stroke="#6e6e6e" stroke-width="0.4"><desc><feduid>48017</feduid><name>Edmonton - Spruce Grove</name><prname>Alberta</prname><fedfname>Edmonton - Spruce Grove</fedfname><pruid>48</pruid><fedename>Edmonton - Spruce Grove</fedename><id>CA.AB.48017</id><fedname>Edmonton - Spruce Grove</fedname></desc></path><path d="M411.450381679,570.229007634 L409.160305344,573.282442748 L404.580152672,572.519083969 L403.816793893,572.519083969 L403.053435115,569.465648855 L406.106870229,570.229007634 L411.450381679,570.229007634 Z" fill="#cee3f5" id="CA.AB.48006" stroke="#6e6e6e" stroke-width="0.4"><desc><feduid>48006</feduid><name>Calgary Centre / Calgary-Centre</name><prname>Alberta</prname><fedfname>Calgary-Centre</fedfname><pruid>48</pruid><fedename>Calgary Centre</fedename><id>CA.AB.48006</id><fedname>Calgary Centre / Calgary-Centre</fedname></desc></path><path d="M471.755725191,489.312977099 L473.282442748,493.129770992 L473.282442748,496.183206107 L475.572519084,497.709923664 L475.572519084,501.526717557 L479.389312977,506.870229008 L482.442748092,509.160305344 L483.20610687,511.450381679 L458.778625954,511.450381679 L458.778625954,509.923664122 L446.564885496,509.923664122 L446.564885496,512.213740458 L436.641221374,512.213740458 L436.641221374,516.030534351 L425.954198473,516.030534351 L424.427480916,516.79389313 L403.053435115,516.79389313 L401.526717557,514.503816794 L384.732824427,514.503816794 L381.679389313,512.977099237 L381.679389313,504.580152672 L377.099236641,504.580152672 L377.099236641,500.763358779 L386.259541985,500.763358779 L386.259541985,494.65648855 L386.259541985,491.603053435 L392.366412214,491.603053435 L391.603053435,488.549618321 L403.053435115,488.549618321 L403.816793893,487.022900763 L421.374045802,487.022900763 L429.007633588,486.259541985 L433.58778626,487.786259542 L434.351145038,490.076335878 L436.641221374,491.603053435 L448.091603053,494.65648855 L454.198473282,493.129770992 L459.541984733,493.129770992 L461.06870229,490.076335878 L463.358778626,489.312977099 L471.755725191,489.312977099 Z" fill="#cee3f5" id="CA.AB.48023" stroke="#6e6e6e" stroke-width="0.4"><desc><feduid>48023</feduid><name>Red Deer</name><prname>Alberta</prname><fedfname>Red Deer</fedfname><pruid>48</pruid><fedename>Red Deer</fedename><id>CA.AB.48023</id><fedname>Red Deer</fedname></desc></path><path d="M667.938931298,334.351145038 L664.885496183,335.114503817 L662.595419847,333.58778626 L609.923664122,333.58778626 L589.312977099,333.58778626 L589.312977099,339.694656489 L584.732824427,339.694656489 L584.732824427,343.511450382 L576.335877863,343.511450382 L576.335877863,344.27480916 L542.748091603,344.27480916 L509.160305344,345.038167939 L508.396946565,345.801526718 L504.580152672,345.801526718 L504.580152672,350.381679389 L490.076335878,350.381679389 L490.076335878,352.671755725 L470.229007634,352.671755725 L467.175572519,354.198473282 L467.175572519,355.72519084 L462.595419847,355.72519084 L461.06870229,357.251908397 L461.06870229,361.06870229 L438.93129771,361.06870229 L438.167938931,358.778625954 L434.351145038,358.778625954 L433.58778626,355.72519084 L433.58778626,344.27480916 L393.129770992,344.27480916 L362.595419847,344.27480916 L346.564885496,344.27480916 L346.564885496,333.58778626 L345.801526718,328.244274809 L305.34351145,328.244274809 L238.93129771,328.244274809 L238.93129771,311.450381679 L237.404580153,311.450381679 L237.404580153,289.312977099 L235.877862595,289.312977099 L235.877862595,267.175572519 L234.351145038,267.175572519 L234.351145038,255.72519084 L283.969465649,255.72519084 L283.969465649,244.27480916 L283.20610687,245.038167939 L283.20610687,225.954198473 L284.732824427,223.664122137 L281.679389313,221.374045802 L281.679389313,211.450381679 L322.900763359,211.450381679 L352.671755725,211.450381679 L352.671755725,200.0 L351.908396947,177.86259542 L351.145038168,177.86259542 L351.908396947,167.175572519 L413.740458015,167.175572519 L413.740458015,147.328244275 L413.740458015,122.13740458 L413.740458015,103.053435115 L413.740458015,72.5190839695 L413.740458015,33.5877862595 L347.328244275,33.5877862595 L314.503816794,33.5877862595 L315.267175573,22.9007633588 L313.740458015,22.9007633588 L313.740458015,0.0 L350.381679389,0.763358778626 L381.679389313,0.763358778626 L429.770992366,0.763358778626 L461.06870229,0.763358778626 L493.129770992,0.763358778626 L525.190839695,0.763358778626 L556.488549618,0.763358778626 L588.549618321,0.763358778626 L620.610687023,0.763358778626 L667.938931298,0.763358778626 L667.938931298,25.9541984733 L667.938931298,64.1221374046 L667.938931298,95.4198473282 L667.938931298,131.297709924 L667.938931298,155.72519084 L667.938931298,175.572519084 L667.938931298,195.419847328 L667.938931298,222.900763359 L667.938931298,262.595419847 L667.938931298,297.709923664 L667.938931298,334.351145038 Z" fill="#cee3f5" id="CA.AB.48001" stroke="#6e6e6e" stroke-width="0.4"><desc><feduid>48001</feduid><name>Fort McMurray - Athabasca</name><prname>Alberta</prname><fedfname>Fort McMurray - Athabasca</fedfname><pruid>48</pruid><fedename>Fort McMurray - Athabasca</fedename><id>CA.AB.48001</id><fedname>Fort McMurray - Athabasca</fedname></desc></path><path d="M667.938931298,334.351145038 L667.938931298,350.381679389 L667.938931298,381.679389313 L667.938931298,407.633587786 L658.015267176,403.816793893 L655.72519084,401.526717557 L652.671755725,401.526717557 L648.091603053,403.816793893 L645.801526718,403.816793893 L641.221374046,399.236641221 L635.114503817,397.709923664 L633.58778626,394.65648855 L627.480916031,391.603053435 L622.13740458,392.366412214 L619.083969466,390.839694656 L612.977099237,391.603053435 L609.160305344,390.839694656 L602.290076336,393.893129771 L598.473282443,396.946564885 L594.65648855,397.709923664 L584.732824427,397.709923664 L580.152671756,397.709923664 L578.625954198,396.183206107 L570.229007634,394.65648855 L566.41221374,395.419847328 L558.778625954,395.419847328 L556.488549618,393.129770992 L558.778625954,389.312977099 L555.72519084,387.022900763 L542.748091603,387.786259542 L539.694656489,385.496183206 L530.534351145,383.20610687 L529.007633588,380.152671756 L525.954198473,377.86259542 L517.557251908,380.152671756 L513.740458015,382.442748092 L508.396946565,382.442748092 L501.526717557,381.679389313 L495.419847328,378.625954198 L490.076335878,377.86259542 L487.022900763,380.152671756 L487.022900763,383.969465649 L486.259541985,385.496183206 L477.86259542,389.312977099 L473.282442748,390.839694656 L467.175572519,396.183206107 L466.41221374,397.709923664 L461.832061069,401.526717557 L458.778625954,400.0 L449.618320611,400.0 L449.618320611,404.580152672 L445.801526718,404.580152672 L440.458015267,404.580152672 L437.404580153,403.053435115 L434.351145038,403.816793893 L435.114503817,406.870229008 L432.061068702,407.633587786 L424.427480916,407.633587786 L424.427480916,405.34351145 L419.083969466,405.34351145 L419.083969466,403.816793893 L412.213740458,403.816793893 L411.450381679,391.603053435 L410.687022901,391.603053435 L410.687022901,377.86259542 L403.816793893,377.86259542 L403.816793893,370.229007634 L401.526717557,370.229007634 L401.526717557,367.175572519 L396.183206107,367.175572519 L396.183206107,355.72519084 L394.65648855,355.72519084 L394.65648855,350.381679389 L393.129770992,348.854961832 L393.129770992,344.27480916 L433.58778626,344.27480916 L433.58778626,355.72519084 L434.351145038,358.778625954 L438.167938931,358.778625954 L438.93129771,361.06870229 L461.06870229,361.06870229 L461.06870229,357.251908397 L462.595419847,355.72519084 L467.175572519,355.72519084 L467.175572519,354.198473282 L470.229007634,352.671755725 L490.076335878,352.671755725 L490.076335878,350.381679389 L504.580152672,350.381679389 L504.580152672,345.801526718 L508.396946565,345.801526718 L509.160305344,345.038167939 L542.748091603,344.27480916 L576.335877863,344.27480916 L576.335877863,343.511450382 L584.732824427,343.511450382 L584.732824427,339.694656489 L589.312977099,339.694656489 L589.312977099,333.58778626 L609.923664122,333.58778626 L662.595419847,333.58778626 L664.885496183,335.114503817 L667.938931298,334.351145038 Z" fill="#cee3f5" id="CA.AB.48025" stroke="#6e6e6e" stroke-width="0.4"><desc><feduid>48025</feduid><name>Westlock - St. Paul</name><prname>Alberta</prname><fedfname>Westlock - St. Paul</fedfname><pruid>48</pruid><fedename>Westlock - St. Paul</fedename><id>CA.AB.48025</id><fedname>Westlock - St. Paul</fedname></desc></path><path d="M404.580152672,423.664122137 L409.923664122,423.664122137 L410.687022901,425.190839695 L416.030534351,423.664122137 L421.374045802,423.664122137 L424.427480916,422.900763359 L429.007633588,422.900763359 L430.534351145,422.900763359 L430.534351145,429.770992366 L455.72519084,429.770992366 L474.045801527,429.770992366 L474.045801527,430.534351145 L466.41221374,430.534351145 L465.648854962,432.061068702 L466.41221374,438.167938931 L470.992366412,438.167938931 L470.992366412,447.328244275 L469.465648855,447.328244275 L469.465648855,455.72519084 L474.045801527,455.72519084 L474.045801527,469.465648855 L467.938931298,469.465648855 L467.938931298,472.519083969 L472.519083969,472.519083969 L477.099236641,474.045801527 L481.679389313,478.625954198 L476.335877863,480.152671756 L475.572519084,485.496183206 L472.519083969,485.496183206 L471.755725191,489.312977099 L463.358778626,489.312977099 L461.06870229,490.076335878 L459.541984733,493.129770992 L454.198473282,493.129770992 L448.091603053,494.65648855 L436.641221374,491.603053435 L434.351145038,490.076335878 L433.58778626,487.786259542 L429.007633588,486.259541985 L421.374045802,487.022900763 L403.816793893,487.022900763 L403.053435115,488.549618321 L391.603053435,488.549618321 L392.366412214,491.603053435 L386.259541985,491.603053435 L386.259541985,494.65648855 L341.221374046,494.65648855 L340.458015267,489.312977099 L340.458015267,472.519083969 L348.854961832,472.519083969 L345.801526718,467.175572519 L344.27480916,461.832061069 L340.458015267,460.305343511 L341.221374046,457.251908397 L338.93129771,453.435114504 L335.877862595,451.145038168 L337.404580153,447.328244275 L335.877862595,443.511450382 L337.404580153,441.984732824 L344.27480916,441.984732824 L348.854961832,441.221374046 L348.854961832,440.458015267 L353.435114504,438.93129771 L352.671755725,435.877862595 L354.961832061,433.58778626 L358.015267176,428.244274809 L364.122137405,424.427480916 L368.702290076,425.954198473 L370.229007634,425.190839695 L374.809160305,425.954198473 L380.916030534,425.954198473 L383.20610687,423.664122137 L385.496183206,423.664122137 L390.076335878,418.320610687 L393.893129771,419.083969466 L396.183206107,422.13740458 L404.580152672,423.664122137 Z" fill="#cee3f5" id="CA.AB.48026" stroke="#6e6e6e" stroke-width="0.4"><desc><feduid>48026</feduid><name>Wetaskiwin</name><prname>Alberta</prname><fedfname>Wetaskiwin</fedfname><pruid>48</pruid><fedename>Wetaskiwin</fedename><id>CA.AB.48026</id><fedname>Wetaskiwin</fedname></desc></path><path d="M445.801526718,404.580152672 L445.801526718,405.34351145 L445.801526718,408.396946565 L438.167938931,409.160305344 L432.061068702,409.160305344 L432.061068702,407.633587786 L435.114503817,406.870229008 L434.351145038,403.816793893 L437.404580153,403.053435115 L440.458015267,404.580152672 L445.801526718,404.580152672 Z" fill="#cee3f5" id="CA.AB.48015" stroke="#6e6e6e" stroke-width="0.4"><desc><feduid>48015</feduid><name>Edmonton - St. Albert</name><prname>Alberta</prname><fedfname>Edmonton - St. Albert</fedfname><pruid>48</pruid><fedename>Edmonton - St. Albert</fedename><id>CA.AB.48015</id><fedname>Edmonton - St. Albert</fedname></desc></path><path d="M404.580152672,566.41221374 L406.106870229,570.229007634 L403.053435115,569.465648855 L403.816793893,572.519083969 L398.473282443,572.519083969 L398.473282443,567.938931298 L396.183206107,566.41221374 L396.946564885,563.358778626 L404.580152672,566.41221374 Z" fill="#cee3f5" id="CA.AB.48009" stroke="#6e6e6e" stroke-width="0.4"><desc><feduid>48009</feduid><name>Calgary West / Calgary-Ouest</name><prname>Alberta</prname><fedfname>Calgary-Ouest</fedfname><pruid>48</pruid><fedename>Calgary West</fedename><id>CA.AB.48009</id><fedname>Calgary West / Calgary-Ouest</fedname></desc></path></svg>