<?xml version='1.0' encoding='utf-8'?>
<svg height="700" width="700" xmlns="http://www.w3.org/2000/svg"><path d="M593.432835821,274.253731343 L619.552238806,274.253731343 L619.552238806,271.119402985 L638.358208955,274.253731343 L646.71641791,284.701492537 L645.671641791,292.014925373 L664.47761194,302.462686567 L643.582089552,302.462686567 L643.582089552,311.865671642 L618.507462687,311.865671642 L594.47761194,311.865671642 L593.432835821,274.253731343 Z" fill="#cee3f5" id="US.IA.061" stroke="#6e6e6e" stroke-width="0.4"><desc><name>Dubuque County</name><stateAbbrev>IA</stateAbbrev><state>Iowa</state><fips>061</fips><incits>19061</incits><id>US.IA.061</id><population>95697</population></desc></path><path d="M13.5820895522,283.656716418 L82.5373134328,283.656716418 L95.0746268657,283.656716418 L95.0746268657,293.059701493 L103.432835821,293.059701493 L103.432835821,321.268656716 L28.2089552239,321.268656716 L32.3880597015,319.179104478 L22.9850746269,307.686567164 L24.0298507463,290.970149254 L14.6268656716,287.835820896 L13.5820895522,283.656716418 Z" fill="#cee3f5" id="US.IA.193" stroke="#6e6e6e" stroke-width="0.4"><desc><name>Woodbury County</name><stateAbbrev>IA</stateAbbrev><state>Iowa</state><fips>193</fips><incits>19193</incits><id>US.IA.193</id><population>102130</population></desc></path><path d="M52.2388059701,358.880597015 L102.388059701,358.880597015 L114.925373134,358.880597015 L114.925373134,387.089552239 L121.194029851,387.089552239 L122.23880597,397.537313433 L67.9104477612,397.537313433 L57.4626865672,394.402985075 L54.328358209,376.641791045 L59.552238806,365.149253731 L52.2388059701,358.880597015 Z" fill="#cee3f5" id="US.IA.085" stroke="#6e6e6e" stroke-width="0.4"><desc><name>Harrison County</name><stateAbbrev>IA</stateAbbrev><state>Iowa</state><fips>085</fips><incits>19085</incits><id>US.IA.085</id><population>14431</population></desc></path><path d="M87.7611940299,462.313432836 L133.731343284,462.313432836 L134.776119403,497.835820896 L92.9850746269,496.791044776 L89.8507462687,488.432835821 L79.4029850746,481.119402985 L84.6268656716,475.895522388 L83.5820895522,466.492537313 L87.7611940299,462.313432836 Z" fill="#cee3f5" id="US.IA.071" stroke="#6e6e6e" stroke-width="0.4"><desc><name>Fremont County</name><stateAbbrev>IA</stateAbbrev><state>Iowa</state><fips>071</fips><incits>19071</incits><id>US.IA.071</id><population>7080</population></desc></path><path d="M67.9104477612,397.537313433 L122.23880597,397.537313433 L158.805970149,397.537313433 L158.805970149,435.149253731 L133.731343284,435.149253731 L80.447761194,435.149253731 L75.223880597,428.880597015 L73.1343283582,415.298507463 L75.223880597,401.71641791 L67.9104477612,397.537313433 Z" fill="#cee3f5" id="US.IA.155" stroke="#6e6e6e" stroke-width="0.4"><desc><name>Pottawattamie County</name><stateAbbrev>IA</stateAbbrev><state>Iowa</state><fips>155</fips><incits>19155</incits><id>US.IA.155</id><population>92728</population></desc></path><path d="M28.2089552239,321.268656716 L103.432835821,321.268656716 L102.388059701,358.880597015 L52.2388059701,358.880597015 L53.2835820896,347.388059701 L37.6119402985,339.029850746 L38.6567164179,331.71641791 L30.2985074627,325.447761194 L28.2089552239,321.268656716 Z" fill="#cee3f5" id="US.IA.133" stroke="#6e6e6e" stroke-width="0.4"><desc><name>Monona County</name><stateAbbrev>IA</stateAbbrev><state>Iowa</state><fips>133</fips><incits>19133</incits><id>US.IA.133</id><population>9121</population></desc></path><path d="M80.447761194,435.149253731 L133.731343284,435.149253731 L133.731343284,462.313432836 L87.7611940299,462.313432836 L82.5373134328,451.865671642 L80.447761194,435.149253731 Z" fill="#cee3f5" id="US.IA.129" stroke="#6e6e6e" stroke-width="0.4"><desc><name>Mills County</name><stateAbbrev>IA</stateAbbrev><state>Iowa</state><fips>129</fips><incits>19129</incits><id>US.IA.129</id><population>14896</population></desc></path><path d="M82.5373134328,181.268656716 L82.5373134328,207.388059701 L7.31343283582,207.388059701 L10.447761194,192.76119403 L3.13432835821,188.582089552 L3.13432835821,181.268656716 L82.5373134328,181.268656716 Z" fill="#cee3f5" id="US.IA.119" stroke="#6e6e6e" stroke-width="0.4"><desc><name>Lyon County</name><stateAbbrev>IA</stateAbbrev><state>Iowa</state><fips>119</fips><incits>19119</incits><id>US.IA.119</id><population>11712</population></desc></path><path d="M82.5373134328,207.388059701 L82.5373134328,181.268656716 L133.731343284,181.268656716 L133.731343284,208.432835821 L82.5373134328,207.388059701 Z" fill="#cee3f5" id="US.IA.143" stroke="#6e6e6e" stroke-width="0.4"><desc><name>Osceola County</name><stateAbbrev>IA</stateAbbrev><state>Iowa</state><fips>143</fips><incits>19143</incits><id>US.IA.143</id><population>6211</population></desc></path><path d="M82.5373134328,207.388059701 L133.731343284,208.432835821 L133.731343284,246.044776119 L82.5373134328,246.044776119 L82.5373134328,207.388059701 Z" fill="#cee3f5" id="US.IA.141" stroke="#6e6e6e" stroke-width="0.4"><desc><name>OBrienCounty</name><stateAbbrev>IA</stateAbbrev><state>Iowa</state><fips>141</fips><incits>19141</incits><id>US.IA.141</id><population>14044</population></desc></path><path d="M184.925373134,246.044776119 L184.925373134,208.432835821 L236.119402985,208.432835821 L235.074626866,246.044776119 L184.925373134,246.044776119 Z" fill="#cee3f5" id="US.IA.147" stroke="#6e6e6e" stroke-width="0.4"><desc><name>Palo Alto County</name><stateAbbrev>IA</stateAbbrev><state>Iowa</state><fips>147</fips><incits>19147</incits><id>US.IA.147</id><population>9185</population></desc></path><path d="M133.731343284,208.432835821 L184.925373134,208.432835821 L184.925373134,246.044776119 L133.731343284,246.044776119 L133.731343284,208.432835821 Z" fill="#cee3f5" id="US.IA.041" stroke="#6e6e6e" stroke-width="0.4"><desc><name>Clay County</name><stateAbbrev>IA</stateAbbrev><state>Iowa</state><fips>041</fips><incits>19041</incits><id>US.IA.041</id><population>16491</population></desc></path><path d="M9.40298507463,246.044776119 L82.5373134328,246.044776119 L82.5373134328,283.656716418 L13.5820895522,283.656716418 L9.40298507463,273.208955224 L5.68434188608e-14,266.940298507 L9.40298507463,246.044776119 Z" fill="#cee3f5" id="US.IA.149" stroke="#6e6e6e" stroke-width="0.4"><desc><name>Plymouth County</name><stateAbbrev>IA</stateAbbrev><state>Iowa</state><fips>149</fips><incits>19149</incits><id>US.IA.149</id><population>24957</population></desc></path><path d="M354.179104478,358.880597015 L366.71641791,358.880597015 L416.865671642,358.880597015 L416.865671642,387.089552239 L417.910447761,396.492537313 L405.373134328,397.537313433 L356.268656716,397.537313433 L354.179104478,387.089552239 L354.179104478,358.880597015 Z" fill="#cee3f5" id="US.IA.099" stroke="#6e6e6e" stroke-width="0.4"><desc><name>Jasper County</name><stateAbbrev>IA</stateAbbrev><state>Iowa</state><fips>099</fips><incits>19099</incits><id>US.IA.099</id><population>36641</population></desc></path><path d="M356.268656716,397.537313433 L356.268656716,398.582089552 L343.731343284,397.537313433 L306.119402985,396.492537313 L305.074626866,387.089552239 L304.029850746,372.462686567 L304.029850746,365.149253731 L304.029850746,358.880597015 L316.567164179,358.880597015 L330.149253731,358.880597015 L354.179104478,358.880597015 L354.179104478,387.089552239 L356.268656716,397.537313433 Z" fill="#cee3f5" id="US.IA.153" stroke="#6e6e6e" stroke-width="0.4"><desc><name>Polk County</name><stateAbbrev>IA</stateAbbrev><state>Iowa</state><fips>153</fips><incits>19153</incits><id>US.IA.153</id><population>451677</population></desc></path><path d="M356.268656716,398.582089552 L356.268656716,397.537313433 L405.373134328,397.537313433 L405.373134328,435.149253731 L380.298507463,435.149253731 L356.268656716,435.149253731 L356.268656716,398.582089552 Z" fill="#cee3f5" id="US.IA.125" stroke="#6e6e6e" stroke-width="0.4"><desc><name>Marion County</name><stateAbbrev>IA</stateAbbrev><state>Iowa</state><fips>125</fips><incits>19125</incits><id>US.IA.125</id><population>33252</population></desc></path><path d="M306.119402985,396.492537313 L343.731343284,397.537313433 L356.268656716,398.582089552 L356.268656716,435.149253731 L331.194029851,435.149253731 L306.119402985,434.104477612 L306.119402985,396.492537313 Z" fill="#cee3f5" id="US.IA.181" stroke="#6e6e6e" stroke-width="0.4"><desc><name>Warren County</name><stateAbbrev>IA</stateAbbrev><state>Iowa</state><fips>181</fips><incits>19181</incits><id>US.IA.181</id><population>47336</population></desc></path><path d="M265.373134328,321.268656716 L291.492537313,321.268656716 L316.567164179,321.268656716 L316.567164179,358.880597015 L304.029850746,358.880597015 L290.447761194,358.880597015 L277.910447761,358.880597015 L265.373134328,358.880597015 L265.373134328,321.268656716 Z" fill="#cee3f5" id="US.IA.015" stroke="#6e6e6e" stroke-width="0.4"><desc><name>Boone County</name><stateAbbrev>IA</stateAbbrev><state>Iowa</state><fips>015</fips><incits>19015</incits><id>US.IA.015</id><population>26364</population></desc></path><path d="M252.835820896,358.880597015 L265.373134328,358.880597015 L277.910447761,358.880597015 L290.447761194,358.880597015 L304.029850746,358.880597015 L304.029850746,365.149253731 L304.029850746,372.462686567 L305.074626866,387.089552239 L306.119402985,396.492537313 L294.626865672,397.537313433 L257.014925373,397.537313433 L252.835820896,387.089552239 L252.835820896,358.880597015 Z" fill="#cee3f5" id="US.IA.049" stroke="#6e6e6e" stroke-width="0.4"><desc><name>Dallas County</name><stateAbbrev>IA</stateAbbrev><state>Iowa</state><fips>049</fips><incits>19049</incits><id>US.IA.049</id><population>74641</population></desc></path><path d="M316.567164179,321.268656716 L341.641791045,321.268656716 L366.71641791,321.268656716 L366.71641791,358.880597015 L354.179104478,358.880597015 L316.567164179,358.880597015 L316.567164179,321.268656716 Z" fill="#cee3f5" id="US.IA.169" stroke="#6e6e6e" stroke-width="0.4"><desc><name>Story County</name><stateAbbrev>IA</stateAbbrev><state>Iowa</state><fips>169</fips><incits>19169</incits><id>US.IA.169</id><population>92406</population></desc></path><path d="M133.731343284,246.044776119 L184.925373134,246.044776119 L184.925373134,283.656716418 L133.731343284,283.656716418 L133.731343284,246.044776119 Z" fill="#cee3f5" id="US.IA.021" stroke="#6e6e6e" stroke-width="0.4"><desc><name>Buena Vista County</name><stateAbbrev>IA</stateAbbrev><state>Iowa</state><fips>021</fips><incits>19021</incits><id>US.IA.021</id><population>20567</population></desc></path><path d="M184.925373134,283.656716418 L236.119402985,283.656716418 L240.298507463,293.059701493 L240.298507463,321.268656716 L215.223880597,321.268656716 L190.149253731,321.268656716 L191.194029851,293.059701493 L184.925373134,293.059701493 L184.925373134,283.656716418 Z" fill="#cee3f5" id="US.IA.025" stroke="#6e6e6e" stroke-width="0.4"><desc><name>Calhoun County</name><stateAbbrev>IA</stateAbbrev><state>Iowa</state><fips>025</fips><incits>19025</incits><id>US.IA.025</id><population>9926</population></desc></path><path d="M82.5373134328,246.044776119 L133.731343284,246.044776119 L133.731343284,283.656716418 L95.0746268657,283.656716418 L82.5373134328,283.656716418 L82.5373134328,246.044776119 Z" fill="#cee3f5" id="US.IA.035" stroke="#6e6e6e" stroke-width="0.4"><desc><name>Cherokee County</name><stateAbbrev>IA</stateAbbrev><state>Iowa</state><fips>035</fips><incits>19035</incits><id>US.IA.035</id><population>11945</population></desc></path><path d="M95.0746268657,283.656716418 L133.731343284,283.656716418 L133.731343284,293.059701493 L141.044776119,293.059701493 L141.044776119,321.268656716 L103.432835821,321.268656716 L103.432835821,293.059701493 L95.0746268657,293.059701493 L95.0746268657,283.656716418 Z" fill="#cee3f5" id="US.IA.093" stroke="#6e6e6e" stroke-width="0.4"><desc><name>Ida County</name><stateAbbrev>IA</stateAbbrev><state>Iowa</state><fips>093</fips><incits>19093</incits><id>US.IA.093</id><population>7141</population></desc></path><path d="M184.925373134,246.044776119 L235.074626866,246.044776119 L235.074626866,274.253731343 L236.119402985,283.656716418 L184.925373134,283.656716418 L184.925373134,246.044776119 Z" fill="#cee3f5" id="US.IA.151" stroke="#6e6e6e" stroke-width="0.4"><desc><name>Pocahontas County</name><stateAbbrev>IA</stateAbbrev><state>Iowa</state><fips>151</fips><incits>19151</incits><id>US.IA.151</id><population>7154</population></desc></path><path d="M133.731343284,283.656716418 L184.925373134,283.656716418 L184.925373134,293.059701493 L191.194029851,293.059701493 L190.149253731,321.268656716 L166.119402985,321.268656716 L141.044776119,321.268656716 L141.044776119,293.059701493 L133.731343284,293.059701493 L133.731343284,283.656716418 Z" fill="#cee3f5" id="US.IA.161" stroke="#6e6e6e" stroke-width="0.4"><desc><name>Sac County</name><stateAbbrev>IA</stateAbbrev><state>Iowa</state><fips>161</fips><incits>19161</incits><id>US.IA.161</id><population>10071</population></desc></path><path d="M7.31343283582,207.388059701 L82.5373134328,207.388059701 L82.5373134328,246.044776119 L9.40298507463,246.044776119 L12.5373134328,241.865671642 L19.8507462687,223.059701493 L15.671641791,211.567164179 L7.31343283582,207.388059701 Z" fill="#cee3f5" id="US.IA.167" stroke="#6e6e6e" stroke-width="0.4"><desc><name>Sioux County</name><stateAbbrev>IA</stateAbbrev><state>Iowa</state><fips>167</fips><incits>19167</incits><id>US.IA.167</id><population>34547</population></desc></path><path d="M366.71641791,321.268656716 L391.791044776,321.268656716 L416.865671642,321.268656716 L416.865671642,358.880597015 L366.71641791,358.880597015 L366.71641791,321.268656716 Z" fill="#cee3f5" id="US.IA.127" stroke="#6e6e6e" stroke-width="0.4"><desc><name>Marshall County</name><stateAbbrev>IA</stateAbbrev><state>Iowa</state><fips>127</fips><incits>19127</incits><id>US.IA.127</id><population>40994</population></desc></path><path d="M235.074626866,274.253731343 L235.074626866,246.044776119 L287.313432836,246.044776119 L286.268656716,260.671641791 L286.268656716,261.71641791 L286.268656716,274.253731343 L235.074626866,274.253731343 Z" fill="#cee3f5" id="US.IA.091" stroke="#6e6e6e" stroke-width="0.4"><desc><name>Humboldt County</name><stateAbbrev>IA</stateAbbrev><state>Iowa</state><fips>091</fips><incits>19091</incits><id>US.IA.091</id><population>9688</population></desc></path><path d="M235.074626866,274.253731343 L286.268656716,274.253731343 L286.268656716,283.656716418 L291.492537313,293.059701493 L291.492537313,321.268656716 L265.373134328,321.268656716 L240.298507463,321.268656716 L240.298507463,293.059701493 L236.119402985,283.656716418 L235.074626866,274.253731343 Z" fill="#cee3f5" id="US.IA.187" stroke="#6e6e6e" stroke-width="0.4"><desc><name>Webster County</name><stateAbbrev>IA</stateAbbrev><state>Iowa</state><fips>187</fips><incits>19187</incits><id>US.IA.187</id><population>37044</population></desc></path><path d="M133.731343284,462.313432836 L182.835820896,462.313432836 L184.925373134,497.835820896 L134.776119403,497.835820896 L133.731343284,462.313432836 Z" fill="#cee3f5" id="US.IA.145" stroke="#6e6e6e" stroke-width="0.4"><desc><name>Page County</name><stateAbbrev>IA</stateAbbrev><state>Iowa</state><fips>145</fips><incits>19145</incits><id>US.IA.145</id><population>15713</population></desc></path><path d="M133.731343284,435.149253731 L158.805970149,435.149253731 L182.835820896,435.149253731 L182.835820896,462.313432836 L133.731343284,462.313432836 L133.731343284,435.149253731 Z" fill="#cee3f5" id="US.IA.137" stroke="#6e6e6e" stroke-width="0.4"><desc><name>Montgomery County</name><stateAbbrev>IA</stateAbbrev><state>Iowa</state><fips>137</fips><incits>19137</incits><id>US.IA.137</id><population>10424</population></desc></path><path d="M182.835820896,462.313432836 L182.835820896,435.149253731 L207.910447761,435.149253731 L232.985074627,435.149253731 L232.985074627,463.358208955 L182.835820896,462.313432836 Z" fill="#cee3f5" id="US.IA.003" stroke="#6e6e6e" stroke-width="0.4"><desc><name>Adams County</name><stateAbbrev>IA</stateAbbrev><state>Iowa</state><fips>003</fips><incits>19003</incits><id>US.IA.003</id><population>3894</population></desc></path><path d="M232.985074627,498.880597015 L232.985074627,463.358208955 L282.089552239,463.358208955 L282.089552239,497.835820896 L232.985074627,498.880597015 Z" fill="#cee3f5" id="US.IA.159" stroke="#6e6e6e" stroke-width="0.4"><desc><name>Ringgold County</name><stateAbbrev>IA</stateAbbrev><state>Iowa</state><fips>159</fips><incits>19159</incits><id>US.IA.159</id><population>5072</population></desc></path><path d="M182.835820896,462.313432836 L232.985074627,463.358208955 L232.985074627,498.880597015 L184.925373134,497.835820896 L182.835820896,462.313432836 Z" fill="#cee3f5" id="US.IA.173" stroke="#6e6e6e" stroke-width="0.4"><desc><name>Taylor County</name><stateAbbrev>IA</stateAbbrev><state>Iowa</state><fips>173</fips><incits>19173</incits><id>US.IA.173</id><population>6161</population></desc></path><path d="M232.985074627,435.149253731 L257.014925373,435.149253731 L282.089552239,435.149253731 L282.089552239,463.358208955 L232.985074627,463.358208955 L232.985074627,435.149253731 Z" fill="#cee3f5" id="US.IA.175" stroke="#6e6e6e" stroke-width="0.4"><desc><name>Union County</name><stateAbbrev>IA</stateAbbrev><state>Iowa</state><fips>175</fips><incits>19175</incits><id>US.IA.175</id><population>12583</population></desc></path><path d="M207.910447761,397.537313433 L257.014925373,397.537313433 L257.014925373,435.149253731 L232.985074627,435.149253731 L207.910447761,435.149253731 L207.910447761,397.537313433 Z" fill="#cee3f5" id="US.IA.001" stroke="#6e6e6e" stroke-width="0.4"><desc><name>Adair County</name><stateAbbrev>IA</stateAbbrev><state>Iowa</state><fips>001</fips><incits>19001</incits><id>US.IA.001</id><population>7472</population></desc></path><path d="M165.074626866,358.880597015 L202.686567164,358.880597015 L202.686567164,387.089552239 L207.910447761,397.537313433 L171.343283582,397.537313433 L171.343283582,387.089552239 L165.074626866,387.089552239 L165.074626866,358.880597015 Z" fill="#cee3f5" id="US.IA.009" stroke="#6e6e6e" stroke-width="0.4"><desc><name>Audubon County</name><stateAbbrev>IA</stateAbbrev><state>Iowa</state><fips>009</fips><incits>19009</incits><id>US.IA.009</id><population>5873</population></desc></path><path d="M202.686567164,358.880597015 L215.223880597,358.880597015 L252.835820896,358.880597015 L252.835820896,387.089552239 L257.014925373,397.537313433 L207.910447761,397.537313433 L202.686567164,387.089552239 L202.686567164,358.880597015 Z" fill="#cee3f5" id="US.IA.077" stroke="#6e6e6e" stroke-width="0.4"><desc><name>Guthrie County</name><stateAbbrev>IA</stateAbbrev><state>Iowa</state><fips>077</fips><incits>19077</incits><id>US.IA.077</id><population>10687</population></desc></path><path d="M158.805970149,435.149253731 L158.805970149,397.537313433 L171.343283582,397.537313433 L207.910447761,397.537313433 L207.910447761,435.149253731 L182.835820896,435.149253731 L158.805970149,435.149253731 Z" fill="#cee3f5" id="US.IA.029" stroke="#6e6e6e" stroke-width="0.4"><desc><name>Cass County</name><stateAbbrev>IA</stateAbbrev><state>Iowa</state><fips>029</fips><incits>19029</incits><id>US.IA.029</id><population>13598</population></desc></path><path d="M102.388059701,358.880597015 L103.432835821,321.268656716 L141.044776119,321.268656716 L166.119402985,321.268656716 L165.074626866,358.880597015 L114.925373134,358.880597015 L102.388059701,358.880597015 Z" fill="#cee3f5" id="US.IA.047" stroke="#6e6e6e" stroke-width="0.4"><desc><name>Crawford County</name><stateAbbrev>IA</stateAbbrev><state>Iowa</state><fips>047</fips><incits>19047</incits><id>US.IA.047</id><population>17434</population></desc></path><path d="M114.925373134,358.880597015 L165.074626866,358.880597015 L165.074626866,387.089552239 L171.343283582,387.089552239 L171.343283582,397.537313433 L158.805970149,397.537313433 L122.23880597,397.537313433 L121.194029851,387.089552239 L114.925373134,387.089552239 L114.925373134,358.880597015 Z" fill="#cee3f5" id="US.IA.165" stroke="#6e6e6e" stroke-width="0.4"><desc><name>Shelby County</name><stateAbbrev>IA</stateAbbrev><state>Iowa</state><fips>165</fips><incits>19165</incits><id>US.IA.165</id><population>11961</population></desc></path><path d="M165.074626866,358.880597015 L166.119402985,321.268656716 L190.149253731,321.268656716 L215.223880597,321.268656716 L215.223880597,358.880597015 L202.686567164,358.880597015 L165.074626866,358.880597015 Z" fill="#cee3f5" id="US.IA.027" stroke="#6e6e6e" stroke-width="0.4"><desc><name>Carroll County</name><stateAbbrev>IA</stateAbbrev><state>Iowa</state><fips>027</fips><incits>19027</incits><id>US.IA.027</id><population>20598</population></desc></path><path d="M215.223880597,321.268656716 L240.298507463,321.268656716 L265.373134328,321.268656716 L265.373134328,358.880597015 L252.835820896,358.880597015 L215.223880597,358.880597015 L215.223880597,321.268656716 Z" fill="#cee3f5" id="US.IA.073" stroke="#6e6e6e" stroke-width="0.4"><desc><name>Greene County</name><stateAbbrev>IA</stateAbbrev><state>Iowa</state><fips>073</fips><incits>19073</incits><id>US.IA.073</id><population>9139</population></desc></path><path d="M282.089552239,435.149253731 L306.119402985,434.104477612 L331.194029851,435.149253731 L331.194029851,463.358208955 L282.089552239,463.358208955 L282.089552239,435.149253731 Z" fill="#cee3f5" id="US.IA.039" stroke="#6e6e6e" stroke-width="0.4"><desc><name>Clarke County</name><stateAbbrev>IA</stateAbbrev><state>Iowa</state><fips>039</fips><incits>19039</incits><id>US.IA.039</id><population>9325</population></desc></path><path d="M282.089552239,497.835820896 L282.089552239,463.358208955 L331.194029851,463.358208955 L331.194029851,497.835820896 L282.089552239,497.835820896 Z" fill="#cee3f5" id="US.IA.053" stroke="#6e6e6e" stroke-width="0.4"><desc><name>Decatur County</name><stateAbbrev>IA</stateAbbrev><state>Iowa</state><fips>053</fips><incits>19053</incits><id>US.IA.053</id><population>8136</population></desc></path><path d="M257.014925373,435.149253731 L257.014925373,397.537313433 L294.626865672,397.537313433 L306.119402985,396.492537313 L306.119402985,434.104477612 L282.089552239,435.149253731 L257.014925373,435.149253731 Z" fill="#cee3f5" id="US.IA.121" stroke="#6e6e6e" stroke-width="0.4"><desc><name>Madison County</name><stateAbbrev>IA</stateAbbrev><state>Iowa</state><fips>121</fips><incits>19121</incits><id>US.IA.121</id><population>15448</population></desc></path><path d="M480.597014925,463.358208955 L530.746268657,463.358208955 L530.746268657,471.71641791 L530.746268657,495.746268657 L529.701492537,493.656716418 L480.597014925,495.746268657 L480.597014925,463.358208955 Z" fill="#cee3f5" id="US.IA.177" stroke="#6e6e6e" stroke-width="0.4"><desc><name>Van Buren County</name><stateAbbrev>IA</stateAbbrev><state>Iowa</state><fips>177</fips><incits>19177</incits><id>US.IA.177</id><population>7436</population></desc></path><path d="M530.746268657,471.71641791 L564.179104478,472.76119403 L586.119402985,482.164179104 L595.52238806,485.298507463 L588.208955224,491.567164179 L570.447761194,494.701492537 L564.179104478,500.970149254 L568.358208955,505.149253731 L567.313432836,517.686567164 L555.820895522,518.731343284 L534.925373134,499.925373134 L530.746268657,495.746268657 L530.746268657,471.71641791 Z" fill="#cee3f5" id="US.IA.111" stroke="#6e6e6e" stroke-width="0.4"><desc><name>Lee County</name><stateAbbrev>IA</stateAbbrev><state>Iowa</state><fips>111</fips><incits>19111</incits><id>US.IA.111</id><population>35682</population></desc></path><path d="M564.179104478,472.76119403 L567.313432836,472.76119403 L568.358208955,444.552238806 L613.28358209,444.552238806 L612.23880597,460.223880597 L597.611940299,472.76119403 L595.52238806,485.298507463 L586.119402985,482.164179104 L564.179104478,472.76119403 Z" fill="#cee3f5" id="US.IA.057" stroke="#6e6e6e" stroke-width="0.4"><desc><name>Des Moines County</name><stateAbbrev>IA</stateAbbrev><state>Iowa</state><fips>057</fips><incits>19057</incits><id>US.IA.057</id><population>40480</population></desc></path><path d="M381.343283582,463.358208955 L430.447761194,463.358208955 L430.447761194,496.791044776 L381.343283582,496.791044776 L381.343283582,463.358208955 Z" fill="#cee3f5" id="US.IA.007" stroke="#6e6e6e" stroke-width="0.4"><desc><name>Appanoose County</name><stateAbbrev>IA</stateAbbrev><state>Iowa</state><fips>007</fips><incits>19007</incits><id>US.IA.007</id><population>12692</population></desc></path><path d="M430.447761194,463.358208955 L480.597014925,463.358208955 L480.597014925,495.746268657 L430.447761194,496.791044776 L430.447761194,463.358208955 Z" fill="#cee3f5" id="US.IA.051" stroke="#6e6e6e" stroke-width="0.4"><desc><name>Davis County</name><stateAbbrev>IA</stateAbbrev><state>Iowa</state><fips>051</fips><incits>19051</incits><id>US.IA.051</id><population>8791</population></desc></path><path d="M530.746268657,471.71641791 L530.746268657,463.358208955 L530.746268657,434.104477612 L555.820895522,434.104477612 L568.358208955,434.104477612 L568.358208955,444.552238806 L567.313432836,472.76119403 L564.179104478,472.76119403 L530.746268657,471.71641791 Z" fill="#cee3f5" id="US.IA.087" stroke="#6e6e6e" stroke-width="0.4"><desc><name>Henry County</name><stateAbbrev>IA</stateAbbrev><state>Iowa</state><fips>087</fips><incits>19087</incits><id>US.IA.087</id><population>20222</population></desc></path><path d="M480.597014925,434.104477612 L505.671641791,434.104477612 L530.746268657,434.104477612 L530.746268657,463.358208955 L480.597014925,463.358208955 L480.597014925,434.104477612 Z" fill="#cee3f5" id="US.IA.101" stroke="#6e6e6e" stroke-width="0.4"><desc><name>Jefferson County</name><stateAbbrev>IA</stateAbbrev><state>Iowa</state><fips>101</fips><incits>19101</incits><id>US.IA.101</id><population>16810</population></desc></path><path d="M331.194029851,435.149253731 L356.268656716,435.149253731 L380.298507463,435.149253731 L381.343283582,463.358208955 L331.194029851,463.358208955 L331.194029851,435.149253731 Z" fill="#cee3f5" id="US.IA.117" stroke="#6e6e6e" stroke-width="0.4"><desc><name>Lucas County</name><stateAbbrev>IA</stateAbbrev><state>Iowa</state><fips>117</fips><incits>19117</incits><id>US.IA.117</id><population>8746</population></desc></path><path d="M380.298507463,435.149253731 L405.373134328,435.149253731 L430.447761194,435.149253731 L430.447761194,463.358208955 L381.343283582,463.358208955 L380.298507463,435.149253731 Z" fill="#cee3f5" id="US.IA.135" stroke="#6e6e6e" stroke-width="0.4"><desc><name>Monroe County</name><stateAbbrev>IA</stateAbbrev><state>Iowa</state><fips>135</fips><incits>19135</incits><id>US.IA.135</id><population>8012</population></desc></path><path d="M430.447761194,435.149253731 L455.52238806,434.104477612 L480.597014925,434.104477612 L480.597014925,463.358208955 L430.447761194,463.358208955 L430.447761194,435.149253731 Z" fill="#cee3f5" id="US.IA.179" stroke="#6e6e6e" stroke-width="0.4"><desc><name>Wapello County</name><stateAbbrev>IA</stateAbbrev><state>Iowa</state><fips>179</fips><incits>19179</incits><id>US.IA.179</id><population>35391</population></desc></path><path d="M331.194029851,463.358208955 L381.343283582,463.358208955 L381.343283582,496.791044776 L331.194029851,497.835820896 L331.194029851,463.358208955 Z" fill="#cee3f5" id="US.IA.185" stroke="#6e6e6e" stroke-width="0.4"><desc><name>Wayne County</name><stateAbbrev>IA</stateAbbrev><state>Iowa</state><fips>185</fips><incits>19185</incits><id>US.IA.185</id><population>6402</population></desc></path><path d="M555.820895522,434.104477612 L555.820895522,405.895522388 L568.358208955,405.895522388 L568.358208955,415.298507463 L600.746268657,416.343283582 L595.52238806,425.746268657 L603.880597015,434.104477612 L609.104477612,435.149253731 L613.28358209,444.552238806 L568.358208955,444.552238806 L568.358208955,434.104477612 L555.820895522,434.104477612 Z" fill="#cee3f5" id="US.IA.115" stroke="#6e6e6e" stroke-width="0.4"><desc><name>Louisa County</name><stateAbbrev>IA</stateAbbrev><state>Iowa</state><fips>115</fips><incits>19115</incits><id>US.IA.115</id><population>11282</population></desc></path><path d="M133.731343284,208.432835821 L133.731343284,181.268656716 L184.925373134,181.268656716 L184.925373134,208.432835821 L133.731343284,208.432835821 Z" fill="#cee3f5" id="US.IA.059" stroke="#6e6e6e" stroke-width="0.4"><desc><name>Dickinson County</name><stateAbbrev>IA</stateAbbrev><state>Iowa</state><fips>059</fips><incits>19059</incits><id>US.IA.059</id><population>16955</population></desc></path><path d="M184.925373134,181.268656716 L236.119402985,181.268656716 L236.119402985,208.432835821 L184.925373134,208.432835821 L184.925373134,181.268656716 Z" fill="#cee3f5" id="US.IA.063" stroke="#6e6e6e" stroke-width="0.4"><desc><name>Emmet County</name><stateAbbrev>IA</stateAbbrev><state>Iowa</state><fips>063</fips><incits>19063</incits><id>US.IA.063</id><population>9996</population></desc></path><path d="M468.059701493,358.880597015 L518.208955224,358.880597015 L518.208955224,396.492537313 L505.671641791,396.492537313 L467.014925373,396.492537313 L468.059701493,358.880597015 Z" fill="#cee3f5" id="US.IA.095" stroke="#6e6e6e" stroke-width="0.4"><desc><name>Iowa County</name><stateAbbrev>IA</stateAbbrev><state>Iowa</state><fips>095</fips><incits>19095</incits><id>US.IA.095</id><population>16330</population></desc></path><path d="M518.208955224,358.880597015 L568.358208955,358.880597015 L568.358208955,387.089552239 L568.358208955,405.895522388 L555.820895522,405.895522388 L550.597014925,397.537313433 L518.208955224,396.492537313 L518.208955224,358.880597015 Z" fill="#cee3f5" id="US.IA.103" stroke="#6e6e6e" stroke-width="0.4"><desc><name>Johnson County</name><stateAbbrev>IA</stateAbbrev><state>Iowa</state><fips>103</fips><incits>19103</incits><id>US.IA.103</id><population>139155</population></desc></path><path d="M455.52238806,397.537313433 L467.014925373,396.492537313 L505.671641791,396.492537313 L505.671641791,434.104477612 L480.597014925,434.104477612 L455.52238806,434.104477612 L455.52238806,397.537313433 Z" fill="#cee3f5" id="US.IA.107" stroke="#6e6e6e" stroke-width="0.4"><desc><name>Keokuk County</name><stateAbbrev>IA</stateAbbrev><state>Iowa</state><fips>107</fips><incits>19107</incits><id>US.IA.107</id><population>10329</population></desc></path><path d="M235.074626866,246.044776119 L236.119402985,208.432835821 L236.119402985,181.268656716 L287.313432836,181.268656716 L287.313432836,208.432835821 L287.313432836,246.044776119 L235.074626866,246.044776119 Z" fill="#cee3f5" id="US.IA.109" stroke="#6e6e6e" stroke-width="0.4"><desc><name>Kossuth County</name><stateAbbrev>IA</stateAbbrev><state>Iowa</state><fips>109</fips><incits>19109</incits><id>US.IA.109</id><population>15321</population></desc></path><path d="M405.373134328,435.149253731 L405.373134328,397.537313433 L417.910447761,396.492537313 L455.52238806,397.537313433 L455.52238806,434.104477612 L430.447761194,435.149253731 L405.373134328,435.149253731 Z" fill="#cee3f5" id="US.IA.123" stroke="#6e6e6e" stroke-width="0.4"><desc><name>Mahaska County</name><stateAbbrev>IA</stateAbbrev><state>Iowa</state><fips>123</fips><incits>19123</incits><id>US.IA.123</id><population>22417</population></desc></path><path d="M416.865671642,358.880597015 L468.059701493,358.880597015 L467.014925373,396.492537313 L455.52238806,397.537313433 L417.910447761,396.492537313 L416.865671642,387.089552239 L416.865671642,358.880597015 Z" fill="#cee3f5" id="US.IA.157" stroke="#6e6e6e" stroke-width="0.4"><desc><name>Poweshiek County</name><stateAbbrev>IA</stateAbbrev><state>Iowa</state><fips>157</fips><incits>19157</incits><id>US.IA.157</id><population>18601</population></desc></path><path d="M505.671641791,396.492537313 L518.208955224,396.492537313 L550.597014925,397.537313433 L555.820895522,405.895522388 L555.820895522,434.104477612 L530.746268657,434.104477612 L505.671641791,434.104477612 L505.671641791,396.492537313 Z" fill="#cee3f5" id="US.IA.183" stroke="#6e6e6e" stroke-width="0.4"><desc><name>Washington County</name><stateAbbrev>IA</stateAbbrev><state>Iowa</state><fips>183</fips><incits>19183</incits><id>US.IA.183</id><population>22015</population></desc></path><path d="M568.358208955,405.895522388 L568.358208955,387.089552239 L618.507462687,387.089552239 L631.044776119,387.089552239 L631.044776119,402.76119403 L602.835820896,407.985074627 L600.746268657,416.343283582 L568.358208955,415.298507463 L568.358208955,405.895522388 Z" fill="#cee3f5" id="US.IA.139" stroke="#6e6e6e" stroke-width="0.4"><desc><name>Muscatine County</name><stateAbbrev>IA</stateAbbrev><state>Iowa</state><fips>139</fips><incits>19139</incits><id>US.IA.139</id><population>42836</population></desc></path><path d="M568.358208955,358.880597015 L568.358208955,349.47761194 L618.507462687,349.47761194 L618.507462687,368.28358209 L618.507462687,387.089552239 L568.358208955,387.089552239 L568.358208955,358.880597015 Z" fill="#cee3f5" id="US.IA.031" stroke="#6e6e6e" stroke-width="0.4"><desc><name>Cedar County</name><stateAbbrev>IA</stateAbbrev><state>Iowa</state><fips>031</fips><incits>19031</incits><id>US.IA.031</id><population>18393</population></desc></path><path d="M618.507462687,368.28358209 L618.507462687,349.47761194 L618.507462687,340.074626866 L698.955223881,340.074626866 L700.0,353.656716418 L695.820895522,365.149253731 L682.23880597,373.507462687 L671.791044776,372.462686567 L664.47761194,368.28358209 L643.582089552,369.328358209 L636.268656716,372.462686567 L631.044776119,368.28358209 L618.507462687,368.28358209 Z" fill="#cee3f5" id="US.IA.045" stroke="#6e6e6e" stroke-width="0.4"><desc><name>Clinton County</name><stateAbbrev>IA</stateAbbrev><state>Iowa</state><fips>045</fips><incits>19045</incits><id>US.IA.045</id><population>48420</population></desc></path><path d="M618.507462687,311.865671642 L643.582089552,311.865671642 L643.582089552,302.462686567 L664.47761194,302.462686567 L670.746268657,308.731343284 L673.880597015,319.179104478 L693.731343284,327.537313433 L698.955223881,331.71641791 L698.955223881,340.074626866 L618.507462687,340.074626866 L618.507462687,311.865671642 Z" fill="#cee3f5" id="US.IA.097" stroke="#6e6e6e" stroke-width="0.4"><desc><name>Jackson County</name><stateAbbrev>IA</stateAbbrev><state>Iowa</state><fips>097</fips><incits>19097</incits><id>US.IA.097</id><population>19587</population></desc></path><path d="M618.507462687,387.089552239 L618.507462687,368.28358209 L631.044776119,368.28358209 L636.268656716,372.462686567 L643.582089552,369.328358209 L664.47761194,368.28358209 L671.791044776,372.462686567 L682.23880597,373.507462687 L679.104477612,388.134328358 L666.567164179,395.447761194 L657.164179104,395.447761194 L645.671641791,401.71641791 L631.044776119,402.76119403 L631.044776119,387.089552239 L618.507462687,387.089552239 Z" fill="#cee3f5" id="US.IA.163" stroke="#6e6e6e" stroke-width="0.4"><desc><name>Scott County</name><stateAbbrev>IA</stateAbbrev><state>Iowa</state><fips>163</fips><incits>19163</incits><id>US.IA.163</id><population>170385</population></desc></path><path d="M542.23880597,181.268656716 L584.029850746,181.268656716 L582.985074627,186.492537313 L586.119402985,197.985074627 L594.47761194,200.074626866 L601.791044776,208.432835821 L589.253731343,222.014925373 L589.253731343,227.23880597 L542.23880597,227.23880597 L542.23880597,181.268656716 Z" fill="#cee3f5" id="US.IA.005" stroke="#6e6e6e" stroke-width="0.4"><desc><name>Allamakee County</name><stateAbbrev>IA</stateAbbrev><state>Iowa</state><fips>005</fips><incits>19005</incits><id>US.IA.005</id><population>14169</population></desc></path><path d="M542.23880597,274.253731343 L542.23880597,227.23880597 L589.253731343,227.23880597 L592.388059701,246.044776119 L597.611940299,248.134328358 L602.835820896,263.805970149 L619.552238806,271.119402985 L619.552238806,274.253731343 L593.432835821,274.253731343 L542.23880597,274.253731343 Z" fill="#cee3f5" id="US.IA.043" stroke="#6e6e6e" stroke-width="0.4"><desc><name>Clayton County</name><stateAbbrev>IA</stateAbbrev><state>Iowa</state><fips>043</fips><incits>19043</incits><id>US.IA.043</id><population>17773</population></desc></path><path d="M491.044776119,212.611940299 L491.044776119,181.268656716 L542.23880597,181.268656716 L542.23880597,227.23880597 L491.044776119,227.23880597 L491.044776119,212.611940299 Z" fill="#cee3f5" id="US.IA.191" stroke="#6e6e6e" stroke-width="0.4"><desc><name>Winneshiek County</name><stateAbbrev>IA</stateAbbrev><state>Iowa</state><fips>191</fips><incits>19191</incits><id>US.IA.191</id><population>20994</population></desc></path><path d="M468.059701493,311.865671642 L493.134328358,311.865671642 L518.208955224,311.865671642 L518.208955224,358.880597015 L468.059701493,358.880597015 L468.059701493,311.865671642 Z" fill="#cee3f5" id="US.IA.011" stroke="#6e6e6e" stroke-width="0.4"><desc><name>Benton County</name><stateAbbrev>IA</stateAbbrev><state>Iowa</state><fips>011</fips><incits>19011</incits><id>US.IA.011</id><population>25699</population></desc></path><path d="M439.850746269,274.253731343 L491.044776119,274.253731343 L491.044776119,293.059701493 L493.134328358,311.865671642 L468.059701493,311.865671642 L441.940298507,311.865671642 L441.940298507,293.059701493 L439.850746269,283.656716418 L439.850746269,283.656716418 L439.850746269,274.253731343 Z" fill="#cee3f5" id="US.IA.013" stroke="#6e6e6e" stroke-width="0.4"><desc><name>Black Hawk County</name><stateAbbrev>IA</stateAbbrev><state>Iowa</state><fips>013</fips><incits>19013</incits><id>US.IA.013</id><population>132546</population></desc></path><path d="M439.850746269,274.253731343 L439.850746269,246.044776119 L491.044776119,246.044776119 L491.044776119,274.253731343 L439.850746269,274.253731343 Z" fill="#cee3f5" id="US.IA.017" stroke="#6e6e6e" stroke-width="0.4"><desc><name>Bremer County</name><stateAbbrev>IA</stateAbbrev><state>Iowa</state><fips>017</fips><incits>19017</incits><id>US.IA.017</id><population>24624</population></desc></path><path d="M491.044776119,274.253731343 L542.23880597,274.253731343 L543.28358209,311.865671642 L518.208955224,311.865671642 L493.134328358,311.865671642 L491.044776119,293.059701493 L491.044776119,274.253731343 Z" fill="#cee3f5" id="US.IA.019" stroke="#6e6e6e" stroke-width="0.4"><desc><name>Buchanan County</name><stateAbbrev>IA</stateAbbrev><state>Iowa</state><fips>019</fips><incits>19019</incits><id>US.IA.019</id><population>20976</population></desc></path><path d="M388.656716418,283.656716418 L388.656716418,246.044776119 L439.850746269,246.044776119 L439.850746269,274.253731343 L439.850746269,283.656716418 L439.850746269,283.656716418 L388.656716418,283.656716418 Z" fill="#cee3f5" id="US.IA.023" stroke="#6e6e6e" stroke-width="0.4"><desc><name>Butler County</name><stateAbbrev>IA</stateAbbrev><state>Iowa</state><fips>023</fips><incits>19023</incits><id>US.IA.023</id><population>15021</population></desc></path><path d="M337.462686567,246.044776119 L338.507462687,208.432835821 L389.701492537,208.432835821 L388.656716418,212.611940299 L388.656716418,246.044776119 L337.462686567,246.044776119 Z" fill="#cee3f5" id="US.IA.033" stroke="#6e6e6e" stroke-width="0.4"><desc><name>Cerro Gordo County</name><stateAbbrev>IA</stateAbbrev><state>Iowa</state><fips>033</fips><incits>19033</incits><id>US.IA.033</id><population>43575</population></desc></path><path d="M439.850746269,212.611940299 L491.044776119,212.611940299 L491.044776119,227.23880597 L491.044776119,246.044776119 L439.850746269,246.044776119 L439.850746269,212.611940299 Z" fill="#cee3f5" id="US.IA.037" stroke="#6e6e6e" stroke-width="0.4"><desc><name>Chickasaw County</name><stateAbbrev>IA</stateAbbrev><state>Iowa</state><fips>037</fips><incits>19037</incits><id>US.IA.037</id><population>12321</population></desc></path><path d="M542.23880597,274.253731343 L593.432835821,274.253731343 L594.47761194,311.865671642 L568.358208955,311.865671642 L543.28358209,311.865671642 L542.23880597,274.253731343 Z" fill="#cee3f5" id="US.IA.055" stroke="#6e6e6e" stroke-width="0.4"><desc><name>Delaware County</name><stateAbbrev>IA</stateAbbrev><state>Iowa</state><fips>055</fips><incits>19055</incits><id>US.IA.055</id><population>17534</population></desc></path><path d="M491.044776119,246.044776119 L491.044776119,227.23880597 L542.23880597,227.23880597 L542.23880597,274.253731343 L491.044776119,274.253731343 L491.044776119,246.044776119 Z" fill="#cee3f5" id="US.IA.065" stroke="#6e6e6e" stroke-width="0.4"><desc><name>Fayette County</name><stateAbbrev>IA</stateAbbrev><state>Iowa</state><fips>065</fips><incits>19065</incits><id>US.IA.065</id><population>20502</population></desc></path><path d="M388.656716418,246.044776119 L388.656716418,212.611940299 L439.850746269,212.611940299 L439.850746269,246.044776119 L388.656716418,246.044776119 Z" fill="#cee3f5" id="US.IA.067" stroke="#6e6e6e" stroke-width="0.4"><desc><name>Floyd County</name><stateAbbrev>IA</stateAbbrev><state>Iowa</state><fips>067</fips><incits>19067</incits><id>US.IA.067</id><population>16092</population></desc></path><path d="M337.462686567,246.044776119 L388.656716418,246.044776119 L388.656716418,283.656716418 L337.462686567,283.656716418 L337.462686567,246.044776119 Z" fill="#cee3f5" id="US.IA.069" stroke="#6e6e6e" stroke-width="0.4"><desc><name>Franklin County</name><stateAbbrev>IA</stateAbbrev><state>Iowa</state><fips>069</fips><incits>19069</incits><id>US.IA.069</id><population>10548</population></desc></path><path d="M388.656716418,283.656716418 L439.850746269,283.656716418 L441.940298507,293.059701493 L441.940298507,311.865671642 L416.865671642,311.865671642 L416.865671642,321.268656716 L391.791044776,321.268656716 L391.791044776,293.059701493 L388.656716418,283.656716418 Z" fill="#cee3f5" id="US.IA.075" stroke="#6e6e6e" stroke-width="0.4"><desc><name>Grundy County</name><stateAbbrev>IA</stateAbbrev><state>Iowa</state><fips>075</fips><incits>19075</incits><id>US.IA.075</id><population>12314</population></desc></path><path d="M286.268656716,283.656716418 L337.462686567,283.656716418 L341.641791045,293.059701493 L341.641791045,321.268656716 L316.567164179,321.268656716 L291.492537313,321.268656716 L291.492537313,293.059701493 L286.268656716,283.656716418 Z" fill="#cee3f5" id="US.IA.079" stroke="#6e6e6e" stroke-width="0.4"><desc><name>Hamilton County</name><stateAbbrev>IA</stateAbbrev><state>Iowa</state><fips>079</fips><incits>19079</incits><id>US.IA.079</id><population>15312</population></desc></path><path d="M287.313432836,208.432835821 L338.507462687,208.432835821 L337.462686567,246.044776119 L287.313432836,246.044776119 L287.313432836,208.432835821 Z" fill="#cee3f5" id="US.IA.081" stroke="#6e6e6e" stroke-width="0.4"><desc><name>Hancock County</name><stateAbbrev>IA</stateAbbrev><state>Iowa</state><fips>081</fips><incits>19081</incits><id>US.IA.081</id><population>11094</population></desc></path><path d="M337.462686567,283.656716418 L388.656716418,283.656716418 L391.791044776,293.059701493 L391.791044776,321.268656716 L366.71641791,321.268656716 L341.641791045,321.268656716 L341.641791045,293.059701493 L337.462686567,283.656716418 Z" fill="#cee3f5" id="US.IA.083" stroke="#6e6e6e" stroke-width="0.4"><desc><name>Hardin County</name><stateAbbrev>IA</stateAbbrev><state>Iowa</state><fips>083</fips><incits>19083</incits><id>US.IA.083</id><population>17441</population></desc></path><path d="M439.850746269,181.268656716 L491.044776119,181.268656716 L491.044776119,212.611940299 L439.850746269,212.611940299 L439.850746269,181.268656716 Z" fill="#cee3f5" id="US.IA.089" stroke="#6e6e6e" stroke-width="0.4"><desc><name>Howard County</name><stateAbbrev>IA</stateAbbrev><state>Iowa</state><fips>089</fips><incits>19089</incits><id>US.IA.089</id><population>9526</population></desc></path><path d="M568.358208955,349.47761194 L568.358208955,311.865671642 L594.47761194,311.865671642 L618.507462687,311.865671642 L618.507462687,340.074626866 L618.507462687,349.47761194 L568.358208955,349.47761194 Z" fill="#cee3f5" id="US.IA.105" stroke="#6e6e6e" stroke-width="0.4"><desc><name>Jones County</name><stateAbbrev>IA</stateAbbrev><state>Iowa</state><fips>105</fips><incits>19105</incits><id>US.IA.105</id><population>20611</population></desc></path><path d="M518.208955224,311.865671642 L543.28358209,311.865671642 L568.358208955,311.865671642 L568.358208955,349.47761194 L568.358208955,358.880597015 L518.208955224,358.880597015 L518.208955224,311.865671642 Z" fill="#cee3f5" id="US.IA.113" stroke="#6e6e6e" stroke-width="0.4"><desc><name>Linn County</name><stateAbbrev>IA</stateAbbrev><state>Iowa</state><fips>113</fips><incits>19113</incits><id>US.IA.113</id><population>216111</population></desc></path><path d="M388.656716418,212.611940299 L389.701492537,208.432835821 L389.701492537,181.268656716 L439.850746269,181.268656716 L439.850746269,212.611940299 L388.656716418,212.611940299 Z" fill="#cee3f5" id="US.IA.131" stroke="#6e6e6e" stroke-width="0.4"><desc><name>Mitchell County</name><stateAbbrev>IA</stateAbbrev><state>Iowa</state><fips>131</fips><incits>19131</incits><id>US.IA.131</id><population>10709</population></desc></path><path d="M441.940298507,311.865671642 L468.059701493,311.865671642 L468.059701493,358.880597015 L416.865671642,358.880597015 L416.865671642,321.268656716 L416.865671642,311.865671642 L441.940298507,311.865671642 Z" fill="#cee3f5" id="US.IA.171" stroke="#6e6e6e" stroke-width="0.4"><desc><name>Tama County</name><stateAbbrev>IA</stateAbbrev><state>Iowa</state><fips>171</fips><incits>19171</incits><id>US.IA.171</id><population>17576</population></desc></path><path d="M287.313432836,181.268656716 L338.507462687,181.268656716 L338.507462687,208.432835821 L287.313432836,208.432835821 L287.313432836,181.268656716 Z" fill="#cee3f5" id="US.IA.189" stroke="#6e6e6e" stroke-width="0.4"><desc><name>Winnebago County</name><stateAbbrev>IA</stateAbbrev><state>Iowa</state><fips>189</fips><incits>19189</incits><id>US.IA.189</id><population>10554</population></desc></path><path d="M338.507462687,208.432835821 L338.507462687,181.268656716 L389.701492537,181.268656716 L389.701492537,208.432835821 L338.507462687,208.432835821 Z" fill="#cee3f5" id="US.IA.195" stroke="#6e6e6e" stroke-width="0.4"><desc><name>Worth County</name><stateAbbrev>IA</stateAbbrev><state>Iowa</state><fips>195</fips><incits>19195</incits><id>US.IA.195</id><population>7541</population></desc></path><path d="M286.268656716,260.671641791 L287.313432836,246.044776119 L337.462686567,246.044776119 L337.462686567,283.656716418 L286.268656716,283.656716418 L286.268656716,274.253731343 L286.268656716,261.71641791 L286.268656716,260.671641791 Z" fill="#cee3f5" id="US.IA.197" stroke="#6e6e6e" stroke-width="0.4"><desc><name>Wright County</name><stateAbbrev>IA</stateAbbrev><state>Iowa</state><fips>197</fips><incits>19197</incits><id>US.IA.197</id><population>12972</population></desc></path></svg>