<?xml version='1.0' encoding='utf-8'?>
<svg height="700" width="700" xmlns="http://www.w3.org/2000/svg"><path d="M529.287305122,648.55233853 L520.712694878,643.875278396 L519.933184855,640.757238307 L527.728285078,643.875278396 L529.287305122,648.55233853 M358.574610245,639.977728285 L352.338530067,642.316258352 L355.456570156,638.418708241 L358.574610245,639.977728285 M295.434298441,604.899777283 L291.53674833,608.017817372 L293.095768374,601.781737194 L295.434298441,604.899777283 M261.915367483,594.766146993 L263.474387528,596.325167038 L258.797327394,597.10467706 L261.915367483,594.766146993 M378.062360802,583.853006682 L383.518930958,586.191536748 L374.16481069,585.412026726 L378.062360802,583.853006682 M313.363028953,524.610244989 L313.363028953,527.728285078 L307.126948775,528.5077951 L310.244988864,523.051224944 L313.363028953,524.610244989 M277.505567929,487.19376392 L272.048997773,482.516703786 L274.38752784,481.737193764 L277.505567929,487.19376392 M258.797327394,486.414253898 L254.120267261,479.398663697 L260.356347439,484.075723831 L258.797327394,486.414253898 M242.427616927,461.469933185 L245.545657016,461.469933185 L252.561247216,471.603563474 L248.663697105,470.04454343 L240.868596882,459.91091314 L242.427616927,461.469933185 M191.759465479,430.289532294 L182.405345212,422.494432071 L181.625835189,417.817371938 L191.759465479,430.289532294 M183.184855234,378.841870824 L190.200445434,382.739420935 L187.082405345,383.518930958 L183.964365256,381.180400891 L180.066815145,382.739420935 L176.169265033,378.062360802 L176.948775056,375.723830735 L183.184855234,378.841870824 M140.311804009,371.046770601 L136.414253898,369.487750557 L133.296213808,363.251670379 L134.075723831,360.913140312 L137.973273942,362.472160356 L140.311804009,371.046770601 M168.374164811,361.692650334 L169.153674833,363.251670379 L160.579064588,353.897550111 L168.374164811,361.692650334 M91.2026726058,343.763919822 L89.6436525612,345.322939866 L88.0846325167,341.425389755 L91.2026726058,343.763919822 M25.723830735,271.269487751 L29.6213808463,275.167037862 L26.5033407572,278.285077951 L25.723830735,271.269487751 M155.122494432,279.844097996 L155.902004454,281.40311804 L148.886414254,277.505567929 L148.106904232,273.608017817 L155.122494432,279.844097996 M121.603563474,268.151447661 L114.587973274,264.25389755 L119.265033408,264.25389755 L121.603563474,268.151447661 Z" fill="#cee3f5" id="HR.5926" stroke="#6e6e6e" stroke-width="0.4"><desc><labelrank>20</labelrank><code_hasc>-99</code_hasc><name /><admin>Croatia</admin><type_en /><region /><woe_id>-99</woe_id><longitude>16</longitude><woe_name /><fips /><woe_label /><latitude>42</latitude><iso_a2>HR</iso_a2><postal /><type /><id>HR.5926</id></desc></path><path d="M407.683741648,638.418708241 L406.904231626,643.875278396 L402.227171492,645.434298441 L398.329621381,643.875278396 L394.432071269,644.654788419 L394.432071269,639.977728285 L392.093541203,639.977728285 L398.329621381,636.859688196 L407.683741648,638.418708241 M463.028953229,633.741648107 L476.280623608,636.080178174 L489.532293987,643.095768374 L498.106904232,642.316258352 L509.020044543,650.890868597 L463.808463252,638.418708241 L462.249443207,639.977728285 L456.013363029,635.300668151 L463.028953229,633.741648107 M387.416481069,604.899777283 L400.668151448,606.458797327 L420.155902004,603.340757238 L432.628062361,604.899777283 L440.423162584,613.474387528 L412.360801782,612.694877506 L397.550111359,617.371937639 L371.046770601,611.135857461 L379.621380846,606.458797327 L370.267260579,603.340757238 L373.385300668,601.781737194 L387.416481069,604.899777283 M422.494432071,595.545657016 L445.879732739,596.325167038 L463.808463252,603.340757238 L472.383073497,609.576837416 L473.162583519,612.694877506 L484.855233853,614.25389755 L507.461024499,625.946547884 L502.783964365,621.269487751 L503.563474388,618.151447661 L496.547884187,618.151447661 L498.106904232,615.033407572 L502.783964365,612.694877506 L512.917594655,615.812917595 L516.035634744,614.25389755 L522.271714922,629.844097996 L527.728285078,632.182628062 L539.420935412,642.316258352 L568.262806236,661.024498886 L594.766146993,671.937639198 L594.766146993,682.85077951 L601.781737194,691.425389755 L602.561247216,695.322939866 L569.821826281,671.937639198 L567.483296214,661.804008909 L549.554565702,657.126948775 L545.65701559,648.55233853 L543.318485523,650.890868597 L527.728285078,640.757238307 L525.389755011,637.639198218 L526.948775056,634.521158129 L516.035634744,630.623608018 L512.917594655,632.962138085 L505.122494432,628.285077951 L510.579064588,636.080178174 L509.020044543,637.639198218 L505.902004454,632.962138085 L470.824053452,621.269487751 L470.824053452,616.592427617 L467.706013363,615.033407572 L459.131403118,612.694877506 L441.982182628,603.340757238 L421.714922049,601.002227171 L416.258351893,591.648106904 L422.494432071,595.545657016 M471.603563474,575.278396437 L487.973273942,585.412026726 L493.429844098,591.648106904 L498.106904232,604.899777283 L487.973273942,609.576837416 L481.737193764,608.017817372 L474.721603563,599.443207127 L477.839643653,594.766146993 L469.265033408,597.10467706 L472.383073497,594.766146993 L469.265033408,593.986636971 L468.485523385,588.530066815 L465.367483296,590.868596882 L460.690423163,586.971046771 L466.146993318,583.073496659 L458.351893096,576.057906459 L459.131403118,573.719376392 L466.146993318,576.057906459 L471.603563474,575.278396437 Z" fill="#cee3f5" id="HR.DN" stroke="#6e6e6e" stroke-width="0.4"><desc><labelrank>9</labelrank><code_hasc>HR.DN</code_hasc><name>Dubrovacko-Neretvanska</name><admin>Croatia</admin><type_en>County</type_en><region /><woe_id>12577973</woe_id><longitude>16</longitude><woe_name>Dubrovačko-neretvanska</woe_name><fips>HR03</fips><woe_label /><latitude>42</latitude><iso_a2>HR</iso_a2><postal>DN</postal><type>Županija</type><id>HR.DN</id></desc></path><path d="M254.120267261,491.091314031 L261.915367483,494.988864143 L253.340757238,492.650334076 L244.766146993,486.414253898 L251.002227171,487.19376392 L254.120267261,491.091314031 M216.703786192,466.926503341 L219.821826281,470.04454343 L209.688195991,463.808463252 L199.554565702,452.115812918 L201.113585746,451.336302895 L216.703786192,466.926503341 M335.968819599,445.100222717 L335.189309577,452.115812918 L346.102449889,463.028953229 L335.968819599,470.824053452 L335.968819599,480.178173719 L322.71714922,487.973273942 L313.363028953,485.634743875 L304.788418708,496.547884187 L299.331848552,498.886414254 L303.229398664,509.020044543 L297.772828508,511.35857461 L300.111358575,514.476614699 L294.654788419,516.035634744 L288.418708241,515.256124722 L291.53674833,509.020044543 L288.418708241,509.799554566 L282.962138085,504.34298441 L283.741648107,494.988864143 L289.198218263,492.650334076 L281.40311804,491.091314031 L287.639198218,491.091314031 L285.300668151,487.973273942 L287.639198218,484.855233853 L286.080178174,483.296213808 L285.300668151,486.414253898 L268.151447661,473.162583519 L258.017817372,471.603563474 L254.899777283,466.146993318 L247.10467706,461.469933185 L254.120267261,462.249443207 L238.530066815,452.89532294 L241.648106904,448.997772829 L248.663697105,455.233853007 L254.899777283,450.556792873 L261.915367483,454.454342984 L267.371937639,446.659242762 L267.371937639,441.202672606 L278.285077951,444.320712695 L282.182628062,447.438752784 L293.875278396,440.423162584 L297.772828508,430.289532294 L304.788418708,430.289532294 L311.024498886,426.391982183 L314.142538976,445.100222717 L321.937639198,445.879732739 L332.85077951,442.76169265 L335.968819599,445.100222717 Z" fill="#cee3f5" id="HR.SB" stroke="#6e6e6e" stroke-width="0.4"><desc><labelrank>9</labelrank><code_hasc>HR.SB</code_hasc><name>Šibensko-Kninska</name><admin>Croatia</admin><type_en>County</type_en><region /><woe_id>12577983</woe_id><longitude>16</longitude><woe_name>Šibensko-Kninska</woe_name><fips>HR13</fips><woe_label>Sibenska, HR, Croatia</woe_label><latitude>43</latitude><iso_a2>HR</iso_a2><postal>SB</postal><type>Županija</type><id>HR.SB</id></desc></path><path d="M316.481069042,587.750556793 L324.276169265,588.530066815 L318.819599109,594.766146993 L300.890868597,597.10467706 L303.229398664,593.207126949 L300.111358575,588.530066815 L308.68596882,585.412026726 L316.481069042,587.750556793 M361.692650334,562.026726058 L374.16481069,564.365256125 L381.959910913,572.93986637 L399.109131403,572.160356347 L439.643652561,578.396436526 L374.944320713,579.175946548 L338.307349666,567.483296214 L353.897550111,563.585746102 L364.810690423,569.042316258 L357.0155902,562.026726058 L361.692650334,562.026726058 M392.093541203,542.538975501 L395.211581292,542.538975501 L402.227171492,547.995545657 L392.873051225,555.79064588 L362.472160356,555.011135857 L342.9844098,544.877505568 L345.322939866,545.65701559 L348.440979955,540.979955457 L345.322939866,533.964365256 L347.661469933,533.964365256 L377.28285078,537.082405345 L392.093541203,540.979955457 L392.093541203,542.538975501 M329.732739421,532.405345212 L341.425389755,542.538975501 L339.086859688,544.097995546 L318.819599109,535.523385301 L318.040089087,532.405345212 L329.732739421,532.405345212 M334.409799555,516.035634744 L339.086859688,518.374164811 L318.819599109,518.374164811 L325.83518931,514.476614699 L334.409799555,516.035634744 M471.603563474,575.278396437 L466.146993318,576.057906459 L459.131403118,573.719376392 L458.351893096,576.057906459 L466.146993318,583.073496659 L460.690423163,586.971046771 L454.454342984,578.396436526 L424.832962138,560.467706013 L421.714922049,553.452115813 L400.668151448,532.405345212 L369.487750557,525.389755011 L357.0155902,514.476614699 L341.425389755,514.476614699 L350.779510022,509.799554566 L349.220489978,509.020044543 L334.409799555,508.240534521 L322.71714922,512.138084633 L307.906458797,512.138084633 L314.142538976,518.374164811 L307.126948775,518.374164811 L307.126948775,519.933184855 L294.654788419,516.035634744 L300.111358575,514.476614699 L297.772828508,511.35857461 L303.229398664,509.020044543 L299.331848552,498.886414254 L304.788418708,496.547884187 L313.363028953,485.634743875 L322.71714922,487.973273942 L335.968819599,480.178173719 L335.968819599,470.824053452 L346.102449889,463.028953229 L335.189309577,452.115812918 L335.968819599,445.100222717 L342.204899777,445.879732739 L350.779510022,438.864142539 L357.795100223,438.084632517 L375.723830735,459.131403118 L380.400890869,470.824053452 L419.376391982,508.240534521 L432.628062361,517.594654788 L448.218262806,522.271714922 L450.556792873,526.169265033 L448.218262806,540.979955457 L451.336302895,548.775055679 L464.587973274,563.585746102 L471.603563474,575.278396437 Z" fill="#cee3f5" id="HR.SD" stroke="#6e6e6e" stroke-width="0.4"><desc><labelrank>9</labelrank><code_hasc>HR.SD</code_hasc><name>Splitsko-Dalmatinska</name><admin>Croatia</admin><type_en>County</type_en><region /><woe_id>12577985</woe_id><longitude>16</longitude><woe_name>Splitsko-Dalmatinska</woe_name><fips>HR15</fips><woe_label>Splitsko-Dalmatinska, HR, Croatia</woe_label><latitude>43</latitude><iso_a2>HR</iso_a2><postal>SD</postal><type>Županija</type><id>HR.SD</id></desc></path><path d="M226.057906459,448.997772829 L226.057906459,450.556792873 L215.924276169,445.100222717 L204.231625835,429.510022272 L219.042316258,436.525612472 L226.057906459,448.997772829 M200.334075724,420.155902004 L203.452115813,428.730512249 L199.554565702,422.494432071 L195.65701559,423.273942094 L187.861915367,415.478841871 L180.846325167,408.46325167 L180.846325167,403.786191537 L200.334075724,420.155902004 M152.783964365,405.345211581 L157.461024499,406.904231626 L152.783964365,406.904231626 L151.224944321,402.227171492 L152.783964365,405.345211581 M170.712694878,415.478841871 L173.830734967,415.478841871 L176.169265033,424.832962138 L183.184855234,432.628062361 L198.775055679,445.879732739 L195.65701559,448.997772829 L188.64142539,444.320712695 L195.65701559,452.89532294 L185.523385301,443.541202673 L173.051224944,421.714922049 L157.461024499,406.904231626 L155.122494432,400.668151448 L170.712694878,415.478841871 M144.988864143,385.857461024 L141.870824053,384.29844098 L143.429844098,381.180400891 L148.106904232,384.29844098 L144.988864143,385.857461024 M150.445434298,371.826280624 L144.20935412,369.487750557 L144.988864143,360.913140312 L150.445434298,362.472160356 L150.445434298,371.826280624 M357.795100223,438.084632517 L350.779510022,438.864142539 L342.204899777,445.879732739 L335.968819599,445.100222717 L332.85077951,442.76169265 L321.937639198,445.879732739 L314.142538976,445.100222717 L311.024498886,426.391982183 L304.788418708,430.289532294 L297.772828508,430.289532294 L293.875278396,440.423162584 L282.182628062,447.438752784 L278.285077951,444.320712695 L267.371937639,441.202672606 L267.371937639,446.659242762 L261.915367483,454.454342984 L254.899777283,450.556792873 L248.663697105,455.233853007 L241.648106904,448.997772829 L238.530066815,452.89532294 L234.632516704,446.659242762 L227.616926503,443.541202673 L190.200445434,398.329621381 L191.759465479,391.31403118 L186.302895323,386.636971047 L190.200445434,383.518930958 L194.877505568,388.975501114 L198.775055679,385.857461024 L195.65701559,383.518930958 L197.995545657,383.518930958 L197.216035635,380.400890869 L208.908685969,388.975501114 L207.349665924,383.518930958 L209.688195991,381.180400891 L205.011135857,375.723830735 L222.93986637,385.857461024 L236.971046771,388.195991091 L235.412026726,385.077951002 L227.616926503,383.518930958 L223.719376392,378.841870824 L208.908685969,370.267260579 L215.144766147,362.472160356 L222.93986637,368.708240535 L233.853006682,370.267260579 L239.309576837,376.503340757 L249.443207127,364.810690423 L250.222717149,360.913140312 L244.766146993,355.456570156 L252.561247216,349.220489978 L241.648106904,334.409799555 L237.750556793,316.481069042 L231.514476615,307.906458797 L246.325167038,299.331848552 L237.750556793,291.53674833 L241.648106904,287.639198218 L243.207126949,284.521158129 L242.427616927,282.182628062 L239.309576837,277.505567929 L239.309576837,276.726057906 L239.309576837,275.946547884 L239.309576837,275.167037862 L239.309576837,275.167037862 L241.648106904,272.828507795 L245.545657016,273.608017817 L247.884187082,275.946547884 L249.443207127,275.946547884 L254.120267261,272.828507795 L254.899777283,272.828507795 L257.23830735,275.167037862 L260.356347439,275.946547884 L262.694877506,275.167037862 L262.694877506,276.726057906 L262.694877506,280.623608018 L267.371937639,289.977728285 L260.356347439,296.993318486 L261.915367483,303.229398664 L271.269487751,314.922048998 L281.40311804,310.244988864 L290.757238307,325.055679287 L297.772828508,327.394209354 L299.331848552,333.630289532 L294.654788419,341.425389755 L297.772828508,344.543429844 L304.008908686,342.204899777 L307.906458797,344.543429844 L313.363028953,362.472160356 L311.024498886,368.708240535 L318.819599109,371.826280624 L316.481069042,385.077951002 L320.378619154,397.550111359 L333.630289532,418.59688196 L338.307349666,422.494432071 L343.763919822,423.273942094 L346.881959911,430.289532294 L357.795100223,438.084632517 Z" fill="#cee3f5" id="HR.ZD" stroke="#6e6e6e" stroke-width="0.4"><desc><labelrank>9</labelrank><code_hasc>HR.ZD</code_hasc><name>Zadarska</name><admin>Croatia</admin><type_en>County</type_en><region /><woe_id>12577989</woe_id><longitude>15</longitude><woe_name>Zadarska</woe_name><fips>HR19</fips><woe_label>Zadarsko-Kninska, HR, Croatia</woe_label><latitude>44</latitude><iso_a2>HR</iso_a2><postal>ZD</postal><type>Županija</type><id>HR.ZD</id></desc></path><path d="M325.83518931,86.5256124722 L318.040089087,86.5256124722 L319.599109131,95.8797327394 L314.922048998,95.8797327394 L315.70155902,98.9977728285 L311.804008909,101.336302895 L291.53674833,111.469933185 L288.418708241,107.572383073 L286.080178174,103.674832962 L275.167037862,98.9977728285 L258.017817372,100.556792873 L260.356347439,89.6436525612 L249.443207127,81.0690423163 L249.443207127,67.8173719376 L256.458797327,60.0222717149 L266.592427617,60.8017817372 L272.828507795,53.7861915367 L282.182628062,53.0066815145 L282.962138085,56.9042316258 L291.53674833,63.9198218263 L314.142538976,64.6993318486 L318.819599109,60.8017817372 L325.055679287,64.6993318486 L325.83518931,86.5256124722 Z" fill="#cee3f5" id="HR.KZ" stroke="#6e6e6e" stroke-width="0.4"><desc><labelrank>9</labelrank><code_hasc>HR.KZ</code_hasc><name>Krapinsko-Zagorska</name><admin>Croatia</admin><type_en>County</type_en><region /><woe_id>12577977</woe_id><longitude>15</longitude><woe_name>Krapinsko-Zagorska</woe_name><fips>SI92</fips><woe_label>Krapinsko-Zagorska, HR, Croatia</woe_label><latitude>46</latitude><iso_a2>HR</iso_a2><postal>KZ</postal><type>Županija</type><id>HR.KZ</id></desc></path><path d="M272.828507795,176.169265033 L276.726057906,186.302895323 L273.608017817,196.436525612 L269.710467706,197.995545657 L261.915367483,193.318485523 L254.899777283,194.097995546 L257.23830735,205.011135857 L254.899777283,208.129175947 L254.899777283,219.042316258 L251.002227171,224.498886414 L251.781737194,228.396436526 L271.269487751,231.514476615 L265.812917595,257.23830735 L266.592427617,268.151447661 L262.694877506,275.167037862 L262.694877506,275.167037862 L261.915367483,275.946547884 L260.356347439,275.946547884 L257.23830735,275.167037862 L254.899777283,272.828507795 L254.120267261,272.828507795 L249.443207127,275.946547884 L247.884187082,275.946547884 L245.545657016,273.608017817 L241.648106904,272.828507795 L239.309576837,275.167037862 L239.309576837,275.167037862 L239.309576837,275.946547884 L239.309576837,276.726057906 L239.309576837,277.505567929 L242.427616927,282.182628062 L243.207126949,284.521158129 L238.530066815,280.623608018 L236.191536748,277.505567929 L230.734966592,276.726057906 L229.95545657,275.167037862 L229.95545657,274.38752784 L228.396436526,270.489977728 L220.601336303,259.576837416 L205.011135857,249.443207127 L198.775055679,242.427616927 L197.995545657,242.427616927 L194.877505568,245.545657016 L190.979955457,245.545657016 L176.948775056,242.427616927 L172.271714922,237.750556793 L172.271714922,236.971046771 L172.271714922,236.191536748 L173.051224944,236.191536748 L173.051224944,235.412026726 L173.830734967,234.632516704 L174.610244989,222.160356347 L173.051224944,216.703786192 L176.169265033,210.467706013 L180.846325167,208.129175947 L187.861915367,211.247216036 L189.420935412,212.80623608 L190.200445434,213.585746102 L190.979955457,213.585746102 L197.995545657,208.129175947 L198.775055679,207.349665924 L198.775055679,205.011135857 L202.672605791,200.334075724 L204.231625835,197.216035635 L204.231625835,195.65701559 L204.231625835,194.877505568 L204.231625835,194.097995546 L204.231625835,191.759465479 L204.231625835,190.979955457 L203.452115813,190.200445434 L215.144766147,187.861915367 L219.821826281,182.405345212 L212.026726058,175.389755011 L208.908685969,162.138084633 L212.80623608,158.240534521 L221.380846325,155.902004454 L219.042316258,151.224944321 L228.396436526,147.327394209 L244.766146993,162.917594655 L249.443207127,159.020044543 L263.474387528,165.256124722 L265.812917595,163.697104677 L265.033407572,170.712694878 L269.710467706,176.948775056 L272.828507795,176.169265033 Z" fill="#cee3f5" id="HR.KA" stroke="#6e6e6e" stroke-width="0.4"><desc><labelrank>9</labelrank><code_hasc>HR.KA</code_hasc><name>Karlovacka</name><admin>Croatia</admin><type_en>County</type_en><region /><woe_id>12577975</woe_id><longitude>15</longitude><woe_name>Karlovacka</woe_name><fips>HR05</fips><woe_label>KarlovaÄka, HR, Croatia</woe_label><latitude>45</latitude><iso_a2>HR</iso_a2><postal>KA</postal><type>Županija</type><id>HR.KA</id></desc></path><path d="M155.902004454,329.732739421 L160.579064588,333.630289532 L159.799554566,328.173719376 L162.917594655,328.173719376 L174.610244989,340.645879733 L179.287305122,342.204899777 L183.184855234,350.0 L163.697104677,337.527839644 L169.933184855,342.9844098 L179.287305122,357.0155902 L185.523385301,361.692650334 L179.287305122,350.779510022 L202.672605791,372.605790646 L204.231625835,374.16481069 L201.893095768,374.944320713 L193.318485523,369.487750557 L199.554565702,374.16481069 L200.334075724,378.841870824 L189.420935412,374.944320713 L194.097995546,381.180400891 L188.64142539,378.841870824 L184.743875278,367.928730512 L187.861915367,366.369710468 L179.287305122,364.810690423 L176.169265033,358.574610245 L161.35857461,348.440979955 L164.476614699,346.102449889 L159.799554566,336.748329621 L142.650334076,311.804008909 L155.902004454,329.732739421 M243.207126949,284.521158129 L241.648106904,287.639198218 L237.750556793,291.53674833 L246.325167038,299.331848552 L231.514476615,307.906458797 L237.750556793,316.481069042 L241.648106904,334.409799555 L252.561247216,349.220489978 L244.766146993,355.456570156 L250.222717149,360.913140312 L249.443207127,364.810690423 L239.309576837,376.503340757 L233.853006682,370.267260579 L222.93986637,368.708240535 L215.144766147,362.472160356 L208.908685969,370.267260579 L183.964365256,340.645879733 L175.389755011,335.189309577 L162.917594655,314.922048998 L160.579064588,289.198218263 L166.035634744,269.710467706 L161.35857461,256.458797327 L162.138084633,252.561247216 L166.815144766,249.443207127 L177.728285078,250.222717149 L179.287305122,246.325167038 L176.948775056,242.427616927 L190.979955457,245.545657016 L194.877505568,245.545657016 L197.995545657,242.427616927 L198.775055679,242.427616927 L205.011135857,249.443207127 L220.601336303,259.576837416 L224.498886414,266.592427617 L228.396436526,270.489977728 L229.95545657,274.38752784 L229.95545657,275.167037862 L230.734966592,276.726057906 L236.191536748,277.505567929 L238.530066815,280.623608018 L243.207126949,284.521158129 Z" fill="#cee3f5" id="HR.LS" stroke="#6e6e6e" stroke-width="0.4"><desc><labelrank>9</labelrank><code_hasc>HR.LS</code_hasc><name>Licko-Senjska</name><admin>Croatia</admin><type_en>County</type_en><region /><woe_id>12577978</woe_id><longitude>15</longitude><woe_name>Licko-Senjska</woe_name><fips>HR08</fips><woe_label>LiÄko-senjska, HR, Croatia</woe_label><latitude>44</latitude><iso_a2>HR</iso_a2><postal>LS</postal><type>Županija</type><id>HR.LS</id></desc></path><path d="M87.3051224944,325.83518931 L82.6280623608,323.496659243 L86.5256124722,314.922048998 L87.3051224944,325.83518931 M103.674832962,328.173719376 L117.706013363,348.440979955 L112.249443207,345.322939866 L105.233853007,332.85077951 L97.438752784,332.85077951 L100.556792873,328.173719376 L95.1002227171,308.68596882 L102.115812918,314.142538976 L103.674832962,328.173719376 M145.768374165,288.418708241 L144.20935412,292.316258352 L153.563474388,300.890868597 L156.681514477,312.583518931 L144.20935412,299.331848552 L145.768374165,303.229398664 L138.752783964,301.670378619 L134.075723831,296.213808463 L139.532293987,296.993318486 L138.752783964,293.875278396 L142.650334076,296.213808463 L137.19376392,287.639198218 L145.768374165,288.418708241 M112.249443207,268.930957684 L109.91091314,274.38752784 L109.131403118,295.434298441 L111.469933185,310.244988864 L118.485523385,323.496659243 L116.146993318,325.83518931 L111.469933185,325.055679287 L106.013363029,318.819599109 L102.115812918,310.244988864 L102.89532294,303.229398664 L98.9977728285,301.670378619 L98.9977728285,292.316258352 L95.1002227171,289.198218263 L91.2026726058,276.726057906 L91.9821826281,270.489977728 L102.115812918,276.726057906 L102.89532294,268.151447661 L105.233853007,268.930957684 L90.4231625835,241.648106904 L94.3207126949,232.293986637 L99.7772828508,233.073496659 L102.89532294,254.899777283 L106.013363029,261.915367483 L112.249443207,264.25389755 L112.249443207,268.930957684 M124.721603563,219.821826281 L128.619153675,222.160356347 L131.737193764,232.293986637 L128.619153675,233.853006682 L136.414253898,234.632516704 L136.414253898,247.10467706 L144.988864143,250.222717149 L144.988864143,254.899777283 L152.004454343,261.915367483 L153.563474388,266.592427617 L147.327394209,265.812917595 L146.547884187,271.269487751 L140.311804009,271.269487751 L130.957683742,265.812917595 L130.957683742,254.120267261 L128.619153675,255.679287305 L130.178173719,258.017817372 L117.706013363,256.458797327 L107.572383073,247.10467706 L112.249443207,244.766146993 L113.808463252,240.08908686 L120.04454343,239.309576837 L123.162583519,224.498886414 L120.824053452,222.160356347 L124.721603563,219.821826281 M176.948775056,242.427616927 L179.287305122,246.325167038 L177.728285078,250.222717149 L166.815144766,249.443207127 L162.138084633,252.561247216 L161.35857461,256.458797327 L157.461024499,244.766146993 L135.634743875,229.175946548 L126.280623608,217.483296214 L125.501113586,212.80623608 L121.603563474,208.908685969 L123.942093541,212.026726058 L120.824053452,214.365256125 L98.9977728285,201.893095768 L92.7616926503,207.349665924 L84.9665924276,234.632516704 L84.9665924276,234.632516704 L84.9665924276,234.632516704 L82.6280623608,233.853006682 L81.8485523385,233.073496659 L81.0690423163,231.514476615 L81.0690423163,230.734966592 L81.0690423163,229.175946548 L81.8485523385,227.616926503 L81.8485523385,223.719376392 L81.0690423163,214.365256125 L81.0690423163,211.247216036 L81.0690423163,210.467706013 L82.6280623608,207.349665924 L83.4075723831,205.79064588 L83.4075723831,204.231625835 L82.6280623608,202.672605791 L81.8485523385,197.216035635 L81.8485523385,195.65701559 L81.8485523385,194.877505568 L82.6280623608,194.097995546 L82.6280623608,192.538975501 L82.6280623608,192.538975501 L81.0690423163,191.759465479 L74.8329621381,187.861915367 L74.0534521158,186.302895323 L73.2739420935,184.743875278 L72.4944320713,183.184855234 L72.4944320713,180.846325167 L84.9665924276,176.948775056 L97.438752784,181.625835189 L107.572383073,178.5077951 L114.587973274,173.051224944 L118.485523385,161.35857461 L128.619153675,149.665924276 L130.957683742,160.579064588 L138.752783964,167.594654788 L137.973273942,172.271714922 L151.224944321,179.287305122 L152.783964365,183.964365256 L162.917594655,183.964365256 L168.374164811,176.169265033 L177.728285078,182.405345212 L183.964365256,182.405345212 L193.318485523,190.979955457 L198.775055679,191.759465479 L203.452115813,190.200445434 L204.231625835,190.979955457 L204.231625835,191.759465479 L205.011135857,193.318485523 L204.231625835,194.097995546 L204.231625835,194.877505568 L204.231625835,195.65701559 L204.231625835,197.216035635 L202.672605791,200.334075724 L198.775055679,205.011135857 L197.995545657,205.79064588 L198.775055679,207.349665924 L197.995545657,208.129175947 L190.979955457,213.585746102 L190.200445434,213.585746102 L189.420935412,212.80623608 L187.861915367,211.247216036 L180.846325167,208.129175947 L176.169265033,210.467706013 L175.389755011,212.026726058 L173.051224944,216.703786192 L172.271714922,236.191536748 L172.271714922,236.971046771 L172.271714922,237.750556793 L176.948775056,242.427616927 Z" fill="#cee3f5" id="HR.PG" stroke="#6e6e6e" stroke-width="0.4"><desc><labelrank>9</labelrank><code_hasc>HR.PG</code_hasc><name>Primorsko-Goranska</name><admin>Croatia</admin><type_en>County</type_en><region /><woe_id>12577982</woe_id><longitude>14</longitude><woe_name>Primorsko-Goranska</woe_name><fips>HR12</fips><woe_label>Primorsko-Goranska, HR, Croatia</woe_label><latitude>45</latitude><iso_a2>HR</iso_a2><postal>PG</postal><type>Županija</type><id>HR.PG</id></desc></path><path d="M353.897550111,136.414253898 L354.677060134,144.20935412 L367.928730512,153.563474388 L388.195991091,161.35857461 L397.550111359,176.169265033 L392.873051225,179.287305122 L395.211581292,182.405345212 L402.227171492,185.523385301 L405.345211581,184.743875278 L416.258351893,194.097995546 L420.935412027,193.318485523 L420.935412027,201.113585746 L430.289532294,206.570155902 L434.966592428,205.79064588 L437.305122494,215.144766147 L431.848552339,216.703786192 L424.053452116,226.057906459 L428.730512249,236.191536748 L420.155902004,230.734966592 L417.817371938,225.278396437 L414.699331849,228.396436526 L414.699331849,223.719376392 L413.919821826,225.278396437 L409.242761693,222.160356347 L410.022271715,224.498886414 L407.683741648,224.498886414 L404.565701559,216.703786192 L393.652561247,228.396436526 L391.31403118,233.853006682 L357.795100223,227.616926503 L352.338530067,230.734966592 L346.881959911,242.427616927 L341.425389755,244.766146993 L335.189309577,263.474387528 L332.071269488,264.25389755 L320.378619154,259.576837416 L309.465478842,248.663697105 L303.229398664,236.191536748 L297.772828508,233.073496659 L297.772828508,228.396436526 L280.623608018,227.616926503 L271.269487751,231.514476615 L251.781737194,228.396436526 L251.002227171,224.498886414 L254.899777283,219.042316258 L254.899777283,208.129175947 L257.23830735,205.011135857 L254.899777283,194.097995546 L261.915367483,193.318485523 L269.710467706,197.995545657 L273.608017817,196.436525612 L276.726057906,186.302895323 L272.828507795,176.169265033 L279.064587973,172.271714922 L286.080178174,178.5077951 L287.639198218,184.743875278 L296.993318486,182.405345212 L300.890868597,184.743875278 L308.68596882,179.287305122 L300.890868597,163.697104677 L306.347438753,163.697104677 L312.583518931,158.240534521 L321.937639198,163.697104677 L328.173719376,161.35857461 L330.512249443,156.681514477 L329.732739421,142.650334076 L332.85077951,138.752783964 L339.086859688,139.532293987 L340.645879733,127.839643653 L346.881959911,126.280623608 L353.897550111,136.414253898 Z" fill="#cee3f5" id="HR.SM" stroke="#6e6e6e" stroke-width="0.4"><desc><labelrank>9</labelrank><code_hasc>HR.SM</code_hasc><name>Sisacko-Moslavacka</name><admin>Croatia</admin><type_en>County</type_en><region /><woe_id>12577984</woe_id><longitude>16</longitude><woe_name>Sisacko-Moslavacka</woe_name><fips>HR14</fips><woe_label>SisaÄko-moslavaÄka, HR, Croatia</woe_label><latitude>45</latitude><iso_a2>HR</iso_a2><postal>SM</postal><type>Županija</type><id>HR.SM</id></desc></path><path d="M325.83518931,86.5256124722 L330.512249443,94.3207126949 L337.527839644,92.7616926503 L347.661469933,95.8797327394 L350.779510022,103.674832962 L356.236080178,100.556792873 L366.369710468,109.131403118 L377.28285078,109.131403118 L374.944320713,125.501113586 L370.267260579,126.280623608 L369.487750557,122.383073497 L366.369710468,133.296213808 L357.795100223,132.516703786 L353.897550111,136.414253898 L346.881959911,126.280623608 L340.645879733,127.839643653 L339.086859688,139.532293987 L332.85077951,138.752783964 L329.732739421,142.650334076 L330.512249443,156.681514477 L328.173719376,161.35857461 L321.937639198,163.697104677 L312.583518931,158.240534521 L306.347438753,163.697104677 L300.890868597,163.697104677 L308.68596882,179.287305122 L300.890868597,184.743875278 L296.993318486,182.405345212 L287.639198218,184.743875278 L286.080178174,178.5077951 L279.064587973,172.271714922 L272.828507795,176.169265033 L269.710467706,176.948775056 L265.033407572,170.712694878 L265.812917595,163.697104677 L263.474387528,165.256124722 L249.443207127,159.020044543 L244.766146993,162.917594655 L228.396436526,147.327394209 L219.042316258,151.224944321 L216.703786192,148.886414254 L211.247216036,148.886414254 L208.129175947,141.870824053 L228.396436526,133.296213808 L231.514476615,127.06013363 L256.458797327,124.721603563 L258.017817372,100.556792873 L275.167037862,98.9977728285 L286.080178174,103.674832962 L288.418708241,107.572383073 L274.38752784,110.690423163 L273.608017817,116.926503341 L268.930957684,118.485523385 L268.151447661,122.383073497 L273.608017817,123.162583519 L277.505567929,128.619153675 L273.608017817,134.075723831 L275.946547884,137.19376392 L273.608017817,142.650334076 L269.710467706,140.311804009 L268.930957684,146.547884187 L286.080178174,159.799554566 L291.53674833,144.20935412 L311.804008909,128.619153675 L318.040089087,131.737193764 L321.937639198,121.603563474 L311.804008909,101.336302895 L315.70155902,98.9977728285 L314.922048998,95.8797327394 L319.599109131,95.8797327394 L318.040089087,86.5256124722 L325.83518931,86.5256124722 Z" fill="#cee3f5" id="HR.ZG" stroke="#6e6e6e" stroke-width="0.4"><desc><labelrank>9</labelrank><code_hasc>HR.ZG</code_hasc><name>Zagrebacka</name><admin>Croatia</admin><type_en>County</type_en><region>Jugovzhodna Slovenija</region><woe_id>12577990</woe_id><longitude>15</longitude><woe_name>Zagrebacka</woe_name><fips>HR20</fips><woe_label>ZagrebaÄka, HR, Croatia</woe_label><latitude>45</latitude><iso_a2>HR</iso_a2><postal>ZG</postal><type>Županija</type><id>HR.ZG</id></desc></path><path d="M288.418708241,107.572383073 L291.53674833,111.469933185 L311.804008909,101.336302895 L321.937639198,121.603563474 L318.040089087,131.737193764 L311.804008909,128.619153675 L291.53674833,144.20935412 L286.080178174,159.799554566 L268.930957684,146.547884187 L269.710467706,140.311804009 L273.608017817,142.650334076 L275.946547884,137.19376392 L273.608017817,134.075723831 L277.505567929,128.619153675 L273.608017817,123.162583519 L268.151447661,122.383073497 L268.930957684,118.485523385 L273.608017817,116.926503341 L274.38752784,110.690423163 L288.418708241,107.572383073 Z" fill="#cee3f5" id="HR.GZ" stroke="#6e6e6e" stroke-width="0.4"><desc><labelrank>9</labelrank><code_hasc>HR.GZ</code_hasc><name>Grad Zagreb</name><admin>Croatia</admin><type_en>City</type_en><region /><woe_id>20070170</woe_id><longitude>15</longitude><woe_name>Grad Zagreb</woe_name><fips>HR21</fips><woe_label>Grad Zagreb, HR, Croatia</woe_label><latitude>45</latitude><iso_a2>HR</iso_a2><postal>GZ</postal><type>Grad</type><id>HR.GZ</id></desc></path><path d="M57.6837416481,173.830734967 L72.4944320713,180.846325167 L72.4944320713,183.184855234 L73.2739420935,184.743875278 L74.0534521158,186.302895323 L74.8329621381,187.861915367 L82.6280623608,192.538975501 L82.6280623608,192.538975501 L82.6280623608,194.097995546 L81.8485523385,194.877505568 L81.8485523385,195.65701559 L81.8485523385,197.216035635 L82.6280623608,202.672605791 L83.4075723831,204.231625835 L83.4075723831,205.79064588 L82.6280623608,207.349665924 L81.0690423163,209.688195991 L81.0690423163,210.467706013 L81.0690423163,211.247216036 L81.0690423163,214.365256125 L81.8485523385,223.719376392 L81.8485523385,227.616926503 L81.0690423163,229.175946548 L81.0690423163,230.734966592 L81.0690423163,231.514476615 L81.8485523385,233.073496659 L82.6280623608,233.853006682 L84.9665924276,234.632516704 L84.9665924276,234.632516704 L84.9665924276,234.632516704 L84.9665924276,235.412026726 L81.8485523385,239.309576837 L78.7305122494,237.750556793 L80.289532294,243.207126949 L75.6124721604,245.545657016 L75.6124721604,251.781737194 L74.0534521158,250.222717149 L76.3919821826,257.23830735 L74.0534521158,264.25389755 L68.5968819599,265.033407572 L64.6993318486,268.930957684 L66.2583518931,262.694877506 L61.5812917595,253.340757238 L61.5812917595,259.576837416 L65.4788418708,262.694877506 L60.0222717149,267.371937639 L58.4632516704,276.726057906 L53.0066815145,276.726057906 L54.565701559,282.182628062 L52.2271714922,289.198218263 L55.3452115813,291.53674833 L46.7706013363,290.757238307 L42.0935412027,287.639198218 L45.2115812918,296.993318486 L43.6525612472,297.772828508 L42.8730512249,290.757238307 L37.416481069,288.418708241 L36.6369710468,283.741648107 L30.4008908686,279.844097996 L34.29844098,281.40311804 L36.6369710468,278.285077951 L31.1804008909,276.726057906 L32.7394209354,273.608017817 L29.6213808463,265.033407572 L16.3697104677,248.663697105 L11.6926503341,246.325167038 L14.0311804009,243.207126949 L10.9131403118,238.530066815 L24.9443207127,236.191536748 L9.35412026726,235.412026726 L7.79510022272,225.278396437 L9.35412026726,215.924276169 L7.79510022272,213.585746102 L10.9131403118,210.467706013 L7.79510022272,206.570155902 L11.6926503341,205.011135857 L6.23608017817,203.452115813 L3.89755011136,200.334075724 L5.4565701559,196.436525612 L0.0,173.830734967 L1.55902004454,172.271714922 L14.8106904232,181.625835189 L30.4008908686,181.625835189 L37.416481069,186.302895323 L45.2115812918,188.64142539 L55.3452115813,182.405345212 L56.9042316258,180.066815145 L54.565701559,175.389755011 L57.6837416481,173.830734967 Z" fill="#cee3f5" id="HR.IS" stroke="#6e6e6e" stroke-width="0.4"><desc><labelrank>9</labelrank><code_hasc>HR.IS</code_hasc><name>Istarska</name><admin>Croatia</admin><type_en>County</type_en><region /><woe_id>12577974</woe_id><longitude>13</longitude><woe_name>Istarska</woe_name><fips>HR04</fips><woe_label>Istarska, HR, Croatia</woe_label><latitude>45</latitude><iso_a2>HR</iso_a2><postal>IS</postal><type>Županija</type><id>HR.IS</id></desc></path><path d="M541.759465479,217.483296214 L556.570155902,224.498886414 L571.380846325,220.601336303 L596.325167038,229.175946548 L592.427616927,236.971046771 L596.325167038,246.325167038 L597.10467706,252.561247216 L594.766146993,252.561247216 L581.514476615,243.207126949 L571.380846325,241.648106904 L561.247216036,236.191536748 L556.570155902,238.530066815 L555.79064588,243.986636971 L548.775055679,246.325167038 L533.184855234,237.750556793 L522.271714922,249.443207127 L513.697104677,252.561247216 L494.988864143,236.191536748 L488.752783964,236.971046771 L481.737193764,243.207126949 L470.824053452,244.766146993 L473.162583519,240.08908686 L466.926503341,241.648106904 L466.146993318,236.971046771 L459.131403118,240.868596882 L445.879732739,232.293986637 L442.76169265,237.750556793 L435.74610245,239.309576837 L428.730512249,236.191536748 L424.053452116,226.057906459 L431.848552339,216.703786192 L437.305122494,215.144766147 L434.966592428,205.79064588 L441.982182628,200.334075724 L448.218262806,201.893095768 L459.91091314,198.775055679 L481.737193764,217.483296214 L496.547884187,219.821826281 L499.665924276,227.616926503 L498.106904232,230.734966592 L502.004454343,232.293986637 L505.902004454,230.734966592 L506.681514477,226.837416481 L515.256124722,224.498886414 L520.712694878,215.144766147 L541.759465479,217.483296214 Z" fill="#cee3f5" id="HR.SP" stroke="#6e6e6e" stroke-width="0.4"><desc><labelrank>9</labelrank><code_hasc>HR.SP</code_hasc><name>Brodsko-Posavska</name><admin>Croatia</admin><type_en>County</type_en><region /><woe_id>12577972</woe_id><longitude>17</longitude><woe_name>Brodsko-Posavska</woe_name><fips>HR02</fips><woe_label>Brodsko-Posavska, HR, Croatia</woe_label><latitude>45</latitude><iso_a2>HR</iso_a2><postal>SP</postal><type>Županija</type><id>HR.SP</id></desc></path><path d="M651.670378619,184.743875278 L643.095768374,187.861915367 L637.639198218,180.846325167 L632.962138085,180.066815145 L625.167037862,183.184855234 L626.726057906,188.64142539 L625.167037862,190.979955457 L616.592427617,190.979955457 L610.356347439,194.877505568 L606.458797327,207.349665924 L593.207126949,212.80623608 L592.427616927,219.821826281 L599.443207127,222.160356347 L598.663697105,228.396436526 L596.325167038,229.175946548 L571.380846325,220.601336303 L556.570155902,224.498886414 L541.759465479,217.483296214 L544.877505568,210.467706013 L540.979955457,204.231625835 L551.113585746,193.318485523 L559.688195991,190.979955457 L567.483296214,184.743875278 L572.93986637,185.523385301 L583.853006682,181.625835189 L578.396436526,173.830734967 L574.498886414,179.287305122 L558.129175947,176.169265033 L554.231625835,172.271714922 L554.231625835,168.374164811 L557.349665924,166.035634744 L555.79064588,162.138084633 L540.979955457,156.681514477 L532.405345212,149.665924276 L529.287305122,142.650334076 L523.830734967,141.091314031 L519.933184855,130.178173719 L540.200445434,133.296213808 L555.79064588,130.178173719 L568.262806236,136.414253898 L573.719376392,134.855233853 L578.396436526,137.19376392 L586.971046771,128.619153675 L593.207126949,128.619153675 L597.884187082,123.942093541 L607.23830735,108.351893096 L621.269487751,112.249443207 L624.38752784,107.572383073 L627.505567929,108.351893096 L636.080178174,103.674832962 L636.859688196,106.792873051 L632.962138085,109.91091314 L636.859688196,114.587973274 L630.623608018,116.146993318 L629.844097996,123.162583519 L636.859688196,131.737193764 L639.198218263,141.870824053 L645.434298441,148.106904232 L638.418708241,155.902004454 L637.639198218,163.697104677 L642.316258352,169.933184855 L651.670378619,164.476614699 L661.804008909,173.830734967 L658.68596882,176.948775056 L650.890868597,176.169265033 L651.670378619,184.743875278 Z" fill="#cee3f5" id="HR.OB" stroke="#6e6e6e" stroke-width="0.4"><desc><labelrank>9</labelrank><code_hasc>HR.OB</code_hasc><name>Osjecko-Baranjska</name><admin>Croatia</admin><type_en>County</type_en><region /><woe_id>12577980</woe_id><longitude>18</longitude><woe_name>Osjecko-Baranjska</woe_name><fips>HR10</fips><woe_label>OsjeÄko-baranjska, HR, Croatia</woe_label><latitude>45</latitude><iso_a2>HR</iso_a2><postal>OB</postal><type>Županija</type><id>HR.OB</id></desc></path><path d="M541.759465479,217.483296214 L520.712694878,215.144766147 L515.256124722,224.498886414 L506.681514477,226.837416481 L505.902004454,230.734966592 L502.004454343,232.293986637 L498.106904232,230.734966592 L499.665924276,227.616926503 L496.547884187,219.821826281 L481.737193764,217.483296214 L459.91091314,198.775055679 L448.218262806,201.893095768 L441.982182628,200.334075724 L434.966592428,205.79064588 L430.289532294,206.570155902 L420.935412027,201.113585746 L420.935412027,193.318485523 L416.258351893,194.097995546 L405.345211581,184.743875278 L406.904231626,172.271714922 L409.242761693,176.948775056 L416.258351893,180.066815145 L434.966592428,175.389755011 L439.643652561,179.287305122 L460.690423163,178.5077951 L463.808463252,176.169265033 L463.808463252,167.594654788 L472.383073497,170.712694878 L474.721603563,166.815144766 L508.240534521,183.964365256 L517.594654788,183.964365256 L540.979955457,156.681514477 L555.79064588,162.138084633 L557.349665924,166.035634744 L554.231625835,168.374164811 L554.231625835,172.271714922 L558.129175947,176.169265033 L574.498886414,179.287305122 L578.396436526,173.830734967 L583.853006682,181.625835189 L572.93986637,185.523385301 L567.483296214,184.743875278 L559.688195991,190.979955457 L551.113585746,193.318485523 L540.979955457,204.231625835 L544.877505568,210.467706013 L541.759465479,217.483296214 Z" fill="#cee3f5" id="HR.2230" stroke="#6e6e6e" stroke-width="0.4"><desc><labelrank>9</labelrank><code_hasc>HR.SP</code_hasc><name>Brodsko-Posavska</name><admin>Croatia</admin><type_en>County</type_en><region /><woe_id>12577981</woe_id><longitude>17</longitude><woe_name>Brodsko-Posavska</woe_name><fips>HR11</fips><woe_label>PoÅ¾eÅ¡ko-slavonska, HR, Croatia</woe_label><latitude>45</latitude><iso_a2>HR</iso_a2><postal>SP</postal><type>Županija</type><id>HR.2230</id></desc></path><path d="M651.670378619,184.743875278 L654.788418708,188.64142539 L646.993318486,194.097995546 L650.890868597,198.775055679 L661.024498886,201.113585746 L662.583518931,205.79064588 L670.378619154,211.247216036 L693.763919822,216.703786192 L700.0,224.498886414 L697.661469933,229.95545657 L687.527839644,230.734966592 L685.189309577,228.396436526 L678.173719376,231.514476615 L665.70155902,226.837416481 L668.040089087,234.632516704 L657.126948775,236.971046771 L661.804008909,245.545657016 L662.583518931,263.474387528 L666.481069042,263.474387528 L668.040089087,267.371937639 L661.804008909,274.38752784 L654.788418708,272.048997773 L651.670378619,274.38752784 L653.229398664,282.962138085 L636.080178174,282.182628062 L626.726057906,275.167037862 L625.167037862,270.489977728 L629.064587973,265.033407572 L626.726057906,259.576837416 L621.269487751,258.017817372 L614.25389755,247.10467706 L610.356347439,251.002227171 L604.899777283,244.766146993 L596.325167038,246.325167038 L592.427616927,236.971046771 L596.325167038,229.175946548 L598.663697105,228.396436526 L599.443207127,222.160356347 L592.427616927,219.821826281 L593.207126949,212.80623608 L606.458797327,207.349665924 L610.356347439,194.877505568 L616.592427617,190.979955457 L625.167037862,190.979955457 L626.726057906,188.64142539 L625.167037862,183.184855234 L632.962138085,180.066815145 L637.639198218,180.846325167 L643.095768374,187.861915367 L651.670378619,184.743875278 Z" fill="#cee3f5" id="HR.VS" stroke="#6e6e6e" stroke-width="0.4"><desc><labelrank>9</labelrank><code_hasc>HR.VS</code_hasc><name>Vukovarsko-Srijemska</name><admin>Croatia</admin><type_en>County</type_en><region /><woe_id>12577988</woe_id><longitude>18</longitude><woe_name>Vukovarsko-Srijemska</woe_name><fips>HR18</fips><woe_label>Vukovarsko-Srijemska, HR, Croatia</woe_label><latitude>45</latitude><iso_a2>HR</iso_a2><postal>VS</postal><type>Županija</type><id>HR.VS</id></desc></path><path d="M519.933184855,130.178173719 L523.830734967,141.091314031 L529.287305122,142.650334076 L532.405345212,149.665924276 L540.979955457,156.681514477 L517.594654788,183.964365256 L508.240534521,183.964365256 L474.721603563,166.815144766 L472.383073497,170.712694878 L463.808463252,167.594654788 L470.824053452,147.327394209 L463.808463252,143.429844098 L458.351893096,145.768374165 L455.233853007,137.19376392 L451.336302895,137.973273942 L445.879732739,129.398663697 L429.510022272,117.706013363 L428.730512249,110.690423163 L435.74610245,101.336302895 L448.997772829,99.7772828508 L451.336302895,100.556792873 L452.115812918,98.9977728285 L453.674832962,103.674832962 L458.351893096,102.115812918 L460.690423163,105.233853007 L463.028953229,102.89532294 L477.839643653,104.454342984 L487.973273942,112.249443207 L491.091314031,122.383073497 L508.240534521,126.280623608 L513.697104677,133.296213808 L519.933184855,130.178173719 Z" fill="#cee3f5" id="HR.VP" stroke="#6e6e6e" stroke-width="0.4"><desc><labelrank>9</labelrank><code_hasc>HR.VP</code_hasc><name>Viroviticko-Podravska</name><admin>Croatia</admin><type_en>County</type_en><region /><woe_id>12577987</woe_id><longitude>17</longitude><woe_name>Viroviticko-Podravska</woe_name><fips>HR17</fips><woe_label>VirovitiÄko-podravska, HR, Croatia</woe_label><latitude>45</latitude><iso_a2>HR</iso_a2><postal>VP</postal><type>Županija</type><id>HR.VP</id></desc></path><path d="M429.510022272,117.706013363 L445.879732739,129.398663697 L451.336302895,137.973273942 L455.233853007,137.19376392 L458.351893096,145.768374165 L463.808463252,143.429844098 L470.824053452,147.327394209 L463.808463252,167.594654788 L463.808463252,176.169265033 L460.690423163,178.5077951 L439.643652561,179.287305122 L434.966592428,175.389755011 L416.258351893,180.066815145 L409.242761693,176.948775056 L406.904231626,172.271714922 L405.345211581,184.743875278 L402.227171492,185.523385301 L395.211581292,182.405345212 L392.873051225,179.287305122 L397.550111359,176.169265033 L388.195991091,161.35857461 L367.928730512,153.563474388 L354.677060134,144.20935412 L353.897550111,136.414253898 L357.795100223,132.516703786 L366.369710468,133.296213808 L369.487750557,122.383073497 L370.267260579,126.280623608 L374.944320713,125.501113586 L377.28285078,109.131403118 L377.28285078,99.7772828508 L382.739420935,88.864142539 L387.416481069,86.5256124722 L389.755011136,88.864142539 L395.211581292,82.6280623608 L403.006681514,91.2026726058 L402.227171492,96.6592427617 L412.360801782,102.89532294 L412.360801782,108.351893096 L418.59688196,107.572383073 L429.510022272,117.706013363 Z" fill="#cee3f5" id="HR.BB" stroke="#6e6e6e" stroke-width="0.4"><desc><labelrank>9</labelrank><code_hasc>HR.BB</code_hasc><name>Bjelovarska-Bilogorska</name><admin>Croatia</admin><type_en>County</type_en><region /><woe_id>12577991</woe_id><longitude>16</longitude><woe_name>Bjelovarska-Bilogorska</woe_name><fips>HR01</fips><woe_label>Bjelovarsko-Bilogorska, HR, Croatia</woe_label><latitude>45</latitude><iso_a2>HR</iso_a2><postal>BB</postal><type>Županija</type><id>HR.BB</id></desc></path><path d="M448.997772829,99.7772828508 L435.74610245,101.336302895 L428.730512249,110.690423163 L429.510022272,117.706013363 L418.59688196,107.572383073 L412.360801782,108.351893096 L412.360801782,102.89532294 L402.227171492,96.6592427617 L403.006681514,91.2026726058 L395.211581292,82.6280623608 L389.755011136,88.864142539 L387.416481069,86.5256124722 L382.739420935,88.864142539 L377.28285078,99.7772828508 L377.28285078,109.131403118 L366.369710468,109.131403118 L356.236080178,100.556792873 L350.779510022,103.674832962 L347.661469933,95.8797327394 L337.527839644,92.7616926503 L336.748329621,75.6124721604 L346.102449889,71.714922049 L352.338530067,72.4944320713 L365.590200445,62.3608017817 L377.28285078,61.5812917595 L385.857461024,51.4476614699 L382.739420935,45.2115812918 L390.534521158,49.1091314031 L395.991091314,35.0779510022 L399.888641425,47.5501113586 L410.022271715,60.8017817372 L424.832962138,74.8329621381 L437.305122494,76.3919821826 L441.982182628,82.6280623608 L445.100222717,94.3207126949 L449.777282851,96.6592427617 L446.659242762,97.438752784 L448.997772829,99.7772828508 Z" fill="#cee3f5" id="HR.KK" stroke="#6e6e6e" stroke-width="0.4"><desc><labelrank>9</labelrank><code_hasc>HR.KK</code_hasc><name>Koprivničko-Križevačka</name><admin>Croatia</admin><type_en>County</type_en><region /><woe_id>12577976</woe_id><longitude>16</longitude><woe_name>Koprivničko-Križevačka</woe_name><fips>HR06</fips><woe_label>KoprivniÄko-kriÅ¾evaÄka, HR, Croatia</woe_label><latitude>46</latitude><iso_a2>HR</iso_a2><postal>KK</postal><type>Županija</type><id>HR.KK</id></desc></path><path d="M395.991091314,35.0779510022 L390.534521158,49.1091314031 L382.739420935,45.2115812918 L365.590200445,42.8730512249 L352.338530067,45.991091314 L338.307349666,42.8730512249 L334.409799555,35.8574610245 L328.953229399,32.7394209354 L325.055679287,28.8418708241 L323.496659243,14.0311804009 L337.527839644,4.67706013363 L352.338530067,9.35412026726 L363.251670379,17.14922049 L365.590200445,15.5902004454 L370.267260579,17.14922049 L384.29844098,32.7394209354 L385.857461024,29.6213808463 L395.991091314,35.0779510022 Z" fill="#cee3f5" id="HR.ME" stroke="#6e6e6e" stroke-width="0.4"><desc><labelrank>9</labelrank><code_hasc>HR.ME</code_hasc><name>Medimurska</name><admin>Croatia</admin><type_en>County</type_en><region /><woe_id>12577979</woe_id><longitude>16</longitude><woe_name>Medimurska</woe_name><fips>HR09</fips><woe_label>Medjimurska, HR, Croatia</woe_label><latitude>46</latitude><iso_a2>HR</iso_a2><postal>ME</postal><type>Županija</type><id>HR.ME</id></desc></path><path d="M328.953229399,32.7394209354 L334.409799555,35.8574610245 L338.307349666,42.8730512249 L352.338530067,45.991091314 L365.590200445,42.8730512249 L382.739420935,45.2115812918 L385.857461024,51.4476614699 L377.28285078,61.5812917595 L365.590200445,62.3608017817 L352.338530067,72.4944320713 L346.102449889,71.714922049 L336.748329621,75.6124721604 L337.527839644,92.7616926503 L330.512249443,94.3207126949 L325.83518931,86.5256124722 L325.055679287,64.6993318486 L318.819599109,60.8017817372 L314.142538976,64.6993318486 L291.53674833,63.9198218263 L282.962138085,56.9042316258 L282.182628062,53.0066815145 L300.890868597,44.4320712695 L303.229398664,32.7394209354 L308.68596882,33.5189309577 L312.583518931,30.4008908686 L320.378619154,35.0779510022 L328.953229399,32.7394209354 Z" fill="#cee3f5" id="HR.VA" stroke="#6e6e6e" stroke-width="0.4"><desc><labelrank>9</labelrank><code_hasc>HR.VA</code_hasc><name>Varaždinska</name><admin>Croatia</admin><type_en>County</type_en><region /><woe_id>12577986</woe_id><longitude>16</longitude><woe_name>Varaždinska</woe_name><fips>HR16</fips><woe_label>VaraÅ¾dinska, HR, Croatia</woe_label><latitude>46</latitude><iso_a2>HR</iso_a2><postal>VA</postal><type>Županija</type><id>HR.VA</id></desc></path></svg>