<?xml version='1.0' encoding='utf-8'?>
<svg height="700" width="700" xmlns="http://www.w3.org/2000/svg"><path d="M626.704898196,368.817165678 L628.155255559,373.623448681 L625.004728761,369.826529701 L626.704898196,368.817165678 Z" fill="#cee3f5" id="MX.3622" stroke="#6e6e6e" stroke-width="0.4"><desc><labelrank>20</labelrank><code_hasc>-99</code_hasc><name /><admin>Mexico</admin><type_en /><region /><woe_id>-99</woe_id><longitude>-89</longitude><woe_name /><fips /><woe_label /><latitude>22</latitude><iso_a2>MX</iso_a2><postal /><type /><id>MX.3622</id></desc></path><path d="M87.8727283878,246.220486948 L86.5926137319,246.120282845 L88.6353439245,244.190515634 L87.8727283878,246.220486948 M65.7960692611,242.007648186 L62.0013010198,241.969892517 L65.7361190986,235.075038001 L65.7960692611,242.007648186 M2.48104436714,215.202921547 L0.809924424064,215.94973952 L0.0,209.967081498 L1.76522105455,208.404246727 L2.48104436714,215.202921547 M104.681896688,210.176412948 L106.989294062,215.83712713 L111.203324592,216.985798717 L111.812070394,224.123495535 L102.542604755,213.062003016 L104.681896688,210.176412948 M79.8117110861,150.049832355 L77.8512534145,148.453389845 L82.3775884845,156.485526578 L78.9794046333,168.208692686 L82.1326574075,174.485098302 L82.1363962304,194.053377959 L86.3117888329,202.594790683 L101.29462641,216.064698079 L102.915666868,225.703058033 L105.921944107,224.762518578 L106.373762139,228.192167487 L109.734004168,228.646871947 L111.202461366,235.74607446 L116.574379588,237.67875144 L117.593844719,248.479134976 L89.6936156701,246.359585081 L91.0264154868,235.304005105 L88.5945510415,230.24527156 L73.1454265513,211.308110809 L58.6387924427,200.660163337 L57.1404352617,186.025395323 L54.3278465302,182.028846108 L53.6514385413,185.352291326 L53.0172456722,182.329907897 L53.6640030556,174.472110843 L48.255307521,170.109714396 L48.829821893,163.704263457 L41.7843147283,149.80254149 L43.9494479866,150.497264763 L44.912031985,147.935679563 L40.1406182812,143.192690731 L36.2917755309,129.950070056 L86.0445806173,131.006467917 L83.5829937309,135.981031488 L78.6054701586,140.56152668 L79.8117110861,150.049832355 Z" fill="#cee3f5" id="MX.BN" stroke="#6e6e6e" stroke-width="0.4"><desc><labelrank>4</labelrank><code_hasc>MX.BN</code_hasc><name>Baja California</name><admin>Mexico</admin><type_en>State</type_en><region /><woe_id>2346265</woe_id><longitude>-115</longitude><woe_name>Baja California</woe_name><fips>MX02</fips><woe_label>Baja California, MX, Mexico</woe_label><latitude>30</latitude><iso_a2>MX</iso_a2><postal>BC</postal><type>Estado</type><id>MX.BN</id></desc></path><path d="M138.467280586,337.548727914 L140.588789824,338.828137886 L135.973855131,337.893604096 L138.467280586,337.548727914 M129.588010742,333.667678421 L134.314214292,335.660198624 L135.127500592,339.266157987 L129.588010742,333.667678421 M160.593420754,322.76968409 L160.709502222,326.901070638 L158.174284694,320.948190928 L160.593420754,322.76968409 M126.044229672,322.087235641 L124.76716764,325.999843614 L126.639892124,329.363215962 L127.666642886,333.025354666 L125.828903898,328.005779745 L124.083464668,326.793415061 L122.613811287,326.635860075 L127.23061643,315.422565249 L126.044229672,322.087235641 M151.687554978,297.256832592 L148.108761289,303.554342035 L149.044521681,297.807516454 L151.687554978,297.256832592 M86.5926137319,246.120282845 L87.8727283878,246.220486948 L88.6150414831,248.040985842 L88.9305822218,246.30321928 L89.5114159904,246.347199994 L89.6936156701,246.359585081 L117.593844719,248.479134976 L118.6840377,254.792599678 L125.645725614,259.996321362 L129.15060567,269.449980792 L133.677277476,271.512808748 L132.063783288,274.196209298 L136.523327974,284.318709386 L138.870513537,284.211300296 L136.252561068,276.44260485 L143.873960001,286.052586441 L145.846803644,304.02874919 L151.811229556,310.722943825 L158.427989992,326.328903951 L156.852798177,334.190486888 L159.36121922,341.574574553 L165.572020159,343.732555734 L163.198746905,343.680135143 L164.716254763,345.256132775 L166.153826877,342.759589067 L165.57043435,340.036208381 L167.790235167,339.783609643 L172.907456277,347.161294558 L176.448394286,346.904552265 L179.003475489,356.585167987 L183.97144433,359.429505567 L183.984040083,367.936425651 L173.854134939,375.47681836 L170.251002901,373.489799845 L165.318852041,359.04506062 L136.140013346,332.383609392 L133.078109664,334.166441645 L129.259896347,325.021994733 L130.000923191,328.222825927 L128.612196369,325.813519913 L127.364403749,327.366639448 L127.334064366,321.681417452 L126.249725695,324.861562353 L125.901487052,322.90598296 L129.5981066,310.524299918 L127.044765345,298.699666284 L122.586786867,291.512291124 L108.832716105,281.894196943 L107.891755518,277.090175609 L105.706502878,278.144005237 L107.610798733,272.791610959 L104.531266409,277.866019773 L96.5176100113,277.94262765 L93.0281108251,272.241511431 L80.0391228766,265.677769751 L78.951315966,259.979873925 L67.4034479552,248.121988737 L79.8522069274,251.075115443 L83.9928003244,248.962945263 L88.0559915465,255.945663171 L88.8326821624,253.850182564 L91.3877651151,254.898564204 L89.385506365,251.193446615 L87.4857571287,252.755232217 L87.6367331766,247.545831614 L85.0630185356,248.753227241 L86.5926137319,246.120282845 Z" fill="#cee3f5" id="MX.BS" stroke="#6e6e6e" stroke-width="0.4"><desc><labelrank>4</labelrank><code_hasc>MX.BS</code_hasc><name>Baja California Sur</name><admin>Mexico</admin><type_en>State</type_en><region /><woe_id>2346266</woe_id><longitude>-111</longitude><woe_name>Baja California Sur</woe_name><fips>MX03</fips><woe_label>Baja California Sur, MX, Mexico</woe_label><latitude>25</latitude><iso_a2>MX</iso_a2><postal>BS</postal><type>Estado</type><id>MX.BS</id></desc></path><path d="M394.510083676,258.423666117 L391.012760638,261.774284196 L386.467683973,258.174998659 L382.788150316,261.172331665 L380.952272091,268.94937744 L373.371326513,272.884236929 L374.773683634,277.3302214 L378.92940143,276.248538694 L378.097159953,284.377229942 L375.956028864,286.822762704 L374.990604182,284.093256439 L365.202593895,292.984772064 L373.440033633,302.786092572 L375.049034076,309.452284752 L379.666163418,312.740488393 L377.029769623,313.54332543 L388.05072633,318.757298611 L375.133741074,322.840231501 L374.733782626,336.242540353 L368.793858117,334.558977683 L365.743458301,330.384624021 L357.303392367,332.017026154 L357.536701695,328.767263974 L344.944631779,322.483351251 L334.151063463,324.655411626 L330.416556358,333.122653798 L321.982056482,329.385278351 L315.790557667,319.98222128 L316.1521145,313.725527235 L319.775475709,309.910509191 L320.756343236,295.148938351 L312.969386875,287.250111554 L305.621472138,256.652576805 L319.308689242,229.970000042 L322.772378605,230.921491694 L328.809949395,224.987655675 L332.174013175,212.738661124 L338.135267581,211.673624352 L339.870524714,208.838762666 L359.129410537,211.203580477 L361.192659063,215.495949662 L375.076266479,226.692240547 L384.084974189,246.604611353 L394.510083676,258.423666117 Z" fill="#cee3f5" id="MX.CA" stroke="#6e6e6e" stroke-width="0.4"><desc><labelrank>4</labelrank><code_hasc>MX.CA</code_hasc><name>Coahuila</name><admin>Mexico</admin><type_en>State</type_en><region /><woe_id>2346270</woe_id><longitude>-101</longitude><woe_name>Coahuila</woe_name><fips>MX07</fips><woe_label>Coahuila de Zaragoza, MX, Mexico</woe_label><latitude>27</latitude><iso_a2>MX</iso_a2><postal>CO</postal><type>Estado</type><id>MX.CA</id></desc></path><path d="M319.308689242,229.970000042 L305.621472138,256.652576805 L312.969386875,287.250111554 L301.574621895,284.316009302 L292.886792445,294.576072313 L280.802647602,289.438790682 L276.234849026,291.639841263 L261.21796239,282.372495236 L258.374943443,284.652998656 L257.455102047,291.770851317 L252.308000538,293.699992898 L253.386231157,299.251729008 L249.63878883,307.640903151 L245.308771344,311.34996816 L241.034997801,310.809423706 L240.428144051,310.291749585 L238.483068025,309.025996287 L238.052701463,308.638106278 L236.977603731,307.083405139 L236.46212282,306.596480812 L234.233169725,305.33676921 L234.131879714,305.189729221 L233.865087721,303.525253522 L233.000186872,302.843252297 L232.048467528,299.436306926 L223.09532261,296.932569903 L218.282538067,279.50188399 L210.791962817,275.481748059 L209.827503773,276.708157619 L209.299683138,277.274058055 L208.731189207,277.7645026 L208.129037574,276.583442849 L207.991342696,276.550880198 L207.246563449,276.689784269 L206.971207501,276.640121207 L206.467833011,276.162023658 L205.979170785,275.468948177 L205.52519873,274.730242759 L204.649159868,273.239255424 L204.16578568,272.200995808 L205.321637325,269.605493781 L205.251533049,268.88349869 L204.914295571,268.094945873 L204.782683606,267.677652327 L204.782846019,267.258718957 L204.899746994,266.789699717 L205.024821334,266.308515359 L205.126194269,265.821525091 L205.16806891,265.336819363 L205.135763106,264.894345436 L205.022623605,264.510670192 L204.810207188,264.190112934 L203.424750957,263.140086501 L202.98997763,262.655743175 L202.55299008,262.083432937 L202.525537754,261.737516874 L202.58574368,261.390403859 L202.943298999,260.821149066 L202.379390696,260.305815177 L201.813974098,259.792135393 L200.685574749,258.761272829 L200.418224826,258.307382684 L200.244216716,257.237932985 L200.007580999,256.828692043 L197.772851005,255.34538543 L195.211821718,248.415231973 L195.06207904,247.892191948 L195.289224314,247.468259645 L195.708612076,247.106148496 L196.934236754,246.099852588 L197.321993143,245.942496463 L206.040614847,247.346247643 L206.354152812,247.211105101 L208.241249788,245.466054788 L208.246012094,245.124481722 L208.092465896,244.491652124 L207.057347514,241.358098346 L206.848241595,240.63720055 L206.645418545,239.913997949 L206.445558973,239.188995746 L206.244685852,238.465786836 L206.274042696,237.835542828 L207.109765593,235.242118773 L205.63301946,219.330420941 L207.102845272,219.379574545 L207.471587233,219.3601734 L207.631378007,219.24027726 L209.797332393,204.113981884 L209.7861914,203.798519654 L209.760347601,203.441420358 L209.686954144,201.909501999 L209.470535515,197.314915145 L209.450462796,196.392593153 L209.284748183,193.403649801 L209.241133844,192.815411467 L208.010269386,191.178106537 L204.859203119,189.520917691 L203.713748513,188.485786585 L202.56989663,187.448750093 L200.285167415,185.374489304 L200.031080373,185.034777929 L199.984502622,184.685725724 L202.04426981,172.740623927 L202.607094765,172.764278444 L203.489675594,172.801089783 L204.372232239,172.837555852 L206.137807771,172.909473996 L209.668144566,173.049146847 L217.611079355,173.342029603 L217.989422038,162.506028617 L255.440335134,164.295299753 L259.079767185,170.821618089 L285.23437749,191.952322103 L293.880902786,214.963116334 L319.308689242,229.970000042 Z" fill="#cee3f5" id="MX.CH" stroke="#6e6e6e" stroke-width="0.4"><desc><labelrank>6</labelrank><code_hasc>MX.CH</code_hasc><name>Chihuahua</name><admin>Mexico</admin><type_en>State</type_en><region /><woe_id>2346269</woe_id><longitude>-106</longitude><woe_name>Chihuahua</woe_name><fips>MX06</fips><woe_label>Chihuahua, MX, Mexico</woe_label><latitude>28</latitude><iso_a2>MX</iso_a2><postal>CH</postal><type>Estado</type><id>MX.CH</id></desc></path><path d="M312.969386875,287.250111554 L320.756343236,295.148938351 L319.775475709,309.910509191 L316.1521145,313.725527235 L315.790557667,319.98222128 L321.982056482,329.385278351 L330.416556358,333.122653798 L334.151063463,324.655411626 L338.095041387,330.729191985 L338.178042076,339.463265362 L320.830331391,339.09843982 L308.456126013,349.072424731 L309.293077739,358.660094032 L302.816574329,363.980886054 L298.217656066,391.145469202 L298.079626017,390.217535001 L297.949746684,389.280906088 L297.699428834,387.406379254 L293.261282364,388.542267917 L291.470222456,387.241724862 L291.133792417,386.543851066 L290.466182362,383.995448982 L290.271439143,383.777905143 L289.801727776,383.454248687 L289.080295951,382.988441989 L288.36226322,382.61305149 L287.903042154,382.557131463 L284.147721159,385.424739942 L282.935823606,385.726028881 L283.131827268,382.16980306 L283.798729311,381.407161404 L284.119323586,381.115690695 L284.667406521,380.610456249 L285.173328899,380.104973427 L285.368293222,379.810423095 L285.110154459,379.177922801 L284.339226693,377.280286416 L284.114207398,376.796712817 L278.940355062,373.985478412 L277.812904719,373.839799673 L274.278080859,373.914269638 L274.246837188,372.516789717 L274.2156623,371.118057259 L267.903585816,367.881477226 L266.892296809,362.957150437 L266.022836506,361.40958271 L265.336965253,361.28846849 L265.004555595,361.17955705 L264.688674198,361.023616162 L264.315832645,360.684585031 L264.096391646,360.180193855 L263.867877175,359.088585116 L263.148596586,357.477097109 L262.693998023,353.92324855 L262.64789495,352.94582969 L262.794539293,352.029532112 L263.102381504,351.27825891 L263.463712755,350.575963154 L263.797694553,349.858439039 L264.024154938,349.057793136 L263.470768495,349.26584763 L262.973335574,349.356510737 L262.526102099,349.239743569 L262.119370916,348.824831981 L261.790433745,348.246283203 L261.520635742,347.639210469 L260.2630725,344.294108036 L259.866282703,343.752934693 L258.246349049,342.255736269 L257.708057959,341.75585164 L257.260534893,341.412876154 L256.768768872,341.154279762 L255.874651302,340.973287638 L255.043923442,341.1026971 L254.262894067,341.488993847 L252.478079872,343.357887909 L252.134043522,343.495583189 L251.771613952,343.529283828 L250.556042124,343.566695075 L250.214716084,343.52106571 L249.894534055,343.36086264 L249.482300032,343.049537482 L249.082715207,342.69923239 L247.951590812,341.545355293 L247.733385442,341.220143198 L247.660151562,340.865625887 L247.427038407,338.799607432 L244.562475524,333.424910026 L242.444019412,331.327805904 L241.462973262,331.244316133 L241.059405827,331.177077421 L240.743231651,331.046850387 L238.518650928,328.115164787 L238.355803891,327.646025549 L238.105671968,326.732202109 L237.738023555,325.760670181 L236.899248876,322.676494554 L236.682773289,321.581090751 L236.719484575,320.439977069 L237.456385721,316.057357924 L237.771370442,314.982879298 L238.241342025,314.121553814 L239.416654542,312.927208501 L239.957221038,311.962122683 L240.29489746,311.553889404 L240.670171972,311.176188158 L241.034997801,310.809423706 L245.308771344,311.34996816 L249.63878883,307.640903151 L253.386231157,299.251729008 L252.308000538,293.699992898 L257.455102047,291.770851317 L258.374943443,284.652998656 L261.21796239,282.372495236 L276.234849026,291.639841263 L280.802647602,289.438790682 L292.886792445,294.576072313 L301.574621895,284.316009302 L312.969386875,287.250111554 Z" fill="#cee3f5" id="MX.DU" stroke="#6e6e6e" stroke-width="0.4"><desc><labelrank>6</labelrank><code_hasc>MX.DU</code_hasc><name>Durango</name><admin>Mexico</admin><type_en>State</type_en><region /><woe_id>2346273</woe_id><longitude>-104</longitude><woe_name>Durango</woe_name><fips>MX10</fips><woe_label>Durango, MX, Mexico</woe_label><latitude>24</latitude><iso_a2>MX</iso_a2><postal>DG</postal><type>Estado</type><id>MX.DU</id></desc></path><path d="M198.457388425,314.436562837 L200.512634279,315.896990379 L195.611798575,314.247680732 L198.457388425,314.436562837 M274.278080859,373.914269638 L272.872327712,374.138368338 L270.035138826,380.199881618 L272.981179133,386.356880791 L266.704781466,386.430410247 L251.18845999,370.018822763 L238.088849745,350.678221826 L221.538936071,337.533648938 L228.081045435,341.736499884 L227.482700015,337.442315812 L225.369339949,338.918423173 L219.184616124,335.892446711 L215.98460003,330.788193814 L217.753094747,331.544855991 L217.740447683,326.817218057 L216.380514918,325.624795056 L215.408605697,329.889122558 L210.339825756,322.811935835 L213.417736453,326.024834698 L217.389868034,324.930664427 L209.857737817,321.392857383 L209.719600214,318.984726575 L208.801536718,321.944990645 L208.102412824,319.14140691 L201.684564484,316.593541273 L204.691285898,316.85566993 L200.963516369,316.020807696 L201.021044449,312.186319993 L194.481431387,313.288890729 L199.729926757,305.771933836 L194.663307102,310.759562697 L190.64487927,308.301250556 L192.574302029,311.491304695 L187.11408632,309.132839902 L189.866451069,307.681592768 L187.924854733,306.375688747 L187.376680533,308.361966485 L186.591817945,305.56185202 L190.21537451,295.007354726 L190.420749142,294.926012867 L190.416741365,296.854903497 L191.576071767,294.421018323 L193.244752332,293.40748106 L194.491765907,295.703096035 L193.636986543,292.850313732 L207.707377466,282.025399555 L208.594129471,277.523706242 L208.731189207,277.7645026 L209.299683138,277.274058055 L209.827503773,276.708157619 L210.791962817,275.481748059 L218.282538067,279.50188399 L223.09532261,296.932569903 L232.048467528,299.436306926 L233.000186872,302.843252297 L233.865087721,303.525253522 L234.131879714,305.189729221 L234.233169725,305.33676921 L236.46212282,306.596480812 L236.977603731,307.083405139 L238.052701463,308.638106278 L238.483068025,309.025996287 L240.428144051,310.291749585 L241.034997801,310.809423706 L240.670171972,311.176188158 L240.29489746,311.553889404 L239.957221038,311.962122683 L238.241342025,314.121553814 L237.771370442,314.982879298 L237.456385721,316.057357924 L236.719484575,320.439977069 L236.682773289,321.581090751 L236.899248876,322.676494554 L237.738023555,325.760670181 L238.105671968,326.732202109 L238.355803891,327.646025549 L238.518650928,328.115164787 L240.743231651,331.046850387 L241.059405827,331.177077421 L241.462973262,331.244316133 L242.444019412,331.327805904 L244.562475524,333.424910026 L247.427038407,338.799607432 L247.644201447,339.588077228 L247.660151562,340.865625887 L247.733385442,341.220143198 L247.951590812,341.545355293 L249.082715207,342.69923239 L249.482300032,343.049537482 L249.894534055,343.36086264 L250.214716084,343.52106571 L252.134043522,343.495583189 L254.262894067,341.488993847 L255.043923442,341.1026971 L255.874651302,340.973287638 L256.768768872,341.154279762 L257.260534893,341.412876154 L257.708057959,341.75585164 L258.246349049,342.255736269 L259.866282703,343.752934693 L260.2630725,344.294108036 L261.520635742,347.639210469 L261.790433745,348.246283203 L262.119370916,348.824831981 L262.526102099,349.239743569 L262.973335574,349.356510737 L263.470768495,349.26584763 L264.024154938,349.057793136 L263.797694553,349.858439039 L263.463712755,350.575963154 L263.102381504,351.278258911 L262.794539293,352.029532112 L262.64789495,352.94582969 L262.693998023,353.92324855 L263.148596586,357.477097109 L263.867877175,359.088585116 L264.096391646,360.180193855 L264.315832645,360.684585031 L264.688674198,361.023616162 L265.336965253,361.28846849 L266.022836506,361.40958271 L266.892296809,362.957150437 L267.903585816,367.881477226 L274.2156623,371.118057259 L274.278080859,373.914269638 Z" fill="#cee3f5" id="MX.SI" stroke="#6e6e6e" stroke-width="0.4"><desc><labelrank>4</labelrank><code_hasc>MX.SI</code_hasc><name>Sinaloa</name><admin>Mexico</admin><type_en>State</type_en><region /><woe_id>2346288</woe_id><longitude>-108</longitude><woe_name>Sinaloa</woe_name><fips>MX25</fips><woe_label>Sinaloa, MX, Mexico</woe_label><latitude>25</latitude><iso_a2>MX</iso_a2><postal>SI</postal><type>Estado</type><id>MX.SI</id></desc></path><path d="M129.911353385,219.564741212 L131.401030284,224.617963373 L128.530430759,231.095931579 L122.928031327,227.579901032 L125.957544926,220.351335468 L129.911353385,219.564741212 M208.594129471,277.523706242 L207.707377466,282.025399555 L193.636986543,292.850313732 L191.245106765,292.695760975 L191.263556983,288.753882697 L186.568713533,282.669104835 L186.259905437,284.428502067 L180.033316304,282.956347067 L176.523897001,273.403135042 L164.74755598,268.462789192 L166.843579384,268.287105513 L162.921259851,259.894227133 L165.646488596,254.423686907 L158.495305676,253.242010429 L158.821557317,251.259106256 L157.610792694,254.834934517 L153.051115081,252.251148522 L146.555224081,240.944357877 L140.897153215,238.83340159 L136.213536844,231.355708316 L138.011440071,230.340918962 L131.93071707,225.977860788 L130.950910379,217.455176689 L127.364391916,216.495279805 L128.309125351,213.138802909 L121.271479457,202.321092286 L121.432566983,195.018830166 L115.672972901,183.422890792 L116.443298981,170.552749502 L105.672326638,166.660709191 L105.253797074,162.436255505 L99.0172793858,157.856091535 L97.5854657761,161.911266703 L93.9000295883,161.073066017 L79.8117110861,150.049832355 L78.6054701586,140.56152668 L83.5829937309,135.981031488 L158.647254507,170.343013238 L202.04426981,172.740623927 L201.72878613,174.653408233 L201.39676151,176.697582986 L201.055402846,178.741370403 L200.17069119,183.777575051 L200.060720239,184.2814119 L199.984502622,184.685725724 L200.031080373,185.034777929 L200.285167415,185.374489304 L202.56989663,187.448750093 L203.713748513,188.485786585 L204.859203119,189.520917691 L209.241133844,192.815411467 L209.284748183,193.403649801 L209.450462796,196.392593153 L209.470535515,197.314915145 L209.686954144,201.909501999 L209.760347601,203.441420358 L209.7861914,203.798519654 L209.797332393,204.113981884 L209.744310967,204.406536007 L209.267768144,205.455549242 L207.631378007,219.24027726 L207.471587233,219.3601734 L207.102845272,219.379574545 L205.63301946,219.330420941 L206.244685852,238.465786836 L206.445558973,239.188995746 L206.645418545,239.913997949 L206.848241595,240.63720055 L207.057347514,241.358098346 L208.092465896,244.491652124 L208.246012094,245.124481722 L208.241249788,245.466054788 L206.354152812,247.211105101 L206.040614847,247.346247643 L197.321993143,245.942496463 L196.934236754,246.099852588 L195.708612076,247.106148496 L195.289224314,247.468259645 L195.06207904,247.892191948 L195.211821718,248.415231973 L197.772851005,255.34538543 L200.007580999,256.828692043 L200.244216716,257.237932985 L200.685574749,258.761272829 L201.813974098,259.792135393 L202.379390696,260.305815177 L202.943298999,260.821149066 L202.726893263,261.073604667 L202.58574368,261.390403859 L202.525537754,261.737516874 L202.55299008,262.083432937 L202.98997763,262.655743175 L203.424750957,263.140086501 L204.810207188,264.190112934 L205.022623605,264.510670192 L205.135763106,264.894345436 L205.16806891,265.336819363 L205.126194269,265.821525091 L205.024821334,266.308515359 L204.899746994,266.789699717 L204.782846019,267.258718957 L204.782683606,267.677652327 L204.914295571,268.094945873 L205.251533049,268.88349869 L205.321637325,269.605493781 L205.078355145,270.09630296 L204.319995989,271.064086559 L204.140494753,271.664767964 L204.16578568,272.200995808 L204.649159868,273.239255424 L205.52519873,274.730242759 L205.979170785,275.468948177 L206.467833011,276.162023658 L206.971207501,276.640121207 L207.246563449,276.689784269 L207.991342696,276.550880198 L208.129037574,276.583442849 L208.594129471,277.523706242 Z" fill="#cee3f5" id="MX.SO" stroke="#6e6e6e" stroke-width="0.4"><desc><labelrank>4</labelrank><code_hasc>MX.SO</code_hasc><name>Sonora</name><admin>Mexico</admin><type_en>State</type_en><region /><woe_id>2346289</woe_id><longitude>-110</longitude><woe_name>Sonora</woe_name><fips>MX26</fips><woe_label>Sonora, MX, Mexico</woe_label><latitude>29</latitude><iso_a2>MX</iso_a2><postal>SO</postal><type>Estado</type><id>MX.SO</id></desc></path><path d="M374.733782626,336.242540353 L366.273404227,349.967606094 L342.865713291,368.470182986 L346.239720504,379.34087072 L353.973209887,387.17666698 L364.215115912,383.987334589 L365.051068966,396.038237641 L360.785662493,402.048041991 L353.429916035,397.93303612 L349.898248013,391.794489672 L343.293339245,387.337977653 L334.759596504,392.343213778 L330.870900335,401.225385947 L333.003898422,404.656561655 L335.614761214,410.908520029 L332.525281748,415.559065164 L326.713409362,415.772591991 L326.43249529,421.627302889 L310.923382129,417.304113454 L311.191070617,410.183880809 L316.003330186,408.35333405 L315.461530232,403.808093499 L318.617162155,400.451842531 L324.084873241,398.742917796 L326.528167673,391.444336123 L319.15388158,386.331470406 L316.620821379,395.514384469 L312.829259535,395.958870336 L313.90700755,386.177409611 L311.220934503,384.221635451 L308.487410255,394.48169076 L310.078833688,381.145453516 L305.524051624,380.27351611 L306.23958185,389.923925933 L302.228489514,390.559425932 L301.15153289,390.910537323 L298.638621948,392.037352545 L297.808504566,392.459266973 L297.930306395,392.136714615 L298.057279267,391.805472828 L298.161139561,391.471747588 L298.217656066,391.145469202 L302.816574329,363.980886054 L309.293077739,358.660094032 L308.456126013,349.072424731 L320.830331391,339.09843982 L338.178042076,339.463265362 L338.095041387,330.729191985 L334.151063463,324.655411626 L344.944631779,322.483351251 L357.536701695,328.767263974 L357.303392367,332.017026154 L365.743458301,330.384624021 L368.793858117,334.558977683 L374.733782626,336.242540353 Z" fill="#cee3f5" id="MX.ZA" stroke="#6e6e6e" stroke-width="0.4"><desc><labelrank>6</labelrank><code_hasc>MX.ZA</code_hasc><name>Zacatecas</name><admin>Mexico</admin><type_en>State</type_en><region /><woe_id>2346295</woe_id><longitude>-102</longitude><woe_name>Zacatecas</woe_name><fips>MX32</fips><woe_label>Zacatecas, MX, Mexico</woe_label><latitude>23</latitude><iso_a2>MX</iso_a2><postal>ZA</postal><type>Estado</type><id>MX.ZA</id></desc></path><path d="M394.510083676,258.423666117 L395.97842432,259.556440567 L396.215492723,260.278682416 L396.382248056,260.3795526 L396.663140737,260.785136138 L394.474235549,261.934207453 L392.477941628,263.299103195 L392.389990372,263.63221921 L392.406355286,264.21436887 L392.50845523,264.772910359 L392.675537797,265.036515579 L395.879963192,266.108080832 L396.864561226,278.559484318 L397.574167701,279.402202086 L399.104153735,279.644611443 L399.352882645,279.845222877 L400.105325777,280.220646841 L400.391280557,280.694452266 L400.605199169,280.766744408 L400.328348219,281.190708659 L400.002964212,281.634504424 L399.749234987,282.114183433 L399.684954666,282.639712635 L399.679674646,283.27949944 L399.486399899,283.677150072 L399.170086358,284.016424793 L398.789908076,284.476939285 L399.235827326,284.463621574 L399.675915068,284.443597361 L400.115406998,284.407331975 L400.556273938,284.347899694 L400.836151623,284.381633458 L404.52430334,286.332718538 L404.733537176,287.715076853 L404.595725344,288.383232686 L404.314650372,289.00205849 L404.159279434,289.218579998 L404.040756531,289.373252029 L403.965385356,289.571737643 L403.941550582,289.915879227 L403.945068694,290.389162567 L403.977941929,290.77972092 L404.093742532,291.138456586 L404.72986134,291.9257653 L405.983255781,291.167135141 L407.77595081,293.513104709 L408.080634229,293.662470039 L409.083771227,293.548543325 L409.397990774,293.596453085 L410.63961297,299.142132785 L412.682502489,297.996430219 L413.067809948,298.170791017 L416.040769113,300.993243963 L422.977667652,300.052706955 L423.673462572,311.967979607 L423.84728094,312.579770096 L426.141490746,312.678606811 L426.217762256,312.891700016 L426.249262439,313.2958027 L426.278989459,313.736790888 L426.032535712,314.108265087 L416.948763335,322.29643811 L411.321873017,323.344077257 L411.167340666,330.011617572 L408.264006943,328.893785221 L404.283144112,331.13088883 L402.851485799,333.447290687 L402.654565947,333.512065827 L401.967838656,333.171063789 L400.58469975,333.687447307 L400.226297526,333.957398624 L398.743502404,335.42236637 L398.749617604,335.912050556 L398.938260726,336.547521649 L399.198236263,337.20239395 L399.413382519,337.741113474 L400.539835875,337.221320746 L401.101782535,336.960660965 L401.663669867,336.700503076 L401.978284912,337.965396556 L402.00483251,338.074684627 L402.080574476,338.388363276 L402.156282059,338.700798438 L402.233158127,339.013816528 L402.433527377,339.867371224 L402.500863861,340.300259254 L402.488896862,340.715947023 L401.799634604,343.731579275 L401.710156032,344.563230738 L401.744950297,345.728715458 L401.9385978,346.827830957 L405.271869344,349.952777381 L405.408600958,350.464244401 L405.47258822,350.692420811 L405.563737499,351.0105686 L405.623718537,351.321078388 L405.590749517,351.526458585 L402.415931851,354.641531766 L397.112690128,355.441320884 L395.882960674,357.744418095 L395.178849511,359.598091806 L394.918375702,360.118802665 L394.820921903,360.383117561 L394.788789818,360.64542868 L395.379195346,362.459150101 L395.651813128,363.37292546 L395.92449362,364.285455658 L395.327979046,364.16310438 L394.730133769,363.994649813 L392.856705038,363.411442692 L392.227826433,363.733715221 L391.647085936,364.290814693 L391.061492091,364.885234404 L391.526064853,365.137895356 L392.134549209,365.475845258 L392.659541151,365.860968833 L392.865371204,366.253020211 L392.815677582,366.592920685 L392.76366873,366.932886095 L392.660706988,367.611530372 L391.185554708,367.449441017 L386.660905198,367.468274048 L384.177276094,368.140385046 L379.524060813,342.226901628 L374.733782626,336.242540353 L375.133741074,322.840231501 L388.05072633,318.757298611 L377.029769623,313.54332543 L379.666163418,312.740488393 L375.049034076,309.452284752 L373.440033633,302.786092572 L365.202593895,292.984772064 L374.990604182,284.093256439 L375.956028864,286.822762704 L378.097159953,284.377229942 L378.92940143,276.248538694 L374.773683634,277.3302214 L373.371326513,272.884236929 L380.952272091,268.94937744 L382.788150316,261.172331665 L386.467683973,258.174998659 L391.012760638,261.774284196 L394.510083676,258.423666117 Z" fill="#cee3f5" id="MX.NL" stroke="#6e6e6e" stroke-width="0.4"><desc><labelrank>4</labelrank><code_hasc>MX.NL</code_hasc><name>Nuevo León</name><admin>Mexico</admin><type_en>State</type_en><region /><woe_id>2346282</woe_id><longitude>-99</longitude><woe_name>Nuevo León</woe_name><fips>MX19</fips><woe_label>Nuevo Leon, MX, Mexico</woe_label><latitude>25</latitude><iso_a2>MX</iso_a2><postal>NL</postal><type>Estado</type><id>MX.NL</id></desc></path><path d="M392.660706988,367.611530372 L392.543195146,368.34533217 L392.345858665,369.066527454 L392.149550828,369.787660428 L392.034147592,370.525066647 L392.383122022,370.181445511 L392.936110522,369.657580709 L393.49226997,369.285289786 L393.847759027,369.401640664 L394.056052126,370.716857571 L395.993353305,372.888618001 L396.176682003,373.694427958 L396.127110775,374.036891377 L396.011847099,374.341510792 L395.636436243,374.887874715 L393.654326256,375.952021023 L393.356469191,376.291690079 L393.313805018,376.567897069 L394.258564114,378.584462179 L394.545298669,378.722855959 L402.040185081,381.471349073 L402.894716005,381.74805297 L403.754446907,382.000748678 L404.326677793,382.185319629 L404.723128822,382.257207324 L404.921268539,382.057829356 L404.904567139,381.434614214 L404.554905982,380.055251717 L404.471267583,379.826387372 L404.3835708,379.686049145 L404.391138544,379.598654575 L404.590109334,379.537431956 L404.79171759,379.593143151 L405.052357561,379.758977652 L405.309505264,379.958528042 L407.057490697,381.746476547 L408.193266453,380.554400122 L408.442893311,380.934586958 L408.502888828,381.069563833 L408.878967695,381.736912345 L409.706722399,383.004266676 L410.906813903,385.407262891 L411.298434587,385.861031556 L411.75479476,386.173068734 L412.254669751,386.332856604 L414.618282495,386.665927737 L415.900172379,386.983472852 L417.584961776,387.540404996 L418.290780718,387.70326742 L420.126697594,387.924673219 L420.732799938,387.951122221 L422.159751931,386.757985235 L422.815555036,386.658757353 L423.55159146,386.566351006 L424.192620093,386.321529096 L424.566909954,385.768771192 L424.780877714,385.940176887 L425.004716489,386.096237595 L425.239203616,386.226946967 L425.488538834,386.320920146 L425.625034948,386.404230744 L425.759461533,386.493850981 L426.022692756,386.677037 L426.504119494,386.955322942 L427.862076068,387.912959195 L430.508971632,389.397122143 L431.471202602,390.272131954 L431.691990453,390.832186122 L431.700554895,391.546601208 L431.452803366,392.509383355 L429.571586511,396.737292928 L429.24770142,396.602608996 L429.015685087,396.890869641 L428.804874773,396.913918982 L428.291912802,396.79137971 L428.027599141,396.813930553 L427.644200849,397.008074297 L426.478430859,396.872603352 L426.554737441,397.540517151 L427.879120365,397.313375882 L427.943825054,397.485488412 L427.656487251,397.699649953 L427.41712232,398.014208165 L427.630632406,398.491173229 L427.084011759,398.682639809 L427.203364776,399.194341725 L427.606199437,399.722788822 L427.902803681,399.963457936 L428.820323915,399.846336067 L428.925040063,400.08925628 L428.944561759,400.387797543 L428.992555695,400.63911526 L429.573765861,400.856375078 L429.648224177,401.159063514 L429.551601379,401.495723293 L429.443557222,401.716833441 L429.216818695,402.033486033 L428.38599971,402.581216425 L428.339817826,402.654034788 L428.302304253,402.771414683 L428.255245028,402.882918448 L428.027590752,402.901465387 L427.744022279,402.764989638 L427.395917728,402.926416909 L427.265763202,403.090880888 L427.285170074,403.267204968 L427.508801629,403.452100722 L427.1822912,403.788477005 L426.310084255,403.708699973 L425.976121715,404.004060984 L426.009053822,405.370462972 L425.722124252,405.682713707 L425.632695527,405.850555087 L425.871831909,406.330461968 L426.20686461,406.689653113 L426.62353994,406.95231483 L427.109262342,407.156284205 L427.815382375,407.450509394 L428.236021273,407.781469068 L428.6870782,410.804576561 L427.109242994,415.364772558 L416.875864774,414.370634727 L413.098298463,405.404907887 L409.127948748,410.66297599 L404.624989564,411.72750104 L401.433552812,408.92314648 L399.912242485,411.268689125 L385.941466916,405.423117591 L381.028697377,410.018132504 L373.376593684,403.973267264 L360.785662493,402.048041991 L365.051068966,396.038237641 L364.215115912,383.987334589 L353.973209887,387.17666698 L346.239720504,379.34087072 L342.865713291,368.470182986 L366.273404227,349.967606094 L374.733782626,336.242540353 L379.524060813,342.226901628 L384.177276094,368.140385046 L386.660905198,367.468274048 L391.185554708,367.449441017 L392.660706988,367.611530372 Z" fill="#cee3f5" id="MX.SL" stroke="#6e6e6e" stroke-width="0.4"><desc><labelrank>7</labelrank><code_hasc>MX.SL</code_hasc><name>San Luis Potosí</name><admin>Mexico</admin><type_en>State</type_en><region /><woe_id>2346287</woe_id><longitude>-100</longitude><woe_name>San Luis Potosí</woe_name><fips>MX24</fips><woe_label>San Luis Potosi, MX, Mexico</woe_label><latitude>22</latitude><iso_a2>MX</iso_a2><postal>SL</postal><type>Estado</type><id>MX.SL</id></desc></path><path d="M444.339942845,389.057220586 L442.579082038,390.427765173 L434.803483118,384.456139555 L432.379520988,386.511004114 L429.438958625,385.826001381 L429.153475045,386.055494067 L427.769606285,385.830244286 L426.251116019,386.194457365 L425.488538834,386.320920146 L425.239203616,386.226946967 L425.004716489,386.096237595 L424.780877714,385.940176887 L424.566909954,385.768771192 L424.192620093,386.321529096 L423.55159146,386.566351006 L422.815555036,386.658757353 L422.159751931,386.757985235 L420.732799938,387.951122221 L420.126697594,387.924673219 L418.290780718,387.70326742 L417.584961776,387.540404996 L415.900172379,386.983472852 L414.618282495,386.665927737 L412.254669751,386.332856604 L411.75479476,386.173068734 L411.298434587,385.861031556 L410.906813903,385.407262891 L409.706722399,383.004266676 L408.878967695,381.736912345 L408.502888828,381.069563833 L408.442893311,380.934586958 L408.193266453,380.554400122 L407.057490697,381.746476547 L405.309505264,379.958528042 L405.052357561,379.758977652 L404.79171759,379.593143151 L404.590109334,379.537431956 L404.391138544,379.598654575 L404.3835708,379.686049145 L404.471267583,379.826387372 L404.554905982,380.055251717 L404.83211245,381.088354199 L404.904567139,381.434614214 L404.921268539,382.057829356 L404.723128822,382.257207324 L404.326677793,382.185319629 L403.754446907,382.000748678 L402.894716005,381.74805297 L402.040185081,381.471349073 L396.749135414,379.52710931 L395.711548905,379.101450172 L394.545298669,378.722855959 L394.258564114,378.584462179 L393.989341526,377.70399015 L393.865595949,377.456287202 L393.448544924,376.838925898 L393.313805018,376.567897069 L393.356469191,376.291690079 L393.654326256,375.952021023 L395.636436243,374.887874715 L396.011847099,374.341510792 L396.127110775,374.036891377 L396.176682003,373.694427958 L395.993353305,372.888618001 L394.056052126,370.716857571 L393.847759027,369.401640664 L393.49226997,369.285289786 L392.034147592,370.525066647 L392.149550828,369.787660428 L392.345858665,369.066527454 L392.543195146,368.34533217 L392.660706988,367.611530372 L392.712789794,367.272814377 L392.76366873,366.932886095 L392.815677582,366.592920685 L392.865371204,366.253020211 L392.659541151,365.860968833 L391.061492091,364.885234404 L391.647085936,364.290814693 L392.227826433,363.733715221 L392.856705038,363.411442692 L393.582439063,363.526595718 L394.730133769,363.994649813 L395.327979046,364.16310438 L395.92449362,364.285455658 L395.651813128,363.37292546 L395.379195346,362.459150101 L395.094179279,361.549488897 L394.788789818,360.64542868 L394.820921903,360.383117561 L394.918375702,360.118802665 L395.882960674,357.744418095 L396.837462458,355.79664246 L397.112690128,355.441320884 L397.517580586,355.238672055 L402.415931851,354.641531766 L404.475574529,351.595343324 L405.366316974,351.59274496 L405.590749517,351.526458585 L405.623718537,351.321078388 L405.563737499,351.0105686 L405.47258822,350.692420811 L405.408600958,350.464244401 L405.271869344,349.952777381 L404.996442211,349.599281164 L401.9385978,346.827830957 L401.744950297,345.728715458 L401.710156032,344.563230738 L401.799634604,343.731579275 L402.488896862,340.715947023 L402.500863861,340.300259254 L402.433527377,339.867371224 L402.233158127,339.013816528 L402.156282059,338.700798438 L402.080574476,338.388363276 L402.00483251,338.074684627 L401.978284912,337.965396556 L401.663669867,336.700503076 L401.101782535,336.960660965 L400.539835875,337.221320746 L399.413382519,337.741113474 L399.198236263,337.20239395 L398.938260726,336.547521649 L398.749617604,335.912050556 L398.743502404,335.42236637 L400.226297526,333.957398624 L400.58469975,333.687447307 L401.967838656,333.171063789 L402.654565947,333.512065827 L402.851485799,333.447290687 L404.283144112,331.13088883 L408.264006943,328.893785221 L411.167340666,330.011617572 L411.321873017,323.344077257 L416.948763335,322.29643811 L426.032535712,314.108265087 L426.278989459,313.736790888 L426.249262439,313.2958027 L426.217762256,312.891700016 L426.141490746,312.678606811 L423.84728094,312.579770096 L423.673462572,311.967979607 L422.977667652,300.052706955 L417.227639525,298.807441604 L416.040769113,300.993243963 L413.067809948,298.170791017 L412.682502489,297.996430219 L410.63961297,299.142132785 L409.397990774,293.596453085 L409.083771227,293.548543325 L408.080634229,293.662470039 L407.77595081,293.513104709 L405.983255781,291.167135141 L404.72986134,291.9257653 L404.093742532,291.138456586 L403.977941929,290.77972092 L403.945068694,290.389162567 L403.941550582,289.915879227 L403.965385356,289.571737643 L404.040756531,289.373252029 L404.159279434,289.218579998 L404.314650372,289.00205849 L404.595725344,288.383232686 L404.733537176,287.715076853 L404.714517665,287.021205262 L404.52430334,286.332718538 L400.836151623,284.381633458 L400.556273938,284.347899694 L400.115406998,284.407331975 L399.675915068,284.443597361 L399.235827326,284.463621574 L398.789908076,284.476939285 L399.170086358,284.016424793 L399.486399899,283.677150072 L399.679674646,283.27949944 L399.684954666,282.639712635 L399.749234987,282.114183433 L400.002964212,281.634504424 L400.328348219,281.190708659 L400.605199169,280.766744408 L400.391280557,280.694452266 L400.105325777,280.220646841 L399.352882645,279.845222877 L399.104153735,279.644611443 L396.864561226,278.559484318 L395.879963192,266.108080832 L392.675537797,265.036515579 L392.50845523,264.772910359 L392.406355286,264.21436887 L392.389990372,263.63221921 L392.477941628,263.299103195 L394.474235549,261.934207453 L395.530626667,261.346046551 L396.593334107,260.818799441 L396.652151459,260.790435763 L396.663140737,260.785136138 L401.11440547,262.937081188 L402.576542354,275.34020146 L411.332802666,290.649717037 L431.260557903,298.036100163 L442.740391604,298.305251907 L448.074881362,302.279745533 L454.175047161,299.264360224 L444.751771503,334.833496541 L443.936056385,352.041853795 L441.805322676,352.557719157 L443.322388733,355.786176553 L444.076720225,353.63851438 L444.478143266,372.165123549 L441.490304149,381.040550424 L442.746619919,379.548326843 L444.339942845,389.057220586 Z" fill="#cee3f5" id="MX.TM" stroke="#6e6e6e" stroke-width="0.4"><desc><labelrank>4</labelrank><code_hasc>MX.TM</code_hasc><name>Tamaulipas</name><admin>Mexico</admin><type_en>State</type_en><region /><woe_id>2346291</woe_id><longitude>-98</longitude><woe_name>Tamaulipas</woe_name><fips>MX28</fips><woe_label>Tamaulipas, MX, Mexico</woe_label><latitude>24</latitude><iso_a2>MX</iso_a2><postal>TM</postal><type>Estado</type><id>MX.TM</id></desc></path><path d="M353.429916035,397.93303612 L344.900284588,406.221923127 L333.003898422,404.656561655 L330.870900335,401.225385947 L334.759596504,392.343213778 L343.293339245,387.337977653 L349.898248013,391.794489672 L353.429916035,397.93303612 Z" fill="#cee3f5" id="MX.AG" stroke="#6e6e6e" stroke-width="0.4"><desc><labelrank>9</labelrank><code_hasc>MX.AG</code_hasc><name>Aguascalientes</name><admin>Mexico</admin><type_en>State</type_en><region /><woe_id>2346264</woe_id><longitude>-102</longitude><woe_name>Aguascalientes</woe_name><fips>MX01</fips><woe_label>Aguascalientes, MX, Mexico</woe_label><latitude>22</latitude><iso_a2>MX</iso_a2><postal>AG</postal><type>Estado</type><id>MX.AG</id></desc></path><path d="M146.769144407,474.556154205 L143.521103019,473.43438692 L145.144392431,471.0920148 L146.769144407,474.556154205 M308.701878367,461.096331998 L309.111257736,461.252671963 L311.144149947,460.543051414 L311.763002551,460.199822997 L312.26030103,459.623781257 L312.741028586,459.058895775 L313.312002641,458.746597663 L316.913222113,463.304747203 L317.26159968,471.568099377 L316.962832132,471.518689006 L314.991625287,473.557828692 L314.209699046,473.45319558 L313.870277182,475.519450547 L313.617465447,475.805684466 L312.683038554,476.089503121 L312.023828305,477.580038633 L311.789570876,477.838799384 L311.491887041,478.046914298 L311.250998836,478.21694056 L297.833662217,468.427255917 L291.816688399,467.215683878 L291.823966642,466.665572285 L293.100527245,464.835585024 L300.435506731,463.121011996 L301.852817416,461.252116076 L301.978836859,460.805524533 L302.049390666,460.231252448 L302.233039604,459.824271372 L304.043879822,457.914373582 L304.143122197,458.204414666 L304.162095518,458.301117731 L304.180555588,458.44246808 L304.225998304,458.544087645 L304.239086951,458.635839284 L304.161659436,458.750064232 L304.748559593,459.111186674 L305.961340639,459.753717317 L306.896181331,460.35685174 L308.701878367,461.096331998 Z" fill="#cee3f5" id="MX.CL" stroke="#6e6e6e" stroke-width="0.4"><desc><labelrank>7</labelrank><code_hasc>MX.CL</code_hasc><name>Colima</name><admin>Mexico</admin><type_en>State</type_en><region /><woe_id>2346271</woe_id><longitude>-103</longitude><woe_name>Colima</woe_name><fips>MX08</fips><woe_label>Colima, MX, Mexico</woe_label><latitude>19</latitude><iso_a2>MX</iso_a2><postal>CL</postal><type>Estado</type><id>MX.CL</id></desc></path><path d="M333.003898422,404.656561655 L344.900284588,406.221923127 L353.429916035,397.93303612 L360.785662493,402.048041991 L358.223591739,409.003636396 L359.826434045,413.922032375 L353.546992485,418.81297808 L348.419697274,427.481867915 L351.210340305,432.324372682 L348.287799374,437.184210781 L326.202142985,444.188514982 L327.158768234,447.407879665 L333.370862545,447.787779627 L333.8679169,459.229561378 L337.021312288,458.860430784 L338.376989348,461.315680188 L324.768931407,471.827308253 L321.726552802,469.465195301 L317.26159968,471.568099377 L317.13749523,470.913857374 L316.939905794,470.302131917 L316.165092497,468.547122382 L316.913222113,463.304747203 L313.312002641,458.746597663 L312.741028586,459.058895775 L312.26030103,459.623781257 L311.763002551,460.199822997 L311.144149947,460.543051414 L309.840229819,460.658913618 L309.111257736,461.252671963 L306.896181331,460.35685174 L305.961340639,459.753717317 L304.748559593,459.111186674 L304.161659436,458.750064232 L304.239086951,458.635839284 L304.225998304,458.544087645 L304.180555588,458.44246808 L304.162095518,458.301117731 L304.143122197,458.204414666 L304.043879822,457.914373582 L302.233039604,459.824271372 L302.049390666,460.231252448 L301.978836859,460.805524533 L301.852817416,461.252116076 L300.435506731,463.121011996 L293.100527245,464.835585024 L291.816688399,467.215683878 L283.499331149,463.151740034 L266.831163504,436.91701727 L275.850111043,433.982044787 L277.371187541,431.487467867 L276.257302043,430.66680471 L276.101756812,430.303402984 L276.392396882,430.179802964 L276.640756992,429.970469524 L277.093936603,429.196502589 L278.233566768,427.767519604 L279.239036004,426.177505408 L279.843995194,425.390351496 L280.560538649,424.735125464 L281.399972765,424.291202032 L281.700089413,424.283861724 L282.076696363,424.777973424 L284.400815369,424.437475982 L287.48808192,422.317746929 L287.708252074,422.301000641 L287.930089266,422.312775044 L288.152453824,422.345624181 L288.58077206,422.457134538 L288.83557587,422.565688311 L291.241675373,424.649715039 L293.452546756,425.049922074 L298.806015561,429.817708415 L300.549508799,422.970002494 L300.187257707,418.746736431 L304.338053379,417.527094918 L305.934164683,415.909964904 L306.072032428,414.471962692 L306.20114174,414.035015472 L306.4666349,413.793720186 L306.299703915,413.711018138 L304.947568139,412.985892515 L303.453519353,412.132721332 L301.970615723,411.251618173 L300.491923547,410.347560766 L300.989298113,409.729385106 L301.380931675,409.133576058 L301.66157819,408.483266359 L301.823650432,407.696619981 L301.885808741,407.299593671 L302.192239344,406.150527313 L302.908279988,404.311120655 L302.995253733,403.976053909 L302.362700009,403.145821229 L301.724693371,402.345250794 L300.357018467,400.813293177 L298.64111034,399.166768706 L296.859756705,397.603714627 L296.391578483,397.130919619 L296.266859945,396.754985503 L296.388432924,396.308440937 L296.656841773,395.629958625 L297.808504566,392.459266973 L298.638621948,392.037352545 L301.15153289,390.910537323 L302.228489514,390.559425932 L306.23958185,389.923925933 L305.524051624,380.27351611 L310.078833688,381.145453516 L308.487410255,394.48169076 L311.220934503,384.221635451 L313.90700755,386.177409611 L312.829259535,395.958870336 L316.620821379,395.514384469 L319.15388158,386.331470406 L326.528167673,391.444336123 L324.084873241,398.742917796 L318.617162155,400.451842531 L315.461530232,403.808093499 L316.003330186,408.35333405 L311.191070617,410.183880809 L310.923382129,417.304113454 L326.43249529,421.627302889 L326.713409362,415.772591991 L332.525281748,415.559065164 L335.614761214,410.908520029 L333.003898422,404.656561655 Z" fill="#cee3f5" id="MX.JA" stroke="#6e6e6e" stroke-width="0.4"><desc><labelrank>4</labelrank><code_hasc>MX.JA</code_hasc><name>Jalisco</name><admin>Mexico</admin><type_en>State</type_en><region /><woe_id>2346277</woe_id><longitude>-103</longitude><woe_name>Jalisco</woe_name><fips>MX14</fips><woe_label>Jalisco, MX, Mexico</woe_label><latitude>20</latitude><iso_a2>MX</iso_a2><postal>JA</postal><type>Estado</type><id>MX.JA</id></desc></path><path d="M389.483918461,440.568961308 L393.35482994,447.099599045 L391.488260973,456.121119268 L393.117968439,459.191479747 L382.521752029,473.025898304 L378.776204346,474.772583316 L382.58417472,485.853794231 L378.241715066,482.078619553 L362.272924952,482.8257454 L355.661992933,480.284695505 L352.839815612,489.448188386 L347.502398755,490.820186359 L347.454799651,496.407911794 L316.862323635,486.760362294 L315.088518439,482.957905738 L312.066333334,480.594543456 L312.532396985,479.697019569 L312.211152699,479.079612629 L311.42709553,478.395518416 L311.250998836,478.21694056 L312.683038554,476.089503121 L313.617465447,475.805684466 L313.870277182,475.519450547 L314.209699046,473.45319558 L314.991625287,473.557828692 L317.26159968,471.568099377 L321.726552802,469.465195301 L324.768931407,471.827308253 L338.376989348,461.315680188 L337.021312288,458.860430784 L333.8679169,459.229561378 L333.370862545,447.787779627 L327.158768234,447.407879665 L326.202142985,444.188514982 L348.287799374,437.184210781 L351.700339238,437.635306582 L353.030722141,441.630501734 L358.016257372,441.747525343 L359.281055419,438.676241654 L362.769553763,438.207297996 L364.707583354,439.740332178 L363.828604971,444.948225844 L372.868195376,443.736104148 L372.497725612,446.851696779 L374.985793135,447.845625112 L384.388567882,448.01392904 L389.483918461,440.568961308 Z" fill="#cee3f5" id="MX.MC" stroke="#6e6e6e" stroke-width="0.4"><desc><labelrank>4</labelrank><code_hasc>MX.MC</code_hasc><name>Michoacán</name><admin>Mexico</admin><type_en>State</type_en><region /><woe_id>2346279</woe_id><longitude>-101</longitude><woe_name>Michoacán</woe_name><fips>MX16</fips><woe_label>Michoacan de Ocampo, MX, Mexico</woe_label><latitude>19</latitude><iso_a2>MX</iso_a2><postal>MI</postal><type>Estado</type><id>MX.MC</id></desc></path><path d="M266.704781466,386.430410247 L272.981179133,386.356880791 L270.035138826,380.199881618 L272.872327712,374.138368338 L274.278080859,373.914269638 L277.812904719,373.839799673 L278.940355062,373.985478412 L284.114207398,376.796712817 L284.339226693,377.280286416 L285.368293222,379.810423095 L285.173328899,380.104973427 L284.667406521,380.610456249 L284.119323586,381.115690695 L283.798729311,381.407161404 L283.131827268,382.16980306 L282.935823606,385.726028881 L287.903042154,382.557131463 L288.36226322,382.61305149 L289.080295951,382.988441989 L289.801727776,383.454248687 L290.271439143,383.777905143 L290.466182362,383.995448982 L290.588801445,384.286024186 L291.470222456,387.241724862 L293.261282364,388.542267917 L297.699428834,387.406379254 L297.949746684,389.280906088 L298.079626017,390.217535001 L298.217656066,391.145469202 L298.161139561,391.471747588 L298.057279267,391.805472828 L297.930306395,392.136714615 L297.808504566,392.459266973 L296.656841773,395.629958625 L296.388432924,396.308440937 L296.266859945,396.754985503 L296.391578483,397.130919619 L296.859756705,397.603714627 L298.64111034,399.166768706 L300.357018467,400.813293177 L301.724693371,402.345250794 L302.362700009,403.145821229 L302.995253733,403.976053909 L302.908279988,404.311120655 L302.192239344,406.150527313 L301.885808741,407.299593671 L301.823650432,407.696619981 L301.66157819,408.483266359 L300.491923547,410.347560766 L301.970615723,411.251618173 L303.453519353,412.132721332 L306.4666349,413.793720186 L306.20114174,414.035015472 L306.072032428,414.471962692 L305.934164683,415.909964904 L304.338053379,417.527094918 L300.187257707,418.746736431 L298.806015561,429.817708415 L293.452546756,425.049922074 L291.241675373,424.649715039 L288.83557587,422.565688311 L288.58077206,422.457134538 L288.152453824,422.345624181 L287.930089266,422.312775044 L287.708252074,422.301000641 L287.48808192,422.317746929 L287.27187765,422.371703925 L284.400815369,424.437475982 L282.076696363,424.777973424 L281.700089413,424.283861724 L281.399972765,424.291202032 L280.560538649,424.735125464 L279.843995194,425.390351496 L279.239036004,426.177505408 L278.233566768,427.767519604 L277.093936603,429.196502589 L276.640756992,429.970469524 L276.392396882,430.179802964 L276.101756812,430.303402984 L270.376175878,428.273808991 L277.427562003,421.289394931 L278.589211443,412.124128704 L272.700298887,407.573252418 L268.639005245,399.745183815 L266.704781466,386.430410247 Z" fill="#cee3f5" id="MX.NA" stroke="#6e6e6e" stroke-width="0.4"><desc><labelrank>4</labelrank><code_hasc>MX.NA</code_hasc><name>Nayarit</name><admin>Mexico</admin><type_en>State</type_en><region /><woe_id>2346281</woe_id><longitude>-104</longitude><woe_name>Nayarit</woe_name><fips>MX18</fips><woe_label>Nayarit, MX, Mexico</woe_label><latitude>21</latitude><iso_a2>MX</iso_a2><postal>NA</postal><type>Estado</type><id>MX.NA</id></desc></path><path d="M639.923478347,439.962033001 L641.018662974,441.282462254 L647.032976388,445.432854245 L650.287219953,449.801143398 L649.202215957,463.011347384 L651.967592849,474.914449574 L649.878348125,481.341184489 L649.825819414,484.755875794 L606.693454543,488.415479224 L606.378111012,484.338267282 L604.966778405,484.385245321 L604.285397702,484.405524402 L603.605396638,484.426871798 L603.265353011,484.377637903 L602.598963128,483.827226285 L602.171208003,483.692604264 L600.779064799,483.801976204 L600.342634322,483.730240993 L599.87912473,483.501278957 L598.609495351,482.677104497 L598.220428527,482.497513194 L594.770964741,481.87306569 L593.261326736,481.92137693 L592.609510332,481.990217703 L592.147589435,482.165123678 L592.096301797,482.283159627 L592.005312455,482.528581363 L591.868780519,482.939925707 L591.93008214,484.372311449 L591.749702813,484.995151538 L591.54102888,485.562701191 L591.364110673,485.835608363 L586.060265949,486.134663743 L578.773240079,481.341395546 L578.440484921,474.169013722 L575.162997017,474.495823047 L574.121856667,474.416421919 L573.907112519,474.443553117 L573.58728318,474.617189097 L573.336607308,474.541475751 L572.54515,473.994964288 L572.138718504,473.578560799 L571.913157209,473.009367054 L571.750750371,472.390333592 L571.535334484,471.828110547 L571.229902165,471.4189688 L570.857002013,470.994093189 L570.546470729,470.543506149 L570.438213709,470.084838496 L572.127441299,469.464763706 L582.737221402,468.237523305 L584.796877165,470.374216382 L580.542536439,471.941260876 L584.449248534,472.674827571 L584.00158413,470.862224012 L586.668018305,475.471865552 L586.573399974,472.877570607 L593.95318249,473.704434007 L593.4088734,471.884829127 L600.671957821,467.788856874 L597.99771724,468.675537556 L598.576383242,465.996093149 L594.954023811,464.344904626 L598.828752026,460.508961301 L592.836726851,464.428883901 L609.622477932,450.162609855 L609.813148247,441.055002253 L614.817775762,434.047994138 L613.048176904,420.445853589 L614.938146499,413.111504681 L615.283672367,419.927931742 L615.757309699,420.596056679 L618.964004485,420.526812523 L622.476897968,422.757671062 L624.102192442,421.122600853 L639.923478347,439.962033001 Z" fill="#cee3f5" id="MX.CM" stroke="#6e6e6e" stroke-width="0.4"><desc><labelrank>6</labelrank><code_hasc>MX.CM</code_hasc><name>Campeche</name><admin>Mexico</admin><type_en>State</type_en><region /><woe_id>2346267</woe_id><longitude>-90</longitude><woe_name>Campeche</woe_name><fips>MX04</fips><woe_label>Campeche, MX, Mexico</woe_label><latitude>18</latitude><iso_a2>MX</iso_a2><postal>CM</postal><type>Estado</type><id>MX.CM</id></desc></path><path d="M431.800064066,533.251122832 L436.66727625,530.904807541 L436.491690144,527.591524492 L442.537938516,522.121071408 L444.13328129,516.065026946 L436.413903386,509.011886294 L435.441055827,495.177383543 L439.921193136,491.792828709 L448.134519185,493.52888037 L447.575237554,488.43020566 L452.15209983,483.292627409 L451.534846598,487.90399729 L456.025116663,492.383640139 L460.40990297,487.622240007 L466.479089288,488.468089503 L471.057092634,484.404469814 L472.119041464,482.17089806 L472.273204382,481.775333664 L472.345777359,481.286857418 L473.554052222,474.973103135 L479.525311224,477.851478452 L485.734855439,487.015833416 L493.233824147,487.385725567 L493.697136909,488.041266795 L494.385905618,489.621779471 L494.815421922,490.344167752 L494.431234313,491.530688686 L493.854300555,492.527823862 L492.390824093,494.390118223 L492.323823176,494.500974666 L492.262922685,494.614058438 L491.925328641,495.617169551 L491.99593765,496.275845088 L492.282144013,496.921032694 L494.824082481,501.456189262 L495.121087441,501.798856254 L495.470751538,501.948538286 L499.413925126,501.729123371 L500.309722216,501.267294477 L500.428847816,500.723492922 L500.883280407,500.480205255 L501.253700581,500.21693938 L501.613603202,499.986740153 L502.183216891,499.814387584 L503.217271738,498.673613639 L508.277556591,496.091964256 L508.491149079,496.300042974 L508.578406282,496.607247858 L508.580542509,496.946250372 L508.53482041,497.242375873 L508.51289266,497.434348988 L508.440550929,498.123611349 L508.276434913,498.264727746 L507.61064448,498.638648988 L507.47112025,498.915397204 L507.420719373,499.192845176 L507.407973105,499.477259344 L507.376472849,499.7726231 L508.130985071,500.554940268 L509.611801286,502.143584291 L511.772013911,504.214300967 L513.595866933,504.872738851 L515.172513131,508.294164676 L516.694735321,508.419214705 L518.341960474,508.376671799 L519.508772867,508.339936727 L525.510168369,508.515634661 L529.161075158,508.546125345 L532.814930158,508.572377578 L536.470682763,508.59696264 L540.128291952,508.618622437 L540.335957934,509.22644366 L540.400288468,509.91899609 L540.435016164,511.969939364 L539.815165313,511.88109992 L539.579401546,512.30104248 L539.595360162,515.223900026 L538.616378615,515.918981438 L538.291210113,516.150526749 L536.924972362,517.011670611 L536.649418406,517.334907659 L536.600137515,517.83023155 L536.690261994,518.484593717 L536.930913874,519.672992046 L536.974707762,520.186137762 L536.96775398,520.681767327 L536.888558731,521.167289868 L536.717913295,521.647466035 L535.478028252,523.495747294 L535.057129088,524.53028301 L535.322413961,525.486804402 L536.986551055,528.637476169 L537.31363958,529.443658889 L537.420360617,530.152732493 L537.386193368,530.605608051 L537.340036949,531.086808898 L537.266611534,531.55930225 L537.146937445,531.984979744 L536.982818944,532.327200043 L536.592801745,532.971847149 L536.474967858,533.233842833 L529.390828813,530.016650752 L528.069209958,531.294575641 L535.851992022,535.500028546 L521.41399225,532.731620732 L524.587406642,529.492989648 L519.688885072,531.402138459 L518.11103234,527.310147125 L513.331202,531.438815039 L518.696325727,530.769715077 L516.487385895,531.884188326 L520.369855878,532.80459968 L511.417754782,533.501938527 L504.958521492,538.926610949 L478.977712973,547.635823407 L462.129795069,541.534426629 L450.263858936,540.872203615 L440.779641271,535.619905385 L443.200016825,535.711335194 L431.800064066,533.251122832 Z" fill="#cee3f5" id="MX.OA" stroke="#6e6e6e" stroke-width="0.4"><desc><labelrank>6</labelrank><code_hasc>MX.OA</code_hasc><name>Oaxaca</name><admin>Mexico</admin><type_en>State</type_en><region /><woe_id>2346283</woe_id><longitude>-96</longitude><woe_name>Oaxaca</woe_name><fips>MX20</fips><woe_label>Oaxaca, MX, Mexico</woe_label><latitude>16</latitude><iso_a2>MX</iso_a2><postal>OA</postal><type>Estado</type><id>MX.OA</id></desc></path><path d="M472.345777359,481.286857418 L472.273204382,481.775333664 L472.119041464,482.17089806 L471.057092634,484.404469814 L466.479089288,488.468089503 L460.40990297,487.622240007 L456.025116663,492.383640139 L451.534846598,487.90399729 L452.15209983,483.292627409 L447.575237554,488.43020566 L448.134519185,493.52888037 L439.921193136,491.792828709 L435.441055827,495.177383543 L426.066314039,492.665790531 L418.934540947,484.646372201 L423.981536344,481.024314785 L427.449795651,482.519287713 L425.571518716,476.202024809 L427.497787579,476.131247443 L425.862384196,473.299598718 L427.692931967,468.136681927 L427.472700146,457.572772695 L431.491021247,458.005742365 L438.004239368,465.78796177 L450.942681847,460.164001375 L440.898091901,450.905043941 L438.666096342,452.095188687 L436.042158732,447.939476963 L439.239523096,441.700325418 L435.145700656,438.479181972 L441.184835246,432.400989455 L441.489312665,432.18697547 L441.744703012,431.921176569 L441.946449183,431.607524723 L442.328162185,430.279577683 L441.765726467,427.603362027 L442.025945148,427.50073772 L442.313706642,427.382023026 L443.28657493,425.713180144 L443.233965408,424.545671066 L443.428123958,424.207089858 L443.681968306,424.069558669 L443.934595699,424.076860395 L444.186215874,424.175316634 L444.438445921,424.317429062 L445.884663486,424.25992153 L446.415105621,424.656509698 L446.745051678,425.086254978 L447.830875039,428.273331844 L447.373460504,429.103692388 L450.436447675,429.668135988 L451.151025369,430.923658595 L451.202963259,431.521050963 L451.152017621,431.654322619 L451.082510548,431.76588058 L450.891546986,431.928692131 L450.663223385,432.326599338 L450.402674347,432.800743679 L450.124715935,433.254330577 L449.84263031,433.580654575 L449.443828421,433.731884245 L449.128142639,433.554975381 L448.174788897,432.574867468 L446.285198263,433.517759859 L446.527993811,437.293485804 L451.124784653,440.839450516 L454.978988352,437.27699732 L460.807049556,439.779894586 L461.22827025,440.344166328 L460.84489283,441.362136468 L458.66120381,443.913092869 L457.504728678,445.942698103 L457.491128685,446.464370302 L457.609419107,447.030505239 L457.748630683,448.096883775 L457.685254643,449.526620831 L456.042290509,452.038566618 L455.943080429,452.622352569 L455.93742325,453.121091519 L455.932807477,453.239972035 L455.930401409,453.355013927 L455.915383621,453.770422178 L456.146459518,453.977136481 L456.76370392,454.357963418 L456.79383387,454.544150714 L456.748317648,454.763421542 L456.726037329,454.971743927 L456.82018922,455.130324657 L457.13017305,455.322554401 L457.280213179,455.427613908 L457.420127468,455.5455813 L457.651899165,455.995908527 L457.470580384,456.371956401 L457.06408622,456.633477919 L455.893456597,456.75729255 L455.697294477,456.91765112 L455.903640194,457.301594523 L456.193128261,457.454788727 L457.83161285,458.24275463 L458.90054858,457.909004572 L460.359182966,459.539740891 L465.624425015,460.500043338 L465.588347176,460.656637982 L465.500284753,460.791684359 L464.406828577,462.089615549 L462.802519244,463.09072868 L459.263655169,463.677652373 L459.112444525,464.252394826 L459.189327659,465.005310491 L459.374277009,465.757600763 L459.551076665,466.337779281 L459.62982641,466.609517651 L459.765976149,467.15386492 L459.798754177,467.434968439 L459.800925752,467.547352964 L459.807742393,467.657050096 L459.842886496,467.938059046 L459.961835218,468.49811316 L460.359840194,469.606774898 L460.393314947,470.111566382 L460.214307101,470.303747424 L459.370856599,470.568838001 L459.135169356,470.743222171 L458.78052313,471.544601775 L458.624041377,471.708271956 L458.070170375,472.202561595 L457.84909873,472.871001422 L457.938748571,473.604615826 L458.213801081,474.330927817 L458.545393448,474.980056239 L458.660411964,475.209168875 L458.814880374,475.411735477 L459.001275991,475.57805402 L459.217025695,475.703223563 L459.632826668,475.796718291 L459.997420155,475.709767432 L460.350006684,475.530781103 L460.729623155,475.343174559 L462.699195068,475.886472884 L463.132153494,477.223962332 L463.702245967,477.850942413 L463.830865448,478.230759745 L463.685560345,479.831681266 L464.001275482,479.911469168 L464.712369181,479.797732744 L465.082509734,479.924000835 L466.566236495,478.924500775 L468.058513213,478.490339298 L468.631942833,478.366492756 L469.205681951,478.250045571 L469.867617871,478.046008796 L470.54073744,477.966459556 L472.345777359,481.286857418 Z" fill="#cee3f5" id="MX.PU" stroke="#6e6e6e" stroke-width="0.4"><desc><labelrank>7</labelrank><code_hasc>MX.PU</code_hasc><name>Puebla</name><admin>Mexico</admin><type_en>State</type_en><region /><woe_id>2346284</woe_id><longitude>-97</longitude><woe_name>Puebla</woe_name><fips>MX21</fips><woe_label>Puebla, MX, Mexico</woe_label><latitude>18</latitude><iso_a2>MX</iso_a2><postal>PU</postal><type>Estado</type><id>MX.PU</id></desc></path><path d="M573.58728318,474.617189097 L573.907112519,474.443553117 L574.121856667,474.416421919 L575.162997017,474.495823047 L578.440484921,474.169013722 L578.773240079,481.341395546 L586.060265949,486.134663743 L591.364110673,485.835608363 L591.54102888,485.562701191 L591.749702813,484.995151538 L591.93008214,484.372311449 L591.868780519,482.939925707 L592.005312455,482.528581363 L592.096301797,482.283159627 L592.147589435,482.165123678 L592.609510332,481.990217703 L593.261326736,481.92137693 L594.770964741,481.87306569 L598.220428527,482.497513194 L598.609495351,482.677104497 L599.87912473,483.501278957 L600.342634322,483.730240993 L600.779064799,483.801976204 L602.171208003,483.692604264 L602.598963128,483.827226285 L603.265353011,484.377637903 L603.605396638,484.426871798 L604.285397702,484.405524402 L604.966778405,484.385245321 L606.378111012,484.338267282 L607.632180771,501.914166507 L597.229758435,502.569021001 L597.163351329,502.485356217 L597.0492815,502.173802052 L597.043618664,501.767104098 L597.114024087,501.38320956 L597.232814612,501.135943008 L598.117797994,500.924082142 L598.177624684,500.566259439 L597.234726901,499.340724877 L596.241822446,499.306870079 L595.889502374,499.226617627 L595.595067694,499.063545971 L595.492314406,497.702018889 L595.29429239,497.555306728 L591.807244676,496.283520498 L590.238621747,491.749793648 L589.743170573,491.628532053 L588.270003126,491.704506635 L587.958663426,491.529958052 L588.000576976,491.106610818 L588.199901719,490.63571895 L588.321782702,490.387311179 L588.181086734,489.643484697 L588.125229081,489.520241239 L588.063568933,489.418992366 L588.017150166,489.273510679 L588.013285778,488.788457195 L587.973607786,488.634896928 L587.60859594,488.099543922 L587.124105609,487.737513296 L582.950592053,487.545230025 L582.284000359,488.043149949 L581.693591354,488.755335861 L581.143293431,489.434176701 L581.590463434,490.144290763 L581.148189676,490.550585975 L575.114558461,492.769665045 L566.004873157,501.890611085 L560.404983091,497.876193892 L560.222028498,497.419303246 L560.071628168,495.79942005 L559.513783796,493.864191268 L559.443804712,492.875683045 L559.758973475,491.748506006 L559.826163376,491.362424062 L559.823843455,490.930009894 L559.77486278,490.487814794 L559.711381132,490.046515441 L559.659204496,489.612113373 L559.625260859,489.434605856 L559.589678123,488.935947504 L559.55879495,488.788608912 L559.477185991,488.368682492 L559.207630635,488.886140704 L558.212642926,489.382302966 L557.433557341,489.292167554 L554.789925827,487.529300764 L553.016282633,487.276608592 L552.070948178,488.062584496 L550.185725394,496.14731006 L548.049370992,498.502519268 L547.820575777,498.946194143 L547.571374025,499.90100078 L547.01602477,501.333922949 L546.739393568,502.051467694 L546.462462671,502.766426103 L546.025213213,502.642262272 L545.626946264,502.478009459 L545.315611497,502.200304397 L545.140342274,501.735724259 L545.155528077,501.532958534 L545.296358269,500.960898625 L545.444388719,499.749828902 L545.563369651,499.138549173 L545.634062513,498.637272874 L545.427737814,498.246460737 L544.724276475,497.967301103 L544.379330763,497.733308029 L542.684340308,495.754196065 L537.829732007,493.902918772 L534.405409299,491.082625935 L532.559545692,483.250442505 L532.609784998,483.234023895 L533.131891124,482.891099136 L533.744793755,482.578648443 L538.82397467,480.47491752 L538.50347635,481.704927776 L545.01123614,479.172739712 L545.198481078,477.418198441 L539.151265603,480.62273347 L544.81323416,477.353835997 L555.027247492,476.162537974 L555.817308719,478.618690053 L555.470966363,476.482180024 L565.001587454,471.872892417 L566.374292726,475.772175294 L565.45339876,471.268965582 L570.438213709,470.084838496 L570.546470729,470.543506149 L570.857002013,470.994093189 L571.229902165,471.4189688 L571.535334484,471.828110547 L571.750750371,472.390333592 L571.913157209,473.009367054 L572.138718504,473.578560799 L572.54515,473.994964288 L573.58728318,474.617189097 Z" fill="#cee3f5" id="MX.TB" stroke="#6e6e6e" stroke-width="0.4"><desc><labelrank>4</labelrank><code_hasc>MX.TB</code_hasc><name>Tabasco</name><admin>Mexico</admin><type_en>State</type_en><region /><woe_id>2346290</woe_id><longitude>-92</longitude><woe_name>Tabasco</woe_name><fips>MX32</fips><woe_label>Tabasco, MX, Mexico</woe_label><latitude>18</latitude><iso_a2>MX</iso_a2><postal>TB</postal><type>Estado</type><id>MX.TB</id></desc></path><path d="M427.472700146,457.572772695 L426.948713463,454.608986448 L438.666096342,452.095188687 L440.898091901,450.905043941 L450.942681847,460.164001375 L438.004239368,465.78796177 L431.491021247,458.005742365 L427.472700146,457.572772695 Z" fill="#cee3f5" id="MX.TL" stroke="#6e6e6e" stroke-width="0.4"><desc><labelrank>7</labelrank><code_hasc>MX.TL</code_hasc><name>Tlaxcala</name><admin>Mexico</admin><type_en>State</type_en><region /><woe_id>2346292</woe_id><longitude>-98</longitude><woe_name>Tlaxcala</woe_name><fips>MX29</fips><woe_label>Tlaxcala, MX, Mexico</woe_label><latitude>19</latitude><iso_a2>MX</iso_a2><postal>TL</postal><type>Estado</type><id>MX.TL</id></desc></path><path d="M420.370072949,466.788252566 L412.982796102,465.723664815 L412.275917241,460.440662246 L416.362173589,455.29578157 L420.370072949,466.788252566 Z" fill="#cee3f5" id="MX.DF" stroke="#6e6e6e" stroke-width="0.4"><desc><labelrank>4</labelrank><code_hasc>MX.DF</code_hasc><name>Distrito Federal</name><admin>Mexico</admin><type_en>Federal District</type_en><region /><woe_id>2346272</woe_id><longitude>-99</longitude><woe_name>Distrito Federal</woe_name><fips>MX09</fips><woe_label>Distrito Federal, MX, Mexico</woe_label><latitude>19</latitude><iso_a2>MX</iso_a2><postal>DF</postal><type>Distrito Federal</type><id>MX.DF</id></desc></path><path d="M399.912242485,411.268689125 L401.771026611,415.677014675 L394.542026224,417.210951381 L393.135423486,423.552393936 L385.573045037,422.464734399 L384.004961296,424.279053943 L383.055350427,430.023366068 L389.483918461,440.568961308 L384.388567882,448.01392904 L374.985793135,447.845625112 L372.497725612,446.851696779 L372.868195376,443.736104148 L363.828604971,444.948225844 L364.707583354,439.740332178 L362.769553763,438.207297996 L359.281055419,438.676241654 L358.016257372,441.747525343 L353.030722141,441.630501734 L351.700339238,437.635306582 L348.287799374,437.184210781 L351.210340305,432.324372682 L348.419697274,427.481867915 L353.546992485,418.81297808 L359.826434045,413.922032375 L358.223591739,409.003636396 L360.785662493,402.048041991 L373.376593684,403.973267264 L381.028697377,410.018132504 L385.941466916,405.423117591 L399.912242485,411.268689125 Z" fill="#cee3f5" id="MX.GJ" stroke="#6e6e6e" stroke-width="0.4"><desc><labelrank>7</labelrank><code_hasc>MX.GJ</code_hasc><name>Guanajuato</name><admin>Mexico</admin><type_en>State</type_en><region /><woe_id>2346274</woe_id><longitude>-100</longitude><woe_name>Guanajuato</woe_name><fips>MX11</fips><woe_label>Guanajuato, MX, Mexico</woe_label><latitude>20</latitude><iso_a2>MX</iso_a2><postal>GJ</postal><type>Estado</type><id>MX.GJ</id></desc></path><path d="M408.478596076,477.132237194 L412.391643111,482.350862644 L416.385135452,479.919843915 L418.934540947,484.646372201 L426.066314039,492.665790531 L435.441055827,495.177383543 L436.413903386,509.011886294 L444.13328129,516.065026946 L442.537938516,522.121071408 L436.491690144,527.591524492 L436.66727625,530.904807541 L431.800064066,533.251122832 L426.470318634,527.690192907 L405.810265664,524.773843749 L398.085566971,519.857944224 L373.244645924,511.819159378 L355.689652104,497.047292508 L350.471612096,494.703517679 L347.454799651,496.407911794 L347.502398755,490.820186359 L352.839815612,489.448188386 L355.661992933,480.284695505 L362.272924952,482.8257454 L378.241715066,482.078619553 L382.58417472,485.853794231 L378.776204346,474.772583316 L382.521752029,473.025898304 L386.55941535,473.709833767 L390.129757679,484.421704659 L395.316105334,479.01959509 L401.876649424,478.564725326 L404.641337094,475.073219323 L408.478596076,477.132237194 Z" fill="#cee3f5" id="MX.GR" stroke="#6e6e6e" stroke-width="0.4"><desc><labelrank>4</labelrank><code_hasc>MX.GR</code_hasc><name>Guerrero</name><admin>Mexico</admin><type_en>State</type_en><region /><woe_id>2346275</woe_id><longitude>-100</longitude><woe_name>Guerrero</woe_name><fips>MX12</fips><woe_label>Guerrero, MX, Mexico</woe_label><latitude>17</latitude><iso_a2>MX</iso_a2><postal>GR</postal><type>Estado</type><id>MX.GR</id></desc></path><path d="M441.184835246,432.400989455 L435.145700656,438.479181972 L439.239523096,441.700325418 L436.042158732,447.939476963 L438.666096342,452.095188687 L426.948713463,454.608986448 L427.167440854,449.548958175 L422.711321032,447.49387246 L419.936064242,449.454810978 L418.805224958,443.925200436 L414.275961068,445.526786447 L410.235243827,451.015304979 L406.265662432,441.465250147 L403.798996202,442.053268916 L399.454186097,438.012822235 L399.877592127,433.099245915 L407.240528922,429.309451896 L409.401250914,418.764887952 L416.975072352,416.598435301 L416.875864774,414.370634727 L427.109242994,415.364772558 L428.6870782,410.804576561 L429.2124903,411.084268308 L429.596545458,411.329290888 L429.978560273,411.580598327 L430.359468371,411.831921488 L429.978357034,412.354997652 L429.601330484,412.834203617 L429.338352295,413.366461651 L429.301830196,414.051132714 L429.330474454,414.224639126 L429.393215555,414.371942726 L429.48996539,414.490552052 L429.621894149,414.58042122 L430.073426601,414.713259934 L431.256474598,416.048277344 L431.81265609,416.436451506 L432.107351664,416.557557545 L432.424986597,416.541833686 L433.443792515,415.704927337 L433.832982583,415.206093653 L433.993016116,414.285632659 L434.303253328,417.222577078 L434.959472287,417.212395116 L435.384257153,416.754433183 L435.751195852,416.528176679 L436.237278773,417.201748792 L436.499368844,417.288890705 L436.692502845,417.408642938 L436.848183908,417.588485993 L437.002355995,417.849483784 L437.544145101,418.11033328 L437.691565268,418.346631711 L437.661834457,418.574879806 L437.546414086,418.94870835 L437.402692524,419.318635715 L437.287236404,419.542718814 L436.782804403,419.705767373 L436.096495921,420.714092108 L435.932448189,420.927483733 L435.758588908,421.130010279 L435.49537795,421.662776575 L435.396262929,422.47491231 L435.450473228,423.313629358 L435.713285175,424.057092778 L435.71984642,424.167867741 L435.658422472,424.248794639 L434.949660191,424.330564119 L434.420758233,424.174659072 L433.414560956,423.607540228 L433.129126076,423.498491247 L432.832751749,423.409788343 L432.532643882,423.346147928 L431.908901038,423.278288594 L431.528854367,423.333513572 L431.208937718,423.493722456 L431.067139139,423.780770367 L431.140665241,424.058639689 L431.308386659,424.251985804 L431.462350493,424.453318612 L431.488678767,424.754130321 L431.474501281,425.037728586 L431.480090195,425.253258764 L431.401197253,425.435732177 L429.943468337,425.883047715 L429.710711669,426.255575809 L429.757087045,426.596777365 L430.015489938,426.833040169 L430.415065068,426.885855215 L431.226554789,426.397348071 L431.490131219,426.483700503 L431.573118101,426.890923797 L431.481535133,427.336972012 L431.089608482,428.13939181 L430.636618517,428.623475306 L430.052992719,429.036128586 L429.532908166,429.456342339 L429.018683463,431.721401343 L428.856844834,431.959050204 L428.408772274,432.406300509 L428.215827838,432.630041444 L428.286714629,433.17356471 L428.651288982,433.715441687 L429.100419948,434.253069025 L429.922909737,435.766091537 L430.662081911,435.951706248 L431.423304273,435.504217059 L432.636424038,433.198224351 L433.605321518,433.882364509 L439.188518061,427.344656866 L440.533475213,428.168363544 L440.562068177,429.203028723 L440.660376645,429.343958761 L440.994413376,429.714054236 L441.066396306,430.083139899 L440.919332724,430.410845253 L440.703632306,430.727476168 L440.563924377,431.064845319 L440.581201465,431.449777863 L441.184835246,432.400989455 Z" fill="#cee3f5" id="MX.HI" stroke="#6e6e6e" stroke-width="0.4"><desc><labelrank>4</labelrank><code_hasc>MX.HI</code_hasc><name>Hidalgo</name><admin>Mexico</admin><type_en>State</type_en><region /><woe_id>2346276</woe_id><longitude>-98</longitude><woe_name>Hidalgo</woe_name><fips>MX13</fips><woe_label>Hidalgo, MX, Mexico</woe_label><latitude>20</latitude><iso_a2>MX</iso_a2><postal>HG</postal><type>Estado</type><id>MX.HI</id></desc></path><path d="M426.948713463,454.608986448 L427.472700146,457.572772695 L427.692931967,468.136681927 L424.122063884,469.637715536 L420.370072949,466.788252566 L416.362173589,455.29578157 L412.275917241,460.440662246 L412.982796102,465.723664815 L408.478596076,477.132237194 L404.641337094,475.073219323 L401.876649424,478.564725326 L395.316105334,479.01959509 L390.129757679,484.421704659 L386.55941535,473.709833767 L382.521752029,473.025898304 L393.117968439,459.191479747 L391.488260973,456.121119268 L393.35482994,447.099599045 L399.454186097,438.012822235 L403.798996202,442.053268916 L406.265662432,441.465250147 L410.235243827,451.015304979 L414.275961068,445.526786447 L418.805224958,443.925200436 L419.936064242,449.454810978 L422.711321032,447.49387246 L427.167440854,449.548958175 L426.948713463,454.608986448 Z" fill="#cee3f5" id="MX.MX" stroke="#6e6e6e" stroke-width="0.4"><desc><labelrank>4</labelrank><code_hasc>MX.MX</code_hasc><name>México</name><admin>Mexico</admin><type_en>State</type_en><region /><woe_id>2346278</woe_id><longitude>-99</longitude><woe_name>México</woe_name><fips>MX15</fips><woe_label>Mexico, MX, Mexico</woe_label><latitude>19</latitude><iso_a2>MX</iso_a2><postal>MX</postal><type>Estado</type><id>MX.MX</id></desc></path><path d="M420.370072949,466.788252566 L424.122063884,469.637715536 L427.692931967,468.136681927 L425.862384196,473.299598718 L427.497787579,476.131247443 L425.571518716,476.202024809 L427.449795651,482.519287713 L423.981536344,481.024314785 L418.934540947,484.646372201 L416.385135452,479.919843915 L412.391643111,482.350862644 L408.478596076,477.132237194 L412.982796102,465.723664815 L420.370072949,466.788252566 Z" fill="#cee3f5" id="MX.MR" stroke="#6e6e6e" stroke-width="0.4"><desc><labelrank>4</labelrank><code_hasc>MX.MR</code_hasc><name>Morelos</name><admin>Mexico</admin><type_en>State</type_en><region /><woe_id>2346280</woe_id><longitude>-99</longitude><woe_name>Morelos</woe_name><fips>MX17</fips><woe_label>Morelos, MX, Mexico</woe_label><latitude>18</latitude><iso_a2>MX</iso_a2><postal>MO</postal><type>Estado</type><id>MX.MR</id></desc></path><path d="M416.875864774,414.370634727 L416.975072352,416.598435301 L409.401250914,418.764887952 L407.240528922,429.309451896 L399.877592127,433.099245915 L399.454186097,438.012822235 L393.35482994,447.099599045 L389.483918461,440.568961308 L383.055350427,430.023366068 L384.004961296,424.279053943 L385.573045037,422.464734399 L393.135423486,423.552393936 L394.542026224,417.210951381 L401.771026611,415.677014675 L399.912242485,411.268689125 L401.433552812,408.92314648 L404.624989564,411.72750104 L409.127948748,410.66297599 L413.098298463,405.404907887 L416.875864774,414.370634727 Z" fill="#cee3f5" id="MX.QE" stroke="#6e6e6e" stroke-width="0.4"><desc><labelrank>4</labelrank><code_hasc>MX.QE</code_hasc><name>Querétaro</name><admin>Mexico</admin><type_en>State</type_en><region /><woe_id>2346285</woe_id><longitude>-99</longitude><woe_name>Querétaro</woe_name><fips>MX22</fips><woe_label>Queretaro de Arteaga, MX, Mexico</woe_label><latitude>20</latitude><iso_a2>MX</iso_a2><postal>QT</postal><type>Estado</type><id>MX.QE</id></desc></path><path d="M444.339942845,389.057220586 L448.655435924,399.444639839 L455.586313792,405.780861136 L453.582288795,412.824371369 L452.195326837,408.909639013 L454.392573935,406.401460391 L448.369997846,400.456419048 L444.542406621,393.337707699 L460.329233932,427.674929042 L477.02230879,445.752753708 L481.42927495,458.540460748 L494.413763585,470.838171952 L489.597495456,469.701502733 L491.986422857,472.814503453 L498.806960762,473.455801295 L494.873534211,470.81578585 L507.516135393,472.485062675 L517.084367081,476.681281197 L523.181347759,484.770983447 L532.559545692,483.250442505 L532.559751123,483.250924855 L532.654088338,483.472424091 L532.752015151,483.993610819 L532.880825002,484.206883428 L533.580327028,484.393112925 L534.857571675,488.333967793 L534.405409299,491.082625935 L536.946768657,492.153357109 L537.829732007,493.902918772 L542.684340308,495.754196065 L544.379330763,497.733308029 L544.724276475,497.967301103 L545.427737814,498.246460737 L545.634062513,498.637272874 L545.563369651,499.138549173 L545.444388719,499.749828902 L545.296358269,500.960898625 L545.155528077,501.532958534 L545.140342274,501.735724259 L545.315611497,502.200304397 L545.626946264,502.478009459 L546.462462671,502.766426103 L546.377083318,503.013591161 L546.120554629,503.750010402 L545.865191801,504.251556817 L545.46433138,504.667842299 L540.128291952,508.618622437 L536.470682763,508.59696264 L532.814930158,508.572377578 L529.161075158,508.546125345 L525.510168369,508.515634661 L519.508772867,508.339936727 L518.341960474,508.376671799 L516.694735321,508.419214705 L515.172513131,508.294164676 L507.376472849,499.7726231 L507.407973105,499.477259344 L507.420719373,499.192845176 L507.47112025,498.915397204 L507.61064448,498.638648988 L507.797127713,498.486444217 L508.276434913,498.264727746 L508.440550929,498.123611349 L508.477426264,497.966080555 L508.51289266,497.434348988 L508.53482041,497.242375873 L508.580542509,496.946250372 L508.578406282,496.607247858 L508.491149079,496.300042974 L508.277556591,496.091964256 L503.217271738,498.673613639 L502.183216891,499.814387584 L501.613603202,499.986740153 L501.253700581,500.21693938 L500.883280407,500.480205255 L500.428847816,500.723492922 L499.413925126,501.729123371 L495.470751538,501.948538286 L495.121087441,501.798856254 L494.824082481,501.456189262 L492.282144013,496.921032694 L491.99593765,496.275845088 L492.262922685,494.614058438 L492.323823176,494.500974666 L492.390824093,494.390118223 L493.854300555,492.527823862 L494.431234313,491.530688686 L494.815421922,490.344167752 L493.697136909,488.041266795 L493.233824147,487.385725567 L485.734855439,487.015833416 L480.931736269,481.47302453 L479.525311224,477.851478452 L473.554052222,474.973103135 L472.345777359,481.286857418 L472.117423381,480.912406583 L470.950053697,479.698024164 L470.54073744,477.966459556 L469.867617871,478.046008796 L469.205681951,478.250045571 L468.631942833,478.366492756 L468.058513213,478.490339298 L466.566236495,478.924500775 L465.082509734,479.924000835 L464.712369181,479.797732744 L464.001275482,479.911469168 L463.685560345,479.831681266 L463.468574782,479.477905687 L463.516275679,479.033481072 L463.684279481,478.586696376 L463.830865448,478.230759745 L463.702245967,477.850942413 L463.132153494,477.223962332 L462.699195068,475.886472884 L461.019796532,475.361563481 L460.729623155,475.343174559 L460.350006684,475.530781103 L459.997420155,475.709767432 L459.632826668,475.796718291 L459.217025695,475.703223563 L459.001275991,475.57805402 L458.814880374,475.411735477 L458.660411964,475.209168875 L458.545393448,474.980056239 L458.213801081,474.330927817 L457.938748571,473.604615826 L457.84909873,472.871001422 L458.070170375,472.202561595 L458.624041377,471.708271956 L458.78052313,471.544601775 L459.135169356,470.743222171 L459.370856599,470.568838001 L460.214307101,470.303747424 L460.393314947,470.111566382 L460.359840194,469.606774898 L459.961835218,468.49811316 L459.842886496,467.938059046 L459.807742393,467.657050096 L459.798754177,467.434968439 L459.765976149,467.15386492 L459.62982641,466.609517651 L459.551076665,466.337779281 L459.374277009,465.757600763 L459.189327659,465.005310491 L459.112444525,464.252394826 L459.263655169,463.677652373 L462.802519244,463.09072868 L464.406828577,462.089615549 L465.105169138,461.134830026 L465.500284753,460.791684359 L465.588347176,460.656637982 L465.624425015,460.500043338 L465.606417683,460.328245849 L465.325411807,460.170152661 L464.031140045,459.687407054 L460.359182966,459.539740891 L458.90054858,457.909004572 L457.83161285,458.24275463 L457.243393769,457.542039126 L456.193128261,457.454788727 L455.903640194,457.301594523 L455.697294477,456.91765112 L455.893456597,456.75729255 L457.06408622,456.633477919 L457.470580384,456.371956401 L457.651899165,455.995908527 L457.420127468,455.5455813 L457.280213179,455.427613908 L457.13017305,455.322554401 L456.82018922,455.130324657 L456.726037329,454.971743927 L456.748317648,454.763421542 L456.79383387,454.544150714 L456.76370392,454.357963418 L456.479266189,454.122212351 L456.146459518,453.977136481 L455.915383621,453.770422178 L455.943080429,452.622352569 L456.042290509,452.038566618 L457.685254643,449.526620831 L457.748630683,448.096883775 L457.504728678,445.942698103 L458.66120381,443.913092869 L460.84489283,441.362136468 L461.22827025,440.344166328 L460.807049556,439.779894586 L454.978988352,437.27699732 L451.124784653,440.839450516 L446.527993811,437.293485803 L446.285198263,433.517759859 L448.174788897,432.574867468 L449.128142639,433.554975381 L449.443828421,433.731884245 L449.84263031,433.580654575 L450.124715935,433.254330577 L450.402674347,432.800743679 L450.663223385,432.326599338 L450.891546986,431.928692131 L451.082510548,431.76588058 L451.152017621,431.654322619 L451.202963259,431.521050963 L447.373460504,429.103692388 L446.745051678,425.086254978 L446.415105621,424.656509698 L445.884663486,424.25992153 L445.475759763,424.192942999 L444.438445921,424.317429062 L444.186215874,424.175316634 L443.934595699,424.076860395 L443.681968306,424.069558669 L443.428123958,424.207089858 L443.233965408,424.545671066 L441.765726467,427.603362027 L441.828365262,427.82180191 L442.229788699,428.468707583 L442.328162185,430.279577683 L441.946449183,431.607524723 L441.744703012,431.921176569 L441.489312665,432.18697547 L441.184835246,432.400989455 L440.581201465,431.449777863 L440.563924377,431.064845319 L440.703632306,430.727476168 L440.919332724,430.410845253 L441.066396306,430.083139899 L440.994413376,429.714054236 L440.660376645,429.343958761 L440.562068177,429.203028723 L440.533475213,428.168363544 L439.188518061,427.344656866 L433.605321518,433.882364509 L432.636424038,433.198224351 L431.423304273,435.504217059 L429.922909737,435.766091537 L429.100419948,434.253069025 L428.651288982,433.715441687 L428.286714629,433.17356471 L428.215827838,432.630041444 L428.408772274,432.406300509 L428.856844834,431.959050204 L429.018683463,431.721401343 L429.532908166,429.456342339 L430.052992719,429.036128586 L430.636618517,428.623475306 L431.089608482,428.13939181 L431.481535133,427.336972012 L431.573118101,426.890923797 L431.490131219,426.483700503 L431.226554789,426.397348071 L430.415065068,426.885855215 L430.015489938,426.833040169 L429.757087045,426.596777365 L429.710711669,426.255575809 L429.943468337,425.883047715 L431.401197253,425.435732177 L431.480090195,425.253258764 L431.488678767,424.754130321 L431.462350493,424.453318612 L431.308386659,424.251985804 L431.140665241,424.058639689 L431.067139139,423.780770367 L431.208937718,423.493722456 L431.528854367,423.333513572 L431.908901038,423.278288594 L432.532643882,423.346147928 L432.832751749,423.409788343 L433.129126076,423.498491247 L433.414560956,423.607540228 L434.949660191,424.330564119 L435.658422472,424.248794639 L435.71984642,424.167867741 L435.713285175,424.057092778 L435.396262929,422.47491231 L435.49537795,421.662776575 L435.758588908,421.130010279 L435.932448189,420.927483733 L436.096495921,420.714092108 L436.782804403,419.705767373 L437.287236404,419.542718814 L437.402692524,419.318635715 L437.546414086,418.94870835 L437.661834457,418.574879806 L437.691565268,418.346631711 L437.544145101,418.11033328 L437.002355995,417.849483784 L436.848183908,417.588485993 L436.692502845,417.408642938 L436.499368844,417.288890705 L436.237278773,417.201748792 L435.751195852,416.528176679 L435.384257153,416.754433183 L434.959472287,417.212395116 L434.303253328,417.222577078 L434.492975618,415.456456047 L433.993016116,414.285632659 L433.748331051,414.369859603 L433.793840278,414.733593903 L433.832982583,415.206093653 L433.443792515,415.704927337 L432.424986597,416.541833686 L432.107351664,416.557557545 L431.256474598,416.048277344 L430.073426601,414.713259934 L429.621894149,414.58042122 L429.48996539,414.490552052 L429.393215555,414.371942726 L429.330474454,414.224639126 L429.301830196,414.051132714 L429.338352295,413.366461651 L429.601330484,412.834203617 L429.978357034,412.354997652 L430.359468371,411.831921488 L429.978560273,411.580598327 L429.596545458,411.329290888 L429.2124903,411.084268308 L428.6870782,410.804576561 L428.236021273,407.781469068 L427.815382375,407.450509394 L427.109262342,407.156284205 L426.62353994,406.95231483 L426.20686461,406.689653113 L425.871831909,406.330461968 L425.632695527,405.850555087 L425.976121715,404.004060984 L426.310084255,403.708699973 L427.1822912,403.788477005 L427.508801629,403.452100722 L427.285170074,403.267204968 L427.265763202,403.090880888 L427.395917728,402.926416909 L427.744022279,402.764989638 L428.027590752,402.901465387 L428.255245028,402.882918448 L428.302304253,402.771414683 L428.339817826,402.654034788 L428.38599971,402.581216425 L429.216818695,402.033486033 L429.443557222,401.716833441 L429.551601379,401.495723293 L429.648224177,401.159063514 L429.573765861,400.856375078 L428.992555695,400.63911526 L428.944561759,400.387797543 L428.925040063,400.08925628 L428.820323915,399.846336067 L427.902803681,399.963457936 L427.606199437,399.722788822 L427.203364776,399.194341725 L427.084011759,398.682639809 L427.630632406,398.491173229 L427.41712232,398.014208165 L427.656487251,397.699649953 L427.943825054,397.485488412 L427.879120365,397.313375882 L426.478430859,396.872603352 L427.644200849,397.008074297 L428.027599141,396.813930553 L428.291912802,396.79137971 L429.015685087,396.890869641 L429.24770142,396.602608996 L429.571586511,396.737292928 L431.452803366,392.509383355 L431.700554895,391.546601208 L431.691990453,390.832186122 L431.471202602,390.272131954 L431.067482193,389.81162668 L430.508971632,389.397122143 L429.856464293,389.008704755 L427.862076068,387.912959195 L426.504119494,386.955322942 L426.022692756,386.677037 L425.488538834,386.320920146 L426.251116019,386.194457365 L427.769606285,385.830244286 L429.153475045,386.055494067 L429.438958625,385.826001381 L432.379520988,386.511004114 L434.803483118,384.456139555 L442.579082038,390.427765173 L444.339942845,389.057220586 Z" fill="#cee3f5" id="MX.VE" stroke="#6e6e6e" stroke-width="0.4"><desc><labelrank>7</labelrank><code_hasc>MX.VE</code_hasc><name>Veracruz</name><admin>Mexico</admin><type_en>State</type_en><region /><woe_id>2346293</woe_id><longitude>-96</longitude><woe_name>Veracruz</woe_name><fips>MX30</fips><woe_label>Veracruz-Llave, MX, Mexico</woe_label><latitude>19</latitude><iso_a2>MX</iso_a2><postal>VE</postal><type>Estado</type><id>MX.VE</id></desc></path><path d="M540.128291952,508.618622437 L545.46433138,504.667842299 L545.865191801,504.251556817 L546.120554629,503.750010402 L546.377083318,503.013591161 L546.462462671,502.766426103 L546.739393568,502.051467694 L547.01602477,501.333922949 L547.571374025,499.90100078 L548.049370992,498.502519268 L550.185725394,496.14731006 L552.070948178,488.062584496 L553.016282633,487.276608592 L557.433557341,489.292167554 L558.212642926,489.382302966 L558.702592735,488.843871423 L559.207630635,488.886140704 L559.477185991,488.368682492 L559.55879495,488.788608912 L559.589678123,488.935947504 L559.625260859,489.434605856 L559.659204496,489.612113373 L559.711381132,490.046515441 L559.77486278,490.487814794 L559.823843455,490.930009894 L559.826163376,491.362424062 L559.758973475,491.748506006 L559.443804712,492.875683045 L559.513783796,493.864191268 L560.071628168,495.79942005 L560.222028498,497.419303246 L560.404983091,497.876193892 L566.004873157,501.890611085 L575.114558461,492.769665045 L581.148189676,490.550585975 L581.590463434,490.144290763 L581.143293431,489.434176701 L581.693591354,488.755335861 L582.284000359,488.043149949 L582.950592053,487.545230025 L587.124105609,487.737513296 L587.60859594,488.099543922 L587.973607786,488.634896928 L588.013285778,488.788457195 L588.017150166,489.273510679 L588.063568933,489.418992366 L588.125229081,489.520241239 L588.181086734,489.643484697 L588.321782702,490.387311179 L588.199901719,490.63571895 L588.000576976,491.106610818 L587.958663426,491.529958052 L588.270003126,491.704506635 L589.743170573,491.628532053 L590.238621747,491.749793648 L591.807244676,496.283520498 L595.29429239,497.555306728 L595.492314406,497.702018889 L595.595067694,499.063545971 L595.889502374,499.226617627 L596.241822446,499.306870079 L597.234726901,499.340724877 L598.177624684,500.566259439 L598.117797994,500.924082142 L597.232814612,501.135943008 L597.114024087,501.38320956 L597.043618664,501.767104098 L597.0492815,502.173802052 L597.163351329,502.485356217 L597.229758435,502.569021001 L597.039897627,502.98984988 L613.005970186,512.553626737 L617.436893607,520.198592118 L623.198862416,521.381764722 L622.735726869,529.332948771 L591.886801313,532.278637695 L581.849988719,552.249952131 L585.391424447,556.918411963 L581.998746478,570.049929944 L567.066497443,555.779683588 L569.603327295,557.32329445 L568.764801247,555.436966846 L536.474967858,533.233842833 L536.592801745,532.971847149 L536.982818944,532.327200043 L537.146937445,531.984979744 L537.266611534,531.55930225 L537.340036949,531.086808898 L537.386193368,530.605608051 L537.420360617,530.152732493 L537.31363958,529.443658889 L536.986551055,528.637476169 L535.322413961,525.486804402 L535.057129088,524.53028301 L535.478028252,523.495747294 L536.717913295,521.647466035 L536.888558731,521.167289868 L536.96775398,520.681767327 L536.974707762,520.186137762 L536.930913874,519.672992046 L536.690261994,518.484593717 L536.600137515,517.83023155 L536.649418406,517.334907659 L536.924972362,517.011670611 L538.291210113,516.150526749 L538.616378615,515.918981438 L539.595360162,515.223900026 L539.579401546,512.30104248 L539.815165313,511.88109992 L540.435016164,511.969939364 L540.397677058,511.2797037 L540.397392291,510.625288426 L540.400288468,509.91899609 L540.335957934,509.22644366 L540.128291952,508.618622437 Z" fill="#cee3f5" id="MX.CP" stroke="#6e6e6e" stroke-width="0.4"><desc><labelrank>4</labelrank><code_hasc>MX.CP</code_hasc><name>Chiapas</name><admin>Mexico</admin><type_en>State</type_en><region /><woe_id>2346268</woe_id><longitude>-92</longitude><woe_name>Chiapas</woe_name><fips>MX05</fips><woe_label>Chiapas, MX, Mexico</woe_label><latitude>16</latitude><iso_a2>MX</iso_a2><postal>CS</postal><type>Estado</type><id>MX.CP</id></desc></path><path d="M700.0,411.011294059 L695.06464478,419.276413156 L695.659353938,412.008045555 L700.0,411.011294059 M649.878348125,481.341184489 L651.967592849,474.914449574 L649.202215957,463.011347384 L650.287219953,449.801143398 L647.032976388,445.432854245 L641.018662974,441.282462254 L639.923478347,439.962033001 L640.316131528,439.059615563 L640.745931455,437.306241507 L640.766344862,436.517313798 L640.633722215,435.697302465 L641.19727679,435.366224757 L644.475858047,434.809831349 L645.552911654,433.43447733 L646.984291721,432.819839531 L647.683825785,432.273884831 L650.654508755,431.768844273 L651.018664062,431.539639044 L651.208716668,431.245064071 L652.540446074,429.772183434 L653.736374041,430.472868214 L663.312732294,421.125970235 L664.087836906,421.103595918 L665.444843465,422.302270316 L666.531678459,417.449067522 L668.636655064,417.849215968 L669.360919041,417.545517973 L671.352786667,417.21079893 L673.203773306,415.929673955 L678.139805807,411.368126456 L678.936648071,408.876078 L679.348857333,408.038780583 L679.46204985,406.384673334 L680.60888156,403.388043479 L679.041835491,389.923504016 L686.155147725,390.545355179 L688.136522294,387.305116771 L681.841493126,388.74247984 L688.588870376,385.735757675 L695.717741724,389.70076509 L698.498542532,396.159180657 L696.246860029,404.196113277 L684.967654011,421.352609745 L684.936030586,432.310755838 L684.51644864,427.826503738 L680.908506565,436.494340679 L679.078684668,435.728157265 L681.07509267,439.687199212 L687.037897439,437.281324484 L681.507239574,444.517503824 L682.597465612,446.671158986 L686.548624573,443.776207597 L680.166785976,472.555963982 L677.45202591,466.641329388 L673.949656954,465.578425926 L674.056944929,456.157228626 L669.479894457,461.052026558 L671.765654074,460.783029017 L669.107084111,466.202503837 L663.414455225,467.64835302 L656.508369962,482.287555558 L649.878348125,481.341184489 Z" fill="#cee3f5" id="MX.QR" stroke="#6e6e6e" stroke-width="0.4"><desc><labelrank>4</labelrank><code_hasc>MX.QR</code_hasc><name>Quintana Roo</name><admin>Mexico</admin><type_en>State</type_en><region /><woe_id>2346286</woe_id><longitude>-88</longitude><woe_name>Quintana Roo</woe_name><fips>MX23</fips><woe_label>Quintana Roo, MX, Mexico</woe_label><latitude>19</latitude><iso_a2>MX</iso_a2><postal>QR</postal><type>Estado</type><id>MX.QR</id></desc></path><path d="M679.041835491,389.923504016 L679.004059816,399.665910139 L680.328982218,401.857990438 L680.60888156,403.388043479 L679.46204985,406.384673334 L679.348857333,408.038780583 L678.936648071,408.876078 L678.139805807,411.368126456 L673.203773306,415.929673955 L671.352786667,417.21079893 L670.778716827,417.471234478 L669.360919041,417.545517973 L668.636655064,417.849215968 L666.531678459,417.449067522 L665.444843465,422.302270316 L664.087836906,421.103595918 L663.312732294,421.125970235 L653.736374041,430.472868214 L652.540446074,429.772183434 L651.208716668,431.245064071 L651.018664062,431.539639044 L650.654508755,431.768844273 L647.683825785,432.273884831 L646.984291721,432.819839531 L645.552911654,433.43447733 L644.475858047,434.809831349 L641.19727679,435.366224757 L640.633722215,435.697302465 L640.745931455,437.306241507 L640.316131528,439.059615563 L639.923478347,439.962033001 L624.102192442,421.122600853 L622.476897968,422.757671062 L618.964004485,420.526812523 L615.757309699,420.596056679 L615.283672367,419.927931742 L615.032104233,413.815222498 L614.938146499,413.111504681 L615.58460158,409.384671529 L615.243463622,408.316837436 L624.990748626,401.731592575 L665.035080212,388.52843021 L679.041835491,389.923504016 Z" fill="#cee3f5" id="MX.YU" stroke="#6e6e6e" stroke-width="0.4"><desc><labelrank>4</labelrank><code_hasc>MX.YU</code_hasc><name>Yucatán</name><admin>Mexico</admin><type_en>State</type_en><region /><woe_id>2346294</woe_id><longitude>-88</longitude><woe_name>Yucatán</woe_name><fips>MX31</fips><woe_label>Yucatan, MX, Mexico</woe_label><latitude>20</latitude><iso_a2>MX</iso_a2><postal>YU</postal><type>Estado</type><id>MX.YU</id></desc></path></svg>